<?xml version="1.0" encoding="UTF-8" standalone="no"?>
<svg xmlns:xlink="http://www.w3.org/1999/xlink" height="459.15px" width="262.55px" xmlns="http://www.w3.org/2000/svg">
  <g transform="matrix(1.0, 0.0, 0.0, 1.0, -113.95, -7.9)">
    <path d="M370.15 207.7 L373.3 210.75 Q384.2 222.85 357.75 221.95 L333.6 233.0 312.2 260.55 Q295.7 275.3 299.25 252.8 281.0 265.7 282.5 246.2 257.65 269.6 261.5 246.2 241.3 273.55 240.55 248.55 225.55 279.4 221.65 245.8 215.4 267.7 211.3 266.05 212.5 295.35 218.3 327.9 226.05 367.95 251.85 400.3 L297.15 456.3 Q303.6 472.6 288.4 464.2 L236.9 406.9 Q232.1 401.65 226.65 397.2 L251.4 434.95 Q258.5 452.2 241.8 443.05 204.55 403.75 191.5 364.45 190.8 380.85 202.35 400.0 205.6 413.7 194.35 406.95 190.15 403.4 186.55 398.85 167.85 375.0 166.15 324.3 L166.05 319.7 166.0 317.25 Q164.65 278.85 160.9 338.0 L160.9 370.35 Q154.7 387.5 146.95 359.4 142.9 335.25 145.4 311.1 L137.3 328.35 Q122.2 343.65 126.8 310.8 L129.4 289.4 Q111.6 311.05 114.3 287.8 145.0 197.3 181.4 135.55 200.9 102.5 226.65 72.2 L267.4 25.95 Q301.05 -3.4 317.95 15.0 321.8 19.2 324.8 25.95 327.5 48.75 322.35 133.7 324.55 180.25 370.15 207.7 M284.6 30.55 L284.25 30.9 285.0 30.25 284.6 30.55 M260.65 46.1 L259.8 46.9 260.5 46.45 260.65 46.1" fill="#000000" fill-rule="evenodd" stroke="none"/>
  </g>
</svg>
