<?xml version="1.0" encoding="UTF-8" standalone="no"?>
<svg xmlns:xlink="http://www.w3.org/1999/xlink" height="301.5px" width="553.15px" xmlns="http://www.w3.org/2000/svg">
  <g transform="matrix(1.0, 0.0, 0.0, 1.0, -123.3, -54.4)">
    <path d="M654.65 55.35 Q639.5 56.8 624.15 66.25 L596.8 77.05 Q593.55 79.8 597.55 80.55 L603.25 78.25 614.35 73.95 Q638.1 64.8 658.8 58.6 657.6 56.2 654.65 55.35 650.75 54.2 643.75 55.9 589.7 68.6 515.4 115.05 506.5 120.5 495.7 130.7 451.65 170.75 418.3 215.85 398.7 244.7 425.65 248.2 L427.2 248.2 425.8 247.7 Q419.25 244.75 425.05 242.6 446.25 237.45 470.15 229.15 442.8 234.15 442.05 229.2 442.2 225.6 451.25 221.75 444.0 223.05 442.3 220.2 441.15 216.7 445.3 212.15 441.95 214.1 440.25 212.05 438.35 209.85 444.0 201.3 477.55 155.55 505.75 134.65 516.2 126.8 512.05 140.6 L516.45 130.8 Q519.4 124.15 527.15 120.95 L529.85 119.95 526.95 120.5 Q520.25 121.55 528.8 115.75 543.0 106.0 559.65 96.65 577.95 86.3 597.55 80.55 M658.8 58.6 Q669.15 56.45 674.05 66.55 679.55 77.55 669.0 83.15 670.5 95.95 657.7 102.75 657.35 111.25 649.9 116.25 649.7 127.45 639.15 132.25 641.6 142.55 622.9 153.9 627.75 167.7 595.9 183.45 596.0 190.95 584.65 198.55 L551.5 218.1 Q545.45 221.5 536.5 221.7 504.35 232.15 476.45 244.65 466.6 248.25 456.65 248.0 L427.2 248.2 M529.85 119.95 Q553.5 110.85 580.85 99.45 L597.5 92.45 602.75 90.15 Q607.3 88.0 611.65 86.3 613.65 80.2 603.25 78.25 M611.65 86.3 Q619.3 83.25 626.2 81.35 611.75 77.35 614.35 73.95 M486.6 181.55 Q492.1 183.95 552.45 157.55 562.7 144.45 575.95 139.75 574.1 133.45 577.35 121.9 L571.8 119.3 Q555.65 124.75 537.9 136.1 521.95 147.2 507.75 150.4 498.65 166.3 486.6 181.55 465.7 195.15 445.5 212.05 445.35 212.05 445.3 212.15 M622.9 153.9 Q618.3 151.0 601.15 154.3 L566.4 161.55 Q560.7 177.1 563.8 184.3 578.95 180.3 595.9 183.45 M552.45 157.55 L566.4 161.55 M507.75 150.4 L512.05 140.6 M639.15 132.25 Q628.65 128.45 614.2 131.6 L581.05 138.2 Q578.5 138.8 575.95 139.75 M657.7 102.75 Q628.15 91.05 601.95 100.6 596.65 102.45 591.55 105.2 581.35 110.55 571.8 119.3 M580.85 99.45 Q588.7 100.1 591.55 105.2 M577.35 121.9 L617.25 113.95 Q634.2 110.0 649.9 116.25 M601.95 100.6 Q590.55 98.6 597.5 92.45 M536.5 221.7 L528.4 221.2 Q510.05 220.85 476.25 227.75 L470.15 229.15 M441.95 295.75 L449.5 301.9 Q445.6 297.95 448.2 295.25 450.3 292.95 455.95 295.5 439.75 287.55 429.0 277.75 425.35 273.7 429.0 271.55 432.95 269.4 442.35 272.7 L444.25 273.4 Q463.2 280.0 470.5 292.6 476.55 290.75 484.65 289.95 L457.4 277.55 Q448.95 272.0 466.85 273.1 460.9 270.35 464.85 267.55 L449.1 266.4 Q434.15 264.35 437.75 258.4 443.3 252.15 475.95 253.6 442.1 250.85 427.15 254.1 412.8 258.45 415.7 270.95 419.7 282.95 441.95 295.75 M449.5 301.9 Q478.25 325.3 498.25 352.7 510.05 358.4 516.05 352.0 484.6 317.35 460.2 297.4 L456.1 295.55 455.95 295.5 M354.45 212.15 L354.3 212.05 Q334.05 195.15 313.15 181.55 307.65 183.95 247.35 157.55 L233.35 161.55 Q239.05 177.1 235.95 184.3 252.35 188.6 266.35 201.1 299.6 199.7 348.6 221.75 355.8 223.05 357.45 220.2 358.6 216.7 354.45 212.15 357.8 214.1 359.5 212.05 361.4 209.85 355.8 201.3 322.2 155.55 294.05 134.65 283.55 126.8 287.7 140.6 L292.0 150.4 Q301.1 166.3 313.15 181.55 M348.6 221.75 Q357.55 225.6 357.75 229.2 357.0 234.15 329.6 229.15 353.6 237.45 374.7 242.6 380.55 244.75 373.95 247.7 L372.55 248.2 374.1 248.2 Q401.1 244.7 381.5 215.85 348.15 170.75 304.1 130.7 293.3 120.5 284.35 115.05 210.1 68.6 156.05 55.9 149.0 54.2 145.1 55.35 160.3 56.8 175.65 66.25 L202.95 77.05 Q206.2 79.8 202.2 80.55 221.8 86.3 240.1 96.65 256.75 106.0 270.95 115.75 279.55 121.55 272.8 120.5 L269.95 119.95 272.65 120.95 Q280.35 124.15 283.35 130.8 L287.7 140.6 M357.4 272.7 Q366.8 269.4 370.8 271.55 374.4 273.7 370.8 277.75 360.05 287.55 343.8 295.5 349.45 292.95 351.6 295.25 354.15 297.95 350.25 301.9 L357.8 295.75 Q380.05 282.95 384.05 270.95 386.95 258.45 372.65 254.1 357.7 250.85 323.8 253.6 356.45 252.15 362.0 258.4 365.6 264.35 350.65 266.4 L334.9 267.55 Q338.9 270.35 332.9 273.1 350.85 272.0 342.4 277.55 328.6 283.65 315.15 289.95 323.25 290.75 329.25 292.6 336.6 280.0 355.5 273.4 L357.4 272.7 M343.8 295.5 L343.65 295.55 339.55 297.4 Q315.2 317.35 283.75 352.0 289.7 358.4 301.5 352.7 321.5 325.3 350.25 301.9 M329.6 229.15 L323.5 227.75 Q289.7 220.85 271.35 221.2 L263.25 221.7 Q295.4 232.15 323.3 244.65 333.2 248.25 343.15 248.0 L372.55 248.2 M339.55 297.4 Q335.35 294.45 329.25 292.6 M470.5 292.6 Q464.4 294.45 460.2 297.4 M563.8 184.3 Q547.45 188.6 533.4 201.1 539.65 219.05 536.5 221.7 M529.85 295.4 Q541.5 295.3 606.6 320.9 620.1 320.6 623.35 305.75 609.25 294.55 547.95 290.8 544.25 294.2 529.85 295.4 491.75 280.4 466.85 273.1 M623.35 305.75 Q650.4 286.55 606.6 275.15 595.85 280.65 548.3 273.55 L536.1 278.25 Q545.2 283.65 547.95 290.8 M606.6 275.15 Q589.8 260.45 537.0 261.25 545.75 269.15 548.3 273.55 M529.35 306.6 Q543.35 324.25 567.25 342.9 588.7 344.7 589.9 331.7 L534.85 301.75 529.35 306.6 Q515.8 299.95 506.6 300.85 521.85 325.1 533.55 348.5 566.4 359.4 567.25 342.9 M516.05 352.0 Q531.4 355.1 533.55 348.5 M589.9 331.7 Q605.4 333.45 606.6 320.9 M529.85 295.4 L534.85 301.75 M506.6 300.85 Q495.75 295.3 484.65 289.95 M536.1 278.25 Q498.45 270.35 464.85 267.55 M537.0 261.25 Q501.2 255.8 475.95 253.6 M451.25 221.75 Q500.15 199.7 533.4 201.1 M145.1 55.35 Q142.15 56.2 140.95 58.6 161.65 64.8 185.4 73.95 L196.5 78.25 202.2 80.55 M185.4 73.95 Q188.0 77.35 173.55 81.35 180.45 83.25 188.1 86.3 186.1 80.2 196.5 78.25 M188.1 86.3 Q192.5 88.0 197.1 90.15 L202.25 92.45 218.95 99.45 Q246.25 110.85 269.95 119.95 M292.0 150.4 Q277.8 147.2 261.9 136.1 244.1 124.75 227.95 119.3 L222.45 121.9 Q225.7 133.45 223.8 139.75 237.05 144.45 247.35 157.55 M222.45 121.9 L182.55 113.95 Q165.55 110.0 149.85 116.25 150.05 127.45 160.65 132.25 171.1 128.45 185.6 131.6 L218.7 138.2 Q221.3 138.8 223.8 139.75 M202.25 92.45 Q209.2 98.6 197.85 100.6 203.1 102.45 208.25 105.2 211.05 100.1 218.95 99.45 M227.95 119.3 Q218.4 110.55 208.25 105.2 M160.65 132.25 Q158.15 142.55 176.85 153.9 181.45 151.0 198.65 154.3 L233.35 161.55 M235.95 184.3 Q220.85 180.3 203.85 183.45 203.8 190.95 215.15 198.55 L248.25 218.1 Q254.3 221.5 263.25 221.7 260.1 219.05 266.35 201.1 M176.85 153.9 Q172.0 167.7 203.85 183.45 M140.95 58.6 Q130.6 56.45 125.7 66.55 120.2 77.55 130.8 83.15 147.35 74.1 173.55 81.35 M197.85 100.6 Q171.6 91.05 142.05 102.75 142.4 111.25 149.85 116.25 M130.8 83.15 Q129.3 95.95 142.05 102.75 M262.75 261.25 Q209.95 260.45 193.15 275.15 203.9 280.65 251.5 273.55 254.0 269.15 262.75 261.25 298.55 255.8 323.8 253.6 M193.15 275.15 Q149.35 286.55 176.45 305.75 190.55 294.55 251.8 290.8 254.6 283.65 263.65 278.25 L251.5 273.55 M176.45 305.75 Q179.65 320.6 193.15 320.9 258.25 295.3 269.95 295.4 255.5 294.2 251.8 290.8 M232.5 342.9 Q256.4 324.25 270.4 306.6 L264.95 301.75 209.85 331.7 Q211.05 344.7 232.5 342.9 233.35 359.4 266.2 348.5 277.95 325.1 293.15 300.85 283.95 299.95 270.4 306.6 M193.15 320.9 Q194.4 333.45 209.85 331.7 M266.2 348.5 Q268.4 355.1 283.75 352.0 M264.95 301.75 L269.95 295.4 Q308.0 280.4 332.9 273.1 M315.15 289.95 Q304.05 295.3 293.15 300.85 M263.65 278.25 Q301.35 270.35 334.9 267.55 M669.0 83.15 Q652.4 74.1 626.2 81.35" fill="none" stroke="#000000" stroke-linecap="round" stroke-linejoin="round" stroke-opacity="0.5019608" stroke-width="1.0"/>
  </g>
</svg>
