<?xml version="1.0" encoding="UTF-8" standalone="no"?>
<svg xmlns:xlink="http://www.w3.org/1999/xlink" height="460.15px" width="572.4px" xmlns="http://www.w3.org/2000/svg">
  <g transform="matrix(1.0, 0.0, 0.0, 1.0, -113.45, -7.4)">
    <path d="M653.9 311.1 L652.6 301.3 652.1 299.55 Q640.65 247.6 620.9 196.0 624.2 207.85 619.35 211.15 633.7 256.65 632.95 299.1 633.3 308.55 633.25 317.25 M508.0 35.65 L526.05 82.4 Q525.75 85.8 524.7 87.85 L550.35 133.7 Q552.6 135.3 554.4 136.1 560.7 138.6 562.1 130.2 L557.95 104.85 Q539.7 57.85 514.8 30.75 L514.5 30.5 514.35 30.3 Q497.0 17.65 490.35 24.15 486.7 27.6 486.15 36.8 L489.55 138.4 Q486.25 184.45 455.5 211.5 449.1 217.1 441.55 221.9 M514.5 30.5 L514.65 30.55 514.8 30.75 538.95 47.5 Q590.95 95.6 622.5 164.4 624.1 169.7 624.3 173.05 651.45 228.55 669.85 289.4 M492.85 43.05 L512.6 87.0 Q521.7 93.85 524.7 87.85 M505.1 107.25 L510.5 125.1 Q512.8 134.3 510.4 136.5 L536.5 182.35 Q543.25 188.0 546.2 185.85 549.15 183.6 548.25 173.7 L545.3 164.85 517.3 108.1 Q514.6 113.95 505.1 107.25 L494.95 88.95 M492.5 148.45 L496.65 154.7 Q506.3 153.1 504.2 136.0 L495.45 125.5 M504.2 136.0 Q508.6 138.2 510.4 136.5 M517.3 108.1 Q518.4 105.75 518.4 101.4 L512.6 87.0 M481.5 199.95 L495.8 220.15 Q499.3 222.0 502.05 222.4 510.0 223.35 511.35 210.8 L489.9 175.7 486.6 171.0 M511.35 210.8 Q519.15 216.6 522.3 213.9 525.15 211.45 524.3 202.2 L502.1 164.65 Q501.4 176.3 489.9 175.7 M502.1 164.65 L502.15 161.7 496.65 154.7 M577.6 245.8 Q570.8 222.1 561.6 170.95 L559.9 161.05 559.35 163.05 Q556.3 171.4 545.3 164.85 M554.4 136.1 L560.4 157.4 559.9 161.05 M620.9 196.0 L619.6 191.65 607.95 171.85 572.95 112.2 Q577.95 123.7 581.0 132.9 591.1 158.2 597.2 186.3 L612.85 212.3 Q617.0 212.7 619.35 211.15 M607.95 171.85 Q625.35 185.7 624.3 173.05 M538.95 47.5 Q561.4 85.7 572.95 112.2 M588.0 266.05 L588.15 262.7 588.15 262.3 Q589.45 219.75 581.0 184.35 571.2 139.2 557.95 104.85 M465.6 233.0 Q479.25 238.8 481.15 229.05 L469.4 213.85 M500.0 252.8 L484.95 229.1 481.15 229.05 M129.4 289.4 Q147.8 228.55 174.9 173.05 175.15 169.7 176.8 164.4 208.05 96.15 259.8 46.9 L260.65 46.1 260.5 46.45 284.25 30.9 284.6 30.55 285.0 30.25 Q302.25 17.65 308.95 24.15 312.55 27.6 313.1 36.8 L309.75 138.4 Q313.0 184.45 343.8 211.5 350.2 217.1 357.75 221.95 M333.6 233.0 Q333.3 233.05 333.1 233.25 319.95 238.6 318.1 229.05 L314.35 229.1 299.25 252.8 M597.2 186.3 Q601.7 207.45 604.0 230.25 609.8 234.6 612.85 234.5 619.45 234.2 612.85 212.3 M604.0 230.25 L604.45 235.3 Q605.25 251.3 601.15 253.5 L601.15 314.35 Q597.85 357.15 572.6 397.2 M601.15 253.5 Q597.5 255.5 590.2 247.0 M516.8 246.2 L502.05 222.4 M522.3 213.9 L537.75 246.2 M607.8 364.45 L609.7 358.45 610.9 353.9 Q612.6 346.95 613.65 340.0 620.55 287.25 612.85 234.5 M495.8 220.15 Q494.0 228.5 484.95 229.1 M558.75 248.55 Q547.6 217.15 546.2 185.85 M536.5 182.35 Q543.55 214.1 524.3 202.2 M284.25 30.9 L285.0 30.25 M259.8 46.9 L260.5 46.45 Q238.05 85.4 226.35 112.2 221.3 123.7 218.3 132.9 208.15 158.2 202.1 186.3 197.55 207.45 195.25 230.25 L194.8 235.3 Q194.0 251.3 198.15 253.5 201.75 255.5 209.05 247.0 M291.3 35.65 L273.2 82.4 Q273.5 85.8 274.5 87.85 277.5 93.85 286.65 87.0 L306.4 43.05 M221.65 245.8 Q228.45 222.1 237.6 170.95 L239.35 161.05 Q239.0 159.45 238.9 157.4 L244.8 136.1 Q238.5 138.6 237.15 130.2 L241.35 104.85 Q228.0 139.2 218.3 184.35 209.8 219.75 211.1 262.3 L211.15 262.7 211.3 266.05 M145.4 311.1 L146.65 301.3 147.15 299.55 Q158.6 247.6 178.35 196.0 L179.7 191.65 191.35 171.85 Q173.9 185.7 174.9 173.05 M239.35 161.05 L239.95 163.05 Q242.95 171.4 253.95 164.85 L281.95 108.1 Q280.8 105.75 280.8 101.4 L286.65 87.0 M191.35 171.85 L226.35 112.2 M304.3 88.95 L294.2 107.25 288.75 125.1 Q286.45 134.3 288.85 136.5 290.65 138.2 295.1 136.0 L303.85 125.5 M274.5 87.85 L248.9 133.7 Q246.6 135.3 244.8 136.1 M253.95 164.85 L251.0 173.7 Q250.1 183.6 253.05 185.85 256.0 188.0 262.8 182.35 L288.85 136.5 M306.8 148.45 L302.65 154.7 297.15 161.7 Q297.0 163.2 297.15 164.65 297.85 176.3 309.4 175.7 L312.7 171.0 M302.65 154.7 Q292.95 153.1 295.1 136.0 M294.2 107.25 Q284.65 113.95 281.95 108.1 M241.35 104.85 Q259.45 58.0 284.25 30.9 M314.35 229.1 Q305.25 228.5 303.45 220.15 299.95 222.0 297.25 222.4 L282.5 246.2 M297.25 222.4 Q289.2 223.35 287.9 210.8 280.1 216.6 276.9 213.9 L261.5 246.2 M317.7 199.95 L303.45 220.15 M297.15 164.65 L274.95 202.2 Q274.1 211.45 276.9 213.9 M191.5 364.45 L189.55 358.45 188.35 353.9 Q186.6 346.95 185.6 340.0 178.7 287.25 186.45 234.5 179.8 234.2 186.45 212.3 182.25 212.7 179.95 211.15 165.55 256.65 166.3 299.1 165.9 308.55 166.0 317.25 M195.25 230.25 Q189.45 234.6 186.45 234.5 M198.15 253.5 L198.15 314.35 Q201.4 357.15 226.65 397.2 M287.9 210.8 L309.4 175.7 M274.95 202.2 Q255.7 214.1 262.8 182.35 M253.05 185.85 Q251.65 217.15 240.55 248.55 M202.1 186.3 L186.45 212.3 M178.35 196.0 Q175.05 207.85 179.95 211.15 M318.1 229.05 L329.9 213.85" fill="none" stroke="#000000" stroke-linecap="round" stroke-linejoin="round" stroke-opacity="0.49803922" stroke-width="1.0"/>
    <path d="M653.9 311.1 Q656.35 335.25 652.3 359.4 644.55 387.5 638.4 370.35 L638.4 338.0 Q634.6 278.85 633.25 317.25 L633.2 319.7 633.1 324.3 Q631.4 375.0 612.7 398.85 609.1 403.4 604.95 406.95 593.65 413.7 596.9 400.0 608.4 380.85 607.8 364.45 594.7 403.75 557.5 443.05 540.75 452.2 547.9 434.95 L572.6 397.2 Q567.15 401.65 562.35 406.9 L510.9 464.2 Q495.6 472.6 502.15 456.3 L547.4 400.3 Q573.2 367.95 581.0 327.9 586.75 295.35 588.0 266.05 583.8 267.7 577.6 245.8 573.7 279.4 558.75 248.55 557.95 273.55 537.75 246.2 541.6 269.6 516.8 246.2 518.25 265.7 500.0 252.8 503.55 275.3 487.05 260.55 L465.6 233.0 453.55 227.5 450.55 226.1 441.55 221.95 441.55 221.9 441.5 221.9 441.25 221.95 Q416.35 223.8 426.7 210.75 428.0 209.05 429.9 207.15 474.7 180.4 476.95 133.7 471.75 48.75 474.45 25.95 477.45 19.2 481.3 15.0 498.2 -3.4 531.85 25.95 L572.6 72.2 Q598.35 102.5 617.85 135.55 654.25 197.3 685.0 287.8 687.6 311.05 669.85 289.4 L672.45 310.8 Q677.05 343.65 661.95 328.35 L653.9 311.1 M357.75 221.95 Q384.2 222.85 373.3 210.75 L370.15 207.7 Q324.55 180.25 322.35 133.7 327.5 48.75 324.8 25.95 321.8 19.2 317.95 15.0 301.05 -3.4 267.4 25.95 L226.65 72.2 Q200.9 102.5 181.4 135.55 145.0 197.3 114.3 287.8 111.6 311.05 129.4 289.4 M357.75 221.95 L333.6 233.0 312.2 260.55 Q295.7 275.3 299.25 252.8 281.0 265.7 282.5 246.2 257.65 269.6 261.5 246.2 241.3 273.55 240.55 248.55 225.55 279.4 221.65 245.8 215.4 267.7 211.3 266.05 212.5 295.35 218.3 327.9 226.05 367.95 251.85 400.3 L297.15 456.3 Q303.6 472.6 288.4 464.2 L236.9 406.9 Q232.1 401.65 226.65 397.2 L251.4 434.95 Q258.5 452.2 241.8 443.05 204.55 403.75 191.5 364.45 190.8 380.85 202.35 400.0 205.6 413.7 194.35 406.95 190.15 403.4 186.55 398.85 167.85 375.0 166.15 324.3 L166.05 319.7 166.0 317.25 Q164.65 278.85 160.9 338.0 L160.9 370.35 Q154.7 387.5 146.95 359.4 142.9 335.25 145.4 311.1 L137.3 328.35 Q122.2 343.65 126.8 310.8 L129.4 289.4" fill="none" stroke="#000000" stroke-linecap="round" stroke-linejoin="round" stroke-width="1.0"/>
  </g>
</svg>
