<?xml version="1.0" encoding="UTF-8" standalone="no"?>
<svg xmlns:xlink="http://www.w3.org/1999/xlink" height="54.05px" width="105.2px" xmlns="http://www.w3.org/2000/svg">
  <g transform="matrix(1.0, 0.0, 0.0, 1.0, -347.1, -123.65)">
    <path d="M383.4 177.65 Q380.3 178.0 372.8 173.65 365.3 169.2 347.1 157.55 365.9 165.95 373.75 170.35 381.6 174.6 383.4 177.65 M386.1 168.8 Q382.75 167.9 377.35 160.5 L359.45 134.15 Q374.45 150.05 380.2 157.6 385.9 165.05 386.1 168.8 M415.95 177.65 Q417.75 174.6 425.6 170.35 433.4 165.95 452.3 157.55 434.0 169.2 426.6 173.65 419.1 178.0 415.95 177.65 M392.75 153.0 Q395.3 162.05 394.05 165.6 391.25 163.5 389.1 154.7 386.95 145.85 382.45 123.65 390.3 143.95 392.75 153.0 M405.35 165.6 Q404.1 162.05 406.65 153.0 409.1 143.95 416.9 123.65 412.4 145.85 410.3 154.7 408.05 163.5 405.35 165.6 M413.2 168.8 Q413.4 165.05 419.15 157.6 424.95 150.05 439.9 134.15 L422.0 160.5 Q416.65 167.9 413.2 168.8" fill="#000000" fill-rule="evenodd" stroke="none"/>
  </g>
</svg>
