<?xml version="1.0" encoding="UTF-8" standalone="no"?>
<svg xmlns:xlink="http://www.w3.org/1999/xlink" height="25.2px" width="37.4px" xmlns="http://www.w3.org/2000/svg">
  <g transform="matrix(1.0, 0.0, 0.0, 1.0, -381.2, -160.1)">
    <path d="M381.95 168.55 L382.9 167.3 Q389.1 160.05 399.9 160.1 410.7 160.05 416.9 167.3 L417.85 168.55 Q418.55 172.65 418.6 181.45 L418.6 181.7 418.6 181.9 418.5 185.3 417.0 185.3 Q416.4 179.4 414.25 174.8 L415.35 168.65 Q406.7 168.05 399.9 170.45 393.1 168.05 384.45 168.65 L385.55 174.8 Q383.4 179.4 382.8 185.3 L381.35 185.3 381.2 181.9 381.2 181.7 381.2 181.45 Q381.25 172.65 381.95 168.55" fill="#000000" fill-rule="evenodd" stroke="none"/>
  </g>
</svg>
