<?xml version="1.0" encoding="UTF-8" standalone="no"?>
<svg xmlns:xlink="http://www.w3.org/1999/xlink" height="29.05px" width="46.5px" xmlns="http://www.w3.org/2000/svg">
  <g transform="matrix(1.0, 0.0, 0.0, 1.0, -376.65, -156.75)">
    <path d="M381.35 185.3 L381.2 181.9 381.2 181.7 377.45 176.0 377.45 174.45 Q376.5 170.75 378.5 168.7 378.3 165.15 381.4 163.9 381.75 160.85 384.95 161.1 385.7 157.6 390.15 159.15 392.05 156.9 395.6 158.35 397.95 156.2 399.9 158.2 401.85 156.2 404.2 158.35 407.75 156.9 409.65 159.15 414.1 157.6 414.85 161.1 418.05 160.85 418.4 163.9 421.5 165.15 421.3 168.7 423.3 170.75 422.35 174.45 L422.35 176.0 418.6 181.7 418.6 181.9 418.5 185.3" fill="none" stroke="#000000" stroke-linecap="round" stroke-linejoin="round" stroke-width="1.0"/>
  </g>
</svg>
