<?xml version="1.0" encoding="UTF-8" standalone="no"?>
<svg xmlns:xlink="http://www.w3.org/1999/xlink" height="32.0px" width="46.4px" xmlns="http://www.w3.org/2000/svg">
  <g transform="matrix(1.0, 0.0, 0.0, 1.0, -376.7, -153.8)">
    <path d="M418.5 185.3 L418.6 181.9 418.6 181.7 420.85 175.95 422.3 170.1 420.5 170.75 Q422.55 165.6 422.6 159.65 L420.2 161.95 Q421.85 158.15 421.5 154.3 417.2 159.5 412.75 160.65 407.45 157.85 399.9 158.05 392.35 157.85 387.05 160.65 382.6 159.5 378.3 154.3 377.95 158.15 379.6 161.95 L377.2 159.65 Q377.25 165.6 379.3 170.75 L377.5 170.1 378.95 175.95 381.2 181.7 381.2 181.9 381.35 185.3" fill="none" stroke="#000000" stroke-linecap="round" stroke-linejoin="round" stroke-width="1.0"/>
    <path d="M390.85 161.65 Q394.85 163.15 396.6 165.4 M409.0 161.65 Q404.95 163.15 403.2 165.4" fill="none" stroke="#000000" stroke-linecap="round" stroke-linejoin="round" stroke-opacity="0.49803922" stroke-width="1.0"/>
  </g>
</svg>
