<?xml version="1.0" encoding="UTF-8" standalone="no"?>
<svg xmlns:xlink="http://www.w3.org/1999/xlink" height="37.35px" width="50.2px" xmlns="http://www.w3.org/2000/svg">
  <g transform="matrix(1.0, 0.0, 0.0, 1.0, -374.55, -148.45)">
    <path d="M418.55 184.7 L419.5 178.75 Q422.0 175.3 423.45 171.4 422.2 172.95 420.15 173.95 422.45 171.35 423.8 168.55 421.95 170.25 419.3 171.8 L419.5 171.65 Q422.5 168.5 424.25 165.4 L421.05 167.2 Q423.05 165.65 423.85 163.8 421.95 164.5 419.9 164.3 422.15 163.5 423.5 161.95 420.8 163.05 418.05 162.9 420.4 161.75 421.45 160.0 418.75 161.45 415.4 162.05 418.65 160.8 420.55 158.8 L412.8 158.8 Q417.2 157.1 419.7 155.2 L414.2 155.4 417.7 152.2 409.85 156.7 Q411.6 154.45 414.1 152.85 409.95 153.3 406.15 155.5 408.5 151.95 411.75 148.95 407.25 150.6 403.55 153.4 404.4 152.3 404.55 151.2 402.55 153.0 399.65 154.6 396.75 153.0 394.75 151.2 394.9 152.3 395.75 153.4 392.05 150.6 387.55 148.95 390.8 151.95 393.15 155.5 389.35 153.3 385.2 152.85 387.7 154.45 389.45 156.7 L381.6 152.2 385.1 155.4 379.6 155.2 Q382.1 157.1 386.5 158.8 L378.75 158.8 Q380.65 160.8 383.9 162.05 380.55 161.45 377.85 160.0 378.9 161.75 381.25 162.9 378.5 163.05 375.8 161.95 377.15 163.5 379.4 164.3 377.35 164.5 375.45 163.8 376.25 165.65 378.25 167.2 L375.05 165.4 Q376.8 168.5 379.8 171.65 L379.9 171.7 380.0 171.8 Q377.35 170.25 375.5 168.55 376.85 171.35 379.15 173.95 377.1 172.95 375.85 171.4 377.3 175.3 379.8 178.75 L381.35 185.3" fill="none" stroke="#000000" stroke-linecap="round" stroke-linejoin="round" stroke-width="1.0"/>
    <path d="M399.65 154.6 L399.65 159.6 402.65 155.5 M399.65 159.6 L396.65 155.5 M400.0 164.65 Q401.2 162.15 403.1 160.25 404.5 158.85 406.3 157.75 M399.3 164.65 Q398.1 162.2 396.25 160.3 394.85 158.85 393.0 157.75" fill="none" stroke="#000000" stroke-linecap="round" stroke-linejoin="round" stroke-opacity="0.5019608" stroke-width="1.0"/>
  </g>
</svg>
