<?xml version="1.0" encoding="UTF-8" standalone="no"?>
<svg xmlns:xlink="http://www.w3.org/1999/xlink" height="115.85px" width="45.65px" xmlns="http://www.w3.org/2000/svg">
  <g transform="matrix(1.0, 0.0, 0.0, 1.0, -376.95, -145.1)">
    <path d="M398.5 145.75 Q390.55 144.75 389.2 150.15 386.9 154.4 382.8 158.65 L382.65 158.8 382.6 159.05 Q378.35 164.05 380.6 168.1 382.1 164.75 384.25 161.75 385.3 160.55 386.45 160.1 388.2 159.4 390.3 160.35 396.8 156.25 403.5 156.85 L406.55 157.35 Q409.2 157.95 411.9 159.35 416.45 162.0 417.7 167.4 L418.0 168.5 Q419.4 174.3 419.45 180.1 423.75 176.2 421.1 167.7 422.2 161.7 418.1 158.35 417.05 157.5 415.7 156.8 408.05 153.95 405.1 150.75 L404.25 149.6 Q403.2 147.2 399.5 146.05 L398.5 145.75 M417.25 191.3 L417.7 193.45 Q419.45 186.8 419.45 180.15 L419.45 180.1 M380.6 168.1 L379.4 171.3 Q377.25 177.85 377.65 185.55 L377.7 186.1 377.6 187.4 Q377.4 190.6 377.45 193.8 377.5 198.45 378.15 203.05 378.65 207.0 379.55 210.85 379.15 211.8 378.9 212.8 377.3 217.9 377.8 222.85 M418.1 158.35 Q417.8 150.3 412.25 149.4 407.4 147.3 404.25 149.6" fill="none" stroke="#000000" stroke-linecap="round" stroke-linejoin="round" stroke-width="1.0"/>
    <path d="M384.65 179.3 L384.65 180.25 386.7 178.1 Q390.95 173.0 391.8 167.0 L394.1 170.8 Q398.15 174.0 404.0 174.7 L404.45 174.75 Q414.45 179.45 417.25 191.3 M377.8 222.85 Q378.05 226.05 379.25 229.2 L379.55 229.9 Q382.75 236.15 384.0 242.85 L384.6 247.45 Q384.5 263.1 405.3 259.9 L406.15 259.75 Q392.2 255.25 394.45 244.25 L396.55 248.25 Q398.5 236.8 391.8 227.65 388.65 220.9 386.6 214.2 385.45 210.5 384.65 206.85 383.8 203.45 383.4 200.2 382.6 194.5 383.05 189.15 383.4 184.55 384.65 180.25" fill="none" stroke="#000000" stroke-linecap="round" stroke-linejoin="round" stroke-opacity="0.49803922" stroke-width="1.0"/>
  </g>
</svg>
