<?xml version="1.0" encoding="UTF-8" standalone="no"?>
<svg xmlns:xlink="http://www.w3.org/1999/xlink" height="88.4px" width="52.9px" xmlns="http://www.w3.org/2000/svg">
  <g transform="matrix(1.0, 0.0, 0.0, 1.0, -374.6, -155.5)">
    <path d="M377.5 190.45 Q378.5 203.45 377.9 211.55 L377.25 216.45 Q377.2 219.9 378.5 222.0 L380.0 224.0 Q392.25 242.5 378.25 242.25 391.15 246.45 387.85 235.4 383.95 224.6 385.45 219.5 386.1 217.3 387.15 214.9 388.9 211.05 386.3 198.4 L385.3 193.4 384.25 193.55 385.3 193.25 385.1 192.2 Q399.15 185.05 403.6 173.25 400.55 188.25 385.3 193.25 L385.3 193.4 Q400.7 190.65 409.35 170.6 M377.5 190.45 Q376.5 192.6 376.4 194.4 L375.75 193.25 Q373.85 189.1 377.35 182.9 377.75 176.35 380.6 169.3 386.55 152.6 407.35 156.85 L408.95 158.8 411.5 157.6 Q421.9 168.85 422.3 175.3 422.7 181.75 425.15 194.25 427.55 206.75 426.85 211.35 425.5 216.25 421.9 219.55 L420.15 221.5 Q411.8 231.4 421.55 237.3 409.9 236.45 414.9 219.4 412.8 219.2 411.9 216.75 L406.95 220.25 Q409.95 217.55 412.2 214.85 411.7 205.9 415.8 195.8 414.55 197.2 415.45 195.45 416.65 193.05 416.35 185.7 416.0 178.35 409.35 170.6" fill="none" stroke="#000000" stroke-linecap="round" stroke-linejoin="round" stroke-width="1.0"/>
    <path d="M390.15 173.15 Q382.55 185.5 380.95 190.35 379.9 193.45 379.25 194.0 388.55 190.15 391.5 183.5 M385.1 192.2 Q383.85 192.8 379.25 194.0 377.8 191.3 379.45 187.05 378.2 188.85 377.5 190.45 M409.35 170.6 Q407.85 169.4 408.35 168.25 M379.45 187.05 L381.9 183.85 M377.35 182.9 Q380.45 177.35 387.75 170.2 M415.8 195.8 L416.9 194.4 Q419.5 190.95 419.0 180.15 M414.9 219.4 Q416.45 214.05 419.65 207.15 417.05 212.45 411.9 216.75 M412.2 214.85 Q419.95 205.45 419.0 196.0 M419.65 207.15 Q422.9 200.5 422.25 192.15" fill="none" stroke="#000000" stroke-linecap="round" stroke-linejoin="round" stroke-opacity="0.49803922" stroke-width="1.0"/>
  </g>
</svg>
