<?xml version="1.0" encoding="UTF-8" standalone="no"?>
<svg xmlns:xlink="http://www.w3.org/1999/xlink" height="81.95px" width="63.9px" xmlns="http://www.w3.org/2000/svg">
  <g transform="matrix(1.0, 0.0, 0.0, 1.0, -367.95, -152.2)">
    <path d="M403.55 154.55 Q405.3 151.45 414.7 153.55 424.4 156.8 420.5 162.35 417.8 164.95 423.05 168.15 429.35 171.3 424.7 172.95 421.85 174.3 428.15 177.1 432.4 179.2 428.75 181.15 426.85 182.9 429.65 185.85 434.25 190.1 426.45 194.5 419.4 196.75 422.95 201.7 424.45 204.1 422.95 206.2 418.7 209.85 425.95 214.75 431.85 220.25 416.4 222.8 407.45 224.95 411.6 230.1 414.45 233.95 399.8 233.65 385.15 233.95 388.0 230.1 392.15 224.95 383.2 222.8 367.75 220.25 373.75 214.85 381.15 209.9 376.85 206.2 375.35 204.1 376.85 201.7 380.4 196.75 373.35 194.5 365.55 190.1 370.15 185.85 372.95 182.9 371.05 181.15 367.4 179.2 371.65 177.1 377.95 174.3 375.1 172.95 370.45 171.3 376.75 168.15 382.0 164.95 379.3 162.35 375.4 156.8 385.1 153.55 394.5 151.45 396.25 154.55 397.35 156.8 399.9 158.2 402.45 156.8 403.55 154.55 Z" fill="none" stroke="#000000" stroke-linecap="round" stroke-linejoin="round" stroke-width="1.0"/>
  </g>
</svg>
