<?xml version="1.0" encoding="UTF-8" standalone="no"?>
<svg xmlns:xlink="http://www.w3.org/1999/xlink" height="18.8px" width="37.4px" xmlns="http://www.w3.org/2000/svg">
  <g transform="matrix(1.0, 0.0, 0.0, 1.0, 18.85, 133.5)">
    <path d="M14.2 -125.2 L17.8 -131.45 Q18.5 -127.35 18.55 -118.55 L18.55 -118.3 18.55 -118.1 18.45 -114.7 16.95 -114.7 Q16.55 -118.55 15.5 -121.85 L13.35 -119.6 Q13.9 -121.7 13.65 -123.8 L14.2 -125.2 M2.5 -130.35 L1.65 -133.05 Q10.95 -129.3 8.65 -120.9 8.4 -126.5 2.5 -130.35 M-5.0 -133.5 Q1.1 -131.95 1.5 -125.1 0.5 -129.2 -3.6 -131.2 L-5.0 -133.5 M-18.1 -131.45 L-14.5 -125.2 Q-16.65 -120.6 -17.25 -114.7 L-18.7 -114.7 -18.85 -118.1 -18.85 -118.3 -18.85 -118.55 Q-18.8 -127.35 -18.1 -131.45" fill="#000000" fill-opacity="0.2" fill-rule="evenodd" stroke="none"/>
  </g>
</svg>
