<?xml version="1.0" encoding="UTF-8" standalone="no"?>
<svg xmlns:xlink="http://www.w3.org/1999/xlink" height="28.65px" width="44.9px" xmlns="http://www.w3.org/2000/svg">
  <g transform="matrix(1.0, 0.0, 0.0, 1.0, 22.6, 143.35)">
    <path d="M11.45 -131.45 Q5.1 -131.4 -0.15 -129.55 -5.4 -131.4 -11.7 -131.45 L-9.55 -134.3 Q-4.95 -138.75 -0.15 -129.55 4.65 -138.75 9.25 -134.3 L11.45 -131.45 M13.8 -124.85 L19.7 -134.6 Q20.95 -132.4 21.8 -129.95 23.7 -125.2 18.55 -116.75 L18.45 -114.7 16.95 -114.7 Q16.65 -117.55 16.0 -120.05 14.55 -122.35 13.8 -124.85 M-14.15 -124.55 Q-14.95 -122.25 -16.3 -120.1 -16.95 -117.55 -17.25 -114.7 L-18.7 -114.7 -18.8 -116.75 -18.85 -116.75 Q-24.0 -125.2 -22.1 -129.95 -21.3 -132.25 -20.1 -134.35 L-14.15 -124.55" fill="#000000" fill-opacity="0.2" fill-rule="evenodd" stroke="none"/>
    <path d="M2.15 -134.8 Q4.5 -139.5 3.1 -142.65 L7.85 -143.35 Q12.15 -141.2 11.2 -134.8 6.95 -140.8 2.15 -134.8 M-11.9 -134.8 Q-12.85 -141.2 -8.55 -143.35 L-3.8 -142.65 Q-5.2 -139.5 -2.85 -134.8 -7.65 -140.8 -11.9 -134.8" fill="#ffffff" fill-opacity="0.2509804" fill-rule="evenodd" stroke="none"/>
  </g>
</svg>
