<?xml version="1.0" encoding="UTF-8" standalone="no"?>
<svg xmlns:xlink="http://www.w3.org/1999/xlink" height="46.3px" width="49.0px" xmlns="http://www.w3.org/2000/svg">
  <g transform="matrix(1.0, 0.0, 0.0, 1.0, 24.85, 132.2)">
    <path d="M-16.45 -109.75 L-18.0 -103.4 -16.1 -108.4 -14.1 -100.9 Q-12.5 -98.35 -10.6 -92.8 L-10.6 -89.15 -12.25 -92.4 Q-13.1 -89.65 -14.9 -88.65 -13.0 -90.95 -13.0 -93.65 -16.8 -88.3 -21.0 -85.9 -19.3 -88.1 -19.0 -91.65 -23.4 -96.2 -22.8 -104.75 -25.8 -99.3 -23.25 -94.25 -26.25 -96.7 -23.65 -104.7 -21.05 -112.65 -20.75 -120.3 L-20.55 -123.8 Q-17.85 -120.35 -16.45 -109.75 M23.9 -113.35 L21.65 -116.0 Q21.2 -107.8 24.15 -102.5 21.9 -102.85 21.25 -105.5 20.7 -102.9 23.0 -99.15 20.85 -99.95 20.15 -103.15 20.2 -94.85 16.4 -91.75 17.65 -95.05 17.75 -98.5 16.1 -92.8 13.0 -90.5 L12.0 -94.15 10.65 -91.65 10.65 -93.25 14.25 -101.0 16.6 -109.4 16.6 -102.55 Q19.25 -109.2 18.7 -117.15 L20.75 -122.25 Q22.1 -117.7 23.9 -113.35" fill="#000000" fill-opacity="0.2" fill-rule="evenodd" stroke="none"/>
    <path d="M-11.55 -120.45 L-17.25 -127.0 -16.65 -132.2 -6.5 -125.8 -11.55 -120.45 M1.7 -127.3 L6.35 -127.9 3.35 -124.0 -0.65 -122.2 1.7 -127.3 M17.55 -126.85 L12.3 -122.65 10.5 -128.2 16.95 -131.35 17.55 -126.85" fill="#ffffff" fill-opacity="0.2509804" fill-rule="evenodd" stroke="none"/>
  </g>
</svg>
