<?xml version="1.0" encoding="UTF-8" standalone="no"?>
<svg xmlns:xlink="http://www.w3.org/1999/xlink" height="37.7px" width="53.8px" xmlns="http://www.w3.org/2000/svg">
  <g transform="matrix(1.0, 0.0, 0.0, 1.0, -373.0, -144.1)">
    <path d="M375.3 175.35 Q370.2 165.9 376.45 154.9 383.2 143.0 399.9 144.2 416.6 143.1 423.35 155.0 429.6 166.0 424.5 175.45 422.7 179.4 418.6 181.8 L418.6 181.7 418.6 181.45 Q418.55 172.65 417.85 168.55 L416.9 167.3 Q410.7 160.05 399.9 160.1 389.1 160.05 382.9 167.3 L381.95 168.55 Q381.25 172.65 381.2 181.45 L381.2 181.7 Q377.1 179.3 375.3 175.35" fill="#000000" fill-rule="evenodd" stroke="none"/>
  </g>
</svg>
