<?xml version="1.0" encoding="UTF-8" standalone="no"?>
<svg xmlns:xlink="http://www.w3.org/1999/xlink" height="26.6px" width="43.85px" xmlns="http://www.w3.org/2000/svg">
  <g transform="matrix(1.0, 0.0, 0.0, 1.0, -377.75, -154.35)">
    <path d="M388.95 155.75 L388.95 158.0 Q394.3 155.25 399.9 154.55 L409.1 154.8 406.4 156.55 Q416.25 158.4 421.6 165.1 L419.95 164.7 420.7 169.2 418.6 180.95 Q418.55 172.55 417.85 168.55 L416.9 167.3 Q410.7 160.05 399.9 160.1 389.1 160.05 382.9 167.3 L381.95 168.55 Q381.25 172.55 381.2 180.95 L379.1 169.2 379.9 165.35 377.75 165.35 Q379.85 162.4 383.1 162.4 384.25 158.25 388.95 155.75" fill="#000000" fill-rule="evenodd" stroke="none"/>
  </g>
</svg>
