<?xml version="1.0" encoding="UTF-8" standalone="no"?>
<svg xmlns:xlink="http://www.w3.org/1999/xlink" height="26.5px" width="44.6px" xmlns="http://www.w3.org/2000/svg">
  <g transform="matrix(1.0, 0.0, 0.0, 1.0, -377.6, -155.4)">
    <path d="M390.65 156.15 Q395.4 153.9 399.9 158.6 404.4 153.9 409.15 156.15 416.45 159.75 419.85 167.55 L422.2 175.55 418.6 181.5 418.6 181.45 Q418.55 172.65 417.85 168.55 L416.9 167.3 Q410.7 160.05 399.9 160.1 389.1 160.05 382.9 167.3 L381.95 168.55 Q381.25 172.65 381.2 181.45 L381.2 181.7 381.2 181.9 377.6 175.55 379.95 167.55 Q383.35 159.75 390.65 156.15" fill="#000000" fill-rule="evenodd" stroke="none"/>
  </g>
</svg>
