<?xml version="1.0" encoding="UTF-8" standalone="no"?>
<svg xmlns:xlink="http://www.w3.org/1999/xlink" height="52.2px" width="51.5px" xmlns="http://www.w3.org/2000/svg">
  <g transform="matrix(1.0, 0.0, 0.0, 1.0, -369.6, -131.7)">
    <path d="M381.95 168.55 Q381.25 172.65 381.2 181.45 L381.2 181.7 381.2 181.9 381.25 183.9 379.25 178.8 Q378.7 167.2 373.7 155.9 378.95 157.25 383.1 160.55 378.2 151.6 369.6 145.2 381.25 147.25 391.05 153.8 387.75 142.2 379.45 131.7 397.55 141.25 404.95 158.8 406.7 148.7 402.15 138.55 413.9 150.65 418.45 164.9 420.05 160.2 419.9 155.5 422.3 167.2 419.9 179.25 L418.6 183.45 418.6 181.9 418.6 181.7 418.6 181.45 Q418.55 172.65 417.85 168.55 L416.9 167.3 Q410.7 160.05 399.9 160.1 389.1 160.05 382.9 167.3 L381.95 168.55" fill="#000000" fill-rule="evenodd" stroke="none"/>
  </g>
</svg>
