<?xml version="1.0" encoding="UTF-8" standalone="no"?>
<svg xmlns:xlink="http://www.w3.org/1999/xlink" height="76.25px" width="42.6px" xmlns="http://www.w3.org/2000/svg">
  <g transform="matrix(1.0, 0.0, 0.0, 1.0, -378.6, -154.5)">
    <path d="M381.8 185.3 L379.9 178.8 Q378.75 173.05 380.1 166.95 382.95 154.5 399.75 154.5 416.85 154.5 419.7 166.95 421.05 173.05 419.9 178.8 L418.0 185.3 Q418.75 207.55 421.2 230.75 417.8 210.3 417.1 190.2 L417.0 185.3 Q416.7 182.4 416.05 179.85 415.05 182.25 412.75 183.9 412.85 179.0 409.85 176.55 410.15 180.5 407.75 184.0 405.95 177.45 399.9 175.15 393.85 177.45 392.05 184.0 389.65 180.5 389.95 176.55 386.95 179.0 387.05 183.9 384.75 182.25 383.75 179.85 383.1 182.4 382.8 185.3 L382.7 190.2 Q382.0 210.3 378.6 230.75 381.05 207.55 381.8 185.3 M399.9 165.6 Q413.0 164.25 418.0 174.1 L417.55 171.45 Q414.2 161.0 399.9 160.4 385.6 161.0 382.25 171.45 381.95 172.75 381.8 174.1 386.8 164.25 399.9 165.6" fill="#000000" fill-rule="evenodd" stroke="none"/>
  </g>
</svg>
