<?xml version="1.0" encoding="UTF-8" standalone="no"?>
<svg xmlns:xlink="http://www.w3.org/1999/xlink" height="63.05px" width="129.3px" xmlns="http://www.w3.org/2000/svg">
  <g transform="matrix(1.0, 0.0, 0.0, 1.0, -335.2, -376.25)">
    <path d="M348.45 379.15 Q365.5 371.6 382.6 387.75 L388.05 393.55 Q381.4 401.35 377.65 409.1 L377.05 412.0 Q379.15 422.3 378.75 433.3 L379.4 437.15 Q360.15 440.95 343.55 436.1 L344.35 433.6 344.65 432.7 Q344.8 421.3 348.3 409.9 L348.35 409.9 348.2 407.1 348.2 407.0 348.2 406.4 348.15 406.05 Q343.45 396.7 335.7 388.05 342.05 381.95 348.45 379.15 M451.5 407.0 L451.5 406.4 451.55 406.05 Q456.25 396.7 464.0 388.05 457.65 381.95 451.25 379.15 434.2 371.6 417.1 387.75 414.4 390.35 411.65 393.55 418.3 401.35 422.05 409.1 M451.5 407.0 L451.5 407.1 451.35 409.9 451.4 409.9 Q454.9 421.3 455.05 432.7 L455.35 433.6 456.15 436.1 Q439.55 440.95 420.3 437.15 L420.95 433.3 Q420.55 422.3 422.65 412.0 L422.05 409.1" fill="none" stroke="#000000" stroke-linecap="round" stroke-linejoin="round" stroke-width="1.0"/>
    <path d="M422.05 409.1 Q437.85 405.95 451.5 407.0 M420.95 433.3 Q439.8 437.35 455.05 432.7 M451.35 409.9 Q438.2 409.35 422.65 412.0 M377.65 409.1 Q361.85 405.95 348.2 407.0 M344.65 432.7 Q359.9 437.35 378.75 433.3 M377.05 412.0 Q361.5 409.35 348.35 409.9" fill="none" stroke="#000000" stroke-linecap="round" stroke-linejoin="round" stroke-opacity="0.5019608" stroke-width="1.0"/>
  </g>
</svg>
