<?xml version="1.0" encoding="UTF-8" standalone="no"?>
<svg xmlns:xlink="http://www.w3.org/1999/xlink" height="154.45px" width="116.4px" xmlns="http://www.w3.org/2000/svg">
  <g transform="matrix(1.0, 0.0, 0.0, 1.0, -341.65, -350.3)">
    <path d="M357.5 353.0 Q363.85 379.3 382.65 397.2 L378.15 412.05 370.45 412.9 371.0 414.55 Q371.4 417.65 370.5 420.0 L376.85 421.25 Q386.45 442.45 376.85 454.7 366.15 472.5 365.85 492.15 367.3 500.45 364.5 503.6 363.3 504.45 362.25 504.15 360.8 503.7 359.65 501.2 L358.7 498.7 Q354.55 489.15 347.7 495.55 L344.45 498.7 344.45 503.45 Q342.05 501.25 343.7 492.75 345.4 478.95 343.6 461.0 L342.65 452.8 Q341.1 442.45 344.35 433.6 L348.1 422.5 347.1 419.15 Q345.85 414.95 346.85 411.55 L347.4 410.45 Q344.85 379.55 348.75 350.8 L357.5 353.0 M452.3 410.45 Q454.85 379.55 450.95 350.8 L442.2 353.0 Q435.85 379.3 417.05 397.2 L421.55 412.05 429.25 412.9 M452.3 410.45 L452.85 411.55 Q453.85 414.95 452.6 419.15 L451.6 422.5 455.35 433.6 Q458.6 442.45 457.05 452.8 L456.1 461.0 Q454.3 478.95 456.0 492.75 457.65 501.25 455.25 503.45 L455.25 498.7 452.0 495.55 Q445.15 489.15 441.0 498.7 L440.05 501.2 Q438.9 503.7 437.45 504.15 436.4 504.45 435.2 503.6 432.4 500.45 433.85 492.15 433.55 472.5 422.85 454.7 413.25 442.45 422.85 421.25 L429.2 420.0 Q428.3 417.65 428.7 414.55 L429.25 412.9" fill="none" stroke="#000000" stroke-linecap="round" stroke-linejoin="round" stroke-width="1.0"/>
    <path d="M429.25 412.9 L431.2 406.8 433.7 399.05 Q435.65 393.9 440.05 393.9 444.2 394.4 446.55 398.75 L449.7 405.2 452.3 410.45 M451.6 422.5 L448.15 433.8 Q446.4 436.95 443.15 437.5 438.45 437.3 436.3 434.55 L429.65 421.05 429.2 420.0 M449.7 405.2 Q446.05 406.85 445.75 415.9 445.3 422.9 441.8 423.05 439.15 423.15 437.1 416.75 434.15 407.1 431.2 406.8 M441.9 488.15 Q436.95 461.1 424.35 438.35 M450.05 488.15 Q451.75 466.7 455.25 444.9 M370.45 412.9 L368.5 406.8 Q365.55 407.1 362.6 416.75 360.55 423.15 357.9 423.05 354.4 422.9 353.95 415.9 353.65 406.85 350.0 405.2 L347.4 410.45 M368.5 406.8 L366.0 399.05 Q364.05 393.9 359.65 393.9 355.5 394.4 353.15 398.75 L350.0 405.2 M370.5 420.0 L370.05 421.05 363.4 434.55 Q361.25 437.3 356.55 437.5 353.3 436.95 351.55 433.8 L348.1 422.5 M349.65 488.15 Q347.95 466.7 344.45 444.9 M357.8 488.15 Q362.75 461.1 375.35 438.35" fill="none" stroke="#000000" stroke-linecap="round" stroke-linejoin="round" stroke-opacity="0.5019608" stroke-width="1.0"/>
  </g>
</svg>
