<?xml version="1.0" encoding="UTF-8" standalone="no"?>
<svg xmlns:xlink="http://www.w3.org/1999/xlink" height="58.45px" width="128.3px" xmlns="http://www.w3.org/2000/svg">
  <g transform="matrix(1.0, 0.0, 0.0, 1.0, -335.7, -376.75)">
    <path d="M348.45 379.15 Q365.5 371.6 382.6 387.75 L388.05 393.55 Q381.4 401.35 377.65 409.1 361.85 405.95 348.2 407.0 L348.2 406.4 348.15 406.05 Q343.45 396.7 335.7 388.05 342.05 381.95 348.45 379.15 M451.4 409.9 Q454.9 421.3 455.05 432.7 439.8 437.35 420.95 433.3 420.55 422.3 422.65 412.0 438.2 409.35 451.35 409.9 L451.4 409.9 M411.65 393.55 Q414.4 390.35 417.1 387.75 434.2 371.6 451.25 379.15 457.65 381.95 464.0 388.05 456.25 396.7 451.55 406.05 L451.5 406.4 451.5 407.0 Q437.85 405.95 422.05 409.1 418.3 401.35 411.65 393.55 M378.75 433.3 Q359.9 437.35 344.65 432.7 344.8 421.3 348.3 409.9 L348.35 409.9 Q361.5 409.35 377.05 412.0 379.15 422.3 378.75 433.3" fill="#000000" fill-rule="evenodd" stroke="none"/>
  </g>
</svg>
