<?xml version="1.0" encoding="UTF-8" standalone="no"?>
<svg xmlns:xlink="http://www.w3.org/1999/xlink" height="106.05px" width="168.4px" xmlns="http://www.w3.org/2000/svg">
  <g transform="matrix(1.0, 0.0, 0.0, 1.0, -315.65, -453.9)">
    <path d="M316.85 552.55 Q313.8 544.1 318.35 536.4 L344.45 503.45 344.45 498.7 347.7 495.55 342.8 453.9 Q347.35 456.1 352.3 457.3 L360.4 458.45 373.35 457.65 Q366.35 469.95 363.2 483.25 362.4 486.55 361.85 489.95 L361.1 495.55 362.85 499.85 362.0 503.3 362.95 506.5 362.95 506.8 363.15 508.45 363.2 509.5 Q363.25 514.15 361.15 517.85 L359.85 520.1 359.4 520.9 Q355.65 528.0 354.3 536.25 352.95 545.6 345.8 553.55 L338.25 559.95 321.3 559.95 316.85 552.55 M437.85 489.95 L436.5 483.25 Q433.35 469.95 426.35 457.65 L439.3 458.45 447.4 457.3 Q452.35 456.1 456.9 453.9 L452.0 495.55 455.25 498.7 455.25 503.45 481.35 536.4 Q485.9 544.1 482.85 552.55 L478.4 559.95 461.45 559.95 453.9 553.55 Q446.75 545.6 445.4 536.25 444.05 528.0 440.3 520.9 L439.85 520.1 438.55 517.85 Q436.45 514.15 436.5 509.5 L436.55 508.45 436.75 506.8 436.75 506.5 437.7 503.3 436.85 499.85 438.6 495.55 437.85 489.95 M437.0 466.2 L442.65 495.45 443.95 505.4 460.8 536.35 Q465.5 534.5 470.45 533.7 L450.9 505.0 448.65 495.1 450.9 463.75 437.0 466.2 M362.7 466.2 L348.8 463.75 351.05 495.1 348.8 505.0 329.25 533.7 Q334.2 534.5 338.9 536.35 L355.75 505.4 357.05 495.45 362.7 466.2" fill="#000000" fill-rule="evenodd" stroke="none"/>
  </g>
</svg>
