<?xml version="1.0" encoding="UTF-8" standalone="no"?>
<svg xmlns:xlink="http://www.w3.org/1999/xlink" height="45.15px" width="153.2px" xmlns="http://www.w3.org/2000/svg">
  <g transform="matrix(1.0, 0.0, 0.0, 1.0, -323.25, -454.1)">
    <path d="M472.75 456.8 Q474.85 453.25 475.1 460.5 475.25 465.2 474.05 470.55 477.45 467.85 476.0 471.55 474.0 475.1 472.05 479.75 474.6 479.2 473.2 481.65 470.2 484.25 467.35 489.25 470.9 490.35 469.0 491.85 464.3 493.0 461.8 495.2 464.2 497.45 462.4 497.45 458.0 495.0 453.8 497.55 L452.0 495.55 452.05 493.35 455.5 489.65 Q456.95 487.7 457.05 485.75 454.6 482.8 455.95 482.2 454.0 481.0 455.15 480.7 460.2 478.45 461.9 472.1 462.5 471.2 462.8 472.3 466.85 468.4 467.3 464.4 467.45 462.1 468.3 463.3 L469.05 458.15 Q469.5 455.35 470.25 457.45 471.45 451.05 472.75 456.8 M416.25 461.75 Q417.1 459.8 417.6 462.35 L418.55 467.1 Q419.5 466.0 419.65 468.1 420.25 471.8 424.95 475.35 425.35 474.35 426.05 475.2 428.05 481.05 434.0 483.1 435.35 483.4 433.1 484.5 434.65 485.0 431.75 487.7 431.85 489.55 433.55 491.35 L436.85 495.4 438.15 496.45 436.9 499.25 Q431.25 495.95 425.45 498.5 423.35 498.5 426.15 496.4 423.2 494.4 417.7 493.35 415.45 491.95 419.6 490.95 416.3 486.35 412.7 483.95 411.1 481.7 414.1 482.2 411.8 477.9 409.45 474.7 407.7 471.3 411.75 473.75 410.3 468.85 410.5 464.5 410.8 457.85 413.3 461.15 414.8 455.8 416.25 461.75 M326.95 456.8 Q328.25 451.05 329.45 457.45 330.2 455.35 330.65 458.15 L331.4 463.3 Q332.25 462.1 332.4 464.4 332.85 468.4 336.9 472.3 337.2 471.2 337.8 472.1 339.5 478.45 344.55 480.7 345.7 481.0 343.75 482.2 345.1 482.8 342.65 485.75 342.75 487.7 344.2 489.65 L347.65 493.35 347.7 495.55 345.9 497.55 Q341.7 495.0 337.3 497.45 335.5 497.45 337.9 495.2 335.4 493.0 330.7 491.85 328.8 490.35 332.35 489.25 329.5 484.25 326.5 481.65 325.1 479.2 327.65 479.75 325.7 475.1 323.7 471.55 322.25 467.85 325.65 470.55 324.45 465.2 324.6 460.5 324.85 453.25 326.95 456.8 M389.2 464.5 Q389.4 468.85 387.95 473.75 392.0 471.3 390.25 474.7 387.9 477.9 385.6 482.2 388.6 481.7 387.0 483.95 383.4 486.35 380.1 490.95 384.25 491.95 382.0 493.35 376.5 494.4 373.55 496.4 376.35 498.5 374.25 498.5 368.45 495.95 362.8 499.25 L361.55 496.45 362.85 495.4 366.15 491.35 Q367.85 489.55 367.95 487.7 365.05 485.0 366.6 484.5 364.35 483.4 365.7 483.1 371.65 481.05 373.65 475.2 374.35 474.35 374.75 475.35 379.45 471.8 380.05 468.1 380.2 466.0 381.15 467.1 L382.1 462.35 Q382.6 459.8 383.45 461.75 384.9 455.8 386.4 461.15 388.9 457.85 389.2 464.5" fill="#000000" fill-rule="evenodd" stroke="none"/>
  </g>
</svg>
