<?xml version="1.0" encoding="UTF-8" standalone="no"?>
<svg xmlns:xlink="http://www.w3.org/1999/xlink" height="88.2px" width="40.75px" xmlns="http://www.w3.org/2000/svg">
  <g transform="matrix(1.0, 0.0, 0.0, 1.0, 81.4, 15.8)">
    <path d="M-77.75 -15.8 L-77.5 -14.9 -76.85 -15.55 -76.4 -15.2 -77.25 -14.3 -76.9 -12.95 -75.95 -13.9 -76.25 -15.1 -75.85 -15.2 -75.6 -14.3 -74.9 -14.9 -74.5 -14.55 -75.2 -13.85 -74.25 -13.55 -74.35 -13.1 -75.55 -13.55 -76.55 -12.55 -75.15 -12.2 -74.3 -13.0 -73.9 -12.65 -74.6 -11.95 -73.65 -11.7 -73.7 -11.25 -74.75 -11.6 -74.35 -10.6 -74.8 -10.5 -75.2 -11.7 -76.65 -12.15 -76.15 -10.8 -74.95 -10.35 -75.05 -9.95 -76.05 -10.25 -75.7 -9.3 -76.1 -9.2 -76.4 -10.15 -77.1 -9.5 -77.45 -9.85 -76.6 -10.7 -77.0 -12.05 -77.95 -11.15 -77.6 -9.9 -78.0 -9.8 -78.35 -10.75 -79.0 -10.05 -79.4 -10.45 -78.7 -11.15 -79.65 -11.45 -79.55 -11.9 -78.4 -11.5 -77.4 -12.5 -78.8 -12.8 -79.55 -12.0 -80.0 -12.35 -79.3 -13.05 -80.25 -13.3 -80.15 -13.75 -79.2 -13.4 -79.55 -14.4 -79.1 -14.55 -78.65 -13.25 -77.3 -12.8 -77.75 -14.2 -78.95 -14.6 -78.85 -15.05 -77.9 -14.75 -78.2 -15.7 -77.75 -15.8" fill="url(#gradient0)" fill-rule="evenodd" stroke="none"/>
    <path d="M-79.25 -0.8 L-78.0 -0.5 -78.3 -1.7 -77.6 -1.9 -77.3 -0.65 -76.3 -1.55 -75.85 -1.15 -75.9 -1.1 -77.1 -0.05 -76.65 1.75 -75.25 0.4 -75.6 -1.1 -75.65 -1.15 -75.0 -1.35 -74.65 -0.1 -73.7 -1.0 -73.25 -0.65 -74.3 0.3 -72.95 0.55 -73.1 1.15 -74.75 0.8 -76.25 2.15 -74.3 2.5 -73.05 1.35 -72.65 1.75 -73.65 2.7 -72.3 2.95 -72.5 3.55 -73.75 3.2 -73.45 4.45 -74.15 4.6 -74.5 3.1 -76.4 2.65 -75.95 4.4 -74.3 4.75 -74.45 5.3 -75.75 5.0 -75.4 6.25 -76.1 6.45 -76.45 5.2 -77.45 6.1 -77.85 5.7 -76.65 4.6 -77.1 2.8 -78.45 4.15 -78.05 5.65 -78.75 5.85 -79.05 4.6 -80.0 5.55 -80.45 5.15 -79.4 4.25 -80.75 3.95 -80.6 3.4 -78.95 3.75 -77.45 2.45 -79.4 2.05 -80.65 3.15 -81.1 2.75 -80.05 1.85 -81.4 1.6 -81.2 1.0 -79.95 1.3 -80.3 0.1 -79.55 -0.1 -79.15 1.4 -77.35 1.9 -77.8 0.15 -79.4 -0.2 -79.25 -0.8" fill="url(#gradient1)" fill-rule="evenodd" stroke="none"/>
    <path d="M-57.75 5.65 L-58.45 6.3 -57.5 6.6 -57.6 7.05 -58.8 6.65 -59.75 7.6 -58.4 8.0 -57.5 7.15 -57.15 7.55 -57.8 8.2 -56.9 8.5 -56.95 8.95 -57.95 8.6 -57.6 9.55 -58.05 9.7 -58.45 8.5 -59.9 8.05 -59.4 9.4 -58.2 9.85 -58.25 10.25 -59.3 9.9 -58.95 10.9 -59.35 11.0 -59.65 10.0 -60.35 10.7 -60.65 10.3 -59.85 9.5 -60.25 8.15 -61.2 9.05 -60.8 10.3 -61.25 10.35 -61.55 9.4 -62.25 10.15 -62.6 9.7 -61.95 9.0 -62.9 8.75 -62.8 8.3 -61.65 8.65 -60.65 7.7 -62.0 7.35 -62.8 8.2 -63.25 7.8 -62.55 7.15 -63.5 6.85 -63.4 6.4 -62.45 6.75 -62.75 5.8 -62.3 5.65 -61.9 6.9 -60.5 7.4 -60.95 5.95 -62.2 5.55 -62.1 5.1 -61.1 5.45 -61.45 4.45 -61.0 4.35 -60.75 5.3 -60.05 4.6 -59.65 5.0 -60.5 5.85 -60.15 7.2 -59.15 6.25 -59.5 5.05 -59.1 4.95 -58.85 5.9 -58.1 5.25 -57.75 5.65" fill="url(#gradient2)" fill-rule="evenodd" stroke="none"/>
    <path d="M-60.15 24.65 L-63.5 23.95 -66.5 26.65 -62.6 27.4 -60.05 25.1 -59.15 25.9 -61.25 27.75 -58.55 28.3 -58.85 29.4 -61.45 28.75 -60.8 31.25 -62.15 31.6 -62.95 28.6 -66.7 27.6 -65.75 31.15 -62.45 31.85 -62.8 32.95 -65.45 32.35 -64.75 34.9 -66.2 35.25 -66.85 32.75 -68.75 34.6 -69.65 33.75 -67.2 31.5 -68.15 28.0 -70.8 30.65 -69.95 33.7 -71.4 34.1 -72.05 31.6 -74.0 33.45 -74.85 32.65 -72.75 30.85 -75.5 30.25 -75.15 29.15 -71.75 29.85 -68.75 27.25 -72.65 26.45 -75.25 28.7 -76.1 27.85 -74.0 26.05 -76.7 25.55 -76.4 24.4 -73.85 25.0 -74.45 22.55 -73.05 22.15 -72.25 25.15 -68.6 26.2 -69.5 22.7 -72.8 21.95 -72.4 20.8 -69.9 21.4 -70.55 18.95 -69.1 18.55 -68.45 21.05 -66.5 19.2 -65.65 20.05 -68.1 22.3 -67.2 25.8 -64.45 23.1 -65.25 20.05 -63.9 19.7 -63.25 22.15 -61.25 20.35 -60.45 21.1 -62.5 23.0 -59.8 23.5 -60.15 24.65" fill="url(#gradient3)" fill-rule="evenodd" stroke="none"/>
    <path d="M-73.1 42.95 L-72.8 44.2 -71.8 43.3 -71.35 43.7 -72.6 44.8 -72.15 46.6 -70.75 45.25 -71.15 43.7 -70.5 43.5 -70.15 44.75 -69.2 43.85 -68.75 44.2 -69.8 45.15 -68.45 45.4 -68.6 46.0 -70.25 45.65 -71.75 47.0 -69.8 47.35 -68.55 46.2 -68.15 46.6 -69.15 47.55 -67.8 47.8 -68.0 48.4 -69.25 48.05 -68.95 49.3 -69.65 49.45 -70.0 47.95 -71.9 47.5 -71.45 49.25 -69.8 49.6 -69.95 50.15 -71.25 49.85 -70.9 51.1 -71.6 51.3 -71.95 50.05 -72.95 50.95 -73.35 50.55 -72.15 49.45 -72.6 47.65 -73.95 49.0 -73.55 50.5 -74.25 50.7 -74.55 49.45 -75.5 50.4 -75.95 50.0 -74.9 49.1 -76.25 48.8 -76.1 48.25 -74.45 48.6 -72.95 47.3 -74.9 46.9 -76.15 48.0 -76.6 47.6 -75.55 46.7 -76.9 46.45 -76.7 45.85 -75.45 46.15 -75.8 44.95 -75.05 44.75 -74.65 46.25 -72.85 46.75 -73.3 45.0 -74.9 44.65 -74.75 44.05 -73.5 44.35 -73.8 43.15 -73.1 42.95" fill="url(#gradient4)" fill-rule="evenodd" stroke="none"/>
    <path d="M-53.15 41.95 L-51.25 43.65 -48.35 43.1 -50.55 41.1 -53.1 41.6 -53.3 40.75 -51.3 40.35 -52.85 39.0 -52.25 38.4 -50.8 39.75 -50.3 37.9 -49.2 38.2 -49.8 40.45 -47.85 42.45 -47.15 39.85 -48.95 38.15 -48.3 37.5 -46.85 38.85 -46.35 37.0 -45.3 37.3 -45.8 39.2 -43.85 38.7 -43.6 39.55 -46.05 40.15 -46.8 42.7 -44.0 42.0 -43.35 39.75 -42.35 40.0 -42.8 41.85 -40.85 41.45 -40.65 42.25 -42.65 42.65 -41.15 44.0 -41.75 44.65 -43.65 42.95 -46.6 43.55 -44.4 45.5 -41.9 44.95 -41.6 45.8 -43.6 46.25 -42.1 47.6 -42.7 48.25 -44.15 46.8 -44.65 48.65 -45.7 48.4 -45.05 46.15 -47.15 44.05 -47.85 46.75 -45.95 48.45 -46.6 49.0 -48.05 47.65 -48.6 49.55 -49.65 49.3 -49.15 47.35 -51.1 47.85 -51.35 47.0 -48.95 46.45 -48.2 43.8 -50.9 44.5 -51.55 46.85 -52.6 46.55 -52.1 44.7 -54.05 45.2 -54.3 44.35 -52.25 43.9 -53.8 42.55 -53.15 41.95" fill="url(#gradient5)" fill-rule="evenodd" stroke="none"/>
    <path d="M-50.8 66.95 L-49.85 67.3 -50.15 66.3 -49.7 66.15 -49.3 67.45 -47.9 67.9 -48.35 66.5 -49.6 66.1 -49.5 65.65 -48.5 65.95 -48.85 65.0 -48.4 64.9 -48.15 65.8 -47.45 65.15 -47.05 65.5 -47.9 66.4 -47.55 67.75 -46.55 66.8 -46.9 65.6 -46.5 65.5 -46.25 66.4 -45.5 65.8 -45.15 66.15 -45.85 66.85 -44.9 67.15 -45.0 67.6 -46.2 67.15 -47.15 68.15 -45.8 68.5 -44.9 67.7 -44.55 68.05 -45.2 68.75 -44.3 69.0 -44.35 69.45 -45.35 69.1 -45.0 70.1 -45.45 70.2 -45.85 69.0 -47.3 68.55 -46.8 69.9 -45.6 70.35 -45.65 70.75 -46.7 70.45 -46.35 71.4 -46.75 71.5 -47.05 70.55 -47.75 71.2 -48.05 70.85 -47.25 70.0 -47.65 68.65 -48.6 69.55 -48.2 70.8 -48.65 70.9 -48.95 69.95 -49.65 70.65 -50.0 70.25 -49.35 69.55 -50.3 69.25 -50.2 68.8 -49.05 69.2 -48.05 68.2 -49.4 67.9 -50.2 68.7 -50.65 68.35 -49.95 67.65 -50.9 67.4 -50.8 66.95" fill="url(#gradient6)" fill-rule="evenodd" stroke="none"/>
    <path d="M-69.35 61.05 L-69.95 63.3 -68.0 65.35 -67.3 62.7 -69.1 61.0 -68.45 60.4 -67.05 61.75 -66.5 59.9 -65.45 60.2 -66.0 62.05 -64.05 61.6 -63.8 62.45 -66.2 63.0 -66.95 65.6 -64.15 64.9 -63.5 62.65 -62.5 62.85 -63.0 64.75 -61.05 64.3 -60.8 65.1 -62.85 65.5 -61.3 66.85 -61.95 67.5 -63.8 65.8 -66.8 66.4 -64.55 68.35 -62.05 67.85 -61.8 68.65 -63.8 69.1 -62.3 70.45 -62.9 71.1 -64.3 69.7 -64.85 71.5 -65.9 71.3 -65.25 69.05 -67.3 66.95 -68.0 69.6 -66.15 71.35 -66.8 71.9 -68.25 70.55 -68.75 72.4 -69.8 72.15 -69.35 70.25 -71.3 70.75 -71.5 69.85 -69.1 69.3 -68.4 66.7 -71.1 67.4 -71.75 69.7 -72.8 69.4 -72.25 67.6 -74.2 68.05 -74.45 67.2 -72.45 66.8 -74.0 65.4 -73.35 64.8 -71.45 66.55 -68.5 65.95 -70.7 64.0 -73.25 64.45 -73.5 63.6 -71.45 63.25 -73.05 61.9 -72.4 61.3 -71.0 62.65 -70.45 60.8 -69.35 61.05" fill="url(#gradient7)" fill-rule="evenodd" stroke="none"/>
  </g>
  <defs>
    <linearGradient gradientTransform="matrix(0.0, 0.0041, -0.004, 0.0, -76.95, -12.5)" gradientUnits="userSpaceOnUse" id="gradient0" spreadMethod="pad" x1="-819.2" x2="819.2">
      <stop offset="0.0" stop-color="#000000" stop-opacity="0.2"/>
      <stop offset="1.0" stop-color="#000000" stop-opacity="0.0"/>
    </linearGradient>
    <linearGradient gradientTransform="matrix(0.0, 0.0051, -0.0056, 0.0, -76.85, 2.25)" gradientUnits="userSpaceOnUse" id="gradient1" spreadMethod="pad" x1="-819.2" x2="819.2">
      <stop offset="0.0" stop-color="#000000" stop-opacity="0.2"/>
      <stop offset="1.0" stop-color="#000000" stop-opacity="0.0"/>
    </linearGradient>
    <linearGradient gradientTransform="matrix(0.0, 0.0041, -0.004, 0.0, -60.2, 7.65)" gradientUnits="userSpaceOnUse" id="gradient2" spreadMethod="pad" x1="-819.2" x2="819.2">
      <stop offset="0.0" stop-color="#000000" stop-opacity="0.2"/>
      <stop offset="1.0" stop-color="#000000" stop-opacity="0.0"/>
    </linearGradient>
    <linearGradient gradientTransform="matrix(0.0, 0.0102, -0.0111, 0.0, -67.6, 26.9)" gradientUnits="userSpaceOnUse" id="gradient3" spreadMethod="pad" x1="-819.2" x2="819.2">
      <stop offset="0.0" stop-color="#000000" stop-opacity="0.2"/>
      <stop offset="1.0" stop-color="#000000" stop-opacity="0.0"/>
    </linearGradient>
    <linearGradient gradientTransform="matrix(0.0, 0.0051, -0.0056, 0.0, -72.35, 47.1)" gradientUnits="userSpaceOnUse" id="gradient4" spreadMethod="pad" x1="-819.2" x2="819.2">
      <stop offset="0.0" stop-color="#000000" stop-opacity="0.2"/>
      <stop offset="1.0" stop-color="#000000" stop-opacity="0.0"/>
    </linearGradient>
    <linearGradient gradientTransform="matrix(0.0, 0.0076, -0.0083, 0.0, -47.45, 43.3)" gradientUnits="userSpaceOnUse" id="gradient5" spreadMethod="pad" x1="-819.2" x2="819.2">
      <stop offset="0.0" stop-color="#000000" stop-opacity="0.2"/>
      <stop offset="1.0" stop-color="#000000" stop-opacity="0.0"/>
    </linearGradient>
    <linearGradient gradientTransform="matrix(0.0, 0.0041, -0.004, 0.0, -47.6, 68.2)" gradientUnits="userSpaceOnUse" id="gradient6" spreadMethod="pad" x1="-819.2" x2="819.2">
      <stop offset="0.0" stop-color="#000000" stop-opacity="0.2"/>
      <stop offset="1.0" stop-color="#000000" stop-opacity="0.0"/>
    </linearGradient>
    <linearGradient gradientTransform="matrix(0.0, 0.0076, -0.0083, 0.0, -67.65, 66.15)" gradientUnits="userSpaceOnUse" id="gradient7" spreadMethod="pad" x1="-819.2" x2="819.2">
      <stop offset="0.0" stop-color="#000000" stop-opacity="0.2"/>
      <stop offset="1.0" stop-color="#000000" stop-opacity="0.0"/>
    </linearGradient>
  </defs>
</svg>
