<?xml version="1.0" encoding="UTF-8" standalone="no"?>
<svg xmlns:xlink="http://www.w3.org/1999/xlink" height="126.1px" width="51.05px" xmlns="http://www.w3.org/2000/svg">
  <g transform="matrix(1.0, 0.0, 0.0, 1.0, -317.1, -267.6)">
    <path d="M342.25 281.6 L341.95 286.45 341.85 287.8 Q341.65 290.6 342.45 292.9 L343.3 295.15 Q343.65 296.15 343.55 297.4 343.35 300.95 344.05 304.1 L344.5 305.65 345.95 307.85 Q347.15 309.25 347.85 310.65 347.85 312.45 348.15 313.25 348.4 312.95 348.45 312.1 L348.35 308.55 348.2 307.65 Q347.4 304.85 349.25 302.75 L349.65 303.4 350.5 307.7 350.95 310.35 Q351.35 311.85 351.7 312.6 L352.5 313.3 352.9 314.15 Q353.7 315.2 354.1 314.35 L354.6 313.9 Q354.95 314.3 354.9 315.25 L354.95 316.15 Q355.05 317.8 355.65 318.75 356.55 319.3 356.9 320.3 358.2 321.35 358.5 322.6 L359.4 321.3 Q360.2 320.15 361.45 319.5 362.2 319.15 362.45 318.2 L362.6 317.2 362.95 316.6 363.25 316.05 Q363.45 315.35 363.8 314.65 L364.0 313.95 364.2 313.1 364.35 312.3 Q364.45 311.3 364.85 310.5 L364.9 311.8 365.0 313.75 364.75 317.4 364.65 317.85 364.45 318.75 364.15 319.5 363.8 320.25 362.4 322.65 362.2 323.2 Q361.9 324.55 361.95 326.1 L361.9 329.35 361.9 329.9 Q361.9 331.0 361.35 331.7 L361.1 332.2 360.8 332.75 360.3 333.45 358.85 334.95 Q358.4 335.3 357.9 336.3 358.0 338.1 357.05 339.5 L356.45 340.45 354.25 344.65 353.4 346.1 Q352.75 347.1 352.6 348.45 L353.85 348.0 Q354.85 347.9 355.85 346.9 L356.9 344.8 357.15 344.4 357.8 343.2 358.25 342.05 358.7 341.15 359.4 340.05 359.25 341.2 Q358.95 341.95 358.8 342.85 L358.3 345.95 358.25 346.5 358.1 348.1 Q357.85 349.4 357.2 350.4 L355.0 353.35 355.2 354.0 355.75 354.7 356.05 354.95 356.4 355.25 Q356.7 355.55 357.1 355.55 L358.05 355.45 Q358.7 355.35 359.1 354.7 359.7 353.8 360.5 353.7 L360.55 360.75 360.8 361.6 361.0 362.4 361.1 362.9 361.1 363.4 361.2 367.95 361.25 369.15 361.55 370.15 361.9 371.0 362.3 371.9 362.5 372.3 363.3 373.75 363.7 374.45 364.4 375.25 365.0 375.4 365.5 375.05 Q366.0 374.55 366.2 373.55 L366.35 372.9 366.55 372.4 367.1 371.15 367.3 370.45 Q367.5 369.75 368.0 369.45 L368.15 370.8 368.1 371.45 367.35 374.2 366.95 375.55 366.7 376.5 366.65 376.8 366.6 377.05 Q366.4 378.8 365.4 380.0 L364.8 380.95 364.4 381.95 364.2 382.6 364.1 384.45 363.8 386.25 363.65 386.75 362.8 389.3 360.95 391.35 360.55 391.7 359.3 392.65 358.95 392.9 Q358.8 393.1 358.45 393.15 L357.5 393.15 Q356.85 393.2 356.3 392.55 L355.9 392.3 355.6 391.9 Q355.2 391.7 354.95 391.5 354.25 391.05 353.45 391.25 353.25 391.25 353.05 391.5 L352.1 392.05 351.65 392.25 350.55 392.9 Q349.75 393.65 348.4 393.7 L345.8 393.2 345.15 392.95 344.3 392.45 343.9 392.15 342.95 391.35 342.05 390.3 340.75 388.6 338.45 386.25 338.15 385.9 337.85 385.65 337.35 385.4 336.85 385.4 Q335.75 385.35 335.05 384.6 L333.85 383.25 333.55 382.8 332.45 381.45 Q332.1 380.9 331.9 380.15 L331.4 379.15 Q330.85 378.4 330.95 377.65 L331.35 377.9 Q331.6 378.2 331.95 378.2 L332.5 378.4 333.7 378.55 Q334.35 378.65 334.35 378.0 L334.25 377.2 333.85 375.7 333.65 375.05 Q333.35 373.55 332.25 372.55 L331.15 371.4 330.8 371.0 329.4 369.45 329.1 368.3 Q328.85 367.75 328.85 367.0 328.85 365.75 328.3 364.7 L328.0 364.05 327.4 361.75 326.9 360.9 Q325.45 359.45 324.15 357.65 L321.35 353.95 320.75 353.2 320.45 352.5 320.05 351.4 319.95 350.6 319.6 348.8 Q319.25 347.6 319.25 346.3 L320.2 347.5 Q320.85 348.8 321.95 350.0 L323.45 351.95 Q323.55 352.3 324.05 352.2 L325.1 351.55 325.35 351.1 325.45 350.6 Q325.8 349.4 326.25 348.35 L326.45 347.75 327.05 346.35 Q327.95 344.85 327.35 343.2 L327.2 342.7 Q327.15 341.6 326.75 340.7 L326.65 340.25 Q326.55 339.55 326.25 339.1 L326.05 337.0 325.85 336.4 Q325.65 336.1 325.6 335.5 L325.6 335.0 325.25 334.5 324.9 333.85 324.1 332.85 323.65 332.2 Q322.8 330.4 321.75 329.1 L321.4 328.55 320.5 327.25 320.3 326.8 320.0 326.3 Q319.35 325.35 319.1 324.45 L318.6 322.65 Q318.4 321.85 318.45 320.7 L318.35 318.25 318.1 317.5 317.9 316.75 317.75 316.1 317.45 314.9 317.1 313.45 317.8 314.7 318.45 315.65 319.65 317.45 320.75 319.1 322.45 321.45 323.35 321.85 Q323.75 321.95 323.75 321.7 L323.8 319.7 323.85 318.85 Q323.85 317.85 324.55 316.9 325.25 315.7 325.15 314.1 L325.05 312.95 324.75 311.6 324.15 309.85 323.95 308.55 323.85 307.9 Q323.6 306.3 323.95 304.6 324.25 303.15 324.9 301.65 L325.1 301.1 326.05 298.35 326.5 296.85 326.55 296.35 326.65 294.7 Q326.75 293.65 326.35 292.45 L325.15 290.25 324.7 289.7 323.2 288.05 322.85 287.5 321.3 284.85 321.1 284.35 320.85 283.6 320.45 282.7 Q320.0 281.3 320.15 279.8 L320.15 279.3 320.6 276.35 320.7 275.5 321.05 270.9 321.15 270.1 321.45 267.6 322.25 270.4 322.45 271.7 322.55 277.15 Q322.6 279.0 323.65 280.1 L323.95 280.7 324.3 281.05 324.8 281.5 325.35 282.0 325.8 282.4 Q326.95 283.15 327.85 284.4 L327.95 287.15 Q327.9 288.2 328.3 289.0 L328.9 289.85 329.35 289.75 330.1 290.6 331.35 292.25 Q332.05 293.05 332.45 294.3 L332.45 294.35 332.4 296.55 333.1 296.95 333.7 297.95 334.35 298.65 334.9 299.3 336.65 301.25 336.65 300.05 336.4 298.9 Q336.3 296.0 336.95 294.3 L337.7 292.6 338.15 291.8 339.45 289.15 340.15 287.05 Q340.95 284.5 341.9 282.25 L342.25 281.6 M348.7 318.15 L347.05 318.65 Q345.95 318.85 345.85 318.15 345.1 316.8 344.8 315.25 344.55 314.0 343.85 312.85 L342.75 311.45 Q342.05 310.6 341.95 309.2 L341.15 307.45 340.55 306.3 Q340.05 307.05 339.95 308.3 L339.7 311.0 Q338.55 312.05 337.95 310.8 L336.65 307.9 336.15 307.15 335.2 306.05 Q334.75 305.65 334.25 306.15 L332.75 306.1 Q331.95 305.25 331.6 304.15 L330.2 302.1 330.15 302.05 330.15 303.6 330.05 306.2 Q329.95 309.1 330.45 311.7 L330.55 312.8 Q330.7 314.3 330.25 315.65 L329.65 318.0 Q329.25 319.45 329.3 320.55 L329.45 324.0 Q329.55 325.45 330.15 326.7 330.15 329.35 330.45 330.6 L330.6 331.45 331.0 335.45 Q329.2 334.2 327.85 331.85 L328.45 334.85 329.0 336.95 Q328.9 340.2 330.5 341.55 L331.65 343.0 332.0 343.8 332.35 346.9 332.5 348.1 332.55 349.5 331.25 351.55 330.65 352.6 330.15 353.5 Q329.9 356.1 331.2 357.05 L332.4 358.7 Q332.5 360.95 332.85 362.7 L333.55 365.3 333.75 366.5 334.05 367.45 Q336.15 367.25 337.7 368.4 L338.6 369.05 Q339.95 369.95 340.45 371.9 L340.6 379.6 Q341.25 381.7 342.25 382.65 L345.0 382.55 Q346.35 380.95 347.1 382.05 L348.05 383.15 348.85 383.85 Q351.0 385.95 353.55 386.4 354.9 386.65 355.95 385.7 L356.65 385.1 357.9 383.7 358.45 382.7 358.8 381.9 359.1 378.75 359.3 377.95 Q359.9 376.5 359.7 374.75 359.1 374.55 358.9 374.9 356.65 375.5 356.55 373.3 L356.45 369.3 356.55 363.25 356.7 362.15 Q357.1 360.9 357.1 359.55 L356.4 359.5 355.0 359.95 350.95 360.1 347.65 359.85 Q347.7 357.85 348.35 356.4 L348.75 355.5 Q349.2 354.55 349.1 353.25 348.95 352.15 348.35 351.9 L346.85 349.8 346.45 348.65 Q346.4 347.3 347.35 347.0 L348.15 346.15 Q349.8 344.8 351.35 342.6 L352.95 340.7 354.1 338.65 354.5 337.7 Q355.85 334.85 355.65 331.45 355.55 330.2 355.9 329.15 356.3 327.95 356.3 326.55 357.5 324.8 356.1 324.2 L355.25 323.95 354.95 323.95 Q354.15 323.45 353.9 322.35 353.55 320.9 353.7 319.25 353.05 319.6 352.55 320.4 352.25 320.9 351.65 320.95 350.95 321.0 350.15 320.1 L350.1 320.1 349.15 318.95 Q348.65 318.55 348.7 318.15 M336.65 301.25 L337.95 303.2 337.55 302.35 336.65 301.25" fill="#000000" fill-rule="evenodd" stroke="none"/>
  </g>
</svg>
