<?xml version="1.0" encoding="UTF-8" standalone="no"?>
<svg xmlns:xlink="http://www.w3.org/1999/xlink" height="50.65px" width="50.15px" xmlns="http://www.w3.org/2000/svg">
  <g transform="matrix(1.0, 0.0, 0.0, 1.0, 0.0, 0.0)">
    <path d="M27.9 23.6 L27.9 22.35 27.75 22.45 26.15 21.1 23.5 19.2 19.1 18.35 Q15.5 17.65 15.5 16.75 L15.75 15.7 15.95 14.35 Q15.95 13.15 15.2 12.35 14.45 11.55 13.25 11.55 12.3 11.55 11.0 12.55 L10.55 12.9 8.9 14.15 6.35 15.15 Q4.85 15.8 4.85 16.75 4.85 18.85 7.2 20.85 L10.7 23.5 Q12.0 24.55 16.35 25.85 20.25 26.95 21.65 26.95 23.15 26.95 24.95 26.15 27.05 25.15 27.9 23.6 M34.05 5.6 L31.8 5.8 29.6 5.65 Q28.2 5.6 27.0 6.25 26.15 6.75 25.15 7.6 24.05 8.6 24.05 8.95 L24.3 10.8 23.95 12.6 Q23.6 13.85 23.6 14.6 23.6 15.45 25.7 17.05 L29.15 19.3 32.45 18.7 Q33.95 18.5 33.95 17.3 L33.3 13.85 32.75 11.65 32.6 11.05 Q32.6 9.55 34.4 8.75 36.1 7.9 36.1 6.55 36.1 5.85 35.55 5.7 L34.05 5.6 M41.7 11.35 L40.55 10.9 Q39.8 10.45 39.2 10.45 37.7 10.45 36.8 11.1 36.0 11.65 35.9 12.5 L35.9 12.55 Q35.9 13.15 36.75 14.5 37.55 15.85 37.55 16.45 37.55 17.15 36.4 18.1 35.2 19.15 35.2 19.9 35.2 20.85 36.1 21.45 36.8 21.9 37.45 21.9 42.95 21.9 48.8 16.95 L49.7 20.1 Q47.6 22.75 44.2 24.4 40.3 26.4 36.35 26.4 L32.0 26.2 Q30.0 26.2 25.75 28.7 21.7 31.1 21.7 31.9 L22.1 33.35 22.5 34.85 22.25 35.85 Q21.95 36.55 21.95 37.0 21.95 37.85 22.85 39.3 23.75 40.7 24.4 41.05 L27.15 41.65 29.75 42.05 Q33.1 42.05 36.15 39.7 38.95 37.45 39.95 34.5 41.05 31.15 46.4 27.55 L50.15 25.05 50.15 25.45 50.0 28.9 Q46.55 29.8 44.85 31.6 44.1 32.4 42.65 35.3 L40.5 39.1 39.45 40.3 Q38.8 41.0 38.8 41.6 38.8 43.9 41.7 43.75 L42.35 43.75 39.35 46.3 36.55 45.85 Q35.45 45.85 31.45 46.95 L26.65 48.1 24.65 48.55 Q23.2 49.0 22.4 49.6 L21.2 50.65 Q12.95 49.6 6.75 43.4 L5.35 41.9 6.5 42.5 9.35 44.25 Q13.85 46.75 19.45 46.75 L19.55 46.8 Q20.6 47.05 23.35 46.3 26.3 45.5 26.3 44.7 26.3 44.2 24.1 43.2 L21.35 42.15 17.4 41.45 Q15.0 41.0 13.4 40.0 L8.5 35.05 Q5.0 31.15 3.3 31.15 2.5 31.15 2.15 32.3 L1.9 34.5 1.4 35.65 Q0.5 33.6 0.0 31.4 L0.65 30.4 Q2.15 28.55 3.3 28.55 4.85 28.55 7.5 30.25 10.2 31.9 12.25 31.9 14.3 31.9 14.3 31.0 14.3 29.95 10.4 27.2 7.3 25.0 4.95 23.8 3.45 23.05 2.05 18.5 1.6 17.0 1.0 16.15 2.65 11.8 6.05 8.2 L5.9 8.65 5.4 10.8 Q5.4 11.35 6.3 11.65 L7.4 11.9 Q8.0 11.9 9.2 11.2 L11.2 10.0 Q14.05 8.05 14.8 8.05 15.25 8.05 16.0 8.65 16.8 9.2 17.65 9.2 20.0 9.2 20.0 8.2 20.0 7.55 19.1 6.6 18.1 5.65 18.1 4.0 18.1 3.4 14.45 3.5 L12.05 3.35 Q15.65 1.2 19.85 0.45 L19.9 1.0 19.9 1.45 19.55 1.75 19.55 2.0 21.65 2.35 Q22.15 2.4 22.15 3.15 L21.95 3.85 21.7 4.6 Q21.7 5.2 21.95 5.25 L22.8 5.25 23.95 4.9 Q24.75 4.45 24.75 3.7 L22.7 0.1 24.75 0.0 25.45 0.0 25.25 0.25 24.95 0.85 Q24.95 1.45 25.85 2.4 L26.9 3.45 31.25 3.45 Q28.25 1.75 28.25 1.25 L28.6 0.25 32.2 1.05 Q33.2 3.1 36.05 4.15 L39.95 5.0 42.7 7.45 44.9 9.95 44.3 10.3 Q42.75 11.35 41.7 11.35" fill="#000000" fill-rule="evenodd" stroke="none"/>
  </g>
</svg>
