<?xml version="1.0" encoding="UTF-8" standalone="no"?>
<svg xmlns:xlink="http://www.w3.org/1999/xlink" height="411.7px" width="155.3px" xmlns="http://www.w3.org/2000/svg">
  <g transform="matrix(1.0, 0.0, 0.0, 1.0, -100.95, -68.3)">
    <path d="M193.75 95.95 Q187.5 101.5 190.6 113.0 188.45 114.1 189.25 118.45 189.7 121.25 190.65 123.05 191.2 124.05 192.45 124.4 L194.65 124.45 196.05 126.85 Q197.65 135.3 196.05 144.2 185.85 153.1 166.4 161.0 164.25 185.0 168.3 209.75 163.15 216.45 161.55 225.1 166.15 248.0 175.45 270.1 173.85 278.75 172.95 286.05 L182.8 292.55 Q184.75 295.2 187.85 293.9 L188.4 295.5 192.8 294.55 Q192.65 290.85 192.8 287.15 L194.2 287.15 Q195.6 300.95 197.9 315.1 186.65 327.2 183.0 340.7 L187.0 426.7 179.55 447.7 Q180.1 455.65 185.65 463.65 L194.65 453.45 193.2 427.1 198.25 397.65 Q200.5 411.85 198.0 426.05 196.35 430.4 195.7 434.8 L201.2 437.5 Q204.95 442.75 204.9 448.7 214.0 455.95 223.1 456.5 236.65 465.05 232.75 480.0 L100.95 480.0 100.95 68.3 196.5 68.3 196.5 93.65 Q195.0 94.6 193.75 95.95 M206.35 212.0 Q192.85 224.2 192.2 239.0 191.85 256.05 193.05 273.6 L182.5 267.35 Q179.9 245.6 181.3 224.15 180.7 219.4 177.25 214.65 181.85 199.0 185.05 183.4 194.55 193.3 208.4 201.8 209.8 206.9 206.35 212.0" fill="#010101" fill-opacity="0.2509804" fill-rule="evenodd" stroke="none"/>
    <path d="M190.6 295.05 L188.4 295.5 187.85 293.9 Q184.75 295.2 182.8 292.55 L172.95 286.05 Q173.85 278.75 175.45 270.1 166.15 248.0 161.55 225.1 163.15 216.45 168.3 209.75 164.25 185.0 166.4 161.0 185.85 153.1 196.05 144.2 197.65 135.3 196.05 126.85 L194.65 124.45 192.45 124.4 Q191.2 124.05 190.65 123.05 189.7 121.25 189.25 118.45 188.45 114.1 190.6 113.0 187.5 101.5 193.75 95.95 195.0 94.6 196.5 93.65 194.9 103.95 199.75 110.6 L199.75 115.6 Q193.95 128.25 213.7 137.2 L215.95 138.15 213.55 137.75 Q213.35 139.5 213.3 141.35 205.3 139.6 201.0 136.0 201.45 141.9 198.75 147.85 188.8 156.1 172.2 163.45 170.65 188.7 174.0 215.0 L171.0 212.5 167.2 223.9 Q170.15 246.6 178.35 269.3 L186.2 289.65 Q187.5 289.4 188.7 288.6 L189.1 288.55 190.6 295.05 M185.05 183.4 L187.1 172.6 Q192.55 172.5 195.9 177.25 208.7 191.4 222.25 180.35 215.6 191.0 201.2 186.55 204.3 192.25 211.05 197.95 216.55 208.35 208.45 220.85 196.15 244.95 200.85 313.85 L202.05 325.15 199.9 318.55 Q192.4 328.35 189.0 340.95 L189.9 427.1 183.85 448.35 185.65 463.65 Q180.1 455.65 179.55 447.7 L187.0 426.7 183.0 340.7 Q186.65 327.2 197.9 315.1 195.6 300.95 194.2 287.15 L195.6 287.45 Q196.8 287.55 197.7 286.75 L198.3 286.05 195.8 282.4 197.2 275.7 193.05 273.6 Q191.85 256.05 192.2 239.0 192.85 224.2 206.35 212.0 209.8 206.9 208.4 201.8 194.55 193.3 185.05 183.4 M198.25 397.65 L207.15 345.4 207.25 322.15 209.2 319.1 209.65 312.8 Q222.75 278.35 227.4 243.95 L232.45 238.9 Q225.25 278.9 214.6 320.15 L214.6 313.6 212.55 317.8 Q213.25 350.15 204.7 382.55 L201.6 397.15 Q202.25 412.15 200.0 428.85 206.8 437.8 208.6 447.7 L223.1 456.5 Q214.0 455.95 204.9 448.7 204.95 442.75 201.2 437.5 L195.7 434.8 Q196.35 430.4 198.0 426.05 200.5 411.85 198.25 397.65 M244.2 178.0 Q242.8 180.05 240.3 182.0 235.85 181.1 234.3 178.05 240.55 178.55 245.65 175.15 L244.2 178.0" fill="#010101" fill-opacity="0.2509804" fill-rule="evenodd" stroke="none"/>
    <path d="M190.6 295.05 L189.1 288.55 189.05 288.4 188.7 288.6 Q187.5 289.4 186.2 289.65 L178.35 269.3 Q170.15 246.6 167.2 223.9 L171.0 212.5 174.0 215.0 Q170.65 188.7 172.2 163.45 188.8 156.1 198.75 147.85 201.45 141.9 201.0 136.0 205.3 139.6 213.3 141.35 213.2 144.15 213.4 147.05 223.1 151.5 240.45 154.45 242.2 158.9 243.15 165.1 245.2 167.45 245.8 170.45 246.35 172.85 245.65 175.15 240.55 178.55 234.3 178.05 235.85 181.1 240.3 182.0 242.8 180.05 244.2 178.0 244.45 189.85 242.85 205.85 L247.65 217.35 245.9 227.15 Q248.25 235.7 247.4 244.3 L246.5 249.85 246.25 265.55 255.75 274.95 Q252.9 278.6 252.0 284.35 L250.05 284.35 250.15 287.15 Q249.65 289.95 246.8 289.7 245.1 289.4 244.55 288.3 242.15 289.45 240.7 288.6 239.65 287.95 239.15 286.3 237.45 286.85 236.4 286.3 235.45 285.75 234.95 284.35 L237.9 277.9 237.4 277.25 234.5 284.3 Q228.8 297.6 221.5 311.35 L221.5 315.15 Q225.45 330.1 223.95 345.05 L216.5 377.95 Q207.9 402.55 209.2 430.7 L223.1 456.5 208.6 447.7 Q206.8 437.8 200.0 428.85 202.25 412.15 201.6 397.15 L204.7 382.55 Q213.25 350.15 212.55 317.8 L214.6 313.6 214.6 320.15 Q225.25 278.9 232.45 238.9 L227.4 243.95 Q222.75 278.35 209.65 312.8 L209.2 319.1 207.25 322.15 207.15 345.4 198.25 397.65 193.2 427.1 194.65 453.45 185.65 463.65 183.85 448.35 189.9 427.1 189.0 340.95 Q192.4 328.35 199.9 318.55 L202.05 325.15 200.85 313.85 Q196.15 244.95 208.45 220.85 216.55 208.35 211.05 197.95 204.3 192.25 201.2 186.55 215.6 191.0 222.25 180.35 208.7 191.4 195.9 177.25 192.55 172.5 187.1 172.6 L185.05 183.4 Q181.85 199.0 177.25 214.65 180.7 219.4 181.3 224.15 179.9 245.6 182.5 267.35 L193.05 273.6 197.2 275.7 195.8 282.4 198.3 286.05 197.7 286.75 Q196.8 287.55 195.6 287.45 L194.2 287.15 192.85 286.5 192.8 286.5 192.8 287.15 Q192.65 290.85 192.8 294.55 L190.6 295.05 M215.95 138.15 L213.7 137.2 Q193.95 128.25 199.75 115.6 L199.75 110.6 Q194.9 103.95 196.5 93.65 203.45 89.0 215.2 92.35 226.35 96.15 225.9 109.25 L224.2 114.45 Q226.5 119.95 220.65 130.1 L215.95 138.15" fill="#010101" fill-opacity="0.0" fill-rule="evenodd" stroke="none"/>
    <path d="M189.1 288.55 L188.7 288.6 189.05 288.4 189.1 288.55" fill="#cc9966" fill-rule="evenodd" stroke="none"/>
    <path d="M198.7 92.75 L200.05 91.95 200.05 94.8 202.45 99.25 205.75 99.25 213.5 99.0 216.55 99.0 217.45 99.0 217.45 93.25 M221.8 100.65 L222.4 100.65 223.45 98.4 M221.8 100.65 L219.6 100.65 219.6 101.25 219.6 102.75 219.6 111.65 225.1 111.65 M218.7 102.75 L219.6 102.75 M218.7 102.75 L213.5 102.75 213.5 99.6 213.5 99.0 M214.35 114.95 L214.35 114.35 214.3 110.95 213.4 110.95 206.3 110.95 206.35 111.55 206.7 116.35 211.15 123.15 211.15 126.9 217.05 126.9 217.95 126.9 217.95 125.15 217.95 124.55 223.4 124.55 M215.95 114.35 L214.35 114.35 M205.75 99.85 L205.75 104.15 214.2 104.15 214.3 110.95 M205.8 104.75 L205.75 104.15 204.85 104.75 M205.8 104.75 L206.3 110.95 M205.75 99.25 L205.75 99.85 M205.8 116.85 L206.7 116.35 M210.25 126.9 L211.15 126.9 M219.6 111.65 L218.7 111.65 217.25 111.65 217.25 112.25 217.25 112.85 Q216.95 112.9 216.75 114.35 L215.95 114.35 M214.35 114.95 L214.4 117.75 Q214.95 117.75 215.35 119.2 L217.95 119.2 217.95 124.55 M208.55 127.5 L208.55 136.25 M210.25 126.9 L208.55 126.9 208.55 127.5 M205.55 144.95 L206.45 144.95 206.45 143.45 206.45 142.85 213.2 142.85 M204.55 145.55 L204.55 147.85 204.55 151.05 213.0 151.05 213.95 151.05 213.55 148.95 M203.65 147.85 L204.55 147.85 M204.55 151.65 L204.55 151.05 M205.55 144.95 L204.55 144.95 204.55 145.55 M197.75 110.75 L195.65 110.75 Q195.15 110.75 194.8 111.1 L194.5 111.4 194.45 111.45 Q193.95 112.2 193.95 113.25 M197.75 110.75 L198.65 110.75 198.65 108.85 M189.85 102.85 L196.5 102.85 195.65 110.75 M198.5 120.9 L198.45 120.8 196.8 120.8 195.0 115.25 M198.5 120.9 L199.8 126.3 199.8 131.25 M200.75 138.95 L201.65 139.55 201.65 132.65 M200.75 138.95 L196.9 136.3 M196.05 144.2 L198.75 147.85 203.65 147.85 M201.25 158.35 L195.65 158.35 189.1 151.05 M201.85 155.2 L201.75 154.6 203.65 154.6 204.55 154.6 204.55 151.65 M201.25 158.35 L202.2 158.35 201.85 155.2 M183.7 162.45 L183.7 161.4 183.7 152.75 182.4 153.6 182.25 153.7 M191.1 166.0 L191.1 165.4 188.6 164.65 188.6 163.95 183.7 161.4 M190.2 173.2 L191.1 174.05 191.1 166.0 M198.05 165.4 L191.1 165.4 M178.35 173.25 L187.1 172.6 Q189.0 172.35 190.2 173.2 M177.55 173.85 L177.8 175.9 Q178.25 178.45 179.75 180.45 181.95 183.4 185.05 183.4 M198.95 162.7 L198.95 165.4 198.05 165.4 M198.95 162.7 L198.95 162.1 203.7 162.1 205.05 162.1 205.05 163.5 208.9 163.5 212.4 163.5 212.75 163.5 212.75 167.25 219.8 167.25 219.8 171.25 222.15 171.25 225.7 171.25 226.6 171.25 226.6 167.5 226.6 167.0 230.15 166.65 230.35 166.65 230.35 166.55 231.05 166.55 230.35 166.65 230.35 169.85 232.0 178.05 233.7 178.05 234.3 178.05 236.25 173.8 236.25 171.7 237.1 170.3 237.15 169.7 245.65 169.7 M177.55 173.65 L177.55 173.3 176.9 173.35 176.9 168.2 166.4 161.0 M178.85 172.9 Q180.45 172.05 181.7 169.85 183.5 166.75 183.7 162.45 M177.55 173.65 L177.55 173.85 M178.35 173.25 L177.55 173.3 178.85 172.9 M171.1 180.05 L171.7 180.35 172.9 176.5 173.05 175.9 176.8 175.9 177.8 175.9 M171.7 180.35 L171.8 185.25 176.15 185.25 176.15 191.85 178.1 191.85 182.55 194.8 M171.1 180.05 L165.6 177.4 M175.25 191.7 L172.5 191.2 172.5 191.95 172.5 200.0 178.75 200.0 178.75 201.9 180.75 201.9 M175.25 191.7 L176.15 191.85 M172.5 191.2 L166.0 189.95 M202.75 177.8 L200.6 177.8 200.0 178.4 198.55 179.85 197.05 182.05 197.05 184.2 M203.65 176.05 L203.65 175.45 205.05 175.45 205.95 175.45 205.95 173.25 205.95 172.65 208.0 172.65 208.9 172.65 212.75 174.3 216.05 174.3 216.05 180.65 219.35 180.65 220.65 182.55 Q222.15 183.65 222.45 184.65 L228.1 184.65 232.65 186.25 234.4 186.25 235.3 186.25 235.3 181.55 235.85 181.25 236.5 180.55 240.3 182.0 M186.05 178.25 L187.45 180.4 191.7 183.6 191.25 184.0 Q189.7 185.6 189.7 187.9 M191.75 183.55 Q193.15 182.4 195.0 182.4 M191.75 183.55 L191.7 183.6 M200.9 188.2 L201.95 187.85 201.2 186.55 M200.9 188.2 L198.35 188.95 199.45 188.95 200.1 188.95 202.6 193.25 211.05 193.25 211.05 197.95 211.9 198.6 214.5 196.95 215.95 196.95 216.85 196.95 216.85 190.9 216.85 190.3 225.5 190.3 229.65 190.3 229.85 191.5 231.75 191.5 232.65 191.5 235.5 191.5 235.4 193.45 Q235.75 194.85 236.5 195.05 M203.65 176.05 L203.65 177.8 202.75 177.8 M197.95 189.55 Q197.1 190.85 197.0 192.25 M198.05 189.4 L198.35 188.95 M197.95 189.55 L198.05 189.4 M235.65 160.45 L236.5 160.55 Q236.5 158.0 237.65 156.2 L238.4 155.3 Q239.3 154.45 240.45 154.45 M235.65 160.45 Q234.15 160.3 234.1 161.05 L234.1 161.15 235.0 163.8 Q235.65 165.2 237.15 165.4 L237.15 169.7 M233.7 156.7 L234.6 156.7 234.6 154.8 M233.7 156.7 L232.25 156.7 232.25 157.3 232.25 158.35 231.35 158.35 230.85 158.35 230.9 158.95 231.05 161.15 233.55 161.15 234.1 161.15 M223.6 154.95 L224.05 154.35 224.55 154.35 225.45 154.35 225.45 151.25 M223.6 154.95 L222.4 156.45 225.2 158.35 230.85 158.35 M231.05 161.75 L231.05 161.15 M219.2 157.05 L221.0 160.45 219.8 160.45 215.6 160.45 215.05 161.05 212.75 163.5 M231.05 161.75 L231.05 166.55 M219.0 156.75 L218.85 156.45 220.6 156.45 213.95 153.4 213.95 151.05 M222.0 156.45 L220.6 156.45 M222.4 156.45 L222.0 156.45 M219.2 157.05 L219.0 156.75 M222.15 171.85 L222.15 171.25 M208.9 164.1 L208.9 172.65 M233.7 178.95 L232.7 180.35 232.25 180.35 222.25 180.35 222.15 171.85 M208.9 164.1 L208.9 163.5 M211.9 198.65 L219.55 204.8 228.3 204.8 230.25 204.8 230.55 204.8 231.15 204.8 231.45 203.9 231.15 203.55 231.15 204.0 231.15 204.8 M233.7 178.95 L234.3 178.05 236.5 180.55 M232.65 186.85 L232.65 191.5 M232.65 186.25 L232.65 186.85 M225.5 190.3 L225.5 190.9 225.5 195.75 Q226.65 196.0 227.45 195.15 L231.15 195.15 231.15 203.55 232.8 203.2 232.9 203.15 233.7 202.55 236.45 202.55 M202.2 158.35 L205.05 162.1 M201.65 139.55 L206.45 142.85 M198.45 120.8 L205.8 116.85 M248.4 272.2 L249.0 271.6 249.45 271.6 249.85 271.6 251.0 270.25 M248.7 276.95 Q248.75 279.95 249.65 282.05 250.65 284.35 252.0 284.35 M255.75 274.95 L248.7 276.55 248.7 276.95 M248.4 272.2 L247.2 273.1 M237.4 210.3 L238.1 209.55 M228.45 205.4 L231.45 217.0 233.65 217.0 234.55 217.0 238.8 217.25 238.8 222.35 241.9 222.35 243.9 227.15 242.75 227.15 237.55 227.15 237.55 227.75 237.2 239.6 247.65 239.6 M234.55 212.2 L234.55 211.6 235.9 211.6 236.25 211.6 237.4 210.3 M234.55 212.2 L234.55 217.0 M228.3 204.8 L228.45 205.4 M230.4 217.0 L231.45 217.0 231.45 217.6 231.45 226.35 230.55 226.35 230.0 226.35 230.0 226.95 230.0 232.3 234.55 234.25 234.55 236.85 M230.4 217.0 L220.4 217.0 220.4 217.6 220.4 225.75 219.5 225.75 215.55 225.75 215.6 226.35 215.95 230.0 M237.15 240.2 L237.2 239.6 M219.7 212.15 L220.4 212.15 221.25 209.6 Q221.25 209.35 219.55 209.05 L219.55 205.4 219.55 204.8 M211.9 198.6 L211.9 198.65 M210.95 199.2 L211.9 198.6 M210.95 199.2 L210.2 199.65 209.05 200.25 209.0 200.45 208.4 201.8 M220.4 217.0 L220.4 212.15 M219.7 212.15 L209.05 212.15 Q208.75 210.7 207.6 209.8 M201.15 249.15 L201.2 248.55 203.3 235.65 202.7 235.45 193.2 232.1 M210.9 248.55 L201.2 248.55 M229.1 232.75 L222.65 235.8 222.6 236.0 221.55 238.8 Q221.25 239.05 220.65 240.75 L211.05 248.55 210.9 248.55 M207.7 222.8 L203.3 235.65 M230.0 232.3 L229.1 232.75 M215.55 225.75 L208.0 221.9 207.7 222.8 M208.0 221.9 L200.5 218.05 201.0 217.55 M172.55 200.6 L172.75 203.05 173.45 210.1 178.55 210.1 M172.55 200.6 L172.5 200.0 M169.8 203.65 L167.75 206.15 M171.8 203.05 L170.25 203.05 169.8 203.65 M175.35 219.4 L175.35 219.25 165.65 213.7 M175.35 219.25 L178.05 217.95 179.0 217.45 M172.75 203.05 L171.8 203.05 M175.4 234.3 L175.35 233.7 175.35 228.3 174.45 228.3 167.8 228.3 167.35 228.9 165.45 231.45 163.25 233.2 M175.35 233.7 L180.9 233.7 M162.3 221.85 L167.2 223.9 167.8 228.3 M173.05 243.5 L173.25 243.7 175.65 240.75 175.4 234.3 M177.8 254.45 Q177.7 248.65 174.05 244.55 L173.25 243.7 M173.05 243.5 Q169.7 240.45 165.2 240.45 M175.35 219.4 L175.35 228.3 M201.15 249.15 L201.05 250.1 200.2 250.45 195.0 252.5 Q194.65 250.85 192.2 250.95 M195.05 252.75 L195.05 253.5 Q194.9 255.05 194.9 257.3 L200.3 257.3 210.15 263.2 211.05 263.7 211.05 248.55 M200.25 258.4 L200.3 257.3 M195.05 252.75 L195.0 252.5 M201.65 276.1 L202.55 276.15 202.55 266.8 199.75 266.8 198.9 266.8 192.65 266.8 M200.25 258.4 L199.75 266.8 M181.15 251.75 L180.35 252.45 177.8 254.6 174.4 257.4 175.15 260.0 178.75 260.85 181.8 260.85 M174.25 257.4 L174.4 257.4 M174.25 257.4 L170.5 257.4 M177.8 254.6 L177.8 254.45 M182.55 282.9 Q181.7 283.65 181.2 284.85 L180.75 288.35 M174.05 278.4 L176.2 278.4 182.25 280.6 182.75 280.75 Q183.45 280.9 183.35 282.25 L182.55 282.9 M201.65 276.1 L197.2 275.7 Q195.65 275.7 194.55 276.6 L194.45 276.7 Q193.45 277.55 193.45 278.8 M192.0 286.55 L192.85 286.5 193.0 283.6 183.9 283.6 Q185.0 282.55 183.35 282.25 M187.75 270.45 L182.75 280.75 M192.0 286.55 L190.9 286.55 M197.4 289.65 L198.3 289.2 198.3 286.05 204.2 281.8 205.05 281.15 209.05 282.95 209.05 289.75 215.55 289.75 224.1 293.15 224.9 293.45 Q224.9 291.65 225.95 290.4 L226.3 290.05 Q226.95 289.45 227.7 289.3 L228.6 289.15 228.6 276.7 228.05 276.2 Q227.1 275.6 225.15 275.55 L226.2 271.0 222.45 271.0 M206.4 296.05 L207.35 295.55 205.1 292.3 205.1 291.15 202.7 289.55 198.3 289.2 M196.65 290.2 L196.6 290.1 197.4 289.65 M195.15 295.55 Q197.3 294.7 196.65 290.2 M182.5 267.35 L175.55 270.3 M243.6 259.7 L236.8 252.05 235.95 252.05 232.85 252.05 232.85 252.65 232.85 263.7 230.75 270.2 239.5 271.8 Q240.25 272.45 240.8 272.45 L242.0 274.45 M230.5 270.95 L230.75 270.2 M232.85 263.7 L231.95 263.7 211.05 263.7 211.05 264.3 211.05 272.75 215.3 272.75 215.3 278.4 220.65 278.4 M210.45 273.35 L211.05 272.75 M204.65 281.0 L205.05 281.15 209.35 274.45 210.45 273.35 M204.65 281.0 L203.4 280.4 203.4 278.4 Q201.95 277.0 202.55 276.15 M206.4 296.05 L205.35 296.7 Q204.3 297.5 203.85 298.5 L203.3 298.5 200.0 298.5 200.05 299.1 200.4 306.6 206.5 306.6 206.5 311.85 209.65 312.8 M228.6 289.15 L232.35 289.15 M230.5 270.95 L228.6 276.7 M236.8 252.05 L237.15 240.2 M215.5 313.6 L216.25 313.6 217.0 310.6 217.2 309.75 222.35 300.8 224.9 293.45 M215.5 313.6 L214.6 313.6 M212.95 321.3 L212.6 321.5 212.6 323.8 207.15 341.0 211.85 341.0 216.55 342.3 220.1 343.25 221.25 343.55 217.9 331.5 217.9 331.4 223.95 328.25 223.95 328.6 M213.7 320.75 L214.6 320.15 217.2 321.1 215.85 327.15 216.7 327.15 217.9 331.4 M217.2 309.75 L221.5 311.35 M213.9 301.0 L209.6 298.8 207.35 295.55 M206.5 340.8 L207.15 341.0 M206.5 340.8 L201.95 339.35 193.45 339.35 193.8 339.95 195.0 342.0 195.0 345.55 198.95 345.55 198.95 358.25 198.95 359.5 201.05 359.5 Q202.2 362.45 204.15 363.05 M223.95 345.05 L222.5 343.55 221.25 343.55 M216.35 343.1 L214.95 348.4 213.35 354.5 216.9 354.5 222.1 353.25 M216.55 342.3 L216.35 343.1 M200.4 307.2 L200.4 306.6 M199.9 318.55 L200.4 307.2 M193.15 339.0 L193.45 339.35 201.7 325.75 202.05 325.15 205.4 325.05 M193.15 339.0 L190.55 335.95 190.55 333.4 186.55 331.2 M187.1 347.25 L187.1 346.8 185.85 346.6 185.85 345.75 183.15 343.9 M194.1 345.7 L187.1 346.8 M195.0 345.55 L194.1 345.7 M194.2 358.85 L194.2 358.25 187.1 356.8 186.8 357.55 184.05 363.3 M198.95 358.25 L198.05 358.25 194.2 358.25 M194.2 358.85 L194.2 374.25 196.05 373.0 196.9 372.4 202.55 372.4 M187.1 347.25 L187.1 356.8 M191.95 374.85 L190.65 376.95 190.65 386.35 189.75 386.8 189.5 386.95 189.5 387.05 189.5 388.0 193.25 394.85 197.5 392.1 198.5 391.45 199.4 390.85 200.1 386.75 M193.3 374.25 L194.2 374.25 M193.3 374.25 L192.3 374.25 191.95 374.85 M190.25 376.75 L190.65 376.95 M190.25 376.75 L184.55 374.05 M193.25 394.85 L195.35 396.7 196.5 397.15 M201.55 393.8 L202.45 393.2 203.8 393.2 204.7 393.2 212.2 393.2 M189.5 386.95 L185.15 386.95 M216.9 354.9 L216.9 354.5 M214.95 348.4 L214.2 348.4 206.65 348.4 M209.6 375.9 L210.4 375.9 211.65 367.6 211.65 362.35 211.65 361.75 204.75 359.5 M216.9 354.9 L216.9 361.75 219.6 364.2 M216.0 361.75 L216.9 361.75 M216.0 361.75 L211.65 361.75 M207.8 376.5 L205.85 378.05 204.7 382.55 204.7 393.2 M204.0 382.4 L204.7 382.55 M209.6 375.9 L208.55 375.9 207.8 376.5 M216.95 375.9 L210.4 375.9 M204.0 382.4 L200.95 381.8 M244.75 284.35 L239.7 284.35 M246.25 265.55 L241.2 267.2 M203.8 408.15 Q206.2 406.75 207.05 404.25 L207.35 403.8 207.65 403.3 207.7 403.2 208.55 403.2 Q208.45 402.3 209.05 402.1 M204.6 424.7 L204.6 424.25 206.45 411.1 203.95 411.1 Q204.0 409.8 203.55 409.75 L202.65 408.9 202.55 408.8 199.15 405.55 M203.8 408.15 L202.55 408.8 M209.05 422.4 L208.1 422.9 205.85 424.0 204.6 424.25 M204.6 424.7 L204.6 425.3 202.3 427.15 204.4 433.4 206.4 435.6 206.55 435.75 207.95 434.25 207.75 431.15 Q207.65 430.45 207.85 430.05 208.1 429.35 209.15 429.45 M202.15 427.15 L202.3 427.15 M210.85 444.55 L210.85 444.25 205.15 437.25 206.55 435.75 M210.85 444.55 L210.85 445.5 209.95 446.0 206.2 448.1 204.95 448.8 M214.4 443.0 L210.85 444.25 M193.25 396.25 L193.25 402.05 193.25 402.6 189.7 407.15 195.15 415.75 M195.05 400.35 L195.25 400.05 198.05 398.75 211.15 398.75 M195.05 400.35 L193.25 402.6 M189.7 406.6 L189.7 407.15 M186.05 406.1 L189.7 406.1 189.7 406.6 M202.15 427.15 L200.2 427.15 Q199.9 426.1 200.35 425.95 L198.0 426.05 M186.85 423.6 L191.7 423.6 Q192.45 423.6 193.0 424.05 193.55 424.55 193.55 425.2 M192.6 432.4 L193.45 431.7 M185.2 431.7 L187.1 432.35 188.1 433.35 188.95 435.15 189.0 435.2 188.85 435.2 187.8 435.2 187.6 435.2 187.7 435.8 188.75 444.85 191.5 444.85 Q190.65 449.9 194.65 453.45 M192.6 432.4 L189.0 435.2 M187.7 444.15 L188.75 444.85 M185.5 443.85 L185.5 442.6 Q184.7 443.25 184.15 442.6 L182.05 440.65 M187.7 444.15 L185.5 442.6 M185.5 443.85 L185.5 447.15 184.6 447.25 179.55 447.7 M193.25 394.85 L193.25 396.25" fill="none" stroke="#000000" stroke-linecap="round" stroke-linejoin="round" stroke-opacity="0.2509804" stroke-width="1.0"/>
    <path d="M216.55 99.0 L216.55 93.85 M197.75 110.75 L197.75 109.45 198.65 108.85 204.85 104.75 204.85 99.85 201.55 99.85 199.15 95.4 199.15 92.55 198.7 92.75 197.7 93.1 M219.6 101.25 L221.5 101.25 221.8 100.65 222.55 99.0 M218.7 102.75 L218.7 101.25 219.6 101.25 M213.5 99.6 L212.6 99.6 212.6 103.35 218.7 103.35 218.7 102.75 M213.5 99.6 L216.55 99.6 216.55 99.0 M213.4 110.95 L213.4 111.55 213.45 114.95 214.35 114.95 215.85 114.95 215.95 114.35 Q216.1 113.5 216.35 113.45 L216.35 112.25 217.25 112.25 218.7 112.25 224.2 112.25 M205.8 104.75 L213.3 104.75 213.4 110.95 M206.35 111.55 L213.4 111.55 M204.85 104.75 L205.8 104.75 M205.75 99.85 L212.6 99.6 M205.75 99.85 L204.85 99.85 M217.05 126.9 L217.05 125.15 217.05 119.8 214.45 119.8 Q214.05 118.35 213.5 118.35 L213.45 114.95 M206.35 111.55 L205.4 111.55 205.8 116.85 205.8 116.95 210.25 123.75 210.25 126.9 210.25 127.5 208.55 127.5 207.65 127.5 207.65 136.85 M218.7 111.65 L218.7 112.25 M218.7 111.65 L218.7 103.35 M205.4 111.55 L204.85 104.75 M217.95 125.15 L217.05 125.15 M217.95 125.15 L222.5 125.15 M217.05 126.9 L217.05 127.5 210.25 127.5 M206.45 143.45 L205.55 143.45 205.55 144.95 205.55 145.55 204.55 145.55 203.65 145.55 203.65 147.85 203.65 148.45 203.65 151.65 204.55 151.65 213.05 151.65 213.0 151.05 212.65 149.55 M206.45 143.45 L212.3 143.45 M194.8 111.1 L194.75 111.35 197.75 111.35 197.75 110.75 M188.95 103.45 L195.6 103.45 194.8 111.1 M194.5 111.4 L194.75 111.35 M194.5 111.4 Q193.95 111.45 193.55 112.05 193.05 112.8 193.05 113.85 M198.5 120.9 L197.55 121.4 198.9 126.9 198.9 131.85 M197.55 121.4 L195.9 121.4 194.1 115.85 M196.0 136.9 L200.75 140.15 200.75 138.95 200.75 133.25 M203.65 148.45 L197.85 148.45 195.15 144.8 M188.2 151.65 L194.75 158.95 201.3 158.95 201.25 158.35 200.85 155.2 201.85 155.2 203.65 155.2 203.65 154.6 203.65 151.65 M182.4 153.6 L182.8 153.35 182.8 162.0 183.7 162.45 187.7 164.55 187.7 165.25 190.2 166.0 191.1 166.0 198.05 166.0 198.05 165.4 198.05 162.7 198.95 162.7 204.15 162.7 204.15 164.1 208.0 164.1 208.0 172.65 208.0 173.25 205.95 173.25 205.05 173.25 205.05 175.45 205.05 176.05 203.65 176.05 202.75 176.05 202.75 177.8 202.75 178.4 200.0 178.4 199.7 178.4 197.65 180.45 196.15 182.65 196.15 184.8 M182.25 153.7 L181.3 154.2 M190.2 166.0 L190.2 173.2 190.2 174.65 Q188.85 172.85 186.2 173.2 L177.55 173.85 176.65 173.9 177.55 173.65 178.35 173.25 178.85 172.9 Q179.9 172.0 180.8 170.45 182.8 166.95 182.8 162.0 M203.7 162.1 L201.3 158.95 M176.8 175.9 Q176.65 174.95 176.65 173.9 L176.0 173.95 176.0 168.8 165.5 161.6 M172.9 176.5 L172.15 176.5 171.1 180.05 170.8 180.95 164.7 178.0 M184.15 184.0 Q181.05 184.0 178.85 181.05 177.35 179.05 176.9 176.5 L172.9 176.5 M176.8 175.9 L176.9 176.5 M175.25 191.7 L175.25 185.85 170.9 185.85 170.8 180.95 M171.8 203.05 L171.6 200.6 171.6 191.8 165.1 190.55 M172.5 191.95 L175.25 192.45 175.25 191.7 M181.65 195.4 L177.2 192.45 175.25 192.45 M172.5 191.95 L171.6 191.8 M191.7 183.6 L191.75 183.55 Q192.8 183.0 194.1 183.0 M191.7 183.6 Q191.2 183.85 190.8 184.2 L190.35 184.6 Q188.8 186.2 188.8 188.5 M190.8 184.2 L186.55 181.0 185.15 178.85 M199.45 188.95 L201.05 188.45 200.9 188.2 200.3 187.15 M215.95 196.95 L215.95 190.9 216.85 190.9 224.6 190.9 224.6 196.35 Q225.75 196.6 226.55 195.75 L230.25 195.75 230.25 204.15 231.15 204.0 231.45 203.9 Q232.55 203.6 232.8 203.2 L232.8 203.15 232.9 203.15 235.55 203.15 M231.75 191.5 L231.75 186.85 227.2 185.25 221.55 185.25 Q221.25 184.25 219.75 183.15 L218.45 181.25 215.15 181.25 215.15 174.9 211.85 174.9 208.0 173.25 M210.95 199.2 L210.15 198.55 210.15 193.85 201.7 193.85 199.2 189.55 197.95 189.55 197.45 189.55 198.05 189.4 199.45 188.95 M196.1 192.85 Q196.25 191.15 197.45 189.55 M233.7 156.7 L233.7 155.4 M238.4 155.3 Q237.5 155.7 236.75 156.8 235.75 158.35 235.65 160.45 L235.6 161.15 234.1 161.05 233.55 161.15 Q233.15 161.35 233.2 161.75 L231.05 161.75 230.15 161.75 229.95 158.95 224.3 158.95 221.5 157.05 219.7 157.05 219.2 157.05 217.95 157.05 219.8 160.45 220.1 161.05 215.05 161.05 214.7 161.05 212.4 163.5 211.85 164.1 211.85 167.85 218.9 167.85 218.9 171.85 221.25 171.85 222.15 171.85 225.7 171.85 225.7 171.25 225.7 167.6 226.6 167.5 229.45 167.25 229.45 167.15 230.15 167.15 230.15 166.65 230.15 161.75 M232.25 157.3 L233.7 157.3 233.7 156.7 M231.35 158.35 L231.35 158.95 230.9 158.95 229.95 158.95 M239.55 155.05 L238.4 155.3 M224.55 154.35 L224.55 151.85 M224.55 154.35 L224.55 154.95 223.6 154.95 223.15 154.95 222.0 156.45 221.5 157.05 M231.35 158.35 L231.35 157.3 232.25 157.3 M233.7 178.05 L235.35 174.4 235.35 172.3 Q236.25 171.35 236.25 170.3 L236.25 166.0 Q234.75 165.8 234.1 164.4 L233.2 161.75 M232.25 180.35 L233.4 178.65 231.1 178.65 229.45 170.45 229.45 167.25 230.15 167.15 M237.1 170.3 L236.25 170.3 M213.05 151.65 L213.05 154.0 219.0 156.75 219.7 157.05 M211.85 164.1 L208.9 164.1 208.0 164.1 M234.4 186.25 L234.4 182.15 235.6 181.15 233.7 178.95 233.4 178.65 233.7 178.05 M232.25 180.35 L231.8 180.95 221.35 180.95 221.25 171.85 M203.7 162.1 L204.15 162.7 M215.95 196.95 L215.95 197.55 213.6 197.55 211.9 198.65 211.0 199.2 218.65 205.4 218.65 209.65 Q220.35 209.95 220.35 210.2 L219.7 212.15 219.5 212.75 208.15 212.75 Q207.85 211.3 206.7 210.4 M230.25 204.8 L230.25 204.15 Q230.65 204.3 230.55 204.8 L230.25 205.4 228.45 205.4 227.4 205.4 230.4 217.0 230.55 217.6 231.45 217.6 233.65 217.6 233.65 217.0 233.65 212.2 234.55 212.2 235.35 212.2 235.9 211.6 237.4 210.3 M234.4 186.25 L234.4 186.85 232.65 186.85 231.75 186.85 M235.85 181.25 L239.4 182.6 M235.85 181.25 L235.6 181.15 M225.5 190.9 L228.75 190.9 228.95 192.1 231.75 192.1 231.75 191.5 M225.5 190.9 L224.6 190.9 M235.6 195.65 Q234.85 195.45 234.5 194.05 L234.6 192.1 231.75 192.1 M205.55 143.45 L200.75 140.15 M205.8 116.95 L198.5 120.9 M237.1 170.3 L244.75 170.3 M246.45 273.85 L247.2 273.1 248.1 272.2 248.4 272.2 248.95 272.2 249.45 271.6 250.1 270.85 M248.7 276.95 L247.8 277.15 Q247.8 280.4 248.75 282.65 249.75 284.95 251.1 284.95 M248.7 276.95 L254.85 275.55 M242.75 227.15 L243.0 227.75 237.55 227.75 236.65 227.75 236.3 240.2 237.15 240.2 246.75 240.2 M230.25 205.4 L230.25 204.8 M220.4 217.6 L230.55 217.6 230.55 226.35 230.55 226.95 230.0 226.95 229.1 226.95 229.1 232.75 229.1 232.9 222.6 236.0 221.75 236.4 220.65 239.4 Q220.35 239.65 219.75 241.35 L210.9 248.55 210.15 249.15 201.15 249.15 200.3 249.15 202.4 236.25 192.3 232.7 M219.5 225.75 L219.5 226.35 215.6 226.35 214.65 226.35 215.05 230.6 M233.65 217.6 L237.9 217.85 237.9 222.95 241.0 222.95 242.75 227.15 M219.55 205.4 L218.65 205.4 M209.0 200.45 L209.3 200.25 211.0 199.2 210.95 199.2 M207.5 202.4 L208.15 200.85 209.0 200.45 M219.5 225.75 L219.5 217.6 219.5 212.75 M220.4 217.6 L219.5 217.6 M202.7 235.45 L202.4 236.25 M214.65 226.35 L207.7 222.8 207.1 222.5 202.7 235.45 M233.65 237.45 L233.65 234.85 229.1 232.9 M227.4 205.4 L219.55 205.4 M200.1 218.15 L199.6 218.65 207.1 222.5 M172.55 200.6 L177.85 200.6 177.85 202.5 179.85 202.5 M169.8 203.65 L169.35 203.65 166.85 206.75 M169.8 203.65 L171.85 203.65 171.8 203.05 M164.75 214.3 L174.45 219.85 175.35 219.4 178.05 217.95 M171.85 203.65 L172.55 210.7 177.65 210.7 M171.6 200.6 L172.55 200.6 M174.45 228.3 L174.45 228.9 174.45 234.3 175.4 234.3 180.0 234.3 M174.45 228.3 L174.45 219.85 M167.35 228.9 L174.45 228.9 M162.4 233.85 L163.25 233.2 164.55 232.05 166.9 228.9 166.3 224.5 161.4 222.45 M167.35 228.9 L166.9 228.9 M173.05 243.5 L172.35 244.3 173.15 245.15 Q176.85 249.3 176.9 255.2 L177.8 254.45 180.35 252.45 M174.45 234.3 L174.75 241.35 173.05 243.5 M164.3 241.05 Q168.95 241.05 172.35 244.3 M200.2 250.45 L200.15 250.7 195.05 252.75 194.1 253.1 194.15 254.1 Q194.0 255.65 194.0 257.9 L199.4 257.9 200.25 258.4 210.15 264.3 211.05 264.3 231.95 264.3 229.85 270.8 230.5 270.95 238.6 272.4 Q239.35 273.05 239.9 273.05 L241.1 275.05 M210.15 263.2 L210.15 249.15 M200.2 250.45 L200.3 249.15 M198.9 266.8 L198.85 267.4 201.65 267.4 201.65 276.1 201.65 276.75 Q201.05 277.6 202.5 279.0 L202.5 281.0 204.15 281.75 204.65 281.0 208.45 275.05 210.15 273.35 210.15 264.3 210.15 263.2 M198.9 266.8 L199.4 257.9 M198.85 267.4 L191.75 267.4 M194.1 253.1 Q193.75 251.45 191.3 251.55 M174.25 257.4 L173.5 258.0 174.25 260.6 177.85 261.45 180.9 261.45 M176.9 255.2 L174.25 257.4 M175.55 270.3 L174.55 270.7 M173.5 258.0 L169.6 258.0 M179.85 288.95 L180.3 285.45 Q181.05 283.75 182.45 282.85 182.55 281.5 181.85 281.35 L175.3 279.0 173.15 279.0 M182.25 280.6 L181.85 281.35 M182.25 280.6 L186.85 271.05 M194.45 276.7 L196.3 276.3 201.65 276.75 M192.55 279.4 Q192.55 278.1 193.65 277.2 194.0 276.9 194.45 276.7 M182.55 282.9 Q184.05 283.2 183.0 284.2 L192.1 284.2 192.0 286.55 191.95 287.1 190.0 287.15 M182.45 282.85 L182.55 282.9 M204.2 281.8 L204.15 281.75 197.4 286.65 197.4 289.65 197.4 289.8 201.8 290.15 204.2 291.75 204.2 292.9 206.4 296.05 206.45 296.15 208.7 299.4 213.0 301.6 M196.65 290.2 Q196.95 290.0 197.4 289.8 M194.25 296.15 L195.15 295.55 Q196.25 294.2 195.7 290.7 L196.65 290.2 M235.95 252.05 L235.9 252.65 242.7 260.3 M232.85 252.65 L235.9 252.65 M231.95 263.7 L231.95 252.65 232.85 252.65 M231.95 263.7 L231.95 264.3 M210.45 273.35 L214.4 273.35 214.4 279.0 219.75 279.0 M210.45 273.35 L210.15 273.35 M224.1 293.15 Q224.3 291.9 225.05 291.0 225.6 290.35 226.3 290.05 L227.7 289.75 227.7 289.3 227.7 277.3 Q226.85 276.2 224.25 276.15 L225.3 271.6 221.55 271.6 M204.2 281.8 L208.15 283.55 208.15 290.35 214.65 290.35 224.0 294.05 224.1 293.15 M228.05 276.2 L227.7 277.3 M205.35 296.7 L206.45 296.15 M203.3 298.5 L202.95 299.1 200.05 299.1 199.1 299.1 199.5 307.2 199.0 319.15 M231.45 289.75 L227.7 289.75 M228.05 276.2 L229.85 270.8 M236.3 240.2 L235.95 252.05 M200.4 307.2 L205.6 307.2 205.6 312.45 208.75 313.4 M215.5 313.6 L215.35 314.2 213.7 314.2 M217.0 310.6 L216.3 310.35 215.5 313.6 M220.1 343.25 L217.0 332.0 215.8 327.75 214.95 327.75 216.3 321.7 213.7 320.75 212.95 321.3 M217.9 331.5 L217.0 332.0 M217.0 310.6 L220.6 311.95 M224.0 294.05 L221.45 301.4 216.3 310.35 M217.9 331.5 L223.05 328.85 223.05 329.2 M212.6 321.5 L211.7 322.1 211.7 324.4 206.5 340.8 206.25 341.6 201.05 339.95 193.8 339.95 192.55 339.95 189.65 336.55 189.65 334.0 185.65 331.8 M214.2 348.4 L215.65 342.9 210.95 341.6 206.25 341.6 M220.1 343.25 L220.35 344.15 221.6 344.15 223.05 345.65 M220.35 344.15 L216.35 343.1 215.65 342.9 M200.4 307.2 L199.5 307.2 M203.3 298.5 Q203.95 297.5 205.35 296.7 M201.7 325.75 L201.15 325.75 193.15 339.0 192.55 339.95 194.1 342.6 194.1 345.7 194.1 346.15 187.1 347.25 186.2 347.4 186.2 357.4 183.15 363.9 M182.25 344.5 L184.95 346.35 184.95 347.2 186.2 347.4 M198.05 358.25 L198.05 346.15 194.1 346.15 M186.8 357.55 L193.3 358.85 194.2 358.85 198.05 358.85 198.05 360.1 200.15 360.1 Q201.3 363.05 203.25 363.65 M186.8 357.55 L186.2 357.4 M198.05 358.25 L198.05 358.85 M194.2 374.25 L196.0 373.0 196.05 373.0 201.65 373.0 M194.2 374.25 L193.3 374.85 191.95 374.85 191.4 374.85 190.25 376.75 189.75 377.55 183.65 374.65 M189.75 386.8 L189.75 386.95 189.5 387.05 188.6 387.55 188.6 388.6 192.35 395.45 193.25 394.85 M198.5 391.45 L199.2 387.35 M193.3 374.85 L193.3 374.25 193.3 358.85 M189.75 386.8 L189.75 377.55 M196.5 397.15 L201.55 393.8 203.8 393.8 203.8 393.2 203.8 383.15 200.05 382.4 M188.6 387.55 L184.25 387.55 M197.5 392.1 L198.5 391.45 M214.2 348.4 L214.05 349.0 212.45 355.1 216.0 355.1 216.9 354.9 221.2 353.85 M211.65 362.35 L210.75 362.35 210.75 368.2 209.6 375.9 209.5 376.5 207.8 376.5 207.65 376.5 204.95 378.65 204.0 382.4 203.8 383.15 M210.75 362.35 L203.85 360.1 M211.65 362.35 L216.0 362.35 216.0 361.75 216.0 355.1 M218.7 364.8 L216.0 362.35 M214.05 349.0 L205.75 349.0 M216.05 376.5 L209.5 376.5 M203.8 393.8 L211.3 393.8 M201.7 325.75 L204.5 325.65 M245.35 266.15 L240.3 267.8 M243.85 284.95 L238.8 284.95 M207.35 403.8 L206.8 403.8 206.15 404.85 Q205.45 406.85 203.8 408.15 L202.65 408.9 201.65 409.4 202.65 410.35 Q203.1 410.4 203.05 411.7 L205.55 411.7 203.7 424.85 204.6 424.7 204.95 424.6 208.1 422.9 M207.65 403.3 Q207.75 402.85 208.15 402.7 M207.35 403.8 L207.65 403.8 207.65 403.3 M206.4 435.6 L207.05 434.85 206.85 431.75 Q206.65 430.15 207.85 430.05 L208.25 430.05 M203.7 424.85 L203.7 425.9 202.15 427.15 201.4 427.75 203.5 434.0 205.65 436.35 206.4 435.6 M209.95 446.0 L209.95 444.85 204.25 437.85 205.65 436.35 M210.85 444.55 L209.95 444.85 M213.5 443.6 L210.85 444.55 M209.95 446.0 L209.95 446.1 206.2 448.1 M204.95 448.8 L204.0 449.3 M196.5 397.15 L195.6 397.75 194.45 397.3 193.25 396.25 192.35 395.45 192.35 403.2 189.7 406.6 188.8 407.75 194.25 416.35 M193.25 402.05 L194.35 400.65 195.05 400.35 197.15 399.35 210.25 399.35 M193.25 402.05 L192.35 403.2 M188.8 407.75 L188.8 406.7 185.15 406.7 M201.65 409.4 L198.25 406.15 M197.1 426.65 L199.45 426.55 Q199.0 426.7 199.3 427.75 L201.4 427.75 M188.95 435.15 L192.6 432.4 M188.85 435.2 L188.1 435.8 187.7 435.8 186.7 435.8 187.7 444.15 187.85 445.45 190.6 445.45 Q189.75 450.5 193.75 454.05 M185.95 424.2 L190.8 424.2 Q191.55 424.2 192.1 424.65 192.65 425.15 192.65 425.8 M187.8 435.2 L187.2 433.95 186.2 432.95 184.3 432.3 M188.1 435.8 L187.8 435.2 M188.85 435.2 L188.95 435.15 M184.6 447.25 L184.6 443.2 Q183.8 443.85 183.25 443.2 L181.15 441.25 M185.5 443.85 L184.6 443.2 M185.5 443.85 L187.85 445.45 M184.6 447.25 L184.6 447.75 178.65 448.3" fill="none" stroke="#ffffff" stroke-linecap="round" stroke-linejoin="round" stroke-opacity="0.2509804" stroke-width="1.0"/>
  </g>
</svg>
