<?xml version="1.0" encoding="UTF-8" standalone="no"?>
<svg xmlns:xlink="http://www.w3.org/1999/xlink" height="150.65px" width="91.5px" xmlns="http://www.w3.org/2000/svg">
  <g transform="matrix(1.0, 0.0, 0.0, 1.0, -158.25, -225.05)">
    <path d="M225.85 226.1 L244.35 226.15 Q229.9 243.65 206.25 261.15 152.55 306.25 181.65 332.35 162.6 321.2 170.75 294.55 190.0 255.0 225.85 226.1" fill="#000000" fill-opacity="0.2509804" fill-rule="evenodd" stroke="none"/>
    <path d="M225.85 226.1 L244.35 226.15 Q229.9 243.65 206.25 261.15 152.55 306.25 181.65 332.35 190.7 340.5 207.85 346.8 234.35 355.85 242.45 361.0 253.6 368.05 244.95 374.7 248.2 368.75 240.65 364.15 238.65 362.95 235.85 361.85 227.8 358.55 204.3 352.15 112.7 323.75 207.4 230.4 L212.6 226.05 225.85 226.1 Z" fill="none" stroke="#000000" stroke-linecap="round" stroke-linejoin="round" stroke-width="2.0"/>
  </g>
</svg>
