<?xml version="1.0" encoding="UTF-8" standalone="no"?>
<svg xmlns:xlink="http://www.w3.org/1999/xlink" height="35.9px" width="45.2px" xmlns="http://www.w3.org/2000/svg">
  <g transform="matrix(1.0, 0.0, 0.0, 1.0, -185.95, -85.05)">
    <path d="M189.7 113.8 Q185.35 104.4 187.85 98.25 190.3 93.6 193.95 90.5 192.4 98.35 200.5 100.5 205.3 102.25 198.0 110.5 L198.0 120.45 Q195.5 118.75 195.0 115.25 194.5 113.05 192.9 112.7 L192.05 112.6 191.25 112.75 Q190.9 112.8 190.6 113.0 L189.7 113.8" fill="#000000" fill-opacity="0.2509804" fill-rule="evenodd" stroke="none"/>
    <path d="M193.95 90.5 Q190.3 93.6 187.85 98.25 185.35 104.4 189.7 113.8 M193.95 90.5 Q196.25 88.55 199.0 87.15 209.05 84.0 216.15 89.7 220.35 93.45 227.05 97.2 233.3 102.35 227.05 111.65 L225.85 108.3" fill="none" stroke="#000000" stroke-linecap="round" stroke-linejoin="round" stroke-width="2.0"/>
    <path d="M189.7 113.8 L190.6 113.0 M195.0 115.25 Q195.5 118.75 198.0 120.45 L198.0 110.5 Q203.6 109.65 208.3 106.35 209.2 107.15 208.15 109.65 214.05 109.4 218.1 102.7 L217.1 109.15 Q219.85 107.85 222.2 103.25 224.45 105.3 225.85 108.3" fill="none" stroke="#000000" stroke-linecap="round" stroke-linejoin="round" stroke-width="1.0"/>
    <path d="M190.6 113.0 Q190.9 112.8 191.25 112.75 L192.05 112.6 192.9 112.7 Q194.5 113.05 195.0 115.25" fill="none" stroke="#000000" stroke-linecap="round" stroke-linejoin="round" stroke-width="1.0"/>
  </g>
</svg>
