<?xml version="1.0" encoding="UTF-8" standalone="no"?>
<svg xmlns:xlink="http://www.w3.org/1999/xlink" height="57.65px" width="49.15px" xmlns="http://www.w3.org/2000/svg">
  <g transform="matrix(1.0, 0.0, 0.0, 1.0, -183.45, -81.7)">
    <path d="M194.0 83.25 Q194.3 87.55 195.0 91.9 191.45 94.85 189.1 99.95 188.55 101.6 188.4 103.3 188.55 101.6 189.1 99.95 191.45 94.85 195.0 91.9 196.15 99.1 198.4 106.35 L198.4 106.6 Q195.35 109.85 195.0 115.25 194.5 113.15 193.0 112.7 L192.9 112.7 192.05 112.6 191.25 112.75 Q190.9 112.8 190.6 113.0 188.0 108.0 188.4 103.3 186.95 103.35 185.9 102.45 182.3 97.25 187.6 87.7 190.0 84.35 194.0 83.25 M227.4 106.95 L226.7 113.05 Q226.25 116.0 224.8 118.9 223.25 122.0 220.5 125.05 223.3 120.0 224.4 115.0 L224.8 112.65 223.85 102.75 227.4 106.95 M201.5 117.15 L201.5 116.9 Q201.35 114.1 201.9 111.15 203.6 117.65 207.85 124.1 203.45 121.8 201.5 117.15 M196.85 135.75 L196.85 135.8 196.8 137.25 196.75 138.35 Q193.8 136.9 192.95 135.6 189.8 138.05 186.85 137.6 192.65 133.0 192.55 124.4 L193.0 124.5 194.65 124.45 196.05 126.85 196.05 126.95 196.65 131.35 Q197.55 133.75 199.6 136.3 L196.85 135.75" fill="#000000" fill-opacity="0.2509804" fill-rule="evenodd" stroke="none"/>
    <path d="M203.55 88.15 Q206.85 85.3 203.55 83.3 197.95 82.15 194.0 83.25 190.0 84.35 187.6 87.7 182.3 97.25 185.9 102.45 186.95 103.35 188.4 103.3 188.0 108.0 190.6 113.0 M203.55 88.15 L208.85 88.0 Q216.55 87.6 220.2 93.6 L221.25 93.1 Q228.4 98.25 231.55 109.3 232.2 117.3 225.95 124.75 229.45 117.25 229.35 109.75 L227.4 106.95 226.7 113.05 Q226.25 116.0 224.8 118.9 M196.85 135.75 L196.85 135.8 M196.65 131.35 L196.05 126.95 196.05 126.85 194.65 124.45 193.0 124.5 192.55 124.4 Q192.65 133.0 186.85 137.6 189.8 138.05 192.95 135.6 193.8 136.9 196.75 138.35 L196.8 137.25" fill="none" stroke="#000000" stroke-linecap="round" stroke-linejoin="round" stroke-width="2.0"/>
    <path d="M195.0 91.9 Q198.6 88.85 203.55 88.15 M188.4 103.3 Q188.55 101.6 189.1 99.95 191.45 94.85 195.0 91.9 M198.4 106.35 L198.65 104.8 Q199.85 98.05 203.5 94.15 L210.5 97.45 M220.2 93.6 Q216.55 95.25 213.45 97.75 M201.9 111.15 Q203.0 104.95 206.9 98.05 L211.75 99.8 218.8 97.95 220.65 97.45 M224.8 118.9 Q223.25 122.0 220.5 125.05 223.3 120.0 224.4 115.0 L224.8 112.65 223.85 102.75 218.8 97.95 M223.85 102.75 L227.4 106.95 M198.4 106.35 L198.4 106.6 198.3 107.35 Q197.4 122.35 204.9 128.3 201.75 123.1 201.5 117.15 L201.5 116.9 Q201.35 114.1 201.9 111.15 203.6 117.65 207.85 124.1 203.45 121.8 201.5 117.15 M198.4 106.6 Q195.35 109.85 195.0 115.25 194.5 113.15 193.0 112.7 L192.9 112.7 192.05 112.6 191.25 112.75 Q190.9 112.8 190.6 113.0 M196.85 135.8 L196.85 135.75 199.6 136.3 Q197.55 133.75 196.65 131.35 M196.8 137.25 L196.85 135.8 M196.8 137.25 L197.9 138.85 196.75 138.35" fill="none" stroke="#000000" stroke-linecap="round" stroke-linejoin="round" stroke-width="1.0"/>
  </g>
</svg>
