<?xml version="1.0" encoding="UTF-8" standalone="no"?>
<svg xmlns:xlink="http://www.w3.org/1999/xlink" height="337.2px" width="86.1px" xmlns="http://www.w3.org/2000/svg">
  <g transform="matrix(1.0, 0.0, 0.0, 1.0, -161.55, -90.95)">
    <path d="M201.2 91.55 L213.45 91.9 Q216.4 97.3 214.8 102.65 210.0 91.75 201.2 91.55 M222.85 106.05 L224.2 99.8 Q225.15 101.8 225.6 104.25 L222.85 106.05 M196.65 139.75 L203.3 142.55 196.45 141.6 196.65 139.75 M196.8 133.65 L203.2 137.5 196.85 136.1 196.8 133.65 M196.05 126.85 L194.65 124.45 206.0 129.4 196.05 126.85 M190.15 101.75 Q190.85 99.2 192.5 97.25 198.1 100.85 200.7 106.05 195.45 102.4 190.15 101.75 M186.9 150.9 L190.2 148.75 Q193.45 153.8 201.7 158.85 190.9 155.7 186.9 150.9 M178.3 155.7 Q181.4 159.35 191.6 162.95 179.85 161.6 174.2 157.65 L178.3 155.7 M165.8 170.8 L166.0 166.35 176.0 170.8 165.8 170.8 M194.45 181.8 L194.4 181.8 191.25 189.3 187.35 185.65 187.3 185.65 192.35 178.55 192.4 178.55 Q195.7 173.05 201.6 171.85 196.9 175.6 194.45 181.8 M173.9 186.4 L165.85 186.4 165.75 183.3 173.9 186.4 M185.05 183.4 L173.05 178.0 185.7 180.1 185.05 183.4 M182.25 196.0 L170.6 191.1 183.0 192.8 182.25 196.0 M196.25 193.4 Q201.9 190.65 210.25 190.7 203.9 192.35 199.35 195.75 L196.25 193.4 M220.65 156.05 Q222.9 153.1 221.8 150.2 L224.6 151.0 Q223.9 154.05 220.65 156.05 M232.7 152.95 L237.15 153.85 Q236.8 156.95 229.4 159.35 233.15 156.15 232.7 152.95 M238.1 191.65 L244.0 190.35 243.85 193.7 237.7 192.5 238.1 191.65 M240.15 197.5 L236.25 198.75 236.35 196.45 240.15 197.5 M239.35 188.05 L238.5 190.65 234.3 189.1 239.35 188.05 M245.9 174.05 Q244.2 171.45 240.6 169.2 243.4 169.3 245.85 170.85 246.2 172.45 245.9 174.05 M161.55 225.1 Q161.95 222.9 162.6 220.85 L171.85 226.7 161.55 225.1 M243.6 220.5 L244.5 222.85 238.4 224.7 243.6 220.5 M247.65 238.6 L240.7 238.6 247.5 235.95 247.65 238.6 M243.5 260.2 L236.85 257.6 244.3 257.6 243.5 260.2 M204.5 199.3 Q209.55 196.8 215.25 196.8 210.9 197.75 208.4 201.8 L204.5 199.3 M202.95 215.35 L215.75 219.9 200.65 217.95 202.95 215.35 M242.85 205.85 L244.05 208.65 238.55 210.6 239.4 212.35 234.0 214.0 238.45 210.6 238.55 210.6 238.1 209.5 242.85 205.85 M167.35 203.15 L166.85 199.2 175.05 201.15 167.35 203.15 M180.5 220.75 L181.3 224.15 171.45 218.35 180.5 220.75 M180.8 240.0 L169.35 233.05 180.85 236.05 180.8 240.0 M165.3 240.95 L174.1 244.1 166.2 244.1 165.3 240.95 M192.2 239.0 L212.8 245.2 192.15 245.2 192.2 239.0 M195.3 226.4 L208.5 229.7 194.0 229.7 195.3 226.4 M192.3 258.65 L209.65 262.8 192.45 262.8 192.3 258.65 M174.7 253.0 L181.2 253.0 181.45 256.4 174.7 253.0 M225.85 254.05 L224.95 259.15 205.9 251.75 225.85 254.05 M195.85 282.4 L195.8 282.4 196.5 279.05 207.2 281.05 195.85 282.4 M172.4 262.45 L171.4 259.85 177.9 262.45 172.4 262.45 M226.55 249.85 L239.5 247.15 225.9 253.75 226.55 249.85 M223.25 267.5 L224.15 263.15 234.35 265.1 223.25 267.5 M216.25 293.8 L215.2 297.1 203.45 293.8 216.25 293.8 M219.0 284.5 L226.4 286.45 217.95 288.2 219.0 284.5 M221.45 275.2 L220.35 279.4 207.25 272.15 221.45 275.2 M228.85 296.8 L221.75 294.85 230.7 292.9 228.85 296.8 M210.6 310.3 L209.65 312.8 200.85 311.95 210.6 310.3 M213.75 301.45 L219.6 302.9 212.7 304.5 213.75 301.45 M237.4 277.25 L236.65 279.05 227.45 276.05 238.75 273.65 237.4 277.25 M216.35 309.95 L223.4 307.75 221.5 311.35 216.35 309.95 M207.15 343.4 L207.15 345.4 206.8 347.5 192.35 345.55 207.15 343.4 M207.2 337.85 L215.7 339.15 207.15 340.9 207.2 337.85 M207.25 329.0 L207.2 332.3 196.8 330.9 207.25 329.0 M207.25 323.65 L217.05 325.65 207.25 327.15 207.25 323.65 M223.95 345.05 L223.6 346.6 211.9 344.55 224.15 342.45 223.95 345.05 M224.3 334.15 L215.0 332.6 224.1 330.15 224.3 334.15 M184.9 335.05 L196.85 337.65 183.0 340.7 Q183.75 337.85 184.9 335.05 M201.5 323.55 L192.35 321.75 194.1 319.55 201.5 323.55 M195.8 300.8 L205.65 304.3 196.3 304.3 195.8 300.8 M183.85 358.55 L183.65 354.8 194.95 356.45 183.85 358.55 M201.55 378.25 L209.2 380.7 200.8 382.45 201.55 378.25 M184.75 377.95 L193.35 379.5 184.9 381.4 184.75 377.95 M185.45 393.5 L194.2 395.25 185.5 395.25 185.45 393.5 M199.9 387.75 L199.35 391.05 191.75 389.55 199.9 387.75 M211.85 394.75 L201.85 393.15 212.8 390.65 211.85 394.75 M209.05 371.95 L218.45 369.45 217.6 373.25 209.05 371.95 M205.3 356.3 L214.7 357.9 204.75 359.4 205.3 356.3 M203.65 365.7 L203.05 369.25 193.05 367.25 203.65 365.7 M209.55 410.9 L209.35 413.45 203.2 413.45 209.55 410.9 M198.75 401.55 L204.3 403.7 199.0 403.7 198.75 401.55 M197.4 402.4 L192.2 402.4 197.75 400.4 197.4 402.4 M192.05 407.95 L186.1 407.95 185.95 404.85 192.05 407.95 M194.5 419.4 L189.15 417.15 195.2 415.45 194.5 419.4 M190.35 428.15 L187.0 426.7 186.85 424.15 190.35 428.15 M198.7 421.4 L203.65 425.55 198.0 426.05 198.7 421.4" fill="#000000" fill-rule="evenodd" stroke="none"/>
  </g>
</svg>
