<?xml version="1.0" encoding="UTF-8" standalone="no"?>
<svg xmlns:xlink="http://www.w3.org/1999/xlink" height="89.95px" width="86.1px" xmlns="http://www.w3.org/2000/svg">
  <g transform="matrix(1.0, 0.0, 0.0, 1.0, -161.55, -144.2)">
    <path d="M213.55 148.95 L213.4 147.05 Q223.1 151.5 240.45 154.45 242.2 158.9 243.15 165.1 245.2 167.45 245.8 170.45 246.35 172.85 245.65 175.15 L244.2 178.0 Q244.45 189.85 242.85 205.85 L247.65 217.35 245.9 227.15 Q243.85 219.75 239.4 212.35 235.8 218.1 206.35 212.0 209.8 206.9 208.4 201.8 194.55 193.3 185.05 183.4 181.85 199.0 177.25 214.65 180.7 219.4 181.3 224.15 L180.9 231.8 Q172.75 236.55 163.0 231.7 162.2 228.4 161.55 225.1 163.15 216.45 168.3 209.75 164.25 185.0 166.4 161.0 185.85 153.1 196.05 144.2 209.0 154.1 213.55 148.95" fill="#000000" fill-rule="evenodd" stroke="none"/>
  </g>
</svg>
