<?xml version="1.0" encoding="UTF-8" standalone="no"?>
<svg xmlns:xlink="http://www.w3.org/1999/xlink" height="89.95px" width="69.45px" xmlns="http://www.w3.org/2000/svg">
  <g transform="matrix(1.0, 0.0, 0.0, 1.0, -161.55, -144.2)">
    <path d="M209.2 150.7 Q211.0 154.8 220.0 162.0 229.55 170.95 230.5 179.8 231.25 186.75 229.7 193.65 L229.55 205.85 Q229.6 210.5 231.0 215.15 222.6 215.35 206.35 212.0 209.8 206.9 208.4 201.8 194.55 193.3 185.05 183.4 181.85 199.0 177.25 214.65 180.7 219.4 181.3 224.15 L180.9 231.8 Q172.75 236.55 163.0 231.7 162.2 228.4 161.55 225.1 163.15 216.45 168.3 209.75 164.25 185.0 166.4 161.0 185.85 153.1 196.05 144.2 204.35 150.55 209.2 150.7" fill="#000000" fill-rule="evenodd" stroke="none"/>
  </g>
</svg>
