<?xml version="1.0" encoding="UTF-8" standalone="no"?>
<svg xmlns:xlink="http://www.w3.org/1999/xlink" height="64.65px" width="62.25px" xmlns="http://www.w3.org/2000/svg">
  <g transform="matrix(1.0, 0.0, 0.0, 1.0, -184.8, -148.35)">
    <path d="M185.8 151.55 L189.3 149.35 M219.25 149.35 L225.25 151.2 M243.15 165.1 Q245.2 167.45 245.8 170.45 246.35 172.85 245.65 175.15 L244.2 178.0 M190.8 188.9 Q198.45 195.7 208.4 201.8 209.8 206.9 206.35 212.0" fill="none" stroke="#000000" stroke-linecap="round" stroke-linejoin="round" stroke-width="2.0"/>
    <path d="M222.25 180.35 Q215.6 191.0 201.2 186.55 196.15 184.4 193.55 180.65 M236.5 160.55 L238.45 161.45 Q241.35 163.0 243.15 165.1 M244.2 178.0 Q242.8 180.05 240.3 182.0 240.2 184.3 239.7 186.6 238.75 190.8 236.5 195.05 235.45 205.15 239.4 212.35" fill="none" stroke="#000000" stroke-linecap="round" stroke-linejoin="round" stroke-width="1.0"/>
    <path d="M190.8 188.9 L193.55 180.65 Q199.15 160.05 185.8 151.55" fill="none" stroke="#000000" stroke-linecap="round" stroke-linejoin="round" stroke-width="1.0"/>
    <path d="M225.25 151.2 Q229.7 157.3 236.5 160.55" fill="none" stroke="#000000" stroke-linecap="round" stroke-linejoin="round" stroke-width="1.0"/>
    <path d="M189.3 149.35 Q199.05 157.5 215.65 157.15 225.15 156.1 219.25 149.35" fill="none" stroke="#000000" stroke-linecap="round" stroke-linejoin="round" stroke-width="1.0"/>
  </g>
</svg>
