<?xml version="1.0" encoding="UTF-8" standalone="no"?>
<svg xmlns:xlink="http://www.w3.org/1999/xlink" height="120.55px" width="39.95px" xmlns="http://www.w3.org/2000/svg">
  <g transform="matrix(1.0, 0.0, 0.0, 1.0, -208.7, -146.05)">
    <path d="M244.2 178.0 L245.65 175.15 Q246.35 172.85 245.8 170.45 245.2 167.45 243.15 165.1 242.2 158.9 240.45 154.45 223.1 151.5 213.4 147.05 M244.2 178.0 Q244.45 189.85 242.85 205.85 L247.65 217.35 245.9 227.15 Q248.25 235.7 247.4 244.3 L246.5 249.85 246.25 265.55 246.3 265.55" fill="none" stroke="#000000" stroke-linecap="round" stroke-linejoin="round" stroke-width="2.0"/>
    <path d="M245.9 227.15 Q243.85 219.75 239.4 212.35 235.45 205.15 236.5 195.05 240.0 188.5 240.3 182.0 242.8 180.05 244.2 178.0 M243.15 165.1 Q240.8 162.4 236.5 160.55 M213.55 148.95 L213.4 147.05 M246.3 265.55 L241.55 266.1 Q244.15 258.55 246.2 251.15 L246.5 249.85" fill="none" stroke="#000000" stroke-linecap="round" stroke-linejoin="round" stroke-width="1.0"/>
    <path d="M209.2 150.7 Q211.9 150.8 213.55 148.95" fill="none" stroke="#000000" stroke-linecap="round" stroke-linejoin="round" stroke-width="1.0"/>
    <path d="M209.2 150.7 Q211.0 154.8 220.0 162.0 229.55 170.95 230.5 179.8 231.25 186.75 229.7 193.65 L229.55 205.85 Q229.6 210.5 231.0 215.15" fill="none" stroke="#000000" stroke-linecap="round" stroke-linejoin="round" stroke-width="1.0"/>
  </g>
</svg>
