<?xml version="1.0" encoding="UTF-8" standalone="no"?>
<svg xmlns:xlink="http://www.w3.org/1999/xlink" height="70.25px" width="81.65px" xmlns="http://www.w3.org/2000/svg">
  <g transform="matrix(1.0, 0.0, 0.0, 1.0, -165.4, -143.2)">
    <path d="M166.4 161.0 L175.25 157.15 183.0 153.2 Q190.75 148.85 196.05 144.2 M213.4 147.05 Q223.1 151.5 240.45 154.45 L240.45 154.5 M243.15 165.1 Q245.2 167.45 245.8 170.45 246.35 172.85 245.65 175.15 L244.2 178.0" fill="none" stroke="#000000" stroke-linecap="round" stroke-linejoin="round" stroke-width="2.0"/>
    <path d="M211.15 212.95 Q214.15 196.75 205.6 187.6 L205.55 187.55 Q205.15 179.8 202.05 174.3 192.85 167.6 181.65 166.55 M222.25 180.35 Q216.65 189.3 205.6 187.6 M243.15 165.1 Q241.35 163.0 238.45 161.45 L236.5 160.55 M244.2 178.0 Q242.8 180.05 240.3 182.0 240.0 188.5 236.5 195.05 235.45 205.15 239.4 212.35 M213.4 147.05 L213.55 148.95" fill="none" stroke="#000000" stroke-linecap="round" stroke-linejoin="round" stroke-width="1.0"/>
    <path d="M181.65 166.55 Q175.8 162.15 166.4 161.0 M240.45 154.5 L238.45 161.45" fill="none" stroke="#000000" stroke-linecap="round" stroke-linejoin="round" stroke-width="1.0"/>
    <path d="M196.05 144.2 Q209.0 154.1 213.55 148.95" fill="none" stroke="#000000" stroke-linecap="round" stroke-linejoin="round" stroke-width="1.0"/>
  </g>
</svg>
