<?xml version="1.0" encoding="UTF-8" standalone="no"?>
<svg xmlns:xlink="http://www.w3.org/1999/xlink" height="69.8px" width="79.55px" xmlns="http://www.w3.org/2000/svg">
  <g transform="matrix(1.0, 0.0, 0.0, 1.0, -164.65, -143.2)">
    <path d="M165.65 177.65 Q165.65 169.3 166.4 161.0 185.85 153.1 196.05 144.2 M200.65 196.7 Q204.35 199.3 208.4 201.8 209.8 206.9 206.35 212.0 M243.2 165.1 L243.15 165.1 Q242.2 158.9 240.45 154.45 223.1 151.5 213.4 147.05" fill="none" stroke="#000000" stroke-linecap="round" stroke-linejoin="round" stroke-width="2.0"/>
    <path d="M222.25 180.35 Q216.15 190.1 203.5 187.2 M239.4 212.35 Q235.45 205.15 236.5 195.05 240.0 188.5 240.3 182.0 M243.15 165.1 Q240.8 162.4 236.5 160.55 M213.4 147.05 L213.55 148.95" fill="none" stroke="#000000" stroke-linecap="round" stroke-linejoin="round" stroke-width="1.0"/>
    <path d="M169.5 180.45 L165.65 177.65 M203.5 187.2 Q202.95 191.55 200.65 196.7 M240.3 182.0 Q245.45 172.6 237.95 163.7 L243.2 165.1" fill="none" stroke="#000000" stroke-linecap="round" stroke-linejoin="round" stroke-width="1.0"/>
    <path d="M194.0 165.5 L190.0 166.95 Q176.65 172.2 169.5 180.45" fill="none" stroke="#000000" stroke-linecap="round" stroke-linejoin="round" stroke-width="1.0"/>
    <path d="M196.05 144.2 Q209.0 154.1 213.55 148.95" fill="none" stroke="#000000" stroke-linecap="round" stroke-linejoin="round" stroke-width="1.0"/>
    <path d="M194.0 165.5 Q204.35 175.25 203.5 187.2" fill="none" stroke="#000000" stroke-linecap="round" stroke-linejoin="round" stroke-width="1.0"/>
  </g>
</svg>
