<?xml version="1.0" encoding="UTF-8" standalone="no"?>
<svg xmlns:xlink="http://www.w3.org/1999/xlink" height="48.3px" width="76.05px" xmlns="http://www.w3.org/2000/svg">
  <g transform="matrix(1.0, 0.0, 0.0, 1.0, -165.4, -125.85)">
    <path d="M213.55 137.75 Q213.35 139.5 213.3 141.35 213.2 144.15 213.4 147.05 223.1 151.5 240.45 154.45 L240.45 154.5 M166.4 161.0 Q185.85 153.1 196.05 144.2 197.65 135.3 196.05 126.85" fill="none" stroke="#000000" stroke-linecap="round" stroke-linejoin="round" stroke-width="2.0"/>
    <path d="M196.05 126.85 L197.4 129.2 Q202.6 134.05 208.85 136.4 L213.55 137.75 M237.4 160.95 L236.5 160.55 M213.4 147.05 L213.55 148.95" fill="none" stroke="#000000" stroke-linecap="round" stroke-linejoin="round" stroke-width="1.0"/>
    <path d="M240.45 154.5 L237.4 160.95 Q234.0 167.1 228.8 173.6 L228.75 173.65 Q197.3 160.5 166.4 161.0" fill="none" stroke="#000000" stroke-linecap="round" stroke-linejoin="round" stroke-width="1.0"/>
  </g>
</svg>
