<?xml version="1.0" encoding="UTF-8" standalone="no"?>
<svg xmlns:xlink="http://www.w3.org/1999/xlink" height="212.7px" width="45.15px" xmlns="http://www.w3.org/2000/svg">
  <g transform="matrix(1.0, 0.0, 0.0, 1.0, -179.55, -250.95)">
    <path d="M194.2 287.15 L195.6 287.45 Q196.8 287.55 197.7 286.75 L198.3 286.05 195.8 282.4 197.2 275.7 193.05 273.6 Q192.3 262.25 192.15 251.15 208.45 249.65 224.7 260.4 219.6 286.6 209.65 312.8 L209.2 319.1 207.25 322.15 207.15 345.4 193.2 427.1 194.65 453.45 185.65 463.65 Q180.1 455.65 179.55 447.7 L187.0 426.7 183.0 340.7 Q186.65 327.2 197.9 315.1 195.6 300.95 194.2 287.15" fill="#000000" fill-rule="evenodd" stroke="none"/>
  </g>
</svg>
