<?xml version="1.0" encoding="UTF-8" standalone="no"?>
<svg xmlns:xlink="http://www.w3.org/1999/xlink" height="15.85px" width="21.2px" xmlns="http://www.w3.org/2000/svg">
  <g transform="matrix(1.0, 0.0, 0.0, 1.0, -183.05, -362.15)">
    <path d="M184.65 376.0 L184.35 370.0 184.05 363.3" fill="none" stroke="#000000" stroke-linecap="round" stroke-linejoin="round" stroke-width="2.0"/>
    <path d="M191.3 364.85 Q191.8 365.35 191.8 366.05 191.8 366.75 191.3 367.25 190.8 367.75 190.1 367.75 189.4 367.75 188.9 367.25 188.4 366.75 188.4 366.05 188.4 365.35 188.9 364.85 189.4 364.35 190.1 364.35 190.8 364.35 191.3 364.85 M188.45 369.45 L188.15 369.15 188.2 369.5 188.45 369.45 Q196.5 368.85 202.65 371.8 L203.75 365.15 Q196.0 362.15 188.25 362.75 185.25 365.75 188.15 369.15 M184.05 363.3 L188.25 362.75 M184.35 370.0 L188.2 369.5 Q185.7 372.75 188.7 375.7 196.05 375.35 201.65 377.5 L202.65 371.8 M188.7 375.7 L184.65 376.0 M191.65 373.75 Q191.15 374.25 190.45 374.25 189.75 374.25 189.25 373.75 188.75 373.25 188.75 372.55 188.75 371.85 189.25 371.35 189.75 370.85 190.45 370.85 191.15 370.85 191.65 371.35 192.15 371.85 192.15 372.55 192.15 373.25 191.65 373.75 Z" fill="none" stroke="#000000" stroke-linecap="round" stroke-linejoin="round" stroke-width="1.0"/>
  </g>
</svg>
