<?xml version="1.0" encoding="UTF-8" standalone="no"?>
<svg xmlns:xlink="http://www.w3.org/1999/xlink" height="118.8px" width="43.65px" xmlns="http://www.w3.org/2000/svg">
  <g transform="matrix(1.0, 0.0, 0.0, 1.0, -179.55, -344.85)">
    <path d="M194.4 344.85 L196.8 348.9 200.15 353.8 202.25 356.35 202.65 356.85 207.1 354.65 209.8 353.15 Q215.15 349.8 217.2 346.3 L219.3 349.05 219.35 349.15 219.6 349.45 Q221.0 351.65 221.9 354.1 222.85 356.7 223.2 359.55 L220.0 362.4 218.5 369.15 Q219.5 372.5 217.0 375.9 L216.95 375.9 216.5 377.95 215.0 382.5 Q215.8 385.4 213.2 388.9 L211.7 395.6 Q212.65 399.0 210.5 402.45 210.0 406.05 209.65 409.7 211.0 413.05 209.2 416.45 L209.0 424.25 Q210.65 427.45 209.2 430.7 L223.1 456.5 Q217.55 456.15 212.0 453.35 208.45 451.5 204.9 448.7 L204.7 445.95 Q204.05 441.55 201.25 437.5 L201.2 437.5 195.7 434.8 Q196.35 430.4 198.0 426.05 L197.85 424.85 Q197.55 423.65 198.6 421.95 L199.15 416.45 Q197.7 413.65 199.3 410.85 L199.0 403.95 198.5 399.65 Q198.45 401.8 197.15 403.95 L196.0 410.8 Q197.15 413.95 194.95 417.05 L194.1 422.05 Q195.4 424.6 193.2 427.1 L194.65 453.45 185.65 463.65 Q182.1 458.55 180.6 453.45 179.75 450.55 179.55 447.7 L187.0 426.7 Q185.8 424.35 186.75 422.05 L186.55 417.05 Q184.3 413.95 186.25 410.85 L185.95 403.95 Q184.2 400.8 185.65 397.65 L185.3 390.55 Q183.55 387.2 185.0 383.85 L185.0 383.8 184.7 377.1 Q182.3 373.65 184.4 370.25 L184.05 363.3 Q180.75 361.2 180.15 358.45 181.8 356.0 183.65 353.9 185.35 351.85 187.15 350.15 L190.2 347.6 191.9 346.35 194.4 344.85 M203.75 365.15 L203.8 365.15 203.75 365.15 M189.95 426.9 L189.9 426.9 189.9 427.1 189.95 426.9" fill="#000000" fill-rule="evenodd" stroke="none"/>
  </g>
</svg>
