<?xml version="1.0" encoding="UTF-8" standalone="no"?>
<svg xmlns:xlink="http://www.w3.org/1999/xlink" height="20.15px" width="30.25px" xmlns="http://www.w3.org/2000/svg">
  <g transform="matrix(1.0, 0.0, 0.0, 1.0, -182.25, -410.0)">
    <path d="M209.4 413.15 Q211.35 413.55 212.5 414.95 211.35 421.7 211.1 428.4 L209.15 429.75 Q205.75 431.05 200.1 428.35 L197.65 427.05 196.3 426.25 193.25 428.2 Q191.05 429.15 188.85 428.75 L186.55 428.0 Q185.05 427.25 183.55 425.9 L182.25 413.0 Q182.9 410.3 186.2 410.0 L186.4 414.3 189.8 414.85 195.35 414.7 195.95 411.05 197.35 411.6 Q198.35 411.25 199.3 411.6 L199.3 413.1 201.45 414.1 Q205.35 415.55 209.25 415.4 L209.3 414.15 209.35 413.75 209.4 413.15" fill="#000000" fill-rule="evenodd" stroke="none"/>
  </g>
</svg>
