<?xml version="1.0" encoding="UTF-8" standalone="no"?>
<svg xmlns:xlink="http://www.w3.org/1999/xlink" height="29.75px" width="50.2px" xmlns="http://www.w3.org/2000/svg">
  <g transform="matrix(1.0, 0.0, 0.0, 1.0, -175.65, -360.75)">
    <path d="M202.25 362.9 L202.3 362.9 208.45 361.55 210.3 361.25 210.4 361.25 Q216.4 360.35 220.3 361.05 L222.8 361.75 Q224.25 362.25 224.45 363.8 226.35 370.45 225.7 378.6 L224.1 375.95 224.05 375.95 Q223.7 381.2 222.6 385.75 L221.55 389.3 Q221.85 387.6 221.75 385.9 L221.2 382.7 220.35 386.2 218.45 390.0 218.8 386.45 Q218.95 384.0 218.75 381.6 L218.3 383.25 217.7 384.7 216.55 386.7 214.3 389.55 214.3 386.9 214.05 385.85 Q213.55 384.5 212.45 384.1 211.55 385.45 211.1 386.95 210.7 388.25 210.65 389.65 L210.4 389.2 209.2 387.0 Q207.65 383.65 207.8 380.55 L207.8 380.35 207.5 382.35 207.4 383.35 Q207.15 386.2 207.5 389.2 L206.4 386.65 Q205.6 384.55 205.15 382.35 L204.35 384.05 204.05 385.65 204.0 386.25 204.15 387.75 203.65 387.4 203.1 386.75 203.05 386.7 202.6 385.95 Q202.1 384.9 201.85 383.35 L201.45 386.55 199.95 382.4 Q200.1 383.9 199.85 385.45 L199.35 387.2 199.3 387.45 198.9 388.35 198.65 388.8 196.75 381.3 Q197.15 384.7 196.0 388.0 L195.1 390.25 194.8 388.25 Q194.05 384.6 191.55 380.75 190.45 384.3 190.8 388.7 L191.0 390.5 190.25 389.6 189.65 388.8 189.5 388.6 188.65 387.4 Q186.9 384.8 185.95 382.4 L185.9 382.35 185.85 382.25 185.8 382.4 Q185.2 385.5 185.95 388.65 L185.2 388.0 185.2 387.95 184.65 387.4 Q183.25 385.9 182.6 384.1 182.15 383.0 182.0 381.85 180.6 384.6 180.55 387.6 178.35 381.5 178.05 375.35 176.45 376.7 175.65 379.1 175.85 372.0 178.65 365.95 179.4 364.55 180.75 364.15 L184.05 362.9 185.35 362.5 187.95 361.9 Q195.1 360.6 202.25 362.9" fill="#000000" fill-rule="evenodd" stroke="none"/>
  </g>
</svg>
