<?xml version="1.0" encoding="UTF-8" standalone="no"?>
<svg xmlns:xlink="http://www.w3.org/1999/xlink" height="105.8px" width="28.3px" xmlns="http://www.w3.org/2000/svg">
  <g transform="matrix(1.0, 0.0, 0.0, 1.0, -175.95, -362.1)">
    <path d="M184.05 363.3 L184.3 368.3 184.6 374.6 M185.9 403.4 L185.5 395.0 185.3 390.4 M198.25 397.65 L197.15 403.95 M195.7 412.35 L194.75 417.95 M186.6 418.55 L186.4 414.65 M193.2 427.1 L194.05 422.05 M186.75 421.5 L187.0 426.7 186.9 426.95 187.0 426.7 M193.2 427.1 L196.95 454.65 Q192.75 460.1 185.4 466.9 177.85 458.2 176.95 448.45 L186.9 426.95 182.45 439.55 179.55 447.7 179.7 449.3 Q180.65 456.45 185.65 463.65 L194.65 453.45 194.0 441.0 193.2 427.1" fill="none" stroke="#000000" stroke-linecap="round" stroke-linejoin="round" stroke-width="2.0"/>
    <path d="M184.3 368.3 L189.3 368.05 Q196.6 367.95 202.95 369.9 L203.75 365.15 Q196.5 362.3 189.25 362.65 L184.05 363.3 M184.6 374.6 L190.8 384.05 192.9 381.6 184.3 368.3 M185.3 390.4 L190.8 384.05 M185.5 395.0 L192.65 386.85 194.75 384.4 201.9 376.25 202.95 369.9 192.9 381.6 M194.75 384.4 L199.3 391.45 198.55 395.85 198.5 395.9 198.25 397.65 M197.15 403.95 L193.65 408.85 195.7 412.35 M194.75 417.95 L191.25 412.15 186.6 418.55 M186.4 414.65 L189.7 409.65 185.9 403.4 M185.5 395.0 L192.0 406.05 198.5 395.9 198.55 395.85 192.65 386.85 M193.65 408.85 L191.25 412.15 M192.0 406.05 L189.7 409.65 M194.05 422.05 L186.75 421.5 M187.0 426.7 L193.2 427.1 M182.45 439.55 Q184.6 438.75 186.6 438.65 190.5 438.5 194.0 441.0 M179.7 449.3 L183.95 449.0 Q189.95 449.2 194.65 453.45" fill="none" stroke="#000000" stroke-linecap="round" stroke-linejoin="round" stroke-width="1.0"/>
  </g>
</svg>
