<?xml version="1.0" encoding="UTF-8" standalone="no"?>
<svg xmlns:xlink="http://www.w3.org/1999/xlink" height="31.95px" width="48.5px" xmlns="http://www.w3.org/2000/svg">
  <g transform="matrix(1.0, 0.0, 0.0, 1.0, -196.9, -212.0)">
    <path d="M228.9 224.45 L225.35 224.55 228.15 226.7 227.2 230.1 230.1 228.1 233.05 230.1 232.0 226.7 234.8 224.5 231.25 224.45 230.05 221.1 228.9 224.45 M215.75 214.75 L214.6 218.1 211.05 218.2 213.85 220.35 212.9 223.75 215.8 221.75 218.75 223.75 217.7 220.35 220.5 218.15 216.95 218.1 215.75 214.75 M239.4 212.35 L242.35 217.85 240.95 217.8 239.75 214.45 238.6 217.8 235.05 217.9 237.85 220.05 236.9 223.45 239.8 221.45 242.75 223.45 241.7 220.05 242.95 219.1 Q244.35 222.2 245.4 225.35 L237.55 233.85 227.4 243.95 Q224.95 236.2 215.95 230.0 211.25 226.7 206.55 225.05 201.7 223.35 196.9 223.4 200.35 217.45 206.35 212.0 L212.25 213.15 Q236.15 217.5 239.4 212.35" fill="#000000" fill-rule="evenodd" stroke="none"/>
  </g>
</svg>
