<?xml version="1.0" encoding="UTF-8" standalone="no"?>
<svg xmlns:xlink="http://www.w3.org/1999/xlink" height="96.9px" width="36.75px" xmlns="http://www.w3.org/2000/svg">
  <g transform="matrix(1.0, 0.0, 0.0, 1.0, -161.55, -198.6)">
    <path d="M180.35 203.5 L177.25 214.65 Q180.7 219.4 181.3 224.15 179.9 245.6 182.5 267.35 L197.2 275.7 195.8 282.4 198.3 286.05 197.7 286.75 Q196.8 287.55 195.6 287.45 L194.2 287.15 192.85 286.5 192.8 286.5 192.8 287.15 Q192.65 290.85 192.8 294.55 L188.4 295.5 187.85 293.9 Q184.75 295.2 182.8 292.55 L172.95 286.05 Q173.85 278.75 175.45 270.1 166.15 248.0 161.55 225.1 163.15 216.45 168.3 209.75 167.4 204.15 166.8 198.6 174.05 204.9 180.35 203.5 M186.15 289.7 L186.2 289.65 186.15 289.65 186.15 289.7" fill="#000000" fill-rule="evenodd" stroke="none"/>
  </g>
</svg>
