<?xml version="1.0" encoding="UTF-8" standalone="no"?>
<svg xmlns:xlink="http://www.w3.org/1999/xlink" height="65.8px" width="94.75px" xmlns="http://www.w3.org/2000/svg">
  <g transform="matrix(1.0, 0.0, 0.0, 1.0, -162.0, -230.7)">
    <path d="M246.5 249.85 L246.25 265.55 255.75 274.95 Q252.9 278.6 252.0 284.35 L250.05 284.35 250.15 287.15 Q249.65 289.95 246.8 289.7 245.1 289.4 244.55 288.3 242.15 289.45 240.7 288.6 239.65 287.95 239.15 286.3 237.45 286.85 236.4 286.3 235.45 285.75 234.95 284.35 L234.5 284.3 M180.9 231.8 L180.8 239.6 M181.0 249.4 L181.7 259.65 M182.5 267.35 L193.05 273.6 M194.2 287.15 L192.8 287.15 Q192.65 290.85 192.8 294.55 L188.4 295.5 187.85 293.9 Q184.75 295.2 182.8 292.55 L172.95 286.05 Q173.85 278.75 175.45 270.1 167.5 251.2 163.0 231.7" fill="none" stroke="#000000" stroke-linecap="round" stroke-linejoin="round" stroke-width="2.0"/>
    <path d="M234.5 284.3 L237.4 277.25 Q242.6 264.0 246.2 251.15 L246.5 249.85 M247.35 273.25 L243.7 273.4 Q240.75 274.35 240.4 278.35 L240.4 278.55 241.15 279.4 Q243.4 278.45 244.65 280.6 L248.25 280.3 248.7 276.55 M250.05 284.35 L244.75 284.35 Q243.85 286.95 244.55 288.3 M163.0 231.7 Q172.75 236.55 180.9 231.8 M180.8 239.6 Q176.95 242.2 173.1 242.8 L175.2 251.9 Q178.1 251.2 181.0 249.4 M181.7 259.65 Q179.45 261.05 177.35 261.45 L179.15 269.35 179.45 270.2 Q181.05 269.45 182.5 267.35 M193.05 273.6 L197.2 275.7 195.8 282.4 198.3 286.05 197.7 286.75 Q196.8 287.55 195.6 287.45 L194.2 287.15 192.85 286.5 192.8 286.5 192.8 287.15 M172.95 286.05 L180.75 288.35 Q182.5 289.35 184.1 289.65 L186.15 289.65 186.2 289.65 Q187.5 289.4 188.7 288.6 L189.05 288.4 189.15 288.3 189.25 288.2 190.9 286.55 M187.85 293.9 L186.15 289.65 M192.85 286.5 Q193.0 282.65 193.45 278.8 M180.75 288.35 L182.8 292.55 M234.95 284.35 L237.9 277.9 237.4 277.25 M240.4 278.55 L239.6 278.05 237.9 277.9 M244.75 284.35 L243.0 284.35 242.95 283.1 Q243.05 281.3 244.65 280.6 M241.15 279.4 L239.15 286.3" fill="none" stroke="#000000" stroke-linecap="round" stroke-linejoin="round" stroke-width="1.0"/>
  </g>
</svg>
