<?xml version="1.0" encoding="UTF-8" standalone="no"?>
<svg xmlns:xlink="http://www.w3.org/1999/xlink" height="20.15px" width="84.95px" xmlns="http://www.w3.org/2000/svg">
  <g transform="matrix(1.0, 0.0, 0.0, 1.0, -165.5, -250.85)">
    <path d="M245.65 253.15 L250.45 252.45 248.7 257.25 248.4 258.25 247.4 261.85 246.3 265.65 243.55 266.0 241.55 266.1 245.65 253.15 M183.75 265.4 L184.35 267.85 Q182.05 269.9 179.45 270.65 L178.75 270.85 177.95 270.95 177.2 271.0 175.05 270.95 170.4 265.4 168.35 262.65 168.35 262.6 165.5 258.25 Q166.4 253.35 168.6 251.75 169.25 251.2 170.1 251.0 172.8 250.3 177.0 253.15 179.15 254.2 181.3 254.55 L182.25 254.7 182.65 258.85 183.2 262.65 183.75 265.4" fill="#000000" fill-rule="evenodd" stroke="none"/>
  </g>
</svg>
