<?xml version="1.0" encoding="UTF-8" standalone="no"?>
<svg xmlns:xlink="http://www.w3.org/1999/xlink" height="14.8px" width="84.7px" xmlns="http://www.w3.org/2000/svg">
  <g transform="matrix(1.0, 0.0, 0.0, 1.0, -162.55, -189.35)">
    <path d="M244.6 192.55 Q246.65 193.2 247.15 195.65 246.5 197.3 246.85 198.9 248.0 200.55 245.7 202.2 L243.25 202.45 243.15 202.45 236.4 202.15 Q236.1 198.8 236.5 195.05 L243.85 193.6 244.6 192.55 M165.3 189.35 L166.05 189.9 Q172.0 194.2 182.65 193.85 L182.75 193.85 Q184.25 193.9 184.5 195.45 184.8 197.15 182.95 198.85 183.4 203.8 180.75 204.15 L180.2 204.15 179.1 204.1 Q172.95 203.8 167.15 201.6 L166.7 201.4 164.95 200.65 Q162.4 199.0 163.6 196.45 L163.8 195.05 Q162.15 193.35 162.65 191.65 163.1 189.45 165.3 189.35" fill="#000000" fill-rule="evenodd" stroke="none"/>
  </g>
</svg>
