<?xml version="1.0" encoding="UTF-8" standalone="no"?>
<svg xmlns:xlink="http://www.w3.org/1999/xlink" height="78.1px" width="86.25px" xmlns="http://www.w3.org/2000/svg">
  <g transform="matrix(1.0, 0.0, 0.0, 1.0, -156.3, -80.95)">
    <path d="M166.75 89.0 Q163.5 95.05 179.3 93.45 L183.9 91.45 Q178.75 91.2 176.0 89.3 182.25 90.75 185.8 89.3 190.2 87.15 196.5 86.6 178.8 87.7 179.85 81.2 180.9 86.0 195.85 83.9 205.85 82.45 213.75 89.5 213.05 83.15 203.65 81.1 217.85 79.6 220.1 91.95 223.85 86.7 218.55 81.7 227.5 85.75 226.8 94.75 229.9 90.2 228.55 85.0 235.45 92.45 227.3 98.55 235.7 95.4 239.7 91.65 236.75 96.25 228.65 99.7 237.25 98.7 242.55 103.35 236.55 101.0 230.35 100.9 242.2 104.45 239.75 115.0 238.6 109.2 232.95 106.75 237.15 112.7 231.5 124.55 233.05 119.9 232.9 115.7 232.35 120.2 227.6 127.4 L224.85 130.65 Q221.0 137.35 221.55 150.1 216.95 148.65 213.4 147.05 213.2 144.15 213.3 141.35 213.35 139.5 213.55 137.75 L215.95 138.15 220.65 130.1 Q226.5 119.95 224.2 114.45 L225.9 109.25 Q226.0 105.95 225.4 103.25 224.3 102.05 222.5 101.15 224.85 105.55 218.55 111.45 223.85 102.6 220.0 100.5 218.0 99.5 216.45 102.15 214.95 98.65 212.4 99.6 209.45 100.55 206.4 110.2 206.95 103.95 209.55 101.0 207.2 102.6 205.7 104.95 201.95 109.9 197.15 113.5 198.85 110.5 199.8 107.35 199.05 109.1 197.35 110.35 197.05 112.9 195.0 115.25 194.5 113.05 192.9 112.7 L192.05 112.6 191.25 112.75 Q190.9 112.8 190.6 113.0 188.9 113.85 189.05 116.65 L189.25 118.45 Q189.7 121.25 190.65 123.05 191.2 124.05 192.45 124.4 L194.65 124.45 196.05 126.85 Q197.65 135.3 196.05 144.2 190.55 149.0 182.35 153.55 177.25 156.35 171.05 159.05 176.65 150.4 173.2 141.75 169.95 138.2 170.2 133.55 L166.0 133.95 165.75 134.05 Q158.05 133.35 156.3 123.35 L156.4 123.3 Q158.45 127.6 164.0 127.35 169.25 127.45 168.5 122.05 164.6 119.4 167.05 113.1 160.95 114.95 162.8 120.2 158.1 116.65 161.75 111.5 165.4 107.1 172.05 105.55 175.65 104.6 177.9 102.85 L168.4 101.5 Q178.55 101.05 184.6 98.75 159.1 96.85 166.75 89.0 M194.1 100.45 L194.3 100.2 194.05 100.35 194.1 100.45" fill="#000000" fill-rule="evenodd" stroke="none"/>
  </g>
</svg>
