<?xml version="1.0" encoding="UTF-8" standalone="no"?>
<svg xmlns:xlink="http://www.w3.org/1999/xlink" height="62.7px" width="79.65px" xmlns="http://www.w3.org/2000/svg">
  <g transform="matrix(1.0, 0.0, 0.0, 1.0, -166.4, -152.45)">
    <path d="M187.55 157.25 Q188.5 158.8 191.0 158.45 L200.85 157.5 203.75 163.95 Q204.95 166.65 207.9 165.95 L228.6 164.35 Q231.0 163.4 229.95 161.55 L226.95 156.9 230.95 157.1 Q233.1 157.15 231.85 154.65 L230.2 152.45 240.45 154.45 238.45 161.45 Q241.35 163.0 243.15 165.1 245.2 167.45 245.8 170.45 246.35 172.85 245.65 175.15 L244.2 178.0 Q242.8 180.05 240.3 182.0 240.0 188.5 236.5 195.05 236.25 197.1 236.3 199.1 L236.3 200.6 Q236.5 205.35 238.05 209.4 L234.85 210.55 233.6 214.95 232.05 215.1 231.0 215.15 224.05 214.85 221.85 214.6 219.9 210.5 212.95 209.25 208.25 208.2 Q209.3 205.0 208.4 201.8 194.6 193.3 185.1 183.4 L185.05 183.4 187.1 172.6 Q182.85 165.65 174.3 162.75 L174.0 162.65 Q170.55 161.5 166.4 161.0 L175.25 157.15 Q180.15 154.85 184.35 152.45 L187.55 157.25" fill="#000000" fill-rule="evenodd" stroke="none"/>
  </g>
</svg>
