<?xml version="1.0" encoding="UTF-8" standalone="no"?>
<svg xmlns:xlink="http://www.w3.org/1999/xlink" height="80.7px" width="83.95px" xmlns="http://www.w3.org/2000/svg">
  <g transform="matrix(1.0, 0.0, 0.0, 1.0, -163.55, -135.1)">
    <path d="M221.6 151.4 L221.45 151.25 225.15 147.8 Q219.85 144.2 213.3 141.45 L213.3 141.35 213.45 138.75 Q221.85 141.45 228.4 147.35 L224.65 151.0 224.4 151.25 237.25 156.9 236.75 159.45 221.6 151.4 M196.85 136.15 Q188.95 142.6 189.0 150.65 L194.45 153.85 191.75 165.55 Q200.35 171.5 207.65 184.9 L209.2 187.85 213.1 196.35 213.05 196.35 Q210.75 191.95 208.1 187.85 L205.75 184.35 Q198.7 174.4 189.35 166.0 L192.5 155.15 186.2 151.3 186.15 151.25 Q187.0 140.6 196.85 136.1 L196.85 136.15" fill="#ffffff" fill-opacity="0.2509804" fill-rule="evenodd" stroke="none"/>
    <path d="M213.3 141.45 Q213.2 144.2 213.4 147.05 L216.85 148.45 M224.65 151.0 L228.4 147.35 Q221.85 141.45 213.45 138.75 L213.3 141.35 213.3 141.45 M194.3 145.7 L196.05 144.2 Q196.8 140.1 196.85 136.15 L196.85 136.1 Q187.0 140.6 186.15 151.25 L186.2 151.3 Q177.95 156.35 166.4 161.0 164.7 180.1 166.9 199.7 L167.05 201.05 M208.2 201.45 Q201.65 201.7 195.1 199.6 L185.05 183.4 Q183.15 192.55 180.85 201.75 182.6 202.45 183.5 203.7 L179.95 214.65 M180.3 203.75 L180.85 201.75 M224.65 151.0 Q231.55 152.9 240.45 154.45 242.2 158.9 243.15 165.1 245.2 167.45 245.8 170.45 246.35 172.85 245.65 175.15 L244.2 178.0 Q244.35 185.45 243.8 194.55 245.4 194.6 246.5 195.55 L244.75 205.2 M243.65 196.4 L243.8 194.55 M166.9 199.7 Q165.2 199.9 164.55 201.3 L164.55 207.65" fill="none" stroke="#000000" stroke-linecap="round" stroke-linejoin="round" stroke-width="2.0"/>
    <path d="M216.85 148.45 Q219.25 149.8 221.45 151.3 L221.6 151.4 Q235.05 160.8 237.9 176.7 L236.5 160.55 236.75 159.45 237.25 156.9 224.4 151.25 224.65 151.0 M213.1 196.35 L211.4 187.7 210.8 185.2 Q206.1 166.25 196.6 149.6 L194.3 145.7 M186.2 151.3 L192.5 155.15 189.35 166.0 Q198.7 174.4 205.75 184.35 L208.1 187.85 Q210.75 191.95 213.05 196.35 L213.1 196.4 213.75 200.75 212.35 201.0 208.2 201.45 M213.1 196.35 L213.1 196.4 M201.2 186.55 Q192.35 182.8 191.1 174.05 M242.5 180.0 L241.05 197.1 240.75 197.6 Q239.4 199.6 237.35 200.4 L237.55 198.95 238.5 190.65 236.5 195.05 Q236.25 197.3 236.3 199.45 236.3 204.25 237.65 208.3 M237.9 176.7 Q238.6 180.55 238.7 184.8 L238.5 190.45 238.5 190.65 M243.15 165.1 Q240.8 162.4 236.5 160.55" fill="none" stroke="#000000" stroke-linecap="round" stroke-linejoin="round" stroke-width="1.0"/>
    <path d="M167.05 201.05 Q169.9 202.4 172.75 203.05 L180.3 203.75 M240.75 197.6 L243.65 196.4 M236.3 199.45 L237.55 198.95" fill="none" stroke="#000000" stroke-linecap="round" stroke-linejoin="round" stroke-width="1.0"/>
    <path d="M244.75 205.2 L243.1 206.45 M179.95 214.65 L177.3 214.75 M167.7 210.55 L164.55 207.65" fill="none" stroke="#000000" stroke-linecap="round" stroke-linejoin="round" stroke-width="2.0"/>
    <path d="M243.1 206.45 Q239.75 208.75 237.65 208.3 M177.3 214.75 L173.9 214.05 171.85 213.2 170.95 212.7 Q169.3 211.8 167.7 210.55" fill="none" stroke="#000000" stroke-linecap="round" stroke-linejoin="round" stroke-width="1.0"/>
  </g>
</svg>
