<?xml version="1.0" encoding="UTF-8" standalone="no"?>
<svg xmlns:xlink="http://www.w3.org/1999/xlink" height="299.0px" width="94.8px" xmlns="http://www.w3.org/2000/svg">
  <g transform="matrix(1.0, 0.0, 0.0, 1.0, -153.85, -137.15)">
    <path d="M196.8 138.15 L196.05 144.2 Q195.1 146.2 196.45 149.85 191.35 149.6 180.65 158.95 L180.6 159.0 Q177.95 158.0 175.1 157.25 L175.05 157.2 175.0 157.2 Q174.7 154.4 176.2 151.2 188.45 145.45 196.8 138.15 M173.4 432.85 Q163.6 429.85 159.7 424.45 163.55 416.25 166.7 368.85 166.9 341.65 170.1 314.45 162.95 302.8 154.85 278.95 155.4 268.25 156.8 257.5 L158.95 239.05 Q159.8 230.85 160.7 225.15 161.9 191.95 166.4 161.0 L175.05 157.25 175.1 157.25 Q177.95 158.0 180.6 159.0 L172.25 163.65 172.2 163.85 Q167.85 193.4 168.4 222.1 L168.5 222.6 Q170.7 245.7 177.65 267.9 176.5 268.65 175.45 270.1 173.85 278.75 172.95 286.05 172.6 319.85 179.3 324.65 183.55 323.75 186.45 308.65 176.9 367.7 173.4 432.85 M207.0 185.7 L207.7 187.85 Q204.65 187.6 201.2 186.55 L199.3 185.65 Q192.2 181.8 191.15 174.0 192.2 181.8 199.3 185.65 208.05 205.75 200.85 236.5 196.5 254.5 192.8 273.2 L182.5 267.35 Q185.1 246.25 190.25 232.95 198.75 210.85 191.5 197.65 187.65 191.7 185.05 183.4 L187.1 172.6 Q188.85 172.9 191.15 174.0 197.2 176.95 207.0 185.7 M170.1 314.45 Q174.9 322.35 179.3 324.65 174.9 322.35 170.1 314.45 M162.65 215.45 Q161.65 218.7 160.7 225.15 161.65 218.7 162.65 215.45" fill="#000000" fill-opacity="0.2509804" fill-rule="evenodd" stroke="none"/>
    <path d="M242.65 288.95 Q243.5 288.8 244.55 288.3 245.1 289.4 246.8 289.7 L247.55 289.7 Q247.1 302.85 241.05 311.05 241.7 300.25 242.65 288.95 M221.4 415.1 Q215.35 412.8 209.5 411.85 210.85 394.15 216.5 377.95 L223.95 345.05 224.3 345.1 Q222.6 370.0 221.4 415.1 M224.25 341.3 Q224.95 328.2 221.5 315.15 L221.5 311.35 Q228.3 298.55 233.7 286.2 231.6 301.55 227.45 316.75 225.85 322.55 224.55 341.3 L224.25 341.3 M172.95 286.05 L182.8 292.55 Q184.75 295.2 187.85 293.9 L188.4 295.5 187.65 301.25 186.45 308.65 Q183.55 323.75 179.3 324.65 172.6 319.85 172.95 286.05 M199.35 411.2 L195.9 411.4 198.25 397.65 Q199.3 404.4 199.35 411.2" fill="#010101" fill-opacity="0.5019608" fill-rule="evenodd" stroke="none"/>
    <path d="M224.3 345.0 L224.3 345.1 223.95 345.05 224.3 345.0" fill="#330000" fill-rule="evenodd" stroke="none"/>
    <path d="M213.3 141.8 Q222.65 145.85 231.05 148.05 232.5 149.65 233.05 153.05 L240.45 154.45 Q242.2 158.9 243.15 165.1 245.2 167.45 245.8 170.45 246.35 172.85 245.65 175.15 L244.2 178.0 Q244.45 189.85 242.85 205.85 L247.65 217.35 245.9 227.15 Q248.05 234.95 247.55 242.85 L246.7 249.95 M247.55 289.7 Q247.1 302.85 241.05 311.05 237.0 377.4 244.6 422.35 234.85 432.2 220.9 433.25 L221.4 415.1 Q215.35 412.8 209.5 411.85 210.85 394.15 216.5 377.95 L223.95 345.05 224.25 341.35 224.25 341.3 Q224.95 328.2 221.5 315.15 L221.5 311.35 Q228.3 298.55 233.7 286.2 M183.8 435.15 Q177.95 434.25 173.4 432.85 163.6 429.85 159.7 424.45 163.55 416.25 166.7 368.85 166.9 341.65 170.1 314.45 162.95 302.8 154.85 278.95 155.4 268.25 156.8 257.5 L158.95 239.05 Q159.8 230.85 160.7 225.15 161.9 191.95 166.4 161.0 L175.05 157.25 175.1 157.25 175.05 157.2 175.0 157.2 Q174.7 154.4 176.2 151.2 188.45 145.45 196.8 138.15 M182.5 267.35 Q179.9 245.6 181.3 224.15 180.7 219.4 177.25 214.65 181.85 199.0 185.05 183.4 187.65 191.7 191.5 197.65 198.75 210.85 190.25 232.95 185.1 246.25 182.5 267.35 M199.35 411.2 L195.9 411.4 198.25 397.65 Q199.3 404.4 199.35 411.2" fill="none" stroke="#000000" stroke-linecap="round" stroke-linejoin="round" stroke-width="2.0"/>
    <path d="M233.7 286.2 Q234.75 278.25 235.3 270.25 235.75 251.3 235.7 235.75 L235.6 229.65 Q234.9 182.65 228.5 169.55 221.35 152.3 213.4 147.05 213.2 144.35 213.3 141.8 M246.7 249.95 L246.4 252.25 Q245.1 263.0 244.1 273.3 L243.5 279.4 243.25 281.85 243.05 284.35 242.65 288.95 Q243.5 288.8 244.55 288.3 245.1 289.4 246.8 289.7 L247.55 289.7 M233.7 286.2 Q231.6 301.55 227.45 316.75 225.85 322.55 224.55 341.3 L224.55 341.35 224.3 345.0 224.3 345.1 Q222.6 370.0 221.4 415.1 M196.8 138.15 L196.05 144.2 Q195.1 146.2 196.45 149.85 199.2 157.35 211.7 171.85 214.95 176.05 216.05 180.65 L216.7 184.25 217.55 190.65 Q220.3 211.0 219.3 232.55 218.6 246.95 215.95 261.35 L213.1 274.65 203.45 313.95 201.3 322.9 Q189.7 372.6 187.95 412.8 187.4 424.65 187.7 435.65 L184.0 435.15 183.8 435.15 M180.6 159.0 Q177.95 158.0 175.1 157.25 M180.6 159.0 Q200.1 166.25 207.0 185.7 L207.7 187.85 208.15 188.75 Q216.3 206.95 216.65 227.85 216.95 245.05 215.95 261.35 M177.65 267.9 Q179.95 266.25 182.5 267.35 L192.8 273.2 197.2 275.7 195.8 282.4 198.3 286.05 197.7 286.75 Q196.8 287.55 195.6 287.45 L194.2 287.15 192.8 287.15 Q192.65 290.85 192.8 294.55 L188.4 295.5 187.65 301.25 186.45 308.65 Q183.55 323.75 179.3 324.65 174.9 322.35 170.1 314.45 M185.05 183.4 L187.1 172.6 M191.15 174.0 Q192.2 181.8 199.3 185.65 L201.2 186.55 Q204.65 187.6 207.7 187.85 M233.05 153.05 Q228.95 154.1 230.15 159.65 230.85 162.05 232.4 165.25 236.2 172.65 236.55 195.0 240.0 188.45 240.3 182.0 242.8 180.05 244.2 178.0 M243.15 165.1 Q240.8 162.4 236.5 160.55 M245.9 227.15 Q243.85 219.75 239.4 212.35 237.2 208.35 236.6 203.55 236.45 215.0 235.6 229.65 M177.65 267.9 Q176.5 268.65 175.45 270.1 173.85 278.75 172.95 286.05 L182.8 292.55 Q184.75 295.2 187.85 293.9 L188.4 295.5 M242.65 288.95 Q241.7 300.25 241.05 311.05 M172.95 286.05 Q172.6 319.85 179.3 324.65 M160.7 225.15 Q161.65 218.7 162.65 215.45 M236.55 195.0 L236.6 203.55" fill="none" stroke="#000000" stroke-linecap="round" stroke-linejoin="round" stroke-width="1.0"/>
  </g>
</svg>
