<?xml version="1.0" encoding="UTF-8" standalone="no"?>
<svg xmlns:xlink="http://www.w3.org/1999/xlink" height="47.95px" width="86.55px" xmlns="http://www.w3.org/2000/svg">
  <g transform="matrix(1.0, 0.0, 0.0, 1.0, -162.3, -143.2)">
    <path d="M213.4 147.05 L215.05 147.75 Q224.55 151.7 240.45 154.45 242.2 158.9 243.15 165.1 245.05 167.25 245.7 169.95 247.5 177.0 247.8 184.05 L247.85 186.75 244.15 188.05 M191.7 189.9 L183.75 189.45 183.65 189.45 M165.95 188.1 L163.3 187.85 163.3 185.15 Q163.35 172.4 166.4 161.0 184.05 153.85 194.05 145.85 L196.05 144.2" fill="none" stroke="#000000" stroke-linecap="round" stroke-linejoin="round" stroke-width="2.0"/>
    <path d="M244.15 188.05 Q232.25 191.35 203.75 190.45 L191.7 189.9 M183.65 189.45 L171.85 188.6 165.95 188.1 M196.05 144.2 L199.3 146.55 Q209.6 153.45 213.55 148.95 L213.4 147.05 M243.15 165.1 Q240.8 162.4 236.5 160.55" fill="none" stroke="#000000" stroke-linecap="round" stroke-linejoin="round" stroke-width="1.0"/>
    <path d="M247.8 184.05 Q238.6 187.7 212.3 187.55 L204.75 187.45 201.65 187.35 184.4 186.6 171.8 185.8 163.3 185.15 M215.05 147.75 Q216.75 152.45 210.8 153.3 203.9 153.95 197.45 148.9 L194.05 145.85" fill="none" stroke="#000000" stroke-linecap="round" stroke-linejoin="round" stroke-opacity="0.5019608" stroke-width="1.0"/>
  </g>
</svg>
