<?xml version="1.0" encoding="UTF-8" standalone="no"?>
<svg xmlns:xlink="http://www.w3.org/1999/xlink" height="49.0px" width="65.55px" xmlns="http://www.w3.org/2000/svg">
  <g transform="matrix(1.0, 0.0, 0.0, 1.0, -185.75, -203.5)">
    <path d="M207.55 210.0 L207.15 209.05 Q206.65 208.2 206.05 208.05 L205.75 208.0 Q204.9 208.0 204.3 209.05 203.7 210.15 203.7 211.7 203.7 213.0 204.15 214.0 L204.3 214.25 Q204.9 215.35 205.75 215.35 L206.75 214.9 207.15 214.25 Q207.65 213.4 207.75 212.3 L207.75 211.7 207.75 211.6 207.55 210.0 M208.6 207.05 L208.8 207.95 208.9 208.45 210.0 211.1 210.05 211.2 211.1 212.95 212.95 215.15 Q215.1 217.3 218.25 219.15 L205.55 219.5 202.8 219.65 197.7 219.95 194.85 220.1 191.45 220.3 187.6 220.55 Q189.25 212.25 194.4 205.5 L196.95 205.3 197.15 205.3 207.5 204.5 208.3 204.45 208.6 207.05" fill="url(#gradient0)" fill-rule="evenodd" stroke="none"/>
    <path d="M218.35 219.25 L216.85 220.6 Q215.55 221.8 214.4 223.15 210.85 227.2 208.7 232.15 208.05 233.6 207.55 235.15 206.55 238.1 206.05 241.4 L203.65 240.95 201.25 240.5 196.9 239.55 194.1 238.9 191.0 238.15 187.4 237.25 Q186.0 228.25 187.6 220.55 L191.45 220.3 194.85 220.1 197.7 219.95 202.8 219.65 205.55 219.5 218.25 219.15 218.35 219.25" fill="url(#gradient1)" fill-rule="evenodd" stroke="none"/>
    <path d="M187.4 237.25 L191.0 238.15 194.1 238.9 196.9 239.55 201.25 240.5 203.65 240.95 206.05 241.4 Q205.25 246.35 205.55 252.0 L204.45 251.85 202.3 251.5 Q198.8 250.85 195.85 249.8 L195.75 249.75 192.75 248.45 189.55 246.5 Q188.1 241.7 187.4 237.25" fill="url(#gradient2)" fill-rule="evenodd" stroke="none"/>
    <path d="M245.35 209.6 Q245.1 208.5 244.55 208.45 L244.3 208.5 Q243.9 208.6 243.5 209.4 242.95 210.4 242.8 211.95 242.6 213.45 242.9 214.55 243.15 215.65 243.7 215.75 244.2 215.8 244.75 214.8 L244.95 214.25 245.45 212.25 Q245.6 210.7 245.35 209.6 M250.4 218.2 L247.95 218.25 245.35 218.4 237.7 218.95 237.65 218.9 Q238.85 218.2 239.7 216.05 241.15 212.5 241.65 208.25 L241.85 204.55 247.6 204.4 Q249.65 210.45 250.4 218.2" fill="url(#gradient3)" fill-rule="evenodd" stroke="none"/>
    <path d="M237.7 218.95 L245.35 218.4 247.95 218.25 250.4 218.2 Q251.1 225.8 250.55 235.05 L248.75 236.55 246.15 238.3 242.75 240.15 242.35 235.95 242.3 235.45 241.85 232.55 241.8 232.25 241.75 232.2 240.95 228.25 240.4 226.2 240.0 224.8 239.2 222.4 237.7 218.95" fill="url(#gradient4)" fill-rule="evenodd" stroke="none"/>
    <path d="M242.75 240.15 L246.15 238.3 248.75 236.55 250.55 235.05 249.7 244.8 248.45 246.85 245.85 249.8 Q244.55 250.85 243.05 251.6 243.15 245.45 242.75 240.15" fill="url(#gradient5)" fill-rule="evenodd" stroke="none"/>
    <path d="M237.1 206.4 L237.65 208.35 237.85 208.9 239.4 212.35" fill="none" stroke="#000000" stroke-linecap="round" stroke-linejoin="round" stroke-width="1.0"/>
    <path d="M250.4 218.2 Q249.65 210.45 247.6 204.4 L241.85 204.55 241.65 208.25 Q241.15 212.5 239.7 216.05 238.85 218.2 237.65 218.9 L237.7 218.95 239.2 222.4 240.0 224.8 240.4 226.2 240.95 228.25 241.75 232.2 241.8 232.25 241.85 232.55 242.3 235.45 242.35 235.95 242.75 240.15 Q243.15 245.45 243.05 251.6 244.55 250.85 245.85 249.8 L248.45 246.85 249.7 244.8 250.55 235.05 Q251.1 225.8 250.4 218.2 M208.6 207.05 L208.8 207.95 208.9 208.45 210.0 211.1 210.05 211.2 211.1 212.95 212.95 215.15 Q215.1 217.3 218.25 219.15 L218.4 219.25 218.35 219.25 216.85 220.6 Q223.95 225.05 231.25 228.35 236.15 226.9 239.6 225.0 L240.0 224.8 M207.5 204.5 L208.3 204.45 208.6 207.05 M195.75 249.75 L195.85 249.8 Q198.8 250.85 202.3 251.5 L204.45 251.85 205.55 252.0 Q205.25 246.35 206.05 241.4 206.55 238.1 207.55 235.15 208.05 233.6 208.7 232.15 210.85 227.2 214.4 223.15 215.55 221.8 216.85 220.6 M240.95 228.25 L239.6 228.85 235.8 230.3 239.6 231.75 241.85 232.55 M214.4 223.15 Q220.25 226.65 226.5 229.6 L231.25 228.35 M235.8 230.3 L231.1 231.65 Q235.25 233.45 239.6 235.0 L242.35 235.95 M231.1 231.65 Q221.65 234.05 207.55 235.15 M208.7 232.15 Q218.95 231.3 226.5 229.6 M196.95 205.3 L197.15 205.3" fill="none" stroke="#000000" stroke-linecap="round" stroke-linejoin="round" stroke-width="1.0"/>
    <path d="M208.6 207.05 L208.8 205.7 M187.4 237.25 Q188.1 241.7 189.55 246.5 L192.75 248.45 195.75 249.75 M197.15 205.3 L207.5 204.5 M187.6 220.55 Q189.25 212.25 194.4 205.5 L196.95 205.3 M187.4 237.25 Q186.0 228.25 187.6 220.55" fill="none" stroke="#000000" stroke-linecap="round" stroke-linejoin="round" stroke-width="2.0"/>
    <path d="M245.35 209.6 Q245.6 210.7 245.45 212.25 L244.95 214.25 244.75 214.8 Q244.2 215.8 243.7 215.75 243.15 215.65 242.9 214.55 242.6 213.45 242.8 211.95 242.95 210.4 243.5 209.4 243.9 208.6 244.3 208.5 L244.55 208.45 Q245.1 208.5 245.35 209.6 M237.7 218.95 L245.35 218.4 247.95 218.25 250.4 218.2 M242.75 240.15 L246.15 238.3 248.75 236.55 250.55 235.05 M207.55 210.0 L207.75 211.6 207.75 211.7 207.75 212.3 Q207.65 213.4 207.15 214.25 L206.75 214.9 205.75 215.35 Q204.9 215.35 204.3 214.25 L204.15 214.0 Q203.7 213.0 203.7 211.7 203.7 210.15 204.3 209.05 204.9 208.0 205.75 208.0 L206.05 208.05 Q206.65 208.2 207.15 209.05 L207.55 210.0 M187.6 220.55 L191.45 220.3 194.85 220.1 197.7 219.95 202.8 219.65 205.55 219.5 218.25 219.15 M206.05 241.4 L203.65 240.95 201.25 240.5 196.9 239.55 194.1 238.9 191.0 238.15 187.4 237.25" fill="none" stroke="#000000" stroke-linecap="round" stroke-linejoin="round" stroke-opacity="0.2509804" stroke-width="1.0"/>
    <path d="M244.95 214.25 L245.45 212.25 Q245.6 210.7 245.35 209.6 245.1 208.5 244.55 208.45 L244.3 208.5 243.8 204.5 246.3 204.45 Q247.35 211.35 247.95 218.25 L245.35 218.4 247.95 218.25 Q248.75 227.45 248.75 236.55 L246.15 238.3 Q246.15 228.3 245.35 218.4 L244.95 214.25 M248.45 246.85 L245.85 249.8 246.15 238.3 248.75 236.55 248.45 246.85 M195.75 249.75 L192.75 248.45 Q191.55 243.1 191.0 238.15 189.9 228.5 191.45 220.3 193.0 212.05 197.15 205.3 L200.45 205.05 Q196.5 211.95 194.85 220.1 193.1 228.8 194.1 238.9 194.6 244.1 195.85 249.75 L195.75 249.75 M212.2 206.35 L215.85 207.0 215.8 207.0 Q214.4 211.0 212.4 213.2 L211.9 213.1 211.1 212.95 210.05 211.2 Q211.35 209.25 212.2 206.35 M191.45 220.3 L194.85 220.1 191.45 220.3 M194.1 238.9 L191.0 238.15 194.1 238.9" fill="#ffffff" fill-opacity="0.2509804" fill-rule="evenodd" stroke="none"/>
    <path d="M204.45 251.85 L202.3 251.5 Q201.45 245.85 201.25 240.5 200.8 229.55 202.8 219.65 203.35 216.75 204.15 214.0 L204.3 214.25 Q204.9 215.35 205.75 215.35 L206.75 214.9 205.75 215.35 Q204.9 215.35 204.3 214.25 L204.15 214.0 206.05 208.05 207.5 204.5 208.3 204.45 208.6 207.05 208.8 207.95 208.9 208.45 207.75 211.6 207.55 210.0 207.15 209.05 Q206.65 208.2 206.05 208.05 206.65 208.2 207.15 209.05 L207.55 210.0 207.75 211.6 207.55 212.25 206.75 214.9 205.55 219.5 202.8 219.65 205.55 219.5 Q203.3 229.65 203.65 240.95 L201.25 240.5 203.65 240.95 Q203.75 246.25 204.45 251.85" fill="#000000" fill-opacity="0.2509804" fill-rule="evenodd" stroke="none"/>
    <path d="M208.8 205.7 L212.2 206.35 215.85 207.0 Q233.85 209.9 237.1 206.4 L237.65 208.35 237.85 208.9 239.4 212.35 Q236.2 217.45 212.4 213.2 L211.9 213.1 211.1 212.95" fill="none" stroke="#000000" stroke-linecap="round" stroke-linejoin="round" stroke-width="1.0"/>
    <path d="M243.8 204.5 L241.85 204.55 241.65 208.25 Q241.15 212.5 239.7 216.05 238.85 218.2 237.65 218.9 L237.7 218.95 239.2 222.4 240.0 224.8 239.6 225.0 Q236.15 226.9 231.25 228.35 L226.5 229.6 Q218.95 231.3 208.7 232.15 208.05 233.6 207.55 235.15 206.55 238.1 206.05 241.4 205.25 246.35 205.55 252.0 L204.45 251.85 202.3 251.5 Q198.8 250.85 195.85 249.8 L195.75 249.75 M246.3 204.45 L243.8 204.5 M250.4 218.2 Q249.65 210.45 247.6 204.4 L246.3 204.45 M250.4 218.2 Q251.1 225.8 250.55 235.05 L249.7 244.8 248.45 246.85 245.85 249.8 Q244.55 250.85 243.05 251.6 243.15 245.45 242.75 240.15 L242.35 235.95 239.6 235.0 Q235.25 233.45 231.1 231.65 221.65 234.05 207.55 235.15 M196.95 205.3 L197.15 205.3 M207.5 204.5 L208.3 204.45 208.6 207.05 208.8 207.95 208.9 208.45 210.0 211.1 210.05 211.2 211.1 212.95 212.95 215.15 Q215.1 217.3 218.25 219.15 L218.4 219.25 216.85 220.6 Q223.95 225.05 231.25 228.35 M226.5 229.6 Q220.25 226.65 214.4 223.15 210.85 227.2 208.7 232.15 M231.1 231.65 L235.8 230.3 239.6 228.85 240.95 228.25 240.4 226.2 240.0 224.8 M235.8 230.3 L239.6 231.75 241.85 232.55 241.8 232.25 241.75 232.2 240.95 228.25 M242.35 235.95 L242.3 235.45 241.85 232.55 M216.85 220.6 Q215.55 221.8 214.4 223.15" fill="none" stroke="#000000" stroke-linecap="round" stroke-linejoin="round" stroke-width="1.0"/>
    <path d="M195.75 249.75 L192.75 248.45 189.55 246.5 Q188.1 241.7 187.4 237.25 186.0 228.25 187.6 220.55 189.25 212.25 194.4 205.5 L196.95 205.3 M197.15 205.3 L200.45 205.05 207.5 204.5 M208.6 207.05 L208.8 205.7" fill="none" stroke="#000000" stroke-linecap="round" stroke-linejoin="round" stroke-width="2.0"/>
    <path d="M244.3 208.5 Q243.9 208.6 243.5 209.4 242.95 210.4 242.8 211.95 242.6 213.45 242.9 214.55 243.15 215.65 243.7 215.75 244.2 215.8 244.75 214.8 L244.95 214.25 245.45 212.25 Q245.6 210.7 245.35 209.6 245.1 208.5 244.55 208.45 L244.3 208.5 M237.7 218.95 L245.35 218.4 247.95 218.25 250.4 218.2 M248.75 236.55 L250.55 235.05 M248.75 236.55 L246.15 238.3 242.75 240.15 M204.15 214.0 Q203.7 213.0 203.7 211.7 203.7 210.15 204.3 209.05 204.9 208.0 205.75 208.0 L206.05 208.05 Q206.65 208.2 207.15 209.05 L207.55 210.0 207.75 211.6 207.75 211.7 207.75 212.3 Q207.65 213.4 207.15 214.25 L206.75 214.9 205.75 215.35 Q204.9 215.35 204.3 214.25 L204.15 214.0 M205.55 219.5 L218.25 219.15 M202.8 219.65 L205.55 219.5 M203.65 240.95 L206.05 241.4 M187.6 220.55 L191.45 220.3 194.85 220.1 197.7 219.95 202.8 219.65 M201.25 240.5 L203.65 240.95 M191.0 238.15 L194.1 238.9 196.9 239.55 201.25 240.5 M191.0 238.15 L187.4 237.25" fill="none" stroke="#000000" stroke-linecap="round" stroke-linejoin="round" stroke-opacity="0.2509804" stroke-width="1.0"/>
  </g>
  <defs>
    <linearGradient gradientTransform="matrix(0.009, 0.0, 0.0, 0.0098, 200.8, 212.5)" gradientUnits="userSpaceOnUse" id="gradient0" spreadMethod="pad" x1="-819.2" x2="819.2">
      <stop offset="0.0" stop-color="#000000" stop-opacity="0.0"/>
      <stop offset="1.0" stop-color="#000000" stop-opacity="0.2509804"/>
    </linearGradient>
    <linearGradient gradientTransform="matrix(0.0083, 0.0, 0.0, 0.0136, 197.4, 230.25)" gradientUnits="userSpaceOnUse" id="gradient1" spreadMethod="pad" x1="-819.2" x2="819.2">
      <stop offset="0.0" stop-color="#000000" stop-opacity="0.0"/>
      <stop offset="1.0" stop-color="#000000" stop-opacity="0.2509804"/>
    </linearGradient>
    <linearGradient gradientTransform="matrix(0.0044, 0.0, 0.0, 0.009, 197.95, 244.6)" gradientUnits="userSpaceOnUse" id="gradient2" spreadMethod="pad" x1="-819.2" x2="819.2">
      <stop offset="0.0" stop-color="#000000" stop-opacity="0.0"/>
      <stop offset="1.0" stop-color="#000000" stop-opacity="0.2509804"/>
    </linearGradient>
    <linearGradient gradientTransform="matrix(-0.0054, 0.0, 0.0, -0.0089, 243.55, 211.7)" gradientUnits="userSpaceOnUse" id="gradient3" spreadMethod="pad" x1="-819.2" x2="819.2">
      <stop offset="0.0" stop-color="#000000" stop-opacity="0.0"/>
      <stop offset="1.0" stop-color="#000000" stop-opacity="0.2509804"/>
    </linearGradient>
    <linearGradient gradientTransform="matrix(-0.0028, 7.0E-4, -0.0035, -0.0129, 246.95, 227.7)" gradientUnits="userSpaceOnUse" id="gradient4" spreadMethod="pad" x1="-819.2" x2="819.2">
      <stop offset="0.0" stop-color="#000000" stop-opacity="0.0"/>
      <stop offset="1.0" stop-color="#000000" stop-opacity="0.2509804"/>
    </linearGradient>
    <linearGradient gradientTransform="matrix(-0.003, 8.0E-4, -0.0022, -0.0083, 247.3, 243.2)" gradientUnits="userSpaceOnUse" id="gradient5" spreadMethod="pad" x1="-819.2" x2="819.2">
      <stop offset="0.0" stop-color="#000000" stop-opacity="0.0"/>
      <stop offset="1.0" stop-color="#000000" stop-opacity="0.2509804"/>
    </linearGradient>
  </defs>
</svg>
