<?xml version="1.0" encoding="UTF-8" standalone="no"?>
<svg xmlns:xlink="http://www.w3.org/1999/xlink" height="17.25px" width="30.35px" xmlns="http://www.w3.org/2000/svg">
  <g transform="matrix(1.0, 0.0, 0.0, 1.0, -190.85, -142.35)">
    <path d="M217.9 147.5 L218.7 148.95 Q221.1 153.75 221.2 158.65 219.4 153.9 217.35 152.3 215.6 150.95 213.75 151.8 216.45 149.85 215.65 146.4 216.75 145.85 217.9 147.5 M199.05 146.9 Q205.1 150.65 212.2 152.1 210.55 153.8 209.95 155.9 209.4 157.65 209.6 159.6 202.15 156.75 197.2 153.05 193.85 150.55 191.65 147.65 L190.85 146.5 193.05 142.35 194.3 143.45 195.7 144.6 199.05 146.9" fill="#000000" fill-rule="evenodd" stroke="none"/>
  </g>
</svg>
