<?xml version="1.0" encoding="UTF-8" standalone="no"?>
<svg xmlns:xlink="http://www.w3.org/1999/xlink" height="63.75px" width="66.45px" xmlns="http://www.w3.org/2000/svg">
  <g transform="matrix(1.0, 0.0, 0.0, 1.0, -174.05, -106.85)">
    <path d="M230.45 155.2 Q229.8 153.7 229.45 152.25 228.6 149.15 228.75 146.15 228.9 143.65 229.7 141.3 231.1 137.15 228.8 133.25 226.2 130.05 222.0 127.6 223.5 124.6 224.25 122.05 234.75 129.6 232.25 138.15 229.65 144.7 230.2 152.4 L230.45 155.2 M189.6 149.15 Q184.8 146.2 181.4 142.7 179.3 140.55 177.65 138.25 173.25 132.4 176.3 122.55 180.15 113.5 189.8 109.05 L192.35 108.0 189.9 109.8 Q181.1 116.95 181.75 126.05 L181.75 126.4 Q181.95 137.8 189.55 143.9 191.6 145.0 193.5 146.35 205.45 154.65 208.8 170.1 204.4 158.15 193.9 151.5 L189.6 149.15" fill="#000000" fill-opacity="0.2509804" fill-rule="evenodd" stroke="none"/>
    <path d="M224.25 122.05 Q225.5 117.5 224.2 114.45 L225.15 111.5 Q231.25 116.25 234.55 121.95 239.65 130.4 235.35 143.1 234.55 145.4 234.3 147.75 234.0 150.45 234.3 153.3 M229.45 152.25 Q228.6 149.15 228.75 146.15 228.9 143.65 229.7 141.3 231.1 137.15 228.8 133.25 226.2 130.05 222.0 127.6 223.5 124.6 224.25 122.05 M192.35 108.0 L189.8 109.05 Q180.15 113.5 176.3 122.55 173.25 132.4 177.65 138.25 179.3 140.55 181.4 142.7 184.8 146.2 189.6 149.15 M192.35 108.0 L192.65 107.85 M196.3 128.3 Q192.15 129.75 191.65 134.7 190.6 141.3 195.6 144.6" fill="none" stroke="#000000" stroke-linecap="round" stroke-linejoin="round" stroke-width="2.0"/>
    <path d="M234.3 153.3 Q235.1 160.5 240.0 168.6 235.05 163.7 231.75 157.75 L230.45 155.2 Q229.8 153.7 229.45 152.25 M189.6 149.15 L193.9 151.5 Q204.4 158.15 208.8 170.1 209.75 153.9 195.65 144.65 L195.6 144.6 M192.65 107.85 Q199.15 116.2 197.9 127.9 L196.3 128.3" fill="none" stroke="#000000" stroke-linecap="round" stroke-linejoin="round" stroke-width="1.0"/>
  </g>
</svg>
