<?xml version="1.0" encoding="UTF-8" standalone="no"?>
<svg xmlns:xlink="http://www.w3.org/1999/xlink" height="54.9px" width="40.1px" xmlns="http://www.w3.org/2000/svg">
  <g transform="matrix(1.0, 0.0, 0.0, 1.0, -186.8, -87.75)">
    <path d="M204.4 91.1 L204.4 91.05 Q205.1 88.7 207.55 87.85 206.55 89.75 206.85 91.05 L206.9 91.2 206.95 91.05 209.3 91.25 Q216.55 92.15 220.55 95.25 L220.25 93.35 Q222.65 91.9 221.4 87.75 223.4 89.1 223.6 92.55 223.7 95.0 222.7 97.0 226.3 101.95 226.05 107.0 L226.05 107.3 226.1 108.5 226.0 108.5 226.1 109.05 226.9 136.3 Q225.15 139.05 221.2 141.35 L219.25 142.35 219.05 116.9 220.2 118.1 220.65 118.4 221.2 118.6 221.9 118.6 222.9 118.25 Q224.6 117.05 224.9 112.95 L224.95 111.05 224.8 109.6 Q224.3 106.65 222.1 107.15 L220.95 107.45 Q219.6 107.95 218.35 108.95 217.0 109.95 215.4 111.8 211.4 107.75 206.05 107.05 199.05 106.1 197.3 111.05 196.3 115.45 200.0 117.8 203.95 119.9 207.65 118.55 L210.1 117.25 209.25 142.65 204.25 140.25 Q199.8 137.8 196.8 134.9 195.0 133.15 193.7 131.25 L192.6 129.5 186.8 125.45 186.95 123.25 187.0 122.55 Q187.85 112.05 188.75 106.35 L189.6 101.9 Q190.75 96.45 194.4 94.2 199.05 91.45 204.4 91.1" fill="#000000" fill-rule="evenodd" stroke="none"/>
  </g>
</svg>
