<?xml version="1.0" encoding="UTF-8" standalone="no"?>
<svg xmlns:xlink="http://www.w3.org/1999/xlink" height="19.25px" width="33.65px" xmlns="http://www.w3.org/2000/svg">
  <g transform="matrix(1.0, 0.0, 0.0, 1.0, -194.45, -103.55)">
    <path d="M212.4 113.85 Q205.6 110.7 199.0 110.25 200.2 115.15 205.4 118.6 209.3 117.5 212.4 113.85 M221.8 118.95 Q225.75 115.15 225.55 109.1 221.0 110.85 217.3 113.9 218.85 116.95 221.8 118.95 M222.05 122.45 Q218.0 119.4 215.5 115.55 210.5 120.2 204.7 122.8 194.4 114.45 194.45 103.8 204.55 105.45 214.5 112.05 L227.85 103.55 Q229.25 114.85 222.05 122.45" fill="#000000" fill-rule="evenodd" stroke="none"/>
  </g>
</svg>
