<?xml version="1.0" encoding="UTF-8" standalone="no"?>
<svg xmlns:xlink="http://www.w3.org/1999/xlink" height="7.45px" width="34.8px" xmlns="http://www.w3.org/2000/svg">
  <g transform="matrix(1.0, 0.0, 0.0, 1.0, -192.75, -111.65)">
    <path d="M221.2 118.6 L218.05 118.6 221.8 112.15 225.1 112.15 221.2 118.6 M206.45 118.6 L203.25 118.6 206.6 112.15 210.7 112.15 206.45 118.6" fill="#ffffff" fill-opacity="0.2509804" fill-rule="evenodd" stroke="none"/>
    <path d="M225.1 112.15 L226.1 112.15 Q227.05 112.15 227.05 113.15 L227.05 117.6 Q227.05 118.6 226.1 118.6 L221.2 118.6 218.05 118.6 Q217.1 118.6 217.1 117.6 L217.1 113.15 217.1 112.95 213.5 113.05 213.5 113.15 213.5 117.6 Q213.5 118.6 212.4 118.6 L206.45 118.6 203.25 118.6 202.75 118.6 Q201.65 118.6 201.65 117.6 L201.65 114.05 193.25 112.7 M210.7 112.15 L206.6 112.15 202.75 112.15 Q201.65 112.15 201.65 113.15 L201.65 114.05 M213.5 113.05 Q213.45 112.15 212.4 112.15 L210.7 112.15 M221.8 112.15 L218.05 112.15 Q217.2 112.15 217.1 112.95 M221.8 112.15 L225.1 112.15" fill="none" stroke="#000000" stroke-linecap="round" stroke-linejoin="round" stroke-width="1.0"/>
  </g>
</svg>
