<?xml version="1.0" encoding="UTF-8" standalone="no"?>
<svg xmlns:xlink="http://www.w3.org/1999/xlink" height="35.5px" width="46.65px" xmlns="http://www.w3.org/2000/svg">
  <g transform="matrix(1.0, 0.0, 0.0, 1.0, -147.65, -143.0)">
    <path d="M184.15 146.5 Q183.75 143.75 187.1 143.1 190.3 142.55 191.35 145.75 L194.15 154.95 Q194.7 157.25 193.2 159.65 L184.75 170.1 Q181.05 174.65 175.25 176.3 L166.3 178.0 165.6 178.1 165.2 178.15 161.45 178.4 160.05 178.5 158.15 178.5 156.55 178.5 154.7 178.4 Q150.6 178.05 147.85 176.35 L147.65 170.35 Q148.9 169.2 151.6 168.5 152.8 165.65 154.45 162.85 156.55 159.15 159.35 155.5 L161.0 153.45 184.15 146.5" fill="#000000" fill-rule="evenodd" stroke="none"/>
  </g>
</svg>
