<?xml version="1.0" encoding="UTF-8" standalone="no"?>
<svg xmlns:xlink="http://www.w3.org/1999/xlink" height="87.8px" width="232.4px" xmlns="http://www.w3.org/2000/svg">
  <g transform="matrix(1.0, 0.0, 0.0, 1.0, -150.25, -267.3)">
    <path d="M366.8 352.7 L199.75 292.55 Q199.15 294.0 199.75 295.55 200.7 297.85 199.35 299.85 198.65 301.05 198.05 300.55 197.8 300.25 197.8 299.8 197.65 297.95 196.25 296.25 194.05 293.9 193.2 291.4 L192.8 290.2 192.85 288.55 192.9 286.9 193.15 282.6 194.35 283.25 Q194.5 282.85 196.8 281.5 199.05 280.1 202.25 279.8 204.4 279.35 205.7 278.05 206.0 277.65 206.4 277.65 207.15 277.6 206.95 279.0 206.7 281.4 204.45 282.55 203.05 283.35 202.55 284.85 L369.2 346.2 Q378.85 350.0 382.35 354.4 L382.65 354.75 381.9 354.9 Q376.45 355.85 366.8 352.7 M157.3 270.0 Q159.45 270.1 159.6 270.55 L159.65 270.65 159.65 270.7 168.4 273.0 169.65 273.35 169.65 273.4 174.6 275.0 173.4 282.7 168.75 280.9 Q163.15 278.6 157.75 275.85 L157.7 275.9 Q157.25 276.15 155.55 274.8 L155.4 275.2 154.5 276.2 Q153.2 276.75 152.05 275.3 L151.2 274.0 Q149.75 271.95 150.5 270.25 151.0 268.5 153.45 267.85 L154.9 267.4 Q156.75 267.05 157.4 268.3 157.6 268.75 157.4 269.6 L157.3 270.0" fill="#000000" fill-rule="evenodd" stroke="none"/>
  </g>
</svg>
