<?xml version="1.0" encoding="UTF-8" standalone="no"?>
<svg xmlns:xlink="http://www.w3.org/1999/xlink" height="87.1px" width="192.7px" xmlns="http://www.w3.org/2000/svg">
  <g transform="matrix(1.0, 0.0, 0.0, 1.0, -161.0, -256.15)">
    <path d="M198.75 261.6 L198.5 261.1 Q197.95 260.05 198.35 259.0 198.75 257.95 199.85 257.45 L201.95 257.35 Q203.0 257.7 203.55 258.8 203.95 259.85 203.6 260.9 203.2 261.95 202.2 262.45 L200.85 262.75 200.05 262.6 Q199.2 262.3 198.75 261.6 199.2 262.3 200.05 262.6 L200.85 262.75 199.4 267.4 200.6 267.8 200.1 269.2 Q208.45 274.95 205.85 286.3 L352.7 342.25 204.25 290.7 Q198.95 301.05 188.85 300.1 L188.35 301.45 187.15 301.05 185.3 305.5 186.15 306.6 Q186.6 307.6 186.2 308.7 185.8 309.75 184.8 310.3 L182.65 310.35 Q181.55 309.95 181.1 308.95 180.55 307.8 181.0 306.75 181.35 305.7 182.45 305.25 L182.95 305.05 184.7 300.15 187.05 293.75 188.05 291.0 190.15 285.25 191.55 281.4 196.95 266.5 198.75 261.6 M167.35 270.55 L170.5 271.65 173.35 273.45 172.8 275.0 171.65 278.1 171.1 279.6 167.75 279.15 164.65 278.05 Q165.0 276.05 165.95 274.25 166.4 272.3 167.35 270.55 M196.95 266.5 L199.4 267.4 196.95 266.5 M170.5 271.65 L167.75 279.15 170.5 271.65 M200.1 269.2 L188.85 300.1 200.1 269.2 M185.3 305.5 L184.55 305.1 182.95 305.05 184.55 305.1 185.3 305.5 M187.15 301.05 L184.7 300.15 187.15 301.05 M204.25 290.7 L205.25 288.55 205.85 286.35 205.85 286.3 205.85 286.35 205.25 288.55 204.25 290.7" fill="url(#gradient0)" fill-rule="evenodd" stroke="none"/>
    <path d="M200.85 262.75 L202.2 262.45 Q203.2 261.95 203.6 260.9 203.95 259.85 203.55 258.8 203.0 257.7 201.95 257.35 L199.85 257.45 Q198.75 257.95 198.35 259.0 197.95 260.05 198.5 261.1 L198.75 261.6 196.95 266.5 191.55 281.4 Q183.55 274.8 172.8 275.0 L173.35 273.45 170.5 271.65 167.35 270.55 164.95 272.05 Q162.8 270.65 162.4 272.95 161.2 275.0 163.75 275.3 L164.65 278.05 Q163.9 281.45 164.85 285.4 171.8 299.45 187.05 293.75 L184.7 300.15 182.95 305.05 182.45 305.25 Q181.35 305.7 181.0 306.75 180.55 307.8 181.1 308.95 181.55 309.95 182.65 310.35 L184.8 310.3 Q185.8 309.75 186.2 308.7 186.6 307.6 186.15 306.6 L185.3 305.5 187.15 301.05 188.35 301.45 188.85 300.1 Q198.95 301.05 204.25 290.7 L352.7 342.25 205.85 286.3 Q208.45 274.95 200.1 269.2 L200.6 267.8 199.4 267.4 200.85 262.75 M167.75 279.15 L171.1 279.6 171.65 278.1 Q179.75 285.15 190.15 285.25 L188.05 291.0 Q171.85 296.95 167.05 283.55 166.2 281.05 167.75 279.15" fill="none" stroke="#000000" stroke-linecap="round" stroke-linejoin="round" stroke-width="2.0"/>
    <path d="M198.75 261.6 Q199.2 262.3 200.05 262.6 L200.85 262.75 M199.4 267.4 L196.95 266.5 M167.35 270.55 Q166.4 272.3 165.95 274.25 165.0 276.05 164.65 278.05 L167.75 279.15 170.5 271.65 M171.65 278.1 L172.8 275.0 M191.55 281.4 L190.15 285.25 M188.05 291.0 L187.05 293.75 M163.75 275.3 L164.95 272.05 M205.85 286.3 L205.85 286.35 205.25 288.55 204.25 290.7 M184.7 300.15 L187.15 301.05 M182.95 305.05 L184.55 305.1 185.3 305.5 M188.85 300.1 L200.1 269.2" fill="none" stroke="#000000" stroke-linecap="round" stroke-linejoin="round" stroke-width="1.0"/>
  </g>
  <defs>
    <linearGradient gradientTransform="matrix(-0.0038, 0.0103, -0.0965, -0.0357, 272.55, 314.55)" gradientUnits="userSpaceOnUse" id="gradient0" spreadMethod="pad" x1="-819.2" x2="819.2">
      <stop offset="0.0" stop-color="#000000" stop-opacity="0.0"/>
      <stop offset="1.0" stop-color="#000000" stop-opacity="0.2509804"/>
    </linearGradient>
  </defs>
</svg>
