<?xml version="1.0" encoding="UTF-8" standalone="no"?>
<svg xmlns:xlink="http://www.w3.org/1999/xlink" height="127.75px" width="373.05px" xmlns="http://www.w3.org/2000/svg">
  <g transform="matrix(1.0, 0.0, 0.0, 1.0, -44.1, -228.9)">
    <path d="M302.4 325.15 L359.35 344.4 Q378.5 350.8 393.25 350.9 402.1 351.0 409.4 348.8 L416.15 348.35 Q407.75 355.45 393.4 355.65 375.7 355.8 349.1 345.55 L301.35 328.4 302.35 325.25 302.4 325.15" fill="#ffffff" fill-opacity="0.2509804" fill-rule="evenodd" stroke="none"/>
    <path d="M54.5 234.7 L250.1 306.05 250.05 306.2 Q249.1 308.65 249.15 309.8 L53.85 238.15 Q53.8 236.7 54.4 235.0 L54.5 234.7 M290.4 320.75 L290.35 320.9 Q289.45 323.3 289.35 324.55 L254.0 311.55 Q253.95 310.45 254.85 308.0 L254.9 307.85 290.4 320.75" fill="#000000" fill-opacity="0.2509804" fill-rule="evenodd" stroke="none"/>
    <path d="M409.4 348.8 Q402.1 351.0 393.25 350.9 378.5 350.8 359.35 344.4 L302.4 325.15 302.6 324.6 303.5 322.45 352.25 338.75 Q382.9 349.65 409.4 348.8" fill="url(#gradient0)" fill-rule="evenodd" stroke="none"/>
    <path d="M49.0 231.05 Q48.55 231.3 48.15 232.4 L48.05 232.65 Q47.55 233.95 47.7 234.55 M294.15 332.0 Q293.1 331.1 296.05 322.95 L296.1 322.85 Q299.05 314.8 300.4 314.8" fill="none" stroke="#000000" stroke-linecap="round" stroke-linejoin="round" stroke-width="0.5"/>
    <path d="M302.4 325.15 L302.35 325.25 301.35 328.4 M303.5 322.45 L302.6 324.6 302.4 325.15 M56.0 232.25 Q55.1 233.2 54.5 234.7 L54.4 235.0 Q53.8 236.7 53.85 238.15 M250.1 306.05 Q250.9 303.7 251.65 302.9 M249.15 309.8 Q249.1 308.65 250.05 306.2 L250.1 306.05 M49.9 235.35 L50.4 233.6 50.5 233.25 51.2 231.85 M290.4 320.75 L290.35 320.9 Q289.45 323.3 289.35 324.55 M293.75 326.4 L295.05 322.6 295.1 322.45 296.5 318.85 M291.95 317.45 Q291.2 318.45 290.4 320.75 M254.9 307.85 L254.85 308.0 Q253.95 310.45 254.0 311.55 M299.7 320.3 L298.7 319.95 Q298.05 321.1 297.3 323.3 L297.25 323.4 296.15 327.0 297.1 327.35 M254.9 307.85 Q255.75 305.45 256.5 304.65" fill="none" stroke="#000000" stroke-linecap="round" stroke-linejoin="round" stroke-width="1.0"/>
    <path d="M409.4 348.8 Q402.1 351.0 393.25 350.9 378.5 350.8 359.35 344.4 L302.4 325.15" fill="none" stroke="#000000" stroke-linecap="round" stroke-linejoin="round" stroke-opacity="0.5019608" stroke-width="0.5"/>
    <path d="M301.35 328.4 L349.1 345.55 Q375.7 355.8 393.4 355.65 407.75 355.45 416.15 348.35 L409.4 348.8 Q382.9 349.65 352.25 338.75 L303.5 322.45 303.65 322.1 303.8 321.8 299.7 320.3 Q301.15 315.45 300.4 314.8 L299.4 314.45 Q298.4 314.45 296.5 318.85 L292.1 317.25 291.95 317.45 256.5 304.65 Q254.4 302.75 251.65 302.9 M53.85 238.15 L53.85 238.4 49.8 236.95 49.9 235.35 Q48.95 234.55 47.7 234.55 L47.55 235.0 Q46.75 235.55 46.1 234.6 44.8 232.7 45.2 231.65 L45.35 231.35 Q45.85 230.5 47.8 230.0 48.95 229.7 49.15 230.6 L49.0 231.05 Q49.95 231.85 51.2 231.85 L52.1 230.6 56.15 232.05 56.0 232.25 M289.35 324.55 L289.35 324.8 293.75 326.4 Q292.35 330.95 293.15 331.65 L294.15 332.0 Q295.15 331.95 297.1 327.35 L301.25 328.85 301.35 328.5 301.35 328.4 M254.0 311.55 L289.35 324.55 M254.0 311.55 Q251.15 311.65 249.15 309.8" fill="none" stroke="#000000" stroke-linecap="round" stroke-linejoin="round" stroke-width="2.0"/>
    <path d="M56.0 232.25 L251.65 302.9 M249.15 309.8 L53.85 238.15" fill="none" stroke="#000000" stroke-linecap="round" stroke-linejoin="round" stroke-width="2.0"/>
  </g>
  <defs>
    <linearGradient gradientTransform="matrix(-0.0018, 0.0054, -0.0612, -0.0197, 353.3, 341.8)" gradientUnits="userSpaceOnUse" id="gradient0" spreadMethod="pad" x1="-819.2" x2="819.2">
      <stop offset="0.0" stop-color="#000000" stop-opacity="0.0"/>
      <stop offset="1.0" stop-color="#000000" stop-opacity="0.2509804"/>
    </linearGradient>
  </defs>
</svg>
