<?xml version="1.0" encoding="UTF-8" standalone="no"?>
<svg xmlns:xlink="http://www.w3.org/1999/xlink" height="53.9px" width="127.8px" xmlns="http://www.w3.org/2000/svg">
  <g transform="matrix(1.0, 0.0, 0.0, 1.0, -144.15, -265.7)">
    <path d="M144.5 268.4 L144.65 268.0 Q145.45 266.25 147.05 265.7 L152.95 267.7 Q151.7 268.65 151.0 270.35 L150.85 270.75 Q150.15 272.7 150.5 274.35 L144.7 272.15 Q143.75 270.55 144.5 268.4 M206.45 290.95 L206.55 290.7 Q207.45 288.1 208.95 286.75 L271.95 308.5 Q269.9 310.15 268.75 313.55 L268.7 313.6 Q267.4 316.95 267.9 319.6 L205.65 295.8 Q205.35 293.75 206.45 290.95" fill="#000000" fill-rule="evenodd" stroke="none"/>
  </g>
</svg>
