<?xml version="1.0" encoding="UTF-8" standalone="no"?>
<svg xmlns:xlink="http://www.w3.org/1999/xlink" height="73.95px" width="105.45px" xmlns="http://www.w3.org/2000/svg">
  <g transform="matrix(1.0, 0.0, 0.0, 1.0, -142.9, -257.55)">
    <path d="M146.8 270.8 L145.25 269.8 145.25 265.55 Q146.55 261.2 150.15 258.95 L154.65 257.55 161.25 261.95 161.25 264.0 175.25 271.35 Q174.15 277.3 173.4 282.65 L155.9 273.4 153.45 275.1 152.3 274.4 Q149.5 287.1 151.9 300.25 147.0 302.05 143.35 299.6 141.55 285.65 146.8 270.8 M149.85 263.15 L149.6 263.5 153.45 265.35 Q152.35 266.8 152.15 267.45 L152.75 267.3 153.35 266.9 153.45 266.75 Q154.2 266.0 154.2 264.95 154.2 263.9 153.45 263.15 152.7 262.4 151.65 262.4 150.6 262.4 149.85 263.15 M149.15 265.05 L149.1 265.15 149.4 264.3 149.6 263.5 Q149.15 264.05 149.1 264.8 L149.1 264.95 149.15 265.05 M248.35 289.4 L232.9 327.85 228.55 330.95 218.6 331.5 200.0 320.25 199.65 315.7 206.35 300.0 192.75 292.85 192.8 287.15 Q192.95 283.85 193.25 280.9 L210.55 290.05 216.55 276.0 220.3 274.9 229.2 276.75 247.45 286.55 248.35 289.4 M171.4 275.45 L171.45 275.55 171.55 275.55 171.4 275.45 M232.85 312.8 L232.6 312.9 233.1 313.05 232.85 312.8" fill="#000000" fill-rule="evenodd" stroke="none"/>
  </g>
</svg>
