<?xml version="1.0" encoding="UTF-8" standalone="no"?>
<svg xmlns:xlink="http://www.w3.org/1999/xlink" height="55.2px" width="52.75px" xmlns="http://www.w3.org/2000/svg">
  <g transform="matrix(1.0, 0.0, 0.0, 1.0, -167.15, -260.65)">
    <path d="M168.1 280.1 L168.15 280.1 177.85 281.85 186.7 288.3 Q184.45 288.7 182.75 290.3 L168.1 280.1" fill="url(#gradient0)" fill-rule="evenodd" stroke="none"/>
    <path d="M168.15 280.1 L185.35 275.55 Q186.4 277.6 188.35 278.75 L177.85 281.85 168.15 280.1" fill="url(#gradient1)" fill-rule="evenodd" stroke="none"/>
    <path d="M188.35 278.75 Q193.0 280.25 195.75 277.05 199.95 277.75 202.5 273.6 L212.55 269.2 209.95 279.85 Q206.3 283.1 207.7 287.1 205.0 290.35 207.3 294.65 L206.15 305.55 198.25 298.0 Q197.2 293.2 193.05 292.45 191.55 288.45 186.7 288.3 L177.85 281.85 188.35 278.75 M200.95 283.05 Q199.9 282.15 198.55 282.25 L197.7 282.45 Q196.9 282.75 196.35 283.45 195.75 284.1 195.6 284.95 L195.6 285.8 Q195.7 287.15 196.75 288.05 197.75 288.9 199.15 288.8 L199.95 288.6 201.35 287.65 202.05 286.1 202.1 285.25 Q201.95 283.9 200.95 283.05" fill="url(#gradient2)" fill-rule="evenodd" stroke="none"/>
    <path d="M202.5 273.6 Q203.25 271.45 202.8 269.2 L218.9 261.65 212.55 269.2 202.5 273.6" fill="url(#gradient3)" fill-rule="evenodd" stroke="none"/>
    <path d="M218.9 261.65 L214.25 278.8 Q211.9 278.7 209.95 279.85 L212.55 269.2 218.9 261.65" fill="url(#gradient4)" fill-rule="evenodd" stroke="none"/>
    <path d="M209.5 314.8 L209.5 314.85 196.95 302.2 Q198.2 300.25 198.25 298.0 L206.15 305.55 209.5 314.8" fill="url(#gradient5)" fill-rule="evenodd" stroke="none"/>
    <path d="M207.3 294.65 Q208.8 296.35 211.0 297.1 L209.5 314.8 206.15 305.55 207.3 294.65" fill="url(#gradient6)" fill-rule="evenodd" stroke="none"/>
    <path d="M168.1 280.1 L168.15 280.1 M209.5 314.8 L209.5 314.85" fill="none" stroke="#000000" stroke-linecap="round" stroke-linejoin="round" stroke-width="0.5"/>
    <path d="M185.35 275.55 Q186.4 277.6 188.35 278.75 193.0 280.25 195.75 277.05 199.95 277.75 202.5 273.6 203.25 271.45 202.8 269.2 L218.9 261.65 214.25 278.8 Q211.9 278.7 209.95 279.85 206.3 283.1 207.7 287.1 205.0 290.35 207.3 294.65 208.8 296.35 211.0 297.1 L209.5 314.8 M209.5 314.85 L196.95 302.2 Q198.2 300.25 198.25 298.0 197.2 293.2 193.05 292.45 191.55 288.45 186.7 288.3 184.45 288.7 182.75 290.3" fill="none" stroke="#000000" stroke-linecap="round" stroke-linejoin="round" stroke-width="2.0"/>
    <path d="M200.95 283.05 Q201.95 283.9 202.1 285.25 L202.05 286.1 201.35 287.65 199.95 288.6 199.15 288.8 Q197.75 288.9 196.75 288.05 195.7 287.15 195.6 285.8 L195.6 284.95 Q195.75 284.1 196.35 283.45 196.9 282.75 197.7 282.45 L198.55 282.25 Q199.9 282.15 200.95 283.05" fill="none" stroke="#000000" stroke-linecap="round" stroke-linejoin="round" stroke-width="1.0"/>
    <path d="M168.15 280.1 L177.85 281.85 188.35 278.75 M177.85 281.85 L186.7 288.3 M212.55 269.2 L218.9 261.65 M202.5 273.6 L212.55 269.2 209.95 279.85 M206.15 305.55 L209.5 314.8 M206.15 305.55 L198.25 298.0 M207.3 294.65 L206.15 305.55" fill="none" stroke="#000000" stroke-linecap="round" stroke-linejoin="round" stroke-opacity="0.5019608" stroke-width="0.5"/>
    <path d="M182.75 290.3 L168.15 280.1 185.35 275.55" fill="none" stroke="#000000" stroke-linecap="round" stroke-linejoin="round" stroke-width="2.0"/>
  </g>
  <defs>
    <linearGradient gradientTransform="matrix(0.0, 0.0022, -0.0114, 0.0, 177.4, 285.45)" gradientUnits="userSpaceOnUse" id="gradient0" spreadMethod="pad" x1="-819.2" x2="819.2">
      <stop offset="0.0" stop-color="#000000" stop-opacity="0.0"/>
      <stop offset="1.0" stop-color="#000000" stop-opacity="0.2509804"/>
    </linearGradient>
    <linearGradient gradientTransform="matrix(0.0, 0.001, -0.0123, 0.0, 178.25, 278.95)" gradientUnits="userSpaceOnUse" id="gradient1" spreadMethod="pad" x1="-819.2" x2="819.2">
      <stop offset="0.0" stop-color="#000000" stop-opacity="0.0"/>
      <stop offset="1.0" stop-color="#000000" stop-opacity="0.2509804"/>
    </linearGradient>
    <linearGradient gradientTransform="matrix(0.011, 0.003, -0.0058, 0.0217, 196.35, 283.85)" gradientUnits="userSpaceOnUse" id="gradient2" spreadMethod="pad" x1="-819.2" x2="819.2">
      <stop offset="0.0" stop-color="#000000" stop-opacity="0.0"/>
      <stop offset="1.0" stop-color="#000000" stop-opacity="0.2509804"/>
    </linearGradient>
    <linearGradient gradientTransform="matrix(0.0011, -6.0E-4, 0.0014, 0.0025, 210.7, 267.5)" gradientUnits="userSpaceOnUse" id="gradient3" spreadMethod="pad" x1="-819.2" x2="819.2">
      <stop offset="0.0" stop-color="#000000" stop-opacity="0.0"/>
      <stop offset="1.0" stop-color="#000000" stop-opacity="0.2509804"/>
    </linearGradient>
    <linearGradient gradientTransform="matrix(0.0013, 0.0, 0.0, 0.0111, 214.8, 270.75)" gradientUnits="userSpaceOnUse" id="gradient4" spreadMethod="pad" x1="-819.2" x2="819.2">
      <stop offset="0.0" stop-color="#000000" stop-opacity="0.0"/>
      <stop offset="1.0" stop-color="#000000" stop-opacity="0.2509804"/>
    </linearGradient>
    <linearGradient gradientTransform="matrix(0.0014, 4.0E-4, -0.0021, 0.0078, 198.6, 304.9)" gradientUnits="userSpaceOnUse" id="gradient5" spreadMethod="pad" x1="-819.2" x2="819.2">
      <stop offset="0.0" stop-color="#000000" stop-opacity="0.0"/>
      <stop offset="1.0" stop-color="#000000" stop-opacity="0.2509804"/>
    </linearGradient>
    <linearGradient gradientTransform="matrix(0.0012, -0.0012, 0.0068, 0.0068, 211.45, 301.6)" gradientUnits="userSpaceOnUse" id="gradient6" spreadMethod="pad" x1="-819.2" x2="819.2">
      <stop offset="0.0" stop-color="#000000" stop-opacity="0.0"/>
      <stop offset="1.0" stop-color="#000000" stop-opacity="0.2509804"/>
    </linearGradient>
  </defs>
</svg>
