<?xml version="1.0" encoding="UTF-8" standalone="no"?>
<svg xmlns:xlink="http://www.w3.org/1999/xlink" height="32.2px" width="75.85px" xmlns="http://www.w3.org/2000/svg">
  <g transform="matrix(1.0, 0.0, 0.0, 1.0, -125.6, -257.75)">
    <path d="M161.15 270.1 L161.2 270.15 Q170.9 275.5 180.5 279.25 L181.9 277.75 Q173.6 274.55 165.55 269.8 159.9 266.5 154.45 262.5 L153.5 265.6 Q157.3 267.95 161.15 270.1 M142.9 263.85 L148.6 263.55 149.6 260.75 Q141.05 260.2 133.9 264.95 L133.25 267.7 Q138.4 264.75 142.9 263.85 M152.1 258.85 Q151.3 264.35 149.95 269.65 L149.7 270.45 149.4 271.65 Q147.5 278.25 144.65 284.55 L142.85 288.25 144.65 284.55 Q147.5 278.25 149.4 271.65 L149.7 270.45 149.95 269.65 Q151.3 264.35 152.1 258.85 159.7 265.1 167.6 269.7 181.15 277.6 195.6 280.55 196.65 278.8 198.35 281.05 L198.55 281.7 198.7 282.55 Q199.05 285.2 197.6 287.75 L197.3 288.3 197.0 288.7 194.5 288.6 Q194.05 288.2 193.95 287.5 L193.45 287.3 187.6 286.55 Q164.65 284.0 142.85 288.25 136.65 286.0 132.15 279.95 130.2 277.35 128.55 274.05 127.7 274.05 126.6 273.15 127.3 269.45 128.5 266.35 129.4 264.1 130.55 262.2 131.55 262.0 132.1 262.75 141.9 258.1 152.1 258.85 M128.55 274.05 L129.95 271.65 Q131.75 267.75 132.1 262.75 131.75 267.75 129.95 271.65 L128.55 274.05 M193.8 283.6 L194.55 281.75 Q189.85 280.6 185.3 279.0 L183.55 280.4 193.8 283.6" fill="url(#gradient0)" fill-rule="evenodd" stroke="none"/>
    <path d="M161.15 270.1 Q157.3 267.95 153.5 265.6 L154.45 262.5 Q159.9 266.5 165.55 269.8 173.6 274.55 181.9 277.75 L180.5 279.25 Q170.9 275.5 161.2 270.15 L161.15 270.1 M142.9 263.85 Q138.4 264.75 133.25 267.7 L133.9 264.95 Q141.05 260.2 149.6 260.75 L148.6 263.55 142.9 263.85 M193.8 283.6 L183.55 280.4 185.3 279.0 Q189.85 280.6 194.55 281.75 L193.8 283.6" fill="#ffffff" fill-opacity="0.2509804" fill-rule="evenodd" stroke="none"/>
    <path d="M197.3 288.3 L197.6 287.75 Q199.05 285.2 198.7 282.55 L198.55 281.7 200.4 282.0 200.4 282.1 Q200.7 285.0 199.5 287.25 L198.6 288.6 197.3 288.3" fill="#000000" fill-opacity="0.2509804" fill-rule="evenodd" stroke="none"/>
    <path d="M142.85 288.25 L144.65 284.55 Q147.5 278.25 149.4 271.65 L149.7 270.45 149.95 269.65 Q151.3 264.35 152.1 258.85 M132.1 262.75 Q131.75 267.75 129.95 271.65 L128.55 274.05 M197.3 288.3 L197.6 287.75 Q199.05 285.2 198.7 282.55 L198.55 281.7" fill="none" stroke="#000000" stroke-linecap="round" stroke-linejoin="round" stroke-width="1.0"/>
    <path d="M152.1 258.85 Q141.9 258.1 132.1 262.75 131.55 262.0 130.55 262.2 129.4 264.1 128.5 266.35 127.3 269.45 126.6 273.15 127.7 274.05 128.55 274.05 130.2 277.35 132.15 279.95 136.65 286.0 142.85 288.25 164.65 284.0 187.6 286.55 L193.45 287.3 193.95 287.5 Q194.05 288.2 194.5 288.6 L197.0 288.7 197.3 288.3 198.6 288.6 199.5 287.25 Q200.7 285.0 200.4 282.1 L200.4 282.0 198.55 281.7 198.35 281.05 Q196.65 278.8 195.6 280.55 181.15 277.6 167.6 269.7 159.7 265.1 152.1 258.85 Z" fill="none" stroke="#000000" stroke-linecap="round" stroke-linejoin="round" stroke-width="2.0"/>
  </g>
  <defs>
    <linearGradient gradientTransform="matrix(0.0037, -0.0142, 0.0314, 0.0083, 172.85, 278.55)" gradientUnits="userSpaceOnUse" id="gradient0" spreadMethod="pad" x1="-819.2" x2="819.2">
      <stop offset="0.0" stop-color="#000000" stop-opacity="0.0"/>
      <stop offset="1.0" stop-color="#000000" stop-opacity="0.2509804"/>
    </linearGradient>
  </defs>
</svg>
