<?xml version="1.0" encoding="UTF-8" standalone="no"?>
<svg xmlns:xlink="http://www.w3.org/1999/xlink" height="162.9px" width="137.8px" xmlns="http://www.w3.org/2000/svg">
  <g transform="matrix(1.0, 0.0, 0.0, 1.0, -77.85, -157.15)">
    <path d="M133.65 244.95 L132.9 245.2 Q121.0 248.9 107.65 252.45 114.3 263.8 122.3 273.1 124.85 276.05 127.55 278.8 L128.0 279.25 133.1 284.1 Q151.9 300.9 176.8 308.35 L151.55 239.0 151.5 239.0 147.5 240.4 147.45 240.45 140.95 242.6 133.65 244.95 M164.55 234.25 L164.55 234.3 189.8 303.6 Q204.05 281.9 207.65 256.95 L208.45 249.95 208.5 249.35 208.85 241.55 Q209.0 229.3 206.85 216.35 194.3 222.2 182.8 227.05 L182.1 227.3 175.0 230.2 Q171.75 231.5 168.65 232.75 L168.6 232.75 168.55 232.75 164.6 234.25 164.55 234.25 M143.3 229.0 L143.35 229.0 147.4 227.6 128.85 176.6 Q114.65 191.9 98.4 200.35 93.8 202.7 89.0 204.55 L87.7 205.05 97.8 232.8 101.75 241.5 102.5 241.3 Q116.3 237.6 128.55 233.8 L128.75 233.75 136.55 231.3 143.3 229.0 M185.95 160.25 Q191.1 158.95 196.05 157.15 L207.55 188.7 210.9 201.05 212.25 207.15 213.35 213.25 Q216.0 228.85 215.6 243.55 L215.2 251.3 214.35 258.9 Q210.2 288.0 193.3 313.2 L188.4 320.05 180.3 317.95 Q151.15 309.5 129.25 289.85 L123.7 284.55 118.4 278.95 Q108.65 267.95 100.65 254.3 L97.6 248.85 94.7 243.3 Q91.85 237.7 89.35 231.75 L77.85 200.2 Q82.75 198.35 87.55 196.05 107.85 186.2 125.35 167.05 L130.55 161.05 138.35 162.3 Q164.05 165.75 185.95 160.25 M180.5 170.45 L180.4 170.5 Q162.55 174.5 141.85 171.85 L160.4 222.85 164.4 221.35 164.45 221.3 171.1 218.7 178.65 215.6 178.8 215.55 Q190.65 210.55 203.6 204.5 L204.3 204.2 201.75 194.95 191.65 167.2 190.35 167.65 Q185.5 169.3 180.5 170.45" fill="#000000" fill-rule="evenodd" stroke="none"/>
  </g>
</svg>
