<?xml version="1.0" encoding="UTF-8" standalone="no"?>
<svg xmlns:xlink="http://www.w3.org/1999/xlink" height="164.9px" width="139.8px" xmlns="http://www.w3.org/2000/svg">
  <g transform="matrix(1.0, 0.0, 0.0, 1.0, -76.85, -156.15)">
    <path d="M194.6 175.35 L201.75 194.95 204.3 204.2 205.65 210.25 205.85 211.15 206.85 216.35 Q209.0 229.3 208.85 241.55 L208.5 249.35 208.45 249.95 207.65 256.95 Q204.05 281.9 189.8 303.6 L184.95 310.45 176.8 308.35 Q151.9 300.9 133.1 284.1 L128.0 279.25 127.55 278.8 Q124.85 276.05 122.3 273.1 114.3 263.8 107.65 252.45 L105.05 247.85 104.6 247.05 101.75 241.5 97.8 232.8 90.65 213.2 87.7 205.05 89.0 204.55 Q93.8 202.7 98.4 200.35 114.65 191.9 128.85 176.6 L134.05 170.65 141.85 171.85 Q162.55 174.5 180.4 170.5 L180.5 170.45 Q185.5 169.3 190.35 167.65 L191.65 167.2 194.6 175.35 166.55 227.05 194.6 175.35 M166.55 227.1 L166.55 227.05 166.5 227.05 166.55 227.1 175.0 230.2 183.0 233.1 183.8 233.35 Q197.15 238.05 208.85 241.55 197.15 238.05 183.8 233.35 L183.0 233.1 175.0 230.2 166.55 227.1 M145.35 234.75 L145.4 234.8 145.45 234.75 145.35 234.75 90.65 213.2 145.35 234.75 M182.5 248.7 L167.9 243.45 159.35 240.25 154.9 248.2 147.1 261.6 146.95 261.85 Q139.75 273.95 133.1 284.1 139.75 273.95 146.95 261.85 L147.1 261.6 154.9 248.2 159.35 240.25 167.9 243.45 182.5 248.7 182.75 248.8 182.5 248.7 M98.4 200.35 L152.65 221.75 180.4 170.5 152.65 221.75 98.4 200.35 M122.3 273.1 Q129.0 262.85 136.25 250.65 L136.65 249.95 140.95 242.6 145.4 234.8 140.95 242.6 136.65 249.95 136.25 250.65 Q129.0 262.85 122.3 273.1 M207.65 256.95 Q196.05 253.45 182.75 248.8 196.05 253.45 207.65 256.95" fill="url(#gradient0)" fill-rule="evenodd" stroke="none"/>
    <path d="M185.95 160.25 Q164.05 165.75 138.35 162.3 L130.55 161.05 125.35 167.05 Q107.85 186.2 87.55 196.05 82.75 198.35 77.85 200.2 L89.35 231.75 Q91.85 237.7 94.7 243.3 L97.6 248.85 100.65 254.3 Q108.65 267.95 118.4 278.95 L123.7 284.55 129.25 289.85 Q151.15 309.5 180.3 317.95 L188.4 320.05 193.3 313.2 Q210.2 288.0 214.35 258.9 L215.2 251.3 215.6 243.55 Q216.0 228.85 213.35 213.25 L212.25 207.15 210.9 201.05 207.55 188.7 196.05 157.15 Q191.1 158.95 185.95 160.25" fill="none" stroke="#000000" stroke-linecap="round" stroke-linejoin="round" stroke-width="2.0"/>
    <path d="M194.6 175.35 L201.75 194.95 204.3 204.2 205.65 210.25 205.85 211.15 206.85 216.35 Q209.0 229.3 208.85 241.55 L208.5 249.35 208.45 249.95 207.65 256.95 Q204.05 281.9 189.8 303.6 L184.95 310.45 176.8 308.35 Q151.9 300.9 133.1 284.1 L128.0 279.25 127.55 278.8 Q124.85 276.05 122.3 273.1 114.3 263.8 107.65 252.45 L105.05 247.85 104.6 247.05 101.75 241.5 97.8 232.8 90.65 213.2 87.7 205.05 89.0 204.55 Q93.8 202.7 98.4 200.35 114.65 191.9 128.85 176.6 L134.05 170.65 141.85 171.85 Q162.55 174.5 180.4 170.5 L180.5 170.45 Q185.5 169.3 190.35 167.65 L191.65 167.2 194.6 175.35 166.55 227.05 166.55 227.1 175.0 230.2 183.0 233.1 183.8 233.35 Q197.15 238.05 208.85 241.55 M145.4 234.8 L145.45 234.75 145.35 234.75 90.65 213.2 M145.35 234.75 L145.45 234.75 M166.55 227.05 L166.5 227.05 166.55 227.1 M133.1 284.1 Q139.75 273.95 146.95 261.85 L147.1 261.6 154.9 248.2 159.35 240.25 167.9 243.45 182.5 248.7 182.75 248.8 Q196.05 253.45 207.65 256.95 M145.4 234.8 L140.95 242.6 136.65 249.95 136.25 250.65 Q129.0 262.85 122.3 273.1 M180.4 170.5 L152.65 221.75 98.4 200.35" fill="none" stroke="#000000" stroke-linecap="round" stroke-linejoin="round" stroke-opacity="0.5019608" stroke-width="0.5"/>
  </g>
  <defs>
    <radialGradient cx="0" cy="0" gradientTransform="matrix(0.1473, 0.0, 0.0, 0.1473, 121.35, 208.15)" gradientUnits="userSpaceOnUse" id="gradient0" r="819.2" spreadMethod="pad">
      <stop offset="0.0" stop-color="#000000" stop-opacity="0.0"/>
      <stop offset="1.0" stop-color="#000000" stop-opacity="0.2509804"/>
    </radialGradient>
  </defs>
</svg>
