<?xml version="1.0" encoding="UTF-8" standalone="no"?>
<svg xmlns:xlink="http://www.w3.org/1999/xlink" height="11.05px" width="7.8px" xmlns="http://www.w3.org/2000/svg">
  <g transform="matrix(1.0, 0.0, 0.0, 1.0, -225.35, -170.2)">
    <path d="M230.75 174.35 Q230.2 173.8 229.45 173.8 228.7 173.8 228.15 174.35 L227.8 174.85 Q227.6 175.2 227.65 175.65 227.6 176.4 228.15 176.95 228.7 177.45 229.45 177.45 230.2 177.45 230.75 176.95 231.25 176.4 231.25 175.65 L231.1 174.85 230.75 174.35 M231.6 172.5 L232.0 172.85 Q232.9 173.75 233.1 174.95 L233.15 175.6 Q233.15 177.25 232.0 178.4 L231.25 179.0 232.4 181.25 226.1 181.25 227.35 179.05 226.5 178.4 Q225.35 177.25 225.35 175.6 L225.4 174.95 Q225.55 173.75 226.5 172.85 L227.0 172.4 225.7 170.2 233.05 170.2 231.6 172.5" fill="#000000" fill-rule="evenodd" stroke="none"/>
  </g>
</svg>
