<?xml version="1.0" encoding="UTF-8" standalone="no"?>
<svg xmlns:xlink="http://www.w3.org/1999/xlink" height="75.3px" width="97.1px" xmlns="http://www.w3.org/2000/svg">
  <g transform="matrix(1.0, 0.0, 0.0, 1.0, -163.35, -224.55)">
    <path d="M248.05 246.35 Q247.85 252.15 248.7 256.25 L248.7 256.4 Q249.75 261.55 252.45 263.85 251.35 252.6 259.2 244.95 255.55 254.6 257.45 262.4 261.55 270.4 260.05 278.05 255.2 295.9 240.75 293.15 232.9 291.55 229.3 284.0 228.35 282.0 227.75 279.65 226.15 273.95 227.5 267.35 L227.75 267.35 Q228.25 270.8 232.9 274.1 L233.05 273.95 Q238.55 267.25 236.35 257.55 L236.0 256.1 Q233.45 247.1 235.95 238.8 235.95 244.9 237.0 249.2 238.3 254.9 241.45 257.3 246.45 241.95 244.05 225.75 248.3 235.65 248.05 246.35 M184.6 224.55 Q184.05 227.75 183.8 230.9 183.55 234.2 183.6 237.5 L183.6 237.9 Q183.9 248.9 188.0 259.6 195.05 254.95 195.1 239.05 198.3 248.25 195.05 258.3 191.8 268.35 196.85 275.6 L199.05 278.25 Q200.95 277.1 202.3 275.95 205.25 273.4 205.7 270.8 L206.05 270.7 Q207.8 278.05 205.8 284.4 203.9 290.25 200.25 293.9 195.85 298.2 188.9 299.45 170.15 302.5 163.85 282.7 161.95 274.15 167.25 265.25 169.65 256.65 165.0 245.9 175.15 254.4 173.75 266.9 179.95 262.25 179.45 247.4 179.15 237.65 182.8 228.5 L184.6 224.55" fill="#000000" fill-rule="evenodd" stroke="none"/>
  </g>
</svg>
