<?xml version="1.0" encoding="UTF-8" standalone="no"?>
<svg xmlns:xlink="http://www.w3.org/1999/xlink" height="233.9px" width="87.8px" xmlns="http://www.w3.org/2000/svg">
  <g transform="matrix(1.0, 0.0, 0.0, 1.0, -356.0, -308.5)">
    <path d="M380.15 308.5 Q390.05 312.45 399.9 312.3 409.75 312.45 419.65 308.5 428.85 318.25 432.45 330.85 440.4 358.4 425.95 424.95 435.95 449.8 434.1 467.25 430.85 494.1 437.8 512.15 L441.4 519.45 Q445.55 527.9 442.55 536.1 441.55 532.5 440.4 529.65 439.0 526.2 437.4 523.8 432.25 516.6 423.9 522.05 419.9 525.05 418.4 534.05 418.0 536.5 417.75 539.4 L415.1 542.3 415.9 526.65 412.3 533.0 413.45 519.65 410.45 527.0 Q409.25 525.55 411.55 511.6 L411.55 510.55 Q411.4 491.75 406.85 471.85 401.25 454.95 408.8 425.55 L403.0 350.4 396.8 350.4 391.0 425.55 Q398.55 455.05 392.95 471.95 388.4 491.85 388.25 510.65 L388.25 511.7 Q390.55 525.65 389.35 527.1 L386.35 519.75 387.5 533.1 383.9 526.75 384.7 542.4 382.05 539.5 381.4 534.15 Q379.9 525.15 375.9 522.15 367.55 516.7 362.4 523.9 360.8 526.3 359.4 529.75 358.25 532.6 357.25 536.2 354.25 528.0 358.4 519.55 L362.0 512.25 Q368.95 494.2 365.7 467.35 363.85 449.9 373.9 425.0 359.4 358.4 367.35 330.85 370.95 318.25 380.15 308.5" fill="#000000" fill-rule="evenodd" stroke="none"/>
  </g>
</svg>
