<?xml version="1.0" encoding="UTF-8" standalone="no"?>
<svg xmlns:xlink="http://www.w3.org/1999/xlink" height="237.0px" width="83.2px" xmlns="http://www.w3.org/2000/svg">
  <g transform="matrix(1.0, 0.0, 0.0, 1.0, -358.2, -312.6)">
    <path d="M404.9 317.25 L407.2 317.25 Q409.05 313.0 413.45 312.6 422.3 312.5 426.1 322.05 427.5 329.05 419.55 335.4 L419.5 335.4 421.95 339.9 Q424.6 338.85 426.4 341.0 427.7 342.55 428.6 345.8 L428.8 346.2 Q431.75 352.4 427.1 359.1 L422.2 406.45 Q421.55 412.25 422.5 418.0 423.15 421.75 424.45 425.45 427.35 434.1 422.0 434.45 L421.65 435.35 421.55 435.55 424.2 435.15 Q425.15 437.65 425.1 441.0 426.45 442.75 426.6 446.6 426.8 450.05 425.9 455.25 L424.6 501.75 424.5 504.05 424.2 505.5 424.1 505.7 424.15 505.75 Q423.25 508.75 423.9 511.6 L440.0 538.4 441.4 543.75 Q440.9 544.95 439.7 544.25 L440.3 545.4 Q439.15 546.65 437.85 546.4 437.2 547.3 435.8 546.9 L435.4 546.8 435.7 547.35 Q434.05 549.4 431.7 548.2 430.1 550.75 426.4 548.6 L424.6 541.85 423.2 532.35 418.05 520.7 Q417.3 517.8 417.7 514.75 L417.75 514.2 418.9 507.5 Q417.65 505.4 418.4 501.55 418.55 476.95 415.7 452.5 414.05 448.95 413.1 446.15 411.65 441.95 411.65 439.55 411.7 437.6 412.75 436.85 L414.7 436.55 414.25 435.7 414.0 435.25 412.45 435.45 411.5 435.4 Q407.65 434.95 409.85 428.15 L409.9 427.8 Q412.1 423.0 413.55 418.0 415.15 412.75 415.9 407.25 L416.0 406.15 Q418.85 382.3 419.75 359.8 417.95 356.2 418.6 352.85 418.75 351.95 419.05 351.15 417.65 347.35 414.55 344.45 414.45 349.15 411.05 348.75 L401.35 345.9 404.05 343.45 404.1 343.4 Q409.55 345.15 410.3 343.65 409.55 340.4 405.2 341.25 L405.15 341.2 405.1 341.15 402.5 340.5 Q415.95 334.0 411.7 326.4 L410.5 325.2 Q409.8 327.15 407.0 327.95 406.05 331.7 403.4 334.75 403.35 337.65 399.8 339.8 396.25 337.65 396.25 334.75 393.55 331.7 392.6 327.95 389.85 327.15 389.15 325.2 L387.95 326.4 Q383.7 334.0 397.15 340.5 L394.55 341.15 394.45 341.2 394.45 341.25 Q390.1 340.4 389.3 343.65 390.1 345.15 395.6 343.4 L395.65 343.45 398.3 345.9 388.55 348.75 Q385.2 349.15 385.05 344.45 381.95 347.35 380.55 351.15 L381.0 352.85 Q381.65 356.2 379.85 359.8 380.75 382.3 383.6 406.15 L383.7 407.25 Q384.45 412.75 386.05 418.0 387.5 423.0 389.7 427.8 L389.75 428.15 Q391.95 434.95 388.1 435.4 L387.15 435.45 385.6 435.25 385.35 435.7 384.9 436.55 386.85 436.85 Q387.9 437.6 387.95 439.55 387.95 441.95 386.5 446.15 L383.9 452.5 Q381.05 476.95 381.2 501.55 381.95 505.4 380.7 507.5 L381.85 514.2 381.9 514.75 Q382.3 517.8 381.55 520.7 L376.4 532.35 375.0 541.85 373.2 548.6 Q369.5 550.75 367.9 548.2 365.55 549.4 363.9 547.35 L364.2 546.8 363.8 546.9 Q362.4 547.3 361.75 546.4 360.45 546.65 359.3 545.4 L359.9 544.25 Q358.7 544.95 358.2 543.75 L359.6 538.4 375.7 511.6 Q376.35 508.7 375.45 505.55 L375.4 505.5 375.1 504.05 375.0 501.75 373.7 455.25 Q372.8 450.05 373.0 446.6 373.15 442.75 374.5 441.0 374.45 437.65 375.4 435.15 L377.65 435.5 378.05 435.55 377.95 435.35 377.6 434.45 Q372.25 434.1 375.15 425.45 376.45 421.75 377.1 418.0 378.05 412.25 377.4 406.45 L372.5 359.1 Q367.85 352.4 370.8 346.2 L371.0 345.8 Q371.9 342.55 373.2 341.0 375.0 338.85 377.65 339.9 L380.1 335.4 Q372.15 329.05 373.55 322.05 377.35 312.5 386.2 312.6 390.6 313.0 392.45 317.25 L394.75 317.25 Q396.0 319.85 399.8 321.4 403.65 319.85 404.9 317.25 M397.4 340.65 L397.45 340.55 402.2 340.55 402.2 340.65 402.3 340.7 405.05 341.4 Q404.75 342.55 404.05 343.3 L403.95 343.25 403.9 343.25 401.15 345.75 401.1 345.85 398.6 345.85 398.55 345.75 395.8 343.25 395.7 343.25 395.6 343.3 Q394.9 342.55 394.6 341.4 L397.35 340.7 397.4 340.65 M423.05 456.25 Q422.05 472.0 422.45 486.3 424.3 472.05 423.05 456.25 M377.15 486.3 Q377.55 472.0 376.55 456.25 375.3 472.05 377.15 486.3" fill="#000000" fill-rule="evenodd" stroke="none"/>
  </g>
</svg>
