<?xml version="1.0" encoding="UTF-8" standalone="no"?>
<svg xmlns:xlink="http://www.w3.org/1999/xlink" height="241.75px" width="82.95px" xmlns="http://www.w3.org/2000/svg">
  <g transform="matrix(1.0, 0.0, 0.0, 1.0, -358.3, -304.2)">
    <path d="M420.25 493.55 L419.75 494.0 Q419.35 497.75 420.7 501.2 L420.8 501.35 Q420.8 497.4 420.25 493.55 M381.9 306.45 Q388.9 309.95 399.75 313.05 410.6 309.95 417.65 306.45 419.85 305.35 421.6 304.25 L420.2 308.8 Q424.45 307.25 426.65 304.2 427.3 308.1 426.65 312.05 447.0 339.6 438.95 406.65 L433.25 430.25 Q428.95 447.95 430.35 457.35 433.55 463.75 432.25 471.4 432.65 476.65 429.55 480.85 427.25 502.95 430.3 512.15 434.1 516.65 432.6 521.25 433.2 524.05 430.1 526.75 429.65 531.2 431.2 535.2 434.4 539.3 436.25 544.25 425.25 538.6 416.45 545.95 417.6 541.2 421.0 535.95 421.5 531.7 419.75 527.45 418.8 525.7 418.35 523.9 417.2 519.1 419.6 513.6 L420.5 507.2 Q413.75 505.6 408.1 510.35 409.1 506.3 411.95 501.85 412.35 498.2 410.9 494.6 408.0 489.25 410.75 482.75 413.45 469.15 409.25 456.7 405.95 452.65 406.1 446.7 404.75 441.2 407.9 436.05 410.05 427.65 407.3 412.65 L407.3 412.2 Q405.4 398.45 407.3 383.35 405.9 376.05 403.35 369.55 L396.2 369.55 Q393.65 376.05 392.25 383.35 394.1 398.45 392.25 412.2 L392.25 412.65 Q389.5 427.65 391.6 436.05 394.8 441.2 393.5 446.7 393.6 452.65 390.3 456.7 386.1 469.15 388.75 482.75 391.55 489.25 388.6 494.6 387.15 498.2 387.55 501.85 390.5 506.3 391.45 510.35 385.75 505.6 379.05 507.2 379.3 510.4 379.95 513.6 382.35 519.1 381.2 523.9 380.75 525.7 379.8 527.45 378.1 531.7 378.55 535.95 381.95 541.2 383.1 545.95 374.3 538.6 363.35 544.25 365.1 539.3 368.3 535.2 369.9 531.2 369.4 526.75 366.3 524.05 366.9 521.25 365.45 516.65 369.2 512.15 372.3 502.95 370.05 480.85 366.85 476.65 367.3 471.4 366.05 463.75 369.15 457.35 370.55 447.95 366.25 430.25 L360.65 406.65 Q352.5 339.6 372.9 312.05 372.2 308.1 372.9 304.2 375.05 307.25 379.35 308.8 L377.9 304.25 Q379.75 305.35 381.9 306.45 M379.25 493.55 Q378.75 497.4 378.75 501.35 L378.85 501.2 Q380.15 497.75 379.8 494.0 L379.25 493.55" fill="#000000" fill-rule="evenodd" stroke="none"/>
  </g>
</svg>
