<?xml version="1.0" encoding="UTF-8" standalone="no"?>
<svg xmlns:xlink="http://www.w3.org/1999/xlink" height="140.75px" width="98.4px" xmlns="http://www.w3.org/2000/svg">
  <g transform="matrix(1.0, 0.0, 0.0, 1.0, -350.7, -415.4)">
    <path d="M417.45 442.65 Q417.95 439.7 419.35 436.95 420.3 441.15 424.6 444.85 L422.5 445.7 422.45 445.7 422.0 446.5 Q420.6 449.2 420.75 453.8 L424.9 507.25 426.5 510.4 426.5 514.5 441.15 537.25 Q441.95 538.9 442.35 540.6 L443.2 541.7 Q445.9 542.45 446.8 544.45 449.15 546.55 449.1 552.7 447.55 550.6 445.85 550.15 444.4 551.5 442.4 551.45 L440.55 551.1 440.2 551.0 440.1 552.0 439.6 554.75 438.9 553.3 Q438.2 552.15 437.3 551.5 L431.8 551.25 431.1 553.3 430.5 554.55 429.6 556.15 Q429.1 553.5 427.65 552.1 422.1 552.0 422.4 545.85 L422.45 544.8 422.2 540.9 422.1 540.65 421.75 539.15 421.4 537.05 Q420.8 532.6 419.4 528.65 L417.6 524.45 Q416.7 522.6 416.5 520.3 416.35 518.9 416.5 517.4 L416.55 517.15 416.6 516.65 417.3 514.45 416.8 511.35 418.1 507.65 417.4 503.65 Q415.35 504.65 414.25 509.0 414.65 500.35 416.35 498.15 L415.25 492.65 411.85 477.2 407.8 461.05 406.05 454.9 Q404.45 449.95 403.4 445.2 401.25 435.25 401.7 426.25 401.8 422.9 402.4 420.6 404.8 411.15 415.25 418.8 415.25 424.6 412.7 429.4 L411.35 431.6 Q409.35 435.65 409.25 439.95 411.05 436.8 414.15 434.8 L414.3 435.25 Q413.6 439.8 417.2 444.4 417.25 443.5 417.45 442.65 M427.3 436.75 Q428.8 438.9 429.75 441.65 427.6 443.4 424.9 444.7 424.95 442.9 425.4 441.15 426.0 438.95 427.3 436.75 M433.75 437.4 L434.0 433.7 434.95 435.6 433.75 437.4 M372.5 436.75 Q373.8 438.95 374.4 441.15 374.85 442.9 374.9 444.7 L370.1 441.65 Q371.0 438.9 372.5 436.75 M365.8 433.7 L366.05 437.4 364.9 435.6 365.8 433.7 M380.45 436.95 Q381.9 439.75 382.4 442.65 L382.6 444.4 Q386.2 439.8 385.55 435.25 L385.65 434.8 Q388.75 436.85 390.55 439.95 390.45 435.65 388.5 431.85 L387.1 429.45 Q384.55 424.65 384.55 418.8 395.0 411.2 397.4 420.6 398.0 422.9 398.1 426.25 398.55 435.25 396.4 445.15 395.4 449.95 393.75 454.9 L392.05 461.05 Q389.85 469.0 387.95 477.2 L384.55 492.65 383.45 498.15 Q385.15 500.35 385.55 509.0 384.45 504.65 382.4 503.65 L381.65 507.65 381.65 507.7 383.0 511.35 382.5 514.45 383.2 516.65 383.25 517.15 383.3 517.4 383.3 520.35 Q383.1 522.6 382.2 524.45 L380.4 528.65 Q379.0 532.6 378.4 537.05 L378.05 539.15 377.7 540.6 377.65 540.85 377.35 544.8 377.45 545.85 Q377.7 552.0 372.15 552.1 370.7 553.5 370.2 556.15 L369.3 554.55 368.7 553.3 368.0 551.25 362.5 551.5 Q361.6 552.15 360.9 553.3 360.5 553.95 360.2 554.75 L359.7 552.0 359.6 551.0 359.25 551.1 357.4 551.45 Q355.4 551.5 353.95 550.15 352.25 550.6 350.7 552.7 350.65 546.55 353.0 544.45 353.9 542.45 356.6 541.7 L357.45 540.6 Q357.85 538.9 358.65 537.25 L373.3 514.5 373.3 510.4 374.9 507.25 379.05 453.8 Q379.2 449.2 377.85 446.55 L377.35 445.7 375.25 444.85 Q379.5 441.15 380.45 436.95" fill="#000000" fill-rule="evenodd" stroke="none"/>
  </g>
</svg>
