<?xml version="1.0" encoding="UTF-8" standalone="no"?>
<svg xmlns:xlink="http://www.w3.org/1999/xlink" height="6.6px" width="14.9px" xmlns="http://www.w3.org/2000/svg">
  <g transform="matrix(1.0, 0.0, 0.0, 1.0, -358.0, -541.85)">
    <path d="M368.5 548.45 Q366.85 547.55 366.95 546.05 367.05 545.1 367.75 544.4 L372.9 544.8 372.05 546.45 Q369.65 547.05 368.5 548.45 M364.3 545.9 Q362.95 546.2 362.35 547.25 361.55 546.5 361.45 545.25 L362.05 543.65 Q363.5 543.4 364.95 544.15 L364.3 545.9 M358.05 543.05 L358.4 541.85 Q359.45 542.0 360.4 542.6 L359.75 544.0 Q358.95 544.05 358.55 544.75 357.9 544.1 358.05 543.05" fill="#000000" fill-rule="evenodd" stroke="none"/>
  </g>
</svg>
