<?xml version="1.0" encoding="UTF-8" standalone="no"?>
<svg xmlns:xlink="http://www.w3.org/1999/xlink" height="73.3px" width="342.4px" xmlns="http://www.w3.org/2000/svg">
  <g transform="matrix(1.0, 0.0, 0.0, 1.0, -228.8, -159.3)">
    <path d="M570.7 191.35 L570.5 191.5 Q547.7 199.15 532.6 212.2 522.4 220.95 515.7 232.1 515.05 225.7 513.85 219.55 510.6 202.95 503.35 188.6 518.65 179.25 526.35 167.6 522.65 163.7 516.05 159.8 M229.3 191.4 Q252.3 199.1 267.55 212.3 277.6 221.0 284.3 232.1 284.95 225.7 286.15 219.6 289.4 202.95 296.65 188.6 281.35 179.25 273.65 167.6 277.35 163.7 283.95 159.8" fill="none" stroke="#000000" stroke-linecap="round" stroke-linejoin="round" stroke-opacity="0.5019608" stroke-width="1.0"/>
    <path d="M516.05 159.8 Q554.2 168.05 570.7 191.35 M283.95 159.8 Q245.8 168.05 229.3 191.4" fill="none" stroke="#000000" stroke-linecap="round" stroke-linejoin="round" stroke-width="1.0"/>
  </g>
</svg>
