<?xml version="1.0" encoding="UTF-8" standalone="no"?>
<svg xmlns:xlink="http://www.w3.org/1999/xlink" height="213.05px" width="385.8px" xmlns="http://www.w3.org/2000/svg">
  <g transform="matrix(1.0, 0.0, 0.0, 1.0, -207.1, -159.3)">
    <path d="M585.65 371.75 Q569.0 372.35 552.45 368.6 L553.05 366.85 Q559.65 317.15 545.8 278.5 L545.85 278.45 545.9 278.1 Q548.5 264.7 550.1 251.5 L550.15 251.15 Q553.15 226.4 552.5 202.4 L552.5 202.35 Q531.5 206.15 512.3 212.6 509.05 199.9 503.35 188.6 518.65 179.25 526.35 167.6 522.65 163.7 516.05 159.8 M545.9 278.1 Q557.65 270.1 572.05 264.55 575.6 268.25 578.35 272.05 M581.75 254.95 Q564.2 254.8 550.15 251.15 M218.25 254.95 Q235.7 254.8 249.7 251.2 246.7 226.4 247.3 202.35 L247.3 202.3 Q268.4 206.15 287.7 212.6 290.95 199.9 296.65 188.6 281.35 179.25 273.65 167.6 277.35 163.7 283.95 159.8 M221.65 272.05 Q224.4 268.25 227.95 264.55 242.2 270.05 253.9 277.95 251.3 264.65 249.7 251.5 L249.7 251.2 M214.4 371.75 Q230.9 372.35 247.45 368.75 L246.75 366.85 Q240.15 317.15 254.0 278.5 L254.0 278.45 253.9 277.95" fill="none" stroke="#000000" stroke-linecap="round" stroke-linejoin="round" stroke-opacity="0.5019608" stroke-width="1.0"/>
    <path d="M516.05 159.8 Q593.25 176.5 581.75 254.95 580.6 263.15 578.35 272.05 595.9 295.2 591.5 323.4 L586.2 371.35 585.65 371.75 M283.95 159.8 Q245.8 168.05 229.3 191.4 212.45 215.3 218.25 254.95 219.4 263.15 221.65 272.05 204.1 295.2 208.5 323.4 L213.8 371.35 214.4 371.75" fill="none" stroke="#000000" stroke-linecap="round" stroke-linejoin="round" stroke-width="1.0"/>
  </g>
</svg>
