<?xml version="1.0" encoding="UTF-8" standalone="no"?>
<svg xmlns:xlink="http://www.w3.org/1999/xlink" height="122.0px" width="253.7px" xmlns="http://www.w3.org/2000/svg">
  <g transform="matrix(1.0, 0.0, 0.0, 1.0, -273.05, -164.85)">
    <path d="M499.25 286.35 Q494.0 278.5 491.25 269.75 489.75 265.0 489.0 260.0 486.2 232.8 502.3 214.6 518.4 196.4 523.4 165.35 526.3 165.35 526.25 167.95 L526.25 168.0 Q524.65 197.1 504.4 219.15 492.3 232.25 492.55 258.75 494.2 270.8 502.3 282.65 M297.5 282.65 L297.55 282.65 Q305.6 270.8 307.25 258.75 307.5 232.25 295.4 219.15 275.15 197.1 273.55 167.95 273.5 165.35 276.4 165.35 281.4 196.4 297.5 214.6 313.6 232.8 310.8 260.0 310.05 264.95 308.55 269.75 L308.1 271.2 Q305.35 279.15 300.55 286.35" fill="none" stroke="#000000" stroke-linecap="round" stroke-linejoin="round" stroke-opacity="0.5019608" stroke-width="1.0"/>
    <path d="M502.3 282.65 Q503.85 285.8 499.3 286.35 L499.25 286.35 M300.55 286.35 Q295.95 285.8 297.5 282.65" fill="none" stroke="#000000" stroke-linecap="round" stroke-linejoin="round" stroke-width="1.0"/>
  </g>
</svg>
