<?xml version="1.0" encoding="UTF-8" standalone="no"?>
<svg xmlns:xlink="http://www.w3.org/1999/xlink" height="127.2px" width="253.7px" xmlns="http://www.w3.org/2000/svg">
  <g transform="matrix(1.0, 0.0, 0.0, 1.0, -273.15, -130.05)">
    <path d="M526.35 167.6 Q522.65 163.7 516.05 159.8 M439.5 138.75 Q452.4 144.2 463.25 152.6 M360.5 138.75 Q347.6 144.2 336.75 152.6 M391.6 186.55 L381.45 164.9 M408.4 186.55 L418.55 164.9 M414.15 245.85 Q401.85 247.2 400.15 240.85 L400.0 240.2 399.85 240.85 Q398.15 247.2 385.85 245.85 L382.8 245.85 Q391.7 251.0 400.05 256.75 408.3 251.0 417.2 245.85 L414.15 245.85 M399.85 240.85 L400.0 240.05 400.0 200.3 Q394.4 198.35 394.6 195.25 M400.15 240.85 L400.0 240.05 400.0 240.2 M417.2 245.85 Q457.5 222.25 511.6 209.85 M503.35 188.6 Q478.15 176.0 413.2 192.75 M400.0 200.3 Q405.6 198.35 405.4 195.25 M283.95 159.8 Q277.35 163.7 273.65 167.6 M296.65 188.6 Q321.85 176.0 386.8 192.75 M288.45 209.85 Q342.45 222.25 382.8 245.85" fill="none" stroke="#000000" stroke-linecap="round" stroke-linejoin="round" stroke-opacity="0.5019608" stroke-width="1.0"/>
    <path d="M375.75 133.75 L370.6 135.15 M429.4 135.15 L424.25 133.75" fill="none" stroke="#000000" stroke-linecap="round" stroke-linejoin="round" stroke-opacity="0.9019608" stroke-width="1.0"/>
    <path d="M516.05 159.8 Q486.95 145.7 439.5 138.75 437.4 137.85 435.1 137.05 L429.4 135.15 M424.25 133.75 Q412.1 130.85 400.0 130.55 387.9 130.85 375.75 133.75 M370.6 135.15 L366.1 136.6 Q363.15 137.6 360.5 138.75 313.05 145.7 283.95 159.8" fill="none" stroke="#000000" stroke-linecap="round" stroke-linejoin="round" stroke-width="1.0"/>
  </g>
</svg>
