<?xml version="1.0" encoding="UTF-8" standalone="no"?>
<svg xmlns:xlink="http://www.w3.org/1999/xlink" height="92.2px" width="169.7px" xmlns="http://www.w3.org/2000/svg">
  <g transform="matrix(1.0, 0.0, 0.0, 1.0, -315.15, -130.05)">
    <path d="M360.5 138.75 Q350.15 143.15 341.1 149.45 L355.85 155.55 321.55 183.25 343.6 184.3 371.8 180.55 378.8 190.75 386.8 192.75 M329.4 144.55 L341.1 149.45 M391.6 186.55 L381.45 164.9 M413.2 192.75 L421.25 190.75 428.2 180.55 456.45 184.3 478.5 183.3 444.15 155.55 458.9 149.45 Q449.85 143.15 439.5 138.75 M470.6 144.55 L458.9 149.45 M408.4 186.55 L418.55 164.9 M456.45 184.3 L484.35 188.0 478.5 183.3 M378.8 190.75 L400.0 221.75 400.0 200.3 Q394.4 198.35 394.6 195.25 M400.0 221.75 L421.25 190.75 M400.0 200.3 Q405.6 198.35 405.4 195.25 M321.55 183.25 L315.65 188.0 343.6 184.3" fill="none" stroke="#000000" stroke-linecap="round" stroke-linejoin="round" stroke-opacity="0.5019608" stroke-width="1.0"/>
    <path d="M424.25 133.75 Q412.1 130.85 400.0 130.55 387.9 130.85 375.75 133.75 M370.6 135.15 L366.1 136.6 Q363.15 137.6 360.5 138.75 343.8 141.2 329.4 144.55 M439.5 138.75 Q437.4 137.85 435.1 137.05 L429.4 135.15 M439.5 138.75 Q456.2 141.2 470.6 144.55" fill="none" stroke="#000000" stroke-linecap="round" stroke-linejoin="round" stroke-width="1.0"/>
    <path d="M375.75 133.75 L370.6 135.15 M429.4 135.15 L424.25 133.75" fill="none" stroke="#000000" stroke-linecap="round" stroke-linejoin="round" stroke-opacity="0.9019608" stroke-width="1.0"/>
  </g>
</svg>
