<?xml version="1.0" encoding="UTF-8" standalone="no"?>
<svg xmlns:xlink="http://www.w3.org/1999/xlink" height="215.1px" width="38.75px" xmlns="http://www.w3.org/2000/svg">
  <g transform="matrix(1.0, 0.0, 0.0, 1.0, -380.5, -130.05)">
    <path d="M399.9 344.65 L399.9 329.75 381.0 329.75 381.0 319.5 399.9 319.5 399.9 297.9 381.0 297.9 381.0 287.7 399.9 287.7 399.9 267.1 381.0 267.1 381.0 256.9 399.9 256.9 399.9 234.2 381.0 234.2 381.0 223.95 399.9 223.95 399.9 205.7 381.0 205.7 381.0 195.5 399.9 195.5 400.0 130.55 M399.9 195.5 L418.75 195.5 418.75 205.7 399.9 205.7 M399.9 223.95 L418.75 223.95 418.75 234.2 399.9 234.2 M399.9 256.9 L418.75 256.9 418.75 267.1 399.9 267.1 M399.9 319.5 L418.75 319.5 418.75 329.75 399.9 329.75 M399.9 297.9 L418.75 297.9 418.75 287.7 399.9 287.7" fill="none" stroke="#000000" stroke-linecap="round" stroke-linejoin="round" stroke-opacity="0.5019608" stroke-width="1.0"/>
  </g>
</svg>
