<?xml version="1.0" encoding="UTF-8" standalone="no"?>
<svg xmlns:xlink="http://www.w3.org/1999/xlink" height="170.95px" width="384.8px" xmlns="http://www.w3.org/2000/svg">
  <g transform="matrix(1.0, 0.0, 0.0, 1.0, -207.6, -159.8)">
    <path d="M516.05 159.8 Q593.25 176.5 581.75 254.95 580.6 263.15 578.35 272.05 595.9 295.2 591.5 323.4 L591.45 323.75 Q557.85 331.05 514.25 330.75 L512.25 328.9 Q494.15 312.6 502.2 292.4 503.45 289.35 505.2 286.3 L502.4 282.3 Q494.3 270.45 492.65 258.4 L494.1 257.55 Q509.65 246.65 515.7 232.1 513.3 208.25 503.35 188.6 518.65 179.25 526.35 167.6 522.65 163.7 516.05 159.8 M283.95 159.8 Q277.35 163.7 273.65 167.6 281.35 179.25 296.65 188.6 286.7 208.25 284.3 232.1 290.35 246.65 305.9 257.55 L307.35 258.4 Q305.7 270.45 297.6 282.3 L294.8 286.3 Q296.55 289.35 297.8 292.4 305.85 312.6 287.75 328.9 L285.75 330.75 Q242.15 331.1 208.55 323.8 L208.5 323.4 Q204.1 295.2 221.65 272.05 219.4 263.15 218.25 254.95 206.75 176.5 283.95 159.8" fill="#000000" fill-rule="evenodd" stroke="none"/>
  </g>
</svg>
