<?xml version="1.0" encoding="UTF-8" standalone="no"?>
<svg xmlns:xlink="http://www.w3.org/1999/xlink" height="115.95px" width="366.5px" xmlns="http://www.w3.org/2000/svg">
  <g transform="matrix(1.0, 0.0, 0.0, 1.0, -216.75, -159.8)">
    <path d="M516.05 159.8 Q588.25 175.4 582.9 245.1 576.55 250.15 569.7 254.4 563.9 258.0 557.7 261.0 531.5 273.75 498.45 275.75 493.85 267.1 492.65 258.4 L494.1 257.55 Q509.65 246.65 515.7 232.1 513.3 208.25 503.35 188.6 518.65 179.25 526.35 167.6 522.65 163.7 516.05 159.8 M283.95 159.8 Q277.35 163.7 273.65 167.6 281.35 179.25 296.65 188.6 286.7 208.25 284.3 232.1 290.35 246.65 305.9 257.55 L307.35 258.4 Q306.15 267.15 301.6 275.75 260.65 273.25 230.2 254.4 223.4 250.2 217.15 245.2 211.7 175.45 283.95 159.8" fill="#000000" fill-rule="evenodd" stroke="none"/>
  </g>
</svg>
