<?xml version="1.0" encoding="UTF-8" standalone="no"?>
<svg xmlns:xlink="http://www.w3.org/1999/xlink" height="214.15px" width="252.7px" xmlns="http://www.w3.org/2000/svg">
  <g transform="matrix(1.0, 0.0, 0.0, 1.0, -273.65, -130.55)">
    <path d="M526.35 167.6 Q518.65 179.25 503.35 188.6 509.05 199.9 512.3 212.6 L508.5 213.85 508.35 213.9 Q488.0 221.05 469.7 231.1 L469.7 231.15 466.1 253.6 466.0 253.95 456.8 317.3 458.2 340.5 Q429.1 345.0 399.95 344.65 370.75 344.95 341.6 340.5 L343.0 317.3 333.8 253.95 333.75 253.65 Q331.75 242.15 330.1 231.1 L330.1 231.05 Q311.7 220.95 291.3 213.8 L287.7 212.6 Q290.95 199.9 296.65 188.6 281.35 179.25 273.65 167.6 277.35 163.7 283.95 159.8 313.05 145.7 360.5 138.75 363.15 137.6 366.1 136.6 L370.6 135.15 375.75 133.75 Q387.9 130.85 400.0 130.55 412.1 130.85 424.25 133.75 L429.4 135.15 435.1 137.05 Q437.4 137.85 439.5 138.75 486.95 145.7 516.05 159.8 522.65 163.7 526.35 167.6" fill="#000000" fill-rule="evenodd" stroke="none"/>
  </g>
</svg>
