<?xml version="1.0" encoding="UTF-8" standalone="no"?>
<svg xmlns:xlink="http://www.w3.org/1999/xlink" height="82.0px" width="115.9px" xmlns="http://www.w3.org/2000/svg">
  <g transform="matrix(1.0, 0.0, 0.0, 1.0, -341.9, -130.55)">
    <path d="M366.1 136.6 L370.6 135.15 375.75 133.75 Q387.9 130.85 400.0 130.55 412.1 130.85 424.25 133.75 L429.4 135.15 435.1 137.05 Q437.4 137.85 439.5 138.75 L457.15 141.7 Q457.75 145.5 457.8 148.65 L457.35 153.85 455.9 159.55 Q452.25 174.9 445.6 185.8 430.5 210.7 400.0 212.55 L399.8 212.55 Q369.15 210.75 354.0 185.75 347.4 174.85 343.75 159.55 342.75 156.65 342.3 153.85 341.85 151.3 341.9 148.9 341.9 145.6 342.95 141.7 L360.5 138.75 Q363.15 137.6 366.1 136.6" fill="#000000" fill-rule="evenodd" stroke="none"/>
  </g>
</svg>
