<?xml version="1.0" encoding="UTF-8" standalone="no"?>
<svg xmlns:xlink="http://www.w3.org/1999/xlink" height="220.0px" width="203.7px" xmlns="http://www.w3.org/2000/svg">
  <g transform="matrix(1.0, 0.0, 0.0, 1.0, -150.55, -261.35)">
    <path d="M324.05 263.35 L345.55 261.35 Q354.55 261.35 354.25 270.15 353.95 278.3 345.3 281.6 334.65 284.5 323.55 284.05 325.95 282.6 327.75 282.5 329.15 276.1 322.6 276.75 322.05 278.6 320.8 280.5 315.25 267.6 324.05 263.35 M333.3 320.6 L306.6 316.2 315.9 320.8 315.85 321.5 315.05 330.35 314.7 333.35 Q313.1 346.7 309.95 359.1 L310.15 367.15 Q310.05 373.8 308.6 378.9 307.85 381.7 306.6 384.15 L306.15 385.15 Q302.3 392.1 294.65 394.4 L286.8 429.2 287.4 434.95 283.2 440.1 281.9 441.5 Q277.3 446.35 271.55 450.0 L233.25 450.0 Q227.5 446.35 222.9 441.5 L221.6 440.1 217.4 434.95 218.0 429.2 210.15 394.4 Q202.5 392.1 198.65 385.15 L198.2 384.15 Q196.95 381.7 196.2 378.9 194.75 373.8 194.65 367.15 194.6 363.35 194.85 359.1 191.7 346.7 190.1 333.35 L189.75 330.35 188.95 321.5 188.9 320.8 198.2 316.2 171.5 320.6 171.45 315.5 200.4 310.6 201.25 307.95 Q206.25 316.55 210.6 307.2 L210.9 304.65 Q217.3 313.7 224.6 322.45 229.1 327.8 233.95 333.05 L236.95 336.25 244.2 343.55 Q243.75 343.15 243.15 342.85 L225.55 336.25 Q219.75 340.65 220.5 363.9 L224.15 370.85 Q239.1 378.3 251.05 378.95 L251.55 379.05 252.05 378.95 252.4 378.95 252.75 378.95 253.25 379.05 253.75 378.95 Q265.7 378.3 280.65 370.85 L284.3 363.9 Q285.05 340.65 279.25 336.25 L261.65 342.85 Q261.05 343.15 260.6 343.55 L267.85 336.25 270.85 333.05 280.2 322.45 Q287.5 313.7 293.9 304.65 L294.2 307.2 Q298.55 316.55 303.55 307.95 L304.4 310.6 333.35 315.5 333.3 320.6 M150.55 270.15 Q150.25 261.35 159.25 261.35 170.55 261.85 180.75 263.35 189.55 267.6 184.0 280.5 182.75 278.6 182.2 276.75 175.65 276.1 177.05 282.5 178.85 282.6 181.25 284.05 170.15 284.5 159.5 281.6 150.85 278.3 150.55 270.15 M326.05 378.6 Q331.4 382.25 325.55 385.35 319.8 388.25 311.6 384.2 L312.85 378.95 Q320.85 374.95 326.05 378.6 M236.25 315.15 Q241.45 317.8 249.95 318.15 L254.85 318.15 Q263.35 317.8 268.55 315.15 275.15 311.6 275.5 320.75 273.05 322.0 270.2 323.05 263.5 325.45 254.5 326.25 L250.3 326.25 Q241.3 325.45 234.6 323.05 231.75 322.0 229.3 320.75 229.65 311.6 236.25 315.15 M178.75 378.6 Q183.95 374.95 191.95 378.95 L193.2 384.2 Q185.0 388.25 179.25 385.35 173.4 382.25 178.75 378.6 M225.1 386.55 L225.0 400.1 222.9 400.05 221.75 414.15 234.15 414.1 234.1 400.05 232.6 400.05 232.6 387.6 225.1 386.55 M279.7 386.55 L272.2 387.6 272.2 400.05 270.7 400.05 270.65 414.1 283.05 414.15 281.9 400.05 279.8 400.1 279.7 386.55 M199.75 354.45 L212.8 362.4 198.25 330.0 199.75 354.45 M305.05 354.45 L306.55 330.0 292.0 362.4 305.05 354.45 M207.65 434.95 L207.75 437.2 195.95 437.2 195.9 427.45 207.5 427.45 207.55 434.95 207.65 434.95 M282.05 481.35 L272.6 481.35 272.4 476.3 282.15 476.3 282.05 481.35 M282.6 460.75 L282.45 465.45 272.0 465.45 271.95 460.45 282.6 460.75 M297.05 437.2 L297.15 434.95 297.25 434.95 297.3 427.45 308.9 427.45 308.85 437.2 297.05 437.2 M232.8 465.45 L222.35 465.45 222.2 460.75 232.85 460.45 232.8 465.45 M222.75 481.35 L222.65 476.3 232.4 476.3 232.2 481.35 222.75 481.35" fill="#000000" fill-rule="evenodd" stroke="none"/>
  </g>
</svg>
