<?xml version="1.0" encoding="UTF-8" standalone="no"?>
<svg xmlns:xlink="http://www.w3.org/1999/xlink" height="165.55px" width="31.65px" xmlns="http://www.w3.org/2000/svg">
  <g transform="matrix(1.0, 0.0, 0.0, 1.0, -364.55, -342.8)">
    <path d="M365.95 378.25 Q364.95 369.15 364.65 361.3 364.3 351.0 365.15 342.8 381.5 349.5 396.2 358.6 L391.0 425.55 Q393.8 435.2 394.8 445.65 L390.1 461.15 Q387.5 470.05 385.9 477.1 384.25 484.3 383.55 489.55 L383.15 492.65 Q381.6 504.35 381.65 507.65 378.0 509.25 374.9 507.25 373.95 499.7 373.15 492.15 L372.85 489.55 371.65 476.3 Q370.95 468.15 370.5 460.0 L369.7 443.25 373.9 425.0 371.25 412.1 Q369.6 403.85 368.4 396.3 366.85 386.75 365.95 378.25" fill="#000000" fill-rule="evenodd" stroke="none"/>
  </g>
</svg>
