<?xml version="1.0" encoding="UTF-8" standalone="no"?>
<svg xmlns:xlink="http://www.w3.org/1999/xlink" height="115.4px" width="93.05px" xmlns="http://www.w3.org/2000/svg">
  <g transform="matrix(1.0, 0.0, 0.0, 1.0, -353.35, -201.9)">
    <path d="M430.55 201.9 L433.9 204.55 Q437.15 207.2 439.8 210.2 L441.0 211.65 Q440.55 213.8 430.55 214.1 420.6 213.8 420.1 211.65 L421.35 210.2 Q423.95 207.2 427.2 204.55 L430.55 201.9 M416.7 283.65 L417.8 291.95 417.75 291.95 417.05 292.1 Q416.4 292.1 415.85 291.2 L414.75 282.9 415.35 282.45 Q415.95 282.35 416.7 283.65 M425.0 284.55 L425.3 292.85 Q424.35 293.85 423.4 292.7 L422.85 284.45 Q423.8 283.2 425.0 284.55 M420.7 284.3 L421.4 292.55 Q420.5 293.3 419.55 292.3 L418.8 284.05 Q419.55 282.8 420.7 284.3 M416.85 293.15 Q417.45 293.1 418.0 293.95 L418.9 301.1 418.1 301.35 Q417.55 301.25 417.0 300.45 L416.1 293.5 Q416.5 293.2 416.85 293.15 M419.7 294.3 Q420.55 293.3 421.5 294.55 L422.1 301.7 Q421.25 302.7 420.35 301.4 L419.7 294.35 419.7 294.3 M440.4 284.3 Q441.6 282.8 442.35 284.05 L441.55 292.3 Q440.6 293.3 439.7 292.55 L440.4 284.3 M423.45 294.75 L423.5 294.7 Q424.4 293.75 425.4 294.8 L425.65 302.0 Q424.65 303.05 423.95 301.85 L423.45 294.75 M438.3 284.45 L437.75 292.7 Q436.8 293.85 435.8 292.85 L436.1 284.55 Q437.35 283.2 438.3 284.45 M431.95 284.6 Q433.1 283.7 434.05 284.6 L433.7 292.85 431.8 292.95 431.95 284.6 M429.2 284.6 L429.35 292.9 429.3 292.9 427.4 292.85 427.1 284.6 Q428.05 283.7 429.2 284.6 M429.35 294.95 L429.45 302.15 427.75 302.1 427.5 294.9 429.35 294.95 M441.4 294.3 L441.4 294.35 440.75 301.4 Q439.85 302.7 439.0 301.7 L439.6 294.55 Q440.55 293.3 441.4 294.3 M444.25 293.15 Q444.6 293.15 445.05 293.5 L444.15 300.45 443.0 301.35 442.95 301.35 Q442.6 301.4 442.2 301.1 L443.1 293.95 Q443.6 293.15 444.25 293.15 M444.1 292.15 L443.35 291.95 443.3 291.95 444.4 283.65 Q445.05 282.5 445.65 282.45 L445.75 282.45 Q446.1 282.5 446.4 282.9 L445.3 291.2 Q444.75 292.05 444.15 292.15 L444.1 292.15 M435.75 294.8 L437.65 294.75 437.2 301.85 Q436.45 303.05 435.5 302.0 L435.75 294.8 M431.75 294.95 L433.65 294.9 433.35 302.1 431.65 302.15 431.75 294.95 M372.55 204.55 Q375.8 207.2 378.45 210.2 L379.65 211.65 Q379.2 213.8 369.2 214.1 359.25 213.8 358.75 211.65 L360.0 210.2 Q362.6 207.2 365.85 204.55 L369.2 201.9 372.55 204.55 M361.45 284.45 Q362.4 283.2 363.65 284.55 L363.95 292.85 Q363.0 293.85 362.0 292.7 L361.45 284.45 M359.35 284.3 L360.05 292.55 Q359.15 293.3 358.2 292.3 L357.45 284.05 Q358.2 282.8 359.35 284.3 M354.0 282.45 L354.15 282.45 Q354.7 282.5 355.35 283.65 L356.45 291.95 356.4 291.95 355.65 292.15 Q355.05 292.05 354.45 291.2 L353.35 282.9 Q353.7 282.5 354.0 282.45 M358.35 294.3 Q359.2 293.3 360.15 294.55 L360.75 301.7 Q359.9 302.7 359.0 301.4 L358.35 294.35 358.35 294.3 M355.5 293.15 Q356.15 293.15 356.65 293.95 L357.55 301.1 356.8 301.35 356.75 301.35 Q356.2 301.25 355.65 300.45 L354.7 293.5 354.75 293.5 Q355.15 293.15 355.5 293.15 M364.0 294.8 L364.25 302.0 Q363.3 303.05 362.55 301.85 L362.1 294.75 364.0 294.8 M370.55 284.6 Q371.7 283.7 372.65 284.6 L372.35 292.85 370.45 292.9 370.4 292.9 370.55 284.6 M379.05 284.3 Q380.25 282.8 381.0 284.05 L380.2 292.3 Q379.25 293.3 378.35 292.55 L379.05 284.3 M374.75 284.55 Q375.95 283.2 376.95 284.45 L376.35 292.7 Q375.45 293.85 374.45 292.85 L374.75 284.55 M383.05 283.65 Q383.8 282.35 384.45 282.45 L385.05 282.9 383.9 291.2 Q383.35 292.1 382.7 292.1 L382.0 291.95 381.95 291.95 383.05 283.65 M367.8 284.6 L367.95 292.95 366.05 292.85 365.7 284.6 Q366.65 283.7 367.8 284.6 M370.4 294.95 L372.3 294.9 372.0 302.1 370.3 302.15 370.4 294.95 M368.0 294.95 L368.1 302.15 366.4 302.1 366.1 294.9 366.15 294.9 368.0 294.95 M376.3 294.75 L375.8 301.85 Q375.1 303.05 374.1 302.0 L374.4 294.8 Q375.35 293.75 376.25 294.7 L376.3 294.75 M382.9 293.15 L383.65 293.5 383.7 293.5 382.75 300.45 Q382.2 301.25 381.65 301.35 L380.85 301.1 381.75 293.95 Q382.3 293.1 382.9 293.15 M380.05 294.3 L380.05 294.35 379.4 301.4 Q378.5 302.7 377.65 301.7 L378.25 294.55 Q379.2 293.3 380.05 294.3 M378.4 315.6 Q374.55 317.45 369.2 317.3 363.9 317.45 360.0 315.6 L358.35 303.35 369.2 304.25 380.05 303.35 378.4 315.6 M441.4 303.35 L439.75 315.6 Q435.9 317.45 430.55 317.3 425.25 317.45 421.35 315.6 L419.7 303.35 430.55 304.25 441.4 303.35" fill="#000000" fill-rule="evenodd" stroke="none"/>
  </g>
</svg>
