<?xml version="1.0" encoding="UTF-8" standalone="no"?>
<svg xmlns:xlink="http://www.w3.org/1999/xlink" height="29.0px" width="54.7px" xmlns="http://www.w3.org/2000/svg">
  <g transform="matrix(1.0, 0.0, 0.0, 1.0, -324.25, -193.85)">
    <path d="M371.35 202.6 Q371.3 207.2 372.1 212.35 L369.05 210.95 366.95 213.75 Q365.1 208.9 362.75 204.95 L365.05 201.55 363.4 197.45 366.0 199.6 367.1 196.5 367.7 200.8 Q369.45 201.85 371.35 202.6 M376.65 211.15 Q374.85 206.3 372.5 202.35 375.45 198.55 376.85 193.85 L378.95 208.1 376.65 211.15 M357.85 201.8 L358.95 198.65 359.75 204.05 359.6 204.35 359.8 204.45 360.85 204.9 361.6 205.25 361.65 207.95 Q361.75 210.6 362.2 213.5 L362.4 214.95 360.25 214.0 358.8 215.95 Q356.95 211.05 354.6 207.1 L355.8 205.45 353.65 200.1 Q355.35 201.7 357.25 202.95 L357.85 201.8 M353.0 200.25 L354.05 207.25 353.45 207.4 353.5 210.1 353.55 210.4 Q353.65 212.95 354.05 215.65 L354.05 215.9 354.25 217.15 350.8 215.65 345.5 202.25 348.45 204.75 350.4 205.95 350.55 205.95 350.9 205.35 351.85 203.4 353.0 200.25 M346.7 208.65 L347.5 209.0 347.55 211.7 Q347.65 214.35 348.05 217.25 L348.25 218.75 345.5 217.55 343.7 219.95 Q341.9 215.1 339.55 211.15 L341.45 208.45 339.55 203.85 Q340.95 205.2 342.5 206.35 L343.85 202.7 344.65 207.6 Q345.6 208.2 346.7 208.65 M337.65 204.35 L338.7 211.35 338.4 211.45 338.45 214.15 Q338.55 216.8 338.95 219.7 L339.15 221.15 338.2 220.75 337.5 221.65 337.0 220.25 335.7 219.7 330.45 206.3 Q332.65 208.4 335.3 209.95 336.8 207.3 337.65 204.35 M324.25 207.95 Q327.75 211.35 332.15 213.15 332.1 217.75 332.95 222.85 L329.45 221.35 324.25 207.95" fill="#000000" fill-rule="evenodd" stroke="none"/>
  </g>
</svg>
