<?xml version="1.0" encoding="UTF-8" standalone="no"?>
<svg xmlns:xlink="http://www.w3.org/1999/xlink" height="190.5px" width="176.1px" xmlns="http://www.w3.org/2000/svg">
  <g transform="matrix(1.0, 0.0, 0.0, 1.0, -312.75, -227.75)">
    <path d="M472.75 237.1 Q438.4 231.6 400.75 228.25 363.25 231.6 328.85 237.1 315.95 320.35 313.25 407.6 320.1 413.45 331.35 417.75 329.8 411.55 328.7 403.6 359.45 394.0 400.75 394.85 442.1 394.0 472.85 403.6 M472.75 237.1 Q485.6 320.35 488.35 407.6 481.5 413.45 470.25 417.75 471.75 411.55 472.85 403.6" fill="none" stroke="#000000" stroke-linecap="round" stroke-linejoin="round" stroke-width="1.0"/>
    <path d="M328.85 237.1 Q321.6 354.0 328.7 403.6 M472.85 403.6 Q480.0 354.0 472.75 237.1 Z" fill="none" stroke="#000000" stroke-linecap="round" stroke-linejoin="round" stroke-opacity="0.5019608" stroke-width="1.0"/>
  </g>
</svg>
