<?xml version="1.0" encoding="UTF-8" standalone="no"?>
<svg xmlns:xlink="http://www.w3.org/1999/xlink" height="310.45px" width="179.25px" xmlns="http://www.w3.org/2000/svg">
  <g transform="matrix(1.0, 0.0, 0.0, 1.0, -310.25, -215.85)">
    <path d="M433.85 388.75 Q437.7 425.8 443.1 452.85 L444.0 457.3 Q451.3 491.55 461.2 508.55 475.25 529.0 482.2 525.2 489.9 521.1 488.9 487.55 487.65 427.0 479.65 366.45 L477.4 350.05 Q474.9 332.85 471.85 315.7 469.2 300.65 463.6 285.7 449.15 247.2 431.45 230.05 415.95 215.1 399.9 216.45 383.8 215.1 368.3 230.05 350.6 247.2 336.2 285.7 330.6 300.65 327.9 315.7 324.85 332.85 322.4 350.05 L320.1 366.45 Q312.15 427.0 310.85 487.55 309.9 521.1 317.6 525.2 324.55 529.0 338.6 508.55 348.5 491.55 355.75 457.3 L356.7 452.85 Q362.05 425.8 365.95 388.75 L366.3 385.1 Q373.55 340.35 399.9 340.75 M433.85 388.75 L433.45 385.1 Q426.2 340.35 399.9 340.75" fill="none" stroke="#000000" stroke-linecap="round" stroke-linejoin="round" stroke-width="1.0"/>
    <path d="M365.95 388.75 Q354.05 444.25 339.45 481.0 327.45 505.1 321.65 501.65 315.55 498.05 316.25 464.2 317.8 420.9 323.1 379.05 L324.75 366.45 Q326.95 351.1 329.55 336.05 L331.35 326.4 333.3 316.2 Q335.2 306.85 339.15 295.5 351.6 260.15 366.45 241.0 382.9 219.75 399.9 221.1 416.85 219.75 433.3 241.0 448.15 260.15 460.6 295.5 464.6 306.85 466.45 316.2 L468.4 326.4 470.2 336.05 Q472.85 351.1 475.0 366.45 L476.65 379.05 Q481.95 420.9 483.55 464.2 484.25 498.05 478.15 501.65 472.35 505.1 460.3 481.0 445.7 444.25 433.85 388.75 M399.9 340.75 L399.9 221.1" fill="none" stroke="#000000" stroke-linecap="round" stroke-linejoin="round" stroke-opacity="0.49803922" stroke-width="1.0"/>
  </g>
</svg>
