<?xml version="1.0" encoding="UTF-8" standalone="no"?>
<svg xmlns:xlink="http://www.w3.org/1999/xlink" height="187.25px" width="135.4px" xmlns="http://www.w3.org/2000/svg">
  <g transform="matrix(1.0, 0.0, 0.0, 1.0, -332.1, -322.95)">
    <path d="M370.4 323.45 Q364.1 335.0 359.55 350.55 355.0 366.05 352.35 388.1 L351.6 394.85 Q350.4 407.1 348.7 419.35 346.15 437.6 342.55 455.85 339.5 471.4 335.65 487.0 L332.6 498.85 Q334.05 496.5 335.65 494.6 340.1 489.35 345.7 488.0 L352.35 487.65 Q354.75 487.95 357.3 488.85 366.5 496.75 373.6 501.65 387.5 511.3 393.35 509.35 399.15 489.6 398.5 458.05 398.35 448.45 397.55 437.75 394.95 416.8 398.5 395.05 399.15 388.4 399.8 386.2 400.45 388.4 401.1 395.05 404.65 416.8 402.05 437.75 401.25 448.45 401.1 458.05 400.45 489.6 406.25 509.35 412.1 511.3 426.0 501.65 433.1 496.75 442.3 488.85 444.85 487.95 447.25 487.65 L453.9 488.0 Q459.5 489.35 463.95 494.6 465.55 496.5 467.0 498.85 L463.95 487.0 Q460.1 471.4 457.05 455.85 453.45 437.6 450.9 419.35 449.2 407.1 448.0 394.85 L447.25 388.1 Q444.6 366.05 440.05 350.55 435.5 335.0 429.2 323.45 419.1 328.3 399.8 328.2 380.5 328.3 370.4 323.45 Z" fill="none" stroke="#000000" stroke-linecap="round" stroke-linejoin="round" stroke-width="1.0"/>
  </g>
</svg>
