<?xml version="1.0" encoding="UTF-8" standalone="no"?>
<svg xmlns:xlink="http://www.w3.org/1999/xlink" height="278.35px" width="359.4px" xmlns="http://www.w3.org/2000/svg">
  <g transform="matrix(1.0, 0.0, 0.0, 1.0, -219.35, -118.15)">
    <path d="M548.45 120.25 L548.25 119.85 Q547.6 118.7 545.85 118.65 544.05 118.55 542.25 119.65 540.4 120.7 539.55 122.3 L539.1 123.5 M548.45 120.25 L548.95 120.25 Q550.7 120.3 551.35 121.4 551.8 122.15 551.6 123.15 552.5 123.45 552.9 124.15 553.5 125.25 552.7 126.9 551.9 128.4 550.05 129.5 L549.25 129.9 549.35 130.15 546.15 138.3 545.85 137.25 540.7 156.3 541.6 156.3 540.25 159.9 540.8 161.15 546.75 157.5 Q546.9 156.9 547.65 156.45 548.65 155.85 550.05 155.85 551.45 155.85 552.45 156.45 553.5 157.1 553.5 158.0 553.5 158.9 552.45 159.5 551.95 159.85 551.3 160.0 L551.7 164.75 551.7 164.95 Q552.35 165.5 552.35 166.2 552.35 167.1 551.45 167.65 L550.5 168.15 548.2 174.0 545.9 174.0 546.7 167.1 Q546.4 166.7 546.4 166.2 546.4 165.35 547.25 164.75 L547.95 164.4 548.05 161.5 542.45 165.15 542.9 165.5 Q543.65 166.25 543.65 167.35 543.65 168.45 542.9 169.15 542.25 169.85 541.25 169.9 L541.15 170.25 542.05 171.1 Q542.8 172.1 542.8 173.5 542.8 174.9 542.05 175.9 L541.55 176.5 549.6 199.5 550.1 199.75 Q551.25 200.4 551.25 201.25 551.25 202.1 550.1 202.65 L549.85 202.85 549.7 214.2 Q550.05 214.6 550.05 215.15 550.05 215.9 549.25 216.4 L548.15 216.85 544.55 222.2 542.55 220.15 545.25 216.3 Q544.55 215.8 544.55 215.15 544.55 214.35 545.4 213.9 L545.4 213.85 545.8 203.1 544.75 202.65 Q543.65 202.1 543.65 201.25 543.65 200.7 544.1 200.25 L536.8 179.6 535.95 179.7 Q534.85 179.7 534.05 178.85 533.25 178.05 533.25 176.95 533.25 176.1 533.7 175.4 L532.0 172.8 531.5 173.0 528.55 173.55 Q526.8 173.55 525.55 173.0 524.45 172.5 524.3 171.85 L504.65 177.0 Q503.9 177.8 502.8 177.9 L497.65 183.4 497.75 184.0 Q497.75 184.65 497.25 185.1 L497.25 185.2 498.45 191.5 495.45 191.5 493.75 185.6 493.1 185.25 Q492.3 184.75 492.3 184.0 492.3 183.25 493.1 182.7 L494.2 182.3 499.35 175.1 499.35 174.8 Q499.35 173.5 500.25 172.6 501.15 171.7 502.45 171.7 503.4 171.7 504.15 172.2 L524.25 167.1 524.1 166.35 Q524.1 165.35 525.35 164.65 526.6 163.95 528.4 163.95 L528.7 163.95 Q529.05 160.4 533.45 158.55 L534.35 156.3 535.25 156.3 538.9 136.25 538.9 130.15 518.4 136.35 Q521.4 137.8 508.45 141.9 509.45 145.65 502.75 144.9 501.45 147.75 497.5 148.75 L496.9 148.1 463.55 176.45 463.0 176.95 Q459.55 184.1 451.15 187.2 452.3 198.5 445.5 199.5 L442.5 201.3 430.2 225.05 430.15 225.25 Q431.5 227.45 432.3 230.6 L425.25 242.85 425.25 242.9 Q428.0 250.8 428.0 260.35 428.0 267.5 426.45 273.75 L433.35 288.1 Q432.2 291.5 430.65 293.95 L430.65 294.0 438.9 308.65 441.95 310.05 441.6 309.3 442.2 309.75 Q450.3 315.6 446.65 321.5 L447.8 322.5 450.0 320.0 Q457.35 322.8 461.2 330.0 L460.0 331.35 496.2 360.25 Q499.9 360.4 501.2 363.7 508.5 362.1 509.6 367.55 L513.15 368.75 514.35 362.05 516.6 363.25 516.6 369.65 520.8 371.95 521.05 371.45 Q521.6 370.5 522.45 370.5 522.9 370.5 523.25 370.8 L536.0 364.0 Q535.6 363.3 536.4 362.25 537.25 361.15 538.75 360.25 539.55 359.75 540.4 359.55 L541.55 357.45 Q541.1 357.2 540.8 356.6 540.3 355.7 540.3 354.45 540.3 353.2 540.8 352.3 541.3 351.4 542.0 351.4 L542.5 351.55 539.4 330.1 537.8 329.4 Q536.65 328.6 536.65 327.4 536.65 326.25 537.8 325.4 L538.2 325.15 538.1 320.45 536.85 320.05 Q535.95 319.65 535.95 319.0 535.95 318.4 536.7 318.0 L536.65 314.3 538.95 314.3 540.25 317.65 541.0 317.9 Q541.9 318.35 541.9 319.0 541.9 319.65 541.05 320.05 L541.8 324.7 Q542.7 324.85 543.5 325.4 544.65 326.25 544.65 327.4 544.65 328.6 543.5 329.4 L543.3 329.55 546.85 352.1 Q547.45 351.6 548.2 351.6 L548.95 351.7 549.9 352.45 Q550.55 353.35 550.55 354.55 L550.35 355.85 551.4 356.85 552.6 356.6 Q553.7 356.6 554.45 357.35 555.3 358.05 555.3 359.1 555.3 360.0 554.65 360.7 L554.7 360.7 571.85 362.0 571.9 362.0 574.45 359.3 574.4 358.9 Q574.4 358.4 574.65 358.0 L572.55 356.15 572.55 353.85 578.25 356.85 578.2 358.9 578.2 358.95 577.9 359.9 575.85 365.45 Q575.65 366.3 575.0 366.95 574.15 367.85 572.85 367.85 571.6 367.85 570.7 366.95 L570.5 366.7 555.35 365.1 555.3 365.1 555.3 365.25 Q555.3 366.4 554.3 367.2 553.35 367.95 552.05 368.0 L553.95 368.0 M506.55 129.95 L505.25 130.35 505.1 130.75 Q499.6 128.0 495.7 136.05 491.95 138.65 490.95 141.25 L491.45 141.9 M515.35 129.05 Q516.7 126.8 506.55 129.95 M515.35 129.05 L539.1 123.5 M353.55 179.0 Q347.85 171.35 340.75 169.6 L339.65 169.35 M335.1 176.95 Q338.5 184.1 346.95 187.2 345.75 198.5 352.6 199.5 M353.55 179.0 Q360.65 176.65 366.3 182.65 368.85 187.2 366.3 191.75 L367.85 197.45 378.25 220.25 Q381.15 220.4 384.7 221.55 L386.25 224.45 Q391.75 220.75 398.4 220.75 L399.05 220.75 399.65 220.75 Q406.35 220.75 411.85 224.45 L413.4 221.55 Q416.95 220.4 419.85 220.25 L430.2 197.45 431.8 191.75 Q429.25 187.2 431.8 182.65 437.4 176.65 444.55 179.0 450.2 171.35 457.35 169.6 L458.5 169.35 491.45 141.9 M335.1 176.95 L334.55 176.45 301.2 148.1 300.6 148.75 Q296.6 147.75 295.3 144.9 288.6 145.65 289.65 141.9 276.7 137.8 279.7 136.35 L259.2 130.15 259.2 136.25 262.8 156.3 263.7 156.3 264.6 158.55 Q269.05 160.4 269.4 163.95 L269.65 163.95 Q271.45 163.95 272.7 164.65 274.0 165.35 274.0 166.35 L273.8 167.1 293.9 172.2 Q294.7 171.7 295.65 171.7 296.95 171.7 297.85 172.6 298.75 173.5 298.75 174.8 L298.75 175.1 303.85 182.3 305.0 182.7 Q305.8 183.25 305.8 184.0 305.8 184.75 305.0 185.25 L304.3 185.6 302.6 191.5 299.65 191.5 300.85 185.2 300.85 185.1 Q300.3 184.65 300.3 184.0 L300.5 183.4 295.3 177.9 Q294.2 177.8 293.4 177.0 L273.75 171.85 Q273.6 172.5 272.55 173.0 271.3 173.55 269.55 173.55 L266.55 173.0 266.05 172.8 264.4 175.4 Q264.85 176.1 264.85 176.95 264.85 178.05 264.05 178.85 263.25 179.7 262.1 179.7 L261.3 179.6 253.95 200.25 Q254.4 200.7 254.4 201.25 254.4 202.1 253.35 202.65 L252.3 203.1 252.75 213.9 Q253.5 214.35 253.5 215.15 253.5 215.8 252.9 216.3 L255.55 220.15 253.5 222.2 249.9 216.85 248.85 216.4 Q248.0 215.9 248.0 215.15 248.0 214.6 248.4 214.2 L248.3 202.85 247.95 202.65 Q246.85 202.1 246.85 201.25 246.85 200.4 247.95 199.75 L248.5 199.5 256.5 176.5 256.05 175.9 Q255.25 174.9 255.25 173.5 255.25 172.1 256.05 171.1 L256.55 170.55 256.4 169.85 Q255.65 169.7 255.15 169.15 254.4 168.45 254.4 167.35 254.4 166.25 255.15 165.5 L255.65 165.15 250.1 161.5 250.15 164.4 250.8 164.75 Q251.65 165.35 251.65 166.2 L251.4 167.1 252.15 174.0 249.85 174.0 247.55 168.15 Q247.05 168.0 246.6 167.65 245.7 167.1 245.7 166.2 245.7 165.5 246.4 164.95 L246.4 164.75 246.75 160.0 Q246.15 159.85 245.65 159.5 244.6 158.9 244.6 158.0 244.6 157.1 245.65 156.45 246.6 155.85 248.0 155.85 249.4 155.85 250.45 156.45 251.15 156.9 251.35 157.5 L257.35 161.15 257.85 159.9 256.5 156.3 257.4 156.3 252.3 137.25 251.95 138.3 248.75 130.15 248.85 129.9 248.0 129.5 Q246.15 128.4 245.4 126.9 244.55 125.25 245.2 124.15 245.6 123.45 246.55 123.15 246.25 122.15 246.7 121.4 247.4 120.3 249.2 120.25 L249.65 120.25 249.8 119.85 Q250.5 118.7 252.3 118.65 254.0 118.55 255.85 119.65 257.7 120.7 258.55 122.3 L259.0 123.5 282.7 129.05 Q281.35 126.8 291.6 129.95 L292.85 130.35 293.0 130.75 Q298.45 128.0 302.4 136.05 306.1 138.65 307.15 141.25 L306.6 141.9 339.65 169.35 M421.55 299.35 L430.2 315.35 M368.0 225.25 Q366.6 227.45 365.8 230.6 L372.85 242.85 372.85 242.9 372.95 242.8 M368.0 225.25 L367.85 225.05 355.55 201.3 352.6 199.5 M244.15 368.0 L246.05 368.0 Q244.75 367.95 243.8 367.2 242.75 366.4 242.75 365.25 L242.75 365.1 227.65 366.7 227.35 366.95 Q226.45 367.85 225.2 367.85 223.95 367.85 223.1 366.95 222.4 366.3 222.25 365.45 L220.2 359.9 Q219.9 359.5 219.9 358.95 L219.9 358.9 219.85 356.85 225.5 353.85 225.5 356.15 223.45 358.0 223.65 358.9 223.65 359.3 226.25 362.0 226.3 362.0 243.45 360.7 Q242.8 360.0 242.8 359.1 242.8 358.05 243.6 357.35 244.35 356.6 245.5 356.6 L246.65 356.85 247.75 355.85 247.5 354.55 Q247.5 353.35 248.2 352.45 248.6 351.9 249.15 351.7 L249.85 351.6 Q250.65 351.6 251.2 352.1 L254.8 329.55 254.6 329.4 Q253.4 328.6 253.4 327.4 253.4 326.25 254.6 325.4 255.35 324.85 256.3 324.7 L257.0 320.05 Q256.15 319.65 256.15 319.0 256.15 318.35 257.05 317.9 L257.85 317.65 259.15 314.3 261.45 314.3 261.45 318.0 Q262.1 318.4 262.1 319.0 262.1 319.65 261.25 320.05 L260.0 320.45 259.9 325.15 260.25 325.4 Q261.45 326.25 261.45 327.4 261.45 328.6 260.25 329.4 L258.7 330.1 255.6 351.55 Q255.8 351.4 256.05 351.4 256.8 351.4 257.3 352.3 257.8 353.2 257.8 354.45 257.8 355.7 257.3 356.6 L256.5 357.45 257.7 359.55 Q258.5 359.75 259.35 360.25 260.85 361.15 261.7 362.25 262.45 363.3 262.1 364.0 L274.85 370.8 Q275.2 370.5 275.65 370.5 276.45 370.5 277.05 371.45 L277.25 371.95 281.45 369.65 281.45 363.25 283.7 362.05 284.9 368.75 288.45 367.55 Q289.6 362.1 296.9 363.7 298.2 360.4 301.9 360.25 L338.1 331.35 336.9 330.0 Q340.7 322.8 348.05 320.0 L350.3 322.5 351.45 321.5 Q347.8 315.6 355.9 309.75 L356.45 309.3 356.15 310.05 359.15 308.65 367.45 294.0 367.45 293.95 Q365.85 291.5 364.75 288.1 L371.2 274.65 371.55 273.4 Q370.05 267.3 370.05 260.35 370.05 250.8 372.9 242.9 L372.95 242.8 M376.6 299.35 L376.65 299.35 377.6 299.3 Q380.2 299.1 383.2 297.9 L384.5 294.95 M421.55 299.35 L421.4 299.35 420.5 299.3 Q417.9 299.1 414.9 297.9 L413.6 294.95 Q407.35 299.95 399.65 299.95 L399.05 299.95 398.4 299.95 Q390.7 299.95 384.5 294.95 M355.75 327.75 Q360.8 331.0 365.8 327.75 371.8 322.7 369.9 315.95 L367.9 315.35 M376.6 299.35 L367.9 315.35 M355.75 327.75 L355.35 328.2 356.9 330.0 Q352.7 336.55 345.3 339.1 L343.4 337.1 307.15 366.7 307.8 367.55 Q307.3 370.95 302.35 371.65 302.4 380.85 292.55 378.0 L279.3 380.55 252.55 390.3 250.05 392.1 249.15 393.35 Q246.2 396.95 242.1 395.7 236.3 393.85 237.35 388.5 237.55 384.85 240.2 385.35 L240.95 382.3 241.3 383.1 246.05 368.0 M442.35 327.75 L442.8 328.2 M552.05 368.0 L556.8 383.1 557.1 382.3 557.95 385.35 Q560.55 384.85 560.7 388.5 561.8 393.85 555.95 395.7 551.85 396.95 548.95 393.35 L548.05 392.1 545.5 390.3 518.8 380.55 518.7 380.5 505.5 378.0 Q495.7 380.85 495.75 371.65 490.8 370.95 490.25 367.55 L490.95 366.7 454.65 337.1 452.75 339.1 Q445.4 336.55 441.15 330.0 L442.8 328.2 M442.35 327.75 Q437.35 331.0 432.3 327.75 426.25 322.7 428.2 315.95 L430.2 315.35 M541.25 368.0 L541.4 368.2 Q544.4 370.65 547.15 370.5 M541.25 368.0 L541.15 368.0 Q540.3 368.0 539.95 367.6 L539.95 367.65 525.35 375.45 547.1 382.75 548.5 384.4 548.95 384.6 549.95 385.1 547.15 370.5 M250.95 370.5 Q253.7 370.65 256.65 368.2 L256.7 368.2 256.9 368.0 256.95 368.0 Q257.8 368.0 258.15 367.6 L258.2 367.65 272.75 375.45 M250.95 370.5 L248.1 385.1 249.15 384.6 249.6 384.4 251.0 382.75 272.75 375.45" fill="none" stroke="#000000" stroke-linecap="round" stroke-linejoin="round" stroke-width="1.0"/>
    <path d="M539.1 123.5 Q539.0 124.3 539.4 124.95 539.9 125.85 541.15 126.15 L542.2 125.7 545.05 125.35 546.85 123.95 547.2 123.8 548.1 122.55 Q548.75 121.25 548.45 120.3 L548.45 120.25 M542.2 125.7 L542.25 126.1 542.3 126.15 541.9 126.15 541.8 126.15 541.15 126.15 540.1 126.65 538.9 127.4 538.9 130.15 M545.05 125.35 L545.4 125.2 547.2 123.8 M549.25 129.9 Q548.65 128.15 547.85 127.1 546.75 125.75 545.35 125.4 L545.05 125.35 M545.85 137.25 Q543.75 131.35 538.9 136.25 M551.6 123.15 L551.2 124.15 Q550.35 125.7 548.55 126.75 L547.85 127.1 M506.55 129.95 L505.1 130.75 Q504.0 133.7 504.0 135.9 L504.0 135.95 Q504.05 139.55 507.15 141.3 L508.45 141.9 M495.7 136.05 Q496.55 138.55 498.15 140.7 499.95 143.05 502.75 144.9 M491.45 141.9 L496.9 148.1 M504.0 135.9 L500.9 138.1 500.8 138.55 Q500.25 140.85 503.45 142.35 L507.15 141.3 M518.4 136.35 L515.0 137.4 Q511.8 136.35 511.8 133.95 511.8 132.1 513.65 129.45 L515.35 129.05 M524.3 171.85 L524.3 171.7 Q524.3 171.15 524.9 170.75 524.25 170.2 524.25 169.5 524.25 168.65 525.25 168.0 L524.25 167.1 M524.9 170.75 L525.55 171.2 Q526.85 171.95 528.65 171.95 530.45 171.95 531.7 171.2 L532.3 170.85 Q533.0 170.25 533.0 169.5 533.0 168.55 531.8 167.85 L531.45 168.0 Q530.2 168.75 528.4 168.75 526.6 168.75 525.35 168.0 L525.25 168.0 M504.15 172.2 L504.65 172.6 Q505.55 173.5 505.55 174.8 505.55 176.1 504.65 177.0 M502.8 177.9 L502.45 177.9 Q501.15 177.9 500.25 177.0 499.45 176.2 499.35 175.1 M497.25 185.1 L496.95 185.25 Q496.15 185.8 495.0 185.8 L493.75 185.6 M494.2 182.3 L495.0 182.2 Q496.15 182.2 496.95 182.7 L497.65 183.4 M548.05 161.5 L548.05 159.75 547.65 159.5 Q546.65 158.9 546.65 158.0 L546.75 157.5 M551.3 160.0 L550.05 160.15 548.05 159.75 M551.7 164.95 L551.45 164.75 Q550.6 164.15 549.4 164.15 L547.95 164.4 M550.5 168.15 L549.4 168.3 Q548.15 168.3 547.25 167.65 L546.7 167.1 M541.25 169.9 L541.1 169.9 540.35 169.8 Q539.75 169.65 539.25 169.15 L539.1 168.95 538.65 169.0 Q537.9 169.0 537.35 168.15 537.0 167.6 536.9 166.9 L536.5 166.95 Q535.6 166.95 535.0 165.95 534.35 165.0 534.35 163.65 534.35 162.3 535.0 161.3 535.6 160.35 536.5 160.35 537.4 160.35 538.05 161.3 L538.45 162.2 Q539.65 161.7 540.8 161.15 M528.7 163.95 Q530.3 164.0 531.45 164.65 532.75 165.35 532.75 166.35 532.75 167.2 531.8 167.85 M532.3 170.85 Q532.8 171.2 532.8 171.7 532.8 172.3 532.0 172.8 M538.45 162.2 L538.65 163.25 Q539.45 163.25 540.0 164.05 L540.35 164.85 541.1 164.8 Q541.8 164.8 542.4 165.15 L542.45 165.15 M538.65 163.25 L538.65 163.65 Q538.65 165.0 538.05 165.95 537.55 166.7 536.9 166.9 M539.1 168.95 L540.0 168.15 Q540.5 167.35 540.5 166.15 L540.35 164.85 M537.75 172.35 Q536.55 172.35 535.65 173.2 535.15 173.75 534.95 174.4 534.8 174.8 534.8 175.3 534.8 176.55 535.65 177.4 536.55 178.3 537.75 178.3 L538.4 178.25 538.7 176.95 538.6 176.0 538.5 175.9 538.15 175.2 Q537.75 174.45 537.75 173.5 537.75 172.9 537.9 172.35 L537.75 172.35 M541.15 170.25 L541.0 170.25 540.3 170.1 Q539.25 170.1 538.5 171.1 L537.9 172.35 M535.25 156.3 Q538.55 154.45 540.7 156.3 M540.25 159.9 Q537.3 157.0 533.45 158.55 M538.6 176.0 L538.15 175.2 M541.55 176.5 L540.3 176.95 540.25 176.95 539.85 177.4 Q539.2 178.05 538.4 178.25 L537.9 178.85 536.8 179.6 M540.25 176.95 Q539.25 176.9 538.6 176.0 M534.95 174.4 Q534.45 174.6 534.05 175.0 L533.7 175.4 M339.65 169.35 L340.6 170.15 335.1 176.95 M346.95 187.2 L353.55 179.0 354.8 182.3 356.7 187.2 350.1 193.15 348.55 190.15 346.95 187.2 M352.6 199.5 Q350.55 194.4 356.9 190.15 L358.1 189.8 Q363.2 188.35 366.3 191.75 M348.55 190.15 Q352.5 188.8 354.1 185.05 L354.8 182.3 M355.55 201.3 Q357.9 196.5 361.25 195.7 364.15 195.0 367.85 197.45 M443.25 182.3 Q443.5 183.75 444.05 185.05 445.55 188.8 449.55 190.15 L451.15 187.2 444.55 179.0 443.25 182.3 441.4 187.2 447.95 193.15 449.55 190.15 M431.8 191.75 Q434.85 188.35 440.05 189.8 L441.15 190.15 Q447.5 194.4 445.5 199.5 M442.5 201.3 Q440.15 196.5 436.9 195.7 433.9 195.0 430.2 197.45 M458.5 169.35 L457.5 170.15 463.0 176.95 M419.85 220.25 L423.65 220.6 Q427.5 221.5 429.85 224.85 L430.15 225.25 M405.35 237.35 Q403.85 241.4 402.4 243.6 L402.65 244.55 Q403.45 248.0 403.75 252.25 L404.55 252.95 Q406.65 255.05 406.65 258.0 406.65 261.0 404.55 263.1 L403.8 263.75 Q403.5 268.4 402.65 272.05 L402.3 273.4 Q404.85 275.1 407.2 280.05 L409.2 284.95 410.25 285.05 Q416.25 285.65 420.8 281.7 423.7 279.1 426.0 274.65 L425.65 273.2 Q409.4 260.4 418.75 247.0 421.15 244.5 424.7 241.95 421.6 236.75 415.75 235.5 411.55 234.55 405.9 235.6 L405.35 237.35 Q399.85 232.0 392.75 237.3 394.5 242.25 396.25 244.4 397.6 238.9 399.45 238.9 401.15 238.9 402.4 243.6 M405.9 235.6 L411.85 224.45 M425.25 242.9 L425.2 242.8 424.7 241.95 M413.6 294.95 L409.25 285.05 409.2 284.95 M410.25 285.05 L409.25 285.05 M430.65 293.95 L430.6 294.0 428.85 296.2 Q425.75 299.25 421.55 299.35 M430.2 315.35 Q435.7 315.65 437.8 312.45 438.7 310.9 438.9 308.65 M426.0 274.65 L426.45 273.75 425.65 273.2 M378.25 220.25 L374.4 220.6 Q370.55 221.5 368.2 224.85 L368.0 225.25 M372.95 242.8 L373.4 241.95 Q376.5 236.75 382.35 235.5 386.55 234.55 392.15 235.6 L386.25 224.45 M373.4 241.95 Q376.75 244.9 378.85 247.8 388.05 260.75 371.65 273.75 374.05 278.85 377.3 281.7 382.2 286.0 388.9 284.95 390.15 282.1 391.5 279.95 394.1 275.35 396.6 273.65 L396.2 272.05 Q395.35 268.4 395.1 263.8 L395.1 263.75 394.35 263.1 Q392.25 261.0 392.25 258.0 392.25 255.05 394.35 252.95 L395.1 252.3 Q395.45 248.0 396.2 244.55 L396.25 244.4 M392.75 237.3 L392.15 235.6 M403.75 252.25 Q401.9 250.8 399.45 250.8 396.95 250.8 395.1 252.3 M403.8 263.75 Q401.9 265.2 399.45 265.2 396.95 265.2 395.1 263.75 M371.2 274.65 L371.65 273.75 371.55 273.4 M367.45 293.95 L367.55 294.0 369.3 296.2 Q372.3 299.25 376.6 299.35 M384.5 294.95 L388.9 284.95 M402.3 273.4 Q401.1 277.8 399.45 277.8 397.8 277.8 396.6 273.65 M367.9 315.35 L368.95 316.15 Q364.8 325.0 358.05 317.75 L357.6 317.4 Q354.2 314.3 356.15 310.05 M367.9 315.35 Q362.35 315.65 360.35 312.45 359.4 310.9 359.15 308.65 M351.45 321.5 L352.6 320.5 354.85 317.75 Q356.05 317.8 356.95 318.55 358.0 319.55 358.5 321.6 L357.35 325.95 355.75 327.75 M246.05 368.0 L246.25 368.0 Q247.6 367.95 248.6 367.2 L249.15 366.65 249.6 365.25 Q249.6 364.5 249.15 363.9 L248.6 363.3 248.55 363.3 Q247.5 362.5 246.15 362.5 244.8 362.5 243.8 363.3 L243.45 363.65 Q242.8 364.25 242.75 365.1 M338.1 331.35 L343.4 337.1 M350.3 322.5 L355.35 328.2 M352.6 320.5 Q354.1 321.0 355.05 321.9 L355.1 321.9 Q357.0 323.4 357.35 325.95 M446.65 321.5 L445.5 320.5 Q444.0 321.0 443.0 321.9 441.05 323.4 440.7 325.95 L442.35 327.75 M442.8 328.2 L447.8 322.5 M460.0 331.35 L454.65 337.1 M430.2 315.35 L429.15 316.15 Q433.3 325.0 440.05 317.75 L440.5 317.4 Q443.85 314.3 441.95 310.05 M445.5 320.5 L443.25 317.75 Q442.0 317.8 441.15 318.55 440.1 319.55 439.6 321.6 L440.7 325.95 M391.5 279.95 Q398.9 285.15 407.2 280.05 M544.1 200.25 L544.75 199.75 Q545.85 199.15 547.45 199.15 548.65 199.15 549.6 199.5 M549.85 202.85 L547.45 203.3 545.8 203.1 M549.7 214.2 L549.25 213.85 Q548.45 213.35 547.3 213.35 546.2 213.35 545.4 213.85 M548.15 216.85 L547.3 216.95 Q546.2 216.95 545.4 216.4 L545.25 216.3 M541.05 320.05 L541.0 320.05 538.95 320.5 538.1 320.45 M540.25 317.65 L538.95 317.5 536.85 317.9 536.7 318.0 M538.2 325.15 Q539.25 324.6 540.65 324.6 L541.8 324.7 M543.3 329.55 Q542.2 330.25 540.65 330.25 L539.4 330.1 M512.55 370.25 Q512.55 371.1 513.15 371.7 513.55 372.1 514.1 372.3 L514.65 372.3 Q515.5 372.3 516.1 371.7 516.7 371.1 516.7 370.25 L516.6 369.65 516.1 368.75 Q515.5 368.2 514.65 368.2 513.8 368.2 513.15 368.75 512.55 369.4 512.55 370.25 M490.95 366.7 L496.2 360.25 M505.5 378.0 Q504.25 374.15 505.5 371.45 506.65 369.15 509.6 367.55 M525.35 375.45 L523.8 376.3 Q523.25 377.3 522.45 377.3 L521.65 377.05 521.15 376.5 516.3 373.6 Q515.7 374.25 515.5 374.95 514.45 377.7 518.7 380.5 M523.25 370.8 L523.8 371.45 Q524.35 372.5 524.35 373.9 524.35 375.3 523.8 376.3 M520.8 371.95 Q520.5 372.8 520.5 373.9 520.5 375.3 521.05 376.3 L521.15 376.5 M514.1 372.3 L516.3 373.6 M501.2 363.7 L495.75 371.65 M546.85 352.1 Q546.2 351.6 545.3 351.6 544.2 351.6 543.4 352.35 L543.3 352.5 Q543.7 353.3 543.7 354.45 L543.45 356.1 Q544.25 356.9 545.3 356.9 L546.5 356.55 547.15 356.1 Q547.95 355.3 547.95 354.25 547.95 353.15 547.15 352.35 L546.85 352.1 M551.4 356.85 Q551.0 357.0 550.65 357.35 549.9 358.05 549.9 359.1 549.9 359.75 550.25 360.35 551.05 359.75 552.2 359.75 553.5 359.75 554.4 360.45 L554.65 360.7 M550.35 355.85 L549.9 356.6 548.95 357.4 548.2 357.5 Q547.2 357.5 546.55 356.6 L546.5 356.55 M555.3 365.1 Q555.3 364.25 554.65 363.65 L554.3 363.3 Q553.3 362.5 551.9 362.5 550.55 362.5 549.5 363.3 L549.45 363.3 548.95 363.9 Q548.5 364.5 548.5 365.25 548.5 366.0 548.95 366.65 L549.45 367.2 Q550.45 367.95 551.8 368.0 L552.05 368.0 M554.7 360.7 Q555.3 361.35 555.3 362.15 555.3 363.0 554.65 363.65 M540.4 359.55 L541.6 359.25 Q542.95 359.1 543.35 359.75 543.6 360.15 543.4 360.7 544.35 360.7 544.7 361.25 545.05 361.9 544.3 362.95 L545.4 362.75 Q546.75 362.55 547.2 363.25 547.55 363.9 546.75 365.0 545.9 366.05 544.45 366.95 542.9 367.8 541.55 368.0 L541.25 368.0 M547.15 370.5 L548.95 370.05 Q550.4 369.45 551.8 368.0 M550.25 360.35 L550.05 360.45 Q549.15 361.15 549.15 362.15 549.15 362.8 549.5 363.3 M543.3 352.5 L543.2 352.3 542.5 351.55 M541.55 357.45 L542.0 357.5 Q542.7 357.5 543.2 356.6 L543.45 356.1 M543.4 360.7 L542.95 360.75 Q541.6 360.9 540.1 361.75 538.6 362.65 537.75 363.75 L537.3 364.55 Q537.1 365.1 537.35 365.5 537.75 366.15 539.1 366.0 L540.2 365.75 540.25 365.7 Q541.05 364.65 542.6 363.75 543.45 363.25 544.3 362.95 M539.95 367.6 L539.85 367.5 539.85 367.45 Q539.45 366.8 540.2 365.75 M537.3 364.55 Q536.35 364.55 536.0 364.0 M545.5 390.3 Q544.65 387.8 545.6 385.35 546.1 384.0 547.1 382.75 M557.95 385.35 L558.7 388.25 Q553.45 393.65 548.95 388.8 L548.5 388.25 548.5 386.3 548.05 392.1 M548.5 384.4 L548.5 386.3 M549.95 385.1 Q554.85 387.05 556.8 383.1 M574.65 358.0 L574.95 357.55 Q575.55 357.0 576.3 357.0 577.05 357.0 577.6 357.55 578.2 358.15 578.2 358.9 M577.9 359.9 L577.6 360.2 Q577.05 360.8 576.3 360.8 575.55 360.8 574.95 360.2 L574.45 359.3 M571.9 362.0 L572.85 361.85 Q574.15 361.85 575.0 362.7 575.9 363.6 575.9 364.85 L575.85 365.45 M570.5 366.7 Q569.85 365.95 569.85 364.85 569.85 363.6 570.7 362.7 571.2 362.25 571.85 362.0 M294.1 135.95 Q294.0 139.55 291.0 141.3 L294.65 142.35 Q297.85 140.85 297.3 138.55 L297.15 138.1 294.1 135.9 294.1 135.95 M279.7 136.35 L283.05 137.4 Q286.25 136.35 286.3 133.95 286.25 132.1 284.4 129.45 L282.7 129.05 M291.6 129.95 L293.0 130.75 Q294.1 133.7 294.1 135.9 M291.0 141.3 L289.65 141.9 M302.4 136.05 Q301.5 138.55 299.9 140.7 298.1 143.05 295.3 144.9 M301.2 148.1 L306.6 141.9 M246.55 123.15 L246.95 124.15 Q247.7 125.7 249.55 126.75 L250.25 127.1 Q251.3 125.75 252.75 125.4 L253.0 125.35 252.65 125.2 250.9 123.8 250.05 122.55 Q249.3 121.25 249.65 120.3 L249.65 120.25 M259.2 130.15 L259.2 127.4 257.95 126.65 256.95 126.15 256.3 126.15 256.15 126.15 255.8 126.15 255.8 126.1 255.9 125.7 253.05 125.35 253.0 125.35 251.2 123.95 250.9 123.8 M256.95 126.15 Q256.4 125.85 255.9 125.7 M259.0 123.5 Q259.1 124.3 258.75 124.95 258.2 125.85 256.95 126.15 M248.85 129.9 Q249.4 128.15 250.25 127.1 M259.2 136.25 Q254.3 131.35 252.3 137.25 M266.05 172.8 Q265.3 172.3 265.3 171.7 265.3 171.2 265.8 170.85 265.05 170.25 265.05 169.5 265.05 168.55 266.3 167.85 265.35 167.2 265.35 166.35 265.35 165.35 266.6 164.65 267.75 164.0 269.4 163.95 M265.8 170.85 L266.4 171.2 Q267.65 171.95 269.45 171.95 271.25 171.95 272.55 171.2 L273.15 170.75 Q273.8 170.2 273.8 169.5 273.8 168.65 272.8 168.0 L272.7 168.0 Q271.45 168.75 269.65 168.75 267.85 168.75 266.6 168.0 L266.3 167.85 M273.15 170.75 Q273.75 171.15 273.75 171.7 L273.75 171.85 M273.8 167.1 Q273.55 167.55 272.8 168.0 M257.4 156.3 Q259.55 154.45 262.8 156.3 M250.1 161.5 L250.05 159.75 248.0 160.15 246.75 160.0 M251.35 157.5 L251.45 158.0 Q251.45 158.9 250.45 159.5 L250.05 159.75 M246.4 164.95 L246.6 164.75 Q247.5 164.15 248.7 164.15 L250.15 164.4 M251.4 167.1 L250.8 167.65 Q249.9 168.3 248.7 168.3 L247.55 168.15 M255.65 165.15 Q256.25 164.8 256.95 164.8 L257.75 164.85 Q257.85 164.4 258.1 164.05 258.65 163.25 259.4 163.25 L259.45 163.25 259.65 162.2 257.35 161.15 M259.45 163.25 L259.4 163.65 Q259.4 165.0 260.05 165.95 260.55 166.7 261.2 166.9 L261.55 166.95 Q262.45 166.95 263.1 165.95 263.7 165.0 263.7 163.65 263.7 162.3 263.1 161.3 262.45 160.35 261.55 160.35 260.65 160.35 260.05 161.3 L259.65 162.2 M256.4 169.85 L256.95 169.9 257.75 169.8 258.8 169.15 259.0 168.95 258.1 168.15 Q257.55 167.35 257.55 166.15 L257.75 164.85 M256.5 176.5 Q257.05 176.95 257.8 176.95 L257.85 176.95 Q258.8 176.9 259.55 176.0 L259.6 175.95 259.6 175.9 259.65 175.85 260.0 175.2 260.3 173.5 260.15 172.35 259.6 171.1 Q258.8 170.1 257.8 170.1 L257.05 170.25 Q256.8 170.3 256.55 170.55 M259.0 168.95 L259.4 169.0 Q260.15 169.0 260.7 168.15 L261.2 166.9 M259.55 176.0 L259.35 176.95 Q259.35 177.65 259.65 178.25 L260.3 178.3 Q261.5 178.3 262.4 177.4 263.25 176.55 263.25 175.3 L263.15 174.4 262.4 173.2 Q261.5 172.35 260.3 172.35 L260.15 172.35 M259.6 175.95 L259.65 175.85 M259.65 178.25 L260.15 178.85 261.3 179.6 M259.65 178.25 Q258.85 178.05 258.25 177.4 L257.85 176.95 M264.4 175.4 L264.05 175.0 263.15 174.4 M264.6 158.55 Q260.8 157.0 257.85 159.9 M293.9 172.2 L293.4 172.6 Q292.5 173.5 292.5 174.8 292.5 176.1 293.4 177.0 M298.75 175.1 Q298.65 176.2 297.85 177.0 296.95 177.9 295.65 177.9 L295.3 177.9 M300.85 185.1 L301.1 185.25 Q301.95 185.8 303.05 185.8 L304.3 185.6 M300.5 183.4 Q300.65 183.0 301.1 182.7 301.95 182.2 303.05 182.2 L303.85 182.3 M253.95 200.25 L253.35 199.75 Q252.2 199.15 250.65 199.15 L248.5 199.5 M252.3 203.1 L250.65 203.3 248.3 202.85 M252.75 213.9 L252.7 213.85 Q251.9 213.35 250.75 213.35 249.65 213.35 248.85 213.85 248.55 214.0 248.4 214.2 M249.9 216.85 L250.75 216.95 Q251.9 216.95 252.7 216.4 L252.9 216.3 M219.9 358.9 Q219.9 358.15 220.5 357.55 221.0 357.0 221.8 357.0 222.55 357.0 223.15 357.55 L223.45 358.0 M226.25 362.0 L225.2 361.85 Q223.95 361.85 223.1 362.7 222.2 363.6 222.2 364.85 L222.25 365.45 M223.65 359.3 L223.15 360.2 Q222.55 360.8 221.8 360.8 221.0 360.8 220.5 360.2 L220.2 359.9 M227.65 366.7 Q228.2 365.95 228.2 364.85 228.2 363.6 227.35 362.7 L226.3 362.0 M250.05 392.1 L249.6 386.3 249.6 388.25 249.15 388.8 Q244.65 393.65 239.4 388.25 L240.2 385.35 M260.0 320.45 L259.15 320.5 257.05 320.05 257.0 320.05 M261.45 318.0 L261.25 317.9 259.15 317.5 257.85 317.65 M256.3 324.7 L257.4 324.6 Q258.8 324.6 259.9 325.15 M258.7 330.1 L257.4 330.25 Q255.9 330.25 254.8 329.55 M281.45 369.65 L282.0 368.75 Q282.6 368.2 283.45 368.2 284.3 368.2 284.9 368.75 285.5 369.4 285.5 370.25 285.5 371.1 284.9 371.7 L284.0 372.3 281.8 373.6 282.6 374.95 Q283.6 377.7 279.4 380.5 L279.3 380.55 M284.0 372.3 L283.45 372.3 Q282.6 372.3 282.0 371.7 281.35 371.1 281.35 370.25 L281.45 369.65 M251.2 352.1 Q251.9 351.6 252.8 351.6 253.85 351.6 254.7 352.35 L254.75 352.5 254.85 352.3 Q255.15 351.7 255.6 351.55 M256.5 357.45 L256.05 357.5 Q255.35 357.5 254.85 356.6 L254.65 356.1 Q253.8 356.9 252.8 356.9 252.1 356.9 251.55 356.55 L251.55 356.6 Q250.85 357.5 249.85 357.5 L249.15 357.4 248.2 356.6 247.75 355.85 M254.65 356.1 Q254.35 355.4 254.35 354.45 254.35 353.3 254.75 352.5 M251.55 356.55 L250.95 356.1 Q250.15 355.3 250.15 354.25 250.15 353.15 250.95 352.35 L251.2 352.1 M246.65 356.85 L247.45 357.35 Q248.2 358.05 248.2 359.1 L247.9 360.35 248.0 360.45 Q248.9 361.15 248.9 362.15 248.9 362.8 248.55 363.3 M256.9 368.0 L256.55 368.0 Q255.15 367.8 253.7 366.95 252.15 366.05 251.35 365.0 250.55 363.9 250.95 363.25 251.3 362.55 252.65 362.75 L253.8 362.95 Q253.0 361.9 253.4 361.25 253.75 360.7 254.7 360.7 254.5 360.15 254.75 359.75 255.15 359.1 256.5 359.25 L257.7 359.55 M247.9 360.35 Q247.05 359.75 245.85 359.75 244.6 359.75 243.7 360.45 L243.45 360.7 Q242.8 361.35 242.8 362.15 242.8 363.0 243.45 363.65 M246.25 368.0 Q247.65 369.45 249.15 370.05 L250.95 370.5 M258.15 367.6 L258.3 367.45 Q258.65 366.8 257.85 365.75 L257.85 365.7 Q257.0 364.65 255.55 363.75 L253.8 362.95 M254.7 360.7 L255.15 360.75 Q256.5 360.9 258.0 361.75 259.5 362.65 260.35 363.75 L260.8 364.55 Q261.75 364.55 262.1 364.0 M257.85 365.75 L259.05 366.0 Q260.35 366.15 260.75 365.5 L260.8 364.55 M272.75 375.45 L274.3 376.3 Q273.7 375.3 273.7 373.9 273.7 372.5 274.3 371.45 L274.85 370.8 M249.6 384.4 L249.6 386.3 M251.0 382.75 Q252.0 384.0 252.45 385.35 253.4 387.8 252.55 390.3 M277.25 371.95 Q277.6 372.8 277.6 373.9 277.6 375.3 277.05 376.3 L276.9 376.5 277.15 376.4 281.8 373.6 M276.9 376.5 L276.45 377.05 275.65 377.3 Q274.85 377.3 274.3 376.3 M288.45 367.55 Q291.45 369.15 292.55 371.45 293.85 374.15 292.55 378.0 M302.35 371.65 L296.9 363.7 M307.15 366.7 L301.9 360.25 M241.3 383.1 Q243.25 387.05 248.1 385.1" fill="none" stroke="#000000" stroke-linecap="round" stroke-linejoin="round" stroke-opacity="0.49803922" stroke-width="1.0"/>
  </g>
</svg>
