<?xml version="1.0" encoding="UTF-8" standalone="no"?>
<svg xmlns:xlink="http://www.w3.org/1999/xlink" height="7.7px" width="35.6px" xmlns="http://www.w3.org/2000/svg">
  <g transform="matrix(1.0, 0.0, 0.0, 1.0, -382.1, -148.9)">
    <path d="M402.25 153.55 Q402.4 155.1 403.8 156.1 408.95 152.25 415.3 155.65 417.8 153.25 417.05 150.15 L415.15 151.9 Q414.75 150.35 413.75 149.4 413.2 150.75 411.45 151.5 411.05 150.15 409.65 149.8 408.65 151.3 406.95 152.05 L405.45 151.35 404.0 154.0 402.25 153.55 M397.55 153.55 L395.8 154.0 394.35 151.35 392.85 152.05 Q391.15 151.3 390.15 149.8 388.75 150.15 388.35 151.5 386.6 150.75 386.05 149.4 385.05 150.35 384.65 151.9 L382.75 150.15 Q382.0 153.25 384.5 155.65 390.85 152.25 396.0 156.1 397.4 155.1 397.55 153.55" fill="none" stroke="#000000" stroke-linecap="round" stroke-linejoin="round" stroke-opacity="0.5019608" stroke-width="1.0"/>
  </g>
</svg>
