<?xml version="1.0" encoding="UTF-8" standalone="no"?>
<svg xmlns:xlink="http://www.w3.org/1999/xlink" height="3.8px" width="24.05px" xmlns="http://www.w3.org/2000/svg">
  <g transform="matrix(1.0, 0.0, 0.0, 1.0, -387.05, -182.65)">
    <path d="M407.15 184.85 Q407.9 184.05 409.05 183.45 409.95 182.95 410.75 182.65 L411.1 183.8 411.0 184.95 410.4 186.05 409.8 186.35 409.1 186.45 Q408.55 186.45 407.9 186.05 407.1 185.5 407.15 184.85 M387.4 182.65 Q388.2 182.95 389.1 183.4 390.25 184.05 391.0 184.85 391.1 185.5 390.3 186.0 L389.05 186.45 388.95 186.45 388.35 186.35 387.85 186.1 Q387.0 185.45 387.05 183.8 387.05 183.5 387.4 182.65" fill="#000000" fill-rule="evenodd" stroke="none"/>
  </g>
</svg>
