<?xml version="1.0" encoding="UTF-8" standalone="no"?>
<svg xmlns:xlink="http://www.w3.org/1999/xlink" height="4.4px" width="26.0px" xmlns="http://www.w3.org/2000/svg">
  <g transform="matrix(1.0, 0.0, 0.0, 1.0, -386.9, -181.6)">
    <path d="M386.95 181.6 L388.35 182.3 Q390.1 183.2 391.65 184.5 L392.0 184.8 392.4 185.15 392.5 185.2 392.7 185.4 392.7 185.45 392.6 185.5 392.15 185.7 392.0 185.75 391.95 185.75 390.6 186.0 Q389.45 185.95 388.3 185.2 L387.65 184.3 387.1 182.55 386.9 181.6 386.95 181.6 M407.75 184.8 L408.15 184.5 Q409.65 183.2 411.45 182.3 L412.85 181.6 412.9 181.6 412.7 182.55 412.1 184.3 411.45 185.2 Q410.35 185.95 409.2 186.0 L407.85 185.75 407.8 185.75 407.6 185.7 407.15 185.5 407.05 185.45 407.05 185.4 407.1 185.4 407.3 185.2 407.35 185.15 407.75 184.8" fill="#000000" fill-rule="evenodd" stroke="none"/>
  </g>
</svg>
