<?xml version="1.0" encoding="UTF-8" standalone="no"?>
<svg xmlns:xlink="http://www.w3.org/1999/xlink" height="8.55px" width="32.7px" xmlns="http://www.w3.org/2000/svg">
  <g transform="matrix(1.0, 0.0, 0.0, 1.0, -383.15, -185.45)">
    <path d="M384.0 185.55 L386.45 187.35 388.5 188.95 389.55 189.7 391.9 191.1 390.55 192.65 389.1 193.5 388.25 193.85 387.8 193.95 386.75 193.9 386.45 193.8 Q385.6 193.45 385.1 192.75 L383.55 190.65 383.5 190.45 383.2 188.8 383.2 187.2 Q383.3 186.6 383.55 186.0 383.65 185.7 384.0 185.55 M412.55 187.25 L415.0 185.45 415.45 185.9 415.75 187.1 415.8 188.7 415.5 190.35 415.4 190.55 413.85 192.65 412.55 193.7 412.25 193.8 411.2 193.85 410.75 193.75 409.9 193.4 408.45 192.55 Q407.7 192.05 407.1 191.0 L409.45 189.6 410.5 188.85 412.55 187.25" fill="#000000" fill-rule="evenodd" stroke="none"/>
  </g>
</svg>
