<?xml version="1.0" encoding="UTF-8" standalone="no"?>
<svg xmlns:xlink="http://www.w3.org/1999/xlink" height="65.05px" width="63.4px" xmlns="http://www.w3.org/2000/svg">
  <g transform="matrix(1.0, 0.0, 0.0, 1.0, -368.15, -158.85)">
    <path d="M400.5 160.85 Q400.6 161.95 400.8 162.25 L403.3 160.3 Q404.6 159.5 406.4 159.35 L407.05 159.35 405.05 162.25 405.05 162.5 414.65 163.25 414.65 163.6 Q413.65 163.6 413.2 163.9 412.9 164.1 412.15 164.75 L412.15 165.0 Q413.55 164.7 417.45 167.4 420.65 169.65 421.9 171.0 L420.1 170.9 417.3 171.35 416.9 171.5 Q420.15 172.45 424.5 177.75 427.7 181.65 429.3 184.75 L429.1 184.85 427.7 184.15 Q426.6 183.55 425.85 183.6 428.65 184.75 430.0 189.9 430.7 192.6 431.05 195.75 L431.05 196.35 Q430.2 196.2 429.25 195.0 L428.05 193.35 427.8 193.35 427.9 193.45 Q428.4 194.15 428.4 196.0 L427.75 199.45 427.75 199.55 427.7 199.75 424.65 203.5 424.4 203.5 425.55 199.0 425.55 198.35 425.35 198.9 Q424.7 200.75 423.3 202.85 421.4 205.65 419.55 206.5 L419.55 202.5 Q419.25 204.0 417.7 205.55 L414.3 209.1 413.9 209.1 413.9 205.1 Q412.75 207.95 410.7 210.85 408.5 213.9 407.0 214.4 L407.3 216.35 406.95 219.15 Q406.55 220.6 405.35 221.45 L404.5 222.0 Q399.95 224.85 395.35 221.9 L395.25 222.0 394.35 221.45 Q393.15 220.6 392.75 219.15 392.35 217.8 392.4 216.35 392.4 215.35 392.7 214.4 391.2 213.9 389.0 210.85 386.95 207.95 385.8 205.1 L385.8 209.1 385.4 209.1 382.0 205.55 Q380.45 204.0 380.15 202.5 L380.15 206.5 Q378.3 205.65 376.4 202.85 375.0 200.75 374.35 198.9 L374.15 198.35 374.15 199.0 375.3 203.5 375.05 203.5 Q372.5 200.65 372.0 199.75 L371.95 199.55 371.95 199.45 371.8 198.85 371.3 196.0 Q371.3 194.15 371.85 193.45 L371.9 193.35 371.65 193.35 370.45 195.0 Q369.5 196.2 368.65 196.35 L368.65 195.75 Q369.0 192.6 369.7 189.9 371.05 184.75 373.9 183.6 373.1 183.55 372.0 184.15 L370.6 184.85 370.4 184.75 Q372.0 181.65 375.2 177.75 379.55 172.45 382.8 171.5 L382.4 171.35 Q381.35 170.95 379.6 170.9 L377.8 171.0 Q379.05 169.65 382.25 167.4 386.15 164.7 387.55 165.0 L387.55 164.75 386.5 163.9 385.05 163.6 385.05 163.25 394.65 162.5 394.65 162.25 392.65 159.35 393.3 159.35 Q395.1 159.5 396.4 160.3 L398.9 162.25 399.2 160.85 Q399.3 159.9 399.9 159.35 400.4 159.9 400.5 160.85 M373.9 183.6 L374.15 183.5 374.05 183.6 373.9 183.6 M425.55 183.5 L425.65 183.6 425.85 183.6 425.55 183.5" fill="none" stroke="#000000" stroke-linecap="round" stroke-linejoin="round" stroke-width="1.0"/>
    <path d="M388.05 191.9 L386.85 190.25 Q386.7 189.85 386.7 188.2 L386.85 186.8 384.7 185.8 Q383.15 185.35 382.6 184.35 382.05 183.3 382.5 182.4 383.15 181.1 384.35 180.4 L384.95 180.0 385.0 179.95 Q384.6 177.5 388.8 176.25 L387.8 175.7 389.8 175.5 389.4 175.05 388.75 174.2 388.1 173.2 388.55 173.15 389.4 173.1 391.8 173.1 Q393.2 173.1 394.45 173.6 L396.0 174.05 395.95 173.9 395.85 173.55 395.75 173.35 395.7 173.2 395.7 173.15 395.8 173.2 396.0 173.2 396.9 173.35 Q398.55 173.55 399.85 174.7 401.15 173.55 402.8 173.35 L403.7 173.2 404.0 173.15 403.85 173.55 403.75 173.9 403.7 174.05 405.25 173.6 Q406.5 173.1 407.9 173.1 L410.3 173.1 411.15 173.15 411.6 173.2 410.95 174.2 410.3 175.05 409.9 175.5 411.9 175.7 410.9 176.25 Q415.1 177.5 414.7 179.95 L414.8 180.0 415.35 180.4 Q416.55 181.1 417.2 182.4 417.65 183.3 417.1 184.35 416.7 185.1 415.75 185.55 L415.55 185.65 415.3 185.75 415.2 185.75 415.0 185.8 Q413.75 186.2 412.85 186.8 L413.0 188.2 412.85 190.25 411.5 192.1 411.6 192.2 Q411.65 194.5 410.55 196.3 410.65 198.5 409.4 199.85 L409.3 200.9 Q409.2 202.3 408.6 203.6 408.7 206.05 407.5 207.7 L407.5 207.8 407.45 207.85 Q407.6 209.45 406.35 210.35 M407.8 177.75 L405.25 177.6 399.9 178.35 399.8 178.35 Q396.35 178.25 394.45 177.6 L391.9 177.75 M409.85 180.8 Q409.0 180.25 407.9 180.25 L405.05 180.8 402.3 181.6 399.8 181.7 397.4 181.6 394.65 180.8 Q393.35 180.3 391.8 180.25 390.7 180.25 389.85 180.8 M389.2 184.05 L389.1 184.3 389.2 185.6 Q389.5 186.6 390.4 187.05 L391.4 187.5 Q392.45 187.9 393.2 187.9 L393.7 187.85 Q393.95 187.75 394.3 187.6 L395.1 187.05 393.7 186.45 393.7 186.4 391.65 185.3 Q390.45 184.65 389.45 184.15 L389.2 184.05 Q388.1 183.5 387.4 183.45 L385.25 183.45 M397.3 189.1 L395.45 189.0 393.95 189.15 393.2 189.35 Q390.55 190.2 388.2 192.1 L388.1 192.2 Q388.05 194.5 389.2 196.3 392.4 191.9 396.95 191.65 M389.45 188.55 Q388.15 187.75 387.2 187.0 L386.85 186.8 M389.2 196.3 Q389.05 198.5 390.3 199.85 392.35 196.1 396.95 194.75 L397.35 190.05 397.55 189.2 398.05 187.9 Q398.85 187.35 399.9 187.55 400.85 187.35 401.65 187.9 L402.15 189.2 402.35 190.05 402.75 194.75 Q407.35 196.1 409.4 199.85 M401.7 186.3 L401.7 186.6 402.3 187.1 403.35 187.3 404.65 187.05 406.0 186.45 406.0 186.4 408.05 185.3 410.25 184.15 410.5 184.05 Q411.6 183.5 412.3 183.45 L414.45 183.45 M402.4 189.1 L404.25 189.0 405.75 189.15 406.5 189.35 Q409.15 190.2 411.5 192.1 M395.1 187.05 L396.35 187.3 397.45 187.1 398.0 186.6 398.0 186.3 M404.65 187.05 L405.4 187.6 406.05 187.85 406.5 187.9 408.3 187.5 409.3 187.05 Q410.2 186.6 410.5 185.6 L410.6 184.3 410.5 184.05 M412.85 186.8 L412.5 187.0 410.25 188.55 M410.55 196.3 Q407.3 191.9 402.75 191.65 M407.45 207.85 L407.4 207.8 Q405.35 204.75 403.75 204.35 M407.0 214.4 L406.45 213.45 405.75 214.5 M406.45 213.45 L406.65 212.45 Q406.65 211.2 406.15 210.55 405.8 210.1 405.25 209.95 L404.6 209.9 Q403.6 209.9 402.55 210.4 401.3 211.1 400.85 212.35 M405.25 209.95 Q404.1 208.75 403.6 206.75 L403.1 199.5 402.75 194.75 M392.7 214.4 L393.25 213.45 393.05 212.45 Q393.05 211.2 393.55 210.55 393.9 210.1 394.45 209.95 395.6 208.75 396.1 206.75 L396.6 199.5 Q393.75 200.15 391.1 203.6 391.0 206.05 392.2 207.7 L392.25 207.8 392.25 207.85 392.3 207.8 Q394.35 204.75 395.95 204.35 M390.3 199.85 L390.4 200.9 Q390.5 202.3 391.1 203.6 M392.25 207.85 Q392.1 209.45 393.35 210.35 M393.25 213.45 Q393.45 214.0 393.95 214.5 M405.1 212.5 Q404.95 211.75 403.95 211.75 403.35 211.75 402.6 212.6 402.4 212.9 402.35 213.55 M394.6 212.5 Q394.75 211.75 395.75 211.75 396.35 211.75 397.1 212.6 L397.35 213.55 M398.85 212.35 Q398.4 211.1 397.15 210.4 396.1 209.9 395.1 209.9 L394.45 209.95 M404.5 222.0 Q403.2 220.85 401.95 220.55 L399.9 220.1 397.75 220.55 Q396.6 220.85 395.35 221.9 M403.1 199.5 Q405.95 200.15 408.6 203.6 M396.6 199.5 L396.95 194.75" fill="none" stroke="#000000" stroke-linecap="round" stroke-linejoin="round" stroke-opacity="0.5019608" stroke-width="1.0"/>
  </g>
</svg>
