<?xml version="1.0" encoding="UTF-8" standalone="no"?>
<svg xmlns:xlink="http://www.w3.org/1999/xlink" height="122.65px" width="87.25px" xmlns="http://www.w3.org/2000/svg">
  <g transform="matrix(1.0, 0.0, 0.0, 1.0, -356.2, -133.75)">
    <path d="M380.2 172.95 L380.4 172.25 Q381.85 167.1 380.5 161.55 L380.25 160.5 M419.25 172.25 L419.45 172.95 Q418.7 174.3 416.75 174.4 417.65 175.25 417.5 176.6 M383.95 173.7 Q383.35 174.0 382.95 174.4 382.05 175.25 382.2 176.6 L382.3 177.2 Q382.4 179.25 383.15 181.2 384.25 184.25 387.1 187.25 L387.95 187.7 Q388.7 188.0 389.2 187.7 390.05 187.2 390.35 185.1 M383.15 181.2 Q381.65 182.85 381.8 185.1 382.3 187.95 387.1 187.25 M390.5 182.9 Q390.6 179.15 389.3 175.5 M382.95 174.4 Q380.95 174.3 380.2 172.95 M366.8 171.8 Q371.3 174.15 374.9 178.65 M419.45 160.5 L419.15 161.55 Q417.85 167.1 419.25 172.25 M416.75 174.4 L415.7 173.7 M409.35 185.1 Q409.6 187.2 410.45 187.7 411.0 188.0 411.75 187.7 L412.6 187.25 Q415.4 184.25 416.55 181.2 417.3 179.25 417.35 177.2 L417.5 176.6 M412.6 187.25 Q417.35 187.95 417.9 185.1 418.0 182.85 416.55 181.2 M409.2 182.9 Q409.1 179.15 410.4 175.5 M432.9 171.8 Q428.4 174.15 424.75 178.65 M412.25 210.8 Q412.55 208.95 411.95 208.1 411.1 206.9 409.55 207.15 409.15 209.85 411.25 212.9 M411.95 206.55 Q411.25 205.4 411.7 204.3 M414.9 212.35 Q414.7 210.45 413.95 209.0 L413.85 208.75 Q412.5 205.85 413.5 202.7 M410.2 205.5 Q408.85 205.35 406.85 206.4 M389.5 205.5 Q390.85 205.35 392.85 206.4 M387.4 210.8 Q387.1 208.95 387.7 208.1 388.6 206.9 390.15 207.15 390.5 209.85 388.45 212.9 M384.8 212.35 Q385.0 210.45 385.7 209.0 L385.85 208.75 Q387.2 205.85 386.15 202.7 M387.7 206.55 Q388.45 205.4 388.0 204.3 M410.95 220.3 Q405.55 222.85 399.85 221.7 394.1 222.85 388.7 220.3" fill="none" stroke="#000000" stroke-linecap="round" stroke-linejoin="round" stroke-opacity="0.49803922" stroke-width="1.0"/>
    <path d="M419.45 172.95 L432.9 171.8 Q431.8 179.25 424.3 181.25 L418.7 177.45 419.45 178.5 421.35 181.85 421.8 182.85 429.7 201.75 Q433.4 206.3 436.3 211.35 L436.95 212.55 439.15 216.9 441.6 222.75 Q438.55 219.65 434.3 217.4 434.55 221.15 434.1 224.7 L433.45 228.2 432.15 232.6 431.5 234.15 429.35 238.3 Q429.05 236.05 428.35 234.15 L427.7 232.6 Q426.6 230.5 424.95 228.95 L424.35 232.6 423.9 234.15 Q422.75 237.85 420.6 240.95 418.45 244.05 415.25 246.55 415.65 243.35 414.55 240.15 412.5 244.6 409.35 248.2 405.45 252.7 399.8 255.9 389.65 250.1 385.05 240.15 383.95 243.35 384.35 246.55 375.85 239.85 374.65 228.95 371.0 232.35 370.25 238.3 367.35 233.45 366.15 228.2 364.9 223.0 365.3 217.4 361.05 219.65 358.0 222.75 359.1 219.75 360.45 216.9 L363.35 211.35 Q366.25 206.3 369.9 201.75 L377.95 182.75 378.35 181.75 380.2 178.5 381.0 177.45 375.35 181.25 Q367.85 179.25 366.8 171.8 L380.2 172.95 M380.4 172.25 L368.2 167.9 Q355.9 165.0 356.75 154.25 357.55 144.2 360.55 134.25 360.95 152.2 370.9 158.2 374.8 160.5 380.25 160.5 L380.2 160.4 Q380.3 159.0 382.2 159.4 389.9 157.2 399.85 157.3 409.8 157.2 417.5 159.4 419.35 159.0 419.45 160.4 L419.45 160.5 Q424.85 160.5 428.75 158.2 438.7 152.2 439.1 134.25 442.15 144.2 442.9 154.25 443.75 165.0 431.5 167.9 L419.25 172.25 M417.5 176.6 L418.7 177.45 M382.2 176.6 L381.0 177.45 M421.8 182.85 Q423.95 188.6 420.2 192.8 L417.65 195.1 Q414.1 199.25 415.1 205.95 416.2 209.35 414.9 212.35 L414.95 212.7 415.0 214.05 Q414.35 218.0 411.25 220.15 L410.95 220.3 407.9 223.95 Q406.3 226.1 404.5 227.25 402.3 228.7 399.85 228.7 397.4 228.7 395.2 227.25 393.4 226.1 391.75 223.95 L388.7 220.3 388.45 220.15 Q385.3 218.0 384.7 214.05 L384.75 212.7 384.8 212.35 Q383.45 209.35 384.55 205.95 385.6 199.25 382.05 195.1 380.95 193.85 379.45 192.8 375.7 188.55 377.95 182.75" fill="none" stroke="#000000" stroke-linecap="round" stroke-linejoin="round" stroke-width="1.0"/>
  </g>
</svg>
