<?xml version="1.0" encoding="UTF-8" standalone="no"?>
<svg xmlns:xlink="http://www.w3.org/1999/xlink" height="14.6px" width="28.5px" xmlns="http://www.w3.org/2000/svg">
  <g transform="matrix(1.0, 0.0, 0.0, 1.0, 14.45, 118.95)">
    <path d="M3.15 -114.85 Q3.15 -116.7 4.95 -117.4 L8.8 -118.75 Q10.85 -119.4 12.45 -118.15 14.05 -116.9 14.05 -114.95 14.05 -113.0 12.45 -111.7 10.85 -110.4 8.6 -110.4 6.35 -110.4 4.75 -111.7 3.15 -113.0 3.15 -114.85 M-5.35 -117.4 Q-3.55 -116.7 -3.55 -114.85 -3.55 -113.0 -5.15 -111.7 -6.75 -110.4 -9.0 -110.4 -11.25 -110.4 -12.85 -111.7 -14.45 -113.0 -14.45 -114.95 -14.45 -116.9 -12.85 -118.15 -11.25 -119.4 -9.2 -118.75 L-5.35 -117.4 M-0.2 -105.0 Q-3.35 -103.15 -3.2 -106.5 L-0.2 -110.9 2.8 -106.5 Q2.95 -103.15 -0.2 -105.0" fill="#000000" fill-opacity="0.2509804" fill-rule="evenodd" stroke="none"/>
  </g>
</svg>
