<?xml version="1.0" encoding="UTF-8" standalone="no"?>
<svg xmlns:xlink="http://www.w3.org/1999/xlink" height="106.55px" width="35.6px" xmlns="http://www.w3.org/2000/svg">
  <g transform="matrix(1.0, 0.0, 0.0, 1.0, -382.05, -133.05)">
    <path d="M382.65 148.4 Q382.05 139.2 386.85 134.3 387.7 132.95 388.85 133.05 389.75 133.1 389.8 134.0 390.05 136.5 392.25 139.55 395.2 144.15 393.3 151.4 L392.8 151.4 394.25 151.85 Q393.75 152.7 392.45 153.4 L391.55 153.75 Q389.5 154.65 388.45 156.1 L389.75 155.65 Q388.6 157.5 386.35 159.0 L386.15 159.15 385.85 159.35 385.8 158.25 Q382.7 154.55 382.65 148.4 M392.75 163.65 L390.65 169.45 395.35 163.2 394.6 170.55 Q395.55 165.9 398.1 162.75 398.35 164.55 399.85 166.4 401.35 164.55 401.65 162.75 404.2 165.9 405.15 170.55 L404.65 163.15 409.1 169.45 407.0 163.65 Q410.0 167.9 414.65 170.75 L416.75 172.15 417.65 173.55 Q416.25 172.2 414.8 174.7 L413.7 177.0 Q413.5 178.3 414.5 178.7 416.35 180.25 417.3 179.2 417.6 180.05 416.8 181.2 L416.8 188.15 416.25 194.25 Q416.05 197.6 414.25 199.05 L413.7 202.25 Q412.85 207.25 410.7 212.35 412.1 214.1 412.95 217.3 413.55 219.35 413.35 221.1 413.15 223.35 411.65 225.15 L410.4 229.4 Q410.4 231.45 409.75 233.05 409.1 235.6 406.2 236.95 404.25 239.65 399.85 239.6 395.5 239.65 393.55 236.95 390.65 235.6 390.0 233.05 389.35 231.45 389.3 229.4 L388.1 225.15 Q386.6 223.35 386.4 221.1 386.2 219.35 386.75 217.3 387.6 214.15 388.95 212.45 386.9 207.25 386.05 202.25 L385.45 198.95 Q383.65 197.55 383.45 194.25 L382.95 188.15 382.95 181.2 Q382.15 180.05 382.45 179.2 383.4 180.25 385.25 178.7 386.2 178.3 386.05 177.0 L384.95 174.7 Q383.5 172.2 382.05 173.55 L383.0 172.15 Q383.95 171.35 385.1 170.75 389.7 167.9 392.75 163.65 M409.95 134.0 Q410.0 133.1 410.9 133.05 412.05 132.95 412.9 134.3 417.65 139.2 417.1 148.4 417.05 154.55 413.9 158.25 L413.9 159.35 413.6 159.15 413.4 159.0 Q411.15 157.5 410.0 155.65 L411.25 156.1 Q410.2 154.65 408.15 153.75 L407.3 153.4 Q406.0 152.7 405.5 151.85 L406.95 151.4 406.45 151.4 Q404.55 144.15 407.5 139.55 409.7 136.5 409.95 134.0" fill="#000000" fill-rule="evenodd" stroke="none"/>
  </g>
</svg>
