<?xml version="1.0" encoding="UTF-8" standalone="no"?>
<svg xmlns:xlink="http://www.w3.org/1999/xlink" height="53.4px" width="60.55px" xmlns="http://www.w3.org/2000/svg">
  <g transform="matrix(1.0, 0.0, 0.0, 1.0, -369.55, -138.85)">
    <path d="M399.75 139.6 L399.85 138.85 Q401.1 149.15 403.6 158.75 L404.0 159.6 415.6 164.55 416.0 164.8 416.7 165.3 419.45 167.75 419.7 168.0 419.8 168.15 421.0 169.5 Q423.05 173.45 425.4 176.75 L427.2 179.1 428.3 180.4 429.1 181.6 Q430.0 183.15 430.1 184.9 429.7 183.6 428.4 182.6 L428.05 182.35 427.2 182.2 426.4 182.1 426.35 182.1 426.25 182.05 425.05 182.05 Q423.45 182.1 422.25 182.6 421.1 183.1 420.35 184.05 L420.05 184.4 419.8 184.65 418.85 185.55 414.35 188.8 413.1 189.6 408.8 190.95 408.0 191.15 407.95 191.15 407.8 191.2 401.5 192.2 399.85 192.25 399.75 192.25 Q395.7 192.05 391.8 191.1 L391.65 191.05 391.6 191.05 390.8 190.85 386.5 189.5 385.25 188.7 382.75 187.0 Q380.85 185.6 379.8 184.55 L379.55 184.3 379.3 183.95 Q377.65 182.0 374.6 181.95 L373.35 182.0 373.3 182.0 373.2 182.0 372.4 182.1 371.6 182.25 Q371.4 182.4 371.25 182.5 369.9 183.5 369.55 184.8 369.65 183.05 370.5 181.55 L370.95 180.85 371.3 180.3 372.4 179.05 372.4 179.0 374.25 176.65 Q376.6 173.35 378.6 169.4 L379.8 168.05 379.95 167.9 380.2 167.65 382.9 165.25 383.65 164.7 384.0 164.45 395.65 159.5 396.0 158.75 Q398.35 149.6 399.75 139.6 M386.15 182.4 L386.3 182.35 386.35 182.35 386.4 182.3 386.95 182.0 389.35 180.65 Q387.85 181.5 386.3 182.3 L386.05 182.4 386.15 182.4 M413.3 182.45 L413.45 182.5 413.6 182.5 410.25 180.7 412.65 182.1 413.2 182.4 413.3 182.4 413.3 182.45" fill="#000000" fill-rule="evenodd" stroke="none"/>
  </g>
</svg>
