<?xml version="1.0" encoding="UTF-8" standalone="no"?>
<svg xmlns:xlink="http://www.w3.org/1999/xlink" height="148.95px" width="110.3px" xmlns="http://www.w3.org/2000/svg">
  <g transform="matrix(1.0, 0.0, 0.0, 1.0, -344.3, -160.2)">
    <path d="M362.75 196.25 L363.3 195.65 363.7 195.2 Q362.55 198.25 363.75 201.25 L364.05 202.0 Q365.45 203.05 367.45 202.95 369.45 202.8 371.7 201.7 L374.55 200.2 375.1 200.2 375.3 199.3 375.4 198.75 Q376.25 196.45 377.75 194.45 L377.95 194.25 377.1 193.25 377.05 193.2 Q375.55 191.45 375.4 189.05 L375.4 187.55 375.45 187.0 Q375.55 185.95 375.8 184.85 L376.7 182.4 376.95 181.55 Q376.6 181.1 376.55 180.55 376.45 179.5 377.95 178.1 L379.15 172.35 379.4 171.0 379.45 170.9 379.5 170.65 Q380.05 168.9 381.05 167.4 381.95 165.9 383.1 164.7 L383.35 164.5 Q387.8 160.2 396.4 160.2 L402.5 160.2 402.8 160.2 Q410.75 160.25 415.15 164.1 416.75 165.5 417.85 167.4 418.95 169.0 419.45 170.85 L419.5 171.05 419.8 172.35 420.7 176.95 421.0 178.15 Q422.45 179.55 422.35 180.55 L421.95 181.6 422.25 182.45 423.1 184.85 423.45 186.95 423.5 187.35 423.5 189.05 Q423.4 191.45 421.9 193.25 L421.85 193.25 420.95 194.15 421.0 194.25 421.15 194.45 Q422.65 196.45 423.5 198.8 L423.65 199.35 423.85 200.25 424.35 200.25 427.2 201.75 Q429.45 202.8 431.5 202.95 L433.75 202.65 434.9 202.0 435.15 201.3 Q436.35 198.25 435.25 195.2 L435.65 195.65 436.15 196.25 Q438.2 198.75 438.0 202.0 437.6 204.7 435.25 206.55 433.05 208.3 430.3 208.55 L432.0 211.05 434.15 214.8 Q436.75 219.55 437.85 220.95 439.85 223.65 441.95 223.65 444.85 223.65 445.85 221.95 446.4 221.1 446.45 220.0 L446.4 218.1 Q445.85 214.75 446.55 212.85 446.9 211.9 447.75 211.05 449.8 209.05 454.6 208.0 L451.85 209.45 Q450.4 210.1 449.85 210.5 L449.3 211.05 Q448.3 212.4 448.35 215.1 L448.65 219.6 448.65 220.0 Q448.65 223.25 447.8 224.65 446.35 227.1 441.7 227.1 437.3 227.1 434.45 225.2 L433.4 224.35 Q431.85 222.95 430.4 220.65 L429.8 219.7 429.8 219.65 427.1 215.4 424.95 213.1 426.3 215.55 426.3 215.6 428.45 220.5 429.35 223.4 430.5 224.3 431.15 224.8 432.2 225.7 436.15 229.65 Q440.3 234.4 440.35 238.0 440.35 240.1 438.95 242.35 L438.4 243.3 437.95 244.8 Q437.05 248.1 439.9 249.5 443.25 251.15 446.85 249.95 L446.25 250.45 Q442.25 254.0 437.05 252.45 435.75 252.05 434.95 251.3 432.85 249.55 432.8 245.55 L432.85 245.1 433.65 241.95 434.5 238.55 Q434.45 235.1 430.75 232.85 L430.75 233.05 Q430.85 236.4 430.3 239.85 L429.55 244.5 427.7 253.3 Q426.0 260.2 430.05 261.95 L436.95 262.15 441.8 261.2 Q438.25 266.15 431.0 264.4 L429.4 263.9 429.35 263.9 429.2 263.85 Q421.45 261.0 423.6 252.6 L423.9 251.55 424.5 249.8 Q428.5 239.75 424.9 230.95 423.0 229.7 421.45 229.1 422.4 232.6 422.95 237.85 423.5 243.65 422.35 249.3 L421.95 250.85 421.65 252.1 421.65 252.15 Q420.2 257.85 419.35 263.45 418.35 269.65 420.0 273.8 421.6 277.9 421.0 282.55 420.55 286.2 416.75 290.95 414.4 293.9 413.55 297.4 415.35 300.6 417.5 301.95 L419.0 302.7 418.85 302.75 417.15 302.75 414.75 302.15 Q414.25 302.0 413.0 301.25 L412.95 301.25 412.95 301.35 413.1 303.1 Q413.4 306.0 415.05 308.4 L415.6 309.15 Q412.25 308.1 410.85 306.45 L410.15 305.3 409.15 302.7 408.0 299.6 406.25 298.35 405.4 297.0 404.8 295.7 404.8 295.5 404.75 295.7 403.85 297.8 Q403.25 299.0 402.95 300.3 402.75 301.05 402.95 301.85 403.3 303.35 404.1 304.65 405.55 306.9 407.3 309.05 L407.35 309.1 Q405.35 307.75 403.55 306.2 402.2 305.05 401.25 303.55 400.4 302.3 400.45 300.9 L400.45 300.1 400.45 300.0 Q400.6 297.65 401.3 295.35 L401.6 294.4 402.05 293.15 402.4 291.35 402.0 289.1 400.9 285.65 Q400.25 283.45 400.2 280.7 400.1 277.9 400.65 275.75 L402.0 268.95 Q402.8 264.35 402.85 261.4 L402.7 251.5 402.45 244.75 Q402.35 240.4 402.65 236.1 L403.9 221.15 Q404.05 216.25 399.85 212.7 395.0 215.7 395.05 221.1 L396.25 236.05 396.5 244.75 396.25 251.5 Q396.0 256.45 396.05 261.4 396.1 264.3 396.95 268.95 397.7 273.55 398.3 275.7 398.8 277.85 398.75 280.65 398.65 283.45 398.05 285.6 L396.95 289.1 Q396.55 290.2 396.5 291.3 396.5 292.25 396.85 293.15 L397.3 294.4 397.6 295.3 Q398.3 297.6 398.5 299.95 L398.5 300.05 398.5 300.9 Q398.5 302.25 397.7 303.5 396.7 305.05 395.35 306.2 L391.55 309.1 391.6 309.0 394.8 304.65 Q395.6 303.35 396.0 301.85 L396.0 300.25 395.1 297.75 394.2 295.65 394.1 295.5 394.1 295.7 393.55 296.95 392.65 298.35 390.9 299.6 389.8 302.7 388.8 305.25 388.1 306.45 Q386.65 308.05 383.35 309.1 L383.9 308.35 Q385.5 305.95 385.85 303.05 L385.95 301.3 385.95 301.2 385.9 301.25 384.15 302.15 381.8 302.7 380.05 302.7 379.95 302.65 381.4 301.95 Q383.55 300.6 385.45 297.65 384.6 294.0 382.2 290.95 378.35 286.2 377.9 282.5 377.3 277.9 378.95 273.8 380.55 269.65 379.6 263.4 378.7 257.85 377.3 252.15 L377.3 252.1 376.95 250.85 376.6 249.25 Q376.1 246.9 375.9 244.55 375.65 241.2 376.0 237.8 376.35 234.2 376.9 231.45 L377.45 229.1 Q375.9 229.65 374.0 230.9 371.3 237.5 372.9 244.8 373.4 247.25 374.4 249.75 L374.5 249.95 375.35 252.6 Q377.45 261.0 369.7 263.85 L369.6 263.9 369.55 263.9 367.95 264.35 Q360.65 266.15 357.1 261.2 L362.0 262.15 368.9 261.9 Q372.9 260.2 371.25 253.25 L369.6 245.45 369.55 245.45 369.5 244.95 369.5 244.8 369.45 244.8 368.6 239.8 Q368.1 236.35 368.15 233.0 364.45 235.1 364.4 238.5 L365.25 241.9 366.1 245.35 366.1 245.55 Q366.05 249.5 364.0 251.3 363.15 252.0 361.85 252.45 356.65 254.0 352.7 250.4 L352.1 249.95 Q355.65 251.1 359.0 249.45 361.85 248.05 360.95 244.75 L360.5 243.25 359.95 242.3 Q358.55 240.1 358.55 237.95 358.6 234.4 362.75 229.65 364.15 228.0 366.75 225.65 L367.75 224.8 369.55 223.4 370.5 220.5 Q371.35 218.0 372.65 215.6 L372.65 215.55 372.7 215.4 374.0 213.1 Q372.85 214.05 371.8 215.4 L369.15 219.65 368.55 220.6 Q367.05 222.95 365.55 224.35 L364.5 225.15 Q361.6 227.1 357.25 227.1 352.55 227.1 351.1 224.6 350.2 223.15 350.25 219.55 L350.55 215.1 Q350.6 212.35 349.65 211.05 L349.05 210.5 Q348.55 210.1 347.1 209.4 L344.3 207.95 Q349.15 209.05 351.2 211.05 352.0 211.85 352.4 212.85 353.05 214.7 352.55 218.1 L352.5 219.95 Q352.5 221.05 353.05 221.9 354.05 223.6 357.0 223.6 359.05 223.6 361.1 220.9 L364.75 214.75 Q365.9 212.65 366.95 211.05 L368.6 208.5 Q365.85 208.3 363.65 206.55 361.3 204.7 360.95 202.0 360.7 198.7 362.75 196.25 M385.55 180.95 L383.9 181.15 Q384.1 183.5 386.55 183.9 387.35 184.05 388.15 183.6 389.0 183.15 389.65 182.55 L389.8 181.75 389.8 180.95 Q387.7 180.65 385.55 180.95 M409.1 181.0 L409.1 181.75 409.25 182.55 410.75 183.6 Q411.55 184.05 412.4 183.95 414.8 183.5 415.0 181.2 L413.35 181.0 Q411.2 180.65 409.1 181.0 M408.75 237.45 Q408.6 242.65 408.8 247.9 408.95 251.85 409.4 255.8 L409.6 255.4 Q413.2 247.25 412.45 238.4 412.15 234.6 411.05 230.85 410.2 227.95 409.7 225.05 L408.75 237.45 M406.8 277.2 L406.2 276.25 Q405.8 277.4 405.55 278.55 L404.6 283.05 Q404.4 283.7 404.55 284.45 L404.8 285.95 Q407.5 283.15 407.5 280.55 L407.25 278.55 406.8 277.2 M387.9 230.85 Q386.8 234.55 386.45 238.4 385.7 247.2 389.3 255.4 L389.5 255.8 390.15 247.9 390.2 237.4 389.25 225.05 387.9 230.85 M394.35 283.05 L393.35 278.5 392.7 276.25 Q392.45 276.45 392.15 277.2 391.75 278.0 391.7 278.55 L391.45 280.5 Q391.4 283.15 394.1 285.95 L394.4 284.4 394.35 283.05" fill="#000000" fill-rule="evenodd" stroke="none"/>
  </g>
</svg>
