<?xml version="1.0" encoding="UTF-8" standalone="no"?>
<svg xmlns:xlink="http://www.w3.org/1999/xlink" height="126.45px" width="71.4px" xmlns="http://www.w3.org/2000/svg">
  <g transform="matrix(1.0, 0.0, 0.0, 1.0, -364.1, -107.5)">
    <path d="M391.1 164.9 L391.3 164.65 Q388.65 162.45 384.9 161.7 382.25 165.05 387.5 166.65 L387.55 166.8 387.8 166.7 Q390.1 166.0 391.1 164.9 M373.35 133.0 Q375.35 137.6 379.95 140.85 376.95 130.9 377.3 119.8 379.7 129.45 385.1 137.3 383.8 129.35 386.65 121.4 386.4 128.85 389.5 135.95 L392.9 134.45 Q398.2 120.95 399.8 107.5 401.4 120.95 406.7 134.45 L410.1 135.95 Q413.2 128.85 412.95 121.4 415.8 129.35 414.5 137.3 419.9 129.45 422.3 119.8 422.65 130.9 419.65 140.85 424.25 137.6 426.25 133.0 425.05 142.95 420.1 151.95 420.55 159.6 423.15 167.4 L425.4 170.2 422.65 170.2 423.35 175.05 420.9 172.05 419.6 173.15 Q420.4 182.95 422.15 192.45 426.3 204.25 435.5 223.35 L428.85 233.95 Q423.25 223.4 420.65 217.9 417.65 211.55 415.4 205.0 L413.65 200.0 412.95 203.45 411.85 200.25 409.55 201.6 Q404.95 204.1 399.8 205.5 394.65 204.1 390.05 201.6 L387.75 200.25 386.65 203.45 385.95 200.0 384.2 205.0 Q381.95 211.55 378.95 217.9 L370.75 233.95 364.1 223.35 Q373.3 204.25 377.45 192.45 379.2 182.95 380.0 173.15 L378.7 172.05 376.25 175.05 376.95 170.2 374.2 170.2 376.45 167.4 Q379.05 159.6 379.5 151.95 374.55 142.95 373.35 133.0 M412.1 166.65 Q417.35 165.05 414.7 161.7 410.95 162.45 408.3 164.65 L408.5 164.9 Q409.5 166.0 411.8 166.7 L412.05 166.8 412.1 166.65" fill="#000000" fill-rule="evenodd" stroke="none"/>
  </g>
</svg>
