<?xml version="1.0" encoding="UTF-8" standalone="no"?>
<svg xmlns:xlink="http://www.w3.org/1999/xlink" height="156.3px" width="79.05px" xmlns="http://www.w3.org/2000/svg">
  <g transform="matrix(1.0, 0.0, 0.0, 1.0, -360.35, -153.1)">
    <path d="M399.9 153.1 Q413.55 154.1 417.75 162.3 L419.95 184.3 Q429.95 186.3 439.4 189.25 L437.4 200.15 Q433.15 221.25 426.7 242.2 L421.1 259.0 419.45 263.65 Q415.75 273.7 411.55 283.75 406.1 296.6 399.85 309.4 393.6 296.6 388.25 283.75 384.05 273.7 380.35 263.65 L378.7 259.0 Q375.7 250.6 373.1 242.2 366.6 221.25 362.4 200.15 L360.35 189.25 Q369.8 186.3 379.8 184.3 L382.05 162.3 Q386.25 154.1 399.9 153.1" fill="#000000" fill-rule="evenodd" stroke="none"/>
  </g>
</svg>
