<?xml version="1.0" encoding="UTF-8" standalone="no"?>
<svg xmlns:xlink="http://www.w3.org/1999/xlink" height="173.05px" width="180.65px" xmlns="http://www.w3.org/2000/svg">
  <g transform="matrix(1.0, 0.0, 0.0, 1.0, -309.6, -153.1)">
    <path d="M399.9 153.1 Q413.55 154.1 417.75 162.35 L420.0 184.25 Q442.0 188.7 461.45 197.4 479.15 195.15 490.25 203.0 466.15 221.75 452.15 245.9 455.0 253.3 458.8 260.5 450.3 275.8 442.7 280.6 439.35 301.45 442.7 319.4 L439.35 320.4 439.05 320.5 439.0 320.5 Q422.35 325.4 403.35 326.1 L399.9 326.15 397.55 326.1 Q381.9 325.65 367.8 322.35 L360.8 320.5 357.1 319.4 Q360.45 301.45 357.1 280.6 349.5 275.8 341.0 260.5 344.8 253.3 347.65 245.9 333.65 221.75 309.6 203.0 320.65 195.15 338.35 197.4 352.4 191.1 367.8 187.05 L379.8 184.25 382.05 162.25 Q386.25 154.1 399.9 153.1" fill="#000000" fill-rule="evenodd" stroke="none"/>
  </g>
</svg>
