<?xml version="1.0" encoding="UTF-8" standalone="no"?>
<svg xmlns:xlink="http://www.w3.org/1999/xlink" height="154.95px" width="190.45px" xmlns="http://www.w3.org/2000/svg">
  <g transform="matrix(1.0, 0.0, 0.0, 1.0, -304.65, -152.6)">
    <path d="M419.95 184.3 L417.75 162.3 Q413.55 154.1 399.9 153.1 386.25 154.1 382.05 162.3 L379.8 184.3 Q357.8 188.75 338.35 197.45 316.85 194.75 305.15 206.9 M419.95 184.3 Q441.95 188.75 461.4 197.45 482.9 194.75 494.6 206.9 M458.75 260.55 Q453.05 268.05 444.45 273.55 L436.85 288.45 436.85 307.05 M362.9 307.05 L362.9 288.45 355.3 273.55 Q346.7 268.05 341.0 260.55" fill="none" stroke="#000000" stroke-linecap="round" stroke-linejoin="round" stroke-width="1.0"/>
    <path d="M379.8 184.3 L379.15 188.85 M305.15 206.9 Q322.75 215.65 332.75 231.1 L333.25 231.9 Q340.2 243.35 347.65 245.95 352.15 247.45 356.75 245.8 378.95 239.75 399.85 240.05 L399.85 206.15 Q397.85 206.1 396.8 204.15 M419.95 184.3 L420.6 188.85 M494.6 206.9 Q477.0 215.65 467.0 231.1 L466.5 231.9 Q459.55 243.35 452.1 245.95 454.95 253.35 458.75 260.55 M443.55 254.4 Q442.35 261.9 433.85 265.2 M418.95 285.05 L406.5 282.85 M428.6 269.3 L423.35 284.25 M406.95 203.15 Q431.75 199.9 456.5 199.3 M452.1 245.95 Q447.6 247.45 443.0 245.8 420.8 239.75 399.85 240.05 M399.85 206.15 Q401.85 206.1 402.9 204.15 M341.0 260.55 Q344.8 253.35 347.65 245.95 M380.8 285.05 L393.2 282.85 M371.15 269.3 L376.4 284.25 M371.15 263.5 Q380.9 255.85 395.95 255.25 M392.75 203.15 Q368.0 199.9 343.25 199.3 M356.2 254.4 Q357.4 261.9 365.9 265.2 M377.2 289.5 L379.15 305.5 M399.85 256.75 L399.85 307.05 M422.55 289.5 L420.6 305.5 M428.6 263.5 Q418.85 255.85 403.75 255.25 M393.8 199.6 L387.4 187.0 M405.9 199.6 L412.35 187.0" fill="none" stroke="#000000" stroke-linecap="round" stroke-linejoin="round" stroke-opacity="0.5019608" stroke-width="1.0"/>
  </g>
</svg>
