<?xml version="1.0" encoding="UTF-8" standalone="no"?>
<svg xmlns:xlink="http://www.w3.org/1999/xlink" height="157.3px" width="78.75px" xmlns="http://www.w3.org/2000/svg">
  <g transform="matrix(1.0, 0.0, 0.0, 1.0, -360.5, -152.6)">
    <path d="M393.65 154.05 L399.9 153.1 406.05 154.05 M364.2 188.1 Q371.85 185.9 379.8 184.3 M419.95 184.3 Q427.9 185.9 435.55 188.1" fill="none" stroke="#000000" stroke-linecap="round" stroke-linejoin="round" stroke-width="1.0"/>
    <path d="M379.8 184.3 L379.15 188.85 Q377.95 194.95 377.3 201.4 375.35 220.0 377.65 241.5 L378.9 258.9 Q380.45 283.6 380.7 308.9 M406.05 154.05 L406.05 240.1 406.05 255.4 406.05 309.4 M435.55 188.1 L437.25 200.2 Q439.5 220.45 438.35 244.6 436.55 254.65 435.15 264.65 432.1 286.2 431.05 307.8 M419.05 308.9 Q419.3 283.6 420.85 258.9 421.4 250.15 422.1 241.5 424.4 220.0 422.45 201.4 421.8 194.95 420.6 188.85 L419.95 184.3 M437.25 200.2 L422.45 201.4 M438.35 244.6 Q430.15 242.6 422.1 241.5 M428.6 269.3 L423.35 284.25 M435.15 264.65 L433.85 265.2 M428.6 263.5 Q425.1 260.75 420.85 258.9 M396.8 204.15 Q397.85 206.1 399.85 206.15 401.85 206.1 402.9 204.15 M393.65 154.05 L393.65 240.1 399.85 240.05 399.85 206.15 M368.7 307.8 Q367.65 286.2 364.6 264.65 363.2 254.65 361.4 244.6 360.25 220.45 362.5 200.2 363.2 193.95 364.2 188.1 M395.95 255.25 L393.65 255.4 393.65 309.4 M364.6 264.65 L365.9 265.2 M371.15 263.5 Q374.7 260.75 378.9 258.9 M371.15 269.3 L376.4 284.25 M377.3 201.4 L362.5 200.2 M393.65 255.4 L393.65 240.1 M377.65 241.5 Q369.6 242.6 361.4 244.6 M406.05 240.1 Q402.95 240.0 399.85 240.05 M377.2 289.5 L379.15 305.5 M399.85 256.75 L399.85 307.05 M422.55 289.5 L420.6 305.5 M406.05 255.4 L403.75 255.25" fill="none" stroke="#000000" stroke-linecap="round" stroke-linejoin="round" stroke-opacity="0.5019608" stroke-width="1.0"/>
  </g>
</svg>
