<?xml version="1.0" encoding="UTF-8" standalone="no"?>
<svg xmlns:xlink="http://www.w3.org/1999/xlink" height="157.25px" width="59.85px" xmlns="http://www.w3.org/2000/svg">
  <g transform="matrix(1.0, 0.0, 0.0, 1.0, -340.5, -152.6)">
    <path d="M379.8 184.3 L379.15 188.85 M352.25 191.9 L353.1 199.65 Q372.95 200.55 392.75 203.15 M353.1 199.65 Q354.75 221.95 347.65 245.95 352.15 247.45 356.75 245.8 378.95 239.75 399.85 240.05 L399.85 206.15 Q397.85 206.1 396.8 204.15 M371.15 263.5 Q380.9 255.85 395.95 255.25 M371.15 269.3 L376.4 284.25 M380.8 285.05 L393.2 282.85 M356.2 254.4 Q357.4 261.9 365.9 265.2 M347.65 245.95 Q344.8 253.35 341.0 260.55 M377.2 289.5 L379.15 305.5 M399.85 309.35 L399.85 240.05 M399.85 153.1 L399.85 206.15 M393.8 199.6 L387.4 187.0" fill="none" stroke="#000000" stroke-linecap="round" stroke-linejoin="round" stroke-opacity="0.5019608" stroke-width="1.0"/>
    <path d="M399.85 153.1 Q386.25 154.1 382.05 162.3 L379.8 184.3 Q365.5 187.2 352.25 191.9 M341.0 260.55 Q346.7 268.05 355.3 273.55 L362.9 288.45 362.9 307.05" fill="none" stroke="#000000" stroke-linecap="round" stroke-linejoin="round" stroke-width="1.0"/>
  </g>
</svg>
