<?xml version="1.0" encoding="UTF-8" standalone="no"?>
<svg xmlns:xlink="http://www.w3.org/1999/xlink" height="74.9px" width="66.8px" xmlns="http://www.w3.org/2000/svg">
  <g transform="matrix(1.0, 0.0, 0.0, 1.0, -366.45, -152.6)">
    <path d="M367.4 187.2 L379.8 184.3 382.05 162.3 Q386.25 154.1 399.9 153.1 413.55 154.1 417.75 162.3 L419.95 184.3 Q426.25 185.6 432.35 187.2" fill="none" stroke="#000000" stroke-linecap="round" stroke-linejoin="round" stroke-width="1.0"/>
    <path d="M379.8 184.3 L379.15 188.85 M432.35 187.2 Q433.45 191.7 431.7 196.9 L430.7 200.65 Q423.15 225.65 399.85 227.0 376.55 225.65 369.0 200.65 L368.0 196.9 Q366.25 191.7 367.4 187.2 M419.95 184.3 L420.6 188.85 M430.7 200.65 L406.95 203.15 M396.8 204.15 Q397.85 206.1 399.85 206.15 401.85 206.1 402.9 204.15 M392.75 203.15 L369.0 200.65 M399.85 227.0 L399.85 206.15 M393.8 199.6 L387.4 187.0 M405.9 199.6 L412.35 187.0" fill="none" stroke="#000000" stroke-linecap="round" stroke-linejoin="round" stroke-opacity="0.5019608" stroke-width="1.0"/>
  </g>
</svg>
