<?xml version="1.0" encoding="UTF-8" standalone="no"?>
<svg xmlns:xlink="http://www.w3.org/1999/xlink" height="48.75px" width="207.6px" xmlns="http://www.w3.org/2000/svg">
  <g transform="matrix(1.0, 0.0, 0.0, 1.0, -296.05, -196.95)">
    <path d="M469.55 223.8 Q472.85 211.85 468.4 205.65 466.2 202.45 461.95 200.75 L461.4 197.45 Q490.05 193.85 501.3 216.55 506.05 228.6 501.3 245.7 495.35 232.25 481.65 220.25 475.25 221.75 469.55 223.8 M330.25 223.8 Q324.5 221.75 318.1 220.25 304.4 232.25 298.45 245.7 293.7 228.6 298.45 216.55 309.7 193.85 338.35 197.45 L337.8 200.7 Q333.55 202.4 331.35 205.6 326.9 211.8 330.25 223.8" fill="#000000" fill-rule="evenodd" stroke="none"/>
  </g>
</svg>
