<?xml version="1.0" encoding="UTF-8" standalone="no"?>
<svg xmlns:xlink="http://www.w3.org/1999/xlink" height="148.5px" width="231.75px" xmlns="http://www.w3.org/2000/svg">
  <g transform="matrix(1.0, 0.0, 0.0, 1.0, -284.0, -206.35)">
    <path d="M501.3 245.65 Q481.4 244.55 467.7 231.75 L467.7 231.7 466.5 231.85 Q459.55 243.3 452.1 245.9 454.35 251.7 457.15 257.45 L458.75 260.5 M476.95 286.25 L484.7 294.5 Q488.8 288.4 494.65 283.3 499.1 279.4 504.65 276.1 507.3 279.2 509.2 282.35 L509.25 282.4 M494.6 206.85 Q477.0 215.6 467.0 231.05 L467.7 231.7 M467.0 231.05 L466.5 231.85 M298.45 245.7 Q318.35 244.6 332.05 231.8 L332.05 231.75 332.75 231.1 Q322.75 215.65 305.15 206.9 M290.5 282.45 L290.55 282.4 Q292.45 279.25 295.1 276.15 300.65 279.45 305.1 283.35 310.95 288.45 315.05 294.55 L322.8 286.3 M341.0 260.55 L342.6 257.5 Q345.4 251.75 347.65 245.95 340.2 243.35 333.25 231.9 L332.05 231.75 M332.75 231.1 L333.25 231.9 M319.65 348.5 L319.7 348.45 319.9 348.3 M480.1 348.45 L480.05 348.4 479.85 348.25" fill="none" stroke="#000000" stroke-linecap="round" stroke-linejoin="round" stroke-opacity="0.5019608" stroke-width="1.0"/>
    <path d="M458.75 260.5 Q462.05 266.6 466.1 272.45 471.0 279.5 476.9 286.25 L476.95 286.25 Q469.55 295.4 467.4 305.6 L467.4 305.65 Q470.4 313.15 474.75 320.6 478.2 326.4 482.45 332.2 L482.5 335.95 482.05 341.05 481.65 343.25 480.1 348.45 M509.25 282.4 L511.55 275.65 504.9 267.25 503.6 262.8 Q501.5 254.3 501.3 245.8 L501.3 245.65 Q504.1 235.5 503.6 227.15 503.25 221.4 501.3 216.5 498.5 210.85 494.6 206.85 M305.15 206.9 Q301.25 210.9 298.45 216.55 296.5 221.45 296.15 227.2 295.65 235.55 298.45 245.7 L298.45 245.85 Q298.25 254.35 296.15 262.85 L294.85 267.3 288.2 275.7 290.5 282.45 M322.8 286.3 L322.85 286.3 Q328.75 279.55 333.65 272.5 337.7 266.65 341.0 260.55 M322.8 286.3 Q330.2 295.45 332.35 305.65 L332.35 305.7 Q329.35 313.2 325.0 320.65 321.55 326.45 317.3 332.25 317.2 334.15 317.25 336.0 317.3 338.6 317.7 341.1 L318.1 343.3 Q318.7 345.95 319.65 348.5 M509.25 282.4 Q515.15 292.0 515.25 302.65 515.3 305.9 514.8 309.25 L504.95 353.05 503.05 354.3 M296.7 354.35 L294.8 353.1 284.95 309.3 Q284.45 305.95 284.5 302.7 284.6 292.05 290.5 282.45" fill="none" stroke="#000000" stroke-linecap="round" stroke-linejoin="round" stroke-width="1.0"/>
  </g>
</svg>
