<?xml version="1.0" encoding="UTF-8" standalone="no"?>
<svg xmlns:xlink="http://www.w3.org/1999/xlink" height="32.85px" width="206.3px" xmlns="http://www.w3.org/2000/svg">
  <g transform="matrix(1.0, 0.0, 0.0, 1.0, -296.8, -348.55)">
    <path d="M334.0 363.7 L326.95 362.95 326.95 373.2 327.0 373.25 328.2 377.85 322.05 381.4 320.15 376.35 319.2 379.2 319.95 381.1 313.3 380.15 312.7 374.6 311.2 373.1 310.35 378.7 310.75 380.05 305.4 379.8 301.15 378.15 301.45 372.05 301.45 372.0 296.8 354.3 Q307.55 356.75 319.75 348.55 L329.75 353.75 337.9 359.2 334.0 363.7 M472.95 362.95 L465.9 363.7 462.0 359.2 470.15 353.75 480.15 348.55 Q492.35 356.75 503.1 354.3 L498.45 372.0 498.75 378.15 494.5 379.8 489.15 380.05 489.55 378.7 488.7 373.1 487.2 374.6 486.6 380.15 479.95 381.1 480.7 379.2 479.75 376.35 477.85 381.4 471.7 377.85 472.9 373.25 472.95 373.2 472.95 362.95" fill="#000000" fill-rule="evenodd" stroke="none"/>
  </g>
</svg>
