<?xml version="1.0" encoding="UTF-8" standalone="no"?>
<svg xmlns:xlink="http://www.w3.org/1999/xlink" height="52.1px" width="230.75px" xmlns="http://www.w3.org/2000/svg">
  <g transform="matrix(1.0, 0.0, 0.0, 1.0, -284.5, -302.75)">
    <path d="M482.45 332.2 Q478.25 326.5 474.85 320.75 497.75 315.85 515.25 302.9 515.3 306.05 514.8 309.25 L504.95 353.05 503.05 354.3 Q492.2 356.6 480.1 348.45 L481.65 343.25 482.05 341.05 482.5 335.95 482.45 332.2 M284.5 302.75 Q302.1 315.85 324.95 320.7 321.55 326.5 317.3 332.25 317.2 334.15 317.25 336.0 317.3 338.6 317.7 341.1 L318.1 343.3 Q318.7 345.95 319.65 348.5 307.55 356.65 296.7 354.35 L294.8 353.1 284.95 309.3 Q284.45 306.0 284.5 302.75" fill="#000000" fill-rule="evenodd" stroke="none"/>
  </g>
</svg>
