<?xml version="1.0" encoding="UTF-8" standalone="no"?>
<svg xmlns:xlink="http://www.w3.org/1999/xlink" height="34.3px" width="231.85px" xmlns="http://www.w3.org/2000/svg">
  <g transform="matrix(1.0, 0.0, 0.0, 1.0, -284.05, -302.25)">
    <path d="M482.6 336.05 L482.55 332.2 Q478.35 326.45 474.95 320.7 M515.4 302.8 Q515.4 306.0 514.9 309.3 L511.55 324.2 M317.3 336.05 Q317.25 334.15 317.35 332.2 321.6 326.45 325.0 320.7 M284.55 302.75 Q284.5 306.0 285.0 309.3 L288.35 324.2" fill="none" stroke="#000000" stroke-linecap="round" stroke-linejoin="round" stroke-width="1.0"/>
    <path d="M474.95 320.7 Q497.85 315.85 515.4 302.8 M511.55 324.2 Q500.0 331.6 482.6 336.05 M325.0 320.7 Q302.1 315.85 284.55 302.75 M288.35 324.2 Q299.9 331.6 317.3 336.05" fill="none" stroke="#000000" stroke-linecap="round" stroke-linejoin="round" stroke-opacity="0.5019608" stroke-width="1.0"/>
  </g>
</svg>
