<?xml version="1.0" encoding="UTF-8" standalone="no"?>
<svg xmlns:xlink="http://www.w3.org/1999/xlink" height="337.8px" width="196.8px" xmlns="http://www.w3.org/2000/svg">
  <g transform="matrix(1.0, 0.0, 0.0, 1.0, 98.6, 103.15)">
    <path d="M-30.95 -103.15 L-30.65 -102.0 -29.85 -102.85 -29.35 -102.4 -30.35 -101.35 -29.95 -99.75 -28.75 -100.85 -29.15 -102.3 -28.65 -102.45 -28.35 -101.3 -27.5 -102.05 -27.05 -101.6 -27.9 -100.8 -26.75 -100.45 -26.85 -99.9 -28.3 -100.4 -29.5 -99.25 -27.8 -98.8 -26.8 -99.75 -26.35 -99.3 -27.15 -98.5 -26.0 -98.2 -26.1 -97.65 -27.3 -98.05 -26.85 -96.9 -27.4 -96.75 -27.9 -98.2 -29.6 -98.75 -29.05 -97.1 -27.6 -96.6 -27.7 -96.1 -28.9 -96.5 -28.5 -95.3 -29.0 -95.2 -29.35 -96.35 -30.15 -95.55 -30.55 -96.0 -29.55 -97.0 -30.05 -98.6 -31.2 -97.5 -30.75 -96.05 -31.25 -95.95 -31.65 -97.05 -32.45 -96.2 -32.9 -96.7 -32.1 -97.55 -33.2 -97.9 -33.15 -98.4 -31.75 -97.95 -30.5 -99.15 -32.2 -99.55 -33.15 -98.55 -33.65 -99.0 -32.8 -99.8 -33.95 -100.15 -33.85 -100.65 -32.7 -100.25 -33.1 -101.45 -32.55 -101.6 -32.05 -100.1 -30.4 -99.5 -30.9 -101.2 -32.4 -101.7 -32.25 -102.25 -31.1 -101.85 -31.5 -103.0 -30.95 -103.15" fill="url(#gradient0)" fill-rule="evenodd" stroke="none"/>
    <path d="M-97.1 -26.95 L-95.95 -26.55 -96.35 -27.75 -95.8 -27.9 -95.3 -26.4 -93.65 -25.8 -94.2 -27.5 -95.65 -28.0 -95.55 -28.55 -94.35 -28.15 -94.75 -29.3 -94.2 -29.45 -93.9 -28.3 -93.1 -29.15 -92.6 -28.7 -93.6 -27.65 -93.2 -26.0 -92.0 -27.15 -92.4 -28.6 -91.95 -28.7 -91.6 -27.6 -90.75 -28.35 -90.3 -27.9 -91.15 -27.1 -90.0 -26.75 -90.15 -26.2 -91.55 -26.7 -92.75 -25.55 -91.05 -25.1 -90.05 -26.05 -89.6 -25.6 -90.4 -24.8 -89.25 -24.5 -89.35 -23.95 -90.6 -24.35 -90.15 -23.2 -90.65 -23.05 -91.15 -24.5 -92.85 -25.05 -92.3 -23.4 -90.85 -22.85 -90.95 -22.4 -92.15 -22.8 -91.75 -21.6 -92.25 -21.5 -92.6 -22.65 -93.4 -21.85 -93.8 -22.3 -92.85 -23.3 -93.3 -24.9 -94.45 -23.8 -94.0 -22.35 -94.5 -22.25 -94.9 -23.35 -95.7 -22.5 -96.15 -23.0 -95.35 -23.85 -96.45 -24.2 -96.4 -24.7 -95.0 -24.25 -93.75 -25.45 -95.45 -25.85 -96.4 -24.85 -96.9 -25.3 -96.05 -26.1 -97.2 -26.45 -97.1 -26.95" fill="url(#gradient1)" fill-rule="evenodd" stroke="none"/>
    <path d="M-94.0 -12.75 L-93.65 -11.25 -92.45 -12.35 -91.95 -11.85 -93.4 -10.5 -92.85 -8.4 -91.2 -10.0 -91.7 -11.85 -90.9 -12.05 -90.5 -10.6 -89.3 -11.65 -88.8 -11.2 -90.05 -10.1 -88.4 -9.8 -88.65 -9.1 -90.6 -9.5 -92.4 -7.9 -90.1 -7.45 -88.55 -8.85 -88.05 -8.35 -89.25 -7.2 -87.65 -6.9 -87.9 -6.2 -89.4 -6.65 -89.05 -5.15 -89.85 -4.9 -90.3 -6.7 -92.55 -7.3 -92.0 -5.2 -90.05 -4.8 -90.2 -4.1 -91.8 -4.45 -91.4 -2.95 -92.25 -2.7 -92.65 -4.25 -93.8 -3.1 -94.3 -3.6 -92.85 -4.95 -93.4 -7.1 -95.05 -5.5 -94.55 -3.65 -95.4 -3.45 -95.75 -4.9 -96.9 -3.8 -97.45 -4.3 -96.2 -5.35 -97.8 -5.75 -97.65 -6.4 -95.6 -5.95 -93.8 -7.55 -96.15 -8.0 -97.7 -6.65 -98.25 -7.15 -96.95 -8.25 -98.6 -8.55 -98.35 -9.25 -96.85 -8.9 -97.25 -10.35 -96.4 -10.6 -95.9 -8.8 -93.75 -8.15 -94.25 -10.25 -96.2 -10.7 -96.0 -11.4 -94.5 -11.05 -94.85 -12.5 -94.0 -12.75" fill="url(#gradient2)" fill-rule="evenodd" stroke="none"/>
    <path d="M-19.15 -82.05 L-20.65 -82.45 -20.3 -80.95 -21.1 -80.75 -21.55 -82.55 -23.8 -83.1 -23.25 -81.0 -21.3 -80.6 -21.45 -79.95 -23.05 -80.3 -22.65 -78.75 -23.5 -78.55 -23.9 -80.05 -25.05 -78.95 -25.55 -79.45 -24.15 -80.8 -24.65 -82.9 -26.3 -81.3 -25.8 -79.5 -26.65 -79.25 -27.0 -80.75 -28.2 -79.6 -28.7 -80.1 -27.45 -81.2 -29.1 -81.55 -28.9 -82.2 -26.85 -81.75 -25.05 -83.35 -27.4 -83.85 -28.95 -82.5 -29.5 -83.0 -28.2 -84.05 -29.85 -84.4 -29.6 -85.05 -28.1 -84.7 -28.5 -86.2 -27.65 -86.4 -27.15 -84.6 -25.0 -84.0 -25.5 -86.1 -27.45 -86.55 -27.25 -87.2 -25.75 -86.85 -26.1 -88.35 -25.25 -88.55 -24.9 -87.1 -23.7 -88.15 -23.2 -87.65 -24.65 -86.3 -24.15 -84.2 -22.45 -85.8 -22.95 -87.65 -22.15 -87.9 -21.75 -86.4 -20.55 -87.5 -20.1 -87.05 -21.3 -85.9 -19.65 -85.6 -19.9 -84.9 -21.9 -85.35 -23.7 -83.7 -21.35 -83.25 -19.8 -84.65 -19.3 -84.15 -20.55 -83.05 -18.9 -82.7 -19.15 -82.05" fill="url(#gradient3)" fill-rule="evenodd" stroke="none"/>
    <path d="M-57.25 -92.05 L-58.25 -91.05 -57.85 -89.4 -56.7 -90.55 -57.1 -92.0 -56.6 -92.1 -56.25 -91.0 -55.4 -91.75 -54.95 -91.3 -55.8 -90.5 -54.65 -90.15 -54.8 -89.6 -56.25 -90.1 -57.4 -88.9 -55.75 -88.45 -54.7 -89.45 -54.25 -89.0 -55.05 -88.2 -53.95 -87.9 -54.0 -87.35 -55.25 -87.75 -54.8 -86.6 -55.35 -86.45 -55.8 -87.9 -57.55 -88.4 -56.95 -86.8 -55.5 -86.25 -55.6 -85.75 -56.8 -86.15 -56.4 -85.0 -56.9 -84.85 -57.25 -86.05 -58.05 -85.25 -58.5 -85.7 -57.5 -86.65 -58.0 -88.3 -59.1 -87.2 -58.65 -85.7 -59.15 -85.65 -59.55 -86.75 -60.35 -85.9 -60.8 -86.4 -60.0 -87.25 -61.15 -87.55 -61.05 -88.1 -59.65 -87.65 -58.45 -88.85 -60.1 -89.25 -61.05 -88.25 -61.6 -88.7 -60.75 -89.5 -61.85 -89.8 -61.75 -90.35 -60.6 -89.95 -61.0 -91.1 -60.45 -91.3 -59.95 -89.75 -58.3 -89.2 -58.85 -90.9 -60.3 -91.4 -60.2 -91.95 -59.0 -91.55 -59.4 -92.7 -58.9 -92.85 -58.55 -91.7 -57.75 -92.5 -57.25 -92.05" fill="url(#gradient4)" fill-rule="evenodd" stroke="none"/>
    <path d="M-59.4 -80.3 L-58.95 -79.85 -60.15 -78.75 -58.5 -78.45 -58.75 -77.75 -60.75 -78.15 -62.55 -76.55 -60.2 -76.1 -58.65 -77.5 -58.15 -77.0 -59.4 -75.85 -57.75 -75.55 -58.0 -74.9 -59.5 -75.3 -59.15 -73.8 -59.95 -73.55 -60.4 -75.35 -62.65 -75.95 -62.1 -73.85 -60.15 -73.45 -60.3 -72.75 -61.9 -73.1 -61.5 -71.6 -62.35 -71.35 -62.75 -72.9 -63.9 -71.75 -64.4 -72.25 -63.0 -73.6 -63.5 -75.75 -65.15 -74.15 -64.65 -72.3 -65.5 -72.1 -65.85 -73.55 -67.05 -72.45 -67.55 -72.95 -66.3 -74.0 -67.95 -74.4 -67.75 -75.05 -65.7 -74.6 -63.9 -76.2 -66.25 -76.7 -67.8 -75.35 -68.35 -75.8 -67.05 -76.9 -68.7 -77.2 -68.45 -77.9 -66.95 -77.55 -67.35 -79.0 -66.5 -79.25 -66.0 -77.45 -63.85 -76.8 -64.35 -78.95 -66.3 -79.4 -66.1 -80.05 -64.6 -79.7 -64.95 -81.2 -64.1 -81.4 -63.75 -79.9 -62.55 -81.0 -62.05 -80.5 -63.5 -79.15 -63.0 -77.05 -61.3 -78.65 -61.8 -80.5 -61.0 -80.75 -60.6 -79.25 -59.4 -80.3" fill="url(#gradient5)" fill-rule="evenodd" stroke="none"/>
    <path d="M-69.8 -62.8 L-68.1 -61.2 -67.5 -63.4 -66.2 -63.05 -66.85 -60.8 -64.5 -61.4 -64.2 -60.35 -67.1 -59.65 -68.0 -56.55 -64.65 -57.4 -63.9 -60.1 -62.65 -59.85 -63.25 -57.6 -60.9 -58.1 -60.65 -57.15 -63.05 -56.65 -61.2 -55.05 -62.0 -54.25 -64.25 -56.3 -67.8 -55.55 -65.15 -53.25 -62.1 -53.85 -61.8 -52.85 -64.2 -52.35 -62.4 -50.7 -63.1 -49.95 -64.8 -51.65 -65.45 -49.45 -66.7 -49.7 -65.95 -52.4 -68.4 -54.95 -69.3 -51.75 -67.05 -49.7 -67.8 -49.0 -69.55 -50.6 -70.2 -48.35 -71.45 -48.7 -70.85 -51.0 -73.2 -50.4 -73.45 -51.45 -70.6 -52.1 -69.75 -55.25 -72.95 -54.4 -73.75 -51.6 -75.0 -51.95 -74.35 -54.2 -76.7 -53.6 -77.0 -54.65 -74.6 -55.1 -76.45 -56.8 -75.65 -57.5 -73.35 -55.45 -69.85 -56.1 -72.5 -58.5 -75.6 -57.9 -75.85 -58.95 -73.4 -59.4 -75.3 -61.0 -74.55 -61.75 -72.85 -60.1 -72.2 -62.3 -70.9 -62.0 -71.6 -59.3 -69.3 -56.9 -68.4 -60.05 -70.6 -62.05 -69.8 -62.8" fill="url(#gradient6)" fill-rule="evenodd" stroke="none"/>
    <path d="M-47.1 -41.1 L-46.3 -38.15 -44.0 -40.35 -42.95 -39.35 -45.85 -36.6 -44.8 -32.4 -41.5 -35.65 -42.45 -39.3 -40.85 -39.75 -40.05 -36.8 -37.7 -38.95 -36.7 -38.05 -39.15 -35.8 -35.95 -35.2 -36.35 -33.8 -40.35 -34.65 -43.95 -31.45 -39.25 -30.55 -36.2 -33.3 -35.15 -32.35 -37.65 -30.1 -34.4 -29.45 -34.8 -28.1 -37.9 -28.85 -37.15 -25.9 -38.75 -25.45 -39.7 -29.05 -44.2 -30.25 -43.1 -26.05 -39.1 -25.2 -39.55 -23.85 -42.7 -24.55 -41.85 -21.55 -43.6 -21.1 -44.4 -24.1 -46.7 -21.9 -47.7 -22.9 -44.8 -25.6 -45.9 -29.8 -49.1 -26.6 -48.1 -22.95 -49.85 -22.5 -50.6 -25.45 -52.95 -23.25 -53.95 -24.2 -51.45 -26.4 -54.75 -27.05 -54.35 -28.4 -50.3 -27.55 -46.7 -30.7 -51.35 -31.65 -54.45 -28.95 -55.5 -29.95 -53.0 -32.1 -56.2 -32.75 -55.8 -34.1 -52.75 -33.35 -53.5 -36.35 -51.8 -36.85 -50.85 -33.2 -46.5 -31.95 -47.6 -36.15 -51.5 -37.05 -51.05 -38.45 -48.05 -37.7 -48.8 -40.65 -47.1 -41.1" fill="url(#gradient7)" fill-rule="evenodd" stroke="none"/>
    <path d="M-77.0 -2.75 L-75.8 -2.35 -76.2 -3.5 -75.7 -3.7 -75.2 -2.15 -73.5 -1.6 -74.05 -3.3 -75.55 -3.8 -75.4 -4.35 -74.25 -3.95 -74.65 -5.1 -74.1 -5.25 -73.8 -4.1 -73.0 -4.9 -72.5 -4.45 -73.5 -3.45 -73.05 -1.8 -71.9 -2.95 -72.3 -4.4 -71.8 -4.5 -71.5 -3.4 -70.65 -4.15 -70.2 -3.7 -71.05 -2.9 -69.9 -2.55 -70.0 -2.0 -71.45 -2.5 -72.6 -1.3 -70.95 -0.85 -69.9 -1.85 -69.45 -1.4 -70.3 -0.6 -69.15 -0.3 -69.25 0.25 -70.45 -0.15 -70.0 1.0 -70.55 1.15 -71.05 -0.3 -72.75 -0.8 -72.15 0.8 -70.75 1.35 -70.8 1.85 -72.05 1.45 -71.65 2.6 -72.15 2.75 -72.5 1.55 -73.3 2.35 -73.7 1.9 -72.7 0.95 -73.2 -0.7 -74.35 0.4 -73.9 1.9 -74.4 1.95 -74.8 0.85 -75.6 1.7 -76.05 1.2 -75.25 0.35 -76.35 0.05 -76.25 -0.5 -74.85 -0.05 -73.65 -1.25 -75.3 -1.65 -76.25 -0.65 -76.8 -1.1 -75.95 -1.9 -77.1 -2.2 -77.0 -2.75" fill="url(#gradient8)" fill-rule="evenodd" stroke="none"/>
    <path d="M-27.8 -43.65 L-26.95 -44.45 -26.5 -44.0 -27.35 -43.2 -26.15 -42.8 -26.3 -42.3 -27.75 -42.75 -28.9 -41.6 -27.25 -41.15 -26.2 -42.15 -25.75 -41.7 -26.55 -40.9 -25.45 -40.55 -25.55 -40.05 -26.75 -40.45 -26.3 -39.25 -26.85 -39.15 -27.35 -40.55 -29.05 -41.1 -28.45 -39.5 -27.0 -38.95 -27.1 -38.45 -28.3 -38.85 -27.9 -37.7 -28.4 -37.55 -28.75 -38.7 -29.6 -37.9 -30.0 -38.35 -29.0 -39.35 -29.5 -40.95 -30.6 -39.9 -30.15 -38.4 -30.65 -38.3 -31.05 -39.45 -31.9 -38.6 -32.35 -39.1 -31.5 -39.95 -32.65 -40.25 -32.55 -40.8 -31.15 -40.35 -29.95 -41.5 -31.6 -41.9 -32.55 -40.95 -33.1 -41.4 -32.25 -42.2 -33.35 -42.5 -33.25 -43.05 -32.1 -42.65 -32.5 -43.8 -31.95 -44.0 -31.45 -42.45 -29.8 -41.85 -30.35 -43.6 -31.85 -44.1 -31.7 -44.6 -30.55 -44.2 -30.95 -45.4 -30.4 -45.5 -30.1 -44.4 -29.25 -45.2 -28.75 -44.75 -29.75 -43.7 -29.35 -42.1 -28.2 -43.2 -28.6 -44.65 -28.1 -44.8 -27.8 -43.65" fill="url(#gradient9)" fill-rule="evenodd" stroke="none"/>
    <path d="M-26.3 -13.5 L-25.75 -13.0 -27.25 -11.65 -26.7 -9.55 -25.0 -11.15 -25.5 -13.0 -24.7 -13.25 -24.3 -11.75 -23.15 -12.85 -22.65 -12.4 -23.85 -11.25 -22.25 -10.95 -22.45 -10.25 -24.45 -10.7 -26.25 -9.05 -23.9 -8.6 -22.35 -10.0 -21.85 -9.5 -23.1 -8.4 -21.45 -8.05 -21.7 -7.4 -23.2 -7.8 -22.85 -6.3 -23.65 -6.1 -24.1 -7.9 -26.35 -8.45 -25.85 -6.35 -23.85 -5.95 -24.05 -5.3 -25.6 -5.65 -25.2 -4.1 -26.05 -3.9 -26.45 -5.4 -27.65 -4.3 -28.15 -4.8 -26.7 -6.15 -27.25 -8.25 -28.85 -6.65 -28.35 -4.85 -29.2 -4.6 -29.55 -6.1 -30.75 -4.95 -31.3 -5.45 -30.0 -6.55 -31.65 -6.9 -31.45 -7.55 -29.45 -7.1 -27.65 -8.7 -29.95 -9.2 -31.5 -7.85 -32.05 -8.35 -30.8 -9.4 -32.4 -9.75 -32.2 -10.4 -30.65 -10.05 -31.05 -11.55 -30.2 -11.75 -29.7 -9.95 -27.55 -9.35 -28.1 -11.45 -30.0 -11.9 -29.8 -12.55 -28.3 -12.2 -28.65 -13.7 -27.8 -13.9 -27.45 -12.45 -26.3 -13.5" fill="url(#gradient10)" fill-rule="evenodd" stroke="none"/>
    <path d="M28.25 -102.45 L28.75 -102.3 28.35 -100.85 29.55 -99.75 29.95 -101.35 28.95 -102.4 29.45 -102.85 30.25 -102.0 30.55 -103.15 31.1 -103.0 30.7 -101.85 31.85 -102.25 32.0 -101.7 30.5 -101.2 30.0 -99.5 31.65 -100.1 32.15 -101.6 32.7 -101.45 32.3 -100.25 33.45 -100.65 33.55 -100.15 32.4 -99.8 33.25 -99.0 32.75 -98.55 31.8 -99.55 30.1 -99.15 31.35 -97.95 32.75 -98.4 32.8 -97.9 31.7 -97.55 32.5 -96.7 32.05 -96.2 31.25 -97.05 30.85 -95.95 30.35 -96.05 30.8 -97.5 29.65 -98.6 29.15 -97.0 30.15 -96.0 29.75 -95.55 28.95 -96.35 28.6 -95.2 28.1 -95.3 28.5 -96.5 27.3 -96.1 27.2 -96.6 28.65 -97.1 29.2 -98.75 27.5 -98.2 27.0 -96.75 26.45 -96.9 26.9 -98.05 25.7 -97.65 25.6 -98.2 26.75 -98.5 25.95 -99.3 26.4 -99.75 27.4 -98.8 29.1 -99.25 27.9 -100.4 26.45 -99.9 26.35 -100.45 27.5 -100.8 26.65 -101.6 27.1 -102.05 27.95 -101.3 28.25 -102.45" fill="url(#gradient11)" fill-rule="evenodd" stroke="none"/>
    <path d="M61.35 -90.35 L61.45 -89.8 60.35 -89.5 61.2 -88.7 60.65 -88.25 59.7 -89.25 58.05 -88.85 59.25 -87.65 60.65 -88.1 60.75 -87.55 59.6 -87.25 60.4 -86.4 59.95 -85.9 59.15 -86.75 58.75 -85.65 58.25 -85.7 58.7 -87.2 57.6 -88.3 57.1 -86.65 58.1 -85.7 57.65 -85.25 56.85 -86.05 56.5 -84.85 56.0 -85.0 56.4 -86.15 55.2 -85.75 55.1 -86.25 56.55 -86.8 57.15 -88.4 55.4 -87.9 54.95 -86.45 54.4 -86.6 54.85 -87.75 53.6 -87.35 53.55 -87.9 54.65 -88.2 53.85 -89.0 54.3 -89.45 55.35 -88.45 57.0 -88.9 55.85 -90.1 54.4 -89.6 54.25 -90.15 55.4 -90.5 54.55 -91.3 55.0 -91.75 55.85 -91.0 56.2 -92.1 56.7 -92.0 56.3 -90.55 57.45 -89.4 57.85 -91.05 56.85 -92.05 57.35 -92.5 58.15 -91.7 58.5 -92.85 59.0 -92.7 58.6 -91.55 59.8 -91.95 59.9 -91.4 58.45 -90.9 57.9 -89.2 59.55 -89.75 60.05 -91.3 60.6 -91.1 60.2 -89.95 61.35 -90.35" fill="url(#gradient12)" fill-rule="evenodd" stroke="none"/>
    <path d="M61.65 -80.5 L62.15 -81.0 63.35 -79.9 63.7 -81.4 64.55 -81.2 64.2 -79.7 65.7 -80.05 65.9 -79.4 63.95 -78.95 63.45 -76.8 65.6 -77.45 66.1 -79.25 66.95 -79.0 66.55 -77.55 68.05 -77.9 68.3 -77.2 66.65 -76.9 67.95 -75.8 67.4 -75.35 65.85 -76.7 63.5 -76.2 65.3 -74.6 67.35 -75.05 67.55 -74.4 65.9 -74.0 67.15 -72.95 66.65 -72.45 65.45 -73.55 65.1 -72.1 64.25 -72.3 64.75 -74.15 63.1 -75.75 62.6 -73.6 64.0 -72.25 63.5 -71.75 62.35 -72.9 61.95 -71.35 61.1 -71.6 61.5 -73.1 59.9 -72.75 59.75 -73.45 61.7 -73.85 62.25 -75.95 60.0 -75.35 59.55 -73.55 58.75 -73.8 59.1 -75.3 57.6 -74.9 57.35 -75.55 59.0 -75.85 57.75 -77.0 58.25 -77.5 59.8 -76.1 62.15 -76.55 60.35 -78.15 58.35 -77.75 58.1 -78.45 59.75 -78.75 58.55 -79.85 59.0 -80.3 60.2 -79.25 60.6 -80.75 61.4 -80.5 60.9 -78.65 62.6 -77.05 63.1 -79.15 61.65 -80.5" fill="url(#gradient13)" fill-rule="evenodd" stroke="none"/>
    <path d="M60.25 -57.15 L60.5 -58.1 62.85 -57.6 62.25 -59.85 63.5 -60.1 64.25 -57.4 67.6 -56.55 66.7 -59.65 63.8 -60.35 64.1 -61.4 66.45 -60.8 65.8 -63.05 67.1 -63.4 67.7 -61.2 69.4 -62.8 70.2 -62.05 68.0 -60.05 68.9 -56.9 71.2 -59.3 70.5 -62.0 71.8 -62.3 72.45 -60.1 74.15 -61.75 74.9 -61.0 73.0 -59.4 75.45 -58.95 75.2 -57.9 72.1 -58.5 69.45 -56.1 72.95 -55.45 75.25 -57.5 76.05 -56.8 74.2 -55.1 76.6 -54.65 76.3 -53.6 73.95 -54.2 74.6 -51.95 73.35 -51.6 72.55 -54.4 69.35 -55.25 70.2 -52.1 73.05 -51.45 72.8 -50.4 70.45 -51.0 71.05 -48.7 69.8 -48.35 69.15 -50.6 67.4 -49.0 66.65 -49.7 68.9 -51.75 68.0 -54.95 65.55 -52.4 66.3 -49.7 65.05 -49.45 64.4 -51.65 62.7 -49.95 62.0 -50.7 63.8 -52.35 61.4 -52.85 61.7 -53.85 64.75 -53.25 67.4 -55.55 63.85 -56.3 61.6 -54.25 60.8 -55.05 62.65 -56.65 60.25 -57.15" fill="url(#gradient14)" fill-rule="evenodd" stroke="none"/>
    <path d="M24.5 -87.1 L24.85 -88.55 25.7 -88.35 25.35 -86.85 26.85 -87.2 27.05 -86.55 25.1 -86.1 24.6 -84.0 26.75 -84.6 27.25 -86.4 28.1 -86.2 27.7 -84.7 29.2 -85.05 29.45 -84.4 27.8 -84.05 29.1 -83.0 28.55 -82.5 27.0 -83.85 24.65 -83.35 26.45 -81.75 28.5 -82.2 28.7 -81.55 27.05 -81.2 28.3 -80.1 27.8 -79.6 26.6 -80.75 26.25 -79.25 25.4 -79.5 25.9 -81.3 24.25 -82.9 23.75 -80.8 25.15 -79.45 24.65 -78.95 23.5 -80.05 23.1 -78.55 22.25 -78.75 22.65 -80.3 21.05 -79.95 20.9 -80.6 22.85 -81.0 23.4 -83.1 21.15 -82.55 20.7 -80.75 19.9 -80.95 20.25 -82.45 18.75 -82.05 18.5 -82.7 20.15 -83.05 18.9 -84.15 19.4 -84.65 20.95 -83.25 23.3 -83.7 21.5 -85.35 19.5 -84.9 19.25 -85.6 20.9 -85.9 19.7 -87.05 20.15 -87.5 21.35 -86.4 21.75 -87.9 22.55 -87.65 22.05 -85.8 23.75 -84.2 24.25 -86.3 22.8 -87.65 23.3 -88.15 24.5 -87.1" fill="url(#gradient15)" fill-rule="evenodd" stroke="none"/>
    <path d="M31.55 -44.0 L32.1 -43.8 31.7 -42.65 32.85 -43.05 32.95 -42.5 31.85 -42.2 32.7 -41.4 32.15 -40.95 31.2 -41.9 29.55 -41.5 30.75 -40.35 32.15 -40.8 32.25 -40.25 31.1 -39.95 31.95 -39.1 31.5 -38.6 30.65 -39.45 30.25 -38.3 29.75 -38.4 30.2 -39.9 29.1 -40.95 28.6 -39.35 29.6 -38.35 29.2 -37.9 28.35 -38.7 28.0 -37.55 27.5 -37.7 27.9 -38.85 26.7 -38.45 26.6 -38.95 28.05 -39.5 28.65 -41.1 26.95 -40.55 26.45 -39.15 25.9 -39.25 26.35 -40.45 25.15 -40.05 25.05 -40.55 26.15 -40.9 25.35 -41.7 25.8 -42.15 26.85 -41.15 28.5 -41.6 27.35 -42.75 25.9 -42.3 25.75 -42.8 26.95 -43.2 26.1 -44.0 26.55 -44.45 27.4 -43.65 27.7 -44.8 28.2 -44.65 27.8 -43.2 28.95 -42.1 29.35 -43.7 28.35 -44.75 28.85 -45.2 29.7 -44.4 30.0 -45.5 30.55 -45.4 30.15 -44.2 31.3 -44.6 31.45 -44.1 29.95 -43.6 29.4 -41.85 31.05 -42.45 31.55 -44.0" fill="url(#gradient16)" fill-rule="evenodd" stroke="none"/>
    <path d="M36.3 -38.05 L37.3 -38.95 39.65 -36.8 40.45 -39.75 42.05 -39.3 41.1 -35.65 44.4 -32.4 45.45 -36.6 42.55 -39.35 43.6 -40.35 45.9 -38.15 46.7 -41.1 48.4 -40.65 47.65 -37.7 50.65 -38.45 51.1 -37.05 47.2 -36.15 46.1 -31.95 50.45 -33.2 51.4 -36.85 53.1 -36.35 52.35 -33.35 55.4 -34.1 55.8 -32.75 52.6 -32.1 55.1 -29.95 54.05 -28.95 50.95 -31.65 46.3 -30.7 49.9 -27.55 53.95 -28.4 54.35 -27.05 51.05 -26.4 53.55 -24.2 52.55 -23.25 50.2 -25.45 49.45 -22.5 47.7 -22.95 48.7 -26.6 45.5 -29.8 44.4 -25.6 47.3 -22.9 46.3 -21.9 44.0 -24.1 43.2 -21.1 41.45 -21.55 42.3 -24.55 39.15 -23.85 38.7 -25.2 42.7 -26.05 43.8 -30.25 39.3 -29.05 38.35 -25.45 36.75 -25.9 37.5 -28.85 34.4 -28.1 34.0 -29.45 37.25 -30.1 34.75 -32.35 35.8 -33.3 38.85 -30.55 43.55 -31.45 39.95 -34.65 35.95 -33.8 35.55 -35.2 38.75 -35.8 36.3 -38.05" fill="url(#gradient17)" fill-rule="evenodd" stroke="none"/>
    <path d="M24.3 -13.25 L25.1 -13.0 24.6 -11.15 26.3 -9.55 26.85 -11.65 25.35 -13.0 25.9 -13.5 27.05 -12.45 27.4 -13.9 28.25 -13.7 27.9 -12.2 29.4 -12.55 29.6 -11.9 27.7 -11.45 27.15 -9.35 29.3 -9.95 29.8 -11.75 30.65 -11.55 30.25 -10.05 31.8 -10.4 32.0 -9.75 30.4 -9.4 31.65 -8.35 31.1 -7.85 29.55 -9.2 27.25 -8.7 29.05 -7.1 31.05 -7.55 31.25 -6.9 29.6 -6.55 30.9 -5.45 30.35 -4.95 29.15 -6.1 28.8 -4.6 27.95 -4.85 28.45 -6.65 26.85 -8.25 26.3 -6.15 27.75 -4.8 27.25 -4.3 26.05 -5.4 25.65 -3.9 24.8 -4.1 25.2 -5.65 23.65 -5.3 23.45 -5.95 25.45 -6.35 25.95 -8.45 23.7 -7.9 23.25 -6.1 22.45 -6.3 22.8 -7.8 21.3 -7.4 21.05 -8.05 22.7 -8.4 21.45 -9.5 21.95 -10.0 23.5 -8.6 25.85 -9.05 24.05 -10.7 22.05 -10.25 21.85 -10.95 23.45 -11.25 22.25 -12.4 22.75 -12.85 23.9 -11.75 24.3 -13.25" fill="url(#gradient18)" fill-rule="evenodd" stroke="none"/>
    <path d="M69.8 -3.7 L70.25 -4.15 71.1 -3.4 71.4 -4.5 71.9 -4.4 71.5 -2.95 72.65 -1.8 73.1 -3.45 72.1 -4.45 72.6 -4.9 73.4 -4.1 73.7 -5.25 74.25 -5.1 73.85 -3.95 75.0 -4.35 75.15 -3.8 73.65 -3.3 73.1 -1.6 74.8 -2.15 75.3 -3.7 75.8 -3.5 75.4 -2.35 76.6 -2.75 76.7 -2.2 75.55 -1.9 76.4 -1.1 75.85 -0.65 74.9 -1.65 73.25 -1.25 74.45 -0.05 75.85 -0.5 75.95 0.05 74.85 0.35 75.65 1.2 75.2 1.7 74.4 0.85 74.0 1.95 73.5 1.9 73.95 0.4 72.8 -0.7 72.3 0.95 73.3 1.9 72.9 2.35 72.1 1.55 71.75 2.75 71.25 2.6 71.65 1.45 70.4 1.85 70.35 1.35 71.75 0.8 72.35 -0.8 70.65 -0.3 70.15 1.15 69.6 1.0 70.05 -0.15 68.85 0.25 68.75 -0.3 69.9 -0.6 69.05 -1.4 69.5 -1.85 70.55 -0.85 72.2 -1.3 71.05 -2.5 69.6 -2.0 69.5 -2.55 70.65 -2.9 69.8 -3.7" fill="url(#gradient19)" fill-rule="evenodd" stroke="none"/>
    <path d="M89.9 -27.9 L90.35 -28.35 91.2 -27.6 91.55 -28.7 92.0 -28.6 91.6 -27.15 92.8 -26.0 93.2 -27.65 92.2 -28.7 92.7 -29.15 93.5 -28.3 93.8 -29.45 94.35 -29.3 93.95 -28.15 95.15 -28.55 95.25 -28.0 93.8 -27.5 93.25 -25.8 94.9 -26.4 95.4 -27.9 95.95 -27.75 95.55 -26.55 96.7 -26.95 96.8 -26.45 95.65 -26.1 96.5 -25.3 96.0 -24.85 95.05 -25.85 93.35 -25.45 94.6 -24.25 96.0 -24.7 96.05 -24.2 94.95 -23.85 95.75 -23.0 95.3 -22.5 94.5 -23.35 94.1 -22.25 93.6 -22.35 94.05 -23.8 92.9 -24.9 92.45 -23.3 93.4 -22.3 93.0 -21.85 92.2 -22.65 91.85 -21.5 91.35 -21.6 91.75 -22.8 90.55 -22.4 90.45 -22.85 91.9 -23.4 92.45 -25.05 90.75 -24.5 90.25 -23.05 89.75 -23.2 90.2 -24.35 88.95 -23.95 88.85 -24.5 90.0 -24.8 89.2 -25.6 89.65 -26.05 90.65 -25.1 92.35 -25.55 91.15 -26.7 89.75 -26.2 89.6 -26.75 90.75 -27.1 89.9 -27.9" fill="url(#gradient20)" fill-rule="evenodd" stroke="none"/>
    <path d="M93.6 -12.75 L94.45 -12.5 94.1 -11.05 95.6 -11.4 95.8 -10.7 93.85 -10.25 93.35 -8.15 95.5 -8.8 96.0 -10.6 96.85 -10.35 96.45 -8.9 97.95 -9.25 98.2 -8.55 96.55 -8.25 97.85 -7.15 97.3 -6.65 95.75 -8.0 93.4 -7.55 95.2 -5.95 97.25 -6.4 97.4 -5.75 95.8 -5.35 97.05 -4.3 96.5 -3.8 95.35 -4.9 95.0 -3.45 94.15 -3.65 94.65 -5.5 93.0 -7.1 92.45 -4.95 93.9 -3.6 93.4 -3.1 92.25 -4.25 91.85 -2.7 91.0 -2.95 91.4 -4.45 89.8 -4.1 89.65 -4.8 91.6 -5.2 92.15 -7.3 89.9 -6.7 89.45 -4.9 88.65 -5.15 89.0 -6.65 87.5 -6.2 87.25 -6.9 88.85 -7.2 87.65 -8.35 88.15 -8.85 89.7 -7.45 92.0 -7.9 90.2 -9.5 88.25 -9.1 88.0 -9.8 89.65 -10.1 88.4 -11.2 88.9 -11.65 90.1 -10.6 90.5 -12.05 91.3 -11.85 90.8 -10.0 92.45 -8.4 93.0 -10.5 91.55 -11.85 92.05 -12.35 93.25 -11.25 93.6 -12.75" fill="url(#gradient21)" fill-rule="evenodd" stroke="none"/>
    <path d="M83.45 11.8 L85.15 12.25 84.35 15.25 87.4 14.5 87.85 15.85 83.9 16.75 82.85 20.95 87.2 19.75 88.15 16.1 89.85 16.6 89.1 19.55 92.15 18.85 92.55 20.2 89.3 20.8 91.85 23.0 90.8 23.95 87.7 21.25 83.0 22.2 86.6 25.35 90.65 24.5 91.1 25.85 87.8 26.55 90.3 28.75 89.3 29.7 86.95 27.5 86.15 30.45 84.45 29.95 85.45 26.3 82.25 23.1 81.15 27.35 84.05 30.05 83.0 31.05 80.75 28.85 79.9 31.85 78.2 31.4 79.0 28.4 75.85 29.1 75.45 27.75 79.4 26.9 80.55 22.65 76.05 23.9 75.1 27.5 73.5 27.05 74.25 24.05 71.15 24.85 70.75 23.5 74.0 22.85 71.5 20.6 72.55 19.65 75.6 22.4 80.3 21.5 76.7 18.3 72.65 19.1 72.25 17.7 75.5 17.15 73.05 14.9 74.0 14.0 76.4 16.15 77.15 13.15 78.8 13.6 77.85 17.25 81.15 20.5 82.2 16.3 79.3 13.6 80.3 12.6 82.65 14.8 83.45 11.8" fill="url(#gradient22)" fill-rule="evenodd" stroke="none"/>
    <path d="M89.05 41.3 L88.7 42.8 90.2 42.4 90.4 43.1 88.45 43.55 87.95 45.65 90.1 45.05 90.6 43.25 91.45 43.45 91.05 44.95 92.55 44.6 92.8 45.25 91.15 45.55 92.45 46.65 91.9 47.15 90.35 45.8 88.0 46.3 89.8 47.85 91.85 47.4 92.0 48.1 90.4 48.45 91.65 49.55 91.1 50.05 89.95 48.9 89.6 50.4 88.75 50.15 89.25 48.3 87.6 46.75 87.05 48.85 88.5 50.2 88.0 50.7 86.85 49.6 86.45 51.1 85.6 50.9 86.0 49.35 84.4 49.7 84.25 49.05 86.2 48.65 86.75 46.5 84.5 47.1 84.05 48.9 83.25 48.7 83.6 47.2 82.1 47.6 81.85 46.9 83.45 46.6 82.25 45.5 82.75 45.0 84.3 46.4 86.6 45.95 84.8 44.3 82.85 44.7 82.6 44.05 84.25 43.75 83.0 42.6 83.5 42.15 84.7 43.25 85.1 41.75 85.9 41.95 85.4 43.8 87.05 45.45 87.6 43.3 86.15 41.95 86.65 41.5 87.85 42.55 88.2 41.05 89.05 41.3" fill="url(#gradient23)" fill-rule="evenodd" stroke="none"/>
    <path d="M88.15 63.8 L86.25 65.4 88.7 65.85 88.4 66.9 85.35 66.3 82.7 68.7 86.2 69.4 88.5 67.3 89.3 68.05 87.45 69.7 89.85 70.2 89.55 71.2 87.2 70.65 87.85 72.85 86.6 73.2 85.8 70.4 82.55 69.55 83.45 72.7 86.3 73.4 86.05 74.4 83.7 73.85 84.3 76.15 83.0 76.45 82.4 74.2 80.65 75.8 79.85 75.15 82.1 73.05 81.25 69.85 78.8 72.4 79.55 75.1 78.3 75.35 77.65 73.15 75.95 74.85 75.25 74.1 77.05 72.5 74.65 71.95 74.95 70.95 78.0 71.6 80.65 69.25 77.1 68.5 74.85 70.55 74.05 69.8 75.9 68.15 73.5 67.65 73.75 66.7 76.1 67.2 75.5 64.95 76.7 64.7 77.5 67.4 80.85 68.25 79.95 65.15 77.05 64.45 77.35 63.45 79.7 64.0 79.05 61.75 80.3 61.4 80.95 63.6 82.65 62.0 83.45 62.75 81.25 64.8 82.1 67.95 84.45 65.5 83.75 62.8 85.05 62.5 85.7 64.7 87.4 63.1 88.15 63.8" fill="url(#gradient24)" fill-rule="evenodd" stroke="none"/>
    <path d="M53.15 36.0 L55.5 36.55 54.85 34.3 56.1 33.95 56.75 36.15 58.45 34.55 59.2 35.3 57.05 37.35 57.9 40.5 60.25 38.05 59.55 35.35 60.85 35.05 61.45 37.25 63.2 35.65 63.95 36.35 62.05 37.95 64.5 38.4 64.2 39.45 61.15 38.85 58.5 41.25 62.0 41.95 64.3 39.85 65.05 40.6 63.2 42.25 65.65 42.75 65.35 43.75 63.0 43.2 63.65 45.4 62.35 45.75 61.6 42.95 58.35 42.1 59.2 45.25 62.1 45.95 61.85 46.95 59.5 46.4 60.05 48.7 58.8 49.0 58.2 46.75 56.45 48.35 55.65 47.7 57.9 45.6 57.05 42.4 54.6 44.95 55.35 47.65 54.1 47.9 53.45 45.7 51.75 47.4 51.05 46.65 52.85 45.05 50.45 44.5 50.75 43.5 53.75 44.15 56.45 41.8 52.85 41.05 50.6 43.1 49.85 42.35 51.7 40.7 49.25 40.2 49.55 39.25 51.9 39.75 51.3 37.5 52.5 37.25 53.3 39.95 56.65 40.8 55.75 37.7 52.85 37.0 53.15 36.0" fill="url(#gradient25)" fill-rule="evenodd" stroke="none"/>
    <path d="M23.25 13.65 L23.4 14.2 21.9 14.7 21.35 16.4 23.05 15.8 23.55 14.3 24.05 14.45 23.65 15.65 24.85 15.2 24.95 15.75 23.8 16.1 24.65 16.9 24.1 17.35 23.15 16.35 21.5 16.75 22.7 17.9 24.1 17.45 24.2 18.0 23.1 18.35 23.9 19.2 23.45 19.7 22.65 18.8 22.25 19.95 21.75 19.85 22.2 18.35 21.05 17.3 20.55 18.9 21.55 19.9 21.15 20.35 20.35 19.55 20.0 20.7 19.5 20.6 19.9 19.4 18.65 19.8 18.6 19.3 20.0 18.8 20.6 17.15 18.9 17.7 18.4 19.15 17.85 19.0 18.3 17.85 17.1 18.25 17.0 17.7 18.15 17.4 17.3 16.55 17.75 16.1 18.8 17.1 20.45 16.65 19.3 15.5 17.85 16.0 17.75 15.45 18.9 15.1 18.05 14.3 18.5 13.85 19.35 14.6 19.65 13.45 20.15 13.6 19.75 15.05 20.9 16.15 21.35 14.55 20.35 13.5 20.85 13.05 21.65 13.85 21.95 12.75 22.5 12.9 22.1 14.05 23.25 13.65" fill="url(#gradient26)" fill-rule="evenodd" stroke="none"/>
    <path d="M30.75 30.0 L30.85 30.55 29.7 30.85 30.55 31.7 30.05 32.15 29.1 31.15 27.4 31.55 28.65 32.7 30.05 32.25 30.1 32.8 29.0 33.1 29.8 34.0 29.35 34.45 28.55 33.6 28.15 34.75 27.65 34.65 28.1 33.15 26.95 32.1 26.45 33.7 27.45 34.7 27.05 35.15 26.25 34.35 25.9 35.5 25.4 35.35 25.8 34.2 24.6 34.6 24.5 34.1 25.95 33.55 26.5 31.95 24.8 32.5 24.3 33.95 23.75 33.8 24.2 32.65 23.0 33.05 22.9 32.5 24.05 32.2 23.25 31.35 23.7 30.9 24.7 31.9 26.4 31.45 25.2 30.3 23.75 30.8 23.65 30.25 24.8 29.9 23.95 29.05 24.4 28.6 25.25 29.4 25.55 28.25 26.05 28.4 25.65 29.85 26.85 30.95 27.25 29.35 26.25 28.3 26.75 27.85 27.55 28.65 27.85 27.55 28.4 27.7 28.0 28.85 29.15 28.45 29.3 29.0 27.8 29.5 27.3 31.2 28.95 30.6 29.45 29.05 30.0 29.25 29.6 30.4 30.75 30.0" fill="url(#gradient27)" fill-rule="evenodd" stroke="none"/>
    <path d="M26.45 46.85 L26.8 45.8 29.15 46.4 28.5 44.15 29.75 43.8 30.4 46.0 32.1 44.35 32.85 45.15 30.7 47.15 31.55 50.3 33.9 47.9 33.2 45.2 34.5 44.85 35.1 47.05 36.8 45.45 37.6 46.15 35.7 47.8 38.15 48.25 37.85 49.3 34.8 48.7 32.15 51.1 35.65 51.75 37.95 49.7 38.7 50.4 36.85 52.05 39.3 52.55 39.0 53.6 36.65 53.0 37.25 55.2 36.0 55.6 35.25 52.8 32.0 51.95 32.85 55.1 35.75 55.75 35.45 56.8 33.15 56.2 33.7 58.5 32.45 58.8 31.85 56.55 30.05 58.2 29.3 57.5 31.55 55.45 30.7 52.25 28.25 54.75 29.0 57.45 27.75 57.75 27.1 55.55 25.4 57.25 24.65 56.5 26.45 54.85 24.1 54.3 24.4 53.35 27.4 53.95 30.05 51.6 26.5 50.9 24.25 52.9 23.5 52.15 25.35 50.55 22.9 50.05 23.2 49.1 25.55 49.6 24.95 47.35 26.15 47.05 26.9 49.75 30.3 50.65 29.4 47.5 26.45 46.85" fill="url(#gradient28)" fill-rule="evenodd" stroke="none"/>
    <path d="M61.3 71.55 L60.75 72.0 59.8 71.0 58.15 71.4 59.35 72.55 60.75 72.1 60.85 72.65 59.7 73.0 60.5 73.85 60.05 74.35 59.25 73.45 58.85 74.6 58.35 74.5 58.8 73.0 57.7 71.95 57.2 73.55 58.2 74.55 57.8 75.0 56.95 74.2 56.6 75.35 56.1 75.25 56.5 74.05 55.3 74.45 55.2 73.95 56.65 73.45 57.25 71.8 55.55 72.35 55.05 73.8 54.5 73.65 54.95 72.5 53.75 72.9 53.65 72.35 54.75 72.05 53.95 71.2 54.4 70.75 55.45 71.75 57.1 71.3 55.95 70.15 54.5 70.65 54.35 70.1 55.55 69.75 54.65 68.95 55.1 68.5 56.0 69.25 56.3 68.1 56.8 68.25 56.4 69.7 57.55 70.8 57.95 69.2 56.95 68.15 57.45 67.7 58.25 68.5 58.6 67.4 59.15 67.55 58.7 68.7 59.9 68.3 60.05 68.85 58.55 69.35 58.0 71.05 59.65 70.45 60.15 68.95 60.7 69.1 60.3 70.3 61.45 69.85 61.55 70.4 60.45 70.75 61.3 71.55" fill="url(#gradient29)" fill-rule="evenodd" stroke="none"/>
    <path d="M43.25 116.7 L44.0 113.7 45.75 114.15 44.95 117.15 48.0 116.4 48.45 117.75 44.5 118.65 43.45 122.85 47.8 121.65 48.75 118.0 50.45 118.5 49.7 121.45 52.75 120.75 53.15 122.1 49.9 122.7 52.45 124.9 51.4 125.85 48.3 123.15 43.6 124.1 47.2 127.25 51.25 126.4 51.65 127.75 48.4 128.45 50.9 130.65 49.85 131.6 47.55 129.4 46.75 132.35 45.05 131.85 46.05 128.2 42.85 125.0 41.7 129.25 44.65 131.95 43.6 132.95 41.3 130.75 40.5 133.75 38.8 133.3 39.6 130.3 36.45 131.0 36.05 129.65 40.0 128.8 41.15 124.55 36.65 125.8 35.7 129.4 34.05 128.95 34.85 125.95 31.75 126.75 31.35 125.4 34.55 124.75 32.1 122.5 33.15 121.55 36.2 124.3 40.85 123.4 37.25 120.2 33.25 121.0 32.85 119.6 36.1 119.05 33.6 116.8 34.6 115.9 37.0 118.05 37.75 115.05 39.4 115.5 38.45 119.15 41.7 122.4 42.8 118.2 39.9 115.5 40.9 114.5 43.25 116.7" fill="url(#gradient30)" fill-rule="evenodd" stroke="none"/>
    <path d="M71.0 197.45 L71.55 197.6 71.15 198.8 72.3 198.35 72.45 198.9 70.95 199.4 70.4 201.1 72.1 200.55 72.6 199.0 73.1 199.2 72.7 200.35 73.9 199.95 73.95 200.5 72.85 200.8 73.7 201.6 73.15 202.05 72.2 201.05 70.55 201.5 71.75 202.65 73.15 202.2 73.25 202.75 72.15 203.05 72.95 203.9 72.5 204.4 71.7 203.55 71.25 204.65 70.8 204.6 71.25 203.1 70.1 202.0 69.6 203.65 70.6 204.65 70.2 205.1 69.4 204.25 69.0 205.45 68.55 205.3 68.95 204.15 67.7 204.55 67.65 204.05 69.05 203.5 69.65 201.9 67.95 202.4 67.45 203.85 66.9 203.75 67.35 202.55 66.15 202.95 66.05 202.4 67.2 202.1 66.35 201.3 66.8 200.85 67.85 201.85 69.5 201.4 68.35 200.2 66.9 200.7 66.75 200.15 67.95 199.8 67.1 199.0 67.55 198.55 68.4 199.3 68.7 198.2 69.2 198.35 68.8 199.75 69.95 200.9 70.35 199.25 69.4 198.25 69.9 197.8 70.7 198.6 71.0 197.45" fill="url(#gradient31)" fill-rule="evenodd" stroke="none"/>
    <path d="M61.95 222.65 L62.25 221.65 64.6 222.2 64.0 219.95 65.25 219.6 65.85 221.8 67.6 220.2 68.35 220.95 66.2 223.0 67.05 226.15 69.4 223.7 68.65 221.0 69.95 220.7 70.6 222.9 72.3 221.3 73.05 222.0 71.2 223.6 73.6 224.05 73.35 225.1 70.3 224.5 67.65 226.9 71.15 227.6 73.45 225.5 74.2 226.25 72.35 227.9 74.8 228.4 74.45 229.4 72.15 228.85 72.75 231.05 71.5 231.4 70.75 228.6 67.5 227.75 68.35 230.9 71.25 231.6 70.95 232.6 68.6 232.05 69.2 234.35 67.95 234.65 67.3 232.4 65.55 234.0 64.8 233.35 67.05 231.25 66.2 228.05 63.7 230.6 64.5 233.3 63.2 233.55 62.6 231.35 60.9 233.05 60.15 232.3 61.95 230.7 59.55 230.15 59.9 229.15 62.9 229.8 65.55 227.45 62.0 226.7 59.75 228.75 59.0 228.0 60.85 226.35 58.4 225.85 58.65 224.9 61.0 225.4 60.45 223.15 61.65 222.9 62.4 225.6 65.8 226.45 64.9 223.35 61.95 222.65" fill="url(#gradient32)" fill-rule="evenodd" stroke="none"/>
    <path d="M48.4 214.55 L47.9 216.35 49.6 218.0 50.1 215.9 48.65 214.55 49.2 214.05 50.35 215.1 50.7 213.65 51.55 213.85 51.2 215.35 52.7 215.0 52.9 215.65 51.0 216.1 50.45 218.2 52.6 217.6 53.1 215.8 53.95 216.0 53.55 217.5 55.05 217.15 55.3 217.8 53.7 218.15 54.95 219.2 54.4 219.7 52.85 218.35 50.55 218.85 52.35 220.4 54.35 219.95 54.55 220.65 52.9 221.0 54.15 222.1 53.65 222.6 52.45 221.45 52.1 222.95 51.25 222.7 51.75 220.85 50.1 219.3 49.6 221.4 51.0 222.75 50.55 223.25 49.35 222.15 48.95 223.65 48.1 223.45 48.5 221.9 46.95 222.25 46.75 221.6 48.75 221.2 49.25 219.05 47.0 219.65 46.55 221.45 45.75 221.25 46.1 219.75 44.6 220.15 44.35 219.5 46.0 219.15 44.75 218.05 45.25 217.55 46.8 218.95 49.15 218.5 47.35 216.85 45.35 217.25 45.15 216.6 46.75 216.3 45.55 215.15 46.05 214.7 47.2 215.8 47.6 214.3 48.4 214.55" fill="url(#gradient33)" fill-rule="evenodd" stroke="none"/>
    <path d="M-19.3 15.1 L-18.15 15.45 -18.25 16.0 -19.7 15.5 -20.85 16.65 -19.2 17.1 -18.15 16.1 -17.7 16.55 -18.55 17.4 -17.4 17.7 -17.5 18.25 -18.7 17.85 -18.25 19.0 -18.8 19.15 -19.3 17.7 -21.0 17.15 -20.4 18.8 -19.0 19.3 -19.05 19.8 -20.3 19.4 -19.9 20.6 -20.4 20.7 -20.75 19.55 -21.55 20.35 -21.95 19.9 -20.95 18.9 -21.45 17.3 -22.6 18.35 -22.15 19.85 -22.65 19.95 -23.05 18.8 -23.85 19.7 -24.3 19.2 -23.5 18.35 -24.6 18.0 -24.5 17.45 -23.1 17.9 -21.9 16.75 -23.55 16.35 -24.5 17.35 -25.05 16.9 -24.2 16.1 -25.35 15.75 -25.25 15.2 -24.05 15.65 -24.45 14.45 -23.95 14.3 -23.45 15.8 -21.75 16.4 -22.3 14.7 -23.8 14.2 -23.65 13.65 -22.5 14.05 -22.9 12.9 -22.35 12.75 -22.05 13.85 -21.25 13.05 -20.75 13.5 -21.75 14.55 -21.3 16.15 -20.15 15.05 -20.55 13.6 -20.05 13.45 -19.75 14.6 -18.9 13.85 -18.45 14.3 -19.3 15.1" fill="url(#gradient34)" fill-rule="evenodd" stroke="none"/>
    <path d="M-24.15 30.8 L-25.6 30.3 -26.8 31.45 -25.1 31.9 -24.1 30.9 -23.65 31.35 -24.45 32.2 -23.3 32.5 -23.4 33.05 -24.6 32.65 -24.15 33.8 -24.7 33.95 -25.2 32.5 -26.9 31.95 -26.35 33.55 -24.9 34.1 -25.0 34.6 -26.2 34.2 -25.8 35.35 -26.3 35.5 -26.65 34.35 -27.45 35.15 -27.85 34.7 -26.85 33.7 -27.35 32.1 -28.5 33.15 -28.05 34.65 -28.55 34.75 -28.95 33.6 -29.75 34.45 -30.2 34.0 -29.4 33.1 -30.5 32.8 -30.45 32.25 -29.05 32.7 -27.8 31.55 -29.5 31.15 -30.45 32.15 -30.95 31.7 -30.1 30.85 -31.25 30.55 -31.15 30.0 -30.0 30.4 -30.4 29.25 -29.85 29.05 -29.35 30.6 -27.7 31.2 -28.2 29.5 -29.7 29.0 -29.55 28.45 -28.4 28.85 -28.8 27.7 -28.25 27.55 -27.95 28.65 -27.15 27.85 -26.65 28.3 -27.65 29.35 -27.25 30.95 -26.05 29.85 -26.45 28.4 -25.95 28.25 -25.65 29.4 -24.8 28.6 -24.35 29.05 -25.2 29.9 -24.05 30.25 -24.15 30.8" fill="url(#gradient35)" fill-rule="evenodd" stroke="none"/>
    <path d="M-35.5 47.05 L-34.9 44.85 -33.6 45.2 -34.3 47.9 -31.95 50.3 -31.1 47.15 -33.25 45.15 -32.5 44.35 -30.8 46.0 -30.15 43.8 -28.9 44.15 -29.55 46.4 -27.2 45.8 -26.85 46.85 -29.8 47.5 -30.7 50.65 -27.3 49.75 -26.55 47.05 -25.35 47.35 -25.95 49.6 -23.6 49.1 -23.3 50.05 -25.75 50.55 -23.9 52.15 -24.65 52.9 -26.9 50.9 -30.45 51.6 -27.8 53.95 -24.8 53.35 -24.5 54.3 -26.85 54.85 -25.05 56.5 -25.8 57.25 -27.5 55.55 -28.15 57.75 -29.4 57.45 -28.65 54.75 -31.1 52.25 -31.95 55.45 -29.7 57.5 -30.45 58.2 -32.25 56.55 -32.85 58.8 -34.1 58.5 -33.55 56.2 -35.85 56.8 -36.15 55.75 -33.25 55.1 -32.4 51.95 -35.65 52.8 -36.4 55.6 -37.65 55.2 -37.05 53.0 -39.4 53.6 -39.7 52.55 -37.25 52.05 -39.1 50.4 -38.35 49.7 -36.05 51.75 -32.55 51.1 -35.2 48.7 -38.25 49.3 -38.55 48.25 -36.1 47.8 -38.0 46.15 -37.2 45.45 -35.5 47.05" fill="url(#gradient36)" fill-rule="evenodd" stroke="none"/>
    <path d="M-72.65 17.7 L-73.05 19.1 -77.1 18.3 -80.7 21.5 -76.0 22.4 -72.95 19.65 -71.9 20.6 -74.4 22.85 -71.15 23.5 -71.55 24.85 -74.65 24.05 -73.9 27.05 -75.5 27.5 -76.45 23.9 -80.95 22.65 -79.8 26.9 -75.85 27.75 -76.25 29.1 -79.4 28.4 -78.6 31.4 -80.3 31.85 -81.15 28.85 -83.4 31.05 -84.45 30.05 -81.55 27.35 -82.65 23.1 -85.85 26.3 -84.85 29.95 -86.55 30.45 -87.35 27.5 -89.7 29.7 -90.7 28.75 -88.2 26.55 -91.5 25.85 -91.05 24.5 -87.0 25.35 -83.4 22.2 -88.1 21.25 -91.2 23.95 -92.25 23.0 -89.7 20.8 -92.95 20.2 -92.55 18.85 -89.5 19.55 -90.25 16.6 -88.55 16.1 -87.6 19.75 -83.25 20.95 -84.3 16.75 -88.25 15.85 -87.8 14.5 -84.75 15.25 -85.55 12.25 -83.85 11.8 -83.05 14.8 -80.7 12.6 -79.7 13.6 -82.6 16.3 -81.55 20.5 -78.25 17.25 -79.2 13.6 -77.55 13.15 -76.8 16.15 -74.4 14.0 -73.45 14.9 -75.9 17.15 -72.65 17.7" fill="url(#gradient37)" fill-rule="evenodd" stroke="none"/>
    <path d="M-63.6 35.65 L-61.85 37.25 -61.25 35.05 -59.95 35.35 -60.65 38.05 -58.3 40.5 -57.45 37.35 -59.6 35.3 -58.85 34.55 -57.15 36.15 -56.5 33.95 -55.25 34.3 -55.9 36.55 -53.55 36.0 -53.25 37.0 -56.15 37.7 -57.05 40.8 -53.7 39.95 -52.9 37.25 -51.7 37.5 -52.3 39.75 -49.95 39.25 -49.65 40.2 -52.1 40.7 -50.25 42.35 -51.0 43.1 -53.25 41.05 -56.85 41.8 -54.15 44.15 -51.15 43.5 -50.85 44.5 -53.25 45.05 -51.45 46.65 -52.15 47.4 -53.85 45.7 -54.5 47.9 -55.75 47.65 -55.0 44.95 -57.45 42.4 -58.3 45.6 -56.05 47.7 -56.85 48.35 -58.6 46.75 -59.2 49.0 -60.45 48.7 -59.9 46.4 -62.25 46.95 -62.5 45.95 -59.6 45.25 -58.75 42.1 -62.0 42.95 -62.75 45.75 -64.05 45.4 -63.4 43.2 -65.75 43.75 -66.05 42.75 -63.6 42.25 -65.45 40.6 -64.7 39.85 -62.4 41.95 -58.9 41.25 -61.55 38.85 -64.6 39.45 -64.9 38.4 -62.45 37.95 -64.35 36.35 -63.6 35.65" fill="url(#gradient38)" fill-rule="evenodd" stroke="none"/>
    <path d="M-59.0 67.4 L-58.65 68.5 -57.85 67.7 -57.35 68.15 -58.35 69.2 -57.95 70.8 -56.8 69.7 -57.2 68.25 -56.7 68.1 -56.4 69.25 -55.5 68.5 -55.05 68.95 -55.95 69.75 -54.75 70.1 -54.9 70.65 -56.35 70.15 -57.5 71.3 -55.85 71.75 -54.8 70.75 -54.35 71.2 -55.15 72.05 -54.05 72.35 -54.15 72.9 -55.35 72.5 -54.9 73.65 -55.45 73.8 -55.95 72.35 -57.65 71.8 -57.05 73.45 -55.6 73.95 -55.7 74.45 -56.9 74.05 -56.5 75.25 -57.0 75.35 -57.35 74.2 -58.2 75.0 -58.6 74.55 -57.6 73.55 -58.1 71.95 -59.2 73.0 -58.75 74.5 -59.25 74.6 -59.65 73.45 -60.45 74.35 -60.9 73.85 -60.1 73.0 -61.25 72.65 -61.15 72.1 -59.75 72.55 -58.55 71.4 -60.2 71.0 -61.15 72.0 -61.7 71.55 -60.85 70.75 -61.95 70.4 -61.85 69.85 -60.7 70.3 -61.1 69.1 -60.55 68.95 -60.05 70.45 -58.4 71.05 -58.95 69.35 -60.45 68.85 -60.3 68.3 -59.1 68.7 -59.55 67.55 -59.0 67.4" fill="url(#gradient39)" fill-rule="evenodd" stroke="none"/>
    <path d="M-79.45 61.75 L-80.1 64.0 -77.75 63.45 -77.45 64.45 -80.35 65.15 -81.25 68.25 -77.9 67.4 -77.1 64.7 -75.9 64.95 -76.5 67.2 -74.15 66.7 -73.9 67.65 -76.3 68.15 -74.45 69.8 -75.25 70.55 -77.5 68.5 -81.05 69.25 -78.4 71.6 -75.35 70.95 -75.05 71.95 -77.45 72.5 -75.65 74.1 -76.35 74.85 -78.05 73.15 -78.7 75.35 -79.95 75.1 -79.2 72.4 -81.65 69.85 -82.5 73.05 -80.25 75.15 -81.05 75.8 -82.8 74.2 -83.4 76.45 -84.7 76.15 -84.1 73.85 -86.45 74.4 -86.7 73.4 -83.85 72.7 -82.95 69.55 -86.2 70.4 -87.0 73.2 -88.25 72.85 -87.6 70.65 -89.95 71.2 -90.25 70.2 -87.85 69.7 -89.7 68.05 -88.9 67.3 -86.6 69.4 -83.1 68.7 -85.75 66.3 -88.8 66.9 -89.1 65.85 -86.65 65.4 -88.55 63.8 -87.8 63.1 -86.1 64.7 -85.45 62.5 -84.15 62.8 -84.85 65.5 -82.5 67.95 -81.65 64.8 -83.85 62.75 -83.05 62.0 -81.35 63.6 -80.7 61.4 -79.45 61.75" fill="url(#gradient40)" fill-rule="evenodd" stroke="none"/>
    <path d="M-91.55 45.55 L-93.2 45.25 -92.95 44.6 -91.45 44.95 -91.85 43.45 -91.0 43.25 -90.5 45.05 -88.35 45.65 -88.85 43.55 -90.8 43.1 -90.6 42.4 -89.1 42.8 -89.45 41.3 -88.6 41.05 -88.25 42.55 -87.05 41.5 -86.55 41.95 -88.0 43.3 -87.45 45.45 -85.8 43.8 -86.3 41.95 -85.5 41.75 -85.1 43.25 -83.9 42.15 -83.4 42.6 -84.65 43.75 -83.0 44.05 -83.25 44.7 -85.2 44.3 -87.0 45.95 -84.7 46.4 -83.15 45.0 -82.65 45.5 -83.85 46.6 -82.25 46.9 -82.5 47.6 -84.0 47.2 -83.65 48.7 -84.45 48.9 -84.9 47.1 -87.15 46.5 -86.6 48.65 -84.65 49.05 -84.8 49.7 -86.4 49.35 -86.0 50.9 -86.85 51.1 -87.25 49.6 -88.4 50.7 -88.9 50.2 -87.45 48.85 -88.0 46.75 -89.65 48.3 -89.15 50.15 -90.0 50.4 -90.35 48.9 -91.5 50.05 -92.05 49.55 -90.8 48.45 -92.4 48.1 -92.25 47.4 -90.2 47.85 -88.4 46.3 -90.75 45.8 -92.3 47.15 -92.85 46.65 -91.55 45.55" fill="url(#gradient41)" fill-rule="evenodd" stroke="none"/>
    <path d="M-34.0 116.8 L-36.5 119.05 -33.25 119.6 -33.65 121.0 -37.65 120.2 -41.25 123.4 -36.6 124.3 -33.55 121.55 -32.5 122.5 -34.95 124.75 -31.75 125.4 -32.15 126.75 -35.25 125.95 -34.45 128.95 -36.1 129.4 -37.05 125.8 -41.55 124.55 -40.4 128.8 -36.45 129.65 -36.85 131.0 -40.0 130.3 -39.2 133.3 -40.9 133.75 -41.7 130.75 -44.0 132.95 -45.05 131.95 -42.1 129.25 -43.25 125.0 -46.45 128.2 -45.45 131.85 -47.15 132.35 -47.95 129.4 -50.25 131.6 -51.3 130.65 -48.8 128.45 -52.05 127.75 -51.65 126.4 -47.6 127.25 -44.0 124.1 -48.7 123.15 -51.8 125.85 -52.85 124.9 -50.3 122.7 -53.55 122.1 -53.15 120.75 -50.1 121.45 -50.85 118.5 -49.15 118.0 -48.2 121.65 -43.85 122.85 -44.9 118.65 -48.85 117.75 -48.4 116.4 -45.35 117.15 -46.15 114.15 -44.4 113.7 -43.65 116.7 -41.3 114.5 -40.3 115.5 -43.2 118.2 -42.1 122.4 -38.85 119.15 -39.8 115.5 -38.15 115.05 -37.4 118.05 -35.0 115.9 -34.0 116.8" fill="url(#gradient42)" fill-rule="evenodd" stroke="none"/>
    <path d="M-71.4 197.45 L-71.1 198.6 -70.3 197.8 -69.8 198.25 -70.75 199.25 -70.35 200.9 -69.2 199.75 -69.6 198.35 -69.1 198.2 -68.8 199.3 -67.95 198.55 -67.5 199.0 -68.35 199.8 -67.15 200.15 -67.3 200.7 -68.75 200.2 -69.9 201.4 -68.25 201.85 -67.2 200.85 -66.75 201.3 -67.6 202.1 -66.45 202.4 -66.55 202.95 -67.75 202.55 -67.3 203.75 -67.85 203.85 -68.35 202.4 -70.05 201.9 -69.45 203.5 -68.05 204.05 -68.1 204.55 -69.35 204.15 -68.95 205.3 -69.4 205.45 -69.8 204.25 -70.6 205.1 -71.0 204.65 -70.0 203.65 -70.5 202.0 -71.65 203.1 -71.2 204.6 -71.65 204.65 -72.1 203.55 -72.9 204.4 -73.35 203.9 -72.55 203.05 -73.65 202.75 -73.55 202.2 -72.15 202.65 -70.95 201.5 -72.6 201.05 -73.55 202.05 -74.1 201.6 -73.25 200.8 -74.35 200.5 -74.3 199.95 -73.1 200.35 -73.5 199.2 -73.0 199.0 -72.5 200.55 -70.8 201.1 -71.35 199.4 -72.85 198.9 -72.7 198.35 -71.55 198.8 -71.95 197.6 -71.4 197.45" fill="url(#gradient43)" fill-rule="evenodd" stroke="none"/>
    <path d="M-53.1 215.0 L-51.6 215.35 -51.95 213.85 -51.1 213.65 -50.75 215.1 -49.6 214.05 -49.05 214.55 -50.5 215.9 -50.0 218.0 -48.3 216.35 -48.8 214.55 -48.0 214.3 -47.6 215.8 -46.45 214.7 -45.95 215.15 -47.15 216.3 -45.55 216.6 -45.75 217.25 -47.75 216.85 -49.55 218.5 -47.2 218.95 -45.65 217.55 -45.15 218.05 -46.4 219.15 -44.75 219.5 -45.0 220.15 -46.5 219.75 -46.15 221.25 -46.95 221.45 -47.4 219.65 -49.65 219.05 -49.15 221.2 -47.15 221.6 -47.35 222.25 -48.9 221.9 -48.5 223.45 -49.35 223.65 -49.75 222.15 -50.95 223.25 -51.4 222.75 -50.0 221.4 -50.5 219.3 -52.15 220.85 -51.65 222.7 -52.5 222.95 -52.85 221.45 -54.05 222.6 -54.55 222.1 -53.3 221.0 -54.95 220.65 -54.75 219.95 -52.75 220.4 -50.95 218.85 -53.25 218.35 -54.8 219.7 -55.35 219.2 -54.1 218.15 -55.7 217.8 -55.45 217.15 -53.95 217.5 -54.35 216.0 -53.5 215.8 -53.0 217.6 -50.85 218.2 -51.4 216.1 -53.3 215.65 -53.1 215.0" fill="url(#gradient44)" fill-rule="evenodd" stroke="none"/>
    <path d="M-72.7 221.3 L-71.0 222.9 -70.35 220.7 -69.05 221.0 -69.8 223.7 -67.45 226.15 -66.6 223.0 -68.75 220.95 -68.0 220.2 -66.25 221.8 -65.65 219.6 -64.4 219.95 -65.0 222.2 -62.65 221.65 -62.35 222.65 -65.3 223.35 -66.2 226.45 -62.8 225.6 -62.05 222.9 -60.85 223.15 -61.4 225.4 -59.05 224.9 -58.8 225.85 -61.25 226.35 -59.4 228.0 -60.15 228.75 -62.4 226.7 -65.95 227.45 -63.3 229.8 -60.3 229.15 -59.95 230.15 -62.35 230.7 -60.55 232.3 -61.3 233.05 -63.0 231.35 -63.6 233.55 -64.9 233.3 -64.1 230.6 -66.6 228.05 -67.45 231.25 -65.2 233.35 -65.95 234.0 -67.7 232.4 -68.35 234.65 -69.6 234.35 -69.0 232.05 -71.35 232.6 -71.65 231.6 -68.75 230.9 -67.9 227.75 -71.15 228.6 -71.9 231.4 -73.15 231.05 -72.55 228.85 -74.85 229.4 -75.2 228.4 -72.75 227.9 -74.6 226.25 -73.85 225.5 -71.55 227.6 -68.05 226.9 -70.7 224.5 -73.75 225.1 -74.0 224.05 -71.6 223.6 -73.45 222.0 -72.7 221.3" fill="url(#gradient45)" fill-rule="evenodd" stroke="none"/>
  </g>
  <defs>
    <linearGradient gradientTransform="matrix(0.0, 0.0049, -0.0048, 0.0, -30.0, -99.2)" gradientUnits="userSpaceOnUse" id="gradient0" spreadMethod="pad" x1="-819.2" x2="819.2">
      <stop offset="0.0" stop-color="#000000" stop-opacity="0.2"/>
      <stop offset="1.0" stop-color="#000000" stop-opacity="0.0"/>
    </linearGradient>
    <linearGradient gradientTransform="matrix(0.0, 0.0049, -0.0048, 0.0, -93.25, -25.5)" gradientUnits="userSpaceOnUse" id="gradient1" spreadMethod="pad" x1="-819.2" x2="819.2">
      <stop offset="0.0" stop-color="#000000" stop-opacity="0.2"/>
      <stop offset="1.0" stop-color="#000000" stop-opacity="0.0"/>
    </linearGradient>
    <linearGradient gradientTransform="matrix(0.0, 0.0061, -0.0067, 0.0, -93.1, -7.75)" gradientUnits="userSpaceOnUse" id="gradient2" spreadMethod="pad" x1="-819.2" x2="819.2">
      <stop offset="0.0" stop-color="#000000" stop-opacity="0.2"/>
      <stop offset="1.0" stop-color="#000000" stop-opacity="0.0"/>
    </linearGradient>
    <linearGradient gradientTransform="matrix(0.0, 0.0061, -0.0067, 0.0, -24.35, -83.55)" gradientUnits="userSpaceOnUse" id="gradient3" spreadMethod="pad" x1="-819.2" x2="819.2">
      <stop offset="0.0" stop-color="#000000" stop-opacity="0.2"/>
      <stop offset="1.0" stop-color="#000000" stop-opacity="0.0"/>
    </linearGradient>
    <linearGradient gradientTransform="matrix(0.0, 0.0049, -0.0048, 0.0, -57.9, -88.85)" gradientUnits="userSpaceOnUse" id="gradient4" spreadMethod="pad" x1="-819.2" x2="819.2">
      <stop offset="0.0" stop-color="#000000" stop-opacity="0.2"/>
      <stop offset="1.0" stop-color="#000000" stop-opacity="0.0"/>
    </linearGradient>
    <linearGradient gradientTransform="matrix(0.0, 0.0061, -0.0067, 0.0, -63.2, -76.4)" gradientUnits="userSpaceOnUse" id="gradient5" spreadMethod="pad" x1="-819.2" x2="819.2">
      <stop offset="0.0" stop-color="#000000" stop-opacity="0.2"/>
      <stop offset="1.0" stop-color="#000000" stop-opacity="0.0"/>
    </linearGradient>
    <linearGradient gradientTransform="matrix(0.0, 0.0092, -0.01, 0.0, -68.85, -55.9)" gradientUnits="userSpaceOnUse" id="gradient6" spreadMethod="pad" x1="-819.2" x2="819.2">
      <stop offset="0.0" stop-color="#000000" stop-opacity="0.2"/>
      <stop offset="1.0" stop-color="#000000" stop-opacity="0.0"/>
    </linearGradient>
    <linearGradient gradientTransform="matrix(0.0, 0.0122, -0.0133, 0.0, -45.3, -31.1)" gradientUnits="userSpaceOnUse" id="gradient7" spreadMethod="pad" x1="-819.2" x2="819.2">
      <stop offset="0.0" stop-color="#000000" stop-opacity="0.2"/>
      <stop offset="1.0" stop-color="#000000" stop-opacity="0.0"/>
    </linearGradient>
    <linearGradient gradientTransform="matrix(0.0, 0.0049, -0.0048, 0.0, -73.1, -1.25)" gradientUnits="userSpaceOnUse" id="gradient8" spreadMethod="pad" x1="-819.2" x2="819.2">
      <stop offset="0.0" stop-color="#000000" stop-opacity="0.2"/>
      <stop offset="1.0" stop-color="#000000" stop-opacity="0.0"/>
    </linearGradient>
    <linearGradient gradientTransform="matrix(0.0, 0.0049, -0.0048, 0.0, -29.4, -41.55)" gradientUnits="userSpaceOnUse" id="gradient9" spreadMethod="pad" x1="-819.2" x2="819.2">
      <stop offset="0.0" stop-color="#000000" stop-opacity="0.2"/>
      <stop offset="1.0" stop-color="#000000" stop-opacity="0.0"/>
    </linearGradient>
    <linearGradient gradientTransform="matrix(0.0, 0.0061, -0.0067, 0.0, -26.9, -8.9)" gradientUnits="userSpaceOnUse" id="gradient10" spreadMethod="pad" x1="-819.2" x2="819.2">
      <stop offset="0.0" stop-color="#000000" stop-opacity="0.2"/>
      <stop offset="1.0" stop-color="#000000" stop-opacity="0.0"/>
    </linearGradient>
    <linearGradient gradientTransform="matrix(0.0, 0.0049, 0.0048, 0.0, 29.6, -99.2)" gradientUnits="userSpaceOnUse" id="gradient11" spreadMethod="pad" x1="-819.2" x2="819.2">
      <stop offset="0.0" stop-color="#000000" stop-opacity="0.2"/>
      <stop offset="1.0" stop-color="#000000" stop-opacity="0.0"/>
    </linearGradient>
    <linearGradient gradientTransform="matrix(0.0, 0.0049, 0.0048, 0.0, 57.5, -88.85)" gradientUnits="userSpaceOnUse" id="gradient12" spreadMethod="pad" x1="-819.2" x2="819.2">
      <stop offset="0.0" stop-color="#000000" stop-opacity="0.2"/>
      <stop offset="1.0" stop-color="#000000" stop-opacity="0.0"/>
    </linearGradient>
    <linearGradient gradientTransform="matrix(0.0, 0.0061, 0.0067, 0.0, 62.8, -76.4)" gradientUnits="userSpaceOnUse" id="gradient13" spreadMethod="pad" x1="-819.2" x2="819.2">
      <stop offset="0.0" stop-color="#000000" stop-opacity="0.2"/>
      <stop offset="1.0" stop-color="#000000" stop-opacity="0.0"/>
    </linearGradient>
    <linearGradient gradientTransform="matrix(0.0, 0.0092, 0.01, 0.0, 68.45, -55.9)" gradientUnits="userSpaceOnUse" id="gradient14" spreadMethod="pad" x1="-819.2" x2="819.2">
      <stop offset="0.0" stop-color="#000000" stop-opacity="0.2"/>
      <stop offset="1.0" stop-color="#000000" stop-opacity="0.0"/>
    </linearGradient>
    <linearGradient gradientTransform="matrix(0.0, 0.0061, 0.0067, 0.0, 23.95, -83.55)" gradientUnits="userSpaceOnUse" id="gradient15" spreadMethod="pad" x1="-819.2" x2="819.2">
      <stop offset="0.0" stop-color="#000000" stop-opacity="0.2"/>
      <stop offset="1.0" stop-color="#000000" stop-opacity="0.0"/>
    </linearGradient>
    <linearGradient gradientTransform="matrix(0.0, 0.0049, 0.0048, 0.0, 29.0, -41.55)" gradientUnits="userSpaceOnUse" id="gradient16" spreadMethod="pad" x1="-819.2" x2="819.2">
      <stop offset="0.0" stop-color="#000000" stop-opacity="0.2"/>
      <stop offset="1.0" stop-color="#000000" stop-opacity="0.0"/>
    </linearGradient>
    <linearGradient gradientTransform="matrix(0.0, 0.0122, 0.0133, 0.0, 44.9, -31.1)" gradientUnits="userSpaceOnUse" id="gradient17" spreadMethod="pad" x1="-819.2" x2="819.2">
      <stop offset="0.0" stop-color="#000000" stop-opacity="0.2"/>
      <stop offset="1.0" stop-color="#000000" stop-opacity="0.0"/>
    </linearGradient>
    <linearGradient gradientTransform="matrix(0.0, 0.0061, 0.0067, 0.0, 26.5, -8.9)" gradientUnits="userSpaceOnUse" id="gradient18" spreadMethod="pad" x1="-819.2" x2="819.2">
      <stop offset="0.0" stop-color="#000000" stop-opacity="0.2"/>
      <stop offset="1.0" stop-color="#000000" stop-opacity="0.0"/>
    </linearGradient>
    <linearGradient gradientTransform="matrix(0.0, 0.0049, 0.0048, 0.0, 72.7, -1.25)" gradientUnits="userSpaceOnUse" id="gradient19" spreadMethod="pad" x1="-819.2" x2="819.2">
      <stop offset="0.0" stop-color="#000000" stop-opacity="0.2"/>
      <stop offset="1.0" stop-color="#000000" stop-opacity="0.0"/>
    </linearGradient>
    <linearGradient gradientTransform="matrix(0.0, 0.0049, 0.0048, 0.0, 92.85, -25.5)" gradientUnits="userSpaceOnUse" id="gradient20" spreadMethod="pad" x1="-819.2" x2="819.2">
      <stop offset="0.0" stop-color="#000000" stop-opacity="0.2"/>
      <stop offset="1.0" stop-color="#000000" stop-opacity="0.0"/>
    </linearGradient>
    <linearGradient gradientTransform="matrix(0.0, 0.0061, 0.0067, 0.0, 92.7, -7.75)" gradientUnits="userSpaceOnUse" id="gradient21" spreadMethod="pad" x1="-819.2" x2="819.2">
      <stop offset="0.0" stop-color="#000000" stop-opacity="0.2"/>
      <stop offset="1.0" stop-color="#000000" stop-opacity="0.0"/>
    </linearGradient>
    <linearGradient gradientTransform="matrix(0.0, 0.0122, 0.0133, 0.0, 81.65, 21.8)" gradientUnits="userSpaceOnUse" id="gradient22" spreadMethod="pad" x1="-819.2" x2="819.2">
      <stop offset="0.0" stop-color="#000000" stop-opacity="0.2"/>
      <stop offset="1.0" stop-color="#000000" stop-opacity="0.0"/>
    </linearGradient>
    <linearGradient gradientTransform="matrix(0.0, 0.0061, 0.0067, 0.0, 87.3, 46.05)" gradientUnits="userSpaceOnUse" id="gradient23" spreadMethod="pad" x1="-819.2" x2="819.2">
      <stop offset="0.0" stop-color="#000000" stop-opacity="0.2"/>
      <stop offset="1.0" stop-color="#000000" stop-opacity="0.0"/>
    </linearGradient>
    <linearGradient gradientTransform="matrix(0.0, 0.0092, 0.01, 0.0, 81.65, 68.95)" gradientUnits="userSpaceOnUse" id="gradient24" spreadMethod="pad" x1="-819.2" x2="819.2">
      <stop offset="0.0" stop-color="#000000" stop-opacity="0.2"/>
      <stop offset="1.0" stop-color="#000000" stop-opacity="0.0"/>
    </linearGradient>
    <linearGradient gradientTransform="matrix(0.0, 0.0092, 0.01, 0.0, 57.45, 41.5)" gradientUnits="userSpaceOnUse" id="gradient25" spreadMethod="pad" x1="-819.2" x2="819.2">
      <stop offset="0.0" stop-color="#000000" stop-opacity="0.2"/>
      <stop offset="1.0" stop-color="#000000" stop-opacity="0.0"/>
    </linearGradient>
    <linearGradient gradientTransform="matrix(0.0, 0.0049, 0.0048, 0.0, 20.95, 16.7)" gradientUnits="userSpaceOnUse" id="gradient26" spreadMethod="pad" x1="-819.2" x2="819.2">
      <stop offset="0.0" stop-color="#000000" stop-opacity="0.2"/>
      <stop offset="1.0" stop-color="#000000" stop-opacity="0.0"/>
    </linearGradient>
    <linearGradient gradientTransform="matrix(0.0, 0.0049, 0.0048, 0.0, 26.9, 31.5)" gradientUnits="userSpaceOnUse" id="gradient27" spreadMethod="pad" x1="-819.2" x2="819.2">
      <stop offset="0.0" stop-color="#000000" stop-opacity="0.2"/>
      <stop offset="1.0" stop-color="#000000" stop-opacity="0.0"/>
    </linearGradient>
    <linearGradient gradientTransform="matrix(0.0, 0.0092, 0.01, 0.0, 31.1, 51.3)" gradientUnits="userSpaceOnUse" id="gradient28" spreadMethod="pad" x1="-819.2" x2="819.2">
      <stop offset="0.0" stop-color="#000000" stop-opacity="0.2"/>
      <stop offset="1.0" stop-color="#000000" stop-opacity="0.0"/>
    </linearGradient>
    <linearGradient gradientTransform="matrix(0.0, 0.0049, 0.0048, 0.0, 57.6, 71.35)" gradientUnits="userSpaceOnUse" id="gradient29" spreadMethod="pad" x1="-819.2" x2="819.2">
      <stop offset="0.0" stop-color="#000000" stop-opacity="0.2"/>
      <stop offset="1.0" stop-color="#000000" stop-opacity="0.0"/>
    </linearGradient>
    <linearGradient gradientTransform="matrix(0.0, 0.0122, 0.0133, 0.0, 42.2, 123.7)" gradientUnits="userSpaceOnUse" id="gradient30" spreadMethod="pad" x1="-819.2" x2="819.2">
      <stop offset="0.0" stop-color="#000000" stop-opacity="0.2"/>
      <stop offset="1.0" stop-color="#000000" stop-opacity="0.0"/>
    </linearGradient>
    <linearGradient gradientTransform="matrix(0.0, 0.0049, 0.0048, 0.0, 70.0, 201.45)" gradientUnits="userSpaceOnUse" id="gradient31" spreadMethod="pad" x1="-819.2" x2="819.2">
      <stop offset="0.0" stop-color="#000000" stop-opacity="0.2"/>
      <stop offset="1.0" stop-color="#000000" stop-opacity="0.0"/>
    </linearGradient>
    <linearGradient gradientTransform="matrix(0.0, 0.0092, 0.01, 0.0, 66.6, 227.15)" gradientUnits="userSpaceOnUse" id="gradient32" spreadMethod="pad" x1="-819.2" x2="819.2">
      <stop offset="0.0" stop-color="#000000" stop-opacity="0.2"/>
      <stop offset="1.0" stop-color="#000000" stop-opacity="0.0"/>
    </linearGradient>
    <linearGradient gradientTransform="matrix(0.0, 0.0061, 0.0067, 0.0, 49.8, 218.6)" gradientUnits="userSpaceOnUse" id="gradient33" spreadMethod="pad" x1="-819.2" x2="819.2">
      <stop offset="0.0" stop-color="#000000" stop-opacity="0.2"/>
      <stop offset="1.0" stop-color="#000000" stop-opacity="0.0"/>
    </linearGradient>
    <linearGradient gradientTransform="matrix(0.0, 0.0049, -0.0048, 0.0, -21.35, 16.7)" gradientUnits="userSpaceOnUse" id="gradient34" spreadMethod="pad" x1="-819.2" x2="819.2">
      <stop offset="0.0" stop-color="#000000" stop-opacity="0.2"/>
      <stop offset="1.0" stop-color="#000000" stop-opacity="0.0"/>
    </linearGradient>
    <linearGradient gradientTransform="matrix(0.0, 0.0049, -0.0048, 0.0, -27.3, 31.5)" gradientUnits="userSpaceOnUse" id="gradient35" spreadMethod="pad" x1="-819.2" x2="819.2">
      <stop offset="0.0" stop-color="#000000" stop-opacity="0.2"/>
      <stop offset="1.0" stop-color="#000000" stop-opacity="0.0"/>
    </linearGradient>
    <linearGradient gradientTransform="matrix(0.0, 0.0092, -0.01, 0.0, -31.5, 51.3)" gradientUnits="userSpaceOnUse" id="gradient36" spreadMethod="pad" x1="-819.2" x2="819.2">
      <stop offset="0.0" stop-color="#000000" stop-opacity="0.2"/>
      <stop offset="1.0" stop-color="#000000" stop-opacity="0.0"/>
    </linearGradient>
    <linearGradient gradientTransform="matrix(0.0, 0.0122, -0.0133, 0.0, -82.05, 21.8)" gradientUnits="userSpaceOnUse" id="gradient37" spreadMethod="pad" x1="-819.2" x2="819.2">
      <stop offset="0.0" stop-color="#000000" stop-opacity="0.2"/>
      <stop offset="1.0" stop-color="#000000" stop-opacity="0.0"/>
    </linearGradient>
    <linearGradient gradientTransform="matrix(0.0, 0.0092, -0.01, 0.0, -57.85, 41.5)" gradientUnits="userSpaceOnUse" id="gradient38" spreadMethod="pad" x1="-819.2" x2="819.2">
      <stop offset="0.0" stop-color="#000000" stop-opacity="0.2"/>
      <stop offset="1.0" stop-color="#000000" stop-opacity="0.0"/>
    </linearGradient>
    <linearGradient gradientTransform="matrix(0.0, 0.0049, -0.0048, 0.0, -58.0, 71.35)" gradientUnits="userSpaceOnUse" id="gradient39" spreadMethod="pad" x1="-819.2" x2="819.2">
      <stop offset="0.0" stop-color="#000000" stop-opacity="0.2"/>
      <stop offset="1.0" stop-color="#000000" stop-opacity="0.0"/>
    </linearGradient>
    <linearGradient gradientTransform="matrix(0.0, 0.0092, -0.01, 0.0, -82.05, 68.95)" gradientUnits="userSpaceOnUse" id="gradient40" spreadMethod="pad" x1="-819.2" x2="819.2">
      <stop offset="0.0" stop-color="#000000" stop-opacity="0.2"/>
      <stop offset="1.0" stop-color="#000000" stop-opacity="0.0"/>
    </linearGradient>
    <linearGradient gradientTransform="matrix(0.0, 0.0061, -0.0067, 0.0, -87.7, 46.05)" gradientUnits="userSpaceOnUse" id="gradient41" spreadMethod="pad" x1="-819.2" x2="819.2">
      <stop offset="0.0" stop-color="#000000" stop-opacity="0.2"/>
      <stop offset="1.0" stop-color="#000000" stop-opacity="0.0"/>
    </linearGradient>
    <linearGradient gradientTransform="matrix(0.0, 0.0122, -0.0133, 0.0, -42.6, 123.7)" gradientUnits="userSpaceOnUse" id="gradient42" spreadMethod="pad" x1="-819.2" x2="819.2">
      <stop offset="0.0" stop-color="#000000" stop-opacity="0.2"/>
      <stop offset="1.0" stop-color="#000000" stop-opacity="0.0"/>
    </linearGradient>
    <linearGradient gradientTransform="matrix(0.0, 0.0049, -0.0048, 0.0, -70.4, 201.45)" gradientUnits="userSpaceOnUse" id="gradient43" spreadMethod="pad" x1="-819.2" x2="819.2">
      <stop offset="0.0" stop-color="#000000" stop-opacity="0.2"/>
      <stop offset="1.0" stop-color="#000000" stop-opacity="0.0"/>
    </linearGradient>
    <linearGradient gradientTransform="matrix(0.0, 0.0061, -0.0067, 0.0, -50.2, 218.6)" gradientUnits="userSpaceOnUse" id="gradient44" spreadMethod="pad" x1="-819.2" x2="819.2">
      <stop offset="0.0" stop-color="#000000" stop-opacity="0.2"/>
      <stop offset="1.0" stop-color="#000000" stop-opacity="0.0"/>
    </linearGradient>
    <linearGradient gradientTransform="matrix(0.0, 0.0092, -0.01, 0.0, -67.0, 227.15)" gradientUnits="userSpaceOnUse" id="gradient45" spreadMethod="pad" x1="-819.2" x2="819.2">
      <stop offset="0.0" stop-color="#000000" stop-opacity="0.2"/>
      <stop offset="1.0" stop-color="#000000" stop-opacity="0.0"/>
    </linearGradient>
  </defs>
</svg>
