<?xml version="1.0" encoding="UTF-8" standalone="no"?>
<svg xmlns:xlink="http://www.w3.org/1999/xlink" height="361.1px" width="113.75px" xmlns="http://www.w3.org/2000/svg">
  <g transform="matrix(1.0, 0.0, 0.0, 1.0, -211.9, -15.55)">
    <path d="M283.05 15.55 Q278.95 19.4 276.55 23.35 284.75 21.95 293.2 24.25 283.1 24.15 275.5 32.75 275.15 35.55 274.4 37.55 351.75 176.2 312.4 376.65 296.05 183.8 266.5 269.75 L266.45 269.75 264.1 259.15 Q253.85 213.7 241.8 190.55 L240.95 189.1 Q229.15 167.2 215.45 166.6 L212.6 166.65 211.9 166.75 212.45 166.1 212.3 166.05 211.9 166.7 212.2 166.0 Q236.1 123.2 248.1 89.3 L266.4 37.25 Q266.9 31.45 269.9 26.05 275.65 18.5 283.05 15.55" fill="#000000" fill-rule="evenodd" stroke="none"/>
  </g>
</svg>
