<?xml version="1.0" encoding="UTF-8" standalone="no"?>
<svg xmlns:xlink="http://www.w3.org/1999/xlink" height="278.85px" width="265.5px" xmlns="http://www.w3.org/2000/svg">
  <g transform="matrix(1.0, 0.0, 0.0, 1.0, -64.75, -138.05)">
    <path d="M121.05 173.45 Q124.45 156.45 125.0 139.05 L284.2 139.05 284.2 162.7 Q284.3 181.05 285.05 199.35 L285.05 199.8 Q277.25 233.75 280.5 270.35 282.45 292.55 286.8 311.6 297.9 361.25 298.75 396.0 206.1 385.15 113.3 395.7 95.9 325.5 113.3 238.65 119.1 209.5 121.05 173.45" fill="#000000" fill-opacity="0.2509804" fill-rule="evenodd" stroke="none"/>
    <path d="M121.05 173.45 Q124.45 156.45 125.0 139.05 L284.2 139.05 284.2 162.7 Q284.3 181.05 285.05 199.35 L285.05 199.8 Q286.35 235.45 289.75 272.7 292.1 299.0 307.65 331.95 325.2 369.45 329.25 408.05 318.2 414.15 298.25 415.9 298.9 406.65 298.75 396.0 206.1 385.15 113.3 395.7 115.55 404.55 118.25 413.1 L83.35 411.85 Q71.95 410.45 65.8 407.5 64.8 356.3 83.35 289.8 93.45 253.55 109.35 212.7 117.05 193.35 121.05 173.45" fill="none" stroke="#000000" stroke-linecap="round" stroke-linejoin="round" stroke-width="2.0"/>
    <path d="M121.05 173.45 Q119.1 209.5 113.3 238.65 95.9 325.5 113.3 395.7 M285.05 199.8 Q277.25 233.75 280.5 270.35 282.45 292.55 286.8 311.6 297.9 361.25 298.75 396.0" fill="none" stroke="#000000" stroke-linecap="round" stroke-linejoin="round" stroke-width="1.0"/>
  </g>
</svg>
