<?xml version="1.0" encoding="UTF-8" standalone="no"?>
<svg xmlns:xlink="http://www.w3.org/1999/xlink" height="145.55px" width="229.95px" xmlns="http://www.w3.org/2000/svg">
  <g transform="matrix(1.0, 0.0, 0.0, 1.0, -84.25, -101.3)">
    <path d="M209.3 118.75 L209.25 118.75 198.95 108.2 205.55 101.3 Q206.05 104.35 207.1 106.35 207.75 107.45 209.15 107.85 L209.85 107.95 209.3 118.75 M218.15 143.4 L223.5 144.7 229.55 146.3 229.9 146.4 234.75 147.45 Q238.3 147.8 240.0 146.3 L243.1 145.25 244.15 144.9 245.7 144.45 244.75 144.7 244.7 144.75 244.65 144.55 Q263.2 129.1 258.0 110.75 L259.05 111.25 262.0 112.65 Q270.9 117.0 279.1 122.1 277.6 130.95 265.7 139.85 L262.0 140.5 259.05 141.05 258.25 141.25 265.65 139.9 266.95 139.7 286.55 137.7 286.95 137.65 292.2 131.05 295.85 133.9 Q303.65 140.15 310.65 147.2 L292.0 159.8 290.25 152.4 289.85 151.0 289.75 150.7 Q263.55 148.85 237.3 156.5 183.0 150.6 132.8 154.85 115.25 142.6 95.05 137.15 108.95 126.25 127.55 118.95 L145.6 134.45 Q162.75 134.6 179.9 136.6 163.4 124.7 154.05 110.85 166.6 108.0 180.7 106.3 189.1 127.55 217.65 143.25 L213.85 142.4 214.8 142.6 218.15 143.4 M238.55 193.9 Q257.65 193.1 277.5 195.9 L283.05 197.0 293.3 187.3 242.8 187.6 156.65 189.55 165.15 195.9 Q170.5 199.75 182.15 199.95 193.4 200.15 210.4 197.0 224.25 194.45 238.55 193.9 M293.45 170.2 L293.8 177.5 293.8 177.8 293.8 178.1 313.55 166.3 Q314.35 175.0 314.15 183.75 302.3 191.9 283.05 197.0 282.1 202.25 278.85 207.45 267.65 204.75 253.05 204.15 246.6 203.9 239.45 204.05 L214.1 205.75 Q186.1 208.65 150.4 216.5 L150.35 216.25 Q152.9 209.25 154.5 202.3 119.45 197.55 84.4 185.85 85.2 174.1 87.7 162.45 L144.65 180.6 Q189.2 168.4 241.8 172.4 267.55 166.25 293.3 168.5 L293.45 170.2 M141.8 234.75 Q109.95 238.15 86.25 225.25 84.75 216.1 84.25 207.05 114.55 217.05 148.45 221.1 145.55 227.9 141.8 234.75 M311.4 210.1 L310.45 214.85 Q291.45 227.95 270.75 224.75 271.3 219.95 272.2 215.75 L275.95 211.55 Q295.15 210.15 312.85 201.15 L311.4 210.1 M269.6 242.75 L269.6 244.05 269.6 246.15 230.3 246.75 Q201.85 247.35 162.1 243.45 162.65 237.45 162.15 231.45 185.15 228.45 203.65 226.9 L233.1 225.35 258.9 226.55 Q265.7 227.45 270.25 229.2 L269.6 242.75" fill="#000000" fill-rule="evenodd" stroke="none"/>
  </g>
</svg>
