<?xml version="1.0" encoding="UTF-8" standalone="no"?>
<svg xmlns:xlink="http://www.w3.org/1999/xlink" height="146.95px" width="233.6px" xmlns="http://www.w3.org/2000/svg">
  <g transform="matrix(1.0, 0.0, 0.0, 1.0, -79.65, -104.45)">
    <path d="M214.3 128.35 L215.6 129.55 219.4 132.85 223.75 136.35 244.45 136.35 248.0 132.1 249.15 114.0 Q251.65 111.7 252.25 108.2 L257.1 110.35 259.05 111.25 262.0 112.65 Q280.55 121.65 295.85 133.9 303.65 140.15 310.65 147.2 312.35 155.25 313.25 163.3 302.45 165.05 293.35 169.0 286.45 172.0 280.55 176.2 280.35 182.15 279.55 188.25 L273.7 195.4 265.35 246.25 230.3 246.75 182.65 245.25 185.15 200.0 185.2 199.95 190.5 191.0 189.4 179.0 Q183.45 174.6 176.75 171.15 172.05 168.7 167.0 166.7 143.65 157.5 112.5 157.85 109.7 192.1 114.9 227.25 L108.25 247.0 109.2 251.4 Q93.8 250.4 79.65 245.3 L86.25 225.25 Q79.0 180.4 95.05 137.15 111.65 124.1 135.1 116.2 159.35 108.0 190.85 105.3 L194.1 105.0 202.55 104.45 195.35 111.95 Q200.85 123.1 214.3 128.35 M288.15 192.2 L287.3 217.4 296.05 235.35 296.65 240.1 Q283.1 243.25 269.6 242.75 269.8 227.2 272.2 215.75 281.35 206.4 283.05 197.0 L288.15 192.2" fill="#000000" fill-rule="evenodd" stroke="none"/>
  </g>
</svg>
