<?xml version="1.0" encoding="UTF-8" standalone="no"?>
<svg xmlns:xlink="http://www.w3.org/1999/xlink" height="142.4px" width="146.75px" xmlns="http://www.w3.org/2000/svg">
  <g transform="matrix(1.0, 0.0, 0.0, 1.0, -143.6, -104.45)">
    <path d="M214.3 128.35 L215.6 129.55 219.4 132.85 223.75 136.35 244.45 136.35 248.0 132.1 249.15 114.0 Q251.65 111.7 252.25 108.2 L257.1 110.35 259.05 111.25 262.0 112.65 Q270.6 116.8 278.55 121.75 281.65 129.6 284.15 137.85 288.0 150.45 290.35 163.8 278.95 180.35 275.6 191.3 274.9 193.5 274.55 195.5 274.2 197.3 274.15 198.9 L265.35 246.25 230.3 246.75 182.65 245.25 186.8 193.1 186.8 192.75 Q187.3 177.85 159.6 160.5 159.25 146.5 155.25 134.7 151.25 123.05 143.6 113.55 164.7 107.5 190.85 105.3 L194.1 105.0 202.55 104.45 195.35 111.95 Q200.85 123.1 214.3 128.35" fill="#000000" fill-rule="evenodd" stroke="none"/>
  </g>
</svg>
