<?xml version="1.0" encoding="UTF-8" standalone="no"?>
<svg xmlns:xlink="http://www.w3.org/1999/xlink" height="79.7px" width="225.15px" xmlns="http://www.w3.org/2000/svg">
  <g transform="matrix(1.0, 0.0, 0.0, 1.0, -88.15, -106.3)">
    <path d="M240.0 146.3 L244.2 144.9 244.75 144.7 244.65 144.55 Q263.2 129.1 258.0 110.75 L259.05 111.25 262.0 112.65 Q280.55 121.65 295.85 133.9 303.65 140.15 310.65 147.2 312.4 155.45 313.3 163.7 L303.25 165.45 309.1 170.6 305.1 178.5 293.75 180.95 293.75 180.1 297.85 172.9 292.4 167.0 274.8 168.95 281.55 175.3 275.95 183.55 256.75 185.15 263.0 177.05 255.25 170.3 241.55 170.85 226.25 171.1 217.6 178.35 217.55 178.35 225.3 186.0 Q209.1 186.0 190.85 185.15 L183.7 177.4 191.4 170.4 158.6 168.35 151.25 175.4 151.2 175.4 160.05 183.3 146.8 182.2 118.8 179.5 109.3 171.55 116.85 164.1 88.15 160.3 Q90.8 148.65 95.05 137.15 111.65 124.1 135.1 116.2 155.35 109.35 180.7 106.3 189.1 127.55 217.65 143.25 L223.5 144.7 229.55 146.3 Q237.2 148.75 240.0 146.3" fill="#000000" fill-rule="evenodd" stroke="none"/>
  </g>
</svg>
