<?xml version="1.0" encoding="UTF-8" standalone="no"?>
<svg xmlns:xlink="http://www.w3.org/1999/xlink" height="143.0px" width="216.7px" xmlns="http://www.w3.org/2000/svg">
  <g transform="matrix(1.0, 0.0, 0.0, 1.0, -83.4, -104.35)">
    <path d="M240.0 146.3 L244.5 144.8 241.5 136.35 223.75 136.35 227.35 145.7 229.55 146.3 Q237.2 148.75 240.0 146.3 M179.15 136.55 Q188.7 162.15 190.5 191.0 L185.2 199.95 Q194.45 199.75 207.15 197.6 L213.45 189.6 Q213.05 161.5 201.4 139.85 L194.1 138.6 190.85 138.1 179.15 136.55 169.9 107.8 M201.4 139.85 L201.35 139.8 190.05 105.35 M133.15 116.85 Q144.75 148.15 149.1 183.95 L156.65 189.55 165.15 195.9 165.4 196.05 Q165.85 162.9 159.15 134.85 L145.6 134.45 M222.4 246.85 Q223.55 219.65 229.7 194.45 L229.75 194.45 235.6 187.85 Q234.35 165.95 227.35 145.7 M202.3 233.2 L205.3 219.25 207.1 197.65 207.15 197.6 M229.75 194.45 L238.55 193.9 242.8 187.6 242.8 187.25 Q243.1 170.35 237.3 156.5 M299.1 136.55 L293.8 179.1 293.3 187.3 288.15 192.2 288.05 195.6 283.05 197.0 288.15 192.2 M252.25 108.2 Q251.85 110.6 250.55 112.45 L258.1 141.2 258.15 141.25 259.05 141.05 262.0 140.5 275.35 138.6 275.35 138.55 267.05 115.2 M239.65 246.6 Q240.4 220.6 245.8 193.75 242.15 193.75 238.55 193.9 M245.8 193.75 Q245.85 193.25 245.85 193.75 L245.9 193.75 251.05 187.55 Q251.3 165.85 244.5 144.8 M245.8 193.75 L245.85 193.75 245.8 193.85 245.9 193.75 M258.15 141.25 Q264.95 161.8 262.1 188.7 L257.65 194.0 273.7 195.4 279.55 188.25 Q282.9 161.9 275.35 138.6 M265.35 246.25 L273.65 195.45 273.7 195.4 M293.3 187.3 L293.05 185.0 293.8 179.1 Q293.95 166.0 290.35 152.85 L289.75 150.7 288.0 128.0 M151.9 111.4 Q156.2 122.65 159.15 134.85 M117.3 123.4 Q110.35 158.2 111.8 193.95 98.1 190.4 84.4 185.85 M150.25 216.5 L151.45 213.1 Q153.25 207.7 154.5 202.3 L150.85 201.8 Q150.15 192.7 149.1 183.95 M258.9 233.95 L258.9 214.75 256.25 210.0 252.95 246.4 M206.5 213.55 L205.3 219.25 203.0 246.4 M231.1 239.1 L234.8 213.75 239.95 202.95 M185.2 199.95 L185.15 200.0 182.65 245.25 M257.65 194.0 L256.25 210.0 M165.4 196.05 Q165.1 215.4 162.4 236.5 M154.5 202.3 Q155.95 195.9 156.65 189.55" fill="none" stroke="#000000" stroke-linecap="round" stroke-linejoin="round" stroke-width="1.0"/>
    <path d="M190.05 105.35 L169.9 107.8 M288.0 128.0 Q292.0 130.85 295.85 133.9 L299.1 136.55 M267.05 115.2 Q264.55 113.85 262.0 112.65 L259.05 111.25 257.1 110.35 252.25 108.2 M133.15 116.85 L135.1 116.2 Q143.1 113.45 151.9 111.4 M84.4 185.85 Q86.1 161.25 95.05 137.15 104.95 129.35 117.3 123.4 M162.1 243.45 L162.4 236.5 Q162.3 230.65 161.2 224.8 153.85 222.85 150.25 216.5" fill="none" stroke="#000000" stroke-linecap="round" stroke-linejoin="round" stroke-width="2.0"/>
  </g>
</svg>
