<?xml version="1.0" encoding="UTF-8" standalone="no"?>
<svg xmlns:xlink="http://www.w3.org/1999/xlink" height="256.7px" width="265.65px" xmlns="http://www.w3.org/2000/svg">
  <g transform="matrix(1.0, 0.0, 0.0, 1.0, -78.65, -106.9)">
    <path d="M326.05 299.45 L330.8 304.15 M343.3 316.55 Q335.85 326.15 333.4 341.2 L328.3 341.2 328.55 348.5 Q327.15 355.85 319.7 355.3 315.3 354.55 313.85 351.6 307.5 354.55 303.75 352.4 300.95 350.75 299.65 346.3 295.2 347.85 292.4 346.3 289.9 344.95 288.65 341.25 285.1 340.7 283.25 339.0 284.9 333.55 283.5 328.15 L283.5 328.1 282.3 322.3 Q282.8 319.25 283.6 316.2 L285.95 308.0 M169.3 107.9 Q161.4 109.15 154.05 110.85 M292.2 131.05 L295.85 133.9 Q303.65 140.15 310.65 147.2 M279.1 122.1 Q274.05 118.9 268.7 116.05 M313.55 166.3 Q314.35 175.0 314.15 183.75 M84.4 185.85 Q85.2 174.1 87.7 162.45 M127.55 118.95 Q108.95 126.25 95.05 137.15 M148.45 221.1 Q145.55 227.9 141.8 234.75 M86.25 225.25 Q84.75 216.1 84.25 207.05 M146.8 248.1 Q145.4 256.65 145.1 265.2 M87.7 268.9 Q81.8 257.35 79.65 245.3 M145.35 280.3 Q145.65 284.95 146.3 289.6 L146.8 292.85 M117.15 305.65 Q108.15 297.65 101.3 289.35 M173.75 328.15 L180.35 337.75 178.75 339.65 Q176.5 341.7 173.25 341.5 170.05 341.25 166.0 338.95 L165.9 338.95 165.7 348.65 Q165.65 354.35 165.9 360.1 L154.4 362.6 152.9 358.45 152.9 358.4 Q144.85 361.8 139.7 354.85 L113.85 337.75 M114.5 332.4 L115.85 320.0 M162.15 301.75 L162.2 301.75 177.5 310.6 M312.85 201.15 L311.4 210.1 M322.95 230.35 Q320.75 242.75 319.6 255.15 M274.4 264.2 L269.8 256.0 M162.1 243.45 Q162.65 237.45 162.15 231.45 M284.1 279.8 L292.6 292.45 M318.3 291.8 Q318.05 282.7 318.4 273.55" fill="none" stroke="#000000" stroke-linecap="round" stroke-linejoin="round" stroke-width="2.0"/>
    <path d="M330.8 304.15 L321.25 312.1 Q315.5 311.25 311.65 312.55 304.85 314.7 303.3 323.05 303.05 324.2 302.95 325.5 L302.95 326.0 304.9 328.2 M285.95 308.0 Q309.35 310.3 326.05 299.45 M333.4 341.2 L323.6 330.55 324.75 320.75 343.3 316.55 M217.65 143.25 L213.85 142.4 214.8 142.6 218.15 143.4 217.65 143.25 M213.85 142.4 L204.25 140.4 203.25 140.2 203.0 140.15 194.7 138.7 194.1 138.6 191.5 138.2 190.85 138.1 179.9 136.6 Q162.75 134.6 145.6 134.45 129.15 137.9 132.8 154.85 183.0 150.6 237.3 156.5 L234.75 147.45 229.9 146.4 229.55 146.3 223.5 144.7 218.15 143.4 M237.3 156.5 Q263.55 148.85 289.75 150.7 L286.95 137.65 286.55 137.7 266.95 139.7 265.65 139.9 258.25 141.25 245.7 144.45 244.15 144.9 243.1 145.25 240.0 146.3 Q238.3 147.8 234.75 147.45 M191.5 138.2 Q177.6 123.05 169.3 107.9 M154.05 110.85 Q163.4 124.7 179.9 136.6 M242.8 187.6 L293.3 187.3 Q293.75 182.7 293.8 178.1 L293.8 177.8 293.8 177.5 293.45 170.2 293.3 168.5 Q267.55 166.25 241.8 172.4 242.9 179.3 242.8 186.8 L242.8 187.25 242.8 187.6 156.65 189.55 165.15 195.9 Q170.5 199.75 182.15 199.95 193.4 200.15 210.4 197.0 224.25 194.45 238.55 193.9 257.65 193.1 277.5 195.9 L283.05 197.0 293.3 187.3 M310.65 147.2 L292.0 159.8 Q292.85 164.15 293.3 168.5 L293.45 170.2 M286.95 137.65 L292.2 131.05 M268.7 116.05 Q268.15 130.25 260.35 140.8 L262.0 140.5 265.7 139.85 Q277.6 130.95 279.1 122.1 M244.15 144.9 L244.2 144.9 243.1 145.25 M245.7 144.45 L244.75 144.7 244.2 144.9 M260.35 140.8 L259.05 141.05 258.25 141.25 M266.95 139.7 L265.7 139.85 265.65 139.9 M289.75 150.7 L289.85 151.0 290.25 152.4 292.0 159.8 M293.8 178.1 L313.55 166.3 M314.15 183.75 Q302.3 191.9 283.05 197.0 282.1 202.25 278.85 207.45 267.65 204.75 253.05 204.15 246.6 203.9 239.45 204.05 L214.1 205.75 Q186.1 208.65 150.4 216.5 L150.25 216.5 150.35 216.25 Q152.9 209.25 154.5 202.3 119.45 197.55 84.4 185.85 M87.7 162.45 L144.65 180.6 Q189.2 168.4 241.8 172.4 M145.6 134.45 L127.55 118.95 M95.05 137.15 Q115.25 142.6 132.8 154.85 M154.5 202.3 Q155.95 195.9 156.65 189.55 L144.65 180.6 M141.8 234.75 Q109.95 238.15 86.25 225.25 M84.25 207.05 Q114.55 217.05 148.45 221.1 M145.1 265.2 Q116.35 273.4 87.7 268.9 M79.65 245.3 Q110.2 256.35 146.8 248.1 M146.8 292.85 Q132.0 305.2 117.15 305.65 M101.3 289.35 Q123.95 288.65 145.35 280.3 M113.85 337.75 L134.35 343.85 Q138.85 346.45 143.05 347.2 L144.65 347.4 148.5 347.2 148.55 347.2 Q152.05 346.55 155.2 344.45 L155.6 344.2 156.4 343.7 156.6 343.4 Q158.8 341.65 160.85 339.1 L166.25 333.95 173.75 328.15 M115.85 320.0 Q144.7 322.2 162.15 301.75 M177.5 310.6 L167.75 317.9 Q145.3 341.8 114.5 332.4 M152.9 358.4 L148.5 347.25 148.5 347.2 M139.7 354.85 L134.35 343.85 M311.4 210.1 L310.45 214.85 Q291.45 227.95 270.75 224.75 L270.25 229.2 269.6 242.75 Q296.25 243.75 322.95 230.35 M319.6 255.15 Q298.5 264.65 274.4 264.2 M269.8 256.0 L269.6 246.15 230.3 246.75 Q201.85 247.35 162.1 243.45 M162.15 231.45 Q185.15 228.45 203.65 226.9 L233.1 225.35 258.9 226.55 Q265.7 227.45 270.25 229.2 M270.75 224.75 Q271.3 219.95 272.2 215.75 L275.95 211.55 Q295.15 210.15 312.85 201.15 M258.9 226.55 L258.9 233.95 M269.6 242.75 L269.6 244.05 269.6 246.15 M318.4 273.55 Q303.95 280.0 284.1 279.8 M292.6 292.45 Q305.45 295.7 318.3 291.8 M215.15 204.65 L214.1 205.75 M238.55 193.9 Q241.85 198.45 239.95 202.95 L239.45 204.05 M230.3 246.75 L233.1 225.35 M202.3 233.2 L203.65 226.9 M166.25 333.95 L166.0 338.95 M302.95 326.0 L300.8 324.75 296.4 324.35 296.35 324.35 294.2 321.6 Q291.8 319.25 289.6 319.8 L284.3 327.1 283.5 328.15 292.6 332.65 302.25 337.45 309.75 341.2 314.35 341.2 328.3 341.2 M284.3 327.1 L283.5 328.1 M302.25 337.45 L299.65 346.3 M288.65 341.25 L292.6 332.65 M313.85 351.6 Q312.0 348.0 314.35 341.2" fill="none" stroke="#000000" stroke-linecap="round" stroke-linejoin="round" stroke-width="1.0"/>
  </g>
</svg>
