<?xml version="1.0" encoding="UTF-8" standalone="no"?>
<svg xmlns:xlink="http://www.w3.org/1999/xlink" height="45.2px" width="112.5px" xmlns="http://www.w3.org/2000/svg">
  <g transform="matrix(1.0, 0.0, 0.0, 1.0, -160.2, -201.45)">
    <path d="M161.2 224.8 Q161.85 228.1 162.15 231.45 162.65 237.45 162.1 243.45" fill="none" stroke="#000000" stroke-linecap="round" stroke-linejoin="round" stroke-width="2.0"/>
    <path d="M255.35 208.45 L258.9 214.75 258.9 233.95 M211.95 207.95 L206.5 213.55 202.3 233.2 M269.6 246.15 L270.25 229.2 270.75 224.75 Q271.3 219.95 272.2 215.75 M239.45 204.05 L234.8 213.75 231.3 239.15" fill="none" stroke="#000000" stroke-linecap="round" stroke-linejoin="round" stroke-width="1.0"/>
    <path d="M272.2 215.75 L255.35 208.45 240.3 201.95 Q225.8 204.45 211.95 207.95 185.45 214.6 161.2 224.8" fill="none" stroke="#000000" stroke-linecap="round" stroke-linejoin="round" stroke-width="1.0"/>
  </g>
</svg>
