<?xml version="1.0" encoding="UTF-8" standalone="no"?>
<svg xmlns:xlink="http://www.w3.org/1999/xlink" height="103.05px" width="29.65px" xmlns="http://www.w3.org/2000/svg">
  <g transform="matrix(1.0, 0.0, 0.0, 1.0, -221.9, -144.3)">
    <path d="M222.4 246.85 Q223.55 219.65 229.7 194.45 L229.75 194.45 235.6 187.85 Q234.35 165.95 227.35 145.7 L229.55 146.3 Q237.2 148.75 240.0 146.3 L244.5 144.8 Q251.3 165.85 251.05 187.55 L245.9 193.75 245.8 193.85 245.85 193.75 245.8 193.75 Q240.4 220.6 239.65 246.6 M237.3 156.5 Q243.1 170.35 242.8 187.25 L242.8 187.6 238.55 193.9 Q242.15 193.75 245.8 193.75 245.85 193.25 245.85 193.75 L245.9 193.75 M238.55 193.9 L229.75 194.45 M231.1 239.1 L234.8 213.75 239.95 202.95" fill="none" stroke="#000000" stroke-linecap="round" stroke-linejoin="round" stroke-width="1.0"/>
  </g>
</svg>
