<?xml version="1.0" encoding="UTF-8" standalone="no"?>
<svg xmlns:xlink="http://www.w3.org/1999/xlink" height="109.85px" width="151.55px" xmlns="http://www.w3.org/2000/svg">
  <g transform="matrix(1.0, 0.0, 0.0, 1.0, -131.7, -260.65)">
    <path d="M158.2 260.65 Q171.95 261.2 186.05 265.85 192.3 267.9 198.6 270.8 L199.4 271.15 203.05 272.9 227.45 274.75 Q242.85 275.45 256.4 274.8 260.05 272.7 263.0 270.5 267.8 266.95 270.9 263.25 L272.2 269.65 274.95 283.75 Q252.15 296.2 221.4 299.05 182.25 291.7 150.8 278.6 L155.3 267.65 158.2 260.65 M221.8 338.7 Q223.15 342.0 224.85 345.25 270.7 356.85 283.25 339.0 L276.45 355.35 272.1 361.6 Q257.8 371.2 218.15 359.1 L216.85 347.8 221.8 338.7 M131.7 363.1 L132.9 350.4 139.7 354.85 Q144.85 361.8 152.9 358.4 L152.9 358.45 154.4 362.6 165.9 360.1 Q165.65 354.35 165.7 348.65 179.75 353.85 196.0 348.65 L187.6 362.5 Q184.65 366.25 182.15 370.05 155.9 372.4 131.7 363.1 M205.9 331.0 Q191.6 333.25 173.75 328.15 L177.5 310.6 162.2 301.75 Q189.85 310.95 215.45 312.1 255.55 312.05 278.4 301.65 L282.4 322.3 Q262.4 332.7 218.8 330.5 215.95 321.3 215.45 312.1 210.95 321.5 205.9 331.0" fill="#000000" fill-rule="evenodd" stroke="none"/>
  </g>
</svg>
