<?xml version="1.0" encoding="UTF-8" standalone="no"?>
<svg xmlns:xlink="http://www.w3.org/1999/xlink" height="120.7px" width="70.7px" xmlns="http://www.w3.org/2000/svg">
  <g transform="matrix(1.0, 0.0, 0.0, 1.0, -214.45, -245.65)">
    <path d="M269.8 256.0 Q269.85 257.9 270.9 263.25 L272.2 269.65 283.5 328.1 283.5 328.15 Q284.9 333.55 283.25 339.0 L276.45 355.35 272.1 361.6 M218.15 359.1 L216.85 347.8 221.8 338.7 Q220.05 334.6 218.8 330.5 215.95 321.3 215.45 312.1" fill="none" stroke="#000000" stroke-linecap="round" stroke-linejoin="round" stroke-width="2.0"/>
    <path d="M283.5 328.1 L284.3 327.1 M269.6 246.15 L269.8 256.0 M215.45 312.1 L221.4 299.05 226.05 288.05 249.15 278.65 M221.8 338.7 Q223.15 342.0 224.85 345.25" fill="none" stroke="#000000" stroke-linecap="round" stroke-linejoin="round" stroke-width="1.0"/>
    <path d="M272.1 361.6 Q257.8 371.2 218.15 359.1" fill="none" stroke="#000000" stroke-linecap="round" stroke-linejoin="round" stroke-width="1.0"/>
    <path d="M226.05 288.05 L227.45 274.75 230.3 246.75" fill="none" stroke="#000000" stroke-linecap="round" stroke-linejoin="round" stroke-width="1.0"/>
  </g>
</svg>
