<?xml version="1.0" encoding="UTF-8" standalone="no"?>
<svg xmlns:xlink="http://www.w3.org/1999/xlink" height="213.35px" width="64.7px" xmlns="http://www.w3.org/2000/svg">
  <g transform="matrix(1.0, 0.0, 0.0, 1.0, -138.8, -244.75)">
    <path d="M180.35 337.75 L178.75 339.65 Q176.5 341.7 173.25 341.5 170.05 341.25 166.0 338.95 L165.9 338.95 165.7 348.65 Q165.65 354.35 165.9 360.1 L154.4 362.6 152.9 358.45 152.9 358.4 Q150.5 359.4 148.35 359.5 M142.05 455.0 Q152.0 457.15 164.2 457.1 169.05 455.5 172.4 453.4 M180.35 337.75 L173.75 328.15 177.5 310.6 162.2 301.75" fill="none" stroke="#000000" stroke-linecap="round" stroke-linejoin="round" stroke-width="2.0"/>
    <path d="M148.35 359.5 L141.4 398.75 Q136.85 426.2 142.05 455.0 M172.4 453.4 Q160.1 426.45 157.2 399.55 165.0 367.65 180.35 337.75 L203.0 246.4 M162.2 301.75 L182.65 245.25" fill="none" stroke="#000000" stroke-linecap="round" stroke-linejoin="round" stroke-width="1.0"/>
  </g>
</svg>
