<?xml version="1.0" encoding="UTF-8" standalone="no"?>
<svg xmlns:xlink="http://www.w3.org/1999/xlink" height="152.45px" width="183.4px" xmlns="http://www.w3.org/2000/svg">
  <g transform="matrix(1.0, 0.0, 0.0, 1.0, -118.8, -304.65)">
    <path d="M152.9 358.4 L152.9 358.45 154.4 362.6 165.9 360.1 165.8 357.3 165.75 354.05 Q165.65 351.35 165.7 348.65 L165.7 346.35 165.9 338.95 166.0 338.95 Q170.05 341.25 173.25 341.5 176.5 341.7 178.75 339.65 L180.35 337.75 173.75 328.15 177.5 310.6 169.45 305.95 175.75 304.65 193.6 326.75 187.15 341.5 Q193.25 344.9 195.15 350.1 L195.15 350.15 187.85 367.55 184.45 368.0 176.35 387.1 172.6 387.95 170.9 392.7 Q167.8 402.2 167.4 411.65 L177.4 433.95 178.05 435.6 Q182.15 447.0 172.4 453.4 169.15 455.45 164.5 457.05 L164.2 457.1 161.15 457.1 154.65 456.8 150.6 456.4 150.25 456.35 142.05 455.0 Q128.25 452.05 118.8 444.8 118.8 441.4 119.1 438.05 120.25 424.0 125.85 409.95 L122.3 400.55 128.75 393.55 130.05 379.95 126.0 377.65 131.55 358.8 128.7 357.4 130.3 348.65 139.7 354.85 142.0 357.3 Q144.35 359.3 147.25 359.5 L148.35 359.5 Q150.5 359.4 152.9 358.4 M235.55 340.75 Q241.85 341.35 246.75 341.05 L242.15 331.0 257.25 320.2 272.25 307.15 286.8 318.65 Q291.2 334.2 284.5 350.85 L280.15 352.3 274.15 367.35 269.0 369.2 263.8 384.6 258.1 386.1 256.85 388.7 256.6 389.2 255.95 390.6 264.1 397.35 Q270.6 402.35 278.5 407.4 282.85 410.2 287.7 413.0 L293.25 416.6 Q299.75 421.55 301.55 427.3 302.1 429.05 302.2 430.95 L286.75 433.05 286.15 433.1 Q257.75 435.25 236.4 424.1 224.85 425.15 216.05 421.3 L216.5 416.25 Q217.5 407.7 220.3 399.65 L218.65 398.05 221.2 385.5 220.0 375.1 212.8 372.45 Q212.2 362.55 215.45 354.8 L213.4 354.0 Q214.2 343.55 221.8 338.7 L229.05 339.95 235.55 340.75 M144.75 449.5 L143.75 449.3 143.7 449.3 144.75 449.5" fill="#000000" fill-rule="evenodd" stroke="none"/>
  </g>
</svg>
