<?xml version="1.0" encoding="UTF-8" standalone="no"?>
<svg xmlns:xlink="http://www.w3.org/1999/xlink" height="40.85px" width="183.4px" xmlns="http://www.w3.org/2000/svg">
  <g transform="matrix(1.0, 0.0, 0.0, 1.0, -118.8, -416.25)">
    <path d="M295.5 427.75 L301.55 427.3 Q302.1 429.05 302.2 430.95 L286.75 433.05 286.15 433.1 Q257.75 435.25 236.4 424.1 224.85 425.15 216.05 421.3 L216.5 416.25 Q226.4 419.95 237.0 419.15 252.85 427.6 278.3 428.2 286.4 428.35 295.5 427.75 M164.2 457.1 L161.15 457.1 154.65 456.8 150.6 456.4 150.25 456.35 142.05 455.0 Q128.25 452.05 118.8 444.8 118.8 441.4 119.1 438.05 128.75 446.45 144.75 449.5 152.1 450.9 160.85 451.2 L163.7 451.25 Q176.85 447.55 178.05 435.6 182.15 447.0 172.4 453.4 169.15 455.45 164.5 457.05 L164.2 457.1" fill="#000000" fill-rule="evenodd" stroke="none"/>
  </g>
</svg>
