<?xml version="1.0" encoding="UTF-8" standalone="no"?>
<svg xmlns:xlink="http://www.w3.org/1999/xlink" height="157.35px" width="160.45px" xmlns="http://www.w3.org/2000/svg">
  <g transform="matrix(1.0, 0.0, 0.0, 1.0, -123.7, -243.45)">
    <path d="M155.3 267.65 L158.2 260.65 Q161.25 252.0 162.1 243.45 201.85 247.35 230.3 246.75 L269.6 246.15 269.8 256.0 Q269.85 257.9 270.9 263.25 L272.2 269.65 283.5 328.1 283.5 328.15 Q284.9 333.55 283.25 339.0 L276.45 355.35 260.15 390.25 257.0 392.1 Q252.85 394.25 248.45 395.25 243.7 396.8 237.6 396.1 229.2 395.6 219.9 391.6 L216.0 389.8 216.85 347.8 221.8 338.7 Q216.15 325.4 215.45 312.1 203.55 336.95 187.6 362.5 178.35 378.55 174.5 397.3 L169.35 398.75 Q146.6 404.25 127.1 394.95 L123.7 393.2 Q125.8 369.95 132.9 350.4 L139.7 354.85 Q144.85 361.8 152.9 358.4 L152.9 358.45 154.4 362.6 165.9 360.1 Q165.45 349.5 165.9 338.95 L166.0 338.95 Q170.05 341.25 173.25 341.5 176.5 341.7 178.75 339.65 L180.35 337.75 173.75 328.15 177.5 310.6 146.8 292.85 146.3 289.6 155.3 267.65" fill="#000000" fill-rule="evenodd" stroke="none"/>
  </g>
</svg>
