<?xml version="1.0" encoding="UTF-8" standalone="no"?>
<svg xmlns:xlink="http://www.w3.org/1999/xlink" height="56.45px" width="63.1px" xmlns="http://www.w3.org/2000/svg">
  <g transform="matrix(1.0, 0.0, 0.0, 1.0, -281.2, -299.9)">
    <path d="M327.4 300.9 Q307.6 313.2 287.75 303.1 L285.95 308.05 283.55 316.25 M283.5 328.05 L289.5 319.8 Q291.7 319.25 294.15 321.6 L296.35 324.4 Q298.75 324.0 300.75 324.75 301.9 325.15 302.95 326.0 303.7 315.05 311.55 312.55 L321.25 312.15 M328.25 341.2 L314.3 341.2 Q311.9 348.05 313.75 351.6 M288.55 341.3 L296.35 324.4 M324.7 320.75 L323.55 330.6 Q317.45 330.0 314.0 331.45 309.9 333.15 309.55 337.95 309.35 339.45 309.7 341.2 L314.3 341.2 M314.0 331.45 Q310.75 325.8 304.85 328.2 L299.6 346.35 M304.85 328.2 Q304.0 326.85 302.95 326.0" fill="none" stroke="#000000" stroke-linecap="round" stroke-linejoin="round" stroke-width="1.0"/>
    <path d="M328.25 341.2 L333.4 341.2 Q335.8 326.1 343.3 316.55 L327.4 300.9 M283.55 316.25 L282.2 322.3 283.5 328.05 283.5 328.1 Q284.9 333.55 283.2 339.1 285.1 340.7 288.55 341.3 289.85 345.0 292.35 346.35 295.1 347.85 299.6 346.35 300.85 350.75 303.7 352.45 307.35 354.55 313.75 351.6 315.25 354.55 319.65 355.3 327.1 355.9 328.45 348.55 L328.25 341.2" fill="none" stroke="#000000" stroke-linecap="round" stroke-linejoin="round" stroke-width="2.0"/>
  </g>
</svg>
