<?xml version="1.0" encoding="UTF-8" standalone="no"?>
<svg xmlns:xlink="http://www.w3.org/1999/xlink" height="60.0px" width="234.3px" xmlns="http://www.w3.org/2000/svg">
  <g transform="matrix(1.0, 0.0, 0.0, 1.0, -87.45, -245.65)">
    <path d="M102.3 252.2 L104.2 251.6 Q114.55 248.6 124.25 255.7 132.15 261.55 145.1 265.2 146.95 268.3 145.0 270.3 132.1 268.75 122.55 261.7 113.35 256.0 106.15 257.55 103.8 258.0 101.65 259.25 99.15 261.0 96.85 264.3 93.9 268.55 91.25 275.35 86.5 274.7 87.7 268.9 90.35 262.65 93.95 258.5 97.6 254.25 102.3 252.2 M146.8 292.85 Q137.4 300.7 127.95 303.75 L121.8 305.25 117.15 305.65 Q111.75 305.45 112.05 300.9 L120.1 299.8 125.85 298.05 Q135.85 294.35 145.85 286.05 147.75 287.55 148.0 289.25 148.2 290.95 146.8 292.85 M292.6 292.45 Q287.8 291.35 289.5 287.9 L304.25 288.6 311.3 288.1 Q315.7 287.5 318.2 286.15 321.05 289.25 318.3 291.8 L311.25 293.4 304.25 293.95 Q298.4 293.9 292.6 292.45 M277.7 269.65 Q273.25 267.45 274.4 264.2 L274.45 264.2 Q292.55 263.15 306.25 256.05 L313.4 251.65 Q317.2 248.95 320.6 245.65 323.25 247.7 319.8 253.05 316.6 255.95 312.75 258.45 L305.6 262.3 Q293.95 267.55 277.7 269.65" fill="#000000" fill-rule="evenodd" stroke="none"/>
  </g>
</svg>
