<?xml version="1.0" encoding="UTF-8" standalone="no"?>
<svg xmlns:xlink="http://www.w3.org/1999/xlink" height="50.75px" width="237.1px" xmlns="http://www.w3.org/2000/svg">
  <g transform="matrix(1.0, 0.0, 0.0, 1.0, -84.9, -229.55)">
    <path d="M98.7 240.25 Q100.05 245.35 99.1 249.45 L98.9 250.25 Q98.45 251.9 97.65 252.95 96.8 254.0 95.55 254.35 93.6 254.9 91.55 253.45 L89.9 251.9 Q88.3 250.15 87.15 247.7 86.3 245.9 85.7 243.7 84.4 238.55 85.2 234.45 86.2 230.25 88.9 229.65 L89.75 229.55 Q91.75 229.45 93.8 231.35 L94.45 232.0 Q97.35 235.1 98.7 240.25 M145.35 280.3 L133.6 277.15 131.25 255.5 146.8 248.1 Q145.4 256.65 145.1 265.2 144.8 272.75 145.35 280.3 M322.0 236.05 Q320.5 245.6 319.6 255.15 318.7 264.35 318.4 273.55 L302.8 271.8 299.5 248.0 322.0 236.0 322.0 236.05" fill="#000000" fill-rule="evenodd" stroke="none"/>
  </g>
</svg>
