<?xml version="1.0" encoding="UTF-8" standalone="no"?>
<svg xmlns:xlink="http://www.w3.org/1999/xlink" height="65.5px" width="63.05px" xmlns="http://www.w3.org/2000/svg">
  <g transform="matrix(1.0, 0.0, 0.0, 1.0, -281.25, -290.85)">
    <path d="M318.35 291.85 L328.0 301.4 343.3 316.55 Q335.85 326.1 333.45 341.2 L328.3 341.2 328.5 348.55 Q327.15 355.9 319.7 355.3 315.3 354.55 313.8 351.6 307.4 354.55 303.75 352.45 300.9 350.75 299.65 346.35 295.15 347.85 292.4 346.35 289.9 345.0 288.6 341.3 285.1 340.7 283.2 339.05 284.9 333.55 283.5 328.15 L283.5 328.1 282.25 322.3 283.6 316.25 286.0 308.05 Q286.5 306.25 287.25 304.55 289.45 298.5 292.6 292.5 L293.4 292.65 Q305.5 295.5 317.65 292.0 L318.3 291.85 318.35 291.85 M324.75 320.75 Q333.25 314.85 343.3 316.55 333.25 314.85 324.75 320.75 L323.6 330.6 324.75 320.75 321.25 312.15 321.15 312.15 311.6 312.55 Q309.85 313.1 308.45 314.15 303.55 317.5 303.0 326.0 303.55 317.5 308.45 314.15 309.85 313.1 311.6 312.55 L321.15 312.15 321.25 312.15 324.75 320.75 M287.25 304.55 Q295.55 302.45 303.55 301.55 L313.2 300.7 328.0 301.4 313.2 300.7 303.55 301.55 Q295.55 302.45 287.25 304.55 M333.45 341.2 L323.6 330.6 333.45 341.2 M314.35 341.2 L328.3 341.2 314.35 341.2 Q311.95 348.05 313.8 351.6 311.95 348.05 314.35 341.2 L309.7 341.2 Q309.4 339.45 309.6 337.95 309.95 333.15 314.05 331.45 309.95 333.15 309.6 337.95 309.4 339.45 309.7 341.2 L314.35 341.2 M299.65 346.35 L304.9 328.2 Q304.05 326.85 303.0 326.0 301.95 325.15 300.8 324.75 L296.4 324.4 294.2 321.6 Q291.75 319.25 289.55 319.8 L283.5 328.1 289.55 319.8 Q291.75 319.25 294.2 321.6 L296.4 324.4 300.8 324.75 Q301.95 325.15 303.0 326.0 304.05 326.85 304.9 328.2 310.75 325.8 314.05 331.45 317.5 330.0 323.6 330.6 317.5 330.0 314.05 331.45 310.75 325.8 304.9 328.2 L299.65 346.35 M296.4 324.4 L288.6 341.3 296.4 324.4" fill="url(#gradient0)" fill-rule="evenodd" stroke="none"/>
    <path d="M318.35 291.85 L328.0 301.4 343.3 316.55 Q335.85 326.1 333.45 341.2 L328.3 341.2 328.5 348.55 Q327.15 355.9 319.7 355.3 315.3 354.55 313.8 351.6 307.4 354.55 303.75 352.45 300.9 350.75 299.65 346.35 295.15 347.85 292.4 346.35 289.9 345.0 288.6 341.3 285.1 340.7 283.2 339.05 284.9 333.55 283.5 328.15 L283.5 328.1 282.25 322.3 283.6 316.25" fill="none" stroke="#000000" stroke-linecap="round" stroke-linejoin="round" stroke-width="2.0"/>
    <path d="M343.3 316.55 Q333.25 314.85 324.75 320.75 L321.25 312.15 321.15 312.15 311.6 312.55 Q309.85 313.1 308.45 314.15 303.55 317.5 303.0 326.0 M323.6 330.6 L333.45 341.2 M328.0 301.4 L313.2 300.7 303.55 301.55 Q295.55 302.45 287.25 304.55" fill="none" stroke="#000000" stroke-linecap="round" stroke-linejoin="round" stroke-opacity="0.2509804" stroke-width="1.0"/>
    <path d="M283.6 316.25 L286.0 308.05 Q286.5 306.25 287.25 304.55 289.45 298.5 292.6 292.5 L293.4 292.65 Q305.5 295.5 317.65 292.0 L318.3 291.85 318.35 291.85 M324.75 320.75 L323.6 330.6 Q317.5 330.0 314.05 331.45 310.75 325.8 304.9 328.2 L299.65 346.35 M283.5 328.1 L289.55 319.8 Q291.75 319.25 294.2 321.6 L296.4 324.4 300.8 324.75 Q301.95 325.15 303.0 326.0 304.05 326.85 304.9 328.2 M288.6 341.3 L296.4 324.4 M313.8 351.6 Q311.95 348.05 314.35 341.2 L309.7 341.2 Q309.4 339.45 309.6 337.95 309.95 333.15 314.05 331.45 M328.3 341.2 L314.35 341.2" fill="none" stroke="#000000" stroke-linecap="round" stroke-linejoin="round" stroke-width="1.0"/>
    <path d="M343.3 316.55 Q333.25 314.85 324.75 320.75 L321.25 312.15 321.15 312.15 311.6 312.55 310.85 312.85 306.65 301.15 313.2 300.7 314.95 300.7 313.2 300.7 306.65 301.15 304.25 294.55 304.25 293.95 309.25 293.65 311.25 293.4 311.25 294.1 314.95 300.7 328.0 301.4 343.3 316.55" fill="#ffffff" fill-opacity="0.2509804" fill-rule="evenodd" stroke="none"/>
    <path d="M310.85 312.85 L311.6 312.55 321.15 312.15 321.25 312.15 324.75 320.75 Q333.25 314.85 343.3 316.55 M328.0 301.4 L314.95 300.7 313.2 300.7 306.65 301.15 303.55 301.55 297.65 302.35 Q292.5 303.2 287.25 304.55 M310.85 312.85 Q309.55 313.35 308.45 314.15 303.55 317.5 303.0 326.0 M333.45 341.2 L323.6 330.6" fill="none" stroke="#000000" stroke-linecap="round" stroke-linejoin="round" stroke-opacity="0.2509804" stroke-width="1.0"/>
    <path d="M343.3 316.55 L328.0 301.4 318.35 291.85 M343.3 316.55 Q335.85 326.1 333.45 341.2 L328.3 341.2 328.5 348.55 Q327.15 355.9 319.7 355.3 315.3 354.55 313.8 351.6 307.4 354.55 303.75 352.45 300.9 350.75 299.65 346.35 295.15 347.85 292.4 346.35 289.9 345.0 288.6 341.3 285.1 340.7 283.2 339.05 284.9 333.55 283.5 328.15 L283.5 328.1 282.25 322.3 283.6 316.25" fill="none" stroke="#000000" stroke-linecap="round" stroke-linejoin="round" stroke-width="2.0"/>
    <path d="M303.0 326.0 Q304.05 326.85 304.9 328.2 310.75 325.8 314.05 331.45 317.5 330.0 323.6 330.6 L324.75 320.75 M283.6 316.25 L286.0 308.05 Q286.5 306.25 287.25 304.55 289.45 298.5 292.6 292.5 L293.15 292.6 301.05 293.8 304.25 293.95 309.25 293.65 311.25 293.4 317.65 292.0 318.3 291.85 318.35 291.85 M283.5 328.1 L289.55 319.8 Q291.75 319.25 294.2 321.6 L296.4 324.4 300.8 324.75 Q301.95 325.15 303.0 326.0 M288.6 341.3 L296.4 324.4 M313.8 351.6 Q311.95 348.05 314.35 341.2 L309.7 341.2 Q309.4 339.45 309.6 337.95 309.95 333.15 314.05 331.45 M299.65 346.35 L304.9 328.2 M328.3 341.2 L314.35 341.2" fill="none" stroke="#000000" stroke-linecap="round" stroke-linejoin="round" stroke-width="1.0"/>
  </g>
  <defs>
    <linearGradient gradientTransform="matrix(-0.0195, 0.0, 0.0, -0.0142, 318.95, 238.3)" gradientUnits="userSpaceOnUse" id="gradient0" spreadMethod="pad" x1="-819.2" x2="819.2">
      <stop offset="0.0" stop-color="#000000" stop-opacity="0.0"/>
      <stop offset="1.0" stop-color="#000000" stop-opacity="0.2509804"/>
    </linearGradient>
  </defs>
</svg>
