<?xml version="1.0" encoding="UTF-8" standalone="no"?>
<svg xmlns:xlink="http://www.w3.org/1999/xlink" height="142.4px" width="162.5px" xmlns="http://www.w3.org/2000/svg">
  <g transform="matrix(1.0, 0.0, 0.0, 1.0, -131.3, -104.45)">
    <path d="M209.5 114.45 L209.05 122.9 Q212.05 126.3 215.6 129.55 L219.4 132.85 223.75 136.35 244.45 136.35 248.0 132.1 249.15 114.0 Q251.65 111.7 252.25 108.2 L257.1 110.35 259.05 111.25 262.0 112.65 271.4 117.55 Q277.15 114.95 281.05 123.3 L289.75 150.7 290.35 152.85 292.0 159.8 Q294.7 173.55 293.3 187.3 L283.05 197.0 Q281.35 206.4 272.2 215.75 269.5 228.45 269.6 246.15 L230.3 246.75 Q212.3 247.15 189.75 245.7 L162.1 243.45 Q162.95 234.1 161.2 224.8 157.05 223.7 154.1 221.2 151.8 219.25 150.25 216.5 155.2 203.0 156.65 189.55 L156.65 185.9 Q155.95 153.8 143.85 133.15 138.6 124.25 131.3 117.5 133.7 111.8 141.0 114.3 163.1 107.65 190.85 105.3 L194.1 105.0 202.55 104.45 200.35 106.8 209.5 114.45" fill="#000000" fill-rule="evenodd" stroke="none"/>
  </g>
</svg>
