<?xml version="1.0" encoding="UTF-8" standalone="no"?>
<svg xmlns:xlink="http://www.w3.org/1999/xlink" height="140.05px" width="230.4px" xmlns="http://www.w3.org/2000/svg">
  <g transform="matrix(1.0, 0.0, 0.0, 1.0, -87.15, -107.3)">
    <path d="M88.25 133.45 L97.1 135.6 95.05 137.15 Q93.05 142.5 91.45 147.9 87.6 140.65 88.25 133.45" fill="#000000" fill-opacity="0.2509804" fill-rule="evenodd" stroke="none"/>
    <path d="M145.6 134.45 Q168.25 134.65 190.85 138.1 L194.1 138.6 195.95 138.9 Q184.1 122.3 167.05 108.3 M88.25 133.45 L97.1 135.6 Q151.0 149.55 161.0 172.05 168.5 186.2 173.45 199.15 L182.15 199.95 Q193.4 200.15 210.4 197.0 L220.15 195.5 Q214.05 164.15 195.95 138.9 M293.55 132.1 L293.8 132.3 M311.1 149.35 L293.15 167.0 293.15 167.05 Q271.85 201.5 265.35 246.25 M239.65 246.6 Q252.4 219.35 259.0 194.05 266.35 165.65 266.0 139.8 265.8 126.25 263.45 113.35 M259.0 194.05 L277.5 195.9 M293.15 167.0 L292.0 159.8 290.35 152.85 289.75 150.7 M266.0 139.8 Q275.85 138.25 286.95 137.65 M173.45 199.15 Q183.0 224.4 182.65 245.25 M222.4 246.85 Q224.75 219.4 220.15 195.5" fill="none" stroke="#000000" stroke-linecap="round" stroke-linejoin="round" stroke-width="1.0"/>
    <path d="M167.05 108.3 Q151.1 111.0 137.4 115.45 107.35 121.7 88.25 133.45 87.6 140.65 91.45 147.9 93.05 142.5 95.05 137.15 L97.1 135.6 M293.8 132.3 L316.55 144.45 311.1 149.35 M263.45 113.35 Q279.75 121.45 293.55 132.1" fill="none" stroke="#000000" stroke-linecap="round" stroke-linejoin="round" stroke-width="2.0"/>
  </g>
</svg>
