<?xml version="1.0" encoding="UTF-8" standalone="no"?>
<svg xmlns:xlink="http://www.w3.org/1999/xlink" height="18.65px" width="35.4px" xmlns="http://www.w3.org/2000/svg">
  <g transform="matrix(1.0, 0.0, 0.0, 1.0, -216.1, -239.35)">
    <path d="M251.1 247.3 Q251.55 248.4 251.5 249.7 L250.85 251.95 Q249.45 254.25 245.85 255.9 L244.7 256.4 241.65 257.35 233.2 257.95 Q228.25 257.65 224.45 256.2 L224.1 256.05 220.85 254.5 Q217.45 252.45 216.5 250.15 216.0 248.95 216.1 247.65 216.25 245.7 217.7 244.15 219.05 242.65 221.65 241.45 223.0 240.85 224.55 240.4 L225.05 240.25 Q229.2 239.1 234.4 239.4 238.15 239.6 241.25 240.55 L243.65 241.35 246.65 242.85 Q250.05 244.9 251.1 247.3" fill="#000000" fill-rule="evenodd" stroke="none"/>
  </g>
</svg>
