<?xml version="1.0" encoding="UTF-8" standalone="no"?>
<svg xmlns:xlink="http://www.w3.org/1999/xlink" height="69.5px" width="45.8px" xmlns="http://www.w3.org/2000/svg">
  <g transform="matrix(1.0, 0.0, 0.0, 1.0, -150.2, -237.45)">
    <path d="M153.45 239.25 Q154.4 238.65 155.85 238.2 157.05 237.75 158.6 237.45 L161.8 237.7 162.4 237.75 164.65 238.0 Q176.1 239.05 186.0 241.15 L190.05 242.1 Q194.65 242.7 195.7 246.3 196.1 247.75 195.95 249.75 L194.45 254.4 194.05 255.7 189.9 267.75 Q184.15 283.05 176.55 298.15 L174.45 302.25 173.5 304.05 Q172.5 305.7 171.2 306.95 L151.6 295.6 152.95 286.2 154.9 288.0 154.95 289.8 154.95 288.1 156.75 289.8 158.45 286.0 153.2 283.3 153.35 279.45 Q149.65 276.6 150.3 271.35 151.9 258.0 151.15 244.65 L151.0 244.05 150.95 242.65 Q151.15 240.6 153.45 239.25 M153.75 271.5 Q155.75 272.8 157.8 273.3 L159.8 273.55 161.8 273.4 164.3 272.5 Q164.65 266.35 162.15 262.0 L160.1 259.2 Q154.55 264.75 153.75 271.5" fill="#000000" fill-rule="evenodd" stroke="none"/>
  </g>
</svg>
