<?xml version="1.0" encoding="UTF-8" standalone="no"?>
<svg xmlns:xlink="http://www.w3.org/1999/xlink" height="37.25px" width="46.15px" xmlns="http://www.w3.org/2000/svg">
  <g transform="matrix(1.0, 0.0, 0.0, 1.0, -210.1, -226.75)">
    <path d="M242.7 250.8 L242.2 249.9 Q235.6 242.4 228.35 247.45 226.65 248.8 225.5 250.45 L218.35 250.2 223.5 243.3 244.95 244.15 248.75 250.95 242.7 250.8" fill="#ffffff" fill-opacity="0.2509804" fill-rule="evenodd" stroke="none"/>
    <path d="M248.75 250.95 L255.75 263.5 242.2 262.6 Q244.0 260.2 244.25 257.55 L244.3 257.1 244.3 256.4 Q244.25 253.7 242.7 250.8 L242.2 249.9 Q235.6 242.4 228.35 247.45 226.65 248.8 225.5 250.45 223.65 252.85 223.25 255.85 L223.2 256.05 223.2 256.15 Q222.85 258.55 223.4 261.4 L210.6 260.5 218.35 250.2 223.5 243.3 235.45 227.25 244.95 244.15 248.75 250.95 Z" fill="none" stroke="#000000" stroke-linecap="round" stroke-linejoin="round" stroke-width="1.0"/>
  </g>
</svg>
