<?xml version="1.0" encoding="UTF-8" standalone="no"?>
<svg xmlns:xlink="http://www.w3.org/1999/xlink" height="20.35px" width="57.6px" xmlns="http://www.w3.org/2000/svg">
  <g transform="matrix(1.0, 0.0, 0.0, 1.0, -205.5, -238.7)">
    <path d="M262.6 244.5 Q261.55 246.9 258.1 247.75 257.55 250.05 254.95 250.9 L254.05 251.2 Q253.25 254.7 243.65 254.5 L242.05 256.0 241.5 256.4 240.2 257.2 Q238.0 258.25 235.5 258.45 L233.75 258.55 232.6 258.45 Q229.25 258.1 226.75 256.3 L226.5 256.15 225.6 255.45 224.15 253.8 Q214.55 253.35 214.05 249.85 L213.2 249.45 Q210.7 248.5 210.35 246.15 206.8 245.05 206.0 242.55 L224.65 243.15 226.15 241.8 228.2 240.45 228.45 240.35 Q229.45 239.9 230.6 239.65 L234.45 239.2 237.85 239.7 Q238.95 240.0 239.95 240.55 L241.0 241.15 242.55 242.35 244.0 243.9 262.6 244.5 M248.65 251.4 L254.05 251.2 M243.65 254.5 Q245.6 252.25 245.7 249.25 245.75 246.25 244.0 243.9 M258.1 247.75 L249.9 248.1 M210.35 246.15 Q213.35 247.15 218.4 247.05 M219.45 250.35 L214.05 249.85 M224.15 253.8 Q222.4 251.4 222.55 248.5 222.6 245.5 224.65 243.15" fill="none" stroke="#000000" stroke-linecap="round" stroke-linejoin="round" stroke-width="1.0"/>
    <path d="M230.6 239.65 L232.6 258.45 M237.85 239.7 L235.5 258.45" fill="none" stroke="#000000" stroke-linecap="round" stroke-linejoin="round" stroke-opacity="0.2509804" stroke-width="1.0"/>
  </g>
</svg>
