<?xml version="1.0" encoding="UTF-8" standalone="no"?>
<svg xmlns:xlink="http://www.w3.org/1999/xlink" height="7.15px" width="21.95px" xmlns="http://www.w3.org/2000/svg">
  <g transform="matrix(1.0, 0.0, 0.0, 1.0, -228.9, -101.3)">
    <path d="M234.35 102.8 L234.4 103.55 Q234.3 104.65 233.45 105.4 233.0 105.8 232.45 106.0 L232.0 106.05 231.45 106.1 231.0 106.0 230.8 105.95 229.55 105.1 Q228.8 104.2 228.9 103.1 228.95 102.05 229.7 101.35 L231.9 101.45 Q233.35 101.85 234.35 102.8 M247.2 105.6 L250.05 105.8 250.85 106.05 250.85 106.7 Q250.8 107.45 250.25 108.0 L249.3 108.45 Q247.95 108.35 247.45 107.8 246.9 107.15 247.0 106.4 L247.2 105.6" fill="#000000" fill-rule="evenodd" stroke="none"/>
  </g>
</svg>
