<?xml version="1.0" encoding="UTF-8" standalone="no"?>
<svg xmlns:xlink="http://www.w3.org/1999/xlink" height="123.15px" width="95.65px" xmlns="http://www.w3.org/2000/svg">
  <g transform="matrix(1.0, 0.0, 0.0, 1.0, -176.35, -40.8)">
    <path d="M254.2 91.0 L254.15 91.0 254.1 91.0 254.2 91.0 M255.7 54.8 Q264.8 57.4 267.65 70.5 269.7 82.6 260.5 94.75 262.5 96.65 264.6 99.5 266.65 102.3 270.4 105.2 272.85 106.7 271.6 108.4 270.4 109.35 269.1 109.7 266.95 110.25 264.5 108.85 L263.75 109.7 Q263.9 112.95 261.6 114.75 L261.0 115.1 Q256.9 122.15 254.35 125.1 259.3 125.7 263.05 129.35 258.65 128.75 256.5 130.55 260.35 133.25 262.95 137.55 L259.1 135.6 Q260.45 140.1 256.75 144.55 L252.5 140.45 Q250.75 138.8 248.9 137.8 246.25 136.25 243.5 135.95 L240.45 142.0 238.0 146.2 Q229.1 143.5 219.7 135.2 217.5 138.6 216.9 142.95 212.45 141.8 209.0 139.65 203.95 136.55 200.95 131.45 194.8 133.8 192.3 138.45 190.0 135.15 189.3 131.85 L189.2 131.4 189.45 131.3 189.15 131.3 Q188.8 129.3 189.05 127.3 184.85 127.9 180.8 132.2 182.85 125.6 186.1 121.55 182.8 119.3 176.35 119.6 183.55 113.1 191.3 110.35 L200.6 102.95 Q200.15 101.6 200.35 100.6 L198.8 101.85 Q191.6 103.95 184.45 100.35 181.85 101.25 181.5 98.6 L188.4 92.6 Q190.55 90.0 193.05 88.15 186.7 77.35 188.4 66.55 190.35 48.05 209.0 40.8 200.25 47.45 200.25 58.75 199.85 67.7 207.6 74.15 209.15 74.45 210.1 75.0 217.65 70.7 224.8 72.4 L225.3 72.4 Q230.9 74.0 236.5 74.3 238.8 74.3 240.8 75.05 243.95 76.15 246.0 79.2 L246.45 79.95 Q254.95 77.7 258.75 72.75 265.6 63.95 255.7 54.8 M209.65 88.5 L209.5 88.5 209.5 88.7 209.65 88.5 M215.05 163.9 L214.95 163.95 Q212.35 163.25 210.15 162.25 L215.05 163.9" fill="#000000" fill-rule="evenodd" stroke="none"/>
  </g>
</svg>
