<?xml version="1.0" encoding="UTF-8" standalone="no"?>
<svg xmlns:xlink="http://www.w3.org/1999/xlink" height="70.6px" width="68.05px" xmlns="http://www.w3.org/2000/svg">
  <g transform="matrix(1.0, 0.0, 0.0, 1.0, -193.9, -71.45)">
    <path d="M244.3 75.5 L248.15 75.5 Q255.6 76.1 256.85 83.35 258.35 96.5 256.55 110.1 L255.85 114.7 Q253.9 126.95 261.95 136.95 256.2 134.05 252.75 131.05 L248.35 126.7 249.15 114.0 Q251.65 111.7 252.25 108.2 252.55 106.35 252.35 104.15 L254.1 102.6 Q256.15 89.55 250.3 82.8 L241.1 85.1 228.5 84.7 225.55 85.2 Q223.7 87.55 222.5 90.1 221.25 92.7 220.35 98.1 219.7 102.15 219.3 107.75 218.3 120.7 242.05 142.05 216.8 133.4 208.15 127.25 L199.45 120.95 193.9 116.8 Q194.9 110.3 196.0 104.85 199.0 89.55 202.45 82.7 203.8 79.9 205.5 77.5 L205.7 77.15 206.7 75.85 208.85 73.35 Q210.55 72.35 212.45 72.15 L215.5 72.3 Q218.9 71.2 223.1 71.5 226.8 71.8 232.1 73.45 L238.75 74.9 244.3 75.5 M248.75 81.25 L249.15 81.6 249.35 81.8 248.75 81.25 247.55 80.3 247.5 80.3 248.75 81.25" fill="#000000" fill-rule="evenodd" stroke="none"/>
  </g>
</svg>
