<?xml version="1.0" encoding="UTF-8" standalone="no"?>
<svg xmlns:xlink="http://www.w3.org/1999/xlink" height="24.9px" width="50.9px" xmlns="http://www.w3.org/2000/svg">
  <g transform="matrix(1.0, 0.0, 0.0, 1.0, -206.95, -73.2)">
    <path d="M256.3 83.8 Q255.45 80.95 253.5 80.9 241.85 82.15 227.8 80.9 221.15 80.55 218.1 83.05 L218.1 89.8 Q215.9 91.5 215.35 93.95 214.65 89.6 211.15 88.25 L211.15 83.0 Q221.8 72.75 249.8 75.3 L250.2 75.4 Q255.5 76.75 256.55 79.7 257.3 81.8 256.3 83.8" fill="#ffffff" fill-opacity="0.2509804" fill-rule="evenodd" stroke="none"/>
    <path d="M250.75 83.35 Q252.15 85.15 252.9 87.4 255.4 85.65 256.3 83.8 257.3 81.8 256.55 79.7 255.5 76.75 250.2 75.4 M207.95 94.8 L207.95 82.2 Q219.4 74.05 237.75 74.2 245.25 74.2 249.8 75.3" fill="none" stroke="#000000" stroke-linecap="round" stroke-linejoin="round" stroke-width="2.0"/>
    <path d="M218.1 83.05 L229.8 83.95 Q230.2 85.55 233.8 87.15 240.7 90.7 230.2 89.95 236.7 93.75 241.95 91.15 243.7 87.9 240.45 87.45 237.45 85.85 237.75 84.3 247.85 84.5 250.75 83.35 M215.35 93.95 Q215.9 91.5 218.1 89.8 L218.1 83.05 M215.35 93.95 Q214.95 95.6 215.3 97.6 L212.0 97.6" fill="none" stroke="#000000" stroke-linecap="round" stroke-linejoin="round" stroke-width="1.0"/>
    <path d="M212.0 97.6 Q211.4 95.15 209.4 94.75" fill="none" stroke="#000000" stroke-linecap="round" stroke-linejoin="round" stroke-width="1.0"/>
    <path d="M209.4 94.75 L208.7 94.7 207.95 94.8" fill="none" stroke="#000000" stroke-linecap="round" stroke-linejoin="round" stroke-width="2.0"/>
  </g>
</svg>
