<?xml version="1.0" encoding="UTF-8" standalone="no"?>
<svg xmlns:xlink="http://www.w3.org/1999/xlink" height="42.05px" width="69.8px" xmlns="http://www.w3.org/2000/svg">
  <g transform="matrix(1.0, 0.0, 0.0, 1.0, -188.95, -63.75)">
    <path d="M200.15 86.1 Q211.6 84.4 222.8 92.95 216.95 98.05 213.55 102.2 L212.0 97.6 211.95 97.45 211.6 96.45 Q210.85 95.05 209.4 94.75 L208.7 94.7 Q204.35 95.0 205.55 101.3 L202.55 104.45 202.25 104.8 Q193.5 98.5 189.95 90.6 196.1 88.9 200.15 86.1 M212.0 97.6 L211.6 96.45 212.0 97.6" fill="#000000" fill-opacity="0.2509804" fill-rule="evenodd" stroke="none"/>
    <path d="M251.05 83.7 Q253.35 86.8 254.2 91.15 259.4 86.6 256.95 82.05 254.4 76.05 247.15 71.0 L247.05 76.05 Q239.1 64.7 221.0 64.75 227.1 68.45 229.1 71.2 217.1 69.3 206.95 74.1 L196.75 80.5 Q199.1 82.25 203.85 82.65 202.3 84.55 200.15 86.1 196.1 88.9 189.95 90.6 193.5 98.5 202.25 104.8" fill="none" stroke="#000000" stroke-linecap="round" stroke-linejoin="round" stroke-width="2.0"/>
    <path d="M222.8 92.95 Q222.25 88.25 218.9 83.45 231.15 83.1 242.85 87.35 L251.05 83.7 M212.0 97.6 L213.55 102.2 Q216.95 98.05 222.8 92.95 M211.6 96.45 L211.95 97.45" fill="none" stroke="#000000" stroke-linecap="round" stroke-linejoin="round" stroke-width="1.0"/>
    <path d="M209.4 94.75 Q210.85 95.05 211.6 96.45 L212.0 97.6" fill="none" stroke="#000000" stroke-linecap="round" stroke-linejoin="round" stroke-width="1.0"/>
    <path d="M202.55 104.45 L205.55 101.3 Q204.35 95.0 208.7 94.7 L209.4 94.75" fill="none" stroke="#000000" stroke-linecap="round" stroke-linejoin="round" stroke-width="2.0"/>
  </g>
</svg>
