<?xml version="1.0" encoding="UTF-8" standalone="no"?>
<svg xmlns:xlink="http://www.w3.org/1999/xlink" height="23.4px" width="45.3px" xmlns="http://www.w3.org/2000/svg">
  <g transform="matrix(1.0, 0.0, 0.0, 1.0, -212.2, -64.75)">
    <path d="M251.8 84.3 L250.25 87.65 Q248.45 87.2 246.95 86.4 L253.0 74.4 Q251.45 69.35 246.9 65.75 253.6 67.35 256.5 73.95 L251.8 84.3 M216.15 69.1 Q226.4 68.65 230.25 72.75 L231.35 75.75 233.7 82.2 Q233.05 84.25 231.05 85.3 L227.15 74.6 216.15 69.1" fill="#000000" fill-opacity="0.2509804" fill-rule="evenodd" stroke="none"/>
    <path d="M251.8 84.3 L256.5 73.95 Q253.6 67.35 246.9 65.75 L240.85 71.15 245.6 69.4 248.35 74.25 245.05 78.75 M220.95 76.95 L217.2 74.55 213.2 79.2 216.15 69.1 Q226.4 68.65 230.25 72.75 L231.35 75.75" fill="none" stroke="#000000" stroke-linecap="round" stroke-linejoin="round" stroke-width="2.0"/>
    <path d="M246.95 86.4 Q248.45 87.2 250.25 87.65 L251.8 84.3 M246.95 86.4 Q244.2 84.9 242.55 82.1 L245.05 78.75 M231.05 85.3 Q228.65 86.55 224.3 86.3 L221.45 77.3 220.95 76.95 M231.35 75.75 L233.7 82.2 Q233.05 84.25 231.05 85.3" fill="none" stroke="#000000" stroke-linecap="round" stroke-linejoin="round" stroke-width="1.0"/>
  </g>
</svg>
