<?xml version="1.0" encoding="UTF-8" standalone="no"?>
<svg xmlns:xlink="http://www.w3.org/1999/xlink" height="48.05px" width="51.15px" xmlns="http://www.w3.org/2000/svg">
  <g transform="matrix(1.0, 0.0, 0.0, 1.0, -206.35, -68.05)">
    <path d="M210.45 83.75 L211.75 81.65 212.05 81.2 212.25 80.9 212.75 80.15 Q216.0 76.2 221.65 74.45 224.25 73.7 226.95 73.55 226.9 72.6 227.0 71.75 L227.0 71.65 229.8 71.2 Q230.8 68.55 234.15 69.15 237.2 69.7 237.15 71.65 238.9 72.1 240.7 72.85 L240.6 74.9 Q242.7 75.6 244.85 76.65 L245.9 77.25 Q249.5 79.05 251.7 81.7 L252.9 83.3 253.15 83.7 253.35 84.0 254.25 86.1 254.7 87.25 254.8 87.85 Q255.25 89.7 255.25 91.85 L256.5 91.8 256.05 98.25 254.35 98.4 253.55 98.5 253.05 98.55 252.25 98.6 249.1 98.8 249.05 98.8 248.3 98.8 245.1 98.8 244.05 102.95 244.2 115.0 Q242.05 116.45 237.2 114.4 L238.6 102.9 237.5 98.3 226.2 96.7 221.8 95.85 221.75 95.95 220.45 95.65 215.5 94.55 215.45 94.55 211.3 93.5 209.8 93.1 207.35 92.5 208.4 86.35 209.4 86.7 210.1 84.65 210.2 84.55 210.4 84.05 210.45 83.75 M238.8 74.4 L240.6 74.9 238.8 74.4 Q240.7 75.8 242.15 77.95 L242.15 78.1 242.85 79.15 243.45 80.45 244.15 82.25 244.25 82.55 244.5 83.45 Q245.35 87.05 245.5 91.65 L243.3 88.95 239.8 88.8 237.7 91.45 Q237.45 86.25 236.6 82.6 L236.4 81.65 235.25 78.3 234.95 77.75 234.6 77.15 234.45 76.8 Q232.65 73.95 229.95 73.35 L237.1 73.95 238.8 74.4 237.1 73.95 229.95 73.35 Q232.65 73.95 234.45 76.8 L234.6 77.15 234.95 77.75 235.25 78.3 236.4 81.65 236.6 82.6 Q237.45 86.25 237.7 91.45 L239.8 88.8 243.3 88.95 245.5 91.65 Q245.35 87.05 244.5 83.45 L244.25 82.55 244.15 82.25 243.45 80.45 242.85 79.15 242.15 78.1 242.15 77.95 Q240.7 75.8 238.8 74.4 M243.05 94.1 Q243.5 94.5 243.45 95.25 243.45 95.9 243.0 96.35 242.5 96.75 241.8 96.8 241.1 96.75 240.7 96.25 240.2 95.8 240.25 95.2 240.2 94.45 240.7 94.05 241.2 93.55 241.9 93.55 242.55 93.6 243.05 94.1 242.55 93.6 241.9 93.55 241.2 93.55 240.7 94.05 240.2 94.45 240.25 95.2 240.2 95.8 240.7 96.25 241.1 96.75 241.8 96.8 242.5 96.75 243.0 96.35 243.45 95.9 243.45 95.25 243.5 94.5 243.05 94.1 M245.5 91.65 L245.45 91.9 241.4 91.85 237.65 91.6 237.7 91.45 237.65 91.6 241.4 91.85 245.45 91.9 245.5 91.65 M237.5 98.3 L241.25 98.6 245.1 98.8 245.25 98.5 245.45 91.9 249.0 91.95 249.2 92.0 252.25 91.9 252.95 91.9 255.25 91.85 252.95 91.9 252.25 91.9 249.2 92.0 249.0 91.95 245.45 91.9 245.25 98.5 245.1 98.8 241.25 98.6 237.5 98.3 237.65 91.6 227.95 90.65 223.05 89.95 222.4 89.8 219.95 89.4 222.4 89.8 223.05 89.95 227.95 90.65 237.65 91.6 237.5 98.3 M229.8 71.2 L237.15 71.65 229.8 71.2 M209.4 86.7 L211.55 87.35 212.05 87.45 212.6 85.4 213.0 84.25 213.05 84.1 213.45 83.3 Q214.2 81.65 215.25 80.25 L215.3 80.15 215.4 80.15 216.25 78.95 Q217.55 77.45 219.2 76.1 220.25 75.25 221.65 74.45 220.25 75.25 219.2 76.1 217.55 77.45 216.25 78.95 L215.4 80.15 215.3 80.15 215.25 80.25 Q214.2 81.65 213.45 83.3 L213.05 84.1 213.0 84.25 212.6 85.4 212.05 87.45 216.95 88.7 219.95 89.4 Q220.75 85.9 222.0 83.1 L222.2 82.7 222.4 82.1 223.25 80.55 224.15 79.05 224.45 78.6 224.85 77.9 224.95 77.9 225.75 76.9 225.9 76.75 227.35 75.25 Q228.6 74.15 229.95 73.35 L226.95 73.55 229.95 73.35 Q228.6 74.15 227.35 75.25 L225.9 76.75 225.75 76.9 224.95 77.9 224.85 77.9 224.45 78.6 224.15 79.05 223.25 80.55 222.4 82.1 222.2 82.7 222.0 83.1 Q220.75 85.9 219.95 89.4 L216.95 88.7 212.05 87.45 211.55 87.35 209.4 86.7" fill="url(#gradient0)" fill-rule="evenodd" stroke="none"/>
    <path d="M210.45 83.75 L211.75 81.65 212.05 81.2 212.25 80.9 M212.75 80.15 Q216.0 76.2 221.65 74.45 224.25 73.7 226.95 73.55 226.9 72.6 227.0 71.75 L227.0 71.65 229.8 71.2 Q230.8 68.55 234.15 69.15 237.2 69.7 237.15 71.65 238.9 72.1 240.7 72.85 L240.6 74.9 Q242.7 75.6 244.85 76.65 L245.9 77.25 Q249.5 79.05 251.7 81.7 L252.9 83.3 253.15 83.7 253.35 84.0 254.25 86.1 254.7 87.25 M254.8 87.85 Q255.25 89.7 255.25 91.85 L256.5 91.8 256.05 98.25 254.35 98.4 M209.8 93.1 L207.35 92.5 208.4 86.35 209.4 86.7 210.1 84.65 210.2 84.55 210.4 84.05" fill="none" stroke="#000000" stroke-linecap="round" stroke-linejoin="round" stroke-width="2.0"/>
    <path d="M254.35 98.4 L253.55 98.5 253.05 98.55 252.25 98.6 249.1 98.8 249.05 98.8 248.3 98.8 245.1 98.8 244.05 102.95 244.2 115.0 Q242.05 116.45 237.2 114.4 L238.6 102.9 237.5 98.3 226.2 96.7 221.8 95.85 221.75 95.95 220.45 95.65 215.5 94.55 215.45 94.55 211.3 93.5 209.8 93.1 M221.65 74.45 Q220.25 75.25 219.2 76.1 217.55 77.45 216.25 78.95 L215.4 80.15 215.3 80.15 215.25 80.25 Q214.2 81.65 213.45 83.3 L213.05 84.1 213.0 84.25 212.6 85.4 212.05 87.45 216.95 88.7 219.95 89.4 Q220.75 85.9 222.0 83.1 L222.2 82.7 222.4 82.1 223.25 80.55 224.15 79.05 224.45 78.6 224.85 77.9 224.95 77.9 225.75 76.9 225.9 76.75 227.35 75.25 Q228.6 74.15 229.95 73.35 L226.95 73.55 M237.5 98.3 L237.65 91.6 227.95 90.65 223.05 89.95 222.4 89.8 219.95 89.4 M212.05 87.45 L211.55 87.35 209.4 86.7 M242.15 77.95 Q240.7 75.8 238.8 74.4 L237.1 73.95 229.95 73.35 Q232.65 73.95 234.45 76.8 L234.6 77.15 234.95 77.75 235.25 78.3 236.4 81.65 236.6 82.6 Q237.45 86.25 237.7 91.45 L239.8 88.8 243.3 88.95 245.5 91.65 Q245.35 87.05 244.5 83.45 L244.25 82.55 244.15 82.25 243.45 80.45 242.85 79.15 242.15 78.1 242.15 77.95 M237.15 71.65 L229.8 71.2 M255.25 91.85 L252.95 91.9 252.25 91.9 249.2 92.0 249.0 91.95 245.45 91.9 245.25 98.5 245.1 98.8 241.25 98.6 237.5 98.3 M237.7 91.45 L237.65 91.6 241.4 91.85 245.45 91.9 245.5 91.65 M243.05 94.1 Q242.55 93.6 241.9 93.55 241.2 93.55 240.7 94.05 240.2 94.45 240.25 95.2 240.2 95.8 240.7 96.25 241.1 96.75 241.8 96.8 242.5 96.75 243.0 96.35 243.45 95.9 243.45 95.25 243.5 94.5 243.05 94.1 M240.6 74.9 L238.8 74.4" fill="none" stroke="#000000" stroke-linecap="round" stroke-linejoin="round" stroke-width="1.0"/>
    <path d="M215.25 80.25 L215.3 80.15 215.4 80.15 216.25 78.95 Q221.0 77.45 225.75 76.9 L224.95 77.9 224.85 77.9 224.95 77.9 225.65 77.8 Q230.0 77.35 234.35 77.65 L234.95 77.75 235.25 78.3 236.4 81.65 235.25 78.3 234.95 77.75 234.6 77.15 234.45 76.8 Q238.3 77.05 242.15 78.1 L242.85 79.15 Q247.25 80.45 251.6 82.6 L252.9 83.3 253.15 83.7 253.35 84.0 254.25 86.1 254.7 87.25 254.15 87.0 Q250.1 84.6 244.5 83.45 L244.25 82.55 244.15 82.25 244.25 82.55 236.4 81.65 236.6 82.6 236.3 82.55 222.3 83.0 222.0 83.1 222.2 82.7 222.4 82.1 213.45 83.3 Q214.2 81.65 215.25 80.25 M224.85 77.9 L224.45 78.6 224.15 79.05 223.25 80.55 222.4 82.1 223.25 80.55 224.15 79.05 224.45 78.6 224.85 77.9 M244.15 82.25 L243.45 80.45 242.85 79.15 243.45 80.45 244.15 82.25 M248.3 98.8 L249.0 91.95 249.2 92.0 252.25 91.9 252.95 91.9 252.25 98.6 249.1 98.8 249.05 98.8 248.3 98.8 M238.55 103.15 L244.1 103.75 244.05 104.2 244.15 109.1 237.85 108.45 238.5 103.6 238.55 103.15" fill="#ffffff" fill-opacity="0.2509804" fill-rule="evenodd" stroke="none"/>
    <path d="M237.15 71.65 L229.8 71.2 Q230.8 68.55 234.15 69.15 237.2 69.7 237.15 71.65" fill="url(#gradient1)" fill-rule="evenodd" stroke="none"/>
    <path d="M209.8 93.1 L207.35 92.5 208.4 86.35 209.4 86.7 210.1 84.65 210.2 84.55 210.4 84.05 Q211.05 82.6 211.75 81.65 L212.05 81.2 M221.65 74.45 Q216.0 76.2 212.75 80.15 M252.9 83.3 L251.7 81.7 Q249.5 79.05 245.9 77.25 L244.85 76.65 Q242.7 75.6 240.6 74.9 L240.7 72.85 Q238.9 72.1 237.15 71.65 237.2 69.7 234.15 69.15 230.8 68.55 229.8 71.2 L227.0 71.65 227.0 71.75 Q226.9 72.6 226.95 73.55 224.25 73.7 221.65 74.45 M252.9 83.3 L253.15 83.7 253.35 84.0 254.25 86.1 254.7 87.25 M255.25 91.85 Q255.25 89.7 254.8 87.85 M255.25 91.85 L256.5 91.8 256.05 98.25 254.35 98.4" fill="none" stroke="#000000" stroke-linecap="round" stroke-linejoin="round" stroke-width="2.0"/>
    <path d="M216.25 78.95 L215.4 80.15 215.3 80.15 215.25 80.25 M224.85 77.9 L224.95 77.9 225.75 76.9 225.9 76.75 227.35 75.25 Q228.6 74.15 229.95 73.35 L237.1 73.95 238.8 74.4 Q240.7 75.8 242.15 77.95 M216.25 78.95 Q217.55 77.45 219.2 76.1 220.25 75.25 221.65 74.45 M222.0 83.1 Q220.75 85.9 219.95 89.4 L222.4 89.8 223.05 89.95 227.95 90.65 237.65 91.6 237.7 91.45 Q237.45 86.25 236.6 82.6 L236.4 81.65 M222.0 83.1 L222.2 82.7 M219.95 89.4 L216.95 88.7 212.05 87.45 211.55 87.35 209.4 86.7 M213.05 84.1 L213.0 84.25 212.6 85.4 212.05 87.45 M209.8 93.1 L211.3 93.5 215.45 94.55 215.5 94.55 220.45 95.65 221.75 95.95 221.8 95.85 226.2 96.7 237.5 98.3 237.65 91.6 241.4 91.85 245.45 91.9 245.5 91.65 243.3 88.95 239.8 88.8 237.7 91.45 M240.6 74.9 L238.8 74.4 M244.5 83.45 Q245.35 87.05 245.5 91.65 M237.15 71.65 L229.8 71.2 M226.95 73.55 L229.95 73.35 Q232.65 73.95 234.45 76.8 L234.6 77.15 M244.15 82.25 L244.25 82.55 244.5 83.45 M249.0 91.95 L245.45 91.9 245.25 98.5 245.1 98.8 248.3 98.8 249.05 98.8 249.1 98.8 M252.25 91.9 L252.95 91.9 255.25 91.85 M243.05 94.1 Q242.55 93.6 241.9 93.55 241.2 93.55 240.7 94.05 240.2 94.45 240.25 95.2 240.2 95.8 240.7 96.25 241.1 96.75 241.8 96.8 242.5 96.75 243.0 96.35 243.45 95.9 243.45 95.25 243.5 94.5 243.05 94.1 M244.1 103.75 L244.05 102.95 245.1 98.8 241.25 98.6 237.5 98.3 238.6 102.9 238.55 103.15 238.5 103.6 M244.1 103.75 L244.05 104.2 M244.15 109.1 L244.2 115.0 Q242.05 116.45 237.2 114.4 L237.85 108.45 M254.35 98.4 L253.55 98.5 253.05 98.55" fill="none" stroke="#000000" stroke-linecap="round" stroke-linejoin="round" stroke-width="1.0"/>
    <path d="M215.25 80.25 Q214.2 81.65 213.45 83.3 L213.05 84.1 M222.4 82.1 L223.25 80.55 224.15 79.05 224.45 78.6 224.85 77.9 M236.4 81.65 L235.25 78.3 234.95 77.75 234.6 77.15 M222.2 82.7 L222.4 82.1 M242.15 77.95 L242.15 78.1 242.85 79.15 243.45 80.45 244.15 82.25 M249.0 91.95 L249.2 92.0 252.25 91.9 M244.05 104.2 L244.15 109.1 M237.85 108.45 L238.5 103.6 M253.05 98.55 L252.25 98.6 249.1 98.8" fill="none" stroke="#000000" stroke-linecap="round" stroke-linejoin="round" stroke-width="1.0"/>
  </g>
  <defs>
    <linearGradient gradientTransform="matrix(-0.0248, -0.0025, 0.001, -0.0101, 232.55, 82.2)" gradientUnits="userSpaceOnUse" id="gradient0" spreadMethod="pad" x1="-819.2" x2="819.2">
      <stop offset="0.0" stop-color="#000000" stop-opacity="0.5019608"/>
      <stop offset="1.0" stop-color="#000000" stop-opacity="0.0"/>
    </linearGradient>
    <linearGradient gradientTransform="matrix(-0.0248, -0.0025, 0.001, -0.0101, 232.55, 82.2)" gradientUnits="userSpaceOnUse" id="gradient1" spreadMethod="pad" x1="-819.2" x2="819.2">
      <stop offset="0.0" stop-color="#000000" stop-opacity="0.5019608"/>
      <stop offset="1.0" stop-color="#000000" stop-opacity="0.0"/>
    </linearGradient>
  </defs>
</svg>
