<?xml version="1.0" encoding="UTF-8" standalone="no"?>
<svg xmlns:xlink="http://www.w3.org/1999/xlink" height="70.1px" width="74.3px" xmlns="http://www.w3.org/2000/svg">
  <g transform="matrix(1.0, 0.0, 0.0, 1.0, -259.4, -101.65)">
    <path d="M333.7 156.85 L333.4 167.85 Q329.75 170.9 324.4 171.55 L323.8 171.6 321.95 171.7 319.9 171.75 317.4 171.7 315.55 171.6 314.45 171.55 313.95 171.5 309.2 170.85 Q303.2 169.85 297.35 167.7 289.7 164.75 284.85 156.4 L273.8 137.35 Q272.95 136.0 272.5 134.6 L272.1 133.15 267.65 115.5 264.35 113.8 262.0 112.65 259.4 111.4 260.05 109.55 Q263.25 101.15 270.15 101.7 275.8 101.6 278.0 112.45 L277.95 112.45 283.0 132.7 283.35 134.05 Q283.85 135.55 285.0 137.4 L290.3 145.8 Q295.3 152.05 301.5 155.45 L303.2 156.25 Q308.0 158.2 312.75 159.15 L314.45 159.5 315.55 159.65 316.85 159.85 321.95 160.05 323.8 160.0 324.4 159.95 330.1 159.1 328.55 153.55 Q332.05 154.8 333.7 156.85" fill="#000000" fill-rule="evenodd" stroke="none"/>
  </g>
</svg>
