<?xml version="1.0" encoding="UTF-8" standalone="no"?>
<svg xmlns:xlink="http://www.w3.org/1999/xlink" height="83.05px" width="35.95px" xmlns="http://www.w3.org/2000/svg">
  <g transform="matrix(1.0, 0.0, 0.0, 1.0, -123.7, -325.95)">
    <path d="M126.1 349.55 L130.85 352.45 Q131.9 360.35 133.45 368.55 L128.2 366.3 Q126.9 357.9 126.1 349.55 M149.05 363.75 Q150.0 369.95 151.25 376.25 L145.85 373.95 Q144.65 367.2 143.85 360.5 L149.05 363.75 M154.55 391.7 L156.55 399.95 151.65 398.9 151.05 398.1 148.95 389.55 154.55 391.7 M135.2 355.15 L139.55 357.85 Q140.5 364.9 141.9 372.25 L137.4 370.25 Q136.15 362.75 135.2 355.15 M136.8 384.85 L139.55 396.25 134.05 395.0 Q132.45 388.8 131.2 382.65 L136.8 384.85 M140.25 386.15 L145.3 388.15 147.8 398.05 142.65 396.9 142.55 396.75 140.25 386.15" fill="#ffffff" fill-opacity="0.2509804" fill-rule="evenodd" stroke="none"/>
    <path d="M129.1 335.1 L125.1 335.6 M141.95 337.9 L145.9 337.4 M133.45 336.55 L137.4 336.0" fill="none" stroke="#000000" stroke-linecap="round" stroke-linejoin="round" stroke-width="0.5"/>
    <path d="M125.1 335.6 L125.45 340.75 M129.85 343.65 L129.1 335.1 129.75 334.95 Q128.75 330.75 126.35 326.45 124.2 330.2 124.2 335.75 L125.1 335.6 M145.9 337.4 L146.55 337.25 Q145.6 333.05 143.2 328.75 141.0 332.5 141.0 338.05 L141.95 337.9 Q142.2 344.25 142.8 350.6 M145.9 337.4 Q146.5 344.65 147.4 352.1 M137.4 336.0 L138.05 335.85 Q137.05 331.65 134.7 327.35 132.5 331.1 132.5 336.65 L133.45 336.55 134.3 346.65 M138.5 349.55 Q137.8 342.65 137.4 336.0" fill="none" stroke="#000000" stroke-linecap="round" stroke-linejoin="round" stroke-width="1.0"/>
    <path d="M125.45 340.75 L126.1 349.55 Q126.9 357.9 128.2 366.3 129.4 374.5 131.2 382.65 132.45 388.8 134.05 395.0 L134.2 395.8 142.55 406.95 139.55 396.25 136.8 384.85 Q134.9 376.6 133.45 368.55 131.9 360.35 130.85 352.45 L129.85 343.65 M147.4 352.1 L149.05 363.75 Q150.0 369.95 151.25 376.25 152.7 383.9 154.55 391.7 L156.55 399.95 158.65 408.0 151.65 398.9 151.05 398.1 148.95 389.55 Q147.15 381.75 145.85 373.95 144.65 367.2 143.85 360.5 L142.8 350.6 M134.3 346.65 L135.2 355.15 Q136.15 362.75 137.4 370.25 138.65 378.25 140.25 386.15 L142.55 396.75 142.65 396.9 150.55 407.8 147.8 398.05 145.3 388.15 Q143.35 380.1 141.9 372.25 140.5 364.9 139.55 357.85 L138.5 349.55" fill="none" stroke="#000000" stroke-linecap="round" stroke-linejoin="round" stroke-width="2.0"/>
  </g>
</svg>
