<?xml version="1.0" encoding="UTF-8" standalone="no"?>
<svg xmlns:xlink="http://www.w3.org/1999/xlink" height="44.85px" width="46.35px" xmlns="http://www.w3.org/2000/svg">
  <g transform="matrix(1.0, 0.0, 0.0, 1.0, -218.6, -152.8)">
    <path d="M234.15 170.45 Q235.25 175.85 237.7 177.75 240.2 179.7 244.0 179.7 247.65 179.7 249.3 178.15 250.8 176.55 251.15 173.15 L264.95 176.1 Q264.5 180.4 262.35 183.05 260.15 185.7 256.35 187.0 253.9 187.9 250.35 188.25 L251.75 188.85 Q254.25 190.3 254.6 192.35 254.85 193.55 254.15 194.85 253.4 196.15 251.15 196.9 248.75 197.65 244.8 197.65 L235.85 196.95 235.1 193.3 242.55 193.8 245.6 193.35 Q246.2 192.95 246.1 192.35 L245.45 191.55 Q244.7 191.2 243.35 191.2 L237.75 191.55 238.05 188.05 238.9 187.9 234.0 186.75 Q228.9 185.1 224.6 181.0 220.3 176.85 219.05 170.5 217.3 162.0 222.45 157.35 227.7 152.8 238.7 152.8 247.35 152.8 252.9 155.45 258.4 158.1 262.05 164.05 L249.2 166.2 247.9 163.9 Q246.1 162.65 244.35 162.05 L240.8 161.45 Q236.5 161.45 234.65 164.1 233.25 166.05 234.15 170.45" fill="#000000" fill-rule="evenodd" stroke="none"/>
  </g>
</svg>
