<?xml version="1.0" encoding="UTF-8" standalone="no"?>
<svg xmlns:xlink="http://www.w3.org/1999/xlink" height="36.6px" width="40.9px" xmlns="http://www.w3.org/2000/svg">
  <g transform="matrix(1.0, 0.0, 0.0, 1.0, -221.2, -152.3)">
    <path d="M235.7 160.3 Q234.7 161.2 235.0 162.75 235.3 164.35 236.7 165.25 238.2 166.15 240.3 166.15 242.15 166.15 243.2 165.25 244.2 164.35 243.9 162.85 243.6 161.35 242.15 160.35 240.7 159.4 238.8 159.4 236.8 159.4 235.7 160.3 M237.15 177.15 Q237.6 179.2 239.45 180.45 241.35 181.75 243.4 181.75 245.4 181.75 246.65 180.45 248.0 179.15 247.6 177.15 247.2 175.15 245.3 173.8 243.45 172.55 241.4 172.55 239.3 172.55 238.05 173.8 236.75 175.0 237.15 177.15 M251.0 155.5 Q256.1 158.2 256.9 162.25 257.4 164.65 255.2 166.95 255.0 168.3 252.6 169.25 256.2 170.25 258.6 172.55 260.85 174.85 261.45 177.55 261.95 180.15 260.8 182.45 259.65 184.75 257.55 186.0 255.45 187.25 252.1 187.8 L244.9 188.4 Q237.7 188.4 233.55 187.05 229.35 185.75 226.85 183.25 224.25 180.65 223.6 177.45 223.0 174.4 224.5 172.25 226.0 170.1 229.4 169.25 226.5 168.55 224.75 166.95 222.4 164.95 221.85 162.25 220.95 157.75 226.0 154.95 229.85 152.8 236.8 152.8 246.05 152.8 251.0 155.5 Z" fill="none" stroke="#000000" stroke-linecap="round" stroke-linejoin="round" stroke-width="1.0"/>
  </g>
</svg>
