<?xml version="1.0" encoding="UTF-8" standalone="no"?>
<svg xmlns:xlink="http://www.w3.org/1999/xlink" height="339.15px" width="172.1px" xmlns="http://www.w3.org/2000/svg">
  <g transform="matrix(1.0, 0.0, 0.0, 1.0, -313.85, -134.1)">
    <path d="M369.75 135.4 L375.65 134.1 424.15 134.1 430.05 135.4 Q450.35 170.15 440.15 248.55 L440.05 249.35 439.3 255.35 Q437.0 276.3 437.35 297.0 437.6 311.55 439.15 325.95 445.5 383.4 473.35 438.55 481.45 454.55 485.95 473.25 398.55 451.85 313.85 473.25 318.4 454.55 326.45 438.55 354.3 383.4 360.65 325.95 362.2 311.55 362.45 297.0 362.8 276.3 360.5 255.35 L359.75 249.35 359.65 248.55 Q349.45 170.15 369.75 135.4" fill="#000000" fill-rule="evenodd" stroke="none"/>
  </g>
</svg>
