<?xml version="1.0" encoding="UTF-8" standalone="no"?>
<svg xmlns:xlink="http://www.w3.org/1999/xlink" height="385.3px" width="517.65px" xmlns="http://www.w3.org/2000/svg">
  <g transform="matrix(1.0, 0.0, 0.0, 1.0, -141.5, -52.65)">
    <path d="M649.9 397.15 Q649.0 397.45 648.3 398.1 647.05 399.4 647.05 401.25 647.05 402.8 647.95 403.9 L626.15 401.6 626.05 401.6 Q626.0 400.4 625.1 399.5 626.0 398.55 626.0 397.35 626.0 396.15 625.15 395.25 L649.9 397.15 M654.4 394.55 Q655.25 395.4 656.35 395.4 657.45 395.4 658.25 394.55 L658.7 394.1 655.7 402.1 655.75 401.25 Q655.75 399.4 654.45 398.1 653.25 396.9 651.4 396.9 L650.0 397.15 653.7 393.25 Q653.8 393.95 654.4 394.55 M656.35 389.9 Q655.25 389.9 654.4 390.7 L653.95 391.35 650.95 388.7 650.95 385.35 659.15 389.65 659.1 392.65 Q659.1 391.55 658.25 390.7 657.45 389.9 656.35 389.9 M603.05 54.7 Q603.75 56.0 605.6 56.4 604.9 56.75 604.1 57.2 L602.35 58.25 602.35 62.2 567.85 72.65 Q563.2 71.15 563.2 67.7 563.2 65.05 565.9 61.2 L602.65 52.65 Q602.45 53.75 603.05 54.7 M602.35 71.05 Q609.35 63.95 612.35 72.45 L604.95 99.95 Q601.8 97.3 597.1 99.95 L602.35 71.05 M541.7 88.15 L493.55 129.1 492.7 129.8 484.75 120.0 533.85 79.15 541.7 88.15 M614.45 116.4 Q615.75 117.3 617.5 117.3 L619.1 117.1 615.8 125.55 612.5 125.55 613.6 115.6 614.45 116.4 M618.45 105.55 L620.3 105.35 620.8 112.2 620.85 112.5 620.5 112.2 Q619.25 111.35 617.5 111.35 L615.4 111.7 615.55 107.5 607.5 112.75 607.4 112.75 Q606.55 112.25 605.55 112.25 L604.4 112.35 Q604.25 111.7 603.9 111.2 603.1 110.05 602.0 110.05 L601.7 108.55 605.05 107.0 613.65 101.7 Q613.5 102.05 613.5 102.45 613.5 103.75 614.95 104.65 L615.55 104.95 Q616.85 105.55 618.45 105.55 M538.95 142.6 Q540.6 142.6 541.75 141.8 L542.15 141.55 543.9 150.85 539.6 150.85 537.15 142.35 538.95 142.6 M545.2 127.15 Q545.35 128.75 546.5 129.9 547.8 131.2 549.7 131.2 L550.2 131.2 542.75 139.15 541.75 138.1 Q540.6 137.4 538.95 137.4 L537.8 137.55 545.2 127.15 M552.9 123.55 L552.15 122.95 581.2 115.55 Q581.6 116.25 582.65 116.85 581.2 117.85 581.2 119.05 581.2 120.05 582.15 120.9 581.3 121.45 581.3 122.25 L581.3 122.45 552.9 129.9 Q554.2 128.6 554.2 126.75 554.2 124.85 552.9 123.55 M604.35 129.8 Q605.4 129.8 606.2 129.15 L617.8 162.4 Q616.45 161.9 614.7 161.9 612.4 161.9 610.8 162.75 610.2 163.05 609.9 163.45 L599.3 133.65 600.9 132.6 601.65 131.7 Q602.8 131.4 603.7 130.45 L604.3 129.8 604.35 129.8 M612.3 167.6 L614.7 167.9 Q616.7 167.9 618.15 167.25 L617.95 183.6 617.3 183.1 Q616.1 182.4 614.5 182.4 612.85 182.4 611.7 183.1 L612.3 167.6 M614.5 187.6 L615.75 187.45 610.55 195.2 607.6 192.2 611.5 186.65 611.7 186.8 Q612.85 187.6 614.5 187.6 M345.75 156.9 Q349.95 155.85 355.3 159.45 L370.3 192.4 364.75 192.85 Q359.2 194.15 355.8 199.0 L355.5 199.6 355.3 199.3 337.55 165.0 Q340.9 158.05 345.75 156.9 M430.4 192.4 L445.35 159.45 Q450.7 155.85 455.0 156.9 459.75 158.05 463.1 165.0 L445.35 199.3 445.25 199.6 444.85 199.0 Q441.45 194.15 435.9 192.85 L430.4 192.4 M400.35 193.1 L401.25 193.1 Q410.85 193.1 418.85 198.45 L410.25 214.55 409.45 217.1 Q407.3 222.95 405.2 226.1 403.4 219.3 400.9 219.3 398.25 219.3 396.3 227.25 393.75 224.1 391.25 217.0 L390.4 214.55 381.85 198.45 Q389.8 193.1 399.4 193.1 L400.35 193.1 M411.3 246.9 Q411.3 251.2 408.25 254.25 L407.2 255.2 Q404.5 257.3 400.9 257.3 397.35 257.3 394.6 255.2 L393.55 254.25 Q390.5 251.2 390.5 246.9 390.5 242.65 393.55 239.6 L394.65 238.65 Q397.35 236.5 400.9 236.5 404.5 236.5 407.15 238.6 L408.25 239.6 Q411.3 242.65 411.3 246.9 M437.35 223.7 L438.1 224.95 438.15 225.1 Q442.2 236.5 442.2 250.3 442.2 260.65 439.9 269.6 L438.75 268.85 Q415.25 250.35 428.8 231.0 432.25 227.35 437.35 223.7 M415.0 285.8 L421.4 300.3 Q412.35 307.5 401.25 307.5 L400.35 307.5 399.4 307.5 Q388.3 307.5 379.35 300.3 L385.7 285.8 Q387.5 281.7 389.4 278.6 393.2 271.95 396.8 269.5 398.55 275.45 400.9 275.45 403.3 275.45 405.05 269.15 408.7 271.55 412.1 278.7 L415.0 285.8 M445.9 298.9 L445.95 298.8 446.0 298.85 457.9 320.05 Q457.6 323.3 456.3 325.5 453.3 330.2 445.3 329.75 L432.8 306.6 Q438.95 306.45 443.35 302.05 L445.9 298.9 M354.7 298.85 L354.7 298.8 354.85 298.9 357.35 302.05 Q361.7 306.45 367.9 306.6 L355.35 329.75 Q347.35 330.2 344.45 325.5 343.05 323.3 342.75 320.05 L354.7 298.85 M362.55 225.1 L362.65 225.0 362.65 224.95 363.3 223.7 Q368.15 227.95 371.15 232.15 384.45 250.9 360.75 269.6 L360.6 269.15 Q358.45 260.3 358.45 250.3 358.45 236.5 362.55 225.1 M540.65 394.6 L533.1 403.9 480.65 361.15 488.4 352.8 540.65 394.6 M604.3 333.05 L602.4 332.85 Q600.65 332.85 599.35 333.45 L599.15 333.55 599.1 328.25 602.4 328.25 604.3 333.05 M219.45 119.05 Q219.45 117.85 218.0 116.85 L219.45 115.55 248.5 122.95 247.75 123.55 Q246.45 124.85 246.45 126.75 246.45 128.6 247.75 129.9 L219.35 122.45 219.35 122.25 Q219.35 121.45 218.5 120.9 219.45 120.05 219.45 119.05 M188.35 72.45 Q191.3 63.95 198.3 71.05 L203.55 99.95 Q198.85 97.3 195.7 99.95 L188.35 72.45 M197.65 54.7 Q198.2 53.75 198.05 52.65 L234.75 61.2 Q237.45 65.05 237.5 67.7 237.45 71.15 232.8 72.65 L198.3 62.2 198.3 58.25 196.55 57.2 195.05 56.4 Q196.9 56.0 197.65 54.7 M259.0 88.15 L266.8 79.15 315.9 120.0 307.95 129.8 307.2 129.1 259.0 88.15 M603.05 351.05 L604.9 351.25 Q607.1 351.25 608.7 350.2 L613.85 382.85 Q612.85 382.05 611.55 382.05 610.0 382.05 608.85 383.15 L608.7 383.35 608.6 383.1 Q608.15 382.25 607.55 382.0 L603.05 351.05 M605.4 336.5 L605.45 336.5 606.5 343.25 604.9 343.05 Q602.85 343.05 601.35 343.9 L601.15 337.1 602.4 337.15 Q604.15 337.15 605.4 336.5 M196.75 111.2 L196.25 112.35 195.1 112.25 Q194.1 112.25 193.25 112.75 L185.2 107.5 185.25 111.7 183.15 111.35 Q181.4 111.35 180.15 112.2 L179.85 112.5 179.85 112.2 180.35 105.35 182.2 105.55 Q183.8 105.55 185.1 104.95 L185.7 104.65 Q187.15 103.75 187.15 102.45 L187.0 101.7 195.65 107.0 198.95 108.55 Q198.7 109.2 198.7 110.05 L198.65 110.05 Q197.55 110.05 196.75 111.2 M186.2 116.4 L187.05 115.6 188.15 125.55 184.85 125.55 181.55 117.1 183.15 117.3 Q184.9 117.3 186.2 116.4 M196.3 129.8 L196.35 129.8 196.95 130.45 Q197.85 131.4 199.0 131.7 L199.75 132.6 Q200.45 133.3 201.35 133.65 L190.75 163.45 Q190.45 163.05 189.85 162.75 188.25 161.9 185.95 161.9 184.2 161.9 182.9 162.4 L194.45 129.15 Q195.25 129.8 196.3 129.8 M188.35 167.6 L189.0 183.15 188.95 183.1 Q187.8 182.4 186.15 182.4 184.55 182.4 183.35 183.1 L182.75 183.6 182.6 167.25 Q183.95 167.9 185.95 167.9 L188.35 167.6 M189.2 186.65 L193.05 192.2 190.1 195.2 184.9 187.45 186.15 187.6 Q187.8 187.6 188.95 186.8 L189.2 186.65 M254.15 129.9 Q255.3 128.75 255.45 127.15 L262.85 137.55 261.7 137.4 Q260.05 137.4 258.9 138.1 258.25 138.55 258.0 139.15 L250.5 131.2 250.95 131.2 Q252.85 131.2 254.15 129.9 M258.5 141.55 L258.9 141.8 Q260.05 142.6 261.7 142.6 L263.5 142.35 261.05 150.85 256.75 150.85 258.5 141.75 258.5 141.55 M141.5 389.65 L149.7 385.35 149.7 388.7 146.7 391.35 146.25 390.7 Q145.4 389.9 144.3 389.9 143.2 389.9 142.4 390.7 141.55 391.55 141.55 392.65 L141.5 389.65 M146.25 394.55 Q146.85 393.95 146.95 393.25 L150.75 397.15 149.25 396.9 Q147.4 396.9 146.2 398.1 144.9 399.4 144.9 401.25 L144.95 402.1 142.0 394.1 142.4 394.55 Q143.2 395.4 144.3 395.4 145.4 395.4 146.25 394.55 M201.55 333.55 L201.3 333.45 Q200.0 332.85 198.25 332.85 L196.35 333.05 198.25 328.25 201.55 328.25 201.55 333.55 M199.5 337.1 L199.35 343.9 Q197.8 343.05 195.75 343.05 L194.15 343.25 195.2 336.5 195.25 336.5 Q196.5 337.15 198.25 337.15 L199.5 337.1 M197.6 351.05 L193.1 382.0 Q192.5 382.25 192.05 383.1 L191.95 383.35 191.8 383.15 Q190.65 382.05 189.1 382.05 187.8 382.05 186.8 382.85 L192.0 350.2 Q193.55 351.25 195.75 351.25 L197.6 351.05 M183.8 408.7 L186.4 409.35 182.3 430.5 Q175.3 433.3 172.5 427.6 L179.35 405.8 179.65 405.8 Q181.65 407.85 183.8 408.7 M230.35 409.05 Q230.35 410.25 231.25 411.1 232.1 412.0 233.35 412.0 L234.2 411.95 231.0 413.85 Q231.8 414.8 232.1 415.8 233.6 419.8 227.5 423.85 L188.75 437.95 Q190.0 434.4 188.6 430.8 187.9 428.9 186.5 427.1 L217.95 416.55 196.8 405.2 197.0 405.0 Q197.55 404.05 196.4 402.55 L198.1 402.9 Q200.0 403.1 200.6 402.15 200.9 401.55 200.65 400.8 202.0 400.8 202.55 400.0 L220.95 409.8 Q220.45 410.15 220.15 410.8 219.3 412.3 219.3 414.3 219.3 416.3 220.15 417.75 220.95 419.25 222.1 419.25 222.7 419.25 223.25 418.85 L223.9 418.05 224.1 417.75 Q224.9 416.3 224.9 414.3 224.9 412.75 224.45 411.5 L230.5 408.2 230.35 409.05 M235.5 406.9 Q234.6 406.05 233.35 406.05 232.1 406.05 231.25 406.9 230.7 407.45 230.5 408.2 L230.5 398.9 233.75 397.2 235.5 406.9 M312.3 352.8 L320.0 361.15 267.6 403.9 260.0 394.6 312.3 352.8 M175.6 399.5 Q174.65 400.4 174.6 401.6 L152.75 403.9 Q153.6 402.8 153.6 401.25 153.6 399.4 152.35 398.1 151.65 397.45 150.8 397.15 L175.55 395.25 Q174.65 396.15 174.65 397.35 174.65 398.55 175.6 399.5 M621.0 405.8 L621.3 405.8 628.2 427.6 Q625.35 433.3 618.35 430.5 L614.25 409.35 616.85 408.7 Q619.0 407.85 621.0 405.8 M611.9 437.95 L573.15 423.85 Q567.05 419.8 568.55 415.8 568.85 414.8 569.7 413.85 L566.55 411.95 567.3 412.0 Q568.55 412.0 569.4 411.1 570.3 410.25 570.3 409.05 L570.15 408.2 Q569.95 407.45 569.4 406.9 568.55 406.05 567.3 406.05 566.05 406.05 565.15 406.9 L566.9 397.2 570.15 398.9 570.15 408.2 576.2 411.5 Q575.75 412.75 575.75 414.3 575.75 416.3 576.55 417.75 L576.75 418.05 577.45 418.85 Q577.95 419.25 578.55 419.25 L578.6 419.25 Q579.7 419.25 580.5 417.75 581.35 416.3 581.35 414.3 581.35 412.3 580.5 410.8 580.2 410.15 579.7 409.8 L598.2 400.0 Q598.65 400.8 600.05 400.8 599.75 401.55 600.15 402.15 600.65 403.1 602.6 402.9 L604.25 402.55 Q603.1 404.05 603.7 405.0 L603.7 405.05 603.85 405.2 603.85 405.25 582.8 416.55 614.15 427.1 Q612.75 428.9 612.05 430.8 610.65 434.4 611.9 437.95" fill="#000000" fill-rule="evenodd" stroke="none"/>
  </g>
</svg>
