<?xml version="1.0" encoding="UTF-8" standalone="no"?>
<svg xmlns:xlink="http://www.w3.org/1999/xlink" height="401.65px" width="518.65px" xmlns="http://www.w3.org/2000/svg">
  <g transform="matrix(1.0, 0.0, 0.0, 1.0, -141.0, -45.1)">
    <path d="M653.7 393.25 L650.0 397.15 M655.7 402.1 L658.7 394.1 Q659.1 393.5 659.1 392.7 L659.1 392.65 M653.95 391.35 Q653.65 391.95 653.65 392.65 L653.7 393.25 M653.95 391.35 L650.95 388.7 650.95 385.35 659.15 389.65 659.1 392.65 M176.6 405.8 L179.35 405.8 Q177.45 405.7 176.1 404.6 174.6 403.45 174.6 401.8 L174.6 401.6 152.75 403.9 152.35 404.3 Q151.05 405.6 149.25 405.6 147.4 405.6 146.2 404.3 145.2 403.3 144.95 402.1 L142.0 394.1 Q141.55 393.5 141.55 392.7 L141.55 392.65 141.5 389.65 149.7 385.35 149.7 388.7 146.7 391.35 147.0 392.65 146.95 393.25 150.75 397.15 150.8 397.15 175.55 395.25 Q174.65 394.2 174.65 392.9 174.65 391.4 175.8 390.4 176.9 389.35 178.55 389.35 L180.25 389.65 181.8 388.25 Q181.45 387.4 181.45 386.35 181.45 384.6 182.45 383.3 183.05 382.5 183.8 382.25 L184.85 382.05 Q185.95 382.05 186.8 382.85 L192.0 350.2 191.7 350.0 Q190.0 348.85 190.0 347.15 190.0 345.45 191.7 344.25 192.8 343.45 194.15 343.25 L195.2 336.5 Q193.95 335.9 193.95 335.0 193.95 334.1 195.25 333.45 L196.35 333.05 198.25 328.25 201.55 328.25 201.55 333.55 Q202.55 334.15 202.55 335.0 202.55 335.9 201.3 336.5 L199.5 337.1 199.35 343.9 199.85 344.25 Q201.55 345.45 201.55 347.15 201.55 348.85 199.85 350.0 198.85 350.75 197.6 351.05 L193.1 382.0 193.8 381.8 Q194.85 381.8 195.6 383.1 196.3 384.4 196.3 386.2 196.3 388.05 195.6 389.35 L194.45 390.5 196.15 393.55 Q197.35 393.9 198.55 394.6 200.7 395.9 201.95 397.45 203.05 399.0 202.55 400.0 L220.95 409.8 Q221.45 409.35 222.1 409.35 223.25 409.35 224.1 410.8 L224.45 411.5 230.5 408.2 230.5 398.9 233.75 397.2 235.5 406.9 240.6 405.15 Q242.25 397.25 252.8 399.55 254.65 394.8 260.0 394.6 L312.3 352.8 310.55 350.9 Q316.1 340.5 326.7 336.45 L329.95 340.05 331.6 338.65 Q326.3 330.1 338.0 321.65 L338.85 321.0 338.4 322.05 342.75 320.05 354.7 298.85 354.7 298.8 Q352.4 295.3 350.8 290.35 L360.1 270.95 360.6 269.15 Q358.45 260.3 358.45 250.3 358.45 236.5 362.55 225.1 L362.65 225.0 362.5 225.1 362.5 225.0 352.3 207.35 Q353.45 202.8 355.5 199.6 L355.3 199.3 337.55 165.0 333.25 162.35 Q323.35 160.95 325.05 144.6 312.9 140.15 307.95 129.8 L307.2 129.1 259.0 88.15 258.1 89.1 Q252.4 87.65 250.5 83.5 240.8 84.6 242.3 79.2 223.6 73.25 227.95 71.15 L198.3 62.2 198.3 71.05 203.55 99.95 204.85 99.95 206.15 103.2 Q212.55 105.95 213.05 111.05 L213.45 111.05 Q216.05 111.05 217.85 112.05 219.7 113.1 219.7 114.5 L219.45 115.55 248.5 122.95 Q249.6 122.25 250.95 122.25 252.85 122.25 254.15 123.55 255.45 124.85 255.45 126.75 L255.45 127.15 262.85 137.55 Q263.75 137.65 264.5 138.1 265.65 138.9 265.65 140.0 265.65 141.1 264.5 141.8 L263.5 142.35 261.05 150.85 256.75 150.85 258.5 141.75 258.5 141.55 Q257.7 140.9 257.7 140.0 257.7 139.55 258.0 139.15 L250.5 131.2 Q248.9 131.05 247.75 129.9 L219.35 122.45 Q219.15 123.4 217.6 124.15 215.8 124.9 213.25 124.9 210.7 124.9 208.95 124.15 L208.25 123.8 205.85 127.6 Q206.5 128.55 206.5 129.8 206.5 131.4 205.35 132.6 204.15 133.75 202.55 133.75 L201.35 133.65 190.75 163.45 Q191.4 164.1 191.4 164.9 191.4 166.15 189.85 166.95 L188.35 167.6 189.0 183.15 Q190.1 183.85 190.1 185.0 190.1 185.95 189.2 186.65 L193.05 192.2 190.1 195.2 184.9 187.45 Q184.05 187.25 183.35 186.8 182.2 186.1 182.2 185.0 182.2 184.2 182.75 183.6 L182.6 167.25 182.1 166.95 Q180.5 166.15 180.5 164.9 180.5 163.65 182.1 162.75 L182.9 162.4 194.45 129.15 193.75 128.3 Q192.65 126.85 192.65 124.85 192.65 122.85 193.75 121.35 L194.55 120.55 194.3 119.6 Q193.25 119.35 192.5 118.55 191.4 117.5 191.4 115.95 191.4 114.4 192.5 113.3 L193.25 112.75 185.2 107.5 185.25 111.7 186.2 112.2 Q187.45 113.1 187.45 114.3 187.45 115.05 187.05 115.6 L188.15 125.55 184.85 125.55 181.55 117.1 Q180.8 116.85 180.15 116.4 178.85 115.55 178.85 114.3 178.85 113.3 179.85 112.5 L179.85 112.2 180.35 105.35 Q179.45 105.1 178.75 104.65 177.25 103.75 177.25 102.45 177.25 101.15 178.75 100.2 180.15 99.3 182.2 99.3 184.2 99.3 185.7 100.2 186.75 100.85 187.0 101.7 L195.65 107.0 196.35 105.15 194.4 99.95 195.7 99.95 188.35 72.45 187.85 74.0 183.25 62.2 183.35 61.85 182.2 61.3 Q179.5 59.7 178.4 57.5 177.2 55.15 178.1 53.55 178.7 52.5 180.05 52.1 179.65 50.7 180.3 49.6 181.3 47.95 183.9 47.9 L184.55 47.9 184.8 47.3 Q185.75 45.7 188.35 45.6 190.85 45.5 193.5 47.05 196.15 48.55 197.4 50.9 L198.05 52.65 232.3 60.65 Q230.35 57.4 245.1 61.95 L246.95 62.5 247.2 63.1 Q255.05 59.15 260.7 70.7 266.1 74.5 267.6 78.25 L266.8 79.15 314.55 118.85 316.15 119.2 Q326.4 121.75 334.6 132.8 344.9 129.4 353.0 138.05 356.7 144.6 353.0 151.2 L355.3 159.45 370.3 192.4 Q374.45 192.6 379.6 194.2 L381.85 198.45 Q389.8 193.1 399.4 193.1 L400.35 193.1 401.25 193.1 Q410.85 193.1 418.85 198.45 L421.05 194.2 Q426.2 192.6 430.4 192.4 L445.35 159.45 447.65 151.2 Q443.95 144.6 447.65 138.05 455.75 129.4 466.05 132.8 474.25 121.75 484.55 119.2 L486.2 118.85 533.85 79.15 533.05 78.25 Q534.55 74.5 539.95 70.7 545.6 59.15 553.55 63.1 L553.7 62.5 555.6 61.95 Q570.3 57.4 568.35 60.65 L602.65 52.65 Q602.8 51.8 603.25 50.9 604.5 48.55 607.15 47.05 609.8 45.5 612.35 45.6 614.9 45.7 615.85 47.3 L616.1 47.9 616.85 47.9 Q619.35 47.95 620.35 49.6 621.0 50.7 620.65 52.1 621.95 52.5 622.55 53.55 623.45 55.15 622.3 57.5 621.15 59.7 618.45 61.3 L617.3 61.85 617.4 62.2 612.8 74.0 612.35 72.45 604.95 99.95 606.25 99.95 604.3 105.15 605.05 107.0 613.65 101.7 Q613.9 100.85 614.95 100.2 616.45 99.3 618.45 99.3 620.5 99.3 621.9 100.2 623.4 101.15 623.4 102.45 623.4 103.75 621.9 104.65 L620.3 105.35 620.8 112.2 620.85 112.5 Q621.8 113.3 621.8 114.3 621.8 115.55 620.5 116.4 L619.1 117.1 615.8 125.55 612.5 125.55 613.6 115.6 Q613.2 115.05 613.2 114.3 613.2 113.1 614.45 112.2 L615.4 111.7 615.55 107.5 607.5 112.75 608.15 113.3 Q609.25 114.4 609.25 115.95 609.25 117.5 608.15 118.55 607.15 119.6 605.7 119.65 L605.6 120.15 Q606.3 120.5 606.9 121.35 608.0 122.85 608.0 124.85 608.0 126.85 606.9 128.3 L606.2 129.15 617.8 162.4 618.55 162.75 Q620.15 163.65 620.15 164.9 620.15 166.15 618.55 166.95 L618.15 167.25 617.95 183.6 Q618.45 184.2 618.45 185.0 618.45 186.1 617.3 186.8 L615.75 187.45 610.55 195.2 607.6 192.2 611.5 186.65 Q610.55 185.95 610.55 185.0 610.55 183.85 611.7 183.15 L611.7 183.1 612.3 167.6 610.8 166.95 Q609.25 166.15 609.25 164.9 609.25 164.1 609.9 163.45 L599.3 133.65 598.1 133.75 Q596.5 133.75 595.3 132.6 594.15 131.4 594.15 129.8 594.15 128.55 594.85 127.6 L592.4 123.8 591.7 124.15 Q589.95 124.9 587.4 124.9 584.85 124.9 583.05 124.15 581.5 123.4 581.3 122.45 L552.9 129.9 Q551.75 131.05 550.2 131.2 L542.75 139.15 542.95 140.0 Q542.95 140.9 542.15 141.55 L543.9 150.85 539.6 150.85 537.15 142.35 536.15 141.8 Q535.0 141.1 535.0 140.0 535.0 138.9 536.15 138.1 536.9 137.65 537.8 137.55 L545.2 127.15 545.2 126.75 Q545.2 124.85 546.5 123.55 547.8 122.25 549.7 122.25 551.05 122.25 552.15 122.95 L581.2 115.55 580.95 114.5 Q580.95 113.1 582.8 112.05 584.6 111.05 587.2 111.05 L587.6 111.05 Q588.1 105.95 594.5 103.2 L595.8 99.95 597.1 99.95 602.35 71.05 602.35 62.2 572.75 71.15 Q577.05 73.25 558.35 79.2 559.85 84.6 550.15 83.5 548.25 87.65 542.55 89.1 L541.7 88.15 493.55 129.1 492.7 129.8 Q487.75 140.15 475.6 144.6 477.3 160.95 467.4 162.35 L463.1 165.0 445.35 199.3 445.25 199.6 Q447.2 202.8 448.35 207.35 L438.15 225.1 Q442.2 236.5 442.2 250.3 442.2 260.65 439.9 269.6 L449.9 290.35 Q448.25 295.3 445.95 298.8 L446.0 298.85 457.9 320.05 462.35 322.05 461.8 321.0 462.65 321.65 Q474.35 330.1 469.1 338.65 L470.8 340.05 473.95 336.45 Q484.55 340.5 490.1 350.9 L488.4 352.8 540.65 394.6 Q546.0 394.8 547.85 399.55 558.4 397.25 560.05 405.15 L565.15 406.9 566.9 397.2 570.15 398.9 570.15 408.2 576.2 411.5 576.55 410.8 Q577.4 409.35 578.55 409.35 579.2 409.35 579.7 409.8 L598.2 400.0 Q597.6 399.0 598.75 397.45 599.95 395.9 602.15 394.6 603.3 393.9 604.5 393.55 L606.2 390.5 Q605.55 390.2 605.05 389.35 604.35 388.05 604.35 386.2 604.35 384.4 605.05 383.1 605.8 381.8 606.85 381.8 L607.55 382.0 603.05 351.05 Q601.8 350.75 600.8 350.0 599.1 348.85 599.1 347.15 599.1 345.45 600.8 344.25 601.05 344.05 601.35 343.9 L601.15 337.1 Q600.2 336.9 599.35 336.5 598.1 335.9 598.1 335.0 598.1 334.15 599.15 333.55 L599.1 328.25 602.4 328.25 604.3 333.05 605.4 333.45 Q606.7 334.1 606.7 335.0 606.7 335.9 605.45 336.5 L606.5 343.25 Q607.85 343.45 608.95 344.25 610.65 345.45 610.65 347.15 610.65 348.85 608.95 350.0 L608.7 350.2 613.85 382.85 Q614.7 382.05 615.8 382.05 L616.85 382.25 Q617.6 382.5 618.2 383.3 619.2 384.6 619.2 386.35 619.2 387.4 618.85 388.25 L620.4 389.65 622.1 389.35 Q623.75 389.35 624.85 390.4 626.0 391.4 626.0 392.9 626.0 394.2 625.1 395.25 L625.15 395.25 649.9 397.15 650.0 397.15 M655.7 402.1 Q655.45 403.3 654.45 404.3 653.25 405.6 651.4 405.6 649.6 405.6 648.3 404.3 L647.95 403.9 626.15 401.6 626.05 401.6 626.05 401.8 Q626.05 403.45 624.55 404.6 623.2 405.7 621.3 405.8 L624.05 405.8 M362.65 224.95 L362.65 225.0 M379.35 300.3 Q388.3 307.5 399.4 307.5 L400.35 307.5 401.25 307.5 Q412.35 307.5 421.4 300.3 M367.9 306.6 L368.0 306.6 369.4 306.55 Q373.1 306.25 377.45 304.5 L379.35 300.3 M367.9 306.6 L355.35 329.75 358.2 330.6 Q361.0 340.35 352.3 347.6 345.1 352.35 337.8 347.6 L337.2 348.3 339.5 350.9 Q333.4 360.35 322.7 364.05 L320.0 361.15 267.6 403.9 268.55 405.15 Q267.8 410.0 260.65 411.05 260.7 424.35 246.55 420.2 L227.35 423.9 188.75 437.95 185.1 440.55 183.8 442.4 Q179.6 447.6 173.65 445.8 165.3 443.1 166.8 435.35 167.05 430.1 170.9 430.8 L172.0 426.45 172.5 427.6 179.35 405.8 M432.8 306.6 L445.3 329.75 M432.8 306.6 L432.65 306.6 431.35 306.55 Q427.55 306.25 423.2 304.5 L421.4 300.3 M621.3 405.8 L628.2 427.6 628.65 426.45 629.85 430.8 Q633.6 430.1 633.85 435.35 635.45 443.1 627.0 445.8 621.05 447.6 616.85 442.4 L615.55 440.55 611.9 437.95 573.15 423.85 554.1 420.2 Q539.95 424.35 540.0 411.05 532.85 410.0 532.1 405.15 L533.1 403.9 480.65 361.15 477.95 364.05 Q467.25 360.35 461.15 350.9 L463.5 348.3 462.85 347.6 Q455.65 352.35 448.35 347.6 439.65 340.35 442.45 330.6 L445.3 329.75 M217.95 416.55 L186.5 427.1 184.45 429.45 183.8 429.75 182.3 430.5 186.4 409.35 Q190.4 409.6 194.65 406.05 L194.75 406.05 195.0 405.8 195.05 405.8 Q196.3 405.8 196.8 405.2 L217.95 416.55 M614.25 409.35 L618.35 430.5 M603.85 405.2 Q604.35 405.8 605.6 405.8 L605.7 405.8 606.0 406.05 Q610.25 409.6 614.25 409.35 M603.85 405.2 L603.85 405.25 582.8 416.55 614.15 427.1 616.2 429.45 616.85 429.75 618.35 430.5" fill="none" stroke="#000000" stroke-linecap="round" stroke-linejoin="round" stroke-width="1.0"/>
    <path d="M658.7 394.1 L658.25 394.55 Q657.45 395.4 656.35 395.4 655.25 395.4 654.4 394.55 653.8 393.95 653.7 393.25 M650.0 397.15 L651.4 396.9 Q653.25 396.9 654.45 398.1 655.75 399.4 655.75 401.25 L655.7 402.1 M659.1 392.65 Q659.1 391.55 658.25 390.7 657.45 389.9 656.35 389.9 655.25 389.9 654.4 390.7 L653.95 391.35 M647.95 403.9 Q647.05 402.8 647.05 401.25 647.05 399.4 648.3 398.1 649.0 397.45 649.9 397.15 M602.65 52.65 Q602.45 53.75 603.05 54.7 603.75 56.0 605.6 56.4 L607.1 55.8 Q609.35 55.05 611.25 55.3 612.3 54.15 613.85 53.3 L614.35 53.05 615.6 51.25 Q616.6 49.4 616.1 47.95 L616.1 47.9 M605.6 56.4 L606.5 56.45 606.7 56.45 607.3 56.45 607.2 56.35 607.1 55.8 M602.35 62.2 L602.35 58.25 604.1 57.2 Q604.9 56.75 605.6 56.4 M572.75 71.15 L567.85 72.65 Q563.2 71.15 563.2 67.7 563.2 65.05 565.9 61.2 L568.35 60.65 M620.65 52.1 L620.1 53.55 Q618.9 55.75 616.25 57.3 L615.3 57.85 Q616.45 59.35 617.3 61.85 M615.3 57.85 Q613.7 55.9 611.65 55.35 L611.25 55.3 611.75 55.05 Q613.35 54.15 614.35 53.05 M612.35 72.45 Q609.35 63.95 602.35 71.05 M555.6 61.95 Q554.6 62.55 553.55 63.1 551.9 67.35 551.95 70.5 L551.95 70.6 Q552.05 75.8 556.45 78.3 557.3 78.85 558.35 79.2 M551.95 70.5 L547.5 73.7 547.3 74.35 Q546.5 77.65 551.1 79.85 L556.45 78.3 M533.85 79.15 L541.7 88.15 M550.15 83.5 Q546.1 80.85 543.5 77.45 541.2 74.35 539.95 70.7 M552.15 122.95 L552.9 123.55 Q554.2 124.85 554.2 126.75 554.2 128.6 552.9 129.9 M550.2 131.2 L549.7 131.2 Q547.8 131.2 546.5 129.9 545.35 128.75 545.2 127.15 M537.8 137.55 L538.95 137.4 Q540.6 137.4 541.75 138.1 L542.75 139.15 M542.15 141.55 L541.75 141.8 Q540.6 142.6 538.95 142.6 L537.15 142.35 M620.3 105.35 L618.45 105.55 Q616.85 105.55 615.55 104.95 L615.55 107.5 M615.55 104.95 L614.95 104.65 Q613.5 103.75 613.5 102.45 613.5 102.05 613.65 101.7 M619.1 117.1 L617.5 117.3 Q615.75 117.3 614.45 116.4 L613.6 115.6 M615.4 111.7 L617.5 111.35 Q619.25 111.35 620.5 112.2 L620.85 112.5 M598.9 105.85 Q597.6 105.85 596.7 107.25 595.8 108.65 595.8 110.6 595.8 112.55 596.7 113.95 597.6 115.35 598.9 115.35 L599.5 115.3 Q600.4 115.05 601.1 113.95 602.0 112.55 602.0 110.6 L602.0 110.05 601.7 108.55 601.1 107.25 Q600.2 105.85 598.9 105.85 M599.5 115.3 Q599.6 116.35 600.15 117.1 600.9 118.35 602.0 118.35 L602.6 118.3 Q603.3 118.05 603.9 117.1 604.7 115.95 604.7 114.2 L604.4 112.35 Q604.25 111.7 603.9 111.2 603.1 110.05 602.0 110.05 M605.05 107.0 L601.7 108.55 M592.4 123.8 Q593.5 123.1 593.5 122.25 593.5 121.55 592.8 121.0 592.4 121.3 591.95 121.55 590.1 122.6 587.5 122.6 584.9 122.6 583.05 121.55 L582.15 120.9 Q581.3 121.45 581.3 122.25 L581.3 122.45 M581.2 115.55 Q581.6 116.25 582.65 116.85 L582.8 116.9 Q584.6 117.95 587.2 117.95 589.8 117.95 591.6 116.9 L592.05 116.65 Q593.45 115.75 593.45 114.5 593.45 113.1 591.6 112.05 589.95 111.15 587.6 111.05 M592.05 116.65 Q593.85 117.7 593.85 119.05 593.85 120.1 592.8 121.0 M607.5 112.75 L607.4 112.75 Q606.55 112.25 605.55 112.25 L604.4 112.35 M600.7 123.15 Q598.95 123.15 597.65 124.4 596.95 125.2 596.6 126.15 596.45 126.75 596.45 127.45 596.45 129.2 597.65 130.45 598.95 131.75 600.7 131.75 L601.65 131.7 Q602.1 130.85 602.1 129.8 L601.9 128.45 601.75 128.3 601.25 127.3 Q600.7 126.2 600.7 124.85 L600.9 123.15 600.7 123.15 M605.6 120.15 L605.4 120.1 604.35 119.9 Q602.85 119.9 601.75 121.35 601.15 122.2 600.9 123.15 M602.6 118.3 L602.85 118.55 Q603.6 119.25 604.4 119.5 L605.55 119.65 605.7 119.65 M604.3 105.15 Q600.0 101.0 594.5 103.2 M582.15 120.9 Q581.2 120.05 581.2 119.05 581.2 117.85 582.65 116.85 M606.2 129.15 Q605.4 129.8 604.35 129.8 L604.3 129.8 603.7 130.45 Q602.8 131.4 601.65 131.7 L600.9 132.6 599.3 133.65 M601.9 128.45 L601.25 127.3 M604.3 129.8 Q602.85 129.75 601.9 128.45 M596.6 126.15 Q595.9 126.4 595.3 127.0 L594.85 127.6 M609.9 163.45 Q610.2 163.05 610.8 162.75 612.4 161.9 614.7 161.9 616.45 161.9 617.8 162.4 M618.15 167.25 Q616.7 167.9 614.7 167.9 L612.3 167.6 M611.7 183.1 Q612.85 182.4 614.5 182.4 616.1 182.4 617.3 183.1 L617.95 183.6 M615.75 187.45 L614.5 187.6 Q612.85 187.6 611.7 186.8 L611.5 186.65 M597.1 99.95 Q601.8 97.3 604.95 99.95 M336.45 137.55 L334.6 132.8 325.05 144.6 327.4 148.9 Q333.1 146.95 335.4 141.5 336.1 139.65 336.45 137.55 L339.15 144.6 329.65 153.2 327.4 148.9 M337.55 165.0 Q340.9 158.05 345.75 156.9 349.95 155.85 355.3 159.45 M353.0 151.2 Q348.6 146.3 341.2 148.4 L339.5 148.9 Q330.3 155.0 333.25 162.35 M370.3 192.4 L364.75 192.85 Q359.2 194.15 355.8 199.0 L355.5 199.6 M464.2 137.55 Q464.55 139.65 465.3 141.5 467.55 146.95 473.3 148.9 L475.6 144.6 466.05 132.8 464.2 137.55 461.5 144.6 471.0 153.2 473.3 148.9 M430.4 192.4 L435.9 192.85 Q441.45 194.15 444.85 199.0 L445.25 199.6 M447.65 151.2 Q452.05 146.3 459.55 148.4 L461.15 148.9 Q470.35 155.0 467.4 162.35 M445.35 159.45 Q450.7 155.85 455.0 156.9 459.75 158.05 463.1 165.0 M410.25 214.55 L409.45 217.1 Q407.3 222.95 405.2 226.1 L405.55 227.5 Q406.7 232.45 407.15 238.6 L408.25 239.6 Q411.3 242.65 411.3 246.9 411.3 251.2 408.25 254.25 L407.2 255.2 Q406.75 261.95 405.55 267.2 L405.05 269.15 Q408.7 271.55 412.1 278.7 L415.0 285.8 416.5 286.0 Q425.2 286.85 431.8 281.1 435.95 277.35 439.25 270.9 L438.75 268.85 Q415.25 250.35 428.8 231.0 432.25 227.35 437.35 223.7 432.9 216.2 424.45 214.35 418.4 213.0 410.25 214.55 L418.85 198.45 M438.15 225.1 L438.1 224.95 437.35 223.7 M439.9 269.6 L439.25 270.9 M439.9 269.6 L438.75 268.85 M415.0 285.8 L415.1 286.0 416.5 286.0 M390.4 214.55 Q382.25 213.0 376.2 214.35 367.75 216.2 363.3 223.7 368.15 227.95 371.15 232.15 384.45 250.9 360.75 269.6 364.25 277.0 368.95 281.1 376.0 287.35 385.7 285.8 387.5 281.7 389.4 278.6 393.2 271.95 396.8 269.5 L396.25 267.2 Q395.0 261.95 394.6 255.25 L394.6 255.2 393.55 254.25 Q390.5 251.2 390.5 246.9 390.5 242.65 393.55 239.6 L394.65 238.65 Q395.15 232.45 396.25 227.5 L396.3 227.25 Q393.75 224.1 391.25 217.0 L390.4 214.55 381.85 198.45 M394.65 238.65 Q397.35 236.5 400.9 236.5 404.5 236.5 407.15 238.6 M396.3 227.25 Q398.25 219.3 400.9 219.3 403.4 219.3 405.2 226.1 M363.3 223.7 L362.65 224.95 M360.6 269.15 L360.75 269.6 360.1 270.95 M407.2 255.2 Q404.5 257.3 400.9 257.3 397.35 257.3 394.6 255.2 M405.05 269.15 Q403.3 275.45 400.9 275.45 398.55 275.45 396.8 269.5 M421.4 300.3 L415.1 286.0 M379.35 300.3 L385.7 285.8 M354.7 298.8 L354.85 298.9 357.35 302.05 Q361.7 306.45 367.9 306.6 M179.35 405.8 L179.65 405.8 Q181.6 405.7 183.05 404.6 L183.8 403.85 Q184.45 402.9 184.45 401.8 184.45 400.7 183.8 399.85 L183.05 399.0 182.95 398.95 Q181.45 397.85 179.5 397.85 177.5 397.85 176.1 399.0 L175.6 399.5 Q174.65 400.4 174.6 401.6 M338.4 322.05 Q335.6 328.25 340.45 332.65 L341.1 333.2 Q350.85 343.65 356.85 330.9 L355.35 329.75 Q347.35 330.2 344.45 325.5 343.05 323.3 342.75 320.05 M337.8 347.6 L340.15 345.0 Q339.6 341.35 336.9 339.15 L336.8 339.15 Q335.4 337.9 333.25 337.15 L331.6 338.65 M340.15 345.0 L341.75 338.75 Q341.05 335.8 339.55 334.35 338.25 333.25 336.5 333.2 L333.25 337.15 M329.95 340.05 L337.2 348.3 M445.95 298.8 L445.9 298.9 443.35 302.05 Q438.95 306.45 432.8 306.6 M445.3 329.75 Q453.3 330.2 456.3 325.5 457.6 323.3 457.9 320.05 M461.15 334.35 Q459.6 335.8 458.9 338.75 L460.5 345.0 Q461.05 341.35 463.85 339.15 465.25 337.9 467.4 337.15 L464.15 333.2 Q462.4 333.25 461.15 334.35 M445.3 329.75 L443.8 330.9 Q449.8 343.65 459.55 333.2 L460.2 332.65 Q465.05 328.25 462.35 322.05 M469.1 338.65 L467.4 337.15 M460.5 345.0 L462.85 347.6 M463.5 348.3 L470.8 340.05 M409.45 217.1 Q401.5 209.35 391.25 217.0 M389.4 278.6 Q400.15 286.1 412.1 278.7 M604.3 333.05 L602.4 332.85 Q600.65 332.85 599.35 333.45 L599.15 333.55 M605.45 336.5 L605.4 336.5 Q604.15 337.15 602.4 337.15 L601.15 337.1 M601.35 343.9 Q602.85 343.05 604.9 343.05 L606.5 343.25 M608.7 350.2 Q607.1 351.25 604.9 351.25 L603.05 351.05 M598.2 400.0 Q598.65 400.8 600.05 400.8 600.2 400.25 600.7 399.6 601.9 398.05 604.1 396.75 606.25 395.5 608.2 395.3 L608.85 395.25 Q609.1 394.45 608.8 393.9 608.2 392.9 606.25 393.15 L604.5 393.55 M606.2 390.5 L606.85 390.65 Q607.85 390.65 608.6 389.35 L608.9 388.6 Q609.3 387.6 609.3 386.2 609.3 384.55 608.7 383.35 L608.6 383.1 Q608.15 382.25 607.55 382.0 M608.9 388.6 Q610.1 389.75 611.55 389.75 612.55 389.75 613.35 389.25 L614.25 388.55 Q615.4 387.45 615.4 385.9 615.4 384.35 614.25 383.15 L613.85 382.85 Q612.85 382.05 611.55 382.05 610.0 382.05 608.85 383.15 L608.7 383.35 M613.35 389.25 L613.4 389.35 Q614.35 390.65 615.8 390.65 L616.85 390.45 618.2 389.35 618.85 388.25 M625.1 395.25 L624.7 394.85 Q623.4 393.9 621.6 393.9 619.9 393.9 618.7 394.75 L618.45 394.85 Q617.15 395.9 617.15 397.35 617.15 398.25 617.7 398.95 619.2 397.85 621.15 397.85 623.15 397.85 624.55 399.0 L625.1 399.5 Q626.0 398.55 626.0 397.35 626.0 396.15 625.15 395.25 M620.4 389.65 Q619.85 389.9 619.3 390.4 618.2 391.4 618.2 392.9 618.2 393.9 618.7 394.75 M492.7 129.8 L484.75 120.0 486.2 118.85 M488.4 352.8 L480.65 361.15 M248.75 70.5 L248.75 70.6 Q248.6 75.8 244.25 78.3 L249.55 79.85 Q254.15 77.65 253.35 74.35 L253.15 73.7 248.75 70.5 Q248.75 67.35 247.2 63.1 L245.1 61.95 M260.7 70.7 Q259.45 74.35 257.15 77.45 254.55 80.85 250.5 83.5 M266.8 79.15 L259.0 88.15 M180.05 52.1 L180.65 53.55 Q181.75 55.75 184.4 57.3 L185.45 57.85 Q186.95 55.9 189.0 55.35 L189.4 55.3 188.9 55.05 Q187.3 54.15 186.35 53.05 185.55 52.2 185.1 51.25 184.05 49.4 184.55 47.95 L184.55 47.9 M198.05 52.65 Q198.2 53.75 197.65 54.7 196.9 56.0 195.05 56.4 L196.55 57.2 198.3 58.25 198.3 62.2 M193.55 55.8 L193.45 56.35 193.45 56.45 193.95 56.45 194.15 56.45 195.05 56.4 193.55 55.8 Q191.3 55.05 189.45 55.3 L189.4 55.3 Q188.35 54.15 186.8 53.3 L186.35 53.05 M183.35 61.85 Q184.2 59.35 185.45 57.85 M198.3 71.05 Q191.3 63.95 188.35 72.45 M227.95 71.15 L232.8 72.65 Q237.45 71.15 237.5 67.7 237.45 65.05 234.75 61.2 L232.3 60.65 M203.95 107.25 Q203.05 105.85 201.75 105.85 200.45 105.85 199.55 107.25 L198.95 108.55 Q198.7 109.2 198.7 110.05 L198.65 110.6 Q198.65 112.55 199.55 113.95 200.25 115.05 201.25 115.3 L201.75 115.35 Q203.05 115.35 203.95 113.95 204.85 112.55 204.85 110.6 204.85 108.65 203.95 107.25 M208.6 116.65 Q206.8 117.7 206.8 119.05 206.8 120.1 207.85 121.0 L208.7 121.55 Q210.55 122.6 213.15 122.6 215.75 122.6 217.6 121.55 L218.5 120.9 Q219.45 120.05 219.45 119.05 219.45 117.85 218.0 116.85 L217.85 116.9 Q216.05 117.95 213.45 117.95 210.85 117.95 209.05 116.9 L208.6 116.65 Q207.2 115.75 207.2 114.5 207.2 113.1 209.05 112.05 210.7 111.15 213.05 111.05 M208.25 123.8 Q207.15 123.1 207.15 122.25 207.15 121.55 207.85 121.0 M219.45 115.55 L218.0 116.85 M219.35 122.45 L219.35 122.25 Q219.35 121.45 218.5 120.9 M205.85 127.6 L205.35 127.0 204.05 126.15 204.2 127.45 Q204.2 129.2 203.0 130.45 201.7 131.75 199.95 131.75 L199.0 131.7 199.75 132.6 Q200.45 133.3 201.35 133.65 M204.05 126.15 Q203.7 125.2 203.0 124.4 201.7 123.15 199.95 123.15 L199.75 123.15 199.95 124.85 Q199.95 126.2 199.5 127.3 199.15 127.7 198.95 128.25 L198.9 128.35 198.85 128.45 Q198.55 129.1 198.55 129.8 198.55 130.85 199.0 131.7 197.85 131.4 196.95 130.45 L196.35 129.8 196.3 129.8 Q195.25 129.8 194.45 129.15 M198.7 110.05 L198.65 110.05 Q197.55 110.05 196.75 111.2 L196.25 112.35 Q195.95 113.2 195.95 114.2 195.95 115.95 196.75 117.1 197.35 118.05 198.05 118.3 L198.65 118.35 Q199.75 118.35 200.5 117.1 L201.25 115.3 M198.95 108.55 L195.65 107.0 M185.2 107.5 L185.1 104.95 Q183.8 105.55 182.2 105.55 L180.35 105.35 M185.1 104.95 L185.7 104.65 Q187.15 103.75 187.15 102.45 L187.0 101.7 M181.55 117.1 L183.15 117.3 Q184.9 117.3 186.2 116.4 L187.05 115.6 M196.25 112.35 L195.1 112.25 Q194.1 112.25 193.25 112.75 M194.3 119.6 L195.1 119.65 196.25 119.5 197.8 118.55 198.05 118.3 M199.75 123.15 Q199.5 122.2 198.9 121.35 197.8 119.9 196.3 119.9 L195.25 120.1 Q194.85 120.25 194.55 120.55 M179.85 112.5 L180.15 112.2 Q181.4 111.35 183.15 111.35 L185.25 111.7 M198.9 128.35 L198.9 128.3 198.95 128.25 M196.35 129.8 Q197.8 129.75 198.85 128.45 M190.75 163.45 Q190.45 163.05 189.85 162.75 188.25 161.9 185.95 161.9 184.2 161.9 182.9 162.4 M182.6 167.25 Q183.95 167.9 185.95 167.9 L188.35 167.6 M189.0 183.15 L188.95 183.1 Q187.8 182.4 186.15 182.4 184.55 182.4 183.35 183.1 L182.75 183.6 M189.2 186.65 L188.95 186.8 Q187.8 187.6 186.15 187.6 L184.9 187.45 M206.15 103.2 Q200.65 101.0 196.35 105.15 M307.95 129.8 L315.9 120.0 314.55 118.85 M247.75 129.9 Q246.45 128.6 246.45 126.75 246.45 124.85 247.75 123.55 L248.5 122.95 M255.45 127.15 Q255.3 128.75 254.15 129.9 252.85 131.2 250.95 131.2 L250.5 131.2 M258.5 141.55 L258.9 141.8 Q260.05 142.6 261.7 142.6 L263.5 142.35 M262.85 137.55 L261.7 137.4 Q260.05 137.4 258.9 138.1 258.25 138.55 258.0 139.15 M244.25 78.3 L242.3 79.2 M195.7 99.95 Q198.85 97.3 203.55 99.95 M142.0 394.1 L142.4 394.55 Q143.2 395.4 144.3 395.4 145.4 395.4 146.25 394.55 146.85 393.95 146.95 393.25 M146.7 391.35 L146.25 390.7 Q145.4 389.9 144.3 389.9 143.2 389.9 142.4 390.7 141.55 391.55 141.55 392.65 M196.35 333.05 L198.25 332.85 Q200.0 332.85 201.3 333.45 L201.55 333.55 M199.5 337.1 L198.25 337.15 Q196.5 337.15 195.25 336.5 L195.2 336.5 M194.15 343.25 L195.75 343.05 Q197.8 343.05 199.35 343.9 M197.6 351.05 L195.75 351.25 Q193.55 351.25 192.0 350.2 M182.95 398.95 Q183.5 398.25 183.5 397.35 183.5 395.9 182.2 394.85 L182.0 394.75 Q180.75 393.9 179.05 393.9 177.25 393.9 175.95 394.85 L175.55 395.25 Q174.65 396.15 174.65 397.35 174.65 398.55 175.6 399.5 M180.25 389.65 L181.35 390.4 Q182.45 391.4 182.45 392.9 182.45 393.9 182.0 394.75 M186.4 383.15 Q185.25 384.35 185.25 385.9 185.25 387.45 186.4 388.55 186.8 389.0 187.3 389.25 188.1 389.75 189.1 389.75 190.55 389.75 191.75 388.6 191.35 387.6 191.35 386.2 191.35 384.55 191.95 383.35 L191.8 383.15 Q190.65 382.05 189.1 382.05 187.8 382.05 186.8 382.85 L186.4 383.15 M191.95 383.35 L192.05 383.1 Q192.5 382.25 193.1 382.0 M194.45 390.5 L193.8 390.65 Q192.8 390.65 192.05 389.35 L191.75 388.6 M187.3 389.25 L187.25 389.35 Q186.3 390.65 184.85 390.65 L183.8 390.45 182.45 389.35 181.8 388.25 M195.0 405.8 L194.55 405.8 Q192.5 405.5 190.4 404.3 188.15 403.0 187.0 401.45 185.85 399.85 186.4 398.9 186.95 397.9 188.9 398.2 L190.5 398.5 Q189.4 396.95 190.0 396.05 190.45 395.25 191.85 395.25 191.55 394.45 191.95 393.9 192.45 392.9 194.4 393.15 L196.15 393.55 M190.5 398.5 Q191.75 398.9 193.05 399.6 195.2 400.9 196.4 402.45 L196.4 402.55 198.1 402.9 Q200.0 403.1 200.6 402.15 200.9 401.55 200.65 400.8 L200.0 399.6 Q198.75 398.05 196.6 396.75 194.4 395.5 192.45 395.3 L191.85 395.25 M320.0 361.15 L312.3 352.8 M260.65 411.05 L252.8 399.55 M240.6 405.15 Q244.9 407.4 246.55 410.8 248.35 414.7 246.55 420.2 M233.35 406.05 Q232.1 406.05 231.25 406.9 230.7 407.45 230.5 408.2 L230.35 409.05 Q230.35 410.25 231.25 411.1 232.1 412.0 233.35 412.0 L234.2 411.95 235.5 411.1 Q236.35 410.25 236.35 409.05 236.35 407.8 235.5 406.9 234.6 406.05 233.35 406.05 M224.45 411.5 Q224.9 412.75 224.9 414.3 224.9 416.3 224.1 417.75 L223.9 418.05 224.25 417.95 231.0 413.85 234.2 411.95 M223.9 418.05 L223.25 418.85 Q222.7 419.25 222.1 419.25 220.95 419.25 220.15 417.75 L217.95 416.55 M186.5 427.1 Q187.9 428.9 188.6 430.8 190.0 434.4 188.75 437.95 M227.35 423.9 L227.5 423.85 Q233.6 419.8 232.1 415.8 231.8 414.8 231.0 413.85 M220.15 417.75 Q219.3 416.3 219.3 414.3 219.3 412.3 220.15 410.8 220.45 410.15 220.95 409.8 M196.8 405.2 L197.0 405.0 Q197.55 404.05 196.4 402.55 M186.4 409.35 L183.8 408.7 Q181.65 407.85 179.65 405.8 M185.1 440.55 L184.45 432.25 184.45 435.05 183.8 435.8 Q177.3 442.85 169.7 435.05 L170.9 430.8 M184.45 429.45 L184.45 432.25 M182.3 430.5 Q175.3 433.3 172.5 427.6 M202.55 400.0 Q202.0 400.8 200.65 400.8 M152.75 403.9 Q153.6 402.8 153.6 401.25 153.6 399.4 152.35 398.1 151.65 397.45 150.8 397.15 M150.75 397.15 L149.25 396.9 Q147.4 396.9 146.2 398.1 144.9 399.4 144.9 401.25 L144.95 402.1 M625.1 399.5 Q626.0 400.4 626.05 401.6 M621.3 405.8 L621.0 405.8 Q619.0 407.85 616.85 408.7 L614.25 409.35 M618.35 430.5 Q625.35 433.3 628.2 427.6 M617.7 398.95 L617.6 399.0 616.85 399.85 Q616.2 400.7 616.2 401.8 616.2 402.9 616.85 403.85 L617.6 404.6 Q619.05 405.7 621.0 405.8 M605.7 405.8 L606.2 405.8 Q608.15 405.5 610.35 404.3 612.5 403.0 613.65 401.45 614.8 399.85 614.3 398.9 613.7 397.9 611.75 398.2 L610.15 398.5 Q608.9 398.9 607.65 399.6 605.45 400.9 604.3 402.45 L604.25 402.55 Q603.1 404.05 603.7 405.0 L603.7 405.05 603.85 405.2 M610.15 398.5 Q611.25 396.95 610.75 396.05 610.2 395.25 608.85 395.25 M616.2 429.45 L616.2 432.25 616.2 435.05 616.85 435.8 Q623.35 442.85 630.95 435.05 L629.85 430.8 M614.15 427.1 Q612.75 428.9 612.05 430.8 610.65 434.4 611.9 437.95 M616.2 432.25 L615.55 440.55 M604.25 402.55 L602.6 402.9 Q600.65 403.1 600.15 402.15 599.75 401.55 600.05 400.8 M569.4 406.9 Q568.55 406.05 567.3 406.05 566.05 406.05 565.15 406.9 564.3 407.8 564.3 409.05 564.3 410.25 565.15 411.1 565.75 411.7 566.55 411.95 L567.3 412.0 Q568.55 412.0 569.4 411.1 570.3 410.25 570.3 409.05 L570.15 408.2 Q569.95 407.45 569.4 406.9 M566.55 411.95 L569.7 413.85 576.45 417.95 576.75 418.05 576.55 417.75 Q575.75 416.3 575.75 414.3 575.75 412.75 576.2 411.5 M573.15 423.85 Q567.05 419.8 568.55 415.8 568.85 414.8 569.7 413.85 M576.75 418.05 L577.45 418.85 Q577.95 419.25 578.55 419.25 L578.6 419.25 Q579.7 419.25 580.5 417.75 581.35 416.3 581.35 414.3 581.35 412.3 580.5 410.8 580.2 410.15 579.7 409.8 M582.8 416.55 L580.5 417.75 M560.05 405.15 Q555.75 407.4 554.1 410.8 552.3 414.7 554.1 420.2 M540.0 411.05 L547.85 399.55 M540.65 394.6 L533.1 403.9 M260.0 394.6 L267.6 403.9" fill="none" stroke="#000000" stroke-linecap="round" stroke-linejoin="round" stroke-opacity="0.49803922" stroke-width="1.0"/>
  </g>
</svg>
