<?xml version="1.0" encoding="UTF-8" standalone="no"?>
<svg xmlns:xlink="http://www.w3.org/1999/xlink" height="24.95px" width="20.2px" xmlns="http://www.w3.org/2000/svg">
  <g transform="matrix(1.0, 0.0, 0.0, 1.0, -389.75, -146.25)">
    <path d="M396.5 158.05 L399.85 157.7 403.2 158.05 403.2 157.35 Q403.1 154.6 399.85 155.0 396.6 154.6 396.5 157.35 L396.5 158.05 396.5 160.2 Q396.6 162.6 399.85 164.2 403.1 162.6 403.2 160.2 L403.2 158.05" fill="none" stroke="#000000" stroke-linecap="round" stroke-linejoin="round" stroke-opacity="0.5019608" stroke-width="1.0"/>
    <path d="M399.85 170.7 Q406.9 168.2 408.65 161.45 L408.8 160.7 Q411.95 146.75 399.85 146.75 387.75 146.75 390.9 160.7 L391.05 161.45 Q392.8 168.2 399.85 170.7" fill="none" stroke="#000000" stroke-linecap="round" stroke-linejoin="round" stroke-width="1.0"/>
  </g>
</svg>
