<?xml version="1.0" encoding="UTF-8" standalone="no"?>
<svg xmlns:xlink="http://www.w3.org/1999/xlink" height="88.35px" width="84.3px" xmlns="http://www.w3.org/2000/svg">
  <g transform="matrix(1.0, 0.0, 0.0, 1.0, -357.75, -467.4)">
    <path d="M424.95 467.4 L422.9 504.95 423.4 514.95 433.4 533.15 Q430.5 533.3 428.0 534.35 L421.0 514.95 415.95 467.4 424.95 467.4 M418.6 526.7 L417.05 526.7 416.45 524.4 416.45 519.95 Q416.6 522.45 417.6 524.45 L418.6 526.7 Q420.65 531.5 421.4 537.05 L421.75 539.15 Q422.85 544.4 426.2 549.0 L430.45 553.3 439.45 553.3 442.05 548.2 439.95 555.75 429.7 555.75 423.85 550.8 420.7 542.35 418.6 531.35 418.6 526.7 M381.2 526.7 L381.2 531.35 379.1 542.35 375.95 550.8 370.1 555.75 359.85 555.75 357.75 548.2 360.35 553.3 369.35 553.3 373.6 549.0 Q376.95 544.4 378.05 539.15 L378.4 537.05 Q379.15 531.5 381.2 526.7 L382.2 524.45 Q383.2 522.45 383.35 519.95 L383.35 524.4 382.75 526.7 381.2 526.7 M374.85 467.4 L383.85 467.4 379.8 501.15 378.8 514.95 371.8 534.35 Q369.3 533.3 366.4 533.15 L376.4 514.95 376.7 501.1 374.85 467.4" fill="#000000" fill-rule="evenodd" stroke="none"/>
  </g>
</svg>
