<?xml version="1.0" encoding="UTF-8" standalone="no"?>
<svg xmlns:xlink="http://www.w3.org/1999/xlink" height="28.25px" width="30.2px" xmlns="http://www.w3.org/2000/svg">
  <g transform="matrix(1.0, 0.0, 0.0, 1.0, -366.0, -461.3)">
    <path d="M389.4 463.65 L389.45 463.65 392.85 464.6 393.05 464.8 Q394.35 466.2 394.25 467.55 394.0 471.35 395.2 474.05 396.1 476.2 396.2 479.35 392.45 481.55 389.45 484.4 L386.2 487.9 385.95 488.25 Q384.6 489.75 383.55 489.55 382.85 489.35 382.3 488.25 L381.95 487.35 Q382.15 479.25 380.6 471.6 L384.35 470.95 385.3 470.55 385.9 470.2 387.9 469.1 389.4 463.65 M376.4 470.1 Q373.85 475.45 372.15 482.2 L371.75 483.85 371.05 487.25 Q369.2 485.05 367.85 482.7 366.75 480.75 366.0 478.7 L367.85 476.45 Q369.05 474.25 368.85 471.25 L368.3 463.9 Q368.4 462.4 370.55 461.3 L370.85 465.35 Q373.85 468.55 376.4 470.1" fill="#000000" fill-rule="evenodd" stroke="none"/>
  </g>
</svg>
