<?xml version="1.0" encoding="UTF-8" standalone="no"?>
<svg xmlns:xlink="http://www.w3.org/1999/xlink" height="110.05px" width="39.0px" xmlns="http://www.w3.org/2000/svg">
  <g transform="matrix(1.0, 0.0, 0.0, 1.0, -357.1, -443.25)">
    <path d="M376.9 444.95 L382.5 445.55 Q388.05 445.9 394.8 445.65 L396.1 449.9 Q394.3 455.75 392.7 462.05 391.0 462.4 389.6 463.0 382.95 465.5 381.15 471.15 L376.9 470.9 Q376.55 464.45 370.55 461.1 L369.7 443.25 Q372.9 444.3 376.9 444.95 M376.65 538.3 L380.1 524.7 383.35 519.45 Q383.3 522.25 382.2 524.45 379.35 530.15 378.4 537.05 377.6 543.45 373.6 549.0 L369.35 553.3 360.35 553.3 357.75 548.2 357.2 545.6 357.2 545.55 Q356.85 542.55 357.7 539.7 367.9 535.95 375.45 541.9 L376.65 538.3" fill="#000000" fill-rule="evenodd" stroke="none"/>
  </g>
</svg>
