<?xml version="1.0" encoding="UTF-8" standalone="no"?>
<svg xmlns:xlink="http://www.w3.org/1999/xlink" height="68.95px" width="27.2px" xmlns="http://www.w3.org/2000/svg">
  <g transform="matrix(1.0, 0.0, 0.0, 1.0, -357.1, -484.35)">
    <path d="M383.15 492.65 L373.15 492.15 372.35 484.35 Q378.3 486.65 384.3 485.0 L383.55 489.6 383.15 492.65 M368.2 541.9 L368.05 541.25 Q366.15 534.4 360.25 534.8 L362.15 531.8 Q366.75 531.45 369.9 538.55 374.5 533.25 378.45 536.8 L378.4 537.05 377.75 540.5 Q374.35 537.1 369.15 541.8 L368.8 542.1 368.2 542.65 368.2 541.9 M358.5 545.6 Q359.5 548.35 361.0 548.0 361.8 549.35 363.35 548.9 364.75 550.05 366.6 549.3 L367.55 550.3 372.25 550.4 369.35 553.3 360.35 553.3 357.75 548.2 Q356.95 545.4 357.15 542.75 357.05 545.3 358.5 545.6" fill="#000000" fill-rule="evenodd" stroke="none"/>
  </g>
</svg>
