<?xml version="1.0" encoding="UTF-8" standalone="no"?>
<svg xmlns:xlink="http://www.w3.org/1999/xlink" height="107.25px" width="85.6px" xmlns="http://www.w3.org/2000/svg">
  <g transform="matrix(1.0, 0.0, 0.0, 1.0, -357.05, -443.2)">
    <path d="M422.85 444.9 Q426.85 444.25 430.05 443.2 L429.2 461.05 428.85 466.6 427.45 483.8 Q426.6 495.75 428.6 503.65 L424.85 507.2 426.45 510.35 426.45 514.45 441.1 537.2 442.05 539.65 Q442.9 542.45 442.55 545.45 L442.55 545.5 438.8 550.45 430.85 550.45 Q426.75 547.8 424.3 541.8 L423.1 538.25 419.65 524.65 416.4 519.4 Q416.35 518.4 416.45 517.35 L416.5 517.1 416.55 516.6 417.25 514.4 416.75 511.3 418.1 507.6 415.1 503.8 Q411.95 481.0 407.05 462.0 405.45 455.7 403.65 449.85 L404.95 445.6 Q411.7 445.85 417.25 445.5 L422.85 444.9 M376.85 444.9 L382.45 445.5 Q388.0 445.85 394.75 445.6 L396.05 449.85 Q394.25 455.7 392.65 462.0 387.75 481.0 384.6 503.8 L381.6 507.6 382.95 511.3 382.45 514.4 383.15 516.6 383.2 517.1 383.25 517.35 383.3 519.4 380.05 524.65 376.6 538.25 375.4 541.8 Q372.95 547.8 368.85 550.45 L360.9 550.45 357.15 545.5 357.15 545.45 Q356.8 542.45 357.65 539.65 L358.6 537.2 373.25 514.45 373.25 510.35 374.85 507.2 371.1 503.65 Q373.1 495.75 372.25 483.8 L370.85 466.6 370.5 461.05 369.65 443.2 Q372.85 444.25 376.85 444.9" fill="#000000" fill-rule="evenodd" stroke="none"/>
  </g>
</svg>
