<?xml version="1.0" encoding="UTF-8" standalone="no"?>
<svg xmlns:xlink="http://www.w3.org/1999/xlink" height="161.2px" width="86.6px" xmlns="http://www.w3.org/2000/svg">
  <g transform="matrix(1.0, 0.0, 0.0, 1.0, -356.55, -392.55)">
    <path d="M426.9 420.1 L427.6 416.7 427.65 416.7 439.55 398.65 Q435.5 396.15 431.6 394.8 417.95 389.95 406.65 398.65 L403.8 401.1 408.05 416.7 408.3 419.6 408.3 420.05 M426.9 420.1 Q429.65 429.4 428.9 438.15 L429.5 440.8 430.05 443.2 Q429.65 454.9 428.85 466.6 427.9 480.0 426.45 493.45 L424.95 506.35 424.85 507.2 426.45 510.35 426.45 514.45 441.1 537.2 Q443.65 542.4 442.0 548.15 L439.4 553.25 430.4 553.25 426.15 548.95 Q422.15 543.4 421.35 537.0 420.4 530.1 417.55 524.4 416.1 521.45 416.45 517.35 L416.5 517.1 416.55 516.6 417.25 514.4 416.75 511.3 418.1 507.6 418.05 506.35 Q417.9 502.65 416.7 493.45 L416.2 489.55 Q415.1 480.8 411.2 466.6 408.65 457.3 404.95 445.6 L405.4 441.5 405.85 438.45 405.8 438.45 Q405.0 429.5 408.2 420.1 M391.4 419.6 L391.4 420.05 M391.4 419.6 L391.65 416.7 395.9 401.1 393.05 398.65 Q381.75 389.95 368.1 394.8 364.2 396.15 360.15 398.65 L372.05 416.7 372.1 416.7 372.8 420.1 M370.2 440.8 L369.65 443.2 Q370.05 454.9 370.85 466.6 371.8 480.0 373.25 493.45 L374.75 506.35 374.85 507.2 373.25 510.35 373.25 514.45 358.6 537.2 Q356.05 542.4 357.7 548.15 L360.3 553.25 369.3 553.25 373.55 548.95 Q377.55 543.4 378.35 537.0 379.3 530.1 382.15 524.4 383.6 521.45 383.25 517.35 L383.2 517.1 383.15 516.6 382.45 514.4 382.95 511.3 381.6 507.6 381.65 506.35 Q381.8 502.65 383.0 493.45 L383.5 489.55 Q384.6 480.8 388.5 466.6 391.05 457.3 394.75 445.6 L394.3 441.5 393.85 438.45 393.9 438.45 Q394.7 429.5 391.5 420.1 M370.2 440.8 L370.8 438.15 Q370.05 429.4 372.8 420.1" fill="none" stroke="#000000" stroke-linecap="round" stroke-linejoin="round" stroke-width="1.0"/>
    <path d="M427.6 416.7 Q417.55 415.0 408.05 416.7 M408.3 420.05 Q417.3 417.85 426.9 420.1 M408.2 420.1 L408.3 419.6 M408.3 420.05 L408.2 420.1 M405.85 438.45 Q418.05 440.4 428.9 438.15 M429.5 440.8 Q417.45 443.3 405.4 441.5 M391.4 420.05 L391.5 420.1 391.4 419.6 M391.65 416.7 Q382.15 415.0 372.1 416.7 M372.8 420.1 Q382.4 417.85 391.4 420.05 M394.3 441.5 Q382.25 443.3 370.2 440.8 M393.85 438.45 Q381.65 440.4 370.8 438.15" fill="none" stroke="#000000" stroke-linecap="round" stroke-linejoin="round" stroke-opacity="0.5019608" stroke-width="1.0"/>
  </g>
</svg>
