<?xml version="1.0" encoding="UTF-8" standalone="no"?>
<svg xmlns:xlink="http://www.w3.org/1999/xlink" height="96.75px" width="86.6px" xmlns="http://www.w3.org/2000/svg">
  <g transform="matrix(1.0, 0.0, 0.0, 1.0, -356.55, -459.45)">
    <path d="M442.0 548.15 Q443.65 542.4 441.1 537.2 L426.45 514.45 426.45 510.35 424.85 507.2 424.95 506.35 426.45 493.45 Q427.9 480.0 428.85 466.6 L429.25 459.95 Q426.25 460.85 422.85 461.25 L418.1 461.55 409.65 461.1 411.2 466.6 Q415.1 480.8 416.2 489.55 L416.7 493.45 Q417.9 502.65 418.05 506.35 L418.1 507.6 416.75 511.3 417.25 514.4 416.55 516.6 416.5 517.1 416.45 517.35 416.4 517.8 416.4 519.9 M442.0 548.15 L439.9 555.7 429.65 555.7 423.8 550.75 420.65 542.3 418.55 531.3 418.55 526.65 417.0 526.65 416.4 524.35 416.4 519.9 M388.5 466.6 Q384.6 480.8 383.5 489.55 L383.0 493.45 Q381.8 502.65 381.65 506.35 L381.6 507.6 382.95 511.3 382.45 514.4 383.15 516.6 383.2 517.1 383.25 517.35 383.3 517.8 383.3 519.9 383.3 524.35 382.7 526.65 381.15 526.65 381.15 531.3 379.05 542.3 375.9 550.75 370.05 555.7 359.8 555.7 357.7 548.15 Q356.05 542.4 358.6 537.2 L373.25 514.45 373.25 510.35 374.85 507.2 374.75 506.35 373.25 493.45 Q371.8 480.0 370.85 466.6 L370.45 459.95 376.85 461.25 381.6 461.55 390.05 461.1 388.5 466.6" fill="none" stroke="#000000" stroke-linecap="round" stroke-linejoin="round" stroke-width="1.0"/>
    <path d="M416.4 519.9 Q416.55 522.4 417.55 524.4 L418.55 526.65 Q420.6 531.45 421.35 537.0 L421.7 539.1 Q422.8 544.35 426.15 548.95 L430.4 553.25 439.4 553.25 442.0 548.15 M423.9 536.8 Q425.75 535.2 427.95 534.3 L426.4 529.95 424.6 525.05 423.15 520.95 420.95 514.9 420.75 511.0 420.5 506.95 419.95 501.1 419.3 495.75 418.6 489.9 417.9 483.85 417.2 478.3 416.55 472.8 415.9 467.35 424.9 467.35 424.6 472.85 424.3 478.35 424.0 483.85 423.65 489.65 423.35 495.75 423.05 501.05 422.85 504.9 422.95 506.9 423.15 511.35 423.35 514.9 426.3 520.3 428.55 524.35 431.05 528.95 433.35 533.1 436.1 533.15 M424.6 472.85 L416.55 472.8 M424.3 478.35 L417.2 478.3 M423.65 489.65 L418.6 489.9 M417.9 483.85 L424.0 483.85 M374.8 467.35 L375.1 472.85 383.15 472.8 383.8 467.35 374.8 467.35 M375.1 472.85 L375.4 478.35 382.5 478.3 383.15 472.8 M381.1 489.9 L381.8 483.85 375.7 483.85 376.05 489.65 381.1 489.9 380.4 495.75 379.75 501.1 379.2 506.95 378.95 511.0 378.75 514.9 376.55 520.95 375.1 525.05 373.3 529.95 371.75 534.3 Q373.95 535.2 375.8 536.8 M381.8 483.85 L382.5 478.3 M375.4 478.35 L375.7 483.85 M380.4 495.75 L376.35 495.75 376.65 501.05 379.75 501.1 M376.65 501.05 L376.85 504.9 376.75 506.9 379.2 506.95 M376.75 506.9 L376.55 511.35 378.95 511.0 M378.75 514.9 L376.35 514.9 373.4 520.3 376.55 520.95 M376.55 511.35 L376.35 514.9 M383.3 519.9 Q383.15 522.4 382.15 524.4 L381.15 526.65 Q379.1 531.45 378.35 537.0 L378.0 539.1 Q376.9 544.35 373.55 548.95 L369.3 553.25 360.3 553.25 357.7 548.15 M375.1 525.05 L371.15 524.35 368.65 528.95 373.3 529.95 M373.4 520.3 L371.15 524.35 M371.75 534.3 Q369.25 533.25 366.35 533.1 L363.6 533.15 M368.65 528.95 L366.35 533.1 M422.95 506.9 L420.5 506.95 M423.05 501.05 L419.95 501.1 M419.3 495.75 L423.35 495.75 M423.15 511.35 L420.75 511.0 M423.35 514.9 L420.95 514.9 M426.4 529.95 L431.05 528.95 M433.35 533.1 Q430.45 533.25 427.95 534.3 M428.55 524.35 L424.6 525.05 M423.15 520.95 L426.3 520.3 M376.05 489.65 L376.35 495.75" fill="none" stroke="#000000" stroke-linecap="round" stroke-linejoin="round" stroke-opacity="0.5019608" stroke-width="1.0"/>
  </g>
</svg>
