<?xml version="1.0" encoding="UTF-8" standalone="no"?>
<svg xmlns:xlink="http://www.w3.org/1999/xlink" height="34.65px" width="80.7px" xmlns="http://www.w3.org/2000/svg">
  <g transform="matrix(1.0, 0.0, 0.0, 1.0, -359.5, -475.6)">
    <path d="M415.0 498.7 Q416.35 497.85 415.55 497.65 411.9 496.1 410.7 491.7 410.25 491.1 410.0 491.85 407.15 489.15 406.8 486.4 406.7 484.8 406.1 485.65 L405.55 482.1 Q405.25 480.15 404.7 481.65 403.85 477.15 402.9 481.2 401.4 478.7 401.2 483.7 401.1 486.95 401.95 490.65 399.5 488.8 400.55 491.35 L403.4 496.95 Q401.55 496.6 402.55 498.3 404.75 500.1 406.75 503.55 404.25 504.3 405.6 505.35 408.95 506.1 410.75 507.6 409.05 509.2 410.35 509.2 413.85 507.3 417.3 509.75 L418.05 507.65 417.3 506.85 415.25 503.85 Q414.25 502.5 414.15 501.1 415.95 499.05 415.0 498.7 M437.5 478.15 Q436.7 473.85 435.95 478.65 435.5 477.1 435.2 479.2 L434.75 483.05 Q434.25 482.15 434.15 483.85 433.9 486.85 431.4 489.8 431.25 488.95 430.85 489.65 429.85 494.4 426.75 496.1 426.05 496.3 427.25 497.2 426.4 497.65 427.9 499.9 427.85 501.35 426.95 502.8 L424.85 505.6 424.8 507.25 425.9 508.75 Q428.5 506.8 431.15 508.65 432.25 508.65 430.8 506.95 432.35 505.3 435.2 504.45 436.35 503.35 434.2 502.5 435.95 498.75 437.75 496.8 438.6 494.95 437.05 495.4 L439.45 489.25 Q440.35 486.45 438.25 488.5 439.0 484.45 438.9 480.95 438.75 475.5 437.5 478.15 M361.45 488.5 Q360.7 484.45 360.8 480.95 360.95 475.5 362.2 478.15 363.0 473.85 363.75 478.65 364.2 477.1 364.5 479.2 L364.95 483.05 Q365.45 482.15 365.55 483.85 365.8 486.85 368.3 489.8 368.45 488.95 368.85 489.65 369.85 494.4 372.95 496.1 373.65 496.3 372.45 497.2 373.3 497.65 371.8 499.9 371.85 501.35 372.75 502.8 L374.85 505.6 374.9 507.25 373.8 508.75 Q371.2 506.8 368.55 508.65 367.45 508.65 368.9 506.95 367.35 505.3 364.5 504.45 363.35 503.35 365.5 502.5 363.75 498.75 361.95 496.8 361.1 494.95 362.65 495.4 L360.25 489.25 Q359.35 486.45 361.45 488.5 M396.8 481.2 Q398.3 478.7 398.5 483.7 398.6 486.95 397.75 490.65 400.2 488.8 399.15 491.35 397.7 493.75 396.3 496.95 398.15 496.6 397.15 498.3 394.95 500.1 392.95 503.55 395.45 504.3 394.1 505.35 390.75 506.1 388.95 507.6 390.65 509.2 389.35 509.2 385.85 507.3 382.4 509.75 L381.65 507.65 382.4 506.85 384.45 503.85 Q385.45 502.5 385.55 501.1 383.75 499.05 384.7 498.7 383.35 497.85 384.15 497.65 387.8 496.1 389.0 491.7 389.45 491.1 389.7 491.85 392.55 489.15 392.9 486.4 393.0 484.8 393.6 485.65 L394.15 482.1 Q394.45 480.15 395.0 481.65 395.85 477.15 396.8 481.2" fill="none" stroke="#000000" stroke-linecap="round" stroke-linejoin="round" stroke-width="1.0"/>
    <path d="M410.0 491.85 Q410.25 494.35 411.6 496.95 M406.1 485.65 Q406.75 488.8 408.15 491.9 M404.7 481.65 Q404.3 485.95 406.6 490.4 M435.95 478.65 Q436.3 483.4 434.3 488.25 M437.5 478.15 Q437.4 483.85 435.1 488.45 M434.75 483.05 Q434.2 486.5 433.0 489.85 M431.4 489.8 Q431.25 492.55 430.15 495.3 M427.25 497.2 L429.05 496.9 Q430.2 496.55 429.7 498.35 L426.6 506.35 M438.25 488.5 Q436.05 491.7 434.3 495.45 M361.45 488.5 Q363.65 491.7 365.4 495.45 M364.95 483.05 Q365.5 486.5 366.7 489.85 M402.9 481.2 Q403.0 486.35 405.7 490.6 M396.8 481.2 Q396.7 486.35 394.0 490.6 M393.6 485.65 Q392.95 488.8 391.55 491.9 M403.4 496.95 Q405.65 498.4 408.0 501.6 M401.95 490.65 Q404.6 493.6 406.65 497.1 M395.0 481.65 Q395.4 485.95 393.1 490.4 M363.75 478.65 Q363.4 483.4 365.4 488.25 M362.2 478.15 Q362.3 483.85 364.6 488.45 M406.75 503.55 Q409.35 505.25 411.8 505.55 M392.95 503.55 Q390.35 505.25 387.9 505.55 M384.7 498.7 L386.85 498.4 Q388.2 498.05 387.65 499.7 L384.0 507.05 M396.3 496.95 Q394.05 498.4 391.7 501.6 M388.95 507.6 Q387.8 507.0 386.15 507.2 M372.45 497.2 L370.65 496.9 Q369.5 496.55 370.0 498.35 L373.1 506.35 M368.9 506.95 Q369.85 506.25 371.3 506.5 M365.5 502.5 Q367.7 504.4 369.8 504.7 M362.65 495.4 Q364.55 496.9 366.6 500.4 M437.05 495.4 Q435.15 496.9 433.1 500.4 M430.8 506.95 Q429.85 506.25 428.4 506.5 M434.2 502.5 Q432.0 504.4 429.9 504.7 M415.0 498.7 L412.85 498.4 Q411.5 498.05 412.05 499.7 L415.7 507.05 M410.75 507.6 Q411.9 507.0 413.55 507.2 M389.7 491.85 Q389.45 494.35 388.1 496.95 M397.75 490.65 Q395.1 493.6 393.05 497.1 M368.3 489.8 Q368.45 492.55 369.55 495.3" fill="none" stroke="#000000" stroke-linecap="round" stroke-linejoin="round" stroke-opacity="0.49803922" stroke-width="1.0"/>
  </g>
</svg>
