<?xml version="1.0" encoding="UTF-8" standalone="no"?>
<svg xmlns:xlink="http://www.w3.org/1999/xlink" height="141.9px" width="43.2px" xmlns="http://www.w3.org/2000/svg">
  <g transform="matrix(1.0, 0.0, 0.0, 1.0, -356.15, -412.1)">
    <path d="M381.75 426.95 Q380.2 436.15 379.8 445.3 L379.8 454.85 381.2 454.85 Q386.75 450.95 389.75 444.8 388.25 453.75 381.8 461.6 L379.35 514.85 368.65 539.75 Q367.45 542.05 366.8 545.05 365.9 549.15 367.4 553.5 M382.2 500.85 Q382.6 496.75 383.15 492.65 M387.4 470.95 L388.25 467.9 390.05 461.15 M370.25 459.5 L370.3 460.0 370.9 467.15 M372.95 491.75 L373.0 492.2 373.9 499.7 M361.5 553.5 Q360.9 550.85 360.85 547.95 360.65 545.0 361.2 542.5 361.75 540.15 362.7 538.45 L375.3 514.85 Q376.25 511.45 376.45 508.05 L377.0 461.25 Q372.5 452.5 372.0 443.6 373.9 450.65 378.45 454.85 L379.8 454.85" fill="none" stroke="#000000" stroke-linecap="round" stroke-linejoin="round" stroke-opacity="0.5019608" stroke-width="1.0"/>
    <path d="M367.4 553.5 L369.55 553.5 373.8 549.0 Q376.15 546.3 377.25 542.4 L377.3 542.15 377.35 542.0 Q379.1 537.35 379.4 531.9 380.85 527.1 382.65 523.3 384.4 519.5 383.35 515.85 L382.5 514.45 383.0 511.35 381.65 507.65 382.2 500.85 Q389.75 492.6 392.25 481.95 389.6 488.8 383.15 492.65 383.55 489.2 384.1 485.8 385.45 478.2 387.4 470.95 394.0 464.15 397.75 449.85 395.1 456.85 390.05 461.15 392.2 453.4 394.8 445.65 L394.1 439.75 Q393.5 433.4 392.3 430.3 397.0 421.05 398.85 414.1 393.2 422.75 384.65 426.65 L381.75 426.95 381.35 426.95 379.05 426.35 Q371.3 421.3 367.15 412.6 369.0 421.25 372.8 429.75 371.05 434.85 369.7 443.25 369.7 451.4 370.25 459.5 366.45 454.25 365.45 447.45 365.45 457.95 370.9 467.15 L370.9 467.4 371.15 469.8 Q371.75 480.75 372.95 491.75 369.75 488.6 367.2 481.2 368.75 491.85 373.9 499.7 L374.9 507.25 373.3 510.4 373.3 514.4 358.5 536.85 Q357.65 538.2 357.15 540.15 356.6 542.05 356.65 544.4 356.75 546.25 357.65 548.25 L360.15 553.5 361.5 553.5 367.4 553.5" fill="none" stroke="#000000" stroke-linecap="round" stroke-linejoin="round" stroke-width="1.0"/>
  </g>
</svg>
