<?xml version="1.0" encoding="UTF-8" standalone="no"?>
<svg xmlns:xlink="http://www.w3.org/1999/xlink" height="84.7px" width="30.05px" xmlns="http://www.w3.org/2000/svg">
  <g transform="matrix(1.0, 0.0, 0.0, 1.0, -367.8, -428.75)">
    <path d="M383.35 506.0 Q381.1 508.65 378.65 508.9 L378.7 500.95 378.7 500.9 Q379.25 472.75 385.05 442.2 383.55 440.65 381.85 440.25 377.75 439.3 373.75 442.4 L373.8 443.65 Q376.7 477.3 376.1 500.9 L376.1 500.95 375.85 508.45 Q374.35 508.2 373.4 505.85 M395.85 448.7 L395.6 448.85 395.25 449.0 Q394.3 449.35 393.05 448.6 388.95 446.05 385.05 442.2 M369.95 444.4 Q370.8 444.55 371.9 443.8 L373.75 442.4" fill="none" stroke="#000000" stroke-linecap="round" stroke-linejoin="round" stroke-opacity="0.49803922" stroke-width="1.0"/>
    <path d="M373.4 505.85 Q371.35 506.4 371.9 508.2 L376.75 512.95 384.2 508.85 Q384.85 507.25 383.35 506.05 L383.35 506.0 Q384.95 491.2 389.3 476.05 393.2 467.25 395.25 452.95 L395.85 448.7 Q396.75 447.95 397.35 446.0 L379.9 429.25 368.3 441.85 Q368.8 444.1 369.95 444.4 M373.4 505.85 L373.3 505.25 Q369.9 476.25 369.95 444.4" fill="none" stroke="#000000" stroke-linecap="round" stroke-linejoin="round" stroke-width="1.0"/>
  </g>
</svg>
