<?xml version="1.0" encoding="UTF-8" standalone="no"?>
<svg xmlns:xlink="http://www.w3.org/1999/xlink" height="28.55px" width="25.65px" xmlns="http://www.w3.org/2000/svg">
  <g transform="matrix(1.0, 0.0, 0.0, 1.0, -368.5, -416.7)">
    <path d="M385.1 421.35 L385.0 421.25 Q382.3 417.2 378.35 417.2 L376.4 417.5 Q373.75 418.25 371.75 421.25 369.0 425.25 369.0 431.0 369.0 436.7 371.75 440.7 373.05 442.65 374.6 443.7 376.35 444.75 378.35 444.75 382.3 444.75 385.0 440.7 L385.6 439.75 M385.1 421.35 L391.25 420.45 391.25 424.95 393.0 433.55 393.65 437.95 385.6 439.75" fill="none" stroke="#000000" stroke-linecap="round" stroke-linejoin="round" stroke-width="1.0"/>
    <path d="M385.6 439.75 Q387.75 436.0 387.75 431.0 387.75 425.35 385.1 421.35 M376.2 420.55 Q374.5 420.75 373.85 421.9 372.85 423.65 373.5 424.05 L384.65 426.45 383.4 423.95 Q381.35 420.85 378.1 420.55 377.05 420.4 376.2 420.55 M371.05 431.3 Q370.9 432.7 371.85 434.8 L384.2 437.45 Q385.3 435.05 385.4 432.05 L371.7 428.95 Q371.2 429.85 371.05 431.3 M373.5 424.05 Q371.65 425.2 371.7 428.95 M371.85 434.8 Q371.3 437.1 372.35 438.1 L373.7 439.2 381.85 440.75 383.4 438.95 384.2 437.45 M373.7 439.2 L374.8 440.5 Q376.45 442.05 378.5 442.05 380.35 442.05 381.85 440.75 M385.4 432.05 L385.4 431.5 Q385.45 428.7 384.65 426.45 M391.25 424.95 Q390.9 424.0 388.8 425.45 M393.0 433.55 Q390.75 432.45 389.05 434.05" fill="none" stroke="#000000" stroke-linecap="round" stroke-linejoin="round" stroke-opacity="0.49803922" stroke-width="1.0"/>
  </g>
</svg>
