<?xml version="1.0" encoding="UTF-8" standalone="no"?>
<svg xmlns:xlink="http://www.w3.org/1999/xlink" height="111.05px" width="38.7px" xmlns="http://www.w3.org/2000/svg">
  <g transform="matrix(1.0, 0.0, 0.0, 1.0, -356.6, -442.75)">
    <path d="M367.5 523.5 L371.8 516.85 373.3 514.5 373.3 510.4 374.9 507.25 Q371.85 483.6 370.5 460.0 L369.7 443.25 Q373.9 444.65 379.5 445.25 L379.75 445.3 Q386.35 446.0 394.8 445.65 L390.1 461.15 Q384.9 479.25 383.55 489.6 381.6 503.95 381.65 507.65 L383.0 511.35 382.5 514.45 383.2 516.65 383.25 517.15 383.3 517.4 383.35 519.45 Q383.3 522.25 382.2 524.45 381.0 526.85 380.15 529.5 378.95 533.05 378.4 537.05 377.6 543.45 373.6 549.0 L369.35 553.3 360.35 553.3 357.75 548.2 Q356.1 542.45 358.65 537.25 L367.25 523.95" fill="none" stroke="#000000" stroke-linecap="round" stroke-linejoin="round" stroke-width="1.0"/>
    <path d="M367.25 523.95 L367.5 523.5 M381.5 450.65 L381.15 450.9 381.25 451.5 381.45 451.85 381.5 451.85 381.75 451.5 381.85 450.75 381.75 449.95 381.5 449.65 381.25 449.95 381.15 450.75 381.15 450.9 379.4 452.55 379.55 452.8 380.95 455.55 381.0 455.3 381.25 454.95 381.5 455.3 381.6 456.05 381.5 456.85 381.25 457.15 381.2 457.15 381.0 456.85 380.9 456.4 379.3 458.05 379.4 458.3 380.75 460.95 380.8 460.8 381.05 460.45 381.3 460.8 381.4 461.55 381.4 461.6 381.3 462.35 381.05 462.7 381.0 462.65 380.8 462.35 380.7 461.8 379.25 464.15 379.1 464.35 379.2 464.65 379.25 464.75 380.4 467.85 380.45 467.75 Q380.55 467.4 380.7 467.4 L380.9 467.6 380.95 467.75 381.05 468.55 380.95 469.3 380.85 469.55 380.8 469.6 380.7 469.65 380.45 469.3 380.4 469.05 379.05 470.55 380.2 472.75 380.2 472.7 Q380.3 472.35 380.45 472.35 L380.6 472.45 380.65 472.55 380.7 472.7 380.85 473.45 380.7 474.25 380.6 474.45 380.55 474.55 380.45 474.55 380.2 474.25 380.15 474.0 379.0 475.6 380.0 477.65 380.0 477.55 Q380.1 477.2 380.25 477.2 L380.4 477.35 380.45 477.4 380.5 477.55 380.6 478.35 380.5 479.1 380.35 479.45 380.25 479.45 380.0 479.1 379.95 478.95 378.8 480.9 379.6 483.0 Q379.7 482.65 379.85 482.65 L379.95 482.7 380.1 483.0 380.2 483.75 380.1 484.55 379.9 484.9 379.85 484.9 379.6 484.55 379.55 484.4 378.6 486.35 379.35 488.75 379.35 488.65 Q379.45 488.3 379.6 488.3 L379.75 488.4 379.85 488.65 379.95 489.45 379.85 490.2 379.65 490.55 379.6 490.55 379.4 490.3 378.5 492.2 379.0 494.1 379.25 493.8 379.35 493.85 379.5 494.15 379.6 494.9 379.5 495.7 379.3 496.0 379.25 496.0 379.0 495.7 378.95 495.65 378.3 497.55 378.75 499.55 Q378.85 499.25 379.0 499.3 379.05 499.25 379.1 499.35 L379.25 499.6 379.35 500.4 379.25 501.15 379.05 501.5 379.0 501.5 378.8 501.25 378.15 503.35 378.5 505.25 378.7 505.1 378.8 505.2 378.95 505.45 379.05 506.2 378.95 507.0 378.75 507.3 378.7 507.35 378.45 507.05 378.0 508.8 378.0 509.2 378.25 510.8 378.4 510.7 378.5 510.75 378.65 511.05 378.75 511.8 378.65 512.6 378.45 512.9 378.4 512.9 378.2 512.75 377.85 514.0 377.85 514.2 377.85 514.25 378.1 515.0 378.2 515.0 378.4 515.05 378.45 515.1 378.45 515.15 378.55 515.5 378.45 515.85 378.2 516.0 378.05 515.95 377.95 515.85 377.9 515.75 377.15 516.55 377.15 517.5 377.35 517.6 377.4 517.65 377.5 518.0 377.4 518.3 377.15 518.5 377.0 518.45 377.0 518.4 376.9 518.3 376.85 518.25 376.35 518.65 376.3 518.75 376.35 519.7 Q376.45 519.7 376.55 519.85 L376.65 520.2 376.55 520.55 376.3 520.7 376.2 520.7 376.05 520.55 375.95 520.4 375.35 520.8 375.25 521.0 375.35 522.1 375.4 522.1 375.65 522.2 375.65 522.25 375.8 522.6 375.65 522.95 375.4 523.1 375.3 523.1 375.25 523.05 375.15 522.95 375.1 522.75 374.35 523.25 374.6 524.5 374.65 524.5 374.85 524.6 374.9 524.65 375.0 525.0 374.9 525.3 374.85 525.4 374.65 525.5 374.5 525.45 374.4 525.3 374.3 525.15 373.35 525.7 373.3 525.8 373.6 527.05 373.85 526.95 Q373.95 526.95 374.1 527.1 L374.2 527.45 374.1 527.8 373.85 527.95 373.75 527.9 373.6 527.8 373.5 527.55 372.35 528.1 372.95 529.5 373.15 529.4 373.35 529.5 373.4 529.55 373.5 529.9 373.4 530.25 373.15 530.4 373.0 530.35 372.9 530.25 372.8 530.1 371.5 530.55 372.3 531.75 372.55 531.65 372.8 531.8 372.9 532.15 372.9 532.25 372.8 532.5 372.55 532.65 372.45 532.65 372.3 532.5 372.2 532.15 372.3 531.8 372.3 531.75 372.9 532.25 M369.7 531.2 L369.75 531.4 369.65 531.75 369.45 531.9 369.4 531.9 369.25 531.85 369.15 531.75 369.05 531.6 369.0 531.4 369.05 531.25 369.15 531.05 Q369.25 530.9 369.4 530.9 L369.45 530.9 369.65 531.05 369.7 531.2 370.7 530.85 371.1 530.0 370.75 529.45 370.5 529.6 370.3 529.5 370.25 529.45 370.15 529.25 370.15 529.1 370.25 528.75 370.45 528.6 370.5 528.6 370.65 528.7 370.75 528.75 370.75 528.8 371.9 528.3 372.15 527.7 371.85 527.05 371.65 527.1 371.5 527.05 371.4 526.95 371.35 526.75 371.3 526.6 371.4 526.25 371.6 526.15 371.65 526.1 371.9 526.25 371.95 526.25 372.0 526.4 373.05 525.85 373.2 525.45 373.0 524.65 372.95 524.65 372.7 524.55 372.7 524.5 372.55 524.15 372.6 524.0 Q372.8 523.65 372.95 523.65 L373.1 523.75 373.2 523.8 373.25 523.9 374.2 523.3 374.3 523.1 374.15 522.3 374.05 522.3 373.9 522.25 373.8 522.15 373.7 521.8 373.8 521.45 Q373.9 521.3 374.05 521.3 L374.25 521.4 374.3 521.45 374.35 521.5 375.25 520.9 375.15 520.05 375.05 520.0 374.9 519.9 374.85 519.8 374.85 519.7 374.8 519.55 374.9 519.2 Q375.0 519.05 375.15 519.05 L375.4 519.2 375.5 519.35 376.1 518.85 376.3 518.4 376.3 517.95 376.25 517.95 376.05 517.9 376.0 517.8 375.85 517.45 376.0 517.15 376.25 516.95 376.45 517.05 376.5 517.15 376.55 517.2 377.0 516.7 377.15 516.3 377.15 515.75 377.1 515.7 377.0 515.6 376.9 515.25 377.0 514.9 Q377.1 514.75 377.25 514.75 L377.3 514.75 377.4 514.85 377.7 514.35 377.7 514.3 377.4 512.4 377.3 512.5 377.25 512.45 377.05 512.15 376.95 511.35 377.05 510.6 377.3 510.25 377.55 510.5 377.85 509.3 377.9 508.6 377.55 506.7 377.4 506.75 377.15 506.45 377.05 505.65 377.15 504.9 377.4 504.55 377.65 504.9 378.0 503.75 378.05 502.85 377.7 500.9 377.55 500.95 377.5 500.9 377.3 500.6 377.2 499.85 377.3 499.05 377.55 498.75 377.8 499.0 378.2 497.8 378.2 497.25 377.75 495.3 377.65 495.35 377.4 495.05 377.3 494.25 377.4 493.5 Q377.5 493.15 377.65 493.15 L377.9 493.5 378.35 492.6 378.35 492.55 378.35 491.6 377.8 489.5 377.6 489.7 377.55 489.7 377.35 489.35 377.25 488.6 377.35 487.8 377.6 487.5 377.85 487.8 377.85 487.85 378.45 486.6 378.5 486.0 377.85 483.95 377.6 484.2 377.55 484.2 377.35 483.9 377.25 483.1 377.35 482.35 Q377.45 482.0 377.6 482.0 L377.85 482.35 377.9 482.45 378.6 481.25 378.6 480.45 377.75 478.35 377.5 478.7 377.45 478.7 377.3 478.4 377.25 478.35 377.15 477.55 377.25 476.8 377.3 476.65 377.5 476.45 377.75 476.8 377.85 477.2 378.7 475.95 378.75 474.95 377.8 472.9 377.75 473.0 377.5 473.35 377.45 473.35 377.4 473.3 377.25 473.0 377.15 472.25 377.25 471.45 377.4 471.2 377.5 471.15 377.75 471.45 377.85 471.9 378.8 470.85 378.85 470.1 377.7 467.85 377.65 468.0 377.5 468.25 377.4 468.3 377.35 468.25 377.15 468.0 377.05 467.2 377.15 466.45 377.4 466.1 377.5 466.15 377.65 466.45 377.7 466.6 378.95 464.6 379.0 464.0 377.7 460.55 377.7 460.65 377.65 460.85 377.45 461.0 377.4 460.95 377.2 460.65 377.1 459.9 377.2 459.1 377.45 458.8 377.65 459.05 377.7 459.1 377.8 459.6 379.1 458.25 379.1 457.75 377.65 454.9 377.6 455.1 377.35 455.4 377.3 455.35 377.1 455.1 377.0 454.3 377.1 453.5 377.35 453.2 377.6 453.5 377.7 454.05 379.25 452.7 379.25 452.25 377.75 449.3 377.65 449.6 377.4 449.95 377.35 449.9 377.15 449.6 377.05 448.85 377.15 448.05 377.4 447.7 377.65 448.05 377.8 448.85 377.75 449.3 377.4 448.7 M379.5 445.25 L379.25 452.25 379.4 452.55 379.25 452.7 379.1 457.75 379.3 458.05 379.1 458.25 379.0 464.0 379.1 464.35 378.95 464.6 378.85 470.1 379.05 470.5 379.05 470.55 379.05 470.6 378.8 470.85 378.75 474.95 379.0 475.6 378.85 475.75 378.7 475.95 378.6 480.45 378.7 480.75 378.8 480.9 378.7 481.05 378.6 481.25 378.5 486.0 378.55 486.25 378.6 486.35 378.55 486.5 378.45 486.6 378.35 491.6 378.4 491.75 378.5 492.2 378.35 492.55 378.4 491.75 M377.35 454.35 L377.65 454.9 377.7 454.3 377.7 454.05 377.35 454.35 M380.9 456.05 L380.9 456.4 381.2 456.05 380.95 455.55 380.9 456.05 M380.7 461.55 L380.7 461.8 380.85 461.55 381.0 461.35 380.75 460.95 380.7 461.55 M377.7 460.55 L377.8 459.9 377.8 459.6 377.5 459.9 377.7 460.55 M379.2 464.65 L379.2 464.7 379.25 464.75 M377.7 467.85 L377.35 467.15 377.7 466.6 377.75 467.2 377.7 467.85 M380.4 467.85 L380.35 468.55 380.4 469.05 380.7 468.7 380.4 467.85 M370.5 460.0 Q373.2 460.8 376.2 461.2 L376.95 514.7 372.5 522.75 Q371.75 520.7 371.8 516.85 M380.15 474.0 L380.55 473.45 380.2 472.75 380.1 473.45 380.15 474.0 M377.8 472.9 L377.85 472.25 377.85 471.9 377.5 472.3 377.8 472.9 M377.5 477.65 L377.75 478.35 377.85 477.55 377.85 477.2 377.5 477.65 M380.3 478.3 L380.0 477.65 379.9 478.35 379.95 478.95 380.3 478.3 M379.5 483.75 L379.55 484.4 379.9 483.7 379.6 483.0 379.5 483.75 M377.85 483.95 L377.85 483.9 378.0 483.1 377.9 482.45 377.6 483.0 377.85 483.95 M377.85 487.85 L377.55 488.5 377.8 489.5 377.85 489.35 377.95 488.6 377.85 487.85 M379.4 490.3 L379.65 489.7 379.35 488.75 379.25 489.45 379.35 490.2 379.4 490.3 M377.9 493.5 L378.0 494.25 377.9 495.05 377.75 495.3 377.55 494.35 377.9 493.5 M379.0 494.1 L379.2 494.95 378.95 495.65 378.85 494.9 Q378.85 494.45 379.0 494.15 L379.0 494.1 M390.1 461.15 L382.3 461.6 379.25 515.1 375.7 525.05 Q378.4 524.65 383.35 519.45 M378.2 497.8 L378.25 497.75 378.25 497.3 378.2 497.25 378.35 492.6 M378.75 499.6 L378.65 500.4 378.75 501.15 378.8 501.25 379.0 500.55 378.75 499.55 378.75 499.6 M377.8 499.0 L377.8 499.05 377.9 499.85 377.8 500.6 377.7 500.9 377.5 499.75 377.8 499.0 M378.0 503.75 L378.1 503.45 378.1 503.2 378.05 502.85 378.2 497.8 M378.1 503.45 L378.15 503.35 378.1 503.2 M378.45 505.45 Q378.3 505.75 378.3 506.2 378.3 506.65 378.45 507.0 L378.45 507.05 378.65 506.2 378.5 505.25 378.45 505.45 M377.65 504.9 L377.4 505.8 377.55 506.7 377.65 506.45 377.8 505.65 377.65 504.9 M378.0 509.2 L377.95 508.95 377.85 509.3 377.7 514.3 M377.95 508.95 L377.9 508.6 378.0 503.75 M378.0 508.8 L377.95 508.95 M378.05 511.8 L378.15 512.6 378.2 512.75 378.45 511.85 378.25 510.8 378.15 511.05 378.05 511.8 M377.4 512.4 L377.3 511.45 377.55 510.5 377.55 510.6 377.65 511.35 377.55 512.15 377.4 512.4 M377.85 514.0 L377.8 514.25 377.85 514.2 M377.75 514.4 L377.8 514.25 377.7 514.35 377.75 514.4 M377.4 514.85 L377.15 515.25 377.15 515.75 377.25 515.75 377.4 515.7 377.6 515.2 377.5 514.9 377.4 514.85 M377.8 514.25 L377.75 514.85 377.6 515.35 377.5 515.6 377.4 515.7 377.15 516.3 377.15 516.55 377.0 516.7 376.3 518.4 376.3 518.7 376.35 518.65 M377.85 515.5 L377.85 515.55 377.9 515.75 378.2 515.4 378.1 515.0 377.95 515.15 377.85 515.5 M377.6 515.35 L377.6 515.25 377.6 515.2 377.75 514.85 M376.5 517.8 L376.6 517.45 376.55 517.2 376.25 517.45 376.3 517.95 376.5 517.8 M376.85 518.25 L376.8 518.0 376.9 517.65 377.15 517.5 377.15 518.0 376.85 518.25 M375.5 519.35 L375.15 519.65 375.15 520.05 375.4 519.9 375.55 519.55 375.5 519.35 M376.3 518.75 L376.3 518.7 376.1 518.85 375.3 520.85 375.35 520.8 M376.3 519.7 Q376.15 519.7 376.05 519.85 L375.95 520.2 375.95 520.4 376.3 520.2 376.35 519.7 376.3 519.7 M375.3 520.85 L375.25 520.95 375.25 521.0 375.1 521.35 374.3 523.1 374.35 523.25 374.2 523.3 373.2 525.45 373.25 525.7 373.35 525.7 M375.1 521.35 L375.25 520.95 375.25 520.9 375.3 520.85 M375.05 522.6 L375.1 522.75 375.4 522.6 375.35 522.1 375.15 522.25 375.05 522.6 M374.15 522.3 L374.0 521.7 374.35 521.5 374.4 521.8 374.3 522.15 374.15 522.3 M372.9 524.25 L373.0 524.65 373.2 524.5 373.3 524.15 373.25 523.9 372.9 524.25 M373.3 525.8 L373.25 525.7 373.05 525.85 372.15 527.7 372.35 528.1 371.9 528.3 371.1 530.0 371.5 530.55 371.3 530.65 370.7 530.85 369.0 534.45 Q372.35 535.1 380.15 529.5 M374.4 524.65 L374.3 525.0 374.3 525.15 374.7 524.95 374.6 524.5 Q374.45 524.5 374.4 524.65 M373.6 527.05 L373.6 527.1 373.5 527.45 373.5 527.55 373.7 527.45 373.6 527.05 M372.0 526.4 L371.65 526.6 371.85 527.05 371.95 526.95 372.05 526.6 372.0 526.4 M370.45 529.0 L370.75 529.45 370.85 529.1 370.75 528.8 370.45 529.0 M372.9 529.55 L372.8 529.9 372.8 530.1 373.2 529.95 372.95 529.5 372.9 529.55 M369.7 531.2 L369.05 531.25 M369.0 534.45 Q365.05 533.6 367.25 523.95" fill="none" stroke="#000000" stroke-linecap="round" stroke-linejoin="round" stroke-opacity="0.49803922" stroke-width="1.0"/>
    <path d="M380.85 461.55 L380.7 461.55" fill="none" stroke="#000000" stroke-linecap="round" stroke-linejoin="round" stroke-opacity="0.2509804" stroke-width="1.0"/>
  </g>
</svg>
