<?xml version="1.0" encoding="UTF-8" standalone="no"?>
<svg xmlns:xlink="http://www.w3.org/1999/xlink" height="36.95px" width="64.2px" xmlns="http://www.w3.org/2000/svg">
  <g transform="matrix(1.0, 0.0, 0.0, 1.0, -367.75, -446.75)">
    <path d="M431.0 446.8 Q431.55 449.9 431.95 454.55 L429.35 455.65 428.35 448.0 431.0 446.8 M431.0 467.6 L428.75 468.7 428.2 460.85 430.55 459.85 431.0 467.6 M426.5 459.4 L427.35 471.35 426.2 471.7 426.75 481.9 424.05 482.75 417.9 483.7 411.75 483.2 409.6 482.7 409.1 472.15 406.6 471.55 405.9 459.5 402.8 458.85 Q402.3 453.85 403.75 446.75 L404.5 447.05 Q416.85 451.65 426.85 446.95 L428.35 458.6 426.5 459.4 M427.45 473.7 L429.75 473.1 429.95 478.85 427.85 479.45 427.85 479.4 427.45 473.7 M393.8 459.5 L393.1 471.55 390.6 472.15 390.1 482.7 387.95 483.2 381.85 483.7 375.65 482.75 372.95 481.9 373.5 471.7 372.35 471.35 373.2 459.4 371.35 458.6 372.85 446.95 Q382.85 451.65 395.2 447.05 L395.95 446.75 Q397.4 453.85 396.9 458.85 L393.8 459.5 M370.35 455.65 L367.75 454.55 Q368.15 449.9 368.7 446.8 L371.35 448.0 370.35 455.65 M369.15 459.85 L371.5 460.85 370.95 468.7 368.7 467.6 369.15 459.85 M369.75 478.85 L369.95 473.1 372.25 473.7 371.85 479.4 371.85 479.45 369.75 478.85" fill="#000000" fill-rule="evenodd" stroke="none"/>
  </g>
</svg>
