<?xml version="1.0" encoding="UTF-8" standalone="no"?>
<svg xmlns:xlink="http://www.w3.org/1999/xlink" height="160.15px" width="38.85px" xmlns="http://www.w3.org/2000/svg">
  <g transform="matrix(1.0, 0.0, 0.0, 1.0, -357.05, -393.05)">
    <path d="M391.5 420.1 Q394.7 429.5 393.9 438.45 L393.85 438.45 Q381.65 440.4 370.8 438.15 370.05 429.4 372.8 420.1 382.4 417.85 391.4 420.05 L391.5 420.1 M395.9 401.1 L391.65 416.7 Q382.15 415.0 372.1 416.7 L372.05 416.7 360.15 398.65 Q364.2 396.15 368.1 394.8 381.75 389.95 393.05 398.65 L395.9 401.1 M370.2 440.8 Q382.25 443.3 394.3 441.5 L394.75 445.6 Q391.05 457.3 388.5 466.6 384.6 480.8 383.5 489.55 L383.0 493.45 Q381.8 502.65 381.65 506.35 L381.6 507.6 382.95 511.3 382.45 514.4 383.15 516.6 383.2 517.1 383.25 517.35 Q383.6 521.45 382.15 524.4 379.3 530.1 378.35 537.0 377.55 543.35 373.55 548.9 L369.3 553.2 360.3 553.2 357.7 548.1 Q356.05 542.35 358.6 537.2 L373.25 514.45 373.25 510.35 374.85 507.2 374.75 506.35 373.25 493.45 Q371.8 480.0 370.85 466.6 370.05 454.9 369.65 443.2 L370.2 440.8" fill="#000000" fill-rule="evenodd" stroke="none"/>
  </g>
</svg>
