<?xml version="1.0" encoding="UTF-8" standalone="no"?>
<svg xmlns:xlink="http://www.w3.org/1999/xlink" height="101.35px" width="169.4px" xmlns="http://www.w3.org/2000/svg">
  <g transform="matrix(1.0, 0.0, 0.0, 1.0, -315.2, -416.05)">
    <path d="M317.75 461.9 Q320.4 438.6 324.85 416.55 L345.35 420.4 Q340.2 441.2 337.1 463.0 L325.55 511.35 325.55 516.85 315.7 516.25 317.3 510.85 317.6 463.3 317.75 461.95 317.75 461.9 337.1 463.0 M454.5 420.45 Q459.6 441.2 462.7 463.0 L482.05 461.9 Q479.4 438.6 474.95 416.55 L454.5 420.45 M462.7 463.0 L474.25 511.35 474.25 516.8 484.1 516.25 482.5 510.85 482.2 463.3 482.05 461.95 482.05 461.9" fill="none" stroke="#000000" stroke-linecap="round" stroke-linejoin="round" stroke-opacity="0.5019608" stroke-width="1.0"/>
  </g>
</svg>
