<?xml version="1.0" encoding="UTF-8" standalone="no"?>
<svg xmlns:xlink="http://www.w3.org/1999/xlink" height="159.9px" width="169.4px" xmlns="http://www.w3.org/2000/svg">
  <g transform="matrix(1.0, 0.0, 0.0, 1.0, -315.2, -357.5)">
    <path d="M360.65 361.85 Q350.4 360.3 340.55 358.0 L340.55 358.05 Q324.1 406.35 317.75 461.9 L337.1 463.0 Q343.7 416.7 359.4 374.85 L360.65 361.85 M439.15 361.9 Q449.4 360.3 459.25 358.0 L459.25 358.05 Q475.7 406.35 482.05 461.9 L482.05 461.95 482.2 463.3 482.5 510.85 484.1 516.25 474.25 516.8 474.25 511.35 462.7 463.0 Q456.1 416.7 440.4 374.85 L439.15 361.9 M317.75 461.9 L317.75 461.95 317.6 463.3 317.3 510.85 315.7 516.25 325.55 516.85 325.55 511.35 337.1 463.0 M482.05 461.9 L462.7 463.0" fill="none" stroke="#000000" stroke-linecap="round" stroke-linejoin="round" stroke-opacity="0.5019608" stroke-width="1.0"/>
  </g>
</svg>
