<?xml version="1.0" encoding="UTF-8" standalone="no"?>
<svg xmlns:xlink="http://www.w3.org/1999/xlink" height="128.05px" width="168.4px" xmlns="http://www.w3.org/2000/svg">
  <g transform="matrix(1.0, 0.0, 0.0, 1.0, -315.7, -388.85)">
    <path d="M447.2 394.55 Q457.7 391.55 468.55 388.9 477.7 423.65 482.05 461.9 L482.05 461.95 482.2 463.3 482.5 510.85 484.1 516.25 474.25 516.8 474.25 511.35 462.7 463.0 Q457.65 427.45 447.2 394.55 M331.3 388.85 L352.6 394.5 Q342.15 427.4 337.1 463.0 L325.55 511.35 325.55 516.85 315.7 516.25 317.3 510.85 317.6 463.3 317.75 461.95 317.75 461.9 Q322.1 423.65 331.3 388.85" fill="#000000" fill-rule="evenodd" stroke="none"/>
  </g>
</svg>
