<?xml version="1.0" encoding="UTF-8" standalone="no"?>
<svg xmlns:xlink="http://www.w3.org/1999/xlink" height="39.55px" width="148.5px" xmlns="http://www.w3.org/2000/svg">
  <g transform="matrix(1.0, 0.0, 0.0, 1.0, -325.65, -192.15)">
    <path d="M346.5 192.15 L347.65 193.75 351.15 198.05 351.5 198.4 335.0 206.7 Q332.75 204.65 330.25 201.85 L325.65 196.35 326.9 196.25 336.8 194.8 Q341.7 193.7 346.5 192.15 M453.3 192.15 L463.0 194.8 472.9 196.25 474.15 196.35 469.55 201.85 464.8 206.7 448.3 198.4 448.65 198.05 452.15 193.75 453.3 192.15 M431.45 210.45 Q436.75 207.95 441.15 204.75 L454.95 214.4 Q448.65 218.7 441.65 221.95 L431.45 210.45 M413.25 215.7 Q417.9 215.1 421.2 214.2 L427.95 227.05 426.45 227.5 422.4 228.55 414.2 230.2 411.05 221.35 413.25 215.7 M408.5 214.35 Q408.5 217.75 406.1 220.15 403.7 222.55 400.3 222.55 L399.9 222.55 399.5 222.55 Q396.1 222.55 393.7 220.15 391.3 217.75 391.3 214.35 391.3 210.95 393.7 208.55 396.1 206.15 399.5 206.15 L399.9 206.15 400.3 206.15 Q403.7 206.15 406.1 208.55 408.5 210.95 408.5 214.35 M388.75 221.35 L385.6 230.2 377.4 228.55 373.35 227.5 371.85 227.05 378.6 214.2 386.55 215.7 388.75 221.35 M399.9 225.55 L402.25 225.55 404.05 231.5 401.5 231.65 401.25 231.7 399.9 231.6 398.55 231.7 398.3 231.65 395.75 231.5 397.55 225.55 399.9 225.55 M344.85 214.4 L358.65 204.75 Q363.05 207.95 368.35 210.45 L358.1 221.9 Q351.1 218.7 344.85 214.4" fill="#000000" fill-rule="evenodd" stroke="none"/>
  </g>
</svg>
