<?xml version="1.0" encoding="UTF-8" standalone="no"?>
<svg xmlns:xlink="http://www.w3.org/1999/xlink" height="375.0px" width="303.05px" xmlns="http://www.w3.org/2000/svg">
  <g transform="matrix(1.0, 0.0, 0.0, 1.0, -23.1, -15.9)">
    <path d="M66.25 282.35 L66.65 282.55 66.25 282.5 66.25 282.35" fill="#cccccc" fill-rule="evenodd" stroke="none"/>
    <path d="M259.5 35.15 L259.45 23.85 Q307.95 179.65 317.45 285.95 326.9 392.25 324.75 389.85 323.05 389.85 322.7 386.35 319.75 367.6 317.8 362.1 L315.55 346.5 Q307.05 205.2 259.5 35.15 M242.65 138.95 L242.7 138.95 Q258.9 90.8 259.5 36.0 260.1 46.65 260.0 57.5 259.8 68.2 258.85 79.3 257.95 89.35 256.45 99.65 255.2 108.1 253.55 116.7 L250.55 131.4 247.5 143.65 242.05 147.15 236.7 150.6 229.8 155.1 222.2 160.0 216.35 163.9 211.4 167.2 205.7 170.85 203.0 172.55 199.95 171.4 189.05 167.05 177.85 162.35 167.25 158.0 156.55 153.8 147.4 150.05 138.5 146.35 130.65 143.25 123.95 140.55 126.05 134.6 123.95 140.55 123.35 132.1 122.7 122.45 122.2 108.35 Q121.8 99.05 121.85 90.55 L122.4 90.55 Q122.3 112.45 126.05 134.6 L203.0 162.95 203.0 172.55 203.0 162.95 242.65 138.95 247.5 143.65 242.65 138.95 M189.8 149.15 L185.9 142.15 Q183.2 137.35 181.1 132.55 178.7 127.4 176.9 122.05 174.65 115.7 173.2 109.35 171.8 104.05 171.0 98.8 169.9 91.15 169.7 83.4 171.7 78.25 174.2 80.8 181.35 136.4 203.0 153.4 L189.8 149.15 M219.65 92.95 L219.65 93.2 219.95 104.7 219.95 106.95 219.25 117.15 Q218.85 121.95 218.0 126.55 217.3 131.2 216.2 135.6 L213.95 143.85 212.4 148.35 203.0 153.4 Q215.15 137.35 215.05 86.8 217.4 83.15 219.65 92.95 M128.35 37.1 L128.15 37.0 Q83.95 139.15 42.1 346.5 L38.2 362.1 Q34.95 367.6 30.05 386.35 29.35 389.85 26.6 389.85 23.65 389.35 24.15 387.5 63.45 181.1 125.65 21.6 127.15 16.0 131.9 17.1 132.8 17.25 133.35 17.75 130.45 27.4 128.35 37.1" fill="#000000" fill-opacity="0.2509804" fill-rule="evenodd" stroke="none"/>
    <path d="M259.5 36.0 L259.45 34.9 259.5 35.15 Q307.05 205.2 315.55 346.5 L317.8 362.1 Q311.9 342.3 305.75 324.1 297.6 204.0 260.0 57.5 297.6 204.0 305.75 324.1 L298.75 304.15 291.4 284.55 282.6 263.05 275.9 248.05 270.4 236.5 Q261.65 187.85 247.5 143.65 L250.55 131.4 253.55 116.7 Q255.2 108.1 256.45 99.65 257.95 89.35 258.85 79.3 259.8 68.2 260.0 57.5 260.1 46.65 259.5 36.0 M219.65 93.2 L219.7 93.2 Q223.3 101.75 230.05 138.7 L226.3 140.7 220.35 106.85 226.3 140.7 223.4 142.4 219.25 117.15 219.95 106.95 220.35 106.85 219.95 104.7 219.65 93.2 M213.95 143.85 L216.2 135.6 Q217.3 131.2 218.0 126.55 L220.65 143.85 217.7 145.45 214.45 147.15 213.95 143.85 M217.7 145.45 L216.2 135.6 217.7 145.45 M210.85 196.95 L211.15 196.9 211.15 196.85 214.65 195.35 216.9 194.25 217.85 193.9 220.95 192.6 Q223.9 214.85 226.3 236.85 223.9 214.85 220.95 192.6 L223.05 191.6 224.45 192.6 228.1 195.25 231.9 198.0 236.15 201.3 238.2 202.9 240.95 205.3 Q246.8 243.3 254.1 294.15 L247.5 278.75 246.05 275.45 241.15 265.2 235.55 254.0 230.8 244.9 226.3 236.85 221.65 229.15 Q220.05 211.45 217.85 193.9 220.05 211.45 221.65 229.15 L217.2 221.75 212.65 214.7 207.05 206.2 203.0 200.55 206.7 198.95 207.05 206.2 206.7 198.95 210.85 196.95 M241.15 265.2 Q236.8 231.6 231.9 198.0 236.8 231.6 241.15 265.2 M214.65 195.35 L217.2 221.75 214.65 195.35 M236.15 201.3 Q242.15 240.0 247.5 278.75 242.15 240.0 236.15 201.3 M298.75 304.15 Q290.55 215.4 258.85 79.3 290.55 215.4 298.75 304.15 M291.4 284.55 Q279.95 196.3 256.45 99.65 279.95 196.3 291.4 284.55 M253.55 116.7 Q274.5 191.05 282.6 263.05 274.5 191.05 253.55 116.7 M275.9 248.05 Q269.6 191.6 250.55 131.4 269.6 191.6 275.9 248.05 M235.55 254.0 Q232.2 224.95 228.1 195.25 232.2 224.95 235.55 254.0 M224.45 192.6 L230.8 244.9 224.45 192.6 M212.65 214.7 Q212.1 205.85 211.15 196.9 212.1 205.85 212.65 214.7" fill="url(#gradient0)" fill-rule="evenodd" stroke="none"/>
    <path d="M169.7 83.4 Q169.9 91.15 171.0 98.8 171.8 104.05 173.2 109.35 174.65 115.7 176.9 122.05 178.7 127.4 181.1 132.55 183.2 137.35 185.9 142.15 L189.8 149.15 184.3 147.3 185.9 142.15 184.3 147.3 176.85 144.75 170.1 142.55 163.5 140.4 Q168.05 124.7 173.2 109.35 168.05 124.7 163.5 140.4 L157.45 138.4 149.6 135.8 Q158.75 109.4 169.7 83.4 M171.0 98.8 Q163.85 118.35 157.45 138.4 163.85 118.35 171.0 98.8 M176.9 122.05 Q173.35 132.15 170.1 142.55 173.35 132.15 176.9 122.05 M181.1 132.55 L176.85 144.75 181.1 132.55 M123.35 132.1 L123.95 140.55 90.3 240.4 Q86.6 246.2 83.2 251.95 101.6 190.45 123.35 132.1 101.6 190.45 83.2 251.95 L76.5 263.55 73.95 268.25 Q70.3 275.1 66.85 282.15 L66.65 282.55 66.25 282.35 Q91.0 193.8 122.2 108.35 91.0 193.8 66.25 282.35 L66.25 282.5 Q65.7 283.9 65.3 285.45 L65.1 285.75 Q61.15 294.15 57.5 302.65 L57.25 303.2 56.4 305.45 53.2 313.45 Q46.75 329.8 42.1 346.5 83.95 139.15 128.15 37.0 126.05 43.4 124.75 51.65 L124.75 51.75 Q123.8 56.8 123.35 62.6 L123.25 63.2 122.8 68.2 Q122.45 71.8 122.35 75.7 L122.35 75.85 Q122.2 77.95 122.2 80.2 121.95 84.6 121.85 89.4 L121.85 90.5 121.85 90.55 Q121.8 99.05 122.2 108.35 L122.7 122.45 Q96.0 193.8 73.95 268.25 96.0 193.8 122.7 122.45 L123.35 132.1 M169.0 191.6 L173.35 192.75 180.2 194.6 181.0 194.7 188.05 196.55 191.9 197.65 196.7 198.95 196.5 206.15 196.7 198.95 203.0 200.55 196.5 206.15 Q191.4 210.3 186.55 214.75 186.95 205.4 188.05 196.55 186.95 205.4 186.55 214.75 181.4 219.2 176.55 223.8 L169.1 230.9 157.65 242.4 Q159.5 217.35 164.2 193.45 159.5 217.35 157.65 242.4 L145.7 255.1 Q139.5 261.75 133.75 268.65 127.4 275.9 121.45 283.45 114.95 291.8 108.8 300.3 115.25 256.4 126.3 213.0 L126.6 212.85 132.1 209.4 Q135.05 207.55 138.1 205.95 L138.25 205.95 Q142.75 203.2 147.5 200.95 150.35 199.45 153.3 198.15 L155.85 196.95 Q149.6 225.25 145.7 255.1 149.6 225.25 155.85 196.95 160.0 195.1 164.2 193.45 166.5 192.4 169.0 191.6 M173.35 192.75 Q170.2 211.4 169.1 230.9 170.2 211.4 173.35 192.75 M138.1 205.95 Q128.55 243.95 121.45 283.45 128.55 243.95 138.1 205.95 M133.75 268.65 Q139.65 234.2 147.5 200.95 139.65 234.2 133.75 268.65 M121.85 89.4 Q85.9 195.5 57.5 302.65 85.9 195.5 121.85 89.4 M53.2 313.45 Q82.5 184.35 122.8 68.2 82.5 184.35 53.2 313.45 M176.55 223.8 Q177.75 209.1 180.2 194.6 177.75 209.1 176.55 223.8" fill="url(#gradient1)" fill-rule="evenodd" stroke="none"/>
    <path d="M123.95 140.55 L130.65 143.25 138.5 146.35 147.4 150.05 156.55 153.8 167.25 158.0 177.85 162.35 189.05 167.05 199.95 171.4 203.0 172.55 203.0 200.55 196.7 198.95 191.9 197.65 188.05 196.55 181.0 194.7 180.2 194.6 173.35 192.75 169.0 191.6 Q166.5 192.4 164.2 193.45 160.0 195.1 155.85 196.95 L153.3 198.15 Q150.35 199.45 147.5 200.95 142.75 203.2 138.25 205.95 L138.1 205.95 Q135.05 207.55 132.1 209.4 L126.6 212.85 126.3 213.0 Q120.25 216.8 114.45 220.95 108.2 225.45 102.15 230.4 96.1 235.1 90.3 240.4 L123.95 140.55 M189.05 167.05 L181.0 194.7 189.05 167.05 M191.9 197.65 L199.95 171.4 191.9 197.65 M169.0 191.6 L177.85 162.35 169.0 191.6 M167.25 158.0 L153.3 198.15 167.25 158.0 M147.4 150.05 L126.6 212.85 147.4 150.05 M102.15 230.4 L130.65 143.25 102.15 230.4 M114.45 220.95 L138.5 146.35 114.45 220.95 M138.25 205.95 L156.55 153.8 138.25 205.95" fill="url(#gradient2)" fill-rule="evenodd" stroke="none"/>
    <path d="M203.0 200.55 L203.0 172.55 205.7 170.85 211.4 167.2 216.35 163.9 222.2 160.0 229.8 155.1 236.7 150.6 242.05 147.15 247.5 143.65 Q261.65 187.85 270.4 236.5 265.45 229.95 260.0 223.7 255.7 218.9 251.0 214.4 L240.95 205.3 238.2 202.9 236.15 201.3 231.9 198.0 228.1 195.25 224.45 192.6 223.05 191.6 220.95 192.6 217.85 193.9 216.9 194.25 214.65 195.35 211.15 196.85 210.85 196.95 205.7 170.85 210.85 196.95 206.7 198.95 203.0 200.55 M211.4 167.2 L216.9 194.25 211.4 167.2 M216.35 163.9 L223.05 191.6 216.35 163.9 M222.2 160.0 L231.9 198.0 222.2 160.0 M229.8 155.1 L240.95 205.3 229.8 155.1 M242.05 147.15 L260.0 223.7 242.05 147.15 M251.0 214.4 L236.7 150.6 251.0 214.4" fill="url(#gradient3)" fill-rule="evenodd" stroke="none"/>
    <path d="M128.15 37.0 L128.35 37.1 Q124.1 56.4 122.9 75.85 L122.65 80.25 122.4 90.55 121.85 90.55 121.85 90.5 121.85 89.4 Q121.95 84.6 122.2 80.2 122.2 77.95 122.35 75.85 L122.35 75.7 Q122.45 71.8 122.8 68.2 L123.25 63.2 123.35 62.6 Q123.8 56.8 124.75 51.75 L124.75 51.65 Q126.05 43.4 128.15 37.0" fill="url(#gradient4)" fill-rule="evenodd" stroke="none"/>
    <path d="M259.5 36.0 L259.45 34.9 259.5 35.15 Q307.05 205.2 315.55 346.5 L317.8 362.1 M259.5 36.0 Q260.1 46.65 260.0 57.5 259.8 68.2 258.85 79.3 257.95 89.35 256.45 99.65 255.2 108.1 253.55 116.7 L250.55 131.4 247.5 143.65 242.05 147.15 236.7 150.6 229.8 155.1 222.2 160.0 216.35 163.9 211.4 167.2 205.7 170.85 203.0 172.55 199.95 171.4 189.05 167.05 177.85 162.35 167.25 158.0 156.55 153.8 147.4 150.05 138.5 146.35 130.65 143.25 123.95 140.55 123.35 132.1 122.7 122.45 122.2 108.35 Q121.8 99.05 121.85 90.55 L121.85 90.5 121.85 89.4 Q121.95 84.6 122.2 80.2 122.2 77.95 122.35 75.85 L122.35 75.7 Q122.45 71.8 122.8 68.2 L123.25 63.2 123.35 62.6 Q123.8 56.8 124.75 51.75 L124.75 51.65 Q126.05 43.4 128.15 37.0 83.95 139.15 42.1 346.5 M169.7 83.4 Q169.9 91.15 171.0 98.8 171.8 104.05 173.2 109.35 174.65 115.7 176.9 122.05 178.7 127.4 181.1 132.55 183.2 137.35 185.9 142.15 L189.8 149.15 203.0 153.4 212.4 148.35 213.95 143.85 216.2 135.6 Q217.3 131.2 218.0 126.55 218.85 121.95 219.25 117.15 L219.95 106.95 219.95 104.7 219.65 93.2 219.65 92.95 219.7 93.2 M149.6 135.8 L157.45 138.4 163.5 140.4 170.1 142.55 176.85 144.75 184.3 147.3 189.8 149.15 M226.3 140.7 L230.05 138.7 M220.65 143.85 L217.7 145.45 214.45 147.15 212.4 148.35 M214.45 147.15 L213.95 143.85 M220.65 143.85 Q222.0 143.1 223.4 142.4 L226.3 140.7 M169.0 191.6 L173.35 192.75 180.2 194.6 181.0 194.7 188.05 196.55 191.9 197.65 196.7 198.95 203.0 200.55 206.7 198.95 210.85 196.95 211.15 196.85 214.65 195.35 216.9 194.25 217.85 193.9 220.95 192.6 223.05 191.6 224.45 192.6 228.1 195.25 231.9 198.0 236.15 201.3 238.2 202.9 240.95 205.3 M169.0 191.6 Q166.5 192.4 164.2 193.45 160.0 195.1 155.85 196.95 L153.3 198.15 Q150.35 199.45 147.5 200.95 142.75 203.2 138.25 205.95 L138.1 205.95 Q135.05 207.55 132.1 209.4 L126.6 212.85" fill="none" stroke="#000000" stroke-linecap="round" stroke-linejoin="round" stroke-width="1.0"/>
    <path d="M237.9 134.35 L242.65 138.95 247.5 143.65 Q261.65 187.85 270.4 236.5 M260.0 57.5 Q297.6 204.0 305.75 324.1 M157.45 138.4 Q163.85 118.35 171.0 98.8 M219.95 104.7 L220.35 106.85 226.3 140.7 M216.2 135.6 L217.7 145.45 M218.0 126.55 L220.65 143.85 M223.4 142.4 L219.25 117.15 M170.1 142.55 Q173.35 132.15 176.9 122.05 M176.85 144.75 L181.1 132.55 M185.9 142.15 L184.3 147.3 M173.2 109.35 Q168.05 124.7 163.5 140.4 M203.0 172.55 L203.0 162.95 203.0 153.4 M126.05 134.6 L123.95 140.55 90.3 240.4 M123.35 132.1 Q101.6 190.45 83.2 251.95 M181.0 194.7 L189.05 167.05 M164.2 193.45 Q159.5 217.35 157.65 242.4 M169.1 230.9 Q170.2 211.4 173.35 192.75 M188.05 196.55 Q186.95 205.4 186.55 214.75 M196.5 206.15 L196.7 198.95 M203.0 200.55 L203.0 172.55 M199.95 171.4 L191.9 197.65 M177.85 162.35 L169.0 191.6 M211.15 196.9 L211.15 196.85 M210.85 196.95 L205.7 170.85 M216.9 194.25 L211.4 167.2 M217.85 193.9 Q220.05 211.45 221.65 229.15 M226.3 236.85 Q223.9 214.85 220.95 192.6 M223.05 191.6 L216.35 163.9 M231.9 198.0 L222.2 160.0 M122.2 108.35 Q91.0 193.8 66.25 282.35 L66.25 282.5 M73.95 268.25 Q96.0 193.8 122.7 122.45 M126.05 134.6 L128.2 128.7 M153.3 198.15 L167.25 158.0 M121.45 283.45 Q128.55 243.95 138.1 205.95 M126.6 212.85 L147.4 150.05 M145.7 255.1 Q149.6 225.25 155.85 196.95 M147.5 200.95 Q139.65 234.2 133.75 268.65 M240.95 205.3 L229.8 155.1 M207.05 206.2 L206.7 198.95 M231.9 198.0 Q236.8 231.6 241.15 265.2 M247.5 278.75 Q242.15 240.0 236.15 201.3 M217.2 221.75 L214.65 195.35 M156.55 153.8 L138.25 205.95 M138.5 146.35 L114.45 220.95 M130.65 143.25 L102.15 230.4 M122.8 68.2 Q82.5 184.35 53.2 313.45 M57.5 302.65 Q85.9 195.5 121.85 89.4 M258.85 79.3 Q290.55 215.4 298.75 304.15 M260.0 223.7 L242.05 147.15 M250.55 131.4 Q269.6 191.6 275.9 248.05 M282.6 263.05 Q274.5 191.05 253.55 116.7 M256.45 99.65 Q279.95 196.3 291.4 284.55 M236.7 150.6 L251.0 214.4 M211.15 196.9 Q212.1 205.85 212.65 214.7 M230.8 244.9 L224.45 192.6 M228.1 195.25 Q232.2 224.95 235.55 254.0 M180.2 194.6 Q177.75 209.1 176.55 223.8" fill="none" stroke="#000000" stroke-linecap="round" stroke-linejoin="round" stroke-opacity="0.2509804" stroke-width="1.0"/>
    <path d="M259.45 23.85 Q258.55 18.3 255.8 19.3 254.1 19.9 254.7 24.5 263.65 78.6 237.9 134.35 234.0 136.55 230.05 138.7 223.3 101.75 219.7 93.2 M305.75 324.1 Q311.9 342.3 317.8 362.1 319.75 367.6 322.7 386.35 323.05 389.85 324.75 389.85 326.9 392.25 317.45 285.95 307.95 179.65 259.45 23.85 M203.0 153.4 Q181.35 136.4 174.2 80.8 171.7 78.25 169.7 83.4 158.75 109.4 149.6 135.8 L128.2 128.7 Q118.85 77.5 133.35 23.95 135.0 19.2 133.35 17.75 132.8 17.25 131.9 17.1 127.15 16.0 125.65 21.6 63.45 181.1 24.15 387.5 23.65 389.35 26.6 389.85 29.35 389.85 30.05 386.35 34.95 367.6 38.2 362.1 L42.1 346.5 Q46.75 329.8 53.2 313.45 L56.4 305.45 57.25 303.2 57.5 302.65 Q61.15 294.15 65.1 285.75 L65.3 285.45 66.65 282.55 66.85 282.15 Q70.3 275.1 73.95 268.25 L76.5 263.55 83.2 251.95 Q86.6 246.2 90.3 240.4 96.1 235.1 102.15 230.4 108.2 225.45 114.45 220.95 120.25 216.8 126.3 213.0 115.25 256.4 108.8 300.3 114.95 291.8 121.45 283.45 127.4 275.9 133.75 268.65 139.5 261.75 145.7 255.1 L157.65 242.4 169.1 230.9 176.55 223.8 Q181.4 219.2 186.55 214.75 191.4 210.3 196.5 206.15 L203.0 200.55 207.05 206.2 212.65 214.7 217.2 221.75 221.65 229.15 226.3 236.85 230.8 244.9 235.55 254.0 241.15 265.2 246.05 275.45 247.5 278.75 254.1 294.15 Q246.8 243.3 240.95 205.3 L251.0 214.4 Q255.7 218.9 260.0 223.7 265.45 229.95 270.4 236.5 L275.9 248.05 282.6 263.05 291.4 284.55 298.75 304.15 305.75 324.1 M219.65 92.95 Q217.4 83.15 215.05 86.8 215.15 137.35 203.0 153.4 M126.6 212.85 L126.3 213.0 M66.25 282.5 Q65.7 283.9 65.3 285.45" fill="none" stroke="#000000" stroke-linecap="round" stroke-linejoin="round" stroke-width="2.0"/>
    <path d="M284.25 109.9 Q290.2 132.5 295.15 153.85 291.1 150.5 287.7 149.2 282.75 125.9 276.95 102.0 282.75 125.9 287.7 149.2 284.0 147.8 281.15 148.85 277.7 150.1 275.45 154.95 270.65 131.3 264.95 105.9 270.65 131.3 275.45 154.95 273.05 160.0 272.0 168.95 270.95 177.4 271.1 189.35 267.05 169.25 262.1 148.95 267.05 169.25 271.1 189.35 271.3 207.6 274.15 234.0 270.5 207.85 264.2 180.85 270.5 207.85 274.15 234.0 L274.6 237.55 275.9 248.05 270.4 236.5 Q265.45 229.95 260.0 223.7 L259.5 221.7 258.85 218.95 Q253.6 198.8 244.85 187.0 L240.35 167.05 244.85 187.0 Q240.2 180.8 234.65 176.9 L231.3 161.7 234.65 176.9 Q230.3 173.8 225.3 172.2 221.8 171.05 218.0 170.6 L216.35 163.9 218.0 170.6 212.05 170.35 205.7 170.85 211.4 167.2 216.35 163.9 222.2 160.0 225.3 172.2 222.2 160.0 Q226.9 160.05 231.3 161.7 236.05 163.45 240.35 167.05 244.9 170.8 248.95 176.55 L258.85 218.95 248.95 176.55 Q261.7 194.65 269.65 232.65 L270.4 236.5 Q266.35 205.05 264.2 180.85 262.6 162.95 262.1 148.95 261.5 134.0 262.15 123.6 262.8 111.95 264.95 105.9 267.0 100.25 270.35 99.55 276.15 124.6 281.15 148.85 276.15 124.6 270.35 99.55 273.15 98.95 276.95 102.0 280.25 104.55 284.25 109.9 M102.15 230.4 L95.25 236.05 Q102.4 218.1 110.65 204.45 L102.15 230.4 110.65 204.45 Q118.25 191.8 126.75 182.75 133.3 175.75 140.45 170.95 146.45 166.85 152.85 164.3 159.35 161.7 166.3 160.7 L172.45 160.15 177.85 162.35 174.85 172.25 177.85 162.35 189.05 167.05 199.95 171.4 Q193.75 170.9 187.9 171.1 L189.05 167.05 187.9 171.1 174.85 172.25 Q167.75 173.35 161.15 175.5 L166.3 160.7 161.15 175.5 Q153.65 177.85 146.8 181.55 L152.85 164.3 146.8 181.55 Q140.25 185.05 134.25 189.7 L140.45 170.95 134.25 189.7 Q126.75 195.5 120.2 203.15 L126.75 182.75 120.2 203.15 Q110.15 214.7 102.15 230.4 M78.7 159.65 Q87.35 130.3 96.7 102.2 105.2 86.25 109.65 84.6 113.6 83.15 114.3 93.25 106.75 115.85 99.65 139.0 106.75 115.85 114.3 93.25 114.8 100.65 113.55 114.25 112.45 126.05 110.0 142.55 L105.7 169.55 101.15 195.15 Q96.95 207.75 92.9 220.6 96.95 207.75 101.15 195.15 L95.4 225.25 90.3 240.4 92.9 220.6 95.35 200.1 Q100.4 184.75 105.7 169.55 100.4 184.75 95.35 200.1 L97.5 179.55 99.2 158.8 Q99.9 146.55 99.65 139.0 99.15 126.2 95.8 126.85 102.7 104.35 109.65 84.6 102.7 104.35 95.8 126.85 90.65 127.7 78.7 159.65 M211.4 167.2 L212.05 170.35 211.4 167.2 M262.15 123.6 Q267.4 146.5 272.0 168.95 267.4 146.5 262.15 123.6 M97.5 179.55 Q103.6 160.95 110.0 142.55 103.6 160.95 97.5 179.55 M113.55 114.25 Q106.2 136.5 99.2 158.8 106.2 136.5 113.55 114.25" fill="#ffffff" fill-opacity="0.2509804" fill-rule="evenodd" stroke="none"/>
    <path d="M219.7 93.2 Q223.3 101.75 230.05 138.7 234.0 136.55 237.9 134.35 263.65 78.6 254.7 24.5 254.1 19.9 255.8 19.3 258.55 18.3 259.45 23.85 273.5 68.95 284.25 109.9 290.2 132.5 295.15 153.85 312.2 227.4 317.45 285.95 326.9 392.25 324.75 389.85 323.05 389.85 322.7 386.35 319.75 367.6 317.8 362.1 311.9 342.3 305.75 324.1 L298.75 304.15 291.4 284.55 282.6 263.05 275.9 248.05 270.4 236.5 Q265.45 229.95 260.0 223.7 255.7 218.9 251.0 214.4 L240.95 205.3 Q246.8 243.3 254.1 294.15 L247.5 278.75 246.05 275.45 241.15 265.2 235.55 254.0 230.8 244.9 226.3 236.85 221.65 229.15 217.2 221.75 212.65 214.7 207.05 206.2 203.0 200.55 196.5 206.15 Q191.4 210.3 186.55 214.75 181.4 219.2 176.55 223.8 L169.1 230.9 157.65 242.4 145.7 255.1 Q139.5 261.75 133.75 268.65 127.4 275.9 121.45 283.45 114.95 291.8 108.8 300.3 115.25 256.4 126.3 213.0 120.25 216.8 114.45 220.95 108.2 225.45 102.15 230.4 L95.25 236.05 90.3 240.4 Q86.6 246.2 83.2 251.95 L76.5 263.55 73.95 268.25 Q70.3 275.1 66.85 282.15 L66.65 282.55 65.3 285.45 65.1 285.75 Q61.15 294.15 57.5 302.65 L57.25 303.2 56.4 305.45 53.2 313.45 Q46.75 329.8 42.1 346.5 L38.2 362.1 Q34.95 367.6 30.05 386.35 29.35 389.85 26.6 389.85 23.65 389.35 24.15 387.5 47.4 265.35 78.7 159.65 87.35 130.3 96.7 102.2 110.45 60.5 125.65 21.6 127.15 16.0 131.9 17.1 135.55 17.7 133.35 23.95 118.85 77.5 128.2 128.7 L149.6 135.8 Q158.75 109.4 169.7 83.4 171.7 78.25 174.2 80.8 181.35 136.4 203.0 153.4 215.15 137.35 215.05 86.8 217.4 83.15 219.65 92.95 M126.6 212.85 L126.3 213.0 M65.3 285.45 Q65.7 283.9 66.25 282.5" fill="none" stroke="#000000" stroke-linecap="round" stroke-linejoin="round" stroke-width="2.0"/>
    <path d="M219.65 92.95 L219.7 93.2 M247.5 143.65 L250.55 131.4 253.55 116.7 Q255.2 108.1 256.45 99.65 257.95 89.35 258.85 79.3 259.8 68.2 260.0 57.5 260.1 46.05 259.45 34.9 269.0 69.0 276.95 102.0 282.75 125.9 287.7 149.2 310.0 254.0 315.55 346.5 L317.8 362.1 M171.0 98.8 Q169.9 91.15 169.7 83.4 M203.0 153.4 L212.4 148.35 213.95 143.85 216.2 135.6 Q217.3 131.2 218.0 126.55 218.85 121.95 219.25 117.15 L219.95 106.95 219.95 104.7 219.65 93.2 219.65 92.95 M226.3 140.7 L230.05 138.7 M226.3 140.7 L223.4 142.4 Q222.0 143.1 220.65 143.85 L217.7 145.45 214.45 147.15 212.4 148.35 M214.45 147.15 L213.95 143.85 M176.9 122.05 Q174.65 115.7 173.2 109.35 171.8 104.05 171.0 98.8 M163.5 140.4 L170.1 142.55 176.85 144.75 184.3 147.3 189.8 149.15 203.0 153.4 M176.9 122.05 Q178.7 127.4 181.1 132.55 183.2 137.35 185.9 142.15 L189.8 149.15 M203.0 172.55 L205.7 170.85 211.4 167.2 216.35 163.9 222.2 160.0 229.8 155.1 236.7 150.6 242.05 147.15 247.5 143.65 M199.95 171.4 L189.05 167.05 177.85 162.35 172.45 160.15 167.25 158.0 156.55 153.8 147.4 150.05 138.5 146.35 130.65 143.25 123.95 140.55 123.35 132.1 122.7 122.45 122.2 108.35 Q121.8 98.4 121.85 89.4 121.95 84.6 122.2 80.2 122.25 73.85 122.8 68.2 L123.25 63.2 123.35 62.6 Q123.8 56.8 124.75 51.75 L124.75 51.65 Q126.05 43.4 128.15 37.0 118.85 58.45 109.65 84.6 102.7 104.35 95.8 126.85 68.45 215.75 42.1 346.5 M181.0 194.7 L188.05 196.55 191.9 197.65 196.7 198.95 203.0 200.55 206.7 198.95 210.85 196.95 211.15 196.85 214.65 195.35 216.9 194.25 217.85 193.9 220.95 192.6 223.05 191.6 224.45 192.6 228.1 195.25 231.9 198.0 236.15 201.3 238.2 202.9 240.95 205.3 M199.95 171.4 L203.0 172.55 M153.3 198.15 L155.85 196.95 Q160.0 195.1 164.2 193.45 166.5 192.4 169.0 191.6 L173.35 192.75 180.2 194.6 181.0 194.7 M157.45 138.4 L163.5 140.4 M149.6 135.8 L157.45 138.4 M126.6 212.85 L132.1 209.4 Q135.05 207.55 138.1 205.95 L138.25 205.95 Q142.75 203.2 147.5 200.95 150.35 199.45 153.3 198.15" fill="none" stroke="#000000" stroke-linecap="round" stroke-linejoin="round" stroke-width="1.0"/>
    <path d="M219.95 104.7 L220.35 106.85 226.3 140.7 M220.65 143.85 L218.0 126.55 M216.2 135.6 L217.7 145.45 M219.25 117.15 L223.4 142.4 M173.2 109.35 Q168.05 124.7 163.5 140.4 M170.1 142.55 Q173.35 132.15 176.9 122.05 M203.0 153.4 L203.0 172.55 203.0 200.55 M247.5 143.65 L237.9 134.35 M176.85 144.75 L181.1 132.55 M185.9 142.15 L184.3 147.3 M189.05 167.05 L187.9 171.1 181.0 194.7 M191.9 197.65 L199.95 171.4 M210.85 196.95 L205.7 170.85 M212.05 170.35 L211.4 167.2 M166.3 160.7 L161.15 175.5 153.3 198.15 M174.85 172.25 L177.85 162.35 M167.25 158.0 L166.3 160.7 M152.85 164.3 L146.8 181.55 138.25 205.95 M169.0 191.6 L174.85 172.25 M236.7 150.6 L240.35 167.05 244.85 187.0 251.0 214.4 M248.95 176.55 L242.05 147.15 M229.8 155.1 L231.3 161.7 234.65 176.9 240.95 205.3 M258.85 218.95 L248.95 176.55 M269.65 232.65 L266.2 214.85 261.9 195.55 Q255.55 168.85 247.5 143.65 M216.35 163.9 L218.0 170.6 223.05 191.6 M225.3 172.2 L222.2 160.0 M212.05 170.35 L216.9 194.25 M211.15 196.85 L211.15 196.9 Q212.1 205.85 212.65 214.7 M214.65 195.35 L217.2 221.75 M224.45 192.6 L230.8 244.9 M225.3 172.2 L231.9 198.0 Q236.8 231.6 241.15 265.2 M256.45 99.65 L262.15 123.6 Q267.4 146.5 272.0 168.95 284.1 228.45 291.4 284.55 M264.95 105.9 L258.85 79.3 M264.95 105.9 Q270.65 131.3 275.45 154.95 292.95 241.35 298.75 304.15 M281.15 148.85 Q276.15 124.6 270.35 99.55 265.45 78.8 260.0 57.5 M262.1 148.95 Q267.05 169.25 271.1 189.35 278.5 226.5 282.6 263.05 M262.1 148.95 Q258.1 132.85 253.55 116.7 M250.55 131.4 Q258.45 156.45 264.2 180.85 270.5 207.85 274.15 234.0 L274.6 237.55 M281.15 148.85 Q300.2 242.55 305.75 324.1 M171.0 98.8 Q163.85 118.35 157.45 138.4 M114.3 93.25 L122.8 68.2 M99.65 139.0 Q106.75 115.85 114.3 93.25 M113.55 114.25 L121.85 89.4 M123.95 140.55 L128.2 128.7 M110.0 142.55 Q115.95 125.4 122.2 108.35 M105.7 169.55 Q100.4 184.75 95.35 200.1 84.15 233.8 73.95 268.25 M92.9 220.6 Q96.95 207.75 101.15 195.15 111.75 163.15 123.35 132.1 M99.2 158.8 Q76.6 230.45 57.5 302.65 M152.85 164.3 L156.55 153.8 M134.25 189.7 L126.6 212.85 M140.45 170.95 L134.25 189.7 M120.2 203.15 L114.45 220.95 M126.75 182.75 L120.2 203.15 M102.15 230.4 L110.65 204.45 130.65 143.25 M147.4 150.05 L140.45 170.95 M110.0 142.55 Q103.6 160.95 97.5 179.55 80.75 230.4 66.25 282.35 L66.25 282.5 M99.2 158.8 Q106.2 136.5 113.55 114.25 M122.7 122.45 Q113.95 145.8 105.7 169.55 M138.5 146.35 L126.75 182.75 M147.5 200.95 Q139.65 234.2 133.75 268.65 M95.4 225.25 L90.3 240.4 M92.9 220.6 Q87.9 236.15 83.2 251.95 M138.1 205.95 Q128.55 243.95 121.45 283.45 M269.65 232.65 L270.4 236.5 M258.85 218.95 L259.5 221.7 M207.05 206.2 L206.7 198.95 M196.5 206.15 L196.7 198.95 M247.5 278.75 Q242.15 240.0 236.15 201.3 M53.2 313.45 Q73.75 223.05 99.65 139.0 M145.7 255.1 Q149.6 225.25 155.85 196.95 M95.4 225.25 L123.95 140.55 M228.1 195.25 Q232.2 224.95 235.55 254.0 M221.65 229.15 Q220.05 211.45 217.85 193.9 M220.95 192.6 Q223.9 214.85 226.3 236.85 M176.55 223.8 Q177.75 209.1 180.2 194.6 M188.05 196.55 Q186.95 205.4 186.55 214.75 M173.35 192.75 Q170.2 211.4 169.1 230.9 M157.65 242.4 Q159.5 217.35 164.2 193.45" fill="none" stroke="#000000" stroke-linecap="round" stroke-linejoin="round" stroke-opacity="0.2509804" stroke-width="1.0"/>
  </g>
  <defs>
    <linearGradient gradientTransform="matrix(0.035, 0.2, -0.0079, 0.0023, 294.2, 218.85)" gradientUnits="userSpaceOnUse" id="gradient0" spreadMethod="pad" x1="-819.2" x2="819.2">
      <stop offset="0.0" stop-color="#000000" stop-opacity="0.0"/>
      <stop offset="1.0" stop-color="#000000" stop-opacity="0.2509804"/>
    </linearGradient>
    <linearGradient gradientTransform="matrix(-0.0525, 0.1889, -0.0061, -0.0029, 76.25, 215.2)" gradientUnits="userSpaceOnUse" id="gradient1" spreadMethod="pad" x1="-819.2" x2="819.2">
      <stop offset="0.0" stop-color="#000000" stop-opacity="0.0"/>
      <stop offset="1.0" stop-color="#000000" stop-opacity="0.2509804"/>
    </linearGradient>
    <linearGradient gradientTransform="matrix(0.0168, -0.0506, 0.0044, 0.0024, 112.2, 187.05)" gradientUnits="userSpaceOnUse" id="gradient2" spreadMethod="pad" x1="-819.2" x2="819.2">
      <stop offset="0.0" stop-color="#000000" stop-opacity="0.0"/>
      <stop offset="1.0" stop-color="#000000" stop-opacity="0.2509804"/>
    </linearGradient>
    <linearGradient gradientTransform="matrix(-0.0097, -0.0476, 0.0059, -0.002, 255.2, 186.45)" gradientUnits="userSpaceOnUse" id="gradient3" spreadMethod="pad" x1="-819.2" x2="819.2">
      <stop offset="0.0" stop-color="#000000" stop-opacity="0.0"/>
      <stop offset="1.0" stop-color="#000000" stop-opacity="0.2509804"/>
    </linearGradient>
    <linearGradient gradientTransform="matrix(-0.0605, 0.215, -0.0221, -0.0104, 86.95, 202.5)" gradientUnits="userSpaceOnUse" id="gradient4" spreadMethod="pad" x1="-819.2" x2="819.2">
      <stop offset="0.0" stop-color="#000000" stop-opacity="0.5019608"/>
      <stop offset="1.0" stop-color="#000000" stop-opacity="0.2509804"/>
    </linearGradient>
  </defs>
</svg>
