<?xml version="1.0" encoding="UTF-8" standalone="no"?>
<svg xmlns:xlink="http://www.w3.org/1999/xlink" height="385.1px" width="179.7px" xmlns="http://www.w3.org/2000/svg">
  <g transform="matrix(1.0, 0.0, 0.0, 1.0, -111.35, -81.0)">
    <path d="M194.05 103.35 Q192.4 98.7 194.85 97.65 194.0 96.6 192.9 97.75 M194.25 95.3 Q196.3 95.25 196.9 97.85 M193.0 104.9 Q193.8 106.3 195.1 106.45 L195.1 113.8 204.9 124.4 219.3 124.4 M219.3 131.1 L219.3 139.75 M178.4 187.6 L178.15 187.65 Q175.2 190.35 176.3 196.0 179.25 188.5 193.7 187.55 L211.05 186.25 Q224.45 185.2 235.8 185.95 L238.65 182.35 238.65 181.25 Q238.2 164.55 227.6 153.4 M160.45 173.5 L165.65 176.65 175.7 182.7 Q170.85 185.35 169.75 190.75 173.2 188.15 178.15 187.65 M166.15 150.5 Q194.65 145.9 217.0 146.8 224.5 150.7 226.2 147.25 243.15 148.55 257.3 152.95 M195.9 125.75 Q198.5 132.8 203.25 139.0 M235.8 185.95 L248.55 187.45 257.1 188.95 Q259.9 191.45 260.05 195.9 262.25 192.95 262.5 190.0 L262.5 188.65 269.35 180.95 Q270.75 171.75 269.35 162.55 M196.0 100.65 Q195.5 98.45 194.85 97.65 M153.4 210.25 L151.1 216.5 M144.75 292.65 L154.5 295.55 Q158.15 297.65 161.25 297.15 L161.3 297.15 Q162.95 296.85 164.45 295.85 L165.0 295.45 165.1 295.35 167.15 293.3 M161.25 297.15 L161.25 297.2 163.35 302.45 M157.05 300.8 L154.5 295.55 M262.5 190.0 L262.5 198.5 Q254.7 212.3 250.45 228.4 247.2 242.5 246.3 257.45 246.05 262.75 245.3 267.95 L244.7 271.85 245.65 274.05 Q243.75 277.7 242.5 281.45 L241.35 285.35 M244.6 219.1 L249.9 202.85 248.05 198.65 M244.7 271.85 L244.65 271.85 242.5 281.45 M240.15 292.6 L244.2 287.05 Q245.25 286.8 246.4 287.9 L247.45 289.25 249.55 289.4 250.6 290.0 Q250.95 284.8 254.7 283.6 L259.3 283.4 M249.0 299.7 L251.5 291.05 250.6 290.0 M255.75 302.2 Q254.85 300.5 256.0 297.25 L253.8 297.25 253.75 295.7 Q253.9 293.4 255.85 292.6 254.3 289.9 251.5 291.05 M255.85 292.6 L260.4 292.2 260.95 287.5 M208.8 217.6 L208.8 202.65 214.45 196.4 M233.1 218.65 L235.45 202.3 M169.6 293.2 Q169.8 288.15 170.4 283.2 M211.0 258.05 Q219.8 263.95 224.5 270.45 L238.0 262.75 M218.0 334.95 L214.3 340.6 M207.2 336.75 L207.2 329.45 M179.3 337.85 L180.7 331.9 M191.85 339.1 L187.6 343.65 M191.85 344.65 L191.85 356.25 Q190.5 363.2 189.4 370.25 L189.35 370.55 M200.4 320.05 L205.7 310.6 Q220.25 291.6 224.5 270.45 M262.65 297.25 L256.0 297.25 M247.45 289.25 L243.75 297.3 M158.45 196.4 L165.65 176.65" fill="none" stroke="#000000" stroke-linecap="round" stroke-linejoin="round" stroke-width="1.0"/>
    <path d="M219.3 124.4 L222.0 124.4 223.9 122.3 223.6 104.75 Q225.05 100.7 223.6 96.7 L224.25 94.25 Q224.15 86.55 217.7 83.55 211.1 81.1 204.55 82.55 202.85 82.9 201.2 83.55 194.1 86.05 194.25 95.3 190.75 95.55 191.7 100.9 192.15 103.5 193.0 104.9 188.85 118.0 179.4 127.65 152.2 134.7 127.6 144.15 L127.6 144.2 Q119.85 147.55 112.9 153.55 L119.9 153.55 M219.3 124.4 L219.3 131.1 Q253.5 135.8 276.45 153.15 L276.45 153.2 Q283.8 157.45 290.05 164.2 L283.1 163.4 M282.55 163.6 Q287.8 173.9 287.15 184.5 L282.05 177.5 Q283.25 190.65 280.8 204.2 281.1 195.95 277.45 189.25 274.95 200.5 269.1 212.0 271.4 216.5 272.9 221.0 276.75 221.05 281.15 216.9 L274.95 230.0 Q264.2 252.0 261.15 262.4 L259.55 267.95 257.9 273.75 269.8 285.5 Q266.25 290.05 265.1 297.25 L262.65 297.25 262.75 300.75 Q262.1 304.25 258.55 303.95 256.45 303.6 255.75 302.2 252.7 303.6 250.95 302.6 249.6 301.8 249.0 299.7 246.85 300.4 245.55 299.7 244.35 299.05 243.75 297.3 242.05 297.0 241.15 296.2 239.8 295.0 240.15 292.6 240.4 288.95 241.35 285.35 239.8 290.25 237.8 295.0 L234.85 301.45 231.75 307.3 218.5 327.25 218.0 334.95 219.3 351.15 Q220.3 358.9 219.3 366.65 L217.2 360.1 216.75 362.05 Q217.85 372.05 216.1 382.05 L213.95 374.0 204.6 413.8 Q203.5 420.3 210.75 426.8 222.7 438.2 231.85 450.2 216.55 451.1 201.25 439.75 L190.95 435.35 192.4 413.25 Q193.85 391.45 189.35 370.55 185.85 392.15 184.1 414.35 185.7 427.85 190.3 442.05 192.15 457.05 185.7 465.1 176.25 458.25 170.35 450.4 170.8 438.1 174.75 427.45 175.4 421.4 173.7 415.35 167.4 396.8 164.4 378.65 162.45 381.95 162.4 385.9 159.35 373.0 162.6 365.0 L162.55 364.6 162.45 363.65 Q159.65 366.95 158.85 370.2 158.6 362.15 161.85 354.8 L161.85 354.75 Q166.45 340.65 175.9 333.75 L182.95 272.2 Q186.55 241.25 182.95 211.95 169.65 205.2 158.45 196.4 L153.4 210.25 159.6 225.35 Q156.25 245.35 159.6 263.8 L160.45 268.1 161.4 272.0 175.05 279.7 175.05 279.75 173.3 288.05 176.4 292.65 175.65 293.55 Q174.55 294.5 173.05 294.4 171.5 294.3 169.6 293.2 169.35 298.25 169.55 303.3 L164.05 304.45 163.35 302.45 Q159.5 304.05 157.05 300.8 L144.75 292.65 146.7 276.8 Q142.75 272.5 139.4 268.1 L136.2 263.8 Q126.45 249.85 122.1 234.85 115.1 223.8 112.35 214.4 117.4 217.6 121.2 217.4 L125.7 209.3 Q122.2 194.4 122.25 179.8 118.15 186.15 117.55 194.35 116.65 180.6 119.35 167.7 L113.45 174.05 Q114.0 163.45 120.4 153.8 M193.8 337.0 L191.85 339.1 191.85 344.65 200.4 331.15 200.4 320.05 196.5 327.1 193.8 337.0 Z" fill="none" stroke="#000000" stroke-linecap="round" stroke-linejoin="round" stroke-width="2.0"/>
  </g>
</svg>
