<?xml version="1.0" encoding="UTF-8" standalone="no"?>
<svg xmlns:xlink="http://www.w3.org/1999/xlink" height="110.0px" width="154.15px" xmlns="http://www.w3.org/2000/svg">
  <g transform="matrix(1.0, 0.0, 0.0, 1.0, -119.25, -129.75)">
    <path d="M217.0 146.8 Q224.5 150.7 226.2 147.25 L229.65 147.55 Q243.5 161.4 245.0 182.1 L241.4 186.45 Q242.75 191.9 241.6 198.95 L237.4 229.2 231.75 228.85 226.3 228.7 229.65 198.5 Q230.2 191.7 229.0 185.7 L229.0 185.65 231.75 181.45 Q228.6 157.45 212.55 146.65 L217.0 146.8 M232.15 133.4 Q240.25 135.2 247.65 137.85 255.95 145.9 260.35 153.95 265.6 160.25 267.65 182.85 L265.9 184.85 Q265.1 198.6 258.1 212.4 L260.2 227.45 258.3 237.45 Q253.15 237.05 249.0 235.45 L249.85 231.15 243.75 229.95 Q255.1 194.55 252.8 188.2 L256.75 183.6 Q254.25 154.55 244.3 149.75 L244.25 149.7 Q242.25 146.45 239.6 143.35 237.15 138.35 232.15 133.4 M171.65 129.75 Q180.2 138.9 184.25 148.1 L198.95 146.95 Q206.95 152.6 216.55 181.5 L214.9 186.0 215.0 186.0 Q218.3 186.4 216.8 228.6 L201.0 228.95 Q199.8 196.15 195.65 187.5 L196.5 182.75 Q190.75 155.95 179.35 148.65 L179.3 148.6 Q174.5 139.8 164.15 131.85 L171.65 129.75 M270.05 172.55 Q270.1 167.55 269.35 162.55 L263.05 144.65 Q267.75 147.1 272.05 150.05 275.55 162.35 270.05 172.55 M146.15 137.5 L156.1 134.3 Q169.25 151.1 174.25 181.85 176.25 194.15 176.95 208.75 167.1 203.2 158.45 196.4 158.9 164.55 146.15 137.5 M140.8 139.35 Q134.6 172.0 139.65 216.6 L135.45 224.7 Q136.6 232.2 138.7 239.75 130.75 239.9 122.85 237.25 120.25 229.25 119.25 220.95 L125.7 209.3 Q117.9 175.9 127.6 144.15 L140.8 139.35" fill="#000000" fill-rule="evenodd" stroke="none"/>
  </g>
</svg>
