<?xml version="1.0" encoding="UTF-8" standalone="no"?>
<svg xmlns:xlink="http://www.w3.org/1999/xlink" height="101.55px" width="156.25px" xmlns="http://www.w3.org/2000/svg">
  <g transform="matrix(1.0, 0.0, 0.0, 1.0, -122.95, -129.6)">
    <path d="M224.15 131.85 Q255.15 137.05 276.45 153.15 278.9 161.95 279.2 170.9 274.65 162.2 271.25 158.8 L269.25 162.5 Q266.1 167.7 261.5 173.3 255.8 181.25 255.0 188.6 254.0 196.9 259.35 204.45 253.8 215.7 250.45 228.4 L249.85 231.15 Q234.7 226.9 184.5 229.7 184.05 220.75 182.95 211.95 201.1 201.6 195.95 187.5 193.05 179.55 182.8 170.4 170.75 159.7 153.35 155.65 143.3 161.45 129.6 174.05 124.6 170.25 122.95 166.45 124.2 155.2 127.6 144.15 148.9 135.95 172.2 129.6 182.2 143.1 221.05 144.05 230.0 142.3 224.15 131.85" fill="#000000" fill-rule="evenodd" stroke="none"/>
  </g>
</svg>
