<?xml version="1.0" encoding="UTF-8" standalone="no"?>
<svg xmlns:xlink="http://www.w3.org/1999/xlink" height="107.4px" width="159.95px" xmlns="http://www.w3.org/2000/svg">
  <g transform="matrix(1.0, 0.0, 0.0, 1.0, -119.25, -132.35)">
    <path d="M162.5 132.35 Q180.75 137.3 196.25 147.1 218.95 161.35 235.8 185.95 L238.6 180.3 Q245.55 164.5 242.9 149.45 241.6 142.05 238.0 134.85 260.05 140.8 276.45 153.15 284.5 181.85 269.1 212.0 273.75 221.0 274.95 230.0 L271.8 236.5 Q258.2 238.95 249.0 235.45 L249.85 231.15 Q234.65 226.9 184.5 229.7 184.05 220.75 182.95 211.95 169.65 205.2 158.45 196.4 L153.4 210.25 159.6 225.35 Q158.8 230.15 158.4 234.85 140.6 243.25 122.85 237.25 120.25 229.25 119.25 220.95 L125.7 209.3 Q117.9 175.9 127.6 144.15 144.45 137.7 162.5 132.35" fill="#000000" fill-rule="evenodd" stroke="none"/>
  </g>
</svg>
