<?xml version="1.0" encoding="UTF-8" standalone="no"?>
<svg xmlns:xlink="http://www.w3.org/1999/xlink" height="64.35px" width="75.8px" xmlns="http://www.w3.org/2000/svg">
  <g transform="matrix(1.0, 0.0, 0.0, 1.0, -172.95, -136.95)">
    <path d="M220.85 146.8 L221.5 147.35 222.25 147.15 Q231.9 144.9 242.35 143.55 L243.65 146.75 229.15 149.0 Q237.85 151.4 246.0 154.05 L246.85 157.45 Q236.3 153.95 225.4 150.95 L224.55 150.0 223.1 150.3 Q211.9 152.95 200.35 157.15 L197.9 154.65 Q206.8 151.15 216.5 148.6 198.65 144.0 179.75 140.65 176.45 138.65 172.95 136.95 198.55 141.1 220.85 146.8 M237.4 171.4 L216.55 179.85 214.9 176.9 231.3 169.9 Q220.1 166.55 205.55 163.05 L201.7 158.55 Q219.8 162.15 236.3 167.6 L236.35 167.75 247.9 162.8 248.4 167.0 242.0 169.55 248.7 172.05 248.75 175.85 Q243.75 173.85 237.5 171.85 L237.4 171.4 M217.1 180.95 Q227.0 184.9 236.1 189.4 L236.25 189.3 Q242.35 184.9 248.5 180.65 L248.0 185.35 239.45 191.1 246.2 194.75 245.25 198.5 Q240.85 195.65 236.4 193.35 L236.4 193.2 236.3 193.25 Q229.85 197.75 225.45 201.3 L224.4 198.05 233.05 191.6 Q226.4 188.4 219.65 186.2 L217.1 180.95" fill="#000000" fill-rule="evenodd" stroke="none"/>
  </g>
</svg>
