<?xml version="1.0" encoding="UTF-8" standalone="no"?>
<svg xmlns:xlink="http://www.w3.org/1999/xlink" height="47.95px" width="156.35px" xmlns="http://www.w3.org/2000/svg">
  <g transform="matrix(1.0, 0.0, 0.0, 1.0, -122.75, -129.6)">
    <path d="M224.15 131.85 Q255.15 137.05 276.45 153.15 277.75 157.95 278.5 162.8 L279.1 169.05 279.05 169.05 273.15 163.85 269.6 164.4 Q270.0 167.4 270.05 170.45 L269.9 176.2 261.15 177.0 264.65 171.0 259.9 165.45 252.15 165.9 256.4 171.55 252.0 177.45 244.8 177.55 248.8 171.8 242.1 166.2 235.8 166.2 227.15 166.05 224.3 171.65 230.7 177.4 210.7 176.6 204.6 170.75 204.65 170.75 208.65 165.25 186.2 163.6 181.15 169.1 181.1 169.1 186.35 174.95 159.7 172.6 154.9 166.7 154.95 166.7 159.8 160.95 134.6 157.85 130.15 164.0 130.1 164.0 133.95 169.95 122.75 168.7 123.35 163.2 124.5 156.5 Q125.7 150.3 127.6 144.15 148.9 135.95 172.2 129.6 182.2 143.1 221.05 144.05 230.0 142.3 224.15 131.85" fill="#000000" fill-rule="evenodd" stroke="none"/>
  </g>
</svg>
