<?xml version="1.0" encoding="UTF-8" standalone="no"?>
<svg xmlns:xlink="http://www.w3.org/1999/xlink" height="151.15px" width="161.95px" xmlns="http://www.w3.org/2000/svg">
  <g transform="matrix(1.0, 0.0, 0.0, 1.0, -118.25, -126.65)">
    <path d="M162.0 132.5 Q175.35 145.1 197.35 147.0 207.7 146.4 217.0 146.8 221.1 148.9 223.5 148.85 L223.55 148.85 Q225.45 148.75 226.2 147.25 L235.3 148.2 Q240.25 144.75 236.8 134.55 M251.45 139.3 Q253.45 146.0 246.55 150.15 251.75 151.25 256.65 152.75 L257.3 152.95 Q259.45 153.45 261.25 154.2 265.55 149.9 264.9 145.65 M276.45 153.15 Q274.75 161.5 269.95 168.25 L269.35 162.55 Q257.65 156.35 229.85 155.95 201.7 155.5 157.1 161.0 L155.8 161.15 155.75 159.4 Q145.45 148.0 127.6 144.15 M142.55 138.7 Q154.0 143.85 161.6 152.1 163.55 151.15 166.15 150.5 L179.95 148.55 Q162.55 145.3 153.1 135.25 M172.2 129.6 Q181.65 142.4 217.1 143.95 L221.05 144.05 Q230.0 142.3 224.15 131.85 M219.3 131.1 L219.3 135.4 219.3 139.75 M219.3 135.4 Q216.65 136.5 213.55 136.9 208.05 137.55 201.1 136.0 L203.25 139.0 M201.1 136.0 Q191.6 133.9 179.4 127.65 M197.35 147.0 L180.55 148.5 179.95 148.55 M279.1 177.35 L269.35 180.95 Q253.85 177.8 238.35 176.95 206.7 176.8 173.3 181.25 L163.15 183.6 163.1 183.6 163.55 182.4 163.7 182.05 164.4 180.1 Q142.25 176.7 122.8 168.3 M124.45 156.65 L158.95 169.8 160.5 173.5 164.25 172.9 Q207.85 165.75 235.8 166.3 257.75 166.7 270.05 171.85 L270.05 173.55 Q274.95 170.15 279.0 167.55 M173.3 181.25 L165.65 176.65 164.65 179.45 164.4 180.1 M163.55 182.4 L163.15 183.6 M122.25 179.15 Q141.85 186.75 161.45 188.1 L159.8 192.65 Q173.2 188.15 186.6 187.4 L186.85 187.4 211.05 186.25 Q224.45 185.2 235.8 185.95 L248.55 187.45 257.1 188.95 262.5 188.65 262.5 190.3 Q270.0 190.85 277.8 187.45 M275.35 196.9 L262.5 198.5 Q252.5 193.95 236.4 193.1 209.0 191.55 163.9 200.45 M158.45 196.4 Q140.15 196.55 122.6 189.45 M229.85 155.95 L227.75 153.55 227.6 153.4 223.55 148.85 M235.8 166.3 Q237.7 171.25 238.35 176.95 M246.55 150.15 L246.5 150.15 Q241.05 149.0 235.3 148.2 M270.05 173.55 Q269.9 177.25 269.35 180.95 M261.25 154.2 Q267.65 156.9 269.35 162.55 M155.75 159.4 Q156.0 154.7 161.6 152.1 M160.5 173.5 L161.0 173.8 165.65 176.65 M158.45 196.4 L159.8 192.65 M160.5 173.5 L161.0 173.8 M123.7 198.95 Q141.95 205.4 155.9 203.3 M153.4 210.25 Q142.95 214.6 125.7 209.3 M269.1 212.0 Q262.15 214.85 255.2 213.9 L255.8 212.4 247.25 210.9 234.4 209.9 234.35 209.9 Q223.2 209.4 208.8 210.1 L182.95 211.95 M173.25 206.6 Q193.4 203.45 209.2 202.25 L209.75 201.6 209.2 202.25 Q224.4 201.0 235.6 201.55 243.75 201.9 249.8 203.2 L249.9 202.85 249.8 203.2 Q255.0 204.25 258.6 206.05 266.55 206.4 272.95 203.65 M249.8 203.2 L249.5 204.15 247.25 210.9 M249.5 204.15 L249.8 203.2 M255.8 212.4 L258.6 206.05 M235.45 202.3 L234.35 209.9 M208.8 210.1 L208.8 202.65 209.2 202.25 208.8 202.65 M262.5 190.3 L262.5 198.5" fill="none" stroke="#000000" stroke-linecap="round" stroke-linejoin="round" stroke-width="1.0"/>
    <path d="M236.8 134.55 Q244.45 136.5 251.45 139.3 M264.9 145.65 Q271.0 149.05 276.45 153.15 M127.6 144.15 L142.55 138.7 M153.1 135.25 Q157.5 133.8 162.0 132.5 M224.15 131.85 L219.3 131.1 M179.4 127.65 L172.2 129.6 M122.8 168.3 Q123.3 162.45 124.45 156.65 M279.0 167.55 Q279.35 172.4 279.1 177.35 M277.8 187.45 Q276.85 192.15 275.35 196.9 M163.9 200.45 L158.45 196.4 M122.6 189.45 Q122.2 184.3 122.25 179.15 M125.7 209.3 Q124.5 204.1 123.7 198.95 M155.9 203.3 L153.4 210.25 M272.95 203.65 L269.1 212.0 M182.95 211.95 L173.25 206.6" fill="none" stroke="#000000" stroke-linecap="round" stroke-linejoin="round" stroke-width="2.0"/>
    <path d="M159.6 225.35 Q141.1 234.45 120.25 227.35 M120.6 218.55 Q140.0 223.25 156.5 217.8 M122.85 237.25 Q140.6 243.25 158.4 234.85 M157.95 242.95 Q143.7 252.15 126.8 247.45 M158.7 257.8 Q151.7 265.6 136.15 263.7 M131.75 256.85 Q149.1 258.85 158.1 251.25 M161.4 272.0 Q154.8 278.65 146.7 276.8 M141.65 270.95 Q155.45 271.6 159.85 265.2 M252.45 221.55 L252.3 222.0 252.45 221.55 Q263.7 223.6 272.6 220.1 M274.65 228.25 Q262.55 231.75 250.45 228.4 L249.85 231.15 249.8 231.45 M267.4 246.2 Q257.4 248.6 247.45 245.25 L248.1 240.8 248.35 239.3 249.0 235.45 Q258.2 238.95 271.8 236.5 M250.45 228.4 L252.3 222.0 M261.65 260.85 Q253.85 263.15 246.1 260.7 L246.15 260.45 246.3 257.95 246.3 257.45 246.6 253.25 Q254.8 255.75 264.35 253.45 M257.9 273.75 Q250.9 275.75 245.65 274.05 L244.7 271.85 245.3 267.95 245.4 267.35 Q252.25 269.35 259.75 267.3 M183.9 221.15 Q214.65 218.45 233.1 219.1 245.55 219.55 252.45 221.55 M184.5 229.7 Q214.3 228.05 231.75 228.85 243.7 229.4 249.85 231.15" fill="none" stroke="#000000" stroke-linecap="round" stroke-linejoin="round" stroke-width="1.0"/>
    <path d="M156.5 217.8 L159.6 225.35 M120.25 227.35 Q119.6 224.15 119.25 220.95 L120.6 218.55 M126.8 247.45 Q124.5 242.4 122.85 237.25 M158.4 234.85 Q158.0 238.95 157.95 242.95 M158.1 251.25 L158.7 257.8 M136.15 263.7 L131.75 256.85 M159.85 265.2 L160.45 268.1 161.4 272.0 M146.7 276.8 L141.65 270.95 M272.6 220.1 Q273.95 224.15 274.65 228.25 M271.8 236.5 L267.4 246.2 M264.35 253.45 Q262.65 257.65 261.65 260.85 M259.75 267.3 L259.55 267.95 257.9 273.75 M184.5 229.7 L183.9 221.15" fill="none" stroke="#000000" stroke-linecap="round" stroke-linejoin="round" stroke-width="2.0"/>
  </g>
</svg>
