<?xml version="1.0" encoding="UTF-8" standalone="no"?>
<svg xmlns:xlink="http://www.w3.org/1999/xlink" height="176.7px" width="120.9px" xmlns="http://www.w3.org/2000/svg">
  <g transform="matrix(1.0, 0.0, 0.0, 1.0, -118.25, -128.75)">
    <path d="M171.65 129.75 Q180.2 138.9 184.25 148.1 L217.0 146.8 Q221.1 148.9 223.5 148.85 L223.55 148.9 227.6 153.4 227.65 153.4 Q238.2 164.55 238.65 181.25 L238.65 182.35 235.8 185.95 Q237.15 193.85 235.45 202.3 L231.75 228.85 M160.45 173.5 L165.65 176.65 181.0 185.9 Q185.65 189.05 211.05 186.25 224.45 185.2 235.8 185.95 M184.25 148.1 L166.15 150.5 M153.4 210.25 L151.1 216.5 M144.75 292.65 L154.5 295.55 Q158.15 297.65 161.25 297.15 L161.3 297.15 Q162.95 296.85 164.45 295.85 L165.0 295.45 165.1 295.35 167.15 293.3 M161.25 297.15 L161.25 297.2 163.35 302.45 M157.05 300.8 L154.5 295.55 M208.8 217.6 L208.8 202.65 214.45 196.4 M169.6 293.2 Q169.8 288.15 170.4 283.2 M158.45 196.4 L165.65 176.65" fill="none" stroke="#000000" stroke-linecap="round" stroke-linejoin="round" stroke-width="1.0"/>
    <path d="M184.5 229.7 Q184.05 220.75 182.95 211.95 169.65 205.2 158.45 196.4 L153.4 210.25 159.6 225.35 Q156.25 245.35 159.6 263.8 L160.45 268.1 161.4 272.0 175.05 279.7 173.3 288.05 176.4 292.65 175.65 293.55 Q174.55 294.5 173.05 294.4 171.5 294.3 169.6 293.2 L169.55 293.2 Q169.35 298.25 169.55 303.3 L164.05 304.45 163.35 302.45 Q159.5 304.05 157.05 300.8 L144.75 292.65 146.7 276.8 Q142.75 272.5 139.4 268.1 L136.2 263.8 Q122.0 243.45 119.25 220.95 L125.7 209.3 Q117.9 175.9 127.6 144.15 148.65 136.05 171.65 129.75" fill="none" stroke="#000000" stroke-linecap="round" stroke-linejoin="round" stroke-width="2.0"/>
  </g>
</svg>
