<?xml version="1.0" encoding="UTF-8" standalone="no"?>
<svg xmlns:xlink="http://www.w3.org/1999/xlink" height="54.1px" width="150.85px" xmlns="http://www.w3.org/2000/svg">
  <g transform="matrix(1.0, 0.0, 0.0, 1.0, -126.6, -128.75)">
    <path d="M276.45 153.15 Q254.55 165.35 238.65 182.35 186.8 156.5 127.6 144.15 M238.65 182.35 L238.65 181.25 Q238.2 164.55 227.6 153.4 M257.3 152.95 Q249.85 150.65 241.6 149.2 234.2 147.85 226.2 147.25 224.5 150.7 217.0 146.8 L184.25 148.1 166.15 150.5" fill="none" stroke="#000000" stroke-linecap="round" stroke-linejoin="round" stroke-width="1.0"/>
    <path d="M127.6 144.15 Q148.65 136.05 171.65 129.75 M232.15 133.4 Q257.95 139.15 276.45 153.15" fill="none" stroke="#000000" stroke-linecap="round" stroke-linejoin="round" stroke-width="2.0"/>
    <path d="M171.65 129.75 Q180.2 138.9 184.25 148.1 M241.6 149.2 Q240.1 141.3 232.15 133.4" fill="none" stroke="#000000" stroke-linecap="round" stroke-linejoin="round" stroke-width="1.0"/>
  </g>
</svg>
