<?xml version="1.0" encoding="UTF-8" standalone="no"?>
<svg xmlns:xlink="http://www.w3.org/1999/xlink" height="194.55px" width="89.5px" xmlns="http://www.w3.org/2000/svg">
  <g transform="matrix(1.0, 0.0, 0.0, 1.0, -160.85, -228.7)">
    <path d="M241.35 285.35 L242.5 281.45 244.65 271.85 244.7 271.85 245.3 267.95 Q246.05 262.75 246.3 257.45 247.15 243.95 249.85 231.15 M211.0 258.05 Q219.8 263.95 224.5 270.45 L238.0 262.75 M218.0 334.95 L214.3 340.6 M207.2 336.75 L207.2 329.45 M179.3 337.85 L180.7 331.9 M191.85 344.65 L191.85 356.25 Q190.5 363.2 189.4 370.25 L189.35 370.55 M191.85 339.1 L187.6 343.65 M200.4 320.05 L205.7 310.6 Q220.25 291.6 224.5 270.45" fill="none" stroke="#000000" stroke-linecap="round" stroke-linejoin="round" stroke-width="1.0"/>
    <path d="M241.35 285.35 Q239.8 290.25 237.8 295.0 L234.85 301.45 231.75 307.3 218.5 327.25 218.0 334.95 219.3 351.15 204.6 413.8 Q204.15 416.45 205.1 419.1 M174.85 421.95 Q174.65 418.65 173.7 415.35 163.2 384.5 161.85 354.75 166.45 340.65 175.9 333.75 L182.95 272.2 Q185.45 250.55 184.5 229.7 M200.4 320.05 L200.4 331.15 191.85 344.65 191.85 339.1 193.8 337.0 196.5 327.1 200.4 320.05 M189.35 370.55 Q193.85 391.45 192.4 413.25 L192.0 419.1 M189.35 370.55 Q185.85 392.15 184.1 414.35 L185.1 421.1" fill="none" stroke="#000000" stroke-linecap="round" stroke-linejoin="round" stroke-width="2.0"/>
    <path d="M185.1 421.1 Q180.6 423.85 174.85 421.95" fill="none" stroke="#000000" stroke-linecap="round" stroke-linejoin="round" stroke-width="1.0"/>
    <path d="M205.1 419.1 Q201.25 421.25 192.0 419.1" fill="none" stroke="#000000" stroke-linecap="round" stroke-linejoin="round" stroke-width="1.0"/>
  </g>
</svg>
