<?xml version="1.0" encoding="UTF-8" standalone="no"?>
<svg xmlns:xlink="http://www.w3.org/1999/xlink" height="20.85px" width="57.15px" xmlns="http://www.w3.org/2000/svg">
  <g transform="matrix(1.0, 0.0, 0.0, 1.0, -161.0, -353.75)">
    <path d="M162.85 367.3 L166.45 366.0 166.85 365.9 Q172.75 364.8 174.25 374.1 178.45 373.7 182.35 373.9 182.95 366.3 187.4 365.15 L190.1 365.85 190.15 365.85 191.85 356.25 Q188.25 354.85 183.7 354.5 184.25 362.85 178.45 362.6 171.65 363.2 172.4 355.1 167.55 355.8 162.0 357.35 M217.15 360.5 Q216.2 362.55 213.6 362.5 208.7 362.3 209.8 354.25 202.55 354.35 191.85 356.25 M190.15 365.85 Q196.45 364.35 201.5 363.75 209.6 364.7 207.5 373.15 L214.1 373.45" fill="none" stroke="#000000" stroke-linecap="round" stroke-linejoin="round" stroke-width="1.0"/>
    <path d="M162.0 357.35 Q162.25 362.3 162.85 367.3 M214.1 373.45 L217.15 360.5" fill="none" stroke="#000000" stroke-linecap="round" stroke-linejoin="round" stroke-width="2.0"/>
  </g>
</svg>
