<?xml version="1.0" encoding="UTF-8" standalone="no"?>
<svg xmlns:xlink="http://www.w3.org/1999/xlink" height="102.5px" width="29.85px" xmlns="http://www.w3.org/2000/svg">
  <g transform="matrix(1.0, 0.0, 0.0, 1.0, -161.85, -363.6)">
    <path d="M189.35 370.55 L189.4 370.25 190.15 365.85 190.1 365.85 Q186.55 364.75 183.0 364.35 178.25 363.8 173.45 364.45 168.15 365.1 162.85 367.3 M163.95 375.8 Q169.2 374.55 174.1 374.1 L174.85 385.7 165.9 386.65 M168.3 397.15 L175.55 396.4 176.15 406.0 170.85 406.45 M173.7 415.35 L177.1 415.65 178.0 422.65 174.85 421.95 M185.1 421.1 Q183.2 422.25 181.05 422.6 L180.2 415.4 184.1 414.35 M184.9 405.25 L180.1 405.65 180.8 395.9 185.95 395.35 M187.2 385.2 L181.55 385.3 182.35 373.9 188.75 374.55" fill="none" stroke="#000000" stroke-linecap="round" stroke-linejoin="round" stroke-width="1.0"/>
    <path d="M162.85 367.3 L163.95 375.8 164.15 377.15 M165.9 386.65 Q166.95 391.9 168.3 397.15 L168.4 397.45 M170.85 406.45 Q172.2 410.9 173.7 415.35 M174.85 421.95 Q175.05 424.7 174.75 427.45 172.95 432.25 171.9 437.4 170.6 443.65 170.35 450.4 L170.4 450.4 Q173.7 454.85 178.2 459.0 L179.6 460.25 185.7 465.1 186.8 463.55 Q188.3 461.25 189.25 458.5 L189.4 458.05 Q190.7 453.8 190.7 448.5 190.7 445.45 190.3 442.05 L188.65 436.7 188.25 435.25 186.3 427.35 186.15 426.7 185.1 421.1 M184.1 414.35 L184.9 405.25 M185.95 395.35 L185.8 396.6 187.2 385.2 M188.75 374.55 L189.35 370.55" fill="none" stroke="#000000" stroke-linecap="round" stroke-linejoin="round" stroke-width="2.0"/>
  </g>
</svg>
