<?xml version="1.0" encoding="UTF-8" standalone="no"?>
<svg xmlns:xlink="http://www.w3.org/1999/xlink" height="102.25px" width="29.85px" xmlns="http://www.w3.org/2000/svg">
  <g transform="matrix(1.0, 0.0, 0.0, 1.0, -161.85, -363.85)">
    <path d="M189.35 370.55 L189.4 370.25 190.15 365.85 190.1 365.85 Q186.55 364.75 183.0 364.35 L182.5 371.45 Q178.35 371.15 173.95 371.65 L173.45 364.45 Q168.15 365.1 162.85 367.3 M163.6 373.5 L168.85 372.35 169.7 380.0 174.45 379.65 Q178.3 379.4 181.95 379.5 L184.9 379.6 186.05 371.8 189.1 372.3" fill="none" stroke="#000000" stroke-linecap="round" stroke-linejoin="round" stroke-width="1.0"/>
    <path d="M162.85 367.3 Q163.15 370.4 163.6 373.5 164.1 377.05 164.75 380.6 167.75 397.8 173.7 415.35 175.4 421.4 174.75 427.45 170.8 438.1 170.35 450.4 174.2 455.5 179.6 460.25 L185.7 465.1 185.85 464.95 188.95 459.4 189.25 458.5 Q191.5 451.7 190.3 442.05 185.7 427.85 184.1 414.35 185.5 396.9 187.95 379.8 L189.1 372.3 189.35 370.55" fill="none" stroke="#000000" stroke-linecap="round" stroke-linejoin="round" stroke-width="2.0"/>
  </g>
</svg>
