<?xml version="1.0" encoding="UTF-8" standalone="no"?>
<svg xmlns:xlink="http://www.w3.org/1999/xlink" height="187.0px" width="47.55px" xmlns="http://www.w3.org/2000/svg">
  <g transform="matrix(1.0, 0.0, 0.0, 1.0, -160.85, -279.1)">
    <path d="M182.05 280.1 L175.9 333.75 Q166.45 340.65 161.85 354.75 163.2 384.5 173.7 415.35 175.4 421.4 174.75 427.45 170.8 438.1 170.35 450.4 176.25 458.25 185.7 465.1 192.15 457.05 190.3 442.05 185.7 427.85 184.1 414.35 185.85 392.15 189.35 370.55 M191.85 344.65 L191.85 339.1 193.8 337.0 196.5 327.1 200.4 320.05" fill="none" stroke="#000000" stroke-linecap="round" stroke-linejoin="round" stroke-width="2.0"/>
    <path d="M200.4 320.05 L205.7 310.6 207.9 307.6 Q201.65 288.0 182.05 280.1 M189.35 370.55 L189.4 370.25 Q190.5 363.2 191.85 356.25 L191.85 344.65 M191.85 339.1 L187.6 343.65 M179.3 337.85 L180.7 331.9" fill="none" stroke="#000000" stroke-linecap="round" stroke-linejoin="round" stroke-width="1.0"/>
  </g>
</svg>
