<?xml version="1.0" encoding="UTF-8" standalone="no"?>
<svg xmlns:xlink="http://www.w3.org/1999/xlink" height="163.05px" width="52.7px" xmlns="http://www.w3.org/2000/svg">
  <g transform="matrix(1.0, 0.0, 0.0, 1.0, -188.35, -288.2)">
    <path d="M240.05 289.2 L237.8 295.0 234.85 301.45 231.75 307.3 218.5 327.25 218.0 334.95 219.3 351.15 204.6 413.8 Q203.5 420.3 210.75 426.8 222.7 438.2 231.85 450.2 216.55 451.1 201.25 439.75 L190.95 435.35 192.4 413.25 Q193.85 391.45 189.35 370.55 M191.85 344.65 L200.4 331.15 200.4 320.05" fill="none" stroke="#000000" stroke-linecap="round" stroke-linejoin="round" stroke-width="2.0"/>
    <path d="M189.35 370.55 L189.4 370.25 Q190.5 363.2 191.85 356.25 L191.85 344.65 M200.4 320.05 L205.7 310.6 207.9 307.6 Q215.85 306.65 222.15 301.45 229.2 295.65 240.05 289.2 M218.0 334.95 L214.3 340.6 M207.2 336.75 L207.2 329.45" fill="none" stroke="#000000" stroke-linecap="round" stroke-linejoin="round" stroke-width="1.0"/>
  </g>
</svg>
