<?xml version="1.0" encoding="UTF-8" standalone="no"?>
<svg xmlns:xlink="http://www.w3.org/1999/xlink" height="116.1px" width="36.75px" xmlns="http://www.w3.org/2000/svg">
  <g transform="matrix(1.0, 0.0, 0.0, 1.0, -158.7, -320.55)">
    <path d="M176.75 326.3 L181.5 328.0 186.75 320.55 194.25 322.55 195.45 335.9 191.85 341.05 192.7 343.3 193.55 345.9 193.85 346.95 Q194.55 349.6 194.9 352.3 L195.15 355.6 191.9 355.2 191.85 355.2 189.65 355.5 Q186.25 356.55 184.8 360.75 184.75 362.75 184.85 364.6 185.05 370.3 186.15 374.2 186.9 376.85 188.1 378.65 189.05 380.1 190.25 381.0 L184.1 414.35 184.65 418.35 Q186.05 419.8 187.55 422.0 L191.5 426.6 188.15 434.8 188.1 434.8 Q185.35 431.65 182.5 431.0 180.9 430.6 179.3 431.05 L178.75 431.2 Q177.55 431.55 176.4 432.35 174.25 433.75 172.1 436.45 L171.95 436.65 169.4 427.05 172.8 422.0 174.55 419.05 173.7 415.35 Q168.65 405.85 165.6 396.4 163.15 389.0 161.95 381.65 163.4 380.95 164.65 380.05 167.25 378.15 168.85 375.4 L169.2 374.75 Q171.35 370.65 171.45 364.75 L171.1 359.2 Q169.9 357.25 168.4 355.8 L167.6 355.05 Q165.45 353.1 162.8 352.1 160.85 351.3 158.7 351.0 164.3 341.0 172.75 336.35 171.85 334.55 172.45 332.75 L173.85 327.8 Q174.3 326.3 176.75 326.35 L176.75 326.3" fill="#000000" fill-rule="evenodd" stroke="none"/>
  </g>
</svg>
