<?xml version="1.0" encoding="UTF-8" standalone="no"?>
<svg xmlns:xlink="http://www.w3.org/1999/xlink" height="41.85px" width="71.5px" xmlns="http://www.w3.org/2000/svg">
  <g transform="matrix(1.0, 0.0, 0.0, 1.0, -179.55, -228.6)">
    <path d="M249.95 251.55 Q249.6 249.95 248.3 248.8 247.25 259.1 241.55 264.1 L241.55 260.7 238.05 263.85 Q231.75 268.8 224.5 270.45 217.0 261.7 203.8 257.7 L206.05 261.15 Q202.3 260.1 199.15 258.85 192.95 256.4 189.15 253.0 186.3 253.15 184.55 254.65 182.2 256.55 181.7 260.7 178.95 249.0 183.1 243.7 181.7 243.85 179.55 245.2 180.1 237.5 184.5 229.7 L199.4 229.0 Q237.1 227.55 249.85 231.15 252.2 238.55 249.95 251.55" fill="#000000" fill-rule="evenodd" stroke="none"/>
  </g>
</svg>
