<?xml version="1.0" encoding="UTF-8" standalone="no"?>
<svg xmlns:xlink="http://www.w3.org/1999/xlink" height="100.3px" width="34.85px" xmlns="http://www.w3.org/2000/svg">
  <g transform="matrix(1.0, 0.0, 0.0, 1.0, -240.1, -203.65)">
    <path d="M272.95 203.65 L269.1 212.0 Q273.75 221.0 274.95 230.0 264.2 252.0 261.15 262.4 L259.55 267.95 257.9 273.75 269.8 285.5 Q266.25 290.05 265.1 297.25 L262.65 297.25 262.75 300.75 Q262.1 304.25 258.55 303.95 256.45 303.6 255.75 302.2 252.7 303.6 250.95 302.6 249.6 301.8 249.0 299.7 246.85 300.4 245.55 299.7 244.35 299.05 243.75 297.3 242.05 297.0 241.15 296.2 239.8 295.0 240.15 292.6 240.4 288.95 241.35 285.35 L242.5 281.45 Q243.75 277.7 245.65 274.05 L244.7 271.85 245.3 267.95 Q246.05 262.75 246.3 257.45 247.15 243.95 249.85 231.15 L250.45 228.4 Q253.55 216.6 258.6 206.05 266.55 206.45 272.95 203.65" fill="#000000" fill-rule="evenodd" stroke="none"/>
  </g>
</svg>
