<?xml version="1.0" encoding="UTF-8" standalone="no"?>
<svg xmlns:xlink="http://www.w3.org/1999/xlink" height="34.3px" width="143.7px" xmlns="http://www.w3.org/2000/svg">
  <g transform="matrix(1.0, 0.0, 0.0, 1.0, -126.05, -242.7)">
    <path d="M159.5 244.4 L159.5 251.0 158.25 252.7 158.2 252.75 Q158.55 257.95 159.45 263.05 L159.45 263.1 159.5 263.05 161.15 264.2 162.3 270.8 161.4 272.0 Q157.8 275.25 153.7 276.4 L150.15 276.95 146.7 276.8 144.35 276.45 138.6 269.85 139.4 268.1 136.2 263.8 132.6 258.25 132.5 258.25 130.1 257.65 126.05 249.85 127.1 248.1 133.4 248.4 140.4 247.9 Q149.35 246.75 157.95 242.85 L158.0 242.8 159.5 244.4 M149.75 267.1 L149.75 267.05 149.75 267.1 M259.05 243.8 L264.35 243.75 268.65 243.4 269.75 244.9 266.65 251.7 264.5 253.0 Q262.3 258.5 261.15 262.4 L260.4 265.15 260.3 265.1 260.35 265.2 261.4 266.55 259.85 272.5 257.9 273.75 253.65 274.35 249.75 274.45 245.65 274.05 244.7 271.85 245.3 267.95 245.7 265.0 246.3 257.45 246.7 252.55 Q247.1 247.6 247.8 242.7 L259.05 243.8" fill="#000000" fill-rule="evenodd" stroke="none"/>
  </g>
</svg>
