<?xml version="1.0" encoding="UTF-8" standalone="no"?>
<svg xmlns:xlink="http://www.w3.org/1999/xlink" height="67.1px" width="159.05px" xmlns="http://www.w3.org/2000/svg">
  <g transform="matrix(1.0, 0.0, 0.0, 1.0, -118.65, -211.2)">
    <path d="M124.0 240.65 Q126.45 244.15 129.55 247.35 135.85 247.05 139.45 242.8 140.8 229.7 145.8 222.65 152.45 221.95 159.55 225.15 L160.95 225.8 159.85 237.5 158.05 239.8 Q157.45 252.1 159.6 263.8 L159.55 263.85 159.6 263.9 161.0 265.4 162.55 271.4 Q154.8 278.65 145.4 277.3 L140.55 271.5 138.4 266.8 136.2 263.8 Q128.35 252.55 124.0 240.65 M159.55 263.85 L155.1 259.05 155.1 243.5 158.05 239.8 155.1 243.5 155.1 259.05 159.55 263.85" fill="url(#gradient0)" fill-rule="evenodd" stroke="none"/>
    <path d="M129.9 222.75 Q128.35 221.05 126.85 221.45 125.35 221.8 124.8 224.1 124.35 226.35 125.1 229.2 125.85 232.0 127.4 233.7 129.0 235.45 130.5 235.05 132.0 234.65 132.45 232.35 133.0 230.1 132.25 227.3 131.5 224.45 129.9 222.75 M120.6 228.9 L122.85 218.05 137.7 211.7 145.8 222.65 Q140.8 229.7 139.45 242.8 135.85 247.05 129.55 247.35 126.45 244.15 124.0 240.65 121.5 237.1 119.65 233.25 L120.6 228.9" fill="url(#gradient1)" fill-rule="evenodd" stroke="none"/>
    <path d="M245.65 274.05 L244.7 271.85 245.3 267.95 Q246.05 262.75 246.3 257.45 247.2 242.5 250.45 228.4 L251.6 224.35 Q259.6 230.85 271.85 218.0 L274.85 218.95 Q276.6 222.2 276.7 230.2 L273.7 232.6 Q266.6 247.3 263.15 256.5 L263.25 262.7 260.45 272.05 257.9 273.75 Q250.9 275.75 245.65 274.05 M263.15 256.5 L257.35 253.6 260.95 237.3 Q268.35 234.4 274.95 230.0 L273.7 232.6 274.95 230.0 Q268.35 234.4 260.95 237.3 L257.35 253.6 263.15 256.5" fill="url(#gradient2)" fill-rule="evenodd" stroke="none"/>
    <path d="M129.9 222.75 Q131.5 224.45 132.25 227.3 133.0 230.1 132.45 232.35 132.0 234.65 130.5 235.05 129.0 235.45 127.4 233.7 125.85 232.0 125.1 229.2 124.35 226.35 124.8 224.1 125.35 221.8 126.85 221.45 128.35 221.05 129.9 222.75" fill="url(#gradient3)" fill-rule="evenodd" stroke="none"/>
    <path d="M145.8 222.65 L137.7 211.7 122.85 218.05 120.6 228.9 M124.0 240.65 Q126.45 244.15 129.55 247.35 135.85 247.05 139.45 242.8 140.8 229.7 145.8 222.65 152.45 221.95 159.55 225.15 M158.05 239.8 L155.1 243.5 155.1 259.05 159.55 263.85 159.6 263.9 M245.65 274.05 L244.7 271.85 245.3 267.95 Q246.05 262.75 246.3 257.45 247.2 242.5 250.45 228.4 L251.6 224.35 Q259.6 230.85 271.85 218.0 M273.7 232.6 L274.95 230.0 Q268.35 234.4 260.95 237.3 L257.35 253.6 263.15 256.5" fill="none" stroke="#000000" stroke-linecap="round" stroke-linejoin="round" stroke-width="1.0"/>
    <path d="M120.6 228.9 L119.65 233.25 Q121.5 237.1 124.0 240.65 128.35 252.55 136.2 263.8 L138.4 266.8 140.55 271.5 145.4 277.3 M159.55 225.15 L160.95 225.8 159.85 237.5 158.05 239.8 Q157.45 252.1 159.6 263.8 L159.6 263.9 161.0 265.4 162.55 271.4 M271.85 218.0 L274.85 218.95 Q276.6 222.2 276.7 230.2 L273.7 232.6 Q266.6 247.3 263.15 256.5 L263.25 262.7 260.45 272.05 257.9 273.75" fill="none" stroke="#000000" stroke-linecap="round" stroke-linejoin="round" stroke-width="2.0"/>
    <path d="M129.9 222.75 Q131.5 224.45 132.25 227.3 133.0 230.1 132.45 232.35 132.0 234.65 130.5 235.05 129.0 235.45 127.4 233.7 125.85 232.0 125.1 229.2 124.35 226.35 124.8 224.1 125.35 221.8 126.85 221.45 128.35 221.05 129.9 222.75 M162.55 271.4 Q154.8 278.65 145.4 277.3 M257.9 273.75 Q250.9 275.75 245.65 274.05" fill="none" stroke="#000000" stroke-linecap="round" stroke-linejoin="round" stroke-width="1.0"/>
    <path d="M121.65 223.9 L122.85 218.05 124.15 217.5 Q124.45 220.45 125.0 223.4 L124.8 224.1 Q124.35 226.35 125.1 229.2 125.85 231.95 127.35 233.65 129.25 240.35 132.05 247.05 L129.55 247.35 128.6 246.35 Q123.7 235.1 121.65 223.9 M152.4 277.1 L148.7 277.55 Q136.5 259.4 133.0 246.85 134.95 246.35 136.55 245.35 140.6 257.75 152.4 277.1 M272.75 218.3 L268.0 234.15 264.25 235.95 268.75 221.0 271.85 218.0 272.75 218.3 M258.65 254.25 L261.5 255.65 255.85 274.3 252.45 274.8 258.65 254.25" fill="#ffffff" fill-opacity="0.2509804" fill-rule="evenodd" stroke="none"/>
    <path d="M124.15 217.5 L122.85 218.05 121.65 223.9 120.6 228.9 M128.6 246.35 L129.55 247.35 132.05 247.05 133.0 246.85 Q134.95 246.35 136.55 245.35 138.15 244.35 139.45 242.8 140.8 229.7 145.8 222.65 152.45 221.95 159.55 225.15 M124.15 217.5 L137.7 211.7 145.8 222.65 M124.0 240.65 Q126.05 243.6 128.6 246.35 M159.6 263.9 L155.1 259.05 155.1 243.5 158.05 239.8 M268.0 234.15 L274.95 230.0 273.7 232.6 276.7 230.2 Q276.6 222.2 274.85 218.95 L272.75 218.3 271.85 218.0 268.75 221.0 266.15 223.1 263.25 224.95 Q256.6 228.4 251.6 224.35 L250.45 228.4 Q247.2 242.5 246.3 257.45 246.05 262.75 245.3 267.95 L244.7 271.85 245.65 274.05 M268.0 234.15 L264.25 235.95 260.95 237.3 257.35 253.6 258.65 254.25 261.5 255.65 263.15 256.5" fill="none" stroke="#000000" stroke-linecap="round" stroke-linejoin="round" stroke-width="1.0"/>
    <path d="M127.35 233.65 Q125.85 231.95 125.1 229.2 124.35 226.35 124.8 224.1 L125.0 223.4 Q125.6 221.75 126.85 221.45 128.35 221.05 129.9 222.75 131.5 224.45 132.25 227.3 133.0 230.1 132.45 232.35 132.0 234.65 130.5 235.05 129.0 235.45 127.4 233.7 L127.35 233.65 M162.55 271.4 Q157.75 275.9 152.4 277.1 L148.7 277.55 145.4 277.3 M245.65 274.05 Q248.75 275.05 252.45 274.8 L255.85 274.3 257.9 273.75" fill="none" stroke="#000000" stroke-linecap="round" stroke-linejoin="round" stroke-width="1.0"/>
    <path d="M159.55 225.15 L160.95 225.8 159.85 237.5 158.05 239.8 Q157.45 252.1 159.6 263.8 L159.6 263.9 161.0 265.4 162.55 271.4 M145.4 277.3 L140.55 271.5 138.4 266.8 136.2 263.8 Q128.35 252.55 124.0 240.65 121.5 237.1 119.65 233.25 L120.6 228.9 M263.15 256.5 Q266.6 247.3 273.7 232.6 M257.9 273.75 L260.45 272.05 263.25 262.7 263.15 256.5" fill="none" stroke="#000000" stroke-linecap="round" stroke-linejoin="round" stroke-width="2.0"/>
  </g>
  <defs>
    <linearGradient gradientTransform="matrix(-0.0233, 0.0061, -0.0085, -0.032, 147.05, 250.45)" gradientUnits="userSpaceOnUse" id="gradient0" spreadMethod="pad" x1="-819.2" x2="819.2">
      <stop offset="0.0" stop-color="#000000" stop-opacity="0.0"/>
      <stop offset="1.0" stop-color="#000000" stop-opacity="0.2509804"/>
    </linearGradient>
    <linearGradient gradientTransform="matrix(-0.0165, 0.0044, -0.0051, -0.0193, 133.2, 229.8)" gradientUnits="userSpaceOnUse" id="gradient1" spreadMethod="pad" x1="-819.2" x2="819.2">
      <stop offset="0.0" stop-color="#000000" stop-opacity="0.0"/>
      <stop offset="1.0" stop-color="#000000" stop-opacity="0.2509804"/>
    </linearGradient>
    <linearGradient gradientTransform="matrix(0.0195, 0.0, 0.0, 0.0347, 260.7, 246.4)" gradientUnits="userSpaceOnUse" id="gradient2" spreadMethod="pad" x1="-819.2" x2="819.2">
      <stop offset="0.0" stop-color="#000000" stop-opacity="0.0"/>
      <stop offset="1.0" stop-color="#000000" stop-opacity="0.2509804"/>
    </linearGradient>
    <linearGradient gradientTransform="matrix(-0.0044, 0.0012, -0.0022, -0.0083, 128.7, 228.25)" gradientUnits="userSpaceOnUse" id="gradient3" spreadMethod="pad" x1="-819.2" x2="819.2">
      <stop offset="0.0" stop-color="#000000" stop-opacity="0.0"/>
      <stop offset="1.0" stop-color="#000000" stop-opacity="0.2509804"/>
    </linearGradient>
  </defs>
</svg>
