<?xml version="1.0" encoding="UTF-8" standalone="no"?>
<svg xmlns:xlink="http://www.w3.org/1999/xlink" height="16.5px" width="67.1px" xmlns="http://www.w3.org/2000/svg">
  <g transform="matrix(1.0, 0.0, 0.0, 1.0, -184.2, -220.15)">
    <path d="M250.45 228.4 L248.95 235.6 238.85 232.05 243.0 236.65 226.75 231.45 230.25 235.6 212.75 231.2 215.7 234.55 199.5 231.3 201.05 232.95 199.5 233.0 196.2 233.15 188.3 231.45 190.55 234.95 184.65 233.85 184.2 224.6 188.6 225.7 186.0 222.2 199.25 225.1 197.55 221.2 214.05 224.55 211.3 220.15 227.65 224.55 224.7 220.4 243.25 226.5 239.6 221.2 251.3 225.4 250.45 228.4" fill="#000000" fill-rule="evenodd" stroke="none"/>
  </g>
</svg>
