<?xml version="1.0" encoding="UTF-8" standalone="no"?>
<svg xmlns:xlink="http://www.w3.org/1999/xlink" height="43.45px" width="87.55px" xmlns="http://www.w3.org/2000/svg">
  <g transform="matrix(1.0, 0.0, 0.0, 1.0, -172.35, -207.8)">
    <path d="M207.85 212.6 L208.05 212.7 Q208.8 213.0 209.3 213.5 209.9 214.15 210.0 215.05 L210.05 215.75 210.2 218.35 210.3 220.8 210.35 222.0 210.45 226.0 210.5 230.75 210.5 234.4 210.45 237.65 210.35 241.8 208.55 244.4 208.05 244.85 206.15 246.1 203.7 246.7 200.1 246.35 Q198.6 245.4 197.6 244.05 196.5 242.55 196.05 240.55 L195.7 238.1 197.1 220.8 196.65 220.8 197.6 216.15 Q198.1 214.75 199.15 213.85 200.25 212.8 202.05 212.35 L203.9 212.05 204.75 212.05 207.85 212.6 M206.3 209.5 L206.3 209.55 Q204.3 209.55 201.7 210.25 198.55 210.45 197.05 211.8 L197.0 211.85 Q195.65 213.0 195.55 215.1 L194.05 223.1 Q193.7 224.4 192.85 225.15 L192.3 225.5 190.7 225.95 187.45 225.85 187.4 225.85 184.55 228.5 189.35 228.3 190.1 228.4 192.3 228.3 Q193.55 228.0 194.45 227.2 L193.35 238.15 Q193.0 240.45 193.5 242.45 193.9 244.35 195.1 246.0 L196.6 247.75 197.7 248.2 188.4 248.25 Q187.05 249.0 184.55 249.35 L181.55 249.6 179.8 249.0 Q178.35 248.45 177.05 247.6 L175.35 246.25 175.15 246.05 Q173.95 244.95 173.3 243.65 172.45 242.05 172.35 240.15 172.3 239.05 172.5 237.85 L175.3 229.4 Q174.1 228.85 173.8 227.8 173.45 226.55 174.25 224.65 L175.6 221.7 176.65 219.0 177.6 216.1 178.3 213.4 Q179.0 211.75 180.95 210.55 182.35 209.7 184.4 209.05 186.95 208.25 190.55 207.8 191.8 208.1 192.25 209.15 199.1 208.2 206.3 209.5 M254.9 236.1 Q255.85 241.4 259.25 246.3 260.65 248.15 258.95 249.4 258.35 251.1 256.2 251.25 L243.5 250.4 243.5 250.35 Q239.2 245.45 237.0 238.35 L233.5 237.9 Q234.55 242.35 232.65 246.3 228.8 250.3 223.65 249.75 217.7 249.3 215.6 246.4 214.8 245.3 214.5 243.95 L213.8 241.65 Q213.15 238.85 213.8 236.1 214.1 234.7 214.75 233.35 L214.95 232.95 213.8 232.5 212.6 232.0 212.6 231.95 212.7 227.2 212.65 223.3 212.5 220.65 213.8 221.3 217.45 222.95 217.4 223.15 217.5 222.95 217.45 222.95 Q217.75 219.95 220.2 219.6 L225.95 219.2 Q229.4 219.0 229.55 221.95 229.55 224.6 231.15 227.05 L232.05 227.5 235.1 228.05 Q237.65 225.6 241.05 225.8 L252.35 226.35 Q253.5 228.05 254.4 233.15 255.6 234.35 254.9 236.1" fill="#000000" fill-rule="evenodd" stroke="none"/>
  </g>
</svg>
