<?xml version="1.0" encoding="UTF-8" standalone="no"?>
<svg xmlns:xlink="http://www.w3.org/1999/xlink" height="15.3px" width="16.55px" xmlns="http://www.w3.org/2000/svg">
  <g transform="matrix(1.0, 0.0, 0.0, 1.0, -224.75, -220.05)">
    <path d="M226.75 222.55 L227.3 222.0 Q229.85 219.85 233.0 220.1 236.1 220.3 238.2 222.75 L238.6 223.25 238.65 223.35 Q239.95 225.15 240.05 227.35 241.3 227.85 241.3 228.45 241.25 229.05 239.9 229.4 L239.9 229.35 239.65 229.45 239.85 229.5 Q239.3 231.85 237.4 233.5 L236.95 233.85 236.9 233.85 Q234.65 235.55 231.85 235.35 229.0 235.1 227.0 233.15 L226.6 232.7 226.4 232.4 Q225.0 230.65 224.8 228.6 L224.75 227.5 224.75 227.35 224.8 227.15 Q224.95 224.45 226.75 222.55" fill="#000000" fill-rule="evenodd" stroke="none"/>
  </g>
</svg>
