<?xml version="1.0" encoding="UTF-8" standalone="no"?>
<svg xmlns:xlink="http://www.w3.org/1999/xlink" height="20.2px" width="38.45px" xmlns="http://www.w3.org/2000/svg">
  <g transform="matrix(1.0, 0.0, 0.0, 1.0, -188.15, -78.15)">
    <path d="M201.05 93.45 L196.9 97.85 Q196.3 95.25 194.25 95.3 192.85 95.4 192.2 96.35 191.65 92.35 189.15 88.9 L201.05 93.45" fill="#000000" fill-opacity="0.2509804" fill-rule="evenodd" stroke="none"/>
    <path d="M197.05 82.95 Q196.65 81.4 196.75 79.3 199.6 82.9 204.35 80.4 204.85 80.1 205.45 79.95 210.05 78.4 217.9 82.25 222.45 82.05 221.75 79.15 225.3 84.4 223.1 86.2 L225.6 89.65 Q225.7 91.95 224.25 94.25 224.2 89.7 221.95 86.8 M192.2 96.35 Q191.65 92.35 189.15 88.9" fill="none" stroke="#000000" stroke-linecap="round" stroke-linejoin="round" stroke-width="2.0"/>
    <path d="M221.95 86.8 L221.9 86.8 Q217.7 86.75 215.35 89.45 211.5 86.35 207.35 87.05 203.3 87.85 200.8 87.05 200.2 89.85 201.05 93.45 M197.05 82.95 Q197.85 86.1 200.8 87.05 M217.9 82.25 L217.85 83.6 Q217.45 86.4 215.35 89.45 210.65 83.1 205.45 79.95 M221.95 86.8 L223.1 86.2" fill="none" stroke="#000000" stroke-linecap="round" stroke-linejoin="round" stroke-width="1.0"/>
    <path d="M201.05 93.45 L196.9 97.85 Q196.3 95.25 194.25 95.3 M189.15 88.9 L201.05 93.45" fill="none" stroke="#000000" stroke-linecap="round" stroke-linejoin="round" stroke-width="1.0"/>
    <path d="M194.25 95.3 Q192.85 95.4 192.2 96.35 M189.15 88.9 Q194.6 86.45 197.05 82.95" fill="none" stroke="#000000" stroke-linecap="round" stroke-linejoin="round" stroke-width="2.0"/>
  </g>
</svg>
