<?xml version="1.0" encoding="UTF-8" standalone="no"?>
<svg xmlns:xlink="http://www.w3.org/1999/xlink" height="7.9px" width="31.3px" xmlns="http://www.w3.org/2000/svg">
  <g transform="matrix(1.0, 0.0, 0.0, 1.0, -195.7, -95.0)">
    <path d="M208.85 95.5 L209.3 95.5 212.1 96.0 207.95 102.3 Q206.55 102.1 205.45 101.4 L205.2 101.25 208.85 95.5 M222.8 95.55 Q224.05 95.7 225.05 96.45 L221.35 102.4 Q219.9 102.25 218.85 101.5 L222.8 95.55" fill="#ffffff" fill-opacity="0.2509804" fill-rule="evenodd" stroke="none"/>
    <path d="M208.85 95.5 L209.3 95.5 212.1 96.0 213.1 96.5 213.55 96.8 Q216.9 95.7 218.35 96.8 L218.7 96.5 Q220.05 95.5 221.95 95.5 L222.8 95.55 Q224.05 95.7 225.05 96.45 L225.15 96.5 Q226.5 97.5 226.5 98.95 226.5 100.4 225.15 101.4 223.85 102.4 221.95 102.4 L221.35 102.4 Q219.9 102.25 218.85 101.5 L218.7 101.4 Q217.4 100.4 217.4 98.95 217.4 97.7 218.35 96.8 M196.2 96.2 L204.3 97.65 Q204.65 97.0 205.45 96.5 206.9 95.6 208.85 95.5 M205.2 101.25 L205.45 101.4 Q206.55 102.1 207.95 102.3 L209.3 102.4 Q211.55 102.4 213.1 101.4 214.7 100.4 214.7 98.95 214.7 97.7 213.55 96.8 M205.2 101.25 Q203.9 100.3 203.9 98.95 203.9 98.25 204.3 97.65" fill="none" stroke="#000000" stroke-linecap="round" stroke-linejoin="round" stroke-width="1.0"/>
  </g>
</svg>
