<?xml version="1.0" encoding="UTF-8" standalone="no"?>
<svg xmlns:xlink="http://www.w3.org/1999/xlink" height="23.5px" width="40.55px" xmlns="http://www.w3.org/2000/svg">
  <g transform="matrix(1.0, 0.0, 0.0, 1.0, -135.6, -275.7)">
    <path d="M136.3 280.6 Q136.85 277.3 139.25 275.7 142.7 277.8 146.4 279.3 L146.0 282.35 145.35 282.2 Q144.45 282.15 143.8 282.75 143.15 283.3 143.1 284.2 143.0 285.05 143.6 285.7 144.15 286.35 145.05 286.45 L145.5 286.45 145.05 290.35 Q141.55 290.55 137.25 291.75 136.4 291.65 136.15 290.85 135.2 287.8 135.95 282.6 L136.3 280.6 M170.15 285.6 L173.2 286.6 Q175.25 287.0 176.15 288.15 L170.95 299.05 Q170.35 299.45 169.65 298.65 L169.45 298.5 Q169.45 295.8 169.6 293.2 169.75 289.35 170.15 285.6" fill="#000000" fill-rule="evenodd" stroke="none"/>
  </g>
</svg>
