<?xml version="1.0" encoding="UTF-8" standalone="no"?>
<svg xmlns:xlink="http://www.w3.org/1999/xlink" height="97.95px" width="250.4px" xmlns="http://www.w3.org/2000/svg">
  <g transform="matrix(1.0, 0.0, 0.0, 1.0, -123.0, -269.4)">
    <path d="M137.15 284.25 L138.35 280.95 150.35 285.35 148.95 289.3 Q145.05 287.0 137.15 284.25 M168.6 295.7 Q160.2 292.0 153.6 290.9 L153.5 291.15 Q152.55 291.45 152.05 290.65 L152.15 290.4 150.4 289.75 151.8 285.9 153.55 286.55 155.0 287.05 153.6 290.9 155.0 287.05 169.8 292.5 168.6 295.7 M152.15 290.4 L153.55 286.55 152.15 290.4" fill="#000000" fill-opacity="0.5019608" fill-rule="evenodd" stroke="none"/>
    <path d="M137.1 280.5 L135.9 283.8 Q131.8 282.0 130.45 283.0 123.15 279.45 124.1 275.85 L124.1 275.75 132.05 278.65 130.45 283.0 132.05 278.65 137.1 280.5 M138.35 280.95 L139.5 277.75 Q147.35 280.7 151.8 281.5 L150.35 285.35 151.8 285.9 150.4 289.75 150.3 290.0 Q149.35 290.3 148.85 289.5 L148.95 289.3 150.35 285.35 138.35 280.95 M153.2 282.05 L154.95 282.7 153.55 286.55 151.8 285.9 153.2 282.05 M156.35 283.25 Q162.15 286.65 171.0 289.2 L169.8 292.5 170.85 292.85 169.65 296.1 170.85 292.85 172.2 293.35 Q172.55 295.0 172.45 297.1 L169.65 296.1 169.6 296.3 Q168.95 296.35 168.55 295.9 L168.6 295.7 169.8 292.5 155.0 287.05 156.35 283.25 M177.85 298.85 Q175.25 301.8 174.2 305.5 171.45 315.65 180.85 321.7 175.95 325.1 170.85 322.15 171.55 319.95 170.8 316.85 169.25 310.45 171.15 304.15 172.3 300.15 172.45 297.1 172.55 295.0 172.2 293.35 L180.5 296.35 Q179.0 297.5 177.85 298.85 M174.25 321.25 Q177.5 322.25 180.85 321.7 177.5 322.25 174.25 321.25 173.05 322.1 170.85 322.15 173.05 322.1 174.25 321.25 170.9 314.3 171.8 308.25 173.0 300.35 180.5 296.35 173.0 300.35 171.8 308.25 170.9 314.3 174.25 321.25" fill="#000000" fill-opacity="0.2509804" fill-rule="evenodd" stroke="none"/>
    <path d="M202.1 298.6 L204.15 297.8 Q234.2 312.9 285.5 328.85 353.95 347.8 372.4 366.2 346.45 368.45 281.85 338.95 232.3 318.2 199.55 310.45 L198.5 308.55 Q204.85 305.7 216.7 309.55 205.15 304.85 202.1 298.6 M216.7 309.55 L372.4 366.2 216.7 309.55" fill="url(#gradient0)" fill-rule="evenodd" stroke="none"/>
    <path d="M139.5 277.75 L139.6 277.55 Q139.1 276.8 138.35 277.05 L138.25 277.3 Q134.0 276.05 133.6 274.4 125.75 272.45 124.1 275.75 L124.1 275.85 Q123.15 279.45 130.45 283.0 131.8 282.0 135.9 283.8 L135.8 284.05 Q136.25 284.7 137.05 284.5 L137.15 284.25 138.35 280.95 139.5 277.75 Q147.35 280.7 151.8 281.5 L151.85 281.3 Q152.75 281.0 153.25 281.8 L153.2 282.05 154.95 282.7 155.05 282.45 Q155.95 282.15 156.45 282.95 L156.35 283.25 Q162.15 286.65 171.0 289.2 L171.05 289.0 Q171.65 288.95 172.1 289.4 L172.05 289.6 174.85 290.6 Q176.7 288.15 178.35 284.4 180.95 278.3 186.2 274.4 188.8 272.5 189.7 270.4 195.5 271.4 197.05 277.2 186.0 275.75 181.55 285.3 179.95 288.8 180.05 292.7 182.35 292.55 185.5 291.35 193.35 301.3 202.1 298.6 L204.15 297.8 Q234.2 312.9 285.5 328.85 353.95 347.8 372.4 366.2 346.45 368.45 281.85 338.95 232.3 318.2 199.55 310.45 L198.5 308.55 Q193.5 300.85 181.1 303.4 179.5 300.45 177.85 298.85 175.25 301.8 174.2 305.5 171.45 315.65 180.85 321.7 175.95 325.1 170.85 322.15 171.55 319.95 170.8 316.85 169.25 310.45 171.15 304.15 172.3 300.15 172.45 297.1 L169.65 296.1 169.6 296.3 Q168.95 296.35 168.55 295.9 L168.6 295.7 Q160.2 292.0 153.6 290.9 L153.5 291.15 Q152.55 291.45 152.05 290.65 L152.15 290.4 150.4 289.75 150.3 290.0 Q149.35 290.3 148.85 289.5 L148.95 289.3 Q145.05 287.0 137.15 284.25" fill="none" stroke="#000000" stroke-linecap="round" stroke-linejoin="round" stroke-width="2.0"/>
    <path d="M138.25 277.3 L137.1 280.5 135.9 283.8 M180.05 292.7 Q180.1 294.5 180.5 296.35 179.0 297.5 177.85 298.85 M172.2 293.35 L174.85 290.6 M172.2 293.35 Q172.55 295.0 172.45 297.1" fill="none" stroke="#000000" stroke-linecap="round" stroke-linejoin="round" stroke-width="1.0"/>
    <path d="M133.6 274.4 L132.05 278.65 130.45 283.0 M150.35 285.35 L148.95 289.3 M151.8 285.9 L150.4 289.75 M153.6 290.9 L155.0 287.05 156.35 283.25 M153.55 286.55 L152.15 290.4 M151.8 281.5 L150.35 285.35 M154.95 282.7 L153.55 286.55 M151.8 285.9 L153.2 282.05 M169.65 296.1 L170.85 292.85 172.05 289.6 M169.8 292.5 L168.6 295.7 M169.8 292.5 L171.0 289.2 M180.5 296.35 L172.2 293.35 M180.5 296.35 Q177.3 288.45 181.45 281.65 184.7 276.4 191.7 273.25 191.35 271.85 189.7 270.4 M191.7 273.25 Q194.85 274.6 197.05 277.2 M170.85 322.15 Q173.05 322.1 174.25 321.25 170.9 314.3 171.8 308.25 173.0 300.35 180.5 296.35 M180.85 321.7 Q177.5 322.25 174.25 321.25" fill="none" stroke="#000000" stroke-linecap="round" stroke-linejoin="round" stroke-width="0.5"/>
    <path d="M198.5 308.55 Q204.85 305.7 216.7 309.55 205.15 304.85 202.1 298.6 M372.4 366.2 L216.7 309.55" fill="none" stroke="#000000" stroke-linecap="round" stroke-linejoin="round" stroke-opacity="0.2509804" stroke-width="0.5"/>
  </g>
  <defs>
    <linearGradient gradientTransform="matrix(-0.0021, 0.0058, -0.103, -0.0375, 286.5, 335.3)" gradientUnits="userSpaceOnUse" id="gradient0" spreadMethod="pad" x1="-819.2" x2="819.2">
      <stop offset="0.0" stop-color="#000000" stop-opacity="0.0"/>
      <stop offset="1.0" stop-color="#000000" stop-opacity="0.2509804"/>
    </linearGradient>
  </defs>
</svg>
