<?xml version="1.0" encoding="UTF-8" standalone="no"?>
<svg xmlns:xlink="http://www.w3.org/1999/xlink" height="32.8px" width="58.55px" xmlns="http://www.w3.org/2000/svg">
  <g transform="matrix(1.0, 0.0, 0.0, 1.0, -115.15, -266.5)">
    <path d="M169.65 292.1 L170.35 291.45 170.55 294.8 169.5 295.65 168.2 296.65 167.95 293.55 169.65 292.1" fill="#000000" fill-opacity="0.2509804" fill-rule="evenodd" stroke="none"/>
    <path d="M120.1 272.25 L120.1 274.4 122.15 272.8 122.15 270.5 120.1 272.25 M118.35 268.5 L116.6 269.95 116.65 272.65 118.25 271.25 118.35 268.5 M116.0 270.45 Q116.8 268.65 118.4 267.2 L119.2 266.5 120.2 267.0 122.2 267.95 124.15 268.8 Q125.15 269.25 126.15 269.75 L128.15 270.65 130.35 271.7 132.2 272.5 134.5 273.55 136.15 274.3 138.2 275.25 139.9 276.0 142.05 277.0 143.7 277.75 145.95 278.75 146.45 278.95 146.05 282.0 146.0 280.55 143.7 282.45 143.75 285.4 145.85 283.6 145.3 288.1 139.85 285.65 132.0 282.15 132.0 282.1 131.95 282.1 115.2 274.55 115.2 273.85 Q115.25 272.0 116.0 270.45 M132.1 277.25 L132.05 279.9 134.45 278.1 134.45 275.55 132.1 277.25 M139.9 280.95 L139.85 283.7 142.1 281.85 142.1 279.1 139.9 280.95 M136.2 278.9 L136.2 281.75 138.3 280.05 138.25 277.3 136.2 278.9 M130.35 273.85 L128.0 275.5 127.95 277.95 130.3 276.4 130.35 273.85 M169.65 292.1 L169.8 289.2 169.95 289.25 170.25 289.4 170.3 289.4 171.95 290.1 173.7 290.85 Q172.5 293.05 171.6 295.35 L170.8 297.75 170.35 299.3 169.45 298.9 169.5 295.65 170.55 294.8 170.35 291.45 169.65 292.1 M123.95 273.8 L123.9 276.35 125.95 274.85 126.05 272.25 123.95 273.8" fill="#000000" fill-rule="evenodd" stroke="none"/>
  </g>
</svg>
