<?xml version="1.0" encoding="UTF-8" standalone="no"?>
<svg xmlns:xlink="http://www.w3.org/1999/xlink" height="141.45px" width="286.2px" xmlns="http://www.w3.org/2000/svg">
  <g transform="matrix(1.0, 0.0, 0.0, 1.0, -34.75, -244.0)">
    <path d="M220.2 295.6 L220.7 305.4 Q218.45 305.8 216.55 306.65 218.95 301.2 220.2 295.6 M299.9 341.15 Q284.15 336.3 270.8 336.8 272.9 335.35 273.3 333.7 270.1 332.35 267.6 334.8 268.4 332.05 269.35 331.8 270.6 331.0 272.95 331.35 273.55 332.55 273.3 333.7 273.55 332.55 272.95 331.35 L299.9 341.15 M241.65 325.35 Q240.85 323.65 236.5 322.35 L224.05 317.8 Q219.5 315.9 217.6 317.5 L216.45 317.1 217.7 313.65 218.85 314.0 Q220.8 313.95 224.65 315.45 L235.0 319.2 Q241.5 321.6 241.75 322.3 242.55 323.5 241.65 325.35 M216.25 317.65 L209.6 324.8 Q212.2 319.75 213.85 314.0 214.8 315.85 216.25 317.65 M210.1 315.0 Q209.8 313.95 208.4 313.45 L77.9 265.95 Q75.95 267.1 75.05 269.25 L75.55 265.25 75.05 269.25 75.0 269.4 69.5 267.4 70.0 263.2 75.55 265.25 Q76.75 263.8 78.75 263.0 L77.9 265.9 78.75 263.0 79.5 260.95 212.2 309.25 210.1 315.0 M63.0 260.65 Q63.0 261.45 63.35 262.25 53.0 254.2 35.75 245.0 L65.5 255.85 Q62.8 258.0 63.0 260.65 M77.9 265.95 L77.9 265.9 77.9 265.95 M217.6 317.5 L218.85 314.0 217.6 317.5 M216.3 307.35 L216.35 307.35 Q217.1 309.6 218.5 311.5 216.2 312.1 214.15 313.3 L215.25 310.35 218.5 311.5 215.25 310.35 216.3 307.35" fill="#000000" fill-opacity="0.2509804" fill-rule="evenodd" stroke="none"/>
    <path d="M246.6 305.1 Q252.05 292.1 237.1 292.65 236.1 285.85 234.05 281.9 281.65 280.35 312.1 303.0 305.55 306.5 301.65 317.95 283.75 304.95 275.05 318.3 269.5 314.85 266.6 309.65 254.25 314.45 246.6 305.1 M270.55 292.2 L270.3 293.75 270.55 292.2 M272.65 304.35 Q269.5 300.6 270.3 293.75 268.5 303.2 265.35 302.9 268.0 305.7 266.6 309.65 269.75 304.2 272.65 304.35" fill="url(#gradient0)" fill-rule="evenodd" stroke="none"/>
    <path d="M234.05 281.9 Q232.2 278.35 229.5 277.1 286.25 273.1 319.95 301.45 315.65 301.05 312.1 303.0 281.65 280.35 234.05 281.9 M284.7 378.25 Q286.2 381.95 289.75 384.45 245.7 384.5 204.8 344.95 207.7 345.7 211.4 344.25 246.85 376.0 284.7 378.25" fill="#ffffff" fill-opacity="0.2509804" fill-rule="evenodd" stroke="none"/>
    <path d="M266.2 342.7 Q264.3 358.5 286.3 360.05 281.95 371.3 284.7 378.25 246.85 376.0 211.4 344.25 215.5 342.5 220.6 337.95 231.7 347.95 235.9 334.5 247.75 332.25 254.15 343.9 259.75 341.75 266.2 342.7 M246.75 358.45 Q250.55 352.65 255.35 351.8 253.05 350.05 254.15 343.9 252.65 347.8 248.85 348.25 251.5 350.05 246.75 358.45 L245.95 359.8 246.75 358.45" fill="url(#gradient1)" fill-rule="evenodd" stroke="none"/>
    <path d="M81.45 251.7 Q80.75 253.9 81.45 256.05 L212.0 303.55 214.3 303.45 M214.35 303.35 Q217.85 299.85 220.2 295.4 M220.2 295.6 L220.7 305.4 220.5 305.95 221.65 306.35 Q222.1 308.8 226.8 310.25 L239.25 314.8 Q243.4 316.6 245.15 315.8 L246.95 316.45 Q249.5 313.35 246.9 310.65 L244.15 309.65 242.3 306.05 246.6 305.1 Q252.05 292.1 237.1 292.65 236.1 285.85 234.05 281.9 232.2 278.35 229.5 277.1 286.25 273.1 319.95 301.45 315.65 301.05 312.1 303.0 305.55 306.5 301.65 317.95 283.75 304.95 275.05 318.3 L277.65 319.75 274.05 320.55 271.55 319.6 Q265.15 320.9 266.2 323.45 L271.05 325.25 Q271.4 328.75 274.75 329.75 275.5 328.25 274.8 325.8 284.75 334.75 299.9 341.15 284.15 336.3 270.8 336.8 272.9 335.35 273.3 333.7 270.1 332.35 267.6 334.8 L262.7 333.05 Q260.25 334.3 264.35 339.4 L266.85 340.35 269.1 343.25 266.2 342.7 Q264.3 358.5 286.3 360.05 281.95 371.3 284.7 378.25 286.2 381.95 289.75 384.45 245.7 384.5 204.8 344.95 207.7 345.7 211.4 344.25 215.5 342.5 220.6 337.95 231.7 347.95 235.9 334.5 L233.2 331.0 236.95 329.45 239.7 330.45 Q243.45 330.05 243.45 326.05 L241.65 325.35 Q240.85 323.65 236.5 322.35 L224.05 317.8 Q219.5 315.9 217.6 317.5 L216.45 317.1 216.25 317.65 209.6 324.8 M209.45 325.0 Q210.5 320.0 210.05 315.1 M210.1 315.0 Q209.8 313.95 208.4 313.45 L77.9 265.95 Q75.95 267.1 75.05 269.25 M75.05 269.4 L75.0 269.4 69.5 267.4 Q69.5 260.2 66.75 259.55 65.25 259.15 63.0 260.65 63.0 261.45 63.35 262.25 53.0 254.2 35.75 245.0 54.85 249.05 67.95 249.5 67.2 249.95 66.7 250.5 67.45 253.1 68.8 253.8 71.35 255.05 75.95 249.55 L81.55 251.6" fill="none" stroke="#000000" stroke-linecap="round" stroke-linejoin="round" stroke-width="2.0"/>
    <path d="M81.55 251.6 L81.45 251.7 M75.05 269.25 L75.05 269.4 M81.5 256.1 L81.45 256.05 M75.95 249.55 L73.7 253.05 M70.0 263.2 L69.5 267.4 M77.9 265.9 L77.9 265.95" fill="none" stroke="#000000" stroke-linecap="round" stroke-linejoin="round" stroke-width="0.5"/>
    <path d="M214.3 303.45 L214.35 303.35 214.45 303.45 214.3 303.45 M220.2 295.4 L220.2 295.6 Q218.95 301.2 216.55 306.65 215.6 304.7 214.45 303.45 M209.6 324.8 L209.45 325.0 M210.05 315.1 L210.1 315.0 210.25 315.1 210.05 315.1 M73.7 253.05 L79.25 255.1 81.45 251.7 M79.25 255.1 Q79.25 256.95 80.3 258.85 M78.75 263.0 Q76.75 263.8 75.55 265.25 L75.05 269.25 M75.55 265.25 L70.0 263.2 73.7 253.05 M79.25 255.1 L75.55 265.25 M35.75 245.0 L65.5 255.85 M270.3 293.75 L270.55 292.2 M241.65 325.35 Q242.55 323.5 241.75 322.3 241.5 321.6 235.0 319.2 L224.65 315.45 Q220.8 313.95 218.85 314.0 L217.6 317.5 M241.75 322.3 Q243.2 322.2 243.85 320.75 244.25 319.2 243.2 318.2 242.6 318.6 236.05 316.25 L225.75 312.5 Q221.85 311.15 220.35 309.85 L218.85 314.0 217.7 313.65 M216.3 307.35 L216.35 307.35 Q217.1 309.6 218.5 311.5 L215.25 310.35 216.3 307.35 Q214.55 308.55 212.3 309.25 213.6 311.25 214.15 313.3 216.2 312.1 218.5 311.5 M220.7 305.4 Q218.45 305.8 216.55 306.65 M213.85 314.0 Q211.9 314.85 210.25 315.1 M220.35 309.85 L219.25 309.4 M214.15 313.3 L215.25 310.35 212.3 309.25 M213.85 314.0 Q214.8 315.85 216.25 317.65 M221.65 306.35 L220.35 309.85 M209.6 324.8 Q212.2 319.75 213.85 314.0 M272.65 304.35 Q269.5 300.6 270.3 293.75 268.5 303.2 265.35 302.9 268.0 305.7 266.6 309.65 269.75 304.2 272.65 304.35 M245.15 315.8 Q244.65 317.8 243.2 318.2 M272.95 331.35 Q270.9 330.05 270.5 328.7 269.85 328.7 269.35 330.05 268.9 331.35 269.35 331.8 270.6 331.0 272.95 331.35 L299.9 341.15 M271.05 325.25 Q269.9 327.85 270.5 328.7 M269.35 331.8 Q268.4 332.05 267.6 334.8 M254.15 343.9 Q253.05 350.05 255.35 351.8 250.55 352.65 246.75 358.45 L245.95 359.8 M254.15 343.9 Q252.65 347.8 248.85 348.25 251.5 350.05 246.75 358.45 M211.4 344.25 Q246.85 376.0 284.7 378.25 M234.05 281.9 Q281.65 280.35 312.1 303.0" fill="none" stroke="#000000" stroke-linecap="round" stroke-linejoin="round" stroke-opacity="0.5019608" stroke-width="0.5"/>
    <path d="M80.3 258.85 L81.5 256.1 M65.5 255.85 Q64.85 252.4 66.7 250.5 M78.75 263.0 L77.9 265.9 M79.5 260.95 L78.75 263.0 M80.3 258.85 L79.5 260.95 M212.2 309.25 L214.3 303.45 M65.5 255.85 Q62.8 258.0 63.0 260.65 M217.7 313.65 L216.45 317.1 M218.5 311.5 L219.25 309.4 220.5 305.95 M218.5 311.5 L217.7 313.65 M210.1 315.0 L212.2 309.25 M275.05 318.3 Q269.5 314.85 266.6 309.65 254.25 314.45 246.6 305.1 M262.7 333.05 L243.45 326.05 M272.95 331.35 Q274.2 330.75 274.75 329.75 M273.3 333.7 Q273.55 332.55 272.95 331.35 M271.55 319.6 L246.9 310.65 M266.2 323.45 L246.95 316.45 M266.2 342.7 Q259.75 341.75 254.15 343.9 247.75 332.25 235.9 334.5 M239.7 330.45 L264.35 339.4" fill="none" stroke="#000000" stroke-linecap="round" stroke-linejoin="round" stroke-width="1.0"/>
  </g>
  <defs>
    <linearGradient gradientTransform="matrix(0.0058, -0.0163, 0.0465, 0.0166, 271.05, 300.0)" gradientUnits="userSpaceOnUse" id="gradient0" spreadMethod="pad" x1="-819.2" x2="819.2">
      <stop offset="0.0" stop-color="#000000" stop-opacity="0.0"/>
      <stop offset="1.0" stop-color="#000000" stop-opacity="0.2509804"/>
    </linearGradient>
    <linearGradient gradientTransform="matrix(-0.0067, 0.0159, -0.0447, -0.0189, 250.05, 353.65)" gradientUnits="userSpaceOnUse" id="gradient1" spreadMethod="pad" x1="-819.2" x2="819.2">
      <stop offset="0.0" stop-color="#000000" stop-opacity="0.0"/>
      <stop offset="1.0" stop-color="#000000" stop-opacity="0.2509804"/>
    </linearGradient>
  </defs>
</svg>
