<?xml version="1.0" encoding="UTF-8" standalone="no"?>
<svg xmlns:xlink="http://www.w3.org/1999/xlink" height="129.35px" width="331.05px" xmlns="http://www.w3.org/2000/svg">
  <g transform="matrix(1.0, 0.0, 0.0, 1.0, -55.1, -247.85)">
    <path d="M386.15 333.95 Q382.1 352.1 376.45 362.4 371.45 371.55 365.15 374.5 351.4 380.7 331.95 372.55 L224.55 334.2 Q225.75 329.5 224.95 325.8 224.3 322.65 222.3 320.15 219.9 316.95 215.85 315.5 210.75 313.65 206.0 315.6 L205.85 315.65 204.7 316.15 202.2 317.8 Q199.15 320.25 197.4 324.45 L167.35 313.55 Q166.1 312.8 166.45 311.9 L169.55 303.3 169.55 303.25 170.4 300.9 Q170.4 298.85 170.75 297.0 L170.9 296.0 169.5 295.5 169.6 293.2 169.8 289.6 172.65 290.6 173.1 289.75 Q174.35 287.35 176.2 285.2 L180.25 274.1 Q180.7 272.65 181.95 273.25 L366.35 340.35 Q378.2 343.6 386.15 333.95 M338.95 340.9 Q334.9 342.75 333.4 346.95 331.85 351.1 333.75 355.15 335.6 359.2 339.8 360.75 343.95 362.25 348.0 360.35 352.05 358.45 353.55 354.3 355.1 350.1 353.2 346.1 351.3 342.05 347.15 340.5 342.95 339.0 338.95 340.9 M102.4 272.1 L91.15 268.0 90.95 266.85 70.05 259.25 69.2 260.0 55.35 254.95 55.15 253.85 Q54.9 252.0 55.6 250.5 56.1 249.45 57.05 248.55 57.45 248.15 57.95 247.85 L71.8 252.85 72.0 254.0 92.9 261.6 93.75 260.9 105.0 264.95 105.2 266.1 126.7 273.9 127.55 273.15 138.7 277.2 138.95 278.35 146.2 281.0 145.5 286.75 137.0 283.65 136.1 284.4 124.95 280.3 124.75 279.2 103.3 271.35 102.4 272.1" fill="#000000" fill-rule="evenodd" stroke="none"/>
  </g>
</svg>
