<?xml version="1.0" encoding="UTF-8" standalone="no"?>
<svg xmlns:xlink="http://www.w3.org/1999/xlink" height="129.6px" width="97.45px" xmlns="http://www.w3.org/2000/svg">
  <g transform="matrix(1.0, 0.0, 0.0, 1.0, -141.6, -239.0)">
    <path d="M171.7 283.15 Q165.55 263.65 158.85 245.1 157.25 242.5 154.45 243.15 158.2 240.2 163.2 240.0 167.8 239.7 169.2 244.7 173.5 261.7 178.6 278.7 L176.0 278.35 174.25 274.1 Q175.35 268.95 173.6 268.6 171.6 268.2 171.0 272.45 171.25 274.2 172.35 274.45 L174.6 281.7 Q174.15 281.95 173.8 282.25 172.75 282.5 171.7 283.15" fill="url(#gradient0)" fill-rule="evenodd" stroke="none"/>
    <path d="M154.45 243.15 Q157.25 242.5 158.85 245.1 165.55 263.65 171.7 283.15 170.65 283.75 169.65 284.8 168.1 287.75 167.8 290.75 L165.95 288.15 Q161.05 288.85 162.8 285.55 158.4 283.7 158.15 280.6 157.9 277.2 164.25 274.75 160.95 264.05 155.95 255.8 152.25 247.75 154.45 243.15 M170.55 306.05 Q170.9 302.55 169.65 299.1 170.4 300.35 171.45 301.25 175.55 305.4 179.35 306.65 L189.6 340.75 187.85 341.3 178.55 342.35 Q179.55 336.35 176.25 332.55 171.75 323.0 169.0 311.4 170.25 308.5 170.55 306.05 M187.95 354.6 L187.05 353.5 184.55 353.65 182.7 353.65 Q180.3 349.25 179.05 343.8 L186.95 342.85 Q186.4 344.5 188.25 345.05 L190.8 344.95 195.55 357.95 197.7 357.6 Q197.9 359.1 199.65 357.0 L201.2 356.25 200.7 359.15 199.3 361.6 192.75 363.45 190.95 363.5 Q190.55 362.6 190.8 361.5 191.2 360.0 190.35 358.5 189.35 356.5 187.95 354.6 M184.55 353.65 Q184.8 348.95 189.5 349.7 192.85 353.9 194.2 360.9 L200.7 359.15 194.2 360.9 Q192.85 353.9 189.5 349.7 184.8 348.95 184.55 353.65 M184.0 345.15 Q187.2 346.75 189.5 349.7 187.2 346.75 184.0 345.15" fill="#000000" fill-opacity="0.2509804" fill-rule="evenodd" stroke="none"/>
    <path d="M171.7 283.15 Q172.75 282.5 173.8 282.25 169.4 285.4 171.7 293.15 176.0 301.4 182.2 302.1 183.7 305.5 186.8 304.25 L187.15 302.4 188.5 299.8 189.55 303.1 188.45 305.25 186.65 306.3 Q185.25 306.95 183.8 307.15 L182.0 307.2 179.35 306.65 Q175.55 305.4 171.45 301.25 170.4 300.35 169.65 299.1 170.9 302.55 170.55 306.05 168.4 300.25 164.2 296.6 165.0 298.3 163.7 298.85 161.35 299.85 160.75 295.6 158.2 287.2 150.55 283.15 149.8 285.7 147.7 282.6 147.95 279.5 151.75 282.1 158.65 284.45 162.65 293.45 166.25 293.8 169.55 298.9 168.25 296.65 167.7 293.35 167.6 292.05 167.8 290.75 168.1 287.75 169.65 284.8 170.65 283.75 171.7 283.15" fill="url(#gradient1)" fill-rule="evenodd" stroke="none"/>
    <path d="M173.8 282.25 Q174.15 281.95 174.6 281.7 175.65 281.1 177.0 280.75 L182.2 302.1 Q176.0 301.4 171.7 293.15 169.4 285.4 173.8 282.25" fill="url(#gradient2)" fill-rule="evenodd" stroke="none"/>
    <path d="M184.95 297.3 L180.0 280.9 Q187.1 282.9 190.3 289.95 191.9 294.35 191.6 297.65 L190.7 294.75 Q189.15 292.4 187.5 293.4 L186.7 294.05 184.95 297.3" fill="url(#gradient3)" fill-rule="evenodd" stroke="none"/>
    <path d="M154.45 243.15 Q157.25 242.5 158.85 245.1 165.55 263.65 171.7 283.15 172.75 282.5 173.8 282.25 174.15 281.95 174.6 281.7 L172.35 274.45 Q171.25 274.2 171.0 272.45 171.6 268.2 173.6 268.6 175.35 268.95 174.25 274.1 L176.0 278.35 178.6 278.7 M167.8 290.75 Q168.1 287.75 169.65 284.8 170.65 283.75 171.7 283.15 M170.55 306.05 Q170.9 302.55 169.65 299.1 170.4 300.35 171.45 301.25 175.55 305.4 179.35 306.65 L182.0 307.2 183.8 307.15 Q185.25 306.95 186.65 306.3 M189.55 303.1 L188.5 299.8 187.15 302.4 186.8 304.25 Q183.7 305.5 182.2 302.1 176.0 301.4 171.7 293.15 169.4 285.4 173.8 282.25 M155.05 346.7 Q151.8 346.2 148.5 346.6 L148.1 346.65 145.35 347.2 M144.2 351.15 Q142.75 349.25 149.1 347.65 156.45 346.9 162.95 350.75 168.15 353.65 173.5 354.35 180.7 355.45 187.95 354.6 L187.05 353.5 184.55 353.65 182.7 353.65 M179.05 343.8 L186.95 342.85 187.85 341.3 178.55 342.35 M148.25 345.85 L148.5 346.6 M174.6 281.7 Q175.65 281.1 177.0 280.75 L182.2 302.1 183.2 300.6 184.95 297.3 180.0 280.9 M187.5 293.4 L186.7 294.05 188.5 299.8 M190.7 294.75 Q189.15 292.4 187.5 293.4 187.5 296.25 190.7 294.75 L191.6 297.65 M172.9 273.45 Q172.1 270.85 173.9 269.95 M234.9 336.9 Q233.3 336.45 231.2 336.85 229.4 337.1 227.25 337.9 L226.65 338.15 226.25 338.3 M231.2 336.85 L231.5 336.0 M201.55 350.3 L202.1 352.25 Q211.45 349.9 218.1 345.15 228.25 338.0 233.55 338.3 237.25 339.1 237.05 341.4 M187.15 302.4 Q185.1 302.8 183.2 300.6 M197.45 315.8 L197.45 316.25 Q199.55 319.25 202.25 318.9 M195.05 320.6 Q195.6 316.15 197.45 316.25 M187.85 341.3 L189.6 340.75 179.35 306.65 M189.6 340.75 L192.0 339.5 182.0 307.2 M200.7 359.15 L201.2 356.25 199.65 357.0 Q197.9 359.1 197.7 357.6 L195.55 357.95 190.8 344.95 188.25 345.05 Q186.4 344.5 186.95 342.85 M199.65 357.0 L195.45 343.05 194.15 342.35 193.05 343.65 197.7 357.6 M183.8 307.15 L193.35 337.75 Q193.75 336.85 193.7 335.75 M197.75 343.6 L195.45 343.05 M193.05 343.65 Q192.0 344.6 190.8 344.95 M192.0 339.5 L193.35 337.75 M201.2 356.25 L199.1 348.45 M187.95 354.6 Q189.35 356.5 190.35 358.5 191.2 360.0 190.8 361.5 190.55 362.6 190.95 363.5 M199.3 361.6 L200.7 359.15 194.2 360.9 Q192.85 353.9 189.5 349.7 184.8 348.95 184.55 353.65 M188.4 360.7 Q188.95 359.5 190.35 358.5 L186.5 358.85 M202.3 339.4 Q203.4 339.9 203.2 341.0 M202.9 355.45 L202.1 352.25 M198.75 314.35 Q200.5 317.45 203.2 316.5 M189.5 349.7 Q187.2 346.75 184.0 345.15 M186.7 294.05 L184.95 297.3" fill="none" stroke="#000000" stroke-linecap="round" stroke-linejoin="round" stroke-width="1.0"/>
    <path d="M178.6 278.7 Q173.5 261.7 169.2 244.7 167.8 239.7 163.2 240.0 158.2 240.2 154.45 243.15 152.25 247.75 155.95 255.8 160.95 264.05 164.25 274.75 157.9 277.2 158.15 280.6 158.4 283.7 162.8 285.55 161.05 288.85 165.95 288.15 L167.8 290.75 Q167.6 292.05 167.7 293.35 168.25 296.65 169.55 298.9 166.25 293.8 162.65 293.45 158.65 284.45 151.75 282.1 147.95 279.5 147.7 282.6 149.8 285.7 150.55 283.15 158.2 287.2 160.75 295.6 161.35 299.85 163.7 298.85 165.0 298.3 164.2 296.6 168.4 300.25 170.55 306.05 170.25 308.5 169.0 311.4 171.75 323.0 176.25 332.55 179.55 336.35 178.55 342.35 L148.25 345.85 Q147.7 344.9 146.25 345.3 144.7 345.75 145.35 347.2 142.35 348.15 142.6 350.4 143.0 351.05 144.2 351.15 L148.3 350.5 Q157.1 351.7 166.35 356.0 175.55 360.3 186.5 358.85 L188.4 360.7 Q187.8 361.95 188.15 363.35 189.25 368.05 192.6 367.55 196.35 367.1 199.95 365.5 202.05 364.4 201.8 362.55 L200.7 359.15 Q203.15 357.15 202.9 355.45 211.9 352.25 218.45 346.65 225.25 341.95 232.1 342.1 235.55 342.25 237.05 341.4 238.1 340.7 238.05 339.45 236.95 337.5 234.9 336.9 234.6 334.8 233.05 335.1 231.95 335.25 231.5 336.0 L202.3 339.4 Q197.9 339.3 195.05 335.35 L186.65 306.3 188.45 305.25 189.55 303.1 195.05 320.6 Q195.9 324.25 199.85 322.7 202.35 321.35 202.25 318.9 203.9 318.15 203.2 316.5 203.8 315.2 203.55 313.85 207.25 312.6 207.95 307.3 208.15 304.75 205.65 305.15 200.7 306.75 201.1 312.75 199.75 313.25 198.75 314.35 197.5 314.55 197.45 315.8 L191.6 297.65 Q191.9 294.35 190.3 289.95 187.1 282.9 180.0 280.9 L179.4 279.1 178.6 278.7 M182.7 353.65 Q174.35 353.55 166.05 350.8 160.65 347.45 155.05 346.7 L179.05 343.8 Q180.3 349.25 182.7 353.65 M202.65 342.15 Q200.15 343.7 197.75 343.6 L199.1 348.45 Q200.6 348.25 201.4 349.55 L201.55 350.3 Q210.1 348.85 216.85 344.3 221.45 340.4 226.25 338.3 L203.2 341.0 202.65 342.15 M190.95 363.5 L192.75 363.45 199.3 361.6 Q199.8 363.5 197.3 364.55 195.45 365.35 193.45 365.3 191.55 364.7 190.95 363.5 Z" fill="none" stroke="#000000" stroke-linecap="round" stroke-linejoin="round" stroke-width="2.0"/>
  </g>
  <defs>
    <linearGradient gradientTransform="matrix(-0.0107, 0.0173, -0.0204, -0.0126, 166.8, 260.45)" gradientUnits="userSpaceOnUse" id="gradient0" spreadMethod="pad" x1="-819.2" x2="819.2">
      <stop offset="0.0" stop-color="#000000" stop-opacity="0.0"/>
      <stop offset="1.0" stop-color="#000000" stop-opacity="0.2509804"/>
    </linearGradient>
    <linearGradient gradientTransform="matrix(-0.007, 0.0114, -0.0243, -0.0151, 169.0, 292.2)" gradientUnits="userSpaceOnUse" id="gradient1" spreadMethod="pad" x1="-819.2" x2="819.2">
      <stop offset="0.0" stop-color="#000000" stop-opacity="0.0"/>
      <stop offset="1.0" stop-color="#000000" stop-opacity="0.2509804"/>
    </linearGradient>
    <linearGradient gradientTransform="matrix(-0.0053, 0.0085, -0.0094, -0.0058, 178.3, 291.2)" gradientUnits="userSpaceOnUse" id="gradient2" spreadMethod="pad" x1="-819.2" x2="819.2">
      <stop offset="0.0" stop-color="#000000" stop-opacity="0.0"/>
      <stop offset="1.0" stop-color="#000000" stop-opacity="0.2509804"/>
    </linearGradient>
    <linearGradient gradientTransform="matrix(-0.0038, 0.0062, -0.0097, -0.006, 185.15, 290.35)" gradientUnits="userSpaceOnUse" id="gradient3" spreadMethod="pad" x1="-819.2" x2="819.2">
      <stop offset="0.0" stop-color="#000000" stop-opacity="0.0"/>
      <stop offset="1.0" stop-color="#000000" stop-opacity="0.2509804"/>
    </linearGradient>
  </defs>
</svg>
