<?xml version="1.0" encoding="UTF-8" standalone="no"?>
<svg xmlns:xlink="http://www.w3.org/1999/xlink" height="66.95px" width="20.2px" xmlns="http://www.w3.org/2000/svg">
  <g transform="matrix(1.0, 0.0, 0.0, 1.0, -167.15, -280.3)">
    <path d="M181.9 280.45 Q182.6 280.7 182.8 281.6 182.95 282.8 182.45 283.65 L182.05 284.35 181.85 285.35 182.0 286.75 182.3 286.7 182.35 287.45 182.9 287.8 Q183.6 288.4 183.7 289.4 183.8 290.4 183.15 291.15 L182.35 291.8 182.4 292.0 182.35 294.5 Q182.2 297.65 182.35 299.65 182.6 300.2 182.5 300.7 L182.7 301.5 Q182.7 302.2 182.25 302.75 181.75 303.4 181.75 303.85 L182.25 308.7 182.6 309.3 183.05 313.35 182.9 313.55 182.85 313.55 182.9 314.0 182.75 314.0 Q182.15 314.15 182.15 314.9 L184.5 342.1 184.8 342.65 184.9 342.7 187.15 344.05 Q187.45 344.35 187.25 344.85 L186.35 345.95 186.35 346.15 185.2 346.2 185.25 346.45 Q185.1 347.05 183.65 347.25 181.8 347.35 181.6 346.9 L181.2 342.9 Q181.5 342.75 181.5 342.2 179.8 329.25 178.35 315.15 178.25 314.6 177.7 314.45 L177.55 314.45 177.55 314.15 177.45 314.15 175.7 314.3 Q174.55 314.35 174.1 313.6 173.75 313.0 173.7 312.3 173.6 311.3 172.85 311.45 171.25 312.0 169.6 311.4 167.95 310.7 167.35 308.75 166.8 306.55 167.7 304.55 L167.85 303.65 169.55 303.3 Q169.35 298.25 169.6 293.2 L170.0 286.95 170.85 286.35 Q171.55 285.55 171.9 284.05 172.45 281.75 174.5 280.75 L179.15 280.3 Q179.85 280.25 180.55 280.95 L181.9 280.45 M174.3 303.9 L173.3 303.25 173.3 303.2 170.15 303.1 Q168.35 303.8 167.8 305.55 167.1 308.45 168.7 310.2 170.25 311.5 172.2 310.9 174.65 310.15 174.6 307.75 173.5 305.25 170.55 305.35 168.9 305.4 168.3 307.2 L168.15 307.45 168.0 307.2 Q168.15 305.55 169.4 304.7 170.75 303.7 172.6 304.15 173.7 304.45 174.4 305.1 L174.3 303.9" fill="#000000" fill-rule="evenodd" stroke="none"/>
  </g>
</svg>
