<?xml version="1.0" encoding="UTF-8" standalone="no"?>
<svg xmlns:xlink="http://www.w3.org/1999/xlink" height="162.9px" width="137.8px" xmlns="http://www.w3.org/2000/svg">
  <g transform="matrix(1.0, 0.0, 0.0, 1.0, -65.25, -168.7)">
    <path d="M167.9 182.0 L167.8 182.0 Q149.95 186.0 129.25 183.4 L121.45 182.15 116.25 188.1 Q102.05 203.45 85.8 211.85 81.2 214.25 76.4 216.1 L75.1 216.55 85.2 244.3 Q87.1 248.8 89.15 253.0 L92.0 258.55 Q105.9 254.85 118.25 251.0 L132.8 246.3 136.9 244.85 137.3 244.7 140.55 243.55 141.1 243.35 141.4 243.2 141.65 243.15 142.1 242.95 142.4 242.85 142.65 242.75 142.7 242.75 143.4 242.5 144.4 242.15 144.7 242.0 145.15 241.85 145.4 241.75 145.65 241.7 145.7 241.65 146.95 241.2 149.6 240.25 149.9 240.1 153.95 238.55 168.15 232.85 Q180.05 227.85 193.1 221.75 L191.7 215.7 189.15 206.45 179.05 178.75 177.75 179.2 Q172.9 180.85 167.9 182.0 M173.35 171.75 L183.45 168.7 194.95 200.25 Q196.85 206.45 198.3 212.6 L199.65 218.65 200.8 224.8 Q203.4 240.4 203.0 255.1 L202.6 262.8 201.75 270.45 Q197.6 299.55 180.7 324.75 L175.85 331.6 167.7 329.5 Q138.55 321.0 116.65 301.4 L111.1 296.1 105.8 290.45 Q96.05 279.45 88.05 265.8 L85.0 260.4 82.1 254.85 Q79.3 249.25 76.75 243.25 L65.25 211.7 Q70.2 209.9 75.0 207.6 95.3 197.75 112.75 178.6 L117.95 172.6 125.8 173.85 Q151.45 177.25 173.35 171.75" fill="#000000" fill-rule="evenodd" stroke="none"/>
  </g>
</svg>
