<?xml version="1.0" encoding="UTF-8" standalone="no"?>
<svg xmlns:xlink="http://www.w3.org/1999/xlink" height="26.45px" width="67.05px" xmlns="http://www.w3.org/2000/svg">
  <g transform="matrix(1.0, 0.0, 0.0, 1.0, -168.3, -438.9)">
    <path d="M222.3 438.9 L226.55 439.5 Q227.6 439.8 228.3 440.5 L231.8 441.1 233.1 443.2 233.05 443.35 233.2 443.45 233.95 443.65 234.25 443.9 Q235.55 444.75 235.3 447.0 235.15 449.2 233.2 448.85 L232.65 449.75 Q231.4 451.0 229.95 450.7 227.55 454.65 223.5 450.45 L217.6 447.65 Q213.85 449.0 211.25 446.1 212.75 442.25 218.3 440.15 220.1 439.4 222.3 438.9 M191.8 451.1 Q193.4 454.75 191.55 456.6 L191.35 456.75 Q190.8 457.8 191.5 458.95 192.75 461.05 192.15 462.2 L191.1 464.15 Q190.35 465.45 188.9 465.2 L186.55 465.15 Q185.5 465.05 184.8 463.95 184.7 465.55 183.05 465.35 L182.0 465.2 Q180.9 464.9 180.4 463.65 180.4 465.5 178.2 465.15 L176.35 464.55 Q175.3 464.25 175.15 462.5 174.85 464.0 173.4 463.65 L171.9 463.0 Q171.15 462.7 170.8 461.95 167.9 461.3 168.35 458.6 L169.0 453.0 Q168.9 451.5 170.6 450.95 L170.9 450.8 172.0 450.4 172.65 448.85 Q182.1 445.7 190.7 447.35 L191.8 451.1" fill="#000000" fill-rule="evenodd" stroke="none"/>
  </g>
</svg>
