<?xml version="1.0" encoding="UTF-8" standalone="no"?>
<svg xmlns:xlink="http://www.w3.org/1999/xlink" height="39.4px" width="48.0px" xmlns="http://www.w3.org/2000/svg">
  <g transform="matrix(1.0, 0.0, 0.0, 1.0, -118.05, -341.9)">
    <path d="M159.5 342.1 Q160.05 342.3 160.05 343.2 160.05 344.0 159.5 344.95 L158.15 346.35 156.95 346.45 Q156.45 346.1 156.35 345.2 156.35 344.35 156.85 343.45 157.4 342.5 158.15 342.1 158.95 341.7 159.5 342.1 M118.75 370.8 Q118.05 370.4 118.05 369.25 118.05 368.25 118.7 367.1 119.3 365.95 120.25 365.35 L121.95 365.3 Q122.6 365.65 122.6 366.75 122.6 367.9 122.0 369.0 121.35 370.15 120.35 370.65 L118.75 370.8 M152.6 355.15 L151.75 355.35 Q151.4 355.3 151.2 354.75 151.05 354.25 151.2 353.65 151.4 353.05 151.75 352.7 152.15 352.35 152.6 352.45 152.95 352.6 153.15 353.05 L153.15 354.15 152.6 355.15 M153.55 362.2 Q153.95 360.75 154.85 359.9 155.9 359.05 156.85 359.3 157.8 359.6 158.15 360.8 158.65 362.0 158.25 363.45 157.85 364.95 156.85 365.8 155.9 366.6 154.95 366.3 153.95 366.1 153.55 364.9 153.2 363.7 153.55 362.2 M133.75 360.8 Q134.3 360.55 134.65 360.8 135.0 361.0 135.0 361.6 L134.65 362.8 133.75 363.75 132.9 363.8 Q132.55 363.55 132.5 362.95 132.5 362.35 132.85 361.75 133.2 361.1 133.75 360.8 M135.35 369.2 Q136.8 370.05 136.8 372.3 136.95 374.65 135.5 377.1 134.1 379.5 132.05 380.6 130.05 381.8 128.6 380.95 127.15 380.1 127.1 377.7 127.1 375.45 128.45 373.05 129.9 370.6 131.85 369.45 133.95 368.35 135.35 369.2 M163.95 345.0 Q164.6 344.55 165.15 344.65 165.65 344.85 165.9 345.55 166.2 346.2 165.95 347.1 165.75 347.95 165.15 348.5 164.6 349.0 164.0 348.8 163.45 348.7 163.15 347.95 162.95 347.25 163.15 346.35 163.45 345.5 163.95 345.0" fill="#000000" fill-rule="evenodd" stroke="none"/>
  </g>
</svg>
