<?xml version="1.0" encoding="UTF-8" standalone="no"?>
<svg xmlns:xlink="http://www.w3.org/1999/xlink" height="17.5px" width="67.2px" xmlns="http://www.w3.org/2000/svg">
  <g transform="matrix(1.0, 0.0, 0.0, 1.0, -366.25, -184.95)">
    <path d="M399.9 195.5 Q403.1 195.25 404.6 196.75 406.5 198.65 411.05 198.8 414.6 198.45 418.0 196.2 420.6 194.45 423.1 191.6 L423.3 191.35 Q427.55 185.25 432.95 185.45 427.65 187.4 424.35 192.5 421.95 196.4 418.0 198.85 415.7 200.25 412.9 201.15 404.85 203.75 399.85 197.7 394.9 203.7 386.8 201.15 379.1 198.65 375.35 192.5 372.05 187.4 366.75 185.45 372.15 185.25 376.4 191.35 L376.6 191.6 Q382.35 198.15 388.65 198.8 393.2 198.65 395.1 196.75 396.6 195.3 399.8 195.5 L399.9 195.5 Z" fill="none" stroke="#000000" stroke-linecap="round" stroke-linejoin="round" stroke-width="1.0"/>
  </g>
</svg>
