<?xml version="1.0" encoding="UTF-8" standalone="no"?>
<svg xmlns:xlink="http://www.w3.org/1999/xlink" height="28.4px" width="38.1px" xmlns="http://www.w3.org/2000/svg">
  <g transform="matrix(1.0, 0.0, 0.0, 1.0, -380.8, -184.8)">
    <path d="M382.75 185.3 L381.3 185.3 381.3 185.55 381.5 190.8 381.5 191.25 Q381.1 197.3 381.6 203.5 382.65 210.7 390.75 212.7 391.65 209.25 390.75 205.4 389.0 202.4 388.15 199.05 387.55 197.25 387.45 195.1 382.35 191.0 382.75 185.3 M416.95 185.3 L418.4 185.3 418.4 185.4 418.2 191.25 Q418.65 197.3 418.15 203.5 L418.0 204.35 Q416.6 210.8 409.0 212.7 408.1 209.25 409.0 205.4 410.75 202.4 411.6 199.05 412.15 197.25 412.25 195.1 417.35 191.0 416.95 185.3" fill="none" stroke="#000000" stroke-linecap="round" stroke-linejoin="round" stroke-width="1.0"/>
  </g>
</svg>
