<?xml version="1.0" encoding="UTF-8" standalone="no"?>
<svg xmlns:xlink="http://www.w3.org/1999/xlink" height="27.9px" width="37.1px" xmlns="http://www.w3.org/2000/svg">
  <g transform="matrix(1.0, 0.0, 0.0, 1.0, -381.25, -184.8)">
    <path d="M387.45 195.15 Q387.8 201.9 392.8 205.4 395.55 208.1 397.4 205.65 L402.3 205.65 Q404.15 208.1 406.9 205.4 411.9 201.9 412.25 195.15 417.35 191.0 416.95 185.3 L417.85 185.3 417.8 185.75 417.35 188.55 417.05 189.95 416.9 190.6 416.9 190.65 414.0 201.2 410.1 205.0 Q406.6 208.3 401.8 211.7 L399.8 212.2 397.8 211.7 Q393.0 208.3 389.5 205.0 L385.6 201.2 382.7 190.65 382.7 190.6 382.55 189.95 382.25 188.55 381.8 185.75 381.75 185.3 382.75 185.3 Q382.35 191.0 387.45 195.15 Z" fill="none" stroke="#000000" stroke-linecap="round" stroke-linejoin="round" stroke-width="1.0"/>
  </g>
</svg>
