<?xml version="1.0" encoding="UTF-8" standalone="no"?>
<svg xmlns:xlink="http://www.w3.org/1999/xlink" height="53.9px" width="39.0px" xmlns="http://www.w3.org/2000/svg">
  <g transform="matrix(1.0, 0.0, 0.0, 1.0, -380.35, -184.8)">
    <path d="M387.45 195.1 Q387.8 201.85 392.8 205.35 395.55 208.05 397.4 205.6 L402.3 205.6 Q404.15 208.05 406.9 205.35 411.9 201.85 412.25 195.1 417.35 191.0 416.95 185.3 L418.4 185.3 418.4 185.85 418.0 193.05 Q419.25 198.8 418.65 206.2 L416.85 203.65 Q416.85 209.1 413.95 214.15 L412.8 211.75 Q408.9 215.9 403.3 218.4 L403.15 218.65 401.65 220.3 401.9 221.1 401.95 221.45 403.3 221.3 Q404.15 221.55 404.1 222.7 404.1 223.75 403.15 225.25 L402.75 225.8 404.8 225.8 404.8 230.75 403.7 230.75 Q407.85 233.6 406.2 237.75 L404.7 236.5 Q401.35 239.3 397.5 237.55 398.85 236.8 398.9 236.0 396.4 236.2 395.4 234.85 398.3 234.35 397.1 230.75 L396.15 230.75 396.15 225.9 396.0 224.75 Q396.1 223.6 396.95 223.35 L398.2 223.45 398.45 223.6 398.75 223.75 398.9 223.85 398.9 223.9 399.05 223.75 399.15 223.6 399.25 223.6 399.25 223.55 399.55 223.2 398.9 222.85 Q397.75 222.1 396.9 220.7 396.25 219.7 396.1 218.85 390.25 216.25 386.9 211.75 L385.75 214.15 Q382.85 209.1 382.85 203.65 L381.05 206.2 Q380.45 199.25 381.6 193.75 L381.75 193.05 381.3 185.3 382.75 185.3 Q382.35 191.0 387.45 195.1" fill="none" stroke="#000000" stroke-linecap="round" stroke-linejoin="round" stroke-width="1.0"/>
    <path d="M405.45 213.5 Q410.85 208.35 412.8 202.65 M403.3 218.4 Q404.1 217.05 404.1 216.05 404.15 214.95 403.3 214.65 L401.9 214.85 401.8 214.85 401.75 214.9 401.75 214.95 401.05 215.2 400.1 216.0 399.25 216.9 399.25 216.95 399.15 217.0 399.05 217.15 398.9 217.3 399.05 217.35 399.4 217.6 399.8 217.9 401.2 219.55 401.65 220.3 M398.9 217.3 L398.9 217.25 398.75 217.15 398.45 216.95 398.2 216.85 396.95 216.75 Q396.1 217.0 396.0 218.15 L396.1 218.85 M399.55 223.2 L400.1 222.65 Q400.55 222.15 401.05 221.8 L401.75 221.55 401.75 221.5 401.8 221.45 401.95 221.45 M398.5 214.7 L397.3 209.3 M395.65 215.15 Q390.35 210.05 387.7 203.85 M402.75 225.8 L400.95 225.8 396.15 225.8 396.15 225.9 M398.9 223.9 L399.05 224.0 399.4 224.2 399.8 224.5 400.95 225.8 M403.7 230.75 L397.1 230.75" fill="none" stroke="#000000" stroke-linecap="round" stroke-linejoin="round" stroke-opacity="0.5019608" stroke-width="1.0"/>
  </g>
</svg>
