<?xml version="1.0" encoding="UTF-8" standalone="no"?>
<svg xmlns:xlink="http://www.w3.org/1999/xlink" height="178.25px" width="39.05px" xmlns="http://www.w3.org/2000/svg">
  <g transform="matrix(1.0, 0.0, 0.0, 1.0, -380.35, -184.8)">
    <path d="M382.75 185.3 L381.3 185.3 381.35 185.75 381.75 193.05 381.6 193.75 Q380.45 199.25 381.05 206.2 L382.85 203.65 Q382.85 210.75 381.4 217.85 380.65 224.45 381.55 231.05 L382.35 235.8 383.8 234.05 Q385.3 242.6 384.35 251.7 386.4 248.75 386.65 245.8 388.5 256.7 386.65 270.15 389.1 264.85 389.85 259.5 389.55 270.7 386.35 286.55 L389.9 281.4 Q392.15 285.35 391.75 291.0 389.75 303.8 391.75 316.6 L393.4 303.0 Q394.95 317.3 393.4 333.45 392.05 340.75 393.4 347.3 L395.05 342.85 Q395.9 353.35 399.85 362.55 L399.9 359.95 399.9 362.55 Q403.85 353.35 404.7 342.85 L406.35 347.3 Q407.7 340.75 406.35 333.45 404.8 317.3 406.35 303.0 L408.0 316.6 Q410.0 303.8 408.0 291.0 407.6 285.35 409.85 281.4 L413.4 286.55 Q410.2 270.7 409.9 259.5 410.65 264.85 413.1 270.15 411.25 256.7 413.1 245.8 413.35 248.75 415.4 251.7 414.45 242.6 415.95 234.05 L417.4 235.8 418.0 232.5 418.2 231.05 Q419.1 224.45 418.35 217.85 L418.0 216.05 Q416.9 209.85 416.9 203.65 L418.7 206.2 Q419.3 199.25 418.15 193.75 L418.0 193.05 418.4 185.85 418.4 185.3 416.95 185.3 Q417.35 191.0 412.25 195.1 411.9 201.85 406.9 205.35 404.15 208.05 402.3 205.6 L397.4 205.6 Q395.55 208.05 392.8 205.35 387.8 201.85 387.45 195.1 382.35 191.0 382.75 185.3 M415.35 252.95 L415.4 251.7 M384.35 251.7 L384.4 252.95" fill="none" stroke="#000000" stroke-linecap="round" stroke-linejoin="round" stroke-width="1.0"/>
  </g>
</svg>
