<?xml version="1.0" encoding="UTF-8" standalone="no"?>
<svg xmlns:xlink="http://www.w3.org/1999/xlink" height="22.1px" width="92.5px" xmlns="http://www.w3.org/2000/svg">
  <g transform="matrix(1.0, 0.0, 0.0, 1.0, -353.65, -111.55)">
    <path d="M362.35 113.25 L362.95 113.8 368.2 118.25 Q370.95 120.4 372.1 122.0 373.25 123.55 374.35 123.65 L377.6 124.3 378.45 124.5 M379.7 119.05 Q382.05 123.35 379.7 133.15 M374.35 123.65 Q372.5 124.65 370.75 126.35 L369.3 127.7 M420.15 119.05 Q417.8 123.35 420.15 133.15 M430.55 127.7 L429.1 126.35 Q427.35 124.65 425.45 123.65 L422.2 124.3 421.35 124.5 M425.45 123.65 Q426.55 123.55 427.75 122.0 428.9 120.4 431.65 118.25 L436.9 113.8 437.5 113.25" fill="none" stroke="#000000" stroke-linecap="round" stroke-linejoin="round" stroke-opacity="0.5019608" stroke-width="1.0"/>
    <path d="M379.7 133.15 L379.1 131.55 378.75 131.0 377.35 129.45 376.8 129.0 375.95 128.4 Q373.65 127.0 370.95 127.35 L369.3 127.7 367.35 128.0 366.0 128.15 Q361.45 128.6 358.45 125.1 356.1 122.35 355.15 118.45 354.35 115.35 354.15 112.05 L362.35 113.25 363.0 113.45 363.05 113.45 365.0 114.1 Q367.4 114.95 370.35 117.9 372.35 120.05 374.25 120.1 L375.4 120.05 Q377.7 119.85 379.7 119.05 M437.5 113.25 L436.85 113.45 436.75 113.45 434.8 114.1 Q432.4 114.95 429.5 117.9 427.45 120.05 425.6 120.1 L424.4 120.05 Q422.15 119.85 420.15 119.05 M420.15 133.15 L420.7 131.55 421.1 131.0 Q421.7 130.15 422.45 129.45 L423.05 129.0 423.9 128.4 Q426.15 127.0 428.9 127.35 L430.55 127.7 M437.5 113.25 L445.65 112.05 Q445.5 115.35 444.7 118.45 443.7 122.35 441.4 125.1 438.4 128.6 433.85 128.15 L432.5 128.0 430.55 127.7" fill="none" stroke="#000000" stroke-linecap="round" stroke-linejoin="round" stroke-width="1.0"/>
  </g>
</svg>
