<?xml version="1.0" encoding="UTF-8" standalone="no"?>
<svg xmlns:xlink="http://www.w3.org/1999/xlink" height="52.0px" width="34.7px" xmlns="http://www.w3.org/2000/svg">
  <g transform="matrix(1.0, 0.0, 0.0, 1.0, -380.3, -134.75)">
    <path d="M399.85 186.25 Q393.2 186.0 388.75 182.25 383.75 178.0 381.35 172.35 380.15 165.15 381.55 159.8 L381.35 158.2 381.15 154.1 381.15 153.9 381.15 153.65 Q381.2 144.85 381.9 140.75 L382.85 139.5 Q385.05 136.9 387.9 135.25" fill="none" stroke="#000000" stroke-linecap="round" stroke-linejoin="round" stroke-width="1.0"/>
    <path d="M387.9 135.25 Q401.2 139.45 414.5 149.05 400.05 145.95 387.35 146.9 400.75 151.3 411.8 158.55 399.85 155.7 387.35 157.25 398.85 161.6 409.95 169.35 399.25 166.9 388.95 167.2 397.9 171.25 405.4 177.85 L392.9 176.45 Q397.55 180.3 399.85 186.25 Z" fill="none" stroke="#000000" stroke-linecap="round" stroke-linejoin="round" stroke-opacity="0.5019608" stroke-width="1.0"/>
  </g>
</svg>
