<?xml version="1.0" encoding="UTF-8" standalone="no"?>
<svg xmlns:xlink="http://www.w3.org/1999/xlink" height="20.1px" width="33.35px" xmlns="http://www.w3.org/2000/svg">
  <g transform="matrix(1.0, 0.0, 0.0, 1.0, -383.2, -148.15)">
    <path d="M385.0 148.95 L384.3 151.9 384.25 152.2 Q383.8 153.8 383.8 155.15 383.3 161.45 386.05 167.75 L388.1 167.75 Q388.0 165.2 390.2 163.8 394.15 165.75 399.95 165.95 405.9 165.7 409.85 163.7 411.75 165.05 411.65 167.45 L413.7 167.45 Q416.2 161.7 416.05 155.9 L416.05 154.85 Q416.0 153.5 415.55 151.9 L414.75 148.65 411.15 149.15 410.55 152.4 Q406.45 153.25 402.6 155.35 L399.95 155.95 Q398.65 155.85 397.3 155.35 393.35 153.2 389.15 152.4 L388.6 149.45 385.0 148.95 Z" fill="none" stroke="#000000" stroke-linecap="round" stroke-linejoin="round" stroke-opacity="0.5019608" stroke-width="1.0"/>
  </g>
</svg>
