<?xml version="1.0" encoding="UTF-8" standalone="no"?>
<svg xmlns:xlink="http://www.w3.org/1999/xlink" height="330.0px" width="279.95px" xmlns="http://www.w3.org/2000/svg">
  <g transform="matrix(1.0, 0.0, 0.0, 1.0, -160.4, -186.95)">
    <path d="M357.0 191.15 Q365.8 193.4 375.75 197.45 385.7 201.5 392.35 206.15 398.95 210.75 405.05 216.3 411.1 221.8 416.3 230.6 421.45 239.35 422.25 243.45 423.0 247.55 437.85 286.3 445.3 360.45 430.75 382.1 L427.55 407.75 Q426.2 416.95 422.5 425.05 421.0 432.2 420.3 439.3 419.05 450.3 419.2 461.85 L419.05 469.85 419.05 470.0 Q419.4 474.55 423.2 475.75 L418.65 475.5 418.6 475.5 417.6 483.05 Q415.65 493.85 406.2 493.5 400.1 494.3 396.3 493.5 392.5 492.7 391.65 491.5 386.1 494.75 382.4 493.15 L381.7 492.8 Q381.8 493.15 380.45 493.3 L379.9 493.5 Q378.65 494.5 376.9 493.9 375.65 493.45 374.8 492.85 374.4 493.4 373.7 493.5 371.9 493.65 370.25 493.45 L366.85 493.0 Q365.05 492.8 364.75 491.55 L364.65 491.1 Q363.8 492.6 361.25 492.55 357.65 492.45 354.45 492.6 350.4 492.8 349.45 489.55 L349.45 489.45 343.15 489.6 Q341.45 489.5 340.2 488.85 339.45 488.45 338.95 487.9 338.35 489.2 336.3 489.1 L335.2 489.05 Q333.5 488.2 331.15 487.95 329.5 487.7 328.9 487.15 L324.95 486.95 Q324.7 489.65 325.25 491.8 320.9 497.65 314.9 497.85 L313.0 498.0 Q305.5 498.9 300.75 505.3 295.9 511.8 287.35 515.55 278.5 516.95 271.75 516.95 L275.0 511.45 Q275.45 510.55 276.25 509.95 276.85 507.8 276.7 505.1 274.5 505.4 272.85 506.3 271.45 506.95 270.45 508.0 268.15 510.25 267.3 512.55 266.9 513.55 266.65 514.6 L266.4 515.85 263.8 515.9 265.95 512.5 Q265.9 512.1 266.65 510.55 267.35 508.95 267.4 507.45 L265.4 507.4 264.55 508.05 Q263.0 509.25 261.6 510.9 L261.25 510.75 Q262.1 507.85 261.45 506.6 L259.45 508.0 257.45 509.65 Q259.55 505.45 259.2 503.4 257.35 504.45 255.7 505.95 L257.15 503.75 Q257.65 502.4 257.5 501.1 255.25 502.9 253.2 505.5 251.95 504.4 252.05 502.8 252.45 497.55 251.4 493.15 248.45 495.3 248.3 498.85 248.15 502.9 249.65 505.9 248.3 507.75 246.8 505.4 L246.7 503.05 Q246.65 497.8 244.25 494.4 242.3 498.35 242.9 503.75 L243.25 505.9 Q242.4 506.9 241.25 505.65 L241.0 501.3 Q240.55 497.2 238.15 494.6 236.6 498.25 237.05 502.55 L237.35 504.0 237.35 505.65 Q235.5 505.9 234.3 503.6 L234.0 504.5 Q232.1 508.55 228.85 506.75 L229.3 502.55 Q229.4 496.95 226.45 493.95 224.8 494.7 224.7 496.85 226.45 499.75 225.9 504.55 221.4 505.05 219.85 500.8 218.7 497.6 219.5 493.9 L219.5 493.85 Q217.35 488.55 220.45 484.6 222.15 482.3 223.3 478.85 224.85 473.6 225.45 469.1 L225.85 464.9 Q224.0 466.05 221.75 466.25 224.5 463.7 225.9 460.2 221.75 454.85 219.35 447.3 216.95 439.75 212.9 431.75 208.85 423.75 206.4 415.4 203.95 407.05 200.75 397.8 197.65 388.55 195.55 379.4 193.4 370.25 188.05 362.9 182.7 355.5 181.0 344.95 179.2 334.35 178.8 323.05 178.35 311.75 181.6 300.85 L171.95 289.25 Q168.2 284.35 164.95 275.55 160.35 269.9 160.4 259.5 160.45 249.5 165.15 242.65 L166.9 240.2 Q165.4 233.75 167.6 229.3 165.65 224.8 165.75 218.8 L165.75 215.35 165.55 212.2 Q164.6 203.6 172.5 201.85 176.4 203.6 182.3 203.35 185.7 203.55 188.3 204.8 191.95 203.55 196.35 203.1 199.05 200.05 202.6 199.3 L219.45 195.25 Q227.25 193.2 237.3 194.05 L240.15 193.2 Q247.85 190.85 258.25 192.35 L277.2 193.8 Q286.85 193.85 293.1 198.5 L294.8 199.8 Q304.9 198.65 312.8 194.1 320.65 189.5 325.75 187.85 330.85 186.2 339.55 187.55 348.15 188.85 357.0 191.15 M244.65 280.65 Q243.35 277.15 243.1 275.55 241.8 275.4 240.15 274.35 234.95 273.45 227.35 271.05 226.15 269.25 223.85 271.8 217.95 278.15 211.2 280.3 210.8 282.25 210.85 284.7 L210.85 285.3 Q210.85 288.35 209.95 291.55 L206.5 304.4 Q202.85 307.25 205.8 311.4 208.1 311.8 209.6 313.5 L209.6 313.95 Q209.5 315.9 210.0 317.4 210.0 320.6 211.75 323.2 213.15 325.25 216.05 327.15 218.3 328.6 221.35 329.95 L224.5 330.6 231.45 330.05 Q233.7 329.8 235.7 328.1 L240.3 324.15 244.45 319.95 Q245.55 318.65 245.55 316.65 246.95 315.15 247.9 313.25 248.5 311.95 248.4 310.1 L248.35 305.95 246.7 290.4 Q245.95 284.1 244.65 280.65 M284.0 268.2 L284.5 268.2 284.0 268.15 284.0 268.2 M251.55 269.6 L251.2 269.15 Q248.15 265.45 244.4 270.7 245.25 273.25 248.5 272.45 250.3 271.35 251.55 269.6 M204.5 267.85 Q203.8 274.1 210.0 273.55 211.65 273.35 211.45 270.95 208.7 268.2 204.5 267.85 M273.05 408.55 Q272.8 418.25 272.3 419.35 270.95 422.35 269.75 425.95 268.45 429.65 268.4 433.8 L268.15 442.5 Q268.05 446.85 268.4 451.0 268.45 452.75 268.95 454.35 L271.2 461.75 Q269.25 461.9 268.5 460.2 269.05 465.45 270.2 469.0 L268.5 468.85 Q268.3 471.2 269.2 471.95 272.3 474.65 273.15 479.95 274.35 477.3 274.9 473.95 L276.6 461.55 Q277.25 456.1 277.35 450.75 277.55 442.1 277.3 433.7 L277.2 426.5 276.5 410.45 276.35 409.05 273.05 408.55 M258.35 490.2 Q257.55 490.7 257.1 491.45 254.2 495.35 255.35 501.2 257.05 498.55 259.5 496.6 259.05 492.8 258.35 490.2 M367.45 409.15 Q366.3 405.7 364.45 403.15 L364.1 411.75 Q363.7 417.5 363.75 423.65 363.75 426.2 363.05 428.55 361.55 433.7 361.8 440.0 362.0 446.15 361.75 452.2 L361.1 464.3 Q361.95 465.35 361.9 467.1 361.75 471.0 364.05 472.65 361.65 472.3 359.55 471.25 360.95 472.95 360.5 475.7 360.05 477.95 361.4 479.15 363.6 481.05 363.95 485.0 363.85 483.25 364.7 481.75 365.6 480.05 366.65 479.6 367.55 479.15 368.35 479.1 L368.55 479.1 368.4 478.95 373.15 473.5 Q375.5 470.6 376.8 467.55 375.55 468.2 373.45 468.05 375.9 465.4 376.15 461.35 L376.35 453.0 376.2 444.4 Q376.1 440.1 376.65 436.05 377.2 431.75 376.85 427.45 376.45 423.55 374.35 420.5 372.2 418.3 370.4 415.55 368.65 412.8 367.45 409.15 M343.1 470.85 Q342.6 471.0 342.15 471.35 L343.05 471.45 343.1 470.85 M331.55 481.55 L330.55 483.3 Q331.8 482.25 333.15 483.5 L333.75 484.2 Q335.55 484.5 335.9 482.9 334.9 481.65 333.75 480.9 332.6 480.2 331.55 481.55 M342.85 485.7 Q344.9 485.5 344.0 483.4 341.55 480.4 340.8 484.9 342.1 484.35 342.85 485.7 M351.15 486.5 Q351.6 485.6 352.4 486.2 354.2 484.8 352.9 482.4 350.2 479.15 350.5 484.05 350.55 485.35 351.15 486.5 M363.95 485.0 L364.0 485.35 Q363.4 485.75 363.2 486.4 363.0 487.0 362.95 487.7 L362.8 488.2 Q364.05 486.8 364.75 488.45 366.85 488.9 367.3 487.6 367.65 486.7 367.1 486.35 366.6 484.4 365.3 484.75 364.55 484.95 364.05 485.3 L363.95 485.0 M372.1 484.5 L372.0 484.5 371.85 484.45 371.85 484.5 Q371.35 484.55 371.0 484.85 369.75 485.85 370.1 487.35 L370.55 486.75 Q370.75 486.35 371.15 486.5 L371.7 486.7 373.4 487.35 373.75 486.3 Q374.15 484.55 372.25 484.5 L372.15 484.5 372.1 484.5 M379.25 487.4 Q381.0 487.7 381.0 486.05 380.15 485.1 379.4 485.0 378.2 484.85 377.25 486.85 378.55 486.45 379.25 487.4 M393.45 489.65 L396.85 490.05 Q396.05 487.1 393.45 486.3 393.05 488.25 393.45 489.65" fill="#000000" fill-rule="evenodd" stroke="none"/>
  </g>
</svg>
