<?xml version="1.0" encoding="UTF-8" standalone="no"?>
<svg xmlns:xlink="http://www.w3.org/1999/xlink" height="415.5px" width="452.85px" xmlns="http://www.w3.org/2000/svg">
  <g transform="matrix(1.0, 0.0, 0.0, 1.0, 209.6, 192.5)">
    <path d="M234.05 -143.6 L233.8 -143.4 234.35 -144.65 234.05 -143.6" fill="#000000" fill-rule="evenodd" stroke="none"/>
    <path d="M233.8 -143.4 L233.7 -143.25 232.75 -141.35 Q232.5 -142.45 233.8 -143.4" fill="#ffffff" fill-rule="evenodd" stroke="none"/>
    <path d="M85.95 202.65 Q94.1 201.95 95.35 210.65 93.5 213.65 85.4 213.45 93.25 208.7 85.95 202.65" fill="#cccccc" fill-rule="evenodd" stroke="none"/>
    <path d="M170.2 -154.15 Q171.65 -155.45 173.8 -156.25 176.35 -153.0 181.15 -152.55 L181.15 -150.1 Q184.0 -149.65 185.9 -151.7 186.2 -151.05 187.0 -150.3 189.95 -151.5 192.1 -149.85 195.55 -151.9 196.4 -148.7 198.95 -144.45 203.3 -142.0 L196.85 -135.75 Q192.75 -132.15 194.3 -126.8 195.2 -122.0 197.15 -117.7 199.45 -112.65 201.0 -107.7 202.15 -103.65 205.6 -103.15 212.7 -96.15 222.4 -96.05 227.5 -105.7 226.95 -111.8 L226.1 -117.45 228.45 -119.55 Q226.6 -124.05 228.95 -125.05 L231.1 -125.35 Q233.75 -127.1 232.9 -132.2 234.05 -136.6 232.05 -139.6 L232.75 -141.35 233.7 -143.25 233.8 -143.4 234.05 -143.6 Q236.7 -142.5 237.3 -143.95 237.65 -144.65 237.6 -145.65 L237.55 -146.8 238.85 -147.25 Q240.35 -148.1 240.2 -150.3 L243.2 -150.65 Q243.45 -146.55 242.7 -142.85 241.65 -137.7 238.15 -135.8 L237.85 -133.15 Q237.65 -130.65 236.2 -129.3 232.8 -126.25 233.2 -120.5 234.5 -114.15 233.05 -109.2 231.35 -103.7 232.0 -95.5 234.25 -92.85 235.9 -90.15 238.1 -85.95 238.1 -81.2 237.05 -78.25 236.6 -75.65 L236.3 -72.6 236.4 -72.6 Q228.9 -69.1 229.55 -61.95 228.9 -57.5 229.25 -53.85 223.1 -45.25 226.3 -31.85 222.1 -36.15 219.6 -29.35 216.45 -18.55 215.35 -6.45 213.35 -7.3 213.1 -9.7 210.1 0.75 203.1 9.55 199.65 13.9 198.35 18.95 L198.35 26.1 Q196.3 24.75 195.0 22.3 187.85 30.75 184.9 38.8 183.5 42.85 184.7 45.65 180.9 42.95 179.25 38.6 172.45 41.95 178.25 46.95 171.9 46.35 172.4 39.0 167.35 42.85 168.9 49.65 166.55 45.65 161.7 43.5 161.3 47.05 160.55 50.2 159.45 44.95 154.7 44.7 152.3 45.8 152.15 49.45 148.8 48.75 145.55 46.9 142.9 41.45 137.05 39.85 134.75 36.2 131.2 33.3 L128.9 31.45 Q127.1 28.95 126.0 26.1 123.35 32.15 117.75 35.8 118.3 44.1 119.0 52.1 L115.3 49.45 Q112.0 53.75 110.05 58.35 108.05 62.95 103.15 69.5 98.3 75.95 94.15 83.3 90.05 90.65 88.2 98.3 86.45 106.1 84.0 114.15 84.5 120.75 83.05 125.8 81.25 131.45 75.7 135.4 75.55 140.6 74.3 144.8 71.9 152.15 70.85 161.75 69.95 170.75 69.4 179.5 72.95 182.15 73.1 188.1 71.25 197.05 76.75 200.3 L82.45 200.7 Q84.0 201.25 85.25 202.1 L85.95 202.65 Q93.25 208.7 85.4 213.45 77.5 212.7 66.25 212.95 61.55 214.1 58.15 212.0 50.15 206.95 56.35 199.85 56.9 195.95 56.5 192.75 59.75 190.7 61.4 185.8 60.65 182.5 62.7 180.85 66.5 167.05 67.1 152.85 L67.3 145.9 Q69.3 138.8 72.6 131.75 65.6 128.1 58.2 130.95 59.25 123.3 55.6 119.35 54.95 122.7 54.55 126.4 53.3 138.8 41.75 142.3 42.15 148.45 41.0 151.6 38.25 159.15 36.25 168.55 34.25 177.95 34.7 184.15 L35.05 192.6 Q35.05 202.65 31.1 202.2 33.9 208.55 40.5 208.6 46.65 210.45 47.8 217.55 46.8 224.6 37.5 221.85 28.85 224.6 21.1 220.65 18.25 218.55 14.25 218.95 7.15 216.6 10.55 211.15 14.85 207.2 16.5 200.3 15.35 194.15 16.15 188.6 26.0 193.3 26.7 183.3 30.35 170.35 33.0 157.05 34.05 151.8 35.95 145.9 L37.35 141.3 Q32.3 138.15 32.3 131.4 51.7 138.15 48.25 117.8 57.05 108.55 49.95 94.2 46.1 86.8 41.45 79.95 36.0 71.9 32.6 62.3 35.95 56.65 36.85 50.15 17.0 48.55 12.0 54.9 L10.9 49.6 Q5.1 51.9 4.75 56.95 0.8 53.85 1.25 48.55 -3.1 49.65 -8.4 49.45 -19.05 43.55 -30.05 42.85 -46.9 41.25 -56.7 31.05 -66.0 21.2 -77.6 14.5 -92.6 20.4 -110.55 20.4 -111.05 28.6 -114.15 34.55 -121.2 48.05 -134.6 58.7 L-136.1 87.0 Q-138.75 95.55 -143.6 102.0 -145.5 111.2 -143.6 120.45 L-143.65 122.05 Q-147.8 121.8 -151.0 124.6 -155.5 128.5 -160.15 130.25 -162.5 125.0 -160.7 121.9 -162.2 119.05 -163.95 116.9 -168.3 104.9 -161.5 91.0 -160.1 88.2 -158.2 87.0 -145.5 79.35 -145.35 64.85 -147.8 60.9 -150.75 57.0 -157.1 48.8 -159.95 38.6 -164.6 22.4 -154.95 13.7 -147.5 26.0 -132.4 21.9 -125.7 12.85 -110.7 11.95 -111.2 -6.8 -107.65 -24.25 -107.05 -27.0 -106.8 -29.6 -96.75 -22.9 -90.5 -13.1 -82.95 -1.0 -67.95 2.8 -53.9 6.35 -43.15 11.4 -31.55 16.85 -18.35 20.15 -4.3 23.5 9.55 23.15 15.5 22.9 16.5 17.05 18.8 3.35 22.8 -9.25 25.25 -16.95 34.2 -13.25 L32.25 -7.85 Q30.2 -2.85 29.1 2.75 42.65 -0.7 48.75 12.5 52.25 20.1 60.15 24.55 63.45 26.35 65.2 24.6 73.0 16.3 79.55 6.35 83.65 -0.05 92.4 -1.5 96.8 3.8 101.95 8.0 103.8 9.5 106.95 9.5 L111.65 9.5 Q121.5 -2.4 115.7 -14.35 110.65 -24.6 110.95 -38.8 111.3 -53.85 123.6 -58.45 120.0 -49.2 121.4 -37.1 122.75 -25.1 123.55 -12.4 L123.6 -11.5 Q136.15 -11.25 141.6 -1.1 L141.75 -0.95 Q148.3 9.4 158.5 0.0 L158.3 4.05 Q157.35 17.25 167.15 21.6 169.1 22.5 172.4 22.85 180.9 16.0 182.75 0.2 L186.25 -27.4 Q188.2 -41.6 188.1 -55.9 187.95 -62.8 183.5 -67.75 177.55 -74.25 178.35 -87.0 178.6 -91.7 180.9 -97.1 183.4 -91.75 187.05 -87.35 193.7 -92.25 192.95 -105.1 190.5 -105.75 188.7 -106.6 184.55 -108.55 183.1 -113.5 181.7 -118.15 181.5 -124.35 180.0 -130.15 183.65 -133.8 184.35 -136.8 182.55 -139.9 180.0 -143.9 176.55 -147.05 173.2 -150.05 170.2 -154.15 M-128.55 186.15 Q-124.7 188.6 -125.0 193.4 -121.5 195.7 -118.7 198.85 -113.8 200.3 -111.0 201.7 L-109.0 202.65 Q-104.35 203.95 -105.05 209.6 -105.75 215.85 -112.5 212.35 -113.55 212.95 -115.2 213.25 L-125.55 212.6 -134.55 212.25 Q-136.35 212.1 -137.1 211.0 L-138.8 207.8 Q-143.6 207.2 -147.65 204.55 -152.0 201.8 -152.15 197.8 L-152.25 194.9 Q-155.8 192.45 -158.2 188.45 -159.35 186.5 -159.25 183.9 -159.05 178.6 -159.0 173.3 -158.85 168.3 -160.55 163.9 -162.25 159.15 -166.4 149.85 L-169.95 142.1 -170.9 139.8 Q-172.45 136.35 -173.2 131.35 -168.95 136.75 -164.75 143.0 -161.65 147.65 -158.75 152.85 -154.05 161.5 -153.55 172.15 -153.0 182.85 -148.2 191.9 -148.3 199.85 -140.15 201.15 -139.95 187.85 -128.55 186.15 M-179.5 110.85 Q-184.95 107.85 -184.3 102.4 -179.75 92.8 -173.9 85.15 -175.55 90.65 -176.2 97.1 -177.1 105.1 -179.5 110.85 M-180.1 -11.3 Q-180.7 -9.4 -182.7 -8.3 -188.6 -4.95 -191.95 -0.3 -195.3 2.55 -196.9 7.45 -196.45 9.65 -196.4 12.5 -198.05 21.3 -193.05 24.4 L-196.75 23.7 Q-197.05 30.2 -193.8 32.6 -198.65 33.05 -201.25 30.35 -201.25 30.75 -202.0 32.7 -208.8 28.25 -209.45 19.2 -210.45 6.6 -204.1 0.75 L-200.55 -1.75 Q-197.35 -4.2 -194.1 -7.35 -190.85 -10.55 -187.05 -16.65 -183.25 -22.75 -183.6 -37.15 -183.85 -45.9 -181.05 -52.65 -176.7 -51.1 -167.7 -56.65 -170.9 -51.8 -173.2 -47.1 -178.7 -36.15 -180.6 -23.3 -181.55 -16.85 -180.1 -11.3 M-47.65 -180.45 Q-41.45 -178.55 -37.6 -173.5 -30.5 -164.25 -27.05 -150.45 -27.05 -144.1 -29.2 -142.2 -30.5 -134.85 -35.55 -131.1 -39.3 -128.5 -44.95 -127.85 -50.35 -130.45 -46.7 -136.95 -38.15 -147.65 -48.7 -160.05 -54.8 -167.25 -52.0 -176.85 -51.25 -179.55 -47.65 -180.45 M21.6 -134.35 Q21.85 -150.05 20.9 -159.75 18.4 -182.5 26.25 -187.55 34.0 -192.6 46.4 -190.6 46.6 -191.7 47.15 -192.5 62.8 -192.8 72.6 -179.85 74.95 -176.7 77.8 -173.25 62.25 -173.15 47.5 -177.05 32.15 -181.1 30.2 -170.1 27.75 -155.8 27.4 -138.2 24.3 -136.65 21.6 -134.35 M219.05 -149.9 Q224.6 -152.1 227.6 -149.6 227.2 -146.9 224.5 -146.2 225.9 -139.35 222.75 -135.75 221.05 -133.8 219.15 -132.35 220.0 -131.45 221.65 -131.3 223.6 -129.9 225.35 -127.95 L228.9 -127.7 Q229.75 -129.05 231.35 -128.55 230.8 -126.5 228.8 -125.95 L227.25 -125.7 Q226.3 -123.75 225.0 -122.35 221.9 -118.7 215.75 -120.1 216.6 -120.1 217.0 -121.9 215.1 -125.95 210.0 -127.45 L213.95 -127.35 Q211.95 -132.15 212.55 -137.7 212.9 -141.1 213.75 -144.5 210.45 -145.5 209.75 -148.2 211.0 -153.2 216.05 -150.65 217.15 -150.1 219.05 -149.9 M185.3 -147.2 Q186.1 -145.8 186.95 -144.8 187.7 -143.9 189.1 -143.95 L192.2 -146.25 192.45 -146.45 Q192.0 -147.55 191.0 -148.15 L187.65 -148.4 Q186.2 -148.1 185.25 -147.25 L185.05 -147.05 185.3 -147.2" fill="#010101" fill-opacity="0.2" fill-rule="evenodd" stroke="none"/>
    <path d="M77.8 -173.25 Q78.0 -170.6 80.75 -169.75 83.65 -166.1 85.35 -162.0 82.15 -160.15 81.1 -157.35 87.15 -146.4 89.95 -137.45 96.5 -132.7 101.1 -124.55 108.65 -119.75 108.5 -108.75 117.3 -107.45 122.2 -101.55 L132.1 -89.5 Q139.05 -80.7 149.45 -78.1 148.25 -74.6 145.3 -70.6 149.6 -71.65 155.1 -70.4 158.7 -72.65 164.3 -72.95 L168.5 -83.15 168.45 -83.3 Q165.95 -94.7 168.0 -104.05 168.9 -108.0 170.55 -112.0 L179.1 -131.9 Q177.0 -135.85 173.0 -138.35 168.8 -141.1 167.2 -145.65 166.35 -147.9 167.4 -150.4 168.3 -152.6 170.2 -154.15 173.2 -150.05 176.55 -147.05 180.0 -143.9 182.55 -139.9 184.35 -136.8 183.65 -133.8 180.0 -130.15 181.5 -124.35 181.7 -118.15 183.1 -113.5 184.55 -108.55 188.7 -106.6 190.5 -105.75 192.95 -105.1 193.7 -92.25 187.05 -87.35 183.4 -91.75 180.9 -97.1 178.6 -91.7 178.35 -87.0 177.55 -74.25 183.5 -67.75 187.95 -62.8 188.1 -55.9 188.2 -41.6 186.25 -27.4 L182.75 0.2 Q180.9 16.0 172.4 22.85 169.1 22.5 167.15 21.6 157.35 17.25 158.3 4.05 L158.5 0.0 Q148.3 9.4 141.75 -0.95 L141.75 -1.15 141.6 -1.1 Q136.15 -11.25 123.6 -11.5 L123.55 -12.4 Q122.75 -25.1 121.4 -37.1 120.0 -49.2 123.6 -58.45 111.3 -53.85 110.95 -38.8 110.65 -24.6 115.7 -14.35 121.5 -2.4 111.65 9.5 L106.95 9.5 Q103.8 9.5 101.95 8.0 96.8 3.8 92.4 -1.5 83.65 -0.05 79.55 6.35 73.0 16.3 65.2 24.6 63.45 26.35 60.15 24.55 52.25 20.1 48.75 12.5 42.65 -0.7 29.1 2.75 30.2 -2.85 32.25 -7.85 L34.2 -13.25 Q25.25 -16.95 22.8 -9.25 18.8 3.35 16.5 17.05 15.5 22.9 9.55 23.15 -4.3 23.5 -18.35 20.15 -31.55 16.85 -43.15 11.4 -53.9 6.35 -67.95 2.8 -82.95 -1.0 -90.5 -13.1 -96.75 -22.9 -106.8 -29.6 -107.05 -27.0 -107.65 -24.25 -111.2 -6.8 -110.7 11.95 -125.7 12.85 -132.4 21.9 -147.5 26.0 -154.95 13.7 -164.6 22.4 -159.95 38.6 -157.1 48.8 -150.75 57.0 -147.8 60.9 -145.35 64.85 -145.5 79.35 -158.2 87.0 -160.1 88.2 -161.5 91.0 -168.3 104.9 -163.95 116.9 -162.2 119.05 -160.7 121.9 -162.5 125.0 -160.15 130.25 -155.5 128.5 -151.0 124.6 -147.8 121.8 -143.65 122.05 -143.9 130.75 -145.9 138.45 -144.55 140.45 -144.25 141.3 -140.75 149.75 -140.45 157.55 -140.2 165.3 -137.8 171.85 -135.45 178.4 -128.55 186.15 -139.95 187.85 -140.15 201.15 -148.3 199.85 -148.2 191.9 -153.0 182.85 -153.55 172.15 -154.05 161.5 -158.75 152.85 -161.65 147.65 -164.75 143.0 -168.95 136.75 -173.2 131.35 L-175.3 128.8 Q-179.3 123.8 -177.85 115.85 -180.05 115.6 -181.5 114.65 L-179.5 110.85 Q-177.1 105.1 -176.2 97.1 -175.55 90.65 -173.9 85.15 -172.75 81.05 -170.95 77.45 -169.8 74.85 -169.35 71.75 -168.0 62.3 -166.9 50.5 -170.05 37.6 -171.25 19.1 L-172.65 1.05 Q-178.35 -4.35 -180.1 -11.3 -181.55 -16.85 -180.6 -23.3 -178.7 -36.15 -173.2 -47.1 -170.9 -51.8 -167.7 -56.65 -176.7 -51.1 -181.05 -52.65 -179.25 -56.9 -176.2 -60.4 -167.95 -69.8 -157.15 -78.65 -147.5 -86.65 -138.75 -96.1 -127.3 -105.05 -124.15 -118.4 -120.65 -133.25 -112.15 -144.1 -103.65 -154.95 -91.95 -164.25 -80.35 -173.6 -74.0 -177.0 -67.7 -180.4 -62.25 -181.25 -53.9 -182.4 -47.65 -180.45 -51.25 -179.55 -52.0 -176.85 -54.8 -167.25 -48.7 -160.05 -38.15 -147.65 -46.7 -136.95 -50.35 -130.45 -44.95 -127.85 -39.3 -128.5 -35.55 -131.1 -26.8 -116.2 -10.8 -115.35 7.55 -114.35 14.9 -126.3 17.75 -131.1 21.6 -134.35 24.3 -136.65 27.4 -138.2 27.75 -155.8 30.2 -170.1 32.15 -181.1 47.5 -177.05 62.25 -173.15 77.8 -173.25 M181.15 -152.55 Q181.2 -154.1 181.6 -155.55 182.6 -160.2 187.0 -162.95 190.35 -165.1 196.25 -167.15 200.2 -169.0 201.4 -172.5 202.95 -172.65 203.8 -172.1 207.65 -169.4 206.8 -173.25 209.75 -172.5 211.15 -170.25 L215.35 -171.5 Q215.95 -170.4 217.1 -169.85 217.7 -171.4 219.6 -172.2 221.1 -171.1 220.8 -168.55 222.9 -168.6 223.9 -167.6 227.15 -164.8 230.25 -161.35 L233.95 -157.15 Q236.8 -153.95 240.05 -151.3 L240.2 -150.3 Q240.35 -148.1 238.85 -147.25 L237.55 -146.8 237.6 -145.65 Q237.65 -144.65 237.3 -143.95 236.7 -142.5 234.05 -143.6 L234.35 -144.65 233.8 -143.4 Q232.5 -142.45 232.75 -141.35 L232.05 -139.6 Q234.05 -136.6 232.9 -132.2 233.75 -127.1 231.1 -125.35 L228.95 -125.05 Q226.6 -124.05 228.45 -119.55 L226.1 -117.45 226.95 -111.8 Q227.5 -105.7 222.4 -96.05 212.7 -96.15 205.6 -103.15 202.15 -103.65 201.0 -107.7 199.45 -112.65 197.15 -117.7 195.2 -122.0 194.3 -126.8 192.75 -132.15 196.85 -135.75 L203.3 -142.0 Q198.95 -144.45 196.4 -148.7 195.55 -151.9 192.1 -149.85 189.95 -151.5 187.0 -150.3 186.2 -151.05 185.9 -151.7 184.0 -149.65 181.15 -150.1 L181.15 -152.55 M56.5 192.75 Q56.2 190.5 55.4 188.7 49.85 183.3 55.9 178.6 56.8 168.5 56.8 160.4 56.8 151.35 57.65 142.35 58.1 136.85 58.2 130.95 65.6 128.1 72.6 131.75 69.3 138.8 67.3 145.9 L67.1 152.85 Q66.5 167.05 62.7 180.85 60.65 182.5 61.4 185.8 59.75 190.7 56.5 192.75 M16.15 188.6 Q16.5 185.65 17.4 182.9 19.9 175.15 20.95 166.7 22.05 158.15 24.1 150.25 26.05 143.0 25.9 133.2 25.7 126.8 23.75 121.1 23.0 108.35 27.0 99.55 30.95 90.65 30.75 84.65 30.4 78.55 30.5 75.85 28.5 72.75 25.3 71.0 29.75 66.95 32.6 62.3 36.0 71.9 41.45 79.95 46.1 86.8 49.95 94.2 57.05 108.55 48.25 117.8 51.7 138.15 32.3 131.4 32.3 138.15 37.35 141.3 L35.95 145.9 Q34.05 151.8 33.0 157.05 30.35 170.35 26.7 183.3 26.0 193.3 16.15 188.6 M219.05 -149.9 Q217.15 -150.1 216.05 -150.65 211.0 -153.2 209.75 -148.2 210.45 -145.5 213.75 -144.5 212.9 -141.1 212.55 -137.7 211.95 -132.15 213.95 -127.35 L210.0 -127.45 Q215.1 -125.95 217.0 -121.9 216.6 -120.1 215.75 -120.1 221.9 -118.7 225.0 -122.35 226.3 -123.75 227.25 -125.7 L228.8 -125.95 Q230.8 -126.5 231.35 -128.55 229.75 -129.05 228.9 -127.7 L225.35 -127.95 Q223.6 -129.9 221.65 -131.3 220.0 -131.45 219.15 -132.35 221.05 -133.8 222.75 -135.75 225.9 -139.35 224.5 -146.2 227.2 -146.9 227.6 -149.6 224.6 -152.1 219.05 -149.9 M185.25 -147.25 Q186.2 -148.1 187.65 -148.4 L191.0 -148.15 Q192.0 -147.55 192.45 -146.45 L192.2 -146.25 189.1 -143.95 Q187.7 -143.9 186.95 -144.8 186.1 -145.8 185.3 -147.2 L185.25 -147.25" fill="#010101" fill-opacity="0.0" fill-rule="evenodd" stroke="none"/>
  </g>
</svg>
