<?xml version="1.0" encoding="UTF-8" standalone="no"?>
<svg xmlns:xlink="http://www.w3.org/1999/xlink" height="6.0px" width="19.1px" xmlns="http://www.w3.org/2000/svg">
  <g transform="matrix(1.0, 0.0, 0.0, 1.0, -390.45, -153.35)">
    <path d="M400.0 158.0 Q396.15 157.9 393.35 159.1 L392.3 159.35 393.15 157.4 Q395.8 156.05 400.0 156.45 404.15 156.05 406.8 157.4 L407.65 159.35 406.6 159.1 Q403.8 157.9 400.0 158.0 M394.05 155.9 L392.45 156.5 Q390.9 155.6 390.45 153.95 391.45 153.35 393.1 153.35 396.65 154.95 400.0 154.55 403.3 154.95 406.85 153.35 408.5 153.35 409.55 153.95 409.1 155.6 407.5 156.5 L405.9 155.9 394.05 155.9" fill="#000000" fill-rule="evenodd" stroke="none"/>
  </g>
</svg>
