<?xml version="1.0" encoding="UTF-8" standalone="no"?>
<svg xmlns:xlink="http://www.w3.org/1999/xlink" height="14.9px" width="24.25px" xmlns="http://www.w3.org/2000/svg">
  <g transform="matrix(1.0, 0.0, 0.0, 1.0, -387.85, -152.45)">
    <path d="M397.5 153.05 Q393.5 152.4 391.0 155.8 392.95 157.8 394.65 156.6 395.8 157.8 397.6 157.1 398.55 157.75 400.0 157.4 401.4 157.75 402.4 157.1 404.15 157.8 405.3 156.6 407.0 157.8 408.95 155.8 406.5 152.4 402.45 153.05 L400.0 153.5 397.5 153.05 M408.95 155.8 Q410.0 157.1 410.7 159.05 L411.6 161.9 Q407.45 164.95 403.75 164.3 L396.2 164.3 Q392.5 164.95 388.35 161.9 L389.25 159.05 Q389.95 157.1 391.0 155.8 M389.25 159.05 Q390.7 159.7 391.35 160.85 L395.5 162.3 404.45 162.3 408.65 160.85 Q409.3 159.7 410.7 159.05 M391.4 165.6 Q393.6 167.4 397.85 166.65 L402.15 166.65 Q406.35 167.4 408.55 165.6" fill="none" stroke="#000000" stroke-linecap="round" stroke-linejoin="round" stroke-opacity="0.5019608" stroke-width="1.0"/>
  </g>
</svg>
