<?xml version="1.0" encoding="UTF-8" standalone="no"?>
<svg xmlns:xlink="http://www.w3.org/1999/xlink" height="64.7px" width="54.3px" xmlns="http://www.w3.org/2000/svg">
  <g transform="matrix(1.0, 0.0, 0.0, 1.0, -372.8, -131.5)">
    <path d="M382.5 148.1 L383.9 145.5 385.05 143.8 Q386.7 141.45 388.65 139.4 L389.35 138.4 390.75 136.1 Q390.75 135.55 389.25 135.1 389.7 134.65 391.15 134.4 L393.65 134.3 393.35 133.65 392.95 133.25 Q394.7 132.75 396.95 134.3 L398.0 132.9 Q398.95 131.7 399.9 131.5 400.95 131.7 401.9 132.9 L402.9 134.3 Q405.2 132.75 406.95 133.25 L406.55 133.65 406.25 134.3 408.75 134.4 Q410.2 134.65 410.65 135.1 409.15 135.55 409.15 136.1 409.15 136.5 410.5 138.4 L411.25 139.4 Q413.2 141.45 414.8 143.8 L416.0 145.5 417.4 148.1 418.25 150.15 419.3 153.25 418.4 153.65 417.45 154.35 416.85 153.3 416.65 152.95 416.5 152.7 416.2 152.15 415.8 151.35 414.7 149.55 414.45 149.25 Q413.35 148.15 412.6 147.85 L410.8 147.6 408.25 147.95 Q407.6 148.15 406.2 148.85 403.25 150.15 399.95 150.65 396.6 150.15 393.7 148.85 L391.6 147.95 389.05 147.6 387.3 147.85 Q386.55 148.15 385.45 149.25 L385.2 149.55 Q384.85 149.9 384.1 151.35 L383.4 152.7 383.25 152.95 383.0 153.3 Q382.65 153.8 382.45 154.35 L381.5 153.65 380.65 153.25 381.65 150.15 382.5 148.1 M387.0 166.35 L383.95 170.95 383.65 171.65 Q382.8 173.65 382.8 175.8 382.7 178.05 383.8 180.05 384.5 181.35 385.5 182.45 L385.8 182.8 389.25 185.6 390.05 186.1 390.9 186.6 Q392.85 187.65 394.85 188.45 L398.45 189.55 399.95 189.85 401.45 189.55 Q403.25 189.15 405.05 188.45 L409.0 186.6 409.8 186.1 410.65 185.6 414.05 182.8 416.1 180.05 Q417.15 178.05 417.1 175.8 417.05 173.65 416.25 171.65 L415.95 170.95 412.9 166.35 412.35 165.3 412.4 165.3 Q412.55 165.05 413.35 164.75 L414.65 164.3 415.45 164.0 416.4 163.5 416.5 163.45 416.85 163.05 417.1 162.6 417.15 162.2 416.95 161.05 416.55 160.1 416.5 160.05 416.2 159.45 415.7 158.45 415.55 158.0 416.85 157.4 417.35 159.45 417.65 160.5 417.75 160.75 418.45 162.4 419.55 164.35 420.25 162.9 420.9 161.4 421.6 157.9 Q425.75 165.95 426.3 168.8 L427.1 173.1 426.3 172.2 Q425.9 171.95 425.55 171.8 L425.05 171.65 426.25 175.0 426.4 175.7 Q427.3 178.95 426.4 182.2 L425.95 181.1 425.2 179.95 424.9 181.85 Q424.1 184.6 420.95 187.2 L417.5 189.45 Q415.95 190.15 415.0 190.15 416.0 189.5 415.95 188.95 L415.7 187.95 Q415.2 190.6 408.75 192.95 L404.0 194.35 Q401.85 194.85 399.95 196.2 398.05 194.85 395.85 194.35 L391.15 192.95 Q384.7 190.6 384.2 187.95 L383.95 188.95 Q383.9 189.5 384.85 190.15 383.9 190.15 382.4 189.45 380.6 188.6 378.95 187.2 375.8 184.6 375.0 181.85 L374.7 179.95 Q374.35 180.3 373.9 181.1 L373.5 182.2 Q372.6 178.95 373.5 175.7 L373.65 175.0 374.85 171.65 374.35 171.8 373.6 172.2 372.8 173.1 373.6 168.8 Q374.15 165.95 378.3 157.9 L379.0 161.4 379.6 162.9 380.35 164.35 381.45 162.4 382.2 160.75 382.25 160.5 382.55 159.45 383.05 157.4 384.35 158.0 384.3 158.2 384.2 158.45 383.7 159.45 383.35 160.1 382.95 161.05 382.75 162.2 382.8 162.6 383.05 163.05 383.5 163.5 384.3 163.95 384.45 164.0 385.25 164.3 386.55 164.75 387.5 165.3 387.55 165.3 387.0 166.35" fill="#000000" fill-rule="evenodd" stroke="none"/>
  </g>
</svg>
