<?xml version="1.0" encoding="UTF-8" standalone="no"?>
<svg xmlns:xlink="http://www.w3.org/1999/xlink" height="53.4px" width="63.9px" xmlns="http://www.w3.org/2000/svg">
  <g transform="matrix(1.0, 0.0, 0.0, 1.0, -367.55, -137.15)">
    <path d="M374.1 151.15 Q373.6 155.3 376.4 156.8 374.05 166.85 378.65 172.65 379.1 177.85 381.3 180.7 383.8 188.8 385.8 188.05 M392.7 168.25 L392.8 168.0 M406.2 168.0 L406.3 168.25 M413.2 188.0 Q415.15 188.75 417.7 180.7 419.9 177.8 420.35 172.6 424.95 166.85 422.6 156.75 425.4 155.25 424.9 151.15 M426.1 148.7 L426.7 150.8 Q427.1 152.1 427.95 153.2 428.25 153.75 428.9 153.2 429.8 152.25 430.3 150.95 431.05 149.0 430.9 146.9 430.45 142.8 428.25 143.05 L427.25 143.3 428.05 145.4 M374.1 151.15 L373.25 149.9 372.9 148.7 372.25 150.8 Q371.9 152.15 371.05 153.25 370.75 153.8 370.05 153.25 369.2 152.25 368.7 151.0 367.95 149.0 368.05 146.95 368.55 142.8 370.75 143.05 L370.8 143.05 371.7 143.3 371.7 143.2 372.2 142.2 Q375.95 134.85 383.6 139.45 389.5 136.45 399.45 138.9 409.5 136.45 415.4 139.45 423.05 134.8 426.8 142.15 L427.25 143.2 427.25 143.3 M371.7 143.3 L370.95 145.45 M413.2 188.0 L412.55 189.2 Q410.9 191.15 407.75 188.55 L405.6 186.4 Q403.45 189.0 399.5 188.55 395.55 189.1 393.45 186.4 L391.25 188.55 Q388.1 191.15 386.45 189.2 L385.8 188.05 M393.45 186.4 L392.7 185.15 M426.1 148.7 L425.75 149.85 424.9 151.15 M405.6 186.4 L406.25 185.1" fill="none" stroke="#000000" stroke-linecap="round" stroke-linejoin="round" stroke-width="1.0"/>
    <path d="M372.9 148.7 L373.1 147.85 373.55 146.5 373.7 146.0 374.35 144.55 374.75 143.75 375.2 143.05 375.7 142.4 376.25 141.7 376.75 141.1 377.5 141.05 379.35 141.4 379.7 141.55 380.05 141.7 380.35 141.9 380.65 142.05 380.85 142.25 382.1 143.7 380.05 146.9 379.8 147.15 Q378.1 149.85 377.65 153.25 L376.9 155.9 375.95 154.85 374.1 151.15 M385.8 188.05 L386.3 187.65 Q388.15 186.1 389.5 180.9 L390.3 176.8 390.3 176.55 390.55 175.05 Q391.25 171.15 392.7 168.25 M392.8 168.0 L392.8 166.9 Q392.7 166.2 393.5 166.0 L393.6 166.0 393.65 166.2 Q393.7 166.95 394.25 167.45 L394.35 167.55 394.4 167.55 Q396.35 166.9 399.2 167.0 L399.4 162.3 Q397.95 162.05 397.0 161.1 L397.4 161.65 397.4 162.25 Q395.6 162.05 394.9 160.85 L393.95 159.4 393.9 159.4 393.9 159.2 Q394.05 158.85 395.45 158.1 397.2 157.1 399.5 157.6 401.75 157.1 403.55 158.05 L405.1 159.15 405.1 159.3 405.05 159.3 404.1 160.85 Q403.4 162.0 401.6 162.25 L401.6 161.6 401.95 161.05 Q401.05 162.0 399.6 162.3 L399.75 166.95 404.6 167.55 404.65 167.5 404.7 167.45 Q405.25 166.9 405.35 166.2 L405.4 166.0 405.5 166.0 Q406.3 166.15 406.2 166.9 L406.2 168.0 M406.3 168.25 Q407.75 171.1 408.45 175.05 L408.7 176.5 408.7 176.75 Q408.95 178.85 409.5 180.9 410.85 186.05 412.7 187.6 L413.2 188.0 M424.9 151.15 L423.05 154.8 422.1 155.85 421.35 153.2 Q420.9 149.85 419.2 147.15 L418.95 146.85 416.9 143.65 418.1 142.2 418.35 142.0 418.65 141.85 418.95 141.65 419.3 141.55 419.65 141.4 421.5 141.05 422.25 141.05 422.75 141.65 423.3 142.35 423.8 143.05 424.25 143.75 424.65 144.45 425.3 145.95 425.45 146.45 425.9 147.75 426.1 148.7 M411.85 144.85 L411.1 144.65 Q409.1 144.0 407.05 144.05 404.9 144.15 402.9 144.95 L399.5 146.45 396.1 145.0 Q394.1 144.15 391.95 144.1 389.85 144.05 387.9 144.65 L387.1 144.9 M385.9 147.95 L390.25 147.7 Q392.35 148.2 394.2 149.3 396.0 150.3 397.85 151.0 L399.45 151.55 399.55 151.55 401.15 151.0 404.8 149.25 Q406.65 148.2 408.75 147.65 L413.1 147.95 M395.35 141.6 L396.4 141.8 396.55 141.8 Q397.4 142.0 398.2 142.45 L399.5 143.2 Q400.15 142.75 400.8 142.4 L402.45 141.8 402.6 141.8 403.6 141.55 M381.95 152.3 L382.55 152.0 Q384.05 151.4 385.65 151.5 388.4 151.7 390.25 153.6 391.8 155.2 393.85 155.8 L395.6 155.95 Q396.45 155.9 397.1 155.35 L398.1 153.95 M417.05 152.25 L416.45 151.95 413.35 151.45 Q410.6 151.7 408.75 153.6 407.2 155.15 405.15 155.75 L403.4 155.95 Q402.5 155.85 401.9 155.3 401.25 154.8 400.85 153.9 M389.4 154.55 Q390.0 155.05 390.0 155.7 390.0 156.4 389.4 156.9 L388.75 157.25 388.05 157.35 387.8 157.35 388.0 157.4 388.75 157.6 388.9 157.55 391.6 156.35 390.55 154.8 Q389.5 154.2 388.45 154.05 L388.05 154.0 385.8 154.15 384.55 154.5 384.3 154.55 383.8 154.75 384.3 155.3 384.55 155.55 386.35 156.8 386.8 157.0 386.7 156.9 386.45 156.7 Q386.1 156.25 386.1 155.7 386.1 155.05 386.7 154.55 387.25 154.05 388.05 154.05 L388.45 154.1 Q389.0 154.2 389.4 154.55 M386.8 157.0 L387.8 157.35 M395.2 156.65 L392.05 158.05 391.8 158.2 391.65 158.35 391.6 158.35 391.6 158.4 Q389.7 159.5 388.45 161.25 387.25 162.9 386.5 164.75 L385.75 166.45 384.15 171.7 382.85 174.3 M406.3 168.25 L406.15 168.2 404.55 167.9 403.15 167.7 399.75 167.35 399.5 167.35 399.2 167.4 395.85 167.7 394.45 167.95 392.85 168.25 392.7 168.25 M392.8 168.0 Q393.4 167.4 394.25 167.45 M414.7 154.55 L415.15 154.75 414.7 155.25 414.45 155.45 412.65 156.75 412.2 156.95 411.2 157.35 411.0 157.4 410.2 157.55 407.4 156.35 408.45 154.75 Q409.5 154.2 410.55 154.0 L410.95 153.95 413.2 154.1 414.45 154.45 414.7 154.55 M412.2 156.95 L412.3 156.85 412.55 156.65 412.9 155.7 Q412.9 155.05 412.3 154.55 411.75 154.05 410.95 154.05 L410.55 154.1 Q410.0 154.15 409.6 154.55 409.0 155.05 409.0 155.7 409.0 156.35 409.6 156.85 L410.2 157.25 410.95 157.35 411.2 157.35 M416.15 174.25 L414.85 171.7 413.25 166.4 412.5 164.7 Q411.75 162.85 410.55 161.25 409.3 159.45 407.4 158.35 L407.35 158.3 407.2 158.15 406.9 158.05 403.8 156.55 M404.7 167.45 Q405.6 167.4 406.2 168.0" fill="none" stroke="#000000" stroke-linecap="round" stroke-linejoin="round" stroke-opacity="0.5019608" stroke-width="1.0"/>
  </g>
</svg>
