<?xml version="1.0" encoding="UTF-8" standalone="no"?>
<svg xmlns:xlink="http://www.w3.org/1999/xlink" height="53.45px" width="37.9px" xmlns="http://www.w3.org/2000/svg">
  <g transform="matrix(1.0, 0.0, 0.0, 1.0, -380.9, -132.3)">
    <path d="M399.85 132.3 Q410.6 132.25 416.8 139.5 L417.0 139.75 418.8 172.85 Q415.95 179.5 410.35 185.75 L389.35 185.75 Q383.75 179.5 380.9 172.85 L382.7 139.75 382.9 139.5 Q389.1 132.25 399.85 132.3 M394.9 160.5 Q396.5 159.2 396.5 157.35 396.5 155.5 394.7 154.8 L390.85 153.45 Q388.8 152.8 387.2 154.05 385.6 155.3 385.6 157.25 385.6 159.2 387.2 160.5 388.8 161.8 391.05 161.8 393.3 161.8 394.9 160.5 M404.8 160.5 Q406.4 161.8 408.65 161.8 410.9 161.8 412.5 160.5 414.1 159.2 414.1 157.25 414.1 155.3 412.5 154.05 410.9 152.8 408.85 153.45 L405.0 154.8 Q403.2 155.5 403.2 157.35 403.2 159.2 404.8 160.5 M399.85 161.3 L396.85 165.7 Q396.7 169.05 399.85 167.2 403.0 169.05 402.85 165.7 L399.85 161.3" fill="#000000" fill-rule="evenodd" stroke="none"/>
  </g>
</svg>
