<?xml version="1.0" encoding="UTF-8" standalone="no"?>
<svg xmlns:xlink="http://www.w3.org/1999/xlink" height="146.35px" width="128.95px" xmlns="http://www.w3.org/2000/svg">
  <g transform="matrix(1.0, 0.0, 0.0, 1.0, -335.9, -128.7)">
    <path d="M405.15 255.45 L404.75 255.45 403.1 260.35 403.1 260.4 401.05 264.6 400.8 265.05 398.35 268.9 398.3 268.95 398.1 269.2 Q396.65 271.2 394.7 272.65 L394.55 272.75 Q392.95 273.85 391.05 274.3 L389.2 274.4 388.6 274.25 Q386.5 273.7 385.85 272.55 385.2 271.45 384.7 270.1 L384.45 269.35 383.5 265.95 383.4 265.6 383.4 265.55 383.35 265.3 Q383.2 264.6 383.2 263.9 L382.8 263.95 382.05 263.7 Q381.35 263.25 381.45 262.4 381.55 261.15 382.5 260.2 L383.0 259.7 384.35 258.2 384.8 258.3 Q385.15 258.35 385.5 258.65 L385.55 258.65 385.85 258.95 386.15 259.2 386.55 259.6 386.6 259.65 386.85 259.8 386.95 259.9 387.3 260.1 387.4 260.25 387.45 260.5 387.45 262.35 387.1 263.25 386.6 263.3 386.15 263.15 385.7 263.7 385.75 264.2 386.45 265.6 387.0 266.3 388.35 267.85 388.4 267.8 390.1 266.35 390.25 266.15 391.4 264.6 391.75 263.9 391.8 263.9 393.15 260.85 Q394.0 258.65 394.45 256.3 L394.85 252.35 394.9 251.0 394.75 248.15 394.6 246.55 394.35 244.7 394.2 243.55 394.0 242.35 393.55 239.5 393.4 238.8 392.5 233.85 391.65 229.55 391.05 226.0 390.45 222.75 390.25 221.55 389.75 218.15 389.75 218.1 389.75 217.85 389.65 216.95 388.95 211.65 388.75 210.55 388.65 210.15 388.15 206.55 388.05 205.9 388.05 205.85 388.0 205.85 387.85 205.55 387.85 205.5 387.7 203.85 387.3 198.6 386.9 193.75 386.75 194.45 Q386.4 196.15 385.45 196.95 L385.3 197.05 385.25 196.9 385.2 196.75 385.15 196.7 385.1 196.6 385.05 196.75 385.05 196.85 385.0 197.0 384.75 197.9 384.2 199.75 383.3 202.85 382.45 205.5 381.95 207.15 380.75 210.75 380.55 211.35 380.45 211.6 380.0 212.7 379.4 214.05 378.05 216.65 376.5 219.0 374.75 221.25 374.2 221.9 372.7 223.4 370.55 225.1 370.35 225.25 367.75 226.85 365.4 228.05 362.55 229.25 361.05 229.8 362.5 228.6 363.95 227.35 366.7 224.8 368.25 223.25 368.65 222.75 370.3 220.5 371.65 218.15 372.8 215.85 373.75 213.65 374.65 211.2 375.45 208.6 375.85 207.25 378.55 192.55 378.55 192.5 378.4 192.5 378.15 192.55 378.15 191.3 377.75 191.1 Q373.35 189.1 366.9 188.1 L366.65 188.05 364.3 187.7 360.55 182.65 355.6 179.4 354.05 176.7 Q350.65 173.05 346.3 170.95 L343.6 170.25 Q341.95 167.95 339.35 166.1 L336.4 164.3 Q337.45 158.05 339.0 153.7 L339.35 152.75 340.85 149.35 342.1 147.2 343.9 144.9 345.85 142.7 Q346.9 141.65 348.05 140.8 L349.15 140.0 350.5 139.1 353.55 137.25 355.55 136.0 355.85 135.75 357.0 134.75 Q359.0 133.0 361.1 131.9 L361.55 131.7 361.65 131.65 361.9 131.55 364.1 130.45 364.9 130.1 Q371.5 127.7 377.0 131.85 L379.95 133.4 Q388.05 128.35 400.2 131.5 412.75 128.35 420.8 133.45 L423.8 131.85 Q427.8 128.85 432.4 129.35 L435.9 130.15 436.75 130.5 438.9 131.55 439.3 131.7 439.3 131.75 439.75 131.95 439.85 132.0 Q441.8 133.05 443.75 134.8 L444.95 135.8 445.25 136.05 447.25 137.25 450.3 139.1 451.6 140.0 452.75 140.8 454.95 142.7 456.9 144.9 458.7 147.25 459.95 149.4 461.8 153.75 Q463.25 157.9 464.3 163.8 L464.35 164.3 464.3 164.35 Q459.7 166.85 457.15 170.25 L454.45 171.0 Q450.1 173.05 446.75 176.75 L445.2 179.45 440.25 182.7 436.45 187.7 434.15 188.05 433.9 188.1 Q427.4 189.1 423.05 191.1 L422.6 191.3 422.6 192.6 422.35 192.5 422.25 192.5 422.25 192.55 424.95 207.25 425.35 208.65 426.15 211.25 427.05 213.65 428.0 215.9 429.1 218.15 430.5 220.5 432.1 222.75 432.55 223.25 434.1 224.85 436.85 227.4 438.25 228.65 439.7 229.85 438.25 229.3 435.4 228.05 433.05 226.85 Q431.7 226.15 430.45 225.25 L428.1 223.4 426.9 222.2 426.0 221.25 424.25 219.0 422.7 216.65 421.35 214.1 420.8 212.75 420.35 211.65 420.25 211.35 418.85 207.15 417.5 202.9 416.55 199.8 415.8 197.0 415.7 196.6 415.5 197.1 415.4 197.0 415.35 196.95 415.3 196.95 Q414.25 196.0 413.9 193.75 L413.5 198.6 413.05 204.2 413.05 204.35 413.0 204.45 412.95 205.0 412.85 205.5 412.75 205.85 412.35 208.2 411.75 212.0 411.7 212.25 411.45 213.5 410.65 217.85 410.4 219.3 409.8 223.25 409.3 226.9 409.2 227.95 408.85 231.05 408.2 236.0 408.1 236.6 407.55 240.35 407.55 240.4 407.55 240.6 407.55 240.65 406.9 244.5 406.85 244.85 406.85 244.9 406.8 245.15 406.5 246.55 405.95 249.5 405.25 253.0 404.75 255.45 M406.85 244.9 L406.5 246.55 M388.0 205.85 L388.0 205.5 387.7 203.85 M386.6 259.65 L386.7 259.75 386.85 259.8 M386.55 259.6 L384.8 258.3 M386.15 263.15 L385.35 262.95 M386.95 259.9 L387.4 260.25 M388.0 268.05 L388.35 267.85 M386.7 259.75 L386.95 259.9" fill="none" stroke="#000000" stroke-linecap="round" stroke-linejoin="round" stroke-width="1.0"/>
    <path d="M404.75 255.45 Q401.35 255.35 398.5 253.8 L398.35 253.7 398.3 253.65 396.55 252.4 M339.0 153.7 L339.35 153.25 Q340.55 151.55 342.1 150.05 L344.4 148.1 344.8 147.7 345.3 147.25 345.7 146.95 346.25 146.45 346.75 146.0 348.6 144.3 349.65 143.4 350.5 142.7 352.65 141.35 354.95 140.15 355.2 140.0 357.1 139.1 Q358.25 138.5 359.45 138.05 361.9 137.15 364.85 136.65 367.65 137.25 370.3 138.15 372.2 138.8 373.75 140.0 L374.7 140.8 Q377.35 143.25 379.1 146.5 L380.4 149.2 381.1 151.0 381.55 149.2 381.55 148.95 381.7 145.65 381.9 142.3 382.05 140.45 382.2 140.0 Q382.4 139.3 382.95 138.85 L383.35 138.5 M387.65 145.45 L388.8 144.6 389.75 144.55 390.0 144.55 Q392.95 145.55 396.05 145.6 L400.2 145.8 404.75 145.6 Q407.85 145.55 410.8 144.6 L411.05 144.55 412.0 144.65 413.15 145.45 M408.8 156.3 Q407.0 155.05 404.7 155.1 L400.55 155.05 397.7 155.05 396.1 155.05 Q393.8 155.05 392.0 156.3 M408.2 151.55 L407.4 151.2 Q405.4 150.4 400.35 150.4 L400.15 150.4 399.75 150.4 Q395.35 150.35 393.4 151.15 L392.6 151.5 M391.45 160.7 Q391.75 160.5 392.1 160.35 394.75 159.05 400.55 158.6 406.0 159.05 408.7 160.35 L409.35 160.7 M387.2 156.55 Q388.85 158.55 388.8 160.7 388.75 161.8 388.3 162.95 L388.2 163.05 388.0 163.15 387.75 163.1 386.95 162.6 386.85 162.5 386.8 162.4 386.75 162.55 386.7 162.85 386.45 163.35 386.25 163.5 385.1 163.55 Q382.5 162.65 380.85 160.45 L380.75 160.25 380.75 160.2 380.7 160.2 Q380.35 160.2 379.8 160.8 L379.4 161.15 378.75 161.75 378.15 162.3 378.55 163.7 Q377.35 171.1 380.9 176.3 L381.0 176.45 381.0 179.05 380.45 180.55 Q378.8 185.15 378.15 190.05 L378.15 191.3 M410.05 165.4 Q407.65 163.8 404.8 164.15 L400.45 164.25 396.0 164.15 Q393.15 163.8 390.7 165.4 M409.1 171.15 Q406.1 169.55 400.75 169.55 L400.55 169.55 Q394.7 169.5 391.7 171.15 M381.1 151.0 L379.9 153.2 378.8 154.75 377.6 156.35 Q377.15 156.9 377.2 158.0 377.2 159.05 377.5 160.1 L378.15 162.3 M386.8 162.4 L383.6 158.95 383.2 159.0 Q381.85 159.3 380.75 160.25 M378.55 192.5 Q379.45 192.3 380.45 192.5 L380.7 192.55 Q382.15 192.9 383.2 193.95 L384.35 195.35 384.95 196.3 385.1 196.6 M391.15 184.0 Q391.3 182.7 393.4 182.05 L400.45 181.25 407.4 182.05 Q409.5 182.7 409.6 184.05 M391.45 178.0 L391.75 177.45 Q392.3 176.7 393.65 176.6 L400.5 176.4 407.1 176.6 Q408.5 176.7 409.1 177.45 L409.35 178.0 M409.0 189.35 Q408.4 188.55 406.1 187.85 404.2 187.25 400.4 186.95 L394.7 187.85 Q392.4 188.5 391.8 189.3 M408.8 193.4 Q408.7 193.0 407.6 192.5 L407.55 192.45 406.1 191.95 400.4 191.4 394.7 191.95 393.25 192.45 393.15 192.45 Q392.1 193.0 392.0 193.35 M408.55 197.7 Q407.85 196.8 406.2 196.5 L400.1 195.75 394.55 196.45 Q392.95 196.75 392.25 197.7 M386.9 193.75 L386.4 187.8 386.9 179.15 M461.8 153.75 Q460.45 151.8 458.7 150.1 L456.4 148.1 455.95 147.75 455.45 147.3 454.55 146.5 454.0 146.05 452.2 144.3 450.25 142.75 Q449.25 142.0 448.15 141.35 L445.85 140.15 445.55 140.0 443.7 139.1 441.35 138.05 Q438.9 137.2 435.95 136.65 433.15 137.25 430.45 138.15 428.6 138.85 427.05 140.0 L426.1 140.8 Q423.45 143.3 421.7 146.5 L420.4 149.2 419.7 151.0 420.85 153.2 421.95 154.75 423.2 156.4 Q423.6 156.9 423.6 158.0 L423.3 160.1 422.65 162.35 422.25 163.75 Q423.4 171.1 419.9 176.35 L419.8 176.45 419.8 179.1 420.35 180.55 Q421.95 185.2 422.6 190.05 L422.6 191.3 M419.7 151.0 L419.25 149.2 419.2 148.95 419.05 145.65 418.9 142.3 418.75 140.5 418.6 140.0 Q418.4 139.35 417.85 138.85 L417.45 138.55 M417.2 158.95 L414.0 162.4 Q414.2 164.05 415.65 163.55 418.4 162.65 420.05 160.3 L420.05 160.25 420.0 160.25 Q418.9 159.3 417.6 159.0 L417.2 158.95 M422.65 162.35 L421.4 161.2 421.0 160.8 Q420.4 160.15 420.0 160.2 L420.05 160.25 M414.0 162.4 L413.65 162.75 413.65 162.8 413.3 163.0 413.05 163.1 412.8 163.15 412.55 163.1 412.5 162.95 Q412.05 161.8 412.0 160.7 411.9 158.55 413.6 156.6 M413.9 193.75 L414.4 187.8 413.85 179.15 M422.25 192.5 Q421.3 192.35 420.35 192.5 L420.1 192.6 Q418.65 192.9 417.55 193.95 L416.45 195.3 416.4 195.35 415.85 196.3 415.7 196.6 M391.5 201.9 Q400.65 197.9 407.6 201.45 L409.05 202.15 M393.1 217.75 L396.7 216.6 Q401.8 215.3 406.25 218.05 L406.8 218.45 M394.7 228.95 Q401.55 231.85 405.3 231.1 L406.7 230.75 M395.45 239.15 Q402.1 241.9 405.85 240.4 L406.4 240.2 M395.65 243.35 Q401.9 246.7 405.45 244.65 L405.95 244.35 M405.35 249.4 L405.15 249.7 Q399.6 251.15 396.75 248.0 M392.15 211.1 Q398.75 209.5 402.6 210.2 405.55 210.85 407.95 212.85 M394.35 225.4 L395.55 225.7 Q400.8 226.95 406.0 226.5 M402.5 260.1 Q399.95 259.95 398.6 258.65 L396.25 256.55 M385.0 259.45 L385.0 260.1 385.0 260.45 385.15 260.8 386.05 261.15 386.05 260.35 385.25 260.1 M388.6 274.25 Q387.75 271.8 388.4 269.5 L388.5 268.9 M384.7 270.1 L384.8 269.4 Q385.15 267.6 386.45 266.75 M394.2 272.2 Q392.9 272.2 392.0 270.65 391.1 269.1 391.15 266.85 M397.3 268.2 Q395.55 268.2 394.3 267.15 393.0 266.05 393.05 264.6 M400.15 264.7 Q397.9 264.25 395.65 261.8 M383.3 260.0 L382.9 261.3 383.35 261.8 Q383.75 262.3 384.3 262.05 L384.35 261.45 383.35 260.8 M384.8 264.6 Q384.0 264.95 383.65 265.55 L383.6 265.7 383.5 265.95 M383.2 263.9 L384.65 263.25 M406.6 235.75 Q400.45 237.05 394.35 233.5 M410.35 207.85 Q401.35 202.55 391.35 206.05 M393.85 222.15 L406.45 222.8" fill="none" stroke="#000000" stroke-linecap="round" stroke-linejoin="round" stroke-opacity="0.5019608" stroke-width="1.0"/>
  </g>
</svg>
