<?xml version="1.0" encoding="UTF-8" standalone="no"?>
<svg xmlns:xlink="http://www.w3.org/1999/xlink" height="128.15px" width="110.3px" xmlns="http://www.w3.org/2000/svg">
  <g transform="matrix(1.0, 0.0, 0.0, 1.0, 55.65, 146.85)">
    <path d="M29.4 -104.4 L30.55 -103.5 29.85 -102.65 29.4 -104.4" fill="#666699" fill-rule="evenodd" stroke="none"/>
    <path d="M22.3 -145.35 L19.35 -144.4 Q18.0 -141.95 16.55 -141.7 L16.6 -139.95 13.6 -139.85 10.7 -140.05 9.85 -140.25 Q8.9 -140.55 8.1 -141.4 6.7 -142.9 6.0 -146.1 L6.0 -146.15 6.2 -146.15 6.45 -146.25 9.15 -146.8 9.15 -146.55 9.15 -146.05 Q9.15 -145.6 9.3 -145.25 L10.8 -144.2 Q11.6 -143.75 12.45 -143.85 14.85 -144.3 15.05 -146.6 L16.5 -145.8 Q18.1 -144.65 19.35 -144.65 20.05 -144.65 20.65 -145.0 L21.75 -145.85 22.0 -146.2 22.3 -145.35 M30.35 -119.25 L32.05 -116.75 34.2 -113.0 Q36.8 -108.25 37.9 -106.85 39.9 -104.15 42.0 -104.15 44.9 -104.15 45.9 -105.85 46.45 -106.7 46.5 -107.8 L46.45 -109.7 Q45.9 -113.05 46.6 -114.95 46.95 -115.9 47.8 -116.75 49.85 -118.75 54.65 -119.8 L51.9 -118.35 49.9 -117.3 49.35 -116.75 Q48.35 -115.4 48.4 -112.7 L48.7 -108.2 48.7 -107.8 Q48.7 -104.55 47.85 -103.15 46.4 -100.7 41.75 -100.7 37.35 -100.7 34.5 -102.6 L33.45 -103.45 Q31.9 -104.85 30.45 -107.15 L29.85 -108.1 29.85 -108.15 27.15 -112.4 25.0 -114.7 26.35 -112.25 26.35 -112.2 28.5 -107.3 29.4 -104.4 29.85 -102.65 30.05 -101.65 30.4 -99.9 30.8 -94.75 Q30.9 -91.4 30.35 -87.95 L29.6 -83.3 27.75 -74.5 Q26.05 -67.6 30.1 -65.85 L37.0 -65.65 41.85 -66.6 Q38.3 -61.65 31.05 -63.4 L29.45 -63.9 29.4 -63.9 29.25 -63.95 Q21.5 -66.8 23.65 -75.2 L23.95 -76.25 24.55 -78.0 Q28.55 -88.05 24.95 -96.85 L23.45 -99.9 22.8 -101.0 Q21.4 -103.2 19.4 -105.3 18.45 -110.4 18.6 -115.55 18.85 -114.4 19.95 -113.25 L20.35 -112.9 20.8 -112.55 Q22.6 -111.05 25.0 -111.7 22.95 -112.65 21.95 -114.55 L21.6 -115.65 21.6 -116.35 21.65 -116.4 21.65 -116.45 21.7 -116.75 21.85 -117.25 23.0 -119.6 23.8 -121.9 24.1 -124.3 Q27.25 -123.2 29.95 -119.8 L30.35 -119.25 M-10.2 -58.4 L-9.9 -60.05 Q-9.6 -61.8 -9.45 -63.55 -9.3 -65.65 -9.5 -67.75 L-10.45 -72.0 Q-9.95 -75.95 -9.8 -79.9 -9.6 -85.15 -9.75 -90.4 L-10.7 -102.75 -10.55 -103.7 -10.4 -104.9 -10.05 -107.55 Q-9.85 -109.55 -9.9 -111.65 -10.0 -113.8 -10.25 -115.95 L-10.4 -116.75 -10.65 -118.05 -11.05 -120.75 -11.05 -120.85 -11.1 -121.0 Q-11.25 -124.6 -9.35 -126.6 L-9.25 -126.7 -7.15 -128.15 -6.85 -128.15 -5.45 -127.8 -3.9 -127.75 -3.65 -127.75 Q-0.55 -127.2 2.9 -127.75 L4.45 -127.8 5.9 -128.15 6.2 -128.15 Q7.45 -127.55 8.3 -126.65 L8.4 -126.6 Q10.25 -124.55 10.1 -121.0 L10.1 -120.8 10.05 -120.7 9.65 -118.05 9.45 -116.75 9.3 -115.9 Q9.0 -113.8 8.95 -111.6 L9.05 -107.5 9.4 -104.85 9.5 -104.15 9.75 -102.75 8.8 -90.35 Q8.65 -85.15 8.85 -79.9 9.0 -75.95 9.45 -72.0 8.7 -69.9 8.5 -67.7 8.3 -65.65 8.45 -63.5 8.6 -61.8 8.9 -60.05 L9.25 -58.4 Q8.75 -56.4 7.4 -53.95 L6.25 -51.55 5.6 -49.25 4.65 -44.75 Q4.45 -44.1 4.6 -43.35 L4.85 -41.85 5.55 -36.55 Q5.75 -34.85 5.2 -33.2 L4.85 -32.3 4.8 -32.1 3.9 -30.0 Q3.3 -28.8 3.0 -27.5 2.8 -26.75 3.0 -25.95 3.35 -24.45 4.15 -23.15 5.6 -20.9 7.35 -18.75 L7.4 -18.7 3.6 -21.6 Q2.25 -22.75 1.3 -24.25 0.45 -25.5 0.5 -26.9 L0.5 -27.7 0.5 -27.8 Q0.65 -30.15 1.35 -32.45 L1.65 -33.4 2.1 -34.65 2.45 -36.45 2.05 -38.7 0.95 -42.15 Q0.3 -44.35 0.25 -47.1 0.15 -49.9 0.7 -52.05 L2.05 -58.85 Q2.85 -63.45 2.9 -66.4 L2.75 -76.3 Q2.55 -79.65 2.5 -83.05 2.4 -87.4 2.7 -91.7 L3.95 -106.65 Q4.1 -111.55 -0.1 -115.1 -4.95 -112.1 -4.9 -106.7 L-3.7 -91.75 Q-3.4 -87.4 -3.45 -83.05 -3.5 -79.7 -3.7 -76.3 L-3.9 -66.4 Q-3.85 -63.5 -3.0 -58.85 L-1.65 -52.1 Q-1.15 -49.95 -1.2 -47.15 -1.3 -44.35 -1.9 -42.2 L-3.0 -38.7 Q-3.4 -37.6 -3.45 -36.5 L-3.1 -34.65 -2.65 -33.4 -2.35 -32.5 Q-1.65 -30.2 -1.45 -27.85 L-1.45 -27.75 -1.45 -26.9 Q-1.45 -25.55 -2.25 -24.3 -3.25 -22.75 -4.6 -21.6 L-8.4 -18.7 -8.35 -18.8 Q-6.6 -20.9 -5.15 -23.15 -4.35 -24.45 -3.95 -25.95 -3.8 -26.75 -3.95 -27.55 L-4.85 -30.05 -5.75 -32.15 -5.85 -32.3 -6.15 -33.25 Q-6.7 -34.85 -6.55 -36.55 L-5.85 -41.85 -5.55 -43.4 -5.6 -44.75 -6.6 -49.3 -7.25 -51.55 -8.4 -54.0 Q-9.75 -56.4 -10.2 -58.4 M-30.4 -104.4 L-29.45 -107.3 -27.3 -112.2 -27.3 -112.25 -27.25 -112.4 -25.95 -114.7 -28.15 -112.4 -30.8 -108.15 -31.4 -107.2 Q-32.9 -104.85 -34.4 -103.45 L-35.45 -102.65 Q-38.35 -100.7 -42.7 -100.7 -47.4 -100.7 -48.85 -103.2 -49.75 -104.65 -49.7 -108.25 L-49.4 -112.7 Q-49.35 -115.45 -50.3 -116.75 L-50.9 -117.3 -52.85 -118.4 Q-54.6 -119.25 -55.65 -119.85 -50.8 -118.75 -48.75 -116.75 -47.95 -115.95 -47.55 -114.95 -46.9 -113.1 -47.4 -109.7 L-47.45 -107.85 Q-47.45 -106.75 -46.9 -105.9 -45.9 -104.2 -42.95 -104.2 -40.9 -104.2 -38.85 -106.9 -37.8 -108.3 -35.2 -113.05 L-33.0 -116.75 -31.35 -119.3 -30.95 -119.8 Q-28.2 -123.25 -25.05 -124.3 L-24.8 -121.95 Q-24.55 -120.65 -23.95 -119.6 L-22.85 -117.3 -22.65 -116.75 -22.6 -116.5 -22.6 -116.35 -22.6 -116.1 Q-22.55 -115.35 -22.95 -114.6 -23.3 -113.85 -23.8 -113.3 L-25.85 -111.5 Q-23.55 -111.05 -21.75 -112.55 L-21.35 -112.95 -20.95 -113.3 Q-20.25 -114.0 -19.9 -114.75 L-19.75 -115.05 -19.6 -115.6 -19.6 -115.55 -19.6 -115.05 Q-19.45 -110.2 -20.35 -105.3 -22.35 -103.2 -23.75 -101.0 L-24.4 -99.9 -25.95 -96.9 Q-28.65 -90.3 -27.05 -83.0 -26.55 -80.55 -25.55 -78.05 L-25.45 -77.85 -24.6 -75.2 Q-22.5 -66.8 -30.25 -63.95 L-30.35 -63.9 -30.4 -63.9 -32.0 -63.45 Q-39.3 -61.65 -42.85 -66.6 L-37.95 -65.65 -31.05 -65.9 Q-27.05 -67.6 -28.7 -74.55 L-30.35 -82.35 -30.4 -82.35 -30.45 -82.85 -30.45 -83.0 -30.5 -83.0 -31.35 -88.0 Q-31.85 -91.45 -31.8 -94.8 L-31.35 -99.9 -31.05 -101.7 -30.85 -102.7 -30.4 -104.4 M-7.0 -146.15 L-7.05 -146.0 Q-7.7 -142.9 -9.1 -141.4 L-9.3 -141.2 -9.65 -140.85 -9.75 -140.85 Q-10.25 -140.45 -10.85 -140.25 L-11.65 -140.05 -14.55 -139.9 -17.65 -139.95 -17.5 -141.75 Q-19.0 -141.95 -20.35 -144.45 L-20.35 -144.65 Q-19.05 -144.65 -17.5 -145.8 L-16.05 -146.65 Q-15.85 -144.3 -13.4 -143.9 L-11.8 -144.2 Q-10.95 -144.65 -10.3 -145.25 L-10.15 -146.05 -10.15 -146.6 -10.15 -146.85 -10.1 -146.85 -7.4 -146.25 -7.15 -146.2 -7.0 -146.15" fill="#000000" fill-opacity="0.2509804" fill-rule="evenodd" stroke="none"/>
    <path d="M24.1 -124.3 L24.1 -126.35 23.9 -127.55 24.4 -127.55 27.25 -126.05 Q29.5 -125.0 31.55 -124.85 L33.8 -125.15 34.95 -125.8 35.2 -126.5 Q36.4 -129.55 35.3 -132.6 L35.7 -132.15 36.2 -131.55 Q38.25 -129.05 38.05 -125.8 37.65 -123.1 35.3 -121.25 33.1 -119.5 30.35 -119.25 L29.95 -119.8 Q27.25 -123.2 24.1 -124.3 M30.55 -103.5 L31.2 -103.0 32.25 -102.1 36.2 -98.15 Q40.35 -93.4 40.4 -89.8 40.4 -87.7 39.0 -85.45 L38.45 -84.5 38.0 -83.0 Q37.1 -79.7 39.95 -78.3 43.3 -76.65 46.9 -77.85 L46.3 -77.35 Q42.3 -73.8 37.1 -75.35 35.8 -75.75 35.0 -76.5 32.9 -78.25 32.85 -82.25 L32.9 -82.7 33.7 -85.85 34.55 -89.25 Q34.5 -92.7 31.1 -94.75 L30.8 -94.75 30.4 -99.9 30.05 -101.65 29.85 -102.65 30.55 -103.5 M24.95 -96.85 L21.5 -98.7 20.95 -100.45 Q19.6 -104.3 19.4 -105.3 21.4 -103.2 22.8 -101.0 L23.45 -99.9 24.95 -96.85 M-10.2 -58.4 Q-9.75 -56.4 -8.4 -54.0 L-7.25 -51.55 -7.8 -50.6 -8.25 -49.25 -8.5 -47.3 Q-8.55 -44.65 -5.85 -41.85 L-6.55 -36.55 Q-6.7 -34.85 -6.15 -33.25 L-5.85 -32.3 -5.85 -32.1 -6.4 -30.85 -7.3 -29.45 Q-8.0 -28.8 -9.05 -28.2 L-9.05 -30.35 Q-9.4 -34.7 -11.1 -38.75 -12.75 -42.85 -13.15 -45.3 -13.6 -47.75 -12.0 -52.2 -10.45 -56.7 -10.2 -58.4 M4.85 -32.3 L5.2 -33.2 Q5.75 -34.85 5.55 -36.55 L4.85 -41.85 Q7.55 -44.65 7.55 -47.25 L7.3 -49.25 6.85 -50.6 6.25 -51.55 7.4 -53.95 Q8.75 -56.4 9.25 -58.4 9.5 -56.7 11.05 -52.2 12.6 -47.75 12.2 -45.25 11.75 -42.8 10.1 -38.75 8.45 -34.7 8.1 -30.35 L8.05 -28.2 Q7.0 -28.8 6.3 -29.45 L5.45 -30.8 4.85 -32.1 4.85 -32.3 M13.5 -30.15 L13.75 -30.05 Q15.4 -27.2 17.55 -25.85 18.25 -25.4 19.05 -25.1 L18.9 -25.05 17.2 -25.05 14.8 -25.65 13.05 -26.55 13.0 -26.55 Q13.1 -28.4 13.5 -30.15 M-31.35 -119.3 Q-34.1 -119.5 -36.3 -121.25 -38.65 -123.1 -39.0 -125.8 -39.25 -129.1 -37.2 -131.55 L-36.65 -132.15 -36.25 -132.6 Q-37.4 -129.55 -36.2 -126.55 L-35.9 -125.8 Q-34.5 -124.75 -32.5 -124.85 -30.5 -125.0 -28.25 -126.1 L-25.4 -127.6 -24.85 -127.6 -25.05 -126.4 -25.05 -124.3 Q-28.2 -123.25 -30.95 -119.8 L-31.35 -119.3 M-20.35 -105.3 Q-20.55 -104.3 -21.95 -100.45 L-22.5 -98.7 Q-24.05 -98.15 -25.95 -96.9 L-24.4 -99.9 -23.75 -101.0 Q-22.35 -103.2 -20.35 -105.3 M-31.8 -94.8 L-32.1 -94.8 Q-35.5 -92.7 -35.55 -89.3 L-34.7 -85.9 -33.85 -82.45 -33.85 -82.25 Q-33.9 -78.3 -35.95 -76.5 -36.8 -75.8 -38.1 -75.35 -43.3 -73.8 -47.25 -77.4 L-47.85 -77.85 Q-44.3 -76.7 -40.95 -78.35 -38.1 -79.75 -39.0 -83.05 L-39.45 -84.55 -40.0 -85.5 Q-41.4 -87.7 -41.4 -89.85 -41.35 -93.4 -37.2 -98.15 L-33.2 -102.15 -32.2 -103.0 -30.4 -104.4 -30.85 -102.7 -31.05 -101.7 -31.35 -99.9 -31.8 -94.8 M-20.0 -25.15 L-18.55 -25.85 Q-16.4 -27.2 -14.7 -30.1 L-14.5 -30.15 Q-14.05 -28.45 -14.0 -26.6 L-14.05 -26.55 Q-15.3 -25.85 -15.8 -25.65 L-18.15 -25.1 -19.9 -25.1 -20.0 -25.15" fill="#000000" fill-opacity="0.49803922" fill-rule="evenodd" stroke="none"/>
  </g>
</svg>
