<?xml version="1.0" encoding="UTF-8" standalone="no"?>
<svg xmlns:xlink="http://www.w3.org/1999/xlink" height="125.65px" width="71.7px" xmlns="http://www.w3.org/2000/svg">
  <g transform="matrix(1.0, 0.0, 0.0, 1.0, -364.0, -102.75)">
    <path d="M423.2 163.8 L422.9 163.8 423.2 164.05 423.2 163.8 M405.75 160.2 L405.1 160.6 Q405.7 161.8 406.65 162.1 L407.35 162.2 408.35 162.05 Q411.1 161.25 411.4 159.45 411.65 158.0 410.4 155.95 L410.35 155.75 410.25 155.8 410.25 155.85 410.1 156.05 409.6 156.75 Q408.1 158.7 406.1 160.0 L405.75 160.2 M404.55 186.95 L403.3 187.1 399.95 186.7 396.5 187.1 395.25 186.95 395.2 187.4 395.7 188.4 395.75 188.45 397.05 189.7 397.35 189.9 Q398.35 190.45 399.5 190.65 L399.75 190.7 400.3 190.6 402.45 189.85 402.75 189.7 404.05 188.4 404.1 188.4 404.6 187.35 404.55 186.95 M402.65 178.3 L401.7 178.15 399.85 178.6 398.05 178.2 397.15 178.35 396.45 178.65 396.3 178.75 Q395.9 179.05 395.85 180.1 L395.95 181.15 396.35 182.35 Q396.8 182.3 397.1 181.35 L397.15 181.4 Q397.0 182.15 398.05 183.7 399.0 185.0 399.85 185.35 400.75 185.05 401.75 183.65 402.8 182.15 402.65 181.35 L402.7 181.35 Q403.0 182.25 403.45 182.35 L403.85 181.1 403.95 180.05 Q403.85 179.0 403.5 178.7 L403.35 178.6 402.65 178.3 M376.9 163.85 L376.6 163.85 376.6 164.1 376.9 163.85 M389.35 155.65 L389.25 155.9 Q386.4 160.55 391.25 161.95 L391.3 161.95 392.3 162.1 393.0 162.0 Q393.95 161.7 394.55 160.55 L394.5 160.5 393.9 160.15 Q391.85 158.9 390.3 156.95 L389.7 156.1 389.45 155.75 389.4 155.75 389.35 155.65 M385.55 119.05 L386.35 122.5 388.35 130.75 390.7 139.8 391.5 139.1 392.25 138.35 392.45 138.2 395.15 134.55 394.7 136.25 396.05 134.6 Q396.8 133.5 397.3 133.3 L396.9 134.0 396.5 134.85 396.65 134.85 398.45 132.75 399.0 132.1 399.0 132.2 398.8 133.75 399.8 132.35 399.9 132.15 399.95 132.3 401.0 133.75 400.8 132.15 400.8 132.1 401.4 132.75 401.45 132.8 403.15 134.85 403.3 134.85 402.9 134.0 402.5 133.3 403.75 134.55 405.1 136.25 404.65 134.55 407.35 138.15 407.5 138.35 408.3 139.05 409.05 139.8 411.45 130.7 413.45 122.5 413.45 122.45 414.25 119.05 Q415.65 112.7 416.6 109.55 417.75 105.7 419.3 102.9 L419.55 102.75 420.65 110.5 421.5 117.3 421.5 117.5 421.75 120.15 421.85 121.25 422.35 127.55 422.5 131.3 422.5 131.4 422.55 132.9 Q422.7 140.85 421.4 144.55 L421.35 144.6 421.3 144.8 Q420.7 146.35 419.55 147.85 L418.65 149.0 417.9 150.05 Q418.05 151.85 420.8 152.35 421.9 152.6 423.2 153.45 L424.65 154.5 424.0 154.5 421.6 154.1 421.2 154.15 Q422.75 154.5 425.25 156.75 L425.4 156.9 Q427.85 159.1 428.35 160.45 L425.8 159.15 423.8 158.4 Q424.9 159.1 426.7 162.35 L428.7 166.1 426.65 163.95 Q424.8 161.95 423.85 161.55 L424.7 162.7 424.7 162.75 424.85 162.95 424.9 163.1 424.95 163.15 Q425.85 164.7 426.1 166.55 428.3 170.1 429.5 174.9 428.0 173.6 425.4 174.1 430.15 180.9 433.45 188.9 L435.7 195.1 Q433.05 192.0 429.4 189.75 430.05 201.1 425.1 210.65 424.45 204.7 421.3 201.3 420.25 212.2 412.9 218.9 413.25 215.7 412.3 212.5 408.3 222.45 399.85 228.4 391.35 222.45 387.4 212.5 386.45 215.7 386.8 218.9 379.4 212.2 378.4 201.3 375.25 204.7 374.6 210.65 369.65 201.1 370.3 189.75 366.6 192.0 364.0 195.1 365.0 191.9 366.25 188.9 369.5 180.9 374.25 174.1 371.7 173.6 370.15 174.9 371.4 169.95 373.75 166.35 374.0 164.65 374.85 163.15 L374.85 163.1 374.95 163.0 375.05 162.75 375.1 162.75 375.95 161.6 Q375.0 161.95 373.15 164.0 L371.1 166.1 373.1 162.4 Q374.9 159.1 376.0 158.4 L374.0 159.2 Q371.95 160.0 371.45 160.45 371.95 159.15 374.4 156.9 L374.55 156.75 Q377.0 154.5 378.6 154.15 L378.15 154.15 375.8 154.55 375.1 154.5 376.6 153.45 Q377.85 152.6 378.95 152.4 381.75 151.9 381.9 150.05 L381.1 149.05 380.2 147.85 Q379.1 146.4 378.5 144.8 L378.45 144.6 378.4 144.6 Q377.1 140.9 377.25 132.95 L377.25 132.9 377.25 131.4 377.45 127.6 378.05 120.2 378.3 117.55 378.3 117.5 378.3 117.3 Q378.65 113.9 379.15 110.5 L380.2 102.8 380.5 102.95 Q382.0 105.7 383.2 109.55 L385.55 119.05" fill="#000000" fill-rule="evenodd" stroke="none"/>
  </g>
</svg>
