<?xml version="1.0" encoding="UTF-8" standalone="no"?>
<svg xmlns:xlink="http://www.w3.org/1999/xlink" height="60.8px" width="52.85px" xmlns="http://www.w3.org/2000/svg">
  <g transform="matrix(1.0, 0.0, 0.0, 1.0, -373.5, -133.9)">
    <path d="M379.05 145.4 Q379.2 144.7 380.05 143.55 381.15 142.2 382.15 141.55 L387.7 138.0 389.2 137.05 391.95 136.0 395.55 135.0 396.05 134.85 399.1 135.0 399.9 133.9 400.8 134.95 403.8 134.85 404.3 135.0 407.9 136.05 410.65 137.05 411.8 137.75 417.65 141.55 Q418.7 142.2 419.75 143.6 420.65 144.75 420.8 145.4 421.85 145.9 422.65 146.75 423.95 148.15 424.15 149.9 L424.15 150.45 Q424.15 151.95 422.85 154.1 L422.85 154.15 Q422.1 155.9 422.3 157.95 L422.3 159.45 Q423.6 162.0 425.8 165.6 426.35 166.45 426.35 168.25 426.35 170.1 424.65 171.9 423.3 173.25 421.9 173.75 L418.0 174.95 Q416.85 175.35 415.1 176.55 L415.1 176.6 415.3 177.45 Q415.2 177.55 415.25 177.8 L416.15 179.75 Q416.7 181.05 416.7 182.35 416.7 184.3 415.8 186.1 L415.7 186.25 415.65 186.35 415.5 186.85 415.5 186.9 415.45 186.95 414.2 190.2 Q413.45 192.1 411.6 193.15 409.25 194.55 406.4 194.6 403.3 194.85 400.3 194.6 L399.9 194.55 399.6 194.55 Q396.55 194.85 393.4 194.55 390.6 194.5 388.25 193.1 386.4 192.05 385.6 190.15 L384.35 186.9 384.35 186.85 384.2 186.3 384.1 186.2 384.05 186.05 Q383.15 184.25 383.15 182.3 383.15 181.0 383.7 179.75 L384.6 177.75 384.55 177.4 384.75 176.6 384.75 176.55 Q382.95 175.35 381.8 174.9 L377.9 173.7 Q376.55 173.2 375.2 171.85 373.5 170.1 373.5 168.2 373.5 166.4 374.0 165.55 L377.55 159.4 377.55 157.9 Q377.7 155.9 377.0 154.15 L376.95 154.05 Q375.7 151.95 375.7 150.45 L375.7 149.9 Q375.9 148.15 377.2 146.7 L379.05 145.4 M385.05 154.5 Q385.05 156.0 385.5 156.65 386.2 157.6 388.15 157.6 L391.3 157.35 389.05 155.95 385.3 153.05 385.25 153.05 385.05 154.5 M414.65 153.05 L414.6 153.05 414.55 153.1 410.8 156.0 408.55 157.4 411.7 157.65 Q413.6 157.65 414.3 156.7 414.8 156.0 414.8 154.55 L414.65 153.05" fill="#000000" fill-rule="evenodd" stroke="none"/>
  </g>
</svg>
