<?xml version="1.0" encoding="UTF-8" standalone="no"?>
<svg xmlns:xlink="http://www.w3.org/1999/xlink" height="53.15px" width="75.45px" xmlns="http://www.w3.org/2000/svg">
  <g transform="matrix(1.0, 0.0, 0.0, 1.0, -362.4, -134.7)">
    <path d="M383.9 140.4 L384.4 139.95 384.45 139.9 Q386.45 138.1 391.45 136.25 L393.85 135.45 394.45 135.5 397.05 136.1 397.65 136.35 Q398.8 136.8 399.85 137.65 L400.4 138.1 400.5 138.2 400.95 138.65 401.9 139.75 402.15 140.05 403.1 134.7 Q405.3 135.1 408.4 136.25 413.5 138.1 415.5 139.95 L415.95 140.4 416.05 140.4 416.95 140.5 Q418.0 140.5 419.15 141.5 420.05 142.35 420.05 142.7 L419.55 143.6 418.55 142.95 Q416.0 141.55 414.1 142.55 412.15 143.5 412.65 146.25 L412.75 146.55 Q413.1 148.3 413.95 150.15 L414.8 151.9 Q416.4 154.85 418.25 156.2 L419.2 156.8 421.15 157.0 422.05 156.65 Q423.55 155.9 424.0 154.15 L424.25 155.25 425.4 154.05 Q431.6 150.95 437.85 149.75 431.85 151.8 425.85 155.45 L424.55 156.85 424.55 156.9 424.15 158.95 424.0 159.4 423.15 161.4 Q422.9 162.3 422.9 164.0 L422.9 164.75 422.8 167.35 Q421.65 166.35 419.4 165.5 L417.25 164.75 Q410.45 162.75 400.9 162.8 L400.05 162.8 399.95 162.8 399.8 162.8 399.0 162.8 Q389.4 162.75 382.65 164.75 L380.85 165.35 Q378.35 166.25 377.1 167.35 376.95 166.25 376.95 164.75 L376.95 164.1 376.7 161.4 375.9 159.25 375.75 158.95 Q375.35 158.05 375.3 156.9 L375.3 156.6 375.3 156.5 374.4 155.55 Q368.4 151.9 362.4 149.9 368.65 151.05 374.85 154.2 L375.7 155.05 375.85 154.15 Q376.35 155.9 377.8 156.65 L378.75 157.0 380.65 156.8 381.6 156.2 Q383.45 154.85 385.05 151.9 L385.95 150.15 387.15 146.55 387.2 146.25 Q387.7 143.5 385.8 142.55 383.85 141.55 381.35 142.95 L380.3 143.6 379.8 142.7 Q379.8 142.35 380.75 141.5 381.85 140.5 382.95 140.5 L383.85 140.4 383.9 140.4 M378.9 173.05 L379.4 173.3 382.65 174.45 Q387.55 175.95 393.9 176.35 L396.55 176.45 396.65 176.45 399.0 176.5 399.8 176.5 399.95 176.5 400.05 176.5 400.9 176.5 403.25 176.45 Q411.3 176.2 417.25 174.45 L420.45 173.3 420.95 173.05 422.3 172.3 422.4 172.2 421.6 173.85 420.65 175.95 417.95 180.85 416.2 183.45 Q415.45 184.3 413.6 185.05 L409.95 186.3 407.5 186.95 403.35 187.6 401.2 187.8 396.65 187.6 392.4 186.95 389.9 186.3 386.25 185.05 Q384.4 184.3 383.65 183.45 L381.9 180.85 Q380.15 178.05 379.2 175.95 L378.25 173.85 377.5 172.2 377.55 172.3 378.9 173.05" fill="#000000" fill-rule="evenodd" stroke="none"/>
  </g>
</svg>
