<?xml version="1.0" encoding="UTF-8" standalone="no"?>
<svg xmlns:xlink="http://www.w3.org/1999/xlink" height="45.1px" width="113.6px" xmlns="http://www.w3.org/2000/svg">
  <g transform="matrix(1.0, 0.0, 0.0, 1.0, -304.05, -359.95)">
    <path d="M349.8 373.9 Q350.0 369.0 352.5 362.85 351.4 361.65 349.7 361.85 L349.1 363.85 348.6 365.4 M349.8 373.9 L368.1 381.2 374.4 383.85 380.6 386.4 384.15 387.9 399.15 394.35 402.35 395.8 407.15 397.9 Q415.1 401.4 417.15 404.35 413.7 405.2 405.4 402.75 L394.05 399.5 390.15 398.35 372.65 393.0 368.55 391.75 361.65 389.5 354.6 387.25 346.0 384.35 Q343.0 388.15 341.0 394.5 339.3 394.7 338.2 393.5 L339.0 391.5 339.6 390.1 342.95 381.35 Q341.2 380.6 339.3 380.1 331.05 378.3 322.75 374.35 319.9 372.95 317.3 371.9 314.75 370.85 313.9 370.4 312.55 369.9 312.05 369.1 L311.65 369.4 308.1 369.5 Q306.3 368.85 305.5 367.15 304.95 365.95 305.05 364.8 L304.9 364.45 304.7 364.0 Q304.5 363.7 304.6 363.35 L304.65 363.2 305.1 362.9 305.55 362.7 305.9 362.5 Q306.6 361.45 307.75 360.9 L311.3 360.8 Q313.1 361.4 313.9 363.15 L314.05 363.65 316.3 363.9 319.9 364.95 325.6 366.6 Q334.45 368.9 341.95 372.75 343.75 373.7 345.6 374.2 L348.25 366.5" fill="none" stroke="#000000" stroke-linecap="round" stroke-linejoin="round" stroke-width="1.0"/>
    <path d="M348.6 365.4 L348.25 366.5 346.05 374.3 345.25 378.15 350.8 380.2 Q349.65 377.3 349.8 373.9 M339.6 390.1 Q341.65 385.1 343.4 381.6 L343.15 381.4 342.95 381.35 M345.6 374.2 L345.75 374.25 346.05 374.3 M345.75 374.25 Q345.45 376.1 344.75 378.0 L343.15 381.4 M346.0 384.35 Q348.1 381.6 350.8 380.2 L417.15 404.35 M345.25 378.15 L343.4 381.6 M305.05 364.8 Q305.55 365.35 306.0 363.85 L306.0 363.7 Q306.5 362.45 305.9 362.5 M312.05 369.1 L312.4 368.95 Q313.55 368.1 314.05 366.75 L314.1 366.7 Q314.55 365.4 314.2 364.1 L314.05 363.65" fill="none" stroke="#000000" stroke-linecap="round" stroke-linejoin="round" stroke-opacity="0.5019608" stroke-width="1.0"/>
  </g>
</svg>
