<?xml version="1.0" encoding="UTF-8" standalone="no"?>
<svg xmlns:xlink="http://www.w3.org/1999/xlink" height="74.65px" width="184.55px" xmlns="http://www.w3.org/2000/svg">
  <g transform="matrix(1.0, 0.0, 0.0, 1.0, -311.6, -352.95)">
    <path d="M362.25 357.1 Q362.2 359.0 360.5 359.35 357.8 360.3 355.25 363.05 353.75 364.6 352.3 366.75 L352.8 366.95 Q353.65 367.3 353.2 369.0 L353.05 369.45 352.75 371.45 Q352.35 374.4 352.4 377.45 L377.75 387.6 389.4 392.0 397.85 395.1 402.75 396.9 Q414.25 400.9 424.15 403.95 L433.6 406.7 Q441.05 408.75 442.3 406.95 L444.1 407.6 456.0 411.3 461.75 412.9 Q478.05 417.35 495.65 420.65 483.8 432.65 443.55 422.3 L437.75 420.75 436.15 420.3 425.7 417.1 409.35 411.6 388.95 404.05 384.25 402.2 376.05 398.95 364.75 394.3 357.75 391.4 352.8 389.35 Q352.8 391.4 353.25 393.0 353.65 392.95 353.75 393.3 354.05 393.8 353.65 394.45 351.55 397.0 348.3 398.45 L346.6 398.95 Q343.55 399.2 341.6 396.85 340.5 395.25 340.45 393.3 L340.0 393.3 337.5 398.5 334.45 404.65 Q333.4 406.8 331.2 405.95 329.35 407.45 327.05 405.95 325.25 405.95 325.2 404.65 325.3 403.2 326.8 403.1 326.85 401.2 328.5 400.85 331.2 399.85 333.85 397.15 335.7 395.2 337.5 392.3 L337.4 391.95 Q331.0 395.0 323.85 391.5 317.5 388.0 316.1 381.65 314.1 379.6 314.6 377.3 314.55 376.55 314.05 376.05 312.6 377.1 312.2 376.2 311.8 374.9 313.2 374.95 314.65 375.0 315.35 375.95 L315.5 375.75 316.25 374.3 Q314.75 375.0 313.95 373.95 313.5 373.2 313.25 371.75 L312.95 367.65 Q312.9 367.35 313.0 367.1 313.1 366.4 313.8 365.85 L316.85 363.65 Q318.1 362.9 318.8 362.75 320.05 362.65 320.55 364.05 L321.0 362.85 321.15 362.55 321.75 360.65 Q322.75 358.5 325.85 358.1 330.35 357.3 337.0 359.4 344.4 362.1 349.1 366.9 L351.6 361.7 354.6 355.5 Q355.65 353.3 357.8 354.2 359.7 352.75 362.0 354.2 363.8 354.2 363.9 355.5 363.8 356.95 362.25 357.1 M341.8 389.45 Q339.85 395.45 344.3 397.7 347.7 399.25 351.85 393.9 351.2 391.4 351.1 388.6 L343.45 385.3 341.8 389.45 M335.0 391.05 Q330.9 392.75 325.75 390.75 319.9 388.1 318.2 383.4 M335.0 391.05 Q333.45 390.65 331.3 389.7 324.75 387.2 319.3 384.1 L318.2 383.4 M350.45 373.4 Q350.15 375.25 350.3 376.6 L347.9 375.6 350.45 373.4" fill="none" stroke="#000000" stroke-linecap="round" stroke-linejoin="round" stroke-width="1.0"/>
    <path d="M348.1 368.95 Q345.75 373.85 343.35 379.1 L345.7 380.0 347.55 375.4 Q349.55 371.1 351.5 367.9 L349.1 366.9 348.1 368.95 Q343.55 364.2 336.2 361.55 329.55 359.5 325.05 360.25 322.2 360.65 321.15 362.55 M352.3 366.75 L351.5 367.9 M324.4 365.0 L324.0 365.4 324.0 365.95 Q324.1 366.3 324.35 366.35 L324.8 366.3 325.15 365.85 325.15 365.35 324.85 364.95 324.4 365.0 M322.0 370.7 L321.3 370.4 320.85 370.9 320.15 371.05 319.75 370.5 Q319.7 370.15 319.8 369.8 L319.85 369.5 Q320.05 369.0 320.4 368.75 320.75 368.45 321.05 368.55 L321.5 369.15 321.5 369.7 326.85 371.7 Q327.05 371.45 327.35 371.3 L328.2 371.25 329.7 367.8 329.35 367.3 Q329.05 366.75 329.25 366.2 329.45 365.65 330.0 365.45 L331.05 365.4 Q331.6 365.55 331.85 366.15 332.1 366.65 331.85 367.2 L331.2 368.0 330.3 368.05 328.75 371.45 329.1 371.95 329.25 372.65 335.4 375.0 335.95 374.55 Q336.45 374.4 336.95 374.55 337.5 374.75 337.7 375.2 337.9 375.7 337.7 376.2 L337.4 376.75 337.05 376.95 336.05 377.0 335.3 376.3 335.25 375.9 335.25 375.6 329.0 373.3 328.95 373.45 328.5 373.7 327.65 373.85 325.85 377.7 326.35 378.25 Q326.6 378.8 326.4 379.3 L325.7 380.1 Q325.15 380.3 324.6 380.1 324.05 379.9 323.85 379.4 323.6 378.9 323.85 378.35 324.0 377.85 324.5 377.55 325.0 377.35 325.5 377.55 L327.15 373.6 326.7 373.05 326.6 372.5 326.6 372.4 322.7 370.95 M335.45 370.35 L335.95 370.35 336.35 369.9 336.3 369.4 335.95 369.0 335.35 369.0 335.0 369.45 335.0 369.95 335.45 370.35 M331.25 378.95 L330.7 378.95 330.3 379.35 330.35 379.9 330.75 380.25 331.3 380.25 331.65 379.8 331.65 379.3 331.25 378.95 M341.8 389.45 L340.5 392.2 340.45 393.3 M343.35 379.1 L338.95 389.35 338.95 389.45 338.15 391.05 337.9 391.65 337.5 392.3 340.0 393.3 340.5 392.2 M338.15 391.05 Q337.1 391.55 335.0 391.05 M318.2 383.4 L316.1 381.65 M337.4 391.95 L337.9 391.65 M338.95 389.45 Q337.05 390.2 332.15 388.05 325.6 385.5 320.15 382.4 314.65 379.3 315.5 375.75 M350.3 376.6 L352.4 377.45 M347.9 375.6 L347.55 375.4 M350.45 373.4 Q352.05 371.7 353.05 369.45 M352.8 389.35 L351.45 388.75 351.1 388.6 M351.85 393.9 Q352.8 393.05 353.25 393.0 M495.65 420.65 L472.7 419.6 Q463.95 419.85 452.45 417.7 L446.15 416.35 433.55 413.05 430.8 412.2 416.8 407.7 395.65 400.55 390.7 398.8 382.15 395.75 370.35 391.45 370.15 391.4 363.35 388.9 Q360.05 388.95 357.75 391.4 M343.45 385.3 L345.7 380.0 M316.25 374.3 L318.55 369.3 320.55 364.05 M320.5 375.2 L320.9 375.15 321.3 374.7 321.3 374.15 320.95 373.85 320.5 373.9 320.15 374.3 320.15 374.85 320.5 375.2 M314.6 377.3 L315.35 375.95 M442.3 406.95 L442.7 408.3 Q443.45 410.3 445.05 411.5 L451.15 413.8 456.6 415.55 466.85 418.3 472.7 419.6" fill="none" stroke="#000000" stroke-linecap="round" stroke-linejoin="round" stroke-opacity="0.5019608" stroke-width="1.0"/>
  </g>
</svg>
