<?xml version="1.0" encoding="UTF-8" standalone="no"?>
<svg xmlns:xlink="http://www.w3.org/1999/xlink" height="88.6px" width="225.75px" xmlns="http://www.w3.org/2000/svg">
  <g transform="matrix(1.0, 0.0, 0.0, 1.0, -303.2, -357.75)">
    <path d="M350.85 375.1 Q350.85 373.95 351.15 372.6 354.0 362.05 364.05 365.35 361.8 360.7 356.15 358.25 351.1 362.7 347.25 373.8 M350.85 375.1 Q350.85 376.2 351.15 377.15 L366.55 382.65 Q372.05 384.75 377.25 379.75 379.0 385.7 382.2 387.35 L382.95 387.65 407.75 395.5 409.65 397.15 Q412.65 399.15 419.75 401.65 L491.0 426.45 491.45 426.6 495.45 428.0 Q516.15 435.45 528.45 445.85 510.7 445.85 487.35 436.55 L416.8 409.8 413.6 408.65 Q406.15 406.1 403.65 406.8 L379.55 396.85 Q375.95 395.45 370.2 399.2 L369.65 396.4 Q368.2 391.65 363.85 390.1 L348.5 384.4 Q347.65 384.95 346.95 385.75 346.2 386.65 345.6 387.9 341.0 397.85 350.75 401.75 346.05 403.85 340.2 402.05 339.2 395.5 343.35 384.45 L343.35 384.4 344.2 382.1 Q343.55 382.5 343.2 381.75 L340.85 380.9 Q340.2 381.25 339.85 380.55 330.65 378.55 319.75 373.25 319.1 373.55 318.8 372.9 L317.6 372.45 Q316.95 372.8 316.6 372.1 313.15 370.95 311.0 371.55 308.9 371.6 309.3 369.35 L309.6 368.1 Q308.6 367.35 307.7 367.7 307.5 368.45 307.05 368.3 303.7 367.15 303.7 364.05 305.7 361.6 309.05 362.85 309.45 363.1 309.15 363.7 309.6 364.6 310.8 364.75 L311.4 363.55 Q312.55 361.6 314.1 362.95 315.45 364.7 318.8 366.1 319.5 365.85 319.8 366.45 L321.0 366.9 Q321.7 366.6 321.95 367.25 333.65 370.15 342.05 374.55 342.8 374.3 343.05 374.9 L345.4 375.75 Q346.1 375.5 346.4 376.15 L347.2 373.85 347.25 373.8" fill="none" stroke="#000000" stroke-linecap="round" stroke-linejoin="round" stroke-width="1.0"/>
    <path d="M347.25 373.8 L350.85 375.1 M342.05 374.55 L339.85 380.55 M340.85 380.9 L343.05 374.9 M351.15 377.15 L351.95 379.05 Q355.1 378.1 358.0 380.3 L359.6 382.05 Q360.55 383.4 362.05 384.15 363.6 385.0 363.6 385.85 L361.35 386.1 Q359.7 385.75 358.15 386.1 L355.8 386.4 Q352.2 386.25 350.4 383.5 349.35 383.85 348.5 384.4 M350.4 383.5 L356.3 383.2 Q353.4 381.3 351.95 379.05 M346.95 385.75 L343.35 384.45 M344.2 382.1 L346.4 376.15 M343.2 381.75 L345.4 375.75 M369.4 387.35 L369.95 387.3 407.5 400.95 408.0 401.4 407.95 401.95 407.6 402.4 406.95 402.4 369.45 388.8 369.0 388.35 369.0 387.8 369.4 387.35 M309.15 363.7 L308.3 365.75 307.7 367.7 M310.8 364.75 L310.15 366.4 309.6 368.1 M316.6 372.1 L318.8 366.1 M314.1 362.95 L311.0 371.55 M319.8 366.45 L317.6 372.45 M321.0 366.9 L318.8 372.9 M319.75 373.25 L321.95 367.25 M528.45 445.85 L514.35 440.7 Q509.05 440.9 488.25 433.2 L484.35 431.75 484.2 431.7 421.8 408.15 416.6 406.5 Q407.15 403.85 403.65 406.8 M407.75 395.5 Q408.0 396.65 408.75 397.8 411.15 401.35 419.1 404.7 L422.55 406.05 485.55 428.15 488.1 429.05 492.0 430.5 Q510.65 437.35 514.35 440.7" fill="none" stroke="#000000" stroke-linecap="round" stroke-linejoin="round" stroke-opacity="0.5019608" stroke-width="1.0"/>
  </g>
</svg>
