<?xml version="1.0" encoding="UTF-8" standalone="no"?>
<svg xmlns:xlink="http://www.w3.org/1999/xlink" height="60.95px" width="33.9px" xmlns="http://www.w3.org/2000/svg">
  <g transform="matrix(1.0, 0.0, 0.0, 1.0, -320.85, -368.5)">
    <path d="M328.1 378.85 L330.85 378.3 M333.75 378.6 L336.45 377.95 M322.45 379.1 L325.2 378.7" fill="none" stroke="#000000" stroke-linecap="round" stroke-linejoin="round" stroke-opacity="0.5019608" stroke-width="1.0"/>
    <path d="M330.85 378.3 L332.05 378.05 Q330.9 373.6 328.05 369.35 326.35 373.1 327.2 378.95 L328.1 378.85 M330.85 378.3 Q335.75 402.15 346.05 427.9 340.85 424.15 338.65 421.25 331.5 399.65 328.1 378.85 M336.45 377.95 L337.7 377.65 Q336.05 373.25 333.3 369.0 331.7 373.05 332.85 378.8 L333.75 378.6 M336.45 377.95 Q342.65 401.5 354.25 426.65 348.85 423.25 346.5 420.4 338.25 399.25 333.75 378.6 M325.2 378.7 L326.4 378.5 Q325.2 373.7 322.6 370.15 320.95 373.3 321.5 379.2 L322.45 379.1 M325.2 378.7 Q328.8 402.75 337.75 428.95 332.75 424.95 330.65 421.95 324.75 400.1 322.45 379.1" fill="none" stroke="#000000" stroke-linecap="round" stroke-linejoin="round" stroke-width="1.0"/>
  </g>
</svg>
