<?xml version="1.0" encoding="UTF-8" standalone="no"?>
<svg xmlns:xlink="http://www.w3.org/1999/xlink" height="76.7px" width="59.8px" xmlns="http://www.w3.org/2000/svg">
  <g transform="matrix(1.0, 0.0, 0.0, 1.0, 104.7, -57.85)">
    <path d="M-50.25 76.95 L-50.4 73.3 Q-50.45 69.75 -48.55 67.8 -47.1 67.4 -46.85 68.9 -48.35 70.75 -48.05 74.0 -47.75 77.3 -45.6 78.45 L-45.55 79.7 -50.25 76.95" fill="url(#gradient0)" fill-rule="evenodd" stroke="none"/>
    <path d="M-50.25 76.95 L-45.55 79.7 -44.9 80.15 Q-44.9 81.55 -45.55 82.55 -46.1 83.4 -47.15 83.95 L-50.05 82.45 Q-73.45 70.2 -104.05 65.85 -105.15 63.75 -104.45 61.25 -104.0 59.6 -102.85 57.85 -75.15 62.6 -50.25 76.95 M-48.25 80.4 L-48.5 80.7 -48.6 80.9 -48.45 81.5 -47.95 81.85 -47.35 81.7 -47.2 81.55 -47.05 81.2 Q-46.95 80.9 -47.2 80.6 -47.3 80.35 -47.7 80.25 L-48.25 80.4 M-99.5 62.1 L-99.6 61.6 Q-99.9 61.3 -100.3 61.25 L-101.0 61.35 -101.35 61.8 -101.45 62.0 -101.3 62.75 -100.65 63.15 -99.9 63.05 Q-99.55 62.8 -99.5 62.35 L-99.5 62.1" fill="url(#gradient1)" fill-rule="evenodd" stroke="none"/>
    <path d="M-45.55 82.55 L-45.05 132.8 Q-45.15 133.85 -46.0 134.25 L-46.3 99.6 -52.7 100.0 Q-51.8 98.7 -49.45 98.55 L-50.05 82.45 -47.15 83.95 Q-46.1 83.4 -45.55 82.55" fill="url(#gradient2)" fill-rule="evenodd" stroke="none"/>
    <path d="M-46.0 134.25 L-47.0 134.45 -51.55 134.55 Q-52.75 134.65 -52.85 133.5 L-53.15 101.65 Q-53.15 100.7 -52.7 100.0 L-46.3 99.6 -46.0 134.25" fill="url(#gradient3)" fill-rule="evenodd" stroke="none"/>
    <path d="M-50.05 82.45 Q-73.45 70.2 -104.05 65.85 -105.15 63.75 -104.45 61.25 L-101.35 61.8 -101.45 62.0 -101.3 62.75 -100.65 63.15 -99.9 63.05 Q-99.55 62.8 -99.5 62.35 L-99.5 62.1 Q-70.3 67.4 -48.5 80.7 L-48.6 80.9 -48.45 81.5 -47.95 81.85 -47.35 81.7 -47.2 81.55 -45.55 82.55 Q-46.1 83.4 -47.15 83.95 L-50.05 82.45" fill="#000000" fill-opacity="0.2" fill-rule="evenodd" stroke="none"/>
    <path d="M-50.05 82.45 L-47.15 83.95 -49.3 134.5 -51.55 134.55 Q-52.75 134.65 -52.85 133.5 L-53.15 101.65 Q-53.15 100.7 -52.7 100.0 -51.8 98.7 -49.45 98.55 L-50.05 82.45" fill="#ffffff" fill-opacity="0.5019608" fill-rule="evenodd" stroke="none"/>
  </g>
  <defs>
    <linearGradient gradientTransform="matrix(0.0, 0.0073, -0.0029, 0.0, -47.95, 73.7)" gradientUnits="userSpaceOnUse" id="gradient0" spreadMethod="pad" x1="-819.2" x2="819.2">
      <stop offset="0.0" stop-color="#000000" stop-opacity="0.2509804"/>
      <stop offset="1.0" stop-color="#000000" stop-opacity="0.0"/>
    </linearGradient>
    <linearGradient gradientTransform="matrix(0.0, 0.0159, -0.0365, 0.0, -74.8, 70.9)" gradientUnits="userSpaceOnUse" id="gradient1" spreadMethod="pad" x1="-819.2" x2="819.2">
      <stop offset="0.0" stop-color="#000000" stop-opacity="0.2509804"/>
      <stop offset="1.0" stop-color="#000000" stop-opacity="0.0"/>
    </linearGradient>
    <linearGradient gradientTransform="matrix(0.0, 0.0316, -0.0046, 0.0, -48.85, 108.35)" gradientUnits="userSpaceOnUse" id="gradient2" spreadMethod="pad" x1="-819.2" x2="819.2">
      <stop offset="0.0" stop-color="#000000" stop-opacity="0.2509804"/>
      <stop offset="1.0" stop-color="#000000" stop-opacity="0.0"/>
    </linearGradient>
    <linearGradient gradientTransform="matrix(0.0, 0.0213, -0.0044, 0.0, -49.55, 117.05)" gradientUnits="userSpaceOnUse" id="gradient3" spreadMethod="pad" x1="-819.2" x2="819.2">
      <stop offset="0.0" stop-color="#000000" stop-opacity="0.2509804"/>
      <stop offset="1.0" stop-color="#000000" stop-opacity="0.0"/>
    </linearGradient>
  </defs>
</svg>
