<?xml version="1.0" encoding="UTF-8" standalone="no"?>
<svg xmlns:xlink="http://www.w3.org/1999/xlink" height="87.6px" width="224.8px" xmlns="http://www.w3.org/2000/svg">
  <g transform="matrix(1.0, 0.0, 0.0, 1.0, 96.35, -58.25)">
    <path d="M7.75 95.5 L9.65 97.15 Q12.65 99.15 19.75 101.65 L91.0 126.45 91.45 126.6 95.45 128.0 Q116.15 135.45 128.45 145.85 L114.3 140.7 Q110.65 137.35 92.0 130.5 L88.1 129.05 85.5 128.15 22.55 106.05 19.1 104.7 Q11.15 101.35 8.75 97.8 8.0 96.65 7.75 95.5" fill="url(#gradient0)" fill-rule="evenodd" stroke="none"/>
    <path d="M7.75 95.5 Q8.0 96.65 8.75 97.8 11.15 101.35 19.1 104.7 L22.55 106.05 85.5 128.15 88.1 129.05 92.0 130.5 Q110.65 137.35 114.3 140.7 109.05 140.9 88.2 133.2 L84.35 131.75 84.2 131.7 21.8 108.15 Q19.0 107.15 16.6 106.5 7.15 103.85 3.65 106.8 L-20.45 96.85 Q-24.05 95.45 -29.8 99.2 -30.0 97.7 -30.35 96.4 -31.8 91.65 -36.15 90.1 L-46.0 86.45 -45.9 86.15 -44.2 86.4 -41.9 86.1 Q-40.3 85.75 -38.65 86.1 L-36.4 85.85 Q-36.45 85.0 -37.95 84.15 -39.45 83.4 -40.4 82.05 L-42.0 80.3 -43.45 79.4 -43.35 79.15 -33.45 82.65 Q-27.95 84.75 -22.75 79.75 -21.0 85.7 -17.8 87.35 L-17.1 87.65 7.75 95.5 M7.6 102.4 L7.95 101.95 8.0 101.4 7.5 100.95 -30.05 87.3 -30.65 87.35 -31.05 87.8 -31.05 88.35 -30.6 88.8 6.95 102.4 7.6 102.4" fill="url(#gradient1)" fill-rule="evenodd" stroke="none"/>
    <path d="M114.3 140.7 L128.45 145.85 Q110.65 145.85 87.3 136.55 L16.8 109.8 13.6 108.65 Q6.15 106.1 3.65 106.8 7.15 103.85 16.6 106.5 19.0 107.15 21.8 108.15 L84.2 131.7 84.35 131.75 88.2 133.2 Q109.05 140.9 114.3 140.7" fill="url(#gradient2)" fill-rule="evenodd" stroke="none"/>
    <path d="M7.6 102.4 L6.95 102.4 -30.6 88.8 -31.05 88.35 -31.05 87.8 -30.65 87.35 -30.05 87.3 7.5 100.95 8.0 101.4 7.95 101.95 7.6 102.4" fill="url(#gradient3)" fill-rule="evenodd" stroke="none"/>
    <path d="M-49.6 83.5 Q-50.65 83.85 -51.5 84.4 L-53.1 85.75 -56.65 84.45 -56.65 84.4 -52.8 73.85 -52.75 73.8 -49.15 75.1 -48.85 77.15 -48.05 79.05 Q-46.6 81.3 -43.7 83.2 L-49.6 83.5" fill="url(#gradient4)" fill-rule="evenodd" stroke="none"/>
    <path d="M-52.75 73.8 Q-48.9 62.7 -43.85 58.25 -38.25 60.7 -36.0 65.35 -46.0 62.05 -48.85 72.6 L-49.15 75.1 -52.75 73.8" fill="url(#gradient5)" fill-rule="evenodd" stroke="none"/>
    <path d="M-80.25 73.25 L-78.05 67.25 Q-66.35 70.15 -57.95 74.55 L-60.15 80.55 Q-69.35 78.55 -80.25 73.25" fill="url(#gradient6)" fill-rule="evenodd" stroke="none"/>
    <path d="M-80.25 73.25 Q-80.9 73.55 -81.2 72.9 L-79.0 66.9 Q-78.35 66.6 -78.05 67.25 L-80.25 73.25" fill="url(#gradient7)" fill-rule="evenodd" stroke="none"/>
    <path d="M-45.9 86.15 Q-48.25 85.6 -49.6 83.5 L-43.7 83.2 Q-46.6 81.3 -48.05 79.05 -45.7 78.35 -43.45 79.4 L-42.0 80.3 -40.4 82.05 Q-39.45 83.4 -37.95 84.15 -36.45 85.0 -36.4 85.85 L-38.65 86.1 Q-40.3 85.75 -41.9 86.1 L-44.2 86.4 -45.9 86.15" fill="url(#gradient8)" fill-rule="evenodd" stroke="none"/>
    <path d="M-53.1 85.75 L-54.4 87.9 Q-59.0 97.85 -49.25 101.75 -53.95 103.85 -59.85 102.05 -60.8 95.5 -56.7 84.45 L-56.65 84.45 -53.1 85.75" fill="url(#gradient9)" fill-rule="evenodd" stroke="none"/>
    <path d="M-59.15 80.9 L-56.95 74.9 -54.6 75.75 -56.8 81.75 -59.15 80.9" fill="url(#gradient10)" fill-rule="evenodd" stroke="none"/>
    <path d="M-90.85 63.7 L-91.7 65.75 -92.3 67.7 Q-92.5 68.45 -92.95 68.3 -96.35 67.15 -96.35 64.05 -94.3 61.6 -90.95 62.85 -90.55 63.1 -90.85 63.7" fill="url(#gradient11)" fill-rule="evenodd" stroke="none"/>
    <path d="M-92.3 67.7 L-91.7 65.75 -90.85 63.7 Q-90.45 64.6 -89.2 64.75 L-89.85 66.4 -90.45 68.1 Q-91.4 67.35 -92.3 67.7" fill="url(#gradient12)" fill-rule="evenodd" stroke="none"/>
    <path d="M-85.9 62.95 Q-84.6 64.7 -81.2 66.1 L-83.4 72.1 Q-86.9 70.95 -89.0 71.55 L-85.9 62.95" fill="url(#gradient13)" fill-rule="evenodd" stroke="none"/>
    <path d="M-90.45 68.1 L-89.85 66.4 -89.2 64.75 -88.6 63.55 Q-87.45 61.6 -85.9 62.95 L-89.0 71.55 Q-91.1 71.6 -90.7 69.35 L-90.45 68.1" fill="url(#gradient14)" fill-rule="evenodd" stroke="none"/>
    <path d="M-49.6 83.5 Q-50.65 83.85 -51.5 84.4 L-53.1 85.75 -54.4 87.9 Q-59.0 97.85 -49.25 101.75 -53.95 103.85 -59.85 102.05 -60.8 95.5 -56.7 84.45 L-56.65 84.45 -56.65 84.4 -55.85 82.1 Q-56.45 82.5 -56.8 81.75 L-59.15 80.9 Q-59.8 81.25 -60.15 80.55 -69.35 78.55 -80.25 73.25 -80.9 73.55 -81.2 72.9 L-82.4 72.45 Q-83.05 72.8 -83.4 72.1 -86.9 70.95 -89.0 71.55 -91.1 71.6 -90.7 69.35 L-90.45 68.1 Q-91.4 67.35 -92.3 67.7 -92.5 68.45 -92.95 68.3 -96.35 67.15 -96.35 64.05 L-43.7 83.2 -49.6 83.5" fill="#000000" fill-opacity="0.2" fill-rule="evenodd" stroke="none"/>
    <path d="M9.65 97.15 Q12.65 99.15 19.75 101.65 L91.0 126.45 91.45 126.6 95.45 128.0 Q116.15 135.45 128.45 145.85 110.65 145.85 87.3 136.55 L16.8 109.8 13.6 108.65 Q6.15 106.1 3.65 106.8 7.15 103.85 16.6 106.5 L19.1 104.7 Q11.15 101.35 8.75 97.8 L-1.05 104.85 -5.75 102.9 5.55 94.8 7.75 95.5 9.65 97.15 M55.9 117.75 L52.9 119.9 67.45 125.4 70.8 123.0 55.9 117.75 M73.25 127.55 L84.2 131.7 84.35 131.75 88.1 129.05 85.5 128.15 76.7 125.05 73.25 127.55 M47.6 114.85 L26.1 107.3 23.85 108.95 44.8 116.85 47.6 114.85 M88.2 133.2 Q109.05 140.9 114.3 140.7 110.65 137.35 92.0 130.5 L88.2 133.2 M-17.8 87.35 L-17.1 87.65 -6.5 91.0 -16.75 98.35 -20.45 96.85 Q-24.05 95.45 -29.8 99.2 -30.0 97.7 -30.35 96.4 L-17.8 87.35" fill="#ffffff" fill-opacity="0.5019608" fill-rule="evenodd" stroke="none"/>
  </g>
  <defs>
    <linearGradient gradientTransform="matrix(0.0, 0.0307, -0.0737, 0.0, 68.1, 120.65)" gradientUnits="userSpaceOnUse" id="gradient0" spreadMethod="pad" x1="-819.2" x2="819.2">
      <stop offset="0.0" stop-color="#000000" stop-opacity="0.2509804"/>
      <stop offset="1.0" stop-color="#000000" stop-opacity="0.0"/>
    </linearGradient>
    <linearGradient gradientTransform="matrix(0.0, 0.0376, -0.0979, 0.0, 34.15, 109.95)" gradientUnits="userSpaceOnUse" id="gradient1" spreadMethod="pad" x1="-819.2" x2="819.2">
      <stop offset="0.0" stop-color="#000000" stop-opacity="0.2509804"/>
      <stop offset="1.0" stop-color="#000000" stop-opacity="0.0"/>
    </linearGradient>
    <linearGradient gradientTransform="matrix(0.0, 0.0248, -0.0762, 0.0, 66.1, 125.55)" gradientUnits="userSpaceOnUse" id="gradient2" spreadMethod="pad" x1="-819.2" x2="819.2">
      <stop offset="0.0" stop-color="#000000" stop-opacity="0.2509804"/>
      <stop offset="1.0" stop-color="#000000" stop-opacity="0.0"/>
    </linearGradient>
    <linearGradient gradientTransform="matrix(0.0, 0.0093, -0.0239, 0.0, -11.5, 94.85)" gradientUnits="userSpaceOnUse" id="gradient3" spreadMethod="pad" x1="-819.2" x2="819.2">
      <stop offset="0.0" stop-color="#000000" stop-opacity="0.2509804"/>
      <stop offset="1.0" stop-color="#000000" stop-opacity="0.0"/>
    </linearGradient>
    <linearGradient gradientTransform="matrix(0.0, 0.0073, -0.0079, 0.0, -50.15, 79.8)" gradientUnits="userSpaceOnUse" id="gradient4" spreadMethod="pad" x1="-819.2" x2="819.2">
      <stop offset="0.0" stop-color="#000000" stop-opacity="0.2509804"/>
      <stop offset="1.0" stop-color="#000000" stop-opacity="0.0"/>
    </linearGradient>
    <linearGradient gradientTransform="matrix(0.0, 0.0103, -0.0102, 0.0, -44.35, 66.7)" gradientUnits="userSpaceOnUse" id="gradient5" spreadMethod="pad" x1="-819.2" x2="819.2">
      <stop offset="0.0" stop-color="#000000" stop-opacity="0.2509804"/>
      <stop offset="1.0" stop-color="#000000" stop-opacity="0.0"/>
    </linearGradient>
    <linearGradient gradientTransform="matrix(0.0, 0.0081, -0.0136, 0.0, -69.1, 73.9)" gradientUnits="userSpaceOnUse" id="gradient6" spreadMethod="pad" x1="-819.2" x2="819.2">
      <stop offset="0.0" stop-color="#000000" stop-opacity="0.2509804"/>
      <stop offset="1.0" stop-color="#000000" stop-opacity="0.0"/>
    </linearGradient>
    <linearGradient gradientTransform="matrix(0.0, 0.004, -0.0019, 0.0, -79.65, 70.05)" gradientUnits="userSpaceOnUse" id="gradient7" spreadMethod="pad" x1="-819.2" x2="819.2">
      <stop offset="0.0" stop-color="#000000" stop-opacity="0.2509804"/>
      <stop offset="1.0" stop-color="#000000" stop-opacity="0.0"/>
    </linearGradient>
    <linearGradient gradientTransform="matrix(0.0, 0.0046, -0.0081, 0.0, -43.0, 82.55)" gradientUnits="userSpaceOnUse" id="gradient8" spreadMethod="pad" x1="-819.2" x2="819.2">
      <stop offset="0.0" stop-color="#000000" stop-opacity="0.2509804"/>
      <stop offset="1.0" stop-color="#000000" stop-opacity="0.0"/>
    </linearGradient>
    <linearGradient gradientTransform="matrix(0.0, 0.0112, -0.0066, 0.0, -54.6, 93.65)" gradientUnits="userSpaceOnUse" id="gradient9" spreadMethod="pad" x1="-819.2" x2="819.2">
      <stop offset="0.0" stop-color="#000000" stop-opacity="0.2509804"/>
      <stop offset="1.0" stop-color="#000000" stop-opacity="0.0"/>
    </linearGradient>
    <linearGradient gradientTransform="matrix(0.0, 0.0042, -0.0028, 0.0, -56.85, 78.35)" gradientUnits="userSpaceOnUse" id="gradient10" spreadMethod="pad" x1="-819.2" x2="819.2">
      <stop offset="0.0" stop-color="#000000" stop-opacity="0.2509804"/>
      <stop offset="1.0" stop-color="#000000" stop-opacity="0.0"/>
    </linearGradient>
    <linearGradient gradientTransform="matrix(0.0, 0.0036, -0.0034, 0.0, -93.55, 65.35)" gradientUnits="userSpaceOnUse" id="gradient11" spreadMethod="pad" x1="-819.2" x2="819.2">
      <stop offset="0.0" stop-color="#000000" stop-opacity="0.2509804"/>
      <stop offset="1.0" stop-color="#000000" stop-opacity="0.0"/>
    </linearGradient>
    <linearGradient gradientTransform="matrix(0.0, 0.0027, -0.0019, 0.0, -90.75, 65.85)" gradientUnits="userSpaceOnUse" id="gradient12" spreadMethod="pad" x1="-819.2" x2="819.2">
      <stop offset="0.0" stop-color="#000000" stop-opacity="0.2509804"/>
      <stop offset="1.0" stop-color="#000000" stop-opacity="0.0"/>
    </linearGradient>
    <linearGradient gradientTransform="matrix(0.0, 0.0056, -0.0047, 0.0, -85.1, 67.5)" gradientUnits="userSpaceOnUse" id="gradient13" spreadMethod="pad" x1="-819.2" x2="819.2">
      <stop offset="0.0" stop-color="#000000" stop-opacity="0.2509804"/>
      <stop offset="1.0" stop-color="#000000" stop-opacity="0.0"/>
    </linearGradient>
    <linearGradient gradientTransform="matrix(0.0, 0.0056, -0.003, 0.0, -88.3, 66.95)" gradientUnits="userSpaceOnUse" id="gradient14" spreadMethod="pad" x1="-819.2" x2="819.2">
      <stop offset="0.0" stop-color="#000000" stop-opacity="0.2509804"/>
      <stop offset="1.0" stop-color="#000000" stop-opacity="0.0"/>
    </linearGradient>
  </defs>
</svg>
