<?xml version="1.0" encoding="UTF-8" standalone="no"?>
<svg xmlns:xlink="http://www.w3.org/1999/xlink" height="40.15px" width="99.5px" xmlns="http://www.w3.org/2000/svg">
  <g transform="matrix(1.0, 0.0, 0.0, 1.0, -311.4, -363.15)">
    <path d="M317.9 364.4 Q317.15 364.5 316.75 365.4 L315.9 368.15 314.65 372.3 Q314.75 372.8 315.15 373.1 314.25 373.7 313.9 375.45 L312.55 375.4 Q310.7 373.15 311.85 369.25 L313.2 364.75 Q313.95 362.5 315.85 363.4 L317.9 364.4 M350.5 371.1 Q350.6 370.95 350.8 371.0 L351.45 371.25 351.5 371.55 350.55 372.8 350.45 373.0 Q349.75 373.95 349.2 375.15 L349.15 375.25 361.35 379.8 366.6 381.6 378.0 385.1 381.85 386.2 382.05 386.25 383.65 386.75 Q393.95 393.3 410.9 401.3 393.75 407.05 372.05 396.45 L367.5 394.6 367.3 394.5 364.0 393.1 361.8 392.25 360.0 391.55 355.0 389.55 354.9 389.5 353.65 389.0 349.65 387.45 349.9 386.35 Q349.95 385.65 349.65 385.2 L348.8 384.4 348.65 384.35 346.15 383.45 345.6 385.75 Q344.7 389.75 340.8 388.2 343.8 386.35 342.45 382.3 L344.65 374.85 Q344.95 373.9 345.6 373.6 347.1 373.95 349.0 372.45 L349.2 372.35 350.5 371.1" fill="#ffffff" fill-rule="evenodd" stroke="none"/>
  </g>
</svg>
