<?xml version="1.0" encoding="UTF-8" standalone="no"?>
<svg xmlns:xlink="http://www.w3.org/1999/xlink" height="171.55px" width="253.55px" xmlns="http://www.w3.org/2000/svg">
  <g transform="matrix(1.0, 0.0, 0.0, 1.0, 214.5, -15.3)">
    <path d="M-209.25 26.2 L-214.5 24.25 -211.25 15.3 -206.0 17.25 -209.25 26.2" fill="url(#gradient0)" fill-rule="evenodd" stroke="none"/>
    <path d="M-31.35 90.95 L-209.25 26.2 -206.0 17.25 -28.1 82.0 -31.35 90.95" fill="url(#gradient1)" fill-rule="evenodd" stroke="none"/>
    <path d="M-24.3 96.25 L-31.35 90.95 -28.1 82.0 -19.35 82.55 -24.3 96.25" fill="url(#gradient2)" fill-rule="evenodd" stroke="none"/>
    <path d="M-18.75 96.05 L-24.3 96.25 -19.35 82.55 -15.45 87.0 -17.1 91.55 -18.75 96.05" fill="url(#gradient3)" fill-rule="evenodd" stroke="none"/>
    <path d="M-15.45 87.0 Q-8.55 87.9 -3.05 85.95 L-4.75 79.25 -8.0 80.55 -3.2 67.45 2.15 89.2 Q-6.1 93.8 -17.1 91.55 L-15.45 87.0" fill="url(#gradient4)" fill-rule="evenodd" stroke="none"/>
    <path d="M-3.2 67.45 L6.05 78.6 4.3 77.95 5.15 82.45 Q8.05 81.65 10.65 81.6 L11.9 70.35 13.5 86.3 Q8.25 85.75 2.15 89.2 L-3.2 67.45" fill="url(#gradient5)" fill-rule="evenodd" stroke="none"/>
    <path d="M17.3 111.9 Q19.95 92.85 5.2 93.9 L4.9 93.9 4.35 94.0 Q-9.75 99.85 -18.75 96.05 L-17.1 91.55 Q-6.1 93.8 2.15 89.2 8.25 85.75 13.5 86.3 17.45 86.8 20.9 89.5 L20.55 93.2 19.9 98.8 Q18.95 105.4 17.3 111.9" fill="url(#gradient6)" fill-rule="evenodd" stroke="none"/>
    <path d="M11.9 70.35 L15.75 82.2 Q18.5 83.0 21.05 84.75 L20.9 89.5 Q17.45 86.8 13.5 86.3 L11.9 70.35" fill="url(#gradient7)" fill-rule="evenodd" stroke="none"/>
    <path d="M21.05 84.75 Q21.3 75.6 20.1 66.2 L26.45 64.1 Q29.5 74.25 25.95 86.85 23.4 89.45 20.55 93.2 L20.9 89.5 21.05 84.75" fill="url(#gradient8)" fill-rule="evenodd" stroke="none"/>
    <path d="M26.45 64.1 L32.5 62.1 Q35.35 70.2 33.6 81.2 30.2 82.5 25.95 86.85 29.5 74.25 26.45 64.1" fill="url(#gradient9)" fill-rule="evenodd" stroke="none"/>
    <path d="M32.5 62.1 L37.4 60.55 Q39.25 70.75 39.0 81.1 36.6 80.05 33.6 81.2 35.35 70.2 32.5 62.1" fill="url(#gradient10)" fill-rule="evenodd" stroke="none"/>
    <path d="M39.0 81.1 L38.9 85.5 Q30.4 83.25 19.9 98.8 L20.55 93.2 Q23.4 89.45 25.95 86.85 30.2 82.5 33.6 81.2 36.6 80.05 39.0 81.1" fill="url(#gradient11)" fill-rule="evenodd" stroke="none"/>
    <path d="M38.9 85.5 Q37.2 117.25 16.8 150.6 -6.0 185.3 -42.15 186.85 -2.15 172.15 14.25 137.9 19.9 123.0 17.3 111.9 18.95 105.4 19.9 98.8 30.4 83.25 38.9 85.5 M30.25 101.35 Q24.55 101.35 25.9 107.7 29.15 105.4 30.25 101.35" fill="url(#gradient12)" fill-rule="evenodd" stroke="none"/>
    <path d="M30.25 101.35 Q29.15 105.4 25.9 107.7 24.55 101.35 30.25 101.35" fill="url(#gradient13)" fill-rule="evenodd" stroke="none"/>
    <path d="M-42.15 186.85 Q2.15 163.45 16.15 116.1 L17.3 111.9 Q19.9 123.0 14.25 137.9 -2.15 172.15 -42.15 186.85" fill="url(#gradient14)" fill-rule="evenodd" stroke="none"/>
    <path d="M-31.35 90.95 L-214.5 24.25 -212.85 19.75 -17.1 91.55 -18.75 96.05 -24.3 96.25 -31.35 90.95" fill="#000000" fill-opacity="0.2" fill-rule="evenodd" stroke="none"/>
    <path d="M29.45 125.9 L12.85 125.9 15.6 118.05 33.7 114.05 Q31.9 119.95 29.45 125.9 M18.25 148.2 L16.8 150.6 Q13.25 156.05 9.35 160.65 L-0.4 150.9 Q2.65 146.5 5.35 141.85 L18.25 148.2 M-17.65 181.35 L-20.7 172.7 -14.65 167.35 -8.65 176.6 Q-13.0 179.35 -17.65 181.35" fill="#ffffff" fill-opacity="0.5019608" fill-rule="evenodd" stroke="none"/>
  </g>
  <defs>
    <linearGradient gradientTransform="matrix(0.0, 0.0067, -0.0052, 0.0, -210.25, 20.75)" gradientUnits="userSpaceOnUse" id="gradient0" spreadMethod="pad" x1="-819.2" x2="819.2">
      <stop offset="0.0" stop-color="#000000" stop-opacity="0.2509804"/>
      <stop offset="1.0" stop-color="#000000" stop-opacity="0.0"/>
    </linearGradient>
    <linearGradient gradientTransform="matrix(0.0, 0.045, -0.1106, 0.0, -118.65, 54.1)" gradientUnits="userSpaceOnUse" id="gradient1" spreadMethod="pad" x1="-819.2" x2="819.2">
      <stop offset="0.0" stop-color="#000000" stop-opacity="0.2509804"/>
      <stop offset="1.0" stop-color="#000000" stop-opacity="0.0"/>
    </linearGradient>
    <linearGradient gradientTransform="matrix(0.0, 0.0087, -0.0073, 0.0, -25.35, 89.1)" gradientUnits="userSpaceOnUse" id="gradient2" spreadMethod="pad" x1="-819.2" x2="819.2">
      <stop offset="0.0" stop-color="#000000" stop-opacity="0.2509804"/>
      <stop offset="1.0" stop-color="#000000" stop-opacity="0.0"/>
    </linearGradient>
    <linearGradient gradientTransform="matrix(0.0, 0.0084, -0.0054, 0.0, -19.85, 89.4)" gradientUnits="userSpaceOnUse" id="gradient3" spreadMethod="pad" x1="-819.2" x2="819.2">
      <stop offset="0.0" stop-color="#000000" stop-opacity="0.2509804"/>
      <stop offset="1.0" stop-color="#000000" stop-opacity="0.0"/>
    </linearGradient>
    <linearGradient gradientTransform="matrix(0.0, 0.0152, -0.0117, 0.0, -7.45, 79.85)" gradientUnits="userSpaceOnUse" id="gradient4" spreadMethod="pad" x1="-819.2" x2="819.2">
      <stop offset="0.0" stop-color="#000000" stop-opacity="0.2509804"/>
      <stop offset="1.0" stop-color="#000000" stop-opacity="0.0"/>
    </linearGradient>
    <linearGradient gradientTransform="matrix(0.0, 0.0133, -0.0102, 0.0, 5.15, 78.3)" gradientUnits="userSpaceOnUse" id="gradient5" spreadMethod="pad" x1="-819.2" x2="819.2">
      <stop offset="0.0" stop-color="#000000" stop-opacity="0.2509804"/>
      <stop offset="1.0" stop-color="#000000" stop-opacity="0.0"/>
    </linearGradient>
    <linearGradient gradientTransform="matrix(0.0, 0.0157, -0.0242, 0.0, 1.1, 99.05)" gradientUnits="userSpaceOnUse" id="gradient6" spreadMethod="pad" x1="-819.2" x2="819.2">
      <stop offset="0.0" stop-color="#000000" stop-opacity="0.2509804"/>
      <stop offset="1.0" stop-color="#000000" stop-opacity="0.0"/>
    </linearGradient>
    <linearGradient gradientTransform="matrix(0.0, 0.0117, -0.0056, 0.0, 16.5, 79.9)" gradientUnits="userSpaceOnUse" id="gradient7" spreadMethod="pad" x1="-819.2" x2="819.2">
      <stop offset="0.0" stop-color="#000000" stop-opacity="0.2509804"/>
      <stop offset="1.0" stop-color="#000000" stop-opacity="0.0"/>
    </linearGradient>
    <linearGradient gradientTransform="matrix(0.0, 0.0178, -0.0047, 0.0, 24.0, 78.65)" gradientUnits="userSpaceOnUse" id="gradient8" spreadMethod="pad" x1="-819.2" x2="819.2">
      <stop offset="0.0" stop-color="#000000" stop-opacity="0.2509804"/>
      <stop offset="1.0" stop-color="#000000" stop-opacity="0.0"/>
    </linearGradient>
    <linearGradient gradientTransform="matrix(0.0, 0.0151, -0.0051, 0.0, 30.1, 74.45)" gradientUnits="userSpaceOnUse" id="gradient9" spreadMethod="pad" x1="-819.2" x2="819.2">
      <stop offset="0.0" stop-color="#000000" stop-opacity="0.2509804"/>
      <stop offset="1.0" stop-color="#000000" stop-opacity="0.0"/>
    </linearGradient>
    <linearGradient gradientTransform="matrix(0.0, 0.0126, -0.004, 0.0, 35.8, 70.85)" gradientUnits="userSpaceOnUse" id="gradient10" spreadMethod="pad" x1="-819.2" x2="819.2">
      <stop offset="0.0" stop-color="#000000" stop-opacity="0.2509804"/>
      <stop offset="1.0" stop-color="#000000" stop-opacity="0.0"/>
    </linearGradient>
    <linearGradient gradientTransform="matrix(0.0, 0.0111, -0.0117, 0.0, 29.45, 89.7)" gradientUnits="userSpaceOnUse" id="gradient11" spreadMethod="pad" x1="-819.2" x2="819.2">
      <stop offset="0.0" stop-color="#000000" stop-opacity="0.2509804"/>
      <stop offset="1.0" stop-color="#000000" stop-opacity="0.0"/>
    </linearGradient>
    <linearGradient gradientTransform="matrix(0.0, 0.062, -0.0495, 0.0, -1.6, 136.0)" gradientUnits="userSpaceOnUse" id="gradient12" spreadMethod="pad" x1="-819.2" x2="819.2">
      <stop offset="0.0" stop-color="#000000" stop-opacity="0.2509804"/>
      <stop offset="1.0" stop-color="#000000" stop-opacity="0.0"/>
    </linearGradient>
    <linearGradient gradientTransform="matrix(0.0, 0.0039, -0.0028, 0.0, 27.95, 104.5)" gradientUnits="userSpaceOnUse" id="gradient13" spreadMethod="pad" x1="-819.2" x2="819.2">
      <stop offset="0.0" stop-color="#000000" stop-opacity="0.2509804"/>
      <stop offset="1.0" stop-color="#000000" stop-opacity="0.0"/>
    </linearGradient>
    <linearGradient gradientTransform="matrix(0.0, 0.0457, -0.0368, 0.0, -12.0, 149.35)" gradientUnits="userSpaceOnUse" id="gradient14" spreadMethod="pad" x1="-819.2" x2="819.2">
      <stop offset="0.0" stop-color="#000000" stop-opacity="0.2509804"/>
      <stop offset="1.0" stop-color="#000000" stop-opacity="0.0"/>
    </linearGradient>
  </defs>
</svg>
