<?xml version="1.0" encoding="UTF-8" standalone="no"?>
<svg xmlns:xlink="http://www.w3.org/1999/xlink" height="73.9px" width="200.9px" xmlns="http://www.w3.org/2000/svg">
  <g transform="matrix(1.0, 0.0, 0.0, 1.0, -310.9, -363.6)">
    <path d="M351.15 369.3 Q353.05 367.4 352.5 369.75 352.15 371.7 350.25 375.9 L350.25 375.95 350.2 376.8 356.65 379.8 367.0 384.55 371.8 386.7 376.45 388.75 384.95 392.4 392.15 395.5 400.45 398.9 407.65 401.85 413.05 403.95 434.65 412.1 450.95 417.8 457.9 420.1 461.75 421.35 462.3 421.5 462.95 421.7 468.2 423.4 472.8 424.8 Q489.6 429.9 506.15 434.1 L511.8 435.5 Q503.6 440.1 480.45 434.25 L463.4 429.45 458.75 428.05 453.45 426.45 448.4 424.8 441.4 422.55 425.1 416.85 403.6 408.7 398.2 406.55 391.0 403.65 382.85 400.15 375.7 397.05 365.25 392.35 346.85 384.3 346.15 384.55 346.0 384.9 344.0 388.2 Q341.35 392.75 336.35 393.95 327.6 395.6 319.0 388.8 314.1 384.65 313.35 379.6 312.8 376.15 314.2 372.25 L313.6 372.0 312.25 372.05 312.2 370.05 Q310.45 370.35 311.2 367.3 L311.2 367.2 Q311.85 364.65 313.2 365.65 L313.95 363.9 Q315.0 363.15 315.35 364.3 327.2 366.3 326.65 366.75 L326.65 366.95 Q326.25 367.65 324.8 367.95 L320.8 368.65 320.6 368.75 Q318.4 369.4 317.7 371.85 L317.45 372.6 Q317.2 372.9 316.95 372.8 315.5 375.7 316.3 378.7 L319.15 377.55 Q324.15 375.55 327.25 374.85 L328.8 374.6 337.8 374.95 338.85 375.15 344.5 375.3 Q345.6 375.05 346.6 374.25 L347.35 373.45 Q349.25 371.05 351.15 369.3" fill="#ffffff" fill-rule="evenodd" stroke="none"/>
  </g>
</svg>
