<?xml version="1.0" encoding="UTF-8" standalone="no"?>
<svg xmlns:xlink="http://www.w3.org/1999/xlink" height="85.15px" width="230.3px" xmlns="http://www.w3.org/2000/svg">
  <g transform="matrix(1.0, 0.0, 0.0, 1.0, -304.35, -355.3)">
    <path d="M353.9 363.8 Q362.2 360.75 372.6 362.7 369.5 364.2 368.5 366.4 L379.85 368.55 Q367.8 373.6 362.5 384.95 L360.35 385.5 352.75 383.7 Q352.65 379.9 351.6 376.2 L350.65 373.3 Q347.85 366.0 353.9 363.8 M352.2 386.7 L361.05 388.6 358.95 396.8 Q353.4 400.1 347.3 400.2 351.4 394.05 352.2 386.7 M381.25 374.3 Q433.35 393.1 483.4 404.5 L483.75 404.6 484.25 404.75 Q501.75 409.45 515.5 411.3 L534.65 412.45 Q521.2 427.4 496.75 433.9 L459.95 440.45 Q458.4 434.95 453.5 429.0 L441.55 437.2 431.45 425.8 420.8 430.7 412.2 420.1 407.8 418.5 363.15 402.25 Q362.15 397.95 364.2 392.75 365.75 388.7 369.1 384.0 374.4 378.15 381.25 374.3 M311.75 358.6 L311.4 358.3 Q309.95 360.9 309.15 364.8 307.95 369.75 310.5 369.5 L310.95 369.55 Q306.5 371.6 304.6 376.15 303.8 367.1 305.4 358.7 306.25 354.25 308.5 355.65 L311.75 358.6 M360.45 405.75 Q350.3 408.5 341.45 404.1 L341.95 404.1 Q352.75 404.65 359.9 399.75 359.9 402.7 360.45 405.75" fill="#ffffff" fill-rule="evenodd" stroke="none"/>
  </g>
</svg>
