<?xml version="1.0" encoding="UTF-8" standalone="no"?>
<svg xmlns:xlink="http://www.w3.org/1999/xlink" height="105.4px" width="232.25px" xmlns="http://www.w3.org/2000/svg">
  <g transform="matrix(1.0, 0.0, 0.0, 1.0, -252.35, -343.25)">
    <path d="M343.25 395.35 L347.15 384.5 Q348.1 382.05 346.45 381.45 L349.05 374.4 349.1 374.35 472.5 418.9 Q480.65 421.3 483.65 428.2 486.1 434.85 482.35 440.2 L481.3 441.6 Q477.15 446.4 469.3 445.75 L451.5 444.65 Q444.8 444.85 440.5 448.65 L441.1 445.4 Q443.65 437.4 453.0 437.15 L469.05 438.3 Q471.65 438.45 474.25 436.65 L474.65 436.1 Q477.05 431.55 473.45 428.55 471.45 427.0 464.2 424.3 L462.9 423.85 460.1 422.8 453.5 420.4 362.2 387.15 354.9 384.5 354.3 384.3 Q352.75 383.8 351.85 386.2 L346.8 400.1 Q346.55 400.9 346.9 401.6 L347.25 402.1 Q349.8 406.15 351.2 410.85 352.7 416.25 351.8 420.95 L351.45 422.3 350.95 424.3 Q344.95 406.9 334.6 399.6 324.3 392.4 312.0 391.95 299.65 391.55 286.65 400.5 287.15 399.0 287.85 397.65 290.35 392.7 295.25 389.55 299.2 387.15 303.4 385.85 304.45 385.5 304.7 384.75 L309.75 370.85 Q310.7 368.5 309.1 367.85 L286.35 359.55 286.3 359.55 286.05 359.45 284.4 358.85 284.2 358.75 283.95 358.7 282.6 358.5 282.5 358.5 281.2 358.75 280.3 359.25 252.35 343.25 284.05 349.0 284.35 349.95 285.25 350.95 285.3 351.0 286.5 351.75 286.7 351.85 286.95 351.9 288.55 352.5 288.85 352.6 319.45 363.6 316.9 370.7 Q315.3 370.2 314.5 372.6 L310.45 383.65 Q310.35 384.45 311.25 384.45 317.7 384.0 324.95 385.85 334.45 388.8 341.75 395.55 342.75 396.45 343.25 395.35" fill="#ffffff" fill-rule="evenodd" stroke="none"/>
  </g>
</svg>
