<?xml version="1.0" encoding="UTF-8" standalone="no"?>
<svg xmlns:xlink="http://www.w3.org/1999/xlink" height="92.35px" width="74.45px" xmlns="http://www.w3.org/2000/svg">
  <g transform="matrix(1.0, 0.0, 0.0, 1.0, -362.65, -216.45)">
    <path d="M421.75 218.55 L424.45 216.45 427.1 218.55 Q429.7 220.65 431.8 223.05 L432.8 224.25 Q432.4 226.0 424.45 226.2 416.45 226.0 416.05 224.25 L417.05 223.05 Q419.15 220.65 421.75 218.55 M420.0 282.55 L420.25 289.2 Q419.45 290.0 418.7 289.1 L418.25 282.5 420.0 282.55 M423.35 282.6 L423.45 289.25 421.9 289.2 421.65 282.6 Q422.4 281.85 423.35 282.6 M412.25 280.9 Q412.75 280.8 413.35 281.85 L414.25 288.45 414.2 288.45 413.65 288.6 Q413.1 288.6 412.65 287.9 L411.75 281.25 Q412.0 280.9 412.25 280.9 M412.9 289.75 L413.5 289.45 Q413.95 289.4 414.4 290.1 L415.1 295.8 414.45 296.0 413.6 295.3 412.85 289.75 412.9 289.75 M415.75 290.35 Q416.4 289.55 417.2 290.55 L417.7 296.25 Q417.0 297.1 416.25 296.05 L415.75 290.4 415.75 290.35 M418.75 290.7 L418.8 290.7 Q419.5 289.9 420.3 290.8 L420.5 296.5 Q419.7 297.35 419.15 296.4 L418.75 290.7 M417.1 289.0 Q416.4 289.6 415.65 288.75 L415.0 282.15 Q415.6 281.2 416.55 282.35 L417.1 288.95 417.1 289.0 M421.95 290.85 Q422.7 289.9 423.45 290.85 L423.55 296.65 422.2 296.6 421.95 290.85 M432.3 282.35 Q433.25 281.2 433.85 282.15 L433.2 288.75 Q432.45 289.6 431.75 289.0 L431.75 288.95 432.3 282.35 M436.6 280.9 Q436.85 280.9 437.1 281.25 L436.2 287.9 435.3 288.65 435.25 288.65 434.65 288.5 434.65 288.45 435.5 281.85 Q436.05 280.95 436.5 280.9 L436.6 280.9 M430.65 282.5 L430.2 289.1 Q429.4 290.0 428.65 289.2 L428.85 282.55 430.65 282.5 M434.4 296.0 L434.35 296.0 433.75 295.8 434.5 290.1 Q434.85 289.45 435.4 289.45 435.7 289.45 436.0 289.75 L436.05 289.75 435.3 295.3 Q434.85 295.95 434.4 296.0 M425.3 296.65 L425.4 290.85 Q426.15 289.9 426.9 290.85 L426.7 296.6 425.3 296.65 M428.6 290.8 Q429.35 289.9 430.1 290.7 L429.75 296.4 Q429.15 297.35 428.4 296.5 L428.6 290.8 M433.1 290.35 L433.1 290.4 432.6 296.05 Q431.85 297.1 431.2 296.25 L431.65 290.55 Q432.45 289.55 433.1 290.35 M425.55 282.6 Q426.45 281.85 427.2 282.6 L426.95 289.2 425.4 289.3 425.55 282.6 M375.35 216.45 L378.0 218.55 Q380.65 220.65 382.75 223.05 L383.7 224.25 Q383.35 226.0 375.35 226.2 367.35 226.0 367.0 224.25 L367.95 223.05 Q370.05 220.65 372.7 218.55 L375.35 216.45 M364.3 281.85 L365.15 288.45 365.1 288.5 364.5 288.65 Q364.0 288.55 363.55 287.9 L362.65 281.25 Q362.95 280.9 363.2 280.9 L363.3 280.9 Q363.75 280.95 364.3 281.85 M364.4 289.45 Q364.9 289.45 365.3 290.1 L366.0 295.8 365.4 296.0 Q364.95 295.95 364.5 295.3 L363.75 289.75 Q364.1 289.45 364.4 289.45 M379.8 282.55 L381.55 282.5 381.1 289.1 379.55 289.2 379.8 282.55 M376.45 282.6 Q377.35 281.85 378.1 282.6 L377.85 289.2 376.35 289.25 376.3 289.25 376.45 282.6 M374.25 282.6 L374.35 289.3 372.85 289.2 372.55 282.6 Q373.3 281.85 374.25 282.6 M369.15 282.5 L370.9 282.55 371.15 289.2 Q370.35 290.0 369.6 289.1 L369.15 282.5 M367.45 282.35 L368.05 288.95 368.05 289.0 Q367.3 289.6 366.55 288.75 L365.95 282.15 Q366.55 281.2 367.45 282.35 M371.2 290.8 L371.4 296.5 Q370.65 297.35 370.05 296.4 L369.7 290.7 Q370.45 289.9 371.2 290.8 M366.7 290.35 Q367.35 289.55 368.1 290.55 L368.6 296.25 Q367.9 297.1 367.2 296.05 L366.7 290.4 366.7 290.35 M374.5 296.65 L373.1 296.6 372.85 290.85 372.9 290.85 Q373.65 289.9 374.4 290.85 L374.5 296.65 M376.2 296.65 L376.3 290.85 Q377.05 289.9 377.8 290.85 L377.6 296.6 376.2 296.65 M382.65 289.0 L382.65 288.95 383.25 282.35 Q384.15 281.2 384.75 282.15 L384.15 288.75 Q383.4 289.6 382.65 289.0 M384.0 290.35 L384.0 290.4 383.5 296.05 Q382.8 297.1 382.1 296.25 L382.6 290.55 Q383.35 289.55 384.0 290.35 M380.65 296.4 Q380.05 297.35 379.3 296.5 L379.5 290.8 Q380.25 289.9 381.0 290.7 L380.65 296.4 M385.4 290.1 Q385.8 289.4 386.3 289.45 L386.9 289.75 386.95 289.75 386.2 295.3 385.3 296.0 384.7 295.8 385.4 290.1 M386.4 281.85 Q387.0 280.8 387.55 280.9 387.75 280.9 388.0 281.25 L387.1 287.9 386.15 288.6 385.6 288.45 385.55 288.45 386.4 281.85 M375.35 308.8 Q371.1 308.85 368.0 307.4 L366.7 297.6 375.35 298.3 384.0 297.6 382.7 307.4 Q379.6 308.85 375.35 308.8 M433.1 297.6 L431.8 307.4 Q428.7 308.85 424.45 308.8 420.15 308.85 417.1 307.4 L415.75 297.6 424.45 298.3 433.1 297.6" fill="#000000" fill-rule="evenodd" stroke="none"/>
  </g>
</svg>
