<?xml version="1.0" encoding="UTF-8" standalone="no"?>
<svg xmlns:xlink="http://www.w3.org/1999/xlink" height="294.7px" width="147.05px" xmlns="http://www.w3.org/2000/svg">
  <g transform="matrix(1.0, 0.0, 0.0, 1.0, -326.4, -231.55)">
    <path d="M427.75 395.65 Q430.9 430.85 435.3 456.5 L436.05 460.7 Q442.0 493.2 450.15 509.35 461.65 528.75 467.35 525.2 473.65 521.25 472.85 489.4 471.8 431.95 465.3 374.5 L463.4 358.9 Q461.4 342.6 458.9 326.35 456.7 312.0 452.1 297.9 440.3 261.3 425.75 245.05 413.1 230.85 399.9 232.15 386.75 230.85 374.05 245.05 359.55 261.3 347.75 297.9 343.15 312.0 340.95 326.35 338.45 342.6 336.4 358.9 L334.55 374.5 Q328.0 431.95 327.0 489.4 326.2 521.25 332.5 525.2 338.2 528.75 349.7 509.35 357.8 493.2 363.75 460.7 L364.5 456.5 Q368.95 430.85 372.1 395.65 M427.75 395.65 L427.4 392.2 Q421.5 349.7 399.9 350.1 378.35 349.7 372.4 392.2 L372.1 395.65" fill="none" stroke="#000000" stroke-linecap="round" stroke-linejoin="round" stroke-width="1.0"/>
    <path d="M372.1 395.65 Q362.35 448.35 350.4 483.2 340.55 506.05 335.8 502.8 330.8 499.35 331.4 467.3 332.7 426.15 337.0 386.45 L338.4 374.5 Q340.15 359.95 342.3 345.65 L343.75 336.5 345.4 326.8 Q346.9 317.9 350.15 307.15 360.35 273.6 372.55 255.45 386.0 235.25 399.9 236.55 413.85 235.25 427.3 255.45 439.45 273.6 449.65 307.15 452.9 317.9 454.45 326.8 L456.05 336.5 457.5 345.65 Q459.65 359.95 461.45 374.5 L462.8 386.45 Q467.15 426.15 468.45 467.3 469.0 499.35 464.0 502.8 459.25 506.05 449.4 483.2 437.45 448.35 427.75 395.65 M399.9 236.55 L399.9 350.1" fill="none" stroke="#000000" stroke-linecap="round" stroke-linejoin="round" stroke-opacity="0.49803922" stroke-width="1.0"/>
  </g>
</svg>
