<?xml version="1.0" encoding="UTF-8" standalone="no"?>
<svg xmlns:xlink="http://www.w3.org/1999/xlink" height="52.05px" width="384.8px" xmlns="http://www.w3.org/2000/svg">
  <g transform="matrix(1.0, 0.0, 0.0, 1.0, -207.5, -336.05)">
    <path d="M516.5 341.25 L514.05 336.05 520.0 337.3 Q547.25 342.65 572.0 342.65 L572.45 342.65 590.9 341.8 592.3 347.0 Q591.5 353.1 590.1 358.95 587.15 371.55 581.5 383.05 L580.9 385.0 578.1 388.1 559.75 386.95 558.1 386.8 Q545.65 385.5 533.45 382.4 522.95 379.85 512.75 369.7 L514.0 363.75 516.9 342.15 516.5 341.25 M227.8 342.65 Q252.55 342.65 279.8 337.3 L285.75 336.05 283.3 341.25 282.9 342.15 285.8 363.75 287.05 369.7 Q276.85 379.85 266.35 382.4 254.15 385.5 241.7 386.8 L240.05 386.95 221.7 388.1 218.9 385.0 218.3 383.05 Q212.65 371.55 209.7 358.95 208.3 353.1 207.5 347.0 L208.9 341.8 227.35 342.65 227.8 342.65" fill="#000000" fill-rule="evenodd" stroke="none"/>
  </g>
</svg>
