<?xml version="1.0" encoding="UTF-8" standalone="no"?>
<svg xmlns:xlink="http://www.w3.org/1999/xlink" height="197.2px" width="210.3px" xmlns="http://www.w3.org/2000/svg">
  <g transform="matrix(1.0, 0.0, 0.0, 1.0, -297.5, -144.3)">
    <path d="M429.3 189.25 Q446.25 171.2 461.85 152.0 L468.0 144.3 Q490.65 149.35 507.8 156.5 497.05 170.7 485.7 184.15 457.45 217.65 425.75 246.35 415.35 255.75 404.6 264.65 L436.7 270.05 493.05 261.75 Q495.2 272.25 502.3 282.65 499.55 286.3 496.3 289.35 L496.15 289.5 Q489.75 295.4 481.35 298.8 L470.8 318.0 470.8 337.9 455.15 339.65 Q409.3 343.8 362.45 338.7 L329.0 338.7 329.0 318.0 318.45 298.8 Q312.5 296.4 307.55 292.75 L304.95 290.65 Q300.85 287.15 297.5 282.65 304.45 272.45 306.65 262.15 L349.5 262.15 Q359.15 254.6 368.5 246.75 384.7 233.15 399.9 218.75 415.1 204.4 429.3 189.25" fill="#000000" fill-rule="evenodd" stroke="none"/>
  </g>
</svg>
