<?xml version="1.0" encoding="UTF-8" standalone="no"?>
<svg xmlns:xlink="http://www.w3.org/1999/xlink" height="170.45px" width="380.8px" xmlns="http://www.w3.org/2000/svg">
  <g transform="matrix(1.0, 0.0, 0.0, 1.0, -209.45, -135.55)">
    <path d="M510.05 144.7 Q509.05 144.3 509.05 143.65 509.05 142.95 510.05 142.45 511.05 142.05 512.3 142.05 L514.65 142.45 Q515.65 142.95 515.55 143.65 515.65 144.3 514.65 144.7 L512.3 145.2 Q511.05 145.2 510.05 144.7 M508.25 139.3 L506.25 138.9 Q505.5 138.5 505.4 137.9 505.5 137.4 506.25 137.0 507.05 136.55 508.25 136.55 509.5 136.55 510.25 137.0 511.05 137.4 511.05 137.9 511.05 138.5 510.25 138.9 L508.25 139.3 M494.6 173.7 L498.25 174.4 498.35 174.4 512.9 177.5 507.8 189.25 493.35 185.75 493.2 185.7 489.85 184.95 494.6 173.7 M520.95 183.1 Q522.05 183.9 522.05 184.95 522.05 186.15 520.95 186.95 519.95 187.7 518.45 187.7 517.05 187.7 515.95 186.95 515.0 186.15 514.9 184.95 515.0 183.9 515.95 183.1 517.05 182.25 518.45 182.25 519.95 182.25 520.95 183.1 M547.9 192.95 Q583.25 194.35 583.25 182.25 L583.25 182.0 589.45 187.7 Q593.25 194.45 578.95 201.35 L563.45 208.2 Q543.35 209.85 532.3 201.35 516.9 220.8 508.15 237.2 508.05 239.35 507.4 241.55 506.0 245.65 502.25 249.5 496.9 262.55 496.65 273.1 498.1 281.0 488.2 285.85 479.3 294.4 462.15 301.75 L430.8 305.95 Q402.35 306.85 399.85 283.95 397.35 306.85 368.9 305.95 L337.55 301.75 Q320.4 294.4 311.5 285.85 301.6 281.0 303.0 273.1 302.75 262.55 297.45 249.5 293.7 245.65 292.3 241.55 291.6 239.35 291.55 237.2 282.8 220.8 267.4 201.35 256.35 209.85 236.2 208.2 L220.75 201.35 Q206.45 194.45 210.25 187.7 L216.4 182.0 216.4 182.25 Q216.4 194.35 251.75 192.95 256.75 195.4 263.0 197.8 L270.0 199.1 Q287.7 202.15 299.35 200.85 L311.65 226.4 Q313.25 232.85 313.4 239.25 L321.65 239.65 Q322.15 239.0 323.05 238.65 L323.75 238.25 337.1 236.9 Q339.8 236.2 341.35 238.65 L341.8 240.45 359.4 240.45 Q369.4 245.7 359.75 250.1 L359.4 250.3 343.95 250.4 344.35 252.25 343.85 253.8 346.95 254.35 347.05 253.8 Q349.05 251.1 351.3 253.85 L351.2 254.7 363.9 255.6 364.15 255.6 364.25 254.8 364.25 254.65 Q366.15 251.9 368.4 254.7 L367.3 270.25 367.05 270.5 366.8 270.7 Q364.9 272.2 363.25 269.95 L363.25 268.95 350.25 268.35 350.2 269.45 Q349.0 270.5 348.0 270.5 346.95 270.4 346.0 269.05 L346.1 268.15 337.45 266.6 338.35 255.6 328.7 257.0 327.95 257.1 Q325.65 258.2 324.7 255.55 L324.4 254.25 320.5 255.05 320.4 253.8 320.0 252.0 312.35 252.25 311.65 255.35 Q309.25 270.15 314.8 278.85 L314.9 278.85 320.15 277.05 320.0 276.55 Q319.65 275.4 320.15 274.7 320.5 273.95 321.4 273.5 L334.95 270.35 337.35 270.25 Q338.45 270.5 339.45 271.7 L339.8 272.6 357.85 272.3 Q366.05 277.4 358.5 282.5 L343.85 282.6 344.75 284.85 344.5 286.4 Q344.0 287.5 342.45 288.0 L332.4 290.45 Q357.5 300.75 379.8 290.55 L399.85 283.95 419.9 290.55 Q442.2 300.75 467.3 290.45 L457.25 288.0 Q455.65 287.5 455.15 286.4 454.85 285.65 454.9 284.85 L455.85 282.6 441.2 282.5 Q433.6 277.4 441.85 272.3 L459.9 272.6 460.25 271.7 Q461.25 270.5 462.3 270.25 L464.75 270.35 478.3 273.5 Q479.2 273.95 479.55 274.7 480.05 275.4 479.7 276.55 L479.55 277.05 484.8 278.85 484.85 278.85 Q490.45 270.15 488.0 255.35 L487.35 252.25 479.7 252.0 479.3 253.8 479.2 255.05 475.3 254.25 474.95 255.55 Q474.05 258.2 471.7 257.1 L470.95 257.0 461.3 255.6 462.25 266.6 453.6 268.15 453.65 269.05 Q452.75 270.4 451.65 270.5 450.65 270.5 449.5 269.45 L449.4 268.35 436.45 268.95 436.45 269.95 Q434.8 272.2 432.85 270.7 L432.6 270.5 431.55 255.25 Q433.6 252.6 435.45 254.8 L435.55 255.6 435.8 255.6 448.5 254.65 448.4 253.85 Q450.65 251.1 452.65 253.8 L452.75 254.35 455.85 253.8 Q455.4 253.05 455.35 252.25 L455.75 250.4 440.25 250.3 439.95 250.1 Q430.3 245.7 440.25 240.45 L457.9 240.45 458.3 238.65 Q459.9 236.2 462.55 236.9 L475.95 238.25 476.65 238.65 Q477.55 239.0 478.05 239.65 L486.3 239.25 Q486.45 232.85 488.0 226.4 L500.35 200.85 Q512.0 202.15 529.7 199.1 L536.7 197.8 Q542.95 195.4 547.9 192.95 M328.15 135.65 L329.3 135.55 331.7 136.0 331.9 136.0 Q332.95 136.5 332.95 137.1 332.95 137.75 331.9 138.2 L329.3 138.65 326.7 138.2 Q325.7 137.75 325.7 137.1 325.7 136.5 326.7 136.0 L328.15 135.65 M337.55 138.5 L339.1 137.9 Q342.45 136.75 345.85 136.5 L347.6 136.4 Q353.0 136.3 366.5 136.55 327.45 154.55 378.45 196.4 395.85 206.4 399.35 220.0 L399.85 222.65 400.35 220.0 Q403.85 206.4 421.2 196.4 472.2 154.55 433.2 136.55 446.7 136.3 452.1 136.4 L453.85 136.5 Q457.25 136.75 460.55 137.9 L462.15 138.5 Q467.5 142.05 468.95 148.25 469.9 151.7 469.55 156.05 468.8 167.0 460.4 183.3 L459.4 185.25 425.7 226.4 413.55 220.0 413.55 219.9 413.5 220.0 409.6 223.35 Q405.35 227.1 399.85 230.65 394.35 227.1 390.1 223.35 L386.2 220.0 386.1 219.9 386.1 220.0 373.95 226.4 340.3 185.25 339.3 183.3 Q330.9 167.0 330.15 156.05 329.8 151.7 330.7 148.25 332.2 142.05 337.55 138.5 M336.1 184.05 Q336.6 184.4 336.7 184.95 336.6 185.45 336.1 185.75 335.7 186.15 335.05 186.25 L333.85 185.75 Q333.35 185.45 333.35 184.95 333.35 184.4 333.85 184.05 334.35 183.7 335.05 183.7 335.7 183.7 336.1 184.05 M385.8 245.55 Q386.95 245.55 387.85 246.25 388.8 246.85 388.8 247.9 L388.35 249.1 387.85 249.5 Q386.95 250.2 385.8 250.2 384.45 250.2 383.6 249.5 382.7 248.8 382.7 247.9 382.7 246.85 383.6 246.25 384.45 245.55 385.8 245.55 M384.55 232.15 Q383.7 231.55 383.7 230.65 383.7 229.75 384.55 229.1 385.45 228.5 386.6 228.5 387.8 228.5 388.6 229.1 389.55 229.75 389.55 230.65 389.55 231.55 388.6 232.15 387.8 232.9 386.6 232.9 385.45 232.9 384.55 232.15 M448.75 285.75 Q448.85 285.25 449.35 284.85 449.75 284.45 450.4 284.45 451.1 284.45 451.6 284.85 452.1 285.25 452.1 285.75 L451.6 286.6 450.4 287.0 Q449.75 286.95 449.35 286.6 L448.75 285.75 M444.75 275.95 Q442.2 277.15 444.75 278.4 L457.6 278.3 458.5 275.95 444.75 275.95 M417.15 277.15 Q418.4 277.15 419.3 277.75 420.15 278.4 420.05 279.4 420.15 280.3 419.3 280.95 418.4 281.7 417.15 281.7 415.9 281.7 415.05 280.95 414.25 280.4 414.15 279.6 L414.15 279.4 Q414.15 278.4 415.05 277.75 415.9 277.15 417.15 277.15 M412.05 261.95 L412.75 261.15 Q413.65 260.45 414.9 260.5 416.15 260.45 417.05 261.15 418.0 261.85 418.0 262.85 418.0 263.8 417.05 264.5 416.15 265.15 414.9 265.15 413.65 265.15 412.75 264.5 411.9 263.8 411.8 262.85 L412.05 261.95 M411.8 246.25 Q412.75 245.55 413.9 245.55 415.25 245.55 416.05 246.25 417.0 246.85 417.0 247.9 417.0 248.8 416.05 249.5 415.25 250.2 413.9 250.2 412.75 250.2 411.8 249.5 L411.3 249.1 Q410.9 248.55 410.9 247.9 410.9 246.85 411.8 246.25 M415.15 229.1 Q416.0 229.75 416.0 230.65 416.0 231.55 415.15 232.15 414.25 232.9 413.05 232.9 411.9 232.9 411.05 232.15 410.15 231.55 410.15 230.65 410.15 229.75 411.05 229.1 411.9 228.5 413.05 228.5 414.25 228.5 415.15 229.1 M456.5 246.95 L457.15 243.9 443.85 243.7 Q440.45 245.25 443.85 246.85 L456.5 246.95 M474.7 208.15 Q475.8 208.95 475.8 210.15 475.8 211.2 474.7 212.0 473.7 212.75 472.2 212.8 470.7 212.75 469.7 212.0 468.7 211.2 468.65 210.15 468.7 208.95 469.7 208.15 470.7 207.3 472.2 207.4 473.7 207.3 474.7 208.15 M481.1 209.15 Q482.2 208.3 483.55 208.3 484.95 208.3 486.05 209.15 487.0 209.95 487.0 211.05 487.0 212.0 486.05 212.8 484.95 213.65 483.55 213.65 482.2 213.65 481.1 212.8 480.1 212.0 480.05 211.05 480.1 209.95 481.1 209.15 M477.95 195.75 Q479.2 195.7 480.1 196.4 481.05 197.1 481.05 198.1 481.05 199.1 480.1 199.75 479.2 200.5 477.95 200.5 476.7 200.5 475.8 199.75 474.8 199.1 474.8 198.1 474.8 197.1 475.8 196.4 476.7 195.7 477.95 195.75 M463.55 184.05 Q464.0 183.7 464.65 183.7 465.3 183.7 465.8 184.05 466.3 184.4 466.3 184.95 466.3 185.45 465.8 185.75 L464.65 186.25 463.55 185.75 Q463.05 185.45 463.0 184.95 463.05 184.4 463.55 184.05 M477.3 146.3 Q478.3 145.7 479.55 145.8 480.85 145.7 481.85 146.3 482.85 146.65 482.8 147.35 482.85 148.1 481.85 148.55 L479.55 149.05 Q478.3 149.05 477.3 148.55 476.3 148.1 476.3 147.35 476.3 146.65 477.3 146.3 M471.55 135.65 L472.95 136.0 Q473.95 136.5 473.95 137.1 473.95 137.75 472.95 138.2 L470.4 138.65 467.8 138.2 Q466.75 137.75 466.75 137.1 466.75 136.5 467.8 136.0 L467.95 136.0 470.4 135.55 471.55 135.65 M327.45 212.8 Q325.95 212.75 324.95 212.0 323.9 211.2 323.9 210.15 323.9 208.95 324.95 208.15 325.95 207.3 327.45 207.4 328.95 207.3 329.95 208.15 330.95 208.95 331.05 210.15 330.95 211.2 329.95 212.0 328.95 212.75 327.45 212.8 M341.2 275.95 L342.1 278.3 354.9 278.4 Q357.5 277.15 354.9 275.95 L341.2 275.95 M342.55 243.9 L343.2 246.95 355.85 246.85 Q359.25 245.25 355.85 243.7 L342.55 243.9 M350.95 285.75 L350.35 286.6 349.25 287.0 Q348.6 286.95 348.1 286.6 347.6 286.2 347.6 285.75 347.6 285.25 348.1 284.85 348.6 284.45 349.25 284.45 349.95 284.45 350.35 284.85 L350.95 285.75 M387.6 261.95 L387.85 262.85 Q387.8 263.8 386.95 264.5 386.05 265.15 384.8 265.15 383.55 265.15 382.6 264.5 381.7 263.8 381.7 262.85 381.7 261.85 382.6 261.15 383.55 260.45 384.8 260.5 386.05 260.45 386.95 261.15 L387.6 261.95 M384.6 277.75 Q385.55 278.4 385.55 279.4 L385.55 279.6 Q385.45 280.4 384.6 280.95 383.8 281.7 382.55 281.7 381.3 281.7 380.4 280.95 379.55 280.3 379.65 279.4 379.55 278.4 380.4 277.75 381.3 277.15 382.55 277.15 383.8 277.15 384.6 277.75 M288.6 137.9 Q288.6 137.4 289.45 137.0 290.2 136.55 291.45 136.55 L293.45 137.0 Q294.2 137.4 294.3 137.9 294.2 138.5 293.45 138.9 L291.45 139.3 Q290.2 139.3 289.45 138.9 288.6 138.5 288.6 137.9 M284.15 143.65 Q284.05 142.95 285.05 142.45 L287.35 142.05 289.6 142.45 Q290.6 142.95 290.6 143.65 290.6 144.3 289.6 144.7 L287.35 145.2 285.05 144.7 Q284.05 144.3 284.15 143.65 M317.8 146.3 Q318.8 145.7 320.15 145.8 321.4 145.7 322.4 146.3 323.4 146.65 323.4 147.35 323.4 148.1 322.4 148.55 L320.15 149.05 317.8 148.55 Q316.8 148.1 316.9 147.35 316.8 146.65 317.8 146.3 M278.7 183.1 Q279.7 182.25 281.2 182.25 282.65 182.25 283.7 183.1 284.7 183.9 284.8 184.95 284.7 186.15 283.7 186.95 282.65 187.7 281.2 187.7 279.7 187.7 278.7 186.95 277.65 186.15 277.65 184.95 277.65 183.9 278.7 183.1 M301.45 174.4 L305.1 173.7 309.85 184.95 306.5 185.7 306.35 185.75 291.85 189.25 286.8 177.5 301.35 174.4 301.45 174.4 M321.75 195.75 Q323.0 195.7 323.9 196.4 324.9 197.1 324.9 198.1 324.9 199.1 323.9 199.75 323.0 200.5 321.75 200.5 320.5 200.5 319.55 199.75 318.65 199.1 318.65 198.1 318.65 197.1 319.55 196.4 320.5 195.7 321.75 195.75 M318.55 209.15 Q319.55 209.95 319.65 211.05 319.55 212.0 318.55 212.8 317.5 213.65 316.15 213.65 314.75 213.65 313.65 212.8 312.65 212.0 312.65 211.05 312.65 209.95 313.65 209.15 314.75 208.3 316.15 208.3 317.5 208.3 318.55 209.15" fill="#000000" fill-rule="evenodd" stroke="none"/>
  </g>
</svg>
