<?xml version="1.0" encoding="UTF-8" standalone="no"?>
<svg xmlns:xlink="http://www.w3.org/1999/xlink" height="237.55px" width="342.8px" xmlns="http://www.w3.org/2000/svg">
  <g transform="matrix(1.0, 0.0, 0.0, 1.0, -228.5, -117.1)">
    <path d="M506.1 155.8 L505.7 155.65 Q489.95 149.3 469.75 144.7 L468.9 142.15 Q461.0 120.8 423.55 117.6 424.15 122.85 424.2 131.8 L424.2 132.1 424.2 132.4 424.15 134.1 Q469.5 151.8 449.1 201.7 439.55 223.75 437.3 247.15 431.1 288.6 432.25 354.15 L435.35 354.15 Q451.0 352.6 463.55 348.05 471.15 345.3 477.6 341.45 L483.8 300.65 502.3 282.65 Q494.2 270.8 492.55 258.75 514.35 199.95 570.8 176.05 546.6 159.4 506.1 155.8 M364.45 354.15 L367.55 354.15 Q368.7 288.6 362.5 247.15 360.25 223.75 350.7 201.7 330.3 151.8 375.65 134.1 L375.6 132.4 375.6 132.1 375.6 131.8 Q375.65 122.85 376.25 117.6 338.8 120.8 330.9 142.15 L330.05 144.7 M364.45 354.15 Q348.8 352.6 336.25 348.05 328.65 345.3 322.2 341.45 L316.0 300.65 297.5 282.65 Q305.6 270.8 307.25 258.75 285.45 199.95 229.0 176.05 253.2 159.4 293.7 155.8 L294.1 155.65 Q309.85 149.3 330.05 144.7" fill="none" stroke="#000000" stroke-linecap="round" stroke-linejoin="round" stroke-width="1.0"/>
    <path d="M506.1 155.8 Q511.3 157.9 515.95 160.15 M469.75 144.7 Q473.75 157.9 470.6 177.7 466.55 203.75 450.85 231.65 435.15 259.5 435.35 354.15 M330.05 144.7 Q326.05 157.9 329.2 177.7 333.25 203.75 348.95 231.65 364.65 259.5 364.45 354.15 M293.7 155.8 Q288.5 157.9 283.85 160.15" fill="none" stroke="#000000" stroke-linecap="round" stroke-linejoin="round" stroke-opacity="0.5019608" stroke-width="1.0"/>
  </g>
</svg>
