<?xml version="1.0" encoding="UTF-8" standalone="no"?>
<svg xmlns:xlink="http://www.w3.org/1999/xlink" height="235.85px" width="385.8px" xmlns="http://www.w3.org/2000/svg">
  <g transform="matrix(1.0, 0.0, 0.0, 1.0, -207.0, -152.75)">
    <path d="M515.95 160.15 Q513.7 159.05 511.3 158.0 505.65 155.5 499.35 153.25 482.05 160.8 474.15 163.8 L474.1 163.8 Q473.8 163.85 473.35 164.05 439.2 177.05 404.95 177.8 L402.3 177.8 401.75 177.8 400.55 177.8 400.05 177.8 399.75 177.8 399.25 177.8 398.05 177.8 397.5 177.8 394.85 177.8 Q360.6 177.05 326.45 164.05 L325.7 163.8 325.65 163.8 Q317.75 160.8 300.45 153.25 294.15 155.5 288.5 158.0 286.1 159.05 283.85 160.15 M515.95 160.15 Q543.05 166.0 559.2 179.5 L563.7 183.6 Q588.55 208.4 581.65 255.3 580.5 263.5 578.25 272.4 594.25 293.5 592.0 318.85 L590.9 341.8 592.3 347.0 Q591.5 353.1 590.1 358.95 587.15 371.55 581.5 383.05 L580.9 385.0 578.1 388.1 559.75 386.95 558.1 386.8 Q545.65 385.5 533.45 382.4 522.95 379.85 512.75 369.7 L514.0 363.75 516.9 342.15 516.5 341.25 514.0 336.05 M514.05 336.05 Q510.6 329.3 505.9 322.55 L505.65 322.2 Q495.75 308.7 502.1 292.75 503.35 289.7 505.1 286.65 L502.3 282.65 Q494.1 293.65 481.35 298.8 L470.8 318.0 470.8 338.3 Q450.55 342.15 430.25 343.7 L424.65 344.05 Q412.3 344.8 399.9 344.65 387.5 344.8 375.15 344.05 L369.55 343.7 Q349.25 342.15 329.0 338.3 L329.0 318.0 318.45 298.8 Q305.7 293.65 297.5 282.65 L294.7 286.65 Q296.45 289.7 297.7 292.75 304.05 308.7 294.15 322.2 L293.9 322.55 Q289.2 329.3 285.75 336.05 L283.3 341.25 282.9 342.15 285.8 363.75 287.05 369.7 Q276.85 379.85 266.35 382.4 254.15 385.5 241.7 386.8 L240.05 386.95 221.7 388.1 218.9 385.0 218.3 383.05 Q212.65 371.55 209.7 358.95 208.3 353.1 207.5 347.0 L208.9 341.8 207.8 318.85 Q205.55 293.5 221.55 272.4 219.3 263.5 218.15 255.3 211.25 208.4 236.1 183.6 L240.6 179.5 Q256.75 166.0 283.85 160.15 M285.8 336.05 L283.3 341.25 M516.5 341.25 L514.05 336.05" fill="none" stroke="#000000" stroke-linecap="round" stroke-linejoin="round" stroke-width="1.0"/>
    <path d="M283.85 160.15 Q277.25 164.05 273.55 167.95 M526.25 167.95 Q522.55 164.05 515.95 160.15 M506.45 208.35 Q496.75 233.15 492.55 258.75 494.2 270.8 502.3 282.65 M505.1 286.65 Q511.25 294.6 520.35 302.6 M293.35 208.35 Q303.05 233.15 307.25 258.75 305.6 270.8 297.5 282.65 M294.7 286.65 Q288.55 294.6 279.45 302.6" fill="none" stroke="#000000" stroke-linecap="round" stroke-linejoin="round" stroke-opacity="0.5019608" stroke-width="1.0"/>
    <path d="M511.3 158.0 Q490.4 166.45 479.65 170.25 L479.5 170.25 474.15 172.1 Q442.3 182.4 410.8 183.75 L400.9 183.9 400.55 183.9 400.05 183.9 399.75 183.9 399.25 183.9 398.9 183.9 389.0 183.75 Q357.5 182.4 325.65 172.1 L320.3 170.25 320.15 170.25 Q309.4 166.45 288.5 158.0 M514.0 336.05 L514.05 336.05 520.0 337.3 Q547.25 342.65 572.0 342.65 L572.45 342.65 590.9 341.8 M285.75 336.05 L285.8 336.05 M497.45 168.8 Q498.8 168.0 500.3 168.05 502.05 168.0 504.1 169.1 507.9 171.15 510.35 175.4 512.95 179.75 512.65 183.95 512.55 188.3 509.65 189.95 506.8 191.55 503.0 189.55 499.3 187.65 496.75 183.3 494.25 178.95 494.45 174.65 494.65 170.9 496.85 169.25 497.2 168.95 497.45 168.8 M559.2 179.5 L545.45 186.2 Q534.25 191.5 523.1 196.1 L518.7 197.75 514.75 199.4 509.25 201.4 Q491.7 207.75 474.15 212.15 440.4 220.65 407.45 221.85 L392.35 221.85 Q359.4 220.65 325.65 212.15 308.1 207.75 290.55 201.4 L285.05 199.4 281.1 197.75 276.7 196.1 Q265.55 191.5 254.35 186.2 247.45 183.0 240.6 179.5 M236.1 183.6 L237.65 184.35 Q251.95 191.7 266.15 197.75 L267.1 198.25 276.7 202.15 285.05 205.35 293.35 208.35 Q309.65 213.95 325.65 218.0 345.7 223.0 365.45 225.4 L371.75 226.15 391.5 227.65 393.9 227.7 396.3 227.7 398.1 227.7 401.7 227.7 403.5 227.7 405.9 227.7 408.3 227.65 428.05 226.15 434.35 225.4 Q454.1 223.0 474.15 218.0 490.15 213.95 506.45 208.35 L514.75 205.35 523.1 202.15 532.7 198.25 Q533.1 197.95 533.65 197.75 547.85 191.7 562.15 184.35 L563.7 183.6 M350.1 197.75 L349.8 198.5 Q348.05 203.2 344.75 205.65 341.25 208.2 338.3 207.1 335.15 205.95 334.25 201.85 333.85 199.85 334.05 197.75 334.2 195.45 335.1 193.0 336.85 188.25 340.25 185.65 343.55 183.1 346.65 184.25 349.75 185.4 350.7 189.55 351.5 193.45 350.1 197.75 M398.4 215.25 L398.65 215.15 399.2 215.25 398.65 215.25 398.4 215.25 398.1 215.25 397.95 215.25 397.65 215.25 Q396.05 215.25 394.85 214.2 393.65 213.3 392.55 211.6 390.3 208.05 390.3 203.05 390.3 200.15 391.05 197.75 391.6 196.0 392.55 194.4 393.65 192.8 394.85 191.55 396.05 190.9 397.65 190.9 L398.05 190.9 398.1 190.9 398.4 190.95 398.65 190.9 399.2 190.9 398.65 190.95 398.4 190.95 M401.4 190.95 L401.15 190.95 400.6 190.9 401.15 190.9 401.4 190.95 401.7 190.9 401.75 190.9 402.15 190.9 Q403.75 190.9 404.95 191.55 L407.25 194.4 Q408.2 196.0 408.75 197.75 409.5 200.15 409.5 203.05 409.5 208.05 407.25 211.6 406.15 213.3 404.95 214.2 403.75 215.25 402.15 215.25 L401.85 215.25 401.7 215.25 401.4 215.25 401.15 215.25 400.6 215.25 401.15 215.15 401.4 215.25 M453.15 184.25 Q450.05 185.4 449.1 189.55 448.3 193.45 449.7 197.75 L450.0 198.5 Q451.75 203.2 455.05 205.65 458.55 208.2 461.5 207.1 464.65 205.95 465.55 201.85 465.95 199.85 465.75 197.75 465.6 195.45 464.7 193.0 462.95 188.25 459.55 185.65 456.25 183.1 453.15 184.25 M398.4 277.7 Q398.5 277.55 398.65 277.55 L399.2 277.7 398.65 277.7 398.4 277.7 398.1 277.7 398.05 277.7 397.65 277.7 Q396.05 277.7 394.85 276.95 L392.55 274.0 Q390.3 270.5 390.3 265.45 390.3 260.45 392.55 256.85 393.65 255.25 394.85 254.4 396.05 253.3 397.65 253.3 L398.05 253.3 398.1 253.3 398.4 253.35 398.65 253.3 399.2 253.3 399.4 253.3 399.5 253.3 399.55 253.3 399.75 253.3 399.85 253.35 399.9 253.35 400.0 253.35 400.05 253.3 400.25 253.3 400.3 253.3 400.4 253.3 400.6 253.3 401.15 253.3 401.4 253.35 401.7 253.3 401.75 253.3 402.15 253.3 Q403.75 253.3 404.95 254.4 406.15 255.25 407.25 256.85 409.5 260.45 409.5 265.45 409.5 270.5 407.25 274.0 L404.95 276.95 Q403.75 277.7 402.15 277.7 L401.75 277.7 401.7 277.7 401.4 277.7 401.15 277.7 400.6 277.7 401.15 277.55 401.4 277.7 M399.9 253.35 L399.95 253.35 400.0 253.35 400.25 253.3 M400.6 253.3 L401.15 253.35 401.4 253.35 M398.4 253.35 L398.65 253.35 399.2 253.3 M399.55 253.3 L399.85 253.35 399.9 253.35 M399.25 330.5 L398.65 330.45 398.4 330.5 398.05 330.5 397.85 330.5 397.65 330.5 Q396.05 330.5 394.85 329.85 L392.55 326.9 Q390.3 323.4 390.3 318.35 390.3 316.2 390.7 314.2 391.25 311.8 392.55 309.75 393.65 308.1 394.85 307.25 396.05 306.2 397.65 306.2 L398.05 306.2 398.1 306.2 398.4 306.3 398.65 306.3 399.25 306.2 399.4 306.2 399.75 306.2 399.85 306.3 399.9 306.3 399.95 306.3 400.05 306.2 400.4 306.2 400.55 306.2 401.15 306.3 401.4 306.3 401.7 306.2 401.75 306.2 402.15 306.2 Q403.75 306.2 404.95 307.25 406.15 308.1 407.25 309.75 408.55 311.8 409.1 314.2 409.5 316.2 409.5 318.35 409.5 323.4 407.25 326.9 L404.95 329.85 Q403.75 330.5 402.15 330.5 L401.95 330.5 401.75 330.5 401.4 330.5 401.15 330.45 400.55 330.5 M369.55 343.7 L365.45 225.4 M375.15 344.05 L371.75 226.15 M434.35 225.4 L430.25 343.7 M424.65 344.05 L428.05 226.15 M592.3 347.0 L590.75 347.1 590.65 347.1 Q580.95 347.6 571.0 347.6 548.4 347.3 524.75 343.55 L522.25 343.1 516.9 342.15 M558.45 370.9 Q559.55 373.45 561.95 374.6 L563.1 374.95 563.5 375.05 Q567.2 375.7 570.9 373.35 574.4 370.95 575.95 366.9 577.45 362.75 575.95 359.3 574.45 355.95 570.9 355.25 L568.95 355.0 568.0 355.1 Q565.9 355.4 563.5 356.9 559.95 359.25 558.45 363.45 556.9 367.5 558.45 370.9 M539.6 367.1 Q542.3 364.1 542.3 359.9 542.3 355.6 539.6 352.55 537.05 349.55 533.25 349.55 531.05 349.55 529.1 350.75 L529.05 350.75 Q527.9 351.4 526.85 352.55 524.2 355.6 524.2 359.9 524.2 364.1 526.85 367.1 529.45 370.15 533.25 370.15 537.05 370.15 539.6 367.1 M514.0 363.75 Q525.75 376.5 548.0 379.8 570.25 383.05 579.7 383.05 L581.5 383.05 M299.5 168.05 Q297.75 168.0 295.7 169.1 291.9 171.15 289.45 175.4 286.85 179.75 287.15 183.95 287.25 188.3 290.15 189.95 293.0 191.55 296.8 189.55 300.5 187.65 303.05 183.3 305.55 178.95 305.35 174.65 305.15 170.9 302.95 169.25 L302.35 168.8 Q301.0 168.0 299.5 168.05 M208.9 341.8 L227.35 342.65 227.8 342.65 Q252.55 342.65 279.8 337.3 L285.75 336.05 M231.8 355.1 Q233.9 355.4 236.3 356.9 239.85 359.25 241.35 363.45 242.9 367.5 241.35 370.9 240.25 373.45 237.85 374.6 L236.7 374.95 236.3 375.05 Q232.6 375.7 228.9 373.35 225.4 370.95 223.85 366.9 222.35 362.75 223.85 359.3 225.35 355.95 228.9 355.25 L230.85 355.0 231.8 355.1 M207.5 347.0 L209.05 347.1 209.15 347.1 Q218.85 347.6 228.8 347.6 251.4 347.3 275.05 343.55 L277.55 343.1 282.9 342.15 M285.8 363.75 Q274.05 376.5 251.8 379.8 229.55 383.05 220.1 383.05 L218.3 383.05 M270.75 350.75 Q271.9 351.4 272.95 352.55 275.6 355.6 275.6 359.9 275.6 364.1 272.95 367.1 270.35 370.15 266.55 370.15 262.75 370.15 260.2 367.1 257.5 364.1 257.5 359.9 257.5 355.6 260.2 352.55 262.75 349.55 266.55 349.55 268.75 349.55 270.7 350.75 L270.75 350.75" fill="none" stroke="#000000" stroke-linecap="round" stroke-linejoin="round" stroke-opacity="0.49803922" stroke-width="1.0"/>
  </g>
</svg>
