<?xml version="1.0" encoding="UTF-8" standalone="no"?>
<svg xmlns:xlink="http://www.w3.org/1999/xlink" height="228.95px" width="385.8px" xmlns="http://www.w3.org/2000/svg">
  <g transform="matrix(1.0, 0.0, 0.0, 1.0, -207.0, -159.65)">
    <path d="M590.9 341.8 L592.0 318.85 Q594.25 293.5 578.25 272.4 580.5 263.5 581.65 255.3 593.15 176.85 515.95 160.15 522.55 164.05 526.25 167.95 L522.25 174.95 Q499.6 215.7 492.55 258.75 494.2 270.8 502.3 282.65 L505.1 286.65 Q503.35 289.7 502.1 292.75 495.75 308.7 505.65 322.2 L505.9 322.55 Q510.6 329.3 514.05 336.05 L516.5 341.25 514.0 336.05 M590.9 341.8 L592.3 347.0 Q591.5 353.1 590.1 358.95 587.15 371.55 581.5 383.05 L580.9 385.0 578.1 388.1 559.75 386.95 558.1 386.8 Q545.65 385.5 533.45 382.4 522.95 379.85 512.75 369.7 L514.0 363.75 516.9 342.15 516.5 341.25 M294.7 286.65 L297.5 282.65 Q305.6 270.8 307.25 258.75 300.2 215.7 277.55 174.95 L273.55 167.95 Q277.25 164.05 283.85 160.15 206.65 176.85 218.15 255.3 219.3 263.5 221.55 272.4 205.55 293.5 207.8 318.85 L208.9 341.8 M285.75 336.05 Q289.2 329.3 293.9 322.55 L294.15 322.2 Q304.05 308.7 297.7 292.75 296.45 289.7 294.7 286.65 M207.5 347.0 Q208.3 353.1 209.7 358.95 212.65 371.55 218.3 383.05 L218.9 385.0 221.7 388.1 240.05 386.95 241.7 386.8 Q254.15 385.5 266.35 382.4 276.85 379.85 287.05 369.7 L285.8 363.75 282.9 342.15 M207.5 347.0 L208.9 341.8 M285.75 336.05 L283.3 341.25 285.8 336.05 M283.3 341.25 L282.9 342.15" fill="none" stroke="#000000" stroke-linecap="round" stroke-linejoin="round" stroke-width="1.0"/>
    <path d="M505.1 286.65 Q511.25 294.6 520.35 302.6 M294.7 286.65 Q288.55 294.6 279.45 302.6" fill="none" stroke="#000000" stroke-linecap="round" stroke-linejoin="round" stroke-opacity="0.5019608" stroke-width="1.0"/>
    <path d="M514.05 336.05 L520.0 337.3 Q547.25 342.65 572.0 342.65 L572.45 342.65 590.9 341.8 M514.0 336.05 L514.05 336.05 M592.3 347.0 L590.75 347.1 590.65 347.1 Q580.95 347.6 571.0 347.6 548.4 347.3 524.75 343.55 L522.25 343.1 516.9 342.15 M558.45 370.9 Q559.55 373.45 561.95 374.6 L563.1 374.95 563.5 375.05 Q567.2 375.7 570.9 373.35 574.4 370.95 575.95 366.9 577.45 362.75 575.95 359.3 574.45 355.95 570.9 355.25 L568.95 355.0 568.0 355.1 Q565.9 355.4 563.5 356.9 559.95 359.25 558.45 363.45 556.9 367.5 558.45 370.9 M539.6 367.1 Q542.3 364.1 542.3 359.9 542.3 355.6 539.6 352.55 537.05 349.55 533.25 349.55 531.05 349.55 529.1 350.75 L529.05 350.75 Q527.9 351.4 526.85 352.55 524.2 355.6 524.2 359.9 524.2 364.1 526.85 367.1 529.45 370.15 533.25 370.15 537.05 370.15 539.6 367.1 M514.0 363.75 Q525.75 376.5 548.0 379.8 570.25 383.05 579.7 383.05 L581.5 383.05 M208.9 341.8 L227.35 342.65 227.8 342.65 Q252.55 342.65 279.8 337.3 L285.75 336.05 M231.8 355.1 Q233.9 355.4 236.3 356.9 239.85 359.25 241.35 363.45 242.9 367.5 241.35 370.9 240.25 373.45 237.85 374.6 L236.7 374.95 236.3 375.05 Q232.6 375.7 228.9 373.35 225.4 370.95 223.85 366.9 222.35 362.75 223.85 359.3 225.35 355.95 228.9 355.25 L230.85 355.0 231.8 355.1 M218.3 383.05 L220.1 383.05 Q229.55 383.05 251.8 379.8 274.05 376.5 285.8 363.75 M282.9 342.15 L277.55 343.1 275.05 343.55 Q251.4 347.3 228.8 347.6 218.85 347.6 209.15 347.1 L209.05 347.1 207.5 347.0 M285.8 336.05 L285.75 336.05 M270.75 350.75 Q271.9 351.4 272.95 352.55 275.6 355.6 275.6 359.9 275.6 364.1 272.95 367.1 270.35 370.15 266.55 370.15 262.75 370.15 260.2 367.1 257.5 364.1 257.5 359.9 257.5 355.6 260.2 352.55 262.75 349.55 266.55 349.55 268.75 349.55 270.7 350.75 L270.75 350.75" fill="none" stroke="#000000" stroke-linecap="round" stroke-linejoin="round" stroke-opacity="0.49803922" stroke-width="1.0"/>
  </g>
</svg>
