<?xml version="1.0" encoding="UTF-8" standalone="no"?>
<svg xmlns:xlink="http://www.w3.org/1999/xlink" height="212.65px" width="100.7px" xmlns="http://www.w3.org/2000/svg">
  <g transform="matrix(1.0, 0.0, 0.0, 1.0, -207.05, -159.65)">
    <path d="M219.2 261.7 Q242.9 266.95 254.0 278.5 240.15 317.15 246.75 366.85 L247.45 368.75" fill="none" stroke="#000000" stroke-linecap="round" stroke-linejoin="round" stroke-opacity="0.5019608" stroke-width="1.0"/>
    <path d="M247.45 368.75 Q259.25 366.15 271.05 361.4 L277.8 358.2 Q281.55 340.2 294.15 322.2 L294.3 321.95 Q296.65 318.7 298.05 315.35 302.3 305.15 298.05 293.65 L297.7 292.75 Q296.45 289.7 294.7 286.65 L297.5 282.65 Q305.6 270.8 307.25 258.75 299.6 212.0 273.55 167.95 L283.85 160.15 Q206.65 176.85 218.15 255.3 L219.2 261.7 M247.45 368.75 Q230.55 372.4 213.7 371.7 L210.25 371.4 207.8 318.85 207.55 313.5 Q207.25 291.3 221.55 272.4 220.15 266.9 219.2 261.7 Z" fill="none" stroke="#000000" stroke-linecap="round" stroke-linejoin="round" stroke-width="1.0"/>
  </g>
</svg>
