<?xml version="1.0" encoding="UTF-8" standalone="no"?>
<svg xmlns:xlink="http://www.w3.org/1999/xlink" height="216.85px" width="206.2px" xmlns="http://www.w3.org/2000/svg">
  <g transform="matrix(1.0, 0.0, 0.0, 1.0, -296.8, -126.45)">
    <path d="M485.15 148.65 L478.65 159.35 478.55 160.25 Q478.55 162.9 481.55 164.8 484.5 166.7 488.75 166.7 492.5 166.7 495.3 165.25 L496.0 164.8 Q498.15 163.4 498.75 161.65 L498.65 153.0 M468.55 284.05 Q471.3 273.3 474.9 262.85 M495.8 136.1 L495.8 160.05 Q493.65 161.6 491.35 162.05 487.4 162.8 483.05 160.05 M467.05 213.45 Q467.05 215.55 468.9 217.15 L470.05 218.0 Q473.0 219.9 477.25 219.9 481.5 219.9 484.5 218.0 486.7 216.55 487.25 214.7 L487.3 213.65 485.0 190.0 467.15 212.65 467.05 213.45 M482.65 198.45 L483.65 213.2 Q478.35 217.8 471.45 213.6 M471.95 266.3 L468.95 245.3 451.95 264.35 451.7 265.55 Q451.7 268.2 454.7 270.1 455.95 270.9 457.4 271.35 L461.9 272.0 Q466.15 272.0 469.15 270.1 471.35 268.65 471.9 266.8 L471.95 266.3 M467.15 252.5 L468.4 265.7 Q462.9 270.45 457.4 266.4 L456.55 265.7 M330.9 217.15 L329.75 218.0 Q326.8 219.9 322.55 219.9 318.3 219.9 315.3 218.0 313.1 216.55 312.55 214.7 L312.5 213.65 314.8 190.0 332.65 212.65 332.75 213.45 Q332.75 215.55 330.9 217.15 M345.1 270.1 Q343.85 270.9 342.4 271.35 L337.9 272.0 Q333.65 272.0 330.65 270.1 328.45 268.65 327.9 266.8 L327.85 266.3 330.85 245.3 347.85 264.35 348.1 265.55 Q348.1 268.2 345.1 270.1 M314.65 148.65 L321.15 159.35 321.25 160.25 Q321.25 162.9 318.25 164.8 315.3 166.7 311.05 166.7 307.3 166.7 304.5 165.25 L303.8 164.8 Q301.65 163.4 301.05 161.65 L301.15 153.0 M324.9 262.85 Q328.5 273.3 331.25 284.05 M332.65 252.5 L331.4 265.7 Q336.9 270.45 342.4 266.4 L343.25 265.7 M304.0 136.1 L304.0 160.05 Q306.15 161.6 308.45 162.05 312.4 162.8 316.75 160.05 M317.15 198.45 L316.15 213.2 Q321.45 217.8 328.35 213.6" fill="none" stroke="#000000" stroke-linecap="round" stroke-linejoin="round" stroke-opacity="0.49803922" stroke-width="1.0"/>
    <path d="M498.65 153.0 L498.45 126.95 485.15 148.65 476.5 146.35 Q468.65 197.35 453.6 250.2 L451.3 258.7 Q448.7 269.1 446.65 279.7 440.7 310.65 439.9 342.8 L459.8 340.25 Q461.5 311.35 468.55 284.05 481.9 287.2 493.85 291.5 498.55 287.65 502.3 282.65 497.15 275.1 494.6 267.5 484.75 264.9 474.9 262.85 L476.5 258.25 Q498.3 204.6 502.5 154.4 L498.65 153.0 M331.25 284.05 Q338.3 311.35 340.0 340.25 L359.9 342.8 Q359.1 310.65 353.15 279.7 351.1 269.1 348.5 258.7 L346.2 250.2 Q331.15 197.35 323.3 146.35 L314.65 148.65 301.35 126.95 301.15 153.0 297.3 154.4 Q301.5 204.6 323.3 258.25 L324.9 262.85 M331.25 284.05 Q317.9 287.2 305.95 291.5 301.25 287.65 297.5 282.65 302.65 275.1 305.2 267.5 315.05 264.9 324.9 262.85" fill="none" stroke="#000000" stroke-linecap="round" stroke-linejoin="round" stroke-width="1.0"/>
  </g>
</svg>
