<?xml version="1.0" encoding="UTF-8" standalone="no"?>
<svg xmlns:xlink="http://www.w3.org/1999/xlink" height="166.9px" width="181.6px" xmlns="http://www.w3.org/2000/svg">
  <g transform="matrix(1.0, 0.0, 0.0, 1.0, 90.9, 133.7)">
    <path d="M47.65 -65.6 L45.6 -72.8 51.05 -72.25 47.65 -65.6 M50.3 -82.9 L47.4 -90.9 53.6 -90.35 50.3 -82.9 M74.3 -88.05 L70.5 -80.6 68.25 -88.8 74.3 -88.05 M11.25 -104.3 L8.8 -110.85 -0.1 -110.85 -8.95 -110.85 -11.4 -104.3 -13.85 -110.85 -30.7 -110.35 -33.15 -103.0 -35.7 -110.1 -49.25 -109.15 -51.55 -101.75 -54.95 -108.65 -71.55 -106.85 -73.45 -99.4 -77.4 -106.15 -81.85 -105.55 Q-84.65 -120.6 -80.35 -128.5 -78.7 -131.2 -76.1 -132.5 L-74.0 -127.2 Q-75.5 -125.8 -75.5 -123.9 -75.5 -121.9 -73.8 -120.5 -72.0 -119.05 -69.55 -119.05 -67.1 -119.05 -65.4 -120.5 -63.6 -121.9 -63.6 -123.9 -63.6 -125.9 -65.4 -127.35 -66.85 -128.5 -68.7 -128.65 L-70.6 -133.7 Q-67.7 -133.7 -64.0 -132.6 -57.75 -130.65 -53.7 -127.35 -36.35 -113.35 -0.1 -113.65 36.15 -113.35 53.5 -127.35 57.6 -130.65 63.8 -132.6 67.5 -133.7 70.4 -133.7 L68.55 -128.65 Q66.65 -128.5 65.25 -127.35 63.45 -125.9 63.45 -123.9 63.45 -121.9 65.25 -120.5 66.95 -119.05 69.4 -119.05 71.85 -119.05 73.65 -120.5 75.35 -121.9 75.35 -123.9 75.35 -125.8 73.8 -127.2 L75.9 -132.5 Q78.55 -131.2 80.15 -128.5 84.5 -120.6 81.65 -105.55 L77.2 -106.15 73.25 -99.4 71.35 -106.85 54.75 -108.65 51.35 -101.75 49.1 -109.15 35.5 -110.1 32.95 -103.0 30.5 -110.35 13.7 -110.85 11.25 -104.3 M51.05 -51.5 L47.65 -43.75 45.05 -52.05 51.05 -51.5 M69.2 -61.6 L67.5 -70.4 73.9 -69.55 69.2 -61.6 M11.25 -84.25 L9.05 -92.3 14.55 -92.3 11.25 -84.25 M7.25 -74.65 L13.3 -74.55 10.5 -66.7 7.25 -74.65 M31.45 -85.35 L29.55 -91.9 34.65 -91.65 31.45 -85.35 M13.95 -53.85 L11.6 -46.65 9.05 -54.0 13.95 -53.85 M24.9 -74.2 L32.85 -73.7 29.15 -65.6 24.9 -74.2 M31.7 -53.05 L29.75 -45.3 26.8 -53.35 31.7 -53.05 M10.65 -32.25 L14.9 -32.1 12.2 -24.15 9.55 -32.25 10.65 -32.25 M28.8 -31.5 L34.25 -31.15 31.05 -23.4 28.8 -31.5 M10.3 -13.2 L15.2 -13.3 12.2 -6.3 10.3 -13.2 M28.5 -13.5 L35.1 -13.6 32.55 -6.45 28.5 -13.5 M64.3 -28.85 L69.45 -28.65 66.95 -21.4 64.3 -28.85 M68.05 -42.35 L66.0 -49.65 71.85 -48.75 68.05 -42.35 M46.8 -30.0 L52.0 -29.65 49.55 -22.0 46.8 -30.0 M45.3 -13.75 L51.55 -13.9 49.0 -7.2 45.3 -13.75 M64.3 -14.15 L71.1 -14.3 68.45 -7.35 64.3 -14.15 M85.15 -28.1 L90.7 -27.95 86.95 -20.45 85.15 -28.1 M83.55 -14.5 L89.95 -14.7 87.5 -7.8 83.55 -14.5 M84.85 10.2 L80.9 4.05 86.75 3.5 84.85 10.2 M68.05 12.05 L64.55 5.5 70.6 5.05 68.05 12.05 M72.8 21.4 L69.95 28.25 66.95 22.0 72.8 21.4 M48.4 6.5 L54.85 6.2 51.45 14.25 48.4 6.5 M54.75 23.1 L51.05 32.25 48.5 23.65 54.75 23.1 M34.1 16.1 L29.9 7.3 37.3 7.05 34.1 16.1 M12.75 14.7 L10.1 7.5 15.85 7.5 12.75 14.7 M8.3 25.5 L13.6 25.3 11.05 33.05 8.3 25.55 8.3 25.5 M30.3 24.8 L36.55 24.4 32.95 33.2 30.3 24.8 M-85.35 -28.1 L-87.1 -20.45 -90.9 -27.95 -85.35 -28.1 M-90.15 -14.7 L-83.75 -14.5 -87.7 -7.8 -90.15 -14.7 M-7.45 -74.65 L-10.65 -66.7 -13.5 -74.55 -7.45 -74.65 M-9.25 -92.3 L-11.4 -84.25 -14.7 -92.3 -9.25 -92.3 M-29.75 -91.9 L-31.6 -85.35 -34.85 -91.65 -29.75 -91.9 M-27.0 -53.35 L-29.9 -45.3 -31.9 -53.05 -27.0 -53.35 M-29.35 -65.6 L-33.05 -73.7 -25.1 -74.2 -29.35 -65.6 M-9.25 -54.0 L-11.8 -46.65 -14.15 -53.85 -9.25 -54.0 M-47.55 -90.9 L-50.5 -82.9 -53.8 -90.35 -47.55 -90.9 M-68.45 -88.8 L-70.7 -80.6 -74.5 -88.05 -68.45 -88.8 M-67.7 -70.4 L-69.4 -61.6 -74.1 -69.55 -67.7 -70.4 M-45.2 -52.05 L-47.85 -43.75 -51.25 -51.5 -45.2 -52.05 M-45.8 -72.8 L-47.85 -65.6 -51.25 -72.25 -45.8 -72.8 M-47.0 -30.0 L-49.75 -22.0 -52.2 -29.65 -47.0 -30.0 M-68.25 -42.35 L-72.0 -48.75 -66.15 -49.65 -68.25 -42.35 M-64.45 -28.85 L-67.1 -21.4 -69.65 -28.65 -64.45 -28.85 M-71.25 -14.3 L-64.45 -14.15 -68.6 -7.35 -71.25 -14.3 M-51.75 -13.9 L-45.5 -13.75 -49.2 -7.2 -51.75 -13.9 M-10.85 -32.25 L-9.7 -32.25 -12.35 -24.15 -15.1 -32.1 -10.85 -32.25 M-29.0 -31.5 L-31.25 -23.4 -34.45 -31.15 -29.0 -31.5 M-35.3 -13.6 L-28.7 -13.5 -32.75 -6.45 -35.3 -13.6 M-10.5 -13.2 L-12.35 -6.3 -15.4 -13.3 -10.5 -13.2 M-12.95 14.7 L-16.05 7.5 -14.9 7.5 -11.8 7.5 -10.3 7.5 -12.95 14.7 M-34.25 16.1 L-37.45 7.05 -30.1 7.3 -34.25 16.1 M-33.15 33.2 L-36.7 24.4 -30.5 24.8 -33.15 33.2 M-8.5 25.55 L-11.25 33.05 -13.8 25.4 -13.8 25.3 -8.5 25.5 -8.5 25.55 M-51.65 14.25 L-55.05 6.2 -48.6 6.5 -51.65 14.25 M-48.7 23.65 L-51.25 32.25 -54.95 23.1 -48.7 23.65 M-70.8 5.05 L-64.75 5.5 -68.25 12.05 -70.8 5.05 M-67.1 22.0 L-70.15 28.25 -72.95 21.4 -67.1 22.0 M-81.1 4.05 L-85.05 10.2 -86.95 3.5 -81.1 4.05" fill="#000000" fill-opacity="0.4" fill-rule="evenodd" stroke="none"/>
  </g>
</svg>
