<?xml version="1.0" encoding="UTF-8" standalone="no"?>
<svg xmlns:xlink="http://www.w3.org/1999/xlink" height="193.0px" width="378.6px" xmlns="http://www.w3.org/2000/svg">
  <g transform="matrix(1.0, 0.0, 0.0, 1.0, -209.9, -133.55)">
    <path d="M483.45 232.8 Q470.5 229.95 457.7 228.05 435.7 217.7 400.55 215.65 363.5 217.95 340.8 228.5 329.3 230.25 317.65 232.8 308.85 235.3 300.2 233.0 292.4 230.9 284.9 224.7 L282.5 224.7 Q280.6 232.35 281.55 240.75 281.95 245.5 283.4 250.6 L332.45 262.55 333.15 261.8 Q357.65 235.1 400.65 236.55 441.4 234.8 466.0 262.25 L515.05 250.3 Q516.5 245.2 516.9 240.45 517.85 232.25 516.05 224.85 508.65 230.9 500.95 233.0 492.3 235.3 483.45 232.8 M530.3 154.7 Q531.4 168.0 533.4 181.15 535.5 194.5 538.55 207.7 541.45 220.15 545.2 232.55 L588.5 224.25 588.45 225.25 Q587.8 239.55 585.1 250.9 582.15 263.25 576.85 272.1 566.55 258.25 552.2 248.45 532.1 253.0 510.05 263.35 L510.25 263.65 Q507.75 271.3 504.5 279.25 493.15 301.15 471.95 326.3 L451.55 326.3 Q447.15 299.0 438.7 282.7 L436.8 279.25 Q432.05 269.5 426.4 263.5 413.9 256.8 400.55 256.8 386.85 256.8 372.05 263.8 366.45 269.75 361.85 279.25 360.85 280.9 359.95 282.7 357.8 286.85 355.9 291.8 350.25 306.0 346.85 326.55 L326.5 326.55 Q305.2 301.3 293.85 279.25 290.6 271.45 288.2 263.95 L288.35 263.65 Q266.3 253.3 246.2 248.75 231.85 258.55 221.55 272.4 216.35 263.75 213.45 251.75 210.65 240.2 209.95 225.55 L209.9 224.55 253.25 232.85 Q257.0 220.45 259.9 208.0 262.95 194.8 265.05 181.45 267.05 168.3 268.15 155.0 L290.85 155.8 Q322.4 139.95 361.3 138.75 L361.95 138.7 362.55 134.25 368.2 136.25 375.95 138.5 Q398.9 143.85 423.8 138.95 L431.95 136.35 438.5 133.55 439.2 138.7 Q476.85 140.05 507.55 155.5 L530.3 154.7" fill="#000000" fill-rule="evenodd" stroke="none"/>
  </g>
</svg>
