<?xml version="1.0" encoding="UTF-8" standalone="no"?>
<svg xmlns:xlink="http://www.w3.org/1999/xlink" height="148.7px" width="374.7px" xmlns="http://www.w3.org/2000/svg">
  <g transform="matrix(1.0, 0.0, 0.0, 1.0, -212.55, -131.45)">
    <path d="M362.1 224.9 Q360.4 223.3 358.2 223.3 355.95 223.3 354.4 224.9 352.75 226.45 352.8 228.8 352.75 231.05 354.4 232.6 355.95 234.2 358.2 234.2 360.1 234.2 361.6 233.05 L361.8 232.85 362.1 232.6 Q363.6 231.05 363.6 228.8 363.6 226.45 362.1 224.9 M362.1 206.8 Q360.4 205.2 358.2 205.2 355.95 205.2 354.4 206.8 352.75 208.35 352.8 210.7 352.75 212.95 354.4 214.5 355.95 216.1 358.2 216.1 360.1 216.1 361.6 214.95 L361.8 214.75 362.1 214.5 Q363.6 212.95 363.6 210.7 363.6 208.35 362.1 206.8 M445.35 225.7 Q443.8 224.15 441.55 224.15 439.95 224.15 438.85 224.9 L437.7 225.7 Q436.15 227.3 436.15 229.55 436.15 231.65 437.4 233.15 L437.7 233.45 Q439.3 235.0 441.55 235.0 443.8 235.0 445.35 233.45 446.95 231.8 446.95 229.55 446.95 227.3 445.35 225.7 M438.85 206.8 L437.7 207.6 Q436.15 209.2 436.15 211.45 436.15 213.55 437.4 215.05 L437.7 215.35 Q439.3 216.9 441.55 216.9 443.8 216.9 445.35 215.35 446.95 213.7 446.95 211.45 446.95 209.2 445.35 207.6 443.8 206.05 441.55 206.05 439.95 206.05 438.85 206.8 M445.35 190.0 Q443.8 188.45 441.55 188.45 439.95 188.45 438.85 189.2 L437.7 190.0 Q436.15 191.6 436.15 193.85 436.15 195.95 437.4 197.45 L437.7 197.75 Q439.3 199.3 441.55 199.3 443.8 199.3 445.35 197.75 446.95 196.1 446.95 193.85 446.95 191.6 445.35 190.0 M361.8 197.15 L362.1 196.9 Q363.6 195.35 363.6 193.1 363.6 190.75 362.1 189.2 360.4 187.6 358.2 187.6 355.95 187.6 354.4 189.2 352.75 190.75 352.8 193.1 352.75 195.35 354.4 196.9 355.95 198.5 358.2 198.5 360.1 198.5 361.6 197.35 L361.8 197.15 M366.0 136.95 L370.5 135.5 375.65 134.1 Q387.8 131.45 399.9 131.45 412.0 131.45 424.15 134.1 L429.3 135.5 433.8 136.95 Q436.75 137.95 439.4 139.1 486.85 146.05 515.95 160.15 576.8 173.3 582.55 224.85 L587.25 256.35 581.25 258.0 Q539.7 269.0 497.7 274.95 L473.55 277.95 448.9 280.15 Q442.45 255.95 432.9 233.15 L420.55 233.15 420.55 224.9 429.35 224.9 424.7 215.05 420.55 215.05 420.55 206.8 420.6 206.8 420.55 206.8 420.55 204.15 419.2 204.15 417.05 200.15 420.55 200.15 420.55 186.55 410.1 186.55 410.1 188.0 Q405.25 179.85 399.9 171.85 394.2 180.4 389.0 189.2 L410.1 189.2 410.1 197.45 384.35 197.3 379.25 206.8 410.1 206.8 410.1 215.05 375.2 214.85 370.5 224.9 410.1 224.9 410.1 233.15 367.05 232.9 Q357.4 255.8 350.9 280.15 L326.25 277.95 302.1 274.95 Q260.1 269.0 218.55 258.0 L212.55 256.35 217.25 224.85 Q223.0 173.3 283.85 160.15 312.95 146.05 360.4 139.1 363.05 137.95 366.0 136.95" fill="#000000" fill-rule="evenodd" stroke="none"/>
  </g>
</svg>
