<?xml version="1.0" encoding="UTF-8" standalone="no"?>
<svg xmlns:xlink="http://www.w3.org/1999/xlink" height="218.65px" width="110.65px" xmlns="http://www.w3.org/2000/svg">
  <g transform="matrix(1.0, 0.0, 0.0, 1.0, -328.45, -125.1)">
    <path d="M375.65 129.8 Q365.0 130.65 362.35 138.3 359.95 152.9 368.05 162.5 370.6 165.45 373.95 167.45 380.1 171.05 389.1 171.75 396.8 172.8 395.8 182.25 420.25 170.75 428.75 157.2 436.2 145.35 434.45 137.2 434.15 135.7 433.5 134.3 430.55 130.3 424.2 128.7 L424.1 125.1 Q435.9 127.25 438.4 135.4 L438.9 137.75 439.05 138.95 Q439.55 146.4 434.1 157.75 429.45 166.55 414.45 176.9 399.45 187.25 354.15 205.4 336.6 211.5 334.7 226.5 336.55 239.25 339.4 252.1 L340.05 255.15 343.2 267.4 343.2 267.45 345.4 275.35 Q351.35 295.9 360.05 316.5 362.8 322.9 370.5 343.75 L363.9 343.2 Q343.3 291.6 334.35 254.25 L334.25 253.8 Q330.65 238.55 328.45 223.35 330.25 208.35 347.9 202.25 373.1 192.5 390.9 184.5 L392.15 183.95 Q393.2 174.9 382.65 174.85 367.0 174.05 360.4 159.35 356.5 150.2 357.3 142.6 L357.8 139.5 Q358.25 137.45 359.1 135.55 365.0 124.9 375.75 125.45 L375.65 129.8" fill="#000000" fill-rule="evenodd" stroke="none"/>
  </g>
</svg>
