<?xml version="1.0" encoding="UTF-8" standalone="no"?>
<svg xmlns:xlink="http://www.w3.org/1999/xlink" height="217.75px" width="177.7px" xmlns="http://www.w3.org/2000/svg">
  <g transform="matrix(1.0, 0.0, 0.0, 1.0, -311.05, -146.9)">
    <path d="M488.75 149.75 L488.75 149.85 Q488.75 151.05 487.9 151.9 487.0 152.8 485.8 152.8 484.6 152.8 483.75 151.9 482.85 151.05 482.85 149.85 482.85 148.9 483.4 148.15 L483.75 147.75 Q484.6 146.9 485.8 146.9 487.0 146.9 487.9 147.75 488.7 148.6 488.75 149.75 M341.55 174.3 Q342.75 174.3 343.6 175.15 344.5 176.05 344.5 177.25 344.5 178.45 343.6 179.3 342.75 180.2 341.55 180.2 340.35 180.2 339.45 179.3 338.6 178.45 338.6 177.25 338.6 176.05 339.45 175.15 340.35 174.3 341.55 174.3 M354.9 197.7 Q354.9 198.9 354.0 199.75 353.15 200.65 351.95 200.65 350.75 200.65 349.85 199.75 349.0 198.9 349.0 197.7 349.0 196.5 349.85 195.6 350.75 194.75 351.95 194.75 353.15 194.75 354.0 195.6 354.9 196.5 354.9 197.7 M445.8 195.6 Q446.65 194.75 447.85 194.75 449.05 194.75 449.95 195.6 450.8 196.5 450.8 197.7 450.8 198.9 449.95 199.75 449.05 200.65 447.85 200.65 446.65 200.65 445.8 199.75 444.9 198.9 444.9 197.7 444.9 196.5 445.8 195.6 M458.25 180.2 Q457.05 180.2 456.2 179.3 455.3 178.45 455.3 177.25 455.3 176.05 456.2 175.15 457.05 174.3 458.25 174.3 459.45 174.3 460.35 175.15 461.2 176.05 461.2 177.25 461.2 178.45 460.35 179.3 459.45 180.2 458.25 180.2 M427.85 253.3 L402.15 364.65 391.65 364.55 421.9 247.25 427.85 253.3 M316.4 148.15 Q316.95 148.9 316.95 149.85 316.95 151.05 316.05 151.9 315.2 152.8 314.0 152.8 312.8 152.8 311.9 151.9 311.05 151.05 311.05 149.85 L311.05 149.7 Q311.1 148.6 311.9 147.75 312.8 146.9 314.0 146.9 315.2 146.9 316.05 147.75 L316.4 148.15" fill="#000000" fill-rule="evenodd" stroke="none"/>
  </g>
</svg>
