<?xml version="1.0" encoding="UTF-8" standalone="no"?>
<svg xmlns:xlink="http://www.w3.org/1999/xlink" height="236.95px" width="183.4px" xmlns="http://www.w3.org/2000/svg">
  <g transform="matrix(1.0, 0.0, 0.0, 1.0, -387.3, -304.95)">
    <path d="M568.1 534.55 L567.8 535.6 567.2 534.9 568.1 534.55" fill="#993333" fill-rule="evenodd" stroke="none"/>
    <path d="M567.2 534.9 Q560.25 526.3 549.65 524.55 543.8 523.7 538.0 525.45 L545.95 530.55 Q535.25 533.8 524.2 533.45 516.5 533.3 509.05 531.95 L500.95 535.2 496.35 536.45 492.65 537.4 Q486.15 539.25 479.4 540.35 444.1 546.0 417.25 521.75 390.6 497.65 388.35 462.1 386.1 426.6 391.95 391.25 L393.2 383.2 Q395.2 371.4 396.2 359.8 397.05 348.1 397.0 336.1 396.9 324.1 396.0 312.05 L396.4 307.6 Q401.6 303.8 407.5 306.65 L410.65 308.15 Q414.8 329.55 413.4 351.25 412.65 363.4 410.55 375.45 409.45 380.85 408.7 386.35 402.55 420.8 402.45 455.7 402.35 493.5 433.35 515.1 458.55 532.95 489.35 526.15 L490.95 525.9 Q495.65 524.95 500.0 522.8 L500.8 522.15 502.85 514.2 Q507.35 502.7 514.75 492.9 521.4 484.1 529.75 476.9 L529.95 476.7 526.65 488.4 Q532.8 483.8 540.7 482.75 551.35 481.2 560.1 487.3 L548.6 488.85 Q558.0 491.15 563.5 498.95 571.95 510.95 569.75 525.85 569.2 530.2 568.1 534.55 L567.8 535.6 567.2 534.9" fill="none" stroke="#000000" stroke-linecap="round" stroke-linejoin="round" stroke-width="1.0"/>
    <path d="M500.8 522.15 L504.1 519.0 505.65 522.8 509.1 522.25 507.75 525.8 510.55 525.65 509.3 528.45 508.95 528.85 510.9 529.7 511.65 530.6 509.05 531.95" fill="none" stroke="#000000" stroke-linecap="round" stroke-linejoin="round" stroke-opacity="0.49803922" stroke-width="1.0"/>
  </g>
</svg>
