<?xml version="1.0" encoding="UTF-8" standalone="no"?>
<svg xmlns:xlink="http://www.w3.org/1999/xlink" height="24.0px" width="64.05px" xmlns="http://www.w3.org/2000/svg">
  <g transform="matrix(1.0, 0.0, 0.0, 1.0, -367.85, -305.15)">
    <path d="M429.85 308.05 L429.85 305.65 429.65 305.65 429.6 305.65 428.9 305.8 425.65 306.3 423.65 306.55 413.4 307.6 410.1 307.8 409.85 307.85 409.4 307.85 400.35 308.05 400.15 308.05 399.6 308.05 399.4 308.05 390.4 307.85 389.9 307.85 389.65 307.8 386.4 307.6 376.15 306.55 374.1 306.3 370.85 305.8 370.15 305.65 369.9 305.65 369.9 308.05 M429.85 308.05 L430.2 308.95 430.2 309.05 Q432.75 316.25 429.9 323.55 L429.85 323.55 429.85 326.3 424.75 327.0 424.6 327.05 424.35 327.1 414.15 328.1 413.85 328.1 411.7 328.3 411.4 328.3 399.9 328.65 388.35 328.3 388.05 328.3 385.9 328.1 385.65 328.1 375.45 327.1 375.15 327.05 375.0 327.0 369.9 326.3 369.9 323.55 369.85 323.55 Q367.0 316.25 369.55 309.05 L369.55 308.95 369.9 308.05" fill="none" stroke="#000000" stroke-linecap="round" stroke-linejoin="round" stroke-width="1.0"/>
    <path d="M369.9 308.05 L370.0 308.1 370.15 308.1 370.85 308.2 374.15 308.65 374.45 308.7 377.75 309.05 399.9 310.15 422.0 309.05 425.3 308.7 425.6 308.65 428.9 308.2 429.65 308.1 429.75 308.1 429.85 308.05 M401.7 313.5 Q401.15 313.05 400.45 313.05 L400.35 313.05 400.25 313.05 400.1 313.1 400.0 313.1 399.9 313.1 399.75 313.1 399.65 313.1 399.5 313.05 399.4 313.05 399.3 313.05 Q398.6 313.05 398.05 313.5 397.45 313.9 396.95 314.6 395.9 316.25 395.9 318.45 395.9 319.65 396.25 320.6 396.45 321.55 396.95 322.25 L398.05 323.4 Q398.6 323.9 399.3 323.9 L399.4 323.9 399.5 323.9 399.65 323.9 399.75 323.85 399.9 323.85 400.0 323.85 400.1 323.9 400.25 323.9 400.35 323.9 400.45 323.9 Q401.15 323.9 401.7 323.4 L402.8 322.25 403.55 320.6 403.85 318.45 Q403.85 316.25 402.8 314.6 L401.7 313.5 M377.9 311.5 L377.5 311.6 Q376.1 312.0 375.5 313.75 374.9 315.55 375.55 317.7 375.85 318.95 376.45 319.85 L377.1 320.7 377.55 321.15 Q378.95 322.4 380.35 322.1 380.55 321.95 380.75 321.95 L381.1 321.9 Q382.25 321.55 382.9 320.35 L383.15 319.7 383.25 319.4 Q383.7 317.75 383.15 315.75 382.55 313.55 381.1 312.3 379.65 311.05 378.25 311.4 L377.9 311.5 M369.9 323.55 L370.15 323.6 370.85 323.7 374.9 324.4 375.15 324.45 375.8 324.55 385.8 325.65 392.65 326.1 407.1 326.1 413.95 325.65 424.0 324.55 424.6 324.45 424.9 324.4 428.9 323.7 429.6 323.6 429.65 323.6 429.85 323.55 M421.85 311.5 L422.25 311.6 Q423.65 312.0 424.25 313.75 424.85 315.55 424.2 317.7 423.9 318.95 423.3 319.85 L422.65 320.7 422.2 321.15 Q420.8 322.4 419.4 322.1 L419.0 321.95 418.65 321.9 Q417.5 321.55 416.85 320.35 L416.6 319.7 416.5 319.4 Q416.05 317.75 416.6 315.75 417.2 313.55 418.65 312.3 420.1 311.05 421.5 311.4 L421.85 311.5" fill="none" stroke="#000000" stroke-linecap="round" stroke-linejoin="round" stroke-opacity="0.49803922" stroke-width="1.0"/>
  </g>
</svg>
