<?xml version="1.0" encoding="UTF-8" standalone="no"?>
<svg xmlns:xlink="http://www.w3.org/1999/xlink" height="20.0px" width="70.1px" xmlns="http://www.w3.org/2000/svg">
  <g transform="matrix(1.0, 0.0, 0.0, 1.0, -364.85, -317.05)">
    <path d="M388.4 319.6 Q387.8 319.8 387.4 320.2 386.7 320.8 386.45 322.0 L375.9 321.55 375.9 335.5 M377.95 317.95 Q376.95 318.7 376.45 319.65 L376.3 319.95 Q375.95 320.7 375.9 321.55 M365.35 321.1 L374.65 321.5 Q374.7 320.4 375.3 319.65 L375.35 319.55 375.85 319.05 M374.5 333.55 L374.5 323.2 M386.45 323.95 L386.45 334.35 M434.45 321.1 L425.2 321.5 Q425.1 320.4 424.5 319.65 L424.45 319.55 423.95 319.05 M423.95 335.5 L423.95 321.55 413.35 322.0 Q413.1 320.8 412.45 320.2 412.0 319.8 411.4 319.6 M423.95 321.55 L423.5 319.9 423.35 319.65 Q422.85 318.7 421.85 317.95 M413.35 323.95 L413.35 334.35 M425.3 333.55 L425.3 323.2" fill="none" stroke="#000000" stroke-linecap="round" stroke-linejoin="round" stroke-opacity="0.5019608" stroke-width="1.0"/>
    <path d="M375.9 335.5 L387.2 336.55 389.65 333.4 389.65 318.35 377.95 317.95 M375.9 335.5 L368.95 334.3 365.35 333.5 365.35 321.1 Q366.3 319.05 368.35 317.55 L377.95 317.95 M434.45 321.1 L434.45 333.5 431.0 334.25 423.95 335.5 412.65 336.55 410.15 333.4 410.15 318.35 421.85 317.95 431.45 317.55 Q433.55 319.05 434.45 321.1" fill="none" stroke="#000000" stroke-linecap="round" stroke-linejoin="round" stroke-width="1.0"/>
  </g>
</svg>
