<?xml version="1.0" encoding="UTF-8" standalone="no"?>
<svg xmlns:xlink="http://www.w3.org/1999/xlink" height="57.55px" width="92.1px" xmlns="http://www.w3.org/2000/svg">
  <g transform="matrix(1.0, 0.0, 0.0, 1.0, -353.85, -323.45)">
    <path d="M432.8 329.65 L429.5 323.95 Q422.45 325.75 410.45 326.1 L405.45 326.2 399.9 326.15 394.4 326.2 389.4 326.1 Q377.35 325.75 370.3 323.95 L367.05 329.65 M432.8 329.65 L436.1 336.5 438.65 343.1 440.8 349.8 442.65 357.1 444.1 365.25 445.05 372.05 445.45 376.7 Q436.65 380.1 424.3 380.5 417.5 380.15 416.95 372.7 416.05 360.55 413.05 348.65 L412.4 346.3 Q409.95 339.7 399.9 340.1 389.9 339.7 387.45 346.3 L386.8 348.65 Q383.8 360.55 382.9 372.7 382.3 380.15 375.5 380.5 363.2 380.1 354.35 376.7 L354.8 372.05 355.7 365.25 357.2 357.1 Q358.0 353.35 359.05 349.8 L361.15 343.1 Q362.3 339.7 363.7 336.5 365.25 332.95 367.05 329.65" fill="none" stroke="#000000" stroke-linecap="round" stroke-linejoin="round" stroke-width="1.0"/>
    <path d="M367.05 329.65 Q375.0 334.3 390.65 335.6 394.5 334.05 399.9 334.25 405.35 334.05 409.2 335.6 424.85 334.3 432.8 329.65 M363.7 336.5 Q372.45 340.9 383.9 341.35 386.3 337.35 390.65 335.6 M359.05 349.8 Q367.5 353.9 380.3 353.75 L381.5 348.05 Q369.25 347.35 361.15 343.1 M357.2 357.1 Q366.9 360.95 379.2 360.05 L380.3 353.75 M355.7 365.25 Q367.0 369.15 378.3 367.25 L379.2 360.05 M354.8 372.05 Q363.3 375.65 373.45 374.9 378.1 374.7 378.0 370.55 L378.3 367.25 M381.5 348.05 Q382.25 344.1 383.9 341.35 M436.1 336.5 Q427.4 340.9 415.9 341.35 417.6 344.1 418.3 348.05 430.6 347.35 438.65 343.1 M409.2 335.6 Q413.55 337.35 415.9 341.35 M418.3 348.05 L419.55 353.75 Q432.3 353.9 440.8 349.8 M419.55 353.75 L420.65 360.05 Q432.95 360.95 442.65 357.1 M420.65 360.05 L421.5 367.25 Q432.85 369.15 444.1 365.25 M421.5 367.25 L421.85 370.55 Q421.75 374.7 426.4 374.9 436.5 375.65 445.05 372.05" fill="none" stroke="#000000" stroke-linecap="round" stroke-linejoin="round" stroke-opacity="0.5019608" stroke-width="1.0"/>
  </g>
</svg>
