<?xml version="1.0" encoding="UTF-8" standalone="no"?>
<svg xmlns:xlink="http://www.w3.org/1999/xlink" height="25.25px" width="17.45px" xmlns="http://www.w3.org/2000/svg">
  <g transform="matrix(1.0, 0.0, 0.0, 1.0, -417.1, -303.3)">
    <path d="M429.55 310.5 L429.55 314.1 431.65 314.1 Q432.8 314.6 433.2 315.9 L433.15 320.2 430.35 320.2 430.65 315.65 Q429.55 314.9 428.4 314.4 424.6 312.95 421.0 315.65 L421.3 320.15 418.35 320.15 418.35 315.85 Q418.95 314.65 419.8 314.15 L420.35 313.9 421.95 313.9 422.05 310.55 429.55 310.5 M430.95 303.3 L433.3 303.3 433.25 310.4 430.9 310.4 430.95 303.3 M429.75 319.45 L422.0 319.4 421.75 315.95 Q425.15 314.2 428.35 315.2 429.2 315.55 430.1 316.05 L429.75 319.45 M417.15 322.95 Q422.1 323.95 427.2 323.75 L434.55 323.1 434.55 327.55 Q430.6 328.5 426.6 328.55 421.9 328.65 417.1 327.5 L417.15 322.95" fill="#000000" fill-rule="evenodd" stroke="none"/>
  </g>
</svg>
