<?xml version="1.0" encoding="UTF-8" standalone="no"?>
<svg xmlns:xlink="http://www.w3.org/1999/xlink" height="41.95px" width="100.9px" xmlns="http://www.w3.org/2000/svg">
  <g transform="matrix(1.0, 0.0, 0.0, 1.0, -349.45, -321.8)">
    <path d="M373.15 325.55 Q373.15 327.1 372.55 328.15 371.95 329.3 371.1 329.3 370.25 329.3 369.65 328.15 L369.25 326.9 Q369.1 326.3 369.1 325.55 369.1 324.0 369.65 322.9 370.2 321.9 370.95 321.8 L371.1 321.8 Q371.95 321.8 372.55 322.9 373.15 324.0 373.15 325.55 M384.3 339.0 L381.5 342.65 379.9 344.9 Q377.3 348.4 375.0 352.1 L370.6 359.6 370.55 359.6 368.35 363.75 349.45 357.5 Q349.85 347.35 352.05 337.6 L385.4 337.6 384.3 339.0 M414.4 337.6 L447.75 337.6 Q449.95 347.35 450.35 357.5 L431.45 363.75 429.3 359.6 424.85 352.1 419.95 344.9 418.3 342.65 415.5 339.0 414.4 337.6 M430.75 325.55 L430.5 327.35 430.15 328.15 429.3 329.2 428.85 329.3 428.7 329.3 Q427.85 329.3 427.25 328.15 426.7 327.1 426.7 325.55 426.7 324.0 427.25 322.9 427.85 321.85 428.65 321.8 L428.7 321.8 Q429.55 321.8 430.15 322.9 430.75 324.0 430.75 325.55" fill="#000000" fill-rule="evenodd" stroke="none"/>
  </g>
</svg>
