<?xml version="1.0" encoding="UTF-8" standalone="no"?>
<svg xmlns:xlink="http://www.w3.org/1999/xlink" height="65.9px" width="93.25px" xmlns="http://www.w3.org/2000/svg">
  <g transform="matrix(1.0, 0.0, 0.0, 1.0, -353.2, -318.5)">
    <path d="M367.9 318.5 L371.4 319.05 Q374.05 319.7 376.6 321.0 379.45 322.4 382.15 324.6 L381.3 328.1 381.15 328.65 Q374.55 356.45 371.8 384.25 L371.8 384.4 371.6 384.25 Q364.1 379.0 359.35 377.45 356.7 376.55 354.9 376.9 353.9 377.05 353.2 377.6 L354.15 373.65 Q354.5 373.45 354.9 373.4 357.05 372.75 360.2 373.9 364.0 375.25 369.3 379.25 L370.55 370.3 Q371.4 364.45 372.4 358.7 373.45 352.45 374.65 346.25 L377.25 333.85 378.95 326.4 Q375.4 323.1 371.25 322.1 L367.1 321.6 367.9 318.5 M431.75 318.5 L432.55 321.6 428.4 322.1 Q424.2 323.1 420.7 326.4 L422.4 333.85 425.0 346.25 427.25 358.7 429.1 370.3 430.3 379.25 Q435.6 375.25 439.45 373.9 442.6 372.75 444.75 373.4 L445.45 373.65 446.45 377.6 Q445.7 377.05 444.75 376.9 442.95 376.55 440.3 377.45 435.5 379.0 428.05 384.25 L427.85 384.4 427.85 384.25 Q425.1 356.45 418.5 328.65 L418.35 328.1 417.5 324.6 Q420.15 322.4 423.0 321.0 425.55 319.7 428.25 319.05 L431.75 318.5" fill="#000000" fill-rule="evenodd" stroke="none"/>
  </g>
</svg>
