<?xml version="1.0" encoding="UTF-8" standalone="no"?>
<svg xmlns:xlink="http://www.w3.org/1999/xlink" height="65.9px" width="28.95px" xmlns="http://www.w3.org/2000/svg">
  <g transform="matrix(1.0, 0.0, 0.0, 1.0, -353.2, -318.5)">
    <path d="M367.9 318.5 L371.4 319.05 Q374.05 319.7 376.6 321.0 379.45 322.4 382.15 324.6 L381.3 328.1 381.15 328.65 Q374.55 356.45 371.8 384.25 L371.8 384.4 371.6 384.25 Q364.1 379.0 359.35 377.45 356.7 376.55 354.9 376.9 353.9 377.05 353.2 377.6 L354.15 373.65 Q354.5 373.45 354.9 373.4 357.05 372.75 360.2 373.9 364.0 375.25 369.3 379.25 L370.55 370.3 Q371.4 364.45 372.4 358.7 373.45 352.45 374.65 346.25 L377.25 333.85 378.95 326.4 Q375.4 323.1 371.25 322.1 L367.1 321.6 367.9 318.5" fill="#000000" fill-rule="evenodd" stroke="none"/>
  </g>
</svg>
