<?xml version="1.0" encoding="UTF-8" standalone="no"?>
<svg xmlns:xlink="http://www.w3.org/1999/xlink" height="49.65px" width="49.6px" xmlns="http://www.w3.org/2000/svg">
  <g transform="matrix(1.0, 0.0, 0.0, 1.0, -374.95, -122.8)">
    <path d="M375.55 125.7 L375.45 131.9 375.45 132.2 375.45 132.5 375.7 137.8 Q376.05 141.1 376.8 144.35 L377.45 146.7 379.6 158.75 392.1 171.15 399.75 171.95 407.4 171.15 419.9 158.75 422.05 146.7 422.7 144.35 Q423.45 141.1 423.8 137.8 L424.05 132.5 424.05 132.2 424.05 131.9 424.0 125.7" fill="none" stroke="#000000" stroke-linecap="round" stroke-linejoin="round" stroke-width="1.0"/>
    <path d="M424.0 125.7 Q412.6 123.2 399.9 123.3 387.0 123.2 375.55 125.7 Z" fill="none" stroke="#000000" stroke-linecap="round" stroke-linejoin="round" stroke-opacity="0.5019608" stroke-width="1.0"/>
  </g>
</svg>
