<?xml version="1.0" encoding="UTF-8" standalone="no"?>
<svg xmlns:xlink="http://www.w3.org/1999/xlink" height="25.8px" width="43.0px" xmlns="http://www.w3.org/2000/svg">
  <g transform="matrix(1.0, 0.0, 0.0, 1.0, -378.3, -124.9)">
    <path d="M379.55 129.6 L379.45 130.0 Q378.9 132.1 378.9 133.85 378.25 142.05 381.8 150.2 L384.5 150.2 Q384.35 146.9 387.2 145.1 392.35 147.6 399.9 147.9 407.6 147.55 412.75 144.95 415.2 146.7 415.1 149.85 L417.75 149.85 Q421.0 142.35 420.8 134.8 L420.8 133.45 Q420.75 131.7 420.15 129.6 L419.1 125.4 414.45 126.05 413.65 130.25 Q408.35 131.35 403.35 134.1 L399.9 134.9 396.45 134.1 Q391.3 131.3 385.85 130.25 L385.15 126.45 380.45 125.8 379.55 129.6 Z" fill="none" stroke="#000000" stroke-linecap="round" stroke-linejoin="round" stroke-opacity="0.5019608" stroke-width="1.0"/>
  </g>
</svg>
