<?xml version="1.0" encoding="UTF-8" standalone="no"?>
<svg xmlns:xlink="http://www.w3.org/1999/xlink" height="62.55px" width="48.6px" xmlns="http://www.w3.org/2000/svg">
  <g transform="matrix(1.0, 0.0, 0.0, 1.0, -375.45, -112.5)">
    <path d="M375.45 131.9 Q375.5 120.5 376.4 115.2 387.4 112.4 399.8 112.5 412.25 112.4 423.1 115.2 424.0 120.5 424.05 131.9 L424.05 132.2 424.05 132.5 423.8 137.8 Q423.45 141.1 422.7 144.35 L422.05 146.7 420.35 150.7 Q416.4 159.7 411.7 166.95 408.8 171.35 405.65 175.05 L393.85 175.05 Q390.7 171.35 387.8 166.95 383.1 159.7 379.15 150.7 L377.45 146.7 376.8 144.35 Q376.05 141.1 375.7 137.8 L375.45 132.5 375.45 132.2 375.45 131.9" fill="#000000" fill-rule="evenodd" stroke="none"/>
  </g>
</svg>
