<?xml version="1.0" encoding="UTF-8" standalone="no"?>
<svg xmlns:xlink="http://www.w3.org/1999/xlink" height="24.8px" width="42.0px" xmlns="http://www.w3.org/2000/svg">
  <g transform="matrix(1.0, 0.0, 0.0, 1.0, -378.8, -125.4)">
    <path d="M379.55 129.6 L380.45 125.8 385.15 126.45 385.85 130.25 Q391.3 131.3 396.45 134.1 L399.9 134.9 403.35 134.1 Q408.35 131.35 413.65 130.25 L414.45 126.05 419.1 125.4 420.15 129.6 Q420.75 131.7 420.8 133.45 L420.8 134.8 Q421.0 142.35 417.75 149.85 L415.1 149.85 Q415.2 146.7 412.75 144.95 407.6 147.55 399.9 147.9 392.35 147.6 387.2 145.1 384.35 146.9 384.5 150.2 L381.8 150.2 Q378.25 142.05 378.9 133.85 378.9 132.1 379.45 130.0 L379.55 129.6" fill="#000000" fill-rule="evenodd" stroke="none"/>
  </g>
</svg>
