<?xml version="1.0" encoding="UTF-8" standalone="no"?>
<svg xmlns:xlink="http://www.w3.org/1999/xlink" height="25.45px" width="35.6px" xmlns="http://www.w3.org/2000/svg">
  <g transform="matrix(1.0, 0.0, 0.0, 1.0, -288.6, -330.1)">
    <path d="M290.95 335.8 L291.4 335.85 298.55 336.3 Q307.85 336.1 317.25 332.0 L317.5 331.9 318.8 330.1 321.25 331.05 Q321.15 334.6 321.7 338.0 L319.85 338.0 319.8 337.8 Q319.45 337.0 318.65 336.65 317.95 336.35 317.15 336.65 316.35 337.0 316.05 337.75 L308.35 338.9 Q307.45 340.25 309.05 340.6 L316.05 339.3 Q316.35 340.05 317.1 340.4 317.85 340.7 318.65 340.4 319.45 340.05 319.75 339.3 L319.9 338.25 321.75 338.25 Q322.25 341.35 323.3 344.4 L321.05 344.4 Q320.7 343.6 319.95 343.25 319.2 342.95 318.45 343.25 317.65 343.55 317.3 344.3 L309.65 345.5 Q308.7 346.8 310.3 347.2 L317.35 345.9 318.35 346.95 319.95 347.0 321.0 345.9 321.15 344.65 323.4 344.65 324.2 346.65 Q316.85 352.8 302.85 354.75 L291.85 355.55 Q291.55 345.45 288.6 335.35 L290.3 333.05 290.95 335.8" fill="#000000" fill-rule="evenodd" stroke="none"/>
  </g>
</svg>
