<?xml version="1.0" encoding="UTF-8" standalone="no"?>
<svg xmlns:xlink="http://www.w3.org/1999/xlink" height="120.45px" width="188.2px" xmlns="http://www.w3.org/2000/svg">
  <g transform="matrix(1.0, 0.0, 0.0, 1.0, -305.8, -188.95)">
    <path d="M361.05 188.95 Q369.95 227.4 399.9 256.7 429.85 227.4 438.75 188.95 L463.55 193.8 493.6 197.25 Q494.4 201.25 493.55 205.75 489.85 202.25 485.25 200.15 451.65 214.9 444.5 273.5 L436.9 288.4 436.9 307.05 Q418.45 309.65 399.9 309.35 381.35 309.65 362.9 307.05 L362.9 288.4 355.3 273.5 Q348.15 214.9 314.55 200.15 309.95 202.25 306.25 205.75 305.4 201.25 306.2 197.25 L336.25 193.8 361.05 188.95" fill="#000000" fill-rule="evenodd" stroke="none"/>
  </g>
</svg>
