<?xml version="1.0" encoding="UTF-8" standalone="no"?>
<svg xmlns:xlink="http://www.w3.org/1999/xlink" height="139.05px" width="87.2px" xmlns="http://www.w3.org/2000/svg">
  <g transform="matrix(1.0, 0.0, 0.0, 1.0, -356.3, -183.1)">
    <path d="M372.65 183.1 Q377.2 208.15 399.9 208.1 422.6 208.15 427.15 183.1 L431.25 186.85 Q425.2 212.6 399.9 212.85 374.6 212.6 368.55 186.85 L372.65 183.1 M392.1 322.15 Q369.75 319.55 356.3 313.0 L362.9 301.85 Q371.2 306.3 399.9 310.4 428.6 306.3 436.9 301.85 L443.5 313.0 Q430.05 319.55 407.7 322.15 405.75 316.3 399.9 316.6 394.05 316.3 392.1 322.15" fill="#000000" fill-rule="evenodd" stroke="none"/>
  </g>
</svg>
