<?xml version="1.0" encoding="UTF-8" standalone="no"?>
<svg xmlns:xlink="http://www.w3.org/1999/xlink" height="122.95px" width="92.85px" xmlns="http://www.w3.org/2000/svg">
  <g transform="matrix(1.0, 0.0, 0.0, 1.0, -353.4, -185.95)">
    <path d="M355.6 192.0 L355.75 190.65 Q363.65 188.0 371.95 186.0 371.25 189.6 370.7 193.35 L356.4 191.4 355.6 192.0 M443.25 191.35 L428.95 193.3 427.7 185.95 Q436.0 187.95 443.9 190.6 L444.05 191.95 443.25 191.35 M445.8 246.4 L445.3 248.95 444.35 247.8 430.0 245.95 430.4 242.8 Q430.95 235.7 431.1 228.85 L431.15 238.75 434.2 242.65 446.05 241.65 445.8 246.4 M446.25 220.25 L445.6 219.65 431.15 220.15 430.85 211.8 434.3 215.4 446.0 213.2 446.25 220.25 M429.45 268.7 L440.6 269.55 439.3 274.25 439.2 274.1 425.85 272.3 427.25 264.65 429.45 268.7 M422.7 290.6 L424.85 294.9 432.7 295.7 Q432.25 296.95 430.95 307.7 L418.95 308.85 424.65 278.95 422.7 290.6 M369.65 246.0 L355.3 247.85 354.35 249.0 353.85 246.45 353.6 241.7 365.45 242.7 368.5 238.8 368.55 228.9 Q368.7 235.75 369.25 242.85 L369.65 246.0 M368.8 211.85 L368.5 220.2 354.05 219.7 353.4 220.3 Q353.45 216.75 353.65 213.25 L365.35 215.45 368.8 211.85 M360.35 274.3 L359.05 269.6 370.2 268.75 372.4 264.7 373.8 272.35 360.45 274.15 360.35 274.3 M376.95 290.65 L375.0 279.0 380.7 308.9 368.7 307.75 Q367.4 297.0 366.95 295.75 L374.8 294.95 376.95 290.65" fill="#000000" fill-rule="evenodd" stroke="none"/>
  </g>
</svg>
