<?xml version="1.0" encoding="UTF-8" standalone="no"?>
<svg xmlns:xlink="http://www.w3.org/1999/xlink" height="154.2px" width="232.0px" xmlns="http://www.w3.org/2000/svg">
  <g transform="matrix(1.0, 0.0, 0.0, 1.0, -283.9, -202.5)">
    <path d="M509.35 282.45 Q516.25 293.65 515.25 306.3 L515.2 306.8 Q515.3 329.2 509.6 355.1 L502.55 356.15 499.9 356.2 Q494.0 356.05 488.35 353.9 483.75 352.15 479.35 349.1 L479.15 349.0 476.5 346.95 Q474.8 325.4 467.8 306.55 L467.45 305.7 467.45 305.65 Q469.6 295.4 477.0 286.25 466.1 273.9 458.8 260.5 455.0 253.3 452.15 245.9 466.15 221.75 490.2 203.0 497.05 207.8 501.35 216.5 504.35 224.1 503.55 233.65 503.1 239.3 501.35 245.65 501.55 256.45 504.95 267.25 L511.6 275.65 509.3 282.4 M311.45 353.9 Q316.05 352.15 320.45 349.1 L320.65 349.0 323.3 346.95 Q325.0 325.4 332.0 306.55 L332.35 305.7 332.35 305.65 Q330.2 295.4 322.8 286.25 333.7 273.9 341.0 260.5 344.8 253.3 347.65 245.9 333.65 221.75 309.6 203.0 302.75 207.85 298.45 216.5 295.45 224.1 296.25 233.65 296.7 239.3 298.45 245.65 298.25 256.45 294.85 267.25 L288.2 275.65 M311.45 353.9 Q305.8 356.05 299.9 356.2 L297.25 356.15 290.2 355.1 Q284.5 329.2 284.6 306.8 L284.55 306.3 Q283.55 293.65 290.45 282.45 M290.5 282.4 L288.2 275.65" fill="none" stroke="#000000" stroke-linecap="round" stroke-linejoin="round" stroke-width="1.0"/>
    <path d="M509.3 282.4 L509.35 282.45 M288.2 275.65 L306.45 284.45 Q301.6 294.7 303.7 310.95 L310.4 350.55 311.45 353.9 M290.45 282.45 L290.5 282.4 M511.6 275.65 L493.35 284.45 Q498.2 294.7 496.1 310.95 L489.4 350.55 488.35 353.9" fill="none" stroke="#000000" stroke-linecap="round" stroke-linejoin="round" stroke-opacity="0.5019608" stroke-width="1.0"/>
  </g>
</svg>
