<?xml version="1.0" encoding="UTF-8" standalone="no"?>
<svg xmlns:xlink="http://www.w3.org/1999/xlink" height="246.15px" width="69.4px" xmlns="http://www.w3.org/2000/svg">
  <g transform="matrix(1.0, 0.0, 0.0, 1.0, -278.75, -202.5)">
    <path d="M296.75 354.25 Q311.55 343.2 319.45 348.35 L319.7 348.5 319.45 347.8 Q316.9 340.45 317.3 332.15 L319.9 328.7 Q327.75 317.6 332.35 305.65 330.55 296.75 324.35 288.3 L322.8 286.25 325.8 282.8 Q334.7 272.05 341.0 260.5 344.8 253.3 347.65 245.9 342.6 237.2 336.3 229.25 326.7 217.15 314.1 206.65 L309.6 203.0 Q302.75 207.8 298.45 216.5 295.45 224.1 296.25 233.65 296.7 239.3 298.45 245.65 298.25 256.45 294.85 267.25 L288.2 275.65 Q276.55 300.8 280.05 389.2 294.45 443.45 310.45 448.15 M296.75 354.25 L301.4 372.0 318.0 380.05 319.7 382.0 320.0 382.2 321.8 383.05 321.55 394.0 Q320.25 422.2 312.4 443.25 L310.45 448.15" fill="none" stroke="#000000" stroke-linecap="round" stroke-linejoin="round" stroke-width="1.0"/>
    <path d="M310.45 448.15 L308.0 443.25 Q288.7 403.05 296.75 354.25 Z" fill="none" stroke="#000000" stroke-linecap="round" stroke-linejoin="round" stroke-opacity="0.5019608" stroke-width="1.0"/>
  </g>
</svg>
