<?xml version="1.0" encoding="UTF-8" standalone="no"?>
<svg xmlns:xlink="http://www.w3.org/1999/xlink" height="95.15px" width="229.9px" xmlns="http://www.w3.org/2000/svg">
  <g transform="matrix(1.0, 0.0, 0.0, 1.0, -284.95, -181.1)">
    <path d="M334.75 184.0 L333.55 183.8 333.05 183.25 Q333.05 182.95 333.55 182.75 L334.75 182.5 335.95 182.75 336.45 183.25 335.95 183.8 334.75 184.0 M330.9 187.0 Q330.3 186.75 330.35 186.4 330.3 186.0 330.9 185.75 L332.3 185.5 333.65 185.75 Q334.25 186.0 334.25 186.4 L333.65 187.0 332.3 187.25 330.9 187.0 M359.05 182.2 Q359.7 182.45 359.7 182.8 L359.05 183.4 357.5 183.65 355.95 183.4 Q355.35 183.15 355.35 182.8 355.35 182.45 355.95 182.2 L356.8 182.0 M350.9 182.5 L351.55 182.6 350.5 183.15 Q346.15 185.8 346.05 188.95 350.1 193.8 358.35 188.95 359.25 185.5 362.45 183.55 L363.4 183.25 M297.1 199.5 Q297.1 203.95 301.65 207.95 305.0 210.85 310.9 213.55 L317.65 216.2 321.85 216.95 Q332.5 218.6 339.5 217.9 356.1 216.15 351.3 200.65 L344.45 191.6 Q338.5 183.2 350.25 182.65 L350.9 182.5 M351.55 182.6 L350.25 182.65 M352.0 189.35 L350.6 189.1 Q350.0 188.85 350.05 188.45 350.0 188.05 350.6 187.85 L352.0 187.6 353.35 187.85 Q353.95 188.05 353.95 188.45 353.95 188.85 353.35 189.1 L352.0 189.35 M362.35 197.95 L361.95 196.95 M361.5 195.6 L361.25 194.45 M361.3 188.45 L361.55 187.5 M361.05 193.05 L361.0 192.15 M360.95 190.65 L361.05 189.8 M393.7 234.3 Q393.7 234.8 393.15 235.15 392.65 235.55 391.95 235.55 391.25 235.55 390.7 235.15 390.2 234.8 390.2 234.3 390.2 233.8 390.7 233.45 391.25 233.1 391.95 233.1 392.65 233.1 393.15 233.45 393.7 233.8 393.7 234.3 L399.9 234.3 Q396.6 232.35 394.05 230.3 L391.7 228.45 391.65 228.4 391.65 228.45 384.35 231.95 364.1 209.3 363.5 208.25 Q358.45 199.25 358.0 193.25 357.8 190.85 358.35 188.95 M362.2 186.2 L362.85 185.35 M368.5 182.4 L367.3 182.7 Q365.4 183.2 364.1 184.2 M420.15 184.3 Q439.55 183.65 432.4 198.15 L431.0 200.9 Q423.1 216.05 408.15 228.4 L408.15 228.45 415.45 231.95 435.7 209.3 436.3 208.25 Q441.35 199.25 441.8 193.25 442.0 190.85 441.45 188.95 440.55 185.5 437.35 183.55 L436.4 183.25 M440.75 182.2 Q440.1 182.45 440.1 182.8 440.1 183.15 440.75 183.4 L442.3 183.65 443.85 183.4 444.45 182.8 Q444.45 182.45 443.85 182.2 L443.0 182.0 M431.3 182.4 L432.5 182.7 Q434.4 183.2 435.7 184.2 M438.75 193.05 L438.8 192.15 M438.85 190.65 L438.75 189.8 M438.5 188.45 L438.25 187.5 M438.3 195.6 L438.55 194.45 M437.45 197.95 L437.85 196.95 M437.6 186.2 L436.95 185.35 M463.85 182.75 Q463.4 182.95 463.35 183.25 L463.85 183.8 465.05 184.0 466.25 183.8 466.75 183.25 466.25 182.75 465.05 182.5 463.85 182.75 M448.25 182.6 L449.55 182.65 448.9 182.5 448.25 182.6 449.3 183.15 Q453.65 185.8 453.75 188.95 449.7 193.8 441.45 188.95 M445.85 188.45 Q445.85 188.85 446.45 189.1 L447.8 189.35 449.2 189.1 449.75 188.45 Q449.8 188.05 449.2 187.85 L447.8 187.6 446.45 187.85 Q445.85 188.05 445.85 188.45 M449.55 182.65 Q461.3 183.2 455.35 191.6 L448.5 200.65 Q443.7 216.15 460.3 217.9 467.3 218.6 477.95 216.95 L482.15 216.2 488.9 213.55 Q494.8 210.85 498.15 207.95 502.7 203.95 502.7 199.5 M467.5 187.25 L468.9 187.0 469.45 186.4 Q469.5 186.0 468.9 185.75 L467.5 185.5 466.15 185.75 Q465.55 186.0 465.55 186.4 465.55 186.75 466.15 187.0 L467.5 187.25 M467.95 204.8 Q467.8 204.05 467.25 203.95 466.75 203.8 465.8 204.3 L465.65 204.65 467.85 205.05 467.95 204.8 M469.7 210.25 Q470.35 210.65 471.2 210.65 472.1 210.65 472.7 210.25 473.35 209.8 473.35 209.15 473.35 208.55 472.7 208.1 472.1 207.65 471.2 207.65 470.35 207.65 469.7 208.1 469.1 208.55 469.05 209.15 469.1 209.8 469.7 210.25 M479.5 218.15 L477.95 216.95 M457.0 202.6 Q458.7 201.7 459.1 202.95 L459.15 202.85 Q458.85 201.35 457.0 202.35 L453.65 209.55 453.7 209.7 454.0 209.15 456.85 202.95 457.0 202.6 M456.85 202.95 L458.9 203.3 459.1 202.95 459.15 203.15 459.05 203.35 459.1 203.35 465.65 204.65 M459.05 203.35 L458.9 203.3 M455.8 210.0 Q454.3 210.9 453.7 209.7 L453.65 209.85 Q454.2 211.2 455.8 210.25 L456.1 209.6 456.0 209.55 455.8 210.0 M445.55 215.45 Q444.95 215.85 444.95 216.4 444.95 216.95 445.55 217.3 446.1 217.7 446.85 217.7 447.6 217.7 448.15 217.3 448.7 216.95 448.7 216.4 448.7 215.85 448.15 215.45 447.6 215.05 446.85 215.1 446.1 215.05 445.55 215.45 M448.75 222.45 Q448.15 222.9 448.1 223.5 448.15 224.05 448.75 224.5 L450.2 224.95 451.7 224.5 Q452.3 224.05 452.3 223.5 452.3 222.9 451.7 222.45 451.05 222.0 450.2 222.0 449.4 222.0 448.75 222.45 M462.7 211.05 L462.45 211.5 Q463.05 212.85 464.6 211.9 L464.8 211.5 462.7 211.05 456.1 209.6 M456.0 209.55 L454.0 209.15 M465.0 237.9 L451.85 239.05 446.9 239.25 Q447.3 239.7 447.2 240.35 L445.25 247.3 447.6 247.75 447.65 247.05 447.9 246.05 Q448.55 243.65 450.5 241.3 L447.7 240.8 M447.9 246.05 L452.5 246.2 Q458.85 245.65 461.45 244.7 M446.9 239.25 Q446.6 238.9 446.05 238.7 L445.65 238.5 437.6 237.75 Q436.0 237.35 435.05 238.7 L434.8 239.7 434.35 241.6 433.95 243.3 433.5 245.2 433.25 246.2 433.55 247.05 Q434.0 247.65 435.0 247.85 L436.85 248.05 442.65 248.8 443.1 248.85 Q444.5 249.5 445.05 248.0 L445.25 247.3 M460.3 217.9 L452.9 231.95 Q451.95 235.5 451.85 239.05 M464.8 211.5 L467.85 205.05 M436.4 200.35 L436.85 199.3 M439.55 208.65 L438.85 208.45 438.2 208.65 437.85 209.15 438.2 209.6 438.85 209.85 439.55 209.6 439.85 209.15 439.55 208.65 M433.8 205.35 L434.45 204.2 M432.2 208.0 L433.0 206.75 M430.85 210.05 L431.4 209.25 M426.05 216.45 L426.7 215.65 M427.7 214.4 L428.35 213.55 M429.3 212.25 L430.0 211.3 M441.9 221.9 Q441.3 222.35 441.25 223.0 441.3 223.6 441.9 224.05 L443.4 224.5 Q444.3 224.45 444.9 224.05 445.55 223.6 445.55 223.0 445.55 222.35 444.9 221.9 444.3 221.45 443.4 221.5 442.5 221.45 441.9 221.9 M435.15 202.95 L435.8 201.65 M420.85 222.35 L421.45 221.75 M424.35 218.45 L425.0 217.7 M422.5 220.55 L423.3 219.65 M418.95 224.3 L419.7 223.55 M415.3 227.85 L415.95 227.25 M417.1 226.1 L417.8 225.45 M399.9 229.9 L399.9 234.3 Q403.2 232.35 405.75 230.3 L408.1 228.45 408.15 228.4 M407.45 234.3 L406.1 234.3 Q406.1 234.8 406.65 235.15 407.15 235.55 407.85 235.55 408.55 235.55 409.1 235.15 409.6 234.8 409.6 234.3 409.6 233.8 409.1 233.45 408.55 233.1 407.85 233.1 407.15 233.1 406.65 233.45 406.1 233.8 406.1 234.3 L399.9 234.3 399.9 248.15 406.8 244.45 406.55 243.8 Q406.55 243.25 407.1 242.9 407.65 242.5 408.35 242.5 409.15 242.5 409.65 242.9 410.2 243.25 410.2 243.8 410.2 244.3 409.65 244.7 L408.35 245.05 Q407.65 245.05 407.1 244.7 L406.8 244.45 408.35 243.65 M413.7 229.35 L414.1 229.0 M434.8 239.7 L424.2 239.7 Q418.2 242.6 424.0 245.0 L424.2 245.1 433.5 245.2 M434.35 241.6 L426.35 241.5 Q424.3 242.35 426.35 243.25 L433.95 243.3 M431.65 247.35 L429.15 247.5 421.5 248.05 421.35 248.05 419.0 248.2 419.55 255.55 421.9 255.4 422.0 255.4 429.7 255.05 432.2 254.95 431.7 247.35 431.65 247.35 M431.7 247.35 L431.65 247.05 429.1 247.1 429.15 247.5 M433.55 247.05 L431.7 247.35 M438.7 239.95 Q438.7 240.6 444.4 240.65 L444.65 239.8 438.2 239.25 435.8 246.6 442.55 247.5 444.4 240.65 M437.45 256.1 Q436.8 256.25 436.2 256.9 L436.0 257.4 435.15 259.25 434.6 260.55 433.55 262.9 433.0 264.15 433.15 265.0 Q433.45 265.6 434.4 265.9 L440.45 267.25 441.8 267.6 Q443.2 267.95 444.35 267.0 L444.7 266.35 444.8 266.1 447.8 259.85 447.9 259.6 Q448.1 258.95 447.8 258.55 L447.05 257.9 438.9 256.15 437.45 256.1 M445.1 259.65 L441.95 266.25 435.45 264.8 439.2 257.7 445.45 258.9 445.1 259.65 Q439.45 259.05 439.55 258.45 M432.2 254.95 L437.4 254.1 436.85 248.05 M435.15 259.25 L426.9 259.25 Q425.35 259.9 426.9 260.6 L434.6 260.55 M429.7 255.05 L429.75 255.65 Q430.45 256.25 431.05 256.25 431.7 256.2 432.25 255.45 L432.2 254.95 M431.0 264.15 L430.3 263.95 429.65 264.15 Q429.35 264.35 429.3 264.65 L429.65 265.1 430.3 265.35 431.0 265.1 431.3 264.65 431.0 264.15 M453.0 264.7 Q451.0 266.05 447.1 266.35 L446.9 267.0 444.75 266.35 444.7 266.35 M421.35 248.05 L421.3 247.6 Q420.2 246.4 418.95 247.85 L419.0 248.2 M421.5 248.05 L421.45 247.8 421.4 247.8 421.3 247.6 421.3 247.5 418.8 247.55 419.45 256.1 419.6 256.25 419.55 255.55 M419.6 256.25 L419.75 256.35 Q420.9 257.2 421.9 255.95 L421.9 255.4 M419.6 256.25 L419.6 256.4 Q420.95 257.65 422.05 256.2 L422.05 255.85 422.0 255.4 M408.6 252.2 L407.4 251.65 407.25 251.55 407.1 252.05 Q407.15 252.55 407.65 252.95 L408.95 253.3 410.25 252.95 Q410.8 252.55 410.8 252.05 410.8 251.5 410.25 251.1 409.7 250.7 408.95 250.75 408.2 250.7 407.65 251.1 L407.25 251.55 399.9 248.15 399.9 261.25 408.5 261.25 408.5 261.15 Q408.5 260.6 409.05 260.25 409.55 259.9 410.3 259.9 411.05 259.9 411.6 260.25 412.1 260.6 412.05 261.15 412.1 261.65 411.6 262.0 411.05 262.4 410.3 262.4 409.55 262.4 409.05 262.0 408.55 261.7 408.5 261.25 L410.15 261.25 M436.0 257.4 L425.15 257.25 Q420.2 260.05 424.75 262.85 L433.55 262.9 M440.45 267.25 Q425.35 272.9 411.95 267.3 L399.9 263.65 399.9 261.25 391.3 261.25 390.75 262.0 Q390.25 262.4 389.5 262.4 388.75 262.4 388.2 262.0 387.7 261.65 387.75 261.15 387.7 260.6 388.2 260.25 388.75 259.9 389.5 259.9 390.25 259.9 390.75 260.25 391.3 260.6 391.3 261.15 L391.3 261.25 389.65 261.25 M458.1 257.7 Q455.75 260.35 451.0 260.85 L450.95 260.9 448.85 263.2 Q447.65 264.75 447.1 266.35 M451.0 260.85 L450.95 260.85 447.8 259.85 M452.5 246.2 L452.9 247.9 Q454.35 256.05 451.0 260.85 M379.65 184.3 Q360.25 183.65 367.4 198.15 L368.8 200.9 Q376.7 216.05 391.65 228.4 M367.6 208.0 L366.8 206.75 M366.0 205.35 L365.35 204.2 M368.95 210.05 L368.4 209.25 M373.75 216.45 L373.1 215.65 M372.1 214.4 L371.45 213.55 M370.5 212.25 L369.8 211.3 M378.95 222.35 L378.35 221.75 M375.45 218.45 L374.8 217.7 M377.3 220.55 L376.5 219.65 M380.85 224.3 L380.1 223.55 M384.5 227.85 L383.85 227.25 M382.7 226.1 L382.0 225.45 M364.75 238.7 Q363.8 237.35 362.2 237.75 L354.15 238.5 353.75 238.7 352.9 239.25 Q352.5 239.7 352.6 240.35 L354.55 247.3 354.75 248.0 Q355.3 249.5 356.7 248.85 L357.15 248.8 362.95 248.05 364.8 247.85 Q365.8 247.65 366.25 247.05 L366.55 246.2 366.3 245.2 365.85 243.3 365.45 241.6 365.0 239.7 364.75 238.7 M368.15 247.35 L370.65 247.5 370.7 247.1 368.15 247.05 368.1 247.35 368.15 247.35 M362.95 248.05 L362.4 254.1 367.6 254.95 368.1 247.35 366.25 247.05 M365.45 241.6 L373.45 241.5 Q375.5 242.35 373.45 243.25 L365.85 243.3 M366.3 245.2 L375.6 245.1 375.8 245.0 Q381.6 242.6 375.6 239.7 L365.0 239.7 M386.1 229.35 L385.7 229.0 M393.7 234.3 L392.35 234.3 M393.0 244.45 L393.25 243.8 Q393.25 243.25 392.7 242.9 392.15 242.5 391.45 242.5 390.65 242.5 390.15 242.9 389.6 243.25 389.6 243.8 389.6 244.3 390.15 244.7 L391.45 245.05 392.7 244.7 393.0 244.45 391.45 243.65 M363.4 200.35 L362.95 199.3 M361.6 208.65 L361.95 209.15 361.6 209.6 360.95 209.85 360.25 209.6 359.95 209.15 Q359.95 208.85 360.25 208.65 L360.95 208.45 361.6 208.65 M345.8 209.15 L343.8 209.55 344.0 210.0 Q345.5 210.9 346.1 209.7 L345.8 209.15 342.95 202.95 340.9 203.3 340.75 203.35 340.7 203.35 334.15 204.65 331.95 205.05 335.0 211.5 337.1 211.05 343.7 209.6 343.8 209.55 M340.75 203.35 L340.65 203.15 340.7 202.95 340.65 202.85 Q340.95 201.35 342.8 202.35 L346.15 209.55 346.1 209.7 346.15 209.85 Q345.6 211.2 344.0 210.25 L343.7 209.6 M352.95 217.7 Q352.2 217.7 351.65 217.3 351.1 216.95 351.1 216.4 351.1 215.85 351.65 215.45 352.2 215.05 352.95 215.1 353.7 215.05 354.25 215.45 354.85 215.85 354.85 216.4 354.85 216.95 354.25 217.3 353.7 217.7 352.95 217.7 M351.05 222.45 Q351.65 222.9 351.7 223.5 351.65 224.05 351.05 224.5 350.4 224.95 349.6 224.95 348.75 224.95 348.1 224.5 347.5 224.05 347.5 223.5 347.5 222.9 348.1 222.45 348.75 222.0 349.6 222.0 350.4 222.0 351.05 222.45 M356.4 221.5 Q357.3 221.45 357.9 221.9 358.5 222.35 358.55 223.0 358.5 223.6 357.9 224.05 357.3 224.45 356.4 224.5 L354.9 224.05 Q354.25 223.6 354.25 223.0 354.25 222.35 354.9 221.9 355.5 221.45 356.4 221.5 M340.9 203.3 L340.7 202.95 Q341.1 201.7 342.8 202.6 L342.95 202.95 M326.45 209.15 Q326.45 208.55 327.1 208.1 327.7 207.65 328.6 207.65 329.45 207.65 330.1 208.1 330.7 208.55 330.75 209.15 330.7 209.8 330.1 210.25 L328.6 210.65 Q327.7 210.65 327.1 210.25 326.45 209.8 326.45 209.15 M331.95 205.05 L331.85 204.8 Q332.0 204.05 332.55 203.95 333.05 203.8 334.0 204.3 L334.15 204.65 M337.1 211.05 L337.35 211.5 Q336.75 212.85 335.2 211.9 L335.0 211.5 M352.1 240.8 L349.3 241.3 Q351.25 243.65 351.9 246.05 L352.15 247.05 352.2 247.75 354.55 247.3 M338.35 244.7 Q340.95 245.65 347.3 246.2 L351.9 246.05 M352.9 239.25 L347.95 239.05 334.8 237.9 M355.4 240.65 L357.25 247.5 364.0 246.6 361.6 239.25 355.15 239.8 355.4 240.65 Q361.1 240.6 361.1 239.95 M347.95 239.05 Q347.85 235.5 346.9 231.95 L339.5 217.9 M347.3 246.2 L346.9 247.9 Q345.45 256.05 348.8 260.85 L348.85 260.85 352.0 259.85 351.9 259.6 Q351.7 258.95 352.0 258.55 352.2 258.15 352.75 257.9 L360.9 256.15 362.35 256.1 363.6 256.9 363.8 257.4 374.65 257.25 Q379.6 260.05 375.05 262.85 L366.25 262.9 366.8 264.15 366.65 265.0 Q366.35 265.6 365.4 265.9 L359.35 267.25 Q374.45 272.9 387.85 267.3 L399.9 263.65 M354.7 259.65 L357.85 266.25 364.35 264.8 360.6 257.7 354.35 258.9 354.7 259.65 Q360.35 259.05 360.25 258.45 M346.8 264.7 Q348.8 266.05 352.7 266.35 352.15 264.75 350.95 263.2 349.75 262.15 348.85 260.9 L348.8 260.85 Q344.05 260.35 341.7 257.7 M359.35 267.25 L358.0 267.6 Q356.6 267.95 355.45 267.0 L355.1 266.35 355.05 266.35 352.9 267.0 352.7 266.35 M355.1 266.35 L355.0 266.1 352.0 259.85 M392.55 251.55 L392.15 251.1 390.85 250.75 Q390.1 250.7 389.55 251.1 389.0 251.5 389.0 252.05 389.0 252.55 389.55 252.95 390.1 253.3 390.85 253.3 L392.15 252.95 392.7 252.05 392.55 251.55 392.4 251.65 391.2 252.2 M399.9 248.15 L392.55 251.55 M380.85 247.85 Q379.6 246.4 378.5 247.6 L378.45 248.05 380.8 248.2 380.85 247.85 M378.5 247.6 L378.4 247.8 378.35 247.8 378.3 248.05 378.45 248.05 M378.5 247.6 L378.5 247.5 381.0 247.55 380.35 256.1 380.2 256.25 380.2 256.4 Q378.85 257.65 377.75 256.2 L377.75 255.85 377.8 255.4 370.1 255.05 370.05 255.65 Q369.35 256.25 368.75 256.25 368.1 256.2 367.55 255.45 L367.6 254.95 370.1 255.05 M377.8 255.4 L377.9 255.4 380.25 255.55 380.8 248.2 M377.9 255.4 L377.9 255.95 Q378.9 257.2 380.05 256.35 L380.2 256.25 380.25 255.55 M363.8 257.4 L364.65 259.25 372.9 259.25 Q374.45 259.9 372.9 260.6 L365.2 260.55 366.25 262.9 M370.15 265.1 L369.5 265.35 368.8 265.1 368.5 264.65 Q368.5 264.35 368.8 264.15 L369.5 263.95 370.15 264.15 370.5 264.65 370.15 265.1 M364.65 259.25 L365.2 260.55 M378.3 248.05 L370.65 247.5 M364.65 202.95 L364.0 201.65 M399.9 248.15 L393.0 244.45 M510.15 207.5 L510.15 207.65 Q510.15 214.3 488.9 213.55 M320.3 218.15 L321.85 216.95 M289.65 207.5 L289.65 207.65 Q289.65 214.3 310.9 213.55" fill="none" stroke="#000000" stroke-linecap="round" stroke-linejoin="round" stroke-opacity="0.49803922" stroke-width="1.0"/>
    <path d="M358.95 182.2 L359.05 182.2 Q361.25 182.5 363.4 183.25 365.4 182.6 367.45 182.45 L368.5 182.4 379.85 182.5 379.65 184.3 Q356.4 192.4 387.05 215.45 397.5 220.95 399.6 228.45 L399.9 229.9 400.2 228.45 Q402.3 220.95 412.75 215.45 443.4 192.4 420.15 184.3 L419.95 182.5 431.3 182.4 432.35 182.45 Q434.4 182.6 436.4 183.25 438.55 182.5 440.75 182.2 L440.85 182.2 442.3 181.95 443.0 182.0 443.85 182.0 448.25 182.4 448.9 182.5 449.5 182.45 Q481.3 178.15 502.1 196.25 502.7 197.9 502.7 199.5 L510.0 206.6 510.15 207.5 513.85 210.65 Q516.15 214.35 507.55 218.15 L498.25 221.95 Q486.15 222.85 479.5 218.15 470.25 228.9 465.0 237.9 L464.55 240.3 Q463.7 242.55 461.45 244.7 458.25 251.85 458.1 257.7 458.95 262.05 453.0 264.7 447.65 269.4 437.35 273.45 L418.5 275.75 Q401.4 276.25 399.9 263.65 398.4 276.25 381.3 275.75 L362.45 273.45 Q352.15 269.4 346.8 264.7 340.85 262.05 341.7 257.7 341.55 251.85 338.35 244.7 336.1 242.55 335.25 240.3 334.85 239.1 334.8 237.9 329.55 228.9 320.3 218.15 313.65 222.85 301.55 221.95 L292.25 218.15 Q283.65 214.35 285.95 210.65 L289.65 207.5 Q289.65 207.05 289.8 206.6 L297.1 199.5 Q297.1 197.9 297.7 196.25 318.5 178.15 350.3 182.45 L350.9 182.5 351.55 182.4 355.95 182.0 356.8 182.0 357.5 181.95 358.95 182.2" fill="none" stroke="#000000" stroke-linecap="round" stroke-linejoin="round" stroke-width="1.0"/>
  </g>
</svg>
