<?xml version="1.0" encoding="UTF-8" standalone="no"?>
<svg xmlns:xlink="http://www.w3.org/1999/xlink" height="153.2px" width="63.2px" xmlns="http://www.w3.org/2000/svg">
  <g transform="matrix(1.0, 0.0, 0.0, 1.0, -284.4, -203.0)">
    <path d="M340.05 234.2 Q344.15 239.9 347.6 245.95 344.75 253.35 340.95 260.55 333.65 273.95 322.75 286.3 330.15 295.45 332.3 305.7 325.05 324.9 323.3 346.95 L320.45 349.1 Q309.45 356.75 297.25 356.15 L290.2 355.1 Q284.5 329.2 284.6 306.8 L284.55 306.3 Q283.55 293.65 290.45 282.45 L288.15 275.7 294.8 267.3 Q298.2 256.5 298.4 245.7 296.7 239.3 296.25 233.65 295.45 224.1 298.45 216.5 302.75 207.8 309.6 203.0 L314.1 206.65 Q329.25 219.25 340.05 234.2" fill="#000000" fill-rule="evenodd" stroke="none"/>
  </g>
</svg>
