<?xml version="1.0" encoding="UTF-8" standalone="no"?>
<svg xmlns:xlink="http://www.w3.org/1999/xlink" height="121.4px" width="101.3px" xmlns="http://www.w3.org/2000/svg">
  <g transform="matrix(1.0, 0.0, 0.0, 1.0, -349.25, -187.4)">
    <path d="M360.05 187.8 L366.55 187.45 Q369.2 194.3 374.9 201.1 L371.3 200.8 366.6 195.65 362.35 195.65 360.05 187.8 M351.2 192.25 Q353.0 190.4 355.4 189.3 L358.15 195.65 356.05 199.75 353.65 199.65 351.2 192.25 M444.4 189.3 Q446.8 190.4 448.6 192.25 L446.15 199.65 443.75 199.75 441.65 195.65 444.4 189.3 M437.45 195.65 L433.2 195.65 428.5 200.8 424.9 201.1 Q430.6 194.3 433.25 187.45 L439.75 187.8 437.45 195.65 M432.1 269.25 Q431.5 269.25 431.05 269.7 430.6 270.15 430.6 270.75 430.6 271.35 431.05 271.8 431.5 272.25 432.1 272.25 432.7 272.25 433.15 271.8 L433.6 270.75 Q433.6 270.15 433.15 269.7 432.7 269.25 432.1 269.25 M433.9 265.15 Q442.4 261.85 443.6 254.35 426.8 242.15 399.9 242.3 373.0 242.15 356.2 254.35 357.4 261.85 365.9 265.15 378.15 252.05 399.9 252.85 421.65 252.05 433.9 265.15 M428.65 269.25 L428.65 263.45 Q418.9 255.8 403.8 255.2 L399.9 254.95 396.0 255.2 Q380.9 255.8 371.15 263.45 L371.15 269.25 376.4 284.2 399.9 279.6 423.4 284.2 428.65 269.25 M429.1 277.45 Q428.5 277.45 428.05 277.9 427.6 278.35 427.6 278.95 427.6 279.55 428.05 280.0 428.5 280.45 429.1 280.45 429.7 280.45 430.15 280.0 L430.6 278.95 Q430.6 278.35 430.15 277.9 429.7 277.45 429.1 277.45 M427.0 289.95 Q427.6 289.95 428.05 289.5 L428.5 288.45 Q428.5 287.85 428.05 287.4 427.6 286.95 427.0 286.95 426.4 286.95 425.95 287.4 425.5 287.85 425.5 288.45 425.5 289.05 425.95 289.5 426.4 289.95 427.0 289.95 M425.7 296.3 Q425.1 296.3 424.65 296.75 424.2 297.2 424.2 297.8 424.2 298.4 424.65 298.85 425.1 299.3 425.7 299.3 L426.75 298.85 Q427.2 298.4 427.2 297.8 427.2 297.2 426.75 296.75 426.3 296.3 425.7 296.3 M436.9 288.4 L436.9 307.05 420.65 308.8 420.65 305.45 422.6 289.45 399.9 285.05 377.2 289.45 379.15 305.45 379.15 308.8 362.9 307.05 362.9 288.4 355.3 273.5 365.1 267.6 Q351.65 260.85 349.25 246.35 352.95 247.1 356.75 245.75 378.95 239.7 399.9 240.0 420.85 239.7 443.05 245.75 446.85 247.1 450.55 246.35 448.15 260.85 434.7 267.6 L444.5 273.5 436.9 288.4 M375.6 305.1 Q375.6 304.5 375.15 304.05 374.7 303.6 374.1 303.6 373.5 303.6 373.05 304.05 372.6 304.5 372.6 305.1 372.6 305.7 373.05 306.15 373.5 306.6 374.1 306.6 L375.15 306.15 375.6 305.1 M374.1 296.3 Q373.5 296.3 373.05 296.75 372.6 297.2 372.6 297.8 372.6 298.4 373.05 298.85 373.5 299.3 374.1 299.3 L375.15 298.85 375.6 297.8 Q375.6 297.2 375.15 296.75 374.7 296.3 374.1 296.3 M374.3 288.45 Q374.3 287.85 373.85 287.4 373.4 286.95 372.8 286.95 372.2 286.95 371.75 287.4 371.3 287.85 371.3 288.45 371.3 289.05 371.75 289.5 372.2 289.95 372.8 289.95 373.4 289.95 373.85 289.5 374.3 289.05 374.3 288.45 M370.7 277.45 Q370.1 277.45 369.65 277.9 369.2 278.35 369.2 278.95 369.2 279.55 369.65 280.0 370.1 280.45 370.7 280.45 371.3 280.45 371.75 280.0 372.2 279.55 372.2 278.95 372.2 278.35 371.75 277.9 371.3 277.45 370.7 277.45 M369.2 270.75 Q369.2 270.15 368.75 269.7 368.3 269.25 367.7 269.25 367.1 269.25 366.65 269.7 366.2 270.15 366.2 270.75 366.2 271.35 366.65 271.8 367.1 272.25 367.7 272.25 368.3 272.25 368.75 271.8 369.2 271.35 369.2 270.75 M425.7 303.6 Q425.1 303.6 424.65 304.05 424.2 304.5 424.2 305.1 424.2 305.7 424.65 306.15 425.1 306.6 425.7 306.6 L426.75 306.15 Q427.2 305.7 427.2 305.1 427.2 304.5 426.75 304.05 426.3 303.6 425.7 303.6" fill="#000000" fill-rule="evenodd" stroke="none"/>
  </g>
</svg>
