<?xml version="1.0" encoding="UTF-8" standalone="no"?>
<svg xmlns:xlink="http://www.w3.org/1999/xlink" height="141.95px" width="108.9px" xmlns="http://www.w3.org/2000/svg">
  <g transform="matrix(1.0, 0.0, 0.0, 1.0, -345.4, -172.6)">
    <path d="M376.35 185.05 Q366.2 202.4 371.55 237.65 L371.65 238.55 Q373.35 253.35 373.05 268.8 372.85 279.5 371.7 290.5 L370.6 299.45 369.4 290.0 Q365.05 260.1 353.3 230.25 L363.0 225.7 345.4 216.25 350.8 208.15 364.45 187.2 Q368.65 180.45 373.85 174.3 L380.95 172.6 379.75 184.3 376.35 185.05 M423.35 185.05 L419.95 184.3 418.75 172.6 425.85 174.3 Q431.05 180.45 435.25 187.2 L448.9 208.15 454.3 216.25 436.7 225.7 446.4 230.25 Q434.65 260.1 430.3 290.0 L429.1 299.45 428.0 290.5 Q426.85 279.5 426.65 268.8 426.35 253.35 428.05 238.55 L428.15 237.65 Q433.5 202.4 423.35 185.05 M365.9 314.55 L354.4 312.35 354.4 302.0 367.2 303.85 365.9 314.55 M432.5 303.85 L445.3 302.0 445.3 312.35 433.8 314.55 432.5 303.85" fill="#000000" fill-rule="evenodd" stroke="none"/>
  </g>
</svg>
