<?xml version="1.0" encoding="UTF-8" standalone="no"?>
<svg xmlns:xlink="http://www.w3.org/1999/xlink" height="191.45px" width="327.6px" xmlns="http://www.w3.org/2000/svg">
  <g transform="matrix(1.0, 0.0, 0.0, 1.0, -236.1, -153.25)">
    <path d="M401.4 253.35 L401.15 253.3 400.6 253.3 401.15 253.35 401.4 253.35 M401.4 215.25 L401.15 215.15 400.6 215.25 401.15 215.25 401.4 215.25 M398.4 215.25 L398.65 215.25 399.2 215.25 398.65 215.15 398.4 215.25 M401.4 190.95 L401.15 190.9 400.6 190.9 401.15 190.95 401.4 190.95 M398.65 190.9 L398.4 190.95 398.65 190.95 399.2 190.9 398.65 190.9 M511.3 158.0 Q513.7 159.05 515.95 160.15 543.05 166.0 559.2 179.5 L563.7 183.6 562.15 184.35 Q547.85 191.7 533.65 197.75 533.1 197.95 532.7 198.25 L523.1 202.15 514.75 205.35 506.45 208.35 Q490.15 213.95 474.15 218.0 454.1 223.0 434.35 225.4 L430.25 343.7 424.65 344.05 Q412.3 344.8 399.9 344.65 387.5 344.8 375.15 344.05 L369.55 343.7 365.45 225.4 Q345.7 223.0 325.65 218.0 309.65 213.95 293.35 208.35 L285.05 205.35 276.7 202.15 267.1 198.25 266.15 197.75 Q251.95 191.7 237.65 184.35 L236.1 183.6 240.6 179.5 Q256.75 166.0 283.85 160.15 286.1 159.05 288.5 158.0 294.15 155.5 300.45 153.25 317.75 160.8 325.65 163.8 L325.7 163.8 326.45 164.05 Q360.6 177.05 394.85 177.8 L397.5 177.8 398.05 177.8 399.25 177.8 399.75 177.8 400.05 177.8 400.55 177.8 401.75 177.8 402.3 177.8 404.95 177.8 Q439.2 177.05 473.35 164.05 473.8 163.85 474.1 163.8 L474.15 163.8 Q482.05 160.8 499.35 153.25 505.65 155.5 511.3 158.0 M400.0 253.35 L400.25 253.3 400.05 253.3 400.0 253.35 399.9 253.35 399.85 253.35 399.75 253.3 399.55 253.3 399.85 253.35 399.9 253.35 399.95 253.35 400.0 253.35 M398.4 253.35 L398.65 253.35 399.2 253.3 398.65 253.3 398.4 253.35 M401.4 277.7 L401.15 277.55 400.6 277.7 401.15 277.7 401.4 277.7 M398.4 277.7 L398.65 277.7 399.2 277.7 398.65 277.55 Q398.5 277.55 398.4 277.7" fill="#000000" fill-rule="evenodd" stroke="none"/>
  </g>
</svg>
