<?xml version="1.0" encoding="UTF-8" standalone="no"?>
<svg xmlns:xlink="http://www.w3.org/1999/xlink" height="186.9px" width="110.4px" xmlns="http://www.w3.org/2000/svg">
  <g transform="matrix(1.0, 0.0, 0.0, 1.0, -195.1, -188.85)">
    <path d="M296.0 215.4 L297.3 219.15 Q277.75 216.5 246.85 217.3 L216.65 218.1 208.3 218.7 210.5 215.65 230.8 214.9 247.3 214.2 Q276.6 213.3 296.0 215.4 M216.9 192.65 L228.75 192.0 247.3 190.55 247.4 190.55 284.8 188.85 286.3 192.0 247.4 193.5 247.3 193.5 222.15 195.4 213.85 195.65 216.9 192.65 M299.25 280.0 Q295.35 261.7 228.5 267.35 L215.1 268.4 202.9 269.85 204.7 267.05 211.75 266.2 230.3 264.25 Q298.75 258.3 302.05 275.0 L299.25 280.0 M211.05 371.95 Q221.9 367.45 231.0 364.4 257.55 355.55 270.25 358.1 270.45 359.8 271.0 361.6 258.7 357.6 231.8 367.15 222.25 370.55 210.7 375.75 L211.05 371.95 M219.4 324.55 L206.15 327.7 195.1 330.45 197.0 327.5 209.35 324.55 Q214.35 323.2 219.15 322.2 285.8 306.6 292.35 324.45 L289.15 327.85 Q283.15 310.1 219.4 324.55 M215.95 345.0 L224.75 342.65 Q265.25 332.65 274.85 343.8 L272.15 348.1 Q264.55 335.95 225.4 344.95 219.4 346.35 210.05 349.0 204.35 350.5 202.1 351.45 L202.55 348.2 Q207.5 347.3 215.95 345.0 M199.2 295.8 L201.8 295.55 217.1 293.55 Q281.6 285.55 298.4 294.55 299.95 299.15 300.15 303.55 296.1 286.8 215.85 296.45 L204.4 297.95 197.1 298.9 199.2 295.8 M243.45 238.9 Q287.3 238.2 304.4 244.1 L305.5 249.1 Q290.85 241.5 242.85 242.1 235.55 242.15 215.2 242.85 L215.2 242.9 204.75 243.5 207.35 240.0 230.65 239.25 243.45 238.9" fill="#000000" fill-rule="evenodd" stroke="none"/>
  </g>
</svg>
