<?xml version="1.0" encoding="UTF-8" standalone="no"?>
<svg xmlns:xlink="http://www.w3.org/1999/xlink" height="212.65px" width="385.7px" xmlns="http://www.w3.org/2000/svg">
  <g transform="matrix(1.0, 0.0, 0.0, 1.0, -207.05, -159.65)">
    <path d="M578.25 272.4 L569.8 260.6 M505.1 286.65 L511.65 296.8 M294.7 286.65 L288.15 296.8 M221.55 272.4 L230.0 260.6" fill="none" stroke="#000000" stroke-linecap="round" stroke-linejoin="round" stroke-opacity="0.5019608" stroke-width="1.0"/>
    <path d="M515.95 160.15 Q593.15 176.85 581.65 255.3 580.5 263.5 578.25 272.4 592.55 291.3 592.25 313.5 L592.0 318.85 589.55 371.4 586.1 371.7 Q569.25 372.4 552.4 368.75 540.55 366.15 528.75 361.4 L522.0 358.2 Q518.25 340.2 505.65 322.2 L505.5 321.95 Q503.15 318.7 501.75 315.35 497.5 305.15 501.75 293.65 L502.1 292.75 Q503.35 289.7 505.1 286.65 L502.3 282.65 Q494.2 270.8 492.55 258.75 499.6 215.7 522.25 174.95 L526.25 167.95 Q522.55 164.05 515.95 160.15 M277.55 174.95 Q300.2 215.7 307.25 258.75 305.6 270.8 297.5 282.65 L294.7 286.65 Q296.45 289.7 297.7 292.75 L298.05 293.65 Q302.3 305.15 298.05 315.35 296.65 318.7 294.3 321.95 L294.15 322.2 Q281.55 340.2 277.8 358.2 L271.05 361.4 Q259.25 366.15 247.45 368.75 230.55 372.4 213.7 371.7 L210.25 371.4 207.8 318.85 207.55 313.5 Q207.25 291.3 221.55 272.4 219.3 263.5 218.15 255.3 206.65 176.85 283.85 160.15 277.25 164.05 273.55 167.95 L277.55 174.95" fill="none" stroke="#000000" stroke-linecap="round" stroke-linejoin="round" stroke-width="1.0"/>
  </g>
</svg>
