<?xml version="1.0" encoding="UTF-8" standalone="no"?>
<svg xmlns:xlink="http://www.w3.org/1999/xlink" height="354.1px" width="390.2px" xmlns="http://www.w3.org/2000/svg">
  <g transform="matrix(1.0, 0.0, 0.0, 1.0, -204.8, -159.65)">
    <path d="M581.6 374.65 Q575.95 462.55 541.85 507.75 L537.5 513.25 M218.2 374.65 Q223.85 462.55 257.95 507.75 L262.3 513.25" fill="none" stroke="#000000" stroke-linecap="round" stroke-linejoin="round" stroke-opacity="0.5019608" stroke-width="1.0"/>
    <path d="M537.5 513.25 Q565.8 508.0 591.25 446.95 597.4 348.35 592.0 306.95 L592.0 306.8 591.95 306.3 Q590.2 288.2 578.25 272.4 580.5 263.5 581.65 255.3 593.15 176.85 515.95 160.15 522.55 164.05 526.25 167.95 L522.25 174.95 Q499.6 215.7 492.55 258.75 494.2 270.8 502.3 282.65 L505.1 286.65 Q503.35 289.7 502.1 292.75 L501.75 293.65 Q497.5 305.15 501.75 315.35 503.15 318.7 505.5 321.95 L505.65 322.2 Q508.3 325.8 512.15 329.25 522.9 338.85 529.0 350.55 530.55 356.6 528.75 361.4 559.7 354.9 581.6 374.65 M537.5 513.25 L534.05 507.75 Q520.15 484.1 517.85 452.35 517.5 446.85 517.45 441.1 522.5 442.8 528.75 438.65 L532.7 434.15 570.9 415.55 581.6 374.65 M277.55 174.95 Q300.2 215.7 307.25 258.75 305.6 270.8 297.5 282.65 L294.7 286.65 Q296.45 289.7 297.7 292.75 L298.05 293.65 Q302.3 305.15 298.05 315.35 296.65 318.7 294.3 321.95 L294.15 322.2 Q291.5 325.8 287.65 329.25 276.9 338.85 270.8 350.55 269.25 356.6 271.05 361.4 240.1 354.9 218.2 374.65 L228.9 415.55 267.1 434.15 271.05 438.65 Q277.3 442.8 282.35 441.1 L281.95 452.35 Q279.65 484.1 265.75 507.75 L262.3 513.25 Q234.0 508.0 208.55 446.95 202.4 348.35 207.8 306.95 L207.8 306.8 207.85 306.3 Q209.6 288.2 221.55 272.4 219.3 263.5 218.15 255.3 206.65 176.85 283.85 160.15 277.25 164.05 273.55 167.95 L277.55 174.95" fill="none" stroke="#000000" stroke-linecap="round" stroke-linejoin="round" stroke-width="1.0"/>
  </g>
</svg>
