<?xml version="1.0" encoding="UTF-8" standalone="no"?>
<svg xmlns:xlink="http://www.w3.org/1999/xlink" height="201.05px" width="232.4px" xmlns="http://www.w3.org/2000/svg">
  <g transform="matrix(1.0, 0.0, 0.0, 1.0, -283.7, -144.1)">
    <path d="M506.2 195.25 Q513.6 212.35 515.6 232.45 509.55 247.0 494.0 257.9 L492.55 258.75 Q494.2 270.8 502.3 282.65 494.1 293.65 481.35 298.8 L473.9 312.35 470.8 318.0 470.8 320.75 470.8 329.5 470.8 338.3 Q453.1 341.65 435.35 343.25 L399.9 344.65 364.45 343.25 Q346.7 341.65 329.0 338.3 L329.0 329.5 329.0 320.75 329.0 318.0 325.9 312.35 318.45 298.8 Q305.7 293.65 297.5 282.65 305.6 270.8 307.25 258.75 L305.8 257.9 Q290.25 247.0 284.2 232.45 286.2 212.35 293.6 195.25 295.0 192.05 296.55 188.95 302.9 185.75 311.8 184.45 L301.6 152.85 Q305.35 150.15 309.65 148.35 313.45 146.7 317.7 145.8 323.7 144.5 330.6 144.6 336.7 166.45 355.35 186.35 369.65 188.7 386.7 193.1 L394.5 195.6 Q394.3 198.7 399.9 200.65 405.5 198.7 405.3 195.6 L413.1 193.1 Q430.15 188.7 444.45 186.35 463.1 166.45 469.2 144.6 476.1 144.5 482.1 145.8 486.35 146.7 490.15 148.35 494.45 150.15 498.2 152.85 L488.0 184.45 Q496.9 185.75 503.25 188.95 L506.2 195.25" fill="none" stroke="#000000" stroke-linecap="round" stroke-linejoin="round" stroke-width="1.0"/>
    <path d="M326.55 177.3 Q327.4 176.45 328.6 176.45 329.8 176.45 330.65 177.3 331.5 178.15 331.5 179.35 331.5 180.55 330.65 181.4 329.8 182.25 328.6 182.25 327.4 182.25 326.55 181.4 325.7 180.55 325.7 179.35 325.7 178.15 326.55 177.3 M317.7 145.8 L328.2 174.9 337.3 174.9 344.45 184.75 355.35 186.35 M444.45 186.35 L455.35 184.75 462.5 174.9 471.6 174.9 482.1 145.8 M488.0 184.45 L484.85 184.05 479.5 183.65 455.35 184.75 M490.15 148.35 L480.7 174.9 484.85 184.05 M468.3 179.35 Q468.3 180.55 469.15 181.4 470.0 182.25 471.2 182.25 472.4 182.25 473.25 181.4 474.1 180.55 474.1 179.35 474.1 178.15 473.25 177.3 472.4 176.45 471.2 176.45 470.0 176.45 469.15 177.3 468.3 178.15 468.3 179.35 M471.6 174.9 L480.7 174.9 M481.35 298.8 L467.75 288.0 Q484.8 275.9 487.85 260.15 482.7 260.85 476.5 258.25 449.4 245.55 414.05 246.2 401.15 247.6 399.9 240.55 L399.9 251.65 Q443.35 248.25 480.6 264.8 L477.75 270.95 Q475.9 279.05 464.1 283.25 L460.3 284.4 450.8 282.3 Q438.15 275.4 420.5 273.1 L406.05 272.0 399.9 272.0 399.9 278.15 Q431.9 278.15 450.8 289.5 L448.6 293.85 477.1 304.75 M456.0 288.9 Q455.35 289.55 455.35 290.45 455.35 291.35 456.0 292.0 456.65 292.65 457.55 292.65 458.45 292.65 459.1 292.0 459.75 291.35 459.75 290.45 459.75 289.55 459.1 288.9 458.45 288.25 457.55 288.25 456.65 288.25 456.0 288.9 M307.25 258.75 Q309.5 259.85 311.95 260.15 317.1 260.85 323.3 258.25 350.4 245.55 385.75 246.2 398.65 247.6 399.9 240.55 L399.9 200.65 M342.25 288.25 Q343.15 288.25 343.8 288.9 344.45 289.55 344.45 290.45 344.45 291.35 343.8 292.0 343.15 292.65 342.25 292.65 341.35 292.65 340.7 292.0 340.05 291.35 340.05 290.45 340.05 289.55 340.7 288.9 341.35 288.25 342.25 288.25 M339.5 284.4 L349.0 282.3 Q361.65 275.4 379.3 273.1 L393.75 272.0 399.9 272.0 399.9 251.65 Q356.45 248.25 319.2 264.8 L322.05 270.95 Q323.9 279.05 335.7 283.25 L339.5 284.4 M351.2 293.85 L356.6 304.45 358.45 308.15 399.9 302.0 399.9 278.15 Q367.9 278.15 349.0 289.5 L351.2 293.85 322.7 304.75 M435.35 343.25 L436.95 331.4 439.2 318.65 439.9 314.7 399.9 309.25 399.9 344.65 M473.9 312.35 L443.2 304.45 441.35 308.15 399.9 302.0 399.9 309.25 359.9 314.7 360.6 318.65 362.85 331.4 364.45 343.25 M344.7 301.65 Q344.7 300.75 345.35 300.1 346.0 299.45 346.9 299.45 347.8 299.45 348.45 300.1 349.1 300.75 349.1 301.65 349.1 302.55 348.45 303.2 347.8 303.85 346.9 303.85 346.0 303.85 345.35 303.2 344.7 302.55 344.7 301.65 M348.2 312.5 Q348.2 311.6 348.85 310.95 349.5 310.3 350.4 310.3 351.3 310.3 351.95 310.95 352.6 311.6 352.6 312.5 352.6 313.4 351.95 314.05 351.3 314.7 350.4 314.7 349.5 314.7 348.85 314.05 348.2 313.4 348.2 312.5 M354.7 326.7 Q354.05 327.35 353.15 327.35 352.25 327.35 351.6 326.7 350.95 326.05 350.95 325.15 350.95 324.25 351.6 323.6 352.25 322.95 353.15 322.95 354.05 322.95 354.7 323.6 355.35 324.25 355.35 325.15 355.35 326.05 354.7 326.7 M353.15 334.65 Q354.05 334.65 354.7 335.3 355.35 335.95 355.35 336.85 355.35 337.75 354.7 338.4 354.05 339.05 353.15 339.05 352.25 339.05 351.6 338.4 350.95 337.75 350.95 336.85 350.95 335.95 351.6 335.3 352.25 334.65 353.15 334.65 M329.0 320.75 L360.6 318.65 M329.0 329.5 L362.85 331.4 M356.6 304.45 L325.9 312.35 M455.1 301.65 Q455.1 300.75 454.45 300.1 453.8 299.45 452.9 299.45 452.0 299.45 451.35 300.1 450.7 300.75 450.7 301.65 450.7 302.55 451.35 303.2 452.0 303.85 452.9 303.85 453.8 303.85 454.45 303.2 455.1 302.55 455.1 301.65 M450.95 314.05 Q451.6 313.4 451.6 312.5 451.6 311.6 450.95 310.95 450.3 310.3 449.4 310.3 448.5 310.3 447.85 310.95 447.2 311.6 447.2 312.5 447.2 313.4 447.85 314.05 448.5 314.7 449.4 314.7 450.3 314.7 450.95 314.05 M448.2 338.4 Q448.85 337.75 448.85 336.85 448.85 335.95 448.2 335.3 447.55 334.65 446.65 334.65 445.75 334.65 445.1 335.3 444.45 335.95 444.45 336.85 444.45 337.75 445.1 338.4 445.75 339.05 446.65 339.05 447.55 339.05 448.2 338.4 M446.65 322.95 Q445.75 322.95 445.1 323.6 444.45 324.25 444.45 325.15 444.45 326.05 445.1 326.7 445.75 327.35 446.65 327.35 447.55 327.35 448.2 326.7 448.85 326.05 448.85 325.15 448.85 324.25 448.2 323.6 447.55 322.95 446.65 322.95 M436.95 331.4 L470.8 329.5 M470.8 320.75 L439.2 318.65 M448.6 293.85 L443.2 304.45 M492.55 258.75 Q490.3 259.85 487.85 260.15 M311.8 184.45 L314.95 184.05 319.1 174.9 309.65 148.35 M344.45 184.75 L320.3 183.65 314.95 184.05 M318.45 298.8 L332.05 288.0 Q315.0 275.9 311.95 260.15 M319.1 174.9 L328.2 174.9" fill="none" stroke="#000000" stroke-linecap="round" stroke-linejoin="round" stroke-opacity="0.5019608" stroke-width="1.0"/>
  </g>
</svg>
