<?xml version="1.0" encoding="UTF-8" standalone="no"?>
<svg xmlns:xlink="http://www.w3.org/1999/xlink" height="173.4px" width="343.5px" xmlns="http://www.w3.org/2000/svg">
  <g transform="matrix(1.0, 0.0, 0.0, 1.0, -228.15, -144.2)">
    <path d="M474.2 145.75 Q462.6 168.75 438.8 187.35 483.4 179.0 503.25 188.95 518.55 179.6 526.25 167.95 522.55 164.05 515.95 160.15 M399.9 206.15 L399.9 210.95 Q422.3 200.2 438.8 187.35 M283.85 160.15 Q277.25 164.05 273.55 167.95 281.25 179.6 296.55 188.95 316.4 179.0 361.0 187.35 337.2 168.75 325.6 145.75 M477.75 270.95 Q475.6 280.3 460.3 284.4 M499.15 286.45 Q490.65 274.35 489.3 259.9 483.55 261.25 476.5 258.25 449.4 245.55 414.05 246.2 401.4 247.55 399.95 240.8 L399.9 246.1 399.9 268.85 Q405.6 270.35 411.1 272.25 434.9 273.65 450.8 282.3 M307.25 258.75 Q308.8 259.5 310.5 259.9 316.25 261.25 323.3 258.25 350.4 245.55 385.75 246.2 398.4 247.55 399.85 240.8 L399.9 240.05 399.9 210.95 Q377.5 200.2 361.0 187.35 M399.9 240.05 L399.9 240.55 399.95 240.8 399.9 240.05 M399.9 240.55 L399.85 240.8 399.9 246.1 M399.9 274.95 L399.9 268.85 Q394.2 270.35 388.7 272.25 353.45 284.1 324.75 310.25 L324.75 310.3 M388.7 272.25 Q364.9 273.65 349.0 282.3 M475.05 310.3 L475.05 310.25 Q446.35 284.1 411.1 272.25 M492.55 258.75 Q491.0 259.5 489.3 259.9 M551.45 173.85 Q526.9 201.2 515.6 232.45 513.2 208.6 503.25 188.95 M300.65 286.45 Q309.15 274.35 310.5 259.9 M296.55 188.95 Q286.6 208.6 284.2 232.45 272.9 201.2 248.35 173.85 M322.05 270.95 Q324.2 280.3 339.5 284.4" fill="none" stroke="#000000" stroke-linecap="round" stroke-linejoin="round" stroke-opacity="0.5019608" stroke-width="1.0"/>
    <path d="M515.95 160.15 Q498.4 151.65 474.2 145.75 L469.65 144.7 Q456.15 170.3 429.35 189.25 416.25 198.5 399.9 206.15 M515.95 160.15 Q537.0 164.7 551.45 173.85 L571.15 176.15 Q566.45 178.9 561.95 181.9 533.75 201.1 515.6 232.45 509.55 247.0 494.0 257.9 L492.55 258.75 Q494.2 270.8 502.3 282.65 L499.15 286.45 Q491.8 294.6 481.35 298.8 L475.05 310.3 475.35 317.1 472.7 314.55 Q441.25 284.9 399.9 274.95 358.55 284.9 327.1 314.55 L324.45 317.1 324.75 310.3 318.45 298.8 Q308.0 294.6 300.65 286.45 L297.5 282.65 Q305.6 270.8 307.25 258.75 L305.8 257.9 Q290.25 247.0 284.2 232.45 266.05 201.1 237.85 181.9 233.35 178.9 228.65 176.15 L248.35 173.85 Q262.8 164.7 283.85 160.15 301.4 151.65 325.6 145.75 L330.15 144.7 Q343.65 170.3 370.45 189.25 383.55 198.5 399.9 206.15" fill="none" stroke="#000000" stroke-linecap="round" stroke-linejoin="round" stroke-width="1.0"/>
  </g>
</svg>
