<?xml version="1.0" encoding="UTF-8" standalone="no"?>
<svg xmlns:xlink="http://www.w3.org/1999/xlink" height="229.0px" width="214.3px" xmlns="http://www.w3.org/2000/svg">
  <g transform="matrix(1.0, 0.0, 0.0, 1.0, -292.75, -134.0)">
    <path d="M345.15 134.5 Q354.3 175.6 399.9 175.5 445.55 175.6 454.7 134.5 L462.95 140.65 Q480.5 144.2 506.55 152.2 472.2 218.8 502.3 282.65 500.5 297.25 474.3 329.2 L477.85 351.35 Q460.5 358.25 415.6 362.5 411.65 352.9 399.9 353.4 388.15 352.9 384.25 362.5 339.3 358.25 321.25 348.8 L325.55 329.2 Q299.3 297.25 297.5 282.65 327.65 218.8 293.25 152.2 319.3 144.2 336.9 140.65 L345.15 134.5" fill="none" stroke="#000000" stroke-linecap="round" stroke-linejoin="round" stroke-width="1.0"/>
    <path d="M325.55 329.2 Q342.2 336.5 399.9 343.25 L399.9 183.3 Q349.05 182.9 336.9 140.65 M462.95 140.65 Q450.75 182.9 399.9 183.3 M399.9 343.25 Q457.6 336.5 474.3 329.2" fill="none" stroke="#000000" stroke-linecap="round" stroke-linejoin="round" stroke-opacity="0.5019608" stroke-width="1.0"/>
  </g>
</svg>
