<?xml version="1.0" encoding="UTF-8" standalone="no"?>
<svg xmlns:xlink="http://www.w3.org/1999/xlink" height="96.1px" width="109.05px" xmlns="http://www.w3.org/2000/svg">
  <g transform="matrix(1.0, 0.0, 0.0, 1.0, -345.3, -190.1)">
    <path d="M373.1 190.1 L386.05 202.95 385.15 203.9 386.55 203.45 Q392.75 201.1 399.8 201.0 406.9 201.1 413.1 203.45 L426.55 190.1 441.95 190.1 454.35 201.0 454.35 219.05 438.25 234.8 438.1 234.65 438.1 234.9 Q438.45 237.45 438.45 240.1 438.45 244.4 437.65 248.45 L448.4 257.7 448.4 273.1 437.95 286.2 422.25 286.2 411.5 277.65 411.7 277.4 411.3 277.5 Q405.9 279.1 399.8 279.2 393.7 279.1 388.35 277.5 L388.2 277.45 388.3 277.55 377.4 286.2 361.7 286.2 351.2 273.1 351.2 257.7 362.0 248.45 Q361.15 244.4 361.15 240.1 361.15 237.45 361.55 234.9 L361.6 234.35 361.3 234.65 345.3 219.05 345.3 201.0 357.7 190.1 373.1 190.1" fill="#000000" fill-rule="evenodd" stroke="none"/>
  </g>
</svg>
