<?xml version="1.0" encoding="UTF-8" standalone="no"?>
<svg xmlns:xlink="http://www.w3.org/1999/xlink" height="196.45px" width="205.2px" xmlns="http://www.w3.org/2000/svg">
  <g transform="matrix(1.0, 0.0, 0.0, 1.0, -297.3, -146.35)">
    <path d="M488.75 166.7 Q492.5 166.7 495.3 165.25 L496.0 164.8 Q498.15 163.4 498.75 161.65 L498.65 153.0 502.5 154.4 Q498.3 204.6 476.5 258.25 L474.9 262.85 Q484.75 264.9 494.6 267.5 497.15 275.1 502.3 282.65 498.55 287.65 493.85 291.5 481.9 287.2 468.55 284.05 461.5 311.35 459.8 340.25 L439.9 342.8 Q440.7 310.65 446.65 279.7 448.7 269.1 451.3 258.7 L453.6 250.2 Q468.65 197.35 476.5 146.35 L485.15 148.65 478.65 159.35 478.55 160.25 Q478.55 162.9 481.55 164.8 484.5 166.7 488.75 166.7 M467.05 213.45 Q467.05 215.55 468.9 217.15 L470.05 218.0 Q473.0 219.9 477.25 219.9 481.5 219.9 484.5 218.0 486.7 216.55 487.25 214.7 L487.3 213.65 485.0 190.0 467.15 212.65 467.05 213.45 M471.95 266.3 L468.95 245.3 451.95 264.35 451.7 265.55 Q451.7 268.2 454.7 270.1 455.95 270.9 457.4 271.35 L461.9 272.0 Q466.15 272.0 469.15 270.1 471.35 268.65 471.9 266.8 L471.95 266.3 M346.2 250.2 L348.5 258.7 Q351.1 269.1 353.15 279.7 359.1 310.65 359.9 342.8 L340.0 340.25 Q338.3 311.35 331.25 284.05 317.9 287.2 305.95 291.5 301.25 287.65 297.5 282.65 302.65 275.1 305.2 267.5 315.05 264.9 324.9 262.85 L323.3 258.25 Q301.5 204.6 297.3 154.4 L301.15 153.0 301.05 161.65 Q301.65 163.4 303.8 164.8 L304.5 165.25 Q307.3 166.7 311.05 166.7 315.3 166.7 318.25 164.8 321.25 162.9 321.25 160.25 L321.15 159.35 314.65 148.65 323.3 146.35 Q331.15 197.35 346.2 250.2 M345.1 270.1 Q348.1 268.2 348.1 265.55 L347.85 264.35 330.85 245.3 327.85 266.3 327.9 266.8 Q328.45 268.65 330.65 270.1 333.65 272.0 337.9 272.0 L342.4 271.35 Q343.85 270.9 345.1 270.1 M330.9 217.15 Q332.75 215.55 332.75 213.45 L332.65 212.65 314.8 190.0 312.5 213.65 312.55 214.7 Q313.1 216.55 315.3 218.0 318.3 219.9 322.55 219.9 326.8 219.9 329.75 218.0 L330.9 217.15" fill="#000000" fill-rule="evenodd" stroke="none"/>
  </g>
</svg>
