<?xml version="1.0" encoding="UTF-8" standalone="no"?>
<svg xmlns:xlink="http://www.w3.org/1999/xlink" height="151.85px" width="153.75px" xmlns="http://www.w3.org/2000/svg">
  <g transform="matrix(1.0, 0.0, 0.0, 1.0, -329.2, -213.7)">
    <path d="M482.95 213.7 L482.95 218.8 437.75 221.75 437.75 216.65 482.95 213.7 M407.1 236.8 Q407.1 238.3 406.05 239.35 405.0 240.4 403.5 240.4 402.0 240.4 400.95 239.35 399.9 238.3 399.9 236.8 399.9 235.3 400.95 234.25 402.0 233.2 403.5 233.2 405.0 233.2 406.05 234.25 407.1 235.3 407.1 236.8 M408.85 295.65 Q409.9 296.7 409.9 298.2 409.9 299.7 408.85 300.75 407.8 301.8 406.3 301.8 404.8 301.8 403.75 300.75 402.7 299.7 402.7 298.2 402.7 296.7 403.75 295.65 404.8 294.6 406.3 294.6 407.8 294.6 408.85 295.65 M402.7 361.95 Q402.7 360.45 403.75 359.4 404.8 358.35 406.3 358.35 407.8 358.35 408.85 359.4 409.9 360.45 409.9 361.95 409.9 363.45 408.85 364.5 407.8 365.55 406.3 365.55 404.8 365.55 403.75 364.5 402.7 363.45 402.7 361.95 M367.85 355.6 L329.2 348.75 329.2 344.35 367.85 351.25 367.85 355.6 M431.95 351.25 L470.6 344.35 470.6 348.75 431.95 355.6 431.95 351.25" fill="#000000" fill-rule="evenodd" stroke="none"/>
  </g>
</svg>
