<?xml version="1.0" encoding="UTF-8" standalone="no"?>
<svg xmlns:xlink="http://www.w3.org/1999/xlink" height="72.45px" width="56.0px" xmlns="http://www.w3.org/2000/svg">
  <g transform="matrix(1.0, 0.0, 0.0, 1.0, 25.15, 171.35)">
    <path d="M13.45 -161.35 Q12.85 -162.1 12.55 -162.95 L12.1 -163.85 10.45 -166.9 9.9 -167.9 Q9.5 -168.6 9.45 -168.15 9.9 -167.35 9.75 -165.9 9.7 -165.5 9.8 -165.15 10.9 -159.7 9.7 -154.1 9.5 -152.85 8.95 -152.05 L8.65 -153.1 Q7.35 -155.45 7.45 -158.15 L7.3 -158.55 5.95 -160.9 5.75 -161.35 5.25 -162.85 Q4.8 -164.05 4.95 -165.4 5.05 -166.8 4.15 -167.65 L3.95 -167.2 Q3.25 -164.5 2.1 -162.2 L1.0 -160.5 0.6 -160.4 0.35 -161.85 0.25 -162.15 Q0.1 -163.9 0.1 -165.65 L0.25 -167.2 Q0.5 -168.55 -0.65 -168.9 L-1.05 -168.8 -1.4 -168.5 -2.2 -167.5 -2.55 -167.1 Q-4.8 -164.2 -8.25 -161.4 L-9.45 -160.4 -12.05 -157.7 -12.55 -157.05 -11.75 -158.65 -11.1 -160.15 Q-9.6 -163.6 -7.4 -166.65 L-4.5 -170.05 -3.05 -171.35 Q-0.75 -171.1 1.8 -170.0 8.85 -173.5 14.45 -166.55 L15.35 -158.85 15.4 -157.85 15.25 -157.6 14.8 -158.2 Q14.6 -158.35 14.55 -158.65 14.3 -160.15 13.45 -161.35 M10.95 -121.75 L11.35 -122.7 11.4 -122.35 Q12.2 -119.75 13.5 -117.05 L15.15 -113.5 15.35 -113.05 15.9 -112.2 16.25 -111.8 Q16.7 -110.8 17.3 -110.05 L17.5 -109.5 Q17.5 -108.7 18.2 -108.15 L18.5 -107.75 Q18.7 -107.0 19.0 -106.4 L19.1 -106.0 19.5 -105.5 19.0 -106.4 19.0 -106.45 19.0 -107.45 Q18.9 -108.1 19.3 -108.5 20.6 -108.4 21.25 -107.05 L21.55 -106.75 Q23.75 -105.6 26.1 -104.75 28.4 -103.9 30.85 -103.5 28.05 -101.15 22.75 -99.4 10.3 -96.5 10.95 -111.2 7.85 -116.45 10.95 -121.75 M-14.25 -152.05 L-13.85 -151.75 -13.55 -150.8 -13.45 -148.75 -13.5 -147.3 -15.25 -147.45 Q-15.45 -141.15 -14.35 -135.2 L-15.9 -137.25 -17.85 -140.95 -18.15 -141.8 -18.4 -142.35 -18.85 -142.9 -19.3 -143.45 Q-20.0 -144.7 -19.65 -146.0 L-19.25 -146.8 -19.15 -147.3 Q-19.2 -147.6 -18.5 -148.0 L-18.1 -148.35 -16.25 -150.55 -14.6 -152.1 -14.25 -152.05 M-25.15 -100.5 Q-23.35 -101.45 -22.1 -102.5 L-20.8 -103.5 -19.45 -104.35 -17.55 -105.55 Q-16.4 -106.4 -15.6 -107.5 -12.95 -111.25 -11.2 -116.05 L-11.1 -116.8 Q-10.95 -119.45 -11.1 -122.1 L-11.15 -123.6 -10.7 -122.5 Q-7.3 -113.75 -7.15 -105.55 L-10.2 -110.15 Q-9.8 -104.3 -14.7 -101.1 -20.7 -99.85 -25.15 -100.5" fill="#000000" fill-opacity="0.2" fill-rule="evenodd" stroke="none"/>
    <path d="M3.95 -151.95 L4.5 -149.45 Q4.5 -148.3 4.85 -147.25 L5.05 -146.75 3.4 -146.7 3.45 -152.4 3.35 -154.65 3.55 -153.6 3.95 -151.95 M9.35 -150.5 L9.75 -149.45 10.05 -147.95 10.15 -147.55 10.3 -147.1 8.65 -146.95 8.6 -151.6 9.35 -150.5 M17.75 -150.75 Q17.55 -153.8 17.6 -156.9 L17.5 -157.9 Q17.1 -160.2 17.05 -162.6 18.75 -159.55 20.3 -155.4 25.45 -138.0 20.3 -123.15 18.85 -116.25 24.05 -111.3 L23.45 -111.4 22.65 -111.75 Q21.8 -112.05 21.05 -112.7 L20.6 -113.2 19.5 -115.35 19.3 -116.5 Q19.05 -119.3 19.1 -122.15 L19.4 -124.95 Q19.8 -127.4 19.85 -129.95 L19.9 -137.1 19.8 -138.95 19.55 -142.6 19.45 -143.6 19.3 -144.95 18.7 -147.1 18.55 -147.8 17.95 -150.0 17.75 -150.75 M-21.2 -150.1 L-22.4 -147.9 -22.8 -146.85 Q-22.85 -146.6 -23.05 -146.45 L-23.5 -145.75 Q-24.95 -143.35 -25.1 -140.25 L-25.0 -136.6 -25.0 -136.15 Q-26.05 -148.7 -18.3 -161.75 -14.0 -169.2 -8.35 -170.9 L-8.75 -170.25 -11.25 -165.55 -11.75 -164.8 Q-12.6 -163.75 -12.95 -162.45 -13.0 -162.0 -13.4 -161.6 L-16.35 -157.5 -16.8 -156.85 -17.7 -155.6 -20.7 -150.95 -21.2 -150.1 M-7.3 -148.95 L-7.25 -149.95 Q-7.15 -153.85 -6.05 -157.6 L-6.05 -155.25 -5.95 -148.6 -5.95 -146.75 -7.4 -146.85 -7.4 -147.1 -7.3 -148.95 M-10.4 -155.1 L-10.4 -154.45 -10.4 -147.3 -10.4 -147.0 -11.35 -147.05 -11.35 -147.1 Q-11.45 -150.0 -11.0 -152.8 -10.8 -154.15 -10.4 -155.1" fill="#ffffff" fill-opacity="0.2509804" fill-rule="evenodd" stroke="none"/>
  </g>
</svg>
