<?xml version="1.0" encoding="UTF-8" standalone="no"?>
<svg xmlns:xlink="http://www.w3.org/1999/xlink" height="87.05px" width="53.15px" xmlns="http://www.w3.org/2000/svg">
  <g transform="matrix(1.0, 0.0, 0.0, 1.0, 26.75, 169.55)">
    <path d="M19.0 -165.6 Q21.15 -163.0 23.5 -158.7 24.6 -156.3 25.3 -153.75 28.75 -141.0 21.6 -125.05 L20.65 -123.1 19.9 -121.35 Q17.15 -114.5 17.05 -106.55 19.85 -92.7 18.8 -82.5 17.5 -95.65 14.6 -101.45 11.5 -111.95 12.1 -121.35 12.4 -126.9 14.05 -132.05 L13.9 -131.65 Q12.5 -127.9 10.55 -124.8 L8.1 -121.35 7.75 -120.95 7.9 -121.35 10.2 -127.6 11.65 -132.65 12.3 -135.35 13.1 -139.75 Q10.9 -158.1 7.0 -160.45 L6.85 -160.55 Q7.35 -163.35 7.3 -165.6 L7.25 -166.3 7.2 -166.7 Q9.35 -168.8 11.25 -169.35 14.9 -170.4 19.0 -165.6 M-23.8 -158.7 Q-21.5 -163.0 -19.3 -165.6 -15.25 -170.4 -11.6 -169.35 -9.7 -168.8 -7.95 -166.75 L-7.95 -165.85 Q-8.05 -163.6 -7.35 -160.45 -11.25 -158.1 -13.4 -139.75 L-12.6 -135.35 -12.0 -132.65 -10.5 -127.6 -8.25 -121.35 -8.1 -120.95 -8.4 -121.35 -10.9 -124.8 Q-12.85 -127.9 -14.2 -131.65 L-14.3 -131.85 Q-12.75 -126.8 -12.4 -121.35 -11.85 -111.95 -14.95 -101.45 -17.85 -95.65 -19.15 -82.5 -20.2 -92.7 -17.4 -106.55 -17.5 -114.5 -20.2 -121.35 L-20.95 -123.1 -21.9 -125.05 Q-29.1 -141.0 -25.6 -153.75 -24.95 -156.3 -23.8 -158.7" fill="#000000" fill-opacity="0.2" fill-rule="evenodd" stroke="none"/>
  </g>
</svg>
