<?xml version="1.0" encoding="UTF-8" standalone="no"?>
<svg xmlns:xlink="http://www.w3.org/1999/xlink" height="40.75px" width="61.9px" xmlns="http://www.w3.org/2000/svg">
  <g transform="matrix(1.0, 0.0, 0.0, 1.0, 31.1, 155.85)">
    <path d="M23.75 -122.2 Q12.95 -113.35 -0.15 -115.55 -13.25 -113.35 -24.05 -122.2 -15.2 -122.0 -14.25 -126.35 -24.3 -123.75 -29.8 -130.3 -23.0 -129.85 -20.6 -134.1 -26.75 -133.75 -31.1 -139.2 -20.9 -135.3 -18.15 -142.5 -14.25 -155.35 -0.15 -155.85 13.95 -155.35 17.85 -142.5 20.6 -135.3 30.8 -139.2 26.45 -133.75 20.3 -134.1 22.7 -129.85 29.5 -130.3 24.0 -123.75 13.95 -126.35 14.9 -122.0 23.75 -122.2" fill="#000000" fill-opacity="0.2" fill-rule="evenodd" stroke="none"/>
  </g>
</svg>
