<?xml version="1.0" encoding="UTF-8" standalone="no"?>
<svg xmlns:xlink="http://www.w3.org/1999/xlink" height="52.3px" width="69.95px" xmlns="http://www.w3.org/2000/svg">
  <g transform="matrix(1.0, 0.0, 0.0, 1.0, -364.95, -105.2)">
    <path d="M399.95 105.35 Q421.65 103.95 430.4 119.4 438.55 133.7 431.9 146.0 429.55 151.15 418.55 157.5 L418.65 155.85 418.65 154.1 418.65 154.0 418.65 153.9 418.65 153.65 Q418.6 144.85 417.9 140.75 L416.95 139.5 Q410.75 132.25 399.95 132.3 389.15 132.25 382.95 139.5 L382.0 140.75 Q381.3 144.85 381.25 153.65 L381.25 153.9 381.25 154.1 381.4 157.5 Q370.3 151.0 367.95 145.85 361.3 133.6 369.45 119.3 378.2 103.8 399.95 105.35" fill="#000000" fill-rule="evenodd" stroke="none"/>
  </g>
</svg>
