<?xml version="1.0" encoding="UTF-8" standalone="no"?>
<svg xmlns:xlink="http://www.w3.org/1999/xlink" height="40.05px" width="41.7px" xmlns="http://www.w3.org/2000/svg">
  <g transform="matrix(1.0, 0.0, 0.0, 1.0, -379.7, -130.05)">
    <path d="M379.7 152.0 Q379.45 131.2 399.8 130.1 403.2 129.8 406.2 131.0 407.9 132.9 410.6 132.5 L413.85 134.9 Q421.1 141.95 421.1 151.75 L421.4 155.5 419.05 155.5 Q418.95 160.3 416.8 167.3 417.7 162.5 416.8 156.85 416.75 167.0 412.9 170.1 419.05 159.65 409.9 146.55 L407.8 145.3 Q406.3 145.85 405.2 144.35 L403.15 144.15 Q389.75 150.6 386.75 159.4 L387.75 154.0 Q383.15 159.1 385.1 169.9 382.5 164.45 381.4 155.15 L379.8 155.15 379.7 152.0" fill="#000000" fill-rule="evenodd" stroke="none"/>
  </g>
</svg>
