<?xml version="1.0" encoding="UTF-8" standalone="no"?>
<svg xmlns:xlink="http://www.w3.org/1999/xlink" height="60.05px" width="42.05px" xmlns="http://www.w3.org/2000/svg">
  <g transform="matrix(1.0, 0.0, 0.0, 1.0, -378.95, -129.85)">
    <path d="M400.7 129.85 Q415.55 129.65 418.1 141.25 L420.7 153.65 Q422.35 177.2 414.95 189.75 419.3 177.5 418.6 166.1 L418.55 166.6 Q417.65 174.1 413.55 178.55 417.8 170.45 417.2 159.8 416.5 161.8 414.65 162.55 416.65 159.0 416.35 156.45 415.95 158.3 414.0 159.0 415.55 156.5 414.95 152.25 414.9 154.95 411.9 156.35 411.65 154.25 411.15 153.05 410.55 154.35 409.1 154.6 410.3 151.75 409.0 150.05 408.7 153.05 406.2 154.15 407.6 151.9 405.8 148.05 406.2 151.55 402.8 154.15 403.8 151.4 402.55 149.0 403.05 151.65 400.9 154.25 401.45 151.0 399.35 147.75 397.95 151.6 399.1 153.65 397.2 154.15 396.5 149.95 396.25 152.9 396.45 154.15 394.85 154.1 393.55 148.95 392.3 152.65 392.9 153.9 391.45 153.6 390.8 151.9 L390.8 154.7 Q389.1 154.45 388.45 150.45 L388.3 150.95 Q387.25 154.55 387.85 156.7 386.85 156.2 386.5 153.2 386.0 157.4 386.6 159.05 384.8 159.1 384.35 155.15 383.85 160.95 385.9 163.15 384.4 163.45 383.65 161.95 383.9 173.05 386.7 179.2 384.6 176.5 383.1 171.35 L383.05 171.0 382.3 168.05 382.1 167.0 381.95 166.5 381.3 162.9 Q380.25 184.2 386.45 189.9 378.45 184.0 379.0 158.75 379.55 149.45 382.1 139.65 384.55 129.8 400.7 129.85" fill="#000000" fill-rule="evenodd" stroke="none"/>
  </g>
</svg>
