<?xml version="1.0" encoding="UTF-8" standalone="no"?>
<svg xmlns:xlink="http://www.w3.org/1999/xlink" height="15.45px" width="38.1px" xmlns="http://www.w3.org/2000/svg">
  <g transform="matrix(1.0, 0.0, 0.0, 1.0, -358.95, -129.0)">
    <path d="M379.55 130.8 Q381.0 130.95 382.1 130.1 382.8 129.7 383.75 129.65 L384.25 129.5 385.7 129.4 386.2 129.65 386.85 130.45 387.2 130.7 391.35 131.2 392.0 131.25 Q393.1 131.45 393.6 132.2 L394.2 132.85 394.45 133.1 395.05 133.8 396.35 135.45 396.6 135.9 396.75 136.35 396.85 136.75 397.05 137.25 396.6 138.3 Q396.2 138.6 395.9 139.35 L395.8 139.8 395.65 140.55 394.4 142.15 Q394.25 142.4 393.95 142.4 L392.65 142.45 Q392.05 142.45 391.75 142.9 L390.55 143.95 390.3 144.2 Q389.95 144.6 389.05 144.4 L388.4 144.35 Q387.75 144.4 387.0 143.9 386.15 143.6 386.15 142.65 L384.7 142.4 384.25 142.3 383.6 142.2 383.0 142.05 382.3 142.0 381.5 141.95 380.55 141.6 379.9 141.4 379.2 140.95 378.8 140.5 377.75 139.55 Q377.05 139.2 376.45 138.55 375.95 138.1 375.2 137.9 L371.85 138.05 371.4 138.1 371.0 138.25 Q370.3 138.35 370.15 137.85 L369.75 137.25 368.7 136.95 367.55 136.45 366.9 135.9 366.5 135.45 366.0 135.3 365.0 134.45 364.35 133.7 364.05 133.3 363.0 132.3 362.3 131.8 361.5 131.15 360.85 130.9 360.45 130.35 358.95 129.0 360.05 129.85 359.75 129.6 358.95 129.0 Q362.3 130.25 364.35 130.15 L364.9 130.15 Q366.4 130.05 367.75 130.6 L369.05 131.2 Q369.8 131.6 370.65 130.75 371.45 129.85 372.6 130.6 373.8 131.4 374.1 131.1 374.35 130.7 375.5 132.2 376.5 133.7 377.8 133.05 377.95 132.05 377.15 129.3 L378.4 130.75 379.55 130.8" fill="#000000" fill-rule="evenodd" stroke="none"/>
  </g>
</svg>
