<?xml version="1.0" encoding="UTF-8" standalone="no"?>
<svg xmlns:xlink="http://www.w3.org/1999/xlink" height="232.45px" width="244.15px" xmlns="http://www.w3.org/2000/svg">
  <g transform="matrix(1.0, 0.0, 0.0, 1.0, 0.0, 0.0)">
    <path d="M188.65 33.0 Q217.95 20.2 142.0 13.25 119.65 14.2 97.0 20.15 86.5 23.7 97.0 27.2 113.5 31.4 152.95 28.65 105.35 37.35 63.8 29.9 50.25 26.55 64.15 21.55 126.6 -1.1 201.45 0.05 232.85 2.65 242.25 12.7 253.0 24.75 203.25 40.35 92.7 74.35 20.75 52.05 -14.25 42.4 9.85 30.05 33.75 17.75 83.05 6.75 -3.0 33.4 48.0 40.95 99.05 48.5 173.95 36.45 L188.65 33.0 M223.3 87.05 Q225.05 99.15 199.8 116.2 167.0 138.6 110.2 151.65 83.2 156.05 84.5 150.3 87.3 134.7 108.6 124.8 93.6 142.4 140.45 127.35 174.3 114.65 197.6 99.3 216.45 87.2 183.6 96.85 150.6 109.2 116.75 115.55 52.5 125.05 75.8 110.15 86.7 103.25 100.45 99.15 69.55 119.45 120.05 105.65 158.75 93.3 194.6 85.9 224.6 81.95 223.3 87.05 M55.2 175.9 Q66.5 166.95 70.7 164.5 L85.0 155.45 Q81.35 161.6 92.95 160.95 L94.55 160.85 95.1 160.85 Q148.45 153.25 188.3 131.4 170.75 146.3 144.1 161.2 131.5 168.15 120.7 169.9 L120.35 169.95 Q68.5 187.1 89.5 202.8 98.85 209.15 115.55 217.1 131.45 221.9 122.75 225.85 114.8 229.5 144.95 232.45 97.65 231.9 113.2 226.65 122.95 223.5 113.2 220.8 80.95 211.25 60.15 195.5 44.0 184.85 55.2 175.9 M238.75 43.45 Q259.1 51.15 176.75 81.45 142.65 93.85 103.2 94.25 46.5 96.05 27.4 81.8 8.35 67.55 57.35 62.4 13.5 76.6 91.45 78.05 137.3 78.05 196.75 60.1 263.05 39.95 168.6 52.85 216.75 40.45 238.75 43.45 M85.65 71.7 Q52.85 65.25 172.25 57.0 89.95 66.55 85.65 71.7" fill="#000000" fill-rule="evenodd" stroke="none"/>
  </g>
</svg>
