<?xml version="1.0" encoding="UTF-8" standalone="no"?>
<svg xmlns:xlink="http://www.w3.org/1999/xlink" height="119.7px" width="110.85px" xmlns="http://www.w3.org/2000/svg">
  <g transform="matrix(1.0, 0.0, 0.0, 1.0, 0.0, 0.0)">
    <path d="M85.85 15.45 L85.7 16.85 Q84.05 23.15 87.9 28.55 93.6 34.8 100.55 35.3 104.55 35.7 107.45 38.6 110.85 42.0 110.85 46.7 110.85 51.45 107.45 54.8 L106.35 55.8 Q98.0 60.0 95.85 68.4 93.75 76.7 100.55 82.5 103.95 86.4 103.95 91.8 103.95 97.85 99.65 102.15 95.4 106.4 89.3 106.4 83.25 106.4 78.95 102.15 77.85 101.0 77.1 99.8 73.7 94.95 67.85 95.85 61.4 96.9 61.2 103.7 L61.2 104.15 Q61.2 110.6 57.15 115.1 53.1 119.7 47.4 119.7 41.6 119.7 37.55 115.1 33.5 110.6 33.5 104.15 33.5 100.8 34.65 97.85 36.8 87.95 32.3 83.4 26.25 77.55 19.05 79.8 L18.45 79.85 14.55 80.45 Q8.55 80.45 4.25 75.8 0.0 71.25 0.0 64.7 0.0 58.2 4.25 53.55 6.65 51.0 9.6 49.85 11.15 49.2 12.95 49.05 17.9 47.4 19.35 42.65 20.85 37.95 17.1 33.05 L15.0 30.75 Q11.0 25.8 11.0 19.1 11.0 11.25 16.65 5.6 22.25 0.0 30.15 0.0 38.0 0.0 43.65 5.6 L44.3 6.3 Q49.2 11.7 57.6 12.8 66.3 12.15 70.4 7.4 72.9 5.6 76.05 5.6 80.1 5.6 82.95 8.45 85.85 11.4 85.85 15.45 M99.65 49.25 Q99.65 45.6 96.95 42.9 94.7 40.5 91.55 40.2 85.95 39.75 81.35 34.8 78.3 30.5 79.65 25.4 L79.8 24.3 Q79.8 21.05 77.4 18.65 75.15 16.4 71.9 16.4 69.45 16.4 67.4 17.9 64.1 21.75 57.15 22.2 50.4 21.3 46.55 17.0 L46.05 16.4 Q41.55 11.9 35.25 11.9 28.95 11.9 24.45 16.4 19.95 20.9 19.95 27.2 19.95 32.55 23.1 36.6 L24.35 37.95 24.45 38.1 24.75 38.4 Q27.65 42.3 26.55 46.05 25.4 49.85 21.35 51.2 20.0 51.3 18.65 51.9 16.4 52.8 14.55 54.8 11.0 58.5 11.0 63.65 11.0 69.0 14.55 72.6 17.9 76.25 22.7 76.25 L25.85 75.8 26.3 75.75 Q32.1 73.95 36.9 78.65 40.5 82.35 38.85 90.2 37.95 92.6 37.95 95.3 37.95 100.5 41.15 104.1 44.3 107.7 48.95 107.7 53.55 107.7 56.85 104.1 60.05 100.5 60.05 95.3 L60.05 94.95 Q60.2 89.45 65.4 88.65 69.95 87.9 72.65 91.8 L74.25 93.75 Q77.6 97.1 82.55 97.1 87.45 97.1 90.8 93.75 94.25 90.2 94.25 85.4 94.25 81.15 91.55 78.0 86.1 73.35 87.75 66.75 89.45 60.0 96.05 56.6 L96.95 55.8 Q99.65 53.1 99.65 49.25 99.65 53.1 96.95 55.8 L96.05 56.6 Q89.45 60.0 87.75 66.75 86.1 73.35 91.55 78.0 94.25 81.15 94.25 85.4 94.25 90.2 90.8 93.75 87.45 97.1 82.55 97.1 77.6 97.1 74.25 93.75 L72.65 91.8 Q69.95 87.9 65.4 88.65 60.2 89.45 60.05 94.95 L60.05 95.3 Q60.05 100.5 56.85 104.1 53.55 107.7 48.95 107.7 44.3 107.7 41.15 104.1 37.95 100.5 37.95 95.3 37.95 92.6 38.85 90.2 40.5 82.35 36.9 78.65 32.1 73.95 26.3 75.75 L25.85 75.8 22.7 76.25 Q17.9 76.25 14.55 72.6 11.0 69.0 11.0 63.65 11.0 58.5 14.55 54.8 16.4 52.8 18.65 51.9 20.0 51.3 21.35 51.2 25.4 49.85 26.55 46.05 27.65 42.3 24.75 38.4 L24.45 38.1 24.35 37.95 23.1 36.6 Q19.95 32.55 19.95 27.2 19.95 20.9 24.45 16.4 28.95 11.9 35.25 11.9 41.55 11.9 46.05 16.4 L46.55 17.0 Q50.4 21.3 57.15 22.2 64.1 21.75 67.4 17.9 69.45 16.4 71.9 16.4 75.15 16.4 77.4 18.65 79.8 21.05 79.8 24.3 L79.65 25.4 Q78.3 30.5 81.35 34.8 85.95 39.75 91.55 40.2 94.7 40.5 96.95 42.9 99.65 45.6 99.65 49.25" fill="#000000" fill-rule="evenodd" stroke="none"/>
  </g>
</svg>
