<?xml version="1.0" encoding="UTF-8" standalone="no"?>
<svg xmlns:xlink="http://www.w3.org/1999/xlink" height="96.6px" width="83.5px" xmlns="http://www.w3.org/2000/svg">
  <g transform="matrix(1.0, 0.0, 0.0, 1.0, -358.1, -448.5)">
    <path d="M430.1 454.6 Q430.0 456.35 429.25 458.6 L426.85 459.6 Q426.8 457.15 425.5 454.85 422.45 455.6 422.85 461.4 419.5 462.55 416.1 462.9 413.1 450.65 411.35 462.95 L410.05 462.45 Q407.25 458.6 406.85 454.6 L406.7 451.5 Q418.45 451.6 429.8 448.5 430.3 450.35 430.1 454.6 M425.4 457.6 L425.55 457.8 425.85 458.95 425.55 460.05 425.35 460.35 425.3 460.4 424.95 460.55 Q424.7 460.55 424.5 460.35 L424.3 460.05 Q424.0 459.6 424.0 458.95 424.0 458.3 424.3 457.8 424.55 457.35 424.95 457.35 L425.35 457.5 425.4 457.6 M428.85 465.9 Q430.25 470.8 428.15 475.25 L425.1 476.95 424.95 477.0 425.15 476.3 Q425.95 472.15 426.4 467.45 L428.85 465.9 M414.3 460.15 L414.6 461.3 414.3 462.4 413.65 462.9 413.0 462.4 Q412.75 461.95 412.75 461.3 412.75 460.65 413.0 460.15 L413.65 459.7 Q414.05 459.7 414.3 460.15 M420.5 470.2 L422.05 469.65 Q421.5 473.95 420.55 478.3 L420.5 478.6 420.45 478.7 420.35 478.35 Q418.9 474.5 417.85 470.7 L420.5 470.2 M423.0 472.65 Q423.05 472.2 423.25 471.85 423.55 471.4 423.95 471.4 L424.55 471.85 424.8 472.65 424.85 473.0 424.55 474.1 423.95 474.6 Q423.55 474.6 423.25 474.1 423.0 473.65 423.0 473.0 L423.0 472.65 M416.7 472.4 L417.35 472.85 417.65 473.7 417.65 474.0 417.35 475.1 416.7 475.6 416.05 475.1 416.0 475.05 415.8 474.0 Q415.8 473.35 416.05 472.85 416.35 472.4 416.7 472.4 M421.85 487.5 L421.55 488.6 420.95 489.1 Q420.7 489.1 420.5 488.9 L420.25 488.6 Q420.0 488.15 420.0 487.5 420.0 486.85 420.25 486.35 L420.5 486.1 420.95 485.9 421.55 486.35 421.85 487.5 M422.75 484.55 L422.8 484.5 425.05 483.65 427.45 482.65 Q429.05 486.1 426.85 489.5 L424.9 490.55 422.95 491.25 422.75 484.55 M418.65 485.6 Q419.15 487.75 419.5 491.75 417.6 491.75 416.3 491.2 413.9 487.5 415.35 484.1 416.35 484.85 418.4 484.95 L418.65 485.6 M416.05 478.5 L413.85 478.05 Q410.85 473.65 411.9 469.5 412.2 470.05 413.45 470.55 L416.05 478.5 M374.75 457.35 L375.4 457.8 375.7 458.95 375.4 460.05 375.2 460.35 374.75 460.55 374.4 460.4 374.35 460.35 374.15 460.05 Q373.85 459.6 373.85 458.95 373.85 458.3 374.15 457.8 L374.3 457.6 374.35 457.5 Q374.55 457.35 374.75 457.35 M385.4 460.15 Q385.65 459.7 386.05 459.7 L386.7 460.15 386.95 461.3 386.7 462.4 386.05 462.9 385.4 462.4 Q385.1 461.95 385.1 461.3 385.1 460.65 385.4 460.15 M393.0 451.5 L392.85 454.6 Q392.45 458.6 389.65 462.45 L388.35 462.95 Q386.6 450.65 383.6 462.9 380.2 462.55 376.85 461.4 377.25 455.6 374.2 454.85 372.9 457.15 372.85 459.6 L370.45 458.6 Q369.7 456.35 369.6 454.6 369.4 450.35 369.9 448.5 381.25 451.6 393.0 451.5 M373.3 467.45 Q373.75 472.15 374.55 476.3 L374.75 477.0 374.6 476.95 Q373.1 476.3 371.55 475.25 369.45 470.8 370.85 465.9 L373.3 467.45 M379.2 470.2 L381.85 470.7 Q380.8 474.5 379.35 478.35 L379.25 478.7 379.2 478.6 379.15 478.3 Q378.2 473.95 377.65 469.65 L379.2 470.2 M376.7 472.65 L376.7 473.0 376.45 474.1 Q376.15 474.6 375.75 474.6 L375.15 474.1 Q374.85 473.65 374.85 473.0 L374.9 472.65 Q374.95 472.2 375.15 471.85 375.4 471.4 375.75 471.4 376.15 471.4 376.45 471.85 L376.7 472.65 M383.0 472.4 L383.65 472.85 383.9 474.0 383.7 475.05 383.65 475.1 383.0 475.6 Q382.6 475.6 382.35 475.1 382.05 474.65 382.05 474.0 L382.05 473.7 382.35 472.85 Q382.6 472.4 383.0 472.4 M372.25 482.65 L374.65 483.65 376.9 484.5 376.95 484.55 376.75 491.25 374.8 490.55 372.85 489.5 Q370.65 486.1 372.25 482.65 M381.3 484.95 Q383.35 484.85 384.35 484.1 385.8 487.5 383.4 491.2 382.1 491.75 380.2 491.75 380.55 487.75 381.05 485.6 L381.3 484.95 M383.65 478.5 L386.25 470.55 387.8 469.5 Q388.85 473.65 385.85 478.05 L383.65 478.5 M377.85 487.5 Q377.85 486.85 378.15 486.35 378.4 485.9 378.75 485.9 L379.2 486.1 379.45 486.35 379.7 487.5 379.45 488.6 379.2 488.9 378.75 489.1 378.15 488.6 Q377.85 488.15 377.85 487.5 M382.6 496.85 Q383.45 499.5 382.0 502.55 L379.45 503.1 379.75 497.6 Q381.45 497.5 382.6 496.85 M376.55 497.3 L376.35 503.0 374.95 502.7 374.3 502.55 Q372.45 498.9 373.6 496.35 373.95 496.75 374.8 497.0 L376.55 497.3 M377.75 498.8 Q378.15 498.8 378.4 499.25 L378.7 500.4 378.4 501.5 Q378.15 502.0 377.75 502.0 377.4 502.0 377.1 501.5 376.85 501.05 376.85 500.4 376.85 499.75 377.1 499.25 L377.75 498.8 M374.6 517.15 L371.85 521.85 368.7 521.6 Q369.45 519.2 371.45 517.35 L374.55 517.15 374.6 517.15 M373.4 510.25 L374.65 507.8 375.75 508.95 376.9 509.4 376.05 513.65 373.3 513.2 373.4 510.25 M375.45 519.05 Q375.8 519.0 376.1 519.3 L376.35 520.1 376.1 520.8 375.45 521.15 374.8 520.8 Q374.5 520.5 374.5 520.1 374.5 519.65 374.8 519.3 375.05 519.0 375.45 519.05 M377.9 513.2 L377.3 512.85 Q377.0 512.55 377.0 512.15 377.0 511.7 377.3 511.35 377.55 511.05 377.9 511.1 378.3 511.05 378.6 511.35 L378.85 512.15 378.6 512.85 Q378.3 513.2 377.9 513.2 M379.95 511.3 L380.0 509.8 Q381.5 509.7 382.15 508.95 L383.0 511.35 382.5 514.45 382.85 515.55 379.85 514.55 379.95 511.3 M379.95 518.55 Q381.9 519.5 383.2 520.95 383.4 523.1 382.7 524.35 L381.45 526.2 379.95 525.05 Q378.2 523.8 376.1 523.0 L378.6 518.0 379.95 518.55 M369.65 525.55 L367.35 529.5 Q365.25 529.2 363.7 529.45 363.95 527.05 366.15 525.65 L369.65 525.55 M372.25 530.95 L374.3 526.7 Q377.55 528.1 379.8 531.1 L379.65 533.9 Q379.35 535.45 378.5 536.35 376.0 532.75 372.25 530.95 M370.65 528.5 Q370.4 528.2 370.4 527.75 370.4 527.35 370.65 527.0 370.95 526.7 371.3 526.7 371.7 526.7 371.95 527.0 L372.2 527.75 371.95 528.5 Q371.7 528.8 371.3 528.8 370.95 528.8 370.65 528.5 M364.85 533.7 Q365.15 534.45 365.1 536.25 365.0 540.05 370.1 535.3 374.45 537.15 377.75 540.75 377.75 543.55 375.9 545.1 370.85 540.35 363.6 538.8 L358.1 538.55 Q357.95 535.65 361.15 533.4 L364.7 533.7 364.85 533.7 M366.25 534.7 Q366.5 534.4 366.85 534.4 367.25 534.4 367.5 534.7 367.8 535.0 367.75 535.45 L367.5 536.15 Q367.25 536.5 366.85 536.5 L366.25 536.15 Q365.95 535.85 365.95 535.45 365.95 535.0 366.25 534.7 M425.4 502.55 L424.75 502.7 423.35 503.0 423.15 497.3 424.9 497.0 Q425.75 496.75 426.1 496.35 427.25 498.9 425.4 502.55 M426.4 513.2 L423.65 513.65 422.8 509.4 423.95 508.95 425.05 507.8 426.3 510.25 426.4 513.2 M421.95 498.8 L422.6 499.25 422.85 500.4 422.6 501.5 Q422.3 502.0 421.95 502.0 421.55 502.0 421.3 501.5 421.0 501.05 421.0 500.4 421.0 499.75 421.3 499.25 421.55 498.8 421.95 498.8 M419.95 497.6 L420.25 503.1 417.7 502.55 Q416.25 499.5 417.1 496.85 418.25 497.5 419.95 497.6 M422.7 512.15 L422.4 512.85 Q422.15 513.2 421.8 513.2 421.4 513.2 421.1 512.85 L420.85 512.15 Q420.85 511.7 421.1 511.35 421.4 511.05 421.8 511.1 422.15 511.05 422.4 511.35 L422.7 512.15 M419.75 511.3 L419.85 514.55 416.85 515.55 417.2 514.45 416.7 511.35 417.55 508.95 Q418.2 509.7 419.7 509.8 L419.75 511.3 M425.15 517.15 L428.25 517.35 Q430.25 519.2 431.0 521.6 L427.85 521.85 425.1 517.15 425.15 517.15 M424.25 519.05 Q424.65 519.0 424.9 519.3 L425.2 520.1 424.9 520.8 424.25 521.15 423.6 520.8 423.35 520.1 423.6 519.3 Q423.9 519.0 424.25 519.05 M421.1 518.0 L423.6 523.0 Q421.5 523.8 419.75 525.05 L418.25 526.2 417.0 524.35 Q416.3 523.1 416.5 520.95 417.8 519.5 419.75 518.55 420.4 518.2 421.1 518.0 M420.05 533.9 Q419.75 532.3 419.9 531.1 422.15 528.1 425.4 526.7 L427.45 530.95 Q423.7 532.75 421.2 536.35 420.35 535.45 420.05 533.9 M429.05 527.0 L429.3 527.75 429.05 528.5 428.4 528.8 Q428.0 528.8 427.75 528.5 427.45 528.2 427.5 527.75 427.45 527.35 427.75 527.0 428.0 526.7 428.4 526.7 428.75 526.7 429.05 527.0 M430.05 525.55 L433.55 525.65 Q435.75 527.05 436.0 529.45 434.45 529.2 432.35 529.5 L430.05 525.55 M435.0 533.7 L438.55 533.4 Q441.75 535.65 441.6 538.55 L436.1 538.8 Q428.85 540.35 423.8 545.1 421.95 543.55 421.95 540.75 425.25 537.15 429.6 535.3 434.7 540.05 434.6 536.25 434.55 534.45 434.85 533.7 L435.0 533.7 M433.45 534.7 L433.75 535.45 433.45 536.15 Q433.2 536.5 432.85 536.5 432.45 536.5 432.2 536.15 431.9 535.85 431.95 535.45 431.9 535.0 432.2 534.7 432.45 534.4 432.85 534.4 433.2 534.4 433.45 534.7" fill="#000000" fill-rule="evenodd" stroke="none"/>
  </g>
</svg>
