<?xml version="1.0" encoding="UTF-8" standalone="no"?>
<svg xmlns:xlink="http://www.w3.org/1999/xlink" height="26.4px" width="59.3px" xmlns="http://www.w3.org/2000/svg">
  <g transform="matrix(1.0, 0.0, 0.0, 1.0, -370.25, -415.9)">
    <path d="M405.45 441.55 L405.9 438.5 Q418.1 440.45 428.95 438.2 L429.55 440.85 Q417.5 443.35 405.45 441.55 M427.65 416.75 L426.95 420.15 Q417.35 417.9 408.35 420.1 L408.35 419.65 408.1 416.75 Q417.6 415.05 427.65 416.75 M391.45 420.1 Q382.45 417.9 372.85 420.15 L372.15 416.75 Q382.2 415.05 391.7 416.75 L391.45 419.65 391.45 420.1 M370.85 438.2 Q381.7 440.45 393.9 438.5 L394.35 441.55 Q382.3 443.35 370.25 440.85 L370.85 438.2" fill="#000000" fill-rule="evenodd" stroke="none"/>
  </g>
</svg>
