<?xml version="1.0" encoding="UTF-8" standalone="no"?>
<svg xmlns:xlink="http://www.w3.org/1999/xlink" height="35.25px" width="84.3px" xmlns="http://www.w3.org/2000/svg">
  <g transform="matrix(1.0, 0.0, 0.0, 1.0, -357.75, -520.45)">
    <path d="M381.15 531.3 L379.05 542.3 375.9 550.75 370.05 555.7 359.8 555.7 357.75 548.15 357.75 548.2 360.35 553.3 369.35 553.3 373.6 549.0 Q377.6 543.45 378.4 537.05 379.05 532.2 380.7 527.95 L381.15 526.8 381.15 531.3 M382.2 524.45 Q383.1 522.65 383.3 520.45 L383.3 524.35 382.7 526.65 381.2 526.65 381.75 525.4 382.2 524.45 M418.65 526.8 L419.1 527.95 Q420.75 532.2 421.4 537.05 422.2 543.45 426.2 549.0 L430.45 553.3 439.45 553.3 442.05 548.25 440.0 555.7 429.75 555.7 423.9 550.75 420.75 542.3 418.65 531.3 418.65 526.8 M416.5 520.45 Q416.7 522.65 417.6 524.45 L418.05 525.4 418.6 526.65 417.1 526.65 416.5 524.35 416.5 520.45" fill="#000000" fill-rule="evenodd" stroke="none"/>
  </g>
</svg>
