<?xml version="1.0" encoding="UTF-8" standalone="no"?>
<svg xmlns:xlink="http://www.w3.org/1999/xlink" height="96.6px" width="34.9px" xmlns="http://www.w3.org/2000/svg">
  <g transform="matrix(1.0, 0.0, 0.0, 1.0, -358.1, -448.5)">
    <path d="M370.85 465.9 L373.3 467.45 Q373.75 472.15 374.55 476.3 L374.75 477.0 374.6 476.95 Q373.1 476.3 371.55 475.25 369.45 470.8 370.85 465.9 M374.75 457.35 L375.4 457.8 375.7 458.95 375.4 460.05 375.2 460.35 374.75 460.55 374.4 460.4 374.35 460.35 374.15 460.05 Q373.85 459.6 373.85 458.95 373.85 458.3 374.15 457.8 L374.3 457.6 374.35 457.5 Q374.55 457.35 374.75 457.35 M386.05 459.7 L386.7 460.15 386.95 461.3 386.7 462.4 386.05 462.9 385.4 462.4 Q385.1 461.95 385.1 461.3 385.1 460.65 385.4 460.15 385.65 459.7 386.05 459.7 M393.0 451.5 L392.85 454.6 Q392.45 458.6 389.65 462.45 L388.35 462.95 Q386.6 450.65 383.6 462.9 380.2 462.55 376.85 461.4 377.25 455.6 374.2 454.85 372.9 457.15 372.85 459.6 L370.45 458.6 Q369.7 456.35 369.6 454.6 369.4 450.35 369.9 448.5 381.25 451.6 393.0 451.5 M379.2 470.2 L381.85 470.7 Q380.8 474.5 379.35 478.35 L379.25 478.7 379.2 478.6 379.15 478.3 Q378.2 473.95 377.65 469.65 L379.2 470.2 M370.4 527.75 Q370.4 527.35 370.65 527.0 370.95 526.7 371.3 526.7 371.7 526.7 371.95 527.0 L372.2 527.75 371.95 528.5 Q371.7 528.8 371.3 528.8 370.95 528.8 370.65 528.5 370.4 528.2 370.4 527.75 M378.6 518.0 L379.95 518.55 Q381.9 519.5 383.2 520.95 383.4 523.1 382.7 524.35 L381.45 526.2 379.95 525.05 Q378.2 523.8 376.1 523.0 L378.6 518.0 M375.45 519.05 Q375.8 519.0 376.1 519.3 L376.35 520.1 376.1 520.8 375.45 521.15 374.8 520.8 Q374.5 520.5 374.5 520.1 374.5 519.65 374.8 519.3 375.05 519.0 375.45 519.05 M377.9 513.2 L377.3 512.85 Q377.0 512.55 377.0 512.15 377.0 511.7 377.3 511.35 377.55 511.05 377.9 511.1 378.3 511.05 378.6 511.35 L378.85 512.15 378.6 512.85 Q378.3 513.2 377.9 513.2 M380.0 509.8 Q381.5 509.7 382.15 508.95 L383.0 511.35 382.5 514.45 382.85 515.55 379.85 514.55 379.95 511.3 380.0 509.8 M373.3 513.2 L373.4 510.25 374.65 507.8 375.75 508.95 376.9 509.4 376.05 513.65 373.3 513.2 M371.45 517.35 L374.55 517.15 374.6 517.15 371.85 521.85 368.7 521.6 Q369.45 519.2 371.45 517.35 M374.8 497.0 L376.55 497.3 376.35 503.0 374.95 502.7 374.3 502.55 Q372.45 498.9 373.6 496.35 373.95 496.75 374.8 497.0 M377.75 498.8 Q378.15 498.8 378.4 499.25 L378.7 500.4 378.4 501.5 Q378.15 502.0 377.75 502.0 377.4 502.0 377.1 501.5 376.85 501.05 376.85 500.4 376.85 499.75 377.1 499.25 L377.75 498.8 M379.75 497.6 Q381.45 497.5 382.6 496.85 383.45 499.5 382.0 502.55 L379.45 503.1 379.75 497.6 M386.25 470.55 L387.8 469.5 Q388.85 473.65 385.85 478.05 L383.65 478.5 386.25 470.55 M377.85 487.5 Q377.85 486.85 378.15 486.35 378.4 485.9 378.75 485.9 L379.2 486.1 379.45 486.35 379.7 487.5 379.45 488.6 379.2 488.9 378.75 489.1 378.15 488.6 Q377.85 488.15 377.85 487.5 M381.05 485.6 L381.3 484.95 Q383.35 484.85 384.35 484.1 385.8 487.5 383.4 491.2 382.1 491.75 380.2 491.75 380.55 487.75 381.05 485.6 M372.85 489.5 Q370.65 486.1 372.25 482.65 L374.65 483.65 376.9 484.5 376.95 484.55 376.75 491.25 374.8 490.55 372.85 489.5 M376.7 472.65 L376.7 473.0 376.45 474.1 Q376.15 474.6 375.75 474.6 L375.15 474.1 Q374.85 473.65 374.85 473.0 L374.9 472.65 Q374.95 472.2 375.15 471.85 375.4 471.4 375.75 471.4 376.15 471.4 376.45 471.85 L376.7 472.65 M383.0 472.4 L383.65 472.85 383.9 474.0 383.7 475.05 383.65 475.1 383.0 475.6 Q382.6 475.6 382.35 475.1 382.05 474.65 382.05 474.0 L382.05 473.7 382.35 472.85 Q382.6 472.4 383.0 472.4 M374.3 526.7 Q377.55 528.1 379.8 531.1 L379.65 533.9 Q379.35 535.45 378.5 536.35 376.0 532.75 372.25 530.95 L374.3 526.7 M364.7 533.7 L364.85 533.7 Q365.15 534.45 365.1 536.25 365.0 540.05 370.1 535.3 374.45 537.15 377.75 540.75 377.75 543.55 375.9 545.1 370.85 540.35 363.6 538.8 L358.1 538.55 Q357.95 535.65 361.15 533.4 L364.7 533.7 M366.25 534.7 Q366.5 534.4 366.85 534.4 367.25 534.4 367.5 534.7 367.8 535.0 367.75 535.45 L367.5 536.15 Q367.25 536.5 366.85 536.5 L366.25 536.15 Q365.95 535.85 365.95 535.45 365.95 535.0 366.25 534.7 M366.15 525.65 L369.65 525.55 367.35 529.5 Q365.25 529.2 363.7 529.45 363.95 527.05 366.15 525.65" fill="#000000" fill-rule="evenodd" stroke="none"/>
  </g>
</svg>
