<?xml version="1.0" encoding="UTF-8" standalone="no"?>
<svg xmlns:xlink="http://www.w3.org/1999/xlink" height="38.85px" width="25.9px" xmlns="http://www.w3.org/2000/svg">
  <g transform="matrix(1.0, 0.0, 0.0, 1.0, -357.45, -514.45)">
    <path d="M383.2 516.65 L383.25 517.15 383.3 517.4 383.3 520.35 Q383.1 522.6 382.2 524.45 379.35 530.15 378.4 537.05 377.6 543.45 373.6 549.0 L369.35 553.3 360.35 553.3 357.75 548.2 357.45 547.0 Q363.6 542.05 370.75 548.25 375.65 543.5 376.55 536.1 377.8 529.3 380.8 523.85 380.8 519.15 382.5 514.45 L383.2 516.65 M371.3 537.15 L369.7 540.95 360.35 538.9 362.55 535.45 371.3 537.15 M365.4 531.0 L367.95 526.95 375.15 528.15 373.2 532.65 365.4 531.0 M378.3 520.65 L376.7 524.4 370.25 523.35 372.5 519.75 378.3 520.65" fill="#000000" fill-rule="evenodd" stroke="none"/>
  </g>
</svg>
