<?xml version="1.0" encoding="UTF-8" standalone="no"?>
<svg xmlns:xlink="http://www.w3.org/1999/xlink" height="66.1px" width="63.2px" xmlns="http://www.w3.org/2000/svg">
  <g transform="matrix(1.0, 0.0, 0.0, 1.0, -368.3, -442.75)">
    <path d="M429.75 452.1 Q432.05 447.2 430.1 443.25 426.9 444.3 422.9 444.95 L417.3 445.55 Q411.75 445.9 405.0 445.65 403.45 449.95 407.55 453.95 M429.75 452.1 L429.3 460.0 Q431.0 464.45 428.75 468.9 L428.15 476.25 428.15 476.3 Q429.75 480.0 427.4 484.65 L426.65 492.15 Q428.5 496.15 425.75 500.2 L425.55 501.9 424.9 507.25 Q421.8 509.25 418.15 507.65 L417.75 501.9 417.65 500.9 Q415.6 497.65 416.65 492.65 L416.25 489.6 415.55 485.25 Q412.75 481.8 413.9 477.1 L412.1 469.85 Q408.5 465.55 409.7 461.15 L407.55 453.95 M376.9 444.95 L382.5 445.55 Q388.05 445.9 394.8 445.65 396.35 449.95 392.25 453.95 L390.1 461.15 Q391.3 465.55 387.7 469.85 L385.9 477.1 Q387.05 481.8 384.25 485.25 L383.55 489.6 383.15 492.65 Q384.2 497.65 382.15 500.9 L382.05 501.9 381.65 507.65 Q378.0 509.25 374.9 507.25 L374.25 501.9 374.05 500.2 Q371.3 496.15 373.15 492.15 L372.4 484.65 Q370.05 480.0 371.65 476.3 L371.65 476.25 371.05 468.9 Q368.8 464.45 370.5 460.0 L370.05 452.1 Q367.75 447.2 369.7 443.25 372.9 444.3 376.9 444.95" fill="none" stroke="#000000" stroke-linecap="round" stroke-linejoin="round" stroke-width="1.0"/>
    <path d="M407.55 453.95 Q421.35 454.4 429.75 452.1 M429.3 460.0 Q420.9 462.45 409.7 461.15 M416.65 492.65 Q422.3 493.8 426.65 492.15 M428.75 468.9 Q421.35 470.6 412.1 469.85 M413.9 477.1 Q422.7 478.65 428.15 476.25 M427.4 484.65 Q422.2 486.2 415.55 485.25 M373.15 492.15 Q377.5 493.8 383.15 492.65 M384.25 485.25 Q377.6 486.2 372.4 484.65 M371.65 476.25 Q377.1 478.65 385.9 477.1 M392.25 453.95 Q378.45 454.4 370.05 452.1 M390.1 461.15 Q378.9 462.45 370.5 460.0 M387.7 469.85 Q378.45 470.6 371.05 468.9 M382.15 500.9 Q378.1 501.9 374.05 500.2 M417.65 500.9 Q421.7 501.9 425.75 500.2" fill="none" stroke="#000000" stroke-linecap="round" stroke-linejoin="round" stroke-opacity="0.5019608" stroke-width="1.0"/>
  </g>
</svg>
