<?xml version="1.0" encoding="UTF-8" standalone="no"?>
<svg xmlns:xlink="http://www.w3.org/1999/xlink" height="129.3px" width="86.6px" xmlns="http://www.w3.org/2000/svg">
  <g transform="matrix(1.0, 0.0, 0.0, 1.0, -356.6, -424.5)">
    <path d="M405.0 445.65 Q412.75 445.95 418.9 445.4 L421.35 445.15 421.45 445.15 Q426.35 444.5 430.1 443.25 M409.75 461.3 Q417.3 463.05 422.55 461.35 L422.55 461.3 Q422.5 454.05 418.9 445.4 M429.3 460.35 L427.0 461.2 424.4 462.1 423.75 462.3 424.1 465.7 425.7 465.3 429.05 464.45 M427.0 461.2 Q426.75 460.0 424.7 460.55 L424.5 460.65 422.75 461.25 422.6 461.35 422.55 461.35 M423.75 462.3 L423.7 461.9 Q423.2 461.95 422.8 462.45 L422.65 462.65 Q422.4 463.15 422.4 463.85 422.4 464.6 422.8 465.15 423.2 465.7 423.8 465.75 L424.1 465.7 M424.4 462.1 L423.8 461.9 423.7 461.9 M416.4 519.3 L424.0 517.8 425.65 517.5 425.75 516.85 424.15 517.1 423.9 517.1 Q423.3 517.1 422.9 516.55 422.45 516.0 422.45 515.25 422.45 514.4 422.9 513.85 423.25 513.35 423.7 513.3 L423.8 513.3 423.9 513.3 424.25 513.4 426.0 513.0 Q425.85 511.75 425.3 511.6 L424.85 511.65 424.5 511.8 424.0 512.2 423.75 512.4 423.65 512.5 Q418.65 515.15 419.05 496.65 418.15 491.95 423.1 492.25 L423.35 492.25 423.45 492.05 424.05 490.9 422.65 491.05 422.4 491.1 Q421.8 491.1 421.35 490.55 420.95 490.0 420.95 489.2 420.95 488.35 421.35 487.8 421.75 487.25 422.35 487.25 L422.4 487.25 422.85 487.4 425.5 486.95 Q425.7 485.75 425.15 485.5 L424.65 485.45 423.7 485.75 423.55 485.8 423.35 485.9 423.1 486.05 423.05 486.05 Q419.15 488.1 416.55 478.8 413.95 469.45 417.55 467.4 L423.1 467.15 424.7 467.1 425.7 465.3 M422.65 491.05 L422.4 487.45 422.4 487.25 M422.85 487.4 L422.4 487.45 M424.05 490.9 L424.85 490.8 426.85 490.6 M427.25 486.55 L425.5 486.95 M423.55 485.8 Q424.6 476.65 423.1 467.15 M425.15 485.5 Q426.0 475.7 424.7 467.1 M424.7 460.55 Q424.15 450.25 421.45 445.15 M369.7 443.25 Q373.45 444.5 378.35 445.15 L378.45 445.15 380.9 445.4 Q387.05 445.95 394.8 445.65 M370.5 460.35 L372.8 461.2 Q373.05 460.0 375.1 460.55 375.65 450.25 378.35 445.15 M372.55 486.55 L374.3 486.95 Q374.1 485.75 374.65 485.5 373.8 475.7 375.1 467.1 L374.1 465.3 370.75 464.45 M372.95 490.6 L374.95 490.8 375.75 490.9 377.15 491.05 377.4 487.45 376.95 487.4 374.3 486.95 M390.05 461.3 Q382.5 463.05 377.25 461.35 L377.2 461.35 377.05 461.25 375.3 460.65 375.1 460.55 M372.8 461.2 L375.4 462.1 376.0 461.9 376.1 461.9 377.0 462.45 377.15 462.65 377.4 463.85 Q377.4 464.6 377.0 465.15 376.6 465.7 376.0 465.75 L375.7 465.7 374.1 465.3 M375.4 462.1 L376.05 462.3 376.1 461.9 M380.9 445.4 Q377.3 454.05 377.25 461.3 L377.25 461.35 M374.65 485.5 L375.15 485.45 376.1 485.75 376.25 485.8 Q375.2 476.65 376.7 467.15 L375.1 467.1 M376.25 485.8 L376.45 485.9 376.7 486.05 376.75 486.05 Q380.65 488.1 383.25 478.8 385.85 469.45 382.25 467.4 L376.7 467.15 M376.05 462.3 L375.7 465.7 M377.4 487.45 L377.4 487.25 Q377.15 487.25 376.95 487.4 M377.15 491.05 L377.4 491.1 Q378.0 491.1 378.45 490.55 378.85 490.0 378.85 489.2 378.85 488.35 378.45 487.8 378.05 487.25 377.45 487.25 L377.4 487.25 M374.95 490.8 Q376.3 501.45 374.95 511.65 L375.3 511.8 375.8 512.2 376.05 512.4 376.15 512.5 Q378.3 502.35 376.7 492.25 L376.45 492.25 376.35 492.05 375.75 490.9 M359.4 551.4 Q364.1 545.25 365.25 537.1 365.95 532.4 365.45 527.1 L365.5 527.05 365.7 526.7 366.65 526.8 366.7 526.8 369.15 526.9 370.1 527.0 370.55 526.5 Q372.75 524.0 373.65 520.45 L373.7 520.25 374.15 517.5 374.05 516.85 371.95 516.6 M360.15 552.9 Q367.1 544.05 367.35 532.9 L367.2 528.75 Q368.35 528.75 372.2 529.9 376.05 531.0 378.7 535.3 M379.45 531.9 Q375.75 528.45 371.75 527.35 L370.8 527.15 370.3 527.05 370.1 527.0 M373.3 513.0 L373.8 513.0 Q373.95 511.75 374.5 511.6 L374.95 511.65 M376.0 513.45 L375.65 517.1 375.9 517.1 Q376.5 517.1 376.9 516.55 377.35 516.0 377.35 515.25 377.35 514.4 376.9 513.85 376.55 513.35 376.1 513.3 L376.0 513.3 376.0 513.45 375.55 513.4 373.8 513.0 M376.0 513.3 L375.9 513.3 375.55 513.4 M383.4 519.3 L375.8 517.8 375.45 520.45 Q374.6 523.85 371.75 527.35 M376.15 512.5 Q381.15 515.15 380.75 496.65 381.65 491.95 376.7 492.25 M374.05 516.85 L375.65 517.1 M375.8 517.8 L374.15 517.5 M365.5 527.05 L365.7 527.2 365.7 526.7 M425.75 516.85 L427.85 516.6 M426.5 513.0 L426.0 513.0 M423.8 513.3 L423.8 513.45 424.25 513.4 M423.8 513.45 L424.15 517.1 M424.0 517.8 Q424.0 519.1 424.35 520.45 425.2 523.85 428.05 527.35 L429.0 527.15 429.5 527.05 429.7 527.0 429.25 526.5 Q427.05 524.0 426.15 520.45 L426.1 520.25 425.65 517.5 M440.4 551.4 Q435.7 545.25 434.55 537.1 433.85 532.4 434.35 527.1 L434.3 527.05 434.1 527.2 434.1 526.7 433.15 526.8 433.1 526.8 430.65 526.9 429.7 527.0 M434.3 527.05 L434.1 526.7 M421.1 535.3 Q423.75 531.0 427.6 529.9 431.45 528.75 432.6 528.75 432.4 530.85 432.45 532.9 432.7 544.05 439.65 552.9 M428.05 527.35 Q424.05 528.45 420.35 531.9 M423.65 512.5 Q421.5 502.35 423.1 492.25 M424.85 490.8 Q423.5 501.45 424.85 511.65" fill="none" stroke="#000000" stroke-linecap="round" stroke-linejoin="round" stroke-opacity="0.5019608" stroke-width="1.0"/>
    <path d="M430.1 443.25 L425.9 425.0 Q418.0 428.1 408.8 425.55 407.25 430.85 406.25 436.35 L405.75 439.55 Q405.3 442.55 405.0 445.65 L409.75 461.3 M429.05 464.45 Q431.05 462.4 429.3 460.35 L430.1 443.25 M429.05 464.45 L427.25 486.55 Q428.55 488.8 426.85 490.6 L425.55 501.9 424.9 507.25 426.5 510.4 426.5 513.0 Q428.45 513.9 427.85 516.6 L441.15 537.25 Q443.7 542.45 442.05 548.2 L440.4 551.4 439.65 552.9 439.45 553.3 430.45 553.3 426.2 549.0 Q422.2 543.45 421.4 537.05 L421.1 535.3 420.35 531.9 Q419.35 527.95 417.6 524.45 416.6 522.4 416.45 519.75 L416.4 519.3 416.5 517.4 416.55 517.15 416.6 516.65 417.3 514.45 416.8 511.35 418.15 507.65 417.75 501.9 417.0 495.6 416.25 489.6 415.8 486.5 Q414.2 476.7 409.75 461.3 M394.8 445.65 L394.05 439.55 393.55 436.35 Q392.55 430.85 391.0 425.55 381.8 428.1 373.9 425.0 L369.7 443.25 370.5 460.35 Q368.75 462.4 370.75 464.45 371.5 475.5 372.55 486.55 371.25 488.8 372.95 490.6 L374.25 501.9 374.9 507.25 373.3 510.4 373.3 513.0 Q371.35 513.9 371.95 516.6 L358.65 537.25 Q356.1 542.45 357.75 548.2 L359.4 551.4 360.15 552.9 360.35 553.3 369.35 553.3 373.6 549.0 Q377.6 543.45 378.4 537.05 L378.7 535.3 Q379.0 533.55 379.45 531.9 380.45 527.95 382.2 524.45 383.2 522.4 383.35 519.75 L383.4 519.3 383.3 517.4 383.25 517.15 383.2 516.65 382.5 514.45 383.0 511.35 381.65 507.65 382.05 501.9 382.8 495.6 383.55 489.6 384.0 486.5 Q385.6 476.7 390.05 461.3 392.1 454.1 394.8 445.65" fill="none" stroke="#000000" stroke-linecap="round" stroke-linejoin="round" stroke-width="1.0"/>
  </g>
</svg>
