<?xml version="1.0" encoding="UTF-8" standalone="no"?>
<svg xmlns:xlink="http://www.w3.org/1999/xlink" height="47.05px" width="27.25px" xmlns="http://www.w3.org/2000/svg">
  <g transform="matrix(1.0, 0.0, 0.0, 1.0, -356.55, -506.7)">
    <path d="M373.25 510.35 L374.85 507.2 373.95 516.45 Q376.9 516.3 379.85 517.9 L381.6 507.6 382.95 511.3 382.45 514.4 383.15 516.6 383.2 517.1 383.25 517.35 383.25 520.3 Q383.05 522.55 382.15 524.4 379.3 530.1 378.35 537.0 377.55 543.4 373.55 548.95 L369.3 553.25 360.3 553.25 357.7 548.15 357.4 546.95 Q356.3 541.85 358.6 537.2 L373.25 514.45 373.25 510.35" fill="none" stroke="#000000" stroke-linecap="round" stroke-linejoin="round" stroke-width="1.0"/>
    <path d="M378.25 520.6 L372.45 519.7 370.2 523.3 376.65 524.35 378.25 520.6 M365.35 530.95 L373.15 532.6 375.1 528.1 367.9 526.9 365.35 530.95 M371.25 537.1 L362.5 535.4 360.3 538.85 369.65 540.9 371.25 537.1 M382.45 514.4 Q380.75 519.1 380.75 523.8 377.75 529.25 376.5 536.05 375.6 543.45 370.7 548.2 363.55 542.0 357.4 546.95" fill="none" stroke="#000000" stroke-linecap="round" stroke-linejoin="round" stroke-opacity="0.5019608" stroke-width="1.0"/>
  </g>
</svg>
