<?xml version="1.0" encoding="UTF-8" standalone="no"?>
<svg xmlns:xlink="http://www.w3.org/1999/xlink" height="103.65px" width="67.3px" xmlns="http://www.w3.org/2000/svg">
  <g transform="matrix(1.0, 0.0, 0.0, 1.0, -366.2, -412.95)">
    <path d="M429.2 427.85 L426.8 435.6 429.2 433.6 Q432.2 439.0 433.5 444.4 431.5 445.75 429.9 447.35 427.8 449.35 426.35 451.75 426.4 466.1 427.8 479.7 428.75 488.45 430.25 496.9 L425.95 503.25 426.65 504.5 Q427.55 507.55 430.1 510.3 L427.4 515.9 426.45 514.45 Q421.75 513.05 417.4 514.75 L417.1 514.85 416.55 516.6 413.75 514.2 413.7 514.15 413.7 509.15 415.9 505.95 Q416.4 504.35 417.1 503.3 L412.95 496.1 Q414.25 489.35 415.0 482.45 416.55 468.0 415.6 452.9 411.95 448.25 405.45 447.3 L402.5 447.0 Q403.65 440.8 406.45 434.95 L413.9 436.25 410.55 429.85 414.1 412.95 422.5 412.95 429.2 427.85 M370.5 427.85 L377.2 412.95 385.6 412.95 389.15 429.85 385.8 436.25 393.25 434.95 Q396.05 440.8 397.2 447.0 L394.25 447.3 Q387.75 448.25 384.1 452.9 383.15 468.0 384.7 482.45 385.45 489.35 386.75 496.1 L382.6 503.3 Q383.3 504.35 383.8 505.95 L386.0 509.15 386.0 514.15 385.95 514.2 383.15 516.6 382.6 514.85 382.35 514.75 Q377.95 513.05 373.25 514.45 L372.3 515.9 369.6 510.3 Q372.15 507.55 373.05 504.5 373.35 503.8 373.75 503.25 L369.45 496.9 Q370.95 488.45 371.9 479.7 373.3 466.1 373.35 451.75 371.9 449.35 369.8 447.35 L366.2 444.4 Q367.5 439.0 370.5 433.6 L372.9 435.6 370.5 427.85" fill="#000000" fill-rule="evenodd" stroke="none"/>
  </g>
</svg>
