<?xml version="1.0" encoding="UTF-8" standalone="no"?>
<svg xmlns:xlink="http://www.w3.org/1999/xlink" height="35.8px" width="42.75px" xmlns="http://www.w3.org/2000/svg">
  <g transform="matrix(1.0, 0.0, 0.0, 1.0, -460.3, -427.05)">
    <path d="M489.75 434.5 Q495.5 435.9 498.9 440.7 504.1 448.1 502.75 457.25 L501.75 462.65 501.2 462.85 Q496.9 457.55 490.4 456.45 486.8 455.95 483.2 457.05 L488.1 460.15 Q481.5 462.15 474.7 461.95 L465.4 461.05 467.0 460.2 466.55 459.65 465.35 459.1 465.55 458.85 466.3 457.15 464.6 457.25 465.4 455.05 463.3 455.4 462.35 453.05 460.3 455.0 461.6 450.1 Q464.35 443.05 468.9 437.0 473.0 431.6 478.15 427.15 L478.25 427.05 476.2 434.25 Q480.0 431.4 484.85 430.75 491.4 429.8 496.8 433.55 L489.75 434.5" fill="#000000" fill-rule="evenodd" stroke="none"/>
  </g>
</svg>
