<?xml version="1.0" encoding="UTF-8" standalone="no"?>
<svg xmlns:xlink="http://www.w3.org/1999/xlink" height="256.05px" width="199.95px" xmlns="http://www.w3.org/2000/svg">
  <g transform="matrix(1.0, 0.0, 0.0, 1.0, 100.1, 119.05)">
    <path d="M59.9 -100.15 Q50.25 -78.3 48.6 -54.0 48.3 -35.1 54.8 -20.15 L54.8 -20.1 54.85 -20.1 Q55.05 6.95 59.8 31.45 L59.75 31.45 55.25 19.35 55.0 18.75 Q52.6 12.3 52.1 5.35 L52.85 -0.5 Q54.05 -10.3 54.8 -20.1 52.45 -22.5 50.1 -24.5 47.7 -5.95 51.45 10.45 L51.4 10.5 Q49.05 5.5 46.6 1.15 L45.8 -0.25 45.6 -0.5 Q42.65 -6.3 42.85 -12.7 L41.95 -6.35 37.25 -12.7 34.75 -15.55 Q31.95 -19.2 31.45 -22.8 L30.95 -20.45 30.75 -19.45 29.65 -20.35 25.65 -23.4 25.3 -23.65 Q21.25 -26.45 19.85 -30.5 L20.0 -26.5 Q12.9 -26.05 -0.1 -18.65 -13.15 -26.05 -20.25 -26.5 L-20.1 -30.5 Q-21.5 -26.45 -25.55 -23.65 L-25.9 -23.4 Q-27.9 -22.05 -29.9 -20.35 L-31.0 -19.45 -31.2 -20.45 -31.7 -22.8 Q-32.2 -19.2 -34.95 -15.55 L-37.5 -12.7 -42.2 -6.35 -43.1 -12.7 Q-42.9 -6.3 -45.85 -0.5 L-46.05 -0.25 -46.85 1.15 -51.65 10.55 Q-47.9 -5.95 -50.35 -24.5 L-55.05 -20.1 Q-54.3 -10.3 -53.1 -0.5 L-52.35 5.35 Q-52.85 12.3 -55.25 18.75 L-55.5 19.35 Q-57.85 25.1 -60.0 31.55 -55.25 7.0 -55.05 -20.1 -48.5 -35.1 -48.8 -54.0 -50.45 -78.3 -60.15 -100.15 -67.1 -109.15 -79.05 -118.85 L-78.95 -119.05 Q-71.1 -118.55 -65.85 -115.85 -60.95 -113.25 -59.2 -104.55 L-59.05 -104.25 Q-56.8 -96.8 -53.8 -90.05 L-53.2 -88.65 -53.05 -88.35 Q-41.2 -62.8 -18.85 -47.3 -10.95 -41.9 -0.1 -38.35 10.7 -41.9 18.65 -47.3 40.95 -62.8 52.8 -88.35 L53.6 -90.2 Q56.6 -96.9 58.85 -104.25 L58.95 -104.55 Q60.7 -113.25 65.65 -115.85 70.9 -118.5 78.7 -119.05 L78.85 -118.85 Q66.9 -109.1 59.9 -100.15 M70.95 -62.05 Q67.8 -63.35 67.4 -68.55 66.9 -84.35 65.05 -99.05 69.5 -72.95 78.3 -59.9 L78.3 -59.85 Q74.75 -61.3 70.95 -62.05 M67.5 -62.65 L67.55 -62.65 Q69.8 -2.9 76.3 7.9 L76.3 7.95 70.8 -0.5 69.25 -2.6 Q65.75 -8.6 66.0 -17.95 67.9 -41.25 67.5 -62.65 L60.3 -62.9 Q57.15 -63.2 56.35 -68.35 L56.3 -68.75 55.95 -82.7 Q59.55 -65.75 67.5 -62.65 M56.4 -62.55 L56.7 -62.45 Q58.9 -26.45 65.1 -8.3 L65.05 -8.25 58.75 -15.95 Q55.1 -21.95 55.4 -28.65 56.45 -45.45 56.4 -62.55 M77.9 -66.15 Q76.65 -84.0 73.75 -100.8 79.8 -69.3 89.45 -53.7 L89.45 -53.65 Q85.8 -56.3 82.05 -58.2 78.4 -60.6 77.95 -65.55 L77.9 -66.15 M77.25 -1.75 L77.25 -1.85 Q79.4 -27.85 78.65 -51.9 81.25 -1.6 87.95 28.0 L87.85 28.0 80.45 14.75 Q76.65 7.8 77.25 -1.75 M65.1 -8.2 L65.15 -8.2 Q63.6 26.9 68.35 60.5 L68.3 60.5 Q65.75 50.5 63.05 41.65 L62.8 40.8 62.6 40.2 Q60.25 31.5 61.4 21.7 L61.45 21.05 64.3 -0.5 65.1 -8.2 M84.0 -97.85 Q91.2 -62.7 99.85 -44.15 L99.8 -44.1 93.95 -49.95 93.35 -50.5 Q89.7 -53.95 88.95 -59.95 87.25 -79.05 84.0 -97.85 M90.6 -21.3 Q92.7 20.05 98.25 48.55 L98.15 48.6 91.8 35.6 Q88.4 27.35 88.8 18.4 89.65 8.9 90.1 -0.5 90.55 -10.95 90.6 -21.3 M87.95 28.05 Q81.3 82.55 82.25 137.0 L78.65 112.6 77.45 105.15 Q76.65 97.6 78.75 83.85 84.95 55.6 87.9 28.05 L87.95 28.05 M-89.2 -59.95 Q-89.95 -53.95 -93.6 -50.5 L-94.15 -49.95 Q-97.2 -47.3 -100.1 -44.1 -91.35 -62.75 -84.15 -98.35 -87.55 -79.3 -89.2 -59.95 M76.3 7.95 L76.35 7.95 Q72.3 52.3 75.95 96.55 73.25 81.85 70.25 68.8 68.7 60.15 70.1 50.9 L70.25 50.25 70.55 48.7 Q74.25 27.8 76.3 7.95 M-89.7 -53.65 Q-80.05 -69.15 -74.0 -100.55 -76.9 -83.85 -78.15 -66.15 L-78.2 -65.55 Q-78.65 -60.6 -82.3 -58.2 -86.05 -56.3 -89.7 -53.65 M-90.35 -0.5 Q-89.9 8.9 -89.05 18.4 -88.65 27.35 -92.05 35.6 L-98.45 48.7 Q-93.0 20.35 -90.8 -20.7 -90.8 -10.65 -90.35 -0.5 M-71.2 -62.05 Q-75.0 -61.3 -78.55 -59.85 -69.7 -72.9 -65.3 -99.05 -67.1 -84.35 -67.65 -68.55 -68.05 -63.35 -71.2 -62.05 M-60.55 -62.9 L-67.8 -62.65 Q-68.2 -41.25 -66.3 -17.95 -66.0 -8.6 -69.5 -2.6 L-71.0 -0.5 -76.45 7.8 Q-70.0 -3.15 -67.8 -62.65 -59.75 -65.7 -56.15 -82.7 L-56.55 -68.75 Q-57.3 -63.2 -60.55 -62.9 M-56.6 -62.55 Q-56.65 -45.45 -55.65 -28.65 -55.4 -21.95 -59.0 -15.95 L-65.35 -8.2 -64.55 -0.5 -61.7 21.05 -61.6 21.7 Q-60.5 31.5 -62.85 40.2 L-63.05 40.8 -63.3 41.65 Q-66.0 50.55 -68.55 60.6 -63.85 26.95 -65.35 -8.2 -59.15 -26.4 -56.9 -62.5 L-56.6 -62.55 M-77.5 -1.75 Q-76.9 7.8 -80.7 14.75 L-88.15 28.05 Q-81.55 -1.4 -78.9 -51.45 -79.65 -27.6 -77.5 -1.85 L-77.5 -1.75 M-70.75 48.7 L-70.5 50.25 -70.35 50.9 Q-68.95 60.15 -70.5 68.8 -73.5 81.85 -76.15 96.55 -72.6 53.5 -76.3 10.45 -74.3 29.1 -70.75 48.7 M-78.9 112.6 L-82.45 137.0 Q-81.6 88.0 -86.85 39.05 -83.95 61.25 -79.0 83.85 -76.85 97.6 -77.7 105.15 L-78.9 112.6" fill="#000000" fill-opacity="0.2509804" fill-rule="evenodd" stroke="none"/>
  </g>
</svg>
