<?xml version="1.0" encoding="UTF-8" standalone="no"?>
<svg xmlns:xlink="http://www.w3.org/1999/xlink" height="139.6px" width="443.0px" xmlns="http://www.w3.org/2000/svg">
  <g transform="matrix(1.0, 0.0, 0.0, 1.0, -178.4, -235.9)">
    <path d="M584.5 282.05 Q584.4 274.4 583.05 269.65 581.7 264.9 573.8 252.7 576.75 271.8 569.35 275.75 562.0 279.7 557.8 281.05 553.65 282.35 537.45 282.25 512.65 281.1 505.05 287.45 497.5 293.75 499.2 307.0 500.95 320.25 521.75 339.35 530.75 349.45 528.75 361.4 566.55 373.9 581.6 374.65 L586.1 371.7 589.5 340.8 600.5 330.6 Q607.75 323.85 615.85 309.85 624.0 295.85 619.05 264.4 613.65 281.45 611.45 284.1 609.4 286.6 601.95 292.6 602.95 291.0 604.5 286.05 606.9 278.3 607.2 272.45 607.55 266.55 605.1 256.4 602.65 246.2 594.05 236.4 593.25 255.9 592.5 261.45 591.8 267.0 590.05 272.65 588.3 278.25 584.5 282.05 M278.05 339.35 Q298.85 320.25 300.6 307.0 302.3 293.75 294.75 287.45 287.15 281.1 262.35 282.25 246.15 282.35 242.0 281.05 237.8 279.7 230.45 275.75 223.05 271.8 226.0 252.7 218.1 264.9 216.75 269.65 215.4 274.4 215.3 282.05 M278.05 339.35 Q269.05 349.45 271.05 361.4 233.25 373.9 218.2 374.65 219.9 376.05 213.7 371.7 L210.3 340.8 199.3 330.6 Q192.05 323.85 183.95 309.85 175.8 295.85 180.75 264.4 186.15 281.45 188.35 284.1 190.4 286.6 197.85 292.6 196.85 291.0 195.3 286.05 192.9 278.3 192.6 272.45 192.25 266.55 194.7 256.4 197.15 246.2 205.75 236.4 206.55 255.9 207.3 261.45 208.0 267.0 209.75 272.65 211.5 278.25 215.3 282.05" fill="none" stroke="#000000" stroke-linecap="round" stroke-linejoin="round" stroke-width="1.0"/>
    <path d="M537.45 282.25 Q540.2 290.3 540.55 295.45 540.95 300.6 540.35 305.55 539.75 310.45 537.65 316.55 535.55 322.6 521.75 339.35 M601.95 292.6 L601.55 293.75 589.2 319.75 M584.5 282.05 L581.0 296.55 M561.9 306.0 Q567.2 320.85 567.7 329.15 568.25 337.4 568.0 341.55 L566.9 354.75 Q560.8 349.0 558.25 343.0 555.7 337.0 555.4 330.75 555.15 324.5 556.3 319.75 557.45 314.95 561.9 306.0 M569.3 357.1 Q572.4 347.9 572.65 342.25 573.25 333.95 571.3 324.45 L569.55 315.15 Q568.45 310.35 572.3 306.4 M262.35 282.25 Q259.6 290.3 259.25 295.45 258.85 300.6 259.45 305.55 260.05 310.45 262.15 316.55 264.25 322.6 278.05 339.35 M215.3 282.05 L218.8 296.55 M197.85 292.6 L198.25 293.75 210.6 319.75 M230.5 357.1 Q227.4 347.9 227.15 342.25 226.55 333.95 228.5 324.45 L230.25 315.15 Q231.35 310.35 227.5 306.4 M231.8 341.55 L232.9 354.75 Q239.0 349.0 241.55 343.0 244.1 337.0 244.4 330.75 244.65 324.5 243.5 319.75 242.35 314.95 237.9 306.0 232.6 320.85 232.1 329.15 231.55 337.4 231.8 341.55" fill="none" stroke="#000000" stroke-linecap="round" stroke-linejoin="round" stroke-opacity="0.5019608" stroke-width="1.0"/>
  </g>
</svg>
