<?xml version="1.0" encoding="UTF-8" standalone="no"?>
<svg xmlns:xlink="http://www.w3.org/1999/xlink" height="139.6px" width="123.0px" xmlns="http://www.w3.org/2000/svg">
  <g transform="matrix(1.0, 0.0, 0.0, 1.0, -178.4, -235.9)">
    <path d="M278.05 339.35 Q298.85 320.25 300.6 307.0 302.3 293.75 294.75 287.45 287.15 281.1 262.35 282.25 246.15 282.35 242.0 281.05 237.8 279.7 230.45 275.75 223.05 271.8 226.0 252.7 218.1 264.9 216.75 269.65 215.4 274.4 215.3 282.05 M278.05 339.35 Q269.05 349.45 271.05 361.4 233.25 373.9 218.2 374.65 219.9 376.05 213.7 371.7 L210.3 340.8 199.3 330.6 Q192.05 323.85 183.95 309.85 175.8 295.85 180.75 264.4 186.15 281.45 188.35 284.1 190.4 286.6 197.85 292.6 196.85 291.0 195.3 286.05 192.9 278.3 192.6 272.45 192.25 266.55 194.7 256.4 197.15 246.2 205.75 236.4 206.55 255.9 207.3 261.45 208.0 267.0 209.75 272.65 211.5 278.25 215.3 282.05" fill="none" stroke="#000000" stroke-linecap="round" stroke-linejoin="round" stroke-width="1.0"/>
    <path d="M262.35 282.25 Q259.6 290.3 259.25 295.45 258.85 300.6 259.45 305.55 260.05 310.45 262.15 316.55 264.25 322.6 278.05 339.35 M215.3 282.05 L218.8 296.55 M197.85 292.6 L198.25 293.75 210.6 319.75 M231.8 341.55 L232.9 354.75 Q239.0 349.0 241.55 343.0 244.1 337.0 244.4 330.75 244.65 324.5 243.5 319.75 242.35 314.95 237.9 306.0 232.6 320.85 232.1 329.15 231.55 337.4 231.8 341.55 M230.5 357.1 Q227.4 347.9 227.15 342.25 226.55 333.95 228.5 324.45 L230.25 315.15 Q231.35 310.35 227.5 306.4" fill="none" stroke="#000000" stroke-linecap="round" stroke-linejoin="round" stroke-opacity="0.5019608" stroke-width="1.0"/>
  </g>
</svg>
