<?xml version="1.0" encoding="UTF-8" standalone="no"?>
<svg xmlns:xlink="http://www.w3.org/1999/xlink" height="46.9px" width="48.55px" xmlns="http://www.w3.org/2000/svg">
  <g transform="matrix(1.0, 0.0, 0.0, 1.0, -376.15, -201.4)">
    <path d="M419.35 230.6 Q415.0 234.75 408.95 235.15 403.05 235.55 398.25 232.15 L380.9 248.3 376.15 243.15 393.35 227.05 Q390.4 222.05 391.15 216.1 391.95 210.2 396.3 206.05 401.45 201.25 408.4 201.4 415.4 201.7 420.15 206.8 424.9 211.9 424.7 218.85 424.45 225.85 419.35 230.6 M420.15 218.8 Q420.25 213.6 416.75 209.95 413.4 206.15 408.2 206.05 403.1 205.9 399.4 209.3 395.7 212.8 395.6 217.85 395.45 223.05 398.85 226.7 402.35 230.35 407.4 230.6 412.5 230.75 416.25 227.25 419.9 223.85 420.15 218.8" fill="#000000" fill-rule="evenodd" stroke="none"/>
  </g>
</svg>
