<?xml version="1.0" encoding="UTF-8" standalone="no"?>
<svg xmlns:xlink="http://www.w3.org/1999/xlink" height="49.75px" width="49.7px" xmlns="http://www.w3.org/2000/svg">
  <g transform="matrix(1.0, 0.0, 0.0, 1.0, -374.85, -201.6)">
    <path d="M410.6 215.6 Q411.9 216.9 411.9 218.7 411.9 220.6 410.6 221.85 409.3 223.2 407.4 223.2 405.5 223.2 404.2 221.85 402.9 220.6 402.9 218.7 402.9 216.85 404.2 215.6 405.5 214.25 407.4 214.25 409.25 214.25 410.6 215.6 M420.15 226.4 Q420.15 218.0 414.15 211.95 408.2 205.95 399.65 205.95 391.2 205.95 385.25 211.95 379.2 217.95 379.2 226.4 379.2 235.05 385.25 241.0 391.2 247.0 399.65 247.0 408.2 247.0 414.15 241.0 420.15 234.95 420.15 226.4 M417.3 244.05 Q410.0 251.35 399.65 251.35 389.4 251.35 382.1 244.05 374.85 236.85 374.85 226.4 374.85 216.1 382.1 208.85 389.4 201.6 399.65 201.6 410.0 201.6 417.3 208.85 424.55 216.1 424.55 226.4 424.55 236.8 417.3 244.05 M414.55 227.1 Q413.85 234.55 409.9 238.45 405.9 242.3 399.65 242.3 393.5 242.3 389.55 238.45 385.55 234.65 384.85 227.1 L387.9 227.1 Q390.2 237.25 399.65 237.25 409.15 237.25 411.45 227.1 L414.55 227.1 M388.8 215.6 Q390.1 214.25 392.0 214.25 393.8 214.25 395.2 215.6 396.5 216.9 396.5 218.7 396.5 220.55 395.2 221.85 393.8 223.2 392.0 223.2 390.1 223.2 388.8 221.85 387.5 220.6 387.5 218.7 387.5 216.85 388.8 215.6" fill="#000000" fill-rule="evenodd" stroke="none"/>
  </g>
</svg>
