<?xml version="1.0" encoding="UTF-8" standalone="no"?>
<svg xmlns:xlink="http://www.w3.org/1999/xlink" height="49.0px" width="49.0px" xmlns="http://www.w3.org/2000/svg">
  <g transform="matrix(1.0, 0.0, 0.0, 1.0, -375.4, -201.2)">
    <path d="M423.7 217.3 L423.9 233.6 421.5 232.6 421.4 218.25 423.7 217.3 M415.55 207.45 L413.85 209.15 409.95 205.3 410.9 202.9 415.55 207.45 M412.95 210.15 L409.35 206.7 408.5 208.85 411.35 211.7 412.95 210.15 M417.8 209.75 L422.5 214.3 420.1 215.25 416.2 211.45 417.8 209.75 M406.9 204.1 L392.5 204.2 391.5 201.8 407.85 201.7 406.9 204.1 M407.8 210.5 L410.2 212.85 408.75 214.35 406.95 212.6 407.8 210.5 M403.95 211.3 L395.6 211.35 394.75 209.35 404.8 209.3 403.95 211.3 M401.25 205.45 L406.35 205.45 405.45 207.6 401.25 207.65 401.25 205.45 M416.55 216.75 L413.7 213.95 415.2 212.4 418.8 215.85 416.55 216.75 M412.55 215.15 L414.9 217.5 412.85 218.4 411.05 216.65 412.55 215.15 M414.1 221.4 L416.2 220.45 416.25 224.25 414.1 224.25 414.1 221.4 M420.0 218.85 L420.15 232.1 417.95 231.2 417.85 219.75 420.0 218.85 M418.95 235.1 L409.7 244.5 408.7 242.3 416.7 234.2 418.95 235.1 M414.15 229.65 L416.3 230.55 416.25 227.5 414.15 227.5 414.15 229.65 M415.05 233.55 L408.05 240.7 407.15 238.6 412.95 232.7 415.05 233.55 M404.15 239.85 L405.05 242.0 401.25 242.0 401.25 239.9 404.15 239.85 M401.25 247.25 L407.3 247.2 408.3 249.6 401.25 249.65 401.25 247.25 M406.7 245.75 L393.5 245.9 394.4 243.65 405.7 243.55 406.7 245.75 M410.25 245.9 L420.35 235.7 422.7 236.6 411.25 248.3 410.25 245.9 M391.05 209.05 L383.1 217.1 380.9 216.25 390.1 206.8 391.05 209.05 M392.6 212.65 L386.8 218.6 384.8 217.8 391.75 210.65 392.6 212.65 M394.0 207.75 L393.1 205.5 398.0 205.5 398.0 207.65 394.0 207.75 M383.4 211.75 L379.5 215.65 377.1 214.7 381.65 210.05 383.4 211.75 M388.5 203.05 L389.55 205.45 385.7 209.4 383.95 207.75 388.5 203.05 M381.95 224.25 L379.7 224.25 379.7 219.25 381.85 220.15 381.95 224.25 M383.55 224.25 L383.55 220.8 385.55 221.65 385.55 224.25 383.55 224.25 M378.3 218.65 L378.4 233.0 376.0 234.0 375.9 217.75 378.3 218.65 M379.6 236.0 L383.6 239.9 381.95 241.6 377.25 237.0 379.6 236.0 M385.55 227.5 L383.55 227.5 383.6 230.8 385.65 229.95 385.55 227.5 M382.0 231.45 L379.8 232.45 379.7 227.5 381.95 227.5 382.0 231.45 M383.25 234.45 L386.15 237.35 384.6 238.95 381.0 235.4 383.25 234.45 M386.85 232.9 L392.85 238.8 392.0 240.8 384.85 233.8 386.85 232.9 M388.5 239.65 L391.35 242.45 390.5 244.7 386.95 241.2 388.5 239.65 M388.95 248.5 L389.9 246.15 385.95 242.2 384.25 243.85 388.95 248.5 M398.0 242.05 L395.05 242.05 395.9 239.95 398.0 239.9 398.0 242.05 M392.0 249.7 L398.0 249.65 398.0 247.25 393.0 247.3 392.0 249.7" fill="none" stroke="#333333" stroke-linecap="round" stroke-linejoin="round" stroke-opacity="0.49803922" stroke-width="1.0"/>
  </g>
</svg>
