<?xml version="1.0" encoding="UTF-8" standalone="no"?>
<svg xmlns:xlink="http://www.w3.org/1999/xlink" height="76.5px" width="45.85px" xmlns="http://www.w3.org/2000/svg">
  <g transform="matrix(1.0, 0.0, 0.0, 1.0, -377.85, -196.65)">
    <path d="M408.9 197.15 Q404.95 197.15 402.1 199.95 399.3 202.8 399.3 206.75 399.3 208.55 400.0 210.4 396.5 208.1 392.4 208.1 386.55 208.1 382.45 212.2 378.35 216.3 378.35 222.1 378.35 224.15 378.95 226.1 L378.95 258.7 Q378.95 259.45 379.5 260.05 380.05 260.55 380.8 260.55 381.6 260.55 382.2 260.05 382.7 259.45 382.7 258.7 L382.7 232.25 Q383.5 233.1 384.8 233.85 L384.8 245.55 Q384.8 246.1 385.1 246.45 385.5 246.85 386.0 246.85 386.55 246.85 386.85 246.45 387.25 246.1 387.25 245.55 L387.25 235.15 390.3 236.0 390.3 236.15 Q390.3 237.15 391.15 237.9 L391.15 249.05 Q391.15 249.7 391.8 249.7 392.45 249.7 392.45 249.05 L392.45 238.35 392.5 238.35 Q393.45 238.35 393.95 237.8 394.3 238.1 394.8 238.1 395.85 238.1 396.15 237.15 396.9 237.75 397.7 237.75 398.75 237.75 399.5 237.05 400.2 236.35 400.2 235.3 400.2 234.5 399.8 234.0 401.5 232.95 402.85 231.4 L402.65 233.2 Q402.65 237.65 406.3 240.15 L406.3 255.95 Q406.3 256.75 407.1 256.75 407.85 256.75 407.85 255.95 L407.85 243.6 Q408.65 244.95 409.75 245.5 L409.75 250.95 Q409.75 251.45 410.15 251.8 410.55 252.2 411.0 252.2 411.5 252.2 411.9 251.8 412.3 251.45 412.3 250.95 L412.3 246.0 414.15 245.45 414.15 270.8 Q414.15 271.55 414.75 272.15 415.25 272.65 416.05 272.65 416.85 272.65 417.4 272.15 417.95 271.55 417.95 270.8 L417.95 240.15 418.4 240.25 Q419.1 240.25 419.55 239.75 420.1 239.25 420.1 238.6 420.1 237.95 419.6 237.5 419.25 237.05 418.6 237.0 419.5 235.15 419.5 233.2 419.5 229.75 417.0 227.3 414.55 224.8 411.05 224.8 407.95 224.8 405.5 226.9 406.35 224.5 406.35 222.1 406.35 218.6 404.6 215.25 406.15 216.2 408.05 216.25 L408.05 222.5 Q408.05 223.0 408.4 223.35 408.75 223.7 409.3 223.7 409.8 223.7 410.15 223.35 410.55 223.0 410.55 222.5 L410.55 216.2 411.5 215.9 411.5 217.15 Q411.5 217.95 412.1 218.5 412.6 219.05 413.4 219.05 414.15 219.05 414.75 218.5 415.25 217.95 415.25 217.15 L415.25 215.2 416.05 215.4 417.0 215.05 Q417.1 216.05 417.65 216.85 418.25 217.55 419.15 217.85 L419.15 226.2 Q419.15 227.05 419.95 227.05 420.8 227.05 420.8 226.2 L420.8 217.95 Q421.85 217.65 422.5 216.85 423.2 216.0 423.2 214.9 423.2 212.8 421.3 212.0 421.9 211.25 421.9 210.15 421.9 209.1 421.25 208.25 420.6 207.4 419.6 207.1 L419.75 206.55 Q419.75 206.05 419.35 205.6 418.9 205.2 418.3 205.2 417.8 201.75 415.15 199.45 412.4 197.15 408.9 197.15 Z" fill="none" stroke="#000000" stroke-linecap="round" stroke-linejoin="round" stroke-opacity="0.5019608" stroke-width="1.0"/>
  </g>
</svg>
