<?xml version="1.0" encoding="UTF-8" standalone="no"?>
<svg xmlns:xlink="http://www.w3.org/1999/xlink" height="57.85px" width="22.1px" xmlns="http://www.w3.org/2000/svg">
  <g transform="matrix(1.0, 0.0, 0.0, 1.0, -389.05, -196.0)">
    <path d="M401.55 196.95 Q401.05 196.5 400.25 196.5 399.5 196.5 399.0 196.95 398.65 197.45 398.65 198.25 398.65 199.55 399.5 200.0 L397.35 203.2 398.95 206.9 Q399.3 207.45 398.75 207.45 398.45 207.45 398.25 207.2 L396.8 203.95 395.6 205.8 394.55 207.75 Q393.95 209.05 394.45 211.05 395.0 213.05 396.25 214.25 395.75 214.25 395.5 214.55 395.2 214.9 395.2 215.35 395.2 215.85 395.5 216.1 395.75 216.45 396.25 216.45 L404.3 216.45 Q404.75 216.45 405.05 216.1 L405.35 215.35 405.05 214.55 Q404.75 214.25 404.3 214.25 405.6 213.05 406.05 211.05 406.5 209.1 406.0 207.75 L403.95 204.2 401.1 200.0 Q402.1 199.45 402.1 198.25 402.1 197.45 401.55 196.95 M406.15 220.75 L405.6 220.35 404.3 220.35 404.3 216.75 396.25 216.75 396.25 220.35 395.3 220.35 Q395.1 220.35 394.75 220.65 394.15 221.1 394.1 221.85 394.0 222.4 394.55 222.85 L395.1 223.25 405.8 223.25 406.3 222.85 Q406.8 222.5 406.75 221.9 406.7 221.2 406.15 220.75 M407.95 235.95 L392.7 235.95 Q396.55 228.05 396.75 223.65 L403.75 223.65 Q403.9 226.25 405.35 230.0 406.15 232.35 407.95 235.95 M408.1 236.35 L392.25 236.35 391.75 236.5 Q391.35 236.8 391.2 237.35 391.15 237.75 391.5 238.15 L391.95 238.45 408.45 238.45 408.95 238.15 Q409.3 237.75 409.25 237.3 L408.7 236.5 408.1 236.35 M410.65 244.95 Q410.6 243.6 409.8 241.8 L408.4 238.85 391.85 238.85 390.45 241.65 Q389.6 243.5 389.55 244.8 389.45 246.25 389.85 247.85 390.25 249.2 390.95 250.35 L409.1 250.35 Q410.8 247.5 410.65 244.95 M409.25 250.7 L390.85 250.7 390.55 251.0 Q390.25 251.4 390.2 251.75 L390.0 253.35 410.15 253.35 409.9 251.8 409.55 251.1 409.25 250.7" fill="none" stroke="#000000" stroke-linecap="round" stroke-linejoin="round" stroke-opacity="0.5019608" stroke-width="1.0"/>
  </g>
</svg>
