<?xml version="1.0" encoding="UTF-8" standalone="no"?>
<svg xmlns:xlink="http://www.w3.org/1999/xlink" height="37.35px" width="45.9px" xmlns="http://www.w3.org/2000/svg">
  <g transform="matrix(1.0, 0.0, 0.0, 1.0, -376.95, -204.15)">
    <path d="M408.4 208.75 Q408.7 210.7 408.7 214.9 L408.7 214.95 408.7 215.05 408.65 216.95 408.3 218.9 408.3 218.95 407.95 219.95 407.85 220.2 Q406.75 222.2 404.55 222.55 L403.75 224.55 395.95 224.55 395.2 222.55 Q393.0 222.2 391.85 220.2 L391.75 219.95 391.4 218.9 391.1 216.95 391.05 215.05 391.05 214.95 391.05 214.9 Q391.05 210.7 391.35 208.75 L391.8 208.1 Q394.75 204.65 399.85 204.65 404.95 204.65 407.95 208.1 L408.4 208.75 M405.85 215.05 Q405.15 214.4 404.1 214.75 L402.35 215.4 Q401.5 215.7 401.5 216.55 401.5 217.4 402.2 218.05 402.9 218.7 404.05 218.7 405.15 218.7 405.85 218.05 406.65 217.4 406.65 216.55 406.65 215.6 405.85 215.05 M419.8 218.8 Q419.6 218.85 419.55 219.05 418.9 220.0 419.1 221.25 419.5 222.35 420.45 222.95 420.9 223.25 421.65 223.35 L422.35 225.0 Q422.35 225.95 421.4 226.45 419.35 227.55 413.3 227.25 408.65 228.8 404.1 230.75 L406.0 231.7 413.1 234.7 413.45 234.9 Q415.25 235.3 416.7 236.7 415.05 239.3 415.15 241.0 413.45 241.15 412.1 239.4 406.15 235.75 399.85 232.7 393.55 235.75 387.65 239.4 386.3 241.15 384.6 241.0 384.65 239.3 383.05 236.7 384.45 235.3 386.3 234.9 L386.6 234.7 393.75 231.7 395.65 230.75 Q391.1 228.8 386.4 227.25 380.35 227.55 378.35 226.45 377.4 225.95 377.45 225.0 L378.1 223.35 Q378.8 223.25 379.25 222.95 380.25 222.35 380.65 221.25 380.8 220.0 380.25 219.05 L380.0 218.8 380.7 216.95 Q382.3 216.95 384.0 217.95 386.35 219.1 388.75 221.85 L391.05 223.35 399.85 228.55 408.7 223.35 411.0 221.85 Q413.45 219.1 415.7 217.95 417.4 216.95 419.05 216.95 L419.8 218.8 M393.9 215.05 Q394.6 214.4 395.6 214.75 L397.4 215.4 Q398.25 215.7 398.25 216.55 398.25 217.4 397.55 218.05 396.8 218.7 395.7 218.7 394.6 218.7 393.9 218.05 393.1 217.4 393.1 216.55 393.1 215.6 393.9 215.05 M399.85 221.25 Q401.35 222.15 401.3 220.55 L399.85 218.45 398.45 220.55 Q398.35 222.15 399.85 221.25 M395.65 230.75 L399.85 228.55 M404.1 230.75 Q402.0 231.65 399.85 232.7" fill="none" stroke="#000000" stroke-linecap="round" stroke-linejoin="round" stroke-opacity="0.5019608" stroke-width="1.0"/>
  </g>
</svg>
