<?xml version="1.0" encoding="UTF-8" standalone="no"?>
<svg xmlns:xlink="http://www.w3.org/1999/xlink" height="48.0px" width="48.0px" xmlns="http://www.w3.org/2000/svg">
  <g transform="matrix(1.0, 0.0, 0.0, 1.0, -375.9, -201.7)">
    <path d="M423.7 217.3 L423.9 233.6 421.5 232.6 421.4 218.25 423.7 217.3 M406.9 204.1 L392.5 204.2 391.5 201.8 407.85 201.7 406.9 204.1 M414.15 227.5 L416.25 227.5 416.3 230.55 414.15 229.65 414.15 227.5 M416.25 224.25 L414.1 224.25 414.1 221.4 416.2 220.45 416.25 224.25 M417.85 219.75 L420.0 218.85 420.15 232.1 417.95 231.2 417.85 219.75 M408.3 249.6 L401.25 249.65 401.25 247.25 407.3 247.2 408.3 249.6 M403.95 211.3 L395.6 211.35 394.75 209.35 404.8 209.3 403.95 211.3 M401.25 205.45 L406.35 205.45 405.45 207.6 401.25 207.65 401.25 205.45 M398.0 207.65 L394.0 207.75 393.1 205.5 398.0 205.5 398.0 207.65 M378.3 218.65 L378.4 233.0 376.0 234.0 375.9 217.75 378.3 218.65 M379.7 227.5 L381.95 227.5 382.0 231.45 379.8 232.45 379.7 227.5 M381.95 224.25 L379.7 224.25 379.7 219.25 381.85 220.15 381.95 224.25 M385.55 221.65 L385.55 224.25 383.55 224.25 383.55 220.8 385.55 221.65 M392.0 249.7 L393.0 247.3 398.0 247.25 398.0 249.65 392.0 249.7 M383.55 227.5 L385.55 227.5 385.65 229.95 383.6 230.8 383.55 227.5 M404.15 239.85 L405.05 242.0 401.25 242.0 401.25 239.9 404.15 239.85 M398.0 242.05 L395.05 242.05 395.9 239.95 398.0 239.9 398.0 242.05 M405.7 243.55 L406.7 245.75 393.5 245.9 394.4 243.65 405.7 243.55" fill="#000000" fill-rule="evenodd" stroke="none"/>
  </g>
</svg>
