<?xml version="1.0" encoding="UTF-8" standalone="no"?>
<svg xmlns:xlink="http://www.w3.org/1999/xlink" height="30.65px" width="86.6px" xmlns="http://www.w3.org/2000/svg">
  <g transform="matrix(1.0, 0.0, 0.0, 1.0, -356.6, -523.15)">
    <path d="M367.1 524.15 L358.65 537.25 Q357.7 539.15 357.35 541.15 357.0 542.85 357.15 544.65 357.25 546.4 357.75 548.2 L360.35 553.3 369.35 553.3 373.6 549.0 374.5 547.7 Q376.5 544.55 377.55 541.15 L378.05 539.15 378.4 537.05 Q378.85 533.65 379.8 530.5 L380.4 528.65 M432.7 524.15 L441.15 537.25 Q442.1 539.15 442.45 541.15 442.8 542.85 442.7 544.65 L442.05 548.2 439.45 553.3 430.45 553.3 426.2 549.0 425.3 547.7 Q423.3 544.55 422.3 541.15 421.95 540.15 421.75 539.15 L421.4 537.05 Q420.95 533.65 420.0 530.5 L419.4 528.65" fill="none" stroke="#000000" stroke-linecap="round" stroke-linejoin="round" stroke-width="1.0"/>
    <path d="M380.4 528.65 Q374.2 522.05 367.1 524.15 M419.4 528.65 Q425.55 522.05 432.7 524.15" fill="none" stroke="#000000" stroke-linecap="round" stroke-linejoin="round" stroke-opacity="0.5019608" stroke-width="1.0"/>
  </g>
</svg>
