<?xml version="1.0" encoding="UTF-8" standalone="no"?>
<svg xmlns:xlink="http://www.w3.org/1999/xlink" height="130.35px" width="68.9px" xmlns="http://www.w3.org/2000/svg">
  <g transform="matrix(1.0, 0.0, 0.0, 1.0, -365.45, -377.8)">
    <path d="M406.8 399.3 Q426.95 396.75 433.85 378.5 M424.3 429.0 L422.9 435.45 416.85 436.65 414.5 428.25 M393.05 399.3 Q372.85 396.8 365.95 378.3 M375.5 429.0 L376.9 435.45 382.95 436.65 385.3 428.25" fill="none" stroke="#000000" stroke-linecap="round" stroke-linejoin="round" stroke-opacity="0.5019608" stroke-width="1.0"/>
    <path d="M418.15 507.65 Q418.2 504.35 416.65 492.65 L416.25 489.55 Q415.55 484.3 413.9 477.1 412.3 470.05 409.75 461.15 L405.0 445.65 Q406.0 435.2 408.8 425.55 L406.8 399.3 M433.85 378.5 Q432.95 386.85 431.4 396.3 L428.6 412.1 425.9 425.0 430.1 443.25 429.35 460.0 428.2 476.3 426.95 489.55 426.7 492.15 424.9 507.25 M381.65 507.65 Q381.6 504.35 383.15 492.65 L383.55 489.55 Q384.25 484.3 385.9 477.1 387.5 470.05 390.1 461.15 L394.8 445.65 Q393.8 435.2 391.0 425.55 L393.05 399.3 M365.95 378.3 Q366.85 386.75 368.4 396.3 369.6 403.85 371.25 412.1 L373.9 425.0 369.7 443.25 370.5 460.0 Q370.95 468.15 371.65 476.3 L372.85 489.55 373.15 492.15 Q373.95 499.7 374.9 507.25" fill="none" stroke="#000000" stroke-linecap="round" stroke-linejoin="round" stroke-width="1.0"/>
  </g>
</svg>
