<?xml version="1.0" encoding="UTF-8" standalone="no"?>
<svg xmlns:xlink="http://www.w3.org/1999/xlink" height="34.8px" width="70.55px" xmlns="http://www.w3.org/2000/svg">
  <g transform="matrix(1.0, 0.0, 0.0, 1.0, -364.65, -324.3)">
    <path d="M369.5 324.8 Q368.25 327.75 367.35 330.85 365.85 336.1 365.15 342.8 M396.2 358.6 L396.8 350.4 M403.0 350.4 L403.65 358.6 M434.7 342.8 Q433.95 336.1 432.45 330.85 431.55 327.75 430.35 324.8" fill="none" stroke="#000000" stroke-linecap="round" stroke-linejoin="round" stroke-width="1.0"/>
    <path d="M365.15 342.8 Q381.5 349.5 396.2 358.6 M396.8 350.4 Q392.55 344.65 387.6 339.7 380.0 331.15 369.5 324.8 M403.65 358.6 Q418.3 349.5 434.7 342.8 M430.35 324.8 Q419.8 331.15 412.2 339.7 407.25 344.65 403.0 350.4" fill="none" stroke="#000000" stroke-linecap="round" stroke-linejoin="round" stroke-opacity="0.5019608" stroke-width="1.0"/>
  </g>
</svg>
