<?xml version="1.0" encoding="UTF-8" standalone="no"?>
<svg xmlns:xlink="http://www.w3.org/1999/xlink" height="33.45px" width="36.55px" xmlns="http://www.w3.org/2000/svg">
  <g transform="matrix(1.0, 0.0, 0.0, 1.0, -346.5, -453.4)">
    <path d="M351.2 466.2 L350.45 473.3 347.65 472.3 348.25 465.3 351.2 466.2 M350.95 464.15 L352.85 453.6 Q365.75 458.0 381.35 453.4 L381.45 453.75 Q383.5 459.95 382.9 464.35 L378.15 465.3 378.15 475.85 375.05 476.4 374.4 485.95 369.95 486.6 364.95 486.85 362.25 486.8 360.95 486.7 356.55 486.05 355.4 485.85 353.0 485.25 353.65 476.0 352.3 475.7 353.3 464.85 350.95 464.15 M350.95 454.55 L349.75 461.45 346.5 460.5 Q346.95 456.25 347.7 453.45 L350.95 454.55 M348.95 482.5 L349.2 477.25 352.1 477.8 351.6 483.0 348.95 482.5" fill="#000000" fill-rule="evenodd" stroke="none"/>
  </g>
</svg>
