<?xml version="1.0" encoding="UTF-8" standalone="no"?>
<svg xmlns:xlink="http://www.w3.org/1999/xlink" height="53.85px" width="153.0px" xmlns="http://www.w3.org/2000/svg">
  <g transform="matrix(1.0, 0.0, 0.0, 1.0, -323.3, -506.15)">
    <path d="M365.05 509.5 Q365.9 515.5 363.4 520.05 362.0 522.2 360.9 524.55 359.05 528.45 357.9 532.65 L357.75 533.25 Q357.25 535.3 356.9 537.5 355.6 546.45 348.75 553.95 L341.55 560.0 328.5 560.0 324.25 553.05 Q323.6 551.15 323.3 549.3 334.75 545.0 344.5 553.35 349.3 550.15 351.95 541.15 354.1 528.8 361.2 520.15 360.05 512.4 364.15 506.15 L365.05 509.25 365.05 509.5 M343.6 541.15 Q338.2 537.3 330.6 537.0 L334.55 531.9 Q341.65 532.65 346.2 535.4 L343.6 541.15 M338.2 527.2 L341.6 522.8 Q346.6 522.35 350.7 525.3 L348.8 529.7 Q344.7 526.5 338.2 527.2 M344.8 518.6 L347.45 515.15 Q351.2 514.85 354.6 516.9 L353.05 520.3 Q349.6 518.3 344.8 518.6 M454.8 518.6 Q450.0 518.3 446.55 520.3 L445.0 516.9 Q448.4 514.85 452.15 515.15 L454.8 518.6 M461.4 527.2 Q454.9 526.5 450.8 529.7 L448.9 525.3 Q453.0 522.35 458.0 522.8 L461.4 527.2 M465.05 531.9 L469.0 537.0 Q461.4 537.3 456.0 541.15 L453.4 535.4 Q457.95 532.65 465.05 531.9 M434.55 509.25 L435.45 506.15 Q439.55 512.4 438.4 520.15 445.5 528.8 447.65 541.15 450.3 550.15 455.1 553.35 464.85 545.0 476.3 549.3 L475.35 553.05 471.1 560.0 458.05 560.0 450.85 553.95 Q444.0 546.45 442.7 537.5 L441.85 533.25 441.7 532.65 Q440.55 528.45 438.7 524.55 L436.2 520.05 Q433.7 515.5 434.55 509.5 L434.55 509.25" fill="#000000" fill-rule="evenodd" stroke="none"/>
  </g>
</svg>
