<?xml version="1.0" encoding="UTF-8" standalone="no"?>
<svg xmlns:xlink="http://www.w3.org/1999/xlink" height="81.05px" width="129.6px" xmlns="http://www.w3.org/2000/svg">
  <g transform="matrix(1.0, 0.0, 0.0, 1.0, -335.0, -451.65)">
    <path d="M437.35 493.3 Q436.95 493.7 436.4 493.7 435.85 493.7 435.45 493.3 435.05 492.9 435.05 492.35 435.05 491.8 435.45 491.4 435.85 491.0 436.4 491.0 436.95 491.0 437.35 491.4 437.75 491.8 437.75 492.35 437.75 492.9 437.35 493.3 M444.55 492.4 Q444.15 492.0 444.15 491.45 444.15 490.9 444.55 490.5 444.95 490.1 445.5 490.1 446.05 490.1 446.45 490.5 446.85 490.9 446.85 491.45 446.85 492.0 446.45 492.4 446.05 492.8 445.5 492.8 444.95 492.8 444.55 492.4 M451.3 451.7 L451.4 451.65 451.9 453.45 448.65 454.55 449.85 461.45 453.1 460.5 453.3 462.5 451.2 463.25 451.35 465.3 448.4 466.2 449.15 473.3 451.95 472.3 452.15 474.1 450.25 474.85 450.4 477.25 447.5 477.8 448.0 483.0 450.65 482.5 450.7 483.9 448.55 484.65 446.6 485.25 445.95 476.0 447.3 475.7 446.3 464.85 448.65 464.15 446.75 453.6 Q449.1 452.8 451.3 451.7 M348.2 451.65 L348.3 451.7 Q350.5 452.8 352.85 453.6 L350.95 464.15 353.3 464.85 352.3 475.7 353.65 476.0 353.0 485.25 351.1 484.65 348.9 483.9 348.95 482.5 351.6 483.0 352.1 477.8 349.2 477.25 349.35 474.85 347.45 474.1 347.65 472.3 350.45 473.3 351.2 466.2 348.25 465.3 348.4 463.25 346.3 462.5 346.5 460.5 349.75 461.45 350.95 454.55 347.7 453.45 348.2 451.65 M352.75 491.45 Q352.75 490.9 353.15 490.5 353.55 490.1 354.1 490.1 354.65 490.1 355.05 490.5 355.45 490.9 355.45 491.45 355.45 492.0 355.05 492.4 354.65 492.8 354.1 492.8 353.55 492.8 353.15 492.4 352.75 492.0 352.75 491.45 M362.25 493.3 Q361.85 492.9 361.85 492.35 361.85 491.8 362.25 491.4 362.65 491.0 363.2 491.0 363.75 491.0 364.15 491.4 364.55 491.8 364.55 492.35 364.55 492.9 364.15 493.3 363.75 493.7 363.2 493.7 362.65 493.7 362.25 493.3 M361.45 498.75 Q361.45 498.2 361.85 497.8 362.25 497.4 362.8 497.4 363.35 497.4 363.75 497.8 364.15 498.2 364.15 498.75 364.15 499.3 363.75 499.7 363.35 500.1 362.8 500.1 362.25 500.1 361.85 499.7 361.45 499.3 361.45 498.75 M355.2 499.0 Q354.8 499.4 354.25 499.4 353.7 499.4 353.3 499.0 352.9 498.6 352.9 498.05 352.9 497.5 353.3 497.1 353.7 496.7 354.25 496.7 354.8 496.7 355.2 497.1 355.6 497.5 355.6 498.05 355.6 498.6 355.2 499.0 M361.0 505.4 Q361.4 505.0 361.95 505.0 362.5 505.0 362.9 505.4 363.3 505.8 363.3 506.35 363.3 506.9 362.9 507.3 362.5 507.7 361.95 507.7 361.4 507.7 361.0 507.3 360.6 506.9 360.6 506.35 360.6 505.8 361.0 505.4 M351.55 504.55 Q351.55 504.0 351.95 503.6 352.35 503.2 352.9 503.2 353.45 503.2 353.85 503.6 354.25 504.0 354.25 504.55 354.25 505.1 353.85 505.5 353.45 505.9 352.9 505.9 352.35 505.9 351.95 505.5 351.55 505.1 351.55 504.55 M350.4 508.35 Q350.95 508.35 351.35 508.75 351.75 509.15 351.75 509.7 351.75 510.25 351.35 510.65 350.95 511.05 350.4 511.05 349.85 511.05 349.45 510.65 349.05 510.25 349.05 509.7 349.05 509.15 349.45 508.75 349.85 508.35 350.4 508.35 M349.0 513.35 Q349.0 513.9 348.6 514.3 348.2 514.7 347.65 514.7 347.1 514.7 346.7 514.3 346.3 513.9 346.3 513.35 346.3 512.8 346.7 512.4 347.1 512.0 347.65 512.0 348.2 512.0 348.6 512.4 349.0 512.8 349.0 513.35 M345.25 518.85 Q344.85 519.25 344.3 519.25 343.75 519.25 343.35 518.85 342.95 518.45 342.95 517.9 342.95 517.35 343.35 516.95 343.75 516.55 344.3 516.55 344.85 516.55 345.25 516.95 345.65 517.35 345.65 517.9 345.65 518.45 345.25 518.85 M359.95 513.25 Q359.4 513.25 359.0 512.85 358.6 512.45 358.6 511.9 358.6 511.35 359.0 510.95 359.4 510.55 359.95 510.55 360.5 510.55 360.9 510.95 361.3 511.35 361.3 511.9 361.3 512.45 360.9 512.85 360.5 513.25 359.95 513.25 M356.3 517.8 Q355.9 517.4 355.9 516.85 355.9 516.3 356.3 515.9 356.7 515.5 357.25 515.5 357.8 515.5 358.2 515.9 358.6 516.3 358.6 516.85 358.6 517.4 358.2 517.8 357.8 518.2 357.25 518.2 356.7 518.2 356.3 517.8 M341.65 523.8 Q341.25 524.2 340.7 524.2 340.15 524.2 339.75 523.8 339.35 523.4 339.35 522.85 339.35 522.3 339.75 521.9 340.15 521.5 340.7 521.5 341.25 521.5 341.65 521.9 342.05 522.3 342.05 522.85 342.05 523.4 341.65 523.8 M335.4 529.85 Q335.0 529.45 335.0 528.9 335.0 528.35 335.4 527.95 335.8 527.55 336.35 527.55 336.9 527.55 337.3 527.95 337.7 528.35 337.7 528.9 337.7 529.45 337.3 529.85 336.9 530.25 336.35 530.25 335.8 530.25 335.4 529.85 M356.4 520.9 Q356.4 521.45 356.0 521.85 355.6 522.25 355.05 522.25 354.5 522.25 354.1 521.85 353.7 521.45 353.7 520.9 353.7 520.35 354.1 519.95 354.5 519.55 355.05 519.55 355.6 519.55 356.0 519.95 356.4 520.35 356.4 520.9 M353.75 525.45 Q353.75 526.0 353.35 526.4 352.95 526.8 352.4 526.8 351.85 526.8 351.45 526.4 351.05 526.0 351.05 525.45 351.05 524.9 351.45 524.5 351.85 524.1 352.4 524.1 352.95 524.1 353.35 524.5 353.75 524.9 353.75 525.45 M348.75 530.4 Q349.15 530.0 349.7 530.0 350.25 530.0 350.65 530.4 351.05 530.8 351.05 531.35 351.05 531.9 350.65 532.3 350.25 532.7 349.7 532.7 349.15 532.7 348.75 532.3 348.35 531.9 348.35 531.35 348.35 530.8 348.75 530.4 M443.3 517.8 Q442.9 518.2 442.35 518.2 441.8 518.2 441.4 517.8 441.0 517.4 441.0 516.85 441.0 516.3 441.4 515.9 441.8 515.5 442.35 515.5 442.9 515.5 443.3 515.9 443.7 516.3 443.7 516.85 443.7 517.4 443.3 517.8 M440.6 510.95 Q441.0 511.35 441.0 511.9 441.0 512.45 440.6 512.85 440.2 513.25 439.65 513.25 439.1 513.25 438.7 512.85 438.3 512.45 438.3 511.9 438.3 511.35 438.7 510.95 439.1 510.55 439.65 510.55 440.2 510.55 440.6 510.95 M437.65 505.0 Q438.2 505.0 438.6 505.4 439.0 505.8 439.0 506.35 439.0 506.9 438.6 507.3 438.2 507.7 437.65 507.7 437.1 507.7 436.7 507.3 436.3 506.9 436.3 506.35 436.3 505.8 436.7 505.4 437.1 505.0 437.65 505.0 M437.75 497.8 Q438.15 498.2 438.15 498.75 438.15 499.3 437.75 499.7 437.35 500.1 436.8 500.1 436.25 500.1 435.85 499.7 435.45 499.3 435.45 498.75 435.45 498.2 435.85 497.8 436.25 497.4 436.8 497.4 437.35 497.4 437.75 497.8 M448.95 530.4 Q449.35 530.0 449.9 530.0 450.45 530.0 450.85 530.4 451.25 530.8 451.25 531.35 451.25 531.9 450.85 532.3 450.45 532.7 449.9 532.7 449.35 532.7 448.95 532.3 448.55 531.9 448.55 531.35 448.55 530.8 448.95 530.4 M445.85 525.45 Q445.85 524.9 446.25 524.5 446.65 524.1 447.2 524.1 447.75 524.1 448.15 524.5 448.55 524.9 448.55 525.45 448.55 526.0 448.15 526.4 447.75 526.8 447.2 526.8 446.65 526.8 446.25 526.4 445.85 526.0 445.85 525.45 M445.9 520.9 Q445.9 521.45 445.5 521.85 445.1 522.25 444.55 522.25 444.0 522.25 443.6 521.85 443.2 521.45 443.2 520.9 443.2 520.35 443.6 519.95 444.0 519.55 444.55 519.55 445.1 519.55 445.5 519.95 445.9 520.35 445.9 520.9 M464.6 528.9 Q464.6 529.45 464.2 529.85 463.8 530.25 463.25 530.25 462.7 530.25 462.3 529.85 461.9 529.45 461.9 528.9 461.9 528.35 462.3 527.95 462.7 527.55 463.25 527.55 463.8 527.55 464.2 527.95 464.6 528.35 464.6 528.9 M458.9 524.2 Q458.35 524.2 457.95 523.8 457.55 523.4 457.55 522.85 457.55 522.3 457.95 521.9 458.35 521.5 458.9 521.5 459.45 521.5 459.85 521.9 460.25 522.3 460.25 522.85 460.25 523.4 459.85 523.8 459.45 524.2 458.9 524.2 M454.35 518.85 Q453.95 518.45 453.95 517.9 453.95 517.35 454.35 516.95 454.75 516.55 455.3 516.55 455.85 516.55 456.25 516.95 456.65 517.35 456.65 517.9 456.65 518.45 456.25 518.85 455.85 519.25 455.3 519.25 454.75 519.25 454.35 518.85 M448.25 508.75 Q448.65 508.35 449.2 508.35 449.75 508.35 450.15 508.75 450.55 509.15 450.55 509.7 450.55 510.25 450.15 510.65 449.75 511.05 449.2 511.05 448.65 511.05 448.25 510.65 447.85 510.25 447.85 509.7 447.85 509.15 448.25 508.75 M452.9 512.4 Q453.3 512.8 453.3 513.35 453.3 513.9 452.9 514.3 452.5 514.7 451.95 514.7 451.4 514.7 451.0 514.3 450.6 513.9 450.6 513.35 450.6 512.8 451.0 512.4 451.4 512.0 451.95 512.0 452.5 512.0 452.9 512.4 M446.7 498.05 Q446.7 498.6 446.3 499.0 445.9 499.4 445.35 499.4 444.8 499.4 444.4 499.0 444.0 498.6 444.0 498.05 444.0 497.5 444.4 497.1 444.8 496.7 445.35 496.7 445.9 496.7 446.3 497.1 446.7 497.5 446.7 498.05 M448.05 504.55 Q448.05 505.1 447.65 505.5 447.25 505.9 446.7 505.9 446.15 505.9 445.75 505.5 445.35 505.1 445.35 504.55 445.35 504.0 445.75 503.6 446.15 503.2 446.7 503.2 447.25 503.2 447.65 503.6 448.05 504.0 448.05 504.55" fill="#000000" fill-rule="evenodd" stroke="none"/>
  </g>
</svg>
