<?xml version="1.0" encoding="UTF-8" standalone="no"?>
<svg xmlns:xlink="http://www.w3.org/1999/xlink" height="98.65px" width="49.8px" xmlns="http://www.w3.org/2000/svg">
  <g transform="matrix(1.0, 0.0, 0.0, 1.0, -331.0, -445.3)">
    <path d="M354.35 463.45 L349.45 462.35 348.8 458.25 Q347.75 451.4 348.9 445.3 354.85 447.0 361.3 447.8 370.5 448.85 380.8 448.0 380.5 452.25 378.8 456.3 L378.3 457.35 Q376.0 460.85 374.0 464.5 L365.75 464.65 359.8 507.15 355.0 518.85 Q351.55 527.5 348.5 536.2 L357.05 536.85 356.9 537.5 Q356.45 540.45 355.45 543.25 L346.1 543.95 340.75 543.05 339.75 542.8 337.2 542.1 336.9 541.95 336.05 541.55 334.25 540.55 Q331.15 538.7 331.85 534.05 L331.45 532.45 331.0 531.2 334.5 526.9 Q334.95 532.0 337.2 533.75 L337.9 534.2 Q342.3 526.55 347.05 518.85 L354.25 507.5 354.35 505.2 354.95 502.95 355.5 498.25 355.45 497.9 355.5 497.6 355.5 497.55 355.55 497.4 355.75 493.1 355.75 493.05 355.75 492.95 355.8 492.7 355.85 490.45 355.85 483.45 355.85 483.35 Q355.55 474.95 354.35 463.45" fill="#000000" fill-rule="evenodd" stroke="none"/>
  </g>
</svg>
