<?xml version="1.0" encoding="UTF-8" standalone="no"?>
<svg xmlns:xlink="http://www.w3.org/1999/xlink" height="102.15px" width="148.2px" xmlns="http://www.w3.org/2000/svg">
  <g transform="matrix(1.0, 0.0, 0.0, 1.0, -325.7, -445.3)">
    <path d="M438.25 489.55 L443.65 489.1 446.15 488.35 444.7 498.05 Q441.95 499.95 436.75 498.45 L434.8 489.15 438.25 489.55 M421.3 457.35 L420.8 456.3 Q419.1 452.25 418.8 448.0 436.25 449.5 450.7 445.3 451.85 451.4 450.8 458.25 L450.15 462.35 446.2 463.25 Q439.3 464.6 431.95 464.7 L425.6 464.5 421.3 457.35 M355.95 489.1 L361.35 489.55 364.8 489.15 362.85 498.45 Q357.65 499.95 354.9 498.05 L353.45 488.35 355.95 489.1 M349.45 462.35 L348.8 458.25 Q347.75 451.4 348.9 445.3 363.35 449.5 380.8 448.0 380.5 452.25 378.8 456.3 L378.3 457.35 Q376.0 460.85 374.0 464.5 L367.65 464.7 Q360.3 464.6 353.4 463.25 L349.45 462.35 M337.5 523.2 Q347.75 521.55 358.0 532.35 L357.9 532.65 356.9 537.5 Q356.15 542.7 353.5 547.45 340.45 532.15 325.7 537.7 L337.5 523.2 M462.1 523.2 L473.9 537.7 Q459.15 532.15 446.1 547.45 443.45 542.7 442.7 537.5 L441.7 532.65 441.6 532.35 Q451.85 521.55 462.1 523.2" fill="#000000" fill-rule="evenodd" stroke="none"/>
  </g>
</svg>
