<?xml version="1.0" encoding="UTF-8" standalone="no"?>
<svg xmlns:xlink="http://www.w3.org/1999/xlink" height="53.8px" width="103.0px" xmlns="http://www.w3.org/2000/svg">
  <g transform="matrix(1.0, 0.0, 0.0, 1.0, -348.3, -445.3)">
    <path d="M443.65 489.1 L446.15 488.35 444.7 498.05 Q441.95 499.95 436.75 498.45 L434.8 489.15 438.25 489.55 443.65 489.1 M420.8 456.3 Q419.1 452.25 418.8 448.0 436.25 449.5 450.7 445.3 451.85 451.4 450.8 458.25 L450.15 462.35 446.2 463.25 Q439.3 464.6 431.95 464.7 L425.6 464.5 421.3 457.35 420.8 456.3 M361.35 489.55 L364.8 489.15 362.85 498.45 Q357.65 499.95 354.9 498.05 L353.45 488.35 355.95 489.1 361.35 489.55 M348.8 458.25 Q347.75 451.4 348.9 445.3 363.35 449.5 380.8 448.0 380.5 452.25 378.8 456.3 L378.3 457.35 Q376.0 460.85 374.0 464.5 L367.65 464.7 Q360.3 464.6 353.4 463.25 L349.45 462.35 348.8 458.25" fill="#000000" fill-rule="evenodd" stroke="none"/>
  </g>
</svg>
