<?xml version="1.0" encoding="UTF-8" standalone="no"?>
<svg xmlns:xlink="http://www.w3.org/1999/xlink" height="42.1px" width="27.9px" xmlns="http://www.w3.org/2000/svg">
  <g transform="matrix(1.0, 0.0, 0.0, 1.0, -347.75, -458.6)">
    <path d="M348.85 466.6 L348.75 465.5 348.25 460.9 Q350.5 457.0 352.65 461.65 353.8 459.9 354.95 460.3 355.95 460.6 356.9 462.4 357.6 461.05 358.3 460.95 358.8 460.85 359.3 461.35 L360.25 462.95 361.0 462.1 Q362.55 460.7 363.55 463.2 L363.65 463.55 363.85 463.35 Q365.7 460.9 366.95 464.1 368.9 461.6 370.35 464.7 L370.95 464.8 Q373.5 462.75 374.85 465.35 L375.15 465.4 373.55 468.05 Q374.0 469.8 372.4 470.35 L372.35 470.55 Q370.65 477.65 366.2 490.65 L366.1 491.45 366.1 491.55 Q366.9 492.6 365.8 493.55 L365.0 498.9 Q363.95 501.0 362.9 498.8 361.7 501.25 360.8 498.7 359.55 501.8 358.25 498.55 357.0 501.95 355.7 498.4 355.35 499.8 354.95 500.0 354.45 500.25 353.95 498.3 353.1 501.7 352.25 498.2 L351.65 492.75 351.65 492.7 Q351.25 492.05 351.5 491.4 L351.5 491.35 Q349.5 479.45 348.9 467.55 L348.85 466.6" fill="none" stroke="#000000" stroke-linecap="round" stroke-linejoin="round" stroke-width="1.0"/>
    <path d="M348.85 466.6 L349.5 467.5 352.9 469.1 354.95 469.85 356.65 470.3 359.8 470.95 363.05 471.25 366.15 471.25 369.3 470.95 372.1 470.45 372.4 470.35 M348.75 465.5 L348.95 464.95 349.1 464.7 349.65 464.95 352.8 466.3 352.65 461.65 M352.8 466.3 L354.95 467.0 356.75 467.5 356.9 462.4 M360.25 462.95 L359.95 468.15 363.25 468.55 363.65 463.55 M356.75 467.5 L359.95 468.15 M351.5 491.35 L351.95 490.7 353.7 491.15 352.9 469.1 M353.7 491.15 L353.85 491.2 354.95 491.4 355.9 491.6 356.65 470.3 M353.95 498.3 L353.8 493.55 351.95 493.15 351.7 492.75 351.65 492.7 M355.7 498.4 L355.85 493.85 354.95 493.75 353.95 493.55 353.8 493.55 M360.8 498.7 L361.2 494.2 358.95 494.15 358.5 494.15 358.25 498.55 M355.9 491.6 L356.2 491.65 358.65 491.9 359.8 470.95 M358.65 491.9 L359.1 491.9 361.35 491.9 361.35 491.85 363.05 471.25 M358.5 494.15 L356.1 493.9 355.85 493.85 M362.9 498.8 L363.45 494.05 361.8 494.15 361.2 494.2 M361.35 491.9 L362.0 491.9 363.7 491.75 366.15 471.25 M365.8 493.55 L365.35 493.85 364.2 494.0 363.45 494.05 M366.95 464.1 L366.45 468.65 369.7 468.55 370.35 464.7 M369.7 468.55 L373.55 468.05 M369.3 470.95 L367.5 481.85 367.35 482.85 366.2 490.65 M363.7 491.75 L364.5 491.65 366.0 491.4 366.1 491.55 M363.25 468.55 L366.45 468.65" fill="none" stroke="#000000" stroke-linecap="round" stroke-linejoin="round" stroke-opacity="0.5019608" stroke-width="1.0"/>
  </g>
</svg>
