<?xml version="1.0" encoding="UTF-8" standalone="no"?>
<svg xmlns:xlink="http://www.w3.org/1999/xlink" height="80.9px" width="46.2px" xmlns="http://www.w3.org/2000/svg">
  <g transform="matrix(1.0, 0.0, 0.0, 1.0, -323.65, -504.45)">
    <path d="M342.0 562.6 Q341.0 565.45 339.25 568.05 L338.85 568.65 Q335.85 573.7 335.5 562.6 M332.5 562.6 L332.5 562.8 Q332.1 591.4 338.15 582.9 357.15 554.85 369.35 509.6 L367.1 504.95 Q366.05 507.8 365.05 509.5 L365.25 511.35 Q365.5 516.2 363.4 520.05 L361.3 523.7 360.9 524.55 Q359.05 528.45 357.9 532.65 L357.75 533.25 Q357.25 535.3 356.9 537.5 355.6 546.45 348.75 553.95 L341.55 560.0 328.5 560.0 324.35 553.2 328.15 562.6 332.5 562.6 M324.35 553.2 L324.15 552.65 324.25 553.05 324.35 553.2 M342.0 562.6 L335.5 562.6" fill="none" stroke="#000000" stroke-linecap="round" stroke-linejoin="round" stroke-width="1.0"/>
    <path d="M365.25 511.35 L365.85 518.5 363.65 523.7 361.3 523.7 362.25 526.8 359.05 536.6 Q358.95 547.05 350.8 555.85 L342.35 562.6 342.0 562.6 M335.5 562.6 L332.5 562.6" fill="none" stroke="#000000" stroke-linecap="round" stroke-linejoin="round" stroke-opacity="0.5019608" stroke-width="1.0"/>
  </g>
</svg>
