<?xml version="1.0" encoding="UTF-8" standalone="no"?>
<svg xmlns:xlink="http://www.w3.org/1999/xlink" height="117.3px" width="153.4px" xmlns="http://www.w3.org/2000/svg">
  <g transform="matrix(1.0, 0.0, 0.0, 1.0, -323.1, -445.3)">
    <path d="M428.1 475.0 Q421.25 463.15 417.75 451.25 L418.8 448.0 430.35 448.35 435.6 452.8 Q440.1 453.35 443.8 451.95 L446.0 446.5 450.7 445.3 452.7 447.4 Q452.2 472.65 445.85 499.2 L448.05 501.45 448.05 504.8 Q446.35 505.15 444.3 505.85 441.05 507.15 439.45 509.6 438.35 509.0 437.0 506.8 436.3 505.6 435.05 504.7 L434.65 502.95 435.7 500.7 Q433.4 486.25 428.1 475.0 M355.8 451.95 Q359.5 453.35 364.0 452.8 L369.25 448.35 380.8 448.0 381.85 451.25 Q378.35 463.15 371.5 475.0 366.2 486.25 363.9 500.7 L364.95 502.95 364.55 504.7 Q363.3 505.6 362.6 506.8 361.25 509.0 360.15 509.6 358.55 507.15 355.3 505.85 L351.55 504.8 351.55 501.45 353.75 499.2 Q347.4 472.65 346.9 447.4 L348.9 445.3 353.6 446.5 355.8 451.95 M365.05 509.5 L365.25 511.35 365.25 511.6 365.85 518.5 363.65 523.7 361.3 523.7 362.25 526.8 359.05 536.6 Q358.95 547.05 350.8 555.85 L342.35 562.6 328.15 562.6 324.35 553.2 324.25 553.05 Q321.4 545.0 325.7 537.7 L344.4 514.75 Q350.5 515.3 353.65 520.1 355.35 523.15 358.3 522.15 L360.5 525.45 360.9 524.55 361.3 523.7 362.05 522.35 361.35 519.4 361.55 518.55 Q361.85 517.1 361.6 515.1 363.4 514.55 363.9 510.35 364.05 509.4 364.35 508.6 L364.65 507.85 365.05 509.25 365.05 509.5 M473.9 537.7 Q478.2 545.0 475.35 553.05 L475.25 553.2 471.45 562.6 457.25 562.6 448.8 555.85 Q440.65 547.05 440.55 536.6 L437.35 526.8 438.3 523.7 435.95 523.7 433.75 518.5 434.35 511.6 434.35 511.35 434.55 509.5 434.55 509.25 434.95 507.85 435.25 508.6 435.7 510.35 Q436.2 514.55 438.0 515.1 437.75 517.1 438.05 518.55 L438.3 519.4 437.55 522.3 438.3 523.7 438.7 524.55 439.1 525.45 441.35 522.15 Q444.25 523.2 445.95 520.1 449.1 515.3 455.2 514.75 L473.9 537.7" fill="#000000" fill-rule="evenodd" stroke="none"/>
  </g>
</svg>
