<?xml version="1.0" encoding="UTF-8" standalone="no"?>
<svg xmlns:xlink="http://www.w3.org/1999/xlink" height="117.3px" width="153.4px" xmlns="http://www.w3.org/2000/svg">
  <g transform="matrix(1.0, 0.0, 0.0, 1.0, -323.1, -445.3)">
    <path d="M416.7 464.35 Q416.1 459.95 418.15 453.75 L418.8 448.0 Q436.25 449.5 450.7 445.3 451.3 448.4 451.3 451.7 449.1 452.8 446.75 453.6 L448.65 464.15 446.3 464.85 447.3 475.7 445.95 476.0 446.6 485.25 448.55 484.65 448.35 486.65 Q447.7 493.7 450.7 500.95 L448.05 505.9 473.9 537.7 Q477.4 543.7 476.15 550.2 L475.35 553.05 475.25 553.2 475.25 553.25 471.45 562.6 457.25 562.6 448.8 555.85 Q440.65 547.05 440.55 536.6 L437.35 526.8 438.3 523.75 438.3 523.7 435.95 523.7 433.75 518.5 434.35 511.35 434.55 509.5 434.55 509.25 435.45 506.15 432.15 502.5 Q431.6 494.5 429.65 486.6 L425.2 485.95 424.55 476.4 421.45 475.85 421.45 465.3 416.7 464.35 M444.15 491.45 Q444.15 492.0 444.55 492.4 444.95 492.8 445.5 492.8 446.05 492.8 446.45 492.4 446.85 492.0 446.85 491.45 446.85 490.9 446.45 490.5 446.05 490.1 445.5 490.1 444.95 490.1 444.55 490.5 444.15 490.9 444.15 491.45 M436.4 493.7 Q436.95 493.7 437.35 493.3 437.75 492.9 437.75 492.35 437.75 491.8 437.35 491.4 436.95 491.0 436.4 491.0 435.85 491.0 435.45 491.4 435.05 491.8 435.05 492.35 435.05 492.9 435.45 493.3 435.85 493.7 436.4 493.7 M447.5 477.8 L450.4 477.25 450.65 482.5 448.0 483.0 447.5 477.8 M448.4 466.2 L451.35 465.3 451.95 472.3 449.15 473.3 448.4 466.2 M448.65 454.55 L451.9 453.45 Q452.65 456.25 453.1 460.5 L449.85 461.45 448.65 454.55 M347.7 453.45 L350.95 454.55 349.75 461.45 346.5 460.5 Q346.95 456.25 347.7 453.45 M351.2 466.2 L350.45 473.3 347.65 472.3 348.25 465.3 351.2 466.2 M350.95 464.15 L352.85 453.6 Q350.5 452.8 348.3 451.7 348.3 448.4 348.9 445.3 363.35 449.5 380.8 448.0 L381.45 453.75 Q383.5 459.95 382.9 464.35 L378.15 465.3 378.15 475.85 375.05 476.4 374.4 485.95 369.95 486.6 Q367.95 494.5 367.45 502.5 L364.15 506.15 365.05 509.25 365.05 509.5 365.25 511.35 365.25 511.75 365.25 511.85 365.3 512.0 365.85 518.5 363.65 523.7 361.3 523.7 361.3 523.75 362.25 526.8 359.05 536.6 Q358.95 547.05 350.8 555.85 L342.35 562.6 328.15 562.6 324.35 553.2 324.25 553.05 323.45 550.2 Q322.2 543.7 325.7 537.7 L351.55 505.9 348.9 500.95 Q351.9 493.7 351.25 486.65 L351.1 484.65 353.0 485.25 353.65 476.0 352.3 475.7 353.3 464.85 350.95 464.15 M348.75 530.4 Q348.35 530.8 348.35 531.35 348.35 531.9 348.75 532.3 349.15 532.7 349.7 532.7 350.25 532.7 350.65 532.3 351.05 531.9 351.05 531.35 351.05 530.8 350.65 530.4 350.25 530.0 349.7 530.0 349.15 530.0 348.75 530.4 M353.35 524.5 Q352.95 524.1 352.4 524.1 351.85 524.1 351.45 524.5 351.05 524.9 351.05 525.45 351.05 526.0 351.45 526.4 351.85 526.8 352.4 526.8 352.95 526.8 353.35 526.4 353.75 526.0 353.75 525.45 353.75 524.9 353.35 524.5 M356.0 521.85 Q356.4 521.45 356.4 520.9 356.4 520.35 356.0 519.95 355.6 519.55 355.05 519.55 354.5 519.55 354.1 519.95 353.7 520.35 353.7 520.9 353.7 521.45 354.1 521.85 354.5 522.25 355.05 522.25 355.6 522.25 356.0 521.85 M335.4 529.85 Q335.8 530.25 336.35 530.25 336.9 530.25 337.3 529.85 337.7 529.45 337.7 528.9 337.7 528.35 337.3 527.95 336.9 527.55 336.35 527.55 335.8 527.55 335.4 527.95 335.0 528.35 335.0 528.9 335.0 529.45 335.4 529.85 M340.7 524.2 Q341.25 524.2 341.65 523.8 342.05 523.4 342.05 522.85 342.05 522.3 341.65 521.9 341.25 521.5 340.7 521.5 340.15 521.5 339.75 521.9 339.35 522.3 339.35 522.85 339.35 523.4 339.75 523.8 340.15 524.2 340.7 524.2 M355.9 516.85 Q355.9 517.4 356.3 517.8 356.7 518.2 357.25 518.2 357.8 518.2 358.2 517.8 358.6 517.4 358.6 516.85 358.6 516.3 358.2 515.9 357.8 515.5 357.25 515.5 356.7 515.5 356.3 515.9 355.9 516.3 355.9 516.85 M360.9 510.95 Q360.5 510.55 359.95 510.55 359.4 510.55 359.0 510.95 358.6 511.35 358.6 511.9 358.6 512.45 359.0 512.85 359.4 513.25 359.95 513.25 360.5 513.25 360.9 512.85 361.3 512.45 361.3 511.9 361.3 511.35 360.9 510.95 M345.65 517.9 Q345.65 517.35 345.25 516.95 344.85 516.55 344.3 516.55 343.75 516.55 343.35 516.95 342.95 517.35 342.95 517.9 342.95 518.45 343.35 518.85 343.75 519.25 344.3 519.25 344.85 519.25 345.25 518.85 345.65 518.45 345.65 517.9 M346.7 512.4 Q346.3 512.8 346.3 513.35 346.3 513.9 346.7 514.3 347.1 514.7 347.65 514.7 348.2 514.7 348.6 514.3 349.0 513.9 349.0 513.35 349.0 512.8 348.6 512.4 348.2 512.0 347.65 512.0 347.1 512.0 346.7 512.4 M349.45 510.65 Q349.85 511.05 350.4 511.05 350.95 511.05 351.35 510.65 351.75 510.25 351.75 509.7 351.75 509.15 351.35 508.75 350.95 508.35 350.4 508.35 349.85 508.35 349.45 508.75 349.05 509.15 349.05 509.7 349.05 510.25 349.45 510.65 M351.95 505.5 Q352.35 505.9 352.9 505.9 353.45 505.9 353.85 505.5 354.25 505.1 354.25 504.55 354.25 504.0 353.85 503.6 353.45 503.2 352.9 503.2 352.35 503.2 351.95 503.6 351.55 504.0 351.55 504.55 351.55 505.1 351.95 505.5 M361.0 505.4 Q360.6 505.8 360.6 506.35 360.6 506.9 361.0 507.3 361.4 507.7 361.95 507.7 362.5 507.7 362.9 507.3 363.3 506.9 363.3 506.35 363.3 505.8 362.9 505.4 362.5 505.0 361.95 505.0 361.4 505.0 361.0 505.4 M355.6 498.05 Q355.6 497.5 355.2 497.1 354.8 496.7 354.25 496.7 353.7 496.7 353.3 497.1 352.9 497.5 352.9 498.05 352.9 498.6 353.3 499.0 353.7 499.4 354.25 499.4 354.8 499.4 355.2 499.0 355.6 498.6 355.6 498.05 M362.8 497.4 Q362.25 497.4 361.85 497.8 361.45 498.2 361.45 498.75 361.45 499.3 361.85 499.7 362.25 500.1 362.8 500.1 363.35 500.1 363.75 499.7 364.15 499.3 364.15 498.75 364.15 498.2 363.75 497.8 363.35 497.4 362.8 497.4 M361.85 492.35 Q361.85 492.9 362.25 493.3 362.65 493.7 363.2 493.7 363.75 493.7 364.15 493.3 364.55 492.9 364.55 492.35 364.55 491.8 364.15 491.4 363.75 491.0 363.2 491.0 362.65 491.0 362.25 491.4 361.85 491.8 361.85 492.35 M353.15 492.4 Q353.55 492.8 354.1 492.8 354.65 492.8 355.05 492.4 355.45 492.0 355.45 491.45 355.45 490.9 355.05 490.5 354.65 490.1 354.1 490.1 353.55 490.1 353.15 490.5 352.75 490.9 352.75 491.45 352.75 492.0 353.15 492.4 M349.2 477.25 L352.1 477.8 351.6 483.0 348.95 482.5 349.2 477.25 M446.7 498.05 Q446.7 497.5 446.3 497.1 445.9 496.7 445.35 496.7 444.8 496.7 444.4 497.1 444.0 497.5 444.0 498.05 444.0 498.6 444.4 499.0 444.8 499.4 445.35 499.4 445.9 499.4 446.3 499.0 446.7 498.6 446.7 498.05 M445.75 503.6 Q445.35 504.0 445.35 504.55 445.35 505.1 445.75 505.5 446.15 505.9 446.7 505.9 447.25 505.9 447.65 505.5 448.05 505.1 448.05 504.55 448.05 504.0 447.65 503.6 447.25 503.2 446.7 503.2 446.15 503.2 445.75 503.6 M451.95 512.0 Q451.4 512.0 451.0 512.4 450.6 512.8 450.6 513.35 450.6 513.9 451.0 514.3 451.4 514.7 451.95 514.7 452.5 514.7 452.9 514.3 453.3 513.9 453.3 513.35 453.3 512.8 452.9 512.4 452.5 512.0 451.95 512.0 M450.55 509.7 Q450.55 509.15 450.15 508.75 449.75 508.35 449.2 508.35 448.65 508.35 448.25 508.75 447.85 509.15 447.85 509.7 447.85 510.25 448.25 510.65 448.65 511.05 449.2 511.05 449.75 511.05 450.15 510.65 450.55 510.25 450.55 509.7 M455.3 519.25 Q455.85 519.25 456.25 518.85 456.65 518.45 456.65 517.9 456.65 517.35 456.25 516.95 455.85 516.55 455.3 516.55 454.75 516.55 454.35 516.95 453.95 517.35 453.95 517.9 453.95 518.45 454.35 518.85 454.75 519.25 455.3 519.25 M457.95 521.9 Q457.55 522.3 457.55 522.85 457.55 523.4 457.95 523.8 458.35 524.2 458.9 524.2 459.45 524.2 459.85 523.8 460.25 523.4 460.25 522.85 460.25 522.3 459.85 521.9 459.45 521.5 458.9 521.5 458.35 521.5 457.95 521.9 M464.2 527.95 Q463.8 527.55 463.25 527.55 462.7 527.55 462.3 527.95 461.9 528.35 461.9 528.9 461.9 529.45 462.3 529.85 462.7 530.25 463.25 530.25 463.8 530.25 464.2 529.85 464.6 529.45 464.6 528.9 464.6 528.35 464.2 527.95 M445.85 525.45 Q445.85 526.0 446.25 526.4 446.65 526.8 447.2 526.8 447.75 526.8 448.15 526.4 448.55 526.0 448.55 525.45 448.55 524.9 448.15 524.5 447.75 524.1 447.2 524.1 446.65 524.1 446.25 524.5 445.85 524.9 445.85 525.45 M445.9 520.9 Q445.9 520.35 445.5 519.95 445.1 519.55 444.55 519.55 444.0 519.55 443.6 519.95 443.2 520.35 443.2 520.9 443.2 521.45 443.6 521.85 444.0 522.25 444.55 522.25 445.1 522.25 445.5 521.85 445.9 521.45 445.9 520.9 M448.55 531.35 Q448.55 531.9 448.95 532.3 449.35 532.7 449.9 532.7 450.45 532.7 450.85 532.3 451.25 531.9 451.25 531.35 451.25 530.8 450.85 530.4 450.45 530.0 449.9 530.0 449.35 530.0 448.95 530.4 448.55 530.8 448.55 531.35 M435.85 499.7 Q436.25 500.1 436.8 500.1 437.35 500.1 437.75 499.7 438.15 499.3 438.15 498.75 438.15 498.2 437.75 497.8 437.35 497.4 436.8 497.4 436.25 497.4 435.85 497.8 435.45 498.2 435.45 498.75 435.45 499.3 435.85 499.7 M436.7 505.4 Q436.3 505.8 436.3 506.35 436.3 506.9 436.7 507.3 437.1 507.7 437.65 507.7 438.2 507.7 438.6 507.3 439.0 506.9 439.0 506.35 439.0 505.8 438.6 505.4 438.2 505.0 437.65 505.0 437.1 505.0 436.7 505.4 M441.0 511.9 Q441.0 511.35 440.6 510.95 440.2 510.55 439.65 510.55 439.1 510.55 438.7 510.95 438.3 511.35 438.3 511.9 438.3 512.45 438.7 512.85 439.1 513.25 439.65 513.25 440.2 513.25 440.6 512.85 441.0 512.45 441.0 511.9 M443.3 515.9 Q442.9 515.5 442.35 515.5 441.8 515.5 441.4 515.9 441.0 516.3 441.0 516.85 441.0 517.4 441.4 517.8 441.8 518.2 442.35 518.2 442.9 518.2 443.3 517.8 443.7 517.4 443.7 516.85 443.7 516.3 443.3 515.9" fill="#000000" fill-rule="evenodd" stroke="none"/>
  </g>
</svg>
