<?xml version="1.0" encoding="UTF-8" standalone="no"?>
<svg xmlns:xlink="http://www.w3.org/1999/xlink" height="51.25px" width="150.9px" xmlns="http://www.w3.org/2000/svg">
  <g transform="matrix(1.0, 0.0, 0.0, 1.0, -324.35, -511.35)">
    <path d="M365.85 518.5 L363.65 523.7 361.35 523.7 Q362.25 521.8 363.4 520.05 365.3 516.55 365.3 512.2 L365.3 512.0 365.85 518.5 M360.9 524.55 L361.3 523.75 362.25 526.8 359.05 536.6 Q358.95 547.05 350.8 555.85 L342.35 562.6 328.15 562.6 324.35 553.2 328.5 560.0 341.55 560.0 348.75 553.95 Q355.6 546.45 356.9 537.5 L357.9 532.65 Q359.05 528.45 360.9 524.55 M434.35 512.2 Q434.3 516.55 436.2 520.05 L438.3 523.7 435.95 523.7 433.75 518.5 434.35 511.35 434.35 512.2 M438.3 523.75 L438.7 524.55 Q440.55 528.45 441.7 532.65 L442.7 537.5 Q444.0 546.45 450.85 553.95 L458.05 560.0 471.1 560.0 475.25 553.25 471.45 562.6 457.25 562.6 448.8 555.85 Q440.65 547.05 440.55 536.6 L437.35 526.8 438.3 523.75" fill="#000000" fill-rule="evenodd" stroke="none"/>
  </g>
</svg>
