<?xml version="1.0" encoding="UTF-8" standalone="no"?>
<svg xmlns:xlink="http://www.w3.org/1999/xlink" height="70.9px" width="48.6px" xmlns="http://www.w3.org/2000/svg">
  <g transform="matrix(1.0, 0.0, 0.0, 1.0, -375.55, -104.05)">
    <path d="M376.5 115.0 L377.75 113.4 Q385.8 103.95 399.85 104.05 413.9 103.95 421.95 113.4 L423.2 115.0 Q424.1 120.35 424.15 131.8 L424.15 132.1 424.15 132.4 423.9 137.7 Q423.55 141.0 422.8 144.25 L422.15 146.6 420.45 150.6 Q416.5 159.6 411.8 166.85 L405.75 174.95 393.95 174.95 Q390.8 171.25 387.9 166.85 383.2 159.6 379.25 150.6 L377.55 146.6 376.9 144.25 Q376.15 141.0 375.8 137.7 L375.55 132.4 375.55 132.1 375.55 131.8 Q375.6 120.35 376.5 115.0" fill="#000000" fill-rule="evenodd" stroke="none"/>
  </g>
</svg>
