<?xml version="1.0" encoding="UTF-8" standalone="no"?>
<svg xmlns:xlink="http://www.w3.org/1999/xlink" height="91.65px" width="90.05px" xmlns="http://www.w3.org/2000/svg">
  <g transform="matrix(1.0, 0.0, 0.0, 1.0, 45.0, 203.45)">
    <path d="M-22.3 -160.2 L-22.15 -160.4 -22.9 -158.4 -23.0 -158.45 -22.3 -160.2" fill="#996633" fill-rule="evenodd" stroke="none"/>
    <path d="M9.95 -130.55 Q9.9 -132.7 11.2 -134.55 12.15 -135.85 13.5 -136.55 L14.55 -137.05 15.6 -137.4 15.65 -137.4 16.65 -137.8 Q18.65 -138.5 20.35 -139.75 L21.3 -140.85 Q22.6 -142.9 23.55 -145.05 24.3 -147.15 24.3 -149.3 L24.0 -153.85 24.0 -154.1 23.55 -157.0 23.55 -157.15 23.05 -158.3 23.8 -158.6 Q25.1 -156.55 26.0 -154.3 L26.2 -153.85 27.45 -150.35 Q28.2 -148.1 27.75 -145.9 27.35 -143.45 26.5 -141.1 25.8 -138.95 24.75 -137.0 L23.55 -134.9 Q22.35 -133.1 20.75 -131.65 L18.15 -130.05 15.65 -129.05 15.35 -127.85 Q14.8 -126.4 13.3 -125.1 L12.35 -124.65 11.95 -124.6 11.25 -124.4 9.8 -124.15 9.75 -124.2 10.35 -125.0 11.3 -127.7 11.3 -129.15 9.95 -130.55 M-9.75 -124.2 L-11.2 -124.45 -12.3 -124.7 Q-12.85 -124.85 -13.25 -125.15 -14.75 -126.45 -15.25 -127.9 L-15.6 -129.15 -16.3 -129.4 -18.05 -130.1 Q-19.45 -130.75 -20.65 -131.75 -22.3 -133.15 -23.45 -134.9 L-24.7 -137.0 Q-25.75 -139.0 -26.45 -141.1 L-27.7 -145.95 Q-28.15 -148.2 -27.35 -150.4 L-26.05 -153.9 -26.0 -153.9 -25.8 -154.35 Q-24.95 -156.65 -23.6 -158.65 L-22.3 -160.2 -23.0 -158.45 -22.9 -158.4 -23.35 -157.2 -23.4 -157.1 -23.8 -154.15 -23.85 -153.9 -23.9 -153.9 -24.25 -149.35 Q-24.25 -147.15 -23.45 -145.15 -22.55 -142.9 -21.25 -140.9 L-20.3 -139.8 Q-18.6 -138.5 -16.55 -137.85 L-15.8 -137.5 -15.55 -137.45 -14.5 -137.05 -13.45 -136.6 -12.15 -135.7 -11.35 -134.9 -11.1 -134.6 Q-9.8 -132.8 -9.9 -130.65 L-11.25 -129.2 -11.25 -127.75 -10.25 -125.05 -9.7 -124.25 -9.75 -124.2 M2.8 -124.6 L4.6 -124.0 6.75 -122.4 5.35 -122.1 -5.25 -122.2 -6.65 -122.45 -4.55 -124.05 -2.75 -124.65 0.05 -124.9 2.8 -124.6" fill="#ffffcc" fill-rule="evenodd" stroke="none"/>
    <path d="M-15.85 -148.95 L-16.0 -148.95 -16.0 -149.35 -15.85 -148.95" fill="#83572c" fill-rule="evenodd" stroke="none"/>
    <path d="M21.5 -186.0 L20.75 -186.0 20.0 -185.25 17.8 -188.5 21.1 -188.5 20.35 -189.6 23.35 -190.0 27.6 -191.8 Q27.7 -191.15 26.0 -190.15 L23.35 -188.7 Q22.4 -188.05 22.05 -187.4 L21.5 -186.25 21.5 -186.0 M37.25 -200.85 L36.35 -202.5 38.95 -203.45 45.05 -203.45 39.6 -202.15 37.25 -200.85 M20.35 -181.15 L20.35 -180.15 20.2 -176.65 20.0 -176.7 Q19.0 -175.75 16.0 -174.05 13.6 -172.35 12.15 -169.75 L11.75 -170.0 11.75 -170.65 12.35 -172.9 13.3 -175.5 13.95 -176.8 16.65 -182.95 16.65 -184.9 Q16.65 -185.9 15.8 -187.4 L15.75 -187.45 Q14.9 -188.95 14.8 -189.5 L16.4 -188.1 16.5 -187.95 16.55 -187.85 Q17.7 -186.15 18.8 -185.3 L19.35 -184.65 19.7 -184.2 20.2 -183.0 20.35 -181.15 M10.9 -192.4 L11.25 -193.7 11.25 -193.75 11.3 -193.35 11.1 -192.3 11.0 -191.85 10.55 -189.6 Q10.55 -189.2 9.15 -186.2 8.05 -183.85 6.0 -183.0 L6.15 -184.6 6.1 -185.35 5.85 -185.3 Q4.3 -184.0 3.65 -182.45 L3.3 -181.4 Q3.1 -180.55 2.25 -179.4 L2.15 -179.45 3.25 -182.55 3.25 -182.65 4.4 -185.15 6.9 -190.75 7.3 -191.8 7.2 -189.4 7.1 -187.45 7.15 -187.5 8.4 -189.9 8.4 -190.0 9.1 -191.65 9.15 -191.75 9.35 -192.1 9.35 -191.65 8.95 -189.7 8.85 -189.15 8.0 -186.65 9.7 -190.0 10.8 -192.4 10.9 -192.4 M7.45 -185.5 L8.0 -186.65 7.4 -185.5 7.45 -185.5 M14.45 -164.05 L17.6 -166.65 17.8 -166.85 19.55 -168.05 21.95 -169.75 22.7 -170.35 22.55 -170.0 22.15 -169.45 21.45 -168.4 Q20.65 -167.35 19.65 -166.65 L19.05 -166.3 18.35 -165.85 Q16.7 -164.95 16.4 -163.15 L16.3 -162.85 16.0 -161.85 15.8 -161.05 15.55 -158.6 15.45 -157.75 14.75 -156.45 14.25 -155.9 13.7 -155.6 13.5 -155.4 Q13.3 -154.95 13.6 -154.7 13.9 -154.3 14.45 -154.15 L16.0 -153.9 Q17.8 -153.75 19.05 -155.0 L19.15 -155.05 19.15 -154.35 18.7 -153.9 18.65 -153.85 Q18.25 -153.6 17.85 -153.45 16.55 -152.8 15.15 -152.95 L14.15 -153.2 12.4 -153.85 11.3 -154.35 10.25 -155.0 Q9.3 -155.65 8.7 -156.7 L8.9 -157.0 Q13.8 -154.9 14.1 -160.45 14.15 -161.75 13.2 -162.85 L14.45 -164.05 M-16.0 -149.35 Q-10.85 -151.65 -8.95 -153.9 L-8.9 -153.9 -8.7 -154.1 -8.65 -154.15 -8.6 -154.25 -8.5 -154.3 -7.85 -155.0 -7.65 -155.15 -7.65 -155.2 -7.45 -155.35 -7.45 -155.4 -7.3 -155.7 -7.3 -155.85 -6.75 -156.45 -6.65 -156.65 -6.0 -157.1 -6.1 -157.5 -5.6 -157.85 -5.45 -158.05 -5.2 -158.5 -3.85 -158.7 Q-3.3 -158.95 -3.0 -159.35 L-2.9 -159.5 Q-2.6 -160.1 -2.6 -161.2 L-2.65 -161.95 -2.6 -162.05 -2.6 -161.95 -2.55 -161.2 -2.4 -159.5 -2.35 -159.25 -2.2 -159.25 Q-1.45 -159.25 -0.85 -160.6 L-0.6 -161.2 -0.3 -162.4 -0.6 -162.95 -0.25 -163.05 -0.25 -162.3 -0.2 -161.2 0.3 -161.1 0.3 -161.2 0.3 -162.2 0.3 -162.65 Q0.3 -161.9 0.65 -161.2 L0.9 -160.55 1.05 -160.2 Q1.6 -159.15 2.25 -159.15 L2.4 -159.15 2.45 -159.45 2.45 -160.15 2.6 -161.1 2.65 -161.9 2.75 -161.9 2.65 -161.1 Q2.65 -160.0 3.0 -159.45 L3.05 -159.3 Q3.4 -158.9 3.9 -158.7 L5.25 -158.45 5.4 -158.4 5.5 -158.0 5.65 -157.8 6.15 -157.4 6.05 -157.0 6.7 -156.65 7.4 -155.65 7.6 -155.35 7.65 -155.25 7.8 -155.15 7.85 -155.05 8.05 -154.95 8.7 -154.25 8.9 -154.05 9.05 -153.85 9.4 -153.45 Q11.35 -151.35 16.0 -149.3 L15.85 -148.9 Q13.45 -148.65 9.9 -151.65 L8.6 -152.55 7.2 -150.65 7.35 -150.15 Q7.75 -149.2 9.05 -147.85 L10.8 -146.15 10.65 -146.05 Q9.75 -146.6 8.7 -147.55 L8.1 -148.0 7.0 -149.1 6.3 -148.7 6.1 -148.75 6.55 -149.55 6.7 -149.8 7.0 -150.7 7.2 -151.45 7.0 -153.5 7.0 -153.6 6.95 -153.7 6.7 -154.3 6.65 -154.35 Q6.1 -154.95 5.15 -154.8 L3.95 -154.7 3.3 -154.4 2.8 -154.3 2.6 -154.15 2.45 -154.5 Q3.4 -156.1 3.3 -156.75 L3.3 -157.2 3.0 -157.3 2.65 -157.65 2.45 -158.15 1.75 -158.2 1.6 -158.25 1.5 -157.95 1.5 -156.65 0.9 -154.75 0.6 -154.1 0.5 -153.9 0.4 -153.1 -0.3 -153.2 -0.4 -153.85 -0.5 -154.1 -0.85 -154.75 Q-1.3 -155.65 -1.45 -156.7 L-1.45 -158.0 -1.55 -158.25 -1.7 -158.25 -2.4 -158.2 -2.6 -157.75 -2.9 -157.35 Q-3.05 -157.2 -3.25 -157.2 L-3.25 -156.75 Q-3.3 -156.2 -2.4 -154.55 L-2.55 -154.25 -2.75 -154.3 -3.9 -154.75 -5.05 -154.8 Q-6.05 -155.0 -6.55 -154.4 L-6.65 -154.3 -6.9 -153.75 -6.95 -153.6 -6.95 -153.5 -7.15 -151.5 -6.95 -150.8 -6.65 -149.85 -6.55 -149.85 -6.5 -149.6 -6.1 -148.85 -6.05 -148.75 -6.25 -148.75 -6.95 -149.15 -8.05 -148.05 -8.65 -147.55 -10.6 -146.1 -10.7 -146.25 -8.95 -147.9 -8.5 -148.45 -7.3 -150.15 -7.15 -150.7 -8.5 -152.6 -9.8 -151.7 Q-13.4 -148.65 -15.8 -148.95 L-15.85 -148.95 -16.0 -149.35 M2.4 -149.75 L3.9 -150.4 4.85 -149.75 5.2 -149.15 5.2 -149.1 5.25 -148.65 5.25 -148.55 5.25 -148.45 5.0 -147.1 Q5.0 -146.45 5.7 -145.6 6.45 -144.75 7.3 -144.3 L7.2 -144.15 Q5.8 -143.95 5.0 -144.6 L4.85 -144.65 4.55 -145.15 3.55 -147.55 3.5 -147.75 Q3.2 -148.65 2.65 -148.65 L1.75 -148.4 1.15 -148.55 0.5 -149.15 Q1.25 -149.15 2.4 -149.75 M9.95 -130.55 L11.3 -129.15 11.3 -127.7 10.35 -125.0 9.75 -124.2 9.8 -124.15 8.85 -121.9 6.45 -121.45 5.7 -120.6 Q5.4 -120.35 4.7 -120.3 L4.6 -120.3 4.5 -120.3 3.05 -120.5 2.85 -120.55 2.6 -120.55 0.95 -120.75 0.9 -120.75 0.05 -120.75 -0.85 -120.8 -0.9 -120.75 -2.65 -120.6 -2.8 -120.55 -3.0 -120.55 -4.4 -120.35 -4.55 -120.35 -4.6 -120.35 -5.65 -120.7 -6.35 -121.55 -8.75 -122.0 -9.75 -124.2 -9.7 -124.25 -10.25 -125.05 -11.25 -127.75 -11.25 -129.2 -9.9 -130.65 -7.3 -133.45 -5.4 -137.45 -5.05 -139.75 -5.05 -141.55 -3.45 -143.35 -2.15 -143.95 -0.2 -143.1 0.4 -143.1 2.2 -143.9 3.5 -143.35 3.5 -143.3 5.15 -141.5 5.15 -139.65 5.45 -137.4 7.35 -133.35 9.95 -130.55 M36.2 -144.5 Q35.8 -144.65 35.7 -144.95 L35.7 -144.75 35.8 -143.75 36.35 -141.05 36.15 -139.65 36.15 -139.55 Q35.75 -140.3 35.75 -140.75 L35.55 -140.75 34.45 -137.5 34.3 -137.25 Q33.6 -135.85 32.3 -134.9 L32.3 -135.1 33.8 -137.85 34.6 -140.2 34.6 -142.0 35.3 -141.55 34.45 -146.15 35.15 -145.9 32.15 -151.55 35.15 -147.8 37.2 -144.0 Q36.6 -144.2 36.2 -144.5 M2.55 -135.9 L2.55 -136.35 2.4 -136.15 2.35 -135.95 Q1.7 -134.25 1.7 -133.25 1.7 -130.35 3.5 -128.15 L5.15 -126.8 5.25 -126.95 5.5 -128.05 Q5.5 -130.0 4.4 -132.05 L2.55 -135.9 M14.25 -138.9 Q13.3 -138.9 12.55 -138.15 L11.9 -137.5 Q10.85 -136.15 10.0 -136.15 9.5 -136.15 9.35 -136.6 L9.3 -137.0 9.35 -137.2 9.4 -137.35 9.7 -137.7 10.25 -138.5 9.25 -139.35 11.85 -139.3 11.95 -139.15 11.95 -139.2 Q12.65 -140.2 13.6 -140.2 15.1 -140.2 15.4 -138.7 L14.25 -138.9 M2.8 -124.6 L0.05 -124.9 -2.75 -124.65 -4.55 -124.05 -6.65 -122.45 -5.25 -122.2 5.35 -122.1 6.75 -122.4 4.6 -124.0 2.8 -124.6 M1.9 -118.65 L1.55 -118.4 1.3 -118.15 0.7 -117.05 0.4 -116.25 -0.3 -116.25 -0.65 -117.05 -1.25 -118.15 -1.8 -118.65 -2.45 -119.05 -2.9 -119.15 -2.85 -119.2 -2.8 -119.25 -2.25 -119.6 -0.85 -119.85 0.9 -119.8 2.35 -119.5 2.85 -119.2 2.9 -119.2 2.9 -119.05 2.55 -119.0 1.9 -118.65 M3.4 -115.05 L3.1 -114.2 2.85 -113.65 Q4.15 -114.2 5.5 -115.1 L5.65 -115.25 7.4 -116.8 6.75 -115.55 6.1 -114.85 6.05 -114.7 Q4.55 -113.2 2.25 -112.15 L2.1 -112.15 2.1 -112.9 1.05 -111.8 1.35 -113.6 1.9 -114.4 2.0 -114.45 Q2.35 -114.85 2.9 -115.05 L3.4 -115.05 M2.6 -113.55 L2.6 -113.45 2.85 -113.65 2.6 -113.55 M-21.45 -186.1 L-21.45 -186.35 -21.95 -187.4 -23.25 -188.75 -25.95 -190.25 Q-27.6 -191.2 -27.55 -191.85 L-23.25 -190.05 -20.3 -189.65 -21.05 -188.5 -17.75 -188.5 -19.95 -185.25 -20.65 -186.1 -21.45 -186.1 M-37.2 -200.9 L-39.5 -202.15 -45.0 -203.45 -38.85 -203.45 -36.25 -202.6 -37.2 -200.9 M-7.4 -185.5 L-7.35 -185.5 -7.95 -186.65 -7.4 -185.5 M-15.65 -187.45 L-15.75 -187.45 Q-16.55 -185.95 -16.55 -184.9 L-16.55 -183.0 Q-16.4 -182.2 -13.9 -176.85 L-13.25 -175.5 -12.3 -172.95 -11.7 -170.75 -11.7 -170.1 -12.1 -169.85 Q-13.5 -172.45 -15.9 -174.05 L-19.95 -176.7 -20.15 -176.7 -20.3 -180.15 -20.3 -181.2 -20.15 -183.0 -19.65 -184.2 -19.3 -184.7 -18.7 -185.35 Q-17.6 -186.2 -16.5 -187.85 L-16.45 -188.05 -16.3 -188.15 -14.75 -189.6 Q-14.8 -189.0 -15.65 -187.45 M-7.15 -189.4 L-7.15 -189.7 -7.2 -191.85 -6.45 -189.8 -5.5 -187.75 -4.35 -185.25 -3.25 -182.7 -2.1 -179.5 -2.2 -179.45 -3.25 -181.45 -3.65 -182.55 Q-4.35 -184.2 -6.05 -185.6 L-6.1 -184.65 -5.9 -183.1 Q-8.0 -183.95 -9.1 -186.25 L-10.45 -189.6 -10.9 -191.95 -11.25 -193.4 -11.2 -193.8 -11.2 -193.75 -10.8 -192.4 -10.7 -192.45 -10.6 -192.1 -8.05 -186.9 -7.95 -186.65 -8.0 -186.9 -8.75 -189.2 -8.9 -189.8 -9.3 -191.75 -9.3 -192.2 -8.3 -189.9 -8.05 -189.45 -7.85 -189.05 -7.1 -187.55 -7.0 -187.45 -7.15 -189.4 M-20.95 -169.1 L-17.7 -166.95 -17.4 -166.7 -17.5 -166.7 -16.85 -166.25 -14.3 -164.1 -13.0 -162.95 -13.05 -162.85 Q-13.95 -161.75 -13.9 -160.55 -13.65 -155.0 -8.9 -157.0 L-8.85 -157.0 -8.75 -157.1 -8.5 -156.75 Q-9.1 -155.7 -10.15 -155.05 L-11.2 -154.4 -12.2 -153.9 -12.35 -153.9 Q-14.45 -152.95 -15.9 -152.95 L-17.8 -153.45 -17.85 -153.5 -18.65 -153.9 -18.5 -153.9 -18.6 -153.95 -19.0 -154.4 -19.05 -155.05 -19.05 -155.15 -18.85 -155.05 Q-18.0 -154.15 -16.85 -153.95 L-16.1 -153.9 -15.85 -153.95 -14.25 -154.25 -13.45 -154.75 Q-13.15 -155.0 -13.4 -155.45 L-13.6 -155.65 -14.05 -156.0 -14.55 -156.5 -15.25 -157.8 -15.35 -158.65 -15.6 -161.0 -15.6 -161.1 -15.6 -161.2 -15.8 -161.9 -16.1 -162.95 -16.2 -163.2 Q-16.55 -165.0 -18.15 -165.95 L-18.9 -166.4 -19.45 -166.7 -19.55 -166.7 -21.4 -168.45 Q-22.4 -169.75 -22.6 -170.4 L-20.95 -169.1 M-9.3 -136.7 Q-9.4 -136.2 -9.95 -136.2 L-10.35 -136.3 Q-10.7 -136.4 -11.2 -136.85 L-11.85 -137.6 -12.4 -138.25 Q-13.25 -138.95 -14.15 -138.95 L-15.35 -138.75 Q-15.0 -140.25 -13.5 -140.25 -12.6 -140.25 -11.9 -139.2 L-11.85 -139.2 -11.75 -139.3 -9.25 -139.45 -9.15 -139.4 Q-9.9 -138.55 -10.2 -138.55 L-9.6 -137.8 -9.55 -137.65 -9.5 -137.6 -9.35 -137.4 -9.25 -137.05 -9.3 -136.7 M-5.2 -148.55 L-5.2 -148.65 -5.2 -148.75 -5.05 -149.15 -5.05 -149.2 -4.8 -149.75 Q-4.35 -150.4 -3.85 -150.4 -3.55 -150.4 -2.35 -149.8 -1.15 -149.2 -0.45 -149.2 L-1.1 -148.65 -1.7 -148.45 -2.6 -148.7 Q-3.2 -148.7 -3.5 -147.6 L-4.5 -145.15 -4.8 -144.75 -4.95 -144.6 Q-5.7 -144.0 -7.15 -144.2 L-7.2 -144.35 Q-6.35 -144.8 -5.65 -145.65 -4.95 -146.45 -4.95 -147.15 L-5.2 -148.55 M-2.25 -135.95 L-2.35 -136.2 -2.4 -136.4 -2.45 -135.95 -4.35 -132.05 Q-5.45 -130.0 -5.45 -128.1 L-5.2 -127.0 -5.05 -126.85 -3.45 -128.25 Q-1.6 -130.35 -1.6 -133.3 -1.6 -134.35 -2.25 -135.95 M-34.4 -146.25 L-35.25 -141.55 -34.5 -142.0 -34.5 -140.25 -33.75 -137.9 -32.25 -135.1 -32.25 -135.0 Q-33.55 -135.9 -34.25 -137.35 L-34.4 -137.6 -35.5 -140.85 -35.7 -140.85 Q-35.7 -140.4 -36.05 -139.6 L-36.05 -139.65 -36.2 -140.5 -36.25 -141.1 -35.7 -143.85 -35.6 -144.75 -35.6 -145.0 -36.15 -144.5 -37.1 -144.1 -37.0 -144.4 -35.1 -147.8 Q-32.35 -151.05 -31.9 -151.8 L-35.1 -145.9 -34.4 -146.25 M-5.9 -114.7 L-6.0 -114.75 -6.7 -115.6 -7.35 -116.8 -6.45 -115.9 -5.6 -115.25 -5.45 -115.15 Q-4.1 -114.25 -2.8 -113.65 -2.65 -113.55 -2.55 -113.55 L-2.55 -113.6 -2.8 -113.65 -3.05 -114.25 -3.3 -115.05 -2.85 -115.05 -1.9 -114.5 -1.8 -114.4 -1.3 -113.6 -0.95 -111.85 -2.0 -112.95 -2.0 -112.15 -2.2 -112.15 -3.95 -113.15 Q-5.05 -113.85 -5.9 -114.7" fill="#000000" fill-opacity="0.2509804" fill-rule="evenodd" stroke="none"/>
    <path d="M39.6 -202.15 L37.25 -198.95 35.4 -194.2 32.35 -189.0 28.55 -186.6 23.65 -186.0 21.5 -186.0 21.5 -186.25 22.05 -187.4 Q22.4 -188.05 23.35 -188.7 L26.0 -190.15 Q27.7 -191.15 27.6 -191.8 L27.75 -191.85 30.35 -193.55 29.1 -193.55 30.75 -195.85 34.45 -199.35 37.25 -200.85 39.6 -202.15 M2.55 -135.9 L4.4 -132.05 Q5.5 -130.0 5.5 -128.05 L5.25 -126.95 5.15 -126.8 3.5 -128.15 Q1.7 -130.35 1.7 -133.25 1.7 -134.25 2.35 -135.95 L2.55 -135.9 M-21.45 -186.1 L-23.6 -186.1 -28.45 -186.65 -32.3 -189.05 -35.35 -194.25 -37.2 -199.0 -39.5 -202.15 -37.2 -200.9 -34.4 -199.4 -30.7 -195.9 -29.05 -193.6 -30.3 -193.6 -27.55 -191.85 Q-27.6 -191.2 -25.95 -190.25 L-23.25 -188.75 -21.95 -187.4 -21.45 -186.35 -21.45 -186.1 M-2.45 -135.95 L-2.25 -135.95 Q-1.6 -134.35 -1.6 -133.3 -1.6 -130.35 -3.45 -128.25 L-5.05 -126.85 -5.2 -127.0 -5.45 -128.1 Q-5.45 -130.0 -4.35 -132.05 L-2.45 -135.95" fill="#000000" fill-opacity="0.49803922" fill-rule="evenodd" stroke="none"/>
  </g>
</svg>
