<?xml version="1.0" encoding="UTF-8" standalone="no"?>
<svg xmlns:xlink="http://www.w3.org/1999/xlink" height="70.45px" width="49.25px" xmlns="http://www.w3.org/2000/svg">
  <g transform="matrix(1.0, 0.0, 0.0, 1.0, -374.6, -103.65)">
    <path d="M377.4 115.7 L377.45 113.8 377.7 113.5 Q385.8 104.05 399.75 104.15 M422.15 115.7 L423.35 138.0 M422.5 160.8 Q419.0 167.4 413.4 173.6 L399.75 173.6 M377.0 160.8 L375.1 156.85 376.15 138.0" fill="none" stroke="#000000" stroke-linecap="round" stroke-linejoin="round" stroke-width="1.0"/>
    <path d="M399.75 104.15 L399.75 138.0 399.8 138.0 422.15 115.7 M423.35 138.0 L399.8 138.0 399.75 138.05 422.5 160.8 M399.75 173.6 L399.75 138.05 377.0 160.8 M376.15 138.0 L399.7 138.0 377.4 115.7 M399.75 138.0 L399.75 138.05 399.7 138.0 399.75 138.0" fill="none" stroke="#000000" stroke-linecap="round" stroke-linejoin="round" stroke-opacity="0.5019608" stroke-width="1.0"/>
  </g>
</svg>
