<?xml version="1.0" encoding="UTF-8" standalone="no"?>
<svg xmlns:xlink="http://www.w3.org/1999/xlink" height="42.7px" width="60.0px" xmlns="http://www.w3.org/2000/svg">
  <g transform="matrix(1.0, 0.0, 0.0, 1.0, -369.85, -106.8)">
    <path d="M377.0 144.9 L397.35 149.0 397.35 137.55 398.6 134.5 Q397.1 128.3 388.9 126.35 381.1 122.75 376.3 116.4 M422.7 144.9 L402.4 149.0 402.4 137.55 401.2 134.5 Q402.7 128.3 410.85 126.35 418.6 122.75 423.4 116.5" fill="none" stroke="#000000" stroke-linecap="round" stroke-linejoin="round" stroke-opacity="0.5019608" stroke-width="1.0"/>
    <path d="M376.3 116.4 Q373.25 112.4 371.35 107.3 367.85 125.15 376.55 142.95 L376.6 143.05 377.0 144.9 M423.4 116.5 Q426.45 112.45 428.35 107.3 431.85 125.2 423.1 143.05 L422.7 144.9" fill="none" stroke="#000000" stroke-linecap="round" stroke-linejoin="round" stroke-width="1.0"/>
  </g>
</svg>
