<?xml version="1.0" encoding="UTF-8" standalone="no"?>
<svg xmlns:xlink="http://www.w3.org/1999/xlink" height="67.7px" width="48.7px" xmlns="http://www.w3.org/2000/svg">
  <g transform="matrix(1.0, 0.0, 0.0, 1.0, -375.5, -104.15)">
    <path d="M377.7 113.5 Q385.85 104.05 399.9 104.15 413.9 104.05 422.0 113.5 L423.2 115.1 Q424.1 120.45 424.2 131.9 L424.2 132.2 424.2 132.5 423.95 137.8 422.8 144.35 422.15 146.7 420.05 158.65 407.55 171.1 399.9 171.85 392.2 171.1 379.65 158.65 377.5 146.7 376.85 144.35 Q376.1 141.1 375.75 137.8 L375.5 132.5 375.5 132.2 375.5 131.9 375.55 129.95 375.75 122.35 Q376.05 117.9 376.5 115.2 L376.5 115.1 377.7 113.5 M384.85 146.5 L384.85 158.0 393.75 165.1 395.55 163.35 404.25 163.35 406.0 165.1 414.85 158.0 414.85 146.5 418.75 141.4 Q422.65 130.25 418.75 121.15 L409.75 119.95 405.55 125.2 394.25 125.2 390.0 119.95 380.95 121.15 Q377.05 130.25 380.95 141.4 L384.85 146.5" fill="#000000" fill-rule="evenodd" stroke="none"/>
  </g>
</svg>
