<?xml version="1.0" encoding="UTF-8" standalone="no"?>
<svg xmlns:xlink="http://www.w3.org/1999/xlink" height="67.7px" width="47.4px" xmlns="http://www.w3.org/2000/svg">
  <g transform="matrix(1.0, 0.0, 0.0, 1.0, -376.4, -104.25)">
    <path d="M377.5 143.85 L377.35 143.0 376.95 141.2 376.4 138.0 399.7 138.0 377.8 116.1 Q383.0 105.0 399.75 104.25 L399.75 138.0 399.7 138.0 399.75 138.05 418.45 156.8 418.2 157.65 413.15 162.55 Q408.6 166.85 402.35 171.3 L399.75 171.95 399.75 138.05 381.1 156.8 377.5 143.9 377.5 143.85 M422.7 118.65 Q424.6 127.35 423.15 137.55 L423.1 138.0 399.8 138.0 421.7 116.1 422.7 118.65" fill="#000000" fill-rule="evenodd" stroke="none"/>
  </g>
</svg>
