<?xml version="1.0" encoding="UTF-8" standalone="no"?>
<svg xmlns:xlink="http://www.w3.org/1999/xlink" height="13.2px" width="32.4px" xmlns="http://www.w3.org/2000/svg">
  <g transform="matrix(1.0, 0.0, 0.0, 1.0, -383.7, -189.6)">
    <path d="M383.7 190.95 Q383.65 189.95 384.8 189.8 L399.9 190.45 415.0 189.8 Q416.15 189.95 416.1 190.95 L415.7 198.7 Q415.6 199.4 414.5 199.9 411.1 201.4 404.5 202.75 403.75 203.0 403.2 202.0 L400.65 197.35 Q400.25 196.8 399.9 196.8 399.5 196.75 399.15 197.35 L396.6 202.0 Q396.05 203.0 395.3 202.75 388.7 201.4 385.3 199.9 384.2 199.4 384.1 198.7 L383.7 190.95" fill="#000000" fill-rule="evenodd" stroke="none"/>
  </g>
</svg>
