<?xml version="1.0" encoding="UTF-8" standalone="no"?>
<svg xmlns:xlink="http://www.w3.org/1999/xlink" height="11.65px" width="33.05px" xmlns="http://www.w3.org/2000/svg">
  <g transform="matrix(1.0, 0.0, 0.0, 1.0, -383.1, -188.4)">
    <path d="M384.35 197.15 Q399.8 198.75 415.2 197.1 L415.2 198.9 Q399.7 201.25 384.2 198.9 L384.2 197.1 384.35 197.15 M384.2 193.5 Q399.75 192.1 415.3 193.55 L415.3 195.4 Q399.75 196.75 384.2 195.45 L383.55 195.4 383.55 193.55 384.2 193.5 M383.1 191.85 L383.1 189.9 384.2 189.7 Q399.75 187.1 415.3 189.75 L416.15 189.9 416.15 191.85 415.3 191.75 415.1 191.7 Q399.65 189.7 384.2 191.7 L383.1 191.85" fill="#000000" fill-rule="evenodd" stroke="none"/>
  </g>
</svg>
