<?xml version="1.0" encoding="UTF-8" standalone="no"?>
<svg xmlns:xlink="http://www.w3.org/1999/xlink" height="26.6px" width="38.6px" xmlns="http://www.w3.org/2000/svg">
  <g transform="matrix(1.0, 0.0, 0.0, 1.0, -380.6, -198.1)">
    <path d="M416.9 202.7 Q415.95 202.7 415.3 202.0 414.6 201.35 414.6 200.4 414.6 199.45 415.3 198.75 L415.5 198.6 Q416.1 198.1 416.9 198.1 417.85 198.1 418.55 198.75 419.2 199.45 419.2 200.4 419.2 201.35 418.55 202.0 L418.25 202.25 Q417.65 202.7 416.9 202.7 M417.2 204.75 L415.55 214.65 Q415.15 212.85 414.05 212.5 L412.1 212.7 412.5 209.95 412.55 209.5 Q412.9 206.6 413.2 205.05 L413.25 203.65 Q414.0 204.65 415.2 204.85 L417.2 204.75 M405.5 223.65 Q404.4 224.25 402.85 224.55 L399.9 224.7 Q396.3 224.8 394.3 223.65 L392.1 221.65 Q399.1 215.35 407.85 221.55 L405.5 223.65 M386.55 203.8 L386.65 205.05 387.3 209.5 387.35 209.95 387.7 212.7 385.7 212.55 Q384.55 212.9 384.35 214.75 L384.25 214.65 382.65 204.75 Q383.8 204.95 384.75 204.75 385.75 204.5 386.55 203.8 M382.9 202.7 Q382.15 202.7 381.55 202.25 L381.25 202.0 Q380.6 201.35 380.6 200.4 380.6 199.45 381.25 198.75 381.95 198.1 382.9 198.1 383.7 198.1 384.3 198.6 L384.5 198.75 Q385.2 199.45 385.2 200.4 385.2 201.35 384.5 202.0 383.85 202.7 382.9 202.7" fill="#000000" fill-rule="evenodd" stroke="none"/>
  </g>
</svg>
