<?xml version="1.0" encoding="UTF-8" standalone="no"?>
<svg xmlns:xlink="http://www.w3.org/1999/xlink" height="33.8px" width="51.05px" xmlns="http://www.w3.org/2000/svg">
  <g transform="matrix(1.0, 0.0, 0.0, 1.0, -374.75, -166.8)">
    <path d="M394.1 167.9 Q379.05 169.75 376.5 188.6 L376.65 189.35 Q377.0 190.65 377.0 192.5 L377.0 192.7 377.6 192.7 377.6 191.55 Q377.6 190.4 378.15 189.6 380.3 195.1 378.2 200.6 377.6 199.8 377.6 198.6 L377.6 196.95 374.75 196.95 374.75 192.7 375.0 192.7 375.0 192.5 Q375.0 190.65 375.25 189.35 L375.4 188.7 375.45 188.2 375.55 187.7 Q378.4 168.85 393.85 166.9 L393.8 167.15 393.8 167.2 Q393.8 167.6 394.1 167.85 L394.15 167.9 394.1 167.9 M406.0 167.2 L406.0 167.15 405.95 166.8 Q422.25 168.4 425.1 188.1 L425.1 188.2 425.2 188.7 425.35 189.35 425.65 192.5 425.65 192.7 425.8 192.7 425.8 196.95 422.95 196.95 422.95 198.6 Q422.95 199.8 422.35 200.6 420.3 195.1 422.45 189.6 422.95 190.4 422.95 191.55 L422.95 192.7 423.6 192.7 423.6 192.5 Q423.55 190.65 423.9 189.35 L424.15 188.6 Q421.45 169.35 405.75 167.8 L406.0 167.2" fill="#000000" fill-rule="evenodd" stroke="none"/>
  </g>
</svg>
