<?xml version="1.0" encoding="UTF-8" standalone="no"?>
<svg xmlns:xlink="http://www.w3.org/1999/xlink" height="18.5px" width="37.2px" xmlns="http://www.w3.org/2000/svg">
  <g transform="matrix(1.0, 0.0, 0.0, 1.0, -381.3, -175.75)">
    <path d="M382.85 185.3 Q386.15 185.5 389.45 185.15 L399.9 184.6 410.3 185.15 Q413.6 185.5 416.95 185.3 L417.65 185.25 Q418.05 186.95 416.65 188.8 412.4 194.25 399.9 194.25 387.4 194.25 383.15 188.8 381.75 186.95 382.15 185.25 L382.85 185.3 M381.3 177.85 Q390.3 175.5 399.9 175.75 409.45 175.5 418.5 177.85 L418.5 183.15 Q414.45 183.6 410.3 183.15 L399.9 182.6 389.45 183.15 Q385.4 183.6 381.3 183.15 L381.3 177.85" fill="#000000" fill-rule="evenodd" stroke="none"/>
  </g>
</svg>
