<?xml version="1.0" encoding="UTF-8" standalone="no"?>
<svg xmlns:xlink="http://www.w3.org/1999/xlink" height="17.85px" width="39.0px" xmlns="http://www.w3.org/2000/svg">
  <g transform="matrix(1.0, 0.0, 0.0, 1.0, -380.45, -165.0)">
    <path d="M402.95 167.95 L396.95 167.95 Q397.05 165.5 399.95 165.0 402.85 165.5 402.95 167.95 M380.45 181.25 Q382.8 170.05 395.75 168.6 L395.75 178.9 Q388.6 179.2 381.65 181.0 L380.45 181.25 M401.3 180.6 Q401.85 181.0 401.85 181.55 401.85 182.1 401.3 182.45 400.8 182.85 400.05 182.85 399.3 182.85 398.75 182.45 398.25 182.1 398.25 181.55 398.25 181.0 398.75 180.6 399.3 180.25 400.05 180.25 400.8 180.25 401.3 180.6 M404.15 168.6 Q417.1 170.05 419.45 181.25 L418.25 181.0 Q411.3 179.2 404.15 178.9 L404.15 168.6" fill="#000000" fill-rule="evenodd" stroke="none"/>
  </g>
</svg>
