<?xml version="1.0" encoding="UTF-8" standalone="no"?>
<svg xmlns:xlink="http://www.w3.org/1999/xlink" height="17.7px" width="44.85px" xmlns="http://www.w3.org/2000/svg">
  <g transform="matrix(1.0, 0.0, 0.0, 1.0, -377.45, -186.05)">
    <path d="M383.85 191.5 Q384.4 190.15 385.6 188.95 388.05 186.55 391.5 186.55 391.5 187.75 391.65 188.45 394.3 188.45 396.15 190.3 398.05 192.15 398.05 194.8 398.05 197.45 396.15 199.3 394.25 201.2 391.65 201.25 L390.8 201.2 390.9 203.25 Q387.8 203.05 385.6 200.75 L385.2 200.4 383.1 200.45 381.05 200.5 380.05 200.5 377.95 198.9 377.95 193.0 379.4 191.5 380.95 191.5 382.5 191.5 383.85 191.5 M408.1 188.45 Q405.45 188.45 403.65 190.3 401.75 192.15 401.75 194.8 401.75 197.45 403.65 199.3 405.5 201.2 408.1 201.25 L408.95 201.2 M408.1 188.45 L408.3 186.55 Q411.75 186.55 414.2 188.95 415.4 190.15 415.95 191.5 L417.3 191.5 418.85 191.5 420.4 191.5 421.8 193.0 421.8 198.9 419.75 200.5 418.75 200.5 416.7 200.45 414.6 200.4 414.2 200.75 Q412.0 203.05 408.85 203.25 L408.95 201.2" fill="none" stroke="#000000" stroke-linecap="round" stroke-linejoin="round" stroke-width="1.0"/>
    <path d="M383.85 191.5 L383.3 193.0 383.1 194.9 Q383.1 197.1 384.1 198.9 L385.2 200.4 M380.95 191.5 L379.9 193.0 381.85 193.0 382.5 191.5 M383.3 193.0 L381.85 193.0 382.2 198.9 384.1 198.9 M377.95 193.0 L379.9 193.0 380.05 198.9 382.2 198.9 383.1 200.45 M408.95 201.2 Q411.1 200.9 412.7 199.3 414.55 197.45 414.55 194.8 414.55 192.15 412.7 190.3 410.85 188.45 408.1 188.45 M391.65 188.45 Q388.95 188.45 387.1 190.3 385.25 192.15 385.25 194.8 385.25 197.45 387.1 199.3 388.7 200.9 390.8 201.2 M415.95 191.5 L416.5 193.0 417.95 193.0 417.3 191.5 M417.95 193.0 L419.9 193.0 418.85 191.5 M416.5 193.0 L416.65 194.9 Q416.65 197.1 415.7 198.9 L417.6 198.9 417.95 193.0 M419.9 193.0 L421.8 193.0 M419.9 193.0 L419.75 198.9 421.8 198.9 M418.75 200.5 L419.75 198.9 417.6 198.9 416.7 200.45 M414.6 200.4 L415.7 198.9 M381.05 200.5 L380.05 198.9 377.95 198.9" fill="none" stroke="#000000" stroke-linecap="round" stroke-linejoin="round" stroke-opacity="0.49803922" stroke-width="1.0"/>
  </g>
</svg>
