<?xml version="1.0" encoding="UTF-8" standalone="no"?>
<svg xmlns:xlink="http://www.w3.org/1999/xlink" height="36.5px" width="52.05px" xmlns="http://www.w3.org/2000/svg">
  <g transform="matrix(1.0, 0.0, 0.0, 1.0, -374.25, -165.85)">
    <path d="M393.85 167.0 L393.8 167.25 393.8 167.3 Q393.8 167.7 394.1 167.95 L394.15 168.0 M405.75 167.9 L406.0 167.3 406.0 167.25 405.95 166.9 M375.55 187.8 L376.5 188.7 M377.0 192.8 L375.0 192.8 M377.6 192.8 L377.6 197.05 M425.1 188.2 Q424.3 188.15 424.15 188.7 M422.95 192.8 L422.95 197.05 M378.2 200.7 Q380.3 195.2 378.15 189.7 M422.35 200.7 Q420.3 195.2 422.45 189.7" fill="none" stroke="#000000" stroke-linecap="round" stroke-linejoin="round" stroke-opacity="0.49803922" stroke-width="1.0"/>
    <path d="M394.15 168.0 L394.8 168.2 405.0 168.2 405.7 167.95 405.75 167.9 M405.95 166.9 L405.7 166.6 Q405.45 166.35 405.0 166.35 L394.8 166.35 394.1 166.6 393.85 167.0 Q378.4 168.95 375.55 187.8 M376.5 188.7 Q379.05 169.85 394.1 168.0 L394.15 168.0 M376.5 188.7 L376.65 189.45 Q377.0 190.75 377.0 192.6 L377.0 192.8 377.6 192.8 377.6 191.65 Q377.6 190.5 378.15 189.7 L378.35 189.45 Q379.15 188.5 380.3 188.55 381.45 188.5 382.2 189.45 383.0 190.35 383.0 191.65 L383.0 198.7 Q383.0 200.0 382.2 200.9 381.45 201.8 380.3 201.85 379.15 201.8 378.35 200.9 L378.2 200.7 Q377.6 199.9 377.6 198.7 L377.6 197.05 374.75 197.05 374.75 192.8 375.0 192.8 375.0 192.6 Q375.0 190.75 375.25 189.45 L375.4 188.8 375.45 188.3 375.55 187.8 M424.15 188.7 L423.9 189.45 Q423.55 190.75 423.6 192.6 L423.6 192.8 425.65 192.8 425.65 192.6 425.35 189.45 425.2 188.8 425.1 188.3 425.1 188.2 Q422.25 168.5 405.95 166.9 M425.65 192.8 L425.8 192.8 425.8 197.05 422.95 197.05 422.95 198.7 Q422.95 199.9 422.35 200.7 L422.2 200.9 Q421.4 201.8 420.25 201.85 419.1 201.8 418.35 200.9 417.55 200.0 417.55 198.7 L417.55 191.65 Q417.55 190.35 418.35 189.45 419.1 188.5 420.25 188.55 421.4 188.5 422.2 189.45 L422.45 189.7 Q422.95 190.5 422.95 191.65 L422.95 192.8 423.6 192.8 M424.15 188.7 Q421.45 169.45 405.75 167.9" fill="none" stroke="#000000" stroke-linecap="round" stroke-linejoin="round" stroke-width="1.0"/>
  </g>
</svg>
