<?xml version="1.0" encoding="UTF-8" standalone="no"?>
<svg xmlns:xlink="http://www.w3.org/1999/xlink" height="24.35px" width="40.3px" xmlns="http://www.w3.org/2000/svg">
  <g transform="matrix(1.0, 0.0, 0.0, 1.0, -379.8, -165.45)">
    <path d="M397.65 167.95 L399.95 167.75 402.25 167.95 M380.7 184.15 Q388.65 175.05 399.95 175.15 411.25 175.05 419.2 184.15" fill="none" stroke="#000000" stroke-linecap="round" stroke-linejoin="round" stroke-opacity="0.5019608" stroke-width="1.0"/>
    <path d="M402.25 167.95 Q402.15 166.1 399.95 165.95 397.75 166.1 397.65 167.95 389.1 168.9 380.95 176.5 L380.7 184.15 380.3 187.95 Q385.75 191.3 388.15 186.4 391.65 178.15 399.95 178.5 408.25 178.15 411.75 186.4 414.15 191.3 419.6 187.95 L419.2 184.15 418.95 176.5 Q410.8 168.9 402.25 167.95" fill="none" stroke="#000000" stroke-linecap="round" stroke-linejoin="round" stroke-width="1.0"/>
  </g>
</svg>
