<?xml version="1.0" encoding="UTF-8" standalone="no"?>
<svg xmlns:xlink="http://www.w3.org/1999/xlink" height="35.6px" width="58.8px" xmlns="http://www.w3.org/2000/svg">
  <g transform="matrix(1.0, 0.0, 0.0, 1.0, -370.5, -156.95)">
    <path d="M381.5 180.35 Q379.75 179.75 378.2 178.35 376.8 177.2 375.2 176.8 L373.25 176.5 Q370.1 176.65 371.35 180.05 375.15 191.45 399.9 192.05 424.75 191.45 428.45 180.05 429.7 176.65 426.55 176.5 L424.55 176.8 Q423.0 177.2 421.55 178.35 420.05 179.75 418.3 180.35 M381.5 180.35 L381.65 177.85 381.65 177.75 382.15 168.95 Q383.25 157.9 399.9 157.45 416.6 157.9 417.7 168.95 L418.2 177.75 418.2 177.85 418.3 180.35" fill="none" stroke="#000000" stroke-linecap="round" stroke-linejoin="round" stroke-width="1.0"/>
    <path d="M375.2 176.8 Q373.6 176.6 372.65 177.55 372.25 177.95 372.4 178.75 372.65 180.8 374.95 183.05 376.2 184.35 378.2 185.4 386.1 189.85 399.9 189.95 413.7 189.85 421.6 185.4 L424.85 183.05 Q427.2 180.8 427.4 178.75 427.55 177.95 427.15 177.55 426.2 176.6 424.55 176.8 M418.3 180.35 L418.55 185.35 Q414.1 188.55 399.9 188.5 385.7 188.55 381.3 185.35 L381.5 180.35 M418.2 177.75 Q413.85 180.95 399.9 180.95 386.0 180.95 381.65 177.75" fill="none" stroke="#000000" stroke-linecap="round" stroke-linejoin="round" stroke-opacity="0.5019608" stroke-width="1.0"/>
  </g>
</svg>
