<?xml version="1.0" encoding="UTF-8" standalone="no"?>
<svg xmlns:xlink="http://www.w3.org/1999/xlink" height="36.25px" width="46.05px" xmlns="http://www.w3.org/2000/svg">
  <g transform="matrix(1.0, 0.0, 0.0, 1.0, -376.85, -158.6)">
    <path d="M399.9 159.15 Q395.1 158.8 390.5 162.5 388.8 163.8 387.2 165.9 L384.35 169.8 Q381.15 174.0 378.35 174.45 377.5 174.75 377.35 176.4 377.2 180.15 381.3 180.1 L381.3 183.25 Q380.45 183.25 380.5 184.35 380.5 185.05 381.3 185.25 L381.95 185.3 382.15 185.35 M418.5 183.25 L418.5 180.1 M417.65 185.35 L417.8 185.3 418.5 185.25 Q419.25 185.05 419.25 184.35 419.3 183.25 418.5 183.25 M417.65 185.35 Q418.05 187.05 416.65 188.9 412.4 194.35 399.9 194.35 387.4 194.35 383.15 188.9 381.75 187.05 382.15 185.35 M399.9 159.15 Q404.7 158.8 409.3 162.5 410.95 163.8 412.55 165.9 L415.45 169.8 Q418.6 174.0 421.45 174.45 422.3 174.75 422.4 176.4 422.55 180.15 418.5 180.1" fill="none" stroke="#000000" stroke-linecap="round" stroke-linejoin="round" stroke-width="1.0"/>
    <path d="M381.3 180.1 L381.3 177.95 Q380.15 176.95 382.8 175.75 385.5 174.45 386.6 172.9 M381.3 183.25 Q385.4 183.7 389.45 183.25 L399.9 182.7 410.3 183.25 Q414.45 183.7 418.5 183.25 M418.5 180.1 L418.5 177.95 Q409.45 175.6 399.9 175.85 390.3 175.6 381.3 177.95 M382.15 185.35 L382.85 185.4 Q386.15 185.6 389.45 185.25 L399.9 184.7 410.3 185.25 Q413.6 185.6 416.95 185.4 L417.65 185.35 M382.85 185.4 Q383.1 186.45 383.8 187.5 387.85 193.0 399.9 193.0 411.9 193.0 415.95 187.5 416.7 186.45 416.95 185.4 M399.9 159.15 L399.9 175.85 M418.5 177.95 Q419.6 176.95 416.95 175.75 414.3 174.45 413.15 172.9" fill="none" stroke="#000000" stroke-linecap="round" stroke-linejoin="round" stroke-opacity="0.5019608" stroke-width="1.0"/>
  </g>
</svg>
