<?xml version="1.0" encoding="UTF-8" standalone="no"?>
<svg xmlns:xlink="http://www.w3.org/1999/xlink" height="51.9px" width="47.8px" xmlns="http://www.w3.org/2000/svg">
  <g transform="matrix(1.0, 0.0, 0.0, 1.0, -376.0, -154.1)">
    <path d="M400.95 165.8 L399.9 165.7 398.85 165.8 M376.5 203.4 Q380.3 199.3 380.75 197.2 L381.1 194.4 M384.25 185.65 Q392.45 181.2 399.9 181.25 407.35 181.2 415.55 185.65 M418.7 194.4 L419.05 197.2 Q419.5 199.3 423.3 203.4 M399.9 154.6 L399.9 165.7 M383.15 178.95 L383.65 179.35 383.85 180.35 383.65 181.35 383.15 181.75 382.65 181.35 382.45 180.35 382.65 179.35 Q382.85 178.95 383.15 178.95 M385.3 185.7 Q392.4 184.2 399.9 184.25 407.4 184.2 414.5 185.7 M417.15 181.35 L417.35 180.35 417.15 179.35 Q416.95 178.95 416.65 178.95 L416.15 179.35 415.95 180.35 416.15 181.35 416.65 181.75 417.15 181.35" fill="none" stroke="#000000" stroke-linecap="round" stroke-linejoin="round" stroke-opacity="0.5019608" stroke-width="1.0"/>
    <path d="M398.85 165.8 Q392.35 166.3 387.6 168.4 381.65 170.85 380.15 175.95 L380.15 186.1 376.5 203.4 Q380.0 205.45 383.25 205.5 L381.1 194.4 381.5 191.5 Q382.55 186.5 384.1 185.7 L384.15 185.7 384.25 185.65 M415.55 185.65 L415.65 185.7 415.7 185.7 Q417.25 186.5 418.3 191.5 L418.7 194.4 M423.3 203.4 L419.65 186.1 419.65 175.95 Q418.15 170.85 412.2 168.4 407.45 166.3 400.95 165.8 L400.95 164.15 Q401.5 163.55 403.05 163.35 L399.9 154.6 396.75 163.35 Q398.3 163.55 398.85 164.15 L398.85 165.8 M414.5 185.7 L415.55 185.65 M414.5 185.7 Q407.1 187.75 399.9 187.8 392.7 187.75 385.3 185.7 L384.25 185.65 M423.3 203.4 Q419.8 205.45 416.55 205.5 L418.7 194.4" fill="none" stroke="#000000" stroke-linecap="round" stroke-linejoin="round" stroke-width="1.0"/>
  </g>
</svg>
