<?xml version="1.0" encoding="UTF-8" standalone="no"?>
<svg xmlns:xlink="http://www.w3.org/1999/xlink" height="49.85px" width="40.1px" xmlns="http://www.w3.org/2000/svg">
  <g transform="matrix(1.0, 0.0, 0.0, 1.0, -379.85, -167.75)">
    <path d="M399.9 168.3 Q407.6 167.85 413.65 172.2 415.6 173.6 416.9 175.25 419.6 178.6 419.45 182.85 L419.3 190.65 419.3 193.55 419.35 193.65 419.25 194.05 419.25 194.15 418.3 196.3 Q417.2 198.6 419.0 203.4 419.35 203.85 419.0 204.3 417.6 206.25 416.65 208.35 415.85 209.25 414.55 208.55 412.7 207.6 410.5 207.35 408.9 207.1 409.25 208.75 409.45 209.7 410.0 210.35 410.7 210.9 411.0 211.8 411.0 213.95 409.85 213.95 L410.0 214.2 Q409.9 215.1 408.7 215.3 L407.95 215.5 407.2 215.45 406.2 216.6 403.85 216.3 Q403.8 217.1 402.8 217.1 L401.0 217.1 Q400.05 217.1 399.9 216.3 399.75 217.1 398.8 217.1 L397.05 217.1 Q396.0 217.1 395.95 216.3 L393.65 216.6 Q392.8 216.15 392.6 215.45 L391.85 215.5 391.1 215.3 Q389.9 215.1 389.85 214.2 L389.95 213.95 Q388.8 213.95 388.8 211.8 389.15 210.9 389.85 210.35 L390.55 208.75 Q390.9 207.1 389.3 207.35 387.1 207.6 385.3 208.55 384.0 209.25 383.15 208.35 382.2 206.25 380.8 204.3 380.5 203.85 380.8 203.4 382.65 198.6 381.55 196.3 380.45 193.95 380.5 193.65 L380.5 190.65 380.35 182.85 Q380.2 178.6 382.9 175.2 384.2 173.6 386.15 172.2 392.2 167.85 399.9 168.3 M419.3 193.55 L419.3 193.65 419.2 194.15 419.25 194.15" fill="none" stroke="#000000" stroke-linecap="round" stroke-linejoin="round" stroke-width="1.0"/>
    <path d="M380.5 193.65 L380.6 193.25 Q381.15 192.3 381.05 191.15 380.85 190.45 383.0 189.4 M383.4 187.8 Q384.7 184.85 383.3 181.75 M383.8 193.5 Q384.45 191.85 386.7 191.45 L387.25 191.35 Q389.7 191.1 391.6 191.75 L394.65 192.85 394.95 192.95 Q397.9 194.15 398.35 192.05 L398.5 191.0 M389.8 200.4 Q392.9 198.95 395.55 194.6 393.75 197.2 389.85 198.4 L388.2 198.5 387.25 198.05 Q385.05 197.65 384.95 194.5 384.8 192.15 386.7 191.45 M404.25 194.6 Q406.05 197.2 409.95 198.4 L411.6 198.5 Q412.0 198.2 412.55 198.05 414.75 197.65 414.85 194.5 415.0 192.15 413.1 191.45 L412.55 191.35 408.2 191.75 405.15 192.85 404.85 192.95 Q403.55 193.65 404.25 194.6 406.9 198.95 410.0 200.4 M401.3 191.0 L401.45 192.05 Q401.9 194.15 404.85 192.95 M394.95 192.95 Q396.25 193.65 395.55 194.6 M416.8 189.4 Q418.95 190.45 418.75 191.15 418.65 192.3 419.15 193.25 L419.3 193.55 M416.35 187.8 Q415.1 184.85 416.5 181.75 M413.1 191.45 Q415.35 191.85 416.0 193.5 M412.1 199.75 Q410.6 200.05 408.05 198.25 M405.6 211.4 L405.2 210.4 M407.2 215.45 L407.25 215.35 Q406.85 213.7 405.9 212.25 404.3 211.2 403.15 212.85 L403.85 215.95 403.85 216.3 M409.85 213.95 L408.55 211.95 Q406.65 210.05 405.9 212.25 M410.0 210.35 Q408.35 210.2 408.55 211.95 M407.8 210.5 L407.3 209.45 M400.35 199.55 Q401.6 198.85 402.05 199.3 M403.75 203.85 Q404.3 204.7 403.6 205.5 402.8 206.15 401.85 206.25 400.75 206.3 400.5 205.1 400.4 204.1 399.9 204.2 399.4 204.1 399.3 205.1 399.1 206.3 397.95 206.25 397.05 206.15 396.25 205.5 395.5 204.7 396.05 203.85 L397.75 200.75 Q397.9 199.05 399.55 200.35 L399.9 200.5 400.3 200.35 Q401.95 199.05 402.05 200.75 L403.75 203.85 M399.5 199.55 Q398.25 198.85 397.8 199.3 M387.65 199.75 Q389.2 200.05 391.75 198.25 M394.25 211.4 L394.65 210.4 M392.6 215.45 L392.55 215.35 Q392.95 213.7 393.9 212.25 393.15 210.05 391.2 211.95 L389.95 213.95 M403.05 211.85 L402.8 210.55 M399.9 212.55 L399.9 210.6 M396.8 211.85 L397.05 210.55 M399.9 216.3 L399.9 213.0 Q397.75 211.35 396.65 212.85 L396.0 215.95 Q395.9 216.15 395.95 216.3 M403.15 212.85 Q402.05 211.35 399.9 213.0 M396.65 212.85 Q395.5 211.2 393.9 212.25 M391.2 211.95 Q391.4 210.2 389.85 210.35 M392.05 210.5 L392.55 209.45 M399.9 196.05 L399.9 199.45 M395.8 195.8 Q393.55 198.0 393.45 200.6 M404.0 195.8 Q406.2 198.0 406.35 200.6" fill="none" stroke="#000000" stroke-linecap="round" stroke-linejoin="round" stroke-opacity="0.5019608" stroke-width="1.0"/>
  </g>
</svg>
