<?xml version="1.0" encoding="UTF-8" standalone="no"?>
<svg xmlns:xlink="http://www.w3.org/1999/xlink" height="84.3px" width="66.7px" xmlns="http://www.w3.org/2000/svg">
  <g transform="matrix(1.0, 0.0, 0.0, 1.0, -366.6, -160.65)">
    <path d="M380.45 173.8 Q375.4 176.85 373.75 184.9 372.65 190.45 373.9 195.3 374.8 200.45 372.35 205.6 369.0 209.85 371.3 214.05 372.05 218.15 370.2 220.4 363.35 225.3 371.65 228.5 382.45 233.35 386.45 237.65 391.3 244.55 399.95 244.45 408.6 244.55 413.45 237.65 417.45 233.35 428.25 228.5 436.55 225.3 429.7 220.4 427.85 218.15 428.6 214.05 430.9 209.85 427.55 205.6 425.1 200.45 426.0 195.3 427.25 190.45 426.15 184.9 424.5 176.85 419.45 173.8 411.7 161.25 399.95 161.15 388.2 161.25 380.45 173.8" fill="none" stroke="#000000" stroke-linecap="round" stroke-linejoin="round" stroke-width="1.0"/>
    <path d="M371.3 214.05 Q375.15 220.35 376.55 226.2 M380.45 173.8 L379.55 176.65 M385.2 190.0 Q384.45 193.25 384.05 196.35 380.7 222.15 386.35 226.8 395.1 232.3 399.95 237.85 404.8 232.3 413.55 226.8 419.2 222.15 415.85 196.35 415.45 193.25 414.7 190.0 410.5 176.6 399.95 176.65 389.4 176.6 385.2 190.0 M419.45 173.8 L420.35 176.65 M428.6 214.05 Q424.75 220.35 423.35 226.2" fill="none" stroke="#000000" stroke-linecap="round" stroke-linejoin="round" stroke-opacity="0.5019608" stroke-width="1.0"/>
  </g>
</svg>
