<?xml version="1.0" encoding="UTF-8" standalone="no"?>
<svg xmlns:xlink="http://www.w3.org/1999/xlink" height="75.6px" width="80.6px" xmlns="http://www.w3.org/2000/svg">
  <g transform="matrix(1.0, 0.0, 0.0, 1.0, -359.75, -155.55)">
    <path d="M361.95 170.45 L362.05 170.4 Q363.5 169.35 366.3 168.3 L371.65 168.45 Q375.25 162.75 382.8 159.6 L385.05 158.75 385.8 158.5 Q391.9 156.6 400.05 156.05 408.25 156.6 414.35 158.5 L415.9 159.05 417.35 159.6 Q424.9 162.75 428.5 168.45 L433.8 168.3 Q436.65 169.35 438.1 170.4 L438.15 170.45 438.9 171.1 438.95 171.15 Q439.75 171.6 439.85 173.1 L439.85 183.6 Q439.8 185.95 437.4 185.45 L432.4 185.45 432.4 188.3 434.95 188.3 Q437.05 195.2 434.95 202.1 L434.35 202.1 434.35 202.15 Q434.85 205.75 433.65 209.35 434.7 209.25 435.0 210.1 435.35 211.4 435.05 212.85 435.05 213.75 434.05 214.0 432.7 214.45 431.35 214.0 430.65 213.8 430.35 213.05 429.75 217.6 425.45 222.15 L425.0 227.1 415.8 230.65 415.7 230.65 408.4 228.65 400.6 229.15 400.1 229.15 399.55 229.15 391.7 228.65 384.3 230.65 375.1 227.1 374.65 222.15 Q370.4 217.6 369.75 213.05 366.85 207.8 367.4 202.1 L365.15 202.1 Q363.1 195.2 365.15 188.3 L367.75 188.3 367.75 185.45 362.7 185.45 Q360.3 185.95 360.25 183.6 L360.25 173.1 Q360.35 171.6 361.2 171.15 L361.2 171.1 361.25 171.1 361.95 170.45" fill="none" stroke="#000000" stroke-linecap="round" stroke-linejoin="round" stroke-width="1.0"/>
    <path d="M364.45 171.95 L364.8 171.95 Q366.05 171.95 366.9 172.8 367.75 173.65 367.75 174.85 367.75 176.05 366.9 176.9 366.05 177.8 364.8 177.8 L364.5 177.8 363.7 177.6 362.7 176.9 Q361.85 176.05 361.85 174.85 361.85 173.65 362.7 172.8 363.45 172.05 364.45 171.95 362.75 174.35 363.4 176.7 L363.7 177.6 M367.75 185.45 L367.95 181.5 Q368.2 178.7 368.75 176.0 L368.75 173.1 Q369.45 170.9 366.75 170.95 L362.45 170.95 361.25 171.1 M364.1 178.5 L364.45 178.5 Q365.65 178.5 366.55 179.35 367.4 180.2 367.4 181.4 367.4 182.65 366.55 183.5 365.65 184.35 364.45 184.35 L363.35 184.15 Q362.8 183.9 362.35 183.5 361.5 182.65 361.5 181.4 361.5 180.2 362.35 179.35 363.1 178.6 364.1 178.5 362.35 180.9 363.05 183.25 L363.35 184.15 M385.8 158.5 L385.05 160.7 Q383.25 166.7 384.2 172.65 L385.05 172.35 Q392.55 169.7 399.95 169.55 L400.15 169.55 Q408.0 169.7 415.9 172.65 416.6 168.45 415.9 164.25 415.45 161.4 414.35 158.5 M367.75 188.3 L369.2 188.3 369.4 188.9 370.25 188.9 370.25 180.9 Q369.7 176.8 372.35 176.95 L375.05 177.0 Q378.1 175.25 381.2 173.9 380.3 165.6 382.8 159.6 M371.65 168.45 Q370.2 170.7 369.4 173.3 L368.9 175.25 368.75 176.0 M370.25 188.9 L371.05 188.9 372.35 188.9 372.4 183.05 Q373.15 180.25 374.25 177.5 L375.05 177.0 M369.75 213.05 L372.2 213.05 Q370.75 207.5 370.4 202.05 370.2 199.15 370.3 196.3 370.4 192.65 371.05 189.05 L371.05 188.9 M369.2 188.3 L369.05 188.85 369.05 189.05 Q367.6 195.7 369.45 201.6 370.1 198.75 370.25 196.3 370.55 192.25 369.5 189.1 L369.4 188.9 M385.05 175.25 Q379.15 176.8 376.4 179.65 370.05 197.8 374.1 213.2 378.85 218.8 384.9 221.45 391.5 224.35 399.6 223.8 L400.1 223.75 400.55 223.8 Q408.95 224.4 415.75 221.25 421.45 218.55 426.05 213.2 L426.95 208.9 Q422.05 211.9 415.75 213.1 L410.15 213.8 Q405.7 216.55 401.95 213.8 400.75 212.45 401.95 210.85 405.85 207.75 410.15 211.25 L415.75 210.4 Q421.6 209.1 427.35 205.7 428.55 193.45 423.75 179.65 421.2 177.0 415.9 175.5 409.85 173.7 400.2 173.4 L400.1 173.4 399.95 173.4 Q390.95 173.7 385.05 175.25 M381.2 173.9 L384.2 172.65 M438.9 171.1 L437.7 170.95 433.4 170.95 Q430.7 170.9 431.4 173.1 L431.4 176.0 432.2 181.5 432.4 185.45 M435.3 171.95 L435.65 171.95 Q436.65 172.05 437.4 172.8 438.3 173.65 438.3 174.85 438.3 176.05 437.4 176.9 L436.4 177.6 435.6 177.8 435.3 177.8 Q434.1 177.8 433.2 176.9 432.35 176.05 432.35 174.85 432.35 173.65 433.2 172.8 434.1 171.95 435.3 171.95 M417.35 159.6 Q419.85 165.6 418.9 173.9 422.0 175.25 425.1 177.0 L427.75 176.95 Q430.45 176.8 429.9 180.9 L429.9 188.9 430.7 188.9 430.95 188.3 432.4 188.3 M435.7 178.5 Q434.45 178.5 433.6 179.35 432.7 180.2 432.7 181.4 432.7 182.65 433.6 183.5 434.45 184.35 435.7 184.35 L436.75 184.15 437.1 183.25 Q437.75 180.9 436.05 178.5 L435.7 178.5 M435.65 171.95 Q437.4 174.35 436.75 176.7 L436.4 177.6 M436.75 184.15 L437.8 183.5 Q438.65 182.65 438.65 181.4 438.65 180.2 437.8 179.35 437.05 178.6 436.05 178.5 M431.4 176.0 L431.25 175.25 430.75 173.3 Q429.9 170.7 428.5 168.45 M425.1 177.0 L425.9 177.5 427.75 183.05 427.75 188.9 429.05 188.9 429.9 188.9 M430.7 188.9 L430.65 189.1 Q429.8 191.6 429.8 194.65 429.8 197.85 430.65 201.6 432.55 195.65 431.05 188.85 L430.95 188.3 M429.05 188.9 L429.1 189.0 429.75 194.65 Q430.0 198.35 429.75 202.05 L429.65 203.15 429.45 204.95 430.4 204.65 Q430.35 203.85 430.45 203.2 430.6 202.6 430.9 202.1 L430.5 202.1 430.65 201.6 M415.9 172.65 L418.9 173.9 M430.4 204.65 L431.35 204.3 431.3 202.1 430.9 202.1 M434.35 202.1 L431.3 202.1 M428.95 208.35 L428.95 208.3 428.75 208.4 428.95 208.35 430.1 208.1 430.8 207.95 431.35 204.3 M429.45 204.95 L427.35 205.7 M426.95 208.9 L428.75 208.4 M430.8 207.95 L430.4 209.35 433.65 209.35 M430.1 208.1 L430.4 209.35 Q430.05 211.2 430.35 213.05 L427.95 213.05 427.3 215.3 Q421.8 221.05 415.75 224.0 408.55 227.55 400.6 227.2 L400.05 227.15 399.55 227.2 Q391.85 227.5 384.9 224.25 378.55 221.25 372.8 215.3 L372.2 213.05 M428.95 208.35 L427.95 213.05 M425.0 227.1 L422.95 223.75 421.5 224.55 419.45 225.55 415.75 227.0 414.35 227.4 415.75 230.5 415.8 230.65 M414.35 227.4 L408.4 228.65 M425.45 222.15 L422.95 223.75 M369.45 201.6 L369.6 202.1 367.4 202.1 M375.1 227.1 L377.15 223.75 374.65 222.15 M391.7 228.65 Q388.6 228.2 385.8 227.4 L384.3 230.65 M385.8 227.4 L384.9 227.15 Q380.75 225.85 377.15 223.75" fill="none" stroke="#000000" stroke-linecap="round" stroke-linejoin="round" stroke-opacity="0.5019608" stroke-width="1.0"/>
  </g>
</svg>
