<?xml version="1.0" encoding="UTF-8" standalone="no"?>
<svg xmlns:xlink="http://www.w3.org/1999/xlink" height="22.2px" width="31.2px" xmlns="http://www.w3.org/2000/svg">
  <g transform="matrix(1.0, 0.0, 0.0, 1.0, 50.65, 122.95)">
    <path d="M-43.55 -116.45 Q-46.8 -119.7 -50.65 -121.75 -40.75 -124.9 -30.3 -119.75 -26.35 -118.0 -22.75 -117.35 L-19.45 -116.95 -19.55 -115.05 -20.15 -115.0 -21.05 -114.95 -22.75 -115.0 Q-25.2 -115.15 -27.45 -116.0 -38.15 -119.8 -43.55 -116.45 M-38.5 -106.05 Q-42.25 -110.3 -50.25 -110.0 -42.4 -114.85 -39.55 -108.0 L-38.5 -106.05 M-32.75 -101.1 Q-33.5 -101.4 -34.25 -101.85 L-35.25 -102.6 Q-37.2 -104.2 -38.4 -105.9 -31.75 -100.85 -22.75 -109.45 L-21.8 -110.4 -22.75 -109.3 Q-24.95 -106.6 -26.15 -103.7 -28.15 -100.7 -30.8 -100.75 L-32.75 -101.1" fill="#000000" fill-opacity="0.2509804" fill-rule="evenodd" stroke="none"/>
  </g>
</svg>
