<?xml version="1.0" encoding="UTF-8" standalone="no"?>
<svg xmlns:xlink="http://www.w3.org/1999/xlink" height="12.95px" width="36.45px" xmlns="http://www.w3.org/2000/svg">
  <g transform="matrix(1.0, 0.0, 0.0, 1.0, 18.55, 110.7)">
    <path d="M1.8 -102.9 L-0.05 -103.0 -0.3 -103.05 -2.45 -102.9 Q-5.2 -102.8 -5.25 -101.4 -6.55 -98.15 -7.8 -97.75 L-14.65 -98.15 -15.95 -98.55 Q-18.3 -99.45 -18.55 -100.9 L-18.55 -106.85 Q-18.35 -108.95 -15.95 -110.2 L-14.8 -110.7 14.2 -110.7 15.1 -110.3 Q17.7 -109.0 17.9 -106.85 L17.9 -100.9 Q17.65 -99.45 15.25 -98.55 L14.0 -98.15 7.2 -97.75 Q5.85 -98.15 4.6 -101.4 4.5 -102.8 1.8 -102.9" fill="url(#gradient0)" fill-rule="evenodd" stroke="none"/>
  </g>
  <defs>
    <linearGradient gradientTransform="matrix(0.0222, 0.0, 0.0, 0.0079, -0.35, -104.25)" gradientUnits="userSpaceOnUse" id="gradient0" spreadMethod="pad" x1="-819.2" x2="819.2">
      <stop offset="0.0" stop-color="#ffffff"/>
      <stop offset="0.49019607843137253" stop-color="#ffffff" stop-opacity="0.0"/>
      <stop offset="1.0" stop-color="#ffffff"/>
    </linearGradient>
  </defs>
</svg>
