<?xml version="1.0" encoding="UTF-8" standalone="no"?>
<svg xmlns:xlink="http://www.w3.org/1999/xlink" height="30.8px" width="60.55px" xmlns="http://www.w3.org/2000/svg">
  <g transform="matrix(1.0, 0.0, 0.0, 1.0, -371.1, -160.25)">
    <path d="M387.05 166.0 Q400.0 167.65 413.0 165.95 L416.8 174.0 Q438.15 176.7 428.8 183.35 417.9 191.4 399.95 191.05 L399.15 191.05 Q381.75 191.25 371.1 183.35 371.5 155.5 376.4 161.25 L377.95 163.7 379.7 167.65 383.05 174.1 386.8 166.25 387.05 166.0 M387.35 182.3 Q393.55 183.75 399.95 183.5 410.1 183.85 419.7 180.05 L417.3 175.05 Q411.4 176.85 400.1 176.9 389.6 176.95 383.75 175.4 L387.35 182.3" fill="#000000" fill-rule="evenodd" stroke="none"/>
  </g>
</svg>
