<?xml version="1.0" encoding="UTF-8" standalone="no"?>
<svg xmlns:xlink="http://www.w3.org/1999/xlink" height="56.9px" width="76.6px" xmlns="http://www.w3.org/2000/svg">
  <g transform="matrix(1.0, 0.0, 0.0, 1.0, -361.65, -202.25)">
    <path d="M429.15 222.25 Q429.15 218.0 427.65 215.0 426.1 212.0 423.95 212.0 L423.25 212.1 422.55 212.0 Q420.4 212.0 418.9 215.0 417.35 218.0 417.35 222.25 417.35 226.5 418.9 229.5 420.4 232.5 422.55 232.5 L423.25 232.45 423.95 232.5 Q426.1 232.5 427.65 229.5 429.15 226.5 429.15 222.25 M423.7 202.25 Q429.0 201.95 436.8 217.7 440.25 227.1 435.35 229.3 422.0 237.05 417.75 246.1 412.55 259.7 399.95 259.15 387.35 259.7 382.15 246.1 377.9 237.05 364.55 229.3 359.65 227.1 363.1 217.7 370.9 201.95 376.2 202.25 378.25 202.35 379.95 204.85 388.45 217.3 399.95 216.9 411.45 217.3 419.95 204.85 421.65 202.35 423.7 202.25 M376.65 212.1 L375.95 212.0 Q373.8 212.0 372.25 215.0 370.75 218.0 370.75 222.25 370.75 226.5 372.25 229.5 373.8 232.5 375.95 232.5 L376.65 232.45 377.35 232.5 Q379.5 232.5 381.0 229.5 382.55 226.5 382.55 222.25 382.55 218.0 381.0 215.0 379.5 212.0 377.35 212.0 L376.65 212.1" fill="#000000" fill-rule="evenodd" stroke="none"/>
  </g>
</svg>
