<?xml version="1.0" encoding="UTF-8" standalone="no"?>
<svg xmlns:xlink="http://www.w3.org/1999/xlink" height="60.45px" width="53.25px" xmlns="http://www.w3.org/2000/svg">
  <g transform="matrix(1.0, 0.0, 0.0, 1.0, -373.3, -162.8)">
    <path d="M386.6 168.25 Q387.25 167.85 387.3 167.35 387.35 166.8 386.5 166.25 L388.25 165.35 Q393.3 163.0 398.65 162.8 398.7 163.75 399.9 163.85 401.1 163.75 401.2 162.8 406.5 163.0 411.55 165.35 L413.35 166.25 Q412.5 166.8 412.55 167.35 412.55 167.85 413.15 168.25 414.65 169.05 415.2 167.45 416.9 168.6 418.25 170.2 421.15 173.2 422.75 176.35 424.1 179.0 424.5 181.85 424.35 183.25 424.35 184.65 412.4 179.65 399.9 179.9 387.45 179.65 375.45 184.65 L375.25 181.85 Q375.7 179.0 377.1 176.35 378.7 173.2 381.55 170.2 L384.55 167.45 Q385.15 169.05 386.6 168.25 M374.4 191.25 L374.4 195.35 Q374.6 201.4 379.1 201.85 L420.7 201.85 Q425.25 201.4 425.45 195.35 L425.45 191.25 426.05 189.2 Q427.05 195.65 425.95 202.05 425.3 205.75 423.95 209.4 L421.55 216.2 Q415.3 223.2 399.9 223.25 384.5 223.2 378.25 216.2 L375.85 209.4 Q374.55 205.75 373.9 202.05 372.8 195.65 373.75 189.2 L374.4 191.25" fill="#000000" fill-rule="evenodd" stroke="none"/>
  </g>
</svg>
