<?xml version="1.0" encoding="UTF-8" standalone="no"?>
<svg xmlns:xlink="http://www.w3.org/1999/xlink" height="53.15px" width="50.85px" xmlns="http://www.w3.org/2000/svg">
  <g transform="matrix(1.0, 0.0, 0.0, 1.0, -374.35, -172.3)">
    <path d="M401.1 172.45 Q401.4 172.2 401.9 172.45 L408.55 172.45 Q411.65 172.85 414.85 174.85 L420.7 179.15 Q423.75 181.65 425.0 185.1 L425.2 188.0 424.8 190.9 Q423.5 195.15 422.95 199.75 L421.3 211.75 Q420.85 214.15 419.7 217.25 418.05 219.9 415.75 221.85 413.35 223.65 410.65 224.6 L404.9 225.45 400.1 225.45 400.1 215.35 401.3 215.35 403.0 215.6 410.9 216.7 Q412.15 215.95 412.7 215.05 413.2 214.05 412.75 213.0 409.4 209.1 408.15 207.05 407.4 205.4 407.75 204.0 408.1 202.25 409.1 201.55 410.8 199.85 412.6 198.7 L414.05 197.7 415.7 194.5 Q415.9 192.75 415.15 191.95 414.5 191.25 413.8 191.15 411.55 190.3 409.4 189.95 L403.95 189.55 395.7 189.5 390.2 189.9 Q387.95 190.25 385.85 191.1 385.0 191.25 384.5 191.9 383.6 192.7 384.0 194.45 L384.15 194.95 385.1 196.9 385.6 197.65 387.1 198.7 390.65 201.55 Q391.55 202.15 391.95 203.95 392.15 205.3 391.65 207.0 L388.25 211.7 387.15 212.95 386.95 213.5 Q386.7 214.2 387.15 215.0 387.55 215.9 389.0 216.65 L396.9 215.6 398.6 215.35 399.85 215.35 399.85 225.45 395.05 225.4 389.35 224.55 Q386.5 223.6 384.25 221.8 381.75 219.85 380.2 217.25 378.85 214.15 378.5 211.7 L376.8 199.7 Q376.05 195.1 374.8 190.9 374.4 189.35 374.4 187.95 374.25 186.4 374.55 185.1 375.65 181.6 378.8 179.1 381.6 176.65 384.6 174.8 387.6 172.8 391.05 172.4 L401.1 172.45" fill="#000000" fill-rule="evenodd" stroke="none"/>
  </g>
</svg>
