<?xml version="1.0" encoding="UTF-8" standalone="no"?>
<svg xmlns:xlink="http://www.w3.org/1999/xlink" height="161.5px" width="43.3px" xmlns="http://www.w3.org/2000/svg">
  <g transform="matrix(1.0, 0.0, 0.0, 1.0, -331.2, -235.15)">
    <path d="M349.65 261.5 Q350.5 251.55 354.65 243.15 L374.5 235.15 370.55 251.4 Q367.1 255.35 366.95 260.55 L366.95 261.2 366.95 261.45 367.1 263.75 367.2 264.1 Q367.6 266.35 368.75 268.35 L367.25 271.25 352.4 298.45 351.95 299.2 Q354.25 305.0 355.25 312.15 L346.2 327.1 Q345.35 336.45 345.3 343.05 345.2 349.65 345.4 352.8 345.6 355.95 345.95 358.05 L358.0 362.4 364.15 366.55 367.3 372.75 Q364.1 374.45 361.2 369.9 L355.9 369.3 355.9 373.75 356.85 378.75 359.5 383.55 363.1 386.75 Q365.5 392.55 361.2 394.65 L354.25 388.65 349.25 383.0 347.65 378.55 343.75 376.5 343.2 379.45 344.65 386.1 347.7 392.05 Q347.8 393.35 347.15 394.6 346.35 396.1 344.45 396.65 L339.4 387.5 337.3 381.3 336.5 376.1 332.95 327.55 Q327.75 308.5 338.1 296.0 342.05 277.95 349.65 261.5" fill="#000000" fill-rule="evenodd" stroke="none"/>
  </g>
</svg>
