<?xml version="1.0" encoding="UTF-8" standalone="no"?>
<svg xmlns:xlink="http://www.w3.org/1999/xlink" height="124.5px" width="26.3px" xmlns="http://www.w3.org/2000/svg">
  <g transform="matrix(1.0, 0.0, 0.0, 1.0, -334.3, -260.05)">
    <path d="M354.75 260.8 L357.45 260.05 343.15 300.5 341.95 296.95 354.75 260.8 M349.75 302.3 Q349.15 314.7 343.5 327.2 L344.5 327.15 344.5 329.6 334.85 329.85 334.3 327.5 341.3 327.25 Q345.7 316.3 346.7 305.3 L349.75 302.3 M346.0 359.55 Q342.05 361.0 337.45 361.35 L337.15 359.25 344.25 358.3 346.0 359.55 M355.9 369.1 L360.6 369.3 359.3 372.2 355.9 371.8 354.25 373.8 Q351.2 377.7 345.25 376.8 L338.8 375.3 336.7 375.2 336.55 373.35 343.4 374.05 Q350.25 376.85 355.9 369.1 M355.75 361.6 L358.0 362.4 355.9 365.35 355.75 361.6 M349.2 382.15 Q354.35 384.15 357.7 380.0 355.1 386.65 350.5 383.6 L349.2 382.15" fill="#000000" fill-rule="evenodd" stroke="none"/>
  </g>
</svg>
