<?xml version="1.0" encoding="UTF-8" standalone="no"?>
<svg xmlns:xlink="http://www.w3.org/1999/xlink" height="252.0px" width="111.15px" xmlns="http://www.w3.org/2000/svg">
  <g transform="matrix(1.0, 0.0, 0.0, 1.0, -253.55, -183.1)">
    <path d="M330.6 194.15 Q334.4 192.9 338.0 194.7 341.6 196.5 342.85 200.3 344.15 204.1 342.35 207.7 340.55 211.3 336.75 212.55 332.9 213.85 329.35 212.05 325.75 210.25 324.5 206.4 323.25 202.6 325.0 199.0 326.8 195.4 330.6 194.15 M327.7 218.95 Q329.65 229.25 327.5 243.0 L318.55 246.8 311.45 260.95 Q304.15 279.0 297.6 306.4 296.3 313.3 300.05 322.95 L301.5 326.15 307.4 337.45 293.2 388.9 283.0 397.2 279.75 393.25 275.1 370.4 276.05 367.6 268.7 353.5 268.55 353.4 Q267.95 352.25 268.7 350.65 269.45 349.1 271.25 347.95 273.1 346.8 274.85 346.8 276.65 346.85 277.4 348.05 L283.45 355.15 Q285.8 352.85 288.55 352.0 L291.5 353.95 Q293.0 355.25 294.0 356.8 L294.1 355.7 294.4 350.15 Q294.6 347.2 294.05 344.7 L293.15 341.95 Q289.55 332.9 286.3 322.15 283.9 313.15 285.1 307.05 297.6 232.55 324.3 217.25 L327.7 218.95 M329.05 277.45 L337.5 281.85 Q339.55 283.75 340.8 285.7 L338.6 291.15 Q332.1 285.8 321.05 286.15 322.5 282.4 321.65 279.35 324.95 277.8 329.05 277.45 M344.85 244.55 Q343.5 240.55 345.35 236.8 347.25 233.0 351.3 231.7 355.3 230.35 359.05 232.25 362.45 233.95 363.9 237.45 L364.15 238.15 Q365.45 242.15 363.6 245.95 361.7 249.7 357.7 251.0 353.65 252.35 349.9 250.45 346.15 248.6 344.85 244.55 M314.25 215.8 L304.7 234.9 290.45 246.7 284.9 228.85 286.25 226.25 282.8 224.1 277.0 223.85 253.55 201.35 Q259.45 184.45 273.2 183.1 L297.75 206.35 296.75 212.0 300.8 214.0 314.0 212.5 314.25 215.8 M286.0 420.1 Q289.75 419.0 294.25 420.3 298.7 421.6 301.25 424.6 303.85 427.6 303.0 430.5 302.15 433.45 298.35 434.55 294.6 435.7 290.1 434.4 285.65 433.1 283.1 430.05 280.55 427.1 281.35 424.15 282.25 421.25 286.0 420.1" fill="#000000" fill-rule="evenodd" stroke="none"/>
  </g>
</svg>
