<?xml version="1.0" encoding="UTF-8" standalone="no"?>
<svg xmlns:xlink="http://www.w3.org/1999/xlink" height="166.7px" width="44.3px" xmlns="http://www.w3.org/2000/svg">
  <g transform="matrix(1.0, 0.0, 0.0, 1.0, -330.7, -234.65)">
    <path d="M338.1 296.0 L340.75 294.05 Q343.5 300.3 344.6 306.85 349.05 303.95 351.95 299.2 M355.9 369.3 L355.9 365.35 M343.3 375.8 L342.35 373.65 M344.1 376.95 L343.6 376.4 M338.25 373.65 L339.3 376.35 339.75 381.95 340.9 386.5 341.75 387.95 M350.15 377.85 L348.2 376.1 346.35 372.3" fill="none" stroke="#000000" stroke-linecap="round" stroke-linejoin="round" stroke-opacity="0.5019608" stroke-width="1.0"/>
    <path d="M367.25 271.25 L352.4 298.45 351.95 299.2 Q354.25 305.0 355.25 312.15 L346.2 327.1 Q345.35 336.45 345.3 343.05 345.2 349.65 345.4 352.8 345.6 355.95 345.95 358.05 L358.0 362.4 364.15 366.55 365.45 369.1 365.75 369.75 Q369.85 374.25 367.0 379.75 367.5 375.85 366.05 373.2 363.55 373.55 361.2 369.9 L355.9 369.3 355.9 376.95 356.55 380.55 358.3 383.7 360.7 385.85 Q361.9 388.7 360.65 390.2 363.3 394.05 366.9 397.0 361.3 394.9 358.0 389.85 L354.85 387.1 352.25 383.15 350.65 378.9 350.1 381.5 351.6 385.75 353.65 389.35 Q353.9 392.05 352.4 393.2 353.95 397.1 356.25 400.85 352.45 397.9 350.7 393.9 L350.65 393.9 347.25 387.55 345.7 382.2 345.25 378.05 344.1 376.95 343.45 381.15 344.45 385.55 346.45 389.55 Q346.55 390.4 346.1 391.2 L345.6 391.95 Q346.95 396.1 348.35 398.5 345.15 396.45 343.45 391.05 L341.75 387.95 Q341.35 389.2 340.8 389.75 342.15 392.6 344.0 395.1 341.25 393.0 339.8 390.2 L339.25 389.1 337.4 385.75 336.55 380.7 336.5 376.1 332.95 327.55 Q327.75 308.5 338.1 296.0 342.05 277.95 349.65 261.5 350.5 251.55 354.65 243.15 L374.5 235.15 M340.8 389.75 L340.0 388.05 339.2 388.95 339.25 389.1 M352.4 393.2 L351.65 391.25 349.9 391.9 350.7 393.9 M345.6 391.95 L344.85 389.65 343.45 391.05 M360.65 390.2 L359.35 388.15 358.0 389.85 M365.45 369.1 L365.7 369.65 365.75 369.75 M365.7 369.65 L364.1 370.8 Q365.35 371.85 366.05 373.2" fill="none" stroke="#000000" stroke-linecap="round" stroke-linejoin="round" stroke-width="1.0"/>
  </g>
</svg>
