<?xml version="1.0" encoding="UTF-8" standalone="no"?>
<svg xmlns:xlink="http://www.w3.org/1999/xlink" height="14.7px" width="39.0px" xmlns="http://www.w3.org/2000/svg">
  <g transform="matrix(1.0, 0.0, 0.0, 1.0, -380.25, -149.2)">
    <path d="M380.75 152.45 L384.7 151.4 Q399.6 147.95 415.0 151.5 L418.75 152.45 418.75 154.7 418.05 155.9 416.8 157.9 415.0 160.15 Q410.55 165.1 406.4 162.5 400.15 158.05 393.85 162.5 388.95 164.6 384.7 160.0 L383.0 157.8 381.4 155.2 380.95 154.35 380.75 152.45" fill="none" stroke="#000000" stroke-linecap="round" stroke-linejoin="round" stroke-width="1.0"/>
    <path d="M393.65 153.2 Q390.85 152.8 384.7 154.3 L381.4 155.2 M383.0 157.8 L384.7 158.9 Q389.1 161.4 393.1 160.05 M406.05 154.0 Q408.85 153.6 415.0 155.1 L418.05 155.9 M416.8 157.9 L415.0 158.9 Q410.6 161.1 406.65 159.75 M389.05 156.85 Q399.75 154.5 410.2 157.1" fill="none" stroke="#000000" stroke-linecap="round" stroke-linejoin="round" stroke-opacity="0.49803922" stroke-width="1.0"/>
  </g>
</svg>
