<?xml version="1.0" encoding="UTF-8" standalone="no"?>
<svg xmlns:xlink="http://www.w3.org/1999/xlink" height="23.4px" width="56.85px" xmlns="http://www.w3.org/2000/svg">
  <g transform="matrix(1.0, 0.0, 0.0, 1.0, -371.55, -127.65)">
    <path d="M399.95 128.15 Q407.75 128.05 413.55 133.25 418.45 137.5 419.3 143.85 419.8 147.4 423.3 148.65 L427.15 149.95 Q428.35 150.3 427.6 150.55 L399.95 149.7 399.9 149.7 372.35 150.55 Q371.55 150.3 372.75 149.95 L376.65 148.65 Q380.1 147.4 380.6 143.85 381.45 137.5 386.4 133.25 392.2 128.05 399.95 128.15" fill="none" stroke="#000000" stroke-linecap="round" stroke-linejoin="round" stroke-width="1.0"/>
    <path d="M427.15 149.95 L399.95 148.95 399.9 148.95 372.75 149.95" fill="none" stroke="#000000" stroke-linecap="round" stroke-linejoin="round" stroke-opacity="0.5019608" stroke-width="1.0"/>
  </g>
</svg>
