<?xml version="1.0" encoding="UTF-8" standalone="no"?>
<svg xmlns:xlink="http://www.w3.org/1999/xlink" height="39.3px" width="39.6px" xmlns="http://www.w3.org/2000/svg">
  <g transform="matrix(1.0, 0.0, 0.0, 1.0, -380.1, -149.35)">
    <path d="M399.45 158.0 L400.4 158.0 Q401.95 157.85 402.25 158.5 402.65 160.0 403.8 161.65 404.65 162.85 406.1 163.7 407.0 164.35 408.35 164.55 409.9 164.7 411.4 164.05 414.35 162.3 415.35 160.5 417.2 157.2 418.15 153.6 L419.2 149.85 419.2 154.65 419.15 161.25 419.05 170.2 Q419.0 175.55 414.9 179.95 410.8 184.4 407.85 186.05 404.9 187.7 403.05 188.15 L396.75 188.15 Q394.9 187.7 391.95 186.05 389.05 184.4 384.9 179.95 380.8 175.55 380.75 170.2 L380.65 161.25 380.6 154.65 380.6 149.85 381.7 153.6 Q382.65 157.2 384.45 160.5 385.5 162.3 388.4 164.05 389.9 164.7 391.45 164.55 392.85 164.35 393.7 163.7 395.15 162.85 396.05 161.65 397.15 160.0 397.55 158.5 397.9 157.85 399.45 158.0" fill="none" stroke="#000000" stroke-linecap="round" stroke-linejoin="round" stroke-width="1.0"/>
    <path d="M400.9 167.95 L400.9 162.45 403.3 167.95 400.9 167.95 M398.9 167.95 L398.9 162.45 396.5 167.95 398.9 167.95 M382.45 173.35 L382.3 173.4 382.25 173.6 382.3 173.75 382.45 173.8 382.65 173.75 382.7 173.6 382.65 173.4 382.45 173.35 M404.65 173.85 L406.25 173.85 Q407.7 174.35 407.65 175.6 L407.65 177.25 Q407.6 178.2 405.95 178.9 L405.6 178.9 405.1 178.9 400.6 178.9 400.15 178.9 399.65 178.9 399.2 178.9 394.7 178.9 394.2 178.9 393.85 178.9 Q392.2 178.2 392.15 177.25 L392.15 175.6 Q392.1 174.35 393.6 173.85 L395.2 173.85 395.7 173.85 399.2 173.85 399.65 173.85 400.15 173.85 400.6 173.85 404.15 173.85 404.65 173.85 405.6 178.9 M400.15 173.85 L400.15 178.9 M400.6 178.9 L400.6 173.85 M399.2 173.85 L399.2 178.9 M399.65 178.9 L399.65 173.85 M399.9 185.0 L402.8 184.8 Q403.7 184.0 402.8 183.2 L399.9 183.05 397.05 183.2 Q396.15 184.0 397.05 184.8 L399.9 185.0 M385.6 179.0 L385.8 178.9 385.85 178.7 385.8 178.55 385.6 178.45 385.4 178.55 385.35 178.7 385.4 178.9 385.6 179.0 M394.7 178.9 L395.7 173.85 M395.2 173.85 L394.2 178.9 M417.5 173.4 L417.6 173.6 417.5 173.75 417.35 173.8 417.15 173.75 417.1 173.6 417.15 173.4 417.35 173.35 417.5 173.4 M413.95 178.7 L414.0 178.55 414.2 178.45 414.4 178.55 414.45 178.7 414.4 178.9 414.2 179.0 414.0 178.9 413.95 178.7 M405.1 178.9 L404.15 173.85" fill="none" stroke="#000000" stroke-linecap="round" stroke-linejoin="round" stroke-opacity="0.49803922" stroke-width="1.0"/>
  </g>
</svg>
