<?xml version="1.0" encoding="UTF-8" standalone="no"?>
<svg xmlns:xlink="http://www.w3.org/1999/xlink" height="35.5px" width="44.3px" xmlns="http://www.w3.org/2000/svg">
  <g transform="matrix(1.0, 0.0, 0.0, 1.0, -378.15, -129.0)">
    <path d="M394.15 130.65 L394.1 130.6 Q393.8 130.35 393.8 129.95 L393.8 129.9 393.85 129.65 394.1 129.25 394.8 129.0 405.0 129.0 Q405.45 129.0 405.7 129.25 L405.95 129.55 406.0 129.9 406.0 129.95 405.75 130.55 405.7 130.6 405.0 130.85 394.8 130.85 394.15 130.65 M383.0 154.3 L383.0 161.35 Q383.0 162.65 382.2 163.55 381.45 164.45 380.3 164.5 379.15 164.45 378.35 163.55 L378.2 163.35 Q380.3 157.85 378.15 152.35 L378.35 152.1 Q379.15 151.15 380.3 151.2 381.45 151.15 382.2 152.1 383.0 153.0 383.0 154.3 M422.2 152.1 L422.45 152.35 Q420.3 157.85 422.35 163.35 L422.2 163.55 Q421.4 164.45 420.25 164.5 419.1 164.45 418.35 163.55 417.55 162.65 417.55 161.35 L417.55 154.3 Q417.55 153.0 418.35 152.1 419.1 151.15 420.25 151.2 421.4 151.15 422.2 152.1" fill="#000000" fill-rule="evenodd" stroke="none"/>
  </g>
</svg>
