<?xml version="1.0" encoding="UTF-8" standalone="no"?>
<svg xmlns:xlink="http://www.w3.org/1999/xlink" height="202.75px" width="216.35px" xmlns="http://www.w3.org/2000/svg">
  <g transform="matrix(1.0, 0.0, 0.0, 1.0, -291.7, -152.6)">
    <path d="M338.35 197.45 Q344.05 194.9 349.95 192.75 M341.0 260.55 Q333.7 273.95 322.8 286.3 L326.75 291.85 M325.6 319.65 Q321.95 325.95 317.3 332.25 M406.05 154.05 L399.9 153.1 393.65 154.05 M379.8 184.3 Q371.85 185.9 364.2 188.1 M435.55 188.1 Q427.9 185.9 419.95 184.3 M449.8 192.75 Q455.7 194.9 461.4 197.45 M482.45 332.25 Q477.8 325.95 474.15 319.65 M473.0 291.85 Q474.75 289.05 476.95 286.3 466.05 273.95 458.75 260.55 M492.75 205.15 Q486.8 199.85 478.6 198.0 M307.0 205.15 Q312.95 199.85 321.15 198.0" fill="none" stroke="#000000" stroke-linecap="round" stroke-linejoin="round" stroke-width="1.0"/>
    <path d="M349.95 192.75 L349.25 199.5 Q347.15 220.9 347.65 245.95 344.8 253.35 341.0 260.55 M326.75 291.85 Q324.75 305.35 325.6 319.65 M317.3 332.25 Q314.05 311.45 316.75 292.85 329.25 262.3 332.75 231.1 332.9 213.5 338.35 197.45 M393.65 154.05 L393.65 240.1 399.85 240.05 399.85 206.15 Q397.85 206.1 396.8 204.15 M364.2 188.1 Q363.2 193.95 362.5 200.2 L377.3 201.4 Q377.95 194.95 379.15 188.85 L379.8 184.3 M419.95 184.3 L420.6 188.85 Q421.8 194.95 422.45 201.4 L437.25 200.2 435.55 188.1 M461.4 197.45 Q466.85 213.5 467.0 231.1 470.5 262.3 483.0 292.85 485.7 311.45 482.45 332.25 M474.15 319.65 Q475.0 305.35 473.0 291.85 M458.75 260.55 Q454.95 253.35 452.1 245.95 452.6 220.9 450.5 199.5 L449.8 192.75 M478.6 198.0 Q483.0 218.7 481.7 241.15 487.05 243.5 493.0 244.7 L493.0 244.65 Q496.4 223.95 492.75 205.15 M467.0 231.1 Q459.8 243.25 452.1 245.95 M450.5 199.5 L456.5 199.3 M422.45 201.4 Q424.4 220.0 422.1 241.5 430.15 242.6 438.35 244.6 439.5 220.45 437.25 200.2 M431.05 307.8 Q432.1 286.2 435.15 264.65 L433.85 265.2 M428.6 269.3 L423.35 284.25 M422.1 241.5 Q421.4 250.15 420.85 258.9 425.1 260.75 428.6 263.5 M476.95 286.3 L483.0 292.85 M435.15 264.65 Q436.55 254.65 438.35 244.6 M406.05 154.05 L406.05 240.1 406.05 255.4 406.05 309.4 M399.85 206.15 Q401.85 206.1 402.9 204.15 M362.5 200.2 Q360.25 220.45 361.4 244.6 369.6 242.6 377.65 241.5 375.35 220.0 377.3 201.4 M332.75 231.1 Q339.95 243.25 347.65 245.95 M349.25 199.5 L343.25 199.3 M371.15 263.5 Q374.7 260.75 378.9 258.9 L377.65 241.5 M361.4 244.6 Q363.2 254.65 364.6 264.65 L365.9 265.2 M395.95 255.25 L393.65 255.4 393.65 309.4 M371.15 269.3 L376.4 284.25 M393.65 255.4 L393.65 240.1 M406.05 240.1 Q402.95 240.0 399.85 240.05 M364.6 264.65 Q367.65 286.2 368.7 307.8 M399.85 256.75 L399.85 307.05 M377.2 289.5 L379.15 305.5 M380.7 308.9 Q380.45 283.6 378.9 258.9 M420.85 258.9 Q419.3 283.6 419.05 308.9 M422.55 289.5 L420.6 305.5 M406.05 255.4 L403.75 255.25 M481.7 241.15 Q483.25 262.8 493.3 284.45 L493.3 284.5 Q496.95 281.2 501.25 278.3 493.95 261.5 493.0 244.7 M493.3 284.5 Q498.1 294.85 496.05 311.0 L489.35 350.65 488.65 353.0 Q493.2 354.75 497.6 354.85 L498.65 352.0 507.1 311.25 Q509.3 292.25 501.25 278.3 M321.15 198.0 Q316.75 218.7 318.05 241.15 316.5 262.8 306.45 284.45 L306.45 284.5 Q301.65 294.85 303.7 311.0 L310.4 350.65 311.15 353.0 Q306.55 354.7 302.15 354.85 L301.1 352.0 292.65 311.25 Q290.45 292.25 298.5 278.3 305.8 261.5 306.75 244.7 L306.75 244.65 Q303.35 223.95 307.0 205.15 M318.05 241.15 Q312.7 243.5 306.75 244.7 M322.8 286.3 L316.75 292.85 M298.5 278.3 Q302.8 281.2 306.45 284.5" fill="none" stroke="#000000" stroke-linecap="round" stroke-linejoin="round" stroke-opacity="0.5019608" stroke-width="1.0"/>
  </g>
</svg>
