<?xml version="1.0" encoding="UTF-8" standalone="no"?>
<svg xmlns:xlink="http://www.w3.org/1999/xlink" height="75.45px" width="211.2px" xmlns="http://www.w3.org/2000/svg">
  <g transform="matrix(1.0, 0.0, 0.0, 1.0, -294.25, -193.6)">
    <path d="M458.7 260.5 Q454.9 253.3 452.05 245.95 459.75 243.25 466.95 231.1 M501.8 218.0 Q496.6 216.25 489.4 216.1 493.4 224.1 493.0 232.95 488.25 230.1 479.0 230.9 479.95 245.75 475.9 259.15 472.45 251.45 463.75 245.15 464.95 257.05 463.45 268.55 M332.75 231.1 Q339.95 243.25 347.65 245.95 344.8 253.3 341.0 260.5 M336.25 268.55 Q334.75 257.05 335.95 245.15 327.25 251.45 323.8 259.15 319.75 245.75 320.7 230.9 311.45 230.1 306.7 232.95 306.3 224.1 310.3 216.1 303.1 216.25 297.9 218.0" fill="none" stroke="#000000" stroke-linecap="round" stroke-linejoin="round" stroke-opacity="0.5019608" stroke-width="1.0"/>
    <path d="M463.45 268.55 Q460.9 264.55 458.7 260.5 M341.0 260.5 L336.25 268.55 M297.9 218.0 Q296.2 218.55 294.75 219.25 300.25 203.5 315.75 196.7 L310.85 194.1 Q327.25 194.4 338.3 197.45 M461.4 197.45 Q472.45 194.4 488.85 194.1 L483.95 196.7 Q499.45 203.5 504.95 219.25 503.5 218.55 501.8 218.0" fill="none" stroke="#000000" stroke-linecap="round" stroke-linejoin="round" stroke-width="1.0"/>
  </g>
</svg>
