<?xml version="1.0" encoding="UTF-8" standalone="no"?>
<svg xmlns:xlink="http://www.w3.org/1999/xlink" height="157.9px" width="230.75px" xmlns="http://www.w3.org/2000/svg">
  <g transform="matrix(1.0, 0.0, 0.0, 1.0, -284.5, -196.95)">
    <path d="M338.4 197.4 L376.7 209.05 Q376.5 211.8 376.45 214.6 376.15 227.4 377.65 241.45 L378.5 252.35 Q367.0 256.1 359.65 261.25 353.9 265.3 350.7 270.25 345.1 265.9 341.05 260.55 L341.0 260.55 Q337.7 266.65 333.65 272.5 328.75 279.55 322.85 286.3 L322.8 286.3 Q330.2 295.45 332.35 305.65 L332.35 305.7 Q329.35 313.2 325.0 320.65 321.55 326.45 317.3 332.25 317.2 334.15 317.25 336.0 317.3 338.6 317.7 341.1 L318.1 343.3 Q318.7 345.95 319.65 348.5 307.55 356.65 296.7 354.35 L294.8 353.1 284.95 309.3 Q284.45 305.95 284.5 302.7 284.6 292.05 290.5 282.45 L288.2 275.7 294.85 267.3 296.15 262.85 Q298.25 254.35 298.45 245.85 L298.45 245.7 Q295.65 235.55 296.15 227.2 296.5 221.45 298.45 216.55 301.25 210.9 305.15 206.9 316.8 194.75 338.35 197.4 L338.4 197.4 M467.7 231.75 L467.0 231.1 466.5 231.9 467.7 231.75 M422.15 241.45 Q423.65 227.4 423.35 214.6 L423.1 209.05 461.4 197.45 Q482.9 194.75 494.6 206.9 498.5 210.9 501.3 216.55 503.25 221.45 503.6 227.2 504.1 235.55 501.3 245.7 L501.3 245.85 Q501.5 254.35 503.6 262.85 L504.9 267.3 511.55 275.7 509.25 282.45 Q515.15 292.05 515.25 302.7 515.3 305.95 514.8 309.3 L504.95 353.1 503.05 354.35 Q492.2 356.65 480.1 348.5 L481.65 343.3 482.05 341.1 482.5 336.0 482.45 332.25 Q478.2 326.45 474.75 320.65 470.4 313.2 467.4 305.7 L467.4 305.65 Q469.55 295.45 476.95 286.3 L476.9 286.3 Q471.0 279.55 466.1 272.5 462.05 266.65 458.75 260.55 454.65 265.9 449.1 270.25 445.9 265.3 440.15 261.25 432.8 256.1 421.3 252.35 L422.15 241.45 M332.75 231.1 L332.05 231.75 333.25 231.9 332.75 231.1" fill="#000000" fill-rule="evenodd" stroke="none"/>
  </g>
</svg>
