<?xml version="1.0" encoding="UTF-8" standalone="no"?>
<svg xmlns:xlink="http://www.w3.org/1999/xlink" height="72.85px" width="142.15px" xmlns="http://www.w3.org/2000/svg">
  <g transform="matrix(1.0, 0.0, 0.0, 1.0, -328.8, -197.4)">
    <path d="M466.95 231.15 Q459.8 243.2 452.1 245.95 454.95 253.35 458.75 260.55 454.65 265.9 449.1 270.25 445.9 265.3 440.15 261.25 432.8 256.1 421.3 252.35 L422.15 241.45 Q423.65 227.4 423.35 214.6 L423.1 209.05 461.4 197.45 461.95 200.75 Q466.2 202.45 468.4 205.65 474.1 213.65 466.95 231.15 M377.65 241.45 L378.5 252.35 Q367.0 256.1 359.65 261.25 353.9 265.3 350.7 270.25 345.1 265.9 341.05 260.55 344.8 253.35 347.7 245.9 339.95 243.2 332.8 231.1 325.65 213.6 331.35 205.6 333.55 202.4 337.8 200.7 L338.4 197.4 376.7 209.05 Q376.5 211.8 376.45 214.6 376.15 227.4 377.65 241.45" fill="#000000" fill-rule="evenodd" stroke="none"/>
  </g>
</svg>
