<?xml version="1.0" encoding="UTF-8" standalone="no"?>
<svg xmlns:xlink="http://www.w3.org/1999/xlink" height="56.65px" width="134.25px" xmlns="http://www.w3.org/2000/svg">
  <g transform="matrix(1.0, 0.0, 0.0, 1.0, -332.75, -190.0)">
    <path d="M352.75 191.75 L357.8 190.05 353.75 209.5 Q379.0 217.8 399.85 234.9 420.7 217.8 445.95 209.5 L441.95 190.0 447.0 191.7 456.5 211.5 Q465.15 219.55 467.0 231.15 459.8 243.25 452.1 245.95 447.6 247.45 443.0 245.8 420.8 239.75 399.85 240.05 378.95 239.75 356.75 245.8 352.15 247.45 347.65 245.95 339.95 243.25 332.75 231.1 334.55 219.55 343.2 211.5 L352.75 191.75" fill="#000000" fill-rule="evenodd" stroke="none"/>
  </g>
</svg>
