<?xml version="1.0" encoding="UTF-8" standalone="no"?>
<svg xmlns:xlink="http://www.w3.org/1999/xlink" height="156.3px" width="77.8px" xmlns="http://www.w3.org/2000/svg">
  <g transform="matrix(1.0, 0.0, 0.0, 1.0, -361.0, -153.1)">
    <path d="M399.9 153.1 Q413.55 154.1 417.8 162.25 L420.0 184.25 Q427.95 185.85 435.6 188.05 L437.3 200.15 Q439.55 220.45 438.4 244.55 L438.4 244.6 Q436.6 254.6 435.2 264.6 432.2 286.15 431.1 307.8 L399.9 309.35 368.7 307.8 Q367.65 286.15 364.6 264.6 363.2 254.6 361.4 244.55 360.25 220.4 362.5 200.15 363.2 193.9 364.2 188.05 371.85 185.85 379.8 184.25 L382.05 162.25 Q386.25 154.1 399.9 153.1" fill="#000000" fill-rule="evenodd" stroke="none"/>
  </g>
</svg>
