<?xml version="1.0" encoding="UTF-8" standalone="no"?>
<svg xmlns:xlink="http://www.w3.org/1999/xlink" height="89.75px" width="186.0px" xmlns="http://www.w3.org/2000/svg">
  <g transform="matrix(1.0, 0.0, 0.0, 1.0, -306.8, -271.85)">
    <path d="M449.9 280.65 Q462.9 274.95 479.85 271.85 480.6 279.5 481.95 285.35 483.9 294.0 487.2 298.6 L485.0 301.65 485.6 302.75 Q489.4 309.3 492.8 315.8 492.15 323.85 489.65 334.4 488.05 341.05 485.7 348.7 L481.45 361.6 Q475.3 361.9 468.7 358.05 469.1 353.2 468.85 348.25 468.45 342.05 466.95 335.7 L461.7 320.8 Q462.2 313.2 465.85 303.75 461.25 298.45 457.5 293.1 453.1 286.9 449.9 280.65 M342.15 293.1 Q338.35 298.45 333.75 303.75 337.4 313.2 337.9 320.8 L332.65 335.7 Q331.15 342.05 330.8 348.25 330.5 353.2 330.9 358.05 324.3 361.9 318.15 361.6 L313.9 348.7 Q311.55 341.05 310.0 334.4 307.45 323.85 306.8 315.8 310.2 309.3 314.0 302.75 L314.6 301.65 312.4 298.6 Q315.7 294.0 317.7 285.35 319.0 279.5 319.75 271.85 336.7 274.95 349.7 280.65 346.5 286.9 342.15 293.1" fill="#000000" fill-rule="evenodd" stroke="none"/>
  </g>
</svg>
