<?xml version="1.0" encoding="UTF-8" standalone="no"?>
<svg xmlns:xlink="http://www.w3.org/1999/xlink" height="20.2px" width="187.0px" xmlns="http://www.w3.org/2000/svg">
  <g transform="matrix(1.0, 0.0, 0.0, 1.0, -306.3, -301.15)">
    <path d="M333.75 303.75 Q337.4 313.2 337.9 320.8 M306.8 315.8 Q310.2 309.3 314.0 302.75 L314.6 301.65 M485.0 301.65 L485.6 302.75 Q489.4 309.3 492.8 315.8 M461.7 320.8 Q462.2 313.2 465.85 303.75" fill="none" stroke="#000000" stroke-linecap="round" stroke-linejoin="round" stroke-width="1.0"/>
    <path d="M333.75 303.75 L326.25 303.7 Q328.2 306.0 329.4 308.5 L333.75 303.75 M337.9 320.8 Q321.55 321.4 306.8 315.8 M314.6 301.65 Q320.45 303.25 326.25 303.7 M465.85 303.75 Q469.6 303.95 473.35 303.7 479.15 303.25 485.0 301.65 M492.8 315.8 Q478.05 321.4 461.7 320.8 M465.85 303.75 L470.2 308.5 Q471.4 306.0 473.35 303.7" fill="none" stroke="#000000" stroke-linecap="round" stroke-linejoin="round" stroke-opacity="0.5019608" stroke-width="1.0"/>
  </g>
</svg>
