<?xml version="1.0" encoding="UTF-8" standalone="no"?>
<svg xmlns:xlink="http://www.w3.org/1999/xlink" height="412.45px" width="196.65px" xmlns="http://www.w3.org/2000/svg">
  <g transform="matrix(1.0, 0.0, 0.0, 1.0, -66.85, -67.5)">
    <path d="M198.7 89.95 Q195.65 90.15 193.15 91.85 187.35 95.95 188.85 105.8 L188.15 105.75 Q184.65 106.05 185.6 111.35 186.05 113.95 186.85 115.65 187.35 116.6 188.5 116.95 L186.25 134.6 Q180.05 139.0 171.75 140.75 156.55 146.2 146.3 152.5 142.7 178.0 147.75 207.8 140.5 217.25 137.95 226.65 139.4 242.9 148.4 259.15 L152.05 265.35 152.65 266.35 Q151.05 275.0 150.2 282.35 L160.05 288.85 Q161.95 291.5 165.1 290.2 L165.65 291.8 167.8 291.35 170.0 290.85 Q169.85 286.85 170.0 282.8 L170.05 282.8 Q171.55 283.65 172.85 283.75 174.05 283.85 174.95 283.05 L175.55 282.35 173.0 278.65 174.45 272.0 161.15 265.25 Q160.9 260.15 160.95 255.4 161.05 240.4 164.05 228.35 162.8 221.45 159.2 214.55 164.8 199.75 169.15 185.5 176.5 197.0 189.85 205.45 191.75 218.55 189.85 233.9 177.2 272.75 175.95 316.1 165.95 324.15 158.75 335.8 L154.85 421.15 Q142.6 442.65 146.3 455.3 148.7 460.25 153.7 465.1 160.45 460.05 164.25 453.95 163.05 437.6 164.25 423.15 L183.8 345.1 183.8 330.25 184.75 328.9 187.65 317.55 Q198.75 299.15 207.8 280.75 L208.85 318.85 Q201.25 329.9 198.1 341.5 199.15 363.4 203.6 384.15 207.15 401.75 208.05 419.3 205.55 429.15 205.85 439.0 L216.2 439.0 Q233.45 449.05 247.85 445.55 266.5 456.6 262.95 479.95 L66.85 479.95 66.85 67.5 211.05 67.5 Q200.1 78.75 198.7 89.95" fill="#010101" fill-opacity="0.2509804" fill-rule="evenodd" stroke="none"/>
    <path d="M167.8 291.35 L165.65 291.8 165.1 290.2 Q161.95 291.5 160.05 288.85 L150.2 282.35 Q151.05 275.0 152.65 266.35 L152.05 265.35 148.4 259.15 Q139.4 242.9 137.95 226.65 140.5 217.25 147.75 207.8 142.7 178.0 146.3 152.5 156.55 146.2 171.75 140.75 180.05 139.0 186.25 134.6 L188.5 116.95 Q187.35 116.6 186.85 115.65 186.05 113.95 185.6 111.35 184.65 106.05 188.15 105.75 L188.85 105.8 Q187.35 95.95 193.15 91.85 195.65 90.15 198.7 89.95 192.25 99.05 199.95 107.2 196.45 112.85 200.3 117.5 200.05 127.45 205.6 137.45 201.65 134.55 198.45 131.25 L193.65 130.85 Q195.25 138.05 199.25 145.15 L201.4 148.95 Q187.75 146.45 169.15 146.35 160.25 148.95 154.4 154.65 146.5 183.45 154.4 214.3 L151.65 211.85 Q146.75 219.55 145.35 227.25 144.85 242.65 152.0 258.0 L152.95 260.05 153.05 260.25 153.25 260.65 155.95 265.65 161.3 285.95 163.4 285.95 Q164.75 285.7 165.95 284.9 L167.8 291.35 M237.55 276.75 Q237.75 273.8 238.55 270.95 L239.45 267.8 Q240.45 264.8 241.95 261.85 L237.45 242.3 Q238.4 227.25 239.6 218.5 L244.65 260.25 245.9 274.45 245.85 274.6 245.05 274.15 243.4 274.05 242.55 272.95 Q241.65 272.05 240.8 272.3 L237.55 276.75 M247.85 445.55 Q233.45 449.05 216.2 439.0 L205.85 439.0 Q205.55 429.15 208.05 419.3 207.15 401.75 203.6 384.15 199.15 363.4 198.1 341.5 201.25 329.9 208.85 318.85 L207.8 280.75 Q213.25 269.75 217.95 258.7 L214.4 318.4 Q207.7 329.95 205.25 341.55 L212.65 417.65 Q210.95 423.15 211.3 433.0 L218.35 433.0 Q229.6 442.6 247.85 445.55 M153.7 465.1 Q148.7 460.25 146.3 455.3 142.6 442.65 154.85 421.15 L158.75 335.8 Q165.95 324.15 175.95 316.1 177.2 272.75 189.85 233.9 191.75 218.55 189.85 205.45 176.5 197.0 169.15 185.5 L173.5 170.35 168.4 166.75 188.95 176.3 Q199.0 179.85 216.5 176.3 L227.6 175.55 Q236.25 175.45 242.5 177.75 L251.0 176.15 247.35 180.8 240.75 180.45 Q233.5 179.15 226.25 179.15 218.85 179.05 211.55 180.45 192.35 184.1 185.65 178.9 184.35 197.85 204.45 206.3 201.8 207.85 199.15 207.45 199.45 223.7 195.15 239.95 182.9 281.35 180.95 322.75 L176.55 325.6 165.35 336.4 158.9 422.45 Q151.7 435.85 150.1 449.25 L153.7 465.1" fill="#010101" fill-opacity="0.2509804" fill-rule="evenodd" stroke="none"/>
    <path d="M198.7 89.95 Q204.2 89.6 211.65 94.3 218.05 98.8 218.5 110.25 L217.05 113.6 Q218.2 116.8 217.4 120.4 215.25 128.9 211.35 137.45 L210.1 137.45 210.1 140.0 Q230.5 144.95 250.35 152.2 257.55 173.55 248.95 203.95 L254.95 214.95 Q250.7 236.9 251.6 258.8 L251.65 259.95 251.65 260.25 251.75 261.65 261.25 271.05 Q258.4 274.7 257.5 280.45 L255.55 280.45 255.65 283.25 Q255.1 286.05 252.25 285.8 250.6 285.5 250.05 284.45 247.6 285.5 246.2 284.75 245.15 284.05 244.65 282.4 242.9 283.0 241.9 282.4 240.95 281.85 240.45 280.45 239.05 280.25 238.35 279.65 237.25 278.6 237.55 276.75 L240.8 272.3 Q241.65 272.05 242.55 272.95 L243.4 274.05 245.05 274.15 245.85 274.6 245.9 274.65 245.9 274.45 244.65 260.25 239.6 218.5 Q238.4 227.25 237.45 242.3 237.1 248.5 237.45 258.8 L237.5 259.95 237.5 260.25 237.65 263.75 Q237.75 271.9 235.3 280.1 L232.9 286.85 232.15 288.45 231.95 288.95 223.15 311.0 223.15 325.0 222.5 326.8 Q223.55 341.85 221.85 356.85 218.55 379.6 219.1 415.75 L232.1 430.85 247.85 445.55 Q229.6 442.6 218.35 433.0 L211.3 433.0 Q210.95 423.15 212.65 417.65 L205.25 341.55 Q207.7 329.95 214.4 318.4 L217.95 258.7 Q213.25 269.75 207.8 280.75 198.75 299.15 187.65 317.55 L184.75 328.9 183.8 330.25 183.8 345.1 164.25 423.15 Q163.05 437.6 164.25 453.95 160.45 460.05 153.7 465.1 L150.1 449.25 Q151.7 435.85 158.9 422.45 L165.35 336.4 176.55 325.6 180.95 322.75 Q182.9 281.35 195.15 239.95 199.45 223.7 199.15 207.45 201.8 207.85 204.45 206.3 184.35 197.85 185.65 178.9 192.35 184.1 211.55 180.45 218.85 179.05 226.25 179.15 233.5 179.15 240.75 180.45 L247.35 180.8 251.0 176.15 242.5 177.75 Q236.25 175.45 227.6 175.55 L216.5 176.3 Q199.0 179.85 188.95 176.3 L168.4 166.75 173.5 170.35 169.15 185.5 Q164.8 199.75 159.2 214.55 162.8 221.45 164.05 228.35 161.05 240.4 160.95 255.4 160.9 260.15 161.15 265.25 L174.45 272.0 173.0 278.65 175.55 282.35 174.95 283.05 Q174.05 283.85 172.85 283.75 171.55 283.65 170.05 282.8 L170.0 282.8 Q169.85 286.85 170.0 290.85 L167.8 291.35 165.95 284.9 Q164.75 285.7 163.4 285.95 L161.3 285.95 155.95 265.65 153.25 260.65 153.05 260.25 152.95 260.05 152.0 258.0 Q144.85 242.65 145.35 227.25 146.75 219.55 151.65 211.85 L154.4 214.3 Q146.5 183.45 154.4 154.65 160.25 148.95 169.15 146.35 187.75 146.45 201.4 148.95 L199.25 145.15 Q195.25 138.05 193.65 130.85 L198.45 131.25 Q201.65 134.55 205.6 137.45 200.05 127.45 200.3 117.5 196.45 112.85 199.95 107.2 192.25 99.05 198.7 89.95" fill="#010101" fill-opacity="0.0" fill-rule="evenodd" stroke="none"/>
    <path d="M245.9 274.45 L245.9 274.65 245.85 274.6 245.9 274.45" fill="#cc9966" fill-rule="evenodd" stroke="none"/>
    <path d="M201.2 96.4 L201.0 97.15 200.65 97.15 199.95 97.15 198.25 100.9 197.7 102.15 196.55 100.85 188.05 98.5 M207.05 106.9 Q207.3 104.3 209.35 102.35 L210.25 101.65 210.45 101.5 Q212.45 100.1 215.0 100.1 M201.2 96.4 L202.65 91.3 M207.05 106.9 L207.0 107.75 207.0 113.15 208.0 113.15 211.2 113.15 211.2 116.65 212.1 116.8 213.55 116.8 215.5 118.9 216.55 120.05 M207.0 115.5 L207.0 116.25 202.75 116.25 201.75 116.25 201.75 122.3 201.75 123.05 203.45 125.15 207.0 125.15 208.0 125.15 212.35 125.15 214.3 128.15 M207.0 115.5 L207.0 113.15 M207.0 135.25 L207.0 136.0 206.15 136.0 205.45 136.0 204.6 138.2 M208.0 132.3 L207.0 131.45 207.0 135.25 M208.0 132.3 L210.3 134.2 212.1 134.2 M207.0 125.15 L207.0 131.45 M209.1 147.0 L211.7 147.0 211.7 150.2 216.6 150.2 217.4 149.45 222.7 144.45 M203.25 142.9 Q205.8 143.85 209.1 143.85 M203.25 142.9 L202.25 142.45 202.25 150.0 M207.0 107.75 L197.7 106.85 197.7 102.15 M196.65 131.15 L196.65 124.0 196.15 122.15 Q196.15 120.35 194.2 119.05 L193.15 118.5 191.9 118.1 189.45 117.8 M189.75 109.0 L192.5 112.2 193.15 112.2 193.15 117.4 193.15 118.5 M197.6 123.05 L197.65 123.05 201.75 123.05 M197.6 123.05 L196.65 123.05 196.65 124.0 M164.45 157.05 L164.45 156.35 163.2 151.85 168.15 147.1 165.15 143.6 M186.45 147.9 L184.85 144.8 184.3 144.8 183.15 143.4 Q180.75 143.4 179.0 142.25 177.3 141.15 177.3 139.55 M190.9 124.4 L190.9 125.8 188.7 128.95 188.7 129.75 Q191.6 133.7 190.0 137.05 L190.35 137.35 193.65 140.35 195.5 140.35 193.25 148.55 M189.0 138.55 L188.05 139.3 186.6 139.3 185.25 135.35 M190.0 137.05 L189.25 138.25 189.15 138.35 189.0 138.55 M200.05 134.55 Q200.45 136.05 199.0 138.2 L198.85 138.45 198.9 138.75 Q199.05 140.75 201.85 142.25 L202.25 142.45 M198.3 139.15 L198.85 138.45 M196.35 140.3 L196.75 140.15 197.65 139.7 198.3 139.15 M196.35 140.3 L195.5 140.35 M180.45 165.7 Q181.8 164.85 183.65 164.55 L185.6 164.4 184.85 163.75 183.3 151.1 180.35 149.05 179.65 147.45 M198.8 168.0 L197.75 168.25 198.65 183.75 199.85 186.1 204.4 186.1 204.4 192.25 204.4 193.0 204.4 193.75 Q204.2 197.6 202.3 200.45 L201.0 202.1 Q200.2 202.8 199.3 203.15 L198.35 203.45 197.35 203.55 197.35 208.75 198.75 210.45 199.25 210.45 201.85 213.35 201.85 214.35 201.85 214.95 202.0 214.95 189.8 216.5 M185.6 164.4 L197.75 168.25 M159.0 156.8 L164.45 158.0 164.45 157.05 M159.0 156.8 L158.25 156.65 155.3 168.25 155.1 168.9 143.85 170.05 M168.8 162.3 L168.8 158.0 164.45 158.0 M166.25 162.8 L166.75 162.8 167.55 162.95 168.8 163.4 168.8 162.3 M167.4 167.5 L165.25 166.95 165.25 163.15 Q165.45 162.85 166.25 162.8 M176.75 174.1 Q176.25 170.85 178.45 167.6 179.1 166.65 180.0 166.0 L180.45 165.7 M162.05 174.25 L169.95 180.25 M175.35 187.45 L174.6 187.45 172.9 192.65 M175.35 187.45 L183.2 187.45 183.2 186.7 183.2 180.7 184.2 180.7 186.25 180.7 M174.6 187.45 L174.6 180.0 170.65 177.95 M184.25 187.5 L183.2 187.45 183.6 194.95 183.6 195.7 183.05 195.7 182.45 195.7 180.1 199.8 M184.25 187.5 L194.1 188.05 194.1 193.0 194.3 193.0 204.4 193.0 205.4 193.0 208.8 193.0 211.3 194.9 211.3 198.1 M189.45 197.5 L194.1 193.0 M162.05 174.25 L161.35 173.7 158.75 184.05 158.55 184.8 155.6 184.8 154.75 184.8 153.95 184.8 154.6 185.55 164.65 197.15 M233.45 150.0 L233.85 149.25 M245.9 156.15 L249.45 153.05 M233.45 150.0 L232.45 151.8 232.45 152.9 244.25 156.9 245.05 156.9 245.9 156.15 M232.45 151.8 L232.45 150.7 230.15 149.4 228.95 149.65 M219.3 156.65 L219.4 157.25 236.05 166.7 237.0 166.5 238.0 166.3 248.0 164.2 M237.0 166.5 L237.0 167.0 236.85 167.85 237.4 168.4 242.85 174.0 247.05 179.0 248.15 179.3 M234.6 171.35 L233.8 171.95 232.4 172.8 Q229.7 174.2 226.15 174.2 M236.85 167.85 L236.3 169.3 234.6 171.35 M216.6 150.2 L216.6 152.2 M218.25 152.3 L219.3 156.65 M208.5 158.75 L219.4 157.25 M207.5 165.1 L207.5 158.9 207.5 150.85 M207.5 158.9 L208.5 158.75 M207.5 165.1 L207.5 165.55 198.8 168.0 M224.85 183.55 L224.85 182.1 225.85 181.95 226.2 181.75 226.0 181.35 225.25 179.9 M233.65 200.6 L233.65 201.35 228.1 201.35 Q222.2 201.35 218.0 199.45 213.8 197.55 213.8 194.9 L213.8 184.3 214.8 184.3 224.85 184.3 224.85 183.55 M219.1 190.0 L218.45 190.4 M234.0 192.1 L234.4 190.6 234.4 186.7 232.9 185.35 232.9 180.25 M224.85 186.35 L224.85 186.5 226.6 190.0 227.35 191.1 229.45 191.1 231.0 192.8 232.7 192.9 233.9 192.3 234.0 192.1 M235.4 186.7 L234.4 186.7 M223.55 187.15 L224.85 186.5 M247.55 191.7 L241.85 190.9 241.85 186.7 235.4 186.7 M224.85 186.35 L224.85 184.3 M249.0 167.9 L252.1 165.55 M247.9 184.0 L252.1 184.0 M249.45 198.95 L247.65 198.95 247.65 197.8 244.85 197.8 M239.75 181.2 L246.35 181.55 M158.25 156.65 L147.7 154.3 146.65 154.3 145.3 153.25 M143.85 179.05 L150.7 179.05 150.7 184.8 153.95 184.8 151.7 193.6 151.5 194.35 144.8 194.35 M151.65 208.45 L151.5 207.7 151.5 194.35 M161.35 173.7 L155.1 168.9 M152.4 208.15 L155.45 209.6 156.65 210.95 156.65 212.0 159.1 213.0 M144.25 212.25 L148.6 210.1 149.6 209.65 151.65 208.75 151.65 208.45 M148.6 221.55 L148.6 222.3 151.3 222.3 151.3 232.8 162.0 233.85 M148.6 222.3 L147.85 222.3 146.85 222.3 146.85 230.2 146.85 230.75 140.95 231.8 139.95 231.95 139.95 233.15 138.95 235.05 138.25 236.1 138.5 237.2 M148.6 221.55 L148.6 210.1 M152.4 208.15 L151.5 207.7 M154.25 257.1 L154.25 255.5 152.0 248.1 149.7 240.75 146.85 240.75 146.85 230.75 M153.2 248.1 L154.95 248.1 160.3 246.3 M153.2 248.1 L152.0 248.1 M154.25 257.1 L154.25 257.55 154.1 258.9 155.75 265.95 155.9 266.55 156.95 266.45 160.15 266.0 M148.75 258.75 L150.35 258.75 154.25 257.55 M147.4 259.9 L148.35 258.75 148.75 258.75 M156.9 276.65 L155.9 266.55 151.65 267.1 M166.9 273.95 L167.65 272.95 167.65 272.45 168.5 271.8 168.5 270.25 M164.95 285.65 L160.35 277.4 156.95 277.4 151.4 277.4 M160.35 277.4 L161.4 276.75 165.3 274.35 165.7 274.6 166.15 274.85 166.9 273.95 M156.9 276.65 L156.95 277.4 M156.9 355.5 L158.55 356.3 159.3 356.7 159.75 355.65 162.85 348.15 167.55 341.1 167.55 338.45 169.65 332.95 167.9 332.15 162.4 329.7 M159.3 356.7 L159.3 360.25 156.4 365.85 161.35 370.0 162.65 370.0 162.65 380.05 162.65 380.95 161.35 380.75 160.5 380.6 157.85 394.75 161.5 399.0 161.85 397.5 162.85 392.95 163.55 393.5 165.2 394.75 165.6 393.55 169.2 382.05 162.65 380.95 M160.3 404.35 L161.5 399.0 M246.2 206.85 L246.2 206.15 247.2 205.45 247.35 205.35 248.05 204.8 M246.2 206.85 L246.2 207.6 244.75 207.6 243.75 208.35 242.75 209.05 242.75 214.1 242.75 215.6 240.9 214.15 Q240.75 213.45 240.05 212.95 M246.45 226.3 L247.3 224.5 247.3 220.15 248.3 220.15 253.15 220.15 M246.45 226.3 L246.0 227.25 242.5 225.8 241.5 225.4 242.75 215.6 M248.85 238.1 L249.4 237.65 Q249.55 237.35 250.1 237.15 L251.05 236.9 M246.75 238.4 L247.85 238.85 248.85 238.1 M246.75 238.4 L245.75 237.95 245.75 246.05 245.75 246.5 245.75 256.4 245.75 257.05 250.5 256.55 M245.95 262.4 L244.95 262.4 244.95 263.65 244.95 265.0 240.95 262.6 M245.95 262.4 L250.75 262.4 M253.2 273.4 L251.85 270.1 252.85 269.35 255.65 267.3 M256.45 274.8 L257.5 274.15 258.75 274.15 M254.1 276.4 L254.1 276.2 255.1 275.6 256.45 274.8 M254.1 276.4 L254.1 277.15 252.85 277.15 M251.45 277.15 L251.45 279.25 254.55 281.2 M207.35 203.8 L211.1 206.65 212.5 206.65 212.5 209.4 226.4 211.15 236.25 206.35 241.65 207.1 M233.65 200.6 L233.65 198.4 234.65 198.1 237.95 197.1 M223.15 229.3 L224.4 222.1 223.65 222.1 215.05 218.45 203.55 218.45 203.55 214.75 202.0 214.95 M226.65 220.6 L227.6 219.85 229.05 218.7 M225.75 221.2 L225.55 221.45 225.4 221.55 224.4 222.1 M226.65 220.6 L226.6 220.6 225.9 220.6 225.8 221.0 225.75 221.2 M229.5 218.35 L234.45 214.6 M234.0 215.7 L236.75 215.7 236.9 217.05 238.8 218.05 M212.6 226.05 L221.2 230.05 222.05 230.05 223.0 230.05 223.15 229.3 M212.6 226.05 L211.9 225.7 209.45 233.85 209.15 234.7 205.9 234.2 204.9 234.0 200.65 233.25 200.65 228.9 197.45 228.65 196.55 228.55 189.45 227.85 M205.6 269.2 L203.0 271.1 201.95 271.8 205.15 274.05 207.4 274.05 208.5 275.0 M202.3 258.5 L209.05 248.75 208.35 240.45 204.9 240.45 204.9 234.0 M221.2 230.05 L219.9 235.65 219.9 236.6 226.35 237.75 223.95 245.75 224.15 245.95 227.75 249.6 M241.5 232.85 L241.5 225.4 M245.75 237.95 L241.5 234.4 237.3 230.9 M241.5 234.4 L241.5 232.85 M223.0 230.05 L227.65 228.25 229.4 227.3 231.8 233.4 237.15 233.4 M231.7 242.2 L236.45 243.05 M184.7 201.85 L183.8 202.7 M188.85 206.2 L197.35 203.55 M199.85 241.85 L199.95 243.1 187.95 237.45 M195.9 235.25 L195.75 236.45 196.7 237.1 Q199.35 239.15 199.85 241.85 M195.75 236.45 Q195.2 236.1 194.65 235.85 192.05 234.65 188.85 234.65 M195.9 235.25 L196.55 228.55 M195.4 255.85 L194.7 255.4 191.55 268.15 191.5 268.25 191.0 268.6 186.05 271.8 185.1 272.4 182.35 282.2 183.15 282.6 184.9 283.65 181.65 293.15 181.05 294.9 183.35 295.75 184.1 296.05 187.45 297.3 187.8 296.3 189.55 290.7 191.5 287.35 189.1 286.4 189.1 277.55 190.1 277.55 192.95 277.55 193.9 279.3 202.3 290.3 M195.4 255.85 L201.6 259.45 202.0 258.9 202.3 258.5 M202.3 259.3 L202.0 258.9 M193.25 276.8 L196.3 269.35 192.3 269.35 191.0 268.6 M196.7 268.6 L201.6 259.45 M196.7 268.6 L196.3 269.35 M194.7 255.4 Q194.7 251.0 192.1 247.85 189.5 244.75 185.8 244.75 M173.5 272.85 L170.8 274.8 169.75 275.5 166.15 274.85 M167.1 283.6 L169.2 282.2 M172.0 279.4 L169.15 281.4 M163.65 289.7 L168.95 286.75 M177.35 285.85 L181.05 294.9 M193.25 276.8 L192.95 277.55 M180.7 307.25 L180.4 308.4 179.6 307.95 178.8 307.45 177.5 315.5 177.35 316.25 176.15 322.95 177.0 323.05 185.2 323.95 M185.1 272.4 L180.9 275.0 M245.75 246.5 L239.3 248.5 237.7 248.5 M230.7 256.35 L233.1 258.15 234.4 258.15 236.5 261.3 M226.25 260.9 L230.35 256.35 230.7 256.35 M225.25 269.8 L225.25 270.85 223.9 278.2 224.85 277.75 232.6 273.85 235.95 273.85 M225.25 253.2 L225.25 262.0 226.25 260.9 M225.25 269.8 L225.25 262.0 M216.85 248.85 L220.55 249.8 221.25 249.0 223.95 245.75 M212.6 252.55 L213.55 251.7 216.7 248.8 216.85 248.85 M216.95 259.45 L216.05 258.3 216.05 257.0 215.25 257.0 214.15 254.75 M219.0 268.4 L220.25 268.4 220.25 269.4 225.25 270.85 M213.2 274.75 L212.55 275.5 209.75 275.5 M219.0 268.4 L218.65 268.4 213.2 274.75 M221.95 288.75 L221.85 289.1 217.5 290.9 216.5 291.3 207.25 295.25 M214.45 314.45 L214.45 303.25 215.9 296.5 216.5 296.5 216.5 291.3 M221.95 288.75 L223.9 278.2 M240.9 278.0 L238.15 275.25 M208.2 267.3 L202.3 259.3 M215.45 303.8 L217.05 304.7 221.35 309.5 M215.45 303.8 L214.45 303.25 M211.45 320.8 L211.45 315.2 212.45 315.2 214.45 315.2 214.45 322.55 Q216.65 323.85 217.65 323.7 L217.0 331.8 217.45 332.1 Q218.5 332.8 219.4 332.95 L221.8 332.85 M211.45 320.8 L211.45 322.25 207.85 319.6 M214.45 314.45 L214.45 315.2 M212.45 336.6 L211.45 337.3 210.55 346.1 210.45 346.85 209.4 356.45 220.85 357.6 M212.45 336.6 L215.6 334.35 215.65 334.3 217.0 331.8 M206.25 370.25 L205.85 365.85 204.1 346.85 204.1 339.35 202.65 339.35 199.15 336.0 M211.45 337.3 L206.85 337.3 206.85 321.15 M187.45 297.3 L186.1 304.55 186.95 304.65 194.15 305.45 M186.1 304.55 L183.8 316.75 184.6 317.55 185.55 318.0 186.65 318.3 M180.7 307.25 L183.35 295.75 M177.35 316.25 L174.95 316.25 M175.7 325.7 L175.55 326.35 168.9 326.9 167.9 326.95 167.9 330.95 167.9 332.15 M175.7 325.7 L176.15 322.95 M170.25 333.25 L169.65 332.95 M170.25 333.25 L173.45 334.65 173.45 348.5 174.35 348.1 179.5 345.65 M182.8 344.05 L181.5 344.7 M198.9 363.3 Q201.05 364.05 201.45 364.95 L201.45 367.35 203.5 371.0 206.3 371.0 206.25 370.25 M172.0 352.65 L173.4 348.7 173.45 348.5 M162.85 348.15 L163.4 348.5 171.6 353.75 172.0 352.65 M169.5 381.2 L171.2 375.75 173.15 369.4 167.85 364.4 171.6 353.75 M171.8 376.2 L171.2 375.75 M169.5 381.2 L169.2 382.05 M165.7 406.5 L169.25 399.95 M171.8 376.2 L174.65 378.35 M205.2 346.85 L204.1 346.85 M205.2 346.85 L210.45 346.85 M205.85 365.85 L206.9 365.85 211.75 365.85 211.75 370.55 219.4 370.55 M206.3 371.0 L206.75 376.15 211.15 376.15 211.15 388.7 211.15 389.45 218.25 391.25 M209.2 400.75 L209.2 389.45 210.2 389.45 211.15 389.45 M215.45 419.1 L218.2 416.6 M245.75 272.15 L239.0 267.05 M245.75 257.05 L241.05 257.55 M212.05 439.75 L207.95 437.75 214.65 426.4 210.9 423.3 214.5 419.9 210.3 414.5 213.25 407.1 213.25 403.55 209.2 401.9 205.2 400.25 204.75 397.35 M209.2 400.75 L209.2 401.9 M215.45 419.1 L214.5 419.9 M214.65 426.4 L215.05 426.7 230.7 439.65 230.75 439.7 231.2 439.4 Q233.85 437.5 237.45 437.5 M230.75 439.7 L230.6 439.8 Q227.75 442.15 227.75 445.4 M165.7 406.5 L165.2 407.4 160.8 405.85 160.05 405.55 160.05 405.5 158.1 414.2 158.9 414.2 161.1 414.2 165.2 416.2 M160.3 404.35 L160.05 405.5 154.75 402.4 M157.55 417.35 L157.55 418.6 157.55 424.5 158.55 424.4 163.25 423.9 M158.1 414.2 L157.55 416.55 157.55 417.35 M157.55 418.6 L154.1 416.8 M154.75 432.8 L155.75 432.45 156.3 432.45 157.55 432.45 157.55 431.7 157.55 424.5 M155.7 440.85 L155.9 440.55 156.35 440.1 156.8 439.95 157.35 439.7 162.65 437.5 M156.35 440.1 L156.35 440.6 156.35 448.95 Q155.9 449.85 156.4 450.65 L156.55 450.8 156.85 451.15 Q158.25 452.35 158.7 454.25 L161.3 457.55 M155.7 440.85 L155.2 441.6 153.75 441.6 153.75 433.15 147.5 435.2 M153.75 433.15 L154.75 432.8 M154.8 452.35 L154.6 452.5 151.65 454.55 149.8 454.55 149.6 454.55 146.2 457.7 147.1 459.3 M154.8 452.35 L156.4 450.65" fill="none" stroke="#ffffff" stroke-linecap="round" stroke-linejoin="round" stroke-opacity="0.2509804" stroke-width="1.0"/>
    <path d="M201.2 96.4 L202.0 96.4 203.65 90.55 M200.65 97.15 L198.7 101.4 198.7 106.1 207.05 106.9 208.0 107.0 208.05 106.15 Q208.35 103.55 210.35 101.6 L210.45 101.5 Q211.4 100.65 212.5 100.15 214.05 99.35 216.0 99.35 M200.65 97.15 L200.95 96.4 201.2 96.4 M208.0 113.15 L208.0 112.4 208.0 107.0 M217.55 119.3 L216.5 118.15 214.55 116.05 213.1 116.05 212.2 115.9 212.2 112.4 208.0 112.4 M208.0 113.15 L208.0 115.5 207.0 115.5 202.75 115.5 202.75 116.25 202.75 122.3 204.45 124.4 208.0 124.4 213.35 124.4 215.3 127.4 M208.0 125.15 L208.0 124.4 M208.0 125.15 L208.0 130.7 211.3 133.45 213.1 133.45 M206.15 136.0 L205.6 137.45 M207.0 135.25 L206.45 135.25 206.15 136.0 M207.0 135.25 L208.0 135.25 208.0 132.3 208.0 130.7 M201.05 133.8 Q201.45 135.3 200.0 137.45 L199.85 137.7 199.9 138.2 Q200.2 140.1 202.85 141.5 L203.25 141.7 204.5 142.25 Q206.95 143.1 210.1 143.1 M217.4 149.45 L212.7 149.45 212.7 146.25 210.1 146.25 M203.25 141.7 L203.25 142.9 203.25 149.25 M223.55 143.55 L222.7 144.45 217.6 149.45 217.6 151.45 M198.25 100.9 L197.55 100.1 189.05 97.75 M198.25 100.9 L198.7 101.4 M193.15 117.4 L194.15 117.75 194.15 111.45 193.5 111.45 190.75 108.25 M193.15 117.4 L190.45 117.05 M194.15 117.75 L195.2 118.3 Q197.15 119.6 197.15 121.4 L197.6 123.05 197.65 123.25 197.65 130.4 M197.65 123.05 L197.65 122.3 201.75 122.3 202.75 122.3 M197.65 123.05 L197.65 123.25 M164.45 157.05 L165.45 157.25 165.45 155.6 164.2 151.1 169.15 146.35 166.15 142.85 M184.85 163.75 L186.6 163.65 185.9 163.05 185.85 163.0 184.3 150.35 181.35 148.3 180.65 146.7 M187.45 147.15 L185.85 144.05 185.3 144.05 184.15 142.65 Q181.75 142.65 180.0 141.5 178.3 140.4 178.3 138.8 M190.35 137.35 L191.0 136.3 Q192.6 132.95 189.7 129.0 L189.7 128.2 191.9 125.05 191.9 123.65 M190.35 137.35 L190.15 137.6 190.0 137.8 189.05 138.55 189.0 138.55 187.6 138.55 186.25 134.6 M198.9 138.75 L199.0 138.65 199.85 137.7 M198.3 139.15 L198.9 138.75 M198.3 139.15 L197.6 139.45 196.5 139.6 196.35 140.3 194.25 147.8 M196.5 139.6 L194.65 139.6 191.0 136.3 M184.85 163.75 Q183.4 163.95 182.25 164.5 181.25 164.95 180.45 165.7 L179.45 166.85 Q177.25 170.1 177.75 173.35 M204.4 192.25 L205.4 192.25 205.4 185.35 200.85 185.35 199.65 183.0 198.8 168.0 198.75 167.5 186.6 163.65 M164.45 157.05 L159.25 155.9 159.0 156.8 156.1 168.15 162.35 172.95 162.05 174.25 159.55 184.05 158.75 184.05 154.95 184.05 151.7 184.05 151.7 178.3 144.85 178.3 M155.3 168.25 L156.1 168.15 M168.8 162.3 L169.8 162.65 169.8 157.25 165.45 157.25 M168.8 162.3 L167.75 162.05 167.5 162.05 Q166.45 162.05 166.25 162.4 L166.25 162.8 166.25 166.2 168.4 166.75 M175.35 187.45 L173.9 191.9 M183.2 186.7 L175.6 186.7 175.35 187.45 M184.2 180.7 L184.2 179.95 187.25 179.95 M171.65 177.2 L175.6 179.25 175.6 186.7 M184.25 187.5 L184.2 186.7 183.2 186.7 M183.6 194.95 L184.6 194.95 184.25 187.5 M194.3 193.0 L195.1 192.25 195.1 187.3 184.2 186.7 184.2 180.7 M183.05 195.7 L181.1 199.05 M183.6 194.95 L183.45 194.95 183.05 195.7 M189.45 197.5 L194.3 193.0 M204.4 192.25 L195.1 192.25 M170.95 179.5 L162.35 172.95 M234.85 148.5 L233.45 151.05 233.45 152.15 245.25 156.15 245.9 156.15 246.05 156.15 249.45 153.05 250.35 152.2 M233.45 151.05 L233.45 150.0 233.45 149.95 231.15 148.65 229.95 148.9 M238.0 166.3 L238.0 165.75 237.05 165.95 220.4 156.5 219.3 156.65 208.5 158.15 208.5 158.75 208.5 164.8 207.5 165.1 198.75 167.5 M237.4 168.4 L237.85 167.1 238.0 166.3 M234.6 171.35 L234.65 171.3 234.8 171.2 Q236.6 169.95 237.4 168.4 M217.6 149.45 L217.4 149.45 M220.4 156.5 L219.25 151.55 M208.5 158.15 L208.5 150.1 M214.8 184.3 L214.8 183.55 224.85 183.55 225.85 183.55 225.85 181.95 225.85 181.35 226.0 181.35 227.1 181.1 227.2 181.0 226.25 179.15 M201.0 202.1 L201.55 201.65 203.3 199.7 Q205.2 196.85 205.4 193.0 L205.4 192.25 209.8 192.25 212.3 194.15 212.3 197.35 M223.55 187.15 L222.0 188.1 221.35 188.5 M220.7 188.9 L219.45 189.65 M233.65 200.6 L229.1 200.6 Q223.2 200.6 219.0 198.7 214.8 196.8 214.8 194.15 L214.8 184.3 M235.4 186.7 L235.4 185.95 233.9 184.6 233.9 179.5 M234.0 192.1 L232.0 192.05 230.45 190.35 228.35 190.35 227.6 189.25 225.85 185.75 224.85 186.35 223.55 187.15 M234.0 192.1 L234.9 191.55 235.4 189.85 235.4 186.7 M248.55 190.95 L242.85 190.15 242.85 185.95 235.4 185.95 M234.65 198.1 L234.65 197.65 238.95 196.35 M225.85 183.55 L225.85 185.75 M234.6 171.35 Q231.5 173.45 227.15 173.45 M248.9 183.25 L253.1 183.25 M250.45 198.2 L248.65 198.2 248.65 197.05 245.85 197.05 M237.85 167.1 L243.85 173.25 248.05 178.25 249.15 178.55 M240.75 180.45 L247.35 180.8 M238.0 165.75 L249.0 163.45 M146.3 152.5 L147.65 153.55 148.7 153.55 159.25 155.9 M155.3 168.25 L144.85 169.3 M154.6 185.55 L154.75 184.8 154.95 184.05 155.6 184.8 165.65 196.4 M151.7 193.6 L152.5 193.6 154.6 185.55 M151.7 193.6 L145.8 193.6 M160.1 212.25 L157.65 211.25 157.65 210.2 156.45 208.85 152.5 206.95 152.65 207.8 152.65 208.0 152.4 208.15 151.65 208.45 149.6 209.35 145.15 211.3 M149.6 209.65 L149.6 209.35 M147.85 222.3 L147.85 230.0 147.85 240.0 150.7 240.0 153.0 247.35 155.95 247.35 161.3 245.55 M147.85 222.3 L147.85 221.55 148.6 221.55 149.6 221.55 152.3 221.55 152.3 232.05 163.0 233.1 M149.6 209.65 L149.6 221.55 M140.95 231.8 L140.95 231.2 146.85 230.2 147.85 230.0 M140.95 231.8 L140.95 232.4 139.95 234.3 Q139.5 234.6 139.25 235.35 L139.5 236.45 M155.75 265.95 L156.9 265.8 155.1 258.15 155.25 256.8 154.25 257.1 151.35 258.0 149.35 258.0 148.75 258.75 148.4 259.15 M153.2 248.1 L155.25 254.75 155.25 256.8 M156.9 265.8 L161.15 265.25 M155.75 265.95 L152.65 266.35 M156.95 266.45 L156.9 265.8 M156.95 266.45 L157.95 276.65 161.35 276.65 166.3 273.6 166.35 273.6 166.9 273.95 167.15 274.1 168.65 272.2 168.65 271.7 169.5 271.05 169.5 269.5 M156.9 276.65 L152.4 276.65 M161.4 276.75 L161.35 276.65 M157.95 276.65 L156.9 276.65 M153.0 247.35 L153.2 248.1 M159.75 355.65 L157.9 354.75 M162.65 380.05 L163.65 380.2 163.65 369.25 162.35 369.25 157.4 365.1 160.3 359.5 160.3 355.95 159.75 355.65 M162.65 380.05 L161.5 379.85 161.35 380.75 158.85 394.0 161.85 397.5 162.5 398.25 161.05 404.75 161.05 404.8 165.7 406.5 166.2 406.65 170.25 399.2 M163.55 393.5 L163.85 392.2 165.6 393.55 166.2 394.0 170.2 381.3 169.5 381.2 163.65 380.2 M248.05 204.8 L248.95 203.95 M247.2 205.45 L247.2 206.85 246.2 206.85 245.75 206.85 243.75 208.3 243.75 208.35 243.75 214.85 242.5 224.65 246.45 226.3 247.0 226.5 248.3 223.75 248.3 220.15 248.3 219.4 254.15 219.4 M242.5 225.8 L242.5 233.65 246.75 237.2 248.85 238.1 250.1 237.15 250.4 236.9 Q250.65 236.45 251.55 236.25 L252.05 236.15 M246.75 237.2 L246.75 238.4 246.75 245.75 245.75 246.05 240.3 247.75 238.7 247.75 M245.75 256.4 L246.75 256.3 246.75 245.75 M246.75 256.3 L251.5 255.8 M244.95 263.65 L245.95 264.25 245.95 262.4 245.95 261.65 251.75 261.65 M244.95 263.65 L241.95 261.85 M255.65 267.3 L256.65 266.55 M258.5 273.4 L259.75 273.4 M254.1 276.4 L253.7 276.4 M255.1 275.6 L255.1 275.45 256.45 274.8 M255.1 275.6 L255.1 276.4 254.1 276.4 M252.45 276.4 L252.45 278.5 255.55 280.45 M252.85 269.35 L254.2 272.65 M208.35 203.05 L212.1 205.9 213.5 205.9 213.5 208.65 227.4 210.4 237.25 205.6 242.65 206.35 M234.65 198.1 L234.65 200.6 233.65 200.6 M227.6 219.85 L226.9 219.85 226.65 220.6 226.55 220.7 225.75 221.2 225.4 221.35 225.4 221.55 224.0 229.3 228.65 227.5 230.4 226.55 232.8 232.65 238.15 232.65 M198.35 203.45 L198.35 208.0 199.75 209.7 200.25 209.7 202.85 212.6 202.85 214.2 203.0 214.2 204.55 214.0 204.55 217.7 216.05 217.7 224.65 221.35 225.4 221.35 M229.05 218.7 L229.5 218.35 M234.45 214.6 L235.45 213.8 M242.75 214.1 L241.9 213.4 Q241.75 212.7 241.05 212.2 M235.0 214.95 L237.75 214.95 237.9 216.3 239.8 217.3 M242.75 214.1 L243.75 214.85 M222.05 230.05 L222.2 229.3 212.9 224.95 212.6 226.05 210.15 233.95 209.45 233.85 205.9 233.25 201.65 232.5 201.65 228.15 197.55 227.8 197.45 228.65 196.75 235.7 197.7 236.35 Q200.3 238.35 200.8 240.95 L200.95 242.35 199.85 241.85 188.95 236.7 M223.15 229.3 L222.2 229.3 M224.15 245.95 L224.95 245.0 227.35 237.0 220.9 235.85 220.9 234.9 222.05 230.05 M205.9 234.2 L205.9 233.25 M205.9 234.2 L205.9 239.7 209.35 239.7 210.05 248.0 203.0 258.15 209.2 266.55 208.2 267.3 205.6 269.2 202.95 271.05 203.0 271.1 206.15 273.3 208.4 273.3 209.5 274.25 M241.5 232.85 L238.3 230.15 M242.5 224.65 L242.5 225.8 M241.5 232.85 L242.5 233.65 M224.0 229.3 L223.15 229.3 M232.7 241.45 L237.45 242.3 M201.0 202.1 L199.6 202.65 198.35 202.8 198.35 203.45 M201.85 214.35 L203.0 214.2 M201.85 214.35 L190.8 215.75 M198.35 202.8 L189.85 205.45 M196.75 235.7 L195.9 235.25 Q193.25 233.9 189.85 233.9 M195.4 255.85 L195.7 254.65 Q195.7 250.25 193.1 247.1 190.5 244.0 186.8 244.0 M197.55 227.8 L190.45 227.1 M191.55 268.15 L192.0 267.85 192.5 267.5 195.4 255.85 M202.3 258.5 L195.7 254.65 M191.55 268.15 L186.1 271.65 186.05 271.8 183.35 281.45 184.15 281.85 185.9 282.9 182.05 294.15 184.35 295.0 184.1 296.05 181.4 307.65 180.7 307.25 179.8 306.7 179.6 307.95 178.35 315.5 177.15 322.2 186.2 323.2 M196.7 268.6 L197.3 268.6 202.3 259.3 202.6 258.7 202.3 258.5 M192.0 267.85 L193.3 268.6 196.7 268.6 M180.9 275.0 L179.75 275.7 M167.15 274.1 L170.8 274.8 M181.65 293.15 L178.35 285.1 M181.65 293.15 L182.05 294.15 M203.3 289.55 L194.9 278.55 193.95 276.8 193.25 276.8 190.1 276.8 190.1 277.55 190.1 285.65 192.5 286.6 190.55 289.95 188.45 296.55 187.8 296.3 184.35 295.0 M173.5 272.85 L174.55 272.15 M197.3 268.6 L193.95 276.8 M180.9 275.0 L186.1 271.65 M230.7 256.35 L231.35 255.6 231.7 255.6 234.1 257.4 235.4 257.4 237.5 260.55 M230.7 256.35 L226.25 261.25 226.25 270.1 224.9 277.45 233.6 273.1 236.95 273.1 M226.25 270.1 L225.25 269.8 221.25 268.65 221.25 267.65 219.65 267.65 219.0 268.4 213.55 274.75 213.2 274.75 210.75 274.75 M224.85 277.75 L224.9 277.45 M226.25 260.9 L226.25 261.25 M226.25 260.9 L226.25 252.45 M221.25 249.0 L217.7 248.05 216.85 248.85 213.55 251.7 M221.25 249.0 L221.55 249.05 224.15 245.95 M217.95 258.7 L217.05 257.55 217.05 256.25 216.25 256.25 215.15 254.0 M203.0 258.15 L202.6 258.7 M217.5 290.9 L217.5 295.75 216.9 295.75 215.45 302.5 218.05 303.95 222.35 308.75 M217.5 290.9 L217.5 290.55 Q212.85 292.4 208.15 294.3 M217.5 290.55 L221.95 288.75 222.85 288.35 224.85 277.75 M241.9 277.25 L239.15 274.5 M228.75 248.85 L224.95 245.0 M215.45 302.5 L215.45 303.8 215.45 314.45 214.45 314.45 212.45 314.45 212.45 315.2 212.45 321.5 211.45 320.8 208.85 318.85 M217.45 332.1 L218.0 331.05 218.65 322.95 Q217.65 323.1 215.45 321.8 L215.45 314.45 M215.65 334.3 L216.6 333.6 217.45 332.1 M218.0 331.05 L218.65 331.45 Q219.6 332.05 220.4 332.2 L222.8 332.1 M212.45 336.6 L212.45 336.55 207.85 336.55 207.85 320.4 M210.55 346.1 L211.45 346.1 212.45 336.6 M215.65 334.3 L212.45 336.55 M205.2 346.85 L205.1 346.1 205.1 338.6 203.65 338.6 200.15 335.25 M210.55 346.1 L205.1 346.1 M186.95 304.65 L187.1 303.8 188.45 296.55 M186.95 304.65 L184.8 316.0 185.6 316.8 186.55 317.25 187.65 317.55 M187.1 303.8 L195.15 304.7 M177.5 315.5 L178.35 315.5 M177.5 315.5 L175.95 315.5 M177.0 323.05 L177.15 322.2 M168.9 326.9 L168.9 331.4 170.65 332.2 174.45 333.9 174.45 347.75 183.75 343.2 M177.0 323.05 L176.55 325.6 175.7 325.7 168.9 326.2 168.9 326.9 M167.9 330.95 L168.9 331.4 M170.25 333.25 L170.65 332.2 M167.9 330.95 L163.4 328.95 M163.4 348.5 L163.85 347.4 168.55 340.35 168.55 337.7 170.25 333.25 M174.35 348.1 L174.45 347.75 M206.25 370.25 L204.5 370.25 202.45 366.6 202.45 364.2 Q202.05 363.3 199.9 362.55 M174.35 348.1 L172.6 353.0 168.85 363.65 174.15 368.65 172.2 375.0 175.65 377.6 M172.0 352.65 L163.85 347.4 M172.6 353.0 L172.0 352.65 M171.8 376.2 L170.2 381.3 M163.55 393.5 L162.5 398.25 M172.2 375.0 L171.8 376.2 M211.15 388.7 L212.15 388.7 212.15 375.4 207.75 375.4 207.3 370.25 206.25 370.25 M206.9 365.85 L207.3 370.25 M206.9 365.85 L206.85 365.1 205.2 346.85 M206.85 365.1 L212.75 365.1 212.75 369.8 220.4 369.8 M221.85 356.85 L210.4 355.7 211.45 346.1 M210.2 389.45 L210.2 388.7 211.15 388.7 M210.2 389.45 L210.2 401.15 214.25 402.8 214.25 406.35 211.3 413.75 215.45 419.1 215.5 419.15 218.2 416.6 219.1 415.75 M212.15 388.7 L219.25 390.5 M246.75 271.4 L240.0 266.3 M245.75 256.4 L242.05 256.8 M161.4 276.75 L165.95 284.9 M163.4 348.5 L160.3 355.95 M152.5 206.95 L152.5 193.6 M184.7 201.85 L189.45 197.5 M209.2 400.75 L206.2 399.5 205.75 396.6 M210.2 401.15 L209.2 400.75 M215.05 426.7 L208.95 437.0 213.05 439.0 M215.05 426.7 L215.65 425.65 211.9 422.55 215.5 419.15 M231.2 439.4 L231.6 439.05 231.75 438.95 215.65 425.65 M228.75 444.65 Q228.75 441.65 231.2 439.4 M238.45 436.75 Q235.65 436.75 233.45 437.9 L232.95 438.15 Q232.3 438.5 231.75 438.95 M160.8 405.85 L159.1 413.45 162.1 413.45 166.2 415.45 M158.9 414.2 L159.1 413.45 M160.8 405.85 L161.05 404.75 160.3 404.35 155.75 401.65 M158.55 424.4 L158.55 423.75 158.55 417.85 157.55 417.35 155.1 416.05 M158.9 414.2 L158.55 415.8 158.55 417.85 M157.55 431.7 L156.75 431.7 154.75 432.4 154.75 432.8 154.75 440.85 155.7 440.85 156.2 440.85 156.35 440.6 156.65 440.1 156.8 439.95 157.35 439.35 163.6 436.55 M157.55 431.7 L158.55 431.7 158.55 424.4 M157.35 439.7 L157.35 439.35 M156.55 450.8 L157.4 449.9 Q156.9 449.1 157.35 448.2 L157.35 439.7 M148.5 434.45 L154.75 432.4 M157.4 449.9 L157.65 450.2 157.85 450.4 Q159.25 451.6 159.7 453.5 L162.3 456.8 M149.8 454.55 L147.2 456.95 148.1 458.55 M156.55 450.8 L155.6 451.75 154.8 452.35 152.65 453.8 150.6 453.8 149.8 454.55 M158.55 423.75 L164.25 423.15" fill="none" stroke="#000000" stroke-linecap="round" stroke-linejoin="round" stroke-opacity="0.2509804" stroke-width="1.0"/>
  </g>
</svg>
