<?xml version="1.0" encoding="UTF-8" standalone="no"?>
<svg xmlns:xlink="http://www.w3.org/1999/xlink" height="97.3px" width="104.7px" xmlns="http://www.w3.org/2000/svg">
  <g transform="matrix(1.0, 0.0, 0.0, 1.0, -146.3, -134.6)">
    <path d="M236.0 147.3 L250.35 152.2 248.35 161.55 249.6 165.55 Q250.45 168.75 250.8 171.95 L250.9 173.45 251.0 176.15 249.15 178.55 248.55 190.95 246.9 194.65 245.45 198.1 243.95 202.2 242.7 206.05 241.65 209.7 241.0 212.2 239.95 216.8 239.6 218.5 239.0 223.4 238.65 226.95 238.3 230.75 Q225.5 233.1 190.2 230.75 L190.75 223.3 190.8 217.7 190.55 212.1 189.85 205.45 182.5 200.2 Q178.85 197.25 175.8 194.0 173.3 191.35 171.2 188.5 L169.15 185.5 170.3 181.65 171.0 179.3 172.15 175.25 173.5 170.35 168.4 166.75 167.55 163.0 Q158.55 154.95 146.3 152.5 152.7 148.55 161.05 144.95 166.05 142.8 171.75 140.75 L175.4 139.85 176.45 139.5 Q181.85 137.7 186.25 134.6 190.1 147.2 210.1 146.25 L210.1 140.0 221.6 143.0 Q228.8 145.0 236.0 147.3" fill="#000000" fill-rule="evenodd" stroke="none"/>
  </g>
</svg>
