<?xml version="1.0" encoding="UTF-8" standalone="no"?>
<svg xmlns:xlink="http://www.w3.org/1999/xlink" height="97.3px" width="68.15px" xmlns="http://www.w3.org/2000/svg">
  <g transform="matrix(1.0, 0.0, 0.0, 1.0, -161.05, -134.6)">
    <path d="M208.75 146.3 L208.85 146.55 219.05 151.55 221.25 156.75 Q223.3 160.8 224.8 165.0 226.2 168.9 227.1 172.9 L227.6 175.55 227.8 176.6 226.25 179.15 228.35 190.35 228.9 193.3 Q229.4 197.1 229.1 200.9 L228.35 205.4 226.2 217.4 223.65 231.9 190.2 230.75 190.75 223.3 190.8 217.7 190.55 212.1 189.85 205.45 182.5 200.2 Q178.85 197.25 175.8 194.0 173.3 191.35 171.2 188.5 L169.15 185.5 Q171.75 182.15 173.3 178.8 174.95 175.2 175.4 171.7 L175.5 168.1 Q175.25 162.65 172.1 157.25 170.45 154.45 168.05 151.7 164.8 148.05 161.05 144.95 166.05 142.8 171.75 140.75 L175.4 139.85 176.45 139.5 Q181.85 137.7 186.25 134.6 189.05 143.75 200.3 145.75 L208.75 146.3" fill="#000000" fill-rule="evenodd" stroke="none"/>
  </g>
</svg>
