<?xml version="1.0" encoding="UTF-8" standalone="no"?>
<svg xmlns:xlink="http://www.w3.org/1999/xlink" height="85.8px" width="31.95px" xmlns="http://www.w3.org/2000/svg">
  <g transform="matrix(1.0, 0.0, 0.0, 1.0, -219.05, -146.1)">
    <path d="M238.65 148.15 L240.75 151.1 Q242.85 154.15 244.55 157.3 246.7 161.3 248.25 165.5 249.65 169.35 250.5 173.45 L251.0 176.15 249.15 178.55 248.55 190.95 246.9 194.65 245.45 198.1 243.95 202.2 242.7 206.05 241.65 209.7 241.0 212.2 239.95 216.8 239.6 218.5 239.0 223.4 238.65 226.95 238.3 230.75 223.65 231.9 228.35 205.4 229.1 200.9 Q229.4 197.1 228.9 193.3 L228.35 190.35 226.25 179.15 227.8 176.6 227.6 175.55 227.1 172.9 Q226.2 168.9 224.8 165.0 223.3 160.8 221.25 156.75 L219.05 151.55 Q220.4 151.45 220.95 150.55 L221.6 150.5 225.5 149.65 Q227.6 148.7 229.95 148.9 L232.25 148.95 232.25 146.1 236.0 147.3 238.65 148.15" fill="#000000" fill-rule="evenodd" stroke="none"/>
  </g>
</svg>
