<?xml version="1.0" encoding="UTF-8" standalone="no"?>
<svg xmlns:xlink="http://www.w3.org/1999/xlink" height="144.8px" width="102.4px" xmlns="http://www.w3.org/2000/svg">
  <g transform="matrix(1.0, 0.0, 0.0, 1.0, -145.45, -320.3)">
    <path d="M223.15 321.1 L223.15 325.0 222.5 326.8 Q223.55 341.85 221.85 356.85 218.55 379.6 219.1 415.75 L232.1 430.85 247.85 445.55 Q233.45 449.05 216.2 439.0 L205.85 439.0 Q205.55 429.15 208.05 419.3 207.15 401.75 203.6 384.15 199.15 363.4 198.1 341.5 200.95 331.1 207.35 321.1 217.25 319.5 223.15 321.1 M184.75 328.9 L183.8 330.25 183.8 345.1 164.25 423.15 Q163.05 437.6 164.25 453.95 160.45 460.05 153.7 465.1 148.7 460.25 146.3 455.3 142.6 442.65 154.85 421.15 L158.75 335.8 Q163.85 327.55 170.35 321.1 179.35 320.3 186.2 323.2 L184.75 328.9" fill="#000000" fill-rule="evenodd" stroke="none"/>
  </g>
</svg>
