<?xml version="1.0" encoding="UTF-8" standalone="no"?>
<svg xmlns:xlink="http://www.w3.org/1999/xlink" height="180.5px" width="49.75px" xmlns="http://www.w3.org/2000/svg">
  <g transform="matrix(1.0, 0.0, 0.0, 1.0, -198.1, -265.95)">
    <path d="M231.95 288.95 L223.15 311.0 223.15 325.0 222.5 326.8 Q223.55 341.85 221.85 356.85 218.55 379.6 219.1 415.75 L232.1 430.85 247.85 445.55 Q233.45 449.05 216.2 439.0 L205.85 439.0 Q205.55 429.15 208.05 419.3 207.15 401.75 203.6 384.15 199.15 363.4 198.1 341.5 201.25 329.9 208.85 318.85 L207.8 280.75 211.65 272.85 Q230.3 273.2 237.65 265.95 237.4 273.0 235.3 280.1 L232.9 286.85 232.15 288.45 231.95 288.95" fill="#000000" fill-rule="evenodd" stroke="none"/>
  </g>
</svg>
