<?xml version="1.0" encoding="UTF-8" standalone="no"?>
<svg xmlns:xlink="http://www.w3.org/1999/xlink" height="117.2px" width="102.4px" xmlns="http://www.w3.org/2000/svg">
  <g transform="matrix(1.0, 0.0, 0.0, 1.0, -145.45, -347.9)">
    <path d="M158.15 349.5 L181.75 353.4 164.25 423.15 Q163.95 426.9 163.8 430.8 163.35 441.85 164.25 453.95 160.45 460.05 153.7 465.1 148.7 460.25 146.3 455.3 145.4 452.2 145.45 448.6 145.55 440.9 149.95 430.8 151.95 426.2 154.85 421.15 L151.35 417.45 Q155.35 384.75 153.6 354.1 L158.15 349.5 M201.85 391.45 Q196.95 374.7 194.7 355.8 L198.85 352.5 222.65 347.9 221.85 356.85 Q218.55 379.6 219.1 415.75 L232.05 430.8 247.85 445.55 Q233.45 449.05 216.2 439.0 L205.85 439.0 205.85 435.2 206.1 430.8 Q206.6 425.05 208.05 419.3 L204.55 416.8 Q204.8 404.15 201.85 391.45" fill="#000000" fill-rule="evenodd" stroke="none"/>
  </g>
</svg>
