<?xml version="1.0" encoding="UTF-8" standalone="no"?>
<svg xmlns:xlink="http://www.w3.org/1999/xlink" height="208.8px" width="58.7px" xmlns="http://www.w3.org/2000/svg">
  <g transform="matrix(1.0, 0.0, 0.0, 1.0, -142.95, -259.45)">
    <path d="M176.9 326.6 L176.95 326.6 176.95 326.5 176.9 326.6 M153.65 351.45 Q152.85 337.9 159.6 330.1 L171.45 320.55 171.6 320.4 175.35 315.25 175.75 314.75 177.55 312.2 175.15 312.15 Q175.05 283.4 179.8 259.45 L188.45 263.85 201.65 297.4 191.1 318.85 188.2 314.75 188.5 323.7 Q187.65 327.1 186.05 330.0 187.5 341.85 184.95 355.15 L184.8 355.45 184.9 355.5 169.15 411.65 Q167.55 419.05 168.1 426.35 L163.85 430.75 163.8 430.3 163.8 430.75 Q163.4 440.3 164.05 450.6 L166.15 448.45 166.85 454.55 Q162.8 464.25 153.65 468.25 145.5 462.95 142.95 452.95 L142.95 447.75 145.5 450.3 Q145.05 441.6 150.5 429.6 L151.35 427.75 150.1 429.1 148.9 424.5 Q152.4 417.35 152.55 411.35 155.35 379.3 153.65 351.45 M149.0 452.9 L148.95 452.6 148.8 452.75 149.0 452.9 M151.7 448.8 L151.6 448.8 151.6 448.95 151.7 448.8" fill="#000000" fill-rule="evenodd" stroke="none"/>
  </g>
</svg>
