<?xml version="1.0" encoding="UTF-8" standalone="no"?>
<svg xmlns:xlink="http://www.w3.org/1999/xlink" height="119.2px" width="104.4px" xmlns="http://www.w3.org/2000/svg">
  <g transform="matrix(1.0, 0.0, 0.0, 1.0, -144.45, -346.9)">
    <path d="M158.15 349.5 Q154.5 349.95 153.5 352.95 L152.85 376.6 156.85 377.8 154.85 421.15 Q142.6 442.65 146.3 455.3 L148.1 458.45 Q150.3 461.8 153.7 465.1 157.1 462.55 159.75 459.8 162.35 457.0 164.25 453.95 163.05 437.6 164.25 423.15 L174.9 380.7 178.75 380.85 184.9 358.25 Q184.75 355.15 181.75 353.4 M222.65 347.9 Q225.5 349.0 225.75 352.0 L225.75 375.35 219.85 376.9 Q218.75 393.85 219.1 415.75 L232.1 430.85 247.85 445.55 242.95 446.35 Q230.55 447.35 216.2 439.0 L205.85 439.0 Q205.55 429.15 208.05 419.3 207.15 401.75 203.6 384.15 L202.7 379.8 197.3 380.25 194.35 358.05 Q195.0 354.25 198.85 352.5" fill="none" stroke="#000000" stroke-linecap="round" stroke-linejoin="round" stroke-width="2.0"/>
    <path d="M156.85 377.8 L162.15 379.05 162.55 379.1 169.65 380.25 174.9 380.7 M181.75 353.4 L158.15 349.5 M198.85 352.5 L222.65 347.9 M242.95 446.35 L239.6 443.8 Q224.25 431.65 216.05 417.85 L213.6 378.2 208.9 379.0 202.7 379.8 M219.85 376.9 L213.6 378.2 M159.75 459.8 L160.7 422.8 169.65 380.25 M148.1 458.45 L158.0 422.45 162.55 379.1" fill="none" stroke="#000000" stroke-linecap="round" stroke-linejoin="round" stroke-width="1.0"/>
  </g>
</svg>
