<?xml version="1.0" encoding="UTF-8" standalone="no"?>
<svg xmlns:xlink="http://www.w3.org/1999/xlink" height="102.9px" width="53.6px" xmlns="http://www.w3.org/2000/svg">
  <g transform="matrix(1.0, 0.0, 0.0, 1.0, -197.85, -346.9)">
    <path d="M200.3 365.2 Q199.4 358.9 198.85 352.5 M222.65 347.9 L221.85 356.85 221.25 361.5 220.85 364.75 220.2 371.95 M219.55 382.5 L219.45 385.25 219.4 386.75 M219.15 394.05 L219.1 396.05 219.05 399.6 M219.05 401.65 L219.05 405.1 M219.05 406.6 L219.1 415.75 M208.05 419.3 L207.45 410.3 M205.85 397.1 L205.2 392.8 M205.05 391.85 L204.6 389.25 204.05 386.3 M222.8 442.4 Q236.25 448.35 247.85 445.55 L245.1 443.0 250.45 444.7 248.65 448.15 Q230.65 450.85 216.1 442.2 L203.25 442.2 Q202.75 438.6 205.85 437.3 L205.85 439.0 216.2 439.0 Q219.55 440.95 222.8 442.4 M227.9 425.95 L232.1 430.85 234.15 432.75" fill="none" stroke="#000000" stroke-linecap="round" stroke-linejoin="round" stroke-width="2.0"/>
    <path d="M198.85 352.5 L222.65 347.9 M220.2 371.95 L216.35 378.75 219.55 382.5 M219.4 386.75 L214.75 381.55 209.1 391.45 216.4 398.95 219.15 394.05 M219.05 399.6 L218.4 400.95 219.05 401.65 M219.05 405.1 L217.15 403.35 214.85 407.95 219.05 406.6 M219.1 415.75 Q215.75 418.85 212.2 419.45 L208.05 419.3 M207.45 410.3 L210.75 409.25 215.1 401.4 207.5 394.2 205.85 397.1 M205.2 392.8 L205.5 392.25 205.05 391.85 M204.05 386.3 L207.1 389.45 212.75 379.3 200.3 365.2 204.05 364.55 221.25 361.5 M216.35 378.75 L214.75 381.55 M212.75 379.3 L214.35 376.45 204.05 364.55 M207.5 394.2 L205.5 392.25 M207.1 389.45 L209.1 391.45 M214.35 376.45 L220.85 364.75 M205.85 439.0 Q213.15 436.4 218.6 433.25 224.25 429.9 227.9 425.95 M234.15 432.75 Q232.6 436.15 228.0 439.4 225.75 440.9 222.8 442.4 M217.15 403.35 L215.1 401.4 M218.4 400.95 L216.4 398.95 M214.85 407.95 L210.75 409.25" fill="none" stroke="#000000" stroke-linecap="round" stroke-linejoin="round" stroke-width="1.0"/>
  </g>
</svg>
