<?xml version="1.0" encoding="UTF-8" standalone="no"?>
<svg xmlns:xlink="http://www.w3.org/1999/xlink" height="65.0px" width="38.25px" xmlns="http://www.w3.org/2000/svg">
  <g transform="matrix(1.0, 0.0, 0.0, 1.0, -138.3, -227.8)">
    <path d="M162.45 236.25 Q156.15 233.15 151.6 228.3 L147.15 232.25 142.2 228.6 Q140.1 231.8 139.3 235.55 M150.2 282.35 L158.0 284.65 Q159.7 285.65 161.3 285.95 L163.4 285.95 Q164.75 285.7 165.95 284.9 L166.4 284.6 166.45 284.5 168.1 282.85 M160.05 288.85 L158.0 284.65 M165.1 290.2 L163.4 285.95 M170.05 282.8 Q170.2 278.8 170.75 274.75" fill="none" stroke="#000000" stroke-linecap="round" stroke-linejoin="round" stroke-width="1.0"/>
    <path d="M139.3 235.55 Q141.85 247.35 148.4 259.15 L152.05 265.35 152.65 266.35 Q151.05 275.0 150.2 282.35 L160.05 288.85 Q161.95 291.5 165.1 290.2 L165.65 291.8 170.0 290.85 Q169.85 286.85 170.0 282.8 L170.05 282.8 Q171.55 283.65 172.85 283.75 174.05 283.85 174.95 283.05 L175.55 282.35 173.0 278.65 174.45 272.0 161.15 265.25 Q160.9 260.15 160.95 255.4 161.0 245.15 162.45 236.25" fill="none" stroke="#000000" stroke-linecap="round" stroke-linejoin="round" stroke-width="2.0"/>
  </g>
</svg>
