<?xml version="1.0" encoding="UTF-8" standalone="no"?>
<svg xmlns:xlink="http://www.w3.org/1999/xlink" height="17.0px" width="104.75px" xmlns="http://www.w3.org/2000/svg">
  <g transform="matrix(1.0, 0.0, 0.0, 1.0, -150.7, -261.65)">
    <path d="M156.4 269.55 L157.25 269.35 Q159.2 268.8 161.05 267.7 L163.4 265.85 167.2 267.95 Q165.1 272.55 165.8 277.55 L159.7 278.6 157.65 278.65 154.2 278.35 150.7 277.55 151.65 269.7 154.4 269.8 155.35 269.75 156.4 269.55 M248.35 262.15 L251.75 261.65 255.45 265.3 249.8 265.0 246.15 265.35 243.9 265.65 239.95 266.5 Q240.75 264.15 241.95 261.9 L244.55 262.2 245.1 262.2 245.25 262.2 248.35 262.15" fill="#000000" fill-rule="evenodd" stroke="none"/>
  </g>
</svg>
