<?xml version="1.0" encoding="UTF-8" standalone="no"?>
<svg xmlns:xlink="http://www.w3.org/1999/xlink" height="33.3px" width="115.9px" xmlns="http://www.w3.org/2000/svg">
  <g transform="matrix(1.0, 0.0, 0.0, 1.0, -139.4, -236.55)">
    <path d="M161.9 243.75 L161.9 249.05 160.9 250.4 160.85 250.45 Q161.1 254.1 161.7 257.75 L161.85 258.7 161.85 258.75 161.9 258.7 163.2 259.6 164.15 264.9 163.4 265.85 Q160.55 268.45 157.25 269.35 L154.4 269.8 153.4 269.85 152.2 269.8 151.7 269.65 147.6 263.9 148.3 262.7 148.35 262.7 148.35 262.55 146.2 258.85 145.35 257.2 144.25 254.9 143.85 254.1 143.75 254.1 141.95 253.4 139.4 246.95 141.0 246.95 146.6 246.55 Q153.8 245.65 160.65 242.55 L161.6 241.95 161.9 243.75 M254.9 237.7 L255.3 238.0 254.2 243.65 252.8 245.1 252.75 245.7 Q252.3 248.9 252.15 251.4 L250.85 255.05 252.1 254.95 253.05 255.65 253.05 260.35 251.75 261.65 248.35 262.15 245.25 262.2 241.95 261.9 239.95 261.0 239.0 257.1 Q239.75 255.4 240.35 254.85 L237.45 242.3 237.85 236.55 252.7 237.7 254.9 237.7" fill="#000000" fill-rule="evenodd" stroke="none"/>
  </g>
</svg>
