<?xml version="1.0" encoding="UTF-8" standalone="no"?>
<svg xmlns:xlink="http://www.w3.org/1999/xlink" height="61.3px" width="42.1px" xmlns="http://www.w3.org/2000/svg">
  <g transform="matrix(1.0, 0.0, 0.0, 1.0, -180.75, -77.15)">
    <path d="M188.5 116.95 Q187.35 116.6 186.85 115.65 L186.25 114.1 Q185.7 113.4 183.75 104.3 181.75 95.15 181.75 78.15 L186.7 84.1 189.45 87.5 193.05 91.95 195.25 94.75 196.65 96.45 Q202.65 103.55 210.7 108.65 L210.9 108.35 Q213.55 103.65 215.5 98.95 L215.65 98.65 Q219.65 88.75 220.4 78.8 221.3 83.55 221.65 88.4 222.3 98.0 220.9 108.15 L220.4 111.05 217.5 119.95 M213.5 132.4 L211.35 137.45 210.1 137.45" fill="none" stroke="#000000" stroke-linecap="round" stroke-linejoin="round" stroke-width="2.0"/>
    <path d="M217.5 119.95 L210.95 121.75 198.0 119.05 Q198.8 125.15 201.95 131.25 L206.15 133.7 207.75 132.4 213.5 132.4 M210.1 137.45 L205.6 137.45 Q201.65 134.55 198.45 131.25 194.0 126.7 191.15 121.35 L190.45 117.05 188.5 116.95" fill="none" stroke="#000000" stroke-linecap="round" stroke-linejoin="round" stroke-width="1.0"/>
  </g>
</svg>
