<?xml version="1.0" encoding="UTF-8" standalone="no"?>
<svg xmlns:xlink="http://www.w3.org/1999/xlink" height="103.75px" width="95.3px" xmlns="http://www.w3.org/2000/svg">
  <g transform="matrix(1.0, 0.0, 0.0, 1.0, -156.2, -128.65)">
    <path d="M186.85 129.65 Q185.4 131.7 186.25 134.6 181.85 137.7 176.45 139.5 L175.4 139.85 171.75 140.75 167.3 142.4 161.05 144.95 Q158.3 144.9 157.2 146.45 M210.1 140.0 L221.6 143.0 226.25 144.3 226.85 144.5 236.0 147.3 238.65 148.15 Q240.85 147.75 243.0 149.15 M169.15 185.5 L171.2 188.5 Q173.3 191.35 175.8 194.0 178.85 197.25 182.5 200.2 L189.85 205.45 190.55 212.1 190.8 217.7 190.75 223.3 190.2 230.75" fill="none" stroke="#000000" stroke-linecap="round" stroke-linejoin="round" stroke-width="2.0"/>
    <path d="M186.25 134.6 Q188.95 143.4 199.5 145.6 L206.9 146.35 210.1 146.25 210.1 140.0 Q196.6 142.25 186.85 129.65 M161.05 144.95 L164.5 148.0 165.65 149.15 168.05 151.7 169.95 154.05 171.0 155.5 172.1 157.25 Q173.55 159.7 174.4 162.2 175.15 164.55 175.4 166.9 L175.5 168.1 175.5 170.05 175.4 171.7 185.65 178.9 186.05 179.2 186.15 179.25 Q187.35 180.05 188.85 180.65 L189.15 180.75 189.2 180.75 189.35 180.8 192.55 181.6 193.75 181.75 194.6 181.85 198.35 181.95 201.55 181.8 207.2 181.2 208.85 180.95 209.1 180.9 211.55 180.45 Q218.85 179.05 226.25 179.15 L227.8 176.6 227.6 175.55 227.3 173.9 220.25 173.9 218.5 169.75 226.3 169.75 224.8 165.0 Q223.5 161.4 221.85 157.9 L214.25 157.9 212.1 154.0 220.2 154.0 219.2 151.55 218.65 151.6 Q217.2 151.55 214.95 150.7 L205.1 149.65 201.4 148.95 M243.0 149.15 Q249.25 158.8 251.0 176.15 L249.15 178.55 248.55 190.95 246.9 194.65 245.45 198.1 243.95 202.2 242.7 206.05 241.65 209.7 241.0 212.2 239.95 216.8 239.6 218.5 239.0 223.4 238.65 226.95 238.3 230.75 M175.4 171.7 Q174.95 175.15 173.4 178.6 L173.3 178.8 Q171.75 182.15 169.15 185.5 179.3 165.65 157.2 146.45 M229.95 148.9 Q227.6 148.7 225.5 149.65 L221.6 150.5 220.95 150.55 Q220.4 151.4 219.2 151.55 L206.9 146.35 M221.85 157.9 L229.0 157.9 226.85 154.0 220.2 154.0 M227.3 173.9 L235.0 173.9 233.25 169.75 226.3 169.75 M204.45 206.3 Q206.65 205.0 208.85 202.35 L210.8 199.7 Q212.5 196.85 214.6 194.4 216.8 191.8 219.45 189.65 M222.55 196.95 L229.2 196.95 234.25 196.95 234.25 192.8 228.8 192.8 222.55 192.8 222.55 196.95 M249.15 178.55 L247.35 180.8 240.75 180.45 Q233.5 179.15 226.25 179.15 L228.35 190.35 228.8 192.8 M235.0 214.95 L238.15 202.0 238.35 201.35 Q239.65 196.8 238.2 193.5 237.3 191.4 235.4 189.85 M238.65 148.15 L240.75 151.1 243.9 156.15 244.55 157.3 244.65 157.45 247.35 163.25 248.25 165.5 248.95 167.6 250.5 173.45 250.85 175.3 251.0 176.15 M229.2 196.95 L229.1 200.9 228.35 205.4 226.9 213.55 232.25 213.55 232.25 217.7 226.2 217.7 223.65 231.9 M210.55 206.95 L216.05 217.7 M226.9 213.55 L220.0 213.55 220.0 217.7 226.2 217.7" fill="none" stroke="#000000" stroke-linecap="round" stroke-linejoin="round" stroke-width="1.0"/>
  </g>
</svg>
