<?xml version="1.0" encoding="UTF-8" standalone="no"?>
<svg xmlns:xlink="http://www.w3.org/1999/xlink" height="30.6px" width="42.45px" xmlns="http://www.w3.org/2000/svg">
  <g transform="matrix(1.0, 0.0, 0.0, 1.0, -196.25, -228.0)">
    <path d="M206.15 241.75 Q213.7 246.5 221.5 250.05 229.25 247.7 233.55 244.35 L234.3 248.55 Q231.0 250.5 226.3 252.1 L234.8 255.15 234.8 255.2 234.8 258.6 Q227.9 256.35 221.3 253.55 211.25 256.05 196.25 257.25 L197.5 254.05 Q208.4 253.15 216.4 251.35 209.8 248.2 203.55 244.45 L206.15 241.75 M238.3 229.85 Q237.5 232.75 236.35 235.3 224.15 237.1 201.9 235.85 200.0 233.9 198.85 231.65 198.1 230.25 197.7 228.8 L197.55 228.3 197.55 228.15 198.85 228.25 Q223.2 229.4 238.7 228.0 238.5 228.6 238.45 229.25 L238.3 229.85" fill="#000000" fill-rule="evenodd" stroke="none"/>
  </g>
</svg>
