<?xml version="1.0" encoding="UTF-8" standalone="no"?>
<svg xmlns:xlink="http://www.w3.org/1999/xlink" height="12.5px" width="17.85px" xmlns="http://www.w3.org/2000/svg">
  <g transform="matrix(1.0, 0.0, 0.0, 1.0, -214.35, -226.1)">
    <path d="M231.7 229.0 L231.7 232.35 Q223.5 229.65 214.85 232.35 L214.85 229.0 215.85 228.75 Q222.6 227.25 229.65 228.55 L231.7 229.0" fill="#ffffff" fill-opacity="0.2509804" fill-rule="evenodd" stroke="none"/>
    <path d="M214.85 229.0 L214.85 228.75 Q214.85 228.15 215.1 227.7 L215.2 227.5 Q215.75 226.6 217.25 226.6 L229.3 226.6 Q231.15 226.55 231.6 228.05 L231.65 228.45 231.7 228.65 231.7 229.0 231.7 232.35 231.7 235.7 231.7 235.85 231.6 236.65 231.35 237.25 Q230.75 238.1 229.3 238.1 L217.25 238.1 Q215.15 238.1 214.9 236.35 L214.85 236.05 214.85 235.7 214.85 232.35 214.85 229.0 Z" fill="none" stroke="#000000" stroke-linecap="round" stroke-linejoin="round" stroke-width="1.0"/>
  </g>
</svg>
