<?xml version="1.0" encoding="UTF-8" standalone="no"?>
<svg xmlns:xlink="http://www.w3.org/1999/xlink" height="5.55px" width="21.7px" xmlns="http://www.w3.org/2000/svg">
  <g transform="matrix(1.0, 0.0, 0.0, 1.0, -197.4, -108.2)">
    <path d="M204.65 113.35 L203.95 113.5 203.3 113.4 203.05 113.15 202.65 112.25 Q202.65 111.8 202.9 111.5 L205.05 111.5 205.25 112.25 204.9 113.15 204.65 113.35" fill="#ffffff" fill-opacity="0.0" fill-rule="evenodd" stroke="none"/>
    <path d="M216.05 113.5 L216.65 113.15 217.0 112.25 216.95 111.8 Q217.6 112.0 218.1 112.55 217.35 113.3 216.05 113.5 M205.05 111.5 L206.05 111.6 207.05 112.6 204.65 113.35 204.9 113.15 205.25 112.25 205.05 111.5 M203.3 113.4 Q201.75 113.3 200.0 112.65 L201.4 111.6 202.9 111.5 Q202.65 111.8 202.65 112.25 L203.05 113.15 203.3 113.4" fill="#ffffff" fill-rule="evenodd" stroke="none"/>
    <path d="M212.85 111.75 Q214.1 111.8 215.35 110.75 216.85 109.3 218.35 109.25 M214.5 111.7 L213.9 111.7 213.3 111.8 M208.45 111.5 Q206.0 111.45 203.95 109.9 201.45 108.0 198.15 110.0" fill="none" stroke="#000000" stroke-linecap="round" stroke-linejoin="round" stroke-width="1.5"/>
    <path d="M212.85 111.75 L212.5 112.75 212.4 113.15 M216.95 111.8 L216.4 111.7 214.5 111.7 M218.1 112.55 Q217.6 112.0 216.95 111.8 M205.05 111.5 L206.05 111.6 207.05 112.6 M200.0 112.65 L201.4 111.6 202.9 111.5 205.05 111.5" fill="none" stroke="#000000" stroke-linecap="round" stroke-linejoin="round" stroke-width="1.0"/>
    <path d="M216.05 113.5 L216.65 113.15 217.0 112.25 216.95 111.8 M214.5 111.7 L214.4 112.25 Q214.4 112.75 214.8 113.15 215.15 113.5 216.05 113.5 M204.65 113.35 L203.95 113.5 203.3 113.4 203.05 113.15 202.65 112.25 Q202.65 111.8 202.9 111.5 M205.05 111.5 L205.25 112.25 204.9 113.15 204.65 113.35" fill="none" stroke="#000000" stroke-linecap="round" stroke-linejoin="round" stroke-width="0.5"/>
  </g>
</svg>
