<?xml version="1.0" encoding="UTF-8" standalone="no"?>
<svg xmlns:xlink="http://www.w3.org/1999/xlink" height="22.0px" width="40.8px" xmlns="http://www.w3.org/2000/svg">
  <g transform="matrix(1.0, 0.0, 0.0, 1.0, -182.8, -88.25)">
    <path d="M189.95 91.1 Q196.85 86.4 205.05 89.45 L207.5 90.1 211.1 90.3 Q213.3 90.1 215.2 90.9 220.5 93.1 223.6 103.2 L220.7 99.7 Q223.45 106.65 218.5 110.25 218.35 106.8 217.7 104.0 L217.9 103.2 Q217.55 100.25 215.45 97.35 214.4 96.0 213.15 95.5 209.9 94.3 205.1 98.55 202.45 95.9 199.8 97.25 195.85 99.0 195.85 103.2 L194.7 102.4 190.75 108.25 190.75 108.1 190.7 108.0 Q190.25 106.15 188.85 105.8 L188.15 105.75 Q186.35 105.9 185.75 107.4 185.3 101.3 182.8 97.85 186.45 95.15 188.85 92.45 L189.95 91.1 M191.2 99.95 L191.1 100.0 191.15 100.2 191.2 99.95" fill="#000000" fill-rule="evenodd" stroke="none"/>
  </g>
</svg>
