<?xml version="1.0" encoding="UTF-8" standalone="no"?>
<svg xmlns:xlink="http://www.w3.org/1999/xlink" height="13.2px" width="9.95px" xmlns="http://www.w3.org/2000/svg">
  <g transform="matrix(1.0, 0.0, 0.0, 1.0, -182.55, -104.65)">
    <path d="M187.1 107.8 Q188.15 109.05 188.5 111.0 188.8 113.0 188.25 114.6 187.65 116.1 186.65 116.3 L186.6 116.3 186.4 116.35 186.3 116.35 186.05 116.35 188.45 117.25 Q189.2 117.5 189.9 116.95 L191.25 115.25 Q192.3 113.15 191.85 110.4 191.35 107.6 189.65 105.95 L189.3 105.65 Q188.35 104.95 187.65 105.25 L185.05 106.7 185.4 106.7 Q186.25 106.75 187.1 107.8 M185.05 106.7 L184.95 106.75 184.85 106.75 184.75 106.8 Q183.85 107.15 183.35 108.45 182.85 110.0 183.2 112.0 183.5 114.0 184.5 115.25 L185.85 116.25 186.05 116.35" fill="none" stroke="#000000" stroke-linecap="round" stroke-linejoin="round" stroke-width="1.0"/>
  </g>
</svg>
