<?xml version="1.0" encoding="UTF-8" standalone="no"?>
<svg xmlns:xlink="http://www.w3.org/1999/xlink" height="13.75px" width="36.65px" xmlns="http://www.w3.org/2000/svg">
  <g transform="matrix(1.0, 0.0, 0.0, 1.0, -184.4, -104.75)">
    <path d="M218.55 106.65 Q219.3 107.45 219.8 109.1 L220.05 110.6 218.15 111.8 Q218.55 110.45 217.8 109.05 210.1 108.65 198.7 109.05 198.35 110.65 198.6 112.15 196.45 111.65 194.45 110.0 L194.45 109.85 Q194.45 106.85 198.65 105.9 200.6 106.0 203.5 107.1 210.0 110.5 214.25 107.1 215.7 105.85 216.85 105.85 L217.4 105.9 218.55 106.65" fill="#ffffff" fill-opacity="0.2509804" fill-rule="evenodd" stroke="none"/>
    <path d="M218.65 115.25 Q216.8 117.55 214.2 115.6 210.1 112.25 203.85 116.6 200.45 118.75 198.15 117.6 L197.9 117.45 Q194.2 116.0 190.75 116.85 L190.45 117.05 188.5 116.95 M188.85 105.8 L189.0 105.85 196.0 106.35 198.65 105.9 Q208.9 104.95 216.85 105.85 L217.4 105.9 218.55 106.65 M194.45 109.85 L194.45 110.0 Q194.45 111.05 194.75 112.4 195.85 116.2 197.9 117.45 M198.6 112.15 Q198.35 110.65 198.7 109.05 210.1 108.65 217.8 109.05 218.55 110.45 218.15 111.8 L217.8 112.65 198.7 112.65 198.6 112.15 M194.45 109.85 Q194.4 107.25 196.0 106.35 M189.0 105.85 Q190.35 106.25 190.75 108.25 192.1 115.25 190.75 116.85" fill="none" stroke="#000000" stroke-linecap="round" stroke-linejoin="round" stroke-width="1.0"/>
    <path d="M218.55 106.65 Q219.3 107.45 219.8 109.1 L220.05 110.6 219.8 113.05 218.65 115.25 M188.5 116.95 Q187.35 116.6 186.85 115.65 186.05 113.95 185.6 111.35 184.65 106.05 188.15 105.75 L188.85 105.8" fill="none" stroke="#000000" stroke-linecap="round" stroke-linejoin="round" stroke-width="2.0"/>
  </g>
</svg>
