<?xml version="1.0" encoding="UTF-8" standalone="no"?>
<svg xmlns:xlink="http://www.w3.org/1999/xlink" height="48.85px" width="107.95px" xmlns="http://www.w3.org/2000/svg">
  <g transform="matrix(1.0, 0.0, 0.0, 1.0, -145.7, -145.65)">
    <path d="M170.45 162.45 Q177.25 157.8 181.55 153.1 199.3 155.2 216.35 159.5 220.85 166.4 221.6 173.85 213.45 175.2 206.85 177.8 202.25 179.55 198.4 181.95 193.1 185.25 189.25 189.7 L186.35 187.75 Q177.95 181.95 172.1 175.5 L170.6 180.75 Q161.75 186.65 150.75 192.15 L145.9 194.5 145.7 192.35 150.5 186.8 Q157.1 178.55 160.8 170.3 158.35 163.6 153.25 159.25 150.1 156.55 146.0 154.8 L146.3 152.5 Q152.1 148.95 159.5 145.65 161.5 146.95 163.2 148.6 168.55 153.8 170.45 162.45 M229.75 158.85 L240.9 154.6 244.8 159.65 Q245.2 154.75 243.5 149.8 L250.35 152.2 Q255.65 167.85 252.45 188.35 L248.95 182.85 248.85 184.75 246.75 185.8 Q246.9 182.95 246.05 180.75 245.3 178.9 243.95 177.5 240.6 174.15 233.35 173.2 233.4 165.75 229.75 158.85" fill="#000000" fill-rule="evenodd" stroke="none"/>
  </g>
</svg>
