<?xml version="1.0" encoding="UTF-8" standalone="no"?>
<svg xmlns:xlink="http://www.w3.org/1999/xlink" height="57.3px" width="151.75px" xmlns="http://www.w3.org/2000/svg">
  <g transform="matrix(1.0, 0.0, 0.0, 1.0, -122.7, -134.3)">
    <path d="M179.5 143.8 Q179.8 145.95 180.5 148.05 181.6 151.25 183.65 154.2 L183.7 154.25 Q187.5 159.7 194.5 164.3 L180.9 179.9 176.2 178.0 Q171.85 176.55 167.85 176.5 L166.75 176.5 Q155.95 176.8 147.45 187.2 144.0 186.05 140.5 185.3 L137.8 184.75 134.7 184.3 134.4 184.25 132.1 184.0 128.65 183.8 126.9 183.75 Q124.8 183.7 122.7 183.8 124.3 173.1 127.2 165.05 132.35 150.35 141.65 144.4 146.75 141.05 152.2 138.85 165.2 133.5 179.75 134.45 179.35 136.5 179.25 138.45 L179.25 138.8 179.2 140.9 179.5 143.75 179.5 143.8 M233.35 146.4 Q237.1 141.85 233.5 137.0 249.7 137.55 260.4 150.4 266.45 157.7 270.3 168.8 271.8 173.15 272.6 177.35 273.85 183.65 274.45 190.0 L265.35 191.6 Q265.0 187.05 263.35 183.85 L262.9 183.05 262.25 182.05 Q261.0 180.35 259.25 179.2 256.6 177.4 252.85 176.8 L252.8 176.8 247.55 176.5 239.9 161.85 240.95 159.95 241.1 159.65 242.45 156.2 243.0 154.1 243.4 150.2 243.4 150.0 Q238.55 147.95 233.35 146.4" fill="#000000" fill-rule="evenodd" stroke="none"/>
  </g>
</svg>
