<?xml version="1.0" encoding="UTF-8" standalone="no"?>
<svg xmlns:xlink="http://www.w3.org/1999/xlink" height="49.95px" width="30.8px" xmlns="http://www.w3.org/2000/svg">
  <g transform="matrix(1.0, 0.0, 0.0, 1.0, -242.8, -144.8)">
    <path d="M245.35 144.8 Q280.85 155.35 271.7 184.85 L270.45 181.1 Q270.25 185.55 267.75 189.6 L266.65 187.75 Q266.05 191.25 263.7 194.75 L261.65 192.6 261.1 194.35 245.35 192.2 247.8 186.5 249.85 179.4 248.15 179.2 248.15 171.3 246.05 171.05 242.8 163.2 Q245.9 158.4 247.5 154.1 L247.75 153.4 248.05 152.15 Q248.4 150.0 247.6 148.0 246.9 146.35 245.35 144.8" fill="#000000" fill-rule="evenodd" stroke="none"/>
  </g>
</svg>
