<?xml version="1.0" encoding="UTF-8" standalone="no"?>
<svg xmlns:xlink="http://www.w3.org/1999/xlink" height="108.25px" width="289.95px" xmlns="http://www.w3.org/2000/svg">
  <g transform="matrix(1.0, 0.0, 0.0, 1.0, -88.95, -250.7)">
    <path d="M333.1 338.15 Q336.1 339.1 337.5 338.55 L337.85 339.85 Q340.85 340.8 342.2 340.25 L342.6 341.6 346.95 341.95 347.3 343.3 Q350.3 344.25 351.65 343.7 L352.05 345.0 Q355.0 346.0 356.4 345.4 L356.75 346.75 Q359.75 347.7 361.15 347.15 L361.45 348.25 366.8 348.45 Q376.2 353.95 378.9 358.25 374.1 359.8 363.35 358.0 362.2 355.55 359.1 354.75 L358.15 355.35 Q357.45 354.0 354.55 352.85 L353.4 353.65 Q352.75 352.3 349.8 351.15 L348.65 351.9 Q348.0 350.55 345.1 349.4 L343.95 350.2 Q343.25 348.85 340.35 347.7 L339.2 348.5 Q338.55 347.15 335.6 345.95 L334.5 346.75 Q333.8 345.4 330.9 344.25 L329.75 345.05 Q329.1 343.7 326.15 342.55 L325.05 343.3 Q324.35 341.95 321.45 340.8 L320.3 341.6 Q319.65 340.25 316.7 339.1 L315.55 339.85 Q314.9 338.5 312.0 337.35 L310.85 338.15 Q310.15 336.8 307.25 335.65 L306.1 336.45 Q305.45 335.1 302.5 333.95 L301.4 334.7 Q300.7 333.35 297.8 332.2 L296.65 333.0 Q296.0 331.65 293.05 330.5 L291.95 331.25 Q291.25 329.9 288.35 328.75 L287.2 329.55 Q286.55 328.2 283.6 327.05 L282.5 327.85 Q281.8 326.5 278.9 325.3 L277.75 326.1 Q277.05 324.75 274.15 323.6 L273.0 324.4 Q272.35 323.05 269.45 321.9 L268.3 322.65 Q267.6 321.3 264.7 320.15 L263.55 320.95 Q262.9 319.6 259.95 318.45 L258.85 319.2 Q258.15 317.85 255.25 316.7 L254.1 317.5 Q253.45 316.15 250.5 315.0 L249.4 315.8 Q248.7 314.45 245.8 313.3 L244.65 314.05 Q243.95 312.7 241.05 311.55 L239.9 312.35 Q239.25 311.0 236.35 309.85 L236.3 309.85 235.25 310.85 229.9 308.9 229.75 309.25 227.7 308.5 227.55 308.9 Q226.7 309.2 226.25 308.4 L226.35 308.1 214.6 303.8 214.5 304.15 Q213.6 304.45 213.15 303.65 208.65 312.8 209.7 318.15 203.2 313.25 207.1 301.45 206.2 301.75 205.75 300.95 L206.0 300.35 173.75 288.65 173.3 289.95 173.2 290.3 173.1 290.45 Q172.45 292.95 174.5 294.0 172.35 293.2 172.2 292.75 171.2 294.9 170.75 297.15 169.65 302.8 172.2 308.85 L173.2 311.0 Q171.05 313.45 171.6 316.75 L171.75 317.1 170.55 315.4 Q169.5 315.75 168.5 319.15 L167.8 318.8 Q169.05 315.65 169.25 314.15 L168.8 312.55 168.75 312.5 Q167.45 310.25 167.1 309.0 166.1 305.55 169.0 294.25 L168.8 293.1 Q168.7 291.5 169.35 289.55 L169.35 289.45 170.5 286.35 170.3 286.35 169.95 286.25 169.95 286.0 170.05 282.75 Q170.1 280.55 170.3 278.45 L172.05 279.05 Q172.85 279.1 173.0 279.4 L174.15 276.25 174.2 276.2 174.25 276.15 Q175.25 273.6 176.95 272.4 182.0 261.85 184.95 259.85 186.05 259.1 188.5 258.2 L188.55 258.2 Q189.5 257.8 189.95 257.25 190.75 256.0 191.85 252.8 L192.6 252.95 Q191.2 256.25 191.75 257.2 L193.75 256.65 193.45 256.8 Q190.9 258.95 190.95 262.25 L188.8 263.25 Q182.95 266.25 180.15 271.3 179.05 273.25 178.4 275.6 178.85 275.35 181.0 276.1 178.75 275.55 177.7 277.95 L177.65 278.1 177.45 278.45 177.0 279.75 209.2 291.45 209.45 290.85 Q210.3 290.55 210.75 291.35 215.4 279.75 223.5 280.2 219.25 283.6 216.85 293.55 217.7 293.25 218.15 294.05 L218.05 294.35 229.8 298.65 229.9 298.3 Q230.75 298.0 231.25 298.8 L231.1 299.2 233.15 299.95 233.0 300.3 238.4 302.25 238.55 303.7 Q241.55 304.7 242.9 304.1 L243.3 305.45 Q246.25 306.4 247.65 305.85 L248.0 307.15 Q251.0 308.1 252.35 307.55 L252.75 308.9 Q255.75 309.85 257.1 309.25 L257.45 310.6 Q260.45 311.55 261.85 311.0 L262.2 312.3 Q265.2 313.3 266.55 312.7 L266.9 314.05 Q269.9 315.0 271.3 314.45 L271.65 315.75 Q274.65 316.75 276.0 316.15 L276.4 317.5 Q279.35 318.45 280.75 317.85 L281.1 319.2 Q284.1 320.15 285.45 319.6 L285.85 320.9 Q288.85 321.9 290.2 321.3 L290.55 322.65 Q293.55 323.6 294.95 323.05 L295.3 324.35 Q298.3 325.35 299.65 324.75 L300.0 326.1 Q303.0 327.05 304.4 326.5 L304.75 327.8 Q307.75 328.75 309.1 328.2 L309.5 329.55 Q312.45 330.5 313.85 329.9 L314.2 331.25 Q317.2 332.2 318.55 331.65 L318.95 332.95 Q321.9 333.95 323.3 333.35 L323.65 334.7 Q326.65 335.65 328.05 335.1 L328.4 336.4 Q331.4 337.4 332.75 336.8 L333.1 338.15 M104.05 256.2 Q111.5 257.8 132.3 265.35 132.9 265.2 133.25 265.7 L132.85 266.8 139.35 267.05 Q143.4 268.45 145.1 270.5 L145.45 269.6 Q146.05 269.4 146.45 269.95 L146.3 270.25 151.6 272.05 150.6 278.65 144.15 276.2 144.05 276.5 Q143.4 276.65 143.05 276.15 L143.4 275.2 Q140.8 275.65 136.8 274.15 133.35 272.75 131.65 270.2 L131.25 271.25 Q130.6 271.4 130.25 270.9 109.45 263.35 102.75 259.8 L100.55 259.0 96.1 259.05 Q93.4 259.1 92.0 257.95 90.55 256.8 90.9 254.65 L89.15 254.0 Q88.85 253.45 89.0 252.9 L89.05 252.75 Q89.25 252.1 89.9 251.85 L91.65 252.5 Q92.8 250.6 94.65 250.7 96.45 250.7 98.5 252.5 L101.85 255.4 104.05 256.2" fill="#000000" fill-rule="evenodd" stroke="none"/>
  </g>
</svg>
