<?xml version="1.0" encoding="UTF-8" standalone="no"?>
<svg xmlns:xlink="http://www.w3.org/1999/xlink" height="37.55px" width="63.1px" xmlns="http://www.w3.org/2000/svg">
  <g transform="matrix(1.0, 0.0, 0.0, 1.0, -139.5, -269.45)">
    <path d="M151.4 273.15 L150.65 278.05 139.5 274.0 141.15 269.45 151.4 273.15 M170.3 278.85 Q172.55 278.25 174.4 275.9 176.6 272.75 179.75 271.45 182.45 270.2 185.35 271.7 188.65 273.05 192.3 275.2 195.9 277.35 202.6 277.9 198.3 280.95 193.4 279.4 193.5 278.4 192.45 277.8 188.65 275.6 184.6 274.2 182.65 273.25 179.8 274.8 176.85 276.3 176.35 279.7 176.05 283.35 181.15 283.7 L182.6 287.1 179.3 288.75 Q175.15 285.7 173.05 288.75 171.25 291.65 172.55 294.65 173.75 297.7 175.85 298.25 179.85 299.75 184.15 300.5 185.35 300.75 185.95 299.95 190.7 301.9 192.0 307.0 186.5 303.1 182.4 302.4 178.25 301.7 174.85 300.65 171.65 299.9 170.35 297.25 169.7 295.9 169.35 294.45 L169.9 294.35 Q169.7 289.3 169.95 284.25 170.05 281.5 170.3 278.85" fill="#000000" fill-rule="evenodd" stroke="none"/>
  </g>
</svg>
