<?xml version="1.0" encoding="UTF-8" standalone="no"?>
<svg xmlns:xlink="http://www.w3.org/1999/xlink" height="314.0px" width="504.25px" xmlns="http://www.w3.org/2000/svg">
  <g transform="matrix(1.0, 0.0, 0.0, 1.0, 28.5, -161.15)">
    <path d="M160.15 283.05 L160.35 282.7 161.65 280.5 163.05 278.35 163.3 277.95 163.6 277.55 Q171.95 265.05 177.45 262.85 179.25 266.15 181.7 269.55 L181.8 269.65 Q197.7 291.4 240.95 318.05 L475.75 475.15 230.6 334.75 Q187.65 308.0 161.1 303.4 L160.95 303.35 152.9 302.45 Q152.45 296.55 159.95 283.5 L160.15 283.05 M148.25 268.05 L147.3 275.7 59.65 221.35 46.5 224.65 -21.35 175.6 -27.85 167.15 Q-29.15 164.85 -27.85 163.0 -26.8 161.0 -24.2 161.15 L-13.7 163.2 -13.65 163.2 60.45 202.1 63.35 215.4 148.25 268.05" fill="#000000" fill-rule="evenodd" stroke="none"/>
  </g>
</svg>
