<?xml version="1.0" encoding="UTF-8" standalone="no"?>
<svg xmlns:xlink="http://www.w3.org/1999/xlink" height="76.85px" width="267.1px" xmlns="http://www.w3.org/2000/svg">
  <g transform="matrix(1.0, 0.0, 0.0, 1.0, -41.3, -272.2)">
    <path d="M91.45 291.5 L91.45 298.9 91.35 298.9 91.45 299.35 Q91.5 300.05 91.05 300.65 90.35 301.45 89.25 301.55 88.15 301.65 87.25 301.1 86.35 300.5 86.25 299.75 L86.25 299.65 86.25 299.3 86.75 298.2 86.25 298.2 86.3 291.2 Q64.5 289.8 41.3 277.05 41.2 275.25 42.0 274.05 42.75 272.8 44.45 272.2 83.9 291.6 112.85 281.15 L113.3 281.05 113.7 280.9 114.15 280.8 Q122.35 278.35 129.9 276.8 L145.7 274.35 146.15 274.3 151.3 273.9 150.25 281.25 145.3 281.55 Q135.85 282.25 127.15 284.25 121.75 285.7 116.2 287.6 104.05 291.4 91.5 291.4 L91.45 291.5 M170.6 275.05 Q201.75 280.5 247.65 316.3 273.1 334.55 307.8 339.4 308.55 342.0 308.4 344.4 308.2 346.85 307.1 349.05 267.9 343.95 238.15 319.8 207.7 294.95 182.45 286.1 L183.25 294.35 183.25 294.4 183.25 294.45 183.25 294.9 Q183.15 295.6 182.5 296.1 181.65 296.7 180.55 296.5 179.45 296.3 178.8 295.55 178.1 294.7 178.15 293.95 L177.2 284.4 170.0 282.6 Q170.15 278.8 170.6 275.05" fill="#000000" fill-rule="evenodd" stroke="none"/>
  </g>
</svg>
