<?xml version="1.0" encoding="UTF-8" standalone="no"?>
<svg xmlns:xlink="http://www.w3.org/1999/xlink" height="180.35px" width="282.25px" xmlns="http://www.w3.org/2000/svg">
  <g transform="matrix(1.0, 0.0, 0.0, 1.0, -40.3, -271.2)">
    <path d="M320.6 350.25 Q320.15 354.5 319.15 359.2 314.7 379.65 299.35 407.45 285.85 431.0 269.8 441.7 262.0 446.9 253.55 449.05 271.8 439.0 286.05 415.25 303.05 388.65 311.5 357.35 312.65 356.5 313.15 355.35 313.95 353.1 312.45 349.65 L320.6 350.25 M315.35 360.0 Q315.5 359.3 315.2 359.1 314.9 358.9 314.55 359.45 310.0 379.65 294.9 407.0 284.7 424.8 274.9 435.35 274.7 435.7 274.9 436.05 L275.75 435.95 Q285.5 425.35 295.75 407.55 310.85 380.2 315.35 360.0" fill="url(#gradient0)" fill-rule="evenodd" stroke="none"/>
    <path d="M178.15 293.95 L177.2 284.4 Q165.5 281.0 155.05 281.15 140.2 281.25 127.15 284.25 121.75 285.7 116.2 287.6 104.05 291.4 91.5 291.4 L91.45 291.5 91.45 298.9 91.35 298.9 Q91.0 297.95 90.15 297.5 L88.3 297.25 Q87.3 297.4 86.75 298.2 L86.25 298.2 86.3 291.2 Q64.5 289.8 41.3 277.05 41.2 275.25 42.0 274.05 75.7 297.65 145.8 277.6 178.95 274.35 210.15 295.2 261.4 337.85 308.4 344.4 308.2 346.85 307.1 349.05 267.9 343.95 238.15 319.8 207.7 294.95 182.45 286.1 L183.25 294.35 Q183.1 293.4 182.45 292.8 181.75 292.15 180.75 292.1 179.75 292.0 179.0 292.6 178.45 293.05 178.25 293.55 L178.15 293.85 178.15 293.95 M91.5 291.4 L91.4 290.5 Q91.05 289.55 90.2 289.1 L88.35 288.8 Q87.35 288.95 86.8 289.8 86.25 290.5 86.3 291.2 86.25 290.5 86.8 289.8 87.35 288.95 88.35 288.8 L90.2 289.1 Q91.05 289.55 91.4 290.5 L91.5 291.4 M182.25 283.75 L182.25 283.6 Q182.1 282.7 181.45 282.1 180.75 281.45 179.75 281.35 178.75 281.25 178.0 281.9 177.45 282.3 177.25 282.85 L177.15 283.15 177.15 283.25 177.15 283.55 177.15 283.25 177.15 283.15 177.25 282.85 Q177.45 282.3 178.0 281.9 178.75 281.25 179.75 281.35 180.75 281.45 181.45 282.1 182.1 282.7 182.25 283.6 L182.25 283.75 182.25 284.0 182.25 283.75 M182.45 286.1 L182.25 284.0 182.45 286.1 M177.15 283.55 L177.2 284.4 177.15 283.55" fill="#000000" fill-opacity="0.2509804" fill-rule="evenodd" stroke="none"/>
    <path d="M253.55 449.05 L246.85 450.3 246.05 450.35 243.05 450.55 243.05 450.4 Q245.3 449.35 247.5 448.1 L248.7 447.4 Q265.75 437.15 279.2 414.7 296.25 388.15 303.9 359.25 309.15 359.05 311.5 357.35 303.05 388.65 286.05 415.25 271.8 439.0 253.55 449.05" fill="#ffffff" fill-opacity="0.2509804" fill-rule="evenodd" stroke="none"/>
    <path d="M243.05 450.55 L242.65 450.55 243.05 450.4 243.05 450.55" fill="url(#gradient1)" fill-rule="evenodd" stroke="none"/>
    <path d="M178.15 293.95 L177.2 284.4 Q165.5 281.0 155.05 281.15 140.2 281.25 127.15 284.25 121.75 285.7 116.2 287.6 104.05 291.4 91.5 291.4 M91.45 291.5 L91.45 298.9 91.45 299.35 Q91.5 300.05 91.05 300.65 90.35 301.45 89.25 301.55 88.15 301.65 87.25 301.1 86.35 300.5 86.25 299.75 L86.25 299.65 86.25 299.3 86.25 298.2 86.3 291.2 Q64.5 289.8 41.3 277.05 41.2 275.25 42.0 274.05 42.75 272.8 44.45 272.2 83.9 291.6 112.85 281.15 144.25 271.75 165.7 274.35 198.1 277.65 247.65 316.3 273.1 334.55 307.8 339.4 L320.85 340.75 Q322.35 345.4 320.6 350.25 320.15 354.5 319.15 359.2 314.7 379.65 299.35 407.45 285.85 431.0 269.8 441.7 262.0 446.9 253.55 449.05 L246.85 450.3 246.05 450.35 243.05 450.55 242.65 450.55 243.05 450.4 Q245.3 449.35 247.5 448.1 L248.7 447.4 Q265.75 437.15 279.2 414.7 296.25 388.15 303.9 359.25 309.15 359.05 311.5 357.35 312.65 356.5 313.15 355.35 313.95 353.1 312.45 349.65 L307.1 349.05 Q267.9 343.95 238.15 319.8 207.7 294.95 182.45 286.1 L183.25 294.35 M183.25 294.4 L183.25 294.45 183.25 294.9 Q183.15 295.6 182.5 296.1 181.65 296.7 180.55 296.5 179.45 296.3 178.8 295.55 178.1 294.7 178.15 293.95" fill="none" stroke="#000000" stroke-linecap="round" stroke-linejoin="round" stroke-width="2.0"/>
    <path d="M178.15 293.95 L178.15 293.85 178.25 293.55 Q178.45 293.05 179.0 292.6 179.75 292.0 180.75 292.1 181.75 292.15 182.45 292.8 183.1 293.4 183.25 294.35 M86.3 291.2 Q86.25 290.5 86.8 289.8 87.35 288.95 88.35 288.8 L90.2 289.1 Q91.05 289.55 91.4 290.5 L91.5 291.4 M91.35 298.9 L91.45 299.35 M91.35 298.9 Q91.0 297.95 90.15 297.5 L88.3 297.25 Q87.3 297.4 86.75 298.2 L86.25 299.3 M177.15 283.55 L177.15 283.25 177.15 283.15 177.25 282.85 Q177.45 282.3 178.0 281.9 178.75 281.25 179.75 281.35 180.75 281.45 181.45 282.1 182.1 282.7 182.25 283.6 L182.25 283.75 M182.25 284.0 L182.45 286.1 M307.8 339.4 Q308.55 342.0 308.4 344.4 308.2 346.85 307.1 349.05 M320.6 350.25 L312.45 349.65" fill="none" stroke="#000000" stroke-linecap="round" stroke-linejoin="round" stroke-width="1.0"/>
    <path d="M315.35 360.0 Q310.85 380.2 295.75 407.55 285.5 425.35 275.75 435.95 L274.9 436.05 Q274.7 435.7 274.9 435.35 284.7 424.8 294.9 407.0 310.0 379.65 314.55 359.45 314.9 358.9 315.2 359.1 315.5 359.3 315.35 360.0 M311.5 357.35 Q303.05 388.65 286.05 415.25 271.8 439.0 253.55 449.05" fill="none" stroke="#000000" stroke-linecap="round" stroke-linejoin="round" stroke-opacity="0.5019608" stroke-width="0.5"/>
    <path d="M91.5 291.4 L91.45 291.5 M183.25 294.35 L183.25 294.4 M182.25 283.75 L182.25 284.0 M177.2 284.4 L177.15 283.55" fill="none" stroke="#000000" stroke-linecap="round" stroke-linejoin="round" stroke-width="0.5"/>
  </g>
  <defs>
    <linearGradient gradientTransform="matrix(0.0038, 0.001, -0.0178, 0.0665, 302.25, 403.7)" gradientUnits="userSpaceOnUse" id="gradient0" spreadMethod="pad" x1="-819.2" x2="819.2">
      <stop offset="0.0" stop-color="#000000" stop-opacity="0.0"/>
      <stop offset="1.0" stop-color="#000000" stop-opacity="0.2509804"/>
    </linearGradient>
    <linearGradient gradientTransform="matrix(-0.0076, -0.0044, 0.0333, -0.0569, 280.4, 414.95)" gradientUnits="userSpaceOnUse" id="gradient1" spreadMethod="pad" x1="-819.2" x2="819.2">
      <stop offset="0.0" stop-color="#000000" stop-opacity="0.0"/>
      <stop offset="1.0" stop-color="#000000" stop-opacity="0.2509804"/>
    </linearGradient>
  </defs>
</svg>
