<?xml version="1.0" encoding="UTF-8" standalone="no"?>
<svg xmlns:xlink="http://www.w3.org/1999/xlink" height="152.35px" width="300.8px" xmlns="http://www.w3.org/2000/svg">
  <g transform="matrix(1.0, 0.0, 0.0, 1.0, -16.6, -192.85)">
    <path d="M113.05 255.9 L118.9 274.45 116.55 280.95 100.3 282.55 Q99.8 283.1 99.9 283.6 81.55 283.2 66.85 275.8 L78.7 256.9 Q82.8 261.95 87.9 264.3 98.1 268.7 107.75 262.85 111.5 260.45 113.05 255.9 M120.6 274.0 L114.5 255.5 Q123.1 264.45 136.7 262.8 131.2 275.3 120.6 274.0 M43.35 229.75 L29.55 235.45 Q27.55 231.05 26.05 226.55 23.75 218.7 22.15 211.05 21.8 208.75 21.95 207.1 26.85 225.6 43.35 229.75 M30.2 236.85 L44.65 230.85 Q44.45 246.2 54.45 252.75 64.25 259.3 77.3 256.45 L65.55 275.15 Q61.5 273.0 57.7 270.3 45.55 261.55 37.1 248.85 33.15 242.95 30.2 236.85 M180.85 278.85 Q190.15 288.9 202.55 287.55 L186.0 297.75 Q177.0 291.95 180.85 278.85 M203.35 288.8 Q201.6 293.25 203.0 297.5 206.55 308.2 217.25 311.35 222.65 312.85 229.05 311.6 L229.1 311.6 226.0 333.75 Q209.95 329.95 195.65 318.5 196.0 318.1 196.0 317.4 L184.6 305.75 186.95 299.25 203.35 288.8 M230.45 312.2 Q238.55 322.75 250.3 324.0 262.15 325.45 271.9 313.55 L279.1 327.45 Q272.9 330.2 266.1 332.2 251.45 336.5 236.5 335.4 L227.4 334.05 230.45 312.2 M273.6 313.55 Q288.85 320.95 304.55 309.95 303.55 311.3 301.8 312.85 295.7 317.7 288.9 322.25 L280.45 326.8 273.6 313.55" fill="#000000" fill-opacity="0.2509804" fill-rule="evenodd" stroke="none"/>
    <path d="M28.45 237.55 L23.1 239.1 27.85 236.2 Q25.8 231.75 24.3 227.2 19.25 210.0 17.6 193.85 21.55 194.1 22.0 197.35 L310.75 302.45 Q313.15 300.25 316.4 302.65 304.7 313.9 289.8 323.85 285.7 326.35 281.35 328.45 L283.1 333.7 280.0 329.1 281.35 328.45 M279.95 329.1 Q273.45 332.05 266.2 334.2 251.0 338.65 235.55 337.5 L227.05 336.3 225.25 344.2 225.65 336.0 Q208.5 332.2 193.25 320.0 193.1 321.15 191.9 321.1 L180.1 308.75 M179.65 308.3 Q177.55 306.45 175.6 306.2 L173.8 307.75 175.0 309.1 Q170.0 310.4 164.85 313.9 169.05 309.35 171.15 304.65 L172.5 306.2 174.35 304.65 Q179.05 296.25 176.75 291.9 174.4 287.55 172.05 287.85 168.35 288.25 167.95 297.65 165.2 292.85 161.85 291.55 L154.9 289.05 149.3 296.8 150.05 287.25 143.05 284.75 Q139.65 283.6 134.5 285.45 140.2 278.0 137.65 275.35 136.0 273.55 131.45 275.4 126.9 277.25 125.1 286.7 L125.5 289.1 127.55 288.75 Q126.1 293.7 126.45 299.9 124.7 293.9 121.7 289.7 L123.55 289.45 123.15 287.15 Q121.45 286.05 118.7 286.1 M118.0 286.15 L101.05 288.0 Q100.1 287.3 100.75 286.35 81.2 285.85 65.6 277.75 L60.65 284.3 64.35 277.1 57.1 272.55 Q44.5 263.45 35.75 250.3 31.55 244.0 28.5 237.55 M28.45 237.55 L27.85 236.2 M114.5 255.5 L111.85 249.65 113.05 255.9 Q111.5 260.45 107.75 262.85 98.1 268.7 87.9 264.3 82.8 261.95 78.7 256.9 L81.25 251.1 77.5 256.1 77.3 256.45 Q64.25 259.3 54.45 252.75 44.45 246.2 44.65 230.85 M114.5 255.5 Q123.1 264.45 136.7 262.8 139.65 258.4 146.05 255.6 144.25 261.6 145.45 264.9 L146.9 265.4 144.25 272.65 142.8 272.1 141.75 275.0 Q141.0 279.0 145.85 280.5 L162.45 286.55 Q167.1 288.45 169.1 284.95 L170.15 282.1 168.7 281.55 169.0 280.75 Q166.8 279.25 163.55 277.95 L163.2 277.8 M44.15 229.4 L43.35 229.75 Q26.85 225.6 21.95 207.1 22.05 205.05 22.85 204.05 L22.0 197.35 M44.7 230.8 L48.75 228.25 44.15 229.4 M65.6 277.75 L64.35 277.1 M172.8 274.85 L171.35 274.3 171.05 275.1 169.0 280.75 M171.05 275.1 Q168.35 274.85 165.05 273.75 L164.7 273.6 164.5 273.55 164.4 273.5 152.7 269.25 M172.8 274.85 Q175.85 273.1 178.3 267.35 181.35 273.6 180.85 278.85 190.15 288.9 202.55 287.55 L208.3 284.75 203.35 288.8 Q201.6 293.25 203.0 297.5 206.55 308.2 217.25 311.35 222.65 312.85 229.05 311.6 L230.8 305.55 230.5 311.8 230.45 312.2 Q238.55 322.75 250.3 324.0 262.15 325.45 271.9 313.55 M271.85 313.5 L270.4 308.95 273.2 312.8 273.6 313.55 Q288.85 320.95 304.55 309.95 305.75 308.3 305.8 307.0 L310.75 302.45 M225.65 336.0 L227.05 336.3 M151.2 273.45 L162.9 277.7" fill="none" stroke="#000000" stroke-linecap="round" stroke-linejoin="round" stroke-width="2.0"/>
    <path d="M118.9 274.45 L119.25 273.55 120.25 273.9 120.6 274.0 Q131.2 275.3 136.7 262.8 M116.55 280.95 L100.3 282.55 Q99.8 283.1 99.9 283.6 99.95 284.05 100.45 284.45 L113.05 283.25 Q114.95 283.9 113.15 284.85 L100.9 286.15 100.75 286.35 M117.75 280.85 L120.4 280.55 Q123.25 280.25 123.75 282.7 124.05 284.8 122.05 285.7 L118.7 286.1 M116.55 280.95 L117.75 280.85 M118.9 274.45 L116.55 280.95 M145.45 264.9 L142.8 272.1 M154.9 289.05 L153.5 285.3 150.05 287.25 M29.55 235.45 L30.2 236.85 Q33.15 242.95 37.1 248.85 45.55 261.55 57.7 270.3 61.5 273.0 65.55 275.15 L66.85 275.8 Q81.55 283.2 99.9 283.6 M29.55 235.45 Q27.55 231.05 26.05 226.55 23.75 218.7 22.15 211.05 21.8 208.75 21.95 207.1 M170.15 282.1 L172.8 274.85 M186.95 299.25 L184.6 305.75 196.0 317.4 Q196.0 318.1 195.65 318.5 209.95 329.95 226.0 333.75 L227.4 334.05 236.5 335.4 Q251.45 336.5 266.1 332.2 272.9 330.2 279.1 327.45 L280.45 326.8 288.9 322.25 Q295.7 317.7 301.8 312.85 303.55 311.3 304.55 309.95 M183.75 304.85 L184.6 305.75 M186.0 297.75 L186.3 297.95 187.3 298.3 186.95 299.25 M195.65 318.5 L194.7 318.75 185.8 309.75 Q183.9 309.0 184.7 310.9 L193.25 319.75 193.25 320.0 M183.75 304.85 L181.9 302.95 Q179.9 300.9 178.0 302.45 176.35 303.85 177.35 305.85 L179.65 308.3 M180.85 278.85 Q177.0 291.95 186.0 297.75" fill="none" stroke="#000000" stroke-linecap="round" stroke-linejoin="round" stroke-width="1.0"/>
    <path d="M280.0 329.1 L279.95 329.1 M180.1 308.75 L179.65 308.3 180.05 308.65 180.1 308.75 M118.7 286.1 L118.15 286.15 118.0 286.15 118.7 286.1 M28.5 237.55 L28.45 237.55 M113.05 255.9 L114.5 255.5 120.6 274.0 M113.05 255.9 L118.9 274.45 M120.25 273.9 L117.75 280.85 M137.05 269.3 Q136.5 269.5 136.35 270.1 136.1 270.65 136.35 271.2 136.65 271.75 137.2 271.95 L138.3 271.9 139.05 271.1 Q139.25 270.5 139.0 270.0 138.75 269.4 138.2 269.25 L137.05 269.3 M123.55 289.45 L124.6 289.25 125.5 289.1 M125.1 286.7 L123.2 287.15 123.15 287.15 M44.65 230.85 L44.7 230.8 44.15 229.4 M43.35 229.75 L29.55 235.45 M30.2 236.85 L44.65 230.85 M78.7 256.9 L77.5 256.1 M66.85 275.8 L78.7 256.9 M77.3 256.45 L65.55 275.15 M126.45 299.9 L124.6 289.25 M176.4 283.6 Q176.6 284.15 176.45 284.7 L175.7 285.5 174.55 285.55 173.75 284.85 Q173.5 284.25 173.7 283.7 173.9 283.15 174.45 282.9 L175.55 282.85 Q176.1 283.0 176.4 283.6 M271.9 313.55 L271.85 313.5 273.2 312.8 M202.55 287.55 L203.35 288.8 186.95 299.25 M226.0 333.75 L229.1 311.6 229.05 311.6 M229.1 311.6 L230.5 311.8 M230.45 312.2 L227.4 334.05 M186.3 297.95 L183.75 304.85 M172.5 306.2 L173.1 306.9 173.8 307.75 M175.6 306.2 L175.5 306.2 174.35 304.65 M164.85 313.9 L173.1 306.9 M279.1 327.45 L271.9 313.55 M280.45 326.8 L273.6 313.55 M186.0 297.75 L202.55 287.55" fill="none" stroke="#000000" stroke-linecap="round" stroke-linejoin="round" stroke-width="0.5"/>
    <path d="M152.4 269.15 L152.05 269.0 Q148.8 267.7 146.6 266.2" fill="none" stroke="#000000" stroke-linecap="round" stroke-linejoin="round" stroke-width="2.0"/>
    <path d="M144.55 271.85 Q147.2 272.1 150.55 273.2 L150.9 273.35" fill="none" stroke="#000000" stroke-linecap="round" stroke-linejoin="round" stroke-width="2.0"/>
  </g>
</svg>
