<?xml version="1.0" encoding="UTF-8" standalone="no"?>
<svg xmlns:xlink="http://www.w3.org/1999/xlink" height="500.0px" width="800.0px" xmlns="http://www.w3.org/2000/svg">
  <g transform="matrix(1.0, 0.0, 0.0, 1.0, 0.0, 0.0)">
    <path d="M800.0 500.0 L0.0 500.0 0.0 0.0 800.0 0.0 800.0 500.0 M674.25 448.1 L674.25 48.1 34.25 48.1 34.25 448.1 674.25 448.1 34.25 448.1 34.25 48.1 674.25 48.1 674.25 448.1 M160.15 241.55 Q160.35 240.4 160.8 239.4 162.55 234.35 164.05 228.35 162.8 221.45 159.2 214.55 L162.1 206.7 Q165.95 195.95 169.15 185.5 163.75 167.55 146.3 152.5 145.0 161.85 144.85 171.8 144.55 188.45 147.6 206.7 L147.75 207.8 Q140.5 217.25 137.95 226.65 139.4 242.9 148.4 259.15 L152.05 265.35 152.65 266.35 Q151.05 274.95 150.2 282.25 L150.05 282.2 159.9 288.75 160.75 289.65 Q162.5 291.1 164.95 290.05 L165.05 290.25 165.5 291.65 169.9 290.75 169.8 287.1 169.95 282.65 Q170.1 278.6 170.55 274.65 L173.95 272.15 174.1 271.8 161.15 265.25 160.0 251.8 Q159.4 245.75 160.15 241.55" fill="#000000" fill-rule="evenodd" stroke="none"/>
    <path d="M160.15 241.55 Q159.4 245.75 160.0 251.8 160.0 254.4 159.0 252.75 156.05 246.3 157.8 242.6 158.7 241.95 160.15 241.55" fill="#ffffff" fill-rule="evenodd" stroke="none"/>
    <path d="M674.25 448.1 L34.25 448.1 34.25 48.1 674.25 48.1 674.25 448.1 Z" fill="none" stroke="#000000" stroke-linecap="round" stroke-linejoin="round" stroke-width="2.0"/>
  </g>
</svg>
