<?xml version="1.0" encoding="UTF-8" standalone="no"?>
<svg xmlns:xlink="http://www.w3.org/1999/xlink" height="50.75px" width="90.45px" xmlns="http://www.w3.org/2000/svg">
  <g transform="matrix(1.0, 0.0, 0.0, 1.0, -113.95, -256.25)">
    <path d="M120.7 264.25 L119.1 265.9 120.7 264.25 Q120.9 264.85 121.7 264.6 L120.1 266.2 121.7 264.6 122.95 265.05 121.35 266.65 122.95 265.05 Q123.15 265.8 123.9 265.45 L122.35 267.0 123.9 265.45 189.3 289.35 188.65 289.95 188.6 290.15 122.35 267.0 Q121.55 267.05 121.35 266.65 L120.1 266.2 Q119.4 266.3 119.1 265.9 L116.15 264.85 117.8 263.2 120.7 264.25 M123.9 258.9 L125.6 257.25 128.5 258.4 Q128.7 259.0 129.45 258.8 L130.7 259.25 Q130.85 260.0 131.65 259.65 L196.4 285.25 195.75 285.9 195.65 286.05 130.05 261.2 Q129.25 261.25 129.05 260.85 L127.8 260.35 Q127.15 260.4 126.85 260.0 L123.9 258.9 M131.65 259.65 L130.05 261.2 131.65 259.65 M129.45 258.8 L127.8 260.35 129.45 258.8 M130.7 259.25 L129.05 260.85 130.7 259.25 M128.5 258.4 L126.85 260.0 128.5 258.4" fill="#ffffff" fill-opacity="0.2509804" fill-rule="evenodd" stroke="none"/>
    <path d="M121.35 272.7 Q121.0 271.9 120.4 272.35 L119.1 271.95 Q118.7 271.25 118.15 271.6 L115.2 270.6 114.95 268.3 117.9 269.35 Q118.4 269.2 118.9 269.7 L120.15 270.1 Q120.55 269.9 121.15 270.45 L121.35 272.7 121.15 270.45 187.4 293.6 187.35 293.8 187.45 294.7 121.35 272.7 M117.9 269.35 L118.15 271.6 117.9 269.35 M119.1 271.95 L118.9 269.7 119.1 271.95 M120.15 270.1 L120.4 272.35 120.15 270.1 M128.75 264.6 L194.4 289.5 194.3 289.65 194.4 290.6 128.9 266.85 128.75 264.6 128.9 266.85 Q128.55 266.05 127.95 266.5 L126.7 266.05 Q126.3 265.35 125.7 265.7 L122.8 264.6 122.6 262.3 125.55 263.4 Q126.05 263.3 126.5 263.75 L127.8 264.25 Q128.2 264.05 128.75 264.6 M125.7 265.7 L125.55 263.4 125.7 265.7 M126.5 263.75 L126.7 266.05 126.5 263.75 M127.95 266.5 L127.8 264.25 127.95 266.5" fill="#000000" fill-opacity="0.2509804" fill-rule="evenodd" stroke="none"/>
    <path d="M119.1 265.9 L120.7 264.25 M116.15 264.85 L119.1 265.9 Q119.4 266.3 120.1 266.2 L121.7 264.6 M121.35 266.65 L120.1 266.2 118.9 269.7 120.15 270.1 121.35 266.65 122.95 265.05 M117.9 269.35 Q118.4 269.2 118.9 269.7 L119.1 271.95 M118.15 271.6 L117.9 269.35 114.95 268.3 M120.15 270.1 Q120.55 269.9 121.15 270.45 L122.35 267.0 Q121.55 267.05 121.35 266.65 M119.1 265.9 L117.9 269.35 M120.4 272.35 L120.15 270.1 M121.35 272.7 L121.15 270.45 187.4 293.6 M188.6 290.15 L122.35 267.0 123.9 265.45 M129.05 260.85 Q129.25 261.25 130.05 261.2 L131.65 259.65 M130.05 261.2 L128.75 264.6 194.4 289.5 M195.7 286.05 L195.65 286.05 130.05 261.2 M127.8 264.25 Q128.2 264.05 128.75 264.6 L128.9 266.85 M127.8 260.35 Q127.15 260.4 126.85 260.0 L125.55 263.4 Q126.05 263.3 126.5 263.75 L127.8 260.35 129.45 258.8 M129.05 260.85 L127.8 260.35 M127.8 264.25 L129.05 260.85 130.7 259.25 M123.9 258.9 L126.85 260.0 128.5 258.4 M125.55 263.4 L125.7 265.7 M125.55 263.4 L122.6 262.3 M126.5 263.75 L127.8 264.25 127.95 266.5 M126.7 266.05 L126.5 263.75" fill="none" stroke="#000000" stroke-linecap="round" stroke-linejoin="round" stroke-opacity="0.5019608" stroke-width="0.5"/>
    <path d="M120.7 264.25 L117.8 263.2 116.15 264.85 114.95 268.3 115.2 270.6 118.15 271.6 Q118.7 271.25 119.1 271.95 L120.4 272.35 Q121.0 271.9 121.35 272.7 M121.7 264.6 Q120.9 264.85 120.7 264.25 M122.95 265.05 L121.7 264.6 M123.9 265.45 Q123.15 265.8 122.95 265.05 M123.9 258.9 L125.6 257.25 128.5 258.4 Q128.7 259.0 129.45 258.8 L130.7 259.25 Q130.85 260.0 131.65 259.65 M196.4 285.25 L196.6 285.1 203.25 287.75 M194.25 297.2 L187.45 294.9 187.45 294.7 M128.9 266.85 L194.4 290.6 194.4 290.8 201.15 293.25 M128.9 266.85 Q128.55 266.05 127.95 266.5 L126.7 266.05 Q126.3 265.35 125.7 265.7 L122.8 264.6 122.6 262.3 123.9 258.9 M189.3 289.35 L123.9 265.45" fill="none" stroke="#000000" stroke-linecap="round" stroke-linejoin="round" stroke-width="2.0"/>
    <path d="M187.4 293.6 L188.6 290.15 188.65 289.95 189.3 289.35 M194.4 289.5 L195.7 286.05 195.75 285.9 196.4 285.25 M194.4 290.6 L194.3 289.65 194.4 289.5 M187.35 293.8 L187.45 294.7 M187.4 293.6 L187.35 293.8" fill="none" stroke="#000000" stroke-linecap="round" stroke-linejoin="round" stroke-width="1.0"/>
    <path d="M187.35 293.8 L194.2 296.15 195.5 292.4 188.65 289.95 M195.75 285.9 L202.5 288.5 202.5 288.45 203.25 287.75 M194.65 297.25 L195.15 295.75 195.05 295.75 195.25 295.2 195.35 295.25 195.55 294.75 Q195.6 294.55 195.8 294.5 L196.15 294.45 196.2 294.5 196.25 294.5 196.4 294.15 195.75 293.8 Q195.7 293.5 195.95 293.25 L196.55 293.6 196.8 292.9 196.7 291.9 196.2 291.6 195.5 292.35 195.5 292.4 M194.2 296.15 L194.15 296.15 194.25 297.2 M196.25 294.5 L196.45 294.7 196.5 294.95 196.5 294.85 Q196.65 294.45 196.4 294.15 M196.5 294.95 L196.45 295.1 196.2 295.9 Q196.85 295.75 197.1 295.05 197.4 294.15 196.55 293.6 M195.35 295.25 L195.15 295.75 M202.3 291.3 L202.2 291.3 Q201.95 291.45 202.0 291.8 L202.1 291.85 202.3 291.3 202.45 290.9 202.7 290.6 203.1 290.6 203.2 290.65 203.35 290.3 Q203.15 290.05 202.7 289.9 L202.9 289.35 203.55 289.7 M202.5 288.5 L201.1 292.2 201.05 292.25 201.15 293.25 201.55 293.35 202.1 291.85 M196.2 295.9 L195.5 297.7 195.8 298.15 195.85 299.15 195.1 301.2 194.4 301.95 194.35 302.0 194.4 303.45 194.5 303.5 196.55 304.25 196.6 304.25 197.55 303.2 197.5 303.1 Q197.3 302.6 197.5 302.1 L198.2 300.05 Q198.4 299.5 198.9 299.3 L199.45 299.15 199.95 297.75 199.65 297.3 Q199.4 296.8 199.6 296.3 L200.35 294.25 Q200.5 293.7 201.05 293.5 L201.55 293.35 201.3 294.1 201.15 294.5 201.15 294.85 201.45 295.1 201.45 295.15 201.8 295.1 202.05 294.85 202.2 294.45 202.5 293.7 M201.3 294.1 L200.95 294.5 200.2 296.5 200.25 297.0 200.4 296.6 Q200.45 296.4 200.65 296.35 L201.0 296.3 201.05 296.35 201.3 296.55 201.3 296.95 201.15 297.35 201.5 296.95 202.2 294.95 202.2 294.45 M201.1 292.2 L194.3 289.65 M189.3 289.35 L196.2 291.6 M203.35 290.3 Q203.6 290.55 203.45 290.95 L203.4 291.1 203.4 291.2 203.1 292.0 M203.2 290.65 L203.35 290.85 203.4 291.1 M200.9 298.1 L201.15 297.35 M199.45 299.15 L199.2 299.9 199.05 300.25 199.1 300.6 199.35 300.85 199.4 300.85 199.75 300.85 200.0 300.55 200.1 300.25 200.35 299.5 M198.3 303.8 L198.85 303.2 199.05 303.0 199.2 302.65 199.05 302.3 199.0 302.3 Q198.85 302.15 198.7 302.15 198.45 302.15 198.35 302.35 L198.05 302.65 197.55 303.2 M199.2 299.9 L198.85 300.3 198.1 302.3 198.05 302.65 M198.85 303.2 L199.0 303.15 199.35 302.8 200.1 300.75 200.1 300.25 M200.25 297.0 L199.95 297.75 M195.5 297.7 L195.2 298.5 195.2 298.95 194.5 301.0 194.35 301.25 194.35 302.0 M195.2 298.5 L195.15 298.7 194.9 299.0 194.55 299.0 194.5 299.0 194.25 298.75 194.2 298.4 194.3 298.1 193.95 298.5 193.25 300.5 Q193.1 300.75 193.25 301.05 L193.35 301.2 193.35 300.9 193.5 300.55 Q193.6 300.4 193.8 300.4 L193.85 300.4 194.15 300.55 194.3 300.85 194.35 301.25 M194.3 298.1 L194.6 297.4 M193.35 301.2 L193.4 302.0 M196.15 304.8 L194.45 304.15 194.45 304.7 194.3 305.1 194.0 305.25 193.95 305.25 193.6 305.1 193.45 304.75 193.45 305.05 193.85 305.4 195.85 306.15 196.4 306.1 196.7 305.75 196.75 305.55 196.5 305.85 196.15 306.0 195.8 305.9 195.8 305.85 195.65 305.55 195.75 305.2 196.15 304.8 196.6 304.25 M197.3 304.95 L196.75 305.55 M194.45 304.15 L194.4 303.45" fill="none" stroke="#000000" stroke-linecap="round" stroke-linejoin="round" stroke-width="0.5"/>
    <path d="M203.25 287.75 L203.75 288.0 203.8 289.05 203.55 289.7 Q204.35 290.3 204.05 291.2 203.75 291.9 203.1 292.0 L202.5 293.7 202.8 294.15 Q203.0 294.6 202.85 295.15 L202.1 297.2 201.4 297.95 200.9 298.1 200.35 299.5 200.7 299.95 Q200.9 300.4 200.75 300.95 L200.0 303.0 199.3 303.75 198.3 303.8 197.3 304.95 Q197.55 305.4 197.35 305.95 L197.35 306.05 197.3 306.1 196.65 306.7 195.65 306.75 193.6 306.0 Q193.05 305.8 192.85 305.3 192.65 304.9 192.75 304.45 L192.8 304.3 193.45 303.55 193.4 302.0 193.35 302.0 193.25 301.95 192.65 301.4 192.65 301.3 Q192.4 300.8 192.6 300.3 L193.35 298.25 Q193.5 297.75 194.05 297.5 L194.6 297.4 194.65 297.25 194.55 297.25 194.25 297.2 M193.45 303.55 L193.45 304.45 193.45 304.55 193.45 304.75" fill="none" stroke="#000000" stroke-linecap="round" stroke-linejoin="round" stroke-width="0.5"/>
    <path d="M187.45 294.7 L121.35 272.7 M131.65 259.65 L196.4 285.25" fill="none" stroke="#000000" stroke-linecap="round" stroke-linejoin="round" stroke-width="2.0"/>
  </g>
</svg>
