<?xml version="1.0" encoding="UTF-8" standalone="no"?>
<svg xmlns:xlink="http://www.w3.org/1999/xlink" height="27.85px" width="59.8px" xmlns="http://www.w3.org/2000/svg">
  <g transform="matrix(1.0, 0.0, 0.0, 1.0, -138.95, -266.95)">
    <path d="M143.3 268.4 Q144.15 267.5 145.25 266.95 147.35 267.2 146.55 268.7 L145.6 268.45 Q139.5 273.35 142.3 280.15 L142.05 281.7 141.6 281.5 Q140.85 280.2 140.45 278.9 L139.05 278.35 Q138.3 273.1 142.1 268.1 L143.3 268.4 M195.05 282.9 L195.1 282.9 195.05 282.9 195.45 282.25 Q198.2 279.9 198.0 284.2 L198.6 284.45 Q199.3 288.85 196.8 293.3 L196.0 293.0 Q194.35 296.05 193.0 293.9 L192.75 293.5 Q191.95 287.85 195.05 282.9 M195.1 282.9 L195.1 283.15 195.2 283.0 195.1 282.9" fill="#000000" fill-rule="evenodd" stroke="none"/>
  </g>
</svg>
