<?xml version="1.0" encoding="UTF-8" standalone="no"?>
<svg xmlns:xlink="http://www.w3.org/1999/xlink" height="23.7px" width="33.1px" xmlns="http://www.w3.org/2000/svg">
  <g transform="matrix(1.0, 0.0, 0.0, 1.0, -209.3, -154.65)">
    <path d="M224.55 160.15 Q221.7 160.15 220.35 161.65 218.95 163.1 219.65 166.45 220.35 169.9 222.3 171.35 224.3 172.85 227.35 172.85 L230.15 172.5 Q231.45 172.2 232.85 171.5 L232.5 169.9 226.35 169.9 225.3 164.6 240.4 164.6 242.4 174.6 Q238.5 176.8 235.5 177.55 L228.05 178.35 Q222.6 178.35 218.9 176.95 215.2 175.55 212.7 172.8 210.3 170.05 209.55 166.5 208.8 162.75 210.3 159.95 211.8 157.2 215.5 155.75 218.45 154.65 223.65 154.65 L231.35 155.3 Q234.05 156.05 236.0 157.5 237.95 158.95 239.35 161.5 L230.0 162.75 Q229.15 161.4 227.75 160.75 226.45 160.15 224.55 160.15" fill="#000000" fill-rule="evenodd" stroke="none"/>
  </g>
</svg>
