<?xml version="1.0" encoding="UTF-8" standalone="no"?>
<svg xmlns:xlink="http://www.w3.org/1999/xlink" height="24.7px" width="27.6px" xmlns="http://www.w3.org/2000/svg">
  <g transform="matrix(1.0, 0.0, 0.0, 1.0, -212.05, -154.15)">
    <path d="M223.9 159.05 Q222.6 159.05 221.9 159.65 221.2 160.25 221.4 161.3 221.6 162.3 222.5 162.9 223.5 163.5 224.9 163.5 226.15 163.5 226.9 162.9 227.5 162.3 227.3 161.3 227.1 160.3 226.15 159.7 225.2 159.05 223.9 159.05 M222.85 170.9 Q223.1 172.25 224.35 173.1 225.65 173.9 227.0 173.9 228.3 173.9 229.15 173.1 230.1 172.2 229.8 170.9 229.5 169.5 228.3 168.65 227.05 167.8 225.7 167.8 224.3 167.8 223.45 168.65 222.55 169.45 222.85 170.9 M239.05 171.1 Q239.35 172.9 238.6 174.4 237.85 175.9 236.45 176.75 235.05 177.6 232.8 177.95 L228.0 178.35 Q223.2 178.35 220.45 177.5 217.65 176.6 215.95 174.9 214.25 173.2 213.8 171.1 213.4 169.05 214.4 167.6 215.4 166.15 217.7 165.6 215.7 165.1 214.55 164.1 213.0 162.7 212.65 160.9 212.05 157.9 215.4 156.1 217.95 154.65 222.6 154.65 228.75 154.65 232.1 156.45 235.5 158.25 236.0 160.9 236.3 162.5 234.9 164.1 234.7 164.95 233.1 165.6 235.5 166.3 237.1 167.8 238.65 169.3 239.05 171.1 Z" fill="none" stroke="#000000" stroke-linecap="round" stroke-linejoin="round" stroke-width="1.0"/>
  </g>
</svg>
