<?xml version="1.0" encoding="UTF-8" standalone="no"?>
<svg xmlns:xlink="http://www.w3.org/1999/xlink" height="57.5px" width="137.95px" xmlns="http://www.w3.org/2000/svg">
  <g transform="matrix(1.0, 0.0, 0.0, 1.0, -136.0, -248.15)">
    <path d="M146.15 254.85 Q149.35 252.45 153.05 251.2 L158.85 264.15 161.1 263.8 162.0 263.75 162.0 259.35 162.65 262.75 163.4 265.85 174.35 272.0 174.35 272.05 172.95 278.7 175.4 282.35 174.8 283.1 Q174.05 283.75 173.1 283.75 L172.85 283.75 172.75 283.75 Q171.5 283.7 170.05 282.85 L170.0 282.8 Q169.8 286.05 169.9 289.3 L169.9 289.5 Q167.85 290.85 165.5 291.35 L165.4 291.35 165.05 290.25 165.0 290.2 163.55 290.6 Q161.4 290.85 159.95 288.9 L150.1 282.35 150.2 282.35 Q151.05 275.0 152.65 266.35 L152.05 265.35 148.4 259.15 146.15 254.85 M183.0 258.85 Q187.2 263.35 189.0 268.9 L180.4 271.9 Q181.55 265.3 183.0 258.85 M261.25 271.05 Q258.4 274.7 257.5 280.45 L255.5 280.45 255.6 282.75 255.55 282.75 Q253.15 284.35 250.2 284.65 L250.1 284.65 250.05 284.45 250.0 284.4 249.3 284.7 248.75 284.7 245.75 284.4 245.65 284.35 245.55 284.2 Q244.9 283.55 244.6 282.45 L244.6 282.4 242.2 282.55 241.85 282.4 Q240.9 281.9 240.4 280.5 L239.3 280.2 239.05 280.1 Q238.1 278.95 237.5 277.7 L237.5 277.55 237.5 276.75 Q237.7 273.8 238.5 270.95 L238.55 270.95 239.45 267.85 239.4 267.8 239.45 267.7 Q240.45 264.75 241.9 261.9 L241.9 261.55 Q244.9 259.55 248.75 259.55 L251.65 259.85 252.2 259.95 251.75 261.55 251.7 261.65 261.25 271.05 M230.3 289.2 L229.4 288.2 232.1 286.05 230.8 288.5 230.3 289.2 M236.55 275.2 L224.1 277.45 Q223.6 274.9 223.6 272.15 223.6 269.65 224.0 267.4 L236.3 270.1 Q236.65 268.0 237.6 266.2 L226.35 260.45 Q227.3 258.6 228.65 256.95 L230.95 254.3 Q232.9 252.35 235.0 250.95 L237.35 254.55 237.45 258.8 237.5 259.95 237.5 260.25 237.65 263.75 Q237.7 269.45 236.55 275.2 M178.25 287.1 L186.2 292.4 Q184.5 295.05 182.1 297.45 179.55 300.0 176.7 301.8 L176.55 301.85 178.25 287.1" fill="#000000" fill-opacity="0.2509804" fill-rule="evenodd" stroke="none"/>
    <path d="M165.4 291.35 L162.35 291.7 162.0 291.7 162.0 305.65 Q157.35 305.6 153.25 304.25 L158.0 291.05 Q155.5 290.25 153.45 288.55 L144.65 299.35 142.55 297.45 Q138.0 292.95 136.0 287.35 L149.2 282.75 Q148.35 280.35 148.35 277.7 148.35 272.85 151.2 269.15 L151.25 269.1 139.6 261.35 Q140.85 259.6 142.4 258.05 L142.55 257.9 Q144.25 256.2 146.15 254.85 L148.4 259.15 152.05 265.35 152.65 266.35 Q151.05 275.0 150.2 282.35 L150.1 282.35 159.95 288.9 Q161.4 290.85 163.55 290.6 L165.0 290.2 165.05 290.25 165.4 291.35 M162.0 259.35 L162.0 249.75 162.35 249.75 Q167.6 249.75 172.15 251.4 L167.4 264.6 Q169.35 265.35 171.0 266.75 L179.85 255.85 181.5 257.35 182.1 257.9 183.0 258.85 Q181.55 265.3 180.4 271.9 L175.7 273.5 Q176.3 275.45 176.3 277.7 176.3 280.15 175.6 282.35 L175.55 282.45 175.5 282.45 175.4 282.35 172.95 278.7 174.35 272.05 174.35 272.0 163.4 265.85 162.65 262.75 162.0 259.35 M261.25 271.05 L261.3 270.75 273.7 268.5 273.95 272.15 Q273.95 275.3 273.3 278.15 L260.95 275.5 260.1 277.75 271.3 283.5 Q269.5 286.95 266.55 289.9 L262.45 293.35 255.65 282.8 255.6 282.75 255.5 280.45 257.5 280.45 Q258.4 274.7 261.25 271.05 M245.55 284.2 L245.45 284.3 241.7 296.35 Q236.0 294.7 231.4 290.35 L230.95 289.9 230.3 289.2 230.8 288.5 232.1 286.05 239.3 280.4 239.3 280.2 240.4 280.5 Q240.9 281.9 241.85 282.4 L242.2 282.55 244.6 282.4 244.6 282.45 Q244.9 283.55 245.55 284.2 M238.5 270.95 L236.95 275.35 236.55 275.2 Q237.7 269.45 237.65 263.75 L237.5 260.25 237.5 259.95 237.45 258.8 237.35 254.55 241.1 260.35 239.45 267.7 239.4 267.8 239.45 267.85 238.55 270.95 238.5 270.95" fill="#010101" fill-opacity="0.0" fill-rule="evenodd" stroke="none"/>
    <path d="M136.0 287.35 L149.2 282.75 Q148.35 280.35 148.35 277.7 148.35 272.75 151.25 269.1 L139.6 261.35 Q140.9 259.55 142.55 257.9 147.25 253.2 153.05 251.2 L158.85 264.15 162.0 263.75 162.0 249.75 162.35 249.75 Q167.6 249.75 172.15 251.4 L167.4 264.6 Q169.35 265.35 171.0 266.75 L179.85 255.85 182.1 257.9 Q187.0 262.75 189.0 268.9 L175.7 273.5 Q176.3 275.45 176.3 277.7 176.3 281.55 174.55 284.6 L186.2 292.4 Q184.5 295.05 182.1 297.45 179.25 300.35 176.0 302.2 L170.2 289.3 Q166.75 291.7 162.35 291.7 L162.0 291.7 162.0 305.65 Q157.35 305.6 153.25 304.25 L158.0 291.05 Q155.5 290.25 153.45 288.55 L144.65 299.35 142.55 297.45 Q138.0 292.95 136.0 287.35" fill="url(#gradient0)" fill-rule="evenodd" stroke="none"/>
    <path d="M268.95 257.05 L259.1 264.85 Q260.95 267.45 261.3 270.75 L273.7 268.5 273.95 272.15 Q273.95 275.3 273.3 278.15 L260.95 275.5 260.1 277.75 271.3 283.5 Q269.5 286.95 266.55 289.9 L262.45 293.35 255.55 282.75 Q252.55 284.7 248.75 284.7 L245.45 284.3 241.7 296.35 Q235.7 294.6 230.95 289.9 L229.4 288.2 239.3 280.4 Q237.25 278.1 236.55 275.2 L224.1 277.45 Q223.6 274.9 223.6 272.15 223.6 269.65 224.0 267.4 L236.3 270.1 Q236.65 268.0 237.6 266.2 L226.35 260.45 Q228.1 257.15 230.95 254.3 232.9 252.35 235.0 250.95 L241.9 261.55 Q244.9 259.55 248.75 259.55 L253.0 260.2 256.8 248.15 Q262.2 249.95 266.55 254.3 267.9 255.6 268.95 257.05" fill="url(#gradient1)" fill-rule="evenodd" stroke="none"/>
  </g>
  <defs>
    <radialGradient cx="0" cy="0" gradientTransform="matrix(0.0352, 0.0, 0.0, 0.0352, 162.25, 277.7)" gradientUnits="userSpaceOnUse" id="gradient0" r="819.2" spreadMethod="pad">
      <stop offset="0.0" stop-color="#000000" stop-opacity="0.0"/>
      <stop offset="1.0" stop-color="#000000" stop-opacity="0.2"/>
    </radialGradient>
    <radialGradient cx="0" cy="0" gradientTransform="matrix(0.0316, 0.0, 0.0, 0.0316, 249.2, 272.1)" gradientUnits="userSpaceOnUse" id="gradient1" r="819.2" spreadMethod="pad">
      <stop offset="0.0" stop-color="#000000" stop-opacity="0.0"/>
      <stop offset="1.0" stop-color="#000000" stop-opacity="0.2"/>
    </radialGradient>
  </defs>
</svg>
