<?xml version="1.0" encoding="UTF-8" standalone="no"?>
<svg xmlns:xlink="http://www.w3.org/1999/xlink" height="50.35px" width="50.35px" xmlns="http://www.w3.org/2000/svg">
  <g transform="matrix(1.0, 0.0, 0.0, 1.0, -223.65, -246.95)">
    <path d="M251.5 247.1 L255.95 247.95 Q261.95 249.6 266.6 254.3 274.0 261.7 274.0 272.15 274.0 282.55 266.6 289.9 259.25 297.3 248.8 297.3 238.65 297.3 231.4 290.3 L231.95 288.95 232.15 288.45 232.9 286.85 235.3 280.1 235.75 278.65 235.7 278.65 235.75 278.55 Q237.75 271.15 237.65 263.75 L237.5 260.25 237.5 259.95 237.45 258.8 237.3 249.65 238.95 248.9 241.95 261.85 241.95 261.9 241.6 262.65 Q240.3 265.2 239.45 267.8 L238.55 270.95 Q237.75 273.8 237.55 276.75 237.3 278.65 238.35 279.6 L239.45 280.25 240.45 280.5 Q240.95 281.9 241.9 282.4 242.95 282.95 244.65 282.4 245.15 284.1 246.2 284.75 L248.55 284.95 250.05 284.4 250.7 285.2 251.95 285.75 252.3 285.8 Q255.15 286.05 255.65 283.25 L255.55 280.45 257.55 280.45 Q258.45 274.7 261.3 271.05 L258.9 268.7 251.75 261.65 251.65 260.25 251.65 259.95 251.6 258.8 Q251.35 252.95 251.5 247.1" fill="#010101" fill-opacity="0.0" fill-rule="evenodd" stroke="none"/>
    <path d="M238.95 248.9 Q240.7 248.15 242.55 247.7 245.55 246.95 248.8 246.95 L251.5 247.1 Q251.35 252.95 251.6 258.8 L251.65 259.95 251.65 260.25 251.75 261.65 258.9 268.7 261.3 271.05 Q258.45 274.7 257.55 280.45 L255.55 280.45 255.65 283.25 Q255.15 286.05 252.3 285.8 L251.95 285.75 250.7 285.2 250.05 284.4 248.55 284.95 246.2 284.75 Q245.15 284.1 244.65 282.4 242.95 282.95 241.9 282.4 240.95 281.9 240.45 280.5 L239.45 280.25 238.35 279.6 Q237.3 278.65 237.55 276.75 237.75 273.8 238.55 270.95 L239.45 267.8 Q240.3 265.2 241.6 262.65 L241.95 261.9 241.95 261.85 238.95 248.9 M231.4 290.3 L231.0 289.9 230.35 289.2 Q223.65 282.1 223.65 272.15 223.65 263.5 228.7 256.95 L231.0 254.3 Q233.9 251.4 237.3 249.65 L237.45 258.8 237.5 259.95 237.5 260.25 237.65 263.75 Q237.75 271.15 235.75 278.55 L235.7 278.65 235.75 278.65 235.3 280.1 232.9 286.85 232.15 288.45 231.95 288.95 231.4 290.3" fill="#000000" fill-opacity="0.2509804" fill-rule="evenodd" stroke="none"/>
    <path d="M266.6 289.9 Q259.25 297.3 248.8 297.3 238.35 297.3 231.0 289.9 223.65 282.55 223.65 272.15 223.65 261.7 231.0 254.3 238.35 246.95 248.8 246.95 259.25 246.95 266.6 254.3 274.0 261.7 274.0 272.15 274.0 282.55 266.6 289.9" fill="url(#gradient0)" fill-rule="evenodd" stroke="none"/>
  </g>
  <defs>
    <radialGradient cx="0" cy="0" gradientTransform="matrix(0.0316, 0.0, 0.0, 0.0316, 249.25, 272.1)" gradientUnits="userSpaceOnUse" id="gradient0" r="819.2" spreadMethod="pad">
      <stop offset="0.0" stop-color="#000000" stop-opacity="0.0"/>
      <stop offset="1.0" stop-color="#000000" stop-opacity="0.2"/>
    </radialGradient>
  </defs>
</svg>
