<?xml version="1.0" encoding="UTF-8" standalone="no"?>
<svg xmlns:xlink="http://www.w3.org/1999/xlink" height="377.15px" width="125.3px" xmlns="http://www.w3.org/2000/svg">
  <g transform="matrix(1.0, 0.0, 0.0, 1.0, -136.95, -88.95)">
    <path d="M188.8 237.3 L189.85 233.9 Q190.7 226.85 190.8 220.3 190.9 212.55 189.85 205.45 176.5 197.0 169.15 185.5 164.8 199.75 159.2 214.55 162.8 221.45 164.05 228.35 161.7 237.85 161.1 249.15 160.95 252.2 160.95 255.4 160.9 260.15 161.15 265.25 L174.45 272.0 173.0 278.65 175.55 282.35 174.95 283.05 Q174.05 283.85 172.85 283.75 171.55 283.65 170.05 282.8 L170.0 282.8 Q169.85 286.85 170.0 290.85 L167.8 291.35 165.65 291.8 165.1 290.2 Q161.95 291.5 160.05 288.85 L150.2 282.35 Q151.05 275.0 152.65 266.35 L152.05 265.35 148.4 259.15 Q139.4 242.9 137.95 226.65 140.5 217.25 147.75 207.8 145.1 192.1 144.85 177.6 144.6 164.55 146.3 152.5 151.9 149.05 159.05 145.85 164.9 143.2 171.75 140.75 L175.4 139.85 Q181.45 138.0 186.25 134.6 L188.5 116.95 Q187.35 116.6 186.85 115.65 186.05 113.95 185.6 111.35 184.65 106.05 188.15 105.75 L188.85 105.8 Q187.35 95.95 193.15 91.85 195.05 90.55 197.25 90.15 L198.7 89.95 Q204.2 89.6 211.65 94.3 218.05 98.8 218.5 110.25 L217.05 113.6 Q218.2 116.8 217.4 120.4 215.25 128.9 211.35 137.45 L210.1 137.45 210.1 140.0 Q223.15 143.15 236.0 147.3 L240.5 148.75 242.75 149.5 250.35 152.2 Q253.15 160.45 253.55 170.0 254.2 184.9 249.2 203.1 L248.95 203.95 254.95 214.95 Q252.85 225.75 252.05 236.55 251.15 247.7 251.6 258.8 L251.65 259.95 251.65 260.25 251.75 261.65 261.25 271.05 Q258.4 274.7 257.5 280.45 L255.55 280.45 255.65 283.25 Q255.1 286.05 252.25 285.8 250.6 285.5 250.05 284.45 247.6 285.5 246.2 284.75 245.15 284.05 244.65 282.4 242.9 283.0 241.9 282.4 240.95 281.85 240.45 280.45 239.05 280.25 238.35 279.65 237.25 278.6 237.55 276.75 237.75 273.8 238.55 270.95 L239.45 267.8 Q240.45 264.8 241.95 261.85 L237.45 242.3 Q237.1 248.5 237.45 258.8 L237.5 259.95 237.5 260.25 237.65 263.75 Q237.75 271.9 235.3 280.1 L232.9 286.85 232.15 288.45 231.95 288.95 223.15 311.0 223.15 325.0 222.5 326.8 Q223.55 341.85 221.85 356.85 220.75 364.45 220.1 373.6 218.75 391.5 219.1 415.2 L219.1 415.75 232.1 430.85 247.85 445.55 Q233.45 449.05 216.2 439.0 L205.85 439.0 Q205.55 429.45 207.9 419.95 L208.05 419.3 Q207.15 401.75 203.6 384.15 L202.65 379.45 Q199.05 360.95 198.1 341.5 201.25 329.9 208.85 318.85 L207.8 280.75 Q198.75 299.15 187.65 317.55 L184.75 328.9 183.8 330.25 183.8 345.1 174.05 384.1 164.25 423.15 Q163.05 437.6 164.25 453.95 160.45 460.05 153.7 465.1 148.7 460.25 146.3 455.3 142.6 442.65 154.85 421.15 L156.9 376.4 158.75 335.8 Q165.95 324.15 175.95 316.1 177.15 274.65 188.8 237.3" fill="none" stroke="#000000" stroke-linecap="round" stroke-linejoin="round" stroke-width="2.0"/>
    <path d="M210.1 137.45 L205.6 137.45 205.1 137.1 Q201.45 134.35 198.45 131.25 195.0 127.7 192.5 123.7 L191.15 121.35 190.45 117.05 188.5 116.95 M210.1 140.0 L210.1 146.25 M208.85 150.2 L214.95 150.7 Q217.35 151.6 218.85 151.55 220.35 151.5 220.95 150.55 L225.5 149.65 Q227.6 148.7 229.95 148.9 M188.85 105.8 Q190.35 106.15 190.75 108.25 M187.95 113.8 Q186.35 109.1 188.75 108.1 187.9 107.05 186.8 108.2 M189.85 111.1 Q189.4 108.85 188.75 108.1 M169.15 146.35 L171.05 146.4 175.4 146.45 Q190.1 146.9 201.4 148.95 L202.4 149.1 205.1 149.65 208.85 150.2 M199.25 145.15 L196.95 140.65 Q194.75 135.75 193.65 130.85 M192.9 181.65 Q188.3 180.95 185.65 178.9 L173.5 170.35 169.15 185.5 M192.9 181.65 Q199.95 182.65 211.55 180.45 218.85 179.05 226.25 179.15 L227.8 176.6 227.6 175.55 Q225.85 165.8 221.25 156.75 M168.4 166.75 L173.5 170.35 M226.25 179.15 Q233.5 179.15 240.75 180.45 M247.35 180.8 L249.15 178.55 251.0 176.15 Q251.0 171.25 249.85 166.4 248.6 161.25 246.05 156.15 M228.35 190.35 Q230.05 197.9 228.35 205.4 L228.05 207.15 225.4 221.35 M236.15 210.4 L236.2 210.05 238.15 202.0 238.3 201.5 238.9 198.7 Q239.5 193.2 235.4 189.85 M219.45 189.65 Q214.25 193.9 210.8 199.7 L209.65 201.35 209.3 201.8 Q206.9 204.9 204.45 206.3 201.8 207.85 199.15 207.45 M210.55 206.95 L214.3 214.3 216.05 217.7 M236.15 210.4 L235.0 214.95 M249.15 178.55 L248.55 190.95 Q245.85 196.6 243.8 202.75 L242.9 205.55 Q241.65 209.45 240.7 213.55 L239.6 218.5 239.35 220.5 Q238.65 226.0 238.05 233.6 L237.45 242.3 M166.45 284.5 L168.1 282.85 M165.1 290.2 L163.4 285.95 161.3 285.95 Q159.7 285.65 158.0 284.65 L160.05 288.85 M150.2 282.35 L158.0 284.65 M249.2 269.55 L252.85 269.35 M249.2 269.55 Q246.2 270.45 245.9 274.45 L245.9 274.65 246.65 275.5 Q248.85 274.6 250.1 276.75 251.45 276.15 253.75 276.4 L254.2 272.65 M245.9 274.65 L245.05 274.15 243.4 274.05 240.45 280.45 M250.05 284.45 Q249.35 283.05 250.25 280.45 L248.5 280.45 248.45 279.2 Q248.55 277.4 250.1 276.75 M246.65 275.5 L244.65 282.4 M255.55 280.45 L250.25 280.45 M230.95 245.15 L232.7 241.45 M230.95 245.15 Q229.05 248.7 227.05 251.4 222.75 257.15 217.95 258.7 213.25 269.75 207.8 280.75 M170.05 282.8 Q170.2 278.8 170.75 274.75 M163.4 285.95 Q164.75 285.7 165.95 284.9 L166.4 284.6 166.45 284.5 M215.15 254.0 Q211.9 249.05 207.45 245.85 204.45 243.75 200.95 242.35 M237.55 276.75 L240.8 272.3 Q241.65 272.05 242.55 272.95 L243.4 274.05 M215.95 324.35 L216.05 324.7 M220.4 332.2 L222.5 326.8 M176.55 336.1 L176.55 325.6 M183.8 330.25 L180.2 335.3" fill="none" stroke="#000000" stroke-linecap="round" stroke-linejoin="round" stroke-width="1.0"/>
    <path d="M188.8 237.3 L188.2 237.05 M192.5 123.7 L193.25 130.8 M210.1 146.25 L208.85 150.2 M229.95 148.9 L240.5 148.75 M197.25 90.15 L200.85 105.6 195.15 112.15 201.55 118.45 205.1 137.1 M202.4 149.1 L199.25 145.15 M196.95 140.65 L186.25 134.6 M209.65 201.35 L196.55 194.95 192.9 181.65 M221.25 156.75 L218.85 151.55 M240.75 180.45 L247.35 180.8 M246.05 156.15 L242.75 149.5 M235.4 189.85 L227.75 186.3 228.35 190.35 M228.05 207.15 L236.15 210.4 236.2 210.4 236.2 220.2 239.35 220.5 M227.75 186.3 L219.45 189.65 M209.3 201.8 L210.55 206.95 M214.3 214.3 L214.3 214.2 228.0 207.15 228.05 207.15 M225.4 221.35 L225.4 225.65 236.2 220.2 M171.05 146.4 L172.8 160.7 158.8 177.25 155.8 177.35 150.3 215.95 159.2 214.55 M243.8 202.75 L249.2 203.1 M249.85 166.4 L253.55 170.0 M155.8 177.35 L144.85 177.6 M161.1 249.15 L149.5 228.05 150.3 215.95 147.75 207.8 M161.15 265.25 L152.65 266.35 161.25 270.85 166.45 284.5 167.8 291.35 M253.9 268.7 L261.25 271.05 M251.75 261.65 L244.9 261.8 249.2 269.55 M242.9 205.55 L238.3 201.5 M236.2 210.05 L236.2 210.4 M199.15 207.45 L189.85 205.45 M190.8 220.3 L204.6 219.55 214.9 221.65 214.3 214.3 M225.4 225.65 L225.4 226.3 214.9 221.65 M232.7 241.45 L238.05 233.6 M212.8 249.75 L216.5 243.8 225.0 238.95 230.95 245.15 M227.05 251.4 L224.2 282.6 215.6 303.7 219.35 307.35 223.15 311.0 M200.95 242.35 L188.8 237.3 M217.95 258.7 L215.15 254.0 M207.45 245.85 L190.35 281.25 189.8 308.6 185.25 311.2 187.65 317.55 M208.85 318.85 L213.6 316.8 219.35 307.35 M216.05 324.7 L218.0 331.05 220.4 332.2 M213.6 316.8 L215.95 324.35 M180.2 335.3 L176.55 336.1 167.5 371.1 174.05 384.1 M176.55 325.6 L175.95 316.1 185.25 311.2 M220.1 373.6 L216.75 366.65 202.65 379.45 M218.0 331.05 L216.75 366.65 M252.05 236.55 L240.7 213.55 M244.9 261.8 L241.95 261.85 M159.05 145.85 L169.15 146.35 M248.55 190.95 L238.9 198.7 M156.9 376.4 L167.5 371.1 M207.9 419.95 L212.55 424.45 219.1 415.2 M212.55 424.45 L216.2 439.0 M154.85 421.15 L160.0 419.85 164.25 423.15" fill="none" stroke="#000000" stroke-linecap="round" stroke-linejoin="round" stroke-opacity="0.5019608" stroke-width="1.0"/>
  </g>
</svg>
