<?xml version="1.0" encoding="UTF-8" standalone="no"?>
<svg xmlns:xlink="http://www.w3.org/1999/xlink" height="125.4px" width="115.2px" xmlns="http://www.w3.org/2000/svg">
  <g transform="matrix(1.0, 0.0, 0.0, 1.0, -137.95, -141.55)">
    <path d="M236.0 147.3 L250.35 152.2 Q252.2 157.65 253.0 163.75 L253.15 164.95 250.2 168.15 250.8 171.95 250.8 172.1 247.8 177.05 247.35 180.35 247.35 180.8 246.35 195.85 245.45 198.1 243.95 202.2 242.7 206.05 241.8 209.25 241.65 209.7 241.95 209.6 244.25 215.1 Q244.1 237.9 246.95 262.7 244.35 262.8 241.95 261.85 L237.45 242.3 237.8 237.65 237.95 235.15 238.3 230.75 Q226.85 232.85 197.4 231.2 L200.2 201.9 Q201.15 192.1 198.25 181.95 L199.55 178.25 Q180.3 162.15 156.15 160.35 153.8 184.4 154.4 209.15 150.95 215.65 149.6 226.45 151.0 246.3 157.15 266.8 154.8 267.2 152.65 266.35 L152.05 265.35 148.4 259.15 146.55 255.7 143.85 249.8 Q142.35 246.2 141.2 242.7 140.05 239.1 139.3 235.55 138.35 231.1 137.95 226.65 139.25 221.85 141.8 217.0 143.7 213.35 146.35 209.75 L147.75 207.8 146.75 201.2 145.6 191.55 145.0 182.7 144.8 174.0 Q144.8 168.65 145.2 163.5 145.55 157.9 146.3 152.5 152.7 148.55 161.05 144.95 165.1 143.2 169.6 141.55 172.7 144.0 173.8 146.4 L175.4 146.45 177.4 146.55 189.35 147.3 201.4 148.95 205.1 149.65 214.95 150.7 Q217.2 151.55 218.65 151.6 220.3 151.6 220.95 150.55 L221.6 150.5 225.5 149.65 Q227.6 148.7 229.95 148.9 L232.25 148.95 232.25 146.1 236.0 147.3" fill="#000000" fill-rule="evenodd" stroke="none"/>
  </g>
</svg>
