<?xml version="1.0" encoding="UTF-8" standalone="no"?>
<svg xmlns:xlink="http://www.w3.org/1999/xlink" height="55.75px" width="107.9px" xmlns="http://www.w3.org/2000/svg">
  <g transform="matrix(1.0, 0.0, 0.0, 1.0, -145.25, -134.6)">
    <path d="M236.0 147.3 L250.35 152.2 Q252.2 157.65 253.0 163.75 L253.15 164.95 250.2 168.15 Q243.35 173.95 237.55 179.95 232.55 185.1 228.35 190.35 222.05 184.5 215.25 179.85 194.2 165.35 168.5 162.3 159.25 164.1 155.35 169.85 148.35 166.95 145.25 162.6 145.6 157.45 146.3 152.5 152.7 148.55 161.05 144.95 166.05 142.8 171.75 140.75 L175.4 139.85 176.45 139.5 Q181.85 137.7 186.25 134.6 190.1 147.2 210.1 146.25 L210.1 140.0 221.6 143.0 Q228.8 145.0 236.0 147.3" fill="#000000" fill-rule="evenodd" stroke="none"/>
  </g>
</svg>
