<?xml version="1.0" encoding="UTF-8" standalone="no"?>
<svg xmlns:xlink="http://www.w3.org/1999/xlink" height="48.8px" width="107.9px" xmlns="http://www.w3.org/2000/svg">
  <g transform="matrix(1.0, 0.0, 0.0, 1.0, -145.25, -141.55)">
    <path d="M236.0 147.3 L250.35 152.2 Q252.2 157.65 253.0 163.75 L253.15 164.95 251.25 167.05 249.6 165.55 250.2 168.15 Q243.35 173.95 237.55 179.95 232.55 185.1 228.35 190.35 222.05 184.5 215.25 179.85 194.2 165.35 168.5 162.3 159.25 164.1 155.35 169.85 148.35 166.95 145.25 162.6 145.6 157.45 146.3 152.5 152.7 148.55 161.05 144.95 165.1 143.2 169.6 141.55 172.7 144.0 173.8 146.4 L175.4 146.45 176.65 146.5 177.4 146.55 189.35 147.3 201.4 148.95 205.1 149.65 214.95 150.7 Q217.2 151.55 218.65 151.6 220.3 151.6 220.95 150.55 L221.6 150.5 225.5 149.65 Q227.6 148.7 229.95 148.9 L232.25 148.95 233.1 146.35 236.0 147.3" fill="#000000" fill-rule="evenodd" stroke="none"/>
  </g>
</svg>
