<?xml version="1.0" encoding="UTF-8" standalone="no"?>
<svg xmlns:xlink="http://www.w3.org/1999/xlink" height="93.4px" width="46.4px" xmlns="http://www.w3.org/2000/svg">
  <g transform="matrix(1.0, 0.0, 0.0, 1.0, -208.25, -139.0)">
    <path d="M250.75 196.95 L245.45 198.1 243.95 202.2 242.7 206.05 241.65 209.7 241.0 212.2 239.95 216.8 239.6 218.5 239.0 223.4 238.65 226.95 238.3 230.75 M223.65 231.9 L225.5 221.4 226.2 217.4 228.35 205.4 229.1 200.9 Q229.4 197.1 228.9 193.3 L228.35 190.35 226.25 179.15 227.8 176.6 227.6 175.55 227.1 172.9 Q226.2 168.9 224.8 165.0 223.3 160.8 221.25 156.75 L219.05 151.55 208.85 146.55 208.75 146.3 210.1 146.25 210.1 140.0 M229.95 148.9 Q227.6 148.7 225.5 149.65 L221.6 150.5 220.95 150.55 Q220.4 151.45 219.05 151.55 M235.0 214.95 L238.15 202.0 238.35 201.35 Q239.65 196.8 238.2 193.5 237.3 191.4 235.4 189.85 M240.75 180.45 Q233.5 179.15 226.25 179.15 M247.35 180.8 L249.15 178.55 251.0 176.15 250.9 173.45 250.8 171.95 Q250.45 168.75 249.6 165.55 L248.35 161.55 246.75 157.55 246.05 156.15 M245.45 198.1 L246.9 194.65 248.55 190.95 249.15 178.55" fill="none" stroke="#000000" stroke-linecap="round" stroke-linejoin="round" stroke-width="1.0"/>
    <path d="M210.1 140.0 L221.6 143.0 Q228.8 145.0 236.0 147.3 L250.35 152.2 Q252.2 157.65 253.0 163.75 253.5 167.3 253.6 171.1 L253.5 178.55 252.45 188.25 250.75 196.95" fill="none" stroke="#000000" stroke-linecap="round" stroke-linejoin="round" stroke-width="2.0"/>
    <path d="M240.75 180.45 L247.35 180.8" fill="none" stroke="#000000" stroke-linecap="round" stroke-linejoin="round" stroke-opacity="0.2509804" stroke-width="1.0"/>
  </g>
</svg>
