<?xml version="1.0" encoding="UTF-8" standalone="no"?>
<svg xmlns:xlink="http://www.w3.org/1999/xlink" height="91.2px" width="90.85px" xmlns="http://www.w3.org/2000/svg">
  <g transform="matrix(1.0, 0.0, 0.0, 1.0, -160.05, -140.55)">
    <path d="M232.25 146.1 L236.0 147.3 238.65 148.15 M189.85 205.45 L190.55 212.1 190.8 217.7 190.75 223.3 190.2 230.75 M169.6 141.55 Q165.1 143.2 161.05 144.95" fill="none" stroke="#000000" stroke-linecap="round" stroke-linejoin="round" stroke-width="2.0"/>
    <path d="M238.65 148.15 L240.75 151.1 Q242.85 154.15 244.55 157.3 246.7 161.3 248.25 165.5 249.55 169.1 250.4 172.85 L247.8 177.05 246.6 180.75 Q243.5 191.35 243.65 203.1 L242.7 206.05 241.65 209.7 241.0 212.2 239.95 216.8 239.6 218.5 239.0 223.4 238.65 226.95 238.3 230.75 M169.6 141.55 Q172.7 144.0 173.8 146.4 L175.4 146.45 176.65 146.5 M169.15 146.35 L173.8 146.4 M177.4 146.55 L189.35 147.3 201.4 148.95 205.1 149.65 214.95 150.7 Q217.2 151.55 218.65 151.6 220.3 151.6 220.95 150.55 L221.6 150.5 225.5 149.65 Q227.6 148.7 229.95 148.9 L232.25 148.95 232.25 146.1 M161.05 144.95 Q164.8 148.05 168.05 151.7 170.45 154.45 172.1 157.25 174.1 160.7 174.95 164.15 188.1 168.65 199.55 178.25 200.7 180.0 201.35 181.85 L211.55 180.45 Q218.85 179.05 226.25 179.15 L227.8 176.6 227.6 175.55 227.1 172.9 Q226.2 168.9 224.8 165.0 223.3 160.8 221.25 156.75 M199.15 207.45 Q201.8 207.85 204.45 206.3 206.65 205.0 208.85 202.35 L210.8 199.7 Q212.5 196.85 214.6 194.4 216.8 191.8 219.45 189.65 M235.0 214.95 L238.15 202.0 238.35 201.35 Q239.65 196.8 238.2 193.5 237.3 191.4 235.4 189.85 M225.4 221.35 L228.35 205.4 229.1 200.9 Q229.4 197.1 228.9 193.3 L228.35 190.35 M240.75 180.45 Q233.5 179.15 226.25 179.15 M210.55 206.95 L216.05 217.7 M201.35 181.85 Q205.3 192.95 189.85 205.45" fill="none" stroke="#000000" stroke-linecap="round" stroke-linejoin="round" stroke-width="1.0"/>
    <path d="M246.6 180.75 L247.35 180.8" fill="none" stroke="#000000" stroke-linecap="round" stroke-linejoin="round" stroke-opacity="0.2509804" stroke-width="1.0"/>
  </g>
</svg>
