<?xml version="1.0" encoding="UTF-8" standalone="no"?>
<svg xmlns:xlink="http://www.w3.org/1999/xlink" height="52.35px" width="89.8px" xmlns="http://www.w3.org/2000/svg">
  <g transform="matrix(1.0, 0.0, 0.0, 1.0, -160.05, -138.5)">
    <path d="M221.6 143.0 Q228.8 145.0 236.0 147.3 L238.65 148.15 M161.05 144.95 Q166.05 142.8 171.75 140.75 L175.4 139.85 176.45 139.5" fill="none" stroke="#000000" stroke-linecap="round" stroke-linejoin="round" stroke-width="2.0"/>
    <path d="M238.65 148.15 L240.75 151.1 Q242.85 154.15 244.55 157.3 246.7 161.3 248.25 165.5 L249.35 168.9 Q243.0 174.35 237.55 179.95 232.55 185.1 228.35 190.35 222.05 184.5 215.25 179.85 196.75 167.15 174.7 163.25 173.85 160.25 172.1 157.25 170.45 154.45 168.05 151.7 164.8 148.05 161.05 144.95 M176.45 139.5 Q180.7 146.2 189.35 147.3 L201.4 148.95 205.1 149.65 214.95 150.7 Q217.2 151.55 218.65 151.6 220.3 151.6 220.95 150.55 L221.6 150.5 Q224.6 147.0 221.6 143.0 M177.4 146.55 L189.35 147.3 M169.15 146.35 L175.4 146.45 176.65 146.5 M221.6 150.5 L225.5 149.65 Q227.6 148.7 229.95 148.9 M215.25 179.85 L226.25 179.15 227.8 176.6 227.6 175.55 227.1 172.9 Q226.2 168.9 224.8 165.0 223.3 160.8 221.25 156.75 M237.55 179.95 L226.25 179.15" fill="none" stroke="#000000" stroke-linecap="round" stroke-linejoin="round" stroke-width="1.0"/>
  </g>
</svg>
