<?xml version="1.0" encoding="UTF-8" standalone="no"?>
<svg xmlns:xlink="http://www.w3.org/1999/xlink" height="60.9px" width="104.05px" xmlns="http://www.w3.org/2000/svg">
  <g transform="matrix(1.0, 0.0, 0.0, 1.0, -145.3, -141.8)">
    <path d="M184.75 145.85 L179.0 147.95 206.7 153.45 201.5 155.4 227.75 163.6 218.9 163.6 M166.4 142.8 L184.75 145.6 M146.3 152.5 L166.25 154.15 161.45 156.7 187.0 159.2 181.7 162.05 212.45 168.35 201.05 169.9 229.45 181.85 222.8 181.85 239.3 191.55 234.2 191.55 243.95 202.2 245.45 198.1 246.9 194.65 248.55 190.95 248.85 184.75 236.7 175.25 244.6 175.25 218.9 164.0" fill="none" stroke="#000000" stroke-linecap="round" stroke-linejoin="round" stroke-width="1.0"/>
    <path d="M166.4 142.8 L161.05 144.95 Q152.7 148.55 146.3 152.5" fill="none" stroke="#000000" stroke-linecap="round" stroke-linejoin="round" stroke-width="2.0"/>
  </g>
</svg>
