<?xml version="1.0" encoding="UTF-8" standalone="no"?>
<svg xmlns:xlink="http://www.w3.org/1999/xlink" height="89.9px" width="106.2px" xmlns="http://www.w3.org/2000/svg">
  <g transform="matrix(1.0, 0.0, 0.0, 1.0, -145.3, -141.85)">
    <path d="M234.9 146.95 L236.0 147.3 250.35 152.2 M166.25 142.85 Q163.55 143.85 161.05 144.95 152.7 148.55 146.3 152.5 M190.2 230.75 L190.75 223.3 190.8 217.7 190.55 212.1 189.85 205.45 182.5 200.2 Q178.85 197.25 175.8 194.0 173.3 191.35 171.2 188.5 L169.15 185.5" fill="none" stroke="#000000" stroke-linecap="round" stroke-linejoin="round" stroke-width="2.0"/>
    <path d="M250.35 152.2 L248.35 161.55 249.6 165.55 Q250.45 168.75 250.8 171.95 L250.9 173.45 251.0 176.15 249.15 178.55 248.55 190.95 246.9 194.65 245.45 198.1 243.95 202.2 242.7 206.05 241.65 209.7 241.0 212.2 239.95 216.8 239.6 218.5 239.0 223.4 238.65 226.95 238.3 230.75 M169.15 146.35 L175.4 146.45 175.75 146.45 166.25 142.85 M146.3 152.5 Q158.55 154.95 167.55 163.0 L168.4 166.75 173.5 170.35 185.65 178.9 Q188.55 181.15 193.75 181.75 200.6 182.55 211.55 180.45 218.85 179.05 226.25 179.15 205.15 158.6 175.75 146.45 L176.65 146.5 M169.15 185.5 L170.3 181.65 171.0 179.3 172.15 175.25 173.5 170.35 M235.0 214.95 L238.15 202.0 238.35 201.35 Q239.65 196.8 238.2 193.5 237.3 191.4 235.4 189.85 M225.4 221.35 L228.35 205.4 229.1 200.9 Q229.4 197.1 228.9 193.3 L228.35 190.35 M199.15 207.45 Q201.8 207.85 204.45 206.3 206.65 205.0 208.85 202.35 L210.8 199.7 Q212.5 196.85 214.6 194.4 216.8 191.8 219.45 189.65 M240.75 180.45 Q233.5 179.15 226.25 179.15 L227.85 176.65 Q236.9 161.8 234.9 146.95 M248.35 161.55 L246.75 157.55 246.05 156.15 M249.15 178.55 L247.35 180.8 M210.55 206.95 L216.05 217.7" fill="none" stroke="#000000" stroke-linecap="round" stroke-linejoin="round" stroke-width="1.0"/>
    <path d="M247.35 180.8 L240.75 180.45" fill="none" stroke="#000000" stroke-linecap="round" stroke-linejoin="round" stroke-opacity="0.2509804" stroke-width="1.0"/>
  </g>
</svg>
