<?xml version="1.0" encoding="UTF-8" standalone="no"?>
<svg xmlns:xlink="http://www.w3.org/1999/xlink" height="31.75px" width="110.7px" xmlns="http://www.w3.org/2000/svg">
  <g transform="matrix(1.0, 0.0, 0.0, 1.0, -143.8, -152.45)">
    <path d="M251.5 156.05 Q252.45 159.75 253.0 163.75 L253.5 168.45 M144.8 172.75 Q144.85 168.05 145.2 163.5 145.35 160.75 145.65 158.1" fill="none" stroke="#000000" stroke-linecap="round" stroke-linejoin="round" stroke-width="2.0"/>
    <path d="M168.4 166.75 L173.5 170.35 181.25 175.8 197.5 181.95 206.0 181.35 226.2 169.4 224.8 165.0 Q223.3 160.8 221.25 156.75 M173.5 170.35 L172.9 172.65 181.25 175.8 M197.5 181.95 L201.85 183.6 202.3 183.55 206.0 181.35 M201.85 183.6 L202.1 183.7 202.3 183.55 M240.75 180.45 L240.0 180.35 242.95 182.7 244.5 180.65 250.8 172.15 252.8 169.45 252.3 164.25 M226.2 169.4 L226.3 169.3 240.0 180.35 M145.65 158.1 L155.75 152.95 200.95 164.5 219.65 153.0 239.85 165.35 247.5 159.3 251.5 156.05 252.0 155.65 M247.5 159.3 L248.35 161.55 249.6 165.55 Q250.45 168.75 250.8 171.95 L250.8 172.15 M253.5 168.45 L252.8 169.45 M172.9 172.65 L155.1 165.9 144.8 172.75" fill="none" stroke="#000000" stroke-linecap="round" stroke-linejoin="round" stroke-width="1.0"/>
    <path d="M244.5 180.65 L240.75 180.45 M244.5 180.65 L247.35 180.8" fill="none" stroke="#000000" stroke-linecap="round" stroke-linejoin="round" stroke-opacity="0.2509804" stroke-width="1.0"/>
  </g>
</svg>
