<?xml version="1.0" encoding="UTF-8" standalone="no"?>
<svg xmlns:xlink="http://www.w3.org/1999/xlink" height="122.65px" width="80.15px" xmlns="http://www.w3.org/2000/svg">
  <g transform="matrix(1.0, 0.0, 0.0, 1.0, -158.15, -230.75)">
    <path d="M158.15 349.5 L158.75 335.8 Q165.95 324.15 175.95 316.1 177.2 272.75 189.85 233.9 L190.2 230.75 Q225.5 233.1 238.3 230.75 L237.45 242.3 Q237.1 248.5 237.45 258.8 L237.5 259.95 237.5 260.25 237.65 263.75 Q237.75 271.9 235.3 280.1 L232.9 286.85 232.15 288.45 231.95 288.95 223.15 311.0 223.15 325.0 222.5 326.8 Q223.25 337.35 222.65 347.9 L198.85 352.5 Q198.35 347.05 198.1 341.5 201.25 329.9 208.85 318.85 L207.8 280.75 Q198.75 299.15 187.65 317.55 L184.75 328.9 183.8 330.25 183.8 345.1 181.75 353.4 158.15 349.5" fill="#000000" fill-rule="evenodd" stroke="none"/>
  </g>
</svg>
