<?xml version="1.0" encoding="UTF-8" standalone="no"?>
<svg xmlns:xlink="http://www.w3.org/1999/xlink" height="20.35px" width="26.25px" xmlns="http://www.w3.org/2000/svg">
  <g transform="matrix(1.0, 0.0, 0.0, 1.0, -156.5, -348.5)">
    <path d="M179.95 360.55 L181.75 353.4 M178.1 367.85 L179.95 360.55 M157.5 363.95 L157.85 356.4 158.15 349.5" fill="none" stroke="#000000" stroke-linecap="round" stroke-linejoin="round" stroke-width="2.0"/>
    <path d="M181.75 353.4 L162.75 350.25 Q158.85 353.15 161.8 357.15 L179.95 360.55 M161.8 357.15 Q158.2 360.3 160.9 364.6 L178.1 367.85 M157.85 356.4 L161.8 357.15 M160.9 364.6 L157.5 363.95 M158.15 349.5 L162.75 350.25 M166.2 355.65 Q165.6 356.3 164.75 356.3 163.9 356.3 163.25 355.65 162.65 355.05 162.65 354.2 162.65 353.35 163.25 352.7 163.9 352.1 164.75 352.1 165.6 352.1 166.2 352.7 166.85 353.35 166.85 354.2 166.85 355.05 166.2 355.65 M162.15 362.75 Q161.55 362.15 161.55 361.3 161.55 360.45 162.15 359.8 162.8 359.2 163.65 359.2 164.5 359.2 165.1 359.8 165.75 360.45 165.75 361.3 165.75 362.15 165.1 362.75 164.5 363.4 163.65 363.4 162.8 363.4 162.15 362.75 Z" fill="none" stroke="#000000" stroke-linecap="round" stroke-linejoin="round" stroke-width="1.0"/>
  </g>
</svg>
