<?xml version="1.0" encoding="UTF-8" standalone="no"?>
<svg xmlns:xlink="http://www.w3.org/1999/xlink" height="117.2px" width="102.4px" xmlns="http://www.w3.org/2000/svg">
  <g transform="matrix(1.0, 0.0, 0.0, 1.0, -145.45, -347.9)">
    <path d="M194.7 355.8 L198.85 352.5 222.65 347.9 221.85 356.85 Q220.15 368.45 219.5 383.55 218.85 398.05 219.1 415.75 L232.05 430.8 247.85 445.55 Q233.45 449.05 216.2 439.0 L205.85 439.0 205.85 435.2 206.1 430.8 Q206.6 425.05 208.05 419.3 L204.55 416.8 Q204.8 404.15 201.85 391.45 198.5 380.0 196.4 367.5 195.4 361.75 194.7 355.8 M153.6 354.1 L158.15 349.5 181.75 353.4 164.25 423.15 Q163.95 426.9 163.8 430.8 163.55 437.45 163.75 444.5 L164.25 453.95 Q160.45 460.05 153.7 465.1 148.7 460.25 146.3 455.3 145.4 452.2 145.45 448.6 145.5 445.9 146.05 442.9 147.1 437.35 149.95 430.8 151.95 426.2 154.85 421.15 L151.35 417.45 Q154.65 390.45 154.05 364.85 L153.6 354.1" fill="#000000" fill-rule="evenodd" stroke="none"/>
  </g>
</svg>
