<?xml version="1.0" encoding="UTF-8" standalone="no"?>
<svg xmlns:xlink="http://www.w3.org/1999/xlink" height="165.35px" width="102.4px" xmlns="http://www.w3.org/2000/svg">
  <g transform="matrix(1.0, 0.0, 0.0, 1.0, -145.45, -299.75)">
    <path d="M156.75 341.7 L155.5 340.45 Q158.4 330.85 164.25 324.55 L162.6 323.45 170.2 309.4 173.0 308.4 175.6 307.25 176.15 307.0 176.85 306.6 177.25 306.75 177.4 306.3 178.1 305.9 178.95 305.45 179.15 305.3 179.75 304.9 179.95 304.8 180.45 304.5 181.05 304.15 181.5 303.8 181.8 303.6 182.35 303.25 183.15 302.65 184.1 301.95 184.3 301.8 184.95 301.3 185.2 301.1 186.4 300.15 186.8 299.75 194.05 315.2 190.5 330.85 186.6 333.25 Q188.1 341.5 187.3 348.95 L184.45 350.85 Q183.75 361.5 181.45 370.7 L178.2 372.8 173.85 396.45 171.5 397.35 Q167.6 410.0 167.15 421.0 L164.25 423.15 Q163.95 426.9 163.8 430.8 L163.7 436.5 Q163.6 444.95 164.25 453.95 160.45 460.05 153.7 465.1 151.25 462.7 149.45 460.35 147.5 457.8 146.3 455.3 145.4 452.2 145.45 448.6 145.5 443.15 147.75 436.5 L149.95 430.8 Q151.95 426.2 154.85 421.15 L152.45 417.9 152.5 417.85 152.65 417.25 Q153.9 412.85 154.25 407.3 L155.2 397.25 155.25 394.0 153.7 392.9 155.35 367.55 153.75 365.65 Q153.35 352.95 156.75 341.7 M216.2 304.8 L221.05 300.45 228.9 313.5 Q228.85 323.55 225.8 333.6 L224.45 335.05 Q226.65 343.05 225.6 350.75 L224.6 351.7 Q226.0 361.8 225.1 372.75 L222.6 374.45 222.1 392.65 220.55 394.35 Q220.15 404.0 221.35 413.25 L219.1 415.75 232.05 430.8 247.85 445.55 Q233.45 449.05 216.2 439.0 L205.85 439.0 205.85 436.5 205.85 435.55 205.85 435.2 206.05 431.45 206.1 430.8 Q206.6 425.05 208.05 419.3 L205.25 416.75 Q205.75 413.0 205.6 408.15 205.4 401.25 203.9 392.1 L202.05 391.3 198.6 370.1 197.2 369.5 Q194.2 356.75 197.2 345.35 L195.75 344.55 Q196.3 333.65 201.8 326.7 L200.4 324.55 202.75 314.05 204.55 312.05 208.95 311.15 216.1 304.9 216.2 305.0 216.1 304.85 216.2 304.8 M221.3 437.75 L224.65 439.3 Q221.4 437.6 218.75 435.55 L217.45 435.55 219.05 436.5 220.2 437.15 221.3 437.75 M151.55 458.2 L151.35 457.9 151.2 458.05 151.4 458.3 152.45 459.45 151.55 458.2 M159.7 422.6 L159.8 422.25 159.95 422.25 159.75 422.2 159.75 422.25 159.7 422.6" fill="#000000" fill-rule="evenodd" stroke="none"/>
  </g>
</svg>
