<?xml version="1.0" encoding="UTF-8" standalone="no"?>
<svg xmlns:xlink="http://www.w3.org/1999/xlink" height="164.1px" width="107.65px" xmlns="http://www.w3.org/2000/svg">
  <g transform="matrix(1.0, 0.0, 0.0, 1.0, -142.95, -304.15)">
    <path d="M153.65 351.45 Q152.85 337.9 159.6 330.1 L171.45 320.55 171.6 320.4 183.4 304.3 184.3 304.15 184.5 304.15 Q185.7 304.1 186.85 304.7 L187.95 305.5 188.5 323.7 Q187.65 327.1 186.05 330.0 187.5 341.85 184.95 355.15 L184.8 355.45 184.9 355.5 169.15 411.65 Q167.55 419.05 168.1 426.35 L164.05 430.55 163.8 430.3 163.8 430.75 Q163.4 440.3 164.05 450.6 L166.15 448.45 166.85 454.55 Q162.8 464.25 153.65 468.25 145.5 462.95 142.95 452.95 L142.95 447.75 145.5 450.3 Q145.05 441.6 150.5 429.6 L151.35 427.75 150.1 429.1 148.9 424.5 Q152.4 417.35 152.55 411.35 155.35 379.3 153.65 351.45 M208.05 331.8 L210.8 332.3 213.15 332.55 216.25 332.75 211.5 322.75 222.15 306.2 225.0 306.2 226.2 322.65 223.05 331.0 Q225.95 341.95 225.45 352.9 L219.1 415.75 232.1 430.85 235.3 433.85 237.55 431.25 Q242.95 437.55 250.5 443.05 L250.35 443.2 250.6 447.15 Q238.65 451.3 224.4 445.3 L225.1 443.35 Q220.9 441.7 216.5 439.2 L216.5 441.35 202.35 441.35 202.35 435.45 203.8 435.45 Q203.45 425.25 206.35 417.5 205.35 397.3 198.25 363.6 L198.15 363.05 196.75 356.6 Q193.2 339.85 200.8 329.5 L202.3 330.15 Q203.9 330.8 205.85 331.3 L208.05 331.8 M149.0 452.9 L148.95 452.6 148.8 452.75 149.0 452.9 M151.7 448.8 L151.6 448.8 151.6 448.95 151.7 448.8 M157.65 421.2 L157.5 421.2 157.65 421.25 157.65 421.2 M172.6 329.2 L172.85 329.35 172.75 329.0 172.6 329.2 M176.9 326.6 L176.95 326.6 176.95 326.5 176.9 326.6" fill="#000000" fill-rule="evenodd" stroke="none"/>
  </g>
</svg>
