<?xml version="1.0" encoding="UTF-8" standalone="no"?>
<svg xmlns:xlink="http://www.w3.org/1999/xlink" height="183.65px" width="55.05px" xmlns="http://www.w3.org/2000/svg">
  <g transform="matrix(1.0, 0.0, 0.0, 1.0, -195.6, -265.2)">
    <path d="M233.85 267.05 L239.45 265.2 Q238.7 271.1 237.45 276.9 233.65 294.6 225.4 311.65 L226.2 322.65 223.05 331.0 Q225.95 341.95 225.45 352.9 L219.1 415.75 232.1 430.85 235.3 433.85 237.55 431.25 Q243.0 437.65 250.65 443.15 L250.35 443.2 250.6 447.15 Q238.65 451.3 224.4 445.3 L225.1 443.35 Q220.9 441.7 216.5 439.2 L216.5 441.35 202.35 441.35 202.35 435.45 203.8 435.45 Q203.45 425.25 206.35 417.5 205.35 397.3 198.25 363.6 L198.15 363.05 196.75 356.6 Q193.2 339.85 200.8 329.5 L202.3 330.15 Q203.9 330.8 205.85 331.3 L208.05 331.8 210.8 332.3 213.15 332.55 216.25 332.75 211.5 322.75 216.25 315.35 215.1 315.0 212.7 314.5 207.85 314.35 206.8 304.1 208.6 298.1 212.25 296.0 214.6 294.5 217.1 292.7 219.55 290.7 Q231.2 280.75 233.85 267.05" fill="#000000" fill-rule="evenodd" stroke="none"/>
  </g>
</svg>
