<?xml version="1.0" encoding="UTF-8" standalone="no"?>
<svg xmlns:xlink="http://www.w3.org/1999/xlink" height="100.55px" width="55.5px" xmlns="http://www.w3.org/2000/svg">
  <g transform="matrix(1.0, 0.0, 0.0, 1.0, -193.35, -346.9)">
    <path d="M222.65 347.9 Q225.5 349.0 225.75 352.0 L225.75 375.35 219.85 376.9 Q218.75 393.85 219.1 415.75 L232.1 430.85 247.85 445.55 242.95 446.35 Q230.55 447.35 216.2 439.0 L205.85 439.0 Q205.55 429.15 208.05 419.3 207.15 401.75 203.6 384.15 L202.7 379.8 197.3 380.25 194.35 358.05 Q195.0 354.25 198.85 352.5" fill="none" stroke="#000000" stroke-linecap="round" stroke-linejoin="round" stroke-width="2.0"/>
    <path d="M198.85 352.5 L222.65 347.9 M202.7 379.8 L208.9 379.0 213.6 378.2 219.85 376.9 M213.6 378.2 L216.05 417.85 Q224.25 431.65 239.6 443.8 L242.95 446.35" fill="none" stroke="#000000" stroke-linecap="round" stroke-linejoin="round" stroke-width="1.0"/>
  </g>
</svg>
