<?xml version="1.0" encoding="UTF-8" standalone="no"?>
<svg xmlns:xlink="http://www.w3.org/1999/xlink" height="59.0px" width="121.95px" xmlns="http://www.w3.org/2000/svg">
  <g transform="matrix(1.0, 0.0, 0.0, 1.0, -139.3, -232.8)">
    <path d="M161.15 265.25 L174.45 272.0 173.0 278.65 175.55 282.35 174.95 283.05 Q174.05 283.85 172.85 283.75 171.55 283.65 170.05 282.8 L170.0 282.8 Q169.85 286.85 170.0 290.85 L165.65 291.8 165.1 290.2 Q161.95 291.5 160.05 288.85 L150.2 282.35 Q151.05 275.0 152.65 266.35 L152.05 265.35 148.4 259.15 Q141.85 247.35 139.3 235.55 149.65 238.65 162.45 236.25 161.0 245.15 160.95 255.4 160.9 260.15 161.15 265.25 M261.25 271.05 Q258.4 274.7 257.5 280.45 L255.55 280.45 255.65 283.25 Q255.1 286.05 252.25 285.8 250.6 285.5 250.05 284.45 247.6 285.5 246.2 284.75 245.15 284.05 244.65 282.4 242.9 283.0 241.9 282.4 240.95 281.85 240.45 280.45 239.05 280.25 238.35 279.65 237.25 278.6 237.55 276.75 237.75 273.8 238.55 270.95 L239.45 267.8 Q240.45 264.8 241.95 261.85 L237.45 242.3 237.95 235.15 Q245.5 234.7 252.35 232.8 251.05 245.8 251.6 258.8 L251.65 259.95 251.65 260.25 251.75 261.65 261.25 271.05 M245.9 274.65 L245.9 274.45 245.85 274.6 245.9 274.65" fill="#000000" fill-rule="evenodd" stroke="none"/>
  </g>
</svg>
