<?xml version="1.0" encoding="UTF-8" standalone="no"?>
<svg xmlns:xlink="http://www.w3.org/1999/xlink" height="21.45px" width="25.75px" xmlns="http://www.w3.org/2000/svg">
  <g transform="matrix(1.0, 0.0, 0.0, 1.0, -236.5, -265.35)">
    <path d="M237.55 276.75 L240.8 272.3 Q241.65 272.05 242.55 272.95 L243.4 274.05 245.05 274.15 245.9 274.65 245.9 274.45 Q246.2 270.45 249.2 269.55 L252.85 269.35 M239.6 267.4 Q248.25 269.15 256.5 266.35 M254.2 272.65 L253.75 276.4 Q251.45 276.15 250.1 276.75 248.55 277.4 248.45 279.2 L248.5 280.45 250.25 280.45 255.55 280.45 M244.65 282.4 L246.65 275.5 245.9 274.65 M250.05 284.45 Q249.35 283.05 250.25 280.45 M250.1 276.75 Q248.85 274.6 246.65 275.5 M240.45 280.45 L243.4 274.05" fill="none" stroke="#000000" stroke-linecap="round" stroke-linejoin="round" stroke-width="1.0"/>
    <path d="M256.5 266.35 L261.25 271.05 Q258.4 274.7 257.5 280.45 L255.55 280.45 255.65 283.25 Q255.1 286.05 252.25 285.8 250.6 285.5 250.05 284.45 247.6 285.5 246.2 284.75 245.15 284.05 244.65 282.4 242.9 283.0 241.9 282.4 240.95 281.85 240.45 280.45 239.05 280.25 238.35 279.65 237.25 278.6 237.55 276.75 237.75 273.8 238.55 270.95 L239.45 267.8 239.6 267.4" fill="none" stroke="#000000" stroke-linecap="round" stroke-linejoin="round" stroke-width="2.0"/>
  </g>
</svg>
