<?xml version="1.0" encoding="UTF-8" standalone="no"?>
<svg xmlns:xlink="http://www.w3.org/1999/xlink" height="78.95px" width="130.05px" xmlns="http://www.w3.org/2000/svg">
  <g transform="matrix(1.0, 0.0, 0.0, 1.0, -133.3, -190.55)">
    <path d="M141.4 212.55 L139.15 207.95 Q140.55 198.8 139.3 191.55 L141.05 192.45 153.15 198.1 Q152.85 207.75 163.3 215.9 L160.9 220.65 Q155.4 216.2 151.75 208.65 L141.4 212.55" fill="url(#gradient0)" fill-rule="evenodd" stroke="none"/>
    <path d="M141.4 212.55 L151.75 208.65 Q155.4 216.2 160.9 220.65 L163.3 215.9 166.8 228.3 Q161.45 225.15 156.1 225.05 L150.7 215.6 138.35 219.25 135.55 227.65 Q135.15 224.45 135.2 221.2 L141.4 212.55" fill="url(#gradient1)" fill-rule="evenodd" stroke="none"/>
    <path d="M135.55 227.65 L138.35 219.25 150.7 215.6 156.1 225.05 Q151.45 230.2 149.15 240.45 145.9 243.5 140.9 243.2 138.7 240.3 137.1 237.3 135.45 234.25 134.3 231.05 L135.55 227.65 M139.3 224.3 Q138.7 226.0 139.05 228.3 139.4 230.65 140.45 232.05 141.55 233.6 142.8 233.45 144.0 233.25 144.55 231.55 145.2 229.8 144.9 227.5 144.6 225.15 143.45 223.65 142.4 222.15 141.2 222.3 139.95 222.5 139.3 224.3" fill="url(#gradient2)" fill-rule="evenodd" stroke="none"/>
    <path d="M139.3 224.3 Q139.95 222.5 141.2 222.3 142.4 222.15 143.45 223.65 144.6 225.15 144.9 227.5 145.2 229.8 144.55 231.55 144.0 233.25 142.8 233.45 141.55 233.6 140.45 232.05 139.4 230.65 139.05 228.3 138.7 226.0 139.3 224.3" fill="url(#gradient3)" fill-rule="evenodd" stroke="none"/>
    <path d="M156.1 225.05 Q161.45 225.15 166.8 228.3 L167.8 229.0 165.85 238.2 164.2 239.85 161.55 242.5 160.1 254.85 163.15 259.1 160.1 254.85 161.55 242.5 164.2 239.85 Q162.55 249.55 163.2 259.05 L163.15 259.1 163.2 259.1 164.15 260.45 164.85 265.35 Q158.0 270.35 150.65 268.4 L147.35 263.35 146.05 259.45 144.6 256.85 Q139.45 247.15 137.1 237.3 138.7 240.3 140.9 243.2 145.9 243.5 149.15 240.45 151.45 230.2 156.1 225.05" fill="url(#gradient4)" fill-rule="evenodd" stroke="none"/>
    <path d="M241.0 212.25 L243.9 214.2 243.9 214.15 244.7 214.7 247.95 216.9 254.8 211.65 Q253.0 215.65 247.65 220.0 L243.35 216.35 243.4 216.2 240.65 213.75 241.0 212.25 M247.65 220.0 L243.4 216.2 247.65 220.0 M243.9 214.2 L244.7 214.7 243.9 214.2" fill="url(#gradient5)" fill-rule="evenodd" stroke="none"/>
    <path d="M254.8 211.65 L247.95 216.9 244.7 214.7 243.9 214.15 243.9 214.2 241.0 212.25 Q241.8 209.05 242.75 205.95 L245.9 208.0 Q251.55 210.3 259.5 192.75 258.5 201.95 254.8 211.65" fill="url(#gradient6)" fill-rule="evenodd" stroke="none"/>
    <path d="M240.65 213.75 L243.4 216.2 243.35 216.35 247.65 220.0 Q253.0 215.65 254.8 211.65 L257.45 216.15 Q248.85 227.45 241.95 222.95 L241.95 222.9 239.25 221.3 239.6 218.5 240.65 213.75" fill="url(#gradient7)" fill-rule="evenodd" stroke="none"/>
    <path d="M257.45 216.15 L259.95 216.65 Q261.6 219.1 262.35 225.45 L260.15 227.65 Q255.8 239.9 253.75 247.5 L254.35 252.45 252.95 260.15 251.05 261.7 Q245.65 263.85 241.3 262.95 L240.4 261.3 237.45 242.3 Q238.25 229.5 239.25 221.3 L241.95 222.9 241.95 222.95 Q248.85 227.45 257.45 216.15 M253.75 247.5 L248.95 245.75 250.45 232.45 Q256.1 229.5 260.9 225.45 L260.15 227.65 260.9 225.45 Q256.1 229.5 250.45 232.45 L248.95 245.75 253.75 247.5" fill="url(#gradient8)" fill-rule="evenodd" stroke="none"/>
    <path d="M141.05 192.45 L139.3 191.55 Q140.55 198.8 139.15 207.95 L141.4 212.55 135.2 221.2 Q135.15 224.45 135.55 227.65 L134.3 231.05 Q135.45 234.25 137.1 237.3 139.45 247.15 144.6 256.85 L146.05 259.45 147.35 263.35 150.65 268.4 M166.8 228.3 L163.3 215.9 M164.85 265.35 L164.15 260.45 163.2 259.1 163.2 259.05 Q162.55 249.55 164.2 239.85 L165.85 238.2 167.8 229.0 166.8 228.3 M254.8 211.65 Q258.5 201.95 259.5 192.75 M254.8 211.65 L257.45 216.15 259.95 216.65 Q261.6 219.1 262.35 225.45 L260.15 227.65 Q255.8 239.9 253.75 247.5 L254.35 252.45 252.95 260.15 251.05 261.7 M240.4 261.3 L237.45 242.3" fill="none" stroke="#000000" stroke-linecap="round" stroke-linejoin="round" stroke-width="2.0"/>
    <path d="M141.4 212.55 L151.75 208.65 Q155.4 216.2 160.9 220.65 L163.3 215.9 Q152.85 207.75 153.15 198.1 L141.05 192.45 M135.55 227.65 L138.35 219.25 150.7 215.6 156.1 225.05 Q161.45 225.15 166.8 228.3 M137.1 237.3 Q138.7 240.3 140.9 243.2 145.9 243.5 149.15 240.45 151.45 230.2 156.1 225.05 M150.65 268.4 Q158.0 270.35 164.85 265.35 M163.2 259.1 L163.15 259.1 160.1 254.85 161.55 242.5 164.2 239.85 M139.3 224.3 Q139.95 222.5 141.2 222.3 142.4 222.15 143.45 223.65 144.6 225.15 144.9 227.5 145.2 229.8 144.55 231.55 144.0 233.25 142.8 233.45 141.55 233.6 140.45 232.05 139.4 230.65 139.05 228.3 138.7 226.0 139.3 224.3 M241.0 212.25 L243.9 214.2 243.9 214.15 244.7 214.7 247.95 216.9 254.8 211.65 Q253.0 215.65 247.65 220.0 L243.35 216.35 243.4 216.2 247.65 220.0 M259.5 192.75 Q251.55 210.3 245.9 208.0 L242.75 205.95 Q241.8 209.05 241.0 212.25 L240.65 213.75 243.4 216.2 M251.05 261.7 Q245.65 263.85 241.3 262.95 L240.4 261.3 M237.45 242.3 Q238.25 229.5 239.25 221.3 L239.6 218.5 240.65 213.75 M244.7 214.7 L243.9 214.2 M260.15 227.65 L260.9 225.45 Q256.1 229.5 250.45 232.45 L248.95 245.75 253.75 247.5 M239.25 221.3 L241.95 222.9 241.95 222.95 Q248.85 227.45 257.45 216.15" fill="none" stroke="#000000" stroke-linecap="round" stroke-linejoin="round" stroke-width="1.0"/>
    <path d="M142.4 193.1 L145.3 194.4 146.85 207.2 145.95 210.9 144.5 211.4 145.95 210.9 145.0 217.3 142.2 218.15 142.9 212.0 144.5 211.4 142.4 193.1 M156.2 268.9 L153.25 268.95 Q145.25 253.35 143.65 243.1 145.25 242.9 146.65 242.25 148.65 252.45 156.2 268.9 M139.35 218.9 L139.5 223.7 139.3 224.3 Q138.7 226.0 139.05 228.3 139.4 230.6 140.45 232.0 L140.45 232.05 140.5 232.15 Q141.3 237.65 142.85 243.15 L140.9 243.2 140.25 242.3 Q137.35 232.85 136.8 223.8 L138.35 219.25 139.35 218.9 M251.1 206.35 Q252.75 204.85 254.5 202.2 L252.55 213.0 252.55 213.35 250.3 215.05 252.55 213.35 252.75 215.0 253.35 220.75 251.2 222.45 250.6 217.35 250.3 215.05 250.05 212.7 251.1 206.35 M257.45 216.15 L258.2 216.35 255.75 229.35 252.9 231.05 255.25 218.85 257.45 216.15 M249.5 262.3 L246.8 263.0 250.0 246.15 252.4 246.95 249.5 262.3 M252.75 215.0 L250.6 217.35 252.75 215.0" fill="#ffffff" fill-opacity="0.2509804" fill-rule="evenodd" stroke="none"/>
    <path d="M141.05 192.45 L142.4 193.1 145.3 194.4 153.15 198.1 Q152.85 207.75 163.3 215.9 L160.9 220.65 Q155.4 216.2 151.75 208.65 L145.95 210.9 144.5 211.4 142.9 212.0 141.4 212.55 M164.85 265.35 Q160.55 268.5 156.2 268.9 L153.25 268.95 150.65 268.4 M145.0 217.3 L142.2 218.15 139.35 218.9 138.35 219.25 136.8 223.8 135.55 227.65 M139.5 223.7 Q140.15 222.45 141.2 222.3 142.4 222.15 143.45 223.65 144.6 225.15 144.9 227.5 145.2 229.8 144.55 231.55 144.0 233.25 142.8 233.45 141.55 233.6 140.5 232.15 L140.45 232.05 140.45 232.0 Q139.4 230.6 139.05 228.3 138.7 226.0 139.3 224.3 L139.5 223.7 M142.85 243.15 L143.65 243.1 Q145.25 242.9 146.65 242.25 148.0 241.6 149.15 240.45 151.45 230.2 156.1 225.05 L150.7 215.6 145.0 217.3 M140.25 242.3 L140.9 243.2 142.85 243.15 M137.1 237.3 Q138.45 239.85 140.25 242.3 M163.2 259.1 L160.1 254.85 161.55 242.5 164.2 239.85 M237.45 242.3 Q238.4 227.25 239.6 218.5 L240.65 213.75 241.0 212.25 Q241.8 209.05 242.75 205.95 L245.9 208.0 Q248.3 208.95 251.1 206.35 252.75 204.85 254.5 202.2 256.8 198.55 259.5 192.75 M257.45 216.15 L258.2 216.35 259.95 216.65 Q261.6 219.1 262.35 225.45 L260.15 227.65 260.9 225.45 255.75 229.35 252.9 231.05 250.45 232.45 248.95 245.75 250.0 246.15 252.4 246.95 253.75 247.5 M251.05 261.7 L249.5 262.3 246.8 263.0 Q243.9 263.45 241.3 262.95 L240.4 261.3 M250.3 215.05 L252.55 213.35 254.8 211.65 252.75 215.0 250.6 217.35 247.65 220.0 240.65 213.75 M253.35 220.75 L255.25 218.85 257.45 216.15 M251.2 222.45 L253.35 220.75 M250.3 215.05 L247.95 216.9 241.0 212.25 M251.2 222.45 Q246.25 225.7 241.95 222.95 L239.55 221.3 M166.8 228.3 Q161.45 225.15 156.1 225.05" fill="none" stroke="#000000" stroke-linecap="round" stroke-linejoin="round" stroke-width="1.0"/>
    <path d="M150.65 268.4 L147.35 263.35 146.05 259.45 144.6 256.85 Q139.45 247.15 137.1 237.3 135.45 234.25 134.3 231.05 L135.55 227.65 Q135.15 224.45 135.2 221.2 L141.4 212.55 139.15 207.95 Q140.55 198.8 139.3 191.55 L141.05 192.45 M163.3 215.9 L166.8 228.3 167.8 229.0 165.85 238.2 164.2 239.85 Q162.55 249.55 163.2 259.05 L163.2 259.1 164.15 260.45 164.85 265.35 M259.5 192.75 Q258.5 201.95 254.8 211.65 L257.45 216.15 M260.15 227.65 Q255.8 239.9 253.75 247.5 L254.35 252.45 252.95 260.15 251.05 261.7 M240.4 261.3 L237.45 242.3" fill="none" stroke="#000000" stroke-linecap="round" stroke-linejoin="round" stroke-width="2.0"/>
  </g>
  <defs>
    <linearGradient gradientTransform="matrix(-0.0089, 0.0013, -0.0028, -0.0193, 148.75, 206.35)" gradientUnits="userSpaceOnUse" id="gradient0" spreadMethod="pad" x1="-819.2" x2="819.2">
      <stop offset="0.0" stop-color="#000000" stop-opacity="0.0"/>
      <stop offset="1.0" stop-color="#000000" stop-opacity="0.2509804"/>
    </linearGradient>
    <linearGradient gradientTransform="matrix(-0.0186, 0.0027, -0.0019, -0.013, 150.0, 219.85)" gradientUnits="userSpaceOnUse" id="gradient1" spreadMethod="pad" x1="-819.2" x2="819.2">
      <stop offset="0.0" stop-color="#000000" stop-opacity="0.0"/>
      <stop offset="1.0" stop-color="#000000" stop-opacity="0.2509804"/>
    </linearGradient>
    <linearGradient gradientTransform="matrix(-0.0135, 0.0019, -0.0022, -0.0159, 145.4, 229.55)" gradientUnits="userSpaceOnUse" id="gradient2" spreadMethod="pad" x1="-819.2" x2="819.2">
      <stop offset="0.0" stop-color="#000000" stop-opacity="0.0"/>
      <stop offset="1.0" stop-color="#000000" stop-opacity="0.2509804"/>
    </linearGradient>
    <linearGradient gradientTransform="matrix(-0.0036, 5.0E-4, -0.001, -0.0068, 142.0, 227.9)" gradientUnits="userSpaceOnUse" id="gradient3" spreadMethod="pad" x1="-819.2" x2="819.2">
      <stop offset="0.0" stop-color="#000000" stop-opacity="0.0"/>
      <stop offset="1.0" stop-color="#000000" stop-opacity="0.2509804"/>
    </linearGradient>
    <linearGradient gradientTransform="matrix(-0.0191, 0.0027, -0.0037, -0.0262, 154.5, 247.25)" gradientUnits="userSpaceOnUse" id="gradient4" spreadMethod="pad" x1="-819.2" x2="819.2">
      <stop offset="0.0" stop-color="#000000" stop-opacity="0.0"/>
      <stop offset="1.0" stop-color="#000000" stop-opacity="0.2509804"/>
    </linearGradient>
    <linearGradient gradientTransform="matrix(0.0022, -2.0E-4, 5.0E-4, 0.0046, 247.95, 216.1)" gradientUnits="userSpaceOnUse" id="gradient5" spreadMethod="pad" x1="-819.2" x2="819.2">
      <stop offset="0.0" stop-color="#000000" stop-opacity="0.0"/>
      <stop offset="1.0" stop-color="#000000" stop-opacity="0.2509804"/>
    </linearGradient>
    <linearGradient gradientTransform="matrix(0.002, -2.0E-4, 0.0015, 0.0138, 248.1, 205.45)" gradientUnits="userSpaceOnUse" id="gradient6" spreadMethod="pad" x1="-819.2" x2="819.2">
      <stop offset="0.0" stop-color="#000000" stop-opacity="0.0"/>
      <stop offset="1.0" stop-color="#000000" stop-opacity="0.2509804"/>
    </linearGradient>
    <linearGradient gradientTransform="matrix(0.0047, -5.0E-4, 7.0E-4, 0.0071, 248.55, 218.1)" gradientUnits="userSpaceOnUse" id="gradient7" spreadMethod="pad" x1="-819.2" x2="819.2">
      <stop offset="0.0" stop-color="#000000" stop-opacity="0.0"/>
      <stop offset="1.0" stop-color="#000000" stop-opacity="0.2509804"/>
    </linearGradient>
    <linearGradient gradientTransform="matrix(0.0155, -0.0016, 0.0029, 0.0276, 251.0, 239.65)" gradientUnits="userSpaceOnUse" id="gradient8" spreadMethod="pad" x1="-819.2" x2="819.2">
      <stop offset="0.0" stop-color="#000000" stop-opacity="0.0"/>
      <stop offset="1.0" stop-color="#000000" stop-opacity="0.2509804"/>
    </linearGradient>
  </defs>
</svg>
