<?xml version="1.0" encoding="UTF-8" standalone="no"?>
<svg xmlns:xlink="http://www.w3.org/1999/xlink" height="26.75px" width="26.25px" xmlns="http://www.w3.org/2000/svg">
  <g transform="matrix(1.0, 0.0, 0.0, 1.0, -138.55, -243.95)">
    <path d="M139.7 253.75 Q140.3 250.2 141.5 248.05 143.15 244.95 145.85 244.55 149.2 243.95 154.15 247.35 157.45 248.95 160.8 249.25 162.2 250.55 161.0 251.85 L161.25 254.5 162.0 259.3 162.65 262.75 162.75 263.05 Q164.4 263.9 163.4 265.85 160.55 268.45 157.25 269.35 L156.4 269.55 154.4 269.8 151.65 269.7 Q149.15 269.55 149.6 267.35 L145.8 262.75 143.25 259.3 143.2 259.2 140.95 255.75 Q139.1 255.95 139.7 253.75 M161.0 251.85 Q156.3 251.7 152.45 249.25 149.35 247.25 146.8 247.15 L145.65 247.2 Q143.85 247.45 142.55 250.45 141.6 252.45 140.95 255.75 141.6 252.45 142.55 250.45 143.85 247.45 145.65 247.2 L146.8 247.15 Q149.35 247.25 152.45 249.25 156.3 251.7 161.0 251.85 M157.2 266.75 L157.15 266.7 157.15 266.75 157.2 266.75 Q160.8 265.65 162.75 263.05 160.8 265.65 157.2 266.75 M149.6 267.35 L153.45 267.35 157.15 266.75 153.45 267.35 149.6 267.35" fill="url(#gradient0)" fill-rule="evenodd" stroke="none"/>
    <path d="M139.7 253.75 Q139.1 255.95 140.95 255.75 L143.2 259.2 143.25 259.3 145.8 262.75 149.6 267.35 Q149.15 269.55 151.65 269.7 M161.0 251.85 Q162.2 250.55 160.8 249.25 M161.0 251.85 L161.25 254.5 162.0 259.3 162.65 262.75 162.75 263.05 Q164.4 263.9 163.4 265.85" fill="none" stroke="#000000" stroke-linecap="round" stroke-linejoin="round" stroke-width="2.0"/>
    <path d="M160.8 249.25 Q157.45 248.95 154.15 247.35 149.2 243.95 145.85 244.55 143.15 244.95 141.5 248.05 140.3 250.2 139.7 253.75 M140.95 255.75 Q141.6 252.45 142.55 250.45 143.85 247.45 145.65 247.2 L146.8 247.15 Q149.35 247.25 152.45 249.25 156.3 251.7 161.0 251.85 M163.4 265.85 Q160.55 268.45 157.25 269.35 L156.4 269.55 154.4 269.8 151.65 269.7 M157.15 266.75 L157.2 266.75 Q160.8 265.65 162.75 263.05 M157.15 266.75 L153.45 267.35 149.6 267.35" fill="none" stroke="#000000" stroke-linecap="round" stroke-linejoin="round" stroke-width="1.0"/>
    <path d="M157.25 269.35 L156.4 269.55 154.4 269.8 154.45 268.45 153.45 267.35 157.15 266.75 153.45 267.35 149.2 261.95 Q145.35 256.5 142.55 250.45 L141.5 248.05 Q143.15 244.95 145.85 244.55 L146.8 247.15 145.65 247.2 Q143.85 247.45 142.55 250.45 143.85 247.45 145.65 247.2 L146.8 247.15 Q149.65 254.6 154.1 261.95 L157.15 266.7 157.15 266.75 157.25 269.35" fill="#ffffff" fill-opacity="0.2509804" fill-rule="evenodd" stroke="none"/>
    <path d="M160.8 249.25 Q162.2 250.55 161.0 251.85 L161.25 254.5 162.0 259.3 162.65 262.75 162.75 263.05 Q164.4 263.9 163.4 265.85 M151.65 269.7 Q149.15 269.55 149.6 267.35 L145.8 262.75 143.25 259.3 143.2 259.2 140.95 255.75 Q139.1 255.95 139.7 253.75" fill="none" stroke="#000000" stroke-linecap="round" stroke-linejoin="round" stroke-width="2.0"/>
    <path d="M145.85 244.55 Q149.2 243.95 154.15 247.35 157.45 248.95 160.8 249.25 M163.4 265.85 Q160.55 268.45 157.25 269.35 L156.4 269.55 154.4 269.8 151.65 269.7 M139.7 253.75 Q140.3 250.2 141.5 248.05 143.15 244.95 145.85 244.55 M146.8 247.15 Q149.35 247.25 152.45 249.25 156.3 251.7 161.0 251.85 M142.55 250.45 Q143.85 247.45 145.65 247.2 L146.8 247.15 M157.15 266.75 Q160.8 265.65 162.75 263.05 M157.15 266.75 L153.45 267.35 149.6 267.35 M142.55 250.45 Q141.6 252.45 140.95 255.75" fill="none" stroke="#000000" stroke-linecap="round" stroke-linejoin="round" stroke-width="1.0"/>
  </g>
  <defs>
    <linearGradient gradientTransform="matrix(-0.012, 0.0032, -0.0017, -0.0066, 149.75, 248.9)" gradientUnits="userSpaceOnUse" id="gradient0" spreadMethod="pad" x1="-819.2" x2="819.2">
      <stop offset="0.0" stop-color="#000000" stop-opacity="0.0"/>
      <stop offset="1.0" stop-color="#000000" stop-opacity="0.2509804"/>
    </linearGradient>
  </defs>
</svg>
