<?xml version="1.0" encoding="UTF-8" standalone="no"?>
<svg xmlns:xlink="http://www.w3.org/1999/xlink" height="94.25px" width="124.4px" xmlns="http://www.w3.org/2000/svg">
  <g transform="matrix(1.0, 0.0, 0.0, 1.0, -135.75, -137.7)">
    <path d="M236.0 147.3 L250.35 152.2 259.9 155.1 Q260.7 159.8 259.05 163.4 257.4 166.95 256.05 168.6 L253.65 171.9 253.55 172.0 253.5 172.15 248.25 179.7 247.8 180.95 Q239.7 205.75 235.95 231.05 L227.5 231.8 227.0 231.8 223.65 231.9 218.15 231.95 209.15 231.65 Q202.35 207.2 187.75 182.7 L186.45 180.05 185.95 179.1 185.8 178.85 Q182.7 173.2 178.85 168.35 176.2 164.85 172.95 161.95 L171.75 160.9 Q166.3 156.3 159.15 153.1 L157.25 152.25 155.45 151.5 150.85 149.9 Q148.45 151.15 146.3 152.5 145.65 157.2 145.25 162.05 L145.3 162.15 145.25 162.1 Q136.1 151.7 135.75 146.5 L171.75 140.75 175.4 139.85 181.0 137.7 Q205.05 158.1 214.75 179.9 226.3 203.85 223.65 231.9 232.65 205.6 236.85 179.85 238.4 150.75 224.65 143.85 L236.0 147.3" fill="#000000" fill-rule="evenodd" stroke="none"/>
  </g>
</svg>
