<?xml version="1.0" encoding="UTF-8" standalone="no"?>
<svg xmlns:xlink="http://www.w3.org/1999/xlink" height="92.85px" width="84.8px" xmlns="http://www.w3.org/2000/svg">
  <g transform="matrix(1.0, 0.0, 0.0, 1.0, -162.0, -138.65)">
    <path d="M227.3 142.65 L235.0 144.85 236.25 147.35 Q238.2 151.35 239.45 155.65 L245.4 160.7 246.8 167.5 243.2 172.2 243.15 172.2 243.2 172.2 Q243.75 175.5 243.6 184.7 L243.1 200.5 242.2 217.3 242.1 217.65 Q241.1 224.3 238.3 230.75 L234.0 231.35 232.7 231.5 232.65 231.45 Q234.8 221.25 234.85 216.9 L235.6 201.2 Q235.95 191.55 235.9 185.0 235.9 176.25 235.2 172.9 L229.35 167.9 227.8 161.05 212.85 156.75 190.25 150.55 170.35 145.35 164.1 143.75 164.0 143.75 162.0 144.55 162.3 143.25 Q167.7 140.55 173.9 138.65 L177.05 139.3 177.1 139.3 177.75 139.45 195.8 144.2 216.2 150.2 Q223.7 152.5 231.1 154.95 L227.45 146.95 226.05 144.25 Q227.15 144.55 227.25 142.65 L227.25 142.6 227.3 142.65 M236.3 172.2 L236.55 172.15 236.55 172.05 236.25 172.05 236.3 172.2" fill="#000000" fill-rule="evenodd" stroke="none"/>
  </g>
</svg>
