<?xml version="1.0" encoding="UTF-8" standalone="no"?>
<svg xmlns:xlink="http://www.w3.org/1999/xlink" height="29.9px" width="31.7px" xmlns="http://www.w3.org/2000/svg">
  <g transform="matrix(1.0, 0.0, 0.0, 1.0, -209.95, -160.1)">
    <path d="M226.85 160.1 L228.6 160.2 229.3 160.3 231.4 160.8 Q232.4 161.05 233.3 161.55 235.45 162.6 237.3 164.45 239.3 166.45 240.4 168.9 L241.05 170.7 Q241.6 172.65 241.65 174.85 L241.5 177.1 241.35 177.85 Q240.5 182.05 237.3 185.3 235.45 187.1 233.35 188.2 L233.3 188.15 233.3 188.2 233.05 188.35 Q231.3 189.15 229.3 189.45 L228.2 189.6 224.75 190.0 Q221.75 190.0 219.2 188.9 L218.6 188.65 Q216.25 187.6 214.3 185.65 211.1 182.45 210.25 178.25 L210.25 178.2 Q209.95 176.75 209.95 175.2 209.95 173.7 210.25 172.35 210.35 171.65 210.6 171.0 211.55 167.5 214.3 164.75 216.5 162.55 219.25 161.45 L219.9 161.8 220.0 161.7 Q221.6 160.85 223.35 160.45 L226.85 160.1 M228.1 167.45 Q225.05 167.45 222.9 169.65 220.7 171.85 220.7 174.85 220.7 177.9 222.9 180.1 225.05 182.25 228.1 182.25 L229.3 182.2 Q231.6 181.85 233.3 180.1 235.5 177.9 235.5 174.85 235.5 171.85 233.3 169.65 231.6 167.9 229.3 167.6 L228.1 167.45" fill="#000000" fill-rule="evenodd" stroke="none"/>
  </g>
</svg>
