<?xml version="1.0" encoding="UTF-8" standalone="no"?>
<svg xmlns:xlink="http://www.w3.org/1999/xlink" height="54.7px" width="65.5px" xmlns="http://www.w3.org/2000/svg">
  <g transform="matrix(1.0, 0.0, 0.0, 1.0, -176.5, -227.75)">
    <path d="M204.6 241.35 L203.6 244.5 203.6 244.6 203.65 244.7 201.2 252.0 200.6 253.7 200.5 253.7 200.45 253.75 199.2 256.95 199.2 257.05 199.25 257.15 Q196.7 263.4 194.05 268.2 L192.9 270.2 Q190.9 273.5 188.85 275.95 184.7 280.9 180.25 282.45 L179.2 279.2 179.1 278.75 177.9 273.85 Q176.85 268.65 176.6 263.0 176.25 254.9 177.45 245.9 178.35 238.9 180.25 231.35 L184.65 233.8 185.55 234.25 188.05 235.25 189.3 235.65 191.55 236.35 193.1 236.7 198.65 237.7 200.95 237.9 205.65 238.1 204.7 241.3 204.65 241.3 204.6 241.35 M204.85 241.5 Q213.75 246.5 221.5 250.05 228.15 248.05 232.3 245.3 L232.2 249.7 226.3 252.1 232.2 254.3 232.2 257.75 221.3 253.55 Q212.35 255.8 199.45 257.0 L200.7 253.85 200.7 253.75 Q209.6 252.85 216.4 251.35 209.95 248.25 203.85 244.65 L203.85 244.6 204.85 241.5 M238.3 230.75 L237.95 235.05 Q224.85 237.35 198.85 235.7 L191.5 235.15 189.5 235.0 189.85 233.9 190.2 230.75 190.5 227.75 198.85 228.25 Q223.2 229.4 238.55 227.95 L238.3 230.75 M232.4 245.1 L232.55 239.1 235.55 238.95 237.2 238.35 238.1 237.85 Q240.1 236.65 242.0 234.3 L241.0 248.55 Q240.2 256.95 239.0 264.3 237.55 272.7 235.55 279.75 L235.3 279.45 Q234.05 277.6 233.35 272.9 232.95 270.25 232.7 266.65 L232.3 257.95 232.4 257.9 232.45 257.8 232.45 254.3 232.4 254.2 232.3 254.2 232.3 251.25 232.3 249.8 232.4 249.75 232.45 249.65 232.55 245.2 232.5 245.15 232.4 245.1" fill="#000000" fill-rule="evenodd" stroke="none"/>
  </g>
</svg>
