<?xml version="1.0" encoding="UTF-8" standalone="no"?>
<svg xmlns:xlink="http://www.w3.org/1999/xlink" height="13.2px" width="14.25px" xmlns="http://www.w3.org/2000/svg">
  <g transform="matrix(1.0, 0.0, 0.0, 1.0, -217.25, -225.25)">
    <path d="M219.8 227.3 Q221.8 225.55 224.35 225.75 226.85 225.95 228.5 227.9 L228.8 228.3 228.9 228.4 229.0 228.6 Q229.9 229.95 230.0 231.55 231.0 232.0 231.0 232.45 230.95 232.95 229.85 233.2 229.5 234.85 228.25 236.1 L227.85 236.5 227.5 236.75 Q225.7 238.1 223.4 237.95 221.25 237.8 219.75 236.4 L219.55 236.2 219.25 235.85 219.05 235.65 Q217.95 234.25 217.8 232.55 L217.75 231.7 217.75 231.55 217.8 231.4 Q217.9 229.95 218.6 228.75 L219.35 227.75 219.8 227.3 M229.85 233.2 L229.7 233.25 227.4 233.35 225.2 232.95 224.6 234.75 Q224.1 235.75 223.45 235.75 222.8 235.65 222.5 234.55 222.1 233.45 222.2 231.95 222.3 230.4 222.85 229.4 L223.3 228.75 Q223.6 228.35 224.0 228.4 224.35 228.4 224.6 228.7 L225.0 229.55 225.3 231.15 227.55 231.05 229.7 231.45 230.0 231.55 M225.3 231.15 L225.05 231.2 Q224.0 231.45 223.95 231.95 223.9 232.4 224.9 232.85 L225.2 232.95" fill="none" stroke="#000000" stroke-linecap="round" stroke-linejoin="round" stroke-width="1.0"/>
  </g>
</svg>
