<?xml version="1.0" encoding="UTF-8" standalone="no"?>
<svg xmlns:xlink="http://www.w3.org/1999/xlink" height="341.0px" width="311.0px" xmlns="http://www.w3.org/2000/svg">
  <g transform="matrix(1.0, 0.0, 0.0, 1.0, 0.5, 0.5)">
    <path d="M155.0 9.8 Q155.1 5.8 157.95 2.95 159.45 1.45 161.3 0.7 162.9 0.05 164.8 0.0 L222.7 0.0 Q224.65 0.05 226.35 0.75 228.1 1.5 229.55 2.95 232.4 5.8 232.5 9.8 232.6 5.8 235.45 2.95 236.9 1.5 238.7 0.75 L238.8 0.7 Q240.4 0.05 242.3 0.0 L300.2 0.0 Q304.2 0.1 307.05 2.95 309.9 5.8 310.0 9.8 L310.0 30.0 232.5 30.0 155.0 30.0 155.0 9.8 M232.5 9.8 L232.5 30.0 232.5 9.8" fill="url(#gradient0)" fill-rule="evenodd" stroke="none"/>
    <path d="M0.0 30.0 L0.0 9.8 Q0.1 5.8 2.95 2.95 5.8 0.1 9.8 0.0 L67.7 0.0 Q69.65 0.05 71.35 0.75 73.1 1.5 74.55 2.95 77.4 5.8 77.5 9.8 L77.5 30.0 0.0 30.0" fill="url(#gradient1)" fill-rule="evenodd" stroke="none"/>
    <path d="M77.5 9.8 Q77.6 5.8 80.45 2.95 81.9 1.5 83.7 0.75 L83.8 0.7 Q85.4 0.05 87.3 0.0 L145.2 0.0 Q149.2 0.1 152.05 2.95 154.9 5.8 155.0 9.8 L155.0 30.0 77.5 30.0 77.5 9.8" fill="url(#gradient2)" fill-rule="evenodd" stroke="none"/>
    <path d="M310.0 30.0 L310.0 340.0 0.0 340.0 0.0 30.0 77.5 30.0 155.0 30.0 232.5 30.0 310.0 30.0" fill="#ffffff" fill-opacity="0.2509804" fill-rule="evenodd" stroke="none"/>
    <path d="M155.0 9.8 Q155.1 5.8 157.95 2.95 159.45 1.45 161.3 0.7 162.9 0.05 164.8 0.0 L222.7 0.0 Q224.65 0.05 226.35 0.75 228.1 1.5 229.55 2.95 232.4 5.8 232.5 9.8 232.6 5.8 235.45 2.95 236.9 1.5 238.7 0.75 L238.8 0.7 Q240.4 0.05 242.3 0.0 L300.2 0.0 Q304.2 0.1 307.05 2.95 309.9 5.8 310.0 9.8 L310.0 30.0 310.0 340.0 0.0 340.0 0.0 30.0 0.0 9.8 Q0.1 5.8 2.95 2.95 5.8 0.1 9.8 0.0 L67.7 0.0 Q69.65 0.05 71.35 0.75 73.1 1.5 74.55 2.95 77.4 5.8 77.5 9.8 77.6 5.8 80.45 2.95 81.9 1.5 83.7 0.75 L83.8 0.7 Q85.4 0.05 87.3 0.0 L145.2 0.0 Q149.2 0.1 152.05 2.95 154.9 5.8 155.0 9.8 L155.0 30.0 232.5 30.0 232.5 9.8 M310.0 30.0 L232.5 30.0 M77.5 9.8 L77.5 30.0 155.0 30.0 M77.5 30.0 L0.0 30.0" fill="none" stroke="#000000" stroke-linecap="round" stroke-linejoin="round" stroke-opacity="0.2509804" stroke-width="1.0"/>
  </g>
  <defs>
    <linearGradient gradientTransform="matrix(0.0, 0.0183, -0.0473, 0.0, 116.25, 15.0)" gradientUnits="userSpaceOnUse" id="gradient0" spreadMethod="pad" x1="-819.2" x2="819.2">
      <stop offset="0.0" stop-color="#6699cc"/>
      <stop offset="1.0" stop-color="#003366"/>
    </linearGradient>
    <linearGradient gradientTransform="matrix(0.0, 0.0183, -0.0473, 0.0, 38.75, 15.0)" gradientUnits="userSpaceOnUse" id="gradient1" spreadMethod="pad" x1="-819.2" x2="819.2">
      <stop offset="0.0" stop-color="#6699cc"/>
      <stop offset="1.0" stop-color="#003366"/>
    </linearGradient>
    <linearGradient gradientTransform="matrix(0.0, 0.0183, -0.0473, 0.0, 116.25, 15.0)" gradientUnits="userSpaceOnUse" id="gradient2" spreadMethod="pad" x1="-819.2" x2="819.2">
      <stop offset="0.0" stop-color="#99ccff"/>
      <stop offset="1.0" stop-color="#336699"/>
    </linearGradient>
  </defs>
</svg>
