<?xml version="1.0" encoding="UTF-8" standalone="no"?>
<svg xmlns:xlink="http://www.w3.org/1999/xlink" height="35.1px" width="54.0px" xmlns="http://www.w3.org/2000/svg">
  <g transform="matrix(1.0, 0.0, 0.0, 1.0, -210.1, -116.5)">
    <path d="M217.4 120.4 Q217.85 118.4 217.7 116.5 222.75 124.25 230.4 132.05 234.55 132.35 239.25 130.9 256.95 125.5 264.1 137.7 256.1 133.05 252.3 136.05 250.55 137.55 251.05 138.9 L251.1 139.1 Q252.4 142.55 252.15 145.3 251.9 148.2 250.0 150.3 L248.65 151.6 Q229.6 144.75 210.1 140.0 L210.1 137.45 211.35 137.45 212.95 133.8 213.1 133.4 213.15 133.35 Q215.75 126.95 217.35 120.55 L217.4 120.4" fill="#000000" fill-rule="evenodd" stroke="none"/>
  </g>
</svg>
