<?xml version="1.0" encoding="UTF-8" standalone="no"?>
<svg xmlns:xlink="http://www.w3.org/1999/xlink" height="27.1px" width="25.05px" xmlns="http://www.w3.org/2000/svg">
  <g transform="matrix(1.0, 0.0, 0.0, 1.0, -190.55, -109.75)">
    <path d="M204.6 122.6 L204.6 122.95 M213.65 122.45 L213.65 122.8 M209.2 122.9 L209.2 123.25 M211.25 123.25 L211.25 123.6 M206.95 122.8 L206.95 123.15 M214.85 123.95 L214.85 124.3 M214.75 126.25 L214.75 126.6 M208.15 129.55 L208.15 129.9 M202.75 124.1 L202.75 124.45 M206.35 133.5 L206.35 133.85 M206.35 135.65 L206.35 136.0 M204.85 134.5 L204.85 134.85 M204.35 132.55 L204.35 132.9 M207.2 131.5 L207.2 131.85 M202.7 132.8 L202.7 133.15 M211.0 134.15 L211.0 134.5 M208.15 135.75 L208.15 136.1 M209.65 135.4 L209.65 135.75 M208.15 133.5 L208.15 133.85 M208.6 131.5 L208.6 131.85 M212.15 132.55 L212.15 132.9 M210.3 132.05 L210.3 132.4 M209.8 129.7 L209.8 130.05 M191.9 110.5 L191.9 110.85 M191.9 118.7 L191.9 119.05 M192.15 112.45 L192.15 112.8 M191.6 114.85 L191.6 115.2 M191.3 116.7 L191.3 117.05 M194.95 121.6 L194.95 121.95 M196.4 122.65 L196.4 123.0 M193.75 121.0 L193.75 121.35 M192.4 120.9 L192.4 121.25 M193.4 119.05 L193.4 119.4 M192.7 117.0 L192.7 117.35 M200.85 127.4 L200.85 127.75 M198.95 126.85 L198.95 127.2 M197.65 127.9 L197.65 128.25 M198.95 129.05 L198.95 129.4 M197.5 125.1 L197.5 125.45 M202.25 125.9 L202.25 126.25 M194.95 123.95 L194.95 124.3 M195.9 126.5 L195.9 126.85 M201.4 131.5 L201.4 131.85 M200.85 129.9 L200.85 130.25 M193.6 123.4 L193.6 123.75" fill="none" stroke="#000000" stroke-linecap="round" stroke-linejoin="round" stroke-width="1.5"/>
  </g>
</svg>
