<?xml version="1.0" encoding="UTF-8" standalone="no"?>
<svg xmlns:xlink="http://www.w3.org/1999/xlink" height="67.0px" width="54.05px" xmlns="http://www.w3.org/2000/svg">
  <g transform="matrix(1.0, 0.0, 0.0, 1.0, -170.65, -85.0)">
    <path d="M180.3 98.7 Q183.55 92.2 189.7 88.55 196.8 84.3 208.65 85.15 226.7 87.85 224.45 104.3 223.25 112.9 220.8 117.95 L220.75 118.05 220.75 118.1 220.85 118.1 Q223.3 128.0 222.15 138.0 221.45 143.55 219.65 149.15 218.25 150.9 215.55 151.6 L214.65 151.8 213.75 151.9 212.4 152.0 207.2 151.5 Q204.6 151.05 203.0 150.2 L201.95 149.6 201.55 149.3 Q190.6 147.6 183.4 144.95 178.2 143.05 174.95 140.65 172.0 138.45 170.65 135.9 L175.7 117.4 Q173.05 114.35 173.8 111.0 174.4 108.55 177.7 105.55 178.65 101.8 180.3 98.7" fill="#000000" fill-rule="evenodd" stroke="none"/>
  </g>
</svg>
