<?xml version="1.0" encoding="UTF-8" standalone="no"?>
<svg xmlns:xlink="http://www.w3.org/1999/xlink" height="5.75px" width="15.05px" xmlns="http://www.w3.org/2000/svg">
  <g transform="matrix(1.0, 0.0, 0.0, 1.0, -202.25, -113.65)">
    <path d="M212.35 114.45 Q213.2 113.6 214.4 113.65 215.6 113.6 216.45 114.45 217.3 115.3 217.3 116.5 217.3 117.7 216.45 118.55 215.6 119.4 214.4 119.4 213.2 119.4 212.35 118.55 211.5 117.7 211.55 116.5 211.5 115.65 211.95 114.95 L212.35 114.45 M207.55 114.95 Q208.0 115.65 208.0 116.5 208.0 117.7 207.15 118.55 206.3 119.4 205.1 119.4 203.9 119.4 203.05 118.55 202.2 117.7 202.25 116.5 202.2 115.3 203.05 114.45 203.9 113.6 205.1 113.65 206.3 113.6 207.15 114.45 L207.55 114.95" fill="#000000" fill-rule="evenodd" stroke="none"/>
  </g>
</svg>
