<?xml version="1.0" encoding="UTF-8" standalone="no"?>
<svg xmlns:xlink="http://www.w3.org/1999/xlink" height="37.2px" width="69.25px" xmlns="http://www.w3.org/2000/svg">
  <g transform="matrix(1.0, 0.0, 0.0, 1.0, -150.15, -62.9)">
    <path d="M196.25 95.1 L213.8 94.5 217.5 94.0 219.4 98.45 215.35 99.15 Q205.6 100.75 195.75 99.7 L193.4 99.4 191.25 96.8 Q183.35 87.55 178.45 87.4 L176.85 86.25 Q169.75 87.7 165.35 80.4 157.0 82.55 152.5 78.9 151.25 77.45 150.7 76.0 149.3 72.5 151.5 68.6 159.45 59.45 168.45 65.0 182.45 73.7 189.55 91.85 L190.5 94.55 196.25 95.1" fill="#000000" fill-rule="evenodd" stroke="none"/>
  </g>
</svg>
