<?xml version="1.0" encoding="UTF-8" standalone="no"?>
<svg xmlns:xlink="http://www.w3.org/1999/xlink" height="56.05px" width="125.75px" xmlns="http://www.w3.org/2000/svg">
  <g transform="matrix(1.0, 0.0, 0.0, 1.0, -135.25, -261.0)">
    <path d="M138.3 269.35 Q137.65 265.5 141.7 267.05 145.4 266.05 146.15 270.0 L151.85 270.55 150.85 276.8 147.3 275.55 Q146.7 280.9 141.9 277.25 139.65 279.45 135.8 276.3 133.95 271.7 138.3 269.35 M180.2 269.8 Q180.3 272.95 177.35 272.9 L177.35 275.05 Q182.15 279.45 187.85 281.45 191.3 282.7 195.1 283.1 L195.4 283.1 Q202.9 282.45 207.65 287.65 210.0 291.45 213.85 292.95 216.45 294.05 219.8 294.05 L224.7 294.5 Q229.15 295.45 232.8 298.75 236.55 303.5 244.45 304.5 L244.8 304.6 Q248.15 304.8 251.1 306.3 256.9 309.25 261.0 317.05 258.8 315.8 256.6 314.9 L252.8 313.55 Q249.85 312.65 246.85 312.3 L240.2 311.95 Q235.3 312.25 231.4 310.3 229.05 309.15 227.1 307.2 223.65 303.2 218.15 303.35 L216.9 303.45 Q206.8 304.4 200.8 297.6 L200.5 297.4 Q196.4 294.65 191.9 294.35 L186.7 294.7 Q180.75 294.45 175.6 292.55 175.95 293.25 175.9 294.35 173.2 296.8 169.85 295.45 170.4 296.5 169.9 297.6 166.15 299.9 164.75 295.75 161.4 296.0 162.3 293.35 L164.2 291.2 Q167.3 287.35 169.2 283.2 170.35 280.5 171.0 277.7 172.5 271.4 171.35 264.35 169.05 260.7 174.35 261.05 L175.95 268.25 Q178.95 267.15 180.2 269.8" fill="#000000" fill-rule="evenodd" stroke="none"/>
  </g>
</svg>
