<?xml version="1.0" encoding="UTF-8" standalone="no"?>
<svg xmlns:xlink="http://www.w3.org/1999/xlink" height="50.8px" width="97.5px" xmlns="http://www.w3.org/2000/svg">
  <g transform="matrix(1.0, 0.0, 0.0, 1.0, -120.05, -259.3)">
    <path d="M126.25 261.4 L126.55 260.55 126.75 259.75 130.6 261.6 Q129.5 263.05 129.3 263.7 L128.2 267.0 128.15 267.2 127.5 269.35 127.5 269.4 129.45 270.65 Q126.65 283.35 129.05 296.5 124.15 298.3 120.5 295.85 118.7 281.9 123.95 267.05 L124.6 265.25 124.7 265.05 126.25 261.05 126.25 261.2 126.3 261.3 126.25 261.4 M136.65 259.3 L152.4 267.6 Q151.3 273.55 150.55 278.9 L130.75 268.45 Q132.1 263.05 136.65 259.3 M148.55 271.7 L148.6 271.8 148.7 271.8 148.55 271.7 M169.95 283.4 Q170.1 280.1 170.4 277.15 L187.7 286.3 186.2 289.8 183.5 296.25 169.9 289.1 169.95 283.4 M215.3 298.5 L215.75 298.65 Q217.15 299.2 217.5 301.25 217.8 303.3 216.85 305.7 215.85 308.05 214.2 309.25 L212.2 310.1 211.1 309.9 210.25 309.3 209.75 309.15 Q208.3 308.55 208.0 306.5 207.7 304.75 208.4 302.85 L208.65 302.1 Q209.6 299.75 211.3 298.5 212.95 297.3 214.4 297.9 L215.3 298.5" fill="#000000" fill-rule="evenodd" stroke="none"/>
  </g>
</svg>
