<?xml version="1.0" encoding="UTF-8" standalone="no"?>
<svg xmlns:xlink="http://www.w3.org/1999/xlink" height="142.5px" width="142.5px" xmlns="http://www.w3.org/2000/svg">
  <g transform="matrix(1.0, 0.0, 0.0, 1.0, -106.35, -211.3)">
    <path d="M107.35 274.3 L107.6 273.5 Q120.55 264.4 158.65 282.4 L158.15 282.65 Q127.25 271.2 107.35 274.3 M177.8 263.6 L177.55 263.1 Q188.95 232.2 185.9 212.3 L186.7 212.55 Q195.8 225.5 177.8 263.6 M196.6 282.75 L197.1 282.5 Q227.95 293.9 247.85 290.85 L247.6 291.65 Q234.65 300.75 196.6 282.75 M177.45 301.55 L177.7 302.05 Q166.25 332.9 169.35 352.8 L168.55 352.55 Q159.45 339.6 177.45 301.55" fill="#ffffff" fill-opacity="0.2509804" fill-rule="evenodd" stroke="none"/>
    <path d="M107.6 273.5 L108.2 271.75 108.8 270.25 Q115.45 254.9 133.8 258.95 142.2 261.55 151.9 268.2 164.8 276.0 172.55 275.9 170.4 277.5 169.6 280.2 168.8 282.85 169.7 285.3 165.3 280.15 159.75 281.95 L158.65 282.4 Q120.55 264.4 107.6 273.5" fill="url(#gradient0)" fill-rule="evenodd" stroke="none"/>
    <path d="M174.85 274.65 Q180.0 270.25 178.2 264.7 L177.8 263.6 Q195.8 225.5 186.7 212.55 L188.45 213.15 189.9 213.75 Q205.25 220.4 201.25 238.75 198.6 247.15 192.0 256.85 184.15 269.75 184.25 277.5 182.65 275.35 180.0 274.55 177.65 273.85 175.45 274.5 L174.85 274.65" fill="url(#gradient1)" fill-rule="evenodd" stroke="none"/>
    <path d="M180.35 290.45 Q175.2 294.85 177.0 300.4 L177.45 301.55 Q159.45 339.6 168.55 352.55 L166.8 351.95 165.3 351.35 Q149.95 344.7 154.0 326.4 156.6 318.0 163.25 308.3 171.05 295.35 170.95 287.65 172.55 289.75 175.25 290.55 177.9 291.35 180.35 290.45" fill="url(#gradient2)" fill-rule="evenodd" stroke="none"/>
    <path d="M185.5 279.8 Q189.9 284.95 195.45 283.15 L196.6 282.75 Q234.65 300.75 247.6 291.65 L247.0 293.4 246.4 294.85 Q239.75 310.2 221.45 306.2 213.05 303.55 203.35 296.95 190.4 289.1 182.7 289.2 184.8 287.6 185.6 284.95 186.4 282.25 185.5 279.8" fill="url(#gradient3)" fill-rule="evenodd" stroke="none"/>
    <path d="M107.35 274.3 L107.6 273.5 108.2 271.75 108.8 270.25 Q115.45 254.9 133.8 258.95 M151.9 268.2 Q164.8 276.0 172.55 275.9 L173.6 275.25 Q174.0 275.0 174.45 274.85 L174.85 274.65 Q180.0 270.25 178.2 264.7 L177.8 263.6 177.55 263.1 Q188.95 232.2 185.9 212.3 L186.7 212.55 188.45 213.15 189.9 213.75 Q205.25 220.4 201.25 238.75 198.6 247.15 192.0 256.85 184.15 269.75 184.25 277.5 L184.95 278.6 185.5 279.8 Q189.9 284.95 195.45 283.15 L196.6 282.75 197.1 282.5 Q227.95 293.9 247.85 290.85 L247.6 291.65 247.0 293.4 246.4 294.85 Q239.75 310.2 221.45 306.2 213.05 303.55 203.35 296.95 190.4 289.1 182.7 289.2 L181.6 289.9 180.35 290.45 Q175.2 294.85 177.0 300.4 L177.45 301.55 177.7 302.05 Q166.25 332.9 169.35 352.8 L168.55 352.55 166.8 351.95 165.3 351.35 Q149.95 344.7 154.0 326.4 156.6 318.0 163.25 308.3 171.05 295.35 170.95 287.65 L170.3 286.55 169.7 285.3 Q165.3 280.15 159.75 281.95 L158.65 282.4 158.15 282.65" fill="none" stroke="#000000" stroke-linecap="round" stroke-linejoin="round" stroke-width="2.0"/>
    <path d="M184.25 277.5 Q182.65 275.35 180.0 274.55 177.65 273.85 175.45 274.5 L174.85 274.65 M172.55 275.9 Q170.4 277.5 169.6 280.2 168.8 282.85 169.7 285.3 M179.2 277.1 Q181.5 277.75 182.6 279.85 183.75 281.9 183.1 284.2 182.4 286.45 180.35 287.6 178.25 288.7 176.0 288.05 173.7 287.35 172.55 285.3 171.45 283.2 172.1 280.95 172.8 278.65 174.85 277.55 176.95 276.4 179.2 277.1 M170.95 287.65 Q172.55 289.75 175.25 290.55 177.9 291.35 180.35 290.45 M185.5 279.8 Q186.4 282.25 185.6 284.95 184.8 287.6 182.7 289.2" fill="none" stroke="#000000" stroke-linecap="round" stroke-linejoin="round" stroke-width="1.0"/>
    <path d="M177.8 263.6 Q195.8 225.5 186.7 212.55 M177.45 301.55 Q159.45 339.6 168.55 352.55 M247.6 291.65 Q234.65 300.75 196.6 282.75 M158.65 282.4 Q120.55 264.4 107.6 273.5" fill="none" stroke="#000000" stroke-linecap="round" stroke-linejoin="round" stroke-opacity="0.5019608" stroke-width="0.5"/>
    <path d="M158.15 282.65 Q127.25 271.2 107.35 274.3 M133.8 258.95 Q142.2 261.55 151.9 268.2" fill="none" stroke="#000000" stroke-linecap="round" stroke-linejoin="round" stroke-width="2.0"/>
  </g>
  <defs>
    <linearGradient gradientTransform="matrix(-0.0024, 0.0077, -0.037, -0.0114, 141.8, 268.4)" gradientUnits="userSpaceOnUse" id="gradient0" spreadMethod="pad" x1="-819.2" x2="819.2">
      <stop offset="0.0" stop-color="#000000" stop-opacity="0.0"/>
      <stop offset="1.0" stop-color="#000000" stop-opacity="0.2509804"/>
    </linearGradient>
    <linearGradient gradientTransform="matrix(-0.0072, -0.0025, 0.0127, -0.0366, 189.5, 246.6)" gradientUnits="userSpaceOnUse" id="gradient1" spreadMethod="pad" x1="-819.2" x2="819.2">
      <stop offset="0.0" stop-color="#000000" stop-opacity="0.0"/>
      <stop offset="1.0" stop-color="#000000" stop-opacity="0.2509804"/>
    </linearGradient>
    <linearGradient gradientTransform="matrix(0.0077, 0.002, -0.0099, 0.0374, 162.65, 318.15)" gradientUnits="userSpaceOnUse" id="gradient2" spreadMethod="pad" x1="-819.2" x2="819.2">
      <stop offset="0.0" stop-color="#000000" stop-opacity="0.0"/>
      <stop offset="1.0" stop-color="#000000" stop-opacity="0.2509804"/>
    </linearGradient>
    <linearGradient gradientTransform="matrix(0.0022, -0.0075, 0.038, 0.0111, 212.55, 294.1)" gradientUnits="userSpaceOnUse" id="gradient3" spreadMethod="pad" x1="-819.2" x2="819.2">
      <stop offset="0.0" stop-color="#000000" stop-opacity="0.0"/>
      <stop offset="1.0" stop-color="#000000" stop-opacity="0.2509804"/>
    </linearGradient>
  </defs>
</svg>
