<?xml version="1.0" encoding="UTF-8" standalone="no"?>
<svg xmlns:xlink="http://www.w3.org/1999/xlink" height="153.4px" width="340.15px" xmlns="http://www.w3.org/2000/svg">
  <g transform="matrix(1.0, 0.0, 0.0, 1.0, -10.5, -222.1)">
    <path d="M338.2 341.65 Q345.35 352.95 350.65 366.45 L342.85 375.5 Q337.2 371.75 332.1 366.9 L329.9 364.8 324.8 364.55 Q319.55 363.55 314.55 359.65 297.4 361.5 289.75 342.65 286.2 342.1 282.55 337.3 L282.3 337.45 278.6 339.9 278.45 339.95 Q271.7 342.45 264.7 335.05 263.0 333.2 261.5 330.6 255.75 329.5 252.9 321.45 L251.05 320.6 Q249.3 319.65 247.75 318.1 L246.7 316.9 240.2 316.7 Q239.3 316.45 238.55 315.8 237.25 314.65 236.35 312.45 234.45 313.75 232.65 314.5 226.75 317.0 221.8 313.25 L220.9 312.5 218.45 309.95 Q212.85 310.6 209.0 303.7 207.45 301.3 204.85 300.6 L198.4 300.9 198.35 300.9 Q193.95 302.85 188.2 298.9 185.9 297.3 183.4 294.85 L180.9 292.2 180.6 290.6 169.9 286.65 Q169.85 285.0 169.95 283.4 L170.15 280.05 180.8 283.9 181.4 282.05 Q189.7 281.65 193.95 287.85 L194.6 288.9 Q195.15 290.8 196.4 291.6 198.75 293.15 203.4 290.85 208.95 289.45 212.4 290.15 214.6 290.55 215.95 291.8 218.05 293.7 218.2 297.6 221.7 297.9 220.7 300.15 228.0 291.7 234.5 297.15 L236.95 299.75 Q238.6 301.9 240.25 305.05 239.35 298.85 246.3 298.35 L248.7 300.65 Q251.25 299.9 253.65 299.95 257.75 299.9 261.35 302.1 L261.95 302.45 Q263.55 303.5 265.0 305.0 L265.95 305.95 Q275.9 304.0 283.0 310.05 276.0 302.25 267.5 302.15 276.15 300.05 283.2 306.65 287.75 299.8 295.85 308.85 L297.35 310.4 Q300.2 313.55 301.05 316.6 301.6 318.6 301.25 320.65 304.1 319.9 306.05 317.25 L307.0 315.75 Q308.4 313.35 310.45 313.0 312.3 312.6 314.6 313.9 L320.15 319.1 327.85 326.8 Q334.85 332.65 338.2 341.65 M338.2 362.25 L338.2 362.3 Q340.6 363.95 343.2 365.05 342.25 360.75 339.6 356.55 339.15 359.35 338.2 362.25 M129.15 275.9 L10.5 222.1 127.4 261.55 Q130.55 261.75 130.95 266.0 L151.4 273.35 150.5 279.5 132.5 272.85 Q131.85 275.9 129.15 275.9 M297.3 334.25 L297.5 333.5 Q299.2 326.1 295.25 323.05 293.85 322.0 291.85 321.45 291.25 326.25 288.95 330.2 287.4 332.85 285.05 335.15 294.25 341.55 297.3 334.25 M289.55 314.95 Q291.25 315.1 292.85 315.8 295.65 316.9 298.3 319.65 L298.3 319.6 Q297.0 315.45 295.35 312.8 291.3 306.4 285.05 308.85 288.1 310.6 289.55 314.95 M231.8 308.0 L230.3 305.65 228.55 303.85 Q226.35 302.25 223.4 302.65 222.95 303.5 222.75 304.5 222.5 305.45 222.5 306.55 L224.2 308.8 225.45 309.95 Q228.7 312.35 232.5 309.65 L231.8 308.0 M287.7 321.9 L287.2 322.05 Q282.5 323.35 282.05 327.5 281.75 329.9 282.85 333.2 285.1 331.35 286.25 329.15 287.85 326.1 287.25 322.4 L287.7 321.9 M246.05 305.3 L246.05 305.2 245.95 305.3 Q243.6 305.15 243.25 307.15 L243.15 308.1 Q245.05 308.65 246.95 310.7 L247.45 311.2 Q246.75 312.8 247.3 314.0 247.8 315.25 249.6 316.05 L251.25 316.55 250.9 315.4 250.7 314.85 248.6 309.7 248.4 309.45 Q247.3 307.15 246.05 305.3 M261.5 308.9 Q260.45 307.2 258.7 306.1 257.7 305.45 256.5 305.0 254.25 304.15 251.15 303.95 L252.9 307.15 254.4 310.8 255.85 315.25 256.35 317.2 255.8 317.35 256.25 317.5 256.35 317.2 Q257.5 313.7 259.7 310.9 260.8 309.9 262.0 309.9 L261.5 308.9 M268.65 318.5 Q270.9 316.2 272.85 314.75 277.7 311.0 280.7 312.5 278.0 308.85 267.25 309.75 267.3 317.15 260.75 318.35 L260.65 319.2 Q260.55 322.15 262.4 325.75 L266.05 321.3 268.65 318.5 M276.7 324.05 L275.7 325.05 272.75 327.45 Q269.55 329.6 265.6 330.6 L270.8 336.35 Q273.95 336.95 276.75 336.35 278.65 335.9 280.45 334.9 278.85 331.85 278.55 328.5 L278.5 326.15 278.65 324.45 276.95 323.7 276.7 324.05" fill="#000000" fill-rule="evenodd" stroke="none"/>
  </g>
</svg>
