<?xml version="1.0" encoding="UTF-8" standalone="no"?>
<svg xmlns:xlink="http://www.w3.org/1999/xlink" height="33.9px" width="37.35px" xmlns="http://www.w3.org/2000/svg">
  <g transform="matrix(1.0, 0.0, 0.0, 1.0, -206.9, -151.8)">
    <path d="M223.9 154.0 Q222.65 154.0 222.25 158.25 222.05 160.3 222.15 162.8 L222.15 162.85 222.25 163.7 222.2 163.7 221.15 163.05 220.05 162.3 Q216.85 160.45 216.25 161.1 215.65 161.7 218.05 164.35 L218.85 165.3 219.7 166.2 218.8 166.25 214.2 166.8 Q209.55 167.6 209.65 168.75 209.8 169.9 214.65 170.7 L219.4 171.25 220.35 171.3 219.75 172.15 219.7 172.15 219.05 173.1 Q217.3 175.85 218.05 176.45 218.8 177.05 221.5 175.2 L222.5 174.5 223.45 173.8 223.55 174.65 Q224.05 176.95 224.7 178.9 226.05 183.2 227.35 183.25 228.6 183.2 228.95 178.9 L229.05 174.7 229.05 173.9 230.05 174.55 230.1 174.55 231.35 175.3 Q234.5 177.15 235.1 176.6 235.7 175.95 233.4 173.3 L232.4 172.2 231.55 171.3 232.45 171.25 237.4 170.7 Q242.0 169.9 241.85 168.75 241.7 167.6 236.95 166.8 L231.85 166.25 230.95 166.15 231.6 165.3 232.3 164.2 Q234.05 161.5 233.3 160.95 232.55 160.3 229.85 162.15 L228.7 162.95 228.7 163.0 227.85 163.65 227.7 162.8 Q227.2 160.3 226.5 158.25 225.15 154.0 223.9 154.0 M223.65 151.8 Q225.3 151.8 227.05 156.7 227.9 159.2 228.55 162.15 229.4 161.5 230.2 161.0 233.45 158.95 234.45 159.75 235.4 160.55 233.5 163.75 L232.45 165.35 238.55 166.15 Q244.1 167.2 244.25 168.7 244.45 170.25 239.15 171.3 L233.25 172.1 234.7 173.75 Q237.35 176.9 236.55 177.75 235.75 178.55 232.05 176.5 L230.1 175.35 Q230.15 178.3 229.85 180.7 229.25 185.7 227.65 185.7 225.9 185.7 224.2 180.7 223.3 178.3 222.65 175.3 L221.0 176.5 Q217.7 178.55 216.75 177.75 215.75 176.95 217.65 173.75 L218.75 172.1 212.7 171.3 Q207.1 170.25 206.9 168.7 206.75 167.2 212.1 166.15 L217.95 165.35 216.5 163.75 Q213.85 160.55 214.65 159.75 215.45 158.9 219.2 161.0 220.15 161.5 221.15 162.15 221.05 159.2 221.4 156.7 221.95 151.8 223.65 151.8" fill="#000000" fill-rule="evenodd" stroke="none"/>
  </g>
</svg>
