<?xml version="1.0" encoding="UTF-8" standalone="no"?>
<svg xmlns:xlink="http://www.w3.org/1999/xlink" height="300.05px" width="253.65px" xmlns="http://www.w3.org/2000/svg">
  <g transform="matrix(1.0, 0.0, 0.0, 1.0, -123.75, -55.35)">
    <path d="M354.4 212.15 Q358.55 216.7 357.4 220.2 355.75 223.05 348.55 221.75 357.5 225.6 357.7 229.2 356.95 234.15 329.55 229.15 353.55 237.45 374.65 242.6 380.5 244.75 373.9 247.7 L372.5 248.2 343.1 248.0 Q333.15 248.25 323.25 244.65 295.35 232.15 263.2 221.7 254.25 221.5 248.2 218.1 L215.1 198.55 Q203.75 190.95 203.8 183.45 171.95 167.7 176.8 153.9 158.1 142.55 160.6 132.25 150.0 127.45 149.8 116.25 142.35 111.25 142.0 102.75 129.25 95.95 130.75 83.15 120.15 77.55 125.65 66.55 130.55 56.45 140.9 58.6 142.1 56.2 145.05 55.35 160.25 56.8 175.6 66.25 L202.9 77.05 Q206.15 79.8 202.15 80.55 221.75 86.3 240.05 96.65 256.7 106.0 270.9 115.75 279.5 121.55 272.75 120.5 L269.9 119.95 272.6 120.95 Q280.3 124.15 283.3 130.8 L287.65 140.6 Q283.5 126.8 294.0 134.65 322.15 155.55 355.75 201.3 361.35 209.85 359.45 212.05 357.75 214.1 354.4 212.15 M355.45 273.4 L357.35 272.7 Q366.75 269.4 370.75 271.55 374.35 273.7 370.75 277.75 360.0 287.55 343.75 295.5 349.4 292.95 351.55 295.25 354.1 297.95 350.2 301.9 321.45 325.3 301.45 352.7 289.65 358.4 283.7 352.0 268.35 355.1 266.15 348.5 233.3 359.4 232.45 342.9 211.0 344.7 209.8 331.7 194.35 333.45 193.1 320.9 179.6 320.6 176.4 305.75 149.3 286.55 193.1 275.15 209.9 260.45 262.7 261.25 298.5 255.8 323.75 253.6 356.4 252.15 361.95 258.4 365.55 264.35 350.6 266.4 L334.85 267.55 Q338.85 270.35 332.85 273.1 350.8 272.0 342.35 277.55 328.55 283.65 315.1 289.95 323.2 290.75 329.2 292.6 336.55 280.0 355.45 273.4" fill="#000000" fill-rule="evenodd" stroke="none"/>
  </g>
</svg>
