<?xml version="1.0" encoding="UTF-8" standalone="no"?>
<svg xmlns:xlink="http://www.w3.org/1999/xlink" height="341.9px" width="262.75px" xmlns="http://www.w3.org/2000/svg">
  <g transform="matrix(1.0, 0.0, 0.0, 1.0, -137.15, -72.2)">
    <path d="M337.7 152.3 L399.9 180.05 399.9 239.0 388.65 239.55 377.85 240.7 Q370.65 241.7 363.6 243.25 356.5 244.9 349.5 247.1 342.05 249.45 334.8 252.55 327.8 255.5 320.9 259.1 314.25 262.6 307.7 266.75 300.65 271.1 293.85 276.25 286.2 282.05 278.75 288.7 268.95 297.4 259.6 307.65 266.55 281.55 274.75 255.95 265.35 258.1 255.95 261.85 243.85 266.6 231.8 274.05 218.0 282.5 204.3 294.4 L202.0 298.9 Q195.2 312.55 188.8 326.75 184.8 335.5 181.0 344.5 171.85 353.15 164.2 363.2 147.1 385.45 137.15 414.1 148.9 376.75 161.6 341.95 L169.2 321.5 Q201.1 237.25 238.15 168.4 254.0 138.9 271.0 112.25 L275.35 105.2 Q286.4 88.15 297.85 72.2 L305.9 135.5 Q306.35 134.55 307.15 133.7 308.9 132.0 311.3 132.0 L313.45 132.4 315.45 133.7 Q316.55 134.8 317.0 136.2 L317.2 137.9 Q317.2 140.3 315.45 142.0 L315.25 142.25 314.1 143.05 320.65 146.7 337.7 154.3 337.7 152.3 M305.45 137.9 L305.7 136.25 305.7 136.2 Q305.5 136.75 305.45 137.5 L305.45 137.55 305.45 137.9 M311.25 134.3 Q309.8 134.3 308.75 135.25 307.7 136.35 307.7 137.8 307.7 138.45 308.0 139.1 L308.75 140.3 309.8 141.1 311.25 141.35 Q312.6 141.35 313.6 140.45 L313.75 140.3 Q314.8 139.25 314.8 137.8 L314.7 136.75 314.5 136.35 313.75 135.25 Q313.2 134.75 312.55 134.55 L311.25 134.3" fill="#000000" fill-rule="evenodd" stroke="none"/>
  </g>
</svg>
