<?xml version="1.0" encoding="UTF-8" standalone="no"?>
<svg xmlns:xlink="http://www.w3.org/1999/xlink" height="477.35px" width="391.0px" xmlns="http://www.w3.org/2000/svg">
  <g transform="matrix(1.0, 0.0, 0.0, 1.0, -204.35, -79.7)">
    <path d="M520.4 97.35 Q506.8 90.2 490.6 86.1 504.2 82.05 524.1 79.7 513.05 86.05 520.4 97.35 505.35 98.15 506.1 109.95 499.5 102.8 492.35 96.0 L489.65 93.45 Q502.1 92.95 520.4 97.35 M408.65 236.5 L408.65 231.55 Q406.85 230.5 405.75 229.15 404.3 227.3 404.1 224.7 404.95 220.0 410.65 216.55 L410.6 210.0 413.4 208.1 Q459.15 176.45 474.85 132.45 478.4 211.95 446.65 315.3 440.3 224.45 408.65 236.5 M483.1 146.35 Q483.95 128.95 483.6 111.65 519.45 206.7 519.5 325.05 L519.45 333.3 Q519.15 367.3 515.8 403.3 L515.7 405.3 Q513.9 424.2 511.4 443.6 498.6 344.0 473.1 320.65 470.4 318.2 467.55 316.6 457.9 311.0 446.65 315.3 L460.65 273.05 Q467.15 252.0 471.75 231.15 L473.25 223.8 Q480.05 190.55 482.4 157.65 L483.1 146.35 M503.1 139.6 Q499.1 125.8 494.25 112.3 565.45 191.25 586.5 309.05 L588.5 321.25 590.25 333.65 Q596.5 381.05 595.1 434.3 L594.85 440.4 Q593.45 481.8 587.8 526.75 L583.1 557.05 Q571.25 450.1 553.7 421.0 L551.5 417.6 Q549.05 414.3 546.45 412.4 544.2 410.75 541.8 410.25 528.05 407.4 511.4 443.6 515.25 424.0 518.0 404.8 L518.5 401.15 Q523.9 363.05 525.25 326.55 L525.45 320.3 Q527.95 233.1 507.3 154.8 L503.1 139.6 M395.65 224.7 Q395.4 227.3 393.95 229.15 392.9 230.5 391.1 231.55 L391.1 236.5 Q359.4 224.45 353.1 315.3 341.8 311.0 332.15 316.6 329.35 318.2 326.65 320.65 301.1 344.0 288.35 443.6 271.65 407.4 257.9 410.25 255.5 410.75 253.2 412.4 250.7 414.3 248.2 417.6 L245.95 421.0 Q228.5 450.1 216.65 557.05 L211.9 526.75 Q206.3 481.8 204.85 440.4 L204.6 434.3 Q203.25 381.05 209.45 333.65 L211.25 321.25 213.25 309.05 Q234.3 191.25 305.5 112.3 300.65 125.8 296.6 139.6 L292.4 154.8 Q271.8 233.1 274.25 320.3 L274.5 326.55 Q275.75 363.05 281.2 401.15 L281.75 404.8 Q284.5 424.0 288.35 443.6 285.8 424.2 284.05 405.3 L283.85 403.3 Q280.6 367.3 280.3 333.3 L280.25 325.05 Q280.3 206.7 316.1 111.65 315.75 128.95 316.65 146.35 L317.3 157.65 Q319.7 190.55 326.45 223.8 L327.95 231.15 Q332.5 252.0 339.05 273.05 L353.1 315.3 Q321.35 211.95 324.8 132.45 340.55 176.45 386.3 208.1 L389.15 210.0 389.1 216.55 Q394.75 220.0 395.65 224.7 M275.65 79.7 Q295.55 82.05 309.05 86.1 292.95 90.2 279.3 97.35 297.55 92.95 310.1 93.45 L307.3 96.0 Q300.25 102.8 293.65 109.95 294.4 98.15 279.3 97.35 286.65 86.05 275.65 79.7" fill="#000000" fill-rule="evenodd" stroke="none"/>
  </g>
</svg>
