<?xml version="1.0" encoding="UTF-8" standalone="no"?>
<svg xmlns:xlink="http://www.w3.org/1999/xlink" height="81.2px" width="92.45px" xmlns="http://www.w3.org/2000/svg">
  <g transform="matrix(1.0, 0.0, 0.0, 1.0, -213.2, -360.9)">
    <path d="M225.45 379.1 L218.2 374.65 M293.1 427.6 L289.45 421.5 284.5 424.5 M289.45 421.5 L287.55 418.2 287.55 382.4 M282.65 408.55 Q273.2 420.35 255.1 417.6 L235.0 413.1 M267.1 434.15 L257.95 423.65" fill="none" stroke="#000000" stroke-linecap="round" stroke-linejoin="round" stroke-opacity="0.5019608" stroke-width="1.0"/>
    <path d="M271.05 361.4 L294.1 373.45 302.1 394.5 298.2 403.45 305.15 427.6 304.55 428.0 303.55 428.55 Q300.4 430.05 297.2 429.4 295.1 428.95 293.1 427.6 289.45 437.05 284.4 440.15 278.6 443.65 271.05 438.65 L267.1 434.15 228.9 415.55 218.2 374.65 213.7 371.7" fill="none" stroke="#000000" stroke-linecap="round" stroke-linejoin="round" stroke-width="1.0"/>
  </g>
</svg>
