<?xml version="1.0" encoding="UTF-8" standalone="no"?>
<svg xmlns:xlink="http://www.w3.org/1999/xlink" height="80.2px" width="372.4px" xmlns="http://www.w3.org/2000/svg">
  <g transform="matrix(1.0, 0.0, 0.0, 1.0, -213.7, -361.4)">
    <path d="M505.7 373.45 L528.75 361.4 Q557.45 372.9 586.1 371.7 L581.6 374.65 570.9 415.55 532.7 434.15 528.75 438.65 Q521.2 443.65 515.4 440.15 510.35 437.05 506.7 427.6 504.7 428.95 502.6 429.4 499.4 430.05 496.25 428.55 L495.25 428.0 494.65 427.6 501.6 403.45 497.7 394.5 505.7 373.45 M213.7 371.7 Q242.4 372.9 271.05 361.4 L294.1 373.45 302.1 394.5 298.2 403.45 305.15 427.6 304.55 428.0 303.55 428.55 Q300.4 430.05 297.2 429.4 295.1 428.95 293.1 427.6 289.45 437.05 284.4 440.15 278.6 443.65 271.05 438.65 L267.1 434.15 228.9 415.55 218.2 374.65 213.7 371.7" fill="#000000" fill-rule="evenodd" stroke="none"/>
  </g>
</svg>
