<?xml version="1.0" encoding="UTF-8" standalone="no"?>
<svg xmlns:xlink="http://www.w3.org/1999/xlink" height="42.45px" width="365.7px" xmlns="http://www.w3.org/2000/svg">
  <g transform="matrix(1.0, 0.0, 0.0, 1.0, -217.0, -245.05)">
    <path d="M581.55 255.3 Q580.4 263.5 578.15 272.4 568.2 278.0 557.7 281.5 546.7 285.15 535.2 286.55 520.65 288.35 505.1 286.75 L502.2 282.65 Q499.85 279.25 498.1 275.85 531.4 273.75 557.7 261.0 563.6 258.15 569.2 254.75 576.2 250.4 582.7 245.25 L581.55 255.3 M259.65 285.85 Q239.75 282.5 221.55 272.4 219.3 263.5 218.15 255.3 217.4 250.05 217.0 245.05 223.55 250.3 230.7 254.7 244.15 262.95 259.65 268.05 279.05 274.4 301.65 275.75 299.85 279.2 297.5 282.65 L294.7 286.65 Q279.15 288.4 264.5 286.55 L259.65 285.85" fill="#000000" fill-rule="evenodd" stroke="none"/>
  </g>
</svg>
