<?xml version="1.0" encoding="UTF-8" standalone="no"?>
<svg xmlns:xlink="http://www.w3.org/1999/xlink" height="70.45px" width="48.65px" xmlns="http://www.w3.org/2000/svg">
  <g transform="matrix(1.0, 0.0, 0.0, 1.0, -375.5, -202.05)">
    <path d="M421.15 203.45 L421.9 204.75 422.35 204.3 423.15 204.2 Q423.7 204.45 423.75 205.6 423.75 206.7 423.2 208.15 422.65 209.55 421.9 210.3 L421.7 210.55 421.9 210.9 422.35 210.45 423.15 210.35 Q423.7 210.65 423.75 211.75 423.75 212.9 423.2 214.3 422.65 215.7 421.9 216.5 L421.75 216.65 421.9 216.95 422.35 216.5 423.15 216.4 Q423.7 216.65 423.75 217.8 423.75 218.9 423.2 220.35 422.7 221.65 422.0 222.4 L422.35 222.1 423.15 222.0 Q423.7 222.3 423.75 223.4 423.75 224.55 423.2 225.95 L422.35 227.55 423.15 227.45 Q423.7 227.75 423.75 228.85 423.75 230.0 423.2 231.4 422.65 232.8 421.9 233.6 L421.8 233.7 421.9 233.85 421.9 233.8 422.0 233.7 422.35 233.4 423.15 233.3 Q423.7 233.6 423.75 234.7 423.75 235.85 423.2 237.25 422.65 238.65 421.9 239.45 L421.7 239.65 421.75 239.7 421.8 239.85 421.9 239.95 421.9 239.9 422.0 239.85 422.35 239.5 423.15 239.45 Q423.7 239.7 423.75 240.8 423.75 241.95 423.2 243.4 L422.2 245.25 422.35 245.1 423.15 245.0 Q423.7 245.3 423.75 246.4 423.75 247.55 423.2 248.95 422.65 250.35 421.9 251.15 L421.75 251.3 421.8 251.45 421.9 251.6 421.9 251.55 422.0 251.45 422.2 251.25 422.35 251.15 423.15 251.05 Q423.7 251.3 423.75 252.45 423.75 253.55 423.2 255.0 422.65 256.4 421.9 257.15 L421.5 257.5 421.7 257.85 421.7 257.9 421.75 257.9 421.8 258.05 421.9 258.2 421.9 258.15 422.0 258.05 422.2 257.9 422.35 257.75 423.15 257.65 Q423.7 257.9 423.75 259.05 L423.65 260.2 423.65 260.1 419.45 260.1 419.2 259.55 Q418.6 258.05 418.6 257.0 418.55 255.85 419.1 255.6 419.5 255.45 419.95 255.75 L420.0 255.4 420.15 254.6 419.2 252.95 Q418.6 251.45 418.6 250.35 418.55 249.25 419.1 248.95 L420.0 249.15 420.05 249.15 420.15 248.55 419.2 246.9 Q418.6 245.4 418.6 244.35 418.55 243.2 419.1 242.95 L420.0 243.1 420.05 243.1 420.1 243.15 420.15 243.0 419.2 241.3 Q418.6 239.85 418.6 238.75 418.55 237.65 419.1 237.35 419.5 237.2 420.0 237.55 L420.15 236.85 419.2 235.2 Q418.6 233.7 418.6 232.65 418.55 231.5 419.1 231.25 L420.05 231.4 420.1 231.45 420.15 231.0 419.2 229.35 Q418.6 227.85 418.6 226.8 418.55 225.65 419.1 225.4 L420.05 225.55 420.1 225.6 420.1 225.65 420.15 225.55 419.2 223.9 Q418.6 222.4 418.6 221.35 418.55 220.2 419.1 219.95 L420.05 220.1 420.1 220.15 420.15 219.95 419.2 218.3 Q418.6 216.8 418.6 215.7 418.55 214.6 419.1 214.3 L420.05 214.5 420.15 213.9 419.2 212.25 Q418.6 210.75 418.6 209.7 418.55 208.55 419.1 208.3 L420.05 208.45 420.15 207.75 419.2 206.1 Q418.6 204.6 418.6 203.5 418.55 202.4 419.1 202.1 419.7 201.95 420.55 202.65 L421.15 203.45 M421.9 245.55 L422.2 245.25 422.0 245.4 421.9 245.5 421.9 245.55 421.8 245.65 421.6 245.85 421.9 245.6 421.9 245.55 M423.05 265.05 Q422.3 268.65 424.15 269.15 423.5 270.5 421.9 270.3 421.95 271.1 422.8 271.85 420.35 273.6 418.2 270.8 L417.25 272.05 Q416.2 267.9 418.85 265.05 L423.05 265.05 M381.05 203.5 Q381.05 204.6 380.45 206.1 L379.5 207.75 379.6 208.45 380.55 208.3 Q381.1 208.55 381.05 209.7 381.05 210.75 380.45 212.25 L379.5 213.9 379.6 214.5 380.55 214.3 Q381.1 214.6 381.05 215.7 381.05 216.8 380.45 218.3 L379.5 219.95 379.55 220.15 379.6 220.1 380.55 219.95 Q381.1 220.2 381.05 221.35 381.05 222.4 380.45 223.9 L379.5 225.55 379.55 225.65 379.55 225.6 379.6 225.55 380.55 225.4 Q381.1 225.65 381.05 226.8 381.05 227.85 380.45 229.35 L379.5 231.0 379.55 231.45 379.6 231.4 380.55 231.25 Q381.1 231.5 381.05 232.65 381.05 233.7 380.45 235.2 L379.5 236.85 379.65 237.55 Q380.15 237.2 380.55 237.35 381.1 237.65 381.05 238.75 381.05 239.85 380.45 241.3 L379.5 243.0 379.55 243.15 379.6 243.1 379.65 243.1 380.55 242.95 Q381.1 243.2 381.05 244.35 381.05 245.4 380.45 246.9 L379.5 248.55 379.6 249.15 379.65 249.15 380.55 248.95 Q381.1 249.25 381.05 250.35 381.05 251.45 380.45 252.95 L379.5 254.6 379.65 255.4 379.7 255.75 380.55 255.6 Q381.1 255.85 381.05 257.0 381.05 258.05 380.45 259.55 L380.2 260.1 376.0 260.1 376.0 260.2 375.9 259.05 Q375.95 257.9 376.5 257.65 L377.3 257.75 377.45 257.9 377.65 258.05 377.75 258.15 377.75 258.2 377.85 258.05 377.9 257.9 377.95 257.9 377.95 257.85 378.15 257.5 377.75 257.15 Q377.0 256.4 376.45 255.0 375.9 253.55 375.9 252.45 375.95 251.3 376.5 251.05 L377.3 251.15 377.45 251.25 377.65 251.45 377.75 251.55 377.75 251.6 377.85 251.45 377.9 251.3 377.75 251.15 Q377.0 250.35 376.45 248.95 375.9 247.55 375.9 246.4 375.95 245.3 376.5 245.0 L377.3 245.1 377.45 245.25 Q376.9 244.5 376.45 243.4 375.9 241.95 375.9 240.8 375.95 239.7 376.5 239.45 L377.3 239.5 377.65 239.85 377.75 239.9 377.75 239.95 377.85 239.85 377.9 239.7 377.95 239.65 377.75 239.45 Q377.0 238.65 376.45 237.25 375.9 235.85 375.9 234.7 375.95 233.6 376.5 233.3 L377.3 233.4 377.65 233.7 377.75 233.8 377.75 233.85 377.85 233.7 377.75 233.6 Q377.0 232.8 376.45 231.4 375.9 230.0 375.9 228.85 375.95 227.75 376.5 227.45 L377.3 227.55 376.45 225.95 Q375.9 224.55 375.9 223.4 375.95 222.3 376.5 222.0 L377.3 222.1 377.65 222.4 Q376.95 221.65 376.45 220.35 375.9 218.9 375.9 217.8 375.95 216.65 376.5 216.4 L377.3 216.5 377.75 216.95 377.9 216.65 377.75 216.5 Q377.0 215.7 376.45 214.3 375.9 212.9 375.9 211.75 375.95 210.65 376.5 210.35 L377.3 210.45 377.75 210.9 377.95 210.55 377.75 210.3 Q377.0 209.55 376.45 208.15 375.9 206.7 375.9 205.6 375.95 204.45 376.5 204.2 L377.3 204.3 377.75 204.75 378.5 203.45 379.1 202.65 Q379.95 201.95 380.55 202.1 381.1 202.4 381.05 203.5 M377.45 245.25 L377.75 245.55 377.75 245.5 377.65 245.4 377.45 245.25 M377.75 245.6 L378.05 245.85 377.85 245.65 377.75 245.55 377.75 245.6 M376.6 265.05 L380.8 265.05 Q383.45 267.9 382.4 272.05 L381.45 270.8 Q379.3 273.6 376.85 271.85 377.7 271.1 377.75 270.3 376.15 270.5 375.5 269.15 377.35 268.65 376.6 265.05" fill="#000000" fill-rule="evenodd" stroke="none"/>
  </g>
</svg>
