<?xml version="1.0" encoding="UTF-8" standalone="no"?>
<svg xmlns:xlink="http://www.w3.org/1999/xlink" height="80.95px" width="62.9px" xmlns="http://www.w3.org/2000/svg">
  <g transform="matrix(1.0, 0.0, 0.0, 1.0, -368.5, -161.95)">
    <path d="M399.95 167.45 Q402.5 166.05 403.6 163.8 405.35 160.7 414.75 162.8 424.45 166.05 420.55 171.6 417.85 174.2 423.1 177.4 429.4 180.55 424.75 182.2 421.9 183.55 428.2 186.35 432.45 188.45 428.8 190.4 426.9 192.15 429.7 195.1 434.3 199.35 426.5 203.75 419.45 206.0 423.0 210.95 424.5 213.35 423.0 215.45 418.75 219.1 426.0 224.0 431.9 229.5 416.45 232.05 407.5 234.2 411.65 239.35 414.5 243.2 399.85 242.9 385.2 243.2 388.05 239.35 392.2 234.2 383.25 232.05 367.8 229.5 373.8 224.1 381.2 219.15 376.9 215.45 375.4 213.35 376.9 210.95 380.45 206.0 373.4 203.75 365.6 199.35 370.2 195.1 373.0 192.15 371.1 190.4 367.45 188.45 371.7 186.35 378.0 183.55 375.15 182.2 370.5 180.55 376.8 177.4 382.05 174.2 379.35 171.6 375.45 166.05 385.15 162.8 394.55 160.7 396.3 163.8 397.4 166.05 399.95 167.45" fill="#000000" fill-rule="evenodd" stroke="none"/>
  </g>
</svg>
