<?xml version="1.0" encoding="UTF-8" standalone="no"?>
<svg xmlns:xlink="http://www.w3.org/1999/xlink" height="53.8px" width="34.95px" xmlns="http://www.w3.org/2000/svg">
  <g transform="matrix(1.0, 0.0, 0.0, 1.0, -381.0, -172.15)">
    <path d="M399.95 179.7 Q395.25 171.05 390.85 174.1 L381.5 191.2 381.85 194.55 Q383.7 210.65 388.35 225.45 386.15 210.0 385.75 194.3 L393.65 177.75 Q395.0 176.25 399.95 179.7 L403.75 174.4 Q407.15 169.95 410.75 176.7 L415.45 186.4 415.3 189.05 Q414.25 203.55 410.3 218.0 412.05 203.6 411.2 189.15 410.05 184.5 408.9 181.7 L407.95 179.7 Q405.75 175.8 403.15 177.8 L399.95 179.7 Z" fill="none" stroke="#000000" stroke-linecap="round" stroke-linejoin="round" stroke-opacity="0.5019608" stroke-width="1.0"/>
  </g>
</svg>
