<?xml version="1.0" encoding="UTF-8" standalone="no"?>
<svg xmlns:xlink="http://www.w3.org/1999/xlink" height="31.95px" width="46.4px" xmlns="http://www.w3.org/2000/svg">
  <g transform="matrix(1.0, 0.0, 0.0, 1.0, -376.75, -163.05)">
    <path d="M418.05 194.5 Q418.65 192.9 418.65 191.15 L418.65 190.95 420.9 185.2 422.35 179.35 420.55 180.0 Q422.6 174.85 422.65 168.9 L420.25 171.2 Q421.9 167.4 421.55 163.55 417.25 168.75 412.8 169.9 407.5 167.1 399.95 167.3 392.4 167.1 387.1 169.9 382.65 168.75 378.35 163.55 378.0 167.4 379.65 171.2 L377.25 168.9 Q377.3 174.85 379.35 180.0 L377.55 179.35 379.0 185.2 381.25 190.95 381.25 191.15 Q381.25 192.9 381.85 194.5" fill="none" stroke="#000000" stroke-linecap="round" stroke-linejoin="round" stroke-width="1.0"/>
    <path d="M390.9 170.9 L391.5 171.15 Q395.05 172.6 396.65 174.65 M409.05 170.9 L408.4 171.15 Q404.85 172.6 403.25 174.65" fill="none" stroke="#000000" stroke-linecap="round" stroke-linejoin="round" stroke-opacity="0.49803922" stroke-width="1.0"/>
  </g>
</svg>
