<?xml version="1.0" encoding="UTF-8" standalone="no"?>
<svg xmlns:xlink="http://www.w3.org/1999/xlink" height="37.3px" width="50.2px" xmlns="http://www.w3.org/2000/svg">
  <g transform="matrix(1.0, 0.0, 0.0, 1.0, -374.6, -157.7)">
    <path d="M399.7 163.85 Q396.8 162.25 394.8 160.45 394.95 161.55 395.8 162.65 392.1 159.85 387.6 158.2 390.85 161.2 393.2 164.75 389.4 162.55 385.25 162.1 387.75 163.7 389.5 165.95 L381.65 161.45 385.15 164.65 379.65 164.45 Q382.15 166.35 386.55 168.05 L378.8 168.05 Q380.7 170.05 383.95 171.3 380.6 170.7 377.9 169.25 378.95 171.0 381.3 172.15 378.55 172.3 375.85 171.2 377.2 172.75 379.45 173.55 377.4 173.75 375.5 173.05 376.3 174.9 378.3 176.45 L375.1 174.65 Q376.85 177.75 379.85 180.9 L379.95 180.95 380.05 181.05 Q377.4 179.5 375.55 177.8 376.9 180.6 379.2 183.2 377.15 182.2 375.9 180.65 377.35 184.55 379.85 188.0 L381.85 194.5 M418.05 194.5 L419.55 188.0 Q422.05 184.55 423.5 180.65 422.25 182.2 420.2 183.2 422.5 180.6 423.85 177.8 422.0 179.5 419.35 181.05 L419.55 180.9 Q422.55 177.75 424.3 174.65 L421.1 176.45 Q423.1 174.9 423.9 173.05 422.0 173.75 419.95 173.55 422.2 172.75 423.55 171.2 420.85 172.3 418.1 172.15 420.45 171.0 421.5 169.25 418.8 170.7 415.45 171.3 418.7 170.05 420.6 168.05 L412.85 168.05 Q417.25 166.35 419.75 164.45 L414.25 164.65 417.75 161.45 409.9 165.95 Q411.65 163.7 414.15 162.1 410.0 162.55 406.2 164.75 408.55 161.2 411.8 158.2 407.3 159.85 403.6 162.65 404.45 161.55 404.6 160.45 402.6 162.25 399.7 163.85" fill="none" stroke="#000000" stroke-linecap="round" stroke-linejoin="round" stroke-width="1.0"/>
    <path d="M400.05 173.9 Q401.15 171.6 402.85 169.85 L403.15 169.5 Q404.55 168.1 406.35 167.0 M399.35 173.9 Q398.25 171.65 396.65 169.9 L396.3 169.55 Q394.9 168.1 393.05 167.0 M402.7 164.75 L399.7 168.85 396.7 164.75 M399.7 163.85 L399.7 168.85" fill="none" stroke="#000000" stroke-linecap="round" stroke-linejoin="round" stroke-opacity="0.5019608" stroke-width="1.0"/>
  </g>
</svg>
