<?xml version="1.0" encoding="UTF-8" standalone="no"?>
<svg xmlns:xlink="http://www.w3.org/1999/xlink" height="73.55px" width="69.1px" xmlns="http://www.w3.org/2000/svg">
  <g transform="matrix(1.0, 0.0, 0.0, 1.0, -364.35, -165.1)">
    <path d="M430.7 233.7 L430.85 233.55 Q432.2 232.4 432.95 231.1 427.25 228.8 424.05 225.75 418.85 220.8 420.3 213.9 425.45 199.05 420.3 181.65 418.75 177.5 417.05 174.45 415.8 172.15 414.45 170.5 408.85 163.55 401.8 167.05 399.25 165.95 396.95 165.7 394.15 165.35 391.65 166.15 386.0 167.85 381.7 175.3 373.95 188.35 375.0 200.9 375.35 205.45 377.0 210.0 379.95 223.6 369.95 229.2 L364.85 230.6 Q366.15 232.55 367.95 233.9" fill="none" stroke="#000000" stroke-linecap="round" stroke-linejoin="round" stroke-width="1.0"/>
    <path d="M367.95 233.9 Q370.75 235.95 374.85 236.55 379.3 237.2 385.3 235.95 390.2 232.75 389.8 226.9 L392.85 231.5 Q392.7 223.3 389.3 214.55 L388.85 213.45 Q386.6 207.75 385.65 201.85 384.55 195.9 384.75 189.6 L386.5 189.75 388.65 190.0 389.6 190.05 392.6 190.2 394.05 190.3 398.85 190.4 399.65 182.9 400.95 190.4 403.4 190.35 405.05 190.3 408.65 190.1 410.3 189.95 413.95 189.6 Q415.4 202.6 411.35 214.35 L410.95 215.3 Q407.85 220.6 410.95 225.85 410.3 240.55 422.75 237.65 427.9 235.95 430.7 233.7 Z" fill="none" stroke="#000000" stroke-linecap="round" stroke-linejoin="round" stroke-opacity="0.49803922" stroke-width="1.0"/>
  </g>
</svg>
