<?xml version="1.0" encoding="UTF-8" standalone="no"?>
<svg xmlns:xlink="http://www.w3.org/1999/xlink" height="94.9px" width="62.25px" xmlns="http://www.w3.org/2000/svg">
  <g transform="matrix(1.0, 0.0, 0.0, 1.0, -368.65, -160.15)">
    <path d="M392.65 176.6 Q390.95 184.55 391.9 191.6 392.5 196.15 394.25 200.4 393.25 195.7 393.0 191.5 392.7 186.15 393.55 181.65 393.95 179.4 394.65 177.4 L398.25 177.4 M392.65 176.6 Q388.75 178.95 386.6 197.3 L387.4 201.7 388.0 204.4 389.5 209.45 Q390.45 212.5 391.75 215.7 L391.9 216.1 391.6 215.7 389.1 212.25 Q387.15 209.15 385.8 205.4 L385.7 205.2 Q387.25 210.25 387.6 215.7 388.15 225.1 385.05 235.6 382.15 241.4 380.85 254.55 379.8 244.35 382.6 230.5 382.5 222.55 379.8 215.7 L379.05 213.95 378.1 212.0 Q370.9 196.05 374.4 183.3 375.05 180.75 376.2 178.35 374.4 181.05 371.95 183.55 L371.55 183.9 370.45 184.95 369.15 186.1 371.55 181.95 371.65 181.85 371.9 181.2 373.75 177.4 373.8 177.2 374.15 176.25 Q374.8 173.6 375.8 171.45 377.35 167.85 379.65 165.6 380.75 164.45 382.05 163.65 L384.2 162.2 Q393.8 158.95 400.15 162.45 406.4 159.25 415.3 162.35 L415.4 162.4 417.65 163.65 420.05 165.6 Q422.3 167.85 423.9 171.45 L425.55 176.25 425.85 177.2 425.95 177.4 427.6 181.15 Q428.95 183.85 430.4 186.0 L429.1 184.85 427.6 183.45 Q425.2 181.0 423.5 178.35 424.6 180.75 425.3 183.3 428.75 196.05 421.6 212.0 421.05 212.95 420.65 213.95 L419.9 215.7 Q417.15 222.55 417.05 230.5 419.85 244.35 418.8 254.55 417.5 241.4 414.6 235.6 411.5 225.1 412.1 215.7 412.4 210.15 414.05 205.0 L413.9 205.4 Q412.5 209.15 410.55 212.25 L408.1 215.7 407.75 216.1 407.9 215.7 410.2 209.45 411.65 204.4 412.3 201.7 413.1 197.3 Q410.9 178.95 407.0 176.6 408.7 184.55 407.75 191.6 407.15 196.15 405.4 200.4 406.4 195.7 406.65 191.5 406.95 186.15 406.1 181.65 L405.0 177.4 401.45 177.4 Q403.55 183.75 400.4 202.8 401.7 186.1 399.85 179.45 397.95 186.1 399.3 202.8 396.1 183.75 398.25 177.4" fill="none" stroke="#000000" stroke-linecap="round" stroke-linejoin="round" stroke-width="1.0"/>
    <path d="M400.15 162.45 L401.5 164.15 M376.2 178.35 Q378.5 174.05 380.7 171.45 384.75 166.65 388.4 167.7 390.3 168.25 392.05 170.3 L392.05 171.2 Q391.95 173.45 392.65 176.6 M398.25 177.4 L398.3 177.2 399.0 177.3 398.95 175.65 M399.85 179.45 L399.0 177.3 M401.45 177.4 L401.35 177.2 400.8 175.95 400.75 175.85 400.4 175.4 M386.6 197.3 Q384.8 184.8 389.15 175.8 M385.7 205.2 L385.65 205.0 385.2 203.8 384.75 202.25 383.8 197.9 Q381.75 186.1 385.95 175.1 M384.2 162.2 Q386.5 163.7 389.5 165.05 M415.3 162.35 L410.15 165.05 Q408.25 165.9 407.0 169.3 L407.2 170.35 Q409.35 168.25 411.25 167.7 414.9 166.65 419.0 171.45 421.15 174.05 423.5 178.35 M405.0 177.4 L406.65 177.4 406.85 176.5 Q407.35 173.7 407.3 171.45 L407.25 170.75 407.2 170.35 M407.0 176.6 L406.85 176.5 M414.05 205.0 L414.45 203.8 414.9 202.25 415.85 197.9 Q417.9 186.1 413.75 175.1 M413.1 197.3 Q414.85 184.8 410.5 175.8 M420.0 180.75 Q423.5 190.3 421.75 200.05 420.65 205.9 417.65 211.85 M379.7 180.75 Q376.15 190.3 377.95 200.05 379.0 205.9 382.0 211.85" fill="none" stroke="#000000" stroke-linecap="round" stroke-linejoin="round" stroke-opacity="0.49803922" stroke-width="1.0"/>
  </g>
</svg>
