<?xml version="1.0" encoding="UTF-8" standalone="no"?>
<svg xmlns:xlink="http://www.w3.org/1999/xlink" height="41.05px" width="42.7px" xmlns="http://www.w3.org/2000/svg">
  <g transform="matrix(1.0, 0.0, 0.0, 1.0, -379.2, -166.6)">
    <path d="M399.8 167.15 Q403.2 166.85 406.2 168.05 407.9 169.95 410.6 169.55 L413.85 171.95 Q421.1 179.0 421.1 188.8 L421.4 192.55 419.05 192.55 Q418.95 197.35 416.8 204.35 417.7 199.55 416.8 193.9 416.75 204.05 412.9 207.15 419.05 196.7 409.9 183.6 L407.8 182.35 Q406.3 182.9 405.2 181.4 L403.15 181.2 Q389.75 187.65 386.75 196.45 L387.75 191.05 Q383.15 196.15 385.1 206.95 382.5 201.5 381.4 192.2 L379.8 192.2 379.7 189.05 Q379.45 168.25 399.8 167.15" fill="none" stroke="#000000" stroke-linecap="round" stroke-linejoin="round" stroke-width="1.0"/>
    <path d="M387.75 191.05 Q388.75 185.75 391.4 183.25 M405.2 181.4 L404.5 180.15 403.15 181.2 M419.05 192.55 L418.95 190.1 M409.9 183.6 L408.9 181.75 407.8 182.35" fill="none" stroke="#000000" stroke-linecap="round" stroke-linejoin="round" stroke-opacity="0.49803922" stroke-width="1.0"/>
  </g>
</svg>
