<?xml version="1.0" encoding="UTF-8" standalone="no"?>
<svg xmlns:xlink="http://www.w3.org/1999/xlink" height="60.35px" width="50.0px" xmlns="http://www.w3.org/2000/svg">
  <g transform="matrix(1.0, 0.0, 0.0, 1.0, -374.75, -163.5)">
    <path d="M416.7 199.85 L414.35 208.25 410.75 216.0 410.75 217.6 412.1 215.1 413.1 218.75 Q416.2 216.45 417.85 210.75 417.75 214.2 416.5 217.5 420.3 214.4 420.25 206.1 420.95 209.3 423.1 210.1 420.8 206.35 421.35 203.75 422.0 206.4 424.25 206.75 421.3 201.45 421.75 193.25 L424.0 195.9 Q419.55 185.05 417.65 172.8 409.65 167.85 402.3 164.0 391.05 165.4 385.35 170.65 L385.0 171.0 381.1 175.2 Q379.6 181.3 379.35 188.95 379.05 196.6 376.45 204.55 373.85 212.55 376.85 215.0 374.3 209.95 377.3 204.5 376.7 213.05 381.1 217.6 380.8 221.15 379.1 223.35 383.3 220.95 387.1 215.6 387.1 218.3 385.2 220.6 387.0 219.6 387.85 216.85 L389.5 220.1 389.5 216.45 Q387.6 210.9 386.0 208.35 L384.0 200.85 Q389.85 187.0 401.35 178.7 399.4 186.3 391.6 199.6 L396.95 192.2 Q405.45 186.3 408.7 179.5 409.65 189.0 416.0 192.0 L416.0 189.75 Q417.2 194.8 416.7 199.85" fill="none" stroke="#000000" stroke-linecap="round" stroke-linejoin="round" stroke-width="1.0"/>
    <path d="M377.3 204.5 L377.85 203.5 M404.1 178.25 Q402.65 185.9 396.95 192.2 M416.7 199.85 L416.7 206.7 Q420.75 196.55 417.25 183.35 M384.0 200.85 L382.1 205.85 384.8 195.0 Q386.8 187.05 391.1 179.1 M381.1 217.6 L381.75 214.35" fill="none" stroke="#000000" stroke-linecap="round" stroke-linejoin="round" stroke-opacity="0.49803922" stroke-width="1.0"/>
  </g>
</svg>
