<?xml version="1.0" encoding="UTF-8" standalone="no"?>
<svg xmlns:xlink="http://www.w3.org/1999/xlink" height="57.55px" width="70.5px" xmlns="http://www.w3.org/2000/svg">
  <g transform="matrix(1.0, 0.0, 0.0, 1.0, -363.55, -151.8)">
    <path d="M402.5 159.75 L402.4 159.4 Q400.85 155.2 396.25 155.85 392.5 157.05 394.3 152.45 392.8 155.0 392.95 157.2 393.05 160.55 397.0 161.9 L397.4 162.05 M402.4 159.4 Q406.15 156.35 410.8 156.65 414.5 156.55 414.75 154.5 414.9 152.95 413.45 152.3 416.5 152.95 415.45 156.3 416.3 161.05 413.35 162.45 423.35 160.95 422.6 164.35 423.1 168.35 427.6 166.75 428.15 169.65 422.8 171.05 428.1 172.5 428.95 175.65 428.1 174.45 426.3 174.85 432.9 180.2 432.15 183.05 429.55 187.3 429.9 188.65 L430.1 189.15 430.3 189.25 Q432.05 189.9 433.55 189.3 430.0 193.15 425.95 191.0 429.1 195.5 425.95 199.3 L425.0 199.85 422.65 201.65 Q420.5 203.6 421.45 205.1 L422.6 206.5 Q419.3 207.25 416.25 203.3 416.75 199.95 416.6 196.55 414.0 197.65 411.3 196.25 414.9 196.8 415.6 193.1 417.05 190.05 409.45 186.5 406.15 187.1 406.7 178.95 405.4 181.6 397.9 183.5 391.1 186.9 395.65 191.15 396.7 192.0 397.75 190.9 399.45 192.75 402.6 190.25 403.6 189.1 403.15 188.3 402.75 187.6 401.45 188.55 401.95 187.25 403.05 187.7 405.0 189.25 402.6 191.15 400.15 193.1 397.55 191.9 395.3 195.3 389.25 192.25 387.85 190.9 387.1 189.45 387.7 191.1 387.1 192.65 384.85 195.45 382.55 194.5 383.25 200.05 385.35 204.7 L385.45 207.05 Q384.2 208.7 382.15 208.85 L383.4 207.6 Q384.05 205.1 382.4 204.05 L381.1 203.4 Q380.2 203.15 379.6 202.6 379.9 204.05 379.1 204.5 379.2 203.5 375.1 202.35 371.0 200.75 374.05 196.1 371.0 197.35 368.05 197.7 371.5 196.35 372.85 193.75 374.6 191.9 368.45 191.45 L368.0 191.4 367.05 191.3 Q362.95 190.9 364.5 186.8 365.65 183.0 374.1 180.5 371.9 180.45 369.75 178.9 367.55 177.25 369.45 168.45 371.35 173.05 375.55 171.9 376.95 171.2 376.9 168.05 376.85 162.05 383.75 160.0 389.05 158.95 393.5 160.8 395.45 161.95 397.0 161.9 M369.85 185.75 Q365.75 189.25 367.05 191.3 M385.0 190.5 Q381.4 191.8 382.3 188.9 378.75 189.5 379.9 192.3 381.3 194.0 382.55 194.5 M375.7 195.3 L374.05 196.1 M368.45 191.45 Q366.9 189.1 371.6 185.45 M387.1 182.05 Q385.35 186.1 387.1 189.45 M413.35 162.45 L411.75 162.85 M419.1 184.2 Q423.4 185.25 422.6 181.7 L422.1 181.2 M406.75 176.65 Q407.1 177.85 406.7 178.95 M422.6 181.7 Q424.5 183.7 424.45 185.75 424.6 188.5 421.3 188.55 422.65 190.9 421.05 192.95 418.8 195.6 416.6 196.55 M421.3 188.55 L420.15 187.0 M429.9 188.65 Q427.4 188.5 427.1 183.8 M382.4 204.05 Q380.95 202.7 379.75 200.85 376.45 195.85 379.25 193.6 M379.6 202.6 Q377.45 201.0 377.05 197.75 M420.5 196.25 Q423.7 198.7 422.65 201.65 M425.0 199.85 Q426.35 196.85 422.25 194.0" fill="none" stroke="#000000" stroke-linecap="round" stroke-linejoin="round" stroke-width="1.0"/>
  </g>
</svg>
