<?xml version="1.0" encoding="UTF-8" standalone="no"?>
<svg xmlns:xlink="http://www.w3.org/1999/xlink" height="63.4px" width="49.4px" xmlns="http://www.w3.org/2000/svg">
  <g transform="matrix(1.0, 0.0, 0.0, 1.0, -375.9, -166.2)">
    <path d="M386.1 189.25 Q394.95 185.9 404.7 179.75 L405.7 179.1 406.8 178.4 M419.0 215.6 Q420.0 229.5 424.8 229.1 420.2 226.35 421.05 212.2 423.35 172.45 412.3 170.0 408.45 170.65 408.15 167.75 380.1 161.9 378.3 189.05 380.3 207.75 376.4 220.75 379.35 216.55 380.7 209.45 381.75 218.2 385.95 226.2 382.3 214.2 382.9 203.75 383.3 196.05 386.1 189.25 M405.7 179.1 Q413.25 187.25 416.05 197.2 418.35 205.35 417.8 214.7 417.45 221.25 413.15 226.1 417.75 223.5 419.0 215.6" fill="none" stroke="#000000" stroke-linecap="round" stroke-linejoin="round" stroke-width="1.0"/>
    <path d="M400.15 174.35 Q393.0 178.2 387.9 184.25 L387.15 186.25 386.1 189.25 Q394.45 182.95 401.2 176.0 M393.9 174.25 Q389.1 179.25 387.9 184.25 M380.7 209.45 Q380.35 206.65 380.3 203.75 M419.0 215.6 L419.45 211.1" fill="none" stroke="#000000" stroke-linecap="round" stroke-linejoin="round" stroke-opacity="0.49803922" stroke-width="1.0"/>
  </g>
</svg>
