<?xml version="1.0" encoding="UTF-8" standalone="no"?>
<svg xmlns:xlink="http://www.w3.org/1999/xlink" height="82.0px" width="56.35px" xmlns="http://www.w3.org/2000/svg">
  <g transform="matrix(1.0, 0.0, 0.0, 1.0, -372.05, -165.95)">
    <path d="M386.95 190.8 Q396.6 187.35 401.15 181.35 M416.6 201.15 Q416.85 209.4 416.3 217.6 417.75 210.15 417.75 202.7 L418.9 190.2 M380.9 190.85 Q381.15 197.0 381.8 202.35 382.7 209.8 384.4 215.6 383.6 208.45 383.45 203.35 M379.7 231.0 Q380.3 227.7 380.55 223.95" fill="none" stroke="#000000" stroke-linecap="round" stroke-linejoin="round" stroke-opacity="0.5019608" stroke-width="1.0"/>
    <path d="M379.55 182.1 Q382.1 164.8 409.55 166.6 409.3 169.0 410.4 169.25 L414.05 169.0 Q421.45 173.7 422.3 201.2 421.85 224.85 427.9 235.2 L419.4 230.6 Q419.5 237.05 422.05 240.2 414.85 237.7 411.55 225.7 410.3 220.15 410.2 216.5 L414.4 208.6 Q414.85 204.4 416.6 201.15 L416.3 194.45 414.9 197.45 Q415.35 190.7 412.3 183.95 408.4 189.6 402.55 191.45 406.35 187.0 407.15 180.6 399.7 188.75 386.95 190.8 383.05 190.25 383.45 203.35 384.75 205.85 385.15 208.7 L389.2 216.1 Q389.8 220.4 388.15 227.6 382.35 242.45 372.65 247.45 377.8 241.45 379.7 231.0 L372.55 233.95 374.2 231.9 Q380.5 222.45 378.4 197.6 377.8 194.3 378.4 190.2 L379.55 182.1" fill="none" stroke="#000000" stroke-linecap="round" stroke-linejoin="round" stroke-width="1.0"/>
  </g>
</svg>
