<?xml version="1.0" encoding="UTF-8" standalone="no"?>
<svg xmlns:xlink="http://www.w3.org/1999/xlink" height="10.6px" width="30.8px" xmlns="http://www.w3.org/2000/svg">
  <g transform="matrix(1.0, 0.0, 0.0, 1.0, 17.9, 130.2)">
    <path d="M-13.9 -126.4 L-12.9 -125.55 -11.05 -127.55 -8.3 -122.05 -10.85 -122.2 Q-12.45 -122.1 -13.45 -121.25 L-14.6 -126.75 -13.9 -126.4" fill="#000000" fill-opacity="0.2" fill-rule="evenodd" stroke="none"/>
    <path d="M12.9 -123.3 L6.3 -123.3 Q-1.4 -125.85 -8.45 -124.85 L-9.4 -127.25 -4.25 -130.2 -4.75 -127.3 6.6 -127.85 5.1 -126.6 12.9 -123.3 M-15.8 -119.6 L-17.9 -120.65 Q-17.85 -122.7 -16.45 -124.05 L-14.55 -122.1 Q-15.85 -121.05 -15.8 -119.6" fill="#ffffff" fill-opacity="0.2509804" fill-rule="evenodd" stroke="none"/>
  </g>
</svg>
