<?xml version="1.0" encoding="UTF-8" standalone="no"?>
<svg xmlns:xlink="http://www.w3.org/1999/xlink" height="20.0px" width="41.6px" xmlns="http://www.w3.org/2000/svg">
  <g transform="matrix(1.0, 0.0, 0.0, 1.0, 20.85, 125.5)">
    <path d="M17.9 -122.2 L20.1 -125.5 20.75 -121.55 18.65 -109.8 18.65 -110.45 18.5 -109.65 18.65 -109.3 18.65 -109.05 18.65 -108.85 Q18.65 -107.1 18.05 -105.5 L18.4 -109.8 Q18.6 -114.85 17.6 -119.35 L17.0 -120.95 17.9 -122.2 M-18.0 -122.2 L-17.1 -120.85 -17.7 -119.35 Q-18.7 -114.85 -18.5 -109.8 L-18.15 -105.5 Q-18.75 -107.1 -18.75 -108.85 L-18.75 -109.05 -18.75 -109.3 -18.6 -109.65 -18.75 -110.45 -18.75 -109.8 -20.85 -121.55 -20.05 -125.35 -18.0 -122.2" fill="#000000" fill-opacity="0.2" fill-rule="evenodd" stroke="none"/>
  </g>
</svg>
