<?xml version="1.0" encoding="UTF-8" standalone="no"?>
<svg xmlns:xlink="http://www.w3.org/1999/xlink" height="24.75px" width="45.35px" xmlns="http://www.w3.org/2000/svg">
  <g transform="matrix(1.0, 0.0, 0.0, 1.0, 22.7, 130.25)">
    <path d="M18.05 -105.5 Q19.0 -112.95 17.6 -119.35 L17.0 -120.95 17.9 -122.2 Q20.7 -126.15 22.65 -130.25 22.45 -124.8 20.55 -120.0 L22.35 -120.65 20.9 -114.8 18.65 -109.05 Q18.65 -107.1 18.05 -105.5 M-21.0 -114.8 L-22.45 -120.65 -20.65 -120.0 Q-22.55 -124.8 -22.7 -130.25 -20.8 -126.15 -18.0 -122.2 L-17.1 -120.95 -17.7 -119.35 Q-19.1 -112.95 -18.15 -105.5 -18.75 -107.1 -18.75 -109.05 L-21.0 -114.8" fill="#000000" fill-opacity="0.2" fill-rule="evenodd" stroke="none"/>
  </g>
</svg>
