<?xml version="1.0" encoding="UTF-8" standalone="no"?>
<svg xmlns:xlink="http://www.w3.org/1999/xlink" height="26.7px" width="45.4px" xmlns="http://www.w3.org/2000/svg">
  <g transform="matrix(1.0, 0.0, 0.0, 1.0, 22.75, 132.2)">
    <path d="M-22.75 -119.7 L-21.3 -117.75 Q-21.3 -122.2 -20.3 -125.7 -19.25 -129.45 -17.1 -132.2 -18.55 -127.2 -18.0 -122.2 L-17.25 -120.55 -17.7 -119.35 Q-19.1 -112.95 -18.15 -105.5 -18.75 -107.1 -18.75 -108.85 L-18.75 -109.05 -18.75 -109.3 -18.75 -109.55 Q-22.7 -114.55 -22.75 -119.7 M17.0 -132.2 Q19.15 -129.45 20.2 -125.7 21.2 -122.2 21.2 -117.75 L22.65 -119.7 Q22.6 -114.55 18.65 -109.55 L18.65 -107.1 Q18.6 -106.25 18.05 -105.5 19.0 -112.95 17.6 -119.35 L17.2 -120.45 17.95 -122.1 17.9 -122.2 17.95 -122.2 Q18.35 -127.05 17.0 -132.2" fill="#000000" fill-opacity="0.2" fill-rule="evenodd" stroke="none"/>
  </g>
</svg>
