<?xml version="1.0" encoding="UTF-8" standalone="no"?>
<svg xmlns:xlink="http://www.w3.org/1999/xlink" height="20.35px" width="54.35px" xmlns="http://www.w3.org/2000/svg">
  <g transform="matrix(1.0, 0.0, 0.0, 1.0, 27.45, 125.85)">
    <path d="M16.95 -121.05 L17.9 -122.2 20.3 -125.85 Q23.4 -124.6 25.8 -122.05 22.95 -123.15 20.2 -122.05 25.85 -120.2 26.9 -116.2 L21.65 -116.4 Q26.4 -114.45 26.9 -111.65 24.8 -112.75 20.1 -113.5 24.95 -109.6 24.45 -107.75 22.85 -108.6 18.65 -108.65 18.65 -107.0 18.05 -105.5 19.0 -112.95 17.6 -119.35 L16.95 -121.05 M-17.7 -119.35 Q-19.1 -112.95 -18.15 -105.5 L-19.4 -110.5 Q-23.3 -109.5 -27.45 -105.95 -24.95 -113.45 -19.65 -119.5 -22.7 -119.3 -26.5 -117.25 -23.65 -121.65 -19.5 -124.45 L-18.0 -122.2 -17.05 -120.95 -17.7 -119.35" fill="#000000" fill-opacity="0.2" fill-rule="evenodd" stroke="none"/>
  </g>
</svg>
