<?xml version="1.0" encoding="UTF-8" standalone="no"?>
<svg xmlns:xlink="http://www.w3.org/1999/xlink" height="20.55px" width="34.6px" xmlns="http://www.w3.org/2000/svg">
  <g transform="matrix(1.0, 0.0, 0.0, 1.0, -380.8, -168.65)">
    <path d="M396.6 170.9 Q403.1 168.95 409.25 172.2 L407.15 173.05 Q412.7 174.3 415.4 177.9 406.75 177.3 399.95 179.7 395.0 177.95 389.15 177.8 385.9 178.05 385.1 181.15 384.6 182.9 384.9 185.7 L383.8 189.2 Q382.15 186.4 381.45 184.05 L381.45 183.95 Q379.3 177.2 384.05 174.0 L382.6 172.7 Q384.75 172.75 386.1 173.6 L387.1 174.45 Q388.8 172.35 390.6 171.0 394.0 168.4 397.7 168.65 L396.6 170.9" fill="#000000" fill-rule="evenodd" stroke="none"/>
  </g>
</svg>
