<?xml version="1.0" encoding="UTF-8" standalone="no"?>
<svg xmlns:xlink="http://www.w3.org/1999/xlink" height="46.0px" width="46.3px" xmlns="http://www.w3.org/2000/svg">
  <g transform="matrix(1.0, 0.0, 0.0, 1.0, 23.2, 136.0)">
    <path d="M-20.1 -122.25 Q-20.8 -111.8 -19.5 -101.35 -18.9 -95.55 -13.45 -90.0 -19.45 -93.25 -23.05 -98.95 -23.8 -111.5 -20.1 -122.25 M-5.0 -136.0 Q-2.55 -135.55 -0.05 -133.7 2.45 -135.55 4.9 -136.0 1.35 -131.75 -0.05 -124.8 -1.45 -131.75 -5.0 -136.0 M19.4 -101.35 Q20.7 -111.8 20.0 -122.25 23.7 -111.5 22.95 -98.95 19.35 -93.25 13.35 -90.0 18.8 -95.55 19.4 -101.35" fill="#000000" fill-opacity="0.2" fill-rule="evenodd" stroke="none"/>
    <path d="M13.8 -130.8 L9.35 -121.35 Q6.15 -122.2 2.6 -120.0 3.75 -127.85 7.4 -134.45 10.6 -135.05 13.8 -130.8 M-2.45 -120.0 Q-6.0 -122.2 -9.2 -121.35 L-13.65 -130.8 Q-10.45 -135.05 -7.25 -134.45 -3.6 -127.85 -2.45 -120.0" fill="#ffffff" fill-opacity="0.2509804" fill-rule="evenodd" stroke="none"/>
  </g>
</svg>
