<?xml version="1.0" encoding="UTF-8" standalone="no"?>
<svg xmlns:xlink="http://www.w3.org/1999/xlink" height="111.45px" width="77.3px" xmlns="http://www.w3.org/2000/svg">
  <g transform="matrix(1.0, 0.0, 0.0, 1.0, 39.85, 133.2)">
    <path d="M10.7 -129.65 L8.95 -131.25 7.55 -132.5 Q18.6 -129.45 22.9 -110.05 L23.25 -107.6 21.35 -111.25 19.85 -114.35 19.1 -115.75 Q17.95 -117.55 17.55 -119.7 L17.2 -120.6 16.7 -121.45 Q14.85 -124.8 12.35 -127.8 L10.7 -129.65 M-9.45 -129.2 L-10.25 -128.35 -14.75 -123.25 Q-17.05 -120.25 -18.7 -116.75 L-19.0 -116.2 Q-20.6 -113.9 -21.65 -111.2 L-23.4 -107.3 Q-21.9 -113.55 -19.75 -119.55 -14.2 -132.05 -4.85 -133.1 -7.5 -131.35 -9.45 -129.2" fill="#ffffff" fill-opacity="0.2509804" fill-rule="evenodd" stroke="none"/>
    <path d="M2.25 -133.0 L2.6 -131.45 3.15 -128.4 3.25 -127.55 Q3.5 -125.75 4.45 -124.2 L5.0 -123.15 5.2 -122.95 Q5.6 -122.65 6.15 -122.45 8.5 -121.45 9.8 -119.75 L10.3 -119.1 13.25 -115.35 14.6 -113.25 16.2 -109.9 17.8 -104.8 17.9 -104.05 Q18.1 -98.2 17.3 -92.55 16.85 -89.25 16.05 -86.15 L15.4 -84.15 15.15 -83.05 14.45 -80.35 Q12.9 -89.85 13.75 -99.35 15.3 -116.3 2.05 -120.7 L0.35 -128.8 -1.1 -120.85 Q-12.6 -119.0 -14.9 -109.9 -17.75 -97.1 -17.2 -81.15 -18.0 -82.7 -17.95 -84.7 L-18.05 -86.95 Q-18.35 -89.5 -18.15 -92.3 -17.75 -97.95 -17.85 -103.75 L-17.65 -107.1 Q-17.5 -108.65 -16.85 -109.7 -16.5 -110.2 -16.4 -110.8 -16.25 -111.9 -15.4 -112.7 -14.55 -113.6 -14.15 -114.6 L-13.85 -115.3 -13.6 -115.7 -12.1 -117.8 -11.75 -118.25 Q-9.5 -121.0 -6.75 -123.05 L-5.85 -123.5 Q-4.5 -123.85 -4.45 -125.05 L-4.15 -127.55 -3.85 -128.3 -3.55 -128.75 -3.35 -129.25 -2.85 -131.2 -2.1 -133.2 0.5 -132.85 2.25 -133.0 M33.1 -49.55 L32.9 -44.7 32.65 -41.6 32.45 -40.5 30.85 -34.0 30.75 -32.95 Q31.25 -34.4 32.35 -35.55 33.45 -36.6 34.15 -38.0 L36.6 -42.25 36.95 -42.85 Q38.7 -37.2 34.6 -32.3 27.3 -24.35 9.45 -21.75 13.0 -24.9 14.2 -28.65 L15.1 -29.55 18.15 -32.95 Q21.55 -37.35 23.25 -42.75 L25.15 -48.35 25.15 -47.2 Q25.1 -41.15 24.05 -35.45 L23.35 -32.9 22.6 -31.0 Q21.85 -29.05 21.55 -27.05 L22.05 -27.65 Q24.55 -30.8 26.05 -34.55 L28.85 -41.05 31.15 -46.3 32.35 -49.8 32.45 -50.25 33.1 -49.55 M-17.85 -30.6 L-16.25 -27.85 Q-14.95 -24.55 -11.8 -21.75 -29.65 -24.35 -36.95 -32.3 -42.2 -38.5 -37.95 -45.95 L-37.65 -45.0 -37.1 -43.55 -36.55 -42.25 -35.95 -40.75 -35.1 -38.9 -34.3 -37.35 -33.5 -35.4 Q-32.8 -32.85 -30.8 -31.55 -31.5 -34.85 -33.05 -37.7 L-33.2 -38.25 -33.55 -43.6 Q-33.6 -45.9 -32.95 -48.0 L-32.7 -49.2 Q-32.45 -50.9 -31.1 -51.7 -30.7 -48.75 -30.45 -45.55 L-30.4 -44.15 Q-30.4 -42.7 -30.0 -41.35 -28.05 -35.05 -24.15 -29.85 L-23.45 -29.15 Q-22.7 -28.65 -22.3 -27.95 -21.8 -27.05 -20.75 -27.05 L-21.45 -28.8 -21.65 -29.25 -22.0 -29.9 Q-22.9 -31.75 -23.35 -33.75 L-23.45 -34.35 -23.75 -36.3 -23.9 -36.8 -24.55 -39.65 Q-24.85 -42.1 -24.45 -44.4 L-24.2 -45.75 -23.8 -46.95 -22.95 -48.05 Q-22.75 -44.65 -22.2 -41.35 L-22.0 -40.6 Q-21.6 -39.75 -21.5 -38.25 -21.45 -37.25 -20.9 -36.35 L-19.95 -34.35 Q-19.5 -32.85 -18.45 -31.6 L-17.85 -30.6" fill="#000000" fill-opacity="0.2" fill-rule="evenodd" stroke="none"/>
  </g>
</svg>
