<?xml version="1.0" encoding="UTF-8" standalone="no"?>
<svg xmlns:xlink="http://www.w3.org/1999/xlink" height="61.35px" width="48.4px" xmlns="http://www.w3.org/2000/svg">
  <g transform="matrix(1.0, 0.0, 0.0, 1.0, 23.6, 132.25)">
    <path d="M5.7 -120.9 L4.7 -120.25 Q-5.05 -114.1 -13.9 -110.75 L-12.85 -113.75 -12.1 -115.75 -8.25 -119.7 -0.7 -122.05 -4.9 -118.15 6.8 -121.6 5.7 -120.9 M8.15 -132.25 Q8.45 -129.35 12.3 -130.0 L6.3 -124.25 8.15 -132.25 M24.8 -70.9 Q20.0 -70.5 19.0 -84.4 L19.45 -88.9 18.95 -104.75 21.05 -110.75 Q21.85 -101.5 21.05 -87.8 20.2 -73.65 24.8 -70.9 M-23.6 -79.25 Q-19.7 -92.25 -21.7 -110.95 L-21.65 -111.75 -19.7 -106.6 -19.7 -96.25 -19.7 -95.8 -19.65 -95.35 -19.3 -90.55 Q-20.65 -83.45 -23.6 -79.25" fill="#000000" fill-opacity="0.2" fill-rule="evenodd" stroke="none"/>
  </g>
</svg>
