<?xml version="1.0" encoding="UTF-8" standalone="no"?>
<svg xmlns:xlink="http://www.w3.org/1999/xlink" height="28.0px" width="45.5px" xmlns="http://www.w3.org/2000/svg">
  <g transform="matrix(1.0, 0.0, 0.0, 1.0, -377.2, -166.5)">
    <path d="M404.25 167.6 Q407.8 166.15 409.7 168.4 414.15 166.85 414.9 170.35 418.1 170.1 418.45 173.15 421.55 174.4 421.35 177.95 423.35 180.0 422.4 183.7 L422.4 185.25 418.65 190.95 418.65 191.15 Q418.65 192.9 418.05 194.5 419.0 187.05 417.6 180.65 414.25 170.2 399.95 169.6 385.65 170.2 382.3 180.65 380.9 187.05 381.85 194.5 381.25 192.9 381.25 191.15 L381.25 190.95 377.5 185.25 377.5 183.7 Q376.55 180.0 378.55 177.95 378.35 174.4 381.45 173.15 381.8 170.1 385.0 170.35 385.75 166.85 390.2 168.4 392.1 166.15 395.65 167.6 398.0 165.45 399.95 167.45 401.9 165.45 404.25 167.6" fill="#000000" fill-rule="evenodd" stroke="none"/>
  </g>
</svg>
