<?xml version="1.0" encoding="UTF-8" standalone="no"?>
<svg xmlns:xlink="http://www.w3.org/1999/xlink" height="30.95px" width="45.4px" xmlns="http://www.w3.org/2000/svg">
  <g transform="matrix(1.0, 0.0, 0.0, 1.0, -377.25, -163.55)">
    <path d="M391.5 171.15 Q384.5 173.75 382.3 180.65 380.9 187.05 381.85 194.5 381.25 192.9 381.25 191.15 L381.25 190.95 379.0 185.2 377.55 179.35 379.35 180.0 Q377.3 174.85 377.25 168.9 L379.65 171.2 Q378.0 167.4 378.35 163.55 382.65 168.75 387.1 169.9 392.4 167.1 399.95 167.3 407.5 167.1 412.8 169.9 417.25 168.75 421.55 163.55 421.9 167.4 420.25 171.2 L422.65 168.9 Q422.6 174.85 420.55 180.0 L422.35 179.35 420.9 185.2 418.65 190.95 418.65 191.15 Q418.65 192.9 418.05 194.5 419.0 187.05 417.6 180.65 415.4 173.75 408.4 171.15 404.8 169.8 399.95 169.6 395.1 169.8 391.5 171.15" fill="#000000" fill-rule="evenodd" stroke="none"/>
  </g>
</svg>
