<?xml version="1.0" encoding="UTF-8" standalone="no"?>
<svg xmlns:xlink="http://www.w3.org/1999/xlink" height="108.05px" width="73.75px" xmlns="http://www.w3.org/2000/svg">
  <g transform="matrix(1.0, 0.0, 0.0, 1.0, -366.8, -163.0)">
    <path d="M390.65 165.7 L394.05 164.7 Q407.95 160.0 414.6 168.35 416.45 168.95 417.95 169.75 424.35 173.2 424.4 180.5 L428.25 184.25 Q436.85 193.8 432.35 201.9 L432.05 202.45 Q430.5 206.85 432.25 209.9 L432.5 210.75 Q434.85 217.55 440.55 217.6 439.5 221.0 434.4 223.75 430.05 226.65 431.85 229.5 437.5 237.85 434.85 241.0 434.15 241.8 432.9 242.25 429.6 244.1 431.0 245.9 433.55 248.35 431.4 251.65 429.45 255.15 423.95 257.15 L422.7 258.15 Q420.25 260.85 426.95 264.6 L425.65 264.9 Q418.55 265.8 412.7 254.6 410.15 245.95 413.95 240.55 416.75 237.25 413.95 233.3 411.45 228.95 413.95 224.8 416.6 220.8 413.95 218.65 415.55 213.7 415.7 208.8 L415.5 204.05 415.15 201.85 Q413.7 196.85 414.5 191.4 412.5 187.85 407.9 185.25 L406.0 182.4 398.1 181.15 Q391.9 180.4 387.85 184.0 L384.5 190.0 Q382.45 191.7 382.45 199.5 L382.6 204.05 382.6 204.45 Q382.75 210.85 385.15 216.6 387.0 219.5 386.85 222.4 386.75 223.8 386.25 225.15 L386.15 226.45 Q385.8 230.85 387.05 234.55 389.75 238.2 388.0 243.25 387.15 246.25 388.6 249.0 386.1 251.1 387.85 253.75 389.45 258.2 383.25 262.65 378.55 265.95 382.25 271.05 371.75 269.95 374.65 263.3 376.35 258.6 373.4 255.5 L373.05 255.15 371.2 253.05 Q369.15 249.9 371.8 247.55 375.35 244.8 372.75 242.0 369.15 240.35 367.2 244.05 366.5 240.5 369.25 238.2 374.95 235.5 373.55 229.2 L373.3 228.3 Q370.9 223.05 371.1 214.7 L371.1 214.6 371.1 214.15 371.0 213.6 Q370.8 211.0 369.8 208.8 368.9 206.75 367.35 205.05 L368.9 203.1 Q370.7 200.15 370.2 196.3 366.7 193.8 366.8 188.65 366.8 186.35 367.4 184.85 368.15 182.85 369.9 182.1 369.25 185.95 372.35 185.8 373.95 185.95 375.0 184.9 376.3 183.5 376.7 180.1 378.35 169.95 390.65 165.7" fill="#000000" fill-rule="evenodd" stroke="none"/>
  </g>
</svg>
