<?xml version="1.0" encoding="UTF-8" standalone="no"?>
<svg xmlns:xlink="http://www.w3.org/1999/xlink" height="40.65px" width="38.65px" xmlns="http://www.w3.org/2000/svg">
  <g transform="matrix(1.0, 0.0, 0.0, 1.0, -381.35, -202.35)">
    <path d="M415.4 216.45 Q419.5 220.2 419.5 227.25 419.5 231.8 417.6 235.35 415.8 238.95 412.4 240.7 409.1 242.5 405.0 242.5 401.5 242.5 398.3 241.15 396.4 240.25 395.05 237.8 L395.05 241.85 381.85 241.85 381.85 202.85 395.95 202.85 395.95 215.9 Q396.8 214.35 399.35 213.5 401.9 212.65 404.95 212.65 411.25 212.65 415.4 216.45 M401.05 221.55 Q398.75 221.55 397.35 223.0 395.85 224.45 395.85 227.55 395.85 230.95 397.25 232.3 398.7 233.75 400.85 233.75 402.8 233.75 404.15 232.35 405.5 230.95 405.5 227.4 405.5 224.3 404.2 222.95 402.85 221.55 401.05 221.55" fill="none" stroke="#000000" stroke-linecap="round" stroke-linejoin="round" stroke-opacity="0.5019608" stroke-width="1.0"/>
  </g>
</svg>
