<?xml version="1.0" encoding="UTF-8" standalone="no"?>
<svg xmlns:xlink="http://www.w3.org/1999/xlink" height="41.35px" width="39.9px" xmlns="http://www.w3.org/2000/svg">
  <g transform="matrix(1.0, 0.0, 0.0, 1.0, -379.75, -201.65)">
    <path d="M417.85 224.45 Q419.15 226.6 419.15 229.3 419.15 232.75 417.0 235.95 414.8 239.1 410.7 240.8 406.7 242.5 400.15 242.5 393.75 242.5 390.05 241.25 386.35 240.05 383.95 237.55 381.55 235.15 380.25 230.85 L394.1 229.35 Q394.85 232.9 396.3 234.0 397.65 235.05 399.8 235.05 402.1 235.05 403.65 233.65 405.15 232.3 405.15 229.9 405.15 227.4 403.7 226.2 402.2 224.8 399.65 224.8 L395.0 225.4 395.65 216.85 397.9 216.95 Q400.15 216.95 401.6 215.8 403.05 214.6 403.05 213.05 403.05 211.55 402.0 210.65 400.95 209.75 399.0 209.75 397.05 209.75 395.85 210.7 394.6 211.7 394.1 214.8 L380.9 212.95 Q382.45 207.45 386.95 204.8 391.35 202.15 399.3 202.15 408.45 202.15 412.65 205.05 416.85 208.0 416.85 212.4 416.85 215.05 415.15 217.15 413.4 219.25 410.4 220.2 412.6 220.4 414.1 221.2 416.5 222.4 417.85 224.45 Z" fill="none" stroke="#000000" stroke-linecap="round" stroke-linejoin="round" stroke-opacity="0.5019608" stroke-width="1.0"/>
  </g>
</svg>
