<?xml version="1.0" encoding="UTF-8" standalone="no"?>
<svg xmlns:xlink="http://www.w3.org/1999/xlink" height="54.75px" width="52.15px" xmlns="http://www.w3.org/2000/svg">
  <g transform="matrix(1.0, 0.0, 0.0, 1.0, -374.65, -198.4)">
    <path d="M410.05 200.6 Q406.35 202.2 402.45 204.75 L395.3 209.85 389.85 214.55 384.7 219.95 Q382.2 222.95 380.0 226.4 377.85 229.85 376.55 233.45 375.25 237.1 375.15 240.7 375.25 244.4 376.8 247.05 378.4 249.8 381.15 251.2 383.95 252.6 387.6 252.65 390.65 252.65 395.1 251.15 399.3 249.8 404.2 246.8 416.05 239.05 426.3 223.4 418.05 232.05 414.55 234.75 L406.9 240.1 Q402.85 242.65 398.9 244.3 394.95 246.0 391.8 246.1 388.3 246.0 386.6 244.15 384.9 242.25 384.9 238.75 385.0 236.2 385.95 233.2 386.95 230.15 388.75 227.05 390.5 223.9 392.8 221.25 398.25 214.95 402.4 211.35 406.5 207.8 409.35 206.15 412.3 204.55 413.85 204.1 L415.9 203.65 417.2 203.75 Q417.65 204.1 417.65 204.95 417.65 206.05 416.35 208.2 L412.8 213.0 407.3 218.4 407.15 218.25 407.2 217.1 Q407.0 216.75 406.5 216.75 406.1 216.85 405.45 217.3 L404.1 218.45 403.2 219.3 398.35 223.5 Q397.25 224.45 396.3 225.75 395.3 227.1 395.25 228.6 395.3 230.15 396.35 231.0 397.4 231.9 398.9 231.7 401.45 231.3 404.6 229.3 407.85 227.3 411.2 224.3 L417.35 217.85 Q420.15 214.4 421.75 211.1 423.45 207.75 423.4 205.05 423.2 202.0 421.45 200.45 419.7 198.9 416.75 198.9 413.75 198.95 410.05 200.6 Z" fill="none" stroke="#000000" stroke-linecap="round" stroke-linejoin="round" stroke-opacity="0.5019608" stroke-width="1.0"/>
  </g>
</svg>
