<?xml version="1.0" encoding="UTF-8" standalone="no"?>
<svg xmlns:xlink="http://www.w3.org/1999/xlink" height="67.5px" width="54.75px" xmlns="http://www.w3.org/2000/svg">
  <g transform="matrix(1.0, 0.0, 0.0, 1.0, -372.5, -195.9)">
    <path d="M417.1 199.45 Q413.2 202.4 410.2 202.55 407.3 202.6 403.3 200.05 L399.95 197.45 396.55 200.05 Q392.45 202.6 389.55 202.55 386.55 202.4 382.7 199.45 L379.4 196.4 373.0 203.85 373.55 209.75 Q374.5 217.1 376.65 224.55 383.55 248.15 399.85 262.7 L399.85 262.9 399.95 262.85 399.95 262.7 Q416.25 248.15 423.15 224.55 425.3 217.2 426.25 209.75 L426.75 203.85 420.35 196.4 417.1 199.45 Z" fill="none" stroke="#000000" stroke-linecap="round" stroke-linejoin="round" stroke-opacity="0.5019608" stroke-width="1.0"/>
  </g>
</svg>
