<?xml version="1.0" encoding="UTF-8" standalone="no"?>
<svg xmlns:xlink="http://www.w3.org/1999/xlink" height="124.25px" width="129.4px" xmlns="http://www.w3.org/2000/svg">
  <g transform="matrix(1.0, 0.0, 0.0, 1.0, -335.2, -235.7)">
    <path d="M445.15 243.1 L447.45 262.1 458.3 295.8 Q466.0 308.8 463.45 327.6 L461.2 359.45 457.6 359.15 457.7 358.8 458.85 327.95 458.8 327.2 Q459.3 312.95 456.2 302.45 L456.15 302.35 442.7 262.55 439.75 240.95 M433.15 238.25 L437.05 263.7 450.35 302.55 450.35 302.6 Q453.6 314.85 453.6 327.05 M432.55 271.2 L431.1 268.35 Q432.2 266.35 432.6 264.05 L432.7 263.7 432.85 261.4 432.85 261.15 432.85 260.5 Q432.7 255.3 429.25 251.35 L428.0 236.2 M371.8 236.2 L370.55 251.35 Q367.1 255.3 366.95 260.5 L366.95 261.15 366.95 261.4 367.1 263.7 367.2 264.05 Q367.6 266.3 368.75 268.3 L367.25 271.2 M346.2 327.05 Q346.2 314.85 349.45 302.6 L349.5 302.55 362.75 263.7 366.65 238.25 M360.05 240.95 L357.1 262.55 343.65 302.35 343.6 302.45 Q340.5 312.95 341.0 327.2 L340.95 327.95 342.1 358.8 342.25 359.15 338.65 359.45 338.5 358.6 336.35 327.6 Q333.8 308.8 341.5 295.8 L352.35 262.1 354.65 243.1 M351.95 299.15 L349.5 302.55 M450.35 302.55 Q449.0 301.0 447.85 299.15 M343.65 302.35 Q342.8 299.0 341.5 295.8 M458.3 295.8 Q457.0 299.0 456.15 302.35" fill="none" stroke="#000000" stroke-linecap="round" stroke-linejoin="round" stroke-opacity="0.5019608" stroke-width="1.0"/>
    <path d="M439.75 240.95 L445.15 243.1 M428.0 236.2 L433.15 238.25 M453.6 327.05 L444.55 312.1 Q445.55 304.95 447.85 299.15 L447.4 298.4 432.55 271.2 M366.65 238.25 L371.8 236.2 M367.25 271.2 L352.4 298.4 351.95 299.15 Q354.25 304.95 355.25 312.1 L346.2 327.05 M354.65 243.1 L360.05 240.95" fill="none" stroke="#000000" stroke-linecap="round" stroke-linejoin="round" stroke-width="1.0"/>
  </g>
</svg>
