<?xml version="1.0" encoding="UTF-8" standalone="no"?>
<svg xmlns:xlink="http://www.w3.org/1999/xlink" height="125.35px" width="138.4px" xmlns="http://www.w3.org/2000/svg">
  <g transform="matrix(1.0, 0.0, 0.0, 1.0, -330.7, -234.6)">
    <path d="M425.35 235.1 L445.15 243.1 Q449.3 251.5 450.15 261.45 457.75 277.9 461.7 295.95 472.05 308.45 466.85 327.5 L464.4 358.95 M374.45 235.1 L354.65 243.1 Q350.5 251.5 349.65 261.45 342.05 277.9 338.1 295.95 327.75 308.45 332.95 327.5 L335.4 358.95" fill="none" stroke="#000000" stroke-linecap="round" stroke-linejoin="round" stroke-width="1.0"/>
    <path d="M464.4 358.95 L457.6 359.15 457.7 358.8 458.8 327.2 Q459.3 312.95 456.2 302.45 L456.15 302.35 442.7 262.55 441.4 252.95 Q436.65 256.15 432.85 259.95 432.5 255.1 429.25 251.35 M461.7 295.95 L459.05 294.0 Q457.25 298.1 456.15 302.35 M338.1 295.95 L340.75 294.0 Q342.55 298.1 343.65 302.35 L357.1 262.55 358.4 252.95 Q363.15 256.15 367.0 259.95 367.3 255.1 370.55 251.4 M335.4 358.95 L342.25 359.15 342.1 358.8 341.0 327.2 Q340.5 312.95 343.6 302.45 L343.65 302.35" fill="none" stroke="#000000" stroke-linecap="round" stroke-linejoin="round" stroke-opacity="0.5019608" stroke-width="1.0"/>
  </g>
</svg>
