<?xml version="1.0" encoding="UTF-8" standalone="no"?>
<svg xmlns:xlink="http://www.w3.org/1999/xlink" height="37.0px" width="71.75px" xmlns="http://www.w3.org/2000/svg">
  <g transform="matrix(1.0, 0.0, 0.0, 1.0, -364.0, -237.65)">
    <path d="M431.35 274.15 L429.35 270.7 431.05 268.4 Q431.85 266.95 432.3 265.35 L432.55 264.1 432.65 263.75 432.8 261.45 432.8 261.2 432.8 260.55 Q432.65 256.05 430.05 252.5 L429.2 251.4 428.25 250.45 Q429.4 244.7 432.05 239.75 L432.9 238.2 M435.25 239.15 L433.7 241.9 Q431.2 246.8 430.05 252.5 M431.05 268.4 L432.5 271.25 M367.2 271.25 L367.25 271.2 368.7 268.35 Q367.85 266.9 367.45 265.35 L367.15 264.1 367.05 263.75 Q366.9 262.6 366.9 261.45 L366.9 261.2 366.9 260.55 Q367.05 256.05 369.65 252.5 368.55 246.85 366.1 242.0 L364.5 239.15 M366.85 238.2 L367.75 239.85 Q370.3 244.75 371.45 250.4 L370.5 251.4 369.65 252.5 M368.7 268.35 L368.75 268.45 370.35 270.7 368.4 274.15" fill="none" stroke="#000000" stroke-linecap="round" stroke-linejoin="round" stroke-opacity="0.5019608" stroke-width="1.0"/>
    <path d="M432.9 238.2 Q434.55 238.1 435.25 239.15 M432.5 271.25 Q433.5 273.25 431.35 274.15 M364.5 239.15 Q365.0 237.85 366.85 238.2 M368.4 274.15 Q366.7 273.25 367.2 271.25" fill="none" stroke="#000000" stroke-linecap="round" stroke-linejoin="round" stroke-width="1.0"/>
  </g>
</svg>
