<?xml version="1.0" encoding="UTF-8" standalone="no"?>
<svg xmlns:xlink="http://www.w3.org/1999/xlink" height="105.9px" width="65.9px" xmlns="http://www.w3.org/2000/svg">
  <g transform="matrix(1.0, 0.0, 0.0, 1.0, -366.95, -206.4)">
    <path d="M425.35 235.1 L429.25 251.35 Q432.7 255.3 432.85 260.5 L432.85 261.15 432.85 261.4 432.7 263.7 432.6 264.05 Q432.2 266.35 431.1 268.35 L432.55 271.2 432.55 271.25 Q429.4 279.9 423.35 285.05 418.55 296.95 419.65 308.45 413.75 310.85 407.9 311.75 L399.9 312.3 391.9 311.75 Q386.0 310.85 380.15 308.45 381.25 296.95 376.45 285.05 370.4 279.9 367.25 271.25 L367.25 271.2 368.75 268.3 Q367.6 266.3 367.2 264.05 L367.1 263.7 366.95 261.4 366.95 261.15 366.95 260.5 Q367.1 255.3 370.55 251.35 L374.5 235.1 387.9 229.65 Q389.4 222.25 389.6 214.4 390.8 206.95 399.9 206.4 409.0 206.95 410.2 214.4 410.4 222.25 411.9 229.65 L425.35 235.1" fill="#000000" fill-rule="evenodd" stroke="none"/>
  </g>
</svg>
