<?xml version="1.0" encoding="UTF-8" standalone="no"?>
<svg xmlns:xlink="http://www.w3.org/1999/xlink" height="77.05px" width="136.5px" xmlns="http://www.w3.org/2000/svg">
  <g transform="matrix(1.0, 0.0, 0.0, 1.0, -331.65, -235.1)">
    <path d="M445.15 243.1 Q449.3 251.5 450.15 261.45 457.75 277.9 461.7 295.95 466.8 302.15 468.15 309.9 L444.55 312.1 Q445.55 304.95 447.85 299.15 L447.4 298.4 432.55 271.2 431.1 268.35 Q432.2 266.35 432.6 264.05 L432.7 263.7 432.85 261.4 432.85 261.15 432.85 260.5 Q432.7 255.3 429.25 251.35 L425.35 235.1 445.15 243.1 M338.1 295.95 Q342.05 277.9 349.65 261.45 350.5 251.5 354.65 243.1 L374.45 235.1 370.55 251.4 Q367.1 255.3 366.95 260.5 L366.95 261.15 366.95 261.4 367.1 263.7 367.2 264.05 Q367.6 266.3 368.75 268.3 L367.25 271.2 352.4 298.4 351.95 299.15 Q354.25 304.95 355.25 312.1 L355.25 312.15 331.65 309.95 Q332.95 302.15 338.1 295.95" fill="#000000" fill-rule="evenodd" stroke="none"/>
  </g>
</svg>
