<?xml version="1.0" encoding="UTF-8" standalone="no"?>
<svg xmlns:xlink="http://www.w3.org/1999/xlink" height="41.9px" width="65.9px" xmlns="http://www.w3.org/2000/svg">
  <g transform="matrix(1.0, 0.0, 0.0, 1.0, -366.95, -234.3)">
    <path d="M423.35 234.3 L425.3 235.1 429.25 251.35 Q432.7 255.3 432.85 260.5 L432.85 261.15 432.85 261.4 432.7 263.7 432.6 264.05 Q432.2 266.35 431.1 268.35 L432.55 271.25 431.2 274.5 427.05 272.95 Q423.0 276.2 417.55 276.2 411.6 276.2 407.3 272.3 400.2 269.65 392.55 272.3 388.2 276.2 382.25 276.2 376.8 276.2 372.8 272.95 L368.6 274.45 367.25 271.2 368.75 268.3 Q367.6 266.3 367.2 264.05 L367.1 263.7 366.95 261.4 366.95 261.15 366.95 260.5 Q367.1 255.3 370.55 251.35 L374.5 235.1 376.5 234.3 Q375.9 237.5 375.6 240.6 375.15 244.95 375.25 249.2 390.8 255.95 397.5 263.2 L402.3 263.2 Q409.0 255.95 424.55 249.2 424.65 244.95 424.2 240.6 L423.35 234.3" fill="#000000" fill-rule="evenodd" stroke="none"/>
  </g>
</svg>
