<?xml version="1.0" encoding="UTF-8" standalone="no"?>
<svg xmlns:xlink="http://www.w3.org/1999/xlink" height="49.1px" width="65.3px" xmlns="http://www.w3.org/2000/svg">
  <g transform="matrix(1.0, 0.0, 0.0, 1.0, -367.25, -263.2)">
    <path d="M432.55 271.2 Q429.4 279.9 423.35 285.05 418.55 296.95 419.65 308.45 413.75 310.85 407.9 311.75 L399.9 312.3 391.9 311.75 Q386.0 310.85 380.15 308.45 381.25 296.95 376.45 285.05 370.4 279.9 367.25 271.2 L368.75 268.3 368.8 268.4 Q369.8 270.15 371.4 271.7 375.85 276.2 382.25 276.2 388.2 276.2 392.55 272.3 L393.15 271.7 Q396.85 268.1 397.5 263.2 L402.3 263.2 Q402.95 268.1 406.65 271.7 L407.3 272.3 Q411.6 276.2 417.55 276.2 423.95 276.2 428.4 271.7 430.05 270.15 431.1 268.35 L432.55 271.2" fill="#000000" fill-rule="evenodd" stroke="none"/>
  </g>
</svg>
