<?xml version="1.0" encoding="UTF-8" standalone="no"?>
<svg xmlns:xlink="http://www.w3.org/1999/xlink" height="600.0px" width="799.9px" xmlns="http://www.w3.org/2000/svg">
  <g transform="matrix(1.0, 0.0, 0.0, 1.0, 0.15, 0.0)">
    <path d="M799.75 0.1 Q628.0 60.8 515.95 160.15 486.85 146.05 439.4 139.1 434.85 137.15 429.3 135.5 L424.15 134.1 424.2 132.4 424.2 132.1 424.2 131.8 Q424.15 120.35 423.2 115.0 506.0 46.1 614.8 0.0 L799.75 0.0 799.75 0.1 799.75 600.0 -0.15 600.0 -0.15 0.0 185.0 0.0 Q293.8 46.1 376.6 115.0 375.65 120.35 375.6 131.8 L375.6 132.1 375.6 132.4 375.65 134.1 370.5 135.5 Q364.95 137.15 360.4 139.1 312.95 146.05 283.85 160.15 171.75 60.75 -0.15 0.0 136.95 77.3 227.2 194.8 212.7 218.1 218.15 255.3 219.3 263.5 221.55 272.4 204.0 295.55 208.4 323.75 L213.7 371.7 218.2 374.65 228.9 415.55 267.1 434.15 271.05 438.65 Q278.6 443.65 284.4 440.15 289.45 437.05 293.1 427.6 295.1 428.95 297.2 429.4 300.4 430.05 303.55 428.55 L304.55 428.0 305.15 427.6 298.2 403.45 302.1 394.5 294.1 373.45 271.05 361.4 Q269.25 356.6 270.8 350.55 276.9 338.85 287.65 329.25 305.75 312.95 297.7 292.75 296.45 289.7 294.7 286.65 L297.5 282.65 Q305.7 293.65 318.45 298.8 L329.0 318.0 329.0 347.95 321.6 370.05 Q314.1 391.5 310.65 409.4 307.9 427.95 308.2 438.7 308.5 449.35 309.05 452.5 L300.7 463.1 Q294.85 470.45 297.2 478.9 304.25 496.25 306.45 513.05 L302.55 515.65 302.55 519.35 271.35 545.8 Q265.9 552.0 269.5 558.75 L274.85 564.65 314.2 564.65 323.15 559.55 Q331.8 553.2 333.45 545.7 335.25 537.65 341.55 530.95 344.85 527.1 343.75 522.05 L342.55 519.25 457.25 519.25 456.05 522.05 Q454.95 527.1 458.25 530.95 464.55 537.65 466.35 545.7 468.0 553.2 476.65 559.55 L485.6 564.65 524.95 564.65 530.3 558.75 Q533.9 552.0 528.45 545.8 L497.25 519.35 497.25 515.65 493.35 513.05 Q495.55 496.25 502.6 478.9 504.95 470.45 499.1 463.1 L490.75 452.5 Q491.3 449.35 491.6 438.7 491.9 427.95 489.15 409.4 485.7 391.5 478.2 370.05 L470.8 347.95 470.8 318.0 481.35 298.8 Q494.1 293.65 502.3 282.65 L505.1 286.65 Q503.35 289.7 502.1 292.75 494.05 312.95 512.15 329.25 522.9 338.85 529.0 350.55 530.55 356.6 528.75 361.4 L505.7 373.45 497.7 394.5 501.6 403.45 494.65 427.6 495.25 428.0 496.25 428.55 Q499.4 430.05 502.6 429.4 504.7 428.95 506.7 427.6 510.35 437.05 515.4 440.15 521.2 443.65 528.75 438.65 L532.7 434.15 570.9 415.55 581.6 374.65 586.1 371.7 591.4 323.75 Q595.8 295.55 578.25 272.4 580.5 263.5 581.65 255.3 587.1 218.1 572.6 194.8 662.8 77.4 799.75 0.1" fill="#000000" fill-opacity="0.2" fill-rule="evenodd" stroke="none"/>
    <path d="M526.25 167.95 Q520.3 176.9 509.9 184.55 484.55 167.4 437.0 154.6 L418.45 165.25 408.3 186.9 413.8 164.85 407.55 171.05 415.8 157.4 419.05 141.2 417.15 135.15 419.05 121.05 423.2 115.0 Q424.15 120.35 424.2 131.8 L424.2 132.1 424.2 132.4 424.15 134.1 429.3 135.5 435.0 137.4 Q437.3 138.2 439.4 139.1 486.85 146.05 515.95 160.15 522.55 164.05 526.25 167.95 M380.75 121.05 L382.65 135.15 380.75 141.2 384.0 157.4 392.25 171.05 386.0 164.85 391.5 186.9 381.35 165.25 362.8 154.6 Q315.25 167.4 289.9 184.55 279.5 176.9 273.55 167.95 277.25 164.05 283.85 160.15 312.95 146.05 360.4 139.1 363.05 137.95 366.0 136.95 L370.5 135.5 375.65 134.1 375.6 132.4 375.6 132.1 375.6 131.8 Q375.65 120.35 376.6 115.0 L380.75 121.05 M419.5 273.0 Q437.8 275.25 450.8 282.3 L450.8 289.5 441.35 308.15 436.4 334.6 420.2 352.75 431.9 332.85 433.45 309.15 411.0 306.4 436.2 303.9 444.45 286.15 Q436.45 278.8 419.5 273.0 M485.1 260.3 Q481.05 260.2 476.5 258.25 449.4 245.55 414.05 246.2 401.15 247.6 399.9 240.55 398.65 247.6 385.75 246.2 350.4 245.55 323.3 258.25 318.75 260.2 314.7 260.3 316.75 276.95 330.3 288.4 L337.4 317.85 337.4 350.55 Q335.75 355.2 334.25 359.8 318.35 407.65 316.25 449.25 L316.15 451.6 325.4 457.45 339.45 451.35 342.7 440.15 343.2 454.55 337.1 463.0 313.8 468.4 Q303.9 487.6 306.45 513.05 304.25 496.25 297.2 478.9 294.85 470.45 300.7 463.1 L309.05 452.5 Q308.5 449.35 308.2 438.7 307.9 427.95 310.65 409.4 314.1 391.5 321.6 370.05 L329.0 347.95 329.0 318.0 318.45 298.8 Q305.7 293.65 297.5 282.65 L294.7 286.65 Q288.55 294.6 279.45 302.6 263.65 281.7 238.55 269.55 225.5 297.25 227.2 323.75 228.95 351.55 237.95 376.9 L250.9 416.65 255.1 417.6 Q263.65 418.9 270.3 416.95 L284.45 440.15 284.4 440.15 Q278.6 443.65 271.05 438.65 L267.1 434.15 228.9 415.55 218.2 374.65 213.7 371.7 208.4 323.75 Q204.0 295.55 221.55 272.4 219.3 263.5 218.15 255.3 212.7 218.1 227.2 194.8 227.2 218.65 235.7 240.4 258.3 242.35 280.9 235.6 265.8 249.0 241.55 253.3 239.45 258.4 238.85 263.55 259.6 271.4 280.95 287.95 292.95 283.1 303.3 272.4 306.3 265.6 307.25 258.75 L305.8 257.9 Q290.25 247.0 284.2 232.45 304.95 244.85 326.85 241.3 362.85 230.7 399.9 231.3 436.95 230.7 472.95 241.3 494.85 244.85 515.6 232.45 509.55 247.0 494.0 257.9 L492.55 258.75 Q493.5 265.6 496.55 272.4 506.85 283.1 518.85 287.95 540.2 271.4 560.95 263.55 560.35 258.4 558.25 253.3 534.0 249.0 518.9 235.6 541.5 242.35 564.1 240.4 572.6 218.65 572.65 194.8 587.1 218.1 581.65 255.3 580.5 263.5 578.25 272.4 595.8 295.55 591.4 323.75 L586.1 371.7 581.6 374.65 570.9 415.55 532.7 434.15 528.75 438.65 Q521.2 443.65 515.4 440.15 L529.5 416.95 Q536.15 418.9 544.7 417.6 L548.9 416.65 561.85 376.9 Q570.85 351.55 572.6 323.75 574.3 297.25 561.25 269.55 536.15 281.7 520.35 302.6 511.25 294.6 505.1 286.65 L502.3 282.65 Q494.1 293.65 481.35 298.8 L470.8 318.0 470.8 347.95 478.2 370.05 Q485.7 391.5 489.15 409.4 491.9 427.95 491.6 438.7 491.3 449.35 490.75 452.5 L499.1 463.1 Q504.95 470.45 502.6 478.9 495.55 496.25 493.35 513.05 495.9 487.6 486.0 468.4 L462.7 463.0 456.6 454.55 457.1 440.15 460.35 451.35 474.4 457.45 483.65 451.6 483.55 449.25 Q481.4 407.65 465.6 359.8 L462.4 350.55 462.4 317.85 469.5 288.4 Q483.05 276.95 485.1 260.3 M349.0 282.3 Q362.0 275.25 380.3 273.0 363.35 278.8 355.35 286.15 L363.6 303.9 388.8 306.4 366.35 309.15 367.9 332.85 379.6 352.75 363.4 334.6 358.45 308.15 349.0 289.5 349.0 282.3 M385.65 391.05 L414.15 391.05 434.5 379.35 Q430.45 382.75 427.05 386.6 423.5 398.75 426.7 410.95 422.45 401.9 418.85 398.1 L380.95 398.1 Q377.35 401.9 373.15 410.95 376.3 398.75 372.8 386.6 369.35 382.75 365.3 379.35 L385.65 391.05 M269.5 558.75 Q309.8 564.05 320.8 549.35 323.5 539.9 336.55 528.8 L342.55 519.25 343.75 522.05 Q344.85 527.1 341.55 530.95 335.25 537.65 333.45 545.7 331.8 553.2 323.15 559.55 L314.2 564.65 274.85 564.65 269.5 558.75 M524.95 564.65 L485.6 564.65 476.65 559.55 Q468.0 553.2 466.35 545.7 464.55 537.65 458.25 530.95 454.95 527.1 456.05 522.05 L457.25 519.25 463.25 528.8 Q476.3 539.9 479.0 549.35 490.0 564.05 530.3 558.75 L524.95 564.65" fill="#000000" fill-opacity="0.2" fill-rule="evenodd" stroke="none"/>
  </g>
</svg>
