<?xml version="1.0" encoding="UTF-8" standalone="no"?>
<svg xmlns:xlink="http://www.w3.org/1999/xlink" height="354.65px" width="208.4px" xmlns="http://www.w3.org/2000/svg">
  <g transform="matrix(1.0, 0.0, 0.0, 1.0, -80.05, -66.95)">
    <path d="M262.3 71.2 Q265.05 70.8 267.3 73.55 284.4 93.15 288.0 123.95 291.1 164.0 272.7 204.05 251.4 262.15 237.6 327.4 228.75 369.25 223.0 414.0 214.35 411.45 214.8 391.85 208.8 385.15 210.0 380.1 203.45 375.25 204.3 370.4 L209.9 329.35 Q204.0 322.3 204.55 313.8 L229.3 179.5 Q228.8 160.3 214.25 167.1 L214.2 167.1 214.2 167.0 Q213.85 167.15 213.5 167.4 L212.2 168.15 211.9 168.3 Q176.45 157.4 176.0 196.6 178.0 248.45 175.1 315.0 174.35 327.9 166.1 333.15 L165.65 375.45 Q163.9 383.15 157.85 390.8 158.25 398.7 152.05 406.6 L151.5 414.8 Q142.45 425.35 142.65 419.55 143.6 382.75 135.35 341.3 128.25 305.95 114.5 267.25 L87.05 190.8 Q78.5 167.55 80.4 149.0 88.25 98.45 117.9 69.95 124.5 62.5 140.1 73.7 150.0 81.05 148.95 88.4 L148.95 96.95 Q148.6 118.2 169.15 134.6 192.75 143.2 209.15 148.75 233.75 133.9 246.75 118.0 253.25 108.9 250.3 101.0 243.95 87.9 254.2 77.75 258.65 71.7 262.3 71.2" fill="#000000" fill-rule="evenodd" stroke="none"/>
  </g>
</svg>
