<?xml version="1.0" encoding="UTF-8" standalone="no"?>
<svg xmlns:xlink="http://www.w3.org/1999/xlink" height="114.95px" width="107.9px" xmlns="http://www.w3.org/2000/svg">
  <g transform="matrix(1.0, 0.0, 0.0, 1.0, -145.25, -116.95)">
    <path d="M210.1 140.0 L221.6 143.0 Q228.8 145.0 236.0 147.3 L250.35 152.2 Q252.2 157.65 253.0 163.75 L253.15 164.95 251.25 167.05 249.6 165.55 250.2 168.15 250.8 171.95 250.8 172.1 247.8 177.05 246.6 180.75 Q243.5 191.35 243.65 203.1 L242.7 206.05 241.65 209.7 241.0 212.2 239.95 216.8 239.6 218.5 239.0 223.4 238.65 226.95 238.3 230.75 Q225.5 233.1 190.2 230.75 L190.75 223.3 190.8 217.7 190.55 212.1 189.85 205.45 Q205.3 192.95 201.35 181.85 200.7 180.0 199.55 178.25 185.35 166.35 168.5 162.3 159.25 164.1 155.35 169.85 148.35 166.95 145.25 162.6 145.6 157.45 146.3 152.5 152.7 148.55 161.05 144.95 166.05 142.8 171.75 140.75 L175.4 139.85 176.45 139.5 Q181.85 137.7 186.25 134.6 L188.5 116.95 190.45 117.05 191.15 121.35 192.2 123.2 Q194.05 126.25 196.45 129.05 L198.45 131.25 201.0 133.7 205.6 137.45 210.1 137.45 210.1 140.0" fill="#000000" fill-rule="evenodd" stroke="none"/>
  </g>
</svg>
