<?xml version="1.0" encoding="UTF-8" standalone="no"?>
<svg xmlns:xlink="http://www.w3.org/1999/xlink" height="63.7px" width="106.05px" xmlns="http://www.w3.org/2000/svg">
  <g transform="matrix(1.0, 0.0, 0.0, 1.0, -145.3, -115.95)">
    <path d="M210.1 146.25 L210.1 140.0 M210.1 137.45 L205.6 137.45 201.0 133.7 198.45 131.25 196.45 129.05 Q194.05 126.25 192.2 123.2 L191.15 121.35 190.45 117.05 188.5 116.95 M146.3 152.5 Q193.65 158.45 226.25 179.15 L227.8 176.6 227.6 175.55 227.1 172.9 Q226.2 168.9 224.8 165.0 223.3 160.8 221.25 156.75 M250.35 152.2 Q249.25 155.55 247.3 158.8 241.05 169.2 226.25 179.15 M169.15 146.35 L175.4 146.45 176.65 146.5 M199.25 145.15 Q197.2 141.5 195.8 137.9 194.45 134.35 193.65 130.85 M177.4 146.55 L189.35 147.3 201.4 148.95 205.1 149.65 214.95 150.7 Q217.2 151.55 218.65 151.6 220.3 151.6 220.95 150.55 L221.6 150.5 225.5 149.65 Q227.6 148.7 229.95 148.9 M247.3 158.8 L246.75 157.55 246.05 156.15" fill="none" stroke="#000000" stroke-linecap="round" stroke-linejoin="round" stroke-width="1.0"/>
    <path d="M210.1 140.0 L210.1 137.45 M188.5 116.95 L186.25 134.6 Q181.85 137.7 176.45 139.5 L175.4 139.85 171.75 140.75 Q166.05 142.8 161.05 144.95 152.7 148.55 146.3 152.5 M210.1 140.0 L221.6 143.0 Q228.8 145.0 236.0 147.3 L250.35 152.2" fill="none" stroke="#000000" stroke-linecap="round" stroke-linejoin="round" stroke-width="2.0"/>
  </g>
</svg>
