<?xml version="1.0" encoding="UTF-8" standalone="no"?>
<svg xmlns:xlink="http://www.w3.org/1999/xlink" height="89.9px" width="91.45px" xmlns="http://www.w3.org/2000/svg">
  <g transform="matrix(1.0, 0.0, 0.0, 1.0, -160.05, -141.85)">
    <path d="M234.9 146.95 L236.0 147.3 238.65 148.15 M169.15 185.5 L171.2 188.5 Q173.3 191.35 175.8 194.0 178.85 197.25 182.5 200.2 L189.85 205.45 190.55 212.1 190.8 217.7 190.75 223.3 190.2 230.75 M166.25 142.85 Q163.55 143.85 161.05 144.95" fill="none" stroke="#000000" stroke-linecap="round" stroke-linejoin="round" stroke-width="2.0"/>
    <path d="M238.65 148.15 L240.75 151.1 Q242.85 154.15 244.55 157.3 246.7 161.3 248.25 165.5 249.65 169.35 250.5 173.45 L251.0 176.15 249.15 178.55 248.55 190.95 246.9 194.65 245.45 198.1 243.95 202.2 242.7 206.05 241.65 209.7 241.0 212.2 239.95 216.8 239.6 218.5 239.0 223.4 238.65 226.95 238.3 230.75 M166.25 142.85 L175.75 146.45 176.65 146.5 M169.15 146.35 L175.4 146.45 175.75 146.45 Q205.15 158.6 226.25 179.15 L227.85 176.65 Q236.9 161.8 234.9 146.95 M161.05 144.95 Q164.8 148.05 168.05 151.7 170.45 154.45 172.1 157.25 175.25 162.65 175.5 168.1 L175.4 171.7 185.65 178.9 Q188.55 181.15 193.75 181.75 200.6 182.55 211.55 180.45 218.85 179.05 226.25 179.15 233.5 179.15 240.75 180.45 M247.35 180.8 L249.15 178.55 M175.4 171.7 Q174.95 175.2 173.3 178.8 171.75 182.15 169.15 185.5 M235.0 214.95 L238.15 202.0 238.35 201.35 Q239.65 196.8 238.2 193.5 237.3 191.4 235.4 189.85 M225.4 221.35 L228.35 205.4 229.1 200.9 Q229.4 197.1 228.9 193.3 L228.35 190.35 M199.15 207.45 Q201.8 207.85 204.45 206.3 206.65 205.0 208.85 202.35 L210.8 199.7 Q212.5 196.85 214.6 194.4 216.8 191.8 219.45 189.65 M210.55 206.95 L216.05 217.7" fill="none" stroke="#000000" stroke-linecap="round" stroke-linejoin="round" stroke-width="1.0"/>
    <path d="M240.75 180.45 L247.35 180.8" fill="none" stroke="#000000" stroke-linecap="round" stroke-linejoin="round" stroke-opacity="0.2509804" stroke-width="1.0"/>
  </g>
</svg>
