<?xml version="1.0" encoding="UTF-8" standalone="no"?>
<svg xmlns:xlink="http://www.w3.org/1999/xlink" height="159.5px" width="51.75px" xmlns="http://www.w3.org/2000/svg">
  <g transform="matrix(1.0, 0.0, 0.0, 1.0, -197.1, -287.95)">
    <path d="M218.0 331.05 L215.95 324.35 M208.5 304.8 Q222.8 298.8 231.95 288.95 M222.5 326.8 L220.4 332.2" fill="none" stroke="#000000" stroke-linecap="round" stroke-linejoin="round" stroke-width="1.0"/>
    <path d="M231.95 288.95 L223.15 311.0 223.15 325.0 222.5 326.8 Q223.55 341.85 221.85 356.85 218.55 379.6 219.1 415.75 L232.1 430.85 247.85 445.55 Q233.45 449.05 216.2 439.0 L205.85 439.0 Q205.55 429.15 208.05 419.3 207.15 401.75 203.6 384.15 199.15 363.4 198.1 341.5 201.25 329.9 208.85 318.85 L208.5 304.8" fill="none" stroke="#000000" stroke-linecap="round" stroke-linejoin="round" stroke-width="2.0"/>
  </g>
</svg>
