<?xml version="1.0" encoding="UTF-8" standalone="no"?>
<svg xmlns:xlink="http://www.w3.org/1999/xlink" height="117.4px" width="38.55px" xmlns="http://www.w3.org/2000/svg">
  <g transform="matrix(1.0, 0.0, 0.0, 1.0, -143.2, -349.5)">
    <path d="M158.15 349.5 L181.75 353.4 177.4 370.7 Q174.25 374.45 170.35 377.8 L168.5 379.35 173.5 386.3 172.5 390.2 171.2 395.5 166.8 400.15 164.3 402.5 168.1 407.75 167.15 411.65 164.25 423.15 154.85 421.15 155.55 405.7 160.45 402.0 160.85 401.65 160.5 401.1 159.15 398.75 156.15 393.3 156.4 387.2 156.65 382.5 162.15 379.35 163.85 378.2 163.85 378.25 165.9 381.35 161.8 384.1 156.4 387.2 Q158.25 392.15 160.85 396.8 L162.3 399.35 162.75 400.1 163.35 399.55 Q168.5 395.0 172.5 390.2 169.05 385.85 166.1 381.4 L166.15 381.35 166.1 381.25 164.05 378.1 164.0 378.05 163.9 378.05 162.8 376.25 162.4 375.6 Q159.65 370.95 157.35 366.15 L157.5 363.15 159.4 363.55 159.45 363.55 Q161.0 366.8 162.85 370.05 L166.55 376.3 Q172.55 371.75 176.4 366.45 L159.55 363.4 159.5 363.35 159.45 363.3 157.55 362.9 157.5 362.9 158.15 349.5 M162.35 404.15 L160.15 405.95 155.4 409.45 167.15 411.65 162.35 404.15 M163.75 431.85 L166.5 454.0 Q162.75 460.8 156.25 466.9 L151.05 466.9 Q145.5 461.15 143.35 454.55 142.15 442.55 149.8 431.25 148.35 434.5 147.45 437.5 149.65 439.0 151.95 439.75 157.6 441.45 163.65 438.45 L163.75 431.85 M163.9 447.95 Q157.15 451.3 150.1 449.2 147.8 448.5 145.5 447.25 145.25 451.65 146.3 455.3 148.7 460.25 153.7 465.1 160.45 460.05 164.25 453.95 L163.9 447.95" fill="#000000" fill-rule="evenodd" stroke="none"/>
  </g>
</svg>
