<?xml version="1.0" encoding="UTF-8" standalone="no"?>
<svg xmlns:xlink="http://www.w3.org/1999/xlink" height="119.2px" width="104.4px" xmlns="http://www.w3.org/2000/svg">
  <g transform="matrix(1.0, 0.0, 0.0, 1.0, -144.45, -346.9)">
    <path d="M154.05 364.85 L159.6 367.65 159.6 384.6 167.65 385.35 172.9 368.6 178.0 368.25 M181.75 353.4 L158.15 349.5 M198.85 352.5 L222.65 347.9 M219.5 383.55 L214.5 383.55 211.5 368.55 196.4 367.5 M205.85 435.2 L216.9 435.2 Q221.25 438.0 226.1 439.85 L226.35 438.5 Q227.4 433.45 231.05 429.65 M226.1 439.85 Q230.2 441.4 234.7 442.25 L245.4 443.25 M163.75 444.5 Q157.75 439.6 151.7 440.65 148.9 441.1 146.05 442.9 M164.25 453.95 L153.85 460.85 152.4 459.4 Q147.9 454.6 145.45 448.6" fill="none" stroke="#000000" stroke-linecap="round" stroke-linejoin="round" stroke-width="1.0"/>
    <path d="M178.0 368.25 L181.75 353.4 M222.65 347.9 L221.85 356.85 Q220.15 368.45 219.5 383.55 218.85 398.05 219.1 415.75 L231.05 429.65 232.05 430.8 245.4 443.25 247.85 445.55 Q233.45 449.05 216.2 439.0 L205.85 439.0 205.85 435.2 206.1 430.8 Q206.6 425.05 208.05 419.3 L204.55 416.8 Q204.8 404.15 201.85 391.45 198.5 380.0 196.4 367.5 195.4 361.75 194.7 355.8 L198.85 352.5 M178.0 368.25 L164.25 423.15 Q163.95 426.9 163.8 430.8 163.55 437.45 163.75 444.5 L164.25 453.95 Q160.45 460.05 153.7 465.1 148.7 460.25 146.3 455.3 145.4 452.2 145.45 448.6 145.5 445.9 146.05 442.9 147.1 437.35 149.95 430.8 151.95 426.2 154.85 421.15 L151.35 417.45 Q154.65 390.45 154.05 364.85" fill="none" stroke="#000000" stroke-linecap="round" stroke-linejoin="round" stroke-width="2.0"/>
    <path d="M158.15 349.5 L158.15 349.55 153.6 354.1 154.05 364.85" fill="none" stroke="#000000" stroke-linecap="round" stroke-linejoin="round" stroke-width="2.0"/>
  </g>
</svg>
