<?xml version="1.0" encoding="UTF-8" standalone="no"?>
<svg xmlns:xlink="http://www.w3.org/1999/xlink" height="107.85px" width="55.6px" xmlns="http://www.w3.org/2000/svg">
  <g transform="matrix(1.0, 0.0, 0.0, 1.0, -193.25, -339.6)">
    <path d="M222.6 350.9 Q224.75 345.75 226.25 340.6 225.8 350.4 224.2 360.45 222.5 371.15 219.55 382.1 218.8 397.15 219.1 415.75 L232.1 430.85 247.85 445.55 242.95 446.35 Q230.55 447.35 216.2 439.0 L205.85 439.0 Q205.55 429.15 208.05 419.3 207.15 401.75 203.6 384.15 L203.3 382.75 Q194.0 368.15 194.25 352.65 194.3 347.3 195.5 341.9 L198.55 346.1" fill="none" stroke="#000000" stroke-linecap="round" stroke-linejoin="round" stroke-width="2.0"/>
    <path d="M198.55 346.1 Q200.9 348.95 203.8 351.55 L206.45 353.85 Q209.15 356.0 212.3 357.95 214.85 359.55 217.65 361.0 220.3 356.15 222.4 351.3 L222.6 350.9 M242.95 446.35 L239.6 443.8 Q224.25 431.65 216.05 417.85 L212.85 366.9 207.45 363.8 Q203.15 361.05 199.35 357.7 196.65 355.35 194.25 352.65 M224.2 360.45 Q223.0 363.15 220.75 365.9 220.0 373.4 219.55 382.1" fill="none" stroke="#000000" stroke-linecap="round" stroke-linejoin="round" stroke-width="1.0"/>
  </g>
</svg>
