<?xml version="1.0" encoding="UTF-8" standalone="no"?>
<svg xmlns:xlink="http://www.w3.org/1999/xlink" height="42.2px" width="30.5px" xmlns="http://www.w3.org/2000/svg">
  <g transform="matrix(1.0, 0.0, 0.0, 1.0, -199.4, -299.95)">
    <path d="M224.85 306.75 L228.9 313.5 Q228.85 323.55 225.8 333.6 L224.45 335.05 218.2 341.65 204.55 330.85 201.8 326.7 200.4 324.55 202.75 314.05 204.55 312.05 208.95 311.15 216.1 304.85 216.2 304.8 221.05 300.45 224.85 306.75" fill="url(#gradient0)" fill-rule="evenodd" stroke="none"/>
    <path d="M224.45 335.05 L218.2 341.65 204.55 330.85 201.8 326.7 M208.95 311.15 L216.1 304.85 216.2 304.8 221.05 300.45 224.85 306.75" fill="none" stroke="#000000" stroke-linecap="round" stroke-linejoin="round" stroke-width="1.0"/>
    <path d="M224.85 306.75 L228.9 313.5 Q228.85 323.55 225.8 333.6 L224.45 335.05 M201.8 326.7 L200.4 324.55 202.75 314.05 204.55 312.05 208.95 311.15" fill="none" stroke="#000000" stroke-linecap="round" stroke-linejoin="round" stroke-width="2.0"/>
    <path d="M221.3 338.35 L218.2 341.65 214.8 338.95 Q219.9 325.65 218.9 315.2 L218.9 315.15 Q218.6 312.25 217.85 309.55 L216.9 306.7 216.75 306.25 216.2 305.0 216.1 304.85 216.2 304.8 219.15 302.15 219.25 302.25 Q228.6 315.5 221.3 338.35" fill="#ffffff" fill-opacity="0.2509804" fill-rule="evenodd" stroke="none"/>
    <path d="M224.45 335.05 L221.3 338.35 218.2 341.65 214.8 338.95 204.55 330.85 201.8 326.7 M208.95 311.15 L216.1 304.85 216.2 304.8 219.15 302.15 221.05 300.45 224.85 306.75" fill="none" stroke="#000000" stroke-linecap="round" stroke-linejoin="round" stroke-width="1.0"/>
    <path d="M224.85 306.75 L228.9 313.5 Q228.85 323.55 225.8 333.6 L224.45 335.05 M201.8 326.7 L200.4 324.55 202.75 314.05 204.55 312.05 208.95 311.15" fill="none" stroke="#000000" stroke-linecap="round" stroke-linejoin="round" stroke-width="2.0"/>
  </g>
  <defs>
    <radialGradient cx="0" cy="0" gradientTransform="matrix(0.0334, 0.0, 0.0, 0.0334, 209.25, 325.2)" gradientUnits="userSpaceOnUse" id="gradient0" r="819.2" spreadMethod="pad">
      <stop offset="0.0" stop-color="#000000" stop-opacity="0.0"/>
      <stop offset="1.0" stop-color="#000000" stop-opacity="0.2509804"/>
    </radialGradient>
  </defs>
</svg>
