<?xml version="1.0" encoding="UTF-8" standalone="no"?>
<svg xmlns:xlink="http://www.w3.org/1999/xlink" height="15.45px" width="106.55px" xmlns="http://www.w3.org/2000/svg">
  <g transform="matrix(1.0, 0.0, 0.0, 1.0, -141.7, -249.95)">
    <path d="M157.0 253.7 Q157.5 252.3 158.4 252.25 159.3 252.15 160.05 253.45 160.8 254.75 160.95 256.65 161.1 258.55 160.6 260.0 160.15 261.4 159.25 261.5 158.35 261.55 157.6 260.3 156.85 258.95 156.7 257.05 156.5 255.15 157.0 253.7 M147.45 258.75 Q146.5 256.55 146.6 254.7 146.6 252.8 147.6 252.35 L148.1 252.25 Q148.95 252.2 150.0 253.15 151.4 254.4 152.4 256.65 153.35 258.85 153.35 260.75 153.3 262.55 152.35 263.05 L152.25 263.05 Q151.2 263.5 149.8 262.25 148.4 260.95 147.45 258.75 M143.55 258.15 L146.0 261.4 Q147.85 263.45 148.1 264.05 148.3 264.65 147.7 265.1 L147.6 265.2 Q146.8 265.7 145.55 264.95 144.2 264.15 143.15 262.6 142.0 261.0 141.75 259.55 141.5 258.15 142.15 257.65 L142.2 257.55 Q142.95 257.05 143.55 258.15 M246.6 249.95 L246.95 249.95 Q247.7 250.0 248.05 251.15 248.35 252.35 248.15 253.85 247.95 255.4 247.35 256.45 246.7 257.5 245.95 257.4 L245.4 257.15 244.9 256.15 Q244.55 254.95 244.75 253.4 244.95 251.85 245.6 250.8 246.05 250.05 246.6 249.95" fill="#000000" fill-rule="evenodd" stroke="none"/>
  </g>
</svg>
