<?xml version="1.0" encoding="UTF-8" standalone="no"?>
<svg xmlns:xlink="http://www.w3.org/1999/xlink" height="18.5px" width="106.75px" xmlns="http://www.w3.org/2000/svg">
  <g transform="matrix(1.0, 0.0, 0.0, 1.0, -149.7, -260.65)">
    <path d="M167.2 267.95 Q165.1 272.55 165.8 277.55 161.65 278.75 157.65 278.65 L154.2 278.35 150.7 277.55 151.65 269.7 154.4 269.8 156.4 269.55 157.25 269.35 Q159.2 268.8 161.05 267.7 L163.4 265.85 167.2 267.95" fill="url(#gradient0)" fill-rule="evenodd" stroke="none"/>
    <path d="M255.45 265.3 L249.8 265.0 246.15 265.35 239.95 266.5 Q240.75 264.15 241.95 261.9 L245.1 262.2 245.2 262.25 245.25 262.2 248.35 262.15 251.75 261.65 255.45 265.3" fill="url(#gradient1)" fill-rule="evenodd" stroke="none"/>
    <path d="M150.7 277.55 L151.65 269.7 M163.4 265.85 L167.2 267.95 M255.45 265.3 L251.75 261.65" fill="none" stroke="#000000" stroke-linecap="round" stroke-linejoin="round" stroke-width="2.0"/>
    <path d="M167.2 267.95 Q165.1 272.55 165.8 277.55 161.65 278.75 157.65 278.65 L154.2 278.35 150.7 277.55 M151.65 269.7 L154.4 269.8 156.4 269.55 157.25 269.35 Q159.2 268.8 161.05 267.7 L163.4 265.85 M245.1 262.2 L241.95 261.9 Q240.75 264.15 239.95 266.5 L246.15 265.35 249.8 265.0 255.45 265.3 M251.75 261.65 L248.35 262.15 245.25 262.2 245.1 262.2" fill="none" stroke="#000000" stroke-linecap="round" stroke-linejoin="round" stroke-width="1.0"/>
    <path d="M157.65 278.65 L154.2 278.35 154.4 269.8 155.35 269.75 156.4 269.55 157.25 269.35 157.65 278.65 M248.35 262.15 L248.15 262.7 249.8 265.0 246.15 265.35 245.1 262.7 245.25 262.2 248.35 262.15" fill="#ffffff" fill-opacity="0.2509804" fill-rule="evenodd" stroke="none"/>
    <path d="M163.4 265.85 L167.2 267.95 M150.7 277.55 L151.65 269.7 M255.45 265.3 L251.75 261.65" fill="none" stroke="#000000" stroke-linecap="round" stroke-linejoin="round" stroke-width="2.0"/>
    <path d="M157.25 269.35 Q159.2 268.8 161.05 267.7 L163.4 265.85 M167.2 267.95 Q165.1 272.55 165.8 277.55 L159.7 278.6 157.65 278.65 154.2 278.35 150.7 277.55 M151.65 269.7 L154.4 269.8 155.35 269.75 156.4 269.55 157.25 269.35 M251.75 261.65 L248.35 262.15 245.25 262.2 245.1 262.2 244.55 262.2 241.95 261.9 Q240.75 264.15 239.95 266.5 L243.9 265.65 246.15 265.35 249.8 265.0 255.45 265.3" fill="none" stroke="#000000" stroke-linecap="round" stroke-linejoin="round" stroke-width="1.0"/>
  </g>
  <defs>
    <linearGradient gradientTransform="matrix(-0.012, 0.0032, -0.0017, -0.0066, 149.75, 248.9)" gradientUnits="userSpaceOnUse" id="gradient0" spreadMethod="pad" x1="-819.2" x2="819.2">
      <stop offset="0.0" stop-color="#000000" stop-opacity="0.0"/>
      <stop offset="1.0" stop-color="#000000" stop-opacity="0.2509804"/>
    </linearGradient>
    <linearGradient gradientTransform="matrix(-0.0074, 0.0, 0.0, -0.0054, 252.0, 241.25)" gradientUnits="userSpaceOnUse" id="gradient1" spreadMethod="pad" x1="-819.2" x2="819.2">
      <stop offset="0.0" stop-color="#000000" stop-opacity="0.0"/>
      <stop offset="1.0" stop-color="#000000" stop-opacity="0.2509804"/>
    </linearGradient>
  </defs>
</svg>
