<?xml version="1.0" encoding="UTF-8" standalone="no"?>
<svg xmlns:xlink="http://www.w3.org/1999/xlink" height="71.95px" width="26.9px" xmlns="http://www.w3.org/2000/svg">
  <g transform="matrix(1.0, 0.0, 0.0, 1.0, -236.45, -191.75)">
    <path d="M247.65 220.0 L243.35 216.35 243.4 216.2 247.65 220.0 243.4 216.2 240.65 213.75 241.0 212.25 243.9 214.2 243.9 214.15 244.7 214.7 247.95 216.9 254.8 211.65 Q253.0 215.65 247.65 220.0 M243.9 214.2 L244.7 214.7 243.9 214.2" fill="url(#gradient0)" fill-rule="evenodd" stroke="none"/>
    <path d="M254.8 211.65 L247.95 216.9 244.7 214.7 243.9 214.15 243.9 214.2 241.0 212.25 Q241.8 209.05 242.75 205.95 L245.9 208.0 Q251.55 210.3 259.5 192.75 258.5 201.95 254.8 211.65" fill="url(#gradient1)" fill-rule="evenodd" stroke="none"/>
    <path d="M243.4 216.2 L243.35 216.35 247.65 220.0 Q253.0 215.65 254.8 211.65 L257.45 216.15 Q248.85 227.45 241.95 222.95 L241.95 222.9 239.25 221.3 239.6 218.5 240.65 213.75 243.4 216.2" fill="url(#gradient2)" fill-rule="evenodd" stroke="none"/>
    <path d="M239.25 221.3 L241.95 222.9 241.95 222.95 Q248.85 227.45 257.45 216.15 L259.95 216.65 Q261.6 219.1 262.35 225.45 L260.15 227.65 Q255.8 239.9 253.75 247.5 L254.35 252.45 252.95 260.15 251.05 261.7 Q245.65 263.85 241.3 262.95 L240.4 261.3 237.45 242.3 Q238.25 229.5 239.25 221.3 M253.75 247.5 L248.95 245.75 250.45 232.45 Q256.1 229.5 260.9 225.45 L260.15 227.65 260.9 225.45 Q256.1 229.5 250.45 232.45 L248.95 245.75 253.75 247.5" fill="url(#gradient3)" fill-rule="evenodd" stroke="none"/>
    <path d="M257.45 216.15 L254.8 211.65 Q258.5 201.95 259.5 192.75 M257.45 216.15 L259.95 216.65 Q261.6 219.1 262.35 225.45 L260.15 227.65 Q255.8 239.9 253.75 247.5 L254.35 252.45 252.95 260.15 251.05 261.7 M240.4 261.3 L237.45 242.3" fill="none" stroke="#000000" stroke-linecap="round" stroke-linejoin="round" stroke-width="2.0"/>
    <path d="M243.4 216.2 L243.35 216.35 247.65 220.0 243.4 216.2 240.65 213.75 239.6 218.5 239.25 221.3 241.95 222.9 241.95 222.95 Q248.85 227.45 257.45 216.15 M254.8 211.65 Q253.0 215.65 247.65 220.0 M241.0 212.25 L243.9 214.2 243.9 214.15 244.7 214.7 247.95 216.9 254.8 211.65 M259.5 192.75 Q251.55 210.3 245.9 208.0 L242.75 205.95 Q241.8 209.05 241.0 212.25 L240.65 213.75 M244.7 214.7 L243.9 214.2 M251.05 261.7 Q245.65 263.85 241.3 262.95 L240.4 261.3 M237.45 242.3 Q238.25 229.5 239.25 221.3 M260.15 227.65 L260.9 225.45 Q256.1 229.5 250.45 232.45 L248.95 245.75 253.75 247.5" fill="none" stroke="#000000" stroke-linecap="round" stroke-linejoin="round" stroke-width="1.0"/>
    <path d="M251.1 206.35 Q252.75 204.85 254.5 202.2 L252.55 213.0 252.55 213.35 250.3 215.05 252.55 213.35 252.75 215.0 253.35 220.75 251.2 222.45 250.6 217.35 250.3 215.05 250.05 212.7 251.1 206.35 M257.45 216.15 L258.2 216.35 255.75 229.35 252.9 231.05 255.25 218.85 257.45 216.15 M249.5 262.3 L246.8 263.0 250.0 246.15 252.4 246.95 249.5 262.3 M252.75 215.0 L250.6 217.35 252.75 215.0" fill="#ffffff" fill-opacity="0.2509804" fill-rule="evenodd" stroke="none"/>
    <path d="M237.45 242.3 Q238.4 227.25 239.6 218.5 L240.65 213.75 241.0 212.25 Q241.8 209.05 242.75 205.95 L245.9 208.0 Q248.3 208.95 251.1 206.35 252.75 204.85 254.5 202.2 256.8 198.55 259.5 192.75 M257.45 216.15 L258.2 216.35 259.95 216.65 Q261.6 219.1 262.35 225.45 L260.15 227.65 260.9 225.45 255.75 229.35 252.9 231.05 250.45 232.45 248.95 245.75 250.0 246.15 252.4 246.95 253.75 247.5 M251.05 261.7 L249.5 262.3 246.8 263.0 Q243.9 263.45 241.3 262.95 L240.4 261.3 M250.3 215.05 L252.55 213.35 254.8 211.65 252.75 215.0 250.6 217.35 247.65 220.0 240.65 213.75 M253.35 220.75 L255.25 218.85 257.45 216.15 M251.2 222.45 L253.35 220.75 M250.3 215.05 L247.95 216.9 241.0 212.25 M251.2 222.45 Q246.25 225.7 241.95 222.95 L239.55 221.3" fill="none" stroke="#000000" stroke-linecap="round" stroke-linejoin="round" stroke-width="1.0"/>
    <path d="M259.5 192.75 Q258.5 201.95 254.8 211.65 L257.45 216.15 M260.15 227.65 Q255.8 239.9 253.75 247.5 L254.35 252.45 252.95 260.15 251.05 261.7 M240.4 261.3 L237.45 242.3" fill="none" stroke="#000000" stroke-linecap="round" stroke-linejoin="round" stroke-width="2.0"/>
  </g>
  <defs>
    <linearGradient gradientTransform="matrix(0.0022, -2.0E-4, 5.0E-4, 0.0046, 247.95, 216.1)" gradientUnits="userSpaceOnUse" id="gradient0" spreadMethod="pad" x1="-819.2" x2="819.2">
      <stop offset="0.0" stop-color="#000000" stop-opacity="0.0"/>
      <stop offset="1.0" stop-color="#000000" stop-opacity="0.2509804"/>
    </linearGradient>
    <linearGradient gradientTransform="matrix(0.002, -2.0E-4, 0.0015, 0.0138, 248.1, 205.45)" gradientUnits="userSpaceOnUse" id="gradient1" spreadMethod="pad" x1="-819.2" x2="819.2">
      <stop offset="0.0" stop-color="#000000" stop-opacity="0.0"/>
      <stop offset="1.0" stop-color="#000000" stop-opacity="0.2509804"/>
    </linearGradient>
    <linearGradient gradientTransform="matrix(0.0047, -5.0E-4, 7.0E-4, 0.0071, 248.55, 218.1)" gradientUnits="userSpaceOnUse" id="gradient2" spreadMethod="pad" x1="-819.2" x2="819.2">
      <stop offset="0.0" stop-color="#000000" stop-opacity="0.0"/>
      <stop offset="1.0" stop-color="#000000" stop-opacity="0.2509804"/>
    </linearGradient>
    <linearGradient gradientTransform="matrix(0.0155, -0.0016, 0.0029, 0.0276, 251.0, 239.65)" gradientUnits="userSpaceOnUse" id="gradient3" spreadMethod="pad" x1="-819.2" x2="819.2">
      <stop offset="0.0" stop-color="#000000" stop-opacity="0.0"/>
      <stop offset="1.0" stop-color="#000000" stop-opacity="0.2509804"/>
    </linearGradient>
  </defs>
</svg>
