<?xml version="1.0" encoding="UTF-8" standalone="no"?>
<svg xmlns:xlink="http://www.w3.org/1999/xlink" height="49.5px" width="35.1px" xmlns="http://www.w3.org/2000/svg">
  <g transform="matrix(1.0, 0.0, 0.0, 1.0, -184.4, -88.95)">
    <path d="M218.5 110.25 L217.05 113.6 Q218.2 116.8 217.4 120.4 215.25 128.9 211.35 137.45 L210.1 137.45 M188.5 116.95 Q187.35 116.6 186.85 115.65 186.05 113.95 185.6 111.35 184.65 106.05 188.15 105.75 L188.85 105.8" fill="none" stroke="#000000" stroke-linecap="round" stroke-linejoin="round" stroke-width="2.0"/>
    <path d="M210.1 137.45 L205.6 137.45 Q201.65 134.55 198.45 131.25 194.0 126.7 191.15 121.35 L190.45 117.05 188.5 116.95 M188.85 105.8 Q190.35 106.15 190.75 108.25" fill="none" stroke="#000000" stroke-linecap="round" stroke-linejoin="round" stroke-width="1.0"/>
    <path d="M188.85 105.8 Q187.35 95.95 193.15 91.85 195.65 90.15 198.7 89.95 204.2 89.6 211.65 94.3 218.05 98.8 218.5 110.25" fill="none" stroke="#000000" stroke-linecap="round" stroke-linejoin="round" stroke-width="2.0"/>
  </g>
</svg>
