<?xml version="1.0" encoding="UTF-8" standalone="no"?>
<svg xmlns:xlink="http://www.w3.org/1999/xlink" height="61.05px" width="112.85px" xmlns="http://www.w3.org/2000/svg">
  <g transform="matrix(1.0, 0.0, 0.0, 1.0, -143.05, -129.3)">
    <path d="M219.95 142.55 L221.6 143.0 Q228.8 145.0 236.0 147.3 L243.55 149.8 250.9 148.35 252.3 150.15 Q253.3 151.6 254.1 153.2 255.2 155.35 255.9 157.65 L252.9 162.85 253.0 163.75 253.15 164.95 250.2 168.15 Q243.35 173.95 237.55 179.95 232.55 185.1 228.35 190.35 222.05 184.5 215.25 179.85 194.2 165.35 168.5 162.3 163.4 163.3 159.95 165.5 157.1 167.3 155.35 169.85 152.15 168.55 149.8 166.9 147.5 165.35 146.0 163.55 L145.1 162.75 Q144.6 162.2 144.25 161.5 L143.75 160.45 Q142.55 157.4 143.35 153.8 L143.5 153.35 Q143.8 152.1 144.35 151.0 145.35 148.9 147.05 147.5 L147.25 147.3 149.4 146.05 152.75 145.9 153.95 146.35 Q154.75 146.8 155.4 147.55 L161.05 144.95 Q166.05 142.8 171.75 140.75 L175.4 139.85 176.45 139.5 179.2 138.5 179.1 138.4 179.05 138.35 Q180.15 135.25 182.55 132.15 L186.95 129.3 186.25 134.55 186.25 134.6 186.3 134.55 188.9 136.55 189.55 137.0 194.75 140.15 196.15 140.85 196.8 141.2 198.6 142.0 Q201.35 143.2 204.35 144.05 L210.1 144.55 210.1 137.45 211.35 137.45 212.3 135.35 213.1 133.45 Q219.9 138.05 219.95 139.85 L219.95 142.55 M215.5 150.9 L215.5 150.85 215.4 150.85 215.5 150.9" fill="#000000" fill-rule="evenodd" stroke="none"/>
  </g>
</svg>
