<?xml version="1.0" encoding="UTF-8" standalone="no"?>
<svg xmlns:xlink="http://www.w3.org/1999/xlink" height="89.3px" width="104.7px" xmlns="http://www.w3.org/2000/svg">
  <g transform="matrix(1.0, 0.0, 0.0, 1.0, -146.3, -142.6)">
    <path d="M236.0 147.3 L250.35 152.2 248.35 161.55 Q251.0 168.85 251.0 176.15 L249.15 178.55 248.55 190.95 Q242.55 203.5 239.6 218.5 L238.75 226.15 233.0 226.6 230.5 231.65 228.55 231.75 223.65 231.9 213.7 231.9 211.0 231.8 207.5 226.65 199.75 226.3 190.6 225.7 Q191.25 215.0 189.85 205.45 176.5 197.0 169.15 185.5 L170.3 181.65 172.15 175.25 173.5 170.35 172.5 168.65 Q170.45 165.5 167.55 163.0 161.65 157.7 154.35 154.85 150.5 153.35 146.3 152.5 151.4 149.35 157.75 146.45 162.0 144.45 166.85 142.6 L171.65 148.35 Q174.2 151.45 177.35 150.75 L190.4 150.75 196.25 158.7 Q198.1 161.3 201.1 161.25 218.5 160.25 235.2 161.25 239.3 161.35 236.9 157.7 L231.95 151.0 237.8 151.0 Q240.5 150.65 236.0 147.4 L236.0 147.3" fill="#000000" fill-rule="evenodd" stroke="none"/>
  </g>
</svg>
