<?xml version="1.0" encoding="UTF-8" standalone="no"?>
<svg xmlns:xlink="http://www.w3.org/1999/xlink" height="88.05px" width="93.5px" xmlns="http://www.w3.org/2000/svg">
  <g transform="matrix(1.0, 0.0, 0.0, 1.0, -157.2, -129.65)">
    <path d="M210.1 146.25 L206.9 146.35 199.5 145.6 Q188.95 143.4 186.25 134.6 185.4 131.7 186.85 129.65 196.6 142.25 210.1 140.0 L210.1 146.25 M172.1 157.25 Q173.55 159.7 174.4 162.2 175.15 164.55 175.4 166.9 L175.5 168.1 175.5 170.05 175.4 171.7 Q174.95 175.15 173.4 178.6 L173.3 178.8 Q171.75 182.15 169.15 185.5 179.3 165.65 157.2 146.45 158.3 144.9 161.05 144.95 L164.5 148.0 165.65 149.15 168.05 151.7 169.95 154.05 171.0 155.5 172.1 157.25 M229.0 157.9 L214.25 157.9 212.1 154.0 226.85 154.0 229.0 157.9 M222.55 192.8 L234.25 192.8 234.25 196.95 222.55 196.95 222.55 192.8 M220.25 173.9 L218.5 169.75 233.25 169.75 235.0 173.9 220.25 173.9 M238.65 148.15 Q240.85 147.75 243.0 149.15 248.7 158.0 250.7 173.3 L250.5 173.45 248.95 167.6 248.25 165.5 247.35 163.25 244.65 157.45 244.55 157.3 243.9 156.15 240.75 151.1 238.65 148.15 M232.25 217.7 L220.0 217.7 220.0 213.55 232.25 213.55 232.25 217.7" fill="#000000" fill-rule="evenodd" stroke="none"/>
  </g>
</svg>
