<?xml version="1.0" encoding="UTF-8" standalone="no"?>
<svg xmlns:xlink="http://www.w3.org/1999/xlink" height="63.7px" width="64.9px" xmlns="http://www.w3.org/2000/svg">
  <g transform="matrix(1.0, 0.0, 0.0, 1.0, -179.15, -234.85)">
    <path d="M214.15 244.2 L211.4 289.75 202.45 294.15 202.9 287.0 203.3 287.05 203.35 287.05 Q204.1 287.05 204.65 286.4 205.15 285.8 205.15 284.95 205.15 284.1 204.65 283.45 204.3 283.1 203.85 283.0 L203.35 282.9 Q202.6 282.85 202.1 283.45 201.5 284.1 201.5 284.95 201.5 285.8 202.1 286.4 L202.65 286.9 202.65 286.95 202.2 294.1 195.7 284.85 204.65 240.7 214.15 244.2 M223.05 247.45 L228.35 244.0 232.65 288.2 225.1 298.5 225.6 289.55 Q226.15 289.45 226.6 288.95 227.15 288.3 227.15 287.5 227.15 286.65 226.6 286.0 226.05 285.4 225.35 285.4 L224.45 285.65 224.1 286.0 Q223.5 286.65 223.5 287.5 223.5 288.3 224.1 288.95 224.3 289.25 224.6 289.4 L224.65 289.4 Q224.95 289.6 225.35 289.6 L224.85 298.55 217.05 289.9 217.05 245.25 223.0 247.45 223.05 247.45 M236.4 238.75 L236.8 241.9 Q238.5 253.9 241.25 265.6 242.5 270.9 244.05 276.2 L241.2 288.65 241.05 280.9 241.0 280.85 241.95 280.25 Q242.45 279.65 242.45 278.8 242.45 277.95 241.95 277.3 241.35 276.7 240.65 276.75 239.9 276.7 239.4 277.3 L239.2 277.5 239.2 277.55 Q238.8 278.1 238.8 278.8 238.8 279.65 239.4 280.25 L239.7 280.55 Q240.1 280.9 240.65 280.9 L240.8 280.9 240.95 289.05 236.3 285.1 230.4 242.7 236.4 238.75 M189.35 235.05 L200.75 239.25 200.8 239.25 192.6 282.95 185.25 288.3 186.5 282.15 186.55 282.15 186.9 282.15 Q187.6 282.15 188.2 281.5 188.7 280.9 188.7 280.05 188.7 279.2 188.2 278.55 L187.5 278.05 186.9 277.95 Q186.15 277.95 185.6 278.55 185.05 279.2 185.05 280.05 185.05 280.9 185.6 281.5 L186.25 282.05 186.25 282.1 185.05 288.2 182.35 281.05 182.55 280.9 183.1 280.2 180.8 276.5 182.1 269.85 179.15 268.1 188.85 234.85 189.35 235.05" fill="#000000" fill-rule="evenodd" stroke="none"/>
  </g>
</svg>
