<?xml version="1.0" encoding="UTF-8" standalone="no"?>
<svg xmlns:xlink="http://www.w3.org/1999/xlink" height="58.85px" width="71.9px" xmlns="http://www.w3.org/2000/svg">
  <g transform="matrix(1.0, 0.0, 0.0, 1.0, -167.15, -215.1)">
    <path d="M193.7 228.6 L197.25 228.35 197.6 235.6 197.35 235.6 196.8 235.55 194.35 235.35 194.9 230.05 193.7 228.6 M191.5 258.9 Q194.3 259.6 197.0 260.45 L196.55 266.15 190.7 264.55 191.5 258.9 M190.1 268.8 L189.35 273.45 Q186.05 273.35 183.85 272.2 181.9 271.2 180.85 269.45 179.35 267.05 179.45 263.25 L175.1 242.25 177.7 236.05 178.2 234.95 178.45 234.3 179.05 232.8 179.65 231.35 179.95 230.7 180.1 230.25 182.85 229.8 182.9 229.8 182.9 261.5 Q184.1 269.95 190.1 268.8" fill="#000000" fill-opacity="0.2509804" fill-rule="evenodd" stroke="none"/>
    <path d="M197.6 235.6 L198.85 235.7 Q224.85 237.35 237.95 235.05 L238.1 233.4 238.3 230.75 238.4 229.9 238.55 227.95 Q223.2 229.4 198.85 228.25 L190.5 227.75 M190.4 228.9 L191.05 228.85 193.7 228.6 194.9 230.05 194.35 235.35 M182.9 229.8 L182.85 229.8 180.1 230.25 179.95 230.7 179.65 231.35 179.05 232.8 178.45 234.3 178.2 234.95 177.7 236.05 M186.05 229.3 L187.55 229.15 M185.15 229.4 L182.9 229.8 M186.05 229.3 L185.7 229.35 185.15 229.35 M191.5 258.9 L190.7 264.55" fill="none" stroke="#000000" stroke-linecap="round" stroke-linejoin="round" stroke-width="1.0"/>
    <path d="M173.45 221.65 L172.95 221.45 172.75 220.95 172.95 220.5 173.45 220.3 173.9 220.5 174.1 220.95 173.9 221.45 173.45 221.65 M181.1 224.75 L180.85 224.75 Q180.5 224.8 180.55 225.1 180.45 225.8 179.8 226.4 178.8 227.1 177.85 226.65 177.5 226.45 177.1 226.9 L177.0 227.0 M179.05 232.8 L178.5 228.5 178.3 228.2 177.85 228.2 177.55 228.45 M181.5 228.25 L181.65 228.55 181.5 228.85 181.2 228.95 180.9 228.85 180.8 228.55 180.9 228.25 181.2 228.15 181.5 228.25 M176.45 231.3 Q177.45 231.0 178.1 231.3 L177.8 230.55 Q176.1 230.55 175.45 231.6 175.2 231.9 175.35 232.05 L175.65 232.0 Q175.95 231.5 176.45 231.3 M178.2 234.95 L177.85 235.2 Q176.95 235.75 175.95 235.2 175.1 234.55 174.85 233.35 174.55 231.6 175.15 230.85 176.05 229.8 177.2 230.15 L177.8 230.55 M179.95 230.7 L179.7 230.6 179.45 230.7 179.35 230.95 179.45 231.25 179.65 231.35 M178.1 231.3 L178.45 233.95 178.45 234.3 M183.3 228.1 L183.5 228.55 Q184.95 228.1 185.8 229.15 L186.05 229.3 M185.15 229.4 L185.15 229.35 Q185.0 228.65 184.05 228.65 183.15 228.65 182.85 229.3 L182.85 229.8" fill="none" stroke="#000000" stroke-linecap="round" stroke-linejoin="round" stroke-width="1.0"/>
    <path d="M190.5 227.75 L190.4 228.9 187.75 229.15 187.55 229.15 Q187.0 228.15 187.85 227.6 L188.5 226.9 Q188.55 226.45 188.2 226.35 188.0 226.85 187.4 227.0 186.4 227.2 185.9 228.1 L185.05 227.9 183.3 228.1 Q182.7 226.85 181.5 226.65 L181.25 224.9 181.1 224.75 Q180.4 222.65 178.6 221.2 176.95 219.85 174.6 218.85 172.75 218.0 170.65 216.95 L168.9 216.1 Q168.7 216.1 168.55 216.6 L168.5 216.85 Q168.25 218.5 168.3 221.15 L168.25 223.35 168.15 224.8 Q168.2 225.3 168.5 225.25 L171.2 225.0 172.95 225.0 Q175.55 224.9 177.0 227.0 L177.1 227.25 Q177.55 227.8 177.55 228.45 177.35 229.25 176.4 229.35 174.9 229.75 174.35 231.1 174.0 232.7 174.7 234.4 175.2 235.55 176.7 235.95 L177.7 236.05 175.1 242.25 179.45 263.25 Q179.35 267.05 180.85 269.45" fill="none" stroke="#000000" stroke-linecap="round" stroke-linejoin="round" stroke-width="2.0"/>
    <path d="M197.35 235.6 L196.8 235.55 194.35 235.35 194.25 236.25 Q193.05 247.65 191.5 258.9 194.3 259.6 197.0 260.45 205.8 263.25 213.95 267.8 L211.7 272.75 Q204.5 268.65 196.55 266.15 L190.7 264.55 190.1 268.8 189.35 273.45 Q186.05 273.35 183.85 272.2 181.9 271.2 180.85 269.45" fill="none" stroke="#000000" stroke-linecap="round" stroke-linejoin="round" stroke-width="1.0"/>
  </g>
</svg>
