<?xml version="1.0" encoding="UTF-8" standalone="no"?>
<svg xmlns:xlink="http://www.w3.org/1999/xlink" height="60.95px" width="108.2px" xmlns="http://www.w3.org/2000/svg">
  <g transform="matrix(1.0, 0.0, 0.0, 1.0, -144.8, -116.95)">
    <path d="M210.1 137.45 L210.1 140.0 Q223.15 143.15 236.0 147.3 L250.35 152.2 Q252.15 157.55 253.0 163.5 L252.25 163.15 Q231.8 154.4 214.8 148.8 192.65 153.3 176.4 160.45 164.15 165.8 152.8 172.8 L144.85 177.9 Q144.6 164.7 146.3 152.5 156.55 146.2 171.75 140.75 L175.4 139.85 Q181.45 138.0 186.25 134.6 L188.5 116.95 190.45 117.05 191.15 121.35 Q194.0 126.7 198.45 131.25 201.65 134.55 205.6 137.45 L210.1 137.45" fill="#000000" fill-rule="evenodd" stroke="none"/>
  </g>
</svg>
