<?xml version="1.0" encoding="UTF-8" standalone="no"?>
<svg xmlns:xlink="http://www.w3.org/1999/xlink" height="8.3px" width="22.4px" xmlns="http://www.w3.org/2000/svg">
  <g transform="matrix(1.0, 0.0, 0.0, 1.0, -196.7, -105.45)">
    <path d="M205.85 110.5 L205.9 111.0 Q205.9 111.75 205.35 112.3 L204.75 112.75 204.45 112.8 204.05 112.85 203.75 112.85 203.65 112.8 Q203.15 112.7 202.75 112.3 202.2 111.75 202.2 111.0 202.2 110.3 202.65 109.8 L204.1 109.75 Q205.1 109.95 205.85 110.5" fill="#ffffff" fill-opacity="0.0" fill-rule="evenodd" stroke="none"/>
    <path d="M204.75 112.75 L205.35 112.3 Q205.9 111.75 205.9 111.0 L205.85 110.5 Q206.6 111.1 207.05 112.05 206.15 112.8 204.75 112.75 M202.65 109.8 Q202.2 110.3 202.2 111.0 202.2 111.75 202.75 112.3 203.15 112.7 203.65 112.8 201.6 112.75 200.0 111.45 200.85 110.15 202.65 109.8" fill="#ffffff" fill-opacity="0.2509804" fill-rule="evenodd" stroke="none"/>
    <path d="M216.05 113.5 L216.65 113.15 217.0 112.25 216.95 111.8 Q217.6 112.0 218.1 112.55 217.35 113.3 216.05 113.5" fill="#ffffff" fill-rule="evenodd" stroke="none"/>
    <path d="M212.85 111.75 Q214.1 111.8 215.35 110.75 216.85 109.3 218.35 109.25 M209.0 111.05 L204.15 107.5 Q200.7 104.65 197.45 107.95 M214.5 111.7 L213.9 111.7 213.3 111.8" fill="none" stroke="#000000" stroke-linecap="round" stroke-linejoin="round" stroke-width="1.5"/>
    <path d="M205.85 110.5 Q205.1 109.95 204.1 109.75 L202.65 109.8 Q200.85 110.15 200.0 111.45 M207.05 112.05 Q206.6 111.1 205.85 110.5 M212.85 111.75 L212.5 112.75 212.4 113.15 M216.95 111.8 L216.4 111.7 214.5 111.7 M218.1 112.55 Q217.6 112.0 216.95 111.8" fill="none" stroke="#000000" stroke-linecap="round" stroke-linejoin="round" stroke-width="1.0"/>
    <path d="M204.75 112.75 L205.35 112.3 Q205.9 111.75 205.9 111.0 L205.85 110.5 M202.65 109.8 Q202.2 110.3 202.2 111.0 202.2 111.75 202.75 112.3 203.15 112.7 203.65 112.8 L203.75 112.85 204.05 112.85 204.45 112.8 204.75 112.75 M216.05 113.5 L216.65 113.15 217.0 112.25 216.95 111.8 M214.5 111.7 L214.4 112.25 Q214.4 112.75 214.8 113.15 215.15 113.5 216.05 113.5" fill="none" stroke="#000000" stroke-linecap="round" stroke-linejoin="round" stroke-width="0.5"/>
  </g>
</svg>
