<?xml version="1.0" encoding="UTF-8" standalone="no"?>
<svg xmlns:xlink="http://www.w3.org/1999/xlink" height="102.85px" width="92.9px" xmlns="http://www.w3.org/2000/svg">
  <g transform="matrix(1.0, 0.0, 0.0, 1.0, -155.2, -81.3)">
    <path d="M193.35 93.15 L192.2 92.5 193.35 93.15 M187.5 98.05 L186.45 97.95 187.5 98.05 M224.35 95.4 Q213.05 95.9 209.05 92.85 L210.25 97.0 198.7 93.55 199.15 96.75 Q186.2 99.3 172.2 118.85 L179.1 116.15 Q175.1 121.75 174.9 126.65 178.05 122.75 180.65 122.55 177.85 133.3 181.0 144.2 183.0 139.85 185.05 139.8 187.35 149.85 194.7 158.65 196.85 152.25 199.75 151.15 202.35 160.2 209.85 169.25 214.8 175.2 215.1 182.15 204.95 171.0 202.8 162.9 195.55 169.1 201.85 177.45 191.45 171.45 190.85 160.9 186.6 164.0 187.15 169.8 182.45 164.15 183.2 162.0 181.0 163.15 179.5 165.35 179.35 159.95 183.4 155.7 178.85 160.2 174.2 159.45 178.9 155.45 180.85 150.85 177.45 154.5 174.05 154.2 174.4 149.85 176.35 145.35 174.05 146.0 172.8 148.3 172.35 144.4 174.7 140.2 172.5 140.85 170.35 142.8 171.15 138.1 174.75 134.25 L174.75 134.2 Q170.9 134.8 168.1 137.5 170.9 134.8 174.75 134.2 L174.75 134.25 Q171.1 135.5 168.1 137.5 164.25 140.0 161.35 143.7 161.45 136.95 166.05 130.45 164.5 131.4 163.05 132.85 162.45 130.35 163.3 128.3 L156.2 131.25 Q158.35 125.65 161.65 121.55 163.7 118.95 166.25 116.95 163.45 115.85 159.8 115.75 166.0 112.6 173.9 112.0 170.0 110.55 168.6 108.85 173.7 108.3 177.9 106.6 172.05 107.9 168.6 105.2 175.0 104.85 178.9 102.55 182.35 99.45 186.45 97.95 182.0 97.8 177.5 98.85 172.8 99.7 175.0 97.75 183.35 91.45 192.2 92.5 188.05 90.05 183.65 88.3 179.7 86.35 181.35 85.6 188.4 83.7 202.05 91.0 200.2 88.6 199.3 86.2 197.9 82.85 199.5 82.3 201.35 82.45 202.2 84.1 208.2 92.5 218.85 94.2 221.95 94.6 224.35 95.4 M226.2 96.1 Q228.75 97.3 230.05 99.1 232.65 102.9 237.45 105.55 L237.45 107.75 Q235.5 108.15 234.05 108.7 L234.05 106.45 226.2 96.1 M243.55 114.75 Q244.95 116.4 245.7 118.3 248.75 126.5 245.1 134.7 246.15 121.45 241.75 116.05 247.85 122.1 243.55 114.75 M226.8 125.7 Q220.6 127.35 218.4 131.8 217.4 133.8 217.2 136.35 216.8 142.4 229.65 145.25 210.6 145.8 213.9 133.5 207.3 133.0 206.05 125.1 L207.35 123.8 Q208.2 126.0 211.7 128.0 213.75 129.05 215.75 128.8 213.75 129.05 211.7 128.0 208.2 126.0 207.35 123.8 L206.05 125.1 204.75 126.3 Q203.5 123.2 203.6 120.1 L201.4 121.9 Q200.45 117.7 201.4 113.2 L198.65 113.85 Q198.95 110.2 201.05 106.5 L203.55 102.35 Q202.6 110.55 205.8 118.35 L207.35 114.15 Q206.7 122.65 215.75 128.8 216.9 128.65 218.05 128.1 222.1 125.9 226.8 125.7 M219.05 104.95 Q221.55 103.95 224.05 106.95 L225.55 108.65 221.4 108.75 Q219.6 108.15 219.05 104.95" fill="#000000" fill-opacity="0.2509804" fill-rule="evenodd" stroke="none"/>
    <path d="M237.45 107.75 L240.55 112.05 243.55 114.75 Q247.85 122.1 241.75 116.05 246.15 121.45 245.1 134.7 L244.95 132.6 244.9 132.55 Q244.3 128.8 241.05 126.55 237.15 125.45 233.75 124.0 L230.2 122.3 225.75 120.85 Q225.95 119.85 226.65 119.05 229.3 115.55 230.2 111.85 230.9 109.9 234.05 108.7 235.5 108.15 237.45 107.75 M237.35 113.8 L237.35 112.15 236.05 110.95 237.35 112.15 237.35 113.8" fill="url(#gradient0)" fill-rule="evenodd" stroke="none"/>
    <path d="M244.9 132.55 Q244.4 129.85 238.9 127.95 L238.5 127.9 229.5 126.85 Q227.85 127.3 226.8 125.7 226.4 125.2 226.15 124.45 225.3 122.45 225.75 120.85 L230.2 122.3 233.75 124.0 Q237.15 125.45 241.05 126.55 244.3 128.8 244.9 132.55" fill="url(#gradient1)" fill-rule="evenodd" stroke="none"/>
    <path d="M224.35 95.4 Q221.95 94.6 218.85 94.2 208.2 92.5 202.2 84.1 201.35 82.45 199.5 82.3 197.9 82.85 199.3 86.2 200.2 88.6 202.05 91.0 188.4 83.7 181.35 85.6 179.7 86.35 183.65 88.3 188.05 90.05 192.2 92.5 183.35 91.45 175.0 97.75 172.8 99.7 177.5 98.85 182.0 97.8 186.45 97.95 182.35 99.45 178.9 102.55 175.0 104.85 168.6 105.2 172.05 107.9 177.9 106.6 173.7 108.3 168.6 108.85 170.0 110.55 173.9 112.0 166.0 112.6 159.8 115.75 163.45 115.85 166.25 116.95 163.7 118.95 161.65 121.55 158.35 125.65 156.2 131.25 L163.3 128.3 Q162.45 130.35 163.05 132.85 164.5 131.4 166.05 130.45 161.45 136.95 161.35 143.7 164.25 140.0 168.1 137.5 170.9 134.8 174.75 134.2 L174.75 134.25 Q171.15 138.1 170.35 142.8 172.5 140.85 174.7 140.2 172.35 144.4 172.8 148.3 174.05 146.0 176.35 145.35 174.4 149.85 174.05 154.2 177.45 154.5 180.85 150.85 178.9 155.45 174.2 159.45 178.85 160.2 183.4 155.7 179.35 159.95 179.5 165.35 181.0 163.15 183.2 162.0 182.45 164.15 187.15 169.8 186.6 164.0 190.85 160.9 191.45 171.45 201.85 177.45 195.55 169.1 202.8 162.9 204.95 171.0 215.1 182.15 220.0 173.55 217.4 166.7 214.75 159.85 231.05 183.15 235.6 173.8 233.9 164.45 238.75 164.35 242.05 170.8 242.55 162.15 237.05 154.1 242.8 154.4 246.55 158.0 243.55 153.05 238.65 151.2 L238.0 150.95 M224.35 95.4 L226.2 96.1 Q228.75 97.3 230.05 99.1 232.65 102.9 237.45 105.55 L237.45 107.75 240.55 112.05 243.55 114.75 Q244.95 116.4 245.7 118.3 248.75 126.5 245.1 134.7 L244.95 132.6 244.9 132.55 Q244.4 129.85 238.9 127.95 L238.5 127.9 229.5 126.85 Q227.85 127.3 226.8 125.7 220.6 127.35 218.4 131.8 223.25 141.95 236.3 141.3 L240.6 139.2 240.6 141.5 245.75 141.5 Q244.5 144.55 238.15 146.85 L246.7 148.9 Q243.65 151.4 238.65 151.2 M229.65 145.25 Q216.8 142.4 217.2 136.35 217.4 133.8 218.4 131.8 M168.1 137.5 Q171.1 135.5 174.75 134.25" fill="none" stroke="#000000" stroke-linecap="round" stroke-linejoin="round" stroke-width="2.0"/>
    <path d="M186.45 97.95 L187.5 98.05 M192.2 92.5 L193.35 93.15 M234.05 108.7 Q235.5 108.15 237.45 107.75 M219.05 104.95 Q221.55 103.95 224.05 106.95 L225.55 108.65 Q226.3 109.35 226.8 109.55 228.65 110.15 228.3 105.95 M225.75 120.85 L230.2 122.3 233.75 124.0 Q237.15 125.45 241.05 126.55 244.3 128.8 244.9 132.55 M234.05 108.7 Q230.9 109.9 230.2 111.85 229.3 115.55 226.65 119.05 225.95 119.85 225.75 120.85 225.3 122.45 226.15 124.45 226.4 125.2 226.8 125.7 222.1 125.9 218.05 128.1 216.9 128.65 215.75 128.8 213.75 129.05 211.7 128.0 208.2 126.0 207.35 123.8 L206.05 125.1 204.75 126.3 Q203.5 123.2 203.6 120.1 L201.4 121.9 Q200.45 117.7 201.4 113.2 L198.65 113.85 Q198.95 110.2 201.05 106.5 M236.05 110.95 L237.35 112.15 237.35 113.8 M215.0 102.3 Q215.75 106.85 218.9 105.0 L219.05 104.95 Q219.6 108.15 221.4 108.75 L225.55 108.65" fill="none" stroke="#000000" stroke-linecap="round" stroke-linejoin="round" stroke-width="1.0"/>
  </g>
  <defs>
    <linearGradient gradientTransform="matrix(-0.0031, 0.0055, 0.0129, 0.0074, 239.5, 120.0)" gradientUnits="userSpaceOnUse" id="gradient0" spreadMethod="pad" x1="-819.2" x2="819.2">
      <stop offset="0.0" stop-color="#000000" stop-opacity="0.0"/>
      <stop offset="1.0" stop-color="#000000" stop-opacity="0.2509804"/>
    </linearGradient>
    <linearGradient gradientTransform="matrix(2.0E-4, -8.0E-4, -0.0065, -0.0018, 230.4, 124.8)" gradientUnits="userSpaceOnUse" id="gradient1" spreadMethod="pad" x1="-819.2" x2="819.2">
      <stop offset="0.0" stop-color="#000000" stop-opacity="0.0"/>
      <stop offset="1.0" stop-color="#000000" stop-opacity="0.2509804"/>
    </linearGradient>
  </defs>
</svg>
