<?xml version="1.0" encoding="UTF-8" standalone="no"?>
<svg xmlns:xlink="http://www.w3.org/1999/xlink" height="70.65px" width="70.4px" xmlns="http://www.w3.org/2000/svg">
  <g transform="matrix(1.0, 0.0, 0.0, 1.0, -167.95, -99.95)">
    <path d="M217.55 115.45 Q232.35 124.6 229.25 135.15 225.85 143.8 227.25 154.1 225.05 148.95 225.35 144.05 225.5 141.3 226.4 138.65 227.95 134.05 225.4 129.7 222.15 125.7 216.75 122.8 L217.4 120.4 Q217.95 117.85 217.55 115.45 M188.15 101.1 Q175.55 109.7 176.4 121.15 L176.4 121.55 Q176.6 134.2 185.05 141.0 202.15 150.3 206.45 170.1 201.55 156.85 189.9 149.45 181.4 145.15 176.0 139.65 173.65 137.3 171.85 134.7 166.95 128.2 170.35 117.3 175.15 105.95 188.15 101.1" fill="#000000" fill-opacity="0.2509804" fill-rule="evenodd" stroke="none"/>
    <path d="M231.5 145.85 Q231.8 143.2 232.65 140.65 237.45 126.55 231.8 117.15 227.1 109.1 217.35 102.65 218.35 105.95 218.5 110.25 L217.05 113.6 217.55 115.45 Q217.95 117.85 217.4 120.4 L216.75 122.8 Q222.15 125.7 225.4 129.7 227.95 134.05 226.4 138.65 225.5 141.3 225.35 144.05 M188.5 100.95 L188.15 101.1 Q175.15 105.95 170.35 117.3 166.95 128.2 171.85 134.7 173.65 137.3 176.0 139.65" fill="none" stroke="#000000" stroke-linecap="round" stroke-linejoin="round" stroke-width="2.0"/>
    <path d="M227.25 154.1 L228.65 156.95 Q232.35 163.55 237.85 169.0 230.25 156.5 231.5 145.85 M225.35 144.05 Q225.05 148.95 227.25 154.1 M206.45 170.1 Q207.5 152.1 191.85 141.85 186.2 138.15 187.4 130.8 188.05 124.3 194.35 123.25 195.7 110.25 188.5 100.95 M176.0 139.65 Q181.4 145.15 189.9 149.45 201.55 156.85 206.45 170.1" fill="none" stroke="#000000" stroke-linecap="round" stroke-linejoin="round" stroke-width="1.0"/>
  </g>
</svg>
