<?xml version="1.0" encoding="UTF-8" standalone="no"?>
<svg xmlns:xlink="http://www.w3.org/1999/xlink" height="25.4px" width="52.35px" xmlns="http://www.w3.org/2000/svg">
  <g transform="matrix(1.0, 0.0, 0.0, 1.0, -176.6, -81.65)">
    <path d="M187.3 101.2 L187.55 101.2 188.6 101.35 Q188.1 103.4 188.15 105.9 186.65 106.0 186.0 107.05 179.35 104.0 176.6 100.55 L187.3 101.2 M188.55 89.7 Q189.0 87.15 193.95 85.8 L204.95 83.4 Q206.8 82.35 209.15 81.9 213.4 80.6 215.8 86.6 217.15 90.15 217.95 93.9 218.65 97.3 218.9 100.85 L228.95 105.1 Q223.55 106.3 217.85 106.45 L211.6 106.3 202.65 105.1 Q199.05 103.75 195.5 102.85 L188.65 101.35 188.65 101.2 187.55 101.2 188.55 89.7" fill="#000000" fill-rule="evenodd" stroke="none"/>
  </g>
</svg>
