<?xml version="1.0" encoding="UTF-8" standalone="no"?>
<svg xmlns:xlink="http://www.w3.org/1999/xlink" height="29.65px" width="43.9px" xmlns="http://www.w3.org/2000/svg">
  <g transform="matrix(1.0, 0.0, 0.0, 1.0, -136.45, -267.65)">
    <path d="M144.0 268.95 Q144.1 270.2 145.6 271.5 144.85 272.75 144.45 274.2 144.0 275.6 143.85 277.15 141.95 277.0 141.25 279.25 140.6 283.5 143.2 286.35 143.95 287.5 154.5 292.45 151.15 293.2 137.3 286.6 136.3 286.0 136.5 284.85 137.25 278.55 138.95 272.65 139.6 270.35 140.4 268.15 140.6 267.65 141.15 267.65 L143.65 268.35 Q144.05 268.45 144.0 268.95 M174.65 275.8 Q174.95 274.95 175.8 275.2 L179.85 276.15 Q180.55 276.45 180.3 277.4 L178.55 283.85 175.25 296.15 Q174.9 297.15 173.7 297.25 166.9 297.6 162.55 294.9 L168.7 294.45 Q170.95 293.5 171.6 289.4 171.9 287.6 170.4 285.75 170.45 283.95 171.2 281.75 L172.35 278.85 Q174.0 278.05 174.65 275.8" fill="#000000" fill-rule="evenodd" stroke="none"/>
  </g>
</svg>
