<?xml version="1.0" encoding="UTF-8" standalone="no"?>
<svg xmlns:xlink="http://www.w3.org/1999/xlink" height="97.95px" width="250.4px" xmlns="http://www.w3.org/2000/svg">
  <g transform="matrix(1.0, 0.0, 0.0, 1.0, -123.45, -258.8)">
    <path d="M153.65 271.45 L155.4 272.1 154.0 275.95 152.25 275.3 150.85 279.15 150.75 279.4 Q149.8 279.7 149.3 278.9 L149.4 278.7 150.8 274.75 138.8 270.35 139.95 267.15 Q147.8 270.1 152.25 270.9 L150.8 274.75 152.25 275.3 153.65 271.45 M156.8 272.65 Q162.6 276.05 171.45 278.6 L170.25 281.9 155.45 276.45 156.8 272.65 M178.3 288.25 Q175.7 291.2 174.65 294.9 171.9 305.05 181.3 311.1 176.4 314.5 171.3 311.55 172.0 309.35 171.25 306.25 169.7 299.85 171.6 293.55 172.75 289.55 172.9 286.5 L170.1 285.5 170.05 285.7 Q169.4 285.75 169.0 285.3 L169.05 285.1 170.25 281.9 171.3 282.25 170.1 285.5 171.3 282.25 172.65 282.75 180.95 285.75 178.3 288.25 M136.35 273.2 Q132.25 271.4 130.9 272.4 123.6 268.85 124.55 265.25 L124.55 265.15 132.5 268.05 137.55 269.9 136.35 273.2 M130.9 272.4 L132.5 268.05 130.9 272.4 M172.9 286.5 Q173.0 284.4 172.65 282.75 173.0 284.4 172.9 286.5 M180.95 285.75 Q173.45 289.75 172.25 297.65 171.35 303.7 174.7 310.65 177.95 311.65 181.3 311.1 177.95 311.65 174.7 310.65 173.5 311.5 171.3 311.55 173.5 311.5 174.7 310.65 171.35 303.7 172.25 297.65 173.45 289.75 180.95 285.75" fill="#000000" fill-opacity="0.2509804" fill-rule="evenodd" stroke="none"/>
    <path d="M169.05 285.1 Q160.65 281.4 154.05 280.3 L153.95 280.55 Q153.0 280.85 152.5 280.05 L152.6 279.8 150.85 279.15 152.25 275.3 154.0 275.95 155.45 276.45 170.25 281.9 169.05 285.1 M149.4 278.7 Q145.5 276.4 137.6 273.65 L138.8 270.35 150.8 274.75 149.4 278.7 M152.6 279.8 L154.0 275.95 152.6 279.8 M154.05 280.3 L155.45 276.45 154.05 280.3" fill="#000000" fill-opacity="0.5019608" fill-rule="evenodd" stroke="none"/>
    <path d="M202.55 288.0 L204.6 287.2 Q234.65 302.3 285.95 318.25 354.4 337.2 372.85 355.6 346.9 357.85 282.3 328.35 232.75 307.6 200.0 299.85 L198.95 297.95 Q205.3 295.1 217.15 298.95 205.6 294.25 202.55 288.0 M372.85 355.6 L217.15 298.95 372.85 355.6" fill="url(#gradient0)" fill-rule="evenodd" stroke="none"/>
    <path d="M152.25 270.9 L150.8 274.75 149.4 278.7 M152.25 275.3 L153.65 271.45 M132.5 268.05 L134.05 263.8 M132.5 268.05 L130.9 272.4 M156.8 272.65 L155.45 276.45 154.05 280.3 M170.25 281.9 L171.45 278.6 M154.0 275.95 L152.6 279.8 M152.25 275.3 L150.85 279.15 M155.4 272.1 L154.0 275.95 M197.5 266.6 Q195.3 264.0 192.15 262.65 185.15 265.8 181.9 271.05 177.75 277.85 180.95 285.75 L172.65 282.75 M192.15 262.65 Q191.8 261.25 190.15 259.8 M170.25 281.9 L169.05 285.1 M171.3 282.25 L170.1 285.5 M171.3 282.25 L172.5 279.0 M181.3 311.1 Q177.95 311.65 174.7 310.65 173.5 311.5 171.3 311.55 M174.7 310.65 Q171.35 303.7 172.25 297.65 173.45 289.75 180.95 285.75" fill="none" stroke="#000000" stroke-linecap="round" stroke-linejoin="round" stroke-width="0.5"/>
    <path d="M152.25 270.9 L152.3 270.7 Q153.2 270.4 153.7 271.2 L153.65 271.45 155.4 272.1 155.5 271.85 Q156.4 271.55 156.9 272.35 L156.8 272.65 Q162.6 276.05 171.45 278.6 L171.5 278.4 Q172.1 278.35 172.55 278.8 L172.5 279.0 175.3 280.0 Q177.15 277.55 178.8 273.8 181.4 267.7 186.65 263.8 189.25 261.9 190.15 259.8 195.95 260.8 197.5 266.6 186.45 265.15 182.0 274.7 180.4 278.2 180.5 282.1 182.8 281.95 185.95 280.75 193.8 290.7 202.55 288.0 L204.6 287.2 Q234.65 302.3 285.95 318.25 354.4 337.2 372.85 355.6 346.9 357.85 282.3 328.35 232.75 307.6 200.0 299.85 L198.95 297.95 Q193.95 290.25 181.55 292.8 179.95 289.85 178.3 288.25 175.7 291.2 174.65 294.9 171.9 305.05 181.3 311.1 176.4 314.5 171.3 311.55 172.0 309.35 171.25 306.25 169.7 299.85 171.6 293.55 172.75 289.55 172.9 286.5 L170.1 285.5 170.05 285.7 Q169.4 285.75 169.0 285.3 L169.05 285.1 Q160.65 281.4 154.05 280.3 L153.95 280.55 Q153.0 280.85 152.5 280.05 L152.6 279.8 150.85 279.15 150.75 279.4 M137.6 273.65 L137.5 273.9 Q136.7 274.1 136.25 273.45 L136.35 273.2 Q132.25 271.4 130.9 272.4 123.6 268.85 124.55 265.25 L124.55 265.15 Q126.2 261.85 134.05 263.8 134.45 265.45 138.7 266.7 L138.8 266.45 Q139.55 266.2 140.05 266.95 L139.95 267.15 138.8 270.35 137.6 273.65" fill="none" stroke="#000000" stroke-linecap="round" stroke-linejoin="round" stroke-width="2.0"/>
    <path d="M137.55 269.9 L138.7 266.7 M137.55 269.9 L136.35 273.2 M180.95 285.75 Q180.55 283.9 180.5 282.1 M175.3 280.0 L172.65 282.75 Q173.0 284.4 172.9 286.5 M180.95 285.75 L178.3 288.25" fill="none" stroke="#000000" stroke-linecap="round" stroke-linejoin="round" stroke-width="1.0"/>
    <path d="M217.15 298.95 Q205.3 295.1 198.95 297.95 M202.55 288.0 Q205.6 294.25 217.15 298.95 L372.85 355.6" fill="none" stroke="#000000" stroke-linecap="round" stroke-linejoin="round" stroke-opacity="0.2509804" stroke-width="0.5"/>
    <path d="M137.6 273.65 Q145.5 276.4 149.4 278.7 L149.3 278.9 Q149.8 279.7 150.75 279.4 M152.25 270.9 Q147.8 270.1 139.95 267.15" fill="none" stroke="#000000" stroke-linecap="round" stroke-linejoin="round" stroke-width="2.0"/>
  </g>
  <defs>
    <linearGradient gradientTransform="matrix(-0.0021, 0.0058, -0.103, -0.0375, 286.95, 324.7)" gradientUnits="userSpaceOnUse" id="gradient0" spreadMethod="pad" x1="-819.2" x2="819.2">
      <stop offset="0.0" stop-color="#000000" stop-opacity="0.0"/>
      <stop offset="1.0" stop-color="#000000" stop-opacity="0.2509804"/>
    </linearGradient>
  </defs>
</svg>
