<?xml version="1.0" encoding="UTF-8" standalone="no"?>
<svg xmlns:xlink="http://www.w3.org/1999/xlink" height="110.25px" width="291.95px" xmlns="http://www.w3.org/2000/svg">
  <g transform="matrix(1.0, 0.0, 0.0, 1.0, -87.95, -249.7)">
    <path d="M233.0 300.3 L238.4 302.25 238.55 303.7 Q241.55 304.7 242.9 304.1 L243.3 305.45 Q246.25 306.4 247.65 305.85 L248.0 307.15 Q251.0 308.1 252.35 307.55 L252.75 308.9 Q255.75 309.85 257.1 309.25 L257.45 310.6 Q260.45 311.55 261.85 311.0 L262.2 312.3 Q265.2 313.3 266.55 312.7 L266.9 314.05 Q269.9 315.0 271.3 314.45 L271.65 315.75 Q274.65 316.75 276.0 316.15 L276.4 317.5 Q279.35 318.45 280.75 317.85 L281.1 319.2 Q284.1 320.15 285.45 319.6 L285.85 320.9 Q288.85 321.9 290.2 321.3 L290.55 322.65 Q293.55 323.6 294.95 323.05 L295.3 324.35 Q298.3 325.35 299.65 324.75 L300.0 326.1 Q303.0 327.05 304.4 326.5 L304.75 327.8 Q307.75 328.75 309.1 328.2 L309.5 329.55 Q312.45 330.5 313.85 329.9 L314.2 331.25 Q317.2 332.2 318.55 331.65 L318.95 332.95 Q321.9 333.95 323.3 333.35 L323.65 334.7 Q326.65 335.65 328.05 335.1 L328.4 336.4 Q331.4 337.4 332.75 336.8 L333.1 338.15 Q336.1 339.1 337.5 338.55 L337.85 339.85 Q340.85 340.8 342.2 340.25 L342.6 341.6 346.95 341.95 347.3 343.3 Q350.3 344.25 351.65 343.7 L352.05 345.0 Q355.0 346.0 356.4 345.4 L356.75 346.75 Q359.75 347.7 361.15 347.15 L361.45 348.25 366.8 348.45 Q376.2 353.95 378.9 358.25 374.1 359.8 363.35 358.0 362.2 355.55 359.1 354.75 L358.15 355.35 Q357.45 354.0 354.55 352.85 L353.4 353.65 Q352.75 352.3 349.8 351.15 L348.65 351.9 Q348.0 350.55 345.1 349.4 L343.95 350.2 Q343.25 348.85 340.35 347.7 L339.2 348.5 Q338.55 347.15 335.6 345.95 L334.5 346.75 Q333.8 345.4 330.9 344.25 L329.75 345.05 Q329.1 343.7 326.15 342.55 L325.05 343.3 Q324.35 341.95 321.45 340.8 L320.3 341.6 Q319.65 340.25 316.7 339.1 L315.55 339.85 Q314.9 338.5 312.0 337.35 L310.85 338.15 Q310.15 336.8 307.25 335.65 L306.1 336.45 Q305.45 335.1 302.5 333.95 L301.4 334.7 Q300.7 333.35 297.8 332.2 L296.65 333.0 Q296.0 331.65 293.05 330.5 L291.95 331.25 Q291.25 329.9 288.35 328.75 L287.2 329.55 Q286.55 328.2 283.6 327.05 L282.5 327.85 Q281.8 326.5 278.9 325.3 L277.75 326.1 Q277.05 324.75 274.15 323.6 L273.0 324.4 Q272.35 323.05 269.45 321.9 L268.3 322.65 Q267.6 321.3 264.7 320.15 L263.55 320.95 Q262.9 319.6 259.95 318.45 L258.85 319.2 Q258.15 317.85 255.25 316.7 L254.1 317.5 Q253.45 316.15 250.5 315.0 L249.4 315.8 Q248.7 314.45 245.8 313.3 L244.65 314.05 Q243.95 312.7 241.05 311.55 L239.9 312.35 Q239.25 311.0 236.35 309.85 L236.3 309.85 235.25 310.85 229.9 308.9 233.0 300.3 M341.1 346.6 L340.35 347.7 341.1 346.6 M350.6 350.05 L349.8 351.15 350.6 350.05 M345.85 348.35 L345.1 349.4 345.85 348.35 M355.3 351.8 L354.55 352.85 355.3 351.8 M360.05 353.5 L359.25 354.6 359.1 354.75 359.25 354.6 360.05 353.5 M356.65 348.05 L356.75 346.75 356.65 348.05 M361.4 349.8 L361.5 348.45 361.45 348.25 361.5 348.45 361.4 349.8 M347.2 344.6 L347.3 343.3 347.2 344.6 M351.95 346.35 L352.05 345.0 351.95 346.35 M342.5 342.9 L342.6 341.6 342.5 342.9 M336.4 344.9 L335.6 345.95 336.4 344.9 M337.75 341.15 L337.85 339.85 337.75 341.15 M331.65 343.2 L330.9 344.25 331.65 343.2 M326.95 341.45 L326.15 342.55 326.95 341.45 M328.3 337.75 L328.4 336.4 328.3 337.75 M333.0 339.45 L333.1 338.15 333.0 339.45 M241.8 310.5 L241.05 311.55 241.8 310.5 M270.2 320.8 L269.45 321.9 270.2 320.8 M279.65 324.25 L278.9 325.3 279.65 324.25 M274.9 322.55 L274.15 323.6 274.9 322.55 M252.65 310.2 L252.75 308.9 252.65 310.2 M260.75 317.35 L259.95 318.45 260.75 317.35 M256.0 315.65 L255.25 316.7 256.0 315.65 M257.35 311.9 L257.45 310.6 257.35 311.9 M262.1 313.65 L262.2 312.3 262.1 313.65 M251.3 313.9 L250.5 315.0 251.3 313.9 M246.55 312.2 L245.8 313.3 246.55 312.2 M247.9 308.45 L248.0 307.15 247.9 308.45 M243.2 306.75 L243.3 305.45 243.2 306.75 M281.0 320.5 L281.1 319.2 281.0 320.5 M276.3 318.8 L276.4 317.5 276.3 318.8 M265.45 319.1 L264.7 320.15 265.45 319.1 M271.55 317.1 L271.65 315.75 271.55 317.1 M266.8 315.35 L266.9 314.05 266.8 315.35 M285.75 322.25 L285.85 320.9 285.75 322.25 M318.85 334.3 L318.95 332.95 318.85 334.3 M323.55 336.0 L323.65 334.7 323.55 336.0 M322.2 339.75 L321.45 340.8 322.2 339.75 M317.5 338.0 L316.7 339.1 317.5 338.0 M312.75 336.3 L312.0 337.35 312.75 336.3 M308.0 334.55 L307.25 335.65 308.0 334.55 M309.4 330.85 L309.5 329.55 309.4 330.85 M304.65 329.15 L304.75 327.8 304.65 329.15 M314.1 332.55 L314.2 331.25 314.1 332.55 M293.85 329.4 L293.05 330.5 293.85 329.4 M290.45 323.95 L290.55 322.65 290.45 323.95 M289.1 327.7 L288.35 328.75 289.1 327.7 M284.4 325.95 L283.6 327.05 284.4 325.95 M303.3 332.85 L302.5 333.95 303.3 332.85 M298.55 331.15 L297.8 332.2 298.55 331.15 M299.9 327.4 L300.0 326.1 299.9 327.4 M295.2 325.7 L295.3 324.35 295.2 325.7" fill="url(#gradient0)" fill-rule="evenodd" stroke="none"/>
    <path d="M226.35 308.1 L214.6 303.8 216.35 299.1 228.05 303.35 226.35 308.1 M206.0 300.35 L173.75 288.65 174.6 286.35 174.7 286.15 174.75 285.95 175.4 284.25 207.6 295.95 206.0 300.35 M102.75 259.8 L103.35 258.1 131.25 268.2 130.25 270.9 Q109.45 263.35 102.75 259.8 M100.55 259.0 L96.1 259.05 Q93.4 259.1 92.0 257.95 90.55 256.8 90.9 254.65 L91.1 253.65 101.15 257.3 100.55 259.0 M131.65 270.2 L132.2 268.55 144.25 272.95 143.4 275.2 Q140.8 275.65 136.8 274.15 133.35 272.75 131.65 270.2 M144.15 276.2 L145.2 273.3 170.75 282.55 169.5 286.0 144.15 276.2 M208.95 296.45 L215.0 298.65 213.5 302.8 207.4 300.55 208.95 296.45" fill="#000000" fill-opacity="0.2509804" fill-rule="evenodd" stroke="none"/>
    <path d="M233.0 300.3 L238.4 302.25 238.55 303.7 Q241.55 304.7 242.9 304.1 L243.3 305.45 Q246.25 306.4 247.65 305.85 L248.0 307.15 Q251.0 308.1 252.35 307.55 L252.75 308.9 Q255.75 309.85 257.1 309.25 L257.45 310.6 Q260.45 311.55 261.85 311.0 L262.2 312.3 Q265.2 313.3 266.55 312.7 L266.9 314.05 Q269.9 315.0 271.3 314.45 L271.65 315.75 Q274.65 316.75 276.0 316.15 L276.4 317.5 Q279.35 318.45 280.75 317.85 L281.1 319.2 Q284.1 320.15 285.45 319.6 L285.85 320.9 Q288.85 321.9 290.2 321.3 L290.55 322.65 Q293.55 323.6 294.95 323.05 L295.3 324.35 Q298.3 325.35 299.65 324.75 L300.0 326.1 Q303.0 327.05 304.4 326.5 L304.75 327.8 Q307.75 328.75 309.1 328.2 L309.5 329.55 Q312.45 330.5 313.85 329.9 L314.2 331.25 Q317.2 332.2 318.55 331.65 L318.95 332.95 Q321.9 333.95 323.3 333.35 L323.65 334.7 Q326.65 335.65 328.05 335.1 L328.4 336.4 Q331.4 337.4 332.75 336.8 L333.1 338.15 Q336.1 339.1 337.5 338.55 L337.85 339.85 Q340.85 340.8 342.2 340.25 L342.6 341.6 346.95 341.95 347.3 343.3 Q350.3 344.25 351.65 343.7 L352.05 345.0 Q355.0 346.0 356.4 345.4 L356.75 346.75 Q359.75 347.7 361.15 347.15 L361.45 348.25 366.8 348.45 Q376.2 353.95 378.9 358.25 374.1 359.8 363.35 358.0 362.2 355.55 359.1 354.75 L358.15 355.35 Q357.45 354.0 354.55 352.85 L353.4 353.65 Q352.75 352.3 349.8 351.15 L348.65 351.9 Q348.0 350.55 345.1 349.4 L343.95 350.2 Q343.25 348.85 340.35 347.7 L339.2 348.5 Q338.55 347.15 335.6 345.95 L334.5 346.75 Q333.8 345.4 330.9 344.25 L329.75 345.05 Q329.1 343.7 326.15 342.55 L325.05 343.3 Q324.35 341.95 321.45 340.8 L320.3 341.6 Q319.65 340.25 316.7 339.1 L315.55 339.85 Q314.9 338.5 312.0 337.35 L310.85 338.15 Q310.15 336.8 307.25 335.65 L306.1 336.45 Q305.45 335.1 302.5 333.95 L301.4 334.7 Q300.7 333.35 297.8 332.2 L296.65 333.0 Q296.0 331.65 293.05 330.5 L291.95 331.25 Q291.25 329.9 288.35 328.75 L287.2 329.55 Q286.55 328.2 283.6 327.05 L282.5 327.85 Q281.8 326.5 278.9 325.3 L277.75 326.1 Q277.05 324.75 274.15 323.6 L273.0 324.4 Q272.35 323.05 269.45 321.9 L268.3 322.65 Q267.6 321.3 264.7 320.15 L263.55 320.95 Q262.9 319.6 259.95 318.45 L258.85 319.2 Q258.15 317.85 255.25 316.7 L254.1 317.5 Q253.45 316.15 250.5 315.0 L249.4 315.8 Q248.7 314.45 245.8 313.3 L244.65 314.05 Q243.95 312.7 241.05 311.55 L239.9 312.35 Q239.25 311.0 236.35 309.85 L236.3 309.85 235.25 310.85 229.9 308.9 229.75 309.25 227.7 308.5 227.55 308.9 Q226.7 309.2 226.25 308.4 L226.35 308.1 214.6 303.8 214.5 304.15 Q213.6 304.45 213.15 303.65 208.65 312.8 209.7 318.15 203.2 313.25 207.1 301.45 206.2 301.75 205.75 300.95 L206.0 300.35 173.75 288.65 173.3 289.95 173.2 290.3 173.1 290.45 Q172.45 292.95 174.5 294.0 172.35 293.2 172.2 292.75 171.2 294.9 170.75 297.15 169.65 302.8 172.2 308.85 L173.2 311.0 Q171.05 313.45 171.6 316.75 L171.75 317.1 170.55 315.4 Q169.5 315.75 168.5 319.15 L167.8 318.8 Q169.05 315.65 169.25 314.15 L168.8 312.55 168.75 312.5 Q167.45 310.25 167.1 309.0 166.1 305.55 169.0 294.25 168.45 292.2 169.35 289.55 M180.15 271.3 Q182.95 266.25 188.8 263.25 L190.95 262.25 Q190.9 258.95 193.45 256.8 L193.75 256.65 191.75 257.2 Q191.2 256.25 192.6 252.95 L191.85 252.8 Q190.75 256.0 189.95 257.25 189.5 257.8 188.55 258.2 L188.5 258.2 Q186.05 259.1 184.95 259.85 182.0 261.85 176.95 272.4 175.25 273.6 174.25 276.15 M180.15 271.3 Q179.05 273.25 178.4 275.6 178.85 275.35 181.0 276.1 L181.35 276.2 181.65 276.3 M177.7 277.95 Q178.75 275.55 181.0 276.1 M177.7 277.95 L177.65 278.1 177.45 278.45 177.0 279.75 209.2 291.45 209.45 290.85 Q210.3 290.55 210.75 291.35 215.4 279.75 223.5 280.2 219.25 283.6 216.85 293.55 217.7 293.25 218.15 294.05 L218.05 294.35 229.8 298.65 229.9 298.3 Q230.75 298.0 231.25 298.8 L231.1 299.2 233.15 299.95 233.0 300.3" fill="none" stroke="#000000" stroke-linecap="round" stroke-linejoin="round" stroke-width="2.0"/>
    <path d="M333.1 338.15 L333.0 339.45 M328.4 336.4 L328.3 337.75 M326.15 342.55 L326.95 341.45 M330.9 344.25 L331.65 343.2 M337.85 339.85 L337.75 341.15 M335.6 345.95 L336.4 344.9 M342.6 341.6 L342.5 342.9 M352.05 345.0 L351.95 346.35 M347.3 343.3 L347.2 344.6 M361.45 348.25 L361.5 348.45 361.4 349.8 M356.75 346.75 L356.65 348.05 M359.1 354.75 L359.25 354.6 360.05 353.5 M354.55 352.85 L355.3 351.8 M345.1 349.4 L345.85 348.35 M349.8 351.15 L350.6 350.05 M340.35 347.7 L341.1 346.6 M103.35 258.1 L104.05 256.2 M103.35 258.1 L102.75 259.8 M90.9 254.65 L91.1 253.65 91.15 253.55 91.65 252.5 M101.15 257.3 L101.85 255.4 M101.15 257.3 L100.55 259.0 M132.2 268.55 L131.65 270.2 M143.4 275.2 L144.25 272.95 145.1 270.5 M132.2 268.55 L132.85 266.8 M176.95 272.4 Q178.3 271.4 180.15 271.3 M181.65 276.3 Q183.9 277.2 184.4 280.15 184.9 282.55 187.0 283.3 188.85 283.8 190.15 282.45 191.15 281.1 190.65 279.75 190.05 278.2 188.15 278.1 186.7 278.35 186.45 279.65 186.25 280.75 187.4 281.1 188.5 281.5 188.9 280.6 189.1 279.9 188.25 279.7 M193.75 256.65 Q196.1 255.35 198.15 256.7 199.6 258.1 198.4 259.95 197.45 261.15 195.75 260.75 194.0 260.0 194.5 258.65 195.2 257.15 196.65 257.9 197.4 258.35 196.8 258.95 L196.2 258.95 M233.0 300.3 L229.9 308.9 M172.65 280.4 L172.3 281.35 171.75 282.85 171.7 282.9 171.2 284.35 170.85 285.3 170.5 286.35 M175.4 284.2 L176.05 282.45 176.2 282.0 177.0 279.75 M172.65 280.4 L173.0 279.4 M175.4 284.2 L175.4 284.25 174.75 285.95 174.6 286.35 173.75 288.65 M170.75 282.55 L172.05 279.05 M169.0 294.25 Q169.4 295.9 170.75 297.15 M170.75 282.55 L169.5 286.0 M215.0 298.65 L216.5 294.45 210.45 292.25 208.95 296.45 207.4 300.55 207.1 301.45 M215.0 298.65 L213.5 302.8 213.15 303.65 M210.75 291.35 L210.45 292.25 M216.5 294.45 L216.85 293.55 M241.05 311.55 L241.8 310.5 M213.5 302.8 L207.4 300.55 M171.75 317.1 Q172.7 319.6 175.15 319.9 177.15 319.75 177.45 317.55 177.5 316.0 175.95 315.25 174.15 314.65 173.6 316.0 173.2 317.65 174.75 318.0 175.6 318.1 175.55 317.25 L175.1 316.9 M295.3 324.35 L295.2 325.7 M300.0 326.1 L299.9 327.4 M297.8 332.2 L298.55 331.15 M302.5 333.95 L303.3 332.85 M283.6 327.05 L284.4 325.95 M288.35 328.75 L289.1 327.7 M290.55 322.65 L290.45 323.95 M293.05 330.5 L293.85 329.4 M314.2 331.25 L314.1 332.55 M304.75 327.8 L304.65 329.15 M309.5 329.55 L309.4 330.85 M307.25 335.65 L308.0 334.55 M312.0 337.35 L312.75 336.3 M316.7 339.1 L317.5 338.0 M321.45 340.8 L322.2 339.75 M323.65 334.7 L323.55 336.0 M318.95 332.95 L318.85 334.3 M285.85 320.9 L285.75 322.25 M266.9 314.05 L266.8 315.35 M271.65 315.75 L271.55 317.1 M264.7 320.15 L265.45 319.1 M276.4 317.5 L276.3 318.8 M281.1 319.2 L281.0 320.5 M243.3 305.45 L243.2 306.75 M248.0 307.15 L247.9 308.45 M245.8 313.3 L246.55 312.2 M250.5 315.0 L251.3 313.9 M262.2 312.3 L262.1 313.65 M257.45 310.6 L257.35 311.9 M255.25 316.7 L256.0 315.65 M259.95 318.45 L260.75 317.35 M252.75 308.9 L252.65 310.2 M274.15 323.6 L274.9 322.55 M278.9 325.3 L279.65 324.25 M269.45 321.9 L270.2 320.8" fill="none" stroke="#000000" stroke-linecap="round" stroke-linejoin="round" stroke-width="1.0"/>
    <path d="M130.25 270.9 L131.25 268.2 132.3 265.35 M144.15 276.2 L145.2 273.3 146.3 270.25 M181.0 276.1 L181.65 276.3 M174.25 276.15 Q174.5 275.8 174.9 275.6 L176.45 275.55 Q177.25 275.8 177.55 276.55 177.85 277.2 177.7 277.95 M177.45 278.45 L176.6 279.2 175.1 279.25 Q174.3 278.95 173.95 278.25 173.7 277.75 173.8 277.25 M174.75 277.05 Q174.6 277.45 174.8 277.9 L175.4 278.45 176.25 278.4 176.8 277.8 Q176.95 277.4 176.75 276.95 L176.15 276.4 175.3 276.45 174.75 277.05 M172.3 281.35 Q172.2 281.85 172.45 282.4 172.8 283.1 173.6 283.4 L175.1 283.35 176.05 282.45 176.1 282.25 176.2 282.0 Q176.35 281.3 176.05 280.7 175.75 279.95 174.95 279.7 L173.4 279.75 Q172.9 279.95 172.65 280.4 M171.75 282.85 L175.4 284.2 M173.8 280.6 Q173.4 280.75 173.25 281.2 173.1 281.6 173.3 282.05 173.45 282.45 173.9 282.6 L174.7 282.55 175.3 281.95 175.25 281.1 174.65 280.55 173.8 280.6 M173.2 284.45 L173.85 285.0 173.85 285.85 173.3 286.45 172.45 286.5 171.85 285.95 Q171.65 285.5 171.8 285.1 171.95 284.65 172.4 284.5 L173.2 284.45 M207.6 295.95 L209.2 291.45 M174.75 285.95 Q174.9 285.25 174.65 284.65 174.3 283.9 173.5 283.65 172.7 283.35 172.0 283.65 L171.2 284.35 M170.85 285.3 Q170.8 285.8 171.0 286.3 171.35 287.05 172.15 287.35 L173.65 287.3 174.6 286.35 174.7 286.15 174.75 285.95 M173.1 290.45 L172.15 291.4 170.65 291.5 Q169.85 291.2 169.5 290.45 L169.35 289.6 169.35 289.55 M171.7 288.6 L172.3 289.15 Q172.5 289.55 172.35 290.0 L171.8 290.6 170.95 290.65 170.35 290.05 Q170.15 289.65 170.3 289.25 170.45 288.8 170.9 288.65 L171.7 288.6 M173.3 289.95 L173.1 288.8 Q172.75 288.05 172.0 287.8 171.2 287.5 170.5 287.8 169.95 288.05 169.7 288.5 M229.8 298.65 L228.05 303.35 226.35 308.1 M231.1 299.2 L227.7 308.5 M214.6 303.8 L216.35 299.1 218.05 294.35 M206.0 300.35 L207.6 295.95" fill="none" stroke="#000000" stroke-linecap="round" stroke-linejoin="round" stroke-width="0.5"/>
    <path d="M174.5 294.0 L174.85 294.15 175.0 294.2 175.1 294.25 Q177.4 295.0 179.7 293.1 181.65 291.55 183.75 292.35 185.5 293.15 185.55 295.0 185.5 296.7 184.2 297.4 182.75 298.2 181.25 297.05 180.3 295.9 180.9 294.75 181.5 293.8 182.6 294.25 183.75 294.65 183.45 295.65 183.15 296.3 182.35 295.9" fill="none" stroke="#000000" stroke-linecap="round" stroke-linejoin="round" stroke-width="1.0"/>
    <path d="M169.35 289.45 L170.5 286.35 Q170.15 286.45 169.5 286.0 L144.15 276.2 144.05 276.5 Q143.4 276.65 143.05 276.15 L143.4 275.2 Q140.8 275.65 136.8 274.15 133.35 272.75 131.65 270.2 L131.25 271.25 Q130.6 271.4 130.25 270.9 109.45 263.35 102.75 259.8 L100.55 259.0 96.1 259.05 Q93.4 259.1 92.0 257.95 90.55 256.8 90.9 254.65 L89.15 254.0 Q88.85 253.45 89.0 252.9 L89.05 252.75 Q89.25 252.1 89.9 251.85 L91.65 252.5 Q92.8 250.6 94.65 250.7 96.45 250.7 98.5 252.5 L101.85 255.4 104.05 256.2 Q111.5 257.8 132.3 265.35 132.9 265.2 133.25 265.7 L132.85 266.8 139.35 267.05 Q143.4 268.45 145.1 270.5 L145.45 269.6 Q146.05 269.4 146.45 269.95 L146.3 270.25 172.05 279.05 Q172.85 279.1 173.0 279.4 L174.15 276.25" fill="none" stroke="#000000" stroke-linecap="round" stroke-linejoin="round" stroke-width="2.0"/>
  </g>
  <defs>
    <linearGradient gradientTransform="matrix(-0.0014, 0.0038, -0.0899, -0.0324, 300.35, 329.45)" gradientUnits="userSpaceOnUse" id="gradient0" spreadMethod="pad" x1="-819.2" x2="819.2">
      <stop offset="0.0" stop-color="#000000" stop-opacity="0.0"/>
      <stop offset="1.0" stop-color="#000000" stop-opacity="0.2509804"/>
    </linearGradient>
  </defs>
</svg>
