<?xml version="1.0" encoding="UTF-8" standalone="no"?>
<svg xmlns:xlink="http://www.w3.org/1999/xlink" height="84.0px" width="119.75px" xmlns="http://www.w3.org/2000/svg">
  <g transform="matrix(1.0, 0.0, 0.0, 1.0, -109.55, -258.6)">
    <path d="M119.9 265.0 Q121.0 263.3 123.8 263.8 125.25 262.15 126.9 261.4 127.65 261.05 128.45 260.95 L128.8 260.0 Q130.6 258.85 131.45 261.15 L132.65 262.05 134.9 263.55 Q138.25 265.6 142.05 266.95 L142.75 266.6 Q143.7 266.4 144.15 267.8 L143.25 270.7 142.5 272.95 140.95 277.75 Q139.35 279.6 138.65 277.1 L138.65 277.05 131.35 275.85 126.1 275.7 Q123.75 276.9 123.45 274.6 L123.85 273.55 122.5 271.95 121.75 268.15 121.75 268.0 121.35 267.85 Q119.75 266.6 119.9 265.0 M123.8 263.8 L122.3 265.8 122.3 265.85 Q121.85 266.95 121.75 268.0 121.85 266.95 122.3 265.85 L122.3 265.8 123.8 263.8 M128.45 260.95 L123.85 273.55 128.45 260.95 M131.45 261.15 L126.1 275.7 131.45 261.15 M138.65 277.05 L142.05 266.95 138.65 277.05" fill="url(#gradient0)" fill-rule="evenodd" stroke="none"/>
    <path d="M145.6 268.35 L146.8 268.2 Q147.9 268.3 148.45 269.4 150.35 268.6 150.55 270.1 152.05 269.75 152.85 270.45 L153.45 271.15 Q155.75 270.75 156.65 272.3 158.75 271.3 159.25 273.3 161.55 272.55 162.1 274.3 164.2 273.6 165.2 275.4 167.0 274.5 167.9 276.45 169.85 276.0 170.6 277.4 172.5 277.05 173.4 278.4 175.1 278.05 176.6 279.55 L173.35 283.7 181.5 286.55 Q180.6 286.7 179.65 287.2 L174.85 290.5 169.6 288.5 173.35 283.7 170.2 282.6 167.45 281.65 164.55 280.6 167.9 276.45 164.55 280.6 161.8 279.65 158.8 278.6 155.8 277.55 159.25 273.3 155.8 277.55 153.2 276.65 156.65 272.3 153.2 276.65 149.9 275.5 147.1 274.5 144.6 273.65 142.5 272.95 143.25 270.7 145.6 268.35 M148.45 269.4 L144.6 273.65 148.45 269.4 M165.2 275.4 L161.8 279.65 165.2 275.4 M153.45 271.15 L149.9 275.5 153.45 271.15 M150.55 270.1 L147.1 274.5 150.55 270.1 M173.4 278.4 L170.2 282.6 173.4 278.4 M167.45 281.65 L170.6 277.4 167.45 281.65 M203.55 294.3 Q198.45 295.3 191.6 293.25 188.75 292.45 187.35 290.35 186.65 288.9 185.55 288.0 L203.55 294.3 M162.1 274.3 L158.8 278.6 162.1 274.3" fill="#000000" fill-opacity="0.2509804" fill-rule="evenodd" stroke="none"/>
    <path d="M169.6 288.5 Q167.5 288.7 166.6 287.35 164.8 287.45 163.95 286.35 161.65 286.75 160.85 285.2 158.95 285.4 158.1 284.2 156.2 284.75 155.4 283.15 153.1 283.5 152.2 282.0 150.5 282.05 149.65 281.05 L148.15 281.0 Q147.1 280.75 146.55 279.95 L146.45 279.8 146.4 279.8 Q144.5 280.1 143.75 278.8 L143.7 278.8 Q141.75 279.0 140.95 277.75 L142.5 272.95 144.6 273.65 147.1 274.5 149.9 275.5 146.45 279.8 149.9 275.5 153.2 276.65 155.8 277.55 158.8 278.6 161.8 279.65 158.1 284.2 161.8 279.65 164.55 280.6 167.45 281.65 170.2 282.6 166.6 287.35 170.2 282.6 173.35 283.7 169.6 288.5 M149.65 281.05 L153.2 276.65 149.65 281.05 M158.8 278.6 L155.4 283.15 158.8 278.6 M152.2 282.0 L155.8 277.55 152.2 282.0 M143.7 278.8 L147.1 274.5 143.7 278.8 M144.6 273.65 L140.95 277.75 144.6 273.65 M160.85 285.2 L164.55 280.6 160.85 285.2 M163.95 286.35 L167.45 281.65 163.95 286.35" fill="#000000" fill-opacity="0.5019608" fill-rule="evenodd" stroke="none"/>
    <path d="M207.4 288.45 Q212.15 291.6 218.55 292.6 220.3 289.45 222.75 292.65 223.2 294.45 223.25 296.4 223.3 298.6 222.85 301.05 L222.65 302.1 221.55 305.7 220.4 308.6 Q218.35 315.05 220.6 317.15 223.85 319.45 226.3 316.3 223.1 333.35 228.3 341.6 L222.45 341.5 214.6 340.95 207.0 339.95 203.45 339.25 Q197.75 338.1 192.5 336.35 L189.1 335.15 Q185.85 333.9 182.75 332.45 L176.1 328.9 Q172.1 326.55 168.4 323.8 163.2 319.95 158.6 315.25 152.3 308.85 147.0 300.85 153.8 305.45 161.6 300.75 163.65 297.45 165.15 298.35 167.0 299.85 164.85 300.95 166.05 302.45 167.8 301.2 178.4 313.7 191.5 314.45 201.9 313.0 203.5 306.2 203.2 301.3 197.25 298.85 L184.1 293.95 180.2 292.45 177.45 291.45 Q180.05 288.55 182.55 288.8 184.7 289.35 185.55 291.0 187.0 294.0 191.4 295.05 L196.9 296.1 Q202.8 296.85 205.8 295.5 L206.2 295.2 Q207.55 294.05 208.1 292.35 208.7 290.3 207.4 288.45 M153.8 305.2 Q156.4 304.9 158.75 305.1 164.0 305.55 168.1 308.3 170.05 309.65 171.8 311.55 L175.65 314.5 Q178.35 316.4 181.35 317.95 L186.05 320.1 189.15 321.25 Q194.1 322.95 199.55 323.8 L203.6 324.25 203.65 324.25 Q207.35 324.6 210.65 325.4 214.4 326.3 217.75 327.75 L218.6 328.15 221.3 329.55 218.6 328.15 217.75 327.75 Q214.4 326.3 210.65 325.4 207.35 324.6 203.65 324.25 L203.6 324.25 199.55 323.8 Q194.1 322.95 189.15 321.25 L186.05 320.1 181.35 317.95 Q178.35 316.4 175.65 314.5 L171.8 311.55 Q170.05 309.65 168.1 308.3 164.0 305.55 158.75 305.1 156.4 304.9 153.8 305.2 M207.35 302.45 L210.1 303.9 Q212.95 305.2 216.05 306.15 218.4 306.85 217.95 309.25 216.4 315.25 218.4 319.4 219.5 320.6 220.7 320.9 L223.05 320.7 220.7 320.9 Q219.5 320.6 218.4 319.4 216.4 315.25 217.95 309.25 218.4 306.85 216.05 306.15 212.95 305.2 210.1 303.9 L207.35 302.45" fill="url(#gradient1)" fill-rule="evenodd" stroke="none"/>
    <path d="M138.65 277.1 Q121.25 283.1 117.1 280.45 112.9 277.8 110.95 271.85 109.8 264.9 112.05 263.45 113.95 263.2 115.75 263.5 L115.9 263.5 Q117.95 263.85 119.9 264.9 M119.9 265.0 Q121.0 263.3 123.8 263.8 125.25 262.15 126.9 261.4 127.65 261.05 128.45 260.95 L128.8 260.0 Q130.6 258.85 131.45 261.15 L132.65 262.05 134.9 263.55 Q138.25 265.6 142.05 266.95 L142.75 266.6 Q143.7 266.4 144.15 267.8 L145.6 268.35 146.8 268.2 Q147.9 268.3 148.45 269.4 150.35 268.6 150.55 270.1 152.05 269.75 152.85 270.45 L153.45 271.15 Q155.75 270.75 156.65 272.3 158.75 271.3 159.25 273.3 161.55 272.55 162.1 274.3 164.2 273.6 165.2 275.4 167.0 274.5 167.9 276.45 169.85 276.0 170.6 277.4 172.5 277.05 173.4 278.4 175.1 278.05 176.6 279.55 L199.85 287.9 Q203.2 289.05 205.45 288.7 205.95 287.05 207.35 288.4 M146.55 279.95 L146.45 279.85 M143.75 278.8 L143.7 278.8 Q141.75 279.0 140.95 277.75 139.35 279.6 138.65 277.1 L138.65 277.05 131.35 275.85 Q121.5 280.35 114.35 271.7 L113.9 270.95 Q117.75 269.55 122.5 271.95 L123.85 273.55 123.45 274.6 Q123.75 276.9 126.1 275.7 L131.35 275.85 M121.35 267.85 L121.75 268.0 M146.45 279.8 L146.4 279.8 Q144.5 280.1 143.75 278.8" fill="none" stroke="#000000" stroke-linecap="round" stroke-linejoin="round" stroke-width="2.0"/>
    <path d="M119.9 264.9 L119.9 265.0 Q119.75 266.6 121.35 267.85 L121.75 268.15 122.5 271.95 M207.35 288.4 L207.4 288.4 207.4 288.45 Q208.7 290.3 208.1 292.35 207.55 294.05 206.2 295.2 L205.8 295.5 Q202.8 296.85 196.9 296.1 L191.4 295.05 Q187.0 294.0 185.55 291.0 184.7 289.35 182.55 288.8 180.05 288.55 177.45 291.45 M148.15 281.0 Q147.1 280.75 146.55 279.95 L146.45 279.8 149.9 275.5 153.45 271.15 M146.45 279.85 L146.4 279.8 Q143.9 280.3 143.75 278.8 M113.9 270.95 Q112.3 267.5 114.8 265.2 M121.75 268.0 Q121.85 266.95 122.3 265.85 L122.3 265.8 123.8 263.8 M143.25 270.7 L144.15 267.8 M145.6 268.35 L143.25 270.7 142.5 272.95 140.95 277.75 144.6 273.65 148.45 269.4 M121.75 268.0 L121.75 268.15 M123.85 273.55 L128.45 260.95 M126.1 275.7 L131.45 261.15 M153.2 276.65 L156.65 272.3 M153.2 276.65 L149.65 281.05 M161.8 279.65 L165.2 275.4 M161.8 279.65 L158.1 284.2 M155.4 283.15 L158.8 278.6 162.1 274.3 M155.8 277.55 L152.2 282.0 M159.25 273.3 L155.8 277.55 M147.1 274.5 L143.7 278.8 M147.1 274.5 L150.55 270.1 M142.05 266.95 L138.65 277.05 M221.3 329.55 L218.6 328.15 217.75 327.75 Q214.4 326.3 210.65 325.4 207.35 324.6 203.65 324.25 L203.6 324.25 199.55 323.8 Q194.1 322.95 189.15 321.25 L186.05 320.1 181.35 317.95 Q178.35 316.4 175.65 314.5 L171.8 311.55 Q170.05 309.65 168.1 308.3 164.0 305.55 158.75 305.1 156.4 304.9 153.8 305.2 M173.35 283.7 L176.6 279.55 M164.55 280.6 L160.85 285.2 M170.2 282.6 L173.4 278.4 M167.9 276.45 L164.55 280.6 M170.6 277.4 L167.45 281.65 163.95 286.35 M174.85 290.5 L179.65 287.2 Q180.6 286.7 181.5 286.55 183.25 286.25 184.6 287.35 L185.55 288.0 Q186.65 288.9 187.35 290.35 188.75 292.45 191.6 293.25 198.45 295.3 203.55 294.3 L205.3 293.85 Q207.95 291.7 205.45 288.7 M173.35 283.7 L169.6 288.5 M170.2 282.6 L166.6 287.35 M184.1 293.95 L180.2 292.45 M223.05 320.7 L220.7 320.9 Q219.5 320.6 218.4 319.4 216.4 315.25 217.95 309.25 218.4 306.85 216.05 306.15 212.95 305.2 210.1 303.9 L207.35 302.45 M223.25 296.4 Q223.3 298.6 222.85 301.05 L222.65 302.1 221.55 305.7" fill="none" stroke="#000000" stroke-linecap="round" stroke-linejoin="round" stroke-width="1.0"/>
    <path d="M207.4 288.45 Q212.15 291.6 218.55 292.6 220.3 289.45 222.75 292.65 223.2 294.45 223.25 296.4 226.3 297.8 225.75 302.15 225.15 305.3 221.55 305.7 L220.4 308.6 Q218.35 315.05 220.6 317.15 223.85 319.45 226.3 316.3 223.1 333.35 228.3 341.6 L222.45 341.5 214.6 340.95 207.0 339.95 203.45 339.25 Q197.75 338.1 192.5 336.35 L189.1 335.15 Q185.85 333.9 182.75 332.45 L176.1 328.9 Q172.1 326.55 168.4 323.8 163.2 319.95 158.6 315.25 152.3 308.85 147.0 300.85 153.8 305.45 161.6 300.75 163.65 297.45 165.15 298.35 167.0 299.85 164.85 300.95 166.05 302.45 167.8 301.2 178.4 313.7 191.5 314.45 201.9 313.0 203.5 306.2 203.2 301.3 197.25 298.85 L184.1 293.95 Q183.45 295.7 181.8 295.25 180.05 294.7 180.2 292.45 L177.45 291.45 Q174.65 292.45 174.85 290.5 L169.6 288.5 Q167.5 288.7 166.6 287.35 164.8 287.45 163.95 286.35 161.65 286.75 160.85 285.2 158.95 285.4 158.1 284.2 156.2 284.75 155.4 283.15 153.1 283.5 152.2 282.0 150.5 282.05 149.65 281.05 L148.15 281.0" fill="none" stroke="#000000" stroke-linecap="round" stroke-linejoin="round" stroke-width="2.0"/>
    <path d="M146.45 279.8 L146.45 279.85" fill="none" stroke="#000000" stroke-linecap="round" stroke-linejoin="round" stroke-width="2.0"/>
  </g>
  <defs>
    <linearGradient gradientTransform="matrix(-0.0024, 0.0091, -0.0078, -0.0021, 134.45, 269.95)" gradientUnits="userSpaceOnUse" id="gradient0" spreadMethod="pad" x1="-819.2" x2="819.2">
      <stop offset="0.0" stop-color="#000000" stop-opacity="0.0"/>
      <stop offset="1.0" stop-color="#000000" stop-opacity="0.2509804"/>
    </linearGradient>
    <linearGradient gradientTransform="matrix(-0.0085, 0.027, -0.0316, -0.01, 259.35, 335.15)" gradientUnits="userSpaceOnUse" id="gradient1" spreadMethod="pad" x1="-819.2" x2="819.2">
      <stop offset="0.0" stop-color="#000000" stop-opacity="0.0"/>
      <stop offset="1.0" stop-color="#000000" stop-opacity="0.2509804"/>
    </linearGradient>
  </defs>
</svg>
