<?xml version="1.0" encoding="UTF-8" standalone="no"?>
<svg xmlns:xlink="http://www.w3.org/1999/xlink" height="112.15px" width="227.1px" xmlns="http://www.w3.org/2000/svg">
  <g transform="matrix(1.0, 0.0, 0.0, 1.0, -92.8, -249.95)">
    <path d="M95.3 264.9 L93.8 262.9 Q94.1 259.95 95.05 257.05 95.85 254.35 97.25 251.75 L100.0 250.95 Q98.25 254.35 97.1 257.8 L298.2 327.1 300.4 321.05 Q301.25 321.85 302.5 322.65 L298.65 333.3 296.0 333.15 298.2 327.1 296.0 333.15 Q291.95 330.3 282.6 326.5 157.35 282.3 127.2 273.8 L95.3 264.9 Q95.9 261.3 97.1 257.8 95.9 261.3 95.3 264.9 M313.75 315.4 Q316.75 302.35 315.25 290.5 321.6 305.15 316.9 321.65 L314.5 322.35 316.9 321.65 318.6 325.6 313.4 339.95 311.8 340.3 309.8 340.6 311.8 340.3 313.4 339.95 311.1 342.2 Q309.4 350.05 311.35 354.75 L308.65 360.95 Q305.85 361.2 303.35 361.05 L305.85 354.85 Q305.55 348.3 307.55 342.8 L309.8 340.6 315.05 326.25 317.05 325.95 318.6 325.6 317.05 325.95 315.05 326.25 314.5 322.35 Q314.5 318.45 313.75 315.4 M311.1 342.2 L307.55 342.8 311.1 342.2 M305.85 354.85 L311.35 354.75 305.85 354.85" fill="#000000" fill-opacity="0.2509804" fill-rule="evenodd" stroke="none"/>
    <path d="M307.25 318.15 L308.65 320.2 307.25 318.15 Q310.9 311.7 315.25 290.5 316.75 302.35 313.75 315.4 L308.65 320.2 Q307.1 321.45 305.8 322.85 L304.4 321.35 303.45 320.1 304.4 321.35 305.8 322.85 300.55 337.2 299.2 335.7 298.2 334.45 299.2 335.7 300.55 337.2 300.85 340.3 300.85 340.35 298.5 337.6 300.85 340.35 Q298.8 345.85 294.4 350.7 293.2 353.9 292.35 357.05 290.3 355.55 288.35 353.55 289.15 350.15 290.25 347.1 294.75 344.75 298.5 337.6 L298.2 334.45 298.65 333.3 302.5 322.65 303.45 320.1 Q305.0 319.15 307.25 318.15 M290.25 347.1 L294.4 350.7 290.25 347.1" fill="#ffffff" fill-opacity="0.2509804" fill-rule="evenodd" stroke="none"/>
    <path d="M298.2 327.1 L300.4 321.05 M308.65 320.2 L307.25 318.15 M303.45 320.1 L304.4 321.35 305.8 322.85 Q307.1 321.45 308.65 320.2 L313.75 315.4 Q316.75 302.35 315.25 290.5 M308.65 320.2 L311.55 321.4 314.5 322.35 Q314.5 318.45 313.75 315.4 M298.2 327.1 L296.0 333.15 M300.55 337.2 L301.8 337.75 305.15 339.05 308.5 340.2 309.8 340.6 315.05 326.25 313.7 325.85 310.35 324.7 307.05 323.4 305.8 322.85 300.55 337.2 299.2 335.7 298.2 334.45 M300.85 340.35 L300.85 340.4 304.15 341.7 307.55 342.8 309.8 340.6 311.8 340.3 313.4 339.95 M318.6 325.6 L317.05 325.95 315.05 326.25 314.5 322.35 316.9 321.65 M307.55 342.8 L311.1 342.2 M311.35 354.75 L305.85 354.85 303.35 361.05 M305.85 354.85 L300.1 352.9 294.4 350.7 Q293.2 353.9 292.35 357.05 M294.4 350.7 L290.25 347.1 M294.4 350.7 Q298.8 345.85 300.85 340.35 M307.55 342.8 Q305.55 348.3 305.85 354.85" fill="none" stroke="#000000" stroke-linecap="round" stroke-linejoin="round" stroke-opacity="0.5019608" stroke-width="0.5"/>
    <path d="M95.3 264.9 L93.8 262.9 Q94.1 259.95 95.05 257.05 95.85 254.35 97.25 251.75 L100.0 250.95 M300.4 321.05 Q295.45 320.65 285.85 317.55 M307.25 318.15 Q305.0 319.15 303.45 320.1 L302.5 322.65 Q301.25 321.85 300.4 321.05 M315.25 290.5 Q310.9 311.7 307.25 318.15 M296.0 333.15 L298.65 333.3 298.2 334.45 298.5 337.6 Q294.75 344.75 290.25 347.1 289.15 350.15 288.35 353.55 290.3 355.55 292.35 357.05 L297.75 359.25 303.35 361.05 Q305.85 361.2 308.65 360.95 L311.35 354.75 Q309.4 350.05 311.1 342.2 L313.4 339.95 318.6 325.6 316.9 321.65 Q321.6 305.15 315.25 290.5 M296.0 333.15 Q291.95 330.3 282.6 326.5" fill="none" stroke="#000000" stroke-linecap="round" stroke-linejoin="round" stroke-width="2.0"/>
    <path d="M100.0 250.95 Q98.25 254.35 97.1 257.8 95.9 261.3 95.3 264.9" fill="none" stroke="#000000" stroke-linecap="round" stroke-linejoin="round" stroke-width="0.5"/>
    <path d="M298.65 333.3 L302.5 322.65" fill="none" stroke="#000000" stroke-linecap="round" stroke-linejoin="round" stroke-width="1.0"/>
    <path d="M298.5 337.6 L300.85 340.35 300.85 340.3 300.55 337.2" fill="none" stroke="#000000" stroke-linecap="round" stroke-linejoin="round" stroke-opacity="0.5019608" stroke-width="0.5"/>
    <path d="M100.0 250.95 L103.65 252.4 Q153.75 272.3 285.85 317.55 M282.6 326.5 Q157.35 282.3 127.2 273.8 L95.3 264.9" fill="none" stroke="#000000" stroke-linecap="round" stroke-linejoin="round" stroke-width="2.0"/>
  </g>
</svg>
