<?xml version="1.0" encoding="UTF-8" standalone="no"?>
<svg xmlns:xlink="http://www.w3.org/1999/xlink" height="127.6px" width="95.45px" xmlns="http://www.w3.org/2000/svg">
  <g transform="matrix(1.0, 0.0, 0.0, 1.0, -148.95, -236.25)">
    <path d="M172.4 347.05 Q180.7 349.8 189.05 349.9 186.65 345.5 185.4 340.05 L161.4 342.95 Q167.0 343.7 172.4 347.05 M151.7 343.45 Q151.05 342.0 152.6 341.55 154.05 341.15 154.6 342.1 L184.9 338.6 Q185.9 332.6 182.6 328.8 178.1 319.25 175.35 307.65 176.6 304.75 176.9 302.3 174.75 296.5 170.55 292.85 171.35 294.55 170.05 295.1 167.7 296.1 167.1 291.85 L167.0 291.6 169.95 290.8 169.95 289.85 Q173.05 290.7 175.9 295.15 174.6 292.9 174.05 289.6 173.95 288.3 174.15 287.0 L172.3 284.4 169.9 284.45 169.95 283.4 Q170.15 278.9 170.6 275.05 L170.6 271.0 Q167.3 260.3 162.3 252.05 158.6 244.0 160.8 239.4 164.55 236.45 169.55 236.25 174.15 235.95 175.55 240.95 179.85 257.95 184.95 274.95 L185.75 275.35 186.35 277.15 Q193.45 279.15 196.65 286.2 198.25 290.6 197.95 293.9 L203.8 312.05 Q203.85 310.8 205.1 310.6 206.1 309.5 207.45 309.0 207.05 303.0 212.0 301.4 214.5 301.0 214.3 303.55 213.6 308.85 209.9 310.1 210.15 311.45 209.55 312.75 210.25 314.4 208.6 315.15 208.7 317.6 206.2 318.95 202.25 320.5 201.4 316.85 L195.9 299.35 194.8 301.5 193.0 302.55 201.4 331.6 Q204.25 335.55 208.65 335.65 209.75 336.15 209.55 337.25 L209.0 338.4 Q206.5 339.95 204.1 339.85 L205.45 344.7 Q206.95 344.5 207.75 345.8 L207.9 346.55 Q216.45 345.1 223.2 340.55 227.8 336.65 232.6 334.55 L233.0 334.4 233.6 334.15 Q235.75 333.35 237.55 333.1 L237.85 332.25 Q238.3 331.5 239.4 331.35 240.95 331.05 241.25 333.15 243.3 333.75 244.4 335.7 244.45 336.95 243.4 337.65 241.9 338.5 238.45 338.35 231.6 338.2 224.8 342.9 218.25 348.5 209.25 351.7 209.5 353.4 207.05 355.4 L208.15 358.8 Q208.4 360.65 206.3 361.75 202.7 363.35 198.95 363.8 195.6 364.3 194.5 359.6 194.15 358.2 194.75 356.95 L192.85 355.1 Q181.9 356.55 172.7 352.25 163.45 347.95 154.65 346.75 L150.55 347.4 Q149.35 347.3 148.95 346.65 148.7 344.4 151.7 343.45 M199.8 361.55 Q201.8 361.6 203.65 360.8 206.15 359.75 205.65 357.85 L199.1 359.7 197.3 359.75 Q197.9 360.95 199.8 361.55" fill="#000000" fill-rule="evenodd" stroke="none"/>
  </g>
</svg>
