<?xml version="1.0" encoding="UTF-8" standalone="no"?>
<svg xmlns:xlink="http://www.w3.org/1999/xlink" height="31.25px" width="108.65px" xmlns="http://www.w3.org/2000/svg">
  <g transform="matrix(1.0, 0.0, 0.0, 1.0, -142.6, -435.75)">
    <path d="M247.8 439.95 L247.65 439.75 247.65 439.9 247.8 439.95 M248.9 440.3 L248.8 442.15 247.55 441.1 247.65 439.9 243.75 439.0 242.55 437.6 M245.65 441.15 L244.9 442.8 246.8 444.1 247.0 441.55 245.65 441.15 243.2 440.45 Q240.5 438.25 237.55 438.95 M244.05 442.6 L243.4 442.1 241.5 443.75 243.05 445.7 245.05 443.45 244.05 442.6 M245.25 447.2 Q246.1 445.4 246.0 444.25 L245.05 443.45 M248.35 445.15 Q248.9 443.55 247.0 441.55 M243.4 442.1 L241.7 441.1 Q240.4 440.5 238.75 440.0 L236.4 440.05 234.05 440.15 M236.4 440.05 Q234.55 438.2 232.3 438.1 M145.7 453.05 L146.0 452.95 146.9 452.55 147.5 451.2 M163.7 462.8 Q161.15 462.1 158.5 462.85 L158.85 460.6 Q160.85 459.75 163.1 460.65 L163.7 462.8 M154.4 464.5 L154.0 462.45 154.15 456.3 Q154.2 455.65 154.65 455.15 L154.75 455.1 Q155.65 454.1 155.4 452.1 M154.75 455.1 Q155.3 454.55 156.35 454.25 M158.55 454.9 Q159.4 453.7 161.85 455.1 M158.3 464.75 L158.1 464.4 157.9 463.7 154.5 463.45 155.0 461.25 157.3 461.4 157.75 462.35 158.0 461.0 Q158.7 459.65 158.15 457.4 157.5 454.85 158.2 453.05 M148.65 452.75 Q148.45 454.4 147.15 454.95 147.8 455.15 148.9 455.8 M152.15 453.2 Q151.9 455.35 151.05 455.95 L151.35 455.9 153.2 456.15 M145.9 462.95 Q145.6 462.25 145.7 461.2 145.0 460.5 143.9 460.5 L144.45 459.3 Q145.4 459.2 145.8 459.95 L146.35 455.3 Q146.45 454.8 147.15 454.95 M148.85 461.2 Q147.8 460.0 146.6 460.15 L146.0 461.55 Q147.85 461.75 149.3 462.8 L148.85 461.2 M149.75 463.5 L149.7 462.95 150.0 458.55 Q150.05 456.35 151.05 455.95 M150.05 463.0 Q151.8 462.75 153.55 463.65 L152.95 461.55 150.7 461.15 150.05 463.0 M145.7 461.2 L145.7 461.0 145.8 459.95 M157.9 463.7 L157.75 462.35" fill="none" stroke="#000000" stroke-linecap="round" stroke-linejoin="round" stroke-width="1.0"/>
    <path d="M247.8 439.95 L248.5 440.1 248.9 440.3 Q250.3 441.0 250.25 443.15 250.35 445.25 248.35 445.15 L247.85 446.0 Q246.7 447.35 245.25 447.2 243.2 451.15 238.65 447.5 L232.4 445.35 Q228.75 447.0 224.7 443.3 M242.55 437.6 Q241.7 436.95 240.65 436.75 L238.8 436.75 M242.55 437.6 L246.15 437.85 247.65 439.75 M164.2 452.55 L164.5 453.2 Q165.9 456.5 164.25 458.15 L164.1 458.25 Q163.6 459.25 164.25 460.3 165.4 462.15 164.85 463.2 L163.9 464.95 Q163.2 466.1 161.95 465.9 L159.85 465.85 Q158.9 465.75 158.3 464.75 158.2 466.2 156.75 466.0 L155.8 465.9 Q154.85 465.6 154.4 464.5 154.4 466.15 152.45 465.85 L150.75 465.3 Q149.9 465.05 149.75 463.5 149.4 464.8 148.15 464.5 L146.85 463.9 Q146.15 463.65 145.9 462.95 143.3 462.4 143.65 459.95 L144.25 454.9 Q144.15 453.6 145.7 453.05" fill="none" stroke="#000000" stroke-linecap="round" stroke-linejoin="round" stroke-width="2.0"/>
  </g>
</svg>
