<?xml version="1.0" encoding="UTF-8" standalone="no"?>
<svg xmlns:xlink="http://www.w3.org/1999/xlink" height="309.0px" width="113.3px" xmlns="http://www.w3.org/2000/svg">
  <g transform="matrix(1.0, 0.0, 0.0, 1.0, -140.55, -86.05)">
    <path d="M220.1 246.55 Q222.75 247.05 225.2 248.95 227.5 247.75 227.25 246.45 228.65 248.5 229.0 250.2 223.5 249.4 218.0 250.2 L219.1 248.45 Q219.4 247.4 219.05 246.35 L220.1 246.55" fill="url(#gradient0)" fill-rule="evenodd" stroke="none"/>
    <path d="M211.8 245.15 L212.2 246.2 211.25 246.2 Q202.45 246.05 194.0 248.05 190.85 245.8 190.2 243.55 193.0 245.65 196.45 245.35 195.8 244.5 196.0 243.25 199.0 245.75 203.45 244.95 L203.6 244.95 Q207.05 241.9 205.2 238.5 210.2 241.5 211.8 245.15" fill="url(#gradient1)" fill-rule="evenodd" stroke="none"/>
    <path d="M192.3 91.1 Q197.0 94.65 197.7 98.35 194.45 97.1 192.3 97.15 193.7 93.8 192.3 91.1" fill="url(#gradient2)" fill-rule="evenodd" stroke="none"/>
    <path d="M203.05 86.05 Q203.5 89.35 207.3 92.65 209.7 92.4 208.3 88.85 210.9 93.6 211.25 98.35 207.9 92.25 204.05 92.2 202.05 89.15 203.05 86.05" fill="url(#gradient3)" fill-rule="evenodd" stroke="none"/>
    <path d="M222.85 144.0 L222.85 140.15 Q230.6 146.1 234.45 151.25 225.2 146.95 215.9 146.0 212.3 141.75 213.45 138.7 216.35 142.75 222.85 144.0" fill="url(#gradient4)" fill-rule="evenodd" stroke="none"/>
    <path d="M242.05 152.0 Q242.8 147.2 239.55 142.35 248.4 150.1 250.9 157.85 246.45 153.95 242.05 152.0" fill="url(#gradient5)" fill-rule="evenodd" stroke="none"/>
    <path d="M164.4 134.4 Q172.05 141.65 175.25 149.55 167.7 150.15 159.9 154.35 157.6 147.5 159.9 141.5 161.0 144.95 165.95 145.55 167.45 139.6 164.4 134.4" fill="url(#gradient6)" fill-rule="evenodd" stroke="none"/>
    <path d="M191.4 161.4 Q197.6 156.0 194.2 149.95 204.55 156.05 206.7 163.65 190.2 163.15 174.4 166.95 168.75 163.0 167.6 159.0 172.6 162.65 178.75 162.05 177.55 160.6 177.85 158.4 183.2 162.8 191.15 161.45 L191.4 161.4" fill="url(#gradient7)" fill-rule="evenodd" stroke="none"/>
    <path d="M227.7 160.7 Q233.5 161.3 238.65 165.25 242.75 163.15 242.25 160.8 244.8 164.45 245.35 167.45 235.6 166.05 225.85 167.45 228.95 164.1 227.7 160.7" fill="url(#gradient8)" fill-rule="evenodd" stroke="none"/>
    <path d="M213.2 190.05 L214.0 191.55 214.8 193.3 214.0 193.4 213.2 193.5 Q208.35 194.2 203.45 197.1 201.55 191.75 203.3 187.3 204.1 189.9 207.8 190.3 208.95 185.85 206.7 181.95 210.8 185.85 213.2 190.05" fill="url(#gradient9)" fill-rule="evenodd" stroke="none"/>
    <path d="M151.25 187.45 Q149.6 181.8 151.0 176.15 155.95 187.35 168.0 194.45 159.15 193.75 151.25 187.45" fill="url(#gradient10)" fill-rule="evenodd" stroke="none"/>
    <path d="M149.3 160.75 Q147.15 168.35 146.75 176.5 142.75 159.8 145.55 147.85 145.15 154.7 149.3 160.75" fill="url(#gradient11)" fill-rule="evenodd" stroke="none"/>
    <path d="M140.55 186.85 Q141.2 190.75 146.95 194.65 147.35 200.95 149.45 207.25 141.25 197.05 140.55 186.85" fill="url(#gradient12)" fill-rule="evenodd" stroke="none"/>
    <path d="M143.5 224.85 Q142.3 220.6 143.35 216.4 147.0 224.8 156.05 230.1 149.4 229.55 143.5 224.85" fill="url(#gradient13)" fill-rule="evenodd" stroke="none"/>
    <path d="M149.15 243.35 L149.15 240.45 Q154.9 244.95 157.85 248.75 150.9 245.55 143.9 244.85 141.2 241.65 142.1 239.35 144.3 242.35 149.15 243.35" fill="url(#gradient14)" fill-rule="evenodd" stroke="none"/>
    <path d="M195.8 219.85 Q189.65 212.25 189.2 204.6 189.65 207.5 194.0 210.45 194.2 215.15 195.8 219.85" fill="url(#gradient15)" fill-rule="evenodd" stroke="none"/>
    <path d="M213.5 222.3 Q215.4 225.05 215.8 227.35 208.5 226.25 201.2 227.35 203.5 224.8 202.55 222.25 206.9 222.7 210.8 225.65 213.85 224.05 213.5 222.3" fill="url(#gradient16)" fill-rule="evenodd" stroke="none"/>
    <path d="M251.6 241.9 L252.0 241.3 Q253.3 239.15 253.85 236.65 L253.1 242.55 253.1 242.6 Q251.6 249.35 247.35 257.2 248.7 251.2 248.6 245.25 L251.6 241.9" fill="url(#gradient17)" fill-rule="evenodd" stroke="none"/>
    <path d="M253.5 211.65 L253.6 212.1 Q254.2 215.05 253.35 218.0 251.25 219.65 249.05 220.65 L247.35 221.3 Q244.6 223.1 241.7 223.75 L239.55 224.1 239.55 224.05 241.4 222.85 Q245.55 219.9 247.9 215.95 L249.0 213.8 Q249.5 215.8 249.35 217.75 251.8 215.25 253.3 212.1 L253.5 211.65" fill="url(#gradient18)" fill-rule="evenodd" stroke="none"/>
    <path d="M215.85 387.7 Q217.1 391.05 215.65 395.05 211.45 392.55 207.2 392.25 208.95 387.75 213.25 383.7 211.55 386.6 212.45 389.95 215.2 389.65 215.85 387.7" fill="url(#gradient19)" fill-rule="evenodd" stroke="none"/>
    <path d="M160.85 353.45 Q160.05 350.9 160.7 348.35 161.9 351.1 164.05 353.3 163.9 351.7 164.3 350.05 166.55 355.15 172.05 358.4 168.7 358.15 165.65 356.15 163.15 355.35 160.85 353.45" fill="url(#gradient20)" fill-rule="evenodd" stroke="none"/>
    <path d="M209.35 357.35 Q214.45 354.35 216.5 349.65 216.9 351.15 216.75 352.6 218.75 350.55 219.9 348.0 220.5 350.4 219.8 352.75 217.6 354.55 215.3 355.25 212.45 357.15 209.35 357.35" fill="url(#gradient21)" fill-rule="evenodd" stroke="none"/>
    <path d="M161.95 334.1 Q160.95 330.65 161.75 327.2 163.35 330.9 166.25 333.85 166.05 331.7 166.6 329.55 169.55 336.35 176.95 340.7 172.45 340.3 168.4 337.65 165.0 336.55 161.95 334.1" fill="url(#gradient22)" fill-rule="evenodd" stroke="none"/>
    <path d="M218.35 316.45 Q218.7 317.95 218.6 319.4 220.6 317.4 221.7 314.8 222.3 317.2 221.65 319.6 219.45 321.35 217.1 322.05 214.25 323.95 211.2 324.2 216.25 321.2 218.35 316.45" fill="url(#gradient23)" fill-rule="evenodd" stroke="none"/>
    <path d="M232.5 265.1 Q233.1 267.5 232.45 269.85 230.25 271.6 227.9 272.3 225.1 274.2 222.0 274.45 227.1 271.45 229.15 266.7 229.5 268.2 229.4 269.7 231.4 267.65 232.5 265.1" fill="url(#gradient24)" fill-rule="evenodd" stroke="none"/>
    <path d="M226.3 281.35 Q228.0 285.85 226.1 291.2 220.45 287.85 214.8 287.4 217.2 281.45 222.9 276.05 220.6 279.9 221.75 284.4 225.5 283.95 226.3 281.35" fill="url(#gradient25)" fill-rule="evenodd" stroke="none"/>
    <path d="M199.5 281.1 Q195.05 280.7 191.0 278.05 187.6 276.95 184.5 274.5 183.5 271.05 184.35 267.6 185.95 271.3 188.85 274.25 188.65 272.1 189.2 269.95 192.15 276.75 199.5 281.1" fill="url(#gradient26)" fill-rule="evenodd" stroke="none"/>
  </g>
  <defs>
    <linearGradient gradientTransform="matrix(0.0, -0.0012, 0.0067, 0.0, 223.5, 248.0)" gradientUnits="userSpaceOnUse" id="gradient0" spreadMethod="pad" x1="-819.2" x2="819.2">
      <stop offset="0.0" stop-color="#336699" stop-opacity="0.7529412"/>
      <stop offset="1.0" stop-color="#99ccff" stop-opacity="0.5019608"/>
    </linearGradient>
    <linearGradient gradientTransform="matrix(-9.0E-4, -0.0033, 0.0121, -0.0033, 200.8, 243.25)" gradientUnits="userSpaceOnUse" id="gradient1" spreadMethod="pad" x1="-819.2" x2="819.2">
      <stop offset="0.0" stop-color="#336699" stop-opacity="0.7529412"/>
      <stop offset="1.0" stop-color="#99ccff" stop-opacity="0.5019608"/>
    </linearGradient>
    <linearGradient gradientTransform="matrix(-0.0012, -0.0021, 0.0024, -0.0014, 193.95, 95.55)" gradientUnits="userSpaceOnUse" id="gradient2" spreadMethod="pad" x1="-819.2" x2="819.2">
      <stop offset="0.0" stop-color="#336699" stop-opacity="0.7529412"/>
      <stop offset="1.0" stop-color="#99ccff" stop-opacity="0.5019608"/>
    </linearGradient>
    <linearGradient gradientTransform="matrix(-0.0021, -0.0036, 0.0028, -0.0016, 207.35, 92.5)" gradientUnits="userSpaceOnUse" id="gradient3" spreadMethod="pad" x1="-819.2" x2="819.2">
      <stop offset="0.0" stop-color="#336699" stop-opacity="0.7529412"/>
      <stop offset="1.0" stop-color="#99ccff" stop-opacity="0.5019608"/>
    </linearGradient>
    <linearGradient gradientTransform="matrix(-0.0017, -0.0031, 0.0073, -0.0042, 221.45, 142.35)" gradientUnits="userSpaceOnUse" id="gradient4" spreadMethod="pad" x1="-819.2" x2="819.2">
      <stop offset="0.0" stop-color="#336699" stop-opacity="0.7529412"/>
      <stop offset="1.0" stop-color="#99ccff" stop-opacity="0.5019608"/>
    </linearGradient>
    <linearGradient gradientTransform="matrix(-0.0025, -0.0044, 0.0028, -0.0016, 242.85, 148.1)" gradientUnits="userSpaceOnUse" id="gradient5" spreadMethod="pad" x1="-819.2" x2="819.2">
      <stop offset="0.0" stop-color="#336699" stop-opacity="0.7529412"/>
      <stop offset="1.0" stop-color="#99ccff" stop-opacity="0.5019608"/>
    </linearGradient>
    <linearGradient gradientTransform="matrix(-0.0012, -0.0047, 0.0095, -0.0025, 165.9, 145.8)" gradientUnits="userSpaceOnUse" id="gradient6" spreadMethod="pad" x1="-819.2" x2="819.2">
      <stop offset="0.0" stop-color="#336699" stop-opacity="0.7529412"/>
      <stop offset="1.0" stop-color="#99ccff" stop-opacity="0.5019608"/>
    </linearGradient>
    <linearGradient gradientTransform="matrix(-7.0E-4, -0.0028, 0.0215, -0.0058, 187.65, 163.1)" gradientUnits="userSpaceOnUse" id="gradient7" spreadMethod="pad" x1="-819.2" x2="819.2">
      <stop offset="0.0" stop-color="#336699" stop-opacity="0.7529412"/>
      <stop offset="1.0" stop-color="#99ccff" stop-opacity="0.5019608"/>
    </linearGradient>
    <linearGradient gradientTransform="matrix(-9.0E-4, -0.0033, 0.0111, -0.0029, 234.45, 163.15)" gradientUnits="userSpaceOnUse" id="gradient8" spreadMethod="pad" x1="-819.2" x2="819.2">
      <stop offset="0.0" stop-color="#336699" stop-opacity="0.7529412"/>
      <stop offset="1.0" stop-color="#99ccff" stop-opacity="0.5019608"/>
    </linearGradient>
    <linearGradient gradientTransform="matrix(-0.0015, -0.0056, 0.007, -0.0019, 207.4, 189.05)" gradientUnits="userSpaceOnUse" id="gradient9" spreadMethod="pad" x1="-819.2" x2="819.2">
      <stop offset="0.0" stop-color="#336699" stop-opacity="0.7529412"/>
      <stop offset="1.0" stop-color="#99ccff" stop-opacity="0.5019608"/>
    </linearGradient>
    <linearGradient gradientTransform="matrix(-9.0E-4, -0.0032, 0.0085, -0.0023, 157.8, 184.1)" gradientUnits="userSpaceOnUse" id="gradient10" spreadMethod="pad" x1="-819.2" x2="819.2">
      <stop offset="0.0" stop-color="#336699" stop-opacity="0.7529412"/>
      <stop offset="1.0" stop-color="#99ccff" stop-opacity="0.5019608"/>
    </linearGradient>
    <linearGradient gradientTransform="matrix(-0.0032, -0.0055, 0.007, -0.004, 143.95, 158.4)" gradientUnits="userSpaceOnUse" id="gradient11" spreadMethod="pad" x1="-819.2" x2="819.2">
      <stop offset="0.0" stop-color="#336699" stop-opacity="0.7529412"/>
      <stop offset="1.0" stop-color="#99ccff" stop-opacity="0.5019608"/>
    </linearGradient>
    <linearGradient gradientTransform="matrix(-0.0011, -0.004, 0.0028, -7.0E-4, 144.4, 194.25)" gradientUnits="userSpaceOnUse" id="gradient12" spreadMethod="pad" x1="-819.2" x2="819.2">
      <stop offset="0.0" stop-color="#336699" stop-opacity="0.7529412"/>
      <stop offset="1.0" stop-color="#99ccff" stop-opacity="0.5019608"/>
    </linearGradient>
    <linearGradient gradientTransform="matrix(-9.0E-4, -0.0035, 0.0064, -0.0017, 148.4, 222.15)" gradientUnits="userSpaceOnUse" id="gradient13" spreadMethod="pad" x1="-819.2" x2="819.2">
      <stop offset="0.0" stop-color="#336699" stop-opacity="0.7529412"/>
      <stop offset="1.0" stop-color="#99ccff" stop-opacity="0.5019608"/>
    </linearGradient>
    <linearGradient gradientTransform="matrix(-0.0021, -0.0021, 0.0032, -0.0032, 147.85, 243.55)" gradientUnits="userSpaceOnUse" id="gradient14" spreadMethod="pad" x1="-819.2" x2="819.2">
      <stop offset="0.0" stop-color="#336699" stop-opacity="0.7529412"/>
      <stop offset="1.0" stop-color="#99ccff" stop-opacity="0.5019608"/>
    </linearGradient>
    <linearGradient gradientTransform="matrix(0.0, -0.0033, 0.0041, 0.0, 192.5, 211.05)" gradientUnits="userSpaceOnUse" id="gradient15" spreadMethod="pad" x1="-819.2" x2="819.2">
      <stop offset="0.0" stop-color="#336699" stop-opacity="0.7529412"/>
      <stop offset="1.0" stop-color="#99ccff" stop-opacity="0.5019608"/>
    </linearGradient>
    <linearGradient gradientTransform="matrix(-4.0E-4, -0.0017, 0.0083, -0.0022, 207.65, 224.2)" gradientUnits="userSpaceOnUse" id="gradient16" spreadMethod="pad" x1="-819.2" x2="819.2">
      <stop offset="0.0" stop-color="#336699" stop-opacity="0.7529412"/>
      <stop offset="1.0" stop-color="#99ccff" stop-opacity="0.5019608"/>
    </linearGradient>
    <linearGradient gradientTransform="matrix(0.0016, -0.0016, 0.0043, 0.0043, 250.95, 246.5)" gradientUnits="userSpaceOnUse" id="gradient17" spreadMethod="pad" x1="-819.2" x2="819.2">
      <stop offset="0.0" stop-color="#336699" stop-opacity="0.7529412"/>
      <stop offset="1.0" stop-color="#99ccff" stop-opacity="0.5019608"/>
    </linearGradient>
    <linearGradient gradientTransform="matrix(-7.0E-4, -0.0024, 0.0099, -0.0027, 246.7, 218.5)" gradientUnits="userSpaceOnUse" id="gradient18" spreadMethod="pad" x1="-819.2" x2="819.2">
      <stop offset="0.0" stop-color="#336699" stop-opacity="0.7529412"/>
      <stop offset="1.0" stop-color="#99ccff" stop-opacity="0.5019608"/>
    </linearGradient>
    <linearGradient gradientTransform="matrix(0.0012, -0.0044, 0.0053, 0.0014, 212.85, 388.35)" gradientUnits="userSpaceOnUse" id="gradient19" spreadMethod="pad" x1="-819.2" x2="819.2">
      <stop offset="0.0" stop-color="#336699" stop-opacity="0.7529412"/>
      <stop offset="1.0" stop-color="#99ccff" stop-opacity="0.5019608"/>
    </linearGradient>
    <linearGradient gradientTransform="matrix(-5.0E-4, -0.0019, 0.0057, -0.0015, 165.6, 352.55)" gradientUnits="userSpaceOnUse" id="gradient20" spreadMethod="pad" x1="-819.2" x2="819.2">
      <stop offset="0.0" stop-color="#336699" stop-opacity="0.7529412"/>
      <stop offset="1.0" stop-color="#99ccff" stop-opacity="0.5019608"/>
    </linearGradient>
    <linearGradient gradientTransform="matrix(0.0, -0.0016, 0.0066, 0.0, 214.75, 352.65)" gradientUnits="userSpaceOnUse" id="gradient21" spreadMethod="pad" x1="-819.2" x2="819.2">
      <stop offset="0.0" stop-color="#336699" stop-opacity="0.7529412"/>
      <stop offset="1.0" stop-color="#99ccff" stop-opacity="0.5019608"/>
    </linearGradient>
    <linearGradient gradientTransform="matrix(0.0, -0.0026, 0.0095, 0.0, 169.15, 333.3)" gradientUnits="userSpaceOnUse" id="gradient22" spreadMethod="pad" x1="-819.2" x2="819.2">
      <stop offset="0.0" stop-color="#336699" stop-opacity="0.7529412"/>
      <stop offset="1.0" stop-color="#99ccff" stop-opacity="0.5019608"/>
    </linearGradient>
    <linearGradient gradientTransform="matrix(0.0, -0.0012, 0.0066, 0.0, 216.6, 320.0)" gradientUnits="userSpaceOnUse" id="gradient23" spreadMethod="pad" x1="-819.2" x2="819.2">
      <stop offset="0.0" stop-color="#336699" stop-opacity="0.7529412"/>
      <stop offset="1.0" stop-color="#99ccff" stop-opacity="0.5019608"/>
    </linearGradient>
    <linearGradient gradientTransform="matrix(-0.0011, -0.002, 0.0073, -0.0042, 227.35, 269.9)" gradientUnits="userSpaceOnUse" id="gradient24" spreadMethod="pad" x1="-819.2" x2="819.2">
      <stop offset="0.0" stop-color="#336699" stop-opacity="0.7529412"/>
      <stop offset="1.0" stop-color="#99ccff" stop-opacity="0.5019608"/>
    </linearGradient>
    <linearGradient gradientTransform="matrix(0.0022, -0.0037, 0.0063, 0.0036, 223.15, 284.35)" gradientUnits="userSpaceOnUse" id="gradient25" spreadMethod="pad" x1="-819.2" x2="819.2">
      <stop offset="0.0" stop-color="#336699" stop-opacity="0.7529412"/>
      <stop offset="1.0" stop-color="#99ccff" stop-opacity="0.5019608"/>
    </linearGradient>
    <linearGradient gradientTransform="matrix(0.0, -0.0038, 0.0095, 0.0, 191.7, 272.7)" gradientUnits="userSpaceOnUse" id="gradient26" spreadMethod="pad" x1="-819.2" x2="819.2">
      <stop offset="0.0" stop-color="#336699" stop-opacity="0.7529412"/>
      <stop offset="1.0" stop-color="#99ccff" stop-opacity="0.5019608"/>
    </linearGradient>
  </defs>
</svg>
