<?xml version="1.0" encoding="UTF-8" standalone="no"?>
<svg xmlns:xlink="http://www.w3.org/1999/xlink" height="48.2px" width="50.35px" xmlns="http://www.w3.org/2000/svg">
  <g transform="matrix(1.0, 0.0, 0.0, 1.0, -223.6, -248.15)">
    <path d="M261.25 271.05 Q258.4 274.7 257.5 280.45 L255.5 280.45 255.6 282.75 255.55 282.75 Q253.15 284.35 250.2 284.65 L250.1 284.65 250.05 284.45 250.0 284.4 249.3 284.7 248.75 284.7 245.75 284.4 245.65 284.35 245.55 284.2 Q244.9 283.55 244.6 282.45 L244.6 282.4 242.2 282.55 241.85 282.4 Q240.9 281.9 240.4 280.5 L239.3 280.2 239.05 280.1 Q238.1 278.95 237.5 277.7 L237.5 277.55 237.5 276.75 Q237.7 273.8 238.5 270.95 L238.55 270.95 239.45 267.85 239.4 267.8 239.45 267.7 Q240.45 264.75 241.9 261.9 L241.9 261.55 Q244.9 259.55 248.75 259.55 L251.65 259.85 252.2 259.95 251.75 261.55 251.7 261.65 261.25 271.05 M230.3 289.2 L229.4 288.2 232.1 286.05 230.8 288.5 230.3 289.2 M236.55 275.2 L224.1 277.45 Q223.6 274.9 223.6 272.15 223.6 269.65 224.0 267.4 L236.3 270.1 Q236.65 268.0 237.6 266.2 L226.35 260.45 Q227.3 258.6 228.65 256.95 L230.95 254.3 Q232.9 252.35 235.0 250.95 L237.35 254.55 237.45 258.8 237.5 259.95 237.5 260.25 237.65 263.75 Q237.7 269.45 236.55 275.2" fill="#000000" fill-opacity="0.2509804" fill-rule="evenodd" stroke="none"/>
    <path d="M261.25 271.05 L261.3 270.75 273.7 268.5 273.95 272.15 Q273.95 275.3 273.3 278.15 L260.95 275.5 260.1 277.75 271.3 283.5 Q269.5 286.95 266.55 289.9 L262.45 293.35 255.65 282.8 255.6 282.75 255.5 280.45 257.5 280.45 Q258.4 274.7 261.25 271.05 M245.55 284.2 L245.45 284.3 241.7 296.35 Q236.0 294.7 231.4 290.35 L230.95 289.9 230.3 289.2 230.8 288.5 232.1 286.05 239.3 280.4 239.3 280.2 240.4 280.5 Q240.9 281.9 241.85 282.4 L242.2 282.55 244.6 282.4 244.6 282.45 Q244.9 283.55 245.55 284.2 M238.5 270.95 L236.95 275.35 236.55 275.2 Q237.7 269.45 237.65 263.75 L237.5 260.25 237.5 259.95 237.45 258.8 237.35 254.55 241.1 260.35 239.45 267.7 239.4 267.8 239.45 267.85 238.55 270.95 238.5 270.95" fill="#010101" fill-opacity="0.0" fill-rule="evenodd" stroke="none"/>
    <path d="M268.95 257.05 L259.1 264.85 Q260.95 267.45 261.3 270.75 L273.7 268.5 273.95 272.15 Q273.95 275.3 273.3 278.15 L260.95 275.5 260.1 277.75 271.3 283.5 Q269.5 286.95 266.55 289.9 L262.45 293.35 255.55 282.75 Q252.55 284.7 248.75 284.7 L245.45 284.3 241.7 296.35 Q235.7 294.6 230.95 289.9 L229.4 288.2 239.3 280.4 Q237.25 278.1 236.55 275.2 L224.1 277.45 Q223.6 274.9 223.6 272.15 223.6 269.65 224.0 267.4 L236.3 270.1 Q236.65 268.0 237.6 266.2 L226.35 260.45 Q228.1 257.15 230.95 254.3 232.9 252.35 235.0 250.95 L241.9 261.55 Q244.9 259.55 248.75 259.55 L253.0 260.2 256.8 248.15 Q262.2 249.95 266.55 254.3 267.9 255.6 268.95 257.05" fill="url(#gradient0)" fill-rule="evenodd" stroke="none"/>
  </g>
  <defs>
    <radialGradient cx="0" cy="0" gradientTransform="matrix(0.0316, 0.0, 0.0, 0.0316, 249.2, 272.1)" gradientUnits="userSpaceOnUse" id="gradient0" r="819.2" spreadMethod="pad">
      <stop offset="0.0" stop-color="#000000" stop-opacity="0.0"/>
      <stop offset="1.0" stop-color="#000000" stop-opacity="0.2"/>
    </radialGradient>
  </defs>
</svg>
