<?xml version="1.0" encoding="UTF-8" standalone="no"?>
<svg xmlns:xlink="http://www.w3.org/1999/xlink" height="78.3px" width="269.7px" xmlns="http://www.w3.org/2000/svg">
  <g transform="matrix(1.0, 0.0, 0.0, 1.0, -233.2, -383.5)">
    <path d="M253.05 387.7 Q250.2 385.55 248.95 384.05 243.5 383.5 238.75 388.65 236.25 391.35 233.95 395.6 233.3 396.75 234.5 396.7 L240.15 396.95 M253.05 387.7 Q265.25 394.95 291.85 402.35 294.2 398.75 296.05 393.9 298.5 388.3 303.65 389.55 304.45 389.75 305.35 390.35 307.85 392.6 306.9 395.75 L306.05 397.2 Q304.35 399.1 301.75 398.85 300.2 398.6 299.65 397.55 299.15 396.9 299.15 395.7 297.0 398.15 297.45 403.25 L297.5 404.0 Q313.95 410.75 329.25 416.0 L332.15 417.05 Q350.75 423.3 367.45 427.35 380.4 430.5 392.25 432.3 L400.95 433.4 Q416.7 435.15 430.25 434.25 L443.9 432.6 Q452.3 431.0 459.6 428.25 462.8 433.05 467.65 437.25 L472.7 441.15 Q484.1 449.0 502.4 454.6 476.9 463.95 439.55 460.3 L429.75 459.1 Q418.1 457.5 405.45 454.8 L397.75 453.0 Q387.55 450.5 376.65 447.4 L369.6 445.3 Q359.3 442.1 348.35 438.35 L325.65 430.0 316.15 426.3 294.15 417.2 293.55 418.0 Q292.25 419.9 291.2 422.4 290.3 424.35 289.5 426.6 289.1 427.9 288.35 429.0 285.75 433.0 281.15 431.75 L279.5 430.65 Q277.05 428.0 278.65 424.65 280.5 422.0 283.55 422.5 285.2 422.8 285.75 423.9 286.55 422.15 287.0 420.2 L287.7 416.3 287.7 415.85 Q283.85 410.75 259.95 402.2 245.25 397.3 240.15 396.95" fill="none" stroke="#000000" stroke-linecap="round" stroke-linejoin="round" stroke-width="1.0"/>
    <path d="M240.15 396.95 Q241.95 393.3 244.7 391.05 248.1 388.25 253.05 387.7 M299.15 395.7 L299.35 394.4 Q300.35 391.5 303.3 392.75 M291.85 402.35 L291.6 402.8 291.15 403.5 291.05 403.6 Q289.25 406.1 287.25 408.05 L299.6 412.25 298.45 408.8 298.45 408.65 Q297.75 406.1 297.5 404.0 M299.6 412.25 Q298.1 413.0 296.75 414.1 L296.75 414.15 320.6 423.7 326.65 426.0 Q340.5 431.15 353.6 435.35 364.85 438.95 375.5 441.9 L382.8 443.85 Q394.25 446.75 404.95 448.85 L413.1 450.35 Q427.05 452.7 439.55 453.45 L450.6 453.9 Q464.55 454.0 476.6 452.1 471.45 449.25 467.45 444.15 465.75 441.95 464.25 439.25 461.55 434.45 459.6 428.25 M296.75 414.15 Q295.35 415.4 294.15 417.2 M287.7 415.85 Q287.9 412.25 287.25 408.05 M285.75 423.9 Q286.35 425.0 285.85 427.05 284.7 429.9 281.7 428.55 M502.4 454.6 Q486.95 454.3 476.6 452.1" fill="none" stroke="#000000" stroke-linecap="round" stroke-linejoin="round" stroke-opacity="0.5019608" stroke-width="1.0"/>
  </g>
</svg>
