<?xml version="1.0" encoding="UTF-8" standalone="no"?>
<svg xmlns:xlink="http://www.w3.org/1999/xlink" height="131.55px" width="338.4px" xmlns="http://www.w3.org/2000/svg">
  <g transform="matrix(1.0, 0.0, 0.0, 1.0, -207.3, -369.35)">
    <path d="M224.8 375.55 L223.25 371.25 219.45 369.85 207.8 374.35 213.8 385.35 217.6 386.7 221.55 384.45 M224.8 375.55 L271.1 391.95 284.7 390.45 284.15 381.75 297.35 373.9 301.25 375.3 303.9 373.45 307.7 374.95 309.45 373.45 313.85 375.1 303.5 387.5 302.8 395.7 305.2 396.55 306.6 398.6 Q311.9 383.35 324.4 387.2 313.05 390.1 314.7 402.7 L316.8 402.45 323.45 404.85 Q334.55 404.95 346.3 401.0 L358.95 414.1 Q377.1 420.9 385.55 418.15 392.5 422.6 400.35 425.35 L494.55 458.85 Q528.05 472.75 545.2 497.2 516.4 504.9 481.7 494.0 L388.1 459.1 Q380.25 456.2 372.1 455.1 367.35 447.55 349.1 441.15 L331.05 442.95 Q324.6 432.4 316.0 425.35 L309.35 422.95 307.85 421.4 Q298.55 430.0 305.3 439.5 293.3 434.5 299.0 419.35 L296.7 419.9 294.3 419.05 289.6 425.85 289.5 442.05 285.1 440.4 284.7 438.2 280.85 436.8 280.0 433.75 276.1 432.3 271.05 417.85 277.0 411.45 267.65 401.65 221.55 384.45" fill="none" stroke="#000000" stroke-linecap="round" stroke-linejoin="round" stroke-width="1.0"/>
    <path d="M221.55 384.45 L216.95 382.75 213.2 376.35 220.2 373.9 224.8 375.55 M284.7 390.45 L287.5 390.15 289.0 390.7 289.85 383.6 301.25 375.3 M307.7 374.95 L295.55 385.3 294.45 392.65 302.8 395.7 M289.0 390.7 L294.45 392.65 M271.1 391.95 L304.85 403.9 309.95 403.35 306.6 398.6 M314.7 402.7 L309.95 403.35 M277.0 411.45 L279.0 413.5 280.5 414.0 285.95 416.0 294.3 419.05 M304.85 403.9 L292.9 405.3 301.1 414.15 304.65 417.85 307.85 421.4 M320.1 427.95 L347.45 429.1 359.55 429.6 340.05 422.55 316.0 425.35 320.1 427.95 333.2 436.2 350.1 438.3 Q363.8 442.9 374.25 450.55 L386.4 453.9 465.3 481.9 Q493.95 491.4 519.5 487.8 L456.35 464.85 Q447.3 465.7 434.85 460.9 L347.45 429.1 M304.65 417.85 L299.0 419.35 M280.0 433.75 L276.65 420.0 280.5 414.0 M267.65 401.65 L301.1 414.15 M284.7 438.2 L282.0 422.5 285.95 416.0 M545.2 497.2 L519.5 487.8 Q502.25 468.6 474.15 457.5 L395.75 428.25 384.35 422.95 Q371.4 422.25 357.9 416.8 L343.65 407.65 328.25 405.5 349.95 422.25 437.4 454.05 Q449.9 458.35 456.35 464.85 M349.95 422.25 L359.55 429.6 M328.25 405.5 L323.45 404.85 340.05 422.55" fill="none" stroke="#000000" stroke-linecap="round" stroke-linejoin="round" stroke-opacity="0.5019608" stroke-width="1.0"/>
  </g>
</svg>
