<?xml version="1.0" encoding="UTF-8" standalone="no"?>
<svg xmlns:xlink="http://www.w3.org/1999/xlink" height="53.85px" width="132.4px" xmlns="http://www.w3.org/2000/svg">
  <g transform="matrix(1.0, 0.0, 0.0, 1.0, -234.35, -380.15)">
    <path d="M292.7 403.6 L301.5 400.5 366.75 434.0 295.2 417.75 290.45 409.8 Q290.65 408.1 291.2 406.55 291.8 405.0 292.7 403.6 M234.9 386.1 Q236.15 382.65 239.55 381.1 242.9 379.4 246.35 380.75 249.85 382.0 251.4 385.4 L251.65 385.95 Q252.25 387.4 252.25 388.9 250.45 391.7 250.05 395.1 249.05 396.15 247.7 396.95 L247.1 397.25 Q243.75 398.8 240.25 397.55 236.75 396.2 235.2 392.9 233.65 389.55 234.9 386.1 M241.25 384.7 Q239.45 385.6 238.75 387.45 238.1 389.4 238.95 391.2 239.7 393.05 241.65 393.75 243.5 394.4 245.4 393.5 247.25 392.7 247.95 390.75 248.65 388.9 247.75 387.05 246.85 385.25 245.0 384.6 L241.25 384.7" fill="#ffffff" fill-rule="evenodd" stroke="none"/>
  </g>
</svg>
