<?xml version="1.0" encoding="UTF-8" standalone="no"?>
<svg xmlns:xlink="http://www.w3.org/1999/xlink" height="97.6px" width="267.75px" xmlns="http://www.w3.org/2000/svg">
  <g transform="matrix(1.0, 0.0, 0.0, 1.0, 154.6, -89.2)">
    <path d="M30.5 161.3 L8.7 153.7 -20.05 142.85 -27.25 139.95 -36.85 136.1 -47.9 131.55 -57.5 127.5 -68.35 122.75 -75.0 119.8 -80.95 117.15 Q-89.35 113.5 -91.1 113.25 L-92.45 113.2 Q-93.4 113.4 -93.4 114.1 -93.5 115.05 -88.7 117.4 L-78.95 121.8 -61.25 129.35 -51.55 133.4 -42.35 137.2 -40.55 138.0 -30.95 141.8 -23.75 144.7 Q-8.15 150.95 4.85 155.6 L20.15 160.95 26.75 163.2 36.0 166.25 42.6 168.4 49.5 170.7 52.55 171.7 55.5 172.65 62.05 174.35 Q63.85 174.65 64.15 173.8 64.3 172.65 59.3 170.75 L59.15 170.7 46.7 166.65 46.3 166.55 43.3 165.6 39.65 164.4 30.5 161.3 M105.6 182.25 Q100.1 184.0 87.3 182.1 73.45 180.0 52.7 174.05 L46.5 172.25 39.35 170.0 32.65 167.9 23.4 164.85 3.05 157.8 1.5 157.3 Q-12.3 152.55 -27.55 146.6 L-34.75 143.75 -44.3 139.85 -55.2 135.2 -64.7 131.1 -74.8 126.5 -82.25 123.45 Q-96.5 117.9 -98.3 119.55 L-106.8 115.85 -105.7 112.65 Q-104.0 107.85 -102.95 106.2 L-102.65 105.7 -93.7 109.85 -79.9 116.2 -73.5 119.1 -67.3 121.8 -56.0 126.7 -46.4 130.8 -35.35 135.35 -25.75 139.25 -18.5 142.05 10.25 152.9 32.05 160.55 41.3 163.6 46.45 165.3 47.15 165.45 48.0 165.75 55.0 168.0 61.15 169.85 Q83.6 176.7 105.6 182.25" fill="url(#gradient0)" fill-rule="evenodd" stroke="none"/>
    <path d="M105.6 182.25 L113.15 184.1 Q102.25 190.25 71.35 182.5 L48.6 176.1 42.4 174.2 35.35 172.05 28.6 169.9 19.3 166.85 -2.45 159.3 -31.15 148.4 -38.35 145.55 -47.9 141.65 -58.8 137.0 Q-63.55 134.9 -68.3 132.9 L-82.25 126.6 -98.3 119.55 Q-96.5 117.9 -82.25 123.45 L-74.8 126.5 -64.7 131.1 -55.2 135.2 -44.3 139.85 -34.75 143.75 -27.55 146.6 Q-12.3 152.55 1.5 157.3 L3.05 157.8 23.4 164.85 32.65 167.9 39.35 170.0 46.5 172.25 52.7 174.05 Q73.45 180.0 87.3 182.1 100.1 184.0 105.6 182.25" fill="url(#gradient1)" fill-rule="evenodd" stroke="none"/>
    <path d="M30.5 161.3 L39.65 164.4 43.3 165.6 46.3 166.55 46.7 166.65 59.15 170.7 59.3 170.75 Q64.3 172.65 64.15 173.8 63.85 174.65 62.05 174.35 L55.5 172.65 52.55 171.7 49.5 170.7 42.6 168.4 36.0 166.25 26.75 163.2 20.15 160.95 4.85 155.6 Q-8.15 150.95 -23.75 144.7 L-30.95 141.8 -40.55 138.0 -42.35 137.2 -51.55 133.4 -61.25 129.35 -78.95 121.8 -88.7 117.4 Q-93.5 115.05 -93.4 114.1 -93.4 113.4 -92.45 113.2 L-91.1 113.25 Q-89.35 113.5 -80.95 117.15 L-75.0 119.8 -68.35 122.75 -57.5 127.5 -47.9 131.55 -36.85 136.1 -27.25 139.95 -20.05 142.85 8.7 153.7 30.5 161.3" fill="url(#gradient2)" fill-rule="evenodd" stroke="none"/>
    <path d="M-133.75 92.75 Q-134.2 93.7 -136.2 94.05 L-141.55 95.0 -141.8 95.15 Q-144.7 96.0 -145.6 99.3 L-146.0 100.25 Q-146.3 100.65 -146.65 100.55 -148.75 99.15 -150.3 99.8 L-151.1 99.45 Q-151.6 97.05 -150.6 93.65 -150.0 91.6 -148.8 89.2 -132.95 91.9 -133.7 92.5 L-133.75 92.75" fill="url(#gradient3)" fill-rule="evenodd" stroke="none"/>
    <path d="M-146.0 100.25 L-145.6 99.3 Q-144.7 96.0 -141.8 95.15 L-141.55 95.0 -136.2 94.05 Q-134.2 93.7 -133.75 92.75 -119.7 96.2 -107.1 102.45 -108.4 103.55 -109.9 103.9 L-117.4 103.65 -118.85 103.4 -130.85 102.95 -132.9 103.3 Q-139.7 100.55 -146.0 100.25" fill="url(#gradient4)" fill-rule="evenodd" stroke="none"/>
    <path d="M-150.3 99.8 Q-148.75 99.15 -146.65 100.55 -148.55 104.4 -147.5 108.4 L-143.7 106.85 Q-137.05 104.2 -132.9 103.3 L-130.85 102.95 -118.85 103.4 -117.4 103.65 -109.9 103.9 Q-108.4 103.55 -107.1 102.45 L-106.1 101.4 Q-103.55 98.2 -101.05 95.85 -98.5 93.35 -99.25 96.45 -99.7 99.1 -102.25 104.7 -102.3 102.45 -104.1 104.8 L-104.8 106.0 Q-106.15 108.35 -107.65 112.35 L-108.25 113.85 Q-109.1 116.45 -107.7 116.2 L-110.6 121.05 Q-114.1 127.1 -120.8 128.75 -132.4 130.95 -143.9 121.9 -150.4 116.3 -151.45 109.6 -152.15 105.0 -150.3 99.8" fill="url(#gradient5)" fill-rule="evenodd" stroke="none"/>
    <path d="M28.6 169.9 L19.3 166.85 -2.45 159.3 -31.15 148.4 -38.35 145.55 -47.9 141.65 -58.8 137.0 Q-63.55 134.9 -68.3 132.9 L-82.25 126.6 -98.3 119.55 Q-96.5 117.9 -82.25 123.45 L-73.5 119.1 -67.3 121.8 -56.0 126.7 -64.7 131.1 -55.2 135.2 -46.4 130.8 -35.35 135.35 -44.3 139.85 -34.75 143.75 -25.75 139.25 -18.5 142.05 -27.55 146.6 Q-12.3 152.55 1.5 157.3 L10.25 152.9 32.05 160.55 23.4 164.85 32.65 167.9 41.3 163.6 46.45 165.3 47.15 165.45 48.0 165.75 39.35 170.0 46.5 172.25 55.0 168.0 61.15 169.85 59.3 170.75 59.15 170.7 59.2 170.8 52.7 174.05 Q73.45 180.0 87.3 182.1 100.1 184.0 105.6 182.25 L113.15 184.1 Q102.25 190.25 71.35 182.5 L48.6 176.1 42.4 174.2 35.35 172.05 28.6 169.9 M-104.8 106.0 Q-106.15 108.35 -107.65 112.35 L-143.7 106.85 Q-137.05 104.2 -132.9 103.3 L-104.8 106.0" fill="#ffffff" fill-opacity="0.5019608" fill-rule="evenodd" stroke="none"/>
    <path d="M-153.0 96.9 Q-155.3 97.3 -154.3 93.2 L-152.4 93.45 -150.6 93.65 -141.8 95.15 Q-128.65 97.85 -118.85 103.4 L-130.85 102.95 -132.9 103.3 Q-139.7 100.55 -146.0 100.25 -146.3 100.65 -146.65 100.55 -148.75 99.15 -150.3 99.8 L-151.1 99.45 -152.95 99.5 -153.0 96.9 M-120.8 128.75 Q-132.4 130.95 -143.9 121.9 -150.4 116.3 -151.45 109.6 -130.7 131.8 -107.95 116.7 L-110.6 121.05 Q-114.1 127.1 -120.8 128.75" fill="#000000" fill-opacity="0.2" fill-rule="evenodd" stroke="none"/>
  </g>
  <defs>
    <linearGradient gradientTransform="matrix(0.0, 0.0472, -0.1296, 0.0, -0.6, 144.4)" gradientUnits="userSpaceOnUse" id="gradient0" spreadMethod="pad" x1="-819.2" x2="819.2">
      <stop offset="0.0" stop-color="#000000" stop-opacity="0.2509804"/>
      <stop offset="1.0" stop-color="#000000" stop-opacity="0.0"/>
    </linearGradient>
    <linearGradient gradientTransform="matrix(0.0, 0.0413, -0.1291, 0.0, 7.45, 153.0)" gradientUnits="userSpaceOnUse" id="gradient1" spreadMethod="pad" x1="-819.2" x2="819.2">
      <stop offset="0.0" stop-color="#000000" stop-opacity="0.2509804"/>
      <stop offset="1.0" stop-color="#000000" stop-opacity="0.0"/>
    </linearGradient>
    <linearGradient gradientTransform="matrix(0.0, 0.0374, -0.0962, 0.0, -14.65, 143.8)" gradientUnits="userSpaceOnUse" id="gradient2" spreadMethod="pad" x1="-819.2" x2="819.2">
      <stop offset="0.0" stop-color="#000000" stop-opacity="0.2509804"/>
      <stop offset="1.0" stop-color="#000000" stop-opacity="0.0"/>
    </linearGradient>
    <linearGradient gradientTransform="matrix(0.0, 0.0069, -0.0108, 0.0, -142.45, 94.85)" gradientUnits="userSpaceOnUse" id="gradient3" spreadMethod="pad" x1="-819.2" x2="819.2">
      <stop offset="0.0" stop-color="#000000" stop-opacity="0.2509804"/>
      <stop offset="1.0" stop-color="#000000" stop-opacity="0.0"/>
    </linearGradient>
    <linearGradient gradientTransform="matrix(0.0, 0.0069, -0.0237, 0.0, -126.55, 98.4)" gradientUnits="userSpaceOnUse" id="gradient4" spreadMethod="pad" x1="-819.2" x2="819.2">
      <stop offset="0.0" stop-color="#000000" stop-opacity="0.2509804"/>
      <stop offset="1.0" stop-color="#000000" stop-opacity="0.0"/>
    </linearGradient>
    <linearGradient gradientTransform="matrix(0.0, 0.021, -0.0321, 0.0, -125.35, 111.95)" gradientUnits="userSpaceOnUse" id="gradient5" spreadMethod="pad" x1="-819.2" x2="819.2">
      <stop offset="0.0" stop-color="#000000" stop-opacity="0.2509804"/>
      <stop offset="1.0" stop-color="#000000" stop-opacity="0.0"/>
    </linearGradient>
  </defs>
</svg>
