<?xml version="1.0" encoding="UTF-8" standalone="no"?>
<svg xmlns:xlink="http://www.w3.org/1999/xlink" height="165.8px" width="453.65px" xmlns="http://www.w3.org/2000/svg">
  <g transform="matrix(1.0, 0.0, 0.0, 1.0, 248.25, -55.7)">
    <path d="M116.4 188.8 Q115.5 190.3 111.6 189.15 L-60.0 126.7 Q-58.45 126.65 -57.65 125.45 -57.5 124.05 -58.7 123.0 L112.9 185.5 Q116.7 187.1 116.4 188.8" fill="url(#gradient0)" fill-rule="evenodd" stroke="none"/>
    <path d="M116.4 188.8 Q116.7 187.1 112.9 185.5 L-58.7 123.0 -60.2 121.95 -61.4 121.4 -93.1 108.35 -99.05 105.95 -97.15 102.5 181.3 207.4 Q191.15 211.25 196.7 214.35 202.6 217.95 205.4 221.2 L116.4 188.8" fill="url(#gradient1)" fill-rule="evenodd" stroke="none"/>
    <path d="M-60.0 126.7 L111.6 189.15 Q115.5 190.3 116.4 188.8 L205.4 221.2 194.3 220.85 Q188.1 219.65 178.1 216.35 L-102.65 117.7 -101.9 113.75 -95.8 115.65 -63.05 126.15 -61.85 126.5 -60.0 126.7" fill="url(#gradient2)" fill-rule="evenodd" stroke="none"/>
    <path d="M-121.6 107.6 Q-125.15 106.65 -129.0 104.5 -132.85 102.35 -136.8 101.0 -183.3 85.85 -234.05 65.3 L-233.5 63.8 -233.3 63.3 -233.1 62.8 -231.35 58.05 Q-179.35 75.0 -134.0 93.15 -130.0 94.7 -125.7 95.5 -121.4 96.35 -118.1 97.95 L-121.6 107.6" fill="url(#gradient3)" fill-rule="evenodd" stroke="none"/>
    <path d="M-85.6 78.9 L-85.1 79.05 -84.6 79.25 -84.3 79.4 -97.15 102.5 -99.05 105.95 -103.2 104.25 -85.6 78.9" fill="url(#gradient4)" fill-rule="evenodd" stroke="none"/>
    <path d="M-107.0 100.8 L-86.7 77.9 -86.5 78.1 -85.6 78.9 -103.2 104.25 -107.0 100.8" fill="url(#gradient5)" fill-rule="evenodd" stroke="none"/>
    <path d="M-95.8 115.65 L-101.9 113.75 -106.2 112.4 -111.3 112.7 Q-112.4 112.95 -112.85 112.0 -113.05 111.35 -112.8 110.9 L-121.6 107.75 -121.6 107.6 -118.1 97.95 -109.2 101.1 Q-109.2 100.65 -108.6 100.3 -107.6 99.9 -107.0 100.8 L-103.2 104.25 -99.05 105.95 -93.1 108.35 -95.8 115.65" fill="url(#gradient6)" fill-rule="evenodd" stroke="none"/>
    <path d="M18.6 146.1 L4.8 155.5 1.75 154.4 15.6 145.0 18.6 146.1 M69.2 165.15 L56.65 173.7 37.55 166.95 50.6 158.15 69.2 165.15 M104.95 190.65 L100.9 189.2 112.45 181.5 116.35 182.9 104.95 190.65 M87.2 171.95 L97.25 175.8 85.45 183.75 75.1 180.15 87.2 171.95 M136.55 201.75 L147.2 194.55 163.0 200.5 152.75 207.45 136.55 201.75 M-32.7 142.3 L-51.65 135.65 -36.55 125.4 -18.05 132.35 -32.7 142.3 M-21.85 146.15 L-7.45 136.3 0.05 139.1 -14.15 148.85 -21.85 146.15" fill="#ffffff" fill-opacity="0.5019608" fill-rule="evenodd" stroke="none"/>
    <path d="M-112.85 112.0 Q-113.05 111.35 -112.8 110.9 L-121.6 107.75 -121.6 107.6 Q-125.15 106.65 -129.0 104.5 -132.85 102.35 -136.8 101.0 -183.3 85.85 -234.05 65.3 L-237.0 64.25 -238.25 65.0 Q-240.85 66.2 -243.6 65.25 -246.35 64.25 -247.6 61.6 -248.8 58.9 -247.85 56.15 L-247.7 55.7 -243.55 57.2 -243.7 57.65 Q-244.1 58.7 -243.6 59.75 -243.2 60.7 -242.1 61.1 L-240.0 61.0 Q-239.05 60.6 -238.7 59.5 L-238.5 59.1 -57.65 125.45 Q-58.45 126.65 -60.0 126.7 L-61.85 126.5 -63.05 126.15 -101.9 113.75 -107.7 143.7 -107.75 143.7 Q-107.9 143.55 -108.0 143.55 L-108.5 143.3 -109.0 143.2 -110.3 143.2 -110.45 143.2 -111.3 112.7 Q-112.4 112.95 -112.85 112.0" fill="#000000" fill-opacity="0.2" fill-rule="evenodd" stroke="none"/>
  </g>
  <defs>
    <linearGradient gradientTransform="matrix(0.0, 0.0407, -0.1077, 0.0, 28.2, 156.3)" gradientUnits="userSpaceOnUse" id="gradient0" spreadMethod="pad" x1="-819.2" x2="819.2">
      <stop offset="0.0" stop-color="#000000" stop-opacity="0.2509804"/>
      <stop offset="1.0" stop-color="#000000" stop-opacity="0.0"/>
    </linearGradient>
    <linearGradient gradientTransform="matrix(0.0, 0.0724, -0.1858, 0.0, 53.15, 161.85)" gradientUnits="userSpaceOnUse" id="gradient1" spreadMethod="pad" x1="-819.2" x2="819.2">
      <stop offset="0.0" stop-color="#000000" stop-opacity="0.2509804"/>
      <stop offset="1.0" stop-color="#000000" stop-opacity="0.0"/>
    </linearGradient>
    <linearGradient gradientTransform="matrix(0.0, 0.0658, -0.188, 0.0, 51.35, 167.6)" gradientUnits="userSpaceOnUse" id="gradient2" spreadMethod="pad" x1="-819.2" x2="819.2">
      <stop offset="0.0" stop-color="#000000" stop-opacity="0.2509804"/>
      <stop offset="1.0" stop-color="#000000" stop-opacity="0.0"/>
    </linearGradient>
    <linearGradient gradientTransform="matrix(0.0, 0.0302, -0.0708, 0.0, -176.05, 82.85)" gradientUnits="userSpaceOnUse" id="gradient3" spreadMethod="pad" x1="-819.2" x2="819.2">
      <stop offset="0.0" stop-color="#000000" stop-opacity="0.2509804"/>
      <stop offset="1.0" stop-color="#000000" stop-opacity="0.0"/>
    </linearGradient>
    <linearGradient gradientTransform="matrix(0.0, 0.0165, -0.0115, 0.0, -93.7, 92.4)" gradientUnits="userSpaceOnUse" id="gradient4" spreadMethod="pad" x1="-819.2" x2="819.2">
      <stop offset="0.0" stop-color="#000000" stop-opacity="0.2509804"/>
      <stop offset="1.0" stop-color="#000000" stop-opacity="0.0"/>
    </linearGradient>
    <linearGradient gradientTransform="matrix(0.0, 0.0161, -0.013, 0.0, -96.3, 91.05)" gradientUnits="userSpaceOnUse" id="gradient5" spreadMethod="pad" x1="-819.2" x2="819.2">
      <stop offset="0.0" stop-color="#000000" stop-opacity="0.2509804"/>
      <stop offset="1.0" stop-color="#000000" stop-opacity="0.0"/>
    </linearGradient>
    <linearGradient gradientTransform="matrix(0.0, 0.0108, -0.0174, 0.0, -107.35, 106.8)" gradientUnits="userSpaceOnUse" id="gradient6" spreadMethod="pad" x1="-819.2" x2="819.2">
      <stop offset="0.0" stop-color="#000000" stop-opacity="0.2509804"/>
      <stop offset="1.0" stop-color="#000000" stop-opacity="0.0"/>
    </linearGradient>
  </defs>
</svg>
