<?xml version="1.0" encoding="UTF-8" standalone="no"?>
<svg xmlns:xlink="http://www.w3.org/1999/xlink" height="22.85px" width="211.8px" xmlns="http://www.w3.org/2000/svg">
  <g transform="matrix(1.0, 0.0, 0.0, 1.0, -294.05, -461.05)">
    <path d="M499.15 463.15 Q501.2 459.6 502.75 462.05 505.75 466.9 505.85 474.65 506.1 476.7 503.0 477.35 469.8 487.1 435.25 481.5 L434.95 481.55 Q432.25 481.85 431.65 479.75 428.75 473.15 430.05 468.05 430.55 466.35 433.1 467.7 466.2 474.15 499.15 463.15 M296.9 477.65 Q293.8 477.0 294.05 474.95 294.15 467.2 297.15 462.35 298.7 459.9 300.7 463.1 333.6 474.15 366.75 467.7 369.35 466.65 369.85 468.35 371.15 473.45 368.25 480.05 367.6 482.25 364.65 481.85 330.05 487.5 296.9 477.65" fill="#000000" fill-rule="evenodd" stroke="none"/>
  </g>
</svg>
