<?xml version="1.0" encoding="UTF-8" standalone="no"?>
<svg xmlns:xlink="http://www.w3.org/1999/xlink" height="79.55px" width="49.9px" xmlns="http://www.w3.org/2000/svg">
  <g transform="matrix(1.0, 0.0, 0.0, 1.0, 132.3, -88.5)">
    <path d="M-113.85 106.75 L-113.95 106.8 -114.05 106.8 -114.05 106.85 -114.25 106.85 -115.05 107.3 Q-116.85 107.4 -116.15 105.05 -115.95 103.3 -117.35 102.3 -118.6 101.4 -121.15 102.05 -123.75 100.0 -126.8 101.7 -128.3 100.35 -130.55 100.25 -132.0 97.3 -132.3 91.45 -132.25 90.4 -131.5 89.45 -130.95 88.6 -129.6 88.5 -119.3 88.25 -111.8 92.0 -109.7 92.9 -107.4 92.35 -106.05 92.0 -105.7 93.2 L-105.45 94.25 -105.35 94.8 Q-104.7 97.5 -106.85 98.0 L-108.45 98.45 Q-109.85 98.85 -110.35 102.0 -111.15 105.7 -113.85 106.75" fill="url(#gradient0)" fill-rule="evenodd" stroke="none"/>
    <path d="M-101.55 100.9 Q-100.05 101.6 -99.1 100.65 -98.1 99.35 -98.7 97.35 -98.1 97.05 -97.85 97.7 -97.5 99.5 -97.85 100.45 -98.2 101.5 -97.5 102.05 L-96.0 102.75 -95.75 103.05 Q-99.5 103.0 -101.55 100.9" fill="url(#gradient1)" fill-rule="evenodd" stroke="none"/>
    <path d="M-105.45 94.25 Q-103.85 94.0 -103.7 96.25 -103.2 99.2 -101.55 100.9 -99.5 103.0 -95.75 103.05 L-95.05 103.05 -94.7 105.05 -93.8 104.9 -92.65 111.2 Q-93.2 113.0 -92.8 114.9 L-91.55 121.95 -92.35 123.55 -92.8 123.65 -93.65 118.6 -93.3 118.55 -93.45 117.8 -95.45 106.6 -97.3 106.9 -97.4 106.05 Q-100.45 105.55 -100.45 104.4 L-100.4 103.65 Q-100.45 101.5 -102.15 101.8 L-102.2 101.8 Q-103.9 102.15 -103.2 104.15 L-102.95 104.85 Q-102.6 105.95 -105.2 107.4 L-105.1 108.3 -106.75 108.6 -104.7 119.95 -104.6 120.55 -106.9 121.0 -107.85 121.1 -107.9 120.85 Q-108.5 117.8 -111.1 118.05 -108.75 116.8 -109.55 113.8 L-110.4 108.7 -110.7 107.55 Q-111.4 106.0 -113.85 106.75 -111.15 105.7 -110.35 102.0 -109.85 98.85 -108.45 98.45 L-106.85 98.0 Q-104.7 97.5 -105.35 94.8 L-105.45 94.25 M-107.65 116.4 L-108.2 116.3 Q-108.5 116.35 -108.7 116.6 L-108.8 117.2 -108.5 117.75 -108.0 117.85 Q-107.65 117.8 -107.45 117.5 L-107.35 116.95 -107.65 116.4" fill="url(#gradient2)" fill-rule="evenodd" stroke="none"/>
    <path d="M-100.4 103.65 L-100.45 104.4 Q-100.45 105.55 -97.4 106.05 -101.45 106.25 -105.2 107.4 -102.6 105.95 -102.95 104.85 L-103.2 104.15 -100.4 103.65" fill="url(#gradient3)" fill-rule="evenodd" stroke="none"/>
    <path d="M-97.3 106.9 L-95.45 106.6 -93.45 117.8 -93.6 118.1 -93.8 117.95 -95.05 110.95 Q-95.25 109.75 -95.75 109.6 -96.25 109.9 -96.05 111.1 L-94.8 118.05 Q-94.75 118.3 -95.0 118.45 L-98.5 119.05 -98.2 118.75 -98.2 118.6 -99.2 112.8 Q-99.6 110.35 -100.8 110.3 -101.8 110.75 -101.4 113.2 L-100.4 119.0 -100.3 119.15 -100.0 119.35 -103.25 119.95 -103.4 119.65 -104.55 113.35 Q-104.85 111.65 -105.5 111.55 -105.75 111.65 -105.5 112.95 L-104.3 119.8 -104.4 120.05 -104.7 119.95 -106.75 108.6 -105.1 108.3 -97.3 106.9 M-97.95 107.8 L-98.45 107.85 -98.5 107.65 -99.25 107.75 -98.9 109.75 -98.2 109.6 -98.2 109.4 -97.7 109.35 -97.35 109.15 Q-96.75 108.75 -96.8 108.35 -96.85 107.95 -97.6 107.8 L-97.95 107.8 M-104.1 108.85 L-104.15 108.65 -104.8 108.75 -104.45 110.75 -103.8 110.6 -103.8 110.4 -103.3 110.35 -103.0 110.1 Q-102.4 109.75 -102.45 109.35 -102.5 108.95 -103.2 108.8 L-103.6 108.8 -104.1 108.85" fill="url(#gradient4)" fill-rule="evenodd" stroke="none"/>
    <path d="M-98.5 119.05 L-100.0 119.35 -100.3 119.15 -100.4 119.0 -101.4 113.2 Q-101.8 110.75 -100.8 110.3 -99.6 110.35 -99.2 112.8 L-98.2 118.6 -98.2 118.75 -98.5 119.05" fill="url(#gradient5)" fill-rule="evenodd" stroke="none"/>
    <path d="M-84.7 167.05 Q-85.35 167.65 -86.85 167.95 L-89.15 167.85 -96.8 124.35 -92.8 123.65 -92.35 123.55 -84.7 167.05" fill="url(#gradient6)" fill-rule="evenodd" stroke="none"/>
    <path d="M-93.65 118.6 L-92.8 123.65 -96.8 124.35 -97.2 124.4 -98.1 119.4 -93.65 118.6" fill="url(#gradient7)" fill-rule="evenodd" stroke="none"/>
    <path d="M-90.9 123.35 L-90.75 123.3 -82.5 166.25 -82.4 166.3 -82.4 166.35 -83.25 166.8 -90.9 123.35" fill="url(#gradient8)" fill-rule="evenodd" stroke="none"/>
    <path d="M-92.35 123.55 L-90.9 123.3 -90.9 123.35 -83.25 166.8 -84.7 167.05 -92.35 123.55 M-90.9 126.05 L-91.55 126.15 -90.6 131.75 -89.9 131.6 -90.9 126.05 M-87.7 148.1 L-86.7 153.65 -86.05 153.55 -87.05 148.0 -87.7 148.1 M-88.0 142.7 L-88.95 137.15 -89.6 137.25 -88.65 142.8 -88.0 142.7 M-85.85 158.75 L-84.85 164.35 -84.2 164.25 -85.2 158.65 -85.85 158.75" fill="url(#gradient9)" fill-rule="evenodd" stroke="none"/>
    <path d="M-100.4 103.65 L-103.2 104.15 Q-103.9 102.15 -102.2 101.8 L-102.15 101.8 Q-100.45 101.5 -100.4 103.65" fill="url(#gradient10)" fill-rule="evenodd" stroke="none"/>
    <path d="M-103.85 124.6 L-106.3 124.65 -106.9 121.0 -104.6 120.55 -103.85 124.6" fill="url(#gradient11)" fill-rule="evenodd" stroke="none"/>
    <path d="M-99.45 124.85 L-99.85 124.9 -103.85 124.6 -104.6 120.55 -98.1 119.4 -97.2 124.4 -97.6 124.45 -98.35 124.6 -99.45 124.85" fill="url(#gradient12)" fill-rule="evenodd" stroke="none"/>
    <path d="M-89.15 167.85 Q-91.4 168.35 -91.75 167.65 L-99.45 124.85 -98.35 124.6 -97.15 131.45 -97.5 131.75 -97.3 132.95 -96.5 133.1 -95.75 132.65 -96.0 131.45 -96.35 131.3 -97.6 124.45 -97.2 124.4 -96.8 124.35 -89.15 167.85" fill="url(#gradient13)" fill-rule="evenodd" stroke="none"/>
    <path d="M-94.25 138.8 L-96.55 140.85 -99.45 124.85 -96.8 124.35 -94.25 138.8 M-95.1 149.05 L-92.8 147.05 -92.0 151.6 -94.25 153.65 -95.1 149.05 M-93.75 156.5 L-91.5 154.5 -89.15 167.85 Q-91.4 168.35 -91.75 167.65 L-93.75 156.5" fill="#000000" fill-opacity="0.2" fill-rule="evenodd" stroke="none"/>
    <path d="M-96.55 140.85 L-94.25 138.8 -89.0 134.1 -87.55 142.35 -92.8 147.05 -95.1 149.05 -96.55 140.85 M-94.25 153.65 L-92.0 151.6 -86.75 146.95 -86.25 149.8 -91.5 154.5 -93.75 156.5 -94.25 153.65" fill="#ffffff" fill-opacity="0.5019608" fill-rule="evenodd" stroke="none"/>
  </g>
  <defs>
    <linearGradient gradientTransform="matrix(0.0, 0.0115, -0.0165, 0.0, -118.75, 97.9)" gradientUnits="userSpaceOnUse" id="gradient0" spreadMethod="pad" x1="-819.2" x2="819.2">
      <stop offset="0.0" stop-color="#000000" stop-opacity="0.2509804"/>
      <stop offset="1.0" stop-color="#000000" stop-opacity="0.0"/>
    </linearGradient>
    <linearGradient gradientTransform="matrix(0.0, 0.0035, -0.0035, 0.0, -98.65, 100.15)" gradientUnits="userSpaceOnUse" id="gradient1" spreadMethod="pad" x1="-819.2" x2="819.2">
      <stop offset="0.0" stop-color="#000000" stop-opacity="0.2509804"/>
      <stop offset="1.0" stop-color="#000000" stop-opacity="0.0"/>
    </linearGradient>
    <linearGradient gradientTransform="matrix(0.0, 0.0179, -0.0136, 0.0, -102.7, 108.95)" gradientUnits="userSpaceOnUse" id="gradient2" spreadMethod="pad" x1="-819.2" x2="819.2">
      <stop offset="0.0" stop-color="#000000" stop-opacity="0.2509804"/>
      <stop offset="1.0" stop-color="#000000" stop-opacity="0.0"/>
    </linearGradient>
    <linearGradient gradientTransform="matrix(0.0, 0.0023, -0.0048, 0.0, -101.3, 105.5)" gradientUnits="userSpaceOnUse" id="gradient3" spreadMethod="pad" x1="-819.2" x2="819.2">
      <stop offset="0.0" stop-color="#000000" stop-opacity="0.2509804"/>
      <stop offset="1.0" stop-color="#000000" stop-opacity="0.0"/>
    </linearGradient>
    <linearGradient gradientTransform="matrix(0.0, 0.0082, -0.0081, 0.0, -100.1, 113.3)" gradientUnits="userSpaceOnUse" id="gradient4" spreadMethod="pad" x1="-819.2" x2="819.2">
      <stop offset="0.0" stop-color="#000000" stop-opacity="0.2509804"/>
      <stop offset="1.0" stop-color="#000000" stop-opacity="0.0"/>
    </linearGradient>
    <linearGradient gradientTransform="matrix(0.0, 0.0055, -0.002, 0.0, -99.85, 114.8)" gradientUnits="userSpaceOnUse" id="gradient5" spreadMethod="pad" x1="-819.2" x2="819.2">
      <stop offset="0.0" stop-color="#000000" stop-opacity="0.2509804"/>
      <stop offset="1.0" stop-color="#000000" stop-opacity="0.0"/>
    </linearGradient>
    <linearGradient gradientTransform="matrix(0.0, 0.0271, -0.0074, 0.0, -90.75, 145.75)" gradientUnits="userSpaceOnUse" id="gradient6" spreadMethod="pad" x1="-819.2" x2="819.2">
      <stop offset="0.0" stop-color="#000000" stop-opacity="0.2509804"/>
      <stop offset="1.0" stop-color="#000000" stop-opacity="0.0"/>
    </linearGradient>
    <linearGradient gradientTransform="matrix(0.0, 0.0035, -0.0032, 0.0, -95.45, 121.5)" gradientUnits="userSpaceOnUse" id="gradient7" spreadMethod="pad" x1="-819.2" x2="819.2">
      <stop offset="0.0" stop-color="#000000" stop-opacity="0.2509804"/>
      <stop offset="1.0" stop-color="#000000" stop-opacity="0.0"/>
    </linearGradient>
    <linearGradient gradientTransform="matrix(0.0, 0.0266, -0.0052, 0.0, -86.65, 145.05)" gradientUnits="userSpaceOnUse" id="gradient8" spreadMethod="pad" x1="-819.2" x2="819.2">
      <stop offset="0.0" stop-color="#000000" stop-opacity="0.2509804"/>
      <stop offset="1.0" stop-color="#000000" stop-opacity="0.0"/>
    </linearGradient>
    <linearGradient gradientTransform="matrix(0.0, 0.0267, -0.0056, 0.0, -87.8, 145.15)" gradientUnits="userSpaceOnUse" id="gradient9" spreadMethod="pad" x1="-819.2" x2="819.2">
      <stop offset="0.0" stop-color="#000000" stop-opacity="0.2509804"/>
      <stop offset="1.0" stop-color="#000000" stop-opacity="0.0"/>
    </linearGradient>
    <linearGradient gradientTransform="matrix(0.0, 0.0015, -0.0018, 0.0, -101.9, 102.95)" gradientUnits="userSpaceOnUse" id="gradient10" spreadMethod="pad" x1="-819.2" x2="819.2">
      <stop offset="0.0" stop-color="#000000" stop-opacity="0.2509804"/>
      <stop offset="1.0" stop-color="#000000" stop-opacity="0.0"/>
    </linearGradient>
    <linearGradient gradientTransform="matrix(0.0, 0.0025, -0.0019, 0.0, -105.35, 122.6)" gradientUnits="userSpaceOnUse" id="gradient11" spreadMethod="pad" x1="-819.2" x2="819.2">
      <stop offset="0.0" stop-color="#000000" stop-opacity="0.2509804"/>
      <stop offset="1.0" stop-color="#000000" stop-opacity="0.0"/>
    </linearGradient>
    <linearGradient gradientTransform="matrix(0.0, 0.0034, -0.0045, 0.0, -100.9, 122.15)" gradientUnits="userSpaceOnUse" id="gradient12" spreadMethod="pad" x1="-819.2" x2="819.2">
      <stop offset="0.0" stop-color="#000000" stop-opacity="0.2509804"/>
      <stop offset="1.0" stop-color="#000000" stop-opacity="0.0"/>
    </linearGradient>
    <linearGradient gradientTransform="matrix(0.0, 0.0267, -0.0063, 0.0, -94.3, 146.2)" gradientUnits="userSpaceOnUse" id="gradient13" spreadMethod="pad" x1="-819.2" x2="819.2">
      <stop offset="0.0" stop-color="#000000" stop-opacity="0.2509804"/>
      <stop offset="1.0" stop-color="#000000" stop-opacity="0.0"/>
    </linearGradient>
  </defs>
</svg>
