<?xml version="1.0" encoding="UTF-8" standalone="no"?>
<svg xmlns:xlink="http://www.w3.org/1999/xlink" height="83.05px" width="53.25px" xmlns="http://www.w3.org/2000/svg">
  <g transform="matrix(1.0, 0.0, 0.0, 1.0, 134.4, -85.5)">
    <path d="M-116.55 116.45 L-118.55 105.1 Q-118.95 102.85 -121.35 102.4 -122.5 102.15 -123.6 102.4 -124.3 100.3 -128.75 98.7 -130.95 97.95 -133.05 97.6 -134.15 97.45 -134.35 96.3 L-134.3 95.3 -133.05 88.25 Q-132.45 87.0 -131.2 86.2 -128.7 84.6 -125.6 86.7 L-115.8 93.6 -113.75 94.0 Q-111.65 94.05 -110.8 92.35 L-107.2 112.7 -107.35 114.85 -116.55 116.45 M-110.1 106.7 L-110.7 103.25 -111.5 102.75 Q-112.55 102.2 -113.5 102.0 -116.45 101.6 -117.45 105.35 L-116.95 108.2 -116.95 108.25 -115.9 114.0 Q-115.45 115.55 -114.5 115.4 L-110.9 114.75 -109.9 114.1 Q-108.95 113.1 -109.2 111.6 L-110.1 106.7" fill="url(#gradient0)" fill-rule="evenodd" stroke="none"/>
    <path d="M-107.35 114.85 L-107.2 112.7 -110.8 92.35 -111.45 88.1 -110.6 87.05 -104.45 86.0 -102.8 87.2 -100.7 99.05 -99.55 105.7 -96.35 123.9 -96.05 125.45 -105.15 127.05 -105.2 126.8 -107.35 114.85 M-99.9 122.25 L-98.1 121.95 -100.1 110.85 -101.9 111.15 -104.4 111.6 -105.45 113.1 -103.95 121.55 -102.4 122.7 -99.9 122.25" fill="url(#gradient1)" fill-rule="evenodd" stroke="none"/>
    <path d="M-100.7 99.05 L-92.35 98.5 -81.15 162.0 -81.55 162.55 -89.25 163.95 -90.15 158.85 Q-89.0 159.65 -87.65 159.8 -84.8 160.1 -83.5 156.95 L-88.7 127.35 -88.75 127.2 -89.05 125.5 -89.1 125.25 -92.4 106.35 Q-92.55 105.85 -93.05 105.5 L-99.55 105.7 -100.7 99.05" fill="url(#gradient2)" fill-rule="evenodd" stroke="none"/>
    <path d="M-101.9 111.15 L-100.1 110.85 -98.1 121.95 -99.9 122.25 -101.9 111.15" fill="url(#gradient3)" fill-rule="evenodd" stroke="none"/>
    <path d="M-110.7 103.25 L-110.1 106.7 -114.85 106.85 Q-116.15 107.4 -116.95 108.25 -116.65 106.15 -113.6 104.5 L-110.7 103.25" fill="url(#gradient4)" fill-rule="evenodd" stroke="none"/>
    <path d="M-116.55 116.45 L-107.35 114.85 -105.2 126.8 -105.15 127.05 -99.5 157.95 -99.4 158.55 -100.0 158.05 Q-100.8 157.5 -101.7 157.3 -104.45 156.65 -107.15 159.9 L-105.8 167.65 -108.85 164.6 -109.2 162.5 -117.1 117.65 -116.55 116.45" fill="url(#gradient5)" fill-rule="evenodd" stroke="none"/>
    <path d="M-99.9 122.25 L-102.4 122.7 -103.95 121.55 -105.45 113.1 -104.4 111.6 -101.9 111.15 -99.9 122.25" fill="url(#gradient6)" fill-rule="evenodd" stroke="none"/>
    <path d="M-89.05 125.5 L-88.75 127.2 -88.7 127.35 -89.45 126.75 Q-90.3 126.05 -91.25 125.85 -94.05 125.2 -95.45 128.9 L-96.05 125.45 -96.35 123.9 -90.75 123.75 -89.05 125.5" fill="url(#gradient7)" fill-rule="evenodd" stroke="none"/>
    <path d="M-89.25 163.95 L-90.25 164.95 -98.0 166.3 -99.4 158.55 -99.5 157.95 -105.15 127.05 -96.05 125.45 -95.45 128.9 -90.15 158.85 -89.25 163.95 M-94.2 153.75 L-92.4 153.45 -93.35 148.25 -95.15 148.55 -94.2 153.75 M-91.8 156.95 L-93.6 157.25 -92.7 162.45 -90.9 162.15 -91.8 156.95" fill="url(#gradient8)" fill-rule="evenodd" stroke="none"/>
    <path d="M-94.2 153.75 L-95.15 148.55 -93.35 148.25 -92.4 153.45 -94.2 153.75" fill="url(#gradient9)" fill-rule="evenodd" stroke="none"/>
    <path d="M-98.0 166.3 L-105.8 167.65 -107.15 159.9 Q-104.45 156.65 -101.7 157.3 -100.8 157.5 -100.0 158.05 L-99.4 158.55 -98.0 166.3" fill="url(#gradient10)" fill-rule="evenodd" stroke="none"/>
    <path d="M-91.8 156.95 L-90.9 162.15 -92.7 162.45 -93.6 157.25 -91.8 156.95" fill="url(#gradient11)" fill-rule="evenodd" stroke="none"/>
    <path d="M-105.8 167.65 L-110.8 168.55 -111.4 165.15 -109.2 162.5 -108.85 164.6 -105.8 167.65" fill="url(#gradient12)" fill-rule="evenodd" stroke="none"/>
    <path d="M-104.35 119.35 L-105.45 113.1 -104.4 111.6 -100.1 110.85 -99.35 115.05 -98.1 121.95 -102.4 122.7 -103.95 121.55 -104.35 119.35 M-110.1 106.7 L-114.85 106.85 Q-116.15 107.4 -116.95 108.25 -116.65 106.15 -113.6 104.5 L-110.7 103.25 -110.1 106.7 M-94.2 153.75 L-95.15 148.55 -93.35 148.25 -92.4 153.45 -94.2 153.75 M-99.4 158.55 L-98.0 166.3 -105.8 167.65 -107.15 159.9 Q-104.45 156.65 -101.7 157.3 -100.8 157.5 -100.0 158.05 L-99.4 158.55 M-91.8 156.95 L-90.9 162.15 -92.7 162.45 -93.6 157.25 -91.8 156.95" fill="#000000" fill-opacity="0.2" fill-rule="evenodd" stroke="none"/>
    <path d="M-99.35 115.05 L-98.1 113.95 -96.95 120.55 -96.5 122.9 -104.4 131.1 -104.85 128.75 -113.55 137.75 -115.55 126.3 -106.65 118.6 -106.25 121.0 -104.35 119.35 -103.95 121.55 -102.4 122.7 -98.1 121.95 -99.35 115.05 M-91.0 114.35 L-92.0 108.65 -90.75 107.6 -89.35 115.5 -90.55 116.75 -91.0 114.35 M-102.45 141.65 L-94.65 133.3 -93.25 141.15 -92.85 143.5 -100.55 152.05 -101.0 149.75 -109.75 159.45 -111.65 148.6 -102.9 139.3 -102.45 141.65 M-87.55 125.75 L-85.8 135.65 -87.0 137.0 -87.4 134.6 -88.7 127.35 -88.75 127.2 -88.75 127.05 -87.55 125.75" fill="#ffffff" fill-opacity="0.5019608" fill-rule="evenodd" stroke="none"/>
  </g>
  <defs>
    <linearGradient gradientTransform="matrix(0.0, 0.0189, -0.0166, 0.0, -120.8, 100.95)" gradientUnits="userSpaceOnUse" id="gradient0" spreadMethod="pad" x1="-819.2" x2="819.2">
      <stop offset="0.0" stop-color="#000000" stop-opacity="0.2509804"/>
      <stop offset="1.0" stop-color="#000000" stop-opacity="0.0"/>
    </linearGradient>
    <linearGradient gradientTransform="matrix(0.0, 0.0251, -0.0094, 0.0, -103.75, 106.5)" gradientUnits="userSpaceOnUse" id="gradient1" spreadMethod="pad" x1="-819.2" x2="819.2">
      <stop offset="0.0" stop-color="#000000" stop-opacity="0.2509804"/>
      <stop offset="1.0" stop-color="#000000" stop-opacity="0.0"/>
    </linearGradient>
    <linearGradient gradientTransform="matrix(0.0, 0.0399, -0.0119, 0.0, -90.9, 131.2)" gradientUnits="userSpaceOnUse" id="gradient2" spreadMethod="pad" x1="-819.2" x2="819.2">
      <stop offset="0.0" stop-color="#000000" stop-opacity="0.2509804"/>
      <stop offset="1.0" stop-color="#000000" stop-opacity="0.0"/>
    </linearGradient>
    <linearGradient gradientTransform="matrix(0.0, 0.007, -0.0023, 0.0, -100.0, 116.55)" gradientUnits="userSpaceOnUse" id="gradient3" spreadMethod="pad" x1="-819.2" x2="819.2">
      <stop offset="0.0" stop-color="#000000" stop-opacity="0.2509804"/>
      <stop offset="1.0" stop-color="#000000" stop-opacity="0.0"/>
    </linearGradient>
    <linearGradient gradientTransform="matrix(0.0, 0.0031, -0.0042, 0.0, -113.5, 105.75)" gradientUnits="userSpaceOnUse" id="gradient4" spreadMethod="pad" x1="-819.2" x2="819.2">
      <stop offset="0.0" stop-color="#000000" stop-opacity="0.2509804"/>
      <stop offset="1.0" stop-color="#000000" stop-opacity="0.0"/>
    </linearGradient>
    <linearGradient gradientTransform="matrix(0.0, 0.0322, -0.0108, 0.0, -108.25, 141.25)" gradientUnits="userSpaceOnUse" id="gradient5" spreadMethod="pad" x1="-819.2" x2="819.2">
      <stop offset="0.0" stop-color="#000000" stop-opacity="0.2509804"/>
      <stop offset="1.0" stop-color="#000000" stop-opacity="0.0"/>
    </linearGradient>
    <linearGradient gradientTransform="matrix(0.0, 0.007, -0.0034, 0.0, -102.65, 116.9)" gradientUnits="userSpaceOnUse" id="gradient6" spreadMethod="pad" x1="-819.2" x2="819.2">
      <stop offset="0.0" stop-color="#000000" stop-opacity="0.2509804"/>
      <stop offset="1.0" stop-color="#000000" stop-opacity="0.0"/>
    </linearGradient>
    <linearGradient gradientTransform="matrix(0.0, 0.0035, -0.0047, 0.0, -92.5, 126.0)" gradientUnits="userSpaceOnUse" id="gradient7" spreadMethod="pad" x1="-819.2" x2="819.2">
      <stop offset="0.0" stop-color="#000000" stop-opacity="0.2509804"/>
      <stop offset="1.0" stop-color="#000000" stop-opacity="0.0"/>
    </linearGradient>
    <linearGradient gradientTransform="matrix(0.0, 0.0249, -0.0097, 0.0, -97.2, 145.85)" gradientUnits="userSpaceOnUse" id="gradient8" spreadMethod="pad" x1="-819.2" x2="819.2">
      <stop offset="0.0" stop-color="#000000" stop-opacity="0.2509804"/>
      <stop offset="1.0" stop-color="#000000" stop-opacity="0.0"/>
    </linearGradient>
    <linearGradient gradientTransform="matrix(0.0, 0.0034, -0.0017, 0.0, -93.75, 151.0)" gradientUnits="userSpaceOnUse" id="gradient9" spreadMethod="pad" x1="-819.2" x2="819.2">
      <stop offset="0.0" stop-color="#000000" stop-opacity="0.2509804"/>
      <stop offset="1.0" stop-color="#000000" stop-opacity="0.0"/>
    </linearGradient>
    <linearGradient gradientTransform="matrix(0.0, 0.0064, -0.0056, 0.0, -102.55, 162.4)" gradientUnits="userSpaceOnUse" id="gradient10" spreadMethod="pad" x1="-819.2" x2="819.2">
      <stop offset="0.0" stop-color="#000000" stop-opacity="0.2509804"/>
      <stop offset="1.0" stop-color="#000000" stop-opacity="0.0"/>
    </linearGradient>
    <linearGradient gradientTransform="matrix(0.0, 0.0034, -0.0016, 0.0, -92.25, 159.7)" gradientUnits="userSpaceOnUse" id="gradient11" spreadMethod="pad" x1="-819.2" x2="819.2">
      <stop offset="0.0" stop-color="#000000" stop-opacity="0.2509804"/>
      <stop offset="1.0" stop-color="#000000" stop-opacity="0.0"/>
    </linearGradient>
    <linearGradient gradientTransform="matrix(0.0, 0.0037, -0.0034, 0.0, -108.6, 165.5)" gradientUnits="userSpaceOnUse" id="gradient12" spreadMethod="pad" x1="-819.2" x2="819.2">
      <stop offset="0.0" stop-color="#000000" stop-opacity="0.2509804"/>
      <stop offset="1.0" stop-color="#000000" stop-opacity="0.0"/>
    </linearGradient>
  </defs>
</svg>
