<?xml version="1.0" encoding="UTF-8" standalone="no"?>
<svg xmlns:xlink="http://www.w3.org/1999/xlink" height="248.6px" width="78.65px" xmlns="http://www.w3.org/2000/svg">
  <g transform="matrix(1.0, 0.0, 0.0, 1.0, 132.1, -17.5)">
    <path d="M-131.55 31.25 L-132.1 28.15 Q-132.1 26.15 -128.35 25.25 -115.3 22.65 -102.55 18.1 -98.55 16.5 -97.75 19.2 L-97.3 22.05 Q-98.2 19.7 -102.0 21.2 L-103.35 21.7 -104.8 22.2 -106.35 22.7 -107.85 23.2 -109.35 23.7 -110.9 24.15 -112.4 24.55 -113.9 25.0 -115.4 25.4 -116.9 25.85 -118.45 26.25 -120.0 26.65 -121.5 27.0 -123.05 27.3 -124.6 27.65 -126.05 28.0 -127.6 28.3 -127.8 28.35 -128.6 28.55 Q-131.55 29.45 -131.55 31.25" fill="url(#gradient0)" fill-rule="evenodd" stroke="none"/>
    <path d="M-97.3 22.05 L-97.3 22.3 Q-96.15 30.45 -97.25 37.25 L-98.2 36.9 -101.05 36.75 Q-103.15 37.0 -102.8 38.25 L-100.5 51.45 -105.4 52.3 -107.5 52.7 -111.15 53.3 -115.6 54.1 -116.1 51.2 Q-120.0 45.85 -124.6 42.55 -129.6 38.9 -131.2 33.15 L-131.55 31.25 Q-131.55 29.45 -128.6 28.55 L-128.1 31.45 Q-127.95 32.65 -126.55 34.45 L-124.55 36.65 -122.7 38.45 -122.3 38.75 -120.8 40.15 -118.85 42.1 -116.85 44.45 -114.75 47.3 -114.0 51.55 -104.75 49.95 -104.9 48.95 -104.6 49.35 -104.1 49.5 -103.6 49.15 -103.5 48.7 -103.8 48.2 -104.35 48.1 Q-104.65 48.15 -104.8 48.4 L-104.95 48.45 -105.75 44.25 -105.45 44.65 -104.9 44.75 -104.45 44.45 -104.35 43.95 -104.65 43.45 -105.15 43.35 -105.65 43.65 -105.85 43.7 -106.6 39.45 -106.3 39.85 -105.75 39.95 -105.3 39.65 -105.2 39.15 -105.45 38.7 -106.0 38.6 Q-106.3 38.65 -106.45 38.9 L-106.6 39.25 -106.75 38.4 -101.3 33.35 -103.35 21.7 -102.0 21.2 Q-98.2 19.7 -97.3 22.05" fill="url(#gradient1)" fill-rule="evenodd" stroke="none"/>
    <path d="M-100.95 38.15 Q-97.3 37.4 -96.0 39.85 L-91.55 65.05 -91.75 65.05 Q-92.75 64.1 -94.1 64.45 L-95.9 64.75 Q-96.85 65.0 -97.05 64.0 L-101.45 39.1 Q-101.6 38.4 -100.95 38.15" fill="url(#gradient2)" fill-rule="evenodd" stroke="none"/>
    <path d="M-108.8 102.4 L-123.35 99.5 Q-124.1 99.45 -124.8 100.05 L-126.1 101.25 Q-127.6 101.5 -128.3 99.95 L-129.45 90.8 Q-129.55 89.25 -128.7 88.75 L-127.35 88.45 -126.3 88.65 -125.95 88.7 -115.7 91.25 Q-110.9 92.4 -111.85 88.0 L-112.4 84.75 Q-112.5 84.0 -111.75 83.8 L-108.55 83.25 -108.4 83.25 Q-107.8 83.15 -107.65 83.75 L-106.5 90.1 -107.0 89.5 Q-107.4 89.15 -107.9 89.25 L-108.3 89.4 Q-109.95 89.8 -110.65 92.0 -110.6 92.65 -110.15 92.45 -109.65 91.5 -108.8 91.1 L-108.4 91.55 Q-107.95 91.85 -107.45 91.75 -106.95 91.65 -106.65 91.25 -106.4 90.9 -106.45 90.5 L-105.6 95.2 Q-105.7 94.7 -106.1 94.4 -106.5 94.1 -107.0 94.2 L-107.85 94.7 Q-108.15 95.15 -108.05 95.7 L-107.6 96.4 -109.8 96.8 -108.8 102.4" fill="url(#gradient3)" fill-rule="evenodd" stroke="none"/>
    <path d="M-97.85 66.35 L-94.15 65.7 Q-92.05 65.15 -91.3 67.55 L-88.15 77.05 Q-87.5 79.2 -87.1 81.75 L-82.35 108.6 -82.7 108.7 -82.2 111.65 -81.85 111.55 -81.55 113.15 -82.0 113.25 -81.85 114.2 -82.15 114.25 -84.25 114.6 -84.45 113.55 -85.8 112.85 -85.9 112.15 -83.95 111.75 -83.9 111.7 Q-83.35 111.65 -83.0 111.15 -82.65 110.7 -82.75 110.15 -82.85 109.6 -83.35 109.25 -83.8 108.95 -84.35 109.0 L-84.4 109.05 -84.55 109.1 -86.7 109.45 -87.8 103.3 -88.2 101.0 -87.35 100.85 -88.85 92.25 -93.15 93.0 -97.85 66.35" fill="url(#gradient4)" fill-rule="evenodd" stroke="none"/>
    <path d="M-100.5 51.45 L-97.85 66.35 -93.15 93.0 -91.65 101.6 -91.25 103.9 -89.25 115.35 -90.0 115.5 -95.65 116.5 -94.9 120.55 -101.1 121.6 -101.6 118.85 -104.35 119.35 -105.3 119.1 -105.95 118.2 Q-106.05 117.65 -105.65 117.1 L-104.8 116.55 -102.4 116.1 -103.05 112.2 -102.6 112.15 -105.45 96.05 -105.6 95.4 -105.6 95.2 -106.45 90.5 -106.45 90.3 -106.5 90.1 -107.65 83.75 -110.5 67.4 -108.9 65.95 -107.9 71.55 -107.55 71.35 -101.0 108.45 -101.0 108.5 Q-101.35 109.1 -101.25 109.8 -101.1 110.5 -100.55 110.9 L-100.5 111.4 Q-100.1 113.05 -98.85 112.8 -97.6 112.55 -97.55 111.3 L-95.05 110.85 -103.8 61.35 Q-103.4 61.2 -103.45 60.75 L-104.25 56.1 Q-104.4 55.7 -104.8 55.65 L-105.4 52.3 -100.5 51.45 M-96.85 87.8 L-97.15 88.05 -97.25 88.35 -97.0 88.7 -96.7 88.75 -96.35 88.55 -96.3 88.2 -96.5 87.9 -96.85 87.8 M-95.9 90.4 L-96.1 90.05 -96.5 89.95 -96.75 90.2 -96.85 90.55 -96.65 90.9 -96.3 90.9 -96.0 90.75 -95.9 90.4 M-96.65 86.05 L-96.85 85.7 -97.25 85.6 -97.5 85.85 -97.6 86.2 -97.4 86.55 -97.1 86.55 -96.75 86.4 -96.65 86.05 M-96.3 91.45 Q-97.75 91.7 -97.55 93.25 L-94.45 110.95 Q-94.05 112.45 -92.65 112.1 -91.45 111.8 -91.55 110.45 L-94.65 92.75 Q-95.15 91.25 -96.3 91.45 M-97.55 113.0 L-97.25 113.45 -96.7 113.6 -96.3 113.3 -96.2 112.75 Q-96.25 112.45 -96.45 112.3 L-96.95 112.2 Q-97.25 112.25 -97.4 112.45 L-97.55 113.0 M-95.8 115.9 L-95.65 115.35 -95.95 114.9 -96.5 114.8 Q-96.8 114.85 -97.0 115.05 L-97.1 115.6 -96.85 116.05 -96.25 116.2 -95.8 115.9 M-92.65 114.3 L-92.2 114.0 -92.1 113.5 -92.35 113.0 -92.9 112.9 -93.35 113.2 -93.5 113.75 -93.2 114.2 -92.65 114.3 M-104.6 117.0 Q-105.0 117.05 -105.25 117.35 L-105.4 118.1 -105.0 118.7 -104.25 118.9 -103.65 118.45 Q-103.4 118.15 -103.5 117.75 -103.55 117.35 -103.9 117.1 L-104.6 117.0" fill="url(#gradient5)" fill-rule="evenodd" stroke="none"/>
    <path d="M-105.4 52.3 L-104.8 55.65 -105.15 55.65 -106.9 56.0 -107.5 52.7 -105.4 52.3" fill="url(#gradient6)" fill-rule="evenodd" stroke="none"/>
    <path d="M-106.9 56.0 L-105.15 55.65 -104.8 55.65 Q-104.4 55.7 -104.25 56.1 L-103.45 60.75 Q-103.4 61.2 -103.8 61.35 L-104.1 61.45 -105.9 61.8 -106.9 56.0 M-105.2 57.95 L-105.75 58.25 -105.85 58.85 -105.55 59.3 -104.95 59.45 -104.45 59.1 -104.35 58.55 -104.65 58.05 -105.2 57.95" fill="url(#gradient7)" fill-rule="evenodd" stroke="none"/>
    <path d="M-108.9 65.95 L-111.15 53.3 -107.5 52.7 -106.9 56.0 -105.9 61.8 -104.25 70.95 -104.6 70.85 -106.2 70.5 -107.55 71.35 -107.9 71.55 -108.9 65.95" fill="url(#gradient8)" fill-rule="evenodd" stroke="none"/>
    <path d="M-103.8 61.35 L-95.05 110.85 -97.55 111.3 -97.55 110.7 -97.65 110.25 Q-97.45 109.75 -97.55 109.15 -97.65 108.55 -98.0 108.15 L-104.6 70.85 -104.25 70.95 -105.9 61.8 -104.1 61.45 -103.8 61.35 M-104.45 65.1 L-103.95 65.2 Q-103.7 65.15 -103.55 64.9 L-103.4 64.45 -103.7 64.0 -104.15 63.9 -104.6 64.2 -104.7 64.65 -104.45 65.1 M-101.3 82.85 L-101.4 83.3 -101.15 83.75 -100.65 83.85 Q-100.4 83.8 -100.25 83.55 L-100.1 83.1 -100.4 82.65 -100.9 82.55 -101.3 82.85 M-96.9 102.4 L-96.8 101.9 -97.1 101.45 -97.55 101.35 -98.0 101.65 -98.1 102.1 -97.8 102.6 -97.35 102.7 -96.9 102.4" fill="url(#gradient9)" fill-rule="evenodd" stroke="none"/>
    <path d="M-101.0 108.45 L-107.55 71.35 -106.2 70.5 -104.6 70.85 -98.0 108.15 -98.3 107.95 Q-98.95 107.45 -99.7 107.6 -100.45 107.75 -100.9 108.4 L-101.0 108.45" fill="url(#gradient10)" fill-rule="evenodd" stroke="none"/>
    <path d="M-104.8 116.55 L-106.3 116.8 -108.8 102.4 -109.8 96.8 -107.6 96.4 -107.55 96.45 -106.6 96.65 -105.8 96.15 -105.75 96.1 -105.45 96.05 -102.6 112.15 -103.05 112.2 -102.4 116.1 -104.8 116.55 M-104.05 113.6 L-104.75 113.45 -105.35 113.8 -105.55 114.55 -105.15 115.15 -104.45 115.3 Q-104.05 115.25 -103.85 114.95 -103.6 114.6 -103.65 114.25 -103.7 113.85 -104.05 113.6" fill="url(#gradient11)" fill-rule="evenodd" stroke="none"/>
    <path d="M-96.3 91.45 Q-95.15 91.25 -94.65 92.75 L-91.55 110.45 Q-91.45 111.8 -92.65 112.1 -94.05 112.45 -94.45 110.95 L-97.55 93.25 Q-97.75 91.7 -96.3 91.45" fill="url(#gradient12)" fill-rule="evenodd" stroke="none"/>
    <path d="M-93.15 93.0 L-88.85 92.25 -87.35 100.85 -88.2 101.0 -91.65 101.6 -93.15 93.0" fill="url(#gradient13)" fill-rule="evenodd" stroke="none"/>
    <path d="M-88.2 101.0 L-87.8 103.3 -91.25 103.9 -91.65 101.6 -88.2 101.0" fill="url(#gradient14)" fill-rule="evenodd" stroke="none"/>
    <path d="M-81.85 114.2 Q-81.2 114.2 -80.65 114.6 -80.25 114.85 -80.0 115.25 L-79.8 115.9 -79.8 116.7 -80.15 117.4 -81.45 118.2 -85.7 118.95 -85.55 119.9 -89.1 120.55 -90.0 115.5 -89.25 115.35 -91.25 103.9 -87.8 103.3 -86.7 109.45 -84.55 109.1 -85.25 109.6 Q-85.55 110.05 -85.45 110.6 L-84.9 111.5 -83.95 111.75 -85.9 112.15 -86.9 112.3 -86.55 114.45 -87.05 114.55 -86.95 115.1 -84.25 114.6 -82.15 114.25 -81.85 114.2" fill="url(#gradient15)" fill-rule="evenodd" stroke="none"/>
    <path d="M-81.25 179.55 L-83.4 179.95 -83.55 178.95 -83.95 176.85 -84.3 174.75 -84.7 172.65 -85.05 170.55 -85.45 168.45 -86.15 164.2 -86.55 162.1 -86.9 160.0 -87.3 157.9 -87.65 155.8 -88.05 153.7 -88.05 153.65 -88.4 151.55 -88.75 149.45 -89.15 147.35 -89.5 145.25 -89.9 143.15 -90.25 141.05 -90.65 138.9 -91.0 136.8 -91.35 134.7 -91.75 132.6 -92.1 130.5 -92.5 128.4 -92.85 126.3 -93.25 124.15 -93.6 122.05 -93.9 120.35 Q-93.1 119.5 -91.75 119.95 L-89.0 135.45 -81.25 179.55" fill="url(#gradient16)" fill-rule="evenodd" stroke="none"/>
    <path d="M-85.55 119.9 L-86.75 120.95 -84.3 134.65 -89.0 135.45 -91.75 119.95 Q-93.1 119.5 -93.9 120.35 L-94.9 120.55 -95.65 116.5 -90.0 115.5 -89.1 120.55 -85.55 119.9" fill="url(#gradient17)" fill-rule="evenodd" stroke="none"/>
    <path d="M-93.25 124.15 L-105.9 126.4 Q-105.25 125.3 -106.25 124.3 L-93.6 122.05 -93.25 124.15" fill="url(#gradient18)" fill-rule="evenodd" stroke="none"/>
    <path d="M-89.5 145.25 L-102.15 147.5 Q-101.55 146.4 -102.55 145.4 L-89.9 143.15 -89.5 145.25" fill="url(#gradient19)" fill-rule="evenodd" stroke="none"/>
    <path d="M-102.55 145.4 Q-101.9 144.3 -102.9 143.3 L-90.25 141.05 -89.9 143.15 -102.55 145.4" fill="url(#gradient20)" fill-rule="evenodd" stroke="none"/>
    <path d="M-90.65 138.9 L-103.3 141.15 Q-102.65 140.05 -103.65 139.05 L-91.0 136.8 -90.65 138.9" fill="url(#gradient21)" fill-rule="evenodd" stroke="none"/>
    <path d="M-91.35 134.7 L-104.0 136.95 Q-103.4 135.85 -104.4 134.85 L-91.75 132.6 -91.35 134.7" fill="url(#gradient22)" fill-rule="evenodd" stroke="none"/>
    <path d="M-104.4 134.85 Q-103.75 133.75 -104.75 132.75 L-92.1 130.5 -91.75 132.6 -104.4 134.85" fill="url(#gradient23)" fill-rule="evenodd" stroke="none"/>
    <path d="M-104.75 132.75 Q-104.15 131.65 -105.15 130.65 L-92.5 128.4 -92.1 130.5 -104.75 132.75" fill="url(#gradient24)" fill-rule="evenodd" stroke="none"/>
    <path d="M-105.15 130.65 Q-104.5 129.55 -105.5 128.55 L-92.85 126.3 -92.5 128.4 -105.15 130.65" fill="url(#gradient25)" fill-rule="evenodd" stroke="none"/>
    <path d="M-84.3 134.65 L-83.75 134.55 -83.4 136.55 -82.55 137.65 -82.2 139.6 Q-82.65 140.5 -85.3 141.1 -85.9 141.95 -85.1 142.45 L-85.05 142.45 Q-82.45 141.85 -81.95 140.95 L-81.6 143.2 Q-82.05 144.05 -84.65 144.7 -85.3 145.55 -84.45 146.05 L-82.55 145.45 -81.35 144.55 -80.95 146.75 Q-81.4 147.6 -84.05 148.25 -84.65 149.1 -83.85 149.6 L-83.35 149.5 Q-81.15 148.85 -80.7 148.1 L-80.35 150.3 Q-80.8 151.15 -83.4 151.8 -84.05 152.65 -83.15 153.15 -80.55 152.5 -80.1 151.65 L-79.7 153.85 Q-80.15 154.7 -82.8 155.35 -83.4 156.2 -82.55 156.7 -79.95 156.05 -79.45 155.2 L-79.1 157.4 Q-79.55 158.3 -82.15 158.9 -82.8 159.75 -81.9 160.25 -79.3 159.65 -78.85 158.75 L-78.45 160.95 Q-78.9 161.85 -81.55 162.45 -82.15 163.3 -81.3 163.8 -78.7 163.2 -78.2 162.3 L-77.8 164.5 Q-78.3 165.4 -80.9 166.0 -81.55 166.85 -80.65 167.35 -78.05 166.75 -77.6 165.85 L-77.2 168.05 Q-77.65 168.95 -80.3 169.55 -80.9 170.4 -80.05 170.9 -77.4 170.3 -76.95 169.4 L-76.55 171.6 Q-77.05 172.5 -79.65 173.1 -80.3 174.0 -79.4 174.45 -76.8 173.85 -76.35 172.95 L-75.95 175.15 Q-76.4 176.05 -79.05 176.65 -79.65 177.55 -78.8 178.0 -76.15 177.4 -75.7 176.5 L-75.1 179.8 Q-75.6 180.75 -78.6 181.4 L-80.85 181.8 -81.25 179.55 -89.0 135.45 -84.3 134.65" fill="url(#gradient26)" fill-rule="evenodd" stroke="none"/>
    <path d="M-101.05 153.8 Q-100.4 152.7 -101.4 151.7 L-88.75 149.45 -88.4 151.55 -101.05 153.8" fill="url(#gradient27)" fill-rule="evenodd" stroke="none"/>
    <path d="M-100.7 155.95 Q-100.05 154.85 -101.05 153.8 L-88.4 151.55 -88.05 153.65 -88.05 153.7 -88.1 153.7 -100.7 155.95" fill="url(#gradient28)" fill-rule="evenodd" stroke="none"/>
    <path d="M-100.3 158.05 Q-99.75 157.05 -100.5 156.15 L-100.7 155.95 -88.1 153.7 -88.05 153.7 -87.65 155.8 -100.3 158.05" fill="url(#gradient29)" fill-rule="evenodd" stroke="none"/>
    <path d="M-99.95 160.15 Q-99.3 159.05 -100.3 158.05 L-87.65 155.8 -87.3 157.9 -99.95 160.15" fill="url(#gradient30)" fill-rule="evenodd" stroke="none"/>
    <path d="M-86.9 160.0 L-99.55 162.25 Q-99.1 161.4 -99.6 160.6 L-99.95 160.15 -87.3 157.9 -86.9 160.0" fill="url(#gradient31)" fill-rule="evenodd" stroke="none"/>
    <path d="M-86.15 164.2 L-98.8 166.45 Q-98.2 165.35 -99.2 164.35 L-86.55 162.1 -86.15 164.2" fill="url(#gradient32)" fill-rule="evenodd" stroke="none"/>
    <path d="M-97.7 172.8 Q-97.05 171.7 -98.1 170.7 L-85.45 168.45 -85.05 170.55 -97.7 172.8" fill="url(#gradient33)" fill-rule="evenodd" stroke="none"/>
    <path d="M-97.35 174.9 Q-96.7 173.8 -97.7 172.8 L-85.05 170.55 -84.7 172.65 -97.35 174.9" fill="url(#gradient34)" fill-rule="evenodd" stroke="none"/>
    <path d="M-96.6 179.1 Q-95.95 178.0 -96.95 177.0 L-84.3 174.75 -83.95 176.85 -96.6 179.1" fill="url(#gradient35)" fill-rule="evenodd" stroke="none"/>
    <path d="M-83.55 178.95 L-96.2 181.2 Q-95.6 180.1 -96.6 179.1 L-83.95 176.85 -83.55 178.95" fill="url(#gradient36)" fill-rule="evenodd" stroke="none"/>
    <path d="M-88.65 185.85 L-88.8 185.05 -88.6 184.85 -88.5 184.95 -87.05 185.0 Q-85.85 184.8 -85.75 184.5 L-85.65 184.35 -85.45 184.5 -85.3 185.3 Q-85.65 185.65 -86.9 185.9 L-88.65 185.85" fill="url(#gradient37)" fill-rule="evenodd" stroke="none"/>
    <path d="M-96.95 177.0 Q-96.35 175.9 -97.35 174.9 L-84.7 172.65 -84.3 174.75 -96.95 177.0" fill="url(#gradient38)" fill-rule="evenodd" stroke="none"/>
    <path d="M-90.55 196.75 L-94.15 197.35 -94.45 195.5 -91.25 192.65 -83.8 191.3 -82.55 192.3 -82.45 193.0 -83.6 193.2 -83.25 195.2 -87.45 195.9 -87.55 195.3 Q-89.2 194.95 -90.7 195.9 L-90.55 196.75" fill="url(#gradient39)" fill-rule="evenodd" stroke="none"/>
    <path d="M-85.3 185.3 L-84.2 186.0 -83.5 189.95 -83.95 190.6 Q-85.85 191.25 -88.05 191.35 L-88.7 190.9 -89.4 186.95 -88.65 185.85 -86.9 185.9 Q-85.65 185.65 -85.3 185.3" fill="url(#gradient40)" fill-rule="evenodd" stroke="none"/>
    <path d="M-82.15 244.25 L-90.55 196.75 -90.7 195.9 Q-89.2 194.95 -87.55 195.3 L-87.45 195.9 -79.05 243.55 -78.9 244.45 Q-80.2 245.45 -82.05 245.05 L-82.15 244.25" fill="url(#gradient41)" fill-rule="evenodd" stroke="none"/>
    <path d="M-87.45 195.9 L-83.25 195.2 -82.05 195.15 Q-79.3 195.3 -78.5 198.65 L-77.7 203.3 -77.1 206.6 -75.75 214.15 -75.2 217.5 -72.25 234.1 -71.55 238.0 Q-71.9 240.0 -73.25 241.3 -74.3 242.3 -76.0 242.95 L-79.05 243.55 -87.45 195.9 M-86.1 196.9 L-86.2 197.2 -86.0 197.45 -85.7 197.55 -85.45 197.35 -85.35 197.05 -85.55 196.8 -85.85 196.7 -86.1 196.9 M-78.65 208.95 L-79.45 209.45 -79.65 210.3 -79.65 210.35 -79.15 211.1 -78.25 211.3 -77.5 210.8 Q-77.2 210.4 -77.3 209.95 -77.35 209.45 -77.8 209.15 L-78.65 208.95 M-77.85 206.7 Q-77.95 206.2 -78.35 205.9 -78.75 205.65 -79.2 205.7 -79.7 205.8 -80.0 206.2 L-80.2 207.05 -80.2 207.1 -79.7 207.85 Q-79.3 208.15 -78.8 208.05 -78.35 208.0 -78.05 207.55 -77.75 207.15 -77.85 206.7 M-78.95 202.65 Q-79.35 202.4 -79.8 202.45 -80.3 202.55 -80.6 202.95 L-80.8 203.8 -80.75 203.85 -80.3 204.6 -79.35 204.8 Q-78.9 204.75 -78.65 204.3 -78.35 203.9 -78.45 203.45 L-78.95 202.65 M-79.2 201.05 Q-78.9 200.65 -79.0 200.15 -79.1 199.7 -79.5 199.4 L-80.35 199.2 Q-80.85 199.3 -81.15 199.7 L-81.35 200.55 -81.35 200.6 -80.85 201.35 -79.95 201.55 -79.2 201.05 M-76.35 222.0 Q-76.85 222.1 -77.15 222.45 L-77.35 223.3 -77.35 223.4 -76.85 224.1 -75.95 224.3 Q-75.5 224.25 -75.2 223.8 -74.9 223.45 -75.0 222.95 -75.05 222.45 -75.5 222.15 L-76.35 222.0 M-80.55 221.2 Q-80.6 220.85 -80.9 220.65 L-81.55 220.5 -82.1 220.85 -82.25 221.5 -81.9 222.05 -81.25 222.25 -80.7 221.85 -80.55 221.2 M-76.05 218.9 L-76.9 218.75 Q-77.4 218.85 -77.7 219.2 L-77.9 220.05 -77.9 220.15 -77.4 220.85 Q-77.0 221.15 -76.5 221.05 -76.05 221.0 -75.75 220.55 -75.45 220.2 -75.55 219.7 -75.65 219.2 -76.05 218.9 M-77.5 215.5 Q-78.0 215.6 -78.3 215.95 L-78.5 216.8 -78.5 216.9 -78.0 217.6 -77.1 217.8 Q-76.65 217.75 -76.35 217.3 -76.05 216.95 -76.15 216.45 -76.2 215.95 -76.65 215.65 L-77.5 215.5 M-77.2 212.4 L-78.05 212.2 Q-78.55 212.3 -78.85 212.7 L-79.05 213.55 -79.05 213.65 Q-78.9 214.1 -78.55 214.35 L-77.65 214.55 -76.9 214.05 Q-76.6 213.7 -76.7 213.2 -76.8 212.7 -77.2 212.4 M-78.1 242.35 L-77.95 242.6 -77.65 242.7 -77.35 242.5 -77.3 242.2 -77.45 241.9 -77.8 241.85 -78.05 242.0 -78.1 242.35 M-77.75 240.2 L-78.1 240.1 -78.35 240.3 -78.4 240.65 -78.25 240.85 -77.95 240.95 -77.65 240.75 -77.6 240.5 -77.75 240.2 M-77.65 237.65 L-78.0 237.05 -78.65 236.9 -79.2 237.25 -79.35 237.95 -79.0 238.5 -78.35 238.65 -77.8 238.3 -77.65 237.65 M-75.05 236.3 L-75.05 236.4 -74.55 237.1 -73.65 237.3 -72.9 236.8 Q-72.6 236.45 -72.7 235.95 -72.8 235.45 -73.2 235.15 L-74.05 234.95 Q-74.55 235.05 -74.85 235.45 L-75.05 236.3 M-73.75 231.9 Q-74.15 231.65 -74.6 231.7 -75.1 231.8 -75.4 232.2 L-75.6 233.05 -75.6 233.15 -75.1 233.85 -74.2 234.05 -73.45 233.55 Q-73.2 233.2 -73.25 232.7 -73.35 232.2 -73.75 231.9 M-78.6 233.7 L-79.25 233.6 -79.8 233.9 -79.95 234.6 -79.6 235.15 -78.95 235.3 Q-78.6 235.25 -78.4 234.95 L-78.25 234.3 Q-78.3 233.95 -78.6 233.7 M-79.15 230.55 L-79.8 230.45 -80.35 230.75 -80.5 231.45 -80.15 232.0 -79.5 232.15 -78.95 231.8 -78.8 231.15 -79.15 230.55 M-79.55 228.45 L-79.4 227.8 Q-79.45 227.45 -79.75 227.25 L-80.4 227.1 -80.95 227.45 -81.1 228.1 -80.75 228.65 -80.1 228.8 -79.55 228.45 M-80.3 224.0 L-80.95 223.85 Q-81.3 223.9 -81.5 224.2 -81.75 224.5 -81.65 224.85 L-81.3 225.4 -80.65 225.55 -80.1 225.2 -79.95 224.55 Q-80.05 224.2 -80.3 224.0 M-74.35 228.65 Q-74.75 228.4 -75.2 228.45 -75.7 228.55 -76.0 228.95 L-76.2 229.8 -76.2 229.9 -75.7 230.6 Q-75.3 230.9 -74.8 230.8 L-74.05 230.3 Q-73.75 229.95 -73.85 229.45 -73.95 228.95 -74.35 228.65 M-75.35 227.55 Q-74.9 227.5 -74.6 227.05 -74.35 226.7 -74.4 226.2 -74.5 225.7 -74.9 225.4 L-75.75 225.2 -76.55 225.7 -76.75 226.55 -76.75 226.65 -76.25 227.35 -75.35 227.55 M-84.4 201.0 L-85.0 200.85 -85.6 201.2 -85.7 201.85 -85.35 202.4 -84.7 202.55 Q-84.35 202.5 -84.15 202.2 L-84.0 201.55 -84.4 201.0 M-85.65 199.2 L-85.4 199.25 -85.1 199.1 -85.0 198.8 -85.2 198.5 -85.55 198.45 -85.75 198.6 -85.85 198.95 -85.65 199.2 M-84.55 203.65 Q-85.15 203.75 -85.45 204.25 -85.8 204.7 -85.7 205.3 L-85.1 206.25 -84.05 206.45 -83.1 205.9 Q-82.8 205.5 -82.85 205.05 L-82.85 204.85 -82.9 204.7 Q-83.05 204.2 -83.45 203.9 -83.95 203.55 -84.55 203.65 M-81.1 218.05 Q-81.15 217.7 -81.45 217.5 L-82.1 217.35 Q-82.45 217.4 -82.65 217.7 L-82.8 218.35 -82.45 218.9 -81.8 219.1 -81.25 218.7 Q-81.05 218.45 -81.1 218.05 M-83.05 215.6 L-82.4 215.75 -81.85 215.4 -81.7 214.7 Q-81.75 214.35 -82.05 214.15 L-82.7 214.0 -83.25 214.35 -83.4 215.0 -83.05 215.6 M-83.0 212.4 L-82.45 212.05 Q-82.2 211.75 -82.3 211.4 -82.35 211.05 -82.65 210.85 L-83.3 210.7 -83.85 211.05 -84.0 211.7 -83.65 212.25 -83.0 212.4 M-84.2 208.9 L-83.55 209.05 -83.0 208.7 -82.85 208.05 -83.25 207.5 -83.85 207.35 Q-84.2 207.4 -84.45 207.7 L-84.55 208.35 -84.2 208.9" fill="url(#gradient42)" fill-rule="evenodd" stroke="none"/>
    <path d="M-78.6 181.4 L-74.95 202.0 Q-75.65 203.0 -77.7 203.3 L-78.5 198.65 Q-79.3 195.3 -82.05 195.15 L-82.45 193.0 -82.55 192.3 -84.3 182.45 -80.85 181.8 -78.6 181.4" fill="url(#gradient43)" fill-rule="evenodd" stroke="none"/>
    <path d="M-101.4 151.7 Q-100.8 150.6 -101.8 149.6 L-89.15 147.35 -88.75 149.45 -101.4 151.7" fill="url(#gradient44)" fill-rule="evenodd" stroke="none"/>
    <path d="M-74.95 202.0 Q-73.85 203.65 -74.4 205.3 L-74.8 205.75 Q-75.6 206.35 -77.1 206.6 L-77.7 203.3 Q-75.65 203.0 -74.95 202.0" fill="url(#gradient45)" fill-rule="evenodd" stroke="none"/>
    <path d="M-74.8 205.75 L-73.5 213.3 Q-74.25 213.9 -75.75 214.15 L-77.1 206.6 Q-75.6 206.35 -74.8 205.75" fill="url(#gradient46)" fill-rule="evenodd" stroke="none"/>
    <path d="M-73.5 213.3 L-73.05 212.85 Q-71.95 214.5 -72.45 216.15 L-73.25 216.9 Q-74.0 217.3 -75.2 217.5 L-75.75 214.15 Q-74.25 213.9 -73.5 213.3" fill="url(#gradient47)" fill-rule="evenodd" stroke="none"/>
    <path d="M-73.25 216.9 L-70.5 232.5 -70.45 232.8 -70.45 233.05 Q-71.0 233.95 -72.25 234.1 L-75.2 217.5 Q-74.0 217.3 -73.25 216.9" fill="url(#gradient48)" fill-rule="evenodd" stroke="none"/>
    <path d="M-68.7 241.4 L-68.65 241.8 -68.55 242.15 Q-68.95 243.05 -70.6 243.35 -72.25 243.6 -72.95 242.9 L-73.05 242.55 -73.25 241.3 Q-71.9 240.0 -71.55 238.0 L-72.25 234.1 Q-71.0 233.95 -70.45 233.05 L-70.45 232.8 -70.2 232.9 -69.75 235.5 -69.15 238.9 -68.7 241.4" fill="url(#gradient49)" fill-rule="evenodd" stroke="none"/>
    <path d="M-70.5 232.5 L-57.2 234.6 -55.85 236.8 -53.45 237.35 -53.9 238.15 -68.7 241.4 -69.15 238.9 -59.85 236.9 -69.75 235.5 -70.2 232.9 -70.45 232.8 -70.5 232.5" fill="url(#gradient50)" fill-rule="evenodd" stroke="none"/>
    <path d="M-68.65 241.8 L-68.3 242.1 -67.6 246.0 -67.55 246.3 Q-68.05 247.45 -69.85 247.8 -71.65 248.1 -72.45 247.15 L-72.85 247.35 -76.5 249.1 Q-76.75 246.45 -78.9 244.45 L-79.05 243.55 -76.0 242.95 Q-75.3 243.4 -73.2 242.95 L-73.05 242.55 -72.95 242.9 Q-72.25 243.6 -70.6 243.35 -68.95 243.05 -68.55 242.15 L-68.65 241.8" fill="url(#gradient51)" fill-rule="evenodd" stroke="none"/>
    <path d="M-67.6 246.0 L-67.15 246.3 -64.45 261.75 -64.4 265.05 Q-65.35 265.8 -66.6 266.0 L-69.0 265.9 -70.15 262.8 -72.85 247.35 -72.45 247.15 Q-71.65 248.1 -69.85 247.8 -68.05 247.45 -67.55 246.3 L-67.6 246.0 M-67.95 254.2 L-66.6 261.8 Q-66.35 263.1 -65.9 263.85 -65.45 262.7 -65.7 260.75 L-67.7 249.4 Q-68.4 251.1 -67.95 254.2 M-68.0 264.2 Q-67.85 263.35 -68.1 262.05 L-69.45 254.45 Q-70.1 251.35 -71.35 250.05 L-69.35 261.4 Q-68.85 263.3 -68.0 264.2" fill="url(#gradient52)" fill-rule="evenodd" stroke="none"/>
    <path d="M-76.5 249.1 Q-76.4 250.35 -76.65 251.7 L-76.2 254.5 -79.1 255.85 -80.8 255.2 -81.3 252.4 Q-83.55 248.75 -82.15 244.25 L-82.05 245.05 Q-80.2 245.45 -78.9 244.45 -76.75 246.45 -76.5 249.1 M-80.55 249.2 Q-80.45 249.85 -79.85 250.25 L-78.65 250.5 -77.6 249.85 Q-77.2 249.3 -77.3 248.65 -77.45 247.95 -78.0 247.55 -78.55 247.15 -79.2 247.25 -79.9 247.4 -80.25 247.95 -80.7 248.5 -80.55 249.2" fill="url(#gradient53)" fill-rule="evenodd" stroke="none"/>
    <path d="M-97.55 101.35 L-98.0 101.65 -98.1 102.1 -97.8 102.6 -97.35 102.7 -96.9 102.4 -96.8 101.9 -97.1 101.45 -97.55 101.35 M-96.3 91.45 Q-97.75 91.7 -97.55 93.25 L-94.45 110.95 Q-94.05 112.45 -92.65 112.1 -91.45 111.8 -91.55 110.45 L-94.65 92.75 Q-95.15 91.25 -96.3 91.45 M-97.15 88.05 L-97.25 88.35 -97.0 88.7 -96.7 88.75 -96.35 88.55 -96.3 88.2 -96.5 87.9 -96.85 87.8 -97.15 88.05 M-95.9 90.4 L-96.1 90.05 -96.5 89.95 -96.75 90.2 -96.85 90.55 -96.65 90.9 -96.3 90.9 -96.0 90.75 -95.9 90.4 M-97.25 85.6 L-97.5 85.85 -97.6 86.2 -97.4 86.55 -97.1 86.55 -96.75 86.4 -96.65 86.05 -96.85 85.7 -97.25 85.6 M-101.3 82.85 L-101.4 83.3 -101.15 83.75 -100.65 83.85 Q-100.4 83.8 -100.25 83.55 L-100.1 83.1 -100.4 82.65 -100.9 82.55 -101.3 82.85 M-104.15 63.9 L-104.6 64.2 -104.7 64.65 -104.45 65.1 -103.95 65.2 Q-103.7 65.15 -103.55 64.9 L-103.4 64.45 -103.7 64.0 -104.15 63.9 M-105.9 61.8 L-104.1 61.45 -103.8 61.35 Q-103.4 61.2 -103.45 60.75 L-104.25 56.1 Q-104.4 55.7 -104.8 55.65 L-105.4 52.3 -100.5 51.45 -93.15 93.0 -88.85 92.25 -87.35 100.85 -88.2 101.0 -86.7 109.45 -84.55 109.1 -85.25 109.6 Q-85.55 110.05 -85.45 110.6 L-84.9 111.5 -83.95 111.75 -86.9 112.3 -86.55 114.45 -87.05 114.55 -86.95 115.1 -82.15 114.25 -81.85 114.2 Q-81.2 114.2 -80.65 114.6 -80.25 114.85 -80.0 115.25 L-79.8 115.9 -79.8 116.7 -80.15 117.4 -81.45 118.2 -85.7 118.95 -85.55 119.9 -89.1 120.55 -90.0 115.5 -95.65 116.5 -94.9 120.55 -101.1 121.6 -101.6 118.85 -104.35 119.35 -105.3 119.1 -105.95 118.2 Q-106.05 117.65 -105.65 117.1 L-104.8 116.55 -102.4 116.1 -103.05 112.2 -102.6 112.15 -105.6 95.4 -105.6 95.2 -106.45 90.5 -106.45 90.3 -106.5 90.1 -110.5 67.4 -109.95 66.85 -112.3 53.5 -111.15 53.3 -107.9 71.55 -106.2 70.5 -104.25 70.95 -105.9 61.8 M-98.3 107.95 Q-98.95 107.45 -99.7 107.6 -100.45 107.75 -100.9 108.4 L-101.0 108.45 -101.0 108.5 Q-101.35 109.1 -101.25 109.8 -101.1 110.5 -100.55 110.9 L-100.5 111.4 Q-100.1 113.05 -98.85 112.8 -97.6 112.55 -97.55 111.3 L-97.55 110.7 -97.65 110.25 Q-97.45 109.75 -97.55 109.15 -97.65 108.55 -98.0 108.15 L-98.3 107.95 M-90.8 137.95 L-93.9 120.35 Q-93.1 119.5 -91.75 119.95 L-88.85 136.25 -90.8 137.95 M-97.25 113.45 L-96.7 113.6 -96.3 113.3 -96.2 112.75 Q-96.25 112.45 -96.45 112.3 L-96.95 112.2 Q-97.25 112.25 -97.4 112.45 L-97.55 113.0 -97.25 113.45 M-95.8 115.9 L-95.65 115.35 -95.95 114.9 -96.5 114.8 Q-96.8 114.85 -97.0 115.05 L-97.1 115.6 -96.85 116.05 -96.25 116.2 -95.8 115.9 M-92.1 113.5 L-92.35 113.0 -92.9 112.9 -93.35 113.2 -93.5 113.75 -93.2 114.2 -92.65 114.3 -92.2 114.0 -92.1 113.5 M-87.4 144.5 L-86.6 149.05 -88.5 150.75 -89.35 146.2 -87.4 144.5 M-86.1 151.95 L-81.25 179.55 -83.4 179.95 -88.05 153.7 -88.05 153.65 -86.1 151.95 M-104.6 117.0 Q-105.0 117.05 -105.25 117.35 L-105.4 118.1 -105.0 118.7 -104.25 118.9 -103.65 118.45 Q-103.4 118.15 -103.5 117.75 -103.55 117.35 -103.9 117.1 L-104.6 117.0 M-67.6 246.0 L-67.15 246.3 -64.45 261.75 -64.4 265.05 Q-65.35 265.8 -66.6 266.0 L-69.0 265.9 -70.15 262.8 -72.85 247.35 -72.45 247.15 Q-71.65 248.1 -69.85 247.8 -68.05 247.45 -67.55 246.3 L-67.6 246.0 M-83.5 189.95 L-83.95 190.6 Q-85.85 191.25 -88.05 191.35 L-88.7 190.9 -89.4 186.95 -88.65 185.85 -86.9 185.9 Q-85.65 185.65 -85.3 185.3 L-84.2 186.0 -83.5 189.95 M-94.15 197.35 L-94.45 195.5 -91.25 192.65 -83.8 191.3 -82.55 192.3 -82.45 193.0 -83.6 193.2 -83.25 195.2 -87.45 195.9 -78.9 244.45 Q-76.75 246.45 -76.5 249.1 -76.4 250.35 -76.65 251.7 L-76.2 254.5 -79.1 255.85 -80.8 255.2 -81.3 252.4 Q-83.55 248.75 -82.15 244.25 L-90.55 196.75 -94.15 197.35 M-67.95 254.2 L-66.6 261.8 Q-66.35 263.1 -65.9 263.85 -65.45 262.7 -65.7 260.75 L-67.7 249.4 Q-68.4 251.1 -67.95 254.2 M-69.35 261.4 Q-68.85 263.3 -68.0 264.2 -67.85 263.35 -68.1 262.05 L-69.45 254.45 Q-70.1 251.35 -71.35 250.05 L-69.35 261.4 M-77.6 249.85 Q-77.2 249.3 -77.3 248.65 -77.45 247.95 -78.0 247.55 -78.55 247.15 -79.2 247.25 -79.9 247.4 -80.25 247.95 -80.7 248.5 -80.55 249.2 -80.45 249.85 -79.85 250.25 L-78.65 250.5 -77.6 249.85" fill="#000000" fill-opacity="0.2" fill-rule="evenodd" stroke="none"/>
    <path d="M-90.8 137.95 L-88.85 136.25 -87.75 135.25 -83.75 134.55 -83.4 136.55 -82.55 137.65 -82.2 139.6 Q-82.65 140.5 -85.3 141.1 -85.9 141.95 -85.1 142.45 L-87.4 144.5 -89.35 146.2 -97.1 153.1 -88.4 151.55 -88.5 150.75 -86.6 149.05 -82.55 145.45 -81.35 144.55 -80.95 146.75 Q-81.4 147.6 -84.05 148.25 -84.65 149.1 -83.85 149.6 L-83.7 149.8 -86.1 151.95 -88.05 153.65 -97.25 161.85 -99.55 162.25 Q-99.1 161.4 -99.6 160.6 L-92.8 154.55 -100.7 155.95 Q-100.05 154.85 -101.05 153.8 -100.4 152.7 -101.4 151.7 -100.8 150.6 -101.8 149.6 -101.25 148.65 -101.9 147.8 L-92.2 139.2 -90.65 138.9 -90.8 137.95" fill="#ffffff" fill-opacity="0.5019608" fill-rule="evenodd" stroke="none"/>
  </g>
  <defs>
    <linearGradient gradientTransform="matrix(0.0, 0.0084, -0.0212, 0.0, -114.7, 24.35)" gradientUnits="userSpaceOnUse" id="gradient0" spreadMethod="pad" x1="-819.2" x2="819.2">
      <stop offset="0.0" stop-color="#000000" stop-opacity="0.2509804"/>
      <stop offset="1.0" stop-color="#000000" stop-opacity="0.0"/>
    </linearGradient>
    <linearGradient gradientTransform="matrix(0.0, 0.0204, -0.0213, 0.0, -114.1, 37.35)" gradientUnits="userSpaceOnUse" id="gradient1" spreadMethod="pad" x1="-819.2" x2="819.2">
      <stop offset="0.0" stop-color="#000000" stop-opacity="0.2509804"/>
      <stop offset="1.0" stop-color="#000000" stop-opacity="0.0"/>
    </linearGradient>
    <linearGradient gradientTransform="matrix(0.0, 0.0165, -0.0061, 0.0, -96.5, 51.5)" gradientUnits="userSpaceOnUse" id="gradient2" spreadMethod="pad" x1="-819.2" x2="819.2">
      <stop offset="0.0" stop-color="#000000" stop-opacity="0.2509804"/>
      <stop offset="1.0" stop-color="#000000" stop-opacity="0.0"/>
    </linearGradient>
    <linearGradient gradientTransform="matrix(0.0, 0.0117, -0.0146, 0.0, -117.5, 92.8)" gradientUnits="userSpaceOnUse" id="gradient3" spreadMethod="pad" x1="-819.2" x2="819.2">
      <stop offset="0.0" stop-color="#000000" stop-opacity="0.2509804"/>
      <stop offset="1.0" stop-color="#000000" stop-opacity="0.0"/>
    </linearGradient>
    <linearGradient gradientTransform="matrix(0.0, 0.0299, -0.0099, 0.0, -89.7, 90.1)" gradientUnits="userSpaceOnUse" id="gradient4" spreadMethod="pad" x1="-819.2" x2="819.2">
      <stop offset="0.0" stop-color="#000000" stop-opacity="0.2509804"/>
      <stop offset="1.0" stop-color="#000000" stop-opacity="0.0"/>
    </linearGradient>
    <linearGradient gradientTransform="matrix(0.0, 0.0428, -0.013, 0.0, -99.85, 86.5)" gradientUnits="userSpaceOnUse" id="gradient5" spreadMethod="pad" x1="-819.2" x2="819.2">
      <stop offset="0.0" stop-color="#000000" stop-opacity="0.2509804"/>
      <stop offset="1.0" stop-color="#000000" stop-opacity="0.0"/>
    </linearGradient>
    <linearGradient gradientTransform="matrix(0.0, 0.0023, -0.0016, 0.0, -106.15, 54.15)" gradientUnits="userSpaceOnUse" id="gradient6" spreadMethod="pad" x1="-819.2" x2="819.2">
      <stop offset="0.0" stop-color="#000000" stop-opacity="0.2509804"/>
      <stop offset="1.0" stop-color="#000000" stop-opacity="0.0"/>
    </linearGradient>
    <linearGradient gradientTransform="matrix(0.0, 0.0038, -0.0021, 0.0, -105.15, 58.7)" gradientUnits="userSpaceOnUse" id="gradient7" spreadMethod="pad" x1="-819.2" x2="819.2">
      <stop offset="0.0" stop-color="#000000" stop-opacity="0.2509804"/>
      <stop offset="1.0" stop-color="#000000" stop-opacity="0.0"/>
    </linearGradient>
    <linearGradient gradientTransform="matrix(0.0, 0.0115, -0.0042, 0.0, -107.7, 62.1)" gradientUnits="userSpaceOnUse" id="gradient8" spreadMethod="pad" x1="-819.2" x2="819.2">
      <stop offset="0.0" stop-color="#000000" stop-opacity="0.2509804"/>
      <stop offset="1.0" stop-color="#000000" stop-opacity="0.0"/>
    </linearGradient>
    <linearGradient gradientTransform="matrix(0.0, 0.0305, -0.0066, 0.0, -100.45, 86.3)" gradientUnits="userSpaceOnUse" id="gradient9" spreadMethod="pad" x1="-819.2" x2="819.2">
      <stop offset="0.0" stop-color="#000000" stop-opacity="0.2509804"/>
      <stop offset="1.0" stop-color="#000000" stop-opacity="0.0"/>
    </linearGradient>
    <linearGradient gradientTransform="matrix(0.0, 0.0232, -0.0058, 0.0, -102.75, 89.45)" gradientUnits="userSpaceOnUse" id="gradient10" spreadMethod="pad" x1="-819.2" x2="819.2">
      <stop offset="0.0" stop-color="#000000" stop-opacity="0.2509804"/>
      <stop offset="1.0" stop-color="#000000" stop-opacity="0.0"/>
    </linearGradient>
    <linearGradient gradientTransform="matrix(0.0, 0.0127, -0.0045, 0.0, -106.1, 106.4)" gradientUnits="userSpaceOnUse" id="gradient11" spreadMethod="pad" x1="-819.2" x2="819.2">
      <stop offset="0.0" stop-color="#000000" stop-opacity="0.2509804"/>
      <stop offset="1.0" stop-color="#000000" stop-opacity="0.0"/>
    </linearGradient>
    <linearGradient gradientTransform="matrix(0.0, 0.0126, -0.0037, 0.0, -94.55, 101.8)" gradientUnits="userSpaceOnUse" id="gradient12" spreadMethod="pad" x1="-819.2" x2="819.2">
      <stop offset="0.0" stop-color="#000000" stop-opacity="0.2509804"/>
      <stop offset="1.0" stop-color="#000000" stop-opacity="0.0"/>
    </linearGradient>
    <linearGradient gradientTransform="matrix(0.0, 0.0057, -0.0035, 0.0, -90.25, 96.9)" gradientUnits="userSpaceOnUse" id="gradient13" spreadMethod="pad" x1="-819.2" x2="819.2">
      <stop offset="0.0" stop-color="#000000" stop-opacity="0.2509804"/>
      <stop offset="1.0" stop-color="#000000" stop-opacity="0.0"/>
    </linearGradient>
    <linearGradient gradientTransform="matrix(0.0, 0.0018, -0.0023, 0.0, -89.7, 102.45)" gradientUnits="userSpaceOnUse" id="gradient14" spreadMethod="pad" x1="-819.2" x2="819.2">
      <stop offset="0.0" stop-color="#000000" stop-opacity="0.2509804"/>
      <stop offset="1.0" stop-color="#000000" stop-opacity="0.0"/>
    </linearGradient>
    <linearGradient gradientTransform="matrix(0.0, 0.0105, -0.007, 0.0, -85.5, 111.9)" gradientUnits="userSpaceOnUse" id="gradient15" spreadMethod="pad" x1="-819.2" x2="819.2">
      <stop offset="0.0" stop-color="#000000" stop-opacity="0.2509804"/>
      <stop offset="1.0" stop-color="#000000" stop-opacity="0.0"/>
    </linearGradient>
    <linearGradient gradientTransform="matrix(0.0, 0.0367, -0.0077, 0.0, -87.55, 149.85)" gradientUnits="userSpaceOnUse" id="gradient16" spreadMethod="pad" x1="-819.2" x2="819.2">
      <stop offset="0.0" stop-color="#000000" stop-opacity="0.2509804"/>
      <stop offset="1.0" stop-color="#000000" stop-opacity="0.0"/>
    </linearGradient>
    <linearGradient gradientTransform="matrix(0.0, 0.0122, -0.0069, 0.0, -89.95, 125.45)" gradientUnits="userSpaceOnUse" id="gradient17" spreadMethod="pad" x1="-819.2" x2="819.2">
      <stop offset="0.0" stop-color="#000000" stop-opacity="0.2509804"/>
      <stop offset="1.0" stop-color="#000000" stop-opacity="0.0"/>
    </linearGradient>
    <linearGradient gradientTransform="matrix(0.0, 0.0027, -0.0079, 0.0, -99.75, 124.2)" gradientUnits="userSpaceOnUse" id="gradient18" spreadMethod="pad" x1="-819.2" x2="819.2">
      <stop offset="0.0" stop-color="#000000" stop-opacity="0.2509804"/>
      <stop offset="1.0" stop-color="#000000" stop-opacity="0.0"/>
    </linearGradient>
    <linearGradient gradientTransform="matrix(0.0, 0.0012, -0.008, 0.0, -96.0, 146.8)" gradientUnits="userSpaceOnUse" id="gradient19" spreadMethod="pad" x1="-819.2" x2="819.2">
      <stop offset="0.0" stop-color="#000000" stop-opacity="0.2509804"/>
      <stop offset="1.0" stop-color="#000000" stop-opacity="0.0"/>
    </linearGradient>
    <linearGradient gradientTransform="matrix(-6.0E-4, -0.0021, 0.0076, -0.0023, -96.45, 143.25)" gradientUnits="userSpaceOnUse" id="gradient20" spreadMethod="pad" x1="-819.2" x2="819.2">
      <stop offset="0.0" stop-color="#000000" stop-opacity="0.2509804"/>
      <stop offset="1.0" stop-color="#000000" stop-opacity="0.0"/>
    </linearGradient>
    <linearGradient gradientTransform="matrix(-6.0E-4, -0.002, 0.0076, -0.0022, -97.15, 139.0)" gradientUnits="userSpaceOnUse" id="gradient21" spreadMethod="pad" x1="-819.2" x2="819.2">
      <stop offset="0.0" stop-color="#000000" stop-opacity="0.2509804"/>
      <stop offset="1.0" stop-color="#000000" stop-opacity="0.0"/>
    </linearGradient>
    <linearGradient gradientTransform="matrix(-6.0E-4, -0.002, 0.0076, -0.0022, -97.9, 134.8)" gradientUnits="userSpaceOnUse" id="gradient22" spreadMethod="pad" x1="-819.2" x2="819.2">
      <stop offset="0.0" stop-color="#000000" stop-opacity="0.2509804"/>
      <stop offset="1.0" stop-color="#000000" stop-opacity="0.0"/>
    </linearGradient>
    <linearGradient gradientTransform="matrix(0.0, 0.0027, -0.0079, 0.0, -98.25, 132.65)" gradientUnits="userSpaceOnUse" id="gradient23" spreadMethod="pad" x1="-819.2" x2="819.2">
      <stop offset="0.0" stop-color="#000000" stop-opacity="0.2509804"/>
      <stop offset="1.0" stop-color="#000000" stop-opacity="0.0"/>
    </linearGradient>
    <linearGradient gradientTransform="matrix(-6.0E-4, -0.002, 0.0076, -0.0022, -98.6, 130.6)" gradientUnits="userSpaceOnUse" id="gradient24" spreadMethod="pad" x1="-819.2" x2="819.2">
      <stop offset="0.0" stop-color="#000000" stop-opacity="0.2509804"/>
      <stop offset="1.0" stop-color="#000000" stop-opacity="0.0"/>
    </linearGradient>
    <linearGradient gradientTransform="matrix(-6.0E-4, -0.002, 0.0076, -0.0022, -99.0, 128.5)" gradientUnits="userSpaceOnUse" id="gradient25" spreadMethod="pad" x1="-819.2" x2="819.2">
      <stop offset="0.0" stop-color="#000000" stop-opacity="0.2509804"/>
      <stop offset="1.0" stop-color="#000000" stop-opacity="0.0"/>
    </linearGradient>
    <linearGradient gradientTransform="matrix(0.0, 0.0288, -0.0085, 0.0, -82.05, 158.15)" gradientUnits="userSpaceOnUse" id="gradient26" spreadMethod="pad" x1="-819.2" x2="819.2">
      <stop offset="0.0" stop-color="#000000" stop-opacity="0.2509804"/>
      <stop offset="1.0" stop-color="#000000" stop-opacity="0.0"/>
    </linearGradient>
    <linearGradient gradientTransform="matrix(0.0, 0.0027, -0.0079, 0.0, -94.9, 151.6)" gradientUnits="userSpaceOnUse" id="gradient27" spreadMethod="pad" x1="-819.2" x2="819.2">
      <stop offset="0.0" stop-color="#000000" stop-opacity="0.2509804"/>
      <stop offset="1.0" stop-color="#000000" stop-opacity="0.0"/>
    </linearGradient>
    <linearGradient gradientTransform="matrix(-6.0E-4, -0.0021, 0.0076, -0.0023, -94.55, 153.8)" gradientUnits="userSpaceOnUse" id="gradient28" spreadMethod="pad" x1="-819.2" x2="819.2">
      <stop offset="0.0" stop-color="#000000" stop-opacity="0.2509804"/>
      <stop offset="1.0" stop-color="#000000" stop-opacity="0.0"/>
    </linearGradient>
    <linearGradient gradientTransform="matrix(0.0, 0.0011, -0.008, 0.0, -94.15, 156.95)" gradientUnits="userSpaceOnUse" id="gradient29" spreadMethod="pad" x1="-819.2" x2="819.2">
      <stop offset="0.0" stop-color="#000000" stop-opacity="0.2509804"/>
      <stop offset="1.0" stop-color="#000000" stop-opacity="0.0"/>
    </linearGradient>
    <linearGradient gradientTransform="matrix(-2.0E-4, -5.0E-4, 0.0076, -0.0022, -93.65, 158.8)" gradientUnits="userSpaceOnUse" id="gradient30" spreadMethod="pad" x1="-819.2" x2="819.2">
      <stop offset="0.0" stop-color="#000000" stop-opacity="0.2509804"/>
      <stop offset="1.0" stop-color="#000000" stop-opacity="0.0"/>
    </linearGradient>
    <linearGradient gradientTransform="matrix(0.0, 0.0027, -0.008, 0.0, -93.4, 160.05)" gradientUnits="userSpaceOnUse" id="gradient31" spreadMethod="pad" x1="-819.2" x2="819.2">
      <stop offset="0.0" stop-color="#000000" stop-opacity="0.2509804"/>
      <stop offset="1.0" stop-color="#000000" stop-opacity="0.0"/>
    </linearGradient>
    <linearGradient gradientTransform="matrix(0.0, 0.0027, -0.008, 0.0, -92.65, 164.25)" gradientUnits="userSpaceOnUse" id="gradient32" spreadMethod="pad" x1="-819.2" x2="819.2">
      <stop offset="0.0" stop-color="#000000" stop-opacity="0.2509804"/>
      <stop offset="1.0" stop-color="#000000" stop-opacity="0.0"/>
    </linearGradient>
    <linearGradient gradientTransform="matrix(0.0, 0.0027, -0.008, 0.0, -91.55, 170.6)" gradientUnits="userSpaceOnUse" id="gradient33" spreadMethod="pad" x1="-819.2" x2="819.2">
      <stop offset="0.0" stop-color="#000000" stop-opacity="0.2509804"/>
      <stop offset="1.0" stop-color="#000000" stop-opacity="0.0"/>
    </linearGradient>
    <linearGradient gradientTransform="matrix(0.0, 0.0027, -0.0079, 0.0, -91.2, 172.7)" gradientUnits="userSpaceOnUse" id="gradient34" spreadMethod="pad" x1="-819.2" x2="819.2">
      <stop offset="0.0" stop-color="#000000" stop-opacity="0.2509804"/>
      <stop offset="1.0" stop-color="#000000" stop-opacity="0.0"/>
    </linearGradient>
    <linearGradient gradientTransform="matrix(0.0, 0.0027, -0.0079, 0.0, -90.45, 176.9)" gradientUnits="userSpaceOnUse" id="gradient35" spreadMethod="pad" x1="-819.2" x2="819.2">
      <stop offset="0.0" stop-color="#000000" stop-opacity="0.2509804"/>
      <stop offset="1.0" stop-color="#000000" stop-opacity="0.0"/>
    </linearGradient>
    <linearGradient gradientTransform="matrix(0.0, 0.0027, -0.008, 0.0, -90.05, 179.0)" gradientUnits="userSpaceOnUse" id="gradient36" spreadMethod="pad" x1="-819.2" x2="819.2">
      <stop offset="0.0" stop-color="#000000" stop-opacity="0.2509804"/>
      <stop offset="1.0" stop-color="#000000" stop-opacity="0.0"/>
    </linearGradient>
    <linearGradient gradientTransform="matrix(0.0, 0.001, -0.0021, 0.0, -87.05, 185.15)" gradientUnits="userSpaceOnUse" id="gradient37" spreadMethod="pad" x1="-819.2" x2="819.2">
      <stop offset="0.0" stop-color="#000000" stop-opacity="0.2509804"/>
      <stop offset="1.0" stop-color="#000000" stop-opacity="0.0"/>
    </linearGradient>
    <linearGradient gradientTransform="matrix(0.0, 0.0027, -0.008, 0.0, -90.8, 174.8)" gradientUnits="userSpaceOnUse" id="gradient38" spreadMethod="pad" x1="-819.2" x2="819.2">
      <stop offset="0.0" stop-color="#000000" stop-opacity="0.2509804"/>
      <stop offset="1.0" stop-color="#000000" stop-opacity="0.0"/>
    </linearGradient>
    <linearGradient gradientTransform="matrix(0.0, 0.0037, -0.0073, 0.0, -88.45, 194.3)" gradientUnits="userSpaceOnUse" id="gradient39" spreadMethod="pad" x1="-819.2" x2="819.2">
      <stop offset="0.0" stop-color="#000000" stop-opacity="0.2509804"/>
      <stop offset="1.0" stop-color="#000000" stop-opacity="0.0"/>
    </linearGradient>
    <linearGradient gradientTransform="matrix(0.0, 0.0037, -0.0036, 0.0, -86.45, 188.3)" gradientUnits="userSpaceOnUse" id="gradient40" spreadMethod="pad" x1="-819.2" x2="819.2">
      <stop offset="0.0" stop-color="#000000" stop-opacity="0.2509804"/>
      <stop offset="1.0" stop-color="#000000" stop-opacity="0.0"/>
    </linearGradient>
    <linearGradient gradientTransform="matrix(0.0, 0.0305, -0.0072, 0.0, -84.8, 220.15)" gradientUnits="userSpaceOnUse" id="gradient41" spreadMethod="pad" x1="-819.2" x2="819.2">
      <stop offset="0.0" stop-color="#000000" stop-opacity="0.2509804"/>
      <stop offset="1.0" stop-color="#000000" stop-opacity="0.0"/>
    </linearGradient>
    <linearGradient gradientTransform="matrix(0.0, 0.0296, -0.0097, 0.0, -79.5, 219.3)" gradientUnits="userSpaceOnUse" id="gradient42" spreadMethod="pad" x1="-819.2" x2="819.2">
      <stop offset="0.0" stop-color="#000000" stop-opacity="0.2509804"/>
      <stop offset="1.0" stop-color="#000000" stop-opacity="0.0"/>
    </linearGradient>
    <linearGradient gradientTransform="matrix(0.0, 0.0134, -0.0057, 0.0, -79.6, 192.35)" gradientUnits="userSpaceOnUse" id="gradient43" spreadMethod="pad" x1="-819.2" x2="819.2">
      <stop offset="0.0" stop-color="#000000" stop-opacity="0.2509804"/>
      <stop offset="1.0" stop-color="#000000" stop-opacity="0.0"/>
    </linearGradient>
    <linearGradient gradientTransform="matrix(-6.0E-4, -0.0021, 0.0076, -0.0023, -95.25, 149.55)" gradientUnits="userSpaceOnUse" id="gradient44" spreadMethod="pad" x1="-819.2" x2="819.2">
      <stop offset="0.0" stop-color="#000000" stop-opacity="0.2509804"/>
      <stop offset="1.0" stop-color="#000000" stop-opacity="0.0"/>
    </linearGradient>
    <linearGradient gradientTransform="matrix(9.0E-4, -0.0029, 0.0022, 6.0E-4, -76.05, 204.35)" gradientUnits="userSpaceOnUse" id="gradient45" spreadMethod="pad" x1="-819.2" x2="819.2">
      <stop offset="0.0" stop-color="#000000" stop-opacity="0.2509804"/>
      <stop offset="1.0" stop-color="#000000" stop-opacity="0.0"/>
    </linearGradient>
    <linearGradient gradientTransform="matrix(0.0014, -0.0049, 0.0032, 9.0E-4, -75.3, 209.95)" gradientUnits="userSpaceOnUse" id="gradient46" spreadMethod="pad" x1="-819.2" x2="819.2">
      <stop offset="0.0" stop-color="#000000" stop-opacity="0.2509804"/>
      <stop offset="1.0" stop-color="#000000" stop-opacity="0.0"/>
    </linearGradient>
    <linearGradient gradientTransform="matrix(9.0E-4, -0.0029, 0.0022, 7.0E-4, -74.1, 215.2)" gradientUnits="userSpaceOnUse" id="gradient47" spreadMethod="pad" x1="-819.2" x2="819.2">
      <stop offset="0.0" stop-color="#000000" stop-opacity="0.2509804"/>
      <stop offset="1.0" stop-color="#000000" stop-opacity="0.0"/>
    </linearGradient>
    <linearGradient gradientTransform="matrix(0.0029, -0.0095, 0.0053, 0.0016, -72.9, 225.45)" gradientUnits="userSpaceOnUse" id="gradient48" spreadMethod="pad" x1="-819.2" x2="819.2">
      <stop offset="0.0" stop-color="#000000" stop-opacity="0.2509804"/>
      <stop offset="1.0" stop-color="#000000" stop-opacity="0.0"/>
    </linearGradient>
    <linearGradient gradientTransform="matrix(0.0, 0.0065, -0.0029, 0.0, -70.9, 238.1)" gradientUnits="userSpaceOnUse" id="gradient49" spreadMethod="pad" x1="-819.2" x2="819.2">
      <stop offset="0.0" stop-color="#000000" stop-opacity="0.2509804"/>
      <stop offset="1.0" stop-color="#000000" stop-opacity="0.0"/>
    </linearGradient>
    <linearGradient gradientTransform="matrix(0.0017, -0.0058, 0.0104, 0.0031, -62.95, 238.0)" gradientUnits="userSpaceOnUse" id="gradient50" spreadMethod="pad" x1="-819.2" x2="819.2">
      <stop offset="0.0" stop-color="#000000" stop-opacity="0.2509804"/>
      <stop offset="1.0" stop-color="#000000" stop-opacity="0.0"/>
    </linearGradient>
    <linearGradient gradientTransform="matrix(0.0, 0.0045, -0.007, 0.0, -73.3, 245.45)" gradientUnits="userSpaceOnUse" id="gradient51" spreadMethod="pad" x1="-819.2" x2="819.2">
      <stop offset="0.0" stop-color="#000000" stop-opacity="0.2509804"/>
      <stop offset="1.0" stop-color="#000000" stop-opacity="0.0"/>
    </linearGradient>
    <linearGradient gradientTransform="matrix(2.0E-4, -5.0E-4, 0.0076, 0.0022, -66.85, 249.9)" gradientUnits="userSpaceOnUse" id="gradient52" spreadMethod="pad" x1="-819.2" x2="819.2">
      <stop offset="0.0" stop-color="#000000" stop-opacity="0.2509804"/>
      <stop offset="1.0" stop-color="#000000" stop-opacity="0.0"/>
    </linearGradient>
    <linearGradient gradientTransform="matrix(0.0, 0.0071, -0.004, 0.0, -79.45, 250.05)" gradientUnits="userSpaceOnUse" id="gradient53" spreadMethod="pad" x1="-819.2" x2="819.2">
      <stop offset="0.0" stop-color="#000000" stop-opacity="0.2509804"/>
      <stop offset="1.0" stop-color="#000000" stop-opacity="0.0"/>
    </linearGradient>
  </defs>
</svg>
