<?xml version="1.0" encoding="UTF-8" standalone="no"?>
<svg xmlns:xlink="http://www.w3.org/1999/xlink" height="68.55px" width="25.65px" xmlns="http://www.w3.org/2000/svg">
  <g transform="matrix(1.0, 0.0, 0.0, 1.0, -287.35, -372.4)">
    <path d="M301.85 378.05 Q301.8 378.55 301.25 378.7 L300.4 378.9 Q300.6 380.5 299.9 380.7 L299.9 380.95 300.85 386.2 300.2 388.35 302.9 403.6 305.25 406.65 310.3 432.7 311.55 434.1 312.5 433.9 313.0 436.75 312.1 437.1 312.15 437.55 308.35 438.2 308.7 440.2 304.55 440.95 304.1 439.0 301.05 439.6 Q299.6 439.35 299.55 438.5 L296.35 420.25 297.3 417.15 289.6 373.65 296.65 372.4 298.6 373.55 298.7 374.15 Q300.15 375.35 301.45 375.85 L301.85 378.05 M290.5 407.1 Q292.15 407.35 292.8 406.35 L293.7 411.45 Q290.3 406.85 287.45 411.25 286.7 407.75 290.5 407.1" fill="#ffffff" fill-rule="evenodd" stroke="none"/>
  </g>
</svg>
