<?xml version="1.0" encoding="UTF-8" standalone="no"?>
<svg xmlns:xlink="http://www.w3.org/1999/xlink" height="208.15px" width="70.65px" xmlns="http://www.w3.org/2000/svg">
  <g transform="matrix(1.0, 0.0, 0.0, 1.0, -249.05, -315.15)">
    <path d="M303.75 466.3 Q304.7 466.45 305.0 466.9 L303.05 455.75 Q302.75 455.35 301.8 455.2 L298.8 455.25 Q297.1 455.55 296.05 456.2 294.9 456.8 295.05 457.45 L297.0 468.5 Q296.95 467.95 298.0 467.3 299.1 466.65 300.8 466.35 L303.75 466.3 M284.9 413.4 Q286.5 414.85 288.3 414.5 290.15 414.2 291.15 412.3 L291.3 412.05 290.0 404.55 289.75 404.25 Q288.15 402.9 286.3 403.2 284.5 403.55 283.5 405.35 L282.95 406.6 284.0 412.5 284.9 413.4 M271.5 371.85 Q267.95 372.9 267.9 375.6 L269.05 382.15 Q271.65 382.2 274.8 383.5 277.95 384.65 286.0 390.0 290.0 392.55 291.5 390.45 L292.05 389.2 292.25 387.75 290.45 377.6 288.65 374.5 Q285.6 371.2 279.05 370.6 L271.5 371.85 M284.8 315.85 Q285.4 316.35 285.6 317.3 L285.55 318.15 298.55 391.75 292.7 392.75 290.05 398.45 296.25 434.35 305.5 432.7 319.7 513.1 316.25 518.95 316.1 518.95 314.25 519.3 309.9 494.8 Q309.8 495.3 308.95 495.85 307.85 496.45 306.15 496.75 L303.2 496.85 Q301.95 496.6 301.8 495.95 L305.9 518.95 305.9 519.2 305.2 520.9 291.4 523.3 Q288.25 521.95 287.8 519.85 L285.4 506.3 292.65 505.0 Q295.75 504.45 297.05 500.65 297.75 498.9 297.85 497.1 L291.2 459.35 282.3 451.3 275.9 452.45 271.1 425.15 276.45 416.3 281.85 415.35 282.7 413.75 280.3 400.25 Q272.25 395.75 268.6 395.15 L262.6 395.9 Q259.85 396.4 259.3 394.5 258.95 393.6 259.3 392.55 L263.9 384.05 258.6 357.05 253.6 351.9 249.05 326.15 249.15 323.75 Q249.1 322.65 249.6 322.2 250.75 321.2 258.05 320.9 L267.9 320.2 Q269.8 319.8 276.85 316.75 282.85 314.1 284.8 315.85 M304.1 468.35 Q302.85 468.05 301.15 468.35 299.45 468.65 298.35 469.35 297.25 469.9 297.3 470.45 L301.3 493.0 Q301.4 493.55 302.7 493.85 L305.6 493.7 308.45 492.85 309.4 491.8 305.35 468.95 Q305.05 468.4 304.1 468.35" fill="#ffffff" fill-rule="evenodd" stroke="none"/>
  </g>
</svg>
