<?xml version="1.0" encoding="UTF-8" standalone="no"?>
<svg xmlns:xlink="http://www.w3.org/1999/xlink" height="80.45px" width="20.8px" xmlns="http://www.w3.org/2000/svg">
  <g transform="matrix(1.0, 0.0, 0.0, 1.0, -302.85, -429.5)">
    <path d="M306.15 431.45 Q307.2 430.6 308.4 430.35 L313.35 429.5 318.5 458.45 316.0 458.9 316.35 460.9 317.05 465.05 318.2 471.35 318.55 473.45 319.3 477.55 319.65 479.6 321.85 492.15 322.9 498.35 323.65 502.5 320.25 506.3 318.95 507.5 317.4 508.8 315.35 509.95 302.85 438.85 Q303.0 437.55 303.45 436.2 303.65 435.55 304.0 434.85 304.85 432.7 306.15 431.45" fill="#ffffff" fill-rule="evenodd" stroke="none"/>
  </g>
</svg>
