<?xml version="1.0" encoding="UTF-8" standalone="no"?>
<svg xmlns:xlink="http://www.w3.org/1999/xlink" height="69.55px" width="50.75px" xmlns="http://www.w3.org/2000/svg">
  <g transform="matrix(1.0, 0.0, 0.0, 1.0, -262.75, -371.9)">
    <path d="M298.7 374.15 Q300.15 375.35 301.45 375.85 L301.85 378.05 Q301.8 378.55 301.25 378.7 L300.4 378.9 Q300.6 380.5 299.9 380.7 L299.9 380.95 300.2 382.4 300.45 383.95 300.7 385.45 300.85 386.2 300.6 387.05 300.2 388.35 300.25 388.7 300.5 390.15 302.9 403.6 305.25 406.65 310.3 432.7 311.55 434.1 312.5 433.9 313.0 436.75 312.1 437.1 312.15 437.55 309.15 438.05 308.35 438.2 308.7 440.2 304.55 440.95 304.1 439.0 301.05 439.6 Q299.6 439.35 299.55 438.5 L298.0 438.15 295.25 422.65 Q294.85 421.15 292.7 421.25 L289.6 421.8 Q285.9 421.55 285.2 418.6 L283.0 406.1 281.5 403.75 Q276.9 403.7 272.0 401.9 269.2 402.95 267.35 402.75 L265.75 403.0 Q264.9 395.85 263.25 388.8 L264.55 388.0 264.75 387.9 Q265.55 386.45 267.05 386.0 274.25 384.85 282.75 390.4 289.1 391.25 289.0 385.95 L289.5 385.85 287.55 374.8 288.15 373.9 289.6 373.65 296.65 372.4 298.6 373.55 298.7 374.15 M292.8 406.35 L292.7 405.65 Q292.3 403.95 290.15 404.6 L287.95 405.0 286.75 405.2 Q285.2 405.8 285.4 407.45 L287.2 417.55 Q287.6 419.3 289.75 419.4 L292.95 418.85 Q294.6 418.8 294.7 417.2 L293.7 411.45 Q290.3 406.85 287.45 411.25 286.7 407.75 290.5 407.1 292.15 407.35 292.8 406.35" fill="none" stroke="#000000" stroke-linecap="round" stroke-linejoin="round" stroke-width="1.0"/>
    <path d="M298.7 374.15 L299.15 376.5 299.4 377.9 299.65 379.45 299.9 380.7 M295.55 389.5 L300.25 388.7 M292.7 405.65 L291.95 401.45 290.4 399.85 289.4 394.0 Q291.4 392.35 291.35 389.45 L290.8 385.6 289.5 385.85 M289.6 373.65 L295.45 406.85 298.05 406.4 298.85 405.25 297.8 399.25 299.25 399.0 300.15 404.1 302.9 403.6 M300.5 390.15 L296.4 390.85 M300.7 385.45 L294.0 386.65 M300.2 382.4 L293.5 383.6 M299.9 380.95 L293.2 382.15 M300.45 383.95 L293.7 385.15 M299.4 377.9 L292.7 379.1 M299.65 379.45 L292.95 380.65 M300.6 387.05 L294.4 388.15 M300.15 404.1 L299.55 404.2 298.85 405.25 M292.8 406.35 L293.7 411.45 M295.45 406.85 L297.3 417.15 296.35 420.25 299.55 438.5 M292.45 377.7 L299.15 376.5 M267.35 402.75 L267.7 401.2 266.55 401.4 Q266.05 395.25 264.4 389.15 L265.45 388.95 264.75 387.9 M274.45 392.3 Q275.3 392.15 276.0 392.7 276.7 393.25 276.9 394.25 277.05 395.15 276.6 395.95 276.1 396.7 275.25 396.85 274.4 397.0 273.75 396.45 273.0 395.85 272.8 395.0 272.65 393.95 273.15 393.2 273.6 392.45 274.45 392.3 M265.45 388.95 Q268.8 394.65 267.7 401.2 M305.3 429.5 L304.9 428.9 Q304.85 428.55 305.05 428.25 L305.5 427.85 Q305.85 427.8 306.1 428.1 L306.45 428.65 306.35 429.35 305.8 429.6 305.3 429.5 M307.05 432.75 L306.95 433.35 306.5 433.7 305.95 433.5 305.65 433.0 305.75 432.4 Q305.95 432.15 306.2 432.1 L306.75 432.25 307.05 432.75 M312.1 437.1 L311.55 434.1 M309.15 438.05 L310.65 434.65 310.3 432.7 M303.25 430.65 L303.75 430.75 304.05 431.25 303.95 431.75 303.5 432.0 303.05 431.9 302.75 431.45 302.85 430.9 Q303.0 430.65 303.25 430.65 M304.1 439.0 L308.35 438.2 M287.95 405.0 L281.5 403.75" fill="none" stroke="#000000" stroke-linecap="round" stroke-linejoin="round" stroke-opacity="0.49803922" stroke-width="1.0"/>
  </g>
</svg>
