<?xml version="1.0" encoding="UTF-8" standalone="no"?>
<svg xmlns:xlink="http://www.w3.org/1999/xlink" height="371.7px" width="68.8px" xmlns="http://www.w3.org/2000/svg">
  <g transform="matrix(1.0, 0.0, 0.0, 1.0, -263.05, -180.35)">
    <path d="M324.55 350.15 L324.2 349.7 Q323.6 349.2 322.85 349.3 322.25 349.4 321.8 349.95 L321.5 350.5 M321.65 351.95 L322.05 352.4 Q322.6 352.9 323.25 352.8 L324.45 352.15 324.75 351.6 330.95 350.85 330.75 349.4 324.55 350.15 M321.65 351.95 L320.4 352.1 321.25 353.4 322.05 360.6 321.6 362.0 322.05 365.85 Q321.95 367.95 319.9 369.15 L317.05 369.5 316.85 368.0 315.5 368.2 316.1 373.1 313.35 377.05 314.1 378.5 314.7 383.5 314.35 383.5 316.7 403.05 317.0 403.05 317.65 408.6 317.35 408.6 318.4 417.55 Q317.95 419.25 318.85 420.85 L319.0 422.1 320.45 421.9 320.3 420.8 323.9 420.3 Q325.1 420.15 325.2 421.1 L326.8 434.35 Q326.65 436.15 325.55 437.1 L322.3 437.45 322.15 436.25 320.65 436.45 320.8 437.55 319.9 437.65 320.5 439.65 320.9 442.4 320.2 442.45 320.5 445.15 321.45 445.05 323.75 445.75 322.2 451.95 323.6 463.3 324.2 464.05 324.8 469.05 328.6 480.2 328.65 480.3 329.9 491.1 329.55 491.55 329.95 491.85 331.05 500.8 331.35 503.45 330.1 543.05 330.45 545.95 329.7 546.05 330.3 550.95 325.25 551.55 324.65 546.7 323.9 546.75 323.55 543.8 313.2 505.6 312.9 502.95 311.8 494.0 312.1 493.55 311.75 493.25 310.45 482.5 310.45 482.4 311.45 470.65 310.9 465.65 311.35 464.7 309.95 453.4 307.05 447.7 309.2 446.5 310.05 446.4 309.8 443.65 309.1 443.75 308.75 441.05 308.9 439.0 308.0 439.15 307.5 434.9 308.55 434.8 307.5 426.4 306.55 426.55 306.05 422.4 Q306.65 420.6 305.6 419.05 L304.55 410.2 304.3 410.2 300.8 410.6 298.25 410.85 293.9 411.4 Q291.3 411.65 290.0 409.8 L286.25 401.85 286.2 401.85 285.2 399.7 284.35 399.75 268.1 402.55 Q265.1 403.15 264.35 401.2 L263.55 394.4 Q263.8 392.4 266.9 392.25 L283.3 391.1 Q286.9 389.45 285.7 384.05 L286.6 384.0 Q287.15 386.3 288.3 386.55 L290.75 386.3 Q291.6 384.35 293.35 383.5 L292.4 380.45 Q293.6 380.3 294.05 381.1 L294.9 382.9 295.1 384.8 Q294.05 385.0 293.75 386.0 L296.65 385.65 296.55 384.25 295.45 384.4 295.25 383.1 296.35 382.95 296.2 381.8 297.0 381.7 297.0 381.15 298.95 380.9 299.55 380.25 300.75 380.1 301.1 378.55 300.65 378.05 300.3 378.15 Q298.0 378.15 298.0 375.65 L297.55 375.3 295.3 356.55 294.6 356.55 295.0 359.8 Q294.0 361.0 292.9 360.0 291.75 358.3 289.95 358.1 L289.35 358.1 269.5 360.45 Q266.85 360.55 266.6 357.6 L265.9 351.9 Q265.5 348.9 268.05 348.3 L287.85 345.95 288.5 345.85 Q290.2 345.3 290.9 343.35 291.65 342.25 292.7 342.8 L292.55 342.5 292.4 341.2 292.6 341.15 292.4 339.55 292.15 339.6 291.85 337.15 292.1 337.15 286.95 293.8 287.6 273.1 287.35 270.9 287.15 270.9 286.85 268.45 287.05 268.4 283.45 238.1 283.25 238.15 283.0 235.7 283.2 235.7 282.95 233.3 282.75 233.35 282.45 230.95 282.65 230.95 283.35 229.75 273.4 191.95 272.8 187.25 268.55 187.85 Q267.15 186.4 268.15 184.7 L300.15 180.85 Q301.55 182.3 300.5 184.05 L296.15 184.5 296.7 189.2 295.95 228.25 296.9 229.25 297.1 229.25 298.7 229.1 Q299.9 230.15 299.0 231.45 L297.4 231.6 297.2 231.65 297.45 233.95 297.65 233.95 299.3 233.75 Q300.7 234.95 299.6 236.2 L297.95 236.4 297.75 236.45 301.35 266.7 301.55 266.7 303.2 266.5 Q304.45 267.7 303.45 268.95 L301.85 269.1 301.65 269.15 301.9 271.4 307.3 291.4 312.4 334.75 312.7 334.7 314.5 334.5 Q315.95 335.55 314.8 336.95 L313.0 337.1 312.7 337.2 312.9 338.8 313.15 338.75 313.25 340.05 Q313.25 340.65 312.8 340.65 L311.85 340.8 312.05 342.65 312.55 343.15 313.5 351.2 314.85 351.05 314.75 349.7 317.6 349.35 Q318.95 349.75 319.7 350.75 L321.5 350.5 M298.25 410.85 Q300.6 410.45 300.5 407.9 L300.35 406.85 300.5 406.4 299.15 405.05 Q298.75 400.6 297.45 400.55 L286.25 401.85" fill="none" stroke="#000000" stroke-linecap="round" stroke-linejoin="round" stroke-width="1.0"/>
    <path d="M324.75 351.6 L324.8 350.8 324.55 350.15 M321.5 350.5 Q321.4 350.85 321.45 351.25 L321.65 351.95 M296.15 184.5 L272.8 187.25 M273.4 191.95 L296.7 189.2 M297.45 230.4 L299.0 230.65 299.05 230.3 297.5 229.95 297.45 230.4 297.75 231.0 298.3 231.2 298.85 230.9 299.0 230.65 M299.05 230.3 L299.05 230.25 298.7 229.6 Q298.5 229.35 298.15 229.4 297.8 229.45 297.6 229.7 L297.5 229.95 M297.4 231.6 L297.1 229.25 M298.05 234.7 L299.7 235.0 299.65 234.95 299.35 234.35 Q299.1 234.1 298.75 234.1 L298.2 234.45 298.05 234.7 298.0 235.15 299.6 235.45 299.7 235.0 M299.6 235.45 L299.45 235.7 Q299.3 236.0 298.95 236.0 L298.35 235.8 298.0 235.15 M297.65 233.95 L297.95 236.4 M303.2 267.05 L303.5 267.65 303.5 267.75 303.45 268.15 303.3 268.4 302.85 268.65 302.25 268.45 301.9 267.85 301.95 267.4 302.1 267.15 302.6 266.85 303.2 267.05 M301.85 269.1 L301.55 266.7 M301.95 267.4 L303.5 267.75 M301.9 267.85 L303.45 268.15 M287.35 270.9 L301.65 269.15 M301.35 266.7 L287.05 268.4 M287.6 273.1 L301.9 271.4 M307.3 291.4 L286.95 293.8 M295.95 228.25 L283.35 229.75 M283.45 238.1 L297.75 236.45 M297.45 233.95 L283.2 235.7 M282.95 233.3 L297.2 231.65 M296.9 229.25 L282.65 230.95 M293.05 342.95 L293.0 342.95 293.0 343.0 293.05 342.95 293.25 343.0 294.1 342.9 311.85 340.8 M293.0 342.95 L292.75 342.8 292.7 342.8 M294.6 356.55 L293.35 346.2 293.0 343.0 M293.35 346.2 L294.1 346.15 294.0 345.35 294.3 344.75 294.1 342.9 M313.4 336.45 Q313.7 336.7 314.05 336.65 L314.7 336.3 314.85 336.1 313.1 335.8 313.4 336.45 M313.3 335.2 Q313.15 335.2 313.15 335.35 L314.9 335.7 314.9 335.6 314.55 335.1 Q314.25 334.8 313.85 334.85 L313.3 335.2 M313.15 335.35 Q313.05 335.55 313.1 335.8 M313.0 337.1 L312.7 334.7 M314.85 336.1 L314.9 335.7 M292.1 337.15 L312.4 334.75 M312.9 338.8 L292.6 341.15 M312.7 337.2 L292.4 339.55 M269.5 355.75 L269.2 354.35 269.15 353.0 Q269.25 350.9 270.95 350.45 L289.65 348.2 Q291.15 348.1 291.3 349.9 L291.7 353.55 Q292.0 355.4 290.55 355.6 L271.8 357.8 Q270.1 357.75 269.5 355.75 M319.7 350.75 L320.4 352.1 317.65 356.6 Q316.65 358.55 317.65 360.6 318.6 362.45 321.6 362.0 M323.55 350.35 L323.0 350.25 Q322.7 350.25 322.45 350.5 L322.3 351.1 Q322.35 351.5 322.55 351.6 L323.15 351.85 323.65 351.5 323.85 350.9 323.55 350.35 M322.05 360.6 Q319.8 360.85 319.05 359.65 318.35 358.15 319.05 356.7 L321.25 353.4 M313.5 351.2 L312.35 351.35 312.55 353.5 313.75 353.3 315.1 353.2 314.85 351.05 M304.45 363.75 L303.45 372.15 301.6 372.0 302.05 376.05 307.6 375.45 307.45 374.1 304.25 346.7 298.25 347.5 299.8 360.5 300.25 360.4 301.55 371.55 302.8 370.95 301.6 360.75 304.0 360.45 304.45 363.75 M316.85 368.0 L316.6 365.85 315.25 366.0 314.1 366.15 314.35 368.35 315.5 368.2 M313.75 353.3 L315.25 366.0 M316.6 365.85 L315.1 353.2 M302.0 352.25 Q302.6 352.15 303.0 351.65 L303.35 350.6 Q303.25 350.0 302.75 349.6 302.3 349.2 301.65 349.3 301.05 349.35 300.65 349.8 300.25 350.35 300.35 350.95 300.4 351.5 300.9 351.9 301.4 352.3 302.0 352.25 M302.85 353.1 L301.95 352.9 Q301.5 352.95 301.15 353.35 300.9 353.65 300.95 354.15 L301.5 358.55 Q301.55 359.05 301.9 359.4 302.3 359.7 302.8 359.65 L303.55 359.15 303.75 358.3 303.3 353.85 302.85 353.1 M299.8 360.5 L298.95 360.55 298.45 362.15 299.1 368.1 298.05 375.2 298.0 375.65 M301.6 372.0 L301.55 371.55 M298.05 375.2 L297.55 375.3 M302.05 376.05 L302.3 377.9 300.65 378.05 M287.9 392.5 Q288.4 392.4 288.75 392.05 L288.95 391.25 288.55 390.5 Q288.1 390.2 287.65 390.3 287.25 390.35 287.0 390.65 286.7 391.1 286.7 391.5 286.75 391.95 287.15 392.2 287.45 392.55 287.9 392.5 M286.2 401.85 L285.0 391.0 Q285.15 388.2 288.3 386.55 M314.1 378.5 L300.75 380.1 301.3 385.05 301.55 385.05 314.35 383.5 M299.3 386.5 Q298.75 386.5 298.4 386.95 298.0 387.5 298.1 388.05 298.15 388.65 298.65 388.95 299.1 389.35 299.6 389.35 300.2 389.25 300.6 388.75 300.95 388.3 300.85 387.7 300.8 387.15 300.35 386.8 299.9 386.4 299.3 386.5 M296.65 385.65 L297.5 385.55 297.0 381.7 M301.3 385.05 L297.5 385.55 M294.9 382.9 Q294.05 383.05 293.35 383.5 M290.75 386.3 L293.75 386.0 M296.35 382.95 L296.55 384.25 M316.1 373.1 L307.45 374.1 M313.35 377.05 L301.1 378.55 M295.3 356.55 L294.1 346.15 M304.55 410.2 L317.35 408.6 M316.7 403.05 L303.9 404.6 303.7 405.05 304.3 410.2 M305.6 419.05 L318.4 417.55 M302.45 400.95 L301.55 400.75 Q301.1 400.8 300.8 401.15 300.45 401.6 300.5 402.05 300.55 402.55 301.0 402.8 L301.8 403.05 302.65 402.6 Q302.95 402.25 302.9 401.75 L302.45 400.95 M302.25 407.15 Q301.9 407.2 301.7 407.5 301.5 407.7 301.55 408.05 L301.85 408.6 302.45 408.8 302.95 408.45 303.15 407.85 Q303.1 407.5 302.85 407.3 L302.25 407.15 M303.7 405.05 L302.8 405.45 Q301.0 405.75 300.5 406.4 M289.7 397.8 Q289.4 398.25 289.5 398.8 289.6 399.4 290.0 399.75 L290.95 400.0 Q291.55 400.0 291.95 399.5 L292.2 398.5 Q292.1 397.9 291.7 397.65 L290.65 397.35 Q290.1 397.4 289.7 397.8 M300.5 407.9 L300.8 410.6 M320.45 421.9 L320.6 423.7 321.25 428.45 322.3 428.35 Q322.85 428.95 322.45 429.55 L321.4 429.65 321.95 434.4 322.15 436.25 M307.5 426.4 L318.35 425.1 319.3 425.0 319.1 423.9 318.35 424.0 318.15 422.2 319.0 422.1 M322.95 424.9 Q322.65 425.2 322.7 425.6 322.75 426.05 323.15 426.45 L323.9 426.65 Q324.35 426.6 324.65 426.2 L324.8 425.45 324.5 424.65 323.65 424.45 322.95 424.9 M319.1 423.9 L320.6 423.7 M321.25 428.45 L321.4 429.65 M323.3 430.85 Q323.4 431.35 323.75 431.65 L324.5 431.85 325.3 431.45 325.45 430.65 325.1 429.9 324.25 429.65 Q323.85 429.7 323.6 430.1 323.25 430.4 323.3 430.85 M323.1 433.95 L323.0 434.5 323.25 435.0 323.7 435.15 324.2 434.85 324.35 434.3 324.05 433.8 323.5 433.7 323.1 433.95 M320.65 436.45 L319.85 436.55 319.65 434.65 320.45 434.55 320.3 433.35 319.3 433.45 308.55 434.8 M321.95 434.4 L320.45 434.55 M310.05 446.4 L311.65 446.2 313.75 445.95 316.8 445.6 319.0 445.3 320.5 445.15 M319.3 433.45 L318.35 425.1 M308.75 441.05 L320.5 439.65 M320.2 442.45 L309.8 443.65 M308.9 439.0 L319.9 437.65 M318.85 420.85 L306.05 422.4 M316.8 445.6 L317.6 452.5 317.7 452.45 318.15 446.15 316.8 445.6 M317.6 452.5 L314.5 452.85 312.35 453.15 309.95 453.4 309.2 446.5 M319.0 445.3 L320.35 445.9 319.85 452.25 322.2 451.95 321.45 445.05 M320.35 445.9 L318.15 446.15 M317.7 452.45 L319.85 452.25 M311.65 446.2 L310.35 447.1 312.55 446.8 313.7 446.0 313.75 445.95 M310.35 447.1 L312.35 453.15 M313.7 446.0 L314.5 452.85 312.55 446.8 M323.6 463.3 L311.35 464.7 M329.7 546.05 L324.65 546.7 M330.1 543.05 L323.55 543.8 M310.45 482.4 L328.6 480.2 M329.55 491.55 L312.1 493.55 M313.2 505.6 L331.35 503.45 M312.9 502.95 L331.05 500.8 M324.2 464.05 L310.9 465.65 M311.45 470.65 L324.8 469.05 M283.3 391.1 L284.35 399.75 M301.55 385.05 L303.9 404.6" fill="none" stroke="#000000" stroke-linecap="round" stroke-linejoin="round" stroke-opacity="0.5019608" stroke-width="1.0"/>
  </g>
</svg>
