<?xml version="1.0" encoding="UTF-8" standalone="no"?>
<svg xmlns:xlink="http://www.w3.org/1999/xlink" height="226.55px" width="177.8px" xmlns="http://www.w3.org/2000/svg">
  <g transform="matrix(1.0, 0.0, 0.0, 1.0, -215.55, -335.05)">
    <path d="M290.65 395.0 Q294.2 394.35 297.05 397.2 298.4 398.25 300.3 398.4 301.85 398.05 302.25 396.25 302.7 395.7 303.05 396.35 302.9 398.6 300.6 399.45 L300.15 400.25 Q300.85 400.85 300.85 401.6 L300.95 401.65 Q302.65 402.15 303.95 404.0 L312.5 418.75 316.8 426.2 Q317.65 427.7 318.55 427.65 L320.35 430.7 320.35 431.15 323.5 436.55 325.25 435.5 326.35 437.4 324.6 438.45 389.25 551.15 391.3 550.75 Q392.3 552.35 390.55 553.35 L392.85 557.35 391.95 558.8 390.25 559.8 388.55 559.65 388.3 559.15 387.0 560.5 Q385.75 561.2 385.25 561.05 L374.8 543.1 374.35 543.0 373.2 540.95 373.35 540.7 344.9 492.0 Q343.95 492.3 343.25 491.05 L340.75 487.2 340.95 487.1 340.0 485.7 338.6 483.65 336.45 480.25 332.6 474.15 325.9 463.05 324.6 460.85 322.55 457.4 318.9 451.15 310.75 437.15 310.7 437.1 Q308.95 433.65 307.25 433.7 L307.1 433.4 303.55 427.35 301.95 424.65 300.15 421.5 299.3 420.15 299.2 419.95 Q297.0 416.95 293.6 417.1 L293.1 418.2 289.3 418.35 Q284.65 419.5 281.35 414.8 L280.75 413.75 Q279.6 411.55 279.15 409.45 L279.0 409.4 278.8 409.35 278.35 409.15 277.05 408.35 267.7 401.0 267.0 400.25 266.4 399.0 266.4 397.75 Q267.2 394.9 269.65 394.6 L269.8 394.6 269.9 394.5 270.9 394.65 Q271.65 394.85 272.5 395.45 L272.8 395.6 273.45 394.75 Q262.6 386.5 252.75 379.75 233.7 366.05 216.95 352.65 L216.05 351.95 Q233.15 348.1 234.9 335.55 238.85 338.9 245.7 346.45 L245.55 346.65 Q259.75 360.8 270.7 373.4 272.6 375.5 272.4 377.8 L272.25 379.55 Q272.2 381.5 274.45 383.25 L275.45 383.9 Q280.6 386.7 290.4 394.8 L290.65 395.0 M272.8 395.6 L280.7 402.0 280.8 402.1 281.15 402.5 281.45 402.9 281.9 403.85 282.0 404.15 282.05 404.9 281.95 405.8 281.9 405.85 281.9 405.95 281.5 407.35 281.4 407.85 281.4 408.05 281.2 409.55 281.2 409.7 Q281.1 410.7 281.55 411.7 L282.2 412.9 Q284.55 416.65 288.5 416.65 290.7 416.45 291.2 414.45 L291.25 412.6 Q291.4 409.75 289.45 407.45 288.65 407.9 288.0 407.3 285.8 406.35 284.2 407.35 L283.35 408.0 283.3 408.15 282.6 409.05 Q282.2 409.7 281.85 409.6 L282.05 408.8 282.2 408.5 282.4 408.2 282.9 407.45 Q283.3 407.0 283.75 406.7 L283.85 406.6 Q285.05 405.85 286.7 405.9 287.45 406.0 287.4 405.65 L287.15 405.45 287.1 405.4 281.55 401.0 273.45 394.75 M270.15 395.55 Q269.25 395.65 268.65 396.05 267.8 396.65 267.4 397.95 L267.4 398.45 Q267.45 399.15 267.85 399.8 L268.45 400.45 276.3 406.65 276.85 407.05 278.4 407.55 Q279.5 407.55 280.55 406.7 L280.65 406.6 280.9 406.1 Q281.6 404.6 280.3 403.0 L279.7 402.35 272.3 396.35 271.65 396.0 Q270.9 395.55 270.35 395.55 L270.25 395.55 270.15 395.55" fill="none" stroke="#000000" stroke-linecap="round" stroke-linejoin="round" stroke-width="1.0"/>
    <path d="M290.65 395.0 Q295.0 398.9 299.25 400.85 L300.85 401.6 M290.85 402.05 L290.55 402.35 290.6 402.8 291.0 403.1 291.4 403.0 291.7 402.7 291.6 402.25 291.25 401.95 290.85 402.05 M287.55 396.8 Q285.45 396.25 284.65 397.35 283.95 398.65 285.7 400.95 287.05 402.9 288.65 404.45 L290.45 406.1 297.4 402.05 Q293.55 400.45 290.95 398.5 288.7 397.1 287.55 396.8 M301.95 424.65 Q301.75 424.2 302.4 423.8 L303.65 423.1 300.7 418.0 Q300.1 416.35 301.55 415.6 302.95 414.8 303.95 416.05 L307.05 421.15 310.3 419.25 301.75 404.4 Q301.35 403.7 299.85 403.1 L297.4 402.05 M295.4 405.05 L295.8 405.0 296.15 404.6 296.0 404.15 295.7 403.9 295.2 403.95 294.95 404.35 295.0 404.8 295.4 405.05 M294.85 406.55 Q294.7 406.3 294.4 406.2 L293.85 406.3 293.55 406.7 293.6 407.25 294.05 407.6 294.55 407.5 294.9 407.1 294.85 406.55 M288.65 405.25 L288.35 405.7 288.4 406.15 288.8 406.5 289.3 406.4 289.6 406.0 289.55 405.5 289.15 405.2 288.65 405.25 M289.45 407.45 L288.95 406.95 287.4 405.65 M299.2 419.95 Q297.3 416.2 294.1 416.35 292.45 416.05 292.3 414.15 292.5 412.05 292.05 410.05 291.7 408.1 290.45 406.1 L288.95 406.95 M293.3 414.15 L293.05 414.5 293.05 415.0 293.5 415.3 293.95 415.25 294.25 414.85 294.15 414.4 293.8 414.05 293.3 414.15 M291.2 414.45 L291.5 415.4 Q292.2 417.1 293.6 417.1 M307.05 421.15 L307.95 422.5 304.5 424.5 303.65 423.1 M312.5 418.75 Q312.05 419.35 310.3 419.25 M303.55 427.35 Q303.05 426.35 303.65 425.8 L311.35 421.35 Q312.3 420.65 313.2 422.35 L317.4 429.85 Q318.0 430.85 317.65 431.7 317.05 433.0 314.7 434.3 311.4 436.25 310.85 434.7 309.55 433.2 307.1 433.4 M245.7 346.45 L245.5 346.6 245.55 346.65 M216.95 352.65 Q227.55 350.25 232.25 344.45 L232.55 344.1 234.45 341.7 Q236.2 339.85 237.95 341.6 L244.05 347.4 245.5 346.6 M274.45 383.25 L274.65 383.4 275.45 383.9 M391.95 558.8 L318.65 432.3 318.35 432.45 317.65 433.1 346.1 482.7 Q346.85 483.65 346.25 484.25 L346.55 484.1 Q347.3 483.65 347.55 484.2 L349.9 488.3 Q350.55 489.1 349.35 489.75 L390.25 559.8 M320.35 431.15 Q320.2 431.4 319.7 431.65 L318.65 432.3 M324.6 438.45 L323.65 439.0 322.55 437.1 323.5 436.55 M317.65 433.1 L317.65 433.5 311.9 436.8 310.75 437.15 M344.9 492.0 L345.1 491.95 347.95 490.5 349.35 489.75 M340.95 487.1 L341.0 487.15 344.6 485.2 346.25 484.25 M340.75 487.2 L341.0 487.15 M373.35 540.7 Q374.95 540.6 376.05 539.0 L376.3 538.85 347.95 490.5 M388.3 559.15 L378.2 542.0 377.8 542.05 Q376.2 543.5 374.8 543.1 M376.3 538.85 L376.55 538.55 378.6 542.05 378.2 542.0 M377.8 542.05 L376.05 539.0 M389.25 551.15 L390.55 553.35 M281.55 401.0 Q282.5 397.3 286.85 392.95 L274.65 383.4" fill="none" stroke="#000000" stroke-linecap="round" stroke-linejoin="round" stroke-opacity="0.5019608" stroke-width="1.0"/>
  </g>
</svg>
