<?xml version="1.0" encoding="UTF-8" standalone="no"?>
<svg xmlns:xlink="http://www.w3.org/1999/xlink" height="134.55px" width="108.05px" xmlns="http://www.w3.org/2000/svg">
  <g transform="matrix(1.0, 0.0, 0.0, 1.0, -345.85, -193.65)">
    <path d="M400.0 193.65 Q405.7 193.65 409.35 195.7 409.95 202.3 411.15 208.8 412.3 215.0 413.9 221.15 415.8 228.05 418.3 234.75 L442.25 232.95 Q447.5 233.15 450.4 236.0 452.15 237.7 453.05 240.4 L453.6 242.6 Q454.45 247.5 453.05 254.95 L453.0 255.2 449.75 260.8 Q447.45 264.3 444.5 267.6 L443.75 268.35 442.75 269.45 442.4 269.8 Q438.4 273.35 432.8 272.8 L431.25 277.7 Q429.75 282.6 424.35 286.1 421.05 288.25 419.65 287.8 L421.15 291.05 417.5 305.25 414.7 327.4 399.9 328.2 399.8 328.2 385.1 327.4 382.3 305.25 378.65 291.05 380.15 287.8 Q378.75 288.25 375.45 286.1 370.05 282.6 368.55 277.7 L367.0 272.8 Q361.4 273.35 357.4 269.8 L357.05 269.45 356.05 268.35 355.3 267.6 Q352.35 264.25 350.05 260.75 348.25 258.05 346.8 255.2 345.3 247.6 346.2 242.6 346.95 238.35 349.4 236.0 352.3 233.15 357.55 232.95 L381.5 234.75 Q384.0 228.05 385.9 221.15 L388.65 208.8 Q389.85 202.3 390.45 195.7 394.15 193.65 399.9 193.65 L400.0 193.65" fill="#000000" fill-rule="evenodd" stroke="none"/>
  </g>
</svg>
