<?xml version="1.0" encoding="UTF-8" standalone="no"?>
<svg xmlns:xlink="http://www.w3.org/1999/xlink" height="79.15px" width="80.25px" xmlns="http://www.w3.org/2000/svg">
  <g transform="matrix(1.0, 0.0, 0.0, 1.0, -362.85, -224.4)">
    <path d="M421.4 246.3 Q427.3 245.1 429.15 242.8 L429.9 241.15 Q430.45 238.5 426.9 234.65 L425.45 234.85 425.05 235.65 Q430.8 240.75 421.95 243.35 L421.9 243.35 421.7 244.6 421.4 246.3 Q420.85 248.55 419.9 250.65 L419.65 251.35 419.3 252.3 419.25 252.4 Q435.6 251.3 429.15 242.8 M425.05 235.65 L423.55 238.85 Q422.85 240.4 422.5 242.05 L421.95 243.35 M430.4 224.9 Q429.8 225.8 429.3 227.1 428.6 227.1 428.35 227.85 L427.75 229.3 427.1 231.35 433.45 230.9 433.4 230.85 Q432.6 228.35 431.45 226.85 430.85 226.1 430.4 224.9 M427.1 231.35 L425.45 234.85 M426.9 234.65 L433.9 234.05 433.85 232.3 Q433.8 231.35 433.45 230.9 M429.9 241.15 Q433.4 243.25 433.5 246.85 L433.5 247.2 Q438.45 252.6 438.5 256.1 L439.45 258.5 441.8 254.35 442.4 252.5 Q442.75 250.55 442.45 248.45 L441.8 247.95 440.75 247.35 Q440.1 246.3 439.25 245.8 L438.35 245.05 437.75 244.3 Q437.0 243.3 435.85 242.6 L434.75 241.7 Q434.5 241.3 434.4 240.75 L434.25 239.95 Q433.85 238.0 433.75 236.35 L433.75 236.3 Q430.8 235.1 426.9 234.65 M433.75 236.3 L433.9 234.05 M438.5 256.1 Q438.55 257.7 437.55 258.9 L437.8 260.85 438.75 259.8 439.4 258.55 439.45 258.5 M431.65 267.35 L431.7 267.3 Q427.95 268.05 421.9 267.35 L419.35 267.0 419.5 269.35 422.6 269.95 428.9 270.65 Q430.0 268.45 431.65 267.35 M431.7 267.3 L434.05 264.3 434.8 263.5 437.8 260.85 M418.25 259.55 Q440.45 260.2 433.2 249.35 431.5 256.05 418.05 255.5 417.65 255.6 417.1 256.4 L417.1 256.45 418.25 259.55 416.5 259.5 415.6 262.25 419.25 262.45 Q434.2 262.95 437.55 258.9 M417.1 256.45 Q417.0 257.85 416.5 259.5 M418.05 255.5 L418.1 255.45 Q418.5 253.6 419.25 252.4 M415.6 262.25 Q415.1 264.2 415.0 266.25 L415.0 266.3 Q414.95 267.0 416.1 266.5 417.25 267.1 417.85 266.8 L417.9 266.8 Q418.45 266.15 419.2 266.15 L419.35 267.0 417.9 266.8 M419.5 269.35 L419.4 271.6 423.45 272.3 422.6 269.95 M419.4 271.6 L418.95 273.8 425.6 274.95 427.4 272.65 423.45 272.3 M419.25 262.45 L421.9 267.35 M425.6 274.95 L424.15 276.75 423.35 277.7 422.65 278.6 422.15 279.25 421.35 280.45 421.3 280.45 Q420.6 280.9 420.1 281.8 L419.45 282.95 416.5 287.5 415.75 288.9 414.95 290.45 Q413.7 292.7 412.7 295.15 L411.9 297.35 411.3 298.85 Q410.25 301.05 411.0 303.05 410.45 302.0 410.65 300.6 410.95 297.6 410.9 294.6 410.9 292.5 411.55 290.5 411.95 289.4 412.5 288.4 L414.0 285.55 416.45 280.3 417.55 277.55 417.55 277.5 417.9 276.6 418.6 274.75 418.6 274.7 418.95 273.8 M416.45 280.3 L419.45 282.95 M417.55 277.55 L421.35 280.45 M422.65 278.6 L417.9 276.6 M418.6 274.75 Q420.85 275.8 424.15 276.75 M427.4 272.65 L428.9 270.65 M433.5 247.2 L433.2 249.35 M377.6 227.35 Q377.45 226.7 377.1 226.55 L376.4 229.05 376.0 229.8 374.35 228.45 373.4 231.4 377.25 231.7 378.45 230.5 Q377.85 229.15 377.7 228.2 L377.6 227.35 M373.4 231.4 L372.25 234.55 372.25 234.6 372.95 234.65 375.65 234.95 376.3 235.05 379.95 235.6 Q379.85 234.0 379.0 231.9 L378.6 231.85 377.25 231.7 M378.6 231.85 L378.55 231.8 378.45 230.5 M372.25 234.6 L372.15 234.75 372.95 234.65 371.65 236.2 Q369.5 239.05 369.95 241.15 370.1 242.05 370.7 242.8 373.5 246.35 385.9 247.25 L385.5 246.0 384.9 244.7 Q366.35 242.2 375.65 234.95 M371.65 236.2 Q371.25 236.5 371.0 237.1 369.25 238.85 367.3 240.05 L366.65 240.4 Q365.3 241.25 364.95 242.35 L364.45 243.45 364.05 244.3 Q363.2 245.75 363.4 247.6 L363.5 248.4 Q363.6 249.35 363.85 250.2 L366.35 247.2 366.35 246.85 Q366.45 243.25 369.95 241.15 M376.3 235.05 Q377.5 238.75 382.6 240.3 L381.8 238.4 381.25 236.55 379.95 235.6 M384.9 244.7 L384.4 243.8 382.6 240.3 M372.15 234.75 Q371.65 235.6 371.65 236.2 M363.85 250.2 L364.3 251.35 365.0 252.85 Q365.35 251.25 366.65 249.35 366.35 248.35 366.35 247.2 M387.2 255.0 L383.2 255.4 381.6 259.55 387.2 259.2 387.2 255.0 387.2 254.95 Q387.35 253.95 386.95 252.5 L384.2 252.5 Q363.6 252.2 370.7 242.8 M381.6 259.55 Q371.8 259.85 367.75 257.9 L367.4 261.55 Q372.15 262.75 380.6 262.45 L387.15 262.05 387.2 259.2 M380.6 262.45 L377.95 267.35 387.1 265.8 387.15 262.05 M377.95 267.35 L366.55 266.9 366.55 270.45 377.25 269.95 387.05 267.75 387.1 265.8 M377.25 269.95 L376.4 272.3 Q381.1 271.65 387.15 269.95 L387.05 267.75 M365.0 252.85 L367.0 256.6 367.75 257.9 M366.55 270.45 L366.55 270.5 367.05 271.35 367.65 272.4 Q371.15 273.0 376.4 272.3 M367.4 261.55 L366.8 263.75 366.65 264.5 366.55 266.9 M383.2 255.4 Q368.45 256.35 366.65 249.35 M367.65 272.4 L368.9 274.85 372.7 275.0 Q379.05 274.8 384.6 272.55 382.0 275.05 374.6 277.05 L374.4 277.05 369.9 277.75 370.4 279.05 370.95 280.3 Q377.3 279.25 385.35 274.85 377.75 281.8 372.45 283.8 L374.05 287.5 Q377.4 285.6 381.55 281.95 L381.6 281.85 Q381.8 281.2 382.4 281.15 382.2 280.25 382.3 279.85 L382.7 277.2 Q383.25 277.4 383.1 276.85 L383.95 277.35 Q384.7 277.75 385.25 278.5 L388.05 275.65 388.05 275.6 387.55 274.35 387.15 269.95 M368.9 274.85 L369.3 276.35 369.9 277.7 369.9 277.75 M370.95 280.3 L371.25 281.15 372.0 282.8 372.45 283.8 M374.05 287.5 L375.8 291.6 377.55 296.45 377.85 297.35 378.6 299.2 379.7 294.0 379.8 292.95 Q379.45 287.05 381.55 281.95 M385.25 278.5 L385.7 279.25 Q386.25 280.4 387.15 281.5 L387.55 282.55 387.75 283.65 Q387.75 279.35 388.05 275.65 M384.2 252.5 L385.9 247.25 Q387.25 249.35 386.95 252.5" fill="none" stroke="#000000" stroke-linecap="round" stroke-linejoin="round" stroke-opacity="0.2509804" stroke-width="1.0"/>
  </g>
</svg>
