<?xml version="1.0" encoding="UTF-8" standalone="no"?>
<svg xmlns:xlink="http://www.w3.org/1999/xlink" height="135.55px" width="109.05px" xmlns="http://www.w3.org/2000/svg">
  <g transform="matrix(1.0, 0.0, 0.0, 1.0, -345.25, -193.15)">
    <path d="M390.35 195.7 Q394.05 193.65 399.8 193.65 L399.9 193.65 Q405.6 193.65 409.25 195.7" fill="none" stroke="#000000" stroke-linecap="round" stroke-linejoin="round" stroke-width="1.0"/>
    <path d="M409.25 195.7 Q409.85 202.3 411.05 208.8 412.2 215.0 413.8 221.15 415.7 228.05 418.2 234.75 L442.15 232.95 Q447.4 233.15 450.3 236.0 452.05 237.7 452.95 240.4 L453.5 242.6 Q454.35 247.5 452.95 254.95 L452.9 255.2 449.65 260.8 Q447.35 264.3 444.4 267.6 L443.65 268.35 442.65 269.45 442.3 269.8 Q438.3 273.35 432.7 272.8 L431.15 277.7 Q429.65 282.6 424.25 286.1 420.95 288.25 419.55 287.8 L421.05 291.05 417.4 305.25 417.25 306.7 414.6 327.4 M418.2 234.75 L407.35 235.55 403.2 236.8 Q403.05 238.75 400.0 240.2 L399.8 240.3 399.8 249.5 Q430.05 249.65 452.95 242.8 L453.5 242.6 M413.8 221.15 Q411.45 222.5 408.5 223.3 L399.9 224.15 400.0 240.2 M411.05 208.8 L407.7 209.65 399.9 210.5 399.9 224.15 399.8 224.15 Q394.95 224.2 391.15 223.3 388.1 222.5 385.8 221.15 383.9 228.05 381.4 234.75 L392.25 235.55 396.4 236.8 Q396.55 238.8 399.8 240.3 M432.7 272.8 L429.8 272.25 Q415.1 266.5 399.8 266.3 L399.8 280.5 403.6 280.5 Q412.6 282.1 419.55 287.8 M385.8 221.15 L388.55 208.8 Q389.75 202.3 390.35 195.7 M399.9 210.5 L391.9 209.65 388.55 208.8 M381.4 234.75 L357.45 232.95 Q352.2 233.15 349.3 236.0 346.85 238.35 346.1 242.6 369.2 249.7 399.8 249.5 L399.8 263.5 Q424.9 263.9 449.65 260.8 M357.3 269.8 Q361.3 273.35 366.9 272.8 L369.8 272.25 Q384.5 266.5 399.8 266.3 L399.8 263.5 Q374.7 263.9 349.95 260.75 352.25 264.25 355.2 267.6 L355.95 268.35 356.95 269.45 357.3 269.8 M346.1 242.6 Q345.2 247.6 346.7 255.2 348.15 258.05 349.95 260.75 M366.9 272.8 L368.45 277.7 Q369.95 282.6 375.35 286.1 378.65 288.25 380.05 287.8 387.0 282.1 396.0 280.5 L399.8 280.5 399.8 304.5 417.25 306.7 M380.05 287.8 L378.55 291.05 382.2 305.25 382.4 306.7 399.8 304.5 399.8 328.2 M382.4 306.7 L385.0 327.4 M399.9 193.65 L399.9 210.5" fill="none" stroke="#000000" stroke-linecap="round" stroke-linejoin="round" stroke-opacity="0.5019608" stroke-width="1.0"/>
  </g>
</svg>
