<?xml version="1.0" encoding="UTF-8" standalone="no"?>
<svg xmlns:xlink="http://www.w3.org/1999/xlink" height="86.7px" width="207.2px" xmlns="http://www.w3.org/2000/svg">
  <g transform="matrix(1.0, 0.0, 0.0, 1.0, -285.9, -347.35)">
    <path d="M334.1 363.6 L293.95 348.6 Q289.3 346.45 288.05 350.4 287.65 351.4 287.4 352.35 284.1 362.6 291.9 365.05 295.85 360.2 299.65 361.95 306.75 368.35 318.8 369.0 324.15 369.9 324.9 374.1 325.25 376.35 327.85 376.75 L329.4 376.95 457.0 431.4 Q477.25 438.7 492.6 421.3 L485.55 418.7 334.1 363.6" fill="none" stroke="#000000" stroke-linecap="round" stroke-linejoin="round" stroke-width="1.0"/>
    <path d="M325.3 366.85 L325.85 366.05 325.85 365.95 Q325.95 365.35 325.65 364.9 L324.8 364.4 Q324.2 364.3 323.75 364.65 L323.35 365.15 323.25 365.55 Q323.15 366.1 323.45 366.55 L324.4 367.1 325.3 366.85 M329.4 376.95 L330.75 373.25 334.1 363.6 M485.55 418.7 Q475.6 428.65 461.95 426.2 L456.65 424.85 455.65 424.5 330.75 373.25 M308.15 358.3 L309.0 358.8 Q309.35 359.25 309.25 359.85 L309.2 360.1 308.7 360.7 307.75 360.95 306.85 360.35 Q306.55 359.95 306.55 359.4 L306.65 359.2 Q306.8 358.8 307.1 358.5 L308.15 358.3 M292.8 353.55 L293.05 354.35 293.05 354.55 Q292.95 355.15 292.5 355.45 L291.5 355.75 Q290.9 355.65 290.55 355.2 290.25 354.75 290.35 354.15 L290.65 353.5 290.85 353.25 291.9 353.05 292.8 353.55" fill="none" stroke="#000000" stroke-linecap="round" stroke-linejoin="round" stroke-opacity="0.5019608" stroke-width="1.0"/>
  </g>
</svg>
