<?xml version="1.0" encoding="UTF-8" standalone="no"?>
<svg xmlns:xlink="http://www.w3.org/1999/xlink" height="600.0px" width="800.0px" xmlns="http://www.w3.org/2000/svg">
  <g transform="matrix(1.0, 0.0, 0.0, 1.0, 0.0, 0.0)">
    <path d="M800.0 600.0 L0.0 600.0 0.0 0.0 296.35 0.0 296.35 225.0 Q295.25 234.2 298.45 245.65 298.25 256.45 294.85 267.25 L288.2 275.65 290.5 282.4 Q282.8 294.9 284.95 309.25 L294.8 353.0 296.75 354.25 296.9 354.85 298.4 353.8 Q299.75 352.95 300.55 352.8 301.95 352.65 302.5 354.25 L303.0 352.9 303.15 352.55 303.8 350.45 Q304.95 348.05 308.4 347.6 313.4 346.75 320.75 349.05 L319.7 348.5 Q318.7 345.9 318.1 343.2 L317.7 341.0 Q317.05 336.7 317.3 332.15 327.0 318.95 332.35 305.65 330.2 295.4 322.8 286.25 333.7 273.9 341.0 260.5 344.8 253.3 347.65 245.9 339.95 243.2 332.75 231.05 325.65 213.6 331.35 205.6 333.55 202.4 337.8 200.7 L338.35 197.4 338.35 0.0 800.0 0.0 800.0 600.0" fill="#000000" fill-rule="evenodd" stroke="none"/>
  </g>
</svg>
