<?xml version="1.0" encoding="UTF-8" standalone="no"?>
<svg xmlns:xlink="http://www.w3.org/1999/xlink" height="61.2px" width="106.45px" xmlns="http://www.w3.org/2000/svg">
  <g transform="matrix(1.0, 0.0, 0.0, 1.0, -293.9, -354.15)">
    <path d="M327.3 386.1 Q329.8 377.75 329.9 375.9 329.65 374.6 328.85 374.4 L332.75 363.6 Q342.4 367.3 351.4 370.1 363.95 374.0 375.2 376.15 383.7 377.75 391.45 378.35 L392.75 378.45 Q395.3 378.7 397.0 379.45 400.9 381.2 400.25 385.85 L399.2 392.85 Q398.35 397.85 397.15 402.4 L395.5 408.1 392.75 415.35 381.6 413.1 373.25 410.65 358.8 405.7 354.15 403.95 Q348.3 401.7 341.85 399.05 L325.4 392.1 327.1 386.8 327.3 386.1 M392.5 383.4 Q391.65 383.8 391.35 384.65 391.0 385.55 391.4 386.4 391.8 387.25 392.65 387.55 L394.4 387.5 Q395.25 387.1 395.6 386.2 395.9 385.35 395.5 384.5 395.1 383.65 394.2 383.35 L392.5 383.4 M309.8 359.8 Q310.05 360.3 309.85 360.85 L309.85 360.9 309.15 361.6 308.1 361.7 Q307.6 361.5 307.35 360.95 307.1 360.4 307.25 359.9 307.45 359.35 308.0 359.15 L309.05 359.1 Q309.6 359.3 309.8 359.8 M322.6 364.45 Q322.85 364.95 322.65 365.5 L322.5 365.8 321.95 366.25 320.9 366.35 Q320.35 366.15 320.1 365.6 L320.0 364.85 320.05 364.55 Q320.25 364.0 320.75 363.8 L321.85 363.75 322.6 364.45 M293.95 355.05 L294.1 354.8 Q294.3 354.45 294.7 354.3 L295.8 354.25 296.55 355.0 296.65 355.8 296.55 356.0 295.9 356.8 294.85 356.85 Q294.3 356.65 294.05 356.1 293.8 355.55 293.95 355.05" fill="#ffffff" fill-rule="evenodd" stroke="none"/>
  </g>
</svg>
