<?xml version="1.0" encoding="UTF-8" standalone="no"?>
<svg xmlns:xlink="http://www.w3.org/1999/xlink" height="104.35px" width="78.6px" xmlns="http://www.w3.org/2000/svg">
  <g transform="matrix(1.0, 0.0, 0.0, 1.0, -360.5, -210.3)">
    <path d="M423.35 218.15 Q423.65 221.8 424.35 225.0 L425.1 227.65 Q426.65 232.5 429.45 235.9 L429.75 236.5 Q432.75 241.85 439.1 243.25 437.1 245.2 434.7 246.65 432.15 248.2 429.1 249.2 424.75 251.1 418.3 255.85 L417.6 256.4 411.55 261.25 Q420.0 256.8 423.35 263.05 L423.45 263.25 423.6 263.45 Q425.45 271.85 430.45 269.95 L429.65 274.05 427.8 274.05 427.8 274.0 Q427.8 273.3 427.35 272.8 426.9 272.35 426.15 272.35 425.45 272.35 425.0 272.8 L418.75 271.4 Q417.65 272.15 418.75 272.9 L424.5 274.05 Q424.5 274.7 425.0 275.15 425.45 275.65 426.15 275.65 426.9 275.65 427.35 275.15 L427.8 274.3 429.6 274.3 427.6 284.5 425.65 284.5 425.65 284.15 Q425.65 283.45 425.15 282.95 424.7 282.5 424.0 282.5 423.3 282.5 422.8 282.95 L416.55 281.55 416.2 281.85 Q415.7 282.5 416.55 283.05 L422.35 284.2 Q422.35 284.85 422.8 285.3 423.3 285.8 424.0 285.8 424.7 285.8 425.15 285.3 L425.55 284.75 427.55 284.75 425.05 297.6 423.15 297.6 423.15 297.3 Q423.15 296.6 422.65 296.1 422.2 295.65 421.5 295.65 420.8 295.65 420.3 296.1 L414.1 294.65 Q412.95 295.45 414.1 296.15 L419.85 297.35 Q419.85 298.0 420.3 298.45 420.8 298.95 421.5 298.95 422.2 298.95 422.65 298.45 L423.1 297.85 425.0 297.85 423.1 307.7 421.45 307.7 421.45 307.3 Q421.45 306.6 421.0 306.1 420.5 305.65 419.8 305.65 419.1 305.65 418.65 306.1 L412.4 304.65 Q411.3 305.45 412.4 306.2 L418.15 307.35 Q418.15 308.0 418.65 308.45 419.1 308.95 419.8 308.95 420.5 308.95 421.0 308.45 L421.35 307.95 423.05 307.95 421.7 314.65 Q419.7 313.1 418.05 312.2 411.65 308.4 409.5 312.7 L410.95 261.5 422.2 217.65 416.3 215.15 415.75 210.3 Q418.85 210.55 420.65 211.25 422.3 211.85 422.85 212.75 L423.2 213.8 423.25 216.35 423.25 216.5 423.25 216.7 423.35 218.15 M383.3 215.15 L377.4 217.65 388.65 261.5 390.1 312.7 Q387.95 308.4 381.55 312.2 379.9 313.1 377.9 314.65 L376.55 307.65 378.2 307.65 Q378.25 308.1 378.6 308.45 379.1 308.95 379.8 308.95 380.5 308.95 380.95 308.45 381.45 308.0 381.45 307.35 L387.2 306.2 Q388.3 305.45 387.2 304.65 L380.95 306.1 Q380.5 305.65 379.8 305.65 379.1 305.65 378.6 306.1 378.15 306.6 378.15 307.3 L378.15 307.4 376.5 307.4 374.55 297.55 376.5 297.55 Q376.55 298.05 376.95 298.45 377.4 298.95 378.1 298.95 378.8 298.95 379.3 298.45 L379.75 297.35 385.5 296.15 Q386.65 295.45 385.5 294.65 L379.3 296.1 Q378.8 295.65 378.1 295.65 377.4 295.65 376.95 296.1 376.45 296.6 376.45 297.3 L374.5 297.3 372.0 284.45 374.0 284.45 Q374.05 284.95 374.45 285.3 374.9 285.8 375.6 285.8 376.3 285.8 376.8 285.3 377.25 284.85 377.25 284.2 L383.05 283.05 Q383.9 282.5 383.4 281.85 L383.05 281.55 376.8 282.95 Q376.3 282.5 375.6 282.5 374.9 282.5 374.45 282.95 373.95 283.45 373.95 284.15 L373.95 284.2 371.95 284.2 369.95 274.0 371.8 274.0 Q371.8 274.7 372.25 275.15 372.7 275.65 373.45 275.65 374.15 275.65 374.6 275.15 375.1 274.7 375.1 274.05 L380.85 272.9 Q381.95 272.15 380.85 271.4 L374.6 272.8 Q374.15 272.35 373.45 272.35 372.7 272.35 372.25 272.8 371.9 273.2 371.85 273.75 L369.9 273.75 369.15 269.95 Q374.15 271.85 376.0 263.45 L376.15 263.25 376.25 263.05 Q379.6 256.8 388.05 261.25 L382.0 256.4 381.3 255.85 Q374.85 251.1 370.5 249.2 367.45 248.2 364.9 246.65 362.5 245.2 360.5 243.25 366.85 241.85 369.85 236.5 L370.15 235.9 Q372.95 232.5 374.5 227.65 L375.25 225.0 Q375.95 221.8 376.25 218.15 L376.35 216.7 376.35 216.5 376.35 216.35 376.4 213.8 Q376.4 213.25 376.75 212.75 377.3 211.85 378.95 211.25 380.75 210.55 383.85 210.3 L383.3 215.15" fill="#000000" fill-rule="evenodd" stroke="none"/>
  </g>
</svg>
