<?xml version="1.0" encoding="UTF-8" standalone="no"?>
<svg xmlns:xlink="http://www.w3.org/1999/xlink" height="76.75px" width="150.5px" xmlns="http://www.w3.org/2000/svg">
  <g transform="matrix(1.0, 0.0, 0.0, 1.0, -324.6, -220.8)">
    <path d="M470.85 233.85 Q457.8 244.9 453.0 255.2 456.2 242.35 468.8 230.4 L475.1 230.4 470.85 233.85 M414.5 235.05 Q407.6 238.6 399.85 241.35 392.1 238.6 385.2 235.05 374.85 229.65 366.35 222.45 L370.1 220.8 Q382.25 230.65 399.85 237.4 417.45 230.65 429.6 220.8 L433.35 222.45 Q424.85 229.65 414.5 235.05 M444.5 267.6 Q446.6 274.1 450.0 280.65 L447.05 283.6 Q442.75 276.3 441.65 270.45 L442.4 269.8 442.75 269.45 443.75 268.35 444.5 267.6 M330.9 230.4 Q343.5 242.35 346.7 255.2 341.9 244.9 328.85 233.85 L324.6 230.4 330.9 230.4 M365.9 292.65 Q381.25 278.7 399.85 271.65 418.45 278.7 433.8 292.65 L433.8 297.55 432.2 296.25 Q417.85 284.35 399.85 276.1 381.85 284.35 367.5 296.25 L365.9 297.55 365.9 292.65 M355.2 267.6 L355.95 268.35 356.95 269.45 357.3 269.8 358.05 270.45 Q356.95 276.3 352.65 283.6 L349.7 280.65 Q353.1 274.1 355.2 267.6" fill="#000000" fill-rule="evenodd" stroke="none"/>
  </g>
</svg>
