<?xml version="1.0" encoding="UTF-8" standalone="no"?>
<svg xmlns:xlink="http://www.w3.org/1999/xlink" height="77.2px" width="101.1px" xmlns="http://www.w3.org/2000/svg">
  <g transform="matrix(1.0, 0.0, 0.0, 1.0, -349.3, -205.8)">
    <path d="M415.4 208.9 L419.1 205.8 Q421.0 205.7 419.85 208.7 L408.2 216.85 Q408.3 225.15 399.85 229.15 391.4 225.15 391.5 216.85 L379.85 208.7 Q378.7 205.7 380.6 205.8 L384.3 208.9 Q388.85 212.55 394.45 215.7 393.55 223.3 399.85 226.85 406.15 223.3 405.25 215.7 410.85 212.55 415.4 208.9 M447.7 234.15 L447.8 228.65 Q449.7 227.2 450.3 229.75 L450.4 236.0 Q449.25 234.85 447.7 234.15 M444.5 267.6 Q446.6 274.1 450.0 280.65 450.15 283.1 447.7 283.0 443.65 276.6 442.0 270.15 L442.4 269.8 442.75 269.45 443.75 268.35 444.5 267.6 M352.0 234.15 Q350.45 234.85 349.3 236.0 L349.4 229.75 Q350.0 227.2 351.9 228.65 L352.0 234.15 M355.2 267.6 L355.95 268.35 356.95 269.45 357.3 269.8 357.7 270.15 Q356.05 276.6 352.0 283.0 349.55 283.1 349.7 280.65 353.1 274.1 355.2 267.6" fill="#000000" fill-rule="evenodd" stroke="none"/>
  </g>
</svg>
