<?xml version="1.0" encoding="UTF-8" standalone="no"?>
<svg xmlns:xlink="http://www.w3.org/1999/xlink" height="131.4px" width="186.95px" xmlns="http://www.w3.org/2000/svg">
  <g transform="matrix(1.0, 0.0, 0.0, 1.0, -306.3, -233.35)">
    <path d="M333.75 303.75 L329.4 308.5 M465.8 303.7 L470.15 308.45 M484.95 301.6 L481.6 296.7 M314.6 301.65 Q316.1 299.1 317.95 296.75" fill="none" stroke="#000000" stroke-linecap="round" stroke-linejoin="round" stroke-opacity="0.5019608" stroke-width="1.0"/>
    <path d="M470.2 233.85 Q480.1 245.35 479.35 266.15 480.85 289.75 487.15 298.55 L484.95 301.6 485.55 302.7 Q489.35 309.25 492.75 315.75 491.85 340.35 486.2 363.85 476.0 365.95 465.3 356.15 466.35 338.75 461.65 320.75 462.15 313.15 465.8 303.7 455.85 292.2 449.85 280.6 446.45 274.1 444.4 267.6 454.7 250.85 466.45 237.85 L470.2 233.85 M333.15 237.85 Q344.9 250.85 355.2 267.6 353.1 274.1 349.7 280.65 343.7 292.25 333.75 303.75 337.4 313.2 337.9 320.8 333.2 338.8 334.25 356.2 323.55 366.0 313.35 363.9 307.7 340.4 306.8 315.8 310.2 309.3 314.0 302.75 L314.6 301.65 312.4 298.6 Q318.7 289.8 320.2 266.2 319.45 245.35 329.4 233.85 L333.15 237.85" fill="none" stroke="#000000" stroke-linecap="round" stroke-linejoin="round" stroke-width="1.0"/>
  </g>
</svg>
