<?xml version="1.0" encoding="UTF-8" standalone="no"?>
<svg xmlns:xlink="http://www.w3.org/1999/xlink" height="131.45px" width="49.4px" xmlns="http://www.w3.org/2000/svg">
  <g transform="matrix(1.0, 0.0, 0.0, 1.0, -306.3, -233.35)">
    <path d="M349.7 280.65 Q343.7 292.25 333.75 303.75 337.4 313.2 337.9 320.8 333.2 338.8 334.25 356.2 L331.7 358.4 Q329.7 359.95 327.75 361.1 323.0 363.85 318.35 364.25 L313.35 363.9 Q307.7 340.4 306.8 315.8 310.2 309.3 314.0 302.75 L314.6 301.65 312.4 298.6 Q318.7 289.8 320.2 266.2 319.45 245.35 329.4 233.85 343.25 248.2 355.2 267.6 353.1 274.1 349.7 280.65" fill="none" stroke="#000000" stroke-linecap="round" stroke-linejoin="round" stroke-width="1.0"/>
    <path d="M327.75 361.1 L327.65 360.75 Q321.75 338.6 319.95 315.55 L324.0 303.65 312.4 298.6" fill="none" stroke="#000000" stroke-linecap="round" stroke-linejoin="round" stroke-opacity="0.5019608" stroke-width="1.0"/>
  </g>
</svg>
