<?xml version="1.0" encoding="UTF-8" standalone="no"?>
<svg xmlns:xlink="http://www.w3.org/1999/xlink" height="108.0px" width="81.35px" xmlns="http://www.w3.org/2000/svg">
  <g transform="matrix(1.0, 0.0, 0.0, 1.0, -359.2, -220.2)">
    <path d="M440.55 224.15 L430.95 260.6 419.15 256.65 428.75 220.2 Q434.85 221.4 440.55 224.15 M429.75 270.7 L429.75 272.65 429.95 277.2 Q430.15 279.7 430.6 282.05 431.7 287.55 434.25 292.4 L433.7 292.65 428.75 305.1 427.55 318.7 429.25 323.45 Q419.1 328.3 399.8 328.2 380.5 328.3 370.4 323.45 L372.05 318.7 370.85 305.1 365.9 292.65 365.5 292.45 Q368.1 287.6 369.15 282.05 L369.85 277.2 370.05 272.65 370.0 270.7 369.55 265.25 381.75 260.95 Q388.95 263.8 399.9 264.05 410.85 263.8 418.0 260.95 L430.2 265.25 Q429.9 268.0 429.75 270.7 M418.45 271.45 L418.65 272.65 419.35 273.7 Q420.2 274.65 421.4 274.65 422.65 274.65 423.55 273.7 L423.95 273.05 424.05 272.95 424.15 272.65 424.35 271.45 424.15 270.25 423.55 269.15 Q422.65 268.25 421.4 268.25 420.6 268.25 419.95 268.7 419.6 268.85 419.35 269.15 418.45 270.1 418.45 271.45 M408.6 282.75 Q408.05 283.35 408.05 284.05 408.05 284.8 408.6 285.3 409.05 285.9 409.75 285.9 410.45 285.9 410.95 285.3 411.45 284.8 411.45 284.05 411.45 283.35 410.95 282.75 410.45 282.25 409.75 282.25 409.05 282.25 408.6 282.75 M428.2 296.65 Q428.65 297.2 429.35 297.2 430.05 297.2 430.55 296.65 431.0 296.1 431.0 295.4 431.0 294.65 430.55 294.1 430.05 293.55 429.35 293.55 428.65 293.55 428.2 294.1 427.65 294.65 427.65 295.4 427.65 296.1 428.2 296.65 M371.45 301.75 Q371.45 302.5 371.95 303.0 372.45 303.55 373.15 303.55 373.8 303.55 374.35 303.0 374.8 302.45 374.8 301.75 374.8 301.0 374.3 300.45 L374.1 300.25 Q373.65 299.95 373.15 299.95 372.45 299.95 371.95 300.45 371.45 301.0 371.45 301.75 M390.0 282.25 Q389.35 282.25 388.8 282.75 388.35 283.35 388.35 284.05 388.35 284.8 388.8 285.3 389.35 285.9 390.0 285.9 390.7 285.9 391.15 285.3 391.7 284.8 391.7 284.05 391.7 283.35 391.15 282.75 390.7 282.25 390.0 282.25 M370.4 293.55 Q369.75 293.55 369.2 294.1 368.75 294.65 368.75 295.4 368.75 296.1 369.2 296.65 369.75 297.2 370.4 297.2 371.1 297.2 371.55 296.65 372.1 296.1 372.1 295.4 372.1 294.65 371.55 294.1 371.1 293.55 370.4 293.55 M380.6 256.65 L368.8 260.6 359.2 224.15 Q364.9 221.4 371.05 220.2 L380.6 256.65 M378.35 268.25 Q377.1 268.25 376.2 269.15 L375.6 270.25 375.4 271.45 375.6 272.65 375.75 272.95 375.8 273.05 376.2 273.7 Q377.1 274.65 378.35 274.65 379.6 274.65 380.4 273.7 L381.1 272.65 381.3 271.45 Q381.3 270.1 380.4 269.15 L379.8 268.7 Q379.2 268.25 378.35 268.25 M425.45 300.45 Q424.95 301.0 424.95 301.75 424.95 302.45 425.45 303.0 425.95 303.55 426.65 303.55 427.3 303.55 427.85 303.0 428.3 302.5 428.3 301.75 428.3 301.0 427.85 300.45 427.3 299.95 426.65 299.95 426.1 299.95 425.65 300.25 L425.45 300.45" fill="#000000" fill-rule="evenodd" stroke="none"/>
  </g>
</svg>
