<?xml version="1.0" encoding="UTF-8" standalone="no"?>
<svg xmlns:xlink="http://www.w3.org/1999/xlink" height="121.15px" width="140.8px" xmlns="http://www.w3.org/2000/svg">
  <g transform="matrix(1.0, 0.0, 0.0, 1.0, -329.4, -207.05)">
    <path d="M466.45 237.85 Q454.7 250.85 444.4 267.6 446.5 274.1 449.9 280.65 443.65 287.5 433.7 292.65 L428.75 305.1 427.55 318.7 429.25 323.45 Q419.1 328.3 399.8 328.2 L389.3 327.85 378.85 301.4 Q373.95 289.85 370.6 278.3 L369.4 273.9 369.4 273.85 369.05 272.45 367.65 267.0 Q365.8 258.9 364.65 250.9 365.7 242.5 375.55 239.1 400.9 228.9 412.4 221.5 416.65 218.65 419.05 216.3 L421.25 213.45 Q420.9 215.25 421.0 217.15 L450.2 229.75 470.2 233.85 466.45 237.85 M415.45 207.2 Q417.6 207.9 418.75 208.85 L418.9 208.95 Q421.55 211.4 417.05 215.45 L416.35 215.15 415.45 207.2 M392.45 222.2 Q397.9 222.4 396.1 227.35 386.15 231.85 372.05 237.35 362.15 240.75 361.15 249.15 362.4 257.8 364.45 266.5 L366.1 272.85 Q370.95 290.65 385.95 327.5 376.5 326.35 370.4 323.45 L372.05 318.7 370.85 305.1 365.9 292.65 Q355.95 287.5 349.7 280.65 353.1 274.1 355.2 267.6 344.9 250.85 333.15 237.85 L329.4 233.85 349.4 229.75 379.7 216.7 379.1 212.7 Q379.65 214.25 381.2 216.05 L382.4 217.25 Q384.7 219.55 387.15 220.8 389.7 222.0 392.45 222.2 M383.3 215.05 Q378.75 209.65 384.2 207.05 L383.3 215.05" fill="#000000" fill-rule="evenodd" stroke="none"/>
  </g>
</svg>
