<?xml version="1.0" encoding="UTF-8" standalone="no"?>
<svg xmlns:xlink="http://www.w3.org/1999/xlink" height="275.8px" width="200.0px" xmlns="http://www.w3.org/2000/svg">
  <g transform="matrix(1.0, 0.0, 0.0, 1.0, -299.75, -223.95)">
    <path d="M362.35 233.35 L362.35 239.65 Q362.65 256.6 366.45 275.45 372.4 289.5 376.4 305.7 382.7 331.25 384.25 362.25 L373.1 499.75 Q342.3 496.0 335.4 475.55 L337.95 463.95 Q356.5 378.7 361.6 333.8 364.8 305.7 361.15 292.8 353.35 288.15 349.7 280.65 343.7 292.25 333.75 303.75 337.4 313.2 337.9 320.8 L332.65 335.7 Q329.95 347.15 330.9 358.05 324.55 356.9 318.15 361.6 L319.55 380.05 334.5 387.3 336.05 389.05 336.3 389.25 337.9 390.0 337.7 399.85 Q336.5 425.25 329.45 444.15 L327.7 448.6 Q313.3 444.35 300.35 395.55 297.7 332.9 306.8 315.8 310.2 309.3 314.0 302.75 L314.6 301.65 312.4 298.6 Q318.7 289.8 320.2 266.2 319.45 245.35 329.4 233.85 L349.4 229.75 362.8 224.0 Q362.55 227.0 362.45 230.1 L362.45 230.65 362.35 233.35 M450.1 229.7 L470.1 233.8 Q480.05 245.3 479.3 266.15 480.8 289.75 487.1 298.55 L484.9 301.6 485.5 302.7 Q489.3 309.25 492.7 315.75 501.8 332.85 499.15 395.5 486.2 444.3 471.8 448.55 L470.05 444.1 Q463.0 425.2 461.8 399.8 L461.6 389.95 463.2 389.2 463.45 389.0 465.0 387.25 479.95 380.0 481.35 361.55 Q474.95 356.85 468.6 358.0 469.55 347.1 466.85 335.65 L461.6 320.75 Q462.1 313.15 465.75 303.7 455.8 292.2 449.8 280.6 446.15 288.1 438.35 292.75 434.7 305.65 437.9 333.75 443.0 378.65 461.55 463.9 L464.1 475.5 Q457.2 495.95 426.4 499.7 L415.25 362.2 Q416.8 331.2 423.1 305.65 427.1 289.45 433.05 275.4 436.85 256.55 437.15 239.6 L437.15 233.3 437.05 230.6 437.05 230.05 436.7 223.95 450.1 229.7" fill="#000000" fill-rule="evenodd" stroke="none"/>
  </g>
</svg>
