<?xml version="1.0" encoding="UTF-8" standalone="no"?>
<svg xmlns:xlink="http://www.w3.org/1999/xlink" height="145.85px" width="194.9px" xmlns="http://www.w3.org/2000/svg">
  <g transform="matrix(1.0, 0.0, 0.0, 1.0, -302.35, -215.7)">
    <path d="M477.15 267.45 L483.35 267.9 Q487.45 273.1 488.45 281.1 L482.35 280.8 478.25 280.6 Q455.55 279.9 455.05 289.5 452.3 285.2 450.05 280.95 449.5 266.05 477.15 267.45 M428.85 229.45 Q427.75 222.35 425.95 215.7 437.25 223.05 470.2 233.85 483.0 239.0 488.45 252.95 L483.0 252.0 477.0 251.15 476.95 251.15 Q467.15 249.85 455.6 251.1 L453.55 253.85 Q465.85 251.55 476.95 252.95 L477.0 252.95 484.0 253.95 Q487.3 258.25 488.3 266.5 L482.35 265.95 477.0 265.55 Q448.3 263.85 449.1 279.05 L449.9 280.65 Q446.25 284.65 441.4 288.05 431.65 284.9 426.55 287.2 L428.85 275.65 Q432.1 250.65 428.85 229.45 M483.4 282.75 Q489.25 289.1 493.25 298.25 L488.45 297.2 482.45 296.0 Q463.95 292.95 463.15 300.55 459.35 295.9 456.2 291.25 456.75 282.05 478.45 282.5 L483.4 282.75 M370.75 229.45 Q367.5 250.65 370.75 275.65 L373.05 287.2 Q367.95 284.9 358.2 288.05 353.35 284.65 349.7 280.65 L350.5 279.05 Q351.3 263.85 322.6 265.55 L317.25 265.95 311.3 266.5 Q312.3 258.25 315.6 253.95 L322.6 252.95 322.65 252.95 Q333.75 251.55 346.05 253.85 L344.0 251.1 Q332.45 249.85 322.65 251.15 L322.6 251.15 316.6 252.0 311.15 252.95 Q316.6 239.0 329.4 233.85 362.35 223.05 373.65 215.7 371.85 222.35 370.75 229.45 M344.55 289.5 Q344.05 279.9 321.35 280.6 L317.25 280.8 311.15 281.1 Q312.15 273.1 316.25 267.9 L322.45 267.45 Q350.1 266.05 349.55 280.95 L344.55 289.5 M331.15 344.35 Q328.4 337.6 315.3 343.75 L312.5 345.15 306.15 348.25 Q306.5 340.0 309.35 334.65 311.55 333.55 313.6 332.7 329.65 325.85 334.4 330.95 L333.5 333.45 332.65 335.7 Q331.6 340.05 331.15 344.35 M337.9 320.8 L335.15 328.75 Q330.1 323.95 313.5 331.25 312.0 331.9 310.35 332.7 L303.6 335.5 Q304.05 324.5 306.9 317.0 L312.45 315.6 Q330.1 311.6 337.15 315.1 L337.9 320.8 M333.75 303.75 Q335.5 308.3 336.55 312.45 329.15 310.0 312.85 313.8 L307.95 315.05 302.35 316.45 Q305.25 306.7 310.1 299.1 L316.55 297.9 Q334.25 295.05 335.2 302.05 L333.75 303.75 M330.65 353.45 Q326.65 351.1 317.35 356.95 314.4 358.8 310.9 361.55 309.85 353.05 311.45 347.1 313.6 345.95 315.55 345.1 328.7 339.4 330.8 347.7 330.6 350.6 330.65 353.45 M482.25 356.95 Q472.95 351.1 468.95 353.45 L468.8 347.7 Q470.9 339.4 484.05 345.1 486.0 345.95 488.15 347.1 489.75 353.05 488.7 361.55 485.2 358.8 482.25 356.95 M463.05 312.45 Q464.1 308.3 465.85 303.75 L464.4 302.05 Q465.35 295.05 483.05 297.9 L489.5 299.1 Q494.35 306.7 497.25 316.45 L491.65 315.05 486.75 313.8 Q470.45 310.0 463.05 312.45 M484.3 343.75 Q471.2 337.6 468.45 344.35 468.0 340.05 466.95 335.7 L466.1 333.45 465.2 330.95 Q469.95 325.85 486.0 332.7 L490.25 334.65 Q493.1 340.0 493.45 348.25 L487.1 345.15 484.3 343.75 M461.7 320.8 Q461.9 318.05 462.45 315.1 469.5 311.6 487.15 315.6 L492.7 317.0 Q495.55 324.5 496.0 335.5 L489.25 332.7 486.1 331.25 Q469.5 323.95 464.45 328.75 L461.7 320.8 M336.45 300.55 Q335.65 292.95 317.15 296.0 L311.15 297.2 306.35 298.25 Q310.35 289.1 316.2 282.75 L321.15 282.5 Q342.85 282.05 343.4 291.25 340.25 295.9 336.45 300.55" fill="#000000" fill-rule="evenodd" stroke="none"/>
  </g>
</svg>
