<?xml version="1.0" encoding="UTF-8" standalone="no"?>
<svg xmlns:xlink="http://www.w3.org/1999/xlink" height="108.4px" width="186.0px" xmlns="http://www.w3.org/2000/svg">
  <g transform="matrix(1.0, 0.0, 0.0, 1.0, -306.8, -233.85)">
    <path d="M466.45 237.85 L470.2 233.85 Q472.9 236.95 474.8 240.75 L476.0 243.4 Q479.9 252.9 479.4 266.2 480.9 289.8 487.2 298.6 L485.0 301.65 485.6 302.75 Q489.4 309.3 492.8 315.8 492.3 328.95 490.45 341.8 L483.9 342.25 483.7 342.25 Q474.35 342.25 465.05 339.65 464.2 330.3 461.7 320.8 462.2 313.2 465.85 303.75 455.9 292.25 449.9 280.65 446.5 274.1 444.4 267.6 454.7 250.85 466.45 237.85 M333.15 237.85 Q344.9 250.85 355.2 267.6 353.1 274.1 349.7 280.65 343.7 292.25 333.75 303.75 337.4 313.2 337.9 320.8 335.4 330.3 334.55 339.65 325.25 342.25 315.9 342.25 L315.7 342.25 309.15 341.8 Q307.3 328.95 306.8 315.8 310.2 309.3 314.0 302.75 L314.6 301.65 312.4 298.6 Q318.7 289.8 320.2 266.2 319.7 252.9 323.6 243.4 L324.8 240.75 Q326.7 236.95 329.4 233.85 L333.15 237.85" fill="#000000" fill-rule="evenodd" stroke="none"/>
  </g>
</svg>
