<?xml version="1.0" encoding="UTF-8" standalone="no"?>
<svg xmlns:xlink="http://www.w3.org/1999/xlink" height="108.55px" width="83.4px" xmlns="http://www.w3.org/2000/svg">
  <g transform="matrix(1.0, 0.0, 0.0, 1.0, -358.1, -218.85)">
    <path d="M418.75 234.7 L414.45 235.05 Q421.3 227.6 424.75 218.85 428.55 218.9 431.8 219.9 L427.75 228.55 424.3 228.55 418.75 234.7 M441.5 226.05 L437.95 233.3 435.4 233.5 432.55 228.55 436.05 221.75 Q439.05 223.4 441.5 226.05 M411.1 282.7 Q407.55 281.2 403.6 280.5 L396.0 280.5 Q392.05 281.2 388.5 282.7 383.95 284.6 380.05 287.8 L378.55 291.05 382.2 305.25 399.8 303.05 417.4 305.25 421.05 291.05 419.55 287.8 Q415.65 284.6 411.1 282.7 M422.65 291.25 Q422.65 291.85 423.1 292.25 423.5 292.7 424.1 292.7 424.7 292.7 425.15 292.25 425.55 291.85 425.55 291.25 425.55 290.65 425.15 290.2 424.7 289.8 424.1 289.8 423.5 289.8 423.1 290.2 422.65 290.65 422.65 291.25 M436.85 272.6 Q434.5 281.5 426.25 287.9 L433.7 292.65 428.75 305.1 427.55 318.7 429.2 323.45 Q425.85 325.05 421.45 326.15 L414.55 327.4 417.0 308.7 399.8 306.15 382.6 308.7 385.05 327.4 378.15 326.15 Q373.75 325.05 370.4 323.45 L372.05 318.7 370.85 305.1 365.9 292.65 373.35 287.9 Q365.1 281.5 362.75 272.6 L369.8 272.25 Q384.5 266.5 399.8 266.3 415.1 266.5 429.8 272.25 L436.85 272.6 M424.25 286.1 Q429.65 282.6 431.15 277.7 417.85 269.1 399.8 268.55 381.75 269.1 368.45 277.7 369.95 282.6 375.35 286.1 387.05 278.9 399.8 277.9 412.55 278.9 424.25 286.1 M374.85 218.85 Q378.3 227.6 385.15 235.05 L380.85 234.7 375.3 228.55 371.85 228.55 367.8 219.9 Q371.05 218.9 374.85 218.85 M358.1 226.05 Q360.55 223.4 363.55 221.75 L367.05 228.55 364.2 233.5 361.65 233.3 358.1 226.05 M381.55 324.55 L382.0 323.55 Q382.0 322.95 381.55 322.5 381.15 322.1 380.55 322.1 379.95 322.1 379.5 322.5 379.1 322.95 379.1 323.55 379.1 324.15 379.5 324.55 379.95 325.0 380.55 325.0 381.15 325.0 381.55 324.55 M381.55 315.3 Q381.15 314.9 380.55 314.9 379.95 314.9 379.5 315.3 379.1 315.75 379.1 316.35 379.1 316.95 379.5 317.35 379.95 317.8 380.55 317.8 381.15 317.8 381.55 317.35 L382.0 316.35 Q382.0 315.75 381.55 315.3 M378.6 306.55 Q378.2 307.0 378.2 307.6 378.2 308.2 378.6 308.6 379.05 309.05 379.65 309.05 380.25 309.05 380.65 308.6 L381.1 307.6 Q381.1 307.0 380.65 306.55 380.25 306.15 379.65 306.15 379.05 306.15 378.6 306.55 M379.1 298.95 Q379.1 298.35 378.65 297.9 378.25 297.5 377.65 297.5 377.05 297.5 376.6 297.9 376.2 298.35 376.2 298.95 376.2 299.55 376.6 299.95 377.05 300.4 377.65 300.4 378.25 300.4 378.65 299.95 L379.1 298.95 M374.45 290.2 Q374.05 290.65 374.05 291.25 374.05 291.85 374.45 292.25 374.9 292.7 375.5 292.7 376.1 292.7 376.5 292.25 376.95 291.85 376.95 291.25 376.95 290.65 376.5 290.2 376.1 289.8 375.5 289.8 374.9 289.8 374.45 290.2 M420.5 298.95 Q420.5 299.55 420.95 299.95 421.35 300.4 421.95 300.4 L423.0 299.95 Q423.4 299.55 423.4 298.95 423.4 298.35 423.0 297.9 422.55 297.5 421.95 297.5 421.35 297.5 420.95 297.9 420.5 298.35 420.5 298.95 M418.95 306.55 Q418.5 307.0 418.5 307.6 418.5 308.2 418.95 308.6 419.35 309.05 419.95 309.05 420.55 309.05 421.0 308.6 421.4 308.2 421.4 307.6 421.4 307.0 421.0 306.55 420.55 306.15 419.95 306.15 419.35 306.15 418.95 306.55 M419.05 314.9 Q418.45 314.9 418.05 315.3 417.6 315.75 417.6 316.35 417.6 316.95 418.05 317.35 418.45 317.8 419.05 317.8 419.65 317.8 420.1 317.35 420.5 316.95 420.5 316.35 420.5 315.75 420.1 315.3 419.65 314.9 419.05 314.9 M420.1 322.5 Q419.65 322.1 419.05 322.1 418.45 322.1 418.05 322.5 417.6 322.95 417.6 323.55 417.6 324.15 418.05 324.55 418.45 325.0 419.05 325.0 419.65 325.0 420.1 324.55 420.5 324.15 420.5 323.55 420.5 322.95 420.1 322.5" fill="#000000" fill-rule="evenodd" stroke="none"/>
  </g>
</svg>
