<?xml version="1.0" encoding="UTF-8" standalone="no"?>
<svg xmlns:xlink="http://www.w3.org/1999/xlink" height="22.7px" width="42.3px" xmlns="http://www.w3.org/2000/svg">
  <g transform="matrix(1.0, 0.0, 0.0, 1.0, -378.7, -221.0)">
    <path d="M381.25 230.15 Q379.1 230.1 379.2 232.45 385.75 243.05 399.85 243.2 413.9 243.05 420.5 232.45 420.6 230.1 418.4 230.15 414.3 228.3 415.05 226.6 415.95 224.95 415.05 224.05 415.2 221.8 410.6 221.5 L410.85 223.45 Q405.95 225.1 399.85 225.1 393.75 225.1 388.9 223.5 L389.1 221.5 Q384.45 221.8 384.6 224.05 383.7 224.95 384.6 226.6 385.4 228.3 381.25 230.15" fill="none" stroke="#000000" stroke-linecap="round" stroke-linejoin="round" stroke-width="1.0"/>
    <path d="M418.4 230.15 L417.65 231.75 Q416.0 234.8 412.75 236.5 M415.05 224.05 Q414.15 224.8 412.85 225.4 L411.2 226.1 410.15 226.45 M410.85 223.45 L412.55 222.8 M388.9 223.5 L387.1 222.8 M381.25 230.15 L382.0 231.75 Q383.65 234.8 386.95 236.5 M384.6 224.05 L386.8 225.4 388.5 226.15 389.5 226.45 M388.35 231.4 Q392.6 234.15 397.75 234.55 M411.3 231.4 Q407.05 234.15 401.9 234.55" fill="none" stroke="#000000" stroke-linecap="round" stroke-linejoin="round" stroke-opacity="0.5019608" stroke-width="1.0"/>
  </g>
</svg>
