<?xml version="1.0" encoding="UTF-8" standalone="no"?>
<svg xmlns:xlink="http://www.w3.org/1999/xlink" height="101.55px" width="267.2px" xmlns="http://www.w3.org/2000/svg">
  <g transform="matrix(1.0, 0.0, 0.0, 1.0, -266.3, -463.1)">
    <path d="M317.6 467.65 Q326.5 469.4 335.45 469.9 351.05 470.75 366.75 467.7 368.65 479.85 360.45 486.75 342.5 502.0 341.5 508.5 L341.4 509.15 Q324.15 516.1 305.9 509.15 304.8 502.6 297.2 478.9 294.85 470.45 300.7 463.1 309.15 465.95 317.6 467.65 M298.5 522.8 L300.45 518.8 300.45 516.2 306.45 513.05 Q321.6 520.75 341.5 513.05 L343.6 516.55 342.55 519.25 Q346.45 523.25 346.3 528.55 L339.55 533.25 Q323.3 524.1 297.65 523.55 L298.5 522.8 M293.25 527.25 Q319.95 527.4 336.85 537.15 L338.45 539.95 333.95 553.3 329.55 553.55 Q298.75 536.45 275.75 542.1 L275.7 542.1 274.55 539.75 288.55 527.6 293.25 527.25 M269.5 558.75 Q265.55 553.95 266.45 548.3 L271.35 545.8 270.7 546.6 Q292.95 539.2 326.55 556.8 L329.2 558.5 Q323.05 563.75 314.2 564.65 L274.85 564.65 269.5 558.75 M499.15 463.15 Q504.95 470.45 502.6 478.9 495.0 502.55 493.95 509.15 475.65 516.1 458.4 509.15 L458.35 508.5 Q457.3 502.05 439.55 486.9 431.15 479.85 433.1 467.7 448.75 470.75 464.35 469.9 473.3 469.4 482.25 467.65 490.7 465.95 499.15 463.15 M511.25 527.6 L525.25 539.75 524.1 542.1 Q501.05 536.45 470.25 553.55 L465.85 553.3 461.35 539.95 462.95 537.15 Q479.85 527.4 506.55 527.25 L511.25 527.6 M499.35 516.2 L499.35 518.8 501.35 522.8 502.2 523.55 Q476.5 524.1 460.25 533.25 L453.5 528.55 Q453.35 523.25 457.25 519.25 L456.2 516.55 458.3 513.05 Q478.2 520.75 493.35 513.05 L499.35 516.2 M533.35 548.3 Q534.25 553.95 530.3 558.75 L524.95 564.65 485.6 564.65 Q476.75 563.75 470.6 558.5 L473.3 556.8 Q506.85 539.2 529.1 546.6 L528.45 545.8 533.35 548.3" fill="#000000" fill-rule="evenodd" stroke="none"/>
  </g>
</svg>
