<?xml version="1.0" encoding="UTF-8" standalone="no"?>
<svg xmlns:xlink="http://www.w3.org/1999/xlink" height="31.65px" width="58.75px" xmlns="http://www.w3.org/2000/svg">
  <g transform="matrix(1.0, 0.0, 0.0, 1.0, -299.65, -485.25)">
    <path d="M304.75 503.15 L303.5 497.9 Q323.0 502.8 344.35 500.05 L343.35 501.85 342.3 504.65 Q322.5 509.2 305.7 503.5 L304.75 503.15 M306.45 513.05 L305.8 508.55 Q319.95 515.2 341.4 509.4 341.25 511.25 341.5 513.05 321.6 520.75 306.45 513.05 M305.7 492.5 L301.75 491.55 299.65 485.25 Q327.1 491.05 358.4 488.3 L357.6 488.8 Q352.8 491.75 349.6 494.45 325.45 496.9 305.7 492.5" fill="#000000" fill-rule="evenodd" stroke="none"/>
  </g>
</svg>
