<?xml version="1.0" encoding="UTF-8" standalone="no"?>
<svg xmlns:xlink="http://www.w3.org/1999/xlink" height="105.9px" width="102.5px" xmlns="http://www.w3.org/2000/svg">
  <g transform="matrix(1.0, 0.0, 0.0, 1.0, -267.55, -459.25)">
    <path d="M303.55 497.95 Q310.25 499.7 317.4 500.65 L327.9 501.65 Q335.45 502.05 343.45 501.65 M281.85 564.65 Q279.95 549.75 290.1 543.4 L314.85 519.1 317.3 510.85 317.4 500.65 M327.9 501.65 L325.55 511.35 325.55 520.55 306.6 544.85 Q298.7 552.25 299.35 564.65" fill="none" stroke="#000000" stroke-linecap="round" stroke-linejoin="round" stroke-opacity="0.5019608" stroke-width="1.0"/>
    <path d="M343.45 501.65 L357.35 500.35 Q362.1 499.6 363.75 494.95 L369.55 467.55 Q369.65 464.5 365.85 463.8 L366.75 467.7 Q351.05 470.75 335.45 469.9 326.5 469.4 317.6 467.65 309.15 465.95 300.7 463.1 L303.35 459.75 Q297.75 459.75 295.3 462.95 292.25 476.2 293.1 490.15 292.85 493.55 297.3 496.15 L303.55 497.95 M343.45 501.65 L343.35 501.85 Q340.8 507.45 341.5 513.05 L343.6 516.55 342.55 519.25 343.75 522.05 Q344.85 527.1 341.55 530.95 335.25 537.65 333.45 545.7 331.8 553.2 323.15 559.55 L314.2 564.65 299.35 564.65 281.85 564.65 274.85 564.65 269.5 558.75 Q265.9 552.0 271.35 545.8 L302.55 519.35 302.55 515.65 306.45 513.05 Q305.45 505.55 303.55 497.95 Z" fill="none" stroke="#000000" stroke-linecap="round" stroke-linejoin="round" stroke-width="1.0"/>
  </g>
</svg>
