<?xml version="1.0" encoding="UTF-8" standalone="no"?>
<svg xmlns:xlink="http://www.w3.org/1999/xlink" height="53.2px" width="72.75px" xmlns="http://www.w3.org/2000/svg">
  <g transform="matrix(1.0, 0.0, 0.0, 1.0, -293.6, -465.95)">
    <path d="M298.2 482.1 L302.9 481.5 307.6 480.05 309.7 479.4 Q318.45 476.95 327.5 477.8 331.7 478.25 335.45 479.85 L337.8 480.8 Q346.25 484.15 355.25 486.45 L360.7 486.9 361.5 486.7 362.1 486.55 M305.65 512.3 Q309.0 514.45 314.3 514.65 310.55 497.3 309.7 479.4 M342.35 512.3 Q333.15 514.8 324.4 515.05 328.5 493.0 337.8 480.8" fill="none" stroke="#000000" stroke-linecap="round" stroke-linejoin="round" stroke-opacity="0.49803922" stroke-width="1.0"/>
    <path d="M362.1 486.55 Q364.4 485.8 365.85 483.75 L322.7 466.45 294.1 479.5 Q295.3 481.8 298.2 482.1 L305.65 512.3 M362.1 486.55 Q359.1 492.25 349.75 497.95 343.0 503.05 342.35 512.3 344.35 513.55 344.15 515.0 L317.6 518.65 302.05 514.4 Q301.9 512.8 305.65 512.3" fill="none" stroke="#000000" stroke-linecap="round" stroke-linejoin="round" stroke-width="1.0"/>
  </g>
</svg>
