<?xml version="1.0" encoding="UTF-8" standalone="no"?>
<svg xmlns:xlink="http://www.w3.org/1999/xlink" height="96.15px" width="96.9px" xmlns="http://www.w3.org/2000/svg">
  <g transform="matrix(1.0, 0.0, 0.0, 1.0, -270.2, -463.1)">
    <path d="M317.6 467.65 Q326.5 469.4 335.45 469.9 351.05 470.75 366.75 467.7 368.65 479.85 360.45 486.75 341.55 502.8 345.7 516.3 L342.55 519.25 343.75 522.05 344.0 523.85 335.95 532.55 330.1 546.2 Q325.15 555.25 313.8 559.25 L275.45 559.25 Q267.8 557.55 271.35 545.8 L302.55 519.35 300.15 515.65 Q305.0 505.95 301.25 489.95 L301.25 489.9 301.2 489.75 298.5 482.1 297.2 478.9 Q294.85 470.45 300.7 463.1 309.15 465.95 317.6 467.65" fill="#000000" fill-rule="evenodd" stroke="none"/>
  </g>
</svg>
