<?xml version="1.0" encoding="UTF-8" standalone="no"?>
<svg xmlns:xlink="http://www.w3.org/1999/xlink" height="112.15px" width="85.35px" xmlns="http://www.w3.org/2000/svg">
  <g transform="matrix(1.0, 0.0, 0.0, 1.0, -281.4, -452.5)">
    <path d="M299.55 484.95 L314.7 487.15 Q315.25 485.85 320.15 486.45 L320.6 486.55 320.8 486.6 Q323.1 473.95 332.75 469.7 319.2 468.65 305.7 464.7 L300.7 463.1 309.05 452.5 Q331.95 461.55 363.95 455.8 L366.55 466.7 366.75 467.7 Q354.2 470.15 341.75 470.1 L338.25 470.0 Q327.3 474.85 324.75 487.2 L325.15 487.3 325.25 487.3 Q341.9 489.7 355.3 487.55 L360.8 486.45 357.6 488.8 Q345.85 496.05 343.35 501.85 342.25 504.25 341.8 506.6 341.1 509.85 341.5 513.05 L343.6 516.55 342.55 519.25 343.75 522.05 Q344.6 525.95 342.8 529.15 L342.75 529.25 342.55 529.25 320.8 527.4 Q316.05 535.6 307.75 538.35 318.55 540.85 333.6 545.1 L333.45 545.7 332.75 548.05 Q310.95 541.25 292.0 538.15 303.2 552.3 286.65 564.65 L281.4 564.65 Q303.35 551.1 284.65 534.55 290.65 534.5 303.95 537.5 313.45 534.85 317.85 527.15 L317.6 526.45 297.95 523.3 Q296.6 519.75 302.55 519.35 L317.1 522.35 Q317.4 521.05 318.7 520.9 L318.6 510.05 306.05 510.05 Q302.6 507.55 304.9 503.95 L316.95 505.95 Q316.3 504.2 319.1 504.35 L320.15 493.45 317.75 491.5 301.35 490.25 Q297.6 488.6 299.55 484.95 M322.4 521.7 Q326.95 523.4 330.75 523.75 339.2 517.95 336.45 515.0 L333.3 511.55 322.75 511.55 322.4 521.7 M322.9 505.0 Q328.6 506.35 334.9 506.4 343.75 500.6 337.1 493.75 L323.85 493.5 322.9 505.0" fill="#000000" fill-rule="evenodd" stroke="none"/>
  </g>
</svg>
