<?xml version="1.0" encoding="UTF-8" standalone="no"?>
<svg xmlns:xlink="http://www.w3.org/1999/xlink" height="135.7px" width="100.7px" xmlns="http://www.w3.org/2000/svg">
  <g transform="matrix(1.0, 0.0, 0.0, 1.0, -268.1, -428.95)">
    <path d="M312.85 457.75 L307.3 449.35 307.25 448.8 318.45 428.95 336.45 428.95 345.4 447.75 339.1 460.0 364.15 456.6 Q368.3 465.1 368.8 472.8 L367.1 472.55 Q366.9 483.05 357.6 488.8 350.15 493.4 346.45 497.45 L348.15 499.15 Q343.1 505.4 341.45 512.4 L341.4 512.85 341.5 512.85 343.5 512.6 347.05 526.5 Q344.25 530.6 339.55 533.25 335.55 538.25 333.9 544.0 L333.45 545.7 Q332.15 551.6 326.55 556.8 L323.15 559.55 314.2 564.65 274.85 564.65 269.5 558.75 Q266.15 552.45 270.7 546.6 L271.5 546.35 271.35 545.8 297.65 523.5 296.2 515.0 Q302.95 510.35 304.95 507.6 L305.5 506.8 304.75 507.1 299.25 493.35 301.65 491.35 Q299.75 485.15 297.2 478.9 295.75 473.7 297.45 468.9 L295.2 468.75 Q299.15 459.25 307.6 454.35 L307.75 454.25 312.85 457.75" fill="#000000" fill-rule="evenodd" stroke="none"/>
  </g>
</svg>
