<?xml version="1.0" encoding="UTF-8" standalone="no"?>
<svg xmlns:xlink="http://www.w3.org/1999/xlink" height="6.45px" width="6.35px" xmlns="http://www.w3.org/2000/svg">
  <g transform="matrix(1.0, 0.0, 0.0, 1.0, -386.6, -181.2)">
    <path d="M388.7 182.5 Q388.35 182.95 388.35 183.9 388.35 185.0 389.1 185.65 389.85 186.3 391.0 186.3 L391.75 186.25 392.3 185.7 392.9 186.05 392.95 186.1 392.85 186.3 Q392.25 187.3 391.4 187.55 L391.3 187.6 390.7 187.65 389.7 187.5 389.65 187.5 Q384.8 186.1 387.65 181.45 L387.75 181.2 387.8 181.3 387.85 181.3 388.1 181.65 388.55 182.3 388.7 182.5" fill="#000000" fill-rule="evenodd" stroke="none"/>
  </g>
</svg>
