<?xml version="1.0" encoding="UTF-8" standalone="no"?>
<svg xmlns:xlink="http://www.w3.org/1999/xlink" height="3.55px" width="28.4px" xmlns="http://www.w3.org/2000/svg">
  <g transform="matrix(1.0, 0.0, 0.0, 1.0, -385.6, -183.1)">
    <path d="M394.45 185.55 L392.85 184.2 392.2 184.15 392.2 184.35 Q392.2 185.1 391.65 185.6 391.15 186.15 390.4 186.15 389.65 186.15 389.1 185.6 388.6 185.1 388.6 184.35 L388.7 183.75 387.55 183.6 386.1 184.95 M392.2 184.15 L388.7 183.75 M407.95 185.6 Q408.45 186.15 409.2 186.15 409.95 186.15 410.5 185.6 411.0 185.1 411.0 184.35 L410.9 183.75 407.4 184.15 407.4 184.35 Q407.4 185.1 407.95 185.6 M405.15 185.55 L406.75 184.2 407.4 184.15 M410.9 183.75 L412.05 183.6 413.5 184.95" fill="none" stroke="#000000" stroke-linecap="round" stroke-linejoin="round" stroke-opacity="0.5019608" stroke-width="1.0"/>
  </g>
</svg>
