<?xml version="1.0" encoding="UTF-8" standalone="no"?>
<svg xmlns:xlink="http://www.w3.org/1999/xlink" height="11.65px" width="28.7px" xmlns="http://www.w3.org/2000/svg">
  <g transform="matrix(1.0, 0.0, 0.0, 1.0, -385.45, -178.9)">
    <path d="M385.95 181.45 L386.1 180.05 Q386.35 179.05 387.5 179.6 L389.2 180.25 Q394.4 182.55 394.45 187.65 L394.3 189.7 394.05 189.85 392.25 189.9 Q390.6 189.35 389.4 188.5 L389.2 188.4 Q387.7 187.25 386.85 185.5 L386.1 183.25 385.95 181.45 M413.65 181.45 L413.5 180.05 Q413.25 179.05 412.1 179.6 L410.4 180.25 Q405.2 182.55 405.15 187.65 L405.3 189.7 405.55 189.85 407.35 189.9 Q409.0 189.35 410.2 188.5 L410.4 188.4 Q411.9 187.25 412.75 185.5 L413.5 183.25 413.65 181.45" fill="none" stroke="#000000" stroke-linecap="round" stroke-linejoin="round" stroke-opacity="0.5019608" stroke-width="1.0"/>
  </g>
</svg>
