<?xml version="1.0" encoding="UTF-8" standalone="no"?>
<svg xmlns:xlink="http://www.w3.org/1999/xlink" height="8.8px" width="24.6px" xmlns="http://www.w3.org/2000/svg">
  <g transform="matrix(1.0, 0.0, 0.0, 1.0, -387.5, -179.25)">
    <path d="M389.95 182.15 L392.35 185.55 392.6 185.85 392.7 185.95 393.95 187.3 394.0 187.35 394.35 187.65 394.05 187.75 392.6 188.0 390.5 188.0 Q389.6 187.9 389.0 187.3 388.35 186.85 387.95 185.95 L387.9 185.8 Q387.05 183.8 387.95 179.25 L389.95 182.15 M411.65 179.25 Q412.55 183.8 411.7 185.8 L411.65 185.95 410.6 187.3 Q410.0 187.9 409.1 188.0 L407.0 188.0 405.55 187.75 405.25 187.65 405.6 187.35 405.65 187.3 406.9 185.95 407.0 185.85 407.25 185.55 409.65 182.15 411.65 179.25" fill="#000000" fill-rule="evenodd" stroke="none"/>
  </g>
</svg>
