<?xml version="1.0" encoding="UTF-8" standalone="no"?>
<svg xmlns:xlink="http://www.w3.org/1999/xlink" height="7.2px" width="7.2px" xmlns="http://www.w3.org/2000/svg">
  <g transform="matrix(1.0, 0.0, 0.0, 1.0, -386.8, -180.75)">
    <path d="M387.0 183.15 Q387.2 182.35 387.8 181.75 388.9 180.75 390.4 180.75 391.9 180.75 392.9 181.75 393.8 182.65 394.0 183.95 L394.0 184.35 Q394.0 185.85 392.9 186.85 391.9 187.95 390.4 187.95 388.9 187.95 387.8 186.85 386.8 185.85 386.8 184.35 L387.0 183.15 M388.6 184.35 Q388.6 185.1 389.1 185.6 389.65 186.15 390.4 186.15 391.15 186.15 391.65 185.6 392.2 185.1 392.2 184.35 L392.2 184.15 Q392.1 183.5 391.65 183.05 391.15 182.55 390.4 182.55 389.65 182.55 389.1 183.05 L388.7 183.75 388.6 184.35" fill="#000000" fill-rule="evenodd" stroke="none"/>
  </g>
</svg>
