<?xml version="1.0" encoding="UTF-8" standalone="no"?>
<svg xmlns:xlink="http://www.w3.org/1999/xlink" height="3.5px" width="27.4px" xmlns="http://www.w3.org/2000/svg">
  <g transform="matrix(1.0, 0.0, 0.0, 1.0, -386.1, -182.95)">
    <path d="M386.1 184.95 L387.6 182.95 389.2 183.0 389.95 183.1 389.4 183.4 389.1 183.9 389.05 184.35 Q389.05 184.95 389.4 185.3 389.8 185.7 390.4 185.7 390.95 185.7 391.3 185.3 L391.75 184.35 391.75 184.2 391.35 183.35 392.0 183.55 393.0 183.85 394.45 185.55 Q388.8 187.6 386.1 184.95 M408.3 183.35 Q407.95 183.75 407.85 184.2 L407.85 184.35 Q407.85 184.95 408.3 185.3 408.65 185.7 409.2 185.7 409.8 185.7 410.2 185.3 410.55 184.95 410.55 184.35 L410.5 183.9 410.2 183.4 409.65 183.1 410.4 183.0 412.0 182.95 413.5 184.95 Q410.8 187.6 405.15 185.55 L406.6 183.85 407.6 183.55 408.3 183.35" fill="#000000" fill-rule="evenodd" stroke="none"/>
  </g>
</svg>
