<?xml version="1.0" encoding="UTF-8" standalone="no"?>
<svg xmlns:xlink="http://www.w3.org/1999/xlink" height="3.45px" width="25.8px" xmlns="http://www.w3.org/2000/svg">
  <g transform="matrix(1.0, 0.0, 0.0, 1.0, -386.9, -183.4)">
    <path d="M387.4 183.9 Q388.6 183.4 389.85 183.4 L389.9 183.55 Q390.1 184.7 390.85 185.6 L390.95 183.45 391.0 183.45 391.25 183.5 Q392.0 183.6 392.65 184.0 L393.8 185.05 Q393.7 186.25 392.55 186.65 L392.1 186.8 390.95 186.85 389.35 186.4 389.3 186.4 Q387.75 185.6 386.9 184.1 L387.4 183.9 M408.65 183.45 L408.75 185.6 Q409.5 184.7 409.7 183.55 L409.75 183.4 Q411.0 183.4 412.2 183.9 L412.7 184.1 Q411.85 185.6 410.3 186.4 L410.25 186.4 408.65 186.85 407.5 186.8 407.05 186.65 Q405.9 186.25 405.8 185.05 L406.95 184.0 Q407.6 183.6 408.35 183.5 L408.6 183.45 408.65 183.45" fill="#000000" fill-rule="evenodd" stroke="none"/>
  </g>
</svg>
