<?xml version="1.0" encoding="UTF-8" standalone="no"?>
<svg xmlns:xlink="http://www.w3.org/1999/xlink" height="30.4px" width="18.3px" xmlns="http://www.w3.org/2000/svg">
  <g transform="matrix(1.0, 0.0, 0.0, 1.0, -390.8, -246.2)">
    <path d="M406.7 272.25 Q404.25 276.6 399.85 276.6 395.65 276.6 393.2 272.35 390.8 268.15 390.8 261.45 390.8 254.65 393.3 250.45 395.75 246.2 399.95 246.2 402.65 246.2 404.65 248.0 406.6 249.8 407.85 253.15 409.1 256.5 409.1 261.7 409.1 267.95 406.7 272.25 M399.95 254.85 Q399.65 254.85 399.4 255.15 L399.2 255.8 399.2 266.85 399.4 267.7 Q399.65 268.0 399.95 268.0 400.25 268.0 400.5 267.65 L400.7 266.95 400.7 255.95 Q400.7 254.85 399.95 254.85" fill="#000000" fill-rule="evenodd" stroke="none"/>
  </g>
</svg>
