<?xml version="1.0" encoding="UTF-8" standalone="no"?>
<svg xmlns:xlink="http://www.w3.org/1999/xlink" height="23.9px" width="22.7px" xmlns="http://www.w3.org/2000/svg">
  <g transform="matrix(1.0, 0.0, 0.0, 1.0, -388.1, -252.75)">
    <path d="M410.3 253.6 L410.3 276.15 402.2 276.15 402.2 268.55 Q401.7 269.45 400.25 269.95 L397.0 270.45 Q393.35 270.45 390.95 268.3 388.6 266.1 388.6 262.1 388.6 259.4 389.65 257.35 390.75 255.3 392.7 254.25 394.65 253.25 396.95 253.25 398.95 253.25 400.85 254.15 401.9 254.55 402.7 255.95 L402.7 253.6 410.3 253.6 M401.4 259.15 Q400.55 258.3 399.35 258.3 398.25 258.3 397.45 259.1 396.65 259.95 396.65 261.95 396.65 263.8 397.4 264.55 398.2 265.35 399.25 265.35 400.55 265.35 401.4 264.5 402.2 263.7 402.2 261.9 402.2 259.95 401.4 259.15" fill="none" stroke="#000000" stroke-linecap="round" stroke-linejoin="round" stroke-opacity="0.5019608" stroke-width="1.0"/>
  </g>
</svg>
