<?xml version="1.0" encoding="UTF-8" standalone="no"?>
<svg xmlns:xlink="http://www.w3.org/1999/xlink" height="29.55px" width="40.0px" xmlns="http://www.w3.org/2000/svg">
  <g transform="matrix(1.0, 0.0, 0.0, 1.0, -379.9, -231.9)">
    <path d="M381.15 232.4 L382.4 235.45 382.45 235.65 382.55 235.95 383.35 236.25 Q384.0 236.6 384.25 237.2 L384.2 238.35 384.1 238.5 383.8 238.75 385.7 242.5 385.8 242.75 386.75 242.95 Q387.45 243.2 387.75 243.75 388.05 244.35 387.85 244.9 L387.75 245.05 387.5 245.4 387.4 245.45 Q388.75 247.65 390.2 249.35 L391.45 249.3 Q392.15 249.45 392.55 250.0 392.95 250.55 392.8 251.1 L392.75 251.3 392.5 251.65 392.45 251.65 Q394.2 253.2 396.0 254.0 L398.15 254.6 398.2 254.6 398.4 254.6 Q398.45 254.1 398.85 253.7 399.3 253.3 399.9 253.2 400.5 253.3 400.95 253.7 L401.4 254.6 401.6 254.6 401.65 254.6 403.8 254.0 Q405.6 253.2 407.35 251.65 L407.3 251.65 407.05 251.3 407.0 251.1 Q406.85 250.55 407.25 250.0 407.65 249.45 408.35 249.3 L409.6 249.35 412.4 245.45 412.3 245.4 412.0 245.05 411.95 244.9 Q411.75 244.35 412.05 243.75 412.35 243.2 413.05 242.95 L414.0 242.75 414.1 242.5 416.0 238.75 415.7 238.5 415.6 238.35 Q415.3 237.8 415.55 237.2 415.8 236.6 416.45 236.25 L417.25 235.95 417.35 235.65 417.4 235.45 418.65 232.4 M412.4 245.45 L412.8 245.6 412.9 245.65 413.05 245.65 Q414.8 246.1 414.2 250.35 416.3 246.5 415.25 243.65 L415.25 243.55 415.2 243.5 414.35 242.8 414.0 242.75 413.5 243.8 M416.0 238.75 L416.0 238.8 416.55 238.95 416.65 238.95 416.85 238.95 Q418.6 239.1 418.6 243.45 420.1 239.4 418.7 236.65 L418.7 236.55 418.65 236.5 417.75 235.95 417.25 235.95 416.8 237.05 M407.35 251.65 L407.75 251.9 407.85 252.0 408.0 252.0 Q409.65 252.65 408.6 256.85 411.1 253.3 410.45 250.3 L410.45 250.2 410.45 250.15 Q410.3 249.6 409.65 249.4 L408.9 250.25 M409.65 249.4 L409.6 249.35 M383.0 237.05 L382.55 235.95 382.05 235.95 Q381.45 236.05 381.15 236.5 L381.1 236.55 381.1 236.65 Q379.7 239.4 381.2 243.45 381.2 239.1 382.95 238.95 L383.15 238.95 383.25 238.95 383.8 238.8 383.8 238.75 M387.4 245.45 L387.0 245.6 386.9 245.65 386.75 245.65 Q385.0 246.1 385.6 250.35 383.5 246.5 384.55 243.65 L384.55 243.55 384.6 243.5 Q384.8 243.0 385.45 242.8 L385.8 242.75 386.3 243.8 M401.6 254.6 L401.4 254.65 401.4 254.9 401.4 255.25 401.4 255.3 401.2 255.7 Q400.05 258.85 399.9 260.95 399.75 258.85 398.6 255.7 L398.4 255.3 398.4 255.25 398.4 254.9 398.4 254.65 398.2 254.6 M398.4 254.65 L398.4 254.6 M401.4 254.65 L401.4 254.6 M390.9 250.25 L390.1 249.4 Q389.5 249.6 389.35 250.15 L389.35 250.2 389.35 250.3 Q388.7 253.3 391.2 256.85 390.1 252.65 391.75 252.0 L391.95 252.0 392.05 251.9 392.45 251.65 M390.1 249.4 L390.2 249.35" fill="none" stroke="#000000" stroke-linecap="round" stroke-linejoin="round" stroke-width="1.0"/>
  </g>
</svg>
