<?xml version="1.0" encoding="UTF-8" standalone="no"?>
<svg xmlns:xlink="http://www.w3.org/1999/xlink" height="38.25px" width="56.15px" xmlns="http://www.w3.org/2000/svg">
  <g transform="matrix(1.0, 0.0, 0.0, 1.0, -371.95, -231.95)">
    <path d="M422.65 239.05 L423.05 238.2 423.05 238.15 422.7 237.8 422.3 237.05 422.15 236.6 Q422.05 235.9 422.3 235.15 422.7 234.15 423.5 233.8 L423.7 233.7 424.25 233.55 Q424.7 233.55 425.1 233.85 425.45 234.0 425.65 234.25 L426.2 235.2 Q426.55 236.15 426.2 237.1 425.8 237.95 425.05 238.35 L425.0 238.4 424.6 238.6 424.4 238.6 424.0 239.55 M421.4 241.8 L420.95 242.85 420.8 243.15 Q421.25 244.0 422.1 243.85 L422.3 243.45 422.7 242.55 M424.4 238.6 L424.5 238.5 424.5 238.35 424.2 237.9 423.2 237.7 423.1 238.0 423.05 238.2 M423.1 238.0 L423.05 238.15 M419.9 248.5 L420.35 247.65 420.5 247.25 Q420.2 246.45 419.3 246.55 L419.0 246.95 418.55 247.8 M419.0 246.95 L418.85 246.75 418.55 245.95 418.5 245.7 Q418.4 244.95 418.8 244.15 419.3 243.25 420.2 243.0 420.4 242.85 420.7 242.85 L420.95 242.85 M396.05 266.95 L396.05 266.85 M422.3 243.45 L422.35 243.6 Q422.7 243.9 422.85 244.5 423.05 245.4 422.5 246.3 422.0 247.2 421.15 247.5 L420.6 247.65 420.35 247.65 M417.05 250.35 L416.45 251.25 416.25 251.65 Q416.6 252.45 417.55 252.4 L417.7 252.1 418.25 251.2 M414.05 254.8 L413.75 254.0 Q413.6 253.25 414.05 252.55 414.05 252.4 414.2 252.3 L414.35 252.15 Q414.7 251.55 415.4 251.35 L416.2 251.25 416.3 251.25 416.45 251.25 M417.7 252.1 L418.05 252.9 Q418.25 253.65 417.95 254.35 L417.85 254.5 417.8 254.7 Q417.2 255.35 416.4 255.6 L415.5 255.75 414.65 256.6 M415.5 255.75 L415.6 255.6 Q415.4 254.85 414.45 254.8 L413.45 255.75 M414.05 252.55 L414.35 252.15 M405.3 262.35 L406.3 261.55 406.3 261.1 Q406.4 260.25 407.15 259.55 407.45 259.2 407.9 259.05 L409.05 258.75 409.95 258.9 410.25 258.95 410.95 258.25 M410.25 258.95 L410.15 259.1 Q410.3 259.85 411.3 259.95 L411.3 259.9 411.95 259.3 M411.3 259.9 L411.35 260.1 411.35 260.55 410.9 261.7 410.5 262.1 Q409.7 262.8 408.65 262.9 L407.3 262.55 406.4 263.25 M407.3 262.55 L407.6 262.35 Q407.45 261.6 406.4 261.45 L406.3 261.55 M376.1 239.65 L375.6 238.65 375.45 238.65 375.05 238.5 374.95 238.45 Q374.2 238.05 373.9 237.15 373.5 236.25 373.8 235.3 L374.4 234.35 374.9 233.95 375.8 233.7 376.3 233.75 376.55 233.9 Q377.3 234.25 377.7 235.25 L377.85 236.7 377.75 237.15 377.4 237.9 377.05 238.2 377.0 238.25 377.4 239.1 M377.3 242.65 L377.75 243.6 377.9 243.9 Q378.8 244.05 379.25 243.25 L379.1 242.95 378.65 241.9 M375.6 238.65 L375.5 238.6 375.5 238.45 375.9 238.0 Q376.25 237.7 376.85 237.75 L376.95 238.05 377.05 238.2 M376.95 238.05 L377.0 238.25 M377.75 243.6 L377.7 243.65 Q377.3 244.05 377.25 244.6 377.0 245.5 377.5 246.4 378.05 247.25 378.9 247.6 L379.4 247.7 379.7 247.7 379.45 247.35 Q379.85 246.55 380.75 246.6 L381.0 247.05 381.2 246.8 381.55 246.05 381.55 245.85 Q381.65 245.0 381.2 244.25 380.75 243.35 379.85 243.1 L379.3 242.95 379.1 242.95 M387.0 251.5 L387.15 251.65 387.3 251.85 387.0 251.5 M386.05 252.6 L385.85 252.4 385.7 252.25 386.05 252.6 Q386.45 253.35 386.3 254.1 L386.0 254.85 M385.7 252.25 Q385.3 251.7 384.65 251.45 L383.85 251.3 383.75 251.35 383.6 251.35 383.85 251.7 Q383.4 252.55 382.55 252.45 L382.35 252.15 381.95 253.05 Q381.8 253.75 382.1 254.4 L382.15 254.55 382.2 254.6 382.3 254.75 382.35 254.8 Q382.8 255.45 383.6 255.75 L384.5 255.8 384.5 255.75 Q384.65 254.9 385.65 254.85 L385.95 255.25 386.55 255.85 M388.1 259.35 L388.7 260.0 388.8 260.05 Q389.75 259.95 389.95 259.2 L389.75 259.05 389.05 258.3 M388.7 260.0 L388.65 260.2 388.65 260.7 Q388.65 261.25 389.05 261.8 L389.6 262.2 Q390.35 262.9 391.35 262.95 L392.75 262.65 392.5 262.45 Q392.6 261.65 393.6 261.55 L393.7 261.6 393.75 261.15 Q393.65 260.3 392.9 259.65 L392.15 259.15 391.0 258.9 390.15 258.95 389.75 259.05 M393.7 261.6 L394.7 262.45 M393.65 263.35 L392.75 262.65 M401.5 265.3 L400.25 264.8 399.75 264.75 Q399.05 264.85 398.45 265.25 L398.6 265.35 398.45 265.6 398.4 265.85 398.0 266.1 397.6 266.2 397.55 266.5 397.5 266.65 397.4 267.1 398.35 268.0 Q398.85 268.4 399.55 268.55 L399.8 268.55 Q400.85 268.5 401.75 267.9 L402.55 267.0 402.7 266.85 402.75 266.55 402.75 266.5 402.8 265.95 402.55 266.15 402.35 266.1 402.05 266.05 401.7 265.75 401.55 265.5 401.5 265.3 401.5 265.25 402.65 264.35 402.7 264.3 M402.8 265.95 L403.65 265.35 403.7 265.3 M397.25 264.35 L398.45 265.25 M396.05 266.95 L396.15 267.5 M396.35 265.4 L397.6 266.2 M380.2 248.55 L379.7 247.7 M383.05 250.45 L383.6 251.35 M382.35 252.15 L381.8 251.25 M382.3 254.75 L382.15 254.55 M385.4 256.65 L384.5 255.8 M381.0 247.05 L381.55 247.9" fill="none" stroke="#000000" stroke-linecap="round" stroke-linejoin="round" stroke-opacity="0.49803922" stroke-width="1.0"/>
    <path d="M424.0 239.55 L425.6 239.5 426.35 239.1 Q427.0 238.6 427.4 237.7 427.85 236.35 427.35 234.9 L427.25 234.9 426.65 233.8 426.05 233.25 425.45 232.85 424.7 232.55 422.8 232.65 Q421.55 233.1 421.1 234.45 L420.8 235.5 420.8 235.8 Q420.8 236.45 421.1 237.15 L421.4 237.7 422.3 238.8 422.65 239.05 421.4 241.8 M422.7 242.55 L424.0 239.55 M387.3 251.85 Q387.85 252.9 387.6 254.2 L386.75 255.75 386.55 255.85 388.85 258.1 388.95 258.15 389.05 258.3 389.3 258.25 Q390.2 257.8 391.35 257.8 392.95 257.85 394.1 258.75 394.85 259.45 395.1 260.35 L395.15 260.95 395.15 261.0 394.7 262.45 397.25 264.35 397.3 264.3 398.0 264.0 398.55 263.85 398.85 263.7 399.25 263.6 400.25 263.55 402.35 264.1 402.7 264.3 405.3 262.35 Q404.9 261.65 404.9 260.9 L404.9 260.85 404.9 260.25 Q405.15 259.35 405.95 258.7 407.05 257.75 408.65 257.7 409.85 257.7 410.75 258.15 L410.95 258.25 413.45 255.75 413.3 255.6 Q412.7 255.0 412.45 254.1 412.1 252.85 412.75 251.75 L413.05 251.4 Q413.65 250.5 414.8 250.2 415.8 249.95 416.65 250.2 L416.8 250.3 417.05 250.35 418.55 247.8 418.35 247.65 Q417.6 247.0 417.35 246.0 L417.25 246.0 417.15 244.95 Q417.15 244.1 417.55 243.4 418.0 242.5 418.8 242.1 L418.9 242.05 419.3 241.9 419.6 241.8 420.4 241.65 421.4 241.8 M422.7 242.55 L422.9 242.7 Q423.65 243.3 423.95 244.35 424.4 245.7 423.7 246.95 423.05 248.15 421.7 248.55 L420.0 248.55 419.9 248.5 418.25 251.2 Q418.9 251.8 419.2 252.75 419.6 253.95 419.15 255.05 L419.0 255.3 418.9 255.3 Q418.1 256.45 416.75 256.75 L414.65 256.6 412.3 258.9 412.3 259.0 411.95 259.3 412.7 260.7 412.7 260.75 Q412.7 261.8 411.95 262.6 L411.55 262.95 Q410.45 263.9 408.8 263.95 407.65 263.95 406.4 263.25 L403.7 265.3 Q404.05 265.95 404.05 266.75 L404.0 267.1 403.55 268.15 402.95 268.65 402.35 269.1 400.2 269.7 Q398.55 269.7 397.3 268.9 396.5 268.35 396.3 267.7 L396.15 267.5 396.1 267.45 396.05 266.95 M396.05 266.85 L396.05 266.55 396.05 266.4 396.05 266.35 396.05 266.25 M377.4 239.1 Q377.5 238.95 377.75 238.9 L378.65 237.75 378.95 237.25 379.25 235.9 379.25 235.55 379.0 234.55 Q378.5 233.2 377.25 232.75 L375.35 232.65 374.65 232.95 374.0 233.35 373.4 233.9 Q372.95 234.35 372.75 235.05 372.2 236.4 372.7 237.75 373.0 238.65 373.75 239.2 L374.45 239.55 376.1 239.65 377.3 242.65 M378.65 241.9 L377.4 239.1 M378.65 241.9 L379.65 241.8 380.45 241.9 380.8 242.0 381.2 242.1 381.2 242.2 Q382.0 242.55 382.5 243.45 382.9 244.2 382.9 245.0 L382.75 246.1 381.7 247.75 381.55 247.9 383.05 250.45 383.3 250.35 383.35 250.35 385.25 250.3 Q386.35 250.6 387.0 251.5 M396.35 265.4 L393.65 263.35 Q392.35 264.05 391.2 264.05 389.6 264.0 388.45 263.05 L388.1 262.7 Q387.35 261.9 387.4 260.85 L387.4 260.75 Q387.45 260.1 388.1 259.35 L385.4 256.65 383.3 256.85 Q381.9 256.5 381.1 255.4 L381.05 255.35 380.9 255.15 Q380.45 254.0 380.8 252.85 381.1 251.9 381.8 251.25 L380.2 248.55 380.0 248.6 Q379.2 248.8 378.3 248.6 376.95 248.25 376.3 247.05 375.65 245.8 376.1 244.45 376.4 243.4 377.15 242.75 L377.3 242.65" fill="none" stroke="#000000" stroke-linecap="round" stroke-linejoin="round" stroke-width="1.0"/>
  </g>
</svg>
