<?xml version="1.0" encoding="UTF-8" standalone="no"?>
<svg xmlns:xlink="http://www.w3.org/1999/xlink" height="57.2px" width="112.0px" xmlns="http://www.w3.org/2000/svg">
  <g transform="matrix(1.0, 0.0, 0.0, 1.0, -337.6, -221.55)">
    <path d="M446.25 245.5 Q451.3 237.2 447.4 234.85 443.55 232.4 442.3 233.05 441.15 233.75 440.15 234.4 439.8 233.05 439.0 231.85 435.75 230.4 432.65 231.45 L431.15 233.45 424.8 232.5 Q424.4 228.2 422.45 225.05 417.45 222.85 410.7 222.05 M431.7 246.35 Q435.75 243.4 440.4 241.25 M415.7 231.25 L412.85 233.4 411.35 234.4 411.15 234.5 Q408.1 236.45 405.45 237.25 400.85 238.7 395.6 237.5 392.6 236.8 389.1 234.85 L388.8 234.6 387.05 233.6 383.75 231.4 M346.45 268.95 L347.6 269.15 348.1 269.2 348.2 269.25 348.3 269.25 349.15 269.5 Q360.1 271.6 369.65 274.85 382.5 279.1 401.25 265.5 411.5 258.15 424.65 251.05 L425.0 250.85 425.1 250.85 Q427.7 250.65 429.85 248.65 431.05 247.6 431.7 246.35 M389.05 222.5 Q382.75 223.65 378.55 226.95 L377.1 230.65 377.05 230.8 Q361.55 232.65 348.6 238.25 344.25 248.15 345.2 259.75 343.7 260.55 342.25 261.6 340.05 263.3 338.15 265.55 337.9 268.55 339.2 272.05 340.45 275.2 343.0 278.25 M347.6 269.15 L348.2 269.25" fill="none" stroke="#333333" stroke-linecap="round" stroke-linejoin="round" stroke-width="1.0"/>
    <path d="M410.7 222.05 Q411.15 225.9 411.9 229.7 L415.7 231.25 M440.4 241.25 L445.15 243.15 446.25 245.5 M383.75 231.4 L387.9 229.7 389.05 222.5 M343.0 278.25 Q344.55 273.55 346.45 268.95" fill="none" stroke="#000000" stroke-linecap="round" stroke-linejoin="round" stroke-width="1.0"/>
    <path d="M440.15 234.4 L438.75 235.45 437.65 236.3 Q436.2 237.5 434.7 238.95 L432.45 241.2 Q432.85 242.4 432.55 244.0 L431.7 246.35 M440.4 241.25 Q443.05 239.95 445.95 238.95 L446.4 238.7 448.25 238.15 M415.7 231.25 L415.95 231.0 419.85 227.45 M424.8 232.5 L424.85 233.7 424.85 234.15 424.2 234.65 Q414.25 242.0 403.1 246.9 401.45 247.7 399.6 247.2 389.9 244.95 382.15 239.95 M383.75 231.4 L383.45 231.2 383.2 231.0 379.9 228.4 M372.95 244.15 Q384.45 258.05 399.6 252.15 409.05 248.5 420.1 247.05 420.0 246.15 420.2 245.1 420.75 242.5 422.95 240.5 425.15 238.5 427.7 238.3 L428.4 238.3 429.2 236.7 429.8 235.6 431.15 233.45 M422.55 244.75 Q422.95 242.95 424.4 241.6 425.95 240.2 427.7 240.05 429.45 239.8 430.35 240.9 431.05 241.7 431.05 242.8 L430.95 243.8 Q430.5 245.55 429.0 246.9 427.45 248.35 425.75 248.55 424.0 248.7 423.05 247.6 422.35 246.8 422.45 245.7 L422.55 244.75 M438.05 233.1 L436.45 234.75 438.75 235.45 M436.45 234.75 L435.05 236.25 433.3 238.35 432.0 240.05 431.95 240.15 432.45 241.2 M428.4 238.3 Q430.45 238.35 431.65 239.75 L431.95 240.15 M425.0 250.85 L424.55 250.9 Q422.35 250.85 421.15 249.4 L421.0 249.25 Q405.45 252.35 389.45 261.2 373.45 269.95 352.3 260.35 M421.0 249.25 Q420.25 248.35 420.1 247.05 M377.05 230.8 L376.35 233.35 376.2 233.9 M345.2 259.75 L346.15 259.3 M346.45 268.95 L342.3 268.15" fill="none" stroke="#333333" stroke-linecap="round" stroke-linejoin="round" stroke-opacity="0.5019608" stroke-width="1.0"/>
  </g>
</svg>
