<?xml version="1.0" encoding="UTF-8" standalone="no"?>
<svg xmlns:xlink="http://www.w3.org/1999/xlink" height="31.1px" width="141.0px" xmlns="http://www.w3.org/2000/svg">
  <g transform="matrix(1.0, 0.0, 0.0, 1.0, -329.35, -222.6)">
    <path d="M447.15 236.6 L442.75 236.6 439.85 238.6 Q431.55 244.05 422.75 248.85 428.85 249.7 435.0 248.75 443.55 245.2 450.75 239.4 L454.15 236.6 M441.2 234.5 L436.15 238.35 Q428.1 244.05 418.45 248.85 414.05 248.4 412.4 247.3 L409.7 247.85 408.75 247.95 M418.1 250.7 Q419.95 250.35 421.85 249.3 L422.75 248.85 M449.15 247.35 L448.8 248.2 Q448.45 248.55 447.95 248.55 447.45 248.55 447.05 248.2 446.7 247.85 446.7 247.35 446.7 246.9 447.05 246.5 447.45 246.15 447.95 246.15 448.45 246.15 448.8 246.5 L449.15 247.35 M466.15 237.9 L463.35 240.45 Q456.4 246.45 448.0 250.9 L437.85 250.15 434.5 252.0 M455.7 238.35 L457.65 238.25 455.7 238.35 453.95 239.7 Q446.7 245.3 437.85 250.15 M457.8 238.25 L457.65 238.25 M417.45 230.25 Q417.15 232.05 416.65 232.8 L415.35 234.95 415.05 235.55 Q413.35 238.8 412.4 242.2 L411.65 246.15 412.85 245.15 413.7 242.1 Q414.65 239.2 415.95 236.75 L416.0 236.7 416.6 235.55 418.5 232.1 M410.9 224.65 Q411.75 224.45 412.25 224.65 412.9 224.85 413.4 225.5 L412.6 225.9 Q411.9 226.3 411.4 227.05 L411.3 227.2 411.25 227.3 M388.45 227.3 L388.4 227.2 388.3 227.05 Q387.8 226.3 387.1 225.9 L386.3 225.5 Q386.8 224.85 387.45 224.65 387.95 224.45 388.8 224.65 M382.25 230.25 Q382.55 232.05 383.05 232.8 L384.35 234.95 384.65 235.55 Q386.35 238.8 387.3 242.2 L388.05 246.15 388.05 246.3 388.05 246.35 Q393.15 247.4 398.25 247.55 L400.05 247.6 401.45 247.55 411.65 246.35 411.65 246.3 411.65 246.15 M412.4 247.3 L412.4 247.15 Q418.8 242.5 424.65 237.4 L426.75 235.55 427.8 234.5 433.2 234.5 M426.05 234.2 L426.15 234.2 425.95 234.35 424.7 235.55 422.85 237.25 Q418.25 241.35 412.85 245.15 M417.5 245.9 Q417.5 245.4 417.9 245.05 418.25 244.7 418.75 244.7 419.25 244.7 419.55 245.05 L419.85 245.45 419.9 245.9 Q419.9 246.45 419.55 246.8 L418.75 247.1 Q418.25 247.1 417.9 246.8 L417.65 246.5 Q417.5 246.25 417.5 245.9 M435.25 245.15 Q435.6 245.55 435.6 246.05 435.6 246.55 435.25 246.9 434.9 247.2 434.4 247.2 433.9 247.2 433.55 246.9 433.2 246.55 433.2 246.05 433.2 245.55 433.55 245.15 433.9 244.8 434.4 244.8 434.9 244.8 435.25 245.15 M366.5 234.5 L371.9 234.5 372.95 235.55 375.05 237.4 Q380.9 242.5 387.3 247.15 L387.3 247.3 390.0 247.85 390.95 247.95 M388.05 246.15 L386.85 245.15 Q381.45 241.35 376.85 237.25 L375.0 235.55 373.75 234.35 373.55 234.2 373.65 234.2 M365.3 244.8 Q364.8 244.8 364.45 245.15 364.1 245.55 364.1 246.05 364.1 246.55 364.45 246.9 364.8 247.2 365.3 247.2 L366.15 246.9 Q366.5 246.55 366.5 246.05 L366.15 245.15 Q365.8 244.8 365.3 244.8 M381.2 232.1 L383.1 235.55 383.7 236.7 383.75 236.75 Q385.05 239.2 386.0 242.1 L386.85 245.15 M381.8 245.05 Q381.45 244.7 380.95 244.7 380.45 244.7 380.15 245.05 L379.85 245.45 379.8 245.9 Q379.8 246.45 380.15 246.8 L380.95 247.1 381.8 246.8 382.05 246.5 382.2 245.9 Q382.2 245.4 381.8 245.05 M401.95 240.4 L400.25 240.25 399.75 240.25 399.45 240.25 397.75 240.4 397.45 240.45 395.8 240.9 Q396.25 244.85 399.85 246.5 403.45 244.85 403.9 240.9 L402.25 240.45 401.95 240.4 M397.3 241.65 L397.55 241.65 397.75 241.6 399.5 241.35 399.75 241.35 400.2 241.35 401.95 241.6 402.15 241.65 402.4 241.65 Q401.75 244.0 399.85 245.15 397.95 244.0 397.3 241.65 M342.05 238.25 L344.0 238.35 342.05 238.25 341.9 238.25 M333.55 237.9 L336.35 240.45 Q343.3 246.45 351.7 250.9 L361.85 250.15 Q353.0 245.3 345.75 239.7 L344.0 238.35 M352.65 246.5 Q352.25 246.15 351.75 246.15 351.25 246.15 350.9 246.5 350.55 246.9 350.55 247.35 350.55 247.85 350.9 248.2 351.25 248.55 351.75 248.55 L352.65 248.2 353.0 247.35 352.65 246.5 M345.55 236.6 L348.95 239.4 Q356.15 245.2 364.7 248.75 370.85 249.7 376.95 248.85 368.15 244.05 359.85 238.6 L356.95 236.6 352.55 236.6 M358.5 234.5 L363.55 238.35 Q371.6 244.05 381.25 248.85 385.65 248.4 387.3 247.3 M376.95 248.85 L377.85 249.3 Q379.75 250.35 381.6 250.7 M361.85 250.15 L365.2 252.0" fill="none" stroke="#000000" stroke-linecap="round" stroke-linejoin="round" stroke-opacity="0.49803922" stroke-width="1.0"/>
    <path d="M454.15 236.6 L447.15 236.6 Q445.65 232.5 441.2 234.5 L433.2 234.5 Q431.0 231.3 426.15 234.15 L426.05 234.2 418.5 232.1 417.45 230.25 Q416.85 227.85 415.05 224.7 413.9 223.2 411.8 223.1 L410.7 223.2 410.9 224.65 411.25 227.3 Q409.7 229.75 409.8 235.2 L409.55 235.55 Q407.6 238.05 404.45 239.8 402.25 239.0 399.85 239.0 397.45 239.0 395.25 239.8 392.1 238.05 390.15 235.55 L389.9 235.2 Q390.0 229.75 388.45 227.3 M408.75 247.95 Q411.9 249.55 416.45 250.8 L418.1 250.7 M434.5 252.0 L448.55 253.2 457.4 246.85 Q461.25 243.65 465.5 240.75 467.1 239.65 468.8 238.65 470.15 238.05 469.8 237.35 468.9 236.6 466.15 237.9 L457.8 238.25 Q459.3 234.3 454.15 236.6 M434.5 252.0 L418.1 250.7 M388.8 224.65 L389.0 223.2 387.9 223.1 Q385.8 223.2 384.65 224.7 382.85 227.85 382.25 230.25 M408.75 247.95 L404.85 248.4 401.45 248.5 400.45 248.5 399.85 248.45 399.25 248.5 398.25 248.5 394.85 248.4 390.95 247.95 Q387.8 249.55 383.25 250.8 L381.6 250.7 365.2 252.0 351.15 253.2 342.3 246.85 Q338.45 243.65 334.2 240.75 L330.9 238.65 Q329.55 238.05 329.9 237.35 330.8 236.6 333.55 237.9 L341.9 238.25 Q340.4 234.3 345.55 236.6 L352.55 236.6 Q354.05 232.5 358.5 234.5 L366.5 234.5 Q368.7 231.3 373.55 234.15 L373.65 234.2 381.2 232.1 382.25 230.25 M388.8 224.65 L388.45 227.3" fill="none" stroke="#000000" stroke-linecap="round" stroke-linejoin="round" stroke-width="1.0"/>
  </g>
</svg>
