<?xml version="1.0" encoding="UTF-8" standalone="no"?>
<svg xmlns:xlink="http://www.w3.org/1999/xlink" height="204.05px" width="552.8px" xmlns="http://www.w3.org/2000/svg">
  <g transform="matrix(1.0, 0.0, 0.0, 1.0, -142.65, -299.15)">
    <path d="M343.75 352.7 Q365.15 371.95 415.95 390.25 L695.45 503.2 408.75 410.0 Q357.85 391.35 329.1 392.3 L329.05 391.95 Q328.7 386.2 332.35 374.7 L332.55 374.25 332.65 373.8 333.5 371.45 334.35 369.05 334.55 368.7 334.7 368.3 Q339.45 356.7 343.55 352.55 L343.75 352.7 M157.85 299.15 L243.75 323.75 249.65 336.95 Q248.6 337.55 247.5 340.15 246.65 342.9 247.05 344.0 L234.1 350.3 152.45 313.9 152.5 313.8 143.9 306.35 Q141.95 304.3 143.0 302.1 143.7 299.8 146.5 299.4 L157.85 299.15" fill="#ffffff" fill-rule="evenodd" stroke="none"/>
  </g>
</svg>
