<?xml version="1.0" encoding="UTF-8" standalone="no"?>
<svg xmlns:xlink="http://www.w3.org/1999/xlink" height="26.9px" width="36.1px" xmlns="http://www.w3.org/2000/svg">
  <g transform="matrix(1.0, 0.0, 0.0, 1.0, -381.8, -195.05)">
    <path d="M381.85 195.5 L381.8 195.05 382.8 195.05 Q382.4 200.75 387.5 204.9 387.85 211.65 392.85 215.15 395.6 217.85 397.45 215.4 L402.35 215.4 Q404.2 217.85 406.95 215.15 411.95 211.65 412.3 204.9 417.4 200.75 417.0 195.05 L417.9 195.05 417.85 195.5 417.4 198.3 417.1 199.7 416.95 200.35 416.95 200.4 414.05 210.95 410.15 214.75 Q406.65 218.05 401.85 221.45 L399.85 221.95 397.85 221.45 Q393.05 218.05 389.55 214.75 L385.65 210.95 382.75 200.4 382.75 200.35 382.6 199.7 382.3 198.3 381.85 195.5" fill="#000000" fill-rule="evenodd" stroke="none"/>
  </g>
</svg>
