<?xml version="1.0" encoding="UTF-8" standalone="no"?>
<svg xmlns:xlink="http://www.w3.org/1999/xlink" height="65.0px" width="38.0px" xmlns="http://www.w3.org/2000/svg">
  <g transform="matrix(1.0, 0.0, 0.0, 1.0, -380.9, -195.05)">
    <path d="M381.35 195.05 L382.8 195.05 Q382.4 200.75 387.5 204.85 387.85 211.6 392.85 215.1 395.6 217.8 397.45 215.35 L402.35 215.35 Q404.2 217.8 406.95 215.1 411.95 211.6 412.3 204.85 417.4 200.75 417.0 195.05 L418.45 195.05 418.45 195.6 418.05 202.8 Q419.3 208.55 418.7 215.95 L416.9 213.4 Q419.15 223.65 416.3 233.55 L414.55 231.45 Q414.0 238.35 410.8 245.0 L409.05 243.05 Q407.2 251.9 399.9 260.05 392.6 251.9 390.75 243.05 L389.0 245.0 Q385.8 238.35 385.25 231.45 L383.5 233.55 Q380.65 223.65 382.9 213.4 L381.1 215.95 Q380.5 209.0 381.65 203.5 L381.8 202.8 381.4 195.5 381.35 195.05" fill="#000000" fill-rule="evenodd" stroke="none"/>
  </g>
</svg>
