<?xml version="1.0" encoding="UTF-8" standalone="no"?>
<svg xmlns:xlink="http://www.w3.org/1999/xlink" height="134.55px" width="126.7px" xmlns="http://www.w3.org/2000/svg">
  <g transform="matrix(1.0, 0.0, 0.0, 1.0, -336.55, -193.65)">
    <path d="M415.0 202.5 L416.35 215.1 450.3 229.75 Q473.6 239.55 454.95 274.25 452.95 278.0 450.0 280.65 443.75 287.5 433.8 292.65 L428.85 305.1 427.65 318.7 429.35 323.4 Q419.1 328.3 399.8 328.2 380.5 328.3 370.5 323.45 L372.15 318.7 370.95 305.1 366.0 292.65 Q356.05 287.5 349.8 280.65 346.85 278.0 344.85 274.25 326.2 239.55 349.5 229.75 L383.45 215.1 384.8 202.5 Q387.9 193.65 399.9 193.65 411.9 193.65 415.0 202.5" fill="#000000" fill-rule="evenodd" stroke="none"/>
  </g>
</svg>
