<?xml version="1.0" encoding="UTF-8" standalone="no"?>
<svg xmlns:xlink="http://www.w3.org/1999/xlink" height="98.75px" width="101.2px" xmlns="http://www.w3.org/2000/svg">
  <g transform="matrix(1.0, 0.0, 0.0, 1.0, -349.2, -217.2)">
    <path d="M430.1 221.05 L422.35 217.75 M447.7 228.65 L437.35 224.2 M433.5 293.15 L430.15 301.6 M442.9 286.95 Q446.85 284.0 449.9 280.65 M369.8 220.95 L377.35 217.7 M362.4 224.15 L352.1 228.6 M349.7 280.65 Q352.55 283.8 356.2 286.55 M369.3 301.2 L365.9 292.65 M371.75 315.05 L371.2 309.05 M428.35 309.55 L427.85 315.45" fill="none" stroke="#000000" stroke-linecap="round" stroke-linejoin="round" stroke-width="1.0"/>
    <path d="M422.35 217.75 Q422.3 224.85 421.65 231.6 L421.4 234.5 425.45 234.2 425.85 233.35 Q428.6 227.5 430.1 221.05 M425.45 234.2 Q422.9 239.4 420.35 241.85 L421.4 234.5 M437.35 224.2 Q437.3 226.3 436.3 233.4 L442.15 232.95 M436.3 233.4 L436.2 234.05 Q435.1 241.75 431.65 253.45 437.85 246.25 442.1 239.75 446.35 233.2 447.7 228.65 M416.15 296.7 L411.45 297.25 418.9 299.5 419.75 296.15 416.15 296.7 M419.75 296.15 L433.5 293.15 M430.15 301.6 Q424.0 300.75 418.9 299.5 M449.9 280.65 L448.55 277.95 447.25 275.1 430.8 278.75 Q429.2 282.65 425.0 285.6 L442.9 286.95 M425.0 285.6 L420.35 284.7 Q415.75 283.55 411.1 281.8 L427.85 279.3 430.8 278.75 M377.35 217.7 Q377.4 224.45 378.05 231.2 L378.4 234.55 Q378.75 238.0 379.35 241.45 376.95 239.1 374.5 234.25 L373.85 232.95 Q371.1 227.15 369.8 220.95 M378.4 234.55 L374.5 234.25 M357.45 232.95 L363.5 233.4 Q362.4 225.85 362.4 224.15 M352.1 228.6 Q353.35 232.8 357.6 239.35 361.85 245.85 368.05 253.05 364.6 241.35 363.5 233.65 L363.5 233.4 M356.2 286.55 L374.2 285.3 Q370.1 282.3 368.65 278.3 360.55 276.75 352.55 274.7 L351.25 277.55 349.7 280.65 M365.9 292.65 Q373.25 294.6 379.75 295.75 L383.55 296.3 388.25 296.85 Q384.8 298.15 380.65 299.15 L369.3 301.2 M374.2 285.3 L379.35 284.3 Q383.95 283.15 388.6 281.4 L371.85 278.9 368.65 278.3 M371.2 309.05 Q376.9 311.55 383.05 312.3 L385.95 312.55 387.65 312.6 386.0 313.05 383.25 313.8 Q377.4 315.15 371.75 315.05 M383.25 313.8 L383.05 312.3 M427.85 315.45 Q422.2 315.5 416.35 314.15 L413.7 313.45 412.05 313.0 413.75 312.95 416.5 312.75 Q422.65 312.0 428.35 309.55 M416.35 314.15 L416.5 312.75 M380.65 299.15 L379.75 295.75" fill="none" stroke="#000000" stroke-linecap="round" stroke-linejoin="round" stroke-opacity="0.5019608" stroke-width="1.0"/>
  </g>
</svg>
