<?xml version="1.0" encoding="UTF-8" standalone="no"?>
<svg xmlns:xlink="http://www.w3.org/1999/xlink" height="67.05px" width="23.55px" xmlns="http://www.w3.org/2000/svg">
  <g transform="matrix(1.0, 0.0, 0.0, 1.0, -388.15, -186.3)">
    <path d="M410.7 251.3 L411.2 251.95 411.45 253.35 388.45 253.35 Q388.45 252.4 388.6 251.95 L389.1 251.2 389.4 250.95 410.4 250.95 410.7 251.3 M409.4 240.25 Q411.5 243.4 411.7 245.95 411.85 248.55 410.25 250.65 L389.55 250.65 Q388.8 249.65 388.45 248.35 388.05 247.0 388.15 245.6 388.25 244.3 389.1 242.75 L390.65 240.25 409.4 240.25 M409.7 238.1 L410.2 238.8 410.0 239.6 409.5 239.9 390.75 239.9 390.25 239.6 Q389.9 239.25 390.05 238.8 390.1 238.35 390.55 238.1 L391.15 237.9 409.1 237.9 409.7 238.1 M405.65 230.2 L408.9 237.65 391.3 237.65 394.35 230.2 Q395.7 225.85 396.15 219.25 L403.7 219.25 Q404.1 225.75 405.65 230.2 M395.65 197.0 L395.65 196.1 395.9 195.4 Q396.25 195.1 396.6 195.1 L403.25 195.1 Q403.65 195.1 403.9 195.4 L404.2 196.1 404.2 197.0 406.15 197.0 Q407.6 197.0 408.6 198.05 409.6 199.0 409.6 200.5 409.6 201.6 408.85 202.9 L404.55 209.2 404.85 215.35 405.9 215.35 Q406.15 215.35 406.65 215.8 407.2 216.35 407.35 217.2 407.4 217.95 406.8 218.45 L406.15 218.9 393.65 218.9 393.0 218.4 Q392.4 217.8 392.45 217.15 392.5 216.3 393.15 215.8 393.65 215.35 393.9 215.35 L394.95 215.35 395.3 209.35 391.05 202.9 Q390.25 201.6 390.25 200.5 390.25 199.0 391.2 198.05 392.25 197.0 393.7 197.0 L395.65 197.0 M403.25 188.7 L403.55 188.3 Q404.1 189.15 404.15 190.05 L404.15 190.45 Q404.15 191.6 403.65 192.6 L403.2 192.15 401.9 191.2 Q401.15 190.95 400.85 191.2 400.6 191.55 400.85 192.25 401.05 192.95 401.75 193.6 L402.15 194.1 Q401.25 194.65 400.05 194.65 398.95 194.65 398.0 194.0 L398.35 193.6 399.35 192.25 Q399.6 191.55 399.3 191.2 398.95 190.95 398.3 191.2 397.6 191.5 396.95 192.15 L396.55 192.6 Q396.05 191.6 396.05 190.45 L396.05 190.05 Q396.1 189.15 396.6 188.3 L397.0 188.75 398.35 189.65 Q399.0 189.9 399.35 189.65 399.65 189.35 399.4 188.6 L398.5 187.25 398.05 186.85 Q399.0 186.3 400.05 186.3 401.15 186.3 402.15 186.85 L401.75 187.2 400.85 188.55 Q400.6 189.25 400.9 189.6 L401.9 189.65 Q402.6 189.4 403.25 188.7" fill="#000000" fill-rule="evenodd" stroke="none"/>
  </g>
</svg>
