<?xml version="1.0" encoding="UTF-8" standalone="no"?>
<svg xmlns:xlink="http://www.w3.org/1999/xlink" height="33.3px" width="54.2px" xmlns="http://www.w3.org/2000/svg">
  <g transform="matrix(1.0, 0.0, 0.0, 1.0, -370.75, -202.9)">
    <path d="M389.15 205.7 Q393.65 205.7 396.7 208.75 398.65 210.7 399.4 213.2 395.3 213.85 391.1 215.05 L388.6 215.7 Q383.9 217.0 378.8 218.9 378.5 217.65 378.5 216.3 378.5 213.3 380.05 210.85 L383.4 212.75 384.35 211.15 381.1 209.5 381.6 208.75 Q384.8 205.7 389.15 205.7 M424.95 235.3 L420.15 235.3 422.2 231.05 424.95 235.3 M420.9 218.95 L420.75 219.45 Q420.55 220.4 419.95 221.3 418.15 225.4 414.5 228.0 L412.8 229.3 Q409.75 231.05 405.8 232.15 402.15 233.45 399.85 236.2 397.6 233.45 393.95 232.15 386.35 230.1 382.4 225.4 390.3 222.75 398.45 221.25 L401.25 220.75 Q411.0 218.95 420.9 218.95 M410.55 205.7 Q414.9 205.7 418.15 208.75 419.5 210.2 420.25 211.9 410.9 211.15 400.4 213.0 401.15 210.65 403.05 208.75 406.1 205.7 410.55 205.7 M377.7 208.5 L372.65 208.5 370.75 207.15 374.45 206.75 372.65 202.9 375.45 204.35 377.7 208.5" fill="#000000" fill-rule="evenodd" stroke="none"/>
  </g>
</svg>
