<?xml version="1.0" encoding="UTF-8" standalone="no"?>
<svg xmlns:xlink="http://www.w3.org/1999/xlink" height="35.65px" width="26.9px" xmlns="http://www.w3.org/2000/svg">
  <g transform="matrix(1.0, 0.0, 0.0, 1.0, -386.6, -204.4)">
    <path d="M409.35 213.85 L409.75 213.6 409.9 213.85 Q410.85 216.5 413.0 217.55 L413.5 217.75 413.0 218.0 Q410.85 218.95 409.9 221.7 L409.75 222.2 409.35 221.95 Q407.85 219.95 402.15 219.9 L402.0 219.9 402.0 228.35 402.0 228.7 Q402.4 234.45 403.95 236.15 L404.15 236.4 403.9 236.65 Q401.3 237.65 400.2 239.7 L399.85 240.05 399.6 239.5 Q398.55 237.65 396.05 236.65 L395.75 236.4 395.9 236.15 Q397.55 234.55 398.2 228.7 L398.2 228.35 398.2 219.9 397.8 219.9 Q392.05 219.95 390.45 221.95 L390.2 222.2 390.05 221.7 Q389.1 218.95 387.0 218.0 L386.6 217.75 387.0 217.55 Q389.1 216.5 390.05 213.85 L390.2 213.6 390.45 213.85 Q392.05 215.45 397.8 215.85 L398.2 215.85 398.2 215.6 Q397.6 210.0 396.05 208.4 L395.75 208.05 396.05 207.9 Q398.55 206.8 399.6 204.8 L399.85 204.4 400.2 204.8 Q401.3 206.8 403.9 207.9 L404.15 208.05 403.95 208.4 Q402.25 210.0 402.0 215.6 L402.0 215.85 402.15 215.85 Q407.85 215.45 409.35 213.85" fill="#000000" fill-rule="evenodd" stroke="none"/>
  </g>
</svg>
