<?xml version="1.0" encoding="UTF-8" standalone="no"?>
<svg xmlns:xlink="http://www.w3.org/1999/xlink" height="46.55px" width="41.65px" xmlns="http://www.w3.org/2000/svg">
  <g transform="matrix(1.0, 0.0, 0.0, 1.0, -378.95, -201.9)">
    <path d="M407.6 211.75 L410.25 211.3 Q417.5 210.4 419.45 213.75 421.45 217.3 417.1 223.2 L415.45 225.2 417.15 227.3 Q421.45 233.1 419.45 236.6 417.5 239.95 410.35 239.1 L407.6 238.75 406.65 241.35 Q403.75 247.95 399.75 247.95 395.75 247.95 392.9 241.35 L392.0 238.8 389.2 239.25 Q382.05 240.1 380.05 236.6 378.1 233.2 382.4 227.4 L384.2 225.2 382.45 223.05 Q378.1 217.15 380.05 213.75 382.05 210.25 389.25 211.15 L392.0 211.65 392.9 209.1 Q395.75 202.4 399.75 202.4 403.75 202.4 406.65 209.1 L407.6 211.75 Q408.75 215.35 409.25 219.7 412.8 222.35 415.45 225.2 412.8 228.05 409.25 230.75 408.75 235.05 407.6 238.75 403.85 237.95 399.85 236.15 395.75 237.95 392.0 238.8 390.75 235.1 390.3 230.65 386.8 228.05 384.2 225.2 386.8 222.35 390.3 219.75 390.75 215.35 392.0 211.65 395.75 212.4 399.85 214.3 403.85 212.45 407.6 211.75 M404.6 216.7 Q402.2 215.35 399.85 214.3 397.45 215.35 394.95 216.75 L390.3 219.75 Q390.05 222.4 390.05 225.2 390.05 228.05 390.3 230.65 L394.95 233.6 Q397.45 235.05 399.85 236.15 402.2 235.1 404.6 233.65 L409.25 230.75 409.5 225.2 409.25 219.7 Q407.1 218.15 404.6 216.7 M405.4 225.2 Q405.4 227.55 403.75 229.25 402.1 230.95 399.75 230.95 397.4 230.95 395.7 229.25 394.0 227.55 394.0 225.2 394.0 222.85 395.7 221.2 397.4 219.5 399.75 219.5 402.1 219.5 403.75 221.2 405.4 222.85 405.4 225.2" fill="none" stroke="#000000" stroke-linecap="round" stroke-linejoin="round" stroke-opacity="0.5019608" stroke-width="1.0"/>
  </g>
</svg>
