<?xml version="1.0" encoding="UTF-8" standalone="no"?>
<svg xmlns:xlink="http://www.w3.org/1999/xlink" height="62.55px" width="48.4px" xmlns="http://www.w3.org/2000/svg">
  <g transform="matrix(1.0, 0.0, 0.0, 1.0, -376.25, -198.65)">
    <path d="M421.7 204.2 L421.55 204.0 420.15 203.95 420.6 204.65 Q420.8 205.4 419.7 206.45 420.6 206.95 421.05 206.8 421.85 207.25 421.9 207.75 L421.95 208.4 421.7 208.7 420.45 208.1 419.7 209.1 418.5 209.35 Q418.25 209.1 418.05 209.1 L418.0 209.4 418.45 209.75 418.8 211.1 Q419.1 211.35 419.45 210.85 L419.75 210.25 420.0 210.35 420.1 210.9 Q420.1 211.55 419.5 212.2 L418.45 213.4 417.65 213.2 416.95 212.75 416.1 212.8 Q415.2 213.85 415.2 215.05 414.8 215.25 414.8 216.1 414.8 216.95 414.6 217.2 L414.05 216.85 411.75 218.9 Q411.55 219.8 412.35 220.35 L413.75 221.4 Q418.45 223.15 420.45 223.0 L421.85 222.7 Q422.6 223.2 423.4 223.25 L424.15 224.1 423.85 224.8 423.4 225.45 423.15 224.9 Q422.8 224.55 422.95 224.35 L422.15 224.95 420.25 224.8 421.25 225.35 421.85 225.55 422.55 225.65 Q423.5 227.05 423.45 227.6 423.2 228.8 422.7 229.0 L422.15 229.0 422.3 228.45 420.0 228.0 Q419.25 228.0 419.25 229.05 419.35 230.0 418.85 230.2 418.25 229.7 418.15 229.25 L416.5 227.25 415.15 228.15 Q415.25 229.05 415.55 229.3 L415.05 229.45 414.55 229.0 414.05 228.4 413.4 227.6 412.75 226.85 412.3 226.7 411.7 227.05 411.1 227.35 Q410.85 227.4 410.25 226.95 L410.45 226.7 410.85 226.6 409.8 226.4 406.3 226.05 Q405.4 226.85 403.65 229.3 402.15 231.25 400.65 231.85 L398.85 232.7 Q397.7 232.95 397.2 233.8 L396.95 234.65 397.4 234.95 399.6 233.65 Q400.8 232.8 401.8 232.7 403.3 231.95 405.45 232.75 406.5 233.0 407.75 234.05 L409.8 235.95 Q410.45 235.95 410.85 237.05 411.35 237.55 411.45 238.2 L411.9 239.4 Q413.2 239.1 414.05 238.6 L414.4 238.65 Q414.8 238.65 414.8 237.8 415.9 236.85 416.9 236.5 L417.75 236.45 Q418.15 236.25 418.45 236.6 L417.75 237.05 420.15 238.3 420.4 239.0 420.65 239.5 420.55 239.9 Q419.35 239.25 418.45 239.65 L418.3 240.1 418.0 240.35 417.65 240.75 417.15 241.0 417.4 241.15 417.85 241.7 Q418.25 242.0 418.15 242.3 419.15 243.2 418.8 244.5 418.3 243.5 415.2 243.5 414.4 243.85 414.6 244.45 415.4 244.95 416.0 244.85 L415.2 245.7 414.4 245.9 Q413.85 245.9 413.2 245.35 L411.9 244.45 Q412.1 244.7 411.7 244.95 411.45 245.3 411.5 245.55 L410.55 246.35 410.25 246.4 Q410.0 246.4 410.0 245.95 L409.7 245.35 407.8 245.6 407.1 245.6 Q406.5 245.6 406.35 245.3 L406.95 244.9 406.7 243.65 406.05 242.85 405.65 242.7 404.85 242.95 404.15 243.2 403.55 243.1 403.95 242.45 403.65 241.85 Q403.5 241.55 403.1 241.7 L401.8 242.05 Q401.35 241.7 401.15 241.8 L400.3 241.6 Q399.85 241.45 399.65 241.85 L398.65 244.9 Q397.9 247.0 398.1 248.15 397.85 248.35 397.85 248.85 L397.6 249.45 Q395.45 251.55 394.1 252.2 393.75 252.4 393.95 253.9 L394.4 254.55 395.95 253.95 397.2 254.05 397.65 254.45 397.05 254.55 Q396.55 254.55 396.4 254.85 L396.8 255.05 397.55 254.8 398.45 254.7 399.3 255.35 Q398.95 255.35 398.85 255.95 L398.5 256.75 Q398.35 257.05 398.9 257.45 399.2 258.35 398.85 258.6 L397.4 258.55 397.65 258.3 397.6 257.6 397.15 258.05 396.55 258.5 396.3 258.45 Q395.75 258.55 395.5 257.95 395.25 257.3 394.85 257.3 394.65 259.15 394.75 259.85 L394.35 260.7 393.8 260.7 Q393.9 260.05 393.0 258.9 392.05 257.95 392.05 257.4 391.7 257.6 391.7 258.45 391.7 259.25 391.35 259.45 390.55 258.15 390.5 257.6 L390.05 257.7 Q389.45 257.4 389.45 256.1 388.9 255.2 388.35 255.35 L387.25 253.6 Q386.75 252.7 385.65 252.3 385.85 252.2 385.55 251.95 385.3 251.6 385.5 251.4 L386.85 251.75 Q389.1 250.45 389.25 249.4 L389.25 247.55 389.35 247.05 389.0 245.9 Q388.6 244.9 388.8 244.4 L388.3 243.8 387.65 243.2 386.8 243.95 385.65 244.3 Q384.9 244.8 383.55 244.8 381.8 244.8 380.5 243.8 L379.45 243.0 Q378.8 242.65 378.75 242.05 377.55 241.0 377.3 239.4 376.75 238.35 376.75 236.35 L376.75 233.0 378.15 227.05 379.9 223.5 Q380.5 223.05 380.5 221.95 L380.3 220.35 Q379.9 219.55 379.9 218.2 L380.15 217.65 Q380.35 216.85 381.85 216.95 383.95 218.25 383.4 221.55 L382.65 224.1 380.55 228.85 Q379.5 232.7 379.45 234.5 L380.7 239.5 381.95 240.7 382.6 241.05 385.05 241.15 Q385.7 241.15 386.1 240.5 L386.85 239.4 Q387.7 237.55 388.25 234.75 L389.15 232.55 Q389.55 230.95 390.1 230.3 L393.0 221.5 392.8 220.75 Q392.8 220.15 392.5 219.95 L392.4 217.2 Q392.45 216.35 391.8 215.2 L390.9 213.2 Q389.25 210.7 388.9 209.5 388.35 209.15 388.35 207.85 L388.35 206.05 388.6 205.7 Q387.85 202.6 387.65 200.75 L387.95 200.45 388.25 200.05 Q388.95 199.85 389.85 200.5 L390.5 200.45 Q390.1 200.05 390.45 199.2 391.15 198.95 392.05 199.75 392.9 200.6 393.45 200.6 L394.2 200.2 395.25 200.6 Q395.9 200.65 396.3 201.15 L396.8 200.95 Q397.4 200.7 398.2 200.95 L399.5 201.35 400.5 202.65 Q401.05 203.25 401.05 203.95 L400.95 204.55 Q400.0 205.6 398.95 205.9 L400.5 206.1 Q401.1 205.95 401.55 205.3 L402.35 204.55 Q402.75 205.2 402.65 206.55 402.4 207.35 401.5 207.75 L399.75 208.5 Q400.4 209.15 400.7 208.95 401.35 209.05 401.6 209.6 L402.2 210.65 403.4 211.1 405.6 211.1 405.9 210.9 Q406.3 210.9 406.3 211.05 L405.9 211.45 Q405.45 211.75 405.6 211.95 L408.0 212.3 407.95 212.85 Q407.75 213.3 407.95 213.5 L408.45 213.5 408.95 213.45 412.1 210.45 414.6 207.2 Q415.0 206.95 415.0 206.5 L414.8 205.5 414.8 204.5 415.45 203.25 Q415.7 202.55 416.25 202.2 416.55 202.35 416.75 202.0 L417.4 202.0 Q417.85 202.0 418.05 202.4 L417.6 202.85 Q417.3 202.9 417.15 203.2 L417.65 203.95 418.8 202.85 419.3 202.6 420.1 202.4 Q421.75 203.55 421.9 204.1 L421.7 204.2 M394.65 203.2 L394.3 203.0 393.95 203.05 Q394.0 203.5 395.65 203.35 L395.7 202.85 Q395.45 202.85 395.4 203.05 L395.2 203.25 394.65 203.2" fill="none" stroke="#000000" stroke-linecap="round" stroke-linejoin="round" stroke-opacity="0.5019608" stroke-width="1.0"/>
  </g>
</svg>
