<?xml version="1.0" encoding="UTF-8" standalone="no"?>
<svg xmlns:xlink="http://www.w3.org/1999/xlink" height="47.85px" width="47.8px" xmlns="http://www.w3.org/2000/svg">
  <g transform="matrix(1.0, 0.0, 0.0, 1.0, -375.8, -200.85)">
    <path d="M390.5 215.4 L390.4 215.45 Q388.45 217.4 387.5 219.8 L382.9 207.8 394.6 212.6 Q392.4 213.6 390.5 215.4 M411.95 229.75 Q412.85 227.5 412.85 224.8 L412.85 224.75 Q412.85 222.1 411.9 219.75 L423.6 224.75 412.0 229.75 411.95 229.75 416.75 241.65 405.0 237.0 404.95 237.0 399.85 248.7 394.95 237.1 Q397.15 237.95 399.65 237.95 L399.85 237.95 Q402.6 237.9 404.95 236.9 407.15 235.95 408.95 234.1 L409.1 234.0 Q411.0 232.05 411.95 229.75 M409.1 215.6 L408.95 215.45 Q407.1 213.6 404.8 212.6 L416.7 207.9 411.95 219.7 411.9 219.75 Q410.9 217.5 409.1 215.6 M404.8 212.6 Q402.55 211.7 399.85 211.65 L399.65 211.65 397.35 211.8 394.6 212.6 399.85 200.85 404.8 212.6 M386.55 224.75 L386.55 224.8 Q386.55 227.6 387.6 230.0 L375.8 224.75 387.5 219.9 Q386.55 222.1 386.55 224.75 M387.6 230.1 Q388.55 232.3 390.4 234.1 L390.45 234.2 Q392.5 236.15 394.95 237.1 L394.85 237.15 382.9 241.8 387.6 230.1" fill="#000000" fill-rule="evenodd" stroke="none"/>
  </g>
</svg>
