<?xml version="1.0" encoding="UTF-8" standalone="no"?>
<svg xmlns:xlink="http://www.w3.org/1999/xlink" height="12.2px" width="12.55px" xmlns="http://www.w3.org/2000/svg">
  <g transform="matrix(1.0, 0.0, 0.0, 1.0, -393.55, -219.7)">
    <path d="M404.3 221.5 L405.25 222.7 Q406.05 224.05 406.1 225.65 L406.1 225.8 406.1 225.95 Q406.05 227.6 405.25 228.9 L404.3 230.15 403.05 231.15 402.8 231.25 Q401.55 231.9 400.0 231.9 L399.8 231.9 399.65 231.9 Q398.1 231.9 396.8 231.25 L396.6 231.15 Q395.9 230.75 395.3 230.15 L394.4 228.9 Q393.55 227.6 393.55 225.95 L393.55 225.8 393.55 225.65 Q393.65 224.0 394.4 222.7 L395.3 221.5 Q395.9 220.9 396.6 220.55 L396.8 220.4 Q398.1 219.7 399.65 219.7 L399.8 219.7 400.0 219.7 Q401.55 219.7 402.8 220.4 L403.05 220.55 404.3 221.5" fill="#000000" fill-rule="evenodd" stroke="none"/>
  </g>
</svg>
