<?xml version="1.0" encoding="UTF-8" standalone="no"?>
<svg xmlns:xlink="http://www.w3.org/1999/xlink" height="39.2px" width="12.45px" xmlns="http://www.w3.org/2000/svg">
  <g transform="matrix(1.0, 0.0, 0.0, 1.0, -393.65, -215.65)">
    <path d="M398.5 215.65 L401.25 215.65 404.05 217.4 404.05 220.65 401.35 222.7 399.85 222.05 398.35 222.7 395.7 220.65 395.7 217.4 398.5 215.65 M399.85 224.0 L403.1 225.35 403.1 229.95 399.85 231.65 396.6 229.95 396.6 225.35 399.85 224.0 M399.85 233.25 Q400.7 232.8 401.6 232.45 401.75 232.3 401.9 232.3 L401.95 232.25 402.2 232.1 402.2 236.05 399.85 237.35 397.55 236.05 397.55 232.1 399.85 233.25 M404.8 249.35 Q403.05 252.65 399.85 254.85 396.7 252.65 394.95 249.35 L393.65 241.15 398.1 237.95 399.85 239.0 401.6 237.95 406.1 241.15 404.8 249.35" fill="#000000" fill-rule="evenodd" stroke="none"/>
  </g>
</svg>
