<?xml version="1.0" encoding="UTF-8" standalone="no"?>
<svg xmlns:xlink="http://www.w3.org/1999/xlink" height="61.5px" width="48.2px" xmlns="http://www.w3.org/2000/svg">
  <g transform="matrix(1.0, 0.0, 0.0, 1.0, -372.15, -199.2)">
    <path d="M413.2 210.05 Q412.35 210.7 412.35 212.55 412.35 214.95 412.15 215.25 L412.0 216.1 Q411.55 216.35 411.55 216.7 L411.85 217.4 412.0 218.45 411.85 218.8 Q411.7 219.05 411.95 219.05 L412.1 218.9 Q413.6 218.7 415.05 220.55 L417.5 223.15 418.05 223.8 Q418.2 224.15 418.7 224.5 L419.45 225.3 419.6 225.75 Q419.8 226.05 419.55 226.1 419.35 227.35 420.1 228.35 420.55 228.85 420.15 229.45 L418.2 232.25 417.35 231.0 Q416.2 229.3 416.85 227.3 416.3 227.15 416.1 226.7 L415.8 225.75 415.0 224.35 414.7 224.0 Q414.4 223.6 414.1 223.6 413.85 223.2 413.05 223.2 L411.75 223.2 Q410.7 223.2 410.4 224.25 L409.75 226.25 408.9 228.0 Q406.25 231.7 405.35 232.3 L407.45 232.25 Q408.85 231.7 409.25 231.4 412.5 233.35 412.15 237.95 411.1 242.0 409.7 243.4 L409.75 243.55 Q411.9 242.75 414.1 242.75 L415.45 242.5 Q416.05 242.1 416.85 242.85 417.2 242.75 417.5 243.0 L418.05 243.6 Q419.35 243.95 419.55 245.3 L420.0 247.75 Q418.65 248.1 417.5 247.75 416.05 247.5 414.7 246.4 L414.35 247.3 Q413.3 247.65 412.55 247.0 L410.85 246.75 405.2 246.25 405.05 246.4 Q404.05 246.6 403.65 245.7 L403.3 244.85 403.0 243.8 405.2 242.1 Q405.35 240.95 404.15 240.1 403.9 239.5 402.85 239.2 L401.55 238.6 Q401.25 242.5 400.5 244.05 399.8 245.45 397.9 245.75 L394.6 245.95 393.75 246.35 Q392.85 246.9 393.05 247.5 392.65 249.05 392.8 250.15 393.75 253.4 394.2 254.0 L394.45 254.7 394.75 255.45 394.55 255.9 395.4 257.25 Q395.95 258.15 395.9 258.9 L396.3 259.8 396.7 260.65 393.7 260.5 Q390.9 259.55 390.75 257.3 390.9 256.8 390.4 256.75 L389.85 256.55 389.6 253.95 389.45 251.35 389.35 250.15 Q389.2 249.2 388.9 248.95 389.1 248.1 388.35 247.0 L387.6 245.3 388.1 244.4 Q388.5 243.55 388.75 243.55 L389.45 243.8 390.3 243.95 391.4 242.55 391.35 238.2 Q391.3 237.55 391.1 237.55 L389.9 238.0 389.6 237.95 Q387.85 237.25 387.4 235.75 L387.4 230.2 Q387.4 226.75 385.7 225.35 385.2 225.35 385.05 225.15 384.45 225.1 383.4 225.65 382.1 226.4 381.65 226.9 L380.55 229.2 380.5 231.0 380.5 232.95 Q380.7 234.0 381.15 234.65 L381.45 236.25 381.8 238.0 Q382.65 239.85 382.4 243.4 382.4 244.05 381.3 245.25 381.65 241.8 379.6 239.4 L376.35 235.95 Q374.85 234.2 374.65 232.3 373.65 230.3 374.05 226.95 L374.3 226.05 Q374.6 225.0 375.5 223.4 L373.3 223.05 372.65 222.4 Q372.05 222.05 372.2 221.5 L373.1 222.1 Q374.5 222.2 375.1 221.45 L376.0 220.9 376.75 220.0 378.3 218.7 Q379.4 217.75 380.05 217.55 L379.65 216.1 Q379.35 214.9 379.7 214.25 L379.9 213.3 380.1 212.65 380.9 215.15 Q382.5 217.1 383.5 217.4 L387.6 219.3 Q389.9 220.6 390.85 222.3 391.8 223.2 391.8 225.1 L391.4 228.4 391.1 229.65 Q390.2 231.8 390.05 232.55 389.75 234.85 390.75 235.55 L393.65 230.85 395.9 225.85 396.1 224.8 Q396.3 224.25 395.95 223.85 396.1 223.5 395.75 223.4 395.45 223.2 395.5 223.0 L393.05 221.3 391.6 219.3 391.55 219.35 Q391.55 219.95 391.75 220.0 391.7 220.4 392.0 220.85 392.4 221.2 392.4 221.55 391.4 221.5 390.5 220.1 389.75 218.65 389.1 218.45 L388.1 217.3 387.8 216.35 Q387.25 215.9 387.25 214.8 386.75 214.7 386.6 214.05 L386.2 213.2 386.2 211.8 Q386.2 211.1 386.55 210.65 386.95 210.25 386.95 209.35 L387.05 208.1 387.95 206.35 Q387.9 205.85 388.35 205.45 L389.25 204.8 Q390.3 203.1 391.1 202.6 391.3 202.7 391.5 202.4 L391.8 202.15 392.6 201.75 393.0 201.1 393.7 199.6 394.45 200.25 395.0 200.45 395.75 200.0 396.4 199.2 397.0 199.8 397.45 199.55 397.85 199.2 398.35 200.6 Q398.75 200.75 398.7 201.15 399.2 202.15 399.6 201.95 L400.3 202.7 Q402.2 203.65 403.5 203.75 L404.55 204.0 Q404.95 204.0 405.2 204.95 405.85 206.1 405.9 206.6 L405.2 207.4 408.25 207.15 Q408.4 208.3 407.6 208.65 L404.5 208.55 Q403.9 209.8 403.5 209.85 L401.8 209.8 Q401.5 209.3 401.25 209.3 L400.45 209.7 399.5 209.85 Q400.4 210.8 400.8 210.6 402.15 211.35 403.5 211.75 L404.95 212.3 406.35 212.75 Q407.4 212.3 408.05 211.45 L409.3 209.7 Q409.3 209.35 409.55 209.05 409.95 208.75 409.75 208.4 L410.05 207.55 Q410.25 207.0 410.6 206.95 L412.0 206.7 Q413.2 206.95 414.3 207.8 L414.9 208.0 Q415.2 208.3 415.4 208.2 417.1 209.4 418.2 209.8 419.6 211.1 419.3 212.35 L420.0 213.65 Q420.2 214.35 419.55 214.7 L419.25 217.15 418.6 217.1 Q418.3 216.85 418.0 216.95 L416.95 215.25 Q416.3 214.25 416.3 213.4 L416.45 212.55 413.5 210.05 413.2 210.05 M396.75 204.85 L397.85 204.6 397.65 204.2 397.45 203.85 396.75 204.4 396.75 204.85" fill="#000000" fill-rule="evenodd" stroke="none"/>
  </g>
</svg>
