<?xml version="1.0" encoding="UTF-8" standalone="no"?>
<svg xmlns:xlink="http://www.w3.org/1999/xlink" height="9.4px" width="9.65px" xmlns="http://www.w3.org/2000/svg">
  <g transform="matrix(1.0, 0.0, 0.0, 1.0, -395.05, -222.8)">
    <path d="M403.3 224.2 L404.05 225.1 Q404.65 226.15 404.7 227.4 L404.7 227.5 404.7 227.6 Q404.65 228.9 404.05 229.9 L403.3 230.85 402.35 231.6 402.15 231.7 400.0 232.2 399.85 232.2 399.75 232.2 Q398.55 232.2 397.55 231.7 L397.4 231.6 396.4 230.85 395.7 229.9 Q395.05 228.9 395.05 227.6 L395.05 227.5 395.05 227.4 Q395.1 226.1 395.7 225.1 L396.4 224.2 397.4 223.45 397.55 223.35 Q398.55 222.8 399.75 222.8 L399.85 222.8 400.0 222.8 Q401.2 222.8 402.15 223.35 L402.35 223.45 403.3 224.2" fill="#000000" fill-rule="evenodd" stroke="none"/>
  </g>
</svg>
