<?xml version="1.0" encoding="UTF-8" standalone="no"?>
<svg xmlns:xlink="http://www.w3.org/1999/xlink" height="50.65px" width="44.9px" xmlns="http://www.w3.org/2000/svg">
  <g transform="matrix(1.0, 0.0, 0.0, 1.0, -377.25, -204.8)">
    <path d="M417.55 208.7 L418.25 208.45 Q418.55 208.45 418.7 208.6 L418.5 208.85 Q417.85 209.0 417.7 209.9 L418.25 210.1 418.45 210.55 418.1 211.3 Q417.75 211.8 417.75 212.05 417.75 212.35 418.05 212.65 418.3 212.25 418.7 212.4 L419.35 212.7 420.65 213.05 Q421.45 213.2 421.95 213.6 L421.55 213.7 Q421.25 213.65 421.1 213.85 420.3 214.0 419.9 214.4 L419.5 215.05 419.2 215.1 418.8 214.85 418.4 214.6 418.2 214.65 418.6 215.95 Q418.75 216.85 419.1 217.2 418.95 217.6 419.35 217.75 L419.8 218.0 Q420.1 218.85 419.9 219.3 L421.25 219.45 420.8 219.9 419.4 220.05 418.05 219.45 Q417.6 218.65 417.7 217.85 L417.1 216.75 Q417.0 217.6 417.05 218.65 L416.8 220.65 417.45 220.9 418.25 221.0 417.8 221.75 417.0 222.4 418.25 222.3 Q418.4 222.65 417.9 223.1 L417.35 223.65 417.0 223.65 416.8 223.9 417.05 224.05 417.65 224.1 Q417.5 224.7 416.75 225.15 L415.55 225.9 Q415.85 226.2 416.15 226.2 415.65 226.45 415.65 226.8 L415.1 227.15 414.35 227.4 414.15 227.55 414.5 227.8 Q414.85 227.85 414.85 228.1 L411.15 229.2 Q410.55 229.95 410.55 230.6 L410.35 231.15 409.95 231.55 410.1 231.7 410.5 231.7 410.8 231.5 412.0 231.5 Q412.65 231.45 413.05 231.75 L412.7 231.95 415.2 232.0 Q415.3 231.85 415.6 231.85 L416.05 231.55 Q416.5 231.4 416.5 230.9 L416.3 230.15 416.1 229.4 416.4 229.0 Q416.6 228.7 416.95 228.9 L418.65 227.95 418.4 228.5 418.0 229.0 Q417.85 229.25 418.0 229.6 L418.2 230.15 418.0 230.6 Q418.1 230.85 417.65 231.2 417.3 231.6 417.35 231.95 L417.9 232.0 419.05 231.0 Q419.35 230.55 419.65 230.55 419.85 230.55 420.35 231.0 420.9 231.45 421.25 231.3 422.3 232.3 422.1 232.8 L421.95 232.8 Q421.25 232.5 420.85 232.55 420.85 233.0 420.55 233.0 L420.1 232.9 419.6 232.8 Q419.35 233.3 418.9 233.3 L418.0 233.45 Q418.05 233.9 418.6 233.95 L419.5 234.1 Q420.0 234.25 420.05 234.8 420.15 235.35 420.35 235.55 420.5 236.8 420.05 236.85 L419.15 235.85 Q418.7 236.1 418.15 235.45 L417.5 234.8 417.35 234.6 417.2 234.45 Q416.9 234.25 416.7 234.45 L416.3 234.9 Q415.75 234.85 415.05 236.25 L413.85 236.5 413.5 237.95 Q412.5 237.35 412.65 235.55 L413.7 234.7 Q414.15 234.3 413.6 233.9 L413.2 233.9 Q412.9 233.9 412.9 234.1 L411.25 234.1 410.8 233.95 411.05 234.55 409.85 234.7 Q409.7 234.4 409.35 234.45 L409.3 234.9 408.65 234.7 Q408.3 234.85 408.1 234.5 L407.75 234.1 407.4 234.15 Q407.65 234.3 407.55 234.65 406.1 233.75 405.85 233.25 L405.6 233.15 405.5 232.95 Q405.0 233.1 405.0 233.7 L404.7 233.6 404.6 233.4 Q404.4 233.35 404.1 233.65 403.95 233.65 403.25 234.1 L402.4 234.25 402.2 234.0 Q402.8 233.85 402.8 233.65 402.5 233.5 401.6 234.1 401.2 234.1 401.1 234.25 L400.3 234.15 400.55 233.9 Q400.15 233.75 399.7 234.35 399.25 235.0 398.8 234.9 L398.4 234.8 398.5 234.4 398.5 234.1 Q398.4 234.6 397.65 234.9 396.95 235.2 396.8 235.75 396.7 235.75 396.7 236.05 L396.8 236.35 Q398.8 235.65 400.3 235.8 403.05 235.35 405.6 236.25 406.05 236.8 406.7 236.85 L408.15 237.05 407.1 237.9 Q407.5 238.35 408.2 238.5 L409.65 238.65 Q409.65 239.2 408.95 239.2 408.25 239.2 408.15 239.6 L408.25 240.2 Q408.15 240.75 408.4 241.35 L408.65 242.45 Q408.75 242.7 409.1 242.7 409.5 242.7 409.55 242.9 L410.6 243.05 412.7 243.25 413.2 242.35 Q412.95 241.9 413.05 241.55 413.3 241.15 414.35 241.3 L416.15 241.0 416.75 241.75 416.1 241.8 Q415.75 241.8 415.6 241.95 L415.65 242.55 414.45 243.05 413.6 243.75 414.0 244.0 414.45 244.1 415.5 243.7 416.35 243.15 416.8 243.0 417.3 243.4 Q417.5 243.85 417.9 243.75 L418.5 244.4 418.9 245.4 417.65 245.15 417.25 245.2 Q417.1 245.4 417.2 245.65 416.9 246.05 416.55 245.9 L415.85 245.85 415.3 245.45 414.55 245.45 Q414.15 245.45 413.95 245.8 413.95 246.25 414.35 246.65 L415.1 247.3 Q414.7 248.75 414.65 249.45 L413.75 250.1 413.75 249.1 Q413.75 248.45 412.7 248.55 412.25 247.3 412.3 246.65 L411.7 246.65 Q411.4 247.45 411.55 247.95 L410.55 248.2 Q410.15 248.35 410.15 248.95 L410.15 249.85 Q408.95 249.35 408.85 247.55 409.3 246.75 409.7 246.7 410.2 246.6 410.25 246.1 410.3 245.6 410.55 245.45 409.45 244.75 408.4 244.4 L406.95 244.5 Q406.2 244.5 405.85 245.15 L405.5 245.2 405.15 245.6 Q405.05 244.3 404.4 243.25 403.85 243.25 403.75 243.5 403.5 243.6 403.5 243.3 L403.45 243.0 402.25 241.0 401.95 240.9 401.6 241.0 401.75 241.35 401.55 241.55 Q401.3 241.0 400.55 240.6 L399.3 240.1 399.15 241.0 Q397.75 240.2 396.8 240.05 396.45 241.0 396.5 242.2 L396.3 242.7 395.8 243.7 397.3 245.4 396.95 245.45 396.6 245.8 396.1 245.55 395.55 245.35 395.4 245.9 394.75 246.65 Q394.35 247.05 393.9 247.05 L394.05 246.25 394.05 245.4 393.0 246.05 Q392.1 246.2 391.95 246.55 L392.0 248.4 392.45 249.2 Q392.65 249.75 393.0 250.1 L394.3 248.8 Q395.55 248.25 396.05 248.55 L396.45 249.0 395.4 249.7 Q395.7 249.85 395.6 250.15 L394.8 250.4 394.25 250.65 Q393.85 250.55 393.7 250.8 L393.9 250.95 395.05 250.9 Q395.75 250.85 396.05 251.15 396.0 251.5 396.45 251.75 L396.95 252.25 Q397.4 252.7 397.05 253.3 L396.3 252.7 Q396.0 252.5 395.7 252.95 L395.25 253.45 395.05 253.5 394.55 253.05 394.3 252.5 393.35 252.4 392.45 251.85 392.3 252.25 392.6 252.8 392.95 253.4 Q392.25 253.85 392.4 254.9 391.85 255.55 391.35 255.4 L391.55 255.2 Q391.1 253.35 390.5 253.05 L390.65 252.25 390.85 251.65 Q390.7 251.1 389.55 251.15 L388.95 252.5 Q388.5 252.35 388.2 252.75 L387.7 253.5 Q387.15 253.2 387.25 252.35 L387.25 251.05 Q387.4 250.65 387.95 250.65 L388.7 250.4 388.95 249.35 Q389.25 248.6 389.15 248.0 L388.95 247.45 388.7 246.95 Q388.35 247.65 388.35 248.2 388.0 248.2 387.85 247.5 387.7 247.15 387.85 246.55 L388.0 245.7 387.85 245.15 387.95 244.7 Q387.95 244.35 388.45 243.7 L388.95 242.8 Q388.85 242.65 388.7 242.8 388.55 243.05 388.45 242.8 L388.95 242.05 389.55 241.35 389.4 241.3 389.05 241.4 389.15 240.85 Q390.0 239.75 389.85 239.4 L389.65 239.6 389.35 239.45 Q389.35 238.3 389.65 238.15 389.6 237.95 389.8 237.7 L389.85 237.3 389.35 237.7 389.15 237.5 389.65 236.85 389.6 236.5 387.9 238.5 387.6 239.05 387.05 239.6 Q386.35 240.75 384.65 240.75 L381.75 240.45 381.05 240.3 380.65 240.45 Q380.3 240.45 380.45 240.85 L380.05 241.0 Q379.7 240.55 380.0 239.6 L380.45 239.25 Q379.95 238.3 379.95 237.0 379.95 235.8 380.35 234.2 L380.8 231.5 381.0 230.25 Q381.0 228.45 379.55 227.05 L379.05 226.7 378.45 225.75 Q378.3 225.35 378.45 225.1 L379.1 225.75 378.7 224.9 378.3 223.35 Q377.95 222.45 377.95 221.7 L378.05 221.0 378.65 219.9 380.2 219.7 381.0 220.8 380.7 221.2 380.05 220.8 Q379.55 221.35 379.55 221.75 L379.55 222.2 379.75 222.55 Q379.85 223.65 380.85 225.05 381.9 226.45 382.15 227.4 382.9 228.6 382.9 230.5 382.9 232.4 382.15 234.35 382.7 234.9 383.05 234.9 L383.4 235.35 383.05 235.4 Q382.8 235.4 382.7 235.6 382.35 235.5 382.15 235.8 L381.7 236.25 Q381.45 237.6 381.9 238.4 383.15 239.65 385.05 239.4 L387.25 237.25 Q388.95 234.85 389.8 234.1 L393.25 231.95 Q394.5 231.1 395.1 230.85 L392.25 230.55 Q390.7 230.3 390.0 229.6 L391.5 229.55 388.9 229.0 Q387.35 228.85 386.65 227.95 L387.0 227.95 389.4 227.7 390.25 227.5 390.45 227.25 388.9 227.05 387.45 226.8 385.15 226.1 Q383.95 225.65 383.45 224.65 L383.6 224.55 386.95 224.9 388.7 224.85 388.05 224.55 387.35 224.2 386.25 223.75 Q385.4 223.45 385.1 223.0 382.75 221.4 382.6 220.6 L385.75 221.0 383.85 219.6 379.15 215.1 379.1 214.8 379.15 214.4 379.8 214.6 Q380.95 215.4 381.7 215.55 L382.75 216.1 383.2 216.05 381.25 214.15 379.95 212.45 Q378.5 211.15 377.9 209.35 377.25 208.45 377.25 208.15 L377.65 208.45 Q378.0 208.6 377.9 208.85 L381.5 211.7 381.45 211.05 380.05 209.1 379.3 207.65 Q378.7 207.0 378.7 206.55 L378.6 205.75 Q378.45 205.3 378.65 204.85 379.05 205.85 380.55 207.05 L382.85 209.1 Q383.3 209.05 383.65 209.4 L384.4 210.0 Q385.0 209.95 385.35 210.6 385.7 210.55 386.0 210.85 L386.45 211.2 386.75 211.05 385.55 209.55 385.05 208.25 385.8 208.95 386.55 209.65 386.8 210.05 387.2 210.3 388.7 211.8 Q388.85 211.25 387.9 210.6 L387.25 209.65 386.65 208.65 Q385.6 207.6 384.5 204.8 L384.65 204.85 389.2 209.55 Q390.75 210.65 391.3 211.45 L392.0 211.7 Q391.3 211.05 391.05 210.15 L390.5 208.85 Q392.45 210.9 394.75 212.0 L396.05 212.7 Q399.05 214.55 399.45 215.3 L399.7 215.0 Q399.6 214.55 399.95 214.15 L400.3 213.4 Q399.35 213.2 398.35 212.5 397.95 212.05 398.4 211.9 L397.25 210.8 397.15 210.6 Q397.15 210.4 396.95 210.5 L397.15 210.1 Q395.9 208.45 395.6 207.6 396.05 207.25 396.45 207.35 L396.95 207.5 Q397.3 207.45 397.45 207.65 L398.95 208.25 398.7 207.6 398.4 206.9 399.05 206.75 400.95 207.6 Q401.25 207.45 401.55 207.9 401.8 208.35 402.2 208.2 L403.2 209.05 Q403.85 209.45 403.9 210.0 L404.35 210.1 404.8 210.0 408.65 210.15 Q408.7 210.75 409.3 210.95 L410.3 211.2 Q410.9 211.45 410.9 212.75 L410.55 213.2 410.1 213.55 409.95 212.95 409.45 212.75 Q409.2 212.75 408.7 213.15 L408.0 213.8 406.75 214.85 407.7 215.15 408.7 215.25 409.65 215.05 Q409.8 215.55 409.3 215.9 L408.25 216.5 407.9 216.45 Q407.6 216.45 407.55 216.7 L408.85 217.75 408.7 218.0 408.45 218.1 408.7 218.5 409.6 218.8 Q410.45 218.95 410.6 219.45 L410.3 219.8 411.7 221.05 411.75 221.55 Q411.9 221.85 411.55 221.85 L411.6 221.95 412.45 221.7 Q412.55 220.55 412.9 220.25 L413.35 220.8 413.6 219.45 Q413.75 218.95 414.2 219.55 415.2 217.75 415.3 216.95 415.95 215.85 415.5 213.35 414.65 212.45 413.2 212.3 L412.95 212.0 Q412.7 211.6 412.9 211.25 412.55 211.1 412.55 210.95 L412.75 210.5 412.95 210.1 412.9 209.85 413.4 209.35 413.65 209.9 413.95 210.35 Q414.45 210.25 414.7 210.6 L415.3 211.35 Q415.7 211.65 416.05 211.35 L415.65 210.95 415.65 210.25 Q415.55 209.85 415.9 209.75 416.3 209.85 416.5 209.5 L416.95 209.05 417.55 208.7 M405.35 212.05 L404.8 212.15 405.35 212.5 405.35 212.05" fill="#000000" fill-rule="evenodd" stroke="none"/>
  </g>
</svg>
