<?xml version="1.0" encoding="UTF-8" standalone="no"?>
<svg xmlns:xlink="http://www.w3.org/1999/xlink" height="106.9px" width="117.4px" xmlns="http://www.w3.org/2000/svg">
  <g transform="matrix(1.0, 0.0, 0.0, 1.0, -341.2, -205.9)">
    <path d="M341.7 282.25 Q345.0 271.55 349.65 261.45 350.5 251.5 354.65 243.1 L387.9 229.65 Q389.4 222.25 389.6 214.4 390.8 206.95 399.9 206.4 409.0 206.95 410.2 214.4 410.4 222.25 411.9 229.65 L425.3 235.1 425.35 235.1 445.15 243.1 Q449.3 251.5 450.15 261.45 454.8 271.55 458.1 282.2 M441.55 287.65 L432.55 271.25 Q429.4 279.9 423.35 285.05 418.55 296.95 419.65 308.45 M367.25 271.25 Q370.4 279.9 376.45 285.05 381.25 296.95 380.15 308.45 M367.25 271.25 L358.25 287.65" fill="none" stroke="#000000" stroke-linecap="round" stroke-linejoin="round" stroke-width="1.0"/>
    <path d="M458.1 282.2 L441.55 287.65 M406.15 243.15 L426.05 240.35 M402.3 263.2 Q402.95 268.1 406.65 271.7 411.15 276.2 417.55 276.2 423.95 276.2 428.4 271.7 430.05 270.15 431.1 268.35 432.2 266.35 432.6 264.05 L432.7 263.7 432.85 261.4 432.85 261.15 432.85 260.5 Q432.7 255.3 429.25 251.35 M432.55 271.25 L431.1 268.35 M397.35 244.2 Q397.75 246.75 399.9 247.2 402.05 246.75 402.45 244.2 M393.65 243.15 L373.75 240.35 M396.45 237.95 L393.25 223.85 M358.25 287.65 L341.7 282.25 M397.5 263.2 Q396.85 268.1 393.15 271.7 388.65 276.2 382.25 276.2 375.85 276.2 371.4 271.7 369.8 270.15 368.75 268.35 L367.25 271.25 M368.75 268.35 L368.75 268.3 Q367.6 266.3 367.2 264.05 L367.1 263.7 366.95 261.4 366.95 261.15 366.95 260.5 Q367.1 255.3 370.55 251.4 M399.9 312.3 L399.9 298.65 M403.35 237.95 L406.55 223.85" fill="none" stroke="#000000" stroke-linecap="round" stroke-linejoin="round" stroke-opacity="0.5019608" stroke-width="1.0"/>
  </g>
</svg>
