<?xml version="1.0" encoding="UTF-8" standalone="no"?>
<svg xmlns:xlink="http://www.w3.org/1999/xlink" height="139.6px" width="137.45px" xmlns="http://www.w3.org/2000/svg">
  <g transform="matrix(1.0, 0.0, 0.0, 1.0, -331.2, -205.9)">
    <path d="M389.45 218.2 L389.6 214.45 Q390.8 206.95 399.9 206.4 409.0 206.95 410.2 214.45 L410.4 218.2 M411.9 229.65 L425.3 235.1 425.35 235.1 425.55 235.2 425.7 235.25 425.9 235.35 428.5 236.4 M371.3 236.4 L387.9 229.65 M449.35 255.5 Q448.05 248.95 445.15 243.1 M354.65 243.1 Q351.75 248.95 350.5 255.5 M367.5 271.85 Q369.7 277.7 373.3 281.9 M426.55 281.9 Q430.1 277.7 432.3 271.85 M441.55 287.6 L435.05 275.75 M453.6 269.4 Q456.1 275.7 458.1 282.2 M461.7 295.95 Q466.8 302.15 468.15 309.9 M444.55 312.1 Q445.55 304.95 447.85 299.15 M338.1 295.95 Q333.0 302.15 331.7 309.9 M355.25 312.1 Q354.25 304.95 351.95 299.15 M341.75 282.2 Q343.7 275.7 346.25 269.4 M364.8 275.75 L358.3 287.6 M421.1 291.85 Q419.9 296.35 419.6 300.8 M380.25 300.8 Q379.9 296.35 378.75 291.85 M346.2 327.05 Q345.35 336.4 345.3 343.0 L345.3 344.0 M334.3 344.8 L332.95 327.5 M466.85 327.5 L465.5 344.8 M454.55 344.0 L454.5 343.0 Q454.45 336.4 453.6 327.05" fill="none" stroke="#000000" stroke-linecap="round" stroke-linejoin="round" stroke-width="1.0"/>
    <path d="M410.4 218.2 L404.4 219.3 395.4 219.3 389.45 218.2 M428.5 236.4 L428.15 236.6 425.9 237.6 Q413.25 242.95 399.9 243.15 386.5 242.95 373.85 237.55 L371.7 236.6 371.3 236.4 M387.9 229.65 Q391.45 231.05 395.05 231.7 L399.9 232.15 404.8 231.7 Q408.35 231.1 411.9 229.65 M429.25 251.35 Q432.7 255.3 432.85 260.5 L432.85 260.75 449.35 255.5 M445.15 243.1 Q436.85 246.9 428.05 249.55 415.35 250.65 402.6 253.55 L399.9 253.55 397.2 253.55 Q384.45 250.65 371.75 249.55 362.95 246.9 354.65 243.1 M350.5 255.5 L366.95 260.75 366.95 260.5 Q367.1 255.3 370.55 251.4 M432.3 271.85 L427.6 272.5 Q423.4 276.2 417.55 276.2 413.8 276.2 410.7 274.65 L410.65 274.65 399.9 275.3 389.15 274.65 Q386.0 276.2 382.25 276.2 376.4 276.2 372.2 272.45 L367.5 271.85 M373.3 281.9 Q386.55 284.1 399.9 284.2 413.25 284.1 426.55 281.9 M435.05 275.75 L453.6 269.4 M458.1 282.2 L441.55 287.6 M410.7 274.65 L427.6 272.5 M447.85 299.15 L457.9 296.85 461.7 295.95 M468.15 309.9 L444.55 312.1 M447.85 299.15 Q450.75 303.9 455.2 306.8 456.05 301.7 457.9 296.85 M404.8 231.7 L403.35 237.95 M395.05 231.7 L396.45 237.95 M351.95 299.15 Q349.05 303.9 344.6 306.8 343.75 301.7 341.9 296.85 L338.1 295.95 M331.7 309.9 L355.25 312.1 M351.95 299.15 L341.9 296.85 M346.25 269.4 L364.8 275.75 M358.3 287.6 L341.75 282.2 M397.5 263.2 L396.85 266.0 402.95 266.0 402.3 263.2 M396.85 266.0 Q384.8 261.7 366.95 260.75 M378.75 291.85 L399.9 293.25 421.1 291.85 M419.6 300.8 Q409.7 302.35 399.9 302.45 390.1 302.35 380.25 300.8 M389.15 274.65 L372.2 272.45 M399.9 302.45 L399.9 298.65 M332.95 327.5 L346.2 327.05 M345.3 344.0 Q339.0 345.5 334.3 344.8 M453.6 327.05 L466.85 327.5 M465.5 344.8 Q460.8 345.5 454.55 344.0 M432.85 260.75 Q415.0 261.7 402.95 266.0" fill="none" stroke="#000000" stroke-linecap="round" stroke-linejoin="round" stroke-opacity="0.5019608" stroke-width="1.0"/>
  </g>
</svg>
