<?xml version="1.0" encoding="UTF-8" standalone="no"?>
<svg xmlns:xlink="http://www.w3.org/1999/xlink" height="153.6px" width="69.7px" xmlns="http://www.w3.org/2000/svg">
  <g transform="matrix(1.0, 0.0, 0.0, 1.0, -330.7, -205.9)">
    <path d="M399.9 206.4 Q390.8 206.95 389.6 214.4 389.4 222.25 387.9 229.65 L354.65 243.1 Q350.5 251.5 349.65 261.45 342.05 277.9 338.1 295.95 327.75 308.45 332.95 327.5 L335.45 359.0 M351.95 299.15 L352.4 298.4 367.25 271.2 Q370.4 279.9 376.45 285.05 381.25 296.95 380.15 308.45 M345.95 358.0 Q345.6 355.9 345.4 352.75 345.2 349.6 345.3 343.0 345.35 336.4 346.2 327.05 L355.25 312.1 Q354.25 304.95 351.95 299.15" fill="none" stroke="#000000" stroke-linecap="round" stroke-linejoin="round" stroke-width="1.0"/>
    <path d="M338.1 295.95 L340.75 294.0 Q343.5 300.25 344.6 306.8 349.05 303.9 351.95 299.15 M367.25 271.2 L368.75 268.35 368.75 268.3 Q367.6 266.3 367.2 264.05 L367.1 263.7 366.95 261.4 366.95 261.15 366.95 260.5 Q367.1 255.3 370.55 251.4 M397.35 244.2 Q397.75 246.75 399.9 247.2 L399.9 206.4 M393.65 243.15 L373.75 240.35 M396.45 237.95 L393.25 223.85 M397.5 263.2 Q396.85 268.1 393.15 271.7 388.65 276.2 382.25 276.2 375.85 276.2 371.4 271.7 369.8 270.15 368.75 268.35 M399.9 312.3 L399.9 247.2" fill="none" stroke="#000000" stroke-linecap="round" stroke-linejoin="round" stroke-opacity="0.5019608" stroke-width="1.0"/>
  </g>
</svg>
