<?xml version="1.0" encoding="UTF-8" standalone="no"?>
<svg xmlns:xlink="http://www.w3.org/1999/xlink" height="106.9px" width="33.95px" xmlns="http://www.w3.org/2000/svg">
  <g transform="matrix(1.0, 0.0, 0.0, 1.0, -366.45, -205.9)">
    <path d="M396.45 237.95 L393.25 223.85 M393.65 243.15 L373.75 240.35 M374.5 235.1 L370.55 251.35 Q367.1 255.3 366.95 260.5 L366.95 261.15 366.95 261.4 367.1 263.7 367.2 264.05 Q367.6 266.3 368.75 268.3 L368.8 268.4 Q369.8 270.15 371.4 271.7 375.85 276.2 382.25 276.2 388.65 276.2 393.15 271.7 396.85 268.1 397.5 263.2 M397.35 244.2 Q397.75 246.75 399.9 247.2 L399.9 206.4 M368.75 268.3 L367.25 271.2 M399.9 312.3 L399.9 247.2" fill="none" stroke="#000000" stroke-linecap="round" stroke-linejoin="round" stroke-opacity="0.5019608" stroke-width="1.0"/>
    <path d="M399.9 206.4 Q390.8 206.95 389.6 214.4 389.4 222.25 387.9 229.65 L374.5 235.1 M367.25 271.2 Q370.4 279.9 376.45 285.05 381.25 296.95 380.15 308.45" fill="none" stroke="#000000" stroke-linecap="round" stroke-linejoin="round" stroke-width="1.0"/>
  </g>
</svg>
