<?xml version="1.0" encoding="UTF-8" standalone="no"?>
<svg xmlns:xlink="http://www.w3.org/1999/xlink" height="106.9px" width="66.85px" xmlns="http://www.w3.org/2000/svg">
  <g transform="matrix(1.0, 0.0, 0.0, 1.0, -366.5, -205.9)">
    <path d="M374.5 235.1 L387.9 229.65 Q389.4 222.25 389.6 214.4 390.8 206.95 399.9 206.4 409.0 206.95 410.2 214.4 410.4 222.25 411.9 229.65 L425.35 235.1" fill="none" stroke="#000000" stroke-linecap="round" stroke-linejoin="round" stroke-width="1.0"/>
    <path d="M425.35 235.1 L429.25 251.35 Q432.5 255.1 432.85 259.95 425.8 266.85 421.8 275.65 414.35 290.35 415.65 309.95 M406.15 243.15 L426.05 240.35 M421.8 275.65 L417.55 276.2 Q411.15 276.2 406.65 271.7 402.95 268.1 402.3 263.2 M397.35 244.2 Q397.75 246.75 399.9 247.2 402.05 246.75 402.45 244.2 M396.45 237.95 L393.25 223.85 M393.65 243.15 L373.75 240.35 M374.5 235.1 L370.55 251.35 Q367.3 255.1 367.0 259.95 374.0 266.85 378.0 275.65 L382.25 276.2 Q388.65 276.2 393.15 271.7 396.85 268.1 397.5 263.2 M399.9 298.65 L399.9 312.3 M384.2 309.95 Q385.45 290.35 378.0 275.65 M403.35 237.95 L406.55 223.85" fill="none" stroke="#000000" stroke-linecap="round" stroke-linejoin="round" stroke-opacity="0.5019608" stroke-width="1.0"/>
  </g>
</svg>
