<?xml version="1.0" encoding="UTF-8" standalone="no"?>
<svg xmlns:xlink="http://www.w3.org/1999/xlink" height="31.0px" width="32.1px" xmlns="http://www.w3.org/2000/svg">
  <g transform="matrix(1.0, 0.0, 0.0, 1.0, -383.8, -205.9)">
    <path d="M384.3 231.15 Q384.75 228.85 387.85 229.7 M387.9 229.7 Q389.4 222.25 389.6 214.4 390.8 206.95 399.9 206.4 409.0 206.95 410.2 214.4 410.4 222.25 411.9 229.7 414.95 228.85 415.4 231.15" fill="none" stroke="#000000" stroke-linecap="round" stroke-linejoin="round" stroke-width="1.0"/>
    <path d="M415.4 231.15 L414.15 232.15 Q411.15 234.35 407.7 235.45 404.05 236.55 399.85 236.4 395.7 236.55 392.1 235.45 387.8 234.15 384.3 231.15 M387.85 229.7 L387.9 229.7 M411.9 229.7 Q408.35 231.15 404.8 231.75 L404.75 231.75 399.85 232.2 398.55 232.15 395.05 231.75 395.0 231.75 Q391.4 231.1 387.9 229.7 M395.05 231.75 L393.25 223.85 M404.8 231.75 L406.55 223.85" fill="none" stroke="#000000" stroke-linecap="round" stroke-linejoin="round" stroke-opacity="0.5019608" stroke-width="1.0"/>
  </g>
</svg>
