<?xml version="1.0" encoding="UTF-8" standalone="no"?>
<svg xmlns:xlink="http://www.w3.org/1999/xlink" height="60.25px" width="64.2px" xmlns="http://www.w3.org/2000/svg">
  <g transform="matrix(1.0, 0.0, 0.0, 1.0, -367.8, -205.9)">
    <path d="M406.15 243.15 L426.05 240.35 M425.35 235.1 L429.25 251.35 Q430.65 252.95 431.5 254.75 415.15 258.2 402.5 264.35 L399.9 265.65 397.3 264.35 Q384.65 258.15 368.3 254.75 369.15 252.95 370.55 251.35 L374.5 235.1 M397.35 244.2 Q397.75 246.75 399.9 247.2 402.05 246.75 402.45 244.2 M393.65 243.15 L373.75 240.35 M396.45 237.95 L393.25 223.85 M397.5 263.2 L397.3 264.35 M402.5 264.35 L402.3 263.2 M403.35 237.95 L406.55 223.85" fill="none" stroke="#000000" stroke-linecap="round" stroke-linejoin="round" stroke-opacity="0.5019608" stroke-width="1.0"/>
    <path d="M374.5 235.1 L387.9 229.65 Q389.4 222.25 389.6 214.4 390.8 206.95 399.9 206.4 409.0 206.95 410.2 214.4 410.4 222.25 411.9 229.65 L425.35 235.1" fill="none" stroke="#000000" stroke-linecap="round" stroke-linejoin="round" stroke-width="1.0"/>
  </g>
</svg>
