<?xml version="1.0" encoding="UTF-8" standalone="no"?>
<svg xmlns:xlink="http://www.w3.org/1999/xlink" height="116.4px" width="91.5px" xmlns="http://www.w3.org/2000/svg">
  <g transform="matrix(1.0, 0.0, 0.0, 1.0, -354.15, -205.9)">
    <path d="M367.5 257.0 Q368.35 253.95 370.55 251.4 M406.15 243.2 L426.05 240.4 M429.25 251.4 Q431.45 253.95 432.35 257.0 432.8 258.7 432.85 260.55 L432.85 261.2 432.85 261.45 432.7 263.75 432.6 264.1 Q432.2 266.35 431.05 268.35 L432.55 271.25 M425.8 316.35 Q413.6 322.65 399.9 321.7 386.2 322.65 374.0 316.35 M367.25 271.25 L368.75 268.35 Q367.6 266.35 367.2 264.1 L367.1 263.75 366.95 261.45 366.95 261.2 366.95 260.55 Q367.0 258.7 367.5 257.0 M431.05 268.35 L431.0 268.45 Q430.0 270.2 428.4 271.75 423.95 276.25 417.55 276.25 411.15 276.25 406.65 271.75 402.95 268.15 402.3 263.25 M393.65 243.2 L373.75 240.4 M397.5 263.25 Q396.85 268.15 393.15 271.75 388.65 276.25 382.25 276.25 375.85 276.25 371.4 271.75 369.8 270.2 368.8 268.45 L368.75 268.35" fill="none" stroke="#000000" stroke-linecap="round" stroke-linejoin="round" stroke-opacity="0.5019608" stroke-width="1.0"/>
    <path d="M445.15 243.15 L411.9 229.7 Q410.4 222.3 410.2 214.45 409.0 206.95 399.9 206.4 390.8 206.95 389.6 214.45 389.4 222.3 387.9 229.7 L354.65 243.15 M432.55 271.25 Q429.4 279.95 423.35 285.1 418.55 297.0 419.65 308.5 423.15 312.2 425.8 316.35 M374.0 316.35 Q376.65 312.2 380.15 308.5 381.25 297.0 376.45 285.1 370.4 279.95 367.25 271.25" fill="none" stroke="#000000" stroke-linecap="round" stroke-linejoin="round" stroke-width="1.0"/>
    <path d="M354.65 243.15 L367.5 257.0 M432.35 257.0 L445.15 243.15" fill="none" stroke="#000000" stroke-linecap="round" stroke-linejoin="round" stroke-opacity="0.2509804" stroke-width="1.0"/>
  </g>
</svg>
