<?xml version="1.0" encoding="UTF-8" standalone="no"?>
<svg xmlns:xlink="http://www.w3.org/1999/xlink" height="124.4px" width="43.25px" xmlns="http://www.w3.org/2000/svg">
  <g transform="matrix(1.0, 0.0, 0.0, 1.0, -331.2, -235.1)">
    <path d="M338.1 295.95 Q342.05 277.9 349.65 261.45 350.5 251.5 354.65 243.1 L374.45 235.1 370.55 251.4 Q367.1 255.3 366.95 260.5 L366.95 261.15 366.95 261.4 367.1 263.7 367.2 264.05 Q367.6 266.3 368.75 268.3 L367.25 271.2 352.4 298.4 351.95 299.15 Q354.25 304.95 355.25 312.1 L346.2 327.05 Q345.35 336.4 345.3 343.0 345.2 349.6 345.4 352.75 345.6 355.9 345.95 358.0 L346.0 358.0 Q340.15 360.35 335.45 359.0 L332.95 327.5 Q327.75 308.45 338.1 295.95" fill="#000000" fill-rule="evenodd" stroke="none"/>
  </g>
</svg>
