<?xml version="1.0" encoding="UTF-8" standalone="no"?>
<svg xmlns:xlink="http://www.w3.org/1999/xlink" height="55.05px" width="100.5px" xmlns="http://www.w3.org/2000/svg">
  <g transform="matrix(1.0, 0.0, 0.0, 1.0, -349.65, -206.4)">
    <path d="M445.15 243.1 Q449.3 251.5 450.15 261.45 440.95 257.75 431.55 254.8 416.0 249.95 399.9 247.2 383.8 249.9 368.3 254.8 358.85 257.7 349.65 261.45 350.5 251.5 354.65 243.1 L387.9 229.65 Q389.4 222.25 389.6 214.4 390.8 207.0 399.85 206.4 L399.9 206.4 Q409.0 206.95 410.2 214.4 410.4 222.25 411.9 229.65 L425.3 235.1 425.35 235.1 445.15 243.1" fill="#000000" fill-rule="evenodd" stroke="none"/>
  </g>
</svg>
