<?xml version="1.0" encoding="UTF-8" standalone="no"?>
<svg xmlns:xlink="http://www.w3.org/1999/xlink" height="119.95px" width="138.8px" xmlns="http://www.w3.org/2000/svg">
  <g transform="matrix(1.0, 0.0, 0.0, 1.0, -330.5, -243.15)">
    <path d="M432.55 271.25 L431.05 268.35 Q432.2 266.35 432.6 264.1 L432.7 263.75 432.85 261.45 432.85 261.2 432.85 260.55 Q432.8 258.7 432.35 257.0 L445.15 243.15 Q449.3 251.55 450.15 261.5 457.75 277.95 461.7 296.0 467.95 303.55 468.5 313.55 470.6 340.4 467.25 363.1 L464.1 362.8 Q457.2 361.75 452.5 358.55 L449.6 356.1 Q450.9 335.75 444.65 312.3 L444.6 312.15 Q445.6 305.05 447.85 299.25 L447.85 299.2 447.4 298.45 432.55 271.25 M349.65 261.5 Q350.5 251.55 354.65 243.15 L367.5 257.0 Q367.0 258.7 366.95 260.55 L366.95 261.2 366.95 261.45 367.1 263.75 367.2 264.1 Q367.6 266.35 368.75 268.35 L367.25 271.25 352.4 298.45 351.95 299.2 351.95 299.25 Q354.2 305.05 355.2 312.15 L355.15 312.3 Q348.9 335.75 350.2 356.1 L347.3 358.55 Q342.6 361.75 335.7 362.8 L332.55 363.1 Q329.2 340.4 331.3 313.55 331.85 303.55 338.1 296.0 342.05 277.95 349.65 261.5" fill="#000000" fill-rule="evenodd" stroke="none"/>
  </g>
</svg>
