<?xml version="1.0" encoding="UTF-8" standalone="no"?>
<svg xmlns:xlink="http://www.w3.org/1999/xlink" height="10.4px" width="8.55px" xmlns="http://www.w3.org/2000/svg">
  <g transform="matrix(1.0, 0.0, 0.0, 1.0, -386.1, -150.3)">
    <path d="M386.85 151.15 L386.85 151.05 387.25 150.3 388.05 151.45 Q387.15 156.0 388.0 158.0 L388.05 158.15 389.1 159.5 Q389.7 160.1 390.6 160.2 L392.7 160.2 394.15 159.95 394.45 159.85 394.6 160.0 394.65 160.0 394.55 160.1 394.5 160.1 393.1 160.6 392.7 160.7 391.75 160.7 390.6 160.6 Q389.7 160.45 388.9 160.1 L388.7 160.0 387.1 158.65 387.0 158.55 386.8 158.1 Q386.05 156.7 386.1 155.25 L386.2 154.1 386.45 152.55 386.85 151.15" fill="#000000" fill-rule="evenodd" stroke="none"/>
  </g>
</svg>
