<?xml version="1.0" encoding="UTF-8" standalone="no"?>
<svg xmlns:xlink="http://www.w3.org/1999/xlink" height="6.15px" width="26.0px" xmlns="http://www.w3.org/2000/svg">
  <g transform="matrix(1.0, 0.0, 0.0, 1.0, -386.9, -153.85)">
    <path d="M388.05 155.35 Q387.4 156.5 387.4 157.45 387.4 158.4 388.25 159.0 389.15 159.55 390.4 159.5 L392.6 158.95 Q393.5 158.5 393.4 157.6 393.3 156.65 392.4 155.65 391.5 154.6 390.05 154.4 388.65 154.15 388.05 155.35 M409.4 159.5 L407.2 158.95 Q406.3 158.5 406.4 157.6 406.5 156.65 407.4 155.65 408.3 154.6 409.75 154.4 411.15 154.15 411.75 155.35 412.4 156.5 412.4 157.45 412.4 158.4 411.55 159.0 410.65 159.55 409.4 159.5" fill="none" stroke="#000000" stroke-linecap="round" stroke-linejoin="round" stroke-opacity="0.5019608" stroke-width="1.0"/>
  </g>
</svg>
