<?xml version="1.0" encoding="UTF-8" standalone="no"?>
<svg xmlns:xlink="http://www.w3.org/1999/xlink" height="6.65px" width="12.3px" xmlns="http://www.w3.org/2000/svg">
  <g transform="matrix(1.0, 0.0, 0.0, 1.0, -381.85, -155.05)">
    <path d="M382.35 155.55 L383.05 155.6 383.6 155.75 383.9 155.8 384.9 155.8 385.1 155.8 388.65 155.7 389.0 155.75 389.9 155.85 391.4 156.25 Q391.85 156.3 392.2 156.5 L392.45 156.65 392.5 156.7 393.0 157.15 393.25 157.55 393.3 157.65 393.35 157.75 Q393.75 158.55 393.6 159.35 L393.6 159.4 393.25 161.2 M385.1 155.8 Q385.1 156.3 385.25 156.6 385.55 157.6 386.45 158.2 387.25 158.75 388.2 158.95 L390.45 159.25 390.95 159.3 393.6 159.4 M392.5 156.7 L392.3 157.15 Q392.05 157.9 391.4 158.25 L391.35 158.25 390.5 158.35 Q389.8 158.2 389.2 157.75 388.25 157.0 388.65 155.75 L388.65 155.7" fill="none" stroke="#000000" stroke-linecap="round" stroke-linejoin="round" stroke-opacity="0.5019608" stroke-width="1.0"/>
  </g>
</svg>
