<?xml version="1.0" encoding="UTF-8" standalone="no"?>
<svg xmlns:xlink="http://www.w3.org/1999/xlink" height="17.2px" width="18.85px" xmlns="http://www.w3.org/2000/svg">
  <g transform="matrix(1.0, 0.0, 0.0, 1.0, -381.35, -148.35)">
    <path d="M389.0 165.05 L391.4 164.7 393.3 164.15 395.1 162.9 396.85 162.25 398.9 159.8 395.85 161.65 390.4 162.35 387.75 161.8 384.9 160.5 382.6 155.45 381.85 151.7 383.2 148.85 384.05 150.55 384.3 150.9 385.45 152.2 391.55 153.85 393.0 155.1 396.65 159.8 397.15 159.8 398.9 159.8 399.7 158.95 M384.3 150.9 L383.45 151.45 384.2 154.65 386.25 159.4 389.45 160.75 393.7 161.1 397.15 159.8" fill="none" stroke="#000000" stroke-linecap="round" stroke-linejoin="round" stroke-opacity="0.49803922" stroke-width="1.0"/>
  </g>
</svg>
