<?xml version="1.0" encoding="UTF-8" standalone="no"?>
<svg xmlns:xlink="http://www.w3.org/1999/xlink" height="5.4px" width="24.2px" xmlns="http://www.w3.org/2000/svg">
  <g transform="matrix(1.0, 0.0, 0.0, 1.0, -387.8, -153.85)">
    <path d="M392.35 154.6 Q393.05 155.25 393.2 156.25 L393.2 156.55 Q393.2 157.65 392.35 158.4 L391.1 159.2 390.5 159.25 Q389.35 159.25 388.55 158.4 387.8 157.65 387.8 156.55 387.8 156.0 387.95 155.65 388.1 155.05 388.55 154.6 389.35 153.85 390.5 153.85 L391.1 153.95 Q391.8 154.05 392.35 154.6 M409.3 153.85 L409.95 153.95 Q410.7 154.05 411.25 154.6 L411.85 155.65 412.0 156.55 Q412.0 157.65 411.25 158.4 L409.95 159.2 409.3 159.25 Q408.2 159.25 407.45 158.4 406.6 157.65 406.6 156.55 L406.6 156.25 Q406.75 155.25 407.45 154.6 408.2 153.85 409.3 153.85" fill="#000000" fill-rule="evenodd" stroke="none"/>
  </g>
</svg>
