<?xml version="1.0" encoding="UTF-8" standalone="no"?>
<svg xmlns:xlink="http://www.w3.org/1999/xlink" height="3.45px" width="25.8px" xmlns="http://www.w3.org/2000/svg">
  <g transform="matrix(1.0, 0.0, 0.0, 1.0, -387.0, -155.6)">
    <path d="M387.5 156.1 Q388.7 155.6 389.95 155.6 L390.0 155.75 Q390.2 156.9 390.95 157.8 L391.05 155.65 391.1 155.65 391.35 155.7 Q392.1 155.8 392.75 156.2 L393.9 157.25 Q393.8 158.45 392.65 158.85 L392.2 159.0 391.05 159.05 389.45 158.6 389.4 158.6 Q387.85 157.8 387.0 156.3 L387.5 156.1 M408.45 155.7 L408.7 155.65 408.75 155.65 408.85 157.8 Q409.6 156.9 409.8 155.75 L409.85 155.6 Q411.1 155.6 412.3 156.1 L412.8 156.3 Q411.95 157.8 410.4 158.6 L410.35 158.6 408.75 159.05 407.6 159.0 407.15 158.85 Q406.0 158.45 405.9 157.25 L407.05 156.2 Q407.7 155.8 408.45 155.7" fill="#000000" fill-rule="evenodd" stroke="none"/>
  </g>
</svg>
