<?xml version="1.0" encoding="UTF-8" standalone="no"?>
<svg xmlns:xlink="http://www.w3.org/1999/xlink" height="156.65px" width="181.6px" xmlns="http://www.w3.org/2000/svg">
  <g transform="matrix(1.0, 0.0, 0.0, 1.0, -309.1, -168.6)">
    <path d="M361.6 188.8 L365.5 187.7 367.2 178.6 368.1 173.65 368.2 173.25 Q369.05 169.95 381.35 169.1 L379.15 188.8 378.65 191.7 378.15 194.65 378.1 194.9 377.3 201.35 Q375.35 219.95 377.65 241.45 L378.9 258.85 Q380.75 288.3 380.75 318.45 L380.75 324.75 Q374.1 323.85 367.8 322.35 L360.8 320.5 357.1 319.4 358.05 313.15 Q358.8 306.6 358.8 299.7 L358.15 288.4 357.1 280.6 Q349.5 275.8 341.0 260.5 344.8 253.3 347.65 245.9 333.65 221.75 309.6 203.0 320.65 195.15 338.35 197.4 349.55 192.4 361.6 188.8 M431.7 173.65 L431.6 173.25 Q430.75 169.95 418.45 169.1 L420.65 188.8 421.15 191.7 Q422.0 196.4 422.5 201.35 424.45 219.95 422.15 241.45 421.45 250.1 420.9 258.85 419.05 288.3 419.05 318.45 M432.6 178.6 L431.7 173.65 M432.6 178.6 L434.3 187.7 Q448.45 191.6 461.45 197.4 479.15 195.2 490.2 203.0 466.15 221.75 452.15 245.9 455.0 253.3 458.8 260.5 450.3 275.8 442.7 280.6 442.05 284.55 441.7 288.4 441.1 294.15 441.05 299.7 440.95 306.6 441.75 313.15 L442.7 319.4 439.35 320.4 439.05 320.5 439.0 320.5 Q429.45 323.3 419.1 324.75 L419.05 318.45" fill="none" stroke="#000000" stroke-linecap="round" stroke-linejoin="round" stroke-width="1.0"/>
    <path d="M368.1 173.65 L368.1 173.85 Q367.7 178.15 375.25 178.9 L378.65 191.7 M367.2 178.6 Q369.1 181.1 373.3 181.4 L375.9 191.1 375.2 194.65 375.15 194.9 Q374.6 197.9 374.2 201.05 371.7 219.7 374.45 241.85 379.2 279.0 378.55 318.2 L380.75 318.45 M421.15 191.7 L424.55 178.9 Q432.1 178.15 431.7 173.85 L431.7 173.65 M419.05 318.45 L421.25 318.2 Q420.6 279.0 425.35 241.85 428.1 219.7 425.65 201.05 424.95 195.95 423.9 191.1 L426.5 181.4 Q430.7 181.1 432.6 178.6 M441.7 288.4 L424.7 293.2 424.7 303.35 441.05 299.7 M425.65 201.05 L456.55 199.25 M374.2 201.05 L367.8 200.5 343.25 199.25 M358.8 299.7 L375.1 303.35 375.1 293.2 358.15 288.4 M358.05 313.15 Q368.0 316.75 378.55 318.2 M441.75 313.15 Q431.75 316.75 421.25 318.2" fill="none" stroke="#000000" stroke-linecap="round" stroke-linejoin="round" stroke-opacity="0.5019608" stroke-width="1.0"/>
  </g>
</svg>
