<?xml version="1.0" encoding="UTF-8" standalone="no"?>
<svg xmlns:xlink="http://www.w3.org/1999/xlink" height="153.7px" width="245.5px" xmlns="http://www.w3.org/2000/svg">
  <g transform="matrix(1.0, 0.0, 0.0, 1.0, -277.15, -202.5)">
    <path d="M468.55 223.2 L493.3 224.05 493.35 224.05 502.9 225.25 M331.25 223.2 L306.5 224.05 306.45 224.05 296.9 225.25 M508.9 224.05 L501.5 222.95 493.35 221.9 493.3 221.9 470.85 220.7 M455.45 255.05 Q454.35 237.0 493.35 239.0 L500.6 239.5 508.7 240.15 M456.75 257.45 Q455.8 239.6 493.55 241.25 L502.0 241.8 M464.1 271.3 Q459.4 255.9 495.05 256.85 L500.65 257.1 508.95 257.5 M502.05 259.4 L495.3 259.15 Q460.9 258.45 465.6 273.5 M475.0 284.55 Q470.75 270.85 500.8 275.15 L508.95 276.55 515.45 277.85 M476.75 286.55 Q472.2 273.3 501.6 277.4 L510.35 278.85 M469.7 296.9 Q478.3 290.55 506.6 296.3 L513.3 297.75 520.9 299.45 M467.9 303.55 Q471.95 291.45 507.15 298.4 L514.7 300.05 M481.9 332.55 Q485.45 324.55 503.25 331.8 L507.1 333.5 515.7 337.15 M474.95 321.3 Q477.4 308.2 505.6 318.7 L511.4 321.0 M482.2 336.5 Q485.05 326.65 502.95 333.45 505.6 334.45 508.5 335.8 M473.5 319.05 Q476.0 305.55 505.7 317.0 L510.0 318.7 519.2 322.05 M481.45 343.9 Q486.7 339.9 500.5 347.5 L509.25 352.95 M290.9 224.05 L298.3 222.95 306.45 221.9 306.5 221.9 328.95 220.7 M291.1 240.15 L299.2 239.5 306.45 239.0 Q345.45 237.0 344.35 255.05 M343.05 257.45 Q344.0 239.6 306.25 241.25 L297.8 241.8 M290.85 257.5 L299.15 257.1 304.75 256.85 Q340.4 255.9 335.7 271.3 M284.35 277.85 L290.85 276.55 299.0 275.15 Q329.05 270.85 324.8 284.55 M289.45 278.85 L298.2 277.4 Q327.6 273.3 323.05 286.55 M334.2 273.5 Q338.9 258.45 304.5 259.15 L297.75 259.4 M326.3 319.05 Q323.8 305.55 294.1 317.0 L289.8 318.7 280.6 322.05 M285.1 300.05 L292.65 298.4 Q327.85 291.45 331.9 303.55 M288.4 321.0 L294.2 318.7 Q322.4 308.2 324.85 321.3 M317.9 332.55 Q314.35 324.55 296.55 331.8 L292.7 333.5 284.1 337.15 M291.3 335.8 Q294.2 334.45 296.85 333.45 314.75 326.65 317.6 336.5 M318.35 343.9 Q313.1 339.9 299.3 347.5 L290.55 352.95 M278.9 299.45 L286.5 297.75 293.2 296.3 Q321.5 290.55 330.1 296.9" fill="none" stroke="#000000" stroke-linecap="round" stroke-linejoin="round" stroke-opacity="0.5019608" stroke-width="1.0"/>
    <path d="M468.55 223.2 L470.85 220.7 Q477.65 213.35 485.7 206.65 L488.2 204.6 490.2 203.0 Q503.0 212.15 508.9 224.05 L511.0 226.5 502.9 225.25 Q507.35 230.35 508.7 240.15 L509.7 242.6 502.0 241.8 Q507.55 247.95 508.95 257.5 L510.05 259.95 502.05 259.4 Q510.0 266.95 515.45 277.85 L517.15 280.25 510.35 278.85 Q516.95 287.85 520.9 299.45 L522.15 301.85 514.7 300.05 Q518.6 309.0 519.2 322.05 L519.75 324.65 511.4 321.0 Q515.25 327.4 515.7 337.15 L516.4 339.7 508.5 335.8 Q510.7 342.85 509.25 352.95 L509.4 355.7 Q504.35 351.95 500.15 349.5 484.1 340.1 479.9 348.8 L481.45 343.9 Q482.3 340.25 482.2 336.5 L481.9 332.55 481.8 331.75 474.95 321.3 474.5 320.6 473.5 319.05 Q469.75 312.8 467.45 305.65 467.55 304.5 467.9 303.55 L468.9 298.9 469.7 296.9 Q472.8 289.7 476.75 286.55 L475.0 284.55 465.6 273.5 464.1 271.3 Q460.9 266.4 458.5 261.4 L456.95 257.75 456.75 257.45 455.45 255.05 Q453.4 250.85 452.1 246.0 L452.1 245.9 Q455.65 239.9 459.75 234.2 463.85 228.55 468.55 223.2 M331.25 223.2 Q335.95 228.55 340.05 234.2 344.15 239.9 347.7 245.9 L347.7 246.0 Q346.4 250.85 344.35 255.05 L343.05 257.45 342.85 257.75 341.3 261.4 Q338.9 266.4 335.7 271.3 L334.2 273.5 324.8 284.55 323.05 286.55 Q327.0 289.7 330.1 296.9 L330.9 298.9 331.9 303.55 332.35 305.65 Q330.05 312.8 326.3 319.05 L325.3 320.6 324.85 321.3 318.0 331.75 317.9 332.55 Q317.6 334.55 317.6 336.5 317.5 340.25 318.35 343.9 318.9 346.35 319.9 348.8 315.7 340.1 299.65 349.5 295.45 351.95 290.4 355.7 L290.55 352.95 Q289.1 342.85 291.3 335.8 287.6 337.45 283.4 339.7 L284.1 337.15 Q284.55 327.4 288.4 321.0 284.45 322.6 280.05 324.65 L280.6 322.05 Q281.2 309.0 285.1 300.05 L277.65 301.85 278.9 299.45 Q282.85 287.85 289.45 278.85 L282.65 280.25 284.35 277.85 Q289.8 266.95 297.75 259.4 L289.75 259.95 290.85 257.5 Q292.25 247.95 297.8 241.8 L290.1 242.6 291.1 240.15 Q292.45 230.35 296.9 225.25 L288.8 226.5 290.9 224.05 Q296.8 212.15 309.6 203.0 L311.6 204.6 314.1 206.65 Q322.15 213.35 328.95 220.7 L331.25 223.2" fill="none" stroke="#000000" stroke-linecap="round" stroke-linejoin="round" stroke-width="1.0"/>
  </g>
</svg>
