<?xml version="1.0" encoding="UTF-8" standalone="no"?>
<svg xmlns:xlink="http://www.w3.org/1999/xlink" height="73.45px" width="219.0px" xmlns="http://www.w3.org/2000/svg">
  <g transform="matrix(1.0, 0.0, 0.0, 1.0, -290.35, -183.8)">
    <path d="M349.0 193.1 Q363.7 187.55 379.8 184.3 L379.15 188.85 Q384.0 192.3 390.8 193.65 L399.85 194.6 408.95 193.65 Q415.75 192.3 420.6 188.85 L419.95 184.3 Q436.05 187.55 450.8 193.1 455.05 194.7 459.2 196.5 L464.45 190.85 Q494.55 187.1 506.35 210.9 511.35 223.6 506.35 241.55 L501.35 245.65 501.3 245.7 Q495.35 232.25 481.65 220.25 451.15 229.1 425.55 242.0 412.05 248.8 399.9 256.7 L399.85 256.75 Q387.75 248.8 374.25 242.0 348.6 229.1 318.1 220.25 304.4 232.25 298.45 245.7 L293.35 241.55 Q288.4 223.6 293.35 210.9 305.2 187.1 335.25 190.85 L340.6 196.5 Q344.7 194.7 349.0 193.1" fill="none" stroke="#000000" stroke-linecap="round" stroke-linejoin="round" stroke-width="1.0"/>
    <path d="M481.65 220.25 L485.75 214.8 Q453.7 224.1 426.8 237.65 L420.0 241.2 Q409.5 246.85 399.85 253.15 L399.9 256.7 M407.55 231.65 Q404.35 234.9 399.8 234.9 395.25 234.9 392.0 231.65 388.8 228.45 388.8 223.9 388.8 219.35 392.0 216.1 395.25 212.9 399.8 212.9 404.35 212.9 407.55 216.1 410.8 219.35 410.8 223.9 410.8 228.45 407.55 231.65 M410.0 234.1 Q405.8 238.35 399.8 238.35 393.8 238.35 389.5 234.1 385.25 229.85 385.25 223.85 385.25 217.85 389.5 213.55 393.8 209.35 399.8 209.35 405.8 209.35 410.0 213.55 414.3 217.85 414.3 223.85 414.3 229.85 410.0 234.1 M459.2 196.5 L456.5 199.3 Q431.75 199.9 406.95 203.15 L402.95 204.1 Q401.9 206.05 399.9 206.1 397.9 206.05 396.85 204.1 L392.75 203.15 Q368.0 199.9 343.25 199.3 L340.6 196.5 M399.85 253.15 Q390.25 246.85 379.75 241.2 L372.95 237.65 Q346.05 224.1 314.0 214.8 L318.1 220.25 M506.35 241.55 L503.35 235.6 Q497.05 224.7 485.75 214.8 M314.0 214.8 Q302.7 224.7 296.45 235.55 294.7 238.5 293.35 241.55" fill="none" stroke="#000000" stroke-linecap="round" stroke-linejoin="round" stroke-opacity="0.5019608" stroke-width="1.0"/>
  </g>
</svg>
