<?xml version="1.0" encoding="UTF-8" standalone="no"?>
<svg xmlns:xlink="http://www.w3.org/1999/xlink" height="92.8px" width="150.3px" xmlns="http://www.w3.org/2000/svg">
  <g transform="matrix(1.0, 0.0, 0.0, 1.0, -324.7, -216.3)">
    <path d="M475.0 216.3 Q466.45 224.8 459.65 234.2 455.55 239.9 452.1 245.85 L452.05 245.9 452.05 245.95 Q454.9 253.3 458.7 260.5 453.0 268.0 444.4 273.5 L436.8 288.4 436.85 307.1 416.65 309.1 419.3 231.7 Q430.5 230.35 441.85 227.5 453.25 224.65 464.85 220.35 L469.6 218.55 475.0 216.3 M324.7 216.3 L330.1 218.55 334.85 220.35 Q346.45 224.65 357.85 227.5 369.2 230.35 380.4 231.7 L383.05 309.1 362.85 307.1 362.9 288.4 355.3 273.5 Q346.7 268.0 341.0 260.5 344.8 253.3 347.65 245.9 344.15 239.9 340.05 234.2 333.25 224.8 324.7 216.3" fill="#000000" fill-rule="evenodd" stroke="none"/>
  </g>
</svg>
