<?xml version="1.0" encoding="UTF-8" standalone="no"?>
<svg xmlns:xlink="http://www.w3.org/1999/xlink" height="85.7px" width="129.3px" xmlns="http://www.w3.org/2000/svg">
  <g transform="matrix(1.0, 0.0, 0.0, 1.0, -335.25, -186.35)">
    <path d="M338.35 197.4 L335.35 197.1 Q334.85 194.75 336.85 193.65 L354.3 186.5 Q358.9 185.65 359.2 189.7 360.8 199.5 360.85 209.75 360.9 216.65 360.25 223.75 358.3 245.65 349.75 269.55 347.45 273.6 344.95 271.05 L341.2 266.85 Q339.0 264.85 341.0 260.5 348.45 227.6 338.35 197.4 M461.45 197.4 Q451.35 227.6 458.8 260.5 460.8 264.85 458.6 266.85 L454.85 271.05 Q452.35 273.6 450.05 269.55 441.5 245.65 439.55 223.75 438.9 216.65 438.95 209.75 439.0 199.5 440.6 189.7 440.9 185.65 445.5 186.5 L462.95 193.65 Q464.95 194.75 464.45 197.1 L461.45 197.4" fill="#000000" fill-rule="evenodd" stroke="none"/>
  </g>
</svg>
