<?xml version="1.0" encoding="UTF-8" standalone="no"?>
<svg xmlns:xlink="http://www.w3.org/1999/xlink" height="91.75px" width="218.1px" xmlns="http://www.w3.org/2000/svg">
  <g transform="matrix(1.0, 0.0, 0.0, 1.0, -290.85, -184.25)">
    <path d="M379.15 188.8 Q384.0 192.25 390.8 193.6 L399.9 194.55 409.0 193.6 Q415.8 192.25 420.65 188.8 L420.0 184.25 Q436.25 187.55 451.05 193.15 470.2 193.3 485.85 198.5 505.7 206.9 505.4 234.5 506.45 243.25 508.95 251.55 457.7 273.25 399.9 276.0 342.1 273.25 290.85 251.55 293.35 243.25 294.4 234.5 294.1 206.9 313.95 198.5 329.6 193.3 348.75 193.15 363.55 187.55 379.8 184.25 L379.15 188.8" fill="#000000" fill-rule="evenodd" stroke="none"/>
  </g>
</svg>
