<?xml version="1.0" encoding="UTF-8" standalone="no"?>
<svg xmlns:xlink="http://www.w3.org/1999/xlink" height="149.15px" width="86.2px" xmlns="http://www.w3.org/2000/svg">
  <g transform="matrix(1.0, 0.0, 0.0, 1.0, -356.8, -182.25)">
    <path d="M357.7 189.9 L359.4 187.5 Q369.4 183.85 380.0 182.25 L379.8 184.25 376.3 184.95 376.3 185.0 Q373.5 190.3 371.8 196.95 371.3 198.8 370.95 200.75 369.15 209.65 369.15 220.7 369.15 230.75 370.6 242.6 374.6 252.8 377.05 267.6 381.15 292.85 380.65 331.4 379.0 300.4 372.15 274.85 367.8 258.65 361.3 244.6 357.2 225.75 356.85 208.8 356.75 204.2 356.95 199.8 L356.95 199.25 Q357.15 194.55 357.7 190.0 L357.7 189.9 M423.5 184.95 L420.0 184.25 419.8 182.25 Q430.4 183.85 440.4 187.5 L442.1 189.9 442.1 190.0 Q442.65 194.8 442.85 199.8 443.75 220.6 438.5 244.6 421.8 280.75 419.15 331.4 418.3 270.3 429.2 242.6 432.25 217.75 428.85 200.75 427.1 191.8 423.5 185.0 L423.5 184.95" fill="#000000" fill-rule="evenodd" stroke="none"/>
  </g>
</svg>
