<?xml version="1.0" encoding="UTF-8" standalone="no"?>
<svg xmlns:xlink="http://www.w3.org/1999/xlink" height="78.85px" width="425.3px" xmlns="http://www.w3.org/2000/svg">
  <g transform="matrix(1.0, 0.0, 0.0, 1.0, -187.2, -143.65)">
    <path d="M489.2 146.15 L489.4 146.1 Q504.65 139.6 509.3 150.3 L494.05 147.95 491.95 150.9 Q478.65 169.45 471.25 177.3 463.3 185.7 459.3 189.15 455.3 192.6 446.6 198.65 437.95 204.65 437.95 204.95 442.9 208.25 456.05 209.5 484.6 195.0 500.15 183.65 515.75 172.25 532.1 153.85 545.85 149.8 548.15 162.65 L535.75 160.75 Q522.05 175.35 507.85 185.15 493.7 194.9 469.05 209.5 487.5 212.0 505.95 209.25 530.6 198.5 543.8 187.8 557.05 177.1 568.15 165.65 583.9 161.2 577.7 172.15 L571.75 171.45 Q563.1 180.15 551.2 189.55 539.3 198.95 514.55 213.45 L545.0 215.6 Q570.25 202.25 591.2 184.25 L601.75 174.85 Q610.25 172.2 612.4 174.75 613.0 176.9 608.9 178.2 602.55 181.9 597.65 185.25 584.85 193.85 573.25 203.4 L546.7 222.5 Q523.3 221.95 504.35 218.9 477.45 218.55 455.0 215.05 L450.15 215.4 Q436.45 211.65 426.85 206.9 L415.3 208.15 405.0 208.45 402.0 208.45 397.7 208.45 394.7 208.45 384.4 208.15 372.85 206.9 Q363.25 211.65 349.55 215.4 L344.7 215.05 Q322.25 218.55 295.35 218.9 276.4 221.95 253.0 222.5 L226.45 203.4 Q214.85 193.85 202.05 185.25 L190.8 178.2 Q186.7 176.9 187.3 174.75 189.45 172.2 197.95 174.85 L208.5 184.25 Q229.45 202.25 254.7 215.6 L285.15 213.45 Q260.4 198.95 248.5 189.55 236.6 180.15 227.95 171.45 L222.0 172.15 Q215.8 161.2 231.55 165.65 242.65 177.1 255.9 187.8 269.1 198.5 293.75 209.25 312.2 212.0 330.65 209.5 306.0 194.9 291.85 185.15 277.65 175.35 263.95 160.75 L251.55 162.65 Q253.85 149.8 267.6 153.85 283.95 172.25 299.55 183.65 315.1 195.0 343.65 209.5 356.8 208.25 361.75 204.95 361.75 204.65 353.1 198.65 344.4 192.6 340.4 189.15 336.4 185.7 328.45 177.3 321.05 169.45 307.75 150.9 L305.65 147.95 290.4 150.3 Q295.05 139.6 310.3 146.1 L310.5 146.15 312.95 149.3 325.45 165.45 Q327.7 168.6 335.95 177.8 344.2 186.95 360.4 198.4 L357.8 189.15 Q354.9 180.6 351.05 173.15 L351.0 172.95 349.1 169.5 344.8 162.85 344.8 162.65 344.9 162.4 Q345.25 159.65 345.95 156.85 L349.0 161.35 352.85 167.75 353.75 169.5 Q358.85 179.15 361.65 189.55 363.05 195.35 363.9 201.35 L363.95 201.7 363.95 202.0 Q379.35 205.2 394.7 205.65 L399.0 205.75 399.5 205.75 399.85 205.75 400.2 205.75 400.7 205.75 405.0 205.65 Q420.35 205.2 435.75 202.0 L435.75 201.7 435.8 201.35 Q436.65 195.35 438.05 189.55 440.85 179.15 445.95 169.5 L446.85 167.75 450.7 161.35 453.75 156.85 Q454.45 159.65 454.8 162.4 L454.9 162.65 454.9 162.85 Q452.65 166.05 450.6 169.5 L448.7 172.95 448.65 173.15 Q444.8 180.6 441.9 189.15 L439.3 198.4 Q455.5 186.95 463.75 177.8 472.0 168.6 474.25 165.45 476.3 162.6 486.75 149.3 L489.2 146.15 M400.2 183.6 L400.45 183.6 401.45 183.6 406.45 184.05 407.35 184.25 Q409.95 184.8 412.45 185.7 411.0 197.5 400.2 202.45 L399.9 202.5 399.5 202.45 Q388.7 197.5 387.25 185.7 389.75 184.8 392.35 184.25 L393.25 184.05 398.25 183.6 399.25 183.6 400.2 183.6 M456.95 204.3 Q455.45 204.3 454.35 203.25 L453.75 202.45 Q453.3 201.6 453.3 200.65 453.3 199.1 454.35 198.05 455.45 196.95 456.95 196.95 458.5 196.95 459.55 198.05 L460.35 199.2 460.65 200.65 Q460.65 202.15 459.55 203.25 458.5 204.3 456.95 204.3 M345.35 198.05 Q346.4 199.1 346.4 200.65 L345.95 202.45 345.35 203.25 Q344.25 204.3 342.75 204.3 341.2 204.3 340.15 203.25 339.05 202.15 339.05 200.65 339.05 199.85 339.35 199.2 339.6 198.6 340.15 198.05 341.2 196.95 342.75 196.95 344.25 196.95 345.35 198.05 M541.15 205.0 Q541.15 203.5 542.2 202.45 543.3 201.35 544.8 201.35 546.3 201.35 547.4 202.45 548.45 203.5 548.45 205.0 548.45 206.55 547.4 207.6 546.3 208.7 544.8 208.7 543.3 208.7 542.2 207.6 541.15 206.55 541.15 205.0 M506.65 203.6 Q505.6 204.65 504.05 204.65 502.55 204.65 501.45 203.6 500.4 202.5 500.4 201.0 500.4 199.45 501.45 198.4 502.55 197.3 504.05 197.3 505.6 197.3 506.65 198.4 507.75 199.45 507.75 201.0 507.75 202.5 506.65 203.6 M251.25 205.0 Q251.25 203.5 252.3 202.45 253.4 201.35 254.9 201.35 256.4 201.35 257.5 202.45 258.55 203.5 258.55 205.0 258.55 206.55 257.5 207.6 256.4 208.7 254.9 208.7 253.4 208.7 252.3 207.6 251.25 206.55 251.25 205.0 M293.05 203.6 Q291.95 202.5 291.95 201.0 291.95 199.45 293.05 198.4 294.1 197.3 295.65 197.3 297.15 197.3 298.25 198.4 299.3 199.45 299.3 201.0 299.3 202.5 298.25 203.6 297.15 204.65 295.65 204.65 294.1 204.65 293.05 203.6" fill="#000000" fill-rule="evenodd" stroke="none"/>
  </g>
</svg>
