<?xml version="1.0" encoding="UTF-8" standalone="no"?>
<svg xmlns:xlink="http://www.w3.org/1999/xlink" height="106.9px" width="66.9px" xmlns="http://www.w3.org/2000/svg">
  <g transform="matrix(1.0, 0.0, 0.0, 1.0, -366.45, -205.9)">
    <path d="M409.0 210.95 L409.0 215.55 409.75 223.9 411.1 232.35 Q412.05 237.3 413.3 242.15 416.35 245.2 421.85 247.2 424.95 247.7 427.4 249.6 L429.25 251.35 430.65 253.2 Q432.75 256.45 432.85 260.5 L432.85 260.75 432.85 261.15 432.85 261.4 432.7 263.7 432.6 264.05 Q432.2 266.4 431.1 268.4 430.05 270.2 428.4 271.75 L427.6 272.5 Q424.4 275.35 420.25 276.05 420.25 280.5 416.8 282.65 415.5 283.45 413.7 283.9 L411.2 297.7 411.45 310.75 M406.55 223.85 L406.4 224.6 409.75 223.9 M413.3 242.15 L406.15 243.15 M406.35 224.6 L399.9 225.25 393.45 224.6 395.6 234.2 397.1 234.3 398.65 234.35 399.9 234.35 404.2 234.2 406.4 224.6 406.35 224.6 M393.65 243.15 L386.45 242.15 Q383.45 245.2 377.95 247.2 L383.4 247.35 Q391.1 248.45 394.6 252.95 L397.2 253.55 399.9 253.55 402.6 253.55 405.2 253.0 Q408.65 248.45 416.4 247.35 L421.85 247.2 M427.6 272.5 L410.7 274.7 Q413.8 276.25 417.55 276.25 L420.25 276.05 M432.85 260.75 Q415.0 261.7 402.95 266.05 404.05 269.2 406.65 271.75 408.5 273.6 410.7 274.7 M427.4 249.6 Q416.3 250.6 405.2 253.0 402.2 256.85 402.3 263.2 402.5 264.7 402.95 266.05 L396.85 266.05 Q395.75 269.2 393.15 271.75 391.3 273.6 389.15 274.7 386.0 276.25 382.25 276.25 L379.55 276.05 Q379.55 280.5 383.0 282.65 384.3 283.45 386.1 283.9 390.75 279.15 399.9 277.95 409.05 279.15 413.7 283.9 M386.45 242.15 L386.5 242.15 388.7 232.35 390.05 223.9 390.8 215.5 390.8 210.95 M409.0 215.55 L399.9 216.65 390.8 215.5 M390.05 223.9 L393.45 224.6 393.25 223.85 M397.35 244.2 Q397.75 246.75 399.9 247.2 402.05 246.75 402.45 244.2 M396.45 237.95 L395.6 234.2 Q391.9 233.75 388.7 232.35 M411.1 232.35 Q407.9 233.75 404.2 234.2 L403.35 237.95 M394.6 252.95 Q383.5 250.6 372.45 249.6 L370.55 251.35 369.2 253.2 Q367.05 256.45 366.95 260.5 L366.95 260.75 Q384.8 261.7 396.85 266.05 L397.5 263.2 Q397.6 256.8 394.6 252.95 M366.95 260.75 L366.95 261.15 366.95 261.4 367.1 263.7 367.2 264.05 Q367.6 266.35 368.75 268.35 L368.8 268.45 Q369.8 270.2 371.4 271.75 L372.2 272.5 389.15 274.7 M372.2 272.5 Q375.4 275.35 379.55 276.05 M386.1 283.9 L388.6 297.7 399.9 295.85 399.9 277.95 M372.45 249.6 Q374.9 247.65 377.95 247.2 M388.35 310.75 L388.6 297.7 M399.9 312.3 L399.9 295.85 411.2 297.7" fill="none" stroke="#000000" stroke-linecap="round" stroke-linejoin="round" stroke-opacity="0.5019608" stroke-width="1.0"/>
    <path d="M390.8 210.95 Q393.2 206.8 399.9 206.4 406.6 206.8 409.0 210.95 Z" fill="none" stroke="#000000" stroke-linecap="round" stroke-linejoin="round" stroke-width="1.0"/>
  </g>
</svg>
