<?xml version="1.0" encoding="UTF-8" standalone="no"?>
<svg xmlns:xlink="http://www.w3.org/1999/xlink" height="147.55px" width="367.35px" xmlns="http://www.w3.org/2000/svg">
  <g transform="matrix(1.0, 0.0, 0.0, 1.0, -165.15, -252.45)">
    <path d="M345.7 374.05 L348.35 376.35 Q357.3 383.75 363.5 387.05 365.95 388.35 368.5 389.45 370.4 390.35 372.45 391.05 L372.95 391.25 376.2 392.45 377.7 392.95 381.75 394.1 385.0 394.9 385.35 395.05 390.6 395.7 Q406.05 396.9 428.15 387.85 L440.0 382.05 464.9 369.75 469.8 370.6 502.25 376.55 195.25 264.8 195.35 264.9 224.05 281.2 228.25 283.6 239.55 309.1 239.5 309.15 244.8 321.1 Q256.0 342.25 268.55 351.25 L272.9 354.1 273.3 354.25 276.3 355.7 280.15 357.45 281.7 358.05 284.9 359.25 285.5 359.45 289.5 360.7 294.85 362.05 Q301.85 363.55 313.35 363.55 L316.8 363.55 Q323.9 363.85 332.0 366.75 340.2 369.7 345.7 374.05 M341.9 381.2 Q348.7 384.3 355.3 387.9 361.1 390.9 366.8 393.1 M341.9 381.2 Q335.3 378.35 328.65 376.15 322.0 373.5 315.2 371.45 308.05 369.45 300.6 368.05 294.4 366.6 288.45 364.55 L284.2 363.05 283.55 362.8 280.45 361.5 279.0 360.9 275.1 359.1 272.65 357.8 272.1 357.45 Q269.6 356.2 267.35 354.6 254.45 346.2 247.6 332.55 L236.6 310.5 233.3 303.85 Q228.25 294.0 220.05 287.45 217.05 285.05 213.7 283.2 201.9 274.95 192.85 270.4 L192.6 270.3 Q187.8 268.0 183.85 266.65 L167.85 259.25 Q165.15 258.3 165.8 254.1 166.05 252.4 169.35 253.2 L182.55 258.75 Q189.5 261.5 195.25 264.8 L180.0 262.7 179.9 262.8 179.65 263.25 179.1 263.25 178.75 262.9 178.65 262.4 179.1 262.0 179.55 261.95 180.0 262.35 180.0 262.7 M502.25 376.55 Q508.85 377.75 516.05 380.1 L529.6 384.35 Q532.75 385.85 531.8 387.2 529.65 390.85 526.9 389.95 L509.9 385.35 Q506.0 383.8 500.85 382.5 L500.65 382.4 500.55 382.4 Q490.7 380.1 476.4 378.8 L468.9 378.0 Q458.3 377.75 448.1 382.05 L441.3 384.95 418.55 394.75 Q404.6 400.9 389.35 399.05 L383.85 398.15 383.3 398.1 380.55 397.45 376.5 396.4 374.95 395.95 371.7 394.85 371.05 394.6 366.8 393.1 M502.25 376.55 L515.35 384.8 Q515.5 384.6 515.7 384.5 L516.2 384.5 Q516.5 384.6 516.6 384.85 L516.6 385.3 516.25 385.75 515.7 385.75 515.25 385.45 515.25 384.9 515.35 384.8 M192.85 270.4 Q196.0 271.85 197.15 269.4 198.5 266.8 195.35 264.9" fill="none" stroke="#000000" stroke-linecap="round" stroke-linejoin="round" stroke-width="1.0"/>
    <path d="M345.7 374.05 Q344.65 378.0 341.9 381.2 M366.8 393.1 Q368.4 391.5 368.5 389.45 M440.0 382.05 L441.3 384.95 M468.9 378.0 Q469.65 377.45 469.9 376.15 L470.4 372.15 Q470.5 371.0 469.8 370.6 M500.55 382.4 Q497.25 381.5 498.0 378.85 498.6 375.95 502.25 376.55 M224.05 281.2 Q223.2 281.0 222.6 281.95 L220.4 285.35 Q219.7 286.4 220.05 287.45 M239.5 309.15 L236.6 310.5 M289.5 360.7 Q288.2 362.3 288.45 364.55 M315.2 371.45 Q315.2 367.25 316.8 363.55" fill="none" stroke="#000000" stroke-linecap="round" stroke-linejoin="round" stroke-opacity="0.5019608" stroke-width="1.0"/>
  </g>
</svg>
