<?xml version="1.0" encoding="UTF-8" standalone="no"?>
<svg xmlns:xlink="http://www.w3.org/1999/xlink" height="78.65px" width="48.8px" xmlns="http://www.w3.org/2000/svg">
  <g transform="matrix(1.0, 0.0, 0.0, 1.0, 72.4, -62.85)">
    <path d="M-48.5 88.55 L-50.55 81.15 -50.7 80.45 Q-50.7 78.95 -51.65 77.25 -55.3 70.4 -59.9 67.65 -64.05 64.95 -68.45 67.2 -71.7 69.05 -71.95 72.25 L-72.2 72.25 Q-73.25 67.3 -68.9 64.1 -64.2 61.2 -57.45 65.0 -50.9 69.35 -47.75 76.6 L-46.6 78.1 -46.05 78.8 Q-44.5 82.55 -43.55 86.2 L-44.45 86.65 -45.9 81.8 Q-46.4 80.0 -47.2 79.45 -47.6 79.15 -48.2 79.45 -49.1 80.15 -48.3 82.5 L-46.8 87.75 -48.5 88.55" fill="url(#gradient0)" fill-rule="evenodd" stroke="none"/>
    <path d="M-71.95 72.25 Q-71.7 69.05 -68.45 67.2 -64.05 64.95 -59.9 67.65 -55.3 70.4 -51.65 77.25 -50.7 78.95 -50.7 80.45 L-50.55 81.15 -48.5 88.55 -49.55 88.8 -49.7 88.45 Q-50.2 87.5 -51.2 87.25 L-52.4 87.15 Q-54.15 87.45 -54.4 89.2 L-56.0 83.45 Q-56.05 82.1 -57.7 79.7 -60.9 75.1 -65.3 77.6 L-68.1 77.5 Q-70.95 76.25 -71.95 73.3 L-71.95 72.25" fill="url(#gradient1)" fill-rule="evenodd" stroke="none"/>
    <path d="M-48.5 88.55 L-46.8 87.75 -48.3 82.5 Q-49.1 80.15 -48.2 79.45 -47.6 79.15 -47.2 79.45 -46.4 80.0 -45.9 81.8 L-44.45 86.65 -43.55 86.2 Q-43.15 87.05 -42.9 88.05 -42.75 89.1 -43.05 89.7 L-43.75 90.9 -48.5 93.2 -47.8 91.95 Q-47.5 91.35 -47.75 90.35 -47.95 89.25 -48.5 88.55 M-46.75 81.15 L-47.05 80.6 Q-47.3 80.35 -47.6 80.35 L-47.95 80.8 -48.0 81.5 -47.65 82.05 Q-47.4 82.35 -47.15 82.25 L-46.8 81.9 Q-46.65 81.6 -46.75 81.15" fill="url(#gradient2)" fill-rule="evenodd" stroke="none"/>
    <path d="M-54.4 89.2 Q-54.15 87.45 -52.4 87.15 L-51.2 87.25 Q-50.2 87.5 -49.7 88.45 L-49.55 88.8 Q-49.05 90.0 -48.6 92.85 L-48.5 93.2 -46.95 101.8 -55.05 113.85 Q-55.6 109.55 -54.35 106.7 L-53.9 106.85 -52.05 106.9 -49.4 104.2 -49.4 104.1 -50.4 98.85 -50.35 97.8 Q-50.1 97.5 -49.7 97.35 L-49.7 97.3 -50.7 93.6 Q-51.35 91.5 -52.9 91.95 -53.6 92.1 -53.9 92.65 L-54.4 90.55 -54.4 89.2" fill="url(#gradient3)" fill-rule="evenodd" stroke="none"/>
    <path d="M-36.9 129.05 Q-33.9 130.05 -31.55 121.3 -29.75 113.8 -27.75 108.6 -26.95 106.55 -25.6 105.2 L-25.3 105.0 -23.8 105.45 -23.9 105.75 Q-25.6 107.7 -26.9 113.05 L-27.0 113.45 -27.25 114.6 -27.5 115.75 -27.6 116.35 -28.05 118.6 -28.4 120.3 -29.3 123.75 -30.25 126.2 -31.1 127.9 -32.05 129.15 Q-32.7 129.85 -33.5 130.15 -34.85 130.4 -36.9 129.05" fill="url(#gradient4)" fill-rule="evenodd" stroke="none"/>
    <path d="M-36.9 129.05 Q-34.85 130.4 -33.5 130.15 -32.7 129.85 -32.05 129.15 L-31.1 127.9 -30.25 126.2 -29.8 126.45 -30.65 128.4 Q-33.35 133.9 -37.1 131.95 L-36.95 131.3 -37.2 129.85 Q-37.35 129.45 -37.85 129.3 L-38.05 129.25 -38.2 128.1 -36.9 129.05" fill="url(#gradient5)" fill-rule="evenodd" stroke="none"/>
    <path d="M-52.2 110.95 L-47.75 104.25 -46.7 103.35 -46.4 103.7 Q-49.45 107.05 -49.35 110.85 -48.95 120.3 -39.9 126.5 L-39.65 128.05 -40.75 128.95 Q-50.8 123.9 -52.2 114.1 -52.45 111.55 -52.2 110.95" fill="url(#gradient6)" fill-rule="evenodd" stroke="none"/>
    <path d="M-52.2 110.95 Q-52.45 111.55 -52.2 114.1 -50.8 123.9 -40.75 128.95 L-39.4 137.1 Q-40.4 137.1 -41.65 136.1 L-40.8 134.4 -41.3 131.15 -44.7 130.4 Q-44.85 129.75 -45.8 129.05 -53.4 121.75 -54.8 114.85 L-52.2 110.95" fill="url(#gradient7)" fill-rule="evenodd" stroke="none"/>
    <path d="M-41.65 136.1 Q-42.7 137.85 -44.05 139.3 -46.2 141.65 -48.9 141.5 -50.3 141.4 -51.9 140.5 -54.2 139.1 -57.0 136.05 -61.4 131.15 -63.7 130.65 L-63.65 130.3 -63.45 128.85 Q-62.35 129.15 -61.25 129.6 -58.1 130.9 -54.35 134.5 L-49.65 138.45 Q-44.2 142.35 -41.3 131.15 L-40.8 134.4 -41.65 136.1" fill="url(#gradient8)" fill-rule="evenodd" stroke="none"/>
    <path d="M-49.65 138.45 Q-47.0 138.7 -44.7 130.4 L-41.3 131.15 Q-44.2 142.35 -49.65 138.45" fill="url(#gradient9)" fill-rule="evenodd" stroke="none"/>
    <path d="M-52.2 110.95 Q-52.45 111.55 -52.2 114.1 -50.8 123.9 -40.75 128.95 L-39.4 137.1 Q-40.4 137.1 -41.65 136.1 L-40.8 134.4 -41.3 131.15 Q-44.2 142.35 -49.65 138.45 -47.0 138.7 -44.7 130.4 -44.85 129.75 -45.8 129.05 -53.4 121.75 -54.8 114.85 L-52.2 110.95 M-25.3 105.0 L-23.6 105.45 -23.9 105.75 Q-25.6 107.7 -26.9 113.05 L-27.0 113.45 -27.25 114.6 -27.5 115.75 -27.6 116.35 Q-28.8 122.2 -29.3 123.75 L-30.25 126.2 -31.1 127.9 -32.05 129.15 Q-32.7 129.85 -33.5 130.15 -34.85 130.4 -36.9 129.05 -33.9 130.05 -31.55 121.3 -29.75 113.8 -27.75 108.6 -26.95 106.55 -25.6 105.2 L-25.3 105.0 M-71.95 73.3 Q-72.2 69.35 -68.45 67.2 -64.05 64.95 -59.9 67.65 -55.3 70.4 -51.65 77.25 -50.7 78.95 -50.7 80.45 L-50.55 81.15 -48.5 88.55 -49.55 88.8 Q-49.05 90.0 -48.6 92.85 L-48.5 93.2 -46.95 101.8 -55.05 113.85 Q-55.65 109.25 -54.15 106.3 L-53.9 106.85 -52.05 106.9 -49.4 104.2 -49.4 104.1 -50.4 98.85 -50.35 97.8 Q-50.1 97.5 -49.7 97.35 L-49.7 97.3 -50.7 93.6 Q-51.35 91.5 -52.9 91.95 -53.6 92.1 -53.9 92.65 L-54.4 90.55 -54.4 89.2 Q-55.55 89.5 -56.35 90.15 -58.3 91.6 -57.9 94.55 -57.05 99.3 -53.0 100.05 L-52.8 100.8 Q-58.05 100.15 -59.0 94.8 L-59.15 94.0 Q-59.8 89.5 -54.8 87.65 L-56.0 83.45 Q-56.05 82.1 -57.7 79.7 -60.9 75.1 -65.3 77.6 L-68.1 77.5 Q-70.95 76.25 -71.95 73.3" fill="#000000" fill-opacity="0.2" fill-rule="evenodd" stroke="none"/>
  </g>
  <defs>
    <linearGradient gradientTransform="matrix(0.0, 0.0157, -0.0176, 0.0, -57.95, 75.7)" gradientUnits="userSpaceOnUse" id="gradient0" spreadMethod="pad" x1="-819.2" x2="819.2">
      <stop offset="0.0" stop-color="#000000" stop-opacity="0.2509804"/>
      <stop offset="1.0" stop-color="#000000" stop-opacity="0.0"/>
    </linearGradient>
    <linearGradient gradientTransform="matrix(0.0, 0.014, -0.0143, 0.0, -60.2, 77.65)" gradientUnits="userSpaceOnUse" id="gradient1" spreadMethod="pad" x1="-819.2" x2="819.2">
      <stop offset="0.0" stop-color="#000000" stop-opacity="0.2509804"/>
      <stop offset="1.0" stop-color="#000000" stop-opacity="0.0"/>
    </linearGradient>
    <linearGradient gradientTransform="matrix(0.0, 0.0085, -0.0035, 0.0, -45.75, 86.2)" gradientUnits="userSpaceOnUse" id="gradient2" spreadMethod="pad" x1="-819.2" x2="819.2">
      <stop offset="0.0" stop-color="#000000" stop-opacity="0.2509804"/>
      <stop offset="1.0" stop-color="#000000" stop-opacity="0.0"/>
    </linearGradient>
    <linearGradient gradientTransform="matrix(0.0, 0.0163, -0.0051, 0.0, -51.1, 100.5)" gradientUnits="userSpaceOnUse" id="gradient3" spreadMethod="pad" x1="-819.2" x2="819.2">
      <stop offset="0.0" stop-color="#000000" stop-opacity="0.2509804"/>
      <stop offset="1.0" stop-color="#000000" stop-opacity="0.0"/>
    </linearGradient>
    <linearGradient gradientTransform="matrix(0.0, 0.0154, -0.008, 0.0, -30.3, 117.6)" gradientUnits="userSpaceOnUse" id="gradient4" spreadMethod="pad" x1="-819.2" x2="819.2">
      <stop offset="0.0" stop-color="#000000" stop-opacity="0.2509804"/>
      <stop offset="1.0" stop-color="#000000" stop-opacity="0.0"/>
    </linearGradient>
    <linearGradient gradientTransform="matrix(0.0, 0.0038, -0.0051, 0.0, -34.0, 129.3)" gradientUnits="userSpaceOnUse" id="gradient5" spreadMethod="pad" x1="-819.2" x2="819.2">
      <stop offset="0.0" stop-color="#000000" stop-opacity="0.2509804"/>
      <stop offset="1.0" stop-color="#000000" stop-opacity="0.0"/>
    </linearGradient>
    <linearGradient gradientTransform="matrix(0.0, 0.0156, -0.0077, 0.0, -45.95, 116.15)" gradientUnits="userSpaceOnUse" id="gradient6" spreadMethod="pad" x1="-819.2" x2="819.2">
      <stop offset="0.0" stop-color="#000000" stop-opacity="0.2509804"/>
      <stop offset="1.0" stop-color="#000000" stop-opacity="0.0"/>
    </linearGradient>
    <linearGradient gradientTransform="matrix(0.0, 0.016, -0.0094, 0.0, -47.1, 124.0)" gradientUnits="userSpaceOnUse" id="gradient7" spreadMethod="pad" x1="-819.2" x2="819.2">
      <stop offset="0.0" stop-color="#000000" stop-opacity="0.2509804"/>
      <stop offset="1.0" stop-color="#000000" stop-opacity="0.0"/>
    </linearGradient>
    <linearGradient gradientTransform="matrix(0.0, 0.0077, -0.014, 0.0, -52.25, 135.15)" gradientUnits="userSpaceOnUse" id="gradient8" spreadMethod="pad" x1="-819.2" x2="819.2">
      <stop offset="0.0" stop-color="#000000" stop-opacity="0.2509804"/>
      <stop offset="1.0" stop-color="#000000" stop-opacity="0.0"/>
    </linearGradient>
    <linearGradient gradientTransform="matrix(0.0, 0.0055, -0.0051, 0.0, -45.5, 134.9)" gradientUnits="userSpaceOnUse" id="gradient9" spreadMethod="pad" x1="-819.2" x2="819.2">
      <stop offset="0.0" stop-color="#000000" stop-opacity="0.2509804"/>
      <stop offset="1.0" stop-color="#000000" stop-opacity="0.0"/>
    </linearGradient>
  </defs>
</svg>
