<?xml version="1.0" encoding="UTF-8" standalone="no"?>
<svg xmlns:xlink="http://www.w3.org/1999/xlink" height="77.1px" width="42.4px" xmlns="http://www.w3.org/2000/svg">
  <g transform="matrix(1.0, 0.0, 0.0, 1.0, -327.55, -366.4)">
    <path d="M327.6 367.2 Q327.7 366.45 327.95 366.4 L330.75 367.2 Q327.95 366.75 327.55 367.55 L327.6 367.2 M336.55 372.85 L335.95 373.25 Q335.55 373.35 335.2 373.05 334.85 372.85 334.75 372.45 334.7 372.05 335.0 371.7 335.2 371.4 335.6 371.3 L336.35 371.5 336.7 372.15 Q336.8 372.55 336.55 372.85 M343.65 379.4 Q345.1 379.85 346.35 378.5 347.15 377.55 347.15 376.45 346.95 376.05 347.5 375.85 L347.85 375.75 348.1 376.0 348.95 378.45 Q350.75 378.45 351.8 380.15 353.35 379.1 355.7 379.45 356.15 378.0 357.55 377.45 358.4 377.1 358.55 376.3 359.1 376.4 359.1 377.05 359.1 377.55 358.3 378.2 357.3 379.25 358.3 380.5 L359.15 381.35 359.45 381.45 360.1 382.05 360.5 382.95 363.05 398.7 Q362.25 400.0 362.5 401.4 L363.1 405.0 Q363.1 405.4 362.6 405.45 362.85 405.45 362.95 406.15 L368.8 439.2 Q369.65 439.1 369.95 439.45 370.1 440.7 369.1 440.85 L369.4 442.65 Q367.5 443.85 365.3 443.35 L357.2 396.4 357.2 396.35 Q355.9 396.15 354.75 396.85 L356.65 405.25 356.75 405.6 Q356.75 406.35 356.2 406.55 L355.4 406.45 353.9 405.85 353.35 405.55 Q352.9 405.2 352.8 404.7 L351.75 401.3 Q351.05 401.35 350.65 400.5 L348.9 396.15 348.2 394.3 Q347.55 392.75 346.0 393.05 L344.35 393.2 Q342.1 393.0 341.05 391.45 339.6 389.15 339.7 386.7 340.15 384.7 342.2 383.7 343.6 383.3 343.65 382.05 343.55 381.2 342.7 380.5 L342.5 380.1 342.6 379.95 Q343.1 379.2 343.65 379.4 M333.55 378.65 L329.75 379.7 Q329.3 379.95 329.1 379.2 L328.85 377.1 Q329.3 379.3 333.55 378.65 M343.05 392.3 Q344.6 392.8 345.8 391.8 346.65 391.05 346.4 389.8 L345.15 386.1 Q344.2 385.8 342.8 386.5 342.15 386.95 341.8 387.7 L341.4 387.85 Q341.15 387.7 341.4 387.15 342.05 385.45 344.55 385.05 L343.65 384.65 Q341.9 384.45 340.85 386.15 340.15 387.45 341.0 389.85 341.7 391.55 343.05 392.3 M354.9 381.45 Q354.5 380.55 353.15 380.7 351.8 380.95 351.55 382.0 L351.8 383.6 Q350.55 384.3 350.35 385.4 L352.1 385.1 353.1 384.9 353.9 384.75 354.4 384.7 354.65 384.65 354.7 384.65 354.8 384.65 354.95 384.6 355.05 384.6 355.4 384.5 357.35 384.15 Q356.8 383.25 355.15 383.0 L354.9 381.45 M347.15 385.65 L347.55 385.75 347.9 385.5 347.95 385.1 347.75 384.75 347.3 384.65 Q347.1 384.7 347.0 384.85 L346.85 385.25 347.15 385.65 M348.65 381.8 L349.1 381.85 349.5 381.65 349.6 381.15 349.35 380.8 348.85 380.7 Q348.65 380.7 348.5 380.95 L348.4 381.4 348.65 381.8" fill="#ffffff" fill-rule="evenodd" stroke="none"/>
  </g>
</svg>
