<?xml version="1.0" encoding="UTF-8" standalone="no"?>
<svg xmlns:xlink="http://www.w3.org/1999/xlink" height="58.35px" width="32.65px" xmlns="http://www.w3.org/2000/svg">
  <g transform="matrix(1.0, 0.0, 0.0, 1.0, -320.65, -353.65)">
    <path d="M343.05 353.85 L344.35 353.65 351.3 392.8 350.45 395.55 353.3 412.0 351.9 411.7 349.45 397.75 Q349.1 396.4 347.15 396.45 L344.35 396.95 Q341.0 396.75 340.4 394.1 L338.4 382.85 337.05 380.7 Q332.9 380.7 328.5 379.05 326.0 380.0 324.35 379.8 L322.9 380.05 Q322.1 373.6 320.65 367.25 L321.8 366.55 322.0 366.45 Q322.7 365.15 324.05 364.75 330.55 363.7 338.2 368.7 343.9 369.45 343.8 364.7 L344.25 364.6 342.5 354.65 343.05 353.85 M341.8 382.05 Q340.4 382.55 340.55 384.05 L342.2 393.15 Q342.55 394.7 344.5 394.8 L347.35 394.3 Q348.85 394.25 348.95 392.85 L347.15 382.45 Q346.8 380.9 344.85 381.5 L341.8 382.05" fill="#ffffff" fill-rule="evenodd" stroke="none"/>
  </g>
</svg>
