<?xml version="1.0" encoding="UTF-8" standalone="no"?>
<svg xmlns:xlink="http://www.w3.org/1999/xlink" height="91.95px" width="58.95px" xmlns="http://www.w3.org/2000/svg">
  <g transform="matrix(1.0, 0.0, 0.0, 1.0, -317.55, -332.25)">
    <path d="M359.85 355.85 L360.35 354.05 Q361.25 351.9 363.7 350.55 L367.65 373.05 363.0 373.9 359.85 355.85 M344.95 364.5 L347.35 381.5 345.95 379.6 Q343.9 378.0 340.55 379.0 338.95 379.95 337.8 381.2 L340.2 395.25 341.45 396.8 Q342.65 398.8 342.25 400.8 341.85 402.6 342.1 404.5 L342.35 405.9 Q342.6 407.0 344.45 408.3 346.35 409.7 348.4 409.35 350.5 408.95 351.65 407.05 352.8 405.2 352.6 404.1 L350.75 393.45 353.6 392.3 354.4 391.65 358.8 416.65 354.25 424.0 Q354.2 421.35 352.35 418.95 349.95 415.8 345.65 417.75 344.85 418.05 343.95 418.65 L343.1 419.0 341.5 418.8 340.95 418.5 Q335.85 416.0 332.1 407.55 330.2 403.25 329.3 399.55 L334.0 393.2 336.05 392.85 335.3 388.55 335.8 384.95 335.95 384.5 335.15 380.0 331.1 378.15 Q326.65 376.25 324.8 376.15 L321.15 376.85 Q317.5 377.2 317.6 376.05 317.35 375.35 318.45 370.8 319.5 365.95 322.35 364.95 L328.55 364.3 Q331.1 364.1 333.95 366.85 336.95 369.6 338.9 369.45 341.45 369.35 343.5 366.9 L344.95 364.5 M372.5 400.4 L367.85 401.25 364.65 383.25 369.35 382.4 372.5 400.4 M339.4 333.3 L342.75 352.15 322.7 355.7 319.15 335.3 336.4 332.25 339.4 333.3 M368.55 410.75 L374.15 409.75 376.5 423.0 369.7 424.2 370.45 421.25 368.55 410.75" fill="#ffffff" fill-rule="evenodd" stroke="none"/>
  </g>
</svg>
