<?xml version="1.0" encoding="UTF-8" standalone="no"?>
<svg xmlns:xlink="http://www.w3.org/1999/xlink" height="20.0px" width="45.5px" xmlns="http://www.w3.org/2000/svg">
  <g transform="matrix(1.0, 0.0, 0.0, 1.0, -377.45, -186.0)">
    <path d="M377.45 189.6 L380.65 186.0 382.45 203.7 377.45 199.0 377.45 189.6 M383.8 186.65 Q385.0 186.5 386.15 186.65 392.15 187.25 396.15 194.8 390.85 191.0 385.55 191.25 383.2 189.05 383.8 186.65 M415.3 186.6 L416.75 186.65 Q417.35 189.05 415.0 191.25 409.7 191.0 404.4 194.8 408.35 187.3 414.25 186.65 L415.3 186.6 M422.95 189.75 L422.95 199.15 417.95 203.85 419.75 186.15 422.95 189.75 M399.9 206.0 L395.6 202.7 399.95 192.55 404.8 202.85 399.9 206.0" fill="#000000" fill-rule="evenodd" stroke="none"/>
  </g>
</svg>
