<?xml version="1.0" encoding="UTF-8" standalone="no"?>
<svg xmlns:xlink="http://www.w3.org/1999/xlink" height="18.4px" width="21.1px" xmlns="http://www.w3.org/2000/svg">
  <g transform="matrix(1.0, 0.0, 0.0, 1.0, -376.6, -185.0)">
    <path d="M385.05 198.85 L397.2 198.85 397.2 193.45 385.2 189.05 Q385.9 187.35 384.4 186.4 382.95 185.4 381.3 185.5 379.65 185.6 378.65 186.0 L378.65 188.05 M385.05 198.85 Q385.1 201.4 383.75 202.4 383.05 202.9 381.65 202.9 L378.65 202.85 378.65 200.45 Q377.5 198.1 377.2 195.75 L377.1 193.95 377.25 192.45 Q377.55 190.25 378.65 188.05" fill="none" stroke="#000000" stroke-linecap="round" stroke-linejoin="round" stroke-width="1.0"/>
    <path d="M385.2 189.05 L383.5 188.4 381.9 188.4 381.9 192.6 381.9 195.7 381.9 198.85 385.05 198.85 M378.65 188.05 L380.25 189.85 380.25 192.6 381.9 192.6 M380.25 192.6 L380.25 194.25 380.25 195.95 381.9 195.7 M377.1 193.95 L380.25 194.25 M380.25 195.95 L380.25 199.35 378.65 200.45" fill="none" stroke="#000000" stroke-linecap="round" stroke-linejoin="round" stroke-opacity="0.49803922" stroke-width="1.0"/>
  </g>
</svg>
