<?xml version="1.0" encoding="UTF-8" standalone="no"?>
<svg xmlns:xlink="http://www.w3.org/1999/xlink" height="46.0px" width="38.4px" xmlns="http://www.w3.org/2000/svg">
  <g transform="matrix(1.0, 0.0, 0.0, 1.0, -380.7, -177.6)">
    <path d="M381.2 191.0 Q381.25 182.2 381.95 178.1 381.5 186.7 382.6 195.25 L383.95 200.0 Q386.95 209.5 392.0 217.25 L393.25 219.15 Q400.0 218.15 406.5 219.2 L407.6 217.25 Q412.35 208.45 415.3 199.5 L416.55 195.3 Q418.15 186.7 417.85 178.1 418.55 182.2 418.6 191.0 L418.6 191.25 418.6 191.45 418.45 195.2 Q417.05 200.0 415.3 204.35 412.45 211.35 409.0 217.25 L407.65 219.4 407.8 219.4 405.85 221.35 Q399.7 224.85 393.6 221.35 L391.75 219.4 391.85 219.4 390.35 217.25 Q386.6 211.6 383.95 205.05 382.9 202.4 382.2 199.55 L381.45 196.05 381.45 196.0 381.45 195.95 381.35 195.15 381.35 195.05 Q381.2 193.3 381.2 191.45 L381.2 191.25 381.2 191.0 M381.45 195.95 L381.4 195.55 381.35 195.15" fill="none" stroke="#000000" stroke-linecap="round" stroke-linejoin="round" stroke-width="1.0"/>
    <path d="M407.65 219.4 L406.5 219.2 M393.25 219.15 L391.85 219.4" fill="none" stroke="#000000" stroke-linecap="round" stroke-linejoin="round" stroke-opacity="0.5019608" stroke-width="1.0"/>
  </g>
</svg>
