<?xml version="1.0" encoding="UTF-8" standalone="no"?>
<svg xmlns:xlink="http://www.w3.org/1999/xlink" height="25.7px" width="83.8px" xmlns="http://www.w3.org/2000/svg">
  <g transform="matrix(1.0, 0.0, 0.0, 1.0, -358.05, -164.15)">
    <path d="M399.9 164.65 L400.65 164.75 401.05 164.9 402.2 165.55 Q404.0 168.7 407.05 168.9 411.25 168.8 414.65 170.0 416.8 170.75 418.65 172.05 419.05 176.5 418.65 180.9 L418.65 185.35 440.8 185.35 Q444.9 187.6 419.1 188.9 L414.95 189.1 399.9 189.35 384.1 189.0 380.7 188.85 Q355.35 187.3 359.0 185.3 L381.15 185.3 381.15 180.9 Q380.6 176.6 381.15 172.0 382.55 171.05 384.1 170.35 387.9 168.7 392.75 168.85 395.8 168.65 397.6 165.55 L397.6 165.5 Q398.75 164.6 399.9 164.65 L399.9 164.7 400.65 164.75 M397.6 165.55 Q398.75 164.7 399.9 164.7" fill="none" stroke="#000000" stroke-linecap="round" stroke-linejoin="round" stroke-width="1.0"/>
    <path d="M389.0 175.85 Q396.75 174.4 399.15 168.0 M418.65 180.9 L381.15 180.9 M381.15 185.3 L418.65 185.35 M410.8 175.9 Q403.05 174.45 400.65 168.05" fill="none" stroke="#000000" stroke-linecap="round" stroke-linejoin="round" stroke-opacity="0.49803922" stroke-width="1.0"/>
  </g>
</svg>
