<?xml version="1.0" encoding="UTF-8" standalone="no"?>
<svg xmlns:xlink="http://www.w3.org/1999/xlink" height="39.15px" width="41.3px" xmlns="http://www.w3.org/2000/svg">
  <g transform="matrix(1.0, 0.0, 0.0, 1.0, -379.3, -164.6)">
    <path d="M402.95 168.05 Q402.85 165.6 399.95 165.1 397.05 165.6 396.95 168.05 M402.95 168.05 L404.15 168.05 404.15 168.7 Q417.1 170.15 419.45 181.35 L420.1 181.45 419.7 186.85 418.6 186.5 418.2 186.5 Q411.65 184.9 403.5 184.45 L401.8 194.6 404.0 203.25 395.9 203.25 398.1 194.6 396.3 184.45 Q388.2 184.9 381.7 186.5 L381.3 186.5 380.2 186.85 379.8 181.45 380.45 181.35 Q382.8 170.15 395.75 168.7 L395.75 168.05 396.95 168.05 M381.65 181.1 L380.45 181.35 M418.25 181.1 L419.45 181.35" fill="none" stroke="#000000" stroke-linecap="round" stroke-linejoin="round" stroke-width="1.0"/>
    <path d="M396.95 168.05 L402.95 168.05 M395.75 168.7 L395.75 179.0 399.95 179.05 404.15 179.0 404.15 168.7 M398.25 181.65 Q398.25 181.1 398.75 180.7 399.3 180.35 400.05 180.35 400.8 180.35 401.3 180.7 401.85 181.1 401.85 181.65 401.85 182.2 401.3 182.55 400.8 182.95 400.05 182.95 399.3 182.95 398.75 182.55 398.25 182.2 398.25 181.65 M403.5 184.45 L399.95 184.3 396.3 184.45 395.75 179.0 Q388.6 179.3 381.65 181.1 M403.5 184.45 L404.15 179.0 Q411.3 179.3 418.25 181.1" fill="none" stroke="#000000" stroke-linecap="round" stroke-linejoin="round" stroke-opacity="0.5019608" stroke-width="1.0"/>
  </g>
</svg>
