<?xml version="1.0" encoding="UTF-8" standalone="no"?>
<svg xmlns:xlink="http://www.w3.org/1999/xlink" height="68.25px" width="45.35px" xmlns="http://www.w3.org/2000/svg">
  <g transform="matrix(1.0, 0.0, 0.0, 1.0, -377.3, -162.25)">
    <path d="M394.05 163.75 L395.25 163.6 Q395.1 163.15 394.6 163.25 394.1 163.3 394.05 163.75 L389.75 164.3 388.5 164.45 386.5 164.8 385.6 165.0 383.45 165.55 383.35 166.25 383.4 167.1 383.05 167.8 382.55 170.9 Q382.45 175.65 381.0 179.9 L380.75 181.5 380.85 182.3 Q380.8 182.85 380.55 183.05 L379.5 189.15 379.6 189.95 379.2 190.7 379.1 191.35 M399.95 163.25 L399.25 163.3 398.05 163.4 397.65 163.4 395.25 163.6 M386.5 164.8 Q386.35 164.35 385.9 164.45 385.55 164.5 385.6 165.0 M389.75 164.3 Q389.55 163.8 389.05 163.9 388.55 163.95 388.5 164.45 M399.95 163.25 L400.65 163.3 400.7 163.3 Q400.6 162.8 399.95 162.75 399.35 162.8 399.25 163.3 M420.8 191.35 L420.7 190.7 Q420.4 190.5 420.35 189.95 L420.45 189.15 419.4 183.05 Q419.15 182.85 419.1 182.3 419.05 181.75 419.15 181.5 L418.85 179.9 418.85 179.85 Q417.45 175.7 417.4 170.95 L416.85 167.8 Q416.55 167.65 416.5 167.1 L416.6 166.25 416.45 165.55 414.35 165.0 413.35 164.8 411.4 164.45 410.15 164.3 405.85 163.75 404.65 163.6 400.7 163.3 M383.35 166.25 Q382.55 166.25 382.45 166.85 382.35 167.6 382.95 167.8 L383.05 167.8 M380.75 181.5 Q380.0 181.5 379.9 182.1 379.75 182.95 380.55 183.05 M379.5 189.15 Q378.7 189.15 378.6 189.75 378.5 190.55 379.2 190.7 M378.55 192.9 Q378.25 193.05 378.25 193.3 L378.25 193.4 378.5 194.05 379.0 194.25 379.25 193.65 379.25 193.5 379.05 192.65 Q378.7 192.7 378.55 192.9 L378.6 192.1 Q378.05 192.05 377.95 192.55 377.85 193.05 378.25 193.3 M420.8 191.35 Q421.1 191.3 421.3 192.1 421.9 192.05 421.95 192.55 422.05 193.05 421.6 193.3 L421.6 193.4 421.45 194.05 421.45 194.4 421.45 198.75 Q422.1 198.9 422.15 199.55 422.15 200.15 421.45 200.3 L421.45 206.95 Q422.0 207.0 422.0 207.7 422.05 208.4 421.45 208.5 L421.45 214.15 Q422.0 214.2 422.0 214.9 422.05 215.55 421.45 215.65 L421.45 218.05 Q419.5 226.1 399.95 230.0 380.35 226.1 378.5 218.05 L378.5 215.65 Q377.85 215.55 377.9 214.9 377.95 214.2 378.5 214.15 L378.5 208.5 Q377.85 208.4 377.9 207.7 377.95 207.0 378.5 206.95 L378.5 200.3 378.45 200.3 Q377.7 200.15 377.8 199.55 377.85 198.95 378.45 198.8 L378.5 198.75 378.5 194.4 378.5 194.05 M378.6 192.1 Q378.75 191.3 379.1 191.35 M414.35 165.0 Q414.4 164.5 413.95 164.45 413.6 164.35 413.35 164.8 M411.4 164.45 Q411.35 163.95 410.9 163.9 410.35 163.8 410.15 164.3 M405.85 163.75 L405.35 163.25 Q404.85 163.15 404.65 163.6 M416.85 167.8 Q417.6 167.7 417.45 166.85 417.4 166.25 416.6 166.25 M419.4 183.05 Q420.15 182.95 420.0 182.1 419.9 181.5 419.15 181.5 M420.7 190.7 Q421.4 190.55 421.3 189.75 421.15 189.15 420.45 189.15 M421.45 194.05 L420.9 194.25 Q420.6 194.0 420.7 193.5 420.7 192.95 420.85 192.65 421.15 192.7 421.4 192.9 L421.3 192.1 M421.6 193.3 L421.4 192.9 M421.45 198.75 L421.45 200.3 M421.45 206.95 L421.45 208.5 M421.45 214.15 L421.45 215.65 M399.95 229.5 L399.95 230.0 M378.5 200.3 L378.5 198.75 M378.5 208.5 L378.5 206.95 M378.5 215.65 L378.5 214.15" fill="none" stroke="#000000" stroke-linecap="round" stroke-linejoin="round" stroke-width="1.0"/>
    <path d="M390.65 166.75 L390.15 166.85 389.75 166.5 389.75 165.95 Q389.8 165.6 390.1 165.45 L390.6 165.35 391.0 165.65 391.0 166.25 390.65 166.75 M379.1 191.35 L379.1 191.55 379.65 192.2 380.55 192.6 381.25 191.45 Q381.15 189.85 381.3 188.45 381.45 187.25 382.05 186.55 382.55 185.95 383.1 186.15 383.85 186.45 383.7 187.4 383.55 188.35 383.05 188.55 383.15 187.55 382.9 187.6 382.5 187.6 382.45 188.65 382.4 189.8 383.2 189.75 L397.35 190.55 396.85 185.3 397.5 185.0 397.95 182.45 Q396.6 183.6 394.85 183.5 392.9 183.6 391.35 181.7 395.15 182.15 396.85 179.9 398.6 177.6 397.75 174.7 397.3 173.2 396.1 172.8 L394.35 172.9 Q393.6 173.3 393.5 174.25 393.4 174.95 394.05 175.1 L395.25 174.7 Q394.9 176.4 393.05 176.35 391.95 176.35 391.45 175.35 L391.2 174.45 390.6 174.6 390.05 174.3 Q389.65 173.8 390.2 173.45 390.15 173.85 390.55 173.9 L391.15 173.45 Q391.25 172.5 392.0 171.75 393.75 170.35 395.55 170.65 397.5 170.95 398.75 172.4 398.8 170.95 397.35 170.15 397.3 166.9 399.95 164.25 L399.95 163.25 M386.05 166.1 L386.1 166.7 385.8 167.2 385.4 167.3 385.1 167.0 385.1 166.35 385.35 165.9 Q385.55 165.7 385.75 165.75 L386.05 166.1 M392.55 172.8 L392.8 172.85 392.9 173.1 392.8 173.35 392.55 173.4 392.35 173.35 392.25 173.1 392.35 172.85 392.55 172.8 M403.8 164.55 L403.25 164.35 402.7 164.55 402.45 165.1 402.7 165.65 Q402.9 165.95 403.25 165.95 L403.8 165.65 404.0 165.1 403.8 164.55 M397.2 164.55 L397.45 165.1 397.2 165.65 396.65 165.95 Q396.35 165.95 396.1 165.65 L395.85 165.1 396.1 164.55 396.65 164.35 397.2 164.55 M399.45 168.9 L399.95 169.05 400.45 168.9 400.65 168.4 400.45 167.9 399.95 167.7 399.45 167.9 399.25 168.4 399.45 168.9 M399.95 169.05 L399.95 178.75 400.5 178.95 400.7 179.5 400.5 180.05 399.95 180.3 399.95 183.75 402.4 185.0 402.0 182.45 Q403.3 183.6 405.1 183.5 407.0 183.6 408.6 181.7 404.8 182.15 403.0 179.9 401.3 177.6 402.15 174.7 402.6 173.2 403.85 172.8 L405.6 172.9 Q406.3 173.3 406.45 174.25 406.5 174.95 405.9 175.1 405.3 175.15 404.65 174.7 405.05 176.4 406.85 176.35 407.95 176.35 408.4 175.35 L408.7 174.45 Q408.9 174.75 409.3 174.6 L409.85 174.3 Q410.25 173.8 409.7 173.45 409.8 173.85 409.35 173.9 408.9 173.9 408.75 173.45 408.65 172.5 407.85 171.75 406.2 170.35 404.35 170.65 402.35 170.95 401.15 172.4 401.1 170.95 402.55 170.15 402.65 166.9 399.95 164.25 L399.95 167.7 M382.45 190.4 Q381.75 190.5 381.65 191.3 381.5 192.05 382.2 192.3 382.75 192.2 382.85 191.5 383.0 190.65 382.45 190.4 M380.55 192.6 L379.85 194.2 Q379.85 196.15 380.6 197.9 379.7 199.35 380.15 201.4 380.45 202.9 381.45 202.85 382.2 202.9 382.35 201.75 382.4 200.55 381.9 200.4 381.75 201.4 381.3 201.0 380.9 200.4 381.0 199.75 381.15 199.05 381.65 199.05 L394.35 200.3 394.35 202.2 396.15 202.2 396.15 204.5 397.65 204.5 397.65 214.75 399.95 215.0 399.95 193.1 399.35 192.85 399.1 192.3 Q399.1 191.9 399.35 191.65 399.6 191.4 399.95 191.4 L399.95 187.15 399.35 186.9 399.1 186.3 Q399.1 185.95 399.35 185.7 399.6 185.45 399.95 185.45 L399.95 183.75 397.5 185.0 M380.75 193.3 Q380.2 193.6 380.2 194.15 380.1 194.9 380.6 195.1 L380.95 194.2 380.75 193.3 M381.45 196.25 Q380.8 196.4 380.75 197.15 380.75 197.9 381.35 198.05 381.85 197.9 381.9 197.25 381.95 196.4 381.45 196.25 M381.25 195.45 L397.6 196.9 397.25 194.15 381.5 192.95 Q381.2 194.2 381.25 195.45 M399.95 178.75 Q399.6 178.75 399.4 178.95 399.15 179.2 399.15 179.5 399.15 179.85 399.4 180.05 L399.95 180.3 M399.95 215.0 L402.25 214.75 402.25 204.5 403.75 204.5 403.75 202.2 405.55 202.2 405.55 200.3 Q412.1 200.2 418.25 199.05 418.75 199.05 418.85 199.75 418.95 200.4 418.65 201.0 418.15 201.4 418.0 200.4 417.5 200.55 417.6 201.75 417.75 202.9 418.5 202.85 419.4 202.9 419.8 201.4 420.2 199.35 419.35 197.9 420.0 196.15 420.0 194.2 L419.4 192.6 418.65 191.45 418.6 188.45 Q418.4 187.25 417.85 186.55 417.4 185.95 416.75 186.15 416.1 186.45 416.2 187.4 416.35 188.35 416.9 188.55 416.7 187.55 417.0 187.6 417.4 187.6 417.45 188.65 417.55 189.8 416.7 189.75 L402.6 190.55 403.0 185.3 402.4 185.0 M393.95 182.1 L394.3 182.2 394.4 182.55 394.3 182.85 393.95 183.0 393.6 182.85 393.5 182.55 393.6 182.2 393.95 182.1 M385.2 191.65 Q385.1 192.45 385.75 192.65 386.3 192.6 386.4 191.9 386.6 191.0 386.05 190.85 385.3 190.9 385.2 191.65 M385.25 196.8 Q384.6 196.95 384.55 197.65 384.55 198.45 385.15 198.55 385.65 198.45 385.7 197.8 385.75 196.9 385.25 196.8 M391.2 192.2 Q391.35 191.35 390.85 191.2 390.15 191.25 390.05 192.0 389.95 192.75 390.55 193.0 391.1 192.95 391.2 192.2 M403.95 191.45 L403.35 191.65 Q403.1 191.95 403.1 192.35 L403.35 192.95 403.95 193.15 404.55 192.95 404.8 192.35 404.55 191.65 403.95 191.45 M399.95 185.45 Q400.35 185.45 400.55 185.7 L400.8 186.3 400.55 186.9 399.95 187.15 M399.95 191.4 Q400.35 191.4 400.55 191.65 L400.8 192.3 400.55 192.85 399.95 193.1 M396.0 191.45 L396.6 191.65 396.85 192.35 396.6 192.95 396.0 193.15 395.4 192.95 Q395.1 192.65 395.1 192.35 395.1 191.95 395.4 191.65 L396.0 191.45 M402.7 194.15 L418.35 192.95 Q418.7 194.2 418.7 195.45 L402.35 196.9 402.7 194.15 M410.15 165.95 L409.85 165.45 409.35 165.35 Q409.05 165.4 408.95 165.65 L408.9 166.25 Q408.95 166.6 409.25 166.75 L409.75 166.85 410.1 166.5 410.15 165.95 M413.9 166.1 Q413.75 166.45 413.85 166.7 L414.15 167.2 414.5 167.3 414.8 167.0 414.85 166.35 414.55 165.9 Q414.35 165.7 414.2 165.75 L413.9 166.1 M407.15 172.85 L407.05 173.1 407.15 173.35 407.35 173.4 407.6 173.35 407.65 173.1 407.6 172.85 407.35 172.8 407.15 172.85 M405.95 182.1 L405.65 182.2 Q405.5 182.3 405.5 182.55 L405.65 182.85 Q405.75 183.0 405.95 183.0 L406.25 182.85 406.45 182.55 406.25 182.2 405.95 182.1 M414.7 191.65 Q414.8 192.45 414.2 192.65 413.65 192.6 413.55 191.9 413.35 191.0 413.85 190.85 414.55 190.9 414.7 191.65 M408.7 192.2 Q408.5 191.35 409.05 191.2 409.8 191.25 409.9 192.0 410.0 192.75 409.35 193.0 408.8 192.95 408.7 192.2 M414.7 196.8 Q415.35 196.95 415.35 197.65 415.4 198.45 414.75 198.55 414.25 198.45 414.2 197.8 414.2 196.9 414.7 196.8 M420.8 191.35 L420.85 191.55 420.35 192.2 419.4 192.6 M417.45 190.4 Q418.15 190.5 418.25 191.3 418.35 192.05 417.75 192.3 417.2 192.2 417.05 191.5 416.95 190.65 417.45 190.4 M419.2 193.3 Q419.7 193.6 419.75 194.15 419.8 194.9 419.3 195.1 418.95 194.75 418.95 194.2 418.9 193.65 419.2 193.3 M418.5 196.25 Q419.15 196.4 419.15 197.15 419.2 197.9 418.55 198.05 418.05 197.9 418.0 197.25 418.0 196.4 418.5 196.25 M409.6 199.2 Q409.05 199.1 409.05 198.45 409.0 197.55 409.5 197.45 410.15 197.6 410.25 198.35 410.25 199.1 409.6 199.2 M405.95 213.65 Q404.5 213.6 404.45 215.15 405.0 214.45 405.55 215.05 406.1 216.3 404.65 217.05 L403.35 217.1 402.35 216.2 399.95 216.4 399.95 220.55 400.55 220.75 400.8 221.35 400.55 222.0 399.95 222.25 399.95 229.5 Q403.1 225.4 401.55 223.1 402.4 223.4 402.4 224.6 404.45 222.45 401.8 219.8 401.45 219.3 401.45 218.5 403.45 220.35 405.5 219.6 407.95 218.75 407.6 215.65 407.35 213.8 405.95 213.65 M406.7 215.8 Q406.5 215.8 406.4 216.0 L406.2 216.3 406.4 216.7 406.7 216.8 407.1 216.7 407.2 216.3 407.1 216.0 406.7 215.8 M404.85 198.6 L404.6 198.0 403.95 197.8 403.35 198.0 403.15 198.6 403.35 199.2 Q403.65 199.5 403.95 199.5 L404.6 199.2 404.85 198.6 M395.05 198.6 Q395.05 198.25 395.3 198.0 L395.95 197.8 396.55 198.0 396.8 198.6 396.55 199.2 Q396.3 199.5 395.95 199.5 395.6 199.5 395.3 199.2 395.05 199.0 395.05 198.6 M390.3 199.2 Q390.8 199.1 390.85 198.45 390.9 197.55 390.35 197.45 389.7 197.6 389.7 198.35 389.65 199.1 390.3 199.2 M393.55 216.0 L393.65 216.3 393.55 216.7 393.2 216.8 392.85 216.7 392.7 216.3 Q392.7 216.1 392.85 216.0 392.95 215.8 393.2 215.8 L393.55 216.0 M399.95 216.4 L397.6 216.2 Q397.25 216.75 396.6 217.1 L395.2 217.05 Q393.8 216.3 394.4 215.05 394.95 214.45 395.5 215.15 395.45 213.6 394.0 213.65 392.55 213.8 392.35 215.65 391.95 218.75 394.45 219.6 396.5 220.35 398.45 218.5 398.45 219.3 398.05 219.8 395.45 222.45 397.5 224.6 397.5 223.4 398.4 223.1 396.8 225.4 399.95 229.5 M402.35 216.2 L403.1 216.15 403.1 214.7 402.25 214.75 M399.95 216.4 L399.95 215.0 M397.65 214.75 L396.85 214.7 396.85 216.15 397.6 216.2 M399.95 220.55 L399.35 220.75 399.1 221.35 399.35 222.0 399.95 222.25" fill="none" stroke="#000000" stroke-linecap="round" stroke-linejoin="round" stroke-opacity="0.5019608" stroke-width="1.0"/>
  </g>
</svg>
