<?xml version="1.0" encoding="UTF-8" standalone="no"?>
<svg xmlns:xlink="http://www.w3.org/1999/xlink" height="59.95px" width="67.5px" xmlns="http://www.w3.org/2000/svg">
  <g transform="matrix(1.0, 0.0, 0.0, 1.0, -366.15, -167.8)">
    <path d="M392.6 168.8 L393.55 168.65 394.7 168.45 395.65 168.35 396.6 168.3 397.75 168.3 398.5 168.3 399.35 168.3 399.95 168.3 400.5 168.3 401.4 168.3 402.1 168.3 403.25 168.3 404.15 168.35 405.1 168.45 406.3 168.65 407.3 168.8 408.35 169.0 409.95 169.5 Q412.2 170.2 413.95 171.4 L415.85 173.0 433.15 169.4 418.65 178.15 418.9 179.3 Q419.4 180.1 420.45 179.05 422.05 177.75 422.95 179.15 423.65 179.5 422.2 183.7 421.55 185.65 421.45 188.6 419.55 191.85 419.65 197.5 419.7 200.0 418.95 199.95 419.65 205.5 415.8 209.75 411.4 215.6 409.45 221.75 407.15 228.1 401.6 227.15 L399.95 226.75 398.2 227.15 Q392.7 228.1 390.4 221.75 388.45 215.6 384.05 209.75 380.15 205.5 380.85 199.95 380.15 200.0 380.2 197.5 380.3 191.85 378.35 188.6 378.3 185.65 377.65 183.7 376.2 179.5 376.85 179.15 377.85 177.75 379.35 179.05 380.5 180.1 380.95 179.3 L381.2 178.15 366.65 169.4 384.0 173.0 Q384.85 172.1 385.9 171.4 387.6 170.2 389.9 169.5 L391.5 169.0 392.6 168.8 M395.0 213.2 L395.15 213.25 M404.7 213.25 L404.85 213.2" fill="none" stroke="#000000" stroke-linecap="round" stroke-linejoin="round" stroke-width="1.0"/>
    <path d="M392.6 168.8 Q390.8 170.95 387.0 172.65 M391.5 169.0 Q389.4 171.05 386.35 172.1 M393.55 168.65 Q391.4 171.35 387.35 173.2 M394.7 168.45 Q392.1 171.9 387.7 174.15 M396.6 168.3 Q393.2 173.2 387.95 175.75 M397.75 168.3 Q393.75 173.75 387.55 177.3 M398.5 168.3 Q394.25 175.1 385.95 179.2 M399.35 168.3 Q393.7 177.25 384.55 180.75 M415.95 182.35 Q404.15 177.75 399.95 168.3 395.65 177.75 383.9 182.35 M395.65 168.35 Q393.2 172.2 387.85 174.85 M408.35 169.0 Q410.4 171.05 413.5 172.1 M407.3 168.8 Q409.05 170.95 412.8 172.65 M406.3 168.65 Q408.45 171.35 412.45 173.2 M405.1 168.45 Q407.75 171.9 412.15 174.15 M404.15 168.35 Q406.65 172.2 412.0 174.85 M400.5 168.3 Q406.15 177.25 415.3 180.75 M401.4 168.3 Q405.6 175.1 413.95 179.2 M402.1 168.3 Q406.05 173.75 412.3 177.3 M403.25 168.3 Q406.65 173.2 411.95 175.75" fill="none" stroke="#000000" stroke-linecap="round" stroke-linejoin="round" stroke-width="0.5"/>
    <path d="M384.0 173.0 L385.6 173.3 385.75 173.3 385.8 173.35 Q386.2 173.55 386.15 174.55 386.1 175.55 385.55 176.8 385.05 178.05 384.35 178.75 383.7 179.55 383.25 179.35 L383.2 179.3 383.15 179.3 381.2 178.15 M384.05 184.1 Q384.4 187.25 383.45 189.5 382.5 191.85 384.65 193.55 385.4 194.2 386.7 194.75 389.45 195.85 391.65 196.1 L392.75 196.2 Q395.15 196.3 396.7 195.2 398.05 194.2 398.65 192.25 399.6 188.95 399.35 185.2 M384.65 193.55 Q382.95 194.75 384.65 195.85 385.7 196.6 386.55 198.0 389.55 201.05 394.7 199.6 397.75 198.2 396.7 195.2 M376.85 179.15 Q379.25 178.7 381.0 188.6 381.75 185.05 380.75 181.25 M392.75 196.2 L393.0 196.4 Q393.35 196.75 393.35 197.25 L393.0 198.15 392.05 198.5 Q391.55 198.5 391.2 198.15 390.8 197.75 390.8 197.25 390.8 196.75 391.2 196.4 391.35 196.2 391.65 196.1 M415.8 184.1 Q415.45 187.25 416.35 189.5 417.35 191.85 415.25 193.55 416.9 194.75 415.25 195.85 414.1 196.6 413.3 198.0 410.25 201.05 405.2 199.6 402.1 198.2 403.2 195.2 401.85 194.2 401.25 192.25 400.25 188.95 400.5 185.2 M415.85 173.0 L414.2 173.3 414.1 173.3 414.1 173.35 Q413.6 173.55 413.7 174.55 413.75 175.55 414.25 176.8 414.8 178.05 415.5 178.75 416.15 179.55 416.6 179.35 L416.7 179.3 418.65 178.15 M407.1 196.2 L406.85 196.4 Q406.5 196.75 406.5 197.25 406.5 197.75 406.85 198.15 L407.75 198.5 Q408.25 198.5 408.65 198.15 L409.0 197.25 Q409.0 196.75 408.65 196.4 L408.2 196.1 407.1 196.2 Q404.7 196.3 403.2 195.2 M415.25 193.55 L413.15 194.75 Q410.4 195.85 408.2 196.1 M422.95 179.15 Q420.6 178.7 418.85 188.6 418.1 185.05 419.05 181.25 M416.8 197.2 Q418.6 205.45 410.35 204.55 409.95 202.25 407.55 202.15 406.25 201.85 405.1 203.55 409.4 201.7 408.55 206.4 406.75 205.95 404.05 208.3 402.1 210.65 399.95 210.55 397.75 210.65 395.8 208.3 393.15 205.95 391.35 206.4 390.4 201.7 394.75 203.55 393.6 201.85 392.25 202.15 389.9 202.25 389.45 204.55 381.3 205.45 383.0 197.2 M404.85 213.2 Q406.1 212.7 407.05 211.75 L407.1 211.75 Q408.2 210.5 408.9 208.65 409.4 207.5 410.0 207.8 410.3 208.15 409.6 209.25 L407.8 212.9 Q407.05 215.05 406.0 216.35 407.15 215.7 409.2 215.5 406.95 216.85 407.55 218.8 406.8 220.2 405.25 219.55 L405.25 219.85 Q404.0 220.0 402.7 219.25 401.1 219.65 399.95 219.25 398.7 219.65 397.2 219.25 395.85 220.0 394.6 219.85 L394.6 219.55 Q393.05 220.2 392.3 218.8 392.9 216.85 390.65 215.5 L391.6 219.55 Q393.05 222.2 396.35 221.35 L399.95 220.85 403.5 221.35 Q406.75 222.2 408.25 219.55 L409.25 215.5 Q410.1 212.55 411.4 209.6 412.15 207.35 411.4 206.8 410.1 206.05 408.3 207.3 407.45 208.1 407.2 208.85 406.35 210.45 404.15 211.9 M404.85 213.2 Q405.85 214.05 406.0 216.35 407.65 213.65 407.1 211.75 M405.25 219.55 L405.25 218.5 404.7 218.15 Q403.7 217.65 402.7 217.8 L402.7 219.25 M395.65 211.9 Q393.45 210.45 392.65 208.85 392.35 208.1 391.5 207.3 389.75 206.05 388.45 206.8 387.65 207.35 388.45 209.6 389.75 212.55 390.65 215.5 392.7 215.7 393.85 216.35 392.8 215.05 392.05 212.9 L390.2 209.25 Q389.55 208.15 389.9 207.8 390.45 207.5 390.95 208.65 391.6 210.5 392.75 211.75 L395.0 213.2 M395.15 213.25 L396.3 213.6 397.4 213.85 399.95 214.0 402.5 213.85 403.5 213.6 404.7 213.25 M392.75 211.75 Q392.2 213.65 393.85 216.35 394.0 214.05 395.0 213.2 M397.2 219.25 L397.2 217.8 Q396.1 217.65 395.15 218.15 L394.6 218.5 394.6 219.55 M399.2 211.5 L399.05 212.9 Q399.0 213.45 399.95 213.6 400.9 213.45 400.85 212.9 L400.7 211.5 M397.4 213.85 L397.4 215.15 397.4 215.3 Q398.7 215.65 399.95 215.3 L399.95 214.0 M402.5 213.85 L402.5 215.15 Q403.8 215.2 404.7 214.35 L404.7 213.25 M402.5 215.15 L402.5 215.3 Q401.15 215.65 399.95 215.3 M397.4 215.15 Q396.05 215.2 395.15 214.35 L395.15 213.25 M402.7 217.8 Q401.3 217.35 399.95 217.8 L399.95 219.25 M397.2 217.8 Q398.6 217.35 399.95 217.8 M393.85 216.35 Q394.95 217.05 395.15 218.15 M394.85 200.45 Q397.45 200.9 396.85 204.7 M404.7 218.15 Q404.85 217.05 406.0 216.35 M405.0 200.45 Q402.35 200.9 403.0 204.7 M418.95 199.95 Q417.85 200.0 418.5 196.2 M380.85 199.95 Q382.0 200.0 381.35 196.2" fill="none" stroke="#000000" stroke-linecap="round" stroke-linejoin="round" stroke-opacity="0.5019608" stroke-width="1.0"/>
  </g>
</svg>
