<?xml version="1.0" encoding="UTF-8" standalone="no"?>
<svg xmlns:xlink="http://www.w3.org/1999/xlink" height="74.5px" width="98.9px" xmlns="http://www.w3.org/2000/svg">
  <g transform="matrix(1.0, 0.0, 0.0, 1.0, -350.6, -153.3)">
    <path d="M361.25 177.85 Q365.85 162.4 383.75 156.65 L386.85 155.8 Q392.0 154.45 398.2 153.85 L399.5 153.85 399.95 153.85 401.95 153.85 410.8 155.2 415.7 156.45 Q434.2 162.1 438.9 177.85 L443.2 178.4 Q446.7 179.85 446.7 184.45 452.65 199.35 443.35 209.85 441.7 213.95 439.0 215.4 L435.25 215.4 433.25 220.05 434.05 221.5 Q433.5 222.5 433.9 223.5 434.2 224.25 435.05 225.0 L415.2 225.75 Q399.8 228.9 384.35 225.75 L384.05 225.75 365.1 225.0 366.25 223.5 Q366.6 222.5 366.05 221.5 L366.9 220.05 364.9 215.4 361.15 215.4 Q358.4 213.95 356.8 209.85 347.45 199.35 353.45 184.45 353.4 179.85 356.95 178.4 L361.25 177.85" fill="none" stroke="#000000" stroke-linecap="round" stroke-linejoin="round" stroke-width="1.0"/>
    <path d="M361.25 177.85 Q370.6 195.55 366.05 215.4 L364.9 215.4 M353.85 191.65 Q353.85 187.85 355.0 184.45 352.65 187.85 352.3 192.45 L353.85 191.65 M352.15 193.6 Q352.0 198.15 353.35 201.7 L354.8 201.7 Q353.3 197.4 353.55 193.1 352.85 192.85 352.15 193.6 M358.3 191.5 Q356.35 188.8 356.45 185.4 354.9 187.75 354.95 191.5 L358.3 191.5 M354.95 192.65 Q354.35 197.1 356.0 201.55 357.85 202.1 359.65 201.55 358.0 197.25 358.5 192.65 356.7 191.95 354.95 192.65 M399.5 171.9 L400.2 171.9 400.75 171.9 Q408.65 172.0 414.95 175.3 417.5 176.65 419.8 178.5 L422.7 181.2 Q427.95 186.9 427.95 194.4 427.95 196.5 427.55 198.45 426.1 205.2 419.8 210.35 417.6 212.1 415.2 213.4 409.1 216.6 401.35 216.95 L400.7 216.95 400.3 216.95 399.95 216.95 399.5 216.95 398.15 216.9 Q390.45 216.5 384.35 213.1 382.25 211.9 380.35 210.35 373.75 205.0 372.5 197.9 372.15 196.2 372.2 194.4 372.15 187.35 376.9 181.85 378.35 180.05 380.35 178.5 382.25 176.95 384.35 175.75 L384.75 175.55 Q390.95 172.2 398.9 171.9 L399.5 171.9 M368.25 169.65 Q368.25 170.75 369.15 171.55 L369.9 172.05 371.35 172.35 Q372.55 172.35 373.5 171.55 374.4 170.75 374.4 169.65 374.4 168.55 373.5 167.75 L372.85 167.3 Q372.15 166.95 371.35 166.95 370.05 166.95 369.15 167.75 368.25 168.55 368.25 169.65 M372.75 169.8 L372.45 170.45 371.7 170.75 371.0 170.45 Q370.65 170.2 370.7 169.8 370.65 169.4 371.0 169.15 371.25 168.9 371.7 168.9 L372.45 169.15 372.75 169.8 M369.9 172.05 L369.85 172.55 Q369.75 174.1 370.75 174.65 371.75 175.15 373.3 174.3 374.75 173.45 375.85 171.8 376.95 170.1 377.05 168.5 377.1 166.95 376.1 166.45 375.1 165.95 373.65 166.75 L372.85 167.3 M383.35 181.15 Q377.4 186.1 376.75 192.85 L376.65 194.65 Q376.65 202.6 383.35 208.15 L384.35 208.95 Q390.2 213.3 398.0 213.7 L400.95 213.75 Q409.1 213.6 415.2 209.35 L416.8 208.15 Q423.5 202.6 423.5 194.65 423.5 186.75 416.8 181.15 415.9 180.4 415.0 179.8 409.1 175.8 401.3 175.6 L399.7 175.6 399.5 175.6 Q390.75 175.6 384.35 180.35 383.85 180.7 383.35 181.15 M378.95 191.9 Q379.5 191.45 380.25 191.5 380.95 191.45 381.5 191.95 382.05 192.4 382.05 193.1 L381.8 193.9 381.5 194.2 381.3 194.35 380.25 194.7 Q379.5 194.65 378.95 194.2 378.4 193.7 378.45 193.1 378.4 192.4 378.95 191.95 L378.95 191.9 381.3 194.35 M383.2 194.6 Q383.2 197.35 384.35 199.75 385.55 202.25 388.05 204.3 392.4 207.9 398.4 208.3 L399.05 208.3 399.5 208.35 399.8 208.35 401.35 208.3 Q407.6 208.0 412.1 204.3 414.05 202.7 415.2 200.8 416.95 198.0 416.95 194.6 416.95 191.1 415.15 188.3 413.95 186.45 412.1 184.9 407.4 181.05 400.9 180.9 L399.4 180.9 Q392.75 181.0 388.05 184.9 385.55 186.95 384.35 189.45 383.5 191.2 383.3 193.2 L383.2 194.6 M429.15 169.15 Q428.85 168.9 428.45 168.9 428.0 168.9 427.7 169.15 427.4 169.4 427.4 169.8 427.4 170.2 427.7 170.45 428.0 170.7 428.45 170.75 L429.15 170.45 429.45 169.8 429.15 169.15 M427.3 167.3 L426.5 166.75 Q425.0 165.95 424.05 166.45 423.0 166.95 423.1 168.5 423.15 170.1 424.3 171.8 425.35 173.45 426.85 174.3 428.35 175.15 429.4 174.65 430.35 174.1 430.3 172.55 L430.25 172.05 428.8 172.35 Q427.55 172.35 426.65 171.55 425.75 170.75 425.75 169.65 425.75 168.55 426.65 167.75 426.95 167.45 427.3 167.3 428.0 166.95 428.8 166.95 430.05 166.95 430.95 167.75 431.85 168.55 431.9 169.65 431.85 170.75 430.95 171.55 L430.25 172.05 M418.7 194.5 Q419.2 194.05 419.9 194.1 420.65 194.05 421.2 194.55 421.7 195.0 421.7 195.7 421.7 196.3 421.25 196.75 L421.2 196.8 Q420.65 197.25 419.9 197.3 419.15 197.25 418.65 196.8 418.1 196.3 418.1 195.7 418.1 195.0 418.65 194.55 L418.7 194.5 421.25 196.75 M445.2 192.65 Q445.75 197.1 444.15 201.55 442.3 202.1 440.5 201.55 442.15 197.25 441.65 192.65 443.4 191.95 445.2 192.65 M445.2 191.5 L441.85 191.5 Q443.8 188.8 443.7 185.4 445.25 187.75 445.2 191.5 M447.95 193.6 Q448.15 198.15 446.8 201.7 L445.35 201.7 Q446.8 197.4 446.6 193.1 447.25 192.85 447.95 193.6 M446.3 191.65 Q446.3 187.85 445.15 184.45 447.45 187.85 447.85 192.45 L446.3 191.65 M439.95 209.6 Q440.65 206.3 440.2 203.0 441.95 202.5 443.2 203.0 442.3 206.6 439.95 209.6 M426.8 209.4 Q431.75 213.55 427.5 217.7 429.4 217.65 431.3 216.2 L432.3 215.25 432.35 215.2 Q433.7 213.45 432.7 211.9 L431.3 210.5 430.9 210.3 Q428.85 209.25 426.8 209.4 425.0 209.5 423.25 210.7 424.35 210.65 425.15 211.5 425.9 212.3 425.95 213.5 425.9 214.6 425.15 215.45 424.4 216.2 423.4 216.25 425.45 217.75 427.5 217.7 M432.35 215.2 L434.05 215.0 Q435.2 214.65 436.3 213.9 434.8 212.95 433.65 211.3 L433.35 211.5 432.7 211.9 M435.25 215.4 L434.1 215.4 434.05 215.0 M436.3 213.9 L437.0 202.05 Q435.15 202.65 433.7 202.05 L433.65 211.3 M437.0 202.05 Q435.15 200.95 433.7 202.05 M444.55 203.05 Q445.4 202.7 446.3 203.05 444.0 208.55 440.6 211.0 443.1 207.5 444.55 203.05 M420.85 212.2 Q420.4 212.75 420.45 213.5 420.4 214.25 420.85 214.8 L421.05 215.0 420.7 214.3 420.6 213.6 420.6 213.5 Q420.6 212.8 420.9 212.2 L420.85 212.2 M421.05 215.0 Q421.4 215.35 421.9 215.35 422.5 215.35 422.95 214.8 423.35 214.25 423.35 213.5 423.35 212.75 422.95 212.2 422.5 211.65 421.9 211.7 421.3 211.65 420.9 212.15 L420.9 212.2 M421.35 212.6 L421.75 212.85 421.95 213.55 421.75 214.2 421.35 214.5 420.9 214.2 Q420.75 213.95 420.75 213.55 L420.75 213.5 Q420.75 213.15 420.9 212.85 421.05 212.6 421.35 212.6 M423.25 210.7 Q422.15 210.65 421.4 211.5 L420.9 212.15 M421.05 215.0 L421.4 215.45 Q422.15 216.25 423.25 216.25 L423.4 216.25 M366.25 223.5 L384.35 224.05 386.9 224.05 Q400.35 227.65 413.8 224.05 L414.1 224.05 415.2 224.05 433.9 223.5 M434.05 221.5 L415.2 220.4 Q399.8 223.9 384.4 220.4 L384.35 220.4 383.65 220.55 366.05 221.5 M366.9 220.05 L384.35 219.1 Q399.6 222.75 415.2 219.2 L433.25 220.05 M400.3 216.95 L398.15 216.9 M356.95 203.0 Q357.8 206.6 360.2 209.6 359.5 206.3 359.95 203.0 358.2 202.5 356.95 203.0 M355.55 203.05 Q354.7 202.7 353.85 203.05 356.1 208.55 359.55 211.0 357.05 207.5 355.55 203.05 M438.9 177.85 Q430.45 193.8 433.35 211.5 M356.95 178.4 Q364.4 196.4 361.15 215.4 M443.2 178.4 Q435.7 196.4 439.0 215.4" fill="none" stroke="#000000" stroke-linecap="round" stroke-linejoin="round" stroke-opacity="0.5019608" stroke-width="1.0"/>
  </g>
</svg>
