<?xml version="1.0" encoding="UTF-8" standalone="no"?>
<svg xmlns:xlink="http://www.w3.org/1999/xlink" height="35.5px" width="44.3px" xmlns="http://www.w3.org/2000/svg">
  <g transform="matrix(1.0, 0.0, 0.0, 1.0, -378.15, -166.35)">
    <path d="M393.8 167.25 L393.85 167.0 394.1 166.6 394.8 166.35 405.0 166.35 Q405.45 166.35 405.7 166.6 L405.95 166.9 406.0 167.25 406.0 167.3 405.75 167.9 405.7 167.95 405.0 168.2 394.8 168.2 394.15 168.0 394.1 167.95 Q393.8 167.7 393.8 167.3 L393.8 167.25 M383.0 191.65 L383.0 198.7 Q383.0 200.0 382.2 200.9 381.45 201.8 380.3 201.85 379.15 201.8 378.35 200.9 L378.2 200.7 Q380.3 195.2 378.15 189.7 L378.35 189.45 Q379.15 188.5 380.3 188.55 381.45 188.5 382.2 189.45 383.0 190.35 383.0 191.65 M422.2 189.45 L422.45 189.7 Q420.3 195.2 422.35 200.7 L422.2 200.9 Q421.4 201.8 420.25 201.85 419.1 201.8 418.35 200.9 417.55 200.0 417.55 198.7 L417.55 191.65 Q417.55 190.35 418.35 189.45 419.1 188.5 420.25 188.55 421.4 188.5 422.2 189.45" fill="#000000" fill-rule="evenodd" stroke="none"/>
  </g>
</svg>
