<?xml version="1.0" encoding="UTF-8" standalone="no"?>
<svg xmlns:xlink="http://www.w3.org/1999/xlink" height="58.5px" width="81.25px" xmlns="http://www.w3.org/2000/svg">
  <g transform="matrix(1.0, 0.0, 0.0, 1.0, -359.3, -163.6)">
    <path d="M362.1 185.25 Q365.0 180.6 366.25 177.8 367.3 175.6 367.25 174.5 370.15 173.2 373.3 175.35 378.5 178.75 379.3 187.75 379.2 182.4 381.15 178.15 383.8 180.75 387.0 182.7 390.3 184.7 394.2 186.05 L393.1 177.6 Q387.9 174.8 386.0 171.55 390.3 167.6 397.3 165.1 L397.35 164.75 397.75 164.7 397.95 163.7 399.95 163.6 401.9 163.7 402.15 164.7 402.5 164.75 402.55 165.1 Q409.55 167.6 413.85 171.5 412.0 174.8 406.8 177.6 L405.7 186.05 Q409.55 184.7 412.85 182.7 416.05 180.75 418.75 178.15 420.7 182.4 420.6 187.75 421.4 178.75 426.55 175.35 429.7 173.2 432.6 174.5 432.6 175.6 433.6 177.8 434.9 180.6 437.75 185.25 L439.95 188.7 440.0 188.75 440.45 189.7 Q440.9 191.15 439.65 193.25 L435.85 188.2 Q433.55 189.35 431.45 192.9 428.45 198.2 430.2 201.8 L436.8 211.35 Q437.35 213.75 432.05 217.8 428.15 220.45 422.3 222.1 L420.0 221.6 417.75 199.7 418.4 195.55 418.6 191.45 418.6 191.25 418.6 191.0 418.6 188.3 Q409.35 190.65 399.95 190.4 390.4 190.65 381.05 188.25 L381.25 188.3 381.2 191.0 381.2 191.25 381.2 191.45 381.4 195.55 382.05 199.6 379.8 221.6 377.55 222.1 Q371.7 220.45 367.8 217.8 362.5 213.75 363.05 211.35 L369.65 201.8 Q371.45 198.2 368.45 192.9 366.3 189.35 364.0 188.2 L360.25 193.25 Q358.95 191.15 359.4 189.7 L359.9 188.75 359.9 188.7 362.1 185.25 M400.8 176.85 L400.55 176.25 Q400.3 176.0 399.95 176.0 399.6 176.0 399.35 176.25 399.1 176.5 399.1 176.85 L399.35 177.45 399.95 177.7 400.55 177.45 400.8 176.85 M399.35 167.7 Q399.1 167.95 399.1 168.3 L399.35 168.9 399.95 169.15 400.55 168.9 400.8 168.3 400.55 167.7 Q400.3 167.45 399.95 167.45 399.6 167.45 399.35 167.7 M399.35 171.65 Q399.1 171.9 399.1 172.25 L399.35 172.85 399.95 173.1 400.55 172.85 400.8 172.25 400.55 171.65 Q400.3 171.4 399.95 171.4 399.6 171.4 399.35 171.65" fill="#000000" fill-rule="evenodd" stroke="none"/>
  </g>
</svg>
