<?xml version="1.0" encoding="UTF-8" standalone="no"?>
<svg xmlns:xlink="http://www.w3.org/1999/xlink" height="72.05px" width="77.65px" xmlns="http://www.w3.org/2000/svg">
  <g transform="matrix(1.0, 0.0, 0.0, 1.0, -361.25, -153.8)">
    <path d="M398.2 153.85 L399.5 153.85 399.95 153.85 401.95 153.85 410.8 155.2 415.7 156.45 Q434.2 162.1 438.9 177.85 430.45 193.8 433.35 211.5 L432.7 211.9 431.3 210.5 430.9 210.3 Q428.85 209.25 426.8 209.4 425.0 209.5 423.25 210.7 422.15 210.65 421.4 211.5 L420.95 212.1 420.9 212.1 418.85 211.1 419.8 210.35 Q426.1 205.2 427.55 198.45 427.95 196.5 427.95 194.4 427.95 186.9 422.7 181.2 L419.8 178.5 Q417.5 176.65 414.95 175.3 408.65 172.0 400.75 171.9 L400.2 171.9 399.5 171.9 398.9 171.9 Q390.95 172.2 384.75 175.55 L384.35 175.75 Q382.25 176.95 380.35 178.5 378.35 180.05 376.9 181.85 372.15 187.35 372.2 194.4 372.15 196.2 372.5 197.9 373.75 205.0 380.35 210.35 382.25 211.9 384.35 213.1 390.45 216.5 398.15 216.9 L399.5 216.95 399.95 216.95 400.3 216.95 400.7 216.95 401.35 216.95 Q409.1 216.6 415.2 213.4 L418.6 211.3 418.65 211.35 420.8 212.3 Q420.4 212.8 420.45 213.5 420.4 214.25 420.85 214.8 L421.05 215.0 421.4 215.45 Q422.15 216.25 423.25 216.25 L423.4 216.25 Q425.45 217.75 427.5 217.7 429.4 217.65 431.3 216.2 L432.3 215.25 432.35 215.2 434.05 215.0 434.1 215.4 435.25 215.4 433.25 220.05 415.2 219.2 Q399.6 222.75 384.35 219.1 L366.9 220.05 364.9 215.4 366.05 215.4 Q370.6 195.55 361.25 177.85 365.85 162.4 383.75 156.65 L386.85 155.8 Q392.0 154.45 398.2 153.85 M368.25 169.65 Q368.25 170.75 369.15 171.55 L369.9 172.05 369.85 172.55 Q369.75 174.1 370.75 174.65 371.75 175.15 373.3 174.3 374.75 173.45 375.85 171.8 376.95 170.1 377.05 168.5 377.1 166.95 376.1 166.45 375.1 165.95 373.65 166.75 L372.85 167.3 Q372.15 166.95 371.35 166.95 370.05 166.95 369.15 167.75 368.25 168.55 368.25 169.65 M430.95 167.75 Q430.05 166.95 428.8 166.95 428.0 166.95 427.3 167.3 L426.5 166.75 Q425.0 165.95 424.05 166.45 423.0 166.95 423.1 168.5 423.15 170.1 424.3 171.8 425.35 173.45 426.85 174.3 428.35 175.15 429.4 174.65 430.35 174.1 430.3 172.55 L430.25 172.05 430.95 171.55 Q431.85 170.75 431.9 169.65 431.85 168.55 430.95 167.75 M415.2 224.05 L414.1 224.05 413.8 224.05 Q400.35 227.65 386.9 224.05 L384.35 224.05 366.25 223.5 Q366.6 222.5 366.05 221.5 L383.65 220.55 384.35 220.4 384.4 220.4 Q399.8 223.9 415.2 220.4 L434.05 221.5 Q433.5 222.5 433.9 223.5 L415.2 224.05" fill="#000000" fill-rule="evenodd" stroke="none"/>
  </g>
</svg>
