<?xml version="1.0" encoding="UTF-8" standalone="no"?>
<svg xmlns:xlink="http://www.w3.org/1999/xlink" height="50.55px" width="56.0px" xmlns="http://www.w3.org/2000/svg">
  <g transform="matrix(1.0, 0.0, 0.0, 1.0, 0.5, -2.6)">
    <path d="M55.0 27.4 L54.2 27.05 51.35 30.0 51.65 25.9 48.0 24.15 51.95 23.15 52.55 19.1 54.65 22.65 55.0 22.6 55.0 27.4 M48.35 5.25 L47.25 4.4 48.65 4.4 49.1 3.1 49.55 4.4 50.9 4.4 49.85 5.25 50.2 6.55 49.1 5.8 47.95 6.55 48.35 5.25 M0.0 22.6 L3.7 21.85 1.0 25.0 3.0 28.6 0.0 27.4 0.0 22.6 M10.15 7.85 L10.5 9.15 9.4 8.4 8.25 9.15 8.65 7.85 7.55 7.0 8.95 7.0 9.4 5.7 9.85 7.0 11.2 7.0 10.15 7.85 M31.0 8.2 L30.8 4.1 33.55 7.2 37.35 5.65 35.3 9.25 37.95 12.35 33.95 11.6 31.75 15.0 31.25 10.95 27.3 9.95 31.0 8.2 M45.75 38.75 L47.55 43.9 53.05 44.05 48.7 47.4 50.25 52.65 45.75 49.55 41.2 52.65 42.75 47.4 38.4 44.05 43.9 43.9 45.75 38.75 M34.8 45.2 L33.75 46.05 34.1 47.35 33.0 46.6 31.85 47.35 32.25 46.05 31.15 45.2 32.55 45.2 33.0 43.9 33.45 45.2 34.8 45.2 M22.95 30.85 L26.05 28.1 25.35 32.2 28.95 34.15 24.85 34.85 24.15 38.85 22.2 35.3 18.2 35.75 21.0 32.8 19.3 29.1 22.95 30.85 M36.05 25.9 L34.75 26.2 34.45 27.5 33.85 26.3 32.45 26.5 33.45 25.5 32.85 24.3 34.1 24.85 35.05 23.9 34.9 25.25 36.05 25.9 M18.75 47.8 L20.15 47.8 20.6 46.5 21.05 47.8 22.4 47.8 21.35 48.65 21.7 49.95 20.6 49.2 19.45 49.95 19.85 48.65 18.75 47.8 M3.85 47.8 L6.15 44.5 3.95 41.0 7.85 42.3 10.35 39.05 10.4 43.15 14.3 44.55 10.4 45.95 10.25 50.0 7.75 46.7 3.85 47.8 M5.35 31.55 L6.55 32.25 7.6 31.4 7.35 32.7 8.5 33.4 7.2 33.6 6.85 34.9 6.25 33.7 4.9 33.75 5.9 32.85 5.35 31.55 M18.1 14.8 L16.6 17.15 18.2 19.35 15.55 18.65 14.0 20.85 13.8 18.15 11.2 17.3 13.75 16.3 13.7 13.55 15.45 15.7 18.1 14.8" fill="#000000" fill-opacity="0.12156863" fill-rule="evenodd" stroke="none"/>
    <path d="M48.35 5.25 L47.95 6.55 49.1 5.8 50.2 6.55 49.85 5.25 50.9 4.4 49.55 4.4 49.1 3.1 48.65 4.4 47.25 4.4 48.35 5.25 M55.0 22.6 L54.65 22.65 52.55 19.1 51.95 23.15 48.0 24.15 51.65 25.9 51.35 30.0 54.2 27.05 55.0 27.4 M45.75 38.75 L43.9 43.9 38.4 44.05 42.75 47.4 41.2 52.65 45.75 49.55 50.25 52.65 48.7 47.4 53.05 44.05 47.55 43.9 45.75 38.75 M31.0 8.2 L27.3 9.95 31.25 10.95 31.75 15.0 33.95 11.6 37.95 12.35 35.3 9.25 37.35 5.65 33.55 7.2 30.8 4.1 31.0 8.2 M10.15 7.85 L11.2 7.0 9.85 7.0 9.4 5.7 8.95 7.0 7.55 7.0 8.65 7.85 8.25 9.15 9.4 8.4 10.5 9.15 10.15 7.85 M0.0 27.4 L3.0 28.6 1.0 25.0 3.7 21.85 0.0 22.6 M18.1 14.8 L15.45 15.7 13.7 13.55 13.75 16.3 11.2 17.3 13.8 18.15 14.0 20.85 15.55 18.65 18.2 19.35 16.6 17.15 18.1 14.8 M5.35 31.55 L5.9 32.85 4.9 33.75 6.25 33.7 6.85 34.9 7.2 33.6 8.5 33.4 7.35 32.7 7.6 31.4 6.55 32.25 5.35 31.55 M3.85 47.8 L7.75 46.7 10.25 50.0 10.4 45.95 14.3 44.55 10.4 43.15 10.35 39.05 7.85 42.3 3.95 41.0 6.15 44.5 3.85 47.8 M18.75 47.8 L19.85 48.65 19.45 49.95 20.6 49.2 21.7 49.95 21.35 48.65 22.4 47.8 21.05 47.8 20.6 46.5 20.15 47.8 18.75 47.8 M36.05 25.9 L34.9 25.25 35.05 23.9 34.1 24.85 32.85 24.3 33.45 25.5 32.45 26.5 33.85 26.3 34.45 27.5 34.75 26.2 36.05 25.9 M22.95 30.85 L19.3 29.1 21.0 32.8 18.2 35.75 22.2 35.3 24.15 38.85 24.85 34.85 28.95 34.15 25.35 32.2 26.05 28.1 22.95 30.85 M34.8 45.2 L33.45 45.2 33.0 43.9 32.55 45.2 31.15 45.2 32.25 46.05 31.85 47.35 33.0 46.6 34.1 47.35 33.75 46.05 34.8 45.2" fill="none" stroke="#000000" stroke-linecap="round" stroke-linejoin="round" stroke-opacity="0.2509804" stroke-width="1.0"/>
  </g>
</svg>
