<?xml version="1.0" encoding="UTF-8" standalone="no"?>
<svg xmlns:xlink="http://www.w3.org/1999/xlink" height="329.2px" width="225.75px" xmlns="http://www.w3.org/2000/svg">
  <g transform="matrix(1.0, 0.0, 0.0, 1.0, -287.0, -187.8)">
    <path d="M492.2 203.65 Q448.1 194.0 399.85 188.3 351.65 194.0 307.55 203.65 291.0 347.75 287.5 498.95 298.6 480.65 310.75 516.5 308.8 505.75 307.35 492.0 315.35 453.75 327.15 476.05 328.9 479.4 330.75 484.05 343.2 442.6 358.0 478.75 372.5 443.9 383.85 476.85 386.1 458.9 399.85 459.0 413.6 459.1 415.85 476.85 427.25 443.9 441.75 478.75 456.55 442.6 469.0 484.05 470.85 479.4 472.6 476.05 484.4 453.75 492.4 492.0 M492.2 203.65 Q508.75 347.75 512.25 498.95 501.15 480.65 489.0 516.5 490.95 505.75 492.4 492.0" fill="none" stroke="#000000" stroke-linecap="round" stroke-linejoin="round" stroke-width="1.0"/>
    <path d="M307.55 203.65 Q298.2 406.15 307.35 492.0 M492.4 492.0 Q501.55 406.15 492.2 203.65 Z" fill="none" stroke="#000000" stroke-linecap="round" stroke-linejoin="round" stroke-opacity="0.5019608" stroke-width="1.0"/>
  </g>
</svg>
