<?xml version="1.0" encoding="UTF-8" standalone="no"?>
<svg xmlns:xlink="http://www.w3.org/1999/xlink" height="10.45px" width="31.5px" xmlns="http://www.w3.org/2000/svg">
  <g transform="matrix(1.0, 0.0, 0.0, 1.0, -384.15, -187.25)">
    <path d="M401.35 195.35 Q402.5 198.05 404.5 196.85 L406.7 194.8 Q404.45 193.0 403.95 191.0 402.25 192.5 401.35 195.35 M398.45 195.25 Q397.3 197.95 395.3 196.75 L393.1 194.7 390.35 192.7 390.25 192.65 389.2 192.1 386.35 192.0 Q383.9 190.35 384.95 187.9 387.35 187.6 389.45 187.9 393.15 188.45 395.85 190.9 397.55 192.4 398.45 195.25 M389.45 187.9 Q388.8 189.55 389.2 192.1 M393.1 194.7 Q395.35 192.9 395.85 190.9 M406.7 194.8 Q408.2 193.5 409.45 192.8 L409.55 192.75 410.6 192.2 Q411.0 189.65 410.35 188.0 406.65 188.55 403.95 191.0 M410.35 188.0 Q412.45 187.7 414.85 188.0 415.9 190.45 413.45 192.1 L410.6 192.2" fill="none" stroke="#000000" stroke-linecap="round" stroke-linejoin="round" stroke-opacity="0.5019608" stroke-width="1.0"/>
  </g>
</svg>
