<?xml version="1.0" encoding="UTF-8" standalone="no"?>
<svg xmlns:xlink="http://www.w3.org/1999/xlink" height="299.3px" width="212.6px" xmlns="http://www.w3.org/2000/svg">
  <g transform="matrix(1.0, 0.0, 0.0, 1.0, -187.8, -148.35)">
    <path d="M399.9 302.6 L390.9 303.05 382.3 303.95 Q376.5 304.75 370.9 306.0 365.2 307.3 359.6 309.1 353.65 310.95 347.85 313.45 342.25 315.8 336.7 318.7 331.4 321.5 326.15 324.8 320.5 328.3 315.1 332.4 308.95 337.05 303.0 342.35 295.15 349.3 287.7 357.5 293.25 336.65 299.8 316.15 292.3 317.9 284.75 320.9 275.1 324.7 265.45 330.65 254.4 337.4 243.45 346.9 L241.6 350.5 Q236.15 361.45 231.05 372.8 227.85 379.8 224.8 387.0 217.5 393.9 211.35 401.95 197.7 419.75 189.7 442.65 L188.3 447.15 Q192.45 411.85 201.3 377.7 L206.1 382.1 Q208.4 374.7 210.85 367.4 232.9 301.0 263.65 244.25 276.25 221.1 290.3 199.5 L293.95 193.9 Q305.25 176.9 317.4 161.1 L315.1 156.3 Q349.5 146.95 383.6 149.3 353.05 152.4 326.0 162.9 L320.45 160.25 330.75 217.3 332.35 218.35 Q333.25 219.25 333.6 220.35 L350.15 224.2 350.15 225.9 399.9 242.7 M324.35 221.7 L324.35 221.45" fill="none" stroke="#000000" stroke-linecap="round" stroke-linejoin="round" stroke-width="1.0"/>
    <path d="M399.9 242.7 L399.9 255.45 399.9 274.7 399.9 302.6 M329.0 218.85 L330.05 219.05 331.0 219.6 331.6 220.5 331.75 220.8 331.85 221.65 Q331.85 222.8 331.0 223.65 L330.9 223.75 Q330.1 224.5 329.0 224.5 L327.85 224.3 327.0 223.65 326.4 222.7 326.15 221.65 Q326.15 220.5 327.0 219.6 327.85 218.85 329.0 218.85 M330.75 217.3 L329.05 217.0 Q327.1 217.0 325.7 218.35 L324.7 219.8 324.55 220.35 324.55 220.4 324.4 221.3 324.35 221.7 Q324.35 223.65 325.7 225.0 327.1 226.4 329.05 226.4 330.3 226.4 331.3 225.85 L332.2 225.2 332.35 225.0 Q333.75 223.65 333.75 221.7 L333.6 220.35 M324.35 221.45 L314.85 241.3 265.45 330.65 M324.55 220.4 L324.35 221.4 324.35 221.45 324.4 221.3 M324.35 221.4 L324.55 220.35 M330.05 219.05 L326.4 222.7 M336.5 228.75 L336.5 245.1 338.9 246.65 341.45 248.3 341.55 230.95 336.5 228.75 331.3 225.85 331.3 232.85 331.3 241.9 334.3 243.75 336.5 245.1 M350.15 253.5 L350.15 234.85 345.85 232.9 345.85 251.1 348.05 252.5 Q350.6 254.1 353.2 255.8 L356.05 257.65 356.05 235.9 350.15 233.25 350.15 234.85 M356.05 235.9 L363.7 239.3 372.75 243.3 382.95 247.9 391.45 251.7 399.9 255.45 M350.15 225.9 L350.15 233.25 M327.85 224.3 L331.6 220.5 M345.85 232.9 L341.55 230.95 M370.9 306.0 L367.95 265.5 363.7 262.65 359.6 259.9 359.6 309.1 M359.6 259.9 L356.05 257.65 M341.45 248.3 L343.65 249.7 345.85 251.1 M367.95 265.5 L372.7 268.7 372.75 243.3 M372.7 268.7 L377.45 271.8 387.2 278.5 391.4 281.45 391.45 251.7 M399.9 274.7 L392.15 281.95 391.4 281.45 M382.95 247.9 L382.95 274.85 M363.7 239.3 L363.7 262.65 M377.45 271.8 L382.3 303.95 M390.9 303.05 L387.2 278.5 M336.7 318.7 Q340.2 283.9 348.05 252.5 M347.85 313.45 L353.2 255.8 M326.15 324.8 Q332.25 285.5 343.65 249.7 M320.45 160.25 L317.4 161.1 318.3 169.15 324.7 219.8 M316.7 172.5 L316.65 172.75 316.4 173.45 Q311.3 185.25 306.85 197.3 L304.65 203.35 Q296.0 227.0 289.45 251.2 285.15 267.0 281.75 283.2 292.1 268.5 303.2 254.85 L305.7 251.9 Q307.75 228.55 311.6 205.15 L312.55 198.85 Q315.1 184.05 318.3 169.15 L316.7 172.5 304.9 196.8 Q303.5 199.7 302.25 202.7 291.2 225.9 280.9 248.9 252.8 311.9 230.15 372.6 L224.8 387.0 M318.3 169.15 Q309.9 182.35 301.95 196.05 L298.7 201.7 Q285.9 223.95 274.2 247.1 244.7 305.6 221.95 370.4 216.45 385.95 211.35 401.95 M206.1 382.1 L209.3 384.95 215.35 368.6 Q240.9 301.2 270.5 246.1 283.2 222.5 296.8 201.2 L300.3 195.55 Q309.1 181.9 318.3 169.15 M314.85 241.3 L308.1 249.05 305.7 251.9 M243.45 346.9 Q260.85 312.85 281.75 283.2 M189.7 442.65 Q199.1 412.8 209.3 384.95 M338.9 246.65 Q323.9 288.25 315.1 332.4 M334.3 243.75 Q314.4 291.5 303.0 342.35 M299.8 316.15 Q313.4 273.7 331.3 232.85 M331.3 225.85 L284.75 320.9" fill="none" stroke="#000000" stroke-linecap="round" stroke-linejoin="round" stroke-opacity="0.5019608" stroke-width="1.0"/>
  </g>
</svg>
