<?xml version="1.0" encoding="UTF-8" standalone="no"?>
<svg xmlns:xlink="http://www.w3.org/1999/xlink" height="112.95px" width="69.95px" xmlns="http://www.w3.org/2000/svg">
  <g transform="matrix(1.0, 0.0, 0.0, 1.0, -338.15, -339.55)">
    <path d="M378.3 450.95 L377.4 451.15 366.8 451.9 364.8 451.7 362.9 451.4 361.25 451.0 359.4 450.45 357.55 449.7 355.45 448.7 353.15 447.25 350.9 445.6 348.3 443.1 345.85 440.45 343.85 437.85 342.0 434.85 340.7 432.25 339.55 428.85 338.9 425.6 Q338.6 423.45 338.7 421.2 338.8 419.3 339.2 417.35 339.55 415.35 340.25 413.3 L340.35 413.0 Q340.9 411.3 341.6 409.8 342.45 407.65 343.6 405.75 L345.7 402.4 Q347.0 400.6 348.45 399.05 L351.3 396.25 354.55 393.75 Q356.15 392.7 357.9 391.75 359.85 390.75 361.9 389.9 L364.25 389.1 366.2 388.4 369.85 386.95 373.75 385.3 377.65 383.3 381.6 380.9 385.3 378.25 388.9 374.95 392.1 371.1 394.45 367.15 Q395.6 364.75 396.25 362.15 397.0 359.25 397.1 356.1 397.25 352.85 396.65 349.3 L396.25 347.35 395.2 342.15 Q397.25 340.75 399.85 340.35 404.1 339.4 407.6 341.5 L406.9 347.35 406.75 349.3 Q406.3 353.8 405.25 357.95 404.25 361.85 402.65 365.45 401.35 368.35 399.65 371.05 L396.45 375.55 392.35 380.05 388.35 383.5 384.35 386.3 380.25 388.8 376.25 390.9 372.1 392.7 368.25 394.2 367.25 394.6 366.5 394.85 Q365.25 395.15 364.05 395.6 L360.65 397.0 357.45 398.8 Q356.05 399.7 354.8 400.75 L352.35 403.1 350.15 405.75 Q349.15 407.05 348.3 408.6 L346.8 411.65 345.75 414.25 345.5 415.0 344.75 418.1 Q344.45 419.65 344.4 421.25 L344.45 424.15 Q344.5 425.75 344.85 427.35 L345.5 430.25 346.45 432.9 347.8 435.85 349.2 438.35 350.9 441.0 351.05 441.25 353.0 443.3 Q353.85 444.2 354.85 445.0 L356.65 446.4 358.45 447.5 360.1 448.4 361.65 449.1 363.2 449.65 364.9 450.2 366.95 450.65 377.4 451.15" fill="none" stroke="#000000" stroke-linecap="round" stroke-linejoin="round" stroke-width="1.0"/>
    <path d="M361.9 389.9 L364.05 395.6 M396.25 362.15 Q400.25 363.05 402.65 365.45 M399.65 371.05 Q397.8 368.3 394.45 367.15 M368.25 394.2 L366.2 388.4 M369.85 386.95 L372.1 392.7 M380.25 388.8 L377.65 383.3 M376.25 390.9 L373.75 385.3 M381.6 380.9 L384.35 386.3 M388.9 374.95 L392.35 380.05 M388.35 383.5 L385.3 378.25 M396.45 375.55 L392.1 371.1 M397.1 356.1 Q401.9 355.55 405.25 357.95 M396.65 349.3 Q402.45 348.25 406.75 349.3 M350.15 405.75 L345.7 402.4 M352.35 403.1 L348.45 399.05 M351.3 396.25 L354.8 400.75 M345.85 440.45 L349.2 438.35 M350.9 441.0 L348.3 443.1 M344.4 421.25 L338.7 421.2 M344.45 424.15 L338.9 425.6 M339.55 428.85 L344.85 427.35 M345.5 430.25 L340.7 432.25 M342.0 434.85 L346.45 432.9 M347.8 435.85 L343.85 437.85 M341.6 409.8 L346.8 411.65 M339.2 417.35 L344.75 418.1 M345.5 415.0 L340.35 413.0 M343.6 405.75 L348.3 408.6 M361.65 449.1 L361.25 451.0 M363.2 449.65 L362.9 451.4 M357.55 449.7 L358.45 447.5 M355.45 448.7 L356.65 446.4 M360.1 448.4 L359.4 450.45 M366.8 451.9 L366.95 450.65 M364.8 451.7 L364.9 450.2 M353.15 447.25 L354.85 445.0 M353.0 443.3 L350.9 445.6 M360.65 397.0 L357.9 391.75 M357.45 398.8 L354.55 393.75" fill="none" stroke="#000000" stroke-linecap="round" stroke-linejoin="round" stroke-opacity="0.5019608" stroke-width="1.0"/>
  </g>
</svg>
