<?xml version="1.0" encoding="UTF-8" standalone="no"?>
<svg xmlns:xlink="http://www.w3.org/1999/xlink" height="3.7px" width="7.35px" xmlns="http://www.w3.org/2000/svg">
  <g transform="matrix(1.0, 0.0, 0.0, 1.0, -396.2, -204.05)">
    <path d="M399.95 204.1 L400.55 204.05 Q402.8 204.05 403.35 204.95 L403.55 205.75 Q403.55 206.55 402.7 206.55 L402.65 206.55 402.4 206.4 Q402.25 206.15 401.9 206.15 L401.25 206.35 400.95 206.85 400.45 207.45 399.95 207.75 399.85 207.75 399.35 207.45 398.85 206.85 398.5 206.35 397.85 206.15 Q397.5 206.15 397.35 206.4 L397.15 206.55 397.05 206.55 Q396.2 206.55 396.2 205.75 L396.4 204.95 Q396.95 204.05 399.15 204.05 L399.85 204.1 399.95 204.1" fill="#000000" fill-rule="evenodd" stroke="none"/>
  </g>
</svg>
