<?xml version="1.0" encoding="UTF-8" standalone="no"?>
<svg xmlns:xlink="http://www.w3.org/1999/xlink" height="5.4px" width="12.85px" xmlns="http://www.w3.org/2000/svg">
  <g transform="matrix(1.0, 0.0, 0.0, 1.0, -393.45, -202.7)">
    <path d="M406.25 203.4 L406.1 204.15 Q405.4 205.4 404.4 205.25 L404.35 205.2 404.35 205.1 404.3 205.0 404.3 204.7 403.35 204.65 402.95 204.85 402.6 205.1 Q401.9 205.75 402.1 206.65 L402.05 206.65 402.0 206.7 401.9 206.9 Q401.45 207.6 400.4 208.1 L399.4 208.1 Q398.3 207.6 397.85 206.9 L397.75 206.7 397.7 206.65 397.65 206.65 Q397.85 205.75 397.15 205.1 L396.8 204.85 396.4 204.65 395.45 204.7 395.45 205.0 395.45 205.1 395.4 205.2 395.35 205.25 Q394.35 205.4 393.65 204.15 L393.45 203.4 Q393.65 202.8 395.05 202.75 L396.75 202.9 396.9 202.95 397.8 203.25 398.2 203.45 399.5 203.7 400.25 203.7 401.55 203.45 402.0 203.25 402.85 202.95 403.0 202.9 404.7 202.75 Q406.1 202.8 406.25 203.4" fill="#000000" fill-rule="evenodd" stroke="none"/>
  </g>
</svg>
