<?xml version="1.0" encoding="UTF-8" standalone="no"?>
<svg xmlns:xlink="http://www.w3.org/1999/xlink" height="14.95px" width="15.65px" xmlns="http://www.w3.org/2000/svg">
  <g transform="matrix(1.0, 0.0, 0.0, 1.0, -392.2, -197.3)">
    <path d="M397.6 197.7 L398.5 197.3 399.75 197.85 400.25 197.9 401.55 197.35 402.45 197.7 402.45 197.75 403.55 199.05 403.55 200.3 403.8 201.85 405.1 204.65 407.85 207.6 407.85 208.55 407.15 210.45 406.0 212.05 404.7 212.25 403.2 211.15 401.95 210.75 400.05 210.5 398.1 210.7 397.5 210.85 396.85 211.1 395.4 212.2 394.05 212.0 392.9 210.4 392.2 208.5 392.2 207.55 394.95 204.6 396.25 201.8 396.5 200.25 396.5 199.0 397.6 197.7" fill="#000000" fill-rule="evenodd" stroke="none"/>
  </g>
</svg>
