<?xml version="1.0" encoding="UTF-8" standalone="no"?>
<svg xmlns:xlink="http://www.w3.org/1999/xlink" height="8.6px" width="9.2px" xmlns="http://www.w3.org/2000/svg">
  <g transform="matrix(1.0, 0.0, 0.0, 1.0, -395.25, -197.25)">
    <path d="M396.9 205.35 Q395.8 205.2 395.75 204.25 395.7 202.4 396.85 201.95 M402.4 204.95 Q403.25 204.9 403.1 204.35 402.55 203.55 401.55 204.15 400.95 205.3 399.9 205.25 398.75 205.3 398.15 204.15 397.15 203.55 396.65 204.35 396.45 204.9 397.35 204.95 M402.85 205.35 Q403.95 205.2 403.95 204.25 404.0 202.4 402.9 201.95 M401.75 201.55 Q400.9 199.95 401.1 197.75 M398.0 201.55 Q398.8 199.95 398.6 197.75" fill="none" stroke="#000000" stroke-linecap="round" stroke-linejoin="round" stroke-opacity="0.5019608" stroke-width="1.0"/>
  </g>
</svg>
