<?xml version="1.0" encoding="UTF-8" standalone="no"?>
<svg xmlns:xlink="http://www.w3.org/1999/xlink" height="22.4px" width="139.45px" xmlns="http://www.w3.org/2000/svg">
  <g transform="matrix(1.0, 0.0, 0.0, 1.0, -330.2, -507.6)">
    <path d="M355.95 529.5 Q346.15 520.1 330.7 520.95 M340.85 508.1 Q353.6 507.8 362.75 513.95 M469.15 520.95 Q453.65 520.1 443.85 529.5 M437.05 513.95 Q446.2 507.8 458.95 508.1" fill="none" stroke="#000000" stroke-linecap="round" stroke-linejoin="round" stroke-opacity="0.5019608" stroke-width="1.0"/>
    <path d="M330.7 520.95 L340.85 508.1 M362.75 513.95 Q362.25 516.0 361.2 517.85 357.8 523.35 355.95 529.5 M458.95 508.1 L469.15 520.95 M443.85 529.5 Q442.0 523.35 438.6 517.85 437.55 516.0 437.05 513.95" fill="none" stroke="#000000" stroke-linecap="round" stroke-linejoin="round" stroke-width="1.0"/>
  </g>
</svg>
