<?xml version="1.0" encoding="UTF-8" standalone="no"?>
<svg xmlns:xlink="http://www.w3.org/1999/xlink" height="38.0px" width="86.25px" xmlns="http://www.w3.org/2000/svg">
  <g transform="matrix(1.0, 0.0, 0.0, 1.0, -356.75, -143.95)">
    <path d="M380.3 170.2 L380.55 171.25 Q381.9 176.8 380.45 181.95 L368.25 177.6 Q355.95 174.7 356.8 163.95 357.6 153.9 360.6 143.95 361.0 161.9 370.95 167.9 374.85 170.2 380.3 170.2 M419.5 170.2 Q424.9 170.2 428.8 167.9 438.75 161.9 439.15 143.95 442.2 153.9 442.95 163.95 443.8 174.7 431.55 177.6 L419.3 181.95 Q417.9 176.8 419.2 171.25 L419.5 170.2" fill="#000000" fill-rule="evenodd" stroke="none"/>
  </g>
</svg>
