<?xml version="1.0" encoding="UTF-8" standalone="no"?>
<svg xmlns:xlink="http://www.w3.org/1999/xlink" height="16.0px" width="51.5px" xmlns="http://www.w3.org/2000/svg">
  <g transform="matrix(1.0, 0.0, 0.0, 1.0, -374.15, -168.35)">
    <path d="M387.45 173.15 L387.5 173.2 388.8 173.7 389.2 176.65 Q389.2 177.9 388.4 180.2 L387.8 181.7 Q387.1 183.15 386.35 183.6 L383.65 184.35 382.7 183.35 381.3 182.0 380.7 181.5 380.6 181.45 380.45 181.3 380.25 181.15 Q379.25 180.5 377.9 179.8 L375.05 178.15 Q374.15 177.6 374.15 176.8 L374.25 175.7 378.3 174.65 380.1 169.8 379.65 169.2 379.6 169.1 380.6 168.35 380.9 168.35 381.8 169.3 384.5 171.55 385.3 172.05 387.45 173.15 M414.5 172.05 L415.3 171.55 418.0 169.3 418.9 168.35 419.2 168.35 420.2 169.1 420.15 169.2 419.7 169.8 421.5 174.65 425.55 175.7 425.65 176.8 Q425.65 177.6 424.75 178.15 L421.9 179.8 Q420.55 180.5 419.55 181.15 L419.35 181.3 419.2 181.45 419.1 181.5 418.5 182.0 Q417.95 182.45 417.1 183.35 L416.15 184.35 413.45 183.6 Q412.7 183.15 412.0 181.7 L411.4 180.2 Q410.6 177.9 410.6 176.65 L411.0 173.7 412.3 173.2 412.35 173.15 414.5 172.05" fill="#000000" fill-rule="evenodd" stroke="none"/>
  </g>
</svg>
