<?xml version="1.0" encoding="UTF-8" standalone="no"?>
<svg xmlns:xlink="http://www.w3.org/1999/xlink" height="16.1px" width="53.9px" xmlns="http://www.w3.org/2000/svg">
  <g transform="matrix(1.0, 0.0, 0.0, 1.0, 26.65, 108.45)">
    <path d="M7.25 -107.6 Q8.05 -107.6 8.65 -107.0 9.2 -106.5 9.2 -105.7 9.2 -104.9 8.65 -104.3 L8.05 -103.9 7.25 -103.75 Q6.45 -103.75 5.9 -104.3 5.35 -104.9 5.35 -105.7 5.35 -106.5 5.9 -107.0 6.45 -107.6 7.25 -107.6 M-8.1 -107.05 Q-7.5 -107.65 -6.7 -107.65 -5.95 -107.65 -5.35 -107.05 -4.8 -106.55 -4.8 -105.75 -4.8 -104.95 -5.35 -104.35 -5.95 -103.8 -6.7 -103.8 -7.5 -103.8 -8.1 -104.35 -8.65 -104.95 -8.65 -105.75 L-8.5 -106.45 -8.1 -107.05" fill="#ffffff" fill-rule="evenodd" stroke="none"/>
    <path d="M1.35 -97.55 L1.25 -97.2 1.15 -97.15 Q0.9 -96.85 0.45 -96.85 -0.05 -96.85 -0.45 -97.15 L-0.6 -97.2 -0.7 -97.55 Q-1.05 -98.3 -1.6 -98.45 L-3.35 -98.3 -3.35 -97.9 -3.55 -97.15 Q-4.4 -97.25 -4.45 -97.75 -4.7 -100.2 -1.6 -99.5 L-0.35 -99.0 0.95 -99.0 2.25 -99.5 Q5.35 -100.2 5.1 -97.75 5.05 -97.25 4.2 -97.15 L3.95 -97.9 3.95 -98.3 2.25 -98.45 Q1.65 -98.3 1.35 -97.55 M19.7 -101.45 L19.75 -101.55 Q20.5 -104.1 22.2 -104.1 23.8 -104.1 24.8 -102.9 25.5 -102.0 25.65 -100.85 L27.25 -100.9 27.2 -100.15 Q26.6 -94.55 20.1 -92.35 19.6 -93.65 19.2 -95.35 L19.2 -95.4 20.3 -95.4 Q20.95 -96.8 19.6 -97.85 L19.35 -98.1 Q19.1 -99.45 19.7 -101.45 M-25.05 -100.85 Q-24.9 -102.0 -24.15 -102.9 -23.2 -104.1 -21.5 -104.1 -19.9 -104.1 -19.15 -101.55 L-19.1 -101.45 Q-18.5 -99.45 -18.65 -98.1 L-19.0 -97.85 Q-20.35 -96.8 -19.65 -95.4 L-18.55 -95.4 -18.55 -95.35 -19.5 -92.35 Q-26.0 -94.55 -26.6 -100.15 L-26.65 -100.9 -25.05 -100.85" fill="#000000" fill-opacity="0.2509804" fill-rule="evenodd" stroke="none"/>
    <path d="M5.35 -107.65 L6.15 -108.2 6.25 -108.25 7.3 -108.45 Q8.4 -108.45 9.2 -107.65 10.0 -106.85 10.0 -105.75 10.0 -104.65 9.3 -103.85 L9.2 -103.8 8.15 -103.1 7.3 -103.0 6.25 -103.15 5.35 -103.8 Q4.55 -104.6 4.55 -105.75 4.55 -106.85 5.35 -107.65 M7.25 -107.6 Q6.45 -107.6 5.9 -107.0 5.35 -106.5 5.35 -105.7 5.35 -104.9 5.9 -104.3 6.45 -103.75 7.25 -103.75 L8.05 -103.9 8.65 -104.3 Q9.2 -104.9 9.2 -105.7 9.2 -106.5 8.65 -107.0 8.05 -107.6 7.25 -107.6 M-4.65 -107.55 Q-3.95 -106.8 -3.95 -105.75 -3.95 -104.65 -4.65 -103.9 L-4.75 -103.8 -5.6 -103.15 -6.65 -103.0 Q-7.75 -103.0 -8.5 -103.7 L-8.6 -103.8 -8.75 -103.95 Q-9.4 -104.7 -9.4 -105.75 L-9.25 -106.6 -8.6 -107.65 Q-7.8 -108.45 -6.65 -108.45 L-5.6 -108.25 -5.55 -108.2 -4.75 -107.65 -4.65 -107.55 M-8.1 -107.05 L-8.5 -106.45 -8.65 -105.75 Q-8.65 -104.95 -8.1 -104.35 -7.5 -103.8 -6.7 -103.8 -5.95 -103.8 -5.35 -104.35 -4.8 -104.95 -4.8 -105.75 -4.8 -106.55 -5.35 -107.05 -5.95 -107.65 -6.7 -107.65 -7.5 -107.65 -8.1 -107.05" fill="#000000" fill-rule="evenodd" stroke="none"/>
  </g>
</svg>
