<?xml version="1.0" encoding="UTF-8" standalone="no"?>
<svg xmlns:xlink="http://www.w3.org/1999/xlink" height="73.65px" width="77.0px" xmlns="http://www.w3.org/2000/svg">
  <g transform="matrix(1.0, 0.0, 0.0, 1.0, 38.6, 116.3)">
    <path d="M10.6 -115.45 L11.3 -115.75 Q13.2 -115.0 12.65 -113.45 12.2 -111.95 11.15 -111.1 10.15 -110.25 8.65 -111.55 7.2 -112.85 8.35 -115.0 L9.55 -115.1 Q8.9 -114.35 9.35 -112.9 9.5 -112.4 10.0 -112.2 L10.95 -112.25 Q11.5 -112.6 11.5 -113.3 11.55 -114.85 10.6 -115.45 M-8.6 -115.0 Q-7.45 -112.85 -8.95 -111.55 -10.4 -110.25 -11.45 -111.1 -12.45 -111.95 -12.95 -113.45 -13.45 -115.0 -11.55 -115.75 -11.2 -115.55 -10.8 -115.45 -11.75 -114.85 -11.75 -113.3 -11.75 -112.6 -11.2 -112.25 L-10.3 -112.2 Q-9.8 -112.4 -9.65 -112.9 -9.15 -114.35 -9.8 -115.1 L-8.6 -115.0" fill="#ffcc00" fill-rule="evenodd" stroke="none"/>
    <path d="M10.6 -115.45 Q11.55 -114.85 11.5 -113.3 11.5 -112.6 10.95 -112.25 L10.0 -112.2 Q9.5 -112.4 9.35 -112.9 8.9 -114.35 9.55 -115.1 L10.6 -115.45 M8.35 -115.0 Q7.2 -112.85 8.65 -111.55 10.15 -110.25 11.15 -111.1 12.2 -111.95 12.65 -113.45 13.2 -115.0 11.3 -115.75 L12.3 -116.3 Q13.3 -115.95 13.0 -113.1 12.65 -109.95 10.2 -110.45 7.9 -110.95 7.2 -113.45 7.1 -114.6 8.35 -115.0 M-11.55 -115.75 Q-13.45 -115.0 -12.95 -113.45 -12.45 -111.95 -11.45 -111.1 -10.4 -110.25 -8.95 -111.55 -7.45 -112.85 -8.6 -115.0 -7.3 -114.6 -7.4 -113.45 -8.1 -110.95 -10.5 -110.45 -12.95 -109.95 -13.25 -113.1 -13.5 -115.95 -12.45 -116.3 L-11.55 -115.75 M-9.8 -115.1 Q-9.15 -114.35 -9.65 -112.9 -9.8 -112.4 -10.3 -112.2 L-11.2 -112.25 Q-11.75 -112.6 -11.75 -113.3 -11.75 -114.85 -10.8 -115.45 L-9.8 -115.1" fill="#000000" fill-rule="evenodd" stroke="none"/>
    <path d="M19.65 -64.4 Q22.8 -58.4 26.7 -57.25 27.75 -52.5 26.7 -48.0 21.9 -49.3 18.85 -55.05 21.2 -58.8 19.65 -64.4 M31.85 -63.95 Q34.4 -59.0 38.4 -55.85 32.65 -53.9 26.7 -57.25 28.0 -62.05 26.7 -66.9 29.55 -65.0 31.85 -63.95 M11.3 -54.3 Q14.25 -58.15 13.25 -62.95 15.0 -57.65 18.85 -55.05 20.45 -49.95 18.85 -45.35 14.05 -47.5 11.3 -54.3 11.7 -48.45 9.6 -42.65 5.1 -46.9 4.1 -52.9 7.05 -56.35 6.15 -61.6 7.9 -56.1 11.3 -54.3 M-11.55 -54.3 Q-14.25 -47.65 -19.15 -45.35 -20.7 -49.95 -19.15 -55.05 -15.3 -57.65 -13.45 -62.95 -14.45 -58.2 -11.55 -54.3 -8.1 -56.15 -6.35 -61.6 -7.25 -56.35 -4.35 -52.9 -5.35 -46.9 -9.9 -42.65 -11.95 -48.45 -11.55 -54.3 M-32.15 -64.05 Q-29.8 -65.0 -26.95 -66.9 -28.2 -62.05 -26.95 -57.3 -32.9 -53.9 -38.6 -55.85 -34.6 -59.0 -32.15 -64.05 M-4.35 -52.9 Q-1.5 -55.75 -0.15 -61.45 1.25 -55.75 4.1 -52.9 3.3 -48.0 -0.15 -43.2 -3.55 -48.0 -4.35 -52.9 M-19.9 -64.4 Q-21.4 -58.8 -19.15 -55.05 -22.15 -49.3 -26.95 -48.0 -27.95 -52.5 -26.95 -57.3 -23.05 -58.4 -19.9 -64.4" fill="#000000" fill-opacity="0.2509804" fill-rule="evenodd" stroke="none"/>
  </g>
</svg>
