<?xml version="1.0" encoding="UTF-8" standalone="no"?>
<svg xmlns:xlink="http://www.w3.org/1999/xlink" height="89.5px" width="83.2px" xmlns="http://www.w3.org/2000/svg">
  <g transform="matrix(1.0, 0.0, 0.0, 1.0, -358.25, -163.75)">
    <path d="M364.1 183.35 L364.95 181.8 365.95 179.95 367.1 178.0 Q367.7 177.05 368.4 176.25 L369.8 174.75 371.3 173.5 372.05 172.95 372.1 172.9 372.1 173.0 372.05 173.65 371.85 174.5 371.15 176.7 370.3 179.05 Q370.0 180.3 370.1 181.6 370.2 182.9 370.6 184.15 371.0 185.35 371.85 186.35 372.55 187.15 373.65 187.45 L373.9 187.5 374.05 187.5 385.3 176.05 385.8 175.75 385.25 175.05 384.0 174.15 381.8 172.95 380.15 172.15 378.05 171.1 Q377.0 170.55 375.95 170.25 L375.6 170.25 375.85 170.0 375.9 170.0 Q376.7 169.5 377.6 169.15 378.65 168.7 379.8 168.4 L381.05 168.0 382.5 167.75 384.9 167.5 385.75 167.4 383.7 165.8 386.2 165.35 388.8 165.0 390.15 165.1 391.6 165.25 394.5 165.8 393.75 165.25 392.0 164.35 390.8 163.8 393.35 163.75 395.8 164.1 397.05 164.4 398.3 164.9 399.05 165.15 400.4 165.25 400.7 165.15 401.45 164.9 402.65 164.4 403.95 164.1 406.4 163.75 408.95 163.8 407.75 164.35 406.0 165.25 405.25 165.8 408.15 165.25 409.6 165.1 410.95 165.0 413.55 165.35 416.05 165.8 414.0 167.4 414.85 167.5 417.25 167.75 418.65 168.0 419.95 168.4 422.15 169.15 423.9 170.0 424.15 170.25 423.8 170.25 Q422.75 170.55 421.7 171.1 L419.55 172.15 417.95 172.95 415.75 174.15 414.5 175.05 413.95 175.75 414.45 176.05 424.25 186.0 424.5 186.3 425.7 187.5 425.85 187.5 426.1 187.45 Q427.2 187.15 427.9 186.35 428.75 185.35 429.15 184.15 L429.65 181.6 Q429.75 180.3 429.45 179.05 L428.6 176.7 427.9 174.5 427.7 173.65 427.65 173.0 427.65 172.95 427.7 172.95 428.45 173.5 429.95 174.75 431.35 176.25 432.6 178.0 433.8 179.95 434.8 181.8 435.65 183.35 436.55 185.25 437.65 186.75 Q437.1 186.3 436.55 186.15 L436.4 186.1 435.15 185.85 435.3 186.65 435.95 188.05 436.95 190.15 437.95 192.2 438.3 192.9 438.7 193.75 439.65 195.7 440.55 197.8 441.35 200.5 Q441.6 201.65 441.35 202.75 L440.8 204.85 Q440.7 203.75 440.25 202.8 439.65 201.25 438.3 200.25 L438.1 200.25 438.35 201.9 438.6 203.4 438.75 204.85 438.9 207.4 438.9 209.55 438.7 211.45 438.2 214.05 437.95 214.75 437.05 217.15 437.05 216.8 436.65 214.25 436.65 214.15 435.9 212.25 435.75 214.4 435.4 216.55 435.15 217.65 434.8 218.7 434.4 219.8 432.75 223.1 430.5 226.7 427.75 230.65 427.75 224.8 427.1 226.6 426.2 228.6 424.95 230.9 424.25 232.1 423.4 233.35 422.6 234.5 421.1 236.45 419.85 237.95 418.3 239.4 Q418.55 238.15 418.95 237.0 L419.3 235.6 419.4 233.55 Q417.7 236.55 415.05 238.75 L413.0 240.3 412.1 240.9 410.45 242.1 Q409.45 242.8 408.55 243.7 L406.6 245.7 404.9 247.8 403.35 249.85 400.1 253.05 399.9 253.25 399.65 253.05 396.35 249.85 394.85 247.8 393.15 245.7 391.2 243.7 389.3 242.1 387.65 240.9 386.75 240.3 384.7 238.75 Q382.05 236.55 380.35 233.55 L380.45 235.6 380.8 237.0 381.45 239.4 379.9 237.95 378.6 236.45 377.15 234.5 376.35 233.35 375.5 232.1 374.75 230.9 373.55 228.6 372.65 226.6 372.0 224.8 372.0 230.65 369.25 226.7 367.0 223.1 Q366.05 221.55 365.35 219.8 L364.95 218.7 364.6 217.65 364.35 216.55 364.0 214.4 363.85 212.25 Q363.3 213.15 363.1 214.15 L363.05 214.25 Q362.8 215.5 362.7 216.8 L362.7 217.15 361.8 214.75 361.55 214.05 361.05 211.45 360.85 209.55 360.85 207.4 361.0 204.85 361.15 203.4 361.4 201.9 361.65 200.25 361.45 200.25 Q360.1 201.25 359.45 202.8 359.05 203.75 358.95 204.85 L358.4 202.75 Q358.15 201.65 358.4 200.5 L359.2 197.8 360.1 195.7 361.05 193.75 361.45 192.9 361.8 192.2 362.8 190.15 363.8 188.05 364.45 186.65 364.6 185.85 363.4 186.1 363.2 186.15 Q362.6 186.3 362.1 186.75 L363.2 185.25 364.1 183.35 M376.5 197.65 L375.15 199.4 Q373.5 201.7 373.1 204.45 L372.95 205.55 375.1 203.65 374.9 204.9 Q374.55 206.4 374.55 208.0 374.45 210.45 374.7 212.7 375.65 211.2 377.0 209.95 377.7 209.35 378.35 209.25 L378.35 209.4 378.65 211.15 378.8 211.65 379.3 211.3 381.05 210.1 381.8 209.65 383.1 209.25 383.15 209.3 382.4 211.05 383.75 210.75 384.9 210.55 386.0 210.7 Q387.2 211.05 388.25 211.75 L388.3 212.0 388.45 213.0 388.75 214.15 388.8 214.6 388.4 216.25 Q387.5 220.9 391.5 222.6 393.85 223.65 397.85 223.65 L399.9 223.95 401.9 223.65 Q405.9 223.65 408.25 222.6 412.25 220.9 411.4 216.25 L410.95 214.6 411.0 214.15 411.35 213.0 411.45 212.0 411.45 211.75 Q412.55 211.05 413.75 210.7 L414.85 210.55 416.0 210.75 416.15 210.8 417.35 211.05 416.6 209.3 416.65 209.25 Q417.8 209.45 418.7 210.1 L420.45 211.3 420.9 211.65 421.1 211.15 421.35 209.4 421.4 209.25 Q422.05 209.35 422.7 209.95 L425.05 212.7 Q425.3 210.45 425.2 208.0 L424.85 204.9 424.65 203.65 426.75 205.55 426.65 204.45 Q426.25 201.7 424.6 199.4 L423.25 197.65 422.7 197.2 421.45 195.6 420.3 194.15 418.9 192.2 417.55 190.0 416.95 188.8 416.65 188.05 415.65 185.6 414.95 184.4 414.1 183.25 413.1 182.2 412.05 181.25 410.85 180.45 408.8 179.4 Q407.7 178.9 406.6 178.95 405.4 178.95 404.4 179.45 L402.5 180.75 401.0 182.35 399.95 183.65 399.85 183.55 398.75 182.35 397.25 180.75 395.35 179.45 Q394.35 178.95 393.15 178.95 392.05 178.9 390.95 179.4 389.85 179.85 388.9 180.45 L387.7 181.25 386.65 182.2 385.65 183.25 384.8 184.4 384.1 185.6 383.1 188.05 382.8 188.8 382.2 190.0 380.85 192.2 379.45 194.15 378.3 195.6 377.05 197.2 376.5 197.65" fill="#000000" fill-rule="evenodd" stroke="none"/>
  </g>
</svg>
