<?xml version="1.0" encoding="UTF-8" standalone="no"?>
<svg xmlns:xlink="http://www.w3.org/1999/xlink" height="68.3px" width="57.3px" xmlns="http://www.w3.org/2000/svg">
  <g transform="matrix(1.0, 0.0, 0.0, 1.0, -371.2, -173.95)">
    <path d="M379.25 184.7 L379.5 181.95 Q381.95 175.55 386.7 177.15 L388.45 178.0 Q389.6 177.0 390.85 176.25 L390.9 176.25 Q393.95 174.4 397.55 174.05 L399.85 173.95 402.15 174.05 Q405.75 174.4 408.8 176.25 L408.85 176.25 411.25 178.0 Q412.05 177.55 413.0 177.15 417.75 175.55 420.2 181.95 L420.45 184.7 Q420.25 183.0 418.6 181.2 415.7 177.0 410.45 183.3 411.3 192.6 415.7 191.25 419.1 189.2 420.1 187.0 420.75 192.2 422.65 196.7 425.75 204.15 421.65 210.55 422.6 216.95 428.5 236.4 416.0 242.05 399.85 242.25 383.7 242.05 371.2 236.4 377.1 216.95 378.05 210.55 373.95 204.15 377.05 196.7 378.95 192.2 379.6 187.0 380.6 189.2 384.0 191.25 388.4 192.6 389.25 183.3 384.0 177.0 381.1 181.2 379.45 183.0 379.25 184.7" fill="#000000" fill-rule="evenodd" stroke="none"/>
  </g>
</svg>
