<?xml version="1.0" encoding="UTF-8" standalone="no"?>
<svg xmlns:xlink="http://www.w3.org/1999/xlink" height="102.55px" width="72.9px" xmlns="http://www.w3.org/2000/svg">
  <g transform="matrix(1.0, 0.0, 0.0, 1.0, -363.4, -167.55)">
    <path d="M396.1 175.25 L397.45 179.0 397.65 175.1 399.85 169.2 402.05 175.1 402.25 179.0 403.6 175.25 409.0 167.55 407.15 175.65 404.3 179.3 411.95 181.3 417.15 218.25 421.65 220.8 433.05 221.95 426.25 226.45 436.3 231.0 430.1 235.9 432.25 238.75 433.65 245.0 424.6 245.0 425.55 246.7 425.55 255.75 416.6 251.9 417.15 253.45 414.25 264.5 406.2 258.1 406.5 261.4 399.85 270.1 393.2 261.4 393.5 258.1 385.45 264.5 382.55 253.45 383.1 251.9 374.15 255.75 374.15 246.7 375.1 245.0 366.05 245.0 367.45 238.75 369.6 235.9 363.4 231.0 373.45 226.45 366.65 221.95 378.05 220.8 382.55 218.25 387.75 181.3 395.4 179.3 392.55 175.65 390.7 167.55 396.1 175.25 M407.95 205.55 Q405.1 200.75 399.85 200.65 394.6 200.75 391.75 205.55 386.8 213.8 390.9 216.5 397.9 216.3 399.85 223.7 401.8 216.3 408.8 216.5 412.9 213.8 407.95 205.55 M411.45 195.2 L405.55 199.1 Q410.85 203.35 411.45 195.2 M388.25 195.2 Q388.85 203.35 394.15 199.1 L388.25 195.2" fill="#000000" fill-rule="evenodd" stroke="none"/>
  </g>
</svg>
