<?xml version="1.0" encoding="UTF-8" standalone="no"?>
<svg xmlns:xlink="http://www.w3.org/1999/xlink" height="32.85px" width="51.3px" xmlns="http://www.w3.org/2000/svg">
  <g transform="matrix(1.0, 0.0, 0.0, 1.0, -374.25, -144.9)">
    <path d="M378.4 144.9 L377.95 148.3 Q377.45 151.6 377.6 154.0 377.65 156.45 379.85 158.8 381.9 161.15 386.05 164.05 390.2 167.05 391.5 169.5 392.8 171.9 393.15 173.95 L393.15 174.25 393.15 174.35 Q391.9 176.95 389.05 177.65 386.9 178.05 385.05 176.8 L384.95 176.75 384.7 176.25 384.4 175.0 383.5 172.45 382.25 170.35 380.6 168.3 379.4 166.85 Q374.9 161.7 374.5 158.9 373.3 151.6 378.4 144.9 M421.4 144.9 Q426.5 151.6 425.3 158.9 424.9 161.7 420.4 166.85 L419.2 168.3 417.55 170.35 Q416.7 171.4 416.3 172.45 L415.4 175.0 415.1 176.25 414.85 176.75 414.75 176.8 Q412.9 178.05 410.75 177.65 407.9 176.95 406.65 174.35 L406.65 174.25 406.65 173.95 Q407.0 171.9 408.3 169.5 409.6 167.05 413.75 164.05 417.9 161.15 419.95 158.8 422.15 156.45 422.2 154.0 422.35 151.6 421.85 148.3 L421.4 144.9" fill="#000000" fill-rule="evenodd" stroke="none"/>
  </g>
</svg>
