<?xml version="1.0" encoding="UTF-8" standalone="no"?>
<svg xmlns:xlink="http://www.w3.org/1999/xlink" height="55.05px" width="62.4px" xmlns="http://www.w3.org/2000/svg">
  <g transform="matrix(1.0, 0.0, 0.0, 1.0, -368.7, -169.05)">
    <path d="M394.7 172.2 L394.7 171.95 392.7 169.05 393.35 169.05 Q395.15 169.2 396.45 170.0 L398.95 171.95 399.25 170.55 Q399.35 169.6 399.95 169.05 400.45 169.6 400.55 170.55 400.65 171.65 400.85 171.95 402.55 170.5 403.35 170.0 404.65 169.2 406.45 169.05 L407.1 169.05 405.1 171.95 405.1 172.2 414.7 172.95 414.7 173.3 Q413.7 173.3 413.25 173.6 L412.2 174.45 412.2 174.7 Q413.6 174.4 417.5 177.1 420.7 179.35 421.95 180.7 L420.15 180.6 Q418.4 180.65 417.35 181.05 L416.95 181.2 Q420.2 182.15 424.55 187.45 427.75 191.35 429.35 194.45 L429.15 194.55 427.75 193.85 Q426.65 193.25 425.9 193.3 428.7 194.45 430.05 199.6 430.75 202.3 431.1 205.45 L431.1 206.05 Q430.25 205.9 429.3 204.7 L428.1 203.05 427.85 203.05 427.95 203.15 Q428.45 203.85 428.45 205.7 L427.8 209.15 427.8 209.25 427.75 209.45 424.7 213.2 424.45 213.2 425.6 208.7 425.6 208.05 425.4 208.6 Q424.75 210.45 423.35 212.55 421.45 215.35 419.6 216.2 L419.6 212.2 Q419.3 213.7 417.75 215.25 L414.35 218.8 413.95 218.8 413.95 214.8 Q412.8 217.65 410.75 220.55 408.55 223.6 407.05 224.1 L406.5 223.15 406.7 222.15 Q406.7 220.95 406.25 220.3 407.65 219.15 407.5 217.55 L407.55 217.5 407.55 217.4 Q408.75 215.75 408.65 213.3 409.25 212.0 409.35 210.6 L409.45 209.55 Q410.7 208.2 410.6 206.0 411.7 204.2 411.65 201.9 L411.55 201.8 412.9 199.95 413.05 197.9 412.9 196.5 Q413.8 195.9 415.05 195.5 L415.25 195.45 415.35 195.45 415.6 195.35 415.8 195.25 Q416.75 194.8 417.15 194.05 417.7 193.0 417.25 192.1 416.6 190.8 415.4 190.1 L414.85 189.7 414.75 189.65 Q415.15 187.2 410.95 185.95 L411.95 185.4 409.95 185.2 410.35 184.75 411.0 183.9 411.65 182.9 411.2 182.85 410.35 182.8 407.95 182.8 405.3 183.3 403.75 183.75 403.8 183.6 403.9 183.25 404.05 182.85 403.75 182.9 402.85 183.05 Q401.2 183.25 399.9 184.4 398.6 183.25 396.95 183.05 L396.05 182.9 395.85 182.9 395.75 182.85 395.75 182.9 395.8 183.05 395.9 183.25 396.0 183.6 396.05 183.75 394.5 183.3 Q393.25 182.8 391.85 182.8 L389.45 182.8 388.6 182.85 388.15 182.9 388.8 183.9 389.45 184.75 389.85 185.2 387.85 185.4 388.85 185.95 Q384.65 187.2 385.05 189.65 L385.0 189.7 384.4 190.1 Q383.2 190.8 382.55 192.1 382.1 193.0 382.65 194.05 383.2 195.05 384.75 195.5 386.0 195.9 386.9 196.5 L386.75 197.9 Q386.75 199.55 386.9 199.95 387.05 200.5 388.25 201.8 L388.15 201.9 Q388.1 204.2 389.25 206.0 389.1 208.2 390.35 209.55 L390.45 210.6 Q390.55 212.0 391.15 213.3 391.05 215.75 392.25 217.4 L392.3 217.5 392.3 217.55 Q392.15 219.15 393.6 220.25 393.1 220.9 393.1 222.15 L393.3 223.15 392.75 224.1 Q391.25 223.6 389.05 220.55 387.0 217.65 385.85 214.8 L385.85 218.8 385.45 218.8 382.05 215.25 Q380.5 213.7 380.2 212.2 L380.2 216.2 Q378.35 215.35 376.45 212.55 375.05 210.45 374.4 208.6 L374.2 208.05 374.2 208.7 375.35 213.2 375.1 213.2 372.05 209.45 372.0 209.25 372.0 209.15 371.85 208.55 371.35 205.7 Q371.35 203.85 371.9 203.15 L371.95 203.05 371.7 203.05 370.5 204.7 Q369.55 205.9 368.7 206.05 L368.7 205.45 Q369.05 202.3 369.75 199.6 371.1 194.45 373.95 193.3 373.15 193.25 372.05 193.85 L370.65 194.55 370.45 194.45 Q372.05 191.35 375.25 187.45 379.6 182.15 382.85 181.2 L382.45 181.05 Q381.4 180.65 379.65 180.6 L377.85 180.7 Q379.1 179.35 382.3 177.1 386.2 174.4 387.6 174.7 L387.6 174.45 386.55 173.6 Q386.1 173.3 385.1 173.3 L385.1 172.95 394.7 172.2 M374.1 193.3 L374.2 193.2 373.95 193.3 374.1 193.3 M425.9 193.3 L425.6 193.2 425.7 193.3 425.9 193.3" fill="#000000" fill-rule="evenodd" stroke="none"/>
  </g>
</svg>
