<?xml version="1.0" encoding="UTF-8" standalone="no"?>
<svg xmlns:xlink="http://www.w3.org/1999/xlink" height="79.5px" width="43.65px" xmlns="http://www.w3.org/2000/svg">
  <g transform="matrix(1.0, 0.0, 0.0, 1.0, -343.6, -303.55)">
    <path d="M347.8 329.6 Q360.2 338.7 376.05 344.5 L378.2 345.3 M344.15 357.7 Q352.1 363.65 362.65 367.7" fill="none" stroke="#000000" stroke-linecap="round" stroke-linejoin="round" stroke-opacity="0.5019608" stroke-width="1.0"/>
    <path d="M378.2 345.3 L378.85 344.0 Q380.85 339.85 382.5 335.5 L383.7 332.25 385.95 324.8 386.75 321.4 Q379.75 319.35 373.95 316.65 367.75 313.8 362.9 310.15 359.1 307.35 356.15 304.05 350.75 316.85 347.8 329.6 344.45 343.7 344.15 357.7 M362.65 367.7 Q372.05 357.45 378.2 345.3 M362.65 367.7 Q355.2 375.75 345.8 382.55 343.8 370.15 344.15 357.7" fill="none" stroke="#000000" stroke-linecap="round" stroke-linejoin="round" stroke-width="1.0"/>
  </g>
</svg>
