<?xml version="1.0" encoding="UTF-8" standalone="no"?>
<svg xmlns:xlink="http://www.w3.org/1999/xlink" height="31.75px" width="39.2px" xmlns="http://www.w3.org/2000/svg">
  <g transform="matrix(1.0, 0.0, 0.0, 1.0, -351.15, -304.3)">
    <path d="M390.35 316.25 L390.3 317.1 Q389.85 320.1 386.05 327.5 L385.5 328.55 385.3 328.85 384.35 330.55 375.4 336.05 Q373.8 335.7 373.6 334.6 373.3 333.15 375.2 330.4 376.2 328.9 377.9 327.05 L388.55 315.1 Q390.25 314.6 390.35 316.25 M368.9 304.3 Q373.0 304.5 376.65 306.3 377.9 308.3 375.8 309.4 L374.95 312.5 Q376.3 313.25 376.35 316.8 L372.3 322.3 371.2 322.95 Q366.9 325.2 364.55 320.25 L364.25 313.05 Q365.7 310.85 367.15 310.8 L368.0 307.5 Q366.4 305.25 368.9 304.3 M354.35 305.8 Q354.8 305.95 355.3 306.8 L357.3 315.05 357.3 315.1 358.95 322.05 Q360.05 328.25 358.9 330.25 L357.8 331.15 356.5 331.05 351.15 322.75 Q351.85 306.8 353.85 305.85 L354.35 305.8" fill="#000000" fill-rule="evenodd" stroke="none"/>
  </g>
</svg>
