<?xml version="1.0" encoding="UTF-8" standalone="no"?>
<svg xmlns:xlink="http://www.w3.org/1999/xlink" height="35.2px" width="37.5px" xmlns="http://www.w3.org/2000/svg">
  <g transform="matrix(1.0, 0.0, 0.0, 1.0, -381.05, -209.3)">
    <path d="M416.65 231.05 Q414.75 234.25 411.05 236.15 408.2 237.6 405.6 237.6 404.0 237.6 403.0 236.95 401.95 236.3 401.7 235.25 400.65 236.5 399.2 237.05 L396.15 237.6 Q392.75 237.6 390.3 235.25 387.9 232.95 387.9 228.65 387.9 223.65 390.95 219.55 394.0 215.45 398.65 215.45 400.45 215.45 401.9 216.2 403.3 216.9 403.95 218.4 L404.25 216.15 409.85 216.15 406.85 232.4 406.75 233.05 406.85 233.3 407.2 233.4 Q408.15 233.4 409.4 232.65 411.35 231.5 412.65 229.35 413.9 227.1 413.9 224.0 413.9 218.95 410.4 216.0 406.95 213.1 401.05 213.1 396.7 213.1 393.15 214.8 389.55 216.55 387.6 219.85 385.7 223.15 385.7 227.2 385.7 233.5 389.9 237.1 394.1 240.7 400.75 240.7 404.0 240.7 407.05 239.8 410.05 238.9 412.95 237.0 L418.55 237.0 Q416.45 239.65 414.6 240.75 411.95 242.4 408.4 243.45 404.9 244.5 400.85 244.5 395.15 244.5 390.65 242.3 386.15 240.1 383.6 236.1 381.05 232.05 381.05 227.15 381.05 222.1 383.7 217.95 386.35 213.75 390.7 211.55 395.05 209.3 401.05 209.3 408.8 209.3 413.65 213.4 418.55 217.5 418.55 223.95 418.55 227.85 416.65 231.05 M399.45 219.5 Q398.1 219.5 397.0 220.35 395.55 221.6 394.75 224.4 393.9 227.2 393.9 229.65 393.9 231.9 395.0 233.05 395.8 233.9 396.95 233.9 398.25 233.9 399.4 232.9 400.55 231.9 401.45 228.75 402.35 225.55 402.35 223.0 402.35 221.2 401.45 220.35 400.6 219.5 399.45 219.5" fill="#000000" fill-rule="evenodd" stroke="none"/>
  </g>
</svg>
