<?xml version="1.0" encoding="UTF-8" standalone="no"?>
<svg xmlns:xlink="http://www.w3.org/1999/xlink" height="30.55px" width="27.45px" xmlns="http://www.w3.org/2000/svg">
  <g transform="matrix(1.0, 0.0, 0.0, 1.0, -386.2, -209.3)">
    <path d="M413.65 218.05 Q413.65 219.85 412.45 221.5 411.3 223.2 407.7 225.5 405.4 227.0 404.8 227.95 404.25 228.85 404.25 230.7 L394.15 230.7 394.15 229.55 Q394.15 227.55 394.7 226.2 395.25 224.95 396.3 223.9 397.4 222.9 401.1 220.35 402.85 219.15 402.85 218.25 402.85 217.35 402.2 216.85 401.6 216.35 400.2 216.35 398.7 216.35 397.75 217.2 396.75 218.0 396.4 220.55 L386.2 219.55 Q386.65 214.75 390.05 212.0 393.45 209.3 400.35 209.3 405.7 209.3 408.3 211.15 413.65 213.8 413.65 218.05 M404.55 239.85 L393.85 239.85 393.85 231.9 404.55 231.9 404.55 239.85" fill="#000000" fill-rule="evenodd" stroke="none"/>
  </g>
</svg>
