<?xml version="1.0" encoding="UTF-8" standalone="no"?>
<svg xmlns:xlink="http://www.w3.org/1999/xlink" height="100.2px" width="104.2px" xmlns="http://www.w3.org/2000/svg">
  <g transform="matrix(1.0, 0.0, 0.0, 1.0, -347.8, -302.1)">
    <path d="M349.05 313.8 L349.05 313.75 M361.45 323.2 L361.6 323.1 362.9 323.0 Q364.2 324.15 366.05 323.35 367.25 322.8 367.8 321.65 367.85 321.15 368.45 321.2 L368.85 321.35 M367.1 326.85 L367.55 326.7 Q367.85 326.75 368.0 327.1 L368.1 327.55 367.7 328.0 367.25 328.0 Q367.0 328.0 366.8 327.75 L366.8 327.25 367.1 326.85 M364.6 330.75 L364.4 331.1 363.85 331.25 363.5 330.9 Q363.4 330.65 363.45 330.4 L363.75 330.1 364.2 330.0 364.6 330.3 364.6 330.75 M364.35 337.0 L365.5 332.7 366.1 332.55 Q366.45 332.95 367.25 332.55 L369.85 332.95 368.75 332.65 366.85 332.15 366.05 331.95 Q365.2 331.7 364.7 332.8 L363.65 337.2 M368.75 332.65 L369.2 331.05 Q367.55 331.2 366.85 332.15 M369.85 332.95 L370.7 333.2 371.25 333.35 371.6 333.4 371.65 333.4 371.7 333.45 371.9 333.5 372.0 333.55 372.4 333.6 372.85 332.0 373.25 330.3 Q373.35 329.25 371.85 328.75 370.4 328.35 369.65 329.3 L369.2 331.05 M369.85 332.95 Q370.55 333.8 371.65 333.4 L371.35 334.5 M372.4 333.6 L372.95 333.8 M374.15 333.2 L372.85 332.0 M372.85 333.85 L372.0 333.55 M370.8 327.55 L371.0 328.35 Q373.45 328.3 374.4 330.25 375.4 331.55 376.5 332.0 M369.25 335.35 L369.85 332.95 M367.25 332.55 L366.2 336.45 M366.1 332.55 L364.95 336.85 M353.1 317.55 Q348.5 316.2 349.05 313.8 M358.6 311.15 Q359.0 311.25 359.25 311.6 359.45 312.0 359.3 312.45 L358.8 313.1 358.05 313.25 Q357.55 313.15 357.35 312.7 357.1 312.3 357.2 311.85 357.35 311.4 357.8 311.25 L358.6 311.15 M352.25 303.6 Q353.0 302.9 355.6 304.7 M361.6 337.8 L363.1 326.15 Q363.15 325.75 362.9 325.65 L362.3 325.4 361.65 325.65 M361.2 329.1 Q361.5 329.65 361.3 330.45 M444.2 304.7 Q446.8 302.9 447.55 303.6 M450.75 313.75 L450.75 313.8 M446.7 317.55 Q451.3 316.2 450.75 313.8 M430.95 321.35 L431.35 321.2 Q431.95 321.15 432.0 321.65 432.55 322.8 433.75 323.35 435.6 324.15 436.9 323.0 L438.2 323.1 438.35 323.2 M429.0 327.55 L428.8 328.35 Q426.35 328.3 425.4 330.25 424.4 331.55 423.3 332.0 M425.65 333.2 L426.95 332.0 426.55 330.3 Q426.45 329.25 427.95 328.75 429.4 328.35 430.15 329.3 L430.6 331.05 Q432.25 331.2 432.95 332.15 L433.75 331.95 Q434.6 331.7 435.1 332.8 L436.15 337.2 M438.2 337.8 L436.7 326.15 Q436.65 325.75 436.9 325.65 L437.5 325.4 438.15 325.65 M441.75 313.25 Q442.25 313.15 442.45 312.7 L442.6 311.85 442.0 311.25 441.2 311.15 Q440.8 311.25 440.55 311.6 440.35 312.0 440.5 312.45 L441.0 313.1 441.75 313.25 M438.5 330.45 Q438.3 329.65 438.6 329.1 M435.6 330.0 L435.2 330.3 435.2 330.75 435.4 331.1 435.95 331.25 436.3 330.9 436.35 330.4 436.05 330.1 435.6 330.0 M432.7 326.85 L432.25 326.7 Q431.95 326.75 431.8 327.1 L431.7 327.55 432.1 328.0 432.55 328.0 433.0 327.75 433.0 327.25 432.7 326.85 M426.85 333.8 L427.4 333.6 426.95 332.0 M426.95 333.85 L427.8 333.55 427.4 333.6 M428.45 334.5 L428.15 333.4 428.1 333.45 427.9 333.5 427.8 333.55 M428.15 333.4 L428.2 333.4 428.55 333.35 429.1 333.2 429.95 332.95 431.05 332.65 430.6 331.05 M430.55 335.35 L429.95 332.95 Q429.25 333.8 428.15 333.4 M435.45 337.0 L434.3 332.7 433.7 332.55 434.85 336.85 M431.05 332.65 L432.95 332.15 M433.7 332.55 Q433.35 332.95 432.55 332.55 L433.6 336.45 M432.55 332.55 L429.95 332.95" fill="none" stroke="#000000" stroke-linecap="round" stroke-linejoin="round" stroke-opacity="0.5019608" stroke-width="1.0"/>
    <path d="M349.05 313.75 L350.1 310.3 Q351.15 306.15 352.25 303.6 L352.45 303.25 Q352.9 302.55 353.15 302.6 L355.6 304.7 361.0 309.25 Q364.35 311.85 366.35 314.7 368.6 317.75 368.85 321.35 L368.95 321.65 368.7 324.55 Q370.5 325.35 370.8 327.55 372.8 327.25 375.05 328.7 376.15 327.45 377.85 327.5 378.85 327.55 379.35 326.8 379.85 327.2 379.55 327.85 379.3 328.4 378.2 328.6 376.75 329.2 377.15 330.95 L377.35 331.55 379.95 330.0 381.4 332.55 377.2 348.2 Q387.0 352.9 396.15 358.6 L395.35 369.35 373.05 363.5 364.0 397.05 Q357.85 402.4 350.95 401.7 348.9 370.65 353.05 339.6 L359.8 338.25 358.95 337.85 357.2 337.2 Q355.0 336.0 354.7 333.9 354.3 330.95 355.55 328.55 356.95 326.7 359.45 326.65 361.05 326.9 361.65 325.65 361.95 324.75 361.45 323.65 361.3 323.3 361.45 323.2 360.0 319.25 355.8 318.25 L353.1 317.55 348.8 316.8 Q348.15 316.85 348.35 316.0 L349.05 313.8 M377.35 331.55 L376.5 332.0 374.15 333.2 372.95 333.8 372.85 333.85 371.35 334.5 369.25 335.35 366.2 336.45 364.95 336.85 364.35 337.0 363.65 337.2 361.6 337.8 359.8 338.25 M361.3 330.45 L360.8 334.75 Q360.5 336.15 359.3 336.45 357.7 336.9 356.3 335.7 355.3 334.35 355.4 332.3 355.7 329.45 356.9 328.5 358.75 327.25 360.5 328.25 L361.2 329.1 M361.3 330.45 Q360.5 329.75 358.7 329.7 357.9 329.85 357.15 330.5 L356.7 330.4 Q356.55 330.2 357.0 329.75 358.5 328.35 361.2 329.1 M404.45 369.35 L426.75 363.5 422.6 348.2 Q412.8 352.9 403.65 358.6 L404.45 369.35 M377.2 348.2 L373.05 363.5 M447.55 303.6 L447.35 303.25 Q446.9 302.55 446.65 302.6 L444.2 304.7 438.8 309.25 Q435.45 311.85 433.45 314.7 431.2 317.75 430.95 321.35 L430.85 321.65 Q430.85 323.35 431.1 324.55 429.3 325.35 429.0 327.55 427.0 327.25 424.75 328.7 423.65 327.45 421.95 327.5 420.95 327.55 420.45 326.8 419.95 327.2 420.25 327.85 420.5 328.4 421.6 328.6 423.05 329.2 422.65 330.95 L422.45 331.55 423.3 332.0 425.65 333.2 426.85 333.8 426.95 333.85 428.45 334.5 430.55 335.35 433.6 336.45 434.85 336.85 435.45 337.0 436.15 337.2 438.2 337.8 440.0 338.25 446.75 339.6 Q450.9 370.65 448.85 401.7 441.95 402.4 435.8 397.05 L426.75 363.5 M447.55 303.6 Q448.65 306.15 449.7 310.3 L450.75 313.75 M450.75 313.8 L451.45 316.0 Q451.65 316.85 451.0 316.8 L446.7 317.55 444.0 318.25 Q439.8 319.25 438.35 323.2 L438.35 323.65 Q437.85 324.75 438.15 325.65 438.75 326.9 440.35 326.65 442.85 326.7 444.25 328.55 445.5 330.95 445.1 333.9 444.8 336.0 442.6 337.2 L440.85 337.85 Q440.35 337.95 440.0 338.25 M422.45 331.55 L419.85 330.0 418.4 332.55 422.6 348.2 M438.6 329.1 L439.3 328.25 Q441.05 327.25 442.9 328.5 444.1 329.45 444.4 332.3 444.5 334.35 443.5 335.7 442.1 336.9 440.5 336.45 439.3 336.15 439.0 334.75 L438.5 330.45 M438.6 329.1 Q441.3 328.35 442.8 329.75 443.25 330.2 443.1 330.4 442.85 330.65 442.65 330.5 441.9 329.85 441.1 329.7 439.3 329.75 438.5 330.45" fill="none" stroke="#000000" stroke-linecap="round" stroke-linejoin="round" stroke-width="1.0"/>
  </g>
</svg>
