<?xml version="1.0" encoding="UTF-8" standalone="no"?>
<svg xmlns:xlink="http://www.w3.org/1999/xlink" height="39.85px" width="33.0px" xmlns="http://www.w3.org/2000/svg">
  <g transform="matrix(1.0, 0.0, 0.0, 1.0, -362.3, -304.1)">
    <path d="M370.2 312.55 L370.5 312.3 Q371.85 311.25 373.2 311.05 L375.25 311.15 Q376.35 309.5 377.4 309.45 L378.05 307.0 Q376.85 305.3 378.75 304.6 381.8 304.75 384.55 306.1 385.5 307.6 383.9 308.4 L383.25 310.75 Q384.3 311.3 384.3 313.95 387.15 313.9 388.35 317.0 L388.75 317.95 393.45 312.7 Q394.75 312.3 394.8 313.55 L394.8 314.2 Q394.45 316.45 391.6 322.0 L391.2 322.75 391.05 323.0 390.3 324.25 M389.7 325.05 Q389.55 327.35 388.9 329.75 L388.5 331.05 388.05 332.25 Q386.75 335.55 384.6 338.05 L383.7 339.05 381.95 340.6 379.8 342.0 Q377.1 343.5 374.3 343.45 L372.35 343.3 371.7 343.15 Q368.5 342.25 366.4 339.7 365.05 338.15 364.15 335.95 L364.1 335.9 364.05 335.6 363.55 334.15 Q362.85 331.9 362.8 329.65 L362.8 329.4 362.8 329.35 362.8 328.95 363.0 326.45 363.55 323.45 363.6 323.1 Q364.3 320.55 365.4 318.4 365.95 306.45 367.45 305.75 L367.8 305.7 368.55 306.45 370.05 312.65 M364.05 335.6 L364.3 336.25 364.15 335.95" fill="none" stroke="#000000" stroke-linecap="round" stroke-linejoin="round" stroke-width="1.0"/>
    <path d="M390.3 324.25 L389.7 325.05 M370.05 312.65 L370.2 312.55 370.05 312.7 370.35 313.95 372.25 317.15 375.45 316.1 375.25 311.15 M386.85 320.1 L387.45 319.45 386.6 319.7 386.85 320.1 385.5 321.65 Q384.2 323.05 383.45 324.15 382.05 326.2 382.25 327.3 382.4 328.15 383.6 328.4 L385.25 327.4 389.7 324.65 390.3 324.25 M387.45 319.45 L388.75 317.95 M378.75 304.6 Q380.7 307.75 384.55 306.1 M383.9 308.4 Q380.25 309.55 378.05 307.0 M370.05 312.65 L370.05 312.7 M369.45 320.6 L370.0 320.5 370.4 320.85 370.4 321.55 370.05 322.15 369.45 322.3 369.05 321.9 369.05 321.25 369.45 320.6 M371.25 317.9 Q372.1 322.55 371.25 324.05 L375.6 322.8 372.25 317.15 371.2 317.5 371.25 317.9 M370.35 313.95 L371.2 317.5 M375.45 316.1 L375.45 316.55 Q377.25 320.25 380.45 318.55 L381.3 318.1 383.7 314.8 384.3 313.95 M380.45 318.55 L381.75 321.05 386.6 319.7 383.7 314.8 M367.75 309.1 L366.85 317.65 M384.25 325.15 L384.6 324.55 385.2 324.4 385.6 324.8 385.65 325.55 385.25 326.1 384.7 326.3 384.25 325.85 384.25 325.15 M382.25 327.3 L378.95 328.5 381.95 333.55 387.55 331.35 385.25 327.4 M383.45 324.15 L381.75 321.05 375.6 322.8 378.95 328.5 373.55 330.55 376.4 335.8 381.95 333.55 384.6 338.05 M371.25 324.05 L370.4 324.7 373.55 330.55 368.35 332.45 371.25 337.8 376.4 335.8 379.1 340.75 383.7 339.05 M370.4 324.7 L369.45 324.65 364.85 325.9 368.35 332.45 363.55 334.15 M379.8 342.0 L379.1 340.75 373.9 342.7 374.3 343.45 M372.35 343.3 L373.9 342.7 371.25 337.8 366.4 339.7 M389.7 324.65 L389.7 325.05 M388.5 331.05 L387.55 331.35 388.05 332.25 M392.6 315.35 L389.75 322.55 M369.45 324.65 L365.4 318.4 M363.0 326.45 L364.85 325.9 363.55 323.45" fill="none" stroke="#000000" stroke-linecap="round" stroke-linejoin="round" stroke-opacity="0.49803922" stroke-width="1.0"/>
  </g>
</svg>
