<?xml version="1.0" encoding="UTF-8" standalone="no"?>
<svg xmlns:xlink="http://www.w3.org/1999/xlink" height="73.35px" width="71.9px" xmlns="http://www.w3.org/2000/svg">
  <g transform="matrix(1.0, 0.0, 0.0, 1.0, -363.9, -305.5)">
    <path d="M386.75 314.6 L390.65 317.5 399.9 324.75 409.0 317.5 412.85 314.6 M421.15 313.1 L424.25 312.55 427.8 312.0 M371.8 312.0 L375.4 312.55 378.4 313.1 M375.4 312.55 L372.4 331.65 365.25 335.2 M390.65 317.5 L387.9 356.3 399.8 370.65 411.75 356.3 409.0 317.5 M434.35 335.2 L427.2 331.65 424.25 312.55" fill="none" stroke="#000000" stroke-linecap="round" stroke-linejoin="round" stroke-opacity="0.5019608" stroke-width="1.0"/>
    <path d="M412.85 314.6 L421.15 313.1 M427.8 312.0 L428.3 306.0 413.35 308.45 399.8 317.25 386.3 308.45 371.35 306.0 371.8 312.0 M378.4 313.1 L386.75 314.6 384.45 344.8 383.05 358.15 399.75 378.35 416.55 358.15 415.15 344.8 412.85 314.6 M365.25 335.2 Q364.75 337.4 364.4 339.65 L375.05 334.45 378.4 313.1 M365.25 335.2 Q367.85 322.95 371.8 312.0 M427.8 312.0 Q431.75 322.95 434.35 335.2 L435.3 339.65 424.55 334.45 421.15 313.1" fill="none" stroke="#000000" stroke-linecap="round" stroke-linejoin="round" stroke-width="1.0"/>
  </g>
</svg>
