<?xml version="1.0" encoding="UTF-8" standalone="no"?>
<svg xmlns:xlink="http://www.w3.org/1999/xlink" height="76.95px" width="35.5px" xmlns="http://www.w3.org/2000/svg">
  <g transform="matrix(1.0, 0.0, 0.0, 1.0, -382.2, -159.8)">
    <path d="M384.25 188.4 Q382.95 206.5 382.7 236.25 384.65 187.55 391.1 177.95 394.8 172.4 399.95 179.7 397.15 169.75 394.8 164.9 389.95 154.85 387.05 166.65 385.3 173.65 384.25 188.4 M405.1 164.9 Q402.75 169.75 399.95 179.7 405.1 172.4 408.8 177.9 415.25 187.5 417.2 236.25 416.95 206.5 415.65 188.45 414.6 173.65 412.9 166.65 409.95 154.85 405.1 164.9" fill="none" stroke="#000000" stroke-linecap="round" stroke-linejoin="round" stroke-opacity="0.49803922" stroke-width="1.0"/>
  </g>
</svg>
