<?xml version="1.0" encoding="UTF-8" standalone="no"?>
<svg xmlns:xlink="http://www.w3.org/1999/xlink" height="112.5px" width="78.3px" xmlns="http://www.w3.org/2000/svg">
  <g transform="matrix(1.0, 0.0, 0.0, 1.0, -359.65, -166.25)">
    <path d="M424.55 230.45 L424.0 225.3 424.0 225.1 424.05 224.15 424.1 221.8 424.1 221.4 Q425.1 206.9 423.25 192.4 L422.9 189.95 Q418.6 170.55 407.55 167.5 L402.25 167.0 400.5 167.15 397.9 166.8 395.15 166.9 Q385.8 167.95 380.25 180.45 378.1 186.45 376.6 192.7 373.35 206.45 373.55 221.4 L373.6 224.15 373.65 225.1 373.65 225.3 372.95 231.4" fill="none" stroke="#000000" stroke-linecap="round" stroke-linejoin="round" stroke-width="1.0"/>
    <path d="M372.95 231.4 Q371.25 240.85 365.9 248.95 363.45 251.55 362.05 254.05 357.8 261.5 363.05 267.7 370.35 275.65 388.2 278.25 385.05 275.45 383.75 272.15 382.65 269.3 382.9 266.15 L385.75 269.0 Q382.15 261.7 382.2 253.55 L385.55 256.0 Q380.7 245.9 381.55 234.15 L385.95 239.0 Q382.65 230.8 382.9 221.85 L382.9 221.4 382.8 219.7 382.8 218.85 Q382.25 202.9 385.1 190.1 387.4 181.0 398.9 179.15 L400.35 171.2 402.05 179.3 Q415.3 183.7 413.75 200.65 412.9 210.15 414.45 219.65 L414.75 221.4 414.75 221.65 414.75 221.85 414.8 222.7 Q414.85 231.2 411.7 239.0 L416.1 234.15 Q416.95 245.9 412.1 256.0 L415.45 253.55 Q415.5 261.7 411.9 269.0 L414.75 266.15 Q414.95 268.9 414.2 271.35 413.0 275.1 409.45 278.25 427.3 275.65 434.6 267.7 438.7 262.8 436.95 257.15 435.95 253.95 433.1 250.45 L432.45 249.75 431.75 248.95 Q426.1 240.4 424.55 230.45 Z" fill="none" stroke="#000000" stroke-linecap="round" stroke-linejoin="round" stroke-opacity="0.49803922" stroke-width="1.0"/>
  </g>
</svg>
