<?xml version="1.0" encoding="UTF-8" standalone="no"?>
<svg xmlns:xlink="http://www.w3.org/1999/xlink" height="28.5px" width="36.95px" xmlns="http://www.w3.org/2000/svg">
  <g transform="matrix(1.0, 0.0, 0.0, 1.0, -381.5, -169.6)">
    <path d="M387.7 173.05 L388.15 172.25 388.95 170.75 389.05 170.75 390.15 171.2 390.7 171.5 Q394.55 169.85 399.95 169.6 414.25 170.2 417.6 180.65 418.9 186.55 418.2 193.35 L416.75 188.65 Q416.9 191.75 416.55 195.0 415.45 189.1 412.2 184.15 413.5 189.45 412.85 196.35 411.65 182.6 405.25 178.7 L400.15 181.8 399.7 181.45 Q394.6 177.35 389.45 177.1 385.45 185.0 382.8 194.3 L381.75 198.1 381.75 194.5 381.8 193.85 382.0 191.1 381.65 192.45 Q381.1 186.15 382.3 180.65 383.85 175.9 387.65 173.2 L387.7 173.05 M384.05 181.65 L384.0 181.95 384.1 181.6 384.05 181.65" fill="#000000" fill-rule="evenodd" stroke="none"/>
  </g>
</svg>
