<?xml version="1.0" encoding="UTF-8" standalone="no"?>
<svg xmlns:xlink="http://www.w3.org/1999/xlink" height="50.1px" width="40.9px" xmlns="http://www.w3.org/2000/svg">
  <g transform="matrix(1.0, 0.0, 0.0, 1.0, -379.7, -167.05)">
    <path d="M383.0 190.35 Q382.65 190.55 382.35 190.7" fill="none" stroke="#000000" stroke-linecap="round" stroke-linejoin="round" stroke-width="0.5"/>
    <path d="M391.75 168.7 Q419.65 162.45 420.1 189.55 L420.1 193.4 Q419.85 208.15 412.65 216.65 418.4 200.2 413.7 192.0 L408.8 187.5 Q399.25 186.35 392.6 176.9 390.1 185.8 384.25 189.6 L383.0 190.35 Q382.0 197.25 383.55 202.4 380.65 197.4 380.2 185.45 379.7 173.5 391.75 168.7" fill="none" stroke="#000000" stroke-linecap="round" stroke-linejoin="round" stroke-width="1.0"/>
    <path d="M381.75 190.95 L382.35 190.7 Q388.05 184.9 389.5 176.6 M408.8 187.5 Q401.9 181.6 392.6 176.9 M413.7 192.0 Q409.8 182.15 398.25 176.3" fill="none" stroke="#000000" stroke-linecap="round" stroke-linejoin="round" stroke-opacity="0.49803922" stroke-width="1.0"/>
  </g>
</svg>
