<?xml version="1.0" encoding="UTF-8" standalone="no"?>
<svg xmlns:xlink="http://www.w3.org/1999/xlink" height="71.45px" width="49.65px" xmlns="http://www.w3.org/2000/svg">
  <g transform="matrix(1.0, 0.0, 0.0, 1.0, -375.0, -201.6)">
    <path d="M421.15 203.5 L421.9 204.8 422.35 204.35 423.15 204.25 Q423.7 204.5 423.75 205.65 423.75 206.75 423.2 208.2 422.65 209.6 421.9 210.35 L421.7 210.6 421.9 210.95 422.35 210.5 423.15 210.4 Q423.7 210.7 423.75 211.8 423.75 212.95 423.2 214.35 422.65 215.75 421.9 216.55 L421.75 216.7 421.9 217.0 422.35 216.55 423.15 216.45 Q423.7 216.7 423.75 217.85 423.75 218.95 423.2 220.4 422.7 221.7 422.0 222.45 L422.35 222.15 423.15 222.05 Q423.7 222.35 423.75 223.45 423.75 224.6 423.2 226.0 L422.35 227.6 423.15 227.5 Q423.7 227.8 423.75 228.9 423.75 230.05 423.2 231.45 422.65 232.85 421.9 233.65 L421.8 233.75 421.9 233.9 421.9 233.85 422.0 233.75 422.35 233.45 423.15 233.35 Q423.7 233.65 423.75 234.75 423.75 235.9 423.2 237.3 422.65 238.7 421.9 239.5 L421.7 239.7 421.75 239.75 421.8 239.9 421.9 240.0 421.9 239.95 422.0 239.9 422.35 239.55 423.15 239.5 Q423.7 239.75 423.75 240.85 423.75 242.0 423.2 243.45 L422.2 245.3 422.35 245.15 423.15 245.05 Q423.7 245.35 423.75 246.45 423.75 247.6 423.2 249.0 422.65 250.4 421.9 251.2 L421.75 251.35 421.8 251.5 421.9 251.65 421.9 251.6 422.0 251.5 422.2 251.3 422.35 251.2 423.15 251.1 Q423.7 251.35 423.75 252.5 423.75 253.6 423.2 255.05 422.65 256.45 421.9 257.2 L421.5 257.55 421.7 257.9 421.7 257.95 421.75 257.95 421.8 258.1 421.9 258.25 421.9 258.2 422.0 258.1 422.2 257.95 422.35 257.8 423.15 257.7 Q423.7 257.95 423.75 259.1 L423.65 260.25 423.65 265.1 423.05 265.1 Q422.3 268.7 424.15 269.2 423.5 270.55 421.9 270.35 421.95 271.15 422.8 271.9 420.35 273.65 418.2 270.85 L417.25 272.1 Q416.2 267.95 418.85 265.1 L418.15 265.1 418.15 260.15 419.45 260.15 419.2 259.6 Q418.6 258.1 418.6 257.05 418.55 255.9 419.1 255.65 419.5 255.5 419.95 255.8 L420.0 255.45 420.15 254.65 419.2 253.0 Q418.6 251.5 418.6 250.4 418.55 249.3 419.1 249.0 L420.0 249.2 420.05 249.2 420.15 248.6 419.2 246.95 Q418.6 245.45 418.6 244.4 418.55 243.25 419.1 243.0 L420.0 243.15 420.05 243.15 420.1 243.2 420.15 243.05 419.2 241.35 Q418.6 239.9 418.6 238.8 418.55 237.7 419.1 237.4 419.5 237.25 420.0 237.6 L420.15 236.9 419.2 235.25 Q418.6 233.75 418.6 232.7 418.55 231.55 419.1 231.3 L420.05 231.45 420.1 231.5 420.15 231.05 419.2 229.4 Q418.6 227.9 418.6 226.85 418.55 225.7 419.1 225.45 L420.05 225.6 420.1 225.65 420.1 225.7 420.15 225.6 419.2 223.95 Q418.6 222.45 418.6 221.4 418.55 220.25 419.1 220.0 L420.05 220.15 420.1 220.2 420.15 220.0 419.2 218.35 Q418.6 216.85 418.6 215.75 418.55 214.65 419.1 214.35 L420.05 214.55 420.15 213.95 419.2 212.3 Q418.6 210.8 418.6 209.75 418.55 208.6 419.1 208.35 L420.05 208.5 420.15 207.8 419.2 206.15 Q418.6 204.65 418.6 203.55 418.55 202.45 419.1 202.15 419.7 202.0 420.55 202.7 L421.15 203.5 M381.05 203.55 Q381.05 204.65 380.45 206.15 L379.5 207.8 379.6 208.5 380.55 208.35 Q381.1 208.6 381.05 209.75 381.05 210.8 380.45 212.3 L379.5 213.95 379.6 214.55 380.55 214.35 Q381.1 214.65 381.05 215.75 381.05 216.85 380.45 218.35 L379.5 220.0 379.55 220.2 379.6 220.15 380.55 220.0 Q381.1 220.25 381.05 221.4 381.05 222.45 380.45 223.95 L379.5 225.6 379.55 225.7 379.55 225.65 379.6 225.6 380.55 225.45 Q381.1 225.7 381.05 226.85 381.05 227.9 380.45 229.4 L379.5 231.05 379.55 231.5 379.6 231.45 380.55 231.3 Q381.1 231.55 381.05 232.7 381.05 233.75 380.45 235.25 L379.5 236.9 379.65 237.6 Q380.15 237.25 380.55 237.4 381.1 237.7 381.05 238.8 381.05 239.9 380.45 241.35 L379.5 243.05 379.55 243.2 379.6 243.15 379.65 243.15 380.55 243.0 Q381.1 243.25 381.05 244.4 381.05 245.45 380.45 246.95 L379.5 248.6 379.6 249.2 379.65 249.2 380.55 249.0 Q381.1 249.3 381.05 250.4 381.05 251.5 380.45 253.0 L379.5 254.65 379.65 255.45 379.7 255.8 380.55 255.65 Q381.1 255.9 381.05 257.05 381.05 258.1 380.45 259.6 L380.2 260.15 381.5 260.15 381.5 265.1 380.8 265.1 Q383.45 267.95 382.4 272.1 L381.45 270.85 Q379.3 273.65 376.85 271.9 377.7 271.15 377.75 270.35 376.15 270.55 375.5 269.2 377.35 268.7 376.6 265.1 L376.0 265.1 376.0 260.25 375.9 259.1 Q375.95 257.95 376.5 257.7 L377.3 257.8 377.45 257.95 377.65 258.1 377.75 258.2 377.75 258.25 377.85 258.1 377.9 257.95 377.95 257.95 377.95 257.9 378.15 257.55 377.75 257.2 Q377.0 256.45 376.45 255.05 375.9 253.6 375.9 252.5 375.95 251.35 376.5 251.1 L377.3 251.2 377.45 251.3 377.65 251.5 377.75 251.6 377.75 251.65 377.85 251.5 377.9 251.35 377.75 251.2 Q377.0 250.4 376.45 249.0 375.9 247.6 375.9 246.45 375.95 245.35 376.5 245.05 L377.3 245.15 377.45 245.3 Q376.9 244.55 376.45 243.45 375.9 242.0 375.9 240.85 375.95 239.75 376.5 239.5 L377.3 239.55 377.65 239.9 377.75 239.95 377.75 240.0 377.85 239.9 377.9 239.75 377.95 239.7 377.75 239.5 Q377.0 238.7 376.45 237.3 375.9 235.9 375.9 234.75 375.95 233.65 376.5 233.35 L377.3 233.45 377.65 233.75 377.75 233.85 377.75 233.9 377.85 233.75 377.75 233.65 Q377.0 232.85 376.45 231.45 375.9 230.05 375.9 228.9 375.95 227.8 376.5 227.5 L377.3 227.6 376.45 226.0 Q375.9 224.6 375.9 223.45 375.95 222.35 376.5 222.05 L377.3 222.15 377.65 222.45 Q376.95 221.7 376.45 220.4 375.9 218.95 375.9 217.85 375.95 216.7 376.5 216.45 L377.3 216.55 377.75 217.0 377.9 216.7 377.75 216.55 Q377.0 215.75 376.45 214.35 375.9 212.95 375.9 211.8 375.95 210.7 376.5 210.4 L377.3 210.5 377.75 210.95 377.95 210.6 377.75 210.35 Q377.0 209.6 376.45 208.2 375.9 206.75 375.9 205.65 375.95 204.5 376.5 204.25 L377.3 204.35 377.75 204.8 378.5 203.5 379.1 202.7 Q379.95 202.0 380.55 202.15 381.1 202.45 381.05 203.55" fill="none" stroke="#000000" stroke-linecap="round" stroke-linejoin="round" stroke-width="1.0"/>
    <path d="M420.15 207.8 L420.45 207.1 Q421.0 205.65 421.8 204.85 L421.9 204.8 M420.05 208.5 L420.55 208.9 421.15 209.7 421.7 210.6 M421.9 210.95 L421.8 211.05 Q421.0 211.8 420.45 213.25 L420.15 213.95 M421.75 216.7 L421.7 216.6 421.15 215.7 420.55 214.9 420.05 214.55 M421.9 217.0 L421.8 217.05 Q421.0 217.85 420.45 219.25 L420.15 220.0 M420.1 220.2 L420.55 220.55 421.15 221.35 421.7 222.25 421.75 222.35 421.9 222.6 421.9 222.55 422.0 222.45 M421.9 222.6 L421.8 222.7 Q421.0 223.45 420.45 224.9 L420.15 225.6 M420.15 231.05 L420.45 230.35 Q420.85 229.3 421.35 228.7 L421.8 228.15 421.9 228.05 421.75 227.8 421.7 227.7 421.15 226.8 420.55 226.0 420.1 225.7 M422.35 227.6 L422.0 227.9 421.9 228.0 421.9 228.05 M421.8 233.75 L421.75 233.65 421.7 233.55 421.15 232.65 420.55 231.85 420.1 231.55 420.1 231.5 M421.9 233.9 L421.8 234.0 421.35 234.55 Q420.85 235.15 420.45 236.2 L420.15 236.9 M420.0 237.6 L420.05 237.6 420.1 237.65 420.1 237.7 420.55 237.95 421.15 238.75 421.7 239.65 421.7 239.7 M421.9 240.0 L421.8 240.1 421.35 240.65 Q420.85 241.3 420.45 242.3 L420.15 243.05 M420.1 243.2 L420.1 243.25 420.55 243.55 421.15 244.35 421.7 245.25 421.7 245.3 421.75 245.35 421.8 245.45 421.9 245.6 421.9 245.55 422.0 245.45 422.2 245.3 421.9 245.6 421.9 245.65 421.6 245.9 421.35 246.25 Q420.85 246.85 420.45 247.9 L420.15 248.6 M421.9 245.6 L421.8 245.7 421.6 245.9 M421.75 251.35 L421.7 251.3 421.7 251.25 421.15 250.35 420.55 249.55 420.1 249.3 420.1 249.25 420.05 249.2 M421.9 251.65 L421.8 251.7 421.6 251.95 421.35 252.25 Q420.85 252.9 420.45 253.9 L420.15 254.65 M419.95 255.8 L420.05 255.8 420.1 255.85 420.1 255.9 420.55 256.15 421.15 257.0 421.5 257.55 M419.45 260.15 L420.6 260.15 421.35 258.85 421.6 258.55 421.8 258.35 421.9 258.25 M423.65 260.25 L423.65 260.15 420.6 260.15 M423.05 265.1 L418.85 265.1 M379.5 207.8 L379.2 207.1 Q378.65 205.65 377.85 204.85 L377.75 204.8 M377.95 210.6 L378.5 209.7 379.1 208.9 379.6 208.5 M379.5 213.95 L379.2 213.25 Q378.65 211.8 377.85 211.05 L377.75 210.95 M379.6 214.55 L379.1 214.9 378.5 215.7 377.95 216.6 377.9 216.7 M377.75 217.0 L377.85 217.05 Q378.65 217.85 379.2 219.25 L379.5 220.0 M379.55 220.2 L379.1 220.55 378.5 221.35 377.95 222.25 377.9 222.35 377.75 222.6 377.85 222.7 Q378.65 223.45 379.2 224.9 L379.5 225.6 M377.65 222.45 L377.75 222.55 377.75 222.6 M379.55 225.7 Q379.35 225.8 379.1 226.0 L378.5 226.8 377.95 227.7 377.9 227.8 377.75 228.05 377.85 228.15 378.3 228.7 379.2 230.35 379.5 231.05 M377.3 227.6 L377.65 227.9 377.75 228.0 377.75 228.05 M379.55 231.5 L379.55 231.55 Q379.35 231.65 379.1 231.85 L378.5 232.65 377.95 233.55 377.9 233.65 377.85 233.75 M379.5 236.9 L379.2 236.2 378.3 234.55 377.85 234.0 377.75 233.9 M379.65 237.6 L379.6 237.6 379.55 237.65 379.55 237.7 Q379.35 237.75 379.1 237.95 L378.5 238.75 377.95 239.65 377.95 239.7 M377.75 240.0 L377.85 240.1 378.3 240.65 379.2 242.3 379.5 243.05 M379.55 243.2 L379.55 243.25 Q379.35 243.35 379.1 243.55 L378.5 244.35 377.95 245.25 377.95 245.3 377.9 245.35 377.85 245.45 377.75 245.6 377.85 245.7 378.05 245.9 378.3 246.25 379.2 247.9 379.5 248.6 M377.75 245.6 L377.75 245.65 378.05 245.9 M377.75 245.6 L377.75 245.55 377.65 245.45 377.45 245.3 377.75 245.6 M379.6 249.2 L379.55 249.25 379.55 249.3 379.1 249.55 378.5 250.35 377.95 251.25 377.95 251.3 377.9 251.35 M377.75 251.65 L377.85 251.7 378.05 251.95 378.3 252.25 379.2 253.9 379.5 254.65 M379.7 255.8 L379.6 255.8 379.55 255.85 379.55 255.9 379.1 256.15 378.5 257.0 378.15 257.55 M377.75 258.25 L377.85 258.35 378.05 258.55 378.3 258.85 379.05 260.15 380.2 260.15 M376.0 260.25 L376.0 260.15 379.05 260.15 M380.8 265.1 L376.6 265.1" fill="none" stroke="#000000" stroke-linecap="round" stroke-linejoin="round" stroke-opacity="0.5019608" stroke-width="1.0"/>
  </g>
</svg>
