<?xml version="1.0" encoding="UTF-8" standalone="no"?>
<svg xmlns:xlink="http://www.w3.org/1999/xlink" height="18.75px" width="37.0px" xmlns="http://www.w3.org/2000/svg">
  <g transform="matrix(1.0, 0.0, 0.0, 1.0, 18.55, 124.2)">
    <path d="M6.25 -121.8 L6.85 -124.2 Q12.3 -119.4 9.6 -114.1 10.0 -118.2 6.25 -121.8 M17.1 -120.75 L17.6 -119.35 Q19.0 -112.95 18.05 -105.45 L17.05 -105.45 Q16.45 -111.35 14.3 -115.95 L17.1 -120.75 M-0.55 -123.6 Q1.05 -115.8 -5.7 -106.15 -1.35 -114.1 -2.4 -121.0 L-0.55 -123.6 M-17.7 -119.35 L-17.15 -120.75 -14.4 -115.95 -16.4 -110.0 -17.15 -105.45 -18.15 -105.45 Q-19.1 -112.95 -17.7 -119.35" fill="#000000" fill-opacity="0.2" fill-rule="evenodd" stroke="none"/>
    <path d="M3.75 -119.7 L1.45 -114.55 -1.5 -113.8 -0.8 -118.6 3.75 -119.7 M10.3 -117.55 L8.8 -121.2 13.85 -122.95 11.9 -118.25 10.3 -117.55 M-16.55 -116.05 L-7.75 -117.25 -13.65 -112.1 -16.55 -112.0 -16.55 -116.05" fill="#ffffff" fill-opacity="0.2509804" fill-rule="evenodd" stroke="none"/>
  </g>
</svg>
