<?xml version="1.0" encoding="UTF-8" standalone="no"?>
<svg xmlns:xlink="http://www.w3.org/1999/xlink" height="14.05px" width="38.4px" xmlns="http://www.w3.org/2000/svg">
  <g transform="matrix(1.0, 0.0, 0.0, 1.0, 19.25, 119.5)">
    <path d="M18.55 -114.1 Q19.4 -112.85 18.6 -111.5 L16.15 -110.55 Q15.2 -111.65 15.35 -113.35 L18.55 -114.1 M18.25 -119.5 Q19.35 -118.2 18.45 -116.65 L14.3 -115.95 Q14.15 -117.5 14.85 -119.05 L18.25 -119.5 M18.5 -105.45 L17.05 -105.45 16.55 -108.75 18.65 -109.05 19.05 -107.95 Q19.4 -107.0 18.5 -105.45 M-18.65 -114.1 L-15.45 -113.35 Q-15.3 -111.65 -16.25 -110.55 L-18.7 -111.5 Q-19.5 -112.85 -18.65 -114.1 M-18.55 -116.65 Q-19.45 -118.2 -18.35 -119.5 L-14.95 -119.05 Q-14.25 -117.5 -14.4 -115.95 L-18.55 -116.65 M-18.6 -105.45 Q-19.5 -107.0 -19.15 -107.95 L-18.75 -109.05 -16.65 -108.75 -17.15 -105.45 -18.6 -105.45" fill="#000000" fill-opacity="0.2" fill-rule="evenodd" stroke="none"/>
  </g>
</svg>
