<?xml version="1.0" encoding="UTF-8" standalone="no"?>
<svg xmlns:xlink="http://www.w3.org/1999/xlink" height="90.55px" width="61.95px" xmlns="http://www.w3.org/2000/svg">
  <g transform="matrix(1.0, 0.0, 0.0, 1.0, 33.6, 135.95)">
    <path d="M10.25 -132.95 Q10.95 -133.6 11.6 -133.95 L11.3 -124.0 Q10.6 -123.75 9.85 -122.65 9.75 -124.35 8.45 -124.55 L7.8 -135.8 Q10.35 -134.75 10.25 -132.95 M17.7 -82.4 Q15.6 -78.5 13.15 -76.25 L13.5 -77.05 Q17.4 -83.25 18.5 -89.4 21.5 -100.65 27.0 -101.1 29.7 -85.5 27.0 -70.4 L26.3 -67.55 Q23.9 -59.65 15.45 -46.65 18.5 -55.95 18.8 -66.2 17.3 -61.55 12.9 -56.05 18.85 -69.85 17.7 -82.4 M-32.55 -64.4 Q-35.45 -75.6 -30.4 -86.8 -28.25 -92.05 -27.0 -101.1 -24.3 -87.15 -16.85 -79.35 -15.4 -70.7 -12.7 -65.85 L-10.65 -63.15 Q-8.0 -59.35 -6.1 -50.9 -9.25 -58.1 -12.4 -60.1 -9.7 -56.0 -10.65 -52.55 -12.1 -47.35 -15.5 -45.4 -14.15 -47.6 -13.95 -50.35 -14.45 -54.95 -20.7 -56.55 -28.75 -59.15 -31.5 -62.6 L-32.55 -64.4" fill="#000000" fill-opacity="0.2" fill-rule="evenodd" stroke="none"/>
    <path d="M12.7 -133.0 L14.3 -133.35 Q19.0 -129.55 12.8 -125.3 15.55 -129.95 12.7 -133.0 M5.2 -135.2 Q-0.3 -134.15 7.9 -125.7 -7.7 -137.45 3.65 -135.7 L5.2 -135.2 M17.1 -113.6 Q18.85 -126.9 22.2 -113.7 L24.5 -107.25 Q21.9 -111.4 20.05 -101.85 20.05 -108.6 17.1 -113.6 M-14.45 -114.75 Q-22.55 -105.3 -20.6 -119.5 L-17.95 -128.45 Q-20.35 -117.25 -14.0 -120.25 -2.65 -129.65 -5.15 -117.3 -7.45 -113.35 -12.3 -111.9 -5.1 -123.7 -14.45 -114.75" fill="#ffffff" fill-opacity="0.2509804" fill-rule="evenodd" stroke="none"/>
  </g>
</svg>
