<?xml version="1.0" encoding="UTF-8" standalone="no"?>
<svg xmlns:xlink="http://www.w3.org/1999/xlink" height="37.0px" width="77.4px" xmlns="http://www.w3.org/2000/svg">
  <g transform="matrix(1.0, 0.0, 0.0, 1.0, 38.55, 132.9)">
    <path d="M20.0 -129.9 Q17.15 -128.0 18.65 -125.1 L17.1 -126.7 15.95 -125.6 15.2 -126.6 Q13.55 -130.85 14.8 -132.9 16.3 -129.75 20.0 -129.9 M33.6 -117.7 L34.25 -121.05 Q44.1 -108.4 32.8 -105.4 23.95 -100.6 31.3 -95.9 27.4 -96.35 26.35 -99.2 25.55 -101.4 26.4 -105.0 26.9 -107.75 29.05 -109.3 33.35 -111.5 33.6 -117.7 M-14.95 -127.1 L-15.6 -126.3 -16.8 -127.4 -18.35 -125.8 Q-17.15 -128.2 -18.8 -129.9 -16.05 -129.6 -14.15 -132.85 -13.5 -130.8 -14.95 -127.1 M-26.1 -105.7 Q-25.05 -101.35 -26.45 -99.0 L-26.6 -98.8 Q-27.9 -96.95 -31.0 -96.6 -23.65 -101.3 -32.5 -106.1 -43.8 -109.1 -33.95 -121.75 L-33.3 -118.4 Q-31.4 -112.75 -28.25 -109.7 -26.3 -108.85 -26.1 -105.7 M-6.3 -127.9 Q-14.2 -110.5 -20.3 -108.3 -15.25 -119.35 -6.3 -127.9 M1.25 -107.45 Q-8.45 -110.8 -6.7 -125.2 -3.95 -113.05 1.25 -107.45" fill="#000000" fill-opacity="0.2" fill-rule="evenodd" stroke="none"/>
  </g>
</svg>
