<?xml version="1.0" encoding="UTF-8" standalone="no"?>
<svg xmlns:xlink="http://www.w3.org/1999/xlink" height="100.5px" width="89.0px" xmlns="http://www.w3.org/2000/svg">
  <g transform="matrix(1.0, 0.0, 0.0, 1.0, 42.45, 143.85)">
    <path d="M9.4 -124.8 L11.5 -138.4 13.2 -134.25 16.15 -134.4 9.4 -124.8 M6.25 -118.0 Q2.4 -121.8 -5.4 -121.2 8.9 -132.15 6.25 -118.0 14.1 -120.95 14.6 -115.05 13.2 -117.55 6.25 -118.0 M38.55 -110.45 Q37.85 -107.75 36.25 -106.85 47.9 -101.5 40.4 -85.1 42.3 -80.05 46.4 -85.1 47.3 -80.0 41.85 -79.15 46.2 -74.95 44.8 -70.2 44.2 -73.3 40.6 -74.5 47.75 -66.0 39.2 -61.0 L36.4 -60.6 33.85 -60.15 Q28.7 -58.8 27.4 -56.05 26.5 -52.35 29.05 -49.2 27.7 -49.95 26.35 -51.45 24.35 -54.45 26.9 -62.95 22.5 -58.55 15.95 -57.7 10.1 -55.85 10.75 -48.5 8.45 -58.15 14.25 -62.25 9.6 -63.25 9.7 -67.0 12.35 -65.75 14.0 -68.1 15.6 -70.45 13.25 -71.5 11.4 -74.45 11.85 -76.1 L12.55 -77.7 Q15.05 -71.1 20.15 -70.2 20.55 -71.9 20.55 -73.9 21.35 -80.75 25.9 -85.6 31.85 -93.45 32.05 -100.9 32.3 -104.4 29.8 -108.8 35.35 -109.15 37.75 -113.5 38.9 -111.75 38.55 -110.45 M-41.8 -104.1 Q-43.9 -107.95 -39.35 -109.6 -42.7 -106.75 -40.1 -103.7 -36.3 -98.8 -30.55 -97.0 -26.0 -89.0 -24.05 -80.1 -21.65 -71.9 -13.2 -64.4 -10.95 -59.9 -6.8 -60.0 -2.45 -55.35 -3.1 -50.75 -4.4 -54.2 -8.5 -55.95 -5.55 -52.0 -6.25 -48.55 -6.95 -45.1 -7.4 -44.4 L-8.1 -43.35 Q-7.75 -43.9 -7.95 -44.6 -8.15 -45.4 -9.8 -47.5 -11.5 -49.65 -17.45 -52.4 L-17.5 -52.4 Q-19.4 -53.3 -21.65 -54.2 -31.4 -55.8 -30.7 -60.8 -33.35 -58.5 -31.55 -56.3 -39.6 -59.55 -36.7 -65.2 -44.0 -66.65 -40.4 -75.05 -36.9 -68.75 -31.3 -73.05 L-31.4 -73.7 -31.75 -74.85 Q-32.75 -77.25 -35.6 -79.7 L-38.8 -82.2 Q-44.85 -89.0 -35.65 -96.0 -41.95 -98.05 -41.8 -104.1" fill="#000000" fill-opacity="0.2" fill-rule="evenodd" stroke="none"/>
    <path d="M26.3 -123.25 L16.75 -115.95 Q15.4 -120.25 11.65 -121.05 L19.15 -132.85 Q25.3 -132.05 26.3 -123.25 M5.55 -143.15 L3.45 -128.5 Q-1.5 -128.05 -5.95 -124.15 L-9.1 -138.8 Q-1.0 -145.7 5.55 -143.15" fill="#ffffff" fill-opacity="0.2509804" fill-rule="evenodd" stroke="none"/>
  </g>
</svg>
