<?xml version="1.0" encoding="UTF-8" standalone="no"?>
<svg xmlns:xlink="http://www.w3.org/1999/xlink" height="78.9px" width="73.2px" xmlns="http://www.w3.org/2000/svg">
  <g transform="matrix(1.0, 0.0, 0.0, 1.0, 36.7, 130.15)">
    <path d="M16.35 -121.7 Q21.05 -109.85 28.35 -98.0 41.2 -82.25 33.75 -70.65 31.6 -66.2 27.7 -63.7 L25.6 -68.0 Q20.4 -60.3 11.4 -54.4 L9.15 -57.55 Q5.4 -53.45 -0.1 -51.25 -5.55 -53.45 -9.35 -57.55 L-11.55 -54.4 Q-20.6 -60.3 -25.75 -68.0 L-27.9 -63.7 Q-31.8 -66.2 -33.95 -70.65 -41.4 -82.25 -28.55 -98.0 -21.25 -109.85 -16.55 -121.7 L-15.7 -122.95 Q-10.0 -130.2 -0.1 -130.15 9.8 -130.2 15.5 -122.95 L16.35 -121.7" fill="#000000" fill-opacity="0.2" fill-rule="evenodd" stroke="none"/>
  </g>
</svg>
