<?xml version="1.0" encoding="UTF-8" standalone="no"?>
<svg xmlns:xlink="http://www.w3.org/1999/xlink" height="104.5px" width="42.0px" xmlns="http://www.w3.org/2000/svg">
  <g transform="matrix(1.0, 0.0, 0.0, 1.0, -378.95, -161.3)">
    <path d="M380.85 191.8 Q382.05 176.8 384.1 169.2 L384.1 169.15 Q387.6 156.1 393.5 164.7 396.4 168.95 399.95 178.65 403.45 169.0 406.4 164.7 412.3 156.1 415.8 169.15 L415.8 169.2 Q417.8 176.8 419.05 191.85 L419.75 202.15 420.2 211.3 420.45 218.4 Q421.05 238.55 420.9 265.8 417.65 190.35 409.0 177.9 405.05 172.15 399.95 179.7 394.85 172.15 390.9 177.9 382.25 190.4 379.0 265.8 378.85 238.55 379.45 218.4 L379.7 211.3 380.15 202.15 380.85 191.8" fill="#000000" fill-rule="evenodd" stroke="none"/>
  </g>
</svg>
