<?xml version="1.0" encoding="UTF-8" standalone="no"?>
<svg xmlns:xlink="http://www.w3.org/1999/xlink" height="35.55px" width="54.35px" xmlns="http://www.w3.org/2000/svg">
  <g transform="matrix(1.0, 0.0, 0.0, 1.0, -372.55, -158.95)">
    <path d="M394.0 159.25 Q400.7 160.75 405.7 164.95 405.45 161.9 403.95 158.95 408.7 162.0 410.55 166.95 L415.7 163.15 413.1 169.05 Q418.5 168.55 423.7 172.35 420.5 171.7 417.25 173.25 422.3 174.25 425.8 177.95 422.95 176.85 420.2 177.95 425.85 179.8 426.9 183.8 L421.65 183.6 Q426.4 185.55 426.9 188.35 424.8 187.25 420.1 186.5 424.95 190.4 424.45 192.25 422.85 191.4 418.65 191.35 418.65 193.0 418.05 194.5 419.0 187.05 417.6 180.65 414.25 170.2 399.95 169.6 385.65 170.2 382.3 180.65 380.9 187.05 381.85 194.5 L380.6 189.5 Q376.7 190.5 372.55 194.05 375.05 186.55 380.35 180.5 377.3 180.7 373.5 182.75 377.05 177.25 382.6 174.3 379.7 173.45 375.45 174.3 379.55 170.55 385.3 169.95 383.1 167.85 378.2 166.85 383.75 164.9 391.3 166.85 388.9 163.35 383.8 161.15 391.2 160.7 397.2 163.9 396.35 161.1 394.0 159.25" fill="#000000" fill-rule="evenodd" stroke="none"/>
  </g>
</svg>
