<?xml version="1.0" encoding="UTF-8" standalone="no"?>
<svg xmlns:xlink="http://www.w3.org/1999/xlink" height="601.0px" width="801.0px" xmlns="http://www.w3.org/2000/svg">
  <g transform="matrix(1.0, 0.0, 0.0, 1.0, 400.5, 300.5)">
    <path d="M17.75 -131.45 Q18.45 -127.35 18.5 -118.55 L18.5 -118.3 18.5 -118.1 18.3 -114.0 17.65 -109.95 17.45 -108.95 16.95 -107.15 15.3 -97.9 14.9 -97.5 16.25 -84.9 50.2 -70.25 70.2 -66.15 Q80.15 -54.65 79.4 -33.8 80.9 -10.2 87.2 -1.4 L85.0 1.65 85.6 2.75 Q89.4 9.3 92.8 15.8 91.4 33.0 81.45 61.6 L80.05 80.05 65.1 87.3 63.55 89.05 Q58.05 92.7 54.95 84.75 52.6 86.25 50.25 84.75 L53.0 75.35 51.4 71.85 54.55 63.6 68.7 58.05 Q69.65 47.15 66.95 35.7 L61.7 20.8 Q62.2 13.2 65.85 3.75 55.9 -7.75 49.9 -19.35 43.65 -12.5 33.7 -7.35 L28.75 5.1 27.55 18.7 Q46.6 71.55 44.8 127.05 L49.25 139.95 Q52.3 148.35 50.8 158.25 L44.7 198.05 48.05 201.45 48.05 205.9 73.9 237.7 Q78.2 245.0 75.35 253.05 L71.1 260.0 58.05 260.0 50.85 253.95 Q44.0 246.45 42.7 237.5 L41.7 232.65 Q40.55 228.45 38.7 224.55 L36.2 220.05 Q33.7 215.5 34.55 209.5 L34.55 209.25 35.45 206.15 34.65 202.95 36.75 198.45 34.65 188.45 Q31.9 176.0 25.6 164.5 L21.3 157.35 20.8 156.3 Q17.45 148.35 19.55 139.7 L22.8 127.4 Q15.75 91.95 4.4 59.5 L-4.8 59.5 Q-16.15 91.95 -23.2 127.4 L-19.95 139.7 Q-17.85 148.35 -21.2 156.3 L-21.7 157.35 -26.0 164.5 Q-32.3 176.0 -35.05 188.45 L-37.15 198.45 -35.05 202.95 -35.85 206.15 -34.95 209.25 -34.95 209.5 Q-34.1 215.5 -36.6 220.05 L-39.1 224.55 Q-40.95 228.45 -42.1 232.65 L-43.1 237.5 Q-44.4 246.45 -51.25 253.95 L-58.45 260.0 -71.5 260.0 -75.75 253.05 Q-78.6 245.0 -74.3 237.7 L-48.45 205.9 -48.45 201.45 -45.1 198.05 -51.2 158.25 Q-52.7 148.35 -49.65 139.95 L-45.2 127.05 Q-47.0 71.55 -27.95 18.7 L-29.15 5.1 -34.1 -7.35 Q-44.05 -12.5 -50.3 -19.35 -56.3 -7.75 -66.25 3.75 -62.6 13.2 -62.1 20.8 L-67.35 35.7 Q-70.05 47.15 -69.1 58.05 L-54.95 63.6 -51.8 71.85 -53.4 75.35 -50.65 84.75 Q-53.0 86.25 -55.35 84.75 -58.45 92.7 -63.95 89.05 L-65.5 87.3 -80.45 80.05 -81.85 61.6 Q-91.8 33.0 -93.2 15.8 L-86.0 2.75 -85.4 1.65 -87.6 -1.4 Q-81.3 -10.2 -79.8 -33.8 -80.55 -54.65 -70.6 -66.15 L-50.6 -70.25 -16.65 -84.9 -15.3 -97.5 -15.7 -97.9 -17.35 -107.15 -17.85 -108.95 -18.05 -109.95 -18.7 -114.0 -18.9 -118.1 -18.9 -118.3 -18.9 -118.55 Q-18.85 -127.35 -18.15 -131.45 L-17.2 -132.7 Q-11.0 -139.95 -0.2 -139.9 10.6 -139.95 16.8 -132.7 L17.75 -131.45 M5.35 -68.2 L10.95 -83.55 M16.75 -81.1 L16.25 -84.9 M14.9 -97.5 L5.7 -88.35 -0.2 -87.75 -6.1 -88.35 -15.3 -97.5 M3.6 -19.5 Q12.6 -17.9 19.55 -12.2 M24.25 -13.9 Q29.65 -17.4 31.15 -22.3 M49.9 -19.35 Q46.5 -25.9 44.4 -32.4 L43.65 -31.65 42.65 -30.55 42.3 -30.2 Q37.3 -25.75 29.8 -27.75 15.1 -33.5 -0.2 -33.7 -15.5 -33.5 -30.2 -27.75 -37.7 -25.75 -42.7 -30.2 L-43.05 -30.55 -44.05 -31.65 -44.8 -32.4 Q-46.9 -25.9 -50.3 -19.35 M79.4 -33.8 Q63.45 -37.45 52.9 -44.8 49.6 -38.3 44.4 -32.4 M7.35 -64.45 L42.15 -67.05 M85.0 1.65 L81.65 -3.25 Q73.3 1.95 70.2 8.5 L65.85 3.75 M13.65 6.3 L4.65 5.25 M17.0 8.7 L15.25 22.65 M4.4 59.5 L5.8 59.5 Q9.15 54.45 15.3 49.4 M58.3 83.55 L56.35 82.35 54.95 84.75 M57.1 67.15 L57.1 81.1 56.35 82.35 M59.05 77.3 Q62.7 81.95 69.85 80.85 L77.6 79.05 M65.1 87.3 L68.7 83.25 M43.0 131.1 L40.85 138.15 31.85 139.5 28.8 131.55 M21.05 -8.95 L17.4 5.25 M275.0 -260.0 L-275.0 -260.0 -275.0 290.0 275.0 290.0 275.0 -260.0 M400.0 -300.0 L-400.0 -300.0 -400.0 300.0 400.0 300.0 400.0 -300.0 M-5.75 -68.2 L-11.35 -83.55 M-3.6 -63.2 Q-3.45 -61.2 -0.2 -59.7 3.05 -61.2 3.2 -63.2 M-17.15 -81.1 L-16.65 -84.9 M-44.8 -32.4 Q-50.0 -38.3 -53.3 -44.8 -63.85 -37.45 -79.8 -33.8 M-4.0 -19.5 Q-13.0 -17.9 -19.95 -12.2 M-24.65 -13.9 Q-30.05 -17.4 -31.55 -22.3 M-7.75 -64.45 L-42.55 -67.05 M-0.2 -33.7 L-0.2 -59.7 M-17.4 8.7 L-15.65 22.65 M-14.05 6.3 L-5.05 5.25 M-66.25 3.75 L-70.6 8.5 Q-73.7 1.95 -82.05 -3.25 -83.9 -0.9 -85.4 1.65 M-65.5 87.3 L-69.1 83.25 M-59.45 77.3 Q-63.1 81.95 -70.25 80.85 L-78.0 79.05 M-58.7 83.55 L-56.75 82.35 -57.5 81.1 -57.5 67.15 M-55.35 84.75 L-56.75 82.35 M-15.7 49.4 Q-9.55 54.45 -6.2 59.5 L-4.8 59.5 M-43.4 131.1 L-41.25 138.15 -32.25 139.5 -29.2 131.55 M-21.45 -8.95 L-17.8 5.25 M-0.2 -17.5 L-0.2 23.6" fill="none" stroke="#010101" stroke-linecap="round" stroke-linejoin="round" stroke-opacity="0.0" stroke-width="1.0"/>
  </g>
</svg>
