<?xml version="1.0" encoding="UTF-8" standalone="no"?>
<svg xmlns:xlink="http://www.w3.org/1999/xlink" height="36.9px" width="73.45px" xmlns="http://www.w3.org/2000/svg">
  <g transform="matrix(1.0, 0.0, 0.0, 1.0, -293.9, -472.9)">
    <path d="M293.9 480.65 Q294.8 476.0 296.35 472.9 L303.1 474.1 300.6 481.75 293.9 480.65 M296.25 493.7 L297.45 485.95 303.65 486.95 302.1 494.8 296.25 493.7 M307.0 473.05 Q333.85 477.9 366.9 475.15 L366.95 475.15 Q368.0 479.75 366.4 484.95 L361.5 485.6 359.75 497.65 353.2 498.25 351.95 508.8 345.1 509.4 330.95 509.8 313.35 508.75 307.35 508.0 308.7 497.8 305.85 497.45 308.05 485.5 303.1 484.7 307.0 473.05 M304.5 505.55 L298.95 504.95 299.5 499.2 305.5 499.8 304.5 505.55" fill="#000000" fill-rule="evenodd" stroke="none"/>
  </g>
</svg>
