<?xml version="1.0" encoding="UTF-8" standalone="no"?>
<svg xmlns:xlink="http://www.w3.org/1999/xlink" height="117.85px" width="279.3px" xmlns="http://www.w3.org/2000/svg">
  <g transform="matrix(1.0, 0.0, 0.0, 1.0, -260.25, -451.25)">
    <path d="M323.1 452.5 Q326.3 451.05 329.6 451.25 337.6 451.55 346.4 460.7 L331.6 474.8 323.15 474.8 314.4 459.4 316.35 457.3 Q319.6 453.95 323.1 452.5 M298.05 536.25 Q306.85 542.45 311.4 552.25 314.4 558.5 315.55 566.2 305.75 569.05 299.1 569.1 L277.8 569.1 Q263.15 569.1 260.75 562.0 258.35 554.85 268.05 549.05 277.8 542.15 297.5 536.45 L298.05 536.25 M501.75 536.25 L502.3 536.45 Q522.0 542.15 531.75 549.05 541.45 554.85 539.05 562.0 536.65 569.1 522.0 569.1 L500.7 569.1 Q494.05 569.05 484.25 566.2 485.4 558.5 488.4 552.25 492.95 542.45 501.75 536.25 M485.4 459.4 L476.65 474.8 468.2 474.8 453.4 460.7 Q462.2 451.55 470.2 451.25 473.5 451.05 476.7 452.5 480.2 453.95 483.45 457.3 L485.4 459.4" fill="#000000" fill-rule="evenodd" stroke="none"/>
  </g>
</svg>
