<?xml version="1.0" encoding="UTF-8" standalone="no"?>
<svg xmlns:xlink="http://www.w3.org/1999/xlink" height="25.9px" width="208.8px" xmlns="http://www.w3.org/2000/svg">
  <g transform="matrix(1.0, 0.0, 0.0, 1.0, -295.5, -482.3)">
    <path d="M501.75 482.5 L503.3 482.3 503.75 482.5 504.3 483.0 503.95 483.95 Q503.4 484.35 502.2 484.75 L492.65 486.15 487.0 486.8 482.4 487.25 473.55 487.8 464.6 488.05 455.95 488.05 447.15 487.75 439.45 487.35 438.55 487.25 Q434.1 486.75 435.35 485.2 L446.05 485.65 455.1 485.8 464.0 485.7 473.15 485.35 482.1 484.75 487.0 484.3 492.95 483.7 501.75 482.5 M315.45 505.95 L316.25 506.0 323.0 506.2 324.25 506.25 330.6 506.25 332.35 506.2 337.15 506.1 339.3 506.0 343.45 505.8 343.7 505.9 Q345.95 506.85 342.85 507.65 L341.7 507.9 338.45 508.05 336.35 508.1 331.8 508.2 330.1 508.2 323.9 508.2 322.65 508.2 316.0 508.0 315.2 507.95 312.8 507.85 310.0 507.7 309.55 507.65 304.45 507.3 303.65 506.95 303.55 506.95 303.15 505.8 303.2 505.7 Q303.6 505.4 304.45 505.15 L309.35 505.55 309.75 505.6 312.8 505.8 315.45 505.95 M295.85 483.95 L295.5 483.0 Q295.7 482.75 296.05 482.5 L296.5 482.3 298.05 482.5 306.85 483.7 312.8 484.3 317.7 484.75 326.65 485.35 335.8 485.7 344.7 485.8 353.75 485.65 364.45 485.2 Q365.7 486.75 361.25 487.25 L360.35 487.35 352.65 487.75 343.85 488.05 335.2 488.05 326.25 487.8 317.4 487.25 312.8 486.8 307.15 486.15 297.6 484.75 Q296.4 484.35 295.85 483.95 M496.15 506.95 L495.35 507.3 490.25 507.65 489.8 507.7 487.0 507.85 484.6 507.95 483.8 508.0 477.15 508.2 475.9 508.2 469.7 508.2 468.0 508.2 463.45 508.1 461.35 508.05 458.1 507.9 456.95 507.65 Q453.85 506.85 456.1 505.9 456.2 505.8 456.35 505.8 L460.5 506.0 462.65 506.1 467.45 506.2 469.2 506.25 475.55 506.25 476.8 506.2 483.55 506.0 484.35 505.95 487.0 505.8 490.05 505.6 490.45 505.55 495.35 505.15 496.6 505.7 496.65 505.8 496.25 506.95 496.15 506.95" fill="#000000" fill-rule="evenodd" stroke="none"/>
  </g>
</svg>
