<?xml version="1.0" encoding="UTF-8" standalone="no"?>
<svg xmlns:xlink="http://www.w3.org/1999/xlink" height="66.7px" width="263.7px" xmlns="http://www.w3.org/2000/svg">
  <g transform="matrix(1.0, 0.0, 0.0, 1.0, -268.05, -497.95)">
    <path d="M322.15 501.2 L327.9 501.65 Q335.4 502.05 343.35 501.65 L343.35 501.85 Q340.8 507.45 341.5 513.05 L343.6 516.55 342.55 519.25 343.75 522.05 Q344.85 527.1 341.55 530.95 335.25 537.65 333.45 545.7 331.8 553.2 323.15 559.55 L314.2 564.65 274.85 564.65 269.5 558.75 Q265.9 552.0 271.35 545.8 L302.55 519.35 302.55 515.65 306.45 513.05 Q305.45 505.55 303.55 497.95 310.25 499.7 317.4 500.65 L322.15 501.2 M497.25 519.35 L528.45 545.8 Q533.9 552.0 530.3 558.75 L524.95 564.65 485.6 564.65 476.65 559.55 Q468.0 553.2 466.35 545.7 464.55 537.65 458.25 530.95 454.95 527.1 456.05 522.05 L457.25 519.25 456.2 516.55 458.3 513.05 Q459.0 507.45 456.45 501.85 L456.45 501.7 Q464.4 502.1 471.95 501.7 L477.65 501.3 482.45 500.75 Q489.55 499.75 496.25 498.05 494.35 505.6 493.35 513.05 L497.25 515.65 497.25 519.35" fill="#000000" fill-rule="evenodd" stroke="none"/>
  </g>
</svg>
