<?xml version="1.0" encoding="UTF-8" standalone="no"?>
<svg xmlns:xlink="http://www.w3.org/1999/xlink" height="94.15px" width="263.7px" xmlns="http://www.w3.org/2000/svg">
  <g transform="matrix(1.0, 0.0, 0.0, 1.0, -268.05, -470.5)">
    <path d="M311.95 470.5 L315.8 477.65 325.1 472.5 Q329.95 482.7 329.35 493.4 L330.45 494.5 Q334.45 498.0 341.75 494.5 L342.7 494.05 Q347.3 491.6 352.7 489.5 L360.65 486.6 357.6 488.8 Q345.85 496.05 343.35 501.85 342.25 504.25 341.8 506.6 341.1 509.85 341.5 513.05 L343.6 516.55 342.55 519.25 343.75 522.05 Q344.85 527.1 341.55 530.95 335.25 537.65 333.45 545.7 331.8 553.2 323.15 559.55 L314.2 564.65 274.85 564.65 269.5 558.75 Q265.9 552.0 271.35 545.8 L302.55 519.35 302.55 515.65 306.45 513.05 305.45 506.6 Q303.45 496.0 299.6 485.15 304.65 477.05 311.95 470.5 M500.2 485.15 Q496.35 496.0 494.35 506.6 L493.35 513.05 497.25 515.65 497.25 519.35 528.45 545.8 Q533.9 552.0 530.3 558.75 L524.95 564.65 485.6 564.65 476.65 559.55 Q468.0 553.2 466.35 545.7 464.55 537.65 458.25 530.95 454.95 527.1 456.05 522.05 L457.25 519.25 456.2 516.55 458.3 513.05 Q458.7 509.85 458.0 506.6 457.55 504.25 456.45 501.85 453.95 496.05 442.2 488.8 L439.15 486.6 447.1 489.5 Q452.5 491.6 457.1 494.05 L458.05 494.5 Q465.35 498.0 469.35 494.5 L470.45 493.4 Q469.85 482.7 474.7 472.5 L484.0 477.65 487.85 470.5 Q495.15 477.05 500.2 485.15" fill="#000000" fill-rule="evenodd" stroke="none"/>
  </g>
</svg>
