<?xml version="1.0" encoding="UTF-8" standalone="no"?>
<svg xmlns:xlink="http://www.w3.org/1999/xlink" height="101.55px" width="99.05px" xmlns="http://www.w3.org/2000/svg">
  <g transform="matrix(1.0, 0.0, 0.0, 1.0, -268.05, -463.1)">
    <path d="M298.5 482.1 L297.2 478.9 Q294.85 470.45 300.7 463.1 309.15 465.95 317.6 467.65 326.5 469.4 335.45 469.9 351.05 470.75 366.75 467.7 368.65 479.85 360.45 486.75 334.95 486.6 329.05 496.8 L317.4 495.8 Q313.0 486.2 298.5 482.1 M271.35 545.8 L286.05 533.35 Q307.65 530.15 331.6 542.75 L335.95 532.55 344.0 523.85 Q344.25 527.8 341.55 530.95 335.9 536.95 333.9 544.0 L333.45 545.7 Q331.8 553.2 323.15 559.55 L314.2 564.65 274.85 564.65 269.5 558.75 Q265.9 552.0 271.35 545.8" fill="#000000" fill-rule="evenodd" stroke="none"/>
  </g>
</svg>
