<?xml version="1.0" encoding="UTF-8" standalone="no"?>
<svg xmlns:xlink="http://www.w3.org/1999/xlink" height="66.85px" width="76.35px" xmlns="http://www.w3.org/2000/svg">
  <g transform="matrix(1.0, 0.0, 0.0, 1.0, -268.1, -497.8)">
    <path d="M304.75 503.2 L303.5 497.8 Q323.35 503.05 344.45 499.9 343.75 500.9 343.35 501.85 L342.3 504.65 Q322.5 509.2 305.7 503.5 L304.75 503.2 M309.4 543.25 Q324.55 532.35 335.35 540.0 334.1 542.75 333.45 545.7 L333.1 547.05 Q323.85 540.35 309.05 550.7 307.15 550.95 305.6 551.8 298.1 534.95 283.45 535.55 L290.75 529.35 Q300.15 530.05 309.4 543.25 M268.25 551.85 Q267.6 555.95 272.5 556.35 275.85 560.55 280.95 560.05 283.7 562.15 289.05 561.4 293.75 563.25 299.95 562.1 301.2 562.95 303.25 563.7 L316.4 563.4 314.2 564.65 274.85 564.65 269.5 558.75 Q267.6 555.2 268.25 551.85" fill="#000000" fill-rule="evenodd" stroke="none"/>
  </g>
</svg>
