<?xml version="1.0" encoding="UTF-8" standalone="no"?>
<svg xmlns:xlink="http://www.w3.org/1999/xlink" height="117.85px" width="86.15px" xmlns="http://www.w3.org/2000/svg">
  <g transform="matrix(1.0, 0.0, 0.0, 1.0, -260.25, -451.25)">
    <path d="M323.1 452.5 Q326.3 451.05 329.6 451.25 337.6 451.55 346.4 460.7 L331.6 474.8 323.15 474.8 314.4 459.4 316.35 457.3 Q319.6 453.95 323.1 452.5 M298.05 536.25 Q306.85 542.45 311.4 552.25 314.4 558.5 315.55 566.2 305.75 569.05 299.1 569.1 L277.8 569.1 Q263.15 569.1 260.75 562.0 258.35 554.85 268.05 549.05 277.8 542.15 297.5 536.45 L298.05 536.25" fill="#000000" fill-rule="evenodd" stroke="none"/>
  </g>
</svg>
