<?xml version="1.0" encoding="UTF-8" standalone="no"?>
<svg xmlns:xlink="http://www.w3.org/1999/xlink" height="47.75px" width="195.0px" xmlns="http://www.w3.org/2000/svg">
  <g transform="matrix(1.0, 0.0, 0.0, 1.0, -302.4, -424.8)">
    <path d="M308.25 440.4 Q318.45 430.2 330.75 425.3 344.5 437.75 363.6 440.85 L366.3 441.25 366.9 457.45 365.0 458.1 364.55 458.2 Q341.35 462.4 323.05 472.05 313.4 465.2 304.95 457.75 L303.95 456.9 302.9 455.95 303.8 445.2 Q305.95 442.65 308.25 440.4 M491.55 440.4 Q481.3 430.15 469.05 425.3 455.3 437.75 436.25 440.85 L433.5 441.25 432.9 457.45 434.8 458.1 435.3 458.2 Q458.45 462.4 476.75 472.05 486.4 465.2 494.9 457.75 L495.85 456.9 496.9 455.95 496.0 445.2 491.55 440.4" fill="none" stroke="#000000" stroke-linecap="round" stroke-linejoin="round" stroke-width="1.0"/>
  </g>
</svg>
