<?xml version="1.0" encoding="UTF-8" standalone="no"?>
<svg xmlns:xlink="http://www.w3.org/1999/xlink" height="39.95px" width="74.9px" xmlns="http://www.w3.org/2000/svg">
  <g transform="matrix(1.0, 0.0, 0.0, 1.0, -292.95, -470.35)">
    <path d="M296.35 472.9 Q294.8 476.0 293.9 480.65 M296.35 472.9 L296.65 472.15 296.9 470.85 307.0 473.05 Q333.85 477.9 366.9 475.15 L366.95 475.15 Q368.0 479.75 366.4 484.95 L361.75 485.6 361.5 485.85 359.75 497.65 353.2 498.25 351.95 508.8 345.1 509.4 330.95 509.8 313.35 508.75 307.35 508.0 302.65 507.25 298.8 506.55 298.95 504.95 299.5 499.2 299.75 496.5 295.9 495.7 296.25 493.7 297.45 485.95 297.8 483.7 293.45 482.9 293.9 480.65" fill="none" stroke="#000000" stroke-linecap="round" stroke-linejoin="round" stroke-width="1.0"/>
    <path d="M293.9 480.65 L300.6 481.75 303.1 474.1 296.35 472.9 M297.45 485.95 L303.65 486.95 302.1 494.8 296.25 493.7 M297.8 483.7 L299.2 484.0 303.1 484.7 307.0 473.05 M299.75 496.5 L302.5 496.95 305.85 497.45 308.05 485.5 303.1 484.7 M353.2 498.25 L349.45 498.6 336.2 499.2 311.85 498.15 308.7 497.8 307.35 508.0 M305.85 497.45 L308.7 497.8 M298.95 504.95 L304.5 505.55 305.5 499.8 299.5 499.2 M361.75 485.6 L361.5 485.6 361.5 485.85 M361.5 485.6 Q332.7 488.95 308.05 485.5" fill="none" stroke="#000000" stroke-linecap="round" stroke-linejoin="round" stroke-opacity="0.5019608" stroke-width="1.0"/>
  </g>
</svg>
