<?xml version="1.0" encoding="UTF-8" standalone="no"?>
<svg xmlns:xlink="http://www.w3.org/1999/xlink" height="112.15px" width="237.0px" xmlns="http://www.w3.org/2000/svg">
  <g transform="matrix(1.0, 0.0, 0.0, 1.0, -281.4, -452.5)">
    <path d="M299.55 484.95 L314.7 487.15 Q315.25 485.85 320.15 486.45 L320.6 486.55 320.8 486.6 Q323.1 473.95 332.75 469.7 319.2 468.65 305.7 464.7 L300.7 463.1 309.05 452.5 Q331.95 461.55 363.95 455.8 L366.55 466.7 366.75 467.7 Q354.2 470.15 341.75 470.1 L338.25 470.0 Q327.3 474.85 324.75 487.2 L325.15 487.3 325.25 487.3 Q341.9 489.7 355.3 487.55 L360.8 486.45 357.6 488.8 Q345.85 496.05 343.35 501.85 342.25 504.25 341.8 506.6 341.1 509.85 341.5 513.05 L343.6 516.55 342.55 519.25 343.75 522.05 Q344.6 525.95 342.8 529.15 L342.75 529.25 342.55 529.25 320.8 527.4 Q316.05 535.6 307.75 538.35 318.55 540.85 333.6 545.1 L333.45 545.7 332.75 548.05 Q310.95 541.25 292.0 538.15 303.2 552.3 286.65 564.65 L281.4 564.65 Q303.35 551.1 284.65 534.55 290.65 534.5 303.95 537.5 313.45 534.85 317.85 527.15 L317.6 526.45 297.95 523.3 Q296.6 519.75 302.55 519.35 L317.1 522.35 Q317.4 521.05 318.7 520.9 L318.6 510.05 306.05 510.05 Q302.6 507.55 304.9 503.95 L316.95 505.95 Q316.3 504.2 319.1 504.35 L320.15 493.45 317.75 491.5 301.35 490.25 Q297.6 488.6 299.55 484.95 M322.4 521.7 Q326.95 523.4 330.75 523.75 339.2 517.95 336.45 515.0 L333.3 511.55 322.75 511.55 322.4 521.7 M322.9 505.0 Q328.6 506.35 334.9 506.4 343.75 500.6 337.1 493.75 L323.85 493.5 322.9 505.0 M490.75 452.5 L499.1 463.1 494.1 464.7 Q480.6 468.65 467.05 469.7 476.7 473.95 479.0 486.6 L479.2 486.55 479.65 486.45 Q484.55 485.85 485.1 487.15 L500.25 484.95 Q502.2 488.6 498.45 490.25 L482.05 491.5 479.65 493.45 480.7 504.35 Q483.5 504.2 482.85 505.95 L494.9 503.95 Q497.2 507.55 493.75 510.05 L481.2 510.05 481.1 520.9 Q482.4 521.05 482.7 522.35 L497.25 519.35 Q503.2 519.75 501.85 523.3 L482.2 526.45 481.95 527.15 Q486.35 534.85 495.85 537.5 509.15 534.5 515.15 534.55 496.45 551.1 518.4 564.65 L513.15 564.65 Q496.6 552.3 507.8 538.15 488.85 541.25 467.05 548.05 L466.35 545.7 466.2 545.1 Q481.25 540.85 492.05 538.35 483.75 535.6 479.0 527.4 L457.25 529.25 457.05 529.25 457.0 529.15 Q455.2 525.95 456.05 522.05 L457.25 519.25 456.2 516.55 458.3 513.05 Q458.7 509.85 458.0 506.6 457.55 504.25 456.45 501.85 453.95 496.05 442.2 488.8 L439.0 486.45 444.5 487.55 Q457.9 489.7 474.55 487.3 L474.65 487.3 475.05 487.2 Q472.5 474.85 461.55 470.0 L458.05 470.1 Q445.6 470.15 433.05 467.7 L433.25 466.7 435.85 455.8 Q467.85 461.55 490.75 452.5 M462.7 493.75 Q456.05 500.6 464.9 506.4 471.2 506.35 476.9 505.0 L475.95 493.5 462.7 493.75 M466.5 511.55 L463.35 515.0 Q460.6 517.95 469.05 523.75 472.85 523.4 477.4 521.7 L477.05 511.55 466.5 511.55" fill="#000000" fill-rule="evenodd" stroke="none"/>
  </g>
</svg>
