<?xml version="1.0" encoding="UTF-8" standalone="no"?>
<svg xmlns:xlink="http://www.w3.org/1999/xlink" height="7.95px" width="33.75px" xmlns="http://www.w3.org/2000/svg">
  <g transform="matrix(1.0, 0.0, 0.0, 1.0, -383.1, -238.35)">
    <path d="M408.95 242.4 L408.95 242.3 Q409.0 240.65 410.1 239.5 411.3 238.35 412.9 238.35 414.55 238.35 415.65 239.5 416.85 240.7 416.85 242.3 L416.85 242.95 Q416.65 244.15 415.65 245.05 414.55 246.3 412.9 246.3 411.3 246.3 410.1 245.05 409.0 244.0 408.95 242.4 M389.8 245.05 Q388.65 246.3 387.05 246.3 385.4 246.3 384.2 245.05 383.1 244.0 383.1 242.4 L383.1 242.3 Q383.1 240.65 384.2 239.5 385.4 238.35 387.05 238.35 388.65 238.35 389.8 239.5 391.0 240.7 391.0 242.3 L390.95 242.95 Q390.75 244.15 389.8 245.05 M396.7 245.05 Q395.65 244.0 395.6 242.4 L395.6 242.3 Q395.65 240.65 396.7 239.5 397.95 238.35 399.55 238.35 401.15 238.35 402.3 239.5 403.5 240.7 403.5 242.3 L403.45 242.95 Q403.3 244.15 402.3 245.05 401.15 246.3 399.55 246.3 397.95 246.3 396.7 245.05" fill="#000000" fill-rule="evenodd" stroke="none"/>
  </g>
</svg>
