<?xml version="1.0" encoding="UTF-8" standalone="no"?>
<svg xmlns:xlink="http://www.w3.org/1999/xlink" height="27.95px" width="31.65px" xmlns="http://www.w3.org/2000/svg">
  <g transform="matrix(1.0, 0.0, 0.0, 1.0, -384.3, -238.25)">
    <path d="M415.6 247.1 L406.25 248.75 405.6 247.0 Q404.5 246.0 403.35 245.55 402.3 245.05 400.95 245.05 397.9 245.05 396.25 247.15 395.0 248.7 395.0 252.15 395.0 256.4 396.45 257.95 397.95 259.4 400.65 259.4 403.2 259.4 404.55 258.2 405.85 257.0 406.6 254.25 L415.95 256.6 Q415.05 259.95 413.15 262.05 411.2 264.1 408.35 265.2 405.55 266.2 401.15 266.2 395.9 266.2 392.55 264.95 389.2 263.65 386.75 260.45 384.3 257.2 384.3 252.15 384.3 245.5 388.6 241.85 392.9 238.25 400.7 238.25 406.8 238.25 410.35 240.4 413.9 242.45 415.6 247.1" fill="#000000" fill-rule="evenodd" stroke="none"/>
  </g>
</svg>
