<?xml version="1.0" encoding="UTF-8" standalone="no"?>
<svg xmlns:xlink="http://www.w3.org/1999/xlink" height="32.45px" width="34.75px" xmlns="http://www.w3.org/2000/svg">
  <g transform="matrix(1.0, 0.0, 0.0, 1.0, -383.1, -234.6)">
    <path d="M406.75 249.45 Q407.5 249.45 408.0 249.95 408.5 250.5 408.55 251.25 408.5 252.05 408.0 252.55 407.5 253.05 406.75 253.05 406.0 253.05 405.45 252.55 404.95 252.05 404.95 251.25 404.95 250.5 405.45 249.95 406.0 249.45 406.75 249.45 M401.9 248.5 Q402.65 249.65 402.65 251.3 402.65 252.95 401.9 254.1 401.1 255.3 400.1 255.3 399.05 255.3 398.35 254.1 397.55 252.95 397.55 251.3 397.55 249.65 398.35 248.5 399.05 247.3 400.1 247.3 401.1 247.3 401.9 248.5 M416.0 247.2 Q412.0 238.7 403.2 235.1 389.95 240.45 383.6 253.4 L408.25 266.55 417.35 255.15 407.3 262.3 388.85 253.15 Q393.65 244.55 403.6 238.6 409.8 240.95 416.0 247.2" fill="none" stroke="#000000" stroke-linecap="round" stroke-linejoin="round" stroke-opacity="0.49803922" stroke-width="1.0"/>
  </g>
</svg>
