<?xml version="1.0" encoding="UTF-8" standalone="no"?>
<svg xmlns:xlink="http://www.w3.org/1999/xlink" height="43.05px" width="35.9px" xmlns="http://www.w3.org/2000/svg">
  <g transform="matrix(1.0, 0.0, 0.0, 1.0, -382.0, -233.65)">
    <path d="M416.5 240.25 Q415.0 243.1 414.6 246.0 414.15 249.7 415.5 252.85 420.0 263.4 413.8 269.1 411.95 270.8 408.0 271.8 L406.5 272.3 Q402.25 273.45 399.9 276.2 397.6 273.45 393.45 272.3 L391.9 271.8 Q388.0 270.85 386.0 269.05 379.95 263.4 384.35 252.85 386.95 247.05 383.3 240.25 388.7 239.65 391.95 237.4 396.7 234.15 399.9 234.15 403.2 234.15 407.9 237.4 411.2 239.6 416.5 240.25 Z" fill="none" stroke="#000000" stroke-linecap="round" stroke-linejoin="round" stroke-opacity="0.5019608" stroke-width="1.0"/>
  </g>
</svg>
