<?xml version="1.0" encoding="UTF-8" standalone="no"?>
<svg xmlns:xlink="http://www.w3.org/1999/xlink" height="27.95px" width="33.65px" xmlns="http://www.w3.org/2000/svg">
  <g transform="matrix(1.0, 0.0, 0.0, 1.0, -383.0, -238.25)">
    <path d="M414.75 259.8 Q412.8 262.85 409.2 264.5 405.55 266.2 400.15 266.2 394.7 266.2 391.1 264.75 387.5 263.3 385.25 260.15 383.0 257.05 383.0 252.25 383.0 245.65 387.45 241.95 391.9 238.25 399.75 238.25 407.85 238.25 412.25 241.9 416.65 245.55 416.65 252.05 416.65 256.75 414.75 259.8 M399.75 245.15 Q397.0 245.15 395.3 246.75 393.65 248.4 393.65 252.25 393.65 256.2 395.3 257.8 397.0 259.4 399.8 259.4 402.8 259.4 404.4 257.85 406.0 256.25 406.0 251.95 406.0 248.35 404.3 246.75 402.6 245.15 399.75 245.15" fill="#000000" fill-rule="evenodd" stroke="none"/>
  </g>
</svg>
