<?xml version="1.0" encoding="UTF-8" standalone="no"?>
<svg xmlns:xlink="http://www.w3.org/1999/xlink" height="20.65px" width="27.25px" xmlns="http://www.w3.org/2000/svg">
  <g transform="matrix(1.0, 0.0, 0.0, 1.0, -386.3, -245.55)">
    <path d="M412.65 263.4 L413.55 265.75 404.6 265.75 403.8 264.4 403.6 263.4 Q402.45 264.75 400.65 265.35 398.3 266.2 395.1 266.2 390.8 266.2 388.55 264.5 386.3 262.85 386.3 260.35 386.3 258.05 388.0 256.55 389.55 255.05 393.85 254.35 L400.2 253.15 402.95 252.4 Q402.95 251.45 402.45 251.05 401.9 250.6 400.4 250.6 398.4 250.6 397.45 251.1 396.7 251.45 396.15 252.85 L387.0 252.1 Q387.55 249.8 388.5 248.65 389.4 247.6 391.2 246.75 392.45 246.15 394.6 245.85 L399.3 245.55 405.7 245.9 Q408.2 246.3 410.05 247.9 411.05 248.4 411.8 249.95 412.45 251.5 412.45 252.9 L412.45 261.35 412.65 263.4 M396.6 258.75 Q396.0 259.2 396.0 259.8 396.0 260.55 396.6 261.0 397.15 261.4 398.4 261.4 399.75 261.4 400.9 260.85 402.0 260.3 402.5 259.55 402.95 258.8 402.95 257.55 L402.95 256.7 399.4 257.65 Q397.2 258.2 396.6 258.75" fill="#000000" fill-rule="evenodd" stroke="none"/>
  </g>
</svg>
