<?xml version="1.0" encoding="UTF-8" standalone="no"?>
<svg xmlns:xlink="http://www.w3.org/1999/xlink" height="44.1px" width="147.1px" xmlns="http://www.w3.org/2000/svg">
  <g transform="matrix(1.0, 0.0, 0.0, 1.0, -326.35, -321.65)">
    <path d="M463.15 343.15 Q434.05 348.85 401.45 350.4 L400.45 350.45 398.35 350.35 Q365.75 348.8 336.65 343.1 M333.8 349.35 Q352.2 354.05 371.75 354.5 M392.6 331.1 L336.65 328.25 M466.0 349.4 Q447.6 354.1 428.05 354.55 M407.2 331.15 L463.15 328.3" fill="none" stroke="#000000" stroke-linecap="round" stroke-linejoin="round" stroke-opacity="0.5019608" stroke-width="1.0"/>
    <path d="M326.85 354.35 Q361.0 364.4 399.85 365.25 L399.95 365.25 Q438.8 364.45 472.95 354.4 L470.8 348.0 470.8 322.2 329.0 322.15 329.0 347.95 326.85 354.35" fill="none" stroke="#000000" stroke-linecap="round" stroke-linejoin="round" stroke-width="1.0"/>
  </g>
</svg>
