<?xml version="1.0" encoding="UTF-8" standalone="no"?>
<svg xmlns:xlink="http://www.w3.org/1999/xlink" height="86.15px" width="188.1px" xmlns="http://www.w3.org/2000/svg">
  <g transform="matrix(1.0, 0.0, 0.0, 1.0, -305.85, -361.25)">
    <path d="M331.15 366.65 L332.95 365.85 333.05 365.8 334.5 365.1 337.35 363.65 338.35 363.1 341.45 361.25 343.2 364.3 336.25 390.1 Q357.65 395.6 377.95 402.05 375.15 406.35 372.0 413.3 353.0 408.05 332.55 403.9 L322.35 441.7 Q314.95 448.15 306.65 447.3 304.2 410.05 309.2 372.75 L317.3 371.15 319.45 370.6 321.9 369.9 322.75 369.65 323.45 369.45 324.95 369.0 328.65 367.65 331.15 366.65 M466.85 365.85 L468.65 366.65 471.15 367.65 474.85 369.0 476.35 369.45 477.05 369.65 477.9 369.9 480.35 370.6 482.5 371.15 490.6 372.75 Q495.6 410.05 493.15 447.3 484.85 448.15 477.45 441.7 L467.25 403.9 Q446.8 408.05 427.8 413.3 424.65 406.35 421.85 402.05 442.15 395.6 463.55 390.1 L456.6 364.3 458.35 361.25 461.45 363.1 462.45 363.65 465.3 365.1 466.75 365.8 466.85 365.85" fill="#000000" fill-rule="evenodd" stroke="none"/>
  </g>
</svg>
