<?xml version="1.0" encoding="UTF-8" standalone="no"?>
<svg xmlns:xlink="http://www.w3.org/1999/xlink" height="99.7px" width="158.2px" xmlns="http://www.w3.org/2000/svg">
  <g transform="matrix(1.0, 0.0, 0.0, 1.0, -320.75, -341.15)">
    <path d="M364.2 341.85 L369.7 342.0 Q399.2 343.0 428.7 342.05 L435.5 341.85 449.0 341.15 447.65 355.4 449.5 360.25 Q469.6 398.5 478.1 435.0 L478.95 438.9 435.65 405.65 435.65 416.8 409.5 440.7 409.5 363.0 Q399.2 363.2 388.8 362.9 L388.9 440.85 362.75 417.0 362.75 406.65 320.75 438.9 Q329.0 400.55 350.2 360.25 L352.05 355.4 350.7 341.15 362.75 341.8 364.2 341.85 M369.7 347.15 L369.7 355.85 Q400.45 358.25 428.7 355.85 L428.7 347.15 Q399.8 348.7 369.7 347.15" fill="#000000" fill-rule="evenodd" stroke="none"/>
  </g>
</svg>
