<?xml version="1.0" encoding="UTF-8" standalone="no"?>
<svg xmlns:xlink="http://www.w3.org/1999/xlink" height="58.9px" width="164.45px" xmlns="http://www.w3.org/2000/svg">
  <g transform="matrix(1.0, 0.0, 0.0, 1.0, -317.7, -303.75)">
    <path d="M379.35 318.7 Q387.95 312.8 399.95 312.8 411.95 312.8 420.5 318.7 429.0 324.65 429.0 333.0 429.0 341.35 420.5 347.25 411.95 353.15 399.95 353.15 387.95 353.15 379.35 347.25 370.85 341.35 370.85 333.0 370.85 324.65 379.35 318.7 M327.75 317.35 Q346.95 318.7 359.35 311.35 371.75 303.95 399.95 303.75 428.15 303.95 440.5 311.35 452.9 318.7 472.1 317.35 474.65 318.6 472.1 320.65 452.4 322.2 436.9 314.9 421.5 307.55 399.95 308.0 378.4 307.55 362.95 314.9 347.45 322.2 327.75 320.65 325.2 318.6 327.75 317.35 M330.6 337.25 Q330.6 332.0 334.2 328.15 L334.8 327.5 Q339.0 323.5 344.85 323.5 350.7 323.5 354.9 327.5 359.05 331.55 359.05 337.25 359.05 342.95 354.9 346.95 350.7 351.0 344.85 351.0 339.0 351.0 334.8 346.95 L333.7 345.9 Q330.6 342.15 330.6 337.25 M327.75 352.85 Q364.15 356.85 399.95 357.4 435.75 356.85 472.1 352.85 475.15 354.3 474.45 357.05 438.25 362.65 399.95 362.65 361.6 362.65 325.4 357.05 324.75 354.3 327.75 352.85 M465.1 327.5 L465.7 328.15 Q469.3 332.0 469.3 337.25 469.3 342.15 466.15 345.9 L465.1 346.95 Q460.9 351.0 455.05 351.0 449.2 351.0 445.0 346.95 440.8 342.95 440.8 337.25 440.8 331.55 445.0 327.5 449.2 323.5 455.05 323.5 460.9 323.5 465.1 327.5 M327.75 326.65 L327.75 347.2 Q323.75 346.95 320.95 344.15 317.7 341.15 317.7 336.9 317.7 332.65 320.95 329.6 323.75 326.8 327.75 326.65 M478.95 329.6 Q482.15 332.65 482.15 336.9 482.15 341.15 478.95 344.15 476.1 346.95 472.1 347.2 L472.1 326.65 Q476.1 326.8 478.95 329.6" fill="#000000" fill-rule="evenodd" stroke="none"/>
  </g>
</svg>
