<?xml version="1.0" encoding="UTF-8" standalone="no"?>
<svg xmlns:xlink="http://www.w3.org/1999/xlink" height="33.8px" width="146.7px" xmlns="http://www.w3.org/2000/svg">
  <g transform="matrix(1.0, 0.0, 0.0, 1.0, -326.55, -345.45)">
    <path d="M379.75 345.45 L399.55 345.8 400.05 345.8 420.1 345.45 421.2 345.45 421.7 345.45 421.7 354.8 Q427.4 357.6 431.5 353.95 437.05 356.25 442.55 352.95 448.1 355.8 452.65 352.05 454.95 353.75 457.1 353.2 L457.25 353.2 Q461.55 353.2 463.35 351.15 467.7 352.95 471.95 350.35 474.55 357.15 471.95 363.9 468.85 367.3 463.35 364.6 459.75 367.2 456.1 366.65 L452.65 365.6 Q447.65 369.5 442.55 366.5 437.85 370.15 431.5 367.45 426.6 370.85 421.7 368.35 L421.7 378.25 421.2 378.25 420.1 378.35 400.05 379.25 399.55 379.25 379.75 378.35 378.15 378.25 378.15 368.0 Q373.25 370.5 368.35 367.1 362.0 369.8 357.3 366.15 352.3 369.15 347.2 365.25 L343.75 366.3 Q340.1 366.85 336.45 364.25 331.0 366.95 327.8 363.55 325.3 356.8 327.8 350.0 332.15 352.6 336.45 350.8 338.3 352.95 342.75 352.85 345.0 353.4 347.2 351.7 351.75 355.45 357.3 352.6 362.8 355.9 368.35 353.55 372.45 357.25 378.15 354.45 L378.15 345.45 379.75 345.45" fill="#000000" fill-rule="evenodd" stroke="none"/>
  </g>
</svg>
