<?xml version="1.0" encoding="UTF-8" standalone="no"?>
<svg xmlns:xlink="http://www.w3.org/1999/xlink" height="68.1px" width="34.05px" xmlns="http://www.w3.org/2000/svg">
  <g transform="matrix(1.0, 0.0, 0.0, 1.0, -445.7, -314.7)">
    <path d="M472.9 314.85 Q477.25 315.6 479.35 319.9 480.7 323.5 477.65 326.7 474.5 330.15 469.45 330.45 L468.7 328.95 Q473.3 328.6 475.7 326.4 478.6 323.95 477.7 320.8 476.75 317.55 473.5 317.4 470.3 317.25 466.4 319.05 462.5 320.8 464.35 325.5 L462.7 325.9 Q461.3 320.8 466.15 316.45 468.65 314.25 472.9 314.85 M451.45 327.6 L460.45 326.7 Q463.7 332.7 470.65 337.75 L453.65 339.3 Q455.0 335.25 453.7 331.5 453.35 330.85 451.85 330.75 L451.45 327.6 M469.0 345.85 Q470.8 346.35 472.1 347.55 L473.2 350.85 465.95 353.1 Q461.0 354.7 454.6 354.25 450.05 354.55 445.7 353.5 L446.05 350.2 Q447.55 347.95 451.55 346.8 L450.5 350.35 454.6 350.5 464.95 349.45 468.1 348.6 469.0 348.4 467.3 345.45 468.1 345.6 469.0 345.85 M474.95 367.35 L474.5 369.7 Q473.65 372.55 471.35 376.5 L468.95 380.35 466.25 382.0 Q463.55 383.1 460.25 382.65 L456.25 381.6 452.9 378.25 Q450.35 375.4 448.7 372.25 447.65 370.0 446.9 367.65 L446.3 365.2 446.3 364.9 445.9 362.35 445.7 360.25 455.0 361.15 Q461.05 361.5 467.6 359.7 L474.7 357.45 475.15 362.55 Q475.25 364.95 474.95 367.35" fill="#000000" fill-rule="evenodd" stroke="none"/>
  </g>
</svg>
