<?xml version="1.0" encoding="UTF-8" standalone="no"?>
<svg xmlns:xlink="http://www.w3.org/1999/xlink" height="27.3px" width="52.85px" xmlns="http://www.w3.org/2000/svg">
  <g transform="matrix(1.0, 0.0, 0.0, 1.0, -373.4, -247.9)">
    <path d="M412.3 250.2 Q414.15 248.3 417.85 247.9 417.65 249.05 419.8 250.35 426.0 254.1 426.25 259.65 426.15 266.6 418.65 270.65 423.95 266.55 423.05 264.15 422.4 262.2 418.75 265.55 422.0 260.7 419.8 259.45 417.4 258.85 414.15 262.9 414.95 260.05 412.1 259.7 409.25 260.2 409.0 263.25 404.6 260.4 399.85 275.2 395.05 260.4 390.65 263.25 390.4 260.2 387.6 259.7 384.8 260.05 385.55 262.9 382.3 258.85 379.85 259.45 377.7 260.7 380.95 265.55 377.3 262.2 376.6 264.15 375.8 266.55 381.05 270.65 373.55 266.6 373.4 259.65 373.7 254.1 379.85 250.35 382.05 249.05 381.8 247.9 385.55 248.3 387.35 250.2 392.1 254.45 397.75 254.1 396.9 252.3 397.75 250.5 L398.6 251.4 401.05 251.4 401.9 250.5 Q402.8 252.3 401.9 254.1 407.6 254.45 412.3 250.2" fill="#000000" fill-rule="evenodd" stroke="none"/>
  </g>
</svg>
