<?xml version="1.0" encoding="UTF-8" standalone="no"?>
<svg xmlns:xlink="http://www.w3.org/1999/xlink" height="4.85px" width="35.0px" xmlns="http://www.w3.org/2000/svg">
  <g transform="matrix(1.0, 0.0, 0.0, 1.0, -382.55, -153.85)">
    <path d="M393.0 157.25 L393.05 157.25 392.65 157.5 392.45 157.7 392.0 158.05 Q389.4 159.85 385.5 156.75 L383.8 155.25 383.6 155.0 383.45 154.85 382.55 153.85 383.35 153.85 Q385.05 153.85 389.05 155.55 L392.65 157.1 393.0 157.25 M417.55 153.85 L416.6 154.85 416.5 155.0 416.25 155.25 414.55 156.75 Q410.65 159.85 408.05 158.05 L407.65 157.7 407.4 157.5 407.0 157.25 407.05 157.25 407.4 157.1 411.0 155.55 Q415.0 153.85 416.75 153.85 L417.55 153.85" fill="#000000" fill-rule="evenodd" stroke="none"/>
  </g>
</svg>
