<?xml version="1.0" encoding="UTF-8" standalone="no"?>
<svg xmlns:xlink="http://www.w3.org/1999/xlink" height="38.0px" width="86.25px" xmlns="http://www.w3.org/2000/svg">
  <g transform="matrix(1.0, 0.0, 0.0, 1.0, -356.75, -106.45)">
    <path d="M380.3 132.7 L380.55 133.75 Q381.9 139.3 380.45 144.45 L368.25 140.1 Q355.95 137.2 356.8 126.45 357.6 116.4 360.6 106.45 361.0 124.4 370.95 130.4 374.85 132.7 380.3 132.7 M419.5 132.7 Q424.9 132.7 428.8 130.4 438.75 124.4 439.15 106.45 442.2 116.4 442.95 126.45 443.8 137.2 431.55 140.1 L419.3 144.45 Q417.9 139.3 419.2 133.75 L419.5 132.7" fill="#000000" fill-rule="evenodd" stroke="none"/>
  </g>
</svg>
