<?xml version="1.0" encoding="UTF-8" standalone="no"?>
<svg xmlns:xlink="http://www.w3.org/1999/xlink" height="53.05px" width="37.9px" xmlns="http://www.w3.org/2000/svg">
  <g transform="matrix(1.0, 0.0, 0.0, 1.0, -380.9, -131.9)">
    <path d="M399.85 132.4 Q414.15 133.0 417.5 143.45 418.95 150.15 417.85 158.0 L417.4 160.8 417.1 162.2 416.95 162.85 416.95 162.9 414.05 173.45 410.15 177.25 Q406.65 180.55 401.85 183.95 L399.85 184.45 397.85 183.95 Q393.05 180.55 389.55 177.25 L385.65 173.45 382.75 162.9 382.75 162.85 382.6 162.2 382.3 160.8 381.85 158.0 Q380.75 150.15 382.2 143.45 385.55 133.0 399.85 132.4 Z" fill="none" stroke="#000000" stroke-linecap="round" stroke-linejoin="round" stroke-width="1.0"/>
  </g>
</svg>
