<?xml version="1.0" encoding="UTF-8" standalone="no"?>
<svg xmlns:xlink="http://www.w3.org/1999/xlink" height="62.4px" width="52.8px" xmlns="http://www.w3.org/2000/svg">
  <g transform="matrix(1.0, 0.0, 0.0, 1.0, -373.5, -129.05)">
    <path d="M383.95 134.5 L385.3 135.6 385.85 136.0 Q388.9 133.3 392.85 131.15 394.8 130.05 397.2 129.7 L398.25 129.55 401.55 129.55 402.6 129.7 Q405.0 130.05 406.95 131.15 410.9 133.3 413.95 136.0 L414.5 135.6 415.9 134.5 Q417.7 133.35 420.65 135.25 L422.0 136.65 Q423.35 138.45 423.35 139.35 L423.25 140.65 423.05 141.7 422.75 142.4 422.45 143.35 422.3 144.2 Q422.3 146.0 424.05 150.2 425.8 154.45 425.8 157.35 425.8 159.45 424.9 161.85 L424.9 161.9 422.65 173.35 421.4 177.35 421.4 177.4 Q420.2 180.75 418.6 183.95 L414.45 184.9 414.1 185.15 410.2 187.25 409.95 187.35 409.05 188.15 Q407.8 189.2 406.35 189.65 L404.7 190.1 400.4 190.9 399.9 190.95 399.4 190.9 395.1 190.1 393.45 189.65 Q392.0 189.2 390.75 188.15 L389.85 187.35 389.6 187.25 385.35 184.9 381.2 183.95 Q379.6 180.75 378.4 177.4 L378.4 177.35 Q377.7 175.4 377.15 173.35 L374.9 161.9 374.9 161.85 Q374.0 159.45 374.0 157.35 374.0 154.45 375.75 150.2 377.5 146.0 377.5 144.2 L377.35 143.35 377.05 142.4 376.8 141.7 376.55 140.65 376.45 139.35 Q376.45 138.45 377.85 136.65 L379.15 135.25 Q382.1 133.35 383.95 134.5" fill="none" stroke="#000000" stroke-linecap="round" stroke-linejoin="round" stroke-width="1.0"/>
    <path d="M383.85 145.9 L384.45 146.55 385.05 147.15 385.65 147.75 386.2 148.4 386.75 149.05 387.35 149.7 387.9 150.4 388.45 151.0 388.45 151.05 388.4 151.1 388.15 151.3 387.65 151.75 386.9 152.2 386.7 152.25 386.25 152.4 385.65 152.3 384.9 152.0 384.25 151.7 383.65 151.3 383.1 150.75 382.9 150.4 382.55 149.8 382.35 149.25 Q382.2 148.5 382.45 147.8 L382.75 147.2 383.15 146.65 383.45 146.35 383.85 145.9 381.6 143.85 381.2 143.55 381.15 143.55 Q380.1 142.8 378.7 142.85 M384.7 139.55 Q386.5 139.85 387.85 140.85 L388.75 141.6 389.1 142.0 391.75 145.35 M398.1 144.9 Q396.85 145.45 395.8 146.15 L394.35 147.25 394.1 147.5 393.85 147.7 392.35 149.3 392.3 149.4 391.2 150.85 391.2 150.9 Q389.8 152.9 389.4 155.15 L389.2 156.55 M385.85 136.0 Q387.8 137.45 389.35 139.25 L390.5 140.7 Q391.85 142.55 392.75 144.7 M410.6 156.55 L410.4 155.15 Q410.0 152.9 408.6 150.9 L408.6 150.85 407.5 149.4 407.45 149.3 405.95 147.7 405.7 147.5 405.45 147.25 Q404.8 146.65 404.05 146.15 402.95 145.45 401.7 144.9 M390.65 150.5 L388.7 151.0 M392.6 164.5 L392.4 163.35 389.3 163.25 389.15 163.45 389.05 163.7 Q388.9 164.45 389.65 166.05 M391.35 165.3 L392.5 167.65 390.6 165.05 391.35 165.3 M378.25 151.35 Q379.55 152.5 379.85 153.15 L380.1 154.8 379.6 156.75 379.35 157.3 Q378.6 159.0 378.6 160.8 378.6 161.9 378.9 162.75 378.95 163.15 380.15 163.5 L381.25 163.65 383.3 163.6 383.9 161.8 M383.3 163.6 L382.8 164.85 382.4 166.05 382.2 167.2 382.2 168.3 382.3 170.95 Q382.4 173.25 382.95 175.4 383.4 177.15 384.55 178.65 L384.7 178.6 384.8 178.6 389.3 177.6 389.45 177.55 389.5 177.55 390.2 177.45 390.95 177.35 391.4 177.3 391.8 177.25 392.7 177.15 393.25 177.1 393.55 177.05 393.8 177.05 394.35 177.05 394.9 177.0 395.45 177.0 395.95 176.95 396.0 176.95 396.45 176.95 397.0 176.95 397.55 176.9 397.85 176.85 398.1 176.85 398.9 176.8 399.8 176.8 399.45 177.6 Q399.3 178.35 398.75 178.65 L398.45 178.35 398.15 177.8 397.85 177.2 397.8 177.7 397.45 178.35 397.3 178.55 397.0 178.8 395.95 177.3 395.85 177.55 395.6 178.05 395.3 178.5 395.2 178.65 394.7 179.1 394.35 178.7 394.1 178.4 Q393.7 177.95 393.6 177.45 L393.4 177.9 393.1 178.5 392.95 178.7 392.7 179.1 392.7 179.05 392.2 178.75 391.85 178.3 391.45 177.65 391.45 178.2 391.05 179.1 390.7 179.45 390.35 179.1 390.15 178.85 390.15 178.8 389.4 177.95 M374.9 161.9 L375.35 163.0 Q376.2 164.85 378.7 168.9 M421.55 151.35 Q420.25 152.5 419.95 153.15 419.7 153.65 419.7 154.8 419.7 155.5 420.2 156.75 L420.45 157.3 Q421.2 159.0 421.2 160.8 L420.9 162.75 419.65 163.5 418.55 163.65 416.5 163.6 417.0 164.85 417.4 166.05 417.6 167.2 417.6 168.3 417.5 170.95 Q417.4 173.25 416.85 175.4 416.4 177.15 415.25 178.65 L415.1 178.6 415.05 178.6 410.5 177.6 410.4 177.55 410.3 177.55 409.6 177.45 408.85 177.35 408.4 177.3 408.0 177.25 407.1 177.15 406.55 177.1 406.25 177.05 406.0 177.05 405.45 177.05 404.9 177.0 404.35 177.0 403.85 176.95 403.8 176.95 403.35 176.95 402.8 176.95 402.25 176.9 402.0 176.85 401.7 176.85 400.9 176.8 400.0 176.8 400.35 177.6 Q400.5 178.35 401.05 178.65 L401.35 178.35 401.65 177.8 401.95 177.2 Q401.9 177.5 402.0 177.7 L402.35 178.35 402.5 178.55 402.8 178.8 403.85 177.3 403.95 177.55 404.2 178.05 404.5 178.5 404.6 178.65 405.1 179.1 405.45 178.7 405.7 178.4 406.2 177.45 406.4 177.9 406.7 178.5 406.85 178.7 407.1 179.1 407.1 179.05 407.6 178.75 407.95 178.3 408.35 177.65 408.35 178.2 408.75 179.1 409.1 179.45 409.45 179.1 409.65 178.85 409.7 178.8 410.4 178.0 410.6 178.2 410.6 178.5 410.6 179.45 410.55 179.9 410.15 180.9 410.95 181.05 411.0 181.05 Q411.7 181.05 413.25 180.0 L414.65 179.0 M389.2 178.2 L389.2 178.5 389.25 179.45 389.3 179.9 Q389.4 180.55 389.65 180.9 L388.85 181.05 388.8 181.05 Q388.1 181.05 386.55 180.0 L385.05 178.85 M415.1 139.55 Q413.3 139.85 411.95 140.85 L411.1 141.6 410.75 142.0 Q409.3 143.5 408.05 145.35 M421.1 142.85 Q419.7 142.8 418.65 143.55 L418.2 143.85 415.95 145.9 416.35 146.35 416.4 146.35 416.65 146.65 417.05 147.2 417.35 147.8 Q417.6 148.5 417.45 149.25 L417.25 149.8 416.9 150.4 416.7 150.75 416.15 151.3 415.55 151.7 414.9 152.0 414.15 152.3 413.55 152.4 412.75 152.1 412.15 151.75 411.65 151.3 411.4 151.1 411.35 151.05 411.4 151.0 411.9 150.4 412.45 149.7 413.05 149.05 413.6 148.4 414.15 147.75 414.75 147.15 415.35 146.55 415.95 145.9 M413.95 136.0 Q412.0 137.45 410.45 139.25 L409.3 140.7 Q407.95 142.55 407.05 144.7 M409.15 150.5 L411.1 151.0 M407.2 164.5 L407.4 163.35 410.5 163.25 410.65 163.45 410.75 163.7 Q410.9 164.45 410.15 166.05 M408.45 165.3 L407.3 167.65 409.2 165.05 408.45 165.3 M424.9 161.9 L424.45 163.0 Q423.6 164.85 421.15 168.9 M415.9 161.8 L416.5 163.6" fill="none" stroke="#000000" stroke-linecap="round" stroke-linejoin="round" stroke-opacity="0.49803922" stroke-width="1.0"/>
  </g>
</svg>
