<?xml version="1.0" encoding="UTF-8" standalone="no"?>
<svg xmlns:xlink="http://www.w3.org/1999/xlink" height="132.1px" width="46.2px" xmlns="http://www.w3.org/2000/svg">
  <g transform="matrix(1.0, 0.0, 0.0, 1.0, -376.45, -80.25)">
    <path d="M415.8 159.3 L415.5 158.1 415.05 157.65 412.6 159.45 410.55 161.05 409.5 161.8 407.15 163.2 Q407.75 164.25 408.5 164.75 L409.95 165.6 410.8 165.95 411.25 166.05 412.3 166.0 412.6 165.9 413.9 164.85 415.45 162.75 415.55 162.55 415.85 160.9 415.8 159.3 M390.6 164.85 L391.95 163.3 389.6 161.9 388.55 161.15 386.5 159.55 384.05 157.75 Q383.7 157.9 383.6 158.2 L383.25 159.4 383.25 161.0 383.55 162.65 383.6 162.85 385.15 164.95 Q385.65 165.65 386.5 166.0 L386.8 166.1 387.85 166.15 388.3 166.05 389.15 165.7 390.6 164.85 M399.5 80.3 L401.25 83.35 402.25 87.15 405.15 127.35 405.25 127.4 406.9 128.3 411.95 131.55 Q413.95 133.05 415.25 134.5 418.35 137.95 420.75 141.25 422.6 143.9 422.65 146.85 422.65 148.15 421.0 150.55 419.65 152.5 419.0 154.45 418.6 155.25 418.55 156.15 L418.55 156.95 418.65 157.3 418.8 157.75 419.3 161.65 419.4 163.55 419.3 164.25 417.1 168.2 417.35 171.05 417.55 172.35 417.4 174.55 417.3 174.95 417.0 175.75 413.75 179.0 410.8 194.95 407.2 202.45 400.85 209.85 400.6 209.95 399.55 212.25 399.55 212.35 398.45 210.05 398.25 209.95 391.9 202.55 388.25 195.05 385.35 179.1 382.1 175.85 381.8 175.05 381.7 174.65 Q381.55 173.8 381.55 172.45 L381.75 171.15 381.95 168.3 379.8 164.35 379.65 163.65 379.75 161.75 380.3 157.85 380.45 157.4 380.55 157.05 380.55 156.25 380.1 154.55 Q379.4 152.6 378.1 150.65 376.45 148.25 376.45 146.95 376.45 144.0 378.35 141.35 380.7 138.05 383.85 134.6 385.1 133.15 387.15 131.65 389.25 130.05 392.15 128.4 L393.8 127.5 393.9 127.45 394.0 126.75 396.8 87.25 397.8 83.45 399.2 81.05 399.5 80.25 399.5 80.3" fill="#000000" fill-rule="evenodd" stroke="none"/>
  </g>
</svg>
