<?xml version="1.0" encoding="UTF-8" standalone="no"?>
<svg xmlns:xlink="http://www.w3.org/1999/xlink" height="184.4px" width="106.0px" xmlns="http://www.w3.org/2000/svg">
  <g transform="matrix(1.0, 0.0, 0.0, 1.0, -346.8, -323.45)">
    <path d="M370.4 323.45 Q380.5 328.3 399.8 328.2 419.1 328.3 429.25 323.45 446.5 374.05 444.8 427.05 L449.25 439.95 Q451.05 444.95 451.3 450.5 L451.3 452.05 452.8 505.5 449.1 507.15 Q443.55 508.7 435.3 506.8 L429.75 505.2 Q429.2 481.0 421.2 457.15 L420.8 456.3 Q417.45 448.35 419.55 439.7 L421.85 429.1 419.15 427.2 422.2 424.35 Q415.25 390.55 404.4 359.5 L395.2 359.5 Q384.35 390.55 377.45 424.35 L380.45 427.2 377.75 429.1 380.05 439.7 Q382.15 448.35 378.8 456.3 L378.4 457.15 Q370.4 481.0 369.85 505.2 L364.35 506.8 Q356.05 508.7 350.55 507.15 348.5 506.55 346.8 505.5 L348.3 452.05 348.35 450.5 Q348.55 444.95 350.35 439.95 L354.8 427.05 Q353.1 374.05 370.4 323.45" fill="#000000" fill-rule="evenodd" stroke="none"/>
  </g>
</svg>
