<?xml version="1.0" encoding="UTF-8" standalone="no"?>
<svg xmlns:xlink="http://www.w3.org/1999/xlink" height="140.95px" width="111.25px" xmlns="http://www.w3.org/2000/svg">
  <g transform="matrix(1.0, 0.0, 0.0, 1.0, -344.55, -323.45)">
    <path d="M370.4 323.45 Q380.5 328.3 399.8 328.2 419.1 328.3 429.25 323.45 437.2 346.75 441.15 370.55 447.45 396.7 448.4 422.85 454.3 439.55 455.8 455.0 454.2 452.3 451.25 449.4 L448.65 447.05 444.85 444.1 Q445.1 451.8 439.95 458.8 437.6 452.0 431.45 445.2 426.2 450.3 423.25 456.85 L422.05 459.75 421.2 462.4 Q419.55 456.65 419.2 450.95 L419.1 449.7 Q418.85 444.8 419.5 439.9 419.8 437.7 420.25 435.55 L417.25 437.85 Q413.5 441.1 411.1 445.65 409.55 433.5 413.6 425.25 417.0 408.5 413.55 388.55 L413.4 388.15 Q409.3 373.5 404.4 359.5 L395.2 359.5 Q388.15 379.7 382.75 401.1 380.5 410.75 382.55 420.4 387.55 432.05 388.4 444.5 L385.2 442.25 Q384.95 452.6 380.55 463.5 380.5 459.35 379.3 455.1 L378.7 453.3 Q377.65 450.35 376.05 447.4 373.2 452.35 364.45 457.25 364.1 450.45 358.45 446.3 354.55 448.2 351.7 451.15 349.65 453.35 348.2 456.1 346.2 459.75 345.25 464.4 342.8 450.9 348.85 436.05 L352.05 426.8 Q352.3 399.3 357.95 374.1 L358.05 373.5 Q361.9 348.2 370.4 323.45 M367.35 381.3 Q370.6 369.4 369.6 358.85 363.65 371.85 367.35 381.3 M440.0 412.5 Q440.05 392.0 436.4 375.5 434.05 398.85 440.0 412.5" fill="#000000" fill-rule="evenodd" stroke="none"/>
  </g>
</svg>
