<?xml version="1.0" encoding="UTF-8" standalone="no"?>
<svg xmlns:xlink="http://www.w3.org/1999/xlink" height="94.15px" width="90.3px" xmlns="http://www.w3.org/2000/svg">
  <g transform="matrix(1.0, 0.0, 0.0, 1.0, -354.65, -323.45)">
    <path d="M369.15 327.25 L370.4 323.45 372.75 324.45 Q378.25 326.6 386.1 327.5 L399.8 328.2 399.9 328.2 413.7 327.5 Q421.5 326.55 427.05 324.4 L429.25 323.45 430.4 327.0 Q432.65 333.85 434.55 340.75 436.6 348.1 438.2 355.5 439.85 363.0 441.1 370.55 L443.05 384.35 Q443.85 391.15 444.3 398.0 L444.9 411.65 444.95 417.45 399.9 380.75 354.65 417.6 354.7 411.85 Q354.85 405.0 355.3 398.2 355.75 391.35 356.55 384.55 357.3 377.6 358.45 370.75 359.7 363.15 361.35 355.7 362.4 350.9 363.6 346.2 L365.0 340.95 Q366.9 334.05 369.15 327.25" fill="#000000" fill-rule="evenodd" stroke="none"/>
  </g>
</svg>
