<?xml version="1.0" encoding="UTF-8" standalone="no"?>
<svg xmlns:xlink="http://www.w3.org/1999/xlink" height="195.25px" width="115.7px" xmlns="http://www.w3.org/2000/svg">
  <g transform="matrix(1.0, 0.0, 0.0, 1.0, -341.95, -322.95)">
    <path d="M404.4 359.5 L405.8 359.5 Q409.15 354.45 415.3 349.4 M395.2 359.5 L393.8 359.5 Q390.45 354.45 384.3 349.4" fill="none" stroke="#000000" stroke-linecap="round" stroke-linejoin="round" stroke-opacity="0.5019608" stroke-width="1.0"/>
    <path d="M395.2 359.5 L404.4 359.5 Q414.15 387.4 420.75 417.5 L417.85 425.8 420.05 429.45 417.25 446.5 421.3 470.25 425.0 477.7 421.65 490.9 427.4 496.95 426.55 512.9 435.15 517.7 Q441.9 512.55 452.55 511.35 L457.15 505.05 449.3 495.8 454.5 490.55 450.0 479.35 454.5 471.65 Q453.95 449.65 447.55 427.6 L448.95 423.4 Q448.45 399.95 441.85 375.25 439.55 359.8 435.6 344.55 432.8 333.95 429.25 323.45 M370.4 323.45 Q366.8 333.95 364.05 344.55 360.05 359.8 357.75 375.25 351.15 399.95 350.65 423.4 L352.05 427.6 Q345.65 449.65 345.1 471.65 L349.6 479.35 345.1 490.55 350.3 495.8 342.45 505.05 347.05 511.35 Q357.7 512.55 364.45 517.7 L373.05 512.9 372.2 496.95 377.95 490.9 374.6 477.7 378.3 470.25 382.35 446.5 379.55 429.45 381.75 425.8 378.9 417.5 Q385.45 387.4 395.2 359.5" fill="none" stroke="#000000" stroke-linecap="round" stroke-linejoin="round" stroke-width="1.0"/>
  </g>
</svg>
