<?xml version="1.0" encoding="UTF-8" standalone="no"?>
<svg xmlns:xlink="http://www.w3.org/1999/xlink" height="42.35px" width="77.0px" xmlns="http://www.w3.org/2000/svg">
  <g transform="matrix(1.0, 0.0, 0.0, 1.0, -361.3, -322.95)">
    <path d="M370.4 323.45 Q362.2 332.75 361.8 343.35 L365.15 339.85 Q364.1 347.5 366.95 355.25 367.1 350.4 370.8 346.15 373.9 356.3 378.8 360.75 379.1 358.45 381.05 356.15 387.5 362.2 390.55 364.65 391.0 362.55 391.8 360.4 395.5 363.4 399.8 364.8 404.1 363.4 407.8 360.4 408.6 362.55 409.05 364.65 L418.55 356.15 Q420.5 358.45 420.8 360.75 425.7 356.3 428.8 346.15 432.5 350.4 432.65 355.25 435.5 347.5 434.45 339.85 L437.8 343.35 Q437.4 332.75 429.2 323.45 419.1 328.3 399.8 328.2 380.5 328.3 370.4 323.45 Z" fill="none" stroke="#000000" stroke-linecap="round" stroke-linejoin="round" stroke-width="1.0"/>
  </g>
</svg>
