<?xml version="1.0" encoding="UTF-8" standalone="no"?>
<svg xmlns:xlink="http://www.w3.org/1999/xlink" height="188.6px" width="130.3px" xmlns="http://www.w3.org/2000/svg">
  <g transform="matrix(1.0, 0.0, 0.0, 1.0, -334.8, -322.95)">
    <path d="M370.05 323.6 L370.3 323.65 367.3 333.05 Q348.2 384.8 342.8 449.2 341.05 476.1 335.3 501.05 343.1 504.1 351.3 506.2 358.0 507.95 365.0 509.05 381.7 511.75 399.95 510.8 411.6 511.4 422.65 510.55 M452.5 505.15 Q458.65 503.4 464.6 501.05 458.85 476.1 457.1 449.2 451.7 384.8 432.35 333.1 L429.25 323.45" fill="none" stroke="#000000" stroke-linecap="round" stroke-linejoin="round" stroke-width="1.0"/>
    <path d="M422.65 510.55 Q418.4 431.35 426.35 352.2 446.45 429.7 452.5 505.15" fill="none" stroke="#000000" stroke-linecap="round" stroke-linejoin="round" stroke-opacity="0.5019608" stroke-width="1.0"/>
  </g>
</svg>
