<?xml version="1.0" encoding="UTF-8" standalone="no"?>
<svg xmlns:xlink="http://www.w3.org/1999/xlink" height="49.0px" width="33.1px" xmlns="http://www.w3.org/2000/svg">
  <g transform="matrix(1.0, 0.0, 0.0, 1.0, -381.25, -163.3)">
    <path d="M388.25 163.3 Q401.3 167.5 414.35 176.9 399.9 173.8 387.2 174.75 400.6 179.15 411.65 186.4 399.7 183.55 387.2 185.1 398.7 189.45 409.8 197.2 399.1 194.75 388.8 195.05 397.75 199.1 405.25 205.7 L392.75 204.3 Q397.4 208.15 399.7 212.3 L397.7 211.8 Q392.9 208.4 389.4 205.1 L385.5 201.3 382.6 190.75 382.6 190.7 382.45 190.05 382.15 188.65 381.7 185.85 Q380.6 178.0 382.05 171.3 383.75 166.05 388.25 163.3" fill="#000000" fill-rule="evenodd" stroke="none"/>
  </g>
</svg>
