<?xml version="1.0" encoding="UTF-8" standalone="no"?>
<svg xmlns:xlink="http://www.w3.org/1999/xlink" height="53.95px" width="37.75px" xmlns="http://www.w3.org/2000/svg">
  <g transform="matrix(1.0, 0.0, 0.0, 1.0, -380.65, -160.15)">
    <path d="M382.7 167.35 Q388.9 160.1 399.7 160.15 L399.7 186.2 399.65 186.2 399.7 186.25 416.7 203.25 Q414.4 207.05 410.8 210.1 406.35 213.85 399.7 214.1 L399.7 186.25 382.75 203.25 381.2 200.2 Q380.0 193.0 381.4 187.65 L381.25 186.2 399.65 186.2 381.9 168.45 382.7 167.35 M418.2 186.2 L399.75 186.2 417.55 168.45 417.65 168.6 Q418.35 172.7 418.4 181.5 L418.4 181.75 418.4 181.95 418.2 186.05 418.2 186.2" fill="#000000" fill-rule="evenodd" stroke="none"/>
  </g>
</svg>
