<?xml version="1.0" encoding="UTF-8" standalone="no"?>
<svg xmlns:xlink="http://www.w3.org/1999/xlink" height="54.55px" width="37.15px" xmlns="http://www.w3.org/2000/svg">
  <g transform="matrix(1.0, 0.0, 0.0, 1.0, -381.25, -160.15)">
    <path d="M382.7 167.35 Q388.9 160.1 399.7 160.15 L399.7 186.2 399.65 186.2 399.7 186.25 413.6 200.15 Q411.4 204.65 408.9 208.45 406.65 211.85 404.25 214.7 L399.7 214.7 399.7 186.25 385.8 200.15 383.85 195.95 382.55 192.9 382.05 191.1 Q381.45 188.65 381.25 186.2 L399.65 186.2 381.9 168.45 382.7 167.35 M418.2 186.2 L399.75 186.2 417.55 168.45 417.65 168.6 Q418.35 172.7 418.4 181.5 L418.4 181.75 418.4 181.95 418.2 186.05 418.2 186.2" fill="#000000" fill-rule="evenodd" stroke="none"/>
  </g>
</svg>
