<?xml version="1.0" encoding="UTF-8" standalone="no"?>
<svg xmlns:xlink="http://www.w3.org/1999/xlink" height="19.1px" width="32.35px" xmlns="http://www.w3.org/2000/svg">
  <g transform="matrix(1.0, 0.0, 0.0, 1.0, -383.55, -176.5)">
    <path d="M384.1 180.05 L384.15 179.75 384.85 176.8 388.45 177.3 389.0 180.25 Q393.2 181.05 397.15 183.2 L399.8 183.8 402.45 183.2 Q406.3 181.1 410.4 180.25 L411.0 177.0 414.6 176.5 415.4 179.75 Q415.85 181.35 415.9 182.7 L415.9 183.75 Q416.05 189.55 413.55 195.3 L411.5 195.3 Q411.6 192.9 409.7 191.55 405.75 193.55 399.8 193.8 394.0 193.6 390.05 191.65 387.85 193.05 387.95 195.6 L385.9 195.6 Q383.15 189.3 383.65 183.0 383.65 181.65 384.1 180.05" fill="#000000" fill-rule="evenodd" stroke="none"/>
  </g>
</svg>
