<?xml version="1.0" encoding="UTF-8" standalone="no"?>
<svg xmlns:xlink="http://www.w3.org/1999/xlink" height="460.75px" width="384.1px" xmlns="http://www.w3.org/2000/svg">
  <g transform="matrix(1.0, 0.0, 0.0, 1.0, -207.9, -104.4)">
    <path d="M495.45 151.8 Q487.3 161.7 475.95 169.2 475.2 184.55 473.5 201.2 488.7 197.35 502.65 192.05 503.6 173.35 502.5 154.4 M526.95 163.0 Q528.7 171.55 529.45 180.0 537.85 175.5 545.7 170.4 M502.65 192.05 Q516.7 186.75 529.45 180.0 530.9 197.45 527.75 214.25 540.55 208.95 552.5 202.4 552.15 187.65 550.4 173.2 M391.95 104.9 L391.95 112.6 399.95 112.35 407.85 112.6 407.85 104.9 M376.6 115.0 L379.75 114.3 379.75 111.4 M377.2 145.05 L379.75 144.55 379.75 128.85 375.7 129.8 M391.95 143.0 L399.95 142.65 407.85 143.0 407.85 127.1 399.95 126.7 391.95 127.1 391.95 143.0 391.95 157.8 399.95 157.45 407.85 157.8 407.85 143.0 420.05 144.5 420.05 128.85 Q414.2 127.6 407.85 127.1 L407.85 112.6 Q414.15 113.0 420.05 114.25 L420.05 111.4 M379.75 128.85 Q385.6 127.6 391.95 127.1 L391.95 112.6 379.75 114.3 379.75 128.85 M379.75 144.55 Q385.45 143.45 391.95 143.0 M323.3 146.3 Q323.25 157.3 323.85 169.1 338.5 178.8 358.45 184.55 358.55 169.05 359.4 154.25 352.8 150.2 348.2 145.2 M391.95 170.75 L391.95 157.8 Q386.6 158.35 381.1 159.85 M385.15 164.0 L385.1 164.6 386.0 164.85 M385.1 164.6 Q383.6 176.9 382.65 189.7 L399.95 191.65 417.2 189.7 Q416.2 176.9 414.75 164.65 L413.9 164.85 M379.75 144.55 L379.75 158.65 M358.45 184.55 Q369.7 187.75 382.65 189.7 381.9 199.75 381.45 210.1 L399.95 211.2 418.35 210.1 417.2 189.7 Q430.1 187.75 441.4 184.55 441.25 169.1 440.45 154.3 430.05 160.65 414.75 164.65 L414.65 164.0 M360.4 139.1 L359.4 154.25 Q369.75 160.6 385.1 164.6 M420.05 114.25 L423.3 115.0 M424.2 129.8 L420.05 128.85 420.05 114.25 M420.05 144.5 L422.7 145.05 M418.8 159.85 Q413.25 158.35 407.85 157.8 L407.85 170.75 M420.05 144.5 L420.05 158.65 M451.7 145.2 Q447.05 150.25 440.45 154.3 L439.4 139.1 M441.4 184.55 Q461.3 178.85 475.95 169.2 476.5 157.35 476.5 146.3 M473.5 201.2 Q458.0 205.1 441.2 207.55 440.9 221.1 440.1 235.15 455.3 233.75 469.7 231.15 471.95 215.65 473.5 201.2 M381.45 210.1 Q380.9 223.05 380.9 236.5 390.3 236.85 399.95 236.75 409.55 236.85 418.9 236.5 418.85 223.05 418.35 210.1 L441.2 207.55 441.4 184.55 M418.9 236.5 L418.85 246.15 418.85 255.65 438.5 257.15 439.3 247.55 440.1 235.15 418.9 236.5 M418.85 255.65 L418.85 276.25 437.3 278.3 Q437.7 267.65 438.5 257.15 451.75 258.5 465.0 260.9 L466.0 253.9 469.7 231.15 Q485.05 228.35 499.5 224.15 501.85 208.2 502.65 192.05 M437.3 278.3 Q450.1 280.0 461.85 282.5 L465.0 260.9 Q479.85 263.55 494.7 267.5 M380.9 236.5 L359.7 235.15 360.5 247.55 361.3 257.15 380.95 255.7 380.95 246.15 380.9 236.5 M358.6 207.55 Q341.8 205.1 326.35 201.15 327.85 215.65 330.15 231.15 344.5 233.75 359.7 235.15 358.9 221.1 358.6 207.55 358.35 195.85 358.45 184.55 M361.3 257.15 Q348.05 258.5 334.85 260.9 L337.95 282.55 Q349.7 280.0 362.55 278.3 362.1 267.7 361.3 257.15 M330.15 231.15 Q331.75 242.25 333.8 253.9 L334.85 260.9 Q322.7 263.1 310.55 266.15 L305.2 267.5 M418.85 255.65 Q409.4 255.2 399.95 255.3 390.45 255.2 380.95 255.7 L380.95 276.25 399.95 274.95 418.85 276.25 418.85 299.3 436.75 300.65 Q436.8 289.45 437.3 278.3 M358.6 207.55 L381.45 210.1 M362.55 278.3 L380.95 276.25 380.95 299.3 399.95 298.45 418.85 299.3 418.85 322.15 436.95 322.15 Q436.65 311.35 436.75 300.65 L458.9 303.05 461.85 282.5 Q479.05 286.15 493.95 291.45 M380.95 299.3 L363.1 300.65 362.9 322.15 380.95 322.15 380.95 299.3 M399.95 344.65 Q409.4 344.75 418.85 344.35 L418.85 322.15 380.95 322.15 380.95 344.35 394.8 344.7 399.95 344.65 M329.0 322.15 L342.7 322.15 343.0 317.3 340.95 303.05 322.25 305.75 M329.0 338.3 L341.6 340.5 342.7 322.15 362.9 322.15 362.45 334.1 362.0 343.05 380.95 344.35 380.95 364.25 394.8 365.05 399.95 365.2 418.85 364.25 418.85 344.35 437.8 343.05 Q437.2 332.55 436.95 322.15 L457.1 322.15 456.8 317.3 458.9 303.05 477.65 305.75 M363.1 300.65 L340.95 303.05 337.95 282.55 Q323.45 285.6 310.55 289.9 L305.95 291.45 M341.6 340.5 L362.0 343.05 360.65 361.85 380.95 364.25 380.95 398.1 M326.85 354.35 Q333.6 356.35 340.55 358.0 L341.6 340.5 M320.9 372.05 L335.0 375.6 Q337.6 366.7 340.55 358.05 L340.55 358.0 Q350.4 360.3 360.65 361.85 L359.4 374.85 357.1 381.2 371.05 384.7 M316.65 385.35 L331.3 388.85 335.0 375.6 357.1 381.2 Q354.75 387.75 352.65 394.5 365.5 398.1 377.95 402.05 M331.3 388.85 L352.65 394.5 348.75 407.4 Q360.65 410.15 372.0 413.3 M470.9 322.15 L457.1 322.15 458.2 340.5 470.9 338.3 M428.85 384.7 L442.75 381.2 440.4 374.85 Q439.7 368.35 439.15 361.85 L418.85 364.25 418.85 398.1 M458.2 340.5 L459.25 358.0 Q466.25 356.35 473.05 354.35 M479.0 372.05 L464.85 375.65 468.55 388.9 483.25 385.35 M464.85 375.65 L442.75 381.2 447.2 394.5 Q457.7 391.55 468.55 388.9 L472.0 402.95 487.25 400.1 M464.85 375.65 L459.25 358.05 459.25 358.0 Q449.4 360.3 439.15 361.85 L437.8 343.05 458.2 340.5 M363.1 300.65 Q363.0 289.45 362.55 278.3 M571.25 192.8 Q574.95 207.0 575.85 221.2 L581.5 217.2 M582.9 245.05 L574.6 251.2 Q573.6 258.05 571.95 264.9 L574.65 274.4 578.35 272.4 M575.85 221.2 Q576.8 236.2 574.6 251.2 562.3 259.6 548.2 265.2 L545.8 278.5 547.75 284.3 Q561.6 281.05 574.65 274.4 577.8 286.7 579.35 298.9 584.75 296.9 589.8 294.55 M527.75 214.25 Q525.55 226.0 521.15 237.45 520.4 241.25 519.8 245.0 536.7 241.1 551.75 234.45 552.9 218.25 552.5 202.4 561.8 197.3 570.55 191.45 M505.2 286.65 L518.15 287.5 Q517.5 280.65 517.5 273.6 508.15 275.15 498.2 275.75 M575.85 221.2 Q564.45 228.8 551.75 234.45 550.65 249.65 548.2 265.2 533.75 270.85 517.5 273.6 517.45 259.75 519.8 245.0 L505.8 247.7 M527.75 214.25 Q514.1 219.9 499.5 224.15 496.95 241.55 492.55 258.75 M518.15 287.5 Q533.4 287.7 547.75 284.3 551.05 294.9 552.9 306.25 567.1 303.4 579.35 298.9 581.1 312.45 580.85 325.85 L591.5 323.75 M552.9 306.25 Q554.7 317.35 555.1 329.2 568.55 327.95 580.85 325.85 580.6 337.75 578.85 349.5 L588.85 347.7 M500.45 311.0 L521.75 310.3 520.35 302.6 Q518.85 295.2 518.15 287.5 M513.8 330.75 L525.45 330.7 521.75 310.3 Q538.35 309.15 552.9 306.25 M502.05 385.0 L512.4 392.4 Q524.25 399.25 540.15 402.2 L552.4 368.7 Q540.6 366.1 528.85 361.4 L512.25 382.4 M527.25 347.2 L528.45 347.4 525.45 330.7 555.1 329.2 Q555.4 339.5 554.7 350.35 L578.85 349.5 Q577.4 358.85 574.95 368.15 L573.8 371.65 Q580.0 371.95 586.2 371.7 M552.4 368.7 L553.05 366.85 Q554.15 358.45 554.7 350.35 542.35 349.8 528.45 347.4 L529.0 350.55 M552.4 368.7 Q563.05 371.05 573.8 371.65 L562.7 404.4 573.95 404.25 M254.2 170.4 Q262.0 175.45 270.4 179.95 271.1 171.55 272.85 163.0 M304.45 151.8 Q307.3 155.25 310.55 158.45 316.55 164.25 323.85 169.1 324.55 184.5 326.35 201.15 L310.55 196.7 Q303.7 194.5 297.15 192.0 297.95 208.15 300.3 224.15 L310.55 226.9 Q320.15 229.3 330.15 231.15 M270.4 179.95 Q283.1 186.7 297.15 192.0 296.2 173.3 297.3 154.4 M280.0 245.0 L278.65 237.45 Q274.25 226.0 272.05 214.2 259.25 208.9 247.3 202.35 246.9 218.2 248.05 234.4 263.1 241.05 280.0 245.0 L294.1 247.7 M254.0 278.5 Q252.95 281.35 252.05 284.3 266.4 287.7 281.7 287.5 282.3 280.65 282.35 273.6 266.0 270.85 251.65 265.15 L254.0 278.5 M294.7 286.65 L281.7 287.5 Q280.95 295.2 279.45 302.6 L278.1 310.3 299.45 311.0 M280.0 245.0 Q282.35 259.75 282.35 273.6 L301.7 275.75 M248.05 234.4 Q249.15 249.6 251.65 265.15 237.5 259.55 225.2 251.15 226.2 258.0 227.85 264.9 L225.2 274.35 Q238.2 281.0 252.05 284.3 248.75 294.85 246.95 306.25 261.45 309.15 278.1 310.3 L274.4 330.7 286.1 330.75 M307.25 258.75 Q302.85 241.55 300.3 224.15 285.7 219.9 272.05 214.2 268.9 197.35 270.4 179.95 M217.0 245.05 L225.2 251.15 Q223.0 236.1 224.0 221.1 L218.4 217.2 M210.1 294.55 Q215.1 296.85 220.45 298.85 222.0 286.65 225.2 274.35 L221.55 272.4 M211.05 347.7 Q215.85 348.8 221.0 349.5 220.2 344.55 219.75 339.55 L219.3 334.1 218.95 325.85 208.4 323.75 M218.95 325.85 Q231.25 327.95 244.75 329.2 245.1 317.35 246.95 306.25 232.7 303.4 220.45 298.85 218.7 312.4 218.95 325.85 M225.95 404.25 L237.15 404.4 226.05 371.65 Q219.85 371.95 213.7 371.7 M226.05 371.65 Q236.75 371.05 247.45 368.75 L246.75 366.85 Q245.65 358.45 245.1 350.4 L221.0 349.5 Q222.4 358.85 224.85 368.15 L226.05 371.65 M244.75 329.2 L244.65 334.1 244.65 339.55 245.1 350.4 Q257.45 349.85 271.4 347.45 L274.4 330.7 244.75 329.2 M272.65 347.2 L271.4 347.45 270.8 350.55 M287.55 382.4 L271.05 361.4 Q259.25 366.15 247.45 368.75 L259.65 402.2 Q275.6 399.25 287.5 392.4 L297.85 385.0 M248.05 234.4 Q235.35 228.75 224.0 221.1 224.85 206.95 228.55 192.8 M247.3 202.35 Q238.05 197.25 229.35 191.45 M249.4 173.2 Q247.7 187.65 247.3 202.35 M308.25 439.85 Q313.95 441.95 320.2 443.4 L322.3 430.15 Q315.3 428.55 308.65 426.4 M263.0 428.75 Q268.55 429.55 273.3 428.9 L265.4 417.95 259.65 402.2 Q249.25 404.15 237.15 404.4 L240.5 414.35 244.7 423.3 M284.5 424.5 Q279.65 428.0 273.3 428.9 L282.15 441.15 M304.85 457.8 L303.8 464.1 Q310.7 466.25 317.6 467.65 L317.6 463.3 317.75 461.95 318.55 455.55 Q313.6 454.3 309.05 452.5 M302.75 491.8 Q309.75 493.6 317.4 494.45 L317.5 482.25 Q309.95 481.1 302.45 479.2 302.25 485.6 302.75 491.8 L301.75 491.55 M296.95 477.65 L302.45 479.2 Q302.65 471.8 303.8 464.1 L300.7 463.1 M317.5 482.25 L317.6 467.65 Q326.5 469.4 335.45 469.9 L337.1 463.0 337.85 458.0 Q327.55 457.75 318.55 455.55 319.3 449.4 320.2 443.4 329.45 445.55 339.85 446.25 340.95 439.9 342.3 433.65 331.95 432.4 322.3 430.15 323.5 423.3 324.85 416.55 L310.2 413.0 M306.45 513.05 Q310.85 515.3 315.7 516.25 L317.3 510.85 317.35 506.15 Q310.85 505.35 304.8 503.15 M297.65 523.55 L309.55 524.35 314.85 519.1 315.7 516.25 325.55 516.85 325.55 511.35 326.7 506.65 317.35 506.15 317.4 494.45 329.4 495.3 332.2 483.7 317.5 482.25 M270.7 546.6 Q278.85 543.9 288.5 544.55 L290.1 543.4 300.75 533.0 Q293.25 532.3 286.05 533.35 M321.1 526.3 Q315.6 525.0 309.55 524.35 L300.75 533.0 Q307.2 533.55 313.9 535.5 L321.1 526.3 325.55 520.55 325.55 516.85 Q333.1 516.3 341.5 513.05 M281.85 564.65 Q281.25 559.9 281.85 556.05 275.1 556.25 269.5 558.75 M288.5 544.55 Q295.9 545.0 304.2 547.5 305.25 546.1 306.6 544.85 L313.9 535.5 Q321.95 537.8 330.25 542.05 L336.6 533.1 337.1 531.95 Q329.95 528.35 321.1 526.3 M299.6 558.75 Q306.45 560.9 314.2 564.65 L321.55 554.3 Q312.45 549.9 304.2 547.5 300.45 552.25 299.6 558.75 289.9 555.75 281.85 556.05 283.0 548.75 288.5 544.55 M299.6 558.75 Q299.2 561.55 299.35 564.65 M303.3 497.25 L302.75 491.8 M555.1 423.3 L559.3 414.35 562.7 404.4 Q550.55 404.1 540.15 402.2 L534.4 417.95 526.5 428.9 Q531.3 429.55 536.9 428.75 M494.95 457.8 L496.0 464.15 499.2 463.1 M496.0 464.15 Q497.15 471.8 497.35 479.2 L502.95 477.65 M497.35 479.2 Q497.55 485.65 497.05 491.85 L498.15 491.55 M517.65 441.15 L526.5 428.9 Q520.25 428.0 515.4 424.5 M493.45 513.05 Q489.0 515.3 484.1 516.25 L484.95 519.1 490.3 524.35 502.25 523.55 M490.3 524.35 L499.1 533.0 Q506.6 532.3 513.85 533.35 M499.1 533.0 Q492.6 533.6 485.95 535.55 L493.2 544.85 495.65 547.5 Q503.95 545.05 511.35 544.55 L509.7 543.4 499.1 533.0 M500.45 564.65 Q500.6 561.55 500.25 558.8 493.4 560.9 485.7 564.65 L478.3 554.35 Q475.85 555.5 473.35 556.8 M517.95 564.65 Q518.55 559.9 517.95 556.05 509.9 555.8 500.25 558.8 499.4 552.3 495.65 547.5 487.4 549.95 478.3 554.35 L469.6 542.1 466.0 544.0 M517.95 556.05 Q516.8 548.75 511.35 544.55 521.05 543.9 529.2 546.6 M517.95 556.05 Q524.75 556.2 530.4 558.75 M497.05 491.85 L496.5 497.25 M477.5 430.2 Q467.85 432.4 457.5 433.65 L460.0 446.25 Q470.35 445.6 479.65 443.45 L477.5 430.2 474.95 416.55 Q465.2 418.65 454.5 420.4 L457.5 433.65 435.35 435.2 M474.95 416.55 L472.0 402.95 Q461.3 405.05 451.05 407.45 L454.5 420.4 432.05 423.55 M433.15 467.7 Q440.8 469.2 448.5 469.75 L444.05 457.05 435.95 455.8 M436.75 445.9 L439.65 446.15 435.75 437.45 M444.05 457.05 L461.95 458.0 460.0 446.25 Q450.3 446.85 439.65 446.15 L444.05 457.05 M482.2 463.3 L482.05 461.95 481.3 455.55 Q472.25 457.75 461.95 458.0 L462.7 463.0 464.35 469.9 Q473.3 469.4 482.25 467.65 L482.2 463.3 M448.5 469.75 L452.45 483.7 Q460.05 484.1 467.65 483.75 L464.35 469.9 Q456.4 470.3 448.5 469.75 M450.3 494.45 L454.95 494.85 452.45 483.7 Q443.9 483.2 435.3 481.8 M482.35 482.25 L467.65 483.75 470.4 495.3 482.4 494.5 482.35 482.25 482.25 467.65 Q489.1 466.25 496.0 464.15 M427.9 413.3 Q439.2 410.15 451.05 407.45 L447.2 394.5 Q434.35 398.1 421.95 402.05 M481.3 455.55 L479.65 443.45 Q485.9 442.0 491.65 439.85 M342.3 433.65 Q343.7 426.95 345.35 420.4 L324.85 416.55 Q326.25 409.65 327.8 402.95 L312.65 400.1 M345.35 420.4 L348.75 407.4 Q338.45 405.0 327.8 402.95 L331.3 388.85 M363.15 445.9 L360.15 446.15 Q357.8 451.6 355.75 457.05 L363.95 455.8 M355.75 457.05 Q353.35 463.4 351.35 469.75 359.05 469.2 366.75 467.7 M337.85 458.0 L339.85 446.25 Q349.5 446.85 360.15 446.15 L364.05 437.45 M349.6 494.45 L344.85 494.9 343.7 501.15 M364.6 481.8 L347.4 483.7 Q345.95 489.25 344.85 494.9 336.85 495.45 329.4 495.3 L326.7 506.65 Q334.2 506.5 342.25 504.65 M335.45 469.9 Q343.4 470.35 351.35 469.75 349.1 476.7 347.4 483.7 339.75 484.05 332.2 483.7 L335.45 469.9 M337.85 458.0 L355.75 457.05 M364.55 435.2 L342.3 433.65 M367.85 423.55 L345.35 420.4 M339.55 533.25 L337.1 531.95 342.55 519.25 M330.25 542.05 L333.9 544.0 M457.65 504.65 Q465.65 506.5 473.15 506.65 L470.4 495.3 454.95 494.85 456.1 501.15 M473.15 506.65 L474.25 511.35 474.25 516.8 484.1 516.25 482.5 510.85 482.5 506.15 473.15 506.65 M463.2 533.1 L469.6 542.1 Q477.9 537.85 485.95 535.55 L478.75 526.3 Q469.9 528.35 462.75 532.0 L463.2 533.1 M460.35 533.25 L462.75 532.0 457.25 519.25 M478.75 526.3 L474.25 520.55 474.25 516.8 Q466.75 516.3 458.4 513.05 M482.5 506.15 L482.4 494.5 Q490.0 493.6 497.05 491.85 M497.35 479.2 Q489.85 481.1 482.35 482.25 M495.1 503.15 Q489.0 505.35 482.5 506.15 M477.5 430.2 Q484.6 428.55 491.25 426.4 M490.85 452.5 Q486.25 454.3 481.3 455.55 M474.95 416.55 L489.7 413.0 M490.3 524.35 Q484.2 525.0 478.75 526.3 M321.55 554.3 L330.25 542.05 M326.55 556.8 L321.55 554.3" fill="none" stroke="#000000" stroke-linecap="round" stroke-linejoin="round" stroke-opacity="0.2509804" stroke-width="1.0"/>
  </g>
</svg>
