<?xml version="1.0" encoding="UTF-8" standalone="no"?>
<svg xmlns:xlink="http://www.w3.org/1999/xlink" height="55.0px" width="55.0px" xmlns="http://www.w3.org/2000/svg">
  <g transform="matrix(1.0, 0.0, 0.0, 1.0, 0.0, 0.0)">
    <path d="M55.0 21.05 L55.0 25.95 53.55 26.3 53.05 26.5 52.75 26.75 52.45 27.05 51.85 27.55 Q51.4 27.8 51.2 28.3 L50.55 29.15 50.1 29.9 Q50.1 30.8 50.5 31.2 L51.05 31.6 50.75 32.0 49.6 32.95 48.8 33.5 47.45 33.7 46.25 33.55 45.35 33.35 Q44.2 33.05 43.55 31.85 L44.05 29.4 Q44.25 28.7 44.0 28.4 43.6 27.95 42.7 27.9 L39.85 28.25 Q39.5 28.35 38.85 28.8 37.75 29.2 36.8 30.15 L36.0 30.8 34.2 32.1 33.4 32.65 Q32.35 33.4 31.9 34.45 L31.4 35.0 28.95 37.45 Q27.65 38.45 25.65 38.35 L24.6 38.25 23.0 37.0 Q22.35 36.45 22.35 35.35 22.3 34.75 22.65 34.55 22.55 34.4 23.0 34.0 L23.05 33.9 23.05 33.85 Q23.3 32.8 24.65 32.3 L24.85 32.2 25.4 31.95 25.85 31.75 28.65 30.95 Q30.2 30.4 31.3 29.4 32.4 28.35 32.75 26.8 33.05 25.3 32.0 24.75 30.8 24.4 30.95 23.0 L31.35 21.1 32.25 19.7 Q32.8 18.95 33.85 18.45 36.1 17.2 38.2 17.7 L40.35 17.9 42.85 17.85 Q43.2 19.7 42.4 20.3 L41.7 21.1 Q41.35 22.05 42.0 22.15 L44.15 21.9 45.1 21.4 48.15 19.2 Q49.55 18.2 51.0 17.9 L52.2 17.85 Q52.9 17.95 53.1 18.25 53.45 18.75 53.05 19.35 L52.55 20.1 Q52.3 20.65 52.5 21.35 52.55 22.3 53.4 22.0 L54.05 21.4 55.0 21.05 M55.0 36.05 L55.0 46.2 53.2 47.05 Q52.35 47.55 51.5 46.75 51.5 45.3 50.05 45.6 L49.1 45.75 47.15 46.2 46.1 46.35 44.05 47.95 Q43.85 48.5 43.15 48.35 L42.4 48.55 Q41.9 48.95 41.25 49.0 L38.65 48.95 Q38.3 48.95 38.25 48.75 L38.3 48.2 Q38.7 47.3 38.6 46.0 37.25 45.6 35.7 46.35 35.3 46.7 34.45 46.85 33.5 47.3 32.7 47.85 31.4 48.9 29.65 48.85 L29.5 48.85 28.7 48.6 Q27.6 48.9 27.9 47.45 27.9 46.7 28.25 46.05 L29.35 44.3 30.25 43.3 31.0 42.85 Q31.85 42.25 33.1 41.5 33.25 40.55 33.7 40.1 35.0 38.6 37.7 39.05 38.15 39.05 38.45 39.35 L39.6 40.8 40.05 41.55 41.4 41.65 Q41.75 41.3 42.9 41.15 L44.2 40.25 Q44.5 39.65 45.45 39.05 46.05 38.2 47.45 37.75 48.5 37.35 49.6 37.3 L51.95 36.85 55.0 36.05 M0.0 50.4 L0.0 36.3 Q2.1 35.9 2.9 34.5 L4.1 32.3 Q4.5 31.45 4.85 31.2 L5.9 30.45 7.1 30.1 Q8.2 29.35 9.5 29.3 11.6 29.2 13.75 30.0 14.45 29.95 14.9 30.4 15.75 31.3 14.95 32.5 L13.6 34.0 13.35 34.15 13.0 34.5 11.7 35.65 11.55 35.9 Q11.25 36.15 11.25 36.5 L11.0 36.9 Q10.7 37.15 10.5 37.55 L10.2 38.15 9.95 38.55 9.75 38.75 Q9.45 39.15 8.95 39.25 L7.65 39.95 7.1 40.2 6.95 40.6 7.6 40.55 7.95 40.7 8.1 41.25 7.9 42.4 7.45 43.55 6.35 44.55 5.25 45.4 Q4.85 45.65 4.55 46.05 L2.95 47.4 Q2.25 48.15 1.65 48.4 1.15 48.6 1.35 49.2 0.6 50.3 0.0 50.4 M0.0 25.8 L0.0 21.05 1.05 20.2 Q2.85 18.75 4.35 18.35 L5.95 18.55 Q6.7 19.3 6.6 19.85 6.15 20.35 6.25 21.35 5.9 22.65 5.4 23.2 L3.05 24.35 0.95 25.4 0.0 25.8" fill="#000000" fill-opacity="0.2509804" fill-rule="evenodd" stroke="none"/>
    <path d="M48.8 3.9 Q48.45 4.1 48.25 4.35 47.75 4.8 47.6 5.45 46.9 6.45 47.4 7.15 L48.8 8.55 49.8 8.7 Q50.65 8.55 51.05 7.8 L52.2 7.1 Q52.7 6.5 53.85 6.65 54.65 6.8 55.0 7.8 54.55 8.15 55.0 8.5 L54.25 9.1 Q54.05 10.1 55.0 10.5 L55.0 21.05 54.05 21.4 53.4 22.0 Q52.55 22.3 52.5 21.35 52.3 20.65 52.55 20.1 L53.05 19.35 Q53.45 18.75 53.1 18.25 52.9 17.95 52.2 17.85 L51.0 17.9 Q49.55 18.2 48.15 19.2 L45.1 21.4 44.15 21.9 42.0 22.15 Q41.35 22.05 41.7 21.1 L42.4 20.3 Q43.2 19.7 42.85 17.85 L43.7 17.4 44.35 17.0 Q45.75 16.4 47.0 15.45 49.3 14.55 49.55 12.75 48.7 11.65 47.7 11.45 L46.5 11.35 41.05 11.7 40.35 11.9 38.45 12.75 Q36.6 13.05 36.85 11.35 36.95 10.5 37.45 10.15 L39.0 8.55 40.6 7.2 Q41.3 6.8 41.95 6.55 L42.65 6.1 43.35 5.65 44.4 4.75 46.85 2.95 Q47.3 2.55 47.85 2.45 48.65 2.3 48.7 2.75 L48.8 3.9 M32.35 0.0 L31.7 1.3 Q32.4 2.05 33.7 1.95 L35.8 1.85 37.25 2.4 Q38.1 2.6 37.9 3.1 L37.15 4.25 Q35.7 4.85 34.85 5.7 33.95 7.05 32.3 7.6 L28.7 7.9 28.4 7.65 27.35 6.8 26.3 6.25 24.55 5.05 23.65 4.55 21.75 3.35 20.4 2.35 Q19.95 1.95 19.8 1.35 L19.55 0.0 32.35 0.0 M55.0 29.3 L55.0 36.05 51.95 36.85 49.6 37.3 Q48.5 37.35 47.45 37.75 46.05 38.2 45.45 39.05 44.5 39.65 44.2 40.25 L42.9 41.15 Q41.75 41.3 41.4 41.65 L40.05 41.55 39.6 40.8 38.45 39.35 Q38.15 39.05 37.7 39.05 35.0 38.6 33.7 40.1 32.9 39.45 31.8 39.65 L31.05 39.75 Q29.95 39.75 29.1 40.5 28.25 40.8 27.0 41.9 L26.15 42.55 Q25.15 43.0 24.65 43.65 L23.8 44.2 21.6 44.4 20.5 43.9 Q20.2 42.65 21.3 41.7 21.7 41.2 22.3 41.15 23.15 41.0 24.1 40.0 L25.65 38.35 Q27.65 38.45 28.95 37.45 L31.4 35.0 31.9 34.45 Q32.35 33.4 33.4 32.65 L34.2 32.1 36.0 30.8 36.8 30.15 Q37.75 29.2 38.85 28.8 39.5 28.35 39.85 28.25 L42.7 27.9 Q43.6 27.95 44.0 28.4 44.25 28.7 44.05 29.4 L43.55 31.85 Q44.2 33.05 45.35 33.35 L46.25 33.55 47.45 33.7 48.8 33.5 49.6 32.95 50.75 32.0 51.05 31.6 Q51.2 31.4 51.5 31.3 52.2 30.6 53.35 30.0 54.3 29.5 55.0 29.3 M32.35 55.0 L19.55 55.0 19.5 54.25 19.35 51.8 Q20.95 50.1 23.0 49.35 L23.7 49.05 Q24.45 48.45 25.15 48.65 25.8 48.8 25.6 49.8 25.45 50.85 24.75 51.8 L24.25 52.45 23.95 53.15 25.15 53.35 Q25.5 53.25 25.9 52.95 L28.35 50.25 29.5 48.85 29.65 48.85 Q31.4 48.9 32.7 47.85 33.5 47.3 34.45 46.85 35.3 46.7 35.7 46.35 37.25 45.6 38.6 46.0 38.7 47.3 38.3 48.2 L38.25 48.75 35.9 52.05 Q34.85 53.25 33.9 53.6 32.8 54.0 32.35 55.0 M0.0 36.3 L0.0 29.1 Q1.55 28.75 2.65 27.8 L5.8 25.7 6.45 25.25 7.45 24.7 9.3 24.05 Q10.45 23.7 11.2 23.05 11.85 22.55 11.75 21.8 11.7 21.05 12.3 20.55 L13.0 19.8 13.8 19.25 Q14.3 18.75 14.9 18.6 L15.9 18.2 16.6 18.0 16.95 17.95 Q18.35 18.3 19.45 19.45 L20.0 20.2 20.2 23.7 Q20.25 24.75 21.05 25.25 L21.75 25.65 24.9 26.15 26.5 25.9 28.75 24.25 29.7 23.3 31.35 21.1 30.95 23.0 Q30.8 24.4 32.0 24.75 33.05 25.3 32.75 26.8 32.4 28.35 31.3 29.4 30.2 30.4 28.65 30.95 L25.85 31.75 25.4 31.95 24.85 32.2 24.65 32.3 Q23.3 32.8 23.05 33.85 L23.0 34.0 Q22.55 34.4 22.65 34.55 22.3 34.75 22.35 35.35 L18.0 37.4 16.35 37.9 Q14.8 38.05 14.35 36.8 13.05 35.65 13.35 34.15 L13.6 34.0 14.95 32.5 Q15.75 31.3 14.9 30.4 14.45 29.95 13.75 30.0 11.6 29.2 9.5 29.3 8.2 29.35 7.1 30.1 L5.9 30.45 4.85 31.2 Q4.5 31.45 4.1 32.3 L2.9 34.5 Q2.1 35.9 0.0 36.3 M0.0 21.05 L0.0 10.5 Q1.7 9.55 2.0 8.3 L3.65 6.15 6.45 4.3 8.15 3.1 8.9 2.25 9.1 2.1 10.2 1.7 Q11.85 1.4 11.8 2.85 L11.35 3.95 8.5 7.05 6.6 8.4 Q5.85 8.75 5.6 9.45 5.2 11.25 6.2 11.5 L7.1 11.6 8.15 11.6 8.1 12.55 Q8.15 13.15 8.6 13.45 9.4 13.95 10.65 13.9 12.15 13.85 12.45 14.75 12.85 16.0 11.9 16.7 L10.6 17.75 9.55 18.35 Q8.25 18.75 7.1 19.45 L6.6 19.85 Q6.7 19.3 5.95 18.55 L4.35 18.35 Q2.85 18.75 1.05 20.2 L0.0 21.05" fill="#000000" fill-opacity="0.5019608" fill-rule="evenodd" stroke="none"/>
    <path d="M37.15 4.25 L38.45 3.8 41.0 2.8 Q42.2 2.2 43.65 2.3 45.1 2.45 45.2 3.9 L44.4 4.75 43.35 5.65 42.65 6.1 41.95 6.55 Q41.3 6.8 40.6 7.2 L39.0 8.55 37.45 10.15 Q36.95 10.5 36.85 11.35 36.6 13.05 38.45 12.75 L40.35 11.9 41.05 11.7 46.5 11.35 47.7 11.45 Q48.7 11.65 49.55 12.75 49.3 14.55 47.0 15.45 45.75 16.4 44.35 17.0 L43.7 17.4 42.85 17.85 40.35 17.9 38.2 17.7 Q36.1 17.2 33.85 18.45 32.8 18.95 32.25 19.7 L31.35 21.1 29.7 23.3 28.75 24.25 26.5 25.9 24.9 26.15 21.75 25.65 21.05 25.25 Q20.25 24.75 20.2 23.7 L20.0 20.2 19.45 19.45 Q18.35 18.3 16.95 17.95 L18.65 17.35 19.15 16.8 Q20.1 16.1 19.35 15.25 L18.7 14.45 Q16.85 13.0 15.8 11.45 L15.45 10.65 Q15.6 10.25 16.2 9.8 17.3 8.4 18.75 8.45 L20.4 8.6 21.8 9.35 Q22.15 9.35 22.55 9.7 24.1 11.05 26.55 11.75 27.25 11.95 27.7 12.3 28.0 12.55 28.45 12.65 L30.85 12.8 Q31.95 12.85 32.25 12.1 32.25 11.45 31.55 11.4 30.05 10.05 29.15 8.5 L28.7 7.9 32.3 7.6 Q33.95 7.05 34.85 5.7 35.7 4.85 37.15 4.25 M33.7 40.1 Q33.25 40.55 33.1 41.5 31.85 42.25 31.0 42.85 L30.25 43.3 29.35 44.3 28.25 46.05 Q27.9 46.7 27.9 47.45 27.6 48.9 28.7 48.6 L29.5 48.85 28.35 50.25 25.9 52.95 Q25.5 53.25 25.15 53.35 L23.95 53.15 24.25 52.45 24.75 51.8 Q25.45 50.85 25.6 49.8 25.8 48.8 25.15 48.65 24.45 48.45 23.7 49.05 L23.0 49.35 Q20.95 50.1 19.35 51.8 L19.35 51.65 Q19.3 50.9 18.55 50.35 L17.8 49.95 Q16.55 49.75 15.95 50.9 L15.45 51.65 13.5 53.05 8.55 53.45 7.35 53.25 Q6.55 53.35 6.65 52.65 6.75 51.9 7.4 50.95 7.45 50.5 8.2 50.2 8.35 50.0 9.45 49.7 L10.45 49.45 Q11.05 49.5 11.35 49.1 L13.3 46.7 Q13.6 45.85 12.85 45.1 12.05 44.85 11.75 43.65 11.85 42.4 10.9 42.0 L10.25 41.65 Q9.35 41.0 7.95 40.7 L7.6 40.55 6.95 40.6 7.1 40.2 7.65 39.95 8.95 39.25 Q9.45 39.15 9.75 38.75 L9.95 38.55 10.2 38.15 10.5 37.55 Q10.7 37.15 11.0 36.9 L11.25 36.5 Q11.25 36.15 11.55 35.9 L11.7 35.65 13.0 34.5 13.35 34.15 Q13.05 35.65 14.35 36.8 14.8 38.05 16.35 37.9 L18.0 37.4 22.35 35.35 Q22.35 36.45 23.0 37.0 L24.6 38.25 25.65 38.35 24.1 40.0 Q23.15 41.0 22.3 41.15 21.7 41.2 21.3 41.7 20.2 42.65 20.5 43.9 L21.6 44.4 23.8 44.2 24.65 43.65 Q25.15 43.0 26.15 42.55 L27.0 41.9 Q28.25 40.8 29.1 40.5 29.95 39.75 31.05 39.75 L31.8 39.65 Q32.9 39.45 33.7 40.1" fill="#000000" fill-opacity="0.12156863" fill-rule="evenodd" stroke="none"/>
    <path d="M48.8 3.9 Q48.9 3.8 49.05 3.75 L51.05 2.2 51.55 1.4 51.65 0.0 55.0 0.0 55.0 7.8 Q54.65 6.8 53.85 6.65 52.7 6.5 52.2 7.1 L51.05 7.8 Q50.65 8.55 49.8 8.7 L48.8 8.55 47.4 7.15 Q46.9 6.45 47.6 5.45 47.75 4.8 48.25 4.35 48.45 4.1 48.8 3.9 M55.0 8.5 L55.0 10.5 Q54.05 10.1 54.25 9.1 L55.0 8.5 Q54.55 8.15 55.0 7.8 L55.0 8.5 M55.0 50.4 L55.0 55.0 51.65 55.0 Q51.25 52.4 51.65 51.7 52.05 50.95 53.1 50.6 L55.0 50.4 M15.8 55.0 L0.0 55.0 0.0 50.4 Q0.6 50.3 1.35 49.2 1.15 48.6 1.65 48.4 2.25 48.15 2.95 47.4 L4.55 46.05 Q4.85 45.65 5.25 45.4 L6.35 44.55 7.45 43.55 7.9 42.4 8.1 41.25 7.95 40.7 Q9.35 41.0 10.25 41.65 L10.9 42.0 Q11.85 42.4 11.75 43.65 12.05 44.85 12.85 45.1 13.6 45.85 13.3 46.7 L11.35 49.1 Q11.05 49.5 10.45 49.45 L9.45 49.7 Q8.35 50.0 8.2 50.2 7.45 50.5 7.4 50.95 6.75 51.9 6.65 52.65 6.55 53.35 7.35 53.25 L8.55 53.45 13.5 53.05 15.45 51.65 Q15.2 52.35 15.25 53.1 L15.8 55.0 M0.0 10.5 L0.0 0.0 15.8 0.0 15.8 0.95 16.0 3.3 Q16.05 4.5 15.4 5.45 L14.15 6.6 Q13.45 7.35 12.4 7.85 L10.5 8.85 8.95 9.9 Q8.25 10.75 8.15 11.6 L7.1 11.6 6.2 11.5 Q5.2 11.25 5.6 9.45 5.85 8.75 6.6 8.4 L8.5 7.05 11.35 3.95 11.8 2.85 Q11.85 1.4 10.2 1.7 L9.1 2.1 8.9 2.25 8.15 3.1 6.45 4.3 3.65 6.15 2.0 8.3 Q1.7 9.55 0.0 10.5" fill="#000000" fill-opacity="0.7529412" fill-rule="evenodd" stroke="none"/>
    <path d="M51.65 0.0 L51.55 1.4 51.05 2.2 49.05 3.75 Q48.9 3.8 48.8 3.9 L48.7 2.75 Q48.65 2.3 47.85 2.45 47.3 2.55 46.85 2.95 L44.4 4.75 45.2 3.9 Q45.1 2.45 43.65 2.3 42.2 2.2 41.0 2.8 L38.45 3.8 37.15 4.25 37.9 3.1 Q38.1 2.6 37.25 2.4 L35.8 1.85 33.7 1.95 Q32.4 2.05 31.7 1.3 L32.35 0.0 51.65 0.0 M55.0 25.95 L55.0 29.3 Q54.3 29.5 53.35 30.0 52.2 30.6 51.5 31.3 51.2 31.4 51.05 31.6 L50.5 31.2 Q50.1 30.8 50.1 29.9 L50.55 29.15 51.2 28.3 Q51.4 27.8 51.85 27.55 L52.45 27.05 52.75 26.75 53.05 26.5 53.55 26.3 55.0 25.95 M55.0 46.2 L55.0 50.4 53.1 50.6 Q52.05 50.95 51.65 51.7 51.25 52.4 51.65 55.0 L32.35 55.0 Q32.8 54.0 33.9 53.6 34.85 53.25 35.9 52.05 L38.25 48.75 Q38.3 48.95 38.65 48.95 L41.25 49.0 Q41.9 48.95 42.4 48.55 L43.15 48.35 Q43.85 48.5 44.05 47.95 L46.1 46.35 47.15 46.2 49.1 45.75 50.05 45.6 Q51.5 45.3 51.5 46.75 52.35 47.55 53.2 47.05 L55.0 46.2 M19.55 55.0 L15.8 55.0 15.25 53.1 Q15.2 52.35 15.45 51.65 L15.95 50.9 Q16.55 49.75 17.8 49.95 L18.55 50.35 Q19.3 50.9 19.35 51.65 L19.35 51.8 19.5 54.25 19.55 55.0 M0.0 29.1 L0.0 25.8 0.95 25.4 3.05 24.35 5.4 23.2 Q5.9 22.65 6.25 21.35 6.15 20.35 6.6 19.85 L7.1 19.45 Q8.25 18.75 9.55 18.35 L10.6 17.75 11.9 16.7 Q12.85 16.0 12.45 14.75 12.15 13.85 10.65 13.9 9.4 13.95 8.6 13.45 8.15 13.15 8.1 12.55 L8.15 11.6 Q8.25 10.75 8.95 9.9 L10.5 8.85 12.4 7.85 Q13.45 7.35 14.15 6.6 L15.4 5.45 Q16.05 4.5 16.0 3.3 L15.8 0.95 15.8 0.0 19.55 0.0 19.8 1.35 Q19.95 1.95 20.4 2.35 L21.75 3.35 23.65 4.55 24.55 5.05 26.3 6.25 27.35 6.8 28.4 7.65 28.7 7.9 29.15 8.5 Q30.05 10.05 31.55 11.4 32.25 11.45 32.25 12.1 31.95 12.85 30.85 12.8 L28.45 12.65 Q28.0 12.55 27.7 12.3 27.25 11.95 26.55 11.75 24.1 11.05 22.55 9.7 22.15 9.35 21.8 9.35 L20.4 8.6 18.75 8.45 Q17.3 8.4 16.2 9.8 15.6 10.25 15.45 10.65 L15.8 11.45 Q16.85 13.0 18.7 14.45 L19.35 15.25 Q20.1 16.1 19.15 16.8 L18.65 17.35 16.95 17.95 16.6 18.0 15.9 18.2 14.9 18.6 Q14.3 18.75 13.8 19.25 L13.0 19.8 12.3 20.55 Q11.7 21.05 11.75 21.8 11.85 22.55 11.2 23.05 10.45 23.7 9.3 24.05 L7.45 24.7 6.45 25.25 5.8 25.7 2.65 27.8 Q1.55 28.75 0.0 29.1" fill="#010101" fill-opacity="0.0" fill-rule="evenodd" stroke="none"/>
  </g>
</svg>
