<?xml version="1.0" encoding="UTF-8" standalone="no"?>
<svg xmlns:xlink="http://www.w3.org/1999/xlink" height="127.2px" width="367.5px" xmlns="http://www.w3.org/2000/svg">
  <g transform="matrix(1.0, 0.0, 0.0, 1.0, -216.25, -130.05)">
    <path d="M413.2 192.75 Q478.15 176.0 503.35 188.6 518.65 179.25 526.35 167.6 522.65 163.7 516.05 159.8 M439.5 138.75 Q452.4 144.2 463.25 152.6 M360.5 138.75 Q347.6 144.2 336.75 152.6 M391.6 186.55 L381.45 164.9 M408.4 186.55 L418.55 164.9 M405.4 195.25 Q405.6 198.35 400.0 200.3 L400.0 240.05 400.15 240.85 Q401.85 247.2 414.15 245.85 L417.2 245.85 Q457.5 222.25 511.6 209.85 508.45 198.65 503.35 188.6 M386.8 192.75 Q321.85 176.0 296.65 188.6 291.55 198.65 288.45 209.85 342.45 222.25 382.8 245.85 L385.85 245.85 Q398.15 247.2 399.85 240.85 L400.0 240.05 400.0 240.2 400.15 240.85 M399.85 240.85 L400.0 240.2 M417.2 245.85 Q408.3 251.0 400.05 256.75 391.7 251.0 382.8 245.85 M581.75 254.95 Q574.3 227.45 552.7 202.3 L536.0 204.95 Q523.45 207.1 511.6 209.85 M400.0 200.3 Q394.4 198.35 394.6 195.25 M296.65 188.6 Q281.35 179.25 273.65 167.6 277.35 163.7 283.95 159.8 M218.25 254.95 Q225.7 227.45 247.3 202.3 L263.75 204.9 265.15 205.15 285.65 209.2 286.05 209.3 286.55 209.45 287.05 209.55 288.45 209.85" fill="none" stroke="#000000" stroke-linecap="round" stroke-linejoin="round" stroke-opacity="0.5019608" stroke-width="1.0"/>
    <path d="M516.05 159.8 Q486.95 145.7 439.5 138.75 437.4 137.85 435.1 137.05 L429.4 135.15 M424.25 133.75 Q412.1 130.85 400.0 130.55 387.9 130.85 375.75 133.75 M370.6 135.15 L366.1 136.6 Q363.15 137.6 360.5 138.75 313.05 145.7 283.95 159.8 206.75 176.5 218.25 254.95 M516.05 159.8 Q593.25 176.5 581.75 254.95" fill="none" stroke="#000000" stroke-linecap="round" stroke-linejoin="round" stroke-width="1.0"/>
    <path d="M375.75 133.75 L370.6 135.15 M429.4 135.15 L424.25 133.75" fill="none" stroke="#000000" stroke-linecap="round" stroke-linejoin="round" stroke-opacity="0.9019608" stroke-width="1.0"/>
  </g>
</svg>
