<?xml version="1.0" encoding="UTF-8" standalone="no"?>
<svg xmlns:xlink="http://www.w3.org/1999/xlink" height="211.85px" width="362.0px" xmlns="http://www.w3.org/2000/svg">
  <g transform="matrix(1.0, 0.0, 0.0, 1.0, -218.9, -159.8)">
    <path d="M516.05 159.8 Q521.6 161.0 526.7 162.55 534.9 201.55 521.3 237.2 L521.15 237.5 Q514.3 272.25 520.25 302.1 L520.3 302.3 520.35 302.6 528.85 349.75 Q522.8 338.3 512.25 328.9 494.15 312.6 502.2 292.4 503.45 289.35 505.2 286.3 L502.4 282.3 Q494.4 270.6 492.7 258.75 L492.65 258.4 494.1 257.55 Q509.65 246.65 515.7 232.1 513.3 208.25 503.35 188.6 518.65 179.25 526.35 167.6 522.65 163.7 516.05 159.8 M571.25 192.15 Q579.3 223.75 574.05 254.7 L574.0 255.05 572.05 264.55 571.95 264.9 Q588.15 317.8 574.95 368.15 L573.8 371.65 Q563.1 371.0 552.4 368.65 L553.05 366.85 Q559.65 317.15 545.8 278.5 L545.85 278.45 545.9 278.1 Q548.5 264.7 550.1 251.5 L550.15 251.15 Q554.95 211.25 550.3 172.75 563.35 180.65 571.25 192.15 M269.95 189.15 Q270.1 176.7 272.9 162.65 278.15 161.05 283.95 159.8 277.35 163.7 273.65 167.6 281.35 179.25 296.65 188.6 L296.4 189.15 Q286.65 208.6 284.3 232.1 290.35 246.65 305.9 257.55 L307.15 258.3 307.3 258.75 Q305.6 270.65 297.6 282.3 L294.8 286.3 Q296.55 289.35 297.8 292.4 305.85 312.6 287.75 328.9 277.0 338.5 270.9 350.2 L270.8 350.55 279.45 302.6 279.55 302.25 Q285.5 272.35 278.65 237.5 L278.6 237.3 Q269.6 213.85 269.95 189.15 M228.4 192.7 L230.95 189.15 Q238.3 179.7 249.4 172.9 248.4 181.6 247.9 189.15 245.85 219.6 249.7 251.2 L249.7 251.5 Q251.3 264.65 253.9 277.95 L254.0 278.45 254.0 278.5 Q240.15 317.15 246.75 366.85 L247.45 368.75 Q236.75 371.05 226.05 371.65 L224.85 368.15 Q211.65 317.8 227.85 264.9 L227.8 264.7 Q226.65 259.9 225.85 255.05 L225.8 254.75 Q220.5 223.75 228.4 192.7" fill="#000000" fill-rule="evenodd" stroke="none"/>
  </g>
</svg>
