<?xml version="1.0" encoding="UTF-8" standalone="no"?>
<svg xmlns:xlink="http://www.w3.org/1999/xlink" height="212.05px" width="99.75px" xmlns="http://www.w3.org/2000/svg">
  <g transform="matrix(1.0, 0.0, 0.0, 1.0, -207.6, -159.8)">
    <path d="M283.95 159.8 Q277.35 163.7 273.65 167.6 281.35 179.25 296.65 188.6 286.7 208.25 284.3 232.1 290.35 246.65 305.9 257.55 L307.35 258.4 Q305.7 270.45 297.6 282.3 L294.8 286.3 Q296.55 289.35 297.8 292.4 305.85 312.6 287.75 328.9 277.0 338.5 270.9 350.2 269.35 356.25 271.05 361.4 242.7 372.75 214.4 371.75 L213.8 371.35 208.5 323.4 Q204.1 295.2 221.65 272.05 219.4 263.15 218.25 254.95 206.75 176.5 283.95 159.8" fill="#000000" fill-rule="evenodd" stroke="none"/>
  </g>
</svg>
