<?xml version="1.0" encoding="UTF-8" standalone="no"?>
<svg xmlns:xlink="http://www.w3.org/1999/xlink" height="241.3px" width="384.8px" xmlns="http://www.w3.org/2000/svg">
  <g transform="matrix(1.0, 0.0, 0.0, 1.0, -207.6, -130.55)">
    <path d="M366.1 136.6 L370.6 135.15 375.75 133.75 Q387.9 130.85 400.0 130.55 412.1 130.85 424.25 133.75 L429.4 135.15 435.1 137.05 Q437.4 137.85 439.5 138.75 486.95 145.7 516.05 159.8 593.25 176.5 581.75 254.95 580.6 263.15 578.35 272.05 595.9 295.2 591.5 323.4 L586.2 371.35 585.65 371.75 Q569.0 372.35 552.45 368.6 L553.05 366.85 Q559.65 317.15 545.8 278.5 L545.85 278.45 545.9 278.1 Q548.5 264.7 550.1 251.5 L550.15 251.15 Q553.15 226.4 552.5 202.4 L552.5 202.35 Q544.05 203.9 535.9 205.85 526.5 208.1 517.45 210.95 514.85 211.7 512.3 212.6 L508.5 213.85 508.35 213.9 Q488.0 221.05 469.7 231.1 L469.7 231.15 466.1 253.6 466.0 253.95 456.8 317.3 458.2 340.5 Q429.1 345.0 399.95 344.65 370.75 344.95 341.6 340.5 L343.0 317.3 333.8 253.95 333.75 253.65 Q331.75 242.15 330.1 231.1 L330.1 231.05 Q311.7 220.95 291.3 213.8 L287.7 212.6 Q276.1 208.7 263.85 205.8 255.7 203.85 247.3 202.3 L247.3 202.35 Q246.7 226.4 249.7 251.2 L249.7 251.5 Q251.3 264.65 253.9 277.95 L254.0 278.45 254.0 278.5 Q240.15 317.15 246.75 366.85 L247.45 368.75 Q230.9 372.35 214.4 371.75 L213.8 371.35 208.5 323.4 Q204.1 295.2 221.65 272.05 219.4 263.15 218.25 254.95 212.45 215.3 229.3 191.4 245.8 168.05 283.95 159.8 313.05 145.7 360.5 138.75 363.15 137.6 366.1 136.6" fill="#000000" fill-rule="evenodd" stroke="none"/>
  </g>
</svg>
