<?xml version="1.0" encoding="UTF-8" standalone="no"?>
<svg xmlns:xlink="http://www.w3.org/1999/xlink" height="212.05px" width="384.8px" xmlns="http://www.w3.org/2000/svg">
  <g transform="matrix(1.0, 0.0, 0.0, 1.0, -207.6, -159.8)">
    <path d="M516.05 159.8 Q593.25 176.5 581.75 254.95 580.6 263.15 578.35 272.05 595.9 295.2 591.5 323.4 L586.2 371.35 585.65 371.75 Q569.0 372.35 552.45 368.6 L553.05 366.85 Q559.65 317.15 545.8 278.5 L545.85 278.45 545.9 278.1 Q548.5 264.7 550.1 251.5 L550.15 251.15 Q553.15 226.4 552.5 202.4 L552.5 202.35 Q531.5 206.15 512.3 212.6 509.05 199.9 503.35 188.6 518.65 179.25 526.35 167.6 522.65 163.7 516.05 159.8 M283.95 159.8 Q277.35 163.7 273.65 167.6 281.35 179.25 296.65 188.6 290.95 199.9 287.7 212.6 268.4 206.15 247.3 202.3 L247.3 202.35 Q246.7 226.4 249.7 251.2 L249.7 251.5 Q251.3 264.65 253.9 277.95 L254.0 278.45 254.0 278.5 Q240.15 317.15 246.75 366.85 L247.45 368.75 Q230.9 372.35 214.4 371.75 L213.8 371.35 208.5 323.4 Q204.1 295.2 221.65 272.05 219.4 263.15 218.25 254.95 212.45 215.3 229.3 191.4 245.8 168.05 283.95 159.8" fill="#000000" fill-rule="evenodd" stroke="none"/>
  </g>
</svg>
