<?xml version="1.0" encoding="UTF-8" standalone="no"?>
<svg xmlns:xlink="http://www.w3.org/1999/xlink" height="51.45px" width="34.6px" xmlns="http://www.w3.org/2000/svg">
  <g transform="matrix(1.0, 0.0, 0.0, 1.0, -380.35, -172.05)">
    <path d="M399.8 223.0 L389.3 223.0 Q383.7 216.75 380.85 210.1 L382.65 177.0 382.85 176.75 Q385.05 174.15 387.85 172.55" fill="none" stroke="#000000" stroke-linecap="round" stroke-linejoin="round" stroke-width="1.0"/>
    <path d="M387.85 172.55 Q401.15 176.7 414.45 186.3 400.0 183.2 387.3 184.15 400.7 188.55 411.75 195.8 399.8 192.95 387.3 194.5 398.8 198.85 409.9 206.6 399.2 204.15 388.9 204.45 397.85 208.5 405.35 215.1 L392.85 213.7 Q397.5 217.55 399.8 223.0 Z" fill="none" stroke="#000000" stroke-linecap="round" stroke-linejoin="round" stroke-opacity="0.5019608" stroke-width="1.0"/>
  </g>
</svg>
