<?xml version="1.0" encoding="UTF-8" standalone="no"?>
<svg xmlns:xlink="http://www.w3.org/1999/xlink" height="25.8px" width="54.5px" xmlns="http://www.w3.org/2000/svg">
  <g transform="matrix(1.0, 0.0, 0.0, 1.0, -372.6, -139.3)">
    <path d="M373.05 141.75 Q371.95 139.55 373.4 139.3 378.05 145.2 381.0 153.9 383.55 156.65 382.7 165.05 L381.6 165.1 Q378.6 164.8 377.55 160.1 L377.45 159.65 Q377.1 158.0 377.2 156.65 376.35 149.3 373.05 141.75 M426.65 141.75 Q423.35 149.3 422.5 156.65 L422.25 159.65 422.15 160.1 Q421.1 164.8 418.1 165.1 L417.0 165.05 Q416.15 156.65 418.7 153.9 421.65 145.2 426.3 139.3 427.75 139.55 426.65 141.75" fill="#000000" fill-rule="evenodd" stroke="none"/>
  </g>
</svg>
