<?xml version="1.0" encoding="UTF-8" standalone="no"?>
<svg xmlns:xlink="http://www.w3.org/1999/xlink" height="19.7px" width="43.2px" xmlns="http://www.w3.org/2000/svg">
  <g transform="matrix(1.0, 0.0, 0.0, 1.0, -378.3, -98.1)">
    <path d="M419.6 98.1 L420.65 105.8 421.5 112.6 421.5 112.8 421.5 112.85 420.15 113.9 420.05 112.8 418.35 114.9 418.05 115.25 418.05 115.3 417.9 115.5 417.65 115.8 417.6 115.4 Q417.75 114.9 417.25 114.2 L417.0 114.5 416.6 115.3 416.35 115.7 416.0 116.35 415.9 114.7 415.8 114.7 415.45 115.1 413.45 117.8 414.25 114.35 Q415.65 108.0 416.6 104.85 417.8 101.0 419.3 98.25 L419.6 98.1 M380.2 98.1 L380.5 98.25 Q382.0 101.0 383.2 104.85 L385.55 114.35 386.35 117.8 384.35 115.1 384.0 114.7 383.9 114.7 383.8 116.35 383.45 115.7 383.2 115.3 382.8 114.5 382.55 114.2 Q382.05 114.9 382.2 115.4 L382.15 115.8 381.9 115.5 381.75 115.3 381.75 115.25 381.45 114.9 379.75 112.8 379.65 113.9 378.3 112.85 378.3 112.8 378.3 112.6 Q378.65 109.2 379.15 105.8 L380.2 98.1" fill="#000000" fill-rule="evenodd" stroke="none"/>
  </g>
</svg>
