<?xml version="1.0" encoding="UTF-8" standalone="no"?>
<svg xmlns:xlink="http://www.w3.org/1999/xlink" height="463.75px" width="264.0px" xmlns="http://www.w3.org/2000/svg">
  <g transform="matrix(1.0, 0.0, 0.0, 1.0, 132.1, 202.5)">
    <path d="M103.55 -126.1 L104.8 -127.3 Q103.55 -125.45 102.8 -123.8 L102.15 -122.2 Q101.5 -120.25 100.15 -119.05 L99.65 -118.5 98.0 -116.3 97.45 -115.65 95.95 -113.65 Q95.6 -112.9 95.6 -112.6 L95.5 -111.95 95.3 -110.95 95.2 -106.45 Q95.2 -105.45 95.75 -104.6 96.1 -102.8 97.0 -101.7 L98.05 -99.75 98.45 -99.1 98.6 -96.45 Q98.55 -96.0 98.8 -95.9 L99.4 -94.9 Q99.9 -93.85 100.8 -93.05 102.9 -92.6 104.05 -93.35 L105.15 -94.45 106.8 -97.15 Q107.55 -98.4 108.05 -100.15 108.4 -101.35 108.3 -102.6 108.0 -106.35 108.05 -110.15 L108.2 -113.0 108.3 -113.6 109.1 -115.25 Q109.9 -116.7 110.4 -118.5 L110.75 -120.95 110.75 -122.45 110.9 -122.0 111.25 -118.7 111.25 -118.1 111.45 -114.85 Q111.55 -112.6 110.95 -110.55 110.7 -109.7 110.7 -108.5 L110.85 -104.85 111.05 -104.05 111.6 -103.2 Q112.15 -101.95 112.3 -100.55 L112.4 -99.75 112.45 -92.4 Q112.45 -91.65 113.2 -91.7 L113.8 -91.8 Q114.5 -91.9 114.85 -92.6 L116.15 -94.15 116.4 -95.25 116.75 -96.1 117.0 -96.85 117.35 -98.75 Q117.3 -101.8 118.1 -104.0 L118.35 -104.6 118.4 -102.8 118.5 -94.85 118.55 -92.4 118.65 -91.55 118.8 -89.5 Q118.9 -88.45 118.4 -87.65 118.05 -85.1 116.95 -83.15 L115.8 -80.95 Q114.95 -79.95 114.45 -78.9 L114.15 -78.3 113.9 -77.65 113.65 -77.05 112.85 -74.9 112.6 -74.35 112.1 -73.0 111.65 -71.9 111.05 -70.55 110.85 -69.7 110.75 -68.9 110.65 -64.6 108.4 -60.8 108.0 -60.2 107.65 -58.7 Q107.3 -55.0 107.4 -51.15 L107.5 -49.1 107.8 -46.65 107.9 -45.65 108.0 -45.0 108.25 -43.2 Q108.45 -42.1 108.8 -41.3 L109.15 -40.35 109.4 -39.1 109.55 -38.3 Q109.7 -37.7 110.15 -37.3 L110.75 -36.85 111.7 -36.0 Q112.2 -35.6 112.8 -35.3 L113.4 -35.05 114.05 -34.95 Q115.6 -36.25 115.5 -38.3 L115.65 -41.75 Q116.95 -43.25 118.7 -44.2 L119.4 -44.7 120.2 -45.35 120.95 -45.9 121.45 -46.3 121.95 -47.05 Q123.5 -48.4 123.55 -50.75 L123.7 -57.5 Q123.7 -58.3 124.0 -59.1 L125.2 -62.6 125.7 -59.5 125.8 -58.5 126.35 -52.75 Q126.35 -52.25 126.5 -51.75 L127.15 -48.05 127.2 -47.45 Q127.4 -45.55 126.7 -43.85 L126.15 -42.7 125.75 -41.8 125.45 -41.15 Q124.45 -39.45 123.15 -37.9 L122.6 -37.2 120.35 -35.15 119.65 -34.45 Q118.55 -33.15 117.9 -31.75 117.3 -30.2 117.4 -28.9 L117.55 -26.85 117.65 -26.25 118.35 -24.4 119.75 -20.95 120.05 -20.3 Q121.05 -18.45 121.5 -16.65 122.0 -14.5 121.6 -12.55 L121.5 -11.75 121.15 -10.1 120.25 -7.9 Q119.9 -7.15 119.85 -6.25 L119.7 -4.8 Q119.5 -2.85 120.55 -1.35 121.6 -0.15 121.65 1.1 L121.7 2.15 121.8 4.6 Q121.8 4.95 122.35 4.8 L123.75 4.3 126.3 1.4 127.95 -0.65 129.75 -2.9 130.7 -4.05 131.9 -5.9 Q131.5 -4.95 131.25 -3.85 L130.8 -2.35 130.55 -1.55 130.25 -0.6 129.85 0.3 129.75 3.35 Q129.8 4.8 129.5 5.8 L128.75 8.05 Q128.4 9.15 127.4 10.3 L126.95 10.95 126.65 11.5 Q125.85 12.05 125.3 13.1 L124.8 13.8 Q123.2 15.4 121.95 17.65 L121.25 18.45 Q120.35 19.0 120.05 19.7 L119.5 20.5 Q118.95 20.7 119.0 21.15 L119.0 21.75 118.65 22.85 118.3 23.6 Q117.95 24.85 118.0 26.25 117.55 26.8 117.45 27.65 L117.3 28.25 Q116.7 29.35 116.6 30.7 L116.4 31.35 Q115.45 33.4 116.8 35.25 L117.75 37.0 118.05 37.7 119.2 40.55 119.35 41.15 119.75 41.7 Q120.45 42.25 121.35 42.5 122.05 42.65 122.25 42.2 L124.5 39.75 Q126.15 38.3 127.1 36.65 L128.5 35.15 Q128.55 36.8 128.0 38.3 127.55 39.35 127.5 40.5 L127.3 41.5 126.75 42.9 126.25 43.75 125.4 44.7 Q123.1 46.95 121.15 49.25 119.25 51.5 117.05 53.3 116.45 53.8 116.3 54.35 L115.4 57.2 114.95 58.05 Q114.1 59.35 114.1 60.9 114.1 61.8 113.75 62.5 113.35 63.2 113.3 63.95 L111.2 65.85 110.7 66.35 Q109.55 67.2 109.05 67.8 107.35 69.05 106.9 70.9 L106.65 71.7 106.05 73.55 Q105.9 74.0 105.9 74.55 105.85 75.35 106.85 75.25 L108.65 75.05 109.5 74.8 110.4 74.45 110.95 74.15 Q111.15 75.05 110.3 76.0 109.85 76.5 109.55 77.25 L108.7 78.85 107.1 80.55 106.6 81.05 104.8 82.75 Q103.75 83.7 102.15 83.75 L101.35 83.75 Q100.95 83.8 100.65 84.05 L100.15 84.4 99.7 84.8 96.3 87.75 94.35 89.85 93.0 91.15 91.55 92.15 90.95 92.5 Q90.25 92.7 89.7 93.15 L88.7 93.45 84.8 94.05 Q82.8 94.0 81.6 93.1 80.85 92.55 79.95 92.25 L79.25 92.0 77.85 91.3 77.25 91.0 75.0 91.3 74.0 91.85 73.55 92.3 Q73.35 92.65 72.95 92.65 72.15 93.45 71.15 93.4 L69.7 93.35 Q69.2 93.3 68.95 93.05 68.75 92.85 68.45 92.75 L66.55 91.6 65.95 91.15 63.2 88.6 Q62.2 86.95 61.9 85.4 L61.7 84.8 Q61.3 83.75 61.2 82.55 L61.05 80.3 60.75 79.45 60.15 78.2 59.25 77.05 Q57.75 75.55 57.5 73.35 L57.4 73.05 Q56.85 77.05 56.85 80.95 L57.0 87.05 57.25 88.3 58.6 92.2 Q59.0 93.25 58.95 94.4 L58.75 97.05 58.4 98.5 Q57.1 102.2 57.55 106.25 L57.95 107.7 58.4 108.5 59.25 109.55 59.75 110.05 Q60.55 111.0 61.2 110.15 62.2 109.0 62.8 107.7 L63.25 106.6 65.25 102.35 67.45 97.45 67.2 98.3 66.6 99.9 66.5 107.05 Q66.6 110.1 66.25 113.0 L65.7 114.95 65.5 115.5 64.7 116.75 64.35 117.25 62.75 120.55 Q62.4 121.25 62.55 122.15 62.7 123.45 62.45 124.6 L62.35 125.45 62.45 128.9 62.35 130.35 61.0 132.85 Q60.25 134.5 60.5 136.05 L60.65 137.05 Q60.75 137.65 61.15 137.7 L62.0 138.9 Q63.65 142.15 63.35 145.85 63.2 147.7 62.3 149.25 L60.3 152.55 59.85 153.45 59.6 154.15 58.9 156.05 Q58.1 157.8 58.35 159.7 L59.45 161.9 59.85 163.0 Q61.45 166.6 61.2 170.55 L61.0 172.15 60.8 173.2 60.65 174.0 Q60.3 176.65 60.3 179.3 L60.4 180.95 Q61.05 182.3 61.9 183.05 L63.85 184.95 Q64.9 184.8 65.4 184.0 L66.1 183.05 66.7 182.4 Q67.05 182.05 67.6 182.25 L68.45 182.8 70.0 182.75 71.85 180.1 72.15 179.5 73.6 176.05 74.0 174.8 Q74.45 172.95 75.6 171.55 L74.75 175.25 73.25 182.4 73.0 184.6 72.8 185.6 72.5 186.7 72.25 187.7 Q72.0 189.2 72.05 190.95 L72.2 194.6 72.3 198.1 72.5 200.75 72.8 201.75 74.3 204.9 74.95 206.3 75.3 208.1 Q75.3 209.25 74.9 209.9 74.15 211.25 74.35 213.4 L74.5 214.2 74.75 215.45 74.8 216.45 Q74.8 218.2 75.4 219.75 L76.1 220.9 76.4 221.4 77.5 223.8 Q77.85 224.75 78.4 225.15 L79.0 225.9 79.9 227.05 80.8 228.0 Q82.0 227.4 82.1 226.65 L82.2 226.05 82.45 222.35 82.55 220.1 82.6 216.85 Q82.65 216.0 83.05 215.15 L83.45 214.2 84.1 211.15 83.95 217.65 Q83.8 219.9 84.7 221.8 L86.1 225.5 86.65 227.25 Q86.85 228.15 87.25 228.5 L87.65 229.3 Q88.75 231.85 89.05 234.2 89.25 235.8 88.65 236.65 88.2 237.3 87.95 238.3 87.45 240.4 87.55 242.8 L87.7 246.05 Q87.8 249.1 87.0 251.95 86.6 253.3 85.2 254.2 L82.2 257.1 81.15 258.7 Q80.25 259.4 79.95 260.5 L79.5 260.95 Q79.3 261.3 78.5 261.25 L77.05 261.15 69.3 261.15 60.5 261.15 59.1 261.05 57.1 259.65 55.75 258.35 55.05 257.85 54.15 257.35 53.35 257.0 50.9 256.05 48.85 254.65 Q47.35 253.75 46.7 252.15 46.35 251.3 45.45 251.05 L44.8 250.8 40.5 248.7 39.5 248.4 38.7 248.2 36.25 247.15 35.0 246.6 Q33.6 246.1 32.35 245.45 29.55 244.0 27.05 242.15 L36.4 242.45 38.85 242.95 39.5 243.05 Q40.5 243.25 40.85 242.35 41.35 240.9 41.3 239.3 L41.25 237.7 Q41.2 237.1 40.75 236.95 L39.35 236.2 Q38.7 235.8 37.9 235.55 L36.6 235.1 35.8 234.95 Q35.05 234.85 34.4 234.55 33.15 234.0 32.4 233.15 32.05 232.7 32.15 232.15 32.25 231.3 31.85 230.6 30.15 229.2 28.45 228.5 L24.95 226.9 Q23.0 225.95 21.45 224.45 L19.65 222.85 17.9 221.3 16.35 219.55 16.05 219.05 15.8 218.5 16.5 218.55 17.2 219.0 18.05 219.5 Q19.8 221.0 21.9 221.9 L23.2 222.45 Q24.05 222.9 25.2 222.95 L25.85 223.15 Q29.15 223.75 31.95 223.05 32.35 222.95 32.2 222.35 L32.15 221.55 Q32.05 219.8 30.75 218.45 L29.1 216.45 28.75 215.8 Q28.1 214.65 28.2 213.2 L28.35 211.15 29.05 209.45 Q29.35 207.6 28.5 206.4 L28.2 205.85 27.85 205.2 26.6 203.65 26.0 203.25 25.55 202.75 25.1 202.2 24.35 201.55 22.45 199.4 21.8 198.45 Q20.55 196.3 20.85 193.6 20.95 192.55 20.45 191.6 L19.1 189.3 15.9 183.95 15.5 183.2 Q14.45 180.95 13.65 178.45 L13.45 177.65 Q12.95 175.35 12.95 173.15 13.8 175.05 15.3 176.9 L15.65 177.45 16.15 178.25 19.1 182.3 19.7 183.15 21.05 185.05 21.4 185.55 22.05 186.5 23.2 187.8 23.75 188.2 24.4 188.3 26.85 188.2 28.9 186.3 Q29.3 185.85 29.05 184.8 L28.55 184.15 27.3 182.3 26.0 180.5 Q26.4 179.95 26.3 178.9 L26.15 177.1 26.0 176.25 24.65 170.55 Q24.45 169.75 23.7 169.2 L23.25 168.8 22.55 168.1 20.95 166.4 20.15 165.75 Q19.1 164.45 18.75 163.25 18.5 162.35 18.6 160.95 L18.75 159.75 18.85 157.5 18.6 156.6 18.35 156.05 Q18.2 155.35 17.7 154.8 L16.95 153.7 16.15 153.05 14.5 150.9 14.05 149.35 13.9 148.5 Q13.8 147.25 14.1 146.25 L14.5 145.4 14.75 144.65 15.15 141.15 15.1 139.55 14.65 138.25 14.35 137.5 12.95 133.6 11.9 129.95 11.75 129.3 Q11.35 127.95 11.35 126.45 L11.15 124.4 11.1 123.4 11.1 119.1 Q12.15 121.25 12.6 123.6 L12.75 124.2 Q13.1 125.7 14.15 126.65 L14.9 127.65 15.6 127.5 Q16.65 126.6 16.45 124.85 L16.35 123.6 15.75 121.2 15.45 120.5 15.15 119.75 14.4 117.9 Q14.15 117.2 14.05 116.25 L13.85 114.2 13.65 113.45 Q11.35 111.1 10.0 108.55 9.75 108.05 9.8 107.5 9.85 106.9 9.55 106.45 9.15 105.8 9.15 105.05 L9.05 104.2 Q8.9 103.25 9.25 102.8 9.8 103.8 10.85 104.7 L11.35 105.25 12.35 106.25 12.8 105.6 13.2 104.2 13.55 101.75 Q13.6 100.05 12.45 98.8 11.8 98.1 11.4 97.2 L11.0 96.5 10.55 95.6 9.25 93.4 8.9 92.7 Q7.85 88.5 8.4 84.6 L8.45 83.8 8.35 80.5 8.25 79.9 Q8.05 78.7 7.35 77.8 L7.0 77.3 6.65 76.65 5.45 74.95 Q3.95 73.3 3.55 71.15 L2.65 67.8 2.2 67.0 1.25 66.1 -0.1 65.3 -1.45 66.1 -2.4 67.0 -2.85 67.8 -3.75 71.15 Q-4.15 73.3 -5.65 74.95 L-6.85 76.65 -7.2 77.3 -7.55 77.8 Q-8.25 78.7 -8.45 79.9 L-8.55 80.5 -8.65 83.8 -8.6 84.6 Q-8.05 88.5 -9.1 92.7 L-9.45 93.4 -10.75 95.6 -11.2 96.5 -11.6 97.2 Q-12.0 98.1 -12.65 98.8 -13.8 100.05 -13.75 101.75 L-13.4 104.2 -13.0 105.6 -12.55 106.25 -11.55 105.25 -11.05 104.7 -9.45 102.8 Q-9.1 103.25 -9.25 104.2 L-9.35 105.05 Q-9.35 105.8 -9.75 106.45 -10.05 106.9 -10.0 107.5 -9.95 108.05 -10.2 108.55 -11.55 111.1 -13.85 113.45 L-14.05 114.2 -14.25 116.25 Q-14.35 117.2 -14.6 117.9 L-15.35 119.75 -15.65 120.5 -15.95 121.2 -16.55 123.6 -16.65 124.85 Q-16.85 126.6 -15.8 127.5 L-15.1 127.65 -14.35 126.65 Q-13.3 125.7 -12.95 124.2 L-12.8 123.6 Q-12.35 121.25 -11.3 119.1 L-11.3 123.4 -11.35 124.4 -11.55 126.45 Q-11.55 127.95 -11.95 129.3 L-12.1 129.95 -13.15 133.6 -14.55 137.5 -14.85 138.25 -15.3 139.55 -15.35 141.15 -14.95 144.65 -14.7 145.4 -14.3 146.25 Q-14.0 147.25 -14.1 148.5 L-14.25 149.35 -14.7 150.9 -16.35 153.05 -17.15 153.7 -17.9 154.8 Q-18.4 155.35 -18.55 156.05 L-18.8 156.6 -19.05 157.5 -18.95 159.75 -18.8 160.95 Q-18.7 162.35 -18.95 163.25 -19.3 164.45 -20.35 165.75 L-21.15 166.4 -22.75 168.1 -23.45 168.8 -23.9 169.2 Q-24.65 169.75 -24.85 170.55 L-26.2 176.25 -26.35 177.1 -26.5 178.9 Q-26.6 179.95 -26.2 180.5 L-27.5 182.3 -28.75 184.15 -29.25 184.8 Q-29.5 185.85 -29.1 186.3 L-27.05 188.2 -24.6 188.3 -23.95 188.2 -23.4 187.8 -22.25 186.5 -21.6 185.55 -21.25 185.05 -19.9 183.15 -19.3 182.3 -16.35 178.25 -15.85 177.45 -15.5 176.9 Q-14.0 175.05 -13.15 173.15 -13.15 175.35 -13.65 177.65 L-13.85 178.45 Q-14.65 180.95 -15.7 183.2 L-16.1 183.95 -19.3 189.3 -20.65 191.6 Q-21.15 192.55 -21.05 193.6 -20.75 196.3 -22.0 198.45 L-22.65 199.4 -24.55 201.55 -25.3 202.2 -25.75 202.75 -26.2 203.25 Q-26.5 203.4 -26.8 203.65 L-28.05 205.2 -28.4 205.85 -28.7 206.4 Q-29.55 207.6 -29.25 209.45 L-28.55 211.15 -28.4 213.2 Q-28.3 214.65 -28.95 215.8 L-29.3 216.45 -30.95 218.45 Q-32.25 219.8 -32.35 221.55 L-32.4 222.35 Q-32.55 222.95 -32.15 223.05 -29.35 223.75 -26.05 223.15 L-25.4 222.95 Q-24.25 222.9 -23.4 222.45 L-22.1 221.9 Q-20.0 221.0 -18.25 219.5 L-17.4 219.0 -16.7 218.55 -16.0 218.5 -16.25 219.05 -16.55 219.55 -18.1 221.3 -19.85 222.85 -21.65 224.45 Q-23.2 225.95 -25.15 226.9 L-28.65 228.5 Q-30.35 229.2 -32.05 230.6 -32.45 231.3 -32.35 232.15 -32.25 232.7 -32.6 233.15 L-34.6 234.55 Q-35.25 234.85 -36.0 234.95 L-36.8 235.1 -38.1 235.55 Q-38.9 235.8 -39.55 236.2 L-40.95 236.95 Q-41.4 237.1 -41.45 237.7 L-41.5 239.3 Q-41.55 240.9 -41.05 242.35 -40.7 243.25 -39.7 243.05 L-39.05 242.95 -36.6 242.45 -27.25 242.15 Q-29.75 244.0 -32.55 245.45 -33.8 246.1 -35.2 246.6 L-36.45 247.15 Q-37.45 247.5 -38.9 248.2 L-39.7 248.4 -40.7 248.7 -45.0 250.8 -45.65 251.05 Q-46.55 251.3 -46.9 252.15 -47.55 253.75 -49.05 254.65 L-51.1 256.05 -53.55 257.0 -54.35 257.35 -55.25 257.85 -55.95 258.35 -57.3 259.65 -59.3 261.05 -60.7 261.15 -69.5 261.15 -77.25 261.15 -78.7 261.25 Q-79.5 261.3 -79.7 260.95 L-80.15 260.5 Q-80.45 259.4 -81.35 258.7 L-82.4 257.1 -85.4 254.2 Q-86.8 253.3 -87.2 251.95 -88.0 249.1 -87.9 246.05 L-87.75 242.8 Q-87.65 240.4 -88.15 238.3 -88.4 237.3 -88.85 236.65 -89.45 235.8 -89.25 234.2 -88.95 231.85 -87.85 229.3 L-87.45 228.5 Q-87.05 228.15 -86.85 227.25 L-86.3 225.5 -84.9 221.8 Q-84.0 219.9 -84.15 217.65 L-84.3 211.15 -83.65 214.2 -83.25 215.15 Q-82.85 216.0 -82.8 216.85 L-82.75 220.1 -82.65 222.35 -82.4 226.05 -82.3 226.65 Q-82.2 227.4 -81.0 228.0 L-80.1 227.05 -79.2 225.9 -78.6 225.15 Q-78.05 224.75 -77.7 223.8 L-76.6 221.4 -76.3 220.9 -75.6 219.75 Q-75.0 218.2 -75.0 216.45 L-74.95 215.45 -74.7 214.2 -74.55 213.4 Q-74.35 211.25 -75.1 209.9 -75.5 209.25 -75.5 208.1 L-75.15 206.3 -74.5 204.9 -73.0 201.75 -72.7 200.75 -72.5 198.1 -72.4 194.6 -72.25 190.95 Q-72.2 189.2 -72.45 187.7 L-72.7 186.7 -73.0 185.6 -73.2 184.6 -73.45 182.4 -74.95 175.25 -75.8 171.55 Q-74.65 172.95 -74.2 174.8 L-73.8 176.05 -72.35 179.5 -72.05 180.1 -70.2 182.75 -68.65 182.8 Q-68.3 182.4 -67.8 182.25 -67.25 182.05 -66.9 182.4 L-66.3 183.05 -65.6 184.0 Q-65.1 184.8 -64.05 184.95 L-62.1 183.05 Q-61.25 182.3 -60.6 180.95 L-60.5 179.3 Q-60.5 176.65 -60.85 174.0 L-61.0 173.2 -61.2 172.15 -61.4 170.55 Q-61.65 166.6 -60.05 163.0 L-59.65 161.9 -58.55 159.7 Q-58.3 157.8 -59.1 156.05 L-59.8 154.15 -60.05 153.45 -60.5 152.55 -62.5 149.25 Q-63.4 147.7 -63.55 145.85 -63.85 142.15 -62.2 138.9 L-61.35 137.7 Q-60.95 137.65 -60.85 137.05 L-60.7 136.05 Q-60.45 134.5 -61.2 132.85 L-62.55 130.35 -62.65 128.9 -62.55 125.45 -62.65 124.6 Q-62.9 123.45 -62.75 122.15 -62.6 121.25 -62.95 120.55 L-64.55 117.25 -64.9 116.75 -65.7 115.5 -65.9 114.95 -66.45 113.0 Q-66.8 110.1 -66.7 107.05 L-66.8 99.9 -66.95 99.55 -67.4 98.3 -67.65 97.45 -66.8 99.55 -65.45 102.35 -63.45 106.6 -63.0 107.7 Q-62.4 109.0 -61.4 110.15 -60.75 111.0 -59.95 110.05 L-59.45 109.55 -58.6 108.5 -58.15 107.7 -57.75 106.25 Q-57.35 102.75 -58.25 99.55 L-58.6 98.5 -58.95 97.05 -59.15 94.4 Q-59.2 93.25 -58.8 92.2 L-57.45 88.3 -57.2 87.05 Q-57.05 84.0 -57.05 80.95 -57.05 77.05 -57.6 73.05 L-57.7 73.35 Q-57.95 75.55 -59.45 77.05 L-60.35 78.2 -60.95 79.45 -61.25 80.3 -61.4 82.55 Q-61.5 83.75 -61.9 84.8 L-62.1 85.4 Q-62.4 86.95 -63.4 88.6 L-66.15 91.15 -66.75 91.6 Q-67.6 92.35 -68.65 92.75 L-69.15 93.05 Q-69.4 93.3 -69.9 93.35 L-71.35 93.4 Q-72.35 93.45 -73.15 92.65 -73.55 92.65 -73.75 92.3 L-74.2 91.85 -75.2 91.3 Q-76.2 90.75 -77.45 91.0 L-78.05 91.3 -79.45 92.0 -80.15 92.25 Q-81.05 92.55 -81.8 93.1 -83.0 94.0 -85.0 94.05 L-88.9 93.45 Q-89.5 93.45 -89.9 93.15 -90.45 92.7 -91.15 92.5 L-91.75 92.15 -93.2 91.15 -94.55 89.85 -96.5 87.75 -99.9 84.8 -100.35 84.4 -100.85 84.05 -101.55 83.75 -102.35 83.75 Q-103.95 83.7 -105.0 82.75 L-106.8 81.05 -107.3 80.55 -108.9 78.85 -109.75 77.25 Q-110.05 76.5 -110.5 76.0 -111.35 75.05 -111.15 74.15 L-110.6 74.45 Q-110.2 74.8 -109.7 74.8 L-108.85 75.05 -107.05 75.25 Q-106.05 75.35 -106.1 74.55 -106.1 74.0 -106.25 73.55 L-106.85 71.7 -107.1 70.9 Q-107.55 69.05 -109.25 67.8 L-110.9 66.35 -111.4 65.85 -113.5 63.95 Q-113.55 63.2 -113.95 62.5 -114.3 61.8 -114.3 60.9 -114.3 59.35 -115.15 58.05 L-115.6 57.2 -116.5 54.35 Q-116.65 53.8 -117.25 53.3 -119.45 51.5 -121.35 49.25 L-125.6 44.7 -126.45 43.75 -126.95 42.9 -127.5 41.5 -127.7 40.5 Q-127.75 39.35 -128.2 38.3 -128.75 36.8 -128.7 35.15 L-127.3 36.65 Q-126.35 38.3 -124.7 39.75 L-122.45 42.2 Q-122.25 42.65 -121.55 42.5 -120.65 42.25 -119.95 41.7 L-119.55 41.15 -119.4 40.55 -118.25 37.7 -117.95 37.0 -117.0 35.25 Q-115.65 33.4 -116.6 31.35 L-116.8 30.7 Q-116.9 29.35 -117.5 28.25 L-117.65 27.65 Q-117.75 26.8 -118.2 26.25 -118.15 24.85 -118.5 23.6 -118.6 23.2 -118.85 22.85 L-119.2 21.75 -119.2 21.15 Q-119.15 20.7 -119.7 20.5 L-120.25 19.7 Q-120.55 19.0 -121.45 18.45 L-122.15 17.65 Q-123.4 15.4 -125.0 13.8 L-125.5 13.1 Q-126.05 12.05 -126.85 11.5 L-127.15 10.95 -127.6 10.3 Q-128.6 9.15 -128.95 8.05 L-129.7 5.8 Q-130.0 4.8 -129.95 3.35 L-130.05 0.3 -130.45 -0.6 -130.75 -1.55 -131.0 -2.35 -131.45 -3.85 -132.1 -5.9 -130.9 -4.05 -129.95 -2.9 -128.15 -0.65 -126.5 1.4 -123.95 4.3 -122.55 4.8 Q-122.0 4.95 -122.0 4.6 L-121.9 2.15 -121.85 1.1 Q-121.8 -0.15 -120.75 -1.35 -119.7 -2.85 -119.9 -4.8 L-120.05 -6.25 Q-120.1 -7.15 -120.45 -7.9 L-121.35 -10.1 -121.7 -11.75 -121.8 -12.55 Q-122.2 -14.5 -121.7 -16.65 -121.25 -18.45 -120.25 -20.3 L-119.95 -20.95 -118.55 -24.4 -117.85 -26.25 -117.75 -26.85 -117.6 -28.9 Q-117.5 -30.2 -118.1 -31.75 -118.75 -33.15 -119.85 -34.45 L-120.55 -35.15 -122.8 -37.2 -123.35 -37.9 -125.65 -41.15 -125.95 -41.8 -126.35 -42.7 -126.9 -43.85 Q-127.6 -45.55 -127.4 -47.45 L-127.35 -48.05 -126.7 -51.75 -126.55 -52.75 -126.0 -58.5 -125.9 -59.5 -125.4 -62.6 -124.2 -59.1 Q-123.9 -58.3 -123.9 -57.5 L-123.75 -50.75 Q-123.7 -48.4 -122.15 -47.05 L-121.65 -46.3 -121.15 -45.9 -120.4 -45.35 -119.6 -44.7 -118.9 -44.2 Q-117.15 -43.25 -115.85 -41.75 L-115.7 -38.3 Q-115.8 -36.25 -114.25 -34.95 L-113.6 -35.05 -113.0 -35.3 -111.9 -36.0 -110.95 -36.85 -110.35 -37.3 Q-109.9 -37.7 -109.75 -38.3 L-109.6 -39.1 -109.35 -40.35 -109.0 -41.3 Q-108.65 -42.1 -108.45 -43.2 L-108.2 -45.0 -108.1 -45.65 -108.0 -46.65 -107.7 -49.1 -107.6 -51.15 Q-107.5 -55.0 -107.85 -58.7 L-108.2 -60.2 -108.6 -60.8 -110.85 -64.6 -110.85 -65.45 -110.95 -68.9 -111.05 -69.7 -111.25 -70.55 -111.85 -71.9 -112.3 -73.0 -112.8 -74.35 -113.05 -74.9 -113.85 -77.05 -114.1 -77.65 -114.35 -78.3 -114.65 -78.9 -116.0 -80.95 -117.15 -83.15 Q-118.25 -85.1 -118.6 -87.65 -119.1 -88.45 -119.0 -89.5 L-118.85 -91.55 -118.75 -92.4 -118.7 -94.85 -118.6 -102.8 -118.55 -104.6 -118.3 -104.0 Q-117.5 -101.8 -117.55 -98.75 -117.3 -97.8 -117.2 -96.85 L-116.95 -96.1 -116.6 -95.25 -116.35 -94.15 -115.05 -92.6 Q-114.7 -91.9 -114.0 -91.8 L-113.4 -91.7 Q-112.65 -91.65 -112.65 -92.4 L-112.6 -99.75 -112.5 -100.55 Q-112.35 -101.95 -111.8 -103.2 L-111.25 -104.05 -111.05 -104.85 -110.9 -108.5 Q-110.9 -109.7 -111.15 -110.55 -111.75 -112.6 -111.65 -114.85 L-111.45 -118.1 -111.45 -118.7 -111.1 -122.0 -110.95 -122.45 -110.95 -120.95 -110.6 -118.5 Q-110.1 -116.7 -109.3 -115.25 L-108.5 -113.6 -108.4 -113.0 -108.25 -110.15 Q-108.2 -106.35 -108.5 -102.6 -108.6 -101.35 -108.25 -100.15 -107.75 -98.4 -107.0 -97.15 L-105.35 -94.45 -104.25 -93.35 Q-103.1 -92.6 -101.0 -93.05 -100.1 -93.85 -99.6 -94.9 L-99.0 -95.9 Q-98.75 -96.0 -98.8 -96.45 -98.95 -97.85 -98.65 -99.1 L-98.25 -99.75 -97.2 -101.7 Q-96.3 -102.8 -95.95 -104.6 -95.4 -105.45 -95.4 -106.45 L-95.5 -110.95 -95.7 -111.95 -95.8 -112.6 Q-95.8 -112.9 -96.15 -113.65 L-97.65 -115.65 -98.2 -116.3 -99.85 -118.5 -100.35 -119.05 Q-101.7 -120.25 -102.35 -122.2 -102.6 -123.0 -103.0 -123.8 -103.75 -125.45 -105.0 -127.3 L-103.75 -126.1 -102.9 -125.3 -101.1 -123.45 -100.35 -122.75 -99.05 -121.6 Q-98.4 -121.2 -97.45 -121.25 L-93.35 -121.3 Q-92.05 -121.25 -91.0 -120.5 L-90.3 -120.0 -87.5 -117.65 Q-86.3 -116.45 -84.6 -116.3 L-84.1 -116.95 Q-83.85 -117.25 -83.75 -117.7 -83.5 -118.65 -83.9 -119.35 L-83.65 -119.1 -83.0 -118.45 -81.3 -117.1 -80.1 -116.1 Q-79.25 -115.3 -78.45 -114.8 L-77.4 -113.9 Q-75.9 -112.35 -74.2 -111.35 L-73.6 -110.9 Q-72.8 -109.95 -71.35 -110.65 L-69.7 -111.2 -68.9 -111.5 Q-68.05 -112.05 -67.05 -112.0 L-65.4 -112.1 Q-65.0 -112.1 -64.85 -112.4 L-64.0 -113.65 -63.45 -114.35 Q-62.9 -114.85 -62.4 -115.7 L-62.05 -116.2 Q-61.3 -116.85 -60.9 -118.1 L-60.6 -119.95 -60.25 -122.8 -60.15 -127.1 Q-60.1 -128.25 -60.55 -129.3 L-61.05 -130.35 -62.55 -133.65 -62.85 -134.45 -63.1 -135.2 -63.3 -136.7 Q-63.25 -138.15 -63.6 -139.55 L-63.6 -140.95 -62.55 -139.75 -59.85 -136.15 -59.35 -135.6 -58.75 -134.95 -57.5 -133.6 -55.55 -131.15 -55.0 -130.35 Q-54.1 -129.65 -54.15 -128.3 L-54.25 -124.25 Q-54.3 -123.4 -53.85 -122.45 L-52.95 -121.2 Q-51.55 -119.55 -49.05 -118.85 L-47.85 -118.55 -46.0 -118.2 -45.4 -118.15 Q-43.9 -117.9 -42.55 -118.7 L-39.1 -121.45 -38.3 -122.25 Q-37.15 -123.8 -37.5 -126.3 -37.95 -127.5 -37.75 -128.95 -37.55 -130.6 -37.75 -132.4 L-37.85 -135.65 -37.95 -136.5 -39.35 -142.2 -38.05 -138.1 -37.55 -137.4 -36.05 -135.65 -35.75 -135.1 Q-34.9 -133.75 -34.5 -131.3 L-34.45 -131.0 -34.2 -128.7 Q-34.0 -128.45 -34.05 -127.9 -34.3 -125.95 -33.5 -123.9 L-32.55 -122.8 -31.55 -121.75 Q-31.2 -121.4 -30.7 -121.35 -29.5 -121.2 -28.45 -121.95 L-26.8 -122.95 -26.3 -123.5 Q-25.95 -123.8 -25.95 -124.45 L-25.9 -127.9 Q-25.85 -129.95 -26.5 -132.15 -27.0 -133.25 -28.05 -134.25 L-29.05 -136.1 Q-29.8 -136.8 -30.1 -137.7 L-30.6 -139.0 -30.95 -139.7 -31.4 -140.6 -32.0 -141.3 -32.45 -142.6 -32.45 -145.4 Q-31.9 -146.55 -31.6 -147.9 L-31.2 -148.9 -30.25 -150.7 Q-29.65 -151.15 -29.65 -152.0 L-29.85 -160.35 -30.55 -162.55 -31.3 -164.05 -31.6 -164.8 -32.4 -166.9 Q-32.6 -168.65 -33.55 -170.15 L-32.55 -168.95 -31.3 -167.9 -30.15 -166.7 -29.6 -166.2 -28.6 -165.1 -28.05 -164.45 Q-27.5 -163.35 -27.3 -162.2 L-27.1 -161.2 Q-26.85 -159.85 -25.85 -158.7 L-25.35 -157.95 Q-24.95 -157.55 -24.0 -157.25 -23.1 -156.85 -22.4 -157.55 -21.55 -158.3 -20.9 -159.75 -19.85 -162.0 -20.4 -164.25 L-20.65 -165.0 Q-21.05 -165.85 -20.95 -166.9 L-20.85 -168.55 -20.8 -169.15 -20.4 -170.95 -19.7 -172.25 -15.95 -177.5 -14.85 -178.8 -13.7 -180.75 Q-13.25 -181.55 -13.05 -182.4 L-12.5 -183.7 Q-12.0 -184.65 -11.9 -185.7 L-12.05 -182.6 -12.25 -181.0 -12.25 -178.6 -12.05 -177.95 -11.55 -176.1 -11.2 -175.45 -10.15 -174.4 Q-9.55 -174.0 -9.0 -174.4 -7.95 -175.15 -8.0 -176.3 L-7.8 -178.35 -7.65 -178.95 -5.8 -182.85 -5.25 -184.05 Q-4.55 -185.7 -4.0 -187.75 L-3.45 -189.0 -3.15 -189.55 Q-2.2 -191.75 -1.8 -194.6 L-1.6 -195.3 -1.1 -198.95 Q-0.95 -200.7 -0.1 -202.5 0.75 -200.7 0.9 -198.95 L1.4 -195.3 1.6 -194.6 Q2.0 -191.75 2.95 -189.55 L3.25 -189.0 3.8 -187.75 Q4.35 -185.7 5.05 -184.05 L5.6 -182.85 7.45 -178.95 7.6 -178.35 7.8 -176.3 Q7.75 -175.15 8.8 -174.4 9.35 -174.0 9.95 -174.4 L11.0 -175.45 11.35 -176.1 11.85 -177.95 12.05 -178.6 12.05 -181.0 11.85 -182.6 11.7 -185.7 Q11.8 -184.65 12.3 -183.7 L12.85 -182.4 13.5 -180.75 14.65 -178.8 15.75 -177.5 19.5 -172.25 20.2 -170.95 20.6 -169.15 20.65 -168.55 20.75 -166.9 Q20.85 -165.85 20.45 -165.0 L20.2 -164.25 Q19.65 -162.0 20.7 -159.75 21.35 -158.3 22.2 -157.55 22.9 -156.85 23.8 -157.25 24.75 -157.55 25.15 -157.95 L25.65 -158.7 Q26.65 -159.85 26.9 -161.2 L27.1 -162.2 Q27.3 -163.35 27.85 -164.45 L28.4 -165.1 29.4 -166.2 29.95 -166.7 31.1 -167.9 32.35 -168.95 33.35 -170.15 Q32.4 -168.65 32.2 -166.9 L31.4 -164.8 31.1 -164.05 30.35 -162.55 29.65 -160.35 29.45 -152.0 Q29.45 -151.15 30.05 -150.7 L31.0 -148.9 31.4 -147.9 Q31.7 -146.55 32.25 -145.4 L32.25 -142.6 31.8 -141.3 31.2 -140.6 30.75 -139.7 30.4 -139.0 29.9 -137.7 28.85 -136.1 27.85 -134.25 Q26.8 -133.25 26.3 -132.15 25.65 -129.95 25.7 -127.9 L25.75 -124.45 Q25.75 -123.8 26.1 -123.5 L26.6 -122.95 28.25 -121.95 Q29.3 -121.2 30.5 -121.35 31.0 -121.4 31.35 -121.75 L32.35 -122.8 33.3 -123.9 Q34.1 -125.95 33.85 -127.9 33.8 -128.45 34.0 -128.7 L34.25 -131.0 Q34.65 -133.65 35.55 -135.1 L35.8 -135.55 35.85 -135.65 37.35 -137.4 37.85 -138.1 39.15 -142.2 37.75 -136.5 37.65 -135.65 37.55 -132.4 Q37.35 -130.6 37.55 -128.95 37.75 -127.5 37.3 -126.3 36.95 -123.8 38.1 -122.25 L38.9 -121.45 42.35 -118.7 Q43.7 -117.9 45.2 -118.15 L45.8 -118.2 47.65 -118.55 48.85 -118.85 Q51.35 -119.55 52.75 -121.2 L53.65 -122.45 Q54.1 -123.4 54.05 -124.25 L53.95 -128.3 Q53.9 -129.65 54.8 -130.35 L55.35 -131.15 57.3 -133.6 58.55 -134.95 59.15 -135.6 59.65 -136.15 62.35 -139.75 63.4 -140.95 63.4 -139.55 Q63.05 -138.15 63.1 -136.7 L62.9 -135.2 62.65 -134.45 62.35 -133.65 60.85 -130.35 60.35 -129.3 Q59.9 -128.25 59.95 -127.1 L60.05 -122.8 Q60.1 -121.35 60.4 -119.95 L60.7 -118.1 Q61.1 -116.85 61.85 -116.2 L62.2 -115.7 63.25 -114.35 63.8 -113.65 64.65 -112.4 Q64.8 -112.1 65.2 -112.1 L66.85 -112.0 Q67.85 -112.05 68.7 -111.5 L69.5 -111.2 71.15 -110.65 Q72.6 -109.95 73.4 -110.9 L74.0 -111.35 Q75.7 -112.35 77.2 -113.9 L78.25 -114.8 Q79.05 -115.3 79.9 -116.1 L81.1 -117.1 82.8 -118.45 83.45 -119.1 83.7 -119.35 Q83.3 -118.65 83.55 -117.7 83.65 -117.25 83.9 -116.95 L84.4 -116.3 Q86.1 -116.45 87.3 -117.65 L90.1 -120.0 90.8 -120.5 Q91.85 -121.25 93.15 -121.3 L97.25 -121.25 Q98.2 -121.2 98.85 -121.6 99.55 -122.0 100.15 -122.75 L100.9 -123.45 102.7 -125.3 103.55 -126.1 M88.75 -111.7 L88.8 -112.0 88.0 -111.2 85.4 -108.5 84.05 -107.5 80.55 -107.3 78.25 -107.75 Q77.45 -107.8 76.6 -107.15 L75.4 -105.8 74.5 -104.6 73.25 -103.6 71.85 -102.9 70.4 -102.75 66.5 -103.2 Q65.4 -103.25 63.9 -103.95 L62.6 -104.3 Q61.35 -104.8 60.15 -106.0 L58.85 -107.5 58.3 -108.1 Q57.95 -108.45 57.95 -108.95 L57.75 -113.75 56.15 -111.25 55.6 -110.6 54.8 -109.65 53.8 -108.55 53.15 -108.0 51.35 -107.9 45.8 -108.55 44.4 -108.7 Q41.15 -108.25 37.95 -109.75 36.85 -109.8 36.15 -110.6 L35.8 -110.95 35.55 -111.2 34.0 -112.4 33.2 -112.95 Q32.25 -113.55 30.65 -112.95 L29.65 -112.35 27.4 -110.9 26.75 -110.5 25.6 -110.65 Q23.9 -112.1 22.6 -114.2 L22.05 -115.0 Q20.95 -116.3 20.05 -118.15 19.9 -120.4 20.3 -122.55 L20.8 -126.45 21.2 -133.15 21.35 -134.3 Q21.75 -135.9 22.5 -137.5 L23.5 -139.3 Q23.95 -140.1 23.9 -141.45 L24.0 -146.5 Q24.1 -147.65 24.5 -148.25 L24.25 -147.95 23.5 -147.1 Q22.8 -146.35 22.45 -145.1 L21.65 -143.0 Q21.2 -142.0 19.95 -141.2 18.45 -140.25 18.65 -142.25 L19.15 -143.3 Q19.4 -144.7 19.05 -146.05 L18.0 -148.55 17.2 -150.2 16.9 -150.9 15.1 -154.55 Q14.95 -156.45 13.75 -158.7 L12.95 -163.8 Q13.05 -165.6 11.85 -166.2 L11.15 -166.0 9.55 -165.5 Q8.65 -165.2 8.0 -165.7 L7.2 -166.25 5.45 -167.7 Q3.5 -169.35 2.0 -171.9 1.55 -172.9 1.25 -174.35 0.35 -176.7 -0.1 -179.7 -0.55 -176.7 -1.45 -174.35 -1.75 -172.9 -2.2 -171.9 -3.7 -169.35 -5.65 -167.7 L-7.4 -166.25 -8.2 -165.7 Q-8.85 -165.2 -9.75 -165.5 L-11.35 -166.0 -12.05 -166.2 Q-13.25 -165.6 -13.15 -163.8 L-13.95 -158.7 Q-15.15 -156.45 -15.3 -154.55 L-17.1 -150.9 -17.4 -150.2 -18.2 -148.55 -19.25 -146.05 Q-19.6 -144.7 -19.35 -143.3 L-18.85 -142.25 Q-18.65 -140.25 -20.15 -141.2 -21.4 -142.0 -21.85 -143.0 L-22.65 -145.1 Q-23.0 -146.35 -23.7 -147.1 L-24.45 -147.95 -24.7 -148.25 Q-24.3 -147.65 -24.2 -146.5 L-24.1 -141.45 Q-24.15 -140.1 -23.7 -139.3 L-22.7 -137.5 Q-21.95 -135.9 -21.55 -134.3 L-21.4 -133.15 -21.0 -126.45 -20.5 -122.55 Q-20.1 -120.4 -20.25 -118.15 -21.15 -116.3 -22.25 -115.0 L-22.8 -114.2 Q-24.1 -112.1 -25.8 -110.65 L-26.95 -110.5 -27.6 -110.9 -29.85 -112.35 -30.85 -112.95 Q-32.45 -113.55 -33.4 -112.95 L-34.2 -112.4 -34.5 -112.25 -35.75 -111.2 -36.35 -110.6 Q-37.05 -109.8 -38.15 -109.75 -41.35 -108.25 -44.6 -108.7 L-46.0 -108.55 -51.55 -107.9 -53.35 -108.0 -54.0 -108.55 -55.0 -109.65 -55.8 -110.6 -56.35 -111.25 -57.95 -113.75 -58.15 -108.95 Q-58.15 -108.45 -58.5 -108.1 L-59.05 -107.5 -60.35 -106.0 Q-61.55 -104.8 -62.8 -104.3 L-64.1 -103.95 Q-65.6 -103.25 -66.7 -103.2 L-70.6 -102.75 -72.05 -102.9 -73.45 -103.6 -74.7 -104.6 -75.6 -105.8 -76.8 -107.15 Q-77.65 -107.8 -78.45 -107.75 L-80.75 -107.3 -84.25 -107.5 -85.6 -108.5 -88.2 -111.2 -89.0 -112.0 -88.95 -111.7 -88.4 -109.65 -87.4 -106.85 Q-87.0 -105.75 -87.25 -104.3 -88.85 -101.6 -89.85 -98.85 -90.7 -96.5 -91.9 -94.55 L-92.2 -93.5 -92.4 -91.9 -93.1 -90.2 Q-93.55 -87.35 -94.4 -85.25 L-96.75 -82.05 -97.4 -81.35 -98.5 -80.55 Q-99.7 -80.55 -99.85 -81.0 -101.1 -82.9 -102.4 -83.5 L-103.1 -84.05 Q-104.3 -84.85 -104.95 -85.9 L-105.9 -87.25 Q-104.4 -84.55 -104.75 -81.3 L-104.6 -79.85 -104.45 -78.95 Q-104.35 -76.65 -104.85 -74.55 L-104.9 -73.65 Q-104.6 -71.25 -105.5 -69.3 L-105.75 -67.7 Q-105.75 -66.85 -105.35 -66.1 L-104.95 -65.45 -104.0 -64.25 -102.85 -62.85 Q-102.15 -62.0 -102.2 -61.2 -102.8 -55.7 -102.1 -50.25 L-102.0 -49.2 Q-101.85 -46.35 -102.0 -43.5 -102.0 -42.95 -102.3 -42.45 L-106.35 -35.6 -106.8 -34.6 Q-107.45 -32.75 -108.45 -30.9 -109.2 -29.05 -109.1 -27.45 L-108.85 -24.6 -108.7 -23.2 Q-108.6 -21.8 -108.9 -20.4 -110.1 -19.75 -110.35 -20.15 -112.25 -21.15 -112.65 -22.0 L-113.05 -22.75 Q-112.1 -20.4 -112.35 -17.85 L-112.55 -14.65 Q-112.65 -11.05 -111.95 -7.8 L-111.75 -6.45 Q-111.55 -4.55 -112.25 -2.9 L-113.15 0.05 Q-113.75 1.8 -113.65 3.2 L-113.4 7.45 Q-113.25 9.25 -112.4 10.8 -112.4 14.15 -111.95 15.7 L-111.7 16.7 Q-111.2 19.15 -111.1 21.7 -113.8 20.15 -115.85 17.2 L-114.9 20.95 -114.1 23.55 Q-114.25 27.6 -111.85 29.25 L-110.1 31.1 Q-109.7 31.4 -109.6 32.05 L-109.05 35.95 -108.85 37.4 -108.75 39.15 Q-109.6 40.7 -110.7 41.7 L-111.65 43.0 Q-112.3 43.8 -112.35 44.15 -112.75 47.35 -110.8 48.55 -109.45 49.85 -109.0 50.6 -108.85 53.35 -108.3 55.55 L-107.25 58.8 -106.95 60.25 -106.5 61.45 Q-103.35 61.2 -101.05 62.65 L-99.7 63.45 Q-97.7 64.55 -96.95 67.0 L-96.7 76.55 Q-95.75 79.15 -94.2 80.35 L-90.1 80.2 Q-88.05 78.2 -86.95 79.6 L-85.5 80.95 -84.3 81.85 Q-81.1 84.45 -77.25 85.0 -75.25 85.3 -73.65 84.1 L-72.6 83.35 -70.75 81.65 -69.9 80.4 -69.4 79.4 Q-68.9 77.6 -68.9 75.5 L-68.65 74.5 Q-67.75 72.7 -68.0 70.5 -68.95 70.25 -69.25 70.7 -72.6 71.45 -72.8 68.75 L-72.95 63.75 -72.8 56.25 -72.55 54.85 Q-71.95 53.3 -71.9 51.65 L-73.0 51.6 -75.1 52.15 -81.15 52.35 -86.1 52.0 Q-86.05 49.55 -85.05 47.75 L-84.45 46.6 Q-83.8 45.4 -83.95 43.8 -84.15 42.45 -85.05 42.15 L-87.3 39.55 -87.95 38.1 Q-88.0 36.45 -86.6 36.05 L-85.4 35.0 Q-82.9 33.3 -80.55 30.55 L-78.2 28.2 Q-77.15 27.3 -76.45 25.7 L-75.85 24.5 Q-73.85 20.95 -74.15 16.7 -74.3 15.15 -73.75 13.85 -73.15 12.4 -73.15 10.65 -71.35 8.45 -73.45 7.7 L-74.75 7.4 -82.2 6.75 Q-83.2 4.05 -82.05 1.65 L-81.4 0.05 -80.55 -2.9 Q-80.0 -5.05 -80.05 -7.5 L-79.95 -13.9 -79.1 -15.05 Q-77.05 -16.45 -74.45 -16.85 L-72.9 -17.35 -70.85 -19.25 Q-68.75 -21.05 -68.15 -23.85 L-67.55 -25.2 Q-66.7 -26.3 -66.45 -27.8 -66.15 -29.8 -64.95 -30.85 L-64.4 -31.75 Q-62.9 -33.4 -61.8 -35.2 L-58.0 -41.7 Q-57.6 -43.6 -56.85 -44.5 -56.35 -45.1 -56.4 -46.0 L-55.85 -48.45 Q-55.9 -45.05 -54.75 -43.0 L-54.3 -41.7 Q-54.0 -40.15 -53.35 -38.9 -52.55 -37.5 -52.1 -36.05 -50.6 -34.55 -50.4 -32.8 -49.45 -32.05 -49.2 -31.45 L-48.45 -30.25 -48.35 -30.15 -47.35 -28.85 -44.95 -25.95 Q-44.3 -25.3 -44.0 -23.9 -43.1 -21.2 -41.4 -20.1 L-40.1 -19.0 -37.9 -16.15 -37.05 -14.95 Q-36.6 -12.2 -35.7 -10.3 -36.05 -5.25 -34.5 -2.15 -35.6 -2.05 -36.35 -2.8 -39.4 -4.15 -40.55 -5.7 -41.1 -6.45 -42.0 -6.8 L-40.8 0.7 -40.6 1.75 -39.75 5.25 Q-38.2 7.65 -37.55 10.25 -36.3 12.35 -36.5 14.95 L-36.8 19.2 Q-37.0 20.5 -37.25 20.85 -38.8 21.75 -40.15 21.45 L-42.05 20.0 Q-40.9 22.0 -40.25 24.55 -39.8 26.1 -40.8 26.85 -42.7 29.6 -42.3 32.4 L-41.7 35.3 -41.6 43.8 -45.25 39.55 -46.05 38.2 -46.75 36.95 -47.5 35.7 -48.35 34.8 -48.5 34.65 -48.35 35.15 -47.75 37.35 -47.3 38.8 -46.95 49.15 Q-46.85 51.15 -47.75 52.65 L-48.35 53.35 -50.3 56.05 Q-50.75 58.7 -50.0 60.3 L-49.55 61.95 -49.0 65.9 Q-48.85 66.85 -49.45 66.9 L-50.45 67.15 Q-51.25 69.2 -51.25 70.85 L-51.1 80.15 -50.95 85.5 -50.65 88.7 -50.65 90.1 -50.6 90.6 Q-50.9 94.75 -50.6 99.0 L-50.5 99.55 -50.3 100.5 -50.15 101.85 -50.0 107.9 Q-49.6 111.75 -50.0 114.7 L-50.15 117.55 Q-50.15 119.5 -50.65 121.3 -51.9 121.4 -52.4 120.85 L-53.7 119.6 -54.8 118.6 Q-55.45 119.05 -55.25 120.4 -54.9 123.6 -53.25 126.6 L-52.75 134.65 -52.4 137.5 -52.3 138.9 -52.35 146.4 Q-52.35 147.05 -52.95 147.5 L-54.25 148.4 -55.65 151.45 -55.45 154.6 -54.3 158.45 -53.5 160.35 Q-53.1 164.4 -53.9 167.45 L-54.2 168.85 -55.25 175.6 -55.35 176.65 -55.55 180.95 Q-55.6 182.7 -54.7 183.7 -54.45 189.7 -54.75 194.85 L-55.15 195.9 Q-55.75 196.65 -56.0 197.65 L-56.65 199.25 -57.1 200.5 Q-57.3 201.45 -57.75 202.25 L-58.6 204.1 Q-59.2 207.6 -58.95 211.2 -58.4 213.45 -58.4 215.15 -58.4 215.85 -59.0 216.3 -60.0 217.15 -60.55 218.3 -64.25 222.45 -65.9 227.6 -67.4 230.3 -69.15 231.4 -71.35 231.75 -72.6 232.6 L-74.7 234.75 Q-76.35 237.1 -76.5 240.1 L-76.65 241.15 Q-76.85 242.25 -77.9 243.05 -79.25 244.05 -80.0 245.85 L-80.0 254.7 Q-80.0 256.0 -78.3 256.05 L-75.8 256.35 -74.4 256.45 Q-72.8 256.1 -72.35 255.65 -71.45 254.7 -70.1 254.9 L-67.65 254.9 -63.7 255.3 Q-62.35 255.55 -61.4 254.45 -61.0 254.0 -60.95 253.25 -60.7 250.9 -59.4 249.05 -58.0 248.1 -56.65 247.9 L-55.55 247.15 -53.1 245.25 Q-51.0 243.6 -49.4 241.2 L-48.05 239.0 -47.2 237.65 Q-45.95 235.95 -45.3 233.95 -45.3 232.1 -44.55 231.75 -43.55 230.8 -43.5 230.45 -43.35 229.55 -42.4 229.4 L-40.95 228.2 -36.65 224.05 Q-35.05 222.35 -35.45 219.4 L-35.75 218.1 -36.4 216.6 -37.15 213.0 Q-38.0 210.05 -37.25 208.05 -35.75 206.0 -35.35 204.75 L-34.5 203.75 Q-34.1 203.55 -33.7 202.7 L-31.35 196.9 Q-30.85 195.4 -30.95 193.75 -31.9 193.55 -32.55 194.3 L-33.75 195.3 Q-35.45 197.1 -36.35 197.55 L-37.35 198.05 Q-38.2 197.05 -38.1 195.2 L-37.75 194.05 Q-36.35 191.35 -34.25 189.05 L-33.5 188.0 Q-32.3 185.55 -32.35 182.7 L-32.2 175.95 -31.95 174.9 Q-29.5 168.85 -26.4 163.1 L-26.0 162.05 Q-25.5 160.15 -24.15 158.5 -22.95 157.15 -22.8 155.3 L-22.5 153.8 Q-21.9 151.8 -22.15 149.6 -22.35 147.7 -21.8 146.0 L-21.65 144.95 -21.65 143.2 Q-22.8 143.7 -23.4 145.0 -24.1 146.5 -25.95 146.4 -25.95 142.5 -26.1 138.55 -26.2 134.5 -25.2 130.7 L-25.0 129.65 -24.8 128.2 -24.3 126.75 Q-23.75 124.25 -24.9 124.1 -25.75 124.0 -26.1 124.8 -26.3 125.35 -27.0 125.75 -27.7 126.1 -28.1 126.8 L-28.6 125.05 -28.6 123.25 Q-28.5 116.4 -26.0 110.05 L-25.55 109.05 -23.9 106.1 -23.4 105.1 -22.6 103.8 -21.9 103.05 -20.95 101.9 Q-17.7 98.8 -17.7 94.4 -17.75 92.25 -18.05 90.15 -18.95 88.15 -18.95 86.55 -18.95 84.95 -18.1 83.7 -16.75 81.85 -15.6 79.45 L-14.1 76.3 Q-13.6 75.25 -13.75 73.4 L-14.0 69.8 -14.1 68.75 Q-14.65 65.2 -13.45 62.0 L-12.85 61.1 -11.95 60.25 Q-8.65 56.8 -7.9 52.7 L-7.8 51.3 -7.85 49.15 Q-3.55 49.35 -1.25 46.7 -0.45 45.8 -0.1 44.9 0.25 45.8 1.05 46.7 3.35 49.35 7.65 49.15 L7.6 51.3 7.7 52.7 Q8.45 56.8 11.75 60.25 L12.65 61.1 13.25 62.0 Q14.45 65.2 13.9 68.75 L13.8 69.8 13.55 73.4 Q13.4 75.25 13.9 76.3 L15.4 79.45 Q16.55 81.85 17.9 83.7 18.75 84.95 18.75 86.55 18.75 88.15 17.85 90.15 17.55 92.25 17.5 94.4 17.5 98.8 20.75 101.9 L21.7 103.05 22.4 103.8 23.2 105.1 23.7 106.1 25.35 109.05 25.8 110.05 Q28.3 116.4 28.4 123.25 L28.4 125.05 27.9 126.8 Q27.5 126.1 26.8 125.75 26.1 125.35 25.9 124.8 25.55 124.0 24.7 124.1 23.55 124.25 24.1 126.75 L24.6 128.2 24.8 129.65 25.0 130.7 Q26.0 134.5 25.9 138.55 25.75 142.5 25.75 146.4 23.9 146.5 23.2 145.0 22.6 143.7 21.45 143.2 L21.45 144.95 21.6 146.0 Q22.15 147.7 21.95 149.6 21.7 151.8 22.3 153.8 L22.6 155.3 Q22.75 157.15 23.95 158.5 25.3 160.15 25.8 162.05 L26.2 163.1 Q29.3 168.85 31.75 174.9 L32.0 175.95 32.15 182.7 Q32.1 185.55 33.3 188.0 L34.05 189.05 Q36.15 191.35 37.55 194.05 L37.9 195.2 Q38.0 197.05 37.15 198.05 L36.15 197.55 Q35.25 197.1 33.55 195.3 L32.35 194.3 Q31.7 193.55 30.75 193.75 30.65 195.4 31.15 196.9 L33.5 202.7 34.3 203.75 35.15 204.75 Q35.55 206.0 37.05 208.05 37.8 210.05 36.95 213.0 L36.2 216.6 35.55 218.1 35.25 219.4 Q34.85 222.35 36.45 224.05 38.45 226.25 40.75 228.2 L42.2 229.4 Q43.15 229.55 43.3 230.45 43.35 230.8 44.35 231.75 45.1 232.1 45.1 233.95 45.75 235.95 47.0 237.65 L47.85 239.0 49.2 241.2 Q50.8 243.6 52.9 245.25 L55.35 247.15 56.45 247.9 Q57.8 248.1 59.2 249.05 60.5 250.9 60.75 253.25 60.8 254.0 61.2 254.45 62.15 255.55 63.5 255.3 L67.45 254.9 69.9 254.9 Q71.25 254.7 72.15 255.65 72.6 256.1 74.2 256.45 L75.6 256.35 78.1 256.05 Q79.8 256.0 79.8 254.7 L79.8 245.85 Q79.05 244.05 77.7 243.05 76.65 242.25 76.45 241.15 L76.3 240.1 Q76.15 237.1 74.5 234.75 73.5 233.35 72.4 232.6 71.15 231.75 68.95 231.4 67.2 230.3 65.7 227.6 64.05 222.45 60.35 218.3 59.8 217.15 58.8 216.3 58.2 215.85 58.2 215.15 58.2 213.45 58.75 211.2 59.0 207.6 58.4 204.1 L57.55 202.25 Q57.1 201.45 56.9 200.5 L56.45 199.25 55.8 197.65 Q55.55 196.65 54.95 195.9 L54.55 194.85 Q54.25 189.7 54.5 183.7 55.4 182.7 55.35 180.95 L55.15 176.65 55.05 175.6 54.0 168.85 53.7 167.45 Q52.9 164.4 53.3 160.35 L54.1 158.45 55.25 154.6 55.45 151.45 54.05 148.4 52.75 147.5 Q52.15 147.05 52.15 146.4 L52.1 138.9 52.2 137.5 52.55 134.65 53.05 126.6 Q54.7 123.6 55.05 120.4 55.25 119.05 54.6 118.6 L53.5 119.6 52.2 120.85 Q51.7 121.4 50.45 121.3 49.95 119.5 49.95 117.55 L49.8 114.7 Q49.4 111.75 49.8 107.9 L49.95 101.85 Q49.95 101.15 50.1 100.5 L50.4 99.0 Q50.7 94.75 50.4 90.6 L50.45 90.1 50.45 88.7 50.75 85.5 50.9 80.15 51.05 70.85 Q51.05 69.2 50.25 67.15 L49.25 66.9 Q48.65 66.85 48.8 65.9 L49.35 61.95 49.8 60.3 Q50.55 58.7 50.1 56.05 49.1 54.3 47.55 52.65 46.65 51.15 46.75 49.15 L47.1 38.8 47.55 37.35 48.3 34.65 47.3 35.7 46.55 36.95 45.85 38.2 45.05 39.55 41.4 43.8 41.5 35.3 42.1 32.4 Q42.5 29.6 40.6 26.85 39.6 26.1 40.05 24.55 40.7 22.0 41.85 20.0 L39.95 21.45 Q38.6 21.75 37.05 20.85 36.8 20.5 36.6 19.2 L36.3 14.95 Q36.1 12.35 37.35 10.25 38.0 7.65 39.55 5.25 L40.4 1.75 40.6 0.7 41.8 -6.8 Q40.9 -6.45 40.35 -5.7 39.2 -4.15 36.15 -2.8 35.4 -2.05 34.3 -2.15 35.85 -5.25 35.5 -10.3 36.4 -12.2 36.85 -14.95 L37.7 -16.15 39.9 -19.0 41.2 -20.1 Q42.9 -21.2 43.8 -23.9 44.1 -25.3 44.75 -25.95 L47.15 -28.85 48.25 -30.25 49.0 -31.45 50.2 -32.8 Q50.4 -34.55 51.9 -36.05 52.35 -37.5 53.15 -38.9 53.8 -40.15 54.1 -41.7 54.25 -42.4 54.55 -43.0 55.7 -45.05 55.65 -48.45 L56.2 -46.0 Q56.15 -45.1 56.65 -44.5 57.4 -43.6 57.8 -41.7 L61.6 -35.2 Q62.7 -33.4 64.2 -31.75 L64.75 -30.85 Q65.95 -29.8 66.25 -27.8 66.5 -26.3 67.35 -25.2 L67.95 -23.85 Q68.55 -21.05 70.65 -19.25 71.35 -18.35 72.7 -17.35 73.45 -16.95 74.25 -16.85 76.85 -16.45 78.9 -15.05 L79.75 -13.9 79.85 -7.5 Q79.8 -5.05 80.35 -2.9 L81.2 0.05 81.85 1.65 Q83.0 4.05 82.0 6.75 L74.55 7.4 73.25 7.7 Q71.15 8.45 72.95 10.65 72.95 12.4 73.55 13.85 74.1 15.15 73.95 16.7 73.65 20.95 75.65 24.5 L76.25 25.7 Q76.95 27.3 78.0 28.2 L80.35 30.55 Q82.7 33.3 85.2 35.0 L86.4 36.05 Q87.8 36.45 87.75 38.1 L87.1 39.55 84.85 42.15 Q83.95 42.45 83.75 43.8 83.6 45.4 84.25 46.6 L84.85 47.75 Q85.85 49.55 85.9 52.0 L80.95 52.35 74.9 52.15 72.8 51.6 71.7 51.65 Q71.75 53.3 72.35 54.85 L72.6 56.25 72.75 63.75 72.6 68.75 Q72.4 71.45 69.05 70.7 68.75 70.25 67.8 70.5 67.55 72.7 68.45 74.5 L68.7 75.5 Q68.7 77.6 69.2 79.4 L69.7 80.4 70.55 81.65 Q71.25 82.6 72.4 83.35 L73.45 84.1 Q75.05 85.3 77.05 85.0 80.9 84.45 84.1 81.85 L85.3 80.95 86.75 79.6 Q87.85 78.2 89.9 80.2 L94.0 80.35 Q95.55 79.15 96.5 76.55 L96.75 67.0 Q97.5 64.55 99.5 63.45 L100.85 62.65 Q103.15 61.2 106.3 61.45 L106.75 60.25 107.05 58.8 108.1 55.55 Q108.65 53.35 108.8 50.6 L110.6 48.55 Q112.55 47.35 112.15 44.15 L111.45 43.0 110.5 41.7 Q109.4 40.7 108.55 39.15 L108.65 37.4 108.85 35.95 109.4 32.05 Q109.5 31.4 109.9 31.1 L111.65 29.25 Q114.05 27.6 113.9 23.55 L114.7 20.95 115.65 17.2 Q113.6 20.15 110.9 21.7 111.0 19.15 111.5 16.7 L111.75 15.7 Q112.2 14.15 112.2 10.8 113.05 9.25 113.2 7.45 L113.45 3.2 Q113.55 1.8 112.95 0.05 L112.05 -2.9 Q111.35 -4.55 111.55 -6.45 L111.75 -7.8 Q112.45 -11.05 112.35 -14.65 L112.15 -17.85 Q111.9 -20.4 112.85 -22.75 L112.45 -22.0 Q112.05 -21.15 110.15 -20.15 109.9 -19.75 108.7 -20.4 108.4 -21.8 108.5 -23.2 L108.65 -24.6 108.9 -27.45 Q109.0 -29.05 108.25 -30.9 107.25 -32.75 106.6 -34.6 L106.15 -35.6 102.1 -42.45 Q101.8 -42.95 101.8 -43.5 101.65 -46.35 101.8 -49.2 L101.9 -50.25 Q102.6 -55.7 102.0 -61.2 101.95 -62.0 102.65 -62.85 L103.8 -64.25 105.15 -66.1 Q105.55 -66.85 105.55 -67.7 L105.3 -69.3 Q104.4 -71.25 104.7 -73.65 L104.65 -74.55 Q104.15 -76.65 104.25 -78.95 L104.4 -79.85 104.55 -81.3 Q104.2 -84.55 105.7 -87.25 L104.75 -85.9 Q104.1 -84.85 102.9 -84.05 L102.2 -83.5 Q100.9 -82.9 99.65 -81.0 99.5 -80.55 98.3 -80.55 L97.2 -81.35 96.55 -82.05 94.2 -85.25 Q93.35 -87.35 92.9 -90.2 L92.2 -91.9 92.0 -93.5 91.7 -94.55 Q90.5 -96.5 89.65 -98.85 88.65 -101.6 87.05 -104.3 86.8 -105.75 87.2 -106.85 L88.2 -109.65 88.75 -111.7 M56.45 -31.55 Q56.45 -30.25 55.6 -29.3 L53.7 -27.15 53.0 -26.4 Q52.5 -25.9 51.95 -25.8 50.6 -25.55 49.65 -24.45 L49.1 -24.0 Q48.8 -23.8 48.8 -23.4 L48.75 -22.4 48.7 -19.7 Q48.75 -18.55 48.4 -17.95 L47.95 -17.15 46.6 -16.5 45.75 -15.65 Q45.25 -15.4 45.05 -14.85 L44.4 -14.05 43.9 -13.45 Q43.2 -12.6 43.25 -11.95 L43.15 -11.35 46.65 -12.95 47.2 -13.25 49.25 -14.7 50.05 -15.15 50.95 -15.6 51.9 -16.15 52.95 -16.85 54.2 -17.7 54.9 -18.35 55.3 -18.85 55.9 -19.65 56.35 -20.3 57.45 -22.4 Q56.85 -19.45 55.2 -16.65 L54.8 -15.85 52.7 -12.15 Q51.3 -10.0 49.45 -8.15 47.55 -6.9 46.6 -5.25 L46.05 -4.5 45.3 -1.9 Q44.7 -0.45 45.3 0.95 45.45 2.55 45.75 3.35 L46.35 5.05 46.7 6.2 47.15 8.45 47.3 9.25 Q47.4 11.45 46.95 13.55 L46.65 14.35 45.1 16.85 44.85 17.45 44.15 20.15 Q44.0 20.5 44.0 20.9 43.95 22.6 44.6 24.15 L44.95 25.0 Q45.15 25.7 45.75 26.25 L47.1 27.15 49.25 26.95 49.95 26.3 Q50.5 26.0 50.65 25.45 L52.4 21.9 53.0 20.1 53.05 19.45 53.25 16.6 53.3 16.0 Q53.5 13.95 54.05 11.9 L54.5 10.65 54.55 10.55 55.1 18.65 55.2 21.1 55.2 28.85 Q55.15 30.85 54.05 32.6 L53.8 33.15 53.3 34.05 52.65 35.15 Q51.8 36.8 51.7 38.45 51.6 39.9 52.0 41.3 L52.35 42.35 Q53.0 43.95 52.95 45.8 L52.8 48.25 52.65 49.3 52.55 50.1 52.75 52.1 53.35 52.95 53.9 53.65 54.5 54.1 55.4 53.75 57.45 50.1 58.5 48.1 58.95 47.2 59.2 46.45 59.5 45.8 Q60.55 43.9 61.7 42.35 L62.35 41.1 61.8 44.2 60.4 49.9 60.3 50.7 Q60.4 52.2 59.8 53.6 L59.6 54.2 59.4 55.2 59.2 55.95 58.9 56.45 Q58.6 56.9 58.55 57.45 L58.3 58.25 Q57.95 59.2 58.0 60.3 L57.95 63.35 Q57.6 64.7 57.65 66.0 57.85 66.65 57.55 67.6 L57.85 68.25 58.1 69.05 Q58.35 70.3 59.1 70.9 L59.9 71.3 60.75 71.15 61.8 70.15 62.4 69.25 63.65 67.5 63.95 66.95 64.5 65.85 65.05 64.8 65.5 63.55 65.6 62.1 65.7 56.4 65.75 55.8 65.85 55.2 66.15 54.2 66.55 53.15 66.65 44.35 Q67.85 44.5 68.7 45.6 69.35 46.4 70.3 46.55 L71.75 46.65 Q72.35 46.65 72.8 46.3 L73.3 45.95 73.8 45.6 74.6 44.75 74.9 43.95 Q73.2 42.3 71.6 40.25 70.6 39.0 70.25 37.4 L70.0 35.4 69.95 34.75 69.2 30.9 68.5 28.85 Q68.2 28.15 68.25 27.4 68.9 27.9 69.35 28.8 L70.0 29.9 70.7 31.3 Q71.05 32.2 71.65 32.8 L72.05 33.3 73.65 35.95 Q75.15 37.15 76.65 37.3 L78.5 37.85 Q78.3 36.15 77.3 34.95 L76.05 33.15 72.7 27.9 71.8 26.75 Q70.4 25.0 70.5 22.75 L69.1 21.05 66.9 19.2 66.15 18.35 65.75 17.65 65.35 17.05 Q64.55 16.2 64.5 14.8 L64.5 14.15 64.45 10.1 Q64.55 8.15 64.1 6.45 L63.75 5.8 61.7 2.8 61.15 1.9 60.7 0.95 60.4 -0.15 60.25 -0.75 Q59.85 -3.15 59.9 -5.25 L60.0 -7.7 60.1 -9.3 60.85 -7.05 Q60.9 -6.55 61.1 -6.05 L61.35 -5.0 61.65 -4.15 62.5 -2.4 62.95 -1.75 63.45 -1.0 Q64.1 -0.55 64.4 -0.45 L65.0 -0.35 65.9 -0.65 66.4 -0.95 67.4 -2.05 Q67.9 -2.95 68.4 -3.25 L69.05 -4.0 Q70.25 -6.3 70.0 -9.1 L69.85 -9.7 68.65 -11.5 66.3 -13.65 65.2 -14.45 Q62.95 -15.85 61.65 -17.75 60.9 -20.5 61.2 -23.2 61.4 -24.9 60.6 -26.3 L58.95 -28.7 56.45 -31.55 M-55.8 -29.3 Q-56.65 -30.25 -56.65 -31.55 L-59.15 -28.7 -60.8 -26.3 Q-61.6 -24.9 -61.4 -23.2 -61.1 -20.5 -61.85 -17.75 -63.15 -15.85 -65.4 -14.45 L-66.5 -13.65 -68.85 -11.5 Q-69.65 -10.7 -70.05 -9.7 L-70.2 -9.1 Q-70.45 -6.3 -69.25 -4.0 L-68.6 -3.25 -67.6 -2.05 -66.6 -0.95 Q-66.55 -0.85 -66.1 -0.65 L-65.2 -0.35 -64.6 -0.45 Q-64.3 -0.55 -63.65 -1.0 L-63.15 -1.75 -62.7 -2.4 -61.85 -4.15 -61.55 -5.0 -61.3 -6.05 Q-61.1 -6.55 -61.05 -7.05 L-60.3 -9.3 -60.2 -7.7 -60.1 -5.25 Q-60.05 -3.15 -60.45 -0.75 L-60.6 -0.15 -60.9 0.95 -61.35 1.9 -61.9 2.8 Q-62.85 4.45 -63.95 5.8 L-64.3 6.45 Q-64.75 8.15 -64.65 10.1 L-64.7 14.15 -64.7 14.8 Q-64.75 16.2 -65.55 17.05 L-65.95 17.65 -66.35 18.35 -67.1 19.2 -69.3 21.05 -70.7 22.75 Q-70.6 25.0 -72.0 26.75 L-72.9 27.9 -76.25 33.15 Q-76.8 34.15 -77.5 34.95 -78.5 36.15 -78.7 37.85 L-76.85 37.3 Q-75.35 37.15 -73.85 35.95 L-72.25 33.3 -71.85 32.8 -70.9 31.3 -70.2 29.9 -69.55 28.8 Q-69.1 27.9 -68.45 27.4 -68.4 28.15 -68.7 28.85 L-69.4 30.9 -70.15 34.75 -70.2 35.4 Q-70.25 36.45 -70.45 37.4 -70.8 39.0 -71.8 40.25 L-75.1 43.95 -74.8 44.75 -74.0 45.6 -73.5 45.95 -73.0 46.3 -71.95 46.65 -70.5 46.55 Q-69.55 46.4 -68.9 45.6 -68.05 44.5 -66.85 44.35 L-66.75 53.15 -66.35 54.2 -66.05 55.2 -65.95 55.8 -65.9 56.4 -65.8 62.1 -65.7 63.55 -65.25 64.8 -64.7 65.85 -64.15 66.95 -63.85 67.5 -62.6 69.25 -62.0 70.15 -60.95 71.15 -60.1 71.3 -59.3 70.9 Q-58.55 70.3 -58.3 69.05 L-58.05 68.25 -57.75 67.6 Q-58.05 66.65 -57.85 66.0 -57.8 64.7 -58.15 63.35 L-58.2 60.3 Q-58.15 59.2 -58.5 58.25 L-58.75 57.45 Q-58.8 56.9 -59.1 56.45 L-59.4 55.95 -59.6 55.2 -59.8 54.2 -60.0 53.6 Q-60.6 52.2 -60.5 50.7 L-60.6 49.9 -62.0 44.2 -62.55 41.1 -61.9 42.35 Q-60.75 43.9 -59.7 45.8 L-59.4 46.45 -59.15 47.2 -58.7 48.1 -57.65 50.1 -55.6 53.75 Q-55.4 54.0 -54.7 54.1 L-54.1 53.65 -53.55 52.95 -52.95 52.1 -52.75 50.1 -52.85 49.3 -53.0 48.25 -53.15 45.8 Q-53.2 43.95 -52.55 42.35 L-52.2 41.3 Q-51.8 39.9 -51.9 38.45 -52.0 36.8 -52.85 35.15 L-53.5 34.05 -54.0 33.15 -54.25 32.6 Q-55.35 30.85 -55.4 28.85 L-55.4 21.1 -55.3 18.65 -54.75 10.55 -54.7 10.65 -54.25 11.9 Q-53.7 13.95 -53.5 16.0 L-53.45 16.6 -53.25 19.45 -53.2 20.1 Q-53.15 20.95 -52.6 21.9 L-50.85 25.45 Q-50.7 26.0 -50.15 26.3 L-49.45 26.95 -48.35 27.25 -47.3 27.15 -45.95 26.25 Q-45.35 25.7 -45.15 25.0 L-44.8 24.15 Q-44.15 22.6 -44.2 20.9 -44.2 20.5 -44.35 20.15 L-45.05 17.45 -45.3 16.85 -46.85 14.35 -47.15 13.55 Q-47.6 11.45 -47.5 9.25 L-47.35 8.45 -46.9 6.2 -46.55 5.05 -45.95 3.35 Q-45.65 2.55 -45.5 0.95 -44.9 -0.45 -45.5 -1.9 L-46.25 -4.5 -46.8 -5.25 Q-47.4 -6.3 -48.35 -7.15 L-49.65 -8.15 Q-51.5 -10.0 -52.9 -12.15 L-55.0 -15.85 -55.4 -16.65 Q-57.05 -19.45 -57.65 -22.4 L-56.55 -20.3 -56.1 -19.65 -55.5 -18.85 -55.1 -18.35 -54.4 -17.7 -53.15 -16.85 -52.1 -16.15 -51.15 -15.6 -50.25 -15.15 -49.45 -14.7 -48.35 -13.85 -47.4 -13.25 -46.85 -12.95 Q-45.15 -12.05 -43.35 -11.35 L-43.45 -11.95 Q-43.4 -12.6 -44.1 -13.45 L-44.6 -14.05 -45.25 -14.85 -45.95 -15.65 -46.8 -16.5 -48.15 -17.15 -48.35 -17.45 -48.6 -17.95 Q-48.95 -18.55 -48.9 -19.7 L-48.95 -22.4 -49.0 -23.4 Q-49.0 -23.8 -49.3 -24.0 L-49.85 -24.45 Q-50.8 -25.55 -52.15 -25.8 -52.7 -25.9 -53.2 -26.4 L-53.9 -27.15 -55.8 -29.3" fill="url(#gradient0)" fill-rule="evenodd" stroke="none"/>
    <path d="M88.75 -111.7 L88.2 -109.65 87.2 -106.85 Q86.8 -105.75 87.05 -104.3 88.65 -101.6 89.65 -98.85 90.5 -96.5 91.7 -94.55 L92.0 -93.5 92.2 -91.9 92.9 -90.2 Q93.35 -87.35 94.2 -85.25 L96.55 -82.05 97.2 -81.35 98.3 -80.55 Q99.5 -80.55 99.65 -81.0 100.9 -82.9 102.2 -83.5 L102.9 -84.05 Q104.1 -84.85 104.75 -85.9 L105.7 -87.25 Q104.2 -84.55 104.55 -81.3 L104.4 -79.85 104.25 -78.95 Q104.15 -76.65 104.65 -74.55 L104.7 -73.65 Q104.4 -71.25 105.3 -69.3 L105.55 -67.7 Q105.55 -66.85 105.15 -66.1 L103.8 -64.25 102.65 -62.85 Q101.95 -62.0 102.0 -61.2 102.6 -55.7 101.9 -50.25 L101.8 -49.2 Q101.65 -46.35 101.8 -43.5 101.8 -42.95 102.1 -42.45 L106.15 -35.6 106.6 -34.6 Q107.25 -32.75 108.25 -30.9 109.0 -29.05 108.9 -27.45 L108.65 -24.6 108.5 -23.2 Q108.4 -21.8 108.7 -20.4 109.9 -19.75 110.15 -20.15 112.05 -21.15 112.45 -22.0 L112.85 -22.75 Q111.9 -20.4 112.15 -17.85 L112.35 -14.65 Q112.45 -11.05 111.75 -7.8 L111.55 -6.45 Q111.35 -4.55 112.05 -2.9 L112.95 0.05 Q113.55 1.8 113.45 3.2 L113.2 7.45 Q113.05 9.25 112.2 10.8 112.2 14.15 111.75 15.7 L111.5 16.7 Q111.0 19.15 110.9 21.7 113.6 20.15 115.65 17.2 L114.7 20.95 113.9 23.55 Q114.05 27.6 111.65 29.25 L109.9 31.1 Q109.5 31.4 109.4 32.05 L108.85 35.95 108.65 37.4 108.55 39.15 Q109.4 40.7 110.5 41.7 L111.45 43.0 112.15 44.15 Q112.55 47.35 110.6 48.55 L108.8 50.6 Q108.65 53.35 108.1 55.55 L107.05 58.8 106.75 60.25 106.3 61.45 Q103.15 61.2 100.85 62.65 L99.5 63.45 Q97.5 64.55 96.75 67.0 L96.5 76.55 Q95.55 79.15 94.0 80.35 L89.9 80.2 Q87.85 78.2 86.75 79.6 L85.3 80.95 84.1 81.85 Q80.9 84.45 77.05 85.0 75.05 85.3 73.45 84.1 L72.4 83.35 Q71.25 82.6 70.55 81.65 L69.7 80.4 69.2 79.4 Q68.7 77.6 68.7 75.5 L68.45 74.5 Q67.55 72.7 67.8 70.5 68.75 70.25 69.05 70.7 72.4 71.45 72.6 68.75 L72.75 63.75 72.6 56.25 72.35 54.85 Q71.75 53.3 71.7 51.65 L72.8 51.6 74.9 52.15 80.95 52.35 85.9 52.0 Q85.85 49.55 84.85 47.75 L84.25 46.6 Q83.6 45.4 83.75 43.8 83.95 42.45 84.85 42.15 L87.1 39.55 87.75 38.1 Q87.8 36.45 86.4 36.05 L85.2 35.0 Q82.7 33.3 80.35 30.55 L78.0 28.2 Q76.95 27.3 76.25 25.7 L75.65 24.5 Q73.65 20.95 73.95 16.7 74.1 15.15 73.55 13.85 72.95 12.4 72.95 10.65 71.15 8.45 73.25 7.7 L74.55 7.4 82.0 6.75 Q83.0 4.05 81.85 1.65 L81.2 0.05 80.35 -2.9 Q79.8 -5.05 79.85 -7.5 L79.75 -13.9 78.9 -15.05 Q76.85 -16.45 74.25 -16.85 73.45 -16.95 72.7 -17.35 71.35 -18.35 70.65 -19.25 68.55 -21.05 67.95 -23.85 L67.35 -25.2 Q66.5 -26.3 66.25 -27.8 65.95 -29.8 64.75 -30.85 L64.2 -31.75 Q62.7 -33.4 61.6 -35.2 L57.8 -41.7 Q57.4 -43.6 56.65 -44.5 56.15 -45.1 56.2 -46.0 L55.65 -48.45 Q55.7 -45.05 54.55 -43.0 54.25 -42.4 54.1 -41.7 53.8 -40.15 53.15 -38.9 52.35 -37.5 51.9 -36.05 50.4 -34.55 50.2 -32.8 L49.0 -31.45 48.25 -30.25 47.15 -28.85 44.75 -25.95 Q44.1 -25.3 43.8 -23.9 42.9 -21.2 41.2 -20.1 L39.9 -19.0 37.7 -16.15 36.85 -14.95 Q36.4 -12.2 35.5 -10.3 35.85 -5.25 34.3 -2.15 35.4 -2.05 36.15 -2.8 39.2 -4.15 40.35 -5.7 40.9 -6.45 41.8 -6.8 L40.6 0.7 40.4 1.75 39.55 5.25 Q38.0 7.65 37.35 10.25 36.1 12.35 36.3 14.95 L36.6 19.2 Q36.8 20.5 37.05 20.85 38.6 21.75 39.95 21.45 L41.85 20.0 Q40.7 22.0 40.05 24.55 39.6 26.1 40.6 26.85 42.5 29.6 42.1 32.4 L41.5 35.3 41.4 43.8 45.05 39.55 45.85 38.2 46.55 36.95 47.3 35.7 48.3 34.65 47.55 37.35 47.1 38.8 46.75 49.15 Q46.65 51.15 47.55 52.65 49.1 54.3 50.1 56.05 50.55 58.7 49.8 60.3 L49.35 61.95 48.8 65.9 Q48.65 66.85 49.25 66.9 L50.25 67.15 Q51.05 69.2 51.05 70.85 L50.9 80.15 50.75 85.5 50.45 88.7 50.45 90.1 50.4 90.6 Q50.7 94.75 50.4 99.0 L50.1 100.5 Q49.95 101.15 49.95 101.85 L49.8 107.9 Q49.4 111.75 49.8 114.7 L49.95 117.55 Q49.95 119.5 50.45 121.3 51.7 121.4 52.2 120.85 L53.5 119.6 54.6 118.6 Q55.25 119.05 55.05 120.4 54.7 123.6 53.05 126.6 L52.55 134.65 52.2 137.5 52.1 138.9 52.15 146.4 Q52.15 147.05 52.75 147.5 L54.05 148.4 55.45 151.45 55.25 154.6 54.1 158.45 53.3 160.35 Q52.9 164.4 53.7 167.45 L54.0 168.85 55.05 175.6 55.15 176.65 55.35 180.95 Q55.4 182.7 54.5 183.7 54.25 189.7 54.55 194.85 L54.95 195.9 Q55.55 196.65 55.8 197.65 L56.45 199.25 56.9 200.5 Q57.1 201.45 57.55 202.25 L58.4 204.1 Q59.0 207.6 58.75 211.2 58.2 213.45 58.2 215.15 58.2 215.85 58.8 216.3 59.8 217.15 60.35 218.3 64.05 222.45 65.7 227.6 67.2 230.3 68.95 231.4 71.15 231.75 72.4 232.6 73.5 233.35 74.5 234.75 76.15 237.1 76.3 240.1 L76.45 241.15 Q76.65 242.25 77.7 243.05 79.05 244.05 79.8 245.85 L79.8 254.7 Q79.8 256.0 78.1 256.05 L75.6 256.35 74.2 256.45 Q72.6 256.1 72.15 255.65 71.25 254.7 69.9 254.9 L67.45 254.9 63.5 255.3 Q62.15 255.55 61.2 254.45 60.8 254.0 60.75 253.25 60.5 250.9 59.2 249.05 57.8 248.1 56.45 247.9 L55.35 247.15 52.9 245.25 Q50.8 243.6 49.2 241.2 L47.85 239.0 47.0 237.65 Q45.75 235.95 45.1 233.95 45.1 232.1 44.35 231.75 43.35 230.8 43.3 230.45 43.15 229.55 42.2 229.4 L40.75 228.2 Q38.45 226.25 36.45 224.05 34.85 222.35 35.25 219.4 L35.55 218.1 36.2 216.6 36.95 213.0 Q37.8 210.05 37.05 208.05 35.55 206.0 35.15 204.75 L34.3 203.75 33.5 202.7 31.15 196.9 Q30.65 195.4 30.75 193.75 31.7 193.55 32.35 194.3 L33.55 195.3 Q35.25 197.1 36.15 197.55 L37.15 198.05 Q38.0 197.05 37.9 195.2 L37.55 194.05 Q36.15 191.35 34.05 189.05 L33.3 188.0 Q32.1 185.55 32.15 182.7 L32.0 175.95 31.75 174.9 Q29.3 168.85 26.2 163.1 L25.8 162.05 Q25.3 160.15 23.95 158.5 22.75 157.15 22.6 155.3 L22.3 153.8 Q21.7 151.8 21.95 149.6 22.15 147.7 21.6 146.0 L21.45 144.95 21.45 143.2 Q22.6 143.7 23.2 145.0 23.9 146.5 25.75 146.4 25.75 142.5 25.9 138.55 26.0 134.5 25.0 130.7 L24.8 129.65 24.6 128.2 24.1 126.75 Q23.55 124.25 24.7 124.1 25.55 124.0 25.9 124.8 26.1 125.35 26.8 125.75 27.5 126.1 27.9 126.8 L28.4 125.05 28.4 123.25 Q28.3 116.4 25.8 110.05 L25.35 109.05 23.7 106.1 23.2 105.1 22.4 103.8 21.7 103.05 20.75 101.9 Q17.5 98.8 17.5 94.4 17.55 92.25 17.85 90.15 18.75 88.15 18.75 86.55 18.75 84.95 17.9 83.7 16.55 81.85 15.4 79.45 L13.9 76.3 Q13.4 75.25 13.55 73.4 L13.8 69.8 13.9 68.75 Q14.45 65.2 13.25 62.0 L12.65 61.1 11.75 60.25 Q8.45 56.8 7.7 52.7 L7.6 51.3 7.65 49.15 Q3.35 49.35 1.05 46.7 0.25 45.8 -0.1 44.9 -0.45 45.8 -1.25 46.7 -3.55 49.35 -7.85 49.15 L-7.8 51.3 -7.9 52.7 Q-8.65 56.8 -11.95 60.25 L-12.85 61.1 -13.45 62.0 Q-14.65 65.2 -14.1 68.75 L-14.0 69.8 -13.75 73.4 Q-13.6 75.25 -14.1 76.3 L-15.6 79.45 Q-16.75 81.85 -18.1 83.7 -18.95 84.95 -18.95 86.55 -18.95 88.15 -18.05 90.15 -17.75 92.25 -17.7 94.4 -17.7 98.8 -20.95 101.9 L-21.9 103.05 -22.6 103.8 -23.4 105.1 -23.9 106.1 -25.55 109.05 -26.0 110.05 Q-28.5 116.4 -28.6 123.25 L-28.6 125.05 -28.1 126.8 Q-27.7 126.1 -27.0 125.75 -26.3 125.35 -26.1 124.8 -25.75 124.0 -24.9 124.1 -23.75 124.25 -24.3 126.75 L-24.8 128.2 -25.0 129.65 -25.2 130.7 Q-26.2 134.5 -26.1 138.55 -25.95 142.5 -25.95 146.4 -24.1 146.5 -23.4 145.0 -22.8 143.7 -21.65 143.2 L-21.65 144.95 -21.8 146.0 Q-22.35 147.7 -22.15 149.6 -21.9 151.8 -22.5 153.8 L-22.8 155.3 Q-22.95 157.15 -24.15 158.5 -25.5 160.15 -26.0 162.05 L-26.4 163.1 Q-29.5 168.85 -31.95 174.9 L-32.2 175.95 -32.35 182.7 Q-32.3 185.55 -33.5 188.0 L-34.25 189.05 Q-36.35 191.35 -37.75 194.05 L-38.1 195.2 Q-38.2 197.05 -37.35 198.05 L-36.35 197.55 Q-35.45 197.1 -33.75 195.3 L-32.55 194.3 Q-31.9 193.55 -30.95 193.75 -30.85 195.4 -31.35 196.9 L-33.7 202.7 Q-34.1 203.55 -34.5 203.75 L-35.35 204.75 Q-35.75 206.0 -37.25 208.05 -38.0 210.05 -37.15 213.0 L-36.4 216.6 -35.75 218.1 -35.45 219.4 Q-35.05 222.35 -36.65 224.05 L-40.95 228.2 -42.4 229.4 Q-43.35 229.55 -43.5 230.45 -43.55 230.8 -44.55 231.75 -45.3 232.1 -45.3 233.95 -45.95 235.95 -47.2 237.65 L-48.05 239.0 -49.4 241.2 Q-51.0 243.6 -53.1 245.25 L-55.55 247.15 -56.65 247.9 Q-58.0 248.1 -59.4 249.05 -60.7 250.9 -60.95 253.25 -61.0 254.0 -61.4 254.45 -62.35 255.55 -63.7 255.3 L-67.65 254.9 -70.1 254.9 Q-71.45 254.7 -72.35 255.65 -72.8 256.1 -74.4 256.45 L-75.8 256.35 -78.3 256.05 Q-80.0 256.0 -80.0 254.7 L-80.0 245.85 Q-79.25 244.05 -77.9 243.05 -76.85 242.25 -76.65 241.15 L-76.5 240.1 Q-76.35 237.1 -74.7 234.75 L-72.6 232.6 Q-71.35 231.75 -69.15 231.4 -67.4 230.3 -65.9 227.6 -64.25 222.45 -60.55 218.3 -60.0 217.15 -59.0 216.3 -58.4 215.85 -58.4 215.15 -58.4 213.45 -58.95 211.2 -59.2 207.6 -58.6 204.1 L-57.75 202.25 Q-57.3 201.45 -57.1 200.5 L-56.65 199.25 -56.0 197.65 Q-55.75 196.65 -55.15 195.9 L-54.75 194.85 Q-54.45 189.7 -54.7 183.7 -55.6 182.7 -55.55 180.95 L-55.35 176.65 -55.25 175.6 -54.2 168.85 -53.9 167.45 Q-53.1 164.4 -53.5 160.35 L-54.3 158.45 -55.45 154.6 -55.65 151.45 -54.25 148.4 -52.95 147.5 Q-52.35 147.05 -52.35 146.4 L-52.3 138.9 -52.4 137.5 -52.75 134.65 -53.25 126.6 Q-54.9 123.6 -55.25 120.4 -55.45 119.05 -54.8 118.6 L-53.7 119.6 -52.4 120.85 Q-51.9 121.4 -50.65 121.3 -50.15 119.5 -50.15 117.55 L-50.0 114.7 Q-49.6 111.75 -50.0 107.9 L-50.15 101.85 -50.3 100.5 -50.5 99.55 -50.6 99.0 Q-50.9 94.75 -50.6 90.6 L-50.65 90.1 -50.65 88.7 -50.95 85.5 -51.1 80.15 -51.25 70.85 Q-51.25 69.2 -50.45 67.15 L-49.45 66.9 Q-48.85 66.85 -49.0 65.9 L-49.55 61.95 -50.0 60.3 Q-50.75 58.7 -50.3 56.05 L-48.35 53.35 -47.75 52.65 Q-46.85 51.15 -46.95 49.15 L-47.3 38.8 -47.75 37.35 -48.35 35.15 -48.5 34.65 -48.35 34.8 -47.5 35.7 -46.75 36.95 -46.05 38.2 -45.25 39.55 -41.6 43.8 -41.7 35.3 -42.3 32.4 Q-42.7 29.6 -40.8 26.85 -39.8 26.1 -40.25 24.55 -40.9 22.0 -42.05 20.0 L-40.15 21.45 Q-38.8 21.75 -37.25 20.85 -37.0 20.5 -36.8 19.2 L-36.5 14.95 Q-36.3 12.35 -37.55 10.25 -38.2 7.65 -39.75 5.25 L-40.6 1.75 -40.8 0.7 -42.0 -6.8 Q-41.1 -6.45 -40.55 -5.7 -39.4 -4.15 -36.35 -2.8 -35.6 -2.05 -34.5 -2.15 -36.05 -5.25 -35.7 -10.3 -36.6 -12.2 -37.05 -14.95 L-37.9 -16.15 -40.1 -19.0 -41.4 -20.1 Q-43.1 -21.2 -44.0 -23.9 -44.3 -25.3 -44.95 -25.95 L-47.35 -28.85 -48.35 -30.15 -48.45 -30.25 -49.2 -31.45 Q-49.45 -32.05 -50.4 -32.8 -50.6 -34.55 -52.1 -36.05 -52.55 -37.5 -53.35 -38.9 -54.0 -40.15 -54.3 -41.7 L-54.75 -43.0 Q-55.9 -45.05 -55.85 -48.45 L-56.4 -46.0 Q-56.35 -45.1 -56.85 -44.5 -57.6 -43.6 -58.0 -41.7 L-61.8 -35.2 Q-62.9 -33.4 -64.4 -31.75 L-64.95 -30.85 Q-66.15 -29.8 -66.45 -27.8 -66.7 -26.3 -67.55 -25.2 L-68.15 -23.85 Q-68.75 -21.05 -70.85 -19.25 L-72.9 -17.35 -74.45 -16.85 Q-77.05 -16.45 -79.1 -15.05 L-79.95 -13.9 -80.05 -7.5 Q-80.0 -5.05 -80.55 -2.9 L-81.4 0.05 -82.05 1.65 Q-83.2 4.05 -82.2 6.75 L-74.75 7.4 -73.45 7.7 Q-71.35 8.45 -73.15 10.65 -73.15 12.4 -73.75 13.85 -74.3 15.15 -74.15 16.7 -73.85 20.95 -75.85 24.5 L-76.45 25.7 Q-77.15 27.3 -78.2 28.2 L-80.55 30.55 Q-82.9 33.3 -85.4 35.0 L-86.6 36.05 Q-88.0 36.45 -87.95 38.1 L-87.3 39.55 -85.05 42.15 Q-84.15 42.45 -83.95 43.8 -83.8 45.4 -84.45 46.6 L-85.05 47.75 Q-86.05 49.55 -86.1 52.0 L-81.15 52.35 -75.1 52.15 -73.0 51.6 -71.9 51.65 Q-71.95 53.3 -72.55 54.85 L-72.8 56.25 -72.95 63.75 -72.8 68.75 Q-72.6 71.45 -69.25 70.7 -68.95 70.25 -68.0 70.5 -67.75 72.7 -68.65 74.5 L-68.9 75.5 Q-68.9 77.6 -69.4 79.4 L-69.9 80.4 -70.75 81.65 -72.6 83.35 -73.65 84.1 Q-75.25 85.3 -77.25 85.0 -81.1 84.45 -84.3 81.85 L-85.5 80.95 -86.95 79.6 Q-88.05 78.2 -90.1 80.2 L-94.2 80.35 Q-95.75 79.15 -96.7 76.55 L-96.95 67.0 Q-97.7 64.55 -99.7 63.45 L-101.05 62.65 Q-103.35 61.2 -106.5 61.45 L-106.95 60.25 -107.25 58.8 -108.3 55.55 Q-108.85 53.35 -109.0 50.6 -109.45 49.85 -110.8 48.55 -112.75 47.35 -112.35 44.15 -112.3 43.8 -111.65 43.0 L-110.7 41.7 Q-109.6 40.7 -108.75 39.15 L-108.85 37.4 -109.05 35.95 -109.6 32.05 Q-109.7 31.4 -110.1 31.1 L-111.85 29.25 Q-114.25 27.6 -114.1 23.55 L-114.9 20.95 -115.85 17.2 Q-113.8 20.15 -111.1 21.7 -111.2 19.15 -111.7 16.7 L-111.95 15.7 Q-112.4 14.15 -112.4 10.8 -113.25 9.25 -113.4 7.45 L-113.65 3.2 Q-113.75 1.8 -113.15 0.05 L-112.25 -2.9 Q-111.55 -4.55 -111.75 -6.45 L-111.95 -7.8 Q-112.65 -11.05 -112.55 -14.65 L-112.35 -17.85 Q-112.1 -20.4 -113.05 -22.75 L-112.65 -22.0 Q-112.25 -21.15 -110.35 -20.15 -110.1 -19.75 -108.9 -20.4 -108.6 -21.8 -108.7 -23.2 L-108.85 -24.6 -109.1 -27.45 Q-109.2 -29.05 -108.45 -30.9 -107.45 -32.75 -106.8 -34.6 L-106.35 -35.6 -102.3 -42.45 Q-102.0 -42.95 -102.0 -43.5 -101.85 -46.35 -102.0 -49.2 L-102.1 -50.25 Q-102.8 -55.7 -102.2 -61.2 -102.15 -62.0 -102.85 -62.85 L-104.0 -64.25 -104.95 -65.45 -105.35 -66.1 Q-105.75 -66.85 -105.75 -67.7 L-105.5 -69.3 Q-104.6 -71.25 -104.9 -73.65 L-104.85 -74.55 Q-104.35 -76.65 -104.45 -78.95 L-104.6 -79.85 -104.75 -81.3 Q-104.4 -84.55 -105.9 -87.25 L-104.95 -85.9 Q-104.3 -84.85 -103.1 -84.05 L-102.4 -83.5 Q-101.1 -82.9 -99.85 -81.0 -99.7 -80.55 -98.5 -80.55 L-97.4 -81.35 -96.75 -82.05 -94.4 -85.25 Q-93.55 -87.35 -93.1 -90.2 L-92.4 -91.9 -92.2 -93.5 -91.9 -94.55 Q-90.7 -96.5 -89.85 -98.85 -88.85 -101.6 -87.25 -104.3 -87.0 -105.75 -87.4 -106.85 L-88.4 -109.65 -88.95 -111.7 -89.0 -112.0 -88.2 -111.2 -85.6 -108.5 -84.25 -107.5 -80.75 -107.3 -78.45 -107.75 Q-77.65 -107.8 -76.8 -107.15 L-75.6 -105.8 -74.7 -104.6 -73.45 -103.6 -72.05 -102.9 -70.6 -102.75 -66.7 -103.2 Q-65.6 -103.25 -64.1 -103.95 L-62.8 -104.3 Q-61.55 -104.8 -60.35 -106.0 L-59.05 -107.5 -58.5 -108.1 Q-58.15 -108.45 -58.15 -108.95 L-57.95 -113.75 -56.35 -111.25 -55.8 -110.6 -55.0 -109.65 -54.0 -108.55 -53.35 -108.0 -51.55 -107.9 -46.0 -108.55 -44.6 -108.7 Q-41.35 -108.25 -38.15 -109.75 -37.05 -109.8 -36.35 -110.6 L-35.75 -111.2 -34.5 -112.25 -34.2 -112.4 -33.4 -112.95 Q-32.45 -113.55 -30.85 -112.95 L-29.85 -112.35 -27.6 -110.9 -26.95 -110.5 -25.8 -110.65 Q-24.1 -112.1 -22.8 -114.2 L-22.25 -115.0 Q-21.15 -116.3 -20.25 -118.15 -20.1 -120.4 -20.5 -122.55 L-21.0 -126.45 -21.4 -133.15 -21.55 -134.3 Q-21.95 -135.9 -22.7 -137.5 L-23.7 -139.3 Q-24.15 -140.1 -24.1 -141.45 L-24.2 -146.5 Q-24.3 -147.65 -24.7 -148.25 L-24.45 -147.95 -23.7 -147.1 Q-23.0 -146.35 -22.65 -145.1 L-21.85 -143.0 Q-21.4 -142.0 -20.15 -141.2 -18.65 -140.25 -18.85 -142.25 L-19.35 -143.3 Q-19.6 -144.7 -19.25 -146.05 L-18.2 -148.55 -17.4 -150.2 -17.1 -150.9 -15.3 -154.55 Q-15.15 -156.45 -13.95 -158.7 L-13.15 -163.8 Q-13.25 -165.6 -12.05 -166.2 L-11.35 -166.0 -9.75 -165.5 Q-8.85 -165.2 -8.2 -165.7 L-7.4 -166.25 -5.65 -167.7 Q-3.7 -169.35 -2.2 -171.9 -1.75 -172.9 -1.45 -174.35 -0.55 -176.7 -0.1 -179.7 0.35 -176.7 1.25 -174.35 1.55 -172.9 2.0 -171.9 3.5 -169.35 5.45 -167.7 L7.2 -166.25 8.0 -165.7 Q8.65 -165.2 9.55 -165.5 L11.15 -166.0 11.85 -166.2 Q13.05 -165.6 12.95 -163.8 L13.75 -158.7 Q14.95 -156.45 15.1 -154.55 L16.9 -150.9 17.2 -150.2 18.0 -148.55 19.05 -146.05 Q19.4 -144.7 19.15 -143.3 L18.65 -142.25 Q18.45 -140.25 19.95 -141.2 21.2 -142.0 21.65 -143.0 L22.45 -145.1 Q22.8 -146.35 23.5 -147.1 L24.25 -147.95 24.5 -148.25 Q24.1 -147.65 24.0 -146.5 L23.9 -141.45 Q23.95 -140.1 23.5 -139.3 L22.5 -137.5 Q21.75 -135.9 21.35 -134.3 L21.2 -133.15 20.8 -126.45 20.3 -122.55 Q19.9 -120.4 20.05 -118.15 20.95 -116.3 22.05 -115.0 L22.6 -114.2 Q23.9 -112.1 25.6 -110.65 L26.75 -110.5 27.4 -110.9 29.65 -112.35 30.65 -112.95 Q32.25 -113.55 33.2 -112.95 L34.0 -112.4 35.55 -111.2 35.8 -110.95 36.15 -110.6 Q36.85 -109.8 37.95 -109.75 41.15 -108.25 44.4 -108.7 L45.8 -108.55 51.35 -107.9 53.15 -108.0 53.8 -108.55 54.8 -109.65 55.6 -110.6 56.15 -111.25 57.75 -113.75 57.95 -108.95 Q57.95 -108.45 58.3 -108.1 L58.85 -107.5 60.15 -106.0 Q61.35 -104.8 62.6 -104.3 L63.9 -103.95 Q65.4 -103.25 66.5 -103.2 L70.4 -102.75 71.85 -102.9 73.25 -103.6 74.5 -104.6 75.4 -105.8 76.6 -107.15 Q77.45 -107.8 78.25 -107.75 L80.55 -107.3 84.05 -107.5 85.4 -108.5 88.0 -111.2 88.8 -112.0 88.75 -111.7" fill="url(#gradient1)" fill-rule="evenodd" stroke="none"/>
    <path d="M-78.8 -148.6 L-78.55 -150.2 -77.55 -155.7 -77.85 -149.95 Q-78.0 -146.1 -76.95 -142.1 L-76.75 -135.25 -76.1 -134.1 -75.15 -132.7 -73.15 -130.65 Q-72.8 -130.35 -72.45 -130.35 -71.6 -130.35 -70.8 -129.15 L-70.55 -127.35 Q-70.35 -124.75 -72.3 -123.25 L-74.8 -121.2 -76.85 -121.0 Q-78.1 -121.3 -79.75 -122.1 L-80.3 -122.6 Q-81.35 -122.9 -82.2 -124.3 L-83.5 -125.8 Q-86.35 -129.65 -87.3 -134.3 L-87.65 -135.65 Q-88.3 -137.9 -88.6 -140.95 L-86.8 -138.4 -85.1 -136.4 -83.7 -134.6 -82.65 -133.55 Q-81.95 -133.0 -81.0 -133.8 -80.1 -134.25 -80.5 -135.65 -80.95 -136.65 -80.95 -137.75 L-80.85 -140.05 -80.65 -140.9 -80.15 -142.45 Q-79.6 -143.1 -79.55 -145.1 L-78.8 -148.6" fill="url(#gradient2)" fill-rule="evenodd" stroke="none"/>
    <path d="M-49.85 -163.15 L-49.0 -162.15 Q-48.4 -161.2 -47.4 -160.3 L-46.85 -159.45 Q-45.95 -158.6 -45.15 -156.8 L-44.5 -155.3 Q-44.25 -154.55 -44.3 -153.4 L-44.5 -151.1 Q-44.7 -149.9 -45.75 -149.05 -47.1 -147.95 -48.0 -145.8 -48.4 -144.15 -48.35 -142.35 -48.3 -139.75 -47.35 -137.5 L-47.1 -136.9 -48.2 -138.25 -51.1 -142.2 Q-52.1 -142.7 -52.15 -143.5 -52.3 -146.15 -50.55 -148.1 L-48.15 -152.9 Q-47.9 -153.25 -47.9 -153.9 -47.85 -155.35 -48.2 -156.65 L-48.65 -158.0 Q-50.5 -162.05 -53.75 -165.8 L-52.9 -165.75 -52.15 -165.45 -49.85 -163.15" fill="url(#gradient3)" fill-rule="evenodd" stroke="none"/>
    <path d="M83.3 -125.8 L82.0 -124.3 Q81.15 -122.9 80.1 -122.6 L79.55 -122.1 Q77.9 -121.3 76.65 -121.0 L74.6 -121.2 72.1 -123.25 Q70.15 -124.75 70.35 -127.35 L70.6 -129.15 Q71.4 -130.35 72.25 -130.35 72.6 -130.35 72.95 -130.65 L74.95 -132.7 75.9 -134.1 76.55 -135.25 76.75 -142.1 Q77.8 -146.1 77.65 -149.95 L77.35 -155.7 78.35 -150.2 78.6 -148.6 79.35 -145.1 Q79.4 -143.1 79.95 -142.45 L80.45 -140.9 80.65 -140.05 80.75 -137.75 Q80.75 -136.65 80.3 -135.65 79.9 -134.25 80.8 -133.8 81.75 -133.0 82.45 -133.55 L83.5 -134.6 84.9 -136.4 86.6 -138.4 88.4 -140.95 Q88.1 -137.9 87.45 -135.65 L87.1 -134.3 Q86.15 -129.65 83.3 -125.8" fill="url(#gradient4)" fill-rule="evenodd" stroke="none"/>
    <path d="M52.7 -165.75 L53.55 -165.8 Q50.3 -162.05 48.45 -158.0 L48.0 -156.65 Q47.65 -155.35 47.7 -153.9 47.7 -153.25 47.95 -152.9 L50.35 -148.1 Q52.1 -146.15 51.95 -143.5 51.9 -142.7 50.9 -142.2 L48.0 -138.25 46.9 -136.9 47.15 -137.5 Q48.1 -139.75 48.15 -142.35 48.2 -144.15 47.8 -145.8 46.9 -147.95 45.55 -149.05 44.5 -149.9 44.3 -151.1 L44.1 -153.4 Q44.05 -154.55 44.3 -155.3 L44.95 -156.8 Q45.75 -158.6 46.65 -159.45 L47.2 -160.3 Q48.2 -161.2 48.8 -162.15 L49.65 -163.15 51.95 -165.45 52.7 -165.75" fill="url(#gradient5)" fill-rule="evenodd" stroke="none"/>
    <path d="M78.85 128.6 L78.65 141.4 77.25 145.3 76.15 148.25 Q75.55 149.85 75.2 151.75 74.85 153.45 74.2 154.6 L75.6 154.4 Q76.8 154.2 77.05 153.3 L78.1 152.1 Q77.7 153.15 78.1 154.25 77.85 155.55 76.85 156.55 75.2 159.05 73.75 160.55 L72.8 161.4 Q70.85 163.05 68.45 164.1 67.6 164.45 67.15 163.75 66.75 160.95 66.95 159.25 L67.15 157.1 67.65 154.9 Q67.95 153.75 68.15 153.55 68.7 152.8 68.7 151.75 69.2 150.7 69.6 150.5 L70.7 150.1 Q71.9 149.75 72.5 148.6 L74.1 145.65 75.3 143.2 76.2 140.75 76.55 139.6 76.8 138.55 77.1 137.5 77.55 136.35 77.85 135.35 Q78.6 132.65 78.55 130.4 78.5 129.45 78.85 128.6" fill="url(#gradient6)" fill-rule="evenodd" stroke="none"/>
    <path d="M-79.05 128.6 Q-78.7 129.45 -78.75 130.4 -78.8 132.65 -78.05 135.35 L-77.75 136.35 -77.3 137.5 -77.0 138.55 -76.75 139.6 -76.4 140.75 -75.5 143.2 -74.3 145.65 Q-73.45 147.0 -72.7 148.6 -72.1 149.75 -70.9 150.1 L-69.8 150.5 Q-69.4 150.7 -68.9 151.75 -68.9 152.8 -68.35 153.55 -68.15 153.75 -67.85 154.9 L-67.35 157.1 -67.15 159.25 Q-66.95 160.95 -67.35 163.75 -67.8 164.45 -68.65 164.1 -71.05 163.05 -73.0 161.4 L-73.95 160.55 Q-75.4 159.05 -77.05 156.55 -78.05 155.55 -78.3 154.25 -77.9 153.15 -78.3 152.1 L-77.25 153.3 Q-77.0 154.2 -75.8 154.4 L-74.4 154.6 Q-75.05 153.45 -75.4 151.75 -75.75 149.85 -76.35 148.25 L-77.45 145.3 -78.85 141.4 -79.05 128.6" fill="url(#gradient7)" fill-rule="evenodd" stroke="none"/>
  </g>
  <defs>
    <linearGradient gradientTransform="matrix(0.0, -0.2831, 0.1612, 0.0, -0.15, 29.4)" gradientUnits="userSpaceOnUse" id="gradient0" spreadMethod="pad" x1="-819.2" x2="819.2">
      <stop offset="0.0" stop-color="#000000" stop-opacity="0.2"/>
      <stop offset="1.0" stop-color="#000000" stop-opacity="0.0"/>
    </linearGradient>
    <linearGradient gradientTransform="matrix(0.0, 0.2662, -0.1413, 0.0, -0.1, 38.35)" gradientUnits="userSpaceOnUse" id="gradient1" spreadMethod="pad" x1="-819.2" x2="819.2">
      <stop offset="0.0" stop-color="#000000" stop-opacity="0.2"/>
      <stop offset="1.0" stop-color="#000000" stop-opacity="0.0"/>
    </linearGradient>
    <linearGradient gradientTransform="matrix(0.0, -0.0212, 0.011, 0.0, -79.6, -138.3)" gradientUnits="userSpaceOnUse" id="gradient2" spreadMethod="pad" x1="-819.2" x2="819.2">
      <stop offset="0.0" stop-color="#000000" stop-opacity="0.2"/>
      <stop offset="1.0" stop-color="#000000" stop-opacity="0.0"/>
    </linearGradient>
    <linearGradient gradientTransform="matrix(0.0, -0.0176, 0.0058, 0.0, -49.05, -151.35)" gradientUnits="userSpaceOnUse" id="gradient3" spreadMethod="pad" x1="-819.2" x2="819.2">
      <stop offset="0.0" stop-color="#000000" stop-opacity="0.2"/>
      <stop offset="1.0" stop-color="#000000" stop-opacity="0.0"/>
    </linearGradient>
    <linearGradient gradientTransform="matrix(0.0, -0.0212, 0.011, 0.0, 79.35, -138.3)" gradientUnits="userSpaceOnUse" id="gradient4" spreadMethod="pad" x1="-819.2" x2="819.2">
      <stop offset="0.0" stop-color="#000000" stop-opacity="0.2"/>
      <stop offset="1.0" stop-color="#000000" stop-opacity="0.0"/>
    </linearGradient>
    <linearGradient gradientTransform="matrix(0.0, -0.0176, 0.0058, 0.0, 48.8, -151.35)" gradientUnits="userSpaceOnUse" id="gradient5" spreadMethod="pad" x1="-819.2" x2="819.2">
      <stop offset="0.0" stop-color="#000000" stop-opacity="0.2"/>
      <stop offset="1.0" stop-color="#000000" stop-opacity="0.0"/>
    </linearGradient>
    <linearGradient gradientTransform="matrix(0.0, -0.0217, 0.0073, 0.0, 72.85, 146.4)" gradientUnits="userSpaceOnUse" id="gradient6" spreadMethod="pad" x1="-819.2" x2="819.2">
      <stop offset="0.0" stop-color="#000000" stop-opacity="0.2"/>
      <stop offset="1.0" stop-color="#000000" stop-opacity="0.0"/>
    </linearGradient>
    <linearGradient gradientTransform="matrix(0.0, -0.0217, 0.0073, 0.0, -73.1, 146.4)" gradientUnits="userSpaceOnUse" id="gradient7" spreadMethod="pad" x1="-819.2" x2="819.2">
      <stop offset="0.0" stop-color="#000000" stop-opacity="0.2"/>
      <stop offset="1.0" stop-color="#000000" stop-opacity="0.0"/>
    </linearGradient>
  </defs>
</svg>
