<?xml version="1.0" encoding="UTF-8" standalone="no"?>
<svg xmlns:xlink="http://www.w3.org/1999/xlink" height="121.75px" width="61.6px" xmlns="http://www.w3.org/2000/svg">
  <g transform="matrix(1.0, 0.0, 0.0, 1.0, -276.9, -263.7)">
    <path d="M327.0 318.4 Q324.25 318.4 322.3 316.45 320.4 314.55 320.4 311.8 320.4 309.05 322.3 307.1 324.25 305.2 327.0 305.2 329.7 305.2 331.65 307.1 333.6 309.05 333.6 311.8 333.6 314.55 331.65 316.45 329.7 318.4 327.0 318.4 M337.35 365.2 Q338.0 365.85 338.0 366.75 338.0 367.7 337.35 368.3 336.75 368.95 335.8 368.95 334.9 368.95 334.25 368.3 333.6 367.7 333.6 366.75 333.6 365.85 334.25 365.2 334.9 364.55 335.8 364.55 336.75 364.55 337.35 365.2 M283.45 266.4 Q283.45 267.35 282.8 267.95 282.2 268.6 281.25 268.6 280.35 268.6 279.7 267.95 279.05 267.35 279.05 266.4 279.05 265.5 279.7 264.85 280.35 264.2 281.25 264.2 282.2 264.2 282.8 264.85 283.45 265.5 283.45 266.4 M292.45 275.9 Q293.75 277.2 293.75 279.0 293.75 280.85 292.45 282.1 291.2 283.4 289.35 283.4 287.55 283.4 286.25 282.1 284.95 280.85 284.95 279.0 284.95 277.2 286.25 275.9 287.55 274.6 289.35 274.6 291.2 274.6 292.45 275.9 M288.65 293.9 Q290.5 295.75 290.6 298.3 L291.55 298.2 Q293.4 298.2 294.65 299.5 295.95 300.8 295.95 302.6 295.95 304.45 294.65 305.7 293.4 307.0 291.55 307.0 289.75 307.0 288.45 305.7 L287.45 304.25 Q285.9 305.2 284.0 305.2 281.25 305.2 279.3 303.25 277.4 301.35 277.4 298.6 277.4 295.85 279.3 293.9 281.25 292.0 284.0 292.0 286.7 292.0 288.65 293.9 M316.4 321.0 Q317.7 322.3 317.7 324.1 317.7 325.95 316.4 327.2 315.15 328.5 313.3 328.5 311.5 328.5 310.2 327.2 308.9 325.95 308.9 324.1 308.9 322.3 310.2 321.0 311.5 319.7 313.3 319.7 315.15 319.7 316.4 321.0 M287.45 304.25 Q287.15 303.5 287.15 302.6 287.15 300.8 288.45 299.5 289.4 298.55 290.6 298.3 M295.85 317.9 Q298.45 320.5 298.45 324.15 298.45 327.8 295.85 330.35 293.3 332.95 289.65 332.95 286.0 332.95 283.4 330.35 280.85 327.8 280.85 324.15 280.85 320.5 283.4 317.9 286.0 315.35 289.65 315.35 293.3 315.35 295.85 317.9 M300.3 345.75 Q301.6 347.05 301.6 348.85 301.6 350.7 300.3 351.95 299.05 353.25 297.2 353.25 295.4 353.25 294.1 351.95 292.8 350.7 292.8 348.85 292.8 347.05 294.1 345.75 295.4 344.45 297.2 344.45 299.05 344.45 300.3 345.75 M322.5 341.1 Q322.5 342.05 321.85 342.65 321.25 343.3 320.3 343.3 319.4 343.3 318.75 342.65 318.1 342.05 318.1 341.1 318.1 340.2 318.75 339.55 319.4 338.9 320.3 338.9 321.25 338.9 321.85 339.55 322.5 340.2 322.5 341.1 M308.9 366.35 Q308.9 364.55 310.2 363.25 311.5 361.95 313.3 361.95 L314.95 362.25 315.15 362.0 Q315.8 361.35 316.7 361.35 317.65 361.35 318.25 362.0 318.9 362.65 318.9 363.55 318.9 364.5 318.25 365.1 L317.65 365.55 317.7 366.35 Q317.7 368.2 316.4 369.45 315.15 370.75 313.3 370.75 311.5 370.75 310.2 369.45 308.9 368.2 308.9 366.35 M317.65 365.55 L316.7 365.75 Q315.8 365.75 315.15 365.1 314.5 364.5 314.5 363.55 314.5 362.8 314.95 362.25 M298.7 367.7 Q299.35 368.35 299.35 369.25 299.35 370.2 298.7 370.8 298.1 371.45 297.15 371.45 296.25 371.45 295.6 370.8 294.95 370.2 294.95 369.25 294.95 368.35 295.6 367.7 296.25 367.05 297.15 367.05 298.1 367.05 298.7 367.7 M317.05 381.2 Q317.7 381.85 317.7 382.75 317.7 383.7 317.05 384.3 316.45 384.95 315.5 384.95 314.6 384.95 313.95 384.3 313.3 383.7 313.3 382.75 313.3 381.85 313.95 381.2 314.6 380.55 315.5 380.55 316.45 380.55 317.05 381.2" fill="none" stroke="#000000" stroke-linecap="round" stroke-linejoin="round" stroke-opacity="0.2509804" stroke-width="1.0"/>
  </g>
</svg>
