<?xml version="1.0" encoding="UTF-8" standalone="no"?>
<svg xmlns:xlink="http://www.w3.org/1999/xlink" height="156.75px" width="83.6px" xmlns="http://www.w3.org/2000/svg">
  <g transform="matrix(1.0, 0.0, 0.0, 1.0, 0.5, 0.5)">
    <path d="M76.9 70.2 L75.35 61.7 63.8 44.1 56.55 46.2 42.85 64.55 44.9 93.65 57.1 98.9 63.25 104.15 70.6 106.5 76.9 88.85 76.9 70.2 M44.9 93.65 L29.55 98.0 23.55 106.85 23.55 125.15 34.3 145.0 42.85 140.25 55.1 142.6 65.25 137.35 76.2 137.15 82.6 142.5 78.8 116.3 70.6 106.5 M82.6 142.5 L77.2 145.65 70.25 146.9 66.45 153.85 58.9 155.75 34.3 150.4 34.3 145.0 M23.55 106.85 L10.65 72.75 12.4 72.0 0.0 44.5 7.5 49.3 5.35 45.55 15.35 48.5 21.95 59.15 23.55 49.35 13.25 28.55 14.75 18.3 6.65 0.0 15.6 4.5 20.8 13.35 22.0 13.4 Q38.9 15.6 51.65 21.0 L60.2 38.65 63.8 44.1 M20.8 13.35 Q18.9 13.8 19.2 18.65 L19.45 21.3 19.45 30.45 28.0 38.05 42.85 64.55 M12.4 72.0 L17.25 69.9 18.75 66.8 12.5 52.45 7.5 49.3 M19.45 30.45 L23.9 47.15 23.55 49.35 M21.95 59.15 L21.7 60.75 18.75 66.8" fill="none" stroke="#ffffff" stroke-linecap="round" stroke-linejoin="round" stroke-width="1.0"/>
  </g>
</svg>
