<?xml version="1.0" encoding="UTF-8" standalone="no"?>
<svg xmlns:xlink="http://www.w3.org/1999/xlink" height="25.8px" width="47.25px" xmlns="http://www.w3.org/2000/svg">
  <g transform="matrix(1.0, 0.0, 0.0, 1.0, -376.3, -209.2)">
    <path d="M395.65 226.55 L395.6 226.55 Q391.6 224.75 388.95 228.95 387.6 231.0 386.65 234.5 381.05 226.4 376.85 217.95 L376.8 217.9 383.95 209.8 383.35 215.1 Q388.25 222.15 395.65 226.55 398.85 228.4 399.9 232.15 400.95 228.35 404.2 226.55 411.6 222.15 416.25 215.1 L415.7 209.7 423.05 217.9 423.0 217.95 Q418.75 226.4 413.2 234.5 412.2 231.0 410.9 228.95 408.25 224.75 404.2 226.55" fill="none" stroke="#000000" stroke-linecap="round" stroke-linejoin="round" stroke-width="1.0"/>
  </g>
</svg>
