<?xml version="1.0" encoding="UTF-8" standalone="no"?>
<svg xmlns:xlink="http://www.w3.org/1999/xlink" height="214.9px" width="75.75px" xmlns="http://www.w3.org/2000/svg">
  <g transform="matrix(1.0, 0.0, 0.0, 1.0, -362.1, -308.0)">
    <path d="M371.35 517.6 L366.45 514.0 370.0 511.5 365.8 506.9 369.15 497.9 365.6 489.9 366.65 430.85 368.6 419.45 Q356.65 357.6 368.6 327.2 372.35 316.8 380.2 308.5 M396.85 350.4 L403.05 350.4 408.55 421.25 405.8 424.15 407.85 429.3 Q405.85 437.2 405.05 445.65 L412.95 495.15 411.05 502.7 414.2 506.9 412.5 515.05 416.85 522.4 M428.55 517.6 L433.45 514.0 429.9 511.5 434.15 506.9 430.75 497.9 434.35 489.9 433.3 430.85 431.35 419.45 Q443.25 358.1 431.55 327.75 L431.35 327.2 Q427.55 316.8 419.7 308.5 M383.05 522.4 L387.4 515.05 385.7 506.9 388.85 502.7 386.95 495.15 394.85 445.65 Q394.05 437.2 392.1 429.3 L394.1 424.15 391.4 421.25 396.85 350.4" fill="none" stroke="#000000" stroke-linecap="round" stroke-linejoin="round" stroke-width="1.0"/>
    <path d="M403.05 350.4 Q407.3 344.65 412.25 339.7 M396.85 350.4 Q392.6 344.65 387.65 339.7 M416.85 522.4 L416.9 522.4 Q421.65 518.65 428.55 517.6 M371.35 517.6 Q378.25 518.65 383.05 522.4" fill="none" stroke="#000000" stroke-linecap="round" stroke-linejoin="round" stroke-opacity="0.5019608" stroke-width="1.0"/>
  </g>
</svg>
