<?xml version="1.0" encoding="UTF-8" standalone="no"?>
<svg xmlns:xlink="http://www.w3.org/1999/xlink" height="152.5px" width="77.5px" xmlns="http://www.w3.org/2000/svg">
  <g transform="matrix(1.0, 0.0, 0.0, 1.0, -361.5, -308.0)">
    <path d="M380.2 308.5 Q371.0 318.25 367.4 330.85 362.5 347.8 366.1 379.45 367.75 402.0 368.85 424.1 L365.5 437.35 Q360.6 449.25 362.6 460.0 363.95 453.5 367.75 449.45 368.75 448.4 369.9 447.55 371.4 446.4 373.15 445.55 377.65 448.85 377.95 454.3 384.95 450.4 387.25 446.45 388.55 448.8 389.35 451.15 390.7 455.05 390.8 458.9 L390.8 459.3 Q393.05 453.85 393.95 448.55 394.45 445.6 394.55 442.75 L394.55 442.3 397.1 444.1 Q396.45 434.15 392.45 424.8 L398.0 431.25 Q393.25 409.2 394.1 386.4 L396.85 350.4 403.05 350.4 407.1 402.35 Q407.85 415.5 404.7 428.7 401.45 435.3 402.7 445.0 403.95 442.65 405.65 440.75 406.55 439.7 407.6 438.8 408.75 437.8 410.0 436.95 408.8 442.6 409.05 448.25 409.3 453.35 410.75 458.4 411.4 456.1 412.4 453.95 414.75 448.75 418.95 444.65 423.9 450.1 425.75 455.55 429.9 449.95 429.7 443.75 L430.15 444.1 432.75 446.15 Q436.75 449.5 438.5 452.5 437.3 440.15 432.55 426.8 429.55 413.55 431.05 398.85 438.85 352.65 432.5 330.85 428.9 318.25 419.7 308.5" fill="none" stroke="#000000" stroke-linecap="round" stroke-linejoin="round" stroke-width="1.0"/>
    <path d="M396.85 350.4 Q392.6 344.65 387.65 339.7 M373.95 372.95 Q377.15 361.15 376.2 350.75 370.35 363.6 373.95 372.95 M403.05 350.4 Q407.3 344.65 412.25 339.7 M427.05 392.85 Q427.15 372.6 423.5 356.3 421.2 379.35 427.05 392.85" fill="none" stroke="#000000" stroke-linecap="round" stroke-linejoin="round" stroke-opacity="0.5019608" stroke-width="1.0"/>
  </g>
</svg>
