<?xml version="1.0" encoding="UTF-8" standalone="no"?>
<svg xmlns:xlink="http://www.w3.org/1999/xlink" height="203.6px" width="107.8px" xmlns="http://www.w3.org/2000/svg">
  <g transform="matrix(1.0, 0.0, 0.0, 1.0, -346.1, -308.0)">
    <path d="M380.2 308.5 Q373.2 315.9 369.5 324.95 368.25 327.8 367.4 330.85 366.5 333.9 365.9 337.45 363.45 347.5 362.0 358.6 361.25 364.3 360.8 370.3 358.5 399.0 355.3 428.45 351.6 462.35 346.6 497.3 370.6 512.9 400.0 510.85 429.4 512.9 453.4 497.3 448.4 462.35 444.7 428.45 441.5 399.0 439.25 370.3 L438.0 358.6 Q436.5 347.1 433.9 336.75 L432.5 330.85 430.7 325.55 Q426.9 316.15 419.7 308.5" fill="none" stroke="#000000" stroke-linecap="round" stroke-linejoin="round" stroke-width="1.0"/>
  </g>
</svg>
