<?xml version="1.0" encoding="UTF-8" standalone="no"?>
<svg xmlns:xlink="http://www.w3.org/1999/xlink" height="165.25px" width="87.55px" xmlns="http://www.w3.org/2000/svg">
  <g transform="matrix(1.0, 0.0, 0.0, 1.0, -278.4, -345.9)">
    <path d="M355.9 380.1 L355.85 380.1 355.85 380.2 355.75 380.4 354.9 381.5 333.65 373.55 336.1 366.75 357.9 375.05 356.95 377.8 355.9 380.1 M281.25 345.95 L296.45 351.7 293.55 358.85 278.65 353.55 Q277.55 348.8 281.15 345.9 L281.25 345.95 M365.95 428.1 L365.75 451.2 358.5 451.25 358.85 427.9 365.95 427.9 365.95 428.1 M357.95 493.7 L365.65 493.95 365.75 509.75 Q361.65 512.4 357.75 510.0 L357.95 493.7" fill="#ffffff" fill-rule="evenodd" stroke="none"/>
  </g>
</svg>
