<?xml version="1.0" encoding="UTF-8" standalone="no"?>
<svg xmlns:xlink="http://www.w3.org/1999/xlink" height="93.5px" width="215.9px" xmlns="http://www.w3.org/2000/svg">
  <g transform="matrix(1.0, 0.0, 0.0, 1.0, 147.75, -37.5)">
    <path d="M37.15 107.55 L67.3 118.5 66.9 119.75 66.4 121.0 36.25 110.05 36.05 109.95 26.9 106.6 27.4 105.4 27.8 104.1 36.95 107.45 37.15 107.55" fill="url(#gradient0)" fill-rule="evenodd" stroke="none"/>
    <path d="M61.7 101.55 Q63.75 111.0 68.15 114.85 L63.1 113.0 Q61.55 111.2 60.45 108.75 L52.3 109.05 28.65 100.45 28.7 99.9 37.45 102.95 38.65 103.4 38.7 103.4 Q51.9 108.4 61.7 101.55" fill="url(#gradient1)" fill-rule="evenodd" stroke="none"/>
    <path d="M59.3 101.0 Q53.15 105.3 44.6 104.4 53.35 104.0 58.25 99.3 L59.3 101.0" fill="url(#gradient2)" fill-rule="evenodd" stroke="none"/>
    <path d="M37.15 107.55 L36.95 107.45 27.8 104.1 28.4 101.85 41.15 106.5 Q47.0 108.6 52.3 109.05 L60.45 108.75 59.55 112.15 Q53.75 113.15 37.15 107.55" fill="url(#gradient3)" fill-rule="evenodd" stroke="none"/>
    <path d="M44.6 104.4 Q53.15 105.3 59.3 101.0 L60.7 99.9 61.7 101.55 Q51.9 108.4 38.7 103.4 L38.7 103.3 44.6 104.4" fill="url(#gradient4)" fill-rule="evenodd" stroke="none"/>
    <path d="M54.85 124.05 Q57.25 122.9 59.6 122.5 L64.65 124.35 Q58.85 124.4 51.2 130.35 48.1 118.8 34.75 114.2 34.2 113.95 33.5 113.8 L24.9 110.45 25.15 109.95 48.8 118.55 Q52.35 121.05 54.85 124.05" fill="url(#gradient5)" fill-rule="evenodd" stroke="none"/>
    <path d="M26.9 106.6 L36.05 109.95 36.25 110.05 Q52.55 116.4 56.35 120.9 L54.85 124.05 Q52.35 121.05 48.8 118.55 44.5 115.55 38.65 113.45 L25.9 108.8 26.9 106.6" fill="url(#gradient6)" fill-rule="evenodd" stroke="none"/>
    <path d="M-54.15 70.15 L25.15 99.0 Q25.2 100.8 24.1 104.2 22.75 107.5 21.55 108.85 L-57.75 80.0 Q-58.15 78.55 -56.75 74.75 L-56.6 74.45 Q-55.3 70.9 -54.15 70.15" fill="url(#gradient7)" fill-rule="evenodd" stroke="none"/>
    <path d="M-54.15 70.15 Q-55.3 70.9 -56.6 74.45 L-56.75 74.75 Q-58.15 78.55 -57.75 80.0 -60.1 80.4 -61.15 78.75 -61.15 76.1 -59.95 73.2 L-59.95 73.1 Q-58.75 70.05 -57.55 68.9 -55.7 68.3 -54.15 70.15" fill="url(#gradient8)" fill-rule="evenodd" stroke="none"/>
    <path d="M-61.15 78.75 L-145.15 48.2 Q-145.8 46.5 -144.6 42.8 L-144.3 42.1 Q-143.05 39.1 -141.55 38.35 L-57.55 68.9 Q-58.75 70.05 -59.95 73.1 L-59.95 73.2 Q-61.15 76.1 -61.15 78.75" fill="url(#gradient9)" fill-rule="evenodd" stroke="none"/>
    <path d="M-145.15 48.2 Q-146.9 48.8 -147.65 46.05 -148.0 43.9 -147.3 41.8 L-147.0 41.1 Q-146.2 39.5 -144.85 38.35 -142.5 36.7 -141.55 38.35 -143.05 39.1 -144.3 42.1 L-144.6 42.8 Q-145.8 46.5 -145.15 48.2" fill="url(#gradient10)" fill-rule="evenodd" stroke="none"/>
    <path d="M66.4 121.0 Q59.4 119.2 56.35 120.9 52.55 116.4 36.25 110.05 L66.4 121.0 M25.15 98.3 L25.25 98.25 Q25.35 98.05 25.6 98.05 27.25 98.25 28.65 99.15 L28.7 99.9 37.45 102.95 38.65 103.4 Q51.9 108.4 61.7 101.55 63.75 111.0 68.15 114.85 L63.1 113.0 Q61.55 111.2 60.45 108.75 L52.3 109.05 Q47.0 108.6 41.15 106.5 L28.4 101.85 27.8 104.1 27.4 105.4 26.9 106.6 25.9 108.8 38.65 113.45 Q44.5 115.55 48.8 118.55 52.35 121.05 54.85 124.05 57.25 122.9 59.6 122.5 L65.55 122.9 64.65 124.35 Q58.85 124.4 51.2 130.35 L49.4 131.0 49.0 129.3 47.15 129.9 Q46.45 123.1 40.0 117.2 37.65 115.55 34.7 114.3 L34.75 114.2 Q34.2 113.95 33.5 113.8 L24.9 110.45 24.35 111.0 Q22.7 110.75 21.3 109.9 L21.15 109.45 21.1 109.4 21.2 109.15 21.5 108.9 21.55 108.85 -57.75 80.0 Q-60.1 80.4 -61.15 78.75 L-145.15 48.2 Q-146.9 48.8 -147.65 46.05 -148.0 43.9 -147.3 41.8 L-147.0 41.1 24.1 104.2 Q25.2 100.8 25.15 99.0 L25.1 98.9 25.05 98.6 25.15 98.3 M67.3 118.5 L37.15 107.55 Q53.75 113.15 59.55 112.15 60.8 115.4 67.3 118.5" fill="#000000" fill-opacity="0.2" fill-rule="evenodd" stroke="none"/>
  </g>
  <defs>
    <linearGradient gradientTransform="matrix(0.0, 0.0103, -0.0247, 0.0, 47.1, 112.55)" gradientUnits="userSpaceOnUse" id="gradient0" spreadMethod="pad" x1="-819.2" x2="819.2">
      <stop offset="0.0" stop-color="#000000" stop-opacity="0.2509804"/>
      <stop offset="1.0" stop-color="#000000" stop-opacity="0.0"/>
    </linearGradient>
    <linearGradient gradientTransform="matrix(0.0, 0.0091, -0.0241, 0.0, 48.4, 107.35)" gradientUnits="userSpaceOnUse" id="gradient1" spreadMethod="pad" x1="-819.2" x2="819.2">
      <stop offset="0.0" stop-color="#000000" stop-opacity="0.2509804"/>
      <stop offset="1.0" stop-color="#000000" stop-opacity="0.0"/>
    </linearGradient>
    <linearGradient gradientTransform="matrix(0.0, 0.0032, -0.009, 0.0, 51.95, 101.9)" gradientUnits="userSpaceOnUse" id="gradient2" spreadMethod="pad" x1="-819.2" x2="819.2">
      <stop offset="0.0" stop-color="#000000" stop-opacity="0.2509804"/>
      <stop offset="1.0" stop-color="#000000" stop-opacity="0.0"/>
    </linearGradient>
    <linearGradient gradientTransform="matrix(0.0, 0.0064, -0.0199, 0.0, 44.15, 107.05)" gradientUnits="userSpaceOnUse" id="gradient3" spreadMethod="pad" x1="-819.2" x2="819.2">
      <stop offset="0.0" stop-color="#000000" stop-opacity="0.2509804"/>
      <stop offset="1.0" stop-color="#000000" stop-opacity="0.0"/>
    </linearGradient>
    <linearGradient gradientTransform="matrix(0.0, 0.0034, -0.014, 0.0, 50.2, 102.7)" gradientUnits="userSpaceOnUse" id="gradient4" spreadMethod="pad" x1="-819.2" x2="819.2">
      <stop offset="0.0" stop-color="#000000" stop-opacity="0.2509804"/>
      <stop offset="1.0" stop-color="#000000" stop-opacity="0.0"/>
    </linearGradient>
    <linearGradient gradientTransform="matrix(0.0, 0.0125, -0.0243, 0.0, 44.8, 120.15)" gradientUnits="userSpaceOnUse" id="gradient5" spreadMethod="pad" x1="-819.2" x2="819.2">
      <stop offset="0.0" stop-color="#000000" stop-opacity="0.2509804"/>
      <stop offset="1.0" stop-color="#000000" stop-opacity="0.0"/>
    </linearGradient>
    <linearGradient gradientTransform="matrix(0.0, 0.0107, -0.0186, 0.0, 41.15, 115.3)" gradientUnits="userSpaceOnUse" id="gradient6" spreadMethod="pad" x1="-819.2" x2="819.2">
      <stop offset="0.0" stop-color="#000000" stop-opacity="0.2509804"/>
      <stop offset="1.0" stop-color="#000000" stop-opacity="0.0"/>
    </linearGradient>
    <linearGradient gradientTransform="matrix(0.0, 0.0236, -0.0507, 0.0, -16.35, 89.5)" gradientUnits="userSpaceOnUse" id="gradient7" spreadMethod="pad" x1="-819.2" x2="819.2">
      <stop offset="0.0" stop-color="#000000" stop-opacity="0.2509804"/>
      <stop offset="1.0" stop-color="#000000" stop-opacity="0.0"/>
    </linearGradient>
    <linearGradient gradientTransform="matrix(0.0, 0.0069, -0.0043, 0.0, -57.65, 74.4)" gradientUnits="userSpaceOnUse" id="gradient8" spreadMethod="pad" x1="-819.2" x2="819.2">
      <stop offset="0.0" stop-color="#000000" stop-opacity="0.2509804"/>
      <stop offset="1.0" stop-color="#000000" stop-opacity="0.0"/>
    </linearGradient>
    <linearGradient gradientTransform="matrix(0.0, 0.0247, -0.0536, 0.0, -101.45, 58.55)" gradientUnits="userSpaceOnUse" id="gradient9" spreadMethod="pad" x1="-819.2" x2="819.2">
      <stop offset="0.0" stop-color="#000000" stop-opacity="0.2509804"/>
      <stop offset="1.0" stop-color="#000000" stop-opacity="0.0"/>
    </linearGradient>
    <linearGradient gradientTransform="matrix(0.0, 0.0066, -0.0038, 0.0, -144.65, 42.9)" gradientUnits="userSpaceOnUse" id="gradient10" spreadMethod="pad" x1="-819.2" x2="819.2">
      <stop offset="0.0" stop-color="#000000" stop-opacity="0.2509804"/>
      <stop offset="1.0" stop-color="#000000" stop-opacity="0.0"/>
    </linearGradient>
  </defs>
</svg>
