<?xml version="1.0" encoding="UTF-8" standalone="no"?>
<svg xmlns:xlink="http://www.w3.org/1999/xlink" height="138.5px" width="123.3px" xmlns="http://www.w3.org/2000/svg">
  <g transform="matrix(1.0, 0.0, 0.0, 1.0, -338.25, -88.85)">
    <path d="M364.6 97.3 Q368.7 94.35 373.15 92.45 376.7 96.7 379.4 101.65 382.15 106.7 383.35 112.5 383.8 114.75 383.85 117.15 L378.6 118.85 Q376.05 106.4 364.6 97.3 M435.15 97.3 L435.1 97.35 Q423.7 106.4 421.25 118.85 L421.1 118.85 415.9 117.15 Q415.95 114.75 416.5 112.5 417.6 106.7 420.4 101.65 423.05 96.75 426.65 92.55 L426.65 92.45 Q431.05 94.35 435.15 97.3 M412.2 88.95 L412.85 89.0 415.7 89.35 415.7 89.4 Q414.15 92.35 412.85 95.25 L412.4 96.45 412.25 96.7 411.75 97.85 Q408.15 106.7 407.0 115.55 L402.6 115.15 402.7 114.65 Q403.55 111.45 403.55 107.5 L403.35 104.9 403.3 104.6 Q404.65 100.35 407.0 99.1 409.1 98.05 409.65 97.35 L409.8 97.1 410.05 96.7 410.6 95.85 410.85 94.75 Q410.85 93.65 410.5 92.8 410.5 91.6 409.95 90.65 409.2 89.5 408.1 88.9 L412.2 88.95 M389.85 90.3 Q389.05 91.35 389.05 92.75 388.75 93.65 388.75 94.75 L389.0 95.8 389.8 97.1 Q390.15 97.85 392.5 99.1 394.85 100.35 396.3 104.55 L396.2 104.9 396.0 107.4 Q395.95 111.45 396.8 114.65 L397.0 115.15 392.7 115.55 Q391.55 106.65 387.95 97.75 L387.55 96.8 387.45 96.45 386.9 95.25 384.05 89.35 386.9 89.0 387.55 88.95 391.45 88.85 Q390.5 89.4 389.85 90.3 M371.0 110.15 L356.8 108.0 357.95 105.2 361.5 99.9 Q365.1 102.55 367.85 105.8 L371.0 110.15 M375.3 120.35 L376.15 124.75 350.85 123.2 353.75 115.75 374.55 117.8 375.3 120.35 M379.1 139.6 L345.05 139.35 347.9 130.75 377.7 132.55 379.1 139.6 M354.85 172.1 L359.9 171.75 369.95 171.25 382.05 170.9 382.15 177.4 353.85 178.15 353.7 177.9 352.65 176.1 350.8 174.3 350.25 173.9 347.8 172.75 354.85 172.1 M342.25 166.75 L338.25 167.1 Q338.6 164.35 339.1 161.7 L383.35 160.8 383.85 163.45 383.95 164.7 381.85 164.7 346.3 166.5 342.25 166.75 M340.95 153.2 L342.8 146.95 380.6 147.05 382.0 153.95 340.55 154.5 340.95 153.2 M356.25 185.55 L356.25 185.5 355.5 182.95 382.25 181.95 382.35 187.45 356.7 187.9 356.5 186.65 356.25 185.55 M448.9 123.2 L448.85 123.2 423.7 124.75 Q423.95 122.5 424.55 120.35 L425.25 117.8 445.95 115.75 446.0 115.75 448.9 123.2 M382.5 192.05 L382.55 197.2 358.0 198.3 357.35 193.2 382.5 192.05 M454.75 139.35 L420.7 139.6 422.15 132.55 451.9 130.75 454.75 139.35 M428.75 110.15 Q430.15 107.8 431.95 105.8 434.6 102.55 438.2 99.95 L438.25 99.9 441.85 105.2 442.95 108.0 442.9 108.0 428.75 110.15 M419.2 147.05 L457.0 146.95 458.85 153.2 459.25 154.5 417.85 153.95 419.2 147.15 419.2 147.05 M415.95 163.45 L416.5 160.8 460.75 161.7 461.55 167.1 461.45 167.1 457.55 166.75 453.45 166.5 417.9 164.7 415.9 164.7 415.95 163.45 M429.8 171.25 L439.9 171.75 444.9 172.1 452.0 172.75 449.5 173.9 449.0 174.3 447.15 176.1 Q446.5 176.9 446.15 177.9 L446.0 178.15 417.65 177.4 417.7 170.9 429.8 171.25 M417.35 192.05 L442.4 193.2 441.75 198.3 417.25 197.2 417.35 192.05 M417.4 187.45 L417.55 181.95 444.3 182.95 443.6 185.5 443.6 185.55 443.25 186.65 443.15 187.9 417.4 187.45 M440.55 208.05 L417.15 207.25 417.2 202.05 441.1 203.4 440.55 208.05 M437.1 218.2 L417.05 217.4 417.05 212.15 438.8 213.55 438.0 215.7 437.1 218.2 M382.7 212.15 L382.75 217.4 362.65 218.2 361.75 215.7 361.05 213.55 382.7 212.15 M382.55 202.05 L382.65 207.25 359.25 208.05 358.65 203.4 382.55 202.05 M432.5 226.5 L431.45 227.35 431.3 227.35 416.95 226.15 417.0 221.75 435.2 223.0 433.85 225.15 432.5 226.5 M382.8 221.75 L382.8 226.15 368.4 227.35 367.35 226.5 365.9 225.15 364.55 223.0 382.8 221.75" fill="#000000" fill-rule="evenodd" stroke="none"/>
  </g>
</svg>
