<?xml version="1.0" encoding="UTF-8" standalone="no"?>
<svg xmlns:xlink="http://www.w3.org/1999/xlink" height="93.2px" width="80.75px" xmlns="http://www.w3.org/2000/svg">
  <g transform="matrix(1.0, 0.0, 0.0, 1.0, -359.35, -74.55)">
    <path d="M437.8 97.6 L440.1 93.05 Q439.1 107.2 434.1 121.45 430.4 122.75 428.5 127.3 L427.3 136.15 Q426.0 133.3 423.7 132.5 L421.05 159.8 413.35 167.75 413.35 149.6 418.55 145.05 Q419.5 140.7 419.85 136.55 L419.85 137.25 Q420.45 133.85 420.2 130.7 L419.75 127.5 Q417.85 120.55 411.4 122.25 411.4 119.45 411.7 116.9 412.6 107.8 416.8 102.55 L434.7 74.55 Q435.25 81.8 433.65 89.35 L437.2 82.35 Q437.15 87.05 436.3 92.1 L438.9 86.8 Q438.65 92.2 437.8 97.6 M360.55 86.8 L363.15 92.1 Q362.3 87.05 362.2 82.35 L365.8 89.35 Q364.15 81.8 364.75 74.55 L382.65 102.55 Q386.85 107.8 387.75 116.9 L388.0 122.25 Q381.6 120.55 379.7 127.5 379.4 129.05 379.25 130.7 379.0 133.85 379.55 137.25 L379.55 136.55 Q379.95 140.7 380.85 145.05 L386.05 149.6 386.05 167.75 378.4 159.8 375.75 132.5 Q373.45 133.3 372.15 136.15 L370.95 127.3 Q369.05 122.75 365.35 121.45 360.35 107.2 359.35 93.05 L361.65 97.6 Q360.8 92.2 360.55 86.8" fill="#000000" fill-rule="evenodd" stroke="none"/>
  </g>
</svg>
