<?xml version="1.0" encoding="UTF-8" standalone="no"?>
<svg xmlns:xlink="http://www.w3.org/1999/xlink" height="78.2px" width="81.7px" xmlns="http://www.w3.org/2000/svg">
  <g transform="matrix(1.0, 0.0, 0.0, 1.0, -358.8, -104.15)">
    <path d="M385.1 119.7 L385.1 106.25 391.2 104.15 391.2 118.1 385.1 119.7 M383.4 143.8 L382.75 143.45 Q381.0 142.2 380.2 140.75 379.0 138.1 378.9 136.6 378.45 133.95 378.9 131.35 380.35 128.6 382.3 127.7 384.25 126.85 387.2 127.3 390.1 127.75 392.1 128.75 393.5 129.3 394.45 131.0 395.15 132.55 394.9 134.8 394.45 136.65 392.95 138.75 391.65 140.5 389.8 141.85 L386.35 143.8 Q384.95 144.2 383.4 143.8 M404.85 131.0 Q405.85 129.3 407.2 128.75 409.2 127.75 412.15 127.3 415.05 126.85 417.0 127.7 418.95 128.6 420.4 131.35 420.85 133.95 420.4 136.6 420.3 138.1 419.1 140.75 418.3 142.2 416.55 143.45 L415.9 143.8 Q414.35 144.2 413.0 143.8 L409.55 141.85 Q407.65 140.5 406.35 138.75 404.85 136.65 404.4 134.8 404.15 132.55 404.85 131.0 M398.1 147.7 L398.1 145.2 401.2 145.2 401.2 147.7 398.1 147.7 M359.35 155.85 L373.35 150.4 Q374.75 150.85 375.85 152.2 L379.45 157.6 380.8 157.15 380.95 153.95 386.55 151.75 Q388.55 152.4 390.05 155.05 L392.75 160.15 Q394.25 163.3 394.05 166.3 L388.3 168.4 388.0 168.45 385.25 166.45 384.25 166.95 385.35 172.6 Q385.5 174.9 384.5 176.9 L369.7 182.35 Q364.8 179.05 362.1 173.85 360.7 171.1 359.8 168.2 L359.3 166.3 Q358.9 165.0 358.85 163.65 358.65 159.7 359.35 155.85 M403.05 152.8 L396.3 152.8 396.3 150.05 403.05 150.05 403.05 152.8 M399.7 154.2 L400.2 154.2 Q401.4 154.3 402.45 154.8 L403.45 155.45 404.1 156.3 Q404.75 157.2 404.85 158.25 L404.85 158.55 Q404.85 160.0 403.9 161.1 L403.3 161.7 401.5 162.8 400.75 162.95 399.7 163.0 399.6 163.0 398.7 163.0 Q397.5 162.8 396.6 162.2 L395.9 161.7 395.1 160.85 Q394.4 159.85 394.35 158.7 L394.35 158.55 Q394.35 157.2 395.25 156.15 L395.9 155.45 Q397.0 154.6 398.3 154.3 L399.6 154.2 399.7 154.2 M414.2 106.25 L414.2 119.7 408.1 118.1 408.1 104.15 414.2 106.25 M439.5 168.2 Q438.6 171.1 437.2 173.85 434.5 179.05 429.6 182.35 L414.8 176.9 Q413.8 174.9 413.95 172.6 L415.05 166.95 414.1 166.45 411.3 168.45 411.05 168.4 405.25 166.3 Q405.05 163.3 406.6 160.15 L409.3 155.05 Q410.75 152.4 412.8 151.75 L418.35 153.95 418.5 157.15 419.85 157.6 Q421.6 154.6 423.45 152.2 424.55 150.85 426.0 150.4 L439.95 155.85 Q440.65 159.7 440.45 163.65 L440.0 166.3 439.5 168.2" fill="#000000" fill-rule="evenodd" stroke="none"/>
  </g>
</svg>
