<?xml version="1.0" encoding="UTF-8" standalone="no"?>
<svg xmlns:xlink="http://www.w3.org/1999/xlink" height="67.25px" width="40.85px" xmlns="http://www.w3.org/2000/svg">
  <g transform="matrix(1.0, 0.0, 0.0, 1.0, -393.3, -97.45)">
    <path d="M403.25 153.9 L403.25 155.45 407.15 156.05 407.65 157.25 Q408.45 159.6 407.65 161.95 L406.8 163.85 Q400.55 165.55 394.35 163.85 392.3 159.95 394.35 156.05 L397.0 155.6 397.0 153.9 Q398.55 153.1 400.1 153.1 401.65 153.1 403.25 153.9 M428.65 111.25 Q425.4 105.0 421.1 99.4 423.4 98.85 425.5 97.45 429.75 102.8 432.75 108.8 430.9 111.5 428.65 111.25 M429.5 131.35 Q432.1 130.3 434.15 131.8 L433.7 135.55 Q431.95 135.8 429.25 134.6 L429.5 131.35" fill="#000000" fill-rule="evenodd" stroke="none"/>
  </g>
</svg>
