<?xml version="1.0" encoding="UTF-8" standalone="no"?>
<svg xmlns:xlink="http://www.w3.org/1999/xlink" height="36.85px" width="107.2px" xmlns="http://www.w3.org/2000/svg">
  <g transform="matrix(1.0, 0.0, 0.0, 1.0, -317.4, -106.1)">
    <path d="M390.5 123.55 Q383.2 124.5 375.6 127.35 373.0 128.65 371.75 129.9 L370.55 131.35 Q367.7 134.85 366.1 138.6 363.5 142.5 360.05 142.45 L357.55 142.0 355.6 141.0 354.3 140.05 Q351.75 137.95 350.2 135.75 L350.05 135.55 Q345.2 130.05 334.8 130.45 341.4 122.7 350.95 130.5 L351.6 131.0 Q358.05 136.3 363.4 130.45 367.05 126.0 370.55 124.6 L370.65 124.6 Q371.7 124.1 372.75 124.0 L370.55 123.95 Q367.35 123.75 364.45 122.65 350.5 117.7 343.5 122.05 339.25 117.8 334.25 115.15 330.0 112.9 325.1 111.7 L317.9 110.65 317.9 109.95 Q341.7 101.55 363.4 114.1 366.95 116.5 370.55 118.35 372.7 119.45 375.95 120.3 376.15 117.25 376.5 115.1 387.5 112.3 399.9 112.4 412.35 112.3 423.2 115.1 423.9 119.3 424.1 127.3 416.6 124.5 409.45 123.55 L400.0 123.1 390.5 123.55 M375.6 127.35 L375.75 123.8 375.95 120.3" fill="none" stroke="#000000" stroke-linecap="round" stroke-linejoin="round" stroke-width="1.0"/>
    <path d="M375.75 123.8 L373.9 123.95 372.75 124.0 M350.05 135.55 Q349.2 134.25 348.7 133.05 345.0 124.1 334.8 130.45" fill="none" stroke="#000000" stroke-linecap="round" stroke-linejoin="round" stroke-opacity="0.5019608" stroke-width="1.0"/>
  </g>
</svg>
