<?xml version="1.0" encoding="UTF-8" standalone="no"?>
<svg xmlns:xlink="http://www.w3.org/1999/xlink" height="67.2px" width="61.85px" xmlns="http://www.w3.org/2000/svg">
  <g transform="matrix(1.0, 0.0, 0.0, 1.0, -369.0, -83.95)">
    <path d="M398.55 99.05 L399.9 98.9 399.9 84.45 M378.8 116.65 L379.05 117.95 378.8 119.25 378.15 119.75 Q377.75 119.75 377.5 119.25 377.25 118.75 377.25 117.95 377.25 117.15 377.5 116.65 377.75 116.15 378.15 116.15 L378.8 116.65 M369.5 147.9 Q374.45 142.6 375.0 139.85 L375.5 136.2 M380.95 124.9 Q390.15 122.95 399.9 123.0 409.65 122.95 418.9 124.9 M379.55 124.85 Q390.25 119.05 399.9 119.1 409.6 119.05 420.25 124.85 M421.05 116.65 Q420.8 117.15 420.8 117.95 420.8 118.75 421.05 119.25 421.3 119.75 421.7 119.75 L422.35 119.25 422.6 117.95 422.35 116.65 Q422.1 116.15 421.7 116.15 421.3 116.15 421.05 116.65 M424.35 136.2 L424.8 139.85 Q425.4 142.6 430.35 147.9 M399.9 98.9 L401.3 99.05" fill="none" stroke="#000000" stroke-linecap="round" stroke-linejoin="round" stroke-opacity="0.5019608" stroke-width="1.0"/>
    <path d="M399.9 84.45 L395.8 95.85 Q397.85 96.1 398.55 96.9 L398.55 99.05 M399.9 84.45 L404.0 95.85 Q402.0 96.1 401.3 96.9 L401.3 99.05 Q409.75 99.7 415.9 102.4 423.65 105.6 425.6 112.25 L425.6 125.4 430.35 147.9 Q425.8 150.6 421.55 150.65 L424.35 136.2 423.85 132.45 Q422.45 125.95 420.45 124.9 L420.4 124.9 420.25 124.85 418.9 124.9 Q409.3 127.55 399.9 127.65 390.55 127.55 380.95 124.9 L379.55 124.85 379.45 124.9 379.4 124.9 Q377.35 125.95 376.0 132.45 L375.5 136.2 378.25 150.65 Q374.05 150.6 369.5 147.9 L374.25 125.4 374.25 112.25 Q376.2 105.6 383.95 102.4 390.1 99.7 398.55 99.05 Z" fill="none" stroke="#000000" stroke-linecap="round" stroke-linejoin="round" stroke-width="1.0"/>
  </g>
</svg>
