<?xml version="1.0" encoding="UTF-8" standalone="no"?>
<svg xmlns:xlink="http://www.w3.org/1999/xlink" height="108.15px" width="125.7px" xmlns="http://www.w3.org/2000/svg">
  <g transform="matrix(1.0, 0.0, 0.0, 1.0, -337.1, -64.55)">
    <path d="M370.85 172.2 Q363.25 170.1 358.2 166.65 351.3 161.35 352.0 158.25 L354.8 154.3 360.6 145.85 Q362.95 141.15 359.05 134.25 356.25 129.65 353.25 128.15 L348.35 134.7 Q346.7 132.0 347.25 130.1 L347.9 128.85 347.9 128.8 350.8 124.3 Q354.55 118.25 356.15 114.65 357.55 111.75 357.45 110.35 361.25 108.65 365.35 111.45 372.1 115.85 373.15 127.55 373.0 120.6 375.55 115.1 367.95 107.6 363.8 96.1 353.95 70.9 337.6 70.75 355.15 58.45 367.2 72.75 366.65 72.95 366.2 73.5 365.25 74.4 365.25 75.7 365.25 77.0 366.2 77.9 367.1 78.8 368.4 78.8 369.7 78.8 370.6 77.9 371.5 77.0 371.5 75.7 L371.2 74.2 Q373.0 75.35 375.65 73.75 380.7 70.5 383.85 75.05 376.3 75.25 373.45 83.05 369.5 98.5 381.2 97.65 379.5 102.35 381.85 106.5 387.45 101.35 396.55 98.1 L396.6 97.65 397.1 97.6 397.4 96.3 400.0 96.15 402.5 96.3 402.85 97.6 403.3 97.65 403.35 98.1 Q412.45 101.35 418.05 106.45 420.4 102.35 418.7 97.65 430.4 98.5 426.5 83.05 423.55 75.25 416.1 75.05 419.2 70.5 424.2 73.75 426.9 75.35 428.75 74.2 428.4 74.85 428.4 75.7 428.4 77.0 429.3 77.9 430.2 78.8 431.5 78.8 432.8 78.8 433.7 77.9 434.7 77.0 434.7 75.7 434.7 74.4 433.7 73.5 433.25 72.95 432.65 72.75 444.75 58.45 462.3 70.75 445.95 70.9 436.2 96.1 432.0 107.6 424.4 115.1 426.95 120.6 426.8 127.55 427.85 115.85 434.55 111.45 438.65 108.65 442.4 110.35 442.4 111.75 443.7 114.65 445.4 118.25 449.1 124.3 L452.0 128.8 452.05 128.85 452.65 130.1 Q453.2 132.0 451.6 134.7 L446.65 128.15 Q443.65 129.65 440.95 134.25 437.05 141.15 439.3 145.85 L445.15 154.3 447.9 158.25 Q448.6 161.35 441.7 166.65 436.65 170.1 429.05 172.2 M424.2 128.3 L424.45 128.25 Q412.3 131.35 400.0 131.0 387.45 131.35 375.3 128.15 L375.65 128.3 M373.15 127.55 L375.1 128.1 375.3 128.15 M426.8 127.55 L425.5 127.95 424.45 128.25" fill="none" stroke="#000000" stroke-linecap="round" stroke-linejoin="round" stroke-width="1.0"/>
    <path d="M429.05 172.2 L426.05 171.55 425.6 166.95 423.1 143.1 423.95 137.7 424.2 132.4 424.2 132.1 424.2 131.8 424.2 128.3 M375.65 128.3 L375.6 131.8 375.6 132.1 375.6 132.4 375.85 137.7 376.7 142.95 374.3 166.9 373.8 171.55 370.85 172.2" fill="none" stroke="#000000" stroke-linecap="round" stroke-linejoin="round" stroke-width="1.0"/>
    <path d="M402.85 97.6 L400.0 97.4 397.1 97.6 M400.75 101.5 Q401.1 101.85 401.1 102.3 L400.75 103.05 Q400.45 103.4 400.0 103.4 399.55 103.4 399.2 103.05 398.9 102.75 398.9 102.3 398.9 101.85 399.2 101.5 399.55 101.2 400.0 101.2 400.45 101.2 400.75 101.5 M399.2 106.65 Q399.55 106.3 400.0 106.3 400.45 106.3 400.75 106.65 401.1 106.95 401.1 107.4 L400.75 108.2 400.0 108.5 399.2 108.2 Q398.9 107.85 398.9 107.4 398.9 106.95 399.2 106.65 M381.85 106.5 Q384.3 110.75 391.1 114.35 L390.95 113.65 394.05 114.95 396.55 98.1 M401.1 113.4 L400.75 114.2 400.0 114.5 399.2 114.2 Q398.9 113.85 398.9 113.4 398.9 112.95 399.2 112.6 399.55 112.3 400.0 112.3 400.45 112.3 400.75 112.6 401.1 112.95 401.1 113.4 M391.1 114.35 L392.5 125.35 392.55 126.2 400.0 128.35 400.0 117.35 394.05 114.95 M373.15 127.55 Q377.75 123.45 383.15 121.0 379.0 118.45 375.55 115.1 M356.15 114.65 Q358.4 113.4 362.55 115.0 368.65 117.45 371.1 130.5 L373.15 127.55 M350.8 124.3 Q353.0 122.35 356.95 125.55 363.2 130.75 364.75 139.7 L371.1 130.5 M392.5 125.35 Q387.45 123.6 383.15 121.0 M347.9 128.8 Q348.95 127.3 350.9 127.45 352.15 127.55 353.25 128.15 M374.3 166.9 Q366.2 164.8 360.9 161.15 355.5 157.1 354.8 154.3 M360.6 145.85 L364.75 139.7 M446.65 128.15 Q447.8 127.55 449.0 127.45 450.95 127.3 452.0 128.8 M426.8 127.55 L428.85 130.5 Q431.25 117.45 437.4 115.0 441.6 113.4 443.7 114.65 M403.35 98.1 L405.9 114.95 408.95 113.65 408.9 114.35 Q415.65 110.75 418.05 106.45 M424.4 115.1 Q420.9 118.45 416.75 121.0 422.15 123.45 426.8 127.55 M400.0 128.35 L407.35 126.2 407.45 125.35 408.9 114.35 M449.1 124.3 Q446.9 122.35 443.0 125.55 436.75 130.75 435.15 139.7 L439.3 145.85 M435.15 139.7 L428.85 130.5 M416.75 121.0 Q412.45 123.6 407.45 125.35 M445.15 154.3 Q444.35 157.1 439.05 161.15 433.7 164.8 425.6 166.95 M405.9 114.95 L400.0 117.35" fill="none" stroke="#000000" stroke-linecap="round" stroke-linejoin="round" stroke-opacity="0.5019608" stroke-width="1.0"/>
  </g>
</svg>
