<?xml version="1.0" encoding="UTF-8" standalone="no"?>
<svg xmlns:xlink="http://www.w3.org/1999/xlink" height="32.95px" width="29.25px" xmlns="http://www.w3.org/2000/svg">
  <g transform="matrix(1.0, 0.0, 0.0, 1.0, -369.8, -128.9)">
    <path d="M377.25 133.5 L377.25 144.1 377.2 145.05 376.7 146.75 376.4 147.1 376.2 147.35 375.0 148.4 373.55 148.75 Q371.95 148.7 370.9 147.35 369.8 146.05 369.8 144.1 L369.8 133.5 Q369.8 131.55 370.9 130.2 371.95 128.8 373.55 128.9 375.1 128.8 376.2 130.2 L376.55 130.55 Q377.25 131.8 377.25 133.5 M399.05 158.9 Q399.05 160.1 398.05 160.85 L397.85 161.0 Q397.0 161.65 395.9 161.85 L395.2 161.85 393.4 161.5 392.45 161.0 392.15 160.65 391.65 160.0 Q391.35 159.5 391.35 158.9 L391.35 158.8 391.55 158.0 392.15 157.15 392.45 156.85 Q393.3 156.2 394.4 156.05 L395.2 156.0 396.3 156.1 Q397.15 156.3 397.85 156.85 L398.65 157.6 Q399.05 158.2 399.05 158.9" fill="#000000" fill-rule="evenodd" stroke="none"/>
  </g>
</svg>
