<?xml version="1.0" encoding="UTF-8" standalone="no"?>
<svg xmlns:xlink="http://www.w3.org/1999/xlink" height="40.0px" width="78.7px" xmlns="http://www.w3.org/2000/svg">
  <g transform="matrix(1.0, 0.0, 0.0, 1.0, -362.4, -91.8)">
    <path d="M371.3 96.25 L373.55 101.4 377.9 109.75 382.8 99.55 383.1 99.25 Q399.95 101.4 416.85 99.2 L421.8 109.65 Q449.55 113.15 437.4 121.8 423.2 132.25 399.9 131.8 L398.85 131.8 Q376.2 132.05 362.4 121.8 362.9 85.6 369.25 93.05 L371.3 96.25 M400.1 113.4 Q386.45 113.5 378.8 111.45 L383.5 120.45 Q391.55 122.3 399.9 122.0 413.05 122.45 425.55 117.5 L422.45 111.0 Q414.75 113.35 400.1 113.4" fill="#000000" fill-rule="evenodd" stroke="none"/>
  </g>
</svg>
