<?xml version="1.0" encoding="UTF-8" standalone="no"?>
<svg xmlns:xlink="http://www.w3.org/1999/xlink" height="49.8px" width="76.25px" xmlns="http://www.w3.org/2000/svg">
  <g transform="matrix(1.0, 0.0, 0.0, 1.0, -362.15, -85.95)">
    <path d="M411.95 88.0 L412.55 89.05 Q415.1 93.25 419.85 95.1 422.65 100.35 423.95 108.45 421.6 112.35 400.25 112.65 378.9 112.35 376.55 108.45 377.9 100.35 380.65 95.1 385.3 93.25 387.9 89.05 L388.5 88.0 Q392.15 84.1 395.25 87.6 L400.25 88.05 405.2 87.6 Q408.35 84.1 411.95 88.0 M367.3 106.6 Q368.5 109.05 372.95 109.9 L375.75 109.65 Q375.7 113.1 376.2 115.15 378.9 119.35 400.25 119.6 421.6 119.35 424.25 115.15 424.7 113.1 424.65 109.65 L427.55 109.9 Q432.0 109.05 433.2 106.6 L433.3 105.55 Q434.15 104.5 436.1 106.2 440.7 110.1 436.1 122.7 L436.0 122.85 435.95 122.9 435.9 123.25 Q434.15 127.8 429.25 130.9 420.75 135.5 400.25 135.75 379.75 135.5 371.15 130.9 366.35 127.8 364.6 123.25 L364.5 122.9 364.5 122.85 364.45 122.85 364.45 122.7 Q359.85 110.1 364.4 106.2 366.35 104.5 367.25 105.55 L367.3 106.6" fill="#000000" fill-rule="evenodd" stroke="none"/>
  </g>
</svg>
