<?xml version="1.0" encoding="UTF-8" standalone="no"?>
<svg xmlns:xlink="http://www.w3.org/1999/xlink" height="90.55px" width="81.25px" xmlns="http://www.w3.org/2000/svg">
  <g transform="matrix(1.0, 0.0, 0.0, 1.0, -359.2, -97.2)">
    <path d="M399.8 97.3 L400.0 97.25 Q400.9 96.95 401.55 98.2 L402.3 99.45 Q412.6 95.4 421.6 101.0 L422.1 101.3 Q427.9 104.75 429.25 108.85 431.8 113.1 429.25 116.6 L421.35 117.1 Q410.55 117.7 399.8 117.7 389.1 117.7 378.3 117.1 L370.35 116.6 Q367.85 113.1 370.35 108.85 371.75 104.75 377.5 101.3 L378.05 101.0 Q387.0 95.4 397.35 99.45 L398.05 98.2 Q398.7 96.95 399.6 97.25 L399.8 97.3 M378.35 121.85 Q389.1 122.45 399.8 122.45 410.55 122.45 421.25 121.85 L429.25 121.35 Q436.4 150.2 440.45 180.55 430.35 180.5 421.5 187.75 425.35 157.55 425.15 126.65 L421.15 127.3 Q410.5 128.95 399.8 128.95 389.15 128.95 378.5 127.3 L374.45 126.65 Q374.25 157.55 378.1 187.75 369.25 180.5 359.2 180.55 363.2 150.2 370.35 121.35 L378.35 121.85" fill="#000000" fill-rule="evenodd" stroke="none"/>
  </g>
</svg>
