<?xml version="1.0" encoding="UTF-8" standalone="no"?>
<svg xmlns:xlink="http://www.w3.org/1999/xlink" height="93.65px" width="100.95px" xmlns="http://www.w3.org/2000/svg">
  <g transform="matrix(1.0, 0.0, 0.0, 1.0, -349.55, -83.4)">
    <path d="M420.35 86.85 Q444.4 94.15 450.5 114.65 439.55 135.4 443.3 158.4 L442.45 158.9 Q441.85 157.95 440.65 157.1 L440.1 156.85 Q437.45 155.45 434.8 155.65 432.45 155.8 430.15 157.35 428.75 157.3 427.75 158.4 L427.2 159.15 427.1 159.15 424.45 157.85 425.7 156.9 Q433.85 150.2 435.75 141.45 436.3 138.9 436.3 136.15 436.3 126.4 429.45 119.0 L425.7 115.5 Q422.7 113.1 419.4 111.35 411.2 107.05 400.9 106.9 L400.2 106.9 399.3 106.9 398.5 106.9 Q388.2 107.3 380.1 111.65 L379.6 111.9 Q376.85 113.5 374.4 115.5 371.8 117.5 369.9 119.85 363.75 127.0 363.8 136.15 363.75 138.5 364.2 140.7 365.8 149.95 374.4 156.9 376.85 158.9 379.6 160.45 387.55 164.9 397.55 165.4 L399.3 165.5 399.9 165.5 400.35 165.5 400.85 165.5 401.7 165.5 Q411.8 165.0 419.7 160.85 L424.1 158.15 427.0 159.45 Q426.45 160.1 426.55 161.0 426.45 161.95 427.05 162.7 L427.3 162.95 427.75 163.55 Q428.75 164.55 430.15 164.55 L430.35 164.55 Q433.05 166.5 435.7 166.45 438.15 166.4 440.65 164.5 L441.95 163.25 442.0 163.2 444.2 162.95 444.25 163.45 445.75 163.45 443.15 169.5 419.7 168.4 Q399.45 173.0 379.6 168.25 L356.9 169.5 354.3 163.45 355.8 163.45 Q361.75 137.65 349.55 114.65 355.55 94.55 378.8 87.1 L382.85 86.0 Q389.55 84.25 397.6 83.45 L399.3 83.45 399.9 83.45 402.5 83.45 Q408.6 84.05 414.0 85.2 L420.35 86.85 M368.55 106.8 Q370.0 104.55 370.1 102.5 370.2 100.5 368.9 99.85 367.6 99.2 365.7 100.2 L364.65 100.95 362.7 100.5 Q361.0 100.5 359.85 101.5 358.65 102.55 358.65 104.0 358.65 105.4 359.85 106.45 L360.8 107.1 360.75 107.75 Q360.6 109.75 361.9 110.5 363.2 111.15 365.25 110.05 367.1 108.95 368.55 106.8 M356.05 174.0 Q356.55 172.7 355.8 171.4 L378.7 170.15 379.6 169.95 379.65 169.95 Q399.7 174.5 419.7 169.95 L444.2 171.4 Q443.5 172.7 444.0 174.0 L419.7 174.7 418.25 174.7 417.9 174.7 Q400.4 179.4 382.9 174.7 L379.6 174.7 356.05 174.0 M439.25 107.1 L440.2 106.45 Q441.35 105.4 441.4 104.0 441.35 102.55 440.2 101.5 439.0 100.5 437.4 100.5 436.35 100.5 435.45 100.95 L434.4 100.2 Q432.45 99.2 431.2 99.85 429.85 100.5 429.95 102.5 430.05 104.55 431.55 106.8 432.9 108.95 434.85 110.05 436.8 111.15 438.15 110.5 439.4 109.75 439.35 107.75 L439.25 107.1" fill="#000000" fill-rule="evenodd" stroke="none"/>
  </g>
</svg>
