<?xml version="1.0" encoding="UTF-8" standalone="no"?>
<svg xmlns:xlink="http://www.w3.org/1999/xlink" height="29.3px" width="22.3px" xmlns="http://www.w3.org/2000/svg">
  <g transform="matrix(1.0, 0.0, 0.0, 1.0, -394.8, -235.3)">
    <path d="M405.6 249.5 L398.5 249.5 398.5 251.5 408.1 251.5 412.6 261.15 412.8 261.2 413.15 261.15 415.7 260.35 415.95 260.35 416.1 260.45 416.25 260.65 417.1 262.3 416.55 262.8 415.6 263.3 413.3 264.25 412.25 264.5 411.45 264.6 411.1 264.55 410.9 264.3 406.1 254.0 395.45 254.0 395.45 240.05 394.9 239.1 394.8 238.15 Q394.8 236.85 395.7 236.0 396.5 235.3 397.85 235.3 L398.9 235.5 Q399.4 235.6 399.85 235.95 L400.55 236.85 400.75 237.95 400.6 238.95 400.15 239.85 399.4 240.5 398.5 240.9 398.5 246.75 405.6 246.75 405.6 249.5" fill="#000000" fill-rule="evenodd" stroke="none"/>
  </g>
</svg>
