<?xml version="1.0" encoding="UTF-8" standalone="no"?>
<svg xmlns:xlink="http://www.w3.org/1999/xlink" height="46.45px" width="16.35px" xmlns="http://www.w3.org/2000/svg">
  <g transform="matrix(1.0, 0.0, 0.0, 1.0, -391.75, -227.3)">
    <path d="M396.1 257.7 Q397.05 254.7 397.35 250.1 L402.55 250.1 Q402.85 254.6 403.9 257.7 L406.15 262.85 393.95 262.85 396.1 257.7 M400.05 227.3 Q400.8 227.3 401.5 227.7 L401.2 227.9 Q400.75 228.4 400.6 228.85 400.4 229.35 400.65 229.6 L401.3 229.65 402.25 228.95 402.45 228.7 Q402.85 229.25 402.9 229.9 L402.9 230.15 Q402.9 231.0 402.5 231.65 L402.2 231.35 401.3 230.7 Q400.8 230.55 400.6 230.7 400.4 230.95 400.6 231.45 L401.2 232.35 401.5 232.7 Q400.85 233.1 400.05 233.1 399.3 233.1 398.6 232.65 L398.85 232.35 399.55 231.45 Q399.75 230.95 399.5 230.7 399.3 230.55 398.85 230.7 L397.9 231.35 397.6 231.65 Q397.25 231.0 397.25 230.15 L397.25 229.9 Q397.3 229.25 397.65 228.7 L397.95 229.0 398.85 229.65 399.55 229.65 Q399.75 229.4 399.6 228.9 L398.95 227.95 398.65 227.7 Q399.3 227.3 400.05 227.3 M407.4 272.3 L407.75 272.75 407.9 273.75 392.0 273.75 392.1 272.75 392.45 272.25 392.65 272.05 407.2 272.05 407.4 272.3 M406.5 264.65 Q407.95 266.85 408.1 268.6 408.2 270.4 407.1 271.85 L392.75 271.85 Q392.25 271.15 392.0 270.25 391.7 269.3 391.8 268.35 391.85 267.45 392.45 266.4 L393.5 264.65 406.5 264.65 M406.3 263.0 Q406.5 263.0 406.7 263.15 L407.05 263.65 406.95 264.2 Q406.75 264.4 406.55 264.4 L393.6 264.4 393.25 264.2 Q393.0 263.95 393.1 263.65 L393.45 263.15 Q393.65 263.0 393.9 263.0 L406.3 263.0 M405.95 235.45 Q406.65 236.1 406.65 237.15 406.65 237.9 406.1 238.8 L403.15 243.15 403.35 247.4 404.1 247.4 Q404.25 247.4 404.6 247.7 L405.1 248.7 Q405.15 249.2 404.7 249.55 L404.25 249.9 395.6 249.9 395.15 249.5 Q394.75 249.1 394.8 248.65 394.8 248.1 395.25 247.7 395.6 247.4 395.75 247.4 L396.5 247.4 396.75 243.25 393.8 238.8 Q393.25 237.9 393.25 237.15 393.25 236.1 393.9 235.45 394.65 234.7 395.65 234.7 L397.0 234.7 397.0 234.1 Q397.0 233.8 397.15 233.6 L397.65 233.4 402.25 233.4 402.7 233.6 402.9 234.1 402.9 234.7 404.25 234.7 Q405.25 234.7 405.95 235.45" fill="#000000" fill-rule="evenodd" stroke="none"/>
  </g>
</svg>
