<?xml version="1.0" encoding="UTF-8" standalone="no"?>
<svg xmlns:xlink="http://www.w3.org/1999/xlink" height="25.2px" width="31.1px" xmlns="http://www.w3.org/2000/svg">
  <g transform="matrix(1.0, 0.0, 0.0, 1.0, -384.4, -240.0)">
    <path d="M406.05 247.2 L406.0 248.55 405.75 249.9 405.5 250.6 405.45 250.8 Q404.7 252.15 403.15 252.4 L402.6 253.8 397.2 253.8 396.65 252.4 Q395.15 252.15 394.35 250.8 L394.3 250.6 394.05 249.9 393.85 248.55 393.8 247.2 393.8 247.1 394.0 242.85 394.35 242.4 Q396.35 240.0 399.9 240.0 403.4 240.0 405.5 242.4 L405.8 242.85 406.05 247.1 406.05 247.2 M413.2 248.55 L413.7 249.8 413.55 249.95 Q413.1 250.65 413.25 251.5 413.5 252.25 414.15 252.65 L415.0 252.95 415.5 254.1 Q415.5 254.75 414.8 255.1 413.4 255.85 409.2 255.65 406.0 256.7 402.85 258.05 L404.15 258.75 409.1 260.8 409.3 260.95 Q410.55 261.2 411.55 262.2 410.45 264.0 410.5 265.2 409.3 265.25 408.35 264.05 L399.9 259.4 Q395.55 261.55 391.45 264.05 390.5 265.25 389.35 265.2 389.4 264.0 388.25 262.2 389.25 261.2 390.5 260.95 L390.75 260.8 395.7 258.75 397.0 258.05 390.6 255.65 Q386.4 255.85 385.0 255.1 384.35 254.75 384.4 254.1 L384.85 252.95 Q385.35 252.9 385.65 252.65 L386.6 251.5 Q386.7 250.65 386.3 249.95 L386.15 249.8 386.65 248.55 Q387.75 248.55 388.95 249.2 390.55 250.0 392.2 251.9 L393.8 252.95 399.9 256.55 406.05 252.95 407.6 251.9 Q409.3 250.0 410.9 249.2 412.05 248.55 413.2 248.55 M402.85 247.0 L401.6 247.45 Q401.05 247.65 401.05 248.25 401.05 248.85 401.55 249.3 402.0 249.75 402.8 249.75 403.55 249.75 404.05 249.3 404.6 248.85 404.6 248.25 404.6 247.6 404.05 247.2 403.55 246.75 402.85 247.0 M396.95 247.0 Q396.25 246.75 395.75 247.2 395.25 247.6 395.25 248.25 395.25 248.85 395.75 249.3 396.25 249.75 397.05 249.75 397.8 249.75 398.3 249.3 398.8 248.85 398.8 248.25 398.8 247.65 398.2 247.45 L396.95 247.0 M398.9 251.0 Q398.85 252.15 399.9 251.5 400.95 252.15 400.9 251.0 L399.9 249.55 398.9 251.0" fill="#000000" fill-rule="evenodd" stroke="none"/>
  </g>
</svg>
