<?xml version="1.0" encoding="UTF-8" standalone="no"?>
<svg xmlns:xlink="http://www.w3.org/1999/xlink" height="26.85px" width="26.2px" xmlns="http://www.w3.org/2000/svg">
  <g transform="matrix(1.0, 0.0, 0.0, 1.0, -386.65, -239.25)">
    <path d="M412.35 242.15 L406.6 243.3 406.6 262.05 Q409.0 262.3 412.35 263.2 L412.35 265.6 Q406.3 264.1 399.75 264.1 393.2 264.1 387.15 265.6 L387.15 263.2 392.95 262.05 392.95 243.3 387.15 242.15 387.15 239.75 Q392.55 241.1 399.75 241.1 407.0 241.1 412.35 239.75 L412.35 242.15 M403.75 243.5 L399.75 243.6 395.8 243.5 395.8 261.85 399.75 261.6 403.75 261.85 403.75 243.5" fill="none" stroke="#000000" stroke-linecap="round" stroke-linejoin="round" stroke-opacity="0.5019608" stroke-width="1.0"/>
  </g>
</svg>
