<?xml version="1.0" encoding="UTF-8" standalone="no"?>
<svg xmlns:xlink="http://www.w3.org/1999/xlink" height="139.9px" width="86.15px" xmlns="http://www.w3.org/2000/svg">
  <g transform="matrix(1.0, 0.0, 0.0, 1.0, -323.4, -327.85)">
    <path d="M395.4 336.95 L394.05 330.45 Q396.6 328.7 399.9 328.2 405.2 327.0 409.55 329.65 L408.7 336.95 408.5 339.4 Q407.95 345.0 406.65 350.2 405.35 355.05 403.4 359.55 401.75 363.2 399.65 366.55 L395.65 372.2 Q393.25 375.1 390.5 377.8 L385.5 382.1 380.5 385.65 375.4 388.75 370.4 391.35 365.2 393.65 360.4 395.5 359.1 396.0 358.2 396.3 355.15 397.25 Q352.9 398.0 350.85 399.0 348.75 400.0 346.85 401.25 L343.55 403.7 Q341.9 405.05 340.5 406.65 L337.75 409.95 335.45 413.5 Q334.4 415.35 333.55 417.35 L332.25 420.55 331.95 421.5 Q331.35 423.45 331.0 425.4 L330.55 429.3 330.6 432.95 Q330.7 434.95 331.1 436.95 L331.95 440.55 333.15 443.9 334.8 447.55 336.55 450.7 338.7 454.0 338.9 454.3 341.3 456.9 343.6 459.0 345.9 460.75 348.1 462.15 350.2 463.25 352.15 464.15 354.05 464.85 356.2 465.5 358.75 466.1 371.8 466.7 Q364.75 468.1 358.55 467.65 L356.05 467.4 353.7 467.0 351.65 466.5 349.3 465.8 347.0 464.9 344.4 463.65 341.5 461.85 338.7 459.75 335.45 456.65 332.4 453.35 329.85 450.05 Q328.55 448.2 327.55 446.35 L325.95 443.1 Q325.05 441.0 324.5 438.85 323.95 436.8 323.7 434.75 323.3 432.05 323.45 429.25 323.55 426.9 324.05 424.45 324.5 421.95 325.35 419.4 L325.5 419.0 Q326.2 416.9 327.05 415.0 328.15 412.35 329.55 409.95 L332.2 405.75 Q333.8 403.5 335.65 401.55 L339.2 398.05 343.25 394.95 Q345.25 393.6 347.45 392.45 349.85 391.2 352.45 390.15 L355.35 389.1 357.8 388.25 362.4 386.45 367.25 384.35 Q369.8 383.1 372.15 381.85 L377.05 378.9 381.7 375.55 386.2 371.45 Q388.45 369.1 390.2 366.6 391.85 364.2 393.1 361.7 394.55 358.7 395.35 355.45 396.3 351.8 396.45 347.9 396.6 343.8 395.9 339.4 L395.4 336.95" fill="#000000" fill-rule="evenodd" stroke="none"/>
  </g>
</svg>
