<?xml version="1.0" encoding="UTF-8" standalone="no"?>
<svg xmlns:xlink="http://www.w3.org/1999/xlink" height="296.05px" width="273.35px" xmlns="http://www.w3.org/2000/svg">
  <g transform="matrix(1.0, 0.0, 0.0, 1.0, 136.8, 166.5)">
    <path d="M107.65 -166.5 L107.85 -166.25 Q91.5 -155.0 81.95 -144.65 68.75 -119.35 66.45 -91.3 66.05 -69.45 74.95 -52.15 L74.95 -52.1 75.0 -52.1 Q75.3 -20.8 81.8 7.5 L81.7 7.5 Q78.75 0.1 75.6 -6.5 L75.25 -7.15 Q71.95 -14.65 71.25 -22.65 L72.3 -29.45 Q73.9 -40.75 74.95 -52.1 L68.55 -57.15 Q65.25 -35.75 70.35 -16.75 L70.3 -16.7 Q67.1 -22.5 63.75 -27.5 L62.65 -29.15 62.4 -29.45 Q58.35 -36.15 58.6 -43.5 L57.4 -36.2 Q54.25 -40.15 50.95 -43.5 L47.55 -46.85 Q43.75 -51.05 43.05 -55.2 L42.35 -52.5 42.05 -51.35 40.6 -52.4 Q37.9 -54.35 35.1 -55.9 L34.6 -56.2 Q29.1 -59.4 27.2 -64.1 L27.4 -59.5 Q17.7 -58.95 -0.1 -50.4 -17.95 -58.95 -27.65 -59.5 L-27.4 -64.1 Q-29.35 -59.4 -34.85 -56.2 L-35.35 -55.9 -40.85 -52.4 -42.3 -51.35 -42.6 -52.5 -43.3 -55.2 Q-44.0 -51.05 -47.75 -46.85 L-51.2 -43.5 Q-54.5 -40.15 -57.65 -36.2 L-58.85 -43.5 Q-58.6 -36.15 -62.65 -29.45 L-62.9 -29.15 -64.0 -27.5 Q-67.35 -22.45 -70.55 -16.65 -65.45 -35.7 -68.75 -57.15 L-75.2 -52.1 Q-74.15 -40.75 -72.55 -29.45 L-71.5 -22.65 Q-72.2 -14.65 -75.5 -7.15 L-75.85 -6.5 Q-79.0 0.15 -82.0 7.6 -75.5 -20.75 -75.2 -52.1 -66.25 -69.4 -66.65 -91.3 -68.95 -119.35 -82.15 -144.65 -91.7 -155.05 -108.0 -166.25 L-107.85 -166.5 Q-97.15 -165.9 -90.0 -162.75 -83.25 -159.75 -80.85 -149.7 L-80.7 -149.35 Q-77.6 -140.75 -73.5 -132.95 L-72.65 -131.35 -72.45 -131.0 Q-56.25 -101.45 -25.75 -83.55 -14.95 -77.3 -0.1 -73.2 14.7 -77.3 25.55 -83.55 56.0 -101.45 72.25 -131.0 L73.35 -133.1 Q77.4 -140.85 80.5 -149.35 L80.6 -149.7 Q83.0 -159.75 89.8 -162.75 96.95 -165.85 107.65 -166.5 M100.85 -145.35 Q109.1 -108.95 122.3 -90.9 L122.3 -90.85 Q117.35 -93.95 112.2 -96.1 107.2 -98.9 106.6 -104.65 L106.55 -105.3 Q104.8 -125.95 100.85 -145.35 M92.35 -101.25 L92.4 -101.25 Q95.45 -32.2 104.35 -19.7 L104.35 -19.65 96.8 -29.45 94.7 -31.85 Q89.95 -38.8 90.3 -49.6 92.9 -76.55 92.35 -101.25 L82.5 -101.55 Q78.15 -101.9 77.1 -107.85 L77.0 -108.3 76.5 -124.45 Q81.45 -104.85 92.35 -101.25 M92.2 -108.1 Q91.5 -126.35 89.0 -143.35 95.05 -113.2 107.05 -98.1 L107.05 -98.05 107.1 -98.05 Q110.45 -33.35 120.25 3.5 L120.15 3.55 110.0 -11.8 Q104.85 -19.9 105.65 -31.0 109.05 -66.0 107.05 -98.05 102.2 -99.7 97.05 -100.6 92.75 -102.1 92.2 -108.1 M89.05 -38.35 L89.1 -38.35 Q87.0 2.25 93.45 41.1 L93.4 41.1 Q89.95 29.55 86.25 19.3 L85.9 18.3 85.65 17.6 Q82.3 7.25 84.05 -4.5 86.3 -17.2 87.95 -29.45 L89.05 -38.35 M127.65 -87.2 Q122.65 -91.2 121.65 -98.15 119.2 -121.7 114.2 -144.85 124.3 -102.1 136.55 -79.9 L136.5 -79.85 Q132.55 -83.55 128.45 -86.6 L127.65 -87.2 M77.15 -101.15 L77.55 -101.05 Q80.55 -59.4 89.05 -38.45 L89.0 -38.4 Q84.65 -43.2 80.35 -47.3 75.4 -54.25 75.75 -61.95 77.2 -81.4 77.15 -101.15 M104.35 -19.65 L104.4 -19.65 Q98.9 31.6 103.85 82.8 100.2 65.75 96.05 50.7 93.95 40.7 95.9 30.0 L96.05 29.25 96.5 27.45 Q101.55 3.3 104.35 -19.65 M123.9 -53.45 Q126.8 -5.65 134.35 27.3 L134.25 27.35 125.55 12.3 Q120.9 2.8 121.45 -7.55 122.6 -18.55 123.2 -29.45 123.85 -41.5 123.9 -53.45 M120.25 3.6 Q111.15 66.6 112.45 129.55 110.1 114.9 107.55 101.3 L105.9 92.7 Q104.8 84.0 107.7 68.1 116.15 35.45 120.2 3.6 L120.25 3.6 M-77.25 -108.3 Q-78.25 -101.9 -82.7 -101.55 L-92.6 -101.25 Q-93.15 -76.55 -90.55 -49.6 -90.2 -38.8 -94.95 -31.85 L-97.0 -29.45 -104.45 -19.8 Q-95.65 -32.5 -92.6 -101.25 -81.65 -104.8 -76.7 -124.45 L-77.25 -108.3 M-77.35 -101.15 Q-77.4 -81.4 -76.0 -61.95 -75.65 -54.25 -80.6 -47.3 L-89.3 -38.35 -88.2 -29.45 Q-86.55 -17.2 -84.3 -4.5 -82.55 7.25 -85.9 17.6 L-86.15 18.3 -86.5 19.3 Q-90.2 29.6 -93.65 41.2 -87.2 2.3 -89.3 -38.35 -80.8 -59.35 -77.7 -101.1 L-77.35 -101.15 M-106.85 -104.65 Q-107.45 -98.9 -112.45 -96.1 -117.6 -93.95 -122.55 -90.85 -109.35 -108.8 -101.1 -145.1 -105.05 -125.8 -106.8 -105.3 L-106.85 -104.65 M-97.3 -100.6 Q-102.45 -99.7 -107.3 -98.05 -95.25 -113.15 -89.25 -143.35 -91.7 -126.35 -92.45 -108.1 -93.0 -102.1 -97.3 -100.6 M-121.9 -98.15 Q-122.9 -91.2 -127.9 -87.2 L-128.65 -86.6 Q-132.85 -83.55 -136.8 -79.8 -124.8 -101.4 -114.95 -142.55 -119.6 -120.55 -121.9 -98.15 M-121.65 -7.55 Q-121.15 2.8 -125.8 12.3 L-134.55 27.45 Q-127.05 -5.3 -124.1 -52.75 -124.1 -41.15 -123.45 -29.45 -122.85 -18.55 -121.65 -7.55 M-110.25 -11.8 L-120.45 3.6 Q-111.4 -30.45 -107.8 -88.35 -108.8 -60.75 -105.9 -31.0 -105.05 -19.9 -110.25 -11.8 M-96.7 27.45 L-96.3 29.25 -96.15 30.0 Q-94.2 40.7 -96.3 50.7 -100.45 65.75 -104.05 82.8 -99.2 33.0 -104.25 -16.75 -101.5 4.8 -96.7 27.45 M-106.15 92.7 L-107.8 101.3 -112.65 129.55 Q-111.5 72.9 -118.7 16.3 -114.7 41.95 -107.95 68.1 -105.0 84.0 -106.15 92.7" fill="#000000" fill-opacity="0.2509804" fill-rule="evenodd" stroke="none"/>
  </g>
</svg>
