<?xml version="1.0" encoding="UTF-8" standalone="no"?>
<svg xmlns:xlink="http://www.w3.org/1999/xlink" height="224.65px" width="263.6px" xmlns="http://www.w3.org/2000/svg">
  <g transform="matrix(1.0, 0.0, 0.0, 1.0, -268.1, -338.3)">
    <path d="M329.0 338.3 Q364.45 345.05 399.9 344.65 435.35 345.05 470.8 338.3 L470.8 347.95 478.2 370.05 Q485.7 391.5 489.15 409.4 491.9 427.95 491.6 438.7 491.3 449.35 490.75 452.5 L499.1 463.1 Q504.95 470.45 502.6 478.9 495.55 496.25 493.35 513.05 L497.25 515.65 497.25 519.35 528.45 545.8 Q531.3 549.05 531.65 552.5 L531.7 554.2 Q528.5 558.6 520.6 559.2 517.55 561.4 504.65 561.25 497.3 564.05 481.45 562.3 L476.65 559.55 Q468.0 553.2 466.35 545.7 465.8 543.15 464.75 540.7 462.55 535.5 458.25 530.95 L457.5 529.95 Q455.1 526.45 456.05 522.05 L457.25 519.25 456.2 516.55 458.3 513.05 Q459.0 507.45 456.45 501.85 453.95 496.05 442.2 488.8 430.45 481.5 433.25 466.7 L436.55 452.8 Q437.65 437.7 430.9 420.75 424.15 403.75 418.85 398.1 L380.95 398.1 Q375.65 403.75 368.9 420.75 362.15 437.7 363.25 452.8 L366.55 466.7 Q369.35 481.5 357.6 488.8 345.85 496.05 343.35 501.85 340.8 507.45 341.5 513.05 L343.6 516.55 342.55 519.25 343.75 522.05 Q344.7 526.45 342.35 529.95 L341.55 530.95 Q338.45 534.25 336.45 537.9 334.35 541.65 333.45 545.7 331.8 553.2 323.15 559.55 L318.35 562.3 Q302.5 564.05 295.15 561.25 282.25 561.4 279.2 559.2 271.3 558.6 268.1 554.2 268.05 553.35 268.15 552.5 268.5 549.05 271.35 545.8 L302.55 519.35 302.55 515.65 306.45 513.05 Q304.25 496.25 297.2 478.9 294.85 470.45 300.7 463.1 L309.05 452.5 Q308.5 449.35 308.2 438.7 307.9 427.95 310.65 409.4 314.1 391.5 321.6 370.05 L329.0 347.95 329.0 338.3 M278.25 549.85 Q275.6 548.55 272.7 548.25 L271.75 550.85 Q271.25 553.1 273.1 554.55 274.2 553.05 276.4 552.9 L278.25 549.85 M317.15 552.35 Q309.05 550.85 301.9 551.5 299.8 553.0 299.45 554.8 299.2 557.8 304.05 559.65 307.55 556.8 314.65 555.65 L317.15 552.35 M284.65 549.45 L282.65 553.15 Q283.05 555.95 285.65 557.65 287.55 555.25 291.9 554.55 L293.95 550.55 Q289.35 548.85 284.65 549.45 M500.35 554.8 Q500.0 553.0 497.9 551.5 490.75 550.85 482.65 552.35 L485.15 555.65 Q492.25 556.8 495.75 559.65 500.6 557.8 500.35 554.8 M521.55 549.85 L523.4 552.9 Q525.6 553.05 526.7 554.55 528.55 553.1 528.05 550.85 L527.1 548.25 Q524.2 548.55 521.55 549.85 M517.15 553.15 L515.15 549.45 Q510.45 548.85 505.85 550.55 L507.9 554.55 Q512.25 555.25 514.15 557.65 516.75 555.95 517.15 553.15" fill="#000000" fill-rule="evenodd" stroke="none"/>
  </g>
</svg>
