<?xml version="1.0" encoding="UTF-8" standalone="no"?>
<svg xmlns:xlink="http://www.w3.org/1999/xlink" height="22.95px" width="279.7px" xmlns="http://www.w3.org/2000/svg">
  <g transform="matrix(1.0, 0.0, 0.0, 1.0, -260.05, -548.15)">
    <path d="M278.35 552.85 Q278.75 557.15 275.15 559.0 L272.15 559.95 270.55 559.9 268.35 560.2 Q263.95 561.05 260.05 564.85 260.0 553.7 265.95 549.85 267.5 548.85 269.55 548.35 L270.3 548.15 Q273.05 548.45 274.95 549.45 277.35 550.6 278.35 552.85 M282.95 564.65 L282.5 561.8 Q282.3 559.95 282.6 558.35 283.25 552.65 288.6 550.3 294.75 549.6 297.9 553.15 300.2 558.55 294.05 561.25 291.75 561.6 289.8 562.65 L287.0 564.65 Q285.35 566.25 284.0 568.55 L282.95 564.65 M314.2 563.75 L313.05 564.65 Q310.25 567.1 309.2 571.1 L306.95 568.25 Q305.6 566.35 304.75 564.65 L303.75 562.2 303.7 561.8 Q302.1 556.0 307.5 552.55 314.3 550.55 319.3 553.3 320.8 554.8 321.3 556.2 322.15 559.25 318.1 561.95 315.9 562.6 314.2 563.75 M517.3 561.8 L516.85 564.65 515.8 568.55 Q514.45 566.25 512.8 564.65 511.5 563.45 510.0 562.65 508.05 561.6 505.75 561.25 499.6 558.55 501.9 553.15 505.05 549.6 511.2 550.3 516.55 552.65 517.2 558.35 517.5 559.95 517.3 561.8 M521.45 552.85 Q522.45 550.6 524.85 549.45 526.75 548.45 529.5 548.15 L530.25 548.35 Q532.3 548.85 533.85 549.85 539.8 553.7 539.75 564.85 535.85 561.05 531.45 560.2 L529.25 559.9 527.65 559.95 524.65 559.0 Q521.05 557.15 521.45 552.85 M496.1 561.8 L496.05 562.2 495.05 564.65 492.85 568.25 490.6 571.1 Q489.55 567.1 486.75 564.65 L485.6 563.75 Q483.9 562.6 481.7 561.95 477.65 559.25 478.5 556.2 479.0 554.8 480.5 553.3 485.5 550.55 492.3 552.55 497.7 556.0 496.1 561.8" fill="#000000" fill-rule="evenodd" stroke="none"/>
  </g>
</svg>
