<?xml version="1.0" encoding="UTF-8" standalone="no"?>
<svg xmlns:xlink="http://www.w3.org/1999/xlink" height="225.65px" width="184.55px" xmlns="http://www.w3.org/2000/svg">
  <g transform="matrix(1.0, 0.0, 0.0, 1.0, -302.8, -343.1)">
    <path d="M358.0 351.7 L362.55 343.1 399.9 344.65 437.25 343.1 442.55 353.0 Q447.3 362.45 449.95 372.05 451.65 378.4 452.5 384.8 L453.1 391.5 453.1 395.55 452.8 402.9 Q451.75 413.95 448.05 425.15 444.25 436.3 437.8 447.55 L436.1 450.45 Q425.65 468.2 414.15 483.7 L412.25 486.15 Q404.2 498.65 399.15 509.25 393.65 520.6 391.65 529.8 388.2 545.35 395.05 554.35 402.75 564.45 423.15 566.15 456.1 567.55 487.35 558.65 460.2 567.55 413.0 568.65 L409.3 568.7 389.75 568.7 389.1 568.7 386.25 568.65 378.9 568.5 374.95 568.35 343.4 565.7 Q332.2 564.4 322.7 562.55 L320.6 562.15 Q310.65 559.85 306.25 552.9 300.5 543.7 304.35 526.35 306.75 515.9 312.65 502.55 L314.9 497.35 315.2 496.85 319.1 488.85 320.3 486.1 322.7 480.55 326.95 468.85 Q329.45 461.1 331.05 453.25 332.1 448.7 332.75 444.1 L332.95 437.55 Q333.25 430.3 334.2 423.05 334.85 417.5 335.9 411.9 337.5 403.35 340.0 394.85 L340.55 392.9 342.0 388.6 Q343.1 384.9 344.55 381.2 346.65 375.35 349.3 369.5 353.2 360.6 358.0 351.7" fill="#000000" fill-rule="evenodd" stroke="none"/>
  </g>
</svg>
