<?xml version="1.0" encoding="UTF-8" standalone="no"?>
<svg xmlns:xlink="http://www.w3.org/1999/xlink" height="231.6px" width="487.1px" xmlns="http://www.w3.org/2000/svg">
  <g transform="matrix(1.0, 0.0, 0.0, 1.0, -156.5, -337.8)">
    <path d="M345.3 368.15 L345.3 372.8 335.8 360.7 335.8 354.85 344.8 367.3 345.3 368.15 M330.4 359.95 L339.85 373.25 339.85 377.9 330.4 365.8 330.4 359.95 M293.6 485.9 L293.6 488.6 293.4 489.55 Q292.8 492.05 292.6 494.85 L292.6 494.95 292.55 495.2 293.6 494.9 293.65 494.9 325.05 487.05 320.9 479.4 344.35 474.9 344.45 474.9 332.6 458.0 Q330.3 456.7 330.35 455.0 330.35 453.15 333.15 451.75 L333.3 437.05 333.3 435.5 330.4 435.5 330.35 435.55 330.35 435.5 322.7 435.5 316.0 419.5 319.1 402.05 333.45 396.55 341.8 399.15 348.85 385.2 338.75 380.8 333.45 390.4 323.6 387.55 321.8 363.1 M291.5 481.8 L275.75 481.8 275.4 484.45 274.55 491.05 274.2 494.25 274.0 496.05 Q280.15 497.7 282.85 501.2 L283.35 501.9 Q284.7 504.0 284.95 506.7 L293.1 506.7 293.0 506.2 293.0 506.05 292.85 504.8 292.85 504.7 292.8 504.5 292.65 502.5 292.6 502.3 292.5 500.5 292.5 499.45 292.5 499.3 Q292.45 497.15 292.55 495.2 M348.85 385.2 L348.85 385.15 Q348.0 383.45 348.05 381.55 348.05 377.9 350.85 375.1 L352.2 373.95 Q356.4 370.8 362.3 370.8 368.15 370.8 372.6 374.15 L374.55 376.0 388.8 370.85 395.5 370.9 399.85 368.1 405.1 370.95 411.75 370.9 426.0 376.05 427.95 374.2 Q432.35 370.85 438.25 370.9 444.1 370.9 448.35 374.05 L449.7 375.2 Q452.5 377.95 452.5 381.6 452.5 383.5 451.7 385.25 L451.7 385.3 461.8 380.85 467.1 390.5 476.95 387.65 478.75 363.15 M470.8 347.95 L453.6 353.35 423.75 361.75 405.1 355.95 400.7 358.5 395.45 355.85 376.8 361.7 329.0 347.95 M341.8 399.15 L336.75 409.05 338.6 408.3 Q341.3 407.3 344.6 407.3 350.45 407.3 354.9 410.65 L356.25 411.85 365.85 391.9 362.3 392.15 Q356.4 392.15 352.2 389.0 L350.3 387.4 Q349.4 386.35 348.85 385.2 M374.55 376.0 Q376.55 378.45 376.55 381.55 L376.35 383.3 390.75 388.2 395.45 388.0 399.75 390.9 405.1 388.1 409.8 388.25 423.85 383.4 424.2 383.35 424.0 381.6 Q423.95 378.5 426.0 376.05 M377.25 401.65 L380.8 396.25 367.65 391.45 365.85 391.9 M376.35 383.3 L376.15 384.25 Q375.25 386.75 372.65 388.75 L372.35 389.0 Q370.2 390.6 367.65 391.45 M410.35 381.0 L400.5 383.1 389.05 380.65 M389.45 377.95 L399.85 374.95 411.0 377.45 M424.2 383.35 L424.4 384.25 Q425.3 386.8 427.9 388.85 L428.2 389.1 Q430.35 390.7 432.9 391.5 L434.7 391.9 438.25 392.25 Q444.1 392.25 448.35 389.1 L450.25 387.45 451.7 385.3 458.75 399.2 467.1 396.65 481.45 402.1 484.55 419.6 477.85 435.6 467.25 435.6 467.25 437.1 467.4 451.8 Q470.2 453.2 470.2 455.05 470.2 456.75 467.95 458.05 L456.1 474.9 456.2 474.9 479.65 479.4 475.5 487.05 507.55 495.05 507.55 494.8 506.75 489.4 506.5 488.45 506.5 486.0 M470.2 360.0 L460.7 373.25 460.7 378.0 470.2 365.9 470.2 360.0 M464.75 360.8 L455.25 372.9 455.25 368.15 464.75 354.9 464.75 360.8 M166.85 455.25 L173.8 455.3 173.85 454.9 176.4 455.3 218.25 455.45 219.75 455.15 219.75 455.45 227.75 455.45 227.75 455.4 227.95 455.45 269.75 455.65 274.8 455.15 274.8 455.7 280.35 455.7 280.55 454.85 281.25 451.6 M274.8 455.7 L274.8 456.8 280.1 456.8 280.35 455.7 M272.5 463.4 L261.9 464.55 256.9 465.1 256.9 467.8 272.5 466.25 272.5 464.55 272.5 463.4 M280.1 456.8 L279.05 462.2 278.85 463.35 288.15 463.25 M278.85 463.35 L278.6 464.55 278.3 466.25 288.85 466.25 M274.8 456.8 L274.8 457.95 259.2 459.5 259.2 456.8 234.85 456.75 243.35 458.35 251.6 457.45 251.6 459.85 243.65 461.0 227.75 457.65 227.75 456.75 219.75 456.75 219.75 457.45 204.6 461.0 194.5 460.2 194.5 457.95 202.05 459.0 212.4 456.75 187.2 456.7 187.2 459.15 173.1 457.65 173.35 456.7 166.45 456.7 M278.6 464.55 L272.5 464.55 M259.2 456.8 L259.35 456.8 269.75 455.65 M261.9 464.55 L229.9 464.55 241.0 466.6 249.3 465.75 249.3 468.1 241.3 469.3 225.4 465.95 225.4 464.55 217.45 464.55 217.45 465.75 202.25 469.3 192.15 468.45 192.15 466.25 199.75 467.25 212.15 464.55 181.7 464.6 184.85 465.0 184.85 467.45 170.75 465.95 171.15 464.6 164.75 464.6 M256.3 474.55 L256.3 477.25 271.9 475.75 271.9 474.15 271.9 472.85 260.0 474.15 256.3 474.55 M248.7 475.25 L240.45 476.05 229.6 474.05 224.85 473.2 224.85 474.05 224.85 475.4 240.75 478.75 248.7 477.55 248.7 475.25 M275.4 484.45 L272.5 484.45 272.5 485.9 256.9 487.5 256.9 484.8 260.05 484.4 230.8 484.4 241.0 486.3 249.3 485.45 249.3 487.8 241.3 489.0 225.4 485.65 225.4 484.4 217.45 484.35 217.45 485.45 202.25 489.0 192.15 488.15 192.15 485.9 199.75 486.95 211.5 484.35 182.5 484.35 184.85 484.7 184.85 487.15 170.75 485.65 171.15 484.35 161.15 484.35 M255.15 494.25 L255.15 496.9 270.75 495.4 270.75 494.25 270.75 492.6 255.55 494.25 255.15 494.25 230.7 494.2 239.2 495.8 247.55 494.95 247.55 497.3 239.6 498.5 223.7 495.1 223.7 494.2 215.7 494.2 215.7 494.95 215.4 495.0 200.5 498.5 190.4 497.65 190.4 495.4 198.0 496.45 208.35 494.2 183.1 494.2 183.1 496.65 169.05 495.1 169.3 494.2 159.8 494.15 M290.5 474.9 L276.8 474.95 275.95 480.6 275.75 481.8 M289.8 470.75 L277.5 470.8 276.95 474.2 276.8 474.95 M260.05 484.4 L272.5 483.1 272.5 484.45 M276.95 474.2 L271.9 474.15 M274.2 494.25 L270.75 494.25 M279.0 451.6 L262.95 451.6 M278.3 466.25 L277.5 470.8 163.45 470.95 M313.85 491.85 L316.9 491.35 Q318.7 491.35 319.95 491.85 321.2 492.3 321.2 493.0 321.2 493.65 319.95 494.15 L316.9 494.65 313.85 494.15 Q312.65 493.65 312.65 493.0 312.65 492.3 313.85 491.85 M285.65 454.65 L280.55 454.85 M173.35 456.7 L173.8 455.3 M181.7 464.6 L171.55 463.2 171.15 464.6 M170.95 472.65 L170.65 473.95 170.2 475.4 184.25 476.9 184.25 474.45 180.4 473.95 170.95 472.65 M170.65 473.95 L162.95 473.9 M171.15 484.35 L171.55 482.9 182.5 484.35 M169.3 494.2 L169.8 492.4 183.1 494.2 M191.6 477.9 L201.65 478.75 216.85 475.25 216.85 474.05 216.85 472.85 211.6 474.05 199.15 476.75 191.6 475.75 191.6 477.9 M189.9 451.75 L173.85 451.8 M176.4 455.3 L187.2 456.7 M234.85 456.75 L227.95 455.45 227.75 455.45 227.75 456.75 M229.9 464.55 L225.4 463.75 225.4 464.55 M219.75 456.75 L219.75 455.45 M217.45 464.55 L217.45 463.4 212.15 464.55 M218.25 455.45 L212.4 456.75 M211.5 484.35 L217.45 483.1 217.45 484.35 M208.35 494.2 L215.7 492.6 215.7 494.2 M223.7 494.2 L223.7 492.9 230.7 494.2 M225.4 484.4 L225.4 483.4 230.8 484.4 M224.85 474.05 L216.85 474.05 M211.6 474.05 L180.4 473.95 M222.45 451.7 L198.25 451.75 M223.7 505.3 L239.6 508.65 247.55 507.45 247.55 505.1 239.2 505.95 227.45 503.75 223.7 503.05 223.7 503.75 223.7 505.3 M157.25 523.9 L272.4 523.2 272.4 523.15 272.55 516.95 272.65 513.85 271.3 513.85 271.3 516.95 255.75 518.7 255.75 515.55 269.45 513.85 224.45 514.0 239.85 517.3 248.1 516.4 248.1 519.1 240.15 520.5 224.25 516.55 224.25 514.0 216.3 514.05 216.3 516.4 201.1 520.5 191.0 519.5 191.0 516.95 198.6 518.1 214.45 514.1 175.85 514.25 183.7 515.5 183.7 518.3 169.6 516.55 170.15 514.25 157.8 514.3 M224.45 514.0 L224.25 513.95 224.25 514.0 224.45 514.0 M223.7 503.75 L215.7 503.75 215.7 505.1 200.5 508.65 190.4 507.8 190.4 505.6 198.0 506.6 211.05 503.75 178.75 503.75 183.1 504.35 183.1 506.8 169.05 505.3 169.5 503.75 158.7 503.75 M211.05 503.75 L215.7 502.75 215.7 503.75 M214.45 514.1 L216.3 513.6 216.3 514.05 M216.3 527.65 L213.7 528.3 198.6 532.05 191.0 530.85 191.0 533.35 201.1 534.25 216.3 530.3 216.3 528.3 216.3 527.65 M216.85 540.6 L216.85 539.95 214.6 540.6 199.15 545.2 191.6 543.8 191.6 546.85 201.65 548.0 216.85 543.2 216.85 540.6 224.85 540.6 224.85 540.35 225.7 540.6 267.25 540.65 271.9 539.95 271.9 540.65 272.95 540.65 272.9 539.95 272.65 535.95 157.0 535.9 M272.65 535.95 Q272.45 532.2 272.4 528.3 L271.3 528.3 271.3 530.85 255.75 532.55 255.75 529.55 266.05 528.3 225.6 528.3 239.85 531.25 248.1 530.3 248.1 533.0 240.15 534.25 224.25 530.5 224.25 528.3 216.3 528.3 M225.6 528.3 L224.25 528.05 224.25 528.3 225.6 528.3 M224.85 540.6 L224.85 543.4 240.75 548.0 248.7 546.4 248.7 543.2 240.45 544.35 225.7 540.6 224.85 540.6 M169.5 503.75 L169.8 502.55 178.75 503.75 M170.15 514.25 L170.4 513.4 175.85 514.25 M170.4 527.45 L170.15 528.3 169.6 530.5 183.7 532.25 183.7 529.45 176.1 528.3 170.4 527.45 M170.2 543.4 L184.25 545.45 184.25 542.1 176.05 540.6 170.95 539.65 170.75 540.6 170.2 543.4 M157.6 558.7 L275.2 558.2 274.3 552.85 270.15 552.8 270.15 554.7 254.6 556.4 254.6 553.45 259.5 552.8 227.2 552.75 238.65 555.15 246.95 554.2 246.95 556.85 239.0 558.1 223.1 554.35 223.1 552.75 215.15 552.75 215.15 554.2 199.95 558.1 189.85 557.15 189.85 554.7 197.4 555.9 210.3 552.75 178.1 552.65 182.55 553.3 182.55 556.05 168.45 554.35 168.9 552.65 157.25 552.6 M190.4 567.65 L200.5 568.55 215.7 564.85 215.7 563.45 215.7 562.4 211.1 563.45 198.0 566.45 190.4 565.4 190.4 567.65 M183.1 564.05 L179.15 563.5 169.8 562.15 169.45 563.5 169.05 565.05 183.1 566.6 183.1 564.05 M168.9 552.65 L169.25 551.3 178.1 552.65 M223.1 552.75 L223.1 551.9 227.2 552.75 M223.7 565.05 L239.6 568.55 247.55 567.3 247.55 564.85 239.2 565.75 227.2 563.45 223.7 562.75 223.7 563.45 223.7 565.05 M210.3 552.75 L215.15 551.55 215.15 552.75 M215.7 563.45 L223.7 563.45 M213.7 528.3 L176.1 528.3 M176.05 540.6 L214.6 540.6 M179.15 563.5 L211.1 563.45 M272.4 523.15 Q274.6 522.7 276.45 521.9 L278.9 520.6 Q281.6 518.7 283.1 515.85 L284.2 513.0 284.8 510.1 284.95 507.2 284.95 506.7 M312.15 505.95 L302.25 504.85 292.85 504.8 M296.0 506.2 L293.1 506.7 M298.1 513.0 L284.2 513.0 M289.2 528.75 L288.85 527.75 Q287.95 524.95 286.9 523.6 285.75 522.3 284.5 522.3 281.95 522.3 280.05 527.75 278.25 533.25 278.3 541.0 L278.35 543.5 Q278.45 547.15 279.05 550.25 L280.05 554.3 Q281.75 559.4 284.1 559.75 L284.5 559.8 Q285.9 559.75 287.05 558.15 288.0 556.8 288.85 554.3 L289.8 551.05 289.95 550.25 290.3 548.3 290.7 544.0 290.75 541.0 290.75 540.95 290.65 538.25 Q290.5 534.35 289.8 531.15 L289.2 528.75 300.85 528.75 M286.85 536.05 Q287.85 538.0 287.85 540.8 287.85 542.45 287.5 543.85 L286.85 545.5 Q285.8 547.5 284.3 547.5 282.75 547.5 281.75 545.5 L281.0 543.6 Q280.65 542.3 280.65 540.8 280.65 538.0 281.75 536.05 282.75 534.15 284.3 534.15 285.8 534.15 286.85 536.05 M286.7 540.5 L286.35 540.95 285.35 541.15 284.4 540.95 Q284.05 540.8 284.05 540.5 284.05 540.2 284.4 540.05 L285.35 539.9 286.35 540.05 Q286.7 540.2 286.7 540.5 M300.15 523.5 L286.9 523.6 M301.15 531.1 L289.8 531.15 M290.75 540.95 L301.65 540.95 M290.65 538.25 L301.6 538.2 M274.0 496.05 L273.55 500.9 273.25 503.75 273.0 507.2 272.85 510.1 272.85 510.45 272.65 513.85 M270.75 503.75 L270.75 502.75 261.2 503.75 255.15 504.45 255.15 507.1 270.75 505.6 270.75 503.75 273.25 503.75 M271.3 513.85 L269.45 513.85 271.3 513.6 271.3 513.85 M272.4 523.2 L272.4 527.65 272.4 528.3 M271.3 528.3 L271.3 527.65 266.05 528.3 M267.25 540.65 L256.3 542.25 256.3 545.95 271.9 543.8 271.9 540.65 M157.15 548.45 L273.7 548.2 273.2 543.25 272.95 540.65 M274.3 552.85 L273.95 550.25 273.7 548.2 M270.15 552.8 L270.15 551.55 259.5 552.8 M270.75 563.35 L270.75 562.4 262.1 563.35 255.15 564.15 255.15 567.0 270.75 565.4 270.75 563.35 276.2 563.35 276.1 563.0 275.5 559.8 275.2 558.2 M276.2 563.35 L276.4 564.15 Q276.6 563.5 277.2 562.95 278.25 562.1 279.7 562.1 281.1 562.1 282.1 562.95 L282.8 563.8 Q283.0 563.25 283.5 562.85 284.4 562.05 285.7 562.05 286.95 562.05 287.8 562.85 288.4 563.35 288.6 564.0 288.65 563.05 289.25 562.4 290.0 561.6 291.05 561.6 292.1 561.6 292.8 562.4 293.35 563.0 293.55 563.75 L293.6 563.2 Q293.75 562.65 294.2 562.15 294.9 561.45 295.9 561.5 296.85 561.45 297.6 562.15 298.25 562.85 298.3 563.8 L298.1 564.75 297.6 565.5 296.9 566.05 M276.4 564.15 Q276.25 564.6 276.25 565.1 276.25 566.25 277.15 567.1 L277.15 567.15 M282.8 563.8 L283.1 565.1 282.95 565.95 283.5 566.6 Q284.4 567.4 285.7 567.45 286.95 567.4 287.8 566.6 288.55 565.95 288.65 565.05 L288.6 564.3 288.6 564.0 M282.95 565.95 L282.1 567.2 Q281.3 567.9 280.3 568.05 M280.15 568.05 L279.5 568.1 M296.1 566.25 L295.9 566.25 Q294.9 566.2 294.2 565.5 L293.6 564.55 293.55 564.4 Q293.5 565.45 292.8 566.2 292.1 566.95 291.05 566.95 290.0 566.95 289.25 566.2 L288.65 565.05 M293.55 563.75 L293.55 564.3 293.55 564.4 M300.15 558.15 L287.05 558.15 M301.2 551.1 L289.8 551.05 M301.4 548.35 L290.3 548.3 M298.7 515.8 L283.1 515.85 M284.1 559.75 L275.5 559.8 M299.65 520.65 L278.9 520.6 M284.5 522.3 L276.45 521.9 M165.3 462.05 L279.05 462.2 M260.0 474.15 L229.6 474.05 M253.8 451.65 L230.3 451.7 M161.75 480.65 L221.6 480.65 275.95 480.6 M261.2 503.75 L227.45 503.75 M227.2 563.45 L262.1 563.35 M158.95 500.85 L273.55 500.9 M170.15 528.3 L157.15 528.3 M157.0 540.6 L170.75 540.6 M158.5 563.55 L169.45 563.5 M272.85 510.45 L158.1 510.45 M160.15 491.05 L274.55 491.05 M633.65 456.55 L626.75 456.55 627.05 457.5 612.95 459.0 612.95 456.55 587.75 456.6 598.05 458.85 605.65 457.85 605.65 460.05 595.5 460.85 580.35 457.3 580.35 456.6 572.4 456.6 572.4 457.5 556.5 460.85 548.55 459.7 548.55 457.3 556.8 458.2 565.25 456.6 540.9 456.65 540.9 459.35 525.3 457.85 525.3 456.65 520.0 456.65 521.05 462.05 634.85 461.9 M588.0 464.4 L582.65 463.25 582.65 464.4 582.65 465.6 597.85 469.15 607.95 468.3 607.95 466.1 600.4 467.15 588.0 464.4 618.45 464.45 628.6 463.05 628.95 464.45 635.4 464.45 M518.9 451.45 L519.6 454.7 519.8 455.55 525.3 455.55 525.3 455.0 530.4 455.5 572.15 455.35 572.4 455.3 572.4 455.35 580.35 455.35 580.35 455.0 581.85 455.35 623.7 455.15 626.25 454.75 626.35 455.15 633.3 455.1 M580.35 456.6 L580.35 455.35 M572.4 456.6 L572.4 455.35 572.15 455.35 565.25 456.6 M574.7 464.4 L574.7 463.6 570.25 464.4 559.1 466.45 550.85 465.6 550.85 468.0 558.8 469.15 574.7 465.8 574.7 464.4 582.65 464.4 M583.25 473.9 L583.25 475.1 598.45 478.6 608.55 477.75 608.55 475.6 600.95 476.6 588.5 473.9 583.25 472.7 583.25 473.9 575.3 473.95 575.3 475.25 559.4 478.6 551.4 477.45 551.4 475.1 559.7 475.9 570.55 473.95 540.15 474.05 543.8 474.4 543.8 477.1 528.2 475.6 528.2 474.05 523.2 474.05 523.35 474.85 524.2 480.45 578.55 480.5 638.4 480.5 M575.3 473.95 L575.3 473.05 570.55 473.95 M569.35 484.25 L559.1 486.15 550.85 485.3 550.85 487.65 558.8 488.85 574.7 485.5 574.7 484.25 574.7 483.3 569.35 484.25 540.1 484.25 543.2 484.65 543.2 487.35 527.65 485.8 527.65 484.3 524.75 484.3 525.6 490.95 639.95 490.95 M576.45 494.05 L576.45 492.75 569.45 494.05 560.9 495.65 552.6 494.8 552.6 497.15 560.55 498.35 576.45 494.95 576.45 494.05 584.4 494.05 584.4 492.45 591.75 494.05 617.0 494.05 630.3 492.25 630.8 494.05 640.35 494.0 M582.65 484.2 L582.65 485.3 597.85 488.85 607.95 488.0 607.95 485.8 600.4 486.8 588.65 484.2 582.65 482.95 582.65 484.2 574.7 484.25 M591.75 494.05 L602.1 496.3 609.7 495.25 609.7 497.5 599.6 498.35 584.7 494.85 584.4 494.8 584.4 494.05 M581.85 455.35 L587.75 456.6 M601.85 451.6 L577.7 451.55 M628.95 464.45 L629.35 465.8 615.25 467.3 615.25 464.85 618.45 464.45 M626.75 456.55 L626.35 455.15 M626.25 451.65 L610.2 451.6 M612.95 456.55 L623.7 455.15 M615.85 474.3 L615.85 476.75 629.9 475.25 629.5 473.8 629.15 472.5 619.7 473.8 615.85 474.3 M639.0 484.2 L628.95 484.2 629.35 485.5 615.25 487.0 615.25 484.55 617.6 484.2 588.65 484.2 M637.2 473.75 L629.5 473.8 M628.95 484.2 L628.6 482.75 617.6 484.2 M617.0 494.05 L617.0 496.5 631.1 494.95 630.8 494.05 M619.7 473.8 L588.5 473.9 M519.8 455.55 L520.0 456.65 M525.3 456.65 L525.3 455.55 M511.3 466.1 L521.85 466.1 521.55 464.4 521.25 463.2 511.95 463.1 M521.05 462.05 L521.25 463.2 M514.5 454.55 L519.6 454.7 M487.9 493.0 Q487.9 492.3 486.7 491.85 L483.65 491.35 Q481.85 491.35 480.6 491.85 479.3 492.3 479.35 493.0 479.3 493.7 480.6 494.2 L483.65 494.65 486.7 494.2 Q487.9 493.7 487.9 493.0 M508.6 481.65 L524.35 481.65 524.2 480.45 M636.65 470.8 L522.6 470.65 523.2 474.05 M507.55 495.05 L507.65 499.3 507.6 500.35 507.5 502.35 507.3 504.55 507.3 504.65 507.1 506.05 507.05 506.55 515.15 506.55 Q515.4 503.85 516.8 501.75 L517.25 501.1 Q519.95 497.55 526.15 495.9 L525.95 494.1 525.6 490.95 M524.75 484.3 L524.35 481.65 M510.3 470.65 L522.6 470.65 521.85 466.1 M509.6 474.8 L523.35 474.85 M530.4 455.5 L540.8 456.65 540.9 456.65 M521.55 464.4 L527.65 464.4 527.65 463.25 538.25 464.4 570.25 464.4 M527.65 464.4 L527.65 466.1 543.2 467.65 543.2 464.95 538.25 464.4 M528.2 474.05 L528.2 472.7 540.15 474.05 M529.4 494.1 L529.4 495.25 544.95 496.8 544.95 494.1 544.55 494.1 529.4 492.45 529.4 494.1 525.95 494.1 M527.65 484.3 L527.65 482.95 540.1 484.25 M537.2 451.45 L521.15 451.45 M641.4 503.65 L630.65 503.65 631.1 505.15 617.0 506.65 617.0 504.2 621.4 503.65 589.05 503.65 602.1 506.45 609.7 505.45 609.7 507.65 599.6 508.5 584.4 504.95 584.4 503.65 576.45 503.65 576.45 505.15 560.55 508.5 552.6 507.3 552.6 504.95 560.9 505.8 572.7 503.65 538.95 503.65 544.95 504.3 544.95 507.0 529.4 505.45 529.4 503.65 526.85 503.65 527.1 507.05 527.25 509.95 527.3 510.35 642.0 510.3 M552.0 518.95 L559.95 520.35 575.85 516.4 575.85 513.85 575.7 513.85 560.3 517.2 552.0 516.25 552.0 518.95 M526.85 503.65 L526.6 500.75 526.15 495.9 M529.4 503.65 L529.4 502.6 538.95 503.65 M528.8 516.8 L544.4 518.55 544.4 515.45 530.65 513.7 528.8 513.7 528.8 516.8 M527.3 510.35 L527.5 513.7 528.8 513.7 528.8 513.45 530.65 513.7 575.7 513.85 M515.15 506.55 L515.15 507.05 515.35 509.95 515.9 512.85 517.05 515.7 Q518.5 518.55 521.2 520.45 L523.65 521.75 Q525.5 522.55 527.7 523.05 L527.55 516.8 527.5 513.7 M523.65 521.75 L515.6 522.15 Q518.15 522.15 520.05 527.6 521.85 533.1 521.85 540.9 521.85 546.0 521.05 550.1 L520.05 554.15 Q518.35 559.25 516.0 559.6 L524.6 559.65 524.95 558.05 525.85 552.75 526.2 550.1 526.45 548.05 527.15 540.5 527.25 539.8 527.5 535.85 527.7 528.2 527.7 527.5 527.7 523.1 527.7 523.05 M528.8 527.5 L528.8 528.2 528.8 530.75 544.4 532.45 544.4 529.4 534.05 528.2 528.8 527.5 M528.8 528.2 L527.7 528.2 M527.15 540.5 L528.2 540.5 528.2 539.8 532.85 540.5 574.4 540.45 575.3 540.2 575.3 540.45 583.25 540.45 583.25 539.8 585.55 540.45 624.1 540.45 629.15 539.5 629.35 540.45 643.1 540.45 M532.85 540.5 L543.8 542.1 543.8 545.8 528.2 543.65 528.2 540.5 M643.0 528.2 L629.95 528.2 630.5 530.35 616.45 532.1 616.45 529.3 624.05 528.2 586.4 528.2 601.55 531.9 609.15 530.75 609.15 533.25 599.0 534.15 583.8 530.15 583.8 528.2 575.85 528.2 575.85 530.35 559.95 534.15 552.0 532.85 552.0 530.15 560.3 531.1 574.55 528.2 534.05 528.2 M575.3 540.45 L575.3 543.25 559.4 547.85 551.4 546.25 551.4 543.05 559.7 544.2 574.4 540.45 575.3 540.45 M507.3 504.65 L497.9 504.7 488.4 506.0 M515.6 522.15 Q514.35 522.15 513.25 523.45 512.15 524.85 511.3 527.6 L510.95 528.6 510.3 531.0 Q509.6 534.2 509.45 538.1 L509.4 540.8 509.4 540.9 Q509.35 544.8 509.85 548.15 L510.2 550.1 510.35 550.9 Q510.75 552.6 511.3 554.15 512.1 556.65 513.05 558.0 514.2 559.6 515.6 559.65 L516.0 559.6 M513.3 535.9 Q512.25 537.85 512.25 540.65 512.25 543.45 513.3 545.35 514.3 547.35 515.85 547.35 517.35 547.35 518.4 545.35 519.45 543.45 519.5 540.65 519.45 537.85 518.4 535.9 517.35 534.0 515.85 534.0 514.3 534.0 513.3 535.9 M513.8 540.85 L514.75 541.0 515.7 540.85 516.1 540.35 515.7 539.9 514.75 539.75 513.8 539.9 513.4 540.35 513.8 540.85 M507.05 506.55 L504.1 506.05 M502.05 512.85 L515.9 512.85 M500.5 520.5 L521.2 520.45 M500.0 523.35 L513.25 523.45 M510.95 528.6 L499.3 528.6 M499.0 530.95 L510.3 531.0 M509.45 538.1 L498.5 538.05 M498.45 540.85 L509.4 540.8 M517.05 515.7 L501.4 515.65 M512.3 562.7 Q511.7 563.2 511.55 563.85 L511.55 564.15 511.5 564.9 Q511.55 565.8 512.3 566.45 513.15 567.25 514.45 567.3 515.7 567.25 516.6 566.45 L517.2 565.8 517.05 564.95 Q517.0 564.25 517.3 563.7 L516.6 562.7 Q515.7 561.9 514.45 561.9 513.15 561.9 512.3 562.7 M511.55 563.85 Q511.45 562.95 510.9 562.25 510.1 561.45 509.05 561.45 508.0 561.45 507.35 562.25 506.75 562.85 506.6 563.6 L506.55 564.15 506.55 564.25 Q506.6 565.3 507.35 566.05 508.0 566.8 509.05 566.8 510.1 566.8 510.9 566.05 L511.5 564.9 M504.05 566.1 L504.25 566.1 Q505.2 566.05 505.9 565.4 L506.5 564.4 506.55 564.25 M506.6 563.6 L506.5 563.05 505.9 562.05 Q505.2 561.3 504.25 561.35 503.25 561.3 502.55 562.05 501.85 562.7 501.85 563.7 L502.05 564.65 502.55 565.4 502.95 565.75 503.55 566.0 M524.6 559.65 L524.0 562.85 523.95 563.2 529.4 563.2 529.4 562.25 538.0 563.2 572.9 563.3 576.45 562.6 576.45 563.3 584.4 563.3 584.4 562.25 589.0 563.3 620.95 563.35 630.3 562.05 630.65 563.35 641.6 563.4 M523.0 566.95 Q523.85 566.1 523.9 564.95 L523.75 564.0 522.9 562.8 Q521.85 561.95 520.45 561.95 519.0 561.95 518.05 562.8 L517.3 563.7 M520.0 567.95 L520.65 568.0 M517.2 565.8 Q517.4 566.5 518.05 567.1 518.8 567.75 519.85 567.95 M523.95 563.2 L523.75 564.0 M509.85 548.15 L498.7 548.2 M500.0 558.0 L513.05 558.0 M498.95 550.95 L510.35 550.9 M572.9 563.3 L560.9 565.6 552.6 564.7 552.6 567.2 560.55 568.4 576.45 564.9 576.45 563.3 M561.15 557.95 L577.0 554.2 577.0 552.6 577.0 551.75 572.9 552.6 561.45 555.0 553.15 554.05 553.15 556.7 561.15 557.95 M545.55 553.3 L540.6 552.7 529.95 551.4 529.95 552.7 529.95 554.55 545.55 556.25 545.55 553.3 M529.4 563.2 L529.4 565.25 544.95 566.85 544.95 564.0 538.0 563.2 M529.95 552.7 L525.85 552.75 M630.65 503.65 L630.3 502.4 621.4 503.65 M629.75 513.25 L624.25 514.1 616.45 515.35 616.45 518.15 630.5 516.4 629.95 514.1 629.75 513.25 M629.95 514.1 L642.3 514.15 M609.15 516.8 L601.55 518.0 585.7 513.95 583.8 513.45 583.8 513.9 583.8 516.25 599.0 520.35 609.15 519.35 609.15 516.8 M629.35 540.45 L629.9 543.25 615.85 545.3 615.85 541.95 624.1 540.45 M624.05 528.2 L629.75 527.35 629.95 528.2 M589.05 503.65 L584.4 502.6 584.4 503.65 M572.7 503.65 L576.45 502.9 576.45 503.65 M575.85 513.85 L583.8 513.9 M583.8 528.2 L583.8 527.5 586.4 528.2 M575.85 528.2 L575.85 527.9 574.55 528.2 575.85 528.2 M585.55 540.45 L600.95 545.1 608.55 543.65 608.55 546.7 598.45 547.85 583.25 543.05 583.25 540.45 M584.4 563.3 L584.4 564.7 599.6 568.4 609.7 567.5 609.7 565.25 602.1 566.35 589.0 563.3 M589.8 552.6 L585.0 551.4 585.0 552.6 585.0 554.05 600.2 557.95 610.3 557.05 610.3 554.55 602.7 555.75 589.8 552.6 622.05 552.5 630.9 551.15 631.2 552.5 642.85 552.45 M585.0 552.6 L577.0 552.6 M631.2 552.5 L631.65 554.2 617.6 555.9 617.6 553.15 622.05 552.5 M620.95 563.35 L617.0 563.9 617.0 566.45 631.1 564.9 630.65 563.35 M585.7 513.95 L624.25 514.1 M569.8 451.55 L546.3 451.5 M569.45 494.05 L544.95 494.1 M642.85 523.75 L527.7 523.1 M526.6 500.75 L641.15 500.7 M643.0 548.3 L526.45 548.05 M527.5 535.85 L643.1 535.8 M572.9 552.6 L540.6 552.7 M524.95 558.05 L642.55 558.55 M458.75 399.2 L463.8 409.1 466.05 410.5 467.4 411.7 Q470.2 414.45 470.2 418.1 470.2 421.35 467.95 423.9 L466.45 425.25 466.05 425.6 464.75 426.45 Q460.95 428.75 455.95 428.75 450.05 428.75 445.9 425.6 L445.6 425.35 445.6 435.6 445.65 435.6 445.65 437.1 445.65 451.25 Q450.05 449.55 455.95 449.55 461.8 449.55 466.05 451.15 L467.4 451.8 M463.8 409.1 L461.95 408.35 Q459.2 407.35 455.95 407.4 450.05 407.35 445.65 410.7 L444.3 411.9 Q441.65 414.6 441.7 418.1 441.65 419.45 442.1 420.75 443.0 423.3 445.6 425.35 M445.65 437.1 L445.6 435.6 434.0 435.6 434.1 436.4 M467.25 435.6 L467.2 435.6 467.25 437.1 M467.2 435.6 L467.2 425.7 M432.9 391.5 L419.75 396.3 423.3 401.75 M425.55 470.95 L429.6 471.5 442.1 456.4 Q441.65 455.75 441.7 455.05 441.7 452.85 445.65 451.25 M443.45 481.7 Q448.25 481.45 451.8 480.05 L452.5 479.8 Q456.1 478.25 456.1 476.1 L455.9 475.1 455.8 474.9 Q455.0 473.25 451.8 472.05 447.4 470.4 441.25 470.4 435.1 470.4 430.8 472.05 429.4 472.55 428.45 473.2 426.75 474.2 426.5 475.55 L426.4 476.1 Q426.4 478.4 430.8 480.05 L431.45 480.35 Q435.55 481.75 441.25 481.75 L443.45 481.7 M429.6 471.5 L429.4 471.9 428.45 473.2 M467.95 458.05 L466.05 458.85 Q461.8 460.5 455.95 460.5 450.05 460.5 445.9 458.85 443.0 457.8 442.1 456.4 M455.9 475.1 L456.1 474.9 M448.15 491.95 Q450.7 492.95 454.4 492.95 458.0 492.95 460.6 491.95 463.2 491.0 463.2 489.55 463.2 488.15 460.6 487.15 458.0 486.15 454.4 486.15 450.7 486.15 448.15 487.15 445.55 488.15 445.55 489.55 445.55 491.0 448.15 491.95 M366.45 436.3 L366.55 435.5 354.95 435.5 354.9 436.7 354.9 451.2 Q358.85 452.85 358.85 455.0 358.85 455.7 358.45 456.35 L370.95 471.5 375.0 470.9 M336.75 409.05 L334.5 410.45 333.15 411.6 Q330.35 414.4 330.35 418.0 330.3 421.25 332.6 423.85 L334.1 425.15 334.5 425.55 335.8 426.4 Q339.6 428.65 344.6 428.65 350.45 428.65 354.65 425.55 L354.95 425.3 Q357.55 423.2 358.45 420.7 358.85 419.4 358.85 418.0 358.85 414.55 356.25 411.85 M333.3 437.05 L333.35 435.5 333.3 435.5 M330.4 435.5 L330.35 435.5 M333.35 425.65 L333.35 435.5 M354.9 436.7 L354.9 435.5 354.95 435.5 354.95 425.3 M333.15 451.75 Q333.75 451.4 334.5 451.15 338.7 449.5 344.6 449.5 350.45 449.5 354.9 451.2 M332.6 458.0 L334.5 458.85 Q338.7 460.5 344.6 460.5 350.45 460.5 354.65 458.85 357.5 457.75 358.45 456.35 M337.35 489.55 Q337.35 488.15 339.95 487.15 342.5 486.15 346.15 486.15 349.8 486.15 352.4 487.15 355.0 488.15 355.0 489.55 355.0 490.95 352.4 491.9 349.8 492.9 346.15 492.9 342.5 492.9 339.95 491.9 337.35 490.95 337.35 489.55 M359.3 481.75 Q365.0 481.7 369.1 480.3 L369.75 480.05 Q374.1 478.4 374.15 476.05 L374.05 475.5 Q373.75 474.2 372.1 473.2 371.15 472.5 369.75 472.0 365.45 470.35 359.3 470.35 353.1 470.35 348.75 472.0 345.5 473.2 344.75 474.9 L344.65 475.1 344.45 476.05 Q344.45 478.2 348.05 479.8 L348.75 480.05 Q352.3 481.45 357.1 481.65 L359.3 481.75 M344.45 474.9 L344.65 475.1 M372.1 473.2 L371.15 471.85 370.95 471.5 M444.3 411.9 L434.7 391.9" fill="none" stroke="#000000" stroke-linecap="round" stroke-linejoin="round" stroke-opacity="0.49803922" stroke-width="1.0"/>
    <path d="M321.8 363.1 L321.8 374.65 309.7 407.9 309.7 444.9 318.45 464.55 308.0 487.95 307.65 487.95 303.65 487.55 293.6 485.9 293.6 481.8 291.5 481.8 M478.75 363.15 L470.8 347.95 M329.0 347.95 L321.8 363.1 M329.0 347.95 L329.0 338.3 Q364.45 345.05 399.95 344.65 435.45 345.05 470.9 338.3 L470.8 347.95 M506.5 486.0 L496.9 487.6 492.55 488.0 482.1 464.6 490.85 444.9 490.85 407.95 478.75 374.7 478.75 363.15 M506.5 486.0 L506.5 481.65 508.6 481.65 509.6 474.8 510.3 470.65 511.3 466.1 511.95 463.1 Q513.1 458.45 514.5 454.55 L515.55 451.6 518.9 451.45 521.15 451.45 521.15 449.15 537.4 449.15 537.2 451.45 546.3 451.5 546.5 449.15 569.8 449.15 569.8 451.55 577.7 451.55 577.85 449.15 602.1 449.15 601.85 451.6 610.2 451.6 610.75 449.15 626.25 449.15 626.25 451.65 632.5 451.65 633.3 455.1 633.65 456.55 634.85 461.9 635.4 464.45 636.65 470.8 637.2 473.75 638.4 480.5 639.0 484.2 639.95 490.95 640.35 494.0 641.15 500.7 641.4 503.65 641.75 507.05 642.0 510.3 642.3 514.15 642.85 523.75 643.0 528.2 643.1 535.8 643.1 540.45 643.0 548.3 642.95 550.1 642.85 552.45 642.55 558.55 642.55 558.8 642.55 559.85 Q642.45 561.85 641.6 563.4 639.3 567.65 631.05 568.1 L616.25 568.4 599.65 568.65 599.6 568.65 Q580.35 568.85 560.6 568.7 L558.4 568.7 524.65 568.1 522.75 568.05 523.0 566.95 522.9 567.1 Q521.9 567.9 520.65 568.0 L520.45 568.0 520.0 567.95 519.85 567.95 506.5 566.5 504.05 566.1 503.55 566.0 503.5 566.0 502.95 565.75 501.5 564.65 Q500.6 561.4 500.0 558.0 499.3 554.55 498.95 550.95 L498.7 548.2 498.45 540.85 498.5 538.05 499.0 530.95 499.2 529.1 499.3 528.6 500.0 523.35 500.5 520.5 501.4 515.65 502.05 512.85 502.7 509.95 503.45 507.05 504.1 506.05 492.25 506.0 488.4 506.0 471.4 508.3 433.75 500.0 408.6 480.9 421.4 470.4 425.55 470.95 436.75 455.7 434.65 440.75 434.65 440.7 434.45 437.9 434.1 436.4 433.9 435.6 434.0 435.6 431.8 414.75 423.3 401.75 415.2 401.8 412.6 396.65 387.95 396.55 385.35 401.75 377.25 401.65 368.75 414.65 366.55 435.5 366.65 435.5 366.45 436.3 366.1 437.8 365.9 440.7 365.9 440.75 363.8 455.65 375.0 470.9 379.15 470.35 391.95 480.85 366.8 499.95 329.15 508.3 312.15 505.95 307.85 506.15 296.0 506.2 296.7 507.2 297.4 510.1 298.1 513.0 298.7 515.8 299.65 520.65 300.15 523.5 300.85 528.75 300.9 529.2 301.15 531.1 301.6 538.2 301.65 540.95 301.6 544.45 301.4 548.35 301.2 551.1 300.15 558.15 298.65 564.8 Q298.5 565.25 296.9 566.05 L296.65 566.15 296.1 566.25 293.6 566.65 280.3 568.05 280.15 568.05 279.7 568.1 279.5 568.1 Q278.2 568.05 277.2 567.2 L277.15 567.15 277.4 568.15 275.45 568.25 241.75 568.85 239.55 568.85 200.5 568.8 200.45 568.8 183.9 568.55 169.05 568.25 Q160.8 567.8 158.5 563.55 157.65 562.0 157.6 560.0 L157.6 558.95 157.6 558.7 157.25 552.6 157.2 550.25 157.15 548.45 157.0 540.6 157.0 535.9 Q157.0 532.1 157.15 528.3 L157.25 523.9 157.8 514.3 158.1 510.45 158.4 507.2 158.5 506.35 158.7 503.75 158.95 500.85 159.8 494.15 160.15 491.05 161.15 484.35 161.75 480.65 162.95 473.9 163.45 470.95 164.75 464.6 165.3 462.05 166.45 456.7 166.85 455.25 167.65 451.8 173.85 451.8 173.85 449.3 189.35 449.3 189.9 451.75 198.25 451.75 198.05 449.3 222.25 449.3 222.45 451.7 230.3 451.7 230.3 449.3 253.6 449.3 253.8 451.65 262.95 451.6 262.7 449.3 279.0 449.3 279.0 451.6 281.25 451.6 284.6 451.75 285.65 454.65 Q287.0 458.6 288.15 463.25 L288.85 466.25 289.8 470.75 290.5 474.9 291.5 481.8" fill="none" stroke="#000000" stroke-linecap="round" stroke-linejoin="round" stroke-width="1.0"/>
  </g>
</svg>
