<?xml version="1.0" encoding="UTF-8" standalone="no"?>
<svg xmlns:xlink="http://www.w3.org/1999/xlink" height="223.3px" width="131.95px" xmlns="http://www.w3.org/2000/svg">
  <g transform="matrix(1.0, 0.0, 0.0, 1.0, -268.45, -338.85)">
    <path d="M399.9 388.8 L396.85 388.8 374.95 393.1 Q367.45 393.65 367.15 386.65 L362.7 386.4 Q353.3 386.1 346.8 390.6 349.9 394.25 342.85 397.95 341.75 403.05 341.15 408.2 340.4 413.3 340.05 418.45 339.3 427.6 339.65 437.0 L339.55 437.95 Q340.0 442.6 342.4 447.1 344.2 450.55 347.15 453.95 L348.7 455.65 348.7 455.95 Q352.0 461.25 344.55 461.8 346.0 463.35 345.7 465.6 345.35 467.8 336.8 470.15 329.85 490.75 331.05 512.0 333.0 514.95 330.75 517.1 L332.0 519.85 Q333.1 523.55 331.2 527.0 L325.7 532.75 317.4 540.95 316.45 543.85 313.65 552.35 311.35 556.4 308.95 560.45 Q299.1 563.05 294.75 560.0 288.55 561.4 284.05 558.95 L283.85 558.45 Q280.25 558.9 278.35 557.8 274.95 558.15 271.85 556.6 L273.6 555.25 Q270.35 556.05 268.95 554.65 L271.3 550.6 272.65 548.2 274.8 546.75 283.9 540.35 286.65 538.35 317.25 514.95 Q316.35 514.35 316.2 513.5 316.15 512.6 316.8 511.6 L317.05 472.25 Q310.65 463.85 314.0 459.8 306.5 458.6 311.55 453.95 L313.5 452.35 Q317.15 449.75 319.5 447.1 324.1 442.0 324.05 436.7 L324.8 396.7 Q314.9 390.5 324.7 385.4 332.25 379.1 342.85 381.1 L353.6 376.5 Q352.7 374.9 356.15 373.25 349.7 369.8 346.05 366.25 344.1 364.35 342.95 362.4 340.25 357.95 341.65 353.4 350.05 339.25 369.65 339.35 379.45 339.95 383.55 346.25 L388.65 346.25 M399.9 379.75 Q392.05 376.55 391.95 372.3 386.15 367.85 384.0 362.4 L383.9 362.2 Q377.8 361.05 376.25 358.1 374.85 358.9 373.55 359.9 372.55 361.15 372.0 362.4 371.1 364.35 371.4 366.25 372.05 370.1 377.65 373.7 383.4 377.4 394.35 380.85 L399.9 380.85 M377.65 386.15 Q380.7 387.2 390.75 385.0 389.0 383.9 388.25 381.9 380.35 380.85 377.65 383.75 376.95 384.5 376.6 385.5 376.95 385.9 377.65 386.15 M321.75 498.55 Q319.05 486.45 322.45 473.15 323.4 486.5 321.75 498.55" fill="none" stroke="#000000" stroke-linecap="round" stroke-linejoin="round" stroke-width="1.0"/>
    <path d="M388.65 346.25 Q391.4 350.15 399.9 352.45 M367.15 386.65 Q374.0 384.65 370.2 378.3 364.5 371.3 356.15 373.25 M399.9 386.3 Q393.8 386.95 390.75 385.0 M399.9 356.6 Q386.05 352.05 376.25 358.1 M317.1 460.1 L317.65 460.9 318.0 461.25 318.2 461.4 319.5 462.2 Q321.4 463.15 324.4 463.5 L332.5 463.05 Q334.5 462.65 335.9 461.85 L336.55 461.5 337.7 460.45 Q339.0 458.65 336.95 457.1 334.95 455.5 330.65 455.05 L322.65 455.45 Q318.85 456.35 317.55 458.15 316.8 459.15 317.1 460.1 L314.0 459.8 M322.45 473.15 L322.05 469.2 Q320.6 466.65 319.95 464.4 L319.5 462.2 M330.75 517.1 Q327.25 515.7 319.2 515.75 318.0 515.45 317.25 514.95 M319.2 515.75 Q317.9 513.05 319.3 510.4 L319.35 509.8 Q320.75 504.2 321.75 498.55 M283.9 540.35 L289.95 541.05 292.35 538.85 286.65 538.35 M302.45 542.45 L304.75 539.9 298.15 539.3 295.8 541.7 302.45 542.45 309.05 543.15 309.05 543.1 309.9 541.8 310.1 541.45 310.7 540.4 304.75 539.9 M289.95 541.05 L295.8 541.7 289.1 548.5 288.5 548.9 295.35 550.0 295.95 549.55 302.45 542.45 M298.15 539.3 L292.35 538.85 M295.35 550.0 L304.2 551.25 308.15 544.65 308.35 544.25 308.55 544.0 309.05 543.15 316.45 543.85 M317.4 540.95 L310.7 540.4 M273.6 555.25 L277.65 551.95 271.3 550.6 M282.9 553.0 L288.5 548.9 282.35 547.95 277.65 551.95 282.9 553.0 289.9 554.4 295.35 550.0 M274.8 546.75 L282.35 547.95 289.95 541.05 M282.9 553.0 L277.1 557.2 278.35 557.8 M313.65 552.35 L304.2 551.25 299.3 555.5 311.35 556.4 M283.85 558.45 L284.9 558.25 289.9 554.4 299.3 555.5 294.4 559.7 294.75 560.0 M284.05 558.95 L284.9 558.25 M344.55 461.8 L342.75 461.85 340.4 461.85 336.55 461.5 M332.0 519.85 L326.95 525.05 325.7 532.75" fill="none" stroke="#000000" stroke-linecap="round" stroke-linejoin="round" stroke-opacity="0.2509804" stroke-width="1.0"/>
    <path d="M399.9 352.45 L399.9 356.6 399.9 379.75 399.9 380.85 399.9 386.3 399.9 388.8 Z" fill="none" stroke="#000000" stroke-linecap="round" stroke-linejoin="round" stroke-opacity="0.5019608" stroke-width="1.0"/>
  </g>
</svg>
