<?xml version="1.0" encoding="UTF-8" standalone="no"?>
<svg xmlns:xlink="http://www.w3.org/1999/xlink" height="164.2px" width="443.3px" xmlns="http://www.w3.org/2000/svg">
  <g transform="matrix(1.0, 0.0, 0.0, 1.0, -206.6, -316.65)">
    <path d="M354.0 369.7 L353.85 370.1 353.7 370.4 352.95 372.55 352.2 374.55 352.1 374.95 351.95 375.35 M356.3 391.7 L356.25 391.4 Q355.95 386.8 358.9 377.6 L359.05 377.25 359.15 376.9 359.8 375.0 360.5 373.1 360.65 372.8 360.75 372.5 Q364.55 363.2 367.85 359.9 M219.25 317.15 Q217.3 319.1 215.9 322.6 L215.9 322.65 Q214.7 326.2 215.0 328.9 M280.25 358.1 Q280.35 353.1 282.65 346.95 284.85 340.7 288.0 336.85 M290.65 353.05 Q290.35 352.15 291.0 349.95 291.9 347.9 292.75 347.4" fill="none" stroke="#000000" stroke-linecap="round" stroke-linejoin="round" stroke-opacity="0.5019608" stroke-width="1.0"/>
    <path d="M367.85 359.9 L363.0 354.95 Q358.85 357.8 354.0 369.7 L292.75 347.4 288.0 336.85 219.25 317.15 210.2 317.35 Q207.95 317.7 207.4 319.55 206.55 321.3 208.1 322.95 L215.0 328.9 214.95 328.95 280.25 358.1 M351.95 375.35 Q348.0 387.55 349.4 392.35 L356.15 391.7 356.25 391.75 356.3 391.7 M367.85 359.9 L368.0 360.0 Q385.1 375.4 425.75 390.05 L649.4 480.35 420.0 405.85 Q379.3 390.95 356.3 391.7 M351.95 375.35 L290.65 353.05 280.25 358.1" fill="none" stroke="#000000" stroke-linecap="round" stroke-linejoin="round" stroke-width="1.0"/>
  </g>
</svg>
