<?xml version="1.0" encoding="UTF-8" standalone="no"?>
<svg xmlns:xlink="http://www.w3.org/1999/xlink" height="73.6px" width="44.95px" xmlns="http://www.w3.org/2000/svg">
  <g transform="matrix(1.0, 0.0, 0.0, 1.0, -344.35, -362.4)">
    <path d="M345.25 372.2 Q345.0 368.7 348.35 366.75 352.25 364.8 356.0 367.15 360.05 369.65 363.3 375.7 364.15 377.25 364.15 378.55 L364.25 379.2 366.1 385.75 367.6 385.05 366.25 380.35 Q365.55 378.25 366.4 377.65 366.9 377.4 367.25 377.65 367.95 378.15 368.4 379.75 L369.7 384.05 370.5 383.65 M360.5 384.95 L360.85 386.3 Q361.05 384.8 362.6 384.5 L363.7 384.6 Q364.6 384.85 365.0 385.65 L365.15 385.95 366.1 385.75 Q366.6 386.4 366.8 387.35 367.0 388.25 366.7 388.8 L366.1 389.85 370.3 387.85 M361.05 401.5 L361.3 402.05 Q362.0 402.75 362.95 402.05 L365.3 399.65 364.4 395.0 Q364.2 394.3 364.45 393.95 364.65 393.7 365.0 393.6 L364.05 390.3 Q363.5 388.45 362.2 388.75 361.6 388.9 361.3 389.4 M362.0 395.45 L362.1 395.95 362.25 396.65 M360.25 408.25 L367.45 397.5 366.1 389.85 366.0 389.6 365.15 385.95 M363.1 390.45 L363.2 390.65 363.35 391.5 362.95 392.05 362.25 391.95 361.85 391.6 361.7 391.3 Q361.5 390.85 361.6 390.45 L362.0 389.9 362.65 390.0 363.1 390.45 Q362.2 390.5 361.7 391.3 M365.3 399.65 L365.3 399.6 364.4 394.9 Q364.3 394.3 364.45 393.95 M363.2 390.65 Q362.4 390.75 361.85 391.6 M359.1 387.15 Q357.4 388.45 357.75 391.05 358.5 395.3 362.1 395.95 M365.0 393.6 L365.0 393.5 364.15 390.25 Q363.6 388.4 362.2 388.75 M367.3 380.15 Q367.05 380.25 366.85 380.0 L366.55 379.45 Q366.45 379.1 366.6 378.85 L366.9 378.45 367.4 378.65 367.65 379.2 367.6 379.85 367.3 380.15 M367.45 397.5 L368.8 395.45 368.7 394.9 368.25 392.85 368.0 391.45 369.7 390.6 370.45 394.3 371.15 394.35 371.55 394.45 M368.7 394.9 L369.0 395.2 369.1 395.05 369.4 394.75 370.35 394.3 Q370.15 393.2 368.25 392.85 M368.8 395.45 L369.0 395.2 M370.35 394.3 L370.45 394.3 M370.7 395.45 L369.75 395.9 369.4 395.75 368.95 396.4 369.0 396.65 370.75 395.65 370.7 395.45 370.75 395.45 370.95 395.05 370.95 394.85 Q370.85 394.65 370.6 394.75 L369.75 395.1 Q369.6 395.15 369.6 395.4 L369.4 395.75 M371.75 395.3 L370.95 395.05 M386.45 400.55 L386.7 400.35 384.55 399.6 M376.4 421.75 Q378.2 422.95 379.4 422.7 380.15 422.45 380.7 421.85 L381.55 420.7 382.3 419.25 383.15 417.05 384.65 410.45 M387.95 401.05 L388.2 400.8 386.7 400.35 M387.3 399.8 L387.5 399.85 388.6 400.35 388.7 400.45 M370.1 397.3 L369.95 396.6 Q370.4 396.15 371.05 396.25 L371.1 396.65 M369.4 397.8 L367.7 398.9 366.75 399.7 362.8 405.65 Q362.6 406.2 362.8 408.45 364.05 417.2 372.95 421.65 L373.95 420.85 373.75 419.45 M367.7 398.9 L367.6 398.45 366.75 399.7 M368.95 396.4 L367.6 398.45 M375.1 419.95 L374.95 420.05 375.25 422.05 375.35 421.9 375.25 420.9 M374.9 419.85 L374.95 420.05 M375.25 422.05 L375.4 422.15 375.6 422.3 375.5 422.5 375.35 422.65 374.7 422.9 374.3 423.05 373.5 422.9 373.2 423.15 374.65 423.3 Q375.15 423.2 375.55 422.9 L375.65 422.85 Q376.15 422.3 375.55 421.95 L375.35 421.9 M376.2 424.3 L376.35 423.75 376.15 422.45 Q376.0 422.1 375.55 421.95 M375.25 422.05 L375.35 422.65 M376.15 427.25 L375.7 424.7 375.45 424.85 374.65 425.05 375.15 428.05 M375.8 424.65 L375.7 424.7 M375.6 430.95 L375.6 431.0 Q376.3 431.15 376.65 430.65 L376.65 430.5 M376.95 435.5 L376.5 431.15 374.7 431.2 M377.4 429.85 L376.5 431.15 M374.3 423.05 L373.95 420.85 M372.95 421.65 L373.2 423.15 373.5 425.0 374.65 425.05 M369.45 422.95 L372.5 423.65 372.95 426.5 372.15 428.05 M365.05 430.1 Q369.9 433.55 372.5 423.65 M374.15 428.9 L373.5 425.0 M364.1 398.85 L364.2 399.0 364.2 399.45 364.0 399.75 363.6 399.7 363.4 399.5 363.35 399.35 363.25 398.85 363.45 398.55 363.85 398.65 364.1 398.85 M361.65 401.65 L361.6 401.45 361.5 401.0 Q361.55 400.75 361.75 400.65 L362.15 400.65 362.4 400.95 362.5 401.05 362.5 401.1 362.55 401.6 362.35 401.95 361.9 401.85 361.65 401.65 Q362.0 401.1 362.5 401.1 M362.4 400.95 Q361.9 400.95 361.6 401.45 M353.85 417.85 L353.8 418.0 352.7 419.95 352.55 420.25 352.3 420.85 352.2 421.0 352.0 421.4 351.8 422.2 351.75 422.45 351.6 422.85 Q351.4 423.4 350.85 423.75 M362.8 405.65 L360.5 409.1 M352.8 421.6 L352.6 422.85 352.6 423.15 M352.7 419.95 L351.3 421.0 351.1 421.1 350.8 421.45 352.0 421.4 M350.8 421.45 Q350.55 421.5 350.4 421.65 L350.1 421.95 349.8 422.5 349.7 422.95" fill="none" stroke="#000000" stroke-linecap="round" stroke-linejoin="round" stroke-opacity="0.5019608" stroke-width="1.0"/>
    <path d="M370.5 383.65 Q369.65 380.45 368.25 377.05 L367.8 376.45 Q367.2 375.95 366.75 375.1 364.0 368.7 358.15 364.85 352.15 361.45 348.0 364.05 344.1 366.9 345.0 371.3 L345.25 372.2 Q346.15 374.85 348.65 375.9 L351.15 376.05 Q355.05 373.8 357.9 377.85 359.4 380.05 359.4 381.25 L360.5 384.95 Q356.05 386.6 356.6 390.6 L356.75 391.3 Q357.6 396.05 362.25 396.65 L362.65 398.8 361.4 400.35 361.0 401.0 361.05 401.5 Q359.75 404.15 360.25 408.25 M370.3 387.85 L370.95 386.75 Q371.2 386.25 371.05 385.3 L370.5 383.65 M361.3 389.4 Q360.95 389.95 361.1 391.0 L362.0 395.45 M361.3 389.4 L360.85 387.5 360.85 386.3 Q359.8 386.6 359.1 387.15 357.4 389.15 359.15 393.1 360.2 395.2 362.0 395.45 M371.55 394.45 L370.3 387.85 M384.55 399.6 L386.45 400.55 Q385.25 401.75 384.55 403.6 382.75 408.2 381.15 414.85 379.05 422.65 376.4 421.75 M384.65 410.45 L384.75 409.9 384.95 408.9 385.2 407.85 385.3 407.5 Q386.45 402.8 387.95 401.05 M371.55 394.45 L387.3 399.8 388.35 399.65 388.45 399.7 388.55 399.95 Q388.9 400.25 388.7 400.45 L388.8 400.6 Q388.9 401.25 387.95 401.05 M371.1 396.65 L371.9 396.15 371.75 395.3 384.55 399.6 M373.75 419.45 Q365.7 413.95 365.35 405.6 365.25 401.4 369.4 397.8 L370.1 397.3 373.75 419.45 M384.65 410.45 L384.35 412.45 384.1 413.9 Q383.35 418.2 381.95 421.15 379.55 426.05 376.2 424.3 L376.1 424.45 375.8 424.65 376.25 427.15 376.15 427.25 376.65 430.5 377.4 429.85 376.95 435.5 374.7 431.2 375.6 430.95 375.15 428.05 374.15 428.9 Q373.3 428.9 372.15 428.05 L370.05 430.85 Q368.15 432.95 365.75 432.8 364.5 432.7 363.05 431.9 361.0 430.65 358.55 427.95 354.6 423.65 352.6 423.15 L352.45 423.45 Q352.2 424.25 351.2 423.95 L350.85 423.75 Q350.4 423.85 349.95 423.45 L349.7 422.95 Q349.7 421.8 350.55 421.0 L350.8 420.75 350.9 420.7 352.2 419.65 353.4 418.45 353.8 418.0 353.8 417.85 353.85 417.85 353.85 417.75 353.9 417.7 354.0 417.5 360.25 408.25 M371.1 396.65 L374.9 419.85 375.1 419.95 375.25 420.9 376.4 421.75 M360.5 409.1 Q361.75 415.25 368.5 421.75 369.35 422.4 369.45 422.95 367.4 430.3 365.05 430.1 M360.5 409.1 L354.8 417.65 354.4 418.3 353.8 419.45 353.25 420.55 353.2 420.7 353.1 420.85 352.8 421.6 Q353.8 421.85 354.8 422.25 357.55 423.4 360.9 426.6 L365.05 430.1" fill="none" stroke="#000000" stroke-linecap="round" stroke-linejoin="round" stroke-width="1.0"/>
  </g>
</svg>
