<?xml version="1.0" encoding="UTF-8" standalone="no"?>
<svg xmlns:xlink="http://www.w3.org/1999/xlink" height="152.45px" width="400.5px" xmlns="http://www.w3.org/2000/svg">
  <g transform="matrix(1.0, 0.0, 0.0, 1.0, 210.85, -11.0)">
    <path d="M124.65 126.95 L124.7 126.95 Q140.45 136.55 166.7 146.55 L166.2 144.6 Q165.65 142.55 166.1 140.9 171.35 147.35 189.65 156.8 L126.55 133.8 Q124.65 130.95 124.65 126.95" fill="url(#gradient0)" fill-rule="evenodd" stroke="none"/>
    <path d="M189.65 156.8 Q169.6 152.2 161.4 153.85 162.15 152.25 163.85 150.95 164.6 150.35 165.5 149.9 139.0 140.6 120.7 137.95 L120.65 137.9 Q123.2 134.85 126.55 133.8 L189.65 156.8" fill="url(#gradient1)" fill-rule="evenodd" stroke="none"/>
    <path d="M120.65 137.9 Q118.45 133.1 114.0 134.95 111.8 136.15 111.25 138.95 110.8 142.45 114.2 144.6 L129.0 151.65 Q120.0 148.3 111.95 146.55 L105.5 149.95 Q106.0 142.3 102.8 137.15 L109.8 130.95 83.05 121.2 Q82.9 119.55 83.4 118.15 83.9 116.7 85.1 115.55 L111.85 125.35 110.5 116.05 Q116.2 114.15 120.8 107.95 L123.55 114.65 Q130.8 118.55 139.9 121.7 L124.0 117.65 Q120.0 117.1 118.15 120.1 116.75 122.55 117.7 124.85 119.9 129.15 124.65 126.95 124.65 130.95 126.55 133.8 123.2 134.85 120.65 137.9" fill="url(#gradient2)" fill-rule="evenodd" stroke="none"/>
    <path d="M120.8 107.95 Q131.8 117.45 146.65 119.75 L146.0 118.0 Q145.6 116.45 145.8 114.15 152.2 122.85 166.25 128.45 L139.9 121.7 Q130.8 118.55 123.55 114.65 L120.8 107.95" fill="url(#gradient3)" fill-rule="evenodd" stroke="none"/>
    <path d="M83.05 121.2 L-146.35 37.75 Q-146.5 36.1 -145.95 34.7 -145.45 33.3 -144.3 32.1 L85.1 115.55 Q83.9 116.7 83.4 118.15 82.9 119.55 83.05 121.2" fill="url(#gradient4)" fill-rule="evenodd" stroke="none"/>
    <path d="M129.0 151.65 L153.55 163.45 Q139.15 158.65 128.65 161.3 129.95 159.4 131.25 158.4 132.1 157.75 132.9 157.55 120.0 149.75 105.5 149.95 L111.95 146.55 Q120.0 148.3 129.0 151.65" fill="url(#gradient5)" fill-rule="evenodd" stroke="none"/>
    <path d="M-146.35 37.75 L-160.3 32.6 Q-171.9 29.9 -175.2 31.6 L-175.25 31.6 Q-174.8 26.45 -176.25 23.65 -173.3 22.5 -170.35 18.2 -168.95 21.6 -158.25 27.0 L-144.3 32.1 Q-145.45 33.3 -145.95 34.7 -146.5 36.1 -146.35 37.75" fill="url(#gradient6)" fill-rule="evenodd" stroke="none"/>
    <path d="M-175.25 31.6 L-210.85 11.1 -176.25 23.65 Q-174.8 26.45 -175.25 31.6" fill="url(#gradient7)" fill-rule="evenodd" stroke="none"/>
    <path d="M-210.85 11.1 L-210.8 11.0 -170.35 18.2 Q-173.3 22.5 -176.25 23.65 L-210.85 11.1" fill="url(#gradient8)" fill-rule="evenodd" stroke="none"/>
    <path d="M126.55 133.8 Q123.2 134.85 120.65 137.9 118.45 133.1 114.0 134.95 111.8 136.15 111.25 138.95 110.8 142.45 114.2 144.6 L129.0 151.65 Q120.0 148.3 111.95 146.55 L105.5 149.95 Q106.0 142.3 102.8 137.15 L109.8 130.95 -160.3 32.6 Q-171.9 29.9 -175.2 31.6 L-175.25 31.6 Q-174.8 26.45 -176.25 23.65 L126.55 133.8" fill="#000000" fill-opacity="0.2" fill-rule="evenodd" stroke="none"/>
    <path d="M126.55 133.8 Q124.65 130.95 124.65 126.95 L124.7 126.95 Q140.45 136.55 166.7 146.55 L166.2 144.6 Q165.65 142.55 166.1 140.9 171.35 147.35 189.65 156.8 L126.55 133.8 M129.0 151.65 L153.55 163.45 Q139.15 158.65 128.65 161.3 129.95 159.4 131.25 158.4 132.1 157.75 132.9 157.55 120.0 149.75 105.5 149.95 L111.95 146.55 Q120.0 148.3 129.0 151.65 M-176.25 23.65 L-210.85 11.1 -210.8 11.0 -170.35 18.2 Q-173.3 22.5 -176.25 23.65 M139.9 121.7 Q130.8 118.55 123.55 114.65 L120.8 107.95 Q131.8 117.45 146.65 119.75 L146.0 118.0 Q145.6 116.45 145.8 114.15 152.2 122.85 166.25 128.45 L139.9 121.7" fill="#ffffff" fill-opacity="0.5019608" fill-rule="evenodd" stroke="none"/>
  </g>
  <defs>
    <linearGradient gradientTransform="matrix(0.0, 0.0182, -0.0397, 0.0, 157.2, 141.85)" gradientUnits="userSpaceOnUse" id="gradient0" spreadMethod="pad" x1="-819.2" x2="819.2">
      <stop offset="0.0" stop-color="#000000" stop-opacity="0.2509804"/>
      <stop offset="1.0" stop-color="#000000" stop-opacity="0.0"/>
    </linearGradient>
    <linearGradient gradientTransform="matrix(0.0, 0.014, -0.0421, 0.0, 155.2, 145.3)" gradientUnits="userSpaceOnUse" id="gradient1" spreadMethod="pad" x1="-819.2" x2="819.2">
      <stop offset="0.0" stop-color="#000000" stop-opacity="0.2509804"/>
      <stop offset="1.0" stop-color="#000000" stop-opacity="0.0"/>
    </linearGradient>
    <linearGradient gradientTransform="matrix(0.0, 0.0267, -0.0347, 0.0, 111.45, 129.75)" gradientUnits="userSpaceOnUse" id="gradient2" spreadMethod="pad" x1="-819.2" x2="819.2">
      <stop offset="0.0" stop-color="#000000" stop-opacity="0.2509804"/>
      <stop offset="1.0" stop-color="#000000" stop-opacity="0.0"/>
    </linearGradient>
    <linearGradient gradientTransform="matrix(0.0, 0.0125, -0.0278, 0.0, 143.55, 118.15)" gradientUnits="userSpaceOnUse" id="gradient3" spreadMethod="pad" x1="-819.2" x2="819.2">
      <stop offset="0.0" stop-color="#000000" stop-opacity="0.2509804"/>
      <stop offset="1.0" stop-color="#000000" stop-opacity="0.0"/>
    </linearGradient>
    <linearGradient gradientTransform="matrix(0.0, 0.0544, -0.1413, 0.0, -30.65, 76.65)" gradientUnits="userSpaceOnUse" id="gradient4" spreadMethod="pad" x1="-819.2" x2="819.2">
      <stop offset="0.0" stop-color="#000000" stop-opacity="0.2509804"/>
      <stop offset="1.0" stop-color="#000000" stop-opacity="0.0"/>
    </linearGradient>
    <linearGradient gradientTransform="matrix(0.0, 0.0103, -0.0293, 0.0, 129.55, 155.0)" gradientUnits="userSpaceOnUse" id="gradient5" spreadMethod="pad" x1="-819.2" x2="819.2">
      <stop offset="0.0" stop-color="#000000" stop-opacity="0.2509804"/>
      <stop offset="1.0" stop-color="#000000" stop-opacity="0.0"/>
    </linearGradient>
    <linearGradient gradientTransform="matrix(0.0, 0.0119, -0.0195, 0.0, -160.25, 28.0)" gradientUnits="userSpaceOnUse" id="gradient6" spreadMethod="pad" x1="-819.2" x2="819.2">
      <stop offset="0.0" stop-color="#000000" stop-opacity="0.2509804"/>
      <stop offset="1.0" stop-color="#000000" stop-opacity="0.0"/>
    </linearGradient>
    <linearGradient gradientTransform="matrix(0.0, 0.0125, -0.0218, 0.0, -192.95, 21.35)" gradientUnits="userSpaceOnUse" id="gradient7" spreadMethod="pad" x1="-819.2" x2="819.2">
      <stop offset="0.0" stop-color="#000000" stop-opacity="0.2509804"/>
      <stop offset="1.0" stop-color="#000000" stop-opacity="0.0"/>
    </linearGradient>
    <linearGradient gradientTransform="matrix(0.0, 0.0077, -0.0247, 0.0, -190.6, 17.35)" gradientUnits="userSpaceOnUse" id="gradient8" spreadMethod="pad" x1="-819.2" x2="819.2">
      <stop offset="0.0" stop-color="#000000" stop-opacity="0.2509804"/>
      <stop offset="1.0" stop-color="#000000" stop-opacity="0.0"/>
    </linearGradient>
  </defs>
</svg>
