<?xml version="1.0" encoding="UTF-8" standalone="no"?>
<svg xmlns:xlink="http://www.w3.org/1999/xlink" height="130.25px" width="325.65px" xmlns="http://www.w3.org/2000/svg">
  <g transform="matrix(1.0, 0.0, 0.0, 1.0, 199.0, 36.05)">
    <path d="M-174.75 -20.5 L-174.85 -20.55 -175.1 -20.6 Q-179.35 -22.65 -182.85 -23.85 L-197.1 -30.4 Q-199.45 -31.3 -198.9 -35.0 -198.65 -36.55 -195.75 -35.8 L-184.0 -30.9 Q-177.8 -28.4 -172.75 -25.5 L-172.5 -25.35 Q-169.8 -23.7 -171.0 -21.4 -172.05 -19.25 -174.75 -20.5 M-187.35 -27.15 L-187.1 -26.9 -186.55 -26.9 -186.35 -27.25 -186.25 -27.35 -186.3 -27.7 Q-186.4 -27.95 -186.65 -28.0 L-187.1 -27.95 -187.45 -27.6 -187.35 -27.15" fill="url(#gradient0)" fill-rule="evenodd" stroke="none"/>
    <path d="M-172.5 -25.35 L-147.15 -10.95 Q-147.85 -11.1 -148.4 -10.25 L-150.35 -7.2 Q-150.95 -6.3 -150.7 -5.35 -153.35 -7.5 -156.35 -9.15 -166.75 -16.45 -174.75 -20.5 -172.05 -19.25 -171.0 -21.4 -169.8 -23.7 -172.5 -25.35" fill="url(#gradient1)" fill-rule="evenodd" stroke="none"/>
    <path d="M-147.15 -10.95 L-143.35 -8.75 -133.35 13.85 -133.35 13.9 -135.95 15.15 -138.9 9.25 Q-143.35 0.45 -150.7 -5.35 -150.95 -6.3 -150.35 -7.2 L-148.4 -10.25 Q-147.85 -11.1 -147.15 -10.95" fill="url(#gradient2)" fill-rule="evenodd" stroke="none"/>
    <path d="M-64.65 62.25 Q-58.35 62.55 -51.15 65.15 -43.9 67.75 -38.95 71.65 -39.95 75.1 -42.35 78.0 -48.2 75.45 -54.15 73.45 -60.05 71.1 -66.1 69.3 -66.1 65.6 -64.65 62.25" fill="url(#gradient3)" fill-rule="evenodd" stroke="none"/>
    <path d="M-88.95 59.75 L-84.15 60.95 Q-77.95 62.25 -67.75 62.25 L-64.65 62.25 Q-66.1 65.6 -66.1 69.3 -72.45 67.55 -79.05 66.25 -84.55 65.0 -89.9 63.2 L-89.85 63.2 Q-90.1 61.2 -88.95 59.75" fill="url(#gradient4)" fill-rule="evenodd" stroke="none"/>
    <path d="M-38.95 71.65 L-36.6 73.65 Q-28.7 80.25 -23.15 83.2 L-18.75 85.3 Q-18.8 87.15 -20.2 88.55 -25.3 86.6 -30.45 83.9 -36.35 80.7 -42.35 78.0 -39.95 75.1 -38.95 71.65" fill="url(#gradient5)" fill-rule="evenodd" stroke="none"/>
    <path d="M-18.75 85.3 L-15.2 86.75 -14.75 86.9 -11.9 88.0 -10.55 88.45 -6.95 89.45 -4.05 90.15 -3.75 90.25 0.9 90.85 Q14.65 91.9 34.3 83.85 L44.85 78.75 46.0 81.3 Q35.9 85.7 25.8 90.05 13.4 95.45 -0.15 93.85 L-5.05 93.05 -5.55 93.0 -8.0 92.45 -11.6 91.45 -12.95 91.05 -15.9 90.1 -16.45 89.85 -20.2 88.55 Q-18.8 87.15 -18.75 85.3" fill="url(#gradient6)" fill-rule="evenodd" stroke="none"/>
    <path d="M-133.35 13.9 L-128.7 24.55 Q-118.75 43.35 -107.55 51.35 L-103.7 53.85 -103.35 54.05 -100.65 55.3 -97.25 56.85 -95.85 57.4 -93.0 58.45 -92.5 58.65 -88.95 59.75 Q-90.1 61.2 -89.85 63.2 L-93.65 61.85 -94.2 61.65 -96.95 60.45 -98.3 59.9 -101.75 58.3 -103.95 57.2 -104.4 56.85 Q-106.6 55.75 -108.6 54.35 -120.1 46.85 -126.15 34.75 L-135.95 15.15 -133.35 13.9" fill="url(#gradient7)" fill-rule="evenodd" stroke="none"/>
    <path d="M100.1 73.85 L100.2 73.85 Q106.05 74.9 112.45 77.0 L124.45 80.8 Q127.25 82.1 126.45 83.3 124.5 86.55 122.05 85.75 L107.0 81.65 Q103.5 80.25 98.9 79.1 L98.75 79.05 Q95.75 78.25 96.4 75.85 96.95 73.35 100.1 73.85 M112.9 81.65 L112.9 81.25 112.6 80.9 112.1 80.9 111.85 81.2 111.75 81.25 111.75 81.75 112.15 82.05 112.65 82.05 112.9 81.65" fill="url(#gradient8)" fill-rule="evenodd" stroke="none"/>
    <path d="M71.3 68.55 L100.1 73.85 Q96.95 73.35 96.4 75.85 95.75 78.25 98.75 79.05 90.0 77.0 77.2 75.85 L70.5 75.15 Q71.2 74.65 71.45 73.45 L71.85 69.95 Q71.95 68.9 71.3 68.55" fill="url(#gradient9)" fill-rule="evenodd" stroke="none"/>
    <path d="M44.85 78.75 L67.0 67.8 71.3 68.55 Q71.95 68.9 71.85 69.95 L71.45 73.45 Q71.2 74.65 70.5 75.15 61.1 74.9 52.05 78.7 L46.0 81.3 44.85 78.75" fill="url(#gradient10)" fill-rule="evenodd" stroke="none"/>
  </g>
  <defs>
    <linearGradient gradientTransform="matrix(0.0, 0.0098, -0.0173, 0.0, -184.8, -28.05)" gradientUnits="userSpaceOnUse" id="gradient0" spreadMethod="pad" x1="-819.2" x2="819.2">
      <stop offset="0.0" stop-color="#000000" stop-opacity="0.2509804"/>
      <stop offset="1.0" stop-color="#000000" stop-opacity="0.0"/>
    </linearGradient>
    <linearGradient gradientTransform="matrix(0.0, 0.0122, -0.0169, 0.0, -160.95, -15.4)" gradientUnits="userSpaceOnUse" id="gradient1" spreadMethod="pad" x1="-819.2" x2="819.2">
      <stop offset="0.0" stop-color="#000000" stop-opacity="0.2509804"/>
      <stop offset="1.0" stop-color="#000000" stop-opacity="0.0"/>
    </linearGradient>
    <linearGradient gradientTransform="matrix(0.0, 0.0159, -0.0107, 0.0, -142.05, 2.05)" gradientUnits="userSpaceOnUse" id="gradient2" spreadMethod="pad" x1="-819.2" x2="819.2">
      <stop offset="0.0" stop-color="#000000" stop-opacity="0.2509804"/>
      <stop offset="1.0" stop-color="#000000" stop-opacity="0.0"/>
    </linearGradient>
    <linearGradient gradientTransform="matrix(0.0, 0.0096, -0.0166, 0.0, -52.55, 70.1)" gradientUnits="userSpaceOnUse" id="gradient3" spreadMethod="pad" x1="-819.2" x2="819.2">
      <stop offset="0.0" stop-color="#000000" stop-opacity="0.2509804"/>
      <stop offset="1.0" stop-color="#000000" stop-opacity="0.0"/>
    </linearGradient>
    <linearGradient gradientTransform="matrix(0.0, 0.0058, -0.0154, 0.0, -77.25, 64.5)" gradientUnits="userSpaceOnUse" id="gradient4" spreadMethod="pad" x1="-819.2" x2="819.2">
      <stop offset="0.0" stop-color="#000000" stop-opacity="0.2509804"/>
      <stop offset="1.0" stop-color="#000000" stop-opacity="0.0"/>
    </linearGradient>
    <linearGradient gradientTransform="matrix(0.0, 0.0103, -0.0144, 0.0, -30.55, 80.05)" gradientUnits="userSpaceOnUse" id="gradient5" spreadMethod="pad" x1="-819.2" x2="819.2">
      <stop offset="0.0" stop-color="#000000" stop-opacity="0.2509804"/>
      <stop offset="1.0" stop-color="#000000" stop-opacity="0.0"/>
    </linearGradient>
    <linearGradient gradientTransform="matrix(0.0, 0.0094, -0.0404, 0.0, 12.9, 86.45)" gradientUnits="userSpaceOnUse" id="gradient6" spreadMethod="pad" x1="-819.2" x2="819.2">
      <stop offset="0.0" stop-color="#000000" stop-opacity="0.2509804"/>
      <stop offset="1.0" stop-color="#000000" stop-opacity="0.0"/>
    </linearGradient>
    <linearGradient gradientTransform="matrix(0.0, 0.0301, -0.0287, 0.0, -112.45, 38.55)" gradientUnits="userSpaceOnUse" id="gradient7" spreadMethod="pad" x1="-819.2" x2="819.2">
      <stop offset="0.0" stop-color="#000000" stop-opacity="0.2509804"/>
      <stop offset="1.0" stop-color="#000000" stop-opacity="0.0"/>
    </linearGradient>
    <linearGradient gradientTransform="matrix(0.0, 0.0074, -0.0185, 0.0, 111.45, 79.85)" gradientUnits="userSpaceOnUse" id="gradient8" spreadMethod="pad" x1="-819.2" x2="819.2">
      <stop offset="0.0" stop-color="#000000" stop-opacity="0.2509804"/>
      <stop offset="1.0" stop-color="#000000" stop-opacity="0.0"/>
    </linearGradient>
    <linearGradient gradientTransform="matrix(0.0, 0.0064, -0.0181, 0.0, 85.35, 73.8)" gradientUnits="userSpaceOnUse" id="gradient9" spreadMethod="pad" x1="-819.2" x2="819.2">
      <stop offset="0.0" stop-color="#000000" stop-opacity="0.2509804"/>
      <stop offset="1.0" stop-color="#000000" stop-opacity="0.0"/>
    </linearGradient>
    <linearGradient gradientTransform="matrix(0.0, 0.0083, -0.0165, 0.0, 58.35, 74.55)" gradientUnits="userSpaceOnUse" id="gradient10" spreadMethod="pad" x1="-819.2" x2="819.2">
      <stop offset="0.0" stop-color="#000000" stop-opacity="0.2509804"/>
      <stop offset="1.0" stop-color="#000000" stop-opacity="0.0"/>
    </linearGradient>
  </defs>
</svg>
