<?xml version="1.0" encoding="UTF-8" standalone="no"?>
<svg xmlns:xlink="http://www.w3.org/1999/xlink" height="4.3px" width="34.8px" xmlns="http://www.w3.org/2000/svg">
  <g transform="matrix(1.0, 0.0, 0.0, 1.0, -382.0, -132.3)">
    <path d="M384.5 132.3 L385.05 132.4 Q385.75 132.5 386.25 132.95 387.05 133.6 387.05 134.45 387.05 135.35 386.25 136.0 L385.4 136.45 384.5 136.6 384.2 136.6 Q383.45 136.55 382.9 136.15 L382.75 136.0 382.45 135.75 Q382.0 135.15 382.0 134.45 382.0 133.6 382.75 132.95 383.45 132.3 384.5 132.3 M416.05 132.95 Q416.8 133.6 416.8 134.45 416.8 135.15 416.35 135.7 L416.05 135.95 415.9 136.1 Q415.3 136.55 414.6 136.6 L414.3 136.6 413.3 136.45 412.55 135.95 Q411.75 135.3 411.75 134.45 411.75 133.6 412.55 132.95 413.05 132.45 413.75 132.4 L414.3 132.3 Q415.3 132.3 416.05 132.95" fill="#000000" fill-rule="evenodd" stroke="none"/>
  </g>
</svg>
