<?xml version="1.0" encoding="UTF-8" standalone="no"?>
<svg xmlns:xlink="http://www.w3.org/1999/xlink" height="4.95px" width="31.25px" xmlns="http://www.w3.org/2000/svg">
  <g transform="matrix(1.0, 0.0, 0.0, 1.0, -383.3, -133.35)">
    <path d="M411.9 134.4 Q413.05 133.75 414.1 133.35 L414.55 134.85 414.4 136.35 Q414.2 137.25 413.65 137.75 413.25 138.05 412.85 138.15 L411.95 138.3 Q411.25 138.3 410.4 137.75 409.35 137.05 409.4 136.2 410.4 135.15 411.9 134.4 M383.3 134.85 L383.75 133.35 385.95 134.35 Q387.45 135.15 388.4 136.2 388.55 137.05 387.5 137.7 386.6 138.3 385.9 138.3 L385.75 138.3 384.95 138.15 384.3 137.85 Q383.2 137.0 383.3 134.85" fill="#000000" fill-rule="evenodd" stroke="none"/>
  </g>
</svg>
