<?xml version="1.0" encoding="UTF-8" standalone="no"?>
<svg xmlns:xlink="http://www.w3.org/1999/xlink" height="5.85px" width="43.25px" xmlns="http://www.w3.org/2000/svg">
  <g transform="matrix(1.0, 0.0, 0.0, 1.0, -378.3, -128.5)">
    <path d="M386.7 131.45 Q387.3 132.3 386.05 133.3 384.9 134.35 383.15 134.35 381.45 134.35 380.1 133.2 378.65 132.1 378.35 130.55 378.0 128.95 379.3 128.85 L382.35 128.55 Q384.2 128.35 385.15 129.5 L386.7 131.45 M421.5 130.55 Q421.15 132.1 419.75 133.2 418.35 134.35 416.7 134.35 414.95 134.35 413.75 133.3 412.55 132.3 413.1 131.45 L414.65 129.5 Q415.65 128.35 417.45 128.55 L420.5 128.85 Q421.8 128.95 421.5 130.55" fill="#000000" fill-rule="evenodd" stroke="none"/>
  </g>
</svg>
