<?xml version="1.0" encoding="UTF-8" standalone="no"?>
<svg xmlns:xlink="http://www.w3.org/1999/xlink" height="74.8px" width="93.6px" xmlns="http://www.w3.org/2000/svg">
  <g transform="matrix(1.0, 0.0, 0.0, 1.0, -353.05, -102.2)">
    <path d="M383.35 106.2 Q383.45 107.4 384.7 108.45 386.05 109.55 387.35 109.45 389.25 109.15 389.85 110.95 390.45 112.8 391.25 112.8 392.3 112.8 393.6 111.65 394.85 110.55 394.85 109.7 L394.4 108.7 393.95 107.85 Q393.95 107.5 395.1 106.65 396.2 105.8 396.2 105.1 L395.95 103.85 395.7 102.85 M379.0 108.8 Q383.4 110.65 385.9 113.05 M416.35 106.2 Q416.25 107.4 415.0 108.45 413.65 109.55 412.35 109.45 410.45 109.15 409.85 110.95 409.3 112.8 408.45 112.8 407.4 112.8 406.1 111.65 404.85 110.55 404.85 109.7 404.85 109.3 405.3 108.7 L405.75 107.85 Q405.75 107.5 404.6 106.65 403.5 105.8 403.5 105.1 L403.75 103.85 404.0 102.85 M392.7 114.7 L390.1 116.85 Q390.1 117.25 390.45 117.95 L390.75 119.4 Q390.7 119.9 390.95 120.2 391.25 120.7 391.85 120.7 393.3 120.7 393.4 119.45 393.6 118.0 394.2 117.8 L395.35 116.8 Q395.95 115.95 395.95 115.35 395.95 114.85 395.55 114.45 L394.7 114.05 393.75 115.3 Q393.2 115.3 393.05 115.0 392.9 114.7 392.7 114.7 M403.75 115.35 Q403.75 114.85 404.15 114.45 404.55 114.05 405.0 114.05 L405.95 115.3 406.7 115.0 Q406.8 114.7 407.0 114.7 L409.6 116.85 409.3 117.95 Q408.95 118.65 408.95 119.4 L408.75 120.2 Q408.45 120.7 407.85 120.7 406.4 120.7 406.3 119.45 406.1 118.0 405.5 117.8 404.9 117.6 404.35 116.8 403.75 115.95 403.75 115.35 M369.45 114.3 Q369.8 114.3 370.1 115.65 L370.4 117.95 372.55 118.2 Q373.8 118.55 373.8 119.0 373.8 119.45 372.55 119.7 L370.4 120.05 370.1 122.15 Q369.8 123.55 369.45 123.55 369.05 123.55 368.7 122.15 L368.5 120.05 366.65 119.7 Q365.45 119.45 365.45 119.0 365.45 118.55 366.65 118.2 L368.5 118.0 368.7 115.65 Q369.05 114.3 369.45 114.3 M362.1 118.8 Q362.5 116.2 365.45 113.55 370.85 107.3 380.5 116.65 378.9 130.55 370.85 128.55 364.55 125.5 362.8 122.25 M359.95 157.4 Q365.0 163.85 376.25 169.6 387.65 174.0 399.85 173.9 412.05 174.0 423.45 169.6 434.7 163.85 439.75 157.4 M359.9 150.3 Q377.6 140.75 399.85 141.6 422.1 140.75 439.8 150.3 M429.6 115.65 L429.3 117.95 427.15 118.2 Q425.9 118.55 425.9 119.0 425.9 119.45 427.15 119.7 L429.3 120.05 429.6 122.15 Q429.9 123.55 430.25 123.55 430.65 123.55 431.0 122.15 L431.2 120.05 433.05 119.7 Q434.25 119.45 434.25 119.0 434.25 118.55 433.05 118.2 L431.2 118.0 431.0 115.65 Q430.65 114.3 430.25 114.3 429.9 114.3 429.6 115.65 M437.6 118.8 Q437.2 116.2 434.25 113.55 428.85 107.3 419.2 116.65 420.8 130.55 428.85 128.55 435.4 125.3 437.1 121.9 M420.7 108.8 Q416.3 110.65 413.8 113.05" fill="none" stroke="#000000" stroke-linecap="round" stroke-linejoin="round" stroke-opacity="0.5019608" stroke-width="1.0"/>
    <path d="M395.7 102.85 Q389.05 103.4 383.45 106.1 L383.35 106.2 Q381.05 107.3 379.0 108.8 M395.7 102.85 L399.85 102.75 404.0 102.85 Q410.65 103.4 416.25 106.1 L416.35 106.2 420.7 108.8 Q422.2 108.05 423.9 107.5 432.6 105.1 437.15 114.65 L437.6 118.8 437.6 119.2 Q437.75 120.55 437.1 121.9 438.15 129.95 441.65 136.65 447.3 147.85 439.75 157.4 441.5 166.95 446.15 176.5 M353.55 176.5 Q358.2 166.95 359.95 157.4 352.4 147.85 358.05 136.65 361.55 129.95 362.8 122.25 361.95 120.75 362.1 119.2 L362.1 118.8 362.55 114.65 Q367.1 105.1 375.8 107.5 377.5 108.05 379.0 108.8" fill="none" stroke="#000000" stroke-linecap="round" stroke-linejoin="round" stroke-width="1.0"/>
  </g>
</svg>
