<?xml version="1.0" encoding="UTF-8" standalone="no"?>
<svg xmlns:xlink="http://www.w3.org/1999/xlink" height="7.5px" width="41.05px" xmlns="http://www.w3.org/2000/svg">
  <g transform="matrix(1.0, 0.0, 0.0, 1.0, 20.65, 163.65)">
    <path d="M15.15 -156.3 Q12.55 -155.8 8.75 -157.1 L11.65 -159.75 Q13.6 -161.45 15.2 -162.35 14.6 -158.8 15.15 -156.3 16.0 -161.3 15.35 -162.4 16.05 -162.85 16.7 -163.15 L20.4 -163.25 Q19.5 -157.2 15.15 -156.3 M-15.45 -162.35 Q-13.85 -161.45 -11.9 -159.75 L-9.05 -157.1 Q-12.8 -155.8 -15.4 -156.3 -19.75 -157.2 -20.65 -163.25 L-16.95 -163.15 -15.6 -162.4 Q-16.25 -161.3 -15.4 -156.3 -14.9 -158.8 -15.45 -162.35" fill="#ff9900" fill-rule="evenodd" stroke="none"/>
    <path d="M15.15 -156.3 Q14.6 -158.8 15.2 -162.35 L15.35 -162.4 Q16.0 -161.3 15.15 -156.3 M-15.6 -162.4 L-15.45 -162.35 Q-14.9 -158.8 -15.4 -156.3 -16.25 -161.3 -15.6 -162.4" fill="#000000" fill-rule="evenodd" stroke="none"/>
  </g>
</svg>
