<?xml version="1.0" encoding="UTF-8" standalone="no"?>
<svg xmlns:xlink="http://www.w3.org/1999/xlink" height="104.65px" width="90.05px" xmlns="http://www.w3.org/2000/svg">
  <g transform="matrix(1.0, 0.0, 0.0, 1.0, -355.05, -91.6)">
    <path d="M392.7 114.5 L392.1 113.35 392.65 114.5 392.7 114.5 M405.2 95.4 L407.25 98.65 413.1 104.05 413.35 102.6 414.35 105.15 414.85 103.95 416.15 106.65 416.6 105.6 417.9 108.5 418.95 108.5 420.85 107.8 430.55 100.15 436.4 97.45 439.0 96.55 445.1 96.55 439.65 97.85 437.3 101.05 435.45 105.8 432.4 111.0 428.6 113.4 423.7 114.0 420.8 114.0 420.05 114.75 421.6 117.55 422.0 118.85 424.75 118.35 426.65 118.85 424.85 119.25 423.95 120.3 426.5 120.3 430.4 121.8 427.45 122.15 426.25 123.2 430.55 125.15 428.95 125.4 431.85 126.9 434.95 129.95 431.25 128.65 429.25 128.65 432.4 132.1 434.45 136.2 431.85 133.6 427.35 131.25 431.05 135.45 434.5 140.9 430.55 137.45 428.85 136.4 431.75 140.55 432.8 142.5 430.85 141.2 429.9 141.2 429.55 141.95 432.0 145.95 435.65 149.8 443.15 161.5 440.0 158.25 437.95 157.2 439.0 159.75 439.35 166.35 438.25 163.95 437.85 163.5 437.2 167.6 431.55 175.75 433.5 171.75 434.05 167.2 428.75 173.4 422.1 178.6 423.75 176.1 424.2 174.1 420.7 177.55 413.3 180.65 408.25 185.4 406.15 189.75 404.8 191.05 405.3 188.75 403.35 191.9 403.35 190.75 401.35 194.95 399.9 196.25 398.8 194.95 396.8 190.75 396.8 191.85 394.85 188.65 395.35 191.05 394.0 189.75 391.9 185.35 386.85 180.65 379.45 177.5 375.95 174.05 376.4 176.05 378.1 178.55 371.4 173.35 366.1 167.15 366.65 171.7 368.6 175.65 362.95 167.55 362.3 163.5 361.9 163.9 360.8 166.3 361.2 159.7 362.2 157.15 360.15 158.2 357.0 161.5 364.5 149.75 368.25 145.9 370.65 141.85 370.35 141.15 369.35 141.15 367.55 142.4 368.5 140.5 371.45 136.35 371.25 136.4 369.7 137.4 365.75 140.85 369.25 135.35 372.8 131.2 368.4 133.55 365.9 136.0 367.75 132.05 370.95 128.6 368.9 128.6 365.2 129.9 368.35 126.85 371.2 125.35 369.7 125.15 373.9 123.2 372.7 122.1 369.75 121.7 373.65 120.3 376.2 120.3 375.3 119.2 373.55 118.8 375.4 118.35 378.15 118.8 378.55 117.5 380.1 114.75 379.4 113.9 376.45 113.9 371.6 113.35 367.75 110.95 364.7 105.75 362.85 101.0 360.55 97.85 355.05 96.55 361.2 96.55 363.8 97.4 369.65 100.15 372.3 101.95 379.3 107.75 381.2 108.45 382.25 108.45 383.55 105.55 384.0 106.55 385.3 103.9 385.8 105.15 386.8 102.55 387.05 104.05 392.9 98.65 395.0 95.35 394.7 97.15 393.85 99.7 396.0 95.8 399.25 91.6 399.7 94.15 400.05 92.25 400.45 94.2 400.9 91.7 404.15 95.85 406.3 99.75 405.45 97.2 405.2 95.4 M374.0 146.1 L372.7 149.6 Q371.9 151.8 372.35 154.0 372.75 156.5 373.6 158.9 374.3 161.0 375.35 163.0 L376.6 165.05 Q377.75 166.85 379.4 168.25 380.6 169.25 382.0 169.9 L383.75 170.6 384.45 170.85 384.75 172.1 Q385.3 173.5 386.8 174.8 L387.75 175.3 388.85 175.55 390.35 175.75 389.8 174.95 388.8 172.2 388.8 170.8 390.15 169.35 Q390.25 167.2 388.95 165.4 L388.65 165.05 387.9 164.3 386.6 163.4 385.55 162.95 384.5 162.55 384.25 162.45 383.45 162.15 Q381.45 161.5 379.75 160.2 L378.8 159.1 376.6 154.85 Q375.8 152.85 375.8 150.65 375.85 148.35 376.2 146.1 L376.25 145.85 376.7 142.8 377.9 139.6 377.75 139.8 Q377.05 140.5 376.45 141.35 375.1 143.35 374.25 145.65 L374.0 146.1 M404.65 176.0 L402.85 175.4 400.1 175.1 397.3 175.35 395.5 175.95 393.4 177.55 394.8 177.8 405.4 177.9 406.8 177.6 404.65 176.0 M392.25 142.25 L391.25 141.85 Q390.1 141.4 389.4 140.7 L388.1 138.55 387.75 138.05 387.05 137.05 387.0 137.1 Q386.05 138.25 386.15 139.45 386.4 145.0 391.15 142.95 L391.2 142.95 391.25 142.9 392.25 142.25 M402.9 186.35 L402.65 186.45 402.65 186.5 402.9 186.35 M397.5 186.45 L397.5 186.4 397.25 186.35 397.5 186.45 M412.2 138.6 L410.9 140.75 Q410.2 141.5 408.95 141.95 L408.05 142.3 408.95 142.95 Q413.8 145.1 414.15 139.55 414.2 138.25 413.25 137.1 L412.55 138.1 412.2 138.6 M407.5 114.5 L408.05 113.35 407.45 114.5 407.5 114.5 M423.55 142.95 L424.05 145.9 424.05 146.15 424.35 150.7 Q424.35 152.85 423.55 154.95 L421.35 159.15 420.4 160.25 Q418.7 161.5 416.7 162.2 L415.7 162.6 415.65 162.6 414.6 162.95 Q414.1 163.1 413.55 163.45 412.2 164.15 411.25 165.45 409.95 167.3 410.0 169.45 L411.35 170.85 411.35 172.3 410.4 175.0 409.8 175.8 411.3 175.6 412.0 175.4 412.4 175.35 413.35 174.9 Q414.85 173.6 415.4 172.15 L415.7 170.9 418.2 169.95 420.8 168.3 Q422.4 166.9 423.55 165.05 L424.8 163.0 Q425.85 161.05 426.55 158.9 L427.8 154.1 Q428.25 151.9 427.45 149.65 L426.25 146.15 426.05 145.7 Q425.15 143.45 423.85 141.4 L422.4 139.65 423.55 142.95" fill="#000000" fill-rule="evenodd" stroke="none"/>
  </g>
</svg>
