<?xml version="1.0" encoding="UTF-8" standalone="no"?>
<svg xmlns:xlink="http://www.w3.org/1999/xlink" height="82.3px" width="247.85px" xmlns="http://www.w3.org/2000/svg">
  <g transform="matrix(1.0, 0.0, 0.0, 1.0, -276.0, -29.8)">
    <path d="M512.45 68.8 L516.8 76.95 517.55 80.75 516.35 85.2 Q513.75 90.85 514.1 94.55 L516.25 94.6 Q517.35 94.35 517.9 93.3 519.6 90.0 518.85 86.15 518.65 85.2 519.2 84.35 L519.4 84.15 519.75 83.75 Q522.45 84.55 523.3 87.45 525.25 94.3 520.55 99.7 517.3 103.4 512.45 103.0 L511.85 102.95 510.55 102.65 Q507.9 105.2 504.5 106.4 L502.8 106.65 Q493.2 107.6 483.55 107.05 L474.0 106.55 473.45 106.55 472.8 106.5 467.4 109.65 465.15 109.65 460.8 107.7 444.05 107.7 437.5 109.35 433.25 112.1 428.0 110.75 425.65 104.45 426.25 103.65 441.75 97.95 Q446.65 91.7 447.15 87.25 447.75 82.85 445.0 79.1 442.35 75.3 436.55 70.7 L436.25 70.35 436.4 68.4 437.2 68.4 Q446.05 70.55 449.7 75.25 L456.15 83.55 Q458.8 87.15 456.35 91.5 453.85 95.8 453.85 98.5 L465.7 96.8 465.7 89.0 462.4 83.25 462.9 81.55 465.8 82.05 469.05 84.65 470.1 86.95 473.05 89.8 478.05 84.0 478.8 80.9 477.9 76.65 475.75 72.9 472.8 69.6 Q467.45 62.95 456.9 53.4 446.5 43.85 449.55 38.3 452.65 32.8 454.1 30.7 L454.6 29.8 456.15 29.8 457.2 30.6 457.2 46.4 478.3 61.7 481.05 51.45 474.4 42.1 474.2 41.75 476.4 40.75 Q481.4 44.25 485.2 49.05 487.65 52.25 488.2 56.25 489.1 63.15 485.3 69.05 L485.7 69.6 Q488.9 73.95 491.05 78.8 491.7 80.4 491.95 82.0 492.75 86.4 490.4 90.7 L489.95 91.45 489.05 92.8 489.05 94.15 494.55 94.15 Q513.0 90.2 501.55 67.65 L496.7 61.7 496.7 59.9 498.25 59.3 508.35 64.6 512.45 68.8 M345.25 29.8 L345.7 30.7 350.25 38.3 Q353.3 43.85 342.9 53.4 332.4 62.95 327.05 69.6 L324.05 72.9 321.9 76.65 321.0 80.9 321.8 84.0 326.8 89.8 329.7 86.95 330.75 84.65 334.0 82.05 336.95 81.55 337.45 83.25 334.15 89.0 334.15 96.8 345.95 98.5 Q345.95 95.8 343.5 91.5 341.05 87.15 343.7 83.55 L350.15 75.25 Q353.75 70.55 362.6 68.4 L363.45 68.4 363.6 70.35 363.25 70.7 Q357.45 75.3 354.8 79.1 352.1 82.85 352.65 87.25 353.2 91.7 358.05 97.95 L373.6 103.65 374.2 104.45 371.85 110.75 366.55 112.1 362.35 109.35 355.8 107.7 339.0 107.7 334.65 109.65 332.45 109.65 327.05 106.5 326.4 106.55 325.8 106.55 316.25 107.05 Q306.65 107.6 297.0 106.65 L295.35 106.4 Q291.95 105.2 289.3 102.65 L288.0 102.95 287.4 103.0 Q282.55 103.4 279.3 99.7 274.6 94.3 276.55 87.45 277.4 84.55 280.05 83.75 L280.45 84.15 280.65 84.35 Q281.15 85.2 280.95 86.15 280.25 90.0 281.95 93.3 282.45 94.35 283.55 94.6 L285.7 94.55 Q286.1 90.85 283.5 85.2 L282.25 80.75 283.05 76.95 287.4 68.8 291.5 64.6 301.55 59.3 303.15 59.9 303.15 61.7 298.25 67.65 Q286.8 90.2 305.3 94.15 L310.8 94.15 310.8 92.8 309.9 91.45 309.45 90.7 Q307.1 86.4 307.9 82.0 308.15 80.4 308.8 78.8 310.95 73.95 314.1 69.6 L314.5 69.05 Q310.75 63.15 311.65 56.25 312.15 52.25 314.65 49.05 318.4 44.25 323.4 40.75 L325.6 41.75 325.45 42.1 318.8 51.45 321.55 61.7 342.65 46.4 342.65 30.6 343.7 29.8 345.25 29.8" fill="#000000" fill-rule="evenodd" stroke="none"/>
  </g>
</svg>
