<?xml version="1.0" encoding="UTF-8" standalone="no"?>
<svg xmlns:xlink="http://www.w3.org/1999/xlink" height="382.85px" width="159.95px" xmlns="http://www.w3.org/2000/svg">
  <g transform="matrix(1.0, 0.0, 0.0, 1.0, -119.25, -82.25)">
    <path d="M212.6 82.25 Q215.15 82.6 217.7 83.55 224.15 86.55 224.25 94.25 L223.6 96.7 Q225.05 100.7 223.6 104.75 L223.9 122.3 222.0 124.4 219.3 124.4 219.3 131.1 Q253.5 135.8 276.45 153.15 284.5 181.85 269.1 212.0 273.75 221.0 274.95 230.0 264.2 252.0 261.15 262.4 L257.9 273.75 269.8 285.5 Q266.25 290.05 265.1 297.25 L262.65 297.25 262.75 300.75 Q262.1 304.25 258.55 303.95 256.45 303.6 255.75 302.2 252.7 303.6 250.95 302.6 249.6 301.8 249.0 299.7 246.85 300.4 245.55 299.7 244.35 299.05 243.75 297.3 242.05 297.0 241.15 296.2 239.8 295.0 240.15 292.6 240.4 288.95 241.35 285.35 238.75 293.6 234.85 301.45 L231.75 307.3 218.5 327.25 218.0 334.95 219.3 351.15 204.6 413.8 Q203.5 420.3 210.75 426.8 222.7 438.2 231.85 450.2 216.55 451.1 201.25 439.75 L190.95 435.35 192.4 413.25 Q193.85 391.45 189.35 370.55 185.85 392.15 184.1 414.35 185.7 427.85 190.3 442.05 192.15 457.05 185.7 465.1 176.25 458.25 170.35 450.4 170.8 438.1 174.75 427.45 175.4 421.4 173.7 415.35 163.2 384.5 161.85 354.75 166.45 340.65 175.9 333.75 L182.95 272.2 Q186.55 241.25 182.95 211.95 169.65 205.2 158.45 196.4 L153.4 210.25 159.6 225.35 Q156.25 245.35 159.6 263.8 L160.25 267.1 Q160.75 269.55 161.4 272.0 L175.05 279.7 173.3 288.05 176.4 292.65 175.65 293.55 Q174.55 294.5 173.05 294.4 171.5 294.3 169.6 293.2 L169.55 293.2 Q169.35 298.25 169.55 303.3 L164.05 304.45 163.35 302.45 Q159.5 304.05 157.05 300.8 L144.75 292.65 146.7 276.8 Q142.3 272.0 138.6 267.1 L136.2 263.8 Q122.0 243.45 119.25 220.95 L125.7 209.3 Q117.9 175.9 127.6 144.15 152.2 134.7 179.4 127.65 188.85 118.0 193.0 104.9 192.15 103.5 191.7 100.9 190.75 95.55 194.25 95.3 194.1 86.05 201.2 83.55 L202.3 83.2 Q197.8 86.6 198.85 92.2 L201.7 97.25 199.05 101.3 199.3 118.4 202.75 122.05 202.75 102.35 205.5 97.1 202.4 90.1 Q202.6 83.6 212.6 82.25 M195.1 113.8 L195.1 110.15 Q193.25 117.5 183.55 135.95 160.05 140.5 135.45 149.65 126.3 179.55 132.1 209.5 L126.55 220.6 Q129.65 247.45 143.65 267.1 146.65 271.35 150.2 275.25 L149.65 294.1 154.5 295.55 153.55 273.05 149.75 267.1 Q135.65 243.85 134.3 219.5 L139.5 210.25 Q137.55 185.5 148.0 161.85 235.45 141.25 269.35 162.55 L266.25 153.75 Q244.95 142.2 219.3 138.35 210.65 137.05 201.55 136.6 L196.85 136.45 Q196.2 131.7 196.35 126.95 L196.45 125.75 Q196.7 121.2 197.7 116.6 L195.1 113.8 M165.65 176.65 L163.9 181.45 Q171.7 198.6 190.75 210.75 194.6 250.95 189.4 285.95 L179.3 337.85 Q171.5 343.65 167.6 354.7 168.15 385.6 176.55 415.95 L177.7 428.0 Q174.0 438.9 174.75 449.8 177.45 455.6 184.9 459.75 L178.6 449.05 Q177.7 437.5 179.9 427.85 L179.9 415.55 Q173.6 385.45 173.85 355.4 175.55 345.35 184.6 339.1 L197.4 287.35 Q203.5 247.65 200.6 210.75 184.75 199.8 181.0 185.9 L165.65 176.65 M269.35 180.95 L265.95 184.8 Q264.4 199.05 259.8 213.25 L263.35 229.7 249.55 275.05 253.2 284.35 Q253.85 283.85 254.7 283.6 L259.25 283.4 253.4 275.05 269.5 229.05 265.0 212.6 Q272.15 191.35 270.05 172.5 270.0 176.7 269.35 180.95 M244.7 271.85 L244.65 271.85 242.5 281.45 Q243.75 277.7 245.65 274.05 L244.7 271.85 M224.5 270.45 Q221.75 284.0 214.85 296.65 L214.15 297.85 214.45 297.95 Q210.0 311.5 202.2 325.0 L202.2 335.6 191.85 349.7 191.85 354.75 195.5 388.85 Q196.75 414.6 194.5 432.85 209.05 443.05 226.6 447.65 210.4 440.2 200.0 431.15 201.7 413.2 200.55 388.65 L197.5 353.35 207.2 336.75 207.2 329.45 Q223.15 299.2 227.0 269.0 L224.5 270.45 M191.85 339.1 L191.85 344.65 200.4 331.15 200.4 320.05 196.5 327.1 193.8 337.0 191.85 339.1" fill="#ffffff" fill-opacity="0.0" fill-rule="evenodd" stroke="none"/>
    <path d="M212.6 82.25 Q202.6 83.6 202.4 90.1 L205.5 97.1 202.75 102.35 202.75 122.05 199.3 118.4 199.05 101.3 201.7 97.25 198.85 92.2 Q197.8 86.6 202.3 83.2 203.4 82.8 204.55 82.55 L212.6 82.25 M195.1 113.8 L197.7 116.6 Q196.7 121.2 196.45 125.75 L196.35 126.95 Q196.2 131.7 196.85 136.45 L201.55 136.6 Q210.65 137.05 219.3 138.35 244.95 142.2 266.25 153.75 L269.35 162.55 Q235.45 141.25 148.0 161.85 137.55 185.5 139.5 210.25 L134.3 219.5 Q135.65 243.85 149.75 267.1 L153.55 273.05 154.5 295.55 149.65 294.1 150.2 275.25 Q146.65 271.35 143.65 267.1 129.65 247.45 126.55 220.6 L132.1 209.5 Q126.3 179.55 135.45 149.65 160.05 140.5 183.55 135.95 193.25 117.5 195.1 110.15 L195.1 113.8 M269.35 180.95 Q270.0 176.7 270.05 172.5 272.15 191.35 265.0 212.6 L269.5 229.05 253.4 275.05 259.25 283.4 254.7 283.6 Q253.85 283.85 253.2 284.35 L249.55 275.05 263.35 229.7 259.8 213.25 Q264.4 199.05 265.95 184.8 L269.35 180.95 M165.65 176.65 L181.0 185.9 Q184.75 199.8 200.6 210.75 203.5 247.65 197.4 287.35 L184.6 339.1 Q175.55 345.35 173.85 355.4 173.6 385.45 179.9 415.55 L179.9 427.85 Q177.7 437.5 178.6 449.05 L184.9 459.75 Q177.45 455.6 174.75 449.8 174.0 438.9 177.7 428.0 L176.55 415.95 Q168.15 385.6 167.6 354.7 171.5 343.65 179.3 337.85 L189.4 285.95 Q194.6 250.95 190.75 210.75 171.7 198.6 163.9 181.45 L165.65 176.65 M224.5 270.45 L227.0 269.0 Q223.15 299.2 207.2 329.45 L207.2 336.75 197.5 353.35 200.55 388.65 Q201.7 413.2 200.0 431.15 210.4 440.2 226.6 447.65 209.05 443.05 194.5 432.85 196.75 414.6 195.5 388.85 L191.85 354.75 191.85 349.7 202.2 335.6 202.2 325.0 Q210.0 311.5 214.45 297.95 L214.15 297.85 214.85 296.65 Q221.75 284.0 224.5 270.45" fill="#ffffff" fill-opacity="0.2509804" fill-rule="evenodd" stroke="none"/>
  </g>
</svg>
