<?xml version="1.0" encoding="UTF-8" standalone="no"?>
<svg xmlns:xlink="http://www.w3.org/1999/xlink" height="171.95px" width="159.95px" xmlns="http://www.w3.org/2000/svg">
  <g transform="matrix(1.0, 0.0, 0.0, 1.0, -119.25, -132.5)">
    <path d="M235.3 148.2 Q240.25 144.75 236.8 134.55 244.45 136.5 251.45 139.3 253.45 146.0 246.55 150.15 251.75 151.25 256.65 152.75 L257.3 152.95 Q259.45 153.45 261.25 154.2 265.55 149.9 264.9 145.65 271.0 149.05 276.45 153.15 274.75 161.5 269.95 168.25 L269.35 162.55 Q257.65 156.35 229.85 155.95 201.7 155.5 157.1 161.0 L155.8 161.15 155.75 159.4 Q145.45 148.0 127.6 144.15 L142.55 138.7 Q154.0 143.85 161.6 152.1 163.55 151.15 166.15 150.5 L179.95 148.55 Q162.55 145.3 153.1 135.25 157.5 133.8 162.0 132.5 175.35 145.1 197.35 147.0 207.7 146.4 217.0 146.8 221.1 148.9 223.5 148.85 L223.55 148.85 Q225.45 148.75 226.2 147.25 L235.3 148.2 M163.15 183.6 L164.65 179.45 164.4 180.1 Q142.25 176.7 122.8 168.3 123.3 162.45 124.45 156.65 L158.95 169.8 160.5 173.5 164.25 172.9 Q207.85 165.75 235.8 166.3 257.75 166.7 270.05 171.85 L270.05 173.55 Q274.95 170.15 279.0 167.55 279.35 172.4 279.1 177.35 L269.35 180.95 Q253.85 177.8 238.35 176.95 206.7 176.8 173.3 181.25 L163.15 183.6 M186.85 187.4 L211.05 186.25 Q224.45 185.2 235.8 185.95 L248.55 187.45 257.1 188.95 262.5 188.65 262.5 190.3 Q270.0 190.85 277.8 187.45 276.85 192.15 275.35 196.9 L262.5 198.5 Q252.5 193.95 236.4 193.1 209.0 191.55 163.9 200.45 L158.45 196.4 Q140.15 196.55 122.6 189.45 122.2 184.3 122.25 179.15 141.85 186.75 161.45 188.1 L159.8 192.65 Q173.2 188.15 186.6 187.4 L186.85 187.4 M160.5 173.5 L161.0 173.8 160.5 173.5 M153.4 210.25 L153.35 210.3 Q142.95 214.6 125.7 209.3 124.5 204.1 123.7 198.95 141.95 205.4 155.9 203.3 L153.4 210.25 M122.85 237.25 Q140.6 243.25 158.4 234.85 158.0 238.95 157.95 242.95 143.7 252.15 126.8 247.45 124.5 242.4 122.85 237.25 M159.6 225.35 Q141.1 234.45 120.25 227.35 119.6 224.15 119.25 220.95 L120.6 218.55 Q140.0 223.25 156.5 217.8 L159.6 225.35 M158.7 257.8 Q151.7 265.6 136.15 263.7 L131.75 256.85 Q149.1 258.85 158.1 251.25 L158.7 257.8 M160.45 268.1 L161.4 272.0 Q154.8 278.65 146.7 276.8 L141.65 270.95 Q155.45 271.6 159.85 265.2 L160.45 268.1 M154.5 295.55 Q158.15 297.65 161.25 297.15 L161.3 297.15 Q162.95 296.85 164.45 295.85 L165.0 295.45 165.1 295.35 165.2 295.3 165.3 295.2 166.7 293.85 167.15 293.3 167.2 293.3 169.75 290.4 173.3 288.05 176.4 292.65 175.65 293.55 Q174.55 294.5 173.05 294.4 171.5 294.3 169.6 293.2 L169.55 293.2 Q169.35 298.25 169.55 303.3 L164.05 304.45 163.35 302.45 Q159.5 304.05 157.05 300.8 L144.75 292.65 154.5 295.55 M145.95 282.75 Q157.8 284.8 166.6 274.95 L175.05 279.7 175.05 279.75 170.4 283.2 Q163.2 293.25 145.15 289.35 L145.95 282.75 M269.1 212.0 Q262.15 214.85 255.2 213.9 L255.8 212.4 247.25 210.9 234.4 209.9 234.35 209.9 Q223.2 209.4 208.8 210.1 L182.95 211.95 173.25 206.6 Q193.4 203.45 209.2 202.25 224.4 201.0 235.6 201.55 243.75 201.9 249.8 203.2 255.0 204.25 258.6 206.05 266.55 206.4 272.95 203.65 L269.1 212.0 M249.8 203.2 L249.5 204.15 249.8 203.2 M252.3 222.0 L252.45 221.55 252.3 222.0 M249.85 231.15 Q243.7 229.4 231.75 228.85 214.3 228.05 184.5 229.7 L183.9 221.15 Q214.65 218.45 233.1 219.1 245.55 219.55 252.45 221.55 263.7 223.6 272.6 220.1 273.95 224.15 274.65 228.25 262.55 231.75 250.45 228.4 L249.85 231.15 M248.35 239.3 L249.0 235.45 Q258.2 238.95 271.8 236.5 L267.4 246.2 Q257.4 248.6 247.45 245.25 L248.1 240.8 248.35 239.3 M246.6 253.25 Q254.8 255.75 264.35 253.45 262.65 257.65 261.65 260.85 253.85 263.15 246.1 260.7 L246.15 260.45 246.3 257.95 246.3 257.45 246.6 253.25 M245.3 267.95 L245.4 267.35 Q252.25 269.35 259.75 267.3 L259.55 267.95 257.9 273.75 Q250.9 275.75 245.65 274.05 L244.7 271.85 245.3 267.95 M260.4 292.2 L260.95 287.5 269.8 285.5 Q266.25 290.05 265.1 297.25 L260.4 292.2 M259.3 283.4 L254.7 283.6 Q250.95 284.8 250.6 290.0 L249.55 289.4 247.45 289.25 246.4 287.9 Q245.25 286.8 244.2 287.05 L241.25 291.1 253.75 296.7 253.8 297.25 254.95 297.25 255.85 297.65 255.5 299.0 255.9 297.65 262.75 300.75 Q262.1 304.25 258.55 303.95 256.45 303.6 255.75 302.2 252.7 303.6 250.95 302.6 249.6 301.8 249.0 299.7 246.85 300.4 245.55 299.7 244.35 299.05 243.75 297.3 242.05 297.0 241.15 296.2 239.8 295.0 240.15 292.6 240.4 288.95 241.35 285.35 L241.9 283.45 242.5 281.45 242.55 281.3 242.6 281.15 243.3 279.25 243.35 279.1 Q252.8 283.9 262.25 278.05 L265.8 281.55 259.3 283.4 M209.2 202.25 L208.8 202.65 209.2 202.25" fill="#000000" fill-rule="evenodd" stroke="none"/>
  </g>
</svg>
