<?xml version="1.0" encoding="UTF-8" standalone="no"?>
<svg xmlns:xlink="http://www.w3.org/1999/xlink" height="69.75px" width="158.25px" xmlns="http://www.w3.org/2000/svg">
  <g transform="matrix(1.0, 0.0, 0.0, 1.0, -121.95, -128.6)">
    <path d="M122.95 166.45 Q124.6 170.25 129.6 174.05 143.3 161.45 153.35 155.65 189.55 164.1 220.4 185.75 228.55 185.5 235.8 185.95 L238.65 182.35 238.65 181.25 Q238.2 164.55 227.6 153.4 M248.55 187.45 L248.1 187.4 236.05 197.85 Q228.4 191.35 220.4 185.75 M166.15 150.5 Q194.65 145.9 217.0 146.8 224.5 150.7 226.2 147.25 243.15 148.55 257.3 152.95 M279.2 170.9 Q274.65 162.2 271.25 158.8 L269.25 162.5 Q262.25 174.1 248.1 187.4 L235.8 185.95" fill="none" stroke="#000000" stroke-linecap="round" stroke-linejoin="round" stroke-width="1.0"/>
    <path d="M279.2 170.9 Q278.9 161.95 276.45 153.15 255.15 137.05 224.15 131.85 M122.95 166.45 Q124.2 155.2 127.6 144.15 148.9 135.95 172.2 129.6" fill="none" stroke="#000000" stroke-linecap="round" stroke-linejoin="round" stroke-width="2.0"/>
    <path d="M172.2 129.6 Q182.2 143.1 221.05 144.05 230.0 142.3 224.15 131.85" fill="none" stroke="#000000" stroke-linecap="round" stroke-linejoin="round" stroke-width="1.0"/>
  </g>
</svg>
