<?xml version="1.0" encoding="UTF-8" standalone="no"?>
<svg xmlns:xlink="http://www.w3.org/1999/xlink" height="108.9px" width="161.95px" xmlns="http://www.w3.org/2000/svg">
  <g transform="matrix(1.0, 0.0, 0.0, 1.0, -118.25, -131.35)">
    <path d="M166.15 150.5 Q178.55 148.5 189.8 147.55 177.8 138.15 162.5 132.35 M122.85 237.25 Q140.6 243.25 158.4 234.85 M153.4 210.25 L151.1 216.5 M160.45 173.5 L165.65 176.65 181.0 185.9 Q185.65 189.05 211.05 186.25 L219.45 185.8 Q208.6 162.25 189.8 147.55 M257.3 152.95 Q251.25 151.1 244.7 149.8 250.75 167.8 247.7 187.3 L248.55 187.45 257.1 188.95 M271.8 236.5 Q258.2 238.95 249.0 235.45 L249.85 231.15 250.45 228.4 Q254.7 212.3 262.5 198.5 L262.5 188.65 269.35 180.95 Q270.75 171.75 269.35 162.55 M238.0 134.85 Q242.15 142.2 244.7 149.8 M244.6 219.1 L249.9 202.85 248.05 198.65 M208.8 217.6 L208.8 202.65 214.45 196.4 M158.45 196.4 L165.65 176.65 M247.7 187.3 Q244.55 207.35 231.75 228.85 228.1 204.5 219.45 185.8" fill="none" stroke="#000000" stroke-linecap="round" stroke-linejoin="round" stroke-width="1.0"/>
    <path d="M162.5 132.35 Q144.45 137.7 127.6 144.15 117.9 175.9 125.7 209.3 L119.25 220.95 Q120.25 229.25 122.85 237.25 M158.4 234.85 Q158.8 230.15 159.6 225.35 L153.4 210.25 158.45 196.4 Q169.65 205.2 182.95 211.95 184.05 220.75 184.5 229.7 M238.0 134.85 Q260.1 140.8 276.45 153.15 284.5 181.85 269.1 212.0 273.75 221.0 274.95 230.0 L271.8 236.5" fill="none" stroke="#000000" stroke-linecap="round" stroke-linejoin="round" stroke-width="2.0"/>
  </g>
</svg>
