<?xml version="1.0" encoding="UTF-8" standalone="no"?>
<svg xmlns:xlink="http://www.w3.org/1999/xlink" height="138.7px" width="88.0px" xmlns="http://www.w3.org/2000/svg">
  <g transform="matrix(1.0, 0.0, 0.0, 1.0, -161.85, -228.6)">
    <path d="M191.85 344.65 L200.4 331.15 200.4 320.05 196.5 327.1 193.8 337.0 191.85 339.1 191.85 344.65 M246.3 257.45 Q246.05 262.75 245.3 267.95 L244.7 271.85 244.65 271.85 242.5 281.45 241.35 285.35 Q239.8 290.25 237.8 295.0 L234.85 301.45 231.75 307.3 218.5 327.25 218.0 334.95 219.3 351.15 216.2 364.5 Q208.2 361.5 190.15 365.85 L190.1 365.85 Q176.5 361.7 162.85 367.3 162.1 361.0 161.85 354.75 166.45 340.65 175.9 333.75 L182.95 272.2 Q185.45 250.55 184.5 229.7 234.7 226.9 249.85 231.15 247.15 243.95 246.3 257.45" fill="#000000" fill-rule="evenodd" stroke="none"/>
  </g>
</svg>
