<?xml version="1.0" encoding="UTF-8" standalone="no"?>
<svg xmlns:xlink="http://www.w3.org/1999/xlink" height="101.0px" width="27.85px" xmlns="http://www.w3.org/2000/svg">
  <g transform="matrix(1.0, 0.0, 0.0, 1.0, -162.85, -364.1)">
    <path d="M189.4 370.25 L189.35 370.55 188.75 374.55 182.35 373.9 181.55 385.3 187.2 385.2 185.95 395.35 180.8 395.9 180.1 405.65 184.9 405.25 184.1 414.35 180.2 415.4 181.05 422.6 Q183.2 422.25 185.1 421.1 L186.15 426.7 186.3 427.35 188.25 435.25 188.65 436.7 190.3 442.05 Q190.7 445.45 190.7 448.5 190.7 453.8 189.4 458.05 L189.25 458.5 Q188.3 461.25 186.8 463.55 L185.7 465.1 179.6 460.25 178.2 459.0 Q173.7 454.85 170.4 450.4 L170.35 450.4 Q170.6 443.65 171.9 437.4 172.95 432.25 174.75 427.45 175.05 424.7 174.85 421.95 L178.0 422.65 177.1 415.65 173.7 415.35 Q172.2 410.9 170.85 406.45 L176.15 406.0 175.55 396.4 168.35 397.15 168.3 397.15 Q166.95 391.9 165.9 386.65 L174.85 385.7 174.1 374.1 Q169.2 374.55 163.95 375.8 L162.85 367.3 Q168.15 365.1 173.45 364.45 178.25 363.8 183.0 364.35 186.55 364.75 190.1 365.85 L190.15 365.85 189.4 370.25" fill="#000000" fill-rule="evenodd" stroke="none"/>
  </g>
</svg>
