<?xml version="1.0" encoding="UTF-8" standalone="no"?>
<svg xmlns:xlink="http://www.w3.org/1999/xlink" height="48.0px" width="63.5px" xmlns="http://www.w3.org/2000/svg">
  <g transform="matrix(1.0, 0.0, 0.0, 1.0, -169.35, -418.1)">
    <path d="M205.1 419.1 Q206.45 422.95 210.75 426.8 222.7 438.2 231.85 450.2 216.55 451.1 201.25 439.75 L190.95 435.35 192.0 419.1 M185.1 421.1 Q186.85 431.4 190.3 442.05 192.15 457.05 185.7 465.1 176.25 458.25 170.35 450.4 170.8 438.1 174.75 427.45 175.05 424.7 174.85 421.95" fill="none" stroke="#000000" stroke-linecap="round" stroke-linejoin="round" stroke-width="2.0"/>
    <path d="M174.85 421.95 Q180.6 423.85 185.1 421.1 M192.0 419.1 Q201.25 421.25 205.1 419.1" fill="none" stroke="#000000" stroke-linecap="round" stroke-linejoin="round" stroke-width="1.0"/>
  </g>
</svg>
