<?xml version="1.0" encoding="UTF-8" standalone="no"?>
<svg xmlns:xlink="http://www.w3.org/1999/xlink" height="144.55px" width="36.75px" xmlns="http://www.w3.org/2000/svg">
  <g transform="matrix(1.0, 0.0, 0.0, 1.0, -158.7, -320.55)">
    <path d="M188.15 434.8 L188.65 436.7 190.3 442.05 Q190.7 445.45 190.7 448.5 190.7 453.8 189.4 458.05 L189.1 458.0 189.25 458.5 Q188.3 461.25 186.8 463.55 L185.7 465.1 179.6 460.25 178.2 459.0 Q173.7 454.85 170.4 450.4 L170.35 450.4 Q170.6 443.65 171.9 437.4 L172.1 436.45 171.95 436.65 169.4 427.05 172.8 422.0 174.55 419.05 173.7 415.35 Q168.65 405.85 165.6 396.4 163.15 389.0 161.95 381.65 163.4 380.95 164.65 380.05 L163.95 375.8 162.85 367.3 Q162.25 362.3 162.0 357.35 L161.85 354.75 162.8 352.1 Q160.85 351.3 158.7 351.0 164.3 341.0 172.75 336.35 171.85 334.55 172.45 332.75 L173.85 327.8 Q174.3 326.3 176.75 326.35 L176.75 326.3 181.5 328.0 186.75 320.55 194.25 322.55 195.45 335.9 191.85 341.05 192.7 343.3 193.55 345.9 193.85 346.95 Q194.55 349.6 194.9 352.3 L195.15 355.6 191.9 355.2 190.15 365.85 189.4 370.25 189.35 370.55 188.75 374.55 188.1 378.65 Q189.05 380.1 190.25 381.0 L184.1 414.35 184.65 418.35 Q186.05 419.8 187.55 422.0 L191.5 426.6 188.15 434.8 188.1 434.8 188.15 434.8" fill="#000000" fill-rule="evenodd" stroke="none"/>
  </g>
</svg>
