<?xml version="1.0" encoding="UTF-8" standalone="no"?>
<svg xmlns:xlink="http://www.w3.org/1999/xlink" height="117.95px" width="36.85px" xmlns="http://www.w3.org/2000/svg">
  <g transform="matrix(1.0, 0.0, 0.0, 1.0, -187.9, -314.0)">
    <path d="M224.75 327.05 Q224.7 337.1 221.65 347.15 L220.3 348.6 220.3 363.15 218.05 364.8 215.15 386.25 213.05 388.35 208.0 410.9 206.25 413.35 Q206.4 418.95 211.3 423.7 L209.9 426.0 209.85 426.0 205.8 425.8 Q203.45 426.15 201.3 427.75 200.15 428.5 199.15 429.65 198.15 430.65 197.25 431.95 L191.4 428.45 189.45 425.4 Q192.4 416.55 192.35 405.6 L191.4 405.05 189.95 383.0 190.1 381.35 190.15 381.25 190.1 381.2 190.05 381.3 187.9 380.2 Q188.55 375.35 189.35 370.55 L189.4 370.25 191.6 357.65 191.85 356.25 191.85 344.65 196.35 337.55 198.6 327.6 200.4 325.6 204.8 324.7 216.9 314.0 224.75 327.05" fill="#000000" fill-rule="evenodd" stroke="none"/>
  </g>
</svg>
