<?xml version="1.0" encoding="UTF-8" standalone="no"?>
<svg xmlns:xlink="http://www.w3.org/1999/xlink" height="86.3px" width="27.85px" xmlns="http://www.w3.org/2000/svg">
  <g transform="matrix(1.0, 0.0, 0.0, 1.0, -162.85, -364.1)">
    <path d="M190.15 365.85 L189.4 370.25 189.35 370.55 189.15 371.9 188.75 374.55 186.25 374.2 Q179.8 373.4 172.6 374.3 L167.65 375.05 163.95 375.8 162.85 367.3 Q167.4 365.45 171.95 364.65 181.0 363.1 190.1 365.85 L190.15 365.85 M177.4 415.65 Q180.75 415.6 184.1 414.35 L185.1 421.1 Q182.05 422.95 178.4 422.7 L174.85 421.95 Q174.65 418.65 173.7 415.35 L177.4 415.65 M176.9 437.6 L188.65 436.7 190.3 442.05 Q190.7 445.45 190.7 448.5 185.45 446.9 174.4 449.4 L170.4 450.4 170.35 450.4 Q170.6 443.65 171.9 437.4 L176.9 437.6" fill="#000000" fill-rule="evenodd" stroke="none"/>
  </g>
</svg>
