<?xml version="1.0" encoding="UTF-8" standalone="no"?>
<svg xmlns:xlink="http://www.w3.org/1999/xlink" height="103.3px" width="73.65px" xmlns="http://www.w3.org/2000/svg">
  <g transform="matrix(1.0, 0.0, 0.0, 1.0, -159.2, -362.8)">
    <path d="M216.2 364.5 Q213.1 363.35 208.55 363.3 L200.3 363.9 197.95 364.25 190.15 365.85 Q192.05 367.0 192.4 368.95 L189.25 390.0 M190.15 365.85 L190.1 365.85 Q186.55 364.75 183.0 364.35 178.2 363.8 173.45 364.45 L171.95 364.65 168.65 365.35 Q165.75 366.1 162.85 367.3" fill="none" stroke="#000000" stroke-linecap="round" stroke-linejoin="round" stroke-width="1.0"/>
    <path d="M189.25 390.0 L192.2 389.55 Q193.2 401.25 192.4 413.25 L190.95 435.35 201.25 439.75 Q213.75 449.0 226.25 450.15 229.05 450.35 231.85 450.2 222.7 438.2 210.75 426.8 203.5 420.3 204.6 413.8 L210.45 389.0 213.05 389.25 218.25 366.9 Q218.0 365.1 216.2 364.5 M162.85 367.3 Q161.1 367.8 160.2 369.5 161.0 380.15 163.75 390.75 L166.7 390.3 167.1 392.2 168.55 398.05 169.25 400.7 169.4 401.3 169.9 403.1 170.45 405.0 170.7 405.95 171.1 407.3 173.7 415.35 Q175.4 421.4 174.75 427.45 170.8 438.1 170.35 450.4 174.2 455.5 179.6 460.25 L185.7 465.1 Q188.0 462.2 189.25 458.5 191.5 451.7 190.3 442.05 185.7 427.85 184.1 414.35 185.1 401.9 186.6 389.7 L189.25 390.0" fill="none" stroke="#000000" stroke-linecap="round" stroke-linejoin="round" stroke-width="2.0"/>
    <path d="M166.7 390.3 L171.3 389.7 173.95 389.5 175.1 389.4 176.8 389.35 181.25 389.35 186.6 389.7 M192.2 389.55 L196.5 389.0 198.95 388.85 204.3 388.7 207.45 388.8 210.45 389.0 M179.6 460.25 L178.6 427.25 176.3 408.3 175.1 389.4 M189.25 458.5 L181.6 427.25 179.7 411.0 181.25 389.35 M204.3 388.7 L200.85 409.2 Q199.05 416.6 202.5 425.75 L226.25 450.15" fill="none" stroke="#000000" stroke-linecap="round" stroke-linejoin="round" stroke-width="1.0"/>
  </g>
</svg>
