<?xml version="1.0" encoding="UTF-8" standalone="no"?>
<svg xmlns:xlink="http://www.w3.org/1999/xlink" height="63.85px" width="159.6px" xmlns="http://www.w3.org/2000/svg">
  <g transform="matrix(1.0, 0.0, 0.0, 1.0, -116.8, -227.05)">
    <path d="M120.8 229.8 Q127.2 228.35 133.75 227.85 145.75 226.85 158.2 229.1 L163.65 230.2 161.7 244.8 159.95 245.35 Q154.9 246.95 150.5 249.2 143.85 252.5 138.6 257.25 L127.1 252.0 124.85 250.95 117.8 230.55 118.35 230.4 120.8 229.8" fill="url(#gradient0)" fill-rule="evenodd" stroke="none"/>
    <path d="M159.95 245.35 L161.3 255.1 159.7 255.9 Q156.1 257.8 152.75 260.05 147.1 263.8 142.15 268.55 L135.45 265.6 133.15 264.6 127.1 252.0 138.6 257.25 Q143.85 252.5 150.5 249.2 154.9 246.95 159.95 245.35" fill="url(#gradient1)" fill-rule="evenodd" stroke="none"/>
    <path d="M159.7 255.9 L162.9 263.65 161.5 264.9 160.05 266.2 156.35 269.75 Q153.0 273.15 149.85 277.0 L148.4 278.7 143.35 275.65 141.55 274.85 135.45 265.6 142.15 268.55 Q147.1 263.8 152.75 260.05 156.1 257.8 159.7 255.9" fill="url(#gradient2)" fill-rule="evenodd" stroke="none"/>
    <path d="M161.5 264.9 L166.05 272.2 164.55 273.8 Q158.95 279.75 155.55 288.0 L154.6 290.4 145.6 285.85 143.9 285.0 143.35 275.65 148.4 278.7 149.85 277.0 Q153.0 273.15 156.35 269.75 L160.05 266.2 161.5 264.9" fill="url(#gradient3)" fill-rule="evenodd" stroke="none"/>
    <path d="M247.45 245.25 L248.35 239.3 249.0 235.45 249.85 231.15 Q261.15 231.6 272.4 233.9 L273.0 234.05 275.4 234.55 268.75 250.95 268.15 250.65 267.3 250.15 265.95 249.5 Q257.15 245.35 247.45 245.25" fill="url(#gradient4)" fill-rule="evenodd" stroke="none"/>
    <path d="M267.3 250.15 L264.95 258.15 264.45 257.9 263.65 257.55 262.9 257.25 Q254.75 253.8 246.6 253.25 L247.1 248.35 247.45 245.25 Q257.15 245.35 265.95 249.5 L267.3 250.15" fill="url(#gradient5)" fill-rule="evenodd" stroke="none"/>
    <path d="M263.65 257.55 L262.05 266.7 260.85 266.1 260.45 265.95 260.15 265.85 Q253.25 262.85 245.85 263.35 L246.1 260.7 246.3 257.95 246.3 257.45 246.6 253.25 Q254.75 253.8 262.9 257.25 L263.65 257.55" fill="url(#gradient6)" fill-rule="evenodd" stroke="none"/>
    <path d="M260.45 265.95 L260.55 276.4 Q257.3 274.95 253.9 274.35 L245.65 274.05 244.7 271.85 245.05 269.9 245.3 267.95 245.4 267.35 245.85 263.35 Q253.25 262.85 260.15 265.85 L260.45 265.95" fill="url(#gradient7)" fill-rule="evenodd" stroke="none"/>
    <path d="M158.2 229.1 L163.65 230.2 161.7 244.8 159.95 245.35 161.3 255.1 159.7 255.9 162.9 263.65 161.5 264.9 166.05 272.2 164.55 273.8 M145.6 285.85 L143.9 285.0 143.35 275.65 141.55 274.85 135.45 265.6 133.15 264.6 127.1 252.0 124.85 250.95 117.8 230.55 118.35 230.4 120.8 229.8 M272.4 233.9 L273.0 234.05 275.4 234.55 268.75 250.95 268.15 250.65 267.3 250.15 264.95 258.15 264.45 257.9 263.65 257.55 262.05 266.7 260.85 266.1 260.45 265.95 260.55 276.4" fill="none" stroke="#000000" stroke-linecap="round" stroke-linejoin="round" stroke-width="2.0"/>
    <path d="M120.8 229.8 Q127.2 228.35 133.75 227.85 145.75 226.85 158.2 229.1 M164.55 273.8 Q158.95 279.75 155.55 288.0 L154.6 290.4 145.6 285.85 M135.45 265.6 L142.15 268.55 Q147.1 263.8 152.75 260.05 156.1 257.8 159.7 255.9 M143.35 275.65 L148.4 278.7 149.85 277.0 Q153.0 273.15 156.35 269.75 L160.05 266.2 161.5 264.9 M159.95 245.35 Q154.9 246.95 150.5 249.2 143.85 252.5 138.6 257.25 L127.1 252.0 M247.45 245.25 L248.35 239.3 249.0 235.45 249.85 231.15 Q261.15 231.6 272.4 233.9 M260.55 276.4 Q257.3 274.95 253.9 274.35 L245.65 274.05 244.65 271.85 245.05 269.9 245.3 267.95 245.4 267.35 245.85 263.35 246.1 260.7 246.3 257.95 246.3 257.45 246.6 253.25 247.1 248.35 247.45 245.25 Q257.15 245.35 265.95 249.5 L267.3 250.15 M245.65 274.05 L244.7 271.85 245.05 269.9 M245.85 263.35 Q253.25 262.85 260.15 265.85 L260.45 265.95 M263.65 257.55 L262.9 257.25 Q254.75 253.8 246.6 253.25" fill="none" stroke="#000000" stroke-linecap="round" stroke-linejoin="round" stroke-width="1.0"/>
    <path d="M125.55 228.85 L133.05 227.9 141.3 255.0 Q139.8 256.15 138.6 257.25 L136.0 256.05 138.6 257.25 Q139.8 256.15 141.3 255.0 L143.1 253.65 146.35 264.85 148.7 262.95 152.9 273.45 149.9 276.95 152.9 273.45 154.5 271.7 158.5 281.95 Q156.85 284.8 155.55 288.0 L155.15 289.0 149.9 276.95 149.85 277.0 148.4 278.7 147.8 278.35 143.1 267.65 146.35 264.85 143.1 267.65 142.15 268.55 140.25 267.75 136.0 256.05 132.65 254.55 125.55 228.85" fill="#ffffff" fill-opacity="0.2509804" fill-rule="evenodd" stroke="none"/>
    <path d="M125.55 228.85 L133.05 227.9 133.75 227.85 Q145.75 226.85 158.2 229.1 M164.55 273.8 Q161.1 277.45 158.5 281.95 156.85 284.8 155.55 288.0 L155.15 289.0 154.6 290.4 145.6 285.85 M120.8 229.8 L125.55 228.85 M132.65 254.55 L136.0 256.05 138.6 257.25 Q139.8 256.15 141.3 255.0 L143.1 253.65 Q146.55 251.15 150.5 249.2 154.9 246.95 159.95 245.35 M146.35 264.85 L148.7 262.95 152.75 260.05 Q156.1 257.8 159.7 255.9 M143.1 267.65 L146.35 264.85 M143.1 267.65 L142.15 268.55 140.25 267.75 135.45 265.6 M154.5 271.7 L156.35 269.75 160.05 266.2 161.5 264.9 M127.1 252.0 L132.65 254.55 M147.8 278.35 L143.35 275.65 M149.9 276.95 L149.85 277.0 148.4 278.7 147.8 278.35 M149.9 276.95 L152.9 273.45 154.5 271.7" fill="none" stroke="#000000" stroke-linecap="round" stroke-linejoin="round" stroke-width="1.0"/>
    <path d="M158.2 229.1 L163.65 230.2 161.7 244.8 159.95 245.35 161.3 255.1 159.7 255.9 162.9 263.65 161.5 264.9 166.05 272.2 164.55 273.8 M145.6 285.85 L143.9 285.0 143.35 275.65 141.55 274.85 135.45 265.6 133.15 264.6 127.1 252.0 124.85 250.95 117.8 230.55 118.35 230.4 120.8 229.8" fill="none" stroke="#000000" stroke-linecap="round" stroke-linejoin="round" stroke-width="2.0"/>
    <path d="M256.8 246.35 L259.55 247.05 261.95 247.85 259.55 247.05 263.55 232.4 269.1 233.3 264.05 248.65 261.95 247.85 259.55 255.95 256.85 255.1 254.7 254.55 256.85 255.1 254.6 264.0 251.95 263.55 249.8 273.9 245.65 274.05 247.2 263.3 250.35 263.35 252.65 254.1 254.7 254.55 256.8 246.35 M250.35 263.35 L251.95 263.55 250.35 263.35" fill="#ffffff" fill-opacity="0.2509804" fill-rule="evenodd" stroke="none"/>
    <path d="M259.55 247.05 L256.8 246.35 Q252.25 245.3 247.45 245.25 L248.35 239.3 249.0 235.45 249.85 231.15 263.55 232.4 269.1 233.3 272.4 233.9 M254.7 254.55 L256.85 255.1 259.55 255.95 262.9 257.25 263.65 257.55 M261.95 247.85 L259.55 247.05 M260.55 276.4 Q257.3 274.95 253.9 274.35 L249.8 273.9 245.65 274.05 244.65 271.85 245.05 269.9 245.3 267.95 245.4 267.35 245.85 263.35 246.1 260.7 246.3 257.95 246.3 257.45 246.6 253.25 247.1 248.35 247.45 245.25 M267.3 250.15 L265.95 249.5 264.05 248.65 261.95 247.85 M246.6 253.25 L252.65 254.1 254.7 254.55 M251.95 263.55 L250.35 263.35 247.2 263.3 245.85 263.35 M245.65 274.05 L244.7 271.85 245.05 269.9 M254.6 264.0 Q257.4 264.65 260.15 265.85 L260.45 265.95 M251.95 263.55 L254.6 264.0" fill="none" stroke="#000000" stroke-linecap="round" stroke-linejoin="round" stroke-width="1.0"/>
    <path d="M272.4 233.9 L273.0 234.05 275.4 234.55 268.75 250.95 268.15 250.65 267.3 250.15 264.95 258.15 264.45 257.9 263.65 257.55 262.05 266.7 260.85 266.1 260.45 265.95 260.55 276.4" fill="none" stroke="#000000" stroke-linecap="round" stroke-linejoin="round" stroke-width="2.0"/>
  </g>
  <defs>
    <linearGradient gradientTransform="matrix(-0.0205, 0.003, -0.0026, -0.0181, 142.35, 241.55)" gradientUnits="userSpaceOnUse" id="gradient0" spreadMethod="pad" x1="-819.2" x2="819.2">
      <stop offset="0.0" stop-color="#000000" stop-opacity="0.0"/>
      <stop offset="1.0" stop-color="#000000" stop-opacity="0.2509804"/>
    </linearGradient>
    <linearGradient gradientTransform="matrix(-0.0145, 0.0039, -0.0031, -0.0117, 146.6, 257.05)" gradientUnits="userSpaceOnUse" id="gradient1" spreadMethod="pad" x1="-819.2" x2="819.2">
      <stop offset="0.0" stop-color="#000000" stop-opacity="0.0"/>
      <stop offset="1.0" stop-color="#000000" stop-opacity="0.2509804"/>
    </linearGradient>
    <linearGradient gradientTransform="matrix(-0.012, 0.0032, -0.003, -0.0112, 150.75, 268.2)" gradientUnits="userSpaceOnUse" id="gradient2" spreadMethod="pad" x1="-819.2" x2="819.2">
      <stop offset="0.0" stop-color="#000000" stop-opacity="0.0"/>
      <stop offset="1.0" stop-color="#000000" stop-opacity="0.2509804"/>
    </linearGradient>
    <linearGradient gradientTransform="matrix(-0.0103, 0.006, -0.0057, -0.0098, 154.95, 279.4)" gradientUnits="userSpaceOnUse" id="gradient3" spreadMethod="pad" x1="-819.2" x2="819.2">
      <stop offset="0.0" stop-color="#000000" stop-opacity="0.0"/>
      <stop offset="1.0" stop-color="#000000" stop-opacity="0.2509804"/>
    </linearGradient>
    <linearGradient gradientTransform="matrix(-0.0113, 0.0, 0.0, -0.0121, 261.35, 241.05)" gradientUnits="userSpaceOnUse" id="gradient4" spreadMethod="pad" x1="-819.2" x2="819.2">
      <stop offset="0.0" stop-color="#000000" stop-opacity="0.0"/>
      <stop offset="1.0" stop-color="#000000" stop-opacity="0.2509804"/>
    </linearGradient>
    <linearGradient gradientTransform="matrix(-0.0085, 0.0, 0.0, -0.0079, 255.2, 251.7)" gradientUnits="userSpaceOnUse" id="gradient5" spreadMethod="pad" x1="-819.2" x2="819.2">
      <stop offset="0.0" stop-color="#000000" stop-opacity="0.0"/>
      <stop offset="1.0" stop-color="#000000" stop-opacity="0.2509804"/>
    </linearGradient>
    <linearGradient gradientTransform="matrix(-0.0074, 0.0, 0.0, -0.0082, 254.95, 260.0)" gradientUnits="userSpaceOnUse" id="gradient6" spreadMethod="pad" x1="-819.2" x2="819.2">
      <stop offset="0.0" stop-color="#000000" stop-opacity="0.0"/>
      <stop offset="1.0" stop-color="#000000" stop-opacity="0.2509804"/>
    </linearGradient>
    <linearGradient gradientTransform="matrix(-0.0078, 0.0, 0.0, -0.008, 253.5, 269.85)" gradientUnits="userSpaceOnUse" id="gradient7" spreadMethod="pad" x1="-819.2" x2="819.2">
      <stop offset="0.0" stop-color="#000000" stop-opacity="0.0"/>
      <stop offset="1.0" stop-color="#000000" stop-opacity="0.2509804"/>
    </linearGradient>
  </defs>
</svg>
