<?xml version="1.0" encoding="UTF-8" standalone="no"?>
<svg xmlns:xlink="http://www.w3.org/1999/xlink" height="33.05px" width="31.65px" xmlns="http://www.w3.org/2000/svg">
  <g transform="matrix(1.0, 0.0, 0.0, 1.0, -130.75, -244.75)">
    <path d="M138.95 245.45 Q141.9 254.6 145.6 263.8 L147.4 268.1 150.8 275.9 151.3 276.85 150.15 276.95 146.7 276.8 Q142.75 272.5 139.4 268.1 L136.2 263.8 136.15 263.7 131.75 256.85 Q133.55 246.8 138.95 245.45" fill="#000000" fill-opacity="0.2509804" fill-rule="evenodd" stroke="none"/>
    <path d="M161.4 272.0 L160.45 268.1 159.6 263.8 158.7 257.8 158.1 251.25 M131.75 256.85 L136.15 263.7 136.2 263.8 139.4 268.1 Q142.75 272.5 146.7 276.8" fill="none" stroke="#000000" stroke-linecap="round" stroke-linejoin="round" stroke-width="2.0"/>
    <path d="M151.3 276.85 L152.6 276.65 153.7 276.4 Q157.8 275.25 161.4 272.0 M146.7 276.8 L150.15 276.95 151.3 276.85" fill="none" stroke="#000000" stroke-linecap="round" stroke-linejoin="round" stroke-width="1.0"/>
    <path d="M158.1 251.25 Q153.95 250.85 149.8 248.85 143.25 244.4 138.95 245.45 133.55 246.8 131.75 256.85" fill="none" stroke="#000000" stroke-linecap="round" stroke-linejoin="round" stroke-width="1.0"/>
  </g>
</svg>
