<?xml version="1.0" encoding="UTF-8" standalone="no"?>
<svg xmlns:xlink="http://www.w3.org/1999/xlink" height="33.05px" width="31.65px" xmlns="http://www.w3.org/2000/svg">
  <g transform="matrix(1.0, 0.0, 0.0, 1.0, -130.75, -244.75)">
    <path d="M147.45 268.5 Q146.15 269.05 144.4 267.5 142.65 265.9 141.45 263.15 140.25 260.4 140.35 258.05 140.35 255.7 141.65 255.15 142.9 254.6 144.65 256.15 146.4 257.7 147.6 260.5 148.8 263.25 148.8 265.6 148.75 267.95 147.45 268.5" fill="url(#gradient0)" fill-rule="evenodd" stroke="none"/>
    <path d="M134.8 261.75 L134.9 261.65 Q135.8 261.0 136.55 262.4 137.3 263.8 139.65 266.45 141.95 269.0 142.25 269.75 142.5 270.5 141.75 271.05 L141.6 271.2 Q140.65 271.8 139.05 270.9 137.4 269.9 136.05 267.95 134.65 265.95 134.3 264.15 134.0 262.4 134.8 261.75" fill="url(#gradient1)" fill-rule="evenodd" stroke="none"/>
    <path d="M157.2 256.5 Q158.1 258.1 158.3 260.5 158.5 262.9 157.9 264.7 157.3 266.45 156.2 266.55 155.05 266.65 154.15 265.05 153.2 263.4 153.0 261.0 152.75 258.6 153.4 256.8 154.0 255.05 155.15 255.0 156.25 254.85 157.2 256.5" fill="url(#gradient2)" fill-rule="evenodd" stroke="none"/>
    <path d="M161.4 272.0 L160.45 268.1 159.6 263.8 158.7 257.8 158.1 251.25 M131.75 256.85 L134.8 261.75 Q134.0 262.4 134.3 264.15 134.65 265.95 136.05 267.95 137.4 269.9 139.05 270.9 140.65 271.8 141.6 271.2 L141.75 271.05 146.7 276.8" fill="none" stroke="#000000" stroke-linecap="round" stroke-linejoin="round" stroke-width="2.0"/>
    <path d="M158.1 251.25 Q153.95 250.85 149.8 248.85 135.0 238.75 131.75 256.85 M146.7 276.8 L150.15 276.95 152.6 276.65 153.7 276.4 Q157.8 275.25 161.4 272.0" fill="none" stroke="#000000" stroke-linecap="round" stroke-linejoin="round" stroke-width="1.0"/>
    <path d="M157.2 256.5 Q158.1 258.1 158.3 260.5 158.5 262.9 157.9 264.7 157.3 266.45 156.2 266.55 155.05 266.65 154.15 265.05 153.2 263.4 153.0 261.0 152.75 258.6 153.4 256.8 154.0 255.05 155.15 255.0 156.25 254.85 157.2 256.5 M134.8 261.75 L134.9 261.65 Q135.8 261.0 136.55 262.4 137.3 263.8 139.65 266.45 141.95 269.0 142.25 269.75 142.5 270.5 141.75 271.05 M147.45 268.5 Q146.15 269.05 144.4 267.5 142.65 265.9 141.45 263.15 140.25 260.4 140.35 258.05 140.35 255.7 141.65 255.15 142.9 254.6 144.65 256.15 146.4 257.7 147.6 260.5 148.8 263.25 148.8 265.6 148.75 267.95 147.45 268.5 Z" fill="none" stroke="#000000" stroke-linecap="round" stroke-linejoin="round" stroke-width="1.0"/>
    <path d="M138.95 245.45 L142.25 255.0 141.65 255.15 Q140.35 255.7 140.35 258.05 140.25 260.4 141.45 263.15 142.65 265.9 144.4 267.5 146.15 269.05 147.45 268.5 L147.55 268.5 150.8 275.9 151.3 276.85 150.15 276.95 146.7 276.8 141.75 271.05 Q142.5 270.5 142.25 269.75 141.95 269.0 139.65 266.45 137.3 263.8 136.55 262.4 135.8 261.0 134.9 261.65 L134.8 261.75 131.75 256.85 Q133.55 246.8 138.95 245.45" fill="#000000" fill-opacity="0.2509804" fill-rule="evenodd" stroke="none"/>
    <path d="M161.4 272.0 L160.45 268.1 159.6 263.8 158.7 257.8 158.1 251.25 M141.75 271.05 L146.7 276.8 M134.8 261.75 Q134.0 262.4 134.3 264.15 134.65 265.95 136.05 267.95 137.4 269.9 139.05 270.9 140.65 271.8 141.6 271.2 L141.75 271.05 M131.75 256.85 L134.8 261.75" fill="none" stroke="#000000" stroke-linecap="round" stroke-linejoin="round" stroke-width="2.0"/>
    <path d="M158.1 251.25 Q153.95 250.85 149.8 248.85 143.25 244.4 138.95 245.45 133.55 246.8 131.75 256.85 M151.3 276.85 L152.6 276.65 153.7 276.4 Q157.8 275.25 161.4 272.0 M146.7 276.8 L150.15 276.95 151.3 276.85" fill="none" stroke="#000000" stroke-linecap="round" stroke-linejoin="round" stroke-width="1.0"/>
    <path d="M142.25 255.0 Q143.3 254.95 144.65 256.15 146.4 257.7 147.6 260.5 148.8 263.25 148.8 265.6 148.75 267.85 147.55 268.5 L147.45 268.5 Q146.15 269.05 144.4 267.5 142.65 265.9 141.45 263.15 140.25 260.4 140.35 258.05 140.35 255.7 141.65 255.15 L142.25 255.0 M157.2 256.5 Q158.1 258.1 158.3 260.5 158.5 262.9 157.9 264.7 157.3 266.45 156.2 266.55 155.05 266.65 154.15 265.05 153.2 263.4 153.0 261.0 152.75 258.6 153.4 256.8 154.0 255.05 155.15 255.0 156.25 254.85 157.2 256.5 M134.8 261.75 L134.9 261.65 Q135.8 261.0 136.55 262.4 137.3 263.8 139.65 266.45 141.95 269.0 142.25 269.75 142.5 270.5 141.75 271.05" fill="none" stroke="#000000" stroke-linecap="round" stroke-linejoin="round" stroke-width="1.0"/>
  </g>
  <defs>
    <radialGradient cx="0" cy="0" gradientTransform="matrix(0.0139, 0.0, 0.0, 0.0139, 143.2, 266.15)" gradientUnits="userSpaceOnUse" id="gradient0" r="819.2" spreadMethod="pad">
      <stop offset="0.0" stop-color="#000000" stop-opacity="0.2509804"/>
      <stop offset="1.0" stop-color="#000000" stop-opacity="0.0"/>
    </radialGradient>
    <radialGradient cx="0" cy="0" gradientTransform="matrix(0.0114, 0.0, 0.0, 0.0114, 138.15, 270.25)" gradientUnits="userSpaceOnUse" id="gradient1" r="819.2" spreadMethod="pad">
      <stop offset="0.0" stop-color="#000000" stop-opacity="0.2509804"/>
      <stop offset="1.0" stop-color="#000000" stop-opacity="0.0"/>
    </radialGradient>
    <radialGradient cx="0" cy="0" gradientTransform="matrix(0.0119, 0.0, 0.0, 0.0119, 153.85, 264.55)" gradientUnits="userSpaceOnUse" id="gradient2" r="819.2" spreadMethod="pad">
      <stop offset="0.0" stop-color="#000000" stop-opacity="0.2509804"/>
      <stop offset="1.0" stop-color="#000000" stop-opacity="0.0"/>
    </radialGradient>
  </defs>
</svg>
