<?xml version="1.0" encoding="UTF-8" standalone="no"?>
<svg xmlns:xlink="http://www.w3.org/1999/xlink" height="37.35px" width="39.6px" xmlns="http://www.w3.org/2000/svg">
  <g transform="matrix(1.0, 0.0, 0.0, 1.0, -214.2, -157.2)">
    <path d="M238.4 166.55 L236.9 166.4 Q233.05 166.4 230.35 169.1 227.65 171.85 227.65 175.65 227.65 179.45 230.35 182.2 233.05 184.9 236.9 184.9 L238.4 184.8 Q241.25 184.35 243.4 182.2 246.1 179.45 246.1 175.65 246.1 171.85 243.4 169.1 241.25 166.95 238.4 166.55 M241.0 158.05 L243.4 159.0 Q246.05 160.3 248.35 162.6 251.8 166.05 253.05 170.45 253.75 172.9 253.8 175.65 L253.45 179.35 Q252.4 184.65 248.35 188.7 246.05 190.95 243.4 192.3 L243.05 192.5 Q240.85 193.5 238.4 193.9 L237.0 194.05 232.7 194.55 Q228.5 194.55 225.0 192.9 222.05 191.55 219.6 189.1 215.6 185.1 214.55 179.85 214.2 178.0 214.2 176.05 214.2 174.2 214.55 172.5 215.5 167.1 219.6 163.0 222.5 160.1 226.0 158.75 228.35 157.85 230.95 157.65 L235.3 157.2 238.4 157.45 241.0 158.05" fill="#000000" fill-rule="evenodd" stroke="none"/>
  </g>
</svg>
