<?xml version="1.0" encoding="UTF-8" standalone="no"?>
<svg xmlns:xlink="http://www.w3.org/1999/xlink" height="109.5px" width="150.85px" xmlns="http://www.w3.org/2000/svg">
  <g transform="matrix(1.0, 0.0, 0.0, 1.0, -126.6, -128.15)">
    <path d="M162.0 132.5 Q164.8 135.1 167.95 137.35 170.05 138.8 172.35 140.05 181.6 145.2 193.6 147.25 L197.4 147.8 209.0 149.15 224.3 149.75 227.65 153.4 Q238.2 164.55 238.65 181.25 L238.65 182.35 235.8 185.95 Q224.45 185.2 211.05 186.25 185.65 189.05 181.0 185.9 L169.5 178.95 165.65 176.65 160.55 173.55 160.5 173.5 157.45 166.15 Q156.1 163.45 155.8 161.15 L155.75 159.4 Q150.3 153.35 142.75 149.45 139.95 148.0 136.85 146.85 132.5 145.2 127.6 144.15 144.2 137.75 162.0 132.5 M235.8 185.95 L222.4 177.15 225.5 170.65 222.05 170.65 219.35 174.8 177.85 174.8 169.5 178.95 177.85 174.8 219.35 174.8 222.05 170.65 225.5 170.65 222.4 177.15 235.8 185.95" fill="url(#gradient0)" fill-rule="evenodd" stroke="none"/>
    <path d="M231.55 148.8 L233.9 148.0 234.3 147.8 Q237.9 145.95 238.1 141.5 L237.75 138.0 236.8 134.55 Q250.95 138.2 262.75 144.45 270.0 148.3 276.4 153.15 L276.45 153.15 Q274.75 161.5 269.95 168.25 270.15 171.4 269.95 174.6 L269.35 180.95 262.5 188.65 257.1 188.95 248.55 187.45 235.8 185.95 238.65 182.35 238.65 181.25 Q238.2 164.55 227.65 153.4 L224.3 149.75 224.65 149.7 231.55 148.8 M269.35 180.95 L266.25 177.5 250.3 174.8 247.25 170.65 242.9 170.65 247.05 177.65 235.8 185.95 247.05 177.65 242.9 170.65 247.25 170.65 250.3 174.8 266.25 177.5 269.35 180.95 M269.15 162.6 Q269.8 165.4 269.95 168.25 269.8 165.4 269.15 162.6" fill="url(#gradient1)" fill-rule="evenodd" stroke="none"/>
    <path d="M229.85 237.15 L214.95 228.6 Q206.25 228.7 195.75 229.15 L184.5 229.7 Q184.05 220.75 182.95 211.95 176.9 208.9 171.3 205.4 164.55 201.2 158.45 196.4 L165.65 176.65 169.5 178.95 181.0 185.9 Q185.65 189.05 211.05 186.25 224.45 185.2 235.8 185.95 237.15 193.85 235.45 202.3 L233.1 218.65 218.55 209.8 221.0 204.7 217.1 204.7 214.1 209.9 182.95 211.95 214.1 209.9 217.1 204.7 221.0 204.7 218.55 209.8 233.1 218.65 229.85 237.15 M235.45 202.3 L220.35 193.0 223.4 187.75 219.15 187.75 216.45 193.25 180.45 197.45 171.3 205.4 180.45 197.45 216.45 193.25 219.15 187.75 223.4 187.75 220.35 193.0 235.45 202.3" fill="url(#gradient2)" fill-rule="evenodd" stroke="none"/>
    <path d="M262.5 188.65 L262.5 198.5 Q258.7 205.2 255.8 212.4 252.65 220.1 250.45 228.4 L249.85 231.15 246.05 230.3 241.5 229.65 229.85 237.15 233.1 218.65 235.45 202.3 Q237.15 193.85 235.8 185.95 L248.55 187.45 257.1 188.95 262.5 188.65 M235.45 202.3 L247.1 194.15 244.25 189.65 247.85 189.65 250.8 194.8 262.5 198.5 250.8 194.8 247.85 189.65 244.25 189.65 247.1 194.15 235.45 202.3 M255.8 212.4 L247.25 210.9 245.35 205.65 242.5 205.65 245.3 210.7 233.1 218.65 245.3 210.7 242.5 205.65 245.35 205.65 247.25 210.9 255.8 212.4" fill="url(#gradient3)" fill-rule="evenodd" stroke="none"/>
    <path d="M172.2 129.6 Q174.2 132.3 177.35 134.5 L181.7 137.05 Q193.8 142.9 217.1 143.95 L217.15 143.95 221.05 144.05 Q226.6 142.95 226.45 138.55 226.4 136.95 225.6 134.9 L224.15 131.85 Q230.7 132.95 236.8 134.55 L237.75 138.0 238.1 141.5 Q237.9 145.95 234.3 147.8 L233.9 148.0 231.55 148.8 228.4 145.8 Q221.9 147.75 210.95 146.0 L209.0 149.15 197.4 147.8 193.6 147.25 Q181.6 145.2 172.35 140.05 170.05 138.8 167.95 137.35 164.8 135.1 162.0 132.5 L172.2 129.6" fill="url(#gradient4)" fill-rule="evenodd" stroke="none"/>
    <path d="M209.0 149.15 L210.95 146.0 Q221.9 147.75 228.4 145.8 L231.55 148.8 224.65 149.7 224.3 149.75 209.0 149.15" fill="url(#gradient5)" fill-rule="evenodd" stroke="none"/>
    <path d="M224.15 131.85 L225.6 134.9 Q226.4 136.95 226.45 138.55 226.6 142.95 221.05 144.05 L217.15 143.95 217.1 143.95 Q193.8 142.9 181.7 137.05 L177.35 134.5 Q174.2 132.3 172.2 129.6 M162.0 132.5 Q164.8 135.1 167.95 137.35 170.05 138.8 172.35 140.05 181.6 145.2 193.6 147.25 L197.4 147.8 209.0 149.15 210.95 146.0 Q221.9 147.75 228.4 145.8 L231.55 148.8 233.9 148.0 234.3 147.8 Q237.9 145.95 238.1 141.5 L237.75 138.0 236.8 134.55 M276.45 153.15 Q274.75 161.5 269.95 168.25 270.15 171.4 269.95 174.6 L269.35 180.95 262.5 188.65 262.5 198.5 Q258.7 205.2 255.8 212.4 252.65 220.1 250.45 228.4 L249.85 231.15 246.05 230.3 241.5 229.65 229.85 237.15 214.95 228.6 Q206.25 228.7 195.75 229.15 L184.5 229.7 M182.95 211.95 Q176.9 208.9 171.3 205.4 164.55 201.2 158.45 196.4 L165.65 176.65 160.55 173.55 160.5 173.5 157.45 166.15 Q156.1 163.45 155.8 161.15 L155.75 159.4 Q150.3 153.35 142.75 149.45 139.95 148.0 136.85 146.85 132.5 145.2 127.6 144.15 M235.8 185.95 Q224.45 185.2 211.05 186.25 185.65 189.05 181.0 185.9 L169.5 178.95 165.65 176.65 M235.8 185.95 L238.65 182.35 238.65 181.25 Q238.2 164.55 227.65 153.4 L224.3 149.75 209.0 149.15 M224.3 149.75 L224.65 149.7 231.55 148.8 M269.95 168.25 Q269.8 165.4 269.15 162.6 M235.8 185.95 L248.55 187.45 257.1 188.95 262.5 188.65" fill="none" stroke="#000000" stroke-linecap="round" stroke-linejoin="round" stroke-width="1.0"/>
    <path d="M236.8 134.55 Q250.95 138.2 262.75 144.45 270.0 148.3 276.4 153.15 L276.45 153.15 M184.5 229.7 Q184.05 220.75 182.95 211.95 M127.6 144.15 Q144.2 137.75 162.0 132.5" fill="none" stroke="#000000" stroke-linecap="round" stroke-linejoin="round" stroke-width="2.0"/>
    <path d="M169.5 178.95 L177.85 174.8 219.35 174.8 222.05 170.65 225.5 170.65 222.4 177.15 235.8 185.95 247.05 177.65 242.9 170.65 247.25 170.65 250.3 174.8 266.25 177.5 269.35 180.95 M171.3 205.4 L180.45 197.45 216.45 193.25 219.15 187.75 223.4 187.75 220.35 193.0 235.45 202.3 Q237.15 193.85 235.8 185.95 M262.5 198.5 L250.8 194.8 247.85 189.65 244.25 189.65 247.1 194.15 235.45 202.3 233.1 218.65 245.3 210.7 242.5 205.65 245.35 205.65 247.25 210.9 255.8 212.4 M182.95 211.95 L214.1 209.9 217.1 204.7 221.0 204.7 218.55 209.8 233.1 218.65 229.85 237.15" fill="none" stroke="#000000" stroke-linecap="round" stroke-linejoin="round" stroke-opacity="0.2509804" stroke-width="1.0"/>
    <path d="M224.15 131.85 Q230.7 130.05 236.8 134.55 M162.0 132.5 Q166.1 127.95 172.2 129.6" fill="none" stroke="#000000" stroke-linecap="round" stroke-linejoin="round" stroke-width="2.0"/>
    <path d="M181.7 137.05 L172.35 140.05 Q170.05 138.8 167.95 137.35 170.05 138.8 172.35 140.05 L142.75 149.45 Q139.95 148.0 136.85 146.85 L167.95 137.35 177.35 134.5 181.7 137.05 M193.6 147.25 L197.4 147.8 209.0 149.15 224.3 149.75 225.9 151.5 224.3 149.75 224.65 149.7 231.55 148.8 233.9 148.0 Q246.4 149.6 257.3 152.95 L260.0 153.75 261.25 154.2 Q266.95 156.6 268.95 161.4 L269.15 162.6 Q270.1 168.8 269.95 174.6 L269.35 180.95 Q269.1 172.7 265.2 165.2 242.3 162.95 237.85 153.2 232.1 150.9 225.6 151.15 L225.9 151.5 227.65 153.4 Q238.2 164.55 238.65 181.25 L238.5 181.3 Q237.2 172.9 227.2 162.55 190.05 166.95 185.25 152.8 169.9 152.75 157.3 155.25 158.5 153.75 160.55 152.6 L161.6 152.1 163.85 151.2 166.15 150.5 Q180.7 148.15 193.6 147.25 M238.1 141.5 L226.45 138.55 Q226.4 136.95 225.6 134.9 L237.75 138.0 238.1 141.5 237.75 138.0 262.75 144.45 Q270.0 148.3 276.4 153.15 L253.6 145.45 238.1 141.5 M246.05 230.3 L241.5 229.65 244.65 211.15 245.3 210.7 244.85 209.9 245.5 206.05 248.2 190.2 248.65 187.5 253.75 188.4 252.45 195.35 250.8 194.8 248.2 190.2 250.8 194.8 252.45 195.35 249.55 211.3 246.05 230.3 M249.55 211.3 L247.25 210.9 245.5 206.05 247.25 210.9 249.55 211.3" fill="#ffffff" fill-opacity="0.2509804" fill-rule="evenodd" stroke="none"/>
    <path d="M269.35 180.95 L262.5 188.65 257.1 188.95 248.55 187.45 235.8 185.95 Q224.45 185.2 211.05 186.25 185.65 189.05 181.0 185.9 L175.55 182.6 169.5 178.95 175.55 182.6 Q177.7 190.0 182.9 197.2 L180.45 197.45 171.3 205.4 180.45 197.45 182.9 197.2 Q186.9 202.7 192.75 208.1 L194.15 211.25 182.95 211.95 Q176.9 208.9 171.3 205.4 164.55 201.2 158.45 196.4 L165.65 176.65 160.55 173.55 Q166.3 176.0 171.85 177.8 187.15 182.65 201.1 182.35 215.85 181.3 229.55 181.85 L235.8 185.95 229.55 181.85 238.65 182.35 235.8 185.95 238.65 182.35 240.45 182.55 250.0 183.3 Q263.9 183.9 269.35 180.95 M195.75 229.15 L184.5 229.7 Q184.05 220.75 182.95 211.95 L194.15 211.25 Q196.75 218.45 195.75 229.15 M169.5 178.95 L171.85 177.8 169.5 178.95 165.65 176.65 169.5 178.95 M235.8 185.95 L240.45 182.55 235.8 185.95" fill="#000000" fill-opacity="0.2509804" fill-rule="evenodd" stroke="none"/>
    <path d="M226.45 138.55 Q226.6 142.95 221.05 144.05 L217.15 143.95 217.1 143.95 Q193.8 142.9 181.7 137.05 L177.35 134.5 Q174.2 132.3 172.2 129.6 M172.35 140.05 Q181.6 145.2 193.6 147.25 L197.4 147.8 209.0 149.15 210.95 146.0 Q221.9 147.75 228.4 145.8 L231.55 148.8 233.9 148.0 234.3 147.8 Q237.9 145.95 238.1 141.5 L237.75 138.0 236.8 134.55 M226.45 138.55 Q226.4 136.95 225.6 134.9 L224.15 131.85 M276.45 153.15 Q274.75 161.5 269.95 168.25 270.15 171.4 269.95 174.6 L269.35 180.95 262.5 188.65 262.5 198.5 Q258.7 205.2 255.8 212.4 252.65 220.1 250.45 228.4 L249.85 231.15 246.05 230.3 241.5 229.65 229.85 237.15 214.95 228.6 Q206.25 228.7 195.75 229.15 L184.5 229.7 M182.95 211.95 Q176.9 208.9 171.3 205.4 164.55 201.2 158.45 196.4 L165.65 176.65 160.55 173.55 160.5 173.5 157.45 166.15 Q156.1 163.45 155.8 161.15 L155.75 159.4 Q150.3 153.35 142.75 149.45 139.95 148.0 136.85 146.85 132.5 145.2 127.6 144.15 M167.95 137.35 Q170.05 138.8 172.35 140.05 M162.0 132.5 Q164.8 135.1 167.95 137.35 M238.65 181.25 Q238.2 164.55 227.65 153.4 L225.9 151.5 224.3 149.75 209.0 149.15 M175.55 182.6 L181.0 185.9 Q185.65 189.05 211.05 186.25 224.45 185.2 235.8 185.95 L238.65 182.35 238.65 181.25 M169.5 178.95 L175.55 182.6 M169.5 178.95 L165.65 176.65 M231.55 148.8 L224.65 149.7 224.3 149.75 M225.9 151.5 L225.6 151.15 M235.8 185.95 L248.55 187.45 257.1 188.95 262.5 188.65 M269.15 162.6 Q269.8 165.4 269.95 168.25" fill="none" stroke="#000000" stroke-linecap="round" stroke-linejoin="round" stroke-width="1.0"/>
    <path d="M224.15 131.85 Q230.7 130.05 236.8 134.55 M162.0 132.5 Q166.1 127.95 172.2 129.6" fill="none" stroke="#000000" stroke-linecap="round" stroke-linejoin="round" stroke-width="2.0"/>
    <path d="M235.8 185.95 L229.55 181.85 222.4 177.15 225.5 170.65 222.05 170.65 219.35 174.8 177.85 174.8 171.85 177.8 169.5 178.95 M182.9 197.2 L216.45 193.25 219.15 187.75 223.4 187.75 220.35 193.0 235.45 202.3 Q237.15 193.85 235.8 185.95 L240.45 182.55 247.05 177.65 242.9 170.65 247.25 170.65 250.3 174.8 266.25 177.5 269.35 180.95 M171.3 205.4 L180.45 197.45 182.9 197.2 M194.15 211.25 L214.1 209.9 217.1 204.7 221.0 204.7 218.55 209.8 233.1 218.65 235.45 202.3 247.1 194.15 244.25 189.65 247.85 189.65 248.2 190.2 250.8 194.8 252.45 195.35 262.5 198.5 M245.5 206.05 L247.25 210.9 249.55 211.3 255.8 212.4 M244.85 209.9 L245.3 210.7 244.65 211.15 233.1 218.65 229.85 237.15 M244.85 209.9 L242.5 205.65 245.35 205.65 245.5 206.05 M194.15 211.25 L182.95 211.95" fill="none" stroke="#000000" stroke-linecap="round" stroke-linejoin="round" stroke-opacity="0.2509804" stroke-width="1.0"/>
    <path d="M236.8 134.55 Q250.95 138.2 262.75 144.45 270.0 148.3 276.4 153.15 L276.45 153.15 M184.5 229.7 Q184.05 220.75 182.95 211.95 M127.6 144.15 Q144.2 137.75 162.0 132.5" fill="none" stroke="#000000" stroke-linecap="round" stroke-linejoin="round" stroke-width="2.0"/>
  </g>
  <defs>
    <radialGradient cx="0" cy="0" gradientTransform="matrix(0.077, 0.0, 0.0, 0.077, 185.1, 170.1)" gradientUnits="userSpaceOnUse" id="gradient0" r="819.2" spreadMethod="pad">
      <stop offset="0.0" stop-color="#000000" stop-opacity="0.0"/>
      <stop offset="1.0" stop-color="#000000" stop-opacity="0.2509804"/>
    </radialGradient>
    <radialGradient cx="0" cy="0" gradientTransform="matrix(0.0496, 0.0, 0.0, 0.0496, 242.2, 174.85)" gradientUnits="userSpaceOnUse" id="gradient1" r="819.2" spreadMethod="pad">
      <stop offset="0.0" stop-color="#000000" stop-opacity="0.0"/>
      <stop offset="1.0" stop-color="#000000" stop-opacity="0.2509804"/>
    </radialGradient>
    <radialGradient cx="0" cy="0" gradientTransform="matrix(0.0552, 0.0, 0.0, 0.0552, 196.05, 206.25)" gradientUnits="userSpaceOnUse" id="gradient2" r="819.2" spreadMethod="pad">
      <stop offset="0.0" stop-color="#000000" stop-opacity="0.0"/>
      <stop offset="1.0" stop-color="#000000" stop-opacity="0.2509804"/>
    </radialGradient>
    <radialGradient cx="0" cy="0" gradientTransform="matrix(0.0375, 0.0, 0.0, 0.0375, 239.35, 208.9)" gradientUnits="userSpaceOnUse" id="gradient3" r="819.2" spreadMethod="pad">
      <stop offset="0.0" stop-color="#000000" stop-opacity="0.0"/>
      <stop offset="1.0" stop-color="#000000" stop-opacity="0.2509804"/>
    </radialGradient>
    <radialGradient cx="0" cy="0" gradientTransform="matrix(0.0591, 0.0, 0.0, 0.0591, 190.05, 142.75)" gradientUnits="userSpaceOnUse" id="gradient4" r="819.2" spreadMethod="pad">
      <stop offset="0.0" stop-color="#000000" stop-opacity="0.0"/>
      <stop offset="1.0" stop-color="#000000" stop-opacity="0.2509804"/>
    </radialGradient>
    <radialGradient cx="0" cy="0" gradientTransform="matrix(0.0156, 0.0, 0.0, 0.0156, 218.85, 147.9)" gradientUnits="userSpaceOnUse" id="gradient5" r="819.2" spreadMethod="pad">
      <stop offset="0.0" stop-color="#000000" stop-opacity="0.0"/>
      <stop offset="1.0" stop-color="#000000" stop-opacity="0.2509804"/>
    </radialGradient>
  </defs>
</svg>
