<?xml version="1.0" encoding="UTF-8" standalone="no"?>
<svg xmlns:xlink="http://www.w3.org/1999/xlink" height="58.9px" width="79.85px" xmlns="http://www.w3.org/2000/svg">
  <g transform="matrix(1.0, 0.0, 0.0, 1.0, -171.45, -222.5)">
    <path d="M243.15 223.8 L247.9 224.65 251.3 225.4 250.45 228.4 248.95 235.6 245.95 235.05 241.4 234.35 232.2 233.4 Q216.7 232.55 206.85 232.75 L201.1 232.95 199.55 233.0 199.5 233.0 195.4 233.2 Q193.85 247.45 191.95 261.5 L198.85 263.45 Q211.7 267.55 223.55 274.65 L221.55 281.4 Q210.65 274.5 198.25 270.55 194.65 269.4 190.95 268.55 L190.15 273.85 189.25 279.7 Q185.1 279.55 182.4 278.15 176.7 275.2 176.85 266.95 L171.45 240.7 175.3 231.55 175.6 230.75 177.7 225.7 181.15 225.15 184.0 224.65 184.0 224.6 184.2 224.6 184.65 224.55 185.1 224.5 187.0 224.3 187.25 224.3 191.35 223.9 191.8 223.85 194.0 223.7 194.7 223.65 195.55 223.55 198.05 223.35 199.15 223.3 199.5 223.25 201.1 223.15 206.85 222.8 Q218.25 222.25 231.85 222.7 L243.15 223.8" fill="#000000" fill-rule="evenodd" stroke="none"/>
  </g>
</svg>
