<?xml version="1.0" encoding="UTF-8" standalone="no"?>
<svg xmlns:xlink="http://www.w3.org/1999/xlink" height="34.05px" width="73.3px" xmlns="http://www.w3.org/2000/svg">
  <g transform="matrix(1.0, 0.0, 0.0, 1.0, -181.7, -208.25)">
    <path d="M245.7 212.1 L245.9 212.25 253.5 218.45 Q255.45 220.95 254.85 222.7 254.5 223.7 253.25 224.5 L253.65 225.35 254.0 226.85 253.95 229.9 Q253.55 231.95 252.6 233.45 L252.15 234.05 251.2 234.95 250.8 235.2 250.3 235.4 Q251.8 238.25 248.15 240.45 L244.05 241.55 241.25 241.9 Q228.55 243.25 200.25 240.0 L184.75 238.05 Q179.4 235.2 184.6 232.05 L184.5 229.7 184.35 227.25 Q179.35 223.9 183.85 220.65 L183.9 220.6 Q191.25 219.4 198.5 217.55 207.85 215.2 216.9 211.8 236.2 204.6 245.7 212.1 M247.4 226.5 L247.4 226.55 247.5 226.55 247.4 226.5 M210.2 225.5 L210.15 225.75 210.2 225.6 210.3 225.6 210.2 225.5" fill="#000000" fill-rule="evenodd" stroke="none"/>
  </g>
</svg>
