<?xml version="1.0" encoding="UTF-8" standalone="no"?>
<svg xmlns:xlink="http://www.w3.org/1999/xlink" height="65.05px" width="91.5px" xmlns="http://www.w3.org/2000/svg">
  <g transform="matrix(1.0, 0.0, 0.0, 1.0, -169.2, -218.05)">
    <path d="M197.9 259.45 Q196.55 263.4 195.9 267.75 194.85 274.35 195.2 281.85 187.95 281.05 182.2 278.9 177.55 277.15 173.9 274.55 172.0 268.15 171.05 262.2 169.2 250.2 171.3 240.0 173.5 228.95 180.35 219.95 L183.8 219.7 198.85 218.55 Q198.95 221.0 199.5 223.25 200.05 225.45 201.1 227.45 202.6 230.3 205.05 232.8 207.9 235.7 212.1 238.1 L212.25 238.3 210.25 240.1 Q208.5 241.7 207.0 243.45 202.25 248.85 199.4 255.45 L197.9 259.45 M171.05 262.2 L183.7 265.3 195.9 267.75 183.7 265.3 171.05 262.2 M212.1 238.1 L184.75 239.15 171.3 240.0 184.75 239.15 212.1 238.1 M197.35 224.7 Q196.55 223.3 195.45 223.3 194.35 223.3 193.55 224.7 192.75 226.15 192.75 228.2 192.75 230.25 193.55 231.65 194.35 233.1 195.45 233.1 196.55 233.1 197.35 231.65 198.15 230.25 198.15 228.2 198.15 226.15 197.35 224.7 198.15 226.15 198.15 228.2 198.15 230.25 197.35 231.65 196.55 233.1 195.45 233.1 194.35 233.1 193.55 231.65 192.75 230.25 192.75 228.2 192.75 226.15 193.55 224.7 194.35 223.3 195.45 223.3 196.55 223.3 197.35 224.7" fill="url(#gradient0)" fill-rule="evenodd" stroke="none"/>
    <path d="M243.2 238.5 L243.15 238.45 Q244.9 237.8 246.45 235.15 249.0 230.7 250.45 225.2 L251.45 220.3 259.05 221.25 Q260.6 229.65 260.1 240.0 L243.2 238.5 260.1 240.0 Q259.6 250.15 257.1 262.2 L254.1 274.9 Q249.8 280.85 244.05 282.6 245.35 274.55 245.85 267.45 L246.1 261.15 246.05 256.85 246.05 256.8 Q245.9 252.45 245.4 248.6 L244.5 243.35 Q243.95 240.8 243.2 238.5 M254.7 231.2 Q255.25 229.2 255.1 227.7 254.95 226.2 254.25 226.0 253.55 225.8 252.7 227.05 251.8 228.3 251.3 230.25 250.75 232.25 250.9 233.75 251.0 235.25 251.75 235.45 252.4 235.65 253.3 234.4 254.15 233.15 254.7 231.2 254.15 233.15 253.3 234.4 252.4 235.65 251.75 235.45 251.0 235.25 250.9 233.75 250.75 232.25 251.3 230.25 251.8 228.3 252.7 227.05 253.55 225.8 254.25 226.0 254.95 226.2 255.1 227.7 255.25 229.2 254.7 231.2 M257.1 262.2 Q252.2 265.5 245.85 267.45 252.2 265.5 257.1 262.2" fill="url(#gradient1)" fill-rule="evenodd" stroke="none"/>
    <path d="M182.2 278.9 Q177.55 277.15 173.9 274.55 172.0 268.15 171.05 262.2 169.2 250.2 171.3 240.0 173.5 228.95 180.35 219.95 L183.8 219.7" fill="none" stroke="#000000" stroke-linecap="round" stroke-linejoin="round" stroke-width="2.0"/>
    <path d="M260.1 240.0 Q260.6 229.65 259.05 221.25 L251.45 220.3 250.45 225.2 Q249.0 230.7 246.45 235.15 244.9 237.8 243.15 238.45 L243.2 238.5 Q243.95 240.8 244.5 243.35 L245.4 248.6 Q245.9 252.45 246.05 256.8 L246.05 256.85 246.1 261.15 245.85 267.45 Q245.35 274.55 244.05 282.6 249.8 280.85 254.1 274.9 L257.1 262.2 Q259.6 250.15 260.1 240.0 M197.9 259.45 Q196.55 263.4 195.9 267.75 194.85 274.35 195.2 281.85 187.95 281.05 182.2 278.9 M183.8 219.7 L198.85 218.55 Q198.95 221.0 199.5 223.25 200.05 225.45 201.1 227.45 202.6 230.3 205.05 232.8 207.9 235.7 212.1 238.1 L212.3 238.25 212.25 238.3 210.25 240.1 Q208.5 241.7 207.0 243.45 202.25 248.85 199.4 255.45 L197.9 259.45" fill="none" stroke="#000000" stroke-linecap="round" stroke-linejoin="round" stroke-width="1.0"/>
    <path d="M243.2 238.5 L260.1 240.0 M254.7 231.2 Q254.15 233.15 253.3 234.4 252.4 235.65 251.75 235.45 251.0 235.25 250.9 233.75 250.75 232.25 251.3 230.25 251.8 228.3 252.7 227.05 253.55 225.8 254.25 226.0 254.95 226.2 255.1 227.7 255.25 229.2 254.7 231.2 M245.85 267.45 Q252.2 265.5 257.1 262.2 M197.35 224.7 Q198.15 226.15 198.15 228.2 198.15 230.25 197.35 231.65 196.55 233.1 195.45 233.1 194.35 233.1 193.55 231.65 192.75 230.25 192.75 228.2 192.75 226.15 193.55 224.7 194.35 223.3 195.45 223.3 196.55 223.3 197.35 224.7 M171.3 240.0 L184.75 239.15 212.1 238.1 M195.9 267.75 L183.7 265.3 171.05 262.2" fill="none" stroke="#000000" stroke-linecap="round" stroke-linejoin="round" stroke-opacity="0.2509804" stroke-width="1.0"/>
    <path d="M246.1 261.15 Q237.45 258.3 229.2 254.8 216.65 257.95 197.9 259.45 M210.25 240.1 Q219.7 246.0 229.45 250.4 239.1 247.5 244.5 243.35 M207.0 243.45 Q214.8 248.15 223.1 252.05 L229.45 250.4 M229.2 254.8 L235.45 253.0 Q241.3 251.0 245.4 248.6 M199.4 255.45 Q213.05 254.3 223.1 252.05 M246.05 256.8 Q240.7 255.1 235.45 253.0" fill="none" stroke="#000000" stroke-linecap="round" stroke-linejoin="round" stroke-width="1.0"/>
    <path d="M252.1 277.35 Q250.2 279.4 248.05 280.75 249.55 273.2 250.65 265.7 252.6 252.45 253.4 239.25 L253.7 233.75 254.7 231.2 Q255.25 229.2 255.1 227.7 254.95 226.2 254.25 226.0 L253.95 226.0 254.0 220.65 257.3 221.05 Q257.4 230.4 256.9 239.6 L253.4 239.25 256.9 239.6 Q256.2 251.85 254.45 263.85 L250.65 265.7 254.45 263.85 252.1 277.35 M182.2 278.9 L178.2 277.15 Q176.55 270.05 175.85 263.45 174.4 250.6 176.45 239.65 L181.0 239.4 176.45 239.65 Q178.5 228.7 184.0 219.7 L188.45 219.35 Q187.0 221.85 185.8 224.45 182.55 231.45 181.0 239.4 178.7 251.0 180.0 264.45 180.65 271.4 182.3 278.85 L182.2 278.9 M180.0 264.45 L175.85 263.45 180.0 264.45" fill="#ffffff" fill-opacity="0.2509804" fill-rule="evenodd" stroke="none"/>
    <path d="M193.8 281.7 L190.9 281.25 Q189.75 273.7 189.5 266.55 188.9 252.0 191.55 238.8 192.1 236.0 192.8 233.3 L193.35 231.25 Q194.45 227.3 195.85 223.55 L195.9 223.4 196.2 223.5 Q196.85 223.8 197.35 224.7 198.1 226.1 198.15 228.05 198.1 226.1 197.35 224.7 196.85 223.8 196.2 223.5 L195.9 223.4 197.8 218.65 198.85 218.55 Q198.95 221.0 199.5 223.25 L199.7 223.85 198.15 228.05 Q197.4 230.25 196.8 232.5 L196.6 233.1 195.2 238.65 191.55 238.8 195.2 238.65 Q192.2 252.1 192.65 267.15 L189.5 266.55 192.65 267.15 Q192.8 274.25 193.8 281.7 M196.8 232.5 Q196.15 233.1 195.45 233.1 194.35 233.1 193.55 231.65 L193.35 231.25 193.55 231.65 Q194.35 233.1 195.45 233.1 196.15 233.1 196.8 232.5" fill="#000000" fill-opacity="0.2509804" fill-rule="evenodd" stroke="none"/>
    <path d="M257.3 221.05 L259.05 221.25 Q260.6 229.65 260.1 240.0 259.6 250.15 257.1 262.2 L254.1 274.9 252.1 277.35 Q250.2 279.4 248.05 280.75 246.15 281.95 244.05 282.6 245.35 274.55 245.85 267.45 L246.1 261.15 Q237.45 258.3 229.2 254.8 216.65 257.95 197.9 259.45 196.55 263.4 195.9 267.75 194.85 274.35 195.2 281.85 L193.8 281.7 190.9 281.25 Q186.25 280.4 182.3 278.95 L182.2 278.9 M183.8 219.7 L184.0 219.7 188.45 219.35 197.8 218.65 198.85 218.55 Q198.95 221.0 199.5 223.25 L201.1 223.15 206.85 222.8 Q218.25 222.25 231.85 222.7 L243.15 223.8 247.9 224.65 250.45 225.2 251.45 220.3 254.0 220.65 257.3 221.05 M243.2 238.5 L243.15 238.45 Q244.9 237.8 246.45 235.15 L245.95 235.05 241.4 234.35 232.2 233.4 Q216.7 232.55 206.85 232.75 L205.05 232.8 Q207.9 235.7 212.1 238.1 L212.3 238.25 210.25 240.1 Q219.7 246.0 229.45 250.4 239.1 247.5 244.5 243.35 243.95 240.8 243.2 238.5 M246.45 235.15 Q249.0 230.7 250.45 225.2 M246.1 261.15 L246.05 256.85 246.05 256.8 Q240.7 255.1 235.45 253.0 L229.2 254.8 M246.05 256.8 Q245.9 252.45 245.4 248.6 241.3 251.0 235.45 253.0 M245.4 248.6 L244.5 243.35 M197.9 259.45 L199.4 255.45 Q202.25 248.85 207.0 243.45 208.5 241.7 210.25 240.1 M199.5 223.25 L199.7 223.85 Q200.2 225.7 201.1 227.45 202.6 230.3 205.05 232.8 M229.45 250.4 L223.1 252.05 Q213.05 254.3 199.4 255.45 M223.1 252.05 Q214.8 248.15 207.0 243.45" fill="none" stroke="#000000" stroke-linecap="round" stroke-linejoin="round" stroke-width="1.0"/>
    <path d="M256.9 239.6 L260.1 240.0 M253.95 226.0 L254.25 226.0 Q254.95 226.2 255.1 227.7 255.25 229.2 254.7 231.2 L253.7 233.75 253.3 234.4 Q252.4 235.65 251.75 235.45 251.0 235.25 250.9 233.75 250.75 232.25 251.3 230.25 251.8 228.3 252.7 227.05 253.35 226.05 253.95 226.0 M253.4 239.25 L256.9 239.6 M254.45 263.85 Q255.8 263.05 257.1 262.2 M243.2 238.5 L253.4 239.25 M250.65 265.7 L254.45 263.85 M245.85 267.45 L250.65 265.7 M176.45 239.65 L171.3 240.0 M181.0 239.4 L176.45 239.65 M175.85 263.45 L180.0 264.45 183.7 265.3 189.5 266.55 192.65 267.15 195.9 267.75 M198.15 228.05 L198.15 228.2 Q198.15 230.25 197.35 231.65 L196.8 232.5 Q196.15 233.1 195.45 233.1 194.35 233.1 193.55 231.65 L193.35 231.25 Q192.75 229.95 192.75 228.2 192.75 226.15 193.55 224.7 193.95 224.0 194.45 223.65 194.9 223.3 195.45 223.3 L195.9 223.4 196.2 223.5 Q196.85 223.8 197.35 224.7 198.1 226.1 198.15 228.05 M195.2 238.65 L212.1 238.1 M191.55 238.8 L195.2 238.65 M181.0 239.4 L184.75 239.15 191.55 238.8 M171.05 262.2 L175.85 263.45" fill="none" stroke="#000000" stroke-linecap="round" stroke-linejoin="round" stroke-opacity="0.2509804" stroke-width="1.0"/>
    <path d="M182.2 278.9 L178.2 277.15 Q175.9 275.95 173.9 274.55 172.0 268.15 171.05 262.2 169.2 250.2 171.3 240.0 173.5 228.95 180.35 219.95 L183.8 219.7" fill="none" stroke="#000000" stroke-linecap="round" stroke-linejoin="round" stroke-width="2.0"/>
  </g>
  <defs>
    <linearGradient gradientTransform="matrix(-0.0205, 0.0, 0.0, -0.0181, 189.3, 252.95)" gradientUnits="userSpaceOnUse" id="gradient0" spreadMethod="pad" x1="-819.2" x2="819.2">
      <stop offset="0.0" stop-color="#000000" stop-opacity="0.0"/>
      <stop offset="1.0" stop-color="#000000" stop-opacity="0.2509804"/>
    </linearGradient>
    <linearGradient gradientTransform="matrix(0.0079, 0.0, 0.0, 0.0177, 251.95, 252.95)" gradientUnits="userSpaceOnUse" id="gradient1" spreadMethod="pad" x1="-819.2" x2="819.2">
      <stop offset="0.0" stop-color="#000000" stop-opacity="0.0"/>
      <stop offset="1.0" stop-color="#000000" stop-opacity="0.2509804"/>
    </linearGradient>
  </defs>
</svg>
