<?xml version="1.0" encoding="UTF-8" standalone="no"?>
<svg xmlns:xlink="http://www.w3.org/1999/xlink" height="33.8px" width="36.55px" xmlns="http://www.w3.org/2000/svg">
  <g transform="matrix(1.0, 0.0, 0.0, 1.0, -203.1, -133.95)">
    <path d="M203.95 136.45 L214.3 138.7 Q215.9 137.85 217.3 137.65 L219.55 137.6 221.1 136.6 Q223.05 135.4 225.5 134.25 L226.05 133.95 Q226.95 136.1 227.15 138.65 227.3 140.95 226.85 143.6 L226.8 143.6 Q223.65 144.0 219.75 142.9 234.4 149.75 239.65 159.4 L238.05 165.3 Q233.1 152.35 217.35 143.95 224.25 151.55 229.45 167.75 L222.55 165.55 Q223.2 153.3 214.3 143.75 L213.1 144.4 209.3 146.0 205.1 147.35 204.45 147.5 204.05 146.9 Q202.2 143.55 203.95 136.45" fill="#000000" fill-rule="evenodd" stroke="none"/>
  </g>
</svg>
