<?xml version="1.0" encoding="UTF-8" standalone="no"?>
<svg xmlns:xlink="http://www.w3.org/1999/xlink" height="18.6px" width="19.85px" xmlns="http://www.w3.org/2000/svg">
  <g transform="matrix(1.0, 0.0, 0.0, 1.0, -211.3, -137.35)">
    <path d="M211.75 140.95 L212.2 140.05 Q213.95 137.35 217.8 137.35 L219.3 137.45 221.05 137.85 Q223.2 138.5 225.35 140.05 L225.5 140.2 Q229.15 142.9 230.55 146.65 L231.05 148.5 Q231.5 151.15 230.2 153.2 L229.2 154.45 Q227.5 155.95 224.7 155.95 220.8 155.95 217.05 153.2 213.85 150.85 212.35 147.65 L212.3 147.55 211.95 146.65 Q210.95 144.0 211.45 141.85 L211.75 140.95" fill="#000000" fill-rule="evenodd" stroke="none"/>
  </g>
</svg>
