<?xml version="1.0" encoding="UTF-8" standalone="no"?>
<svg xmlns:xlink="http://www.w3.org/1999/xlink" height="44.95px" width="47.3px" xmlns="http://www.w3.org/2000/svg">
  <g transform="matrix(1.0, 0.0, 0.0, 1.0, -181.2, -79.15)">
    <path d="M195.3 83.85 Q197.2 81.6 200.4 81.05 L207.25 79.8 Q215.3 77.4 223.35 83.65 L222.45 84.6 Q226.45 85.1 227.5 89.1 230.3 97.3 225.4 104.2 223.75 107.2 223.7 111.45 L223.6 104.75 224.25 102.05 Q224.55 99.35 223.6 96.7 L224.25 94.25 Q224.2 90.5 222.65 87.85 L221.1 85.9 216.7 89.05 Q215.2 89.7 213.65 89.05 209.4 86.75 205.15 85.55 203.2 88.3 203.15 92.25 201.15 93.3 199.45 94.9 198.05 96.2 196.9 97.85 196.3 95.25 194.25 95.3 190.75 95.55 191.7 100.9 192.15 103.5 193.0 104.9 190.4 113.05 185.8 119.85 L182.6 124.1 Q179.55 117.2 183.1 111.95 L190.05 100.95 Q191.85 95.45 192.8 89.95 193.4 86.05 195.3 83.85" fill="#000000" fill-rule="evenodd" stroke="none"/>
  </g>
</svg>
