<?xml version="1.0" encoding="UTF-8" standalone="no"?>
<svg xmlns:xlink="http://www.w3.org/1999/xlink" height="84.5px" width="45.45px" xmlns="http://www.w3.org/2000/svg">
  <g transform="matrix(1.0, 0.0, 0.0, 1.0, -185.15, -76.8)">
    <path d="M189.1 83.3 L189.45 82.55 Q191.2 79.1 194.25 77.75 197.65 76.15 202.65 77.25 L202.95 77.95 203.85 77.55 205.95 77.7 208.15 78.05 Q216.45 79.5 220.45 83.7 L223.55 80.4 Q224.8 79.2 225.8 78.6 229.1 76.7 230.1 80.95 230.6 82.9 230.6 86.15 L230.5 89.05 230.45 92.55 Q229.4 123.35 218.9 154.0 224.9 131.35 226.45 108.7 L226.9 98.7 Q226.9 94.25 226.4 91.45 L226.0 89.6 Q225.25 87.1 223.95 86.6 L221.95 86.8 223.1 88.65 Q219.75 89.55 217.1 91.4 214.1 89.8 211.1 89.1 L207.95 88.65 204.2 88.75 204.15 88.8 Q203.35 90.65 202.8 93.5 202.3 96.2 202.05 99.8 201.75 104.4 201.85 110.5 203.4 136.35 207.3 161.3 200.7 133.75 198.7 105.65 L198.45 99.3 198.45 97.7 198.55 94.05 Q198.25 94.3 197.35 96.75 L196.95 97.85 Q196.45 95.65 194.9 95.35 L194.3 95.3 Q190.85 95.55 191.75 100.9 192.2 103.5 193.05 104.9 L190.7 111.15 Q188.6 115.8 185.8 119.95 184.1 107.25 187.0 96.55 186.95 91.85 187.65 88.25 188.15 85.45 189.1 83.3" fill="#000000" fill-rule="evenodd" stroke="none"/>
  </g>
</svg>
