<?xml version="1.0" encoding="UTF-8" standalone="no"?>
<svg xmlns:xlink="http://www.w3.org/1999/xlink" height="21.4px" width="45.75px" xmlns="http://www.w3.org/2000/svg">
  <g transform="matrix(1.0, 0.0, 0.0, 1.0, -182.95, -78.45)">
    <path d="M195.3 84.0 Q196.1 87.6 197.6 91.1 L199.1 94.25 Q197.75 95.85 196.9 97.85 196.3 95.25 194.25 95.3 191.5 95.5 191.5 98.85 188.3 96.35 187.15 93.2 L190.3 93.2 Q187.7 91.7 185.6 89.25 L189.3 89.25 Q186.45 86.25 183.95 82.55 189.65 85.6 195.3 84.0 M192.45 89.2 Q194.95 90.5 197.6 91.1 194.95 90.5 192.45 89.2" fill="#000000" fill-opacity="0.2509804" fill-rule="evenodd" stroke="none"/>
    <path d="M198.4 82.75 L195.3 84.0 Q189.65 85.6 183.95 82.55 186.45 86.25 189.3 89.25 L185.6 89.25 Q187.7 91.7 190.3 93.2 L187.15 93.2 Q188.3 96.35 191.5 98.85 M198.4 82.75 Q210.35 76.15 219.9 82.75 225.4 86.1 227.55 83.4 228.5 90.65 223.6 96.7 L224.25 94.25" fill="none" stroke="#000000" stroke-linecap="round" stroke-linejoin="round" stroke-width="2.0"/>
    <path d="M197.6 91.1 L201.95 91.65 203.2 90.9 199.55 88.3 Q207.35 86.8 215.15 90.75 206.8 84.45 198.4 82.75 M223.1 88.75 Q219.15 88.9 215.15 90.75 219.4 88.2 219.95 84.85 L219.9 82.75 M194.25 95.3 Q196.3 95.25 196.9 97.85 197.75 95.85 199.1 94.25 200.35 92.75 201.95 91.65 M197.6 91.1 Q194.95 90.5 192.45 89.2" fill="none" stroke="#000000" stroke-linecap="round" stroke-linejoin="round" stroke-width="1.0"/>
    <path d="M224.25 94.25 Q224.2 91.1 223.1 88.75 M191.5 98.85 Q191.5 95.5 194.25 95.3" fill="none" stroke="#000000" stroke-linecap="round" stroke-linejoin="round" stroke-width="2.0"/>
  </g>
</svg>
