<?xml version="1.0" encoding="UTF-8" standalone="no"?>
<svg xmlns:xlink="http://www.w3.org/1999/xlink" height="52.2px" width="57.9px" xmlns="http://www.w3.org/2000/svg">
  <g transform="matrix(1.0, 0.0, 0.0, 1.0, -175.05, -77.3)">
    <path d="M184.6 97.5 Q183.85 96.9 182.75 96.6 181.25 96.0 180.85 95.1 180.1 93.45 182.65 90.75 L190.55 83.15 Q195.65 77.85 201.5 77.4 207.65 76.95 212.75 78.2 220.4 80.2 224.05 80.45 L225.85 80.5 Q229.0 80.2 231.2 84.6 233.35 88.9 230.1 91.4 229.35 94.6 229.85 97.7 230.15 99.6 232.55 109.7 234.9 119.75 223.9 122.15 L223.6 104.75 Q225.1 100.7 223.6 96.7 L224.25 94.25 Q224.25 92.15 223.75 90.45 218.4 92.6 215.25 89.9 209.25 86.95 206.7 94.8 L201.75 118.0 201.2 120.35 Q200.8 122.25 196.7 125.45 192.65 127.7 188.75 128.75 L184.7 129.45 181.0 129.5 175.55 128.5 Q173.75 120.5 178.5 115.0 L182.9 109.8 Q185.65 105.95 185.65 100.0 185.7 98.4 184.6 97.5" fill="#000000" fill-rule="evenodd" stroke="none"/>
  </g>
</svg>
