<?xml version="1.0" encoding="UTF-8" standalone="no"?>
<svg xmlns:xlink="http://www.w3.org/1999/xlink" height="20.4px" width="62.2px" xmlns="http://www.w3.org/2000/svg">
  <g transform="matrix(1.0, 0.0, 0.0, 1.0, -181.4, -78.0)">
    <path d="M193.75 82.7 Q194.05 81.65 194.5 80.75 195.9 78.05 199.65 79.55 L200.6 79.85 Q207.05 82.05 213.25 86.55 218.5 90.15 224.2 92.65 232.9 96.4 242.6 97.4 232.9 96.4 224.2 92.65 224.0 88.7 222.2 85.65 220.75 83.95 219.0 82.7 223.95 84.3 228.9 88.8 234.55 93.1 242.6 97.4 233.25 97.35 223.9 95.45 209.1 91.85 194.35 92.55 L192.75 92.6 Q192.55 89.6 192.85 87.0 194.95 87.95 197.95 88.6 L198.75 87.1 196.15 85.1 193.75 82.7 M201.05 89.2 L203.95 89.6 201.2 88.45 201.05 89.2" fill="#000000" fill-opacity="0.2509804" fill-rule="evenodd" stroke="none"/>
    <path d="M193.75 82.7 L196.15 85.1 198.75 87.1 197.95 88.6 Q194.95 87.95 192.85 87.0 M242.6 97.4 Q232.9 96.4 224.2 92.65 218.5 90.15 213.25 86.55 207.05 82.05 200.6 79.85 M201.05 89.2 L203.95 89.6 201.2 88.45 201.05 89.2 M219.0 82.7 Q220.75 83.95 222.2 85.65 224.0 88.7 224.2 92.65" fill="none" stroke="#000000" stroke-linecap="round" stroke-linejoin="round" stroke-width="1.0"/>
    <path d="M200.6 79.85 L199.65 79.55 Q195.9 78.05 194.5 80.75 194.05 81.65 193.75 82.7 189.2 79.05 182.4 79.3 186.1 81.0 188.85 84.3 190.15 85.85 192.85 87.0 192.55 89.6 192.75 92.6 L194.35 92.55 M223.9 95.45 Q233.25 97.35 242.6 97.4 234.55 93.1 228.9 88.8 223.95 84.3 219.0 82.7 211.95 77.6 200.6 79.85" fill="none" stroke="#000000" stroke-linecap="round" stroke-linejoin="round" stroke-width="2.0"/>
    <path d="M194.35 92.55 Q209.1 91.85 223.9 95.45" fill="none" stroke="#000000" stroke-linecap="round" stroke-linejoin="round" stroke-width="1.0"/>
  </g>
</svg>
