<?xml version="1.0" encoding="UTF-8" standalone="no"?>
<svg xmlns:xlink="http://www.w3.org/1999/xlink" height="67.3px" width="154.15px" xmlns="http://www.w3.org/2000/svg">
  <g transform="matrix(1.0, 0.0, 0.0, 1.0, -124.05, -139.75)">
    <path d="M187.55 197.3 Q184.5 199.9 181.95 202.9 170.35 195.35 161.85 187.15 L161.85 187.2 Q147.15 193.3 136.5 199.6 130.15 203.25 125.2 207.05 L124.05 201.15 Q130.6 193.35 135.35 185.55 138.55 180.25 140.95 174.95 138.85 169.55 136.3 165.5 131.4 157.85 124.8 155.1 125.9 149.6 127.6 144.15 133.5 141.85 139.6 139.75 143.7 142.35 147.0 145.8 153.05 152.15 156.35 161.2 164.65 156.9 170.85 150.15 196.4 153.15 220.95 159.4 227.45 169.3 228.5 180.05 L222.2 181.3 Q212.3 183.4 204.25 186.95 199.35 189.05 195.1 191.7 191.0 194.25 187.55 197.3 M278.2 160.9 L273.8 174.4 Q274.25 183.65 276.55 192.85 275.45 196.95 273.95 201.05 272.6 194.95 267.1 188.9 L264.6 186.3 262.9 188.25 262.5 198.5 Q262.2 193.3 258.7 188.9 255.95 185.45 251.4 182.45 248.75 180.7 245.45 179.1 245.45 168.4 240.25 158.45 L256.3 152.35 261.9 159.6 Q262.5 152.5 261.35 143.7 269.4 147.85 276.45 153.15 L278.2 160.9" fill="#000000" fill-rule="evenodd" stroke="none"/>
  </g>
</svg>
