<?xml version="1.0" encoding="UTF-8" standalone="no"?>
<svg xmlns:xlink="http://www.w3.org/1999/xlink" height="69.3px" width="156.15px" xmlns="http://www.w3.org/2000/svg">
  <g transform="matrix(1.0, 0.0, 0.0, 1.0, -123.05, -138.75)">
    <path d="M204.25 186.95 Q185.0 188.6 181.0 185.9 L178.75 184.55 Q179.45 191.85 187.55 197.3 184.5 199.9 181.95 202.9 170.35 195.35 161.85 187.15 L165.65 176.65 178.75 184.55 165.65 176.65 160.45 173.5 181.8 180.55 Q191.2 183.85 211.5 181.7 L222.2 181.3 Q212.3 183.4 204.25 186.95 M136.5 199.6 Q130.15 203.25 125.2 207.05 L124.05 201.15 Q130.6 193.35 135.35 185.55 135.55 192.4 136.5 199.6 M136.3 165.5 Q131.4 157.85 124.8 155.1 125.9 149.6 127.6 144.15 133.5 141.85 139.6 139.75 143.7 142.35 147.0 145.8 143.3 147.2 139.8 148.9 137.4 156.9 136.3 165.5 M267.1 188.9 L264.6 186.3 262.9 188.25 262.85 188.7 258.7 188.9 Q255.95 185.45 251.4 182.45 L253.45 182.85 Q262.75 184.65 269.35 180.95 268.1 184.8 267.1 188.9 M264.6 186.3 L269.35 180.95 264.6 186.3" fill="#010101" fill-opacity="0.2509804" fill-rule="evenodd" stroke="none"/>
    <path d="M187.55 197.3 Q191.0 194.25 195.1 191.7 199.35 189.05 204.25 186.95 212.3 183.4 222.2 181.3 L228.5 180.05 Q227.45 169.3 220.95 159.4 196.4 153.15 170.85 150.15 164.65 156.9 156.35 161.2 153.05 152.15 147.0 145.8 143.7 142.35 139.6 139.75 M124.05 201.15 Q130.6 193.35 135.35 185.55 138.55 180.25 140.95 174.95 138.85 169.55 136.3 165.5 131.4 157.85 124.8 155.1 M178.75 184.55 L165.65 176.65 161.85 187.15 M278.2 160.9 L273.8 174.4 Q274.25 183.65 276.55 192.85 M273.95 201.05 Q272.6 194.95 267.1 188.9 L264.6 186.3 262.9 188.25 262.85 188.7 262.5 198.5 Q262.2 193.3 258.7 188.9 255.95 185.45 251.4 182.45 248.75 180.7 245.45 179.1 245.45 168.4 240.25 158.45 L256.3 152.35 261.9 159.6 Q262.5 152.5 261.35 143.7 M269.35 180.95 Q270.75 171.75 269.35 162.55 M269.35 180.95 L264.6 186.3 M165.65 176.65 L160.45 173.5" fill="none" stroke="#000000" stroke-linecap="round" stroke-linejoin="round" stroke-width="1.0"/>
    <path d="M125.2 207.05 L124.05 201.15 M124.8 155.1 Q125.9 149.6 127.6 144.15 133.5 141.85 139.6 139.75 M261.35 143.7 Q269.4 147.85 276.45 153.15 L278.2 160.9 M276.55 192.85 Q275.45 196.95 273.95 201.05" fill="none" stroke="#000000" stroke-linecap="round" stroke-linejoin="round" stroke-width="2.0"/>
    <path d="M187.55 197.3 Q184.5 199.9 181.95 202.9 170.35 195.35 161.85 187.15 L161.85 187.2 Q147.15 193.3 136.5 199.6 130.15 203.25 125.2 207.05" fill="none" stroke="#000000" stroke-linecap="round" stroke-linejoin="round" stroke-width="1.0"/>
  </g>
</svg>
