<?xml version="1.0" encoding="UTF-8" standalone="no"?>
<svg xmlns:xlink="http://www.w3.org/1999/xlink" height="44.55px" width="36.15px" xmlns="http://www.w3.org/2000/svg">
  <g transform="matrix(1.0, 0.0, 0.0, 1.0, -257.65, -134.85)">
    <path d="M265.25 145.85 Q264.25 140.85 259.45 135.85 276.45 140.3 286.2 152.0 292.0 165.2 292.8 178.4 287.9 177.2 282.3 176.8 L279.1 176.65 Q268.85 176.3 259.45 178.1 256.9 169.15 259.45 161.15 263.25 157.2 264.65 153.3 266.0 149.55 265.25 145.85 M264.65 153.3 Q271.6 155.5 277.55 161.45 L278.55 163.25 Q281.65 169.2 282.3 176.8 281.65 169.2 278.55 163.25 L277.55 161.45 Q271.6 155.5 264.65 153.3" fill="url(#gradient0)" fill-rule="evenodd" stroke="none"/>
    <path d="M279.1 176.65 Q268.85 176.3 259.45 178.1 256.9 169.15 259.45 161.15 263.25 157.2 264.65 153.3 266.0 149.55 265.25 145.85 M282.3 176.8 Q281.65 169.2 278.55 163.25 L277.55 161.45 Q271.6 155.5 264.65 153.3" fill="none" stroke="#000000" stroke-linecap="round" stroke-linejoin="round" stroke-width="1.0"/>
    <path d="M265.25 145.85 Q264.25 140.85 259.45 135.85 276.45 140.3 286.2 152.0 292.0 165.2 292.8 178.4 287.9 177.2 282.3 176.8 L279.1 176.65" fill="none" stroke="#000000" stroke-linecap="round" stroke-linejoin="round" stroke-width="2.0"/>
    <path d="M265.5 147.4 L265.25 145.85 Q264.8 143.65 263.7 141.5 273.1 146.2 282.55 153.85 288.0 165.9 290.6 177.95 L286.8 177.3 Q284.55 166.8 279.7 156.3 272.6 150.65 265.5 147.4" fill="#ffffff" fill-opacity="0.2509804" fill-rule="evenodd" stroke="none"/>
    <path d="M273.05 176.65 L269.0 176.85 Q267.8 166.55 260.05 160.55 L263.2 156.4 Q271.7 163.8 273.05 176.65" fill="#000000" fill-opacity="0.2509804" fill-rule="evenodd" stroke="none"/>
    <path d="M265.5 147.4 L265.25 145.85 M279.1 176.65 Q276.0 176.5 273.05 176.65 L269.0 176.85 259.45 178.1 Q256.9 169.15 259.45 161.15 L260.05 160.55 263.2 156.4 264.65 153.3 Q265.7 150.35 265.5 147.4 M264.65 153.3 Q271.6 155.5 277.55 161.45 L278.55 163.25 Q281.65 169.2 282.3 176.8" fill="none" stroke="#000000" stroke-linecap="round" stroke-linejoin="round" stroke-width="1.0"/>
    <path d="M265.25 145.85 Q264.8 143.65 263.7 141.5 262.15 138.65 259.45 135.85 276.45 140.3 286.2 152.0 292.0 165.2 292.8 178.4 L290.6 177.95 286.8 177.3 282.3 176.8 279.1 176.65" fill="none" stroke="#000000" stroke-linecap="round" stroke-linejoin="round" stroke-width="2.0"/>
  </g>
  <defs>
    <linearGradient gradientTransform="matrix(-0.0166, 0.0, 0.0, -0.0306, 272.55, 158.95)" gradientUnits="userSpaceOnUse" id="gradient0" spreadMethod="pad" x1="-819.2" x2="819.2">
      <stop offset="0.0" stop-color="#000000" stop-opacity="0.0"/>
      <stop offset="1.0" stop-color="#000000" stop-opacity="0.2509804"/>
    </linearGradient>
  </defs>
</svg>
