<?xml version="1.0" encoding="UTF-8" standalone="no"?>
<svg xmlns:xlink="http://www.w3.org/1999/xlink" height="86.9px" width="192.7px" xmlns="http://www.w3.org/2000/svg">
  <g transform="matrix(1.0, 0.0, 0.0, 1.0, -135.4, -264.95)">
    <path d="M141.75 279.15 L144.9 280.25 147.75 282.05 147.2 283.6 146.05 286.7 145.5 288.2 142.15 287.75 139.05 286.65 Q139.4 284.65 140.35 282.85 140.8 280.9 141.75 279.15 M165.95 290.0 L171.35 275.1 173.15 270.2 172.9 269.7 Q172.35 268.65 172.75 267.6 173.15 266.55 174.25 266.05 L176.35 265.95 Q177.4 266.3 177.95 267.4 178.35 268.45 178.0 269.5 177.6 270.55 176.6 271.05 L175.25 271.35 173.8 276.0 175.0 276.4 174.5 277.8 Q182.85 283.55 180.25 294.9 L327.1 350.85 178.65 299.3 Q173.35 309.65 163.25 308.7 L162.75 310.05 161.55 309.65 159.7 314.1 160.55 315.2 Q161.0 316.2 160.6 317.3 160.2 318.35 159.2 318.9 L157.05 318.95 Q155.95 318.55 155.5 317.55 154.95 316.4 155.4 315.35 155.75 314.3 156.85 313.85 L157.35 313.65 159.1 308.75 161.45 302.35 162.45 299.6 164.55 293.85 165.95 290.0 M178.65 299.3 L179.65 297.15 180.25 294.95 180.25 294.9 180.25 294.95 179.65 297.15 178.65 299.3 M173.15 270.2 Q173.6 270.9 174.45 271.2 L175.25 271.35 174.45 271.2 Q173.6 270.9 173.15 270.2 M161.55 309.65 L159.1 308.75 161.55 309.65 M159.7 314.1 L158.95 313.7 157.35 313.65 158.95 313.7 159.7 314.1 M144.9 280.25 L142.15 287.75 144.9 280.25 M174.5 277.8 L163.25 308.7 174.5 277.8 M171.35 275.1 L173.8 276.0 171.35 275.1" fill="url(#gradient0)" fill-rule="evenodd" stroke="none"/>
    <path d="M161.45 302.35 L162.45 299.6 M142.15 287.75 L139.05 286.65 Q139.4 284.65 140.35 282.85 140.8 280.9 141.75 279.15 M138.15 283.9 L139.35 280.65 M146.05 286.7 L147.2 283.6 M142.15 287.75 L144.9 280.25 M157.35 313.65 L158.95 313.7 159.7 314.1 M159.1 308.75 L161.55 309.65 M175.25 271.35 L174.45 271.2 Q173.6 270.9 173.15 270.2 M180.25 294.9 L180.25 294.95 179.65 297.15 178.65 299.3 M164.55 293.85 L165.95 290.0 M173.8 276.0 L171.35 275.1 M163.25 308.7 L174.5 277.8" fill="none" stroke="#000000" stroke-linecap="round" stroke-linejoin="round" stroke-width="1.0"/>
    <path d="M161.45 302.35 Q146.2 308.05 139.25 294.0 138.3 290.05 139.05 286.65 L138.15 283.9 Q135.6 283.6 136.8 281.55 137.2 279.25 139.35 280.65 L141.75 279.15 144.9 280.25 147.75 282.05 147.2 283.6 Q157.95 283.4 165.95 290.0 L171.35 275.1 173.15 270.2 172.9 269.7 Q172.35 268.65 172.75 267.6 173.15 266.55 174.25 266.05 L176.35 265.95 Q177.4 266.3 177.95 267.4 178.35 268.45 178.0 269.5 177.6 270.55 176.6 271.05 L175.25 271.35 173.8 276.0 175.0 276.4 174.5 277.8 Q182.85 283.55 180.25 294.9 L327.1 350.85 178.65 299.3 Q173.35 309.65 163.25 308.7 L162.75 310.05 161.55 309.65 159.7 314.1 160.55 315.2 Q161.0 316.2 160.6 317.3 160.2 318.35 159.2 318.9 L157.05 318.95 Q155.95 318.55 155.5 317.55 154.95 316.4 155.4 315.35 155.75 314.3 156.85 313.85 L157.35 313.65 159.1 308.75 161.45 302.35 M162.45 299.6 Q146.25 305.55 141.45 292.15 140.6 289.65 142.15 287.75 L145.5 288.2 146.05 286.7 Q154.15 293.75 164.55 293.85 L162.45 299.6 Z" fill="none" stroke="#000000" stroke-linecap="round" stroke-linejoin="round" stroke-width="2.0"/>
  </g>
  <defs>
    <linearGradient gradientTransform="matrix(-0.0038, 0.0103, -0.0965, -0.0357, 246.95, 323.15)" gradientUnits="userSpaceOnUse" id="gradient0" spreadMethod="pad" x1="-819.2" x2="819.2">
      <stop offset="0.0" stop-color="#000000" stop-opacity="0.0"/>
      <stop offset="1.0" stop-color="#000000" stop-opacity="0.2509804"/>
    </linearGradient>
  </defs>
</svg>
