<?xml version="1.0" encoding="UTF-8" standalone="no"?>
<svg xmlns:xlink="http://www.w3.org/1999/xlink" height="69.65px" width="123.2px" xmlns="http://www.w3.org/2000/svg">
  <g transform="matrix(1.0, 0.0, 0.0, 1.0, -83.4, -258.0)">
    <path d="M89.5 258.0 Q91.25 258.65 92.05 260.35 L92.4 261.25 94.3 261.95 93.95 262.9 93.85 263.25 93.7 263.6 92.65 266.65 90.65 265.95 89.85 266.4 86.4 266.6 Q84.65 265.95 83.85 264.2 83.05 262.5 83.7 260.75 84.3 258.95 86.05 258.15 L89.5 258.0 M191.9 265.65 L193.65 265.6 Q194.5 265.9 194.9 266.75 195.3 267.6 195.0 268.5 194.65 269.35 193.8 269.7 L193.7 269.8 193.4 269.9 193.15 269.95 192.4 269.95 192.1 269.85 191.0 269.05 190.9 268.8 190.8 268.65 190.75 268.5 190.65 268.05 Q190.5 267.5 190.75 266.95 190.9 266.5 191.2 266.2 L191.4 265.95 191.9 265.65 M187.3 267.0 L187.4 266.95 187.5 266.9 189.25 266.85 Q190.1 267.15 190.5 268.0 L190.55 268.1 190.65 268.45 190.75 268.85 190.6 269.75 Q190.25 270.6 189.4 271.0 L188.9 271.2 189.4 271.1 190.45 271.25 Q191.25 271.5 191.65 272.25 L191.7 272.4 191.8 272.65 191.9 272.9 191.85 274.05 191.8 274.15 191.65 274.45 191.55 274.6 190.65 275.4 189.8 275.65 189.4 275.6 179.85 292.85 204.2 302.85 204.95 303.2 205.95 303.85 Q206.7 304.55 206.6 305.45 206.1 306.2 205.1 306.25 L203.9 306.15 203.1 305.9 178.0 297.9 174.25 317.25 174.3 317.3 175.05 318.2 Q175.45 319.05 175.15 319.9 L174.35 321.0 173.95 321.2 172.25 321.25 171.45 320.8 171.1 320.4 171.3 320.8 171.3 320.85 Q171.7 321.65 171.4 322.5 L170.65 323.5 170.4 323.65 170.2 323.8 168.5 323.85 Q167.6 323.5 167.2 322.7 166.8 321.8 167.15 320.95 167.45 320.05 168.3 319.7 L168.7 319.55 170.05 319.6 170.35 319.75 171.1 320.4 170.95 320.1 Q170.55 319.25 170.9 318.4 171.2 317.5 172.0 317.1 L172.5 316.95 171.95 297.2 Q171.25 297.35 170.95 296.75 170.8 296.35 170.95 296.1 L169.05 295.4 171.35 289.05 173.3 289.7 173.7 289.2 Q174.3 288.9 174.75 289.5 L187.85 274.7 187.6 274.3 Q187.2 273.45 187.55 272.6 187.85 271.7 188.7 271.3 L188.85 271.25 188.9 271.2 188.85 271.2 188.0 271.2 187.7 271.1 186.65 270.3 186.4 269.9 186.25 269.5 186.25 269.4 Q186.1 268.85 186.3 268.3 L186.35 268.2 186.35 268.15 Q186.6 267.4 187.3 267.0 M192.0 271.35 Q192.3 270.45 193.1 270.05 L193.2 270.05 193.4 269.95 193.7 269.9 194.9 270.0 Q195.8 270.3 196.2 271.15 196.6 272.0 196.25 272.9 195.95 273.75 195.1 274.15 L194.55 274.35 194.5 274.35 193.7 274.35 193.35 274.25 192.3 273.45 192.1 273.05 192.0 272.9 191.9 272.6 191.85 272.2 Q191.85 271.75 192.0 271.35 M172.6 323.4 L172.9 323.55 173.5 324.05 173.7 324.3 173.85 324.6 Q174.25 325.45 173.95 326.3 173.6 327.2 172.75 327.6 L171.05 327.65 Q170.15 327.35 169.75 326.5 169.35 325.65 169.7 324.75 169.9 324.1 170.45 323.7 L170.7 323.6 170.85 323.5 171.25 323.35 172.6 323.4 M174.4 321.1 L174.65 320.95 175.05 320.8 176.4 320.85 176.7 320.95 Q177.35 321.3 177.65 322.05 178.05 322.85 177.75 323.75 177.4 324.65 176.55 325.05 L174.85 325.1 Q174.15 324.85 173.75 324.25 L173.55 324.0 173.55 323.95 Q173.15 323.05 173.5 322.2 L174.1 321.25 174.4 321.1" fill="#000000" fill-rule="evenodd" stroke="none"/>
  </g>
</svg>
