<?xml version="1.0" encoding="UTF-8" standalone="no"?>
<svg xmlns:xlink="http://www.w3.org/1999/xlink" height="108.25px" width="289.95px" xmlns="http://www.w3.org/2000/svg">
  <g transform="matrix(1.0, 0.0, 0.0, 1.0, -88.5, -261.15)">
    <path d="M174.05 304.45 Q171.9 303.65 171.75 303.2 170.75 305.35 170.3 307.6 169.2 313.25 171.75 319.3 L172.75 321.45 Q170.6 323.9 171.15 327.2 L171.3 327.55 170.1 325.85 Q169.05 326.2 168.05 329.6 L167.35 329.25 Q168.6 326.1 168.8 324.6 L168.35 323.0 168.3 322.95 Q167.0 320.7 166.65 319.45 165.65 316.0 168.55 304.7 L168.35 303.55 Q168.25 301.95 168.9 300.0 L168.9 299.9 170.05 296.8 169.5 296.7 169.5 296.45 169.6 293.2 Q169.65 291.0 169.85 288.9 L171.6 289.5 Q172.4 289.55 172.55 289.85 L173.7 286.7 173.75 286.65 173.8 286.6 Q174.8 284.05 176.5 282.85 181.55 272.3 184.5 270.3 185.6 269.55 188.05 268.65 L188.1 268.65 Q189.05 268.25 189.5 267.7 190.3 266.45 191.4 263.25 L192.15 263.4 Q190.75 266.7 191.3 267.65 L193.3 267.1 193.0 267.25 Q190.45 269.4 190.5 272.7 189.35 273.15 188.35 273.7 182.5 276.7 179.7 281.75 178.6 283.7 177.95 286.05 178.4 285.8 180.55 286.55 L180.9 286.65 181.2 286.75 180.55 286.55 Q178.3 286.0 177.25 288.4 L177.2 288.55 177.0 288.9 176.55 290.2 208.75 301.9 209.0 301.3 Q209.85 301.0 210.3 301.8 214.95 290.2 223.05 290.65 218.8 294.05 216.4 304.0 217.25 303.7 217.7 304.5 L217.6 304.8 229.35 309.1 229.45 308.75 Q230.3 308.45 230.8 309.25 L230.65 309.65 232.7 310.4 232.55 310.75 237.95 312.7 238.1 314.15 Q241.1 315.15 242.45 314.55 L242.85 315.9 Q245.8 316.85 247.2 316.3 L247.55 317.6 Q250.55 318.55 251.9 318.0 L252.3 319.35 Q255.3 320.3 256.65 319.7 L257.0 321.05 Q260.0 322.0 261.4 321.45 L261.75 322.75 Q264.75 323.75 266.1 323.15 L266.45 324.5 Q269.45 325.45 270.85 324.9 L271.2 326.2 Q274.2 327.2 275.55 326.6 L275.95 327.95 Q278.9 328.9 280.3 328.3 L280.65 329.65 Q283.65 330.6 285.0 330.05 L285.4 331.35 Q288.4 332.35 289.75 331.75 L290.1 333.1 Q293.1 334.05 294.5 333.5 L294.85 334.8 Q297.85 335.8 299.2 335.2 L299.55 336.55 Q302.55 337.5 303.95 336.95 L304.3 338.25 Q307.3 339.2 308.65 338.65 L309.05 340.0 Q312.0 340.95 313.4 340.35 L313.75 341.7 Q316.75 342.65 318.1 342.1 L318.5 343.4 Q321.45 344.4 322.85 343.8 L323.2 345.15 Q326.2 346.1 327.6 345.55 L327.95 346.85 Q330.95 347.85 332.3 347.25 L332.65 348.6 Q335.65 349.55 337.05 349.0 L337.4 350.3 Q340.4 351.25 341.75 350.7 L342.15 352.05 Q345.1 353.0 346.5 352.4 L346.85 353.75 Q349.85 354.7 351.2 354.15 L351.6 355.45 Q354.55 356.45 355.95 355.85 L356.3 357.2 Q359.3 358.15 360.7 357.6 L361.0 358.7 366.35 358.9 Q375.75 364.4 378.45 368.7 373.65 370.25 362.9 368.45 361.75 366.0 358.65 365.2 L357.7 365.8 Q357.0 364.45 354.1 363.3 L352.95 364.1 Q352.3 362.75 349.35 361.6 L348.2 362.35 Q347.55 361.0 344.65 359.85 L343.5 360.65 Q342.8 359.3 339.9 358.15 L338.75 358.95 Q338.1 357.6 335.15 356.4 L334.05 357.2 Q333.35 355.85 330.45 354.7 L329.3 355.5 Q328.65 354.15 325.7 353.0 L324.6 353.75 Q323.9 352.4 321.0 351.25 L319.85 352.05 Q319.2 350.7 316.25 349.55 L315.1 350.3 Q314.45 348.95 311.55 347.8 L310.4 348.6 Q309.7 347.25 306.8 346.1 306.3 346.6 305.65 346.9 305.0 345.55 302.05 344.4 L300.95 345.15 Q300.25 343.8 297.35 342.65 L296.2 343.45 Q295.55 342.1 292.6 340.95 L291.5 341.7 Q290.8 340.35 287.9 339.2 L286.75 340.0 Q286.1 338.65 283.15 337.5 L282.05 338.3 Q281.35 336.95 278.45 335.75 L277.3 336.55 Q276.6 335.2 273.7 334.05 L272.55 334.85 Q271.9 333.5 269.0 332.35 268.45 332.75 267.85 333.1 267.15 331.75 264.25 330.6 L263.1 331.4 Q262.45 330.05 259.5 328.9 L258.4 329.65 Q257.7 328.3 254.8 327.15 L253.65 327.95 Q253.0 326.6 250.05 325.45 L248.95 326.25 Q248.25 324.9 245.35 323.75 L244.2 324.5 Q243.5 323.15 240.6 322.0 L239.45 322.8 Q238.8 321.45 235.9 320.3 L235.85 320.3 234.8 321.3 229.45 319.35 229.3 319.7 227.25 318.95 227.1 319.35 Q226.25 319.65 225.8 318.85 L225.9 318.55 214.15 314.25 214.05 314.6 Q213.15 314.9 212.7 314.1 208.2 323.25 209.25 328.6 202.75 323.7 206.65 311.9 205.75 312.2 205.3 311.4 L205.55 310.8 173.3 299.1 172.85 300.4 172.75 300.75 172.65 300.9 Q172.0 303.4 174.05 304.45 M103.6 266.65 Q111.05 268.25 131.85 275.8 132.45 275.65 132.8 276.15 L132.4 277.25 138.9 277.5 Q142.95 278.9 144.65 280.95 L145.0 280.05 Q145.6 279.85 146.0 280.4 L145.85 280.7 146.2 280.8 145.4 287.3 143.7 286.65 143.6 286.95 Q142.95 287.1 142.6 286.6 L142.95 285.65 Q140.35 286.1 136.35 284.6 132.9 283.2 131.2 280.65 L130.8 281.7 Q130.15 281.85 129.8 281.35 109.0 273.8 102.3 270.25 101.4 270.1 100.1 269.45 L95.65 269.5 Q92.95 269.55 91.55 268.4 90.1 267.25 90.45 265.1 L88.7 264.45 Q88.4 263.9 88.55 263.35 L88.6 263.2 Q88.8 262.55 89.45 262.3 L91.2 262.95 Q92.35 261.05 94.2 261.15 96.0 261.15 98.05 262.95 L101.4 265.85 Q102.8 266.15 103.6 266.65" fill="#000000" fill-rule="evenodd" stroke="none"/>
  </g>
</svg>
