<?xml version="1.0" encoding="UTF-8" standalone="no"?>
<svg xmlns:xlink="http://www.w3.org/1999/xlink" height="95.2px" width="101.5px" xmlns="http://www.w3.org/2000/svg">
  <g transform="matrix(1.0, 0.0, 0.0, 1.0, -118.2, -271.95)">
    <path d="M120.9 271.95 Q123.55 272.3 125.9 273.75 L138.15 278.25 Q141.95 277.85 144.25 280.45 L146.2 280.95 145.15 289.55 141.6 287.75 Q137.8 288.35 135.5 285.45 L123.25 281.0 Q120.5 280.45 118.25 279.15 118.1 277.5 118.45 276.1 119.0 273.7 120.9 271.95 M169.8 289.25 L175.1 291.65 Q178.85 291.0 181.3 293.95 L190.05 297.15 Q191.2 296.85 191.75 297.75 L200.0 300.75 Q201.05 300.35 201.6 301.3 L219.7 307.9 Q219.45 310.15 218.75 312.2 217.95 314.3 216.65 316.2 209.05 344.25 195.45 358.9 189.4 364.15 182.2 366.0 L175.5 367.15 Q200.6 354.05 205.75 316.55 206.3 312.35 203.6 311.25 L203.5 311.25 198.65 309.4 Q197.6 309.7 197.1 308.8 L188.85 305.65 Q187.75 306.0 187.2 305.05 L178.45 301.75 Q174.1 302.25 172.25 299.4 L169.45 298.65 Q169.45 295.9 169.6 293.2 L169.8 289.25" fill="#000000" fill-rule="evenodd" stroke="none"/>
  </g>
</svg>
