<?xml version="1.0" encoding="UTF-8" standalone="no"?>
<svg xmlns:xlink="http://www.w3.org/1999/xlink" height="180.35px" width="282.25px" xmlns="http://www.w3.org/2000/svg">
  <g transform="matrix(1.0, 0.0, 0.0, 1.0, -39.9, -281.3)">
    <path d="M177.75 304.05 L176.8 294.5 Q165.1 291.1 154.65 291.25 139.8 291.35 126.75 294.35 121.35 295.8 115.8 297.7 103.65 301.5 91.1 301.5 L91.05 301.6 91.05 309.0 90.95 309.0 Q90.6 308.05 89.75 307.6 L87.9 307.35 Q86.9 307.5 86.35 308.3 L85.85 308.3 85.9 301.3 Q64.1 299.9 40.9 287.15 40.8 285.35 41.6 284.15 75.3 307.75 145.4 287.7 178.55 284.45 209.75 305.3 261.0 347.95 308.0 354.5 307.8 356.95 306.7 359.15 267.5 354.05 237.75 329.9 207.3 305.05 182.05 296.2 L182.85 304.45 Q182.7 303.5 182.05 302.9 181.35 302.25 180.35 302.2 179.35 302.1 178.6 302.7 178.05 303.15 177.85 303.65 L177.75 303.95 177.75 304.05 M85.9 301.3 Q85.85 300.6 86.4 299.9 86.95 299.05 87.95 298.9 88.95 298.75 89.8 299.2 90.65 299.65 91.0 300.6 L91.1 301.5 91.0 300.6 Q90.65 299.65 89.8 299.2 88.95 298.75 87.95 298.9 86.95 299.05 86.4 299.9 85.85 300.6 85.9 301.3 M176.8 294.5 L176.75 293.65 176.8 294.5 M176.75 293.65 L176.75 293.35 176.75 293.25 176.85 292.95 Q177.05 292.4 177.6 292.0 178.35 291.35 179.35 291.45 180.35 291.55 181.05 292.2 181.7 292.8 181.85 293.7 181.7 292.8 181.05 292.2 180.35 291.55 179.35 291.45 178.35 291.35 177.6 292.0 177.05 292.4 176.85 292.95 L176.75 293.25 176.75 293.35 176.75 293.65 M181.85 293.85 L181.85 294.1 181.85 293.85 181.85 293.7 181.85 293.85 M181.85 294.1 L182.05 296.2 181.85 294.1" fill="#000000" fill-opacity="0.2509804" fill-rule="evenodd" stroke="none"/>
    <path d="M320.2 360.35 Q319.75 364.6 318.75 369.3 314.3 389.75 298.95 417.55 285.45 441.1 269.4 451.8 261.6 457.0 253.15 459.15 271.4 449.1 285.65 425.35 302.65 398.75 311.1 367.45 312.25 366.6 312.75 365.45 313.55 363.2 312.05 359.75 L320.2 360.35 M314.95 370.1 Q315.1 369.4 314.8 369.2 314.5 369.0 314.15 369.55 309.6 389.75 294.5 417.1 284.3 434.9 274.5 445.45 274.3 445.8 274.5 446.15 L275.35 446.05 Q285.1 435.45 295.35 417.65 310.45 390.3 314.95 370.1" fill="url(#gradient0)" fill-rule="evenodd" stroke="none"/>
    <path d="M253.15 459.15 L246.45 460.4 245.65 460.45 242.65 460.65 242.65 460.5 247.1 458.2 248.3 457.5 Q265.35 447.25 278.8 424.8 295.85 398.25 303.5 369.35 308.75 369.15 311.1 367.45 302.65 398.75 285.65 425.35 271.4 449.1 253.15 459.15" fill="#ffffff" fill-opacity="0.2509804" fill-rule="evenodd" stroke="none"/>
    <path d="M242.65 460.65 L242.25 460.65 242.65 460.5 242.65 460.65" fill="url(#gradient1)" fill-rule="evenodd" stroke="none"/>
    <path d="M177.75 304.05 L176.8 294.5 Q165.1 291.1 154.65 291.25 139.8 291.35 126.75 294.35 121.35 295.8 115.8 297.7 103.65 301.5 91.1 301.5 M91.05 301.6 L91.05 309.0 91.05 309.45 M85.85 309.75 L85.85 309.4 85.85 308.3 85.9 301.3 Q64.1 299.9 40.9 287.15 40.8 285.35 41.6 284.15 42.35 282.9 44.05 282.3 83.5 301.7 112.45 291.25 143.85 281.85 165.3 284.45 197.7 287.75 247.25 326.4 M320.45 350.85 Q321.95 355.5 320.2 360.35 M303.5 369.35 Q308.75 369.15 311.1 367.45 312.25 366.6 312.75 365.45 313.55 363.2 312.05 359.75 L306.7 359.15 Q267.5 354.05 237.75 329.9 207.3 305.05 182.05 296.2 L182.85 304.45 M182.85 304.5 L182.85 304.55" fill="none" stroke="#000000" stroke-linecap="round" stroke-linejoin="round" stroke-width="2.0"/>
    <path d="M177.75 304.05 L177.75 303.95 177.85 303.65 Q178.05 303.15 178.6 302.7 179.35 302.1 180.35 302.2 181.35 302.25 182.05 302.9 182.7 303.5 182.85 304.45 M91.1 301.5 L91.0 300.6 Q90.65 299.65 89.8 299.2 88.95 298.75 87.95 298.9 86.95 299.05 86.4 299.9 85.85 300.6 85.9 301.3 M90.95 309.0 Q90.6 308.05 89.75 307.6 L87.9 307.35 Q86.9 307.5 86.35 308.3 85.9 308.85 85.85 309.4 M90.95 309.0 L91.05 309.45 M308.0 354.5 Q308.15 352.1 307.4 349.5 M181.85 293.7 Q181.7 292.8 181.05 292.2 180.35 291.55 179.35 291.45 178.35 291.35 177.6 292.0 177.05 292.4 176.85 292.95 L176.75 293.25 176.75 293.35 176.75 293.65 M182.05 296.2 L181.85 294.1 M312.05 359.75 L320.2 360.35 M308.0 354.5 Q307.8 356.95 306.7 359.15" fill="none" stroke="#000000" stroke-linecap="round" stroke-linejoin="round" stroke-width="1.0"/>
    <path d="M91.1 301.5 L91.05 301.6 M182.85 304.45 L182.85 304.5 M176.75 293.65 L176.8 294.5 M181.85 293.85 L181.85 293.7" fill="none" stroke="#000000" stroke-linecap="round" stroke-linejoin="round" stroke-width="0.5"/>
    <path d="M91.05 309.45 Q91.1 310.15 90.65 310.75 89.95 311.55 88.85 311.65 87.75 311.75 86.85 311.2 85.95 310.6 85.85 309.85 L85.85 309.75 M247.25 326.4 Q272.7 344.65 307.4 349.5 L320.45 350.85 M320.2 360.35 Q319.75 364.6 318.75 369.3 314.3 389.75 298.95 417.55 285.45 441.1 269.4 451.8 261.6 457.0 253.15 459.15 L246.45 460.4 245.65 460.45 242.65 460.65 242.25 460.65 242.65 460.5 247.1 458.2 248.3 457.5 Q265.35 447.25 278.8 424.8 295.85 398.25 303.5 369.35 M182.85 304.55 L182.85 305.0 Q182.75 305.7 182.1 306.2 181.25 306.8 180.15 306.6 179.05 306.4 178.4 305.65 177.7 304.8 177.75 304.05" fill="none" stroke="#000000" stroke-linecap="round" stroke-linejoin="round" stroke-width="2.0"/>
    <path d="M314.95 370.1 Q310.45 390.3 295.35 417.65 285.1 435.45 275.35 446.05 L274.5 446.15 Q274.3 445.8 274.5 445.45 284.3 434.9 294.5 417.1 309.6 389.75 314.15 369.55 314.5 369.0 314.8 369.2 315.1 369.4 314.95 370.1 M253.15 459.15 Q271.4 449.1 285.65 425.35 302.65 398.75 311.1 367.45" fill="none" stroke="#000000" stroke-linecap="round" stroke-linejoin="round" stroke-opacity="0.5019608" stroke-width="0.5"/>
    <path d="M181.85 294.1 L181.85 293.85" fill="none" stroke="#000000" stroke-linecap="round" stroke-linejoin="round" stroke-width="1.0"/>
  </g>
  <defs>
    <linearGradient gradientTransform="matrix(0.0038, 0.001, -0.0178, 0.0665, 301.85, 413.8)" gradientUnits="userSpaceOnUse" id="gradient0" spreadMethod="pad" x1="-819.2" x2="819.2">
      <stop offset="0.0" stop-color="#000000" stop-opacity="0.0"/>
      <stop offset="1.0" stop-color="#000000" stop-opacity="0.2509804"/>
    </linearGradient>
    <linearGradient gradientTransform="matrix(-0.0076, -0.0044, 0.0333, -0.0569, 280.0, 425.05)" gradientUnits="userSpaceOnUse" id="gradient1" spreadMethod="pad" x1="-819.2" x2="819.2">
      <stop offset="0.0" stop-color="#000000" stop-opacity="0.0"/>
      <stop offset="1.0" stop-color="#000000" stop-opacity="0.2509804"/>
    </linearGradient>
  </defs>
</svg>
