<?xml version="1.0" encoding="UTF-8" standalone="no"?>
<svg xmlns:xlink="http://www.w3.org/1999/xlink" height="116.4px" width="223.7px" xmlns="http://www.w3.org/2000/svg">
  <g transform="matrix(1.0, 0.0, 0.0, 1.0, -67.9, -252.25)">
    <path d="M232.5 320.3 L232.05 321.45 70.85 262.8 71.5 261.0 72.7 257.8 233.85 316.5 232.5 320.3 M252.15 290.35 Q253.2 287.35 256.25 288.0 L288.65 299.8 Q291.35 301.25 290.3 304.2 L252.15 290.35 M269.05 362.6 Q267.95 365.55 264.95 364.9 L232.55 353.1 Q229.8 351.65 230.9 348.7 L269.05 362.6 M239.15 333.4 L239.35 332.9 248.45 307.85 248.65 307.35 252.95 300.3 254.5 309.5 254.3 310.0 254.6 310.1 257.6 325.4 245.5 335.15 245.2 335.0 245.0 335.55 237.9 341.6 239.15 333.4 M260.6 312.3 L260.5 311.7 257.9 298.35 280.75 306.7 270.2 315.2 269.75 315.6 260.6 312.3 269.75 315.6 262.4 321.5 260.6 312.3 M275.7 317.8 L276.0 317.9 276.2 317.4 283.3 311.35 282.05 319.5 281.85 320.05 276.0 317.9 281.85 320.05 272.75 345.05 266.9 342.9 272.75 345.05 272.55 345.55 268.25 352.65 266.7 343.45 266.9 342.9 266.6 342.8 263.6 327.55 275.7 317.8 M248.45 307.85 L254.3 310.0 248.45 307.85 M239.35 332.9 L245.2 335.0 239.35 332.9 M260.6 340.65 L260.7 341.25 263.3 354.55 240.45 346.25 251.0 337.7 251.45 337.3 260.6 340.65 251.45 337.3 258.8 331.4 260.6 340.65" fill="#000000" fill-opacity="0.2509804" fill-rule="evenodd" stroke="none"/>
    <path d="M232.5 320.3 L232.05 321.45 70.85 262.8 71.5 261.0 68.9 260.1 71.1 254.1 73.7 255.05 74.35 253.25 235.5 311.95 235.1 313.1 238.65 314.4 242.05 305.0 252.15 290.35 Q253.2 287.35 256.25 288.0 L260.2 285.3 287.35 295.15 288.65 299.8 Q291.35 301.25 290.3 304.2 L288.6 321.9 279.15 347.95 269.05 362.6 Q267.95 365.55 264.95 364.9 L261.0 367.65 233.85 357.75 232.55 353.1 Q229.8 351.65 230.9 348.7 L232.6 331.0 236.0 321.6 232.5 320.3" fill="none" stroke="#000000" stroke-linecap="round" stroke-linejoin="round" stroke-width="2.0"/>
    <path d="M232.5 320.3 L233.85 316.5 235.1 313.1 M72.7 257.8 L71.5 261.0 M73.7 255.05 L72.7 257.8 M238.65 314.4 L236.0 321.6 M239.15 333.4 L239.35 332.9 248.45 307.85 248.65 307.35 252.95 300.3 254.5 309.5 254.6 310.1 257.6 325.4 245.5 335.15 245.0 335.55 237.9 341.6 239.15 333.4 M269.75 315.6 L270.2 315.2 280.75 306.7 257.9 298.35 260.5 311.7 260.6 312.3 262.4 321.5 269.75 315.6 M276.2 317.4 L275.7 317.8 263.6 327.55 266.6 342.8 266.7 343.45 268.25 352.65 272.55 345.55 272.75 345.05 281.85 320.05 282.05 319.5 283.3 311.35 276.2 317.4 M251.45 337.3 L251.0 337.7 240.45 346.25 263.3 354.55 260.7 341.25 260.6 340.65 258.8 331.4 251.45 337.3 M290.3 304.2 L252.15 290.35 M264.95 364.9 L232.55 353.1 M230.9 348.7 L269.05 362.6 M288.65 299.8 L256.25 288.0" fill="none" stroke="#000000" stroke-linecap="round" stroke-linejoin="round" stroke-width="1.0"/>
    <path d="M232.6 331.0 L239.15 333.4 M248.65 307.35 L242.05 305.0 M260.6 312.3 L269.75 315.6 M275.7 317.8 L276.0 317.9 281.85 320.05 M276.2 317.4 L270.2 315.2 M254.3 310.0 L254.6 310.1 M254.3 310.0 L248.45 307.85 M260.5 311.7 L254.5 309.5 M245.5 335.15 L245.2 335.0 239.35 332.9 M260.6 340.65 L251.45 337.3 M245.0 335.55 L251.0 337.7 M266.6 342.8 L266.9 342.9 272.75 345.05 M266.7 343.45 L260.7 341.25 M272.55 345.55 L279.15 347.95 M288.6 321.9 L282.05 319.5" fill="none" stroke="#000000" stroke-linecap="round" stroke-linejoin="round" stroke-opacity="0.5019608" stroke-width="0.5"/>
  </g>
</svg>
