<?xml version="1.0" encoding="UTF-8" standalone="no"?>
<svg xmlns:xlink="http://www.w3.org/1999/xlink" height="164.9px" width="139.8px" xmlns="http://www.w3.org/2000/svg">
  <g transform="matrix(1.0, 0.0, 0.0, 1.0, -64.25, -167.7)">
    <path d="M89.15 253.05 Q87.1 248.8 85.2 244.35 L75.1 216.6 76.4 216.1 Q81.2 214.25 85.8 211.9 102.05 203.45 116.25 188.15 L121.45 182.2 129.25 183.4 Q149.95 186.05 167.8 182.05 L167.9 182.0 Q172.9 180.85 177.75 179.2 L179.05 178.75 189.15 206.5 191.7 215.75 191.0 216.05 Q178.05 222.1 166.2 227.1 L166.05 227.15 158.5 230.25 151.85 232.85 151.8 232.9 147.8 234.4 129.25 183.4 147.8 234.4 151.8 232.9 151.85 232.85 158.5 230.25 166.05 227.15 166.2 227.1 Q178.05 222.1 191.0 216.05 L191.75 215.9 193.05 221.8 193.25 222.7 194.25 227.9 Q196.4 240.85 196.25 253.1 L195.9 260.9 195.85 261.5 195.05 268.5 Q191.45 293.45 177.2 315.15 L172.35 322.0 164.2 319.9 Q139.3 312.45 120.5 295.65 L115.4 290.8 114.95 290.35 109.7 284.65 Q101.7 275.35 95.05 264.0 L92.45 259.4 92.0 258.6 89.25 253.2 89.9 252.85 89.15 253.05 M116.25 188.15 L134.8 239.15 130.75 240.55 130.7 240.55 123.95 242.85 116.15 245.3 115.95 245.35 89.9 252.85 115.95 245.35 116.15 245.3 123.95 242.85 130.7 240.55 130.75 240.55 134.8 239.15 116.25 188.15 M151.95 245.85 L152.0 245.8 151.95 245.8 151.95 245.85 177.2 315.15 151.95 245.85 M95.05 264.0 Q108.4 260.45 120.3 256.75 L121.05 256.5 128.35 254.15 134.85 252.0 134.9 251.95 138.9 250.55 134.9 251.95 134.85 252.0 128.35 254.15 121.05 256.5 120.3 256.75 Q108.4 260.45 95.05 264.0 M194.25 227.9 Q181.7 233.75 170.2 238.6 L169.5 238.85 162.4 241.75 156.05 244.3 156.0 244.3 155.95 244.3 152.0 245.8 155.95 244.3 156.0 244.3 156.05 244.3 162.4 241.75 169.5 238.85 170.2 238.6 Q181.7 233.75 194.25 227.9 M164.2 319.9 L138.95 250.55 138.9 250.55 138.95 250.55 164.2 319.9" fill="url(#gradient0)" fill-rule="evenodd" stroke="none"/>
    <path d="M173.35 171.8 Q151.45 177.3 125.75 173.85 L117.95 172.6 112.75 178.6 Q95.25 197.75 74.95 207.6 70.15 209.9 65.25 211.75 L76.75 243.3 Q79.25 249.25 82.1 254.85 L85.0 260.4 88.05 265.85 Q96.05 279.5 105.8 290.5 L111.1 296.1 116.65 301.4 Q138.55 321.05 167.7 329.5 L175.8 331.6 180.7 324.75 Q197.6 299.55 201.75 270.45 L202.6 262.85 203.0 255.1 Q203.4 240.4 200.75 224.8 L199.65 218.7 198.3 212.6 194.95 200.25 183.45 168.7 Q178.5 170.5 173.35 171.8" fill="none" stroke="#000000" stroke-linecap="round" stroke-linejoin="round" stroke-width="2.0"/>
    <path d="M89.15 253.05 Q87.1 248.8 85.2 244.35 L75.1 216.6 76.4 216.1 Q81.2 214.25 85.8 211.9 102.05 203.45 116.25 188.15 L121.45 182.2 129.25 183.4 Q149.95 186.05 167.8 182.05 L167.9 182.0 Q172.9 180.85 177.75 179.2 L179.05 178.75 189.15 206.5 191.7 215.75 191.75 215.9 193.05 221.8 193.25 222.7 194.25 227.9 Q196.4 240.85 196.25 253.1 L195.9 260.9 195.85 261.5 195.05 268.5 Q191.45 293.45 177.2 315.15 L172.35 322.0 164.2 319.9 Q139.3 312.45 120.5 295.65 L115.4 290.8 114.95 290.35 109.7 284.65 Q101.7 275.35 95.05 264.0 L92.45 259.4 92.0 258.6 89.25 253.2 89.15 253.05 89.9 252.85 115.95 245.35 116.15 245.3 123.95 242.85 130.7 240.55 130.75 240.55 134.8 239.15 116.25 188.15 M191.0 216.05 Q178.05 222.1 166.2 227.1 L166.05 227.15 158.5 230.25 151.85 232.85 151.8 232.9 147.8 234.4 129.25 183.4 M151.95 245.85 L152.0 245.8 151.95 245.8 151.95 245.85 177.2 315.15 M152.0 245.8 L155.95 244.3 156.0 244.3 156.05 244.3 162.4 241.75 169.5 238.85 170.2 238.6 Q181.7 233.75 194.25 227.9 M138.9 250.55 L134.9 251.95 134.85 252.0 128.35 254.15 121.05 256.5 120.3 256.75 Q108.4 260.45 95.05 264.0 M191.7 215.75 L191.0 216.05" fill="none" stroke="#000000" stroke-linecap="round" stroke-linejoin="round" stroke-opacity="0.5019608" stroke-width="0.5"/>
    <path d="M138.9 250.55 L138.95 250.55 164.2 319.9" fill="none" stroke="#000000" stroke-linecap="round" stroke-linejoin="round" stroke-opacity="0.5019608" stroke-width="0.5"/>
  </g>
  <defs>
    <radialGradient cx="0" cy="0" gradientTransform="matrix(0.1473, 0.0, 0.0, 0.1473, 108.75, 219.7)" gradientUnits="userSpaceOnUse" id="gradient0" r="819.2" spreadMethod="pad">
      <stop offset="0.0" stop-color="#000000" stop-opacity="0.0"/>
      <stop offset="1.0" stop-color="#000000" stop-opacity="0.2509804"/>
    </radialGradient>
  </defs>
</svg>
