<?xml version="1.0" encoding="UTF-8" standalone="no"?>
<svg xmlns:xlink="http://www.w3.org/1999/xlink" height="261.35px" width="134.65px" xmlns="http://www.w3.org/2000/svg">
  <g transform="matrix(1.0, 0.0, 0.0, 1.0, -74.35, -132.8)">
    <path d="M164.9 167.55 Q158.3 156.95 150.35 150.8 134.2 138.35 112.35 143.9 L109.3 145.0 Q89.0 154.85 84.65 174.7 82.5 184.55 84.3 196.9 87.1 208.25 93.85 220.5 L96.0 224.35 191.2 371.45 Q192.4 373.15 193.9 372.6 195.35 372.05 195.2 370.0 L173.55 196.1 172.8 191.8 Q170.05 178.05 164.9 167.55 M109.5 134.85 Q149.2 124.8 173.3 163.6 180.45 178.25 183.75 198.25 L208.95 378.25 Q209.6 390.5 201.5 393.5 193.35 396.4 185.95 386.6 L89.55 232.55 Q79.25 215.1 75.3 199.25 68.8 154.05 105.7 136.2 L109.5 134.85 M110.65 192.2 Q114.75 183.45 123.85 180.15 L123.85 180.2 Q132.9 176.85 141.7 180.95 L144.35 182.4 Q150.95 186.5 153.75 194.1 155.25 198.35 155.2 202.5 L155.2 202.55 Q155.1 207.25 152.95 211.9 151.35 215.3 149.05 217.9 145.35 221.95 139.8 224.0 134.25 226.0 128.8 225.25 125.35 224.8 121.95 223.2 117.3 221.05 114.2 217.4 L114.15 217.45 Q111.4 214.25 109.9 210.05 107.1 202.4 109.5 195.05 L110.65 192.2 M134.9 210.45 L134.9 210.4 134.85 210.4 134.85 210.45 135.5 212.15 134.9 210.45" fill="#000000" fill-rule="evenodd" stroke="none"/>
  </g>
</svg>
