<?xml version="1.0" encoding="UTF-8" standalone="no"?>
<svg xmlns:xlink="http://www.w3.org/1999/xlink" height="28.45px" width="69.05px" xmlns="http://www.w3.org/2000/svg">
  <g transform="matrix(1.0, 0.0, 0.0, 1.0, -167.3, -437.9)">
    <path d="M218.3 440.15 Q220.45 440.4 222.05 442.5 L224.35 442.65 227.15 444.1 Q228.0 444.6 228.7 445.25 L229.3 445.85 230.2 446.8 231.05 447.75 Q231.0 448.95 229.95 450.7 M233.2 448.85 Q233.95 447.3 232.25 445.05 L231.8 447.65 230.1 446.15 230.95 444.5 228.7 443.55 Q226.25 441.05 223.35 441.45 M222.05 442.5 L219.8 442.35 M230.95 444.5 L232.25 445.05 M233.1 443.2 L233.2 443.45 233.05 443.35 229.3 442.1 228.3 440.5 M234.25 443.9 L234.0 445.8 232.85 444.6 233.05 443.35 233.1 443.2 M170.6 450.95 L170.9 450.8 172.0 450.4 172.65 448.85 M185.1 452.95 Q186.05 451.6 188.8 453.2 M184.8 463.95 L184.55 463.55 184.35 462.75 180.5 462.5 181.1 460.0 Q182.4 459.45 183.65 460.2 L184.2 461.3 184.45 459.8 Q185.25 458.25 184.7 455.75 183.9 452.9 184.7 450.95 M190.9 461.75 Q188.0 460.95 185.0 461.8 L185.45 459.35 Q187.7 458.35 190.2 459.4 L190.9 461.75 M184.35 462.75 L184.2 461.3 M175.15 462.5 L175.15 461.9 175.45 457.05 Q175.5 454.6 176.65 454.15 177.55 453.5 177.95 451.1 M176.65 454.15 L177.0 454.05 179.05 454.35 M173.95 450.55 Q173.7 452.4 172.25 453.05 172.95 453.2 174.25 454.0 M180.4 463.65 Q180.05 462.75 179.95 461.35 L180.15 454.5 Q180.25 453.8 180.7 453.25 L180.75 453.2 180.9 453.2 180.95 453.2 181.0 453.2 Q181.85 452.0 181.55 449.9 M170.95 460.35 Q173.05 460.6 174.65 461.75 L174.2 460.0 Q172.95 458.65 171.6 458.85 L170.95 460.35 M172.25 453.05 Q171.45 452.85 171.35 453.45 L170.75 458.55 170.65 459.8 170.6 460.0 Q170.55 461.15 170.8 461.95 M170.6 460.0 Q169.85 459.2 168.6 459.2 L169.2 457.9 Q170.3 457.75 170.75 458.55 M178.8 460.35 Q177.65 459.8 176.25 459.9 L175.5 461.95 Q177.45 461.7 179.45 462.7 L178.8 460.35 M181.0 453.2 Q181.5 452.55 182.6 452.25 M230.2 446.8 L228.0 448.95 226.65 446.85 228.7 445.25" fill="none" stroke="#000000" stroke-linecap="round" stroke-linejoin="round" stroke-width="1.0"/>
    <path d="M229.95 450.7 Q231.4 451.0 232.65 449.75 L233.2 448.85 Q235.15 449.2 235.3 447.0 235.55 444.75 234.25 443.9 L233.95 443.65 233.2 443.45 M222.3 438.9 L226.55 439.5 Q227.6 439.8 228.3 440.5 L231.8 441.1 233.1 443.2 M190.7 447.35 L191.8 451.1 Q193.4 454.75 191.55 456.6 L191.35 456.75 Q190.8 457.8 191.5 458.95 192.75 461.05 192.15 462.2 L191.1 464.15 Q190.35 465.45 188.9 465.2 L186.55 465.15 Q185.5 465.05 184.8 463.95 184.7 465.55 183.05 465.35 L182.0 465.2 Q180.9 464.9 180.4 463.65 180.4 465.5 178.2 465.15 L176.35 464.55 Q175.3 464.25 175.15 462.5 174.85 464.0 173.4 463.65 L171.9 463.0 Q171.15 462.7 170.8 461.95 167.9 461.3 168.35 458.6 L169.0 453.0 Q168.9 451.5 170.6 450.95 M229.95 450.7 Q227.55 454.65 223.5 450.45 L217.6 447.65 Q213.85 449.0 211.25 446.1" fill="none" stroke="#000000" stroke-linecap="round" stroke-linejoin="round" stroke-width="2.0"/>
  </g>
</svg>
