<?xml version="1.0" encoding="UTF-8" standalone="no"?>
<svg xmlns:xlink="http://www.w3.org/1999/xlink" height="35.8px" width="52.8px" xmlns="http://www.w3.org/2000/svg">
  <g transform="matrix(1.0, 0.0, 0.0, 1.0, -205.55, -146.2)">
    <path d="M248.6 155.65 Q252.6 158.85 254.25 162.8 L240.3 162.8 240.75 163.8 240.3 162.8 254.25 162.8 Q252.6 158.85 248.6 155.65 L251.8 155.9 Q255.85 159.55 257.25 164.1 L257.65 165.85 255.05 165.4 240.75 163.8 Q233.75 163.4 226.85 163.65 L226.45 162.8 208.85 162.8 Q208.1 158.95 210.05 155.85 208.1 158.95 208.85 162.8 L226.45 162.8 226.85 163.65 Q218.2 163.95 209.6 165.3 L207.2 165.7 206.65 164.1 Q205.3 159.7 207.0 156.05 L210.05 155.85 Q229.65 154.45 248.6 155.65 M254.25 162.8 L254.7 164.1 255.05 165.4 254.7 164.1 254.25 162.8 M208.85 162.8 L209.2 164.1 209.6 165.3 209.2 164.1 208.85 162.8" fill="#ffffff" fill-opacity="0.2509804" fill-rule="evenodd" stroke="none"/>
    <path d="M240.75 163.8 L240.3 162.8 254.25 162.8 Q252.6 158.85 248.6 155.65 246.85 154.25 244.65 153.05 L243.8 152.55 213.05 152.55 Q214.85 151.15 217.1 150.2 221.3 148.45 227.15 148.45 L230.75 148.6 Q237.65 149.25 243.8 152.55 M210.05 155.85 Q208.1 158.95 208.85 162.8 L226.45 162.8 226.85 163.65 Q230.05 170.55 231.45 179.4 L236.7 179.75 Q241.15 179.75 244.7 178.75 243.65 170.7 240.75 163.8 M255.05 165.4 L254.7 164.1 254.25 162.8 M210.05 155.85 Q210.95 154.35 212.5 153.05 L213.05 152.55 M251.8 155.9 Q249.4 153.7 246.1 151.8 237.1 146.7 226.65 146.7 220.05 146.7 215.35 148.7 212.5 149.9 210.3 151.8 208.05 153.75 207.0 156.05 205.3 159.7 206.65 164.1 L207.2 165.7 Q209.85 171.85 217.8 176.4 224.35 180.1 231.7 181.15 L237.25 181.5 244.9 180.7 Q250.05 179.45 253.6 176.4 258.7 171.9 257.65 165.85 L257.25 164.1 Q255.85 159.55 251.8 155.9 M209.6 165.3 L209.2 164.1 208.85 162.8 M231.45 179.4 Q225.0 178.45 219.25 175.15 211.9 171.0 209.6 165.3 M244.7 178.75 Q248.6 177.6 251.4 175.15 256.15 171.05 255.05 165.4" fill="none" stroke="#000000" stroke-linecap="round" stroke-linejoin="round" stroke-width="1.0"/>
  </g>
</svg>
