<?xml version="1.0" encoding="UTF-8" standalone="no"?>
<svg xmlns:xlink="http://www.w3.org/1999/xlink" height="30.65px" width="34.9px" xmlns="http://www.w3.org/2000/svg">
  <g transform="matrix(1.0, 0.0, 0.0, 1.0, -217.2, -152.3)">
    <path d="M234.6 159.05 Q233.6 158.4 232.05 158.4 230.45 158.4 229.6 159.1 228.75 159.8 228.75 162.1 L217.7 160.7 Q218.2 156.7 221.4 154.75 224.65 152.8 231.15 152.8 238.65 152.8 242.5 154.95 246.35 157.1 247.0 160.35 247.4 162.25 246.3 163.8 245.2 165.35 242.85 166.05 244.75 166.25 246.05 166.8 248.25 167.7 249.65 169.2 251.05 170.7 251.45 172.7 251.95 175.25 250.6 177.6 249.3 179.95 246.25 181.15 243.15 182.45 237.8 182.45 232.6 182.45 229.4 181.5 226.2 180.6 223.8 178.8 221.5 177.0 219.8 173.85 L230.9 172.8 Q232.05 175.35 233.4 176.15 234.7 176.95 236.45 176.95 238.3 176.95 239.35 175.9 240.4 174.9 240.05 173.15 239.65 171.35 238.25 170.4 236.9 169.45 234.85 169.45 L231.1 169.9 230.35 163.6 232.2 163.7 Q234.0 163.7 235.05 162.85 236.05 161.95 235.85 160.8 235.6 159.7 234.6 159.05 Z" fill="none" stroke="#000000" stroke-linecap="round" stroke-linejoin="round" stroke-width="1.0"/>
  </g>
</svg>
