<?xml version="1.0" encoding="UTF-8" standalone="no"?>
<svg xmlns:xlink="http://www.w3.org/1999/xlink" height="62.9px" width="62.95px" xmlns="http://www.w3.org/2000/svg">
  <g transform="matrix(1.0, 0.0, 0.0, 1.0, -222.75, -255.4)">
    <path d="M231.1 308.2 L231.75 307.3 234.85 301.45 237.8 295.0 Q239.8 290.25 241.35 285.35 240.4 288.95 240.15 292.6 239.8 295.0 241.15 296.2 242.05 297.0 243.75 297.3 244.35 299.05 245.55 299.7 246.85 300.4 249.0 299.7 249.6 301.8 250.95 302.6 252.7 303.6 255.75 302.2 256.45 303.6 258.55 303.95 262.1 304.25 262.75 300.75 L262.65 297.25 265.1 297.25 Q266.25 290.05 269.8 285.5 L257.9 273.75 259.55 267.95 261.15 262.4 Q261.9 259.85 263.15 256.6 270.6 258.7 276.45 264.55 285.7 273.8 285.7 286.85 285.7 299.85 276.45 309.05 267.25 318.3 254.2 318.3 241.15 318.3 231.95 309.05 L231.1 308.2 M244.7 271.85 L245.65 274.05 Q243.75 277.7 242.5 281.45 L244.65 271.85 244.7 271.85" fill="#010101" fill-opacity="0.0" fill-rule="evenodd" stroke="none"/>
    <path d="M263.15 256.6 Q261.9 259.85 261.15 262.4 L259.55 267.95 257.9 273.75 269.8 285.5 Q266.25 290.05 265.1 297.25 L262.65 297.25 262.75 300.75 Q262.1 304.25 258.55 303.95 256.45 303.6 255.75 302.2 252.7 303.6 250.95 302.6 249.6 301.8 249.0 299.7 246.85 300.4 245.55 299.7 244.35 299.05 243.75 297.3 242.05 297.0 241.15 296.2 239.8 295.0 240.15 292.6 240.4 288.95 241.35 285.35 239.8 290.25 237.8 295.0 L234.85 301.45 231.75 307.3 231.1 308.2 Q222.75 299.3 222.75 286.85 222.75 276.05 229.05 267.85 L231.95 264.55 Q238.25 258.25 246.4 256.3 250.1 255.35 254.2 255.4 258.9 255.35 263.15 256.6 M244.7 271.85 L244.65 271.85 242.5 281.45 Q243.75 277.7 245.65 274.05 L244.7 271.85" fill="#000000" fill-opacity="0.2509804" fill-rule="evenodd" stroke="none"/>
    <path d="M276.45 264.55 Q285.7 273.8 285.7 286.85 285.7 299.85 276.45 309.05 267.25 318.3 254.2 318.3 241.15 318.3 231.95 309.05 222.75 299.85 222.75 286.85 222.75 273.8 231.95 264.55 241.15 255.35 254.2 255.4 267.25 255.35 276.45 264.55" fill="url(#gradient0)" fill-rule="evenodd" stroke="none"/>
  </g>
  <defs>
    <radialGradient cx="0" cy="0" gradientTransform="matrix(0.0395, 0.0, 0.0, 0.0395, 254.75, 286.8)" gradientUnits="userSpaceOnUse" id="gradient0" r="819.2" spreadMethod="pad">
      <stop offset="0.0" stop-color="#000000" stop-opacity="0.0"/>
      <stop offset="1.0" stop-color="#000000" stop-opacity="0.2"/>
    </radialGradient>
  </defs>
</svg>
