<?xml version="1.0" encoding="UTF-8" standalone="no"?>
<svg xmlns:xlink="http://www.w3.org/1999/xlink" height="197.1px" width="41.5px" xmlns="http://www.w3.org/2000/svg">
  <g transform="matrix(1.0, 0.0, 0.0, 1.0, -379.15, -311.25)">
    <path d="M389.05 311.25 L391.9 311.75 399.9 312.3 407.9 311.75 410.75 311.25 410.8 311.7 Q414.45 324.25 414.75 336.8 419.55 386.75 416.85 436.65 L420.65 508.35 Q419.45 508.2 418.15 507.65 418.2 503.95 416.25 489.6 414.4 475.15 405.0 445.65 406.0 435.2 408.8 425.55 L403.0 350.4 396.8 350.4 391.0 425.55 Q393.8 435.2 394.8 445.65 385.4 475.15 383.55 489.6 381.6 503.95 381.65 507.65 L379.15 508.35 382.95 436.65 Q380.25 386.75 385.05 336.8 385.35 324.25 389.0 311.7 L389.05 311.25" fill="#000000" fill-rule="evenodd" stroke="none"/>
  </g>
</svg>
