<?xml version="1.0" encoding="UTF-8" standalone="no"?>
<svg xmlns:xlink="http://www.w3.org/1999/xlink" height="27.0px" width="30.1px" xmlns="http://www.w3.org/2000/svg">
  <g transform="matrix(1.0, 0.0, 0.0, 1.0, -385.45, -238.75)">
    <path d="M415.55 257.95 Q415.55 260.05 414.35 261.8 413.2 263.5 411.05 264.5 409.75 265.15 407.2 265.4 L402.8 265.75 385.45 265.75 385.45 238.75 404.2 238.75 Q408.95 238.75 411.5 240.75 414.1 242.7 414.1 245.65 414.1 248.1 412.25 249.9 411.0 251.05 408.95 251.3 412.2 251.75 413.85 253.5 415.55 255.3 415.55 257.95 M400.05 244.8 L396.2 244.8 396.2 249.0 400.0 249.0 Q402.1 249.0 402.9 248.5 403.65 247.9 403.65 246.85 403.65 245.85 402.9 245.35 402.1 244.8 400.05 244.8 M400.75 259.35 Q403.1 259.35 404.0 258.75 404.9 258.1 404.9 257.05 404.9 256.05 404.0 255.4 403.1 254.85 400.7 254.85 L396.2 254.85 396.2 259.35 400.75 259.35" fill="#000000" fill-rule="evenodd" stroke="none"/>
  </g>
</svg>
