<?xml version="1.0" encoding="UTF-8" standalone="no"?>
<svg xmlns:xlink="http://www.w3.org/1999/xlink" height="14.65px" width="6.6px" xmlns="http://www.w3.org/2000/svg">
  <g transform="matrix(1.0, 0.0, 0.0, 1.0, -395.95, -264.45)">
    <path d="M399.3 271.05 Q397.9 271.05 396.9 270.1 395.95 269.15 395.95 267.8 395.95 266.4 396.9 265.4 397.9 264.45 399.3 264.45 400.65 264.45 401.6 265.4 402.55 266.4 402.55 267.8 402.55 269.15 401.6 270.1 400.65 271.05 399.3 271.05 M397.95 278.2 Q397.55 277.35 397.55 276.1 397.55 274.9 397.95 274.0 398.4 273.15 399.05 273.15 399.65 273.15 400.1 274.0 400.55 274.9 400.55 276.1 400.55 277.35 400.1 278.2 399.65 279.1 399.05 279.1 398.4 279.1 397.95 278.2" fill="#000000" fill-rule="evenodd" stroke="none"/>
  </g>
</svg>
