<?xml version="1.0" encoding="UTF-8" standalone="no"?>
<svg xmlns:xlink="http://www.w3.org/1999/xlink" height="37.65px" width="39.75px" xmlns="http://www.w3.org/2000/svg">
  <g transform="matrix(1.0, 0.0, 0.0, 1.0, -377.4, -236.5)">
    <path d="M413.8 240.75 Q413.8 240.1 412.6 238.65 411.25 237.0 410.1 237.0 409.6 237.0 409.2 237.4 407.9 238.65 400.1 252.05 L392.25 265.65 Q391.75 266.7 391.75 267.5 391.75 268.95 393.2 269.7 394.35 270.25 395.8 270.25 L396.75 270.15 405.6 268.45 Q413.4 266.85 413.85 265.85 L415.5 262.7 Q416.65 260.45 416.65 259.7 L416.55 259.35 Q415.85 258.45 413.15 258.45 L410.45 258.85 410.05 260.45 Q409.25 262.15 407.55 262.25 L404.55 262.6 402.65 262.9 Q402.0 262.9 402.0 262.35 402.0 261.9 402.35 261.15 412.8 240.5 413.7 240.85 L413.8 240.75 M377.9 273.65 L391.2 270.95 Q389.0 266.15 393.7 260.05 L377.9 273.65" fill="none" stroke="#000000" stroke-linecap="round" stroke-linejoin="round" stroke-opacity="0.5019608" stroke-width="1.0"/>
  </g>
</svg>
