<?xml version="1.0" encoding="UTF-8" standalone="no"?>
<svg xmlns:xlink="http://www.w3.org/1999/xlink" height="53.8px" width="59.6px" xmlns="http://www.w3.org/2000/svg">
  <g transform="matrix(1.0, 0.0, 0.0, 1.0, -370.05, -132.65)">
    <path d="M375.95 132.75 Q377.0 133.05 378.05 133.6 L380.15 134.65 381.8 135.45 384.0 136.65 385.25 137.55 385.8 138.25 385.3 138.55 374.05 150.0 373.9 150.0 373.65 149.95 Q372.55 149.65 371.85 148.85 371.0 147.85 370.6 146.65 370.2 145.4 370.1 144.1 370.0 142.8 370.3 141.55 L371.15 139.2 371.85 137.0 372.05 136.15 372.1 135.5 372.1 135.4 372.1 135.15 371.9 134.3 371.55 133.75 370.25 133.0 373.35 132.65 375.6 132.75 375.95 132.75 M385.9 154.5 L385.2 154.5 386.0 155.4 386.1 155.5 386.3 155.7 387.7 157.05 Q390.95 159.8 393.15 158.2 L393.45 157.9 393.65 157.75 393.95 157.5 393.65 157.4 390.65 156.0 Q387.35 154.5 385.9 154.5 M390.95 141.9 Q392.05 141.4 393.15 141.45 394.35 141.45 395.35 141.95 L397.25 143.25 398.75 144.85 399.85 146.05 399.95 146.15 401.0 144.85 402.5 143.25 404.4 141.95 Q405.4 141.45 406.6 141.45 407.7 141.4 408.8 141.9 L410.85 142.95 412.05 143.75 413.1 144.7 414.1 145.75 414.95 146.9 415.65 148.1 416.65 150.55 416.95 151.3 417.55 152.5 418.9 154.7 420.3 156.65 421.45 158.1 422.7 159.7 423.25 160.15 424.6 161.9 Q426.25 164.2 426.65 166.95 L426.75 168.05 424.65 166.15 424.85 167.4 425.2 170.5 Q425.3 172.95 425.05 175.2 L422.7 172.45 Q422.05 171.85 421.4 171.75 L421.35 171.9 421.1 173.65 420.9 174.15 420.45 173.8 418.7 172.6 Q417.8 171.95 416.65 171.75 L416.6 171.8 417.35 173.55 416.15 173.3 416.0 173.25 414.85 173.05 413.75 173.2 Q412.55 173.55 411.45 174.25 L411.4 174.3 411.45 174.5 411.35 175.5 411.0 176.65 410.95 177.1 411.4 178.75 Q412.25 183.4 408.25 185.1 405.9 186.15 401.9 186.15 L399.9 186.45 397.85 186.15 Q393.85 186.15 391.5 185.1 387.5 183.4 388.4 178.75 L388.8 177.1 388.75 176.65 388.45 175.5 388.3 174.5 388.4 174.3 388.4 174.25 388.35 174.3 388.25 174.25 Q387.2 173.55 386.0 173.2 L384.9 173.05 383.75 173.25 382.4 173.55 383.15 171.8 383.1 171.75 381.8 172.15 381.05 172.6 379.3 173.8 378.8 174.15 378.65 173.65 378.35 171.9 378.35 171.75 Q377.7 171.85 377.0 172.45 375.65 173.7 374.7 175.2 374.45 172.95 374.55 170.5 374.55 168.9 374.9 167.4 L375.1 166.15 372.95 168.05 373.1 166.95 Q373.5 164.2 375.15 161.9 L376.5 160.15 377.05 159.7 378.3 158.1 379.45 156.65 380.85 154.7 382.2 152.5 382.8 151.3 383.1 150.55 384.1 148.1 384.8 146.9 385.65 145.75 386.65 144.7 387.7 143.75 388.9 142.95 Q389.85 142.35 390.95 141.9 M393.65 172.05 Q394.35 173.3 395.35 173.15 L395.4 173.1 395.45 173.0 Q396.65 173.45 397.65 174.55 L397.7 174.55 397.75 174.6 397.85 174.8 Q398.3 175.5 399.4 176.0 L399.65 176.0 399.65 177.8 399.7 177.8 399.7 176.0 400.05 176.0 400.05 177.8 400.1 177.8 400.1 176.0 400.4 176.0 Q401.45 175.5 401.9 174.8 L402.0 174.6 402.05 174.55 402.1 174.55 Q403.1 173.45 404.35 173.0 L404.35 173.1 404.4 173.15 Q405.4 173.3 406.1 172.05 L406.25 171.3 Q406.1 170.7 404.7 170.65 L403.0 170.8 402.85 170.85 402.0 171.15 401.55 171.35 400.25 171.6 399.5 171.6 398.2 171.35 397.8 171.15 396.9 170.85 396.75 170.8 395.05 170.65 Q393.65 170.7 393.45 171.3 L393.65 172.05 M419.55 134.65 L421.7 133.6 Q422.75 133.05 423.8 132.75 L424.15 132.75 424.2 132.75 426.4 132.65 429.5 133.0 428.2 133.75 Q427.95 133.95 427.85 134.3 L427.65 135.15 427.65 135.4 427.65 135.5 427.7 136.15 427.9 137.0 428.6 139.2 429.45 141.55 Q429.75 142.8 429.65 144.1 L429.15 146.65 Q428.75 147.85 427.9 148.85 427.2 149.65 426.1 149.95 L425.85 150.0 425.7 150.0 424.5 148.8 424.25 148.5 414.45 138.55 413.95 138.25 414.5 137.55 415.75 136.65 417.95 135.45 419.55 134.65 M414.55 154.5 L413.9 154.5 Q412.4 154.5 409.1 156.0 L406.1 157.4 405.8 157.5 406.1 157.75 406.3 157.9 406.65 158.2 Q408.8 159.8 412.1 157.05 L413.45 155.7 413.65 155.5 413.75 155.4 414.55 154.5" fill="#000000" fill-rule="evenodd" stroke="none"/>
  </g>
</svg>
