<?xml version="1.0" encoding="UTF-8" standalone="no"?>
<svg xmlns:xlink="http://www.w3.org/1999/xlink" height="5.35px" width="28.1px" xmlns="http://www.w3.org/2000/svg">
  <g transform="matrix(1.0, 0.0, 0.0, 1.0, -386.25, -160.5)">
    <path d="M392.85 165.1 Q392.35 165.85 390.15 165.4 387.95 164.95 387.1 164.3 386.25 163.7 386.25 162.8 386.25 161.9 386.85 161.2 387.45 160.55 388.55 160.5 389.6 160.55 390.9 161.25 392.25 162.0 392.85 163.15 393.4 164.3 392.85 165.1 M407.65 165.35 Q407.15 164.55 407.8 163.4 408.35 162.25 409.7 161.6 411.1 160.9 412.2 160.95 413.25 161.0 413.8 161.65 414.35 162.35 414.35 163.25 414.35 164.15 413.45 164.75 412.55 165.4 410.4 165.75 408.2 166.1 407.65 165.35" fill="#000000" fill-rule="evenodd" stroke="none"/>
  </g>
</svg>
