<?xml version="1.0" encoding="UTF-8" standalone="no"?>
<svg xmlns:xlink="http://www.w3.org/1999/xlink" height="6.5px" width="35.2px" xmlns="http://www.w3.org/2000/svg">
  <g transform="matrix(1.0, 0.0, 0.0, 1.0, -382.3, -145.9)">
    <path d="M383.85 145.9 L384.45 146.55 385.05 147.15 385.65 147.75 386.2 148.4 386.75 149.05 387.35 149.7 387.9 150.4 388.45 151.0 388.45 151.05 388.4 151.1 388.15 151.3 387.65 151.75 386.9 152.2 386.7 152.25 386.25 152.4 385.65 152.3 384.9 152.0 384.25 151.7 383.65 151.3 383.1 150.75 382.9 150.4 382.55 149.8 382.35 149.25 Q382.2 148.5 382.45 147.8 L382.75 147.2 383.15 146.65 383.45 146.35 383.85 145.9 M414.15 147.75 L414.75 147.15 415.35 146.55 415.95 145.9 416.35 146.35 416.4 146.35 416.65 146.65 417.05 147.2 417.35 147.8 Q417.6 148.5 417.45 149.25 L417.25 149.8 416.9 150.4 416.7 150.75 416.15 151.3 415.55 151.7 414.9 152.0 414.15 152.3 413.55 152.4 412.75 152.1 412.15 151.75 411.65 151.3 411.4 151.1 411.35 151.05 411.4 151.0 411.9 150.4 412.45 149.7 413.05 149.05 413.6 148.4 414.15 147.75" fill="#000000" fill-rule="evenodd" stroke="none"/>
  </g>
</svg>
