<?xml version="1.0" encoding="UTF-8" standalone="no"?>
<svg xmlns:xlink="http://www.w3.org/1999/xlink" height="57.0px" width="74.9px" xmlns="http://www.w3.org/2000/svg">
  <g transform="matrix(1.0, 0.0, 0.0, 1.0, -362.35, -111.3)">
    <path d="M379.7 112.6 L379.95 111.5 380.0 111.3 383.1 117.5 388.3 125.15 385.95 125.35 Q384.3 125.55 382.9 126.1 380.45 127.05 378.65 129.15 L378.4 124.95 Q378.1 120.0 379.1 115.15 L379.7 112.6 M373.35 134.3 Q371.85 135.25 370.75 136.55 L370.7 136.6 Q370.15 137.3 369.85 138.1 369.55 138.8 369.4 139.6 367.75 136.85 366.45 134.0 365.65 132.15 365.4 130.1 L365.2 126.6 365.2 126.2 369.75 130.15 374.2 133.8 373.35 134.3 M367.7 147.25 L367.1 149.5 365.3 147.5 Q364.3 146.15 363.6 144.65 L362.4 141.75 362.35 141.55 362.6 141.7 365.05 142.7 369.15 144.25 368.65 145.1 367.75 147.15 367.7 147.25 M388.2 128.5 L388.3 128.25 388.55 127.4 388.6 127.5 Q390.8 138.15 394.45 146.35 L394.2 146.7 393.9 146.95 393.6 147.2 Q392.3 148.0 390.85 148.45 L389.95 148.7 389.25 148.85 386.75 149.0 386.2 149.0 386.0 148.95 385.9 148.95 385.1 148.85 Q384.95 138.7 388.2 128.55 L388.2 128.5 M398.85 160.1 L399.0 159.6 399.05 159.55 399.7 156.2 400.6 159.55 400.6 159.6 400.75 160.1 401.65 162.8 401.7 162.9 401.7 162.95 401.75 163.0 402.7 165.1 403.1 165.9 402.85 166.25 402.7 166.45 Q401.55 167.85 399.8 168.3 398.05 167.85 396.9 166.45 L396.8 166.25 396.5 165.9 396.95 165.1 397.9 163.0 397.9 162.95 397.95 162.9 397.95 162.8 398.85 160.1 M364.5 151.5 L364.75 151.55 367.55 151.85 Q369.0 152.5 369.8 153.4 370.85 154.55 370.8 156.15 L370.65 157.1 370.15 158.6 369.85 159.2 368.9 158.55 Q365.25 155.95 364.5 151.6 L364.5 151.5 M420.5 115.15 Q421.55 120.0 421.2 124.95 L421.0 129.15 Q419.15 127.05 416.7 126.1 415.3 125.55 413.65 125.35 L411.3 125.15 416.5 117.5 419.6 111.3 419.65 111.5 419.9 112.6 420.5 115.15 M431.9 147.25 L431.9 147.15 430.95 145.1 430.45 144.25 434.55 142.7 437.0 141.7 437.25 141.55 437.2 141.75 436.0 144.65 434.3 147.5 432.5 149.5 431.9 147.25 M426.25 134.3 L425.45 133.8 429.9 130.15 434.4 126.2 434.4 126.6 434.2 130.1 Q433.95 132.15 433.15 134.0 L430.2 139.6 429.75 138.1 428.9 136.6 428.85 136.55 Q427.75 135.25 426.25 134.3 M411.0 127.5 L411.05 127.4 411.35 128.25 411.4 128.5 411.4 128.55 Q414.65 138.7 414.5 148.85 L413.7 148.95 413.6 148.95 413.4 149.0 412.9 149.0 410.35 148.85 409.65 148.7 408.75 148.45 Q407.3 148.0 406.0 147.2 L405.7 146.95 405.4 146.7 405.15 146.35 Q408.8 138.15 411.0 127.5 M434.85 151.55 L435.1 151.5 435.1 151.6 Q434.35 155.95 430.7 158.55 L429.75 159.2 429.45 158.6 428.95 157.1 428.85 156.15 Q428.75 154.55 429.8 153.4 430.6 152.5 432.05 151.85 L434.85 151.55" fill="#000000" fill-rule="evenodd" stroke="none"/>
  </g>
</svg>
