<?xml version="1.0" encoding="UTF-8" standalone="no"?>
<svg xmlns:xlink="http://www.w3.org/1999/xlink" height="17.1px" width="36.8px" xmlns="http://www.w3.org/2000/svg">
  <g transform="matrix(1.0, 0.0, 0.0, 1.0, -381.45, -152.65)">
    <path d="M404.1 167.25 Q402.55 164.75 403.4 161.2 404.2 157.65 406.95 155.15 409.7 152.65 412.7 152.65 415.7 152.65 417.25 155.15 418.8 157.65 418.0 161.2 417.15 164.75 414.4 167.25 411.7 169.75 408.7 169.75 405.7 169.75 404.1 167.25 M385.3 167.25 Q382.55 164.75 381.7 161.2 380.9 157.65 382.45 155.15 384.0 152.65 387.0 152.65 390.0 152.65 392.75 155.15 395.5 157.65 396.3 161.2 397.15 164.75 395.6 167.25 394.0 169.75 391.0 169.75 388.0 169.75 385.3 167.25" fill="#000000" fill-rule="evenodd" stroke="none"/>
  </g>
</svg>
