<?xml version="1.0" encoding="UTF-8" standalone="no"?>
<svg xmlns:xlink="http://www.w3.org/1999/xlink" height="91.85px" width="82.4px" xmlns="http://www.w3.org/2000/svg">
  <g transform="matrix(1.0, 0.0, 0.0, 1.0, -358.7, -129.7)">
    <path d="M432.95 171.85 L434.7 172.7 Q433.7 169.25 431.25 166.35 433.4 167.4 435.6 167.1 428.1 160.4 425.0 153.45 427.75 153.95 429.75 152.9 425.55 150.35 422.4 146.8 L421.1 145.25 425.95 143.65 421.1 142.9 419.35 142.35 426.05 139.05 Q428.05 135.0 427.75 130.2 L418.05 133.3 Q415.65 136.2 414.15 139.3 L413.2 135.0 Q410.65 141.9 408.15 140.15 404.65 138.6 399.9 138.9 395.15 138.6 391.65 140.15 389.15 141.9 386.6 135.0 L385.65 139.3 Q384.15 136.2 381.75 133.3 L372.05 130.2 Q371.75 135.0 373.75 139.05 L380.45 142.35 378.7 142.9 373.85 143.65 378.7 145.25 377.4 146.8 Q374.25 150.35 370.05 152.9 372.05 153.95 374.8 153.45 371.7 160.4 364.2 167.1 366.4 167.4 368.55 166.35 366.1 169.25 365.1 172.7 365.95 172.25 366.85 171.85 L365.85 173.5 Q365.05 174.7 364.4 176.0 L361.6 181.6 359.2 187.5 Q362.15 184.35 366.3 182.1 365.9 187.75 367.1 193.0 L368.3 197.25 Q369.4 200.3 371.05 203.25 371.8 197.2 375.3 193.8 375.85 199.05 378.05 203.35 380.4 208.05 384.7 211.6 384.3 208.35 385.4 205.1 387.25 209.35 390.1 212.85 393.95 217.65 399.9 221.05 405.85 217.65 409.7 212.85 412.55 209.35 414.4 205.1 415.5 208.35 415.1 211.6 419.4 208.05 421.75 203.35 423.95 199.05 424.5 193.8 428.0 197.2 428.75 203.25 430.4 200.3 431.5 197.25 L432.7 193.0 Q433.9 187.75 433.5 182.1 437.65 184.35 440.6 187.5 L438.2 181.6 435.4 176.0 433.95 173.5 432.95 171.85" fill="none" stroke="#000000" stroke-linecap="round" stroke-linejoin="round" stroke-width="1.0"/>
    <path d="M366.85 171.85 Q369.05 170.8 371.5 170.05 371.45 172.75 373.35 175.15 373.35 173.95 374.25 172.5 375.1 174.95 376.6 177.15 L377.3 175.6 Q383.05 180.8 389.65 183.75 L386.95 168.9 M382.15 141.05 L379.25 135.85 Q377.55 133.7 374.45 132.65 M432.95 171.85 Q430.75 170.8 428.3 170.05 428.35 172.75 426.45 175.15 426.45 173.95 425.55 172.5 424.7 174.95 423.2 177.15 L422.5 175.6 Q416.75 180.8 410.15 183.75 L409.85 185.4 Q408.9 188.0 406.4 188.8 405.5 192.15 399.9 192.35 394.3 192.15 393.4 188.8 390.9 188.0 389.95 185.4 L389.65 183.75 M391.0 156.05 Q387.95 157.6 385.2 157.05 M405.9 160.5 Q403.6 159.25 399.9 159.45 396.2 159.25 393.9 160.5 M389.75 153.4 Q390.2 154.05 389.25 154.8 388.35 155.6 387.0 155.6 385.7 155.6 384.65 154.75 383.55 153.9 383.3 152.7 383.05 151.45 384.05 151.4 L386.4 151.15 Q387.8 151.0 388.55 151.9 L389.75 153.4 M400.85 150.1 Q401.95 152.95 404.6 152.15 M398.95 150.1 Q397.85 152.95 395.2 152.15 M393.4 188.8 L395.6 189.15 396.95 189.1 Q396.45 188.05 396.4 186.45 L396.4 185.8 Q396.35 180.35 399.85 180.0 403.35 180.35 403.3 185.8 L403.3 186.45 Q403.25 188.0 402.75 189.1 L404.2 189.15 406.4 188.8 M396.95 189.1 Q397.8 190.75 399.85 191.1 401.9 190.75 402.75 189.1 M392.1 151.1 Q388.25 147.85 385.3 147.75 M417.65 141.05 L420.55 135.85 Q422.25 133.7 425.35 132.65 M416.5 152.7 Q416.75 151.45 415.75 151.4 L413.4 151.15 Q412.0 151.0 411.25 151.9 L410.05 153.4 Q409.6 154.05 410.55 154.8 411.45 155.6 412.8 155.6 414.1 155.6 415.15 154.75 416.25 153.9 416.5 152.7 M408.8 156.05 Q411.85 157.6 414.6 157.05 M410.15 183.75 L412.85 168.9 M407.7 151.1 Q411.55 147.85 414.5 147.75" fill="none" stroke="#000000" stroke-linecap="round" stroke-linejoin="round" stroke-opacity="0.49803922" stroke-width="1.0"/>
  </g>
</svg>
