<?xml version="1.0" encoding="UTF-8" standalone="no"?>
<svg xmlns:xlink="http://www.w3.org/1999/xlink" height="149.95px" width="111.3px" xmlns="http://www.w3.org/2000/svg">
  <g transform="matrix(1.0, 0.0, 0.0, 1.0, -343.85, -131.9)">
    <path d="M420.2 149.6 L421.05 150.35 420.75 149.15 419.85 144.55 419.55 143.25 419.5 143.05 Q419.0 141.2 417.9 139.6 416.8 137.7 415.2 136.3 410.8 132.45 402.85 132.4 L402.55 132.4 396.45 132.4 Q387.85 132.4 383.4 136.7 L383.15 136.9 Q382.0 138.1 381.1 139.6 380.1 141.1 379.55 142.85 L379.5 143.1 379.45 143.2 379.2 144.55 378.0 150.3 378.8 149.6 M363.75 167.4 L363.75 167.3 363.35 167.85 363.75 167.4 364.05 167.0 363.75 167.3 M421.05 150.35 Q422.5 151.75 422.4 152.75 L422.0 153.8 422.3 154.65 423.15 157.05 423.5 159.15 423.55 159.55 423.55 161.25 Q423.45 163.65 421.95 165.45 L421.9 165.45 421.0 166.35 421.05 166.45 421.2 166.65 Q422.7 168.65 423.55 171.0 L423.7 171.55 423.9 172.45 424.4 172.45 427.25 173.95 Q429.5 175.0 431.55 175.15 L433.8 174.85 434.95 174.2 435.2 173.5 Q436.4 170.45 435.3 167.4 L435.0 167.05 435.25 167.3 435.7 167.85 436.2 168.45 Q438.25 170.95 438.05 174.2 437.65 176.9 435.3 178.75 433.1 180.5 430.35 180.75 L432.05 183.25 434.2 187.0 Q436.8 191.75 437.9 193.15 439.9 195.85 442.0 195.85 444.9 195.85 445.9 194.15 446.45 193.3 446.5 192.2 L446.45 190.3 Q445.9 186.95 446.6 185.05 446.95 184.1 447.8 183.25 449.85 181.25 454.65 180.2 L451.9 181.65 449.9 182.7 449.35 183.25 Q448.35 184.6 448.4 187.3 L448.7 191.8 448.7 192.2 Q448.7 195.45 447.85 196.85 446.4 199.3 441.75 199.3 437.35 199.3 434.5 197.4 L433.45 196.55 Q431.9 195.15 430.45 192.85 L429.85 191.9 429.85 191.85 427.15 187.6 425.0 185.3 426.35 187.75 426.35 187.8 428.5 192.7 429.4 195.6 430.55 196.5 431.2 197.0 432.25 197.9 436.2 201.85 Q440.35 206.6 440.4 210.2 440.4 212.3 439.0 214.55 L438.45 215.5 438.0 217.0 Q437.1 220.3 439.95 221.7 443.3 223.35 446.9 222.15 L446.3 222.65 Q442.3 226.2 437.1 224.65 435.8 224.25 435.0 223.5 432.9 221.75 432.85 217.75 L432.9 217.3 433.7 214.15 434.55 210.75 Q434.5 207.3 430.8 205.05 L430.8 205.25 Q430.9 208.6 430.35 212.05 L429.6 216.7 427.75 225.5 Q426.05 232.4 430.1 234.15 L437.0 234.35 441.85 233.4 Q438.3 238.35 431.05 236.6 L429.45 236.1 429.4 236.1 429.25 236.05 Q421.5 233.2 423.65 224.8 L423.95 223.75 424.55 222.0 Q428.55 211.95 424.95 203.15 423.05 201.9 421.5 201.3 422.45 204.8 423.0 210.05 423.55 215.85 422.4 221.5 L422.0 223.05 421.7 224.3 421.7 224.35 Q420.25 230.05 419.4 235.65 418.4 241.85 420.05 246.0 421.65 250.1 421.05 254.75 420.6 258.4 416.8 263.15 414.45 266.1 413.6 269.6 415.4 272.8 417.55 274.15 418.25 274.6 419.05 274.9 L418.9 274.95 417.2 274.95 414.8 274.35 413.05 273.45 413.0 273.45 413.0 273.55 413.15 275.3 Q413.45 278.2 415.1 280.6 L415.65 281.35 Q412.3 280.3 410.9 278.65 L410.2 277.5 409.2 274.9 408.05 271.8 406.3 270.55 405.45 269.2 404.85 267.9 404.85 267.7 404.8 267.9 403.9 270.0 Q403.3 271.2 403.0 272.5 402.8 273.25 403.0 274.05 403.35 275.55 404.15 276.85 L407.35 281.25 407.4 281.3 403.6 278.4 Q402.25 277.25 401.3 275.75 400.45 274.5 400.5 273.1 L400.5 272.3 400.5 272.2 Q400.65 269.85 401.35 267.55 L401.65 266.6 402.1 265.35 402.45 263.55 402.05 261.3 400.95 257.85 Q400.3 255.65 400.25 252.9 400.15 250.1 400.7 247.95 L402.05 241.15 Q402.85 236.55 402.9 233.6 L402.75 223.7 402.5 216.95 Q402.4 212.6 402.7 208.3 L403.95 193.35 Q404.1 188.45 399.9 184.9 395.05 187.9 395.1 193.3 L396.3 208.25 396.55 216.95 396.3 223.7 Q396.05 228.65 396.1 233.6 396.15 236.5 397.0 241.15 397.75 245.75 398.35 247.9 398.85 250.05 398.8 252.85 398.7 255.65 398.1 257.8 L397.0 261.3 Q396.6 262.4 396.55 263.5 396.55 264.45 396.9 265.35 L397.35 266.6 397.65 267.5 Q398.35 269.8 398.55 272.15 L398.55 272.25 398.55 273.1 Q398.55 274.45 397.75 275.7 396.75 277.25 395.4 278.4 393.6 279.95 391.6 281.3 L391.65 281.2 394.85 276.85 Q395.65 275.55 396.05 274.05 L396.05 272.45 395.15 269.95 394.25 267.85 394.15 267.7 394.15 267.9 393.6 269.15 392.7 270.55 390.95 271.8 389.85 274.9 388.85 277.45 388.15 278.65 Q386.7 280.25 383.4 281.3 L383.95 280.55 Q385.55 278.15 385.9 275.25 L386.0 273.5 386.0 273.4 385.95 273.45 384.2 274.35 381.85 274.9 380.1 274.9 380.0 274.85 381.45 274.15 Q383.6 272.8 385.5 269.85 384.65 266.2 382.25 263.15 378.4 258.4 377.95 254.7 377.35 250.1 379.0 246.0 380.6 241.85 379.65 235.6 378.75 230.05 377.35 224.35 L377.35 224.3 377.0 223.05 376.65 221.45 Q376.15 219.1 375.95 216.75 375.7 213.4 376.05 210.0 376.4 206.4 376.95 203.65 L377.5 201.3 Q375.95 201.85 374.05 203.1 371.35 209.7 372.95 217.0 373.45 219.45 374.45 221.95 L374.55 222.15 375.4 224.8 Q377.5 233.2 369.75 236.05 L369.65 236.1 369.6 236.1 368.0 236.55 Q360.7 238.35 357.15 233.4 L362.05 234.35 368.95 234.1 Q372.95 232.4 371.3 225.45 L369.65 217.65 369.6 217.65 369.55 217.15 369.55 217.0 369.5 217.0 368.65 212.0 Q368.15 208.55 368.2 205.2 364.5 207.3 364.45 210.7 L365.3 214.1 366.15 217.55 366.15 217.75 Q366.1 221.7 364.05 223.5 363.2 224.2 361.9 224.65 356.7 226.2 352.75 222.6 L352.15 222.15 Q355.7 223.3 359.05 221.65 361.9 220.25 361.0 216.95 L360.55 215.45 360.0 214.5 Q358.6 212.3 358.6 210.15 358.65 206.6 362.8 201.85 364.2 200.2 366.8 197.85 L367.8 197.0 369.6 195.6 370.55 192.7 Q371.4 190.2 372.7 187.8 L372.7 187.75 372.75 187.6 374.05 185.3 Q372.9 186.25 371.85 187.6 L369.2 191.85 368.6 192.8 Q367.1 195.15 365.6 196.55 L364.55 197.35 Q361.65 199.3 357.3 199.3 352.6 199.3 351.15 196.8 350.25 195.35 350.3 191.75 L350.6 187.3 Q350.65 184.55 349.7 183.25 L349.1 182.7 347.15 181.6 344.35 180.15 Q349.2 181.25 351.25 183.25 L352.45 185.05 Q353.1 186.9 352.6 190.3 L352.55 192.15 Q352.55 193.25 353.1 194.1 354.1 195.8 357.05 195.8 359.1 195.8 361.15 193.1 L364.8 186.95 367.0 183.25 368.65 180.7 Q365.9 180.5 363.7 178.75 361.35 176.9 361.0 174.2 360.75 170.9 362.8 168.45 L363.35 167.85 M363.75 167.4 Q362.6 170.45 363.8 173.45 L364.1 174.2 Q365.5 175.25 367.5 175.15 369.5 175.0 371.75 173.9 L374.6 172.4 375.15 172.4 375.35 171.5 375.45 170.95 Q376.3 168.65 377.8 166.65 L378.0 166.45 377.15 165.45 377.1 165.4 Q375.6 163.65 375.45 161.25 L375.45 159.75 375.5 159.2 Q375.6 158.15 375.85 157.05 L376.75 154.6 377.0 153.75 Q376.65 153.3 376.6 152.75 376.5 151.7 378.0 150.3 M389.3 197.25 L390.25 209.6 390.2 220.1 389.55 228.0 M392.75 248.45 L393.4 250.7 394.4 255.25 394.45 256.6 394.15 258.15 M378.0 166.45 L378.6 165.65 Q379.0 165.2 380.4 164.3 M435.3 167.4 L435.25 167.3 M435.7 167.85 L435.3 167.4 M418.6 164.3 Q420.0 165.25 420.4 165.7 L421.0 166.35 M411.1 203.05 Q410.25 200.15 409.75 197.25 L408.8 209.65 Q408.65 214.85 408.85 220.1 409.0 224.05 409.45 228.0 L409.65 227.6 Q413.25 219.45 412.5 210.6 412.2 206.8 411.1 203.05 M406.25 248.45 L406.85 249.4 407.3 250.75 407.55 252.75 Q407.55 255.35 404.85 258.15 L404.6 256.65 Q404.45 255.9 404.65 255.25 L405.6 250.75 406.25 248.45 M389.3 197.25 L387.95 203.05 Q386.85 206.75 386.5 210.6 385.75 219.4 389.35 227.6 L389.55 228.0 M392.75 248.45 Q392.5 248.65 392.2 249.4 391.8 250.2 391.75 250.75 L391.5 252.7 Q391.45 255.35 394.15 258.15" fill="none" stroke="#000000" stroke-linecap="round" stroke-linejoin="round" stroke-width="1.0"/>
    <path d="M380.6 149.7 Q381.3 149.05 382.4 148.45 382.95 148.15 383.5 148.0 L384.65 147.8 387.2 147.8 387.4 147.8 387.5 147.8 393.4 148.45 M417.1 143.9 Q415.45 142.9 414.3 142.65 L412.9 142.5 412.85 142.5 411.75 142.5 Q408.8 142.5 406.0 143.8 L404.45 144.4 403.0 144.8 400.25 145.1 399.85 145.15 399.45 145.15 396.4 144.8 393.75 143.85 Q390.9 142.5 388.0 142.5 L386.05 142.6 385.45 142.7 Q384.3 142.95 382.6 143.95 M412.8 139.3 Q408.0 137.65 403.1 139.55 399.45 141.0 395.65 139.6 390.7 137.7 385.75 139.35 M379.45 159.7 L380.8 159.95 382.35 160.05 385.45 160.1 388.35 159.95 389.15 159.75 Q389.75 159.55 390.25 159.15 L390.35 159.15 390.7 158.8 390.9 158.6 Q392.3 157.1 392.95 154.0 L393.0 153.85 392.85 153.8 392.6 153.75 389.9 153.15 389.85 153.15 389.85 153.95 389.7 154.75 388.2 155.8 386.6 156.1 Q384.15 155.7 383.95 153.35 383.2 153.7 382.5 154.2 380.95 155.35 379.65 155.35 381.0 158.05 382.5 158.25 M383.95 153.35 L385.6 153.15 Q387.75 152.85 389.85 153.15 M396.1 172.25 L394.55 172.2 Q393.85 171.85 393.15 171.85 L392.85 171.85 390.75 173.3 390.65 173.4 Q388.75 175.4 388.9 179.0 L388.95 179.15 388.95 179.25 389.35 181.95 389.6 183.25 389.75 184.05 390.1 188.35 389.95 192.45 389.6 195.1 389.45 196.3 389.3 197.25 M389.55 228.0 L390.5 232.25 Q390.7 234.35 390.55 236.45 L390.1 239.95 389.8 241.6 Q390.25 243.6 391.6 246.0 L392.75 248.45 M394.15 258.15 L393.45 263.45 Q393.3 265.15 393.85 266.75 L394.15 267.7 M375.15 172.4 L374.95 173.6 374.95 175.7 375.2 178.05 Q375.45 179.35 376.05 180.4 L377.15 182.7 377.35 183.25 377.4 183.5 377.4 183.65 377.4 183.9 377.05 185.4 376.2 186.7 374.15 188.5 Q376.45 188.95 378.25 187.45 L378.65 187.05 379.05 186.7 380.1 185.25 380.25 184.95 380.4 184.4 380.35 183.25 380.35 182.7 Q380.25 177.7 380.95 174.2 L381.05 173.55 Q381.85 169.9 383.05 167.65 L383.75 166.55 Q385.95 163.25 388.95 161.85 L389.7 161.5 M409.75 197.25 L409.5 195.85 409.4 195.15 409.05 192.5 408.95 188.4 Q409.0 186.2 409.3 184.1 L409.45 183.25 409.65 181.95 410.05 179.3 410.1 179.2 410.1 179.0 Q410.25 175.45 408.4 173.4 L408.3 173.35 Q407.45 172.45 406.2 171.85 L405.9 171.85 Q405.15 171.85 404.45 172.2 L402.9 172.25 Q399.45 172.8 396.35 172.25 M395.4 148.2 Q396.9 150.65 395.1 152.9 394.3 154.0 393.0 153.85 M377.0 153.75 L378.4 155.0 379.65 155.35 M374.05 203.1 L375.6 200.1 376.25 199.0 Q377.65 196.8 379.65 194.7 380.55 189.8 380.4 184.95 L380.4 184.45 380.4 184.4 M374.95 175.7 Q371.8 176.75 369.05 180.2 L368.65 180.7 M374.05 185.3 L374.3 185.05 Q375.45 184.2 376.75 183.65 M369.6 195.6 L369.15 197.3 368.95 198.3 368.65 200.1 Q368.25 202.6 368.2 205.2 M391.6 179.0 L392.45 178.5 Q394.15 177.65 396.1 177.35 L402.9 177.4 Q404.85 177.65 406.6 178.55 L407.45 179.0 M391.15 173.8 L393.75 174.15 396.1 174.25 401.15 174.3 405.25 174.15 407.85 173.8 M403.75 184.35 L399.9 184.9 395.9 184.35 M383.4 163.2 L388.45 160.8 M403.6 148.2 Q402.15 150.65 403.9 152.95 404.75 154.05 406.0 153.85 L406.2 153.85 406.45 153.75 409.15 153.2 Q411.25 152.85 413.4 153.2 L415.05 153.4 416.5 154.2 Q418.1 155.35 419.35 155.35 L420.65 155.0 421.75 154.15 422.0 153.8 M418.4 149.7 Q417.7 149.05 416.6 148.5 415.5 147.9 414.4 147.8 L411.85 147.8 411.6 147.8 411.55 147.8 405.6 148.5 M406.0 153.85 L406.0 153.9 Q406.7 157.1 408.1 158.6 408.9 159.45 409.85 159.75 L410.7 159.95 413.6 160.15 416.6 160.05 416.65 160.05 418.25 159.95 419.55 159.75 M416.55 158.3 Q418.0 158.05 419.35 155.6 M409.15 153.2 L409.15 153.95 409.3 154.75 410.8 155.8 Q411.6 156.25 412.45 156.15 414.85 155.7 415.05 153.4 M409.35 161.55 L410.05 161.85 Q413.05 163.25 415.3 166.6 L415.95 167.7 Q417.2 169.95 417.95 173.6 L418.1 174.25 Q418.8 177.9 418.65 183.25 L418.65 183.55 418.6 183.9 418.6 184.35 418.6 184.45 Q418.85 185.6 419.95 186.75 L420.35 187.1 420.8 187.45 Q422.6 188.95 424.9 188.55 M415.65 163.2 L410.55 160.8 M425.0 188.3 Q422.95 187.35 421.95 185.45 L421.6 184.35 421.6 183.65 421.65 183.6 421.65 183.55 421.7 183.25 421.85 182.75 Q422.35 181.55 423.0 180.4 L423.8 178.1 424.1 175.7 424.1 173.65 423.9 172.45 M425.0 185.3 L424.7 185.1 Q423.55 184.2 422.25 183.7 M418.6 184.45 Q418.45 189.6 419.4 194.7 421.4 196.8 422.8 199.0 L423.45 200.1 424.95 203.15 M424.1 175.7 Q427.25 176.8 429.95 180.2 L430.35 180.75 M430.8 205.05 L430.4 200.1 430.05 198.35 429.85 197.35 429.4 195.6 M419.4 194.7 Q419.6 195.7 420.95 199.55 L421.5 201.3 M406.25 248.45 L407.4 246.05 Q408.75 243.6 409.25 241.6 L408.9 239.95 408.45 236.5 Q408.3 234.35 408.5 232.3 408.7 230.1 409.45 228.0 M408.05 271.8 Q408.0 270.75 408.1 269.65 408.45 265.3 410.1 261.25 411.75 257.2 412.2 254.75 412.6 252.25 411.05 247.8 409.5 243.3 409.25 241.6 M404.85 258.15 L405.55 263.45 Q405.75 265.15 405.2 266.8 L404.85 267.7 M413.6 269.6 L413.5 269.85 Q413.1 271.6 413.0 273.45 M379.65 194.7 L378.05 199.55 377.5 201.3 M389.8 241.6 Q389.55 243.3 388.0 247.8 386.4 252.25 386.85 254.7 387.25 257.15 388.9 261.25 390.6 265.3 390.95 269.65 L390.95 271.8 M386.0 273.4 Q385.95 271.55 385.5 269.85" fill="none" stroke="#000000" stroke-linecap="round" stroke-linejoin="round" stroke-opacity="0.49803922" stroke-width="1.0"/>
  </g>
</svg>
