<?xml version="1.0" encoding="UTF-8" standalone="no"?>
<svg xmlns:xlink="http://www.w3.org/1999/xlink" height="133.3px" width="47.2px" xmlns="http://www.w3.org/2000/svg">
  <g transform="matrix(1.0, 0.0, 0.0, 1.0, -375.95, -79.65)">
    <path d="M399.5 80.3 L399.9 80.95 399.6 80.15 399.5 80.3 399.5 80.25 399.2 81.05 397.8 83.45 396.8 87.25 394.0 126.75 393.9 127.45 393.8 127.5 392.15 128.4 Q389.25 130.05 387.15 131.65 385.1 133.15 383.85 134.6 380.7 138.05 378.35 141.35 376.45 144.0 376.45 146.95 376.45 148.25 378.1 150.65 379.4 152.6 380.1 154.55 L380.55 156.25 380.55 157.05 380.45 157.4 380.3 157.85 379.75 161.75 379.65 163.65 379.8 164.35 381.95 168.3 381.75 171.15 381.55 172.45 Q381.55 173.8 381.7 174.65 L381.8 175.05 382.1 175.85 385.35 179.1 388.25 195.05 391.9 202.55 398.25 209.95 398.45 210.05 399.05 211.4 399.55 212.35 399.55 212.25 400.05 211.3 400.6 209.95 400.85 209.85 407.2 202.45 410.8 194.95 413.75 179.0 417.0 175.75 417.3 174.95 417.4 174.55 417.55 172.35 417.35 171.05 417.1 168.2 419.3 164.25 419.4 163.55 419.3 161.65 418.8 157.75 418.65 157.3 418.55 156.95 418.55 156.15 Q418.6 155.25 419.0 154.45 419.65 152.5 421.0 150.55 422.65 148.15 422.65 146.85 422.6 143.9 420.75 141.25 418.35 137.95 415.25 134.5 413.95 133.05 411.95 131.55 L406.9 128.3 405.25 127.4 405.15 127.35 405.1 126.65 402.25 87.15 401.25 83.35 399.9 80.95 M394.0 126.75 L393.8 127.5 M405.25 127.4 L405.1 126.65 M400.05 211.3 L399.55 212.35 399.5 212.45 399.05 211.4" fill="none" stroke="#000000" stroke-linecap="round" stroke-linejoin="round" stroke-width="1.0"/>
    <path d="M393.8 127.5 L392.1 133.95 M381.95 168.3 Q382.75 169.05 383.15 170.0 L383.2 170.35 M390.05 139.45 L393.65 148.2 M416.45 166.1 L415.5 166.75 Q411.85 169.35 408.65 166.0 L407.15 163.2 Q406.05 162.7 405.4 161.4 404.55 159.8 404.35 156.9 L404.25 155.45 M390.05 157.6 Q390.4 155.6 389.15 151.0 388.05 146.95 387.3 145.85 M382.1 157.75 Q382.5 157.5 383.05 157.35 383.85 157.45 384.35 157.95 L386.5 159.55 388.55 161.15 389.6 161.9 391.95 163.3 Q393.0 162.8 393.7 161.5 394.5 159.9 394.75 157.0 L394.85 155.55 M382.6 166.2 L383.6 166.85 Q387.25 169.45 390.45 166.1 L391.95 163.3 390.6 164.85 389.15 165.7 388.3 166.05 387.85 166.15 386.8 166.1 386.5 166.0 Q385.65 165.65 385.15 164.95 L383.6 162.85 383.55 162.65 383.25 161.0 383.25 159.4 383.6 158.2 Q383.7 157.9 384.05 157.75 L384.35 157.95 M398.45 210.05 L394.4 201.0 Q393.15 199.3 392.35 197.45 389.9 191.9 388.35 186.05 386.95 180.9 386.0 175.65 L385.8 175.5 385.65 175.4 Q384.85 174.85 383.65 174.95 M394.4 201.0 L391.95 193.65 389.05 186.45 389.0 186.2 387.25 178.95 387.05 177.9 386.45 176.3 386.0 175.65 M405.25 127.4 L406.95 133.85 M409.05 139.35 L405.4 148.1 M417.0 157.65 L416.0 157.25 Q415.25 157.35 414.75 157.85 L415.05 157.65 415.5 158.1 415.8 159.3 415.85 160.9 415.55 162.55 415.45 162.75 413.9 164.85 412.6 165.9 412.3 166.0 411.25 166.05 410.8 165.95 409.95 165.6 408.5 164.75 Q407.75 164.25 407.15 163.2 L409.5 161.8 410.55 161.05 412.6 159.45 414.75 157.85 M409.05 157.5 Q408.65 155.5 409.9 150.9 411.0 146.85 411.75 145.75 M417.1 168.2 Q416.35 168.95 415.95 169.9 L415.9 170.25 M400.6 209.95 L404.65 200.9 407.15 193.55 Q408.45 189.9 410.05 186.35 L410.1 186.1 411.85 178.8 412.05 177.8 Q412.15 176.85 412.65 176.15 L413.1 175.55 413.3 175.4 413.45 175.3 Q414.2 174.75 415.4 174.85 M404.65 200.9 Q405.9 199.2 406.75 197.3 409.2 191.8 410.75 185.95 L413.1 175.55" fill="none" stroke="#000000" stroke-linecap="round" stroke-linejoin="round" stroke-opacity="0.49803922" stroke-width="1.0"/>
  </g>
</svg>
