<?xml version="1.0" encoding="UTF-8" standalone="no"?>
<svg xmlns:xlink="http://www.w3.org/1999/xlink" height="54.95px" width="70.95px" xmlns="http://www.w3.org/2000/svg">
  <g transform="matrix(1.0, 0.0, 0.0, 1.0, 35.6, 162.55)">
    <path d="M-0.1 -107.6 L-0.15 -107.6 -0.3 -107.65 -0.1 -107.6" fill="#d79702" fill-rule="evenodd" stroke="none"/>
    <path d="M35.35 -151.95 L34.65 -151.5 35.35 -152.0 35.35 -151.95 M-35.6 -151.95 L-35.55 -152.0 -34.85 -151.5 -35.6 -151.95" fill="#e2b005" fill-rule="evenodd" stroke="none"/>
    <path d="M14.3 -143.45 L14.35 -142.7 Q14.35 -141.05 12.95 -139.7 11.55 -138.4 9.6 -138.15 7.65 -137.85 6.25 -138.85 L5.85 -139.15 Q4.85 -140.1 4.85 -141.45 4.85 -143.1 6.25 -144.4 7.65 -145.75 9.6 -146.0 11.55 -146.3 12.95 -145.3 L13.5 -144.85 14.3 -143.45 M6.05 -142.45 Q5.8 -141.9 6.0 -141.5 6.25 -141.1 6.75 -141.05 7.3 -141.0 7.8 -141.35 L8.55 -142.2 8.65 -142.95 8.6 -143.1 7.8 -143.55 6.8 -143.3 6.55 -143.1 6.05 -142.45 M-14.5 -143.45 Q-14.3 -144.25 -13.7 -144.85 L-13.15 -145.3 Q-11.75 -146.3 -9.8 -146.0 -7.85 -145.75 -6.45 -144.4 -5.05 -143.1 -5.05 -141.45 -5.05 -140.1 -6.05 -139.15 L-6.45 -138.85 Q-7.85 -137.85 -9.8 -138.15 -11.75 -138.4 -13.15 -139.7 -14.55 -141.05 -14.55 -142.7 L-14.5 -143.45 M-6.05 -142.6 L-6.55 -143.3 -6.8 -143.45 Q-7.35 -143.85 -7.85 -143.75 -8.4 -143.7 -8.6 -143.3 L-8.65 -143.15 -8.6 -142.4 -7.85 -141.55 -6.8 -141.25 Q-6.25 -141.3 -6.05 -141.7 -5.85 -142.1 -6.05 -142.6" fill="#252525" fill-rule="evenodd" stroke="none"/>
    <path d="M6.05 -142.45 L6.55 -143.1 6.8 -143.3 7.8 -143.55 8.6 -143.1 8.65 -142.95 8.55 -142.2 7.8 -141.35 Q7.3 -141.0 6.75 -141.05 6.25 -141.1 6.0 -141.5 5.8 -141.9 6.05 -142.45 M-6.05 -142.6 Q-5.85 -142.1 -6.05 -141.7 -6.25 -141.3 -6.8 -141.25 L-7.85 -141.55 -8.6 -142.4 -8.65 -143.15 -8.6 -143.3 Q-8.4 -143.7 -7.85 -143.75 -7.35 -143.85 -6.8 -143.45 L-6.55 -143.3 -6.05 -142.6" fill="#ffffff" fill-rule="evenodd" stroke="none"/>
    <path d="M8.45 -152.95 Q9.95 -152.1 11.05 -151.65 L10.6 -151.7 Q8.3 -151.7 6.0 -150.15 L4.9 -149.35 3.95 -148.15 2.35 -145.7 2.25 -146.25 Q2.25 -149.2 3.9 -151.2 L6.4 -153.25 6.45 -153.6 8.0 -153.15 8.45 -152.95 M5.85 -139.15 L6.25 -138.85 Q7.65 -137.85 9.6 -138.15 11.55 -138.4 12.95 -139.7 14.35 -141.05 14.35 -142.7 L14.3 -143.45 Q15.45 -140.6 13.15 -138.6 10.9 -136.55 7.95 -137.5 6.65 -138.0 5.85 -139.15 M1.0 -138.2 L2.15 -137.8 Q4.9 -136.85 6.5 -134.45 7.6 -132.85 8.05 -130.95 6.9 -132.45 5.3 -133.35 L4.1 -133.95 2.0 -135.0 1.65 -135.15 -1.55 -135.3 -2.2 -135.0 -4.45 -133.9 -5.55 -133.35 Q-7.1 -132.45 -8.3 -130.95 -7.8 -132.85 -6.7 -134.45 -5.1 -136.85 -2.4 -137.8 L-1.25 -138.2 1.0 -138.2 M3.4 -129.5 L4.45 -130.5 5.1 -130.5 Q5.45 -129.9 4.9 -129.35 L4.85 -129.3 Q4.1 -129.15 2.4 -128.25 L3.4 -129.5 M-11.25 -151.65 Q-10.15 -152.1 -8.7 -152.95 L-8.25 -153.15 -6.65 -153.6 -6.6 -153.25 -4.1 -151.2 Q-2.45 -149.2 -2.45 -146.25 L-2.6 -145.7 -4.15 -148.15 -5.1 -149.35 -6.2 -150.15 Q-8.5 -151.7 -10.8 -151.7 L-11.25 -151.65 M-6.05 -139.15 Q-6.85 -138.0 -8.2 -137.5 -11.1 -136.55 -13.4 -138.6 -15.65 -140.6 -14.5 -143.45 L-14.55 -142.7 Q-14.55 -141.05 -13.15 -139.7 -11.75 -138.4 -9.8 -138.15 -7.85 -137.85 -6.45 -138.85 L-6.05 -139.15 M-3.6 -129.5 L-2.65 -128.25 -5.05 -129.3 -5.1 -129.35 Q-5.7 -129.9 -5.35 -130.5 L-4.65 -130.5 -3.6 -129.5" fill="#000000" fill-opacity="0.2509804" fill-rule="evenodd" stroke="none"/>
    <path d="M13.35 -161.1 L13.25 -160.35 16.3 -159.55 Q17.9 -158.95 18.65 -158.15 L17.15 -157.9 17.05 -157.9 19.0 -156.65 20.85 -155.15 20.85 -155.05 19.6 -155.05 Q20.6 -154.35 21.4 -152.5 L22.35 -150.2 Q21.85 -150.2 20.65 -151.85 L18.1 -154.0 Q16.75 -154.9 13.65 -154.7 L14.55 -155.9 15.25 -157.1 8.35 -157.55 9.65 -159.1 9.65 -159.2 6.95 -159.55 3.55 -159.15 3.45 -159.15 4.15 -160.6 2.1 -160.05 0.3 -159.3 -0.1 -159.15 0.3 -159.65 1.65 -161.35 4.55 -162.25 6.6 -162.55 6.8 -162.45 7.0 -162.45 6.9 -162.4 6.55 -162.1 6.3 -161.65 7.3 -161.6 7.5 -161.6 10.4 -161.7 Q12.55 -161.7 13.35 -161.1 M21.5 -137.45 Q21.5 -135.95 21.05 -135.15 20.5 -134.25 18.9 -133.55 L18.7 -133.45 19.7 -133.15 20.6 -133.2 Q20.2 -132.2 19.05 -131.4 L17.85 -130.6 18.2 -130.0 Q16.55 -126.1 14.3 -122.5 13.45 -121.05 11.2 -119.7 L12.65 -122.65 13.45 -124.65 13.7 -126.7 13.7 -126.8 Q14.2 -126.45 14.2 -125.8 L14.3 -125.75 14.4 -125.75 14.5 -126.85 Q14.5 -128.95 14.3 -129.3 L14.3 -129.65 14.75 -129.4 14.85 -129.4 14.85 -130.1 Q14.35 -132.05 13.2 -133.65 15.45 -133.85 18.4 -135.55 21.3 -137.25 21.45 -138.45 L21.5 -137.45 M-22.55 -150.2 Q-22.25 -150.6 -21.6 -152.5 -20.8 -154.35 -19.8 -155.05 L-21.05 -155.05 -21.05 -155.15 -19.25 -156.65 Q-17.85 -157.85 -17.25 -157.9 L-17.4 -157.9 -18.85 -158.15 Q-18.1 -158.95 -16.55 -159.55 L-13.5 -160.35 -13.6 -161.1 Q-12.8 -161.7 -10.65 -161.7 L-7.7 -161.6 -7.5 -161.6 -6.5 -161.65 -6.8 -162.1 -7.1 -162.4 -7.2 -162.45 -7.05 -162.45 -6.85 -162.55 -4.8 -162.25 -1.9 -161.35 -0.5 -159.65 -0.5 -159.3 -2.35 -160.05 -4.4 -160.6 -3.65 -159.15 -3.8 -159.15 -7.2 -159.55 -9.9 -159.2 -9.9 -159.1 -8.6 -157.55 -15.5 -157.1 -14.8 -155.9 -13.9 -154.7 Q-16.95 -154.9 -18.35 -154.0 L-20.9 -151.85 Q-22.1 -150.2 -22.55 -150.2 M-13.4 -133.65 Q-14.55 -132.05 -15.05 -130.1 L-15.05 -129.4 -14.95 -129.4 -14.55 -129.65 -14.55 -129.3 -14.7 -126.85 -14.65 -125.75 -14.55 -125.75 -14.4 -125.8 Q-14.4 -126.45 -13.95 -126.8 L-13.95 -126.7 -13.65 -124.65 -12.85 -122.65 -11.45 -119.7 Q-13.65 -121.05 -14.55 -122.5 -16.75 -126.1 -18.4 -130.0 L-18.05 -130.6 -19.25 -131.4 Q-20.45 -132.2 -20.8 -133.2 L-19.95 -133.15 -18.9 -133.45 -19.1 -133.55 Q-20.7 -134.25 -21.25 -135.15 -21.7 -135.95 -21.7 -137.45 L-21.65 -138.45 Q-21.55 -137.25 -18.6 -135.55 -15.7 -133.85 -13.4 -133.65" fill="#ffffff" fill-opacity="0.2509804" fill-rule="evenodd" stroke="none"/>
  </g>
</svg>
