<?xml version="1.0" encoding="UTF-8" standalone="no"?>
<svg xmlns:xlink="http://www.w3.org/1999/xlink" height="39.35px" width="23.5px" xmlns="http://www.w3.org/2000/svg">
  <g transform="matrix(1.0, 0.0, 0.0, 1.0, 11.85, 143.75)">
    <path d="M6.05 -141.35 L6.05 -141.4 8.1 -142.5 8.2 -142.05 Q8.2 -141.6 7.8 -141.2 L6.85 -140.8 Q6.25 -140.8 6.05 -141.35 M-6.25 -141.35 Q-6.45 -140.8 -7.05 -140.8 -7.55 -140.8 -8.0 -141.2 -8.4 -141.6 -8.4 -142.05 L-8.3 -142.5 -6.25 -141.4 -6.25 -141.35" fill="#ffffff" fill-rule="evenodd" stroke="none"/>
    <path d="M8.1 -142.5 L10.3 -143.65 10.55 -143.75 10.65 -143.5 10.55 -142.2 Q10.25 -141.2 9.35 -140.75 L8.35 -140.3 6.55 -139.9 6.1 -139.95 5.45 -140.2 4.7 -140.75 6.05 -141.35 Q6.25 -140.8 6.85 -140.8 L7.8 -141.2 Q8.2 -141.6 8.2 -142.05 L8.1 -142.5 M-6.25 -141.35 L-4.85 -140.75 -5.65 -140.2 -6.25 -139.95 -6.75 -139.9 -8.55 -140.3 -9.55 -140.75 Q-10.45 -141.2 -10.75 -142.2 L-10.85 -143.5 -10.75 -143.75 -10.5 -143.65 -8.3 -142.5 -8.4 -142.05 Q-8.4 -141.6 -8.0 -141.2 -7.55 -140.8 -7.05 -140.8 -6.45 -140.8 -6.25 -141.35" fill="#000000" fill-rule="evenodd" stroke="none"/>
    <path d="M2.2 -138.6 L2.4 -137.75 3.65 -121.05 Q4.15 -119.05 5.3 -117.85 5.85 -117.7 6.2 -117.25 6.7 -116.6 6.7 -115.35 L6.5 -114.35 6.7 -114.3 7.05 -113.4 7.35 -111.45 Q7.4 -110.0 7.0 -108.65 6.6 -107.2 5.4 -106.35 L4.55 -105.8 Q0.0 -102.95 -4.5 -105.8 L-4.6 -105.9 -4.7 -105.8 -5.6 -106.35 Q-6.8 -107.2 -7.2 -108.65 -7.6 -110.0 -7.55 -111.45 L-7.25 -113.4 -6.9 -114.3 -6.7 -114.35 -6.9 -115.35 Q-6.9 -116.6 -6.4 -117.25 -6.05 -117.7 -5.5 -117.85 -4.35 -119.05 -3.85 -121.05 L-2.6 -137.75 -2.4 -138.6 -1.9 -139.9 Q-1.1 -140.45 -0.15 -140.25 L-0.05 -140.25 Q0.9 -140.45 1.7 -139.9 L2.2 -138.6" fill="#000000" fill-opacity="0.2509804" fill-rule="evenodd" stroke="none"/>
    <path d="M2.2 -138.6 L2.45 -138.7 4.3 -138.8 5.8 -138.65 6.55 -138.45 Q9.2 -137.6 11.55 -135.7 L11.65 -135.6 Q11.7 -133.3 10.6 -131.5 10.7 -129.3 9.45 -127.95 L9.35 -126.9 Q9.25 -125.5 8.65 -124.2 8.75 -121.75 7.55 -120.1 L7.55 -120.0 7.5 -119.95 Q7.65 -118.35 6.4 -117.45 L6.2 -117.25 Q5.85 -117.7 5.3 -117.85 4.15 -119.05 3.65 -121.05 L2.4 -137.75 2.2 -138.6 M-6.4 -117.25 L-6.6 -117.45 Q-7.85 -118.35 -7.7 -119.95 L-7.7 -120.0 -7.75 -120.1 Q-8.95 -121.75 -8.85 -124.2 -9.45 -125.5 -9.55 -126.9 L-9.65 -127.95 Q-10.9 -129.3 -10.75 -131.5 -11.9 -133.3 -11.85 -135.6 L-11.75 -135.7 Q-9.4 -137.6 -6.75 -138.45 L-6.0 -138.65 -4.5 -138.8 -2.65 -138.7 -2.4 -138.6 -2.6 -137.75 -3.85 -121.05 Q-4.35 -119.05 -5.5 -117.85 -6.05 -117.7 -6.4 -117.25" fill="#000000" fill-opacity="0.49803922" fill-rule="evenodd" stroke="none"/>
  </g>
</svg>
