<?xml version="1.0" encoding="UTF-8" standalone="no"?>
<svg xmlns:xlink="http://www.w3.org/1999/xlink" height="55.3px" width="49.85px" xmlns="http://www.w3.org/2000/svg">
  <g transform="matrix(1.0, 0.0, 0.0, 1.0, 25.8, 168.8)">
    <path d="M19.7 -168.5 L19.9 -168.4 19.95 -168.3 19.95 -168.25 19.9 -168.25 19.7 -168.0 19.6 -167.95 19.15 -167.8 Q18.6 -167.8 18.4 -168.05 18.8 -168.55 19.3 -168.55 L19.35 -168.55 19.7 -168.5 M11.05 -162.45 Q11.6 -162.25 11.65 -161.3 11.65 -160.75 11.3 -160.6 10.8 -161.05 10.8 -161.6 10.75 -162.25 11.05 -162.45 M12.15 -164.5 L12.65 -164.7 Q13.3 -164.75 13.3 -164.0 L13.2 -163.45 12.7 -163.25 Q12.0 -163.25 12.0 -163.95 L12.15 -164.5 M15.05 -164.95 Q14.75 -165.25 14.7 -165.75 L14.85 -166.55 15.2 -166.85 15.3 -166.85 15.55 -166.1 Q15.6 -165.35 15.05 -164.95 M4.4 -166.7 L4.45 -166.6 4.45 -166.3 4.3 -165.5 Q4.1 -164.75 3.9 -164.75 2.9 -164.7 2.95 -166.05 L2.95 -166.6 3.05 -167.05 4.4 -166.7 M-4.8 -167.1 L-4.7 -166.6 -4.7 -166.1 Q-4.65 -164.75 -5.6 -164.75 L-6.05 -165.55 -6.2 -166.35 -6.15 -166.6 -6.15 -166.75 -4.8 -167.1 M-10.75 -162.1 L-10.6 -161.7 -10.65 -161.2 Q-10.7 -159.95 -11.2 -159.8 L-11.35 -159.8 Q-11.7 -159.85 -11.75 -160.4 L-11.7 -161.0 -11.65 -161.5 Q-11.5 -162.15 -10.9 -162.1 L-10.75 -162.1 M-1.6 -147.2 Q-1.6 -148.05 -0.95 -148.1 L-0.9 -148.05 -0.75 -148.1 Q-0.15 -148.1 -0.15 -147.15 L-0.15 -146.75 -0.3 -146.1 -0.6 -145.55 -0.75 -145.4 -0.85 -145.5 -0.95 -145.4 -1.25 -145.65 -1.55 -146.75 -1.6 -147.2 M8.9 -161.7 L9.05 -162.05 9.15 -162.1 9.2 -162.1 Q9.75 -162.15 9.95 -161.45 L10.0 -161.0 10.0 -160.35 Q10.0 -159.8 9.6 -159.8 L9.45 -159.8 Q8.95 -159.95 8.9 -161.15 L8.9 -161.7 M1.55 -166.15 L1.55 -166.05 1.5 -165.9 0.85 -165.45 0.25 -165.25 -0.85 -165.15 -1.4 -165.2 -2.55 -165.45 -3.25 -166.05 -3.25 -166.2 -2.55 -166.85 -0.85 -167.1 0.85 -166.85 1.55 -166.15 M1.35 -162.75 L1.05 -161.2 Q0.6 -159.6 -0.05 -159.55 -0.5 -159.55 -0.65 -161.2 -0.45 -163.75 0.45 -163.8 L0.95 -163.9 Q1.3 -163.95 1.35 -162.75 M6.85 -165.8 L7.15 -165.55 7.25 -164.75 Q7.3 -163.9 6.85 -163.45 6.4 -163.95 6.35 -164.65 6.25 -165.75 6.85 -165.8 M5.9 -162.75 Q6.35 -162.75 6.4 -161.45 L6.35 -160.5 5.5 -159.35 Q5.05 -159.8 5.0 -161.35 4.7 -162.7 5.9 -162.75 M6.75 -155.85 L6.85 -154.95 Q6.9 -154.15 6.55 -153.8 5.7 -154.2 5.65 -155.45 5.55 -156.35 5.9 -156.6 L6.15 -156.7 Q6.55 -156.7 6.75 -155.85 M8.9 -158.6 L9.1 -158.6 9.6 -157.7 9.75 -156.7 9.75 -156.1 Q9.7 -155.45 9.3 -155.45 8.4 -155.45 8.3 -157.55 8.05 -158.6 8.9 -158.6 M1.3 -156.4 Q1.6 -156.4 1.75 -155.75 L1.8 -155.0 1.75 -154.2 1.15 -153.15 0.9 -153.35 0.55 -152.9 Q0.25 -153.1 0.25 -153.8 0.3 -156.35 1.3 -156.4 M3.4 -160.55 Q3.75 -160.6 3.9 -159.95 L4.0 -159.25 3.8 -158.25 Q3.45 -157.4 2.75 -157.35 2.25 -157.35 2.2 -158.4 2.05 -160.5 3.4 -160.55 M17.75 -149.35 Q18.15 -149.35 18.35 -148.85 L18.5 -148.25 Q18.5 -147.8 18.1 -147.45 17.55 -148.0 17.5 -148.5 17.5 -149.35 17.75 -149.35 M10.15 -152.2 Q10.1 -153.05 10.35 -153.05 10.9 -153.1 11.6 -151.5 L12.3 -149.7 12.25 -149.05 Q12.2 -148.45 11.9 -148.45 11.2 -148.4 10.75 -149.6 10.4 -150.4 10.4 -151.0 L10.15 -152.2 M12.55 -154.7 L12.95 -154.8 Q13.35 -154.8 13.45 -153.35 13.5 -151.9 12.85 -151.45 L12.65 -151.9 Q12.35 -152.6 12.35 -153.4 12.1 -154.45 12.55 -154.7 M11.75 -158.45 L12.1 -158.2 12.35 -157.65 12.55 -156.75 12.5 -156.3 12.25 -155.9 Q11.05 -155.85 11.0 -157.5 10.8 -158.4 11.75 -158.45 M7.6 -149.1 Q6.75 -149.85 6.7 -150.85 6.55 -151.95 7.5 -152.0 7.8 -152.0 7.95 -151.2 L8.05 -150.4 7.95 -149.85 7.6 -149.1 M1.25 -148.7 L1.45 -148.9 Q1.8 -148.95 1.85 -148.05 L1.85 -147.6 Q1.8 -147.15 1.55 -147.15 L1.4 -147.2 1.2 -148.0 Q1.15 -148.5 1.25 -148.7 M4.15 -152.75 L4.5 -152.1 4.5 -151.45 Q4.55 -150.5 4.2 -149.8 L4.0 -149.9 Q3.6 -150.6 3.55 -151.45 3.45 -152.1 3.6 -152.4 3.75 -152.7 4.15 -152.75 M17.6 -143.3 Q17.25 -143.3 17.25 -144.05 17.2 -145.1 18.35 -145.15 18.7 -145.15 18.75 -144.35 L18.75 -143.85 Q18.55 -143.4 17.75 -143.35 L17.6 -143.3 M15.7 -147.5 L15.45 -146.6 Q14.1 -146.85 14.05 -148.4 14.05 -149.2 14.3 -149.2 L15.7 -147.5 M22.1 -141.4 L22.15 -140.75 Q22.1 -140.2 21.85 -140.2 L21.65 -140.25 21.45 -141.35 21.45 -142.3 21.7 -142.6 22.0 -142.3 22.1 -141.4 M20.75 -136.4 Q20.65 -137.05 21.05 -137.05 21.65 -137.1 21.7 -135.55 L21.7 -134.75 Q21.6 -133.95 21.1 -133.95 L20.95 -133.95 20.8 -133.85 Q20.45 -134.15 20.45 -134.9 20.3 -136.3 20.75 -136.4 M20.35 -144.6 L20.5 -144.55 20.6 -144.3 20.75 -143.4 20.75 -142.8 20.75 -142.5 20.7 -142.45 20.45 -142.15 Q20.2 -142.15 20.3 -142.25 19.75 -143.4 19.75 -143.75 19.6 -144.6 20.35 -144.6 M14.1 -145.5 L15.05 -145.25 12.75 -144.7 Q12.4 -144.5 12.25 -143.55 L12.1 -142.7 12.0 -142.25 Q11.8 -141.35 11.0 -140.95 L10.3 -140.7 10.0 -140.65 8.05 -140.2 10.0 -138.35 7.85 -139.55 6.05 -139.85 5.95 -140.2 Q6.1 -141.75 7.2 -142.95 7.15 -142.3 7.95 -141.75 8.6 -141.35 9.15 -141.35 L9.85 -141.45 Q10.15 -141.55 10.45 -141.75 10.9 -142.15 11.05 -142.85 L11.15 -144.0 10.8 -145.15 12.65 -145.55 13.0 -145.6 14.1 -145.5 M1.05 -140.8 Q1.35 -140.85 1.4 -139.9 1.45 -138.85 0.9 -138.65 0.5 -139.1 0.45 -139.65 0.4 -140.8 1.05 -140.8 M4.5 -143.7 L4.3 -142.9 Q3.8 -142.8 3.2 -143.7 L3.1 -143.9 Q2.5 -144.85 2.5 -145.35 2.45 -146.25 3.0 -146.3 L4.5 -143.7 M5.55 -146.95 Q5.4 -148.25 6.15 -148.25 6.8 -148.3 6.85 -146.85 6.9 -145.8 6.05 -145.25 5.6 -145.75 5.55 -146.95 M20.05 -138.1 L19.2 -137.05 Q18.85 -137.2 18.8 -137.95 18.7 -138.8 19.0 -139.2 19.3 -139.6 19.9 -139.65 20.25 -139.65 20.3 -138.85 L20.05 -138.1 M16.0 -137.65 L16.05 -138.0 Q16.2 -139.25 16.5 -139.25 L16.8 -139.15 17.05 -138.1 17.05 -137.45 Q16.9 -136.85 16.35 -136.8 16.15 -136.8 16.1 -137.05 L16.0 -137.65 M15.85 -142.15 L15.8 -141.5 Q15.7 -140.9 15.2 -140.85 14.9 -140.85 14.9 -141.65 L15.4 -143.2 Q15.75 -143.25 15.85 -142.15 M18.4 -140.25 L18.2 -139.85 18.15 -139.8 17.65 -139.65 17.5 -139.7 Q17.3 -139.9 17.25 -140.75 17.15 -142.3 17.85 -142.35 18.4 -142.4 18.45 -140.95 L18.4 -140.25 M14.7 -136.8 L15.05 -136.55 15.2 -135.75 15.2 -135.0 Q15.0 -134.35 14.4 -134.35 14.05 -134.3 14.05 -135.1 L14.7 -136.8 M14.0 -137.75 L13.95 -138.35 14.45 -139.8 Q14.85 -139.65 14.9 -138.7 L14.9 -138.15 14.4 -137.55 14.25 -137.55 14.0 -137.75 M12.35 -136.85 Q12.4 -137.9 12.6 -138.15 L12.8 -138.25 12.95 -138.2 13.2 -137.6 13.2 -137.45 13.05 -136.75 12.75 -136.05 Q12.35 -136.15 12.35 -136.85 M10.25 -137.15 Q10.6 -136.95 10.65 -136.4 L10.4 -135.65 10.1 -135.95 10.0 -136.35 Q10.0 -136.85 10.25 -137.15 M11.5 -140.15 Q11.9 -139.95 11.95 -139.35 L11.75 -138.65 11.7 -138.6 Q11.3 -138.85 11.3 -139.3 11.25 -139.8 11.5 -140.15 M-4.1 -130.4 L-2.85 -130.05 -1.3 -129.2 -0.45 -129.2 1.15 -130.0 Q1.65 -130.3 2.35 -130.4 L3.2 -130.45 4.65 -130.05 4.8 -130.0 4.8 -129.65 Q3.95 -129.9 3.3 -129.15 L2.55 -127.85 Q1.9 -126.65 -0.25 -126.5 L-0.5 -124.6 Q0.3 -123.6 1.55 -122.95 L-3.3 -123.0 Q-2.05 -123.6 -1.2 -124.6 L-1.5 -126.55 Q-3.65 -126.65 -4.25 -127.9 L-5.05 -129.15 Q-5.65 -129.9 -6.55 -129.65 L-6.5 -130.05 -6.4 -130.1 -6.3 -130.15 -4.9 -130.5 -4.1 -130.4 M9.35 -126.0 L9.15 -125.6 Q8.9 -125.7 8.9 -125.75 L8.85 -125.85 9.1 -126.15 Q9.1 -126.1 9.35 -126.0 M6.65 -124.6 L6.85 -124.85 7.15 -124.6 7.15 -124.45 6.9 -124.3 6.65 -124.6 M5.3 -126.5 L5.55 -126.45 5.55 -126.15 5.3 -126.0 5.05 -126.3 5.3 -126.5 M7.35 -127.0 L7.4 -127.0 7.6 -126.95 7.6 -126.65 7.35 -126.5 7.1 -126.8 7.3 -127.05 7.35 -127.0 M8.7 -127.45 L8.65 -127.6 8.95 -127.85 9.2 -127.7 8.95 -127.3 8.7 -127.45 M7.8 -128.15 L7.75 -127.85 7.5 -127.7 Q7.25 -127.8 7.25 -128.0 L7.5 -128.25 7.8 -128.15 M9.15 -121.05 L9.45 -120.95 10.0 -120.95 10.1 -120.45 10.05 -119.85 9.7 -119.5 9.05 -119.35 Q8.7 -119.3 8.7 -120.25 8.65 -120.8 8.75 -121.05 L8.9 -121.25 9.15 -121.05 M12.25 -123.0 L12.15 -122.25 11.75 -121.7 Q11.45 -121.9 11.4 -122.8 L11.4 -123.65 11.8 -123.95 Q12.2 -124.0 12.25 -123.0 M14.75 -125.05 Q14.35 -125.05 14.3 -126.25 14.15 -127.1 14.4 -127.5 14.65 -127.95 15.25 -127.95 L15.4 -127.95 15.65 -127.2 15.6 -126.15 Q15.4 -125.1 14.75 -125.05 M13.55 -128.4 L13.45 -127.8 13.35 -127.6 Q13.15 -126.85 12.75 -126.8 12.15 -126.8 12.2 -127.75 12.1 -129.4 13.1 -129.4 13.5 -129.45 13.55 -128.4 M12.7 -131.7 Q12.65 -132.4 12.85 -132.75 L13.35 -133.1 Q13.7 -133.15 13.75 -132.35 13.75 -131.45 13.25 -130.75 12.7 -130.75 12.7 -131.7 M12.1 -135.15 L12.25 -134.7 12.35 -134.05 12.15 -133.2 11.9 -133.05 Q11.3 -133.35 11.25 -134.45 L11.35 -135.1 Q11.5 -135.3 11.9 -135.3 L12.1 -135.15 M19.2 -131.1 Q19.05 -130.3 18.45 -130.3 18.1 -130.3 18.1 -131.3 18.0 -132.1 18.2 -132.55 L18.85 -133.0 Q19.2 -133.0 19.25 -131.95 L19.2 -131.1 M15.7 -131.55 L15.85 -131.55 16.05 -130.65 Q16.1 -129.55 15.6 -129.4 15.2 -129.85 15.2 -130.7 15.05 -131.55 15.7 -131.55 M16.35 -134.55 L16.4 -134.7 Q16.6 -135.6 16.85 -135.6 17.15 -135.65 17.2 -134.45 L17.2 -133.55 17.05 -133.1 16.55 -132.7 16.35 -132.7 16.35 -132.8 16.15 -133.45 16.35 -134.55 M-21.6 -168.45 L-21.45 -168.55 -21.05 -168.6 -20.15 -168.05 Q-20.35 -167.8 -20.85 -167.8 L-21.05 -167.85 -21.3 -167.95 -21.4 -168.05 -21.65 -168.25 -21.65 -168.3 -21.7 -168.35 -21.65 -168.4 -21.6 -168.45 M-8.1 -164.7 Q-8.15 -163.95 -8.6 -163.5 -9.0 -163.95 -9.0 -164.75 -8.95 -165.85 -8.6 -165.8 -8.0 -165.8 -8.1 -164.7 M-7.65 -162.75 Q-6.45 -162.7 -6.75 -161.4 -6.8 -159.8 -7.25 -159.4 L-8.05 -160.5 -8.1 -161.45 Q-8.05 -162.75 -7.65 -162.75 M-3.1 -162.8 Q-3.05 -163.95 -2.65 -163.95 L-2.2 -163.85 Q-1.25 -163.8 -1.1 -161.2 -1.25 -159.55 -1.7 -159.6 -2.35 -159.6 -2.8 -161.2 L-3.1 -162.8 M-17.05 -166.85 L-16.95 -166.85 Q-16.7 -166.85 -16.6 -166.55 -16.45 -166.3 -16.45 -165.75 -16.45 -165.3 -16.75 -165.0 -17.35 -165.35 -17.3 -166.15 L-17.05 -166.85 M-15.05 -164.0 Q-15.05 -164.75 -14.4 -164.75 L-13.9 -164.5 -13.75 -163.95 Q-13.75 -163.25 -14.45 -163.3 -14.75 -163.3 -14.9 -163.5 L-15.05 -164.0 M-12.8 -162.5 Q-12.5 -162.3 -12.5 -161.65 -12.55 -161.1 -13.05 -160.65 -13.4 -160.8 -13.4 -161.3 -13.35 -162.25 -12.8 -162.5 M-10.65 -158.65 Q-9.8 -158.6 -10.05 -157.6 -10.1 -155.45 -11.05 -155.45 -11.45 -155.5 -11.5 -156.1 L-11.45 -156.75 -11.3 -157.75 -10.85 -158.6 -10.65 -158.65 M-13.45 -158.45 Q-12.55 -158.4 -12.75 -157.5 -12.8 -155.9 -14.0 -155.95 L-14.25 -156.35 -14.25 -156.8 -14.1 -157.65 -13.8 -158.25 -13.45 -158.45 M-14.3 -154.7 Q-13.85 -154.45 -14.05 -153.4 L-14.4 -151.95 -14.6 -151.5 Q-15.25 -151.9 -15.15 -153.35 -15.1 -154.85 -14.7 -154.8 L-14.3 -154.7 M-19.25 -148.55 Q-19.3 -148.0 -19.85 -147.45 -20.25 -147.8 -20.25 -148.3 L-20.1 -148.9 -19.45 -149.35 Q-19.2 -149.35 -19.25 -148.55 M-11.85 -152.2 L-12.15 -151.0 Q-12.15 -150.4 -12.45 -149.6 -12.95 -148.45 -13.6 -148.45 -13.9 -148.45 -14.0 -149.1 L-14.0 -149.75 -13.35 -151.5 Q-12.65 -153.1 -12.1 -153.1 -11.85 -153.1 -11.85 -152.2 M-0.4 -158.5 Q-0.15 -158.0 -0.15 -157.25 -0.15 -156.55 -0.4 -156.05 -0.6 -155.55 -0.9 -155.55 -1.2 -155.55 -1.45 -156.05 L-1.65 -157.25 -1.45 -158.5 -0.9 -159.0 Q-0.6 -159.0 -0.4 -158.5 M-3.05 -156.4 Q-2.05 -156.4 -1.95 -153.8 -2.0 -153.15 -2.3 -152.9 L-2.6 -153.35 -2.85 -153.15 -3.5 -154.2 -3.55 -155.05 -3.45 -155.75 Q-3.35 -156.4 -3.05 -156.4 M-4.5 -157.35 Q-5.2 -157.4 -5.5 -158.3 L-5.7 -159.25 -5.65 -159.95 Q-5.5 -160.6 -5.15 -160.6 -3.8 -160.55 -3.95 -158.4 -3.95 -157.35 -4.5 -157.35 M-7.6 -156.6 Q-7.3 -156.4 -7.4 -155.45 -7.45 -154.2 -8.3 -153.8 -8.65 -154.15 -8.6 -154.95 L-8.5 -155.85 Q-8.3 -156.7 -7.9 -156.7 L-7.6 -156.6 M-5.85 -152.75 L-5.35 -152.4 Q-5.2 -152.1 -5.3 -151.45 -5.35 -150.65 -5.75 -149.9 L-5.95 -149.85 Q-6.3 -150.5 -6.25 -151.45 L-6.25 -152.1 Q-6.15 -152.75 -5.85 -152.75 M-9.8 -150.4 L-9.7 -151.25 Q-9.55 -152.05 -9.25 -152.0 -8.3 -151.95 -8.45 -150.85 -8.5 -149.85 -9.3 -149.1 -9.6 -149.35 -9.7 -149.9 L-9.8 -150.4 M-0.35 -151.85 L-0.15 -150.95 -0.35 -150.05 -0.8 -149.7 -1.3 -150.05 -1.5 -150.95 -1.3 -151.85 -0.8 -152.2 -0.35 -151.85 M-3.0 -148.7 L-2.95 -148.05 -3.15 -147.2 -3.3 -147.2 Q-3.55 -147.2 -3.6 -147.6 L-3.6 -148.05 Q-3.55 -148.95 -3.15 -148.95 L-3.0 -148.7 M-4.95 -143.75 Q-5.5 -142.85 -6.0 -142.9 L-6.25 -143.75 -4.7 -146.3 Q-4.2 -146.3 -4.25 -145.35 -4.25 -144.85 -4.85 -143.9 L-4.95 -143.75 M-8.6 -146.9 Q-8.55 -148.35 -7.9 -148.3 -7.1 -148.25 -7.3 -146.95 -7.35 -145.75 -7.8 -145.25 -8.65 -145.85 -8.6 -146.9 M-7.65 -140.25 L-7.75 -139.85 -9.6 -139.55 -11.75 -138.25 -9.8 -140.2 -11.05 -140.5 -11.15 -140.55 -11.75 -140.65 -12.05 -140.75 -12.75 -140.95 Q-13.55 -141.35 -13.75 -142.25 L-14.0 -143.6 Q-14.15 -144.55 -14.45 -144.7 L-16.8 -145.3 -16.75 -145.3 -15.8 -145.5 -14.75 -145.6 -12.55 -145.15 -12.9 -144.0 Q-12.95 -142.35 -12.1 -141.7 L-11.6 -141.45 -11.0 -141.35 -10.9 -141.35 Q-10.35 -141.35 -9.65 -141.8 -8.85 -142.3 -8.95 -142.95 -7.85 -141.8 -7.65 -140.25 M-3.15 -139.9 Q-3.1 -140.85 -2.8 -140.85 -2.15 -140.8 -2.2 -139.65 -2.2 -139.15 -2.6 -138.7 -3.2 -138.85 -3.15 -139.9 M-17.2 -146.65 L-17.45 -147.5 -16.0 -149.25 Q-15.75 -149.25 -15.8 -148.4 -15.85 -146.85 -17.2 -146.65 M-19.0 -144.1 Q-19.0 -143.35 -19.35 -143.35 L-19.5 -143.35 Q-20.3 -143.45 -20.45 -143.85 L-20.5 -144.35 Q-20.45 -145.2 -20.05 -145.15 -18.95 -145.15 -19.0 -144.1 M-17.55 -142.15 Q-17.5 -143.25 -17.1 -143.25 L-16.6 -141.65 Q-16.65 -140.9 -16.95 -140.9 -17.45 -140.9 -17.55 -141.5 L-17.55 -142.15 M-20.15 -140.3 L-20.2 -140.95 Q-20.15 -142.4 -19.6 -142.35 -18.9 -142.35 -19.0 -140.75 -19.05 -139.95 -19.25 -139.75 L-19.4 -139.65 Q-19.7 -139.7 -19.9 -139.85 L-19.95 -139.9 -20.15 -140.3 M-18.05 -136.85 Q-18.65 -136.9 -18.8 -137.45 L-18.8 -138.1 Q-18.75 -138.95 -18.5 -139.2 L-18.25 -139.3 Q-17.95 -139.25 -17.75 -138.0 L-17.7 -137.7 -17.85 -137.05 -18.05 -136.85 M-16.4 -136.8 L-15.8 -135.1 Q-15.8 -134.35 -16.15 -134.35 -16.75 -134.4 -16.9 -135.05 L-16.95 -135.75 -16.8 -136.55 -16.4 -136.8 M-16.15 -137.6 Q-16.55 -137.7 -16.65 -138.15 L-16.6 -138.75 Q-16.6 -139.65 -16.15 -139.85 -15.65 -138.7 -15.65 -138.35 L-15.75 -137.75 Q-15.85 -137.6 -16.0 -137.6 L-16.15 -137.6 M-13.25 -140.15 Q-13.0 -139.85 -13.0 -139.3 -13.05 -138.85 -13.45 -138.6 L-13.45 -138.7 -13.65 -139.35 Q-13.65 -139.95 -13.25 -140.15 M-14.35 -138.2 Q-14.15 -137.9 -14.1 -136.85 -14.1 -136.15 -14.5 -136.05 L-14.75 -136.8 -14.95 -137.5 -14.9 -137.65 -14.7 -138.25 -14.5 -138.25 -14.35 -138.2 M-11.95 -137.2 Q-11.7 -136.85 -11.75 -136.35 L-11.85 -135.95 -12.15 -135.65 -12.4 -136.4 -11.95 -137.2 M-13.85 -135.2 L-13.6 -135.35 -13.1 -135.1 -13.0 -134.45 Q-13.05 -133.35 -13.65 -133.05 L-13.9 -133.25 -14.1 -134.05 -14.0 -134.7 -13.85 -135.2 M-15.0 -130.75 Q-15.5 -131.5 -15.45 -132.35 -15.45 -133.15 -15.1 -133.15 L-14.55 -132.75 Q-14.4 -132.45 -14.4 -131.75 -14.45 -130.75 -15.0 -130.75 M-18.95 -134.45 Q-18.9 -135.65 -18.55 -135.65 -18.35 -135.65 -18.15 -134.7 L-18.1 -134.55 -17.9 -133.45 -18.05 -132.8 -18.1 -132.75 -18.3 -132.7 -18.8 -133.1 -18.9 -133.6 -18.95 -134.45 M-19.8 -131.3 Q-19.85 -130.3 -20.2 -130.3 -20.8 -130.35 -20.95 -131.15 L-21.0 -132.0 Q-20.95 -133.0 -20.55 -133.0 -20.1 -133.0 -19.9 -132.55 L-19.8 -131.3 M-17.45 -131.6 Q-16.8 -131.55 -16.9 -130.75 -16.95 -129.85 -17.35 -129.45 -17.85 -129.6 -17.8 -130.65 L-17.55 -131.55 -17.45 -131.6 M-17.15 -128.0 L-16.95 -128.0 Q-16.4 -127.95 -16.15 -127.55 -15.9 -127.15 -16.0 -126.3 -16.1 -125.05 -16.5 -125.05 -17.15 -125.1 -17.35 -126.15 L-17.4 -127.2 -17.15 -128.0 M-10.95 -127.75 Q-10.7 -127.85 -10.65 -127.9 L-10.4 -127.6 -10.4 -127.5 -10.7 -127.35 -10.95 -127.75 M-15.1 -127.6 L-15.15 -127.85 -15.3 -128.4 Q-15.25 -129.45 -14.85 -129.45 -13.85 -129.4 -13.9 -127.75 -13.9 -126.8 -14.5 -126.85 -14.85 -126.85 -15.1 -127.6 M-10.6 -125.75 L-10.9 -125.6 -11.1 -126.0 -10.85 -126.15 -10.6 -125.9 -10.6 -125.75 M-9.45 -127.85 L-9.5 -128.2 -9.25 -128.25 -9.0 -128.0 -9.25 -127.7 -9.45 -127.85 M-9.15 -127.05 L-9.05 -127.05 -8.8 -126.8 -9.1 -126.5 -9.3 -126.65 -9.35 -127.0 -9.15 -127.05 M-8.6 -124.9 L-8.35 -124.65 Q-8.35 -124.45 -8.65 -124.35 L-8.85 -124.45 -8.9 -124.65 -8.6 -124.9 M-7.25 -126.15 L-7.3 -126.5 -7.05 -126.55 -6.8 -126.3 -7.05 -126.0 -7.25 -126.15 M-22.45 -142.5 L-22.5 -142.8 -22.45 -143.45 -22.35 -144.35 -22.25 -144.55 -22.1 -144.65 Q-21.35 -144.6 -21.5 -143.75 -21.5 -143.45 -22.0 -142.25 L-22.15 -142.2 -22.45 -142.45 -22.45 -142.5 M-23.85 -140.8 L-23.85 -141.4 -23.7 -142.3 -23.4 -142.65 Q-23.25 -142.65 -23.2 -142.3 L-23.2 -141.4 -23.4 -140.25 -23.55 -140.2 Q-23.85 -140.2 -23.85 -140.8 M-20.55 -137.95 Q-20.55 -137.2 -20.95 -137.1 L-21.8 -138.1 -22.0 -138.85 Q-21.95 -139.65 -21.65 -139.65 -21.0 -139.65 -20.75 -139.2 -20.45 -138.8 -20.55 -137.95 M-22.5 -136.4 Q-22.05 -136.3 -22.15 -134.95 -22.2 -134.15 -22.55 -133.85 L-22.7 -133.95 -22.8 -133.95 Q-23.35 -134.0 -23.4 -134.75 L-23.45 -135.6 Q-23.4 -137.1 -22.75 -137.1 -22.4 -137.1 -22.5 -136.4 M-10.45 -121.1 L-10.4 -120.3 Q-10.45 -119.35 -10.8 -119.35 L-11.45 -119.5 -11.8 -119.9 -11.85 -120.45 -11.7 -121.0 -11.15 -120.95 Q-11.05 -120.95 -10.85 -121.1 L-10.65 -121.25 -10.45 -121.1 M-13.15 -122.85 Q-13.2 -121.9 -13.5 -121.75 L-13.9 -122.25 -14.0 -123.0 Q-13.95 -124.0 -13.55 -124.0 L-13.15 -123.7 -13.15 -122.85" fill="#000000" fill-rule="evenodd" stroke="none"/>
    <path d="M6.1 -122.0 L6.15 -121.05 Q6.25 -118.45 5.4 -116.75 L5.4 -116.7 5.35 -116.65 4.6 -116.35 Q4.25 -117.5 3.25 -118.4 L2.45 -118.95 2.4 -118.95 Q1.05 -119.8 0.0 -119.95 L-0.05 -120.0 -1.7 -120.0 Q-2.8 -119.85 -4.15 -119.0 L-4.2 -118.95 -4.95 -118.45 Q-6.0 -117.55 -6.3 -116.4 L-7.1 -116.75 Q-8.0 -118.45 -7.9 -121.1 L-7.8 -122.0 -7.8 -122.05 -7.45 -122.05 -7.25 -122.05 -6.9 -121.1 Q-6.35 -119.85 -5.6 -119.25 L-5.25 -120.55 -5.05 -121.1 -4.7 -121.75 -3.95 -121.1 -3.5 -120.45 -3.1 -121.1 -2.75 -121.6 -2.35 -121.1 -1.9 -120.6 -1.7 -121.1 -1.0 -121.8 -0.65 -121.8 0.0 -121.05 0.2 -120.55 0.6 -121.05 1.0 -121.6 1.35 -121.05 1.75 -120.45 2.2 -121.05 2.95 -121.7 3.35 -121.05 3.5 -120.5 3.85 -119.2 Q4.6 -119.85 5.15 -121.05 L5.5 -122.05 5.7 -122.0 6.1 -122.0" fill="#660000" fill-rule="evenodd" stroke="none"/>
    <path d="M5.35 -116.65 L5.0 -116.1 5.0 -116.05 4.95 -116.05 Q3.25 -113.7 -0.7 -113.5 L-1.0 -113.5 Q-5.05 -113.75 -6.7 -116.05 L-6.7 -116.1 -6.75 -116.15 -7.1 -116.7 -7.1 -116.75 -6.3 -116.4 -5.95 -116.2 -5.55 -116.9 -5.05 -117.35 -4.7 -116.35 Q-4.5 -115.5 -4.3 -115.5 L-3.45 -116.2 -2.9 -115.65 -2.5 -115.25 -1.75 -115.95 -1.15 -115.05 -0.95 -115.0 -0.6 -115.0 0.0 -115.95 0.75 -115.2 1.15 -115.65 1.7 -116.15 Q2.35 -115.45 2.55 -115.5 2.75 -115.5 3.0 -116.35 L3.3 -117.3 Q3.55 -117.35 3.85 -116.9 L4.2 -116.2 Q4.25 -116.2 4.6 -116.35 L5.35 -116.65 M1.55 -122.95 Q2.25 -122.6 3.15 -122.4 L5.5 -122.05 5.15 -121.05 Q4.6 -119.85 3.85 -119.2 L3.5 -120.5 3.35 -121.05 2.95 -121.7 2.2 -121.05 1.75 -120.45 1.35 -121.05 1.0 -121.6 0.6 -121.05 0.2 -120.55 0.0 -121.05 -0.65 -121.8 -1.0 -121.8 -1.7 -121.1 -1.9 -120.6 -2.35 -121.1 -2.75 -121.6 -3.1 -121.1 -3.5 -120.45 -3.95 -121.1 -4.7 -121.75 -5.05 -121.1 -5.25 -120.55 -5.6 -119.25 Q-6.35 -119.85 -6.9 -121.1 L-7.25 -122.05 -4.85 -122.4 Q-4.0 -122.65 -3.3 -123.0 L1.55 -122.95" fill="#ffffff" fill-rule="evenodd" stroke="none"/>
    <path d="M-6.3 -116.4 Q-6.0 -117.55 -4.95 -118.45 L-4.2 -118.95 -4.15 -119.0 Q-2.8 -119.85 -1.7 -120.0 L-0.05 -120.0 0.0 -119.95 Q1.05 -119.8 2.4 -118.95 L2.45 -118.95 3.25 -118.4 Q4.25 -117.5 4.6 -116.35 4.25 -116.2 4.2 -116.2 L3.85 -116.9 Q3.55 -117.35 3.3 -117.3 L3.0 -116.35 Q2.75 -115.5 2.55 -115.5 2.35 -115.45 1.7 -116.15 L1.15 -115.65 0.75 -115.2 0.0 -115.95 -0.6 -115.0 -0.95 -115.0 -1.15 -115.05 -1.75 -115.95 -2.5 -115.25 -2.9 -115.65 -3.45 -116.2 -4.3 -115.5 Q-4.5 -115.5 -4.7 -116.35 L-5.05 -117.35 -5.55 -116.9 -5.95 -116.2 -6.3 -116.4" fill="#ff6666" fill-rule="evenodd" stroke="none"/>
    <path d="M19.4 -167.45 L19.75 -166.0 19.25 -163.35 19.1 -162.75 19.15 -162.35 Q19.6 -162.7 19.65 -163.2 L19.8 -161.4 Q19.9 -158.65 18.95 -154.05 18.05 -153.2 17.9 -152.0 17.2 -152.25 16.4 -154.05 L14.85 -157.5 14.45 -158.3 14.4 -158.15 14.15 -157.2 14.1 -157.1 14.1 -157.15 13.25 -158.75 Q12.7 -160.05 12.65 -161.15 12.6 -161.6 13.85 -162.8 L15.55 -164.3 17.65 -166.0 17.55 -166.1 17.1 -166.15 19.4 -167.45 M4.4 -166.7 L4.9 -166.6 6.95 -166.0 7.45 -165.8 9.4 -164.95 9.2 -163.85 Q9.05 -163.15 9.05 -162.25 L9.05 -162.05 8.9 -161.7 Q8.4 -160.8 6.5 -159.0 L4.95 -157.45 Q3.7 -156.2 3.6 -155.7 L2.5 -152.9 1.35 -150.6 0.6 -149.0 0.6 -148.95 Q0.05 -147.85 -0.15 -147.15 -0.15 -148.1 -0.75 -148.1 L-0.9 -148.05 -0.95 -148.1 Q-1.6 -148.05 -1.6 -147.2 L-2.3 -149.0 -2.35 -149.0 -3.1 -150.6 -4.25 -152.95 -5.35 -155.7 Q-5.45 -156.2 -6.7 -157.5 L-8.25 -159.05 -10.6 -161.7 -10.75 -162.1 -10.8 -162.3 Q-10.8 -163.15 -10.95 -163.85 L-11.1 -164.95 Q-10.2 -165.5 -9.15 -165.85 L-8.65 -166.0 -6.7 -166.6 -6.15 -166.75 -6.15 -166.6 -6.2 -166.35 -6.05 -165.55 -5.6 -164.75 Q-4.65 -164.75 -4.7 -166.1 L-4.7 -166.6 -4.8 -167.1 -2.85 -167.5 -0.15 -167.6 1.15 -167.5 3.05 -167.05 2.95 -166.6 2.95 -166.05 Q2.9 -164.7 3.9 -164.75 4.1 -164.75 4.3 -165.5 L4.45 -166.3 4.45 -166.6 4.4 -166.7 M1.55 -166.15 L0.85 -166.85 -0.85 -167.1 -2.55 -166.85 -3.25 -166.2 -3.25 -166.05 -2.55 -165.45 -1.4 -165.2 -0.85 -165.15 0.25 -165.25 0.85 -165.45 1.5 -165.9 1.55 -166.05 1.55 -166.15 M1.35 -162.75 Q1.3 -163.95 0.95 -163.9 L0.45 -163.8 Q-0.45 -163.75 -0.65 -161.2 -0.5 -159.55 -0.05 -159.55 0.6 -159.6 1.05 -161.2 L1.35 -162.75 M6.85 -165.8 Q6.25 -165.75 6.35 -164.65 6.4 -163.95 6.85 -163.45 7.3 -163.9 7.25 -164.75 L7.15 -165.55 6.85 -165.8 M5.9 -162.75 Q4.7 -162.7 5.0 -161.35 5.05 -159.8 5.5 -159.35 L6.35 -160.5 6.4 -161.45 Q6.35 -162.75 5.9 -162.75 M3.4 -160.55 Q2.05 -160.5 2.2 -158.4 2.25 -157.35 2.75 -157.35 3.45 -157.4 3.8 -158.25 L4.0 -159.25 3.9 -159.95 Q3.75 -160.6 3.4 -160.55 M1.3 -156.4 Q0.3 -156.35 0.25 -153.8 0.25 -153.1 0.55 -152.9 L0.9 -153.35 1.15 -153.15 1.75 -154.2 1.8 -155.0 1.75 -155.75 Q1.6 -156.4 1.3 -156.4 M2.35 -130.4 L2.3 -130.8 4.6 -139.45 4.75 -139.95 4.95 -139.7 5.0 -139.6 5.2 -139.3 6.5 -137.2 6.3 -136.8 5.35 -132.9 4.85 -130.7 4.75 -130.45 4.65 -130.05 3.2 -130.45 2.35 -130.4 M-7.1 -132.9 L-8.05 -136.8 -8.2 -137.25 -6.95 -139.3 -6.75 -139.6 -6.5 -139.95 -6.35 -139.5 -6.35 -139.45 -4.05 -130.8 -4.1 -130.4 -4.9 -130.5 -6.3 -130.15 -6.35 -130.35 -6.6 -130.75 -7.1 -132.9 M-21.15 -167.45 L-21.1 -167.45 -18.8 -166.2 -19.3 -166.15 -19.4 -166.0 -19.1 -165.8 -17.3 -164.3 -15.6 -162.8 Q-14.35 -161.6 -14.35 -161.15 -14.4 -160.05 -15.0 -158.8 L-15.85 -157.2 -15.85 -157.1 -15.9 -157.2 -16.15 -158.15 -16.2 -158.3 -16.25 -158.2 -16.6 -157.5 -18.1 -154.1 Q-18.95 -152.3 -19.6 -152.05 -19.75 -153.25 -20.65 -154.1 -21.65 -158.65 -21.55 -161.45 L-21.35 -163.25 Q-21.35 -162.7 -20.85 -162.35 L-20.85 -162.8 -20.95 -163.35 -21.45 -166.0 Q-21.4 -167.15 -21.15 -167.45 M-3.1 -162.8 L-2.8 -161.2 Q-2.35 -159.6 -1.7 -159.6 -1.25 -159.55 -1.1 -161.2 -1.25 -163.8 -2.2 -163.85 L-2.65 -163.95 Q-3.05 -163.95 -3.1 -162.8 M-7.65 -162.75 Q-8.05 -162.75 -8.1 -161.45 L-8.05 -160.5 -7.25 -159.4 Q-6.8 -159.8 -6.75 -161.4 -6.45 -162.7 -7.65 -162.75 M-8.1 -164.7 Q-8.0 -165.8 -8.6 -165.8 -8.95 -165.85 -9.0 -164.75 -9.0 -163.95 -8.6 -163.5 -8.15 -163.95 -8.1 -164.7 M-4.5 -157.35 Q-3.95 -157.35 -3.95 -158.4 -3.8 -160.55 -5.15 -160.6 -5.5 -160.6 -5.65 -159.95 L-5.7 -159.25 -5.5 -158.3 Q-5.2 -157.4 -4.5 -157.35 M-3.05 -156.4 Q-3.35 -156.4 -3.45 -155.75 L-3.55 -155.05 -3.5 -154.2 -2.85 -153.15 -2.6 -153.35 -2.3 -152.9 Q-2.0 -153.15 -1.95 -153.8 -2.05 -156.4 -3.05 -156.4 M-0.4 -158.5 Q-0.6 -159.0 -0.9 -159.0 L-1.45 -158.5 -1.65 -157.25 -1.45 -156.05 Q-1.2 -155.55 -0.9 -155.55 -0.6 -155.55 -0.4 -156.05 -0.15 -156.55 -0.15 -157.25 -0.15 -158.0 -0.4 -158.5 M-0.35 -151.85 L-0.8 -152.2 -1.3 -151.85 -1.5 -150.95 -1.3 -150.05 -0.8 -149.7 -0.35 -150.05 -0.15 -150.95 -0.35 -151.85" fill="#000000" fill-opacity="0.2509804" fill-rule="evenodd" stroke="none"/>
    <path d="M19.4 -167.45 L19.75 -167.6 20.0 -167.7 21.35 -168.25 23.35 -168.75 23.4 -168.75 23.55 -164.3 24.05 -164.2 Q23.85 -162.5 23.3 -160.85 22.5 -158.25 21.0 -155.95 L19.75 -154.65 18.95 -154.05 Q19.9 -158.65 19.8 -161.4 L19.65 -163.2 Q19.6 -162.7 19.15 -162.35 L19.1 -162.75 19.25 -163.35 19.75 -166.0 19.4 -167.45 M-20.65 -154.1 L-21.45 -154.7 -22.7 -155.95 Q-24.2 -158.25 -25.05 -160.9 -25.6 -162.5 -25.8 -164.2 L-25.3 -164.3 -25.1 -168.8 -25.05 -168.8 -23.1 -168.25 -21.95 -167.8 -21.75 -167.7 -21.45 -167.6 -21.2 -167.5 -21.15 -167.5 -21.15 -167.45 Q-21.4 -167.15 -21.45 -166.0 L-20.95 -163.35 -20.85 -162.8 -20.85 -162.35 Q-21.35 -162.7 -21.35 -163.25 L-21.55 -161.45 Q-21.65 -158.65 -20.65 -154.1" fill="#000000" fill-opacity="0.49803922" fill-rule="evenodd" stroke="none"/>
    <path d="M5.35 -132.9 L5.9 -132.75 7.8 -132.4 Q9.0 -131.8 9.7 -131.55 L10.2 -130.65 Q10.95 -129.35 11.1 -127.6 L11.05 -125.2 10.75 -124.0 Q10.15 -122.8 8.65 -122.3 L6.15 -122.0 6.1 -122.0 5.7 -122.0 5.5 -122.05 3.15 -122.4 Q2.25 -122.6 1.55 -122.95 0.3 -123.6 -0.5 -124.6 L-0.25 -126.5 Q1.9 -126.65 2.55 -127.85 L3.3 -129.15 Q3.95 -129.9 4.8 -129.65 L4.8 -130.0 4.65 -130.05 4.75 -130.45 4.85 -130.7 5.35 -132.9 M-7.8 -122.05 L-7.9 -122.05 -10.4 -122.35 Q-11.85 -122.85 -12.45 -124.05 L-12.8 -125.25 -12.85 -127.6 Q-12.7 -129.35 -11.9 -130.65 L-11.45 -131.55 -9.55 -132.4 -7.65 -132.8 -7.1 -132.9 -6.6 -130.75 -6.35 -130.35 -6.3 -130.15 -6.4 -130.1 -6.5 -130.05 -6.55 -129.65 Q-5.65 -129.9 -5.05 -129.15 L-4.25 -127.9 Q-3.65 -126.65 -1.5 -126.55 L-1.2 -124.6 Q-2.05 -123.6 -3.3 -123.0 -4.0 -122.65 -4.85 -122.4 L-7.25 -122.05 -7.45 -122.05 -7.8 -122.05 M7.8 -128.15 L7.5 -128.25 7.25 -128.0 Q7.25 -127.8 7.5 -127.7 L7.75 -127.85 7.8 -128.15 M8.7 -127.45 L8.95 -127.3 9.2 -127.7 8.95 -127.85 8.65 -127.6 8.7 -127.45 M7.35 -127.0 L7.3 -127.05 7.1 -126.8 7.35 -126.5 7.6 -126.65 7.6 -126.95 7.4 -127.0 7.35 -127.0 M5.3 -126.5 L5.05 -126.3 5.3 -126.0 5.55 -126.15 5.55 -126.45 5.3 -126.5 M6.65 -124.6 L6.9 -124.3 7.15 -124.45 7.15 -124.6 6.85 -124.85 6.65 -124.6 M9.35 -126.0 Q9.1 -126.1 9.1 -126.15 L8.85 -125.85 8.9 -125.75 Q8.9 -125.7 9.15 -125.6 L9.35 -126.0 M-10.95 -127.75 L-10.7 -127.35 -10.4 -127.5 -10.4 -127.6 -10.65 -127.9 Q-10.7 -127.85 -10.95 -127.75 M-10.6 -125.75 L-10.6 -125.9 -10.85 -126.15 -11.1 -126.0 -10.9 -125.6 -10.6 -125.75 M-7.25 -126.15 L-7.05 -126.0 -6.8 -126.3 -7.05 -126.55 -7.3 -126.5 -7.25 -126.15 M-8.6 -124.9 L-8.9 -124.65 -8.85 -124.45 -8.65 -124.35 Q-8.35 -124.45 -8.35 -124.65 L-8.6 -124.9 M-9.15 -127.05 L-9.35 -127.0 -9.3 -126.65 -9.1 -126.5 -8.8 -126.8 -9.05 -127.05 -9.15 -127.05 M-9.45 -127.85 L-9.25 -127.7 -9.0 -128.0 -9.25 -128.25 -9.5 -128.2 -9.45 -127.85" fill="#ffffff" fill-opacity="0.2509804" fill-rule="evenodd" stroke="none"/>
    <path d="M14.8 -151.15 Q14.9 -150.75 15.85 -149.75 L16.35 -148.4 16.4 -147.95 16.35 -147.45 16.35 -147.4 16.3 -146.9 16.3 -146.6 M-16.55 -151.2 L-17.55 -149.8 -18.1 -148.45 -18.15 -147.95 -18.1 -147.5 -18.1 -147.45 -18.05 -146.9 -18.0 -146.65" fill="none" stroke="#000000" stroke-linecap="round" stroke-linejoin="round" stroke-width="1.0"/>
  </g>
</svg>
