<?xml version="1.0" encoding="UTF-8" standalone="no"?>
<svg xmlns:xlink="http://www.w3.org/1999/xlink" height="61.05px" width="52.8px" xmlns="http://www.w3.org/2000/svg">
  <g transform="matrix(1.0, 0.0, 0.0, 1.0, 26.45, 174.3)">
    <path d="M11.65 -138.35 Q10.8 -138.45 10.5 -139.0 10.35 -139.3 10.35 -139.75 L10.35 -139.9 10.5 -140.65 Q10.85 -141.4 11.65 -141.4 13.1 -141.4 13.35 -139.7 L13.1 -138.95 Q12.7 -138.35 11.95 -138.35 L11.65 -138.35 M0.2 -116.9 L0.75 -116.6 Q2.0 -115.85 3.45 -115.8 3.5 -114.95 3.0 -114.2 2.65 -113.55 1.95 -113.35 L0.85 -113.3 0.5 -113.5 0.0 -114.1 -0.05 -114.0 -0.65 -113.4 -1.25 -113.25 Q-2.0 -113.25 -2.65 -113.7 L-3.35 -114.65 -3.6 -115.85 -2.85 -115.9 Q-1.45 -116.1 -0.35 -116.9 L0.2 -116.9 M-5.7 -138.35 L-5.65 -138.1 -5.85 -138.3 -5.7 -138.35 M-10.55 -139.85 L-10.55 -139.8 Q-10.55 -139.3 -10.7 -139.05 -11.0 -138.5 -11.8 -138.4 L-11.9 -138.4 -12.15 -138.4 Q-12.95 -138.4 -13.35 -138.95 L-13.55 -139.7 Q-13.35 -141.4 -11.85 -141.4 -11.05 -141.4 -10.75 -140.65 L-10.55 -139.9 -10.55 -139.85" fill="#ffffff" fill-rule="evenodd" stroke="none"/>
    <path d="M10.35 -139.9 L10.35 -139.75 Q10.35 -139.3 10.5 -139.0 10.8 -138.45 11.65 -138.35 L11.75 -137.4 Q11.7 -136.35 10.9 -135.75 10.1 -135.05 9.1 -135.15 8.1 -135.25 7.45 -136.05 6.75 -136.8 6.85 -137.85 L7.1 -138.75 7.75 -139.5 Q8.5 -140.15 9.55 -140.05 L10.35 -139.9 M12.0 -132.4 Q15.85 -134.4 14.65 -138.65 13.4 -142.85 7.6 -141.7 8.5 -142.5 9.85 -142.9 13.5 -144.1 16.05 -139.65 17.65 -136.85 16.6 -135.05 L15.5 -134.0 14.45 -133.2 12.0 -132.4 M-3.95 -124.6 L-3.95 -125.05 Q-3.7 -125.7 -2.7 -126.45 L-1.15 -127.3 -0.4 -127.35 1.05 -127.25 2.6 -126.4 3.85 -125.0 3.8 -124.55 3.8 -124.45 Q2.95 -124.55 2.05 -123.6 1.25 -122.7 0.4 -123.0 L0.2 -116.95 -0.3 -116.95 -0.5 -123.0 Q-1.35 -122.75 -2.2 -123.6 -3.05 -124.6 -3.9 -124.5 L-3.95 -124.6 M-10.55 -139.85 L-9.65 -140.1 Q-8.65 -140.2 -7.85 -139.55 L-7.25 -138.8 -6.95 -137.9 Q-6.9 -136.85 -7.55 -136.1 -8.2 -135.3 -9.2 -135.2 -10.2 -135.1 -11.0 -135.75 -11.8 -136.4 -11.9 -137.45 L-11.8 -138.4 Q-11.0 -138.5 -10.7 -139.05 -10.55 -139.3 -10.55 -139.8 L-10.55 -139.85 M-16.1 -134.4 L-16.7 -135.05 Q-17.75 -136.9 -16.15 -139.7 -13.6 -144.15 -10.0 -142.95 -8.65 -142.5 -7.7 -141.75 -13.5 -142.9 -14.75 -138.7 -15.95 -134.45 -12.1 -132.45 -13.5 -132.7 -14.55 -133.25 -15.15 -133.55 -16.1 -134.4" fill="#000000" fill-rule="evenodd" stroke="none"/>
    <path d="M-26.4 -165.3 Q-26.65 -168.05 -25.35 -171.1 L-24.05 -174.3 Q-21.8 -169.35 -16.55 -167.9 L-15.6 -167.4 Q-13.15 -166.0 -12.9 -163.9 -11.65 -165.85 -9.75 -167.05 L-8.6 -167.75 -9.4 -166.15 Q-6.8 -169.0 -3.65 -169.85 L-4.1 -168.1 Q-3.1 -169.65 0.15 -169.8 3.0 -169.65 3.95 -168.05 L3.55 -169.8 Q6.65 -168.95 9.3 -166.1 L8.5 -167.7 9.65 -167.0 Q11.5 -165.8 12.75 -163.85 13.0 -165.95 15.5 -167.35 L16.45 -167.85 Q21.7 -169.3 23.95 -174.25 L25.2 -171.05 Q25.95 -169.35 26.2 -167.75 L24.2 -170.55 Q25.45 -166.0 22.6 -163.15 19.75 -160.3 18.55 -158.55 17.35 -156.8 17.5 -156.05 L17.9 -154.75 19.0 -155.3 Q20.7 -151.6 20.8 -147.55 20.85 -143.3 21.85 -139.2 18.45 -139.85 17.3 -143.1 16.5 -145.3 14.4 -146.25 10.2 -148.15 6.15 -145.6 2.5 -143.35 2.5 -139.0 2.5 -137.75 3.05 -136.6 L2.95 -136.55 1.9 -136.3 0.7 -135.75 -0.8 -135.8 -2.0 -136.35 -3.05 -136.6 -3.15 -136.65 Q-2.65 -137.8 -2.6 -139.05 -2.6 -143.4 -6.25 -145.65 -10.3 -148.2 -14.5 -146.3 -16.65 -145.35 -17.4 -143.15 -18.55 -139.9 -21.95 -139.25 -21.0 -143.35 -20.9 -147.6 -20.85 -151.65 -19.15 -155.35 L-19.1 -155.35 -18.0 -154.8 -17.6 -156.1 Q-17.45 -156.85 -18.65 -158.6 L-22.75 -163.15 Q-25.55 -166.05 -24.3 -170.6 L-26.4 -165.3 M12.0 -132.4 L14.45 -133.2 15.5 -134.0 12.85 -131.35 Q16.9 -129.25 11.75 -129.75 6.6 -130.25 4.9 -131.65 L3.65 -131.05 5.0 -133.05 5.0 -132.4 Q9.15 -131.85 12.0 -132.4 M3.8 -124.55 L3.85 -125.0 2.6 -126.4 1.05 -127.25 -0.4 -127.35 -1.15 -127.3 -2.7 -126.45 Q-3.7 -125.7 -3.95 -125.05 L-3.95 -124.6 -4.3 -124.6 -4.9 -124.55 Q-5.25 -124.55 -5.25 -124.9 -5.4 -126.0 -4.2 -127.6 -2.95 -129.3 -1.6 -129.3 L-0.65 -129.4 1.5 -129.25 Q2.8 -129.25 4.05 -127.55 5.25 -125.95 5.15 -124.85 L4.8 -124.5 4.2 -124.55 3.8 -124.55 M-12.1 -132.45 Q-9.25 -131.9 -5.15 -132.45 L-5.1 -133.1 -3.75 -131.1 -5.0 -131.7 Q-6.7 -130.3 -11.85 -129.8 -17.0 -129.3 -12.95 -131.4 L-16.1 -134.4 Q-15.15 -133.55 -14.55 -133.25 -13.5 -132.7 -12.1 -132.45" fill="#000000" fill-opacity="0.2509804" fill-rule="evenodd" stroke="none"/>
    <path d="M-26.4 -165.3 L-24.3 -170.6 Q-25.55 -166.05 -22.75 -163.15 L-18.65 -158.6 Q-17.45 -156.85 -17.6 -156.1 L-18.0 -154.8 -19.1 -155.35 -19.15 -155.35 Q-21.45 -156.6 -22.4 -157.75 L-23.85 -159.65 Q-26.15 -162.25 -26.4 -165.3 M19.0 -155.3 L17.9 -154.75 17.5 -156.05 Q17.35 -156.8 18.55 -158.55 19.75 -160.3 22.6 -163.15 25.45 -166.0 24.2 -170.55 L26.2 -167.75 Q26.9 -163.25 23.75 -159.6 L22.3 -157.7 Q21.35 -156.55 19.0 -155.3" fill="#000000" fill-opacity="0.49803922" fill-rule="evenodd" stroke="none"/>
  </g>
</svg>
