<?xml version="1.0" encoding="UTF-8" standalone="no"?>
<svg xmlns:xlink="http://www.w3.org/1999/xlink" height="98.35px" width="93.5px" xmlns="http://www.w3.org/2000/svg">
  <g transform="matrix(1.0, 0.0, 0.0, 1.0, 46.9, 192.5)">
    <path d="M15.75 -156.95 Q30.85 -159.5 39.7 -168.3 45.95 -174.6 44.4 -192.5 54.5 -160.2 18.45 -152.85 L18.4 -152.9 Q16.8 -154.9 15.75 -156.95 M12.4 -147.8 L14.7 -148.75 16.0 -147.45 Q21.8 -143.1 18.2 -138.0 L19.55 -139.1 Q20.4 -139.95 20.85 -140.95 24.65 -133.8 25.85 -126.65 23.85 -129.6 20.55 -130.75 L20.35 -129.2 Q19.5 -122.65 17.3 -116.45 13.05 -104.6 3.95 -94.15 12.95 -109.55 13.5 -123.45 L9.6 -118.05 Q5.15 -115.15 -0.15 -113.7 -5.45 -115.15 -9.9 -118.05 L-13.8 -123.45 Q-13.25 -109.55 -4.25 -94.15 -13.35 -104.6 -17.55 -116.45 -19.8 -122.65 -20.65 -129.2 L-20.85 -130.75 Q-24.15 -129.6 -26.15 -126.65 -24.95 -133.8 -21.1 -140.95 L-19.85 -139.1 -18.5 -138.0 Q-22.15 -143.1 -16.3 -147.45 L-15.0 -148.75 -12.7 -147.8 Q-14.45 -146.0 -12.6 -144.5 -9.95 -144.9 -9.35 -146.5 -8.5 -146.1 -7.9 -146.05 L-5.8 -136.95 Q-8.2 -134.95 -8.8 -129.2 L-8.9 -127.6 -8.95 -127.2 -8.85 -125.55 Q-8.0 -121.8 -0.15 -121.4 7.7 -121.8 8.55 -125.55 L8.65 -127.2 8.6 -127.6 8.5 -129.2 Q7.85 -134.95 5.5 -136.9 L7.6 -146.05 Q8.2 -146.1 9.05 -146.5 9.65 -144.9 12.3 -144.5 14.15 -146.0 12.4 -147.8 M30.6 -144.9 Q26.35 -141.7 21.6 -146.05 L19.55 -148.25 18.7 -149.3 Q25.0 -144.4 30.6 -144.9 M-18.75 -152.85 Q-54.8 -160.2 -44.7 -192.5 -46.25 -174.6 -40.0 -168.3 -31.15 -159.5 -16.05 -156.95 -17.1 -154.9 -18.7 -152.9 L-18.75 -152.85" fill="#000000" fill-opacity="0.2509804" fill-rule="evenodd" stroke="none"/>
    <path d="M12.4 -147.8 Q14.15 -146.0 12.3 -144.5 9.65 -144.9 9.05 -146.5 L12.4 -147.8 M-9.35 -146.5 Q-9.95 -144.9 -12.6 -144.5 -14.45 -146.0 -12.7 -147.8 L-9.35 -146.5" fill="#ffffcc" fill-rule="evenodd" stroke="none"/>
  </g>
</svg>
