<?xml version="1.0" encoding="UTF-8" standalone="no"?>
<svg xmlns:xlink="http://www.w3.org/1999/xlink" height="78.1px" width="86.25px" xmlns="http://www.w3.org/2000/svg">
  <g transform="matrix(1.0, 0.0, 0.0, 1.0, 43.25, 193.55)">
    <path d="M16.6 -146.6 Q17.35 -148.55 17.4 -150.6 L17.55 -151.2 Q17.7 -152.55 16.8 -153.4 L18.05 -153.6 26.2 -150.75 Q29.3 -154.1 32.95 -156.0 31.85 -148.55 24.35 -146.55 L18.75 -150.35 19.5 -149.3 21.4 -145.95 21.85 -144.95 Q23.8 -139.75 20.95 -135.8 26.2 -127.5 25.05 -117.2 23.8 -125.1 18.7 -128.7 16.25 -124.35 15.65 -118.85 15.65 -117.1 14.95 -115.45 14.75 -117.35 14.0 -118.8 L13.9 -119.05 13.75 -119.4 13.4 -120.5 Q12.75 -121.9 11.6 -122.25 L10.2 -122.3 Q7.7 -131.6 10.45 -140.1 L10.5 -140.1 Q11.05 -139.8 11.8 -140.1 L12.65 -140.55 Q17.4 -139.85 17.95 -142.7 18.05 -144.95 16.6 -146.6 M19.3 -155.6 Q18.6 -158.1 18.6 -160.7 L34.75 -167.7 Q41.95 -171.2 39.15 -193.55 42.2 -183.6 42.95 -173.55 43.8 -162.8 31.55 -159.9 L19.3 -155.6 M-12.85 -140.55 L-12.0 -140.1 Q-11.25 -139.8 -10.75 -140.1 L-10.7 -140.1 Q-7.95 -131.6 -10.45 -122.3 L-11.8 -122.25 Q-13.0 -121.9 -13.6 -120.4 L-13.8 -119.7 -13.95 -119.4 -14.1 -119.05 -14.25 -118.8 Q-14.95 -117.35 -15.15 -115.45 -15.9 -117.1 -15.9 -118.85 -16.5 -124.35 -18.95 -128.7 -24.05 -125.1 -25.3 -117.2 -26.45 -127.45 -21.15 -135.8 -24.05 -139.8 -22.0 -145.05 L-21.6 -146.05 -19.75 -149.3 -18.95 -150.35 -24.6 -146.55 Q-32.1 -148.55 -33.15 -156.0 -29.5 -154.1 -26.4 -150.75 L-18.25 -153.6 -17.0 -153.4 Q-17.9 -152.55 -17.75 -151.2 L-17.65 -150.6 Q-17.55 -148.55 -16.8 -146.6 -18.3 -144.95 -18.15 -142.7 -17.65 -139.85 -12.85 -140.55 M-18.8 -160.7 Q-18.85 -158.05 -19.55 -155.55 L-31.75 -159.9 Q-44.05 -162.8 -43.2 -173.55 -42.4 -183.6 -39.4 -193.55 -42.2 -171.2 -35.0 -167.7 L-18.8 -160.7" fill="#000000" fill-opacity="0.2509804" fill-rule="evenodd" stroke="none"/>
    <path d="M12.65 -140.55 Q15.45 -143.55 16.6 -146.6 18.05 -144.95 17.95 -142.7 17.4 -139.85 12.65 -140.55 M-16.8 -146.6 Q-15.7 -143.55 -12.85 -140.55 -17.65 -139.85 -18.15 -142.7 -18.3 -144.95 -16.8 -146.6" fill="#ffffcc" fill-rule="evenodd" stroke="none"/>
  </g>
</svg>
