<?xml version="1.0" encoding="UTF-8" standalone="no"?>
<svg xmlns:xlink="http://www.w3.org/1999/xlink" height="70.5px" width="69.25px" xmlns="http://www.w3.org/2000/svg">
  <g transform="matrix(1.0, 0.0, 0.0, 1.0, 34.6, 173.45)">
    <path d="M-17.15 -140.2 L-17.05 -140.35 -17.6 -138.8 -17.7 -138.85 -17.15 -140.2" fill="#996633" fill-rule="evenodd" stroke="none"/>
    <path d="M7.65 -117.4 Q7.6 -119.05 8.6 -120.45 L10.4 -122.0 11.2 -122.4 12.0 -122.65 12.05 -122.65 12.8 -122.95 15.65 -124.45 16.4 -125.3 18.1 -128.55 Q18.7 -130.15 18.7 -131.8 L18.45 -135.3 18.45 -135.5 18.1 -137.75 18.1 -137.85 17.75 -138.75 18.3 -138.95 20.0 -135.65 20.15 -135.3 21.1 -132.6 Q21.7 -130.9 21.35 -129.2 21.05 -127.3 20.4 -125.5 L19.05 -122.35 18.1 -120.75 Q17.2 -119.35 15.95 -118.25 L13.95 -117.0 12.05 -116.25 11.8 -115.3 Q11.4 -114.2 10.25 -113.2 9.95 -112.95 9.5 -112.85 L9.2 -112.8 8.65 -112.65 7.55 -112.45 7.5 -112.5 7.95 -113.1 8.7 -115.2 8.7 -116.3 7.65 -117.4 M-7.5 -112.5 L-8.6 -112.7 -9.45 -112.9 Q-9.9 -113.0 -10.2 -113.25 -11.35 -114.25 -11.75 -115.35 L-12.0 -116.3 -12.55 -116.5 -13.9 -117.05 -15.9 -118.3 Q-17.15 -119.4 -18.05 -120.75 L-19.0 -122.35 -20.35 -125.5 -21.3 -129.25 Q-21.65 -130.95 -21.05 -132.65 L-20.05 -135.35 -20.0 -135.35 -19.85 -135.7 Q-19.2 -137.45 -18.15 -139.0 L-17.15 -140.2 -17.7 -138.85 -17.6 -138.8 -17.95 -137.9 -18.0 -137.8 -18.3 -135.55 -18.35 -135.35 -18.4 -135.35 -18.65 -131.85 Q-18.65 -130.15 -18.05 -128.6 -17.35 -126.9 -16.35 -125.35 L-15.6 -124.5 Q-14.3 -123.5 -12.75 -123.0 L-12.15 -122.75 -11.95 -122.7 -11.15 -122.4 -10.35 -122.05 -9.35 -121.35 -8.75 -120.75 -8.55 -120.5 Q-7.55 -119.1 -7.6 -117.45 L-8.65 -116.35 -8.65 -115.25 -7.9 -113.15 -7.45 -112.55 -7.5 -112.5 M0.05 -113.05 L2.15 -112.8 3.55 -112.35 5.2 -111.1 4.1 -110.9 -4.05 -110.95 -5.1 -111.15 -3.5 -112.4 -2.1 -112.85 0.05 -113.05" fill="#ffffcc" fill-rule="evenodd" stroke="none"/>
    <path d="M-12.2 -131.55 L-12.3 -131.55 -12.3 -131.85 -12.2 -131.55" fill="#83572c" fill-rule="evenodd" stroke="none"/>
    <path d="M28.65 -171.45 L27.95 -172.75 29.95 -173.45 34.65 -173.45 30.45 -172.45 28.65 -171.45 M16.55 -160.05 L15.95 -160.05 15.4 -159.45 13.7 -161.95 16.25 -161.95 15.65 -162.8 17.95 -163.1 21.25 -164.5 Q21.3 -164.0 20.0 -163.25 L17.95 -162.1 16.95 -161.1 16.55 -160.25 16.55 -160.05 M12.7 -161.55 L12.75 -161.45 Q13.6 -160.15 14.45 -159.5 L14.9 -159.0 15.15 -158.65 15.55 -157.75 15.65 -156.3 15.65 -155.55 15.55 -152.85 15.4 -152.9 12.3 -150.85 Q10.45 -149.55 9.35 -147.55 L9.05 -147.75 9.05 -148.25 9.5 -149.95 10.25 -151.95 10.75 -152.95 12.8 -157.7 12.8 -159.2 Q12.8 -159.95 12.15 -161.1 L12.1 -161.15 Q11.45 -162.3 11.4 -162.75 L12.6 -161.65 12.7 -161.55 M8.45 -164.55 L8.1 -162.8 7.05 -160.2 Q6.2 -158.4 4.6 -157.75 L4.75 -158.95 4.7 -159.55 4.5 -159.5 Q3.3 -158.5 2.8 -157.3 L2.55 -156.5 1.75 -154.95 1.65 -155.0 2.5 -157.4 2.5 -157.45 3.4 -159.4 5.3 -163.7 5.6 -164.5 5.55 -162.65 5.45 -161.15 5.5 -161.2 6.45 -163.05 6.45 -163.1 7.0 -164.4 7.05 -164.45 7.2 -164.75 7.2 -164.4 6.9 -162.9 6.8 -162.45 6.15 -160.55 7.45 -163.1 8.3 -164.95 8.4 -164.95 8.65 -165.95 8.65 -166.0 8.7 -165.7 8.55 -164.9 8.45 -164.55 M6.15 -160.55 L5.7 -159.65 5.75 -159.65 6.15 -160.55 M7.65 -117.4 L8.7 -116.3 8.7 -115.2 7.95 -113.1 7.5 -112.5 7.55 -112.45 6.8 -110.75 4.95 -110.4 4.4 -109.75 Q4.15 -109.55 3.6 -109.5 L3.55 -109.5 3.45 -109.5 2.35 -109.65 2.2 -109.7 2.0 -109.7 0.75 -109.85 0.7 -109.85 0.05 -109.85 -0.65 -109.9 -0.7 -109.85 -2.05 -109.75 -2.15 -109.7 -2.3 -109.7 -3.4 -109.55 -3.5 -109.55 -3.55 -109.55 Q-4.1 -109.6 -4.35 -109.8 L-4.9 -110.45 -6.75 -110.8 -7.5 -112.5 -7.45 -112.55 -7.9 -113.15 -8.65 -115.25 -8.65 -116.35 -7.6 -117.45 -5.6 -119.6 -4.15 -122.7 -3.9 -124.45 -3.9 -125.85 -2.65 -127.25 -1.65 -127.7 -0.15 -127.05 0.3 -127.05 1.7 -127.65 2.7 -127.25 2.7 -127.2 3.95 -125.8 3.95 -124.4 4.2 -122.65 5.65 -119.55 7.65 -117.4 M27.85 -128.1 L27.45 -128.45 27.45 -128.3 27.55 -127.55 27.95 -125.45 27.8 -124.4 27.8 -124.3 Q27.5 -124.9 27.5 -125.25 L27.35 -125.25 26.5 -122.75 26.4 -122.55 Q25.85 -121.45 24.85 -120.75 L24.85 -120.9 26.0 -123.0 26.6 -124.8 26.6 -126.2 27.15 -125.85 26.5 -129.4 27.05 -129.2 24.75 -133.55 27.05 -130.65 28.6 -127.75 27.85 -128.1 M16.5 -146.5 L15.1 -145.15 14.65 -144.9 14.1 -144.55 Q12.85 -143.85 12.6 -142.45 L12.55 -142.25 12.3 -141.45 12.15 -140.85 11.95 -138.95 11.9 -138.3 11.35 -137.3 10.95 -136.9 10.55 -136.65 10.4 -136.5 Q10.25 -136.15 10.45 -135.95 L11.1 -135.55 12.3 -135.35 Q13.7 -135.25 14.65 -136.2 L14.75 -136.25 14.75 -135.7 14.4 -135.35 14.35 -135.3 Q14.05 -135.1 13.75 -135.0 12.75 -134.5 11.65 -134.6 L10.9 -134.8 Q10.2 -135.0 9.55 -135.3 L8.7 -135.7 7.9 -136.2 Q7.15 -136.7 6.7 -137.5 L6.85 -137.75 Q10.6 -136.1 10.85 -140.4 10.9 -141.4 10.15 -142.25 L11.1 -143.15 13.55 -145.15 13.7 -145.3 15.05 -146.25 16.9 -147.55 17.45 -148.0 17.35 -147.75 17.05 -147.3 16.5 -146.5 M-12.3 -131.85 Q-8.35 -133.6 -6.9 -135.35 L-6.85 -135.35 -6.7 -135.5 -6.65 -135.55 -6.6 -135.6 -6.55 -135.65 -6.05 -136.2 -5.9 -136.3 -5.9 -136.35 -5.75 -136.45 -5.75 -136.5 -5.6 -136.75 -5.6 -136.85 -5.2 -137.3 -5.1 -137.45 -4.6 -137.8 -4.7 -138.1 -4.3 -138.4 -4.2 -138.55 -4.0 -138.9 -2.95 -139.05 Q-2.55 -139.25 -2.3 -139.55 L-2.25 -139.65 Q-2.0 -140.1 -2.0 -140.95 L-2.05 -141.55 -2.0 -141.6 -2.0 -141.55 -1.95 -140.95 -1.85 -139.65 -1.8 -139.45 -1.7 -139.45 Q-1.1 -139.45 -0.65 -140.5 L-0.45 -140.95 -0.25 -141.9 -0.45 -142.3 -0.2 -142.4 -0.2 -141.8 -0.15 -140.95 0.25 -140.9 0.25 -140.95 0.25 -141.75 0.25 -142.15 0.5 -140.95 0.7 -140.45 0.8 -140.2 Q1.25 -139.4 1.75 -139.4 L1.85 -139.4 1.9 -139.6 1.9 -140.15 2.0 -140.9 2.05 -141.5 2.1 -141.5 2.05 -140.9 Q2.05 -140.05 2.3 -139.6 L2.35 -139.5 Q2.6 -139.2 3.0 -139.05 L4.05 -138.85 4.15 -138.8 4.25 -138.5 4.35 -138.35 4.75 -138.05 4.65 -137.75 5.15 -137.45 5.7 -136.7 5.85 -136.45 5.9 -136.4 6.0 -136.3 6.05 -136.25 6.2 -136.15 6.7 -135.6 6.85 -135.45 6.95 -135.3 7.25 -135.0 Q8.75 -133.4 12.3 -131.8 L12.2 -131.5 Q10.35 -131.3 7.6 -133.6 L6.6 -134.3 5.55 -132.85 5.65 -132.45 Q5.95 -131.75 6.95 -130.7 L8.3 -129.4 8.2 -129.3 Q7.5 -129.75 6.7 -130.45 L6.25 -130.8 5.4 -131.65 4.85 -131.35 4.7 -131.4 5.05 -132.0 5.15 -132.2 5.4 -132.9 5.55 -133.45 5.4 -135.05 5.4 -135.1 5.35 -135.2 5.15 -135.65 5.1 -135.7 Q4.7 -136.15 3.95 -136.05 L3.05 -135.95 2.55 -135.75 2.15 -135.65 2.0 -135.55 1.9 -135.8 Q2.6 -137.05 2.55 -137.55 L2.55 -137.9 2.3 -137.95 2.05 -138.25 1.9 -138.6 1.35 -138.65 1.25 -138.7 1.15 -138.45 1.15 -137.45 0.7 -136.0 0.45 -135.5 0.4 -135.35 0.3 -134.75 -0.25 -134.8 -0.3 -135.3 -0.4 -135.5 -0.65 -136.0 -1.1 -137.5 -1.1 -138.5 -1.2 -138.7 -1.3 -138.7 -1.85 -138.65 -2.0 -138.3 -2.25 -138.0 Q-2.35 -137.9 -2.5 -137.9 L-2.5 -137.55 Q-2.55 -137.1 -1.85 -135.85 L-1.95 -135.6 -2.1 -135.65 -3.0 -136.0 -3.9 -136.05 Q-4.65 -136.2 -5.05 -135.75 L-5.1 -135.65 -5.3 -135.25 -5.35 -135.1 -5.35 -135.05 -5.5 -133.5 -5.35 -132.95 -5.1 -132.25 -5.05 -132.25 -5.0 -132.05 -4.7 -131.45 -4.65 -131.4 -4.8 -131.4 -5.35 -131.7 -6.2 -130.85 -6.65 -130.45 -8.15 -129.35 -8.25 -129.45 -6.9 -130.75 -6.55 -131.15 -5.6 -132.45 -5.5 -132.9 -6.55 -134.35 -7.55 -133.65 Q-10.3 -131.3 -12.15 -131.55 L-12.2 -131.55 -12.3 -131.85 M0.9 -131.25 L0.4 -131.7 Q0.95 -131.7 1.85 -132.15 L3.0 -132.65 Q3.4 -132.65 3.75 -132.15 L4.0 -131.7 4.0 -131.65 4.05 -131.3 4.05 -131.25 4.05 -131.15 3.85 -130.1 Q3.85 -129.6 4.4 -128.95 L5.6 -127.95 5.55 -127.85 Q4.45 -127.7 3.85 -128.2 L3.75 -128.25 3.5 -128.6 2.75 -130.45 2.7 -130.6 Q2.45 -131.3 2.05 -131.3 L1.35 -131.1 Q1.1 -131.1 0.9 -131.25 M9.1 -124.1 L9.2 -124.0 9.2 -124.05 Q9.75 -124.8 10.45 -124.8 11.6 -124.8 11.85 -123.65 L10.95 -123.8 Q10.25 -123.8 9.65 -123.25 L9.15 -122.75 Q8.35 -121.7 7.7 -121.7 7.3 -121.7 7.2 -122.05 L7.15 -122.35 7.2 -122.5 7.25 -122.6 7.45 -122.9 7.9 -123.5 7.1 -124.15 9.1 -124.1 M1.8 -121.55 Q1.3 -120.25 1.3 -119.45 1.3 -117.25 2.7 -115.55 L3.95 -114.5 4.05 -114.6 4.25 -115.45 Q4.25 -116.95 3.4 -118.55 L1.95 -121.5 1.95 -121.85 1.85 -121.7 1.8 -121.55 M0.05 -113.05 L-2.1 -112.85 -3.5 -112.4 -5.1 -111.15 -4.05 -110.95 4.1 -110.9 5.2 -111.1 3.55 -112.35 2.15 -112.8 0.05 -113.05 M5.2 -105.85 L4.7 -105.3 4.65 -105.2 Q3.5 -104.05 1.75 -103.25 L1.6 -103.25 1.6 -103.8 0.8 -102.95 1.05 -104.35 1.45 -104.95 1.55 -105.0 2.25 -105.45 2.6 -105.45 2.4 -104.8 2.2 -104.4 Q3.2 -104.8 4.25 -105.5 L4.35 -105.6 5.7 -106.8 5.2 -105.85 M-30.4 -172.45 L-34.6 -173.45 -29.9 -173.45 -27.9 -172.8 -28.6 -171.5 -30.4 -172.45 M2.2 -104.4 L2.0 -104.3 2.0 -104.25 2.2 -104.4 M2.25 -108.55 L1.95 -108.5 Q1.85 -108.4 1.45 -108.25 L1.2 -108.05 1.0 -107.85 0.55 -107.0 0.3 -106.4 -0.25 -106.4 -0.5 -107.0 -0.95 -107.85 -1.4 -108.25 -1.9 -108.55 -2.25 -108.6 -2.2 -108.65 -2.15 -108.7 -1.75 -108.95 -0.65 -109.15 0.7 -109.1 1.8 -108.9 2.2 -108.65 2.25 -108.65 2.25 -108.55 M-21.2 -164.55 L-17.9 -163.15 -15.6 -162.85 -16.2 -161.95 -13.65 -161.95 -15.35 -159.45 -15.9 -160.1 -16.5 -160.1 -16.5 -160.3 -16.9 -161.1 -17.9 -162.15 -19.95 -163.3 Q-21.25 -164.05 -21.2 -164.55 M-7.15 -164.45 L-7.15 -164.8 -6.4 -163.05 -6.2 -162.7 -6.05 -162.4 -5.45 -161.25 -5.4 -161.15 -5.5 -162.65 -5.5 -162.9 -5.55 -164.55 -4.95 -162.95 -4.25 -161.4 -3.35 -159.45 -2.5 -157.5 -1.6 -155.05 -1.7 -155.0 -2.5 -156.55 -2.8 -157.4 Q-3.35 -158.65 -4.65 -159.75 L-4.7 -159.0 -4.55 -157.8 Q-6.15 -158.45 -7.0 -160.25 L-8.05 -162.8 -8.4 -164.6 -8.65 -165.75 -8.6 -166.05 -8.6 -166.0 -8.3 -164.95 -8.25 -165.0 -8.15 -164.75 -6.2 -160.75 -6.1 -160.55 -5.7 -159.65 -5.65 -159.65 -6.1 -160.55 -6.15 -160.75 -6.75 -162.5 -6.85 -162.95 -7.15 -164.45 M-12.65 -161.6 L-12.55 -161.7 -11.35 -162.8 -12.05 -161.15 -12.1 -161.15 -12.75 -159.2 -12.75 -157.75 -10.7 -153.0 -10.2 -151.95 -9.45 -150.0 -9.0 -148.3 -9.0 -147.8 -9.3 -147.6 Q-10.4 -149.6 -12.25 -150.85 -14.55 -152.15 -15.35 -152.9 L-15.5 -152.9 -15.6 -155.55 -15.6 -156.35 -15.5 -157.75 -15.1 -158.65 -14.85 -159.05 -14.4 -159.55 -12.7 -161.45 -12.65 -161.6 M-10.05 -142.25 Q-10.75 -141.4 -10.7 -140.45 -10.5 -136.2 -6.85 -137.75 L-6.8 -137.75 -6.75 -137.8 -6.55 -137.55 Q-7.0 -136.75 -7.8 -136.25 L-8.6 -135.75 -9.4 -135.35 -9.5 -135.35 Q-11.1 -134.6 -12.25 -134.6 L-13.7 -135.0 -13.75 -135.05 -14.35 -135.35 -14.25 -135.35 -14.3 -135.4 -14.6 -135.75 -14.65 -136.25 -14.65 -136.3 -14.5 -136.25 Q-13.85 -135.55 -12.95 -135.4 L-12.4 -135.35 -12.2 -135.4 -10.95 -135.6 -10.35 -136.0 Q-10.1 -136.2 -10.3 -136.55 L-10.45 -136.7 -10.8 -136.95 -11.2 -137.35 -11.75 -138.35 -11.8 -139.0 -12.0 -140.8 -12.0 -140.9 -12.0 -140.95 -12.15 -141.5 -12.4 -142.3 -12.45 -142.5 Q-12.75 -143.9 -13.95 -144.6 L-14.55 -144.95 -14.95 -145.2 -15.05 -145.2 -16.45 -146.55 -17.4 -148.05 -16.1 -147.05 -13.6 -145.4 -13.4 -145.2 -13.45 -145.2 -12.95 -144.85 -11.0 -143.2 -10.0 -142.3 -10.05 -142.25 M-9.15 -124.05 L-9.1 -124.05 -9.05 -124.1 -7.1 -124.25 -7.05 -124.2 Q-7.6 -123.55 -7.85 -123.55 L-7.4 -122.95 -7.35 -122.85 -7.3 -122.8 -7.2 -122.65 -7.1 -122.4 -7.15 -122.1 Q-7.25 -121.75 -7.65 -121.75 L-7.95 -121.8 -8.6 -122.25 -9.1 -122.8 -9.55 -123.3 Q-10.2 -123.85 -10.9 -123.85 L-11.8 -123.7 Q-11.55 -124.85 -10.4 -124.85 -9.7 -124.85 -9.15 -124.05 M-3.7 -132.15 Q-3.35 -132.65 -2.95 -132.65 L-1.8 -132.2 Q-0.9 -131.75 -0.35 -131.75 L-0.85 -131.3 Q-1.05 -131.15 -1.3 -131.15 L-2.0 -131.35 Q-2.45 -131.35 -2.7 -130.5 L-3.45 -128.6 -3.7 -128.3 -3.8 -128.2 Q-4.4 -127.75 -5.5 -127.9 L-5.55 -128.0 -4.35 -129.0 Q-3.8 -129.6 -3.8 -130.15 L-4.0 -131.25 -4.0 -131.3 -4.0 -131.4 -3.9 -131.7 -3.9 -131.75 -3.7 -132.15 M-27.8 -128.1 L-28.55 -127.8 -28.45 -128.05 -27.0 -130.65 -24.55 -133.75 -27.0 -129.2 -26.45 -129.45 -27.1 -125.85 -26.55 -126.2 -26.55 -124.85 -25.95 -123.05 -24.8 -120.9 -24.8 -120.8 Q-25.8 -121.5 -26.35 -122.6 L-26.45 -122.8 -27.3 -125.3 -27.45 -125.3 Q-27.45 -124.95 -27.75 -124.35 L-27.75 -124.4 -27.85 -125.05 -27.9 -125.5 -27.45 -127.6 -27.4 -128.3 -27.4 -128.5 -27.8 -128.1 M-1.75 -121.55 L-1.8 -121.75 -1.85 -121.9 -1.9 -121.55 -3.35 -118.55 Q-4.2 -116.95 -4.2 -115.5 L-4.0 -114.65 -3.9 -114.55 Q-3.3 -114.9 -2.65 -115.6 -1.25 -117.25 -1.25 -119.5 -1.25 -120.3 -1.75 -121.55 M-4.55 -105.2 L-4.6 -105.25 -5.15 -105.9 -5.65 -106.8 -4.95 -106.1 -4.3 -105.6 -4.2 -105.55 -2.15 -104.4 Q-2.05 -104.3 -1.95 -104.3 L-1.95 -104.35 -2.15 -104.4 -2.35 -104.85 -2.55 -105.45 -2.2 -105.45 Q-1.75 -105.35 -1.45 -105.05 L-1.4 -104.95 -1.0 -104.35 -0.75 -103.0 -1.55 -103.85 -1.55 -103.25 -1.7 -103.25 -3.05 -104.0 -4.55 -105.2" fill="#000000" fill-opacity="0.2509804" fill-rule="evenodd" stroke="none"/>
    <path d="M28.65 -171.45 L30.45 -172.45 28.65 -170.0 27.25 -166.35 24.9 -162.35 21.95 -160.5 18.2 -160.05 16.55 -160.05 16.55 -160.25 16.95 -161.1 17.95 -162.1 20.0 -163.25 Q21.3 -164.0 21.25 -164.5 L21.35 -164.55 23.35 -165.85 22.4 -165.85 23.65 -167.6 26.5 -170.3 28.65 -171.45 M1.8 -121.55 L1.95 -121.5 3.4 -118.55 Q4.25 -116.95 4.25 -115.45 L4.05 -114.6 3.95 -114.5 2.7 -115.55 Q1.3 -117.25 1.3 -119.45 1.3 -120.25 1.8 -121.55 M-30.4 -172.45 L-28.6 -171.5 -26.45 -170.35 -23.6 -167.65 -22.35 -165.9 -23.3 -165.9 -21.3 -164.6 -21.2 -164.55 Q-21.25 -164.05 -19.95 -163.3 L-17.9 -162.15 -16.9 -161.1 -16.5 -160.3 -16.5 -160.1 -18.15 -160.1 -21.9 -160.55 -24.85 -162.4 -27.2 -166.4 -28.6 -170.05 -30.4 -172.45 M-1.9 -121.55 L-1.75 -121.55 Q-1.25 -120.3 -1.25 -119.5 -1.25 -117.25 -2.65 -115.6 -3.3 -114.9 -3.9 -114.55 L-4.0 -114.65 -4.2 -115.5 Q-4.2 -116.95 -3.35 -118.55 L-1.9 -121.55" fill="#000000" fill-opacity="0.49803922" fill-rule="evenodd" stroke="none"/>
  </g>
</svg>
