<?xml version="1.0" encoding="UTF-8" standalone="no"?>
<svg xmlns:xlink="http://www.w3.org/1999/xlink" height="175.8px" width="43.6px" xmlns="http://www.w3.org/2000/svg">
  <g transform="matrix(1.0, 0.0, 0.0, 1.0, -296.2, -207.5)">
    <path d="M325.3 210.35 Q326.0 208.35 329.7 207.5 L331.35 207.75 331.5 207.75 Q339.05 209.35 339.8 213.95 L338.75 216.85 Q336.65 220.1 332.0 217.35 L329.65 218.75 Q319.15 246.25 316.15 275.15 L315.95 276.2 Q317.65 282.1 316.45 282.7 316.4 284.85 313.25 288.8 314.1 317.9 310.95 346.05 312.95 348.55 313.05 350.45 L323.35 350.4 323.4 350.45 323.5 350.5 328.45 354.55 331.0 361.75 330.0 366.75 333.4 377.8 Q331.35 378.55 329.3 377.2 326.75 383.7 322.75 383.25 321.3 383.05 319.7 382.0 L318.0 380.05 301.4 372.0 296.75 354.25 300.65 350.95 Q299.6 347.15 301.5 342.3 297.4 314.55 298.8 287.25 294.4 282.7 297.5 279.25 L300.6 278.9 301.9 279.1 301.65 278.85 300.6 278.9 Q294.55 277.75 301.2 273.85 L304.85 268.15 Q316.2 247.95 316.5 224.2 312.7 217.75 315.05 213.3 319.45 207.2 325.3 210.35 M304.85 285.4 Q303.0 310.8 306.85 337.35 L307.35 288.8 305.45 284.65 304.85 285.4" fill="#000000" fill-rule="evenodd" stroke="none"/>
  </g>
</svg>
