<?xml version="1.0" encoding="UTF-8" standalone="no"?>
<svg xmlns:xlink="http://www.w3.org/1999/xlink" height="292.7px" width="180.2px" xmlns="http://www.w3.org/2000/svg">
  <g transform="matrix(1.0, 0.0, 0.0, 1.0, -229.85, -244.65)">
    <path d="M338.6 244.65 Q339.55 245.8 339.9 247.65 340.6 260.35 338.05 269.4 343.6 264.6 346.55 255.2 L360.0 308.0 Q372.45 343.25 375.05 380.2 370.55 382.0 376.0 387.9 383.5 502.6 410.05 537.35 347.3 470.1 333.7 496.45 336.75 484.15 339.15 472.15 325.3 462.9 310.85 471.5 304.4 475.3 299.05 482.55 L307.75 434.95 Q292.5 427.95 279.3 436.1 276.0 438.15 274.9 440.95 271.0 421.35 271.6 401.5 262.55 391.35 255.15 385.6 247.7 379.8 229.85 392.7 230.75 326.45 248.35 301.1 L249.4 300.65 260.3 293.4 Q265.65 289.5 271.6 286.35 L277.55 282.7 282.4 278.8 Q287.35 274.3 291.7 269.4 295.85 264.75 301.8 261.25 307.7 257.65 313.65 254.25 L318.8 251.4 Q322.1 249.65 325.45 248.05 331.25 245.35 336.8 246.5 L338.6 244.65" fill="#000000" fill-rule="evenodd" stroke="none"/>
  </g>
</svg>
