<?xml version="1.0" encoding="UTF-8" standalone="no"?>
<svg xmlns:xlink="http://www.w3.org/1999/xlink" height="336.0px" width="148.15px" xmlns="http://www.w3.org/2000/svg">
  <g transform="matrix(1.0, 0.0, 0.0, 1.0, -192.75, -129.35)">
    <path d="M295.45 144.05 Q300.55 142.4 305.35 144.8 310.1 147.2 311.8 152.25 313.5 157.35 311.1 162.15 308.75 166.95 303.65 168.6 298.55 170.3 293.8 167.9 289.0 165.5 287.3 160.4 285.65 155.35 288.0 150.55 290.4 145.75 295.45 144.05 M231.7 184.0 L224.0 183.65 192.75 153.65 Q200.6 131.1 218.9 129.35 L251.65 160.3 250.35 167.85 255.75 170.5 273.35 168.5 273.65 172.9 260.9 198.4 241.9 214.1 234.55 190.3 236.3 186.85 231.7 184.0 M333.4 194.85 Q335.45 195.9 337.0 197.4 339.15 199.55 340.2 202.7 341.95 208.05 339.45 213.1 336.95 218.1 331.6 219.85 326.2 221.65 321.2 219.15 316.2 216.65 314.45 211.25 312.65 205.9 315.15 200.9 317.65 195.85 323.05 194.1 328.4 192.35 333.4 194.85 M291.6 177.15 Q294.2 190.85 291.3 209.2 L279.4 214.25 269.95 233.15 Q260.2 257.2 251.45 293.75 249.7 302.9 254.75 315.8 L256.65 320.05 264.5 335.1 245.6 403.7 232.0 414.8 227.65 409.55 221.45 379.05 222.7 375.35 222.75 375.3 212.9 356.5 212.75 356.4 Q211.95 354.85 212.95 352.75 213.95 350.65 216.35 349.1 218.8 347.6 221.15 347.6 223.55 347.65 224.5 349.25 L232.6 358.75 Q235.7 355.65 239.4 354.5 241.6 355.65 243.3 357.15 245.3 358.85 246.65 360.95 L246.8 359.45 247.2 352.05 Q247.45 348.15 246.7 344.8 246.35 342.9 245.55 341.15 240.7 329.05 236.4 314.7 233.2 302.7 234.8 294.6 251.45 195.25 287.05 174.85 L291.6 177.15 M309.05 266.1 L306.1 273.4 Q297.45 266.25 282.7 266.7 284.65 261.75 283.5 257.65 287.95 255.6 293.4 255.1 299.7 258.05 304.65 261.0 307.4 263.5 309.05 266.1 M258.65 459.2 Q257.5 463.1 252.45 464.6 247.45 466.15 241.45 464.4 235.55 462.65 232.1 458.6 228.7 454.65 229.8 450.75 231.0 446.85 236.0 445.35 241.0 443.85 247.0 445.6 252.95 447.35 256.35 451.3 259.8 455.35 258.65 459.2" fill="#000000" fill-rule="evenodd" stroke="none"/>
  </g>
</svg>
