<?xml version="1.0" encoding="UTF-8" standalone="no"?>
<svg xmlns:xlink="http://www.w3.org/1999/xlink" height="203.5px" width="64.15px" xmlns="http://www.w3.org/2000/svg">
  <g transform="matrix(1.0, 0.0, 0.0, 1.0, -284.0, -196.4)">
    <path d="M298.45 245.65 Q318.85 244.5 332.75 231.05 339.95 243.2 347.65 245.9 344.8 253.3 341.0 260.5 M326.9 357.65 L326.9 362.9 M322.8 286.25 L315.05 294.5 Q307.85 283.7 295.1 276.1 292.45 279.2 290.5 282.4 M314.6 370.65 L312.6 368.1 312.6 364.65 M299.9 356.15 L296.75 354.25 M302.9 370.1 L301.7 368.5 301.7 363.25 M310.75 372.55 L310.75 372.45 310.95 371.35 312.2 369.65 M315.9 375.25 L314.8 372.15" fill="none" stroke="#000000" stroke-linecap="round" stroke-linejoin="round" stroke-opacity="0.5019608" stroke-width="1.0"/>
    <path d="M341.0 260.5 Q333.7 273.9 322.8 286.25 330.2 295.4 332.35 305.65 327.0 318.95 317.3 332.15 317.15 334.85 317.35 337.5 L317.7 341.0 318.1 343.2 Q318.7 345.9 319.7 348.5 L329.7 353.7 337.9 359.25 342.15 367.55 Q337.85 369.8 334.0 363.7 L326.9 362.95 326.9 368.75 328.2 375.55 331.75 381.95 336.55 386.2 Q339.7 393.95 334.0 396.7 L324.75 388.7 318.05 381.2 315.9 375.25 310.75 372.55 310.0 376.45 311.95 385.3 316.0 393.25 Q316.15 395.0 315.25 396.65 314.2 398.65 311.65 399.4 L304.9 387.2 302.15 378.9 301.4 372.0 296.75 354.25 294.8 353.0 284.95 309.25 Q282.8 294.9 290.5 282.4 L288.2 275.65 294.85 267.25 Q298.25 256.45 298.45 245.65 293.7 228.55 298.45 216.5 309.7 193.8 338.35 197.4 M326.9 362.9 L326.9 362.95" fill="none" stroke="#000000" stroke-linecap="round" stroke-linejoin="round" stroke-width="1.0"/>
  </g>
</svg>
