<?xml version="1.0" encoding="UTF-8" standalone="no"?>
<svg xmlns:xlink="http://www.w3.org/1999/xlink" height="175.85px" width="54.2px" xmlns="http://www.w3.org/2000/svg">
  <g transform="matrix(1.0, 0.0, 0.0, 1.0, -284.65, -197.1)">
    <path d="M314.55 200.15 Q318.35 198.4 322.8 197.6 M296.85 222.0 Q297.4 219.15 298.45 216.5 L301.05 211.95 M288.4 324.4 L285.95 313.7 M321.75 325.75 L317.3 332.15 317.25 334.95 M318.5 344.85 L319.7 348.5 319.85 348.6" fill="none" stroke="#000000" stroke-linecap="round" stroke-linejoin="round" stroke-width="1.0"/>
    <path d="M329.1 218.3 Q327.85 218.1 327.25 217.0 326.85 216.25 326.85 215.45 326.85 213.75 328.85 213.5 M338.05 199.4 Q336.4 197.3 332.65 197.7 330.1 197.95 328.1 199.35 326.05 200.8 326.05 202.4 326.05 203.75 326.5 204.25 327.15 204.85 329.75 205.75 L330.9 206.25 M326.6 234.75 L327.4 235.65 332.6 231.25 327.85 231.15 326.0 231.25 Q325.5 231.45 325.5 232.45 325.5 233.3 326.6 234.75 M332.6 231.25 L332.9 231.25 332.75 231.05 332.6 231.25 M332.9 231.25 L335.0 234.6 334.1 235.65 Q332.7 236.75 330.35 236.75 328.6 236.75 327.4 235.65 M336.45 243.6 Q338.35 243.95 338.35 245.0 L338.05 245.95 Q337.6 246.55 336.8 246.55 L335.0 246.2 Q334.55 245.95 334.55 245.25 334.55 243.25 336.45 243.6 M325.8 317.2 Q325.2 318.7 324.3 318.7 323.05 318.7 322.3 317.05 L321.8 315.4 Q321.8 314.5 321.95 314.2 322.3 313.4 323.7 313.4 326.0 313.4 326.25 315.4 L325.8 317.2 M326.65 353.5 Q326.9 354.05 326.8 354.65 L326.5 355.95 Q326.05 357.05 325.15 357.05 324.5 357.05 323.55 355.45 L322.7 353.8 Q322.7 353.2 322.85 353.0 323.2 352.45 324.45 352.45 326.2 352.45 326.65 353.5 M325.8 364.85 Q325.8 365.05 323.65 366.2 322.95 366.2 322.85 365.8 L322.85 365.35 Q322.85 364.0 324.35 363.6 325.8 363.25 325.8 364.85 M322.8 197.6 Q322.65 198.45 321.3 199.5 319.6 200.85 317.5 200.85 L315.7 200.45 314.55 200.15 M312.05 207.85 Q316.35 206.95 316.35 209.4 316.35 210.3 314.4 212.35 312.35 214.5 310.8 214.5 309.6 214.5 308.55 212.3 L307.75 210.05 Q307.75 208.8 312.05 207.85 M316.8 216.95 Q319.8 214.25 321.5 218.35 322.85 218.75 323.25 219.25 323.6 219.6 323.6 220.4 323.6 222.1 323.1 223.7 322.2 226.55 320.1 226.55 317.5 226.55 315.6 224.35 314.05 222.65 314.05 221.5 314.05 219.35 316.8 216.95 M301.05 211.95 Q302.55 211.7 302.55 214.9 302.55 217.35 301.8 219.1 300.5 222.05 297.3 222.05 L296.85 222.0 M300.25 232.0 Q302.75 231.55 302.75 233.15 302.75 234.1 301.75 234.85 300.85 235.5 300.1 235.5 L297.75 234.0 Q297.75 232.5 300.25 232.0 M320.0 234.75 Q320.0 235.45 319.6 235.85 L319.05 236.2 Q318.35 237.8 317.75 237.8 317.3 237.8 316.35 236.5 L315.5 235.15 Q315.5 232.9 317.05 232.7 L317.8 232.7 318.75 232.65 Q320.0 233.45 320.0 234.75 M309.4 227.95 Q308.5 229.0 307.15 229.0 305.65 229.0 304.25 226.9 L303.15 224.75 Q303.15 222.75 306.65 223.45 310.15 224.1 310.15 226.3 310.15 227.05 309.4 227.95 M306.4 238.5 L307.35 238.45 Q308.6 239.25 308.6 240.55 308.6 241.25 308.2 241.65 L307.65 242.0 Q306.95 243.6 306.35 243.6 305.9 243.6 304.95 242.3 L304.1 240.95 Q304.1 238.7 305.65 238.5 L306.4 238.5 M308.35 306.4 Q308.35 304.65 309.85 305.05 311.35 305.45 311.35 307.2 L311.3 308.0 Q311.15 308.65 310.4 308.65 309.8 308.65 309.0 307.5 L308.35 306.4 M307.95 318.25 Q307.95 316.95 309.9 315.65 311.3 314.7 314.5 313.35 L316.35 313.45 317.75 315.2 Q318.7 316.0 318.7 317.9 316.8 323.35 314.35 323.35 312.0 323.35 309.75 320.8 L307.95 318.25 M296.65 308.0 Q297.9 309.45 297.9 310.6 297.9 313.75 294.7 313.75 290.05 313.75 290.05 309.5 290.05 304.25 294.0 305.95 295.45 306.6 296.65 308.0 M302.4 307.75 Q304.05 307.9 304.05 309.2 304.05 309.65 303.3 310.25 302.6 310.8 302.25 310.8 301.55 310.8 301.1 309.9 300.75 309.25 300.75 308.8 300.75 307.6 302.4 307.75 M291.6 299.5 Q290.95 300.35 290.2 300.35 289.75 300.35 288.8 299.25 L287.9 298.0 Q287.9 297.25 290.05 297.25 292.15 297.25 292.15 298.35 292.15 298.8 291.6 299.5 M287.45 307.05 Q287.15 307.95 286.6 307.95 285.8 307.95 285.4 306.95 L285.15 305.95 Q285.15 305.25 285.35 305.1 L286.4 304.95 Q287.3 304.95 287.55 305.3 L287.65 306.0 287.45 307.05 M285.95 313.7 Q289.3 313.85 290.75 316.3 291.6 317.75 291.6 319.4 291.6 320.75 291.05 322.15 290.2 324.3 288.4 324.4 M297.75 318.2 Q299.1 316.85 300.05 316.85 301.45 316.85 301.95 318.05 L302.15 319.35 Q302.15 321.6 300.25 321.6 297.7 321.6 296.85 320.9 296.5 320.6 296.5 319.95 296.5 319.45 297.75 318.2 M300.05 325.9 L301.85 326.0 302.35 325.75 302.85 325.5 Q303.6 325.5 304.3 326.4 L304.9 327.45 303.55 328.95 Q302.15 330.1 301.6 330.1 300.4 330.1 299.95 328.6 L299.75 327.1 Q299.75 325.95 300.05 325.9 M297.4 327.65 Q298.5 328.95 298.5 329.95 298.5 333.3 296.75 333.3 293.15 333.3 292.0 331.7 291.5 331.0 291.5 329.65 291.5 324.25 295.0 325.75 296.3 326.35 297.4 327.65 M293.75 338.3 Q293.75 337.7 294.15 337.4 294.85 336.9 296.9 336.9 298.55 336.9 299.05 337.7 L299.25 338.55 Q299.25 339.45 298.65 340.4 297.85 341.7 296.4 341.7 295.55 341.7 294.6 340.1 293.75 338.7 293.75 338.3 M317.25 334.95 Q316.1 334.6 315.35 333.75 314.5 332.8 314.5 331.85 314.5 330.0 318.65 327.1 320.7 325.6 321.75 325.75 M311.0 332.4 Q310.25 333.55 309.3 333.55 306.2 333.55 305.4 332.8 305.15 332.6 305.15 331.75 305.15 329.8 308.4 329.15 311.6 328.55 311.6 330.7 311.6 331.45 311.0 332.4 M306.0 341.8 Q306.0 339.15 309.95 337.5 313.85 335.85 313.85 339.75 313.85 340.65 312.95 342.5 311.8 344.7 310.55 344.7 307.9 344.7 306.75 343.55 306.0 342.8 306.0 341.8 M319.85 348.6 Q319.3 350.4 316.55 350.4 314.85 350.4 314.3 349.6 314.05 349.2 314.05 348.45 314.05 347.2 314.6 345.9 315.25 344.45 316.2 344.05 317.25 343.6 318.5 344.85 M318.3 354.0 Q320.1 354.0 322.15 358.05 322.15 359.2 321.25 360.9 320.1 363.15 318.35 363.15 317.0 363.15 315.45 361.1 L314.15 359.0 Q314.15 358.2 315.5 356.25 317.0 354.0 318.3 354.0 M304.35 357.25 L303.0 355.8 Q303.0 353.9 305.65 353.35 308.3 352.85 308.3 355.1 307.1 358.5 306.25 358.5 305.75 358.5 304.35 357.25 M310.05 350.85 Q309.65 350.85 307.65 348.75 307.65 348.05 309.35 348.0 311.0 348.0 311.0 349.5 311.0 350.85 310.05 350.85 M312.8 362.35 Q312.05 363.3 311.0 363.3 309.8 363.3 309.6 362.6 L309.6 361.85 Q309.6 360.45 311.5 360.3 313.35 360.15 313.35 361.1 313.35 361.6 312.8 362.35 M309.1 369.75 Q308.0 370.35 306.45 370.35 304.6 370.35 303.5 367.35 L302.75 364.25 Q302.75 360.35 306.5 362.7 310.2 365.05 310.2 368.3 310.2 369.15 309.1 369.75 M317.3 367.55 Q319.95 368.95 319.95 371.3 319.95 372.45 318.15 372.45 314.6 372.45 314.6 370.2 314.6 366.15 317.3 367.55 M300.45 353.35 Q298.95 353.35 297.55 351.05 296.4 349.2 296.4 348.6 296.4 344.9 300.35 344.95 304.3 345.0 304.3 348.9 304.3 349.75 303.25 351.35 301.95 353.35 300.45 353.35" fill="none" stroke="#000000" stroke-linecap="round" stroke-linejoin="round" stroke-opacity="0.5019608" stroke-width="1.0"/>
  </g>
</svg>
