<?xml version="1.0" encoding="UTF-8" standalone="no"?>
<svg xmlns:xlink="http://www.w3.org/1999/xlink" height="3.55px" width="28.45px" xmlns="http://www.w3.org/2000/svg">
  <g transform="matrix(1.0, 0.0, 0.0, 1.0, -385.7, -155.3)">
    <path d="M394.55 157.75 L393.95 157.25 393.55 157.8 Q393.05 158.35 392.3 158.35 391.55 158.35 391.0 157.8 390.5 157.3 390.5 156.55 L390.55 156.15 387.65 155.8 386.2 157.15 M393.95 157.25 L392.95 156.4 390.55 156.15 M405.35 157.75 L406.95 156.4 409.5 156.15 412.25 155.8 413.0 156.5 413.65 157.1 M409.5 156.15 L409.45 156.35 409.4 156.55 Q409.4 157.3 409.95 157.8 410.45 158.35 411.2 158.35 411.95 158.35 412.5 157.8 413.0 157.3 413.0 156.55 L413.0 156.5" fill="none" stroke="#000000" stroke-linecap="round" stroke-linejoin="round" stroke-opacity="0.5019608" stroke-width="1.0"/>
  </g>
</svg>
