<?xml version="1.0" encoding="UTF-8" standalone="no"?>
<svg xmlns:xlink="http://www.w3.org/1999/xlink" height="3.4px" width="28.1px" xmlns="http://www.w3.org/2000/svg">
  <g transform="matrix(1.0, 0.0, 0.0, 1.0, -385.85, -155.5)">
    <path d="M385.85 155.9 L386.05 155.85 387.4 155.5 389.25 155.5 390.2 155.5 390.25 155.5 391.1 155.6 Q392.05 155.8 393.5 156.7 L394.95 157.55 394.5 157.95 394.45 157.95 393.85 158.45 393.6 158.55 392.95 158.75 391.7 158.9 391.65 158.9 390.85 158.9 390.65 158.9 390.2 158.9 Q388.2 158.8 387.45 158.25 L386.65 157.3 385.85 155.9 M392.9 156.9 L391.5 156.25 390.05 156.1 386.65 156.1 Q387.8 158.4 391.95 158.4 L392.85 158.4 394.25 157.7 392.9 156.9 M409.6 155.5 L410.55 155.5 412.4 155.5 413.75 155.85 413.95 155.9 413.15 157.3 412.35 158.25 Q411.6 158.8 409.6 158.9 L409.15 158.9 408.95 158.9 408.15 158.9 408.1 158.9 406.85 158.75 406.2 158.55 405.95 158.45 405.35 157.95 405.3 157.95 404.85 157.55 406.3 156.7 Q407.75 155.8 408.7 155.6 L409.55 155.5 409.6 155.5 M409.75 156.1 L408.3 156.25 406.9 156.9 405.55 157.7 406.95 158.4 407.85 158.4 Q412.0 158.4 413.15 156.1 L409.75 156.1" fill="#000000" fill-rule="evenodd" stroke="none"/>
  </g>
</svg>
