<?xml version="1.0" encoding="UTF-8" standalone="no"?>
<svg xmlns:xlink="http://www.w3.org/1999/xlink" height="3.6px" width="22.5px" xmlns="http://www.w3.org/2000/svg">
  <g transform="matrix(1.0, 0.0, 0.0, 1.0, -388.7, -154.75)">
    <path d="M388.8 155.95 L389.2 155.25 Q389.75 154.75 390.5 154.75 391.25 154.75 391.75 155.25 392.2 155.7 392.3 156.35 L392.3 156.55 Q392.3 157.3 391.75 157.8 391.25 158.35 390.5 158.35 389.75 158.35 389.2 157.8 388.7 157.3 388.7 156.55 L388.8 155.95 M408.15 155.25 Q408.65 154.75 409.4 154.75 410.15 154.75 410.7 155.25 L411.1 155.95 411.2 156.55 Q411.2 157.3 410.7 157.8 410.15 158.35 409.4 158.35 408.65 158.35 408.15 157.8 407.6 157.3 407.6 156.55 L407.65 156.35 Q407.7 155.7 408.15 155.25" fill="#000000" fill-rule="evenodd" stroke="none"/>
  </g>
</svg>
