<?xml version="1.0" encoding="UTF-8" standalone="no"?>
<svg xmlns:xlink="http://www.w3.org/1999/xlink" height="68.25px" width="55.7px" xmlns="http://www.w3.org/2000/svg">
  <g transform="matrix(1.0, 0.0, 0.0, 1.0, -372.05, -165.9)">
    <path d="M382.85 197.05 L383.2 196.35 383.35 196.0 384.85 192.8 384.8 192.2 385.45 192.15 386.3 192.0 Q386.8 192.6 386.8 193.3 386.8 194.0 385.8 195.65 L385.25 196.9 Q384.85 197.85 384.85 198.75 384.85 200.55 387.4 202.6 389.75 204.45 391.1 204.45 L393.95 202.45 Q394.25 202.45 394.35 203.3 392.35 207.95 391.65 208.6 389.65 210.55 388.0 213.6 L387.9 213.65 387.7 214.3 387.65 214.55 387.65 214.6 387.6 214.7 Q387.4 215.65 387.9 216.55 388.25 216.9 389.1 216.85 389.05 218.15 389.75 219.3 390.45 220.4 391.2 220.4 L392.45 219.05 392.05 220.95 394.35 219.55 Q393.8 220.9 393.8 221.8 393.8 223.5 395.15 224.8 396.35 226.0 397.6 226.0 398.1 226.0 399.9 224.2 401.7 226.0 402.25 226.0 403.45 226.0 404.65 224.8 406.0 223.5 406.0 221.8 406.0 220.9 405.5 219.55 L407.75 220.95 407.35 219.05 408.65 220.4 Q409.35 220.4 410.05 219.3 410.75 218.15 410.7 216.85 411.55 216.9 411.9 216.55 412.4 215.65 412.25 214.7 L412.2 214.6 412.2 214.55 412.15 214.3 411.9 213.65 411.85 213.6 Q410.2 210.55 408.15 208.6 407.45 207.95 405.5 203.3 405.55 202.45 405.85 202.45 L408.75 204.45 Q410.05 204.45 412.4 202.6 414.95 200.55 414.95 198.75 414.95 197.85 414.6 196.9 L414.0 195.65 Q413.05 194.0 413.05 193.3 413.05 192.6 413.55 192.0 L414.4 192.15 415.05 192.2 414.95 192.8 416.5 196.0 416.95 197.05 417.95 199.55 418.0 199.75 Q418.0 201.1 415.75 202.8 416.95 202.85 418.2 202.1 418.85 201.75 419.45 201.6 L420.95 201.35 422.4 201.45 420.35 202.95 420.35 203.0 422.15 202.6 423.5 202.85 423.5 202.95 Q422.95 202.95 420.8 204.85 L420.8 205.05 422.95 205.15 423.1 205.2 Q422.15 206.25 422.15 206.75 422.15 207.6 423.0 207.6 423.65 207.6 424.65 206.65 425.6 205.7 426.15 204.6 426.5 205.0 426.5 207.1 426.5 209.35 424.65 210.4 L426.25 210.7 427.75 211.35 Q425.3 211.35 424.55 212.3 L424.5 212.35 424.5 212.4 424.55 212.4 Q425.35 212.25 426.95 214.0 L425.1 214.3 Q423.5 214.8 422.9 216.35 421.85 219.05 419.4 220.7 L417.75 222.25 417.6 222.25 420.15 222.65 421.3 222.4 420.55 223.15 Q417.5 226.0 413.6 226.15 L413.5 226.15 415.75 226.4 415.9 226.4 Q413.15 228.95 411.25 230.0 409.0 231.3 406.45 231.45 L408.7 231.75 Q405.95 234.2 400.45 234.15 L399.9 234.1 399.35 234.15 Q393.9 234.2 391.1 231.75 L391.15 231.75 393.35 231.45 Q390.8 231.3 388.55 230.0 386.65 228.95 383.9 226.4 L384.05 226.4 386.35 226.15 386.2 226.15 Q382.3 226.0 379.25 223.15 L378.55 222.4 379.7 222.65 382.2 222.25 382.05 222.25 380.45 220.7 Q377.95 219.05 376.95 216.35 376.3 214.8 374.7 214.3 L372.85 214.0 Q374.5 212.25 375.3 212.4 L375.35 212.4 375.35 212.35 375.3 212.3 Q374.55 211.35 372.05 211.35 L373.55 210.7 375.15 210.4 Q373.35 209.35 373.35 207.1 373.35 205.0 373.65 204.6 374.2 205.7 375.15 206.65 376.2 207.6 376.85 207.6 377.65 207.6 377.65 206.75 377.65 206.25 376.7 205.2 L376.85 205.15 379.0 205.05 379.0 204.85 Q376.85 202.95 376.3 202.95 L376.3 202.85 377.7 202.6 379.45 203.0 379.45 202.95 Q379.3 202.55 377.45 201.45 L378.85 201.35 380.4 201.6 381.6 202.1 Q382.85 202.85 384.05 202.8 381.8 201.1 381.8 199.75 L382.85 197.05 M387.25 172.6 L389.1 170.6 Q393.05 166.95 399.75 165.9 L400.35 166.0 Q407.05 167.15 411.05 170.8 L412.9 172.85 Q416.4 177.45 416.85 185.05 L416.85 186.75 416.7 186.65 415.0 185.35 414.8 185.25 410.45 177.95 410.45 175.95 Q410.35 174.5 409.6 173.95 408.35 173.1 406.05 173.1 402.45 173.1 399.9 175.2 397.35 173.1 393.75 173.1 391.45 173.1 390.2 173.95 389.45 174.5 389.35 175.95 L389.35 177.95 385.0 185.25 384.8 185.35 383.4 186.4 383.4 185.1 Q383.7 177.25 387.25 172.6" fill="#000000" fill-rule="evenodd" stroke="none"/>
  </g>
</svg>
