<?xml version="1.0" encoding="UTF-8" standalone="no"?>
<svg xmlns:xlink="http://www.w3.org/1999/xlink" height="16.5px" width="31.3px" xmlns="http://www.w3.org/2000/svg">
  <g transform="matrix(1.0, 0.0, 0.0, 1.0, -384.25, -188.65)">
    <path d="M396.9 196.9 Q397.6 200.35 396.3 202.75 394.95 205.15 392.4 205.15 389.85 205.15 387.55 202.75 385.2 200.35 384.5 196.9 383.8 193.5 385.15 191.1 386.45 188.65 389.0 188.65 391.55 188.65 393.85 191.1 396.2 193.5 396.9 196.9 M405.95 191.1 Q408.25 188.65 410.8 188.65 413.35 188.65 414.65 191.1 416.0 193.5 415.3 196.9 414.6 200.35 412.25 202.75 409.95 205.15 407.4 205.15 404.85 205.15 403.5 202.75 402.2 200.35 402.9 196.9 403.6 193.5 405.95 191.1" fill="#000000" fill-rule="evenodd" stroke="none"/>
  </g>
</svg>
