<?xml version="1.0" encoding="UTF-8" standalone="no"?>
<svg xmlns:xlink="http://www.w3.org/1999/xlink" height="54.95px" width="39.1px" xmlns="http://www.w3.org/2000/svg">
  <g transform="matrix(1.0, 0.0, 0.0, 1.0, -380.3, -169.3)">
    <path d="M381.15 191.6 L381.15 191.4 381.15 191.15 Q381.2 182.35 381.9 178.25 L382.85 177.0 Q389.05 169.75 399.85 169.8 410.65 169.75 416.85 177.0 L417.8 178.25 Q418.5 182.35 418.55 191.15 L418.55 191.4 418.55 191.6 418.35 195.7 418.15 197.3 Q419.55 202.65 418.35 209.85 415.95 215.5 410.95 219.75 406.5 223.5 399.85 223.75 393.2 223.5 388.75 219.75 383.75 215.5 381.35 209.85 380.15 202.65 381.55 197.3 L381.35 195.7 381.15 191.6" fill="none" stroke="#000000" stroke-linecap="round" stroke-linejoin="round" stroke-width="1.0"/>
    <path d="M396.5 194.85 Q396.5 196.7 394.9 198.0 393.3 199.3 391.05 199.3 388.8 199.3 387.2 198.0 385.6 196.7 385.6 194.75 385.6 192.8 387.2 191.55 388.8 190.3 390.85 190.95 L394.7 192.3 Q396.5 193.0 396.5 194.85 M408.85 190.95 L405.0 192.3 Q403.2 193.0 403.2 194.85 403.2 196.7 404.8 198.0 406.4 199.3 408.65 199.3 410.9 199.3 412.5 198.0 414.1 196.7 414.1 194.75 414.1 192.8 412.5 191.55 410.9 190.3 408.85 190.95 M403.85 210.15 L403.85 211.6 406.35 211.6 406.35 210.25 M418.15 197.3 Q415.75 206.6 409.7 207.4 L408.1 211.6 406.35 211.6 406.35 212.65 M399.85 198.8 L396.85 203.2 Q396.7 206.55 399.85 204.7 403.0 206.55 402.85 203.2 L399.85 198.8 M381.55 197.3 Q383.95 206.6 390.0 207.4 L391.6 211.6 393.35 211.6 393.35 210.25 M395.85 212.65 L395.85 211.6 393.35 211.6 393.35 212.65 M401.5 209.9 L401.5 211.6 403.85 211.6 403.85 212.65 M395.85 210.15 L395.85 211.6 398.2 211.6 398.2 209.9 M401.5 213.15 L401.5 211.6 398.2 211.6 398.2 213.15" fill="none" stroke="#000000" stroke-linecap="round" stroke-linejoin="round" stroke-opacity="0.5019608" stroke-width="1.0"/>
  </g>
</svg>
