<?xml version="1.0" encoding="UTF-8" standalone="no"?>
<svg xmlns:xlink="http://www.w3.org/1999/xlink" height="55.55px" width="38.4px" xmlns="http://www.w3.org/2000/svg">
  <g transform="matrix(1.0, 0.0, 0.0, 1.0, -380.65, -169.3)">
    <path d="M399.85 169.8 Q410.65 169.75 416.85 177.0 L417.8 178.25 Q418.5 182.35 418.55 191.15 L418.55 191.4 418.55 191.6 418.35 195.7 417.7 199.85 417.5 200.75 417.0 202.55 415.7 205.6 Q412.65 212.55 409.05 218.1 L408.4 219.1 404.4 224.35 395.3 224.35 391.6 219.5 390.65 218.1 Q387.05 212.55 384.0 205.6 L382.7 202.55 382.2 200.75 382.0 199.75 381.35 195.7 381.15 191.6 381.15 191.4 381.15 191.15 Q381.2 182.35 381.9 178.25 L382.85 177.0 Q389.05 169.75 399.85 169.8" fill="none" stroke="#000000" stroke-linecap="round" stroke-linejoin="round" stroke-width="1.0"/>
    <path d="M383.7 178.9 Q386.4 183.3 386.75 188.5 M416.0 178.9 Q413.3 183.3 412.95 188.5 M417.7 199.85 Q415.7 206.6 409.7 207.4 L408.1 211.6 408.4 219.1 M391.6 219.5 L391.6 211.6 390.0 207.4 Q383.95 206.6 382.0 199.75 M391.6 211.6 L408.1 211.6" fill="none" stroke="#000000" stroke-linecap="round" stroke-linejoin="round" stroke-opacity="0.5019608" stroke-width="1.0"/>
  </g>
</svg>
