<?xml version="1.0" encoding="UTF-8" standalone="no"?>
<svg xmlns:xlink="http://www.w3.org/1999/xlink" height="120.15px" width="191.95px" xmlns="http://www.w3.org/2000/svg">
  <g transform="matrix(1.0, 0.0, 0.0, 1.0, -304.05, -111.45)">
    <path d="M425.8 175.25 L429.05 173.15 434.1 171.85 446.95 171.85 450.35 173.35 452.0 173.35 456.2 170.95 456.7 171.0 457.15 171.0 464.45 171.35 Q471.9 171.8 479.25 171.05 L480.55 170.85 Q483.2 169.95 485.2 168.0 L486.2 168.2 486.7 168.25 Q490.45 168.55 492.9 165.7 496.55 161.55 495.05 156.3 494.4 154.05 492.35 153.45 L492.0 153.75 491.85 153.9 Q491.5 154.55 491.65 155.3 492.2 158.25 490.9 160.8 490.5 161.6 489.6 161.8 L488.0 161.75 Q487.7 158.9 489.65 154.55 L490.65 151.15 490.05 148.2 486.7 141.95 483.5 138.7 475.8 134.65 474.6 135.1 474.6 136.5 478.35 141.05 Q487.1 158.4 472.9 161.45 L468.65 161.45 468.65 160.4 469.35 159.35 469.7 158.8 Q471.55 155.5 470.95 152.1 L470.2 149.65 Q468.6 145.9 466.15 142.55 L465.85 142.15 Q468.75 137.6 468.05 132.3 467.65 129.2 465.75 126.75 462.85 123.05 458.95 120.35 L457.25 121.15 462.55 128.6 460.45 136.5 444.2 124.7 444.2 112.55 443.4 111.95 442.2 111.95 441.8 112.65 Q440.7 114.25 438.3 118.5 435.95 122.75 444.0 130.1 452.05 137.45 456.2 142.55 L458.45 145.1 460.15 148.0 460.85 151.25 460.25 153.65 456.4 158.1 454.1 155.9 453.3 154.15 450.85 152.15 448.55 151.75 448.15 153.05 450.75 157.5 450.75 163.5 441.65 164.8 Q441.65 162.7 443.55 159.4 445.45 156.05 443.4 153.3 L438.45 146.9 Q435.6 143.3 428.85 141.65 L428.75 141.65 428.2 141.65 428.1 143.15 428.3 143.4 Q432.75 146.95 434.85 149.85 436.9 152.75 436.5 156.15 436.1 159.55 432.35 164.35 L420.45 168.75 420.4 168.75 M425.8 175.25 L425.9 176.35 Q425.85 177.15 425.0 177.7 L422.1 179.35 Q420.45 180.25 419.3 181.05 L420.15 181.15 Q423.45 181.15 425.9 180.2 L427.15 179.65 Q430.85 177.75 434.2 177.1 436.5 177.35 438.35 176.4 439.15 175.45 442.2 174.3 L443.3 174.1 Q444.4 174.4 441.95 178.05 438.75 182.95 433.8 186.45 L431.7 187.45 429.05 187.8 Q423.15 187.4 417.75 185.0 L417.7 184.95 417.7 185.05 418.7 187.0 418.9 187.45 420.15 190.4 Q420.15 191.4 419.3 192.4 L418.7 193.0 418.6 193.1 418.6 193.35 418.7 194.15 418.7 194.2 419.2 196.15 419.25 196.3 419.25 196.4 419.35 196.55 Q420.0 197.95 420.05 199.45 L420.05 199.75 419.95 201.05 Q419.95 201.75 418.25 203.85 L418.2 203.95 416.3 205.6 416.2 205.65 Q415.4 205.9 413.45 206.8 L410.35 208.3 410.15 210.05 409.85 211.1 Q410.35 211.3 410.55 212.3 L410.75 214.55 410.7 215.05 410.75 215.1 411.2 215.65 411.3 216.55 Q411.3 217.95 410.55 218.8 409.85 219.65 409.85 220.2 409.7 221.2 410.55 221.3 L410.3 221.85 409.7 222.3 409.6 222.3 Q409.3 223.55 407.7 224.55 L405.3 226.05 405.1 226.35 Q404.7 227.0 404.55 228.45 404.35 230.1 403.1 230.6 L403.05 229.6 402.8 228.75 402.8 228.8 Q402.05 230.65 401.4 231.1 L401.4 230.35 401.1 229.4 400.2 230.9 M399.8 230.9 Q399.2 230.05 398.95 229.4 398.6 229.95 398.6 230.35 L398.65 231.1 Q398.0 230.65 397.2 228.8 L397.2 228.75 Q397.05 228.8 396.95 229.6 L396.9 230.6 Q395.7 230.1 395.5 228.45 395.3 226.9 394.95 226.3 L394.75 226.05 392.3 224.55 Q390.7 223.55 390.45 222.3 L390.35 222.3 389.75 221.85 389.5 221.3 Q390.35 221.2 390.2 220.2 390.2 219.65 389.45 218.8 388.7 217.95 388.7 216.55 L388.8 215.65 389.3 215.05 389.3 214.55 Q389.3 213.0 389.45 212.3 389.7 211.3 390.2 211.1 L390.25 211.1 389.9 210.05 389.7 208.35 386.55 206.8 383.85 205.65 383.65 205.55 381.75 203.85 381.65 203.7 Q380.1 201.7 380.1 201.05 L380.0 199.75 Q380.0 198.1 380.7 196.55 L380.75 196.4 380.8 196.3 Q381.4 194.85 381.45 193.1 L380.75 192.4 Q379.9 191.4 379.9 190.4 379.9 189.9 381.15 187.45 L381.35 187.0 382.35 185.05 382.35 184.95 382.3 185.0 Q376.85 187.4 370.95 187.8 L368.35 187.45 Q367.25 187.1 366.25 186.45 361.3 182.95 358.05 178.05 355.65 174.4 356.75 174.1 L357.85 174.3 Q360.9 175.45 361.65 176.4 363.5 177.35 365.85 177.1 369.15 177.75 372.9 179.65 L374.1 180.2 Q376.6 181.15 379.9 181.15 L380.25 181.15 380.55 181.1 380.65 181.1 380.7 181.1 380.7 181.05 380.6 181.0 380.45 180.85 380.25 180.7 Q379.25 180.05 377.9 179.35 L375.05 177.7 Q374.15 177.15 374.15 176.35 L374.25 175.25 371.0 173.15 365.95 171.85 353.05 171.85 349.7 173.35 348.0 173.35 343.85 170.95 343.35 171.0 342.9 171.0 335.55 171.35 Q328.15 171.8 320.75 171.05 L319.45 170.85 Q316.85 169.95 314.8 168.0 L313.8 168.2 313.35 168.25 Q309.6 168.55 307.1 165.7 303.5 161.55 305.0 156.3 305.65 154.05 307.7 153.45 L308.0 153.75 308.15 153.9 Q308.55 154.55 308.4 155.3 307.85 158.25 309.15 160.8 309.55 161.6 310.4 161.8 L312.05 161.75 Q312.35 158.9 310.35 154.55 L309.4 151.15 310.0 148.2 313.35 141.95 316.5 138.7 324.25 134.65 325.45 135.1 325.45 136.5 321.7 141.05 Q312.9 158.4 327.1 161.45 L331.35 161.45 331.35 160.4 330.65 159.35 330.3 158.8 Q328.5 155.5 329.1 152.1 329.3 150.85 329.8 149.65 331.45 145.9 333.9 142.55 L334.2 142.15 Q331.3 137.6 332.0 132.3 332.4 129.2 334.3 126.75 337.2 123.05 341.05 120.35 L342.75 121.15 342.6 121.4 337.5 128.6 339.6 136.5 355.85 124.7 355.85 112.55 356.65 111.95 357.85 111.95 358.2 112.65 361.7 118.5 Q364.05 122.75 356.05 130.1 347.95 137.45 343.85 142.55 L341.55 145.1 339.9 148.0 339.2 151.25 339.8 153.65 343.65 158.1 345.9 155.9 346.7 154.15 349.2 152.15 351.45 151.75 351.85 153.05 349.3 157.5 349.3 163.5 358.4 164.8 Q358.4 162.7 356.5 159.4 354.6 156.05 356.65 153.3 L361.6 146.9 Q364.4 143.3 371.2 141.65 L371.85 141.65 371.95 143.15 371.7 143.4 Q367.25 146.95 365.2 149.85 363.1 152.75 363.55 156.15 363.95 159.55 367.7 164.35 L379.65 168.75 379.6 168.65 380.6 167.9 380.9 167.9 381.8 168.85 384.5 171.1 385.3 171.6 387.45 172.7 387.7 172.25 Q390.3 170.3 393.3 169.3 395.35 168.6 397.6 168.35 402.55 167.65 407.25 169.35 L408.5 169.85 Q410.25 170.6 411.85 171.7 L412.1 171.85 412.15 171.85 412.65 172.25 413.05 172.5 414.75 171.6 415.4 171.2 418.2 168.85 419.15 167.9 419.4 167.9 420.45 168.65 420.4 168.75 M388.8 173.25 L387.5 172.75 387.45 172.7 M382.35 184.95 L382.75 183.95 382.7 182.9 381.3 181.55 380.7 181.05 M383.65 183.9 L382.7 182.9 M381.45 193.1 L381.55 193.15 382.55 193.55 M411.2 173.25 L412.5 172.75 412.55 172.75 412.6 172.7 413.05 172.5 M412.65 172.25 L412.15 171.9 411.85 171.7 M416.35 183.9 L417.3 182.9 418.75 181.55 419.3 181.05 M417.3 182.9 L417.25 183.95 417.7 184.95 M417.45 193.55 L418.05 193.4 418.45 193.15 418.6 193.1" fill="none" stroke="#000000" stroke-linecap="round" stroke-linejoin="round" stroke-width="1.0"/>
    <path d="M441.65 164.8 L432.35 164.35 M420.4 168.75 L419.95 169.35 421.7 174.1 421.75 174.2 425.8 175.25 M380.8 184.0 L380.0 184.0 377.1 184.35 375.8 185.15 372.8 185.25 Q368.7 184.95 365.3 182.05 363.65 180.6 362.4 178.8 360.05 178.3 359.4 177.2 M379.65 168.75 L380.1 169.35 378.3 174.2 374.25 175.25 M377.1 184.35 L375.5 184.4 375.2 184.4 Q373.9 184.25 372.9 183.45 368.2 179.8 362.4 178.8 M386.35 183.15 Q387.1 182.7 387.8 181.25 L388.4 179.75 Q389.2 177.45 389.2 176.2 M385.25 198.5 L385.6 198.6 390.25 198.4 Q391.2 198.05 392.05 197.35 L390.25 197.55 Q389.0 197.5 388.35 196.9 387.2 195.9 387.1 195.15 L385.75 194.7 387.1 195.1 387.3 195.15 Q390.3 196.0 392.2 197.0 L392.25 197.05 392.75 196.95 393.2 196.6 393.5 196.2 393.55 195.85 M404.1 197.05 L403.0 196.3 402.0 196.25 401.3 196.35 Q401.0 196.45 400.95 196.7 L400.3 198.15 M395.95 197.05 Q396.6 196.4 397.05 196.3 L398.0 196.25 398.75 196.35 399.1 196.7 399.7 198.15 M367.7 164.35 L358.4 164.8 M440.65 177.2 Q439.95 178.3 437.65 178.8 L434.7 182.05 Q431.35 184.95 427.25 185.25 L424.2 185.15 Q423.5 184.85 422.95 184.35 L420.05 184.0 419.25 184.0 M437.65 178.8 Q431.85 179.8 427.15 183.45 426.15 184.25 424.85 184.4 L424.55 184.4 422.95 184.35 M413.7 183.15 Q412.95 182.7 412.25 181.25 L412.0 180.75 411.65 179.75 Q410.85 177.45 410.85 176.2 M414.8 198.5 L414.45 198.6 Q411.65 199.35 409.4 198.25 L408.0 197.35 409.4 197.55 Q410.9 197.6 411.7 196.9 412.8 195.95 412.9 195.2 L412.9 195.15 412.95 195.15 414.3 194.7 412.95 195.1 412.9 195.1 412.75 195.15 Q409.75 196.0 407.85 197.0 L407.8 197.0 407.75 197.05 407.3 196.95 406.85 196.6 406.55 196.2 406.45 195.85 M405.8 199.6 L406.85 200.85 406.85 201.0 Q406.75 201.6 405.9 202.1 L405.35 202.4 405.3 202.5 Q405.3 203.45 406.5 205.2 L407.45 206.9 407.7 207.9 407.75 208.65 406.7 212.2 Q408.3 211.4 409.15 211.15 L409.45 211.0 409.85 211.1 M410.35 208.3 L410.45 205.35 409.8 203.6 Q409.1 202.25 408.4 201.65 L408.15 201.5 M404.6 203.2 L405.25 202.5 405.35 202.4 M410.7 215.05 L410.7 215.1 Q410.65 216.2 410.1 216.9 L409.15 217.75 406.85 218.45 M404.9 216.95 L405.3 216.4 Q405.95 215.65 407.0 215.35 L408.85 215.2 M390.45 222.3 L392.25 221.5 397.4 221.3 398.3 221.3 398.35 221.3 400.1 221.2 401.7 221.3 402.6 221.3 407.75 221.5 409.6 222.3 M401.65 200.2 L401.8 199.9 402.2 199.45 Q402.85 198.9 403.3 198.9 L403.65 198.95 M396.3 199.0 L396.65 198.95 Q397.15 198.95 397.75 199.5 L398.15 199.95 398.35 200.2 M394.15 199.7 Q393.15 200.55 393.15 200.85 L393.2 201.0 Q393.3 201.6 394.15 202.1 L394.7 202.4 394.75 202.5 394.8 202.5 395.45 203.2 M389.7 208.35 L389.7 208.3 389.6 205.35 Q389.6 204.9 390.25 203.6 390.9 202.25 391.65 201.65 L391.85 201.5 M390.25 211.1 L390.6 211.0 390.9 211.15 392.15 211.65 392.7 211.9 393.0 212.05 393.15 212.1 393.35 212.2 393.25 211.95 393.15 211.7 393.0 211.3 392.75 210.5 392.25 208.65 392.25 208.45 Q392.3 207.7 392.6 206.9 392.9 206.05 393.5 205.2 394.75 203.45 394.75 202.5 M391.2 215.2 L392.95 215.35 393.05 215.35 Q394.45 215.7 395.15 216.95 M389.3 215.05 L389.3 215.1 Q389.4 216.2 389.9 216.9 L390.9 217.75 393.15 218.45 M403.3 222.5 L401.7 222.4 400.0 222.4 398.35 222.4 398.3 222.4 396.75 222.5 M393.35 212.2 L395.5 213.3 M406.7 212.2 L404.55 213.3" fill="none" stroke="#000000" stroke-linecap="round" stroke-linejoin="round" stroke-opacity="0.5019608" stroke-width="1.0"/>
  </g>
</svg>
