<?xml version="1.0" encoding="UTF-8" standalone="no"?>
<svg xmlns:xlink="http://www.w3.org/1999/xlink" height="57.1px" width="72.05px" xmlns="http://www.w3.org/2000/svg">
  <g transform="matrix(1.0, 0.0, 0.0, 1.0, -364.0, -172.25)">
    <path d="M381.15 228.85 Q372.3 222.45 364.5 205.6 368.05 190.1 381.0 180.4 L382.1 179.55 Q386.4 176.1 391.65 174.45 395.65 173.15 400.1 172.75 404.35 173.15 408.4 174.4 413.65 176.05 417.95 179.55 L419.45 180.65 Q432.05 190.3 435.55 205.6 427.7 222.45 418.85 228.85" fill="none" stroke="#000000" stroke-linecap="round" stroke-linejoin="round" stroke-width="1.0"/>
    <path d="M383.85 188.6 Q384.8 190.55 388.35 190.9 L389.0 190.9 389.0 190.7 389.0 189.65 388.9 189.2 Q388.6 187.6 387.55 185.95 L387.5 185.95 387.05 186.4 Q386.6 187.1 386.55 187.9 L386.5 188.35 386.35 187.9 Q385.7 186.15 386.45 184.5 384.85 182.75 383.6 182.95 L383.4 184.1 Q383.4 187.6 383.85 188.6 M418.85 228.85 Q413.35 211.95 415.55 194.5 414.55 196.25 412.45 198.4 L409.25 201.05 407.15 202.65 407.1 202.65 Q404.25 204.35 400.85 204.5 L400.25 204.45 399.75 204.5 399.2 204.55 Q395.8 204.35 393.0 202.7 L392.9 202.65 390.8 201.1 387.55 198.4 Q385.5 196.25 384.5 194.5 386.65 211.95 381.15 228.85 M384.5 194.5 L383.95 193.35 Q383.0 191.0 379.3 190.25 369.7 194.2 364.5 205.6 M381.0 180.4 L381.6 180.65 Q383.4 181.5 383.6 182.95 M386.45 184.5 L387.5 185.9 387.5 185.95 M389.0 190.7 L389.05 190.85 Q390.95 194.15 400.0 196.1 409.1 194.15 410.95 190.8 L411.05 190.7 411.05 189.65 411.15 189.2 Q411.45 187.55 412.55 185.95 L412.55 185.9 413.6 184.5 Q415.2 182.7 416.45 182.9 417.75 180.5 419.3 180.85 M396.75 197.85 L395.25 197.05 M403.25 197.8 L404.8 197.05 M411.05 190.7 L411.05 190.9 411.7 190.9 Q415.25 190.5 416.2 188.6 416.65 187.6 416.65 184.1 L416.45 182.9 M412.55 185.95 L413.0 186.4 Q413.45 187.05 413.5 187.9 L413.5 188.3 413.7 187.85 Q414.3 186.15 413.6 184.5 M435.55 205.6 Q430.35 194.2 420.75 190.2 417.05 191.0 416.1 193.35 L415.55 194.5 M393.25 202.1 Q396.0 200.6 399.15 200.25 L400.1 200.2 400.85 200.25 Q404.05 200.55 406.8 202.1" fill="none" stroke="#000000" stroke-linecap="round" stroke-linejoin="round" stroke-opacity="0.5019608" stroke-width="1.0"/>
  </g>
</svg>
