<?xml version="1.0" encoding="UTF-8" standalone="no"?>
<svg xmlns:xlink="http://www.w3.org/1999/xlink" height="81.85px" width="75.9px" xmlns="http://www.w3.org/2000/svg">
  <g transform="matrix(1.0, 0.0, 0.0, 1.0, -361.85, -148.3)">
    <path d="M362.6 179.2 L365.05 180.2 369.15 181.75 370.1 180.55 370.0 179.95 369.75 179.35 Q369.4 178.35 369.4 177.45 L369.4 177.1 Q367.75 174.35 366.45 171.5 365.65 169.65 365.4 167.6 L365.2 164.1 365.2 163.7 369.75 167.65 374.2 171.3 Q376.1 170.3 377.6 170.8 L377.65 170.1 377.65 169.85 Q377.75 168.8 378.1 167.8 L378.15 167.7 378.65 166.65 378.4 162.45 Q378.1 157.5 379.1 152.65 L379.7 150.1 379.95 149.0 380.0 148.8 383.1 155.0 388.3 162.65 389.55 163.5 389.9 163.8 Q390.7 164.5 391.6 166.2 L393.1 168.05 Q395.0 169.6 397.3 169.95 L398.3 170.0 399.55 170.05 399.8 170.05 400.05 170.05 401.3 170.0 402.3 169.95 Q404.6 169.6 406.5 168.05 L408.0 166.2 Q408.9 164.5 409.7 163.8 L410.05 163.5 410.1 163.5 Q410.7 163.0 411.3 162.65 L416.5 155.0 419.6 148.8 419.65 149.0 419.9 150.1 420.5 152.65 Q421.55 157.5 421.2 162.45 L421.0 166.65 421.5 167.7 421.5 167.8 421.95 169.85 422.0 170.1 422.0 170.8 Q423.5 170.3 425.45 171.3 L429.9 167.65 434.4 163.7 434.4 164.1 434.2 167.6 Q433.95 169.65 433.15 171.5 L430.2 177.1 430.2 177.45 429.85 179.35 429.65 179.95 429.5 180.55 430.45 181.75 434.55 180.2 437.0 179.2 437.25 179.05 437.2 179.25 436.0 182.15 434.3 185.0 432.5 187.0 432.5 187.45 432.25 189.25 432.05 189.35 434.85 189.05 435.1 189.0 435.1 189.1 Q434.35 193.45 430.7 196.05 L429.75 196.7 429.85 196.9 429.65 197.0 Q427.5 198.05 425.75 198.35 424.0 198.65 423.3 199.55 L421.35 202.05 421.2 202.15 Q420.5 205.15 421.55 207.6 L421.45 209.9 Q421.1 212.65 420.2 215.25 419.25 218.0 417.55 220.4 415.8 222.9 413.35 224.65 L413.25 224.7 413.2 224.75 Q410.2 226.85 406.7 228.0 L402.35 229.2 400.35 229.65 399.25 229.65 397.25 229.2 392.9 228.0 Q389.4 226.85 386.4 224.75 L386.35 224.7 386.25 224.65 Q383.8 222.9 382.05 220.4 380.35 218.0 379.4 215.25 378.5 212.65 378.15 209.9 L378.1 207.6 Q379.1 205.15 378.4 202.15 L378.3 202.05 376.35 199.55 Q375.6 198.65 373.85 198.35 372.1 198.05 370.0 197.0 L369.95 197.0 369.75 196.9 369.85 196.7 368.9 196.05 Q365.25 193.45 364.5 189.1 L364.5 189.0 364.75 189.05 367.55 189.35 367.35 189.25 367.1 187.45 367.1 187.0 365.3 185.0 Q364.3 183.65 363.6 182.15 L362.4 179.25 362.35 179.05 362.6 179.2 M370.0 197.0 L369.85 196.7 M395.75 196.6 L395.0 196.2 M404.65 196.2 L403.85 196.6 M429.75 196.7 L429.65 197.0" fill="none" stroke="#000000" stroke-linecap="round" stroke-linejoin="round" stroke-opacity="0.8509804" stroke-width="1.0"/>
    <path d="M388.3 162.65 L385.95 162.85 Q384.3 163.05 382.9 163.6 380.45 164.55 378.65 166.65 M395.0 196.2 L393.95 196.85 Q392.5 197.4 391.2 196.15 L390.85 195.5 Q390.4 194.25 391.45 193.5 L391.4 193.45 Q389.35 193.2 387.55 194.4 L386.95 194.8 Q386.1 195.65 384.9 195.8 L384.1 195.95 383.4 195.5 382.0 194.2 381.8 193.65 Q381.55 192.35 381.75 191.05 382.0 189.3 383.2 188.0 L383.75 187.55 Q384.4 187.05 385.15 186.8 L386.75 186.5 386.2 186.5 386.0 186.45 385.9 186.45 385.1 186.35 Q384.95 176.2 388.2 166.05 L388.2 166.0 388.3 165.75 388.55 164.9 388.6 165.0 Q390.8 175.65 394.45 183.85 L396.25 185.25 M369.4 177.1 Q369.55 176.3 369.85 175.6 370.15 174.8 370.7 174.1 L370.75 174.05 Q371.85 172.75 373.35 171.8 L374.2 171.3 M378.45 171.15 Q380.2 171.85 381.4 173.8 L383.45 177.4 M369.15 181.75 L368.65 182.6 367.75 184.65 367.7 184.75 367.1 187.0 M378.25 183.8 Q376.1 181.15 372.8 180.4 L372.05 180.25 M377.95 189.85 L374.35 190.15 371.35 189.8 M369.85 196.7 L370.15 196.1 370.65 194.6 370.8 193.65 Q370.85 192.05 369.8 190.9 369.0 190.0 367.55 189.35 M394.45 183.85 L394.2 184.2 393.9 184.45 393.6 184.7 Q392.3 185.5 390.85 185.95 L389.95 186.2 389.25 186.35 391.0 186.3 391.7 186.35 393.95 186.95 394.65 187.3 396.5 188.3 399.25 190.15 399.65 190.4 M389.25 186.35 L386.75 186.5 M398.7 197.0 L396.3 196.8 395.75 196.6 395.4 196.7 394.75 197.0 394.15 197.3 394.05 197.3 393.6 197.5 392.4 197.95 391.8 198.05 391.15 198.05 390.2 198.15 390.0 198.15 389.9 198.2 389.7 198.25 389.4 198.3 387.85 198.6 Q386.45 198.85 385.75 197.9 L385.55 197.6 M399.95 190.4 L400.35 190.15 Q401.7 189.15 403.1 188.3 L405.0 187.3 405.65 186.95 407.9 186.35 408.6 186.3 410.35 186.35 409.65 186.2 408.75 185.95 Q407.3 185.5 406.0 184.7 L405.7 184.45 405.4 184.2 405.15 183.85 403.35 185.25 M398.85 197.6 L397.95 200.3 397.95 200.4 397.9 200.45 397.9 200.5 396.95 202.6 396.5 203.4 396.8 203.75 396.9 203.95 Q398.05 205.35 399.8 205.8 401.55 205.35 402.7 203.95 L402.85 203.75 403.1 203.4 402.7 202.6 401.75 200.5 401.7 200.45 401.7 200.4 401.65 200.3 400.75 197.6 400.6 197.1 400.6 197.05 399.7 193.7 399.05 197.05 399.0 197.1 398.85 197.6 M395.0 196.2 L391.45 193.5 M414.05 197.6 L413.9 197.9 Q413.15 198.85 411.75 198.6 L410.2 198.3 409.9 198.25 409.7 198.2 409.6 198.15 409.4 198.15 408.45 198.05 407.8 198.05 407.2 197.95 406.0 197.5 405.6 197.3 405.45 197.3 404.85 197.0 404.2 196.7 403.85 196.6 403.3 196.8 400.9 197.0 M425.45 171.3 L426.25 171.8 Q427.75 172.75 428.85 174.05 L428.9 174.1 429.75 175.6 430.2 177.1 M411.3 162.65 L413.65 162.85 Q415.3 163.05 416.7 163.6 419.15 164.55 421.0 166.65 M410.35 186.35 L412.9 186.5 413.4 186.5 413.6 186.45 413.7 186.45 414.5 186.35 Q414.65 176.2 411.4 166.05 L411.4 166.0 411.35 165.75 411.05 164.9 411.0 165.0 Q408.8 175.65 405.15 183.85 M416.15 177.4 L418.2 173.8 Q419.4 171.85 421.2 171.15 M412.9 186.5 L414.45 186.8 415.85 187.55 416.4 188.0 Q417.6 189.3 417.85 191.05 L417.8 193.65 417.6 194.2 416.25 195.5 415.5 195.95 414.7 195.8 Q413.5 195.65 412.65 194.8 L412.1 194.4 Q410.25 193.2 408.2 193.45 L408.15 193.5 Q409.2 194.25 408.75 195.5 L408.4 196.15 Q407.1 197.4 405.7 196.85 L404.65 196.2 408.15 193.5 M421.35 183.8 Q423.55 181.15 426.85 180.4 L427.6 180.25 M430.45 181.75 L430.95 182.6 431.9 184.65 431.9 184.75 432.5 187.0 M428.25 189.8 L425.3 190.15 421.65 189.85 M429.75 196.7 L429.45 196.1 428.95 194.6 428.85 193.65 Q428.75 192.05 429.8 190.9 430.6 190.0 432.05 189.35 M419.75 202.55 Q417.6 201.3 416.8 200.3 L416.45 199.75 M412.1 206.05 Q412.25 205.4 412.55 205.25 L413.5 205.2 Q415.7 205.2 416.75 206.9 L417.05 207.6 417.2 208.1 Q417.6 209.6 417.35 211.15 L417.25 211.65 M404.4 198.25 L406.9 199.0 407.45 199.15 407.5 199.15 409.0 199.6 412.45 200.5 413.65 200.2 414.85 198.6 M404.05 206.55 L405.4 206.1 406.35 205.85 Q408.1 205.85 408.15 207.4 L408.15 207.6 408.1 208.1 407.85 208.85 407.2 209.7 Q406.2 210.5 405.0 210.3 M404.7 209.2 L406.05 208.65 406.35 208.3 406.45 207.65 406.45 207.6 406.1 207.35 405.85 207.4 405.55 207.6 404.5 208.95 M399.6 226.15 L398.5 225.8 396.15 225.1 391.05 223.7 Q387.3 222.55 387.4 221.1 L387.45 218.7 387.4 218.4 387.15 217.3 386.5 215.5 Q385.85 214.0 385.8 212.9 385.75 212.35 385.85 211.85 L386.25 210.95 Q386.8 210.15 387.25 209.85 387.75 209.55 389.65 210.5 390.65 211.0 391.35 211.8 L392.4 213.5 392.45 213.55 Q393.35 215.55 395.95 217.15 L397.8 218.25 Q398.5 218.65 399.75 218.85 L399.85 218.85 401.8 218.25 403.65 217.15 Q406.3 215.55 407.15 213.55 L407.2 213.5 Q407.6 212.5 408.25 211.8 408.95 211.0 410.0 210.5 411.9 209.55 412.35 209.85 L413.35 210.95 413.75 211.85 413.8 212.9 Q413.75 214.0 413.1 215.5 L412.45 217.3 412.2 218.4 412.15 218.7 412.2 221.1 Q412.3 222.55 408.55 223.7 L403.45 225.1 401.1 225.8 400.0 226.15 M412.45 217.3 Q412.05 216.25 411.2 215.55 L409.4 214.55 408.95 214.55 408.95 214.75 Q409.6 215.55 409.6 217.25 L409.35 219.35 Q408.0 218.05 407.15 218.1 L406.15 218.1 406.15 218.95 406.1 219.75 405.5 221.3 405.45 221.45 Q405.1 221.45 404.1 220.85 L402.8 219.9 402.0 222.35 400.7 221.4 399.9 222.75 Q399.35 222.4 398.9 221.4 398.75 221.4 397.6 222.35 L396.8 219.9 395.5 220.85 394.15 221.45 394.1 221.3 393.5 219.75 Q393.4 219.5 393.45 218.95 L393.45 218.1 392.45 218.1 Q391.6 218.05 390.3 219.35 L390.0 217.25 Q390.0 215.55 390.65 214.75 L390.65 214.55 390.2 214.55 Q388.8 215.3 388.4 215.55 387.55 216.25 387.15 217.3 M415.95 216.25 Q415.1 216.8 414.75 217.95 L414.3 220.2 414.05 221.25 413.35 222.5 412.3 223.4 411.15 223.95 M395.2 198.25 L392.7 199.0 392.15 199.15 390.65 199.6 387.15 200.5 385.95 200.2 384.75 198.6 M387.5 206.05 Q387.35 205.4 387.05 205.25 L386.1 205.2 Q383.9 205.2 382.85 206.9 L382.55 207.6 382.4 208.1 Q382.0 209.6 382.25 211.15 L382.35 211.65 M395.55 206.55 L394.2 206.1 393.25 205.85 Q391.55 205.85 391.45 207.4 L391.45 207.6 391.55 208.1 391.75 208.85 392.4 209.7 Q393.4 210.5 394.6 210.3 M394.9 209.2 L393.6 208.65 393.25 208.3 393.15 207.65 393.15 207.6 393.5 207.35 393.75 207.4 394.1 207.6 395.1 208.95 M383.7 216.25 Q384.5 216.8 384.85 217.95 L385.3 220.2 385.55 221.25 386.3 222.5 Q386.7 223.05 387.3 223.4 387.8 223.75 388.45 223.95 M389.6 206.35 Q389.05 203.25 396.35 199.75 M383.15 199.75 L382.8 200.3 Q382.0 201.3 379.85 202.55 M410.0 206.35 Q410.55 203.25 403.25 199.75" fill="none" stroke="#000000" stroke-linecap="round" stroke-linejoin="round" stroke-opacity="0.49803922" stroke-width="1.0"/>
  </g>
</svg>
