<?xml version="1.0" encoding="UTF-8" standalone="no"?>
<svg xmlns:xlink="http://www.w3.org/1999/xlink" height="14.6px" width="28.5px" xmlns="http://www.w3.org/2000/svg">
  <g transform="matrix(1.0, 0.0, 0.0, 1.0, 14.35, 109.3)">
    <path d="M3.25 -105.2 Q3.25 -107.05 5.05 -107.75 L8.9 -109.1 Q10.95 -109.75 12.55 -108.5 14.15 -107.25 14.15 -105.3 14.15 -103.35 12.55 -102.05 10.95 -100.75 8.7 -100.75 6.45 -100.75 4.85 -102.05 3.25 -103.35 3.25 -105.2 M-9.1 -109.1 L-5.25 -107.75 Q-3.45 -107.05 -3.45 -105.2 -3.45 -103.35 -5.05 -102.05 -6.65 -100.75 -8.9 -100.75 -11.15 -100.75 -12.75 -102.05 -14.35 -103.35 -14.35 -105.3 -14.35 -107.25 -12.75 -108.5 -11.15 -109.75 -9.1 -109.1 M-0.1 -95.35 Q-3.25 -93.5 -3.1 -96.85 L-0.1 -101.25 2.9 -96.85 Q3.05 -93.5 -0.1 -95.35" fill="#000000" fill-opacity="0.2509804" fill-rule="evenodd" stroke="none"/>
  </g>
</svg>
