<?xml version="1.0" encoding="UTF-8" standalone="no"?>
<svg xmlns:xlink="http://www.w3.org/1999/xlink" height="48.15px" width="58.2px" xmlns="http://www.w3.org/2000/svg">
  <g transform="matrix(1.0, 0.0, 0.0, 1.0, 29.6, 121.45)">
    <path d="M-8.35 -104.15 L-8.35 -104.2 -8.2 -104.3 -8.35 -104.15" fill="#cc9966" fill-rule="evenodd" stroke="none"/>
    <path d="M10.55 -108.5 L10.55 -108.4 Q10.0 -108.35 9.6 -107.95 9.0 -107.45 9.0 -106.8 9.0 -106.15 9.6 -105.65 L10.2 -105.25 10.1 -105.0 7.4 -106.15 Q7.95 -107.15 8.45 -107.75 L10.55 -108.5 M12.65 -105.75 L12.55 -105.85 Q12.9 -106.25 12.9 -106.8 12.9 -107.45 12.3 -107.95 11.75 -108.45 10.95 -108.45 L10.95 -108.55 13.2 -108.4 14.45 -108.05 14.7 -107.95 15.15 -107.75 14.7 -107.25 14.45 -107.05 12.65 -105.75 M4.7 -95.05 Q5.25 -95.6 5.35 -96.3 L5.4 -96.5 5.5 -96.5 Q6.3 -96.35 6.2 -95.6 L6.2 -94.5 Q5.6 -95.1 4.7 -95.05 M-7.2 -94.5 L-7.2 -95.6 Q-7.3 -96.3 -6.5 -96.5 L-6.4 -96.5 -6.35 -96.3 Q-6.3 -95.55 -5.75 -95.05 -6.6 -95.1 -7.2 -94.5 M-11.1 -104.95 L-11.25 -105.25 -10.6 -105.6 Q-10.0 -106.1 -10.0 -106.8 -10.0 -107.45 -10.6 -107.95 L-11.55 -108.4 -11.55 -108.45 Q-10.5 -108.3 -9.45 -107.7 L-8.4 -106.15 -11.1 -104.95 M-11.95 -108.5 L-11.95 -108.45 Q-12.75 -108.45 -13.3 -107.95 -13.9 -107.45 -13.9 -106.8 -13.9 -106.25 -13.55 -105.8 L-13.65 -105.7 -15.45 -106.95 -15.7 -107.2 -16.2 -107.75 -15.7 -107.95 -15.45 -108.0 -14.2 -108.35 -11.95 -108.5" fill="#ffffff" fill-rule="evenodd" stroke="none"/>
    <path d="M-6.1 -103.3 Q-5.95 -103.65 -4.55 -104.4 -2.8 -105.4 -0.5 -104.85 L-0.5 -104.9 Q1.75 -105.4 3.55 -104.45 L5.1 -103.35 5.1 -103.2 5.05 -103.2 4.1 -101.65 Q3.4 -100.5 1.6 -100.25 L1.6 -100.9 1.95 -101.45 Q1.05 -100.5 -0.4 -100.2 L-0.25 -95.55 Q2.6 -95.65 4.6 -94.95 L4.65 -95.0 4.7 -95.05 Q5.6 -95.1 6.2 -94.5 L6.15 -94.3 4.55 -94.6 3.15 -94.8 -0.25 -95.15 -0.5 -95.15 -0.8 -95.1 -4.15 -94.8 -5.55 -94.55 -7.15 -94.25 -7.2 -94.5 Q-6.6 -95.1 -5.75 -95.05 L-5.65 -94.95 -5.6 -94.95 -0.8 -95.5 -0.6 -100.2 Q-2.05 -100.45 -3.0 -101.4 L-2.6 -100.85 -2.6 -100.25 Q-4.4 -100.45 -5.1 -101.65 L-6.05 -103.1 -6.1 -103.1 -6.1 -103.3" fill="#000000" fill-rule="evenodd" stroke="none"/>
    <path d="M18.95 -115.65 L19.15 -115.7 18.75 -117.25 Q18.75 -118.05 19.55 -118.6 20.35 -119.15 21.35 -119.15 L21.85 -118.9 22.4 -118.15 Q24.35 -115.95 24.7 -115.95 L25.3 -116.55 25.45 -116.05 25.9 -114.75 26.1 -113.8 25.75 -112.65 24.9 -111.35 23.05 -107.7 22.1 -106.65 21.35 -109.3 Q20.9 -112.65 19.2 -115.35 L18.95 -115.65 M11.1 -117.85 L11.85 -117.65 11.1 -117.7 7.15 -117.75 5.35 -117.65 Q2.15 -116.65 -0.5 -115.3 L-0.5 -115.2 Q-3.15 -116.65 -6.35 -117.6 L-8.15 -117.75 -12.1 -117.65 -12.9 -117.6 -12.1 -117.85 -8.05 -118.4 Q-5.9 -118.35 -3.9 -117.5 L-0.5 -116.05 2.9 -117.55 Q4.9 -118.35 7.05 -118.45 L11.1 -117.85 M10.5 -114.35 Q8.5 -114.1 6.7 -113.3 L3.45 -111.7 Q1.55 -110.75 -0.5 -110.1 L-0.5 -110.05 Q-2.55 -110.7 -4.45 -111.7 L-7.7 -113.25 Q-9.5 -114.1 -11.5 -114.3 L-14.1 -114.55 -9.75 -114.8 Q-7.65 -114.3 -5.8 -113.2 -4.0 -112.2 -2.15 -111.5 L-0.55 -110.95 -0.45 -110.95 1.15 -111.5 Q2.95 -112.25 4.8 -113.25 6.65 -114.3 8.75 -114.85 L13.1 -114.55 10.5 -114.35 M1.65 -119.9 L-0.5 -118.6 -0.5 -118.5 -2.65 -119.85 -3.65 -120.4 -4.65 -120.9 -3.6 -120.7 -3.45 -120.7 -1.8 -120.05 -0.5 -119.3 -0.5 -119.35 0.8 -120.1 2.45 -120.7 2.6 -120.7 3.6 -120.95 2.65 -120.4 1.65 -119.9 M16.45 -110.55 L13.35 -111.05 Q10.6 -110.8 8.75 -108.9 7.2 -107.35 5.15 -106.75 L3.4 -106.55 3.8 -106.1 3.8 -105.95 6.9 -104.45 6.85 -104.35 6.05 -103.75 5.2 -103.35 5.1 -103.35 3.55 -104.45 Q1.75 -105.4 -0.5 -104.9 L-0.5 -104.85 Q-2.8 -105.4 -4.55 -104.4 -5.95 -103.65 -6.1 -103.3 L-6.2 -103.35 Q-6.55 -103.4 -7.05 -103.75 L-7.85 -104.35 -7.95 -104.45 -4.8 -105.85 -4.8 -106.1 -4.4 -106.55 -6.15 -106.7 Q-8.2 -107.3 -9.75 -108.9 -11.6 -110.8 -14.35 -111.0 L-17.45 -110.5 -18.05 -110.2 -18.15 -110.2 -19.5 -110.0 Q-20.15 -110.2 -19.7 -110.8 -18.4 -112.85 -15.65 -112.65 -12.9 -112.4 -10.4 -110.7 -7.95 -108.95 -5.5 -107.8 -3.1 -106.6 -3.05 -109.55 L-1.9 -108.55 Q-2.3 -107.7 -2.9 -107.15 L-0.5 -107.65 -0.5 -107.7 1.9 -107.2 Q1.25 -107.7 0.85 -108.6 L2.05 -109.6 Q2.1 -106.65 4.5 -107.8 6.9 -109.0 9.4 -110.7 11.85 -112.4 14.6 -112.65 17.35 -112.9 18.7 -110.9 19.15 -110.2 18.45 -110.0 L17.15 -110.2 17.05 -110.25 16.45 -110.55 M7.4 -104.15 L10.7 -102.7 Q12.6 -101.7 14.4 -102.75 L15.65 -98.9 Q16.35 -96.8 16.65 -94.6 17.0 -92.5 16.75 -90.4 L16.35 -88.2 16.15 -88.25 14.85 -90.8 13.25 -96.1 12.5 -97.8 Q11.75 -99.65 10.55 -101.25 9.3 -103.05 7.4 -104.15 M27.25 -119.3 L27.25 -119.2 28.25 -119.45 28.25 -119.35 28.55 -118.1 28.6 -117.0 Q28.6 -116.3 28.1 -116.3 27.55 -116.3 27.1 -118.1 L26.85 -119.15 26.8 -120.35 27.25 -119.3 M20.6 -93.9 L20.05 -92.6 19.1 -102.0 Q20.55 -100.3 21.0 -98.1 21.5 -95.95 20.6 -93.9 M3.4 -90.75 L3.6 -90.1 3.05 -90.65 Q1.65 -91.5 -0.05 -91.5 L-0.5 -91.45 -0.95 -91.45 Q-2.65 -91.5 -4.1 -90.6 L-4.65 -90.1 -4.4 -90.7 -4.4 -90.75 -4.3 -90.95 Q-3.2 -92.85 -1.05 -93.1 L-0.5 -93.2 -0.5 -93.3 0.05 -93.15 Q2.2 -92.85 3.3 -90.95 L3.4 -90.75 M5.6 -76.1 L6.25 -77.4 Q6.65 -75.8 7.45 -74.4 L7.75 -73.95 5.6 -76.1 M9.5 -77.8 Q8.85 -79.85 8.7 -81.95 8.5 -83.85 8.7 -85.75 8.95 -83.65 9.5 -81.6 10.85 -76.45 12.7 -74.9 L13.2 -74.5 12.55 -73.3 11.75 -74.1 Q10.2 -75.75 9.5 -77.8 M-26.3 -116.5 L-25.75 -115.95 Q-25.35 -115.95 -23.4 -118.15 L-22.85 -118.85 -22.35 -119.05 Q-21.35 -119.05 -20.6 -118.5 -19.75 -117.95 -19.75 -117.25 L-20.15 -115.7 -19.95 -115.6 -20.2 -115.35 Q-21.9 -112.65 -22.35 -109.25 L-23.1 -106.6 -24.05 -107.65 -25.9 -111.35 -26.75 -112.6 -27.1 -113.8 -26.9 -114.65 -26.45 -116.0 -26.3 -116.5 M-29.25 -119.45 L-29.2 -119.45 -28.3 -119.2 -28.3 -119.3 -27.8 -120.3 -27.85 -119.15 -27.85 -119.05 -28.1 -118.05 Q-28.55 -116.25 -29.1 -116.25 -29.6 -116.25 -29.6 -117.0 L-29.55 -118.05 -29.25 -119.3 -29.25 -119.45 M-15.4 -102.75 Q-13.6 -101.65 -11.7 -102.7 -10.15 -103.5 -8.4 -104.1 -10.3 -103.0 -11.55 -101.25 -12.75 -99.6 -13.5 -97.75 L-14.25 -96.05 -15.85 -90.8 -17.15 -88.2 -17.35 -88.2 -17.75 -90.4 Q-18.0 -92.5 -17.65 -94.6 L-16.75 -98.9 -15.4 -102.75 M-10.5 -81.6 Q-9.95 -83.6 -9.7 -85.7 L-9.65 -85.7 Q-9.5 -83.8 -9.7 -81.95 -9.85 -79.8 -10.5 -77.8 -11.25 -75.75 -12.75 -74.1 L-13.55 -73.3 -14.2 -74.45 -13.7 -74.85 Q-11.85 -76.4 -10.5 -81.6 M-7.3 -77.35 L-6.55 -76.1 -8.75 -73.95 -8.5 -74.4 Q-7.65 -75.8 -7.3 -77.35 M-21.6 -93.9 Q-22.5 -95.9 -22.0 -98.1 -21.55 -100.25 -20.1 -102.0 L-21.05 -92.55 -21.6 -93.9" fill="#000000" fill-opacity="0.2509804" fill-rule="evenodd" stroke="none"/>
    <path d="M18.95 -115.65 L16.9 -118.85 18.1 -120.3 18.35 -120.5 18.65 -120.65 18.95 -120.85 19.3 -120.95 19.65 -121.1 21.5 -121.45 22.25 -121.45 22.75 -120.85 23.3 -120.15 23.8 -119.45 24.25 -118.75 24.65 -118.05 25.3 -116.55 24.7 -115.95 Q24.35 -115.95 22.4 -118.15 L21.85 -118.9 21.35 -119.15 Q20.35 -119.15 19.55 -118.6 18.75 -118.05 18.75 -117.25 L19.15 -115.7 18.95 -115.65 M10.1 -105.0 L10.2 -104.95 11.0 -105.1 11.2 -105.15 Q11.75 -105.2 12.2 -105.55 L12.65 -105.75 14.45 -107.05 14.7 -107.25 15.15 -107.75 14.7 -107.95 14.45 -108.05 13.2 -108.4 10.95 -108.55 10.55 -108.5 8.45 -107.75 Q7.95 -107.15 7.4 -106.15 L10.1 -105.0 M6.9 -104.45 L3.8 -105.95 3.8 -106.1 3.4 -106.55 5.15 -106.75 Q7.2 -107.35 8.75 -108.9 10.6 -110.8 13.35 -111.05 L16.45 -110.55 16.45 -110.45 Q16.95 -108.55 16.65 -106.65 16.35 -104.5 14.8 -103.05 L14.4 -102.75 Q12.6 -101.7 10.7 -102.7 L7.4 -104.15 7.35 -104.2 7.2 -104.35 6.9 -104.45 M-17.45 -110.5 L-14.35 -111.0 Q-11.6 -110.8 -9.75 -108.9 -8.2 -107.3 -6.15 -106.7 L-4.4 -106.55 -4.8 -106.1 -4.8 -105.85 -7.95 -104.45 -8.2 -104.3 -8.35 -104.2 -8.35 -104.15 -8.4 -104.15 -8.4 -104.1 Q-10.15 -103.5 -11.7 -102.7 -13.6 -101.65 -15.4 -102.75 L-15.8 -103.0 Q-17.35 -104.45 -17.65 -106.65 -18.0 -108.5 -17.45 -110.45 L-17.45 -110.5 M-26.3 -116.5 L-25.65 -117.95 -25.25 -118.75 -24.8 -119.45 -24.3 -120.1 -23.75 -120.8 -23.25 -121.4 -22.5 -121.45 -20.65 -121.1 -20.3 -120.95 -19.95 -120.8 -19.65 -120.6 -19.35 -120.45 -19.15 -120.25 -17.9 -118.8 -19.95 -115.6 -20.15 -115.7 -19.75 -117.25 Q-19.75 -117.95 -20.6 -118.5 -21.35 -119.05 -22.35 -119.05 L-22.85 -118.85 -23.4 -118.15 Q-25.35 -115.95 -25.75 -115.95 L-26.3 -116.5 M-11.55 -108.45 L-11.95 -108.5 -14.2 -108.35 -15.45 -108.0 -15.7 -107.95 -16.2 -107.75 -15.7 -107.2 -15.45 -106.95 -13.65 -105.7 -13.2 -105.5 Q-12.75 -105.2 -12.2 -105.15 L-12.0 -105.1 -11.25 -104.9 -11.1 -104.95 -8.4 -106.15 -9.45 -107.7 Q-10.5 -108.3 -11.55 -108.45" fill="#000000" fill-opacity="0.49803922" fill-rule="evenodd" stroke="none"/>
  </g>
</svg>
