<?xml version="1.0" encoding="UTF-8" standalone="no"?>
<svg xmlns:xlink="http://www.w3.org/1999/xlink" height="106.3px" width="87.9px" xmlns="http://www.w3.org/2000/svg">
  <g transform="matrix(1.0, 0.0, 0.0, 1.0, 44.15, 171.45)">
    <path d="M13.15 -112.4 L13.4 -112.4 Q15.25 -112.05 16.1 -111.05 16.95 -110.05 16.85 -108.4 16.8 -107.8 16.4 -107.15 L16.35 -107.05 Q15.9 -106.3 15.25 -105.7 L13.8 -104.65 11.95 -104.2 9.8 -103.95 7.5 -104.5 5.95 -105.05 5.15 -105.35 4.65 -105.45 4.05 -104.95 3.65 -105.3 3.6 -105.35 2.4 -105.7 2.35 -105.7 2.45 -106.2 2.4 -106.2 2.35 -106.25 Q1.15 -106.4 0.95 -107.0 0.85 -107.25 0.9 -108.35 1.0 -109.75 2.7 -112.65 L3.2 -112.7 Q3.65 -112.35 3.6 -112.0 L1.95 -108.2 2.6 -107.05 Q3.0 -107.05 3.7 -107.55 L4.2 -108.05 5.5 -110.0 Q6.4 -111.75 8.45 -114.75 11.7 -119.7 15.55 -120.25 L15.6 -120.25 17.0 -120.55 Q16.7 -122.85 15.25 -124.65 L14.3 -125.75 Q16.8 -130.5 19.6 -135.05 L19.9 -135.55 19.9 -135.65 20.0 -135.8 Q28.8 -153.4 41.3 -168.55 L42.95 -170.45 43.1 -170.65 43.75 -171.45 43.4 -170.25 Q36.4 -146.95 37.8 -129.4 27.35 -123.3 24.85 -107.6 22.2 -107.85 20.0 -104.75 L20.0 -104.65 19.6 -104.2 Q18.2 -102.45 16.95 -99.8 L16.85 -100.0 16.6 -100.25 16.3 -100.2 15.65 -101.5 16.85 -105.8 17.25 -106.7 18.25 -108.05 18.6 -109.2 Q18.55 -110.05 18.65 -110.3 L18.45 -110.65 16.8 -111.75 Q15.55 -112.95 14.95 -114.7 L14.75 -115.35 Q17.05 -119.3 17.5 -119.6 L17.3 -119.95 16.95 -120.05 16.35 -120.1 15.65 -120.0 Q14.55 -119.7 13.5 -118.2 L12.15 -116.2 12.1 -116.2 11.25 -115.05 9.3 -112.15 6.9 -108.75 6.55 -108.35 5.3 -107.0 5.25 -106.95 4.9 -106.65 4.75 -106.5 4.7 -106.5 4.85 -106.4 6.25 -105.9 7.6 -105.8 8.8 -105.9 10.5 -106.4 10.65 -106.5 Q11.65 -106.95 12.25 -107.85 L12.35 -107.95 12.6 -108.4 Q13.3 -109.8 13.25 -111.25 L13.15 -112.4 M0.85 -132.5 L1.25 -132.5 5.15 -131.05 Q4.55 -128.3 2.05 -125.15 L-0.15 -122.75 -0.2 -122.75 -2.4 -125.15 Q-4.9 -128.3 -5.55 -131.05 L-5.5 -131.05 -1.6 -132.5 -1.15 -132.5 -0.2 -132.7 0.85 -132.5 M5.25 -121.05 Q3.3 -119.6 2.05 -117.0 L1.8 -116.5 1.8 -117.0 1.8 -117.1 Q1.95 -119.65 4.75 -121.65 L4.95 -121.75 7.65 -123.15 8.35 -122.4 Q6.1 -121.65 5.25 -121.05 M2.5 -103.7 Q3.3 -103.65 3.3 -102.9 3.1 -100.0 1.3 -98.6 1.25 -102.15 2.0 -103.6 L2.15 -103.6 2.5 -103.7 M3.5 -72.15 L3.9 -72.1 5.55 -70.0 5.4 -68.0 Q3.9 -65.65 1.05 -65.25 L0.9 -65.2 0.4 -65.15 -0.15 -65.15 -0.2 -65.15 -0.75 -65.15 -1.25 -65.2 -1.4 -65.25 Q-4.25 -65.65 -5.75 -68.0 L-5.9 -70.0 -4.25 -72.1 -3.9 -72.15 -2.5 -71.6 -1.75 -71.3 -0.95 -71.0 -0.8 -70.9 -0.25 -70.95 -0.1 -70.95 0.45 -70.9 0.65 -71.0 1.4 -71.3 2.15 -71.6 3.5 -72.15 M-12.45 -116.2 L-13.85 -118.2 Q-14.95 -119.7 -16.0 -120.0 L-16.7 -120.1 -17.3 -120.05 -17.65 -119.95 -17.85 -119.6 Q-17.4 -119.3 -15.1 -115.35 L-15.3 -114.7 Q-15.9 -112.95 -17.15 -111.75 L-18.75 -110.65 -19.0 -110.3 -18.95 -109.2 Q-18.95 -108.4 -18.6 -108.05 L-17.55 -106.7 -17.2 -105.8 -16.0 -101.5 -16.65 -100.2 -16.95 -100.25 -17.2 -100.0 -17.3 -99.8 Q-18.55 -102.45 -20.0 -104.2 L-20.35 -104.65 -20.35 -104.75 Q-22.55 -107.85 -25.15 -107.6 -27.7 -123.3 -38.15 -129.4 -36.8 -146.95 -43.75 -170.25 L-44.15 -171.45 -43.45 -170.65 -43.3 -170.45 -41.65 -168.55 Q-29.15 -153.4 -20.35 -135.8 L-20.3 -135.65 -20.3 -135.55 -20.0 -135.05 -14.65 -125.75 -15.55 -124.65 Q-17.05 -122.85 -17.35 -120.55 L-15.95 -120.25 -15.9 -120.25 Q-12.05 -119.7 -8.8 -114.75 L-5.8 -110.0 Q-5.25 -108.75 -4.55 -108.05 L-4.05 -107.55 Q-3.4 -107.05 -2.95 -107.05 L-2.35 -108.2 -4.0 -112.0 -3.5 -112.7 -3.1 -112.65 Q-1.35 -109.75 -1.25 -108.35 L-1.25 -107.0 Q-1.5 -106.4 -2.7 -106.25 L-2.7 -106.2 -2.8 -106.2 -2.7 -105.7 -3.9 -105.35 -4.0 -105.3 -4.4 -104.95 -4.95 -105.45 -5.5 -105.35 -6.3 -105.05 -7.85 -104.5 -10.1 -103.95 -12.3 -104.2 -14.1 -104.65 Q-14.95 -105.1 -15.6 -105.7 L-16.7 -107.05 -16.75 -107.15 -17.2 -108.4 Q-17.3 -110.05 -16.45 -111.05 -15.6 -112.05 -13.75 -112.4 L-13.5 -112.4 -13.6 -111.25 Q-13.65 -109.8 -12.9 -108.4 L-12.7 -107.95 -12.6 -107.85 Q-12.0 -106.95 -11.0 -106.5 L-10.8 -106.4 -9.1 -105.9 -7.95 -105.8 -6.6 -105.9 -5.2 -106.4 -5.15 -106.4 -5.05 -106.5 -5.1 -106.5 -5.25 -106.65 -5.6 -106.95 -5.65 -107.0 -6.9 -108.35 -7.25 -108.75 -9.65 -112.15 -11.65 -115.05 -12.45 -116.2 M-8.75 -122.4 L-8.0 -123.15 -5.25 -121.75 -5.15 -121.65 -5.1 -121.65 Q-2.3 -119.65 -2.15 -117.1 L-2.15 -117.0 -2.15 -116.5 -2.4 -117.0 Q-3.7 -119.6 -5.6 -121.05 -6.45 -121.65 -8.75 -122.4 M-2.85 -103.7 L-2.5 -103.6 -2.35 -103.6 Q-1.65 -102.15 -1.65 -98.6 -3.5 -100.0 -3.65 -102.9 -3.7 -103.65 -2.85 -103.7" fill="#000000" fill-opacity="0.2509804" fill-rule="evenodd" stroke="none"/>
    <path d="M13.15 -112.4 L13.25 -111.25 Q13.3 -109.8 12.6 -108.4 L12.35 -107.95 12.25 -107.85 Q11.65 -106.95 10.65 -106.5 L10.3 -107.0 11.3 -108.35 11.35 -108.5 Q12.2 -110.5 11.25 -115.05 L12.1 -116.2 12.15 -116.2 12.3 -116.1 12.5 -115.45 12.5 -115.35 12.9 -113.95 13.15 -112.4 M-12.45 -116.2 L-11.65 -115.05 Q-12.55 -110.5 -11.7 -108.5 L-11.65 -108.35 Q-11.25 -107.45 -10.6 -107.0 L-11.0 -106.5 Q-12.0 -106.95 -12.6 -107.85 L-12.7 -107.95 -12.9 -108.4 Q-13.65 -109.8 -13.6 -111.25 L-13.5 -112.4 -13.25 -113.95 -12.85 -115.35 -12.85 -115.45 -12.6 -116.1 -12.45 -116.2" fill="#000000" fill-rule="evenodd" stroke="none"/>
    <path d="M12.8 -96.0 L12.8 -96.1 12.85 -96.3 16.5 -95.35 16.7 -95.25 16.35 -94.7 14.75 -92.85 Q13.6 -91.65 12.4 -91.25 L12.4 -93.85 12.8 -96.0 M4.25 -73.5 L3.6 -72.25 3.5 -72.15 2.15 -71.6 2.05 -72.0 Q2.6 -76.0 3.6 -77.1 L4.3 -75.05 4.25 -73.5 M-3.9 -72.15 L-3.9 -72.25 -4.55 -73.5 -4.65 -75.05 -3.95 -77.1 Q-3.0 -76.0 -2.35 -72.0 L-2.5 -71.6 -3.9 -72.15 M-15.05 -92.85 L-16.7 -94.7 -17.05 -95.25 -16.9 -95.35 -13.2 -96.3 -13.15 -96.1 -13.15 -96.3 -13.0 -96.35 -9.05 -96.6 -9.05 -96.3 -8.95 -96.6 -5.15 -95.9 -4.95 -95.8 -3.05 -95.15 -2.45 -94.85 -2.2 -94.75 -0.25 -93.75 Q-0.45 -93.3 -0.25 -91.75 L-0.3 -91.65 Q-2.25 -93.55 -2.25 -94.65 L-2.25 -94.7 -2.6 -94.65 -2.55 -94.6 -3.5 -91.6 -3.6 -91.45 -3.65 -91.5 -4.5 -93.0 -4.8 -93.8 -4.95 -94.2 -4.95 -94.4 -5.15 -95.25 -5.35 -94.35 -5.45 -94.1 -5.65 -93.6 -6.15 -92.55 -6.2 -92.5 -6.6 -91.75 Q-7.1 -92.05 -7.95 -93.9 L-9.0 -96.15 -9.05 -96.3 -9.05 -96.15 -8.85 -91.65 -8.7 -90.15 -8.25 -86.6 -10.3 -89.95 Q-11.8 -92.9 -12.95 -96.05 L-13.15 -96.1 -13.1 -96.0 -12.75 -93.85 -12.75 -91.25 Q-14.0 -91.65 -15.05 -92.85 M-0.05 -91.65 L-0.1 -91.75 Q0.1 -93.3 -0.1 -93.75 L1.85 -94.75 2.15 -94.85 2.7 -95.15 4.55 -95.8 4.8 -95.9 8.65 -96.6 8.65 -96.15 8.7 -96.6 12.65 -96.35 12.8 -96.3 12.8 -96.1 12.6 -96.05 Q11.45 -92.9 9.9 -89.95 L7.9 -86.6 8.35 -90.15 8.5 -91.65 8.65 -96.15 7.6 -93.9 Q6.75 -92.05 6.2 -91.75 L5.8 -92.5 5.8 -92.55 5.3 -93.6 5.1 -94.1 5.0 -94.35 4.75 -95.25 4.65 -94.4 4.55 -94.2 4.45 -93.8 4.15 -93.0 3.3 -91.5 3.25 -91.45 3.2 -91.6 2.2 -94.6 2.25 -94.65 1.85 -94.7 1.85 -94.65 Q1.9 -93.55 -0.05 -91.65 M-0.15 -71.35 L-0.15 -71.45 Q0.0 -73.1 0.75 -74.0 1.3 -72.85 1.4 -71.3 L0.65 -71.0 -0.1 -70.95 -0.15 -71.15 -0.15 -71.35 M-0.95 -71.0 L-1.75 -71.3 Q-1.65 -72.85 -1.05 -74.0 -0.4 -73.1 -0.2 -71.45 L-0.2 -71.35 -0.2 -71.15 -0.25 -70.95 -0.95 -71.0" fill="#ffffcc" fill-rule="evenodd" stroke="none"/>
    <path d="M12.8 -96.0 L12.4 -93.85 12.4 -91.25 Q13.6 -91.65 14.75 -92.85 L15.05 -92.65 10.1 -84.85 5.35 -75.65 Q4.0 -78.0 5.2 -80.95 6.4 -83.95 6.5 -85.4 L6.5 -86.6 Q6.3 -88.7 4.9 -89.4 L5.15 -90.95 5.0 -92.05 4.45 -92.85 4.15 -93.0 4.45 -93.8 4.55 -94.2 4.65 -94.4 4.75 -95.25 5.0 -94.35 5.1 -94.1 5.3 -93.6 5.8 -92.55 5.8 -92.5 6.2 -91.75 Q6.75 -92.05 7.6 -93.9 L8.65 -96.15 8.5 -91.65 8.35 -90.15 7.9 -86.6 9.9 -89.95 Q11.45 -92.9 12.6 -96.05 L12.8 -96.0 M-5.7 -75.65 L-10.45 -84.85 -15.4 -92.65 -15.05 -92.85 Q-14.0 -91.65 -12.75 -91.25 L-12.75 -93.85 -13.1 -96.0 -12.95 -96.05 Q-11.8 -92.9 -10.3 -89.95 L-8.25 -86.6 -8.7 -90.15 -8.85 -91.65 -9.05 -96.15 -9.0 -96.15 -7.95 -93.9 Q-7.1 -92.05 -6.6 -91.75 L-6.2 -92.5 -6.15 -92.55 -5.65 -93.6 -5.45 -94.1 -5.35 -94.35 -5.15 -95.25 -4.95 -94.4 -4.95 -94.2 -4.8 -93.8 -4.5 -93.0 -4.85 -92.85 -5.35 -92.05 -5.45 -90.95 -5.25 -89.4 Q-6.7 -88.7 -6.85 -86.6 L-6.85 -85.4 Q-6.75 -83.95 -5.55 -80.95 -4.35 -78.0 -5.7 -75.65" fill="#660000" fill-rule="evenodd" stroke="none"/>
    <path d="M-0.3 -91.65 L-0.05 -91.65 Q1.9 -93.55 1.85 -94.65 L2.2 -94.6 3.2 -91.6 3.25 -91.45 3.3 -91.5 4.15 -93.0 4.45 -92.85 5.0 -92.05 5.15 -90.95 4.9 -89.4 3.4 -89.75 -0.15 -89.15 -0.2 -89.15 -3.8 -89.75 -5.25 -89.4 -5.45 -90.95 -5.35 -92.05 -4.85 -92.85 -4.5 -93.0 -3.65 -91.5 -3.6 -91.45 -3.5 -91.6 -2.55 -94.6 -2.25 -94.65 Q-2.25 -93.55 -0.3 -91.65" fill="#330000" fill-rule="evenodd" stroke="none"/>
    <path d="M5.35 -75.65 L4.25 -73.5 4.3 -75.05 3.6 -77.1 Q2.6 -76.0 2.05 -72.0 L2.15 -71.6 1.4 -71.3 Q1.3 -72.85 0.75 -74.0 0.0 -73.1 -0.15 -71.45 L-0.15 -71.35 -0.2 -71.45 Q-0.4 -73.1 -1.05 -74.0 -1.65 -72.85 -1.75 -71.3 L-2.5 -71.6 -2.35 -72.0 Q-3.0 -76.0 -3.95 -77.1 L-4.65 -75.05 -4.55 -73.5 -5.7 -75.65 Q-4.35 -78.0 -5.55 -80.95 -6.75 -83.95 -6.85 -85.4 L-6.85 -86.6 Q-6.7 -88.7 -5.25 -89.4 L-3.8 -89.75 -0.2 -89.15 -0.15 -89.15 3.4 -89.75 4.9 -89.4 Q6.3 -88.7 6.5 -86.6 L6.5 -85.4 Q6.4 -83.95 5.2 -80.95 4.0 -78.0 5.35 -75.65" fill="#993366" fill-rule="evenodd" stroke="none"/>
  </g>
</svg>
