<?xml version="1.0" encoding="UTF-8" standalone="no"?>
<svg xmlns:xlink="http://www.w3.org/1999/xlink" height="58.5px" width="52.8px" xmlns="http://www.w3.org/2000/svg">
  <g transform="matrix(1.0, 0.0, 0.0, 1.0, -373.55, -163.2)">
    <path d="M391.4 169.75 L390.6 171.35 Q393.2 168.5 396.35 167.65 L395.9 169.4 Q396.9 167.85 400.15 167.7 403.0 167.85 403.95 169.45 L403.55 167.7 Q406.65 168.55 409.3 171.4 L408.5 169.8 409.65 170.5 Q411.5 171.7 412.75 173.65 413.0 171.55 415.5 170.15 L416.45 169.65 Q421.7 168.2 423.95 163.25 L425.2 166.45 Q425.95 168.15 426.2 169.75 426.9 174.25 423.75 177.9 L422.3 179.8 Q421.35 180.95 419.0 182.2 420.7 185.9 420.8 189.95 420.85 194.2 421.85 198.3 422.5 201.15 424.75 203.1 L425.25 203.45 425.2 203.65 424.6 203.5 424.15 203.3 423.5 203.3 424.3 204.05 Q424.75 204.65 424.85 206.0 L423.9 205.2 423.1 204.7 Q424.15 205.55 424.0 207.45 L423.75 208.9 Q423.75 208.4 422.9 207.65 L423.35 208.65 423.3 209.9 Q422.8 211.2 422.7 212.3 L422.4 212.45 421.8 211.2 421.7 211.2 421.75 212.25 Q421.65 213.35 420.7 214.7 L419.4 216.7 419.3 216.7 418.95 214.9 418.9 214.75 418.9 214.95 418.9 215.55 Q418.8 216.7 417.65 217.75 L417.6 217.35 417.5 216.3 417.45 216.15 417.35 216.55 417.05 216.5 Q416.05 219.1 414.75 220.1 L414.9 218.65 Q413.9 219.6 411.95 220.35 L411.2 220.6 410.5 220.8 406.5 221.25 405.9 221.2 405.6 221.25 405.05 221.45 403.65 221.7 403.45 221.7 401.5 221.3 400.75 220.9 400.2 220.6 400.4 214.5 Q401.25 214.8 402.05 213.9 402.95 212.95 403.8 213.05 L403.8 212.95 403.85 212.5 Q403.6 211.85 402.6 211.1 401.7 210.4 401.05 210.25 L399.6 210.15 398.85 210.2 Q398.2 210.35 397.3 211.05 396.3 211.8 396.05 212.45 L396.05 212.9 396.1 213.0 Q396.95 212.9 397.8 213.9 398.65 214.75 399.5 214.5 L399.7 220.55 399.65 220.6 398.65 221.2 397.15 221.6 396.4 221.65 396.25 221.65 394.85 221.4 394.25 221.25 394.0 221.15 393.4 221.2 389.35 220.75 388.7 220.55 387.9 220.3 Q386.0 219.55 385.0 218.6 L385.15 220.05 Q383.85 219.05 382.85 216.45 L382.55 216.5 382.45 216.15 382.35 216.25 382.3 217.35 382.25 217.7 Q381.1 216.65 381.0 215.5 L381.0 214.9 381.0 214.7 380.95 214.85 380.55 216.65 380.5 216.65 379.2 214.65 Q378.2 213.3 378.15 212.25 378.1 211.6 378.2 211.15 L378.1 211.15 377.5 212.4 377.2 212.25 Q377.1 211.15 376.6 209.85 L376.55 208.6 Q376.55 208.1 377.0 207.6 376.15 208.35 376.15 208.85 L375.9 207.4 Q375.7 205.5 376.8 204.7 L375.95 205.15 375.05 205.95 Q375.15 204.6 375.55 204.0 L376.4 203.3 376.45 203.25 376.4 203.25 375.75 203.25 374.65 203.65 374.65 203.4 375.15 203.05 375.4 202.85 Q377.4 200.9 378.05 198.25 379.0 194.15 379.1 189.9 379.15 185.85 380.85 182.15 378.55 180.9 377.6 179.75 L376.15 177.85 Q373.85 175.25 373.6 172.2 373.35 169.45 374.65 166.4 L375.95 163.2 Q378.2 168.15 383.45 169.6 L384.4 170.1 Q386.85 171.5 387.1 173.6 388.35 171.65 390.25 170.45 L391.4 169.75 M392.3 195.75 Q391.35 195.0 390.0 194.55 386.4 193.35 383.85 197.8 382.25 200.6 383.3 202.45 L383.9 203.1 385.45 204.25 387.9 205.05 Q390.75 205.6 394.85 205.05 L394.9 204.4 Q394.95 202.5 394.35 199.4 L394.3 199.15 Q394.0 197.8 393.3 196.85 L392.3 195.75 M416.05 197.85 Q413.5 193.4 409.85 194.6 408.5 195.0 407.6 195.8 L406.6 196.9 Q405.85 197.85 405.6 199.2 L405.55 199.4 Q404.95 202.55 405.0 204.45 L405.0 205.1 Q409.15 205.65 412.0 205.1 L414.45 204.3 415.5 203.5 416.6 202.45 Q417.65 200.65 416.05 197.85" fill="#000000" fill-rule="evenodd" stroke="none"/>
  </g>
</svg>
