<?xml version="1.0" encoding="UTF-8" standalone="no"?>
<svg xmlns:xlink="http://www.w3.org/1999/xlink" height="56.9px" width="59.45px" xmlns="http://www.w3.org/2000/svg">
  <g transform="matrix(1.0, 0.0, 0.0, 1.0, -370.2, -169.15)">
    <path d="M393.9 171.7 L397.25 171.9 397.05 171.55 399.95 172.05 402.8 171.55 402.6 171.9 405.95 171.7 405.5 171.85 Q407.65 171.7 409.7 172.4 L409.05 172.65 412.6 173.25 411.7 173.65 413.45 173.6 416.45 173.2 417.1 173.0 Q419.1 172.25 420.6 170.7 421.3 169.95 422.2 169.55 423.0 169.2 423.9 169.15 L423.95 169.15 423.9 169.2 424.0 169.2 Q424.95 169.15 425.8 169.6 428.0 170.75 428.65 173.15 L428.85 175.0 Q428.8 175.55 429.05 175.75 L429.35 175.1 429.4 176.55 Q429.4 177.5 428.9 178.25 L428.75 178.65 429.0 178.7 429.65 177.8 429.55 179.5 Q429.2 182.0 426.95 183.05 L425.0 183.8 424.2 184.35 Q424.2 186.1 425.55 187.3 427.4 189.0 428.55 190.95 L427.7 190.6 427.95 190.95 Q429.45 192.65 429.55 194.95 L429.3 194.6 429.3 199.65 429.1 198.4 429.25 200.35 429.35 203.9 Q429.2 205.65 428.2 207.15 L428.35 205.85 Q427.65 208.15 426.5 210.2 L425.5 212.1 425.4 211.4 424.1 213.85 423.6 214.5 422.25 215.8 422.55 214.1 421.95 215.05 Q419.9 217.5 416.85 218.4 L416.95 218.1 416.75 218.25 416.7 218.25 415.05 219.05 413.3 219.7 413.2 219.7 Q412.3 219.9 411.5 220.3 L410.85 220.55 409.25 221.0 Q408.3 221.15 407.65 221.8 L407.6 221.85 407.6 221.9 407.5 222.0 406.55 223.05 406.25 223.35 407.0 223.1 406.4 223.55 404.65 224.5 403.15 225.15 400.5 226.05 399.35 226.05 396.7 225.15 395.25 224.5 393.5 223.55 392.9 223.1 393.55 223.35 393.6 223.35 393.35 223.05 392.4 222.0 392.25 221.9 392.25 221.85 392.2 221.8 Q391.55 221.15 390.65 221.0 L389.0 220.55 388.35 220.3 Q387.8 220.0 387.2 219.85 L386.7 219.7 384.85 219.05 383.2 218.25 383.15 218.25 382.9 218.1 383.05 218.4 Q379.95 217.5 377.9 215.05 L377.3 214.1 377.65 215.8 376.25 214.5 375.8 213.85 374.45 211.4 374.35 212.1 373.4 210.2 Q372.25 208.15 371.5 205.85 L371.65 207.15 Q370.65 205.65 370.55 203.9 370.4 202.1 370.6 200.35 L370.8 198.4 370.55 199.65 370.55 194.6 370.3 194.95 370.35 194.6 Q370.5 192.55 371.9 190.95 L372.2 190.6 371.3 190.95 Q372.45 189.0 374.3 187.3 375.65 186.1 375.7 184.35 L374.9 183.8 372.95 183.05 372.9 183.05 Q370.7 182.0 370.35 179.5 L370.2 177.8 370.9 178.7 371.1 178.65 370.95 178.25 Q370.45 177.5 370.45 176.55 L370.5 175.1 370.8 175.75 371.05 175.0 Q371.0 174.05 371.25 173.15 371.85 170.75 374.1 169.6 374.9 169.15 375.85 169.2 L375.95 169.2 375.9 169.15 376.0 169.15 Q376.9 169.2 377.7 169.55 378.55 169.95 379.3 170.7 380.8 172.25 382.75 173.0 L383.4 173.2 386.45 173.6 388.15 173.65 387.3 173.25 390.85 172.65 390.15 172.4 Q392.2 171.7 394.4 171.85 L393.9 171.7 M387.0 191.3 L386.95 191.3 387.15 192.25 387.7 194.0 388.35 194.9 Q389.5 195.65 390.65 195.7 L392.0 195.45 392.05 195.45 392.2 195.4 392.65 195.2 392.75 195.15 392.75 195.1 392.55 194.9 392.45 194.85 392.05 194.5 391.7 194.2 Q390.15 192.9 388.4 192.0 L387.0 191.3 M412.9 191.3 L411.5 192.0 Q409.7 192.9 408.2 194.2 L407.8 194.5 407.4 194.85 407.35 194.9 407.15 195.1 407.1 195.1 407.1 195.15 407.2 195.2 407.65 195.4 407.85 195.45 407.9 195.45 409.25 195.7 Q410.4 195.65 411.5 194.9 412.0 194.55 412.15 194.0 L412.75 192.25 412.95 191.3 412.9 191.3 M407.45 214.9 Q407.25 214.7 407.0 214.65 L404.65 214.7 403.9 214.75 403.6 214.75 399.95 214.45 396.3 214.75 395.95 214.75 395.2 214.7 392.85 214.65 Q392.6 214.7 392.45 214.9 L392.25 215.35 393.2 218.1 393.85 219.25 394.1 218.45 394.35 220.1 394.2 220.8 394.2 220.85 394.35 222.1 394.85 222.3 396.8 223.0 396.9 223.05 398.15 223.3 398.3 223.35 398.35 223.35 398.45 223.4 398.9 223.5 399.9 223.7 400.0 223.7 400.95 223.5 401.45 223.4 401.55 223.35 401.75 223.3 403.0 223.05 403.1 223.0 405.05 222.3 405.5 222.1 405.7 220.85 405.7 220.8 405.5 220.1 405.75 218.45 406.0 219.25 406.7 218.1 407.65 215.35 407.45 214.9" fill="#000000" fill-rule="evenodd" stroke="none"/>
  </g>
</svg>
