<?xml version="1.0" encoding="UTF-8" standalone="no"?>
<svg xmlns:xlink="http://www.w3.org/1999/xlink" height="55.95px" width="66.1px" xmlns="http://www.w3.org/2000/svg">
  <g transform="matrix(1.0, 0.0, 0.0, 1.0, -367.8, -171.35)">
    <path d="M392.85 171.4 L392.95 171.35 393.0 171.35 394.6 172.55 392.9 174.05 397.3 174.05 396.25 175.45 399.8 174.75 400.85 176.6 401.9 174.75 405.45 175.45 404.4 174.05 408.8 174.05 407.1 172.55 408.7 171.35 408.85 171.4 408.95 171.4 Q429.2 173.05 433.6 192.2 435.8 209.7 421.8 219.5 L421.35 219.8 Q418.7 221.6 415.45 223.15 409.1 228.1 400.85 227.15 392.6 228.1 386.2 223.15 383.0 221.6 380.35 219.8 L379.9 219.5 Q365.9 209.7 368.1 192.2 372.5 173.05 392.75 171.4 L392.85 171.4 M373.05 191.65 L373.05 193.3 370.75 195.5 370.75 197.65 371.95 197.65 372.85 204.0 375.15 203.3 377.95 212.0 379.6 210.3 384.15 218.15 385.25 216.45 387.75 219.8 389.85 216.95 393.5 219.8 395.8 216.75 399.3 220.85 400.85 219.2 402.4 220.85 405.9 216.75 408.2 219.8 411.85 216.95 413.9 219.8 416.45 216.45 417.55 218.15 422.1 210.3 423.7 212.0 426.55 203.3 428.85 204.0 429.7 197.65 430.9 197.65 430.9 195.5 428.6 193.3 428.6 191.65 427.4 190.45 427.7 191.0 427.0 193.35 429.0 196.35 428.4 201.4 425.95 201.4 423.95 206.45 421.65 206.0 416.9 213.55 412.65 210.9 407.9 215.7 403.45 212.75 400.85 214.9 398.25 212.75 393.8 215.7 389.05 210.9 384.75 213.55 380.05 206.0 377.75 206.45 375.75 201.4 373.3 201.4 372.7 196.35 374.7 193.35 373.95 191.0 374.3 190.45 373.05 191.65 M384.65 196.7 L387.85 198.05 392.1 198.4 395.55 197.1 395.05 197.1 391.4 192.4 389.95 191.15 383.85 189.5 382.7 188.2 Q382.3 188.5 381.85 188.75 L382.6 191.95 384.65 196.7 M411.75 191.15 L410.25 192.4 406.65 197.1 406.1 197.1 409.6 198.4 413.85 198.05 417.05 196.7 419.1 191.95 419.85 188.75 419.0 188.2 417.85 189.5 411.75 191.15 M405.55 205.85 L405.0 204.3 400.85 200.2 396.7 204.3 396.15 205.85 399.05 204.2 400.85 203.75 402.6 204.2 405.55 205.85" fill="#000000" fill-rule="evenodd" stroke="none"/>
  </g>
</svg>
