<?xml version="1.0" encoding="UTF-8" standalone="no"?>
<svg xmlns:xlink="http://www.w3.org/1999/xlink" height="63.3px" width="75.55px" xmlns="http://www.w3.org/2000/svg">
  <g transform="matrix(1.0, 0.0, 0.0, 1.0, -304.55, -112.4)">
    <path d="M371.2 142.1 L371.85 142.1 371.95 143.6 371.7 143.85 Q367.25 147.4 365.2 150.3 363.1 153.2 363.55 156.6 363.95 160.0 367.7 164.8 L379.65 169.2 380.1 169.8 378.3 174.65 374.25 175.7 371.0 173.6 365.95 172.3 353.05 172.3 349.7 173.8 348.0 173.8 343.85 171.4 343.35 171.45 342.9 171.45 335.55 171.8 Q328.15 172.25 320.75 171.5 L319.45 171.3 Q316.85 170.4 314.8 168.45 L313.8 168.65 313.35 168.7 Q309.6 169.0 307.1 166.15 303.5 162.0 305.0 156.75 305.65 154.5 307.7 153.9 L308.0 154.2 308.15 154.35 Q308.55 155.0 308.4 155.75 307.85 158.7 309.15 161.25 309.55 162.05 310.4 162.25 L312.05 162.2 Q312.35 159.35 310.35 155.0 L309.4 151.6 310.0 148.65 313.35 142.4 316.5 139.15 324.25 135.1 325.45 135.55 325.45 136.95 321.7 141.5 Q312.9 158.85 327.1 161.9 L331.35 161.9 331.35 160.85 330.65 159.8 330.3 159.25 Q328.5 155.95 329.1 152.55 329.3 151.3 329.8 150.1 331.45 146.35 333.9 143.0 L334.2 142.6 Q331.3 138.05 332.0 132.75 332.4 129.65 334.3 127.2 337.2 123.5 341.05 120.8 L342.75 121.6 342.6 121.85 337.5 129.05 339.6 136.95 355.85 125.15 355.85 113.0 356.65 112.4 357.85 112.4 358.2 113.1 361.7 118.95 Q364.05 123.2 356.05 130.55 347.95 137.9 343.85 143.0 L341.55 145.55 339.9 148.45 339.2 151.7 339.8 154.1 343.65 158.55 345.9 156.35 346.7 154.6 349.2 152.6 351.45 152.2 351.85 153.5 349.3 157.95 349.3 163.95 358.4 165.25 Q358.4 163.15 356.5 159.85 354.6 156.5 356.65 153.75 L361.6 147.35 Q364.4 143.75 371.2 142.1" fill="#000000" fill-rule="evenodd" stroke="none"/>
  </g>
</svg>
