<?xml version="1.0" encoding="UTF-8" standalone="no"?>
<svg xmlns:xlink="http://www.w3.org/1999/xlink" height="152.45px" width="121.7px" xmlns="http://www.w3.org/2000/svg">
  <g transform="matrix(1.0, 0.0, 0.0, 1.0, -339.1, -306.6)">
    <path d="M395.5 347.45 L391.1 347.45 381.95 339.85 M404.4 347.45 L408.8 347.45 417.95 339.85" fill="none" stroke="#000000" stroke-linecap="round" stroke-linejoin="round" stroke-opacity="0.5019608" stroke-width="1.0"/>
    <path d="M436.95 307.1 L436.95 315.3 Q440.85 323.35 443.85 331.65 451.75 353.15 453.6 376.1 454.9 394.1 460.3 410.25 L454.85 419.7 460.3 431.6 456.5 437.0 Q457.85 442.25 457.6 448.05 L457.15 452.8 457.0 453.9 Q443.35 460.55 426.45 457.65 L422.95 451.85 Q422.05 449.95 421.45 448.05 420.15 443.9 420.25 439.55 L414.9 434.95 418.25 425.5 414.3 422.15 417.95 412.4 Q412.85 378.7 404.4 347.45 L395.5 347.45 Q387.05 378.7 381.95 412.4 L385.6 422.15 381.65 425.5 385.0 434.95 379.65 439.55 Q379.75 443.9 378.45 448.05 L376.95 451.85 373.45 457.65 Q356.55 460.55 342.9 453.9 L342.75 452.8 342.3 448.05 Q342.05 442.25 343.4 437.0 L339.6 431.6 345.05 419.7 339.6 410.25 Q345.0 394.1 346.3 376.1 348.15 353.15 356.05 331.65 359.05 323.35 362.95 315.3 L362.95 307.1" fill="none" stroke="#000000" stroke-linecap="round" stroke-linejoin="round" stroke-width="1.0"/>
  </g>
</svg>
