<?xml version="1.0" encoding="UTF-8" standalone="no"?>
<svg xmlns:xlink="http://www.w3.org/1999/xlink" height="6.55px" width="30.4px" xmlns="http://www.w3.org/2000/svg">
  <g transform="matrix(1.0, 0.0, 0.0, 1.0, -384.7, -148.25)">
    <path d="M403.6 153.35 Q402.1 153.3 402.1 149.1 M396.2 153.35 Q397.7 153.3 397.7 149.1 M388.05 153.4 Q386.2 153.35 385.2 154.3 386.35 152.5 389.0 152.35 L389.4 152.3 394.35 152.05 396.15 151.45 Q395.95 152.9 394.1 153.25 L388.05 153.4 M395.5 149.65 Q393.05 148.7 390.6 148.75 M414.6 154.3 Q413.45 152.5 410.8 152.35 L410.4 152.3 405.45 152.05 403.65 151.45 Q403.85 152.9 405.7 153.25 L411.75 153.4 Q413.6 153.35 414.6 154.3 M404.3 149.65 Q406.75 148.7 409.2 148.75" fill="none" stroke="#000000" stroke-linecap="round" stroke-linejoin="round" stroke-opacity="0.5019608" stroke-width="1.0"/>
  </g>
</svg>
