<?xml version="1.0" encoding="UTF-8" standalone="no"?>
<svg xmlns:xlink="http://www.w3.org/1999/xlink" height="4.4px" width="31.6px" xmlns="http://www.w3.org/2000/svg">
  <g transform="matrix(1.0, 0.0, 0.0, 1.0, -384.1, -155.0)">
    <path d="M398.65 155.85 L398.65 156.3 398.2 157.35 397.55 157.85 397.4 157.9 397.05 157.95 396.8 157.95 395.45 157.8 394.95 157.55 394.5 157.95 394.45 157.95 393.85 158.45 393.6 158.55 392.95 158.75 391.7 158.9 391.65 158.9 390.85 158.9 390.65 158.9 390.2 158.9 Q388.2 158.8 387.45 158.25 L386.65 157.3 385.85 155.9 384.6 156.2 M401.15 155.85 L401.15 156.3 Q401.15 156.85 401.6 157.35 L402.25 157.85 402.4 157.9 402.75 157.95 403.0 157.95 404.35 157.8 404.85 157.55 406.3 156.7 Q407.75 155.8 408.7 155.6 L409.55 155.5 409.6 155.5 410.55 155.5 412.4 155.5 413.75 155.85 413.95 155.9 415.2 156.2 M394.95 157.55 L393.5 156.7 Q392.05 155.8 391.1 155.6 L390.25 155.5 390.2 155.5 389.25 155.5 387.4 155.5 386.05 155.85 385.85 155.9 M392.9 156.9 L391.5 156.25 390.05 156.1 386.65 156.1 Q387.8 158.4 391.95 158.4 L392.85 158.4 394.25 157.7 392.9 156.9 M409.75 156.1 L413.15 156.1 Q412.0 158.4 407.85 158.4 L406.95 158.4 405.55 157.7 406.9 156.9 408.3 156.25 409.75 156.1 M404.85 157.55 L405.3 157.95 405.35 157.95 405.95 158.45 406.2 158.55 406.85 158.75 408.1 158.9 408.15 158.9 408.95 158.9 409.15 158.9 409.6 158.9 Q411.6 158.8 412.35 158.25 L413.15 157.3 413.95 155.9" fill="none" stroke="#000000" stroke-linecap="round" stroke-linejoin="round" stroke-opacity="0.5019608" stroke-width="1.0"/>
  </g>
</svg>
