<?xml version="1.0" encoding="UTF-8" standalone="no"?>
<svg xmlns:xlink="http://www.w3.org/1999/xlink" height="7.95px" width="8.05px" xmlns="http://www.w3.org/2000/svg">
  <g transform="matrix(1.0, 0.0, 0.0, 1.0, -387.0, -153.3)">
    <path d="M393.85 154.45 Q395.05 155.65 395.05 157.3 395.05 158.9 393.85 160.1 L392.5 160.95 390.75 161.25 Q389.25 161.15 388.15 160.1 386.95 158.9 387.0 157.3 386.95 155.65 388.15 154.45 389.35 153.3 391.0 153.3 392.65 153.3 393.85 154.45 M388.95 156.55 L389.6 156.8 390.15 156.55 390.4 156.0 390.15 155.4 Q389.95 155.15 389.6 155.2 389.2 155.15 388.95 155.4 L388.75 156.0 388.95 156.55" fill="#000000" fill-rule="evenodd" stroke="none"/>
  </g>
</svg>
