<?xml version="1.0" encoding="UTF-8" standalone="no"?>
<svg xmlns:xlink="http://www.w3.org/1999/xlink" height="7.95px" width="9.5px" xmlns="http://www.w3.org/2000/svg">
  <g transform="matrix(1.0, 0.0, 0.0, 1.0, -385.35, -153.1)">
    <path d="M386.75 153.85 Q388.15 152.85 390.1 153.15 392.05 153.4 393.45 154.75 394.85 156.05 394.85 157.7 394.85 159.05 393.85 160.0 L393.45 160.3 Q392.05 161.3 390.1 161.0 388.15 160.75 386.75 159.45 385.35 158.1 385.35 156.45 L385.4 155.7 Q385.6 154.9 386.2 154.3 386.4 154.05 386.75 153.85 M393.85 157.45 Q394.05 157.05 393.85 156.55 L393.35 155.85 393.1 155.7 Q392.55 155.3 392.05 155.4 391.5 155.45 391.3 155.85 L391.25 156.0 Q391.1 156.35 391.3 156.75 L392.05 157.6 Q392.6 157.95 393.1 157.9 L393.85 157.45" fill="#000000" fill-rule="evenodd" stroke="none"/>
  </g>
</svg>
