<?xml version="1.0" encoding="UTF-8" standalone="no"?>
<svg xmlns:xlink="http://www.w3.org/1999/xlink" height="79.55px" width="49.9px" xmlns="http://www.w3.org/2000/svg">
  <g transform="matrix(1.0, 0.0, 0.0, 1.0, 92.95, -57.5)">
    <path d="M-62.2 69.9 Q-60.7 70.6 -59.75 69.65 -58.75 68.35 -59.35 66.35 -58.75 66.05 -58.5 66.7 -58.15 68.5 -58.5 69.45 -58.85 70.5 -58.15 71.05 L-56.65 71.75 -56.4 72.05 Q-60.15 72.0 -62.2 69.9" fill="url(#gradient0)" fill-rule="evenodd" stroke="none"/>
    <path d="M-56.4 72.05 L-55.7 72.05 -55.35 74.05 -54.45 73.9 -53.3 80.2 Q-53.85 82.0 -53.45 83.9 L-52.2 90.95 -53.0 92.55 -53.45 92.65 -54.3 87.6 -53.95 87.55 -54.1 86.8 -56.1 75.6 -57.95 75.9 -58.05 75.05 Q-61.1 74.55 -61.1 73.4 L-61.05 72.65 Q-61.1 70.5 -62.8 70.8 L-62.85 70.8 Q-64.55 71.15 -63.85 73.15 -63.65 73.5 -63.6 73.85 -63.25 74.95 -65.85 76.4 L-65.75 77.3 -67.4 77.6 -65.35 88.95 -65.25 89.55 -67.55 90.0 -68.5 90.1 -68.55 89.85 Q-69.15 86.8 -71.75 87.05 -69.4 85.8 -70.2 82.8 L-71.05 77.7 -71.35 76.55 Q-72.05 75.0 -74.5 75.75 -71.8 74.7 -71.0 71.0 -70.5 67.85 -69.1 67.45 L-67.5 67.0 Q-65.35 66.5 -66.0 63.8 L-66.1 63.25 Q-64.5 63.0 -64.35 65.25 -63.85 68.2 -62.2 69.9 -60.15 72.0 -56.4 72.05 M-68.0 85.95 L-68.3 85.4 -68.85 85.3 -69.35 85.6 -69.45 86.2 -69.15 86.75 -68.65 86.85 -68.1 86.5 -68.0 85.95" fill="url(#gradient1)" fill-rule="evenodd" stroke="none"/>
    <path d="M-74.5 75.75 L-74.6 75.8 -74.7 75.8 -74.7 75.85 -74.9 75.85 -75.7 76.3 Q-77.5 76.4 -76.8 74.05 -76.6 72.3 -78.0 71.3 -79.25 70.4 -81.8 71.05 -84.4 69.0 -87.45 70.7 -88.95 69.35 -91.2 69.25 -92.65 66.3 -92.95 60.45 -92.9 59.4 -92.15 58.45 -91.6 57.6 -90.25 57.5 -79.95 57.25 -72.45 61.0 -70.35 61.9 -68.05 61.35 -66.7 61.0 -66.35 62.2 L-66.1 63.25 -66.0 63.8 Q-65.35 66.5 -67.5 67.0 L-69.1 67.45 Q-70.5 67.85 -71.0 71.0 -71.8 74.7 -74.5 75.75" fill="url(#gradient2)" fill-rule="evenodd" stroke="none"/>
    <path d="M-63.85 73.15 Q-64.55 71.15 -62.85 70.8 L-62.8 70.8 Q-61.1 70.5 -61.05 72.65 L-63.85 73.15" fill="url(#gradient3)" fill-rule="evenodd" stroke="none"/>
    <path d="M-61.05 72.65 L-61.1 73.4 Q-61.1 74.55 -58.05 75.05 -62.1 75.25 -65.85 76.4 -63.25 74.95 -63.6 73.85 -63.65 73.5 -63.85 73.15 L-61.05 72.65" fill="url(#gradient4)" fill-rule="evenodd" stroke="none"/>
    <path d="M-57.95 75.9 L-56.1 75.6 -54.1 86.8 -54.25 87.1 -54.45 86.95 -55.7 79.95 Q-55.9 78.75 -56.4 78.6 -56.9 78.9 -56.7 80.1 L-55.45 87.05 Q-55.4 87.3 -55.65 87.45 L-59.15 88.05 -58.85 87.75 -58.85 87.6 -59.85 81.8 Q-60.25 79.35 -61.45 79.3 -62.45 79.75 -62.05 82.2 L-61.05 88.0 -60.95 88.15 -60.65 88.35 -63.9 88.95 -64.05 88.65 -65.2 82.35 Q-65.5 80.65 -66.15 80.55 -66.4 80.65 -66.15 81.95 L-64.95 88.8 -65.05 89.05 -65.35 88.95 -67.4 77.6 -65.75 77.3 -57.95 75.9 M-63.85 77.8 L-64.25 77.8 -64.75 77.85 -64.8 77.65 -65.45 77.75 -65.1 79.75 -64.45 79.6 -64.45 79.4 -63.95 79.35 -63.65 79.1 Q-63.05 78.75 -63.1 78.35 -63.15 77.95 -63.85 77.8 M-58.25 76.8 L-58.6 76.8 -59.1 76.85 -59.15 76.65 -59.9 76.75 -59.55 78.75 -58.85 78.6 -58.85 78.4 -58.35 78.35 -58.0 78.15 Q-57.4 77.75 -57.45 77.35 -57.5 76.95 -58.25 76.8" fill="url(#gradient5)" fill-rule="evenodd" stroke="none"/>
    <path d="M-60.65 88.35 L-60.95 88.15 -61.05 88.0 -62.05 82.2 Q-62.45 79.75 -61.45 79.3 -60.25 79.35 -59.85 81.8 L-58.85 87.6 -58.85 87.75 -59.15 88.05 -60.65 88.35" fill="url(#gradient6)" fill-rule="evenodd" stroke="none"/>
    <path d="M-64.5 93.6 L-66.95 93.65 -67.55 90.0 -65.25 89.55 -64.5 93.6" fill="url(#gradient7)" fill-rule="evenodd" stroke="none"/>
    <path d="M-60.1 93.85 L-60.5 93.9 -64.5 93.6 -65.25 89.55 -58.75 88.4 -57.85 93.4 -58.25 93.45 -59.0 93.6 -60.1 93.85" fill="url(#gradient8)" fill-rule="evenodd" stroke="none"/>
    <path d="M-51.55 92.35 L-51.4 92.3 -43.15 135.25 -43.05 135.3 -43.05 135.35 -43.9 135.8 -51.55 92.35" fill="url(#gradient9)" fill-rule="evenodd" stroke="none"/>
    <path d="M-53.0 92.55 L-51.55 92.3 -51.55 92.35 -43.9 135.8 -45.35 136.05 -53.0 92.55 M-52.2 95.15 L-51.25 100.75 -50.55 100.6 -51.55 95.05 -52.2 95.15 M-50.25 106.25 L-49.3 111.8 -48.65 111.7 -49.6 106.15 -50.25 106.25 M-46.7 122.55 L-47.7 117.0 -48.35 117.1 -47.35 122.65 -46.7 122.55 M-46.5 127.75 L-45.5 133.35 -44.85 133.25 -45.85 127.65 -46.5 127.75" fill="url(#gradient10)" fill-rule="evenodd" stroke="none"/>
    <path d="M-45.35 136.05 Q-46.0 136.65 -47.5 136.95 L-49.8 136.85 -57.45 93.35 -53.45 92.65 -53.0 92.55 -45.35 136.05" fill="url(#gradient11)" fill-rule="evenodd" stroke="none"/>
    <path d="M-54.3 87.6 L-53.45 92.65 -57.45 93.35 -57.85 93.4 -58.75 88.4 -54.3 87.6" fill="url(#gradient12)" fill-rule="evenodd" stroke="none"/>
    <path d="M-49.8 136.85 L-52.4 136.65 -60.1 93.85 -59.0 93.6 -57.8 100.45 -58.15 100.75 -57.95 101.95 -57.15 102.1 -56.4 101.65 -56.65 100.45 Q-56.8 100.4 -57.0 100.3 L-58.25 93.45 -57.85 93.4 -57.45 93.35 -49.8 136.85" fill="url(#gradient13)" fill-rule="evenodd" stroke="none"/>
    <path d="M-57.2 109.85 L-60.1 93.85 -57.45 93.35 -54.9 107.8 -57.2 109.85 M-53.45 116.05 L-52.65 120.6 -54.9 122.65 -55.75 118.05 -53.45 116.05 M-52.15 123.5 L-49.8 136.85 -52.4 136.65 -54.4 125.5 -52.15 123.5" fill="#000000" fill-opacity="0.2" fill-rule="evenodd" stroke="none"/>
    <path d="M-54.9 107.8 L-49.65 103.1 -48.2 111.35 -53.45 116.05 -55.75 118.05 -57.2 109.85 -54.9 107.8 M-52.65 120.6 L-47.4 115.95 -46.9 118.8 -52.15 123.5 -54.4 125.5 -54.9 122.65 -52.65 120.6" fill="#ffffff" fill-opacity="0.5019608" fill-rule="evenodd" stroke="none"/>
  </g>
  <defs>
    <linearGradient gradientTransform="matrix(0.0, 0.0035, -0.0035, 0.0, -59.3, 69.15)" gradientUnits="userSpaceOnUse" id="gradient0" spreadMethod="pad" x1="-819.2" x2="819.2">
      <stop offset="0.0" stop-color="#000000" stop-opacity="0.2509804"/>
      <stop offset="1.0" stop-color="#000000" stop-opacity="0.0"/>
    </linearGradient>
    <linearGradient gradientTransform="matrix(0.0, 0.0179, -0.0136, 0.0, -63.35, 77.95)" gradientUnits="userSpaceOnUse" id="gradient1" spreadMethod="pad" x1="-819.2" x2="819.2">
      <stop offset="0.0" stop-color="#000000" stop-opacity="0.2509804"/>
      <stop offset="1.0" stop-color="#000000" stop-opacity="0.0"/>
    </linearGradient>
    <linearGradient gradientTransform="matrix(0.0, 0.0115, -0.0165, 0.0, -79.4, 66.9)" gradientUnits="userSpaceOnUse" id="gradient2" spreadMethod="pad" x1="-819.2" x2="819.2">
      <stop offset="0.0" stop-color="#000000" stop-opacity="0.2509804"/>
      <stop offset="1.0" stop-color="#000000" stop-opacity="0.0"/>
    </linearGradient>
    <linearGradient gradientTransform="matrix(0.0, 0.0015, -0.0018, 0.0, -62.55, 71.95)" gradientUnits="userSpaceOnUse" id="gradient3" spreadMethod="pad" x1="-819.2" x2="819.2">
      <stop offset="0.0" stop-color="#000000" stop-opacity="0.2509804"/>
      <stop offset="1.0" stop-color="#000000" stop-opacity="0.0"/>
    </linearGradient>
    <linearGradient gradientTransform="matrix(0.0, 0.0023, -0.0048, 0.0, -61.95, 74.5)" gradientUnits="userSpaceOnUse" id="gradient4" spreadMethod="pad" x1="-819.2" x2="819.2">
      <stop offset="0.0" stop-color="#000000" stop-opacity="0.2509804"/>
      <stop offset="1.0" stop-color="#000000" stop-opacity="0.0"/>
    </linearGradient>
    <linearGradient gradientTransform="matrix(0.0, 0.0082, -0.0081, 0.0, -60.75, 82.3)" gradientUnits="userSpaceOnUse" id="gradient5" spreadMethod="pad" x1="-819.2" x2="819.2">
      <stop offset="0.0" stop-color="#000000" stop-opacity="0.2509804"/>
      <stop offset="1.0" stop-color="#000000" stop-opacity="0.0"/>
    </linearGradient>
    <linearGradient gradientTransform="matrix(0.0, 0.0055, -0.002, 0.0, -60.5, 83.8)" gradientUnits="userSpaceOnUse" id="gradient6" spreadMethod="pad" x1="-819.2" x2="819.2">
      <stop offset="0.0" stop-color="#000000" stop-opacity="0.2509804"/>
      <stop offset="1.0" stop-color="#000000" stop-opacity="0.0"/>
    </linearGradient>
    <linearGradient gradientTransform="matrix(0.0, 0.0025, -0.0019, 0.0, -66.0, 91.6)" gradientUnits="userSpaceOnUse" id="gradient7" spreadMethod="pad" x1="-819.2" x2="819.2">
      <stop offset="0.0" stop-color="#000000" stop-opacity="0.2509804"/>
      <stop offset="1.0" stop-color="#000000" stop-opacity="0.0"/>
    </linearGradient>
    <linearGradient gradientTransform="matrix(0.0, 0.0034, -0.0045, 0.0, -61.55, 91.15)" gradientUnits="userSpaceOnUse" id="gradient8" spreadMethod="pad" x1="-819.2" x2="819.2">
      <stop offset="0.0" stop-color="#000000" stop-opacity="0.2509804"/>
      <stop offset="1.0" stop-color="#000000" stop-opacity="0.0"/>
    </linearGradient>
    <linearGradient gradientTransform="matrix(0.0, 0.0266, -0.0052, 0.0, -47.3, 114.05)" gradientUnits="userSpaceOnUse" id="gradient9" spreadMethod="pad" x1="-819.2" x2="819.2">
      <stop offset="0.0" stop-color="#000000" stop-opacity="0.2509804"/>
      <stop offset="1.0" stop-color="#000000" stop-opacity="0.0"/>
    </linearGradient>
    <linearGradient gradientTransform="matrix(0.0, 0.0267, -0.0056, 0.0, -48.45, 114.15)" gradientUnits="userSpaceOnUse" id="gradient10" spreadMethod="pad" x1="-819.2" x2="819.2">
      <stop offset="0.0" stop-color="#000000" stop-opacity="0.2509804"/>
      <stop offset="1.0" stop-color="#000000" stop-opacity="0.0"/>
    </linearGradient>
    <linearGradient gradientTransform="matrix(0.0, 0.0271, -0.0074, 0.0, -51.4, 114.75)" gradientUnits="userSpaceOnUse" id="gradient11" spreadMethod="pad" x1="-819.2" x2="819.2">
      <stop offset="0.0" stop-color="#000000" stop-opacity="0.2509804"/>
      <stop offset="1.0" stop-color="#000000" stop-opacity="0.0"/>
    </linearGradient>
    <linearGradient gradientTransform="matrix(0.0, 0.0035, -0.0032, 0.0, -56.1, 90.5)" gradientUnits="userSpaceOnUse" id="gradient12" spreadMethod="pad" x1="-819.2" x2="819.2">
      <stop offset="0.0" stop-color="#000000" stop-opacity="0.2509804"/>
      <stop offset="1.0" stop-color="#000000" stop-opacity="0.0"/>
    </linearGradient>
    <linearGradient gradientTransform="matrix(0.0, 0.0267, -0.0063, 0.0, -54.95, 115.2)" gradientUnits="userSpaceOnUse" id="gradient13" spreadMethod="pad" x1="-819.2" x2="819.2">
      <stop offset="0.0" stop-color="#000000" stop-opacity="0.2509804"/>
      <stop offset="1.0" stop-color="#000000" stop-opacity="0.0"/>
    </linearGradient>
  </defs>
</svg>
