<?xml version="1.0" encoding="UTF-8" standalone="no"?>
<svg xmlns:xlink="http://www.w3.org/1999/xlink" height="247.9px" width="84.2px" xmlns="http://www.w3.org/2000/svg">
  <g transform="matrix(1.0, 0.0, 0.0, 1.0, -315.7, -307.1)">
    <path d="M399.9 343.9 L395.1 343.9 Q392.85 350.85 390.75 357.9 L387.05 370.8 Q385.15 377.7 383.4 384.75 L380.1 398.35 378.1 407.1 377.55 409.7 375.35 420.35 378.8 433.3 Q379.55 436.5 379.6 439.55 379.75 445.9 376.9 451.85 L373.4 457.65 Q369.35 464.7 366.65 472.1 364.3 478.25 362.9 484.7 361.7 490.0 361.15 495.55 L362.9 499.85 362.05 503.3 363.0 506.5 363.0 506.8 Q363.55 510.65 362.75 513.95 362.25 516.0 361.2 517.85 357.8 523.35 355.95 529.5 354.9 532.8 354.35 536.3 353.8 540.25 352.2 543.95 350.0 549.0 345.85 553.6 L344.2 555.0 Q330.2 545.05 316.1 549.8 314.6 542.85 318.4 536.45 L344.5 503.45 344.5 498.7 347.75 495.55 342.7 452.8 Q341.45 444.4 343.35 437.0 343.8 435.25 344.4 433.6 L349.0 420.0 348.3 407.85 348.25 407.1 348.05 400.9 348.05 400.4 348.0 394.55 Q348.0 386.1 348.55 378.05 349.1 369.9 350.2 362.2 351.1 355.25 352.5 348.65 354.1 340.95 356.3 333.65 358.25 326.9 360.8 320.5 L362.9 315.35 362.9 307.1 Q381.35 309.65 399.9 309.35 L399.9 343.9" fill="#000000" fill-rule="evenodd" stroke="none"/>
  </g>
</svg>
