<?xml version="1.0" encoding="UTF-8" standalone="no"?>
<svg xmlns:xlink="http://www.w3.org/1999/xlink" height="49.7px" width="247.1px" xmlns="http://www.w3.org/2000/svg">
  <g transform="matrix(1.0, 0.0, 0.0, 1.0, -276.4, -303.35)">
    <path d="M514.9 309.3 L515.05 308.15 523.5 303.35 Q519.55 313.65 512.55 319.6 L514.9 309.3 M518.85 321.65 Q514.65 331.7 508.7 336.7 L511.0 326.65 518.85 321.65 M507.4 342.65 L513.55 338.95 Q510.3 347.9 505.05 353.05 L507.4 342.65 M291.2 336.7 Q285.25 331.7 281.05 321.65 L288.9 326.65 291.2 336.7 M286.35 338.95 L292.5 342.65 294.85 353.05 Q289.6 347.9 286.35 338.95 M285.0 309.3 L287.35 319.6 Q280.35 313.65 276.4 303.35 L284.85 308.15 285.0 309.3" fill="#000000" fill-rule="evenodd" stroke="none"/>
  </g>
</svg>
