<?xml version="1.0" encoding="UTF-8" standalone="no"?>
<svg xmlns:xlink="http://www.w3.org/1999/xlink" height="22.9px" width="26.95px" xmlns="http://www.w3.org/2000/svg">
  <g transform="matrix(1.0, 0.0, 0.0, 1.0, -386.45, -332.4)">
    <path d="M400.05 345.2 L409.4 345.2 Q410.5 343.5 409.4 341.75 L400.05 341.75 Q398.75 343.25 400.05 345.2 M409.4 345.2 L409.4 349.3 Q409.4 351.85 407.35 351.75 L392.6 351.75 Q390.5 351.85 390.5 349.3 L390.5 337.95 Q390.5 335.6 392.7 335.75 L407.2 335.75 Q409.4 335.6 409.4 337.95 L409.4 341.75" fill="none" stroke="#000000" stroke-linecap="round" stroke-linejoin="round" stroke-opacity="0.5019608" stroke-width="1.0"/>
    <path d="M389.95 332.9 L409.9 332.9 Q412.9 332.65 412.9 335.9 L412.9 351.45 Q412.9 354.9 410.0 354.8 L389.8 354.8 Q386.95 354.9 386.95 351.45 L386.95 335.9 Q386.95 332.65 389.95 332.9" fill="none" stroke="#000000" stroke-linecap="round" stroke-linejoin="round" stroke-width="1.0"/>
  </g>
</svg>
