<?xml version="1.0" encoding="UTF-8" standalone="no"?>
<svg xmlns:xlink="http://www.w3.org/1999/xlink" height="102.05px" width="189.5px" xmlns="http://www.w3.org/2000/svg">
  <g transform="matrix(1.0, 0.0, 0.0, 1.0, -305.1, -339.3)">
    <path d="M364.2 341.85 L369.7 342.0 Q399.2 343.0 428.7 342.05 L435.5 341.85 449.0 341.15 470.6 339.8 470.8 347.95 Q473.3 352.55 475.8 356.1 L482.8 377.9 Q489.2 398.3 493.65 435.0 L494.1 438.9 478.95 438.9 435.65 405.65 435.65 416.8 409.5 440.7 388.9 440.85 362.75 417.0 362.75 406.65 320.75 438.9 305.6 438.9 Q310.15 399.4 316.9 377.9 323.65 356.4 323.9 356.1 326.4 352.55 328.9 347.95 L329.1 339.8 350.7 341.15 362.75 341.8 364.2 341.85" fill="none" stroke="#000000" stroke-linecap="round" stroke-linejoin="round" stroke-width="1.0"/>
    <path d="M323.9 356.1 Q337.4 358.75 350.2 360.25 L352.05 355.4 350.7 341.15 M362.75 406.65 Q363.25 398.85 364.2 391.55 366.1 376.9 369.7 362.7 L369.7 361.9 364.2 361.65 362.75 361.55 350.2 360.25 Q329.0 400.55 320.75 438.9 M388.9 440.85 L388.8 362.9 369.7 361.9 369.7 355.85 369.7 347.15 369.7 342.0 M369.7 355.85 Q400.45 358.25 428.7 355.85 L428.7 347.15 Q399.8 348.7 369.7 347.15 M428.7 355.85 L428.7 362.15 435.5 361.65 449.5 360.25 447.65 355.4 449.0 341.15 M435.65 405.65 L435.5 403.75 Q433.75 382.85 428.8 362.55 L428.7 362.15 409.5 363.0 409.5 440.7 M475.8 356.1 Q462.3 358.75 449.5 360.25 469.6 398.5 478.1 435.0 L478.95 438.9 M428.7 347.15 L428.7 342.05 M409.5 363.0 Q399.2 363.2 388.8 362.9" fill="none" stroke="#000000" stroke-linecap="round" stroke-linejoin="round" stroke-opacity="0.49803922" stroke-width="1.0"/>
  </g>
</svg>
