<?xml version="1.0" encoding="UTF-8" standalone="no"?>
<svg xmlns:xlink="http://www.w3.org/1999/xlink" height="52.75px" width="55.15px" xmlns="http://www.w3.org/2000/svg">
  <g transform="matrix(1.0, 0.0, 0.0, 1.0, -426.4, -324.25)">
    <path d="M457.5 324.25 Q460.0 325.05 461.75 326.85 L473.15 325.65 Q477.75 327.15 478.3 333.3 L477.75 335.0 481.55 354.4 478.3 358.75 468.65 359.9 470.1 367.35 465.3 373.95 440.1 377.0 433.35 371.6 Q431.4 363.2 429.75 354.7 L429.45 352.9 Q427.8 343.25 426.6 333.45 L426.4 331.7 426.55 331.45 427.95 327.3 457.5 324.25 M451.65 345.85 Q451.65 346.5 452.1 346.95 452.55 347.35 453.15 347.35 453.7 347.35 454.15 346.95 454.55 346.5 454.55 345.85 454.55 345.3 454.15 344.85 453.7 344.4 453.15 344.4 452.55 344.4 452.1 344.85 451.65 345.3 451.65 345.85 M470.95 339.4 L470.8 339.3 470.25 339.1 Q469.85 339.1 469.55 339.4 469.25 339.7 469.25 340.05 469.25 340.45 469.55 340.75 469.85 341.05 470.25 341.05 L470.8 340.9 470.95 340.75 471.15 340.05 470.95 339.4" fill="#000000" fill-rule="evenodd" stroke="none"/>
  </g>
</svg>
