<?xml version="1.0" encoding="UTF-8" standalone="no"?>
<svg xmlns:xlink="http://www.w3.org/1999/xlink" height="38.1px" width="47.0px" xmlns="http://www.w3.org/2000/svg">
  <g transform="matrix(1.0, 0.0, 0.0, 1.0, -317.6, -330.75)">
    <path d="M364.55 346.1 Q364.0 349.7 359.45 358.6 L358.8 359.85 358.55 360.2 357.4 362.25 346.7 368.85 Q344.75 368.45 344.5 367.1 344.15 365.4 346.45 362.1 347.65 360.3 349.7 358.05 L362.45 343.7 Q364.5 343.1 364.6 345.1 L364.55 346.1 M324.95 343.7 L326.95 352.05 Q328.25 359.5 326.9 361.9 326.4 362.75 325.55 363.0 L324.0 362.85 317.6 352.9 Q318.4 333.75 320.8 332.6 L321.4 332.55 Q321.95 332.75 322.55 333.75 L324.95 343.65 324.95 343.7 M337.8 334.6 Q335.9 331.9 338.9 330.75 343.8 331.0 348.2 333.15 349.7 335.55 347.15 336.9 L346.15 340.6 Q347.75 341.5 347.8 345.75 L342.95 352.35 341.65 353.15 Q336.5 355.85 333.65 349.9 L333.3 341.25 Q335.05 338.6 336.8 338.55 L337.8 334.6" fill="#000000" fill-rule="evenodd" stroke="none"/>
  </g>
</svg>
