<?xml version="1.0" encoding="UTF-8" standalone="no"?>
<svg xmlns:xlink="http://www.w3.org/1999/xlink" height="17.35px" width="149.2px" xmlns="http://www.w3.org/2000/svg">
  <g transform="matrix(1.0, 0.0, 0.0, 1.0, -325.15, -334.0)">
    <path d="M364.5 335.7 Q377.25 333.25 388.5 335.7 400.35 332.35 411.5 335.7 424.25 332.55 435.45 335.7 446.5 332.7 455.8 335.15 L457.65 335.7 Q462.7 334.0 468.35 335.7 473.75 338.45 474.3 341.75 474.85 345.65 468.15 350.25 462.85 351.2 458.15 350.25 L454.6 350.65 Q444.4 351.4 434.25 350.25 421.75 352.5 410.4 350.25 398.8 352.5 387.2 350.25 374.75 352.2 362.85 350.25 352.65 351.55 343.35 350.55 L341.4 350.25 Q335.65 351.75 329.8 350.25 325.35 346.55 325.15 343.2 324.85 339.2 330.35 335.7 336.4 334.0 341.7 335.7 L342.5 335.6 Q353.75 334.0 364.5 335.7" fill="#000000" fill-rule="evenodd" stroke="none"/>
  </g>
</svg>
