<?xml version="1.0" encoding="UTF-8" standalone="no"?>
<svg xmlns:xlink="http://www.w3.org/1999/xlink" height="69.15px" width="34.05px" xmlns="http://www.w3.org/2000/svg">
  <g transform="matrix(1.0, 0.0, 0.0, 1.0, -352.55, -376.2)">
    <path d="M357.85 383.5 L357.85 383.55 Q354.7 383.8 354.3 385.7 353.55 383.55 357.1 381.9 L357.85 383.5 M355.15 378.0 Q355.15 379.35 353.6 381.25 352.45 382.8 354.1 386.8 355.0 389.1 356.65 390.4 L358.9 390.45 Q359.95 390.0 359.85 388.1 L360.0 388.45 360.4 389.4 Q360.5 390.75 359.3 391.35 L356.65 391.2 Q354.65 389.85 353.5 387.0 351.8 382.4 353.1 380.6 354.95 378.4 354.15 376.2 L354.6 376.95 354.85 377.45 355.15 378.0 M361.15 381.15 Q366.45 382.55 369.15 388.75 L370.2 388.5 370.7 390.55 Q371.6 390.75 372.2 391.5 L372.85 392.85 386.6 444.0 Q385.05 445.3 382.75 445.35 L381.15 439.95 Q378.9 440.2 377.2 435.75 L363.1 396.5 361.05 391.0 Q359.5 385.9 361.15 381.15" fill="#ffffff" fill-rule="evenodd" stroke="none"/>
  </g>
</svg>
