<?xml version="1.0" encoding="UTF-8" standalone="no"?>
<svg xmlns:xlink="http://www.w3.org/1999/xlink" height="52.9px" width="39.25px" xmlns="http://www.w3.org/2000/svg">
  <g transform="matrix(1.0, 0.0, 0.0, 1.0, -337.7, -357.95)">
    <path d="M353.55 367.45 L353.2 366.8 353.25 367.75 353.55 367.45 Q356.5 367.5 358.1 365.05 359.05 363.55 358.6 361.4 358.0 359.55 356.8 358.5 M349.7 370.3 Q349.0 370.4 348.65 370.95 348.25 371.55 348.35 372.2 348.45 372.9 349.05 373.3 L350.3 373.6 351.4 372.9 351.65 371.65 Q351.55 370.95 350.95 370.55 350.35 370.15 349.7 370.3 M351.7 368.35 L356.6 368.6 Q357.1 368.65 357.15 369.0 L358.65 375.55 358.55 375.7 356.5 375.75 Q355.9 375.75 355.8 375.3 355.6 374.85 354.95 374.85 354.35 374.85 353.95 375.35 L353.9 375.45 353.8 375.7 353.8 375.75 353.45 375.9 343.7 376.2 Q342.95 376.2 343.0 375.35 343.0 371.75 341.8 368.1 341.65 367.35 342.0 367.2 342.9 366.7 345.25 367.65 L351.7 368.35 M361.45 363.65 L365.25 363.95 Q364.6 363.45 363.75 363.3 L361.35 363.05 361.45 363.65 359.4 363.5 359.65 365.0 366.8 365.45 Q367.1 365.5 367.15 365.65 M360.35 362.9 L361.35 363.05 M353.25 367.75 L359.2 368.2 Q359.6 368.2 359.65 368.55 L359.95 370.35 359.75 370.65 358.75 370.8 Q358.45 370.85 358.5 371.15 L359.5 376.1 Q359.55 376.45 359.25 376.4 L358.95 376.35 355.65 376.35 355.15 375.85 354.7 375.75 Q354.4 375.85 354.4 376.1 L354.4 376.4 343.2 376.8 Q342.55 376.8 342.15 376.15 L341.8 375.25 342.0 376.25 Q342.1 376.8 342.8 377.35 L343.2 377.15 352.25 377.25 Q353.5 377.2 354.1 378.2 354.4 378.9 354.85 379.05 L355.5 378.95 355.75 378.75 356.25 378.05 Q356.95 377.25 357.95 377.25 L358.75 377.4 359.55 378.05 Q360.05 378.75 360.05 379.45 L360.55 380.35 M360.3 384.8 Q359.9 385.3 360.1 386.05 360.1 386.55 360.7 386.8 L360.75 386.8 360.85 386.8 Q362.05 387.2 363.1 388.5 L364.4 390.65 363.55 385.85 Q363.55 386.35 363.25 386.35 L363.2 386.35 Q362.95 386.4 363.05 386.95 L362.95 387.3 362.4 387.2 Q361.4 386.75 361.25 386.2 L361.15 386.2 360.8 386.1 360.55 385.8 360.65 385.35 Q360.75 385.2 361.0 385.15 L361.1 385.15 Q361.2 384.2 361.7 384.0 L361.45 382.8 Q361.45 382.65 361.6 382.6 L362.05 382.5 362.35 382.65 362.75 383.1 362.85 383.25 362.95 383.55 363.1 383.55 362.2 378.6 362.05 378.0 362.0 377.7 362.0 377.65 361.9 377.0 361.8 376.65 361.7 376.05 361.65 375.65 361.55 375.0 361.45 374.7 361.3 374.05 361.25 373.65 361.15 373.05 361.1 372.7 360.95 372.0 360.9 371.7 360.8 371.05 360.7 370.65 360.6 370.05 360.55 369.7 360.4 369.05 360.35 368.7 360.25 368.05 360.15 367.65 360.05 367.05 359.95 366.7 359.85 366.05 359.8 365.7 359.65 365.0 M364.05 367.1 L364.35 367.65 365.1 366.15 364.7 366.15 Q364.35 366.25 364.15 366.5 L364.05 367.1 M363.4 366.45 Q363.2 367.05 363.9 368.25 L364.85 370.0 366.5 370.3 366.85 370.35 367.0 370.5 366.35 366.85 366.1 366.0 366.05 365.95 Q365.6 365.4 364.75 365.45 364.0 365.55 363.65 366.0 L363.4 366.3 363.4 366.4 363.4 366.45 363.25 366.9 363.25 367.25 363.25 367.9 363.25 368.25 363.25 368.9 363.25 369.25 363.3 369.85 363.3 369.9 363.4 369.8 363.55 369.75 363.65 369.8 363.7 369.55 Q363.75 369.45 363.9 369.45 L364.1 369.45 364.2 369.7 364.15 369.9 364.85 370.0 M363.3 369.9 L363.3 370.05 363.4 370.25 364.45 371.2 Q364.8 371.65 365.5 371.7 L366.65 371.45 Q367.0 371.35 367.05 370.85 L366.6 371.3 365.85 371.45 364.85 371.15 364.3 370.65 364.15 370.35 Q364.2 370.2 364.45 370.2 L366.5 370.3 M363.3 370.05 L363.25 370.2 363.25 370.85 363.3 371.2 Q363.35 371.8 363.85 371.85 L363.9 371.85 364.9 372.0 366.6 371.65 Q367.25 371.4 367.25 370.95 L366.5 366.9 366.1 366.0 M363.65 369.8 L364.15 369.9 M359.8 365.7 L363.65 366.0 M359.85 366.05 L363.4 366.3 M363.25 369.25 L360.4 369.05 M360.35 368.7 L363.25 368.9 M360.8 371.05 L363.3 371.2 M363.25 370.85 L360.7 370.65 M363.25 370.2 L360.6 370.05 M363.25 368.25 L360.25 368.05 M360.15 367.65 L363.25 367.9 M363.25 367.25 L360.05 367.05 M363.25 366.9 L359.95 366.7 M363.3 369.85 L360.55 369.7 M341.8 375.25 L340.45 367.7 340.3 366.85 Q340.25 365.75 340.55 365.65 M341.4 379.05 Q341.05 378.6 340.8 377.45 L339.25 369.25 M360.9 371.7 L363.85 371.85 M355.4 376.5 L355.3 376.35 355.1 376.3 355.0 376.4 354.9 376.55 354.95 377.55 354.7 377.8 354.6 378.25 354.85 378.65 355.35 378.75 355.75 378.5 355.9 378.0 Q355.85 377.75 355.6 377.65 L355.45 377.55 355.45 376.55 355.4 376.5 M359.2 378.6 L360.05 379.45 M355.15 377.8 L354.9 377.95 Q354.8 378.1 354.85 378.3 L355.0 378.5 355.3 378.6 355.55 378.4 355.6 378.15 355.45 377.85 355.15 377.8 M355.15 381.25 Q354.9 379.95 355.5 378.95 M362.0 377.7 L362.1 377.65 362.0 377.65 M360.4 378.9 L360.35 379.1 360.5 379.3 360.7 379.35 360.9 379.2 360.95 379.0 360.85 378.8 360.6 378.75 Q360.5 378.75 360.4 378.9 M363.2 386.35 Q362.7 386.3 362.4 385.95 L362.35 386.05 361.6 386.4 361.45 386.4 361.25 386.2 361.55 385.95 361.6 385.6 361.4 385.2 361.1 385.15 M362.35 386.05 Q362.05 386.1 362.05 385.95 L361.7 384.0 M362.95 383.55 L363.25 385.35 363.1 385.65 362.4 385.95 M360.7 386.8 L359.45 386.55 M363.55 385.85 L363.1 383.55 M342.15 376.15 Q342.55 370.2 340.3 366.85 M365.3 366.25 L364.6 367.75 364.95 367.8 365.5 367.4 365.65 366.8 365.3 366.3 365.3 366.25 365.1 366.15 M367.0 370.5 L367.0 370.6 367.05 370.8 367.05 370.85 M367.6 368.25 L367.15 365.85 M368.2 372.7 L365.7 373.0 365.5 373.05 Q365.1 373.05 365.05 373.3 364.95 373.5 365.0 373.95 L365.05 373.95 365.1 374.3 365.2 374.95 365.3 375.3 365.45 375.9 365.5 376.25 365.65 376.9 365.7 377.25 365.8 377.9 365.95 378.3 365.95 378.5 Q366.1 378.9 365.65 378.85 L365.3 378.75 365.3 378.85 365.7 381.1 Q365.65 380.4 367.85 379.7 L368.05 379.65 368.8 379.5 369.85 379.3 368.8 373.65 368.8 373.55 368.7 373.25 368.65 373.2 368.2 372.7 M367.9 369.7 L368.3 372.1 368.2 372.2 368.4 372.55 368.7 373.25 M368.2 372.2 L364.9 372.0 M365.7 381.1 L369.9 405.0 Q371.0 404.75 370.9 404.4 L369.1 394.35 369.1 394.3 369.0 393.8 368.95 393.45 367.65 386.1 366.8 381.1 Q366.7 380.1 367.85 379.7 M369.85 379.3 L370.1 379.25 M368.95 393.45 L368.65 390.75 368.6 389.55 Q368.5 387.55 369.7 386.7 370.9 385.95 371.35 386.85 M371.15 385.35 L367.65 386.1 M361.9 377.0 L365.7 377.25 M361.65 375.65 L365.45 375.9 M365.3 375.3 L361.55 375.0 M365.2 374.95 L361.45 374.7 M365.1 374.3 L361.3 374.05 M360.95 372.0 L368.4 372.55 M365.7 373.0 L361.1 372.7 M361.15 373.05 L365.05 373.3 M361.25 373.65 L365.0 373.95 M365.3 378.85 L362.2 378.6 M365.95 378.3 L362.05 378.0 M365.65 376.9 L361.8 376.65 M365.5 376.25 L361.7 376.05 M365.8 377.9 L362.1 377.65 M364.35 367.65 L364.6 367.75 M374.9 406.0 L375.25 408.3 M364.4 390.65 L367.0 405.0 367.0 405.1 367.45 405.45 369.9 405.0 370.8 410.15 M367.0 405.1 L367.45 407.7 367.3 407.75 366.95 407.55 M367.45 405.45 L368.2 409.7" fill="none" stroke="#000000" stroke-linecap="round" stroke-linejoin="round" stroke-opacity="0.5019608" stroke-width="1.0"/>
    <path d="M357.15 358.5 Q358.55 359.8 359.1 361.5 359.35 362.8 360.35 362.9 362.95 362.7 364.05 360.9 364.45 360.45 364.8 360.6 365.35 360.75 365.3 361.35 365.1 362.3 365.35 363.6 L365.25 363.95 365.3 363.95 366.75 364.95 367.1 365.25 367.15 365.65 367.15 365.85 368.65 365.55 368.85 365.7 368.95 366.4 368.85 366.65 368.05 368.1 367.95 368.25 367.6 368.25 367.9 369.7 368.05 370.2 368.3 370.55 368.95 371.4 370.3 379.05 370.15 379.25 370.1 379.25 371.15 385.35 371.3 386.15 371.35 386.85 374.6 405.3 374.85 405.95 374.9 406.0 375.05 405.95 375.25 406.05 376.35 407.25 376.45 407.8 376.0 408.15 375.25 408.3 375.45 409.25 374.85 409.35 371.95 410.35 370.9 410.2 370.85 410.15 370.8 410.15 368.2 409.7 Q367.3 409.5 367.2 409.0 L366.95 407.55 366.75 407.0 363.7 390.6 Q363.45 389.55 362.85 388.75 362.25 387.9 361.3 387.3 360.4 386.75 359.45 386.55 L357.0 386.8 356.35 387.1 355.65 387.0 355.25 385.55 354.4 381.0 Q354.35 380.5 354.45 380.2 354.6 379.4 353.95 378.7 353.5 378.15 352.45 378.15 L344.1 378.2 Q343.8 378.2 343.55 378.4 L342.25 379.2 341.4 379.05 Q341.2 379.2 341.1 379.8 340.55 379.9 340.3 379.2 339.8 378.0 339.35 375.95 L338.2 369.5 Q338.15 369.3 338.35 369.35 L339.25 369.25 338.85 367.1 Q338.8 366.5 339.25 366.0 L339.75 365.8 340.55 365.65 341.35 365.4 344.55 365.3 Q347.7 366.25 351.95 366.55 L352.75 366.6 353.2 366.8 353.8 366.7 Q355.5 366.6 356.5 365.4 357.55 364.2 357.4 362.4 L356.65 358.95 Q356.65 358.65 356.8 358.5 L357.15 358.5 M360.55 380.35 L360.75 380.85 361.0 382.5 Q361.15 383.3 360.8 384.1 L360.35 384.8 360.3 384.8 359.5 385.35 358.8 385.6 357.05 385.9 Q356.15 385.95 355.9 385.05 L355.15 381.25 Q355.05 380.05 355.75 379.15 356.35 378.45 357.25 378.25 L358.75 378.3 359.2 378.6 Q357.7 378.55 356.7 379.1 355.75 379.8 355.5 380.9 355.4 381.3 355.6 381.45 L355.95 381.3 Q357.25 379.95 359.05 379.95 L360.55 380.35" fill="none" stroke="#000000" stroke-linecap="round" stroke-linejoin="round" stroke-width="1.0"/>
  </g>
</svg>
