<?xml version="1.0" encoding="UTF-8" standalone="no"?>
<svg xmlns:xlink="http://www.w3.org/1999/xlink" height="190.95px" width="104.35px" xmlns="http://www.w3.org/2000/svg">
  <g transform="matrix(1.0, 0.0, 0.0, 1.0, -296.05, -337.8)">
    <path d="M329.0 338.3 L329.0 347.95 321.6 370.05 Q314.1 391.5 310.65 409.4 307.9 427.95 308.2 438.7 308.5 449.35 309.05 452.5 L300.7 463.1 Q294.85 470.45 297.2 478.9 304.25 496.25 306.45 513.05 M341.5 513.05 Q340.8 507.45 343.35 501.85 345.85 496.05 357.6 488.8 369.35 481.5 366.55 466.7 L363.25 452.8 Q362.15 437.7 368.9 420.75 375.65 403.75 380.95 398.1 L399.9 398.1" fill="none" stroke="#000000" stroke-linecap="round" stroke-linejoin="round" stroke-width="1.0"/>
    <path d="M306.45 513.05 L302.15 523.7 Q316.7 524.5 328.05 528.25 L341.5 513.05 M399.9 398.1 L399.9 344.65 M312.95 455.9 L317.6 461.9 337.1 463.0 343.2 454.55 M381.1 397.75 Q372.9 384.25 359.4 374.85" fill="none" stroke="#000000" stroke-linecap="round" stroke-linejoin="round" stroke-opacity="0.5019608" stroke-width="1.0"/>
  </g>
</svg>
