<?xml version="1.0" encoding="UTF-8" standalone="no"?>
<svg xmlns:xlink="http://www.w3.org/1999/xlink" height="178.95px" width="207.7px" xmlns="http://www.w3.org/2000/svg">
  <g transform="matrix(1.0, 0.0, 0.0, 1.0, -296.05, -337.8)">
    <path d="M312.95 455.9 L317.6 461.9 317.75 461.9 Q324.1 406.35 340.55 358.05 L341.6 340.5 M306.45 513.05 Q310.85 515.3 315.7 516.25 L317.3 510.85 317.75 461.9 M458.2 340.5 L459.25 358.05 Q475.7 406.35 482.05 461.9 L482.2 461.9 486.85 455.9 M482.2 461.9 L482.5 510.85 484.1 516.25 Q488.95 515.3 493.35 513.05" fill="none" stroke="#000000" stroke-linecap="round" stroke-linejoin="round" stroke-opacity="0.5019608" stroke-width="1.0"/>
    <path d="M329.0 338.3 L329.0 347.95 321.6 370.05 Q314.1 391.5 310.65 409.4 307.9 427.95 308.2 438.7 308.5 449.35 309.05 452.5 L300.7 463.1 Q294.85 470.45 297.2 478.9 304.25 496.25 306.45 513.05 M493.35 513.05 Q495.55 496.25 502.6 478.9 504.95 470.45 499.1 463.1 L490.75 452.5 Q491.3 449.35 491.6 438.7 491.9 427.95 489.15 409.4 485.7 391.5 478.2 370.05 L470.8 347.95 470.8 338.3" fill="none" stroke="#000000" stroke-linecap="round" stroke-linejoin="round" stroke-width="1.0"/>
  </g>
</svg>
