<?xml version="1.0" encoding="UTF-8" standalone="no"?>
<svg xmlns:xlink="http://www.w3.org/1999/xlink" height="108.2px" width="183.5px" xmlns="http://www.w3.org/2000/svg">
  <g transform="matrix(1.0, 0.0, 0.0, 1.0, -308.15, -338.3)">
    <path d="M399.9 344.65 Q435.35 345.05 470.8 338.3 L470.8 347.95 478.2 370.05 Q485.7 391.5 489.15 409.4 491.9 427.95 491.6 438.7 L491.6 439.9 Q468.2 448.5 436.65 445.9 436.15 433.9 430.9 420.75 424.15 403.75 418.85 398.1 L380.95 398.1 Q375.65 403.75 368.9 420.75 363.65 433.9 363.15 445.9 331.65 448.5 308.25 439.85 L308.2 438.7 Q307.9 427.95 310.65 409.4 314.1 391.5 321.6 370.05 L329.0 347.95 329.0 338.3 Q364.45 345.05 399.9 344.65" fill="#000000" fill-rule="evenodd" stroke="none"/>
  </g>
</svg>
