<?xml version="1.0" encoding="UTF-8" standalone="no"?>
<svg xmlns:xlink="http://www.w3.org/1999/xlink" height="97.9px" width="183.55px" xmlns="http://www.w3.org/2000/svg">
  <g transform="matrix(1.0, 0.0, 0.0, 1.0, -308.15, -337.8)">
    <path d="M329.0 338.3 L329.0 347.95 321.6 370.05 Q314.1 391.5 310.65 409.4 309.25 418.95 308.65 426.4 M364.5 435.2 Q365.95 428.15 368.9 420.75 375.65 403.75 380.95 398.1 L418.85 398.1 Q424.15 403.75 430.9 420.75 433.85 428.15 435.3 435.2 M491.2 426.45 Q490.55 418.95 489.15 409.4 485.7 391.5 478.2 370.05 L470.8 347.95 470.8 338.3" fill="none" stroke="#000000" stroke-linecap="round" stroke-linejoin="round" stroke-width="1.0"/>
    <path d="M308.65 426.4 Q333.75 434.5 364.5 435.2 M435.3 435.2 Q466.1 434.5 491.2 426.45 M381.1 397.75 Q372.9 384.25 359.4 374.85 M418.7 397.75 Q426.9 384.25 440.4 374.85" fill="none" stroke="#000000" stroke-linecap="round" stroke-linejoin="round" stroke-opacity="0.5019608" stroke-width="1.0"/>
  </g>
</svg>
