<?xml version="1.0" encoding="UTF-8" standalone="no"?>
<svg xmlns:xlink="http://www.w3.org/1999/xlink" height="75.05px" width="138.15px" xmlns="http://www.w3.org/2000/svg">
  <g transform="matrix(1.0, 0.0, 0.0, 1.0, 204.85, -67.9)">
    <path d="M-95.0 106.5 L-93.05 101.25 -75.3 83.75 -66.7 86.85 -74.4 108.05 -70.5 111.45 -71.5 114.4 -76.3 127.7 -81.6 142.1 -83.5 142.95 -104.2 135.45 -104.9 133.6 -99.35 118.7 -95.0 106.5" fill="url(#gradient0)" fill-rule="evenodd" stroke="none"/>
    <path d="M-99.35 118.7 L-101.35 118.7 -96.35 105.2 -95.0 106.5 -99.35 118.7" fill="url(#gradient1)" fill-rule="evenodd" stroke="none"/>
    <path d="M-101.35 118.7 Q-144.4 101.55 -162.35 96.45 -176.2 92.45 -189.55 87.2 -196.85 84.45 -203.8 81.4 L-198.9 67.9 Q-191.6 70.0 -184.25 72.5 -170.75 77.15 -157.45 83.1 -140.5 90.65 -96.35 105.2 L-101.35 118.7" fill="url(#gradient2)" fill-rule="evenodd" stroke="none"/>
    <path d="M-71.5 114.4 L-70.0 115.5 -74.45 127.8 -76.3 127.7 -71.5 114.4" fill="url(#gradient3)" fill-rule="evenodd" stroke="none"/>
    <path d="M-203.8 81.4 L-204.85 78.3 -201.6 69.5 -198.9 67.9 -203.8 81.4" fill="url(#gradient4)" fill-rule="evenodd" stroke="none"/>
    <path d="M-99.35 118.7 L-97.15 112.6 -94.0 103.9 -67.6 89.45 -74.4 108.05 -74.35 108.1 -100.75 122.55 -99.35 118.7 M-104.2 135.45 L-104.2 135.4 -72.9 118.3 -76.4 127.95 -95.75 138.5 -104.2 135.45" fill="#ffffff" fill-opacity="0.5019608" fill-rule="evenodd" stroke="none"/>
    <path d="M-97.15 112.6 L-99.35 118.7 -101.35 118.7 -112.85 114.15 Q-146.95 100.85 -162.35 96.45 -176.2 92.45 -189.55 87.2 -196.85 84.45 -203.8 81.4 L-204.85 78.3 -203.2 73.9 -97.15 112.6" fill="#000000" fill-opacity="0.2" fill-rule="evenodd" stroke="none"/>
  </g>
  <defs>
    <linearGradient gradientTransform="matrix(0.0, 0.0361, -0.0233, 0.0, -85.8, 113.3)" gradientUnits="userSpaceOnUse" id="gradient0" spreadMethod="pad" x1="-819.2" x2="819.2">
      <stop offset="0.0" stop-color="#000000" stop-opacity="0.2509804"/>
      <stop offset="1.0" stop-color="#000000" stop-opacity="0.0"/>
    </linearGradient>
    <linearGradient gradientTransform="matrix(0.0, 0.0082, -0.0039, 0.0, -98.15, 111.95)" gradientUnits="userSpaceOnUse" id="gradient1" spreadMethod="pad" x1="-819.2" x2="819.2">
      <stop offset="0.0" stop-color="#000000" stop-opacity="0.2509804"/>
      <stop offset="1.0" stop-color="#000000" stop-opacity="0.0"/>
    </linearGradient>
    <linearGradient gradientTransform="matrix(0.0, 0.031, -0.0656, 0.0, -150.05, 93.3)" gradientUnits="userSpaceOnUse" id="gradient2" spreadMethod="pad" x1="-819.2" x2="819.2">
      <stop offset="0.0" stop-color="#000000" stop-opacity="0.2509804"/>
      <stop offset="1.0" stop-color="#000000" stop-opacity="0.0"/>
    </linearGradient>
    <linearGradient gradientTransform="matrix(0.0, 0.0082, -0.0038, 0.0, -73.15, 121.05)" gradientUnits="userSpaceOnUse" id="gradient3" spreadMethod="pad" x1="-819.2" x2="819.2">
      <stop offset="0.0" stop-color="#000000" stop-opacity="0.2509804"/>
      <stop offset="1.0" stop-color="#000000" stop-opacity="0.0"/>
    </linearGradient>
    <linearGradient gradientTransform="matrix(0.0, 0.0082, -0.0036, 0.0, -201.85, 74.6)" gradientUnits="userSpaceOnUse" id="gradient4" spreadMethod="pad" x1="-819.2" x2="819.2">
      <stop offset="0.0" stop-color="#000000" stop-opacity="0.2509804"/>
      <stop offset="1.0" stop-color="#000000" stop-opacity="0.0"/>
    </linearGradient>
  </defs>
</svg>
