<?xml version="1.0" encoding="UTF-8" standalone="no"?>
<svg xmlns:xlink="http://www.w3.org/1999/xlink" height="159.15px" width="314.6px" xmlns="http://www.w3.org/2000/svg">
  <g transform="matrix(1.0, 0.0, 0.0, 1.0, -129.95, -342.6)">
    <path d="M434.85 425.9 Q438.55 419.2 444.05 413.0 444.15 411.95 436.35 408.3 428.3 404.55 416.45 400.25 L415.75 400.0 415.05 399.75 Q405.6 396.3 398.25 394.2 L394.75 393.15 Q386.4 390.95 385.8 391.8 386.05 400.1 384.55 407.6 M434.85 425.9 L434.75 426.15 435.9 426.65 435.25 428.4 Q436.65 429.0 436.2 430.35 435.75 431.75 434.15 431.45 L433.55 433.1 431.95 432.5 Q428.65 439.85 425.35 448.7 L429.75 450.35 Q430.25 454.4 429.15 457.6 427.95 460.85 425.05 463.25 L420.65 461.6 Q417.5 470.45 415.25 478.25 L416.9 478.85 416.3 480.5 Q417.75 481.3 417.2 482.6 416.6 483.95 415.2 483.6 L414.55 485.3 413.4 484.85 413.25 485.25 Q411.8 492.65 412.05 501.0 411.35 501.9 403.1 499.65 394.55 497.3 382.75 493.0 L382.05 492.75 381.3 492.5 Q371.65 489.0 364.5 485.85 L361.5 484.55 Q353.65 480.9 353.75 479.75 359.3 473.5 363.0 466.85 L361.85 466.1 362.55 464.4 Q361.15 463.8 361.65 462.45 362.1 461.0 363.6 461.3 L364.2 459.65 365.9 460.25 Q369.2 452.9 372.5 444.1 L130.55 356.0 Q130.15 352.05 131.6 348.6 132.75 345.7 135.25 343.1 L377.15 431.2 Q380.35 422.3 382.55 414.5 L380.9 413.9 381.5 412.25 Q380.1 411.45 380.65 410.2 381.2 408.8 382.55 409.2 L383.25 407.45 384.55 407.6" fill="none" stroke="#000000" stroke-linecap="round" stroke-linejoin="round" stroke-width="1.0"/>
    <path d="M384.55 407.6 L384.5 407.9 434.7 426.15 434.85 425.9 M407.7 418.8 Q408.35 418.55 408.95 418.8 409.65 419.0 409.85 419.6 410.15 420.2 409.95 420.9 L409.1 421.8 407.85 421.85 Q407.25 421.6 406.95 420.95 406.7 420.4 406.85 419.8 407.1 419.15 407.7 418.8 M416.6 424.5 Q416.3 423.9 416.45 423.3 416.7 422.6 417.35 422.3 L418.65 422.25 Q419.3 422.5 419.55 423.1 419.75 423.75 419.55 424.4 419.35 425.0 418.75 425.25 L417.5 425.3 Q416.9 425.15 416.6 424.5 M434.7 426.15 L434.75 426.15 M426.95 425.8 Q427.65 425.55 428.25 425.8 L428.4 425.85 429.15 426.6 Q429.45 427.25 429.2 427.9 L428.35 428.75 427.15 428.85 Q426.5 428.6 426.2 427.95 425.95 427.4 426.15 426.8 426.35 426.15 426.95 425.8 M434.15 431.45 Q434.3 429.6 435.25 428.4 M420.65 461.6 L421.15 460.25 421.35 459.7 424.7 450.6 424.85 450.1 425.35 448.7 M408.35 481.05 L409.35 480.95 410.25 480.05 Q410.45 479.45 410.1 478.8 409.85 478.2 409.25 477.95 L409.2 477.95 407.95 478.0 Q407.4 478.35 407.15 478.95 406.95 479.55 407.15 480.15 407.55 480.75 408.15 481.0 L408.35 481.05 M413.25 485.25 L413.35 484.85 363.15 466.6 363.0 466.85 M413.4 484.85 L413.35 484.85 M415.2 483.6 Q415.2 482.1 416.3 480.5 M390.6 412.6 Q390.35 412.0 389.7 411.75 L389.45 411.7 388.45 411.8 Q387.85 412.1 387.6 412.8 387.45 413.4 387.65 414.0 L388.65 414.8 389.85 414.75 390.65 413.85 Q390.9 413.2 390.6 412.6 M399.35 415.3 Q398.75 415.05 398.1 415.3 397.45 415.6 397.2 416.25 397.05 416.85 397.35 417.45 397.65 418.1 398.25 418.35 L399.5 418.25 Q400.15 418.0 400.25 417.4 400.55 416.75 400.25 416.1 399.95 415.5 399.35 415.3 M383.25 407.45 L384.5 407.9 M382.55 409.2 Q382.65 410.75 381.5 412.25 M377.15 431.2 L376.7 432.6 376.5 433.05 373.15 442.2 372.95 442.7 372.5 444.1 M362.55 464.4 Q363.55 463.25 363.6 461.3 M363.15 466.6 L361.85 466.1 M368.65 466.2 Q368.4 465.5 368.65 464.9 368.9 464.3 369.45 464.0 L370.75 463.9 Q371.35 464.15 371.6 464.8 371.95 465.4 371.7 466.0 L370.8 466.95 Q370.25 467.2 369.6 466.95 L369.45 466.9 368.65 466.2 M379.1 467.5 L380.35 467.45 Q380.95 467.6 381.25 468.3 381.6 468.95 381.3 469.55 L380.45 470.45 379.25 470.5 Q378.65 470.25 378.3 469.65 378.0 469.0 378.25 468.4 378.5 467.8 379.1 467.5 M399.6 474.4 L398.35 474.5 Q397.75 474.8 397.5 475.4 397.25 476.0 397.55 476.7 397.95 477.3 398.55 477.45 399.2 477.7 399.75 477.45 400.35 477.15 400.55 476.55 400.8 475.95 400.5 475.3 400.25 474.65 399.6 474.4 M388.7 471.0 L389.95 470.9 Q390.6 471.15 390.85 471.8 391.2 472.4 390.95 473.0 L390.05 474.0 Q389.55 474.2 388.85 474.0 L387.9 473.15 Q387.65 472.55 387.9 471.95 388.15 471.35 388.7 471.0 M365.9 460.25 L415.25 478.25 M431.95 432.5 L382.55 414.5" fill="none" stroke="#000000" stroke-linecap="round" stroke-linejoin="round" stroke-opacity="0.5019608" stroke-width="1.0"/>
  </g>
</svg>
