<?xml version="1.0" encoding="UTF-8" standalone="no"?>
<svg xmlns:xlink="http://www.w3.org/1999/xlink" height="72.4px" width="104.0px" xmlns="http://www.w3.org/2000/svg">
  <g transform="matrix(1.0, 0.0, 0.0, 1.0, -347.8, -426.55)">
    <path d="M444.8 427.05 L449.25 439.95 Q450.2 442.55 450.7 445.3 451.85 451.4 450.8 458.25 L444.7 498.05 M436.75 498.45 L434.8 489.15 434.65 488.45 Q433.5 483.2 431.7 478.15 429.25 471.15 425.6 464.5 L421.3 457.35 420.8 456.3 Q419.1 452.25 418.8 448.0 M354.9 498.05 L348.8 458.25 Q347.75 451.4 348.9 445.3 349.4 442.55 350.35 439.95 L354.8 427.05 M380.8 448.0 Q380.5 452.25 378.8 456.3 L378.3 457.35 Q376.0 460.85 374.0 464.5 370.35 471.15 367.9 478.15 366.1 483.2 364.95 488.45 L364.8 489.15 362.85 498.45" fill="none" stroke="#000000" stroke-linecap="round" stroke-linejoin="round" stroke-width="1.0"/>
    <path d="M418.8 448.0 Q444.25 446.25 444.8 427.05 M354.8 427.05 Q355.35 446.25 380.8 448.0" fill="none" stroke="#000000" stroke-linecap="round" stroke-linejoin="round" stroke-opacity="0.5019608" stroke-width="1.0"/>
  </g>
</svg>
