<?xml version="1.0" encoding="UTF-8" standalone="no"?>
<svg xmlns:xlink="http://www.w3.org/1999/xlink" height="113.5px" width="88.0px" xmlns="http://www.w3.org/2000/svg">
  <g transform="matrix(1.0, 0.0, 0.0, 1.0, -355.8, -386.05)">
    <path d="M357.25 498.2 Q354.8 465.35 358.75 438.15 361.1 412.9 365.55 386.55 369.65 389.65 375.1 391.75 370.6 415.8 367.75 439.5 362.2 467.35 359.9 499.05 M424.5 391.75 Q429.0 415.8 431.85 439.5 L440.85 438.15 Q438.55 412.95 434.1 386.6 430.0 389.65 424.5 391.75 M367.75 439.5 L358.75 438.15 M431.85 439.5 Q437.35 467.35 439.75 499.05 M442.35 498.2 Q444.8 465.35 440.85 438.15" fill="none" stroke="#000000" stroke-linecap="round" stroke-linejoin="round" stroke-opacity="0.5019608" stroke-width="1.0"/>
  </g>
</svg>
