<?xml version="1.0" encoding="UTF-8" standalone="no"?>
<svg xmlns:xlink="http://www.w3.org/1999/xlink" height="46.0px" width="35.85px" xmlns="http://www.w3.org/2000/svg">
  <g transform="matrix(1.0, 0.0, 0.0, 1.0, -381.9, -202.85)">
    <path d="M409.15 228.7 Q409.05 228.45 408.2 227.95 406.8 227.7 406.25 228.4 405.5 229.0 405.8 230.0 406.0 231.15 407.1 231.4 408.5 231.65 409.1 230.75 409.95 229.7 409.15 228.7 M416.7 226.0 Q418.4 230.55 417.3 235.35 416.2 240.15 412.75 243.5 409.15 247.1 404.1 248.35 398.95 249.5 394.1 247.9 389.25 246.4 385.9 242.35 382.4 238.2 382.0 233.25 381.6 229.1 382.9 226.0 L416.7 226.0 M400.45 202.9 L401.25 203.55 Q401.55 204.1 401.15 204.65 400.5 205.5 399.6 205.2 398.85 204.85 398.85 204.1 398.85 203.35 399.4 203.05 L400.45 202.9 M399.2 218.8 Q399.85 218.95 400.15 219.6 400.3 220.55 399.95 221.05 399.35 221.9 398.25 221.5 397.4 221.2 397.2 220.4 397.0 219.5 397.9 218.9 L399.2 218.8 M396.5 231.85 Q394.75 231.7 393.95 232.55 392.8 233.6 393.1 235.2 393.55 236.9 395.25 237.25 397.15 237.55 398.1 236.15 399.1 234.55 398.2 233.15 397.7 232.25 396.5 231.85 M405.7 216.5 Q405.0 217.65 403.9 217.65 402.6 217.8 401.9 216.7 401.25 215.65 401.75 214.7 402.2 213.6 403.55 213.45 404.95 213.45 405.45 214.3 406.3 215.25 405.7 216.5" fill="#000000" fill-rule="evenodd" stroke="none"/>
  </g>
</svg>
