<?xml version="1.0" encoding="UTF-8" standalone="no"?>
<svg xmlns:xlink="http://www.w3.org/1999/xlink" height="49.6px" width="56.75px" xmlns="http://www.w3.org/2000/svg">
  <g transform="matrix(1.0, 0.0, 0.0, 1.0, -372.0, -197.95)">
    <path d="M415.35 214.6 Q410.65 225.2 397.2 225.45 L396.9 232.35 Q416.05 232.5 419.25 215.9 L415.35 214.6 M401.7 210.05 Q420.0 203.35 428.25 223.9 418.6 211.0 406.75 214.3 L401.7 210.05 M409.5 221.45 Q400.2 204.6 384.85 209.55 L385.75 213.6 Q396.75 212.75 403.65 224.35 L409.5 221.45 M419.35 210.15 Q418.5 202.9 412.65 198.55 416.65 203.05 416.3 208.2 L419.35 210.15 M410.7 230.4 Q407.3 249.65 385.35 246.55 401.45 244.65 404.5 232.75 L410.7 230.4 M406.7 245.15 L404.2 243.95 401.1 245.55 Q407.6 248.5 414.35 245.7 410.15 246.55 406.7 245.15 M394.0 215.35 Q383.9 231.6 396.35 242.95 L399.55 240.3 Q393.0 230.85 399.65 219.25 L394.0 215.35 M379.45 215.9 L379.8 212.35 Q373.75 216.35 372.5 223.5 374.7 218.0 379.45 215.9 M388.15 228.45 Q373.5 215.6 387.45 198.45 380.75 213.2 389.4 221.95 L388.15 228.45" fill="none" stroke="#000000" stroke-linecap="round" stroke-linejoin="round" stroke-opacity="0.5019608" stroke-width="1.0"/>
  </g>
</svg>
