<?xml version="1.0" encoding="UTF-8" standalone="no"?>
<svg xmlns:xlink="http://www.w3.org/1999/xlink" height="81.25px" width="158.35px" xmlns="http://www.w3.org/2000/svg">
  <g transform="matrix(1.0, 0.0, 0.0, 1.0, -320.7, -195.05)">
    <path d="M404.05 231.5 L404.05 229.25 442.25 239.25 Q446.0 240.1 449.35 243.65 457.65 245.25 463.55 244.9 455.65 249.85 441.2 247.75 M417.65 238.3 L421.25 254.55 Q421.55 256.15 423.4 257.3 L410.9 275.65 419.1 257.4 414.25 237.35 403.65 233.1 403.65 232.1 418.65 236.25 M444.4 237.45 L407.95 227.95 404.05 229.0 404.05 228.0 405.85 227.35 404.05 226.9 404.05 225.45 409.55 226.0 415.15 224.0 415.15 207.9 409.3 195.7 418.95 207.35 Q417.35 208.7 417.3 210.35 L418.05 222.8 Q418.3 224.3 418.95 224.8 L413.5 226.4 Q440.4 228.65 444.95 226.9 461.35 234.45 478.4 236.4 474.35 244.65 450.7 241.35 448.15 238.3 444.4 237.45 M402.75 201.55 L410.7 207.2 Q409.5 207.65 409.8 209.1 L411.85 217.55 Q412.1 219.25 412.85 219.5 L403.65 223.8 402.55 223.35 410.05 219.25 408.0 208.65 402.75 201.55 M401.55 210.15 Q403.3 212.75 401.35 214.35 L403.7 215.7 Q403.85 213.25 404.3 212.95 L401.55 210.15 M404.05 217.4 L401.25 215.65 398.5 215.65 395.7 217.4 395.7 220.65 398.35 222.7 399.85 222.05 401.35 222.7 404.05 220.65 404.05 217.4 M402.9 237.35 L410.15 241.35 409.1 257.15 404.4 266.5 412.55 257.3 Q411.3 256.55 411.3 255.45 L411.85 242.5 Q412.15 240.8 412.85 240.6 L404.05 236.65 402.9 237.35 M401.9 232.3 L401.95 232.25 402.2 232.1 402.2 236.05 399.85 237.35 397.55 236.05 397.55 232.1 399.85 233.25 Q400.7 232.8 401.6 232.45 401.75 232.3 401.9 232.3 M404.8 249.35 Q403.05 252.65 399.85 254.85 396.7 252.65 394.95 249.35 L393.65 241.15 398.1 237.95 399.85 239.0 401.6 237.95 406.1 241.15 404.8 249.35 M403.1 229.95 L399.85 231.65 396.6 229.95 396.6 225.35 399.85 224.0 403.1 225.35 403.1 229.95 M395.45 212.95 Q395.9 213.25 396.05 215.7 L398.3 214.35 Q396.4 212.75 398.1 210.15 L395.45 212.95 M397.0 201.55 L389.0 207.2 Q390.2 207.65 389.85 209.1 L387.9 217.55 Q387.6 219.25 386.85 219.5 L396.1 223.8 397.2 223.35 389.65 219.25 391.75 208.65 397.0 201.55 M382.45 210.35 L381.65 222.8 Q381.4 224.3 380.7 224.8 L385.9 226.25 Q359.2 228.55 354.75 226.7 338.4 234.25 321.35 236.25 325.3 244.5 349.05 241.15 351.55 238.1 355.35 237.3 L391.55 227.8 395.7 229.0 395.7 228.0 393.65 227.3 395.7 226.7 395.7 225.35 389.85 225.95 384.55 224.0 384.55 207.9 390.4 195.7 380.75 207.35 Q382.3 208.7 382.45 210.35 M395.7 229.1 L357.5 239.1 Q353.7 239.9 350.4 243.55 342.0 245.1 336.15 244.8 344.1 249.7 358.45 247.55 365.85 240.3 395.7 231.4 L395.7 229.1 M396.8 237.35 L389.6 241.35 390.65 257.15 395.3 266.5 387.15 257.3 Q388.45 256.55 388.45 255.45 L387.9 242.5 Q387.6 240.8 386.8 240.6 L395.7 236.65 396.8 237.35 M396.1 233.1 L385.5 237.35 380.65 257.4 388.8 275.65 376.35 257.3 Q378.1 256.15 378.4 254.55 L382.05 238.3 Q381.8 236.8 381.1 236.25 L396.1 232.1 396.1 233.1 M398.65 255.5 L399.85 256.5 401.1 255.5 399.85 263.75 398.65 255.5" fill="none" stroke="#000000" stroke-linecap="square" stroke-linejoin="round" stroke-opacity="0.5019608" stroke-width="1.0"/>
    <path d="M441.2 247.75 Q435.85 242.45 418.65 236.25" fill="none" stroke="#000000" stroke-linecap="square" stroke-linejoin="round" stroke-opacity="0.5019608" stroke-width="1.0"/>
    <path d="M418.65 236.25 Q417.95 236.8 417.65 238.3" fill="none" stroke="#000000" stroke-linecap="round" stroke-linejoin="round" stroke-opacity="0.5019608" stroke-width="1.0"/>
    <path d="M418.65 236.25 Q412.15 233.9 404.05 231.5" fill="none" stroke="#000000" stroke-linecap="round" stroke-linejoin="round" stroke-opacity="0.5019608" stroke-width="1.0"/>
  </g>
</svg>
