<?xml version="1.0" encoding="UTF-8" standalone="no"?>
<svg xmlns:xlink="http://www.w3.org/1999/xlink" height="68.05px" width="24.55px" xmlns="http://www.w3.org/2000/svg">
  <g transform="matrix(1.0, 0.0, 0.0, 1.0, -387.65, -185.8)">
    <path d="M403.25 188.7 Q402.6 189.4 401.9 189.65 L400.9 189.6 Q400.6 189.25 400.85 188.55 L401.75 187.2 402.15 186.85 Q401.15 186.3 400.05 186.3 399.0 186.3 398.05 186.85 L398.5 187.25 399.4 188.6 Q399.65 189.35 399.35 189.65 399.0 189.9 398.35 189.65 L397.0 188.75 396.6 188.3 Q396.1 189.15 396.05 190.05 L396.05 190.45 Q396.05 191.6 396.55 192.6 L396.95 192.15 Q397.6 191.5 398.3 191.2 398.95 190.95 399.3 191.2 399.6 191.55 399.35 192.25 L398.35 193.6 398.0 194.0 Q398.95 194.65 400.05 194.65 401.25 194.65 402.15 194.1 L401.75 193.6 Q401.05 192.95 400.85 192.25 400.6 191.55 400.85 191.2 401.15 190.95 401.9 191.2 L403.2 192.15 403.65 192.6 Q404.15 191.6 404.15 190.45 L404.15 190.05 Q404.1 189.15 403.55 188.3 L403.25 188.7 M395.65 197.0 L393.7 197.0 Q392.25 197.0 391.2 198.05 390.25 199.0 390.25 200.5 390.25 201.6 391.05 202.9 L395.3 209.35 394.95 215.35 393.9 215.35 Q393.65 215.35 393.15 215.8 392.5 216.3 392.45 217.15 392.4 217.8 393.0 218.4 L393.65 218.9 406.15 218.9 406.8 218.45 Q407.4 217.95 407.35 217.2 407.2 216.35 406.65 215.8 406.15 215.35 405.9 215.35 L404.85 215.35 404.55 209.2 408.85 202.9 Q409.6 201.6 409.6 200.5 409.6 199.0 408.6 198.05 407.6 197.0 406.15 197.0 L404.2 197.0 404.2 196.1 403.9 195.4 Q403.65 195.1 403.25 195.1 L396.6 195.1 Q396.25 195.1 395.9 195.4 L395.65 196.1 395.65 197.0 M409.4 240.25 L390.65 240.25 389.1 242.75 Q388.25 244.3 388.15 245.6 388.05 247.0 388.45 248.35 388.8 249.65 389.55 250.65 L410.25 250.65 Q411.85 248.55 411.7 245.95 411.5 243.4 409.4 240.25 M410.2 238.8 L409.7 238.1 409.1 237.9 391.15 237.9 390.55 238.1 Q390.1 238.35 390.05 238.8 389.9 239.25 390.25 239.6 L390.75 239.9 409.5 239.9 410.0 239.6 410.2 238.8 M405.65 230.2 Q404.1 225.75 403.7 219.25 L396.15 219.25 Q395.7 225.85 394.35 230.2 L391.3 237.65 408.9 237.65 405.65 230.2 M411.2 251.95 L410.7 251.3 410.4 250.95 389.4 250.95 389.1 251.2 388.6 251.95 Q388.45 252.4 388.45 253.35 L411.45 253.35 411.2 251.95" fill="none" stroke="#000000" stroke-linecap="round" stroke-linejoin="round" stroke-opacity="0.5019608" stroke-width="1.0"/>
  </g>
</svg>
