<?xml version="1.0" encoding="UTF-8" standalone="no"?>
<svg xmlns:xlink="http://www.w3.org/1999/xlink" height="57.25px" width="36.9px" xmlns="http://www.w3.org/2000/svg">
  <g transform="matrix(1.0, 0.0, 0.0, 1.0, -381.4, -196.7)">
    <path d="M403.25 217.8 Q406.15 213.65 406.35 208.95 406.15 204.95 403.95 202.6 402.45 200.95 399.85 200.75 397.35 200.95 395.85 202.6 393.55 204.95 393.35 208.95 393.55 213.65 396.5 217.8 L399.85 222.35 403.25 217.8 M408.2 200.4 Q412.1 204.85 410.05 212.75 408.3 218.15 403.95 223.45 L418.3 222.1 418.3 228.55 402.8 227.4 406.05 253.95 393.7 253.95 397.0 227.4 381.4 228.55 381.4 222.1 395.85 223.45 Q391.4 218.15 389.65 212.75 387.65 204.85 391.55 200.4 395.0 196.5 399.85 196.7 404.8 196.5 408.2 200.4" fill="#000000" fill-rule="evenodd" stroke="none"/>
  </g>
</svg>
