<?xml version="1.0" encoding="UTF-8" standalone="no"?>
<svg xmlns:xlink="http://www.w3.org/1999/xlink" height="45.0px" width="35.35px" xmlns="http://www.w3.org/2000/svg">
  <g transform="matrix(1.0, 0.0, 0.0, 1.0, -382.0, -203.55)">
    <path d="M414.9 215.6 Q414.9 218.25 414.3 220.2 413.75 222.15 411.7 226.6 L410.2 229.9 Q406.25 238.45 406.25 240.95 406.25 242.65 407.2 243.65 408.25 244.8 409.75 244.8 411.9 244.8 415.0 242.2 L417.35 244.7 Q413.3 248.55 409.7 248.55 406.5 248.55 404.3 246.45 402.15 244.3 402.15 241.2 402.15 237.25 406.3 228.45 L408.4 223.9 Q410.7 218.9 410.7 215.8 410.7 211.9 408.5 209.5 406.25 207.15 402.55 207.15 399.0 207.15 396.9 209.2 394.75 211.3 394.75 214.75 394.75 217.95 396.8 222.3 L397.65 224.05 Q399.85 228.6 399.85 230.75 399.85 234.25 397.2 236.85 394.55 239.45 390.9 239.45 387.2 239.45 384.6 236.85 382.0 234.25 382.0 230.5 382.0 226.9 384.6 224.25 387.15 221.55 390.7 221.55 392.0 221.55 393.0 222.05 390.55 218.15 390.55 214.55 390.55 209.8 394.0 206.7 397.4 203.55 402.45 203.55 408.05 203.55 411.5 206.9 414.9 210.2 414.9 215.6 M394.65 226.6 Q393.05 224.9 390.75 224.9 388.5 224.9 386.95 226.6 385.3 228.2 385.3 230.55 385.3 232.95 386.95 234.5 388.5 236.15 390.75 236.15 393.05 236.15 394.65 234.5 396.25 232.9 396.25 230.55 396.25 228.2 394.65 226.6" fill="#000000" fill-rule="evenodd" stroke="none"/>
  </g>
</svg>
