<?xml version="1.0" encoding="UTF-8" standalone="no"?>
<svg xmlns:xlink="http://www.w3.org/1999/xlink" height="42.85px" width="39.15px" xmlns="http://www.w3.org/2000/svg">
  <g transform="matrix(1.0, 0.0, 0.0, 1.0, -380.1, -205.65)">
    <path d="M407.4 240.5 Q408.65 241.8 411.7 241.8 L413.2 241.8 413.2 238.55 419.25 243.6 413.2 248.5 413.2 245.35 410.65 245.35 Q406.25 245.35 404.2 243.0 402.2 240.6 402.2 235.6 L402.2 216.1 Q402.2 211.35 401.15 209.5 398.05 213.4 396.6 219.5 L396.6 239.45 392.5 239.45 392.5 217.3 Q392.5 211.5 391.5 209.5 388.5 213.2 387.0 218.8 L387.0 239.45 382.85 239.45 382.85 215.9 Q382.85 210.35 380.1 206.25 L384.25 206.25 Q386.3 209.35 386.65 212.6 387.65 209.05 390.05 206.3 L393.65 205.65 Q396.05 208.45 396.4 212.95 397.0 209.75 399.8 206.3 L403.45 205.65 Q406.3 209.5 406.3 214.4 L406.3 234.5 406.5 238.75 Q406.7 239.7 407.4 240.5" fill="#000000" fill-rule="evenodd" stroke="none"/>
  </g>
</svg>
