<?xml version="1.0" encoding="UTF-8" standalone="no"?>
<svg xmlns:xlink="http://www.w3.org/1999/xlink" height="326.6px" width="169.0px" xmlns="http://www.w3.org/2000/svg">
  <g transform="matrix(1.0, 0.0, 0.0, 1.0, -106.8, -90.45)">
    <path d="M258.65 96.5 Q272.5 114.55 275.45 142.95 277.95 179.8 263.0 216.7 245.75 270.2 234.55 330.3 227.4 368.85 222.75 410.1 215.75 407.75 216.1 389.7 211.2 383.5 212.2 378.85 206.9 374.4 207.6 369.95 L212.1 332.1 Q207.35 325.6 207.75 317.8 L227.85 194.1 Q227.45 176.4 215.65 182.65 L215.6 182.65 Q214.95 183.0 214.25 183.45 L213.75 183.8 Q185.0 173.75 184.65 209.85 186.25 257.55 183.9 318.9 183.3 330.75 176.6 335.6 L176.25 374.6 Q174.85 381.65 169.95 388.7 170.25 396.0 165.2 403.25 L164.75 410.8 Q157.4 420.5 157.6 415.2 158.35 381.3 151.65 343.1 145.9 310.55 134.8 274.9 L112.55 204.5 Q105.55 183.05 107.1 166.0 113.45 119.45 137.5 93.2 142.9 86.3 155.55 96.65 163.55 103.4 162.7 110.2 L162.7 118.05 Q162.4 137.6 179.1 152.75 198.2 160.65 211.5 165.75 231.45 152.05 242.0 137.45 247.3 129.05 244.85 121.8 239.75 109.7 248.0 100.4 251.65 94.8 254.6 94.35 256.8 93.95 258.65 96.5" fill="#000000" fill-rule="evenodd" stroke="none"/>
  </g>
</svg>
