<?xml version="1.0" encoding="UTF-8" standalone="no"?>
<svg xmlns:xlink="http://www.w3.org/1999/xlink" height="312.05px" width="196.15px" xmlns="http://www.w3.org/2000/svg">
  <g transform="matrix(1.0, 0.0, 0.0, 1.0, -87.55, -50.7)">
    <path d="M209.75 178.9 Q225.3 142.45 233.15 113.55 L245.05 69.25 Q245.35 64.25 247.4 59.65 251.1 53.2 255.95 50.7 253.25 54.0 251.7 57.4 257.0 56.15 262.55 58.15 255.95 58.05 251.0 65.35 L250.25 69.45 Q300.7 187.55 275.05 358.35 264.45 194.05 245.15 267.25 L245.1 267.25 245.1 267.4 243.6 258.25 Q236.9 219.55 229.0 199.85 L228.5 198.6 Q220.75 179.9 211.9 179.4 L210.0 179.45 209.55 179.5 209.9 178.95 209.8 178.95 209.75 178.9 209.8 178.95 209.5 179.5 209.55 179.5 209.5 179.55 Q186.15 178.3 184.9 209.15 L184.9 209.65 Q184.4 229.65 194.7 270.0 117.55 197.45 108.95 362.75 55.9 193.65 134.45 72.15 133.45 70.55 132.95 68.15 124.15 61.15 113.05 61.7 122.25 59.35 131.35 60.2 128.5 56.95 123.75 53.8 132.05 56.0 138.75 62.2 142.35 66.65 143.2 71.6 L165.8 115.15 Q180.8 143.75 209.5 179.5 L209.75 178.9" fill="#000000" fill-rule="evenodd" stroke="none"/>
  </g>
</svg>
