<?xml version="1.0" encoding="UTF-8" standalone="no"?>
<svg xmlns:xlink="http://www.w3.org/1999/xlink" height="411.7px" width="154.8px" xmlns="http://www.w3.org/2000/svg">
  <g transform="matrix(1.0, 0.0, 0.0, 1.0, -100.95, -68.3)">
    <path d="M193.75 95.95 Q187.5 101.5 190.6 113.0 188.45 114.1 189.25 118.45 189.7 121.25 190.65 123.05 191.2 124.05 192.45 124.4 L194.65 124.45 196.05 126.85 Q197.65 135.3 196.05 144.2 185.85 153.1 166.4 161.0 164.25 185.0 168.3 209.75 163.15 216.45 161.55 225.1 166.15 248.0 175.45 270.1 173.85 278.75 172.95 286.05 L182.8 292.55 Q184.75 295.2 187.85 293.9 L188.4 295.5 192.8 294.55 Q192.65 290.85 192.8 287.15 L194.2 287.15 Q195.6 300.95 197.9 315.1 186.65 327.2 183.0 340.7 L187.0 426.7 179.55 447.7 Q180.1 455.65 185.65 463.65 L194.65 453.45 193.2 427.1 198.25 397.65 Q200.5 411.85 198.0 426.05 196.35 430.4 195.7 434.8 L201.2 437.5 Q204.95 442.75 204.9 448.7 214.0 455.95 223.1 456.5 236.65 465.05 232.75 480.0 L100.95 480.0 100.95 68.3 196.5 68.3 196.5 93.65 Q195.0 94.6 193.75 95.95 M206.35 212.0 Q192.85 224.2 192.2 239.0 191.85 256.05 193.05 273.6 L182.5 267.35 Q179.9 245.6 181.3 224.15 180.7 219.4 177.25 214.65 181.85 199.0 185.05 183.4 194.55 193.3 208.4 201.8 209.8 206.9 206.35 212.0" fill="#010101" fill-opacity="0.2509804" fill-rule="evenodd" stroke="none"/>
    <path d="M190.6 295.05 L188.4 295.5 187.85 293.9 Q184.75 295.2 182.8 292.55 L172.95 286.05 Q173.85 278.75 175.45 270.1 166.15 248.0 161.55 225.1 163.15 216.45 168.3 209.75 164.25 185.0 166.4 161.0 185.85 153.1 196.05 144.2 197.65 135.3 196.05 126.85 L194.65 124.45 192.45 124.4 Q191.2 124.05 190.65 123.05 189.7 121.25 189.25 118.45 188.45 114.1 190.6 113.0 187.5 101.5 193.75 95.95 195.0 94.6 196.5 93.65 194.9 103.95 199.75 110.6 L199.75 115.6 Q193.95 128.25 213.7 137.2 L215.95 138.15 213.55 137.75 Q213.35 139.5 213.3 141.35 205.3 139.6 201.0 136.0 201.45 141.9 198.75 147.85 188.8 156.1 172.2 163.45 170.65 188.7 174.0 215.0 L171.0 212.5 167.2 223.9 Q170.15 246.6 178.35 269.3 L186.2 289.65 Q187.5 289.4 188.7 288.6 L189.1 288.55 190.6 295.05 M185.05 183.4 L187.1 172.6 Q192.55 172.5 195.9 177.25 208.7 191.4 222.25 180.35 215.6 191.0 201.2 186.55 204.3 192.25 211.05 197.95 216.55 208.35 208.45 220.85 196.15 244.95 200.85 313.85 L202.05 325.15 199.9 318.55 Q192.4 328.35 189.0 340.95 L189.9 427.1 183.85 448.35 185.65 463.65 Q180.1 455.65 179.55 447.7 L187.0 426.7 183.0 340.7 Q186.65 327.2 197.9 315.1 195.6 300.95 194.2 287.15 L195.6 287.45 Q196.8 287.55 197.7 286.75 L198.3 286.05 195.8 282.4 197.2 275.7 193.05 273.6 Q191.85 256.05 192.2 239.0 192.85 224.2 206.35 212.0 209.8 206.9 208.4 201.8 194.55 193.3 185.05 183.4 M198.25 397.65 L207.15 345.4 207.25 322.15 209.2 319.1 209.65 312.8 Q222.75 278.35 227.4 243.95 L232.45 238.9 Q225.25 278.9 214.6 320.15 L214.6 313.6 212.55 317.8 Q213.25 350.15 204.7 382.55 L201.6 397.15 Q202.25 412.15 200.0 428.85 206.8 437.8 208.6 447.7 L223.1 456.5 Q214.0 455.95 204.9 448.7 204.95 442.75 201.2 437.5 L195.7 434.8 Q196.35 430.4 198.0 426.05 200.5 411.85 198.25 397.65 M244.2 178.0 Q242.8 180.05 240.3 182.0 235.85 181.1 234.3 178.05 240.55 178.55 245.65 175.15 L244.2 178.0" fill="#010101" fill-opacity="0.2509804" fill-rule="evenodd" stroke="none"/>
    <path d="M190.6 295.05 L189.1 288.55 189.05 288.4 188.7 288.6 Q187.5 289.4 186.2 289.65 L178.35 269.3 Q170.15 246.6 167.2 223.9 L171.0 212.5 174.0 215.0 Q170.65 188.7 172.2 163.45 188.8 156.1 198.75 147.85 201.45 141.9 201.0 136.0 205.3 139.6 213.3 141.35 213.2 144.15 213.4 147.05 223.1 151.5 240.45 154.45 242.2 158.9 243.15 165.1 245.2 167.45 245.8 170.45 246.35 172.85 245.65 175.15 240.55 178.55 234.3 178.05 235.85 181.1 240.3 182.0 242.8 180.05 244.2 178.0 244.45 189.85 242.85 205.85 L247.65 217.35 245.9 227.15 Q248.25 235.7 247.4 244.3 L246.5 249.85 246.25 265.55 255.75 274.95 Q252.9 278.6 252.0 284.35 L250.05 284.35 250.15 287.15 Q249.65 289.95 246.8 289.7 245.1 289.4 244.55 288.3 242.15 289.45 240.7 288.6 239.65 287.95 239.15 286.3 237.45 286.85 236.4 286.3 235.45 285.75 234.95 284.35 L237.9 277.9 237.4 277.25 234.5 284.3 Q228.8 297.6 221.5 311.35 L221.5 315.15 Q225.45 330.1 223.95 345.05 L216.5 377.95 Q207.9 402.55 209.2 430.7 L223.1 456.5 208.6 447.7 Q206.8 437.8 200.0 428.85 202.25 412.15 201.6 397.15 L204.7 382.55 Q213.25 350.15 212.55 317.8 L214.6 313.6 214.6 320.15 Q225.25 278.9 232.45 238.9 L227.4 243.95 Q222.75 278.35 209.65 312.8 L209.2 319.1 207.25 322.15 207.15 345.4 198.25 397.65 193.2 427.1 194.65 453.45 185.65 463.65 183.85 448.35 189.9 427.1 189.0 340.95 Q192.4 328.35 199.9 318.55 L202.05 325.15 200.85 313.85 Q196.15 244.95 208.45 220.85 216.55 208.35 211.05 197.95 204.3 192.25 201.2 186.55 215.6 191.0 222.25 180.35 208.7 191.4 195.9 177.25 192.55 172.5 187.1 172.6 L185.05 183.4 Q181.85 199.0 177.25 214.65 180.7 219.4 181.3 224.15 179.9 245.6 182.5 267.35 L193.05 273.6 197.2 275.7 195.8 282.4 198.3 286.05 197.7 286.75 Q196.8 287.55 195.6 287.45 L194.2 287.15 192.85 286.5 192.8 286.5 192.8 287.15 Q192.65 290.85 192.8 294.55 L190.6 295.05 M215.95 138.15 L213.7 137.2 Q193.95 128.25 199.75 115.6 L199.75 110.6 Q194.9 103.95 196.5 93.65 203.45 89.0 215.2 92.35 226.35 96.15 225.9 109.25 L224.2 114.45 Q226.5 119.95 220.65 130.1 L215.95 138.15" fill="#010101" fill-opacity="0.0" fill-rule="evenodd" stroke="none"/>
    <path d="M189.1 288.55 L188.7 288.6 189.05 288.4 189.1 288.55" fill="#cc9966" fill-rule="evenodd" stroke="none"/>
    <path d="M195.35 107.8 L195.35 101.3 194.65 97.7 Q194.4 96.3 193.75 95.95 M203.2 91.15 L208.35 96.25 213.6 94.8 214.85 96.25 217.55 100.55 M208.55 100.75 L205.65 98.95 205.65 100.0 202.95 98.75 Q202.15 98.75 201.55 98.35 L206.0 96.25 199.2 92.15 M216.5 102.9 L216.5 110.5 217.95 110.5 217.95 115.55 Q218.45 115.5 218.45 114.45 M207.35 135.8 L207.35 122.25 209.25 113.75 M215.95 113.9 L215.95 116.65 217.95 116.65 217.95 123.85 M213.8 108.15 L213.8 120.4 215.0 120.45 215.0 128.9 M198.45 99.5 L202.05 104.7 203.65 104.7 203.65 114.65 201.15 114.65 201.15 122.6 M219.75 96.95 L222.25 106.0 222.25 111.95 M211.25 103.8 L211.25 115.0 M218.3 134.1 L218.3 126.55 219.55 126.2 219.55 119.7 M204.8 134.6 L204.8 138.45 203.35 139.7 203.35 146.95 M206.5 141.15 L206.5 144.25 M193.4 108.5 L192.1 108.5 192.05 112.6 M199.55 131.1 L198.45 121.05 195.9 121.05 195.9 116.8 M200.6 131.9 L200.95 140.45 199.0 150.7 M195.9 148.0 L194.4 152.6 194.4 154.25 188.15 152.6 187.15 152.6 187.15 154.25 180.7 157.8 179.2 157.8 M197.55 156.55 L200.45 155.1 200.45 152.4 204.2 152.4 Q204.2 151.35 204.55 150.9 L204.55 149.45 M203.6 158.2 L198.35 158.2 193.15 159.9 189.0 159.9 M188.75 164.1 L183.35 164.1 183.35 167.8 180.8 169.75 184.5 169.75 Q184.5 171.5 183.6 172.0 L183.6 178.55 181.65 180.55 179.85 180.15 179.85 182.8 177.7 182.8 177.7 193.55 M192.15 162.8 L197.1 162.8 197.1 169.05 200.65 169.05 200.65 171.1 202.1 174.85 204.0 174.85 204.0 180.7 199.5 180.7 200.95 181.85 197.55 181.85 197.55 184.55 M204.85 182.55 L207.55 180.5 207.55 177.15 209.4 177.15 209.4 173.8 207.3 173.8 207.3 168.2 203.35 168.2 203.35 164.45 201.5 164.45 200.25 162.8 M174.65 162.35 L177.05 161.25 Q178.35 162.0 178.35 160.5 L180.25 160.5 181.5 162.4 181.5 161.15 182.95 161.15 187.55 157.8 M190.45 167.2 L192.7 167.2 191.1 174.05 M171.95 168.65 L171.8 173.1 174.4 173.4 174.4 187.6 M179.65 172.6 Q182.7 174.2 180.55 178.05 L177.95 178.05 177.95 167.8 M170.3 163.25 L170.3 176.55 171.75 176.55 172.35 197.7 M195.55 189.3 L195.4 187.35 192.15 187.35 192.15 181.4 Q191.2 180.75 189.85 180.8 L187.6 180.8 186.4 176.3 M223.55 153.45 L225.45 153.45 233.1 156.55 235.2 157.4 M222.3 158.4 L230.2 158.4 Q230.1 159.8 230.65 159.7 M224.4 171.35 L226.45 173.0 226.45 181.75 Q226.55 182.9 227.5 182.8 L227.5 189.0 M245.65 175.15 L243.15 171.95 241.25 171.95 241.25 168.85 236.65 164.25 235.2 162.4 235.2 160.3 M235.2 166.35 L235.2 172.8 238.35 172.8 Q238.55 174.45 239.7 175.6 M216.9 152.4 L218.55 154.9 233.1 156.55 M220.35 181.75 L220.35 172.8 222.3 172.8 221.05 164.65 219.4 164.05 218.15 162.4 218.15 161.55 216.3 159.65 215.5 158.55 M212.3 161.15 L209.0 153.0 207.95 153.0 211.9 151.35 211.9 144.45 M209.4 164.05 L211.5 169.85 214.2 169.85 214.2 172.15 M209.5 187.85 L215.05 180.9 215.05 176.1 M206.05 193.25 L200.9 193.25 204.9 191.85 203.95 187.3 Q210.0 187.3 214.25 194.35 218.5 201.45 218.5 211.45 M207.4 194.55 L211.05 197.95 212.35 201.0 213.2 208.15 M222.15 199.5 L222.15 192.45 218.5 192.45 218.5 189.9 219.9 189.9 219.9 183.4 M232.1 179.7 L232.1 192.15 229.25 192.15 229.25 201.25 231.25 200.95 231.25 194.7 M240.3 182.0 L236.25 180.35 236.25 176.55 233.95 176.55 230.45 166.75 M241.95 264.75 L244.5 268.85 248.35 267.6 247.35 273.25 252.3 276.0 M248.7 276.55 L250.05 284.35 244.75 284.35 M240.9 258.75 L240.9 249.65 243.5 249.65 243.5 232.75 M241.2 215.55 L241.2 218.15 245.9 227.15 M227.25 195.85 L227.25 204.05 229.25 204.35 229.25 214.0 M212.05 213.65 L212.05 231.45 210.35 231.45 210.35 256.15 M227.4 243.95 L227.4 231.45 223.35 231.45 223.35 209.7 M225.95 217.8 L225.95 227.55 230.5 227.55 232.95 238.45 M235.4 214.9 L233.1 226.25 235.7 226.25 237.95 226.0 237.55 233.85 M219.1 232.35 L219.1 217.5 M205.15 220.4 L204.3 231.9 199.6 231.9 199.6 245.75 196.05 245.75 196.05 271.45 M172.8 203.95 L167.45 203.95 167.45 186.2 M174.0 239.2 L174.0 245.15 177.1 253.35 177.1 259.3 176.15 263.0 M173.3 208.4 L178.25 223.9 176.0 223.9 176.0 234.4 M171.0 212.5 L171.0 223.35 Q168.95 223.45 169.3 224.15 L170.55 242.8 M166.05 218.8 L168.65 233.4 M200.9 250.8 L200.4 256.15 204.15 288.0 M180.7 275.4 L178.35 269.3 Q179.4 267.15 179.7 265.2 179.9 264.1 179.4 263.3 M178.55 278.85 L178.55 287.7 M180.75 288.35 L181.4 277.25 M183.65 273.2 L184.1 284.2 187.9 284.2 188.7 288.6 M186.75 274.9 L186.75 281.4 Q188.8 281.6 188.6 280.3 L188.45 278.0 188.45 270.85 M191.3 274.6 L191.3 279.7 Q191.55 281.05 193.2 280.9 L192.8 287.15 M189.1 288.55 L190.6 295.05 M238.3 252.9 L238.3 257.45 236.05 257.45 236.05 266.9 Q238.35 267.1 238.3 266.55 L238.3 260.7 M223.9 281.35 L227.4 264.85 232.15 264.85 232.15 248.05 236.05 248.05 240.25 235.05 M221.4 239.9 L221.4 261.7 218.15 261.7 218.15 272.1 M212.6 279.25 L212.6 258.75 214.55 258.75 214.55 240.55 M204.15 249.0 L204.15 267.85 208.0 268.0 208.0 292.55 M241.1 288.75 L242.95 283.1 M230.2 269.8 L230.2 281.85 227.25 281.85 227.25 300.1 M236.1 286.05 L234.95 284.35 Q236.7 283.95 235.65 282.85 L236.4 281.1 M202.2 292.6 L202.2 307.55 204.5 307.55 205.4 325.05 M198.95 331.25 L198.95 352.4 201.15 352.3 201.15 345.25 202.55 345.25 202.55 342.3 Q202.75 339.5 201.9 339.65 M212.6 326.4 L210.0 336.15 211.9 340.5 211.65 343.0 M190.95 334.85 L189.05 344.6 189.15 355.95 193.75 355.95 193.75 379.7 M189.5 387.5 Q190.65 391.6 192.5 392.95 L192.5 410.6 M195.7 383.3 L195.7 394.65 M189.3 368.35 L189.4 380.35 M198.65 363.8 L198.65 379.7 M206.2 376.65 L209.65 359.2 211.25 347.1 215.55 347.1 215.55 329.65 M214.25 352.05 L217.85 352.05 217.85 323.45 M213.25 366.7 L213.25 382.95 209.35 382.95 209.35 389.15 206.1 389.15 206.1 397.25 206.1 417.1 M195.25 325.55 L195.25 354.35 M176.0 196.7 L177.55 213.55 M239.4 212.35 L239.65 186.9 M244.05 190.95 L242.6 218.35 M207.4 432.05 L206.5 440.2 211.0 445.35 M206.1 397.25 L201.6 420.6 204.5 428.45 Q206.15 427.95 205.55 425.2 M201.6 420.6 L200.0 428.85 202.7 432.7 M185.05 458.5 L182.35 439.8 185.6 442.2 189.85 442.2 189.9 427.1 M189.85 453.15 L187.25 450.55 185.6 442.2 M213.4 450.65 L208.6 447.7 206.5 440.2 M189.85 445.05 Q189.45 446.6 189.95 447.2 191.95 446.15 189.85 442.2 M213.25 443.4 L215.85 447.3" fill="none" stroke="#000000" stroke-linecap="round" stroke-linejoin="round" stroke-opacity="0.2509804" stroke-width="1.0"/>
  </g>
</svg>
