<?xml version="1.0" encoding="UTF-8" standalone="no"?>
<svg xmlns:xlink="http://www.w3.org/1999/xlink" height="308.95px" width="122.25px" xmlns="http://www.w3.org/2000/svg">
  <g transform="matrix(1.0, 0.0, 0.0, 1.0, -87.55, -53.8)">
    <path d="M198.6 168.25 L198.55 168.25 198.55 168.2 198.6 168.25 M209.5 179.5 L209.75 178.9 209.8 178.95 209.5 179.5 Q180.2 149.75 162.05 117.7 152.05 100.25 141.6 80.1 148.0 177.4 194.7 270.0 145.6 185.4 136.35 79.8 64.2 192.4 108.95 362.75 55.9 193.65 134.45 72.15 133.45 70.55 132.95 68.15 124.15 61.15 113.05 61.7 122.25 59.35 131.35 60.2 128.5 56.95 123.75 53.8 132.05 56.0 138.75 62.2 142.35 66.65 143.2 71.6 L165.8 115.15 Q180.8 143.75 209.5 179.5" fill="#000000" fill-rule="evenodd" stroke="none"/>
  </g>
</svg>
