<?xml version="1.0" encoding="UTF-8" standalone="no"?>
<svg xmlns:xlink="http://www.w3.org/1999/xlink" height="58.0px" width="75.9px" xmlns="http://www.w3.org/2000/svg">
  <g transform="matrix(1.0, 0.0, 0.0, 1.0, -167.85, -87.1)">
    <path d="M228.3 96.6 Q231.35 112.85 243.75 123.55 239.95 126.85 236.15 120.9 241.6 134.7 227.2 142.65 L229.15 135.6 Q226.5 141.3 220.4 142.2 L221.55 139.2 Q219.4 141.1 217.25 141.2 L218.3 134.1 220.65 130.1 223.1 125.2 Q225.9 118.55 224.2 114.45 L225.9 109.25 Q221.35 102.95 220.35 96.65 219.35 97.75 218.3 99.35 215.45 108.7 202.85 115.25 L201.45 117.1 196.8 122.65 Q196.95 134.9 204.1 145.1 L196.0 144.65 195.6 144.6 192.65 144.15 Q186.15 143.05 181.5 140.8 179.8 123.75 193.2 103.95 177.7 125.85 178.5 139.0 175.2 136.75 173.15 133.7 170.7 130.1 170.05 125.3 L182.8 108.65 Q171.0 120.9 167.85 114.05 172.4 113.65 179.0 109.05 183.45 96.75 193.8 87.1 L211.45 88.8 Q218.05 88.7 219.8 91.3 227.7 89.7 228.3 96.6" fill="#000000" fill-rule="evenodd" stroke="none"/>
  </g>
</svg>
