<?xml version="1.0" encoding="UTF-8" standalone="no"?>
<svg xmlns:xlink="http://www.w3.org/1999/xlink" height="129.7px" width="38.85px" xmlns="http://www.w3.org/2000/svg">
  <g transform="matrix(1.0, 0.0, 0.0, 1.0, -208.8, -136.4)">
    <path d="M213.4 147.05 Q223.1 151.5 240.45 154.45 242.2 158.9 243.15 165.1 245.2 167.45 245.8 170.45 246.35 172.85 245.65 175.15 L244.2 178.0 Q244.45 189.85 242.85 205.85 L247.65 217.35 245.9 227.15 Q243.85 219.75 239.4 212.35 237.8 214.9 231.0 215.15 229.6 210.5 229.55 205.85 L229.7 193.65 Q231.25 186.75 230.5 179.8 229.55 170.95 220.0 162.0 209.3 153.45 208.8 149.3 L208.85 136.4 213.55 137.75 Q213.35 139.5 213.3 141.35 213.2 144.15 213.4 147.05 M246.25 265.55 L241.55 266.1 Q244.15 258.55 246.2 251.15 L246.5 251.15 246.25 265.55" fill="#000000" fill-rule="evenodd" stroke="none"/>
  </g>
</svg>
