<?xml version="1.0" encoding="UTF-8" standalone="no"?>
<svg xmlns:xlink="http://www.w3.org/1999/xlink" height="67.3px" width="33.15px" xmlns="http://www.w3.org/2000/svg">
  <g transform="matrix(1.0, 0.0, 0.0, 1.0, -213.9, -148.35)">
    <path d="M243.15 165.1 Q245.2 167.45 245.8 170.45 246.35 172.85 245.65 175.15 L244.2 178.0 M219.25 149.35 L225.25 151.2" fill="none" stroke="#000000" stroke-linecap="round" stroke-linejoin="round" stroke-width="2.0"/>
    <path d="M236.5 160.55 L238.45 161.45 Q241.35 163.0 243.15 165.1 M244.2 178.0 Q242.8 180.05 240.3 182.0 240.2 184.3 239.7 186.6 238.75 190.8 236.5 195.05 235.45 205.15 239.4 212.35" fill="none" stroke="#000000" stroke-linecap="round" stroke-linejoin="round" stroke-width="1.0"/>
    <path d="M225.25 151.2 Q229.7 157.3 236.5 160.55 M214.4 157.2 L215.65 157.15 Q225.15 156.1 219.25 149.35" fill="none" stroke="#000000" stroke-linecap="round" stroke-linejoin="round" stroke-width="1.0"/>
    <path d="M231.0 215.15 Q229.6 210.5 229.55 205.85 L229.7 193.65 Q231.25 186.75 230.5 179.8 229.55 170.95 220.0 162.0 L214.4 157.2" fill="none" stroke="#000000" stroke-linecap="round" stroke-linejoin="round" stroke-width="1.0"/>
  </g>
</svg>
