<?xml version="1.0" encoding="UTF-8" standalone="no"?>
<svg xmlns:xlink="http://www.w3.org/1999/xlink" height="25.15px" width="79.35px" xmlns="http://www.w3.org/2000/svg">
  <g transform="matrix(1.0, 0.0, 0.0, 1.0, -164.8, -148.35)">
    <path d="M165.8 171.3 Q165.95 166.1 166.4 161.0 180.15 155.4 189.3 149.35 M219.25 149.35 Q227.85 152.3 240.45 154.45 242.2 158.9 243.15 165.1" fill="none" stroke="#000000" stroke-linecap="round" stroke-linejoin="round" stroke-width="2.0"/>
    <path d="M243.15 165.1 L242.25 164.15 Q240.3 164.8 236.3 165.3 L239.95 168.0 236.7 171.8 230.7 172.4 232.65 169.0 232.7 169.0 229.5 165.85 222.35 166.15 219.75 169.8 223.75 172.8 215.05 173.0 208.8 170.0 211.75 166.35 200.2 166.3 196.05 169.85 200.05 172.85 187.1 172.45 185.1 172.35 182.1 169.4 185.4 166.1 173.5 165.8 170.8 168.85 170.8 168.9 173.3 171.75 165.8 171.3 165.45 171.25 M170.8 168.85 L170.75 168.85 170.8 168.9 M236.5 160.55 Q240.0 162.05 242.25 164.15" fill="none" stroke="#000000" stroke-linecap="round" stroke-linejoin="round" stroke-width="1.0"/>
    <path d="M189.3 149.35 Q199.05 157.5 215.65 157.15 225.15 156.1 219.25 149.35" fill="none" stroke="#000000" stroke-linecap="round" stroke-linejoin="round" stroke-width="1.0"/>
  </g>
</svg>
