<?xml version="1.0" encoding="UTF-8" standalone="no"?>
<svg xmlns:xlink="http://www.w3.org/1999/xlink" height="211.4px" width="64.6px" xmlns="http://www.w3.org/2000/svg">
  <g transform="matrix(1.0, 0.0, 0.0, 1.0, -183.0, -219.35)">
    <path d="M247.4 244.3 L246.5 249.85 246.2 251.15 245.0 255.35 Q235.8 254.95 224.7 260.4 208.45 249.65 192.15 251.15 192.1 245.05 192.2 239.0 L192.55 235.4 Q209.7 234.4 226.85 247.75 L226.9 247.75 247.55 237.05 Q247.75 240.65 247.4 244.3 M245.4 225.35 L234.15 237.25 223.8 237.15 Q220.8 233.35 215.95 230.0 206.4 223.3 196.9 223.4 198.1 221.35 199.6 219.35 235.4 229.7 243.8 221.0 L245.4 225.35 M192.65 267.05 Q207.05 266.45 221.45 275.2 231.5 270.6 239.75 271.0 L237.4 277.25 235.9 280.9 234.5 284.3 233.6 286.4 Q225.75 285.35 217.9 288.4 L217.85 288.4 Q206.85 282.85 195.85 282.3 L197.2 275.7 193.05 273.6 192.65 267.05 M223.65 346.3 Q215.0 346.8 206.3 350.35 195.45 346.05 183.35 347.9 L183.0 340.7 Q184.45 335.45 187.0 330.4 197.15 328.3 207.2 333.75 218.5 327.8 223.95 328.45 224.75 336.75 223.95 345.05 L223.65 346.3 M209.35 317.05 L197.9 315.1 195.85 301.1 Q204.2 300.35 212.65 304.7 219.95 301.7 225.9 302.8 L221.5 311.35 221.5 315.15 209.65 312.8 209.35 317.05 M184.7 377.1 L184.05 363.3 Q193.9 361.3 203.75 365.15 L203.8 365.15 Q211.9 362.35 220.05 362.4 L217.0 375.9 Q209.25 375.9 201.5 378.7 L201.45 378.7 Q193.2 375.95 184.7 377.1 M199.45 390.55 Q206.35 388.85 213.2 388.9 211.5 395.55 210.5 402.45 204.75 402.35 199.0 403.95 L198.25 397.65 197.15 403.95 Q191.55 402.55 185.95 403.95 L185.3 390.55 Q190.8 388.5 199.45 390.55 M209.2 430.7 Q202.15 431.3 198.0 426.05 198.85 421.25 199.15 416.45 L209.2 416.45 Q208.85 423.45 209.2 430.7 M194.95 417.05 L193.2 427.1 187.0 426.7 186.55 417.05 194.95 417.05" fill="#000000" fill-rule="evenodd" stroke="none"/>
  </g>
</svg>
