<?xml version="1.0" encoding="UTF-8" standalone="no"?>
<svg xmlns:xlink="http://www.w3.org/1999/xlink" height="94.2px" width="57.55px" xmlns="http://www.w3.org/2000/svg">
  <g transform="matrix(1.0, 0.0, 0.0, 1.0, -191.1, -211.0)">
    <path d="M245.9 227.15 Q248.25 235.7 247.4 244.3 L246.5 249.85 M234.5 284.3 Q230.6 293.45 225.9 302.8 M193.05 273.6 Q191.85 256.05 192.2 239.0 192.85 224.2 206.35 212.0 M195.85 301.1 L194.2 287.15" fill="none" stroke="#000000" stroke-linecap="round" stroke-linejoin="round" stroke-width="2.0"/>
    <path d="M246.5 249.85 L246.2 251.15 Q242.6 264.0 237.4 277.25 L234.5 284.3 M215.95 230.0 Q224.95 236.2 227.4 243.95 L237.55 233.85 M194.2 287.15 L195.6 287.45 Q196.8 287.55 197.7 286.75 L198.3 286.05 195.8 282.4 197.2 275.7 193.05 273.6 M212.65 304.7 Q223.3 274.3 227.4 243.95 M239.4 212.35 Q243.85 219.75 245.9 227.15" fill="none" stroke="#000000" stroke-linecap="round" stroke-linejoin="round" stroke-width="1.0"/>
    <path d="M225.9 302.8 Q219.95 301.7 212.65 304.7 204.2 300.35 195.85 301.1" fill="none" stroke="#000000" stroke-linecap="round" stroke-linejoin="round" stroke-width="1.0"/>
  </g>
</svg>
