<?xml version="1.0" encoding="UTF-8" standalone="no"?>
<svg xmlns:xlink="http://www.w3.org/1999/xlink" height="103.25px" width="48.7px" xmlns="http://www.w3.org/2000/svg">
  <g transform="matrix(1.0, 0.0, 0.0, 1.0, -177.95, -361.4)">
    <path d="M185.05 385.0 L184.15 385.15 M191.35 457.2 L191.35 427.65 195.85 384.3 192.3 384.3 191.15 384.35 189.2 427.2 182.3 457.85 M191.15 384.35 L190.0 384.45 189.45 384.5 187.9 384.65 185.05 385.0 M217.9 455.65 L205.3 431.25 205.3 406.4 209.25 383.9 208.15 384.0 204.7 384.5 204.25 384.55 202.3 384.9 200.45 384.65 198.25 397.65 M200.45 384.65 L200.2 384.6 195.85 384.3 M203.8 365.15 L204.85 365.95 202.3 384.9 M209.25 383.9 L210.1 383.85 214.25 383.75 214.65 383.75" fill="none" stroke="#000000" stroke-linecap="round" stroke-linejoin="round" stroke-width="1.0"/>
    <path d="M220.0 362.4 Q224.55 362.75 225.65 364.1 L221.45 384.25 219.35 384.0 216.95 383.8 214.65 383.75 Q208.35 404.75 209.1 428.35 L209.1 428.85 209.2 430.7 223.1 456.5 222.8 456.5 222.55 456.45 222.4 456.45 218.8 455.85 217.9 455.65 Q211.4 453.85 204.9 448.7 204.95 442.75 201.2 437.5 L195.7 434.8 Q196.35 430.4 198.0 426.05 200.5 411.85 198.25 397.65 L193.2 427.1 194.65 453.45 191.35 457.2 185.65 463.65 Q183.65 460.75 182.3 457.85 179.9 452.75 179.55 447.7 L187.0 426.7 185.05 385.0 M184.15 385.15 L181.8 385.6 Q179.55 376.0 178.95 366.45 179.7 364.95 181.05 364.5 L184.05 363.3" fill="none" stroke="#000000" stroke-linecap="round" stroke-linejoin="round" stroke-width="2.0"/>
    <path d="M184.05 363.3 L185.0 363.15 185.3 363.1 185.8 363.0 189.25 362.65 Q196.45 362.3 203.75 365.15 L203.8 365.15 204.55 364.9 208.9 363.7 209.05 363.65 Q213.9 362.5 218.65 362.4 L220.0 362.4" fill="none" stroke="#000000" stroke-linecap="round" stroke-linejoin="round" stroke-width="1.0"/>
  </g>
</svg>
