<?xml version="1.0" encoding="UTF-8" standalone="no"?>
<svg xmlns:xlink="http://www.w3.org/1999/xlink" height="138.4px" width="51.8px" xmlns="http://www.w3.org/2000/svg">
  <g transform="matrix(1.0, 0.0, 0.0, 1.0, -176.9, -303.1)">
    <path d="M222.4 308.05 L224.45 318.1 223.75 319.8 219.55 330.3 213.25 329.7 211.0 317.65 210.8 316.5 215.5 304.6 221.85 305.2 222.4 308.05" fill="url(#gradient0)" fill-rule="evenodd" stroke="none"/>
    <path d="M197.0 315.75 L196.95 314.8 197.7 313.65 203.85 303.6 210.0 305.25 210.35 318.4 209.35 320.0 206.65 324.5 203.45 329.6 197.35 327.95 197.0 315.75" fill="url(#gradient1)" fill-rule="evenodd" stroke="none"/>
    <path d="M223.75 319.8 Q227.85 329.8 227.7 343.55 225.5 343.75 223.9 345.2 223.3 345.7 222.8 346.35 L222.15 347.4 Q220.95 349.35 220.25 352.35 L214.65 352.35 213.85 349.75 212.7 348.15 Q210.9 346.3 207.6 345.8 L210.05 345.65 Q211.1 336.8 210.4 327.95 L209.35 320.0 210.35 318.4 211.0 317.65 213.25 329.7 219.55 330.3 223.75 319.8" fill="url(#gradient2)" fill-rule="evenodd" stroke="none"/>
    <path d="M190.75 349.15 Q190.0 348.1 188.95 347.4 186.75 345.85 183.25 345.45 L180.55 345.3 Q181.8 326.7 197.0 315.75 L197.35 327.95 203.45 329.6 206.65 324.5 209.35 320.0 210.4 327.95 Q211.1 336.8 210.05 345.65 L207.6 345.8 207.05 345.9 Q203.5 346.5 201.2 348.7 L200.1 349.9 Q199.05 351.2 198.3 352.9 L192.25 352.9 Q191.9 350.7 190.75 349.15" fill="url(#gradient3)" fill-rule="evenodd" stroke="none"/>
    <path d="M185.55 425.15 L181.0 373.2 Q182.9 372.6 184.45 371.3 187.65 368.55 189.25 362.65 190.7 357.25 190.75 349.15 191.9 350.7 192.25 352.9 L198.3 352.9 Q199.05 351.2 200.1 349.9 198.7 358.0 199.8 363.85 200.6 368.1 202.75 371.15 L202.85 371.3 202.9 371.4 Q203.9 372.75 205.2 373.9 L198.85 402.25 198.25 397.65 193.45 425.65 Q190.3 424.05 186.9 424.8 L185.55 425.15" fill="url(#gradient4)" fill-rule="evenodd" stroke="none"/>
    <path d="M220.85 358.8 Q220.4 366.35 221.2 373.9 210.35 400.25 211.3 426.55 L209.05 426.75 Q205.65 427.3 202.9 429.85 200.8 431.25 198.65 430.15 L197.15 428.45 198.0 426.05 Q200.1 414.15 198.85 402.25 L205.2 373.9 Q203.9 372.75 202.9 371.4 L202.85 371.3 Q207.95 369.2 210.75 363.3 213.2 358.0 213.85 349.75 L214.65 352.35 220.25 352.35 Q220.95 349.35 222.15 347.4 221.15 353.05 220.85 358.8" fill="url(#gradient5)" fill-rule="evenodd" stroke="none"/>
    <path d="M211.3 426.55 Q214.25 426.6 217.65 427.95 L212.65 437.1 Q208.0 436.6 203.05 440.45 L202.95 440.4 196.0 435.0 198.65 430.15 Q200.8 431.25 202.9 429.85 205.65 427.3 209.05 426.75 L211.3 426.55" fill="url(#gradient6)" fill-rule="evenodd" stroke="none"/>
    <path d="M203.05 440.45 L203.0 440.5 202.95 440.4 203.05 440.45" fill="url(#gradient7)" fill-rule="evenodd" stroke="none"/>
    <path d="M196.0 435.0 L193.85 438.85 Q188.7 434.65 182.85 438.3 L177.9 430.15 Q181.9 426.35 185.55 425.15 L186.9 424.8 Q190.3 424.05 193.45 425.65 L193.55 425.7 Q195.4 426.7 197.15 428.45 L198.65 430.15 196.0 435.0" fill="url(#gradient8)" fill-rule="evenodd" stroke="none"/>
    <path d="M212.65 437.1 Q208.0 436.6 203.05 440.45 L202.95 440.4 M193.85 438.85 Q188.7 434.65 182.85 438.3 M184.45 371.3 Q187.65 368.55 189.25 362.65 190.7 357.25 190.75 349.15 190.0 348.1 188.95 347.4 186.75 345.85 183.25 345.45 M197.7 313.65 L203.85 303.6 210.0 305.25 210.35 318.4 211.0 317.65 210.8 316.5 215.5 304.6 221.85 305.2 222.4 308.05 M210.35 318.4 L209.35 320.0 210.4 327.95 Q211.1 336.8 210.05 345.65 L207.6 345.8 Q210.9 346.3 212.7 348.15 L213.85 349.75 214.65 352.35 220.25 352.35 Q220.95 349.35 222.15 347.4 L222.8 346.35 Q223.3 345.7 223.9 345.2 M223.75 319.8 L219.55 330.3 213.25 329.7 211.0 317.65 M209.35 320.0 L206.65 324.5 203.45 329.6 197.35 327.95 197.0 315.75 M200.1 349.9 L201.2 348.7 Q203.5 346.5 207.05 345.9 L207.6 345.8 M190.75 349.15 Q191.9 350.7 192.25 352.9 L198.3 352.9 Q199.05 351.2 200.1 349.9 198.7 358.0 199.8 363.85 200.6 368.1 202.75 371.15 L202.85 371.3 Q207.95 369.2 210.75 363.3 213.2 358.0 213.85 349.75 M220.85 358.8 Q221.15 353.05 222.15 347.4 M202.9 371.4 Q203.9 372.75 205.2 373.9 L198.85 402.25 193.55 425.7 193.45 425.65 Q190.3 424.05 186.9 424.8 L185.55 425.15 M197.15 428.45 L198.65 430.15 Q200.8 431.25 202.9 429.85 205.65 427.3 209.05 426.75 L211.3 426.55 M198.65 430.15 L196.0 435.0" fill="none" stroke="#000000" stroke-linecap="round" stroke-linejoin="round" stroke-width="1.0"/>
    <path d="M222.4 308.05 L224.45 318.1 223.75 319.8 Q227.85 329.8 227.7 343.55 225.5 343.75 223.9 345.2 L223.65 346.3 220.85 358.8 Q220.4 366.35 221.2 373.9 210.35 400.25 211.3 426.55 214.25 426.6 217.65 427.95 L212.65 437.1 M203.0 440.5 L202.95 440.4 196.0 435.0 193.85 438.85 M182.85 438.3 L177.9 430.15 Q181.9 426.35 185.55 425.15 L181.0 373.2 Q182.9 372.6 184.45 371.3 M183.25 345.45 L180.55 345.3 Q181.8 326.7 197.0 315.75 L196.95 314.8 197.7 313.65 M198.85 402.25 Q200.1 414.15 198.0 426.05 L197.15 428.45 Q195.4 426.7 193.55 425.7 M193.45 425.65 L198.25 397.65 198.85 402.25" fill="none" stroke="#000000" stroke-linecap="round" stroke-linejoin="round" stroke-width="2.0"/>
    <path d="M223.65 346.3 L222.8 346.35" fill="none" stroke="#000000" stroke-linecap="round" stroke-linejoin="round" stroke-opacity="0.2509804" stroke-width="1.0"/>
    <path d="M202.9 371.4 L202.85 371.3" fill="none" stroke="#000000" stroke-linecap="round" stroke-linejoin="round" stroke-width="1.0"/>
    <path d="M226.5 343.8 Q225.05 344.15 223.9 345.2 L223.75 345.2 Q223.15 335.75 220.5 327.85 L222.4 323.15 Q225.7 332.5 226.5 343.8 M197.1 319.7 L197.2 323.15 Q188.9 330.3 187.05 346.35 186.2 346.0 185.25 345.8 L185.15 345.8 Q185.2 328.8 197.1 319.7 M185.05 370.75 Q186.4 369.4 187.4 367.5 L190.15 424.65 Q189.0 424.5 187.8 424.65 L185.05 370.75 M220.7 364.15 L220.95 370.6 Q207.75 397.2 210.3 426.6 L209.05 426.75 207.2 427.25 Q205.45 394.5 220.7 364.15 M211.6 426.55 L214.25 426.9 211.55 437.05 209.35 437.3 211.6 426.55 M186.15 436.85 L184.2 437.55 181.2 427.45 Q182.3 426.65 183.35 426.1 L186.15 436.85" fill="#ffffff" fill-opacity="0.2509804" fill-rule="evenodd" stroke="none"/>
    <path d="M197.2 323.15 L197.35 327.95 203.45 329.6 206.65 324.5 209.35 320.0 210.35 318.4 210.0 305.25 203.85 303.6 197.7 313.65 M197.0 315.75 L197.1 319.7 197.2 323.15 M187.05 346.35 Q188.1 346.8 188.95 347.4 190.0 348.1 190.75 349.15 191.9 350.7 192.25 352.9 L198.3 352.9 Q199.05 351.2 200.1 349.9 L201.2 348.7 Q203.5 346.5 207.05 345.9 L207.6 345.8 210.05 345.65 Q211.1 336.8 210.4 327.95 L209.35 320.0 M210.35 318.4 L211.0 317.65 210.8 316.5 215.5 304.6 221.85 305.2 222.4 308.05 M220.5 327.85 L222.4 323.15 223.75 319.8 M211.0 317.65 L213.25 329.7 219.55 330.3 220.5 327.85 M223.9 345.2 L223.75 345.3 222.8 346.35 222.15 347.4 Q220.95 349.35 220.25 352.35 L214.65 352.35 213.85 349.75 Q213.2 358.0 210.75 363.3 207.95 369.2 202.85 371.3 L202.75 371.15 Q200.6 368.1 199.8 363.85 198.7 358.0 200.1 349.9 M187.05 346.35 Q186.2 346.0 185.25 345.8 M185.15 345.8 L183.25 345.45 M187.4 367.5 Q188.5 365.4 189.25 362.65 190.7 357.25 190.75 349.15 M187.4 367.5 Q186.4 369.4 185.05 370.75 L184.45 371.3 M187.8 424.65 Q189.0 424.5 190.15 424.65 191.85 424.85 193.45 425.65 L193.55 425.7 M220.85 358.8 Q221.15 353.05 222.15 347.4 M185.55 425.15 L186.9 424.8 187.8 424.65 M213.85 349.75 L212.7 348.15 Q210.9 346.3 207.6 345.8 M207.2 427.25 L209.05 426.75 210.3 426.6 211.3 426.55 M212.65 437.1 L211.55 437.05 209.35 437.3 Q206.3 437.95 203.05 440.45 L202.95 440.4 M193.85 438.85 Q190.2 435.85 186.15 436.85 L184.2 437.55 182.85 438.3 M207.2 427.25 Q204.9 428.05 202.9 429.85 200.8 431.25 198.65 430.15 L196.0 435.0 M198.65 430.15 L197.15 428.45" fill="none" stroke="#000000" stroke-linecap="round" stroke-linejoin="round" stroke-width="1.0"/>
    <path d="M222.4 308.05 L224.45 318.1 223.75 319.8 Q227.85 329.8 227.7 343.55 L226.5 343.8 Q225.05 344.15 223.9 345.2 L223.65 346.3 220.85 358.8 Q220.7 361.1 220.7 363.4 M197.7 313.65 L196.95 314.8 197.0 315.75 Q181.8 326.7 180.55 345.3 L183.25 345.45 M184.45 371.3 Q182.9 372.6 181.0 373.2 L185.55 425.15 183.35 426.1 Q182.3 426.65 181.2 427.45 L177.9 430.15 182.85 438.3 M220.95 370.6 L220.7 364.15 M220.95 370.6 L221.2 373.9 Q210.35 400.25 211.3 426.55 L211.6 426.55 214.25 426.9 Q215.9 427.25 217.65 427.95 L212.65 437.1 M202.95 440.4 L196.0 435.0 193.85 438.85 M197.15 428.45 Q195.4 426.7 193.55 425.7 M197.15 428.45 L198.0 426.05 Q200.1 414.15 198.85 402.25" fill="none" stroke="#000000" stroke-linecap="round" stroke-linejoin="round" stroke-width="2.0"/>
    <path d="M222.8 346.35 L223.65 346.3" fill="none" stroke="#000000" stroke-linecap="round" stroke-linejoin="round" stroke-opacity="0.2509804" stroke-width="1.0"/>
    <path d="M193.55 425.7 L205.2 373.9 Q203.9 372.75 202.9 371.4" fill="none" stroke="#000000" stroke-linecap="round" stroke-linejoin="round" stroke-width="1.0"/>
  </g>
  <defs>
    <linearGradient gradientTransform="matrix(0.0081, 0.0022, -0.0039, 0.0149, 216.8, 316.55)" gradientUnits="userSpaceOnUse" id="gradient0" spreadMethod="pad" x1="-819.2" x2="819.2">
      <stop offset="0.0" stop-color="#000000" stop-opacity="0.0"/>
      <stop offset="1.0" stop-color="#000000" stop-opacity="0.2509804"/>
    </linearGradient>
    <linearGradient gradientTransform="matrix(0.0082, 0.0, 0.0, 0.0159, 203.65, 316.6)" gradientUnits="userSpaceOnUse" id="gradient1" spreadMethod="pad" x1="-819.2" x2="819.2">
      <stop offset="0.0" stop-color="#000000" stop-opacity="0.0"/>
      <stop offset="1.0" stop-color="#000000" stop-opacity="0.2509804"/>
    </linearGradient>
    <linearGradient gradientTransform="matrix(0.0123, 0.0, 0.0, 0.0205, 217.65, 335.5)" gradientUnits="userSpaceOnUse" id="gradient2" spreadMethod="pad" x1="-819.2" x2="819.2">
      <stop offset="0.0" stop-color="#000000" stop-opacity="0.0"/>
      <stop offset="1.0" stop-color="#000000" stop-opacity="0.2509804"/>
    </linearGradient>
    <linearGradient gradientTransform="matrix(-0.0174, -0.0046, 0.0058, -0.0219, 197.6, 335.1)" gradientUnits="userSpaceOnUse" id="gradient3" spreadMethod="pad" x1="-819.2" x2="819.2">
      <stop offset="0.0" stop-color="#000000" stop-opacity="0.0"/>
      <stop offset="1.0" stop-color="#000000" stop-opacity="0.2509804"/>
    </linearGradient>
    <linearGradient gradientTransform="matrix(-0.0152, -0.0042, 0.0123, -0.045, 190.65, 386.95)" gradientUnits="userSpaceOnUse" id="gradient4" spreadMethod="pad" x1="-819.2" x2="819.2">
      <stop offset="0.0" stop-color="#000000" stop-opacity="0.0"/>
      <stop offset="1.0" stop-color="#000000" stop-opacity="0.2509804"/>
    </linearGradient>
    <linearGradient gradientTransform="matrix(0.0153, 0.0, 0.0, 0.0508, 209.65, 389.0)" gradientUnits="userSpaceOnUse" id="gradient5" spreadMethod="pad" x1="-819.2" x2="819.2">
      <stop offset="0.0" stop-color="#000000" stop-opacity="0.0"/>
      <stop offset="1.0" stop-color="#000000" stop-opacity="0.2509804"/>
    </linearGradient>
    <linearGradient gradientTransform="matrix(0.0026, 7.0E-4, -0.0025, 0.0094, 208.65, 433.65)" gradientUnits="userSpaceOnUse" id="gradient6" spreadMethod="pad" x1="-819.2" x2="819.2">
      <stop offset="0.0" stop-color="#000000" stop-opacity="0.0"/>
      <stop offset="1.0" stop-color="#000000" stop-opacity="0.2509804"/>
    </linearGradient>
    <linearGradient gradientTransform="matrix(0.0016, 0.0, 0.0, 0.0054, 208.9, 441.5)" gradientUnits="userSpaceOnUse" id="gradient7" spreadMethod="pad" x1="-819.2" x2="819.2">
      <stop offset="0.0" stop-color="#000000" stop-opacity="0.0"/>
      <stop offset="1.0" stop-color="#000000" stop-opacity="0.2509804"/>
    </linearGradient>
    <linearGradient gradientTransform="matrix(0.0053, 0.0, 0.0, 0.0087, 188.4, 431.7)" gradientUnits="userSpaceOnUse" id="gradient8" spreadMethod="pad" x1="-819.2" x2="819.2">
      <stop offset="0.0" stop-color="#000000" stop-opacity="0.0"/>
      <stop offset="1.0" stop-color="#000000" stop-opacity="0.2509804"/>
    </linearGradient>
  </defs>
</svg>
