<?xml version="1.0" encoding="UTF-8" standalone="no"?>
<svg xmlns:xlink="http://www.w3.org/1999/xlink" height="137.4px" width="47.25px" xmlns="http://www.w3.org/2000/svg">
  <g transform="matrix(1.0, 0.0, 0.0, 1.0, -176.9, -303.1)">
    <path d="M210.15 318.7 L210.45 327.95 210.4 327.95 209.35 320.0 210.15 318.7" fill="url(#gradient0)" fill-rule="evenodd" stroke="none"/>
    <path d="M197.7 313.65 L203.85 303.6 210.0 305.25 210.35 318.4 210.15 318.7 209.35 320.0 206.65 324.5 203.45 329.6 197.35 327.95 197.0 315.75 196.95 314.8 197.7 313.65" fill="url(#gradient1)" fill-rule="evenodd" stroke="none"/>
    <path d="M210.4 327.95 Q211.1 336.8 210.05 345.65 L207.6 345.8 207.05 345.9 Q203.5 346.5 201.2 348.7 L200.1 349.9 Q199.05 351.2 198.3 352.9 L192.25 352.9 Q191.9 350.7 190.75 349.15 190.0 348.1 188.95 347.4 186.75 345.85 183.25 345.45 L180.55 345.3 Q181.8 326.7 197.0 315.75 L197.35 327.95 203.45 329.6 206.65 324.5 209.35 320.0 210.4 327.95" fill="url(#gradient2)" fill-rule="evenodd" stroke="none"/>
    <path d="M200.1 349.9 Q198.7 358.0 199.8 363.85 200.6 368.1 202.75 371.15 L202.85 371.3 202.9 371.4 Q203.9 372.75 205.2 373.9 L198.85 402.25 198.25 397.65 193.45 425.65 Q190.3 424.05 186.9 424.8 L185.55 425.15 181.0 373.2 Q182.9 372.6 184.45 371.3 187.65 368.55 189.25 362.65 190.7 357.25 190.75 349.15 191.9 350.7 192.25 352.9 L198.3 352.9 Q199.05 351.2 200.1 349.9" fill="url(#gradient3)" fill-rule="evenodd" stroke="none"/>
    <path d="M203.05 440.45 L203.0 440.5 202.95 440.4 203.05 440.45" fill="url(#gradient4)" fill-rule="evenodd" stroke="none"/>
    <path d="M193.55 425.7 Q195.4 426.7 197.15 428.45 L198.65 430.15 196.0 435.0 193.85 438.85 Q188.7 434.65 182.85 438.3 L177.9 430.15 Q181.9 426.35 185.55 425.15 L186.9 424.8 Q190.3 424.05 193.45 425.65 L193.55 425.7" fill="url(#gradient5)" fill-rule="evenodd" stroke="none"/>
    <path d="M197.7 313.65 L203.85 303.6 210.0 305.25 210.35 318.4 210.15 318.7 210.45 327.95 M197.15 428.45 L198.65 430.15 196.0 435.0 M193.85 438.85 Q188.7 434.65 182.85 438.3 M184.45 371.3 Q187.65 368.55 189.25 362.65 190.7 357.25 190.75 349.15 190.0 348.1 188.95 347.4 186.75 345.85 183.25 345.45 M210.15 318.7 L209.35 320.0 210.4 327.95 M209.35 320.0 L206.65 324.5 203.45 329.6 197.35 327.95 197.0 315.75 M200.1 349.9 Q199.05 351.2 198.3 352.9 L192.25 352.9 Q191.9 350.7 190.75 349.15 M193.45 425.65 L193.55 425.7 M193.45 425.65 Q190.3 424.05 186.9 424.8 L185.55 425.15" fill="none" stroke="#000000" stroke-linecap="round" stroke-linejoin="round" stroke-width="1.0"/>
    <path d="M193.55 425.7 Q195.4 426.7 197.15 428.45 M196.0 435.0 L193.85 438.85 M182.85 438.3 L177.9 430.15 Q181.9 426.35 185.55 425.15 L181.0 373.2 Q182.9 372.6 184.45 371.3 M183.25 345.45 L180.55 345.3 Q181.8 326.7 197.0 315.75 L196.95 314.8 197.7 313.65" fill="none" stroke="#000000" stroke-linecap="round" stroke-linejoin="round" stroke-width="2.0"/>
    <path d="M198.85 402.25 L193.55 425.7" fill="none" stroke="#000000" stroke-linecap="round" stroke-linejoin="round" stroke-width="2.0"/>
    <path d="M210.4 327.95 Q211.1 336.8 210.05 345.65 L207.6 345.8 207.05 345.9 Q203.5 346.5 201.2 348.7 L200.1 349.9 Q198.7 358.0 199.8 363.85 200.6 368.1 202.75 371.15 L202.85 371.3 202.9 371.4 Q203.9 372.75 205.2 373.9 L198.85 402.25" fill="none" stroke="#000000" stroke-linecap="round" stroke-linejoin="round" stroke-width="1.0"/>
    <path d="M186.15 436.85 L184.2 437.55 181.2 427.45 Q182.3 426.65 183.35 426.1 L186.15 436.85 M185.05 370.75 Q186.4 369.4 187.4 367.5 L190.15 424.65 Q189.0 424.5 187.8 424.65 L185.05 370.75 M187.05 346.35 Q186.2 346.0 185.25 345.8 L185.15 345.8 Q185.2 328.8 197.1 319.7 L197.2 323.15 Q188.9 330.3 187.05 346.35" fill="#ffffff" fill-opacity="0.2509804" fill-rule="evenodd" stroke="none"/>
    <path d="M197.7 313.65 L203.85 303.6 210.0 305.25 210.35 318.4 210.15 318.7 210.4 327.95 Q211.1 336.8 210.05 345.65 L207.6 345.8 207.05 345.9 Q203.5 346.5 201.2 348.7 L200.1 349.9 Q198.7 358.0 199.8 363.85 200.6 368.1 202.75 371.15 L202.85 371.3 202.9 371.4 Q203.9 372.75 205.2 373.9 L198.85 402.25 193.55 425.7 193.45 425.65 Q191.85 424.85 190.15 424.65 189.0 424.5 187.8 424.65 L186.9 424.8 185.55 425.15 M197.15 428.45 L198.65 430.15 196.0 435.0 M193.85 438.85 Q190.2 435.85 186.15 436.85 L184.2 437.55 182.85 438.3 M184.45 371.3 L185.05 370.75 Q186.4 369.4 187.4 367.5 188.5 365.4 189.25 362.65 190.7 357.25 190.75 349.15 190.0 348.1 188.95 347.4 188.1 346.8 187.05 346.35 186.2 346.0 185.25 345.8 M185.15 345.8 L183.25 345.45 M210.15 318.7 L209.35 320.0 210.4 327.95 M209.35 320.0 L206.65 324.5 203.45 329.6 197.35 327.95 197.2 323.15 197.1 319.7 197.0 315.75 M200.1 349.9 Q199.05 351.2 198.3 352.9 L192.25 352.9 Q191.9 350.7 190.75 349.15" fill="none" stroke="#000000" stroke-linecap="round" stroke-linejoin="round" stroke-width="1.0"/>
    <path d="M193.55 425.7 Q195.4 426.7 197.15 428.45 M196.0 435.0 L193.85 438.85 M182.85 438.3 L177.9 430.15 181.2 427.45 Q182.3 426.65 183.35 426.1 L185.55 425.15 181.0 373.2 Q182.9 372.6 184.45 371.3 M183.25 345.45 L180.55 345.3 Q181.8 326.7 197.0 315.75 L196.95 314.8 197.7 313.65 M198.85 402.25 L198.25 397.65 193.45 425.65" fill="none" stroke="#000000" stroke-linecap="round" stroke-linejoin="round" stroke-width="2.0"/>
    <path d="M222.8 346.35 L223.65 346.3" fill="none" stroke="#000000" stroke-linecap="round" stroke-linejoin="round" stroke-opacity="0.2509804" stroke-width="1.0"/>
  </g>
  <defs>
    <linearGradient gradientTransform="matrix(0.0032, 0.0, 0.0, 0.0205, 217.6, 335.5)" gradientUnits="userSpaceOnUse" id="gradient0" spreadMethod="pad" x1="-819.2" x2="819.2">
      <stop offset="0.0" stop-color="#000000" stop-opacity="0.0"/>
      <stop offset="1.0" stop-color="#000000" stop-opacity="0.2509804"/>
    </linearGradient>
    <linearGradient gradientTransform="matrix(0.0082, 0.0, 0.0, 0.0159, 203.65, 316.6)" gradientUnits="userSpaceOnUse" id="gradient1" spreadMethod="pad" x1="-819.2" x2="819.2">
      <stop offset="0.0" stop-color="#000000" stop-opacity="0.0"/>
      <stop offset="1.0" stop-color="#000000" stop-opacity="0.2509804"/>
    </linearGradient>
    <linearGradient gradientTransform="matrix(-0.0174, -0.0046, 0.0058, -0.0219, 197.6, 335.1)" gradientUnits="userSpaceOnUse" id="gradient2" spreadMethod="pad" x1="-819.2" x2="819.2">
      <stop offset="0.0" stop-color="#000000" stop-opacity="0.0"/>
      <stop offset="1.0" stop-color="#000000" stop-opacity="0.2509804"/>
    </linearGradient>
    <linearGradient gradientTransform="matrix(-0.0152, -0.0042, 0.0123, -0.045, 190.65, 386.95)" gradientUnits="userSpaceOnUse" id="gradient3" spreadMethod="pad" x1="-819.2" x2="819.2">
      <stop offset="0.0" stop-color="#000000" stop-opacity="0.0"/>
      <stop offset="1.0" stop-color="#000000" stop-opacity="0.2509804"/>
    </linearGradient>
    <linearGradient gradientTransform="matrix(0.0016, 0.0, 0.0, 0.0054, 208.9, 441.5)" gradientUnits="userSpaceOnUse" id="gradient4" spreadMethod="pad" x1="-819.2" x2="819.2">
      <stop offset="0.0" stop-color="#000000" stop-opacity="0.0"/>
      <stop offset="1.0" stop-color="#000000" stop-opacity="0.2509804"/>
    </linearGradient>
    <linearGradient gradientTransform="matrix(0.0053, 0.0, 0.0, 0.0087, 188.4, 431.7)" gradientUnits="userSpaceOnUse" id="gradient5" spreadMethod="pad" x1="-819.2" x2="819.2">
      <stop offset="0.0" stop-color="#000000" stop-opacity="0.0"/>
      <stop offset="1.0" stop-color="#000000" stop-opacity="0.2509804"/>
    </linearGradient>
  </defs>
</svg>
