<?xml version="1.0" encoding="UTF-8" standalone="no"?>
<svg xmlns:xlink="http://www.w3.org/1999/xlink" height="47.0px" width="31.5px" xmlns="http://www.w3.org/2000/svg">
  <g transform="matrix(1.0, 0.0, 0.0, 1.0, -192.6, -410.5)">
    <path d="M209.4 413.15 Q211.35 413.55 212.5 414.95 211.35 421.7 211.1 428.4 L209.15 429.75 209.2 430.7 223.1 456.5 222.55 456.45 218.8 455.85 217.9 455.65 Q211.4 453.85 204.9 448.7 204.95 444.65 203.2 440.9 L201.7 445.15 199.25 445.15 196.25 443.5 195.7 434.8 Q196.25 430.9 197.65 427.05 L193.6 424.75 195.8 412.05 Q198.35 411.25 199.3 411.6" fill="none" stroke="#000000" stroke-linecap="round" stroke-linejoin="round" stroke-width="2.0"/>
    <path d="M199.3 411.6 L199.3 413.1 201.45 414.1 Q205.35 415.55 209.25 415.4 L209.3 414.15 209.35 413.75 209.4 413.15 M199.25 445.15 L201.2 437.5 195.7 434.8 M209.15 429.75 Q205.75 431.05 200.1 428.35 L197.65 427.05 M201.2 437.5 Q202.4 439.15 203.2 440.9" fill="none" stroke="#000000" stroke-linecap="round" stroke-linejoin="round" stroke-width="1.0"/>
  </g>
</svg>
