<?xml version="1.0" encoding="UTF-8" standalone="no"?>
<svg xmlns:xlink="http://www.w3.org/1999/xlink" height="47.2px" width="36.85px" xmlns="http://www.w3.org/2000/svg">
  <g transform="matrix(1.0, 0.0, 0.0, 1.0, -189.05, -90.95)">
    <path d="M193.75 95.95 Q195.0 94.6 196.5 93.65 203.45 89.0 215.2 92.35 226.35 96.15 225.9 109.25 L224.2 114.45 Q225.45 117.5 224.25 121.95 L216.05 118.25 202.3 122.25 201.8 122.2 201.85 122.4 203.55 130.3 Q210.05 135.1 217.75 135.1 L215.95 138.15 213.65 137.75 213.55 137.75 Q204.45 135.8 197.4 129.2 L196.05 126.85 194.65 124.45 192.45 124.4 Q191.2 124.05 190.65 123.05 189.7 121.25 189.25 118.45 188.45 114.1 190.6 113.0 187.5 101.5 193.75 95.95" fill="#000000" fill-rule="evenodd" stroke="none"/>
  </g>
</svg>
