<?xml version="1.0" encoding="UTF-8" standalone="no"?>
<svg xmlns:xlink="http://www.w3.org/1999/xlink" height="22.3px" width="22.55px" xmlns="http://www.w3.org/2000/svg">
  <g transform="matrix(1.0, 0.0, 0.0, 1.0, -173.35, -102.35)">
    <path d="M188.3 117.7 L190.3 119.55 Q192.95 119.8 192.5 117.7 L190.6 116.0 195.2 115.85 195.4 118.75 195.3 120.6 189.55 120.75 189.1 120.75 Q188.6 119.6 188.35 117.9 L188.3 117.7" fill="#ffffff" fill-opacity="0.2509804" fill-rule="evenodd" stroke="none"/>
    <path d="M190.6 116.0 L188.75 114.35 193.6 113.35 190.85 111.0 M188.3 117.7 L190.3 119.55 Q192.95 119.8 192.5 117.7 L190.6 116.0 M195.2 115.85 Q194.8 113.95 193.6 113.35 M195.3 120.6 Q194.8 123.95 192.85 124.15 190.6 124.15 189.9 122.3 L189.65 121.9 M189.55 120.75 L189.1 120.75 M195.2 115.85 L195.4 118.75 195.3 120.6" fill="none" stroke="#000000" stroke-linecap="round" stroke-linejoin="round" stroke-width="1.0"/>
    <path d="M190.85 111.0 Q182.45 104.35 174.35 103.35 182.15 107.65 187.65 112.35 L184.25 113.9 188.3 117.7 188.35 117.9 Q188.6 119.6 189.1 120.75 L189.65 121.9" fill="none" stroke="#000000" stroke-linecap="round" stroke-linejoin="round" stroke-width="2.0"/>
  </g>
</svg>
