<?xml version="1.0" encoding="UTF-8" standalone="no"?>
<svg xmlns:xlink="http://www.w3.org/1999/xlink" height="64.7px" width="47.85px" xmlns="http://www.w3.org/2000/svg">
  <g transform="matrix(1.0, 0.0, 0.0, 1.0, -183.05, -87.15)">
    <path d="M206.1 88.15 Q209.45 88.1 212.5 89.0 L219.6 102.65 Q218.0 101.65 216.15 100.95 L206.1 88.15 M201.5 100.15 Q200.15 101.55 199.05 104.05 L186.55 97.65 Q188.3 93.2 191.4 91.1 L201.5 100.15" fill="#ffffff" fill-opacity="0.2509804" fill-rule="evenodd" stroke="none"/>
    <path d="M220.3 149.7 Q216.45 148.45 213.4 147.05 213.2 144.15 213.3 141.35 213.35 139.5 213.55 137.75 L215.95 138.15 220.65 130.1 Q226.5 119.95 224.2 114.45 L225.85 109.5 Q229.45 117.1 225.9 129.95 L220.3 149.7 M194.7 124.5 L196.05 126.85 Q197.65 135.3 196.05 144.2 L192.5 147.05 186.95 150.85 Q184.45 133.55 184.1 116.2 184.0 112.2 184.3 108.8 187.7 120.6 194.65 125.1 L194.7 124.5 M194.65 125.1 Q194.0 131.35 193.7 139.1 193.8 143.1 192.5 147.05 193.8 143.1 193.7 139.1 194.0 131.35 194.65 125.1" fill="#000000" fill-opacity="0.2509804" fill-rule="evenodd" stroke="none"/>
    <path d="M191.4 91.1 Q194.35 89.05 198.55 89.2 202.5 88.15 206.1 88.15 209.45 88.1 212.5 89.0 221.95 91.7 228.45 103.05 233.1 116.05 222.9 150.5 L220.3 149.7 Q216.45 148.45 213.4 147.05 213.2 144.15 213.3 141.35 213.35 139.5 213.55 137.75 L215.95 138.15 220.65 130.1 Q226.5 119.95 224.2 114.45 L225.85 109.5 225.75 109.3 M194.7 124.5 L196.05 126.85 Q197.65 135.3 196.05 144.2 L192.5 147.05 186.95 150.85 Q184.45 133.55 184.1 116.2 184.0 112.2 184.3 108.8 184.75 102.05 186.55 97.65 188.3 93.2 191.4 91.1" fill="none" stroke="#000000" stroke-linecap="round" stroke-linejoin="round" stroke-width="2.0"/>
    <path d="M225.75 109.3 Q223.7 105.2 219.6 102.65 218.0 101.65 216.15 100.95 211.1 98.95 203.85 98.55 202.6 99.0 201.5 100.15 200.15 101.55 199.05 104.05 196.1 110.55 194.7 124.5 L194.65 125.1 Q194.0 131.35 193.7 139.1 193.8 143.1 192.5 147.05 M225.85 109.5 Q229.45 117.1 225.9 129.95" fill="none" stroke="#000000" stroke-linecap="round" stroke-linejoin="round" stroke-width="1.0"/>
  </g>
</svg>
