<?xml version="1.0" encoding="UTF-8" standalone="no"?>
<svg xmlns:xlink="http://www.w3.org/1999/xlink" height="50.85px" width="76.05px" xmlns="http://www.w3.org/2000/svg">
  <g transform="matrix(1.0, 0.0, 0.0, 1.0, -165.4, -151.95)">
    <path d="M231.25 188.7 L229.65 189.05 229.65 183.6 Q231.35 183.35 232.65 182.05 L232.65 188.1 232.45 188.25 231.25 188.7 M232.65 174.2 Q231.35 172.9 229.65 172.65 L229.65 167.2 231.2 167.55 232.65 168.15 232.65 174.2 M229.65 178.1 Q227.45 177.35 228.05 174.7 L225.65 174.7 Q227.95 173.6 229.65 173.9 231.6 174.15 232.65 176.3 L233.05 177.15 Q233.55 178.8 232.65 180.2 L231.4 181.6 Q232.3 178.9 232.05 178.35 L229.65 178.1" fill="#ffffff" fill-opacity="0.2509804" fill-rule="evenodd" stroke="none"/>
    <path d="M228.85 189.15 L228.1 189.3 226.25 189.45 Q223.7 189.45 221.6 188.5 219.85 187.65 218.4 186.2 L217.6 185.35 216.3 183.4 Q215.65 182.1 215.35 180.65 L215.15 178.35 215.25 176.9 215.35 176.25 Q215.9 173.0 218.4 170.55 220.1 168.8 222.25 168.0 L222.65 168.25 Q221.2 169.0 219.95 170.3 217.05 173.15 216.75 177.1 L216.7 177.75 216.7 178.15 216.8 179.7 Q216.95 181.0 217.45 182.25 217.9 183.4 218.7 184.5 L219.95 185.95 Q221.15 187.15 222.55 187.95 224.9 189.2 227.8 189.2 L228.2 189.2 228.85 189.15 M229.65 182.25 Q223.4 182.6 224.5 176.55 225.75 181.2 229.65 182.25" fill="#000000" fill-opacity="0.2509804" fill-rule="evenodd" stroke="none"/>
    <path d="M166.4 161.0 Q175.5 157.3 182.6 153.4 M232.55 152.95 L240.45 154.45 240.45 154.55 M208.4 201.8 Q203.3 198.65 198.8 195.35" fill="none" stroke="#000000" stroke-linecap="round" stroke-linejoin="round" stroke-width="2.0"/>
    <path d="M223.6 167.6 L225.2 167.35 227.8 167.05 227.85 167.05 229.65 167.2 231.2 167.55 232.65 168.15 Q234.25 168.9 235.6 170.3 237.0 171.65 237.8 173.25 L238.45 175.0 Q238.9 176.45 238.9 178.15 L238.75 180.1 238.7 180.35 Q238.05 183.5 235.6 185.95 234.25 187.3 232.65 188.1 L232.45 188.25 231.25 188.7 229.65 189.05 228.85 189.15 228.1 189.3 226.25 189.45 Q223.7 189.45 221.6 188.5 219.85 187.65 218.4 186.2 L217.6 185.35 216.3 183.4 Q215.65 182.1 215.35 180.65 L215.15 178.35 215.25 176.9 215.35 176.25 Q215.9 173.0 218.4 170.55 220.1 168.8 222.25 168.0 L222.65 168.25 Q221.2 169.0 219.95 170.3 217.05 173.15 216.75 177.1 L216.7 177.75 216.7 178.15 216.8 179.7 Q216.95 181.0 217.45 182.25 217.9 183.4 218.7 184.5 L219.95 185.95 Q221.15 187.15 222.55 187.95 224.9 189.2 227.8 189.2 L228.2 189.2 228.85 189.15 M223.85 167.75 Q224.5 167.5 225.2 167.35 M229.65 172.65 L228.75 172.6 Q226.45 172.6 224.8 174.2 223.2 175.85 223.2 178.15 223.2 180.4 224.8 182.05 226.45 183.65 228.75 183.7 L229.65 183.6 Q231.35 183.35 232.65 182.05 234.3 180.4 234.3 178.15 234.3 175.85 232.65 174.2 231.35 172.9 229.65 172.65 M223.6 167.6 L222.25 168.0 M223.85 167.75 L222.65 168.25" fill="none" stroke="#000000" stroke-linecap="round" stroke-linejoin="round" stroke-width="1.0"/>
    <path d="M182.6 153.4 Q207.5 157.8 223.6 167.6 L223.85 167.75 M227.85 167.05 Q230.85 160.55 232.55 152.95 M240.45 154.55 Q240.5 158.65 240.1 162.45 239.45 168.2 237.8 173.25 M238.75 180.1 L240.3 182.0 Q240.0 188.5 236.5 195.05 234.2 191.7 231.25 188.7 M228.1 189.3 Q220.55 197.1 208.4 201.8 M198.8 195.35 Q205.75 192.05 211.4 187.7 L216.3 183.4 M215.25 176.9 Q196.8 166.75 166.4 161.0" fill="none" stroke="#000000" stroke-linecap="round" stroke-linejoin="round" stroke-width="1.0"/>
    <path d="M231.25 188.7 L229.65 189.05 229.65 183.6 Q231.35 183.35 232.65 182.05 L232.65 188.1 232.45 188.25 231.25 188.7 M232.65 174.2 Q231.35 172.9 229.65 172.65 L229.65 167.2 231.2 167.55 232.65 168.15 232.65 174.2 M229.65 178.1 Q227.45 177.35 228.05 174.7 L225.65 174.7 Q227.95 173.6 229.65 173.9 231.6 174.15 232.65 176.3 L233.05 177.15 Q233.55 178.8 232.65 180.2 L231.4 181.6 Q232.3 178.9 232.05 178.35 L229.65 178.1" fill="#ffffff" fill-opacity="0.2509804" fill-rule="evenodd" stroke="none"/>
    <path d="M228.85 189.15 L228.1 189.3 226.25 189.45 Q223.7 189.45 221.6 188.5 219.85 187.65 218.4 186.2 L217.6 185.35 216.3 183.4 Q215.65 182.1 215.35 180.65 L215.15 178.35 215.25 176.9 215.35 176.25 Q215.9 173.0 218.4 170.55 220.1 168.8 222.25 168.0 L222.65 168.25 Q221.2 169.0 219.95 170.3 217.05 173.15 216.75 177.1 L216.7 177.75 216.7 178.15 216.8 179.7 Q216.95 181.0 217.45 182.25 217.9 183.4 218.7 184.5 L219.95 185.95 Q221.15 187.15 222.55 187.95 224.9 189.2 227.8 189.2 L228.2 189.2 228.85 189.15 M229.65 182.25 Q223.4 182.6 224.5 176.55 225.75 181.2 229.65 182.25" fill="#000000" fill-opacity="0.2509804" fill-rule="evenodd" stroke="none"/>
    <path d="M166.4 161.0 Q175.5 157.3 182.6 153.4 M232.55 152.95 L240.45 154.45 240.45 154.55 M208.4 201.8 Q203.3 198.65 198.8 195.35" fill="none" stroke="#000000" stroke-linecap="round" stroke-linejoin="round" stroke-width="2.0"/>
    <path d="M223.6 167.6 L225.2 167.35 227.8 167.05 227.85 167.05 229.65 167.2 231.2 167.55 232.65 168.15 Q234.25 168.9 235.6 170.3 237.0 171.65 237.8 173.25 L238.45 175.0 Q238.9 176.45 238.9 178.15 L238.75 180.1 238.7 180.35 Q238.05 183.5 235.6 185.95 234.25 187.3 232.65 188.1 L232.45 188.25 231.25 188.7 229.65 189.05 228.85 189.15 228.1 189.3 226.25 189.45 Q223.7 189.45 221.6 188.5 219.85 187.65 218.4 186.2 L217.6 185.35 216.3 183.4 Q215.65 182.1 215.35 180.65 L215.15 178.35 215.25 176.9 215.35 176.25 Q215.9 173.0 218.4 170.55 220.1 168.8 222.25 168.0 L222.65 168.25 Q221.2 169.0 219.95 170.3 217.05 173.15 216.75 177.1 L216.7 177.75 216.7 178.15 216.8 179.7 Q216.95 181.0 217.45 182.25 217.9 183.4 218.7 184.5 L219.95 185.95 Q221.15 187.15 222.55 187.95 224.9 189.2 227.8 189.2 L228.2 189.2 228.85 189.15 M223.85 167.75 Q224.5 167.5 225.2 167.35 M229.65 172.65 L228.75 172.6 Q226.45 172.6 224.8 174.2 223.2 175.85 223.2 178.15 223.2 180.4 224.8 182.05 226.45 183.65 228.75 183.7 L229.65 183.6 Q231.35 183.35 232.65 182.05 234.3 180.4 234.3 178.15 234.3 175.85 232.65 174.2 231.35 172.9 229.65 172.65 M223.6 167.6 L222.25 168.0 M223.85 167.75 L222.65 168.25" fill="none" stroke="#000000" stroke-linecap="round" stroke-linejoin="round" stroke-width="1.0"/>
    <path d="M182.6 153.4 Q207.5 157.8 223.6 167.6 L223.85 167.75 M227.85 167.05 Q230.85 160.55 232.55 152.95 M240.45 154.55 Q240.5 158.65 240.1 162.45 239.45 168.2 237.8 173.25 M238.75 180.1 L240.3 182.0 Q240.0 188.5 236.5 195.05 234.2 191.7 231.25 188.7 M228.1 189.3 Q220.55 197.1 208.4 201.8 M198.8 195.35 Q205.75 192.05 211.4 187.7 L216.3 183.4 M215.25 176.9 Q196.8 166.75 166.4 161.0" fill="none" stroke="#000000" stroke-linecap="round" stroke-linejoin="round" stroke-width="1.0"/>
  </g>
</svg>
