<?xml version="1.0" encoding="UTF-8" standalone="no"?>
<svg xmlns:xlink="http://www.w3.org/1999/xlink" height="25.65px" width="52.3px" xmlns="http://www.w3.org/2000/svg">
  <g transform="matrix(1.0, 0.0, 0.0, 1.0, -194.3, -205.7)">
    <path d="M246.6 222.7 Q246.55 224.05 244.55 224.2 L241.2 224.15 Q238.5 223.9 238.8 220.05 L238.7 213.15 Q234.5 216.8 215.45 213.7 L214.65 227.6 Q214.25 229.5 213.2 230.5 212.3 230.95 211.4 231.35 L202.45 230.65 Q201.3 230.5 200.65 229.85 199.7 228.9 199.8 226.95 L196.35 226.3 194.3 224.6 195.4 213.55 Q195.55 211.4 197.75 211.05 L201.75 211.05 203.0 209.9 207.85 209.35 Q208.6 207.5 208.8 205.7 L212.2 206.35 215.85 207.0 Q233.85 209.9 237.1 206.4 L237.65 208.35 237.85 208.9 238.75 210.85 Q239.1 209.6 240.75 209.5 245.15 210.25 245.95 213.65 L245.8 216.45 246.6 222.7" fill="#000000" fill-rule="evenodd" stroke="none"/>
  </g>
</svg>
