<?xml version="1.0" encoding="UTF-8" standalone="no"?>
<svg xmlns:xlink="http://www.w3.org/1999/xlink" height="56.0px" width="61.55px" xmlns="http://www.w3.org/2000/svg">
  <g transform="matrix(1.0, 0.0, 0.0, 1.0, -175.65, -65.85)">
    <path d="M187.45 66.9 L187.45 65.85 188.0 66.9 Q189.1 69.2 189.3 71.45 189.7 76.05 186.25 80.2 181.05 84.95 185.45 89.45 188.05 91.05 191.35 91.95 192.7 90.05 194.25 89.9 L195.6 90.0 196.05 90.2 196.6 90.5 196.95 90.7 196.95 90.75 197.15 90.85 197.7 90.4 Q199.8 89.6 201.9 89.2 L201.8 87.75 201.85 87.75 204.0 87.15 Q204.65 84.95 207.3 85.1 209.8 85.3 209.9 86.9 L212.9 87.55 212.95 89.2 Q214.75 89.6 216.55 90.3 L217.45 90.65 Q220.1 91.7 222.0 93.35 224.95 92.45 227.35 90.95 231.75 86.5 226.6 81.75 223.05 77.6 223.5 73.0 223.65 70.75 224.8 68.45 L225.35 67.35 225.3 68.45 Q225.15 75.9 230.7 78.3 234.1 79.6 235.75 82.25 237.7 85.5 237.0 90.75 236.25 93.35 234.75 95.5 231.95 99.35 226.45 101.55 L227.15 101.45 227.35 106.7 226.0 107.0 225.3 107.1 224.3 107.3 221.75 107.7 221.15 107.75 218.6 108.05 218.05 111.5 219.2 121.15 Q217.55 122.5 213.5 121.2 L213.7 111.9 212.4 108.25 199.65 107.6 199.6 107.65 194.45 107.05 194.35 107.05 190.95 106.55 189.75 106.35 187.7 106.05 188.05 101.4 187.95 101.1 187.75 100.6 187.8 100.55 187.75 100.55 186.65 100.1 Q180.95 97.9 178.1 93.95 176.55 91.8 175.85 89.2 174.95 83.0 177.85 79.65 179.8 77.65 182.1 76.75 187.6 74.35 187.45 66.9 M198.45 97.6 L198.4 97.7 198.6 97.7 198.6 97.65 198.45 97.6" fill="#000000" fill-rule="evenodd" stroke="none"/>
  </g>
</svg>
