<?xml version="1.0" encoding="UTF-8" standalone="no"?>
<svg xmlns:xlink="http://www.w3.org/1999/xlink" height="84.7px" width="63.95px" xmlns="http://www.w3.org/2000/svg">
  <g transform="matrix(1.0, 0.0, 0.0, 1.0, -185.4, -60.35)">
    <path d="M249.35 66.8 Q236.4 75.45 225.9 89.2 224.1 92.1 223.35 95.25 L222.0 97.0 Q226.95 101.35 226.6 108.35 L226.6 121.25 228.45 131.15 Q226.5 136.55 224.6 139.95 222.65 143.5 220.75 144.95 L220.75 120.5 Q222.3 120.15 223.35 119.25 226.8 116.2 225.8 106.45 224.5 108.35 222.75 109.5 221.4 110.4 219.85 110.85 L217.95 111.25 Q208.6 110.6 201.55 107.4 199.1 106.3 196.95 104.9 194.1 120.5 213.2 120.85 L212.55 145.05 Q202.25 141.15 196.95 135.6 L194.45 132.55 193.35 130.75 189.75 128.1 191.5 122.15 187.65 127.55 185.4 125.2 188.9 118.65 Q188.5 113.95 189.5 107.4 188.35 103.75 189.0 100.65 190.05 93.0 193.0 86.3 L193.65 84.8 195.7 80.95 197.5 83.6 197.5 78.15 Q200.45 73.75 204.45 69.85 L204.8 69.55 206.45 68.1 Q208.65 66.25 211.1 64.9 L212.0 68.3 213.1 63.8 Q214.0 63.4 214.9 62.95 L215.75 66.6 216.9 62.2 219.4 61.45 222.5 60.8 226.3 60.35 234.4 60.65 234.45 60.6 238.85 61.7 239.3 61.85 241.55 62.6 240.25 66.5 243.8 63.55 Q246.85 64.95 249.35 66.8" fill="#000000" fill-rule="evenodd" stroke="none"/>
  </g>
</svg>
