<?xml version="1.0" encoding="UTF-8" standalone="no"?>
<svg xmlns:xlink="http://www.w3.org/1999/xlink" height="27.8px" width="40.2px" xmlns="http://www.w3.org/2000/svg">
  <g transform="matrix(1.0, 0.0, 0.0, 1.0, -186.85, -76.05)">
    <path d="M191.05 98.7 Q187.1 91.3 188.0 84.4 193.8 88.6 198.2 90.6 199.2 87.65 200.8 84.6 L200.8 84.55 Q204.2 88.25 208.9 91.0 214.85 84.25 216.2 77.05 L222.5 91.4 225.55 85.6 Q226.9 93.85 224.6 99.8 L222.25 99.85 Q220.5 100.05 218.8 101.0 217.15 101.85 215.5 103.35 211.0 100.1 204.5 98.85 L200.45 98.3 191.05 98.7 M213.8 92.75 L216.2 98.3 219.6 92.85 217.2 86.9 213.8 92.75" fill="url(#gradient0)" fill-rule="evenodd" stroke="none"/>
    <path d="M224.6 99.8 L222.25 99.85 Q220.5 100.05 218.8 101.0 217.15 101.85 215.5 103.35 211.0 100.1 204.5 98.85 L200.45 98.3 191.05 98.7 M213.8 92.75 L216.2 98.3 219.6 92.85 217.2 86.9 213.8 92.75" fill="none" stroke="#000000" stroke-linecap="round" stroke-linejoin="round" stroke-width="1.0"/>
    <path d="M191.05 98.7 Q187.1 91.3 188.0 84.4 193.8 88.6 198.2 90.6 199.2 87.65 200.8 84.6 L200.8 84.55 Q204.2 88.25 208.9 91.0 214.85 84.25 216.2 77.05 L222.5 91.4 225.55 85.6 Q226.9 93.85 224.6 99.8" fill="none" stroke="#000000" stroke-linecap="round" stroke-linejoin="round" stroke-width="2.0"/>
    <path d="M218.9 83.25 L222.5 91.4 222.6 91.4 222.25 99.85 Q220.5 100.05 218.8 101.0 L219.15 93.6 219.6 92.85 219.2 91.8 218.9 83.25" fill="#ffffff" fill-opacity="0.2509804" fill-rule="evenodd" stroke="none"/>
    <path d="M224.6 99.8 L222.25 99.85 Q220.5 100.05 218.8 101.0 217.15 101.85 215.5 103.35 211.0 100.1 204.5 98.85 L200.45 98.3 191.05 98.7 M219.15 93.6 L219.6 92.85 219.2 91.8 217.2 86.9 213.8 92.75 216.2 98.3 219.15 93.6" fill="none" stroke="#000000" stroke-linecap="round" stroke-linejoin="round" stroke-width="1.0"/>
    <path d="M191.05 98.7 Q187.1 91.3 188.0 84.4 193.8 88.6 198.2 90.6 199.2 87.65 200.8 84.6 L200.8 84.55 Q204.2 88.25 208.9 91.0 214.85 84.25 216.2 77.05 L218.9 83.25 222.5 91.4 225.55 85.6 Q226.9 93.85 224.6 99.8" fill="none" stroke="#000000" stroke-linecap="round" stroke-linejoin="round" stroke-width="2.0"/>
  </g>
  <defs>
    <linearGradient gradientTransform="matrix(0.0195, 0.0, 0.0, 0.0161, 208.15, 90.2)" gradientUnits="userSpaceOnUse" id="gradient0" spreadMethod="pad" x1="-819.2" x2="819.2">
      <stop offset="0.0" stop-color="#000000" stop-opacity="0.0"/>
      <stop offset="1.0" stop-color="#000000" stop-opacity="0.2509804"/>
    </linearGradient>
  </defs>
</svg>
