<?xml version="1.0" encoding="UTF-8" standalone="no"?>
<svg xmlns:xlink="http://www.w3.org/1999/xlink" height="20.2px" width="34.65px" xmlns="http://www.w3.org/2000/svg">
  <g transform="matrix(1.0, 0.0, 0.0, 1.0, -193.95, -103.05)">
    <path d="M212.35 113.85 Q205.65 110.75 199.0 110.25 200.2 115.15 205.35 118.6 209.3 117.5 212.35 113.85 M227.85 103.55 Q229.3 114.85 222.05 122.45 218.0 119.4 215.45 115.5 210.5 120.2 204.65 122.75 194.4 114.45 194.45 103.8 204.6 105.5 214.5 112.05 L227.85 103.55 M217.3 113.9 Q218.85 116.95 221.75 118.95 225.7 115.15 225.55 109.1 221.0 110.85 217.3 113.9 Z" fill="none" stroke="#000000" stroke-linecap="round" stroke-linejoin="round" stroke-width="1.0"/>
  </g>
</svg>
