<?xml version="1.0" encoding="UTF-8" standalone="no"?>
<svg xmlns:xlink="http://www.w3.org/1999/xlink" height="44.1px" width="50.35px" xmlns="http://www.w3.org/2000/svg">
  <g transform="matrix(1.0, 0.0, 0.0, 1.0, -149.15, -146.5)">
    <path d="M164.85 187.25 L160.4 189.6 Q158.6 186.75 158.3 183.6 L156.55 184.6 Q153.25 180.75 153.05 176.9 151.85 177.55 150.65 178.3 147.45 157.15 164.45 150.5 167.9 149.15 172.25 148.4 L181.3 147.5 184.6 151.3 Q190.75 157.9 199.0 163.1 L195.7 169.9 194.2 169.5 190.9 176.85 189.55 176.75 188.85 183.15 186.35 183.15 186.35 188.55 164.85 187.25 172.45 183.15 186.35 183.15 172.45 183.15 164.85 187.25 M189.55 176.75 L172.25 175.55 158.3 183.6 172.25 175.55 189.55 176.75 M153.05 176.9 L156.35 175.05 157.65 174.35 Q159.65 173.2 161.7 172.2 162.35 171.8 163.1 171.5 167.6 169.2 172.15 167.2 184.15 166.95 194.2 169.5 184.15 166.95 172.15 167.2 167.6 169.2 163.1 171.5 162.35 171.8 161.7 172.2 159.65 173.2 157.65 174.35 L156.35 175.05 153.05 176.9" fill="url(#gradient0)" fill-rule="evenodd" stroke="none"/>
    <path d="M184.6 151.3 Q190.75 157.9 199.0 163.1 L195.7 169.9 194.2 169.5 190.9 176.85 189.55 176.75 188.85 183.15 186.35 183.15 186.35 188.55 164.85 187.25 172.45 183.15 186.35 183.15 M194.2 169.5 Q184.15 166.95 172.15 167.2 167.6 169.2 163.1 171.5 162.35 171.8 161.7 172.2 159.65 173.2 157.65 174.35 L156.35 175.05 153.05 176.9 M158.3 183.6 L172.25 175.55 189.55 176.75" fill="none" stroke="#000000" stroke-linecap="round" stroke-linejoin="round" stroke-width="1.0"/>
    <path d="M164.85 187.25 L160.4 189.6 Q158.6 186.75 158.3 183.6 L156.55 184.6 Q153.25 180.75 153.05 176.9 151.85 177.55 150.65 178.3 147.45 157.15 164.45 150.5 167.9 149.15 172.25 148.4 L181.3 147.5 184.6 151.3" fill="none" stroke="#000000" stroke-linecap="round" stroke-linejoin="round" stroke-width="2.0"/>
    <path d="M172.25 148.4 Q157.55 157.45 161.7 172.2 162.35 171.8 163.1 171.5 L166.05 179.15 167.4 178.35 170.2 184.35 168.65 185.2 169.9 187.55 164.85 187.25 161.95 181.5 166.05 179.15 161.95 181.5 160.75 182.15 157.65 174.35 156.35 175.05 Q152.85 160.8 164.45 150.5 167.9 149.15 172.25 148.4 M168.65 185.2 L164.85 187.25 168.65 185.2 M161.7 172.2 Q159.65 173.2 157.65 174.35 159.65 173.2 161.7 172.2" fill="#ffffff" fill-opacity="0.2509804" fill-rule="evenodd" stroke="none"/>
    <path d="M161.7 172.2 Q162.35 171.8 163.1 171.5 167.6 169.2 172.15 167.2 184.15 166.95 194.2 169.5 L195.7 169.9 199.0 163.1 Q190.75 157.9 184.6 151.3 M170.2 184.35 L172.45 183.15 186.35 183.15 188.85 183.15 189.55 176.75 172.25 175.55 167.4 178.35 166.05 179.15 161.95 181.5 160.75 182.15 158.3 183.6 M170.2 184.35 L168.65 185.2 164.85 187.25 169.9 187.55 186.35 188.55 186.35 183.15 M189.55 176.75 L190.9 176.85 194.2 169.5 M156.35 175.05 L157.65 174.35 Q159.65 173.2 161.7 172.2 M153.05 176.9 L156.35 175.05" fill="none" stroke="#000000" stroke-linecap="round" stroke-linejoin="round" stroke-width="1.0"/>
    <path d="M184.6 151.3 L181.3 147.5 172.25 148.4 Q167.9 149.15 164.45 150.5 147.45 157.15 150.65 178.3 151.85 177.55 153.05 176.9 153.25 180.75 156.55 184.6 L158.3 183.6 Q158.6 186.75 160.4 189.6 L164.85 187.25" fill="none" stroke="#000000" stroke-linecap="round" stroke-linejoin="round" stroke-width="2.0"/>
  </g>
  <defs>
    <linearGradient gradientTransform="matrix(-0.0221, 0.0, 0.0, -0.0151, 173.55, 159.85)" gradientUnits="userSpaceOnUse" id="gradient0" spreadMethod="pad" x1="-819.2" x2="819.2">
      <stop offset="0.0" stop-color="#000000" stop-opacity="0.0"/>
      <stop offset="1.0" stop-color="#000000" stop-opacity="0.2509804"/>
    </linearGradient>
  </defs>
</svg>
