<?xml version="1.0" encoding="UTF-8" standalone="no"?>
<svg xmlns:xlink="http://www.w3.org/1999/xlink" height="31.85px" width="55.55px" xmlns="http://www.w3.org/2000/svg">
  <g transform="matrix(1.0, 0.0, 0.0, 1.0, -159.3, -271.0)">
    <path d="M159.45 273.7 Q159.65 273.2 160.25 272.85 L162.1 273.5 162.95 271.1 Q163.95 270.7 164.45 271.65 L164.2 272.4 168.85 274.1 166.8 279.7 162.15 278.0 Q157.2 291.1 178.75 298.95 L183.9 300.85 Q190.0 302.5 192.55 296.4 L192.65 296.25 194.5 291.15 191.7 290.1 194.6 282.1 197.4 283.15 198.65 279.65 Q201.5 271.6 209.4 273.8 L214.7 275.75 Q215.2 276.7 214.15 277.2 L208.95 275.3 Q202.6 273.6 200.15 280.2 L194.2 296.6 Q191.3 304.55 183.5 302.35 L178.2 300.45 Q155.25 292.65 160.55 277.8 L161.3 275.65 159.45 274.95 Q159.2 274.25 159.45 273.7" fill="#000000" fill-rule="evenodd" stroke="none"/>
  </g>
</svg>
