<?xml version="1.0" encoding="UTF-8" standalone="no"?>
<svg xmlns:xlink="http://www.w3.org/1999/xlink" height="67.85px" width="211.0px" xmlns="http://www.w3.org/2000/svg">
  <g transform="matrix(1.0, 0.0, 0.0, 1.0, -151.95, -271.45)">
    <path d="M350.9 331.55 L352.8 331.85 361.95 333.0 Q343.15 342.25 320.25 335.35 L316.2 334.15 312.25 332.9 311.8 332.8 311.6 332.7 300.45 329.1 284.7 323.75 283.1 323.2 277.05 321.0 266.0 316.95 250.2 310.85 243.15 308.05 241.35 307.35 203.15 292.65 Q205.05 291.05 206.55 291.5 L241.1 304.6 245.45 306.35 252.65 309.15 268.65 315.25 280.05 319.45 Q281.45 319.9 282.85 320.45 L284.4 321.0 302.8 327.25 311.35 329.95 312.0 330.15 314.5 330.95 316.8 331.6 322.1 332.9 Q339.2 336.25 350.9 331.55 M250.0 302.9 L257.75 305.65 256.25 306.65 273.15 312.45 285.6 316.5 273.15 312.45 274.75 311.45 287.4 315.5 285.6 316.5 307.5 323.05 307.85 323.15 313.75 324.8 Q315.1 325.15 315.2 325.8 315.05 326.4 313.3 326.05 L307.05 324.35 306.55 324.2 Q295.85 321.15 283.9 317.35 L271.65 313.4 254.9 307.65 247.3 304.95 246.35 304.6 229.4 298.15 Q228.4 297.8 228.55 297.15 228.85 296.55 229.85 296.9 L246.8 303.3 248.6 303.95 256.25 306.65 248.6 303.95 250.0 302.9" fill="#ffffff" fill-opacity="0.2509804" fill-rule="evenodd" stroke="none"/>
    <path d="M161.45 281.2 Q157.85 281.1 154.55 283.5 153.05 280.75 152.95 277.8 157.15 277.75 161.15 278.0 161.15 276.1 161.4 274.1 175.65 274.25 194.0 281.65 192.9 283.25 192.2 285.3 178.55 279.05 161.15 278.0 L161.45 281.2" fill="#000000" fill-opacity="0.2509804" fill-rule="evenodd" stroke="none"/>
    <path d="M191.4 288.5 Q177.05 283.15 161.45 281.2 L161.15 278.0 Q178.55 279.05 192.2 285.3 L191.4 288.5" fill="#000000" fill-opacity="0.5019608" fill-rule="evenodd" stroke="none"/>
    <path d="M203.15 292.65 L196.7 290.15 195.6 289.75 Q196.3 286.4 197.95 283.25 L199.0 283.6 247.6 302.05 250.0 302.9 248.6 303.95 246.8 303.3 229.85 296.9 Q228.85 296.55 228.55 297.15 228.4 297.8 229.4 298.15 L246.35 304.6 247.3 304.95 254.9 307.65 271.65 313.4 283.9 317.35 Q295.85 321.15 306.55 324.2 L307.05 324.35 313.3 326.05 Q315.05 326.4 315.2 325.8 315.1 325.15 313.75 324.8 L307.85 323.15 307.5 323.05 285.6 316.5 287.4 315.5 Q298.35 318.95 308.3 321.8 L309.25 322.05 314.55 323.5 322.4 325.55 Q338.2 329.5 350.9 331.55 339.2 336.25 322.1 332.9 L316.8 331.6 314.5 330.95 312.0 330.15 311.35 329.95 302.8 327.25 284.4 321.0 282.85 320.45 Q281.45 319.9 280.05 319.45 L268.65 315.25 252.65 309.15 245.45 306.35 241.1 304.6 206.55 291.5 Q205.05 291.05 203.15 292.65 M257.75 305.65 L274.75 311.45 273.15 312.45 256.25 306.65 257.75 305.65" fill="url(#gradient0)" fill-rule="evenodd" stroke="none"/>
    <path d="M350.9 331.55 L352.8 331.85 361.95 333.0 Q343.15 342.25 320.25 335.35 L316.2 334.15 312.25 332.9 311.8 332.8 311.6 332.7 300.45 329.1 284.7 323.75 283.1 323.2 277.05 321.0 266.0 316.95 250.2 310.85 243.15 308.05 241.35 307.35 203.15 292.65 196.7 290.15 195.0 293.85 194.6 294.55 Q193.8 295.8 193.15 295.65 L193.05 295.65 192.15 295.3 Q191.3 294.7 191.9 291.4 L191.9 291.25 192.1 290.4 192.15 290.2 192.3 289.75 192.5 289.0 191.4 288.5 M161.45 281.2 Q157.85 281.1 154.55 283.5 153.05 280.75 152.95 277.8 152.85 275.2 153.8 272.45 158.65 274.1 161.4 274.1 M194.0 281.65 L195.1 282.0 195.3 281.6 195.4 281.4 195.8 280.6 Q197.55 277.55 198.6 277.7 L199.55 278.05 199.6 278.1 Q200.15 278.4 199.95 279.85 L199.8 280.65 199.0 283.6 247.6 302.05 250.0 302.9 257.75 305.65 274.75 311.45 287.4 315.5 Q298.35 318.95 308.3 321.8 L309.25 322.05 314.55 323.5 322.4 325.55 Q338.2 329.5 350.9 331.55" fill="none" stroke="#000000" stroke-linecap="round" stroke-linejoin="round" stroke-width="2.0"/>
    <path d="M161.4 274.1 Q161.15 276.1 161.15 278.0 L161.45 281.2 M192.2 285.3 Q192.9 283.25 194.0 281.65 M192.5 289.0 L193.5 285.95 194.6 283.2 194.7 282.9 195.1 282.05 195.1 282.0 M196.7 290.15 L195.6 289.75 Q196.3 286.4 197.95 283.25 L199.0 283.6 M192.2 285.3 L191.4 288.5" fill="none" stroke="#000000" stroke-linecap="round" stroke-linejoin="round" stroke-width="1.0"/>
    <path d="M199.6 278.1 Q198.5 278.0 196.8 281.0 L196.4 281.75 196.3 281.95 196.15 282.4 195.75 283.25 195.6 283.55 Q194.15 286.8 193.3 290.1 L193.15 290.6 193.15 290.75 192.9 291.65 192.9 291.8 Q192.3 295.05 193.15 295.65" fill="none" stroke="#000000" stroke-linecap="round" stroke-linejoin="round" stroke-width="0.5"/>
    <path d="M350.9 331.55 Q339.2 336.25 322.1 332.9 L316.8 331.6 314.5 330.95 312.0 330.15 311.35 329.95 302.8 327.25 284.4 321.0 282.85 320.45 Q281.45 319.9 280.05 319.45 L268.65 315.25 252.65 309.15 245.45 306.35 241.1 304.6 206.55 291.5 Q205.05 291.05 203.15 292.65 M248.6 303.95 L246.8 303.3 229.85 296.9 Q228.85 296.55 228.55 297.15 228.4 297.8 229.4 298.15 L246.35 304.6 247.3 304.95 254.9 307.65 271.65 313.4 283.9 317.35 Q295.85 321.15 306.55 324.2 L307.05 324.35 313.3 326.05 Q315.05 326.4 315.2 325.8 315.1 325.15 313.75 324.8 L307.85 323.15 307.5 323.05 285.6 316.5 273.15 312.45 256.25 306.65 248.6 303.95 Z" fill="none" stroke="#000000" stroke-linecap="round" stroke-linejoin="round" stroke-opacity="0.2509804" stroke-width="0.5"/>
    <path d="M191.4 288.5 Q177.05 283.15 161.45 281.2 M161.4 274.1 Q175.65 274.25 194.0 281.65" fill="none" stroke="#000000" stroke-linecap="round" stroke-linejoin="round" stroke-width="2.0"/>
  </g>
  <defs>
    <linearGradient gradientTransform="matrix(-0.0018, 0.0052, -0.0905, -0.0308, 269.6, 313.45)" gradientUnits="userSpaceOnUse" id="gradient0" spreadMethod="pad" x1="-819.2" x2="819.2">
      <stop offset="0.0" stop-color="#000000" stop-opacity="0.0"/>
      <stop offset="1.0" stop-color="#000000" stop-opacity="0.2509804"/>
    </linearGradient>
  </defs>
</svg>
