<?xml version="1.0" encoding="UTF-8" standalone="no"?>
<svg xmlns:xlink="http://www.w3.org/1999/xlink" height="87.0px" width="244.15px" xmlns="http://www.w3.org/2000/svg">
  <g transform="matrix(1.0, 0.0, 0.0, 1.0, -154.35, -266.85)">
    <path d="M365.45 344.25 Q367.7 344.7 370.1 343.05 372.8 341.65 375.4 341.65 377.9 341.65 380.35 342.9 L381.85 343.8 384.6 345.85 386.4 346.5 388.5 346.85 389.95 346.75 Q394.1 347.25 398.5 350.4 393.7 349.35 389.25 350.3 385.95 351.85 383.15 351.65 L382.05 351.45 379.7 350.85 Q376.2 350.35 373.65 352.4 371.25 354.5 367.2 353.6 L363.45 352.25 362.55 351.8 Q360.0 350.65 357.75 350.5 355.45 350.3 353.45 351.15 L351.4 351.6 346.35 351.2 Q343.95 350.55 341.4 349.15 339.4 348.05 337.45 347.5 333.95 346.4 330.75 346.95 323.05 348.25 319.65 344.6 316.8 341.25 312.9 340.85 L309.6 341.0 Q305.3 341.0 301.75 339.0 L298.95 337.1 Q295.3 333.65 290.7 334.1 L286.4 333.85 Q283.45 333.4 280.75 332.1 278.05 330.75 275.65 328.6 272.1 326.15 268.05 325.3 L265.25 324.85 Q259.75 324.55 254.55 320.65 251.9 318.7 249.35 315.85 245.4 313.0 240.6 312.65 233.3 312.0 226.65 308.85 223.65 307.4 220.75 305.45 L217.0 303.1 Q207.55 297.55 198.45 296.4 196.1 299.85 194.4 304.2 200.75 303.8 198.55 310.75 196.0 315.55 190.8 311.65 189.1 308.5 190.55 305.65 181.15 309.45 174.45 303.1 172.8 293.7 163.0 289.95 160.25 290.9 158.1 289.9 157.1 289.45 156.25 288.65 151.8 283.8 157.9 279.15 157.35 275.2 160.75 271.35 L161.15 270.75 162.1 269.2 Q165.3 265.4 171.1 267.8 171.75 270.4 174.95 272.8 L173.65 281.05 173.4 280.7 Q167.55 277.8 163.35 280.55 166.5 282.85 165.2 286.35 174.3 290.75 176.35 301.15 182.7 307.4 190.55 301.15 194.05 295.95 192.75 291.25 192.7 289.2 192.8 287.15 L193.2 281.35 Q198.15 282.1 201.35 277.05 206.5 266.2 209.75 267.1 215.45 268.65 212.8 275.0 209.95 279.25 206.7 276.3 206.05 277.55 205.55 279.2 220.3 290.6 236.45 295.95 L240.55 297.2 Q245.0 297.85 249.5 300.35 252.7 302.1 255.85 304.85 260.25 310.75 267.45 312.25 271.05 312.2 274.55 313.5 277.3 314.5 280.0 316.4 L281.1 317.2 Q285.25 322.1 291.55 322.15 296.2 322.25 300.3 324.6 L302.6 326.15 Q303.75 327.1 305.05 327.85 308.4 329.65 312.7 329.85 317.75 328.9 322.0 332.4 L323.4 333.7 Q324.65 335.1 326.3 335.85 328.7 337.05 331.95 336.85 337.1 335.75 342.25 339.45 344.35 341.4 346.95 342.0 L352.9 341.7 360.25 341.95 Q361.55 342.4 362.9 343.2 364.15 344.05 365.45 344.25" fill="#000000" fill-rule="evenodd" stroke="none"/>
  </g>
</svg>
