<?xml version="1.0" encoding="UTF-8" standalone="no"?>
<svg xmlns:xlink="http://www.w3.org/1999/xlink" height="57.0px" width="82.35px" xmlns="http://www.w3.org/2000/svg">
  <g transform="matrix(1.0, 0.0, 0.0, 1.0, -136.5, -260.35)">
    <path d="M216.45 266.45 Q217.2 266.5 218.15 268.2 219.15 270.35 218.75 271.0 215.6 271.5 212.3 273.05 L211.1 270.25 Q214.1 268.9 216.45 266.45 M199.7 283.9 L199.8 284.85 200.5 289.35 197.05 292.4 196.35 293.05 Q196.7 295.25 196.25 297.6 L196.25 297.65 Q197.5 301.25 196.75 304.4 L196.65 304.7 197.9 306.4 198.5 308.55 195.95 309.85 Q194.65 307.85 194.4 305.8 L194.0 304.95 Q192.2 301.2 192.85 298.35 192.75 295.95 193.8 291.35 L194.85 287.3 196.65 283.55 Q198.8 279.3 200.45 277.55 201.75 274.95 205.55 273.2 L206.4 272.85 Q207.9 271.45 210.15 270.75 L211.3 273.4 Q210.45 274.2 209.45 274.65 L207.4 275.15 207.3 275.4 Q205.85 278.3 202.55 280.3 201.4 282.4 199.7 283.9 M174.5 275.45 L173.25 283.75 Q171.85 284.15 171.35 283.1 L169.1 282.25 168.6 282.05 Q167.55 282.55 167.05 281.55 L167.1 281.5 167.05 281.5 163.85 280.2 166.55 272.75 166.95 272.9 169.85 273.9 Q170.9 273.35 171.4 274.4 L174.5 275.45 M136.75 266.15 L137.25 265.4 Q139.15 262.3 143.45 260.35 L138.1 274.95 Q136.1 270.7 136.6 267.1 L136.75 266.15 M154.4 268.35 L157.45 269.45 154.7 276.95 151.65 275.8 Q148.05 274.35 141.85 274.75 L146.15 262.85 Q150.65 267.15 154.4 268.35 M159.65 270.25 L160.05 270.4 Q161.9 271.05 162.1 271.45 L164.95 272.3 162.3 279.6 159.55 278.4 Q159.15 278.6 157.3 277.9 L156.95 277.75 159.65 270.25 M199.05 309.45 Q200.6 312.7 202.7 315.15 202.55 315.9 200.35 316.9 198.55 317.6 198.0 317.15 197.75 313.75 196.35 310.8 L199.05 309.45" fill="#000000" fill-rule="evenodd" stroke="none"/>
  </g>
</svg>
