<?xml version="1.0" encoding="UTF-8" standalone="no"?>
<svg xmlns:xlink="http://www.w3.org/1999/xlink" height="82.0px" width="117.75px" xmlns="http://www.w3.org/2000/svg">
  <g transform="matrix(1.0, 0.0, 0.0, 1.0, -133.4, -263.35)">
    <path d="M193.25 280.8 L193.45 281.15 Q195.35 280.8 196.25 282.15 197.95 281.8 199.45 283.3 L222.7 291.65 Q226.05 292.8 228.3 292.45 228.8 290.8 230.2 292.15 L230.25 292.2 Q235.0 295.35 241.4 296.35 243.15 293.2 245.6 296.4 246.05 298.2 246.1 300.15 249.15 301.55 248.6 305.9 248.0 309.05 244.4 309.45 L243.25 312.35 Q241.2 318.8 243.45 320.9 246.7 323.2 249.15 320.05 245.95 337.1 251.15 345.35 L245.3 345.25 237.45 344.7 229.85 343.7 226.3 343.0 Q220.6 341.85 215.35 340.1 L211.95 338.9 Q208.7 337.65 205.6 336.2 L198.95 332.65 Q194.95 330.3 191.25 327.55 186.05 323.7 181.45 319.0 175.15 312.6 169.85 304.6 176.65 309.2 184.45 304.5 186.5 301.2 188.0 302.1 189.85 303.6 187.7 304.7 188.9 306.2 190.65 304.95 201.25 317.45 214.35 318.2 224.75 316.75 226.35 309.95 226.05 305.05 220.1 302.6 L206.95 297.7 Q206.3 299.45 204.65 299.0 202.9 298.45 203.05 296.2 L200.3 295.2 Q197.5 296.2 197.7 294.25 L192.75 292.4 Q192.7 289.75 192.8 287.15 192.95 283.8 193.25 280.8 M136.75 274.7 L137.2 275.45 Q144.35 284.1 154.2 279.6 L148.95 279.45 Q146.6 280.65 146.3 278.35 L146.7 277.3 145.35 275.7 Q140.6 273.3 136.75 274.7 M151.3 264.7 L151.65 263.75 Q153.45 262.6 154.3 264.9 L155.5 265.8 157.75 267.3 Q161.1 269.35 164.9 270.7 165.25 270.4 165.6 270.35 166.55 270.15 167.0 271.55 L166.1 274.45 168.45 272.1 169.65 271.95 Q170.75 272.05 171.3 273.15 173.2 272.35 173.4 273.85 L174.8 273.8 Q173.7 279.9 173.05 285.3 L172.5 284.8 171.0 284.75 Q169.95 284.5 169.4 283.7 L169.3 283.55 169.25 283.55 Q167.35 283.85 166.6 282.55 L166.55 282.55 Q164.6 282.75 163.8 281.5 162.2 283.35 161.5 280.85 144.1 286.85 139.95 284.2 135.75 281.55 133.8 275.6 132.65 268.65 134.9 267.2 136.8 266.95 138.6 267.25 L138.75 267.25 Q140.8 267.6 142.75 268.65 L142.75 268.75 Q143.85 267.05 146.65 267.55 148.1 265.9 149.75 265.15 150.5 264.8 151.3 264.7 M144.6 271.9 L144.6 271.75 144.2 271.6 144.6 271.9" fill="#000000" fill-rule="evenodd" stroke="none"/>
  </g>
</svg>
