<?xml version="1.0" encoding="UTF-8" standalone="no"?>
<svg xmlns:xlink="http://www.w3.org/1999/xlink" height="314.0px" width="504.25px" xmlns="http://www.w3.org/2000/svg">
  <g transform="matrix(1.0, 0.0, 0.0, 1.0, 5.65, -164.9)">
    <path d="M9.15 166.95 L9.2 166.95 83.3 205.85 86.2 219.15 171.1 271.8 170.15 279.45 82.5 225.1 69.35 228.4 1.5 179.35 -5.0 170.9 Q-6.3 168.6 -5.0 166.75 -3.95 164.75 -1.35 164.9 L9.15 166.95 M200.3 266.6 Q202.1 269.9 204.55 273.3 L204.65 273.4 Q220.55 295.15 263.8 321.8 L498.6 478.9 253.45 338.5 Q210.5 311.75 183.95 307.15 L183.8 307.1 175.75 306.2 Q175.3 300.3 182.8 287.25 L183.0 286.8 183.2 286.45 184.5 284.25 185.9 282.1 186.15 281.7 186.45 281.3 Q194.8 268.8 200.3 266.6" fill="#000000" fill-rule="evenodd" stroke="none"/>
  </g>
</svg>
