<?xml version="1.0" encoding="UTF-8" standalone="no"?>
<svg xmlns:xlink="http://www.w3.org/1999/xlink" height="125.75px" width="371.05px" xmlns="http://www.w3.org/2000/svg">
  <g transform="matrix(1.0, 0.0, 0.0, 1.0, -45.1, -229.9)">
    <path d="M349.1 345.55 L301.35 328.4 301.35 328.5 301.25 328.85 297.1 327.35 Q295.15 331.95 294.15 332.0 L293.15 331.65 Q292.35 330.95 293.75 326.4 L289.35 324.8 289.35 324.55 254.0 311.55 Q251.15 311.65 249.15 309.8 L192.8 289.1 192.9 286.5 Q192.95 284.1 193.15 281.8 L251.65 302.9 Q254.4 302.75 256.5 304.65 L291.95 317.45 292.1 317.25 296.5 318.85 Q298.4 314.45 299.4 314.45 L300.4 314.8 Q301.15 315.45 299.7 320.3 L303.8 321.8 303.65 322.1 303.5 322.45 352.25 338.75 Q382.9 349.65 409.4 348.8 L416.15 348.35 Q407.75 355.45 393.4 355.65 375.7 355.8 349.1 345.55 M56.0 232.25 L169.6 273.3 168.75 280.3 53.85 238.15 53.85 238.4 49.8 236.95 49.9 235.35 Q48.95 234.55 47.7 234.55 L47.55 235.0 Q46.75 235.55 46.1 234.6 44.8 232.7 45.2 231.65 L45.35 231.35 Q45.85 230.5 47.8 230.0 48.95 229.7 49.15 230.6 L49.0 231.05 Q49.95 231.85 51.2 231.85 L52.1 230.6 56.15 232.05 56.0 232.25" fill="#000000" fill-rule="evenodd" stroke="none"/>
  </g>
</svg>
