<?xml version="1.0" encoding="UTF-8" standalone="no"?>
<svg xmlns:xlink="http://www.w3.org/1999/xlink" height="158.7px" width="73.15px" xmlns="http://www.w3.org/2000/svg">
  <g transform="matrix(1.0, 0.0, 0.0, 1.0, -131.2, -167.2)">
    <path d="M196.75 280.55 L197.05 280.7 198.1 281.1 198.65 281.25 201.0 280.3 Q201.9 279.4 202.65 279.6 203.5 279.9 204.1 281.75 204.6 283.5 204.0 286.45 203.05 289.25 201.7 290.55 200.3 291.8 199.4 291.7 198.65 291.45 198.3 290.25 L197.85 289.3 Q197.15 288.25 196.2 288.1 L195.1 287.9 194.75 287.85 192.8 287.5 Q192.95 282.95 193.4 279.4 L194.65 279.8 196.75 280.55 M131.8 169.3 Q132.65 167.8 134.25 167.4 L134.35 167.35 Q136.0 166.9 137.5 167.8 138.95 168.6 139.4 170.2 L149.65 208.75 149.7 208.85 160.75 250.5 160.75 250.55 165.5 268.4 Q170.3 273.35 171.7 273.9 L173.8 274.55 174.35 274.65 174.4 274.65 173.5 282.15 172.4 281.7 171.95 281.55 Q171.3 281.25 170.85 281.55 170.4 281.8 169.8 284.7 L179.25 320.25 179.75 320.55 Q180.25 320.95 180.35 321.65 180.6 324.3 176.6 325.5 L176.45 325.55 176.3 325.6 Q172.05 326.65 170.95 324.15 170.65 323.5 170.9 322.85 L171.2 322.4 131.25 172.05 Q131.05 170.6 131.8 169.3" fill="#000000" fill-rule="evenodd" stroke="none"/>
  </g>
</svg>
