<?xml version="1.0" encoding="UTF-8" standalone="no"?>
<svg xmlns:xlink="http://www.w3.org/1999/xlink" height="49.75px" width="22.85px" xmlns="http://www.w3.org/2000/svg">
  <g transform="matrix(1.0, 0.0, 0.0, 1.0, -176.3, -284.5)">
    <path d="M184.65 285.15 Q184.9 289.7 185.45 294.35 L186.15 300.05 Q186.8 304.9 187.75 309.9 188.75 315.2 190.05 320.7 L191.75 327.45 193.6 334.15 188.25 326.7 188.2 326.55 186.6 319.35 Q185.5 313.95 184.65 308.55 L183.2 298.2 182.55 292.4 181.95 285.55 184.65 285.15 M190.45 286.1 L191.5 296.15 192.6 304.05 194.1 312.6 196.35 323.15 197.7 328.75 199.15 334.25 194.0 327.5 192.55 321.65 Q191.3 316.3 190.4 311.0 L189.05 301.85 188.35 295.1 187.75 286.5 190.45 286.1 M176.3 284.9 L179.0 284.5 179.5 290.4 180.2 296.4 Q180.9 301.8 181.95 307.35 182.95 312.8 184.25 318.45 L186.15 326.25 188.2 333.55 182.5 325.95 182.35 325.4 180.4 316.95 Q179.25 311.4 178.4 305.85 177.5 300.1 176.95 294.35 L176.5 288.4 176.3 284.9" fill="#000000" fill-rule="evenodd" stroke="none"/>
  </g>
</svg>
