<?xml version="1.0" encoding="UTF-8" standalone="no"?>
<svg xmlns:xlink="http://www.w3.org/1999/xlink" height="99.55px" width="211.5px" xmlns="http://www.w3.org/2000/svg">
  <g transform="matrix(1.0, 0.0, 0.0, 1.0, -151.3, -269.0)">
    <path d="M339.2 332.85 L338.0 329.35 340.4 328.6 Q345.0 327.5 350.7 330.55 357.7 336.4 361.05 345.4 363.55 352.8 362.45 360.3 L361.05 366.0 361.05 366.05 357.1 362.95 Q350.65 357.0 345.35 346.95 L344.65 345.55 Q343.1 342.55 341.7 339.2 L339.25 332.95 339.2 332.85 M334.25 342.65 Q339.3 352.2 345.3 359.95 L347.65 362.9 352.75 368.55 347.65 368.3 Q342.4 367.3 337.4 363.4 334.15 359.9 332.1 356.05 329.95 351.9 329.15 347.35 328.55 344.05 328.7 340.5 328.8 338.0 329.3 335.35 L329.7 333.4 332.6 339.5 334.25 342.65 M151.7 269.0 L174.25 277.1 173.3 283.25 153.4 275.9 Q152.15 274.0 151.65 272.45 L151.45 271.7 Q151.1 270.1 151.7 269.0 M193.0 283.8 L203.65 287.65 Q203.3 289.15 203.25 290.8 L203.25 291.8 203.45 294.35 192.75 290.4 Q192.7 288.75 192.8 287.15 L193.0 283.8" fill="#000000" fill-rule="evenodd" stroke="none"/>
  </g>
</svg>
