<?xml version="1.0" encoding="UTF-8" standalone="no"?>
<svg xmlns:xlink="http://www.w3.org/1999/xlink" height="222.85px" width="104.0px" xmlns="http://www.w3.org/2000/svg">
  <g transform="matrix(1.0, 0.0, 0.0, 1.0, -116.4, -138.45)">
    <path d="M174.55 194.95 Q171.35 190.15 164.55 186.0 L160.0 183.15 Q153.5 179.3 151.95 172.8 162.15 180.35 175.7 179.75 187.35 178.8 195.35 187.75 188.55 178.35 177.15 178.45 157.15 178.1 148.25 166.05 148.75 169.55 152.35 177.1 154.85 181.85 159.25 184.5 L164.4 188.15 Q167.05 190.05 170.1 193.05 174.1 197.05 176.5 202.65 176.0 198.55 176.15 194.9 176.15 189.05 179.25 185.95 180.85 184.5 182.45 184.75 184.05 185.0 183.7 186.35 183.1 188.2 181.65 189.45 184.2 188.4 184.75 186.2 185.0 184.2 182.95 183.7 181.35 183.4 179.75 184.15 177.45 185.3 176.25 187.65 174.5 190.9 174.55 194.95 M168.6 183.4 Q172.7 183.7 177.0 183.2 L179.75 182.7 182.45 182.5 Q185.15 182.6 186.1 184.4 186.65 185.25 186.4 186.55 185.0 191.25 180.3 192.8 183.45 192.6 186.5 189.05 188.25 186.55 187.75 184.45 186.25 180.5 181.05 181.4 166.65 185.0 155.75 177.4 161.55 182.6 168.6 183.4 M168.0 162.2 Q168.5 166.9 165.1 169.2 169.7 168.8 169.65 165.65 169.55 164.25 170.4 165.1 L170.8 165.55 Q171.35 167.8 165.7 170.5 159.1 172.4 154.0 168.4 L152.4 166.75 Q150.35 164.05 150.05 161.4 150.0 158.4 152.5 157.3 155.15 156.2 158.05 158.7 161.25 161.95 161.75 165.0 162.1 167.15 159.9 166.8 157.35 165.95 155.2 163.7 L154.35 162.55 Q153.5 161.15 153.75 160.35 154.2 159.45 155.45 160.15 157.3 161.55 156.45 163.0 157.15 163.25 157.55 162.65 158.25 163.55 158.25 164.55 159.0 164.45 158.9 163.8 160.6 163.6 160.5 162.7 158.9 163.05 157.85 161.7 L156.75 160.4 Q155.05 158.65 153.0 158.8 151.85 158.85 152.25 160.6 152.7 162.4 154.25 164.0 153.3 163.75 153.1 164.5 153.3 164.45 153.75 164.8 155.7 166.0 157.35 166.25 155.95 166.8 156.1 167.05 158.65 168.0 160.6 167.85 160.55 168.35 159.85 168.7 162.0 169.2 162.6 167.65 162.8 166.6 164.0 167.2 160.55 159.05 156.75 156.4 153.15 153.85 149.85 155.25 146.6 156.9 147.65 161.3 149.6 167.5 156.65 171.9 166.5 176.4 172.9 171.25 176.75 167.55 177.5 163.8 188.85 172.45 201.95 191.05 205.0 195.15 207.9 204.3 202.95 197.75 196.35 195.1 191.15 193.15 187.0 194.55 182.35 196.5 180.95 202.0 179.6 209.15 185.8 217.0 184.5 216.75 183.7 217.75 184.45 217.6 185.4 218.3 187.05 219.55 188.35 219.85 186.65 220.15 186.65 221.05 189.35 220.65 192.1 223.0 201.45 229.95 209.3 235.15 211.5 244.7 210.5 255.6 209.6 262.85 207.75 268.5 L206.5 272.0 Q196.95 262.6 196.55 247.25 192.4 258.65 196.5 270.75 198.45 276.65 201.9 281.2 L201.55 281.95 Q200.9 280.9 199.9 281.2 200.65 281.95 200.7 283.3 L199.7 284.8 Q199.45 284.8 199.2 285.05 L199.45 285.15 198.35 286.7 Q195.75 279.85 194.0 271.05 L193.6 268.0 192.95 263.1 Q192.7 259.8 193.45 253.4 194.15 247.0 197.25 240.65 199.65 235.6 202.9 234.5 205.2 233.75 206.75 236.05 L208.15 238.95 207.15 238.05 Q206.1 236.3 204.5 235.95 202.95 235.9 201.5 237.85 198.9 241.1 198.3 245.95 197.7 250.75 199.3 256.9 200.55 261.55 202.2 263.2 204.3 265.0 206.35 262.5 208.9 258.8 209.5 253.7 210.6 247.75 209.75 242.0 L209.25 239.9 209.5 239.2 209.05 239.25 Q207.8 235.1 205.9 234.05 203.8 232.75 201.75 233.8 201.1 234.1 199.55 235.55 198.0 236.95 195.9 241.25 193.7 246.05 192.8 252.95 192.2 256.5 192.0 260.65 191.55 258.9 190.35 256.35 188.95 253.65 190.15 252.35 188.25 252.85 188.15 254.55 187.6 253.25 186.35 252.0 185.1 250.8 185.9 249.9 184.45 249.85 184.2 251.2 L183.35 250.35 Q182.2 249.75 181.45 248.4 L181.25 249.3 Q180.75 250.35 181.0 251.45 179.05 253.0 180.1 255.85 180.85 248.9 188.7 257.8 191.9 262.25 192.45 268.0 193.15 276.55 197.0 286.4 L197.55 287.8 196.55 289.25 Q193.6 283.05 189.75 280.0 188.5 278.85 188.15 277.45 188.1 279.65 190.3 281.8 L191.15 282.85 192.25 284.55 192.45 284.95 Q192.95 286.0 192.8 286.3 192.05 286.2 191.9 287.1 193.65 287.45 195.05 291.0 193.35 292.85 191.9 293.6 L178.9 257.95 Q177.35 253.05 177.1 248.65 L176.9 246.0 Q176.15 232.6 180.1 229.3 179.05 228.65 177.0 230.25 178.5 225.75 178.15 213.35 178.3 202.3 181.4 197.3 185.05 192.45 191.05 192.3 197.4 192.5 201.9 196.25 200.05 191.0 194.75 182.65 188.35 173.05 182.35 168.85 179.55 167.2 178.1 167.7 176.45 168.35 177.85 171.6 178.85 174.0 178.15 174.25 179.0 174.45 179.3 173.15 180.6 174.2 181.65 177.0 182.1 176.7 181.85 175.2 184.0 176.85 185.8 177.5 187.0 177.65 186.9 176.5 L185.85 173.75 Q183.9 170.25 179.8 169.65 183.3 171.0 185.05 174.35 186.05 176.45 183.9 175.7 180.85 174.3 178.75 170.9 177.6 168.95 179.2 168.55 180.4 168.05 183.45 170.35 187.65 173.85 190.35 177.55 197.35 187.25 198.9 192.9 192.5 190.3 186.6 192.15 181.1 194.1 178.8 200.95 177.3 206.6 177.3 219.35 177.4 224.0 176.3 228.95 177.3 214.15 174.3 204.55 171.3 194.9 162.85 189.65 153.55 183.75 148.1 172.0 L146.75 168.35 Q145.1 163.05 145.2 160.8 145.05 153.75 151.0 151.8 L153.45 151.85 Q154.0 152.4 155.2 152.8 156.35 153.0 157.05 154.55 158.25 153.3 156.2 151.75 L158.95 152.8 Q166.6 156.4 168.0 162.2 M134.8 138.55 Q135.75 138.1 137.3 140.2 138.05 141.75 139.85 141.75 138.85 142.55 139.3 143.2 140.1 142.6 142.35 144.0 141.35 144.3 141.5 145.05 141.85 144.9 142.65 145.35 L150.4 149.35 Q149.7 149.75 149.4 150.65 149.55 149.7 148.65 148.75 L147.4 150.0 Q145.8 150.5 146.55 152.2 145.95 151.05 144.65 151.15 145.3 152.3 144.8 153.75 143.4 156.75 144.5 162.0 142.1 153.15 145.45 148.55 140.45 148.15 134.8 138.55 136.65 149.55 133.15 153.05 138.6 154.45 142.45 162.75 139.85 158.05 136.9 156.65 135.55 155.85 135.35 154.55 134.3 155.3 134.55 156.55 134.05 154.8 132.5 155.45 L130.75 155.25 Q130.65 156.6 131.35 157.2 130.55 156.7 129.8 156.85 L133.15 148.8 Q133.45 147.95 133.85 147.85 133.4 147.15 132.55 147.6 133.35 145.05 134.35 145.0 134.3 144.2 133.05 144.25 134.4 143.1 133.95 141.35 133.75 138.8 134.8 138.55 M153.35 189.55 Q154.95 188.8 160.35 190.9 168.45 194.3 172.95 204.0 L174.15 207.35 Q176.5 218.6 176.3 228.95 175.45 235.55 175.55 237.5 174.0 235.9 172.45 236.5 176.55 239.55 176.0 251.8 167.7 242.8 168.9 237.8 167.3 238.35 167.2 240.55 166.0 238.95 161.15 234.45 154.5 226.2 153.75 223.65 156.2 223.5 156.5 222.1 152.8 223.6 148.9 216.55 L147.65 213.25 Q144.8 202.9 148.9 195.1 151.65 190.0 153.35 189.55 M144.15 188.85 L142.45 194.0 Q139.95 201.55 140.55 207.3 138.0 204.2 134.6 202.85 132.15 201.8 129.7 202.4 128.0 202.85 126.95 204.1 125.7 205.8 127.15 207.15 129.0 208.5 131.65 207.7 129.7 207.65 128.1 206.6 126.95 205.75 128.05 204.55 129.1 203.35 131.25 203.4 135.6 203.85 139.35 208.3 141.8 211.0 144.05 214.45 142.25 208.65 142.8 203.0 143.2 198.7 144.0 195.6 L145.65 189.45 Q147.25 184.65 146.15 179.35 144.0 171.25 142.15 168.25 143.05 183.2 128.0 196.35 119.2 203.6 120.0 215.15 120.35 203.2 129.95 196.4 140.7 188.15 143.7 175.8 146.65 181.75 144.15 188.85 M140.75 154.9 Q139.8 152.55 137.9 152.1 137.1 149.0 138.3 148.15 139.75 148.05 141.15 150.9 139.95 152.5 140.75 154.9 M118.0 194.15 Q118.85 190.45 120.1 190.05 121.55 189.4 121.95 191.6 122.5 195.5 121.05 198.55 119.85 200.5 119.3 198.3 118.45 194.55 120.3 191.25 117.55 194.4 118.3 198.35 118.75 200.35 119.3 201.15 119.95 202.05 120.75 201.15 121.7 199.5 122.35 196.85 123.1 198.2 123.65 198.1 122.6 195.3 122.95 193.7 L124.5 193.8 Q123.8 194.0 123.05 191.55 122.05 188.2 120.4 188.7 118.9 189.3 117.85 192.35 115.9 199.4 117.2 210.85 118.55 220.65 120.5 225.85 121.5 220.15 126.25 215.9 130.95 212.15 136.9 213.5 142.45 215.35 149.7 223.7 157.4 233.45 161.4 235.95 158.8 236.05 158.5 237.2 163.6 237.2 171.65 247.95 L173.15 250.05 Q175.75 253.6 177.8 258.35 L190.75 294.05 Q189.15 294.4 186.6 294.1 185.4 290.45 186.55 289.05 L185.35 289.0 Q185.05 288.85 184.75 287.8 L184.65 287.3 184.35 285.3 184.35 283.95 Q184.7 280.9 183.25 279.25 183.85 280.55 183.65 282.25 182.6 287.05 184.35 293.65 L182.65 293.25 182.15 291.8 Q178.8 281.8 173.85 274.75 170.55 270.0 170.15 264.55 170.45 252.7 175.5 257.5 174.45 254.7 172.0 254.75 171.45 253.75 170.45 253.25 169.95 253.05 169.65 252.65 169.95 254.2 169.5 255.4 169.25 256.15 169.35 256.55 168.25 255.7 167.25 256.7 168.45 256.85 168.25 258.6 168.1 260.35 168.5 261.7 167.35 260.45 165.55 261.25 167.3 261.55 167.95 264.5 168.65 267.2 169.45 268.85 166.65 265.8 163.9 263.5 158.75 258.75 154.0 256.5 149.6 254.55 147.5 254.5 L144.75 254.55 Q142.5 255.05 141.7 257.4 140.95 259.4 142.65 263.4 L142.3 263.65 142.9 264.05 143.9 265.95 Q146.9 270.95 151.55 274.75 155.3 278.3 159.65 279.5 162.8 280.1 163.3 277.35 163.55 275.05 161.5 270.65 158.75 264.95 155.2 261.6 151.6 258.3 147.5 257.5 145.15 256.9 144.0 257.95 143.0 259.25 143.35 261.3 L143.15 262.6 142.3 259.45 Q142.0 256.75 144.3 255.85 147.5 254.6 152.6 256.85 159.05 259.75 163.7 264.25 168.4 268.65 170.3 271.35 L172.95 275.55 174.6 278.1 Q178.95 286.0 181.35 292.9 L179.5 292.4 179.65 292.2 179.1 292.3 177.4 291.85 Q176.55 290.7 176.65 289.65 175.65 290.05 175.8 291.3 L175.1 290.95 Q174.8 285.25 172.5 279.5 167.85 267.6 157.35 261.5 166.95 273.55 165.65 286.85 L162.45 284.95 Q157.4 281.85 152.05 276.9 144.3 269.15 139.85 260.45 142.5 251.45 145.15 240.05 145.8 236.5 148.1 235.1 147.55 234.4 146.05 235.3 146.85 234.25 147.3 232.2 147.6 231.0 148.25 230.65 147.0 230.4 146.2 231.4 145.85 221.4 140.25 216.8 135.6 213.5 130.8 215.0 126.7 216.6 124.0 221.45 120.6 227.7 121.1 235.9 117.4 227.05 117.1 221.95 115.2 199.25 118.35 185.35 121.3 187.75 126.6 188.1 134.8 187.95 139.5 178.2 142.05 170.3 139.6 164.25 137.55 160.2 134.05 161.0 130.55 162.05 129.45 166.3 128.25 170.8 130.85 179.25 131.35 178.05 132.2 178.75 133.65 179.55 135.0 177.75 134.25 177.9 133.9 177.55 135.45 176.45 136.8 174.05 L135.35 174.25 Q136.45 173.0 137.15 170.8 L137.45 170.15 Q136.8 169.8 136.25 170.55 136.35 168.3 135.6 166.65 134.8 165.05 133.85 165.75 132.2 167.0 132.0 169.4 L132.05 171.1 Q132.05 172.8 130.6 173.55 131.15 174.3 132.55 173.4 132.9 173.95 133.6 173.55 132.95 172.75 132.85 171.6 133.55 171.85 133.95 171.25 132.3 170.65 132.85 168.35 133.35 167.05 134.3 167.4 135.0 167.9 135.25 169.5 L135.35 170.9 Q135.1 174.05 133.75 176.35 132.25 178.05 131.15 176.15 129.6 173.5 130.0 168.95 130.55 165.15 133.3 164.3 135.9 163.5 137.8 165.85 139.3 168.1 139.45 171.45 L139.3 173.75 Q137.95 180.1 131.7 182.9 125.6 184.45 124.55 182.35 L124.6 181.8 Q124.65 180.6 125.5 181.7 127.5 184.2 131.25 181.5 127.15 181.9 124.55 178.0 121.9 172.7 125.5 165.0 L126.9 162.45 Q126.35 164.95 128.05 165.1 127.6 163.5 128.35 162.6 129.0 161.55 129.1 160.7 129.25 159.85 130.9 159.1 136.65 156.75 141.15 162.25 142.65 163.9 144.8 169.05 L146.15 172.7 Q149.5 185.2 146.2 195.7 143.05 205.15 146.95 214.45 150.85 223.75 161.15 234.45 157.1 231.4 154.2 227.75 145.95 218.0 141.2 214.65 135.05 210.85 129.6 212.9 123.9 215.3 120.6 221.4 118.2 216.05 117.3 204.1 117.0 199.55 118.0 194.15 M151.65 202.7 Q151.2 202.85 151.05 203.4 L150.6 204.55 151.3 204.3 Q150.5 207.0 151.85 209.5 152.95 211.45 153.1 213.2 154.25 211.95 153.9 211.25 L154.65 210.95 155.5 210.85 Q155.3 210.2 154.75 210.2 156.1 208.25 155.3 205.85 155.3 208.55 154.35 209.45 153.3 210.55 152.2 208.5 151.55 206.85 152.05 204.45 152.55 202.75 153.55 202.35 155.75 201.45 156.6 206.3 157.15 211.0 154.95 213.3 153.25 214.65 151.75 212.15 150.3 209.65 150.15 205.45 149.85 201.6 151.4 198.45 152.6 196.55 153.9 196.85 157.0 197.9 158.2 203.2 159.15 208.65 157.8 213.45 156.4 217.15 154.35 217.5 152.45 218.2 150.25 213.55 148.95 210.6 148.7 205.6 148.55 199.35 150.4 196.4 151.6 194.6 153.3 194.0 155.0 193.35 157.45 196.25 160.0 200.15 160.35 205.6 160.55 210.8 159.6 214.9 157.9 222.75 160.4 226.6 158.85 223.35 160.05 216.95 161.45 212.25 161.65 206.3 161.7 201.35 160.25 197.6 159.65 196.2 158.65 194.9 156.25 192.25 153.5 192.95 151.1 193.7 149.4 196.95 L148.65 199.05 148.1 201.9 Q147.65 206.55 148.1 209.85 L148.15 210.15 148.75 212.95 Q149.55 215.75 151.25 217.95 L152.8 219.25 Q154.7 220.3 156.45 219.55 L158.2 219.6 Q158.25 218.85 157.6 218.35 157.15 217.8 157.5 217.15 L157.9 216.3 Q159.6 211.7 159.3 205.7 158.65 200.3 156.15 197.05 154.0 194.7 152.5 195.85 150.9 197.0 149.95 200.35 149.25 203.1 149.7 207.05 150.2 211.05 152.25 214.4 L152.5 214.8 153.2 215.4 Q154.5 216.35 155.6 214.9 157.3 212.35 157.5 208.85 157.7 205.35 156.7 201.7 156.0 199.65 154.7 199.4 153.05 199.05 151.95 200.9 L150.5 202.55 Q150.65 203.05 151.65 202.7 M143.7 181.8 Q140.25 194.65 126.9 201.1 122.35 203.75 123.75 207.75 124.7 209.65 127.65 210.45 132.3 211.2 134.85 209.3 130.2 211.15 126.1 208.5 125.1 207.65 124.95 206.65 124.55 204.65 126.55 202.85 127.35 202.05 128.75 201.3 L131.15 199.85 Q134.75 197.55 137.75 194.65 142.6 189.5 143.7 181.8 M146.55 245.75 Q146.95 248.0 148.1 249.8 150.45 253.55 154.05 255.7 156.2 256.8 157.3 256.55 159.25 256.1 158.95 253.6 158.5 250.3 157.2 245.85 L153.9 235.35 Q149.5 223.75 143.9 219.85 147.55 222.8 150.95 229.95 152.95 234.1 154.75 240.5 156.9 247.55 156.9 251.75 156.9 255.05 154.35 254.5 152.05 253.95 149.3 250.2 147.4 247.1 147.6 245.4 147.9 243.45 149.7 243.55 152.1 244.2 153.25 246.4 154.2 248.3 153.95 249.5 153.6 251.0 152.5 250.25 151.05 248.9 150.8 246.35 150.55 247.55 150.65 248.2 151.25 250.9 152.9 252.25 154.5 253.3 154.9 251.8 155.45 249.05 153.45 245.4 154.25 245.15 153.9 244.45 153.2 244.75 152.7 244.05 152.15 243.2 151.25 243.35 152.35 242.45 152.3 241.75 150.75 242.15 149.7 241.35 147.5 240.2 146.8 241.9 146.15 243.4 146.55 245.75 M161.0 224.0 Q160.75 221.55 161.0 219.0 161.25 217.05 163.3 210.85 L164.8 206.2 Q165.35 203.5 165.05 200.95 169.25 203.15 171.85 208.05 174.0 213.05 174.15 218.65 174.15 222.85 172.5 225.45 171.2 227.35 168.6 227.9 166.2 228.0 164.3 224.65 162.8 221.15 163.15 217.75 163.95 212.35 166.55 210.4 168.6 208.65 170.35 210.8 172.2 213.3 172.0 217.25 171.45 220.55 170.1 222.5 168.6 224.5 167.3 224.4 166.05 224.3 165.4 221.75 164.85 218.2 166.35 215.8 167.6 213.75 168.6 215.8 169.4 217.75 167.1 220.05 169.85 219.45 169.75 216.55 170.95 216.1 170.85 215.25 170.0 215.45 169.5 214.5 168.5 212.35 167.1 212.75 166.1 213.0 165.4 214.35 163.95 217.45 164.3 220.8 164.85 224.1 166.15 225.2 168.0 226.55 169.95 224.45 171.05 223.15 172.25 219.65 173.35 215.95 172.1 212.15 L172.65 212.25 Q172.25 211.6 172.2 211.05 171.7 208.95 169.85 208.7 170.65 208.25 170.65 207.7 169.75 207.1 168.3 207.3 165.9 207.55 164.25 210.85 161.2 217.5 162.25 222.05 163.3 226.6 165.05 228.1 163.45 228.3 163.8 229.95 L166.8 230.1 Q170.15 231.45 173.25 226.4 L172.5 227.95 Q170.9 231.1 170.1 234.75 168.5 243.25 174.95 248.8 175.7 243.75 174.5 241.45 173.5 239.4 172.0 238.2 171.15 241.95 173.1 244.0 172.4 242.35 172.95 241.15 173.5 240.2 174.25 242.85 174.7 244.2 174.55 247.65 170.15 243.3 170.65 237.5 171.1 234.05 172.75 230.25 L173.5 228.35 Q174.75 224.55 174.8 221.5 175.0 215.6 172.9 209.4 171.55 205.55 168.5 201.85 164.55 197.35 161.3 196.2 163.5 200.85 163.35 206.05 163.35 208.3 161.55 214.2 159.6 220.6 161.0 224.0 M148.5 258.9 Q152.25 260.1 156.15 264.15 159.6 267.6 161.4 273.05 162.3 276.6 160.55 277.4 158.65 278.15 155.2 276.2 150.6 273.25 145.9 267.4 144.9 266.15 143.85 264.15 L144.75 263.65 Q145.3 265.1 146.9 266.95 148.45 268.75 151.55 270.15 154.05 271.45 154.9 273.85 155.8 271.75 154.15 270.6 152.9 269.4 153.75 267.7 153.05 267.6 152.4 269.1 149.6 268.05 147.8 266.0 144.65 262.15 145.25 259.75 146.0 257.95 148.5 258.9 M141.05 268.05 Q149.35 276.25 155.55 281.5 160.45 285.45 165.1 288.4 163.2 292.85 160.5 294.7 L141.05 268.05 M208.55 240.6 Q209.05 242.8 209.15 244.4 209.3 251.9 207.65 257.15 206.25 260.85 204.3 261.45 202.45 261.95 200.85 258.65 198.7 253.35 199.15 248.55 199.55 242.9 201.7 239.55 203.0 237.25 204.75 238.1 206.7 239.6 206.8 244.55 206.7 247.3 205.25 249.85 L203.25 249.7 Q205.05 250.45 204.85 252.15 204.3 254.1 206.4 255.15 205.45 252.75 206.5 250.15 208.0 247.05 208.1 244.65 208.15 242.25 207.6 240.8 L208.55 240.6 M181.2 218.95 Q179.2 211.3 180.1 206.65 178.25 213.25 182.35 225.0 L186.6 235.15 Q188.5 239.35 190.3 242.2 191.6 244.3 193.4 243.4 194.4 242.9 195.35 240.65 196.7 236.75 196.15 232.35 195.85 230.25 194.7 228.25 193.5 226.2 192.05 225.45 190.4 224.6 189.5 226.85 189.2 228.15 187.75 228.85 188.1 229.4 189.55 229.4 188.75 229.9 188.9 230.9 189.0 231.7 188.25 231.95 188.45 232.75 189.2 232.45 190.0 236.45 192.15 238.2 193.45 239.1 194.0 237.3 194.4 235.2 193.15 232.8 L191.85 231.4 Q193.25 233.55 193.05 235.45 192.7 236.75 191.45 235.8 190.5 235.1 190.0 233.05 189.45 230.6 190.9 228.55 L193.75 228.6 Q194.95 229.8 195.45 233.4 195.8 238.05 194.4 239.9 192.75 242.0 190.65 239.45 187.95 236.25 185.05 229.5 182.35 223.4 181.2 218.95 M196.1 253.25 Q198.85 266.9 205.75 273.85 204.35 277.1 203.05 278.8 202.55 277.7 201.5 277.25 199.4 274.4 197.85 270.6 194.5 261.2 196.1 253.25 M170.05 291.95 Q167.95 294.7 169.2 297.0 169.2 294.7 170.3 293.35 170.9 292.6 171.75 292.3 L172.9 292.8 Q173.05 301.05 169.05 306.3 L163.45 298.8 Q165.65 295.2 166.95 289.5 L169.8 291.1 168.85 291.1 Q168.95 291.6 170.05 291.95 M172.85 287.7 Q172.35 288.7 172.7 289.85 170.55 289.4 167.4 287.8 168.25 278.05 161.6 265.85 167.9 270.9 171.4 280.25 172.65 284.15 172.85 287.7 M175.25 294.0 L181.05 297.25 Q182.6 299.5 183.9 302.55 186.15 307.8 186.9 313.7 187.75 325.5 185.1 328.65 178.8 320.25 172.3 310.55 174.0 310.4 174.15 308.55 174.45 307.5 175.35 307.2 174.95 306.1 173.7 306.15 175.1 304.95 175.35 303.2 175.4 302.0 176.5 301.3 L174.7 301.2 Q175.35 297.95 175.25 294.15 L175.25 294.0 M198.9 294.8 L199.7 293.3 201.9 298.85 Q204.65 305.9 207.4 310.8 210.15 315.35 212.25 319.75 213.15 321.85 213.85 322.4 212.2 321.65 209.55 321.9 L207.65 322.1 Q203.8 307.8 198.9 294.8 M207.2 274.85 Q211.85 278.35 215.85 279.7 L216.4 289.05 Q209.95 287.6 204.8 281.2 L205.3 280.05 207.15 279.95 Q208.8 280.25 210.3 282.0 209.8 279.45 206.4 278.7 207.0 277.7 206.75 277.3 L206.05 277.9 207.2 274.85 M209.55 290.7 Q210.9 291.9 212.75 291.9 211.75 292.7 212.2 293.8 213.0 293.45 213.9 294.1 215.25 295.4 216.7 294.4 217.9 306.05 218.45 316.5 214.4 315.8 207.45 306.25 204.25 301.25 202.6 295.75 201.65 292.6 201.45 289.85 202.2 287.15 203.85 283.7 206.2 286.75 208.8 288.8 207.2 289.2 207.45 290.0 208.75 289.85 209.55 290.7 M213.0 327.25 Q218.5 326.3 219.25 332.4 L219.25 334.95 Q219.1 336.9 219.95 338.7 218.65 337.65 217.5 338.0 218.1 338.45 218.35 339.5 218.6 340.5 219.0 341.15 L220.35 343.75 Q219.0 342.55 218.25 342.85 223.3 356.05 216.35 360.8 L213.2 352.15 214.65 351.0 Q214.25 351.4 213.35 351.5 214.4 350.0 214.45 347.0 L215.65 347.15 Q215.15 345.5 214.05 344.7 214.75 345.05 215.35 344.45 214.15 343.85 213.15 341.6 212.55 340.05 209.8 336.75 L209.8 335.95 Q209.7 330.7 208.1 323.6 L209.4 323.6 Q208.9 324.4 209.3 325.7 210.9 324.45 213.85 325.35 212.85 326.05 213.0 327.25 M215.5 274.65 Q212.25 275.0 207.9 272.8 209.55 267.6 210.8 261.4 212.15 253.4 213.25 241.8 L215.5 274.65 M205.2 330.1 L203.15 324.5 204.6 324.05 205.2 330.1 M205.35 344.45 Q205.95 346.8 205.4 348.05 206.25 348.15 206.6 347.4 206.25 348.75 206.95 350.3 L207.75 349.45 Q209.75 351.7 211.55 352.15 L210.25 352.65 212.05 352.55 215.2 361.25 Q206.8 362.05 202.2 348.65 201.4 348.95 201.15 350.75 200.8 349.75 200.55 347.85 L199.95 346.2 Q199.45 345.25 199.65 344.5 198.55 345.0 198.2 346.6 197.7 344.7 196.35 343.3 L194.7 341.35 Q191.35 336.2 196.2 333.35 195.55 332.35 194.3 332.45 196.0 329.9 198.05 329.8 197.5 328.6 196.6 328.3 L197.6 327.4 Q200.9 333.9 204.2 338.0 L205.05 339.15 Q204.8 342.15 205.35 344.45 M208.85 343.8 L211.55 351.3 Q209.4 350.75 208.8 346.2 208.65 344.6 208.85 343.8 M211.6 345.2 Q214.05 349.1 212.75 350.85 L210.0 343.35 211.6 345.2 M204.05 321.3 Q203.65 322.4 202.65 323.1 L194.55 300.85 197.4 297.2 Q200.1 305.15 201.8 311.35 L204.05 321.3 M186.15 299.45 Q190.75 312.55 196.95 326.0 L195.35 327.05 Q193.2 328.6 192.45 330.2 192.6 329.35 191.95 327.15 190.75 322.45 189.95 317.15 188.85 311.65 186.45 304.45 L184.55 298.8 186.15 299.45 M188.85 300.35 L193.4 301.3 201.45 323.55 Q200.2 323.7 199.2 323.1 L194.55 313.95 Q191.9 308.15 188.85 300.35 M200.55 325.5 L201.95 324.9 204.1 330.8 200.55 325.55 200.55 325.5" fill="#000000" fill-rule="evenodd" stroke="none"/>
  </g>
</svg>
