<?xml version="1.0" encoding="UTF-8" standalone="no"?>
<svg xmlns:xlink="http://www.w3.org/1999/xlink" height="22.85px" width="55.25px" xmlns="http://www.w3.org/2000/svg">
  <g transform="matrix(1.0, 0.0, 0.0, 1.0, -191.8, -164.1)">
    <path d="M201.85 168.8 Q207.15 166.05 213.15 167.95 L214.0 173.85 214.95 180.7 Q210.6 179.25 206.3 180.6 L203.95 174.4 201.85 168.8 M232.5 167.6 Q234.7 166.1 236.95 165.45 L239.1 165.0 239.95 170.25 238.6 170.6 Q236.35 171.25 234.15 173.05 L232.5 167.6 M241.0 176.8 L240.6 176.8 Q238.3 176.7 235.85 178.7 L234.15 173.05 Q236.35 171.25 238.6 170.6 L239.95 170.25 241.0 176.8 M214.0 173.85 Q209.2 172.5 203.95 174.4 209.2 172.5 214.0 173.85" fill="#ffffff" fill-opacity="0.2509804" fill-rule="evenodd" stroke="none"/>
    <path d="M220.4 171.7 L223.8 165.45 228.45 170.9 230.1 169.4 232.5 167.6 Q234.7 166.1 236.95 165.45 L239.1 165.0 243.2 165.1 M244.2 178.0 L244.1 178.1 Q242.6 176.95 241.0 176.8 L240.6 176.8 Q238.3 176.7 235.85 178.7 L234.35 180.1 Q232.15 182.4 229.85 186.25 L226.95 182.3 223.6 186.45 M198.6 185.25 Q196.3 183.85 194.7 182.05 193.2 180.4 192.3 178.4 M239.95 170.25 Q242.95 169.75 245.95 171.25 M239.95 170.25 L238.6 170.6 Q236.35 171.25 234.15 173.05 L232.25 174.75 Q230.55 176.4 228.9 178.6 L225.45 174.55 222.55 179.25 M203.85 174.4 Q198.6 176.85 194.7 182.05" fill="none" stroke="#000000" stroke-linecap="round" stroke-linejoin="round" stroke-width="1.0"/>
    <path d="M192.3 178.4 Q196.75 171.4 201.85 168.8 207.15 166.05 213.15 167.95 216.65 169.0 220.4 171.7 M223.6 186.45 Q219.25 182.15 214.95 180.7 210.6 179.25 206.3 180.6 202.45 181.8 198.6 185.25 M222.55 179.25 Q218.45 175.1 214.0 173.85 209.2 172.5 203.95 174.4 L203.85 174.4" fill="none" stroke="#000000" stroke-linecap="round" stroke-linejoin="round" stroke-width="1.0"/>
    <path d="M243.2 165.1 Q245.25 167.45 245.8 170.45 L245.95 171.25 Q246.25 173.25 245.65 175.15 L244.2 178.0" fill="none" stroke="#000000" stroke-linecap="round" stroke-linejoin="round" stroke-width="2.0"/>
  </g>
</svg>
