<?xml version="1.0" encoding="UTF-8" standalone="no"?>
<svg xmlns:xlink="http://www.w3.org/1999/xlink" height="21.8px" width="18.1px" xmlns="http://www.w3.org/2000/svg">
  <g transform="matrix(1.0, 0.0, 0.0, 1.0, -218.25, -159.8)">
    <path d="M228.8 164.3 L228.05 166.25 233.15 166.25 230.65 169.9 Q226.25 169.65 221.85 170.0 L223.2 166.75 218.75 166.75 219.75 164.45 Q224.25 164.15 228.8 164.3" fill="#ffffff" fill-opacity="0.2509804" fill-rule="evenodd" stroke="none"/>
    <path d="M219.75 164.45 L221.55 160.3 230.3 160.3 228.8 164.3 228.05 166.25 233.15 166.25 230.65 169.9 229.75 171.2 235.85 171.2 222.4 181.1 225.8 172.2 220.95 172.2 221.85 170.0 223.2 166.75 218.75 166.75 219.75 164.45 Z" fill="none" stroke="#000000" stroke-linecap="round" stroke-linejoin="round" stroke-width="1.0"/>
  </g>
</svg>
