<?xml version="1.0" encoding="UTF-8" standalone="no"?>
<svg xmlns:xlink="http://www.w3.org/1999/xlink" height="15.35px" width="20.85px" xmlns="http://www.w3.org/2000/svg">
  <g transform="matrix(1.0, 0.0, 0.0, 1.0, -217.0, -163.55)">
    <path d="M224.45 167.25 L224.9 169.5 227.15 169.5 228.75 169.2 Q229.2 168.9 229.05 168.35 228.95 167.85 228.45 167.55 L226.7 167.25 224.45 167.25 M228.2 172.55 L225.5 172.55 226.0 175.0 228.7 175.0 Q230.1 175.0 230.55 174.65 231.0 174.3 230.9 173.75 230.75 173.2 230.2 172.9 229.6 172.55 228.2 172.55 M234.45 169.95 Q233.85 170.6 232.65 170.75 234.6 170.95 235.8 171.9 237.0 172.85 237.25 174.2 237.5 175.35 237.0 176.25 236.45 177.2 235.35 177.7 L233.15 178.2 230.55 178.4 220.35 178.4 217.5 164.05 228.5 164.05 Q231.3 164.05 233.05 165.1 234.75 166.15 235.1 167.7 235.35 169.0 234.45 169.95 Z" fill="none" stroke="#000000" stroke-linecap="round" stroke-linejoin="round" stroke-width="1.0"/>
  </g>
</svg>
