<?xml version="1.0" encoding="UTF-8" standalone="no"?>
<svg xmlns:xlink="http://www.w3.org/1999/xlink" height="15.85px" width="17.65px" xmlns="http://www.w3.org/2000/svg">
  <g transform="matrix(1.0, 0.0, 0.0, 1.0, -218.85, -163.3)">
    <path d="M232.5 165.4 Q233.55 166.15 234.3 167.55 L228.8 168.05 Q228.35 167.15 227.9 166.85 L226.85 166.6 Q225.75 166.6 225.25 167.15 224.95 168.1 225.1 170.05 225.5 169.4 226.45 169.05 L228.7 168.7 Q231.35 168.7 233.4 170.1 235.5 171.5 235.9 173.6 236.2 175.05 235.55 176.2 234.85 177.4 233.4 178.0 231.9 178.65 229.5 178.65 226.65 178.65 224.75 177.9 222.85 177.15 221.45 175.55 220.1 173.9 219.6 171.3 218.8 167.45 220.6 165.6 222.45 163.8 226.35 163.8 L230.05 164.2 Q231.45 164.6 232.5 165.4 M227.85 171.5 Q226.85 171.5 226.35 172.0 225.8 172.55 226.0 173.6 226.2 174.65 227.05 175.25 227.8 175.85 228.8 175.85 229.7 175.85 230.2 175.3 230.7 174.8 230.5 173.7 230.25 172.6 229.55 172.05 228.75 171.5 227.85 171.5 Z" fill="none" stroke="#000000" stroke-linecap="round" stroke-linejoin="round" stroke-width="1.0"/>
  </g>
</svg>
