<?xml version="1.0" encoding="UTF-8" standalone="no"?>
<svg xmlns:xlink="http://www.w3.org/1999/xlink" height="38.6px" width="129.35px" xmlns="http://www.w3.org/2000/svg">
  <g transform="matrix(1.0, 0.0, 0.0, 1.0, -335.25, -358.1)">
    <path d="M358.0 362.4 L364.15 366.55 367.3 372.75 Q364.1 374.45 361.2 369.9 L355.9 369.3 355.9 373.75 356.85 378.75 359.5 383.55 363.1 386.75 Q365.5 392.55 361.2 394.65 L354.25 388.65 349.25 383.0 347.65 378.55 343.75 376.5 343.2 379.45 344.65 386.1 347.7 392.05 Q347.8 393.35 347.15 394.6 346.35 396.1 344.45 396.65 L339.4 387.5 337.3 381.3 336.5 376.1 335.25 359.1 Q340.15 360.4 346.0 358.1 L358.0 362.4 M435.7 366.6 L441.85 362.45 453.9 358.1 Q459.75 360.4 464.6 359.05 L463.35 376.15 462.55 381.35 460.45 387.55 455.4 396.7 Q453.5 396.15 452.7 394.65 452.05 393.4 452.15 392.1 L455.2 386.15 456.65 379.5 456.1 376.55 452.2 378.6 450.6 383.05 445.6 388.7 438.65 394.7 Q434.35 392.6 436.75 386.8 L440.35 383.6 443.0 378.8 443.95 373.8 443.95 369.35 438.65 369.95 Q435.75 374.5 432.55 372.8 L435.7 366.6" fill="#000000" fill-rule="evenodd" stroke="none"/>
  </g>
</svg>
