<?xml version="1.0" encoding="UTF-8" standalone="no"?>
<svg xmlns:xlink="http://www.w3.org/1999/xlink" height="36.85px" width="130.35px" xmlns="http://www.w3.org/2000/svg">
  <g transform="matrix(1.0, 0.0, 0.0, 1.0, -334.75, -357.6)">
    <path d="M355.9 369.3 L355.9 365.35 M344.1 376.95 L343.6 376.4 M343.3 375.8 L342.35 373.65 M341.75 387.95 L340.9 386.5 339.75 381.95 339.3 376.35 338.25 373.65 M350.15 377.85 L348.2 376.1 346.35 372.3 M443.95 369.35 L443.95 365.4 M455.75 377.0 L456.25 376.45 M456.55 375.85 L457.5 373.7 M458.1 388.0 L458.95 386.55 460.1 382.0 460.55 376.4 461.6 373.7 M449.7 377.9 L451.65 376.15 453.5 372.35" fill="none" stroke="#000000" stroke-linecap="round" stroke-linejoin="round" stroke-opacity="0.5019608" stroke-width="1.0"/>
    <path d="M346.0 358.1 L358.0 362.4 364.15 366.55 367.3 372.75 Q364.1 374.45 361.2 369.9 L355.9 369.3 355.9 376.95 356.55 380.55 358.3 383.7 360.7 385.85 Q362.3 389.7 359.45 391.1 L354.85 387.1 352.25 383.15 350.65 378.9 350.1 381.5 351.6 385.75 353.65 389.35 Q354.0 393.3 350.65 393.9 L347.25 387.55 345.7 382.2 345.25 378.05 344.1 376.95 343.45 381.15 344.45 385.55 346.45 389.55 Q346.55 390.4 346.1 391.2 345.55 392.25 344.3 392.6 L341.75 387.95 Q341.0 390.15 339.85 390.15 L337.4 385.75 336.55 380.7 336.5 376.1 335.25 359.1 M453.9 358.1 L441.85 362.45 435.7 366.6 432.55 372.8 Q435.75 374.5 438.65 369.95 L443.95 369.35 443.95 377.0 443.3 380.6 441.55 383.75 439.15 385.9 Q437.55 389.75 440.4 391.15 L445.0 387.15 447.6 383.2 449.2 378.95 449.75 381.55 448.25 385.8 446.2 389.4 Q445.85 393.35 449.2 393.95 L452.6 387.6 454.15 382.25 454.6 378.1 455.75 377.0 456.4 381.2 455.4 385.6 453.4 389.6 Q453.3 390.45 453.75 391.25 454.3 392.3 455.55 392.65 L458.1 388.0 Q458.85 390.2 460.0 390.2 L462.45 385.8 463.3 380.75 463.35 376.15 464.6 359.05" fill="none" stroke="#000000" stroke-linecap="round" stroke-linejoin="round" stroke-width="1.0"/>
  </g>
</svg>
