<?xml version="1.0" encoding="UTF-8" standalone="no"?>
<svg xmlns:xlink="http://www.w3.org/1999/xlink" height="50.1px" width="138.45px" xmlns="http://www.w3.org/2000/svg">
  <g transform="matrix(1.0, 0.0, 0.0, 1.0, -330.7, -309.45)">
    <path d="M335.4 359.0 L332.95 327.55 Q330.3 317.9 331.7 309.95 M346.2 327.1 Q345.35 336.45 345.3 343.05 L345.3 344.05 Q345.2 349.9 345.4 352.8 345.6 355.95 345.95 358.05 M453.65 327.15 Q454.5 336.5 454.55 343.1 L454.55 344.1 454.45 352.85 453.9 358.1 M468.2 310.1 Q469.55 318.0 466.9 327.6 L464.45 359.05" fill="none" stroke="#000000" stroke-linecap="round" stroke-linejoin="round" stroke-width="1.0"/>
    <path d="M331.7 309.95 L331.75 309.95 Q336.1 319.45 346.2 327.1 M453.65 327.15 Q463.75 319.5 468.2 310.1" fill="none" stroke="#000000" stroke-linecap="round" stroke-linejoin="round" stroke-opacity="0.5019608" stroke-width="1.0"/>
  </g>
</svg>
