<?xml version="1.0" encoding="UTF-8" standalone="no"?>
<svg xmlns:xlink="http://www.w3.org/1999/xlink" height="315.1px" width="170.4px" xmlns="http://www.w3.org/2000/svg">
  <g transform="matrix(1.0, 0.0, 0.0, 1.0, -250.65, -226.15)">
    <path d="M378.5 239.6 Q368.1 242.5 363.8 246.4 359.45 250.35 353.65 252.85 351.25 253.85 348.9 254.15 L348.35 254.2 346.35 254.25 Q349.2 260.1 352.8 264.7 L357.95 265.05 365.95 264.15 372.2 264.5 Q374.75 265.05 374.35 266.55 L377.4 266.2 Q379.55 265.55 382.7 265.05 L382.75 265.05 Q384.05 263.95 385.55 265.25 L388.9 268.15 Q390.4 269.4 391.9 271.4 L394.85 275.4 Q396.25 277.45 396.8 279.65 397.3 281.8 397.3 283.6 L396.2 282.4 392.65 279.85 Q391.0 278.65 389.65 276.4 388.55 274.6 386.8 273.35 385.05 272.2 383.1 271.55 L379.2 270.65 375.5 270.1 375.0 270.3 369.85 272.7 369.9 274.3 Q370.95 274.65 372.05 275.4 L375.9 278.05 379.45 280.15 Q380.9 280.9 382.0 283.1 383.0 285.35 382.45 287.25 381.9 288.95 381.5 291.15 L380.35 294.75 378.4 298.4 Q377.35 296.35 377.5 294.4 L377.35 290.5 Q377.05 288.6 376.15 286.5 L375.85 285.55 Q374.65 285.25 374.05 284.3 L371.15 280.45 Q369.85 278.8 368.45 277.7 366.65 276.2 364.1 276.1 362.45 276.1 361.85 277.3 361.5 277.9 361.45 278.9 364.35 300.65 370.35 320.6 385.6 360.65 389.0 395.4 391.1 397.8 390.1 401.3 386.8 492.75 420.9 541.05 L421.05 541.25 420.85 541.1 420.25 540.65 Q417.1 537.9 414.25 534.05 390.35 502.8 383.6 399.55 378.7 394.25 382.75 392.65 380.4 359.35 369.2 327.65 L357.1 280.15 Q354.45 288.6 349.45 292.9 351.75 284.75 351.1 273.35 350.8 271.65 349.95 270.65 L348.3 272.3 Q343.3 271.25 338.1 273.7 L332.1 276.7 327.5 279.25 Q322.15 282.35 316.8 285.55 311.45 288.7 307.75 292.9 303.8 297.3 299.35 301.35 L295.0 304.9 289.65 308.15 Q284.3 311.0 279.45 314.5 274.8 317.85 269.65 321.05 L268.7 321.45 Q252.85 344.25 252.05 403.9 246.35 347.7 264.0 321.4 262.1 316.15 264.65 311.35 267.05 306.9 268.75 302.1 270.7 296.35 277.3 294.9 281.35 291.6 286.45 288.65 292.0 285.2 295.8 281.1 299.85 276.75 302.05 272.15 304.1 267.8 304.5 262.9 305.7 258.3 309.1 254.65 311.6 252.0 315.2 250.25 L315.5 248.65 Q316.5 243.65 317.75 238.85 318.8 235.15 322.2 232.8 327.6 228.85 332.65 227.4 337.8 225.8 342.45 226.25 344.15 226.45 345.55 227.45 L347.4 228.55 Q349.95 227.35 353.2 227.5 357.5 227.55 361.45 228.65 366.7 230.0 370.95 231.65 375.75 233.45 378.5 239.6 M328.5 271.9 L320.2 273.6 Q315.4 275.7 313.4 278.95 L312.6 280.55 314.45 279.5 325.3 273.65 328.5 271.9" fill="#000000" fill-rule="evenodd" stroke="none"/>
  </g>
</svg>
