<?xml version="1.0" encoding="UTF-8" standalone="no"?>
<svg xmlns:xlink="http://www.w3.org/1999/xlink" height="302.4px" width="133.4px" xmlns="http://www.w3.org/2000/svg">
  <g transform="matrix(1.0, 0.0, 0.0, 1.0, -220.0, -166.15)">
    <path d="M329.55 239.85 Q327.95 235.05 330.2 230.55 332.45 226.0 337.3 224.45 342.1 222.85 346.6 225.1 348.7 226.15 350.2 227.8 L350.95 228.7 Q352.1 230.25 352.75 232.2 354.3 237.0 352.05 241.55 349.8 246.05 345.0 247.6 340.15 249.25 335.65 247.0 331.15 244.75 329.55 239.85 M327.15 186.75 Q328.7 191.35 326.55 195.7 324.4 200.0 319.85 201.5 315.25 203.0 310.95 200.85 306.65 198.7 305.1 194.1 303.65 189.55 305.75 185.25 307.9 180.9 312.45 179.4 317.05 177.9 321.35 180.05 325.65 182.25 327.15 186.75 M273.05 194.0 L271.85 200.8 276.7 203.2 292.55 201.4 292.85 205.35 281.35 228.3 264.25 242.45 257.65 221.0 259.2 217.9 255.1 215.35 248.15 215.05 220.0 188.05 Q227.1 167.75 243.55 166.15 L273.05 194.0 M308.7 238.05 L298.0 242.55 289.5 259.6 Q280.75 281.25 272.85 314.1 271.3 322.35 275.8 333.95 L277.55 337.8 284.6 351.35 267.6 413.1 255.35 423.05 251.45 418.35 245.85 390.9 247.0 387.55 247.0 387.5 238.15 370.6 238.0 370.5 Q237.3 369.1 238.2 367.2 239.1 365.35 241.25 363.95 243.45 362.6 245.6 362.6 247.75 362.65 248.6 364.05 L255.9 372.6 Q258.7 369.85 262.0 368.8 264.0 369.85 265.5 371.2 267.3 372.7 268.55 374.6 L268.65 373.25 269.05 366.6 Q269.25 363.1 268.6 360.05 268.25 358.35 267.55 356.8 263.2 345.9 259.3 333.0 256.45 322.2 257.85 314.9 272.85 225.45 304.9 207.1 L309.0 209.2 Q311.35 221.5 308.7 238.05 M301.7 281.65 Q305.7 279.8 310.6 279.35 316.3 282.0 320.75 284.65 323.2 286.9 324.7 289.25 L322.05 295.8 Q314.25 289.35 301.0 289.8 302.75 285.3 301.7 281.65 M279.35 463.05 Q278.3 466.55 273.75 467.9 269.25 469.3 263.85 467.7 258.55 466.15 255.45 462.5 252.4 458.95 253.35 455.4 254.45 451.9 258.95 450.55 263.45 449.2 268.85 450.8 274.2 452.35 277.25 455.9 280.35 459.55 279.35 463.05" fill="#000000" fill-rule="evenodd" stroke="none"/>
  </g>
</svg>
