<?xml version="1.0" encoding="UTF-8" standalone="no"?>
<svg xmlns:xlink="http://www.w3.org/1999/xlink" height="134.95px" width="48.35px" xmlns="http://www.w3.org/2000/svg">
  <g transform="matrix(1.0, 0.0, 0.0, 1.0, -301.7, -220.55)">
    <path d="M329.15 221.05 L329.4 221.3 336.3 232.45 M339.5 231.8 L340.4 222.8 M320.3 223.9 L329.25 234.05 M343.55 230.95 L346.45 226.25 M324.85 240.7 L313.25 232.95 312.55 232.65 M320.35 258.15 L316.95 259.75 M320.9 253.5 L313.5 252.3 M322.05 248.0 L310.8 241.0" fill="none" stroke="#000000" stroke-linecap="round" stroke-linejoin="round" stroke-opacity="0.49803922" stroke-width="1.0"/>
    <path d="M336.3 232.45 L339.5 231.8 M340.4 222.8 Q337.1 224.85 331.55 222.3 L329.15 221.05 Q326.3 227.35 320.3 223.9 M329.25 234.05 L329.4 233.85 336.3 232.45 M340.4 222.8 Q340.95 227.35 346.4 225.9 L346.45 226.25 Q346.75 227.85 348.55 229.1 L349.55 229.7 349.4 229.75 343.55 230.95 339.5 231.8 M329.25 234.05 Q326.65 237.05 324.85 240.7 323.1 244.1 322.05 248.0 321.3 250.6 320.9 253.5 320.5 255.75 320.35 258.15 L320.15 262.7 Q318.7 260.4 316.95 259.75 318.6 253.3 313.5 252.3 L313.05 252.25 Q314.3 246.4 310.8 241.0 315.35 238.3 312.55 232.65 319.75 232.0 320.3 223.9 M307.35 307.1 Q307.95 310.1 303.6 312.6 M307.8 313.95 L310.3 309.35 312.0 306.3 Q310.15 307.3 307.35 307.1 M307.8 313.95 L306.8 315.8 307.35 320.8 308.3 326.5 309.4 331.8 311.0 338.5 313.0 345.65 314.75 351.4 315.95 355.0 Q314.85 353.75 313.0 353.4 314.15 350.3 308.75 347.95 309.6 343.7 305.1 340.45 307.3 336.95 303.1 333.1 306.15 330.0 302.2 326.65 305.55 324.0 302.5 319.95 303.6 319.8 304.35 318.4 305.55 316.1 303.6 312.6" fill="none" stroke="#000000" stroke-linecap="round" stroke-linejoin="round" stroke-width="1.0"/>
    <path d="M310.3 309.35 L307.35 307.1 M303.6 312.6 L307.8 313.95 M305.1 340.45 L311.0 338.5 M302.2 326.65 L308.3 326.5 M309.4 331.8 L303.1 333.1 M307.35 320.8 L302.5 319.95 M313.0 353.4 L314.75 351.4 M313.0 345.65 L308.75 347.95" fill="none" stroke="#000000" stroke-linecap="round" stroke-linejoin="round" stroke-opacity="0.5019608" stroke-width="1.0"/>
  </g>
</svg>
