<?xml version="1.0" encoding="UTF-8" standalone="no"?>
<svg xmlns:xlink="http://www.w3.org/1999/xlink" height="85.7px" width="32.3px" xmlns="http://www.w3.org/2000/svg">
  <g transform="matrix(1.0, 0.0, 0.0, 1.0, -323.4, -254.7)">
    <path d="M342.15 293.1 Q346.5 286.9 349.7 280.65 M332.65 335.7 L337.9 320.8 Q337.4 313.2 333.75 303.75 338.35 298.45 342.15 293.1 M332.65 335.7 L331.8 339.9" fill="none" stroke="#000000" stroke-linecap="round" stroke-linejoin="round" stroke-width="1.0"/>
    <path d="M330.9 274.3 Q341.15 276.9 349.7 280.65 353.1 274.1 355.2 267.6 350.0 261.7 346.7 255.2 342.2 258.35 336.7 260.8 333.4 267.35 330.9 274.3 328.45 280.9 326.75 287.85 335.0 290.3 342.15 293.1 M337.9 320.8 L325.05 320.3 Q326.45 328.35 329.75 335.75 L332.65 335.7 M333.75 303.75 L329.4 308.5 Q328.2 306.0 326.3 303.7 L323.95 303.5 Q323.6 312.25 325.05 320.3 M323.95 303.5 L324.05 301.4 324.05 301.35 Q325.1 294.45 326.75 287.85 M324.05 301.4 L326.3 303.7 Q330.0 303.95 333.75 303.75 M331.8 339.9 L329.75 335.75" fill="none" stroke="#000000" stroke-linecap="round" stroke-linejoin="round" stroke-opacity="0.5019608" stroke-width="1.0"/>
  </g>
</svg>
