<?xml version="1.0" encoding="UTF-8" standalone="no"?>
<svg xmlns:xlink="http://www.w3.org/1999/xlink" height="316.1px" width="171.4px" xmlns="http://www.w3.org/2000/svg">
  <g transform="matrix(1.0, 0.0, 0.0, 1.0, -250.15, -225.65)">
    <path d="M378.5 239.6 Q368.1 242.5 363.8 246.4 359.45 250.35 353.65 252.85 351.25 253.85 348.9 254.15 L348.35 254.2 346.35 254.25 Q349.2 260.1 352.8 264.7 L357.95 265.05 365.95 264.15 372.2 264.5 Q374.75 265.05 374.35 266.55 L377.4 266.2 Q379.55 265.55 382.7 265.05 L382.75 265.05 Q384.05 263.95 385.55 265.25 L388.9 268.15 Q390.4 269.4 391.9 271.4 L394.85 275.4 Q396.25 277.45 396.8 279.65 397.3 281.8 397.3 283.6 L396.2 282.4 392.65 279.85 Q391.0 278.65 389.65 276.4 388.55 274.6 386.8 273.35 385.05 272.2 383.1 271.55 L379.2 270.65 375.5 270.1 375.0 270.3 369.85 272.7 369.9 274.3 Q370.95 274.65 372.05 275.4 L375.9 278.05 379.45 280.15 Q380.9 280.9 382.0 283.1 383.0 285.35 382.45 287.25 381.9 288.95 381.5 291.15 L380.35 294.75 378.4 298.4 Q377.35 296.35 377.5 294.4 L377.35 290.5 Q377.05 288.6 376.15 286.5 L375.85 285.55 Q374.65 285.25 374.05 284.3 L371.15 280.45 Q369.85 278.8 368.45 277.7 366.65 276.2 364.1 276.1 362.45 276.1 361.85 277.3 361.5 277.9 361.45 278.9 364.35 300.65 370.35 320.6 385.6 360.65 389.0 395.4 391.1 397.8 390.1 401.3 386.8 492.75 420.9 541.05 L421.05 541.25 420.85 541.1 420.25 540.65 Q417.1 537.9 414.25 534.05 357.75 473.55 345.55 497.25 348.25 486.2 350.45 475.4 337.95 467.05 324.95 474.8 319.15 478.2 314.35 484.75 L322.15 441.9 Q308.45 435.6 296.55 442.95 293.6 444.8 292.6 447.3 289.1 429.65 289.65 411.8 281.5 402.65 274.85 397.5 268.15 392.25 252.05 403.9 246.35 347.7 264.0 321.4 262.1 316.15 264.65 311.35 267.05 306.9 268.75 302.1 270.7 296.35 277.3 294.9 281.35 291.6 286.45 288.65 292.0 285.2 295.8 281.1 299.85 276.75 302.05 272.15 304.1 267.8 304.5 262.9 305.7 258.3 309.1 254.65 311.6 252.0 315.2 250.25 L315.5 248.65 Q316.5 243.65 317.75 238.85 318.8 235.15 322.2 232.8 327.6 228.85 332.65 227.4 337.8 225.8 342.45 226.25 344.15 226.45 345.55 227.45 L347.4 228.55 Q349.95 227.35 353.2 227.5 357.5 227.55 361.45 228.65 366.7 230.0 370.95 231.65 375.75 233.45 378.5 239.6 M352.3 264.55 L352.8 264.7" fill="none" stroke="#000000" stroke-linecap="round" stroke-linejoin="round" stroke-width="1.0"/>
    <path d="M347.4 228.55 Q345.1 229.65 343.3 231.75 340.05 235.6 335.8 239.05 333.85 240.65 331.5 241.85 M274.45 306.65 L277.35 301.85 Q278.7 299.2 280.8 296.8 284.6 292.55 289.35 289.3 294.5 285.9 299.75 282.55 305.3 279.15 310.5 281.85 L312.6 280.55 313.4 278.95 Q315.4 275.7 320.2 273.6 L328.5 271.9 336.0 267.45 Q341.4 264.0 344.3 259.75 L345.55 259.85 Q347.65 260.2 349.6 261.7 350.95 262.8 352.3 264.55 350.5 263.95 348.7 262.9 L348.05 263.5 Q345.5 266.15 345.85 268.75 348.6 268.9 349.95 270.65 350.8 271.65 351.1 273.35 351.75 284.75 349.45 292.9 354.45 288.6 357.1 280.15 354.8 279.3 354.9 275.85 M346.35 254.25 L343.8 253.9 342.8 253.7 Q338.15 252.9 333.4 254.7 M289.65 411.8 Q290.75 372.8 310.85 332.65 329.8 298.6 332.1 276.7 L327.5 279.25 Q322.15 282.35 316.8 285.55 311.45 288.7 307.75 292.9 303.8 297.3 299.35 301.35 L295.0 304.9 289.65 308.15 Q284.3 311.0 279.45 314.5 274.8 317.85 269.65 321.05 L268.7 321.45 Q252.85 344.25 252.05 403.9 M349.95 270.65 L348.3 272.3 Q343.3 271.25 338.1 273.7 L332.1 276.7 M359.4 278.15 Q360.2 277.35 360.6 276.55 361.8 274.25 359.05 272.05 M359.25 280.3 L357.1 280.15 369.2 327.65 Q380.4 359.35 382.75 392.65 378.7 394.25 383.6 399.55 L385.6 401.5 M312.6 280.55 L314.45 279.5 325.3 273.65 328.5 271.9 M374.35 266.55 L373.5 266.6 371.65 266.85 M382.7 265.05 L382.0 265.8 Q381.2 266.8 381.55 267.95 L382.25 269.4 M375.5 270.1 L374.9 270.0 370.7 270.2 M369.9 274.3 L369.5 274.15 368.5 273.9 M375.85 285.55 Q375.55 284.05 376.35 282.7 M369.85 272.7 L369.2 270.75 Q367.75 268.45 363.5 269.55 M334.3 305.05 L334.6 305.6 Q334.95 306.2 334.8 306.6 334.5 307.95 334.95 309.05 L335.2 310.45 334.9 311.65 336.25 310.35 Q337.15 309.25 337.45 307.75 337.7 306.1 338.35 304.7 L339.25 303.2 339.8 302.2 340.15 301.05 340.25 300.15 M324.9 315.6 Q323.7 317.95 323.05 321.2 321.85 326.7 320.35 330.25 L320.1 331.55 319.95 332.4 319.4 334.65 Q321.9 334.65 324.6 332.85 325.9 331.9 326.9 330.8 L327.45 329.75 327.8 328.5 329.65 323.8 329.85 322.95 Q330.05 320.45 330.65 318.05 331.1 315.85 332.2 313.9 L333.05 313.15 Q334.4 312.55 334.9 311.65 M358.1 353.85 Q358.45 351.6 360.85 349.6 L362.85 348.1 Q363.95 350.15 363.25 352.45 362.8 354.05 363.9 355.6 L366.9 359.8 370.45 364.45 372.75 367.45 Q374.0 369.1 373.7 370.2 373.45 371.05 373.6 372.0 373.9 375.2 373.0 377.45 L372.8 378.65 373.1 380.4 372.95 381.1 Q371.6 382.65 373.0 384.9 L373.15 385.85 Q373.0 386.75 373.2 387.7 374.2 391.2 373.4 393.35 L372.6 396.0 Q372.15 398.05 371.85 400.4 371.55 402.3 372.75 404.15 L373.0 404.85 Q373.3 408.35 372.1 411.25 371.4 412.8 372.65 414.95 373.45 415.15 374.0 416.0 M389.0 395.4 L388.75 395.15 386.55 393.55 M350.45 475.4 Q362.8 412.9 357.3 353.95 356.2 341.6 354.25 329.4 M315.2 250.25 L313.6 259.15 M309.1 275.25 Q306.55 269.9 310.2 265.6 313.05 262.2 317.5 260.1 L319.75 258.85 M301.0 292.35 Q302.25 289.5 305.2 286.4 307.55 283.85 310.5 281.85 M295.8 305.9 Q295.65 307.0 294.95 308.5 294.2 310.0 294.1 311.15 L293.65 312.35 Q291.55 315.25 288.7 315.5 L287.6 315.85 283.3 318.65 282.25 319.35 Q279.6 321.25 279.1 323.35 L278.5 324.25 277.55 325.15 Q275.1 326.95 273.9 329.15 274.95 330.85 276.5 331.1 L278.75 331.0 Q282.4 330.25 286.2 331.85 L286.3 331.9 286.55 331.95 287.75 332.65 Q290.2 334.05 292.45 334.2 293.8 335.0 293.35 336.05 M285.75 333.05 Q286.1 334.45 286.1 336.45 L286.25 337.2 Q287.5 339.7 285.75 341.7 L285.2 342.7 Q284.7 344.0 284.8 345.4 M303.35 383.9 Q306.5 381.65 306.3 378.65 306.3 378.2 306.45 377.8 L306.8 376.6 Q306.8 374.2 308.55 372.35 310.5 370.15 312.45 371.1 L313.1 371.55 313.15 371.6 313.2 371.35 Q314.65 366.0 317.2 361.95 L317.65 360.7 Q318.0 358.8 318.65 357.2 319.6 354.85 319.45 351.85 319.35 350.45 318.8 349.2 317.85 346.8 318.3 345.05 L319.05 341.0 319.1 340.2 319.0 338.2 Q318.95 336.4 319.25 335.05 L319.4 334.65 M268.7 321.45 L267.25 321.4 M268.45 343.8 L264.8 346.45 Q263.45 347.35 262.3 348.35 L261.9 349.05 M265.3 353.65 Q265.4 353.25 265.65 352.95 L266.45 352.0 267.5 350.1 Q267.7 349.45 268.0 349.1 269.1 348.1 269.1 346.3 269.05 345.05 269.5 343.95 L269.55 343.6 272.35 335.05 272.6 333.8 Q272.65 331.3 273.9 329.15 L273.15 327.85 M311.25 392.55 Q311.1 390.7 312.0 389.0 312.9 387.2 313.65 384.4 L314.1 383.05 314.35 381.8 314.65 379.95 Q314.9 378.65 314.75 377.3 314.4 374.6 312.85 371.85 L312.45 371.1 M390.1 401.3 L389.75 402.25 Q388.75 404.9 387.1 405.8 M374.0 429.9 Q374.3 428.5 373.9 427.7 373.45 426.4 373.75 425.1 L374.0 423.9 Q374.15 423.25 374.45 422.7 376.1 419.8 373.15 415.7 L372.65 414.95 371.35 415.0 370.65 415.25 Q367.95 416.3 366.65 418.55 366.05 419.65 366.0 421.6 L366.05 423.3 365.95 424.5 Q365.6 425.6 364.3 426.9 364.0 427.25 364.0 427.65 364.0 429.2 363.5 430.85 362.95 432.7 364.55 435.35 L367.4 439.6 367.85 440.15 Q368.7 441.1 369.05 442.25 L369.4 442.9 Q370.6 445.5 369.6 447.8 368.5 450.45 368.3 453.1 M347.85 393.5 Q348.55 395.45 347.7 396.85 347.1 397.8 346.55 399.25 346.2 400.0 345.95 401.4 L345.55 402.6 344.8 404.4 Q344.05 406.0 343.6 407.7 342.7 411.3 341.95 415.65 341.75 417.3 341.85 418.95 L342.5 425.2 Q342.7 427.3 341.55 429.55 341.4 430.0 341.4 430.4 341.5 432.2 339.5 433.7 338.05 434.75 337.9 435.65 L337.25 437.35 Q335.95 439.6 333.45 442.15 333.1 442.45 332.9 443.05 L337.95 446.2 Q340.05 447.3 341.5 449.4 343.85 452.95 342.8 456.95 L342.4 458.2 Q342.1 458.95 341.95 460.35 341.9 460.9 342.25 461.45 L342.85 462.55 M332.9 443.05 L332.1 444.8 331.6 446.0 Q331.15 447.25 331.15 448.7 L331.3 450.15 M341.75 458.0 Q338.9 459.25 336.95 459.15 L335.25 459.5 Q332.3 460.65 332.45 462.6 L332.35 463.45 Q331.6 465.3 332.35 467.15 M383.6 399.55 Q390.35 502.8 414.25 534.05 M322.15 441.9 L349.45 292.9" fill="none" stroke="#000000" stroke-linecap="round" stroke-linejoin="round" stroke-opacity="0.5019608" stroke-width="1.0"/>
  </g>
</svg>
