<?xml version="1.0" encoding="UTF-8" standalone="no"?>
<svg xmlns:xlink="http://www.w3.org/1999/xlink" height="52.1px" width="37.45px" xmlns="http://www.w3.org/2000/svg">
  <g transform="matrix(1.0, 0.0, 0.0, 1.0, -381.2, -132.3)">
    <path d="M381.95 140.8 L381.95 140.75 382.9 139.5 Q389.15 132.25 399.95 132.3 410.75 132.25 416.95 139.5 L417.9 140.75 Q418.6 144.85 418.65 153.65 L418.65 153.9 418.65 154.1 418.45 158.2 417.6 163.25 417.1 165.05 415.45 174.25 405.85 183.8 399.95 184.4 394.05 183.8 384.4 174.25 382.75 165.05 382.25 163.25 Q381.65 160.75 381.4 158.2 L381.2 154.1 381.2 153.9 381.2 153.65 381.25 152.15 Q381.25 148.85 381.4 146.3 381.6 142.9 381.95 140.8 M385.4 145.4 Q382.4 152.4 385.4 160.95 L388.4 164.9 388.4 173.75 395.25 179.2 396.6 177.85 403.3 177.85 404.65 179.2 411.45 173.75 411.45 164.9 414.45 160.95 Q417.45 152.4 414.45 145.4 L407.55 144.45 404.3 148.5 395.6 148.5 392.35 144.45 385.4 145.4" fill="#000000" fill-rule="evenodd" stroke="none"/>
  </g>
</svg>
