<?xml version="1.0" encoding="UTF-8" standalone="no"?>
<svg xmlns:xlink="http://www.w3.org/1999/xlink" height="52.15px" width="37.15px" xmlns="http://www.w3.org/2000/svg">
  <g transform="matrix(1.0, 0.0, 0.0, 1.0, -381.4, -132.3)">
    <path d="M382.85 139.5 Q389.05 132.25 399.85 132.3 L399.85 158.35 399.8 158.35 399.85 158.4 415.4 173.95 415.35 174.3 405.75 183.85 399.85 184.45 399.85 158.4 384.3 173.95 382.7 165.05 382.2 163.25 Q381.6 160.8 381.4 158.35 L399.8 158.35 382.05 140.6 382.85 139.5 M417.8 140.75 Q418.5 144.85 418.55 153.65 L418.55 153.9 418.55 154.1 418.35 158.2 418.35 158.35 399.9 158.35 417.7 140.6 417.8 140.75" fill="#000000" fill-rule="evenodd" stroke="none"/>
  </g>
</svg>
