<?xml version="1.0" encoding="UTF-8" standalone="no"?>
<svg xmlns:xlink="http://www.w3.org/1999/xlink" height="10.75px" width="32.25px" xmlns="http://www.w3.org/2000/svg">
  <g transform="matrix(1.0, 0.0, 0.0, 1.0, -383.8, -151.9)">
    <path d="M397.3 155.35 Q398.65 155.85 399.95 155.95 L402.6 155.35 Q408.8 151.95 415.55 151.9 416.95 156.9 414.6 159.65 L413.35 161.1 Q411.45 162.65 408.75 162.65 406.2 162.65 404.3 161.3 402.15 159.8 399.95 159.5 397.75 159.8 395.6 161.3 393.7 162.65 391.15 162.65 388.4 162.65 386.5 161.1 385.7 160.45 385.25 159.65 382.9 156.9 384.3 151.9 391.1 151.95 397.3 155.35" fill="#000000" fill-rule="evenodd" stroke="none"/>
  </g>
</svg>
