<?xml version="1.0" encoding="UTF-8" standalone="no"?>
<svg xmlns:xlink="http://www.w3.org/1999/xlink" height="176.65px" width="102.8px" xmlns="http://www.w3.org/2000/svg">
  <g transform="matrix(1.0, 0.0, 0.0, 1.0, -348.4, -322.95)">
    <path d="M366.3 336.4 Q382.9 342.95 399.8 343.2 416.7 342.95 433.3 336.4 M355.9 390.55 Q369.0 395.25 384.45 394.4 M387.75 382.65 L386.5 382.65 Q371.55 382.2 357.45 377.2 M359.5 364.7 Q367.65 367.25 376.05 368.65 L386.5 370.0 391.6 370.3 M395.2 359.5 L393.8 359.5 392.65 357.9 Q376.05 356.35 362.45 350.95 M443.7 390.55 Q430.55 395.25 415.15 394.4 M411.85 382.65 Q427.45 382.4 442.15 377.2 M440.1 364.7 Q424.55 369.55 408.05 370.3 M404.4 359.5 L405.8 359.5 406.95 357.9 Q423.55 356.35 437.2 350.95 M450.7 445.3 Q436.25 449.5 418.8 448.0 M422.8 427.4 Q437.5 432.5 444.8 427.05 M444.95 416.85 Q436.5 419.8 420.7 417.35 M418.15 406.25 Q434.7 408.05 444.65 404.1 M443.0 431.1 L440.85 438.15 431.85 439.5 428.8 431.55 M425.6 464.5 Q438.55 465.3 450.2 462.35 M448.05 476.35 Q440.4 478.2 431.7 478.15 M446.2 488.35 Q441.15 490.2 434.8 489.15 M436.75 498.45 Q441.95 499.95 444.7 498.05 M356.6 431.1 L358.75 438.15 367.75 439.5 370.8 431.55 M376.8 427.4 Q362.1 432.5 354.8 427.05 M348.9 445.3 Q363.35 449.5 380.8 448.0 M381.45 406.25 Q364.9 408.0 354.95 404.1 M354.65 416.85 Q363.1 419.8 378.9 417.35 M351.6 476.35 Q359.2 478.2 367.9 478.15 M374.0 464.5 Q361.05 465.3 349.45 462.35 M353.45 488.35 Q358.45 490.2 364.8 489.15 M362.85 498.45 Q357.65 499.95 354.9 498.05" fill="none" stroke="#000000" stroke-linecap="round" stroke-linejoin="round" stroke-opacity="0.5019608" stroke-width="1.0"/>
    <path d="M433.3 336.4 L429.25 323.45 M370.4 323.45 Q368.2 329.9 366.3 336.4 M357.45 377.2 Q356.5 383.85 355.9 390.55 M384.45 394.4 L387.75 382.65 M362.45 350.95 Q360.8 357.8 359.5 364.7 M391.6 370.3 L395.2 359.5 M415.15 394.4 L411.85 382.65 M442.15 377.2 L443.7 390.55 M408.05 370.3 L404.4 359.5 M437.2 350.95 L440.1 364.7 M444.8 427.05 L449.25 439.95 Q450.2 442.55 450.7 445.3 M418.8 448.0 Q418.5 443.95 419.55 439.7 L422.8 427.4 M444.65 404.1 L444.95 416.85 M420.7 417.35 L418.15 406.25 M431.7 478.15 Q429.25 471.15 425.6 464.5 M450.2 462.35 L448.05 476.35 M434.8 489.15 L436.75 498.45 M444.7 498.05 L446.2 488.35 M380.8 448.0 Q381.1 443.95 380.05 439.7 L376.8 427.4 M354.8 427.05 L350.35 439.95 Q349.4 442.55 348.9 445.3 M378.9 417.35 Q380.1 411.75 381.45 406.25 M354.95 404.1 Q354.65 410.45 354.65 416.85 M349.45 462.35 L351.6 476.35 M367.9 478.15 Q370.35 471.15 374.0 464.5 M364.8 489.15 L362.85 498.45 M354.9 498.05 L353.45 488.35" fill="none" stroke="#000000" stroke-linecap="round" stroke-linejoin="round" stroke-width="1.0"/>
  </g>
</svg>
