<?xml version="1.0" encoding="UTF-8" standalone="no"?>
<svg xmlns:xlink="http://www.w3.org/1999/xlink" height="236.55px" width="153.4px" xmlns="http://www.w3.org/2000/svg">
  <g transform="matrix(1.0, 0.0, 0.0, 1.0, -323.1, -323.45)">
    <path d="M422.4 325.9 Q426.2 324.9 429.25 323.45 446.5 374.05 444.8 427.05 L449.25 439.95 Q452.3 448.35 450.8 458.25 L444.7 498.05 448.05 501.45 448.05 505.9 473.9 537.7 Q478.2 545.0 475.35 553.05 L471.1 560.0 469.35 560.0 Q472.25 545.3 465.9 537.45 L444.8 506.4 442.35 498.2 Q444.8 465.35 440.85 438.15 436.6 392.0 425.2 342.05 L422.4 325.9 M377.2 325.9 L374.4 342.05 Q363.0 392.0 358.75 438.15 354.8 465.35 357.25 498.2 L354.8 506.4 333.7 537.45 Q327.35 545.3 330.25 560.0 L328.5 560.0 324.25 553.05 Q321.4 545.0 325.7 537.7 L351.55 505.9 351.55 501.45 354.9 498.05 348.8 458.25 Q347.3 448.35 350.35 439.95 L354.8 427.05 Q353.1 374.05 370.4 323.45 373.4 324.9 377.2 325.9" fill="#000000" fill-rule="evenodd" stroke="none"/>
  </g>
</svg>
