<?xml version="1.0" encoding="UTF-8" standalone="no"?>
<svg xmlns:xlink="http://www.w3.org/1999/xlink" height="209.9px" width="125.6px" xmlns="http://www.w3.org/2000/svg">
  <g transform="matrix(1.0, 0.0, 0.0, 1.0, -337.0, -322.95)">
    <path d="M441.6 532.35 Q440.5 528.3 438.7 524.55 L436.2 520.05 Q433.7 515.5 434.55 509.5 L434.55 509.25 435.45 506.15 434.65 502.95 436.75 498.45 434.65 488.45 Q431.9 476.0 425.6 464.5 L421.3 457.35 420.8 456.3 Q417.45 448.35 419.55 439.7 L422.8 427.4 Q415.75 391.95 404.4 359.5 L395.2 359.5 Q383.85 391.95 376.8 427.4 L380.05 439.7 Q382.15 448.35 378.8 456.3 L378.3 457.35 Q376.0 460.85 374.0 464.5 367.7 476.0 364.95 488.45 L362.85 498.45 364.95 502.95 364.15 506.15 365.05 509.25 365.05 509.5 Q365.9 515.5 363.4 520.05 362.0 522.2 360.9 524.55 359.1 528.3 358.0 532.35 M337.5 523.2 L351.55 505.9 351.55 501.45 354.9 498.05 348.8 458.25 Q347.3 448.35 350.35 439.95 L354.8 427.05 Q353.1 374.05 370.4 323.45 M429.25 323.45 Q446.5 374.05 444.8 427.05 L449.25 439.95 Q452.3 448.35 450.8 458.25 L444.7 498.05 448.05 501.45 448.05 505.9 462.1 523.2" fill="none" stroke="#000000" stroke-linecap="round" stroke-linejoin="round" stroke-width="1.0"/>
    <path d="M395.2 359.5 L393.8 359.5 Q390.45 354.45 384.3 349.4 M358.0 532.35 Q347.75 521.55 337.5 523.2 M404.4 359.5 L405.8 359.5 Q409.15 354.45 415.3 349.4 M443.0 431.1 L440.85 438.15 431.85 439.5 428.8 431.55 M462.1 523.2 Q451.85 521.55 441.6 532.35 M356.6 431.1 L358.75 438.15 367.75 439.5 370.8 431.55" fill="none" stroke="#000000" stroke-linecap="round" stroke-linejoin="round" stroke-opacity="0.5019608" stroke-width="1.0"/>
  </g>
</svg>
