<?xml version="1.0" encoding="UTF-8" standalone="no"?>
<svg xmlns:xlink="http://www.w3.org/1999/xlink" height="109.8px" width="282.15px" xmlns="http://www.w3.org/2000/svg">
  <g transform="matrix(1.0, 0.0, 0.0, 1.0, -275.1, -343.55)">
    <path d="M354.75 365.6 L355.35 358.75 363.95 348.4 360.3 347.05 358.85 348.3 M354.75 365.6 L356.75 366.3 357.9 368.0 Q362.35 355.3 372.75 358.5 363.3 360.9 364.65 371.4 L366.4 371.2 371.95 373.2 Q381.2 373.3 391.0 370.0 L401.55 380.9 Q416.65 386.6 423.7 384.3 429.5 388.0 436.05 390.3 L514.55 418.2 Q542.45 429.8 556.75 450.15 532.75 456.6 503.85 447.5 L425.85 418.4 Q419.3 416.0 412.5 415.1 408.55 408.8 393.35 403.45 L378.3 404.95 Q372.9 396.15 365.75 390.3 L360.2 388.3 358.95 387.0 Q351.2 394.15 356.85 402.1 346.85 397.9 351.6 385.3 L349.65 385.75 347.65 385.05 343.75 390.7 343.65 404.2 340.0 402.85 339.65 401.0 336.45 399.85 335.75 397.3 332.5 396.1 328.3 384.05 333.25 378.7 325.45 370.55 287.05 356.2 283.75 358.1 280.6 356.95 275.6 347.8 285.3 344.05 288.45 345.2 289.75 348.8 328.35 362.45 339.65 361.2 339.2 353.95 350.2 347.4 353.45 348.6 355.65 347.05 358.85 348.3" fill="none" stroke="#000000" stroke-linecap="round" stroke-linejoin="round" stroke-width="1.0"/>
    <path d="M358.85 348.3 L348.7 356.9 347.8 363.05 354.75 365.6 M339.65 361.2 L342.0 360.95 343.25 361.4 343.95 355.5 353.45 348.6 M333.25 378.7 L334.9 380.4 336.15 380.85 340.7 382.5 347.65 385.05 M340.7 382.5 L337.4 387.9 339.65 401.0 M335.75 397.3 L332.95 385.85 336.15 380.85 M364.65 371.4 L360.7 371.95 356.45 372.4 346.5 373.6 353.35 380.95 356.3 384.05 358.95 387.0 M356.3 384.05 L351.6 385.3 M325.45 370.55 L353.35 380.95 M356.45 372.4 L328.35 362.45 M357.9 368.0 L360.7 371.95 M347.8 363.05 L343.25 361.4 M369.15 392.45 L391.95 393.4 402.05 393.85 385.8 387.95 365.75 390.3 369.15 392.45 380.1 399.35 394.15 401.1 Q405.6 404.9 414.3 411.3 L424.4 414.1 490.15 437.4 Q514.05 445.35 535.35 442.35 L482.7 423.2 Q475.15 423.9 464.8 419.9 L391.95 393.4 M371.95 373.2 L375.95 373.75 388.8 375.55 400.65 383.15 Q411.9 387.7 422.7 388.3 L432.2 392.7 497.55 417.1 Q520.95 426.35 535.35 442.35 L556.75 450.15 M482.7 423.2 Q477.35 417.8 466.9 414.2 L394.05 387.7 402.05 393.85 M375.95 373.75 L394.05 387.7 M385.8 387.95 L371.95 373.2 M289.75 348.8 L285.9 347.4 280.1 349.45 283.2 354.8 287.05 356.2" fill="none" stroke="#000000" stroke-linecap="round" stroke-linejoin="round" stroke-opacity="0.5019608" stroke-width="1.0"/>
  </g>
</svg>
