<?xml version="1.0" encoding="UTF-8" standalone="no"?>
<svg xmlns:xlink="http://www.w3.org/1999/xlink" height="66.65px" width="36.55px" xmlns="http://www.w3.org/2000/svg">
  <g transform="matrix(1.0, 0.0, 0.0, 1.0, 97.05, -60.65)">
    <path d="M-95.85 71.9 L-92.8 71.45 Q-88.8 98.15 -78.85 127.3 -84.4 122.85 -86.7 119.5 -93.3 95.2 -95.85 71.9" fill="url(#gradient0)" fill-rule="evenodd" stroke="none"/>
    <path d="M-89.55 71.6 L-86.5 71.0 Q-81.05 97.5 -69.6 126.1 -75.4 121.95 -77.85 118.7 -85.75 94.75 -89.55 71.6" fill="url(#gradient1)" fill-rule="evenodd" stroke="none"/>
    <path d="M-83.25 71.35 L-80.25 70.6 Q-73.4 96.8 -60.5 124.75 -66.5 120.95 -69.1 117.8 -78.25 94.3 -83.25 71.35" fill="url(#gradient2)" fill-rule="evenodd" stroke="none"/>
    <path d="M-83.25 71.35 L-84.3 71.55 Q-85.55 65.15 -83.75 60.65 -80.7 65.4 -78.9 70.3 L-80.25 70.6 -83.25 71.35" fill="url(#gradient3)" fill-rule="evenodd" stroke="none"/>
    <path d="M-89.55 71.6 L-90.55 71.75 Q-91.5 65.25 -89.6 61.05 -86.45 65.8 -85.15 70.75 L-86.5 71.0 -89.55 71.6" fill="url(#gradient4)" fill-rule="evenodd" stroke="none"/>
    <path d="M-95.85 71.9 L-96.9 72.0 Q-97.5 65.45 -95.65 61.95 -92.75 65.9 -91.45 71.25 L-92.8 71.45 -95.85 71.9" fill="url(#gradient5)" fill-rule="evenodd" stroke="none"/>
    <path d="M-75.5 86.7 L-78.6 89.75 -81.4 79.15 -78.5 76.9 -75.5 86.7 M-84.15 81.3 L-81.2 92.4 -84.55 95.7 -87.25 83.75 -84.15 81.3 M-90.2 86.05 L-87.35 98.5 -90.95 102.05 -93.5 88.65 -90.2 86.05 M-65.7 113.0 L-69.55 116.65 -73.95 104.55 -70.4 101.25 -65.7 113.0 M-80.4 110.55 L-76.65 107.05 -72.25 119.25 -74.95 121.85 -77.85 118.7 -80.4 110.55 M-87.35 117.0 L-83.35 113.25 -79.3 126.0 -79.85 126.5 Q-84.6 122.55 -86.7 119.5 L-87.35 117.0" fill="#ffffff" fill-opacity="0.5019608" fill-rule="evenodd" stroke="none"/>
  </g>
  <defs>
    <linearGradient gradientTransform="matrix(0.0, 0.0341, -0.0104, 0.0, -87.35, 99.35)" gradientUnits="userSpaceOnUse" id="gradient0" spreadMethod="pad" x1="-819.2" x2="819.2">
      <stop offset="0.0" stop-color="#000000" stop-opacity="0.2509804"/>
      <stop offset="1.0" stop-color="#000000" stop-opacity="0.0"/>
    </linearGradient>
    <linearGradient gradientTransform="matrix(0.0, 0.0336, -0.0122, 0.0, -79.55, 98.55)" gradientUnits="userSpaceOnUse" id="gradient1" spreadMethod="pad" x1="-819.2" x2="819.2">
      <stop offset="0.0" stop-color="#000000" stop-opacity="0.2509804"/>
      <stop offset="1.0" stop-color="#000000" stop-opacity="0.0"/>
    </linearGradient>
    <linearGradient gradientTransform="matrix(0.0, 0.0331, -0.0139, 0.0, -71.85, 97.65)" gradientUnits="userSpaceOnUse" id="gradient2" spreadMethod="pad" x1="-819.2" x2="819.2">
      <stop offset="0.0" stop-color="#000000" stop-opacity="0.2509804"/>
      <stop offset="1.0" stop-color="#000000" stop-opacity="0.0"/>
    </linearGradient>
    <linearGradient gradientTransform="matrix(0.0, 0.0067, -0.0036, 0.0, -81.85, 66.1)" gradientUnits="userSpaceOnUse" id="gradient3" spreadMethod="pad" x1="-819.2" x2="819.2">
      <stop offset="0.0" stop-color="#000000" stop-opacity="0.2509804"/>
      <stop offset="1.0" stop-color="#000000" stop-opacity="0.0"/>
    </linearGradient>
    <linearGradient gradientTransform="matrix(0.0, 0.0065, -0.0035, 0.0, -88.0, 66.4)" gradientUnits="userSpaceOnUse" id="gradient4" spreadMethod="pad" x1="-819.2" x2="819.2">
      <stop offset="0.0" stop-color="#000000" stop-opacity="0.2509804"/>
      <stop offset="1.0" stop-color="#000000" stop-opacity="0.0"/>
    </linearGradient>
    <linearGradient gradientTransform="matrix(0.0, 0.0061, -0.0034, 0.0, -94.25, 66.95)" gradientUnits="userSpaceOnUse" id="gradient5" spreadMethod="pad" x1="-819.2" x2="819.2">
      <stop offset="0.0" stop-color="#000000" stop-opacity="0.2509804"/>
      <stop offset="1.0" stop-color="#000000" stop-opacity="0.0"/>
    </linearGradient>
  </defs>
</svg>
