<?xml version="1.0" encoding="UTF-8" standalone="no"?>
<svg xmlns:xlink="http://www.w3.org/1999/xlink" height="97.95px" width="272.55px" xmlns="http://www.w3.org/2000/svg">
  <g transform="matrix(1.0, 0.0, 0.0, 1.0, 137.0, -38.25)">
    <path d="M-56.2 70.95 Q-37.4 78.85 -18.15 86.05 L-0.9 92.35 7.9 95.4 14.55 97.65 23.95 100.7 26.35 101.5 53.55 109.8 74.2 115.6 84.85 118.4 94.45 120.8 102.1 122.65 107.2 123.9 135.55 130.15 Q133.1 131.8 128.4 132.45 L102.75 126.6 97.65 125.4 90.05 123.5 80.45 121.05 69.85 118.25 49.2 112.5 Q35.35 108.45 21.95 104.15 L19.55 103.4 10.2 100.3 3.55 98.05 -5.25 95.0 -22.45 88.7 Q-40.5 81.9 -57.65 74.5 L-56.2 70.95" fill="url(#gradient0)" fill-rule="evenodd" stroke="none"/>
    <path d="M-57.65 74.5 Q-40.5 81.9 -22.45 88.7 L-5.25 95.0 3.55 98.05 10.2 100.3 19.55 103.4 21.95 104.15 Q35.35 108.45 49.2 112.5 L69.85 118.25 80.45 121.05 90.05 123.5 97.65 125.4 102.75 126.6 128.4 132.45 127.25 136.2 97.6 129.8 92.45 128.6 84.8 126.75 75.2 124.3 64.55 121.55 43.85 115.8 Q30.15 111.8 16.6 107.45 L14.2 106.7 4.8 103.6 -1.8 101.35 -10.6 98.3 -27.85 92.0 -59.3 79.6 -57.65 74.5" fill="url(#gradient1)" fill-rule="evenodd" stroke="none"/>
    <path d="M-56.2 70.95 L-57.65 74.5 -59.3 79.6 -60.0 79.55 -65.8 77.35 -67.3 76.75 Q-65.85 70.05 -63.6 67.55 L-61.55 68.4 -56.35 70.5 Q-56.0 70.6 -56.2 70.95" fill="url(#gradient2)" fill-rule="evenodd" stroke="none"/>
    <path d="M-80.3 60.2 Q-79.0 60.75 -77.6 61.4 L-76.1 62.05 -75.95 62.2 -77.45 63.45 -81.5 67.1 -81.6 64.9 -81.85 61.5 -80.3 60.2" fill="url(#gradient3)" fill-rule="evenodd" stroke="none"/>
    <path d="M-75.95 62.2 L-75.9 62.15 Q-74.95 62.6 -73.95 63.0 L-73.2 63.25 -72.8 63.45 -70.9 64.25 -76.9 69.45 -77.45 63.45 -75.95 62.2" fill="url(#gradient4)" fill-rule="evenodd" stroke="none"/>
    <path d="M-71.0 69.3 L-68.95 65.15 -66.8 66.05 -68.75 70.25 -69.8 72.75 -70.8 75.45 -72.75 74.65 -72.25 72.85 -71.35 70.1 -71.0 69.3" fill="url(#gradient5)" fill-rule="evenodd" stroke="none"/>
    <path d="M-65.8 77.35 Q-68.4 82.15 -69.5 81.65 -71.3 80.4 -68.5 73.25 -64.1 62.0 -61.15 62.1 -59.65 62.55 -61.55 68.4 L-63.6 67.55 Q-65.85 70.05 -67.3 76.75 L-65.8 77.35" fill="url(#gradient6)" fill-rule="evenodd" stroke="none"/>
    <path d="M-113.1 47.9 L-117.9 51.3 -117.75 45.95 -115.7 44.45 -113.1 45.65 -111.2 46.5 -113.1 47.9" fill="url(#gradient7)" fill-rule="evenodd" stroke="none"/>
    <path d="M-117.75 45.95 L-122.8 49.45 -122.6 44.15 -120.25 42.35 -117.7 43.5 -115.7 44.45 -117.75 45.95" fill="url(#gradient8)" fill-rule="evenodd" stroke="none"/>
    <path d="M-108.85 49.85 L-113.15 53.2 -113.1 47.9 -111.2 46.5 -108.85 47.55 -107.0 48.4 -108.85 49.85" fill="url(#gradient9)" fill-rule="evenodd" stroke="none"/>
    <path d="M-122.6 44.15 L-127.05 47.45 -126.95 42.15 -124.75 40.3 -122.45 41.35 -120.25 42.35 -122.6 44.15" fill="url(#gradient10)" fill-rule="evenodd" stroke="none"/>
    <path d="M-126.95 42.15 L-131.45 46.05 -131.2 40.0 -129.15 38.25 -126.9 39.3 -124.75 40.3 -126.95 42.15" fill="url(#gradient11)" fill-rule="evenodd" stroke="none"/>
    <path d="M-91.0 57.7 L-95.25 61.25 -95.8 55.4 -94.25 54.05 -91.15 55.45 -89.3 56.25 -91.0 57.7" fill="url(#gradient12)" fill-rule="evenodd" stroke="none"/>
    <path d="M-86.35 59.55 L-90.55 63.25 -91.0 57.7 -89.3 56.25 -86.4 57.6 -84.8 58.3 -86.35 59.55" fill="url(#gradient13)" fill-rule="evenodd" stroke="none"/>
    <path d="M-84.55 63.8 L-86.15 65.2 -86.35 59.55 -84.8 58.3 -81.95 59.5 -80.3 60.2 -81.85 61.5 -84.55 63.8" fill="url(#gradient14)" fill-rule="evenodd" stroke="none"/>
    <path d="M-95.8 55.4 L-99.9 58.85 -100.1 53.5 -98.55 52.2 -96.05 53.3 -94.25 54.05 -95.8 55.4" fill="url(#gradient15)" fill-rule="evenodd" stroke="none"/>
    <path d="M-100.1 53.5 L-104.5 57.1 -104.55 51.85 -102.7 50.3 -100.15 51.45 -98.55 52.2 -100.1 53.5" fill="url(#gradient16)" fill-rule="evenodd" stroke="none"/>
    <path d="M-81.6 64.9 L-84.35 67.2 -84.55 63.8 -81.85 61.5 -81.6 64.9" fill="url(#gradient17)" fill-rule="evenodd" stroke="none"/>
    <path d="M-104.55 51.85 L-108.8 55.4 -108.85 49.85 -107.0 48.4 Q-105.75 48.9 -104.55 49.5 L-102.7 50.3 -104.55 51.85" fill="url(#gradient18)" fill-rule="evenodd" stroke="none"/>
    <path d="M14.55 97.65 L4.8 103.6 -1.8 101.35 7.9 95.4 14.55 97.65 M26.35 101.5 Q21.5 104.5 16.6 107.45 L14.2 106.7 23.95 100.7 26.35 101.5 M43.85 115.8 L53.55 109.8 74.2 115.6 64.55 121.55 43.85 115.8 M94.45 120.8 L84.8 126.75 75.2 124.3 84.85 118.4 94.45 120.8 M97.6 129.8 L92.45 128.6 102.1 122.65 107.2 123.9 97.6 129.8 M-10.6 98.3 L-27.85 92.0 -18.15 86.05 -0.9 92.35 -10.6 98.3" fill="#ffffff" fill-opacity="0.5019608" fill-rule="evenodd" stroke="none"/>
    <path d="M-70.8 75.45 L-115.85 55.3 -115.95 55.3 -135.6 46.4 Q-138.2 44.25 -136.0 40.45 L-133.55 41.55 -133.85 42.15 -133.25 41.65 -68.75 70.25 -69.8 72.75 -70.8 75.45" fill="#000000" fill-opacity="0.2" fill-rule="evenodd" stroke="none"/>
  </g>
  <defs>
    <linearGradient gradientTransform="matrix(0.0, 0.0375, -0.1179, 0.0, 38.95, 101.7)" gradientUnits="userSpaceOnUse" id="gradient0" spreadMethod="pad" x1="-819.2" x2="819.2">
      <stop offset="0.0" stop-color="#000000" stop-opacity="0.2509804"/>
      <stop offset="1.0" stop-color="#000000" stop-opacity="0.0"/>
    </linearGradient>
    <linearGradient gradientTransform="matrix(0.0, 0.0377, -0.1146, 0.0, 34.55, 105.35)" gradientUnits="userSpaceOnUse" id="gradient1" spreadMethod="pad" x1="-819.2" x2="819.2">
      <stop offset="0.0" stop-color="#000000" stop-opacity="0.2509804"/>
      <stop offset="1.0" stop-color="#000000" stop-opacity="0.0"/>
    </linearGradient>
    <linearGradient gradientTransform="matrix(0.0, 0.0074, -0.0068, 0.0, -61.7, 73.6)" gradientUnits="userSpaceOnUse" id="gradient2" spreadMethod="pad" x1="-819.2" x2="819.2">
      <stop offset="0.0" stop-color="#000000" stop-opacity="0.2509804"/>
      <stop offset="1.0" stop-color="#000000" stop-opacity="0.0"/>
    </linearGradient>
    <linearGradient gradientTransform="matrix(0.0029, 0.0016, -0.0022, 0.0038, -80.05, 63.85)" gradientUnits="userSpaceOnUse" id="gradient3" spreadMethod="pad" x1="-819.2" x2="819.2">
      <stop offset="0.0" stop-color="#000000" stop-opacity="0.2509804"/>
      <stop offset="1.0" stop-color="#000000" stop-opacity="0.0"/>
    </linearGradient>
    <linearGradient gradientTransform="matrix(0.0032, 0.0018, -0.0023, 0.004, -75.35, 66.0)" gradientUnits="userSpaceOnUse" id="gradient4" spreadMethod="pad" x1="-819.2" x2="819.2">
      <stop offset="0.0" stop-color="#000000" stop-opacity="0.2509804"/>
      <stop offset="1.0" stop-color="#000000" stop-opacity="0.0"/>
    </linearGradient>
    <linearGradient gradientTransform="matrix(0.0, 0.0063, -0.0036, 0.0, -69.75, 70.3)" gradientUnits="userSpaceOnUse" id="gradient5" spreadMethod="pad" x1="-819.2" x2="819.2">
      <stop offset="0.0" stop-color="#000000" stop-opacity="0.2509804"/>
      <stop offset="1.0" stop-color="#000000" stop-opacity="0.0"/>
    </linearGradient>
    <linearGradient gradientTransform="matrix(0.0, 0.012, -0.0059, 0.0, -65.35, 71.9)" gradientUnits="userSpaceOnUse" id="gradient6" spreadMethod="pad" x1="-819.2" x2="819.2">
      <stop offset="0.0" stop-color="#000000" stop-opacity="0.2509804"/>
      <stop offset="1.0" stop-color="#000000" stop-opacity="0.0"/>
    </linearGradient>
    <linearGradient gradientTransform="matrix(0.0, 0.0042, -0.0041, 0.0, -114.55, 47.85)" gradientUnits="userSpaceOnUse" id="gradient7" spreadMethod="pad" x1="-819.2" x2="819.2">
      <stop offset="0.0" stop-color="#000000" stop-opacity="0.2509804"/>
      <stop offset="1.0" stop-color="#000000" stop-opacity="0.0"/>
    </linearGradient>
    <linearGradient gradientTransform="matrix(0.0, 0.0043, -0.0043, 0.0, -119.25, 45.9)" gradientUnits="userSpaceOnUse" id="gradient8" spreadMethod="pad" x1="-819.2" x2="819.2">
      <stop offset="0.0" stop-color="#000000" stop-opacity="0.2509804"/>
      <stop offset="1.0" stop-color="#000000" stop-opacity="0.0"/>
    </linearGradient>
    <linearGradient gradientTransform="matrix(0.0014, 8.0E-4, -0.0022, 0.0038, -111.85, 49.7)" gradientUnits="userSpaceOnUse" id="gradient9" spreadMethod="pad" x1="-819.2" x2="819.2">
      <stop offset="0.0" stop-color="#000000" stop-opacity="0.2509804"/>
      <stop offset="1.0" stop-color="#000000" stop-opacity="0.0"/>
    </linearGradient>
    <linearGradient gradientTransform="matrix(0.0, 0.0044, -0.0042, 0.0, -123.65, 43.85)" gradientUnits="userSpaceOnUse" id="gradient10" spreadMethod="pad" x1="-819.2" x2="819.2">
      <stop offset="0.0" stop-color="#000000" stop-opacity="0.2509804"/>
      <stop offset="1.0" stop-color="#000000" stop-opacity="0.0"/>
    </linearGradient>
    <linearGradient gradientTransform="matrix(0.0, 0.0048, -0.0041, 0.0, -128.1, 42.15)" gradientUnits="userSpaceOnUse" id="gradient11" spreadMethod="pad" x1="-819.2" x2="819.2">
      <stop offset="0.0" stop-color="#000000" stop-opacity="0.2509804"/>
      <stop offset="1.0" stop-color="#000000" stop-opacity="0.0"/>
    </linearGradient>
    <linearGradient gradientTransform="matrix(0.0022, 0.0022, -0.0033, 0.0033, -93.85, 57.15)" gradientUnits="userSpaceOnUse" id="gradient12" spreadMethod="pad" x1="-819.2" x2="819.2">
      <stop offset="0.0" stop-color="#000000" stop-opacity="0.2509804"/>
      <stop offset="1.0" stop-color="#000000" stop-opacity="0.0"/>
    </linearGradient>
    <linearGradient gradientTransform="matrix(0.0021, 0.0021, -0.0033, 0.0033, -89.15, 59.25)" gradientUnits="userSpaceOnUse" id="gradient13" spreadMethod="pad" x1="-819.2" x2="819.2">
      <stop offset="0.0" stop-color="#000000" stop-opacity="0.2509804"/>
      <stop offset="1.0" stop-color="#000000" stop-opacity="0.0"/>
    </linearGradient>
    <linearGradient gradientTransform="matrix(0.0013, 8.0E-4, -0.0022, 0.0038, -84.15, 62.15)" gradientUnits="userSpaceOnUse" id="gradient14" spreadMethod="pad" x1="-819.2" x2="819.2">
      <stop offset="0.0" stop-color="#000000" stop-opacity="0.2509804"/>
      <stop offset="1.0" stop-color="#000000" stop-opacity="0.0"/>
    </linearGradient>
    <linearGradient gradientTransform="matrix(9.0E-4, 9.0E-4, -0.0032, 0.0032, -96.85, 56.65)" gradientUnits="userSpaceOnUse" id="gradient15" spreadMethod="pad" x1="-819.2" x2="819.2">
      <stop offset="0.0" stop-color="#000000" stop-opacity="0.2509804"/>
      <stop offset="1.0" stop-color="#000000" stop-opacity="0.0"/>
    </linearGradient>
    <linearGradient gradientTransform="matrix(0.002, 0.0011, -0.0022, 0.0038, -101.1, 54.85)" gradientUnits="userSpaceOnUse" id="gradient16" spreadMethod="pad" x1="-819.2" x2="819.2">
      <stop offset="0.0" stop-color="#000000" stop-opacity="0.2509804"/>
      <stop offset="1.0" stop-color="#000000" stop-opacity="0.0"/>
    </linearGradient>
    <linearGradient gradientTransform="matrix(0.0, 0.0035, -0.0018, 0.0, -83.05, 64.35)" gradientUnits="userSpaceOnUse" id="gradient17" spreadMethod="pad" x1="-819.2" x2="819.2">
      <stop offset="0.0" stop-color="#000000" stop-opacity="0.2509804"/>
      <stop offset="1.0" stop-color="#000000" stop-opacity="0.0"/>
    </linearGradient>
    <linearGradient gradientTransform="matrix(0.0016, 5.0E-4, -0.0011, 0.0042, -106.0, 52.4)" gradientUnits="userSpaceOnUse" id="gradient18" spreadMethod="pad" x1="-819.2" x2="819.2">
      <stop offset="0.0" stop-color="#000000" stop-opacity="0.2509804"/>
      <stop offset="1.0" stop-color="#000000" stop-opacity="0.0"/>
    </linearGradient>
  </defs>
</svg>
