<?xml version="1.0" encoding="UTF-8" standalone="no"?>
<svg xmlns:xlink="http://www.w3.org/1999/xlink" height="214.4px" width="316.9px" xmlns="http://www.w3.org/2000/svg">
  <g transform="matrix(1.0, 0.0, 0.0, 1.0, -143.7, -295.9)">
    <path d="M392.55 385.55 Q401.15 386.65 408.0 384.2 L405.95 375.75 401.85 377.45 407.8 361.05 419.45 375.05 417.3 374.25 418.35 379.85 Q421.95 378.85 425.15 378.75 L426.7 364.7 431.5 379.5 Q435.05 380.45 438.15 382.75 438.45 371.25 436.95 359.5 L458.55 352.45 Q460.85 365.25 460.6 378.1 L460.45 383.6 Q458.3 423.35 432.85 465.0 404.35 508.4 359.2 510.3 414.5 481.05 432.0 421.9 L433.45 416.6 Q436.8 392.85 418.35 394.1 L418.0 394.15 417.3 394.3 Q399.7 401.6 388.45 396.8 L381.4 397.15 372.65 390.45 376.7 379.25 387.65 380.0 392.55 385.55 M143.7 307.1 L147.75 295.9 154.3 298.3 150.25 309.5 143.7 307.1 M449.6 403.45 Q442.55 403.5 444.15 411.45 448.3 408.5 449.6 403.45" fill="#ffffff" fill-rule="evenodd" stroke="none"/>
  </g>
</svg>
