<?xml version="1.0" encoding="UTF-8" standalone="no"?>
<svg xmlns:xlink="http://www.w3.org/1999/xlink" height="46.0px" width="44.7px" xmlns="http://www.w3.org/2000/svg">
  <g transform="matrix(1.0, 0.0, 0.0, 1.0, -290.0, -343.5)">
    <path d="M326.1 353.9 Q327.9 353.35 328.35 354.35 328.75 355.35 329.75 355.0 L330.35 354.35 Q330.9 353.55 331.95 353.6 L332.65 353.9 333.2 354.35 Q333.7 354.9 334.7 354.8 333.8 355.2 333.65 356.0 L333.55 356.5 332.9 357.25 Q332.1 357.9 331.2 357.45 L330.4 357.25 Q329.4 357.45 329.55 358.5 329.7 359.6 327.85 360.05 326.7 360.55 326.15 361.75 325.85 362.35 325.85 363.25 L322.9 352.25 Q323.5 353.3 324.3 353.6 325.1 354.05 326.1 353.9 M324.75 373.8 Q324.45 373.3 323.7 373.1 322.7 373.05 323.15 371.55 323.3 370.6 324.1 370.55 324.9 370.55 325.35 371.55 325.55 372.1 325.9 372.45 L324.75 373.8 M292.75 368.75 L291.85 368.4 291.5 368.05 Q291.0 367.5 290.0 367.55 290.9 367.15 291.05 366.4 L291.25 365.7 291.8 365.1 Q292.6 364.5 293.5 364.9 L294.3 365.1 Q295.25 364.9 295.15 363.85 294.95 362.75 296.85 362.25 297.7 361.95 298.15 361.1 298.65 360.4 298.7 359.2 L302.05 370.05 300.95 368.95 Q299.85 368.25 298.6 368.4 296.75 369.0 296.35 368.05 295.9 367.05 294.95 367.35 L294.35 368.05 Q293.8 368.85 292.75 368.75 M315.85 349.35 Q319.65 352.65 320.9 356.9 321.85 360.35 319.25 363.35 317.15 365.05 315.3 364.35 313.5 363.7 312.7 362.25 312.7 363.9 311.45 365.45 310.3 367.0 307.7 366.65 303.75 365.5 302.85 362.1 301.65 357.8 303.1 353.0 304.55 348.25 306.35 344.1 307.9 346.6 309.5 351.2 L309.65 351.7 309.4 350.55 Q308.4 346.25 308.45 343.5 L315.85 349.35 M319.45 373.55 Q318.7 373.1 318.6 372.7 318.15 371.7 319.45 370.6 321.2 371.0 321.5 372.6 321.65 374.7 323.25 374.4 L323.95 374.4 323.35 374.8 Q321.9 375.8 319.9 379.05 L319.25 380.25 319.3 381.3 Q319.5 382.35 320.5 382.7 L321.05 382.95 Q321.45 383.4 321.35 384.2 321.3 384.95 320.75 385.45 319.85 386.25 320.9 387.05 321.15 388.65 320.45 389.5 319.35 389.15 318.8 387.65 319.25 386.4 318.0 386.25 317.35 386.15 316.8 385.5 316.3 384.85 316.5 384.25 L316.8 383.75 Q317.45 382.95 317.1 381.9 L316.6 381.0 315.3 380.35 Q312.0 378.65 310.25 378.55 L309.5 378.55 Q309.7 378.3 310.15 378.15 311.65 377.55 310.7 375.7 310.05 374.2 311.25 373.0 313.0 373.2 313.1 374.3 313.25 374.65 312.85 375.4 312.35 376.85 313.3 377.55 313.35 376.55 315.85 373.4 319.6 374.75 320.2 375.55 320.6 374.45 319.45 373.55 M306.85 376.85 Q306.65 375.8 307.3 375.35 307.95 375.0 308.7 375.7 309.8 376.7 309.05 377.25 308.5 377.9 308.55 378.45 307.35 378.35 306.85 377.9 L306.85 376.85" fill="#ffffff" fill-rule="evenodd" stroke="none"/>
  </g>
</svg>
