<?xml version="1.0" encoding="UTF-8" standalone="no"?>
<svg xmlns:xlink="http://www.w3.org/1999/xlink" height="372.95px" width="178.9px" xmlns="http://www.w3.org/2000/svg">
  <g transform="matrix(1.0, 0.0, 0.0, 1.0, -24.1, -16.9)">
    <path d="M169.7 83.4 Q171.7 78.25 174.2 80.8 181.35 136.4 203.0 153.4 L203.0 200.55 196.5 206.15 Q191.4 210.3 186.55 214.75 181.4 219.2 176.55 223.8 L169.1 230.9 157.65 242.4 145.7 255.1 Q139.5 261.75 133.75 268.65 127.4 275.9 121.45 283.45 114.95 291.8 108.8 300.3 115.25 256.4 126.3 213.0 120.25 216.8 114.45 220.95 108.2 225.45 102.15 230.4 96.1 235.1 90.3 240.4 86.6 246.2 83.2 251.95 L76.5 263.55 73.95 268.25 Q70.3 275.1 66.85 282.15 L66.65 282.55 66.25 282.5 Q65.7 283.9 65.3 285.45 L65.1 285.75 Q61.15 294.15 57.5 302.65 L57.25 303.2 56.4 305.45 53.2 313.45 Q46.75 329.8 42.1 346.5 L38.2 362.1 Q34.95 367.6 30.05 386.35 29.35 389.85 26.6 389.85 23.65 389.35 24.15 387.5 63.45 181.1 125.65 21.6 127.15 16.0 131.9 17.1 132.8 17.25 133.35 17.75 135.0 19.2 133.35 23.95 118.85 77.5 128.2 128.7 L149.6 135.8 Q158.75 109.4 169.7 83.4" fill="#000000" fill-rule="evenodd" stroke="none"/>
  </g>
</svg>
