<?xml version="1.0" encoding="UTF-8" standalone="no"?>
<svg xmlns:xlink="http://www.w3.org/1999/xlink" height="74.95px" width="43.0px" xmlns="http://www.w3.org/2000/svg">
  <g transform="matrix(1.0, 0.0, 0.0, 1.0, -124.35, -144.15)">
    <path d="M155.05 159.25 Q156.1 160.9 158.15 161.0 158.6 160.75 158.5 160.2 159.7 160.95 159.3 163.65 158.9 164.1 158.3 164.1 157.2 162.3 155.85 162.2 154.7 162.4 153.6 161.65 L151.65 160.3 Q150.25 159.15 148.55 160.8 148.3 162.05 149.6 162.2 151.6 164.6 154.95 165.15 156.0 166.8 158.15 166.5 157.15 168.05 155.6 167.55 L155.4 167.45 Q154.55 166.95 153.7 167.2 L152.15 167.4 Q153.1 166.25 151.35 165.85 L149.05 165.55 Q150.45 165.5 149.95 164.7 148.15 162.9 146.2 162.65 144.25 162.6 143.2 161.6 144.65 160.55 144.0 160.35 141.5 159.85 141.3 165.2 142.2 169.85 147.95 171.65 149.45 172.1 150.8 173.45 148.7 174.35 146.85 175.7 143.7 174.6 140.95 172.3 L140.85 172.2 Q139.45 170.65 139.05 171.85 138.2 166.4 137.2 168.75 137.8 163.9 135.8 165.3 137.45 162.05 135.4 162.1 137.85 159.5 135.75 159.35 139.35 157.25 137.8 156.15 141.0 155.95 140.45 154.4 144.85 155.6 143.0 153.35 L145.95 154.85 Q145.2 151.7 135.25 151.3 140.65 150.6 145.8 152.25 143.5 150.65 139.0 149.95 147.55 149.9 152.4 157.0 154.45 158.0 155.05 159.25 M149.4 152.8 L146.1 150.8 Q156.5 148.8 167.35 154.1 156.55 150.25 149.4 152.8 M143.1 154.35 L139.8 154.0 Q140.7 155.5 137.3 155.75 138.4 157.25 134.85 159.6 136.9 159.9 134.2 162.8 137.05 161.6 135.2 165.9 L135.75 165.95 Q134.5 173.1 140.35 181.35 144.7 190.15 146.75 199.4 148.4 207.45 146.1 215.05 L145.7 214.45 Q147.5 207.55 145.9 200.75 144.0 194.6 140.35 188.5 137.8 184.55 134.55 180.65 128.55 173.7 130.7 165.15 132.55 157.35 141.75 152.5 143.4 152.8 144.8 153.8 143.35 153.05 142.5 153.2 L143.1 154.35 M142.0 164.1 L144.85 164.9 Q154.7 168.35 157.8 175.2 160.4 181.2 155.55 189.7 147.75 200.45 153.9 212.5 146.9 200.9 153.05 188.95 156.15 181.3 153.7 176.35 152.75 173.65 149.15 171.7 141.2 168.5 142.0 164.1 M158.6 162.9 L158.5 161.7 157.95 161.85 158.6 162.9 M145.25 150.4 Q140.45 148.85 136.0 149.85 L139.1 150.45 Q135.1 150.25 133.1 152.1 L140.4 152.4 Q130.85 157.8 129.8 166.5 L129.75 166.8 Q128.8 172.6 131.8 178.25 128.45 172.9 128.45 166.55 L128.9 162.0 Q128.9 160.2 127.3 161.2 125.75 162.6 125.75 165.3 124.9 160.9 128.0 157.2 128.8 155.9 127.15 155.9 125.85 156.1 124.35 158.95 124.95 156.45 126.4 154.45 129.65 149.9 137.3 148.8 146.7 147.9 156.25 149.8 150.5 148.95 145.25 150.4 M157.7 174.2 Q157.05 172.75 155.95 171.5 162.9 167.5 162.95 161.5 164.4 168.25 157.7 174.2 M146.7 197.35 Q151.85 187.9 150.25 180.15 L153.75 177.8 Q156.25 186.15 147.05 198.7 L146.7 197.35 M153.65 177.25 Q147.35 181.4 142.8 185.35 L140.95 181.35 Q145.1 176.65 151.1 173.75 153.05 175.3 153.65 177.25 M137.75 185.5 L140.05 189.0 Q133.8 196.25 139.5 206.5 L138.65 207.35 Q130.4 195.3 137.75 185.5 M132.7 149.35 L130.15 150.55 Q131.15 147.1 133.25 144.15 131.95 146.85 132.7 149.35 M150.45 157.1 Q150.15 158.95 153.1 158.95 152.3 157.2 150.45 157.1 M144.05 219.1 L145.35 215.9 145.7 216.4 144.05 219.1 M139.4 208.4 L140.15 207.6 Q144.75 213.2 147.05 217.9 144.0 213.25 139.4 208.4 M145.2 199.9 L145.45 200.7 Q141.15 205.9 136.25 210.75 141.2 205.45 145.2 199.9" fill="#000000" fill-rule="evenodd" stroke="none"/>
  </g>
</svg>
