<?xml version="1.0" encoding="UTF-8" standalone="no"?>
<svg xmlns:xlink="http://www.w3.org/1999/xlink" height="101.55px" width="157.0px" xmlns="http://www.w3.org/2000/svg">
  <g transform="matrix(1.0, 0.0, 0.0, 1.0, -122.2, -129.6)">
    <path d="M224.15 131.85 Q255.15 137.05 276.45 153.15 283.35 177.85 272.95 203.65 266.55 206.45 258.6 206.05 253.55 216.6 250.45 228.4 L249.85 231.15 Q234.7 226.9 184.5 229.7 184.05 220.75 182.95 211.95 169.65 205.2 158.45 196.4 L155.9 203.3 Q141.95 205.4 123.7 198.95 119.4 170.95 127.6 144.15 148.9 135.95 172.2 129.6 182.2 143.1 221.05 144.05 230.0 142.3 224.15 131.85" fill="#000000" fill-rule="evenodd" stroke="none"/>
  </g>
</svg>
