<?xml version="1.0" encoding="UTF-8" standalone="no"?>
<svg xmlns:xlink="http://www.w3.org/1999/xlink" height="99.95px" width="111.05px" xmlns="http://www.w3.org/2000/svg">
  <g transform="matrix(1.0, 0.0, 0.0, 1.0, -127.6, -129.75)">
    <path d="M184.25 148.1 L217.0 146.8 Q221.1 148.9 223.5 148.85 L223.55 148.9 227.6 153.4 227.65 153.4 Q238.2 164.55 238.65 181.25 L238.65 182.35 235.8 185.95 Q237.15 193.85 235.45 202.3 L231.75 228.85 Q214.3 228.05 184.5 229.7 184.05 220.75 182.95 211.95 169.65 205.2 158.45 196.4 L165.65 176.65 Q156.6 150.4 127.6 144.15 148.65 136.05 171.65 129.75 180.2 138.9 184.25 148.1" fill="#000000" fill-rule="evenodd" stroke="none"/>
  </g>
</svg>
