<?xml version="1.0" encoding="UTF-8" standalone="no"?>
<svg xmlns:xlink="http://www.w3.org/1999/xlink" height="99.25px" width="46.85px" xmlns="http://www.w3.org/2000/svg">
  <g transform="matrix(1.0, 0.0, 0.0, 1.0, -223.0, -132.4)">
    <path d="M232.15 133.4 L237.95 134.85" fill="none" stroke="#000000" stroke-linecap="round" stroke-linejoin="round" stroke-width="2.0"/>
    <path d="M237.95 134.85 Q247.8 141.75 255.3 152.35 263.8 164.3 269.35 180.95 L262.5 188.65 262.5 198.5 Q260.4 202.2 258.6 206.05 253.55 216.6 250.45 228.4 L249.85 231.15 M231.75 228.9 L235.45 202.3 Q237.15 193.85 235.8 185.95 L238.65 182.35 238.65 181.25 Q238.2 164.55 227.6 153.4 L223.55 148.9 223.5 148.85 Q225.4 148.8 226.2 147.25 234.2 147.85 241.6 149.2 240.1 141.3 232.15 133.4 M257.1 188.95 L248.55 187.45 235.8 185.95 M255.3 152.35 Q248.75 150.45 241.6 149.2 M244.6 219.1 L249.9 202.85 248.05 198.65" fill="none" stroke="#000000" stroke-linecap="round" stroke-linejoin="round" stroke-width="1.0"/>
  </g>
</svg>
