<?xml version="1.0" encoding="UTF-8" standalone="no"?>
<svg xmlns:xlink="http://www.w3.org/1999/xlink" height="127.75px" width="103.8px" xmlns="http://www.w3.org/2000/svg">
  <g transform="matrix(1.0, 0.0, 0.0, 1.0, -161.5, -103.9)">
    <path d="M219.3 124.4 L219.3 131.1 Q229.1 132.45 237.95 134.85 M162.5 132.35 Q170.8 129.9 179.4 127.65 188.85 118.0 193.0 104.9" fill="none" stroke="#000000" stroke-linecap="round" stroke-linejoin="round" stroke-width="2.0"/>
    <path d="M219.3 131.1 L219.3 139.75 M237.95 134.85 Q247.8 141.75 255.3 152.35 260.6 159.8 264.8 169.1 L261.5 173.3 Q255.8 181.25 255.0 188.6 L248.55 187.45 235.8 185.95 Q224.45 185.2 211.05 186.25 L195.95 187.5 Q193.05 179.55 182.8 170.4 178.8 166.85 174.25 164.05 174.0 156.6 171.8 149.65 168.85 140.55 162.5 132.35 M193.0 104.9 Q193.8 106.3 195.1 106.45 L195.1 113.8 204.9 124.4 219.3 124.4 M227.6 153.4 Q238.2 164.55 238.65 181.25 L238.65 182.35 235.8 185.95 M195.9 125.75 Q198.5 132.8 203.25 139.0 M255.3 152.35 Q241.95 148.5 226.2 147.25 224.5 150.7 217.0 146.8 196.9 146.0 171.8 149.65 M244.6 219.1 L249.9 202.85 248.05 198.65 M208.8 217.6 L208.8 202.65 214.45 196.4 M233.1 218.65 L235.45 202.3" fill="none" stroke="#000000" stroke-linecap="round" stroke-linejoin="round" stroke-width="1.0"/>
    <path d="M249.85 231.15 L255.0 188.6" fill="none" stroke="#000000" stroke-linecap="round" stroke-linejoin="round" stroke-width="1.0"/>
    <path d="M201.0 228.95 Q199.8 196.15 195.65 187.5" fill="none" stroke="#000000" stroke-linecap="round" stroke-linejoin="round" stroke-width="1.0"/>
  </g>
</svg>
