<?xml version="1.0" encoding="UTF-8" standalone="no"?>
<svg xmlns:xlink="http://www.w3.org/1999/xlink" height="74.15px" width="158.45px" xmlns="http://www.w3.org/2000/svg">
  <g transform="matrix(1.0, 0.0, 0.0, 1.0, -121.75, -103.9)">
    <path d="M193.0 104.9 Q188.85 118.0 179.4 127.65 152.2 134.7 127.6 144.15 125.7 150.3 124.5 156.5 L123.35 163.2 122.75 168.7 M219.3 131.1 L219.3 124.4 M279.2 174.4 Q279.3 168.55 278.5 162.8 277.75 157.95 276.45 153.15 253.5 135.8 219.3 131.1" fill="none" stroke="#000000" stroke-linecap="round" stroke-linejoin="round" stroke-width="2.0"/>
    <path d="M219.3 131.1 L219.3 139.75 M219.3 124.4 L204.9 124.4 195.1 113.8 195.1 106.45 Q193.8 106.3 193.0 104.9 M235.8 166.2 L242.1 166.2 248.8 171.8 244.8 177.55 252.0 177.45 256.4 171.55 252.15 165.9 259.9 165.45 264.65 171.0 261.15 177.0 269.9 176.2 270.05 170.45 Q270.0 167.4 269.6 164.4 L269.35 162.55 M166.15 150.5 Q194.65 145.9 217.0 146.8 224.5 150.7 226.2 147.25 243.15 148.55 257.3 152.95 M195.9 125.75 Q198.5 132.8 203.25 139.0 M269.6 164.4 L273.15 163.85 279.05 169.05 275.55 175.25 279.2 174.4" fill="none" stroke="#000000" stroke-linecap="round" stroke-linejoin="round" stroke-width="1.0"/>
    <path d="M122.75 168.7 L133.95 169.95 130.1 164.0 130.15 164.0 134.6 157.85 159.8 160.95 154.95 166.7 154.9 166.7 159.7 172.6 186.35 174.95 181.1 169.1 181.15 169.1 186.2 163.6 208.65 165.25 204.65 170.75 204.6 170.75 210.7 176.6 230.7 177.4 224.3 171.65 227.15 166.05 235.8 166.2 Q233.0 159.05 227.6 153.4" fill="none" stroke="#000000" stroke-linecap="round" stroke-linejoin="round" stroke-width="1.0"/>
  </g>
</svg>
