<?xml version="1.0" encoding="UTF-8" standalone="no"?>
<svg xmlns:xlink="http://www.w3.org/1999/xlink" height="49.3px" width="158.45px" xmlns="http://www.w3.org/2000/svg">
  <g transform="matrix(1.0, 0.0, 0.0, 1.0, -121.75, -128.75)">
    <path d="M279.2 174.4 L275.55 175.25 279.05 169.05 273.15 163.85 269.6 164.4 Q270.0 167.4 270.05 170.45 L269.9 176.2 261.15 177.0 264.65 171.0 259.9 165.45 252.15 165.9 256.4 171.55 252.0 177.45 244.8 177.55 248.8 171.8 242.1 166.2 235.8 166.2 M257.3 152.95 Q249.85 150.65 241.6 149.2 234.2 147.85 226.2 147.25 224.5 150.7 217.0 146.8 L184.25 148.1 166.15 150.5 M269.35 162.55 L269.6 164.4" fill="none" stroke="#000000" stroke-linecap="round" stroke-linejoin="round" stroke-width="1.0"/>
    <path d="M279.2 174.4 Q279.3 168.55 278.5 162.8 277.75 157.95 276.45 153.15 257.95 139.15 232.15 133.4 M122.75 168.7 L123.35 163.2 124.5 156.5 Q125.7 150.3 127.6 144.15 148.65 136.05 171.65 129.75" fill="none" stroke="#000000" stroke-linecap="round" stroke-linejoin="round" stroke-width="2.0"/>
    <path d="M122.75 168.7 L133.95 169.95 130.1 164.0 130.15 164.0 134.6 157.85 159.8 160.95 154.95 166.7 154.9 166.7 159.7 172.6 186.35 174.95 181.1 169.1 181.15 169.1 186.2 163.6 208.65 165.25 204.65 170.75 204.6 170.75 210.7 176.6 230.7 177.4 224.3 171.65 227.15 166.05 235.8 166.2 Q233.0 159.05 227.6 153.4" fill="none" stroke="#000000" stroke-linecap="round" stroke-linejoin="round" stroke-width="1.0"/>
    <path d="M171.65 129.75 Q180.2 138.9 184.25 148.1 M241.6 149.2 Q240.1 141.3 232.15 133.4" fill="none" stroke="#000000" stroke-linecap="round" stroke-linejoin="round" stroke-width="1.0"/>
  </g>
</svg>
