<?xml version="1.0" encoding="UTF-8" standalone="no"?>
<svg xmlns:xlink="http://www.w3.org/1999/xlink" height="71.95px" width="70.4px" xmlns="http://www.w3.org/2000/svg">
  <g transform="matrix(1.0, 0.0, 0.0, 1.0, -178.45, -236.35)">
    <path d="M246.3 257.95 L238.0 262.7 245.95 262.7 246.25 258.95 246.3 257.95 Q230.0 254.3 204.7 254.9 207.75 256.1 211.0 258.05 214.7 260.55 217.7 263.15 221.75 266.7 224.5 270.45 L238.0 262.7 M184.75 245.95 Q226.8 244.3 247.1 248.35 247.6 243.8 248.35 239.3 232.35 235.35 184.75 237.75 M183.35 268.8 Q203.55 265.55 223.8 273.45 L223.85 273.45 Q235.8 270.6 244.65 271.85 L242.5 281.45 241.9 283.45 Q232.75 282.65 219.75 286.25 205.75 278.8 182.0 280.55 M204.7 254.9 Q193.8 250.45 184.45 254.5 L184.0 260.55 Q202.55 258.15 217.7 263.15 M223.85 273.45 Q222.3 279.95 219.75 286.25 M231.7 307.3 Q230.05 303.5 207.9 307.6 192.25 300.8 179.45 302.95 M180.6 292.55 Q200.35 291.5 214.3 297.65 231.6 294.7 237.2 296.4 M207.9 307.6 Q211.4 302.7 214.3 297.65" fill="none" stroke="#000000" stroke-linecap="round" stroke-linejoin="round" stroke-width="1.0"/>
    <path d="M184.75 237.75 L184.75 245.95 M182.0 280.55 L182.95 272.2 183.35 268.8 M237.2 296.4 L234.85 301.45 231.75 307.3 231.7 307.3 M179.45 302.95 L180.6 292.55" fill="none" stroke="#000000" stroke-linecap="round" stroke-linejoin="round" stroke-width="2.0"/>
    <path d="M184.45 254.5 L184.0 260.55" fill="none" stroke="#000000" stroke-linecap="round" stroke-linejoin="round" stroke-width="2.0"/>
  </g>
</svg>
