<?xml version="1.0" encoding="UTF-8" standalone="no"?>
<svg xmlns:xlink="http://www.w3.org/1999/xlink" height="163.05px" width="41.3px" xmlns="http://www.w3.org/2000/svg">
  <g transform="matrix(1.0, 0.0, 0.0, 1.0, -199.75, -288.2)">
    <path d="M240.05 289.2 L237.8 295.0 234.85 301.45 231.75 307.3 218.5 327.25 218.0 334.95 219.3 351.15 204.6 413.8 Q203.5 420.3 210.75 426.8 222.7 438.2 231.85 450.2 229.05 450.35 226.25 450.15" fill="none" stroke="#000000" stroke-linecap="round" stroke-linejoin="round" stroke-width="2.0"/>
    <path d="M228.0 297.0 Q233.3 293.25 240.05 289.2 M218.0 334.95 L214.3 340.6" fill="none" stroke="#000000" stroke-linecap="round" stroke-linejoin="round" stroke-width="1.0"/>
    <path d="M226.25 450.15 L202.5 425.75 Q199.05 416.6 200.85 409.2 L210.5 351.4 210.5 332.05 211.7 324.6 Q221.6 310.8 228.0 297.0" fill="none" stroke="#000000" stroke-linecap="round" stroke-linejoin="round" stroke-width="1.0"/>
  </g>
</svg>
