<?xml version="1.0" encoding="UTF-8" standalone="no"?>
<svg xmlns:xlink="http://www.w3.org/1999/xlink" height="34.6px" width="36.8px" xmlns="http://www.w3.org/2000/svg">
  <g transform="matrix(1.0, 0.0, 0.0, 1.0, -156.35, -364.1)">
    <path d="M159.45 380.7 Q157.4 382.3 156.35 385.1 156.65 376.7 160.2 369.5 161.1 367.8 162.85 367.3 165.75 366.1 168.65 365.35 L171.95 364.65 Q181.0 363.1 190.1 365.85 L190.15 365.85 Q192.05 367.0 192.4 368.95 193.8 375.6 192.6 385.55 191.85 381.8 190.85 381.0 L189.1 394.0 187.15 389.05 Q187.35 390.9 187.05 392.7 L186.45 394.8 186.35 395.05 185.85 396.15 185.55 396.7 183.1 387.75 Q183.6 391.8 182.2 395.75 L181.0 398.4 180.65 396.05 Q179.7 391.7 176.55 387.1 175.15 391.3 175.6 396.6 L175.8 398.7 174.9 397.6 174.1 396.65 172.9 395.05 172.85 395.0 Q170.65 391.9 169.4 389.1 L169.3 388.85 Q168.45 392.65 169.4 396.5 L167.75 395.0 Q166.0 393.2 165.2 391.1 164.65 389.8 164.45 388.4 162.7 391.65 162.6 395.25 159.85 388.0 159.45 380.7" fill="#000000" fill-rule="evenodd" stroke="none"/>
  </g>
</svg>
