<?xml version="1.0" encoding="UTF-8" standalone="no"?>
<svg xmlns:xlink="http://www.w3.org/1999/xlink" height="73.95px" width="34.85px" xmlns="http://www.w3.org/2000/svg">
  <g transform="matrix(1.0, 0.0, 0.0, 1.0, -240.1, -230.0)">
    <path d="M274.95 230.0 L273.6 232.75 Q271.05 238.05 269.0 242.65 L267.7 245.45 264.55 252.9 263.6 255.3 Q262.05 259.35 261.15 262.4 L260.75 263.75 259.55 267.95 257.9 273.75 269.8 285.5 Q266.25 290.05 265.1 297.25 L262.65 297.25 262.75 300.75 Q262.1 304.25 258.55 303.95 256.45 303.6 255.75 302.2 252.7 303.6 250.95 302.6 249.6 301.8 249.0 299.7 246.85 300.4 245.55 299.7 244.35 299.05 243.75 297.3 242.05 297.0 241.15 296.2 239.8 295.0 240.15 292.6 240.4 288.95 241.35 285.35 L242.5 281.45 Q243.75 277.7 245.65 274.05 L244.7 271.85 245.3 267.95 Q246.05 262.75 246.3 257.45 246.85 248.75 248.15 240.35 261.55 232.55 274.95 230.0" fill="#000000" fill-rule="evenodd" stroke="none"/>
  </g>
</svg>
