<?xml version="1.0" encoding="UTF-8" standalone="no"?>
<svg xmlns:xlink="http://www.w3.org/1999/xlink" height="17.95px" width="124.9px" xmlns="http://www.w3.org/2000/svg">
  <g transform="matrix(1.0, 0.0, 0.0, 1.0, -137.25, -259.85)">
    <path d="M138.25 266.6 L139.4 268.1 142.1 271.5 146.7 276.8 M159.1 260.85 L159.6 263.8 160.05 266.3 160.45 268.1 161.4 272.0 M259.65 267.6 L261.15 262.4 M259.65 267.6 L259.55 267.95 257.9 273.75" fill="none" stroke="#000000" stroke-linecap="round" stroke-linejoin="round" stroke-width="2.0"/>
    <path d="M145.5 268.65 Q145.5 268.05 146.0 267.6 L147.25 267.2 Q147.95 267.2 148.45 267.6 149.0 268.05 149.0 268.65 149.0 269.25 148.45 269.65 147.95 270.1 147.25 270.1 146.55 270.1 146.0 269.65 145.5 269.25 145.5 268.65 M142.1 271.5 L146.95 271.55 147.3 271.5 Q141.3 270.5 144.05 266.25 L138.25 266.6 M146.7 276.8 L150.3 277.2 Q145.0 275.35 146.95 271.55 M161.4 272.0 Q156.3 277.15 150.3 277.2 M144.05 266.25 Q152.9 265.2 159.1 260.85 M147.3 271.5 Q155.1 270.85 160.05 266.3 M148.65 274.2 Q148.65 273.6 149.15 273.15 149.7 272.75 150.4 272.75 151.1 272.75 151.6 273.15 152.15 273.6 152.15 274.2 152.15 274.8 151.6 275.2 151.1 275.65 150.4 275.65 149.7 275.65 149.15 275.2 148.65 274.8 148.65 274.2 M261.15 262.4 Q253.65 265.2 245.85 263.35 L245.3 267.95 245.25 268.35 Q252.45 270.2 259.65 267.6 M257.9 273.75 Q250.9 275.75 245.65 274.05 L244.7 271.85 245.25 268.35" fill="none" stroke="#000000" stroke-linecap="round" stroke-linejoin="round" stroke-width="1.0"/>
  </g>
</svg>
