<?xml version="1.0" encoding="UTF-8" standalone="no"?>
<svg xmlns:xlink="http://www.w3.org/1999/xlink" height="107.5px" width="157.7px" xmlns="http://www.w3.org/2000/svg">
  <g transform="matrix(1.0, 0.0, 0.0, 1.0, -118.25, -197.95)">
    <path d="M155.9 203.3 L153.4 210.25 159.6 225.35 M119.25 220.95 L125.7 209.3 Q124.5 204.1 123.7 198.95 M161.4 272.0 L175.05 279.7 173.3 288.05 176.4 292.65 175.65 293.55 Q174.55 294.5 173.05 294.4 171.5 294.3 169.6 293.2 L169.55 293.2 Q169.35 298.25 169.55 303.3 L164.05 304.45 163.35 302.45 Q159.5 304.05 157.05 300.8 L144.75 292.65 146.7 276.8 M272.95 203.65 L269.1 212.0 M262.65 297.25 L265.1 297.25 Q266.25 290.05 269.8 285.5 L257.9 273.75 M262.65 297.25 L262.75 300.75 Q262.1 304.25 258.55 303.95 256.45 303.6 255.75 302.2 252.7 303.6 250.95 302.6 249.6 301.8 249.0 299.7 246.85 300.4 245.55 299.7 244.35 299.05 243.75 297.3 242.05 297.0 241.15 296.2 239.8 295.0 240.15 292.6 240.4 288.95 241.35 285.35" fill="none" stroke="#000000" stroke-linecap="round" stroke-linejoin="round" stroke-width="2.0"/>
    <path d="M153.4 210.25 L151.1 216.5 M123.7 198.95 Q141.95 205.4 155.9 203.3 M144.75 292.65 L154.5 295.55 Q158.15 297.65 161.25 297.15 L161.3 297.15 Q162.95 296.85 164.45 295.85 L165.0 295.45 165.1 295.35 167.15 293.3 M161.25 297.15 L161.25 297.2 163.35 302.45 M154.5 295.55 L157.05 300.8 M258.6 206.05 Q266.55 206.45 272.95 203.65 M240.15 292.6 L244.2 287.05 Q245.25 286.8 246.4 287.9 L247.45 289.25 249.55 289.4 250.6 290.0 Q250.95 284.8 254.7 283.6 L259.3 283.4 M249.0 299.7 L251.5 291.05 250.6 290.0 M260.95 287.5 L260.4 292.2 255.85 292.6 Q253.9 293.4 253.75 295.7 L253.8 297.25 256.0 297.25 262.65 297.25 M255.85 292.6 Q254.3 289.9 251.5 291.05 M241.35 285.35 L242.5 281.45 Q243.75 277.7 245.65 274.05 L244.7 271.85 M169.6 293.2 Q169.8 288.15 170.4 283.2 M256.0 297.25 Q254.85 300.5 255.75 302.2 M243.75 297.3 L247.45 289.25" fill="none" stroke="#000000" stroke-linecap="round" stroke-linejoin="round" stroke-width="1.0"/>
    <path d="M159.6 225.35 Q156.25 245.35 159.6 263.8 L160.45 268.1 161.4 272.0 M146.7 276.8 Q142.75 272.5 139.4 268.1 L136.2 263.8 Q122.0 243.45 119.25 220.95 M269.1 212.0 Q273.75 221.0 274.95 230.0 264.2 252.0 261.15 262.4 L259.55 267.95 257.9 273.75" fill="none" stroke="#000000" stroke-linecap="round" stroke-linejoin="round" stroke-width="2.0"/>
    <path d="M244.7 271.85 L245.3 267.95 Q246.05 262.75 246.3 257.45 247.15 243.95 249.85 231.15 L250.45 228.4 Q253.55 216.6 258.6 206.05" fill="none" stroke="#000000" stroke-linecap="round" stroke-linejoin="round" stroke-width="1.0"/>
  </g>
</svg>
