<?xml version="1.0" encoding="UTF-8" standalone="no"?>
<svg xmlns:xlink="http://www.w3.org/1999/xlink" height="36.7px" width="133.2px" xmlns="http://www.w3.org/2000/svg">
  <g transform="matrix(1.0, 0.0, 0.0, 1.0, -137.6, -261.05)">
    <path d="M147.9 269.05 L151.4 276.75 151.45 276.75 161.3 297.15 161.25 297.15 Q158.15 297.65 154.5 295.55 L144.75 292.65 146.7 276.8 Q142.15 276.55 142.5 274.25 136.75 270.2 139.5 268.2 L140.6 269.65 147.9 269.05 M151.4 276.75 Q149.05 277.1 146.7 276.8 149.05 277.1 151.4 276.75 M244.7 271.85 L245.3 267.95 245.6 265.85 250.5 265.05 249.0 273.3 248.95 273.3 247.45 281.1 247.45 289.25 246.4 287.9 Q245.25 286.8 244.2 287.05 L240.15 292.6 Q240.4 288.95 241.35 285.35 L242.5 281.45 Q243.75 277.7 245.65 274.05 L244.7 271.85 M245.65 274.05 L248.95 273.3 245.65 274.05" fill="#000000" fill-opacity="0.2509804" fill-rule="evenodd" stroke="none"/>
    <path d="M159.6 263.85 Q153.9 267.75 147.9 269.05 L140.6 269.65 M151.4 276.75 L151.45 276.75 Q156.5 275.95 161.4 272.0 M175.05 279.75 L170.4 283.2 Q169.95 286.8 169.75 290.45 L167.15 293.3 165.1 295.35 165.0 295.45 164.45 295.85 Q162.95 296.85 161.3 297.15 L161.25 297.15 Q158.15 297.65 154.5 295.55 L144.75 292.65 M146.7 276.8 Q149.05 277.1 151.4 276.75 M244.7 271.85 L245.3 267.95 245.6 265.85 250.5 265.05 Q255.25 264.8 260.0 266.5 M269.8 285.5 L260.95 287.5 260.4 292.2 255.85 292.6 Q254.3 289.9 251.5 291.05 L250.6 290.0 249.55 289.4 247.45 289.25 246.4 287.9 Q245.25 286.8 244.2 287.05 L240.15 292.6 M250.6 290.0 Q250.95 284.8 254.7 283.6 L259.3 283.4 M249.0 273.3 L248.95 273.3 245.65 274.05 M257.9 273.75 L249.0 273.3" fill="none" stroke="#000000" stroke-linecap="round" stroke-linejoin="round" stroke-width="1.0"/>
    <path d="M161.4 272.0 Q163.8 269.6 161.4 267.55 161.9 261.1 159.3 262.2 L159.6 263.8 159.6 263.85 M161.4 272.0 L175.05 279.7 175.05 279.75 M144.75 292.65 L146.7 276.8 Q142.15 276.55 142.5 274.25 136.75 270.2 139.5 268.2 L140.6 269.65 M260.0 266.5 L260.35 265.2 Q263.1 266.25 260.6 270.75 260.8 273.35 257.9 273.75 L269.8 285.5 M240.15 292.6 Q240.4 288.95 241.35 285.35 L242.5 281.45 Q243.75 277.7 245.65 274.05 L244.7 271.85" fill="none" stroke="#000000" stroke-linecap="round" stroke-linejoin="round" stroke-width="2.0"/>
  </g>
</svg>
