<?xml version="1.0" encoding="UTF-8" standalone="no"?>
<svg xmlns:xlink="http://www.w3.org/1999/xlink" height="20.85px" width="31.65px" xmlns="http://www.w3.org/2000/svg">
  <g transform="matrix(1.0, 0.0, 0.0, 1.0, -239.15, -272.75)">
    <path d="M249.75 274.45 L253.65 274.35 257.9 273.75 262.5 278.3 269.8 285.5 Q265.0 284.7 260.95 287.5 L260.4 292.2 255.85 292.6 Q254.3 289.9 251.5 291.05 L250.6 290.0 249.55 289.4 247.45 289.25 246.4 287.9 Q245.25 286.8 244.2 287.05 L240.15 292.6 Q240.4 288.95 241.35 285.35 L242.5 281.45 243.1 279.8 Q244.15 276.9 245.65 274.05 L249.55 274.45 249.7 274.5 249.75 274.45 M250.6 290.0 Q250.85 285.95 253.2 284.35 253.85 283.85 254.7 283.6 L259.25 283.4 259.3 283.4 260.95 287.5 259.3 283.4 259.25 283.4 254.7 283.6 Q253.85 283.85 253.2 284.35 250.85 285.95 250.6 290.0 M262.5 278.3 L255.45 277.95 250.85 278.35 Q247.05 278.8 243.1 279.8 247.05 278.8 250.85 278.35 L255.45 277.95 262.5 278.3" fill="url(#gradient0)" fill-rule="evenodd" stroke="none"/>
    <path d="M249.75 274.45 L253.65 274.35 257.9 273.75 M269.8 285.5 Q265.0 284.7 260.95 287.5 L260.4 292.2 255.85 292.6 Q254.3 289.9 251.5 291.05 L250.6 290.0 249.55 289.4 247.45 289.25 246.4 287.9 Q245.25 286.8 244.2 287.05 L240.15 292.6 M241.35 285.35 L242.5 281.45 243.1 279.8 Q244.15 276.9 245.65 274.05 L249.55 274.45 249.75 274.45" fill="none" stroke="#000000" stroke-linecap="round" stroke-linejoin="round" stroke-width="1.0"/>
    <path d="M257.9 273.75 L262.5 278.3 269.8 285.5 M240.15 292.6 Q240.4 288.95 241.35 285.35" fill="none" stroke="#000000" stroke-linecap="round" stroke-linejoin="round" stroke-width="2.0"/>
    <path d="M243.1 279.8 Q247.05 278.8 250.85 278.35 L255.45 277.95 262.5 278.3 M260.95 287.5 L259.3 283.4 259.25 283.4 254.7 283.6 Q253.85 283.85 253.2 284.35 250.85 285.95 250.6 290.0" fill="none" stroke="#000000" stroke-linecap="round" stroke-linejoin="round" stroke-opacity="0.2509804" stroke-width="1.0"/>
    <path d="M253.65 274.35 L253.4 275.05 255.45 277.95 250.85 278.35 255.45 277.95 259.25 283.4 254.7 283.6 Q253.85 283.85 253.2 284.35 L250.85 278.35 249.55 275.05 249.75 274.45 253.65 274.35" fill="#ffffff" fill-opacity="0.2509804" fill-rule="evenodd" stroke="none"/>
    <path d="M257.9 273.75 L253.65 274.35 249.75 274.45 249.55 274.45 248.85 274.45 245.65 274.05 Q244.15 276.9 243.1 279.8 L242.5 281.45 241.35 285.35 M260.95 287.5 Q265.0 284.7 269.8 285.5 M250.6 290.0 L251.5 291.05 Q254.3 289.9 255.85 292.6 L260.4 292.2 260.95 287.5 M240.15 292.6 L244.2 287.05 Q245.25 286.8 246.4 287.9 L247.45 289.25 249.55 289.4 250.6 290.0" fill="none" stroke="#000000" stroke-linecap="round" stroke-linejoin="round" stroke-width="1.0"/>
    <path d="M262.5 278.3 L257.9 273.75 M269.8 285.5 L262.5 278.3 M241.35 285.35 Q240.4 288.95 240.15 292.6" fill="none" stroke="#000000" stroke-linecap="round" stroke-linejoin="round" stroke-width="2.0"/>
    <path d="M255.45 277.95 L262.5 278.3 M250.85 278.35 L255.45 277.95 M259.25 283.4 L259.3 283.4 260.95 287.5 M259.25 283.4 L254.7 283.6 Q253.85 283.85 253.2 284.35 250.85 285.95 250.6 290.0 M250.85 278.35 L248.05 278.75 243.1 279.8" fill="none" stroke="#000000" stroke-linecap="round" stroke-linejoin="round" stroke-opacity="0.2509804" stroke-width="1.0"/>
  </g>
  <defs>
    <linearGradient gradientTransform="matrix(-0.0093, 0.0, 0.0, -0.0068, 258.2, 248.25)" gradientUnits="userSpaceOnUse" id="gradient0" spreadMethod="pad" x1="-819.2" x2="819.2">
      <stop offset="0.0" stop-color="#000000" stop-opacity="0.0"/>
      <stop offset="1.0" stop-color="#000000" stop-opacity="0.2509804"/>
    </linearGradient>
  </defs>
</svg>
