<?xml version="1.0" encoding="UTF-8" standalone="no"?>
<svg xmlns:xlink="http://www.w3.org/1999/xlink" height="20.25px" width="23.75px" xmlns="http://www.w3.org/2000/svg">
  <g transform="matrix(1.0, 0.0, 0.0, 1.0, -201.55, -86.9)">
    <path d="M222.8 88.15 L223.45 89.6 Q224.2 91.65 224.25 94.25 L223.6 96.7 Q225.05 100.7 223.6 104.75" fill="none" stroke="#000000" stroke-linecap="round" stroke-linejoin="round" stroke-width="2.0"/>
    <path d="M206.35 92.15 Q201.2 90.85 202.25 96.7 203.35 102.85 207.55 103.1 208.3 107.55 213.6 106.45 211.65 105.85 211.2 102.55 211.85 101.95 213.7 101.2 215.6 100.45 214.15 98.05 212.65 95.65 210.3 94.1 209.3 86.05 202.65 87.65 205.95 89.35 206.35 92.15 M223.6 104.75 Q222.05 106.5 219.05 105.9 221.0 105.3 221.45 102.0 220.8 101.4 218.95 100.65 217.05 99.9 218.5 97.5 219.75 95.45 221.65 94.05 220.7 89.65 222.8 88.15" fill="none" stroke="#000000" stroke-linecap="round" stroke-linejoin="round" stroke-width="1.0"/>
  </g>
</svg>
