<?xml version="1.0" encoding="UTF-8" standalone="no"?>
<svg xmlns:xlink="http://www.w3.org/1999/xlink" height="165.05px" width="159.95px" xmlns="http://www.w3.org/2000/svg">
  <g transform="matrix(1.0, 0.0, 0.0, 1.0, -119.25, -122.35)">
    <path d="M269.35 180.95 L268.4 182.05 269.35 181.0 269.35 180.95 M173.85 129.15 L173.95 129.1 Q179.15 126.95 184.05 122.35 185.9 130.8 189.35 138.35 195.95 152.8 208.4 164.0 212.45 172.6 215.1 181.55 L216.35 185.9 Q219.3 197.6 219.9 209.8 220.25 216.6 219.85 223.5 209.65 218.8 198.7 217.0 191.2 215.7 183.4 215.75 186.3 243.25 182.95 272.2 L181.2 287.4 Q173.95 261.55 179.6 216.0 L158.45 196.4 153.4 210.25 159.6 225.35 Q159.05 250.55 166.8 271.6 L164.95 273.95 Q159.6 280.3 154.15 282.6 150.0 284.35 145.8 283.8 144.1 283.6 142.4 283.0 119.35 245.55 119.25 220.95 L125.7 209.3 Q117.9 175.9 127.6 144.15 149.65 135.65 173.85 129.15 M219.3 135.4 L219.3 131.1 Q225.25 131.9 230.9 133.15 257.5 138.85 276.45 153.15 284.5 181.85 269.1 212.0 273.75 221.0 274.95 230.0 265.65 250.45 263.2 273.2 256.9 277.85 248.9 277.4 L243.7 276.6 244.7 271.85 245.3 267.95 Q246.05 262.75 246.3 257.45 247.2 242.5 250.45 228.4 251.65 223.9 253.1 219.6 250.05 219.0 246.25 221.1 247.7 213.45 248.15 206.3 248.75 196.45 248.15 187.4 L247.65 181.9 Q246.55 172.1 244.0 163.2 236.8 150.05 219.3 135.4 M141.65 148.05 L141.85 148.15 141.95 147.9 141.65 148.05" fill="#000000" fill-rule="evenodd" stroke="none"/>
  </g>
</svg>
