<?xml version="1.0" encoding="UTF-8" standalone="no"?>
<svg xmlns:xlink="http://www.w3.org/1999/xlink" height="81.8px" width="154.95px" xmlns="http://www.w3.org/2000/svg">
  <g transform="matrix(1.0, 0.0, 0.0, 1.0, -119.9, -128.85)">
    <path d="M222.0 147.65 Q223.75 146.5 224.8 145.0 226.35 142.55 226.0 139.15 225.65 135.9 223.55 131.75 248.0 135.75 266.45 146.5 L274.85 148.55 269.35 162.55 270.0 169.35 Q270.25 175.1 269.35 180.95 L262.5 188.65 262.5 198.5 261.0 201.25 Q257.3 198.25 253.55 196.0 250.65 194.3 247.75 192.95 242.05 190.4 236.25 189.35 215.9 192.1 194.9 201.2 186.55 204.75 178.1 209.4 L175.75 210.65 173.15 206.5 Q165.4 201.85 158.45 196.4 L163.1 183.65 Q167.05 182.0 168.9 178.6 L169.7 176.55 Q170.9 172.75 170.0 167.25 167.95 154.5 160.55 147.15 158.15 144.8 155.25 143.0 L153.45 141.95 Q149.05 139.6 143.55 138.4 L137.5 137.4 155.15 134.6 Q164.8 131.55 174.85 128.85 178.45 134.05 184.6 137.95 L185.35 138.45 Q189.85 141.15 195.75 143.25 L196.6 143.5 Q204.15 145.55 211.7 146.65 L221.95 147.65 222.0 147.7 222.0 147.65 M127.6 144.15 Q126.2 148.65 125.2 153.2 120.3 146.7 119.9 140.2 125.85 141.1 131.45 142.7 L127.6 144.15" fill="#000000" fill-rule="evenodd" stroke="none"/>
  </g>
</svg>
