<?xml version="1.0" encoding="UTF-8" standalone="no"?>
<svg xmlns:xlink="http://www.w3.org/1999/xlink" height="72.45px" width="165.1px" xmlns="http://www.w3.org/2000/svg">
  <g transform="matrix(1.0, 0.0, 0.0, 1.0, -117.65, -127.65)">
    <path d="M219.3 131.1 Q253.5 135.8 276.45 153.15 280.5 166.7 281.95 177.5 L282.35 180.7 282.35 180.85 282.65 184.9 282.75 187.85 282.65 192.1 281.95 192.4 279.25 193.4 279.25 186.2 278.05 186.6 276.65 187.05 276.1 187.25 273.95 187.85 273.95 195.05 270.8 195.85 270.5 195.95 267.8 196.5 267.8 189.3 264.65 189.9 263.4 190.15 260.7 190.6 260.7 197.8 257.55 198.25 254.45 198.6 251.75 198.9 251.75 191.7 248.6 192.0 243.9 192.35 241.2 192.5 241.25 199.7 238.05 199.85 230.75 200.05 228.05 200.1 228.05 192.9 224.9 192.95 217.5 192.9 214.8 192.85 214.8 200.05 211.65 200.0 203.55 199.7 200.9 199.6 200.85 199.6 200.85 192.4 197.7 192.25 190.3 191.8 187.6 191.65 187.6 198.85 184.45 198.65 175.7 197.95 173.0 197.75 173.0 190.55 169.85 190.25 159.15 189.25 156.45 189.0 156.45 196.15 153.3 195.85 143.75 194.8 141.05 194.5 141.05 187.3 137.9 186.9 135.85 186.65 135.4 186.6 129.3 185.85 126.6 185.5 126.6 192.7 123.45 192.3 122.85 192.25 117.65 191.55 117.7 187.85 Q117.7 186.15 117.85 184.4 L118.15 180.7 Q119.8 163.9 127.5 144.45 L127.6 144.15 Q150.15 135.5 174.9 128.85 L179.4 127.65 Q191.6 133.9 201.1 136.0 L201.65 136.1 Q212.15 138.35 219.3 135.4 L219.3 131.1" fill="#000000" fill-rule="evenodd" stroke="none"/>
  </g>
</svg>
