<?xml version="1.0" encoding="UTF-8" standalone="no"?>
<svg xmlns:xlink="http://www.w3.org/1999/xlink" height="70.95px" width="22.6px" xmlns="http://www.w3.org/2000/svg">
  <g transform="matrix(1.0, 0.0, 0.0, 1.0, -183.5, -155.15)">
    <path d="M186.05 155.15 Q187.1 155.15 187.85 155.9 188.6 156.65 188.6 157.7 188.6 158.75 187.85 159.5 187.1 160.25 186.05 160.25 185.0 160.25 184.25 159.5 183.5 158.75 183.5 157.7 183.5 156.65 184.25 155.9 185.0 155.15 186.05 155.15 M193.35 176.6 Q194.1 175.85 195.15 175.85 196.2 175.85 196.95 176.6 197.7 177.35 197.7 178.4 197.7 179.45 196.95 180.2 196.2 180.95 195.15 180.95 194.1 180.95 193.35 180.2 192.6 179.45 192.6 178.4 192.6 177.35 193.35 176.6 M205.35 221.75 Q206.1 222.5 206.1 223.55 206.1 224.6 205.35 225.35 L204.3 226.0 203.55 226.1 203.5 226.1 202.5 225.9 201.75 225.35 Q201.0 224.6 201.0 223.55 201.0 222.5 201.75 221.75 L202.25 221.4 Q202.55 221.15 203.0 221.05 L203.55 221.0 Q204.6 221.0 205.35 221.75 M198.45 198.7 Q199.0 198.15 199.7 198.0 L200.25 197.95 Q201.3 197.95 202.05 198.7 202.8 199.45 202.8 200.5 202.8 201.55 202.05 202.3 201.55 202.65 201.0 202.95 L200.25 203.05 200.2 203.05 Q199.2 203.05 198.45 202.3 197.7 201.55 197.7 200.5 197.7 199.45 198.45 198.7" fill="#000000" fill-rule="evenodd" stroke="none"/>
  </g>
</svg>
