<?xml version="1.0" encoding="UTF-8" standalone="no"?>
<svg xmlns:xlink="http://www.w3.org/1999/xlink" height="110.65px" width="188.9px" xmlns="http://www.w3.org/2000/svg">
  <g transform="matrix(1.0, 0.0, 0.0, 1.0, -104.8, -126.65)">
    <path d="M172.9 178.75 L161.85 174.5 158.6 173.2 146.3 168.5 Q142.35 162.3 137.4 156.9 L133.6 153.05 131.05 150.7 130.7 150.45 127.35 147.65 126.2 146.7 125.3 146.0 124.8 145.65 122.65 144.05 122.3 143.85 122.2 143.75 117.75 140.9 Q114.6 138.9 111.2 137.15 L137.2 134.75 162.5 132.35 Q165.45 136.15 167.65 140.15 169.35 143.2 170.6 146.35 L171.45 148.7 171.8 149.65 Q176.0 162.75 173.1 177.65 L172.9 178.75 M137.2 134.75 L138.3 135.45 Q143.3 138.5 147.6 141.9 L150.7 144.45 151.85 145.45 154.7 148.1 155.55 148.95 171.45 148.7 155.55 148.95 154.7 148.1 151.85 145.45 150.7 144.45 147.6 141.9 Q143.3 138.5 138.3 135.45 L137.2 134.75" fill="url(#gradient0)" fill-rule="evenodd" stroke="none"/>
    <path d="M238.0 134.85 L277.0 142.3 292.7 144.85 291.45 148.7 290.4 151.45 289.15 154.2 288.0 156.6 284.2 163.0 281.8 166.55 281.05 167.55 279.95 169.05 266.95 174.3 Q264.6 168.4 261.9 163.15 258.85 157.35 255.3 152.35 L253.95 150.5 252.25 148.35 Q249.4 144.8 246.25 141.75 242.35 137.95 238.0 134.85 M277.0 142.3 L270.05 152.2 253.95 150.5 270.05 152.2 277.0 142.3" fill="url(#gradient1)" fill-rule="evenodd" stroke="none"/>
    <path d="M284.2 163.0 Q285.8 174.2 285.75 185.35 L280.9 185.35 280.9 185.3 280.7 185.35 275.7 185.35 Q274.3 182.2 272.6 180.35 L272.55 180.3 272.45 180.15 Q271.2 178.85 269.85 178.25 L269.55 178.15 269.45 178.1 268.25 177.75 266.95 174.3 279.95 169.05 281.05 167.55 281.8 166.55 284.2 163.0" fill="url(#gradient2)" fill-rule="evenodd" stroke="none"/>
    <path d="M280.7 185.35 L281.5 189.8 Q281.9 194.25 280.7 198.7 L274.55 198.7 269.2 198.7 Q268.65 194.2 267.3 189.95 L265.5 185.3 269.35 180.95 268.25 177.75 269.45 178.1 269.55 178.15 269.85 178.25 Q271.2 178.85 272.45 180.15 L272.45 180.35 272.5 180.35 272.6 180.35 Q274.3 182.2 275.7 185.35 L280.7 185.35" fill="url(#gradient3)" fill-rule="evenodd" stroke="none"/>
    <path d="M118.8 179.6 L109.45 172.2 Q107.15 163.85 111.6 155.85 113.15 153.05 115.5 150.35 118.2 147.2 121.95 144.1 L122.3 143.85 122.65 144.05 124.8 145.65 125.3 146.0 126.2 146.7 127.35 147.65 130.7 150.45 130.75 150.75 131.05 150.7 133.6 153.05 137.4 156.9 Q142.35 162.3 146.3 168.5 L158.6 173.2 149.45 178.4 Q146.25 177.1 143.3 176.45 L132.9 176.15 131.95 176.4 Q128.7 177.3 126.0 179.35 L125.85 179.5 Q124.1 180.8 122.6 182.6 L118.8 179.6" fill="url(#gradient4)" fill-rule="evenodd" stroke="none"/>
    <path d="M130.7 150.45 L131.05 150.7 130.75 150.75 130.7 150.45" fill="#ffffff" fill-opacity="0.2509804" fill-rule="evenodd" stroke="none"/>
    <path d="M161.85 174.5 L161.45 174.8 Q160.25 175.65 159.2 176.6 L159.0 176.75 158.8 176.95 158.45 177.25 Q153.5 181.85 150.9 187.9 149.3 191.6 148.6 195.9 L147.8 196.0 Q144.4 196.6 141.9 197.75 136.2 200.4 135.2 206.0 L124.75 206.0 118.9 206.0 Q116.85 192.8 118.8 179.6 L122.6 182.6 Q124.1 180.8 125.85 179.5 L126.0 179.35 Q128.7 177.3 131.95 176.4 L132.9 176.15 143.3 176.45 Q146.25 177.1 149.45 178.4 L158.6 173.2 161.85 174.5" fill="url(#gradient5)" fill-rule="evenodd" stroke="none"/>
    <path d="M182.15 237.3 L182.1 237.3 182.1 237.25 182.15 237.3" fill="#ffffff" fill-rule="evenodd" stroke="none"/>
    <path d="M179.4 127.65 Q191.6 133.9 201.1 136.0 212.0 138.45 219.3 135.4 L219.3 131.1 M237.95 134.85 L238.0 134.85 Q242.35 137.95 246.25 141.75 249.4 144.8 252.25 148.35 L253.95 150.5 255.3 152.35 Q258.85 157.35 261.9 163.15 264.6 168.4 266.95 174.3 L268.25 177.75 269.35 180.95 265.5 185.3 262.5 188.65 262.5 198.5 Q260.4 202.2 258.6 206.05 253.55 216.6 250.45 228.4 L249.85 231.15 Q243.65 229.4 231.75 228.85 218.95 228.25 199.5 229.0 L197.05 229.1 191.2 229.35 184.5 229.7 M164.75 201.05 Q170.1 190.5 172.45 180.75 L172.9 178.75 173.1 177.65 Q176.0 162.75 171.8 149.65 L171.45 148.7 170.6 146.35 Q169.35 143.2 167.65 140.15 165.45 136.15 162.5 132.35 M219.3 135.4 L219.3 139.75 M172.45 180.75 L181.0 185.9 Q185.65 189.05 211.05 186.25 224.45 185.2 235.8 185.95 L248.55 187.45 257.1 188.95" fill="none" stroke="#000000" stroke-linecap="round" stroke-linejoin="round" stroke-width="1.0"/>
    <path d="M219.3 131.1 Q229.1 132.45 237.95 134.85 M238.0 134.85 L277.0 142.3 292.7 144.85 291.45 148.7 290.4 151.45 289.15 154.2 288.0 156.6 284.2 163.0 Q285.8 174.2 285.75 185.35 L280.9 185.35 280.7 185.35 281.5 189.8 Q281.9 194.25 280.7 198.7 L274.55 198.7 M184.5 229.7 Q184.05 220.75 182.95 211.95 173.3 207.05 164.75 201.05 M124.75 206.0 L118.9 206.0 Q116.85 192.8 118.8 179.6 L109.45 172.2 Q107.15 163.85 111.6 155.85 107.15 150.8 106.2 145.8 104.4 137.15 111.2 137.15 L137.2 134.75 162.5 132.35 Q170.8 129.9 179.4 127.65" fill="none" stroke="#000000" stroke-linecap="round" stroke-linejoin="round" stroke-width="2.0"/>
    <path d="M235.8 185.95 L238.65 182.35 238.65 181.25 Q238.2 164.55 227.6 153.4 M180.05 148.55 L171.8 149.65 M241.5 149.15 Q234.15 147.85 226.2 147.25 224.5 150.7 217.0 146.8 200.4 146.15 180.4 148.5 M255.3 152.35 Q248.95 150.5 242.05 149.25 M244.6 219.1 L249.9 202.85 248.05 198.65 M208.8 217.6 L208.8 202.65 214.45 196.4 M233.1 218.65 L235.45 202.3" fill="none" stroke="#000000" stroke-linecap="round" stroke-linejoin="round" stroke-opacity="0.2509804" stroke-width="1.0"/>
    <path d="M274.55 198.7 L269.2 198.7 Q268.65 194.2 267.3 189.95 L265.5 185.3 M172.9 178.75 L161.85 174.5 161.45 174.8 Q160.25 175.65 159.2 176.6 L159.0 176.75 158.8 176.95 158.45 177.25 Q153.5 181.85 150.9 187.9 149.3 191.6 148.6 195.9 L147.8 196.0 Q144.4 196.6 141.9 197.75 136.2 200.4 135.2 206.0 L124.75 206.0 M266.95 174.3 L279.95 169.05 281.05 167.55 281.8 166.55 284.2 163.0 M280.7 185.35 L275.7 185.35 Q274.3 182.2 272.6 180.35 L272.55 180.3 272.45 180.15 Q271.2 178.85 269.85 178.25 L269.55 178.15 269.45 178.1 268.25 177.75 M122.3 143.85 L122.2 143.75 117.75 140.9 Q114.6 138.9 111.2 137.15 M111.6 155.85 Q113.15 153.05 115.5 150.35 118.2 147.2 121.95 144.1 L122.3 143.85 122.65 144.05 124.8 145.65 125.3 146.0 126.2 146.7 127.35 147.65 130.7 150.45 131.05 150.7 133.6 153.05 137.4 156.9 Q142.35 162.3 146.3 168.5 L158.6 173.2 161.85 174.5 M158.6 173.2 L149.45 178.4 Q146.25 177.1 143.3 176.45 L132.9 176.15 131.95 176.4 Q128.7 177.3 126.0 179.35 L125.85 179.5 Q124.1 180.8 122.6 182.6 L118.8 179.6" fill="none" stroke="#000000" stroke-linecap="round" stroke-linejoin="round" stroke-width="1.0"/>
    <path d="M171.45 148.7 L155.55 148.95 154.7 148.1 151.85 145.45 150.7 144.45 147.6 141.9 Q143.3 138.5 138.3 135.45 L137.2 134.75 M180.4 148.5 L180.05 148.55 M242.05 149.25 L241.5 149.15 M253.95 150.5 L270.05 152.2 277.0 142.3" fill="none" stroke="#000000" stroke-linecap="round" stroke-linejoin="round" stroke-width="0.5"/>
    <path d="M284.7 162.25 L284.2 163.0 281.95 166.35 261.9 163.2 261.9 163.15 258.6 157.35 284.7 162.25 M145.3 196.55 Q143.4 197.05 141.9 197.75 L140.35 198.6 144.15 176.65 143.3 176.45 141.5 176.1 145.55 167.35 146.3 168.5 150.4 170.05 146.6 177.35 Q148.0 177.8 149.45 178.4 L150.3 177.95 145.3 196.55 M111.6 155.85 Q107.15 150.8 106.2 145.8 104.4 137.15 111.2 137.15 114.6 138.9 117.75 140.9 L122.2 143.75 121.95 144.1 Q118.2 147.2 115.5 150.35 113.15 153.05 111.6 155.85 M173.55 156.85 Q174.05 159.75 174.2 162.8 L144.4 165.65 140.45 160.45 173.55 156.85 M144.15 176.65 L146.6 177.35 144.15 176.65" fill="#000000" fill-opacity="0.2509804" fill-rule="evenodd" stroke="none"/>
    <path d="M291.45 148.7 L290.4 151.45 289.15 154.2 270.7 151.25 252.25 148.35 Q249.4 144.8 246.25 141.75 L274.35 146.05 270.7 151.25 274.35 146.05 291.45 148.7 M284.7 185.35 L280.9 185.35 280.9 185.3 277.2 170.15 279.95 169.05 281.05 167.55 284.7 185.35 M278.9 198.7 L274.55 198.7 272.45 180.35 272.5 180.35 272.6 180.35 Q274.3 182.2 275.7 185.35 L276.95 185.35 278.9 198.7 M128.15 206.0 L124.75 206.0 123.45 206.0 125.85 179.5 126.0 179.35 Q128.7 177.3 131.95 176.4 L128.15 206.0 M115.1 176.65 L111.8 174.05 Q113.45 154.4 126.2 146.7 L127.35 147.65 130.7 150.45 131.05 150.7 130.7 150.45 127.35 147.65 126.2 146.7 125.3 146.0 124.8 145.65 122.65 144.05 147.6 141.9 167.65 140.15 Q169.35 143.2 170.6 146.35 L154.7 148.1 131.05 150.7 129.65 150.85 Q120.45 156.1 115.1 176.65 M154.7 148.1 L151.85 145.45 150.7 144.45 147.6 141.9 150.7 144.45 151.85 145.45 154.7 148.1" fill="#ffffff" fill-opacity="0.2509804" fill-rule="evenodd" stroke="none"/>
    <path d="M182.1 237.3 L182.1 237.25 182.15 237.3 182.1 237.3" fill="#ffffff" fill-rule="evenodd" stroke="none"/>
    <path d="M219.3 131.1 L219.3 135.4 219.3 139.75 M237.95 134.85 L238.0 134.85 Q242.35 137.95 246.25 141.75 249.4 144.8 252.25 148.35 L253.95 150.5 255.3 152.35 258.6 157.35 261.9 163.15 261.9 163.2 Q264.6 168.4 266.95 174.3 L268.25 177.75 269.35 180.95 265.5 185.3 262.5 188.65 262.5 198.5 Q260.4 202.2 258.6 206.05 253.55 216.6 250.45 228.4 L249.85 231.15 Q243.65 229.4 231.75 228.85 218.95 228.25 199.5 229.0 L197.05 229.1 191.2 229.35 184.5 229.7 M274.55 198.7 L269.2 198.7 Q268.65 194.2 267.3 189.95 L265.5 185.3 M164.75 201.05 Q170.1 190.5 172.45 180.75 L172.9 178.75 161.85 174.5 161.45 174.8 Q160.25 175.65 159.2 176.6 L159.0 176.75 158.8 176.95 158.45 177.25 Q153.5 181.85 150.9 187.9 149.3 191.6 148.6 195.9 L147.8 196.0 145.3 196.55 Q143.4 197.05 141.9 197.75 L140.35 198.6 Q136.05 201.2 135.2 206.0 L128.15 206.0 124.75 206.0 M179.4 127.65 Q191.6 133.9 201.1 136.0 212.0 138.45 219.3 135.4 M167.65 140.15 Q165.45 136.15 162.5 132.35 M170.6 146.35 Q169.35 143.2 167.65 140.15 M170.6 146.35 L171.45 148.7 171.8 149.65 Q172.9 153.2 173.55 156.85 174.05 159.75 174.2 162.8 174.6 170.0 173.1 177.65 L172.9 178.75 M257.1 188.95 L248.55 187.45 235.8 185.95 Q224.45 185.2 211.05 186.25 185.65 189.05 181.0 185.9 L172.45 180.75 M281.95 166.35 L281.8 166.55 281.05 167.55 279.95 169.05 277.2 170.15 Q272.05 172.2 266.95 174.3 M280.7 185.35 L276.95 185.35 275.7 185.35 Q274.3 182.2 272.6 180.35 L272.55 180.3 272.45 180.15 Q271.2 178.85 269.85 178.25 L269.55 178.15 269.45 178.1 268.25 177.75 M281.95 166.35 L284.2 163.0 M122.2 143.75 L117.75 140.9 Q114.6 138.9 111.2 137.15 M122.65 144.05 L122.3 143.85 121.95 144.1 Q118.2 147.2 115.5 150.35 113.15 153.05 111.6 155.85 M122.2 143.75 L122.3 143.85 M126.2 146.7 L127.35 147.65 130.7 150.45 131.05 150.7 133.6 153.05 137.4 156.9 140.45 160.45 144.4 165.65 145.55 167.35 146.3 168.5 150.4 170.05 158.6 173.2 161.85 174.5 M122.65 144.05 L124.8 145.65 125.3 146.0 126.2 146.7 M118.8 179.6 L122.6 182.6 Q124.1 180.8 125.85 179.5 L126.0 179.35 Q128.7 177.3 131.95 176.4 L132.9 176.15 Q136.85 175.3 141.5 176.1 L143.3 176.45 144.15 176.65 146.6 177.35 Q148.0 177.8 149.45 178.4 L150.3 177.95 158.6 173.2" fill="none" stroke="#000000" stroke-linecap="round" stroke-linejoin="round" stroke-width="1.0"/>
    <path d="M219.3 131.1 Q229.1 132.45 237.95 134.85 M238.0 134.85 L277.0 142.3 292.7 144.85 291.45 148.7 290.4 151.45 289.15 154.2 288.0 156.6 284.7 162.25 284.2 163.0 284.7 166.75 Q285.8 176.05 285.75 185.35 L284.7 185.35 280.9 185.35 280.7 185.35 281.5 189.8 Q281.9 194.25 280.7 198.7 L278.9 198.7 274.55 198.7 M184.5 229.7 Q184.05 220.75 182.95 211.95 173.3 207.05 164.75 201.05 M124.75 206.0 L123.45 206.0 118.9 206.0 Q116.85 192.8 118.8 179.6 L115.1 176.65 111.8 174.05 109.45 172.2 Q107.15 163.85 111.6 155.85 107.15 150.8 106.2 145.8 104.4 137.15 111.2 137.15 L137.2 134.75 162.5 132.35 Q170.8 129.9 179.4 127.65" fill="none" stroke="#000000" stroke-linecap="round" stroke-linejoin="round" stroke-width="2.0"/>
    <path d="M147.6 141.9 L150.7 144.45 151.85 145.45 154.7 148.1 155.55 148.95 171.45 148.7 M180.05 148.55 L180.4 148.5 M241.5 149.15 L242.05 149.25 M274.35 146.05 L277.0 142.3 M270.7 151.25 L270.05 152.2 253.95 150.5 M274.35 146.05 L270.7 151.25 M147.6 141.9 Q143.3 138.5 138.3 135.45 L137.2 134.75" fill="none" stroke="#000000" stroke-linecap="round" stroke-linejoin="round" stroke-width="0.5"/>
    <path d="M171.8 149.65 L180.05 148.55 M180.4 148.5 Q200.4 146.15 217.0 146.8 224.5 150.7 226.2 147.25 234.15 147.85 241.5 149.15 M242.05 149.25 Q248.95 150.5 255.3 152.35 M235.8 185.95 L238.65 182.35 238.65 181.25 Q238.2 164.55 227.6 153.4 M244.6 219.1 L249.9 202.85 248.05 198.65 M233.1 218.65 L235.45 202.3 M208.8 217.6 L208.8 202.65 214.45 196.4" fill="none" stroke="#000000" stroke-linecap="round" stroke-linejoin="round" stroke-opacity="0.2509804" stroke-width="1.0"/>
  </g>
  <defs>
    <linearGradient gradientTransform="matrix(-0.0058, -0.0218, 0.0234, -0.0062, 152.6, 154.45)" gradientUnits="userSpaceOnUse" id="gradient0" spreadMethod="pad" x1="-819.2" x2="819.2">
      <stop offset="0.0" stop-color="#000000" stop-opacity="0.0"/>
      <stop offset="1.0" stop-color="#000000" stop-opacity="0.2509804"/>
    </linearGradient>
    <linearGradient gradientTransform="matrix(0.0, -0.0163, 0.0215, 0.0, 271.55, 155.55)" gradientUnits="userSpaceOnUse" id="gradient1" spreadMethod="pad" x1="-819.2" x2="819.2">
      <stop offset="0.0" stop-color="#000000" stop-opacity="0.0"/>
      <stop offset="1.0" stop-color="#000000" stop-opacity="0.2509804"/>
    </linearGradient>
    <linearGradient gradientTransform="matrix(0.0079, 0.0, 0.0, 0.0093, 277.25, 177.75)" gradientUnits="userSpaceOnUse" id="gradient2" spreadMethod="pad" x1="-819.2" x2="819.2">
      <stop offset="0.0" stop-color="#000000" stop-opacity="0.0"/>
      <stop offset="1.0" stop-color="#000000" stop-opacity="0.2509804"/>
    </linearGradient>
    <linearGradient gradientTransform="matrix(0.0064, 0.0, 0.0, 0.0128, 273.65, 188.2)" gradientUnits="userSpaceOnUse" id="gradient3" spreadMethod="pad" x1="-819.2" x2="819.2">
      <stop offset="0.0" stop-color="#000000" stop-opacity="0.0"/>
      <stop offset="1.0" stop-color="#000000" stop-opacity="0.2509804"/>
    </linearGradient>
    <linearGradient gradientTransform="matrix(-0.0214, -0.0123, 0.0097, -0.0169, 129.7, 168.3)" gradientUnits="userSpaceOnUse" id="gradient4" spreadMethod="pad" x1="-819.2" x2="819.2">
      <stop offset="0.0" stop-color="#000000" stop-opacity="0.0"/>
      <stop offset="1.0" stop-color="#000000" stop-opacity="0.2509804"/>
    </linearGradient>
    <linearGradient gradientTransform="matrix(-0.0175, 0.0, 0.0, -0.02, 133.1, 189.6)" gradientUnits="userSpaceOnUse" id="gradient5" spreadMethod="pad" x1="-819.2" x2="819.2">
      <stop offset="0.0" stop-color="#000000" stop-opacity="0.0"/>
      <stop offset="1.0" stop-color="#000000" stop-opacity="0.2509804"/>
    </linearGradient>
  </defs>
</svg>
