<?xml version="1.0" encoding="UTF-8" standalone="no"?>
<svg xmlns:xlink="http://www.w3.org/1999/xlink" height="34.25px" width="61.85px" xmlns="http://www.w3.org/2000/svg">
  <g transform="matrix(1.0, 0.0, 0.0, 1.0, -175.8, -107.3)">
    <path d="M223.75 113.5 Q235.65 118.9 237.4 134.45 L237.65 138.4 Q235.95 136.55 234.05 135.5 230.95 133.8 227.25 134.3 221.35 135.05 214.05 141.55 216.4 138.75 217.75 136.0 218.9 133.55 219.25 131.1 L219.3 130.4 219.3 127.75 219.3 124.4 222.0 124.4 223.9 122.3 223.75 113.5 M206.95 136.95 L212.15 140.45 Q206.3 137.7 201.1 136.05 191.95 133.1 184.9 133.45 182.05 133.55 179.55 134.2 L176.25 135.35 Q175.7 131.7 175.85 128.5 176.5 113.15 192.2 107.3 L190.5 111.5 188.25 115.9 189.25 117.9 Q194.85 128.2 206.95 136.95" fill="#000000" fill-rule="evenodd" stroke="none"/>
  </g>
</svg>
