<?xml version="1.0" encoding="UTF-8" standalone="no"?>
<svg xmlns:xlink="http://www.w3.org/1999/xlink" height="56.9px" width="128.85px" xmlns="http://www.w3.org/2000/svg">
  <g transform="matrix(1.0, 0.0, 0.0, 1.0, -137.7, -91.95)">
    <path d="M223.9 122.3 L223.6 104.75 Q224.2 103.1 224.3 101.45 239.25 101.05 253.45 96.8 238.9 112.6 231.35 128.85 L233.9 128.55 239.9 128.85 Q243.2 129.4 246.0 130.85 L251.1 133.7 Q258.65 129.6 261.75 133.4 264.45 136.75 266.55 140.1 246.75 146.7 236.85 143.6 L231.95 141.6 Q226.45 147.95 206.05 144.55 L199.3 143.25 177.6 148.85 Q156.7 142.05 139.55 135.65 L137.7 134.95 Q138.6 132.2 145.85 130.1 151.5 130.35 157.15 132.1 158.9 130.65 161.15 129.5 163.95 127.95 167.45 126.9 L170.05 128.65 179.4 127.65 Q178.0 121.2 171.2 110.85 165.75 102.65 156.85 91.95 174.35 98.45 191.8 101.6 192.25 103.7 193.0 104.9 190.55 112.65 186.25 119.2 L191.9 124.4 Q197.9 129.35 201.5 139.6 L201.6 139.9 201.65 139.65 209.2 140.6 Q221.7 141.85 227.05 139.6 L219.3 131.1 219.3 124.4 222.0 124.4 223.9 122.3" fill="#000000" fill-rule="evenodd" stroke="none"/>
  </g>
</svg>
