<?xml version="1.0" encoding="UTF-8" standalone="no"?>
<svg xmlns:xlink="http://www.w3.org/1999/xlink" height="29.35px" width="47.05px" xmlns="http://www.w3.org/2000/svg">
  <g transform="matrix(1.0, 0.0, 0.0, 1.0, -184.6, -72.6)">
    <path d="M194.45 78.85 Q193.1 81.7 195.9 83.05 193.45 83.2 191.15 81.55 188.05 77.7 196.8 75.05 193.6 76.9 194.45 78.85 M193.15 91.55 L192.55 91.65 Q186.5 92.65 185.95 89.2 187.45 90.05 190.35 89.5 188.05 89.15 187.15 87.8 185.1 87.1 185.75 84.25 187.45 88.0 191.75 85.75 196.6 84.55 200.65 86.15 197.4 87.0 193.15 88.85 L192.8 88.95 Q194.15 90.4 197.55 89.7 L193.15 91.55 M199.05 92.3 Q197.65 92.85 196.2 93.65 L195.75 93.8 Q189.0 97.85 191.25 100.95 189.75 99.65 189.0 98.55 187.2 95.8 192.75 91.9 194.3 93.55 199.05 92.3 M190.35 89.5 L192.8 88.95 190.35 89.5 M220.95 84.55 Q220.05 81.95 214.55 82.85 L205.25 82.5 Q221.75 78.7 220.95 84.55" fill="#000000" fill-opacity="0.2509804" fill-rule="evenodd" stroke="none"/>
    <path d="M195.9 83.05 Q197.25 82.95 198.65 82.35 M191.15 81.55 Q193.45 83.2 195.9 83.05 M200.65 86.15 Q197.4 87.0 193.15 88.85 L192.8 88.95 190.35 89.5 M197.55 89.7 Q203.7 87.25 206.6 87.5 M192.75 91.9 L193.35 91.5 193.15 91.55 197.55 89.7 M199.05 92.3 Q197.65 92.85 196.2 93.65 L195.75 93.8 Q189.0 97.85 191.25 100.95 M199.05 92.3 Q202.25 91.2 204.65 91.15 212.45 93.35 214.95 91.2 216.65 93.2 212.25 97.95 218.55 94.1 219.6 92.25 222.85 92.55 224.3 94.25 M200.65 86.15 Q204.55 85.1 207.05 85.5 M214.55 82.85 Q220.05 81.95 220.95 84.55 M216.35 88.75 Q215.95 87.1 213.2 87.5 M220.5 90.7 Q224.55 86.6 222.45 84.95" fill="none" stroke="#000000" stroke-linecap="round" stroke-linejoin="round" stroke-width="1.0"/>
    <path d="M224.3 94.25 Q225.05 95.1 225.3 96.4 226.7 94.2 225.45 92.25 226.55 92.2 227.35 93.35 229.15 90.45 226.15 89.2 229.8 89.35 229.8 84.85 L227.2 85.85 Q233.0 82.2 229.1 78.3 230.4 82.15 225.1 82.9 L225.1 81.1 Q224.75 78.4 220.35 76.9 L221.1 78.7 Q220.35 77.85 218.5 77.05 214.7 75.75 217.7 73.7 214.3 73.2 212.75 76.0 205.85 73.65 199.85 78.5 197.45 80.75 195.05 79.75 L194.45 78.85 Q193.6 76.9 196.8 75.05 188.05 77.7 191.15 81.55 L189.35 80.6 Q188.65 84.8 191.75 85.75 187.45 88.0 185.75 84.25 185.1 87.1 187.15 87.8 188.05 89.15 190.35 89.5 187.45 90.05 185.95 89.2 186.5 92.65 192.55 91.65 L193.15 91.55 M191.25 100.95 Q189.75 99.65 189.0 98.55 187.2 95.8 192.75 91.9" fill="none" stroke="#000000" stroke-linecap="round" stroke-linejoin="round" stroke-width="2.0"/>
  </g>
</svg>
