<?xml version="1.0" encoding="UTF-8" standalone="no"?>
<svg xmlns:xlink="http://www.w3.org/1999/xlink" height="53.95px" width="46.55px" xmlns="http://www.w3.org/2000/svg">
  <g transform="matrix(1.0, 0.0, 0.0, 1.0, -184.05, -77.45)">
    <path d="M222.0 86.85 L215.95 88.6 207.7 88.3 205.8 88.65 206.45 87.7 208.3 85.6 211.2 85.95 Q215.05 87.65 215.95 88.6 L218.1 86.5 218.25 86.35 218.8 85.9 220.15 85.0 222.0 86.85 M202.4 98.25 Q201.95 101.25 201.7 105.4 201.0 115.05 216.6 130.9 200.05 124.45 194.4 119.9 L188.7 115.2 185.05 112.15 Q187.6 93.7 190.65 86.8 191.55 84.7 192.65 82.95 L192.8 82.7 Q195.5 92.8 202.4 98.25" fill="#000000" fill-opacity="0.2509804" fill-rule="evenodd" stroke="none"/>
    <path d="M193.45 81.7 Q194.1 80.7 194.85 79.85 195.95 79.1 197.2 78.95 L211.2 85.95 208.3 85.6 206.45 87.7 193.45 81.7 M210.05 79.9 L214.4 81.0 218.05 81.45 221.45 84.55 Q220.85 84.6 220.15 85.0 L218.8 85.9 210.05 79.9" fill="#ffffff" fill-opacity="0.2509804" fill-rule="evenodd" stroke="none"/>
    <path d="M193.45 81.7 Q194.1 80.7 194.85 79.85 195.95 79.1 197.2 78.95 L199.2 79.05 Q201.4 78.25 204.2 78.5 206.6 78.7 210.05 79.9 L214.4 81.0 218.05 81.45 220.55 81.45 Q225.4 81.85 226.25 87.25 227.4 98.7 225.6 110.55 224.35 119.65 229.6 127.1 225.85 124.9 223.55 122.7 L223.9 122.3 223.6 104.75 Q225.1 100.7 223.6 96.7 L224.25 94.25 Q224.2 89.75 222.0 86.85 L220.15 85.0 M188.7 115.2 L185.05 112.15 Q187.6 93.7 190.65 86.8 191.55 84.7 192.65 82.95 L192.8 82.7 193.45 81.7" fill="none" stroke="#000000" stroke-linecap="round" stroke-linejoin="round" stroke-width="2.0"/>
    <path d="M222.0 86.85 L215.95 88.6 207.7 88.3 205.8 88.65 Q204.55 90.4 203.8 92.3 202.95 94.25 202.4 98.25 201.95 101.25 201.7 105.4 201.0 115.05 216.6 130.9 200.05 124.45 194.4 119.9 L188.7 115.2 M206.45 87.7 L208.3 85.6 211.2 85.95 Q215.05 87.65 215.95 88.6 L218.1 86.5 218.25 86.35 218.8 85.9 220.15 85.0 Q220.85 84.6 221.45 84.55 222.8 84.4 223.3 86.25 M206.45 87.7 L205.8 88.65" fill="none" stroke="#000000" stroke-linecap="round" stroke-linejoin="round" stroke-width="1.0"/>
  </g>
</svg>
