<?xml version="1.0" encoding="UTF-8" standalone="no"?>
<svg xmlns:xlink="http://www.w3.org/1999/xlink" height="52.25px" width="44.75px" xmlns="http://www.w3.org/2000/svg">
  <g transform="matrix(1.0, 0.0, 0.0, 1.0, -196.05, -41.25)">
    <path d="M230.15 59.0 Q239.65 75.75 222.35 86.85 L215.75 90.65 Q214.95 89.75 214.6 88.65 214.4 87.85 214.5 87.15 214.6 86.45 215.1 85.9 215.65 85.2 216.45 84.95 L217.6 84.45 219.15 83.7 Q229.1 78.6 231.25 70.75 232.9 64.5 230.15 59.0 M204.45 92.6 L203.4 92.05 Q201.7 90.9 201.55 89.15 201.35 87.4 202.85 85.95 L203.2 85.65 205.05 82.6 Q208.5 74.1 199.75 59.4 195.4 52.0 198.1 47.2 199.45 54.15 206.7 66.4 213.9 78.6 204.45 92.6" fill="#000000" fill-opacity="0.2509804" fill-rule="evenodd" stroke="none"/>
    <path d="M224.05 91.0 L227.65 88.8 Q241.4 80.05 239.6 66.4 238.5 57.9 231.85 52.3 225.4 46.75 233.55 43.25 233.25 41.65 230.45 42.65 219.45 46.35 226.6 54.0 228.55 56.1 230.15 59.0 232.9 64.5 231.25 70.75 229.1 78.6 219.15 83.7 M198.1 47.2 Q198.7 46.15 199.6 45.25 L200.55 44.4 Q202.95 43.25 204.0 44.45 L202.4 45.45 Q197.95 49.75 205.65 57.3 218.0 69.15 215.1 82.85 M205.05 82.6 Q208.5 74.1 199.75 59.4 195.4 52.0 198.1 47.2" fill="none" stroke="#000000" stroke-linecap="round" stroke-linejoin="round" stroke-width="2.0"/>
    <path d="M215.75 90.65 L216.6 91.45 Q218.1 92.6 219.65 92.6 L221.05 92.4 221.4 92.25 222.15 91.9 224.05 91.0 M215.1 82.85 L213.85 86.95 213.2 88.4 212.55 89.5 211.05 91.25 210.9 91.4 Q209.45 92.8 207.2 93.0 205.7 93.1 204.45 92.6 L203.4 92.05 Q201.7 90.9 201.55 89.15 201.35 87.4 202.85 85.95 L203.2 85.65 205.05 82.6 M219.15 83.7 L217.6 84.45 216.45 84.95 Q215.65 85.2 215.1 85.9 214.6 86.45 214.5 87.15 214.4 87.85 214.6 88.65 214.95 89.75 215.75 90.65" fill="none" stroke="#000000" stroke-linecap="round" stroke-linejoin="round" stroke-width="1.0"/>
  </g>
</svg>
