<?xml version="1.0" encoding="UTF-8" standalone="no"?>
<svg xmlns:xlink="http://www.w3.org/1999/xlink" height="30.1px" width="36.65px" xmlns="http://www.w3.org/2000/svg">
  <g transform="matrix(1.0, 0.0, 0.0, 1.0, -191.55, -82.05)">
    <path d="M219.9 93.65 L219.95 94.15 220.05 96.1 220.05 100.3 219.75 104.5 219.6 105.65 219.15 108.4 222.55 106.3 223.05 101.3 223.1 100.95 223.15 98.65 223.0 94.7 222.95 94.05 219.9 93.65 M217.3 93.55 L215.9 93.55 213.75 93.65 213.85 94.65 213.95 96.5 213.8 101.45 213.25 104.9 212.55 107.65 215.9 108.8 216.75 105.45 217.05 103.8 Q217.7 99.1 217.35 94.3 L217.3 93.55 M207.75 95.5 L207.75 95.65 207.75 95.75 Q208.2 99.6 207.4 103.15 L206.65 105.65 209.95 106.8 210.95 102.6 Q211.45 99.3 211.05 95.6 L211.0 95.1 210.9 94.35 207.75 95.5 M194.3 95.3 Q194.15 86.05 201.25 83.55 L204.6 82.55 207.95 82.1 Q212.85 81.7 217.75 83.55 223.2 86.1 224.1 92.05 L227.5 94.45 Q228.8 99.75 227.7 104.9 L217.6 112.15 199.0 104.45 197.55 103.3 Q197.2 105.9 195.15 106.45 193.85 106.3 193.05 104.9 192.4 103.9 192.0 102.2 L191.75 100.9 Q190.85 95.55 194.3 95.3" fill="#000000" fill-rule="evenodd" stroke="none"/>
  </g>
</svg>
