<?xml version="1.0" encoding="UTF-8" standalone="no"?>
<svg xmlns:xlink="http://www.w3.org/1999/xlink" height="31.8px" width="34.7px" xmlns="http://www.w3.org/2000/svg">
  <g transform="matrix(1.0, 0.0, 0.0, 1.0, -191.65, -75.05)">
    <path d="M194.15 87.35 L194.85 85.85 195.0 85.55 195.1 85.35 195.4 84.8 Q197.3 81.95 200.9 80.4 202.6 79.75 204.35 79.45 L204.3 78.25 204.3 78.2 206.1 77.7 Q206.6 75.9 208.85 76.05 210.9 76.2 211.0 77.5 L213.45 78.05 213.5 79.45 216.45 80.3 217.2 80.6 Q219.7 81.6 221.35 83.2 L222.25 84.15 222.45 84.4 222.6 84.6 223.35 85.9 223.7 86.65 223.85 87.05 224.4 89.65 225.2 89.55 225.35 93.85 224.25 94.1 223.7 94.2 223.4 94.25 222.85 94.35 220.8 94.7 220.75 94.7 220.25 94.75 218.15 94.95 217.7 97.8 217.8 98.6 218.2 101.85 218.65 105.8 Q217.3 106.9 213.95 105.85 L214.0 101.85 214.1 98.6 214.1 98.15 213.05 95.15 205.45 94.85 202.5 94.6 202.45 94.65 201.55 94.55 198.2 94.15 198.15 94.15 195.35 93.75 194.35 93.6 192.65 93.35 192.95 89.2 193.65 89.35 193.95 87.95 194.0 87.9 194.1 87.55 194.15 87.35 M197.05 84.7 L197.1 84.65 197.15 84.6 197.65 83.75 199.4 81.7 200.9 80.4 199.4 81.7 197.65 83.75 197.15 84.6 197.1 84.65 197.05 84.7 Q196.45 85.7 196.1 86.85 L195.9 87.4 196.1 86.85 Q196.45 85.7 197.05 84.7 M201.85 85.85 L201.75 86.1 Q201.1 88.05 200.8 90.45 L198.75 90.2 195.45 89.7 195.65 88.3 195.85 87.5 195.9 87.4 195.85 87.5 195.65 88.3 195.45 89.7 198.75 90.2 200.8 90.45 Q201.1 88.05 201.75 86.1 L201.85 85.85 201.95 85.45 202.4 84.35 202.9 83.3 203.05 82.95 203.3 82.5 203.05 82.95 202.9 83.3 202.4 84.35 201.95 85.45 201.85 85.85 M193.65 89.35 L195.1 89.65 195.45 89.7 195.1 89.65 193.65 89.35 M200.8 90.45 L202.45 90.55 202.9 90.6 206.2 90.75 212.7 90.7 213.05 95.15 212.7 90.7 206.2 90.75 202.9 90.6 202.45 90.55 200.8 90.45 M204.35 79.45 L206.35 79.1 204.75 80.55 203.9 81.65 203.8 81.75 203.35 82.45 203.3 82.5 203.35 82.45 203.8 81.75 203.9 81.65 204.75 80.55 206.35 79.1 204.35 79.45 M214.75 81.35 L214.8 81.45 215.3 82.1 215.8 82.9 216.35 84.05 215.8 82.9 215.3 82.1 214.8 81.45 214.75 81.35 Q213.65 80.0 212.3 79.2 L211.15 79.05 Q208.75 78.8 206.35 79.1 208.2 79.35 209.55 81.1 L209.7 81.3 209.55 81.1 Q208.2 79.35 206.35 79.1 208.75 78.8 211.15 79.05 L212.3 79.2 Q213.65 80.0 214.75 81.35 M211.2 84.2 L210.2 82.05 209.95 81.7 209.7 81.3 209.95 81.7 210.2 82.05 211.2 84.2 211.4 84.8 Q212.2 87.15 212.7 90.6 L213.95 88.7 216.25 88.55 217.9 90.2 Q217.5 87.15 216.7 84.85 L216.45 84.25 216.35 84.05 216.45 84.25 216.7 84.85 Q217.5 87.15 217.9 90.2 L216.25 88.55 213.95 88.7 212.7 90.6 Q212.2 87.15 211.4 84.8 L211.2 84.2 M211.0 77.5 L206.1 77.7 211.0 77.5 M220.25 90.15 L220.4 90.15 222.4 89.9 220.4 90.15 220.25 90.15 217.9 90.35 218.2 94.75 218.15 94.95 215.55 95.1 213.05 95.15 215.55 95.1 218.15 94.95 218.2 94.75 217.9 90.35 220.25 90.15 M222.4 89.9 L222.85 89.85 224.4 89.65 222.85 89.85 222.4 89.9 M212.3 79.2 L213.5 79.45 212.3 79.2 M214.9 92.1 Q215.2 91.75 215.65 91.7 216.1 91.7 216.45 92.0 L216.8 92.7 216.55 93.5 215.8 93.85 Q215.35 93.9 215.05 93.6 L214.65 92.9 Q214.6 92.4 214.9 92.1 214.6 92.4 214.65 92.9 L215.05 93.6 Q215.35 93.9 215.8 93.85 L216.55 93.5 216.8 92.7 216.45 92.0 Q216.1 91.7 215.65 91.7 215.2 91.75 214.9 92.1 M217.9 90.2 L217.9 90.35 215.2 90.6 212.7 90.7 212.7 90.6 212.7 90.7 215.2 90.6 217.9 90.35 217.9 90.2" fill="url(#gradient0)" fill-rule="evenodd" stroke="none"/>
    <path d="M224.25 94.1 L223.7 94.2 223.4 94.25 M220.8 94.7 L220.75 94.7 220.25 94.75 218.15 94.95 217.7 97.8 217.8 98.6 M218.2 101.85 L218.65 105.8 Q217.3 106.9 213.95 105.85 L214.0 101.85 M214.1 98.6 L214.1 98.15 213.05 95.15 205.45 94.85 202.5 94.6 202.45 94.65 201.55 94.55 198.2 94.15 198.15 94.15 195.35 93.75 194.35 93.6 M200.9 80.4 L199.4 81.7 197.65 83.75 197.15 84.6 197.1 84.65 197.05 84.7 M195.9 87.4 L195.85 87.5 195.65 88.3 195.45 89.7 198.75 90.2 200.8 90.45 Q201.1 88.05 201.75 86.1 L201.85 85.85 M203.3 82.5 L203.35 82.45 203.8 81.75 203.9 81.65 204.75 80.55 206.35 79.1 204.35 79.45 M213.05 95.15 L212.7 90.7 206.2 90.75 202.9 90.6 202.45 90.55 200.8 90.45 M195.45 89.7 L195.1 89.65 193.65 89.35 M214.75 81.35 Q213.65 80.0 212.3 79.2 L211.15 79.05 Q208.75 78.8 206.35 79.1 208.2 79.35 209.55 81.1 L209.7 81.3 M211.2 84.2 L211.4 84.8 Q212.2 87.15 212.7 90.6 L213.95 88.7 216.25 88.55 217.9 90.2 Q217.5 87.15 216.7 84.85 L216.45 84.25 216.35 84.05 M206.1 77.7 L211.0 77.5 M220.25 90.15 L217.9 90.35 218.2 94.75 218.15 94.95 215.55 95.1 213.05 95.15 M212.7 90.6 L212.7 90.7 215.2 90.6 217.9 90.35 217.9 90.2 M214.9 92.1 Q214.6 92.4 214.65 92.9 L215.05 93.6 Q215.35 93.9 215.8 93.85 L216.55 93.5 216.8 92.7 216.45 92.0 Q216.1 91.7 215.65 91.7 215.2 91.75 214.9 92.1 M213.5 79.45 L212.3 79.2 M224.4 89.65 L222.85 89.85 222.4 89.9" fill="none" stroke="#000000" stroke-linecap="round" stroke-linejoin="round" stroke-width="1.0"/>
    <path d="M194.15 87.35 L194.85 85.85 195.0 85.55 195.1 85.35 M195.4 84.8 Q197.3 81.95 200.9 80.4 202.6 79.75 204.35 79.45 L204.3 78.25 204.3 78.2 206.1 77.7 Q206.6 75.9 208.85 76.05 210.9 76.2 211.0 77.5 L213.45 78.05 213.5 79.45 216.45 80.3 217.2 80.6 Q219.7 81.6 221.35 83.2 L222.25 84.15 222.45 84.4 222.6 84.6 223.35 85.9 223.7 86.65 M223.85 87.05 L224.4 89.65 225.2 89.55 225.35 93.85 224.25 94.1 M194.35 93.6 L192.65 93.35 192.95 89.2 193.65 89.35 193.95 87.95 194.0 87.9 194.1 87.55" fill="none" stroke="#000000" stroke-linecap="round" stroke-linejoin="round" stroke-width="2.0"/>
    <path d="M223.4 94.25 L222.85 94.35 220.8 94.7 M217.8 98.6 L218.2 101.85 M214.0 101.85 L214.1 98.6 M197.05 84.7 Q196.45 85.7 196.1 86.85 L195.9 87.4 M201.85 85.85 L201.95 85.45 202.4 84.35 202.9 83.3 203.05 82.95 203.3 82.5 M216.35 84.05 L215.8 82.9 215.3 82.1 214.8 81.45 214.75 81.35 M209.7 81.3 L209.95 81.7 210.2 82.05 211.2 84.2 M222.4 89.9 L220.4 90.15 220.25 90.15" fill="none" stroke="#000000" stroke-linecap="round" stroke-linejoin="round" stroke-width="1.0"/>
    <path d="M197.05 84.7 L197.1 84.65 197.15 84.6 197.65 83.75 Q200.7 82.45 203.8 81.75 L203.35 82.45 203.3 82.5 203.35 82.45 203.8 82.35 209.55 81.7 209.95 81.7 210.2 82.05 211.2 84.2 210.2 82.05 209.95 81.7 209.7 81.3 209.55 81.1 214.8 81.45 215.3 82.1 Q218.3 82.65 221.35 83.8 L222.25 84.15 222.45 84.4 222.6 84.6 223.35 85.9 223.7 86.65 223.35 86.5 Q220.5 85.2 216.7 84.85 L216.45 84.25 216.35 84.05 216.45 84.25 Q214.0 84.0 211.2 84.2 L211.4 84.8 211.2 84.8 Q207.0 85.0 201.95 86.05 L201.75 86.1 201.85 85.85 201.95 85.45 Q199.15 86.0 196.1 86.85 196.45 85.7 197.05 84.7 M203.3 82.5 L203.05 82.95 202.9 83.3 202.4 84.35 201.95 85.45 202.4 84.35 202.9 83.3 203.05 82.95 203.3 82.5 M220.25 90.15 L220.4 90.15 222.4 89.9 222.85 89.85 222.85 94.35 220.8 94.7 220.75 94.7 220.25 94.75 220.25 90.15 M215.3 82.1 L215.8 82.9 216.35 84.05 215.8 82.9 215.3 82.1 M214.1 98.6 L214.1 98.3 217.8 98.3 217.8 98.6 218.2 101.85 214.0 101.85 214.1 98.6" fill="#ffffff" fill-opacity="0.2509804" fill-rule="evenodd" stroke="none"/>
    <path d="M211.0 77.5 L206.1 77.7 Q206.6 75.9 208.85 76.05 210.9 76.2 211.0 77.5" fill="url(#gradient1)" fill-rule="evenodd" stroke="none"/>
    <path d="M194.35 93.6 L192.65 93.35 192.95 89.2 193.65 89.35 193.95 87.95 194.0 87.9 194.1 87.55 194.85 85.85 195.0 85.55 M200.9 80.4 Q197.3 81.95 195.4 84.8 M222.25 84.15 L221.35 83.2 Q219.7 81.6 217.2 80.6 L216.45 80.3 213.5 79.45 213.45 78.05 211.0 77.5 Q210.9 76.2 208.85 76.05 206.6 75.9 206.1 77.7 L204.3 78.2 204.3 78.25 204.35 79.45 Q202.6 79.75 200.9 80.4 M222.25 84.15 L222.45 84.4 222.6 84.6 223.35 85.9 223.7 86.65 M224.4 89.65 L223.85 87.05 M224.25 94.1 L225.35 93.85 225.2 89.55 224.4 89.65" fill="none" stroke="#000000" stroke-linecap="round" stroke-linejoin="round" stroke-width="2.0"/>
    <path d="M197.65 83.75 L197.15 84.6 197.1 84.65 197.05 84.7 M203.3 82.5 L203.35 82.45 203.8 81.75 203.9 81.65 204.75 80.55 206.35 79.1 Q208.2 79.35 209.55 81.1 L209.7 81.3 M197.65 83.75 L199.4 81.7 200.9 80.4 M201.85 85.85 L201.75 86.1 Q201.1 88.05 200.8 90.45 L198.75 90.2 195.45 89.7 195.1 89.65 193.65 89.35 M211.4 84.8 L211.2 84.2 M194.35 93.6 L195.35 93.75 198.15 94.15 198.2 94.15 201.55 94.55 202.45 94.65 202.5 94.6 205.45 94.85 213.05 95.15 212.7 90.7 206.2 90.75 202.9 90.6 202.45 90.55 200.8 90.45 M195.9 87.4 L195.85 87.5 195.65 88.3 195.45 89.7 M213.5 79.45 L212.3 79.2 Q213.65 80.0 214.75 81.35 M216.7 84.85 Q217.5 87.15 217.9 90.2 L217.9 90.35 220.25 90.15 M222.4 89.9 L222.85 89.85 224.4 89.65 M211.0 77.5 L206.1 77.7 M204.35 79.45 L206.35 79.1 Q208.75 78.8 211.15 79.05 L212.3 79.2 M216.45 84.25 L216.7 84.85 M216.45 84.25 L216.35 84.05 M216.45 92.0 Q216.1 91.7 215.65 91.7 215.2 91.75 214.9 92.1 214.6 92.4 214.65 92.9 L215.05 93.6 Q215.35 93.9 215.8 93.85 L216.55 93.5 216.8 92.7 216.45 92.0 M217.9 90.2 L216.25 88.55 213.95 88.7 212.7 90.6 212.7 90.7 215.2 90.6 217.9 90.35 218.2 94.75 218.15 94.95 220.25 94.75 220.75 94.7 220.8 94.7 M214.1 98.6 L214.1 98.3 214.1 98.15 213.05 95.15 215.55 95.1 218.15 94.95 217.7 97.8 217.8 98.3 217.8 98.6 M218.2 101.85 L218.65 105.8 Q217.3 106.9 213.95 105.85 L214.0 101.85 M211.4 84.8 Q212.2 87.15 212.7 90.6 M223.4 94.25 L223.7 94.2 224.25 94.1" fill="none" stroke="#000000" stroke-linecap="round" stroke-linejoin="round" stroke-width="1.0"/>
    <path d="M197.05 84.7 Q196.45 85.7 196.1 86.85 L195.9 87.4 M201.95 85.45 L202.4 84.35 202.9 83.3 203.05 82.95 203.3 82.5 M201.95 85.45 L201.85 85.85 M211.2 84.2 L210.2 82.05 209.95 81.7 209.7 81.3 M214.75 81.35 L214.8 81.45 215.3 82.1 215.8 82.9 216.35 84.05 M220.25 90.15 L220.4 90.15 222.4 89.9 M217.8 98.6 L218.2 101.85 M214.0 101.85 L214.1 98.6 M220.8 94.7 L222.85 94.35 223.4 94.25" fill="none" stroke="#000000" stroke-linecap="round" stroke-linejoin="round" stroke-width="1.0"/>
  </g>
  <defs>
    <linearGradient gradientTransform="matrix(-0.0166, 0.0, 0.0, -0.0068, 208.7, 84.8)" gradientUnits="userSpaceOnUse" id="gradient0" spreadMethod="pad" x1="-819.2" x2="819.2">
      <stop offset="0.0" stop-color="#000000" stop-opacity="0.5019608"/>
      <stop offset="1.0" stop-color="#000000" stop-opacity="0.0"/>
    </linearGradient>
    <linearGradient gradientTransform="matrix(-0.0166, 0.0, 0.0, -0.0068, 208.7, 84.8)" gradientUnits="userSpaceOnUse" id="gradient1" spreadMethod="pad" x1="-819.2" x2="819.2">
      <stop offset="0.0" stop-color="#000000" stop-opacity="0.5019608"/>
      <stop offset="1.0" stop-color="#000000" stop-opacity="0.0"/>
    </linearGradient>
  </defs>
</svg>
