<?xml version="1.0" encoding="UTF-8" standalone="no"?>
<svg xmlns:xlink="http://www.w3.org/1999/xlink" height="30.8px" width="36.95px" xmlns="http://www.w3.org/2000/svg">
  <g transform="matrix(1.0, 0.0, 0.0, 1.0, -189.3, -77.7)">
    <path d="M190.9 103.9 L190.4 98.45 190.3 92.2 190.45 92.2 190.6 89.4 190.45 89.35 Q191.25 85.95 193.2 83.05 195.75 79.25 202.75 78.7 L203.45 78.7 Q212.25 78.45 218.4 81.6 222.75 83.8 224.45 90.9 L224.35 90.9 224.55 93.8 224.7 93.75 224.75 93.75 225.0 96.95 225.15 98.55 224.8 98.9 223.55 99.15 222.65 99.25 219.65 99.4 205.9 98.85 Q204.45 98.65 204.2 100.05 204.1 101.45 206.1 101.85 L220.05 102.4 223.0 102.15 224.0 102.0 Q224.7 101.95 224.95 101.55 L224.9 100.25 225.25 100.85 225.15 106.85 Q225.1 107.35 223.25 107.65 L220.25 107.9 220.2 107.9 Q210.95 108.45 198.3 105.7 L190.9 103.9 M224.55 93.8 L221.4 94.15 218.25 94.3 198.35 93.15 190.6 92.25 190.45 92.2 190.6 92.25 198.35 93.15 218.25 94.3 221.4 94.15 224.55 93.8 M192.4 98.35 L192.45 99.15 Q192.55 101.3 193.45 102.85 194.35 104.35 195.45 104.3 196.6 104.25 197.35 102.65 198.05 101.1 197.95 99.0 L197.95 98.9 197.85 98.1 Q197.65 96.45 196.9 95.2 196.0 93.7 194.9 93.75 193.75 93.8 193.0 95.4 192.45 96.65 192.4 98.35 M190.6 89.4 L198.65 90.3 217.0 91.4 220.25 91.35 224.35 90.9 220.25 91.35 217.0 91.4 198.65 90.3 190.6 89.4 M197.95 99.0 L198.15 99.05 204.2 100.05 198.15 99.05 197.95 99.0" fill="url(#gradient0)" fill-rule="evenodd" stroke="none"/>
    <path d="M190.9 103.9 L190.4 98.45 190.3 92.2 190.45 92.2 190.6 89.4 190.45 89.35 Q191.25 85.95 193.2 83.05 195.75 79.25 202.75 78.7 L203.45 78.7 Q212.25 78.45 218.4 81.6 222.75 83.8 224.45 90.9 L224.35 90.9 224.55 93.8 224.7 93.75 224.75 93.75 225.0 96.95 225.15 98.55 224.8 98.9 M224.9 100.25 L225.25 100.85 225.15 106.85" fill="none" stroke="#000000" stroke-linecap="round" stroke-linejoin="round" stroke-width="2.0"/>
    <path d="M224.8 98.9 L224.9 100.25 224.95 101.55 Q224.7 101.95 224.0 102.0 L223.0 102.15 220.05 102.4 206.1 101.85 Q204.1 101.45 204.2 100.05 L198.15 99.05 197.95 99.0 197.95 98.9 197.85 98.1 Q197.65 96.45 196.9 95.2 196.0 93.7 194.9 93.75 193.75 93.8 193.0 95.4 192.45 96.65 192.4 98.35 L192.45 99.15 Q192.55 101.3 193.45 102.85 194.35 104.35 195.45 104.3 196.6 104.25 197.35 102.65 198.05 101.1 197.95 99.0 M225.15 106.85 Q225.1 107.35 223.25 107.65 L220.25 107.9 220.2 107.9 Q210.95 108.45 198.3 105.7 L190.9 103.9 M190.45 92.2 L190.6 92.25 198.35 93.15 218.25 94.3 221.4 94.15 224.55 93.8 M195.85 98.2 Q196.2 100.25 195.1 102.35 L194.45 101.4 Q194.0 100.55 193.9 99.0 L193.9 98.3 194.0 97.15 Q194.3 95.8 194.9 95.6 195.65 96.9 195.85 98.2 M224.35 90.9 L220.25 91.35 217.0 91.4 198.65 90.3 190.6 89.4 M224.8 98.9 L223.55 99.15 222.65 99.25 219.65 99.4 205.9 98.85 Q204.45 98.65 204.2 100.05" fill="none" stroke="#000000" stroke-linecap="round" stroke-linejoin="round" stroke-width="1.0"/>
    <path d="M190.9 103.9 L190.4 98.45 190.3 92.2 190.45 92.2 190.6 89.4 190.45 89.35 Q191.25 85.95 193.2 83.05 195.75 79.25 202.75 78.7 L203.45 78.7 Q199.75 81.55 198.65 90.3 L198.35 93.15 190.6 92.25 190.45 92.2 190.6 92.25 198.35 93.15 Q198.1 95.85 198.15 99.05 L198.3 105.7 190.9 103.9 M190.6 89.4 L198.65 90.3 190.6 89.4 M194.9 93.75 Q193.75 93.8 193.0 95.4 192.45 96.65 192.4 98.35 L192.45 99.15 Q192.55 101.3 193.45 102.85 194.35 104.35 195.45 104.3 196.6 104.25 197.35 102.65 198.05 101.1 197.95 99.0 L197.95 98.9 197.85 98.1 Q197.65 96.45 196.9 95.2 196.0 93.7 194.9 93.75 M198.15 99.05 L197.95 99.0 198.15 99.05" fill="#000000" fill-opacity="0.2509804" fill-rule="evenodd" stroke="none"/>
    <path d="M223.25 107.65 L220.25 107.9 220.05 102.4 223.0 102.15 223.25 107.65 M217.0 91.4 L220.25 91.35 217.0 91.4 Q213.55 84.8 206.6 81.3 216.2 82.85 220.25 91.35 L221.4 94.15 Q222.2 96.5 222.65 99.25 L219.65 99.4 Q219.15 96.65 218.25 94.3 L217.0 91.4 M221.4 94.15 L218.25 94.3 221.4 94.15" fill="#ffffff" fill-opacity="0.2509804" fill-rule="evenodd" stroke="none"/>
    <path d="M224.9 100.25 L225.25 100.85 225.15 106.85 Q225.1 107.35 223.25 107.65 L223.0 102.15 224.0 102.0 Q224.7 101.95 224.95 101.55 L224.9 100.25" fill="#666666" fill-rule="evenodd" stroke="none"/>
    <path d="M190.9 103.9 L190.4 98.45 190.3 92.2 190.45 92.2 190.6 89.4 190.45 89.35 Q191.25 85.95 193.2 83.05 195.75 79.25 202.75 78.7 L203.45 78.7 Q212.25 78.45 218.4 81.6 222.75 83.8 224.45 90.9 L224.35 90.9 224.55 93.8 224.7 93.75 224.75 93.75 225.0 96.95 225.15 98.55 224.8 98.9 M224.9 100.25 L225.25 100.85 225.15 106.85" fill="none" stroke="#000000" stroke-linecap="round" stroke-linejoin="round" stroke-width="2.0"/>
    <path d="M224.8 98.9 L224.9 100.25 224.95 101.55 Q224.7 101.95 224.0 102.0 L223.0 102.15 220.05 102.4 206.1 101.85 Q204.1 101.45 204.2 100.05 L198.15 99.05 197.95 99.0 197.95 98.9 197.85 98.1 Q197.65 96.45 196.9 95.2 196.0 93.7 194.9 93.75 193.75 93.8 193.0 95.4 192.45 96.65 192.4 98.35 L192.45 99.15 Q192.55 101.3 193.45 102.85 194.35 104.35 195.45 104.3 196.6 104.25 197.35 102.65 198.05 101.1 197.95 99.0 M225.15 106.85 Q225.1 107.35 223.25 107.65 L220.25 107.9 220.2 107.9 Q210.95 108.45 198.3 105.7 L190.9 103.9 M190.45 92.2 L190.6 92.25 198.35 93.15 218.25 94.3 221.4 94.15 224.55 93.8 M198.65 90.3 L190.6 89.4 M194.9 95.6 Q195.65 96.9 195.85 98.2 196.2 100.25 195.1 102.35 L194.45 101.4 Q194.0 100.55 193.9 99.0 L193.9 98.3 194.0 97.15 Q194.3 95.8 194.9 95.6 M220.25 91.35 L217.0 91.4 198.65 90.3 M220.25 91.35 L224.35 90.9 M222.65 99.25 L223.55 99.15 224.8 98.9 M219.65 99.4 L222.65 99.25 M219.65 99.4 L205.9 98.85 Q204.45 98.65 204.2 100.05" fill="none" stroke="#000000" stroke-linecap="round" stroke-linejoin="round" stroke-width="1.0"/>
  </g>
  <defs>
    <linearGradient gradientTransform="matrix(0.0, -0.0179, 0.0213, 0.0, 207.75, 93.35)" gradientUnits="userSpaceOnUse" id="gradient0" spreadMethod="pad" x1="-819.2" x2="819.2">
      <stop offset="0.0" stop-color="#000000" stop-opacity="0.0"/>
      <stop offset="1.0" stop-color="#000000" stop-opacity="0.2509804"/>
    </linearGradient>
  </defs>
</svg>
