<?xml version="1.0" encoding="UTF-8" standalone="no"?>
<svg xmlns:xlink="http://www.w3.org/1999/xlink" height="11.85px" width="35.25px" xmlns="http://www.w3.org/2000/svg">
  <g transform="matrix(1.0, 0.0, 0.0, 1.0, -192.15, -93.35)">
    <path d="M194.2 94.35 L201.25 94.35 201.25 98.95 196.9 97.85 Q196.3 95.25 194.25 95.3 L193.15 95.55 193.15 94.35 194.2 94.35" fill="#000000" fill-opacity="0.2509804" fill-rule="evenodd" stroke="none"/>
    <path d="M220.9 96.2 L222.8 96.2 222.0 102.15 221.65 102.15 Q219.45 102.05 218.3 101.2 L220.9 96.2 M207.85 96.2 L210.9 96.2 210.15 102.25 208.95 102.4 Q206.5 102.35 205.15 101.45 L207.85 96.2" fill="#ffffff" fill-opacity="0.2509804" fill-rule="evenodd" stroke="none"/>
    <path d="M193.15 95.55 L194.25 95.3 Q196.3 95.25 196.9 97.85 L201.25 98.95 201.25 94.35 194.2 94.35 M218.3 101.2 Q217.4 100.55 217.05 99.5 L217.05 96.2 220.9 96.2 222.8 96.2 224.75 96.2 Q225.3 102.0 222.0 102.15 L221.65 102.15 Q219.45 102.05 218.3 101.2 M205.15 101.45 L204.0 100.25 204.0 96.2 207.85 96.2 210.9 96.2 214.0 96.2 214.0 99.6 Q212.85 101.6 210.15 102.25 L208.95 102.4 Q206.5 102.35 205.15 101.45 M224.25 94.35 L201.25 94.35 M201.25 98.95 L201.25 100.95 Q203.85 105.05 209.65 104.65 213.2 104.25 215.45 100.7 L217.15 102.9 Q218.85 104.65 221.95 104.35 L224.0 103.85" fill="none" stroke="#000000" stroke-linecap="round" stroke-linejoin="round" stroke-width="1.0"/>
    <path d="M194.2 94.35 L193.15 94.35 193.15 95.55 M224.0 103.85 Q226.2 102.9 226.4 100.6 L226.4 94.35 224.25 94.35" fill="none" stroke="#000000" stroke-linecap="round" stroke-linejoin="round" stroke-width="2.0"/>
  </g>
</svg>
