<?xml version="1.0" encoding="UTF-8" standalone="no"?>
<svg xmlns:xlink="http://www.w3.org/1999/xlink" height="23.2px" width="47.05px" xmlns="http://www.w3.org/2000/svg">
  <g transform="matrix(1.0, 0.0, 0.0, 1.0, -129.8, -277.8)">
    <path d="M138.3 286.55 Q134.7 286.45 131.4 288.85 129.9 286.1 129.8 283.15 129.7 280.55 130.65 277.8 135.5 279.45 138.25 279.45 L138.0 283.35 138.3 286.55 M176.4 283.45 L176.45 283.45 Q177.0 283.75 176.8 285.2 L176.65 286.0 175.85 288.95 174.8 288.6 Q173.15 291.75 172.45 295.1 L173.55 295.5 171.85 299.2 171.45 299.9 Q170.65 301.15 170.0 301.0 L169.95 300.95 169.9 301.0 169.5 300.8 Q169.4 297.0 169.6 293.2 169.65 290.9 169.85 288.7 L170.85 287.0 171.95 287.35 172.15 286.95 172.25 286.75 172.65 285.95 Q174.4 282.9 175.45 283.05 L176.4 283.4 176.4 283.45" fill="#000000" fill-rule="evenodd" stroke="none"/>
  </g>
</svg>
