<?xml version="1.0" encoding="UTF-8" standalone="no"?>
<svg xmlns:xlink="http://www.w3.org/1999/xlink" height="63.7px" width="217.25px" xmlns="http://www.w3.org/2000/svg">
  <g transform="matrix(1.0, 0.0, 0.0, 1.0, -127.0, -271.05)">
    <path d="M343.25 318.35 L343.2 318.3 343.25 318.3 343.25 318.35" fill="url(#gradient0)" fill-rule="evenodd" stroke="none"/>
    <path d="M343.2 318.3 L343.25 318.35 Q331.3 331.8 304.7 333.5 296.65 334.0 287.35 333.45 L279.25 332.8 260.75 330.25 Q251.9 328.65 242.7 326.45 232.25 323.9 221.4 320.55 L210.7 317.05 199.65 313.1 188.3 308.7 174.1 302.8 Q176.55 299.75 179.35 298.65 L179.4 298.65 Q185.95 301.45 192.4 303.95 L202.5 307.75 214.95 311.95 227.3 315.6 Q238.6 318.65 249.55 320.75 259.2 322.6 268.5 323.65 L295.35 324.95 310.9 324.1 318.85 323.15 Q332.2 324.6 343.2 318.3" fill="#ffffff" fill-opacity="0.2509804" fill-rule="evenodd" stroke="none"/>
    <path d="M133.1 281.85 Q135.05 278.65 137.8 277.05 150.2 285.7 169.85 294.35 170.1 297.7 169.65 300.55 166.9 296.1 147.45 287.1 L143.9 285.4 Q137.65 282.8 133.1 281.85" fill="#000000" fill-opacity="0.5019608" fill-rule="evenodd" stroke="none"/>
    <path d="M179.35 298.65 Q176.55 299.75 174.1 302.8 172.95 304.2 171.85 306.1 L169.8 310.2 Q167.0 314.7 162.55 312.45 159.85 309.9 161.65 306.95 163.4 305.0 165.85 305.65 167.05 305.95 167.4 306.85 L168.75 304.05 169.55 300.95 169.65 300.55 Q170.1 297.7 169.85 294.35 L179.35 298.65 M133.8 274.1 L137.8 277.05 Q140.55 275.45 144.1 275.4 L148.6 279.1 Q164.85 289.7 173.75 290.5 L173.35 291.0 173.25 291.1 Q171.65 293.0 169.85 294.35 150.2 285.7 137.8 277.05 135.05 278.65 133.1 281.85 L128.6 281.2 Q127.6 281.15 128.25 280.25 131.0 276.15 133.8 274.1 M163.85 310.3 Q166.1 311.6 167.25 309.4 167.8 307.8 167.4 306.85 167.8 307.8 167.25 309.4 166.1 311.6 163.85 310.3" fill="#000000" fill-opacity="0.2509804" fill-rule="evenodd" stroke="none"/>
    <path d="M343.2 318.3 Q332.2 324.6 318.85 323.15 L310.9 324.1 295.35 324.95 268.5 323.65 Q259.2 322.6 249.55 320.75 238.6 318.65 227.3 315.6 L214.95 311.95 202.5 307.75 192.4 303.95 Q185.95 301.45 179.4 298.65 178.3 294.3 178.35 291.25 188.05 295.05 197.55 298.05 L206.25 300.7 221.25 304.45 237.1 307.3 Q250.6 309.2 263.5 309.3 275.65 309.35 287.25 307.7 L297.35 305.95 297.35 306.0 Q301.6 310.0 306.8 312.8 311.05 315.05 315.9 316.45 327.75 319.9 343.2 318.3 M318.85 323.15 Q315.4 322.9 312.4 321.8 307.6 320.05 303.8 316.0 300.1 312.05 297.35 306.0 300.1 312.05 303.8 316.0 307.6 320.05 312.4 321.8 315.4 322.9 318.85 323.15" fill="url(#gradient1)" fill-rule="evenodd" stroke="none"/>
    <path d="M343.25 318.35 L343.25 318.3 343.2 318.3 Q327.75 319.9 315.9 316.45 311.05 315.05 306.8 312.8 301.6 310.0 297.35 306.0 L297.35 305.95 287.25 307.7 Q275.65 309.35 263.5 309.3 250.6 309.2 237.1 307.3 L221.25 304.45 206.25 300.7 197.55 298.05 Q188.05 295.05 178.35 291.25 178.35 287.15 180.3 285.4 180.2 286.3 180.5 286.95 180.9 287.8 182.15 288.1 184.6 288.6 186.25 286.55 187.85 283.5 185.1 281.1 180.5 279.1 177.95 283.75 176.0 287.65 173.75 290.5 164.85 289.7 148.6 279.1 L144.1 275.4 Q141.95 273.45 141.1 272.2 137.4 271.45 133.8 274.1 131.0 276.15 128.25 280.25 127.6 281.15 128.6 281.2 L133.1 281.85 Q137.65 282.8 143.9 285.4 L147.45 287.1 Q166.9 296.1 169.65 300.55 L169.55 300.95 168.75 304.05 167.4 306.85 Q167.05 305.95 165.85 305.65 163.4 305.0 161.65 306.95 159.85 309.9 162.55 312.45 167.0 314.7 169.8 310.2 L171.85 306.1 Q172.95 304.2 174.1 302.8 L188.3 308.7 199.65 313.1 210.7 317.05 221.4 320.55 Q232.25 323.9 242.7 326.45 251.9 328.65 260.75 330.25 L279.25 332.8 287.35 333.45 Q296.65 334.0 304.7 333.5 331.3 331.8 343.25 318.35" fill="none" stroke="#000000" stroke-linecap="round" stroke-linejoin="round" stroke-width="2.0"/>
    <path d="M179.4 298.65 L179.35 298.65 Q176.55 299.75 174.1 302.8 M137.8 277.05 Q140.55 275.45 144.1 275.4 M133.1 281.85 Q135.05 278.65 137.8 277.05 M169.85 294.35 Q171.65 293.0 173.25 291.1 L173.35 291.0 173.75 290.5 M169.65 300.55 Q170.1 297.7 169.85 294.35 L179.35 298.65 M178.35 291.25 Q178.3 294.3 179.4 298.65" fill="none" stroke="#000000" stroke-linecap="round" stroke-linejoin="round" stroke-width="1.0"/>
    <path d="M180.3 285.4 L180.55 284.4 Q181.55 282.15 183.9 283.35 M167.4 306.85 Q167.8 307.8 167.25 309.4 166.1 311.6 163.85 310.3" fill="none" stroke="#000000" stroke-linecap="round" stroke-linejoin="round" stroke-width="1.0"/>
    <path d="M343.2 318.3 Q332.2 324.6 318.85 323.15 L310.9 324.1 295.35 324.95 268.5 323.65 Q259.2 322.6 249.55 320.75 238.6 318.65 227.3 315.6 L214.95 311.95 202.5 307.75 192.4 303.95 Q185.95 301.45 179.4 298.65 M297.35 306.0 Q300.1 312.05 303.8 316.0 307.6 320.05 312.4 321.8 315.4 322.9 318.85 323.15" fill="none" stroke="#000000" stroke-linecap="round" stroke-linejoin="round" stroke-opacity="0.2509804" stroke-width="0.5"/>
  </g>
  <defs>
    <linearGradient gradientTransform="matrix(-4.0E-4, 0.0016, -0.099, -0.0257, 255.05, 324.65)" gradientUnits="userSpaceOnUse" id="gradient0" spreadMethod="pad" x1="-819.2" x2="819.2">
      <stop offset="0.0" stop-color="#000000" stop-opacity="0.0"/>
      <stop offset="1.0" stop-color="#000000" stop-opacity="0.2509804"/>
    </linearGradient>
    <linearGradient gradientTransform="matrix(-0.001, 0.0094, -0.0873, -0.0091, 244.9, 313.05)" gradientUnits="userSpaceOnUse" id="gradient1" spreadMethod="pad" x1="-819.2" x2="819.2">
      <stop offset="0.0" stop-color="#000000" stop-opacity="0.0"/>
      <stop offset="1.0" stop-color="#000000" stop-opacity="0.2509804"/>
    </linearGradient>
  </defs>
</svg>
