<?xml version="1.0" encoding="UTF-8" standalone="no"?>
<svg xmlns:xlink="http://www.w3.org/1999/xlink" height="63.2px" width="283.7px" xmlns="http://www.w3.org/2000/svg">
  <g transform="matrix(1.0, 0.0, 0.0, 1.0, -70.45, -263.45)">
    <path d="M102.65 266.45 L103.25 266.6 104.1 266.8 108.0 267.8 108.55 267.95 109.05 268.05 112.6 269.05 113.5 269.3 113.85 269.4 118.05 270.65 118.2 270.7 118.7 270.85 119.2 271.0 123.45 272.35 124.35 272.65 125.1 272.9 128.55 274.05 129.55 274.4 130.15 274.6 Q132.45 275.4 134.85 276.35 L135.75 276.65 136.4 276.9 140.7 278.6 141.95 279.05 142.4 279.25 146.2 280.8 146.2 280.85 145.25 288.7 143.8 288.05 143.2 287.8 142.05 287.3 141.85 287.25 Q141.05 287.6 140.85 286.8 L138.25 285.75 136.9 285.2 135.85 284.8 135.8 284.8 135.5 284.65 135.35 284.6 132.2 283.35 131.25 283.0 130.15 282.55 126.7 281.25 126.3 281.1 125.75 280.9 124.85 280.55 124.5 280.45 121.2 279.25 120.75 279.1 120.35 278.95 119.15 278.55 115.95 277.45 115.05 277.15 114.3 276.9 113.7 276.7 111.0 275.8 110.7 275.75 110.2 275.55 109.25 275.25 105.8 274.2 105.15 274.0 103.9 273.65 101.15 272.8 100.55 272.65 99.0 272.2 94.8 271.0 94.05 270.8 92.8 270.55 83.25 270.25 Q81.1 270.4 79.8 271.75 L79.6 272.0 Q79.2 272.45 78.95 273.05 L78.65 273.65 78.6 273.75 78.5 274.15 77.9 274.15 Q74.9 273.85 73.1 271.9 L71.55 269.55 Q69.8 266.5 70.85 264.55 L75.65 264.75 Q79.7 263.5 84.0 263.45 L88.35 263.7 97.0 265.2 97.85 265.4 98.4 265.5 102.65 266.45 M354.15 305.5 Q345.6 323.45 328.15 325.4 284.85 330.45 209.7 315.25 206.3 314.45 204.8 315.6 204.1 316.15 203.85 317.15 202.95 317.1 202.45 316.75 L202.05 316.35 Q200.25 313.05 198.5 310.65 196.2 309.0 192.6 307.55 L189.35 306.4 Q178.8 303.0 169.45 299.4 169.45 296.3 169.6 293.2 L169.75 290.25 170.25 290.45 171.35 290.8 Q182.15 294.65 192.55 297.85 L194.45 298.4 194.85 298.5 195.25 298.65 196.15 298.9 199.2 299.8 201.65 300.5 Q215.95 304.45 229.4 307.05 259.5 312.75 288.0 312.95 322.25 313.2 354.15 305.5" fill="#000000" fill-rule="evenodd" stroke="none"/>
  </g>
</svg>
