<?xml version="1.0" encoding="UTF-8" standalone="no"?>
<svg xmlns:xlink="http://www.w3.org/1999/xlink" height="83.15px" width="196.4px" xmlns="http://www.w3.org/2000/svg">
  <g transform="matrix(1.0, 0.0, 0.0, 1.0, -103.65, -264.75)">
    <path d="M109.15 265.5 L146.45 279.05 145.25 288.55 105.95 274.25 Q104.4 274.8 103.75 272.35 103.5 270.9 103.8 269.45 L104.05 268.7 104.05 268.6 Q104.75 266.75 106.25 265.5 108.3 264.05 109.15 265.5 M169.95 287.65 L183.8 292.7 Q185.5 292.15 186.85 293.8 L257.3 319.4 257.3 319.35 257.05 319.25 257.35 318.8 257.4 318.75 Q257.5 318.6 257.75 318.55 259.2 318.75 260.5 319.55 L260.5 320.25 268.3 322.9 269.4 323.25 274.65 324.25 Q282.4 323.9 286.75 319.7 L287.7 321.2 288.95 320.25 289.8 321.7 Q291.65 330.1 295.55 333.5 296.2 333.2 296.35 334.25 L296.05 336.1 297.15 336.5 297.5 335.95 Q300.55 337.7 299.95 339.85 L299.95 339.9 Q299.0 341.95 295.55 341.3 L295.65 340.65 294.55 340.3 293.6 341.9 292.45 341.95 Q287.3 342.0 280.5 347.3 L278.9 347.9 278.55 346.35 276.85 346.85 Q276.25 340.85 270.55 335.6 268.45 334.2 265.85 333.0 L264.8 332.55 257.1 329.6 256.65 330.1 Q255.15 329.85 253.9 329.1 L253.8 328.7 253.8 328.65 253.85 328.15 254.05 328.25 254.15 328.15 183.65 302.5 Q181.55 302.9 180.65 301.4 L169.5 297.35 169.6 293.2 169.95 287.65" fill="#000000" fill-rule="evenodd" stroke="none"/>
  </g>
</svg>
