<?xml version="1.0" encoding="UTF-8" standalone="no"?>
<svg xmlns:xlink="http://www.w3.org/1999/xlink" height="152.35px" width="300.8px" xmlns="http://www.w3.org/2000/svg">
  <g transform="matrix(1.0, 0.0, 0.0, 1.0, -15.6, -210.75)">
    <path d="M119.6 291.9 L113.5 273.4 Q122.1 282.35 135.7 280.7 130.2 293.2 119.6 291.9 M112.05 273.8 L117.9 292.35 115.55 298.85 99.3 300.45 Q98.8 301.0 98.9 301.5 80.55 301.1 65.85 293.7 L77.7 274.8 Q81.8 279.85 86.9 282.2 97.1 286.6 106.75 280.75 110.5 278.35 112.05 273.8 M185.0 315.65 Q176.0 309.85 179.85 296.75 189.15 306.8 201.55 305.45 L185.0 315.65 M43.65 248.75 Q43.45 264.1 53.45 270.65 63.25 277.2 76.3 274.35 L64.55 293.05 Q60.5 290.9 56.7 288.2 44.55 279.45 36.1 266.75 32.15 260.85 29.2 254.75 L43.65 248.75 M28.55 253.35 Q26.55 248.95 25.05 244.45 22.75 236.6 21.15 228.95 20.8 226.65 20.95 225.0 25.85 243.5 42.35 247.65 L28.55 253.35 M202.35 306.7 Q200.6 311.15 202.0 315.4 205.55 326.1 216.25 329.25 221.65 330.75 228.05 329.5 L228.1 329.5 225.0 351.65 Q208.95 347.85 194.65 336.4 195.0 336.0 195.0 335.3 L183.6 323.65 185.95 317.15 202.35 306.7 M229.45 330.1 Q237.55 340.65 249.3 341.9 261.15 343.35 270.9 331.45 L278.1 345.35 Q271.9 348.1 265.1 350.1 250.45 354.4 235.5 353.3 L226.4 351.95 229.45 330.1 M272.6 331.45 Q287.85 338.85 303.55 327.85 302.55 329.2 300.8 330.75 L287.9 340.15 Q283.85 342.6 279.45 344.7 L272.6 331.45" fill="#000000" fill-opacity="0.2509804" fill-rule="evenodd" stroke="none"/>
    <path d="M117.9 292.35 L118.25 291.45 119.25 291.8 119.6 291.9 Q130.2 293.2 135.7 280.7 M117.9 292.35 L115.55 298.85 116.75 298.75 119.4 298.45 Q122.25 298.15 122.75 300.6 123.05 302.7 121.05 303.6 L117.7 304.0 M65.85 293.7 Q80.55 301.1 98.9 301.5 98.8 301.0 99.3 300.45 L115.55 298.85 M178.65 326.2 L176.35 323.75 Q175.35 321.75 177.0 320.35 178.9 318.8 180.9 320.85 L182.75 322.75 183.6 323.65 195.0 335.3 Q195.0 336.0 194.65 336.4 208.95 347.85 225.0 351.65 L226.4 351.95 235.5 353.3 Q250.45 354.4 265.1 350.1 271.9 348.1 278.1 345.35 L279.45 344.7 Q283.85 342.6 287.9 340.15 L300.8 330.75 Q302.55 329.2 303.55 327.85 M185.3 315.85 L185.0 315.65 Q176.0 309.85 179.85 296.75 M171.8 292.75 L169.15 300.0 M141.8 290.0 L144.45 282.8 M20.95 225.0 Q20.8 226.65 21.15 228.95 22.75 236.6 25.05 244.45 26.55 248.95 28.55 253.35 L29.2 254.75 Q32.15 260.85 36.1 266.75 44.55 279.45 56.7 288.2 60.5 290.9 64.55 293.05 L65.85 293.7 M153.9 306.95 L152.5 303.2 149.05 305.15 M99.75 304.25 L99.9 304.05 112.15 302.75 Q113.95 301.8 112.05 301.15 L99.45 302.35 Q98.95 301.95 98.9 301.5 M185.95 317.15 L183.6 323.65 M185.95 317.15 L186.3 316.2 185.3 315.85 M194.65 336.4 L193.7 336.65 184.8 327.65 Q182.9 326.9 183.7 328.8 L192.25 337.65 192.25 337.9" fill="none" stroke="#000000" stroke-linecap="round" stroke-linejoin="round" stroke-width="1.0"/>
    <path d="M119.6 291.9 L113.5 273.4 112.05 273.8 117.9 292.35 M116.75 298.75 L119.25 291.8 M77.7 274.8 L65.85 293.7 M137.2 287.15 L136.05 287.2 Q135.5 287.4 135.35 288.0 135.1 288.55 135.35 289.1 135.65 289.65 136.2 289.85 L137.3 289.8 138.05 289.0 Q138.25 288.4 138.0 287.9 137.75 287.3 137.2 287.15 M117.7 304.0 L117.15 304.05 117.0 304.05 117.7 304.0 M27.5 255.45 L27.45 255.45 M279.0 347.0 L278.95 347.0 M179.1 326.65 L178.65 326.2 179.05 326.55 179.1 326.65 M182.75 322.75 L185.3 315.85 M43.7 248.7 L43.65 248.75 29.2 254.75 M77.7 274.8 L76.5 274.0 M28.55 253.35 L42.35 247.65 M64.55 293.05 L76.3 274.35 M43.7 248.7 L43.15 247.3 M124.1 304.6 L122.2 305.05 122.15 305.05 M122.55 307.35 L123.6 307.15 124.5 307.0 M125.45 317.8 L123.6 307.15 M202.35 306.7 L185.95 317.15 M225.0 351.65 L228.1 329.5 228.05 329.5 M270.9 331.45 L270.85 331.4 272.2 330.7 M228.1 329.5 L229.5 329.7 M185.0 315.65 L201.55 305.45 202.35 306.7 M175.45 302.6 L174.7 303.4 173.55 303.45 Q173.0 303.25 172.75 302.75 172.5 302.15 172.7 301.6 172.9 301.05 173.45 300.8 L174.55 300.75 175.4 301.5 175.45 302.6 M174.6 324.1 L174.5 324.1 173.35 322.55 M163.85 331.8 L172.1 324.8 171.5 324.1 M172.8 325.65 L172.1 324.8 M278.1 345.35 L270.9 331.45 M229.45 330.1 L226.4 351.95 M279.45 344.7 L272.6 331.45" fill="none" stroke="#000000" stroke-linecap="round" stroke-linejoin="round" stroke-width="0.5"/>
    <path d="M112.05 273.8 Q110.5 278.35 106.75 280.75 97.1 286.6 86.9 282.2 81.8 279.85 77.7 274.8 L80.25 269.0 76.5 274.0 76.3 274.35 Q63.25 277.2 53.45 270.65 43.45 264.1 43.65 248.75 M113.5 273.4 L110.85 267.55 112.05 273.8 M178.65 326.2 Q176.55 324.35 174.6 324.1 L172.8 325.65 174.0 327.0 Q169.0 328.3 163.85 331.8 168.05 327.25 170.15 322.55 L171.5 324.1 173.35 322.55 Q178.05 314.15 175.75 309.8 173.4 305.45 171.05 305.75 167.35 306.15 166.95 315.55 164.2 310.75 160.85 309.45 L153.9 306.95 148.3 314.7 149.05 305.15 142.05 302.65 Q138.65 301.5 133.5 303.35 139.2 295.9 136.65 293.25 135.0 291.45 130.45 293.3 125.9 295.15 124.1 304.6 L124.5 307.0 126.55 306.65 Q125.1 311.6 125.45 317.8 123.7 311.8 120.7 307.6 L122.55 307.35 122.15 305.05 Q120.45 303.95 117.7 304.0 M117.0 304.05 L100.05 305.9 Q99.1 305.2 99.75 304.25 80.2 303.75 64.6 295.65 L59.65 302.2 63.35 295.0 Q59.6 292.9 56.1 290.45 43.5 281.35 34.75 268.2 30.55 261.9 27.5 255.45 M27.45 255.45 L22.1 257.0 26.85 254.1 Q24.8 249.65 23.3 245.1 18.25 227.9 16.6 211.75 20.55 212.0 21.0 215.25 L309.75 320.35 Q312.15 318.15 315.4 320.55 303.7 331.8 288.8 341.75 284.7 344.25 280.35 346.35 L282.1 351.6 279.0 347.0 280.35 346.35 M278.95 347.0 Q272.45 349.95 265.2 352.1 250.0 356.55 234.55 355.4 L226.05 354.2 224.25 362.1 224.65 353.9 Q207.5 350.1 192.25 337.9 192.1 339.05 190.9 339.0 L179.1 326.65 M179.85 296.75 Q180.35 291.5 177.3 285.25 174.85 291.0 171.8 292.75 L170.35 292.2 170.05 293.0 Q167.35 292.75 164.05 291.65 L163.7 291.5 163.5 291.45 163.4 291.4 151.7 287.15 151.65 287.1 151.4 287.05 151.05 286.9 Q147.8 285.6 145.6 284.1 L145.9 283.3 144.45 282.8 Q143.25 279.5 145.05 273.5 138.65 276.3 135.7 280.7 122.1 282.35 113.5 273.4 M169.15 300.0 L168.1 302.85 Q166.1 306.35 161.45 304.45 L144.85 298.4 Q140.0 296.9 140.75 292.9 L141.8 290.0 143.25 290.55 143.55 289.75 145.6 284.1 M143.55 289.75 Q146.2 290.0 149.55 291.1 L149.9 291.25 M162.2 295.7 L162.55 295.85 Q165.8 297.15 168.0 298.65 L170.05 293.0 M150.2 291.35 L161.9 295.6 M42.35 247.65 L43.15 247.3 47.75 246.15 43.7 248.7 M42.35 247.65 Q25.85 243.5 20.95 225.0 21.05 222.95 21.85 221.95 L21.0 215.25 M27.45 255.45 L26.85 254.1 M64.6 295.65 L63.35 295.0 M228.05 329.5 Q221.65 330.75 216.25 329.25 205.55 326.1 202.0 315.4 200.6 311.15 202.35 306.7 L207.3 302.65 201.55 305.45 Q189.15 306.8 179.85 296.75 M228.05 329.5 L229.8 323.45 229.5 329.7 229.45 330.1 Q237.55 340.65 249.3 341.9 261.15 343.35 270.9 331.45 M270.85 331.4 L269.4 326.85 272.2 330.7 272.6 331.45 Q287.85 338.85 303.55 327.85 304.75 326.2 304.8 324.9 L309.75 320.35 M168.0 298.65 L167.7 299.45 169.15 300.0 M226.05 354.2 L224.65 353.9" fill="none" stroke="#000000" stroke-linecap="round" stroke-linejoin="round" stroke-width="2.0"/>
  </g>
</svg>
