<?xml version="1.0" encoding="UTF-8" standalone="no"?>
<svg xmlns:xlink="http://www.w3.org/1999/xlink" height="92.65px" width="95.2px" xmlns="http://www.w3.org/2000/svg">
  <g transform="matrix(1.0, 0.0, 0.0, 1.0, -97.95, -270.95)">
    <path d="M110.2 277.0 L109.8 277.15 Q108.0 278.4 110.3 284.5 113.5 294.55 108.3 306.7 107.25 309.2 105.9 310.4 104.0 312.3 101.0 312.1 98.25 311.6 98.0 309.0 97.75 307.2 99.9 300.4 L102.95 287.05 Q103.6 282.95 105.25 279.45 106.8 276.25 110.5 275.2 L110.55 275.2 Q111.9 269.8 117.85 271.3 122.4 272.6 123.65 275.5 L146.3 280.2 145.05 290.25 Q138.5 291.05 133.1 293.2 L131.55 294.0 Q122.3 301.2 120.0 311.25 118.55 318.45 120.6 324.25 123.65 333.95 130.55 340.0 140.1 346.7 153.1 344.5 161.45 342.3 167.15 338.3 L167.25 336.7 168.15 327.5 171.6 307.15 Q172.45 300.4 169.5 296.15 L169.6 293.2 Q169.75 288.95 170.25 284.7 175.55 286.7 179.6 289.45 191.4 297.95 193.0 312.65 194.1 322.55 187.85 333.8 180.35 345.75 167.55 349.9 L167.2 354.75 Q167.7 355.7 167.2 356.75 167.45 359.35 166.6 363.6 165.95 363.0 164.95 363.2 L165.2 362.4 Q164.5 362.25 164.15 362.4 164.8 358.75 165.8 356.7 165.35 355.6 165.95 354.7 L166.2 350.3 Q159.0 352.35 150.15 352.05 125.15 350.35 114.15 335.95 105.25 324.3 109.2 310.5 114.8 293.75 135.65 284.1 L122.45 281.6 Q120.15 283.75 115.5 283.25 109.5 282.3 110.2 277.0 M177.15 325.0 Q182.25 307.9 173.15 297.4 L170.45 294.85 Q174.25 299.6 172.9 307.6 L169.45 328.05 168.55 337.25 Q174.65 332.35 177.15 325.0" fill="#000000" fill-rule="evenodd" stroke="none"/>
  </g>
</svg>
