<?xml version="1.0" encoding="UTF-8" standalone="no"?>
<svg xmlns:xlink="http://www.w3.org/1999/xlink" height="29.65px" width="33.05px" xmlns="http://www.w3.org/2000/svg">
  <g transform="matrix(1.0, 0.0, 0.0, 1.0, -219.15, -160.5)">
    <path d="M230.8 171.75 Q231.25 174.1 232.9 175.25 234.6 176.45 236.8 176.45 238.65 176.45 239.75 175.75 240.85 175.05 241.25 173.25 L252.2 174.15 Q251.9 177.0 250.3 178.75 248.7 180.45 245.9 181.45 L242.05 182.25 Q242.9 182.5 243.5 182.85 245.6 184.05 245.9 185.75 246.1 186.75 245.5 187.85 244.9 188.9 243.0 189.55 L237.7 190.15 230.25 189.6 229.65 186.55 235.85 186.95 238.4 186.6 Q238.9 186.25 238.8 185.75 L238.25 185.1 236.5 184.8 231.85 185.1 232.1 182.15 232.65 182.05 231.1 181.8 Q228.05 181.15 225.6 179.8 223.25 178.4 221.6 176.5 220.05 174.65 219.4 171.55 218.75 168.3 219.75 166.15 220.55 164.6 222.2 163.35 223.8 162.05 225.7 161.45 228.6 160.5 233.4 160.5 240.2 160.5 244.15 162.35 248.1 164.2 250.4 168.15 L239.95 169.2 Q239.15 167.75 238.0 167.2 236.75 166.6 234.95 166.6 232.65 166.6 231.4 167.85 230.25 169.1 230.8 171.75" fill="#000000" fill-rule="evenodd" stroke="none"/>
  </g>
</svg>
