<?xml version="1.0" encoding="UTF-8" standalone="no"?>
<svg xmlns:xlink="http://www.w3.org/1999/xlink" height="33.25px" width="241.0px" xmlns="http://www.w3.org/2000/svg">
  <g transform="matrix(1.0, 0.0, 0.0, 1.0, -279.4, -169.1)">
    <path d="M332.05 196.95 L324.8 197.3 323.4 195.1 323.2 194.8 320.95 191.55 Q318.1 187.85 315.75 186.25 312.1 183.8 309.45 186.25 L308.25 187.7 Q311.2 189.75 314.4 192.75 L317.25 195.65 318.75 197.25 319.7 198.3 Q314.7 199.65 310.55 202.35 L306.45 199.2 Q302.65 196.5 298.8 195.5 289.65 193.05 279.4 199.3 283.35 190.15 288.4 186.25 294.65 181.4 302.65 184.6 307.75 173.1 315.75 174.05 319.3 174.45 323.4 177.35 L324.8 178.35 324.85 178.35 Q333.1 164.1 348.2 176.05 L348.25 176.05 Q354.4 171.2 359.65 169.75 L366.65 169.35 367.7 169.65 Q374.6 171.5 379.3 184.35 L374.75 185.35 370.85 186.25 Q368.4 181.6 365.3 180.45 362.7 179.45 359.65 180.8 357.8 181.6 355.85 183.25 L357.25 184.75 358.75 186.25 359.65 187.2 361.4 188.85 355.75 190.65 352.25 191.85 345.6 185.3 Q334.85 177.2 331.9 185.15 L332.8 186.25 Q334.0 187.9 335.3 190.5 L338.45 197.35 338.35 197.4 332.05 196.95 M491.55 187.7 L490.35 186.25 Q487.7 183.8 484.05 186.25 481.7 187.85 478.85 191.55 L476.6 194.8 476.4 195.1 475.0 197.3 467.75 196.95 461.45 197.4 461.35 197.35 Q463.0 193.35 464.5 190.5 465.8 187.9 467.0 186.25 L467.9 185.15 Q464.95 177.2 454.2 185.3 L447.55 191.85 444.05 190.65 438.4 188.85 440.15 187.2 441.05 186.25 442.55 184.75 443.95 183.25 Q442.0 181.6 440.15 180.8 437.1 179.45 434.5 180.45 431.4 181.6 428.95 186.25 L425.05 185.35 420.5 184.35 Q425.2 171.5 432.1 169.65 L433.15 169.35 Q436.4 168.7 440.15 169.75 445.4 171.2 451.55 176.05 L451.6 176.05 Q466.7 164.1 474.95 178.35 L475.0 178.35 476.4 177.35 Q480.5 174.45 484.05 174.05 492.05 173.1 497.15 184.6 505.15 181.4 511.4 186.25 516.45 190.15 520.4 199.3 510.15 193.05 501.0 195.5 497.15 196.5 493.35 199.2 490.6 201.15 489.25 202.35 485.1 199.65 480.1 198.3 L481.05 197.25 482.55 195.65 485.4 192.75 Q488.6 189.75 491.55 187.7" fill="#000000" fill-rule="evenodd" stroke="none"/>
  </g>
</svg>
