<?xml version="1.0" encoding="UTF-8" standalone="no"?>
<svg xmlns:xlink="http://www.w3.org/1999/xlink" height="134.4px" width="116.4px" xmlns="http://www.w3.org/2000/svg">
  <g transform="matrix(1.0, 0.0, 0.0, 1.0, -341.7, -361.7)">
    <path d="M350.2 362.2 Q357.8 365.5 365.8 367.55 L372.05 368.95 Q379.4 370.4 387.05 370.8 M412.75 370.8 Q420.4 370.4 427.75 368.95 L434.0 367.55 Q442.0 365.5 449.6 362.2 M452.1 495.6 L452.4 495.5 M433.4 423.35 L437.1 433.1 446.6 431.7 448.85 424.2 M350.95 424.2 L353.2 431.7 362.7 433.1 366.4 423.35 M347.7 495.6 L347.4 495.5" fill="none" stroke="#000000" stroke-linecap="round" stroke-linejoin="round" stroke-opacity="0.5019608" stroke-width="1.0"/>
    <path d="M347.7 495.6 L347.75 495.55 342.7 452.8 Q341.45 444.4 343.35 437.0 343.8 435.25 344.4 433.6 L349.0 420.0 348.3 407.85 348.25 407.1 348.05 400.9 348.05 400.4 348.0 394.55 Q348.0 386.1 348.55 378.05 349.1 369.9 350.2 362.2 M387.05 370.8 Q385.15 377.7 383.4 384.75 L380.1 398.35 378.1 407.1 377.55 409.7 375.35 420.35 378.8 433.3 Q379.55 436.5 379.6 439.55 379.75 445.9 376.9 451.85 L373.4 457.65 Q369.35 464.7 366.65 472.1 364.3 478.25 362.9 484.7 361.7 490.0 361.15 495.55 M449.6 362.2 Q450.7 369.9 451.25 378.05 451.8 386.1 451.8 394.55 L451.75 400.4 451.75 400.9 451.55 407.1 451.5 407.85 450.8 420.0 455.4 433.6 456.45 437.0 Q458.35 444.4 457.1 452.8 L452.05 495.55 452.1 495.6 M438.65 495.55 Q438.1 490.0 436.9 484.7 435.5 478.25 433.15 472.1 430.45 464.7 426.4 457.65 L422.9 451.85 Q420.05 445.9 420.2 439.55 420.25 436.5 421.0 433.3 L424.45 420.35 422.25 409.7 421.7 407.1 419.7 398.35 416.4 384.75 412.75 370.8" fill="none" stroke="#000000" stroke-linecap="round" stroke-linejoin="round" stroke-width="1.0"/>
  </g>
</svg>
