<?xml version="1.0" encoding="UTF-8" standalone="no"?>
<svg xmlns:xlink="http://www.w3.org/1999/xlink" height="22.15px" width="99.4px" xmlns="http://www.w3.org/2000/svg">
  <g transform="matrix(1.0, 0.0, 0.0, 1.0, -350.2, -348.65)">
    <path d="M357.25 350.15 L365.8 352.6 372.05 354.15 390.75 357.9 387.05 370.8 Q379.4 370.4 372.05 368.95 L365.8 367.55 Q357.8 365.5 350.2 362.2 351.1 355.25 352.5 348.65 L357.25 350.15 M412.75 370.8 L409.05 357.9 427.75 354.15 434.0 352.6 442.55 350.15 447.3 348.65 Q448.7 355.25 449.6 362.2 442.0 365.5 434.0 367.55 L427.75 368.95 Q420.4 370.4 412.75 370.8" fill="#000000" fill-rule="evenodd" stroke="none"/>
  </g>
</svg>
