<?xml version="1.0" encoding="UTF-8" standalone="no"?>
<svg xmlns:xlink="http://www.w3.org/1999/xlink" height="148.0px" width="48.55px" xmlns="http://www.w3.org/2000/svg">
  <g transform="matrix(1.0, 0.0, 0.0, 1.0, -342.2, -348.65)">
    <path d="M352.5 348.65 L357.25 350.15 365.8 352.6 372.05 354.15 390.75 357.9 387.05 370.8 Q385.15 377.7 383.4 384.75 L380.1 398.35 378.1 407.1 377.55 409.7 375.35 420.35 378.8 433.3 Q379.55 436.5 379.6 439.55 379.75 445.9 376.9 451.85 L373.4 457.65 Q369.35 464.7 366.65 472.1 364.3 478.25 362.9 484.7 361.7 490.0 361.15 495.55 354.45 497.75 347.7 495.6 L347.75 495.55 342.7 452.8 Q341.45 444.4 343.35 437.0 343.8 435.25 344.4 433.6 L349.0 420.0 348.3 407.85 348.25 407.1 348.05 400.9 348.05 400.4 348.0 394.55 Q348.0 386.1 348.55 378.05 349.1 369.9 350.2 362.2 351.1 355.25 352.5 348.65" fill="#000000" fill-rule="evenodd" stroke="none"/>
  </g>
</svg>
