<?xml version="1.0" encoding="UTF-8" standalone="no"?>
<svg xmlns:xlink="http://www.w3.org/1999/xlink" height="33.15px" width="33.1px" xmlns="http://www.w3.org/2000/svg">
  <g transform="matrix(1.0, 0.0, 0.0, 1.0, -383.25, -237.35)">
    <path d="M390.7 253.95 Q390.7 255.9 391.4 257.55 L383.25 253.95 391.35 250.55 Q390.7 252.1 390.7 253.95 M391.4 257.6 Q392.1 259.15 393.35 260.4 L393.4 260.45 Q394.8 261.8 396.5 262.5 L396.45 262.5 388.15 265.7 391.4 257.6 M399.75 244.85 L398.15 244.95 396.25 245.5 399.9 237.35 403.35 245.5 Q401.75 244.9 399.9 244.85 L399.75 244.85 M393.45 247.45 L393.35 247.5 Q392.0 248.85 391.35 250.5 L388.15 242.2 396.25 245.5 Q394.75 246.2 393.45 247.45 M408.3 257.4 Q408.9 255.8 408.9 253.95 408.9 252.1 408.25 250.45 L416.35 253.95 408.3 257.4 411.6 265.65 403.45 262.4 403.4 262.4 399.9 270.5 396.5 262.5 399.75 263.05 399.9 263.05 Q401.8 263.0 403.4 262.35 404.95 261.65 406.2 260.4 L406.3 260.3 Q407.6 258.95 408.3 257.4 M406.3 247.6 L406.2 247.5 Q404.9 246.2 403.35 245.5 L411.55 242.25 408.3 250.4 408.25 250.45 Q407.55 248.9 406.3 247.6" fill="#000000" fill-rule="evenodd" stroke="none"/>
  </g>
</svg>
