<?xml version="1.0" encoding="UTF-8" standalone="no"?>
<svg xmlns:xlink="http://www.w3.org/1999/xlink" height="33.5px" width="35.55px" xmlns="http://www.w3.org/2000/svg">
  <g transform="matrix(1.0, 0.0, 0.0, 1.0, -382.15, -235.65)">
    <path d="M397.35 235.95 L397.85 235.95 Q394.85 236.75 393.3 239.4 391.75 242.1 392.55 245.1 392.9 246.45 393.65 247.5 394.3 248.5 395.3 249.2 L396.1 249.75 Q397.7 250.7 399.35 250.75 L399.35 252.4 399.3 252.45 399.25 252.45 Q398.4 252.7 397.9 253.5 397.45 254.35 397.7 255.2 L397.7 255.25 397.75 255.45 396.35 256.25 395.3 255.0 Q394.25 253.95 392.95 253.4 L392.9 253.4 Q391.85 252.95 390.65 252.8 L390.6 252.8 390.0 252.8 Q386.85 252.8 384.65 255.0 382.4 257.2 382.4 260.4 382.4 261.85 382.9 263.05 382.15 261.3 382.15 259.25 382.15 255.1 385.0 252.2 387.45 249.75 390.75 249.35 L390.3 248.1 Q389.25 244.1 391.25 240.6 393.3 237.0 397.35 235.95 M406.05 247.5 L406.4 246.95 Q407.9 244.25 407.15 241.25 406.35 238.2 403.65 236.65 402.25 235.85 400.8 235.65 402.85 235.85 404.75 236.95 408.3 239.0 409.45 242.95 410.3 246.3 408.95 249.4 L410.3 249.65 Q414.3 250.75 416.35 254.3 418.4 257.85 417.3 261.8 416.25 265.75 412.75 267.8 409.15 269.85 405.15 268.8 401.85 267.9 399.85 265.2 L398.95 266.15 Q396.1 269.1 392.05 269.1 387.95 269.1 385.0 266.15 L383.6 264.5 384.65 265.7 Q386.85 267.9 390.0 267.9 393.1 267.9 395.3 265.7 396.3 264.75 396.85 263.6 L396.85 263.55 Q397.35 262.5 397.5 261.3 L397.5 261.25 397.55 260.35 Q397.5 258.45 396.75 257.0 L398.15 256.2 398.35 256.3 398.7 256.6 400.45 256.8 Q401.05 256.65 401.45 256.2 L401.55 256.1 403.0 256.95 Q402.65 257.65 402.45 258.45 402.1 259.9 402.25 261.25 L402.25 261.35 Q402.4 262.5 402.9 263.55 L402.9 263.6 403.25 264.2 Q404.8 266.9 407.85 267.75 410.85 268.55 413.55 266.95 416.25 265.4 417.05 262.4 417.9 259.35 416.35 256.65 414.75 253.95 411.75 253.15 L409.1 252.85 Q407.9 253.0 406.85 253.45 L406.8 253.5 406.0 253.9 Q404.35 254.8 403.4 256.25 L402.0 255.4 402.0 255.2 Q402.2 254.65 402.0 254.0 401.8 253.15 401.0 252.7 L400.55 252.45 400.2 252.4 400.2 250.75 401.8 250.45 Q403.3 250.05 404.4 249.2 L406.05 247.5" fill="#000000" fill-rule="evenodd" stroke="none"/>
  </g>
</svg>
