<?xml version="1.0" encoding="UTF-8" standalone="no"?>
<svg xmlns:xlink="http://www.w3.org/1999/xlink" height="27.1px" width="8.65px" xmlns="http://www.w3.org/2000/svg">
  <g transform="matrix(1.0, 0.0, 0.0, 1.0, -395.6, -247.65)">
    <path d="M397.05 248.85 L398.95 247.65 400.85 247.65 402.8 248.85 402.8 251.1 400.95 252.5 399.9 252.05 398.85 252.5 397.05 251.1 397.05 248.85 M399.9 253.4 L402.15 254.35 402.15 257.55 399.9 258.7 397.65 257.55 397.65 254.35 399.9 253.4 M399.9 259.8 L401.1 259.25 401.3 259.15 401.35 259.1 401.55 259.0 401.55 261.75 399.9 262.65 398.3 261.75 398.3 259.0 399.9 259.8 M403.35 270.95 Q402.1 273.25 399.9 274.75 397.7 273.25 396.5 270.95 L395.6 265.25 398.7 263.05 399.9 263.8 401.1 263.05 404.25 265.25 403.35 270.95" fill="#000000" fill-rule="evenodd" stroke="none"/>
  </g>
</svg>
