<?xml version="1.0" encoding="UTF-8" standalone="no"?>
<svg xmlns:xlink="http://www.w3.org/1999/xlink" height="41.1px" width="263.65px" xmlns="http://www.w3.org/2000/svg">
  <g transform="matrix(1.0, 0.0, 0.0, 1.0, -268.1, -523.55)">
    <path d="M528.45 545.8 L529.1 546.55 Q533.65 552.4 530.35 558.75 L524.95 564.65 485.7 564.65 476.65 559.55 473.35 556.85 Q467.65 551.6 466.35 545.7 L465.95 544.05 Q464.3 538.3 460.3 533.3 476.6 524.1 502.2 523.55 L528.45 545.8 M297.65 523.55 L305.7 523.95 Q325.95 525.6 339.55 533.25 335.55 538.25 333.9 544.0 L333.45 545.7 Q332.15 551.6 326.55 556.8 L323.15 559.55 314.2 564.65 274.85 564.65 269.5 558.75 Q266.15 552.45 270.7 546.6 L271.35 545.8 297.65 523.55" fill="#000000" fill-rule="evenodd" stroke="none"/>
  </g>
</svg>
