<?xml version="1.0" encoding="UTF-8" standalone="no"?>
<svg xmlns:xlink="http://www.w3.org/1999/xlink" height="18.6px" width="199.4px" xmlns="http://www.w3.org/2000/svg">
  <g transform="matrix(1.0, 0.0, 0.0, 1.0, -300.2, -452.0)">
    <path d="M309.05 452.5 L300.7 463.1 M366.75 467.7 L366.55 466.7 363.95 455.8 M499.1 463.15 L490.8 452.55 M433.1 467.7 L433.25 466.7 435.85 455.8" fill="none" stroke="#000000" stroke-linecap="round" stroke-linejoin="round" stroke-width="1.0"/>
    <path d="M312.95 455.9 L317.6 461.9 337.1 463.0 340.7 458.05 Q323.15 458.05 309.05 452.5 M300.7 463.1 L305.7 464.7 Q336.15 473.65 366.75 467.7 M363.95 455.8 Q351.65 458.0 340.7 458.05 M490.8 452.55 Q476.65 458.1 459.1 458.05 L462.7 463.0 482.2 461.9 486.85 455.9 M499.1 463.15 L495.75 464.2 492.55 465.15 Q462.9 473.5 433.1 467.7 M435.85 455.8 Q448.2 458.0 459.1 458.05" fill="none" stroke="#000000" stroke-linecap="round" stroke-linejoin="round" stroke-opacity="0.5019608" stroke-width="1.0"/>
  </g>
</svg>
