<?xml version="1.0" encoding="UTF-8" standalone="no"?>
<svg xmlns:xlink="http://www.w3.org/1999/xlink" height="114.95px" width="169.4px" xmlns="http://www.w3.org/2000/svg">
  <g transform="matrix(1.0, 0.0, 0.0, 1.0, -315.2, -402.45)">
    <path d="M317.75 461.9 Q321.25 431.3 327.8 402.95 338.45 405.0 348.75 407.4 341.2 434.35 337.1 463.0 L325.55 511.35 325.55 516.85 315.7 516.25 317.3 510.85 317.6 463.3 317.75 461.95 317.75 461.9 337.1 463.0 M451.05 407.45 Q458.6 434.35 462.7 463.0 L482.05 461.9 Q478.55 431.3 472.0 402.95 461.35 405.05 451.05 407.45 M462.7 463.0 L474.25 511.35 474.25 516.8 484.1 516.25 482.5 510.85 482.2 463.3 482.05 461.95 482.05 461.9" fill="none" stroke="#000000" stroke-linecap="round" stroke-linejoin="round" stroke-opacity="0.5019608" stroke-width="1.0"/>
  </g>
</svg>
