<?xml version="1.0" encoding="UTF-8" standalone="no"?>
<svg xmlns:xlink="http://www.w3.org/1999/xlink" height="40.3px" width="236.7px" xmlns="http://www.w3.org/2000/svg">
  <g transform="matrix(1.0, 0.0, 0.0, 1.0, -281.55, -524.35)">
    <path d="M490.3 524.35 L509.7 543.4 Q516.6 547.75 517.95 556.05 518.55 559.9 517.95 564.65 L500.45 564.65 Q500.6 561.55 500.25 558.8 499.15 550.4 493.2 544.85 L478.75 526.3 Q484.2 525.0 490.3 524.35 M290.1 543.4 L309.55 524.35 Q315.6 525.0 321.1 526.3 L306.6 544.85 Q300.7 550.4 299.6 558.75 299.2 561.55 299.35 564.65 L281.85 564.65 Q281.25 559.9 281.85 556.05 283.15 547.75 290.1 543.4" fill="#000000" fill-rule="evenodd" stroke="none"/>
  </g>
</svg>
