<?xml version="1.0" encoding="UTF-8" standalone="no"?>
<svg xmlns:xlink="http://www.w3.org/1999/xlink" height="73.45px" width="168.4px" xmlns="http://www.w3.org/2000/svg">
  <g transform="matrix(1.0, 0.0, 0.0, 1.0, -315.7, -443.45)">
    <path d="M317.75 461.9 Q318.8 452.55 320.2 443.45 329.45 445.55 339.85 446.25 338.3 454.55 337.1 463.0 L325.55 511.35 325.55 516.85 315.7 516.25 317.3 510.85 317.6 463.3 317.75 461.95 317.75 461.9 M482.05 461.9 L482.05 461.95 482.2 463.3 482.5 510.85 484.1 516.25 474.25 516.8 474.25 511.35 462.7 463.0 460.0 446.25 Q470.35 445.55 479.65 443.45 L482.05 461.9" fill="#000000" fill-rule="evenodd" stroke="none"/>
  </g>
</svg>
