<?xml version="1.0" encoding="UTF-8" standalone="no"?>
<svg xmlns:xlink="http://www.w3.org/1999/xlink" height="24.6px" width="32.0px" xmlns="http://www.w3.org/2000/svg">
  <g transform="matrix(1.0, 0.0, 0.0, 1.0, -383.9, -206.5)">
    <path d="M409.55 207.2 L409.6 207.2 Q410.95 207.45 412.45 208.05 L412.5 208.05 412.5 208.1 412.2 208.4 407.55 215.8 403.95 222.7 403.15 224.3 402.65 225.25 402.6 225.3 401.45 225.8 401.0 225.95 400.45 226.2 400.3 226.25 399.9 226.2 399.75 226.2 399.35 226.25 399.25 226.2 398.65 225.95 398.3 225.8 397.05 225.3 397.05 225.25 396.55 224.3 395.7 222.7 392.1 215.8 387.45 208.4 387.3 207.9 390.15 207.15 390.2 207.15 393.25 207.0 395.1 207.25 396.1 207.5 396.25 207.6 Q396.95 207.75 397.65 208.05 L398.1 208.3 398.3 208.35 399.9 209.1 401.35 208.35 401.55 208.3 402.0 208.05 Q402.65 207.75 403.35 207.6 L403.55 207.5 405.7 207.05 406.45 207.0 406.5 207.0 409.45 207.15 409.55 207.2 M412.2 208.4 L411.0 209.8 409.25 211.0 409.25 209.05 409.55 207.45 409.55 207.35 409.4 207.4 407.4 211.95 405.9 214.5 406.2 211.8 406.35 210.7 406.45 207.3 405.7 208.95 405.65 209.0 Q405.0 210.4 404.6 210.6 L404.3 210.05 404.3 210.0 403.95 209.25 403.8 208.85 403.7 208.65 403.5 208.0 403.45 208.65 403.35 208.8 403.3 209.1 403.05 209.7 402.45 210.8 402.4 210.85 402.35 210.75 401.6 208.5 401.65 208.45 401.35 208.4 401.35 208.45 Q401.4 209.25 399.95 210.7 L399.9 209.1 Q399.6 209.45 399.75 210.6 398.25 209.25 398.25 208.45 L398.25 208.4 398.0 208.45 398.05 208.5 397.35 210.75 397.25 210.85 397.2 210.8 396.6 209.7 396.35 209.1 396.25 208.8 396.25 208.65 396.1 208.0 395.95 208.65 395.85 208.85 395.7 209.25 395.35 210.0 395.3 210.05 395.1 210.5 395.0 210.6 Q394.65 210.4 394.0 209.0 L393.2 207.3 393.15 207.2 393.15 207.3 Q393.15 209.0 393.3 210.7 L393.45 211.8 393.75 214.5 392.25 211.95 Q391.1 209.75 390.25 207.4 L390.1 207.35 390.15 207.45 390.4 209.05 390.4 211.0 Q389.45 210.7 388.65 209.8 L387.45 208.4 M412.45 208.05 L412.5 208.1 M396.1 207.5 L396.1 208.0 M403.55 207.5 L403.5 208.0 M390.15 207.15 L390.1 207.2 390.2 207.15 M395.7 222.7 Q396.7 220.95 395.8 218.7 394.9 216.45 394.8 215.4 L394.8 214.5 395.1 213.35 Q395.4 212.7 396.0 212.4 L395.85 211.2 395.95 210.4 Q396.05 210.05 396.3 209.8 M403.95 222.7 Q402.95 220.95 403.85 218.7 L404.65 216.4 404.85 215.4 404.85 214.5 Q404.7 212.9 403.65 212.4 L402.5 212.1 399.85 212.55 399.8 212.55 397.1 212.1 396.0 212.4 M403.3 209.8 L403.7 210.4 403.8 211.2 403.65 212.4 M404.1 214.65 L402.6 216.4 402.05 216.9 399.85 218.85 399.8 218.85 397.55 216.9 397.05 216.4 395.55 214.65 M403.15 224.3 L403.2 223.15 402.65 221.6 Q402.0 222.3 401.65 224.5 L401.45 225.8 M384.4 211.4 L395.55 227.0 395.65 228.5 396.6 229.6 396.9 229.8 Q397.75 230.4 398.9 230.55 L399.0 230.6 399.4 230.6 399.8 230.6 399.85 230.6 400.25 230.6 400.65 230.6 400.75 230.55 Q402.1 230.35 403.05 229.6 L403.55 229.1 404.0 228.5 404.1 227.0 415.4 211.4 M401.0 225.95 Q400.95 224.8 400.5 223.95 399.95 224.6 399.85 225.85 L399.85 225.9 399.85 226.05 399.9 226.2 400.45 226.2 M398.3 225.8 L397.8 223.45 Q397.45 222.1 397.0 221.6 L396.45 223.15 396.55 224.3 M399.8 225.9 L399.8 226.05 399.85 225.9 399.8 225.85 399.8 225.9 M399.8 226.05 L399.75 226.2 399.25 226.2 M399.8 225.85 Q399.65 224.6 399.15 223.95 398.7 224.8 398.65 225.95" fill="none" stroke="#000000" stroke-linecap="round" stroke-linejoin="round" stroke-opacity="0.5019608" stroke-width="1.0"/>
  </g>
</svg>
