<?xml version="1.0" encoding="UTF-8" standalone="no"?>
<svg xmlns:xlink="http://www.w3.org/1999/xlink" height="19.2px" width="25.2px" xmlns="http://www.w3.org/2000/svg">
  <g transform="matrix(1.0, 0.0, 0.0, 1.0, -387.3, -207.1)">
    <path d="M406.45 207.1 L406.5 207.1 409.45 207.25 409.55 207.3 409.6 207.3 Q410.95 207.55 412.45 208.15 L412.5 208.15 412.5 208.2 412.2 208.5 411.0 209.9 409.25 211.1 409.25 209.15 409.55 207.55 409.55 207.45 409.4 207.5 407.4 212.05 405.9 214.6 406.2 211.9 406.35 210.8 406.45 207.4 405.7 209.05 405.65 209.1 Q405.0 210.5 404.6 210.7 L404.3 210.15 404.3 210.1 403.95 209.35 403.8 208.95 403.7 208.75 403.5 208.1 403.45 208.75 403.35 208.9 403.3 209.2 403.05 209.8 402.45 210.9 402.4 210.95 402.35 210.85 401.6 208.6 401.65 208.55 401.35 208.5 401.35 208.55 Q401.4 209.35 399.95 210.8 L399.9 209.2 Q399.6 209.55 399.75 210.7 398.25 209.35 398.25 208.55 L398.25 208.5 398.0 208.55 398.05 208.6 397.35 210.85 397.25 210.95 397.2 210.9 396.6 209.8 396.35 209.2 396.25 208.9 396.25 208.75 396.1 208.1 395.95 208.75 395.85 208.95 395.7 209.35 395.35 210.1 395.3 210.15 395.1 210.6 395.0 210.7 Q394.65 210.5 394.0 209.1 L393.2 207.4 393.15 207.3 393.15 207.4 Q393.15 209.1 393.3 210.8 L393.45 211.9 393.75 214.6 392.25 212.05 Q391.1 209.85 390.25 207.5 L390.1 207.45 390.15 207.55 390.4 209.15 390.4 211.1 Q389.45 210.8 388.65 209.9 L387.45 208.5 387.3 208.0 390.15 207.25 390.1 207.3 390.2 207.25 393.25 207.1 395.1 207.35 396.1 207.6 396.25 207.7 Q396.95 207.85 397.65 208.15 L398.1 208.4 398.3 208.45 399.9 209.2 401.35 208.45 401.55 208.4 402.0 208.15 Q402.65 207.85 403.35 207.7 L403.55 207.6 405.7 207.15 406.45 207.1 M402.65 225.35 L402.6 225.4 401.45 225.9 401.65 224.6 Q402.0 222.4 402.65 221.7 L403.2 223.25 403.15 224.4 402.65 225.35 M401.0 226.05 L400.45 226.3 399.9 226.3 399.85 226.15 399.85 226.0 399.85 225.95 Q399.95 224.7 400.5 224.05 400.95 224.9 401.0 226.05 M397.05 225.4 L397.05 225.35 396.55 224.4 396.45 223.25 397.0 221.7 Q397.45 222.2 397.8 223.55 L398.3 225.9 397.05 225.4 M399.8 226.15 L399.75 226.3 399.25 226.3 398.65 226.05 Q398.7 224.9 399.15 224.05 399.65 224.7 399.8 225.95 L399.8 226.0 399.8 226.15" fill="#000000" fill-rule="evenodd" stroke="none"/>
  </g>
</svg>
