<?xml version="1.0" encoding="UTF-8" standalone="no"?>
<svg xmlns:xlink="http://www.w3.org/1999/xlink" height="8.7px" width="26.7px" xmlns="http://www.w3.org/2000/svg">
  <g transform="matrix(1.0, 0.0, 0.0, 1.0, -386.6, -205.2)">
    <path d="M407.65 209.65 Q407.85 211.85 410.45 212.45 413.2 209.85 412.7 205.7 410.85 208.45 407.65 209.65 404.6 206.85 399.95 206.8 395.3 206.85 392.25 209.65 392.05 211.85 389.45 212.45 L388.75 213.4 M411.15 213.4 L410.45 212.45 M404.55 210.75 Q402.75 209.3 399.95 209.3 397.15 209.3 395.35 210.75 M392.25 209.65 Q389.05 208.45 387.2 205.7 386.7 209.85 389.45 212.45" fill="none" stroke="#000000" stroke-linecap="round" stroke-linejoin="round" stroke-opacity="0.5019608" stroke-width="1.0"/>
  </g>
</svg>
