<?xml version="1.0" encoding="UTF-8" standalone="no"?>
<svg xmlns:xlink="http://www.w3.org/1999/xlink" height="12.8px" width="29.3px" xmlns="http://www.w3.org/2000/svg">
  <g transform="matrix(1.0, 0.0, 0.0, 1.0, -385.1, -178.8)">
    <path d="M401.6 185.15 Q401.6 182.5 403.5 180.65 405.3 178.8 407.95 178.8 410.7 178.8 412.55 180.65 414.4 182.5 414.4 185.15 414.4 187.8 412.55 189.65 410.95 191.25 408.8 191.55 L407.95 191.6 Q405.35 191.55 403.5 189.65 401.6 187.8 401.6 185.15 M397.9 185.15 Q397.9 187.8 396.0 189.65 394.1 191.55 391.5 191.6 L390.65 191.55 Q388.55 191.25 386.95 189.65 385.1 187.8 385.1 185.15 385.1 182.5 386.95 180.65 388.8 178.8 391.5 178.8 394.15 178.8 396.0 180.65 397.9 182.5 397.9 185.15" fill="#000000" fill-rule="evenodd" stroke="none"/>
  </g>
</svg>
