<?xml version="1.0" encoding="UTF-8" standalone="no"?>
<svg xmlns:xlink="http://www.w3.org/1999/xlink" height="39.25px" width="86.5px" xmlns="http://www.w3.org/2000/svg">
  <g transform="matrix(1.0, 0.0, 0.0, 1.0, -356.5, -137.15)">
    <path d="M382.6 147.75 Q383.45 143.85 384.95 141.9 390.45 134.85 390.45 138.3 390.45 140.5 391.0 143.95 L393.45 156.15 Q395.15 166.8 399.75 167.6 404.35 166.8 406.05 156.15 L408.5 143.95 Q409.05 140.5 409.05 138.3 409.05 134.85 414.55 141.9 416.05 143.85 416.9 147.75 419.85 155.1 422.45 156.15 L433.3 161.5 Q439.6 164.65 442.35 170.75 444.1 174.85 441.2 176.2 L440.45 176.4 Q442.0 173.55 440.3 170.65 437.05 163.75 428.2 160.95 421.95 158.85 420.4 156.05 L418.05 151.9 Q416.25 147.0 414.05 144.55 410.25 140.75 410.2 147.1 409.9 155.3 407.95 163.0 405.2 172.3 399.75 171.9 394.3 172.3 391.55 163.0 389.6 155.3 389.3 147.1 389.25 140.75 385.45 144.55 383.25 147.0 381.45 151.9 L379.1 156.05 Q377.55 158.85 371.3 160.95 362.45 163.75 359.2 170.65 357.5 173.55 359.05 176.4 L358.3 176.2 Q355.4 174.85 357.15 170.75 359.9 164.65 366.2 161.5 L377.05 156.15 Q379.65 155.1 382.6 147.75" fill="#000000" fill-rule="evenodd" stroke="none"/>
  </g>
</svg>
