<?xml version="1.0" encoding="UTF-8" standalone="no"?>
<svg xmlns:xlink="http://www.w3.org/1999/xlink" height="28.7px" width="112.0px" xmlns="http://www.w3.org/2000/svg">
  <g transform="matrix(1.0, 0.0, 0.0, 1.0, -343.75, -154.95)">
    <path d="M361.25 154.95 Q361.25 156.0 360.4 156.9 354.55 160.55 352.3 168.25 L352.25 168.45 Q352.1 170.05 352.85 170.6 354.25 171.2 355.25 170.05 357.05 167.75 359.1 166.05 364.35 161.8 371.3 161.65 375.85 161.6 379.65 163.55 L382.75 165.55 Q380.05 168.95 380.2 173.2 L380.35 181.0 379.65 180.05 379.4 179.75 Q375.4 174.8 371.25 173.95 368.4 173.4 366.2 174.4 L366.0 174.45 365.65 174.65 Q364.65 175.15 363.8 176.0 360.35 179.45 356.05 182.3 355.2 182.85 354.3 183.2 351.9 184.1 349.4 183.2 L347.35 182.2 Q341.2 176.4 345.55 167.1 350.45 157.55 361.25 154.95 M444.25 170.05 Q445.25 171.2 446.65 170.6 447.4 170.05 447.25 168.45 L447.2 168.25 Q444.95 160.55 439.1 156.9 438.25 156.0 438.25 154.95 449.05 157.55 453.95 167.1 458.3 176.4 452.15 182.2 L450.1 183.2 Q447.6 184.1 445.2 183.2 L443.45 182.3 Q439.15 179.45 435.7 176.0 434.85 175.15 433.85 174.65 L433.5 174.45 433.3 174.4 Q431.1 173.4 428.25 173.95 424.1 174.8 420.1 179.75 L419.85 180.05 419.15 181.0 419.3 173.2 Q419.45 168.95 416.75 165.6 418.25 164.35 419.85 163.55 423.65 161.6 428.2 161.65 435.15 161.8 440.4 166.05 442.45 167.75 444.25 170.05" fill="#000000" fill-rule="evenodd" stroke="none"/>
  </g>
</svg>
