<?xml version="1.0" encoding="UTF-8" standalone="no"?>
<svg xmlns:xlink="http://www.w3.org/1999/xlink" height="60.15px" width="62.9px" xmlns="http://www.w3.org/2000/svg">
  <g transform="matrix(1.0, 0.0, 0.0, 1.0, -368.1, -160.1)">
    <path d="M393.05 170.8 L388.35 172.05 388.35 161.7 393.05 160.1 393.05 170.8 M381.25 197.05 L384.0 201.2 385.05 200.85 385.15 198.4 389.45 196.7 Q391.0 197.2 392.15 199.25 L394.25 203.15 Q395.4 205.6 395.25 207.9 L390.8 209.5 390.6 209.55 388.45 208.0 387.7 208.4 388.55 212.75 Q388.65 214.5 387.9 216.05 L376.5 220.25 Q372.75 217.7 370.65 213.7 369.6 211.6 368.9 209.35 L368.5 207.9 368.15 205.85 Q368.0 202.8 368.55 199.85 L379.3 195.65 Q380.4 196.0 381.25 197.05 M383.6 185.05 Q383.25 183.0 383.6 181.0 384.7 178.9 386.2 178.2 L389.95 177.9 Q392.2 178.25 393.75 179.0 394.8 179.45 395.55 180.75 396.1 181.95 395.9 183.65 395.55 185.1 394.4 186.7 L391.95 189.1 Q390.85 189.95 389.3 190.6 388.25 190.9 387.05 190.6 L386.55 190.3 Q385.2 189.35 384.6 188.25 383.65 186.2 383.6 185.05 M403.55 180.75 Q404.3 179.45 405.35 179.0 406.9 178.25 409.15 177.9 L412.9 178.2 Q414.4 178.9 415.5 181.0 415.85 183.0 415.5 185.05 415.45 186.2 414.5 188.25 413.9 189.35 412.55 190.3 L412.05 190.6 Q410.85 190.9 409.8 190.6 408.25 189.95 407.15 189.1 405.7 188.05 404.7 186.7 403.55 185.1 403.2 183.65 403.0 181.95 403.55 180.75 M402.15 195.4 L402.15 197.5 396.95 197.5 396.95 195.4 402.15 195.4 M398.35 193.6 L398.35 191.65 400.75 191.65 400.75 193.6 398.35 193.6 M410.75 172.05 L406.05 170.8 406.05 160.1 410.75 161.7 410.75 172.05 M419.8 195.65 L430.55 199.85 Q431.1 202.8 430.95 205.85 L430.6 207.9 430.2 209.35 428.45 213.7 Q426.35 217.7 422.6 220.25 L411.2 216.05 Q410.45 214.5 410.55 212.75 L411.4 208.4 410.65 208.0 408.5 209.55 408.3 209.5 403.85 207.9 Q403.7 205.6 404.9 203.15 L406.95 199.25 Q408.1 197.2 409.65 196.7 L413.95 198.4 414.05 200.85 415.1 201.2 Q416.45 198.9 417.85 197.05 418.7 196.0 419.8 195.65 M401.7 199.05 L402.45 199.55 402.95 200.2 Q403.45 200.9 403.55 201.7 L403.55 201.95 Q403.55 203.05 402.8 203.9 L402.35 204.35 400.95 205.2 400.4 205.3 399.6 205.35 399.5 205.35 398.8 205.35 397.2 204.75 396.65 204.35 396.05 203.7 Q395.5 202.95 395.45 202.05 L395.45 201.95 Q395.45 200.9 396.15 200.1 L396.65 199.55 Q397.5 198.9 398.5 198.65 L399.5 198.6 399.6 198.6 399.95 198.6 Q400.9 198.65 401.7 199.05" fill="#000000" fill-rule="evenodd" stroke="none"/>
  </g>
</svg>
