<?xml version="1.0" encoding="UTF-8" standalone="no"?>
<svg xmlns:xlink="http://www.w3.org/1999/xlink" height="43.7px" width="48.1px" xmlns="http://www.w3.org/2000/svg">
  <g transform="matrix(1.0, 0.0, 0.0, 1.0, -375.75, -133.85)">
    <path d="M381.8 164.65 Q391.25 162.05 399.8 162.35 408.35 162.05 417.8 164.65 M381.7 168.15 L384.5 169.85 Q390.45 174.5 400.2 174.45 409.15 174.5 415.1 169.85 L417.9 168.15" fill="none" stroke="#000000" stroke-linecap="round" stroke-linejoin="round" stroke-opacity="0.5019608" stroke-width="1.0"/>
    <path d="M417.8 164.65 Q417.9 153.55 422.0 143.3 412.2 134.05 399.8 134.35 387.4 134.05 377.6 143.3 381.7 153.55 381.8 164.65 M417.8 164.65 L417.9 168.15 420.65 166.45 Q426.05 164.8 420.65 174.95 411.0 177.2 399.8 177.05 388.6 177.2 378.95 174.95 373.55 164.8 378.95 166.45 L381.7 168.15 381.8 164.65 Z" fill="none" stroke="#000000" stroke-linecap="round" stroke-linejoin="round" stroke-width="1.0"/>
  </g>
</svg>
