<?xml version="1.0" encoding="UTF-8" standalone="no"?>
<svg xmlns:xlink="http://www.w3.org/1999/xlink" height="33.8px" width="85.3px" xmlns="http://www.w3.org/2000/svg">
  <g transform="matrix(1.0, 0.0, 0.0, 1.0, -357.1, -145.05)">
    <path d="M363.95 149.95 Q364.3 149.35 364.3 148.6 L364.25 147.95 Q364.05 147.1 363.3 146.45 L363.2 146.35 M377.4 159.75 Q380.8 159.8 384.4 160.85 L386.7 161.65 Q389.35 159.7 393.5 159.0 L393.55 159.0 394.05 158.95 395.05 158.85 M386.7 161.65 Q385.7 162.2 384.9 162.85 L384.4 163.25 382.8 164.95 Q381.8 166.2 381.05 167.8 L381.05 172.6 M362.35 165.15 Q363.6 165.2 364.5 166.05 365.25 166.7 365.45 167.55 M435.55 149.95 Q435.2 149.35 435.2 148.6 L435.25 147.95 Q435.45 147.1 436.2 146.45 L436.3 146.35 M437.15 165.15 Q435.9 165.2 435.0 166.05 434.25 166.7 434.05 167.55 M404.45 158.85 L405.45 158.95 405.95 159.0 406.0 159.0 Q410.15 159.7 412.8 161.65 L415.1 160.85 Q418.7 159.8 422.1 159.75 M412.8 161.65 Q413.8 162.2 414.6 162.85 L415.1 163.25 416.7 164.95 418.45 167.8 418.45 172.6" fill="none" stroke="#000000" stroke-linecap="round" stroke-linejoin="round" stroke-opacity="0.49803922" stroke-width="1.0"/>
    <path d="M363.2 146.35 Q362.3 145.6 360.8 145.55 359.5 145.6 358.55 146.45 357.6 147.35 357.6 148.6 357.6 149.85 358.55 150.75 359.55 151.65 360.95 151.65 362.35 151.65 363.3 150.75 L363.95 149.95 Q368.8 152.4 371.8 154.8 L377.4 159.75 M395.05 158.85 L393.05 157.2 Q378.9 146.45 363.2 146.35 M395.05 158.85 L395.45 158.8 Q397.6 157.6 399.75 157.7 401.9 157.6 404.05 158.8 L404.45 158.85 406.45 157.2 Q420.6 146.45 436.3 146.35 437.2 145.6 438.7 145.55 440.0 145.6 440.95 146.45 441.9 147.35 441.9 148.6 441.9 149.85 440.95 150.75 439.95 151.65 438.55 151.65 437.15 151.65 436.2 150.75 L435.55 149.95 Q430.7 152.4 427.7 154.8 424.75 157.2 422.1 159.75 L422.95 159.75 Q430.6 159.85 437.15 165.15 L437.5 165.15 Q438.8 165.2 439.75 166.05 440.7 166.95 440.7 168.2 440.7 169.45 439.75 170.35 438.75 171.25 437.35 171.25 435.95 171.25 435.0 170.35 434.0 169.45 434.0 168.2 L434.05 167.55 Q425.8 168.35 418.45 172.6 L418.5 173.1 418.5 178.35 415.1 177.5 Q407.5 175.75 399.75 175.8 392.0 175.75 384.4 177.5 L381.0 178.35 381.0 173.1 381.05 172.6 Q373.7 168.35 365.45 167.55 L365.5 168.2 Q365.5 169.45 364.5 170.35 363.55 171.25 362.15 171.25 360.75 171.25 359.75 170.35 358.8 169.45 358.8 168.2 358.8 166.95 359.75 166.05 360.7 165.2 362.0 165.15 L362.35 165.15 Q368.9 159.85 376.55 159.75 L377.4 159.75" fill="none" stroke="#000000" stroke-linecap="round" stroke-linejoin="round" stroke-width="1.0"/>
  </g>
</svg>
