<?xml version="1.0" encoding="UTF-8" standalone="no"?>
<svg xmlns:xlink="http://www.w3.org/1999/xlink" height="72.7px" width="63.1px" xmlns="http://www.w3.org/2000/svg">
  <g transform="matrix(1.0, 0.0, 0.0, 1.0, -368.05, -136.8)">
    <path d="M399.6 169.45 L408.8 169.9 Q409.5 162.9 412.75 158.85 L426.5 137.3 Q426.95 142.9 425.7 148.7 L428.45 143.3 Q428.4 146.95 427.75 150.8 L429.75 146.75 428.9 155.05 430.65 151.55 Q429.9 162.45 426.05 173.4 423.2 174.4 421.75 177.9 L420.8 184.7 Q419.8 182.5 418.05 181.9 L416.0 202.9 410.1 209.0 410.1 195.05 414.1 191.55 Q414.8 188.2 415.1 185.0 414.95 179.5 409.25 180.15 401.9 180.1 401.85 186.75 L399.6 186.75 397.35 186.75 Q397.3 180.1 389.95 180.15 384.25 179.5 384.1 185.0 384.4 188.2 385.1 191.55 L389.1 195.05 389.1 209.0 383.2 202.9 381.15 181.9 Q379.4 182.5 378.4 184.7 L377.45 177.9 Q376.0 174.4 373.15 173.4 369.3 162.45 368.55 151.55 L370.3 155.05 Q369.65 150.9 369.45 146.75 L371.45 150.8 Q370.8 146.95 370.75 143.3 L373.5 148.7 Q372.25 142.9 372.7 137.3 L386.45 158.85 Q389.7 162.9 390.4 169.9 L399.6 169.45" fill="none" stroke="#000000" stroke-linecap="round" stroke-linejoin="round" stroke-width="1.0"/>
    <path d="M399.6 169.45 L399.6 186.75 M370.3 155.05 Q371.4 162.4 373.9 169.65 377.6 170.2 378.35 173.6 M373.5 148.7 Q374.65 153.9 377.1 159.25 382.05 162.0 382.85 167.95 M371.45 150.8 Q372.65 157.55 375.65 164.7 379.55 166.3 380.05 170.8 M390.4 169.9 L390.6 174.0 Q385.65 172.7 384.2 178.05 383.95 179.25 383.85 180.5 383.65 182.95 384.1 185.55 L384.1 185.0 M428.9 155.05 Q427.8 162.4 425.3 169.65 421.6 170.2 420.85 173.6 M425.7 148.7 Q424.55 153.9 422.1 159.25 417.15 162.0 416.35 167.95 M427.75 150.8 Q426.55 157.55 423.55 164.7 419.65 166.3 419.15 170.8 M408.8 169.9 L408.6 174.0 Q413.55 172.7 415.0 178.05 L415.35 180.5 Q415.55 182.95 415.1 185.55 L415.1 185.0" fill="none" stroke="#000000" stroke-linecap="round" stroke-linejoin="round" stroke-opacity="0.5019608" stroke-width="1.0"/>
  </g>
</svg>
