<?xml version="1.0" encoding="UTF-8" standalone="no"?>
<svg xmlns:xlink="http://www.w3.org/1999/xlink" height="38.7px" width="46.5px" xmlns="http://www.w3.org/2000/svg">
  <g transform="matrix(1.0, 0.0, 0.0, 1.0, -376.8, -169.15)">
    <path d="M383.15 170.45 Q384.45 169.65 385.7 169.65 394.35 174.3 400.0 174.5 L400.1 174.5 Q405.8 174.45 414.4 169.8 415.6 169.8 416.9 170.55 L417.6 170.95 419.95 173.15 419.6 176.6 422.8 180.2 422.8 189.6 417.8 194.3 416.95 202.5 Q415.25 205.6 412.25 207.35 L410.55 205.05 Q406.9 201.05 400.95 200.6 L399.75 200.55 399.15 200.55 Q393.15 200.95 389.55 205.0 L387.85 207.2 Q384.85 205.45 383.15 202.35 L382.3 194.15 377.3 189.45 377.3 180.05 380.5 176.45 380.15 173.0 Q381.65 171.25 383.15 170.45" fill="none" stroke="#000000" stroke-linecap="round" stroke-linejoin="round" stroke-width="1.0"/>
    <path d="M382.3 194.15 L380.5 176.45 M387.5 184.5 L390.55 186.7 Q394.5 186.7 396.0 185.25 390.7 181.45 385.4 181.7 385.95 183.1 387.5 184.5 M399.8 192.6 L399.8 183.0 395.45 193.15 399.75 196.45 404.65 193.3 399.8 183.0 M396.0 185.25 Q392.0 177.7 386.0 177.1 384.85 176.95 383.65 177.1 383.05 179.5 385.4 181.7 M415.15 177.05 L414.1 177.1 Q408.2 177.75 404.25 185.25 409.55 181.45 414.85 181.7 417.2 179.5 416.6 177.1 L415.15 177.05 M404.25 185.25 Q405.75 186.7 409.7 186.7 L412.7 184.55 Q414.25 183.15 414.85 181.7 M419.6 176.6 L417.8 194.3" fill="none" stroke="#000000" stroke-linecap="round" stroke-linejoin="round" stroke-opacity="0.49803922" stroke-width="1.0"/>
  </g>
</svg>
