<?xml version="1.0" encoding="UTF-8" standalone="no"?>
<svg xmlns:xlink="http://www.w3.org/1999/xlink" height="67.45px" width="61.7px" xmlns="http://www.w3.org/2000/svg">
  <g transform="matrix(1.0, 0.0, 0.0, 1.0, -368.95, -211.65)">
    <path d="M416.5 211.95 Q418.15 214.85 417.25 217.85 L427.2 217.35 421.4 220.65 428.5 222.55 Q432.35 223.1 429.3 226.45 L419.0 234.15 Q423.05 234.25 424.8 236.45 L424.95 236.45 Q426.4 237.1 424.35 239.45 L415.0 246.45 Q418.4 247.55 419.75 248.65 L420.5 249.65 Q422.0 250.3 420.5 253.25 L410.5 261.4 Q413.85 262.05 414.9 264.25 415.4 266.05 413.15 267.8 405.05 271.65 399.85 279.1 L399.8 277.45 399.8 279.05 Q394.5 271.65 386.45 267.7 384.15 265.95 384.65 264.2 385.7 262.0 389.05 261.3 L379.05 253.15 Q377.6 250.25 379.1 249.55 379.25 249.1 379.75 248.65 381.05 247.5 384.55 246.4 L375.25 239.45 374.65 238.7 Q373.45 236.95 374.65 236.4 L374.8 236.35 376.35 235.05 Q378.0 234.15 380.65 234.1 L370.25 226.4 Q367.25 223.05 371.05 222.45 L378.2 220.55 372.35 217.25 376.35 217.35 382.0 217.7 Q380.45 215.0 383.05 212.25 383.1 210.45 399.35 220.65 L399.7 220.85 399.8 228.15 399.85 220.8 Q415.4 210.05 416.5 211.95" fill="#000000" fill-rule="evenodd" stroke="none"/>
  </g>
</svg>
