<?xml version="1.0" encoding="UTF-8" standalone="no"?>
<svg xmlns:xlink="http://www.w3.org/1999/xlink" height="56.15px" width="72.55px" xmlns="http://www.w3.org/2000/svg">
  <g transform="matrix(1.0, 0.0, 0.0, 1.0, -363.65, -204.65)">
    <path d="M377.7 255.4 Q378.1 255.1 378.55 255.1 379.05 255.1 379.4 255.4 L379.85 255.9 Q380.4 256.75 380.4 257.95 380.4 259.1 379.85 259.95 379.35 260.8 378.55 260.8 377.8 260.8 377.25 259.95 376.75 259.1 376.75 257.95 376.75 256.75 377.25 255.9 L377.7 255.4 M422.1 255.4 L422.6 255.9 Q423.1 256.75 423.1 257.95 423.1 259.1 422.6 259.95 422.05 260.8 421.25 260.8 420.5 260.8 420.0 259.95 419.45 259.1 419.45 257.95 419.45 256.75 420.0 255.9 L420.4 255.4 421.25 255.1 Q421.75 255.1 422.1 255.4 M430.45 212.35 Q435.35 218.05 436.05 222.35 L436.2 223.7 Q436.25 229.4 428.1 232.2 423.0 234.15 418.4 236.25 L417.1 233.2 415.45 234.35 416.75 237.0 Q407.3 241.45 399.9 246.4 392.55 241.45 383.05 237.0 L384.4 234.35 382.75 233.2 381.45 236.25 Q376.8 234.15 371.7 232.2 363.5 229.35 363.65 223.6 L363.75 222.35 Q364.5 218.05 369.35 212.35 375.5 204.8 384.5 204.65 L383.35 215.1 375.45 218.5 375.5 219.0 Q375.7 220.2 376.55 221.35 L385.05 228.05 Q396.5 234.1 399.9 244.4 403.3 234.1 414.75 228.05 L423.25 221.35 Q424.1 220.2 424.35 219.0 L424.4 218.65 416.25 215.1 415.15 204.65 Q424.35 204.8 430.45 212.35" fill="#000000" fill-rule="evenodd" stroke="none"/>
  </g>
</svg>
