<?xml version="1.0" encoding="UTF-8" standalone="no"?>
<svg xmlns:xlink="http://www.w3.org/1999/xlink" height="50.25px" width="72.9px" xmlns="http://www.w3.org/2000/svg">
  <g transform="matrix(1.0, 0.0, 0.0, 1.0, -363.35, -211.6)">
    <path d="M407.15 256.15 Q406.65 258.1 405.15 259.6 402.95 261.8 399.8 261.85 396.65 261.8 394.45 259.6 392.95 258.1 392.45 256.15 392.2 255.2 392.2 254.1 392.2 250.85 394.45 248.6 394.75 248.3 395.0 248.1 397.05 246.4 399.8 246.35 402.55 246.4 404.6 248.1 L405.15 248.6 Q407.4 250.85 407.4 254.1 L407.15 256.15 M418.95 232.35 Q422.2 232.35 424.45 234.6 425.65 235.8 426.2 237.25 426.75 238.6 426.75 240.1 426.75 243.35 424.45 245.6 422.4 247.65 419.55 247.85 419.0 246.05 417.6 244.65 415.35 242.4 412.1 242.4 L411.55 242.4 Q411.2 241.35 411.2 240.1 411.2 236.9 413.45 234.6 415.0 233.1 416.95 232.6 L418.95 232.35 M434.0 213.85 Q436.25 216.1 436.25 219.35 436.25 222.6 434.0 224.85 432.85 226.0 431.35 226.6 430.8 225.35 429.7 224.25 427.45 222.0 424.2 222.0 422.7 222.0 421.35 222.5 420.75 221.05 420.75 219.35 L420.95 217.35 421.0 217.35 Q421.5 215.35 423.0 213.85 424.1 212.75 425.45 212.2 426.85 211.6 428.5 211.6 431.75 211.6 434.0 213.85 M374.15 212.2 Q375.5 212.75 376.6 213.85 378.1 215.35 378.6 217.35 L378.65 217.35 378.85 219.35 Q378.85 221.05 378.25 222.5 376.9 222.0 375.4 222.0 372.15 222.0 369.9 224.25 368.8 225.35 368.25 226.6 366.75 226.0 365.6 224.85 363.35 222.6 363.35 219.35 363.35 216.1 365.6 213.85 367.85 211.6 371.1 211.6 372.75 211.6 374.15 212.2 M380.65 232.35 L382.65 232.6 Q384.6 233.1 386.15 234.6 388.4 236.9 388.4 240.1 388.4 241.35 388.05 242.4 L387.5 242.4 Q384.25 242.4 382.0 244.65 380.6 246.05 380.05 247.85 377.2 247.65 375.15 245.6 372.85 243.35 372.85 240.1 372.85 238.6 373.4 237.25 373.95 235.8 375.15 234.6 377.4 232.35 380.65 232.35" fill="#000000" fill-rule="evenodd" stroke="none"/>
  </g>
</svg>
