<?xml version="1.0" encoding="UTF-8" standalone="no"?>
<svg xmlns:xlink="http://www.w3.org/1999/xlink" height="44.7px" width="66.15px" xmlns="http://www.w3.org/2000/svg">
  <g transform="matrix(1.0, 0.0, 0.0, 1.0, -366.95, -218.75)">
    <path d="M424.4 237.0 L424.7 237.0 425.4 236.8 Q426.4 236.45 427.0 235.4 427.65 234.35 427.4 233.25 427.2 232.55 426.8 232.15 L426.75 232.0 427.2 230.9 427.45 231.05 Q428.35 231.8 428.7 233.05 429.25 234.65 428.45 236.2 427.65 237.65 426.0 238.1 425.0 238.3 424.0 238.1 L423.85 238.05 424.4 237.0 M423.15 230.1 L423.5 230.0 424.5 229.85 425.65 230.0 425.15 231.3 424.85 231.3 424.2 231.4 Q423.15 231.75 422.55 232.8 422.05 233.75 422.2 234.7 L422.25 234.95 422.6 235.9 422.8 236.2 422.25 237.2 422.0 237.05 Q421.1 236.25 420.8 235.05 L420.7 235.05 420.55 233.75 Q420.55 232.75 421.05 231.9 421.6 230.85 422.55 230.35 L422.7 230.3 423.15 230.1 M430.1 220.5 Q429.6 220.1 429.1 220.1 L428.45 220.25 428.15 220.4 Q427.2 220.85 426.75 222.0 426.45 222.9 426.6 223.75 L426.75 224.3 427.2 225.2 427.65 225.6 427.7 225.45 427.65 225.65 427.2 226.7 426.75 226.4 425.65 225.05 425.35 224.4 Q424.95 223.6 424.95 222.8 L424.95 222.4 Q425.0 221.75 425.3 221.15 425.85 219.55 427.35 219.0 L429.6 218.9 Q430.0 219.0 430.5 219.25 L431.25 219.75 431.95 220.4 432.65 221.75 432.8 221.75 Q433.4 223.45 432.85 225.05 L431.6 226.8 430.7 227.25 428.8 227.3 429.3 226.15 429.5 226.15 Q429.65 226.0 429.95 225.95 L430.05 225.9 Q430.95 225.4 431.4 224.35 431.85 223.25 431.45 222.1 L430.8 220.95 Q430.5 220.6 430.1 220.5 M420.15 240.2 L420.45 240.3 419.7 241.35 419.55 241.35 419.45 241.3 418.5 241.45 Q417.65 241.7 417.2 242.45 L417.05 242.6 416.85 242.9 Q416.35 243.75 416.45 244.65 L416.85 245.6 416.85 245.65 417.05 245.75 416.15 246.75 415.95 246.6 Q415.2 245.85 414.95 244.8 414.55 243.25 415.3 241.95 L415.65 241.55 Q416.4 240.45 417.75 240.05 L420.0 240.1 420.15 240.2 M418.6 246.7 L419.65 246.6 Q420.65 246.25 421.35 245.45 L421.4 245.25 421.55 245.05 Q421.85 244.25 421.65 243.35 L421.25 242.35 421.9 241.25 Q422.7 242.0 423.05 243.15 423.5 244.55 422.95 245.9 L422.8 246.2 422.7 246.2 Q421.75 247.55 420.1 247.95 L417.6 247.75 418.55 246.8 418.6 246.7 M415.2 252.75 Q415.2 254.0 414.35 254.95 L413.85 255.4 Q412.55 256.55 410.55 256.55 409.2 256.55 407.7 255.7 L408.75 254.9 410.4 255.3 Q411.65 255.2 412.6 254.35 L413.1 253.85 Q413.6 253.25 413.6 252.5 L413.6 251.95 413.55 251.7 414.35 251.0 Q415.05 251.85 415.2 252.65 L415.2 252.75 M413.15 249.75 L412.3 250.6 411.9 250.5 410.85 250.35 409.45 250.7 408.6 251.3 Q407.65 252.1 407.55 253.15 L407.55 253.7 406.35 254.65 Q405.85 253.85 405.85 252.95 L405.85 252.9 405.9 252.15 Q406.15 251.1 407.1 250.25 408.45 249.15 410.4 249.1 411.8 249.1 412.85 249.65 L413.15 249.75 M369.25 221.05 Q368.8 221.45 368.55 222.2 368.2 223.3 368.7 224.45 369.05 225.5 369.95 225.95 L370.05 226.0 370.5 226.25 370.6 226.15 370.7 226.25 371.3 227.4 369.35 227.3 368.5 226.85 Q367.6 226.25 367.25 225.15 366.6 223.55 367.3 221.9 367.55 221.05 368.1 220.55 L368.75 219.85 Q369.15 219.55 369.6 219.4 370.0 219.15 370.45 219.0 L372.7 219.15 Q374.15 219.65 374.8 221.3 L375.05 222.5 375.05 222.9 374.75 224.55 374.35 225.15 373.25 226.5 372.85 226.8 372.3 225.5 372.45 225.7 372.85 225.35 373.25 224.4 373.4 223.85 Q373.5 223.0 373.2 222.15 372.75 220.95 371.85 220.55 L371.55 220.35 370.95 220.25 Q370.4 220.25 369.9 220.55 L369.25 221.05 M379.0 232.0 Q379.5 232.9 379.5 233.85 L379.3 235.15 Q378.9 236.3 378.05 237.15 377.9 237.2 377.85 237.3 L377.2 236.3 377.45 236.0 377.85 235.1 377.85 234.85 Q377.95 233.85 377.45 232.95 376.9 231.85 375.8 231.55 L375.15 231.35 374.9 231.35 374.35 230.1 375.55 230.0 376.5 230.1 376.95 230.25 377.4 230.4 377.45 230.45 Q378.4 230.9 379.0 232.0 M372.75 231.0 L373.25 232.15 373.2 232.25 Q372.75 232.7 372.7 233.35 372.4 234.45 373.0 235.5 373.65 236.55 374.65 236.95 L375.3 237.1 375.6 237.1 376.25 238.1 376.0 238.15 Q375.0 238.4 373.95 238.15 372.3 237.75 371.55 236.3 370.8 234.8 371.3 233.15 371.65 231.9 372.6 231.15 L372.75 231.0 M382.25 240.2 Q383.6 240.55 384.4 241.65 L384.75 242.1 Q385.4 243.35 385.1 244.85 384.8 245.95 384.05 246.7 L383.85 246.85 383.1 246.15 383.05 245.9 383.2 245.75 383.2 245.7 383.55 244.8 Q383.7 243.85 383.25 243.0 L383.05 242.7 382.85 242.55 Q382.35 241.85 381.55 241.6 L380.6 241.4 380.5 241.45 380.3 241.45 379.65 240.35 379.95 240.3 380.0 240.25 382.25 240.2 M378.15 241.35 L378.8 242.45 Q378.45 242.9 378.35 243.5 378.15 244.35 378.55 245.15 L378.6 245.3 378.6 245.35 378.75 245.5 378.75 245.55 378.8 245.6 Q379.35 246.4 380.35 246.7 L381.4 246.8 382.45 247.85 379.95 248.05 Q378.25 247.65 377.3 246.3 L377.25 246.25 377.1 246.0 Q376.5 244.65 376.95 243.25 377.3 242.15 378.15 241.35 M398.25 256.45 L398.6 256.25 399.1 256.15 400.2 256.15 400.3 256.1 Q401.65 256.15 402.8 256.75 L403.25 257.0 403.2 257.05 401.8 258.15 401.8 258.2 400.3 257.6 399.9 257.5 399.7 257.5 Q398.85 257.65 398.15 258.15 L396.7 257.05 396.75 257.0 397.55 256.65 398.25 256.45 M395.6 258.35 L397.1 259.25 397.05 259.65 397.0 259.8 396.9 260.35 Q397.2 261.0 398.0 261.45 398.6 261.95 399.45 262.1 L399.75 262.1 Q401.0 262.05 402.05 261.35 L403.05 260.2 403.25 260.05 403.3 259.7 403.3 259.65 403.35 259.0 404.35 258.3 404.4 258.2 Q404.85 258.95 404.85 259.95 L404.8 260.35 Q404.7 261.05 404.25 261.6 L403.5 262.25 402.8 262.8 Q401.6 263.4 400.2 263.45 398.25 263.5 396.75 262.5 395.8 261.9 395.55 261.05 L395.35 260.85 395.3 260.8 395.25 260.15 395.25 260.05 395.25 259.7 395.25 259.55 395.25 259.45 395.25 259.35 395.25 259.25 395.3 259.15 395.3 259.0 395.3 258.95 395.45 258.75 395.55 258.45 395.6 258.35 M390.55 250.8 L389.2 250.5 388.15 250.6 387.7 250.7 386.85 249.8 387.15 249.75 Q388.2 249.2 389.6 249.2 391.55 249.25 392.9 250.35 393.85 251.15 394.1 252.25 L394.15 252.95 394.15 253.0 Q394.15 253.95 393.65 254.75 L392.45 253.8 392.5 253.25 Q392.4 252.2 391.5 251.4 L390.55 250.8 M385.7 251.1 L386.45 251.85 386.35 252.05 386.35 252.65 Q386.35 253.35 386.85 254.0 L387.5 254.5 Q388.4 255.3 389.6 255.4 L391.3 255.05 392.4 255.85 Q390.8 256.7 389.4 256.7 387.5 256.65 386.15 255.5 L385.7 255.1 Q384.8 254.1 384.9 252.9 L384.9 252.75 Q384.9 251.95 385.7 251.1" fill="#000000" fill-rule="evenodd" stroke="none"/>
  </g>
</svg>
