<?xml version="1.0" encoding="UTF-8" standalone="no"?>
<svg xmlns:xlink="http://www.w3.org/1999/xlink" height="15.55px" width="140.8px" xmlns="http://www.w3.org/2000/svg">
  <g transform="matrix(1.0, 0.0, 0.0, 1.0, -329.4, -219.3)">
    <path d="M448.5 231.8 L447.95 231.85 442.15 232.95 417.35 234.8 Q422.2 226.0 428.0 219.3 L437.5 219.3 Q440.65 219.75 441.55 221.9 447.7 221.95 453.9 223.4 L459.2 221.85 Q468.0 225.35 470.2 233.85 L453.15 230.35 448.5 231.8 M382.55 234.85 L357.45 232.95 351.95 231.85 351.4 231.8 346.6 230.35 329.4 233.85 Q332.2 225.25 340.7 221.85 L346.0 223.4 Q352.15 221.95 358.3 221.9 359.2 219.75 362.4 219.3 L371.85 219.3 Q377.65 226.0 382.55 234.85" fill="#000000" fill-rule="evenodd" stroke="none"/>
  </g>
</svg>
