<?xml version="1.0" encoding="UTF-8" standalone="no"?>
<svg xmlns:xlink="http://www.w3.org/1999/xlink" height="34.5px" width="46.8px" xmlns="http://www.w3.org/2000/svg">
  <g transform="matrix(1.0, 0.0, 0.0, 1.0, -376.5, -217.15)">
    <path d="M419.75 223.1 L420.25 221.8 Q419.8 221.9 419.3 222.15 418.55 222.55 418.25 223.3 418.0 224.0 418.35 224.6 L418.45 224.8 418.8 225.1 418.85 225.15 419.45 225.3 419.55 225.3 419.8 225.35 Q421.85 225.55 421.85 230.6 423.65 225.85 422.0 222.65 L421.95 222.5 421.9 222.5 Q421.6 221.95 420.85 221.8 L420.25 221.8 420.4 221.5 420.45 221.25 421.9 217.65 M416.45 229.8 L415.3 230.0 Q414.55 230.3 414.15 231.0 413.8 231.65 414.0 232.35 L414.15 232.5 414.45 232.9 414.6 232.95 415.0 233.15 415.15 233.2 415.35 233.2 Q417.35 233.7 416.7 238.75 419.1 234.25 417.95 230.85 L417.9 230.75 417.85 230.7 Q417.65 230.1 416.9 229.85 L416.45 229.8 415.85 231.05 M416.45 229.8 L416.6 229.55 418.8 225.1 M410.45 238.6 L411.35 237.6 411.3 237.55 409.8 237.45 Q409.0 237.7 408.55 238.35 408.05 238.95 408.25 239.65 L408.3 239.8 408.55 240.25 408.65 240.25 409.15 240.55 409.25 240.65 409.45 240.7 Q411.35 241.45 410.1 246.35 413.05 242.15 412.3 238.65 L412.25 238.55 412.25 238.5 Q412.1 237.85 411.35 237.6 M411.3 237.55 L414.6 232.95 M408.65 240.25 Q406.6 242.1 404.45 243.0 L401.95 243.75 401.9 243.75 401.65 243.8 401.7 244.05 401.65 244.5 401.4 245.05 Q400.05 248.75 399.9 251.15 399.7 248.75 398.35 245.05 L398.15 244.5 398.1 244.05 398.15 243.8 397.9 243.75 397.85 243.75 395.3 243.0 Q393.2 242.1 391.1 240.25 L390.65 240.55 390.55 240.65 390.35 240.7 Q388.4 241.45 389.65 246.35 386.75 242.15 387.45 238.65 L387.5 238.55 387.5 238.5 Q387.7 237.85 388.4 237.6 L388.5 237.55 Q386.8 235.55 385.2 232.95 L384.75 233.15 384.65 233.2 384.4 233.2 Q382.4 233.7 383.05 238.75 380.65 234.25 381.85 230.85 L381.9 230.75 381.9 230.7 Q382.15 230.1 382.9 229.85 L383.35 229.8 383.2 229.55 381.0 225.1 380.95 225.15 380.3 225.3 380.2 225.3 380.0 225.35 Q377.95 225.55 377.95 230.6 376.15 225.85 377.8 222.65 L377.8 222.5 377.85 222.5 Q378.2 221.95 378.95 221.8 L379.55 221.8 379.4 221.5 379.3 221.25 377.85 217.65 M379.55 221.8 L380.45 222.15 Q381.2 222.55 381.5 223.3 381.75 224.0 381.45 224.6 L381.3 224.8 381.0 225.1 M383.95 231.05 L383.35 229.8 384.45 230.0 Q385.25 230.3 385.6 231.0 386.0 231.65 385.75 232.35 L385.65 232.5 385.3 232.9 385.2 232.95 M388.5 237.55 L389.95 237.45 Q390.8 237.7 391.25 238.35 391.7 238.95 391.55 239.65 L391.45 239.8 391.2 240.25 391.1 240.25 M389.35 238.6 L388.4 237.6 M398.15 243.8 L398.15 243.75 397.9 243.75 M398.15 243.75 Q398.2 243.15 398.65 242.65 399.2 242.15 399.9 242.1 400.6 242.15 401.1 242.65 L401.65 243.75 401.9 243.75 M401.65 243.8 L401.65 243.75 M380.0 223.1 L379.55 221.8" fill="none" stroke="#000000" stroke-linecap="round" stroke-linejoin="round" stroke-width="1.0"/>
  </g>
</svg>
