<?xml version="1.0" encoding="UTF-8" standalone="no"?>
<svg xmlns:xlink="http://www.w3.org/1999/xlink" height="18.25px" width="47.25px" xmlns="http://www.w3.org/2000/svg">
  <g transform="matrix(1.0, 0.0, 0.0, 1.0, -376.15, -211.7)">
    <path d="M409.5 218.85 Q408.35 220.05 408.35 221.8 408.35 223.55 409.5 224.75 410.7 226.0 412.35 226.0 414.0 226.0 415.2 224.75 416.35 223.55 416.35 221.8 416.35 220.05 415.2 218.85 414.0 217.65 412.35 217.65 410.7 217.65 409.5 218.85 M422.9 216.35 Q422.9 214.6 421.75 213.4 420.55 212.2 418.9 212.2 417.25 212.2 416.05 213.4 414.9 214.6 414.9 216.35 414.9 218.1 416.05 219.3 417.25 220.5 418.9 220.5 420.55 220.5 421.75 219.3 422.9 218.1 422.9 216.35 M408.4 225.5 Q408.45 223.7 407.25 222.4 406.0 221.1 404.1 221.1 402.25 221.1 401.0 222.4 399.8 223.7 399.85 225.5 399.95 227.2 401.2 228.35 402.45 229.45 404.1 229.45 405.8 229.45 407.0 228.35 408.3 227.2 408.4 225.5 M398.6 222.4 Q399.8 223.7 399.7 225.5 399.65 227.2 398.35 228.35 397.1 229.45 395.45 229.45 393.8 229.45 392.6 228.35 391.3 227.2 391.2 225.5 391.1 223.7 392.35 222.4 393.6 221.1 395.45 221.1 397.3 221.1 398.6 222.4 M391.25 221.8 Q391.25 223.55 390.05 224.75 388.9 226.0 387.25 226.0 385.6 226.0 384.4 224.75 383.25 223.55 383.25 221.8 383.25 220.05 384.4 218.85 385.6 217.65 387.25 217.65 388.9 217.65 390.05 218.85 391.25 220.05 391.25 221.8 M383.5 213.4 Q384.7 214.6 384.7 216.35 384.7 218.1 383.5 219.3 382.35 220.5 380.65 220.5 379.0 220.5 377.85 219.3 376.65 218.1 376.65 216.35 376.65 214.6 377.85 213.4 379.0 212.2 380.65 212.2 382.35 212.2 383.5 213.4" fill="none" stroke="#000000" stroke-linecap="round" stroke-linejoin="round" stroke-width="1.0"/>
  </g>
</svg>
