<?xml version="1.0" encoding="UTF-8" standalone="no"?>
<svg xmlns:xlink="http://www.w3.org/1999/xlink" height="83.65px" width="173.25px" xmlns="http://www.w3.org/2000/svg">
  <g transform="matrix(1.0, 0.0, 0.0, 1.0, -313.25, -191.65)">
    <path d="M381.35 216.0 L383.35 215.1 384.7 202.5 384.3 202.1 382.65 192.85 382.45 192.2 Q371.8 194.25 363.7 203.4 M381.35 216.0 Q383.45 219.65 383.85 224.15 384.1 229.3 382.6 233.85 M382.3 234.7 Q391.1 239.7 399.9 239.4 408.65 239.7 417.5 234.7 M417.15 233.85 Q415.7 229.3 415.9 224.15 416.3 219.65 418.4 216.05 L416.25 215.1 414.9 202.5 415.3 202.1 416.95 192.85 417.2 192.15 Q427.9 194.2 436.1 203.4 L438.2 205.85 Q425.8 208.3 419.85 216.2 M419.6 216.55 L450.2 229.75 470.2 233.85 Q479.4 244.45 479.45 263.05 L486.0 264.15 Q485.4 269.5 480.45 274.8 466.05 264.85 447.5 258.35 425.0 250.35 418.5 237.1 410.25 241.8 399.9 241.7 389.5 241.8 381.3 237.1 374.75 250.35 352.25 258.35 333.75 264.85 319.35 274.8 314.4 269.5 313.75 264.15 L320.15 263.05 Q320.2 244.45 329.4 233.85 L349.4 229.75 380.15 216.5 M379.9 216.2 Q374.0 208.3 361.6 205.85 L363.7 203.4 M479.05 262.95 L479.45 263.05 M320.7 262.95 L320.15 263.05" fill="none" stroke="#000000" stroke-linecap="round" stroke-linejoin="round" stroke-width="1.0"/>
    <path d="M363.7 203.4 Q376.65 207.75 381.3 215.9 L381.35 216.0 M382.6 233.85 L382.3 234.7 M417.5 234.7 L417.15 233.85 M419.85 216.2 L419.6 216.55 Q417.25 219.85 415.9 224.15 M380.15 216.5 L379.9 216.2 M436.1 203.4 Q423.15 207.75 418.45 215.9 L418.4 216.05 M417.5 234.7 L418.5 237.1 M418.2 231.15 Q418.2 233.7 420.1 235.5 421.9 237.35 424.45 237.35 427.05 237.35 428.9 235.5 430.7 233.7 430.7 231.15 430.7 228.55 428.9 226.7 427.05 224.9 424.45 224.9 421.9 224.9 420.1 226.7 418.2 228.55 418.2 231.15 M479.05 262.95 Q431.4 254.2 417.15 233.85 M381.55 231.15 Q381.55 233.7 379.7 235.5 377.9 237.35 375.3 237.35 372.75 237.35 370.85 235.5 369.1 233.7 369.1 231.15 369.1 228.55 370.85 226.7 372.75 224.9 375.3 224.9 377.9 224.9 379.7 226.7 381.55 228.55 381.55 231.15 M381.3 237.1 L382.3 234.7 M380.15 216.5 Q382.55 219.85 383.85 224.15 M382.6 233.85 Q368.4 254.2 320.7 262.95" fill="none" stroke="#000000" stroke-linecap="round" stroke-linejoin="round" stroke-opacity="0.5019608" stroke-width="1.0"/>
  </g>
</svg>
