<?xml version="1.0" encoding="UTF-8" standalone="no"?>
<svg xmlns:xlink="http://www.w3.org/1999/xlink" height="83.7px" width="163.8px" xmlns="http://www.w3.org/2000/svg">
  <g transform="matrix(1.0, 0.0, 0.0, 1.0, -308.8, -205.1)">
    <path d="M415.25 205.6 Q424.9 206.85 432.05 210.0 435.05 214.6 435.5 220.85 L444.8 222.25 447.0 219.4 Q451.55 217.85 456.25 219.9 457.4 221.65 457.9 223.65 L461.1 221.65 Q462.85 220.75 468.5 224.2 474.1 227.65 471.0 234.85 M461.55 232.1 Q453.0 235.7 445.65 240.95 444.65 242.8 442.9 244.35 439.7 247.3 436.0 247.6 L435.8 247.6 435.3 247.9 Q416.2 258.15 401.3 268.9 373.9 288.7 355.25 282.45 341.3 277.75 325.35 274.65 L324.2 274.4 323.15 274.25 319.6 273.6 M316.95 288.3 Q312.8 283.25 310.95 278.45 309.0 273.3 309.35 269.0 312.15 265.65 315.35 263.2 317.4 261.7 319.6 260.55 318.3 243.7 324.6 229.2 343.4 221.0 366.05 218.35 L366.15 218.1 Q367.1 215.2 368.2 212.75 374.6 207.75 384.3 206.1 M375.05 218.7 L375.4 218.95 382.2 223.45 383.1 223.95 383.55 224.2 Q388.7 227.05 393.0 228.1 400.65 229.9 407.4 227.8 411.25 226.6 415.7 223.8 L415.95 223.6 417.3 222.75 422.7 218.65 423.3 218.15 M324.2 274.4 L323.85 274.3 323.15 274.25" fill="none" stroke="#333333" stroke-linecap="round" stroke-linejoin="round" stroke-width="1.0"/>
    <path d="M471.0 234.85 L470.2 233.85 461.55 232.1 M319.6 273.6 L318.35 282.25 316.95 288.3 M384.3 206.1 L383.3 215.15 375.05 218.7 M423.3 218.15 L416.25 215.1 415.25 205.6" fill="none" stroke="#000000" stroke-linecap="round" stroke-linejoin="round" stroke-width="1.0"/>
    <path d="M457.9 223.65 L455.9 225.1 454.25 226.4 450.4 229.8 450.3 229.9 446.7 233.5 Q447.35 235.3 446.85 237.65 446.5 239.35 445.65 240.95 M455.9 225.1 L452.45 224.1 450.4 226.3 448.25 228.9 446.0 231.85 445.9 231.95 446.7 233.5 M445.9 231.95 L445.55 231.45 Q443.75 229.35 440.8 229.3 L439.75 229.3 Q436.05 229.6 432.85 232.5 429.65 235.45 428.9 239.2 428.6 240.75 428.75 242.05 428.95 243.85 430.05 245.25 L430.25 245.45 Q432.05 247.6 435.15 247.6 L435.8 247.6 M461.55 232.1 L466.35 230.2 467.0 229.9 469.7 229.0 M452.45 224.1 L454.85 221.75 M373.5 231.7 Q384.7 238.95 398.85 242.3 401.5 242.95 404.0 241.85 420.7 234.55 435.45 223.4 L435.6 223.25 435.6 222.55 435.5 220.85 M444.8 222.25 Q443.75 223.75 442.85 225.4 L442.3 226.35 440.8 229.3 M443.65 233.1 Q444.65 234.25 444.65 235.9 L444.45 237.3 Q443.85 239.85 441.65 241.85 439.45 243.85 436.9 244.15 434.4 244.45 433.05 242.8 432.05 241.7 432.05 240.05 L432.25 238.65 Q432.85 236.1 435.05 234.1 437.25 232.05 439.75 231.8 442.3 231.5 443.65 233.1 M423.3 218.15 L428.3 213.45 M366.05 218.35 L364.95 222.1 364.85 223.1 M375.05 218.7 L375.0 218.65 370.2 214.85 M360.05 237.75 Q376.85 258.05 398.85 249.45 412.55 244.15 428.75 242.05 M430.05 245.25 Q407.4 249.8 384.1 262.6 360.8 275.35 329.95 261.4 M319.6 260.55 L321.05 259.85 M319.6 273.6 L315.4 272.8" fill="none" stroke="#333333" stroke-linecap="round" stroke-linejoin="round" stroke-opacity="0.5019608" stroke-width="1.0"/>
  </g>
</svg>
