<?xml version="1.0" encoding="UTF-8" standalone="no"?>
<svg xmlns:xlink="http://www.w3.org/1999/xlink" height="42.7px" width="44.0px" xmlns="http://www.w3.org/2000/svg">
  <g transform="matrix(1.0, 0.0, 0.0, 1.0, -378.0, -143.1)">
    <path d="M381.35 185.3 L381.2 181.9 381.2 181.7 380.8 173.8 Q378.75 168.9 378.5 164.9 L381.4 158.25 381.4 162.3 Q385.65 155.35 392.15 150.45 L392.15 153.7 Q398.5 147.4 406.6 143.6 405.85 147.5 406.6 151.9 L411.8 149.3 Q410.85 152.5 411.8 155.65 414.2 154.95 414.9 153.05 417.7 157.7 418.6 162.3 L418.6 158.25 421.5 164.9 Q421.25 168.9 419.05 173.85 L418.6 181.7 418.6 181.9 418.5 185.3" fill="none" stroke="#000000" stroke-linecap="round" stroke-linejoin="round" stroke-width="1.0"/>
  </g>
</svg>
