<?xml version="1.0" encoding="UTF-8" standalone="no"?>
<svg xmlns:xlink="http://www.w3.org/1999/xlink" height="28.75px" width="37.4px" xmlns="http://www.w3.org/2000/svg">
  <g transform="matrix(1.0, 0.0, 0.0, 1.0, -381.2, -160.1)">
    <path d="M384.05 172.35 L384.0 172.4 383.95 172.7 384.05 172.35 M388.9 161.5 L389.0 161.5 390.1 161.95 Q394.4 160.05 399.9 160.1 410.7 160.05 416.9 167.3 L417.85 168.55 418.3 172.25 418.6 181.45 418.6 181.7 418.6 181.9 418.5 185.3 416.7 179.4 Q416.85 182.5 416.5 185.75 415.4 179.85 412.15 174.9 413.45 180.2 412.8 187.1 411.6 173.35 405.2 169.45 L400.1 172.55 399.65 172.2 Q394.55 168.1 389.4 167.85 385.4 175.75 382.75 185.05 L381.7 188.85 Q381.55 185.3 381.95 181.85 L381.3 184.2 381.2 181.9 381.2 181.7 381.2 181.45 381.5 172.4 381.95 168.55 382.9 167.3 Q385.15 164.65 388.1 163.0 L388.9 161.5" fill="#000000" fill-rule="evenodd" stroke="none"/>
  </g>
</svg>
