<?xml version="1.0" encoding="UTF-8" standalone="no"?>
<svg xmlns:xlink="http://www.w3.org/1999/xlink" height="317.5px" width="243.2px" xmlns="http://www.w3.org/2000/svg">
  <g transform="matrix(1.0, 0.0, 0.0, 1.0, -278.25, -100.15)">
    <path d="M488.25 143.6 L486.55 143.25 Q463.55 143.15 445.45 148.75 473.45 145.05 500.4 157.15 479.15 152.6 461.6 152.85 481.75 154.7 498.75 167.15 470.9 158.65 447.8 161.15 482.15 159.5 502.65 186.65 480.75 171.1 457.05 168.05 486.95 174.5 505.15 202.25 491.7 191.0 477.6 184.25 496.8 194.95 509.65 213.5 503.0 208.25 496.15 203.8 511.7 215.2 520.95 230.45 509.1 219.85 496.7 211.65 511.65 224.25 520.7 241.75 501.5 221.95 478.4 209.45 500.35 223.4 514.4 243.05 497.85 229.25 480.85 219.35 501.85 232.4 511.85 257.75 501.65 246.5 490.4 237.2 504.75 250.65 511.1 271.35 499.75 256.45 487.15 244.25 500.55 262.1 504.5 283.7 494.6 268.35 483.25 255.2 494.9 272.95 495.85 299.3 L495.9 300.7 M403.55 137.25 Q400.35 122.0 399.85 105.45 399.35 122.0 396.15 137.25 M403.55 137.25 Q407.1 125.75 414.0 116.2 407.7 134.8 404.7 152.95 410.0 125.25 433.1 113.45 418.45 127.7 413.15 140.9 427.4 124.05 448.05 118.65 425.45 127.9 413.0 146.0 423.6 131.2 444.2 126.15 435.45 130.4 428.15 135.95 439.35 129.65 454.7 128.35 439.25 132.75 426.8 141.7 436.95 135.35 452.25 133.35 441.05 136.7 431.95 142.35 445.4 136.55 458.85 136.4 446.25 139.95 436.1 145.7 459.9 137.2 486.55 143.25 M399.85 105.45 L399.85 100.65 M311.45 143.6 L313.15 143.25 Q339.8 137.2 363.6 145.7 353.45 139.95 340.85 136.4 354.3 136.55 367.75 142.35 358.65 136.7 347.45 133.35 362.75 135.35 372.9 141.7 360.45 132.75 345.0 128.35 360.35 129.65 371.55 135.95 364.25 130.4 355.5 126.15 376.1 131.2 386.7 146.0 374.25 127.9 351.65 118.65 372.3 124.05 386.55 140.9 381.25 127.7 366.6 113.45 389.7 125.25 395.0 152.95 392.0 134.8 385.7 116.2 392.6 125.75 396.15 137.25 M338.1 152.85 Q317.95 154.7 300.95 167.15 328.8 158.65 351.9 161.15 317.55 159.5 297.05 186.65 318.95 171.1 342.65 168.05 M443.1 268.05 Q457.7 298.55 465.6 334.15 464.35 305.25 455.9 273.85 466.2 295.15 472.65 321.1 474.3 289.3 463.2 262.95 M356.6 268.05 Q343.1 308.0 338.7 355.95 344.25 330.25 351.55 306.45 348.0 325.85 348.9 345.25 351.8 330.95 355.4 317.25 M359.95 314.45 Q358.95 329.2 364.7 346.3 366.45 331.9 368.9 317.9 M359.95 314.45 Q357.15 326.85 354.85 339.55 L355.4 317.25 M338.55 357.75 L338.7 355.95 M450.9 346.6 L450.8 345.25 Q447.9 330.95 444.3 317.25 L444.85 339.55 Q442.55 326.85 439.75 314.45 440.75 329.2 435.0 346.3 433.25 331.9 430.8 317.9 432.2 342.2 424.15 365.15 424.2 352.25 423.5 339.5 423.6 361.05 414.9 381.4 418.35 344.25 415.65 312.15 414.35 359.3 405.95 407.85 410.3 351.45 405.95 298.75 405.85 358.0 399.85 417.15 393.85 358.0 393.75 298.75 389.4 351.45 393.75 407.85 385.35 359.3 384.05 312.15 381.35 344.25 384.8 381.4 376.1 361.05 376.2 339.5 375.5 352.25 375.55 365.15 367.5 342.2 368.9 317.9 M348.9 345.25 L348.8 346.6 M461.15 357.75 L461.0 355.95 Q455.45 330.25 448.15 306.45 451.7 325.85 450.8 345.25 M356.6 268.05 Q342.0 298.55 334.1 334.15 335.35 305.25 343.8 273.85 333.5 295.15 327.05 321.1 325.4 289.3 336.5 262.95 323.1 283.35 315.25 308.0 316.7 277.1 327.3 257.75 313.7 276.2 303.85 299.3 L303.8 300.7 M495.85 299.3 Q486.0 276.2 472.4 257.75 483.0 277.1 484.45 308.0 476.6 283.35 463.2 262.95 M443.1 268.05 Q456.6 308.0 461.0 355.95 M303.85 299.3 Q304.8 272.95 316.45 255.2 305.1 268.35 295.2 283.7 299.15 262.1 312.55 244.25 299.95 256.45 288.6 271.35 294.95 250.65 309.3 237.2 298.05 246.5 287.85 257.75 297.85 232.4 318.85 219.35 301.85 229.25 285.3 243.05 299.35 223.4 321.3 209.45 298.2 221.95 279.0 241.75 288.05 224.25 303.0 211.65 290.6 219.85 278.75 230.45 288.0 215.2 303.55 203.8 296.7 208.25 290.05 213.5 302.9 194.95 322.1 184.25 308.0 191.0 294.55 202.25 312.75 174.5 342.65 168.05 M338.1 152.85 Q320.55 152.6 299.3 157.15 326.25 145.05 354.25 148.75 336.15 143.15 313.15 143.25" fill="none" stroke="#000000" stroke-linecap="round" stroke-linejoin="round" stroke-width="1.0"/>
    <path d="M396.15 137.25 Q399.45 147.95 399.85 160.4 400.25 147.95 403.55 137.25 M351.9 161.15 Q370.5 163.05 386.0 172.25 L386.65 172.4 M426.8 141.7 Q413.05 151.45 402.9 166.9 403.55 159.95 404.7 152.95 408.6 146.3 413.15 140.9 M395.0 152.95 Q396.15 159.95 396.8 166.9 386.65 151.45 372.9 141.7 M354.25 148.75 Q374.75 155.15 389.05 168.8 379.35 154.6 363.6 145.7 M389.05 168.8 Q369.35 153.2 338.1 152.85 M342.65 168.05 Q363.6 165.2 386.0 172.25 M371.55 135.95 Q387.8 148.25 396.8 166.9 393.05 155.25 386.7 146.0 M367.75 142.35 Q383.05 151.7 392.65 167.45 M395.0 152.95 Q391.1 146.3 386.55 140.9 M436.1 145.7 Q420.35 154.6 410.65 168.8 424.95 155.15 445.45 148.75 M457.05 168.05 Q436.1 165.2 413.7 172.25 L413.05 172.4 M431.95 142.35 Q416.65 151.7 407.05 167.45 M477.6 184.25 Q447.45 169.7 414.0 175.7 M461.6 152.85 Q430.35 153.2 410.65 168.8 M447.8 161.15 Q429.2 163.05 413.7 172.25 M413.0 146.0 Q406.65 155.25 402.9 166.9 411.9 148.25 428.15 135.95 M413.25 195.05 Q446.55 199.6 478.65 218.0 L480.85 219.35 M455.9 273.85 Q438.25 237.45 409.15 214.55 429.2 238.95 443.1 268.05 M463.2 262.95 Q442.85 231.85 409.75 210.7 M472.4 257.75 Q447.75 224.25 410.7 205.9 M483.25 255.2 Q452.55 219.65 411.5 200.55 M327.3 257.75 Q351.95 224.25 389.0 205.9 M336.5 262.95 Q356.85 231.85 389.95 210.7 M351.55 306.45 Q367.05 256.25 390.55 214.55 370.5 238.95 356.6 268.05 M355.4 317.25 Q368.95 264.65 391.5 220.3 371.3 264.8 359.95 314.45 M368.9 317.9 Q377.65 268.05 395.35 223.75 M343.8 273.85 Q361.45 237.45 390.55 214.55 M384.05 312.15 Q386.7 281.25 395.05 255.05 M423.5 339.5 Q420.3 281.25 400.85 226.35 M415.65 312.15 Q413.0 281.25 404.65 255.05 M430.8 317.9 Q422.05 268.05 404.35 223.75 M444.3 317.25 Q430.75 264.65 408.2 220.3 428.4 264.8 439.75 314.45 M376.2 339.5 Q379.4 281.25 398.85 226.35 M448.15 306.45 Q432.65 256.25 409.15 214.55 M496.15 203.8 Q456.9 177.95 413.85 178.65 M496.7 211.65 Q458.25 185.95 414.0 182.15 M478.4 209.45 Q449.4 193.7 414.25 189.45 M490.4 237.2 Q456.5 209.25 413.0 198.55 454.35 212.3 487.15 244.25 M386.45 195.05 Q353.15 199.6 321.05 218.0 L318.85 219.35 M303.0 211.65 Q341.45 185.95 385.7 182.15 M303.55 203.8 Q342.8 177.95 385.85 178.65 M322.1 184.25 Q352.25 169.7 385.7 175.7 M321.3 209.45 Q350.3 193.7 385.45 189.45 M316.45 255.2 Q347.15 219.65 388.2 200.55 M309.3 237.2 Q343.2 209.25 386.7 198.55 345.35 212.3 312.55 244.25" fill="none" stroke="#000000" stroke-linecap="round" stroke-linejoin="round" stroke-opacity="0.5019608" stroke-width="1.0"/>
  </g>
</svg>
