<?xml version="1.0" encoding="UTF-8" standalone="no"?>
<svg xmlns:xlink="http://www.w3.org/1999/xlink" height="20.8px" width="37.4px" xmlns="http://www.w3.org/2000/svg">
  <g transform="matrix(1.0, 0.0, 0.0, 1.0, 18.85, 135.5)">
    <path d="M10.4 -129.55 L11.6 -130.95 Q14.35 -129.25 15.3 -123.35 16.2 -125.9 16.1 -128.45 L17.8 -131.45 Q18.5 -127.35 18.55 -118.55 L18.55 -118.3 18.55 -118.1 18.45 -114.7 16.95 -114.7 Q16.35 -120.6 14.2 -125.2 L14.3 -125.3 14.25 -125.35 Q12.95 -127.3 10.4 -129.55 M-14.5 -125.2 Q-16.65 -120.6 -17.25 -114.7 L-18.7 -114.7 -18.85 -118.1 -18.85 -118.3 -18.85 -118.55 Q-18.8 -127.35 -18.1 -131.45 L-14.5 -125.2 M-0.15 -130.4 L-3.25 -131.2 -2.7 -133.3 Q4.5 -132.85 7.95 -126.4 4.15 -129.05 -0.15 -130.4 M-15.3 -132.75 Q-7.8 -133.85 -4.55 -127.7 -10.4 -132.35 -15.75 -130.45 L-15.3 -132.75" fill="#000000" fill-opacity="0.2" fill-rule="evenodd" stroke="none"/>
    <path d="M14.7 -130.35 L14.35 -128.25 10.5 -131.0 7.85 -128.65 -3.65 -132.75 -5.15 -130.4 -12.65 -132.75 Q3.0 -139.3 14.7 -130.35" fill="#ffffff" fill-opacity="0.2509804" fill-rule="evenodd" stroke="none"/>
  </g>
</svg>
