<?xml version="1.0" encoding="UTF-8" standalone="no"?>
<svg xmlns:xlink="http://www.w3.org/1999/xlink" height="42.8px" width="69.95px" xmlns="http://www.w3.org/2000/svg">
  <g transform="matrix(1.0, 0.0, 0.0, 1.0, 35.15, 157.5)">
    <path d="M27.1 -157.4 Q28.85 -155.3 30.3 -152.8 38.45 -138.5 31.8 -126.2 29.45 -121.05 18.45 -114.7 L18.55 -116.35 18.55 -118.1 18.55 -118.2 18.55 -118.3 18.55 -118.55 Q18.5 -127.35 17.8 -131.45 26.45 -143.75 27.1 -157.4 M-27.45 -157.5 Q-26.75 -143.75 -18.1 -131.45 -18.8 -127.35 -18.85 -118.55 L-18.85 -118.3 -18.85 -118.1 -18.7 -114.7 Q-29.8 -121.2 -32.15 -126.35 -38.8 -138.6 -30.65 -152.9 L-28.45 -156.2 -27.45 -157.5" fill="#000000" fill-opacity="0.2" fill-rule="evenodd" stroke="none"/>
  </g>
</svg>
