<?xml version="1.0" encoding="UTF-8" standalone="no"?>
<svg xmlns:xlink="http://www.w3.org/1999/xlink" height="51.95px" width="42.05px" xmlns="http://www.w3.org/2000/svg">
  <g transform="matrix(1.0, 0.0, 0.0, 1.0, 21.15, 134.25)">
    <path d="M19.05 -126.1 L20.6 -118.55 Q22.25 -95.0 14.85 -82.45 19.2 -94.7 18.5 -106.1 20.0 -112.1 17.95 -121.8 L19.05 -126.1 M-19.15 -127.55 L-18.0 -122.2 Q-19.2 -114.3 -19.0 -112.3 L-18.8 -109.85 -18.8 -109.3 Q-19.85 -88.0 -13.65 -82.3 -21.65 -88.2 -21.1 -113.45 -20.7 -120.35 -19.15 -127.55" fill="#000000" fill-opacity="0.2" fill-rule="evenodd" stroke="none"/>
    <path d="M13.35 -133.1 L15.45 -125.95 Q0.35 -128.8 -15.3 -125.95 L-13.95 -133.1 Q-1.15 -135.35 13.35 -133.1" fill="#ffffff" fill-opacity="0.2509804" fill-rule="evenodd" stroke="none"/>
  </g>
</svg>
