<?xml version="1.0" encoding="UTF-8" standalone="no"?>
<svg xmlns:xlink="http://www.w3.org/1999/xlink" height="44.85px" width="45.55px" xmlns="http://www.w3.org/2000/svg">
  <g transform="matrix(1.0, 0.0, 0.0, 1.0, 22.8, 128.15)">
    <path d="M-18.95 -113.15 L-17.65 -114.0 Q-18.1 -95.5 -13.4 -87.7 -12.05 -85.35 -10.0 -84.0 -11.0 -83.1 -13.45 -84.0 -15.2 -85.1 -16.2 -87.5 -15.9 -85.65 -14.85 -83.9 -17.05 -85.9 -18.35 -88.75 -18.35 -86.55 -16.6 -84.0 -18.0 -82.85 -21.0 -85.25 -24.0 -87.65 -21.95 -117.2 L-21.6 -120.6 -20.3 -116.65 -20.55 -112.8 -18.95 -113.15 M20.65 -112.6 Q20.6 -115.3 20.15 -118.1 L21.6 -122.05 22.0 -118.9 Q24.65 -91.6 18.05 -84.0 16.45 -83.0 16.55 -83.5 18.25 -86.0 18.2 -88.5 17.45 -85.6 15.15 -83.65 16.6 -86.4 16.65 -89.0 15.6 -85.95 13.55 -83.5 12.1 -83.1 11.3 -83.5 L13.4 -88.85 Q17.75 -104.45 15.55 -115.9 L20.65 -112.6" fill="#000000" fill-opacity="0.2" fill-rule="evenodd" stroke="none"/>
    <path d="M-6.25 -119.7 L-6.05 -126.7 -9.65 -122.5 -10.25 -125.2 -14.05 -118.7 -17.55 -118.05 -15.75 -127.45 0.05 -128.1 -2.35 -120.0 -6.25 -119.7 M9.35 -120.0 L8.0 -123.9 6.4 -123.9 6.7 -127.7 15.9 -126.4 18.15 -119.1 9.35 -120.0" fill="#ffffff" fill-opacity="0.2509804" fill-rule="evenodd" stroke="none"/>
  </g>
</svg>
