<?xml version="1.0" encoding="UTF-8" standalone="no"?>
<svg xmlns:xlink="http://www.w3.org/1999/xlink" height="40.15px" width="55.55px" xmlns="http://www.w3.org/2000/svg">
  <g transform="matrix(1.0, 0.0, 0.0, 1.0, -374.3, -162.65)">
    <path d="M398.3 162.9 Q403.8 162.3 407.65 163.05 411.55 163.8 413.35 165.95 L416.85 169.85 417.35 170.2 419.0 171.5 Q420.95 172.95 422.0 175.95 422.95 178.9 429.85 186.0 426.7 184.9 424.75 182.85 L421.5 179.5 Q422.5 182.6 423.9 185.35 426.25 190.0 425.45 195.7 425.45 190.0 420.6 187.3 421.1 190.55 420.9 192.65 420.4 197.8 416.6 202.8 417.65 201.0 417.85 197.75 418.05 194.5 417.35 189.25 416.9 194.7 414.25 197.65 414.75 194.1 414.9 190.25 415.15 184.2 412.9 179.55 411.1 175.8 407.45 173.3 L408.75 176.1 Q410.35 180.0 410.55 185.05 L410.45 185.15 Q410.2 183.15 409.5 181.45 408.05 178.0 405.5 174.85 402.95 171.65 400.05 168.6 L399.8 168.35 Q396.5 165.35 393.25 172.4 389.5 166.7 387.15 171.6 384.7 176.45 386.2 180.8 387.65 185.15 390.5 190.55 L385.6 184.0 Q385.55 189.7 389.15 192.85 386.8 192.75 385.1 191.55 385.75 193.8 389.85 200.8 383.5 195.9 381.5 190.8 380.55 188.4 380.15 186.55 377.65 192.05 374.3 193.4 376.9 189.0 378.0 184.05 379.15 178.9 379.7 173.25 L380.0 169.85 Q380.25 167.45 382.3 165.45 L383.0 164.8 Q385.75 162.45 392.8 167.25 394.0 162.05 398.3 162.9" fill="#000000" fill-rule="evenodd" stroke="none"/>
  </g>
</svg>
