<?xml version="1.0" encoding="UTF-8" standalone="no"?>
<svg xmlns:xlink="http://www.w3.org/1999/xlink" height="27.7px" width="41.8px" xmlns="http://www.w3.org/2000/svg">
  <g transform="matrix(1.0, 0.0, 0.0, 1.0, -379.0, -156.0)">
    <path d="M399.9 156.0 Q406.25 156.2 412.3 160.0 417.05 163.45 419.6 169.95 421.6 174.3 420.3 178.65 L418.6 183.65 418.6 181.9 418.6 181.7 418.6 181.45 Q418.55 172.65 417.85 168.55 L416.9 167.3 Q410.7 160.05 399.9 160.1 389.1 160.05 382.9 167.3 L381.95 168.55 Q381.25 172.65 381.2 181.45 L381.2 181.7 381.2 181.9 381.25 183.7 379.5 178.65 Q378.2 174.3 380.2 169.95 382.75 163.45 387.5 160.0 393.55 156.2 399.9 156.0" fill="#000000" fill-rule="evenodd" stroke="none"/>
  </g>
</svg>
