<?xml version="1.0" encoding="UTF-8" standalone="no"?>
<svg xmlns:xlink="http://www.w3.org/1999/xlink" height="49.25px" width="53.4px" xmlns="http://www.w3.org/2000/svg">
  <g transform="matrix(1.0, 0.0, 0.0, 1.0, -374.0, -134.6)">
    <path d="M374.1 154.95 L378.3 163.1 Q378.6 153.5 382.3 144.6 L385.0 152.7 Q385.3 147.3 389.0 141.3 388.6 148.15 391.5 153.9 393.6 144.45 401.65 134.6 401.85 143.2 404.65 151.45 408.25 145.6 410.15 136.9 411.95 148.0 411.35 156.75 416.4 149.35 418.85 140.85 420.2 149.4 418.85 158.65 422.45 153.9 424.55 148.75 424.3 158.1 420.5 167.45 424.9 164.4 427.4 160.45 425.25 172.65 418.6 183.85 L418.6 181.9 418.6 181.7 418.6 181.45 Q418.55 172.65 417.85 168.55 L416.9 167.3 415.3 165.6 Q409.35 160.05 399.9 160.1 389.85 160.05 383.8 166.35 L382.9 167.3 381.95 168.55 Q381.25 172.65 381.2 181.45 L381.2 181.7 381.2 181.9 381.15 182.4 Q378.15 179.85 376.35 176.2 373.45 166.6 374.1 154.95" fill="#000000" fill-rule="evenodd" stroke="none"/>
  </g>
</svg>
