<?xml version="1.0" encoding="UTF-8" standalone="no"?>
<svg xmlns:xlink="http://www.w3.org/1999/xlink" height="278.4px" width="94.7px" xmlns="http://www.w3.org/2000/svg">
  <g transform="matrix(1.0, 0.0, 0.0, 1.0, -352.55, -223.85)">
    <path d="M411.6 228.4 Q407.2 230.45 402.35 231.1 L402.35 311.1 405.3 322.5 Q418.55 377.2 425.9 477.3 438.1 471.95 444.65 465.35 L447.25 484.5 Q438.3 495.5 422.95 502.25 420.05 408.75 402.15 322.75 L399.9 312.3 397.7 322.7 Q379.75 408.7 376.85 502.25 361.5 495.5 352.55 484.5 L355.15 465.35 Q361.7 471.95 373.9 477.3 381.25 377.15 394.5 322.45 L397.45 311.1 397.45 231.1 Q392.6 230.45 388.2 228.4 L387.1 227.35 387.6 224.4 388.9 223.9 388.9 223.85 Q393.95 226.4 399.9 226.5 405.85 226.4 410.9 223.85 L410.95 223.85 412.2 224.4 412.7 227.35 411.6 228.4" fill="#000000" fill-rule="evenodd" stroke="none"/>
  </g>
</svg>
