<?xml version="1.0" encoding="UTF-8" standalone="no"?>
<svg xmlns:xlink="http://www.w3.org/1999/xlink" height="20.45px" width="137.85px" xmlns="http://www.w3.org/2000/svg">
  <g transform="matrix(1.0, 0.0, 0.0, 1.0, -331.0, -342.65)">
    <path d="M331.0 348.4 Q340.55 348.4 350.15 342.65 349.8 349.55 350.2 356.1 L347.3 358.55 Q345.25 359.9 342.9 360.9 339.65 362.2 335.7 362.8 L332.55 363.1 Q331.5 355.95 331.0 348.4 M449.6 356.1 Q450.0 349.55 449.65 342.65 459.25 348.4 468.85 348.4 468.3 355.95 467.25 363.1 L464.1 362.8 Q460.15 362.2 456.95 360.9 454.5 359.9 452.5 358.55 L449.6 356.1" fill="#000000" fill-rule="evenodd" stroke="none"/>
  </g>
</svg>
