<?xml version="1.0" encoding="UTF-8" standalone="no"?>
<svg xmlns:xlink="http://www.w3.org/1999/xlink" height="44.7px" width="70.75px" xmlns="http://www.w3.org/2000/svg">
  <g transform="matrix(1.0, 0.0, 0.0, 1.0, -364.5, -229.45)">
    <path d="M411.85 229.7 L415.4 231.15 414.15 232.15 Q411.15 234.35 407.7 235.45 404.05 236.55 399.85 236.4 395.7 236.55 392.1 235.45 387.8 234.15 384.3 231.15 384.75 228.85 387.85 229.7 391.4 231.1 395.0 231.75 L398.55 232.15 399.85 232.2 404.75 231.75 Q408.3 231.15 411.85 229.7 M435.25 239.15 Q431.5 245.2 430.05 252.5 L429.2 251.4 428.25 250.45 Q429.6 243.8 432.9 238.2 434.55 238.1 435.25 239.15 M432.5 271.25 Q433.5 273.25 431.35 274.15 L429.35 270.7 431.05 268.4 432.5 271.25 M366.85 238.2 Q370.1 243.8 371.45 250.4 L370.5 251.4 369.65 252.5 Q368.2 245.2 364.5 239.15 365.0 237.85 366.85 238.2 M368.75 268.45 L370.35 270.7 368.4 274.15 Q366.7 273.25 367.2 271.25 L368.7 268.4 368.75 268.45" fill="#000000" fill-rule="evenodd" stroke="none"/>
  </g>
</svg>
