<?xml version="1.0" encoding="UTF-8" standalone="no"?>
<svg xmlns:xlink="http://www.w3.org/1999/xlink" height="54.4px" width="114.85px" xmlns="http://www.w3.org/2000/svg">
  <g transform="matrix(1.0, 0.0, 0.0, 1.0, -342.6, -236.25)">
    <path d="M450.5 239.7 L451.55 241.9 453.9 247.85 455.6 253.9 455.75 254.65 456.9 261.05 457.45 265.95 445.65 268.8 Q443.9 262.95 442.55 257.15 440.8 249.55 439.7 242.05 L439.0 236.35 Q444.75 235.65 450.5 239.7 M433.45 269.2 Q435.95 268.3 438.4 265.8 439.0 268.85 438.65 272.25 438.55 274.2 438.05 276.3 L421.95 281.25 Q413.85 269.9 400.45 270.65 386.3 270.05 378.25 281.05 L378.05 281.35 361.9 276.45 Q361.45 274.35 361.3 272.35 361.0 268.9 361.65 265.75 L362.4 265.75 Q364.9 268.3 367.45 269.2 370.3 270.15 373.2 269.1 377.0 268.05 380.8 267.3 388.25 262.95 400.45 262.0 412.0 262.85 419.2 267.15 423.4 267.9 427.7 269.1 430.6 270.15 433.45 269.2 M412.35 288.25 L413.35 290.65 386.7 290.65 387.7 288.25 Q389.25 284.35 391.05 281.9 395.9 279.0 400.45 279.0 404.85 279.0 408.95 281.75 410.8 284.25 412.35 288.25 M348.45 242.05 L349.5 239.85 Q355.25 235.8 361.0 236.5 L360.3 242.2 Q359.2 249.7 357.45 257.3 356.1 263.1 354.35 268.95 L342.6 266.1 343.1 261.2 Q343.55 257.9 344.25 254.8 L344.45 254.05 Q345.1 250.95 346.1 248.0 347.15 244.9 348.45 242.05" fill="#000000" fill-rule="evenodd" stroke="none"/>
  </g>
</svg>
