<?xml version="1.0" encoding="UTF-8" standalone="no"?>
<svg xmlns:xlink="http://www.w3.org/1999/xlink" height="82.3px" width="108.1px" xmlns="http://www.w3.org/2000/svg">
  <g transform="matrix(1.0, 0.0, 0.0, 1.0, -345.8, -230.5)">
    <path d="M445.1 243.15 L453.4 244.55 Q447.1 264.95 429.35 278.0 426.8 282.15 423.3 285.1 418.5 297.0 419.6 308.5 416.65 309.7 413.7 310.5 406.75 312.4 399.85 312.3 392.9 312.4 386.0 310.5 383.05 309.7 380.1 308.5 381.2 297.0 376.4 285.1 372.9 282.15 370.4 278.0 352.6 264.95 346.3 244.55 L354.6 243.15 376.25 234.4 Q378.45 230.25 384.15 231.2 391.45 249.9 399.85 268.4 408.25 249.9 415.55 231.2 421.3 230.25 423.5 234.4 L445.1 243.15" fill="none" stroke="#000000" stroke-linecap="round" stroke-linejoin="round" stroke-width="1.0"/>
    <path d="M376.25 234.4 Q384.8 256.6 395.5 277.75 L399.85 286.15 Q406.4 298.5 413.7 310.5 M399.85 268.4 L404.2 277.75 Q414.9 256.6 423.5 234.4 M419.6 308.5 Q411.5 293.2 404.2 277.75" fill="none" stroke="#000000" stroke-linecap="round" stroke-linejoin="round" stroke-opacity="0.5019608" stroke-width="1.0"/>
  </g>
</svg>
