<?xml version="1.0" encoding="UTF-8" standalone="no"?>
<svg xmlns:xlink="http://www.w3.org/1999/xlink" height="102.2px" width="91.5px" xmlns="http://www.w3.org/2000/svg">
  <g transform="matrix(1.0, 0.0, 0.0, 1.0, -354.15, -219.2)">
    <path d="M421.85 226.75 Q420.4 228.65 417.25 228.85 L415.3 236.15 416.3 241.8 426.05 240.4 M414.75 230.85 L415.8 227.0 Q421.45 226.4 421.15 223.2 L421.15 223.05 M432.35 257.0 Q431.45 253.95 429.25 251.4 M416.3 241.8 L417.4 248.75 Q419.25 260.0 415.5 276.1 L415.5 276.15 417.55 276.25 Q423.95 276.25 428.4 271.75 430.0 270.2 431.0 268.45 L431.05 268.35 M367.5 257.0 Q368.35 253.95 370.55 251.4 M377.95 226.75 Q379.4 228.65 382.55 228.85 L384.5 236.15 383.5 241.8 382.4 248.75 Q380.55 260.0 384.3 276.1 L384.3 276.15 Q387.95 293.0 386.7 311.05 L385.35 316.1 387.75 316.4 M385.05 230.85 L384.0 227.0 Q378.35 226.4 378.65 223.2 L378.65 223.05 M383.5 241.8 L373.75 240.4 M368.75 268.35 L368.8 268.45 Q369.8 270.2 371.4 271.75 375.85 276.25 382.25 276.25 L384.3 276.15 M379.8 296.8 L384.9 298.3 384.9 303.45 380.3 301.8 M376.7 312.55 Q380.1 315.15 385.35 316.1 M420.05 296.8 L414.9 298.3 414.9 303.45 419.5 301.8 M423.15 312.55 Q419.7 315.15 414.45 316.1 L412.05 316.4 M415.5 276.15 Q411.85 292.95 413.1 311.05 L414.45 316.1" fill="none" stroke="#000000" stroke-linecap="round" stroke-linejoin="round" stroke-opacity="0.5019608" stroke-width="1.0"/>
    <path d="M421.85 226.75 L423.2 234.3 445.15 243.15 432.35 257.0 Q432.8 258.7 432.85 260.55 L432.85 261.2 432.85 261.45 432.7 263.75 432.6 264.1 Q432.2 266.35 431.05 268.35 L432.55 271.25 Q429.4 279.95 423.35 285.1 420.95 291.0 420.05 296.8 L419.5 301.8 Q419.35 305.15 419.65 308.5 L423.15 312.55 425.8 316.35 Q419.6 319.55 413.05 320.9 L412.05 316.4 410.8 311.7 Q409.05 292.25 412.85 275.6 L412.85 275.55 Q415.7 258.25 413.95 242.1 L413.2 236.6 414.75 230.85 411.9 229.7 411.65 228.4 Q410.85 224.1 410.5 219.7 420.45 220.25 421.1 222.75 L421.15 223.05 421.85 226.75 M377.95 226.75 L376.65 234.3 354.65 243.15 367.5 257.0 Q367.0 258.7 366.95 260.55 L366.95 261.2 366.95 261.45 367.1 263.75 367.2 264.1 Q367.6 266.35 368.75 268.35 L367.25 271.25 Q370.4 279.95 376.45 285.1 378.85 291.0 379.8 296.8 L380.3 301.8 380.15 308.5 376.7 312.55 374.0 316.35 Q380.2 319.55 386.8 320.9 L387.75 316.4 389.0 311.7 Q390.75 292.25 386.95 275.6 L386.95 275.55 Q384.1 258.25 385.85 242.1 L386.6 236.6 385.05 230.85 M378.65 223.05 L377.95 226.75 M378.65 223.05 L378.7 222.75 Q379.35 220.25 389.35 219.7 388.95 224.1 388.15 228.4 L387.9 229.7 385.05 230.85" fill="none" stroke="#000000" stroke-linecap="round" stroke-linejoin="round" stroke-width="1.0"/>
  </g>
</svg>
