<?xml version="1.0" encoding="UTF-8" standalone="no"?>
<svg xmlns:xlink="http://www.w3.org/1999/xlink" height="53.8px" width="64.3px" xmlns="http://www.w3.org/2000/svg">
  <g transform="matrix(1.0, 0.0, 0.0, 1.0, -367.5, -231.8)">
    <path d="M412.75 257.6 Q422.7 248.25 431.3 237.6 L418.25 232.3 407.75 243.0 403.2 247.2 M412.75 257.6 L412.6 260.2 407.3 264.4 399.95 270.2 398.3 270.05 Q387.95 278.15 376.4 285.1 371.1 280.6 368.0 273.35 L371.0 271.45 Q380.05 265.65 388.25 259.5 L387.95 259.15 387.9 259.1 388.1 256.55 395.95 250.15 Q398.15 248.4 400.3 246.6 L402.75 246.75 403.2 247.2" fill="none" stroke="#000000" stroke-linecap="round" stroke-linejoin="round" stroke-width="1.0"/>
    <path d="M403.2 247.2 L412.75 257.6 M407.3 264.4 L404.95 261.85 401.5 261.6 397.5 256.85 398.35 253.45 395.95 250.15 M388.25 259.5 L397.25 269.9 398.3 270.05" fill="none" stroke="#000000" stroke-linecap="round" stroke-linejoin="round" stroke-opacity="0.5019608" stroke-width="1.0"/>
  </g>
</svg>
