<?xml version="1.0" encoding="UTF-8" standalone="no"?>
<svg xmlns:xlink="http://www.w3.org/1999/xlink" height="84.25px" width="65.8px" xmlns="http://www.w3.org/2000/svg">
  <g transform="matrix(1.0, 0.0, 0.0, 1.0, -367.0, -227.5)">
    <path d="M418.7 283.05 Q420.0 279.25 421.8 275.7 L423.5 273.05 M427.0 235.85 L427.05 238.4 Q426.85 238.95 426.25 239.35 L426.0 239.5 424.05 239.95 Q422.8 239.95 421.9 239.35 421.0 238.8 421.0 238.0 L421.0 237.7 423.1 234.25 M426.15 230.75 L426.15 237.95 424.85 238.55 Q423.65 238.75 422.35 237.95 M426.55 254.1 L426.6 253.75 425.9 246.65 420.55 253.45 420.5 253.7 Q420.5 254.35 421.05 254.8 L421.4 255.05 Q422.3 255.65 423.55 255.65 424.85 255.65 425.75 255.05 L426.55 254.1 M417.05 269.2 Q417.05 270.0 417.95 270.6 L418.75 270.95 420.1 271.15 Q421.4 271.15 422.3 270.6 L423.1 269.6 423.1 269.45 422.2 263.15 417.1 268.85 417.05 269.2 M421.7 265.3 L422.05 269.25 Q420.4 270.7 418.75 269.45 L418.5 269.25 M425.2 249.2 L425.5 253.65 421.8 253.75 M372.8 235.85 L372.75 238.4 Q372.95 238.95 373.55 239.35 L373.8 239.5 375.75 239.95 Q377.0 239.95 377.9 239.35 378.8 238.8 378.8 238.0 L378.8 237.7 376.7 234.25 M373.65 230.75 L373.65 237.95 374.95 238.55 Q376.15 238.75 377.45 237.95 M376.25 255.65 Q374.95 255.65 374.05 255.05 373.4 254.65 373.25 254.1 L373.2 253.75 373.9 246.65 379.25 253.45 379.3 253.7 Q379.3 254.35 378.75 254.8 L378.4 255.05 Q377.5 255.65 376.25 255.65 M374.6 249.2 L374.3 253.65 378.0 253.75 M376.7 269.45 L377.6 263.15 382.7 268.85 382.75 269.2 Q382.75 270.0 381.85 270.6 L381.05 270.95 379.7 271.15 Q378.4 271.15 377.5 270.6 376.85 270.15 376.7 269.6 L376.7 269.45 M378.1 265.3 L377.75 269.25 Q379.4 270.7 381.05 269.45 L381.3 269.25 M381.1 283.05 Q379.8 279.25 378.0 275.7 L376.3 273.05" fill="none" stroke="#000000" stroke-linecap="round" stroke-linejoin="round" stroke-opacity="0.49803922" stroke-width="1.0"/>
    <path d="M423.1 234.25 L420.2 233.1 Q420.0 257.75 413.35 274.35 L412.85 275.55 Q411.95 279.6 411.35 283.8 409.5 296.75 410.75 311.25 L415.55 310.0 415.6 309.95 Q414.65 295.1 418.7 283.05 L426.5 281.95 427.5 280.7 Q430.4 276.9 432.3 271.9 L423.5 273.05 Q430.55 260.45 428.0 236.25 L427.0 235.85 M423.1 234.25 L426.95 228.0 427.0 235.85 M379.6 233.1 Q379.8 257.75 386.45 274.35 L386.95 275.55 388.45 283.8 Q390.3 296.75 389.05 311.25 L384.25 310.0 384.2 309.95 Q385.15 295.1 381.1 283.05 L373.3 281.95 372.3 280.7 Q369.4 276.9 367.5 271.9 L376.3 273.05 Q369.25 260.45 371.8 236.25 L372.8 235.85 372.85 228.0 376.7 234.25 379.6 233.1" fill="none" stroke="#000000" stroke-linecap="round" stroke-linejoin="round" stroke-width="1.0"/>
  </g>
</svg>
