<?xml version="1.0" encoding="UTF-8" standalone="no"?>
<svg xmlns:xlink="http://www.w3.org/1999/xlink" height="60.9px" width="66.05px" xmlns="http://www.w3.org/2000/svg">
  <g transform="matrix(1.0, 0.0, 0.0, 1.0, -366.85, -224.2)">
    <path d="M413.35 224.2 L414.85 230.9 432.9 238.2 Q429.6 243.8 428.25 250.45 L429.2 251.4 430.05 252.5 Q432.65 256.05 432.8 260.55 L432.8 261.2 432.8 261.45 432.65 263.75 432.55 264.1 Q432.15 266.4 431.05 268.4 L429.35 270.7 431.35 274.15 Q428.3 280.85 423.3 285.1 413.65 277.7 399.85 277.15 386.05 277.7 376.4 285.1 371.4 280.85 368.4 274.15 L370.35 270.7 368.75 268.45 368.7 268.35 Q367.55 266.35 367.15 264.1 L367.05 263.75 Q366.9 262.6 366.9 261.45 L366.9 261.2 366.9 260.55 Q367.05 256.05 369.65 252.5 L370.5 251.4 371.45 250.4 Q370.1 243.8 366.85 238.2 L384.8 230.95 386.3 224.2 394.2 229.7 Q394.15 235.3 399.85 238.0 405.55 235.3 405.5 229.7 L413.35 224.2" fill="#000000" fill-rule="evenodd" stroke="none"/>
  </g>
</svg>
