<?xml version="1.0" encoding="UTF-8" standalone="no"?>
<svg xmlns:xlink="http://www.w3.org/1999/xlink" height="93.0px" width="188.85px" xmlns="http://www.w3.org/2000/svg">
  <g transform="matrix(1.0, 0.0, 0.0, 1.0, -306.25, -363.1)">
    <path d="M343.4 385.0 L343.4 385.7 Q343.35 387.65 344.6 386.55 345.9 385.65 346.7 385.55 M350.1 370.05 Q350.0 368.85 348.95 369.9 L348.75 370.1 Q347.65 371.25 345.85 371.9 342.9 372.6 339.45 371.2 329.55 367.65 320.9 366.2 L311.65 364.45 308.9 363.75 Q306.8 363.0 306.75 365.7 306.75 368.4 307.05 370.6 307.85 376.15 310.85 378.75 312.05 379.2 311.85 378.35 L311.8 377.45 Q311.85 375.7 313.15 374.85 314.2 374.2 316.0 374.1 324.9 373.15 333.4 376.75 341.8 380.4 342.8 382.5 343.35 383.9 343.4 385.0 M351.85 372.8 L351.75 372.8 Q350.7 372.1 350.1 370.05 M351.85 372.8 L354.5 372.75 Q355.85 377.35 370.35 382.85 L379.25 386.7 390.8 391.5 402.35 396.0 Q401.3 400.45 403.5 406.55 404.25 408.3 405.8 410.4 408.55 414.0 413.8 418.65 L415.2 419.85 Q417.75 422.05 420.65 424.1 L424.65 426.85 Q435.75 434.0 450.1 439.1 L458.65 441.9 464.1 443.35 Q476.2 446.1 480.05 438.75 L485.95 444.2 Q493.6 451.25 494.6 455.0 479.7 456.85 461.7 452.85 L459.85 452.45 455.65 451.3 Q449.35 449.5 443.7 447.3 439.7 445.85 436.05 444.2 425.55 439.5 417.25 433.55 L413.55 430.9 409.9 428.0 404.8 423.65 Q399.65 418.9 395.95 414.0 393.05 410.25 391.0 406.4 395.6 404.55 392.75 401.9 391.45 400.75 388.25 398.95 L382.45 395.9 382.35 395.85 380.85 395.1 Q375.7 392.55 369.7 390.15 363.9 387.85 357.3 385.65 351.6 383.7 347.85 386.6 347.65 385.45 346.7 385.55" fill="none" stroke="#000000" stroke-linecap="round" stroke-linejoin="round" stroke-width="1.0"/>
    <path d="M348.75 370.1 L347.95 371.15 Q346.25 373.7 345.1 377.1 344.35 379.35 343.85 381.85 343.45 383.8 343.4 385.0 M344.6 386.55 Q346.95 382.15 348.3 378.45 349.4 375.35 349.85 372.75 L350.1 370.05 M311.65 364.45 Q310.7 364.75 311.15 368.45 L311.45 370.35 Q312.25 374.1 313.15 374.85 M346.7 385.55 Q349.55 382.9 351.95 382.7 354.75 381.95 363.6 385.2 L398.15 399.6 Q398.05 400.7 398.2 401.8 398.5 406.4 401.95 411.75 403.35 414.0 405.3 416.3 407.45 418.8 410.55 421.55 L415.85 425.8 419.75 428.65 424.8 432.05 Q434.35 437.6 443.45 441.5 L451.1 444.6 Q457.4 446.9 463.5 448.45 L467.0 449.25 470.6 449.6 Q477.5 449.85 481.45 445.9 493.65 454.8 494.55 455.0 L494.6 455.0 Q493.0 450.9 484.55 444.55 L481.05 442.05 Q478.05 447.95 468.7 447.25 L467.15 447.1 Q463.4 446.5 454.4 443.4 L448.3 441.25 446.25 440.5 Q434.15 435.8 422.1 427.8 L418.1 425.0 416.25 423.65 412.75 420.75 Q407.4 415.95 403.9 411.05 L403.0 409.8 Q402.1 408.55 401.55 407.2 400.15 403.7 400.25 397.8 L365.95 383.45 Q353.05 378.1 351.85 372.8 M350.85 374.4 Q352.25 378.65 356.75 381.1 350.2 380.7 348.6 381.95" fill="none" stroke="#000000" stroke-linecap="round" stroke-linejoin="round" stroke-opacity="0.5019608" stroke-width="1.0"/>
  </g>
</svg>
