<?xml version="1.0" encoding="UTF-8" standalone="no"?>
<svg xmlns:xlink="http://www.w3.org/1999/xlink" height="97.95px" width="251.7px" xmlns="http://www.w3.org/2000/svg">
  <g transform="matrix(1.0, 0.0, 0.0, 1.0, -300.5, -357.4)">
    <path d="M349.1 370.2 Q353.45 363.95 363.45 362.15 L365.6 361.6 366.3 361.25 Q366.95 361.85 366.75 362.8 369.5 362.55 370.6 363.4 370.65 362.4 371.15 361.95 371.9 363.05 372.45 363.3 373.7 364.05 374.4 362.3 376.7 363.25 375.15 365.55 374.65 366.35 375.05 367.2 L375.6 368.65 375.3 369.45 Q376.15 372.0 373.85 372.65 L373.25 373.3 Q372.05 372.85 371.7 373.45 371.2 374.1 370.2 373.75 369.05 376.2 367.25 374.9 368.05 373.45 367.1 373.05 366.25 372.95 365.9 372.6 366.65 372.5 366.75 371.7 363.45 367.45 359.25 367.15 358.6 367.1 358.45 367.45 358.35 367.75 358.85 368.0 364.05 369.8 364.6 374.65 L364.8 374.7 Q365.5 374.95 365.85 375.65 366.15 376.3 365.85 377.05 365.6 377.7 364.95 378.05 L363.55 378.1 Q362.8 377.85 362.5 377.15 362.2 376.45 362.45 375.75 L363.05 374.95 362.85 374.45 362.6 373.95 362.6 373.9 362.45 373.7 Q360.9 371.4 357.8 370.65 354.15 370.0 351.6 373.5 L351.5 373.75 351.45 373.95 351.1 374.8 541.9 447.3 Q550.8 451.05 551.7 454.1 549.0 455.95 539.8 453.15 L347.0 386.0 346.65 386.95 346.65 387.1 346.55 387.35 Q346.3 391.65 349.5 393.5 352.35 394.95 355.0 394.2 L355.2 394.1 355.3 394.05 355.85 393.8 356.3 393.55 Q356.15 393.05 356.35 392.55 356.6 391.85 357.3 391.5 357.95 391.2 358.65 391.5 359.4 391.75 359.7 392.4 360.0 393.1 359.75 393.8 359.5 394.55 358.8 394.85 L357.4 394.9 357.25 394.85 Q353.7 398.15 348.6 396.15 L347.9 396.45 Q347.85 396.8 348.3 397.15 351.75 399.6 357.0 398.35 357.4 397.8 356.9 397.3 357.4 397.15 358.15 397.65 359.1 397.9 359.5 396.3 361.7 396.5 360.95 399.05 361.95 399.4 361.85 400.3 361.8 400.95 363.0 401.4 L363.1 402.2 Q364.4 404.25 362.15 405.7 L361.8 406.45 360.5 407.2 Q359.6 407.65 359.55 408.5 359.25 411.3 356.85 410.6 357.4 408.8 355.95 408.5 L354.15 408.7 Q354.0 408.1 354.65 407.25 353.25 407.2 351.3 405.25 350.85 406.1 349.9 406.2 L349.65 405.45 348.3 403.65 Q341.85 395.8 342.5 388.35 L342.55 387.7 343.1 385.45 343.5 383.9 341.4 383.15 339.75 382.55 339.65 381.85 Q337.65 381.45 331.1 379.05 324.1 376.65 319.15 373.35 L317.7 372.75 315.9 372.0 315.35 371.75 Q312.75 374.85 309.35 374.5 307.45 374.1 306.5 372.5 303.15 373.2 303.3 368.8 303.5 366.45 301.0 364.75 301.0 364.05 301.35 363.05 L301.5 362.7 302.15 361.5 Q305.2 361.8 306.55 359.9 309.25 356.4 311.4 359.1 313.15 358.5 314.85 359.45 317.7 361.35 317.7 365.4 L318.25 365.55 320.15 366.15 321.6 366.65 Q327.55 367.3 334.4 369.9 341.0 372.25 342.8 373.25 L343.3 372.8 344.95 373.4 347.05 374.15 347.75 372.7 348.75 370.6 349.1 370.2 M309.95 361.0 Q307.4 361.45 307.0 362.05 L314.0 363.85 Q315.15 361.95 313.05 361.1 L309.95 361.0 M306.6 370.15 Q309.0 370.65 309.1 372.05 311.2 372.8 311.55 370.55 L305.05 367.45 Q305.0 368.1 306.6 370.15" fill="none" stroke="#000000" stroke-linecap="round" stroke-linejoin="round" stroke-width="1.0"/>
    <path d="M349.1 370.2 Q349.6 369.75 350.5 369.65 L351.35 369.65 351.7 369.5 Q351.9 368.85 351.45 368.35 L352.9 368.55 353.05 368.3 Q353.2 368.0 353.0 367.9 353.5 368.1 353.65 368.25 L354.05 368.05 Q354.3 367.75 354.75 367.95 354.55 367.4 353.95 366.95 L354.0 366.85 355.5 367.2 357.9 367.0 356.85 366.25 Q359.3 366.25 360.85 365.65 L362.3 365.5 362.3 365.45 361.25 364.6 Q364.05 365.0 365.05 364.0 L364.5 363.8 364.05 363.45 Q364.35 362.75 365.2 363.3 L365.5 362.9 Q365.85 362.1 365.6 361.6 M362.45 373.7 L363.1 373.35 363.15 373.25 362.7 373.05 362.95 372.7 363.05 372.4 362.65 372.3 361.5 371.65 361.65 371.4 361.7 370.9 360.45 370.8 360.15 370.65 Q360.35 370.1 360.1 369.95 359.65 370.6 359.05 370.4 L359.65 369.85 359.25 369.85 Q358.85 369.7 358.7 369.0 L358.65 369.0 358.55 369.45 Q358.4 369.7 358.2 369.6 L357.95 369.45 357.75 369.45 357.4 369.85 Q357.75 369.3 357.05 369.1 L357.05 369.25 356.75 369.55 356.2 369.6 356.3 369.45 356.15 368.7 355.75 368.1 355.6 368.1 Q355.5 368.75 354.75 369.1 L354.0 369.9 354.0 369.85 353.6 369.45 352.65 369.45 352.7 370.25 352.25 371.15 352.25 371.25 Q352.0 370.9 351.65 370.85 L351.15 370.65 351.25 372.2 Q351.2 373.35 351.5 373.75 M339.65 381.85 Q339.65 380.35 340.7 377.35 341.8 374.4 342.8 373.25 M344.95 373.4 Q343.75 374.15 342.35 377.95 L342.35 378.0 Q340.95 381.75 341.4 383.15 M349.65 405.45 Q350.1 405.25 350.4 404.45 L350.45 403.9 Q349.45 403.7 349.65 403.1 L350.2 403.0 350.75 403.2 Q350.65 401.85 348.25 400.35 L349.65 400.4 Q348.9 399.95 348.6 399.2 347.8 397.8 345.9 396.35 L347.2 396.35 345.5 394.65 344.15 393.95 344.15 393.9 345.4 393.65 Q344.95 393.45 344.9 393.1 L344.7 392.65 344.1 392.55 344.3 392.3 344.4 391.95 343.1 391.15 Q343.8 391.05 344.1 390.45 L343.9 390.1 343.25 389.6 Q342.6 388.9 342.5 388.35 M343.1 385.45 Q343.25 386.05 344.2 386.35 345.6 386.9 346.15 385.45 346.3 385.05 345.9 384.5 346.4 384.65 346.45 385.2 L346.75 384.75 346.9 383.25 Q347.5 383.85 348.3 382.55 349.45 381.95 349.45 381.65 346.05 381.15 343.6 383.65 L343.5 383.9 M364.6 374.65 L363.4 374.75 363.05 374.95 M351.45 373.95 L351.05 374.75 351.1 374.8 M347.05 374.15 L346.95 374.4 Q347.2 377.9 350.15 379.75 350.35 379.45 349.9 378.25 350.1 376.7 349.2 376.75 L350.1 375.65 350.1 375.05 349.25 375.3 350.1 374.65 Q350.6 373.2 349.2 372.65 L347.75 372.7 M346.65 386.95 L346.95 386.0 Q347.9 383.1 350.1 381.95 L351.1 381.15 351.0 381.15 Q350.7 381.85 349.55 381.65 L349.45 381.65 M351.05 374.75 Q349.9 377.6 350.9 379.85 351.3 380.95 351.1 381.15 L551.7 454.1 M346.95 374.4 Q346.05 376.4 345.1 378.95 L351.0 381.15 Q351.25 380.3 350.25 379.8 L350.15 379.75 M347.0 386.0 L346.95 386.0 M355.0 394.2 Q355.3 394.25 355.3 394.75 L355.25 394.9 354.75 394.8 354.75 395.25 354.6 395.55 354.25 395.35 352.95 395.15 352.9 395.35 352.65 395.8 Q352.4 395.4 351.6 395.1 L351.3 395.0 350.85 395.5 Q350.9 394.7 350.3 394.45 L350.4 395.35 350.1 395.1 Q349.65 394.95 349.15 395.35 L349.1 395.3 349.25 394.95 349.1 394.55 348.7 394.45 348.65 393.9 Q348.6 394.55 347.85 394.2 L347.9 394.2 348.0 394.1 347.95 393.65 347.6 393.2 347.55 393.4 346.95 393.95 346.3 394.1 346.15 394.05 Q346.5 393.55 346.15 392.7 L346.05 391.65 345.5 391.75 344.7 391.15 345.3 390.5 345.6 389.4 344.9 389.45 344.4 389.25 345.5 388.05 346.65 387.1 M357.25 394.85 Q356.65 394.55 356.4 393.95 L356.3 393.55 M345.1 378.95 L343.6 383.65 M369.4 369.8 Q369.65 370.85 370.7 371.15 371.8 371.4 372.35 370.85 L372.35 370.8 372.45 370.75 372.45 370.7 372.65 370.45 372.7 370.25 372.75 370.15 372.75 370.1 372.85 369.9 Q373.1 368.7 372.3 368.0 371.5 367.4 370.4 367.65 370.35 366.3 368.35 365.7 L363.7 365.35 Q364.5 366.8 366.3 368.65 368.0 370.4 369.4 369.8 M372.35 370.85 L372.45 370.75 M373.8 372.05 L372.8 371.15 Q372.55 370.7 372.65 370.45 M372.7 370.25 L373.45 370.7 373.85 370.9 374.75 371.1 M374.65 370.25 L372.75 370.15 M375.3 369.45 Q373.35 368.95 372.85 369.9 M372.35 370.85 Q372.2 371.25 372.6 371.9 372.9 372.4 373.85 372.65 M305.7 364.25 L305.95 364.7 304.75 365.4 306.1 365.95 Q306.5 365.45 307.35 365.2 L307.1 364.75 306.9 363.8 305.5 363.45 305.7 364.25 M304.75 365.4 L304.0 365.05 303.05 364.65 302.35 364.35 303.25 363.7 303.05 363.25 302.95 362.7 303.7 362.9 304.65 363.2 305.5 363.45 M304.0 365.05 Q304.35 364.6 305.0 364.35 L304.8 363.9 Q304.65 363.55 304.65 363.2 M303.05 364.65 Q303.4 364.25 304.0 364.0 L303.8 363.55 303.7 362.9 M306.9 363.8 L308.45 364.3 310.3 364.85 312.3 365.4 Q312.3 366.15 312.8 366.9 L313.15 367.3 Q311.85 367.6 311.3 368.25 L309.35 367.4 307.6 366.7 306.1 365.95 M309.35 367.4 Q309.95 366.8 310.95 366.55 L310.7 366.1 Q310.35 365.45 310.3 364.85 M313.8 367.25 L313.9 367.6 Q312.95 368.15 312.55 368.9 L315.4 370.0 Q315.7 369.15 316.4 368.55 L316.4 368.25 Q316.35 367.45 316.6 366.7 L313.7 365.75 Q313.6 366.45 313.8 367.25 M308.45 364.3 L308.7 365.4 308.95 365.8 Q308.1 366.1 307.6 366.7 M318.25 365.55 L317.8 366.3 316.75 368.4 316.65 368.6 Q316.15 370.0 316.05 371.15 315.9 371.6 315.9 372.0 M320.15 366.15 Q319.4 367.2 318.6 369.05 L318.55 369.3 Q317.8 371.4 317.7 372.75 M319.15 373.35 Q319.15 372.05 319.95 369.85 L320.05 369.6 Q320.85 367.65 321.6 366.65 M316.05 371.15 L301.0 364.75 M317.8 366.3 L302.15 361.5 M354.7 400.5 Q352.15 400.75 350.6 401.35 351.65 402.6 354.4 404.05 L357.2 403.95 Q357.9 404.8 358.9 404.85 360.0 404.85 360.5 403.75 L360.6 403.5 360.65 403.45 360.65 403.35 360.75 403.2 360.75 402.9 360.75 402.8 360.75 402.7 Q360.7 401.9 359.65 401.4 358.7 400.95 357.75 401.6 357.15 400.2 354.7 400.5 M362.65 402.75 Q361.8 402.5 361.3 402.75 360.85 402.9 360.75 403.2 M362.7 404.1 Q362.15 403.7 361.9 403.65 L361.45 403.5 360.65 403.35 M362.15 404.65 Q360.6 404.1 360.65 403.45 M360.5 403.75 Q360.3 404.75 362.15 405.7 M363.1 402.2 L361.6 402.05 Q360.9 402.3 360.75 402.7 M347.9 396.45 L347.9 396.4 Q348.05 396.05 348.6 396.15" fill="none" stroke="#000000" stroke-linecap="round" stroke-linejoin="round" stroke-opacity="0.5019608" stroke-width="1.0"/>
  </g>
</svg>
