<?xml version="1.0" encoding="UTF-8" standalone="no"?>
<svg xmlns:xlink="http://www.w3.org/1999/xlink" height="117.2px" width="323.5px" xmlns="http://www.w3.org/2000/svg">
  <g transform="matrix(1.0, 0.0, 0.0, 1.0, -278.1, -349.9)">
    <path d="M357.6 376.6 L360.3 377.25 360.5 376.55 362.7 376.55 364.85 376.8 370.3 359.2 Q373.05 357.8 375.75 356.35 L378.65 361.8 374.45 375.15 478.35 407.55 489.45 410.9 Q529.2 422.35 560.4 423.6 583.3 424.6 601.6 420.1 579.05 449.95 525.65 462.8 L505.55 467.1 Q492.15 458.15 477.05 450.55 462.05 442.95 445.5 436.6 415.85 425.55 380.85 418.4 381.2 409.3 376.8 403.9 373.45 399.8 367.35 397.85 L363.2 411.2 357.75 414.15 354.95 408.6 360.45 391.1 358.55 390.0 356.75 388.75 356.95 388.05 354.3 387.1 357.6 376.6 M278.65 357.75 Q280.05 353.25 284.15 351.15 288.25 349.05 292.65 350.45 297.05 351.75 299.25 355.85 L299.95 357.6 300.2 358.65 303.2 359.8 304.15 360.15 301.0 370.3 300.0 369.95 297.0 369.2 296.1 369.95 294.5 370.95 Q290.4 373.1 286.05 371.7 281.65 370.35 279.4 366.25 277.25 362.15 278.65 357.75 M290.9 356.1 Q288.85 355.45 286.95 356.4 284.95 357.5 284.35 359.55 283.7 361.55 284.8 363.55 285.75 365.3 287.75 366.0 289.85 366.65 291.75 365.7 293.65 364.55 294.3 362.65 294.9 360.55 293.95 358.6 292.95 356.75 290.9 356.1" fill="#ffffff" fill-rule="evenodd" stroke="none"/>
  </g>
</svg>
