<?xml version="1.0" encoding="UTF-8" standalone="no"?>
<svg xmlns:xlink="http://www.w3.org/1999/xlink" height="75.25px" width="83.05px" xmlns="http://www.w3.org/2000/svg">
  <g transform="matrix(1.0, 0.0, 0.0, 1.0, -299.2, -349.5)">
    <path d="M348.5 371.1 Q353.7 369.2 352.25 363.95 L356.65 370.5 Q354.6 371.7 353.05 373.25 L352.95 373.45 348.5 371.1 352.05 374.4 Q350.55 376.5 349.45 379.0 L341.75 377.35 348.75 381.15 Q347.95 383.8 347.7 386.2 L342.9 386.65 347.8 387.7 347.75 387.8 Q347.9 390.15 348.7 392.25 L341.15 394.55 349.25 393.45 Q351.05 397.0 354.6 399.95 L342.45 404.95 356.15 401.0 354.9 424.75 Q354.55 421.75 353.85 419.35 351.15 407.85 342.45 404.95 345.6 396.45 341.15 394.55 345.65 391.3 342.9 386.65 L343.15 386.1 Q344.15 384.65 344.2 383.1 L344.1 382.95 344.2 382.55 344.05 382.1 344.0 381.65 Q343.55 379.6 341.75 377.35 344.6 376.9 346.15 375.6 L346.5 375.3 346.95 374.95 347.1 374.7 347.2 374.75 Q348.25 373.4 348.45 371.7 L348.5 371.1 M357.8 369.95 L352.25 363.95 Q356.85 365.25 360.0 356.8 L366.05 368.45 Q361.55 368.4 357.8 369.95 M340.1 376.75 L339.9 380.8 310.1 369.95 Q309.85 367.95 310.5 366.0 311.25 363.85 312.75 362.75 L342.5 373.6 340.1 376.75 M382.25 349.5 L367.95 368.6 360.0 356.8 Q368.5 360.2 377.95 353.15 L382.25 349.5 M366.1 388.8 Q365.05 388.5 364.65 387.55 364.2 386.6 364.55 385.65 364.9 384.75 365.85 384.35 L367.7 384.3 Q368.7 384.65 369.15 385.55 369.5 386.4 369.2 387.35 368.8 388.3 368.0 388.75 L366.1 388.8 M304.95 367.8 Q303.15 367.95 300.5 366.55 299.9 366.15 299.65 365.45 298.85 363.75 299.5 362.0 300.1 360.25 301.8 359.5 L303.2 359.1 Q306.05 359.9 307.35 361.05 307.55 362.95 306.05 363.2 L300.7 362.45 Q302.7 364.2 305.35 365.35 306.25 366.55 304.95 367.8" fill="#ffffff" fill-rule="evenodd" stroke="none"/>
  </g>
</svg>
