<?xml version="1.0" encoding="UTF-8" standalone="no"?>
<svg xmlns:xlink="http://www.w3.org/1999/xlink" height="60.65px" width="93.8px" xmlns="http://www.w3.org/2000/svg">
  <g transform="matrix(1.0, 0.0, 0.0, 1.0, -308.75, -358.25)">
    <path d="M350.65 373.3 L351.6 376.2 Q352.65 379.9 352.75 383.7 L360.35 385.5 362.5 384.95 Q367.8 373.6 379.85 368.55 L368.5 366.4 Q369.5 364.2 372.6 362.7 362.2 360.75 353.9 363.8 347.85 366.0 350.65 373.3 M347.4 364.7 Q347.95 362.65 350.1 361.85 367.05 355.3 386.55 360.7 380.25 360.5 375.65 363.6 389.15 364.3 402.55 367.65 390.45 369.2 381.25 374.3 374.4 378.15 369.1 384.0 365.75 388.7 364.2 392.75 362.15 397.95 363.15 402.25 364.35 408.0 370.9 412.1 361.6 413.95 353.4 412.3 L360.25 418.9 Q350.05 414.35 341.2 408.3 336.35 405.0 331.65 400.4 340.95 402.0 345.25 398.0 339.0 397.2 334.05 394.2 L347.6 394.6 Q349.6 389.25 349.45 384.75 333.0 374.1 318.0 370.8 L310.95 369.55 310.5 369.5 Q307.95 369.75 309.15 364.8 309.95 360.9 311.4 358.3 L311.75 358.6 Q316.1 361.35 320.65 363.4 329.35 367.2 338.55 368.2 L346.2 369.25 Q346.45 366.8 347.4 364.7 M352.2 386.7 Q351.4 394.05 347.3 400.2 353.4 400.1 358.95 396.8 L361.05 388.6 352.2 386.7 M360.45 405.75 Q359.9 402.7 359.9 399.75 352.75 404.65 341.95 404.1 L341.45 404.1 Q350.3 408.5 360.45 405.75" fill="#ffffff" fill-rule="evenodd" stroke="none"/>
  </g>
</svg>
