<?xml version="1.0" encoding="UTF-8" standalone="no"?>
<svg xmlns:xlink="http://www.w3.org/1999/xlink" height="23.1px" width="41.1px" xmlns="http://www.w3.org/2000/svg">
  <g transform="matrix(1.0, 0.0, 0.0, 1.0, -306.8, -359.2)">
    <path d="M343.95 382.3 Q342.05 382.3 340.2 380.95 337.75 376.3 331.8 375.85 326.25 375.1 321.35 372.2 315.7 368.95 311.4 370.65 309.45 370.05 307.85 367.6 306.45 364.75 306.9 362.2 307.8 358.7 312.9 359.25 L347.45 371.85 Q348.0 372.05 347.85 372.5 L344.35 382.2 343.95 382.3 M338.75 373.25 Q338.5 372.75 338.05 372.6 L337.05 372.65 Q336.6 372.85 336.45 373.35 L336.4 373.6 336.5 374.3 337.2 374.95 338.15 374.85 338.65 374.45 338.8 374.2 Q338.95 373.7 338.75 373.25 M325.6 368.5 Q325.1 368.65 324.9 369.15 324.8 369.6 325.0 370.1 L325.7 370.8 326.65 370.7 327.25 370.05 327.25 370.0 327.2 369.05 326.55 368.45 325.6 368.5 M313.05 365.75 Q313.25 366.25 313.75 366.4 L314.7 366.35 315.3 365.65 315.4 365.45 315.3 364.75 314.6 364.05 313.65 364.1 Q313.25 364.25 313.1 364.55 L312.95 364.8 Q312.8 365.25 313.05 365.75" fill="#ffffff" fill-rule="evenodd" stroke="none"/>
  </g>
</svg>
