<?xml version="1.0" encoding="UTF-8" standalone="no"?>
<svg xmlns:xlink="http://www.w3.org/1999/xlink" height="27.8px" width="37.5px" xmlns="http://www.w3.org/2000/svg">
  <g transform="matrix(1.0, 0.0, 0.0, 1.0, -381.15, -213.5)">
    <path d="M417.9 213.5 L418.4 213.55 418.65 213.8 418.65 219.95 418.5 220.4 418.1 220.5 409.7 220.5 409.7 234.35 418.1 234.35 418.5 234.45 418.65 234.75 418.65 240.65 418.55 241.15 418.1 241.3 381.95 241.3 381.35 241.15 381.15 240.75 381.15 235.0 Q381.15 234.6 381.3 234.45 381.45 234.3 381.65 234.3 L390.05 234.3 390.05 220.45 381.85 220.45 381.4 220.35 381.15 220.1 381.15 214.2 381.35 213.65 Q381.5 213.5 381.75 213.5 L417.9 213.5" fill="#000000" fill-rule="evenodd" stroke="none"/>
  </g>
</svg>
