<?xml version="1.0" encoding="UTF-8" standalone="no"?>
<svg xmlns:xlink="http://www.w3.org/1999/xlink" height="35.3px" width="35.8px" xmlns="http://www.w3.org/2000/svg">
  <g transform="matrix(1.0, 0.0, 0.0, 1.0, -382.3, -208.0)">
    <path d="M417.6 208.5 L417.6 208.75 417.6 213.9 409.15 213.9 Q408.05 220.8 407.8 228.05 407.55 231.65 408.25 233.55 409.2 236.15 411.3 236.55 413.05 237.0 414.6 236.05 415.85 235.1 416.25 232.7 L417.6 232.7 Q417.15 236.45 415.5 239.7 413.55 243.1 409.6 242.8 406.85 242.45 405.45 239.55 403.8 236.05 403.8 231.95 403.9 223.0 405.3 213.9 L396.65 213.9 395.8 224.75 Q395.25 231.4 393.65 238.05 393.1 240.2 391.6 241.95 390.0 243.15 388.0 242.45 386.3 241.4 386.35 239.8 386.35 237.85 387.55 236.55 L389.25 234.2 Q391.45 230.25 391.8 224.9 L392.6 213.9 391.65 213.9 Q386.3 213.75 384.05 218.95 L382.8 218.95 Q385.75 208.1 392.95 208.75 L417.6 208.75" fill="none" stroke="#000000" stroke-linecap="round" stroke-linejoin="round" stroke-opacity="0.5019608" stroke-width="1.0"/>
  </g>
</svg>
