<?xml version="1.0" encoding="UTF-8" standalone="no"?>
<svg xmlns:xlink="http://www.w3.org/1999/xlink" height="30.0px" width="30.8px" xmlns="http://www.w3.org/2000/svg">
  <g transform="matrix(1.0, 0.0, 0.0, 1.0, -385.2, -209.85)">
    <path d="M416.0 219.2 Q416.0 223.75 412.65 226.4 409.3 229.05 402.5 229.05 L397.1 229.05 397.1 239.85 385.2 239.85 385.2 209.85 403.7 209.85 Q409.8 209.85 412.9 212.3 416.0 214.7 416.0 219.2 M404.45 219.45 Q404.45 218.25 403.45 217.4 402.5 216.55 399.65 216.55 L397.1 216.55 397.1 222.25 399.25 222.25 Q402.2 222.25 403.3 221.5 404.45 220.7 404.45 219.45" fill="#000000" fill-rule="evenodd" stroke="none"/>
  </g>
</svg>
