<?xml version="1.0" encoding="UTF-8" standalone="no"?>
<svg xmlns:xlink="http://www.w3.org/1999/xlink" height="34.35px" width="34.3px" xmlns="http://www.w3.org/2000/svg">
  <g transform="matrix(1.0, 0.0, 0.0, 1.0, -382.75, -208.2)">
    <path d="M416.1 222.05 Q416.35 228.35 412.75 232.25 L412.5 232.45 Q409.6 235.15 405.35 237.0 L414.05 237.15 Q416.1 236.7 417.05 234.6 L417.05 242.55 403.4 242.55 403.4 235.15 Q410.5 231.2 410.55 222.85 410.9 217.2 407.6 213.05 405.0 209.6 399.9 209.65 394.8 209.6 392.2 213.05 388.9 217.2 389.25 222.85 389.3 231.2 396.4 235.15 L396.4 242.55 382.75 242.55 382.75 234.6 Q383.7 236.7 385.75 237.15 L394.45 237.0 Q390.2 235.15 387.3 232.45 L387.05 232.25 Q383.45 228.35 383.7 222.05 384.3 215.5 389.3 211.5 393.65 208.1 399.9 208.2 406.15 208.1 410.5 211.5 415.5 215.5 416.1 222.05" fill="#000000" fill-rule="evenodd" stroke="none"/>
  </g>
</svg>
