<?xml version="1.0" encoding="UTF-8" standalone="no"?>
<svg xmlns:xlink="http://www.w3.org/1999/xlink" height="25.0px" width="17.8px" xmlns="http://www.w3.org/2000/svg">
  <g transform="matrix(1.0, 0.0, 0.0, 1.0, -370.65, -134.4)">
    <path d="M382.05 158.9 Q379.4 157.25 379.5 154.0 376.7 152.5 377.2 148.35 L376.35 147.1 376.0 145.9 375.35 148.0 Q375.0 149.35 374.15 150.45 373.85 151.0 373.15 150.45 372.3 149.45 371.8 148.2 371.05 146.2 371.15 144.15 371.65 140.0 373.85 140.25 L373.9 140.25 374.8 140.5 374.8 140.4 375.3 139.4 Q379.05 132.05 386.7 136.65 L387.95 136.1 M374.8 140.5 L374.05 142.65" fill="none" stroke="#000000" stroke-linecap="round" stroke-linejoin="round" stroke-width="1.0"/>
    <path d="M387.95 136.1 Q386.9 147.7 382.05 158.9 M376.0 145.9 L376.2 145.05 376.65 143.7 376.8 143.2 377.45 141.75 377.85 140.95 378.3 140.25 378.8 139.6 379.35 138.9 379.85 138.3 380.6 138.25 382.45 138.6 382.8 138.75 383.15 138.9 383.45 139.1 383.75 139.25 383.95 139.45 385.2 140.9 383.15 144.1 382.9 144.35 Q381.2 147.05 380.75 150.45 L380.0 153.1 379.05 152.05 377.2 148.35" fill="none" stroke="#000000" stroke-linecap="round" stroke-linejoin="round" stroke-opacity="0.5019608" stroke-width="1.0"/>
  </g>
</svg>
