<?xml version="1.0" encoding="UTF-8" standalone="no"?>
<svg xmlns:xlink="http://www.w3.org/1999/xlink" height="18.15px" width="18.2px" xmlns="http://www.w3.org/2000/svg">
  <g transform="matrix(1.0, 0.0, 0.0, 1.0, -371.25, -162.15)">
    <path d="M387.35 171.15 Q387.35 174.05 385.3 176.05 383.25 178.15 380.4 178.15 377.5 178.15 375.45 176.05 373.4 174.05 373.4 171.15 373.4 168.3 375.45 166.25 377.2 164.5 379.6 164.25 L378.5 162.8 Q376.1 163.3 374.25 165.1 371.75 167.65 371.75 171.2 371.75 174.75 374.25 177.25 376.8 179.8 380.35 179.8 383.9 179.8 386.4 177.25 388.95 174.75 388.95 171.2 388.95 167.65 386.4 165.1 384.25 162.95 381.35 162.65 L381.1 164.25 Q383.5 164.45 385.3 166.25 387.35 168.3 387.35 171.15 Z" fill="none" stroke="#000000" stroke-linecap="round" stroke-linejoin="round" stroke-width="1.0"/>
  </g>
</svg>
