<?xml version="1.0" encoding="UTF-8" standalone="no"?>
<svg xmlns:xlink="http://www.w3.org/1999/xlink" height="67.05px" width="30.35px" xmlns="http://www.w3.org/2000/svg">
  <g transform="matrix(1.0, 0.0, 0.0, 1.0, -358.35, -95.45)">
    <path d="M380.0 123.15 Q384.65 129.45 388.6 136.3 389.35 145.9 384.0 162.5 L382.8 158.2 382.45 157.3 381.4 155.95 Q381.05 155.6 381.05 154.8 L381.25 153.35 382.85 152.25 Q384.1 151.05 384.7 149.3 L384.9 148.65 Q382.6 144.7 382.65 143.45 382.95 141.15 384.45 139.35 L385.35 138.25 380.0 128.95 379.7 128.35 379.65 128.2 Q370.85 110.6 358.35 95.45 370.55 107.35 379.7 122.65 L380.0 123.15" fill="#000000" fill-rule="evenodd" stroke="none"/>
  </g>
</svg>
