<?xml version="1.0" encoding="UTF-8" standalone="no"?>
<svg xmlns:xlink="http://www.w3.org/1999/xlink" height="48.9px" width="46.3px" xmlns="http://www.w3.org/2000/svg">
  <g transform="matrix(1.0, 0.0, 0.0, 1.0, -376.75, -97.6)">
    <path d="M409.1 135.1 L411.45 126.05 413.45 117.8 414.25 114.35 Q415.65 108.0 416.6 104.85 417.8 101.0 419.3 98.25 L419.6 98.1 420.65 105.8 421.5 112.6 421.5 112.8 421.5 112.85 421.75 115.5 422.35 122.9 422.55 126.7 422.55 128.2 422.55 128.25 Q422.7 136.2 421.4 139.9 L421.35 139.9 421.3 140.1 Q420.7 141.7 419.6 143.15 L418.7 144.35 417.9 145.35 417.8 145.5 417.6 145.75 M386.35 117.8 L385.55 114.35 383.2 104.85 Q382.0 101.0 380.5 98.25 L380.2 98.1 379.15 105.8 Q378.65 109.2 378.3 112.6 L378.3 112.8 378.3 112.85 M386.35 117.8 L388.35 126.05 390.7 135.1 M382.2 145.75 L382.0 145.5 381.9 145.35 381.1 144.35 380.2 143.15 Q379.1 141.7 378.5 140.1 L378.45 139.9 378.4 139.9 Q377.1 136.2 377.25 128.25 L377.25 128.2 377.25 126.7 377.45 122.9 378.05 115.5 378.3 112.85" fill="none" stroke="#000000" stroke-linecap="round" stroke-linejoin="round" stroke-width="1.0"/>
    <path d="M417.6 145.75 Q409.8 147.75 409.1 135.1 M378.3 112.85 L379.65 113.9 379.75 112.8 381.45 114.9 381.75 115.25 381.75 115.3 381.9 115.5 382.15 115.8 382.2 115.4 Q382.05 114.9 382.55 114.2 L382.8 114.5 383.2 115.3 383.45 115.7 383.8 116.35 383.9 114.7 384.0 114.7 384.35 115.1 386.35 117.8 M390.7 135.1 Q390.0 147.75 382.2 145.75 M380.4 115.7 L380.5 116.0 380.55 116.2 380.55 116.25 382.45 121.0 383.9 125.15 383.9 125.2 Q384.25 126.45 384.2 127.25 L383.85 136.05 383.65 139.75 383.4 142.35 383.3 144.55 M380.55 116.25 Q378.8 118.65 378.35 126.7 L378.3 128.2 Q378.25 133.6 380.4 139.25 L382.2 143.4 382.25 143.5 382.9 144.75 382.95 144.8 383.1 145.05 M421.5 112.85 L420.15 113.9 420.05 112.8 418.35 114.9 418.05 115.25 418.05 115.3 417.9 115.5 417.65 115.8 417.6 115.4 Q417.75 114.9 417.25 114.2 L417.0 114.5 416.6 115.3 416.35 115.7 416.0 116.35 415.9 114.7 415.8 114.7 415.45 115.1 413.45 117.8 M419.4 115.7 L419.3 116.0 419.25 116.2 419.25 116.25 Q421.0 118.65 421.45 126.7 L421.5 128.2 Q421.55 133.6 419.4 139.25 L417.6 143.4 417.55 143.5 416.9 144.75 416.85 144.8 416.7 145.05 M419.25 116.25 L417.35 121.0 Q416.35 123.5 415.9 125.15 L415.9 125.2 Q415.55 126.45 415.6 127.25 L415.95 136.05 416.15 139.75 416.4 142.35 416.5 144.55" fill="none" stroke="#000000" stroke-linecap="round" stroke-linejoin="round" stroke-opacity="0.5019608" stroke-width="1.0"/>
  </g>
</svg>
