<?xml version="1.0" encoding="UTF-8" standalone="no"?>
<svg xmlns:xlink="http://www.w3.org/1999/xlink" height="16.95px" width="44.75px" xmlns="http://www.w3.org/2000/svg">
  <g transform="matrix(1.0, 0.0, 0.0, 1.0, -377.55, -295.0)">
    <path d="M420.7 297.2 L420.7 295.5 420.55 295.55 420.05 295.6 417.8 295.95 416.4 296.15 409.3 296.85 407.0 297.0 406.85 297.05 406.5 297.05 400.25 297.2 400.1 297.2 399.75 297.2 399.6 297.2 393.35 297.05 393.0 297.05 392.8 297.0 390.55 296.85 383.45 296.15 382.05 295.95 379.75 295.6 379.3 295.55 379.1 295.5 379.1 297.2 M420.7 297.2 L420.95 297.85 420.95 297.9 Q422.75 302.9 420.75 307.95 L420.7 307.95 420.7 309.85 417.2 310.35 417.05 310.4 416.9 310.4 409.8 311.1 409.6 311.1 408.1 311.2 407.9 311.25 399.9 311.45 391.9 311.25 391.7 311.2 390.2 311.1 390.05 311.1 382.95 310.4 382.75 310.4 382.65 310.35 379.1 309.85 379.1 307.95 Q377.1 302.9 378.85 297.9 L378.85 297.85 379.1 297.2" fill="none" stroke="#000000" stroke-linecap="round" stroke-linejoin="round" stroke-width="1.0"/>
    <path d="M379.1 297.2 L379.2 297.25 379.3 297.25 379.75 297.3 382.1 297.6 382.25 297.65 384.55 297.9 399.9 298.65 415.25 297.9 417.55 297.65 417.75 297.6 420.05 297.3 420.55 297.25 420.65 297.25 420.7 297.2 M401.2 301.0 Q400.8 300.65 400.35 300.65 L400.25 300.65 400.2 300.65 400.1 300.7 400.0 300.7 399.9 300.7 399.85 300.7 399.75 300.7 399.65 300.65 399.6 300.65 399.5 300.65 Q399.0 300.65 398.65 301.0 L397.9 301.75 Q397.15 302.85 397.15 304.4 397.15 305.25 397.4 305.9 L397.9 307.05 398.65 307.85 Q399.0 308.15 399.5 308.15 L399.6 308.15 399.65 308.15 399.75 308.15 399.85 308.15 399.9 308.15 400.0 308.15 400.1 308.15 400.2 308.15 400.25 308.15 400.35 308.15 401.2 307.85 401.95 307.05 402.45 305.9 402.65 304.4 Q402.65 302.85 401.95 301.75 L401.2 301.0 M384.9 299.5 L384.65 299.6 384.4 299.65 Q383.4 299.9 383.0 301.15 382.6 302.4 383.05 303.9 L383.65 305.35 384.15 305.95 384.45 306.25 Q385.4 307.15 386.4 306.9 L386.65 306.85 386.9 306.8 Q387.7 306.55 388.15 305.7 L388.3 305.25 388.35 305.05 Q388.7 303.95 388.3 302.55 387.9 301.0 386.9 300.15 385.9 299.25 384.9 299.5 M379.1 307.95 L379.3 308.0 379.75 308.05 382.55 308.55 382.75 308.55 383.2 308.65 390.15 309.4 394.9 309.7 404.95 309.7 409.7 309.4 416.65 308.65 417.05 308.55 417.25 308.55 420.05 308.05 420.55 308.0 420.7 307.95 M416.85 301.15 Q417.25 302.4 416.8 303.9 L416.15 305.35 415.7 305.95 415.4 306.25 Q414.45 307.15 413.45 306.9 L413.2 306.85 412.95 306.8 Q412.15 306.55 411.7 305.7 L411.5 305.25 411.45 305.05 Q411.15 303.95 411.5 302.55 411.95 301.0 412.95 300.15 413.95 299.25 414.9 299.5 L415.15 299.6 415.45 299.65 Q416.4 299.9 416.85 301.15" fill="none" stroke="#000000" stroke-linecap="round" stroke-linejoin="round" stroke-opacity="0.49803922" stroke-width="1.0"/>
  </g>
</svg>
