<?xml version="1.0" encoding="UTF-8" standalone="no"?>
<svg xmlns:xlink="http://www.w3.org/1999/xlink" height="56.1px" width="177.45px" xmlns="http://www.w3.org/2000/svg">
  <g transform="matrix(1.0, 0.0, 0.0, 1.0, -311.15, -219.15)">
    <path d="M469.45 229.8 Q465.05 224.85 459.25 220.55 456.9 218.6 455.1 220.95 L454.85 221.25 454.15 222.65 M445.4 239.15 L445.05 239.75 Q444.5 241.2 446.4 242.2 L452.3 244.65 M469.45 229.8 L470.05 229.25 470.7 228.7 Q473.2 227.55 474.6 229.55 479.85 236.75 482.85 244.45 L484.0 244.0 Q485.95 244.2 486.2 246.4 486.2 252.5 484.9 258.65 L486.2 258.45 Q488.35 258.95 488.05 261.2 487.25 266.95 485.65 272.6 484.9 273.95 483.05 273.95 L465.6 274.75 Q463.45 274.9 462.5 272.7 L459.5 264.75 Q458.95 262.85 460.2 262.2 L461.45 262.05 458.2 257.65 Q457.15 256.0 458.5 254.9 L459.2 254.6 452.2 247.95 Q450.6 246.5 451.8 245.05 L452.3 244.65 M453.85 223.15 Q449.15 221.2 444.05 219.9 442.25 219.55 441.35 220.9 L441.05 221.4 440.5 223.1 439.5 226.25 438.8 228.6 437.85 231.65 437.35 233.35 437.25 233.8 Q437.1 235.65 439.7 236.55 L445.4 239.15 M358.4 220.9 Q357.5 219.55 355.7 219.9 350.55 221.2 345.9 223.15 M354.35 239.15 L360.0 236.55 Q362.65 235.65 362.5 233.8 L362.4 233.35 361.85 231.65 360.95 228.6 360.2 226.25 359.25 223.1 M358.4 220.9 L358.7 221.4 359.25 223.1 M345.6 222.65 L344.85 221.25 344.65 220.95 M329.65 229.25 L329.05 228.7 Q326.55 227.55 325.15 229.55 319.9 236.75 316.85 244.45 L315.7 244.0 Q313.8 244.2 313.55 246.4 313.5 252.5 314.8 258.65 L313.55 258.45 Q311.4 258.95 311.7 261.2 312.5 266.95 314.05 272.6 314.85 273.95 316.65 273.95 L334.1 274.75 Q336.3 274.9 337.2 272.7 L340.2 264.75 Q340.8 262.85 339.55 262.2 L338.3 262.05 341.55 257.65 Q342.6 256.0 341.25 254.9 L340.55 254.6 347.55 247.95 Q349.1 246.5 347.95 245.05 L347.45 244.65 353.35 242.2 Q355.2 241.2 354.65 239.75 L354.35 239.15 M329.65 229.25 L330.3 229.8 Q334.7 224.85 340.5 220.55 342.85 218.6 344.65 220.95" fill="none" stroke="#000000" stroke-linecap="round" stroke-linejoin="round" stroke-width="1.0"/>
    <path d="M455.1 220.95 L458.4 224.45 454.15 222.65 453.85 223.15 452.3 226.2 455.0 229.6 451.15 228.25 449.5 231.45 451.55 234.4 448.45 233.4 446.7 236.65 449.1 239.45 445.6 238.8 445.4 239.15 M452.3 244.65 L453.3 243.8 455.35 242.0 457.8 239.9 459.95 238.05 463.0 235.35 464.85 233.8 468.15 230.95 469.45 229.8 M451.15 228.25 L452.3 226.2 M448.45 233.4 L449.5 231.45 M445.6 238.8 L446.7 236.65 M459.95 238.05 L462.1 243.05 457.8 239.9 M455.35 242.0 L457.25 246.2 453.3 243.8 M470.05 229.25 L472.4 234.9 468.15 230.95 M459.2 254.6 L460.6 254.0 462.75 253.1 467.55 251.05 469.85 250.1 473.6 248.45 475.6 247.6 480.0 245.7 482.45 244.65 482.85 244.45 M464.85 233.8 L467.85 238.7 463.0 235.35 M441.35 220.9 L444.05 223.1 440.5 223.1 M439.5 226.25 L442.35 228.6 438.8 228.6 M437.85 231.65 L440.7 233.8 437.25 233.8 M482.55 258.95 L483.75 263.15 484.9 258.65 482.55 258.95 479.15 259.45 478.05 264.2 475.9 259.95 471.15 260.6 470.4 264.7 468.75 260.95 465.1 261.5 464.5 266.15 462.65 261.85 461.45 262.05 M473.6 248.45 L475.6 251.5 475.6 247.6 M467.55 251.05 L470.3 254.35 469.85 250.1 M471.15 260.6 L468.75 260.95 M479.15 259.45 L475.9 259.95 M460.6 254.0 L463.2 257.25 462.75 253.1 M465.1 261.5 L462.65 261.85 M482.45 244.65 L482.45 249.45 480.0 245.7 M345.9 223.15 L347.45 226.2 348.55 228.25 350.25 231.45 351.3 233.4 353.0 236.65 354.15 238.8 354.35 239.15 M362.5 233.8 L359.05 233.8 361.85 231.65 M360.95 228.6 L357.4 228.6 360.2 226.25 M359.25 223.1 L355.7 223.1 358.4 220.9 M344.65 220.95 L341.35 224.45 345.6 222.65 345.9 223.15 M316.85 244.45 L317.3 244.65 319.75 245.7 324.15 247.6 326.1 248.45 329.9 250.1 332.2 251.05 337.0 253.1 339.15 254.0 340.55 254.6 M347.45 244.65 L346.45 243.8 342.5 246.2 344.4 242.0 341.95 239.9 337.6 243.05 339.8 238.05 336.7 235.35 331.85 238.7 334.85 233.8 331.6 230.95 327.35 234.9 329.65 229.25 M330.3 229.8 L331.6 230.95 M339.8 238.05 L341.95 239.9 M336.7 235.35 L334.85 233.8 M351.3 233.4 L348.2 234.4 350.25 231.45 M348.55 228.25 L344.75 229.6 347.45 226.2 M344.4 242.0 L346.45 243.8 M354.15 238.8 L350.65 239.45 353.0 236.65 M337.0 253.1 L336.5 257.25 339.15 254.0 M329.9 250.1 L329.45 254.35 332.2 251.05 M324.15 247.6 L324.15 251.5 326.1 248.45 M338.3 262.05 L337.05 261.85 335.25 266.15 334.6 261.5 330.95 260.95 329.35 264.7 328.55 260.6 323.85 259.95 321.65 264.2 320.55 259.45 317.2 258.95 316.0 263.15 314.8 258.65 317.2 258.95 M328.55 260.6 L330.95 260.95 M337.05 261.85 L334.6 261.5 M320.55 259.45 L323.85 259.95 M317.3 244.65 L317.3 249.45 319.75 245.7" fill="none" stroke="#000000" stroke-linecap="round" stroke-linejoin="round" stroke-opacity="0.5019608" stroke-width="1.0"/>
  </g>
</svg>
