<?xml version="1.0" encoding="UTF-8" standalone="no"?>
<svg xmlns:xlink="http://www.w3.org/1999/xlink" height="50.95px" width="197.6px" xmlns="http://www.w3.org/2000/svg">
  <g transform="matrix(1.0, 0.0, 0.0, 1.0, -301.1, -218.7)">
    <path d="M445.75 227.25 Q445.45 224.55 444.5 222.35 443.1 222.75 441.3 225.65 M464.5 263.55 Q462.95 262.8 461.6 261.45 L461.2 261.0 450.65 261.0 440.25 250.75 Q444.65 246.15 446.9 241.5 449.05 236.85 449.3 232.25 449.4 225.05 447.25 219.65 M479.7 228.95 L477.05 235.1 Q474.5 239.95 470.9 244.65 473.45 245.25 475.3 247.3 L475.5 247.45 Q481.7 239.95 484.1 232.85 M470.9 244.65 L468.45 244.35 Q464.45 244.35 461.6 247.3 458.7 250.25 458.7 254.35 458.7 258.2 461.2 261.0 M474.1 231.95 L477.05 235.1 M469.15 259.0 Q466.75 259.0 465.1 257.35 463.4 255.75 463.4 253.45 463.4 251.15 465.1 249.5 466.75 247.85 469.15 247.85 471.5 247.85 473.25 249.5 474.9 251.15 474.9 253.45 474.9 255.75 473.25 257.35 471.95 258.6 470.3 258.9 L469.15 259.0 M475.5 247.45 Q478.15 250.35 478.15 254.35 478.15 258.5 475.3 261.45 L474.95 261.75 Q475.55 263.95 477.05 264.65 488.1 262.15 497.5 257.1 M474.95 261.75 Q473.0 263.7 470.4 264.15 M352.55 219.65 Q350.4 225.05 350.5 232.25 350.75 236.85 352.9 241.5 355.15 246.15 359.55 250.75 L349.15 261.0 338.6 261.0 338.2 261.45 Q336.85 262.8 335.3 263.55 M354.05 227.25 Q354.35 224.55 355.3 222.35 356.7 222.75 358.5 225.65 M338.6 261.0 Q341.1 258.2 341.1 254.35 341.1 250.25 338.2 247.3 335.35 244.35 331.35 244.35 L328.9 244.65 Q326.35 245.25 324.5 247.3 L324.3 247.45 Q321.65 250.35 321.65 254.35 321.65 258.5 324.5 261.45 L324.85 261.75 Q326.8 263.7 329.4 264.15 M325.7 231.95 L322.75 235.1 Q325.3 239.95 328.9 244.65 M334.7 249.5 Q333.05 247.85 330.65 247.85 328.3 247.85 326.55 249.5 324.9 251.15 324.9 253.45 324.9 255.75 326.55 257.35 327.85 258.6 329.5 258.9 L330.65 259.0 Q333.05 259.0 334.7 257.35 336.4 255.75 336.4 253.45 336.4 251.15 334.7 249.5 M320.1 228.95 Q321.25 232.05 322.75 235.1 M315.7 232.85 Q318.1 239.95 324.3 247.45 M302.3 257.1 Q311.7 262.15 322.75 264.65 324.25 263.95 324.85 261.75" fill="none" stroke="#000000" stroke-linecap="round" stroke-linejoin="round" stroke-opacity="0.49803922" stroke-width="1.0"/>
    <path d="M445.75 227.25 L441.3 225.65 439.8 225.15 Q441.6 221.4 444.4 219.2 L447.25 219.65 Q464.0 222.25 474.1 231.95 476.65 228.9 479.7 228.95 L484.1 232.85 Q495.05 243.75 497.5 257.1 498.1 260.1 498.2 263.2 487.9 267.05 474.35 269.15 471.45 266.8 470.4 264.15 L468.45 264.4 Q466.3 264.4 464.5 263.55 L448.15 263.55 435.45 250.55 Q440.5 245.8 442.95 240.7 445.4 235.55 445.8 230.5 L445.75 227.25 M358.5 225.65 L360.0 225.15 Q358.2 221.4 355.4 219.2 L352.55 219.65 Q335.8 222.25 325.7 231.95 323.15 228.9 320.1 228.95 L315.7 232.85 Q304.75 243.75 302.3 257.1 301.7 260.1 301.6 263.2 311.9 267.05 325.45 269.15 328.35 266.8 329.4 264.15 L331.35 264.4 Q333.5 264.4 335.3 263.55 L351.65 263.55 364.35 250.55 Q359.3 245.8 356.85 240.7 354.4 235.55 354.0 230.5 353.9 228.8 354.05 227.25 M358.5 225.65 L354.05 227.25" fill="none" stroke="#000000" stroke-linecap="round" stroke-linejoin="round" stroke-width="1.0"/>
  </g>
</svg>
