<?xml version="1.0" encoding="UTF-8" standalone="no"?>
<svg xmlns:xlink="http://www.w3.org/1999/xlink" height="156.9px" width="43.55px" xmlns="http://www.w3.org/2000/svg">
  <g transform="matrix(1.0, 0.0, 0.0, 1.0, -356.8, -152.6)">
    <path d="M365.35 217.55 Q364.0 217.55 363.0 216.55 362.05 215.6 362.05 214.25 362.05 212.9 363.0 211.9 364.0 210.95 365.35 210.95 366.7 210.95 367.65 211.9 368.65 212.9 368.65 214.25 368.65 215.6 367.65 216.55 366.7 217.55 365.35 217.55 M381.3 309.0 Q378.4 301.8 375.8 294.55 367.05 269.95 362.2 244.4 358.75 226.2 357.3 207.55 L399.85 201.25 399.85 153.1 M367.45 247.6 Q368.45 246.65 369.8 246.65 371.15 246.65 372.1 247.6 373.1 248.6 373.1 249.95 373.1 251.3 372.1 252.25 371.15 253.25 369.8 253.25 368.45 253.25 367.45 252.25 366.5 251.3 366.5 249.95 366.5 248.6 367.45 247.6 M375.45 284.6 Q375.45 283.25 376.4 282.25 377.4 281.3 378.75 281.3 380.1 281.3 381.05 282.25 382.05 283.25 382.05 284.6 382.05 285.95 381.05 286.9 380.1 287.9 378.75 287.9 377.4 287.9 376.4 286.9 375.45 285.95 375.45 284.6" fill="none" stroke="#000000" stroke-linecap="round" stroke-linejoin="round" stroke-opacity="0.5019608" stroke-width="1.0"/>
  </g>
</svg>
