<?xml version="1.0" encoding="UTF-8" standalone="no"?>
<svg xmlns:xlink="http://www.w3.org/1999/xlink" height="42.35px" width="83.5px" xmlns="http://www.w3.org/2000/svg">
  <g transform="matrix(1.0, 0.0, 0.0, 1.0, -358.05, -328.1)">
    <path d="M365.25 340.05 L368.7 328.6 Q383.8 336.9 399.8 343.45 415.75 336.9 430.9 328.6 L434.35 340.05 Q426.0 345.45 417.4 350.0 427.7 353.45 438.4 356.25 L441.05 369.95 Q419.65 366.2 399.8 358.15 379.9 366.2 358.55 369.95 359.75 363.1 361.2 356.25 371.9 353.45 382.25 350.0 373.55 345.45 365.25 340.05" fill="none" stroke="#000000" stroke-linecap="round" stroke-linejoin="round" stroke-width="1.0"/>
    <path d="M365.25 340.05 L365.0 339.9 M434.35 340.05 L434.6 339.9 M399.8 358.15 Q390.85 354.5 382.25 350.0 M399.8 343.45 Q408.45 346.95 417.4 350.0" fill="none" stroke="#000000" stroke-linecap="round" stroke-linejoin="round" stroke-opacity="0.5019608" stroke-width="1.0"/>
  </g>
</svg>
