<?xml version="1.0" encoding="UTF-8" standalone="no"?>
<svg xmlns:xlink="http://www.w3.org/1999/xlink" height="183.75px" width="35.8px" xmlns="http://www.w3.org/2000/svg">
  <g transform="matrix(1.0, 0.0, 0.0, 1.0, -382.0, -327.3)">
    <path d="M384.55 327.35 L399.8 328.2 415.25 327.3 415.35 328.7 Q417.5 355.85 417.75 383.0 418.25 429.05 414.9 475.1 L412.4 511.05 399.95 510.8 Q393.6 511.1 387.4 511.0 L384.9 475.1 Q381.55 429.05 382.05 383.0 382.3 355.85 384.45 328.7 L384.55 327.35 M399.65 379.65 L399.2 379.7 399.05 379.7 398.9 379.65 398.85 379.65 398.6 379.65 Q397.75 379.65 397.05 380.05 L395.75 381.65 395.1 383.0 Q394.45 384.6 394.45 386.55 394.45 389.4 395.75 391.4 L397.05 392.85 Q397.75 393.45 398.6 393.45 L398.8 393.45 398.9 393.45 399.05 393.45 399.2 393.4 399.55 393.45 399.65 393.45 399.9 393.45 400.15 393.45 400.25 393.45 400.6 393.4 400.75 393.45 400.9 393.45 401.0 393.45 401.2 393.45 Q402.05 393.45 402.75 392.85 L404.05 391.4 Q405.35 389.4 405.35 386.55 405.35 384.6 404.7 383.0 L404.05 381.65 402.75 380.05 401.2 379.65 400.95 379.65 400.9 379.65 400.75 379.7 400.6 379.7 400.15 379.65 399.9 379.7 399.65 379.65 M398.1 340.65 L397.5 341.1 397.05 341.5 396.2 342.5 395.55 343.85 Q394.9 345.45 394.9 347.4 394.9 350.25 396.2 352.25 L397.05 353.35 397.5 353.9 Q398.2 354.3 399.05 354.3 L399.15 354.3 399.25 354.3 399.35 354.3 399.5 354.3 399.65 354.25 399.9 354.3 400.15 354.25 400.3 354.3 400.45 354.3 400.55 354.3 400.65 354.3 400.75 354.3 Q401.6 354.3 402.3 353.9 L402.75 353.35 403.6 352.25 Q404.9 350.25 404.9 347.4 404.9 345.45 404.25 343.85 L403.6 342.5 402.75 341.5 402.3 341.1 401.7 340.65 400.75 340.5 400.5 340.5 400.45 340.5 400.3 340.55 400.15 340.55 399.9 340.55 399.65 340.55 399.5 340.55 399.35 340.5 399.3 340.5 399.05 340.5 398.1 340.65 M395.75 431.55 Q394.45 433.6 394.45 436.45 394.45 439.3 395.75 441.3 L397.05 442.75 Q397.75 443.35 398.6 443.35 L398.8 443.35 398.9 443.35 399.05 443.35 399.2 443.3 399.55 443.35 399.65 443.35 399.9 443.35 400.15 443.35 400.25 443.35 400.6 443.3 400.75 443.35 400.9 443.35 401.0 443.35 401.2 443.35 Q402.05 443.35 402.75 442.75 L404.05 441.3 Q405.35 439.3 405.35 436.45 405.35 433.6 404.05 431.55 L402.75 429.95 401.2 429.55 400.95 429.55 400.9 429.55 400.75 429.6 400.6 429.6 400.15 429.55 399.9 429.6 399.65 429.55 399.2 429.6 399.05 429.6 398.9 429.55 398.85 429.55 398.6 429.55 Q397.75 429.55 397.05 429.95 L395.75 431.55 M401.2 473.7 L401.05 473.7 400.95 473.7 400.9 473.7 400.75 473.75 400.6 473.75 400.15 473.7 399.9 473.75 399.65 473.7 399.2 473.75 399.05 473.75 398.9 473.7 398.85 473.7 398.75 473.7 398.6 473.7 Q397.75 473.7 397.05 474.1 L395.75 475.7 Q394.45 477.75 394.45 480.6 394.45 483.45 395.75 485.45 L397.05 487.1 Q397.75 487.5 398.6 487.5 L398.8 487.5 398.9 487.5 399.05 487.5 399.2 487.45 399.6 487.5 399.9 487.5 400.2 487.5 400.6 487.45 400.75 487.5 400.9 487.5 401.0 487.5 401.2 487.5 402.75 487.1 404.05 485.45 Q405.35 483.45 405.35 480.6 405.35 477.75 404.05 475.7 L402.75 474.1 401.2 473.7" fill="#000000" fill-rule="evenodd" stroke="none"/>
  </g>
</svg>
