<?xml version="1.0" encoding="UTF-8" standalone="no"?>
<svg xmlns:xlink="http://www.w3.org/1999/xlink" height="49.7px" width="77.95px" xmlns="http://www.w3.org/2000/svg">
  <g transform="matrix(1.0, 0.0, 0.0, 1.0, -360.95, -326.55)">
    <path d="M379.7 334.05 L378.55 333.55 376.05 332.5 Q374.15 331.8 372.05 331.25 L369.7 330.7 367.45 330.3 366.75 330.15 368.2 326.55 Q382.55 329.85 399.9 329.7 417.3 329.85 431.65 326.55 L433.1 330.15 432.35 330.3 430.15 330.7 427.8 331.25 Q425.7 331.8 423.8 332.5 L421.3 333.55 420.15 334.05 Q418.2 334.85 418.8 336.35 420.4 339.85 421.15 344.3 421.45 345.55 423.75 345.1 424.55 348.8 424.25 352.5 423.9 354.85 427.4 354.3 428.1 358.7 428.05 363.0 427.85 364.2 429.85 364.1 429.85 367.15 429.2 370.15 429.45 371.45 431.0 371.3 L438.9 371.15 437.05 371.45 434.9 371.9 Q432.7 372.45 430.9 373.25 L429.65 373.85 Q427.65 374.85 426.2 376.25 L426.35 375.4 Q427.0 371.45 426.35 367.15 426.25 365.3 424.3 365.2 424.95 360.7 424.3 356.15 424.05 354.05 421.6 354.25 L420.6 354.4 Q421.0 350.65 420.6 346.85 420.4 343.65 417.95 343.5 L416.95 343.65 Q417.0 339.25 416.0 336.0 415.3 333.65 412.5 333.85 L410.8 334.15 408.0 334.5 404.45 334.75 401.85 334.8 399.9 334.75 398.0 334.8 395.4 334.75 391.8 334.5 389.05 334.15 387.35 333.85 Q384.55 333.65 383.85 336.0 382.85 339.25 382.9 343.65 L381.9 343.5 Q379.45 343.65 379.25 346.85 378.85 350.65 379.25 354.4 L378.25 354.25 Q375.8 354.05 375.55 356.15 374.9 360.7 375.55 365.2 373.6 365.3 373.5 367.15 372.85 371.45 373.5 375.4 L373.65 376.25 Q372.2 374.85 370.15 373.85 L368.95 373.25 Q367.15 372.45 364.95 371.9 L362.8 371.45 360.95 371.15 Q364.9 371.4 368.85 371.3 370.4 371.45 370.65 370.15 370.0 367.15 370.0 364.1 372.0 364.2 371.8 363.0 371.75 358.7 372.45 354.3 375.95 354.85 375.6 352.5 375.3 348.8 376.1 345.1 378.4 345.55 378.7 344.3 379.45 339.85 381.0 336.35 381.6 334.85 379.7 334.05" fill="#000000" fill-rule="evenodd" stroke="none"/>
  </g>
</svg>
