<?xml version="1.0" encoding="UTF-8" standalone="no"?>
<svg xmlns:xlink="http://www.w3.org/1999/xlink" height="17.25px" width="72.95px" xmlns="http://www.w3.org/2000/svg">
  <g transform="matrix(1.0, 0.0, 0.0, 1.0, -363.25, -314.8)">
    <path d="M395.4 319.1 L397.35 319.1 394.4 324.2 392.85 323.25 395.4 319.1 M404.1 319.1 L406.65 323.25 405.1 324.2 402.15 319.1 404.1 319.1 M370.5 322.35 Q372.7 322.35 371.55 325.25 367.5 327.6 364.75 332.05 L363.85 328.45 Q366.5 323.75 370.5 322.35 M367.75 314.8 Q370.65 315.0 369.05 317.7 365.65 319.55 363.3 323.45 363.2 320.95 363.5 318.5 364.6 316.5 367.75 314.8 M436.0 318.5 Q436.3 320.95 436.2 323.45 433.85 319.55 430.45 317.7 428.85 315.0 431.75 314.8 434.9 316.5 436.0 318.5 M429.0 322.35 Q433.0 323.75 435.65 328.45 L434.75 332.05 Q432.0 327.6 427.95 325.25 426.8 322.35 429.0 322.35" fill="#000000" fill-rule="evenodd" stroke="none"/>
  </g>
</svg>
