<?xml version="1.0" encoding="UTF-8" standalone="no"?>
<svg xmlns:xlink="http://www.w3.org/1999/xlink" height="11.4px" width="48.15px" xmlns="http://www.w3.org/2000/svg">
  <g transform="matrix(1.0, 0.0, 0.0, 1.0, -376.5, -318.05)">
    <path d="M377.45 324.15 L384.45 325.55 384.9 325.6 Q385.4 326.35 384.65 326.8 L377.05 325.25 376.9 325.25 376.7 325.2 376.5 324.7 Q376.45 324.3 376.95 324.05 376.55 323.6 377.0 323.1 L377.55 323.8 377.65 324.15 377.45 324.15 M378.4 322.95 L385.15 322.7 Q385.85 323.25 385.25 323.9 L385.15 323.9 384.65 323.95 378.9 324.1 Q378.85 323.5 378.4 322.95 M397.8 322.9 L390.25 323.7 Q389.5 323.2 390.15 322.55 L397.65 321.8 398.2 321.7 Q398.95 322.2 398.3 322.9 L397.8 322.9 M402.65 328.3 L408.75 328.2 408.85 328.15 410.75 328.15 Q411.45 328.7 410.8 329.3 L402.7 329.45 Q401.95 328.85 402.65 328.3 M397.65 328.8 L397.15 328.7 389.6 327.75 Q389.0 327.05 389.8 326.6 L397.8 327.6 Q398.4 328.3 397.65 328.8 M402.9 321.15 L410.95 320.35 Q411.7 320.8 411.1 321.45 L410.55 321.55 403.05 322.35 Q402.3 321.8 402.9 321.15 M415.9 319.45 L416.3 319.35 423.85 318.05 424.25 318.4 424.1 319.2 416.1 320.6 Q415.3 320.15 415.9 319.45 M424.25 326.5 L424.45 326.65 424.65 326.85 424.65 327.25 424.4 327.6 416.3 328.45 Q415.55 327.95 416.2 327.3 L416.4 327.25 424.25 326.5" fill="#000000" fill-rule="evenodd" stroke="none"/>
  </g>
</svg>
