<?xml version="1.0" encoding="UTF-8" standalone="no"?>
<svg xmlns:xlink="http://www.w3.org/1999/xlink" height="50.8px" width="94.8px" xmlns="http://www.w3.org/2000/svg">
  <g transform="matrix(1.0, 0.0, 0.0, 1.0, -352.5, -307.1)">
    <path d="M395.1 343.9 Q392.85 350.85 390.75 357.9 L372.05 354.15 365.8 352.6 357.25 350.15 352.5 348.65 Q354.1 340.95 356.3 333.65 358.25 326.9 360.8 320.5 L362.9 315.35 362.9 307.1 Q381.35 309.65 399.9 309.35 418.45 309.65 436.9 307.1 L436.9 315.35 439.0 320.5 Q441.55 326.9 443.5 333.65 445.7 340.95 447.3 348.65 L442.55 350.15 434.0 352.6 427.75 354.15 409.05 357.9 404.7 343.9 395.1 343.9" fill="#000000" fill-rule="evenodd" stroke="none"/>
  </g>
</svg>
