<?xml version="1.0" encoding="UTF-8" standalone="no"?>
<svg xmlns:xlink="http://www.w3.org/1999/xlink" height="78.65px" width="100.4px" xmlns="http://www.w3.org/2000/svg">
  <g transform="matrix(1.0, 0.0, 0.0, 1.0, -349.7, -306.6)">
    <path d="M395.1 343.9 L392.7 343.9 391.05 341.85 Q386.5 336.5 380.65 331.4 M383.4 384.7 L383.3 384.7 Q357.65 377.8 350.2 362.15 M360.8 320.5 L360.45 320.4 M404.7 343.9 L407.1 343.9 408.75 341.85 Q413.3 336.5 419.15 331.4 M439.0 320.5 L439.35 320.4 M416.4 384.75 L416.45 384.75 Q442.1 377.85 449.6 362.25" fill="none" stroke="#000000" stroke-linecap="round" stroke-linejoin="round" stroke-opacity="0.5019608" stroke-width="1.0"/>
    <path d="M416.4 384.75 L412.75 370.8 409.05 357.9 404.7 343.9 395.1 343.9 Q392.85 350.85 390.75 357.9 L387.05 370.8 Q385.15 377.7 383.4 384.7 M350.2 362.15 Q351.15 355.25 352.5 348.65 354.1 340.95 356.3 333.65 358.25 326.9 360.8 320.5 L362.9 315.35 362.9 307.1 M449.6 362.25 L449.6 362.2 Q448.7 355.25 447.3 348.65 445.7 340.95 443.5 333.65 441.55 326.9 439.0 320.5 L436.9 315.35 436.9 307.1" fill="none" stroke="#000000" stroke-linecap="round" stroke-linejoin="round" stroke-width="1.0"/>
  </g>
</svg>
