<?xml version="1.0" encoding="UTF-8" standalone="no"?>
<svg xmlns:xlink="http://www.w3.org/1999/xlink" height="42.25px" width="86.25px" xmlns="http://www.w3.org/2000/svg">
  <g transform="matrix(1.0, 0.0, 0.0, 1.0, -465.1, -408.45)">
    <path d="M503.75 425.2 Q549.95 448.9 551.35 450.7 549.1 451.2 498.5 439.65 L496.9 435.25 496.85 435.15 496.7 434.8 Q495.55 432.6 494.2 432.25 L478.85 428.35 474.8 439.25 472.25 439.55 472.3 439.35 Q473.1 430.85 467.15 425.45 L465.25 424.9 465.2 424.6 Q464.9 421.6 465.65 419.55 L465.7 419.5 Q466.5 417.4 468.55 415.35 L468.8 415.1 470.6 416.0 Q478.65 415.65 483.45 408.6 L483.6 408.45 485.35 410.3 481.45 421.2 495.75 428.1 Q497.0 428.65 499.25 427.8 L499.6 427.65 499.7 427.6 503.75 425.2 M482.1 413.4 Q478.6 417.15 474.5 417.85 L479.5 420.3 482.1 413.4 M471.35 426.45 Q474.05 429.7 474.35 434.75 L476.75 427.85 471.35 426.45" fill="#ffffff" fill-rule="evenodd" stroke="none"/>
  </g>
</svg>
