<?xml version="1.0" encoding="UTF-8" standalone="no"?>
<svg xmlns:xlink="http://www.w3.org/1999/xlink" height="91.75px" width="55.95px" xmlns="http://www.w3.org/2000/svg">
  <g transform="matrix(1.0, 0.0, 0.0, 1.0, -309.75, -352.4)">
    <path d="M342.3 378.85 Q341.25 374.8 339.5 370.6 L338.9 369.85 Q338.15 369.2 337.6 368.15 334.15 360.1 326.85 355.3 319.35 351.05 314.15 354.3 309.3 357.85 310.45 363.35 L310.75 364.5 M342.3 378.85 L343.0 380.9 Q343.2 382.05 342.85 382.7 L342.05 384.05 343.65 392.35 363.3 399.0 364.6 398.85 364.75 398.9 364.9 399.2 Q365.3 399.6 365.05 399.8 L365.2 400.0 Q365.3 400.8 364.15 400.55 362.25 402.75 360.8 408.65 L360.7 409.1 360.4 410.4 360.15 411.65 360.0 412.35 359.6 414.8 359.3 416.65 Q358.35 422.0 356.65 425.7 353.6 431.85 349.45 429.65 L349.3 429.8 348.95 430.05 349.5 433.2 349.35 433.35 350.0 437.4 350.95 436.6 350.4 443.65 347.55 438.25 348.7 437.95 348.1 434.35 346.9 435.4 Q345.8 435.4 344.4 434.3 343.25 436.25 341.75 437.85 339.35 440.45 336.35 440.3 334.8 440.15 333.0 439.15 330.45 437.6 327.35 434.2 322.45 428.8 319.9 428.2 L319.75 428.6 Q319.4 429.6 318.2 429.2 317.9 429.15 317.75 428.95 317.15 429.05 316.6 428.6 L316.3 427.95 Q316.3 426.5 317.35 425.5 L317.7 425.2 317.8 425.15 319.4 423.85 320.9 422.35 321.4 421.75 321.45 421.6 321.5 421.55 321.5 421.45 321.55 421.4 321.7 421.15 329.5 409.55 Q328.85 404.45 330.5 401.15 L330.45 400.5 330.95 399.7 332.5 397.75 332.0 395.05 Q326.2 394.35 325.1 388.4 L324.95 387.5 Q324.25 382.5 329.8 380.45 L328.45 375.8 Q328.4 374.3 326.55 371.6 323.0 366.5 318.1 369.3 L315.0 369.15 Q311.85 367.8 310.75 364.5 M330.25 382.15 L330.25 383.65 330.8 386.0 M330.25 382.15 Q328.95 382.5 328.05 383.2 325.95 385.7 328.1 390.65 329.4 393.25 331.65 393.55 L330.55 388.0 Q330.35 386.7 330.8 386.0 M343.05 395.1 L344.05 394.45 343.85 393.4 M343.05 395.1 L347.8 424.1 348.05 424.2 348.25 425.4 349.7 426.45 Q353.0 427.55 355.6 417.85 357.6 409.5 359.85 403.75 360.75 401.45 362.25 399.95 L359.85 398.75 343.85 393.4 M320.2 426.25 L320.55 425.35 320.65 425.15 320.75 424.95 321.4 423.6 322.15 422.15 322.7 421.3 329.8 410.65 M320.2 426.25 L322.65 427.05 Q326.1 428.5 330.3 432.5 332.85 434.95 335.5 436.9 338.45 437.15 341.0 427.95 340.85 427.25 339.8 426.45 331.35 418.35 329.8 410.65 M340.95 396.5 L341.8 395.9 346.35 423.6 M340.95 396.5 Q335.75 401.0 335.85 406.25 336.3 416.7 346.35 423.6" fill="none" stroke="#000000" stroke-linecap="round" stroke-linejoin="round" stroke-width="1.0"/>
    <path d="M310.75 364.5 Q310.45 360.1 314.6 357.7 319.5 355.25 324.15 358.2 329.25 361.3 333.3 368.9 334.35 370.8 334.35 372.45 L334.5 373.25 336.8 381.45 338.7 380.55 337.0 374.7 Q336.1 372.1 337.15 371.35 337.8 371.0 338.25 371.35 339.1 371.95 339.7 373.95 L341.3 379.35 342.3 378.85 M338.7 374.05 L338.3 374.45 Q338.0 374.55 337.75 374.25 L337.35 373.6 Q337.25 373.15 337.4 372.85 337.5 372.45 337.8 372.35 L338.4 372.6 338.75 373.25 338.7 374.05 M329.5 409.55 L338.5 396.15 336.8 386.6 336.7 386.25 Q336.2 383.05 335.6 381.7 L335.45 381.35 Q334.9 380.3 333.8 380.0 L332.45 379.9 Q330.5 380.25 330.25 382.15 M330.8 386.0 Q331.15 385.4 331.9 385.2 333.65 384.75 334.35 387.05 L335.45 391.15 335.45 391.25 334.75 391.7 Q334.55 392.15 334.7 392.9 L335.8 398.75 335.8 398.85 332.85 401.85 330.8 401.8 330.5 401.15 M336.8 381.45 Q337.4 382.25 337.65 383.45 337.9 384.55 337.55 385.25 L336.8 386.6 342.05 384.05 M335.6 381.7 L336.8 381.45 M329.8 380.45 L330.25 382.15 M331.3 388.4 Q331.05 387.85 331.15 387.35 331.3 386.8 331.65 386.65 L332.5 386.75 333.05 387.3 333.2 387.6 Q333.45 388.1 333.35 388.65 L332.85 389.3 332.0 389.2 331.5 388.75 331.3 388.4 Q331.95 387.4 333.05 387.3 M333.2 387.6 Q332.15 387.7 331.5 388.75 M332.0 395.05 L331.8 394.2 Q327.3 393.4 326.35 388.1 325.9 384.85 328.05 383.2 M331.8 394.2 L331.65 393.55 M338.5 396.15 L340.15 393.6 340.05 392.9 339.5 390.3 339.2 388.55 341.3 387.5 342.25 392.15 343.1 392.2 343.65 392.35 M334.75 391.7 Q334.45 392.15 334.65 393.0 L335.8 398.85 M342.25 392.15 L342.15 392.15 340.9 392.7 340.55 393.05 340.4 393.25 340.15 393.6 M342.45 392.7 L341.35 393.15 Q341.15 393.2 341.2 393.5 L340.9 393.95 341.4 394.15 342.55 393.55 342.6 393.55 342.9 393.05 342.85 392.8 Q342.75 392.6 342.45 392.7 M340.9 393.95 L340.35 394.75 340.4 395.1 342.6 393.8 342.55 393.55 M343.85 393.4 L342.9 393.05 M341.8 395.9 L341.65 395.0 Q342.2 394.45 343.0 394.6 L343.05 395.1 M340.4 393.25 L340.05 392.9 M342.15 392.15 Q341.9 390.75 339.5 390.3 M331.9 385.2 Q333.55 384.85 334.25 387.15 L335.45 391.25 M329.8 410.65 L332.7 406.35 337.6 398.9 338.65 397.3 340.35 394.75 M321.5 421.55 L321.4 421.75 320.05 424.2 319.85 424.6 319.55 425.3 319.45 425.5 319.2 426.0 318.9 427.0 318.85 427.35 318.7 427.85 Q318.4 428.5 317.75 428.95 M319.2 426.0 L317.65 426.05 Q317.35 426.15 317.15 426.35 L316.8 426.7 316.4 427.4 316.3 427.95 M320.05 424.2 L318.3 425.5 318.05 425.65 317.65 426.05 M319.9 428.2 L319.95 427.85 320.2 426.25 M365.05 399.8 L364.95 399.7 Q364.6 399.4 363.55 399.1 L363.3 399.0 M362.25 399.95 L362.55 399.7 359.85 398.75 M362.55 399.7 L364.45 400.25 364.15 400.55 M349.7 426.45 Q351.95 427.95 353.45 427.65 354.35 427.35 355.05 426.55 L356.1 425.15 357.05 423.3 358.1 420.55 360.0 412.35 M337.6 398.9 L338.8 397.9 338.65 397.3 M334.2 398.95 L333.7 398.9 333.4 398.65 333.35 398.45 333.25 397.85 333.5 397.45 334.0 397.55 334.3 397.8 334.4 398.0 334.45 398.6 334.2 398.95 M338.8 397.9 L340.95 396.5 M346.35 423.6 L346.6 425.35 347.05 428.05 347.55 427.9 348.4 427.6 348.25 426.85 348.25 426.8 347.85 424.3 347.8 424.1 M331.25 401.3 L331.15 401.1 331.05 400.5 331.35 400.05 331.85 400.1 332.2 400.45 332.3 400.6 332.3 400.65 332.35 401.25 332.1 401.7 331.55 401.6 331.25 401.3 Q331.65 400.65 332.3 400.65 M331.15 401.1 Q331.55 400.45 332.2 400.45 M332.7 406.35 Q332.4 407.0 332.7 409.85 334.25 420.75 345.4 426.35 L346.6 425.35 M348.25 426.8 L348.4 426.65 348.25 425.4 M347.05 428.05 L346.05 427.9 345.7 428.2 347.5 428.4 348.65 427.9 348.75 427.85 Q349.35 427.15 348.65 426.7 L348.4 426.65 M348.05 424.2 L347.85 424.3 M348.4 427.6 L348.55 427.4 348.7 427.15 348.45 426.95 348.25 426.85 M349.35 433.35 L348.8 430.15 348.5 430.3 347.5 430.55 348.1 434.35 M348.95 430.05 Q348.9 430.05 348.8 430.15 M347.5 430.55 L346.05 430.5 346.9 435.4 M344.4 434.3 L345.35 432.4 344.8 428.8 Q341.55 441.2 335.5 436.9 M345.7 428.2 L346.05 430.5 M349.45 429.65 L349.65 428.95 349.35 427.35 Q349.2 426.9 348.65 426.7 M345.4 426.35 L345.7 428.2 M348.7 437.95 L348.7 438.05 Q349.55 438.2 350.0 437.6 L350.0 437.4 M350.95 436.6 L349.8 438.2 350.4 443.65 M349.8 438.2 L347.55 438.25 M344.8 428.8 L341.0 427.95" fill="none" stroke="#000000" stroke-linecap="round" stroke-linejoin="round" stroke-opacity="0.5019608" stroke-width="1.0"/>
  </g>
</svg>
