<?xml version="1.0" encoding="UTF-8" standalone="no"?>
<svg xmlns:xlink="http://www.w3.org/1999/xlink" height="150.2px" width="114.95px" xmlns="http://www.w3.org/2000/svg">
  <g transform="matrix(1.0, 0.0, 0.0, 1.0, -342.05, -126.7)">
    <path d="M366.1 150.8 Q370.6 135.0 382.95 129.6 395.45 124.25 411.0 128.7 429.1 133.4 434.35 155.95 L430.65 152.75 Q426.55 157.15 428.25 165.95 L429.3 171.2 429.4 171.75 Q434.35 194.4 445.05 200.0 459.4 207.5 456.5 226.8 453.45 247.1 437.6 257.95 L439.1 251.55 Q424.5 266.75 399.85 276.9 374.55 266.8 359.95 251.6 L361.45 258.0 Q345.6 247.15 342.55 226.85 339.65 207.55 354.0 200.05 364.8 194.4 364.9 172.15 362.9 159.2 366.1 150.8" fill="#000000" fill-rule="evenodd" stroke="none"/>
  </g>
</svg>
