<?xml version="1.0" encoding="UTF-8" standalone="no"?>
<svg xmlns:xlink="http://www.w3.org/1999/xlink" height="13.4px" width="42.5px" xmlns="http://www.w3.org/2000/svg">
  <g transform="matrix(1.0, 0.0, 0.0, 1.0, -378.7, -129.75)">
    <path d="M382.65 139.95 Q383.45 140.5 384.5 140.85 393.15 140.25 399.95 142.65 397.45 136.95 391.05 134.95 L388.75 134.85 Q386.2 134.5 383.75 133.3 381.45 132.15 379.2 130.25 379.15 135.25 380.85 138.0 381.55 139.15 382.65 139.95 M408.85 134.95 Q402.45 136.95 399.95 142.65 406.75 140.25 415.4 140.85 416.45 140.5 417.3 139.95 418.35 139.15 419.05 138.0 420.75 135.25 420.7 130.25 418.45 132.15 416.15 133.3 413.7 134.5 411.2 134.85 L408.85 134.95" fill="none" stroke="#000000" stroke-linecap="round" stroke-linejoin="round" stroke-opacity="0.5019608" stroke-width="1.0"/>
  </g>
</svg>
