<?xml version="1.0" encoding="UTF-8" standalone="no"?>
<svg xmlns:xlink="http://www.w3.org/1999/xlink" height="25.2px" width="37.4px" xmlns="http://www.w3.org/2000/svg">
  <g transform="matrix(1.0, 0.0, 0.0, 1.0, -381.25, -132.3)">
    <path d="M394.2 142.65 L393.2 141.35 393.25 142.65 Q393.2 147.55 390.0 151.95 389.7 146.25 385.6 142.05 L385.6 147.0 Q383.45 151.6 382.85 157.5 L381.4 157.5 381.25 154.1 381.25 153.9 381.25 153.65 Q381.3 144.85 382.0 140.75 L382.95 139.5 Q389.15 132.25 399.95 132.3 410.75 132.25 416.95 139.5 L417.9 140.75 Q418.6 144.85 418.65 153.65 L418.65 153.9 418.65 154.1 418.55 157.5 417.05 157.5 Q416.45 151.6 414.3 147.0 L414.3 146.05 Q412.75 149.25 409.35 151.55 410.2 147.0 408.75 142.65 L407.6 140.0 406.25 142.65 Q402.75 148.5 395.65 152.0 396.95 146.7 394.2 142.65" fill="#000000" fill-rule="evenodd" stroke="none"/>
  </g>
</svg>
