<?xml version="1.0" encoding="UTF-8" standalone="no"?>
<svg xmlns:xlink="http://www.w3.org/1999/xlink" height="47.15px" width="47.2px" xmlns="http://www.w3.org/2000/svg">
  <g transform="matrix(1.0, 0.0, 0.0, 1.0, -376.35, -126.3)">
    <path d="M413.35 172.95 Q419.35 169.7 422.95 164.0 423.9 147.55 417.3 134.2 L417.05 133.7 Q408.8 122.65 399.95 129.25 391.1 122.65 382.85 133.7 L382.6 134.2 Q376.0 147.55 376.95 164.0 380.55 169.7 386.55 172.95" fill="none" stroke="#000000" stroke-linecap="round" stroke-linejoin="round" stroke-width="1.0"/>
    <path d="M386.55 172.95 Q382.8 165.45 382.85 157.5 382.9 155.95 383.3 154.45 384.05 150.35 385.6 147.0 L384.95 143.45 Q393.35 142.9 399.95 145.25 406.55 142.9 414.95 143.45 L414.3 147.0 Q415.85 150.35 416.65 154.45 L417.05 157.5 Q417.1 165.45 413.35 172.95 Z" fill="none" stroke="#000000" stroke-linecap="round" stroke-linejoin="round" stroke-opacity="0.5019608" stroke-width="1.0"/>
  </g>
</svg>
