<?xml version="1.0" encoding="UTF-8" standalone="no"?>
<svg xmlns:xlink="http://www.w3.org/1999/xlink" height="92.5px" width="59.3px" xmlns="http://www.w3.org/2000/svg">
  <g transform="matrix(1.0, 0.0, 0.0, 1.0, -370.65, -128.95)">
    <path d="M401.45 129.45 Q411.15 130.95 416.8 137.6 421.4 142.9 422.0 149.4 423.8 155.3 424.5 162.1 425.55 168.15 424.6 172.25 425.55 177.25 427.75 182.7 432.35 196.0 424.65 202.65 425.3 205.35 425.1 206.75 428.8 211.0 428.1 218.15 L427.5 217.55 427.0 218.5 425.45 220.95 423.6 220.65 Q422.1 220.3 420.9 219.45 L420.65 219.3 419.85 220.8 Q419.45 219.7 419.45 218.75 L418.5 219.95 Q418.1 217.5 418.0 215.45 417.6 209.1 420.1 207.05 419.55 205.85 419.5 203.6 L416.9 203.05 Q415.35 202.45 413.95 201.25 410.95 194.45 414.15 174.85 L414.2 174.75 Q414.2 162.25 411.1 150.25 410.3 152.15 408.55 153.2 L407.8 150.6 Q406.3 153.3 404.6 155.35 L402.85 157.25 402.85 152.95 401.25 157.05 Q400.3 155.15 400.4 152.75 400.15 156.0 399.3 158.75 396.2 157.0 394.65 153.25 394.2 155.0 394.65 156.75 L392.85 155.15 Q391.4 153.5 390.4 151.0 389.8 152.75 390.4 154.55 389.45 153.95 389.25 152.4 L387.5 159.6 Q386.5 166.5 386.25 173.4 L386.35 173.75 386.35 173.95 386.35 174.1 Q389.6 193.75 386.65 200.45 385.25 201.65 383.7 202.25 L381.1 202.8 Q381.05 205.05 380.5 206.25 383.8 208.95 382.1 219.15 L381.15 217.95 Q381.15 218.9 380.75 220.0 L379.95 218.5 379.7 218.65 Q378.5 219.5 377.0 219.85 L375.15 220.15 Q374.5 219.4 373.6 217.7 L373.1 216.75 372.5 217.35 Q371.8 210.2 375.5 205.95 375.3 204.55 375.95 201.85 368.25 195.2 372.85 181.9 375.95 174.15 375.8 167.25 L375.65 168.45 Q375.25 166.75 375.15 164.9 L375.15 164.4 Q374.1 162.35 374.6 156.85 376.95 148.85 378.8 144.5 385.0 130.2 398.25 129.45 399.85 130.95 401.45 129.45 M422.0 149.4 L422.0 149.45 421.7 148.45 422.0 149.4" fill="none" stroke="#000000" stroke-linecap="round" stroke-linejoin="round" stroke-width="1.0"/>
    <path d="M389.25 152.4 Q390.55 148.1 391.45 143.35 392.45 138.25 397.75 135.55 M400.25 142.55 Q400.9 148.65 400.65 150.65 L400.4 152.75 M375.8 167.25 L376.4 162.6 376.5 163.75 Q377.05 170.25 378.75 174.95 379.75 177.7 381.15 179.8 380.2 173.25 381.15 163.35 L381.15 162.15 Q381.4 154.85 385.55 147.25 M378.75 174.95 Q377.95 179.05 375.75 184.0 373.75 196.05 377.05 201.05 375.55 192.5 379.0 183.95 378.05 191.55 378.45 197.6 379.3 194.5 380.9 191.4 M383.65 182.2 Q383.85 191.5 382.75 196.2 384.15 190.9 384.7 184.05 L383.65 182.2 383.5 181.9 Q380.75 175.35 381.15 163.35 M382.05 198.8 L382.3 197.75 382.3 197.6 382.75 196.2 M386.35 173.95 L386.25 173.4 Q386.0 180.35 386.5 187.25 L384.7 184.05 M383.7 202.25 Q385.95 198.2 386.85 190.2 387.55 183.75 386.35 174.1 M394.65 153.25 Q393.1 149.95 396.0 143.25 M392.85 155.15 Q389.35 148.7 395.9 139.85 M384.65 140.15 Q374.8 154.5 375.15 164.4 M422.0 149.45 Q419.55 142.0 415.4 138.65 M424.6 172.25 Q424.15 174.15 423.25 175.6 424.15 173.0 421.15 167.0 422.0 170.0 421.15 173.0 420.3 177.05 418.85 179.2 419.2 176.15 418.0 173.15 417.55 180.45 414.15 186.45 415.35 183.6 414.15 177.0 L414.2 174.75 M418.0 173.15 Q418.2 168.3 417.5 163.5 416.55 157.25 414.05 151.05 M414.15 174.85 Q413.05 184.3 413.75 191.0 414.65 199.0 416.9 203.05 M419.7 192.2 Q421.3 195.3 422.15 198.4 422.55 192.35 421.6 184.75 425.05 193.3 423.55 201.85 426.85 196.85 424.85 184.8 422.6 179.8 421.85 175.6 M415.9 184.75 Q416.45 191.65 417.85 197.0 416.75 192.25 416.95 182.8 M411.1 150.25 Q410.5 146.55 409.2 142.75 407.8 138.0 401.65 135.65 M407.8 150.6 Q409.45 149.2 406.9 143.2 M403.15 140.45 Q407.85 148.1 404.6 155.35 M424.65 202.65 L423.35 203.6 423.0 203.9 421.25 203.75 419.5 203.6 M423.0 203.9 Q422.9 201.15 422.15 198.4 M417.85 197.0 L418.3 198.4 418.3 198.55 418.55 199.6 M420.1 207.05 L420.8 207.95 421.55 208.35 422.6 208.55 423.35 208.5 423.6 208.45 424.6 207.85 424.65 207.75 425.1 206.75 M420.9 219.45 Q419.35 215.15 420.75 210.55 M418.0 215.45 Q418.8 208.7 420.8 207.95 M423.6 220.65 Q422.85 216.25 423.6 208.45 426.05 213.3 425.55 218.75 M422.6 208.55 Q421.75 210.95 421.95 213.35 M424.65 207.75 Q427.7 213.25 427.0 218.5 M381.1 202.8 L379.35 202.95 377.6 203.1 377.25 202.8 375.95 201.85 M375.5 205.95 Q375.65 206.6 375.95 206.95 L376.0 207.05 376.4 207.4 377.0 207.65 377.25 207.7 378.0 207.75 379.05 207.55 Q380.0 207.25 380.5 206.25 M379.85 209.75 Q380.75 214.35 379.7 218.65 M375.95 206.95 Q372.9 212.45 373.6 217.7 M377.0 207.65 Q377.75 215.45 377.0 219.85 M376.4 207.4 Q373.9 212.75 375.0 218.1 M378.0 207.75 Q378.85 210.15 378.65 212.55 M379.35 202.95 Q383.5 201.65 384.2 193.95 M378.45 197.6 Q377.7 200.35 377.6 203.1 M375.75 184.0 Q370.5 194.6 377.25 202.8 M424.85 184.8 Q430.1 195.4 423.35 203.6 M421.25 203.75 Q417.1 202.45 416.4 194.75" fill="none" stroke="#000000" stroke-linecap="round" stroke-linejoin="round" stroke-opacity="0.49803922" stroke-width="1.0"/>
  </g>
</svg>
