<?xml version="1.0" encoding="UTF-8" standalone="no"?>
<svg xmlns:xlink="http://www.w3.org/1999/xlink" height="20.8px" width="37.4px" xmlns="http://www.w3.org/2000/svg">
  <g transform="matrix(1.0, 0.0, 0.0, 1.0, 18.75, 163.3)">
    <path d="M-0.05 -158.2 L-3.15 -159.0 -2.6 -161.1 Q4.6 -160.65 8.05 -154.2 4.25 -156.85 -0.05 -158.2 M16.2 -156.25 L17.9 -159.25 Q18.6 -155.15 18.65 -146.35 L18.65 -146.1 18.65 -145.9 18.55 -142.5 17.05 -142.5 Q16.45 -148.4 14.3 -153.0 L14.4 -153.1 14.35 -153.15 Q13.05 -155.1 10.5 -157.35 L11.7 -158.75 Q14.45 -157.05 15.4 -151.15 16.3 -153.7 16.2 -156.25 M-14.4 -153.0 Q-16.55 -148.4 -17.15 -142.5 L-18.6 -142.5 -18.75 -145.9 -18.75 -146.1 -18.75 -146.35 Q-18.7 -155.15 -18.0 -159.25 L-14.4 -153.0 M-15.2 -160.55 Q-7.7 -161.65 -4.45 -155.5 -10.3 -160.15 -15.65 -158.25 L-15.2 -160.55" fill="#000000" fill-opacity="0.2" fill-rule="evenodd" stroke="none"/>
    <path d="M14.8 -158.15 L14.45 -156.05 10.6 -158.8 7.95 -156.45 -3.55 -160.55 -5.05 -158.2 -12.55 -160.55 Q3.1 -167.1 14.8 -158.15" fill="#ffffff" fill-opacity="0.2509804" fill-rule="evenodd" stroke="none"/>
  </g>
</svg>
