<?xml version="1.0" encoding="UTF-8" standalone="no"?>
<svg xmlns:xlink="http://www.w3.org/1999/xlink" height="20.15px" width="37.4px" xmlns="http://www.w3.org/2000/svg">
  <g transform="matrix(1.0, 0.0, 0.0, 1.0, 18.75, 162.65)">
    <path d="M17.9 -159.25 Q18.6 -155.15 18.65 -146.35 L18.65 -146.1 18.65 -145.9 18.55 -142.5 17.05 -142.5 Q16.1 -147.5 13.95 -152.3 L17.9 -159.25 M-0.35 -162.65 Q3.7 -156.05 -0.4 -149.95 1.25 -155.1 -1.55 -160.3 -4.0 -146.8 -17.15 -142.5 L-18.6 -142.5 -18.75 -145.9 -18.75 -146.1 -18.75 -146.35 Q-18.7 -155.15 -18.0 -159.25 L-12.05 -149.25 Q-5.9 -151.5 -1.55 -160.3 L-0.35 -162.65" fill="#000000" fill-opacity="0.2" fill-rule="evenodd" stroke="none"/>
    <path d="M-16.95 -152.2 Q-10.9 -154.65 -4.4 -156.1 L-7.65 -149.9 -16.95 -146.95 -16.95 -152.2 M3.75 -152.4 L1.4 -152.0 1.4 -157.2 8.5 -157.95 3.75 -152.4 M12.3 -158.15 L14.8 -158.2 15.25 -153.7 14.35 -153.65 12.3 -158.15" fill="#ffffff" fill-opacity="0.2509804" fill-rule="evenodd" stroke="none"/>
  </g>
</svg>
