<?xml version="1.0" encoding="UTF-8" standalone="no"?>
<svg xmlns:xlink="http://www.w3.org/1999/xlink" height="50.45px" width="31.7px" xmlns="http://www.w3.org/2000/svg">
  <g transform="matrix(1.0, 0.0, 0.0, 1.0, 17.1, 162.05)">
    <path d="M4.75 -161.75 Q7.15 -163.25 9.55 -157.4 11.9 -152.9 12.7 -148.05 13.35 -134.35 10.4 -119.9 12.0 -133.9 11.2 -147.9 10.05 -152.55 8.9 -155.35 L7.95 -157.35 Q5.75 -161.25 3.15 -159.25 L-0.05 -157.35 4.75 -161.75 M-0.05 -157.35 Q-5.0 -160.8 -6.35 -159.3 L-14.25 -142.75 Q-13.85 -127.05 -11.65 -111.6 -15.6 -127.7 -15.85 -144.05 L-7.9 -160.65 Q-5.1 -163.15 -0.05 -157.35" fill="#000000" fill-opacity="0.2" fill-rule="evenodd" stroke="none"/>
    <path d="M12.05 -148.65 L10.3 -153.75 12.1 -155.15 14.6 -151.0 12.05 -148.65 M-11.6 -150.55 L-13.75 -145.85 Q-15.3 -146.35 -17.1 -147.2 L-14.6 -151.25 -11.6 -150.55" fill="#ffffff" fill-opacity="0.2509804" fill-rule="evenodd" stroke="none"/>
  </g>
</svg>
