<?xml version="1.0" encoding="UTF-8" standalone="no"?>
<svg xmlns:xlink="http://www.w3.org/1999/xlink" height="46.3px" width="49.0px" xmlns="http://www.w3.org/2000/svg">
  <g transform="matrix(1.0, 0.0, 0.0, 1.0, 24.75, 160.0)">
    <path d="M-16.35 -137.55 L-17.9 -131.2 -16.0 -136.2 -14.0 -128.7 Q-12.4 -126.15 -10.5 -120.6 L-10.5 -116.95 -12.15 -120.2 Q-13.0 -117.45 -14.8 -116.45 -12.9 -118.75 -12.9 -121.45 -16.7 -116.1 -20.9 -113.7 -19.2 -115.9 -18.9 -119.45 -23.3 -124.0 -22.7 -132.55 -25.7 -127.1 -23.15 -122.05 -26.15 -124.5 -23.55 -132.5 -20.95 -140.45 -20.65 -148.1 L-20.45 -151.6 Q-17.75 -148.15 -16.35 -137.55 M24.0 -141.15 L21.75 -143.8 Q21.3 -135.6 24.25 -130.3 22.0 -130.65 21.35 -133.3 20.8 -130.7 23.1 -126.95 20.95 -127.75 20.25 -130.95 20.3 -122.65 16.5 -119.55 17.75 -122.85 17.85 -126.3 16.2 -120.6 13.1 -118.3 L12.1 -121.95 10.75 -119.45 10.75 -121.05 14.35 -128.8 16.7 -137.2 16.7 -130.35 Q19.35 -137.0 18.8 -144.95 L20.85 -150.05 Q22.2 -145.5 24.0 -141.15" fill="#000000" fill-opacity="0.2" fill-rule="evenodd" stroke="none"/>
    <path d="M-16.55 -160.0 L-6.4 -153.6 -11.45 -148.25 -17.15 -154.8 -16.55 -160.0 M1.8 -155.1 L6.45 -155.7 3.45 -151.8 -0.55 -150.0 1.8 -155.1 M10.6 -156.0 L17.05 -159.15 17.65 -154.65 12.4 -150.45 10.6 -156.0" fill="#ffffff" fill-opacity="0.2509804" fill-rule="evenodd" stroke="none"/>
  </g>
</svg>
