<?xml version="1.0" encoding="UTF-8" standalone="no"?>
<svg xmlns:xlink="http://www.w3.org/1999/xlink" height="28.35px" width="69.5px" xmlns="http://www.w3.org/2000/svg">
  <g transform="matrix(1.0, 0.0, 0.0, 1.0, 35.95, 156.55)">
    <path d="M33.4 -147.7 L33.55 -147.75 Q30.0 -143.9 25.95 -146.05 29.1 -141.55 25.95 -137.75 L25.0 -137.2 22.65 -135.4 Q20.5 -133.45 21.45 -131.95 L22.6 -130.55 Q19.3 -129.8 16.25 -133.75 16.75 -137.1 16.6 -140.5 18.8 -141.45 21.05 -144.1 22.65 -146.15 21.3 -148.5 23.4 -148.55 24.1 -149.65 27.6 -145.45 33.4 -147.7 M-25.9 -156.55 Q-20.3 -156.65 -19.05 -147.75 -21.0 -146.9 -20.1 -144.75 -18.7 -143.05 -17.45 -142.55 -16.75 -137.0 -14.65 -132.35 L-14.55 -130.0 Q-15.8 -128.35 -17.85 -128.2 -16.9 -128.85 -16.6 -129.45 -15.95 -131.95 -17.6 -133.0 L-18.9 -133.65 Q-19.8 -133.9 -20.4 -134.45 -20.1 -133.0 -20.9 -132.55 -20.8 -133.55 -24.9 -134.7 -29.0 -136.3 -25.95 -140.95 -29.0 -139.7 -31.95 -139.35 -28.5 -140.7 -27.15 -143.3 -25.4 -145.15 -31.55 -145.6 L-32.0 -145.65 -32.95 -145.75 Q-37.05 -146.15 -35.5 -150.25 -34.35 -154.05 -25.9 -156.55" fill="#000000" fill-opacity="0.2" fill-rule="evenodd" stroke="none"/>
  </g>
</svg>
