<?xml version="1.0" encoding="UTF-8" standalone="no"?>
<svg xmlns:xlink="http://www.w3.org/1999/xlink" height="52.8px" width="33.95px" xmlns="http://www.w3.org/2000/svg">
  <g transform="matrix(1.0, 0.0, 0.0, 1.0, -381.5, -135.6)">
    <path d="M399.95 142.65 Q395.0 139.2 393.65 140.7 L385.75 157.25 Q386.15 172.95 388.35 188.4 383.7 173.6 381.85 157.5 L381.5 154.15 390.85 137.05 Q395.25 134.0 399.95 142.65 L403.75 137.35 Q407.15 132.9 410.75 139.65 L415.45 149.35 415.3 152.0 Q414.25 166.5 410.3 180.95 412.05 166.55 411.2 152.1 410.05 147.45 408.9 144.65 L407.95 142.65 Q405.75 138.75 403.15 140.75 L399.95 142.65" fill="#000000" fill-rule="evenodd" stroke="none"/>
  </g>
</svg>
