<?xml version="1.0" encoding="UTF-8" standalone="no"?>
<svg xmlns:xlink="http://www.w3.org/1999/xlink" height="240.6px" width="244.4px" xmlns="http://www.w3.org/2000/svg">
  <g transform="matrix(1.0, 0.0, 0.0, 1.0, 122.3, 9.65)">
    <path d="M87.65 13.15 L89.65 24.15 Q95.85 53.95 109.25 83.55 114.55 95.15 120.95 106.75 L119.05 107.45 Q120.7 110.7 118.9 113.95 L122.1 113.95 Q118.95 126.35 116.7 138.7 108.2 185.05 111.75 230.95 L104.95 230.95 Q103.5 196.7 107.4 163.25 109.2 148.05 112.05 133.05 L113.6 125.5 111.85 125.75 Q114.7 122.1 111.95 118.45 L113.95 117.65 111.9 113.95 110.1 110.65 103.65 98.05 101.0 92.65 Q87.35 63.95 78.9 35.3 L77.35 29.85 74.5 18.85 Q81.1 15.3 87.65 13.15 M69.75 -4.1 L69.0 -0.25 Q68.85 -3.25 68.05 -4.25 L77.85 -9.65 76.7 -7.8 Q79.35 -8.65 79.9 -5.0 L81.3 -6.9 82.3 -3.05 74.55 2.25 71.3 4.35 70.8 1.8 69.75 -4.1 M-81.5 -6.9 L-80.1 -5.0 Q-79.55 -8.65 -76.9 -7.8 L-78.05 -9.65 -68.25 -4.25 Q-69.05 -3.25 -69.2 -0.25 L-69.95 -4.1 -71.0 1.8 -71.5 4.35 -74.75 2.25 -82.5 -3.05 -81.5 -6.9 M-74.7 18.85 L-77.55 29.85 -79.1 35.3 Q-87.55 63.95 -101.2 92.65 L-103.85 98.05 -110.3 110.65 -112.1 113.95 -114.15 117.65 -112.15 118.45 Q-114.9 122.1 -112.05 125.75 L-113.8 125.5 -112.25 133.05 Q-109.4 148.05 -107.6 163.25 -103.7 196.7 -105.15 230.95 L-111.95 230.95 Q-108.4 185.05 -116.9 138.7 -119.15 126.35 -122.3 113.95 L-119.1 113.95 Q-120.9 110.7 -119.25 107.45 L-121.15 106.75 Q-114.75 95.15 -109.45 83.55 -96.05 53.95 -89.85 24.15 L-87.85 13.15 Q-81.3 15.3 -74.7 18.85" fill="#000000" fill-opacity="0.2509804" fill-rule="evenodd" stroke="none"/>
    <path d="M61.9 90.75 Q65.0 97.35 68.7 103.85 67.7 104.35 66.65 104.8 68.5 107.2 68.2 110.95 L70.0 109.65 Q74.25 117.55 72.7 128.4 71.3 134.0 70.2 139.6 62.5 178.35 67.35 218.1 L59.75 218.1 Q58.2 179.45 50.4 139.55 48.3 127.75 49.95 115.45 L52.25 115.75 Q51.2 113.6 51.95 111.45 L49.95 112.35 Q49.45 105.25 48.4 98.35 45.6 80.25 38.95 63.5 46.6 59.75 49.8 53.95 53.5 72.75 61.9 90.75 M-62.1 90.75 Q-53.7 72.75 -50.0 53.95 -46.8 59.75 -39.15 63.5 -45.8 80.25 -48.6 98.35 -49.65 105.25 -50.15 112.35 L-52.15 111.45 Q-51.4 113.6 -52.45 115.75 L-50.15 115.45 Q-48.5 127.75 -50.6 139.55 -58.4 179.45 -59.95 218.1 L-67.55 218.1 Q-62.7 178.35 -70.4 139.6 -71.5 134.0 -72.9 128.4 -74.45 117.55 -70.2 109.65 L-68.4 110.95 Q-68.7 107.2 -66.85 104.8 L-68.9 103.85 Q-65.2 97.35 -62.1 90.75" fill="#000000" fill-opacity="0.5019608" fill-rule="evenodd" stroke="none"/>
  </g>
</svg>
