<?xml version="1.0" encoding="UTF-8" standalone="no"?>
<svg xmlns:xlink="http://www.w3.org/1999/xlink" height="228.55px" width="78.65px" xmlns="http://www.w3.org/2000/svg">
  <g transform="matrix(1.0, 0.0, 0.0, 1.0, -321.25, -307.0)">
    <path d="M378.7 308.75 Q385.95 314.75 399.9 315.35 L399.9 343.9 395.1 343.9 Q385.25 374.4 378.1 407.1 L375.35 420.35 378.8 433.3 Q381.1 443.05 376.9 451.85 365.4 469.45 362.05 489.2 L361.15 495.55 362.9 499.85 362.05 503.3 363.0 506.5 363.0 506.8 Q363.65 511.3 362.45 515.0 361.2 521.15 358.7 526.8 358.65 525.15 358.15 523.65 L356.8 521.0 Q355.55 528.35 352.35 535.55 351.85 532.3 349.95 529.05 348.2 531.35 344.35 533.5 344.95 530.9 343.8 528.0 337.55 529.6 331.85 533.3 332.25 530.2 334.4 527.5 329.05 528.7 324.3 531.6 326.35 527.1 330.15 523.9 L328.1 524.2 Q324.65 524.8 321.25 526.1 328.85 518.35 337.65 512.1 L344.5 503.45 344.5 498.7 347.75 495.55 342.7 452.8 Q341.15 442.45 344.4 433.6 L349.0 420.0 348.25 407.1 348.05 400.9 348.05 400.4 Q347.15 351.8 362.9 315.3 L362.9 307.0 378.7 308.75" fill="#000000" fill-rule="evenodd" stroke="none"/>
  </g>
</svg>
