<?xml version="1.0" encoding="UTF-8" standalone="no"?>
<svg xmlns:xlink="http://www.w3.org/1999/xlink" height="249.65px" width="169.45px" xmlns="http://www.w3.org/2000/svg">
  <g transform="matrix(1.0, 0.0, 0.0, 1.0, -315.2, -306.45)">
    <path d="M436.9 306.95 L436.9 315.3 Q452.65 351.8 451.75 400.4 L451.75 400.9 451.55 407.1 450.8 420.0 455.4 433.6 Q458.65 442.45 457.1 452.8 L452.05 495.55 455.3 498.7 455.3 503.45 481.4 536.45 Q483.65 540.25 484.05 544.2 L484.15 545.35 Q484.1 548.2 481.8 548.55 479.95 552.6 477.15 552.15 475.65 554.15 472.75 553.45 470.15 555.2 466.75 554.1 L464.95 555.6 456.3 555.6 453.95 553.6 Q446.8 545.65 445.45 536.3 443.8 526.25 438.6 517.85 436.2 513.6 436.65 508.15 L436.8 506.8 436.8 506.5 437.75 503.3 436.9 499.85 438.65 495.55 Q436.25 472.25 422.9 451.85 418.7 443.05 421.0 433.3 L424.45 420.35 421.7 407.1 Q414.55 374.4 404.7 343.9 L395.1 343.9 Q385.25 374.4 378.1 407.1 L375.35 420.35 378.8 433.3 Q381.1 443.05 376.9 451.85 363.55 472.25 361.15 495.55 L362.9 499.85 362.05 503.3 363.0 506.5 363.0 506.8 363.15 508.15 Q363.6 513.6 361.2 517.85 356.0 526.25 354.35 536.3 353.0 545.65 345.85 553.6 L343.5 555.6 334.85 555.6 Q333.75 554.9 333.05 554.1 329.65 555.2 327.05 553.45 324.15 554.15 322.65 552.15 319.85 552.6 318.0 548.55 315.7 548.2 315.7 545.3 L315.75 544.2 Q316.15 540.25 318.4 536.45 L344.5 503.45 344.5 498.7 347.75 495.55 342.7 452.8 Q341.15 442.45 344.4 433.6 L349.0 420.0 348.25 407.1 348.05 400.9 348.05 400.4 Q347.15 351.8 362.9 315.3 L362.9 307.0" fill="none" stroke="#000000" stroke-linecap="round" stroke-linejoin="round" stroke-width="1.0"/>
    <path d="M395.1 343.9 L392.7 343.9 Q387.6 337.45 380.65 331.4 M404.7 343.9 L407.1 343.9 Q412.2 337.45 419.15 331.4 M318.0 548.55 Q317.65 547.75 318.45 545.45 L321.45 541.2 M322.65 552.15 Q321.3 550.85 322.15 547.45 L326.45 542.6 M319.3 546.3 L320.85 546.6 M317.5 544.75 L316.65 544.05 M448.85 424.2 L446.6 431.7 437.1 433.1 433.4 423.35 M350.95 424.2 L353.2 431.7 362.7 433.1 366.4 423.35 M336.15 542.05 L336.15 544.15 Q337.0 543.35 338.0 543.05 M334.1 550.2 L335.1 550.65 342.2 550.65 343.3 550.2 M330.35 543.9 L326.4 548.75 Q324.8 552.2 327.05 553.45 M333.05 554.1 Q331.4 552.15 332.05 549.65 L334.55 546.5 Q335.25 545.05 336.15 544.15 M327.6 549.55 L330.75 549.55 M337.25 546.3 Q341.05 544.95 344.85 546.3 M466.75 554.1 Q468.4 552.15 467.75 549.65 L465.25 546.5 Q464.55 545.05 463.65 544.15 L461.8 543.05 M463.65 542.05 L463.65 544.15 M480.5 546.3 L478.95 546.6 M477.15 552.15 Q478.5 550.85 477.65 547.45 L473.35 542.6 M481.8 548.55 Q482.15 547.75 481.35 545.45 L478.35 541.2 M469.45 543.9 L473.4 548.75 Q475.0 552.2 472.75 553.45 M472.2 549.55 L469.05 549.55 M476.45 548.2 L474.85 548.2 M462.55 546.3 Q458.75 544.95 454.95 546.3 M465.7 550.2 L464.7 550.65 457.6 550.65 456.5 550.2 M482.3 544.75 L483.15 544.05 M323.35 548.2 L324.95 548.2" fill="none" stroke="#000000" stroke-linecap="round" stroke-linejoin="round" stroke-opacity="0.5019608" stroke-width="1.0"/>
  </g>
</svg>
