<?xml version="1.0" encoding="UTF-8" standalone="no"?>
<svg xmlns:xlink="http://www.w3.org/1999/xlink" height="249.65px" width="169.4px" xmlns="http://www.w3.org/2000/svg">
  <g transform="matrix(1.0, 0.0, 0.0, 1.0, -315.2, -306.45)">
    <path d="M380.65 331.4 Q387.6 337.45 392.7 343.9 L395.1 343.9 M404.7 343.9 L407.1 343.9 Q412.2 337.45 419.15 331.4 M318.0 548.55 Q317.65 547.75 318.45 545.45 323.4 541.1 324.9 536.25 M319.3 546.3 L320.85 546.6 M322.65 552.15 Q321.3 550.85 322.15 547.45 327.45 542.35 329.8 536.35 M327.05 553.45 Q324.8 552.2 326.4 548.75 331.65 543.2 334.1 537.1 M317.5 544.75 L316.65 544.05 M448.85 424.2 L446.6 431.7 437.1 433.1 433.4 423.35 M466.75 554.1 Q468.4 552.15 467.75 549.65 L465.25 546.5 459.9 537.2 Q459.05 536.4 458.05 536.1 M350.95 424.2 L353.2 431.7 362.7 433.1 366.4 423.35 M339.9 535.1 L339.9 537.2 Q340.75 536.4 341.75 536.1 M334.1 550.2 L335.1 550.65 342.2 550.65 343.3 550.2 M333.05 554.1 Q331.4 552.15 332.05 549.65 L334.55 546.5 339.9 537.2 M327.6 549.55 L330.75 549.55 M337.25 546.3 Q341.05 544.95 344.85 546.3 M459.9 535.1 L459.9 537.2 M481.8 548.55 Q482.15 547.75 481.35 545.45 476.4 541.1 474.9 536.25 M477.15 552.15 Q478.5 550.85 477.65 547.45 472.35 542.35 470.0 536.35 M480.5 546.3 L478.95 546.6 M472.75 553.45 Q475.0 552.2 473.4 548.75 468.15 543.2 465.7 537.1 M472.2 549.55 L469.05 549.55 M476.45 548.2 L474.85 548.2 M462.55 546.3 Q458.75 544.95 454.95 546.3 M465.7 550.2 L464.7 550.65 457.6 550.65 456.5 550.2 M482.3 544.75 L483.15 544.05 M323.35 548.2 L324.95 548.2" fill="none" stroke="#000000" stroke-linecap="round" stroke-linejoin="round" stroke-opacity="0.5019608" stroke-width="1.0"/>
    <path d="M395.1 343.9 L404.7 343.9 Q414.55 374.4 421.7 407.1 L424.45 420.35 421.0 433.3 Q418.7 443.05 422.9 451.85 436.25 472.25 438.65 495.55 L436.9 499.85 437.75 503.3 436.8 506.5 436.8 506.8 436.65 508.15 Q436.2 513.6 438.6 517.85 443.8 526.25 445.45 536.3 446.8 545.65 453.95 553.6 L456.3 555.6 464.95 555.6 466.75 554.1 Q470.15 555.2 472.75 553.45 475.65 554.15 477.15 552.15 479.95 552.6 481.8 548.55 484.1 548.2 484.1 545.3 L484.05 544.2 Q483.65 540.25 481.4 536.45 L455.3 503.45 455.3 498.7 452.05 495.55 457.1 452.8 Q458.65 442.45 455.4 433.6 L450.8 420.0 451.55 407.1 451.75 400.9 451.75 400.4 Q452.65 351.8 436.9 315.3 L436.9 306.95 M362.9 307.0 L362.9 315.3 Q347.15 351.8 348.05 400.4 L348.05 400.9 348.25 407.1 349.0 420.0 344.4 433.6 Q341.15 442.45 342.7 452.8 L347.75 495.55 344.5 498.7 344.5 503.45 318.4 536.45 Q316.15 540.25 315.75 544.2 L315.7 545.3 Q315.7 548.2 318.0 548.55 319.85 552.6 322.65 552.15 324.15 554.15 327.05 553.45 329.65 555.2 333.05 554.1 333.75 554.9 334.85 555.6 L343.5 555.6 345.85 553.6 Q353.0 545.65 354.35 536.3 356.0 526.25 361.2 517.85 363.6 513.6 363.15 508.15 L363.0 506.8 363.0 506.5 362.05 503.3 362.9 499.85 361.15 495.55 362.05 489.2 Q365.4 469.45 376.9 451.85 381.1 443.05 378.8 433.3 L375.35 420.35 378.1 407.1 Q385.25 374.4 395.1 343.9" fill="none" stroke="#000000" stroke-linecap="round" stroke-linejoin="round" stroke-width="1.0"/>
  </g>
</svg>
