<?xml version="1.0" encoding="UTF-8" standalone="no"?>
<svg xmlns:xlink="http://www.w3.org/1999/xlink" height="250.45px" width="169.45px" xmlns="http://www.w3.org/2000/svg">
  <g transform="matrix(1.0, 0.0, 0.0, 1.0, -315.2, -306.45)">
    <path d="M436.9 306.95 L436.9 315.3 Q452.65 351.8 451.75 400.4 L451.75 400.9 451.55 407.1 450.8 420.0 455.4 433.6 456.25 436.1 Q457.5 440.5 457.6 445.3 457.7 448.95 457.1 452.8 L452.05 495.55 455.3 498.7 455.3 503.45 481.4 536.45 Q484.15 541.1 484.15 546.05 L484.15 546.4 484.05 547.95 Q482.4 552.1 478.0 552.7 476.3 554.9 469.15 554.75 465.05 557.55 456.35 555.6 L453.95 553.6 Q446.8 545.65 445.45 536.3 444.0 527.6 439.95 520.1 L438.6 517.85 Q435.9 513.1 436.8 506.8 L436.8 506.5 437.75 503.3 436.9 499.85 438.65 495.55 437.95 490.05 Q436.8 483.0 434.6 476.2 430.55 463.55 422.9 451.85 420.9 447.7 420.4 443.35 419.95 439.8 420.5 436.1 L421.0 433.3 424.45 420.35 421.7 407.1 Q414.55 374.4 404.7 343.9 L395.1 343.9 Q385.25 374.4 378.1 407.1 L375.35 420.35 378.8 433.3 Q381.1 443.05 376.9 451.85 369.25 463.55 365.2 476.2 362.15 485.6 361.15 495.55 L362.9 499.85 362.05 503.3 363.0 506.5 363.0 506.8 Q363.9 513.1 361.2 517.85 L359.9 520.1 Q355.8 527.6 354.35 536.3 353.0 545.65 345.85 553.6 L343.5 555.6 Q334.75 557.55 330.65 554.75 323.5 554.9 321.8 552.7 317.4 552.1 315.8 547.95 L315.7 546.4 315.7 546.0 Q315.65 541.1 318.4 536.45 L344.5 503.45 344.5 498.7 347.75 495.55 342.7 452.8 Q341.15 442.45 344.4 433.6 L349.0 420.0 348.25 407.1 348.05 400.9 348.05 400.4 Q347.15 351.8 362.9 315.3 L362.9 307.0" fill="none" stroke="#000000" stroke-linecap="round" stroke-linejoin="round" stroke-width="1.0"/>
    <path d="M395.1 343.9 L392.7 343.9 Q387.6 337.45 380.65 331.4 M404.7 343.9 L407.1 343.9 Q412.2 337.45 419.15 331.4 M320.05 547.45 L321.35 544.65 Q319.45 543.45 317.4 543.2 L316.7 545.6 Q316.35 547.65 317.65 549.0 318.45 547.6 320.05 547.45 M315.7 546.0 Q316.0 541.85 319.2 539.55 M448.85 424.2 L446.6 431.7 437.1 433.1 433.4 423.35 M350.95 424.2 L353.2 431.7 362.7 433.1 366.4 423.35 M324.4 545.1 L323.15 548.3 Q323.4 550.75 325.0 552.25 326.2 550.15 328.9 549.55 L330.15 546.05 Q327.3 544.6 324.4 545.1 M342.55 550.4 L344.25 547.1 Q338.8 545.55 334.0 546.25 332.6 547.7 332.4 549.55 332.2 552.55 335.45 554.4 337.8 551.55 342.55 550.4 M330.65 554.75 Q329.45 547.85 335.1 542.3 M479.75 547.45 L478.45 544.65 Q480.35 543.45 482.4 543.2 L483.1 545.6 Q483.45 547.65 482.15 549.0 481.35 547.6 479.75 547.45 M470.9 549.55 L469.65 546.05 Q472.5 544.6 475.4 545.1 L476.65 548.3 Q476.4 550.75 474.8 552.25 473.6 550.15 470.9 549.55 M467.4 549.55 Q467.6 552.55 464.35 554.4 462.0 551.55 457.25 550.4 L455.55 547.1 Q461.0 545.55 465.8 546.25 467.2 547.7 467.4 549.55 M469.15 554.75 Q470.35 547.85 464.7 542.3 M478.0 552.7 Q479.1 545.8 473.75 540.6 M484.15 546.05 Q483.75 541.85 480.6 539.55 M321.8 552.7 Q320.7 545.8 326.05 540.6" fill="none" stroke="#000000" stroke-linecap="round" stroke-linejoin="round" stroke-opacity="0.5019608" stroke-width="1.0"/>
  </g>
</svg>
