<?xml version="1.0" encoding="UTF-8" standalone="no"?>
<svg xmlns:xlink="http://www.w3.org/1999/xlink" height="40.4px" width="99.3px" xmlns="http://www.w3.org/2000/svg">
  <g transform="matrix(1.0, 0.0, 0.0, 1.0, 97.3, -57.5)">
    <path d="M-47.3 79.95 L-54.65 77.3 -53.55 75.1 -46.9 72.75 -47.3 79.95" fill="url(#gradient0)" fill-rule="evenodd" stroke="none"/>
    <path d="M2.0 97.9 L-47.3 79.95 -46.9 72.75 2.0 97.9" fill="url(#gradient1)" fill-rule="evenodd" stroke="none"/>
    <path d="M-47.3 79.95 L-51.65 85.7 -55.2 79.75 -54.65 77.3 -47.3 79.95" fill="url(#gradient2)" fill-rule="evenodd" stroke="none"/>
    <path d="M-51.65 85.7 L-47.3 79.95 2.0 97.9 -51.65 85.7" fill="url(#gradient3)" fill-rule="evenodd" stroke="none"/>
    <path d="M-94.0 63.0 Q-94.5 64.45 -93.85 65.8 -93.25 67.2 -91.85 67.7 L-89.0 67.55 Q-87.6 66.9 -87.1 65.45 -86.55 64.05 -87.25 62.7 -87.9 61.35 -89.3 60.85 L-92.1 60.9 Q-93.45 61.6 -94.0 63.0 M-88.25 57.95 Q-85.65 58.9 -84.5 61.45 L-84.3 61.85 Q-83.85 62.95 -83.85 64.05 -85.2 66.2 -85.55 68.7 -86.25 69.5 -87.3 70.1 L-87.75 70.35 -92.85 70.55 Q-95.45 69.55 -96.65 67.1 -97.8 64.55 -96.85 61.95 -95.9 59.4 -93.4 58.2 -90.9 56.95 -88.25 57.95" fill="url(#gradient4)" fill-rule="evenodd" stroke="none"/>
    <path d="M-24.8 84.15 L-34.4 89.65 -47.35 86.7 -34.3 79.3 -24.8 84.15 M-28.9 90.9 L-20.75 86.25 -16.25 88.55 -22.8 92.3 -28.9 90.9" fill="#ffffff" fill-opacity="0.5019608" fill-rule="evenodd" stroke="none"/>
  </g>
  <defs>
    <linearGradient gradientTransform="matrix(0.0, 0.0044, -0.0047, 0.0, -50.8, 76.35)" gradientUnits="userSpaceOnUse" id="gradient0" spreadMethod="pad" x1="-819.2" x2="819.2">
      <stop offset="0.0" stop-color="#000000" stop-opacity="0.2509804"/>
      <stop offset="1.0" stop-color="#000000" stop-opacity="0.0"/>
    </linearGradient>
    <linearGradient gradientTransform="matrix(0.0, 0.0154, -0.0301, 0.0, -22.65, 85.3)" gradientUnits="userSpaceOnUse" id="gradient1" spreadMethod="pad" x1="-819.2" x2="819.2">
      <stop offset="0.0" stop-color="#000000" stop-opacity="0.2509804"/>
      <stop offset="1.0" stop-color="#000000" stop-opacity="0.0"/>
    </linearGradient>
    <linearGradient gradientTransform="matrix(0.0, 0.0051, -0.0048, 0.0, -51.25, 81.5)" gradientUnits="userSpaceOnUse" id="gradient2" spreadMethod="pad" x1="-819.2" x2="819.2">
      <stop offset="0.0" stop-color="#000000" stop-opacity="0.2509804"/>
      <stop offset="1.0" stop-color="#000000" stop-opacity="0.0"/>
    </linearGradient>
    <linearGradient gradientTransform="matrix(0.0, 0.011, -0.0327, 0.0, -24.8, 88.9)" gradientUnits="userSpaceOnUse" id="gradient3" spreadMethod="pad" x1="-819.2" x2="819.2">
      <stop offset="0.0" stop-color="#000000" stop-opacity="0.2509804"/>
      <stop offset="1.0" stop-color="#000000" stop-opacity="0.0"/>
    </linearGradient>
    <linearGradient gradientTransform="matrix(0.0, 0.0082, -0.0082, 0.0, -90.55, 64.2)" gradientUnits="userSpaceOnUse" id="gradient4" spreadMethod="pad" x1="-819.2" x2="819.2">
      <stop offset="0.0" stop-color="#000000" stop-opacity="0.2509804"/>
      <stop offset="1.0" stop-color="#000000" stop-opacity="0.0"/>
    </linearGradient>
  </defs>
</svg>
