<?xml version="1.0" encoding="UTF-8" standalone="no"?>
<svg xmlns:xlink="http://www.w3.org/1999/xlink" height="128.2px" width="242.35px" xmlns="http://www.w3.org/2000/svg">
  <g transform="matrix(1.0, 0.0, 0.0, 1.0, 142.95, -41.55)">
    <path d="M78.55 101.55 Q75.7 96.3 72.2 92.55 68.65 88.8 64.5 86.6 60.15 84.3 55.1 83.55 51.2 83.0 46.8 83.45 43.5 83.75 39.9 84.6 L37.55 85.2 35.1 85.9 Q21.45 75.15 8.45 75.0 33.55 61.6 60.65 65.6 87.75 69.6 99.4 95.95 88.4 96.2 78.55 101.55" fill="url(#gradient0)" fill-rule="evenodd" stroke="none"/>
    <path d="M35.1 85.9 L37.55 85.2 39.9 84.6 Q43.5 83.75 46.8 83.45 51.2 83.0 55.1 83.55 60.15 84.3 64.5 86.6 68.65 88.8 72.2 92.55 75.7 96.3 78.55 101.55 70.8 98.25 65.55 104.05 L64.05 105.95 Q62.7 107.85 61.6 110.4 L43.05 103.7 Q43.9 100.95 44.05 98.7 L44.1 96.25 Q43.85 88.25 35.1 85.9" fill="url(#gradient1)" fill-rule="evenodd" stroke="none"/>
    <path d="M43.05 103.7 L61.6 110.4 63.75 111.25 Q64.2 121.5 57.1 129.3 L54.95 128.45 36.45 121.75 34.25 120.9 34.6 117.85 34.6 117.6 34.65 117.35 35.2 114.45 37.45 108.4 38.75 106.0 38.9 105.7 39.0 105.55 40.85 102.85 43.05 103.7" fill="url(#gradient2)" fill-rule="evenodd" stroke="none"/>
    <path d="M36.45 121.75 L54.95 128.45 Q54.25 131.1 54.05 133.45 L53.95 135.85 Q54.3 143.65 62.3 146.15 56.75 148.35 51.7 148.9 L41.95 148.6 Q37.15 147.5 32.8 144.75 29.45 142.7 26.4 139.65 24.0 137.25 21.85 134.2 L20.4 132.25 19.0 130.2 Q27.25 133.95 32.6 128.05 L34.0 126.1 Q35.4 124.35 36.45 121.75" fill="url(#gradient3)" fill-rule="evenodd" stroke="none"/>
    <path d="M39.0 105.55 L38.9 105.7 38.75 106.0 37.45 108.4 35.2 114.45 34.65 117.35 34.6 117.6 34.6 117.85 29.6 117.5 34.95 102.8 39.0 105.55" fill="url(#gradient4)" fill-rule="evenodd" stroke="none"/>
    <path d="M34.95 102.8 L29.6 117.5 Q18.0 110.9 -7.75 100.95 L-27.0 93.75 Q-38.3 89.65 -52.1 84.8 L-48.7 75.4 -23.75 84.65 -4.35 91.5 Q21.85 100.5 34.95 102.8" fill="url(#gradient5)" fill-rule="evenodd" stroke="none"/>
    <path d="M62.3 146.15 Q66.4 156.55 74.7 163.8 48.85 176.5 25.5 162.15 2.1 147.8 -8.45 121.4 1.6 129.65 19.0 130.2 L20.4 132.25 21.85 134.2 Q24.0 137.25 26.4 139.65 29.45 142.7 32.8 144.75 37.15 147.5 41.95 148.6 L51.7 148.9 Q56.75 148.35 62.3 146.15" fill="url(#gradient6)" fill-rule="evenodd" stroke="none"/>
    <path d="M-56.8 83.15 L-53.35 73.6 Q-50.2 73.5 -48.7 75.4 L-52.1 84.8 Q-54.45 85.3 -56.8 83.15" fill="url(#gradient7)" fill-rule="evenodd" stroke="none"/>
    <path d="M-53.35 73.6 L-56.8 83.15 Q-86.3 72.7 -126.45 59.15 L-122.05 47.25 Q-82.6 62.65 -53.35 73.6" fill="url(#gradient8)" fill-rule="evenodd" stroke="none"/>
    <path d="M-122.05 47.25 L-126.45 59.15 Q-128.9 59.65 -131.25 57.5 L-126.85 45.35 Q-123.7 45.35 -122.05 47.25" fill="url(#gradient9)" fill-rule="evenodd" stroke="none"/>
    <path d="M-131.25 57.5 L-141.15 54.15 Q-144.05 50.9 -142.3 46.6 -140.95 42.2 -136.55 41.55 L-126.85 45.35 -131.25 57.5" fill="url(#gradient10)" fill-rule="evenodd" stroke="none"/>
    <path d="M54.0 136.25 Q54.2 139.15 55.5 141.3 L21.75 159.75 17.2 156.35 54.0 136.25 M41.55 123.6 L53.9 128.1 11.4 151.35 Q7.7 147.8 4.5 143.85 L27.3 131.4 Q29.65 130.8 31.7 128.95 L41.55 123.6 M35.1 85.9 L32.05 83.65 63.9 66.2 Q70.75 67.6 76.55 70.55 L41.7 89.6 Q39.45 87.05 35.1 85.9 M83.55 74.9 L87.7 78.5 43.35 102.75 Q43.95 100.55 44.05 98.7 L44.1 96.45 83.55 74.9 M43.85 169.2 L67.75 156.15 Q70.25 159.7 73.55 162.7 L64.0 167.95 Q53.7 170.75 43.85 169.2" fill="#ffffff" fill-opacity="0.5019608" fill-rule="evenodd" stroke="none"/>
    <path d="M34.95 102.8 L39.0 105.55 38.9 105.7 38.75 106.0 37.45 108.4 35.2 114.45 34.65 117.35 34.6 117.6 34.6 117.85 29.6 117.5 Q18.0 110.9 -7.75 100.95 L-27.0 93.75 Q-38.3 89.65 -52.1 84.8 -54.45 85.3 -56.8 83.15 -86.3 72.7 -126.45 59.15 -128.9 59.65 -131.25 57.5 L-141.15 54.15 Q-144.05 50.9 -142.3 46.6 L32.3 110.15 34.95 102.8" fill="#000000" fill-opacity="0.2" fill-rule="evenodd" stroke="none"/>
  </g>
  <defs>
    <linearGradient gradientTransform="matrix(0.0, 0.0225, -0.0555, 0.0, 53.95, 83.1)" gradientUnits="userSpaceOnUse" id="gradient0" spreadMethod="pad" x1="-819.2" x2="819.2">
      <stop offset="0.0" stop-color="#000000" stop-opacity="0.2509804"/>
      <stop offset="1.0" stop-color="#000000" stop-opacity="0.0"/>
    </linearGradient>
    <linearGradient gradientTransform="matrix(0.0, 0.0166, -0.0265, 0.0, 56.85, 96.8)" gradientUnits="userSpaceOnUse" id="gradient1" spreadMethod="pad" x1="-819.2" x2="819.2">
      <stop offset="0.0" stop-color="#000000" stop-opacity="0.2509804"/>
      <stop offset="1.0" stop-color="#000000" stop-opacity="0.0"/>
    </linearGradient>
    <linearGradient gradientTransform="matrix(0.0, 0.0161, -0.018, 0.0, 49.0, 116.05)" gradientUnits="userSpaceOnUse" id="gradient2" spreadMethod="pad" x1="-819.2" x2="819.2">
      <stop offset="0.0" stop-color="#000000" stop-opacity="0.2509804"/>
      <stop offset="1.0" stop-color="#000000" stop-opacity="0.0"/>
    </linearGradient>
    <linearGradient gradientTransform="matrix(0.0, 0.0167, -0.0264, 0.0, 40.65, 135.45)" gradientUnits="userSpaceOnUse" id="gradient3" spreadMethod="pad" x1="-819.2" x2="819.2">
      <stop offset="0.0" stop-color="#000000" stop-opacity="0.2509804"/>
      <stop offset="1.0" stop-color="#000000" stop-opacity="0.0"/>
    </linearGradient>
    <linearGradient gradientTransform="matrix(0.0, 0.0092, -0.0057, 0.0, 34.3, 110.35)" gradientUnits="userSpaceOnUse" id="gradient4" spreadMethod="pad" x1="-819.2" x2="819.2">
      <stop offset="0.0" stop-color="#000000" stop-opacity="0.2509804"/>
      <stop offset="1.0" stop-color="#000000" stop-opacity="0.0"/>
    </linearGradient>
    <linearGradient gradientTransform="matrix(0.0, 0.0257, -0.0531, 0.0, -8.55, 96.45)" gradientUnits="userSpaceOnUse" id="gradient5" spreadMethod="pad" x1="-819.2" x2="819.2">
      <stop offset="0.0" stop-color="#000000" stop-opacity="0.2509804"/>
      <stop offset="1.0" stop-color="#000000" stop-opacity="0.0"/>
    </linearGradient>
    <linearGradient gradientTransform="matrix(0.0, 0.0295, -0.0508, 0.0, 33.15, 145.55)" gradientUnits="userSpaceOnUse" id="gradient6" spreadMethod="pad" x1="-819.2" x2="819.2">
      <stop offset="0.0" stop-color="#000000" stop-opacity="0.2509804"/>
      <stop offset="1.0" stop-color="#000000" stop-opacity="0.0"/>
    </linearGradient>
    <linearGradient gradientTransform="matrix(0.0, 0.0069, -0.0049, 0.0, -52.75, 79.25)" gradientUnits="userSpaceOnUse" id="gradient7" spreadMethod="pad" x1="-819.2" x2="819.2">
      <stop offset="0.0" stop-color="#000000" stop-opacity="0.2509804"/>
      <stop offset="1.0" stop-color="#000000" stop-opacity="0.0"/>
    </linearGradient>
    <linearGradient gradientTransform="matrix(0.0, 0.0219, -0.0446, 0.0, -89.9, 65.2)" gradientUnits="userSpaceOnUse" id="gradient8" spreadMethod="pad" x1="-819.2" x2="819.2">
      <stop offset="0.0" stop-color="#000000" stop-opacity="0.2509804"/>
      <stop offset="1.0" stop-color="#000000" stop-opacity="0.0"/>
    </linearGradient>
    <linearGradient gradientTransform="matrix(0.0, 0.0085, -0.0056, 0.0, -126.65, 52.3)" gradientUnits="userSpaceOnUse" id="gradient9" spreadMethod="pad" x1="-819.2" x2="819.2">
      <stop offset="0.0" stop-color="#000000" stop-opacity="0.2509804"/>
      <stop offset="1.0" stop-color="#000000" stop-opacity="0.0"/>
    </linearGradient>
    <linearGradient gradientTransform="matrix(0.0, 0.0097, -0.0099, 0.0, -134.9, 49.55)" gradientUnits="userSpaceOnUse" id="gradient10" spreadMethod="pad" x1="-819.2" x2="819.2">
      <stop offset="0.0" stop-color="#000000" stop-opacity="0.2509804"/>
      <stop offset="1.0" stop-color="#000000" stop-opacity="0.0"/>
    </linearGradient>
  </defs>
</svg>
