<?xml version="1.0" encoding="UTF-8" standalone="no"?>
<svg xmlns:xlink="http://www.w3.org/1999/xlink" height="59.95px" width="32.9px" xmlns="http://www.w3.org/2000/svg">
  <g transform="matrix(1.0, 0.0, 0.0, 1.0, 78.65, -69.0)">
    <path d="M-77.55 79.1 L-78.5 79.2 Q-79.05 73.3 -77.4 70.15 -74.8 73.7 -73.6 78.5 L-74.8 78.7 -77.55 79.1" fill="url(#gradient0)" fill-rule="evenodd" stroke="none"/>
    <path d="M-77.55 79.1 L-74.8 78.7 Q-71.2 102.75 -62.25 128.95 -67.25 124.95 -69.35 121.95 -75.25 100.1 -77.55 79.1" fill="url(#gradient1)" fill-rule="evenodd" stroke="none"/>
    <path d="M-71.9 78.85 L-72.8 78.95 Q-73.65 73.1 -71.95 69.35 -69.1 73.6 -67.95 78.05 L-69.15 78.3 -71.9 78.85" fill="url(#gradient2)" fill-rule="evenodd" stroke="none"/>
    <path d="M-71.9 78.85 L-69.15 78.3 Q-64.25 102.15 -53.95 127.9 -59.15 124.15 -61.35 121.25 -68.5 99.65 -71.9 78.85" fill="url(#gradient3)" fill-rule="evenodd" stroke="none"/>
    <path d="M-66.25 78.6 L-67.15 78.8 Q-68.3 73.05 -66.7 69.0 -63.95 73.25 -62.3 77.65 L-63.55 77.95 -66.25 78.6" fill="url(#gradient4)" fill-rule="evenodd" stroke="none"/>
    <path d="M-66.25 78.6 L-63.55 77.95 Q-57.35 101.5 -45.75 126.65 -51.15 123.25 -53.5 120.4 -61.75 99.25 -66.25 78.6" fill="url(#gradient5)" fill-rule="evenodd" stroke="none"/>
    <path d="M-69.35 121.95 L-70.9 116.0 -67.05 113.65 -63.4 125.5 -64.85 126.75 Q-67.85 124.1 -69.35 121.95 M-60.6 109.7 L-57.0 119.95 -60.15 122.7 -61.35 121.25 -64.25 111.95 -60.6 109.7 M-54.5 105.95 L-50.95 114.75 -54.5 117.8 -58.0 108.1 -54.5 105.95 M-66.7 88.95 L-64.3 97.9 -67.7 99.25 -69.85 89.9 -66.7 88.95 M-61.6 96.8 L-64.0 88.1 -60.9 87.2 -58.25 95.45 -61.6 96.8 M-75.85 91.7 L-72.7 90.75 -70.55 100.45 -74.05 101.85 -75.85 91.7" fill="#ffffff" fill-opacity="0.5019608" fill-rule="evenodd" stroke="none"/>
  </g>
  <defs>
    <linearGradient gradientTransform="matrix(0.0, 0.0055, -0.0031, 0.0, -76.1, 74.65)" gradientUnits="userSpaceOnUse" id="gradient0" spreadMethod="pad" x1="-819.2" x2="819.2">
      <stop offset="0.0" stop-color="#000000" stop-opacity="0.2509804"/>
      <stop offset="1.0" stop-color="#000000" stop-opacity="0.0"/>
    </linearGradient>
    <linearGradient gradientTransform="matrix(0.0, 0.0307, -0.0093, 0.0, -69.9, 103.8)" gradientUnits="userSpaceOnUse" id="gradient1" spreadMethod="pad" x1="-819.2" x2="819.2">
      <stop offset="0.0" stop-color="#000000" stop-opacity="0.2509804"/>
      <stop offset="1.0" stop-color="#000000" stop-opacity="0.0"/>
    </linearGradient>
    <linearGradient gradientTransform="matrix(0.0, 0.0059, -0.0031, 0.0, -70.5, 74.15)" gradientUnits="userSpaceOnUse" id="gradient2" spreadMethod="pad" x1="-819.2" x2="819.2">
      <stop offset="0.0" stop-color="#000000" stop-opacity="0.2509804"/>
      <stop offset="1.0" stop-color="#000000" stop-opacity="0.0"/>
    </linearGradient>
    <linearGradient gradientTransform="matrix(0.0, 0.0303, -0.011, 0.0, -62.9, 103.1)" gradientUnits="userSpaceOnUse" id="gradient3" spreadMethod="pad" x1="-819.2" x2="819.2">
      <stop offset="0.0" stop-color="#000000" stop-opacity="0.2509804"/>
      <stop offset="1.0" stop-color="#000000" stop-opacity="0.0"/>
    </linearGradient>
    <linearGradient gradientTransform="matrix(0.0, 0.006, -0.0033, 0.0, -64.95, 73.9)" gradientUnits="userSpaceOnUse" id="gradient4" spreadMethod="pad" x1="-819.2" x2="819.2">
      <stop offset="0.0" stop-color="#000000" stop-opacity="0.2509804"/>
      <stop offset="1.0" stop-color="#000000" stop-opacity="0.0"/>
    </linearGradient>
    <linearGradient gradientTransform="matrix(0.0, 0.0297, -0.0125, 0.0, -56.0, 102.3)" gradientUnits="userSpaceOnUse" id="gradient5" spreadMethod="pad" x1="-819.2" x2="819.2">
      <stop offset="0.0" stop-color="#000000" stop-opacity="0.2509804"/>
      <stop offset="1.0" stop-color="#000000" stop-opacity="0.0"/>
    </linearGradient>
  </defs>
</svg>
