<?xml version="1.0" encoding="UTF-8" standalone="no"?>
<svg xmlns:xlink="http://www.w3.org/1999/xlink" height="87.6px" width="224.75px" xmlns="http://www.w3.org/2000/svg">
  <g transform="matrix(1.0, 0.0, 0.0, 1.0, -303.7, -358.25)">
    <path d="M364.05 365.35 Q354.0 362.05 351.15 372.6 350.85 373.95 350.85 375.1 350.85 376.2 351.15 377.15 L366.55 382.65 Q372.05 384.75 377.25 379.75 379.0 385.7 382.2 387.35 L382.95 387.65 407.75 395.5 409.65 397.15 Q412.65 399.15 419.75 401.65 L491.0 426.45 491.45 426.6 495.45 428.0 Q516.15 435.45 528.45 445.85 510.7 445.85 487.35 436.55 L416.8 409.8 413.6 408.65 Q406.15 406.1 403.65 406.8 L379.55 396.85 Q375.95 395.45 370.2 399.2 L369.65 396.4 Q368.2 391.65 363.85 390.1 L348.5 384.4 Q347.65 384.95 346.95 385.75 346.2 386.65 345.6 387.9 341.0 397.85 350.75 401.75 346.05 403.85 340.2 402.05 339.2 395.5 343.35 384.45 L343.35 384.4 344.2 382.1 Q343.55 382.5 343.2 381.75 L345.4 375.75 Q346.1 375.5 346.4 376.15 L347.2 373.85 347.25 373.8 Q351.1 362.7 356.15 358.25 361.8 360.7 364.05 365.35 M343.05 374.9 L340.85 380.9 Q340.2 381.25 339.85 380.55 L342.05 374.55 Q342.8 374.3 343.05 374.9 M309.6 368.1 Q308.6 367.35 307.7 367.7 307.5 368.45 307.05 368.3 303.7 367.15 303.7 364.05 305.7 361.6 309.05 362.85 309.45 363.1 309.15 363.7 309.6 364.6 310.8 364.75 L311.4 363.55 Q312.55 361.6 314.1 362.95 L311.0 371.55 Q308.9 371.6 309.3 369.35 L309.6 368.1 M319.8 366.45 L317.6 372.45 Q316.95 372.8 316.6 372.1 L318.8 366.1 Q319.5 365.85 319.8 366.45 M321.95 367.25 L319.75 373.25 Q319.1 373.55 318.8 372.9 L321.0 366.9 Q321.7 366.6 321.95 367.25" fill="#ffffff" fill-rule="evenodd" stroke="none"/>
  </g>
</svg>
