<?xml version="1.0" encoding="UTF-8" standalone="no"?>
<svg xmlns:xlink="http://www.w3.org/1999/xlink" height="101.05px" width="271.85px" xmlns="http://www.w3.org/2000/svg">
  <g transform="matrix(1.0, 0.0, 0.0, 1.0, -279.05, -352.95)">
    <path d="M358.35 370.4 L359.0 370.0 359.55 369.6 360.35 369.35 360.9 369.0 361.7 368.75 362.25 368.6 362.7 368.4 363.1 368.1 374.15 355.95 Q375.4 354.6 376.2 354.7 376.6 355.35 375.3 356.85 L363.35 369.95 Q358.8 370.3 355.35 375.7 L356.05 375.9 356.2 378.05 372.15 383.9 Q372.8 382.9 375.4 384.15 L378.9 383.1 528.45 440.3 Q539.7 444.6 550.9 454.0 536.25 454.05 524.85 450.05 L373.6 397.7 371.65 394.65 Q368.7 394.1 368.9 392.85 L352.85 387.0 351.4 388.65 350.6 388.4 Q349.95 394.65 353.2 397.8 L353.9 415.55 Q353.95 417.45 353.25 417.75 352.5 417.45 352.55 415.5 L351.8 399.15 351.7 398.6 351.45 398.2 351.15 397.75 350.75 396.95 350.5 396.4 350.1 395.65 349.9 395.05 349.7 394.2 349.45 393.5 349.4 392.8 349.3 392.25 349.2 391.5 349.25 390.75 349.15 390.0 349.2 389.3 349.25 388.5 349.3 387.9 344.65 386.15 Q340.65 384.2 338.8 380.8 L338.4 380.05 338.25 379.6 Q337.55 378.1 337.35 376.3 338.65 375.1 340.2 374.35 L340.5 374.1 341.35 373.8 Q345.05 372.25 349.25 373.4 L353.95 375.1 354.3 374.5 354.75 373.95 355.2 373.4 355.85 372.7 356.25 372.25 356.8 371.7 357.25 371.3 357.7 370.85 358.35 370.4 M349.05 376.7 Q350.4 377.25 351.1 378.55 351.75 379.95 351.25 381.3 350.75 382.65 349.35 383.25 L346.55 383.4 Q345.15 382.95 344.6 381.6 343.95 380.25 344.45 378.9 344.95 377.55 346.35 376.95 347.65 376.2 349.05 376.7 M354.15 376.65 L348.75 374.75 Q343.4 373.4 339.35 377.05 340.2 382.45 345.1 384.75 L350.5 386.8 354.2 382.45 354.15 376.65 M280.85 352.95 L291.15 353.3 293.1 356.3 Q290.1 359.85 290.55 363.25 L287.15 364.2 279.05 357.95 Q279.25 355.2 280.85 352.95" fill="#ffffff" fill-rule="evenodd" stroke="none"/>
  </g>
</svg>
