<?xml version="1.0" encoding="UTF-8" standalone="no"?>
<svg xmlns:xlink="http://www.w3.org/1999/xlink" height="72.5px" width="182.1px" xmlns="http://www.w3.org/2000/svg">
  <g transform="matrix(1.0, 0.0, 0.0, 1.0, -309.65, -362.95)">
    <path d="M325.75 367.7 Q326.25 367.75 326.5 368.15 326.8 368.55 326.7 369.1 L326.7 369.35 326.25 369.9 325.35 370.1 324.55 369.55 324.3 368.7 324.4 368.55 324.8 367.9 Q325.2 367.65 325.75 367.7 M339.4 373.9 L339.75 373.45 Q340.2 373.1 340.7 373.2 341.15 373.3 341.5 373.65 341.75 374.05 341.65 374.6 L341.65 374.7 Q341.6 375.15 341.15 375.4 L340.35 375.65 Q339.8 375.55 339.5 375.15 339.25 374.75 339.3 374.25 L339.4 373.9 M349.1 372.5 L491.75 424.4 Q477.9 440.1 459.7 433.5 L344.85 384.5 349.1 372.5 M311.9 363.45 L312.15 364.15 312.15 364.35 311.65 365.15 Q311.25 365.45 310.75 365.4 L309.9 364.95 Q309.6 364.5 309.7 364.0 L310.0 363.4 310.15 363.15 311.1 363.0 311.9 363.45" fill="#ffffff" fill-rule="evenodd" stroke="none"/>
  </g>
</svg>
