<?xml version="1.0" encoding="UTF-8" standalone="no"?>
<svg xmlns:xlink="http://www.w3.org/1999/xlink" height="171.9px" width="254.1px" xmlns="http://www.w3.org/2000/svg">
  <g transform="matrix(1.0, 0.0, 0.0, 1.0, -184.95, -315.25)">
    <path d="M396.7 367.45 L406.05 378.7 404.3 378.05 405.15 382.55 Q408.05 381.75 410.6 381.65 L411.85 370.4 415.7 382.25 Q418.55 383.05 421.05 384.85 421.3 375.65 420.1 366.25 L437.4 360.55 Q439.25 370.85 439.05 381.15 L438.95 385.55 Q437.2 417.45 416.8 450.8 393.95 485.65 357.75 487.15 402.1 463.7 416.1 416.25 L417.25 412.0 Q419.95 392.95 405.15 393.95 L404.9 394.0 404.3 394.15 Q390.2 400.0 381.2 396.15 L375.55 396.4 368.5 391.05 371.75 382.05 380.55 382.65 384.5 387.1 Q391.35 388.0 396.85 386.05 L395.2 379.25 391.95 380.6 396.7 367.45 M193.45 317.15 L190.2 326.15 184.95 324.2 188.2 315.25 193.45 317.15 M430.25 401.45 Q424.55 401.5 425.85 407.9 429.2 405.5 430.25 401.45" fill="#ffffff" fill-rule="evenodd" stroke="none"/>
  </g>
</svg>
