<?xml version="1.0" encoding="UTF-8" standalone="no"?>
<svg xmlns:xlink="http://www.w3.org/1999/xlink" height="29.95px" width="45.55px" xmlns="http://www.w3.org/2000/svg">
  <g transform="matrix(1.0, 0.0, 0.0, 1.0, -309.1, -359.5)">
    <path d="M327.85 369.0 L326.45 371.7 326.45 371.75 Q325.9 373.5 325.8 374.7 L325.8 375.7 321.75 374.25 321.75 373.2 Q321.85 372.0 322.45 370.3 L322.45 370.25 Q323.1 368.6 323.85 367.55 L324.45 366.75 324.9 366.95 328.5 368.2 327.85 369.0 M329.95 368.8 L333.6 370.1 333.0 370.9 331.6 373.55 331.6 373.6 330.9 376.6 330.9 377.55 327.65 376.35 327.25 376.25 327.25 375.25 327.95 372.3 327.95 372.25 329.35 369.55 329.95 368.8 M344.15 373.95 L343.55 374.75 Q342.9 375.75 342.15 377.45 L342.15 377.5 Q341.6 379.15 341.5 380.4 L341.45 381.4 337.95 380.15 337.6 379.95 337.6 379.0 Q337.65 377.75 338.3 376.05 L338.3 376.0 Q338.9 374.35 339.7 373.35 L340.3 372.55 344.15 373.95 M336.8 375.5 Q336.2 377.2 336.1 378.45 L336.1 379.45 332.4 378.1 332.4 377.1 Q332.55 375.85 333.1 374.2 L333.1 374.15 Q333.8 372.45 334.45 371.45 L335.1 370.65 338.85 372.0 338.15 372.75 Q337.5 373.85 336.8 375.5 M343.75 378.8 L344.2 377.5 Q344.85 375.45 346.1 374.15 348.3 371.85 352.35 371.85 354.95 371.75 354.6 372.65 L348.65 389.1 Q348.25 390.05 346.4 388.3 343.2 385.65 343.0 382.5 L343.0 382.0 Q343.05 380.45 343.75 378.8 M313.85 367.15 L313.85 367.2 Q311.45 373.85 312.45 375.55 310.3 374.55 309.35 372.25 308.8 370.7 309.4 367.8 L310.0 365.8 310.0 365.75 310.85 363.8 Q312.3 361.15 313.75 360.3 315.9 359.15 318.2 359.7 316.35 360.45 313.85 367.15 M320.85 360.95 Q323.1 363.0 323.1 366.15 L323.0 366.25 322.3 367.0 Q321.65 368.05 320.95 369.75 L320.25 372.65 320.25 373.7 320.25 373.85 Q318.3 376.3 315.25 376.35 L314.3 376.2 Q313.1 374.4 315.45 367.75 L315.45 367.7 Q317.95 361.05 320.05 360.45 L320.85 360.95" fill="#ffffff" fill-rule="evenodd" stroke="none"/>
  </g>
</svg>
