<?xml version="1.0" encoding="UTF-8" standalone="no"?>
<svg xmlns:xlink="http://www.w3.org/1999/xlink" height="113.55px" width="196.65px" xmlns="http://www.w3.org/2000/svg">
  <g transform="matrix(1.0, 0.0, 0.0, 1.0, -218.35, -325.55)">
    <path d="M330.4 377.1 L334.3 366.35 M331.85 365.45 L327.95 376.25 M397.25 385.5 L403.35 384.95 407.85 389.35 M413.6 382.55 L406.5 376.6 397.25 376.6 M392.7 385.9 L387.7 399.65 M389.55 401.6 L395.25 407.3 403.3 406.55 M389.2 386.35 L385.35 397.1 M402.15 388.3 L406.9 393.3 403.3 403.2 396.45 403.9 391.75 398.9 395.35 389.1 402.15 388.3 M412.15 361.05 L406.5 376.6 M232.35 329.25 L228.45 340.05 M234.8 330.2 L230.9 340.95 M242.0 332.75 L238.1 343.5 M239.55 331.85 L235.65 342.65 M397.3 437.9 L374.0 429.4 M399.8 431.05 L376.5 422.6 M391.8 405.75 Q386.75 417.9 381.8 423.1 M400.6 408.2 Q396.3 421.0 397.9 428.95 M398.95 408.35 Q394.95 420.9 395.35 428.05 M390.45 404.45 Q385.6 417.15 379.3 422.2 M397.2 408.55 Q393.1 420.8 392.9 427.1 M392.95 407.0 Q388.15 419.0 384.3 424.0 M394.1 408.2 Q389.55 420.6 386.7 424.9 M395.5 408.7 Q390.75 421.8 390.45 426.3" fill="none" stroke="#000000" stroke-linecap="round" stroke-linejoin="round" stroke-opacity="0.5019608" stroke-width="1.0"/>
    <path d="M327.95 376.25 L327.8 376.75 330.3 377.65 330.4 377.1 385.35 397.1 384.8 398.6 387.7 399.65 389.55 401.6 M334.3 366.35 L334.45 365.95 332.0 365.05 331.85 365.45 M327.95 376.25 L238.1 343.5 237.95 344.0 235.5 343.05 235.65 342.65 230.9 340.95 230.75 341.4 228.3 340.5 228.45 340.05 223.9 340.5 218.85 334.65 221.55 327.25 229.2 326.05 232.35 329.25 232.5 328.85 234.95 329.75 234.8 330.2 239.55 331.85 239.75 331.4 242.15 332.35 242.0 332.75 331.85 365.45 M407.85 389.35 Q409.3 385.7 410.75 384.15 412.25 382.35 413.6 382.55 415.95 373.2 412.15 361.05 401.35 367.95 397.25 376.6 398.3 377.35 398.25 379.6 398.4 381.75 397.25 385.5 L392.7 385.9 389.8 384.85 389.2 386.35 334.3 366.35 M403.3 406.55 L405.95 406.3 410.95 392.55 407.85 389.35 M374.0 429.4 Q376.65 434.05 384.5 436.85 392.2 439.75 397.3 437.9 L399.8 431.05 Q397.3 422.6 403.3 406.55 M374.0 429.4 L376.5 422.6 Q383.8 417.65 389.55 401.6" fill="none" stroke="#000000" stroke-linecap="round" stroke-linejoin="round" stroke-width="1.0"/>
  </g>
</svg>
