<?xml version="1.0" encoding="UTF-8" standalone="no"?>
<svg xmlns:xlink="http://www.w3.org/1999/xlink" height="98.85px" width="212.45px" xmlns="http://www.w3.org/2000/svg">
  <g transform="matrix(1.0, 0.0, 0.0, 1.0, -250.9, -335.65)">
    <path d="M413.9 393.8 Q416.15 390.6 419.5 388.45 L419.85 377.65 427.75 385.15 433.15 384.9 437.3 379.9 438.0 383.45 444.5 377.45 443.95 388.9 Q446.8 390.95 448.85 393.85 L462.85 394.25 452.7 403.4 Q453.15 406.65 452.5 409.95 L460.95 416.8 455.15 417.6 456.6 420.2 448.35 419.5 Q446.6 421.85 444.25 423.55 L444.3 434.0 437.0 427.15 Q433.5 428.1 430.05 427.85 L426.05 433.35 424.75 429.9 420.05 433.95 419.85 424.55 Q417.15 422.85 415.1 420.4 L414.85 420.25 402.65 419.75 410.4 411.2 Q409.65 407.95 409.9 404.7 L407.95 404.05 255.15 348.4 251.55 347.1 Q251.05 343.65 252.4 340.6 253.45 338.25 255.55 336.15 L259.15 337.45 411.95 393.1 413.9 393.8" fill="none" stroke="#000000" stroke-linecap="round" stroke-linejoin="round" stroke-width="1.0"/>
    <path d="M413.9 393.8 L415.35 394.3 415.8 394.8 Q416.15 397.65 415.2 400.25 414.25 402.8 412.05 405.05 L411.25 405.2 409.9 404.7 M419.5 388.45 L419.4 389.85 421.3 390.55 419.85 377.65 M427.75 385.15 L429.2 386.55 Q427.45 387.1 426.0 387.75 423.15 389.0 421.3 390.55 M443.55 390.9 L444.9 395.85 442.75 402.35 433.6 399.0 436.15 392.05 443.55 390.9 442.75 402.35 M438.0 383.45 L435.85 385.35 436.7 387.45 444.5 377.45 M436.7 387.45 Q440.65 388.1 443.9 390.1 L443.95 388.9 M435.85 385.35 L433.15 384.9 M448.85 393.85 L449.95 395.65 462.85 394.25 M255.15 348.4 Q254.65 344.95 256.0 341.9 257.05 339.55 259.15 337.45 M452.7 403.4 Q452.2 400.35 450.8 397.3 L449.95 395.65 M452.5 409.95 L452.05 412.05 455.15 417.6 M448.35 419.5 L443.5 419.15 Q446.1 415.1 446.9 411.05 L451.55 411.2 452.05 412.05 M456.6 420.2 L446.9 411.05 M428.2 414.6 L437.25 417.9 435.1 413.55 428.2 414.6 431.95 406.45 440.65 409.65 437.25 417.9 M440.65 409.65 L435.1 413.55 431.95 406.45 M411.95 393.1 Q412.45 396.15 411.45 398.9 410.4 401.6 407.95 404.05 M410.4 411.2 L411.35 410.15 Q411.9 411.55 413.4 412.8 413.6 416.5 416.15 420.25 L414.85 420.25 M418.8 399.3 L426.2 402.2 Q424.35 405.65 422.4 410.7 L417.3 408.3 414.0 403.55 418.8 399.3 M426.2 402.2 L414.0 403.55 422.4 410.7 M424.75 429.9 L423.5 426.3 Q421.6 425.55 419.85 424.55 M423.5 426.3 L422.5 423.7 424.85 420.15 Q429.2 422.15 433.3 423.2 L430.05 427.85 M437.0 427.15 L440.4 425.8 Q442.55 424.85 444.25 423.55 M424.85 420.15 L426.05 433.35 M413.4 412.8 L402.65 419.75 M433.6 399.0 L443.55 390.9" fill="none" stroke="#000000" stroke-linecap="round" stroke-linejoin="round" stroke-opacity="0.5019608" stroke-width="1.0"/>
  </g>
</svg>
