<?xml version="1.0" encoding="UTF-8" standalone="no"?>
<svg xmlns:xlink="http://www.w3.org/1999/xlink" height="66.7px" width="179.5px" xmlns="http://www.w3.org/2000/svg">
  <g transform="matrix(1.0, 0.0, 0.0, 1.0, -327.6, -360.9)">
    <path d="M363.0 372.35 Q364.7 368.65 365.0 366.9 365.5 364.8 363.8 366.5 362.15 368.05 360.45 370.15 L359.8 370.9 M342.6 371.45 Q339.8 372.05 335.4 373.8 L332.85 374.85 Q332.15 372.15 333.4 369.6 M331.0 369.15 Q329.75 372.55 330.2 375.65 330.9 380.15 335.25 383.85 342.9 389.9 350.65 388.4 355.1 387.35 357.45 383.3 L359.4 380.05 M363.0 372.35 L363.0 372.4 363.0 373.15 368.7 375.8 377.9 380.05 382.15 381.95 386.3 383.75 393.85 387.05 400.25 389.75 407.6 392.8 414.0 395.4 418.85 397.3 438.0 404.55 452.55 409.6 458.7 411.65 462.15 412.75 462.6 412.9 463.15 413.1 467.85 414.55 471.95 415.8 Q486.9 420.35 501.55 424.1 L506.6 425.3 Q499.3 429.4 478.7 424.25 L463.55 419.95 459.45 418.7 454.75 417.3 450.25 415.85 444.05 413.8 429.55 408.75 Q420.0 405.35 410.4 401.55 L405.6 399.6 399.25 397.0 391.95 393.95 385.65 391.15 376.35 386.95 365.65 382.3 360.0 379.8 359.4 380.05 M332.0 362.05 Q331.7 361.0 330.75 361.7 L330.1 363.25 Q328.9 362.35 328.3 364.65 L328.3 364.75 Q327.65 367.45 329.2 367.15 L329.2 368.95 330.45 368.9 M332.0 362.05 Q342.55 363.85 342.05 364.25 L342.0 364.4 Q351.4 366.75 359.8 370.9 M331.0 369.15 L330.45 368.9 M333.85 369.4 Q338.05 369.6 342.6 371.45" fill="none" stroke="#000000" stroke-linecap="round" stroke-linejoin="round" stroke-width="1.0"/>
    <path d="M359.8 370.9 Q358.9 371.6 357.9 371.85 L352.9 371.7 351.95 371.55 343.95 371.2 342.6 371.45 M333.4 369.6 Q332.0 368.7 331.0 369.15 M359.4 380.05 Q358.45 380.2 359.0 378.5 L359.4 377.5 Q360.4 374.8 361.3 373.25 L361.8 372.45 Q363.0 370.9 363.0 372.35 M330.1 363.25 L329.6 364.9 Q329.25 366.1 329.2 367.15 M330.45 368.9 Q330.1 367.3 330.8 365.0 L332.0 362.05 M342.0 364.4 Q341.7 365.05 340.4 365.3 L336.8 365.95 336.65 366.0 Q334.7 366.55 334.1 368.75 L333.85 369.4 333.4 369.6 M360.0 379.8 L360.7 377.7 Q361.85 374.5 362.55 373.35 L362.75 373.05 363.0 373.15 M381.15 382.45 L385.6 384.4 392.85 387.55 399.25 390.3 406.6 393.35 413.0 395.9 417.8 397.8 436.95 405.05 451.5 410.1 457.6 412.15 460.05 412.95 462.05 413.6 462.3 413.7 470.6 416.35 470.7 416.4 Q474.05 417.7 473.95 418.45 473.75 419.0 472.55 418.8 L468.15 417.7 466.2 417.05 464.15 416.35 459.55 414.85 455.15 413.4 449.0 411.35 444.6 409.9 434.4 406.3 Q425.75 403.2 415.35 399.05 L410.55 397.15 404.15 394.55 402.95 394.05 396.8 391.55 390.35 388.8 378.55 383.75 372.05 380.85 Q368.85 379.3 368.9 378.65 368.9 378.15 369.55 378.05 L370.45 378.1 Q371.6 378.25 377.2 380.7 L381.15 382.45 M501.55 424.1 Q497.9 425.25 489.35 423.95 480.1 422.55 466.3 418.6 L462.15 417.4 457.4 415.9 452.95 414.5 446.75 412.5 433.2 407.75 432.15 407.45 Q422.95 404.3 412.8 400.35 L408.0 398.4 401.65 395.8 394.35 392.75 388.05 389.95 381.3 386.95 376.35 384.9 Q366.85 381.15 365.65 382.3" fill="none" stroke="#000000" stroke-linecap="round" stroke-linejoin="round" stroke-opacity="0.5019608" stroke-width="1.0"/>
  </g>
</svg>
