<?xml version="1.0" encoding="UTF-8" standalone="no"?>
<svg xmlns:xlink="http://www.w3.org/1999/xlink" height="11.55px" width="14.65px" xmlns="http://www.w3.org/2000/svg">
  <g transform="matrix(1.0, 0.0, 0.0, 1.0, -392.65, -186.3)">
    <path d="M402.65 197.35 Q402.75 196.6 403.4 196.25 L404.8 195.75 406.15 195.4 406.65 195.05 406.8 194.55 406.7 193.9 406.55 193.05 406.25 192.25 406.15 192.15 406.05 191.9 406.0 191.85 405.4 190.6 404.75 189.7 404.6 189.6 404.5 189.55 404.05 189.4 403.7 189.35 402.45 189.65 400.1 190.9 399.8 190.9 397.5 189.65 396.2 189.35 395.9 189.4 Q395.6 189.4 395.45 189.55 L395.3 189.6 395.2 189.7 394.5 190.6 393.95 191.85 393.95 191.9 393.8 192.15 393.75 192.25 393.4 193.05 393.2 193.9 393.15 194.55 393.3 195.05 393.5 195.25 393.8 195.4 395.15 195.75 396.55 196.25 Q397.2 196.6 397.3 197.35 M404.05 189.4 L404.0 189.25 Q403.8 188.7 403.2 188.35 L401.9 187.95 401.65 188.0 400.95 188.35 399.95 188.8 399.0 188.35 398.3 188.0 398.05 187.95 Q397.4 187.95 396.75 188.35 396.15 188.7 395.9 189.25 L395.9 189.4 M398.75 187.05 L399.2 186.9 400.05 186.8 400.7 186.9 401.15 187.05 M402.95 191.6 L402.15 192.25 402.1 192.3 Q401.6 192.65 401.45 193.15 L401.35 193.95 Q402.2 193.95 402.8 193.05 L403.25 192.25 403.5 191.25 Q403.25 191.35 402.95 191.6 M404.9 192.25 L404.4 191.45 404.0 191.15 403.5 191.25 M395.05 192.25 L395.55 191.45 395.95 191.15 396.45 191.25 397.0 191.6 397.8 192.25 397.85 192.3 Q398.35 192.65 398.5 193.15 L398.6 193.95 398.6 194.5 398.3 197.05 398.3 197.3 M398.6 193.95 Q397.75 193.95 397.1 193.05 L396.7 192.25 Q396.5 191.8 396.45 191.25 M401.35 193.95 L401.3 194.5 Q401.3 195.5 401.6 197.05 L401.6 197.3" fill="none" stroke="#000000" stroke-linecap="round" stroke-linejoin="round" stroke-opacity="0.5019608" stroke-width="1.0"/>
  </g>
</svg>
