<?xml version="1.0" encoding="UTF-8" standalone="no"?>
<svg xmlns:xlink="http://www.w3.org/1999/xlink" height="422.0px" width="165.6px" xmlns="http://www.w3.org/2000/svg">
  <g transform="matrix(1.0, 0.0, 0.0, 1.0, 82.9, 165.3)">
    <path d="M3.8 -150.55 Q4.35 -148.5 5.05 -146.85 L5.6 -145.65 7.45 -141.75 7.6 -141.15 7.8 -139.1 Q7.75 -137.95 8.8 -137.2 9.35 -136.8 9.95 -137.2 L11.0 -138.25 11.35 -138.9 11.85 -140.75 12.05 -141.4 12.05 -143.8 11.85 -145.4 11.7 -148.5 Q11.8 -147.45 12.3 -146.5 L12.85 -145.2 13.5 -143.55 14.65 -141.6 15.75 -140.3 19.5 -135.05 20.2 -133.75 20.6 -131.95 20.65 -131.35 20.75 -129.7 Q20.85 -128.65 20.45 -127.8 L20.2 -127.05 Q19.65 -124.8 20.7 -122.55 21.35 -121.1 22.2 -120.35 22.9 -119.65 23.8 -120.05 24.75 -120.35 25.15 -120.75 L25.65 -121.5 Q26.65 -122.65 26.9 -124.0 L27.1 -125.0 Q27.3 -126.15 27.85 -127.25 L28.4 -127.9 29.4 -129.0 29.95 -129.5 31.1 -130.7 32.35 -131.75 33.35 -132.95 Q32.4 -131.45 32.2 -129.7 L31.4 -127.6 31.1 -126.85 30.35 -125.35 29.65 -123.15 29.45 -114.8 Q29.45 -113.95 30.05 -113.5 L31.0 -111.7 31.4 -110.7 Q31.7 -109.35 32.25 -108.2 L32.3 -106.45 32.25 -105.4 31.8 -104.1 31.2 -103.4 30.75 -102.5 30.4 -101.8 29.9 -100.5 28.85 -98.9 27.85 -97.05 Q26.8 -96.05 26.3 -94.95 25.7 -92.9 25.7 -91.0 26.45 -90.1 27.6 -90.35 L29.05 -91.7 29.7 -92.35 30.15 -92.9 30.6 -93.5 30.95 -94.0 31.5 -94.65 30.85 -92.6 33.15 -95.4 34.35 -97.6 35.1 -98.85 35.45 -99.4 35.75 -99.9 37.35 -103.15 38.0 -104.2 38.0 -102.95 37.8 -100.4 37.7 -99.05 37.55 -98.4 37.35 -97.65 36.45 -94.7 36.15 -93.75 35.9 -91.8 36.0 -87.95 36.2 -85.35 36.35 -83.7 Q36.6 -82.6 37.05 -82.0 L37.25 -81.55 37.9 -80.35 38.2 -79.7 38.75 -78.6 Q38.8 -78.35 39.05 -78.35 L40.05 -78.25 Q40.65 -78.3 41.15 -77.8 41.35 -77.55 41.65 -77.5 L42.65 -77.05 Q43.5 -76.4 44.0 -77.25 L44.35 -77.65 Q45.35 -78.55 46.25 -79.95 L46.9 -80.75 47.9 -81.9 48.6 -82.8 49.6 -84.05 50.0 -84.6 50.15 -84.85 Q49.9 -84.2 50.05 -83.35 L50.3 -82.7 50.6 -82.1 Q51.6 -82.25 52.3 -83.3 L54.0 -85.4 54.4 -85.85 Q55.05 -86.55 55.85 -86.6 L58.3 -86.55 Q58.85 -86.5 59.25 -86.85 L60.05 -87.9 60.5 -88.5 61.55 -90.15 62.05 -90.9 62.8 -91.95 Q62.05 -90.3 61.6 -88.85 L61.25 -87.4 Q60.85 -85.65 60.05 -84.55 L59.75 -84.05 58.75 -82.1 58.4 -81.5 57.5 -79.7 57.3 -78.8 57.25 -78.2 57.1 -77.3 57.05 -73.25 Q57.05 -72.35 57.4 -71.6 57.6 -70.0 58.15 -69.0 L58.75 -67.25 59.0 -66.65 59.1 -64.3 59.2 -63.8 59.6 -62.9 60.4 -61.25 Q61.7 -60.85 62.35 -61.5 L63.05 -62.5 64.0 -64.9 64.75 -67.6 64.9 -69.8 Q64.75 -73.15 64.75 -76.6 L64.85 -79.15 64.9 -79.65 65.4 -81.15 66.15 -84.05 66.4 -86.25 66.4 -87.55 66.45 -87.2 66.7 -84.25 66.7 -83.7 66.8 -80.8 Q66.85 -78.8 66.5 -76.95 66.35 -76.15 66.35 -75.1 L66.45 -71.8 66.55 -71.1 66.9 -70.35 67.3 -67.95 67.35 -67.25 67.4 -60.65 Q67.4 -60.0 67.85 -60.0 L68.2 -60.1 Q68.65 -60.2 68.85 -60.85 L69.6 -62.2 69.75 -63.2 70.0 -63.95 70.15 -64.65 70.35 -66.35 Q70.3 -69.1 70.8 -71.05 L70.95 -71.6 70.95 -70.0 71.05 -62.85 71.05 -60.65 71.1 -59.9 71.2 -58.05 Q71.25 -57.1 70.95 -56.4 70.75 -54.1 70.1 -52.35 L69.4 -50.35 68.6 -48.55 68.4 -48.0 68.25 -47.4 68.1 -46.85 67.65 -44.95 67.5 -44.45 67.2 -43.25 66.9 -42.25 66.55 -41.05 66.45 -40.3 66.4 -39.55 66.3 -36.45 66.3 -35.7 64.95 -32.3 64.75 -31.75 64.55 -30.4 Q64.3 -27.1 64.4 -23.65 L64.45 -21.8 64.6 -19.6 64.7 -18.7 64.75 -18.1 64.9 -16.5 65.2 -14.8 65.4 -13.95 65.55 -12.8 65.65 -12.1 66.0 -11.2 66.4 -10.8 Q66.6 -10.55 67.5 -10.2 L69.5 -9.8 69.95 -9.75 70.45 -10.25 70.9 -10.15 71.5 -11.0 Q71.9 -11.8 71.85 -12.85 L71.95 -15.6 Q72.85 -16.85 74.0 -17.6 L74.45 -18.0 75.0 -18.5 75.5 -18.95 75.85 -19.3 76.15 -19.9 Q77.2 -21.0 77.25 -22.85 L77.35 -28.3 77.55 -29.6 78.35 -32.4 78.65 -29.9 78.75 -29.1 79.1 -24.5 79.2 -23.65 79.65 -20.7 79.65 -20.2 Q79.8 -18.7 79.35 -17.3 L78.95 -16.4 78.7 -15.65 78.5 -15.15 76.95 -12.5 76.6 -11.95 75.1 -10.3 74.65 -9.75 Q73.9 -8.7 73.45 -7.55 73.05 -6.35 73.15 -5.3 L73.25 -3.65 73.3 -3.15 73.75 -1.65 74.7 1.1 74.9 1.65 75.85 4.6 Q76.2 6.3 75.95 7.9 L75.85 8.55 75.65 9.85 75.05 11.6 74.75 12.95 74.65 14.1 Q74.55 15.7 75.25 16.9 75.95 17.85 75.95 18.85 L76.0 19.7 76.05 21.7 Q76.05 21.95 76.45 21.85 L77.35 21.45 79.05 19.1 80.15 17.45 81.35 15.65 82.0 14.7 82.7 13.45 82.35 14.9 82.05 16.1 81.9 16.75 81.7 17.5 81.45 18.25 81.35 20.7 81.2 22.65 80.7 24.45 79.8 26.3 79.5 26.8 79.3 27.25 Q78.75 27.7 78.4 28.55 L78.05 29.1 Q77.0 30.4 76.15 32.2 L75.7 32.85 74.9 33.85 74.55 34.5 Q74.15 34.65 74.2 35.0 L74.2 35.5 73.95 36.4 73.75 37.0 Q73.5 38.0 73.55 39.1 L73.15 40.25 73.05 40.7 Q72.65 41.6 72.6 42.7 L72.45 43.2 Q71.85 44.85 72.75 46.35 L73.35 47.75 73.55 48.35 74.35 50.6 74.45 51.1 74.7 51.55 Q75.15 52.0 75.75 52.2 76.25 52.3 76.35 51.95 L77.85 50.0 79.6 47.5 80.55 46.3 Q80.55 47.6 80.2 48.8 79.9 49.65 79.85 50.6 L79.75 51.4 79.35 52.5 79.05 53.2 78.45 53.95 75.65 57.65 72.9 60.9 Q72.5 61.3 72.4 61.75 L71.8 64.05 71.5 64.7 Q70.95 65.75 70.95 67.0 L70.7 68.3 70.4 69.45 69.0 71.0 68.65 71.4 67.55 72.55 Q66.45 73.55 66.15 75.05 L65.95 75.7 65.55 77.2 65.45 78.0 Q65.45 78.65 66.1 78.55 L67.3 78.4 67.85 78.2 Q68.2 78.2 68.45 77.9 68.6 77.75 68.85 77.65 68.95 78.4 68.4 79.15 L67.9 80.15 67.35 81.45 66.25 82.8 65.95 83.25 64.75 84.6 Q64.05 85.35 62.95 85.4 L62.45 85.4 Q62.15 85.45 61.95 85.65 L61.65 85.9 61.35 86.25 59.05 88.6 57.75 90.3 56.85 91.35 55.9 92.15 55.5 92.45 54.65 92.95 54.0 93.2 51.4 93.7 Q50.05 93.65 49.25 92.9 L48.15 92.25 47.7 92.05 46.75 91.5 Q46.55 91.25 46.35 91.25 45.55 91.05 44.85 91.5 L44.2 91.9 43.9 92.3 43.5 92.55 Q42.95 93.2 42.3 93.15 L41.35 93.15 Q41.0 93.1 40.85 92.9 L40.5 92.65 Q39.8 92.3 39.25 91.7 L38.85 91.35 37.0 89.3 Q36.35 87.95 36.15 86.75 L36.0 86.25 35.7 84.45 35.6 82.6 35.4 81.95 35.0 80.95 34.55 80.25 34.55 81.5 34.4 87.85 Q34.05 91.4 34.05 94.9 L34.15 100.4 34.3 101.5 35.1 105.0 35.3 107.0 35.2 109.35 35.0 110.65 34.8 111.6 Q34.25 114.5 34.5 117.6 L34.7 118.9 35.0 119.65 35.5 120.6 35.8 121.05 36.65 121.1 37.65 118.9 37.9 117.95 39.1 114.1 39.9 111.6 40.4 109.7 40.25 110.5 40.0 111.6 39.9 111.9 39.85 118.35 39.7 123.7 39.35 125.45 39.25 125.9 38.75 127.05 38.55 127.5 37.6 130.45 Q37.4 131.1 37.5 131.9 L37.4 134.1 37.35 134.85 37.4 137.95 37.35 139.25 36.55 141.5 Q36.1 142.95 36.25 144.35 L36.35 145.25 Q36.4 145.8 36.65 145.85 L37.15 146.9 Q38.15 149.85 37.95 153.15 37.85 154.8 37.35 156.2 L36.15 159.15 35.85 160.0 35.7 160.6 35.3 162.3 Q34.8 163.9 34.95 165.6 L35.6 167.55 35.85 168.55 Q36.8 171.8 36.65 175.3 L36.55 176.75 36.45 177.7 36.35 178.4 36.15 183.15 36.2 184.65 Q36.6 185.85 37.1 186.55 L38.25 188.25 Q38.9 188.1 39.2 187.4 L39.6 186.55 39.95 185.95 Q40.15 185.65 40.5 185.8 L41.0 186.3 41.95 186.25 43.05 183.9 43.25 183.35 44.1 180.25 44.35 179.15 Q44.6 177.5 45.3 176.2 L44.8 179.55 43.9 185.95 Q43.75 186.95 43.75 187.95 L43.6 188.85 43.45 189.8 43.3 190.7 Q43.15 192.05 43.15 193.65 L43.25 196.9 43.3 200.05 43.45 202.4 43.6 203.3 44.5 206.15 44.9 207.4 45.1 209.0 44.9 210.65 Q44.45 211.85 44.55 213.8 L44.65 214.5 44.8 215.6 44.8 216.5 Q44.8 218.1 45.2 219.45 L45.6 220.5 45.8 220.95 46.45 223.1 Q46.65 223.95 47.0 224.3 L47.35 225.0 Q47.65 225.8 47.9 226.0 L48.4 226.9 Q49.15 226.35 49.2 225.65 L49.25 225.15 49.4 221.8 49.45 219.8 49.5 216.85 49.75 215.35 50.0 214.5 50.4 211.75 50.3 217.6 Q50.2 219.6 50.75 221.3 L51.6 224.65 51.95 226.2 Q52.05 227.0 52.3 227.35 L52.55 228.05 Q53.2 230.35 53.35 232.45 53.5 233.9 53.15 234.65 52.85 235.2 52.7 236.1 52.4 238.0 52.45 240.15 L52.55 243.1 Q52.6 245.8 52.15 248.35 51.9 249.6 51.05 250.4 L49.25 253.0 48.65 254.45 Q48.1 255.05 47.9 256.05 L47.65 256.45 Q47.5 256.75 47.05 256.7 L46.15 256.65 41.5 256.65 36.25 256.65 35.4 256.55 34.2 255.3 33.4 254.1 33.0 253.65 32.45 253.2 31.95 252.9 30.5 252.05 29.25 250.8 Q28.35 250.0 27.95 248.55 27.75 247.8 27.2 247.55 L26.85 247.35 24.25 245.45 23.65 245.2 23.15 245.0 21.7 244.05 20.95 243.55 19.35 242.55 16.2 239.6 21.8 239.85 23.25 240.3 23.65 240.4 Q24.25 240.55 24.45 239.75 L24.75 237.0 24.7 235.6 24.4 234.9 23.55 234.25 22.7 233.65 21.9 233.25 21.45 233.1 20.6 232.75 19.4 231.5 19.25 230.6 19.05 229.2 17.0 227.35 14.9 225.9 12.8 223.7 11.75 222.25 10.7 220.85 9.75 219.3 9.6 218.85 9.45 218.35 9.85 218.4 10.3 218.8 10.8 219.25 Q11.85 220.6 13.1 221.4 L13.85 221.9 Q14.4 222.3 15.05 222.35 L15.45 222.5 Q17.45 223.05 19.1 222.45 19.35 222.35 19.25 221.8 L19.25 221.1 Q19.2 219.5 18.4 218.3 L17.4 216.5 17.2 215.95 Q16.8 214.9 16.85 213.6 L16.95 211.75 17.4 210.25 Q17.55 208.55 17.05 207.5 L16.85 207.0 16.65 206.4 15.9 205.05 15.55 204.65 15.3 204.2 15.0 203.7 14.55 203.15 13.4 201.2 13.05 200.35 Q12.3 198.45 12.45 196.0 12.5 195.05 12.2 194.2 L11.4 192.15 9.5 187.35 9.25 186.65 8.15 182.4 8.05 181.7 Q7.75 179.65 7.75 177.65 8.25 179.35 9.15 181.0 L9.35 181.5 9.65 182.25 11.4 185.85 11.75 186.65 12.6 188.35 12.8 188.8 13.2 189.65 13.85 190.8 14.2 191.15 14.6 191.25 16.05 191.15 17.3 189.45 Q17.55 189.05 17.4 188.1 L17.1 187.55 16.35 185.85 15.55 184.25 15.75 182.8 15.65 181.2 15.55 180.45 14.75 175.3 14.15 174.1 13.9 173.75 13.5 173.1 12.5 171.6 12.05 171.0 Q11.4 169.85 11.2 168.75 L11.1 166.7 11.2 165.65 11.25 163.6 11.1 162.8 10.95 162.3 10.6 161.2 10.15 160.2 9.65 159.6 8.65 157.7 8.4 156.3 8.3 155.55 8.4 153.5 8.65 152.75 8.8 152.1 9.05 148.95 9.0 147.5 8.75 146.35 8.55 145.65 7.75 142.15 7.1 138.9 7.0 138.3 Q6.75 137.1 6.75 135.75 L6.65 133.9 6.6 133.0 6.6 129.15 Q7.25 131.1 7.5 133.2 L7.6 133.75 Q7.8 135.05 8.45 135.95 L8.9 136.8 9.3 136.7 Q9.95 135.9 9.85 134.3 L9.75 133.2 9.4 131.05 9.25 130.4 9.05 129.75 8.6 128.05 8.4 126.6 8.25 124.75 8.15 124.1 Q6.75 121.95 5.95 119.7 L5.85 118.75 5.7 117.8 5.45 116.55 5.4 115.8 Q5.3 114.95 5.5 114.5 L6.45 116.25 6.75 116.7 7.35 117.6 7.65 117.05 7.9 115.8 8.1 113.6 Q8.1 112.05 7.45 110.95 L6.8 109.5 6.55 108.85 6.3 108.05 5.5 106.1 5.3 105.45 Q4.65 101.7 5.0 98.2 L5.05 97.45 4.95 94.5 4.9 93.95 Q4.8 92.9 4.35 92.1 L4.15 91.65 3.95 91.05 3.25 89.55 Q2.35 88.05 2.1 86.1 L1.55 83.1 1.3 82.4 0.7 81.6 -0.1 80.85 -0.9 81.6 -1.5 82.4 -1.75 83.1 -2.3 86.1 Q-2.55 88.05 -3.45 89.55 L-4.15 91.05 -4.35 91.65 -4.55 92.1 Q-5.0 92.9 -5.1 93.95 L-5.15 94.5 -5.25 97.45 -5.2 98.2 Q-4.85 101.7 -5.5 105.45 L-5.7 106.1 -6.5 108.05 -6.75 108.85 -7.0 109.5 -7.65 110.95 Q-8.3 112.05 -8.3 113.6 L-8.1 115.8 -7.85 117.05 -7.55 117.6 -6.95 116.7 -6.65 116.25 -5.7 114.5 Q-5.5 114.95 -5.6 115.8 L-5.65 116.55 -5.9 117.8 -6.05 118.75 -6.15 119.7 Q-6.95 121.95 -8.35 124.1 L-8.45 124.75 -8.6 126.6 -8.8 128.05 -9.25 129.75 -9.45 130.4 -9.6 131.05 -9.95 133.2 -10.05 134.3 Q-10.15 135.9 -9.5 136.7 L-9.1 136.8 -8.65 135.95 Q-8.0 135.05 -7.8 133.75 L-7.7 133.2 Q-7.45 131.1 -6.8 129.15 L-6.8 133.0 -6.85 133.9 -6.95 135.75 Q-6.95 137.1 -7.2 138.3 L-7.3 138.9 -7.95 142.15 -8.75 145.65 -8.95 146.35 -9.2 147.5 -9.25 148.95 -9.0 152.1 -8.85 152.75 -8.6 153.5 -8.5 155.55 -8.6 156.3 -8.85 157.7 -9.85 159.6 -10.35 160.2 -10.8 161.2 -11.15 162.3 -11.3 162.8 -11.45 163.6 -11.4 165.65 -11.3 166.7 -11.4 168.75 Q-11.6 169.85 -12.25 171.0 L-12.7 171.6 -13.7 173.1 -14.1 173.75 -14.35 174.1 -14.95 175.3 -15.75 180.45 -15.85 181.2 -15.95 182.8 -15.75 184.25 -16.55 185.85 -17.3 187.55 -17.6 188.1 Q-17.75 189.05 -17.5 189.45 L-16.25 191.15 -14.8 191.25 -14.4 191.15 -14.05 190.8 -13.4 189.65 -13.0 188.8 -12.8 188.35 -11.95 186.65 -11.6 185.85 -9.85 182.25 -9.55 181.5 -9.35 181.0 -7.95 177.65 Q-7.95 179.65 -8.25 181.7 L-8.35 182.4 -9.45 186.65 -9.7 187.35 -11.6 192.15 -12.4 194.2 Q-12.7 195.05 -12.65 196.0 -12.5 198.45 -13.25 200.35 L-13.6 201.2 -14.75 203.15 -15.2 203.7 -15.5 204.2 -15.75 204.65 -16.1 205.05 -16.85 206.4 -17.05 207.0 -17.25 207.5 Q-17.75 208.55 -17.6 210.25 L-17.15 211.75 -17.05 213.6 Q-17.0 214.9 -17.4 215.95 L-17.6 216.5 -18.6 218.3 Q-19.4 219.5 -19.45 221.1 L-19.45 221.8 Q-19.55 222.35 -19.3 222.45 -17.65 223.05 -15.65 222.5 L-15.25 222.35 Q-14.6 222.3 -14.05 221.9 L-13.3 221.4 Q-12.05 220.6 -11.0 219.25 L-10.5 218.8 -10.05 218.4 Q-9.7 218.0 -9.65 218.35 L-9.8 218.85 -9.95 219.3 -10.9 220.85 -11.95 222.25 -13.0 223.7 -15.1 225.9 -17.2 227.35 Q-18.25 227.95 -19.25 229.2 L-19.45 230.6 -19.6 231.5 -20.8 232.75 -21.65 233.1 -22.1 233.25 -22.9 233.65 -23.75 234.25 -24.6 234.9 -24.9 235.6 -24.95 237.0 -24.65 239.75 Q-24.45 240.55 -23.85 240.4 L-23.45 240.3 -22.0 239.85 -16.4 239.6 -19.55 242.55 -21.15 243.55 -21.9 244.05 -23.35 245.0 -23.85 245.2 Q-24.15 245.25 -24.45 245.45 -25.75 246.35 -27.05 247.35 L-27.4 247.55 Q-27.95 247.8 -28.15 248.55 -28.55 250.0 -29.45 250.8 L-30.7 252.05 -32.15 252.9 -32.65 253.2 -33.2 253.65 -33.6 254.1 -34.4 255.3 -35.6 256.55 -36.45 256.65 -41.7 256.65 -46.35 256.65 -47.25 256.7 Q-47.7 256.75 -47.85 256.45 L-48.1 256.05 Q-48.3 255.05 -48.85 254.45 L-49.45 253.0 -51.25 250.4 Q-52.1 249.6 -52.35 248.35 -52.8 245.8 -52.75 243.1 L-52.65 240.15 Q-52.6 238.0 -52.9 236.1 -53.05 235.2 -53.35 234.65 -53.7 233.9 -53.55 232.45 -53.4 230.35 -52.75 228.05 L-52.5 227.35 Q-52.25 227.0 -52.15 226.2 L-51.8 224.65 -50.95 221.3 Q-50.4 219.6 -50.5 217.6 L-50.6 211.75 -50.2 214.5 -49.95 215.35 -49.7 216.85 -49.65 219.8 -49.6 221.8 -49.45 225.15 -49.4 225.65 Q-49.35 226.35 -48.6 226.9 L-48.1 226.0 Q-47.85 225.8 -47.55 225.0 L-47.2 224.3 Q-46.85 223.95 -46.65 223.1 L-46.0 220.95 -45.8 220.5 -45.4 219.45 Q-45.0 218.1 -45.0 216.5 L-45.0 215.6 -44.85 214.5 -44.75 213.8 Q-44.65 211.85 -45.1 210.65 L-45.3 209.0 -45.1 207.4 -44.7 206.15 -43.8 203.3 Q-43.65 202.85 -43.65 202.4 L-43.5 200.05 -43.45 196.9 -43.35 193.65 Q-43.35 192.05 -43.5 190.7 L-43.65 189.8 -43.8 188.85 -43.95 187.95 -44.1 185.95 -45.0 179.55 -45.5 176.2 Q-44.8 177.5 -44.55 179.15 L-44.3 180.25 -43.45 183.35 -43.25 183.9 -42.15 186.25 -41.2 186.3 -40.7 185.8 Q-40.35 185.65 -40.15 185.95 L-39.8 186.55 -39.4 187.4 Q-39.1 188.1 -38.45 188.25 L-37.3 186.55 Q-36.8 185.85 -36.4 184.65 L-36.35 183.15 -36.55 178.4 -36.65 177.7 -36.75 176.75 -36.85 175.3 Q-37.0 171.8 -36.05 168.55 L-35.8 167.55 -35.15 165.6 Q-35.0 163.9 -35.5 162.3 L-35.9 160.6 -36.05 160.0 -36.35 159.15 -37.55 156.2 Q-38.05 154.8 -38.15 153.15 -38.35 149.85 -37.35 146.9 L-36.85 145.85 Q-36.6 145.8 -36.55 145.25 L-36.45 144.35 Q-36.3 142.95 -36.75 141.5 L-37.55 139.25 -37.6 137.95 -37.55 134.85 -37.6 134.1 -37.7 131.9 Q-37.6 131.1 -37.8 130.45 L-38.75 127.5 -38.95 127.05 -39.45 125.9 -39.55 125.45 -39.9 123.7 -40.05 118.35 -40.1 111.9 -40.2 111.6 -40.45 110.5 -40.6 109.7 -40.1 111.6 -39.3 114.1 -38.1 117.95 -37.85 118.9 -36.85 121.1 -36.0 121.05 -35.7 120.6 -35.2 119.65 -34.9 118.9 -34.7 117.6 Q-34.45 114.5 -35.0 111.6 L-35.2 110.65 -35.4 109.35 -35.5 107.0 -35.3 105.0 -34.5 101.5 -34.35 100.4 -34.25 94.9 Q-34.25 91.4 -34.6 87.85 L-34.75 81.5 -34.75 80.25 -35.2 80.95 -35.6 81.95 -35.8 82.6 -35.9 84.45 -36.2 86.25 -36.35 86.75 Q-36.55 87.95 -37.2 89.3 L-39.05 91.35 -39.45 91.7 -40.7 92.65 Q-40.9 92.7 -41.05 92.9 -41.2 93.1 -41.55 93.15 L-42.5 93.15 Q-43.15 93.2 -43.7 92.55 L-44.1 92.3 -44.4 91.9 -45.05 91.5 Q-45.75 91.05 -46.55 91.25 -46.75 91.25 -46.95 91.5 L-47.9 92.05 -48.35 92.25 Q-48.95 92.5 -49.45 92.9 -50.25 93.65 -51.6 93.7 L-54.2 93.2 -54.85 92.95 -55.7 92.45 -56.1 92.15 -57.05 91.35 -57.95 90.3 -59.25 88.6 -61.55 86.25 -61.85 85.9 -62.15 85.65 Q-62.35 85.45 -62.65 85.4 L-63.15 85.4 Q-64.25 85.35 -64.95 84.6 L-66.15 83.25 -66.45 82.8 -67.55 81.45 -68.1 80.15 -68.6 79.15 Q-69.15 78.4 -69.05 77.65 L-68.65 77.9 Q-68.4 78.2 -68.05 78.2 L-67.5 78.4 -66.3 78.55 Q-65.65 78.65 -65.65 78.0 L-65.75 77.2 -66.15 75.7 -66.35 75.05 Q-66.65 73.55 -67.75 72.55 L-68.85 71.4 -69.2 71.0 -70.6 69.45 -70.9 68.3 -71.15 67.0 Q-71.15 65.75 -71.7 64.7 L-72.0 64.05 -72.6 61.75 Q-72.7 61.3 -73.1 60.9 L-75.85 57.65 -78.65 53.95 -79.25 53.2 -79.55 52.5 -79.95 51.4 -80.05 50.6 Q-80.1 49.65 -80.4 48.8 L-80.75 46.3 -79.8 47.5 -78.05 50.0 -76.55 51.95 Q-76.45 52.3 -75.95 52.2 L-74.9 51.55 -74.65 51.1 -74.55 50.6 -73.75 48.35 -73.55 47.75 -72.95 46.35 Q-72.05 44.85 -72.65 43.2 L-72.8 42.7 Q-72.85 41.6 -73.25 40.7 L-73.35 40.25 -73.75 39.1 Q-73.7 38.0 -73.95 37.0 L-74.15 36.4 -74.4 35.5 -74.4 35.0 Q-74.35 34.65 -74.75 34.5 L-75.1 33.85 -75.9 32.85 -76.35 32.2 Q-77.2 30.4 -78.25 29.1 L-78.6 28.55 Q-78.95 27.7 -79.5 27.25 L-79.7 26.8 -80.0 26.3 -80.9 24.45 -81.4 22.65 -81.55 20.7 -81.65 18.25 -81.9 17.5 -82.1 16.75 -82.25 16.1 -82.55 14.9 -82.9 13.45 -82.2 14.7 -81.55 15.65 -80.35 17.45 -79.25 19.1 -77.55 21.45 -76.65 21.85 Q-76.25 21.95 -76.25 21.7 L-76.2 19.7 -76.15 18.85 Q-76.15 17.85 -75.45 16.9 -74.75 15.7 -74.85 14.1 L-74.95 12.95 -75.25 11.6 -75.85 9.85 -76.05 8.55 -76.15 7.9 Q-76.4 6.3 -76.05 4.6 -75.75 3.15 -75.1 1.65 L-74.9 1.1 -73.95 -1.65 -73.5 -3.15 -73.45 -3.65 -73.35 -5.3 Q-73.25 -6.35 -73.65 -7.55 L-74.85 -9.75 -75.3 -10.3 -76.8 -11.95 -77.15 -12.5 -78.7 -15.15 -78.9 -15.65 -79.15 -16.4 -79.55 -17.3 Q-80.0 -18.7 -79.85 -20.2 L-79.85 -20.7 -79.4 -23.65 -79.3 -24.5 -78.95 -29.1 -78.85 -29.9 -78.55 -32.4 -77.75 -29.6 -77.55 -28.3 -77.45 -22.85 Q-77.4 -21.0 -76.35 -19.9 L-76.05 -19.3 -75.7 -18.95 -75.2 -18.5 -74.65 -18.0 -74.2 -17.6 Q-73.05 -16.85 -72.15 -15.6 L-72.05 -12.85 Q-72.1 -11.8 -71.7 -11.0 L-71.1 -10.15 -70.65 -10.25 -70.15 -9.75 -69.7 -9.8 -67.7 -10.2 Q-66.8 -10.55 -66.6 -10.8 L-66.2 -11.2 Q-65.95 -11.55 -65.85 -12.1 L-65.75 -12.8 -65.6 -13.95 -65.4 -14.8 -65.1 -16.5 -64.95 -18.1 -64.9 -18.7 -64.8 -19.6 -64.65 -21.8 -64.6 -23.65 Q-64.5 -27.1 -64.75 -30.4 L-64.95 -31.75 -65.15 -32.3 -66.5 -35.7 -66.5 -36.45 -66.6 -39.55 -66.65 -40.3 -66.75 -41.05 -67.1 -42.25 -67.4 -43.25 -67.7 -44.45 -67.85 -44.95 -68.3 -46.85 -68.45 -47.4 -68.6 -48.0 -68.8 -48.55 -69.6 -50.35 -70.3 -52.35 Q-70.95 -54.1 -71.15 -56.4 -71.45 -57.1 -71.4 -58.05 L-71.3 -59.9 -71.25 -60.65 -71.25 -62.85 -71.15 -70.0 -71.15 -71.6 -71.0 -71.05 Q-70.5 -69.1 -70.55 -66.35 L-70.35 -64.65 -70.2 -63.95 -69.95 -63.2 -69.8 -62.2 -69.05 -60.85 Q-68.85 -60.2 -68.4 -60.1 L-68.05 -60.0 Q-67.6 -60.0 -67.6 -60.65 L-67.55 -67.25 -67.5 -67.95 -67.1 -70.35 -66.75 -71.1 -66.65 -71.8 -66.55 -75.1 Q-66.55 -76.15 -66.7 -76.95 -67.05 -78.8 -67.0 -80.8 L-66.9 -83.7 -66.9 -84.25 -66.65 -87.2 -66.6 -87.55 -66.6 -86.25 -66.35 -84.05 -65.6 -81.15 -65.1 -79.65 -65.05 -79.15 -64.95 -76.6 Q-64.95 -73.15 -65.1 -69.8 L-64.95 -67.6 -64.2 -64.9 -63.25 -62.5 -62.55 -61.5 Q-61.9 -60.85 -60.6 -61.25 L-59.8 -62.9 -59.4 -63.8 -59.3 -64.3 -59.2 -66.65 -58.95 -67.25 -58.35 -69.0 Q-57.8 -70.0 -57.6 -71.6 -57.25 -72.35 -57.25 -73.25 L-57.3 -77.3 -57.45 -78.2 -57.5 -78.8 -57.7 -79.7 -58.6 -81.5 -58.95 -82.1 -59.95 -84.05 -60.25 -84.55 Q-61.05 -85.65 -61.45 -87.4 L-61.8 -88.85 -63.0 -91.95 -62.25 -90.9 -61.75 -90.15 -60.7 -88.5 -60.25 -87.9 -59.45 -86.85 Q-59.05 -86.5 -58.5 -86.55 L-56.05 -86.6 Q-55.25 -86.55 -54.6 -85.85 L-54.2 -85.4 -52.5 -83.3 Q-51.8 -82.25 -50.8 -82.1 L-50.5 -82.7 -50.25 -83.35 Q-50.1 -84.2 -50.35 -84.85 L-50.2 -84.6 -49.8 -84.05 -48.8 -82.8 -48.1 -81.9 -47.1 -80.75 -46.45 -79.95 -44.55 -77.65 -44.2 -77.25 Q-43.7 -76.4 -42.85 -77.05 L-41.85 -77.5 Q-41.55 -77.55 -41.35 -77.8 -40.85 -78.3 -40.25 -78.25 L-39.25 -78.35 -38.95 -78.6 -38.4 -79.7 -38.1 -80.35 -37.45 -81.55 -37.25 -82.0 Q-36.8 -82.6 -36.55 -83.7 L-36.4 -85.35 -36.2 -87.95 -36.1 -91.8 Q-36.1 -92.8 -36.35 -93.75 L-36.65 -94.7 -37.55 -97.65 -37.75 -98.4 -37.9 -99.05 -38.0 -100.4 -38.2 -102.95 -38.2 -104.2 -37.55 -103.15 -35.95 -99.9 -35.65 -99.4 -35.3 -98.85 -34.55 -97.6 -33.35 -95.4 -31.05 -92.6 -31.7 -94.65 -31.15 -94.0 -30.8 -93.5 -30.35 -92.9 -29.9 -92.35 -29.25 -91.7 -27.8 -90.35 Q-26.65 -90.1 -25.9 -91.0 -25.9 -92.9 -26.5 -94.95 -27.0 -96.05 -28.05 -97.05 L-29.05 -98.9 Q-29.8 -99.6 -30.1 -100.5 L-30.6 -101.8 -30.95 -102.5 -31.4 -103.4 -32.0 -104.1 -32.45 -105.4 -32.5 -106.45 -32.45 -108.2 Q-31.9 -109.35 -31.6 -110.7 L-31.2 -111.7 -30.25 -113.5 Q-29.65 -113.95 -29.65 -114.8 L-29.85 -123.15 -30.55 -125.35 -31.3 -126.85 -31.6 -127.6 -32.4 -129.7 Q-32.6 -131.45 -33.55 -132.95 L-32.55 -131.75 -31.3 -130.7 -30.15 -129.5 -29.6 -129.0 -28.6 -127.9 -28.05 -127.25 Q-27.5 -126.15 -27.3 -125.0 L-27.1 -124.0 Q-26.85 -122.65 -25.85 -121.5 L-25.35 -120.75 Q-24.95 -120.35 -24.0 -120.05 -23.1 -119.65 -22.4 -120.35 -21.55 -121.1 -20.9 -122.55 -19.85 -124.8 -20.4 -127.05 L-20.65 -127.8 Q-21.05 -128.65 -20.95 -129.7 L-20.85 -131.35 -20.8 -131.95 -20.4 -133.75 -19.7 -135.05 -15.95 -140.3 -14.85 -141.6 -13.7 -143.55 Q-13.25 -144.35 -13.05 -145.2 L-12.5 -146.5 Q-12.0 -147.45 -11.9 -148.5 L-12.05 -145.4 -12.25 -143.8 -12.25 -141.4 -12.05 -140.75 -11.55 -138.9 -11.2 -138.25 -10.15 -137.2 Q-9.55 -136.8 -9.0 -137.2 -7.95 -137.95 -8.0 -139.1 L-7.8 -141.15 -7.65 -141.75 -5.8 -145.65 -5.25 -146.85 Q-4.55 -148.5 -4.0 -150.55 L-3.45 -151.8 -3.15 -152.35 Q-2.2 -154.55 -1.8 -157.4 L-1.6 -158.1 -1.1 -161.75 Q-0.95 -163.5 -0.1 -165.3 0.75 -163.5 0.9 -161.75 L1.4 -158.1 1.6 -157.4 Q2.0 -154.55 2.95 -152.35 L3.25 -151.8 3.8 -150.55 M10.1 -128.45 L9.55 -128.3 Q8.65 -128.0 8.0 -128.5 L7.2 -129.05 6.25 -129.8 5.45 -130.5 Q3.5 -132.15 2.0 -134.7 1.55 -135.7 1.25 -137.15 0.35 -139.5 -0.1 -142.5 -0.55 -139.5 -1.45 -137.15 -1.75 -135.7 -2.2 -134.7 -3.7 -132.15 -5.65 -130.5 L-6.45 -129.8 -7.4 -129.05 -8.2 -128.5 Q-8.85 -128.0 -9.75 -128.3 L-10.3 -128.45 -11.35 -128.8 -12.05 -129.0 Q-13.15 -128.45 -13.15 -126.85 L-13.15 -126.6 -13.95 -121.5 Q-15.15 -119.25 -15.3 -117.35 L-17.1 -113.7 -17.4 -113.0 -18.2 -111.35 -18.8 -110.15 -19.25 -108.85 Q-19.6 -107.5 -19.35 -106.1 L-18.85 -105.05 Q-18.65 -103.05 -20.15 -104.0 -21.4 -104.8 -21.85 -105.8 L-22.65 -107.9 Q-23.0 -109.15 -23.7 -109.9 L-24.45 -110.75 -24.7 -111.05 Q-24.3 -110.45 -24.2 -109.3 L-24.1 -104.25 Q-24.15 -102.9 -23.7 -102.1 L-22.7 -100.3 Q-21.95 -98.7 -21.55 -97.1 L-21.4 -95.95 -21.0 -89.65 -19.3 -87.3 -19.4 -86.5 -18.4 -85.65 -16.9 -83.8 -15.5 -81.85 -12.75 -79.15 -11.85 -78.35 -11.35 -77.85 Q-11.8 -77.25 -12.8 -77.35 L-15.5 -77.25 -21.95 -76.95 -22.9 -76.2 Q-24.85 -74.85 -26.8 -75.3 L-27.65 -75.15 Q-29.55 -75.2 -30.95 -74.55 L-32.05 -74.65 -32.45 -75.15 -33.05 -76.15 -33.5 -77.0 -33.85 -77.55 -34.8 -79.8 -34.9 -75.5 Q-34.9 -75.05 -35.15 -74.75 L-35.45 -74.2 -36.25 -72.85 Q-36.95 -71.8 -37.7 -71.35 L-38.5 -71.0 Q-39.4 -70.4 -40.05 -70.35 L-42.4 -69.95 -43.25 -70.05 -44.1 -70.7 -44.85 -71.6 -45.4 -72.65 -46.1 -73.9 Q-46.6 -74.45 -47.1 -74.4 L-48.45 -74.0 Q-49.6 -73.5 -50.55 -74.2 L-51.4 -75.1 -52.95 -77.5 -53.4 -78.25 -53.4 -77.95 -53.05 -76.15 -52.45 -73.6 Q-52.2 -72.65 -52.35 -71.35 -53.35 -68.9 -53.95 -66.45 -54.45 -64.35 -55.15 -62.6 L-55.35 -61.65 -55.45 -60.2 -55.9 -58.7 Q-56.15 -56.1 -56.65 -54.25 L-58.05 -51.35 -58.45 -50.75 -59.1 -50.0 Q-59.85 -50.0 -59.95 -50.4 -60.7 -52.1 -61.45 -52.65 L-61.9 -53.15 Q-62.6 -53.85 -63.0 -54.8 L-63.55 -56.05 Q-62.65 -53.6 -62.85 -50.7 L-62.8 -49.4 -62.7 -48.6 Q-62.65 -46.5 -62.95 -44.65 L-62.95 -43.8 Q-62.8 -41.65 -63.3 -39.9 L-63.45 -38.5 -63.25 -37.05 -63.0 -36.45 -62.4 -35.4 -61.75 -34.15 Q-61.3 -33.35 -61.35 -32.65 -61.7 -27.7 -61.3 -22.8 L-61.2 -21.9 -61.2 -16.75 -61.4 -15.8 -63.85 -9.7 -64.1 -8.8 -65.1 -5.45 Q-65.55 -3.8 -65.45 -2.35 L-65.35 -1.0 -65.3 0.2 -65.25 1.45 Q-65.15 2.7 -65.35 3.95 L-67.25 6.1 -68.4 4.15 -69.8 2.1 -69.85 2.05 -69.85 3.6 -69.95 6.2 Q-70.05 9.1 -69.55 11.7 L-69.45 12.8 Q-69.3 14.3 -69.75 15.65 L-70.35 18.0 -70.7 20.55 -70.55 24.0 Q-70.45 25.45 -69.85 26.7 -69.85 29.35 -69.55 30.6 L-69.4 31.45 Q-69.05 33.4 -69.0 35.45 -70.8 34.2 -72.15 31.85 L-71.55 34.85 -71.0 36.95 Q-71.1 40.2 -69.5 41.55 L-68.35 43.0 Q-68.05 43.25 -68.0 43.8 L-67.65 46.9 -67.5 48.1 -67.45 49.5 -68.75 51.55 -69.35 52.6 -69.85 53.5 Q-70.1 56.1 -68.8 57.05 L-67.6 58.7 -67.15 62.7 -66.45 65.3 -66.25 66.5 -65.95 67.45 Q-63.85 67.25 -62.3 68.4 L-61.4 69.05 Q-60.05 69.95 -59.55 71.9 L-59.4 79.6 Q-58.75 81.7 -57.75 82.65 L-55.0 82.55 Q-53.65 80.95 -52.9 82.05 L-51.95 83.15 -51.15 83.85 Q-49.0 85.95 -46.45 86.4 -45.1 86.65 -44.05 85.7 L-43.35 85.1 -42.1 83.7 -41.55 82.7 -41.2 81.9 Q-40.9 80.45 -40.9 78.75 L-40.7 77.95 Q-40.1 76.5 -40.3 74.75 -40.9 74.55 -41.1 74.9 -43.35 75.5 -43.45 73.3 L-43.55 69.3 -43.45 63.25 -43.3 62.15 Q-42.9 60.9 -42.9 59.55 L-43.6 59.5 -45.0 59.95 -49.05 60.1 -52.35 59.85 Q-52.3 57.85 -51.65 56.4 L-51.25 55.5 Q-50.8 54.55 -50.9 53.25 -51.05 52.15 -51.65 51.9 L-53.15 49.8 -53.55 48.65 Q-53.6 47.3 -52.65 47.0 L-51.85 46.15 Q-50.2 44.8 -48.65 42.6 L-47.05 40.7 Q-46.35 39.95 -45.9 38.65 L-45.5 37.7 Q-44.15 34.85 -44.35 31.45 -44.45 30.2 -44.1 29.15 -43.7 27.95 -43.7 26.55 -42.5 24.8 -43.9 24.2 L-44.75 23.95 -45.05 23.95 Q-45.85 23.45 -46.1 22.35 -46.45 20.9 -46.3 19.25 L-46.9 14.35 -47.5 8.75 Q-46.25 7.5 -44.7 7.15 L-43.75 6.7 -42.55 5.0 Q-41.25 3.4 -40.9 0.85 L-40.55 -0.35 Q-40.05 -1.35 -39.9 -2.7 -39.7 -4.45 -39.0 -5.4 L-38.65 -6.2 Q-37.75 -7.7 -37.1 -9.3 L-34.85 -15.15 Q-34.6 -16.85 -34.15 -17.65 -33.85 -18.2 -33.85 -19.0 L-33.55 -21.2 Q-33.55 -18.15 -32.9 -16.3 L-32.6 -15.15 -32.05 -12.65 -31.3 -10.1 Q-30.4 -8.75 -30.25 -7.15 L-29.55 -5.95 -29.1 -4.9 -29.05 -4.8 -28.45 -3.6 -27.0 -1.0 Q-26.6 -0.45 -26.45 0.8 -25.9 3.25 -24.85 4.25 L-24.1 5.2 Q-23.25 6.55 -22.75 7.8 L-22.25 8.85 Q-22.0 11.3 -21.45 13.05 -21.65 17.55 -20.75 20.35 -21.4 20.45 -21.85 19.75 -23.65 18.55 -24.35 17.15 L-25.25 16.15 Q-24.8 19.4 -24.5 22.9 L-24.4 23.85 -23.9 27.0 Q-22.95 29.15 -22.55 31.45 -21.8 33.35 -21.95 35.7 L-22.1 39.5 -22.4 41.0 Q-23.3 41.8 -24.1 41.5 L-25.25 40.2 Q-24.55 42.0 -24.2 44.3 -23.9 45.7 -24.5 46.35 -25.65 48.85 -25.4 51.35 L-25.05 53.95 -25.0 61.6 -27.2 57.75 -27.65 56.55 -28.1 55.45 -28.55 54.3 -29.05 53.5 -29.15 53.35 -29.05 53.8 -28.7 55.8 -28.4 57.1 -28.2 66.4 Q-28.15 68.15 -28.7 69.5 L-29.05 70.15 -30.2 72.55 Q-30.5 74.95 -30.05 76.4 L-29.75 77.85 -29.45 81.4 Q-29.35 82.25 -29.7 82.3 L-30.3 82.55 Q-30.8 84.35 -30.8 85.85 L-30.7 94.2 -30.6 99.0 -30.4 101.85 -30.4 103.15 -30.4 103.55 -30.4 111.1 -30.35 111.6 -30.2 112.45 -30.1 113.65 -30.05 119.1 Q-29.8 122.55 -30.05 125.2 L-30.1 127.75 Q-30.1 129.5 -30.4 131.1 -31.15 131.2 -31.45 130.7 L-32.25 129.6 -32.9 128.7 Q-33.3 129.1 -33.2 130.3 -32.95 133.2 -32.0 135.9 L-31.7 143.1 -31.45 145.65 -31.4 146.9 -31.45 153.65 Q-31.45 154.25 -31.8 154.65 L-32.6 155.45 -33.4 158.2 -33.3 161.0 -32.6 164.45 -32.15 166.15 Q-31.9 169.8 -32.35 172.55 L-32.55 173.8 -33.2 179.85 -33.25 180.8 -33.35 184.65 Q-33.4 186.2 -32.85 187.1 -32.7 192.5 -32.9 197.15 L-33.1 198.05 -33.65 199.65 -34.0 201.1 -34.3 202.2 -34.7 203.75 -35.2 205.45 Q-35.55 208.55 -35.4 211.8 -35.05 213.8 -35.05 215.35 -35.05 215.95 -35.45 216.4 L-36.35 218.15 Q-38.55 221.9 -39.55 226.5 -40.45 228.95 -41.5 229.95 -42.85 230.25 -43.6 231.0 L-44.85 232.95 Q-45.85 235.05 -45.9 237.75 L-46.0 238.7 Q-46.15 239.65 -46.75 240.4 -47.55 241.3 -48.0 242.9 L-48.0 250.85 Q-48.0 252.0 -47.0 252.05 L-45.5 252.3 -44.65 252.4 Q-43.7 252.1 -43.45 251.7 -42.9 250.85 -42.1 251.0 L-40.6 251.0 -38.25 251.4 Q-37.45 251.6 -36.85 250.6 -36.65 250.2 -36.6 249.55 -36.45 247.45 -35.65 245.75 -34.85 244.9 -34.0 244.75 L-33.35 244.05 -31.9 242.35 Q-30.65 240.9 -29.65 238.7 L-28.85 236.75 -28.35 235.55 Q-27.6 234.0 -27.2 232.2 -27.2 230.55 -26.75 230.25 L-26.15 229.1 Q-26.05 228.25 -25.45 228.15 L-24.6 227.05 -22.0 223.35 Q-21.05 221.8 -21.3 219.15 L-21.5 218.0 -21.85 216.65 -22.3 213.4 Q-22.85 210.75 -22.4 208.95 -21.5 207.15 -21.25 206.0 L-20.75 205.1 -20.25 204.15 -18.85 198.95 Q-18.55 197.6 -18.6 196.15 -19.15 195.95 -19.55 196.65 L-20.3 197.55 Q-21.3 199.15 -21.85 199.55 L-22.45 200.0 Q-22.95 199.1 -22.9 197.45 L-22.7 196.4 Q-21.85 194.0 -20.6 191.9 L-20.15 191.0 Q-19.4 188.8 -19.45 186.2 L-19.35 180.15 -19.2 179.25 Q-17.75 173.8 -15.85 168.65 L-15.65 167.7 Q-15.35 166.0 -14.5 164.5 -13.8 163.3 -13.7 161.65 L-13.55 160.3 Q-13.15 158.5 -13.3 156.5 -13.45 154.8 -13.1 153.3 L-13.0 152.35 -13.0 150.8 Q-13.7 151.25 -14.05 152.4 -14.5 153.75 -15.6 153.65 L-15.7 146.6 Q-15.75 142.95 -15.15 139.55 L-15.05 138.6 -14.9 137.3 -14.6 136.0 Q-14.3 133.75 -14.95 133.65 -15.5 133.55 -15.7 134.25 -15.8 134.75 -16.25 135.1 L-16.9 136.05 -17.2 134.5 -17.2 132.85 Q-17.15 126.75 -15.65 121.05 L-15.35 120.15 -14.35 117.5 -14.05 116.6 -13.6 115.4 -13.15 114.75 -12.6 113.7 Q-10.65 110.95 -10.65 107.0 L-10.85 103.15 Q-11.4 101.4 -11.4 99.95 -11.4 98.5 -10.9 97.4 -10.1 95.7 -9.4 93.55 L-8.5 90.75 Q-8.2 89.8 -8.3 88.15 L-8.45 84.9 -8.5 83.95 Q-8.85 80.8 -8.1 77.9 L-7.75 77.1 -7.2 76.35 Q-5.25 73.25 -4.8 69.55 L-4.7 68.3 -4.75 66.4 Q-2.15 66.55 -0.8 64.2 -0.3 63.35 -0.1 62.55 L0.6 64.2 Q1.95 66.55 4.55 66.4 L4.5 68.3 4.6 69.55 Q5.05 73.25 7.0 76.35 L7.55 77.1 7.9 77.9 Q8.65 80.8 8.3 83.95 L8.25 84.9 8.1 88.15 Q8.0 89.8 8.3 90.75 L9.2 93.55 10.7 97.4 Q11.2 98.5 11.2 99.95 11.2 101.4 10.65 103.15 L10.45 107.0 Q10.45 110.95 12.4 113.7 L12.95 114.75 13.4 115.4 13.85 116.6 14.15 117.5 15.15 120.15 15.45 121.05 Q16.95 126.75 17.0 132.85 L17.0 134.5 16.7 136.05 16.05 135.1 Q15.6 134.75 15.5 134.25 15.3 133.55 14.75 133.65 14.1 133.75 14.4 136.0 L14.7 137.3 14.85 138.6 14.95 139.55 Q15.55 142.95 15.5 146.6 L15.4 153.65 Q14.3 153.75 13.85 152.4 13.5 151.25 12.8 150.8 L12.8 152.35 12.9 153.3 Q13.25 154.8 13.1 156.5 12.95 158.5 13.35 160.3 L13.5 161.65 Q13.6 163.3 14.3 164.5 15.15 166.0 15.45 167.7 L15.65 168.65 Q17.55 173.8 19.0 179.25 L19.15 180.15 19.25 186.2 Q19.2 188.8 19.95 191.0 L20.4 191.9 Q21.65 194.0 22.5 196.4 L22.7 197.45 Q22.75 199.1 22.25 200.0 L21.65 199.55 Q21.1 199.15 20.1 197.55 L19.35 196.65 Q18.95 195.95 18.4 196.15 18.35 197.6 18.65 198.95 L20.05 204.15 20.55 205.1 21.05 206.0 Q21.3 207.15 22.2 208.95 22.65 210.75 22.1 213.4 L21.65 216.65 21.3 218.0 21.1 219.15 Q20.85 221.8 21.8 223.35 L24.4 227.05 25.25 228.15 Q25.85 228.25 25.95 229.1 L26.55 230.25 Q27.0 230.55 27.0 232.2 27.4 234.0 28.15 235.55 L28.65 236.75 29.45 238.7 Q30.45 240.9 31.7 242.35 L33.15 244.05 33.8 244.75 Q34.65 244.9 35.45 245.75 36.25 247.45 36.4 249.55 36.45 250.2 36.65 250.6 37.25 251.6 38.05 251.4 L40.4 251.0 41.9 251.0 Q42.7 250.85 43.25 251.7 L44.45 252.4 45.3 252.3 46.8 252.05 Q47.8 252.0 47.8 250.85 L47.8 242.9 Q47.35 241.3 46.55 240.4 45.95 239.65 45.8 238.7 L45.7 237.75 Q45.65 235.05 44.65 232.95 L43.4 231.0 Q42.65 230.25 41.3 229.95 40.25 228.95 39.35 226.5 38.35 221.9 36.15 218.15 L35.25 216.4 Q34.85 215.95 34.85 215.35 34.85 213.8 35.2 211.8 35.35 208.55 35.0 205.45 L34.5 203.75 34.1 202.2 33.8 201.1 33.45 199.65 32.9 198.05 32.7 197.15 Q32.5 192.5 32.65 187.1 33.2 186.2 33.15 184.65 L33.05 180.8 33.0 179.85 32.35 173.8 32.15 172.55 Q31.7 169.8 31.95 166.15 L32.4 164.45 33.1 161.0 33.2 158.2 32.4 155.45 31.6 154.65 Q31.25 154.25 31.25 153.65 L31.2 146.9 31.25 145.65 31.5 143.1 31.8 135.9 Q32.75 133.2 33.0 130.3 33.1 129.1 32.7 128.7 L32.05 129.6 31.25 130.7 Q30.95 131.2 30.2 131.1 29.9 129.5 29.9 127.75 L29.85 125.2 Q29.6 122.55 29.85 119.1 L29.9 113.65 30.0 112.45 30.15 111.6 30.2 111.1 30.2 103.55 30.2 103.15 30.2 101.85 30.4 99.0 30.5 94.2 30.6 85.85 Q30.6 84.35 30.1 82.55 29.85 82.35 29.5 82.3 29.15 82.25 29.25 81.4 L29.55 77.85 29.85 76.4 Q30.3 74.95 30.0 72.55 L28.85 70.15 28.5 69.5 Q27.95 68.15 28.0 66.4 L28.2 57.1 28.5 55.8 28.85 53.8 28.95 53.35 28.85 53.5 28.35 54.3 27.9 55.45 27.45 56.55 27.0 57.75 24.8 61.6 24.85 53.95 25.2 51.35 Q25.45 48.85 24.3 46.35 23.7 45.7 24.0 44.3 24.35 42.0 25.05 40.2 24.75 40.9 23.9 41.5 23.1 41.8 22.2 41.0 L21.9 39.5 21.75 35.7 Q21.6 33.35 22.35 31.45 22.75 29.15 23.7 27.0 L24.2 23.85 24.3 22.9 Q24.6 19.4 25.05 16.15 24.5 16.5 24.15 17.15 23.45 18.55 21.65 19.75 21.2 20.45 20.55 20.35 21.45 17.55 21.25 13.05 21.8 11.3 22.05 8.85 L22.55 7.8 Q23.05 6.55 23.9 5.2 L24.65 4.25 Q25.7 3.25 26.25 0.8 26.4 -0.45 26.8 -1.0 L28.25 -3.6 28.85 -4.8 28.9 -4.9 29.35 -5.95 30.05 -7.15 Q30.2 -8.75 31.1 -10.1 L31.85 -12.65 32.4 -15.15 32.7 -16.3 Q33.35 -18.15 33.35 -21.2 L33.65 -19.0 Q33.65 -18.2 33.95 -17.65 34.4 -16.85 34.65 -15.15 L36.9 -9.3 Q37.55 -7.7 38.45 -6.2 L38.8 -5.4 Q39.5 -4.45 39.7 -2.7 39.85 -1.35 40.35 -0.35 L40.7 0.85 Q41.05 3.4 42.35 5.0 L43.55 6.7 Q44.0 7.05 44.5 7.15 46.05 7.5 47.3 8.75 L46.7 14.35 46.1 19.25 Q46.25 20.9 45.9 22.35 45.65 23.45 44.85 23.95 L44.55 23.95 43.7 24.2 Q42.3 24.8 43.5 26.55 43.5 27.95 43.9 29.15 44.25 30.2 44.15 31.45 43.95 34.85 45.3 37.7 L45.7 38.65 Q46.15 39.95 46.85 40.7 L48.45 42.6 Q50.0 44.8 51.65 46.15 L52.45 47.0 Q53.4 47.3 53.35 48.65 L52.95 49.8 51.45 51.9 Q50.85 52.15 50.7 53.25 50.6 54.55 51.05 55.5 L51.45 56.4 Q52.1 57.85 52.15 59.85 L48.85 60.1 44.8 59.95 Q44.0 59.9 43.4 59.5 L42.7 59.55 Q42.7 60.9 43.1 62.15 L43.25 63.25 43.35 69.3 43.25 73.3 Q43.15 75.5 40.9 74.9 40.7 74.55 40.1 74.75 39.9 76.5 40.5 77.95 L40.7 78.75 Q40.7 80.45 41.0 81.9 L41.35 82.7 41.9 83.7 43.15 85.1 43.85 85.7 Q44.9 86.65 46.25 86.4 48.8 85.95 50.95 83.85 L51.75 83.15 52.7 82.05 Q53.45 80.95 54.8 82.55 L57.55 82.65 Q58.55 81.7 59.2 79.6 L59.35 71.9 Q59.85 69.95 61.2 69.05 L62.1 68.4 Q63.65 67.25 65.75 67.45 L66.05 66.5 66.25 65.3 66.95 62.7 67.4 58.7 68.6 57.05 Q69.9 56.1 69.65 53.5 L69.15 52.6 68.55 51.55 Q67.8 50.75 67.25 49.5 L67.3 48.1 67.45 46.9 67.8 43.8 Q67.85 43.25 68.15 43.0 L69.3 41.55 Q70.9 40.2 70.8 36.95 L71.35 34.85 71.95 31.85 Q70.6 34.2 68.8 35.45 68.85 33.4 69.2 31.45 L69.35 30.6 Q69.65 29.35 69.65 26.7 70.25 25.45 70.35 24.0 L70.5 20.55 70.15 18.0 69.55 15.65 Q69.1 14.3 69.25 12.8 L69.35 11.7 Q69.85 9.1 69.75 6.2 L69.65 3.6 69.65 2.05 69.6 2.1 68.2 4.15 67.05 6.1 65.15 3.95 Q64.95 2.7 65.05 1.45 L65.1 0.2 65.15 -1.0 65.25 -2.35 Q65.35 -3.8 64.9 -5.45 L63.9 -8.8 63.65 -9.7 61.2 -15.8 61.0 -16.75 61.0 -21.9 61.1 -22.8 Q61.5 -27.7 61.15 -32.65 61.1 -33.35 61.55 -34.15 L62.2 -35.4 62.8 -36.45 63.05 -37.05 63.25 -38.5 63.1 -39.9 Q62.6 -41.65 62.75 -43.8 L62.75 -44.65 Q62.45 -46.5 62.5 -48.6 L62.6 -49.4 62.65 -50.7 Q62.45 -53.6 63.35 -56.05 L62.8 -54.8 61.7 -53.15 61.25 -52.65 Q60.5 -52.1 59.75 -50.4 59.65 -50.0 58.9 -50.0 L58.25 -50.75 57.85 -51.35 56.45 -54.25 Q55.95 -56.1 55.7 -58.7 L55.25 -60.2 55.15 -61.65 54.95 -62.6 53.75 -66.45 Q53.15 -68.9 52.15 -71.35 52.0 -72.65 52.25 -73.6 L52.85 -76.15 53.2 -77.95 53.2 -78.25 52.75 -77.5 51.2 -75.1 50.35 -74.2 Q49.4 -73.5 48.25 -74.0 L46.9 -74.4 Q46.4 -74.45 45.9 -73.9 L45.2 -72.65 44.65 -71.6 43.9 -70.7 43.05 -70.05 42.2 -69.95 39.85 -70.35 Q39.2 -70.4 38.3 -71.0 L37.5 -71.35 Q36.75 -71.8 36.05 -72.85 L35.25 -74.2 34.95 -74.75 Q34.7 -75.05 34.7 -75.5 L34.6 -79.8 33.65 -77.55 33.3 -77.0 32.85 -76.15 32.25 -75.15 31.85 -74.65 30.75 -74.55 Q29.35 -75.2 27.45 -75.15 L26.6 -75.3 Q24.65 -74.85 22.7 -76.2 L21.75 -76.95 15.3 -77.25 12.6 -77.35 Q11.6 -77.25 11.15 -77.85 L11.65 -78.35 12.55 -79.15 15.3 -81.85 16.7 -83.8 18.2 -85.65 19.2 -86.5 19.1 -87.3 20.8 -89.65 21.2 -95.95 21.35 -97.1 Q21.75 -98.7 22.5 -100.3 L23.5 -102.1 Q23.95 -102.9 23.9 -104.25 L24.0 -109.3 Q24.1 -110.45 24.5 -111.05 L24.25 -110.75 23.5 -109.9 Q22.8 -109.15 22.45 -107.9 L21.65 -105.8 Q21.2 -104.8 19.95 -104.0 18.45 -103.05 18.65 -105.05 L19.15 -106.1 Q19.4 -107.5 19.05 -108.85 L18.6 -110.15 18.0 -111.35 17.2 -113.0 16.9 -113.7 15.1 -117.35 Q14.95 -119.25 13.75 -121.5 L12.95 -126.6 12.95 -126.85 Q12.95 -128.45 11.85 -129.0 L11.15 -128.8 10.1 -128.45 M33.8 -6.05 Q33.8 -4.9 33.3 -4.0 L32.15 -2.1 31.75 -1.4 31.1 -0.9 Q30.3 -0.65 29.75 0.35 L29.4 0.75 Q29.25 0.9 29.25 1.25 L29.2 2.15 29.15 4.6 29.0 6.15 28.85 6.6 28.7 6.9 27.9 7.45 27.4 8.25 27.0 8.95 26.6 9.65 26.3 10.2 Q25.85 10.95 25.9 11.55 L25.85 12.1 27.95 10.65 28.25 10.4 28.85 9.85 29.5 9.1 30.0 8.65 30.5 8.25 31.1 7.8 31.7 7.15 32.45 6.4 32.9 5.8 33.15 5.35 33.5 4.65 33.75 4.05 34.4 2.15 Q34.05 4.8 33.05 7.35 L32.85 8.05 31.55 11.35 Q30.75 13.3 29.6 14.95 L28.85 15.85 Q28.25 16.6 27.9 17.55 L27.6 18.25 27.15 20.55 Q26.75 21.85 27.15 23.1 27.2 24.55 27.4 25.3 L27.75 26.8 27.95 27.85 28.25 29.85 28.35 30.55 Q28.4 32.55 28.1 34.45 L27.95 35.15 27.0 37.4 26.85 37.95 26.45 40.35 26.35 41.05 Q26.3 42.55 26.7 43.95 L26.9 44.7 27.4 45.85 28.2 46.65 28.85 46.7 29.5 46.45 29.9 45.85 30.35 45.1 31.4 41.9 31.75 40.3 31.8 39.7 31.9 37.15 31.95 36.65 32.4 32.95 32.65 31.85 32.7 31.75 33.0 39.0 33.05 41.2 33.05 48.15 Q33.05 49.95 32.4 51.55 L32.25 52.0 31.95 52.85 31.55 53.8 Q31.05 55.3 30.95 56.75 30.9 58.1 31.15 59.35 L31.35 60.25 Q31.75 61.7 31.7 63.35 L31.65 65.55 31.55 66.5 31.5 67.25 31.6 69.0 31.8 69.45 31.95 69.8 32.3 70.4 32.55 70.75 32.7 71.15 33.25 72.4 33.45 72.9 33.6 73.55 Q33.8 74.55 34.3 75.05 L34.75 75.4 34.8 75.4 35.4 75.25 36.1 74.45 36.5 73.75 37.3 72.3 37.5 71.9 37.9 71.0 38.25 70.15 38.55 69.15 38.6 67.95 38.7 63.4 38.7 62.9 38.8 62.4 39.0 61.6 39.25 60.75 39.3 53.7 Q40.1 53.8 40.7 54.7 41.1 55.35 41.75 55.45 L42.7 55.55 43.4 55.25 43.75 54.95 44.05 54.7 44.6 54.0 44.8 53.35 42.6 50.4 Q41.95 49.4 41.7 48.1 L41.55 46.5 41.5 45.95 41.0 42.85 40.55 41.2 40.4 40.05 41.1 41.15 41.55 42.05 42.0 43.2 Q42.25 43.9 42.65 44.4 L42.9 44.8 43.95 46.9 Q44.95 47.9 45.95 48.0 46.65 48.4 47.2 48.45 47.05 47.1 46.4 46.1 L45.55 44.65 43.35 40.45 42.75 39.5 Q41.8 38.1 41.9 36.3 L40.95 34.95 39.5 33.45 39.0 32.75 38.7 32.2 38.45 31.7 Q37.9 31.0 37.9 29.9 L37.9 29.35 37.85 26.1 Q37.9 24.55 37.6 23.2 L37.4 22.65 36.0 20.25 35.65 19.5 35.35 18.75 35.15 17.85 35.05 17.4 34.8 13.75 34.9 11.8 34.95 10.5 35.45 12.3 35.6 13.1 35.8 13.95 36.0 14.65 36.55 16.05 36.85 16.6 37.2 17.2 37.35 18.2 Q37.6 19.15 38.35 19.5 39.6 20.15 40.4 21.3 L41.3 22.6 Q41.6 21.35 42.9 20.3 36.5 3.85 36.65 1.45 36.8 -0.1 36.3 -1.35 L35.3 -3.5 33.8 -6.05 M-35.5 -3.5 L-36.5 -1.35 Q-37.0 -0.1 -36.85 1.45 -36.7 3.85 -43.1 20.3 -41.8 21.35 -41.5 22.6 L-40.6 21.3 Q-39.8 20.15 -38.55 19.5 -37.8 19.15 -37.55 18.2 L-37.4 17.2 -37.05 16.6 -36.75 16.05 -36.2 14.65 -36.0 13.95 -35.8 13.1 -35.65 12.3 -35.15 10.5 -35.1 11.8 -35.0 13.75 -35.25 17.4 -35.35 17.85 -35.55 18.75 -35.85 19.5 -36.2 20.25 -37.6 22.65 -37.8 23.2 -38.05 26.1 -38.1 29.35 -38.1 29.9 Q-38.1 31.0 -38.65 31.7 L-38.9 32.2 -39.2 32.75 -39.7 33.45 -41.15 34.95 -42.1 36.3 Q-42.0 38.1 -42.95 39.5 L-43.55 40.45 -45.75 44.65 -46.6 46.1 Q-47.25 47.1 -47.4 48.45 L-46.15 48.0 Q-45.15 47.9 -44.15 46.9 L-43.1 44.8 -42.85 44.4 Q-42.45 43.9 -42.2 43.2 L-41.75 42.05 -41.3 41.15 -40.6 40.05 -40.75 41.2 -41.2 42.85 -41.7 45.95 -41.75 46.5 -41.9 48.1 Q-42.15 49.4 -42.8 50.4 L-45.0 53.35 -44.8 54.0 -44.25 54.7 -43.95 54.95 -43.6 55.25 -42.9 55.55 -41.95 55.45 Q-41.3 55.35 -40.9 54.7 -40.3 53.8 -39.5 53.7 L-39.45 60.75 -39.2 61.6 -39.0 62.4 -38.9 62.9 -38.9 63.4 -38.8 67.95 -38.75 69.15 -38.45 70.15 -38.1 71.0 -37.7 71.9 -37.5 72.3 -36.7 73.75 -36.3 74.45 -35.6 75.25 -35.0 75.4 -34.95 75.4 -34.5 75.05 Q-34.0 74.55 -33.8 73.55 L-33.65 72.9 -33.45 72.4 -32.9 71.15 -32.75 70.75 -32.5 70.4 -32.15 69.8 -32.0 69.45 -31.8 69.0 -31.7 67.25 -31.75 66.5 -31.85 65.55 -31.9 63.35 Q-31.95 61.7 -31.55 60.25 L-31.35 59.35 Q-31.1 58.1 -31.15 56.75 -31.25 55.3 -31.75 53.8 L-32.15 52.85 -32.45 52.0 -32.6 51.55 Q-33.25 49.95 -33.25 48.15 L-33.25 41.2 -33.2 39.0 -32.9 31.75 -32.85 31.85 -32.6 32.95 Q-32.25 34.8 -32.15 36.65 L-32.1 37.15 -32.0 39.7 -31.95 40.3 -31.6 41.9 -30.55 45.1 -30.1 45.85 -29.7 46.45 -29.05 46.7 -28.4 46.65 -27.6 45.85 -27.1 44.7 -26.9 43.95 Q-26.5 42.55 -26.55 41.05 L-26.65 40.35 -27.05 37.95 -27.2 37.4 -28.15 35.15 -28.3 34.45 -28.55 30.55 -28.45 29.85 -28.15 27.85 -27.95 26.8 -27.6 25.3 Q-27.4 24.55 -27.35 23.1 -26.95 21.85 -27.35 20.55 L-27.8 18.25 -28.1 17.55 Q-28.45 16.6 -29.05 15.85 L-29.8 14.95 Q-30.95 13.3 -31.75 11.35 L-33.05 8.05 -33.25 7.35 Q-34.25 4.8 -34.6 2.15 L-33.95 4.05 -33.7 4.65 -33.35 5.35 -33.1 5.8 -32.65 6.4 -31.9 7.15 -31.3 7.8 -30.7 8.25 -30.2 8.65 -29.7 9.1 -29.05 9.85 -28.45 10.4 -28.15 10.65 -26.05 12.1 -26.1 11.55 Q-26.05 10.95 -26.5 10.2 L-26.8 9.65 -27.2 8.95 Q-27.3 8.45 -27.6 8.25 L-28.1 7.45 -28.9 6.9 -29.05 6.6 -29.2 6.15 -29.35 4.6 -29.4 2.15 -29.45 1.25 Q-29.45 0.9 -29.6 0.75 L-29.95 0.35 Q-30.5 -0.65 -31.3 -0.9 L-31.95 -1.4 -32.35 -2.1 -33.5 -4.0 Q-34.0 -4.9 -34.0 -6.05 L-35.5 -3.5" fill="url(#gradient0)" fill-rule="evenodd" stroke="none"/>
    <path d="M-47.15 -112.5 L-46.55 -117.45 -46.75 -112.3 Q-46.8 -108.85 -46.2 -105.25 L-46.05 -99.1 -45.7 -98.05 -45.1 -96.8 -43.9 -95.0 -43.5 -94.7 Q-43.0 -94.7 -42.5 -93.65 L-42.35 -92.0 Q-42.25 -89.7 -43.4 -88.35 L-44.9 -86.5 Q-45.45 -86.1 -46.15 -86.3 L-47.85 -87.3 -48.2 -87.75 Q-48.85 -88.0 -49.35 -89.3 L-50.1 -90.6 Q-51.85 -94.1 -52.4 -98.25 L-52.6 -99.45 -53.2 -104.2 -52.1 -101.95 -51.1 -100.15 -50.25 -98.5 -49.6 -97.6 Q-49.2 -97.1 -48.6 -97.8 -48.1 -98.2 -48.3 -99.45 L-48.6 -101.35 -48.55 -103.4 -48.4 -104.15 -48.1 -105.55 Q-47.8 -106.15 -47.75 -107.95 L-47.3 -111.1 -47.15 -112.5" fill="url(#gradient1)" fill-rule="evenodd" stroke="none"/>
    <path d="M10.1 -128.45 L11.15 -128.8 11.85 -129.0 Q12.95 -128.45 12.95 -126.85 L12.95 -126.6 13.75 -121.5 Q14.95 -119.25 15.1 -117.35 L16.9 -113.7 17.2 -113.0 18.0 -111.35 18.6 -110.15 19.05 -108.85 Q19.4 -107.5 19.15 -106.1 L18.65 -105.05 Q18.45 -103.05 19.95 -104.0 21.2 -104.8 21.65 -105.8 L22.45 -107.9 Q22.8 -109.15 23.5 -109.9 L24.25 -110.75 24.5 -111.05 Q24.1 -110.45 24.0 -109.3 L23.9 -104.25 Q23.95 -102.9 23.5 -102.1 L22.5 -100.3 Q21.75 -98.7 21.35 -97.1 L21.2 -95.95 20.8 -89.65 19.1 -87.3 19.2 -86.5 18.2 -85.65 16.7 -83.8 15.3 -81.85 12.55 -79.15 11.65 -78.35 11.15 -77.85 Q11.6 -77.25 12.6 -77.35 L15.3 -77.25 21.75 -76.95 22.7 -76.2 Q24.65 -74.85 26.6 -75.3 L27.45 -75.15 Q29.35 -75.2 30.75 -74.55 L31.85 -74.65 32.25 -75.15 32.85 -76.15 33.3 -77.0 33.65 -77.55 34.6 -79.8 34.7 -75.5 Q34.7 -75.05 34.95 -74.75 L35.25 -74.2 36.05 -72.85 Q36.75 -71.8 37.5 -71.35 L38.3 -71.0 Q39.2 -70.4 39.85 -70.35 L42.2 -69.95 43.05 -70.05 43.9 -70.7 44.65 -71.6 45.2 -72.65 45.9 -73.9 Q46.4 -74.45 46.9 -74.4 L48.25 -74.0 Q49.4 -73.5 50.35 -74.2 L51.2 -75.1 52.75 -77.5 53.2 -78.25 53.2 -77.95 52.85 -76.15 52.25 -73.6 Q52.0 -72.65 52.15 -71.35 53.15 -68.9 53.75 -66.45 L54.95 -62.6 55.15 -61.65 55.25 -60.2 55.7 -58.7 Q55.95 -56.1 56.45 -54.25 L57.85 -51.35 58.25 -50.75 58.9 -50.0 Q59.65 -50.0 59.75 -50.4 60.5 -52.1 61.25 -52.65 L61.7 -53.15 62.8 -54.8 63.35 -56.05 Q62.45 -53.6 62.65 -50.7 L62.6 -49.4 62.5 -48.6 Q62.45 -46.5 62.75 -44.65 L62.75 -43.8 Q62.6 -41.65 63.1 -39.9 L63.25 -38.5 63.05 -37.05 62.8 -36.45 62.2 -35.4 61.55 -34.15 Q61.1 -33.35 61.15 -32.65 61.5 -27.7 61.1 -22.8 L61.0 -21.9 61.0 -16.75 61.2 -15.8 63.65 -9.7 63.9 -8.8 64.9 -5.45 Q65.35 -3.8 65.25 -2.35 L65.15 -1.0 65.1 0.2 65.05 1.45 Q64.95 2.7 65.15 3.95 L67.05 6.1 68.2 4.15 69.6 2.1 69.65 2.05 69.65 3.6 69.75 6.2 Q69.85 9.1 69.35 11.7 L69.25 12.8 Q69.1 14.3 69.55 15.65 L70.15 18.0 70.5 20.55 70.35 24.0 Q70.25 25.45 69.65 26.7 69.65 29.35 69.35 30.6 L69.2 31.45 Q68.85 33.4 68.8 35.45 70.6 34.2 71.95 31.85 L71.35 34.85 70.8 36.95 Q70.9 40.2 69.3 41.55 L68.15 43.0 Q67.85 43.25 67.8 43.8 L67.45 46.9 67.3 48.1 67.25 49.5 Q67.8 50.75 68.55 51.55 L69.15 52.6 69.65 53.5 Q69.9 56.1 68.6 57.05 L67.4 58.7 66.95 62.7 66.25 65.3 66.05 66.5 65.75 67.45 Q63.65 67.25 62.1 68.4 L61.2 69.05 Q59.85 69.95 59.35 71.9 L59.2 79.6 Q58.55 81.7 57.55 82.65 L54.8 82.55 Q53.45 80.95 52.7 82.05 L51.75 83.15 50.95 83.85 Q48.8 85.95 46.25 86.4 44.9 86.65 43.85 85.7 L43.15 85.1 41.9 83.7 41.35 82.7 41.0 81.9 Q40.7 80.45 40.7 78.75 L40.5 77.95 Q39.9 76.5 40.1 74.75 40.7 74.55 40.9 74.9 43.15 75.5 43.25 73.3 L43.35 69.3 43.25 63.25 43.1 62.15 Q42.7 60.9 42.7 59.55 L43.4 59.5 Q44.0 59.9 44.8 59.95 L48.85 60.1 52.15 59.85 Q52.1 57.85 51.45 56.4 L51.05 55.5 Q50.6 54.55 50.7 53.25 50.85 52.15 51.45 51.9 L52.95 49.8 53.35 48.65 Q53.4 47.3 52.45 47.0 L51.65 46.15 Q50.0 44.8 48.45 42.6 L46.85 40.7 Q46.15 39.95 45.7 38.65 L45.3 37.7 Q43.95 34.85 44.15 31.45 44.25 30.2 43.9 29.15 43.5 27.95 43.5 26.55 42.3 24.8 43.7 24.2 L44.55 23.95 44.85 23.95 Q45.65 23.45 45.9 22.35 46.25 20.9 46.1 19.25 L46.7 14.35 47.3 8.75 Q46.05 7.5 44.5 7.15 44.0 7.05 43.55 6.7 L42.35 5.0 Q41.05 3.4 40.7 0.85 L40.35 -0.35 Q39.85 -1.35 39.7 -2.7 39.5 -4.45 38.8 -5.4 L38.45 -6.2 Q37.55 -7.7 36.9 -9.3 L34.65 -15.15 Q34.4 -16.85 33.95 -17.65 33.65 -18.2 33.65 -19.0 L33.35 -21.2 Q33.35 -18.15 32.7 -16.3 L32.4 -15.15 31.85 -12.65 31.1 -10.1 Q30.2 -8.75 30.05 -7.15 L29.35 -5.95 28.9 -4.9 28.85 -4.8 28.25 -3.6 26.8 -1.0 Q26.4 -0.45 26.25 0.8 25.7 3.25 24.65 4.25 L23.9 5.2 Q23.05 6.55 22.55 7.8 L22.05 8.85 Q21.8 11.3 21.25 13.05 21.45 17.55 20.55 20.35 21.2 20.45 21.65 19.75 23.45 18.55 24.15 17.15 24.5 16.5 25.05 16.15 24.6 19.4 24.3 22.9 L24.2 23.85 23.7 27.0 Q22.75 29.15 22.35 31.45 21.6 33.35 21.75 35.7 L21.9 39.5 22.2 41.0 Q23.1 41.8 23.9 41.5 24.75 40.9 25.05 40.2 24.35 42.0 24.0 44.3 23.7 45.7 24.3 46.35 25.45 48.85 25.2 51.35 L24.85 53.95 24.8 61.6 27.0 57.75 27.45 56.55 27.9 55.45 28.35 54.3 28.85 53.5 28.95 53.35 28.85 53.8 28.5 55.8 28.2 57.1 28.0 66.4 Q27.95 68.15 28.5 69.5 L28.85 70.15 30.0 72.55 Q30.3 74.95 29.85 76.4 L29.55 77.85 29.25 81.4 Q29.15 82.25 29.5 82.3 29.85 82.35 30.1 82.55 30.6 84.35 30.6 85.85 L30.5 94.2 30.4 99.0 30.2 101.85 30.2 103.15 30.2 103.55 30.2 111.1 30.15 111.6 30.0 112.45 29.9 113.65 29.85 119.1 Q29.6 122.55 29.85 125.2 L29.9 127.75 Q29.9 129.5 30.2 131.1 30.95 131.2 31.25 130.7 L32.05 129.6 32.7 128.7 Q33.1 129.1 33.0 130.3 32.75 133.2 31.8 135.9 L31.5 143.1 31.25 145.65 31.2 146.9 31.25 153.65 Q31.25 154.25 31.6 154.65 L32.4 155.45 33.2 158.2 33.1 161.0 32.4 164.45 31.95 166.15 Q31.7 169.8 32.15 172.55 L32.35 173.8 33.0 179.85 33.05 180.8 33.15 184.65 Q33.2 186.2 32.65 187.1 32.5 192.5 32.7 197.15 L32.9 198.05 33.45 199.65 33.8 201.1 34.1 202.2 34.5 203.75 35.0 205.45 Q35.35 208.55 35.2 211.8 34.85 213.8 34.85 215.35 34.85 215.95 35.25 216.4 L36.15 218.15 Q38.35 221.9 39.35 226.5 40.25 228.95 41.3 229.95 42.65 230.25 43.4 231.0 L44.65 232.95 Q45.65 235.05 45.7 237.75 L45.8 238.7 Q45.95 239.65 46.55 240.4 47.35 241.3 47.8 242.9 L47.8 250.85 Q47.8 252.0 46.8 252.05 L45.3 252.3 44.45 252.4 43.25 251.7 Q42.7 250.85 41.9 251.0 L40.4 251.0 38.05 251.4 Q37.25 251.6 36.65 250.6 36.45 250.2 36.4 249.55 36.25 247.45 35.45 245.75 34.65 244.9 33.8 244.75 L33.15 244.05 31.7 242.35 Q30.45 240.9 29.45 238.7 L28.65 236.75 28.15 235.55 Q27.4 234.0 27.0 232.2 27.0 230.55 26.55 230.25 L25.95 229.1 Q25.85 228.25 25.25 228.15 L24.4 227.05 21.8 223.35 Q20.85 221.8 21.1 219.15 L21.3 218.0 21.65 216.65 22.1 213.4 Q22.65 210.75 22.2 208.95 21.3 207.15 21.05 206.0 L20.55 205.1 20.05 204.15 18.65 198.95 Q18.35 197.6 18.4 196.15 18.95 195.95 19.35 196.65 L20.1 197.55 Q21.1 199.15 21.65 199.55 L22.25 200.0 Q22.75 199.1 22.7 197.45 L22.5 196.4 Q21.65 194.0 20.4 191.9 L19.95 191.0 Q19.2 188.8 19.25 186.2 L19.15 180.15 19.0 179.25 Q17.55 173.8 15.65 168.65 L15.45 167.7 Q15.15 166.0 14.3 164.5 13.6 163.3 13.5 161.65 L13.35 160.3 Q12.95 158.5 13.1 156.5 13.25 154.8 12.9 153.3 L12.8 152.35 12.8 150.8 Q13.5 151.25 13.85 152.4 14.3 153.75 15.4 153.65 L15.5 146.6 Q15.55 142.95 14.95 139.55 L14.85 138.6 14.7 137.3 14.4 136.0 Q14.1 133.75 14.75 133.65 15.3 133.55 15.5 134.25 15.6 134.75 16.05 135.1 L16.7 136.05 17.0 134.5 17.0 132.85 Q16.95 126.75 15.45 121.05 L15.15 120.15 14.15 117.5 13.85 116.6 13.4 115.4 12.95 114.75 12.4 113.7 Q10.45 110.95 10.45 107.0 L10.65 103.15 Q11.2 101.4 11.2 99.95 11.2 98.5 10.7 97.4 L9.2 93.55 8.3 90.75 Q8.0 89.8 8.1 88.15 L8.25 84.9 8.3 83.95 Q8.65 80.8 7.9 77.9 L7.55 77.1 7.0 76.35 Q5.05 73.25 4.6 69.55 L4.5 68.3 4.55 66.4 Q1.95 66.55 0.6 64.2 L-0.1 62.55 Q-0.3 63.35 -0.8 64.2 -2.15 66.55 -4.75 66.4 L-4.7 68.3 -4.8 69.55 Q-5.25 73.25 -7.2 76.35 L-7.75 77.1 -8.1 77.9 Q-8.85 80.8 -8.5 83.95 L-8.45 84.9 -8.3 88.15 Q-8.2 89.8 -8.5 90.75 L-9.4 93.55 Q-10.1 95.7 -10.9 97.4 -11.4 98.5 -11.4 99.95 -11.4 101.4 -10.85 103.15 L-10.65 107.0 Q-10.65 110.95 -12.6 113.7 L-13.15 114.75 -13.6 115.4 -14.05 116.6 -14.35 117.5 -15.35 120.15 -15.65 121.05 Q-17.15 126.75 -17.2 132.85 L-17.2 134.5 -16.9 136.05 -16.25 135.1 Q-15.8 134.75 -15.7 134.25 -15.5 133.55 -14.95 133.65 -14.3 133.75 -14.6 136.0 L-14.9 137.3 -15.05 138.6 -15.15 139.55 Q-15.75 142.95 -15.7 146.6 L-15.6 153.65 Q-14.5 153.75 -14.05 152.4 -13.7 151.25 -13.0 150.8 L-13.0 152.35 -13.1 153.3 Q-13.45 154.8 -13.3 156.5 -13.15 158.5 -13.55 160.3 L-13.7 161.65 Q-13.8 163.3 -14.5 164.5 -15.35 166.0 -15.65 167.7 L-15.85 168.65 Q-17.75 173.8 -19.2 179.25 L-19.35 180.15 -19.45 186.2 Q-19.4 188.8 -20.15 191.0 L-20.6 191.9 Q-21.85 194.0 -22.7 196.4 L-22.9 197.45 Q-22.95 199.1 -22.45 200.0 L-21.85 199.55 Q-21.3 199.15 -20.3 197.55 L-19.55 196.65 Q-19.15 195.95 -18.6 196.15 -18.55 197.6 -18.85 198.95 L-20.25 204.15 -20.75 205.1 -21.25 206.0 Q-21.5 207.15 -22.4 208.95 -22.85 210.75 -22.3 213.4 L-21.85 216.65 -21.5 218.0 -21.3 219.15 Q-21.05 221.8 -22.0 223.35 L-24.6 227.05 -25.45 228.15 Q-26.05 228.25 -26.15 229.1 L-26.75 230.25 Q-27.2 230.55 -27.2 232.2 -27.6 234.0 -28.35 235.55 L-28.85 236.75 -29.65 238.7 Q-30.65 240.9 -31.9 242.35 L-33.35 244.05 -34.0 244.75 Q-34.85 244.9 -35.65 245.75 -36.45 247.45 -36.6 249.55 -36.65 250.2 -36.85 250.6 -37.45 251.6 -38.25 251.4 L-40.6 251.0 -42.1 251.0 Q-42.9 250.85 -43.45 251.7 -43.7 252.1 -44.65 252.4 L-45.5 252.3 -47.0 252.05 Q-48.0 252.0 -48.0 250.85 L-48.0 242.9 Q-47.55 241.3 -46.75 240.4 -46.15 239.65 -46.0 238.7 L-45.9 237.75 Q-45.85 235.05 -44.85 232.95 L-43.6 231.0 Q-42.85 230.25 -41.5 229.95 -40.45 228.95 -39.55 226.5 -38.55 221.9 -36.35 218.15 L-35.45 216.4 Q-35.05 215.95 -35.05 215.35 -35.05 213.8 -35.4 211.8 -35.55 208.55 -35.2 205.45 L-34.7 203.75 -34.3 202.2 -34.0 201.1 -33.65 199.65 -33.1 198.05 -32.9 197.15 Q-32.7 192.5 -32.85 187.1 -33.4 186.2 -33.35 184.65 L-33.25 180.8 -33.2 179.85 -32.55 173.8 -32.35 172.55 Q-31.9 169.8 -32.15 166.15 L-32.6 164.45 -33.3 161.0 -33.4 158.2 -32.6 155.45 -31.8 154.65 Q-31.45 154.25 -31.45 153.65 L-31.4 146.9 -31.45 145.65 -31.7 143.1 -32.0 135.9 Q-32.95 133.2 -33.2 130.3 -33.3 129.1 -32.9 128.7 L-32.25 129.6 -31.45 130.7 Q-31.15 131.2 -30.4 131.1 -30.1 129.5 -30.1 127.75 L-30.05 125.2 Q-29.8 122.55 -30.05 119.1 L-30.1 113.65 -30.2 112.45 -30.35 111.6 -30.4 111.1 -30.4 103.55 -30.4 103.15 -30.4 101.85 -30.6 99.0 -30.7 94.2 -30.8 85.85 Q-30.8 84.35 -30.3 82.55 L-29.7 82.3 Q-29.35 82.25 -29.45 81.4 L-29.75 77.85 -30.05 76.4 Q-30.5 74.95 -30.2 72.55 L-29.05 70.15 -28.7 69.5 Q-28.15 68.15 -28.2 66.4 L-28.4 57.1 -28.7 55.8 -29.05 53.8 -29.15 53.35 -29.05 53.5 -28.55 54.3 -28.1 55.45 -27.65 56.55 -27.2 57.75 -25.0 61.6 -25.05 53.95 -25.4 51.35 Q-25.65 48.85 -24.5 46.35 -23.9 45.7 -24.2 44.3 -24.55 42.0 -25.25 40.2 L-24.1 41.5 Q-23.3 41.8 -22.4 41.0 L-22.1 39.5 -21.95 35.7 Q-21.8 33.35 -22.55 31.45 -22.95 29.15 -23.9 27.0 L-24.4 23.85 -24.5 22.9 Q-24.8 19.4 -25.25 16.15 L-24.35 17.15 Q-23.65 18.55 -21.85 19.75 -21.4 20.45 -20.75 20.35 -21.65 17.55 -21.45 13.05 -22.0 11.3 -22.25 8.85 L-22.75 7.8 Q-23.25 6.55 -24.1 5.2 L-24.85 4.25 Q-25.9 3.25 -26.45 0.8 -26.6 -0.45 -27.0 -1.0 L-28.45 -3.6 -29.05 -4.8 -29.1 -4.9 -29.55 -5.95 -30.25 -7.15 Q-30.4 -8.75 -31.3 -10.1 L-32.05 -12.65 -32.6 -15.15 -32.9 -16.3 Q-33.55 -18.15 -33.55 -21.2 L-33.85 -19.0 Q-33.85 -18.2 -34.15 -17.65 -34.6 -16.85 -34.85 -15.15 L-37.1 -9.3 Q-37.75 -7.7 -38.65 -6.2 L-39.0 -5.4 Q-39.7 -4.45 -39.9 -2.7 -40.05 -1.35 -40.55 -0.35 L-40.9 0.85 Q-41.25 3.4 -42.55 5.0 L-43.75 6.7 -44.7 7.15 Q-46.25 7.5 -47.5 8.75 L-46.9 14.35 -46.3 19.25 Q-46.45 20.9 -46.1 22.35 -45.85 23.45 -45.05 23.95 L-44.75 23.95 -43.9 24.2 Q-42.5 24.8 -43.7 26.55 -43.7 27.95 -44.1 29.15 -44.45 30.2 -44.35 31.45 -44.15 34.85 -45.5 37.7 L-45.9 38.65 Q-46.35 39.95 -47.05 40.7 L-48.65 42.6 Q-50.2 44.8 -51.85 46.15 L-52.65 47.0 Q-53.6 47.3 -53.55 48.65 L-53.15 49.8 -51.65 51.9 Q-51.05 52.15 -50.9 53.25 -50.8 54.55 -51.25 55.5 L-51.65 56.4 Q-52.3 57.85 -52.35 59.85 L-49.05 60.1 -45.0 59.95 -43.6 59.5 -42.9 59.55 Q-42.9 60.9 -43.3 62.15 L-43.45 63.25 -43.55 69.3 -43.45 73.3 Q-43.35 75.5 -41.1 74.9 -40.9 74.55 -40.3 74.75 -40.1 76.5 -40.7 77.95 L-40.9 78.75 Q-40.9 80.45 -41.2 81.9 L-41.55 82.7 -42.1 83.7 -43.35 85.1 -44.05 85.7 Q-45.1 86.65 -46.45 86.4 -49.0 85.95 -51.15 83.85 L-51.95 83.15 -52.9 82.05 Q-53.65 80.95 -55.0 82.55 L-57.75 82.65 Q-58.75 81.7 -59.4 79.6 L-59.55 71.9 Q-60.05 69.95 -61.4 69.05 L-62.3 68.4 Q-63.85 67.25 -65.95 67.45 L-66.25 66.5 -66.45 65.3 -67.15 62.7 -67.6 58.7 -68.8 57.05 Q-70.1 56.1 -69.85 53.5 L-69.35 52.6 -68.75 51.55 -67.45 49.5 -67.5 48.1 -67.65 46.9 -68.0 43.8 Q-68.05 43.25 -68.35 43.0 L-69.5 41.55 Q-71.1 40.2 -71.0 36.95 L-71.55 34.85 -72.15 31.85 Q-70.8 34.2 -69.0 35.45 -69.05 33.4 -69.4 31.45 L-69.55 30.6 Q-69.85 29.35 -69.85 26.7 -70.45 25.45 -70.55 24.0 L-70.7 20.55 -70.35 18.0 -69.75 15.65 Q-69.3 14.3 -69.45 12.8 L-69.55 11.7 Q-70.05 9.1 -69.95 6.2 L-69.85 3.6 -69.85 2.05 -69.8 2.1 -68.4 4.15 -67.25 6.1 -65.35 3.95 Q-65.15 2.7 -65.25 1.45 L-65.3 0.2 -65.35 -1.0 -65.45 -2.35 Q-65.55 -3.8 -65.1 -5.45 L-64.1 -8.8 -63.85 -9.7 -61.4 -15.8 -61.2 -16.75 -61.2 -21.9 -61.3 -22.8 Q-61.7 -27.7 -61.35 -32.65 -61.3 -33.35 -61.75 -34.15 L-62.4 -35.4 -63.0 -36.45 -63.25 -37.05 -63.45 -38.5 -63.3 -39.9 Q-62.8 -41.65 -62.95 -43.8 L-62.95 -44.65 Q-62.65 -46.5 -62.7 -48.6 L-62.8 -49.4 -62.85 -50.7 Q-62.65 -53.6 -63.55 -56.05 L-63.0 -54.8 Q-62.6 -53.85 -61.9 -53.15 L-61.45 -52.65 Q-60.7 -52.1 -59.95 -50.4 -59.85 -50.0 -59.1 -50.0 L-58.45 -50.75 -58.05 -51.35 -56.65 -54.25 Q-56.15 -56.1 -55.9 -58.7 L-55.45 -60.2 -55.35 -61.65 -55.15 -62.6 Q-54.45 -64.35 -53.95 -66.45 -53.35 -68.9 -52.35 -71.35 -52.2 -72.65 -52.45 -73.6 L-53.05 -76.15 -53.4 -77.95 -53.4 -78.25 -52.95 -77.5 -51.4 -75.1 -50.55 -74.2 Q-49.6 -73.5 -48.45 -74.0 L-47.1 -74.4 Q-46.6 -74.45 -46.1 -73.9 L-45.4 -72.65 -44.85 -71.6 -44.1 -70.7 -43.25 -70.05 -42.4 -69.95 -40.05 -70.35 Q-39.4 -70.4 -38.5 -71.0 L-37.7 -71.35 Q-36.95 -71.8 -36.25 -72.85 L-35.45 -74.2 -35.15 -74.75 Q-34.9 -75.05 -34.9 -75.5 L-34.8 -79.8 -33.85 -77.55 -33.5 -77.0 -33.05 -76.15 -32.45 -75.15 -32.05 -74.65 -30.95 -74.55 Q-29.55 -75.2 -27.65 -75.15 L-26.8 -75.3 Q-24.85 -74.85 -22.9 -76.2 L-21.95 -76.95 -15.5 -77.25 -12.8 -77.35 Q-11.8 -77.25 -11.35 -77.85 L-11.85 -78.35 -12.75 -79.15 -15.5 -81.85 -16.9 -83.8 -18.4 -85.65 -19.4 -86.5 -19.3 -87.3 -21.0 -89.65 -21.4 -95.95 -21.55 -97.1 Q-21.95 -98.7 -22.7 -100.3 L-23.7 -102.1 Q-24.15 -102.9 -24.1 -104.25 L-24.2 -109.3 Q-24.3 -110.45 -24.7 -111.05 L-24.45 -110.75 -23.7 -109.9 Q-23.0 -109.15 -22.65 -107.9 L-21.85 -105.8 Q-21.4 -104.8 -20.15 -104.0 -18.65 -103.05 -18.85 -105.05 L-19.35 -106.1 Q-19.6 -107.5 -19.25 -108.85 L-18.8 -110.15 -18.2 -111.35 -17.4 -113.0 -17.1 -113.7 -15.3 -117.35 Q-15.15 -119.25 -13.95 -121.5 L-13.15 -126.6 -13.15 -126.85 Q-13.15 -128.45 -12.05 -129.0 L-11.35 -128.8 -10.3 -128.45 -9.75 -128.3 Q-8.85 -128.0 -8.2 -128.5 L-7.4 -129.05 -6.45 -129.8 -5.65 -130.5 Q-3.7 -132.15 -2.2 -134.7 -1.75 -135.7 -1.45 -137.15 -0.55 -139.5 -0.1 -142.5 0.35 -139.5 1.25 -137.15 1.55 -135.7 2.0 -134.7 3.5 -132.15 5.45 -130.5 L6.25 -129.8 7.2 -129.05 8.0 -128.5 Q8.65 -128.0 9.55 -128.3 L10.1 -128.45" fill="url(#gradient2)" fill-rule="evenodd" stroke="none"/>
    <path d="M-38.4 -134.7 L-37.85 -134.65 Q-37.55 -134.6 -37.4 -134.4 L-36.05 -132.35 -35.55 -131.45 -34.55 -129.8 -34.25 -129.0 Q-33.7 -128.25 -33.2 -126.65 L-32.85 -125.3 Q-32.7 -124.6 -32.7 -123.6 L-32.85 -121.55 Q-32.95 -120.45 -33.6 -119.7 -34.4 -118.7 -34.95 -116.75 L-35.15 -113.65 Q-35.1 -111.35 -34.55 -109.3 L-34.4 -108.8 -35.05 -110.0 -36.8 -113.55 Q-37.4 -114.0 -37.4 -114.7 -37.5 -117.1 -36.45 -118.85 L-35.0 -123.15 Q-34.85 -123.45 -34.85 -124.05 L-35.05 -126.5 -35.3 -127.7 Q-36.45 -131.35 -38.4 -134.7" fill="url(#gradient3)" fill-rule="evenodd" stroke="none"/>
    <path d="M38.2 -134.7 Q36.25 -131.35 35.1 -127.7 L34.85 -126.5 34.65 -124.05 Q34.65 -123.45 34.8 -123.15 L36.25 -118.85 Q37.3 -117.1 37.2 -114.7 37.2 -114.0 36.6 -113.55 L34.85 -110.0 34.2 -108.8 34.35 -109.3 Q34.9 -111.35 34.95 -113.65 L34.75 -116.75 Q34.2 -118.7 33.4 -119.7 32.75 -120.45 32.65 -121.55 L32.5 -123.6 Q32.5 -124.6 32.65 -125.3 L33.0 -126.65 Q33.5 -128.25 34.05 -129.0 L34.35 -129.8 35.35 -131.45 35.85 -132.35 37.2 -134.4 37.65 -134.65 38.2 -134.7" fill="url(#gradient4)" fill-rule="evenodd" stroke="none"/>
    <path d="M46.35 -117.45 L46.95 -112.5 47.1 -111.1 47.55 -107.95 Q47.6 -106.15 47.9 -105.55 L48.2 -104.15 48.35 -103.4 48.4 -101.35 48.1 -99.45 Q47.9 -98.2 48.4 -97.8 49.0 -97.1 49.4 -97.6 L50.05 -98.5 50.9 -100.15 51.9 -101.95 53.0 -104.2 52.4 -99.45 52.2 -98.25 Q51.65 -94.1 49.9 -90.6 L49.15 -89.3 Q48.65 -88.0 48.0 -87.75 L47.65 -87.3 45.95 -86.3 44.7 -86.5 43.2 -88.35 Q42.05 -89.7 42.15 -92.0 L42.3 -93.65 Q42.8 -94.7 43.3 -94.7 L43.7 -95.0 44.9 -96.8 45.5 -98.05 45.85 -99.1 46.0 -105.25 Q46.6 -108.85 46.55 -112.3 L46.35 -117.45" fill="url(#gradient5)" fill-rule="evenodd" stroke="none"/>
    <path d="M46.45 144.65 L46.65 143.75 Q47.1 141.3 47.05 139.3 L47.25 137.7 47.15 149.15 46.3 152.65 45.65 155.3 45.05 158.45 Q44.85 160.0 44.45 161.0 L45.3 160.85 Q46.0 160.65 46.15 159.85 L46.8 158.75 Q46.55 159.7 46.8 160.7 46.65 161.85 46.05 162.75 L44.2 166.35 43.6 167.1 41.0 169.55 Q40.5 169.85 40.25 169.2 40.0 166.7 40.1 165.2 L40.25 163.25 40.55 161.3 40.85 160.05 41.15 158.45 Q41.45 157.5 41.7 157.35 L42.35 156.95 Q43.1 156.65 43.45 155.6 L44.4 153.0 45.1 150.8 45.65 148.6 45.85 147.55 46.0 146.6 46.2 145.65 46.45 144.65" fill="url(#gradient6)" fill-rule="evenodd" stroke="none"/>
    <path d="M-46.65 144.65 L-46.4 145.65 -46.2 146.6 -46.05 147.55 -45.85 148.6 -45.3 150.8 -44.6 153.0 -43.65 155.6 Q-43.3 156.65 -42.55 156.95 L-41.9 157.35 Q-41.65 157.5 -41.35 158.45 L-41.05 160.05 -40.75 161.3 -40.45 163.25 -40.3 165.2 Q-40.2 166.7 -40.45 169.2 -40.7 169.85 -41.2 169.55 -42.65 168.6 -43.8 167.1 L-44.4 166.35 -46.25 162.75 Q-46.85 161.85 -47.0 160.7 -46.75 159.7 -47.0 158.75 L-46.35 159.85 Q-46.2 160.65 -45.5 160.85 L-44.65 161.0 Q-45.05 160.0 -45.25 158.45 L-45.85 155.3 -46.5 152.65 -47.35 149.15 -47.45 137.7 -47.25 139.3 Q-47.3 141.3 -46.85 143.75 L-46.65 144.65" fill="url(#gradient7)" fill-rule="evenodd" stroke="none"/>
  </g>
  <defs>
    <linearGradient gradientTransform="matrix(0.0, -0.2576, 0.1011, 0.0, -0.1, 45.7)" gradientUnits="userSpaceOnUse" id="gradient0" spreadMethod="pad" x1="-819.2" x2="819.2">
      <stop offset="0.0" stop-color="#000000" stop-opacity="0.2"/>
      <stop offset="1.0" stop-color="#000000" stop-opacity="0.0"/>
    </linearGradient>
    <linearGradient gradientTransform="matrix(0.0, -0.019, 0.0066, 0.0, -47.8, -101.85)" gradientUnits="userSpaceOnUse" id="gradient1" spreadMethod="pad" x1="-819.2" x2="819.2">
      <stop offset="0.0" stop-color="#000000" stop-opacity="0.2"/>
      <stop offset="1.0" stop-color="#000000" stop-opacity="0.0"/>
    </linearGradient>
    <linearGradient gradientTransform="matrix(0.0, 0.241, -0.088, 0.0, -0.1, 54.95)" gradientUnits="userSpaceOnUse" id="gradient2" spreadMethod="pad" x1="-819.2" x2="819.2">
      <stop offset="0.0" stop-color="#000000" stop-opacity="0.2"/>
      <stop offset="1.0" stop-color="#000000" stop-opacity="0.0"/>
    </linearGradient>
    <linearGradient gradientTransform="matrix(0.0, -0.0158, 0.0035, 0.0, -35.55, -121.75)" gradientUnits="userSpaceOnUse" id="gradient3" spreadMethod="pad" x1="-819.2" x2="819.2">
      <stop offset="0.0" stop-color="#000000" stop-opacity="0.2"/>
      <stop offset="1.0" stop-color="#000000" stop-opacity="0.0"/>
    </linearGradient>
    <linearGradient gradientTransform="matrix(0.0, -0.0158, 0.0035, 0.0, 35.35, -121.75)" gradientUnits="userSpaceOnUse" id="gradient4" spreadMethod="pad" x1="-819.2" x2="819.2">
      <stop offset="0.0" stop-color="#000000" stop-opacity="0.2"/>
      <stop offset="1.0" stop-color="#000000" stop-opacity="0.0"/>
    </linearGradient>
    <linearGradient gradientTransform="matrix(0.0, -0.019, 0.0066, 0.0, 47.55, -101.85)" gradientUnits="userSpaceOnUse" id="gradient5" spreadMethod="pad" x1="-819.2" x2="819.2">
      <stop offset="0.0" stop-color="#000000" stop-opacity="0.2"/>
      <stop offset="1.0" stop-color="#000000" stop-opacity="0.0"/>
    </linearGradient>
    <linearGradient gradientTransform="matrix(0.0, -0.0195, 0.0044, 0.0, 43.65, 153.7)" gradientUnits="userSpaceOnUse" id="gradient6" spreadMethod="pad" x1="-819.2" x2="819.2">
      <stop offset="0.0" stop-color="#000000" stop-opacity="0.2"/>
      <stop offset="1.0" stop-color="#000000" stop-opacity="0.0"/>
    </linearGradient>
    <linearGradient gradientTransform="matrix(0.0, -0.0195, 0.0044, 0.0, -43.85, 153.7)" gradientUnits="userSpaceOnUse" id="gradient7" spreadMethod="pad" x1="-819.2" x2="819.2">
      <stop offset="0.0" stop-color="#000000" stop-opacity="0.2"/>
      <stop offset="1.0" stop-color="#000000" stop-opacity="0.0"/>
    </linearGradient>
  </defs>
</svg>
