<?xml version="1.0" encoding="UTF-8" standalone="no"?>
<svg xmlns:xlink="http://www.w3.org/1999/xlink" height="40.65px" width="14.85px" xmlns="http://www.w3.org/2000/svg">
  <g transform="matrix(1.0, 0.0, 0.0, 1.0, -383.9, -160.2)">
    <path d="M387.2 160.2 L387.35 160.6 387.5 161.35 387.65 162.15 388.2 164.85 388.35 165.7 Q388.45 166.3 389.15 167.0 389.95 167.65 390.45 168.85 L390.65 169.45 391.0 171.7 Q391.1 172.65 391.5 173.6 392.05 174.45 392.2 175.75 L392.15 176.1 392.2 177.25 392.55 179.3 392.4 180.65 392.1 181.3 391.9 182.3 Q392.0 183.65 392.8 184.75 L393.7 185.9 393.95 187.6 394.05 188.0 394.5 188.9 395.1 189.65 Q396.05 190.15 396.05 191.65 L396.5 192.1 397.0 192.65 398.75 194.15 398.15 194.7 Q397.7 195.0 397.4 195.7 L396.7 196.65 395.7 197.55 395.45 197.75 394.85 198.15 394.4 198.5 394.1 198.8 393.85 199.2 393.3 199.85 393.0 200.1 Q392.9 200.7 392.2 200.8 L390.75 200.55 390.1 200.2 389.75 200.0 389.0 199.75 388.1 199.45 387.8 198.15 Q387.65 197.55 387.1 197.35 L386.7 197.25 386.35 196.8 386.05 196.55 385.7 196.2 385.05 195.35 384.65 195.1 384.45 194.85 383.9 194.55 384.25 194.5 385.65 193.55 385.9 193.25 386.2 192.9 386.65 191.6 Q386.75 190.7 386.5 189.75 386.45 189.25 386.7 188.6 L386.9 188.2 387.1 187.9 387.35 187.55 Q387.65 186.85 387.55 185.95 L387.15 182.9 387.25 181.95 387.25 181.55 387.25 181.05 Q387.1 180.15 387.3 179.35 L387.5 179.05 387.7 178.25 Q387.65 178.05 388.05 177.7 L388.15 176.7 387.6 174.65 Q387.4 174.3 387.5 173.55 L387.65 172.75 387.6 172.05 387.25 169.9 Q386.95 168.7 387.0 167.95 L387.05 165.85 Q387.55 163.0 387.2 160.2" fill="#000000" fill-rule="evenodd" stroke="none"/>
  </g>
</svg>
