<?xml version="1.0" encoding="UTF-8" standalone="no"?>
<svg xmlns:xlink="http://www.w3.org/1999/xlink" height="117.8px" width="62.95px" xmlns="http://www.w3.org/2000/svg">
  <g transform="matrix(1.0, 0.0, 0.0, 1.0, -307.3, -273.7)">
    <path d="M355.65 307.25 L352.95 303.2 346.5 289.95 Q336.95 285.9 324.3 284.25 L323.4 284.2 M355.65 307.25 L364.3 320.45 365.45 326.85 365.45 340.85 360.75 354.05 366.9 361.4 369.75 381.05 365.7 383.45 360.45 384.35 357.6 389.6 351.95 391.0 333.5 387.0 333.5 382.95 325.45 368.05 325.45 354.35 315.75 328.75 317.1 328.2 307.8 307.55 313.4 311.15 311.8 308.35 319.3 310.55 324.25 318.55 325.45 311.2 317.7 295.6 318.85 287.9 312.75 274.2 319.5 277.55 323.4 284.2" fill="none" stroke="#000000" stroke-linecap="round" stroke-linejoin="round" stroke-width="1.0"/>
    <path d="M323.4 284.2 Q321.95 284.55 322.2 288.2 L322.35 290.15 322.35 297.05 328.8 302.75 339.9 322.6 350.2 308.85 355.65 307.25 M324.25 318.55 L324.05 319.75 321.85 324.3 320.7 326.6 317.1 328.2 M325.45 311.2 L325.7 309.55 322.35 297.05 M325.45 354.35 L329.95 347.7 341.45 344.45 339.9 322.6 M341.45 344.45 L350.6 348.35 355.2 352.3 360.75 354.05 M369.75 381.05 L364.95 377.05 356.7 377.2 349.1 381.15 339.9 379.4 333.5 382.95 M313.4 311.15 L317.15 313.55 321.85 324.3" fill="none" stroke="#000000" stroke-linecap="round" stroke-linejoin="round" stroke-opacity="0.5019608" stroke-width="1.0"/>
  </g>
</svg>
