<?xml version="1.0" encoding="UTF-8" standalone="no"?>
<svg xmlns:xlink="http://www.w3.org/1999/xlink" height="39.55px" width="33.05px" xmlns="http://www.w3.org/2000/svg">
  <g transform="matrix(1.0, 0.0, 0.0, 1.0, -334.75, -357.6)">
    <path d="M355.9 369.3 L355.9 365.35 M337.9 374.7 L337.0 373.5 337.0 369.55 M344.85 374.35 L343.9 375.6 343.75 376.45 343.75 376.5 M347.65 378.55 L346.8 376.2 M346.65 375.1 L345.15 373.2 345.15 370.6" fill="none" stroke="#000000" stroke-linecap="round" stroke-linejoin="round" stroke-opacity="0.5019608" stroke-width="1.0"/>
    <path d="M346.0 358.1 L358.0 362.4 364.15 366.55 367.3 372.75 Q364.1 374.45 361.2 369.9 L355.9 369.3 355.9 373.75 356.85 378.75 359.5 383.55 363.1 386.75 Q365.5 392.55 361.2 394.65 L354.25 388.65 349.25 383.0 347.65 378.55 343.75 376.5 343.2 379.45 344.65 386.1 347.7 392.05 Q347.8 393.35 347.15 394.6 346.35 396.1 344.45 396.65 L339.4 387.5 337.3 381.3 336.5 376.1 335.25 359.1" fill="none" stroke="#000000" stroke-linecap="round" stroke-linejoin="round" stroke-width="1.0"/>
  </g>
</svg>
