<?xml version="1.0" encoding="UTF-8" standalone="no"?>
<svg xmlns:xlink="http://www.w3.org/1999/xlink" height="35.0px" width="129.0px" xmlns="http://www.w3.org/2000/svg">
  <g transform="matrix(1.0, 0.0, 0.0, 1.0, -335.45, -358.1)">
    <path d="M358.0 362.4 L362.85 367.95 364.3 374.8 Q360.75 375.6 359.15 370.45 L355.9 369.3 355.9 376.95 356.85 380.5 358.9 383.5 361.45 385.4 Q363.35 389.1 360.65 390.75 L356.7 387.9 Q358.1 391.65 355.0 393.05 L351.5 389.35 Q351.5 390.5 350.45 391.25 L346.15 387.5 Q346.15 388.8 345.0 389.1 L341.25 385.8 338.8 381.4 336.75 376.1 335.45 359.05 Q340.15 360.4 346.0 358.1 L358.0 362.4 M437.0 368.0 L441.85 362.45 453.9 358.1 Q459.75 360.4 464.45 359.05 L463.1 376.15 461.05 381.45 458.6 385.85 454.85 389.15 Q453.7 388.85 453.7 387.55 L449.4 391.3 Q448.35 390.55 448.35 389.4 L444.85 393.1 Q441.75 391.7 443.15 387.95 L439.2 390.8 Q436.5 389.15 438.4 385.45 L440.95 383.55 443.0 380.55 443.95 377.0 443.95 369.35 440.7 370.5 Q439.1 375.65 435.55 374.85 L437.0 368.0" fill="#000000" fill-rule="evenodd" stroke="none"/>
  </g>
</svg>
