<?xml version="1.0" encoding="UTF-8" standalone="no"?>
<svg xmlns:xlink="http://www.w3.org/1999/xlink" height="30.55px" width="30.25px" xmlns="http://www.w3.org/2000/svg">
  <g transform="matrix(1.0, 0.0, 0.0, 1.0, -384.35, -209.3)">
    <path d="M414.6 239.85 L384.35 239.85 Q384.85 235.7 387.45 232.45 390.05 229.2 397.15 224.8 401.4 222.2 402.5 220.9 403.65 219.6 403.65 218.5 403.65 217.35 402.6 216.55 401.55 215.7 399.95 215.7 398.3 215.7 397.25 216.55 396.2 217.4 395.75 220.1 L385.05 219.4 Q385.65 215.45 387.25 213.45 388.85 211.45 391.75 210.4 394.65 209.3 399.7 209.3 404.95 209.3 407.95 210.35 410.9 211.35 412.6 213.5 414.35 215.6 414.35 218.25 414.35 221.0 412.4 223.5 410.45 226.0 405.4 229.05 L401.5 231.35 Q400.55 232.05 399.35 232.4 L414.6 232.4 414.6 239.85" fill="#000000" fill-rule="evenodd" stroke="none"/>
  </g>
</svg>
