<?xml version="1.0" encoding="UTF-8" standalone="no"?>
<svg xmlns:xlink="http://www.w3.org/1999/xlink" height="374.75px" width="163.35px" xmlns="http://www.w3.org/2000/svg">
  <g transform="matrix(1.0, 0.0, 0.0, 1.0, -237.0, -136.4)">
    <path d="M302.65 137.05 Q318.25 138.9 328.8 142.1 L333.4 140.95 338.45 140.0 M305.55 150.85 Q316.2 145.3 328.8 142.1 M399.85 230.6 L399.85 244.35 399.85 258.45 399.85 266.05 M305.55 150.85 Q319.8 147.45 329.6 147.8 L333.5 144.35 338.45 140.0 M339.8 148.35 L330.9 157.25 Q334.5 158.3 334.6 161.35 337.15 154.8 339.8 148.4 L339.8 148.35 339.8 148.3 M246.1 315.1 L249.8 316.2 253.85 316.55 Q270.3 224.35 326.0 162.55 L330.9 157.25 Q331.1 154.45 329.85 152.4 329.0 150.9 327.45 149.85 321.9 155.15 316.75 160.75 M326.0 162.55 Q322.25 173.15 319.1 183.95 L315.8 195.85 Q299.65 257.1 301.6 325.4 L301.75 330.25 Q302.75 358.8 307.05 388.65 L307.45 391.5 Q309.6 406.5 312.6 421.85 310.65 406.7 309.25 391.9 L309.1 390.3 Q306.55 362.15 306.3 335.55 L306.25 329.05 Q306.3 236.45 334.35 162.1 L334.6 161.35 Q337.1 161.35 338.8 162.0 341.25 162.85 342.15 164.8 L342.6 160.25 M342.15 164.8 Q341.8 167.75 341.6 170.65 L341.15 178.35 Q353.45 212.8 389.3 237.55 388.95 233.6 389.7 230.4 390.25 228.0 391.4 226.0 M363.3 321.45 L352.3 288.4 Q347.15 271.9 343.6 255.6 L342.45 249.85 Q337.15 223.8 335.3 198.1 L334.75 189.2 Q334.05 175.6 334.35 162.1 M329.6 147.8 L327.45 149.85 M399.85 244.35 L391.5 239.05 391.45 244.15 Q395.9 246.85 396.6 250.55 396.4 252.55 395.25 254.0 395.55 256.55 399.85 258.45 M391.5 239.05 L389.3 237.55 M395.25 254.0 Q394.4 255.1 393.0 255.9 L393.0 259.75 M341.15 178.35 Q338.45 240.55 363.3 321.45 M253.85 316.55 L252.25 326.1 250.85 335.8 Q246.0 372.9 247.1 414.55 L247.25 419.35 Q248.4 451.75 252.8 486.95 L256.5 510.65" fill="none" stroke="#000000" stroke-linecap="round" stroke-linejoin="round" stroke-opacity="0.5019608" stroke-width="1.0"/>
    <path d="M338.45 140.0 Q321.7 136.2 302.65 137.05 311.3 142.05 305.55 150.85 M338.45 140.0 Q342.6 137.55 347.65 138.7 342.7 142.5 339.8 148.3 341.15 145.75 344.2 145.8 341.25 151.85 342.6 160.25 354.75 204.25 391.4 226.0 395.5 228.45 399.85 230.6 M399.85 266.05 L393.0 259.75 Q368.25 250.35 363.3 321.45 354.45 318.1 346.9 322.45 344.7 323.7 342.6 325.65 322.6 343.9 312.6 421.85 299.55 393.5 288.8 395.75 286.9 396.15 285.1 397.45 283.15 398.9 281.2 401.5 L279.45 404.2 Q265.75 426.95 256.5 510.65 231.3 409.6 239.5 308.5 241.8 313.05 246.1 315.1 259.85 221.7 316.75 160.75 317.35 151.5 305.55 150.85" fill="none" stroke="#000000" stroke-linecap="round" stroke-linejoin="round" stroke-width="1.0"/>
  </g>
</svg>
