<?xml version="1.0" encoding="UTF-8" standalone="no"?>
<svg xmlns:xlink="http://www.w3.org/1999/xlink" height="188.4px" width="134.3px" xmlns="http://www.w3.org/2000/svg">
  <g transform="matrix(1.0, 0.0, 0.0, 1.0, 81.2, 79.2)">
    <path d="M26.1 -70.85 L29.15 -52.85 Q25.3 -46.4 23.35 -39.2 23.8 -33.45 27.05 -28.25 30.05 -21.35 28.95 -14.4 L21.25 -10.3 17.35 -0.85 Q19.8 3.9 19.75 8.7 L23.75 14.15 Q26.35 12.4 26.15 10.65 27.4 13.1 28.15 15.55 L31.6 15.85 Q32.9 15.5 34.15 14.55 L34.15 12.05 Q36.75 11.15 38.15 8.8 L34.4 30.7 Q31.95 50.25 27.95 69.85 L26.65 65.65 26.35 50.1 24.8 59.75 20.9 47.1 12.15 -17.65 12.15 -30.05 10.7 -28.5 9.45 -37.55 9.45 -54.15 13.95 -60.4 Q20.55 -62.35 26.1 -70.85 M51.05 -9.8 Q33.1 103.9 32.05 85.0 L43.25 8.4 Q48.15 -2.2 50.95 -9.85 L51.05 -9.8 M1.5 54.0 Q-3.8 45.15 -9.05 39.8 L-5.75 20.85 Q-1.7 33.4 1.5 46.8 L1.5 54.0 M-32.5 87.8 Q-39.4 89.45 -45.9 91.65 -21.2 -58.55 -55.2 95.2 -62.0 98.0 -68.55 101.45 L-43.55 -5.6 -39.65 7.55 -39.65 7.6 -33.3 13.05 Q-31.1 26.8 -26.4 41.65 L-23.4 52.95 -21.8 52.95 -21.7 55.2 -21.35 64.95 Q-21.1 74.8 -21.25 85.45 L-21.4 85.5 -27.7 59.05 -32.45 87.8 -32.4 87.8 -32.5 87.85 -32.5 87.8 -32.45 87.8 -32.5 87.8" fill="#000000" fill-opacity="0.4" fill-rule="evenodd" stroke="none"/>
    <path d="M-32.5 87.8 L-32.45 87.8 -32.4 87.8 M-21.4 85.5 L-21.25 85.45" fill="none" stroke="#000000" stroke-linecap="round" stroke-linejoin="round" stroke-width="1.0"/>
    <path d="M12.15 -30.05 L12.15 -17.65 10.7 -28.5 12.15 -30.05 M51.05 -9.85 L50.95 -9.85 Q48.15 -2.2 43.25 8.4 L32.05 85.0 Q33.1 103.9 51.05 -9.8 48.85 35.75 43.4 81.35 36.4 92.2 26.95 103.05 L26.1 90.3 28.2 70.7 27.95 69.85 Q31.95 50.25 34.4 30.7 L38.15 8.8 Q40.35 8.1 41.75 5.2 44.75 3.3 45.35 0.4 46.0 -6.1 43.75 -12.25 L47.25 -26.65 Q48.8 -14.55 51.4 -18.65 L51.05 -9.85 M26.35 50.1 L26.65 65.65 24.8 59.75 26.35 50.1 M-47.85 -22.65 Q-46.15 -14.8 -43.55 -5.6 L-68.55 101.45 Q-74.45 104.55 -80.2 108.2 L-60.45 36.6 Q-52.05 6.4 -47.85 -22.65 M-47.5 92.25 L-55.2 95.2 Q-21.2 -58.55 -45.9 91.65 L-47.5 92.25 M-32.4 87.8 L-32.45 87.8 -32.4 87.8 -32.5 87.85 -32.5 87.8 -32.45 87.8 -27.7 59.05 -21.4 85.5 -25.3 86.2 -32.4 87.8" fill="#000000" fill-opacity="0.2" fill-rule="evenodd" stroke="none"/>
    <path d="M-32.45 87.8 L-32.4 87.8 M-32.45 87.8 L-32.5 87.8" fill="none" stroke="#000000" stroke-linecap="round" stroke-linejoin="round" stroke-width="1.0"/>
    <path d="M-32.5 87.8 L-32.45 87.8 -32.5 87.85 -32.5 87.8" fill="#660000" fill-rule="evenodd" stroke="none"/>
    <path d="M10.7 -28.5 L12.15 -30.05 12.15 -17.65 10.7 -28.5 M-32.45 87.8 L-32.4 87.8 -32.5 87.85 -32.45 87.8" fill="#990000" fill-rule="evenodd" stroke="none"/>
    <path d="M34.4 30.7 Q31.95 50.25 27.95 69.85 M-21.4 85.5 L-21.25 85.45" fill="none" stroke="#000000" stroke-linecap="round" stroke-linejoin="round" stroke-width="1.0"/>
    <path d="M38.15 8.8 L34.4 30.7 M51.05 -9.8 L51.05 -9.85 M-32.5 87.8 L-32.45 87.8 -32.4 87.8" fill="none" stroke="#000000" stroke-linecap="round" stroke-linejoin="round" stroke-width="1.0"/>
    <path d="M51.05 -9.85 L51.85 -30.9 Q52.35 -46.95 51.75 -68.4 L51.5 -78.2 50.15 -75.75 48.05 -52.45 50.9 -43.35 Q51.25 -42.0 50.6 -40.25 L43.75 -12.25 Q46.0 -6.1 45.35 0.4 44.75 3.3 41.75 5.2 40.35 8.1 38.15 8.8 36.75 11.15 34.15 12.05 L34.15 14.55 Q32.9 15.5 31.6 15.85 L28.15 15.55 Q27.4 13.1 26.15 10.65 26.35 12.4 23.75 14.15 L19.75 8.7 Q19.8 3.9 17.35 -0.85 L21.25 -10.3 28.95 -14.4 Q30.05 -21.35 27.05 -28.25 23.8 -33.45 23.35 -39.2 25.3 -46.4 29.15 -52.85 L26.1 -70.85 Q20.55 -62.35 13.95 -60.4 L9.45 -54.15 9.45 -37.55 10.7 -28.5 12.15 -17.65 20.9 47.1 27.95 69.85 28.2 70.7 26.1 90.3 26.95 103.05 Q36.4 92.2 43.4 81.35 48.85 35.75 51.05 -9.8 M1.5 54.0 Q-3.8 45.15 -9.05 39.8 L-5.75 20.85 Q-1.7 33.4 1.5 46.8 L1.5 54.0 M-21.25 85.45 Q-21.1 74.8 -21.35 64.95 L-21.7 55.2 -21.8 52.95 -23.4 52.95 -26.4 41.65 Q-31.1 26.8 -33.3 13.05 L-39.65 7.6 -39.65 7.55 -43.55 -5.6 Q-46.15 -14.8 -47.85 -22.65 -52.05 6.4 -60.45 36.6 L-80.2 108.2 Q-74.45 104.55 -68.55 101.45 -62.0 98.0 -55.2 95.2 L-47.5 92.25 -45.9 91.65 Q-39.4 89.45 -32.5 87.8 M-32.4 87.8 L-25.3 86.2 -21.4 85.5" fill="none" stroke="#000000" stroke-linecap="round" stroke-linejoin="round" stroke-width="2.0"/>
  </g>
</svg>
