<?xml version="1.0" encoding="UTF-8" standalone="no"?>
<svg xmlns:xlink="http://www.w3.org/1999/xlink" height="316.4px" width="102.65px" xmlns="http://www.w3.org/2000/svg">
  <g transform="matrix(1.0, 0.0, 0.0, 1.0, 53.7, 157.55)">
    <path d="M11.9 -89.7 Q12.95 -87.15 12.75 -84.7 5.2 -81.35 -0.55 -82.6 -2.25 -83.25 -4.6 -83.3 L-7.15 -83.2 -8.7 -83.0 Q-9.7 -85.1 -10.0 -87.15 L-10.0 -87.2 -9.85 -87.2 -6.6 -87.0 -5.1 -87.0 2.35 -87.8 11.8 -89.95 11.9 -89.7 M11.45 -97.75 Q12.55 -96.0 12.7 -94.0 L2.5 -91.7 2.5 -91.75 2.1 -91.6 Q-2.35 -90.75 -5.65 -90.6 L-5.9 -90.6 -6.55 -90.6 -9.95 -90.8 -9.35 -93.3 -9.55 -93.65 -6.15 -93.4 -6.1 -93.4 -5.1 -93.75 Q2.0 -96.4 11.4 -97.8 L11.45 -97.75 M11.7 -75.0 Q7.05 -72.85 2.25 -73.1 L-3.6 -73.85 -3.75 -73.85 -7.55 -74.55 -9.1 -74.95 Q-9.55 -77.25 -9.3 -79.65 L-7.5 -79.55 -4.1 -79.2 -0.35 -78.45 Q4.05 -77.35 11.25 -80.4 L11.3 -80.3 Q11.95 -77.7 11.7 -75.0 M6.7 -56.45 L6.85 -56.45 Q7.9 -52.0 6.85 -47.9 7.05 -44.55 5.3 -41.2 L3.65 -40.45 2.1 -47.05 Q0.65 -51.95 -1.25 -54.4 -4.1 -58.15 -7.9 -56.35 L-9.85 -57.3 Q-10.6 -60.6 -9.85 -63.75 L-3.4 -58.65 -2.9 -58.25 Q0.75 -55.4 5.5 -56.2 L6.7 -56.45 M9.35 -67.85 Q10.0 -65.55 9.6 -63.15 3.95 -61.3 -1.25 -63.2 L-1.55 -63.35 -3.05 -64.0 -6.4 -65.75 -10.05 -68.25 Q-10.15 -70.15 -9.65 -71.85 L-9.4 -71.8 -7.3 -71.3 -3.35 -70.0 -0.75 -68.85 Q3.7 -67.1 10.2 -69.6 L9.35 -67.85 M26.15 146.9 L25.95 146.7 26.1 146.55 26.15 146.9 M-20.6 -154.1 Q-25.1 -148.0 -24.85 -141.45 L-26.1 -137.6 -23.7 -135.75 Q-22.35 -134.1 -23.55 -132.3 -24.55 -131.45 -25.6 -131.4 L-23.95 -127.55 Q-23.15 -129.9 -21.65 -131.95 L-22.55 -127.5 -20.75 -127.5 -20.25 -132.05 Q-18.8 -129.5 -18.15 -126.95 -18.3 -124.9 -20.55 -125.85 L-22.15 -125.9 -23.35 -125.85 Q-22.6 -123.65 -22.15 -121.5 -21.15 -116.6 -21.45 -111.6 L-24.15 -111.8 Q-24.2 -117.25 -24.95 -121.5 -26.05 -127.45 -28.45 -131.05 L-27.3 -134.55 -29.3 -137.0 -27.85 -141.75 Q-28.0 -148.5 -23.75 -152.15 L-20.6 -154.1 M-13.15 -126.0 Q-7.65 -125.45 -5.65 -128.05 -5.2 -124.45 -12.0 -122.2 L-13.35 -123.55 -14.55 -123.55 Q-14.25 -125.0 -13.15 -126.0 M-11.15 -139.45 Q-8.15 -140.2 -7.7 -136.15 -7.65 -133.55 -12.3 -131.85 -16.4 -130.25 -17.9 -132.85 -18.7 -135.0 -16.45 -136.85 -14.2 -138.7 -11.15 -139.45 M-37.0 -82.7 Q-34.25 -84.15 -31.45 -82.65 L-30.15 -82.45 -30.4 -78.85 -32.25 -78.45 Q-38.3 -76.7 -37.7 -80.75 L-37.0 -82.7 M-28.95 -87.1 L-29.65 -87.2 Q-34.65 -86.6 -33.85 -89.9 -32.75 -92.3 -26.6 -90.95 -28.05 -89.35 -28.95 -87.1 M-10.3 -101.7 Q-10.45 -100.5 -10.2 -99.35 L-7.1 -97.95 -6.9 -97.05 -10.5 -95.95 Q-10.8 -97.15 -10.6 -98.15 -14.1 -98.7 -18.6 -97.15 L-20.4 -97.55 Q-22.65 -96.4 -23.2 -94.4 L-28.65 -94.75 -29.7 -95.1 Q-32.4 -96.25 -30.5 -97.35 L-29.65 -97.8 Q-20.65 -100.65 -10.3 -101.7 M-28.0 -62.65 L-29.15 -61.1 -30.35 -59.25 Q-31.65 -57.35 -33.35 -56.95 -34.45 -57.65 -35.35 -58.5 -35.4 -61.55 -32.15 -63.75 -30.25 -65.1 -28.95 -66.65 L-28.0 -62.65 M-35.75 -73.4 L-33.35 -74.25 Q-31.5 -74.8 -30.25 -75.3 L-29.85 -71.6 Q-32.2 -71.4 -34.9 -70.2 L-35.9 -69.75 Q-38.35 -72.05 -35.75 -73.4 M-3.6 -73.9 L-3.6 -73.85 -3.6 -73.9 M-34.0 -46.05 L-31.1 -46.25 Q-25.8 -44.4 -28.2 -34.85 L-29.55 -29.45 Q-30.85 -27.95 -30.55 -24.95 L-32.95 -13.9 Q-33.8 -15.1 -35.1 -16.0 -35.7 -16.15 -36.15 -16.5 L-34.85 -31.3 Q-34.4 -34.1 -36.1 -36.3 -32.95 -43.2 -34.0 -46.05" fill="#000000" fill-opacity="0.4" fill-rule="evenodd" stroke="none"/>
    <path d="M9.9 -104.45 L26.4 -103.2 11.4 -101.25 Q11.0 -102.95 9.9 -104.45 M0.8 -105.25 Q2.0 -102.85 1.95 -100.4 -2.2 -98.8 -7.1 -97.95 L-10.2 -99.35 Q-10.45 -100.5 -10.3 -101.7 L-9.65 -104.55 Q-10.35 -107.4 -9.4 -109.9 L-9.4 -114.95 -13.2 -110.9 -21.45 -111.6 Q-21.15 -116.6 -22.15 -121.5 -22.6 -123.65 -23.35 -125.85 L-22.15 -125.9 -20.55 -125.85 Q-18.3 -124.9 -18.15 -126.95 -18.8 -129.5 -20.25 -132.05 L-20.75 -127.5 -22.55 -127.5 -21.65 -131.95 Q-23.15 -129.9 -23.95 -127.55 L-25.6 -131.4 Q-24.55 -131.45 -23.55 -132.3 -22.35 -134.1 -23.7 -135.75 L-26.1 -137.6 -24.85 -141.45 Q-25.1 -148.0 -20.6 -154.1 -16.75 -156.05 -12.15 -156.4 -9.95 -156.7 -7.75 -156.4 -0.2 -150.6 -2.3 -142.85 L-4.55 -131.15 Q-2.4 -131.9 -1.0 -132.55 L-1.0 -126.05 -3.05 -122.95 Q-1.25 -120.25 -1.5 -117.55 -0.25 -114.15 -0.3 -110.75 1.15 -108.0 0.8 -105.3 L0.8 -105.25 M20.55 -92.7 Q20.55 -94.35 21.05 -95.95 L21.75 -97.85 Q23.5 -92.8 30.5 -91.2 38.05 -89.85 38.9 -80.95 39.75 -71.95 39.2 -62.95 38.1 -56.55 34.75 -56.3 31.25 -55.45 30.05 -49.85 31.55 -48.5 35.15 -48.9 L39.5 -48.8 Q34.3 -48.05 33.9 -44.65 33.75 -43.25 34.45 -41.85 32.3 -42.85 32.85 -39.5 34.25 -31.4 34.15 -20.7 31.85 -19.15 30.2 -16.45 30.25 -28.45 27.2 -39.25 24.8 -46.75 30.05 -49.9 29.15 -50.75 29.05 -52.25 29.05 -56.4 31.95 -57.9 35.5 -60.7 35.6 -63.55 34.85 -78.55 28.5 -81.3 26.9 -81.75 25.35 -82.8 23.9 -83.85 22.5 -85.4 L22.05 -86.3 Q21.35 -87.85 21.0 -89.35 20.55 -91.05 20.55 -92.7 M5.3 -41.2 Q5.15 -39.0 4.3 -36.8 L2.8 -33.8 Q2.4 -31.0 0.65 -28.2 L-0.35 -26.8 1.05 -27.9 Q1.9 -28.6 2.7 -29.05 3.75 -27.65 3.8 -25.5 L3.7 -25.45 Q1.85 -24.75 0.1 -23.0 -1.7 -21.25 -2.35 -19.4 -3.05 -17.55 -2.2 -16.7 -1.35 -15.85 0.5 -16.55 L1.6 -17.05 Q-0.8 -11.7 -5.75 -4.45 -5.85 -5.75 -6.35 -7.1 -7.7 -10.05 -12.6 -10.6 -15.4 -10.95 -16.85 -9.95 -11.2 -18.45 -15.85 -25.35 -15.55 -30.2 -13.15 -35.0 -13.6 -39.1 -11.45 -42.4 -11.75 -45.9 -10.2 -49.4 -10.6 -52.3 -10.3 -54.8 L-9.85 -57.3 -7.9 -56.35 Q-4.1 -58.15 -1.25 -54.4 0.65 -51.95 2.1 -47.05 L3.65 -40.45 5.3 -41.2 M17.25 -0.25 L21.15 -9.7 25.0 -11.75 22.95 -2.05 23.9 7.55 28.75 8.7 30.8 9.0 Q32.75 9.05 34.05 7.85 L35.05 6.6 Q37.3 7.45 39.55 4.5 41.3 4.35 43.05 2.25 L45.25 1.0 Q44.65 3.9 41.65 5.8 40.25 8.7 38.05 9.4 36.65 11.75 34.05 12.65 L34.05 15.15 Q32.8 16.1 31.5 16.45 L28.05 16.15 Q27.3 13.7 26.05 11.25 26.25 13.0 23.65 14.75 L19.65 9.3 Q19.7 4.55 17.3 -0.25 L17.25 -0.25 M5.8 16.85 L6.0 39.7 Q5.35 42.6 10.25 44.25 8.45 43.95 7.35 45.25 L6.35 47.15 Q7.0 55.8 16.05 53.05 13.95 55.75 10.85 55.45 6.0 57.35 7.7 63.55 14.2 74.4 17.1 85.25 21.15 104.7 21.3 124.1 L25.3 140.0 26.15 146.9 25.9 147.2 Q25.05 148.45 25.9 150.8 L26.1 151.25 Q26.75 152.8 25.95 154.25 L25.35 154.75 24.6 154.3 18.9 142.5 13.25 140.1 Q13.1 136.85 13.35 133.9 L13.75 130.8 11.7 127.15 15.0 118.85 15.6 109.15 Q15.85 101.3 15.2 95.1 13.8 86.85 11.95 81.85 10.05 73.3 4.85 68.05 0.6 65.65 1.4 60.35 1.5 54.55 3.7 53.3 2.1 51.05 3.65 48.0 -0.05 46.8 2.15 38.6 L2.2 23.75 Q1.3 8.8 -4.8 7.95 -10.05 6.75 -10.8 2.45 -11.0 -1.55 -5.95 -2.05 -4.75 1.55 0.75 3.6 5.45 4.05 5.8 16.85 M16.95 126.5 L17.55 127.05 17.55 127.0 16.95 126.5 M-11.15 -139.45 Q-14.2 -138.7 -16.45 -136.85 -18.7 -135.0 -17.9 -132.85 -16.4 -130.25 -12.3 -131.85 -7.65 -133.55 -7.7 -136.15 -8.15 -140.2 -11.15 -139.45 M17.7 137.75 L17.65 137.8 17.7 137.85 17.7 137.75 M-13.15 -126.0 Q-14.25 -125.0 -14.55 -123.55 L-13.35 -123.55 -12.0 -122.2 Q-5.2 -124.45 -5.65 -128.05 -7.65 -125.45 -13.15 -126.0 M-46.25 133.85 L-46.25 133.8 Q-46.05 131.35 -44.3 131.95 L-36.9 130.0 -36.9 129.95 -32.85 127.55 -33.2 127.2 Q-28.95 123.5 -25.55 118.3 -23.1 115.6 -22.25 112.55 L-22.15 112.55 -22.0 109.15 Q-20.7 79.75 -21.8 55.8 L-21.9 53.55 -23.5 53.55 -26.15 43.5 -26.4 42.25 Q-26.7 39.4 -25.85 35.7 L-25.7 24.4 Q-25.1 17.15 -26.8 12.5 -29.7 15.25 -33.4 13.65 L-39.75 8.2 -39.75 8.15 -43.7 -5.3 -42.4 -7.1 Q-45.8 -28.75 -42.5 -47.1 -43.2 -48.1 -43.4 -49.15 -43.9 -54.85 -39.55 -58.0 -36.05 -63.3 -34.9 -70.2 -32.2 -71.4 -29.85 -71.6 L-30.25 -75.3 Q-31.5 -74.8 -33.35 -74.25 L-35.75 -73.4 Q-39.5 -75.1 -39.3 -76.75 -40.1 -81.05 -39.2 -84.8 -37.8 -90.5 -34.45 -93.3 -32.45 -94.95 -29.7 -95.1 L-28.65 -94.75 -23.2 -94.4 Q-22.65 -96.4 -20.4 -97.55 L-18.6 -97.15 -15.25 -96.15 Q-13.8 -94.15 -20.8 -93.7 L-21.8 -94.05 Q-21.3 -92.5 -23.0 -91.0 L-19.2 -91.75 Q-15.15 -93.3 -11.75 -91.25 L-9.95 -90.8 -6.55 -90.6 -5.9 -90.6 -6.6 -87.0 -9.85 -87.2 -10.0 -87.15 -10.0 -87.2 Q-12.95 -87.1 -12.85 -84.15 -12.5 -82.25 -8.8 -83.0 L-8.7 -83.0 -7.15 -83.2 -7.5 -79.55 -9.3 -79.65 -11.3 -79.6 Q-14.5 -78.9 -12.45 -76.4 -11.5 -75.65 -9.1 -74.95 L-7.55 -74.55 -7.3 -71.3 -9.4 -71.8 -9.65 -71.85 Q-13.9 -72.45 -11.25 -69.45 L-10.05 -68.25 -6.4 -65.75 Q-5.65 -62.55 -4.45 -59.5 L-12.25 -65.65 Q-16.35 -68.85 -20.45 -68.4 L-20.75 -68.35 -21.3 -68.2 Q-24.25 -67.45 -26.5 -64.5 L-28.0 -62.65 -28.95 -66.65 Q-30.25 -65.1 -32.15 -63.75 -35.4 -61.55 -35.35 -58.5 -34.45 -57.65 -33.35 -56.95 -31.65 -57.35 -30.35 -59.25 L-29.15 -61.1 -28.0 -62.65 Q-28.45 -60.65 -28.0 -58.8 -26.2 -55.05 -27.0 -51.3 -28.05 -47.15 -31.1 -46.25 L-34.0 -46.05 Q-32.95 -43.2 -36.1 -36.3 L-36.75 -34.9 Q-38.65 -30.55 -38.8 -25.0 -38.45 -18.2 -36.15 -16.5 -35.7 -16.15 -35.1 -16.0 -33.8 -15.1 -32.95 -13.9 -32.15 -12.85 -31.8 -11.55 -30.2 -11.55 -28.8 -10.7 -27.05 -9.55 -25.6 -7.0 -24.7 -4.4 -22.55 -2.45 L-22.55 -2.4 Q-28.65 -3.7 -23.2 9.85 -18.2 22.2 -21.75 36.55 -24.25 39.7 -22.6 45.15 -21.55 50.9 -14.8 52.25 -16.05 52.9 -17.35 53.25 L-20.1 123.1 -20.15 123.15 -35.15 134.3 -43.15 135.3 -43.2 135.3 -48.95 136.05 Q-49.45 134.6 -48.4 133.65 L-47.0 133.8 -46.75 133.8 -46.5 133.85 -46.25 133.85 -46.1 133.85 -45.6 133.85 -46.1 133.85 -46.25 133.85 M-5.1 -93.75 L-6.1 -93.4 -6.15 -93.4 -9.55 -93.65 Q-11.95 -94.2 -10.85 -95.85 L-10.5 -95.95 -6.9 -97.05 -3.9 -97.85 -5.1 -93.75 M-26.6 -90.95 Q-32.75 -92.3 -33.85 -89.9 -34.65 -86.6 -29.65 -87.2 L-28.95 -87.1 Q-28.05 -89.35 -26.6 -90.95 M-37.0 -82.7 L-37.7 -80.75 Q-38.3 -76.7 -32.25 -78.45 L-30.4 -78.85 -30.15 -82.45 -31.45 -82.65 Q-34.25 -84.15 -37.0 -82.7 M-8.15 67.4 Q-5.0 62.05 -3.9 56.75 -5.65 85.15 -8.85 109.15 L-9.85 115.95 -9.95 116.9 -10.05 117.45 -10.1 117.65 -10.15 118.15 -10.25 118.6 -13.25 114.7 -12.15 109.9 -12.15 109.8 -12.05 109.5 -12.0 109.15 Q-10.3 100.85 -9.15 91.5 -7.7 79.05 -8.15 67.4 M-3.6 -73.9 L-3.6 -73.85 -3.75 -73.85 -3.6 -73.9" fill="#000000" fill-opacity="0.2" fill-rule="evenodd" stroke="none"/>
    <path d="M-35.9 -69.75 Q-38.35 -72.05 -35.75 -73.4 -39.5 -75.1 -39.3 -76.75 -40.1 -81.05 -39.2 -84.8 -37.8 -90.5 -34.45 -93.3 -32.45 -94.95 -29.7 -95.1 -32.4 -96.25 -30.5 -97.35 L-29.65 -97.8 Q-20.65 -100.65 -10.3 -101.7 L-9.65 -104.55 Q-10.35 -107.4 -9.4 -109.9 L-9.4 -114.95 -13.2 -110.9 -24.15 -111.8 Q-24.2 -117.25 -24.95 -121.5 -26.05 -127.45 -28.45 -131.05 L-28.05 -132.3 -27.3 -134.55 -29.3 -137.0 -29.0 -138.05 -27.85 -141.75 Q-28.0 -148.5 -23.75 -152.15 L-20.6 -154.1 Q-16.75 -156.05 -12.15 -156.4 -9.95 -156.7 -7.75 -156.4 L-3.85 -155.35 Q3.9 -151.7 2.8 -142.95 L1.7 -134.55 Q1.35 -133.7 -1.0 -132.55 L-1.0 -129.3 Q1.65 -124.7 1.7 -120.25 4.1 -117.1 4.5 -113.95 6.15 -111.25 6.55 -108.7 9.35 -107.35 9.9 -104.45 L26.4 -103.2 Q29.95 -102.05 28.95 -100.85 39.2 -99.4 44.1 -95.6 49.9 -90.35 44.35 -84.2 42.2 -82.35 42.4 -79.55 L45.2 -57.5 Q47.45 -55.15 47.95 -51.85 47.65 -49.4 46.35 -48.35 47.8 -46.4 45.95 -38.4 43.45 -29.1 42.75 -19.45 43.25 -15.2 42.85 -12.75 44.6 -8.6 45.15 -4.7 45.5 -1.8 45.25 1.0 44.65 3.9 41.65 5.8 40.25 8.7 38.05 9.4 36.65 11.75 34.05 12.65 L34.05 15.15 Q32.8 16.1 31.5 16.45 L28.05 16.15 Q27.3 13.7 26.05 11.25 26.25 13.0 23.65 14.75 L19.65 9.3 Q19.7 4.55 17.3 -0.25 L17.25 -0.25 21.15 -9.7 25.0 -11.75 28.85 -13.8 Q29.45 -15.25 30.2 -16.45 30.25 -28.45 27.2 -39.25 24.8 -46.75 30.05 -49.9 29.15 -50.75 29.05 -52.25 29.05 -56.4 31.95 -57.9 35.5 -60.7 35.6 -63.55 34.85 -78.55 28.5 -81.3 26.9 -81.75 25.35 -82.8 26.15 -80.95 24.65 -78.55 21.45 -75.7 16.85 -72.95 13.3 -70.8 10.2 -69.6 M9.35 -67.85 Q10.0 -65.55 9.6 -63.15 16.15 -65.25 23.4 -72.4 26.9 -74.55 26.0 -70.25 20.45 -61.75 13.85 -59.8 10.1 -57.35 6.85 -56.5 L6.85 -56.45 Q7.9 -52.0 6.85 -47.9 7.05 -44.55 5.3 -41.2 5.15 -39.0 4.3 -36.8 L2.8 -33.8 Q2.4 -31.0 0.65 -28.2 L-0.35 -26.8 1.05 -27.9 Q1.9 -28.6 2.7 -29.05 6.45 -31.2 9.15 -27.9 10.85 -23.7 5.65 -17.5 3.95 -15.95 4.4 -14.4 6.75 -15.9 9.35 -14.9 13.4 -12.75 12.05 -3.45 10.05 6.05 10.2 14.6 10.1 26.2 15.55 35.85 19.8 40.05 18.25 44.05 L17.7 45.25 Q19.85 47.15 18.8 50.15 21.3 49.85 23.2 55.5 24.55 59.75 22.95 64.0 20.05 70.8 20.65 80.6 21.65 96.35 24.9 109.15 M32.85 -39.5 Q34.25 -31.4 34.15 -20.7 40.65 -33.55 36.5 -39.4 35.1 -40.6 34.45 -41.85 32.3 -42.85 32.85 -39.5 M-28.0 -62.65 L-26.5 -64.5 Q-24.25 -67.45 -21.3 -68.2 L-20.75 -68.35 -20.45 -68.4 Q-16.35 -68.85 -12.25 -65.65 L-9.85 -63.75 Q-10.6 -60.6 -9.85 -57.3 L-10.3 -54.8 Q-10.6 -52.3 -10.2 -49.4 -11.75 -45.9 -11.45 -42.4 -13.6 -39.1 -13.15 -35.0 -15.55 -30.2 -15.85 -25.35 -18.6 -27.1 -20.3 -29.1 -24.65 -32.1 -28.25 -30.45 -29.05 -30.1 -29.55 -29.45 L-28.2 -34.85 Q-25.8 -44.4 -31.1 -46.25 -28.05 -47.15 -27.0 -51.3 -26.2 -55.05 -28.0 -58.8 -28.45 -60.65 -28.0 -62.65 M-26.1 43.65 L-26.15 43.5 -26.4 42.25 Q-26.7 39.4 -25.85 35.7 L-25.7 24.4 Q-25.1 17.15 -26.8 12.5 -29.7 15.25 -33.4 13.65 L-39.75 8.2 -39.75 8.15 -43.7 -5.3 -42.4 -7.1 Q-44.4 -8.4 -45.3 -11.1 L-45.65 -12.55 Q-49.0 -25.45 -50.5 -35.25 L-50.85 -37.8 Q-50.9 -41.95 -47.1 -44.25 L-42.5 -47.1 Q-43.2 -48.1 -43.4 -49.15 -43.9 -54.85 -39.55 -58.0 -36.05 -63.3 -34.9 -70.2 M-36.1 -36.3 Q-34.4 -34.1 -34.85 -31.3 L-36.15 -16.5 Q-38.45 -18.2 -38.8 -25.0 -38.65 -30.55 -36.75 -34.9 L-36.1 -36.3 M-32.95 -13.9 L-30.55 -24.95 Q-30.85 -27.95 -29.55 -29.45 M-35.25 -6.3 L-35.25 -8.6 Q-35.05 -11.4 -33.05 -11.4 L-31.8 -11.55 Q-32.15 -12.85 -32.95 -13.9 M-22.5 -2.4 L-17.85 -8.85 -16.85 -9.95 Q-15.4 -10.95 -12.6 -10.6 -7.7 -10.05 -6.35 -7.1 -5.85 -5.75 -5.75 -4.45 -5.65 -3.25 -5.95 -2.05 -11.0 -1.55 -10.8 2.45 -10.05 6.75 -4.8 7.95 1.3 8.8 2.2 23.75 L2.15 38.6 Q-0.05 46.8 3.65 48.0 2.1 51.05 3.7 53.3 1.5 54.55 1.4 60.35 0.6 65.65 4.85 68.05 10.05 73.3 11.95 81.85 M-31.8 -11.55 Q-30.2 -11.55 -28.8 -10.7 -25.45 -11.9 -28.8 -18.3 -30.3 -22.25 -30.55 -24.95 M-35.25 -6.3 Q-34.9 -2.8 -33.05 3.1 -31.9 5.7 -29.9 7.75 L-28.9 8.7 Q-27.6 10.3 -26.8 12.5 M-22.5 -2.4 Q-20.65 -0.8 -17.85 0.35 -10.95 4.3 -14.0 10.45 -17.25 18.8 -17.1 27.1 -17.0 34.05 -9.15 40.4 -8.05 42.85 -9.4 45.3 -10.8 46.8 -12.3 47.25 -10.95 48.25 -11.3 50.3 -8.95 49.4 -6.0 49.95 -2.6 50.7 -3.9 56.75 -5.65 85.15 -8.85 109.15 M-25.0 47.9 L-26.1 43.65 M-25.0 47.9 L-23.5 53.55 -21.9 53.55 -21.8 55.8 Q-20.85 76.8 -21.7 101.95 L-22.0 108.55 -21.6 103.15 -21.7 101.95 M-8.15 67.4 Q-7.7 79.05 -9.15 91.5 -10.3 100.85 -12.0 109.15 M-22.05 109.15 L-22.0 108.55 M-8.15 67.4 Q-13.4 78.4 -14.3 109.15" fill="none" stroke="#000000" stroke-linecap="round" stroke-linejoin="round" stroke-width="2.0"/>
    <path d="M10.2 -69.6 L9.35 -67.85 Q4.05 -64.4 -1.25 -63.2 L-1.55 -63.35 -3.05 -64.0 -6.4 -65.75 -10.05 -68.25 -11.25 -69.45 Q-13.9 -72.45 -9.65 -71.85 L-9.4 -71.8 -7.3 -71.3 -3.35 -70.0 -0.75 -68.85 Q3.7 -67.1 10.2 -69.6 M6.55 -108.7 Q4.05 -106.75 0.8 -105.25 -2.6 -103.75 -6.8 -102.75 L-9.65 -104.55 M1.95 -100.4 Q-2.2 -98.8 -7.1 -97.95 L-6.9 -97.05 -3.9 -97.85 1.1 -99.2 11.4 -101.25 Q11.0 -102.95 9.9 -104.45 6.3 -102.05 1.95 -100.4 M-6.9 -97.05 L-10.5 -95.95 -10.85 -95.85 Q-11.95 -94.2 -9.55 -93.65 L-6.15 -93.4 -6.1 -93.4 -5.1 -93.75 Q2.0 -96.4 11.4 -97.8 L11.45 -97.8 11.65 -97.85 22.35 -99.0 25.0 -99.2 Q28.85 -100.0 28.95 -100.85 M26.4 -103.2 L11.4 -101.25 M11.65 -97.85 L11.45 -97.75 Q12.55 -96.0 12.7 -94.0 L21.05 -95.95 21.75 -97.85 22.35 -99.0 M21.0 -89.35 Q20.55 -91.05 20.55 -92.7 M25.35 -82.8 Q23.9 -83.85 22.5 -85.4 L22.05 -86.3 M12.0 -90.0 L11.9 -89.7 Q12.95 -87.15 12.75 -84.7 M-9.55 -93.65 L-9.35 -93.3 -6.55 -90.6 -5.9 -90.6 -5.65 -90.6 Q-2.35 -90.75 2.1 -91.6 L2.5 -91.75 Q7.95 -93.95 11.45 -97.75 L11.45 -97.8 M12.7 -94.0 L2.5 -91.7 2.1 -91.6 M11.4 -80.45 L11.3 -80.3 Q11.95 -77.7 11.7 -75.0 M-9.85 -63.75 L-3.4 -58.65 -2.9 -58.25 Q0.75 -55.4 5.5 -56.2 L6.7 -56.45 6.85 -56.5 M34.45 -41.85 Q33.75 -43.25 33.9 -44.65 34.3 -48.05 39.5 -48.8 L35.15 -48.9 Q31.55 -48.5 30.05 -49.85 L30.05 -49.9 M-11.45 -42.4 Q-8.35 -39.65 -4.8 -39.2 -0.25 -39.0 3.65 -40.45 L5.3 -41.2 M3.8 -25.5 Q5.55 -26.1 6.4 -25.25 7.25 -24.45 6.55 -22.6 5.85 -20.75 4.1 -18.95 2.85 -17.75 1.6 -17.05 L0.5 -16.55 Q-1.35 -15.85 -2.2 -16.7 -3.05 -17.55 -2.35 -19.4 -1.7 -21.25 0.1 -23.0 1.85 -24.75 3.7 -25.45 L3.8 -25.5 M-5.95 -2.05 Q-2.4 -2.2 -1.15 -6.55 0.4 -10.15 2.1 -12.25 3.2 -13.65 4.4 -14.4 M23.15 -0.25 L23.7 5.5 23.9 7.55 28.75 8.7 30.8 9.0 Q32.75 9.05 34.05 7.85 L35.05 6.6 33.85 -0.45 Q28.7 -0.05 22.95 -2.05 L23.15 -0.25 17.3 -0.25 M21.15 -9.7 L22.95 -2.05 25.0 -11.75 M35.05 6.6 Q37.3 7.45 39.55 4.5 L39.55 -1.7 Q36.8 -0.65 33.85 -0.45 M42.85 -12.75 Q42.15 -8.85 39.2 -9.6 L33.25 -9.75 Q28.3 -10.35 28.85 -13.8 M34.15 -20.7 Q31.85 -19.15 30.2 -16.45 M45.15 -4.7 Q44.1 -3.95 43.05 -3.35 L43.05 2.25 45.25 1.0 M39.5 -48.8 L40.65 -48.35 Q44.5 -47.0 46.35 -48.35 M43.05 -3.35 Q41.35 -2.35 39.55 -1.7 M-11.15 -139.45 Q-8.15 -140.2 -7.7 -136.15 -7.65 -133.55 -12.3 -131.85 -16.4 -130.25 -17.9 -132.85 -18.7 -135.0 -16.45 -136.85 -14.2 -138.7 -11.15 -139.45 M-20.25 -132.05 L-20.75 -127.5 -22.55 -127.5 -21.65 -131.95 Q-23.15 -129.9 -23.95 -127.55 L-24.25 -126.65 -23.35 -125.85 -22.15 -125.9 -20.55 -125.85 Q-18.3 -124.9 -18.15 -126.95 -18.8 -129.5 -20.25 -132.05 M-1.0 -129.3 L-1.0 -126.05 -3.05 -122.95 Q-5.75 -119.1 -9.2 -115.15 L-5.7 -114.0 1.7 -120.25 M-1.0 -132.55 Q-2.4 -131.9 -4.55 -131.15 -4.75 -129.3 -5.65 -128.05 -5.2 -124.45 -12.0 -122.2 L-13.35 -123.55 -14.55 -123.55 Q-14.75 -122.6 -14.55 -121.5 L-24.95 -121.5 M-5.65 -128.05 Q-7.65 -125.45 -13.15 -126.0 -14.25 -125.0 -14.55 -123.55 M-29.0 -138.05 Q-27.95 -138.65 -26.1 -137.6 L-23.7 -135.75 Q-22.35 -134.1 -23.55 -132.3 -24.55 -131.45 -25.6 -131.4 -26.8 -131.4 -28.05 -132.3 M-9.2 -115.15 L-9.4 -114.95 M-29.65 -97.8 L-20.4 -97.55 -18.6 -97.15 Q-14.1 -98.7 -10.6 -98.15 L-10.2 -99.35 Q-10.45 -100.5 -10.3 -101.7 M4.5 -113.95 Q2.4 -112.2 -0.3 -110.75 -2.35 -109.65 -4.75 -108.7 L-9.4 -109.9 M-10.0 -87.2 L-10.0 -87.15 Q-9.7 -85.1 -8.7 -83.0 M-6.55 -90.6 L-9.95 -90.8 -11.75 -91.25 Q-15.15 -93.3 -19.2 -91.75 L-23.0 -91.0 Q-24.8 -90.8 -26.6 -90.95 -32.75 -92.3 -33.85 -89.9 -34.65 -86.6 -29.65 -87.2 L-28.95 -87.1 Q-26.45 -86.75 -26.9 -85.2 -27.2 -82.25 -30.15 -82.45 L-31.45 -82.65 Q-34.25 -84.15 -37.0 -82.7 L-37.7 -80.75 Q-38.3 -76.7 -32.25 -78.45 L-30.4 -78.85 Q-28.8 -78.95 -28.15 -77.8 -27.45 -76.6 -30.25 -75.3 -31.5 -74.8 -33.35 -74.25 L-35.75 -73.4 M-9.95 -90.8 L-9.35 -93.3 M-18.6 -97.15 L-15.25 -96.15 Q-13.8 -94.15 -20.8 -93.7 L-21.8 -94.05 Q-21.3 -92.5 -23.0 -91.0 M-10.5 -95.95 Q-10.8 -97.15 -10.6 -98.15 M-9.1 -74.95 Q-9.55 -77.25 -9.3 -79.65 M-21.8 -94.05 L-23.2 -94.4 -28.65 -94.75 -29.7 -95.1 M-9.85 -57.3 L-2.9 -54.0 5.5 -56.2 M-35.9 -69.75 L-34.9 -70.2 Q-32.2 -71.4 -29.85 -71.6 L-29.2 -71.6 Q-26.15 -71.7 -27.55 -68.8 -28.1 -67.7 -28.95 -66.65 -30.25 -65.1 -32.15 -63.75 -35.4 -61.55 -35.35 -58.5 -34.45 -57.65 -33.35 -56.95 -31.65 -57.35 -30.35 -59.25 L-29.15 -61.1 -28.0 -62.65 M11.3 -80.3 Q4.9 -75.0 -3.6 -73.9 L-3.6 -73.85 M9.6 -63.15 Q3.95 -61.3 -1.25 -63.2 M-9.65 -71.85 Q-10.15 -70.15 -10.05 -68.25 M6.85 -47.9 L-3.4 -46.15 -10.2 -49.4 M-13.15 -35.0 Q-11.8 -33.2 -7.1 -31.4 -1.85 -31.4 2.8 -33.8 M-36.1 -36.3 Q-32.95 -43.2 -34.0 -46.05 L-34.65 -47.1 Q-37.8 -50.0 -42.5 -47.1 M-31.1 -46.25 L-34.0 -46.05 M-36.15 -16.5 Q-35.7 -16.15 -35.1 -16.0 -33.8 -15.1 -32.95 -13.9 M-23.8 -26.75 Q-22.2 -25.6 -20.9 -23.45 L-20.2 -22.0 Q-19.65 -20.6 -19.55 -19.3 -19.35 -17.35 -20.35 -16.75 L-20.75 -16.6 Q-21.7 -16.35 -23.05 -17.3 -24.6 -18.45 -25.85 -20.6 -27.1 -22.75 -27.3 -24.7 -27.45 -26.65 -26.4 -27.25 -25.4 -27.85 -23.8 -26.75 M-28.8 -10.7 Q-27.05 -9.55 -25.6 -7.0 -24.7 -4.4 -22.55 -2.45 L-22.5 -2.4 M3.65 48.0 Q5.1 48.95 6.35 47.15 L7.35 45.25 Q8.45 43.95 11.35 44.6 12.35 45.0 13.5 45.85 16.25 47.65 17.7 45.25 M-0.35 -26.8 Q-4.45 -24.0 -10.3 -23.3 -13.4 -23.95 -15.85 -25.35 M-42.4 -7.1 Q-39.8 -5.45 -35.25 -6.3 M-10.2 -99.35 L-7.1 -97.95 M-33.4 13.65 L-34.35 6.55 -39.75 8.2 M-34.35 6.55 Q-31.95 8.1 -29.9 7.75 M-26.1 43.65 Q-26.3 45.55 -25.0 47.9 -24.0 45.9 -22.6 45.15 -20.2 43.8 -16.6 46.3 -14.35 47.8 -12.3 47.25 M-21.9 53.55 L-17.35 53.25 Q-16.05 52.9 -14.8 52.25 L-13.5 51.45 Q-12.5 50.7 -11.3 50.3 M-3.9 56.75 Q-5.0 62.05 -8.15 67.4 M23.9 7.55 L26.05 11.25 M34.05 7.85 L34.05 12.65 M19.65 9.3 L23.7 5.5 M18.8 50.15 Q18.15 50.25 17.4 50.75 L16.05 53.05 Q13.95 55.75 10.85 55.45 8.35 55.15 5.15 52.9 L3.7 53.3 M39.55 4.5 Q41.3 4.35 43.05 2.25 M-0.55 -82.6 Q7.9 -85.35 11.9 -89.7" fill="none" stroke="#000000" stroke-linecap="round" stroke-linejoin="round" stroke-width="1.0"/>
    <path d="M25.35 -82.8 Q23.75 -83.6 16.75 -78.15 14.25 -76.2 11.7 -75.0 7.05 -72.85 2.25 -73.1 L-3.6 -73.85 -3.75 -73.85 -7.55 -74.55 -9.1 -74.95 Q-11.5 -75.65 -12.45 -76.4 -14.5 -78.9 -11.3 -79.6 L-9.3 -79.65 -7.5 -79.55 -4.1 -79.2 -0.35 -78.45 Q4.05 -77.35 11.25 -80.4 L11.4 -80.45 Q13.4 -81.3 15.6 -82.5 L22.05 -86.3 Q21.35 -87.85 21.0 -89.35 16.65 -86.45 12.75 -84.7 5.2 -81.35 -0.55 -82.6 -2.25 -83.25 -4.6 -83.3 L-7.15 -83.2 -8.7 -83.0 -8.8 -83.0 Q-12.5 -82.25 -12.85 -84.15 -12.95 -87.1 -10.0 -87.2 L-9.85 -87.2 -6.6 -87.0 -5.1 -87.0 2.35 -87.8 11.8 -89.95 12.0 -90.0 20.55 -92.7 Q20.55 -94.35 21.05 -95.95" fill="none" stroke="#000000" stroke-linecap="round" stroke-linejoin="round" stroke-width="1.0"/>
    <path d="M15.6 109.15 Q16.2 91.0 11.95 81.85" fill="none" stroke="#000000" stroke-linecap="round" stroke-linejoin="round" stroke-width="2.0"/>
    <path d="M38.65 135.7 L35.2 135.3 39.85 142.4 42.95 141.75 M42.8 145.05 L39.6 146.05 39.65 146.1 42.7 149.2 Q44.7 147.4 46.7 149.35 L44.75 146.85 42.8 145.05 39.85 142.4 36.55 143.0 39.6 146.05 39.15 146.25 39.65 146.1 M42.8 145.05 L46.0 144.05 M13.35 133.9 Q19.7 138.2 18.9 142.5 M13.75 130.8 L16.3 125.9 13.35 123.0 M19.55 142.0 Q22.2 140.15 24.6 138.8 L27.95 137.15 Q29.75 136.35 31.4 135.95 L35.2 135.3 M16.3 125.9 Q21.35 130.55 22.4 128.45 L22.95 127.1 Q24.2 124.6 27.35 126.1 29.6 126.95 30.65 125.6 M22.4 149.8 Q25.95 146.5 30.05 145.5 L24.6 138.8 M32.6 147.9 L35.85 147.2 32.85 144.55 30.05 145.5 32.2 147.55 32.6 147.9 34.35 149.6 36.15 151.9 Q36.55 150.6 38.85 149.85 L35.85 147.2 39.15 146.25 M31.95 147.9 L32.6 147.9 M36.55 143.0 L32.85 144.55 27.95 137.15 M31.4 135.95 L36.55 143.0 M40.85 154.85 Q41.95 152.15 38.95 149.95 L38.85 149.85 M36.15 151.9 Q37.45 154.3 36.85 156.7 M28.95 156.75 Q30.15 149.55 36.15 151.9 M44.55 153.8 Q45.75 151.25 42.7 149.2 40.55 148.4 38.95 149.95 M24.6 154.3 Q26.15 149.05 32.2 147.55 M-25.55 118.3 L-23.5 120.4 Q-21.1 122.75 -20.15 123.15 -18.4 123.85 -16.45 123.6 -13.95 118.75 -11.1 123.95 -7.95 127.2 -6.1 123.7 L-5.65 125.6 -7.0 128.6 -8.15 130.85 Q-18.35 131.7 -20.85 137.95 M-10.25 118.6 L-13.25 114.7 M-36.75 129.95 L-38.1 130.8 -36.55 133.1 -36.5 133.1 -30.1 130.65 -33.2 127.2 M-46.25 133.85 L-43.65 133.85 -42.25 133.05 -40.3 132.0 -38.1 130.8 M-30.1 130.65 Q-27.05 134.65 -26.0 138.9 M-36.5 133.1 L-32.45 140.85 M-11.1 123.95 Q-11.15 126.4 -13.7 128.85 -16.6 126.25 -16.45 123.6 M-4.65 134.85 L-8.15 130.85 M-48.95 136.05 L-42.9 135.5 -43.65 133.85 M-48.95 136.05 Q-45.95 139.3 -46.75 142.55 M-40.6 142.4 Q-40.65 138.95 -42.9 135.5 L-36.55 133.1" fill="none" stroke="#000000" stroke-linecap="round" stroke-linejoin="round" stroke-width="1.0"/>
    <path d="M42.95 141.75 L42.75 141.5 38.65 135.7 Q35.3 131.2 31.6 127.0 L31.75 123.65 31.25 123.0 30.45 121.95 28.45 119.35 M42.95 141.75 L46.0 144.05 46.1 144.1 46.45 145.35 47.05 148.2 47.45 150.7 47.45 150.8 47.65 152.5 Q46.45 156.0 44.55 153.8 43.0 156.6 40.85 154.85 39.95 157.1 36.85 156.7 32.85 158.95 29.0 156.8 L28.95 156.75 24.6 154.3 22.4 149.8 18.9 142.5 13.25 140.1 Q13.1 136.85 13.35 133.9 L13.75 130.8 11.7 127.15 13.35 123.0 15.0 118.85 15.6 109.15 M24.9 109.15 Q26.2 114.45 27.95 119.3 L27.95 119.4 30.45 121.95 31.3 122.8 31.25 123.0 30.6 125.6 30.65 125.6 M-14.3 109.15 L-14.4 113.05 -13.25 114.7 -12.0 109.15 M-10.25 118.6 L-8.85 109.15 M-6.1 123.7 L-10.25 118.6 M-6.1 123.7 L-3.95 130.95 -3.95 131.0 Q-3.85 132.35 -4.1 133.45 L-4.65 134.85 Q-7.0 139.0 -16.75 138.75 -21.25 137.9 -26.0 138.9 -28.1 139.3 -30.25 140.1 L-32.45 140.85 Q-36.55 142.15 -40.6 142.4 L-41.7 142.45 -41.85 142.45 -42.85 142.4 -44.2 142.55 -46.45 142.55 -46.75 142.55 Q-51.6 142.15 -52.65 138.4 -53.15 135.9 -50.15 136.15 L-48.95 136.05 Q-49.45 134.6 -48.4 133.65 L-47.0 133.8 -46.25 133.85 Q-46.05 131.35 -44.3 131.95 L-36.75 129.95 -33.2 127.2 Q-28.95 123.5 -25.55 118.3 -23.1 115.6 -22.25 112.55 L-22.05 109.15" fill="none" stroke="#000000" stroke-linecap="round" stroke-linejoin="round" stroke-width="2.0"/>
  </g>
</svg>
