<?xml version="1.0" encoding="UTF-8" standalone="no"?>
<svg xmlns:xlink="http://www.w3.org/1999/xlink" height="56.4px" width="102.25px" xmlns="http://www.w3.org/2000/svg">
  <g transform="matrix(1.0, 0.0, 0.0, 1.0, 51.3, 41.45)">
    <path d="M36.1 -36.2 Q39.35 -36.65 42.75 -37.8 L43.7 -35.25 44.65 -38.5 Q47.7 -39.7 50.85 -41.45 51.15 -40.05 50.55 -38.35 L43.7 -10.35 Q45.95 -4.2 45.3 2.3 44.7 5.2 41.7 7.1 40.3 10.0 38.1 10.7 36.7 13.05 34.1 13.95 30.45 15.8 26.8 13.95 L26.1 12.55 23.95 8.85 23.35 2.65 Q20.5 0.85 17.35 1.05 L17.3 1.05 21.2 -8.4 28.9 -12.5 Q30.0 -19.45 27.0 -26.35 23.75 -31.5 23.3 -37.3 29.35 -35.25 36.1 -36.2 M-43.35 -37.35 Q-38.25 -35.55 -32.2 -35.1 -34.4 -25.75 -35.0 -15.75 -35.5 -7.2 -34.85 1.85 -34.4 8.25 -33.35 14.95 L-39.7 9.5 -39.7 9.45 Q-49.75 -22.9 -51.3 -41.25 -47.65 -38.85 -43.35 -37.35 M-20.6 -35.0 L-20.6 -28.0 -21.0 -35.0 -20.6 -35.0" fill="#ffcc99" fill-rule="evenodd" stroke="none"/>
  </g>
</svg>
