<?xml version="1.0" encoding="UTF-8" standalone="no"?>
<svg xmlns:xlink="http://www.w3.org/1999/xlink" height="158.15px" width="63.35px" xmlns="http://www.w3.org/2000/svg">
  <g transform="matrix(1.0, 0.0, 0.0, 1.0, 35.25, 36.95)">
    <path d="M9.35 -36.95 L20.8 47.7 28.1 71.3 26.0 90.9 27.95 119.4 26.65 120.3 Q22.3 122.15 17.65 120.25 L15.0 118.85 11.65 100.55 9.6 93.9 9.5 93.55 2.45 78.3 Q0.9 84.85 -3.15 91.45 -6.4 102.4 -6.95 115.55 L-6.95 115.75 -6.95 116.7 -7.05 118.05 Q-15.5 119.7 -22.4 116.7 L-24.05 115.9 -22.25 112.55 -22.15 112.5 -22.0 108.55 Q-20.7 79.5 -21.8 55.8 L-21.9 53.55 -23.5 53.55 -26.5 42.25 Q-31.2 27.4 -33.4 13.65 -34.45 6.95 -34.9 0.55 -35.55 -8.5 -35.05 -17.05 -34.45 -27.05 -32.25 -36.4 L-30.8 -35.6 Q-29.15 -34.85 -26.65 -34.45 L-20.95 -34.0 -16.55 -34.0 -8.6 -34.55 3.45 -36.0 9.35 -36.95 M2.45 78.3 L2.65 78.7 2.45 78.25 2.45 78.3 M1.4 54.6 L1.4 47.4 Q-1.8 34.0 -5.85 21.45 L-9.15 40.4 Q-3.9 45.75 1.4 54.6" fill="#ffcc99" fill-rule="evenodd" stroke="none"/>
  </g>
</svg>
