<?xml version="1.0" encoding="UTF-8" standalone="no"?>
<svg xmlns:xlink="http://www.w3.org/1999/xlink" height="159.65px" width="65.2px" xmlns="http://www.w3.org/2000/svg">
  <g transform="matrix(1.0, 0.0, 0.0, 1.0, 35.75, 37.95)">
    <path d="M2.7 78.75 L2.45 78.3 2.45 78.25 2.7 78.75" fill="#000000" fill-opacity="0.2" fill-rule="evenodd" stroke="none"/>
    <path d="M-30.8 -35.6 Q-33.55 -10.95 -33.4 13.65 -34.45 6.95 -34.9 0.55 -35.55 -8.5 -35.05 -17.05 -34.45 -27.05 -32.25 -36.4 L-30.8 -35.6 M-15.1 53.6 L-21.75 55.8 -21.8 55.8 -21.9 53.55 -19.25 53.55 -15.1 53.6" fill="#000000" fill-opacity="0.4" fill-rule="evenodd" stroke="none"/>
    <path d="M0.45 -14.3 Q-8.65 -11.7 -16.4 -6.45 -24.9 -9.1 -30.55 -13.3 -24.9 -9.1 -16.4 -6.45 -8.65 -11.7 0.45 -14.3 M-30.8 -35.6 Q-29.15 -34.85 -26.65 -34.45 L-20.95 -34.0 -16.55 -34.0 Q-13.6 -30.3 -8.45 -32.15 L-8.6 -34.55 3.45 -36.0 Q0.65 -9.05 10.7 47.55 10.05 55.1 14.15 57.3 L10.75 57.1 10.75 73.85 16.35 91.35 22.85 121.2 Q20.3 121.35 17.65 120.25 L15.0 118.85 11.65 100.55 9.6 93.9 9.5 93.55 2.45 78.3 2.65 78.7 2.45 78.25 1.4 75.95 1.4 47.4 Q-1.8 34.0 -5.85 21.45 L-6.25 23.7 -9.85 19.15 -12.9 44.7 Q-1.65 52.25 -1.0 74.3 -3.5 83.45 -8.3 92.0 L-10.9 111.6 Q-11.3 115.05 -11.1 118.6 -17.2 118.95 -22.4 116.7 L-24.05 115.9 -22.25 112.55 -22.15 112.5 -22.0 108.55 Q-20.7 79.5 -21.8 55.8 L-21.75 55.8 -15.1 53.6 -19.25 53.55 -21.9 53.55 -23.5 53.55 -26.5 42.25 Q-31.2 27.4 -33.4 13.65 -33.55 -10.95 -30.8 -35.6" fill="#000000" fill-opacity="0.2" fill-rule="evenodd" stroke="none"/>
    <path d="M-30.55 -13.3 Q-24.9 -9.1 -16.4 -6.45 -8.65 -11.7 0.45 -14.3" fill="none" stroke="#000000" stroke-linecap="round" stroke-linejoin="round" stroke-width="1.0"/>
    <path d="M-8.6 -34.55 L-8.3 -29.9 Q-13.05 -24.5 -20.1 -23.85 -22.95 -24.3 -25.85 -27.55 L-26.65 -34.45 M-20.1 -23.85 L-20.55 -28.15 -20.95 -34.0 M-16.4 -6.45 L-15.4 -4.15 Q-10.15 8.2 -5.85 21.45 M-33.4 13.65 Q-34.45 6.95 -34.9 0.55 -35.55 -8.5 -35.05 -17.05 -34.45 -27.05 -32.25 -36.4 M6.5 54.95 Q8.4 56.55 10.75 57.1 L14.15 57.3 17.4 53.25 M-21.9 53.55 L-19.25 53.55" fill="none" stroke="#000000" stroke-linecap="round" stroke-linejoin="round" stroke-width="1.0"/>
    <path d="M-5.85 21.45 Q-1.8 34.0 1.4 47.4 L1.4 54.6 1.4 68.9 M24.9 60.95 L20.8 47.7 9.35 -36.95 M27.35 68.9 L25.6 63.2 M-5.85 21.45 L-9.15 40.4 Q-3.9 45.75 1.4 54.6" fill="none" stroke="#000000" stroke-linecap="round" stroke-linejoin="round" stroke-width="2.0"/>
    <path d="M25.6 63.2 L24.9 60.95" fill="none" stroke="#000000" stroke-linecap="round" stroke-linejoin="round" stroke-width="2.0"/>
    <path d="M-21.35 68.9 L-21.45 64.6 -21.5 63.2 -21.6 60.95 -21.8 55.8 -21.9 53.55 -23.5 53.55 -26.5 42.25 Q-31.2 27.4 -33.4 13.65" fill="none" stroke="#000000" stroke-linecap="round" stroke-linejoin="round" stroke-width="2.0"/>
    <path d="M2.45 78.3 L2.45 78.25 2.65 78.7 2.45 78.3" fill="#ffffff" fill-rule="evenodd" stroke="none"/>
    <path d="M28.1 71.3 L27.35 68.9 M2.45 78.25 L2.45 78.3 M2.45 78.25 L1.4 75.95 1.4 68.9 M9.45 93.55 L9.55 93.8 M2.45 78.25 L2.65 78.65 M-21.3 93.8 L-21.2 82.05 -21.2 80.75 -21.2 79.4 -21.25 75.0 -21.3 71.2 -21.35 68.9 -21.3 70.15 -21.3 71.2 M26.2 90.95 L26.2 91.05" fill="none" stroke="#000000" stroke-linecap="round" stroke-linejoin="round" stroke-width="2.0"/>
    <path d="M28.25 71.75 L28.1 71.3 28.25 71.7 28.25 71.75 26.2 91.05 26.15 91.3 26.15 91.25 26.2 90.95 28.2 71.95 M2.65 78.65 L2.65 78.7 2.65 78.75 2.85 79.2 9.45 93.55 M9.55 93.8 L9.6 93.9 9.65 94.0 9.9 94.8 11.65 100.55 15.0 118.85 M28.45 119.35 L26.15 91.35 26.15 91.3 M2.65 78.75 L2.1 80.8 0.9 84.25 0.75 84.7 -2.35 90.8 -2.95 91.8 -3.8 94.85 -4.95 99.95 -5.3 101.95 -5.75 104.75 Q-6.45 109.65 -6.6 114.8 L-6.65 117.95 M-24.05 115.9 L-22.25 112.55 -21.6 103.15 -21.55 101.95 -21.5 99.95 -21.3 93.8 M9.9 94.8 L9.6 93.9 M-21.2 80.75 L-21.15 78.25 -21.25 75.0" fill="none" stroke="#000000" stroke-linecap="round" stroke-linejoin="round" stroke-width="2.0"/>
    <path d="M28.2 71.95 L28.25 71.75 M15.0 118.85 Q22.1 123.3 28.45 119.35 M-6.65 117.95 Q-16.4 120.0 -24.05 115.9" fill="none" stroke="#000000" stroke-linecap="round" stroke-linejoin="round" stroke-width="1.0"/>
  </g>
</svg>
