<?xml version="1.0" encoding="UTF-8" standalone="no"?>
<svg xmlns:xlink="http://www.w3.org/1999/xlink" height="163.0px" width="68.6px" xmlns="http://www.w3.org/2000/svg">
  <g transform="matrix(1.0, 0.0, 0.0, 1.0, 35.25, 36.95)">
    <path d="M9.35 -36.95 L20.8 47.7 28.1 71.3 31.4 89.7 Q33.25 105.25 33.35 122.95 25.55 127.9 10.95 124.9 9.95 114.35 7.8 103.4 L2.45 79.55 2.3 79.05 1.85 80.6 1.25 118.7 1.2 119.35 1.15 119.55 1.05 119.6 -2.3 120.55 -5.7 121.3 -7.45 121.55 Q-13.8 122.25 -20.55 121.25 L-20.9 121.2 -22.25 120.95 -22.7 120.85 -25.15 120.25 -25.15 120.1 -29.05 118.75 Q-24.35 99.2 -23.35 78.15 L-23.2 59.45 -23.25 58.95 -23.45 54.1 -23.5 53.55 -26.5 42.25 Q-31.2 27.4 -33.4 13.65 -34.45 6.95 -34.9 0.55 -35.55 -8.5 -35.05 -17.05 -34.45 -27.05 -32.25 -36.4 L-30.8 -35.6 Q-29.15 -34.85 -26.65 -34.45 L-20.95 -34.0 -16.55 -34.0 -8.6 -34.55 3.45 -36.0 9.35 -36.95 M1.4 54.6 L1.4 47.4 Q-1.8 34.0 -5.85 21.45 L-9.15 40.4 Q-3.9 45.75 1.4 54.6" fill="#ffcc99" fill-rule="evenodd" stroke="none"/>
  </g>
</svg>
