<?xml version="1.0" encoding="UTF-8" standalone="no"?>
<svg xmlns:xlink="http://www.w3.org/1999/xlink" height="113.5px" width="64.9px" xmlns="http://www.w3.org/2000/svg">
  <g transform="matrix(1.0, 0.0, 0.0, 1.0, 35.25, 36.95)">
    <path d="M1.25 54.35 L1.4 54.6 1.4 47.4 Q-1.8 34.0 -5.85 21.45 L-9.15 40.4 -9.1 40.45 -4.55 41.6 -6.35 43.5 -5.8 44.15 Q-2.3 48.45 1.25 54.35 M3.45 -36.0 L9.35 -36.95 20.2 43.1 23.4 45.15 22.15 48.05 23.9 50.0 22.55 53.2 24.9 54.65 23.7 57.0 23.75 57.3 29.65 69.2 28.1 71.25 28.1 71.3 28.0 71.4 Q18.65 76.35 9.05 76.55 L1.4 75.95 1.35 75.85 -1.4 76.1 Q-13.65 76.95 -20.8 74.7 L-21.3 74.65 -21.3 74.6 -22.75 66.15 -25.1 64.1 -23.95 59.05 -26.3 57.45 -24.9 55.95 -27.05 53.6 -24.55 50.8 -28.05 48.65 -26.55 43.95 Q-31.35 27.8 -33.6 13.6 L-33.4 13.65 Q-34.45 6.95 -34.9 0.55 -35.55 -8.5 -35.05 -17.05 -34.5 -26.7 -32.4 -35.75 L-32.25 -36.4 -31.95 -36.15 -30.9 -35.65 -30.8 -35.6 -30.7 -35.55 Q-29.8 -35.15 -28.55 -34.85 L-27.55 -34.65 -26.75 -34.5 -26.65 -34.45 -20.95 -34.0 -16.55 -34.0 -8.6 -34.55 1.2 -35.7 1.6 -35.75 3.45 -36.0" fill="#ffcc99" fill-rule="evenodd" stroke="none"/>
  </g>
</svg>
