<?xml version="1.0" encoding="UTF-8" standalone="no"?>
<svg xmlns:xlink="http://www.w3.org/1999/xlink" height="115.0px" width="66.75px" xmlns="http://www.w3.org/2000/svg">
  <g transform="matrix(1.0, 0.0, 0.0, 1.0, 36.1, 37.95)">
    <path d="M-30.8 -35.6 Q-33.55 -10.95 -33.4 13.65 -31.2 27.4 -26.5 42.25 L-23.5 53.55 -21.9 53.55 -19.25 53.55 -15.1 53.6 -21.75 55.8 -21.8 55.8 Q-21.4 64.8 -21.3 74.6 L-22.75 66.15 -25.1 64.1 -23.95 59.05 -26.3 57.45 -24.9 55.95 -27.05 53.6 -24.55 50.8 -28.05 48.65 -26.55 43.95 Q-31.35 27.8 -33.6 13.6 L-33.4 13.65 Q-34.45 6.95 -34.9 0.55 -35.55 -8.5 -35.05 -17.05 -34.5 -26.7 -32.4 -35.75 L-32.25 -36.4 -31.95 -36.15 -30.9 -35.65 -30.8 -35.6" fill="#000000" fill-opacity="0.4" fill-rule="evenodd" stroke="none"/>
    <path d="M1.2 -35.7 L1.6 -35.75 3.45 -36.0 Q0.65 -9.05 10.7 47.55 10.05 55.1 14.15 57.3 L10.75 57.1 10.75 73.85 11.6 76.45 9.25 76.55 9.05 76.55 1.4 75.95 1.4 47.4 Q-1.8 34.0 -5.85 21.45 L-6.25 23.7 -9.85 19.15 -12.9 44.7 Q-1.65 52.25 -1.0 74.3 L-1.5 76.1 -1.55 76.35 Q-11.5 77.4 -21.3 75.95 L-21.3 74.65 -21.3 74.6 Q-21.4 64.8 -21.8 55.8 L-21.75 55.8 -15.1 53.6 -19.25 53.55 -21.9 53.55 -23.5 53.55 -26.5 42.25 Q-31.2 27.4 -33.4 13.65 -33.55 -10.95 -30.8 -35.6 L-30.7 -35.55 -30.2 -35.35 -29.2 -35.05 -28.4 -34.8 -27.55 -34.65 -26.75 -34.5 -26.65 -34.45 -20.95 -34.0 -16.55 -34.0 Q-13.6 -30.3 -8.45 -32.15 L-8.6 -34.55 1.2 -35.7" fill="#000000" fill-opacity="0.2" fill-rule="evenodd" stroke="none"/>
    <path d="M-30.5 -13.1 Q-23.65 -8.05 -16.45 -6.3 -8.95 -11.35 0.4 -14.15 M-33.65 13.3 Q-38.2 -15.6 -32.25 -36.35 M1.35 75.85 L-1.4 76.1 Q-13.65 76.95 -20.8 74.7 L-21.3 74.65 M27.95 71.4 Q21.65 76.2 11.6 76.55 L9.05 76.55 M7.3 76.5 L1.75 75.9 1.45 75.85 1.35 75.85 M-16.45 -6.3 Q-10.4 8.0 -5.8 22.1" fill="none" stroke="#000000" stroke-linecap="round" stroke-linejoin="round" stroke-width="1.0"/>
    <path d="M-21.3 74.65 L-22.75 66.15 -25.1 64.1 -23.95 59.05 -26.3 57.45 -24.9 55.95 -27.05 53.6 -24.55 50.8 -28.05 48.65 -26.55 43.95 Q-31.4 27.65 -33.65 13.3 M-6.45 43.55 Q-1.3 48.3 1.25 54.2 L1.25 47.65 Q-1.65 34.95 -5.8 22.1 L-9.2 40.4 -4.55 41.6 -6.45 43.55 M9.35 -36.95 Q16.2 2.5 20.05 43.0 L23.4 45.15 22.15 48.05 23.9 50.0 22.55 53.2 24.9 54.65 23.65 57.05 29.65 69.2 27.95 71.4" fill="none" stroke="#000000" stroke-linecap="round" stroke-linejoin="round" stroke-width="2.0"/>
    <path d="M9.05 76.55 L7.3 76.5 4.4 76.3 1.4 75.95 1.35 75.85 -0.8 72.25 1.25 54.2" fill="none" stroke="#000000" stroke-linecap="round" stroke-linejoin="round" stroke-width="1.0"/>
  </g>
</svg>
