<?xml version="1.0" encoding="UTF-8" standalone="no"?>
<svg xmlns:xlink="http://www.w3.org/1999/xlink" height="73.2px" width="82.65px" xmlns="http://www.w3.org/2000/svg">
  <g transform="matrix(1.0, 0.0, 0.0, 1.0, 40.8, -71.6)">
    <path d="M-10.0 128.05 L-12.05 133.5 -15.6 130.4 -12.3 131.4 -10.05 127.9 -10.0 128.05" fill="#000000" fill-opacity="0.4" fill-rule="evenodd" stroke="none"/>
    <path d="M1.45 77.15 L1.75 77.2 11.6 77.85 16.1 92.25 22.9 122.95 22.9 131.4 Q28.15 134.6 33.35 140.25 L33.1 140.25 Q26.0 141.05 18.9 143.8 L13.25 141.4 Q13.1 137.8 13.4 134.6 L13.75 132.1 11.7 128.45 15.0 120.15 11.65 101.95 11.45 101.3 11.4 100.8 9.5 94.7 1.45 77.15 M-21.3 77.15 L-21.3 75.85 -20.8 76.05 Q-12.4 78.4 -1.4 77.4 -3.95 85.35 -8.3 93.3 L-10.05 107.05 Q-11.95 117.3 -10.05 127.9 L-12.3 131.4 -15.6 130.4 -12.05 133.5 -10.0 128.05 Q-9.75 130.7 -8.65 133.05 -11.8 136.1 -13.8 140.05 L-14.1 140.65 -16.9 139.6 -17.35 139.95 Q-23.55 138.95 -30.25 141.4 L-35.9 143.05 -37.2 143.15 Q-38.05 138.2 -40.3 133.3 L-36.35 130.95 Q-27.75 125.0 -22.25 113.85 L-22.15 113.85 -21.95 109.8 -21.75 104.0 -21.65 100.8 -21.3 79.1 -21.3 77.15" fill="#000000" fill-opacity="0.2" fill-rule="evenodd" stroke="none"/>
    <path d="M28.25 73.05 L28.25 73.0 28.1 72.6 M-13.8 140.05 L-16.75 140.05 Q-23.25 138.85 -30.25 141.4 -33.75 142.7 -37.2 143.3 M-36.75 131.25 Q-27.9 125.3 -22.25 113.85 L-21.6 104.45 -21.55 103.25 -21.5 101.25 -21.3 95.1 M1.6 77.6 L2.65 79.9 9.65 95.15 11.55 101.25 11.65 101.85 M2.65 79.95 L2.65 80.05 M2.65 79.9 L2.65 79.95 M-21.2 83.35 L-21.15 79.55 -21.25 76.3" fill="none" stroke="#000000" stroke-linecap="round" stroke-linejoin="round" stroke-width="2.0"/>
    <path d="M28.05 73.2 L28.25 73.05 M40.85 140.0 Q29.85 139.55 18.9 143.8 M-40.3 133.3 L-36.75 131.25 M-21.25 75.9 Q-14.0 78.3 -1.4 77.4 L1.4 77.15 1.45 77.15 1.75 77.2 11.6 77.85 Q21.75 77.5 28.1 72.6 M1.55 77.6 L1.6 77.6 M-8.15 132.15 L-7.0 129.9 -5.65 126.9 -5.65 126.85" fill="none" stroke="#000000" stroke-linecap="round" stroke-linejoin="round" stroke-width="1.0"/>
    <path d="M28.1 72.6 L28.05 73.2 26.0 92.2 26.35 95.1 M-21.3 95.1 L-21.2 83.35 -21.25 76.3 -21.25 75.9 M1.4 77.15 L1.4 77.25 1.55 77.6 2.45 79.55 2.45 79.6 Q0.9 86.15 -3.15 92.75 L-3.8 95.1 M2.65 79.95 L2.45 79.55 M2.65 79.95 L9.5 94.85 9.55 95.1" fill="none" stroke="#000000" stroke-linecap="round" stroke-linejoin="round" stroke-width="2.0"/>
    <path d="M-4.7 129.85 Q-10.65 133.85 -13.8 140.05 M-37.2 143.3 Q-38.0 138.3 -40.3 133.3" fill="none" stroke="#000000" stroke-linecap="round" stroke-linejoin="round" stroke-width="1.0"/>
    <path d="M28.25 73.05 L26.25 91.95 26.15 92.55 26.15 92.6 26.15 92.65 26.35 95.1 28.45 120.65 31.75 124.95 31.6 128.3 Q36.5 133.9 40.85 140.0" fill="none" stroke="#000000" stroke-linecap="round" stroke-linejoin="round" stroke-width="2.0"/>
    <path d="M18.9 143.8 L13.25 141.4 Q13.1 137.8 13.4 134.6 L13.75 132.1 11.7 128.45 15.0 120.15 11.65 101.85 9.65 95.3 9.55 95.1 2.85 80.5 2.65 80.05 2.1 82.1 0.9 85.55 0.75 86.0 -2.35 92.1 -2.95 93.1 -3.8 96.15 -4.95 101.25 -5.3 103.25 -5.75 106.05 Q-6.45 110.95 -6.6 116.1 L-6.65 119.25 -4.25 122.55 -5.45 126.45 -5.65 126.85 -4.7 129.85" fill="none" stroke="#000000" stroke-linecap="round" stroke-linejoin="round" stroke-width="2.0"/>
    <path d="M-21.2 82.2 L-21.15 82.2 Q-11.0 84.9 0.95 84.55" fill="none" stroke="#000000" stroke-linecap="round" stroke-linejoin="round" stroke-opacity="0.4" stroke-width="1.0"/>
    <path d="M27.25 80.75 L27.45 80.65 27.75 80.5 M4.65 84.25 Q19.25 84.1 27.25 80.75 M-17.2 140.0 L-17.35 140.35 M7.6 90.75 L7.65 90.75 Q13.95 91.05 19.55 89.8 L20.5 86.1 22.3 89.1 26.5 87.55 M10.8 98.8 Q18.7 98.8 26.5 96.5 M10.7 98.8 L10.8 98.8 M27.2 109.5 L24.6 110.3 22.5 108.75 22.05 111.05 19.25 111.9 17.2 108.75 17.2 112.5 15.1 113.1 M33.2 130.15 L33.4 130.4 M37.35 135.25 L37.5 135.5 M13.3 141.4 Q20.4 137.1 22.7 136.35 L22.75 136.3 22.75 133.25 25.75 135.4 Q32.3 133.7 37.35 135.25 M13.75 132.1 Q22.3 126.95 25.45 126.5 L26.65 123.45 27.65 126.35 30.6 126.9 M13.2 106.9 Q21.45 105.3 26.95 102.2 M13.3 136.4 Q26.8 128.35 33.2 130.15 M13.2 124.6 Q20.6 121.6 27.95 120.7 M14.8 119.1 L27.6 115.75 M-21.25 88.5 Q-12.05 90.7 -2.6 91.85 M-21.3 95.55 L-4.05 97.1 M-22.05 110.6 L-13.8 111.1 -12.55 108.35 -11.4 111.25 -6.65 111.55 M-27.15 121.95 L-16.5 123.05 -10.4 122.65 Q-8.65 122.4 -5.45 120.9 M-22.3 116.9 L-20.15 117.05 -18.95 115.45 -17.5 117.2 -6.95 116.9 M-35.2 130.15 Q-33.65 133.05 -32.6 135.8 L-34.15 138.65 -31.6 138.65 -30.85 141.65 M-24.05 139.9 Q-25.6 133.5 -30.3 127.35 M-20.0 139.7 L-20.3 140.75 M-17.2 140.0 Q-13.95 130.0 -6.1 125.0 M-20.0 139.7 Q-19.25 136.6 -18.05 133.85 -19.2 130.7 -21.5 127.6 -22.85 125.8 -27.15 121.95 M-21.5 127.6 L-16.5 123.05 M-18.05 133.85 Q-15.3 127.4 -10.4 122.65 M-21.45 100.0 L-5.25 101.35 M-21.65 105.1 L-5.8 106.7" fill="none" stroke="#000000" stroke-linecap="round" stroke-linejoin="round" stroke-opacity="0.4" stroke-width="1.0"/>
    <path d="M27.45 80.65 L28.15 74.15 28.25 73.05 28.25 73.0 28.1 72.6 M2.65 79.95 L2.65 79.9 M2.65 79.95 L2.65 80.05 2.85 80.5 9.55 95.1 9.65 95.3 10.7 98.8 11.65 101.85 14.8 119.1 15.0 120.15 13.85 123.0 13.75 123.25 13.2 124.6 11.7 128.45 13.75 132.1 13.4 134.6 13.3 136.4 Q13.15 138.8 13.25 141.4 L13.3 141.4 18.9 143.8 M2.65 80.05 L2.1 82.1 0.9 85.55 0.75 86.0 -2.35 92.1 -2.95 93.1 -3.8 96.15 -4.05 97.1 -4.95 101.25 -5.3 103.25 -5.75 106.05 -5.8 106.7 Q-6.45 111.3 -6.6 116.1 L-6.65 119.25 -5.45 120.9 -4.25 122.55 -5.45 126.45 -5.65 126.85 -4.7 129.85 M-13.8 140.05 L-16.75 140.05 -17.2 140.0 -20.0 139.7 -24.05 139.9 Q-27.1 140.25 -30.25 141.4 L-30.85 141.65 Q-34.05 142.75 -37.2 143.3 M7.65 90.75 L6.8 88.9 M7.65 90.75 L9.65 95.15 10.8 98.8 11.55 101.25 11.65 101.85 M26.5 96.5 L26.35 95.1 M26.2 92.25 L26.15 92.6 M26.5 96.5 L26.95 102.2 28.45 120.65 31.75 124.95 31.6 128.3 33.2 130.15 M33.4 130.4 L37.35 135.25 M37.5 135.5 L40.85 140.0 M-21.15 82.2 L-21.15 79.55 -21.25 76.3 M-21.2 83.35 L-21.15 82.2 M-36.75 131.25 L-35.2 130.15 Q-30.75 126.8 -27.15 121.95 -24.45 118.3 -22.25 113.85 L-22.05 110.6 -21.65 105.1 -21.6 104.45 -21.55 103.25 -21.5 101.25 -21.45 100.0 -21.3 95.55 -21.3 95.1" fill="none" stroke="#000000" stroke-linecap="round" stroke-linejoin="round" stroke-width="2.0"/>
    <path d="M28.05 73.2 L27.25 80.75 26.5 87.55 26.0 92.2 26.35 95.1 M28.1 72.6 L28.05 73.2 M1.4 77.15 L1.4 77.25 1.55 77.6 2.45 79.55 2.45 79.6 0.95 84.55 Q-0.45 88.2 -2.6 91.85 L-3.15 92.75 -3.8 95.1 M2.65 79.95 L2.45 79.55 M9.55 95.1 L9.5 94.85 7.6 90.75 6.8 88.9 M3.05 80.75 L2.65 79.95 M-21.25 76.3 L-21.2 82.2 -21.2 83.35 -21.25 88.5 -21.3 95.1 M-21.25 76.3 L-21.25 75.9" fill="none" stroke="#000000" stroke-linecap="round" stroke-linejoin="round" stroke-width="2.0"/>
    <path d="M28.25 73.05 L28.05 73.2 M28.1 72.6 Q21.75 77.5 11.6 77.85 L1.75 77.2 1.45 77.15 1.4 77.15 -1.4 77.4 Q-14.0 78.3 -21.25 75.9 M1.55 77.6 L1.6 77.6 M-4.7 129.85 Q-10.65 133.85 -13.8 140.05 M40.85 140.0 Q29.85 139.55 18.9 143.8 M-37.2 143.3 Q-38.0 138.3 -40.3 133.3 L-36.75 131.25 M-8.15 132.15 L-7.0 129.9 -5.65 126.9 -5.65 126.85" fill="none" stroke="#000000" stroke-linecap="round" stroke-linejoin="round" stroke-width="1.0"/>
    <path d="M1.6 77.6 L2.65 79.9 3.05 80.75 3.15 81.05 4.65 84.25 6.15 87.5 6.5 88.3 6.8 88.9 M26.35 95.1 L26.15 92.65 26.15 92.6 26.15 92.55 26.2 92.25 26.2 92.15 27.45 80.65" fill="none" stroke="#000000" stroke-linecap="round" stroke-linejoin="round" stroke-width="2.0"/>
  </g>
</svg>
