<?xml version="1.0" encoding="UTF-8" standalone="no"?>
<svg xmlns:xlink="http://www.w3.org/1999/xlink" height="89.25px" width="105.2px" xmlns="http://www.w3.org/2000/svg">
  <g transform="matrix(1.0, 0.0, 0.0, 1.0, 56.6, -71.15)">
    <path d="M-10.0 128.05 L-12.05 133.5 -15.6 130.4 -12.3 131.4 -10.05 127.9 -10.0 128.05" fill="#000000" fill-opacity="0.4" fill-rule="evenodd" stroke="none"/>
    <path d="M1.75 77.2 L11.6 77.85 16.1 92.25 22.9 122.95 22.9 131.4 Q31.1 136.45 38.25 146.4 L45.7 158.35 41.35 159.25 36.0 159.4 Q30.1 158.0 25.65 155.8 L24.45 155.15 18.75 143.35 13.1 140.95 Q12.95 137.35 13.25 134.15 L13.6 131.65 11.55 128.0 14.85 119.7 11.4 100.8 9.5 94.7 1.45 77.15 1.75 77.2 M-1.4 77.4 Q-3.95 85.35 -8.3 93.3 L-10.05 107.05 Q-11.95 117.3 -10.05 127.9 L-12.3 131.4 -15.6 130.4 -12.05 133.5 -10.0 128.05 Q-9.7 130.9 -8.5 133.4 -7.3 136.7 -7.1 139.95 L-13.45 140.85 -16.9 139.6 -19.35 141.65 -24.15 142.15 -41.85 143.3 -48.95 143.45 -54.1 143.4 Q-56.65 141.1 -54.8 138.4 -53.85 136.95 -51.7 135.45 L-42.15 130.7 -37.15 127.75 Q-32.9 125.05 -29.65 122.2 -26.75 119.55 -24.65 116.8 L-22.4 113.4 -21.75 104.0 -21.65 100.8 Q-21.3 89.5 -21.3 79.1 L-21.3 75.85 Q-14.05 78.3 -1.4 77.4" fill="#000000" fill-opacity="0.2" fill-rule="evenodd" stroke="none"/>
    <path d="M1.45 77.15 L2.5 79.45 9.5 94.7 11.4 100.8 11.5 101.4 14.85 119.7 11.55 128.0 13.6 131.65 13.25 134.15 Q12.95 137.35 13.1 140.95 L18.75 143.35 24.45 155.15 25.65 155.8 Q30.1 158.0 36.0 159.4 L41.35 159.25 45.7 158.35 47.6 157.7 Q47.65 154.7 47.3 151.65 L47.3 151.55 46.9 149.05 46.3 146.2 45.95 144.95 42.8 142.6 42.6 142.35 Q37.45 134.75 31.45 127.85 L31.6 124.5 28.3 120.2 26.0 92.2 26.0 92.15 26.0 92.1 26.1 91.5 28.1 72.6 27.95 72.15 28.1 72.55 28.1 72.6 M2.5 79.45 L2.5 79.6 2.7 80.05 9.5 94.85 11.5 101.4 M2.5 79.6 L1.95 81.65 0.75 85.1 0.6 85.55 -2.5 91.65 -3.1 92.65 -3.95 95.7 -5.1 100.8 -5.9 105.6 Q-6.6 110.5 -6.75 115.65 L-6.8 118.8 -4.4 122.1 -5.6 126.0 -5.8 126.4 -4.1 131.8 -4.15 132.55 -4.25 134.2 Q-4.5 136.8 -5.15 139.3 L-5.3 139.7 -13.45 140.85 -16.9 139.6 -19.35 141.65 -24.15 142.15 -41.85 143.3 -48.95 143.45 -54.1 143.4 Q-56.65 141.1 -54.8 138.4 -53.85 136.95 -51.7 135.45 L-42.15 130.7 -37.15 127.75 Q-32.9 125.05 -29.65 122.2 -26.75 119.55 -24.65 116.8 L-22.4 113.4 -21.75 104.0 -21.65 100.8 Q-21.3 89.5 -21.3 79.1 L-21.3 75.85" fill="none" stroke="#000000" stroke-linecap="round" stroke-linejoin="round" stroke-width="2.0"/>
    <path d="M-8.3 131.7 L-7.15 129.45 -5.8 126.45 -5.8 126.4" fill="none" stroke="#000000" stroke-linecap="round" stroke-linejoin="round" stroke-width="1.0"/>
    <path d="M28.1 72.6 Q21.75 77.5 11.6 77.85 L1.75 77.2 1.45 77.15 -1.4 77.4 Q-14.05 78.3 -21.3 75.85" fill="none" stroke="#000000" stroke-linecap="round" stroke-linejoin="round" stroke-width="1.0"/>
  </g>
</svg>
