<?xml version="1.0" encoding="UTF-8" standalone="no"?>
<svg xmlns:xlink="http://www.w3.org/1999/xlink" height="121.25px" width="105.2px" xmlns="http://www.w3.org/2000/svg">
  <g transform="matrix(1.0, 0.0, 0.0, 1.0, 56.6, -39.15)">
    <path d="M20.65 46.6 Q23.7 49.55 22.5 54.55 L19.35 56.45 20.3 50.8 18.25 47.75 20.65 46.6 M0.15 53.45 Q0.05 51.2 1.35 49.65 L3.65 49.65 2.9 54.3 7.65 62.9 Q5.55 66.0 5.8 70.0 L9.25 72.7 11.2 72.3 20.4 119.9 Q17.9 123.65 18.45 128.2 L18.85 130.3 Q20.25 128.0 21.85 126.65 L31.15 140.95 Q29.25 141.75 27.45 143.1 L18.85 130.3 17.4 132.85 23.75 140.95 Q23.4 144.0 23.5 147.3 23.65 151.05 24.45 155.15 L18.75 143.35 13.1 140.95 13.05 138.3 13.25 134.15 13.6 131.65 12.55 129.8 16.8 119.95 16.8 119.9 Q15.55 109.7 12.85 99.55 L10.05 90.25 9.5 94.7 9.35 94.55 9.35 94.5 9.3 94.5 Q7.1 90.3 5.45 85.65 3.5 80.1 2.45 73.85 4.35 80.45 7.1 85.55 L10.0 90.1 10.05 90.25 10.1 90.1 10.25 84.7 Q10.15 80.95 9.4 77.85 8.85 75.45 7.9 73.4 7.0 71.55 5.8 70.0 L4.7 69.25 2.45 67.95 0.9 67.2 0.05 66.8 Q0.7 61.55 3.05 57.75 L1.25 57.6 Q0.2 55.25 0.15 53.45 M26.0 92.05 L25.95 92.1 Q23.75 87.55 22.7 82.95 21.9 79.5 21.75 76.05 L21.7 73.4 Q22.7 78.45 24.7 83.25 L27.1 88.3 26.0 92.05 M5.75 55.2 L17.7 53.6 9.05 57.05 11.25 66.2 5.75 55.2 M28.6 145.7 L29.2 153.35 35.85 157.7 26.9 154.35 27.0 152.5 27.1 152.5 27.0 152.3 Q27.2 149.0 28.25 146.0 L28.6 145.7 M-10.3 69.75 Q-9.6 78.2 -8.15 82.45 -6.15 88.15 -2.8 85.85 -8.05 93.85 -9.65 81.9 -10.3 77.3 -10.35 69.75 L-10.3 69.75 M-1.0 51.95 Q-3.15 53.15 -6.4 54.35 L-11.55 56.05 -15.5 57.15 -14.8 54.7 -17.35 50.2 Q-8.95 49.15 -5.15 46.5 -1.7 47.7 -1.0 51.95 M-23.65 67.55 L-21.6 67.55 -21.6 71.8 -17.9 71.8 -19.7 117.6 -26.55 124.25 -42.45 132.6 -42.45 132.55 -42.5 132.6 Q-44.15 133.4 -45.45 134.25 -52.7 138.75 -50.25 143.45 L-54.1 143.4 Q-56.65 141.1 -54.8 138.4 -53.85 136.95 -51.7 135.45 L-43.8 131.5 -29.55 122.15 -28.95 121.6 -26.05 118.55 -24.65 116.8 -23.85 115.7 -22.4 113.4 -21.75 104.0 -21.65 100.8 Q-21.3 89.5 -21.3 79.1 L-21.6 71.8 -23.85 71.8 Q-24.3 68.75 -27.0 65.1 -27.85 62.4 -26.85 60.1 L-23.65 67.55 M-22.65 66.45 L-26.0 57.65 -16.65 56.4 -23.25 59.1 -22.65 66.45 M-21.25 117.25 L-21.25 117.3 -21.2 117.25 -21.25 117.25" fill="#000000" fill-opacity="0.4" fill-rule="evenodd" stroke="none"/>
    <path d="M12.75 39.65 L20.3 50.8 19.35 56.45 22.5 54.55 Q27.0 57.75 28.3 62.3 26.8 63.2 25.55 64.3 27.65 67.25 28.05 70.2 L28.1 72.6 28.1 72.75 Q28.55 77.55 28.1 82.2 27.8 85.3 27.1 88.3 L24.7 83.25 Q22.7 78.45 21.7 73.4 L21.75 76.05 Q21.9 79.5 22.7 82.95 23.75 87.55 25.95 92.1 L26.0 92.15 26.0 92.2 28.3 120.2 31.6 124.5 31.55 125.3 Q33.15 126.0 34.85 127.3 L43.65 140.15 40.7 139.6 42.6 142.35 42.8 142.6 45.95 144.95 46.3 146.2 46.9 149.05 47.2 150.85 47.2 150.9 47.3 151.55 47.3 151.65 Q47.65 154.7 47.6 157.7 L45.7 158.35 41.35 159.25 36.0 159.4 Q30.1 158.0 25.65 155.8 L24.45 155.15 Q23.65 151.05 23.5 147.3 23.4 144.0 23.75 140.95 L17.4 132.85 18.85 130.3 18.45 128.2 Q17.9 123.65 20.4 119.9 L17.6 103.05 17.1 102.65 11.2 72.3 9.25 72.7 5.8 70.0 Q7.0 71.55 7.9 73.4 8.85 75.45 9.4 77.85 10.15 80.95 10.25 84.7 L10.1 90.1 10.0 90.1 7.1 85.55 Q4.35 80.45 2.45 73.85 3.5 80.1 5.45 85.65 7.1 90.3 9.3 94.5 5.5 90.7 3.45 85.6 L2.25 81.85 1.75 79.3 0.25 82.95 Q-2.9 90.15 -5.5 91.35 L-7.05 98.1 Q-9.15 108.15 -9.55 118.85 L-6.15 126.25 -5.8 126.45 -5.85 126.65 -6.9 128.95 Q-5.75 133.1 -6.3 137.3 L-6.85 139.95 -13.45 140.85 -16.9 139.6 -19.35 141.65 -24.15 142.15 -41.85 143.3 -48.95 143.45 -50.25 143.45 Q-52.7 138.75 -45.45 134.25 -44.15 133.4 -42.5 132.6 L-42.45 132.55 -42.45 132.6 -26.55 124.25 -19.7 117.6 -17.9 71.8 -21.6 71.8 -21.6 67.55 -23.65 67.55 -28.5 56.25 -27.4 42.1 -22.0 42.1 -14.8 54.7 -15.5 57.15 -11.55 56.05 -8.0 63.0 Q-6.25 61.95 -4.15 61.2 -1.8 65.95 -1.55 70.65 L-1.6 73.9 -0.95 70.85 Q-0.6 68.6 -0.65 66.55 L-1.65 66.15 -0.95 62.95 -1.6 60.45 -3.2 60.9 -6.4 54.35 Q-3.15 53.15 -1.0 51.95 L0.15 53.45 Q0.2 55.25 1.25 57.6 L3.05 57.75 Q0.7 61.55 0.05 66.8 L0.9 67.2 2.45 67.95 4.85 73.3 Q7.25 79.05 9.1 84.75 8.3 79.0 6.25 73.25 L4.7 69.25 5.8 70.0 Q5.55 66.0 7.65 62.9 L2.9 54.3 5.0 41.2 12.75 39.65 M23.2 66.7 L23.15 66.65 Q22.05 62.3 19.15 57.65 L17.65 66.45 16.55 66.7 Q18.25 68.75 18.5 70.8 L16.75 71.15 23.1 118.95 25.3 124.65 28.45 124.4 25.3 119.05 25.3 119.0 25.4 118.95 23.45 102.3 23.35 102.35 19.6 70.55 20.8 70.3 22.2 68.0 23.2 66.7 24.3 70.2 Q25.7 75.2 26.15 80.25 26.95 75.15 25.75 70.05 25.2 67.75 24.25 65.5 L23.2 66.7 M5.25 53.7 L17.85 52.05 11.3 41.85 14.55 50.15 5.25 53.7 M5.75 55.2 L11.25 66.2 9.05 57.05 17.7 53.6 5.75 55.2 M10.05 90.25 L12.85 99.55 Q15.55 109.7 16.8 119.9 L16.8 119.95 12.55 129.8 11.55 128.0 14.85 119.7 11.4 100.8 9.5 94.7 10.05 90.25 M28.55 145.05 L28.25 146.0 Q27.2 149.0 27.0 152.3 L27.0 152.5 26.9 154.35 35.85 157.7 29.2 153.35 28.55 145.05 M31.15 140.95 L21.85 126.65 Q20.25 128.0 18.85 130.3 L27.45 143.1 Q29.25 141.75 31.15 140.95 M28.45 124.4 L37.35 139.45 40.7 139.6 31.55 125.3 Q29.95 124.55 28.45 124.4 M45.35 151.4 Q45.1 148.55 44.35 145.75 40.6 143.65 34.7 143.9 L42.7 147.0 45.3 156.0 45.35 151.4 M-11.45 65.65 Q-13.4 67.5 -14.85 69.9 L-18.0 118.5 -25.65 125.05 -24.1 126.6 -24.1 126.55 -15.1 119.1 -11.35 82.6 -11.55 81.05 -11.75 77.5 -11.7 69.8 -11.45 65.65 M-10.3 69.75 L-10.35 69.75 Q-10.3 77.3 -9.65 81.9 -8.05 93.85 -2.8 85.85 -6.15 88.15 -8.15 82.45 -9.6 78.2 -10.3 69.75 M-23.25 59.1 L-16.65 56.4 -26.0 57.65 -22.65 66.45 -23.25 59.1 M-20.95 53.0 L-26.7 56.15 -16.35 55.1 -23.6 43.95 -20.95 53.0 M-29.55 122.15 L-43.8 131.5 -45.7 130.2 -31.65 121.05 Q-30.55 121.55 -29.55 122.15 M-24.1 126.6 L-41.3 133.6 -39.9 135.2 -21.9 129.55 -24.1 126.6" fill="#000000" fill-opacity="0.2" fill-rule="evenodd" stroke="none"/>
    <path d="M-21.25 117.25 L-21.2 117.25 -21.25 117.3 -21.25 117.25" fill="#cccccc" fill-rule="evenodd" stroke="none"/>
    <path d="M-17.35 50.2 Q-8.95 49.15 -5.15 46.5 -1.7 47.7 -1.0 51.95 -3.15 53.15 -6.4 54.35 L-11.55 56.05 -15.5 57.15 -14.8 54.7 -17.35 50.2" fill="url(#gradient0)" fill-rule="evenodd" stroke="none"/>
    <path d="M-27.4 42.1 L-22.0 42.1 -17.35 50.2 -14.8 54.7 -15.5 57.15 -18.55 67.55 -23.65 67.55 -26.85 60.1 -28.5 56.25 -27.4 42.1" fill="url(#gradient1)" fill-rule="evenodd" stroke="none"/>
    <path d="M3.65 49.65 L5.0 41.2 12.75 39.65 18.25 47.75 20.3 50.8 19.35 56.45 17.65 66.45 10.4 67.9 4.9 57.9 2.9 54.3 3.65 49.65" fill="url(#gradient2)" fill-rule="evenodd" stroke="none"/>
    <path d="M22.5 54.55 Q27.0 57.75 28.3 62.3 26.8 63.2 25.55 64.3 L24.25 65.5 23.2 66.7 22.2 68.0 20.8 70.3 9.25 72.7 5.8 70.0 4.7 69.25 2.45 67.95 0.9 67.2 0.05 66.8 -0.65 66.55 -1.65 66.15 -0.95 62.95 0.05 60.1 1.25 57.6 4.9 57.9 10.4 67.9 17.65 66.45 19.35 56.45 22.5 54.55" fill="url(#gradient3)" fill-rule="evenodd" stroke="none"/>
    <path d="M1.25 57.6 L0.05 60.1 -1.6 60.45 -3.2 60.9 -4.15 61.2 Q-6.25 61.95 -8.0 63.0 -9.9 64.1 -11.45 65.65 -13.4 67.5 -14.85 69.9 L-15.85 71.8 -21.6 71.8 -23.85 71.8 Q-24.3 68.75 -27.0 65.1 -27.85 62.4 -26.85 60.1 L-23.65 67.55 -18.55 67.55 -15.5 57.15 -11.55 56.05 -6.4 54.35 Q-3.15 53.15 -1.0 51.95 L0.15 53.45 Q0.2 55.25 1.25 57.6" fill="url(#gradient4)" fill-rule="evenodd" stroke="none"/>
    <path d="M18.25 47.75 L20.65 46.6 Q23.7 49.55 22.5 54.55 L19.35 56.45 20.3 50.8 18.25 47.75" fill="url(#gradient5)" fill-rule="evenodd" stroke="none"/>
    <path d="M0.15 53.45 Q0.05 51.2 1.35 49.65 L3.65 49.65 2.9 54.3 4.9 57.9 1.25 57.6 Q0.2 55.25 0.15 53.45" fill="url(#gradient6)" fill-rule="evenodd" stroke="none"/>
    <path d="M26.0 92.2 L26.45 97.85 28.1 117.9 25.4 118.95 25.3 119.0 23.3 119.5 20.4 119.9 17.6 103.05 10.45 97.75 17.6 103.05 20.4 119.9 16.8 119.9 14.85 119.7 11.5 101.4 11.4 100.8 10.45 97.75 9.5 94.7 10.05 90.25 10.1 90.1 10.25 84.7 Q10.15 80.95 9.4 77.85 8.85 75.45 7.9 73.4 7.0 71.55 5.8 70.0 L9.25 72.7 20.8 70.3 22.2 68.0 21.8 71.2 21.7 73.4 21.75 76.05 Q21.9 79.5 22.7 82.95 23.75 87.55 25.95 92.1 L26.0 92.2 M26.45 97.85 L23.45 102.3 25.4 118.95 23.45 102.3 26.45 97.85" fill="url(#gradient7)" fill-rule="evenodd" stroke="none"/>
    <path d="M1.75 79.3 L2.25 81.85 -2.5 91.65 -3.1 92.65 -3.95 95.7 -4.15 96.65 -5.1 100.8 -5.9 105.6 Q-6.6 110.5 -6.75 115.65 L-6.8 118.8 -9.4 119.15 Q-12.4 119.45 -15.1 119.1 L-18.0 118.5 -19.9 117.85 -21.2 117.25 -21.25 117.25 -23.85 115.7 -22.4 113.4 -21.75 104.0 -21.65 100.8 Q-21.3 89.5 -21.3 79.1 L-21.6 71.8 -15.85 71.8 -14.85 69.9 Q-13.4 67.5 -11.45 65.65 L-11.7 69.8 -11.75 77.5 -11.55 81.05 -11.35 82.6 Q-10.4 89.55 -7.45 91.35 -6.55 91.8 -5.5 91.35 -2.9 90.15 0.25 82.95 L1.75 79.3 M-4.15 96.65 L-14.35 101.8 -18.0 118.5 -14.35 101.8 -4.15 96.65" fill="url(#gradient8)" fill-rule="evenodd" stroke="none"/>
    <path d="M28.1 117.9 L28.3 120.2 31.6 124.5 31.55 125.3 Q29.95 124.55 28.45 124.4 L25.3 124.65 Q23.5 125.2 21.85 126.65 20.2 127.2 18.45 128.2 16.1 129.5 13.6 131.65 16.1 129.5 18.45 128.2 20.2 127.2 21.85 126.65 20.25 128.0 18.85 130.3 L17.4 132.85 21.3 137.8 26.2 144.05 27.45 143.1 Q29.25 141.75 31.15 140.95 34.1 139.6 37.35 139.45 L40.7 139.6 42.6 142.35 42.55 142.5 42.8 142.6 45.95 144.95 46.3 146.2 46.9 149.05 47.2 150.85 47.2 150.9 47.3 151.55 47.3 151.65 Q47.65 154.7 47.6 157.7 L45.7 158.35 41.35 159.25 36.0 159.4 Q30.1 158.0 25.65 155.8 L24.45 155.15 18.75 143.35 13.1 140.95 13.05 138.3 13.25 134.15 13.6 131.65 11.55 128.0 14.85 119.7 16.8 119.9 20.4 119.9 23.3 119.5 25.3 119.0 25.4 118.95 28.1 117.9 M13.05 138.3 L18.75 140.5 18.75 143.35 18.75 140.5 13.05 138.3 M18.75 140.5 L21.3 137.8 18.75 140.5 24.85 149.25 18.75 140.5 M42.55 142.5 Q36.35 139.25 28.6 145.7 L28.25 146.0 24.85 149.25 28.25 146.0 28.6 145.7 Q36.35 139.25 42.55 142.5 M24.85 149.25 L27.1 152.5 Q28.3 152.95 29.1 151.9 L29.65 150.8 Q38.7 152.35 44.05 151.65 L45.35 151.4 47.2 150.85 45.35 151.4 44.05 151.65 Q38.7 152.35 29.65 150.8 L29.1 151.9 Q28.3 152.95 27.1 152.5 L24.85 149.25" fill="url(#gradient9)" fill-rule="evenodd" stroke="none"/>
    <path d="M-23.85 115.7 L-21.25 117.25 -21.25 117.3 -21.2 117.25 -19.9 117.85 -18.0 118.5 -15.1 119.1 Q-12.4 119.45 -9.4 119.15 L-6.8 118.8 -4.4 122.1 -5.6 126.0 -5.8 126.4 -5.8 126.45 -6.15 126.25 Q-11.7 122.95 -17.3 120.95 L-19.85 120.1 -21.7 119.55 -23.25 119.15 -26.05 118.55 -23.25 119.15 -21.7 119.55 -19.85 120.1 -17.3 120.95 Q-11.7 122.95 -6.15 126.25 L-5.8 126.45 -5.85 126.65 -5.7 126.6 -4.1 131.8 -4.15 132.55 -4.25 134.2 -4.7 137.15 -16.9 138.25 -16.9 138.4 -29.65 139.15 -16.9 138.4 -16.9 139.6 -19.35 141.65 -24.15 142.15 -41.85 143.3 -48.95 143.45 -50.25 143.45 -54.1 143.4 Q-56.65 141.1 -54.8 138.4 -53.85 136.95 -51.7 135.45 L-47.4 133.3 -43.8 131.5 -42.45 132.55 -42.45 132.6 -41.3 133.6 -39.9 135.2 -39.1 136.5 -30.7 134.95 -20.2 133.0 -21.9 129.55 -24.1 126.6 -25.65 125.05 -26.55 124.25 -27.8 123.3 -29.55 122.15 -28.95 121.6 -26.05 118.55 -24.65 116.8 -23.85 115.7 M-28.95 121.6 Q-27.95 122.0 -27.0 122.6 L-25.65 123.4 -24.65 124.15 -23.0 125.65 Q-18.55 130.25 -16.9 138.25 -18.55 130.25 -23.0 125.65 L-24.65 124.15 -25.65 123.4 -27.0 122.6 Q-27.95 122.0 -28.95 121.6 M-29.65 139.15 Q-29.9 136.8 -30.7 134.95 -29.9 136.8 -29.65 139.15 L-42.4 139.9 Q-46.65 138.7 -44.45 134.75 L-47.4 133.3 -44.45 134.75 Q-46.65 138.7 -42.4 139.9 L-29.65 139.15 M-8.3 131.7 L-7.15 129.45 -6.9 128.95 -5.85 126.65 -6.9 128.95 -7.15 129.45 -8.3 131.7" fill="url(#gradient10)" fill-rule="evenodd" stroke="none"/>
    <path d="M31.55 125.3 Q33.15 126.0 34.85 127.3 L43.65 140.15 40.7 139.6 37.35 139.45 Q34.1 139.6 31.15 140.95 29.25 141.75 27.45 143.1 L26.2 144.05 21.3 137.8 17.4 132.85 18.85 130.3 Q20.25 128.0 21.85 126.65 23.5 125.2 25.3 124.65 L28.45 124.4 Q29.95 124.55 31.55 125.3" fill="url(#gradient11)" fill-rule="evenodd" stroke="none"/>
    <path d="M-43.8 131.5 L-45.7 130.2 -31.65 121.05 Q-30.55 121.55 -29.55 122.15 L-27.8 123.3 -26.55 124.25 -25.65 125.05 -24.1 126.6 -21.9 129.55 -20.2 133.0 -30.7 134.95 -39.1 136.5 -39.9 135.2 -41.3 133.6 -42.45 132.6 -42.45 132.55 -43.8 131.5" fill="url(#gradient12)" fill-rule="evenodd" stroke="none"/>
    <path d="M0.05 60.1 L-0.95 62.95 -1.65 66.15 -0.65 66.55 0.05 66.8 0.9 67.2 Q0.5 69.15 0.55 71.3 0.55 72.85 0.85 74.5 L1.45 77.15 1.75 79.3 0.25 82.95 Q-2.9 90.15 -5.5 91.35 -6.55 91.8 -7.45 91.35 -10.4 89.55 -11.35 82.6 L-11.55 81.05 -11.75 77.5 -11.7 69.8 -11.45 65.65 Q-9.9 64.1 -8.0 63.0 -6.25 61.95 -4.15 61.2 L-3.2 60.9 -1.6 60.45 0.05 60.1 M0.55 71.3 L-0.95 70.85 -1.55 70.65 Q-5.7 69.55 -10.3 69.75 L-10.35 69.75 -11.7 69.8 -10.35 69.75 -10.3 69.75 Q-5.7 69.55 -1.55 70.65 L-0.95 70.85 0.55 71.3 M0.25 82.95 Q-3.95 83.7 -8.15 82.45 L-9.65 81.9 -11.55 81.05 -9.65 81.9 -8.15 82.45 Q-3.95 83.7 0.25 82.95" fill="url(#gradient13)" fill-rule="evenodd" stroke="none"/>
    <path d="M25.55 64.3 Q27.65 67.25 28.05 70.2 L28.1 72.6 28.1 72.75 Q28.55 77.55 28.1 82.2 27.8 85.3 27.1 88.3 L26.0 92.05 25.95 92.1 Q23.75 87.55 22.7 82.95 21.9 79.5 21.75 76.05 L21.7 73.4 21.8 71.2 Q22.9 70.45 24.3 70.2 L25.75 70.05 28.05 70.2 25.75 70.05 24.3 70.2 Q22.9 70.45 21.8 71.2 L22.2 68.0 23.2 66.7 24.25 65.5 25.55 64.3 M28.1 82.2 Q26.55 83.25 24.7 83.25 L22.7 82.95 24.7 83.25 Q26.55 83.25 28.1 82.2" fill="url(#gradient14)" fill-rule="evenodd" stroke="none"/>
    <path d="M10.25 84.7 L7.1 85.55 5.45 85.65 3.45 85.6 2.25 81.85 1.75 79.3 1.45 77.15 0.85 74.5 Q0.55 72.85 0.55 71.3 0.5 69.15 0.9 67.2 L2.45 67.95 4.7 69.25 5.8 70.0 Q7.0 71.55 7.9 73.4 8.85 75.45 9.4 77.85 10.15 80.95 10.25 84.7 M7.9 73.4 L6.25 73.25 4.85 73.3 2.45 73.85 0.85 74.5 2.45 73.85 4.85 73.3 6.25 73.25 7.9 73.4" fill="url(#gradient15)" fill-rule="evenodd" stroke="none"/>
    <path d="M20.65 46.6 Q23.7 49.55 22.5 54.55 27.0 57.75 28.3 62.3 26.8 63.2 25.55 64.3 27.65 67.25 28.05 70.2 L28.1 72.6 28.1 72.75 Q28.55 77.55 28.1 82.2 27.8 85.3 27.1 88.3 L26.0 92.05 26.0 92.15 26.0 92.2 26.45 97.85 28.1 117.9 28.3 120.2 31.6 124.5 31.55 125.3 Q33.15 126.0 34.85 127.3 L43.65 140.15 40.7 139.6 42.6 142.35 42.8 142.6 45.95 144.95 46.3 146.2 46.9 149.05 47.2 150.85 M47.2 150.9 L47.3 151.55 47.3 151.65 Q47.65 154.7 47.6 157.7 L45.7 158.35 41.35 159.25 36.0 159.4 Q30.1 158.0 25.65 155.8 L24.45 155.15 18.75 143.35 13.1 140.95 13.05 138.3 13.25 134.15 13.6 131.65 11.55 128.0 14.85 119.7 11.5 101.4 9.5 94.85 9.35 94.5 9.35 94.55 9.5 94.7 10.45 97.75 11.4 100.8 11.5 101.4 M3.45 85.6 Q5.5 90.7 9.3 94.5 L9.35 94.5 M2.25 81.85 L3.45 85.6 M-21.6 71.8 L-21.3 79.1 Q-21.3 89.5 -21.65 100.8 L-21.75 104.0 -22.4 113.4 -23.85 115.7 -24.65 116.8 -26.05 118.55 -28.95 121.6 -29.55 122.15 Q-30.55 121.55 -31.65 121.05 L-45.7 130.2 -43.8 131.5 -47.4 133.3 -51.7 135.45 Q-53.85 136.95 -54.8 138.4 -56.65 141.1 -54.1 143.4 L-50.25 143.45 -48.95 143.45 -41.85 143.3 -24.15 142.15 -19.35 141.65 -16.9 139.6 -13.45 140.85 -5.3 139.7 -5.15 139.3 -4.7 137.15 -4.25 134.2 -4.15 132.55 -4.1 131.8 -5.7 126.6 -5.75 126.45 -5.8 126.4 -5.6 126.0 -4.4 122.1 -6.8 118.8 -6.75 115.65 Q-6.6 110.5 -5.9 105.6 L-5.1 100.8 -4.15 96.65 -3.95 95.7 -3.1 92.65 -2.5 91.65 2.25 81.85 M-5.15 46.5 Q-1.7 47.7 -1.0 51.95 M-26.85 60.1 Q-27.85 62.4 -27.0 65.1 -24.3 68.75 -23.85 71.8 L-21.6 71.8 M-26.85 60.1 L-28.5 56.25 -27.4 42.1" fill="none" stroke="#000000" stroke-linecap="round" stroke-linejoin="round" stroke-width="2.0"/>
    <path d="M10.25 84.7 L7.1 85.55 5.45 85.65 3.45 85.6 M22.7 82.95 L24.7 83.25 Q26.55 83.25 28.1 82.2 M21.8 71.2 Q22.9 70.45 24.3 70.2 L25.75 70.05 28.05 70.2 M0.85 74.5 L2.45 73.85 4.85 73.3 6.25 73.25 7.9 73.4 M-18.0 118.5 L-14.35 101.8 -4.15 96.65 M10.45 97.75 L17.6 103.05 20.4 119.9 M25.4 118.95 L23.45 102.3 26.45 97.85 M42.55 142.5 L42.8 142.6 M13.6 131.65 Q16.1 129.5 18.45 128.2 20.2 127.2 21.85 126.65 M21.3 137.8 L18.75 140.5 M24.85 149.25 L28.25 146.0 28.6 145.7 Q36.35 139.25 42.55 142.5 M-11.7 69.8 L-10.35 69.75 -10.3 69.75 Q-5.7 69.55 -1.55 70.65 L-0.95 70.85 0.55 71.3 M-11.55 81.05 L-9.65 81.9 -8.15 82.45 Q-3.95 83.7 0.25 82.95 M-26.05 118.55 L-23.25 119.15 -21.7 119.55 -19.85 120.1 -17.3 120.95 Q-11.7 122.95 -6.15 126.25 L-5.8 126.45 M-16.9 138.25 Q-18.55 130.25 -23.0 125.65 L-24.65 124.15 -25.65 123.4 -27.0 122.6 Q-27.95 122.0 -28.95 121.6 M-30.7 134.95 Q-29.9 136.8 -29.65 139.15" fill="none" stroke="#000000" stroke-linecap="round" stroke-linejoin="round" stroke-opacity="0.4" stroke-width="1.0"/>
    <path d="M3.65 49.65 L5.0 41.2 12.75 39.65 18.25 47.75 20.65 46.6 M47.2 150.85 L47.2 150.9 M9.5 94.7 L10.05 90.25 10.1 90.1 10.25 84.7 Q10.15 80.95 9.4 77.85 8.85 75.45 7.9 73.4 7.0 71.55 5.8 70.0 L9.25 72.7 20.8 70.3 22.2 68.0 23.2 66.7 24.25 65.5 25.55 64.3 M21.8 71.2 L21.7 73.4 21.75 76.05 Q21.9 79.5 22.7 82.95 23.75 87.55 25.95 92.1 L26.0 92.15 M22.2 68.0 L21.8 71.2 M1.25 57.6 L0.05 60.1 -0.95 62.95 -1.65 66.15 -0.65 66.55 0.05 66.8 0.9 67.2 2.45 67.95 4.7 69.25 5.8 70.0 M0.15 53.45 Q0.05 51.2 1.35 49.65 L3.65 49.65 2.9 54.3 4.9 57.9 10.4 67.9 17.65 66.45 19.35 56.45 20.3 50.8 18.25 47.75 M0.15 53.45 Q0.2 55.25 1.25 57.6 L4.9 57.9 M0.9 67.2 Q0.5 69.15 0.55 71.3 0.55 72.85 0.85 74.5 L1.45 77.15 1.75 79.3 2.25 81.85 M1.75 79.3 L0.25 82.95 Q-2.9 90.15 -5.5 91.35 -6.55 91.8 -7.45 91.35 -10.4 89.55 -11.35 82.6 L-11.55 81.05 -11.75 77.5 -11.7 69.8 -11.45 65.65 Q-13.4 67.5 -14.85 69.9 L-15.85 71.8 -21.6 71.8 M-23.85 115.7 L-21.25 117.25 -21.2 117.25 -19.9 117.85 -18.0 118.5 -15.1 119.1 Q-12.4 119.45 -9.4 119.15 L-6.8 118.8 M20.4 119.9 L23.3 119.5 25.3 119.0 25.4 118.95 28.1 117.9 M19.35 56.45 L22.5 54.55 M14.85 119.7 L16.8 119.9 20.4 119.9 M21.85 126.65 Q23.5 125.2 25.3 124.65 L28.45 124.4 Q29.95 124.55 31.55 125.3 M21.3 137.8 L17.4 132.85 18.85 130.3 Q20.25 128.0 21.85 126.65 M18.75 143.35 L18.75 140.5 13.05 138.3 M40.7 139.6 L37.35 139.45 Q34.1 139.6 31.15 140.95 29.25 141.75 27.45 143.1 L26.2 144.05 21.3 137.8 M18.75 140.5 L24.85 149.25 27.1 152.5 Q28.3 152.95 29.1 151.9 L29.65 150.8 Q38.7 152.35 44.05 151.65 L45.35 151.4 47.2 150.85 M-27.4 42.1 L-22.0 42.1 -17.35 50.2 Q-8.95 49.15 -5.15 46.5 M-1.0 51.95 L0.15 53.45 M-11.45 65.65 Q-9.9 64.1 -8.0 63.0 -6.25 61.95 -4.15 61.2 L-3.2 60.9 -1.6 60.45 0.05 60.1 M-15.5 57.15 L-11.55 56.05 -6.4 54.35 Q-3.15 53.15 -1.0 51.95 M-17.35 50.2 L-14.8 54.7 -15.5 57.15 -18.55 67.55 -23.65 67.55 -26.85 60.1 M-5.8 126.45 L-5.8 126.4 M-29.55 122.15 L-27.8 123.3 -26.55 124.25 -25.65 125.05 -24.1 126.6 -21.9 129.55 -20.2 133.0 -30.7 134.95 -39.1 136.5 -39.9 135.2 -41.3 133.6 -42.45 132.6 -42.45 132.55 -43.8 131.5 M-29.65 139.15 L-16.9 138.4 -16.9 138.25 -4.7 137.15 M-5.85 126.65 L-5.8 126.45 M-5.85 126.65 L-6.9 128.95 -7.15 129.45 -8.3 131.7 M-16.9 138.4 L-16.9 139.6 M-29.65 139.15 L-42.4 139.9 Q-46.65 138.7 -44.45 134.75 L-47.4 133.3" fill="none" stroke="#000000" stroke-linecap="round" stroke-linejoin="round" stroke-width="1.0"/>
  </g>
  <defs>
    <linearGradient gradientTransform="matrix(-0.0052, 0.0014, -0.0012, -0.0045, -9.35, 51.6)" gradientUnits="userSpaceOnUse" id="gradient0" spreadMethod="pad" x1="-819.2" x2="819.2">
      <stop offset="0.0" stop-color="#000000" stop-opacity="0.0"/>
      <stop offset="1.0" stop-color="#000000" stop-opacity="0.4"/>
    </linearGradient>
    <linearGradient gradientTransform="matrix(-0.0041, 0.0041, -0.0105, -0.0105, -22.5, 54.4)" gradientUnits="userSpaceOnUse" id="gradient1" spreadMethod="pad" x1="-819.2" x2="819.2">
      <stop offset="0.0" stop-color="#000000" stop-opacity="0.0"/>
      <stop offset="1.0" stop-color="#000000" stop-opacity="0.4"/>
    </linearGradient>
    <linearGradient gradientTransform="matrix(-0.0043, 0.0076, -0.0125, -0.0071, 11.45, 53.6)" gradientUnits="userSpaceOnUse" id="gradient2" spreadMethod="pad" x1="-819.2" x2="819.2">
      <stop offset="0.0" stop-color="#000000" stop-opacity="0.0"/>
      <stop offset="1.0" stop-color="#000000" stop-opacity="0.4"/>
    </linearGradient>
    <linearGradient gradientTransform="matrix(-0.0104, 0.0042, -0.0044, -0.0108, 13.5, 62.95)" gradientUnits="userSpaceOnUse" id="gradient3" spreadMethod="pad" x1="-819.2" x2="819.2">
      <stop offset="0.0" stop-color="#000000" stop-opacity="0.0"/>
      <stop offset="1.0" stop-color="#000000" stop-opacity="0.4"/>
    </linearGradient>
    <linearGradient gradientTransform="matrix(-0.0071, 0.0041, -0.0047, -0.0083, -13.45, 61.45)" gradientUnits="userSpaceOnUse" id="gradient4" spreadMethod="pad" x1="-819.2" x2="819.2">
      <stop offset="0.0" stop-color="#000000" stop-opacity="0.0"/>
      <stop offset="1.0" stop-color="#000000" stop-opacity="0.4"/>
    </linearGradient>
    <linearGradient gradientTransform="matrix(-0.0034, 0.0019, -0.0025, -0.0043, 20.15, 51.35)" gradientUnits="userSpaceOnUse" id="gradient5" spreadMethod="pad" x1="-819.2" x2="819.2">
      <stop offset="0.0" stop-color="#000000" stop-opacity="0.0"/>
      <stop offset="1.0" stop-color="#000000" stop-opacity="0.4"/>
    </linearGradient>
    <linearGradient gradientTransform="matrix(-9.0E-4, 9.0E-4, -0.0036, -0.0036, 3.15, 53.75)" gradientUnits="userSpaceOnUse" id="gradient6" spreadMethod="pad" x1="-819.2" x2="819.2">
      <stop offset="0.0" stop-color="#000000" stop-opacity="0.0"/>
      <stop offset="1.0" stop-color="#000000" stop-opacity="0.4"/>
    </linearGradient>
    <linearGradient gradientTransform="matrix(-0.0064, 0.0017, -0.0083, -0.0309, 18.7, 93.65)" gradientUnits="userSpaceOnUse" id="gradient7" spreadMethod="pad" x1="-819.2" x2="819.2">
      <stop offset="0.0" stop-color="#000000" stop-opacity="0.0"/>
      <stop offset="1.0" stop-color="#000000" stop-opacity="0.4"/>
    </linearGradient>
    <linearGradient gradientTransform="matrix(-0.007, 0.0, 0.0, -0.0323, -12.05, 92.1)" gradientUnits="userSpaceOnUse" id="gradient8" spreadMethod="pad" x1="-819.2" x2="819.2">
      <stop offset="0.0" stop-color="#000000" stop-opacity="0.0"/>
      <stop offset="1.0" stop-color="#000000" stop-opacity="0.4"/>
    </linearGradient>
    <linearGradient gradientTransform="matrix(-0.0079, 0.0104, -0.0081, -0.0062, 18.2, 129.05)" gradientUnits="userSpaceOnUse" id="gradient9" spreadMethod="pad" x1="-819.2" x2="819.2">
      <stop offset="0.0" stop-color="#000000" stop-opacity="0.0"/>
      <stop offset="1.0" stop-color="#000000" stop-opacity="0.4"/>
    </linearGradient>
    <linearGradient gradientTransform="matrix(-0.0243, 0.0109, -0.0043, -0.0096, -30.15, 127.95)" gradientUnits="userSpaceOnUse" id="gradient10" spreadMethod="pad" x1="-819.2" x2="819.2">
      <stop offset="0.0" stop-color="#000000" stop-opacity="0.0"/>
      <stop offset="1.0" stop-color="#000000" stop-opacity="0.4"/>
    </linearGradient>
    <linearGradient gradientTransform="matrix(-0.0064, 0.0037, -0.007, -0.0121, 29.5, 135.15)" gradientUnits="userSpaceOnUse" id="gradient11" spreadMethod="pad" x1="-819.2" x2="819.2">
      <stop offset="0.0" stop-color="#000000" stop-opacity="0.0"/>
      <stop offset="1.0" stop-color="#000000" stop-opacity="0.4"/>
    </linearGradient>
    <linearGradient gradientTransform="matrix(-0.0032, -0.0032, 0.0077, -0.0077, -32.7, 130.6)" gradientUnits="userSpaceOnUse" id="gradient12" spreadMethod="pad" x1="-819.2" x2="819.2">
      <stop offset="0.0" stop-color="#000000" stop-opacity="0.0"/>
      <stop offset="1.0" stop-color="#000000" stop-opacity="0.4"/>
    </linearGradient>
    <radialGradient cx="0" cy="0" gradientTransform="matrix(0.0262, 0.0, 0.0, 0.0262, -1.55, 70.65)" gradientUnits="userSpaceOnUse" id="gradient13" r="819.2" spreadMethod="pad">
      <stop offset="0.0" stop-color="#000000" stop-opacity="0.0"/>
      <stop offset="1.0" stop-color="#000000" stop-opacity="0.4"/>
    </radialGradient>
    <radialGradient cx="0" cy="0" gradientTransform="matrix(0.027, 0.0, 0.0, 0.027, 26.25, 70.05)" gradientUnits="userSpaceOnUse" id="gradient14" r="819.2" spreadMethod="pad">
      <stop offset="0.0" stop-color="#000000" stop-opacity="0.0"/>
      <stop offset="1.0" stop-color="#000000" stop-opacity="0.4"/>
    </radialGradient>
    <radialGradient cx="0" cy="0" gradientTransform="matrix(0.0261, 0.0, 0.0, 0.0261, 7.9, 73.4)" gradientUnits="userSpaceOnUse" id="gradient15" r="819.2" spreadMethod="pad">
      <stop offset="0.0" stop-color="#000000" stop-opacity="0.0"/>
      <stop offset="1.0" stop-color="#000000" stop-opacity="0.4"/>
    </radialGradient>
  </defs>
</svg>
