<?xml version="1.0" encoding="UTF-8" standalone="no"?>
<svg xmlns:xlink="http://www.w3.org/1999/xlink" height="75.2px" width="67.4px" xmlns="http://www.w3.org/2000/svg">
  <g transform="matrix(1.0, 0.0, 0.0, 1.0, 40.0, 109.2)">
    <path d="M-19.95 -72.65 L-20.45 -72.6 -20.45 -72.65 -19.95 -72.65 M2.65 -74.9 L2.7 -74.9 2.65 -74.75 2.65 -74.9" fill="#ffffff" fill-rule="evenodd" stroke="none"/>
    <path d="M-20.45 -72.6 L-22.85 -72.45 Q-32.85 -66.75 -32.1 -61.05 L-30.35 -59.25 -30.45 -55.95 -29.35 -52.35 -28.65 -51.9 -30.8 -35.6 -32.25 -36.4 -32.25 -52.45 -33.35 -56.95 Q-35.85 -58.5 -37.1 -60.95 L-35.95 -69.7 -37.35 -71.15 Q-38.6 -72.65 -39.5 -74.5 L-37.05 -73.75 -35.25 -73.5 Q-31.45 -73.2 -25.85 -74.3 -21.85 -75.75 -20.2 -79.0 L-20.15 -79.05 Q-18.8 -73.55 -7.2 -74.3 -2.3 -74.55 2.65 -74.15 L11.35 -73.0 Q20.75 -73.25 25.65 -79.4 25.6 -77.2 25.1 -75.35 L26.0 -70.25 Q20.45 -61.75 13.85 -59.8 12.55 -67.85 5.65 -69.9 -0.05 -70.35 -7.35 -71.9 L-19.95 -72.65 -20.45 -72.65 -20.45 -72.6" fill="#000000" fill-opacity="0.4" fill-rule="evenodd" stroke="none"/>
    <path d="M9.35 -53.55 L4.85 -44.8 Q3.95 -40.9 3.45 -36.0 L-8.6 -34.55 -9.0 -40.7 Q-13.5 -37.45 -18.0 -36.6 L-16.55 -34.0 -20.95 -34.0 -26.65 -34.45 Q-29.15 -34.85 -30.8 -35.6 L-28.65 -51.9 -29.35 -52.35 -30.45 -55.95 -30.35 -59.25 -32.1 -61.05 Q-32.85 -66.75 -22.85 -72.45 L-20.45 -72.6 -19.95 -72.65 -7.35 -71.9 Q-0.05 -70.35 5.65 -69.9 12.55 -67.85 13.85 -59.8 L9.35 -53.55 M-9.35 -52.5 Q-13.45 -49.9 -18.8 -49.9 -17.35 -42.2 -8.85 -43.0 -8.65 -47.75 -9.35 -52.5 M-20.45 -68.4 L-21.45 -64.45 Q-18.8 -55.7 -9.2 -54.5 L-8.8 -60.25 -8.9 -63.0 -12.25 -65.65 Q-16.35 -68.85 -20.45 -68.4 M-19.9 -95.75 L-17.95 -96.25 -24.4 -96.55 -24.3 -95.85 -24.15 -94.6 -19.9 -95.75 M2.65 -74.9 L2.65 -74.75 2.7 -74.9 2.65 -74.9 M11.35 -73.0 L2.65 -74.15 Q-2.3 -74.55 -7.2 -74.3 -18.8 -73.55 -20.15 -79.05 L-20.2 -79.0 Q-21.85 -75.75 -25.85 -74.3 -31.45 -73.2 -35.25 -73.5 L-37.05 -73.75 -39.5 -74.5 Q-37.5 -83.0 -33.85 -89.9 L-31.0 -97.1 -24.75 -100.2 -24.6 -98.35 -12.45 -97.4 1.1 -99.25 -1.2 -97.05 -1.25 -96.95 -4.65 -96.25 -6.4 -95.85 -7.1 -94.95 -11.5 -95.6 -15.4 -94.85 -23.85 -92.8 -23.1 -89.15 -17.8 -87.75 -17.2 -87.9 -11.05 -89.1 -12.1 -87.05 -14.45 -86.55 -12.6 -85.8 -13.15 -84.0 -17.5 -85.75 -18.4 -85.5 -21.75 -84.35 -20.1 -79.8 Q-16.5 -81.6 -13.2 -83.6 -13.95 -78.75 -8.6 -77.45 2.05 -78.5 11.85 -75.8 18.75 -75.2 25.65 -79.4 20.75 -73.25 11.35 -73.0" fill="#000000" fill-opacity="0.2" fill-rule="evenodd" stroke="none"/>
    <path d="M2.7 -74.9 L2.65 -74.75 2.65 -74.9 2.7 -74.9 M-19.95 -72.65 L-20.45 -72.6 -20.45 -72.65 -19.95 -72.65" fill="#ffffff" fill-rule="evenodd" stroke="none"/>
    <path d="M12.25 -108.2 L26.4 -103.2 M26.0 -70.25 Q20.45 -61.75 13.85 -59.8 L9.35 -53.55 9.35 -36.95 M-24.75 -100.2 L-31.0 -97.1" fill="none" stroke="#000000" stroke-linecap="round" stroke-linejoin="round" stroke-width="2.0"/>
    <path d="M25.65 -79.4 Q25.6 -77.2 25.1 -75.35 L26.0 -70.25 M25.1 -75.35 Q20.8 -70.3 12.15 -69.8 M9.15 -98.65 L22.5 -99.65 M-32.25 -36.4 L-32.25 -52.45 -33.35 -56.95 Q-35.85 -58.5 -37.1 -60.95 L-35.95 -69.7 -37.35 -71.15 Q-38.6 -72.65 -39.5 -74.5 -37.5 -83.0 -33.85 -89.9 M-20.45 -72.6 L-22.85 -72.45 -24.35 -72.3 M-30.35 -59.25 L-29.15 -61.1 -26.5 -64.5 Q-24.25 -67.45 -21.3 -68.2 L-20.75 -68.35 -20.45 -68.4 Q-16.35 -68.85 -12.25 -65.65 L-3.4 -58.65 M-20.45 -72.65 L-20.45 -72.6 -19.95 -72.65 -7.35 -71.9 M-28.6 -71.5 Q-32.3 -71.55 -35.95 -69.7" fill="none" stroke="#000000" stroke-linecap="round" stroke-linejoin="round" stroke-width="1.0"/>
    <path d="M-24.75 -100.2 L-24.6 -98.35 -12.45 -97.4 Q-3.45 -99.15 6.05 -99.55 9.55 -103.65 12.25 -108.2 M0.2 -93.5 L-4.4 -89.65 Q-11.15 -89.45 -17.2 -87.9 L-17.8 -87.75 -23.1 -89.15 -23.85 -92.8 -15.4 -94.85 -11.5 -95.6 Q-5.6 -94.85 0.2 -93.5 M-6.95 -87.7 L-10.85 -85.05 -14.45 -86.55 -6.95 -87.7 M-12.8 -83.85 Q-16.3 -81.7 -20.1 -79.8 L-21.75 -84.35 -18.4 -85.5 -17.5 -85.75 -12.8 -83.85 M-22.35 -86.3 L-22.6 -87.15 -21.05 -86.8 -22.35 -86.3 M-24.15 -94.6 L-24.3 -95.85 -24.4 -96.55 -17.95 -96.25 -19.9 -95.75 -24.15 -94.6 M4.1 -97.4 L1.65 -94.9 -4.65 -96.25 -6.0 -96.45 -0.55 -97.1 4.1 -97.4" fill="none" stroke="#000000" stroke-linecap="round" stroke-linejoin="round" stroke-width="1.0"/>
    <path d="M4.1 -97.4 L8.25 -97.5 Q9.05 -98.0 9.15 -98.65 L8.9 -99.65 6.05 -99.55 M1.65 -94.9 L4.4 -94.25 Q4.7 -93.25 3.0 -92.85 L0.2 -93.5 M-4.4 -89.65 L-1.3 -89.65 Q0.0 -88.7 -1.3 -87.8 -4.15 -87.95 -6.95 -87.7 M-10.85 -85.05 L-7.25 -83.25 Q-7.0 -81.75 -9.0 -81.75 L-12.8 -83.85 M-21.75 -84.35 L-25.6 -82.75 Q-27.1 -83.35 -26.3 -84.7 -24.4 -85.6 -22.35 -86.3 M-22.6 -87.15 L-26.85 -87.85 Q-27.7 -89.05 -27.15 -89.9 L-23.1 -89.15 M-23.85 -92.8 L-26.9 -92.0 Q-27.5 -92.8 -27.2 -93.65 L-24.15 -94.6 M-24.4 -96.55 L-26.65 -96.6 Q-27.15 -97.45 -26.55 -98.4 L-24.6 -98.35 M-6.0 -96.45 L-11.5 -95.6 M-17.8 -87.75 L-21.05 -86.8 M-12.45 -97.4 L-17.95 -96.25 M-17.5 -85.75 L-14.45 -86.55" fill="none" stroke="#000000" stroke-linecap="round" stroke-linejoin="round" stroke-width="0.5"/>
  </g>
</svg>
