<?xml version="1.0" encoding="UTF-8" standalone="no"?>
<svg xmlns:xlink="http://www.w3.org/1999/xlink" height="63.2px" width="129.4px" xmlns="http://www.w3.org/2000/svg">
  <g transform="matrix(1.0, 0.0, 0.0, 1.0, 63.2, 115.75)">
    <path d="M11.4 -98.9 L12.65 -100.1 14.7 -102.4 15.75 -103.9 17.15 -106.45 17.95 -109.05 65.2 -100.65 Q63.1 -98.75 60.85 -97.05 57.95 -94.9 54.8 -93.05 52.45 -91.7 49.95 -90.5 43.35 -87.35 35.7 -85.45 L30.5 -84.3 25.65 -83.55 19.65 -82.9 17.05 -82.75 11.85 -82.6 Q9.25 -82.3 8.9 -85.5 L8.2 -96.3 11.4 -98.9" fill="url(#gradient0)" fill-rule="evenodd" stroke="none"/>
    <path d="M-29.1 -98.05 L-28.2 -95.85 -27.3 -94.4 -32.35 -86.6 Q-33.7 -85.25 -35.9 -85.6 L-36.1 -85.65 -38.45 -85.85 -40.35 -86.05 -40.55 -86.1 -45.3 -86.85 -49.8 -87.9 -52.2 -88.6 Q-55.1 -89.55 -57.7 -90.75 -60.05 -91.85 -62.2 -93.15 L-29.0 -104.3 Q-29.6 -102.5 -29.55 -100.75 L-29.1 -98.05" fill="url(#gradient1)" fill-rule="evenodd" stroke="none"/>
    <path d="M11.4 -98.9 L8.2 -96.3 8.9 -85.5 Q9.25 -82.3 11.85 -82.6 L17.05 -82.75 19.65 -82.9 25.65 -83.55 25.65 -79.35 Q25.6 -77.15 25.1 -75.35 23.7 -73.75 21.9 -72.55 19.7 -71.2 16.95 -70.5 L12.15 -69.8 7.45 -69.7 2.65 -70.0 -1.55 -70.6 -7.35 -71.9 -7.8 -72.05 -19.95 -72.65 -20.45 -72.6 -20.45 -72.65 Q-20.7 -75.95 -20.2 -79.0 L-19.65 -81.9 Q-18.25 -87.15 -14.75 -91.6 -11.35 -95.0 -6.4 -95.85 L-1.25 -96.95 11.4 -98.9" fill="url(#gradient2)" fill-rule="evenodd" stroke="none"/>
    <path d="M-28.2 -95.85 L-19.95 -95.85 Q-13.25 -96.05 -14.75 -91.6 -18.25 -87.15 -19.65 -81.9 L-20.2 -79.0 Q-20.7 -75.95 -20.45 -72.65 L-20.45 -72.6 -22.85 -72.45 -24.35 -72.3 Q-32.3 -71.55 -35.95 -69.7 L-37.35 -71.15 Q-38.6 -72.65 -39.5 -74.5 -38.1 -80.45 -35.9 -85.6 -33.7 -85.25 -32.35 -86.6 L-27.3 -94.4 -28.2 -95.85" fill="url(#gradient3)" fill-rule="evenodd" stroke="none"/>
    <path d="M17.15 -106.45 L15.75 -103.9 14.7 -102.4 12.65 -100.1 11.4 -98.9 -1.25 -96.95 -6.4 -95.85 Q-11.35 -95.0 -14.75 -91.6 -13.25 -96.05 -19.95 -95.85 L-28.2 -95.85 -29.1 -98.05 -21.25 -102.1 -19.5 -109.5 -15.85 -108.05 Q-16.05 -106.75 -15.8 -105.55 L-15.8 -105.45 Q-15.45 -103.7 -14.15 -102.05 -11.9 -99.7 -9.65 -102.05 -7.5 -104.65 -7.7 -107.65 L10.55 -114.75 11.4 -110.85 13.95 -107.6 17.15 -106.45" fill="url(#gradient4)" fill-rule="evenodd" stroke="none"/>
    <path d="M25.1 -75.35 L26.0 -70.25 Q20.45 -61.75 13.85 -59.8 L9.35 -53.55 Q4.7 -54.35 -2.5 -57.4 L-5.8 -58.85 -8.8 -60.25 Q-10.95 -61.5 -13.0 -62.25 -21.65 -65.55 -28.75 -60.55 L-30.35 -59.25 -33.35 -56.95 Q-35.85 -58.5 -37.1 -60.95 -38.45 -65.05 -35.95 -69.7 -32.3 -71.55 -24.35 -72.3 L-22.85 -72.45 -20.45 -72.6 -19.95 -72.65 -7.8 -72.05 -7.35 -71.9 -1.55 -70.6 2.65 -70.0 7.45 -69.7 12.15 -69.8 16.95 -70.5 Q19.7 -71.2 21.9 -72.55 23.7 -73.75 25.1 -75.35" fill="url(#gradient5)" fill-rule="evenodd" stroke="none"/>
    <path d="M25.65 -83.55 L17.05 -82.75 11.85 -82.6 Q9.25 -82.3 8.9 -85.5 L8.7 -88.9 30.5 -84.3 25.65 -83.55 M-29.55 -100.75 Q-29.6 -102.5 -29.0 -104.3 -25.6 -104.9 -24.75 -100.2 L-21.25 -102.1 -19.5 -109.5 -15.85 -108.05 -18.8 -99.6 -26.45 -95.85 -28.2 -95.85 -29.1 -98.05 -29.55 -100.75 M7.45 -69.7 L2.65 -70.0 -1.55 -70.6 -7.35 -71.9 -7.8 -72.05 -19.95 -72.65 -20.45 -72.6 -22.85 -72.45 -24.35 -72.3 Q-34.8 -65.5 -30.35 -59.25 L-33.35 -56.95 Q-35.85 -58.5 -37.1 -60.95 -38.45 -65.05 -35.95 -69.7 L-37.35 -71.15 Q-38.6 -72.65 -39.5 -74.5 -24.35 -70.7 -19.65 -81.9 -18.8 -75.2 -7.95 -74.7 7.75 -74.05 16.95 -70.5 19.7 -71.2 21.9 -72.55 23.7 -73.75 25.1 -75.35 L26.0 -70.25 Q20.45 -61.75 13.85 -59.8 14.4 -64.75 7.45 -69.7 M-35.9 -85.6 L-36.1 -85.65 -40.35 -86.05 -40.55 -86.1 -45.3 -86.85 -29.85 -90.45 -32.35 -86.6 Q-33.7 -85.25 -35.9 -85.6" fill="#000000" fill-opacity="0.4" fill-rule="evenodd" stroke="none"/>
    <path d="M0.05 -110.65 L2.8 -103.9 11.4 -98.9 -1.25 -96.95 -6.4 -95.85 Q-11.35 -95.0 -14.75 -91.6 -13.25 -96.05 -19.95 -95.85 L-26.45 -95.85 -18.8 -99.6 -15.85 -108.05 Q-16.05 -106.75 -15.8 -105.55 L-15.8 -105.45 Q-15.45 -103.7 -14.15 -102.05 -11.9 -99.7 -9.65 -102.05 -7.5 -104.65 -7.7 -107.65 L0.05 -110.65 M13.95 -107.6 L17.15 -106.45 17.95 -109.05 65.2 -100.65 Q63.1 -98.75 60.85 -97.05 L15.75 -103.9 14.7 -102.4 6.8 -107.55 4.85 -112.55 10.55 -114.75 11.4 -110.85 13.95 -107.6 M11.4 -98.9 L12.65 -100.1 54.8 -93.05 Q52.45 -91.7 49.95 -90.5 41.15 -86.3 30.5 -84.3 L8.7 -88.9 8.2 -96.3 11.4 -98.9 M11.85 -82.6 L17.05 -82.75 Q22.95 -77.95 21.9 -72.55 19.7 -71.2 16.95 -70.5 7.75 -74.05 -7.95 -74.7 -18.8 -75.2 -19.65 -81.9 -18.25 -87.15 -14.75 -91.6 L-3.85 -93.65 Q-16.6 -85.5 8.9 -85.5 9.25 -82.3 11.85 -82.6 M9.35 -53.55 Q4.7 -54.35 -2.5 -57.4 L2.65 -70.0 7.45 -69.7 Q14.4 -64.75 13.85 -59.8 L9.35 -53.55 M-29.55 -100.75 L-57.7 -90.75 Q-60.05 -91.85 -62.2 -93.15 L-29.0 -104.3 Q-29.6 -102.5 -29.55 -100.75 M-22.85 -72.45 L-20.45 -72.6 -19.95 -72.65 -7.8 -72.05 -7.35 -71.9 -1.55 -70.6 -5.8 -58.85 -8.8 -60.25 Q-21.0 -67.35 -30.35 -59.25 -34.8 -65.5 -24.35 -72.3 L-22.85 -72.45 M-19.65 -81.95 L-19.65 -81.9 Q-24.35 -70.7 -39.5 -74.5 -38.1 -80.45 -35.9 -85.6 -33.7 -85.25 -32.35 -86.6 L-29.85 -90.45 -45.3 -86.85 -52.2 -88.6 -29.1 -98.05 -28.2 -95.85 -27.3 -94.4 -28.55 -92.45 Q-29.55 -88.05 -19.45 -91.0 L-19.65 -81.95" fill="#000000" fill-opacity="0.2" fill-rule="evenodd" stroke="none"/>
    <path d="M11.2 -111.8 L10.55 -114.75 7.8 -113.65 M-15.8 -105.45 L-15.8 -105.55 Q-16.05 -106.75 -15.85 -108.05 L-19.5 -109.5 -20.3 -106.2 -21.25 -102.1 -24.75 -100.2 Q-25.6 -104.9 -29.0 -104.3 L-40.6 -100.4 -51.4 -96.75 -62.2 -93.15 Q-60.05 -91.85 -57.7 -90.75 -55.1 -89.55 -52.2 -88.6 L-49.8 -87.9 -45.3 -86.85 -40.55 -86.1 -40.35 -86.05 M11.2 -111.8 L11.4 -110.85 13.95 -107.6 17.15 -106.45 17.95 -109.05 30.2 -106.9 45.7 -104.1 65.2 -100.65 Q63.1 -98.75 60.85 -97.05 57.95 -94.9 54.8 -93.05 52.45 -91.7 49.95 -90.5 M26.0 -70.25 Q20.45 -61.75 13.85 -59.8 L9.35 -53.55" fill="none" stroke="#000000" stroke-linecap="round" stroke-linejoin="round" stroke-width="2.0"/>
    <path d="M7.8 -113.65 L-7.7 -107.65 Q-7.5 -104.65 -9.65 -102.05 -11.9 -99.7 -14.15 -102.05 -15.45 -103.7 -15.8 -105.45 M49.95 -90.5 Q43.35 -87.35 35.7 -85.45 L30.5 -84.3 25.65 -83.55 25.65 -79.35 Q25.6 -77.15 25.1 -75.35 L26.0 -70.25 M9.35 -53.55 Q4.7 -54.35 -2.5 -57.4 L-5.8 -58.85 -8.8 -60.25 Q-10.95 -61.5 -13.0 -62.25 -21.65 -65.55 -28.75 -60.55 L-30.35 -59.25 -33.35 -56.95 Q-35.85 -58.5 -37.1 -60.95 -38.45 -65.05 -35.95 -69.7 L-37.35 -71.15 Q-38.6 -72.65 -39.5 -74.5 -38.1 -80.45 -35.9 -85.6 L-36.1 -85.65 -38.45 -85.85 -40.35 -86.05 M-24.75 -100.2 Q-26.95 -99.15 -29.1 -98.05 L-28.2 -95.85 -19.95 -95.85 Q-13.25 -96.05 -14.75 -91.6 -11.35 -95.0 -6.4 -95.85 L-1.25 -96.95 11.4 -98.9 12.65 -100.1 14.7 -102.4 15.75 -103.9 17.15 -106.45 M25.65 -83.55 L19.65 -82.9 17.05 -82.75 11.85 -82.6 Q9.25 -82.3 8.9 -85.5 L8.2 -96.3 11.4 -98.9 M-14.75 -91.6 Q-18.25 -87.15 -19.65 -81.9 L-20.2 -79.0 Q-20.7 -75.95 -20.45 -72.65 L-20.45 -72.6 -19.95 -72.65 -7.8 -72.05 -7.35 -71.9 -1.55 -70.6 2.65 -70.0 7.45 -69.7 12.15 -69.8 16.95 -70.5 Q19.7 -71.2 21.9 -72.55 23.7 -73.75 25.1 -75.35 M-29.0 -104.3 Q-29.6 -102.5 -29.55 -100.75 L-29.1 -98.05 M-28.2 -95.85 L-27.3 -94.4 -32.35 -86.6 Q-33.7 -85.25 -35.9 -85.6 M-20.45 -72.6 L-22.85 -72.45 -24.35 -72.3 Q-32.3 -71.55 -35.95 -69.7" fill="none" stroke="#000000" stroke-linecap="round" stroke-linejoin="round" stroke-width="1.0"/>
    <path d="M-20.3 -106.2 L-17.85 -105.4 Q-17.75 -102.95 -16.35 -100.75 -14.75 -97.85 -10.85 -98.5 -5.25 -99.25 -4.9 -105.95 L11.2 -111.8 M13.85 -92.45 Q13.2 -91.8 12.25 -91.8 11.3 -91.8 10.65 -92.45 10.0 -93.1 10.0 -94.05 10.0 -95.0 10.65 -95.65 11.3 -96.3 12.25 -96.3 13.2 -96.3 13.85 -95.65 14.5 -95.0 14.5 -94.05 14.5 -93.1 13.85 -92.45 M19.65 -82.9 Q21.65 -97.95 30.2 -106.9 M35.7 -85.45 Q39.8 -97.65 45.7 -104.1 M-29.6 -93.7 Q-29.8 -93.1 -30.35 -92.65 -30.9 -92.2 -31.5 -92.2 -32.1 -92.2 -32.45 -92.65 -32.8 -93.1 -32.6 -93.7 L-31.85 -94.75 Q-31.3 -95.2 -30.7 -95.2 -30.1 -95.2 -29.75 -94.75 -29.45 -94.3 -29.6 -93.7 M-28.75 -60.55 L-25.45 -66.7 Q-20.6 -67.85 -16.9 -66.9 L-13.0 -62.25 M-51.4 -96.75 Q-49.9 -92.35 -49.8 -87.9 M-40.6 -100.4 Q-38.6 -93.35 -38.45 -85.85" fill="none" stroke="#000000" stroke-linecap="round" stroke-linejoin="round" stroke-opacity="0.5019608" stroke-width="0.5"/>
  </g>
  <defs>
    <linearGradient gradientTransform="matrix(0.009, -0.0124, 0.0216, 0.0156, 29.15, -88.1)" gradientUnits="userSpaceOnUse" id="gradient0" spreadMethod="pad" x1="-819.2" x2="819.2">
      <stop offset="0.0" stop-color="#000000" stop-opacity="0.4"/>
      <stop offset="1.0" stop-color="#000000" stop-opacity="0.0"/>
    </linearGradient>
    <linearGradient gradientTransform="matrix(0.0, -0.0078, 0.0213, 0.0, -44.75, -92.9)" gradientUnits="userSpaceOnUse" id="gradient1" spreadMethod="pad" x1="-819.2" x2="819.2">
      <stop offset="0.0" stop-color="#000000" stop-opacity="0.4"/>
      <stop offset="1.0" stop-color="#000000" stop-opacity="0.0"/>
    </linearGradient>
    <radialGradient cx="0" cy="0" gradientTransform="matrix(0.0374, 0.0, 0.0, 0.0374, 3.45, -91.15)" gradientUnits="userSpaceOnUse" id="gradient2" r="819.2" spreadMethod="pad">
      <stop offset="0.0" stop-color="#000000" stop-opacity="0.0"/>
      <stop offset="1.0" stop-color="#000000" stop-opacity="0.4"/>
    </radialGradient>
    <radialGradient cx="0" cy="0" gradientTransform="matrix(0.0308, 0.0, 0.0, 0.0308, -21.3, -90.0)" gradientUnits="userSpaceOnUse" id="gradient3" r="819.2" spreadMethod="pad">
      <stop offset="0.0" stop-color="#000000" stop-opacity="0.0"/>
      <stop offset="1.0" stop-color="#000000" stop-opacity="0.4"/>
    </radialGradient>
    <radialGradient cx="0" cy="0" gradientTransform="matrix(0.0439, 0.0, 0.0, 0.0439, 6.25, -104.8)" gradientUnits="userSpaceOnUse" id="gradient4" r="819.2" spreadMethod="pad">
      <stop offset="0.0" stop-color="#000000" stop-opacity="0.0"/>
      <stop offset="1.0" stop-color="#000000" stop-opacity="0.4"/>
    </radialGradient>
    <radialGradient cx="0" cy="0" gradientTransform="matrix(0.0425, 0.0, 0.0, 0.0425, -8.1, -65.95)" gradientUnits="userSpaceOnUse" id="gradient5" r="819.2" spreadMethod="pad">
      <stop offset="0.0" stop-color="#000000" stop-opacity="0.0"/>
      <stop offset="1.0" stop-color="#000000" stop-opacity="0.4"/>
    </radialGradient>
  </defs>
</svg>
