<?xml version="1.0" encoding="UTF-8" standalone="no"?>
<svg xmlns:xlink="http://www.w3.org/1999/xlink" height="24.15px" width="25.45px" xmlns="http://www.w3.org/2000/svg">
  <g transform="matrix(1.0, 0.0, 0.0, 1.0, 28.35, 96.55)">
    <path d="M-9.2 -94.45 L-8.85 -94.8 -7.35 -93.85 -5.9 -92.55 Q-4.05 -90.6 -3.3 -88.1 -2.8 -86.3 -2.9 -84.2 -3.15 -80.35 -5.45 -77.4 L-6.85 -75.85 Q-10.25 -72.65 -14.75 -72.4 L-15.4 -72.4 Q-17.75 -72.4 -19.75 -73.2 L-20.9 -73.5 Q-23.25 -74.3 -25.05 -76.1 L-25.35 -76.4 -26.2 -77.4 -26.75 -78.2 -27.55 -79.7 Q-28.5 -82.0 -28.3 -84.75 -28.2 -87.25 -27.15 -89.4 -26.15 -91.4 -24.4 -93.1 -22.75 -94.65 -20.85 -95.5 L-18.8 -96.2 -15.85 -96.55 -15.45 -96.55 Q-13.3 -96.5 -11.5 -95.75 L-9.2 -94.45 M-23.5 -86.2 L-23.55 -86.2 -23.5 -86.15 -23.5 -86.2" fill="#ffcc99" fill-rule="evenodd" stroke="none"/>
  </g>
</svg>
