<?xml version="1.0" encoding="UTF-8" standalone="no"?>
<svg xmlns:xlink="http://www.w3.org/1999/xlink" height="73.25px" width="96.1px" xmlns="http://www.w3.org/2000/svg">
  <g transform="matrix(1.0, 0.0, 0.0, 1.0, 44.95, 106.35)">
    <path d="M-33.85 -89.85 Q-37.05 -83.8 -39.0 -76.5 L-41.0 -80.95 Q-38.6 -86.1 -33.85 -89.85 M25.1 -75.35 L26.0 -70.25 21.7 -62.1 15.5 -57.2 Q11.8 -68.4 5.75 -69.75 L-7.35 -71.9 -19.95 -72.65 -20.45 -72.6 -22.85 -72.45 -24.35 -72.3 Q-31.5 -67.25 -32.2 -61.15 L-30.6 -59.35 -28.65 -52.35 -30.95 -35.5 -32.25 -36.4 -33.9 -41.4 -32.25 -45.9 -33.7 -50.9 -33.35 -56.95 Q-35.85 -58.5 -37.1 -60.95 L-35.95 -69.7 -37.35 -71.15 Q-38.6 -72.65 -39.5 -74.5 -25.65 -71.55 -20.3 -78.35 -17.5 -73.9 -9.65 -74.15 1.55 -74.85 10.8 -72.7 17.5 -72.2 25.5 -79.2 L25.1 -75.35" fill="#000000" fill-opacity="0.4" fill-rule="evenodd" stroke="none"/>
    <path d="M50.15 -101.15 Q49.7 -98.25 48.25 -95.35 L46.3 -99.25 Q48.15 -100.3 50.15 -101.15 M27.8 -76.55 Q26.75 -73.55 26.0 -70.25 L25.1 -75.35 25.5 -79.2 Q17.5 -72.2 10.8 -72.7 1.55 -74.85 -9.65 -74.15 -17.5 -73.9 -20.3 -78.35 -25.65 -71.55 -39.5 -74.5 L-39.0 -76.5 Q-37.05 -83.8 -33.85 -89.85 -38.6 -86.1 -41.0 -80.95 L-41.95 -83.5 Q-43.65 -88.75 -43.95 -94.0 L-22.6 -101.25 Q-27.8 -96.2 -29.65 -91.15 -30.35 -87.15 -19.8 -87.5 L-11.8 -87.85 Q-13.3 -85.0 -13.2 -81.6 -12.55 -78.1 -8.65 -77.35 1.75 -77.85 11.85 -75.65 18.85 -74.85 25.5 -79.2 L27.8 -76.55 M5.75 -69.75 Q11.8 -68.4 15.5 -57.2 L5.2 -45.0 3.45 -35.9 Q-23.55 -31.5 -30.95 -35.5 L-28.65 -52.35 -30.6 -59.35 -32.2 -61.15 Q-31.5 -67.25 -24.35 -72.3 L-22.85 -72.45 -20.45 -72.6 -19.95 -72.65 -7.35 -71.9 5.75 -69.75" fill="#000000" fill-opacity="0.2" fill-rule="evenodd" stroke="none"/>
    <path d="M26.0 -70.25 Q26.75 -73.55 27.8 -76.55 33.2 -92.0 46.3 -99.25 48.15 -100.3 50.15 -101.15 M20.3 -105.35 L9.2 -92.5 Q6.5 -89.4 -1.4 -88.6 L-11.8 -87.85 -19.8 -87.5 Q-30.35 -87.15 -29.65 -91.15 -27.8 -96.2 -22.6 -101.25 M-41.95 -83.5 L-41.0 -80.95 -39.0 -76.5 Q-37.05 -83.8 -33.85 -89.85 M25.1 -75.35 Q20.8 -70.3 12.15 -69.8 M-28.6 -71.5 Q-32.3 -71.55 -35.95 -69.7 L-37.1 -60.95 Q-35.85 -58.5 -33.35 -56.95 L-33.7 -50.9 -32.25 -45.9 -33.9 -41.4 -32.25 -36.4 -30.95 -35.5 Q-23.55 -31.5 3.45 -35.9 L9.35 -36.95 M46.3 -99.25 L48.25 -95.35 M-35.95 -69.7 L-37.35 -71.15 Q-38.6 -72.65 -39.5 -74.5 L-39.0 -76.5 M-24.35 -72.3 L-22.85 -72.45 -20.45 -72.6 -19.95 -72.65 -7.35 -71.9" fill="none" stroke="#000000" stroke-linecap="round" stroke-linejoin="round" stroke-width="1.0"/>
    <path d="M50.15 -101.15 L20.3 -105.35 M-22.6 -101.25 L-43.95 -94.0 Q-43.65 -88.75 -41.95 -83.5 M9.35 -36.95 L11.0 -40.0 9.35 -42.55 11.65 -48.6 11.65 -52.95 15.5 -57.2 21.7 -62.1 26.0 -70.25 M48.25 -95.35 Q49.7 -98.25 50.15 -101.15" fill="none" stroke="#000000" stroke-linecap="round" stroke-linejoin="round" stroke-width="2.0"/>
  </g>
</svg>
