<?xml version="1.0" encoding="UTF-8" standalone="no"?>
<svg xmlns:xlink="http://www.w3.org/1999/xlink" height="27.85px" width="90.15px" xmlns="http://www.w3.org/2000/svg">
  <g transform="matrix(1.0, 0.0, 0.0, 1.0, 43.8, 114.4)">
    <path d="M20.05 -113.4 L19.75 -105.0 22.75 -109.9 24.55 -112.85 Q28.3 -112.75 31.8 -111.05 L28.25 -105.3 32.8 -108.95 34.8 -110.55 Q41.85 -109.65 45.35 -105.8 39.95 -101.65 34.7 -98.45 29.45 -95.25 19.4 -92.3 L16.15 -91.8 14.95 -91.6 14.0 -91.45 12.6 -91.2 12.6 -91.25 12.55 -91.2 10.15 -90.8 Q7.75 -97.1 6.55 -103.25 L6.25 -104.95 11.45 -108.35 11.8 -110.35 Q15.5 -112.9 20.05 -113.4 M11.1 -106.35 L11.45 -108.35 11.1 -106.35 M13.3 -97.2 L12.6 -91.25 13.3 -97.2 M20.8 -99.3 Q17.25 -95.9 16.15 -91.8 17.25 -95.9 20.8 -99.3 M15.25 -96.75 L14.0 -91.45 15.25 -96.75 M-33.5 -105.5 L-33.65 -107.9 Q-31.8 -110.1 -28.5 -111.15 -25.25 -112.2 -25.25 -107.3 -25.1 -103.6 -25.4 -100.2 -26.0 -93.05 -28.55 -87.05 L-31.6 -88.25 -33.1 -88.85 -37.95 -91.55 -42.8 -94.25 Q-42.6 -95.5 -41.95 -96.55 L-40.8 -98.0 -42.15 -99.8 Q-40.3 -103.8 -36.45 -106.55 -35.75 -100.9 -32.9 -96.05 L-33.5 -105.5 M-31.85 -95.2 L-31.6 -88.25 -31.85 -95.2 M-35.95 -94.45 L-33.1 -88.85 -35.95 -94.45 M-37.55 -93.55 L-40.8 -98.0 -37.55 -93.55" fill="#ffffff" fill-rule="evenodd" stroke="none"/>
    <path d="M22.75 -109.9 L19.75 -105.0 20.05 -113.4 Q22.15 -111.8 22.75 -109.9 M32.8 -108.95 L28.25 -105.3 31.8 -111.05 32.8 -108.95 M-36.45 -106.55 L-33.5 -105.5 -32.9 -96.05 Q-35.75 -100.9 -36.45 -106.55" fill="#cccccc" fill-rule="evenodd" stroke="none"/>
    <path d="M22.75 -109.9 L19.75 -105.0 20.05 -113.4 M11.45 -108.35 L11.1 -106.35 M12.55 -91.2 L10.15 -90.8 Q7.75 -97.1 6.55 -103.25 L6.25 -104.95 11.45 -108.35 M32.8 -108.95 L28.25 -105.3 31.8 -111.05 M45.35 -105.8 Q39.95 -101.65 34.7 -98.45 29.45 -95.25 19.4 -92.3 L16.15 -91.8 14.95 -91.6 14.0 -91.45 12.6 -91.2 12.55 -91.2 M-28.55 -87.05 L-31.6 -88.25 -33.1 -88.85 -37.95 -91.55 M-36.45 -106.55 Q-35.75 -100.9 -32.9 -96.05 L-33.5 -105.5 M-40.8 -98.0 L-37.55 -93.55" fill="none" stroke="#000000" stroke-linecap="round" stroke-linejoin="round" stroke-width="1.0"/>
    <path d="M20.05 -113.4 Q15.5 -112.9 11.8 -110.35 L11.45 -108.35 M31.8 -111.05 Q28.3 -112.75 24.55 -112.85 L22.75 -109.9 Q22.15 -111.8 20.05 -113.4 M31.8 -111.05 L32.8 -108.95 34.8 -110.55 Q41.85 -109.65 45.35 -105.8 M-36.45 -106.55 L-33.5 -105.5 -33.65 -107.9 Q-31.8 -110.1 -28.5 -111.15 -25.25 -112.2 -25.25 -107.3 -25.1 -103.6 -25.4 -100.2 M-37.95 -91.55 L-42.8 -94.25 Q-42.6 -95.5 -41.95 -96.55 L-40.8 -98.0 -42.15 -99.8 Q-40.3 -103.8 -36.45 -106.55" fill="none" stroke="#000000" stroke-linecap="round" stroke-linejoin="round" stroke-width="2.0"/>
    <path d="M12.55 -91.2 L12.6 -91.25 13.3 -97.2 M14.0 -91.45 L15.25 -96.75 M16.15 -91.8 Q17.25 -95.9 20.8 -99.3 M-33.1 -88.85 L-35.95 -94.45 M-31.6 -88.25 L-31.85 -95.2" fill="none" stroke="#000000" stroke-linecap="round" stroke-linejoin="round" stroke-width="0.5"/>
    <path d="M-25.4 -100.2 Q-26.0 -93.05 -28.55 -87.05" fill="none" stroke="#000000" stroke-linecap="round" stroke-linejoin="round" stroke-width="1.0"/>
  </g>
</svg>
