<?xml version="1.0" encoding="UTF-8" standalone="no"?>
<svg xmlns:xlink="http://www.w3.org/1999/xlink" height="90.7px" width="148.45px" xmlns="http://www.w3.org/2000/svg">
  <g transform="matrix(1.0, 0.0, 0.0, 1.0, 79.95, 28.55)">
    <path d="M47.85 -13.15 Q45.6 -12.0 46.0 -8.1 48.4 -7.8 49.7 -8.05 L45.25 -5.7 45.0 -5.7 44.95 -6.0 44.35 -8.35 43.7 -10.35 44.65 -14.3 Q45.5 -14.9 46.8 -15.25 L47.0 -14.7 47.15 -14.5 Q47.45 -13.75 47.85 -13.15 M23.1 0.1 L23.65 6.0 Q20.15 5.6 19.1 8.4 L16.8 4.0 Q18.25 2.0 20.75 2.25 21.75 0.7 23.1 0.1" fill="#000000" fill-opacity="0.4" fill-rule="evenodd" stroke="none"/>
    <path d="M58.55 -23.95 Q55.9 -24.95 53.75 -22.35 52.05 -19.65 50.5 -15.65 53.45 -17.05 56.45 -19.65 59.05 -22.9 62.95 -23.15 60.75 -21.05 63.7 -20.4 L64.65 -20.25 67.5 -20.1 64.75 -19.5 64.0 -19.3 Q61.25 -18.4 58.65 -16.55 L56.7 -14.9 61.75 -15.5 62.5 -12.9 Q56.65 -11.9 51.05 -8.75 L54.2 -3.9 Q52.75 -1.3 49.65 -1.65 L49.15 -0.85 Q47.75 0.85 45.4 1.1 45.6 -2.35 45.0 -5.7 L45.25 -5.7 49.7 -8.05 Q48.4 -7.8 46.0 -8.1 45.6 -12.0 47.85 -13.15 47.45 -13.75 47.15 -14.5 L47.0 -14.7 46.8 -15.25 Q47.0 -16.65 47.55 -18.15 48.6 -20.95 50.95 -24.15 53.75 -28.05 59.75 -27.45 58.85 -25.05 62.0 -24.35 60.35 -23.25 58.55 -23.95 M19.1 8.4 Q20.15 5.6 23.65 6.0 L23.95 8.85 25.5 11.45 Q23.85 12.8 21.3 12.85 L19.1 8.4 Q-2.9 20.15 -25.1 30.3 L-23.45 33.2 -29.15 35.85 -30.9 32.9 -41.5 37.6 -39.85 40.8 -46.0 43.6 -47.6 40.15 -57.85 44.35 -56.1 48.25 -61.15 50.5 -63.15 46.45 -75.4 51.1 Q-77.5 46.8 -78.95 40.8 L-78.55 40.65 -65.75 36.45 -65.9 35.5 -64.9 34.9 -65.0 34.5 Q-65.1 33.8 -64.6 33.25 -64.1 32.7 -63.35 32.6 -62.65 32.5 -62.05 32.95 L-61.45 33.65 -60.15 33.4 -58.95 34.1 -49.9 30.9 -50.05 29.5 -48.8 28.8 -49.2 28.1 Q-49.25 27.45 -48.7 26.95 -48.25 26.5 -47.45 26.45 L-46.15 26.65 Q-45.7 26.9 -45.55 27.4 L-44.55 27.05 -43.5 26.75 Q-42.7 27.05 -41.85 28.0 L-33.35 24.8 -33.5 22.8 -32.35 22.3 -32.9 21.25 Q-33.0 20.5 -32.5 19.85 -32.05 19.3 -31.35 19.2 -30.6 19.1 -29.95 19.55 -29.4 20.05 -29.3 20.8 L-29.3 21.05 -27.3 20.2 -25.85 21.9 Q-4.55 13.55 16.8 4.0 L19.1 8.4 M-36.85 44.85 L-34.95 43.75 Q-34.3 45.15 -34.55 46.9 L-35.5 47.5 Q-34.35 48.6 -35.75 50.0 -37.45 50.9 -38.8 49.0 L-41.4 49.75 -42.75 48.3 -44.0 46.7 -37.75 43.8 -36.85 44.85 M-24.05 39.9 L-25.15 40.3 -26.55 38.95 -26.9 38.6 -21.35 36.0 -19.5 35.0 Q-18.75 36.25 -18.75 38.0 L-20.3 38.55 Q-19.6 39.8 -21.15 41.0 -23.0 41.5 -24.05 39.9 M-50.2 55.35 L-51.25 56.15 Q-50.25 57.2 -51.6 58.6 -53.4 59.35 -54.7 57.95 L-55.9 58.25 -57.15 56.7 -59.1 53.9 -54.15 51.5 -52.4 53.9 -50.5 52.7 Q-49.9 53.85 -50.2 55.35" fill="#000000" fill-opacity="0.2" fill-rule="evenodd" stroke="none"/>
    <path d="M-21.35 36.0 L-26.9 38.6 -29.15 35.85 -23.45 33.2 -21.35 36.0 M-37.75 43.8 L-44.0 46.7 -46.0 43.6 -39.85 40.8 -37.75 43.8 M-54.15 51.5 L-59.1 53.9 -61.15 50.5 -56.1 48.25 -54.15 51.5" fill="#ffffff" fill-opacity="0.4" fill-rule="evenodd" stroke="none"/>
    <path d="M-72.45 51.15 L-73.15 51.45 -73.9 50.65 -72.0 50.0 -72.45 51.15 M-60.15 33.4 L-58.95 34.1 -60.05 34.5 -60.1 34.5 -60.15 33.4" fill="#ffffff" fill-rule="evenodd" stroke="none"/>
    <path d="M-50.5 52.7 Q-49.9 53.85 -50.2 55.35 L-51.25 56.15 Q-52.95 57.35 -54.7 57.95 L-55.9 58.25 -57.15 56.7 -59.1 53.9 -61.15 50.5 -63.15 46.45 Q-65.3 41.45 -65.75 36.45 L-65.9 35.5 -64.9 34.9 -64.25 35.4 -63.05 35.4 -62.55 35.35 -62.15 35.2 -61.8 35.05 Q-61.3 34.7 -61.4 34.05 L-61.45 33.65 -60.15 33.4 -60.1 34.5 -60.05 34.5 Q-59.7 39.35 -58.05 43.85 L-57.85 44.35 -56.1 48.25 -54.15 51.5 -52.4 53.9 -50.5 52.7 M-62.35 45.65 L-62.3 46.0 -62.3 46.1 -61.65 46.9 Q-61.0 47.4 -60.2 47.3 L-59.0 46.6 Q-58.5 45.95 -58.55 45.2 L-58.7 44.65 -58.95 44.3 -59.25 43.95 Q-59.9 43.4 -60.65 43.5 -61.45 43.6 -62.0 44.25 -62.5 44.85 -62.35 45.65 M-51.3 55.1 L-52.4 53.9 -51.3 55.1" fill="url(#gradient0)" fill-rule="evenodd" stroke="none"/>
    <path d="M-34.95 43.75 Q-34.3 45.15 -34.55 46.9 L-35.5 47.5 Q-37.15 48.4 -38.8 49.0 L-41.4 49.75 -42.75 48.3 -44.0 46.7 -46.0 43.6 -47.6 40.15 -48.15 38.8 Q-49.4 35.15 -49.9 30.9 L-50.05 29.5 -48.8 28.8 -48.4 29.1 -47.35 29.0 Q-46.7 28.7 -46.05 28.5 -45.4 28.25 -45.45 27.65 L-45.55 27.4 -44.55 27.05 -44.1 28.8 Q-43.4 32.55 -42.2 35.8 L-41.5 37.6 -39.85 40.8 -37.75 43.8 -36.85 44.85 -34.95 43.75 M-35.95 45.8 L-36.85 44.85 -35.95 45.8 M-44.8 37.1 L-44.9 37.1 Q-45.65 37.15 -46.1 37.75 L-46.15 37.8 Q-46.75 38.5 -46.65 39.35 L-46.55 39.75 -45.8 40.65 Q-45.2 41.15 -44.4 41.1 -43.55 41.0 -43.0 40.35 -42.5 39.7 -42.6 38.85 L-42.85 38.15 Q-43.0 37.75 -43.3 37.5 -44.0 37.0 -44.8 37.1" fill="url(#gradient1)" fill-rule="evenodd" stroke="none"/>
    <path d="M-29.3 21.05 L-28.15 20.6 -27.6 22.6 -26.25 27.7 -25.1 30.3 -23.45 33.2 -21.35 36.0 -19.5 35.0 Q-18.75 36.25 -18.75 38.0 L-20.3 38.55 -24.05 39.9 -25.15 40.3 -26.55 38.95 -26.9 38.6 -29.15 35.85 -30.9 32.9 -31.95 30.55 Q-32.95 27.85 -33.35 24.8 L-33.5 22.8 -32.35 22.3 -32.05 22.45 -31.15 22.45 -29.9 22.0 Q-29.35 21.65 -29.3 21.05 M-20.1 37.45 L-21.35 36.0 -20.1 37.45 M-29.6 29.35 L-29.95 29.7 Q-30.45 30.3 -30.4 31.1 L-29.7 32.35 -29.6 32.4 Q-29.0 32.85 -28.2 32.8 -27.45 32.7 -26.95 32.1 -26.6 31.6 -26.55 30.95 L-26.55 30.65 Q-26.65 29.9 -27.25 29.4 -27.9 28.9 -28.65 29.0 L-28.95 29.05 -29.6 29.35" fill="url(#gradient2)" fill-rule="evenodd" stroke="none"/>
    <path d="M46.8 -15.25 L47.0 -14.7 47.15 -14.5 Q48.8 -14.9 50.5 -15.65 M44.35 -8.35 L45.45 -8.15 45.85 -8.1 46.0 -8.1 Q48.4 -7.8 49.7 -8.05 M51.05 -8.75 L51.05 -8.8 Q51.5 -9.5 50.8 -10.75 49.45 -11.0 48.4 -12.35 L47.85 -13.15 Q47.45 -13.75 47.15 -14.5 M44.95 -6.0 L49.65 -1.65 M51.05 -8.75 L54.2 -3.9 M48.4 -12.35 Q52.8 -12.15 56.7 -14.9 M23.65 6.0 L20.75 2.25 M16.8 4.0 L21.3 12.85 M-29.3 21.05 L-28.15 20.6 -27.6 22.6 -26.25 27.7 -25.1 30.3 -23.45 33.2 -21.35 36.0 -20.1 37.45 M-29.3 21.05 Q-29.35 21.65 -29.9 22.0 L-31.15 22.45 -32.05 22.45 -32.35 22.3 M-33.35 24.8 Q-32.95 27.85 -31.95 30.55 L-30.9 32.9 -29.15 35.85 -26.9 38.6 -26.55 38.95 M-24.05 39.9 L-20.3 38.55 M-19.5 35.0 L-21.35 36.0 M-25.85 21.9 L-27.6 22.6 M-29.6 29.35 L-28.95 29.05 -28.65 29.0 Q-27.9 28.9 -27.25 29.4 -26.65 29.9 -26.55 30.65 L-26.55 30.95 Q-26.6 31.6 -26.95 32.1 -27.45 32.7 -28.2 32.8 -29.0 32.85 -29.6 32.4 L-29.7 32.35 -30.4 31.1 Q-30.45 30.3 -29.95 29.7 L-29.6 29.35 M-34.95 43.75 L-36.85 44.85 -35.95 45.8 M-38.8 49.0 Q-37.15 48.4 -35.5 47.5 M-72.45 51.15 L-73.15 51.45 M-61.45 33.65 L-60.15 33.4 -60.1 34.5 -60.05 34.5 Q-59.7 39.35 -58.05 43.85 L-57.85 44.35 -56.1 48.25 -54.15 51.5 -52.4 53.9 -50.5 52.7 M-45.55 27.4 L-44.55 27.05 -44.1 28.8 Q-43.4 32.55 -42.2 35.8 L-41.5 37.6 -39.85 40.8 -37.75 43.8 -36.85 44.85 M-64.9 34.9 L-64.25 35.4 -63.05 35.4 -62.55 35.35 -62.15 35.2 -61.8 35.05 Q-61.3 34.7 -61.4 34.05 L-61.45 33.65 M-62.35 45.65 Q-62.5 44.85 -62.0 44.25 -61.45 43.6 -60.65 43.5 -59.9 43.4 -59.25 43.95 L-58.95 44.3 -58.7 44.65 -58.55 45.2 Q-58.5 45.95 -59.0 46.6 L-60.2 47.3 Q-61.0 47.4 -61.65 46.9 L-62.3 46.1 -62.3 46.0 -62.35 45.65 M-65.75 36.45 Q-65.3 41.45 -63.15 46.45 L-61.15 50.5 -59.1 53.9 -57.15 56.7 M-48.8 28.8 L-48.4 29.1 -47.35 29.0 Q-46.7 28.7 -46.05 28.5 -45.4 28.25 -45.45 27.65 L-45.55 27.4 M-44.1 28.8 L-41.85 28.0 M-44.8 37.1 Q-44.0 37.0 -43.3 37.5 -43.0 37.75 -42.85 38.15 L-42.6 38.85 Q-42.5 39.7 -43.0 40.35 -43.55 41.0 -44.4 41.1 -45.2 41.15 -45.8 40.65 L-46.55 39.75 -46.65 39.35 Q-46.75 38.5 -46.15 37.8 L-46.1 37.75 Q-45.65 37.15 -44.9 37.1 L-44.8 37.1 M-58.95 34.1 L-60.05 34.5 M-42.75 48.3 L-44.0 46.7 -46.0 43.6 -47.6 40.15 -48.15 38.8 Q-49.4 35.15 -49.9 30.9 M-54.7 57.95 Q-52.95 57.35 -51.25 56.15 M-52.4 53.9 L-51.3 55.1 M-73.9 50.65 L-72.0 50.0 -72.45 51.15" fill="none" stroke="#000000" stroke-linecap="round" stroke-linejoin="round" stroke-width="1.0"/>
    <path d="M50.5 -15.65 Q52.05 -19.65 53.75 -22.35 55.9 -24.95 58.55 -23.95 60.35 -23.25 62.0 -24.35 58.85 -25.05 59.75 -27.45 53.75 -28.05 50.95 -24.15 48.6 -20.95 47.55 -18.15 47.0 -16.65 46.8 -15.25 45.5 -14.9 44.65 -14.3 L43.7 -10.35 44.35 -8.35 44.95 -6.0 45.0 -5.7 Q45.6 -2.35 45.4 1.1 L45.3 2.3 M50.5 -15.65 Q53.45 -17.05 56.45 -19.65 59.05 -22.9 62.95 -23.15 60.75 -21.05 63.7 -20.4 L64.65 -20.25 67.5 -20.1 64.75 -19.5 64.0 -19.3 Q61.25 -18.4 58.65 -16.55 L56.7 -14.9 61.75 -15.5 62.5 -12.9 63.45 -6.85 Q57.65 -6.45 54.35 -4.1 L54.2 -3.9 Q52.75 -1.3 49.65 -1.65 L49.15 -0.85 Q47.75 0.85 45.4 1.1 M20.75 2.25 Q18.25 2.0 16.8 4.0 -4.55 13.55 -25.85 21.9 L-27.3 20.2 -28.15 20.6 M21.3 12.85 Q23.85 12.8 25.5 11.45 M23.1 0.1 Q21.75 0.7 20.75 2.25 M-32.35 22.3 L-32.9 21.25 Q-33.0 20.5 -32.5 19.85 -32.05 19.3 -31.35 19.2 -30.6 19.1 -29.95 19.55 -29.4 20.05 -29.3 20.8 L-29.3 21.05 M-32.35 22.3 L-33.5 22.8 -33.35 24.8 -41.85 28.0 Q-42.7 27.05 -43.5 26.75 L-44.55 27.05 M-26.55 38.95 L-25.15 40.3 -24.05 39.9 Q-23.0 41.5 -21.15 41.0 -19.6 39.8 -20.3 38.55 L-18.75 38.0 Q-18.75 36.25 -19.5 35.0 0.65 23.65 21.3 12.85 M-35.5 47.5 L-34.55 46.9 Q-34.3 45.15 -34.95 43.75 -30.75 41.3 -26.55 38.95 M-35.5 47.5 Q-34.35 48.6 -35.75 50.0 -37.45 50.9 -38.8 49.0 L-41.4 49.75 -42.75 48.3 -50.5 52.7 Q-49.9 53.85 -50.2 55.35 L-51.25 56.15 Q-50.25 57.2 -51.6 58.6 -53.4 59.35 -54.7 57.95 L-55.9 58.25 -57.15 56.7 -64.55 61.15 Q-69.9 59.85 -73.65 54.15 L-72.45 51.15 M-73.9 50.65 L-75.4 51.1 Q-77.5 46.8 -78.95 40.8 L-78.55 40.65 -65.75 36.45 -65.9 35.5 -64.9 34.9 -65.0 34.5 Q-65.1 33.8 -64.6 33.25 -64.1 32.7 -63.35 32.6 -62.65 32.5 -62.05 32.95 L-61.45 33.65 M-60.15 33.4 L-58.95 34.1 -49.9 30.9 -50.05 29.5 -48.8 28.8 -49.2 28.1 Q-49.25 27.45 -48.7 26.95 -48.25 26.5 -47.45 26.45 L-46.15 26.65 Q-45.7 26.9 -45.55 27.4" fill="none" stroke="#000000" stroke-linecap="round" stroke-linejoin="round" stroke-width="2.0"/>
    <path d="M49.7 -8.05 Q50.65 -8.25 51.05 -8.75 M25.5 11.45 L23.95 8.85 23.65 6.0 23.1 0.1" fill="none" stroke="#000000" stroke-linecap="round" stroke-linejoin="round" stroke-width="1.0"/>
  </g>
  <defs>
    <linearGradient gradientTransform="matrix(0.0045, 0.0112, -0.0053, 0.0022, -57.9, 46.7)" gradientUnits="userSpaceOnUse" id="gradient0" spreadMethod="pad" x1="-819.2" x2="819.2">
      <stop offset="0.0" stop-color="#000000" stop-opacity="0.0"/>
      <stop offset="1.0" stop-color="#000000" stop-opacity="0.4"/>
    </linearGradient>
    <linearGradient gradientTransform="matrix(0.0037, 0.0091, -0.0059, 0.0024, -42.55, 38.75)" gradientUnits="userSpaceOnUse" id="gradient1" spreadMethod="pad" x1="-819.2" x2="819.2">
      <stop offset="0.0" stop-color="#000000" stop-opacity="0.0"/>
      <stop offset="1.0" stop-color="#000000" stop-opacity="0.4"/>
    </linearGradient>
    <linearGradient gradientTransform="matrix(0.0043, 0.0076, -0.0047, 0.0027, -27.15, 30.5)" gradientUnits="userSpaceOnUse" id="gradient2" spreadMethod="pad" x1="-819.2" x2="819.2">
      <stop offset="0.0" stop-color="#000000" stop-opacity="0.0"/>
      <stop offset="1.0" stop-color="#000000" stop-opacity="0.4"/>
    </linearGradient>
  </defs>
</svg>
