<?xml version="1.0" encoding="UTF-8" standalone="no"?>
<svg xmlns:xlink="http://www.w3.org/1999/xlink" height="92.3px" width="184.75px" xmlns="http://www.w3.org/2000/svg">
  <g transform="matrix(1.0, 0.0, 0.0, 1.0, 70.4, 60.8)">
    <path d="M56.05 -1.35 Q53.95 -2.05 53.05 -3.3 66.2 -9.0 71.0 -15.75 81.35 -31.15 92.85 -43.45 L92.85 -43.5 Q96.75 -47.9 101.45 -50.85 95.5 -45.1 92.25 -36.55 93.05 -39.9 93.05 -41.95 83.6 -29.4 75.4 -16.05 67.7 -5.5 56.05 -1.35 M11.4 20.4 Q15.45 17.6 18.55 12.05 L22.4 8.6 23.35 10.55 20.25 13.05 19.45 13.9 Q15.95 19.35 9.85 23.45 L11.4 20.45 11.4 20.4 11.4 20.45 Q0.9 27.05 -12.15 26.6 L-43.35 24.6 Q-41.75 25.85 -38.65 27.25 -51.8 23.25 -63.65 27.9 L-63.95 26.25 Q-55.9 22.95 -44.3 23.65 L-44.3 23.7 Q-32.1 21.25 -17.7 23.05 -4.55 26.2 11.8 17.2 12.05 18.6 11.4 20.4" fill="#000000" fill-opacity="0.4" fill-rule="evenodd" stroke="none"/>
    <path d="M23.25 1.55 L23.25 1.6 23.6 5.25 22.15 5.25 20.6 3.85 Q21.25 1.95 23.2 1.6 L23.25 1.55 M23.25 1.6 L23.2 1.6 23.25 1.6" fill="#000000" fill-rule="evenodd" stroke="none"/>
    <path d="M23.6 5.25 L23.8 7.3 22.15 5.25 23.6 5.25" fill="#333333" fill-rule="evenodd" stroke="none"/>
    <path d="M23.8 7.3 L23.95 8.85 24.85 10.3 Q24.6 11.25 23.35 10.55 L20.25 13.05 19.45 13.9 Q15.95 19.35 9.85 23.45 L11.4 20.45 11.4 20.4 Q12.05 18.6 11.8 17.2 11.45 15.25 9.3 14.15 7.75 13.35 5.2 12.95 9.25 13.05 13.1 11.15 L13.3 10.95 16.95 7.3 18.9 5.4 Q17.9 3.4 20.6 3.85 L22.15 5.25 23.8 7.3" fill="url(#gradient0)" fill-rule="evenodd" stroke="none"/>
    <path d="M45.05 -5.35 L47.4 -5.65 47.7 -5.75 Q51.5 -7.6 54.0 -10.85 52.7 -8.6 52.4 -6.85 52.0 -4.7 53.05 -3.3 53.95 -2.05 56.05 -1.35 L59.4 -0.7 Q54.75 0.8 50.35 1.05 L45.95 0.95 45.4 1.0 45.45 0.05 Q45.5 -2.65 45.05 -5.35" fill="url(#gradient1)" fill-rule="evenodd" stroke="none"/>
    <path d="M90.3 -45.2 Q96.45 -52.0 103.2 -58.35 104.95 -58.3 106.2 -57.7 107.45 -57.1 108.1 -55.9 105.9 -54.6 103.95 -53.0 L101.45 -50.85 Q95.5 -45.1 92.25 -36.55 93.05 -39.9 93.05 -41.95 L92.85 -43.45 92.85 -43.5 Q92.3 -45.4 90.3 -45.2" fill="url(#gradient2)" fill-rule="evenodd" stroke="none"/>
    <path d="M-43.35 24.6 Q-41.75 25.85 -38.65 27.25 -51.8 23.25 -63.65 27.9 L-63.95 26.25 -63.85 25.25 Q-63.6 23.95 -62.55 22.5 L-44.25 20.45 Q-45.75 21.95 -44.3 23.65 L-44.3 23.7 -43.35 24.6" fill="url(#gradient3)" fill-rule="evenodd" stroke="none"/>
    <path d="M103.2 -58.35 L48.95 -31.9 M56.05 -1.35 Q53.95 -2.05 53.05 -3.3 52.0 -4.7 52.4 -6.85 M106.2 -57.7 Q104.95 -58.3 103.2 -58.35 M93.05 -41.95 L92.85 -43.45 92.85 -43.5 Q92.3 -45.4 90.3 -45.2 M-62.55 22.5 L28.5 -21.9 M23.25 1.55 L23.2 1.6 23.25 1.6 M20.6 3.85 L22.15 5.25 23.6 5.25 M23.2 1.6 Q21.25 1.95 20.6 3.85 M9.3 14.15 Q11.45 15.25 11.8 17.2 12.05 18.6 11.4 20.4 L11.4 20.45 M23.8 7.3 L22.15 5.25 M-44.25 20.45 Q-45.75 21.95 -44.3 23.65 L-44.3 23.7 -43.35 24.6 M-62.55 22.5 Q-63.6 23.95 -63.85 25.25" fill="none" stroke="#000000" stroke-linecap="round" stroke-linejoin="round" stroke-width="1.0"/>
    <path d="M45.4 1.0 L45.45 0.05 Q45.5 -2.65 45.05 -5.35" fill="none" stroke="#000000" stroke-linecap="round" stroke-linejoin="round" stroke-width="2.0"/>
    <path d="M23.25 1.55 L23.25 1.6 23.6 5.25 23.8 7.3 23.95 8.85 24.85 10.3" fill="none" stroke="#000000" stroke-linecap="round" stroke-linejoin="round" stroke-width="1.0"/>
    <path d="M45.05 -5.35 L47.4 -5.65 47.7 -5.75 Q51.5 -7.6 54.0 -10.85 52.7 -8.6 52.4 -6.85 62.65 -10.0 69.55 -18.4 78.85 -32.55 90.3 -45.2 96.45 -52.0 103.2 -58.35 L105.5 -59.45 112.45 -59.8 Q114.45 -58.0 112.05 -57.75 108.5 -58.4 106.2 -57.7 107.45 -57.1 108.1 -55.9 105.9 -54.6 103.95 -53.0 L101.45 -50.85 Q95.5 -45.1 92.25 -36.55 93.05 -39.9 93.05 -41.95 83.6 -29.4 75.4 -16.05 67.7 -5.5 56.05 -1.35 L59.4 -0.7 Q54.75 0.8 50.35 1.05 L45.95 0.95 45.4 1.0 M24.85 10.3 Q24.6 11.25 23.35 10.55 L20.25 13.05 19.45 13.9 Q15.95 19.35 9.85 23.45 L11.4 20.45 Q0.9 27.05 -12.15 26.6 L-43.35 24.6 Q-41.75 25.85 -38.65 27.25 -51.8 23.25 -63.65 27.9 L-63.95 26.25 -63.85 25.25 Q-65.85 26.65 -67.55 29.85 -69.25 31.55 -69.4 28.9 -68.75 26.95 -64.85 23.6 L-62.55 22.5 -44.25 20.45 Q-27.2 19.2 -10.35 20.6 0.5 20.35 9.3 14.15 7.75 13.35 5.2 12.95 9.25 13.05 13.1 11.15 L13.3 10.95 16.95 7.3 18.9 5.4 Q17.9 3.4 20.6 3.85" fill="none" stroke="#000000" stroke-linecap="round" stroke-linejoin="round" stroke-width="2.0"/>
  </g>
  <defs>
    <linearGradient gradientTransform="matrix(0.0019, 0.0019, -0.0093, 0.0093, 15.7, 14.1)" gradientUnits="userSpaceOnUse" id="gradient0" spreadMethod="pad" x1="-819.2" x2="819.2">
      <stop offset="0.0" stop-color="#000000" stop-opacity="0.0"/>
      <stop offset="1.0" stop-color="#000000" stop-opacity="0.4"/>
    </linearGradient>
    <linearGradient gradientTransform="matrix(0.0019, 0.0019, -0.0062, 0.0062, 51.05, -3.65)" gradientUnits="userSpaceOnUse" id="gradient1" spreadMethod="pad" x1="-819.2" x2="819.2">
      <stop offset="0.0" stop-color="#000000" stop-opacity="0.0"/>
      <stop offset="1.0" stop-color="#000000" stop-opacity="0.4"/>
    </linearGradient>
    <linearGradient gradientTransform="matrix(9.0E-4, 9.0E-4, -0.0108, 0.0108, 97.25, -49.35)" gradientUnits="userSpaceOnUse" id="gradient2" spreadMethod="pad" x1="-819.2" x2="819.2">
      <stop offset="0.0" stop-color="#000000" stop-opacity="0.0"/>
      <stop offset="1.0" stop-color="#000000" stop-opacity="0.4"/>
    </linearGradient>
    <linearGradient gradientTransform="matrix(4.0E-4, 0.0017, -0.0144, 0.0037, -52.3, 23.15)" gradientUnits="userSpaceOnUse" id="gradient3" spreadMethod="pad" x1="-819.2" x2="819.2">
      <stop offset="0.0" stop-color="#000000" stop-opacity="0.0"/>
      <stop offset="1.0" stop-color="#000000" stop-opacity="0.4"/>
    </linearGradient>
  </defs>
</svg>
