<?xml version="1.0" encoding="UTF-8" standalone="no"?>
<svg xmlns:xlink="http://www.w3.org/1999/xlink" height="135.1px" width="104.55px" xmlns="http://www.w3.org/2000/svg">
  <g transform="matrix(1.0, 0.0, 0.0, 1.0, 61.6, 38.05)">
    <path d="M14.55 9.7 Q13.45 8.95 12.3 8.6 L11.45 7.95 14.3 0.1 Q15.45 -0.15 15.9 -2.0 15.4 -6.75 13.25 -6.45 11.25 -6.15 12.25 -0.4 L10.05 4.2 7.15 4.4 Q13.7 -14.0 19.4 -32.5 20.6 -36.15 23.3 -37.05 23.85 -31.4 27.0 -26.35 L27.8 -24.3 21.5 -8.55 21.4 -8.3 17.6 1.6 14.55 9.7 M1.9 35.6 L4.85 35.15 -8.3 72.15 -6.4 72.8 Q-5.75 73.8 -5.55 74.55 -5.0 76.45 -7.1 76.9 L-9.85 76.65 -15.85 90.75 -18.15 90.25 -12.25 75.15 -13.4 73.65 -14.9 74.35 -20.3 89.45 -21.95 88.55 -21.55 91.75 Q-24.15 89.4 -23.8 87.6 L-22.7 84.05 Q-32.95 80.95 -39.95 75.4 -50.75 66.95 -56.6 67.0 -60.7 67.7 -60.55 70.2 -61.7 69.4 -61.6 68.05 -60.3 65.9 -57.95 65.4 L-53.85 65.5 Q-51.95 65.9 -49.6 66.9 L-48.95 67.25 -48.55 67.4 Q-43.4 70.0 -38.5 74.55 -31.35 79.9 -22.0 81.95 L-21.75 81.15 Q-20.85 79.75 -19.2 80.1 L-17.45 74.8 Q-20.15 74.75 -22.75 72.95 L-23.3 71.65 Q-23.5 70.45 -22.25 69.9 -17.4 70.05 -14.05 65.9 L-3.2 34.35 Q-1.7 35.15 -0.1 35.45 L-12.3 68.6 Q-11.9 69.7 -10.9 70.6 L1.9 35.6 M-1.4 86.7 Q7.75 87.05 17.0 84.45 23.1 81.1 29.4 80.55 L36.6 80.8 37.0 80.9 40.05 81.65 Q43.25 82.9 42.9 85.3 42.4 86.0 41.1 86.05 L41.05 86.05 Q42.7 84.05 35.9 81.95 27.8 80.75 20.5 84.55 14.55 87.5 8.65 87.95 L-7.25 87.45 -6.25 86.3 -3.45 86.6 -1.4 86.7" fill="#996600" fill-rule="evenodd" stroke="none"/>
    <path d="M27.8 -24.3 Q29.85 -18.4 29.1 -12.5 25.8 -6.4 23.15 0.75 L23.95 8.85 25.9 12.15 24.15 12.85 Q25.3 15.25 23.45 15.65 L20.6 15.5 18.45 18.3 Q18.2 14.95 16.7 11.6 L14.55 9.7 17.6 1.6 21.4 -8.3 21.5 -8.55 27.8 -24.3 M4.85 35.15 Q9.05 33.95 13.85 29.65 L15.9 27.4 Q14.35 31.1 14.55 35.0 14.7 37.7 15.95 40.95 12.3 53.55 6.85 63.85 2.95 67.8 3.75 74.5 L-6.4 72.8 -8.3 72.15 4.85 35.15 M-5.55 74.55 L3.15 76.05 Q1.4 81.95 -1.4 86.7 L-3.45 86.6 -6.25 86.3 -7.25 87.45 8.65 87.95 Q14.55 87.5 20.5 84.55 27.8 80.75 35.9 81.95 42.7 84.05 41.05 86.05 39.4 86.1 36.6 85.1 26.8 85.95 16.45 90.15 6.05 94.35 -5.9 92.2 L-8.15 94.15 Q-8.7 92.8 -10.15 91.6 -11.15 93.2 -10.8 94.85 -10.6 96.15 -11.05 97.05 L-13.05 96.9 -20.15 94.55 -21.55 91.75 -21.95 88.55 -20.3 89.45 -14.9 74.35 -13.4 73.65 -12.25 75.15 -18.15 90.25 -15.85 90.75 -9.85 76.65 -7.1 76.9 Q-5.0 76.45 -5.55 74.55 M-23.8 87.6 Q-33.5 83.55 -40.4 77.05 -47.65 71.5 -55.15 71.3 -59.05 71.25 -60.55 70.2 -60.7 67.7 -56.6 67.0 -50.75 66.95 -39.95 75.4 -32.95 80.95 -22.7 84.05 L-23.8 87.6 M-0.1 35.45 L1.9 35.6 -10.9 70.6 Q-11.9 69.7 -12.3 68.6 L-0.1 35.45" fill="#774400" fill-rule="evenodd" stroke="none"/>
    <path d="M27.8 -24.3 Q29.85 -18.4 29.1 -12.5 M23.3 -37.05 Q23.85 -31.4 27.0 -26.35 L27.8 -24.3" fill="none" stroke="#000000" stroke-linecap="round" stroke-linejoin="round" stroke-width="2.0"/>
  </g>
</svg>
