<?xml version="1.0" encoding="UTF-8" standalone="no"?>
<svg xmlns:xlink="http://www.w3.org/1999/xlink" height="139.95px" width="279.25px" xmlns="http://www.w3.org/2000/svg">
  <g transform="matrix(1.0, 0.0, 0.0, 1.0, 139.3, 54.3)">
    <path d="M-126.15 76.15 L-121.3 72.8 -117.85 74.65 -123.2 77.25 -126.15 76.15 M-102.25 67.05 L-106.0 68.9 -98.25 72.35 -105.3 74.5 -112.7 72.15 -109.9 70.8 -114.85 68.3 -109.4 64.5 -102.25 67.05" fill="#ffffff" fill-opacity="0.5019608" fill-rule="evenodd" stroke="none"/>
    <path d="M45.45 -0.6 L45.1 -4.85 137.2 -49.75 138.95 -46.2 45.45 -0.6 M23.95 8.85 L24.45 9.65 0.45 21.35 -72.5 55.55 -73.7 53.15 23.6 5.65 23.95 8.85" fill="#000000" fill-opacity="0.2" fill-rule="evenodd" stroke="none"/>
    <path d="M-72.5 55.55 L-72.2 56.2 -88.65 63.35 Q-97.15 67.35 -98.25 72.35 L-138.3 84.65 -103.95 60.65 Q-99.35 62.85 -90.95 58.6 L-75.2 50.05 -74.9 50.7 -72.5 55.55 M-98.85 65.4 L-138.3 84.65 -98.85 65.4" fill="url(#gradient0)" fill-rule="evenodd" stroke="none"/>
    <path d="M45.1 -4.85 L45.45 -0.6 138.95 -46.2 135.45 -53.3 44.2 -8.8 45.1 -4.85 M-74.9 50.7 L-3.0 14.25 23.2 1.45 23.95 8.85 24.45 9.65 0.45 21.35 -72.5 55.55 -72.2 56.2 -88.65 63.35 Q-97.15 67.35 -98.25 72.35 L-138.3 84.65 -103.95 60.65 Q-99.35 62.85 -90.95 58.6 L-75.2 50.05 -74.9 50.7" fill="none" stroke="#000000" stroke-linecap="round" stroke-linejoin="round" stroke-width="2.0"/>
    <path d="M-74.9 50.7 L-72.5 55.55 M-138.3 84.65 L-98.85 65.4" fill="none" stroke="#000000" stroke-linecap="round" stroke-linejoin="round" stroke-width="1.0"/>
  </g>
  <defs>
    <linearGradient gradientTransform="matrix(0.0023, 0.0039, -0.038, 0.022, -105.55, 69.5)" gradientUnits="userSpaceOnUse" id="gradient0" spreadMethod="pad" x1="-819.2" x2="819.2">
      <stop offset="0.0" stop-color="#000000" stop-opacity="0.0"/>
      <stop offset="1.0" stop-color="#000000" stop-opacity="0.4"/>
    </linearGradient>
  </defs>
</svg>
