<?xml version="1.0" encoding="UTF-8" standalone="no"?>
<svg xmlns:xlink="http://www.w3.org/1999/xlink" height="106.05px" width="230.45px" xmlns="http://www.w3.org/2000/svg">
  <g transform="matrix(1.0, 0.0, 0.0, 1.0, 100.15, 46.0)">
    <path d="M3.95 8.9 L4.0 8.85 2.65 20.65 Q1.4 21.5 0.2 21.6 L1.1 12.1 Q2.65 11.15 3.95 8.9 M53.45 -10.45 Q52.45 -11.1 51.0 -11.75 L129.3 -45.0 53.45 -10.45 M9.7 4.9 L13.85 4.45 12.3 12.8 11.5 12.65 Q10.3 12.0 9.35 12.25 L9.7 4.9 M-23.4 29.0 L-20.3 29.8 -20.8 33.05 -22.05 32.85 -24.4 32.2 -23.6 28.95 -23.4 29.0 M-29.25 35.55 L-26.6 35.5 -26.35 38.75 -29.0 39.05 -29.25 35.55 M-29.8 27.95 L-30.0 25.05 -27.3 24.65 -27.15 26.5 -28.15 27.05 Q-29.15 27.35 -29.8 27.95 M-39.3 37.5 L-43.6 35.85 Q-43.7 34.0 -43.4 32.3 L-39.25 33.8 -39.3 37.5 M-11.15 26.2 L-11.0 28.0 -13.4 27.95 -13.35 26.05 -11.15 26.2 M-72.35 38.35 Q-75.15 37.55 -78.35 37.5 -73.45 33.25 -66.15 36.6 -58.85 39.95 -60.35 47.75 -63.1 43.45 -66.8 41.0 -69.35 39.25 -72.35 38.35 M-50.6 32.6 L-50.7 33.05 -52.7 32.3 -52.1 29.35 -52.05 29.25 -49.55 30.15 Q-50.25 31.25 -50.6 32.6 M-51.75 45.2 Q-50.6 45.05 -49.4 44.3 L-47.7 42.1 -47.15 47.45 Q-49.0 48.25 -51.55 48.25 L-51.75 45.2 M-46.85 50.05 L-46.65 52.1 Q-49.5 52.0 -51.35 51.0 L-51.5 48.3 Q-48.95 49.6 -46.85 50.05 M-90.6 47.65 L-94.3 48.75 -96.3 49.75 -90.0 42.55 -87.95 42.5 -82.9 42.65 -87.3 47.2 -90.6 47.65" fill="#ffffff" fill-opacity="0.5019608" fill-rule="evenodd" stroke="none"/>
    <path d="M-67.5 59.0 Q-63.9 57.6 -62.2 53.6 L-56.7 56.45 Q-57.7 58.35 -61.45 59.05 L-67.5 59.0 M-37.8 28.15 Q-37.3 31.75 -37.2 34.5 L-37.3 38.3 -39.3 37.5 -39.25 33.8 Q-38.95 30.45 -37.8 28.15 M-16.2 22.35 L-16.1 21.25 -13.15 22.05 -11.5 22.05 Q-9.75 21.7 -8.5 20.1 -8.15 21.25 -8.35 22.55 -9.25 25.7 -11.15 26.2 L-13.35 26.05 -14.1 25.75 Q-16.5 24.1 -16.2 22.35 M49.4 -10.45 L48.1 -9.8 Q46.9 -11.55 48.2 -12.85 L51.0 -11.75 Q52.45 -11.1 53.45 -10.45 55.95 -8.8 55.95 -7.05 54.35 -5.6 52.15 -7.4 L53.5 -8.05 Q53.15 -9.05 51.85 -9.7 50.85 -10.15 49.4 -10.45 M-97.35 50.35 L-96.3 49.75 -94.3 48.75 Q-91.8 50.3 -88.5 51.0 -85.4 55.0 -80.65 57.25 -89.45 55.4 -98.4 51.7 L-97.35 50.35" fill="#000000" fill-opacity="0.2" fill-rule="evenodd" stroke="none"/>
    <path d="M48.2 -12.85 L129.3 -45.0 55.95 -7.05 Q55.95 -8.8 53.45 -10.45 52.45 -11.1 51.0 -11.75 L48.2 -12.85 M20.35 8.35 L20.95 9.45 Q17.25 13.6 12.3 12.8 L11.5 12.65 Q10.3 12.0 9.35 12.25 7.5 12.65 6.45 15.95 4.55 19.25 2.65 20.65 1.4 21.5 0.2 21.6 -1.75 21.7 -3.65 19.95 -5.5 21.5 -6.05 19.95 -5.4 27.4 -11.0 28.0 L-13.4 27.95 -17.5 27.1 Q-14.15 29.55 -17.05 33.15 L-19.3 33.25 Q-20.15 34.8 -21.25 35.95 -23.2 37.9 -25.9 38.65 L-26.35 38.75 -29.0 39.05 -29.9 39.05 Q-33.6 44.75 -39.8 45.35 -32.8 45.65 -28.8 41.6 -31.8 46.7 -38.25 47.05 -37.1 52.4 -45.2 52.1 L-46.65 52.1 Q-49.5 52.0 -51.35 51.0 L-53.4 49.2 Q-54.6 51.4 -53.7 54.25 -52.8 57.7 -56.35 58.8 L-61.45 59.05 -67.5 59.0 Q-63.9 57.6 -62.2 53.6 L-64.5 52.55 Q-69.05 50.5 -73.15 49.25 -81.05 46.8 -87.3 47.2 L-90.6 47.65 -94.3 48.75 -96.3 49.75 -97.35 50.35 -96.3 49.75 -94.3 48.75 Q-91.8 50.3 -88.5 51.0 -85.4 55.0 -80.65 57.25 -89.45 55.4 -98.4 51.7 L-99.15 43.75 -90.0 42.55 -87.95 42.5 -82.9 42.65 -80.4 42.9 Q-72.8 43.7 -64.6 46.3 -62.5 46.95 -60.35 47.75 -63.1 43.45 -66.8 41.0 -69.35 39.25 -72.35 38.35 -75.15 37.55 -78.35 37.5 -71.3 28.35 -58.6 33.45 -56.75 32.0 -52.7 32.45 L-52.7 32.3 -52.1 29.35 -52.05 29.25 Q-50.15 24.85 -43.3 24.95 L-39.7 25.45 Q-37.0 26.1 -33.8 27.55 -32.7 26.3 -31.3 25.55 L-30.0 25.05 -27.3 24.65 -26.2 24.7 Q-25.1 22.8 -23.1 21.65 L-21.9 21.3 Q-20.75 21.2 -19.25 21.8 L-18.5 19.05 Q-17.0 15.05 -12.85 14.4 L-12.1 14.35 Q-11.0 14.2 -9.7 14.35 -7.45 11.3 -2.3 12.7 -0.5 13.05 1.1 12.1 2.65 11.15 3.95 8.9 L4.0 8.85 Q5.05 5.85 9.7 4.9 L13.85 4.45 16.25 4.5 17.2 5.1 Q18.2 5.8 19.0 6.65 L20.35 8.35 M-16.1 21.25 L-13.15 22.05 -11.5 22.05 Q-9.75 21.7 -8.5 20.1 -8.95 18.9 -10.0 17.85 L-11.85 17.65 -13.0 17.7 Q-15.65 18.15 -16.1 21.25 L-16.2 22.35 -16.1 21.25 M-21.1 22.65 Q-21.2 25.0 -22.75 25.15 L-23.85 25.05 -26.2 24.7 -23.85 25.05 -22.75 25.15 Q-21.2 25.0 -21.1 22.65 M-7.3 14.75 L-9.7 14.35 -7.3 14.75 M-1.85 18.05 L-3.65 19.95 -1.85 18.05 M-14.1 25.75 L-13.35 26.05 -11.15 26.2 Q-9.25 25.7 -8.35 22.55 -8.15 21.25 -8.5 20.1 -8.15 21.25 -8.35 22.55 -9.25 25.7 -11.15 26.2 L-13.35 26.05 -14.1 25.75 M-23.4 29.0 L-20.3 29.8 -20.25 29.75 Q-19.1 28.65 -19.9 27.55 L-20.35 27.1 Q-21.5 27.7 -23.35 27.7 L-23.8 27.7 Q-24.8 25.5 -27.15 26.5 L-28.15 27.05 -27.1 27.55 -23.6 28.95 -23.4 29.0 M-19.3 33.25 L-20.8 33.05 -22.05 32.85 -24.4 32.2 -26.85 31.25 Q-28.25 30.65 -29.65 29.85 L-30.85 29.2 -29.8 27.95 Q-29.15 27.35 -28.15 27.05 -29.15 27.35 -29.8 27.95 L-30.85 29.2 -29.65 29.85 Q-28.25 30.65 -26.85 31.25 L-24.4 32.2 -22.05 32.85 -20.8 33.05 -19.3 33.25 M-33.45 30.8 Q-32.45 32.1 -32.35 33.9 -31.2 34.85 -29.95 35.3 -29.4 34.75 -29.35 33.75 -29.4 34.75 -29.95 35.3 L-29.25 35.55 -26.6 35.5 -25.05 34.95 Q-23.6 34.25 -22.05 32.85 -23.6 34.25 -25.05 34.95 L-26.6 35.5 -29.25 35.55 -29.95 35.3 Q-31.2 34.85 -32.35 33.9 -32.45 32.1 -33.45 30.8 -34.8 29.05 -37.8 28.15 -37.3 31.75 -37.2 34.5 L-37.3 38.3 Q-37.8 42.35 -39.9 43.1 -36.9 43.5 -32.3 37.95 -35.95 34.5 -33.45 30.8 M-44.2 43.7 Q-43.15 42.5 -42.95 40.5 -41.75 42.85 -39.9 43.1 -41.75 42.85 -42.95 40.5 -43.15 42.5 -44.2 43.7 M-39.15 40.25 L-39.3 37.5 -39.25 33.8 Q-38.95 30.45 -37.8 28.15 -38.95 30.45 -39.25 33.8 L-39.3 37.5 -39.15 40.25 M-18.55 24.15 Q-18.75 25.75 -19.75 26.65 L-20.35 27.1 -19.75 26.65 Q-18.75 25.75 -18.55 24.15 M-17.15 30.1 L-20.3 29.8 -17.15 30.1 M-30.85 29.2 Q-29.7 31.4 -29.45 32.9 -29.7 31.4 -30.85 29.2 M-49.55 30.15 Q-50.25 31.25 -50.6 32.6 -48.4 33.25 -46.6 34.65 -45.6 35.45 -44.7 36.6 L-43.55 36.1 -43.6 35.85 Q-43.7 34.0 -43.4 32.3 -42.95 29.75 -41.6 27.45 L-46.8 27.25 Q-48.55 28.45 -49.55 30.15 M-52.85 34.65 L-52.7 32.45 -52.85 34.65 Q-60.2 36.1 -58.1 41.0 -55.25 45.7 -51.75 45.2 -50.6 45.05 -49.4 44.3 -52.8 40.1 -52.85 34.65 M-50.6 32.6 L-50.7 33.05 -50.9 34.55 -50.7 33.05 -50.6 32.6 M-47.55 41.8 L-47.7 42.1 -49.4 44.3 -47.7 42.1 -47.55 41.8 Q-45.1 37.3 -50.9 34.55 -51.25 39.25 -47.7 41.65 L-47.55 41.8 M-51.65 48.25 L-51.5 48.3 Q-48.95 49.6 -46.85 50.05 -41.95 51.05 -40.15 46.95 -42.45 47.55 -45.2 46.25 -46.05 46.95 -47.15 47.45 -49.0 48.25 -51.55 48.25 L-51.65 48.25 M-41.6 27.45 L-37.8 28.15 -41.6 27.45 M-62.2 53.6 L-56.7 56.45 -62.2 53.6 M-43.15 38.75 L-43.55 36.1 -43.15 38.75" fill="url(#gradient0)" fill-rule="evenodd" stroke="none"/>
    <path d="M52.15 -7.4 L53.5 -8.05 Q53.15 -9.05 51.85 -9.7 50.85 -10.15 49.4 -10.45 L48.1 -9.8 M55.95 -7.05 Q55.95 -8.8 53.45 -10.45 52.45 -11.1 51.0 -11.75 L48.2 -12.85 M-67.5 59.0 Q-63.9 57.6 -62.2 53.6 L-64.5 52.55 Q-69.05 50.5 -73.15 49.25 -81.05 46.8 -87.3 47.2 L-90.6 47.65 -88.5 51.0 Q-85.4 55.0 -80.65 57.25 M-87.95 42.5 L-82.9 42.65 -80.4 42.9 Q-72.8 43.7 -64.6 46.3 -62.5 46.95 -60.35 47.75 -63.1 43.45 -66.8 41.0 -69.35 39.25 -72.35 38.35 -75.15 37.55 -78.35 37.5 M17.2 5.1 Q18.2 5.8 19.0 6.65 L20.35 8.35 M-8.5 20.1 Q-9.75 21.7 -11.5 22.05 L-13.15 22.05 -16.1 21.25 -16.2 22.35 M-16.1 21.25 Q-15.65 18.15 -13.0 17.7 L-11.85 17.65 -10.0 17.85 Q-8.95 18.9 -8.5 20.1 -8.15 21.25 -8.35 22.55 -9.25 25.7 -11.15 26.2 L-13.35 26.05 -14.1 25.75 M-3.65 19.95 L-1.85 18.05 M-9.7 14.35 L-7.3 14.75 M-26.2 24.7 L-23.85 25.05 -22.75 25.15 Q-21.2 25.0 -21.1 22.65 M-23.4 29.0 L-20.3 29.8 -20.25 29.75 Q-19.1 28.65 -19.9 27.55 L-20.35 27.1 Q-21.5 27.7 -23.35 27.7 L-23.8 27.7 -23.55 28.5 -23.4 29.0 -23.6 28.95 -27.1 27.55 -28.15 27.05 Q-29.15 27.35 -29.8 27.95 L-30.85 29.2 -29.65 29.85 Q-28.25 30.65 -26.85 31.25 L-24.4 32.2 -22.05 32.85 -20.8 33.05 -19.3 33.25 M-28.15 27.05 L-27.15 26.5 Q-24.8 25.5 -23.8 27.7 M-29.35 33.75 Q-29.4 34.75 -29.95 35.3 L-29.25 35.55 -26.6 35.5 -25.05 34.95 Q-23.6 34.25 -22.05 32.85 M-29.95 35.3 Q-31.2 34.85 -32.35 33.9 -32.45 32.1 -33.45 30.8 -35.95 34.5 -32.3 37.95 -36.9 43.5 -39.9 43.1 -41.75 42.85 -42.95 40.5 -43.15 42.5 -44.2 43.7 M-39.7 25.45 Q-37.0 26.1 -33.8 27.55 -32.7 26.3 -31.3 25.55 M-37.8 28.15 Q-38.95 30.45 -39.25 33.8 L-39.3 37.5 -39.15 40.25 M-33.45 30.8 Q-34.8 29.05 -37.8 28.15 -37.3 31.75 -37.2 34.5 L-37.3 38.3 Q-37.8 42.35 -39.9 43.1 M-29.45 32.9 Q-29.7 31.4 -30.85 29.2 M-20.3 29.8 L-17.15 30.1 M-20.35 27.1 L-19.75 26.65 Q-18.75 25.75 -18.55 24.15 M-49.55 30.15 Q-50.25 31.25 -50.6 32.6 -48.4 33.25 -46.6 34.65 -45.6 35.45 -44.7 36.6 L-43.55 36.1 -43.6 35.85 Q-43.7 34.0 -43.4 32.3 -42.95 29.75 -41.6 27.45 L-46.8 27.25 Q-48.55 28.45 -49.55 30.15 M-50.9 34.55 L-50.7 33.05 -50.6 32.6 M-52.7 32.45 L-52.85 34.65 Q-52.8 40.1 -49.4 44.3 L-47.7 42.1 -47.55 41.8 -47.7 41.65 Q-51.25 39.25 -50.9 34.55 -45.1 37.3 -47.55 41.8 M-51.65 48.25 L-51.55 48.25 Q-49.0 48.25 -47.15 47.45 -46.05 46.95 -45.2 46.25 -42.45 47.55 -40.15 46.95 -41.95 51.05 -46.85 50.05 -48.95 49.6 -51.5 48.3 L-51.65 48.25 M-49.4 44.3 Q-50.6 45.05 -51.75 45.2 -55.25 45.7 -58.1 41.0 -60.2 36.1 -52.85 34.65 M-43.55 36.1 L-43.15 38.75 M-56.7 56.45 L-62.2 53.6 M-37.8 28.15 L-41.6 27.45 M-94.3 48.75 L-90.6 47.65 M-97.35 50.35 L-96.3 49.75 -94.3 48.75 Q-91.8 50.3 -88.5 51.0" fill="none" stroke="#000000" stroke-linecap="round" stroke-linejoin="round" stroke-width="1.0"/>
    <path d="M48.1 -9.8 Q46.9 -11.55 48.2 -12.85 L129.3 -45.0 55.95 -7.05 Q54.35 -5.6 52.15 -7.4 M20.35 8.35 L20.95 9.45 Q17.25 13.6 12.3 12.8 L11.5 12.65 Q10.3 12.0 9.35 12.25 7.5 12.65 6.45 15.95 4.55 19.25 2.65 20.65 1.4 21.5 0.2 21.6 -1.75 21.7 -3.65 19.95 -5.5 21.5 -6.05 19.95 -5.4 27.4 -11.0 28.0 L-13.4 27.95 -17.5 27.1 Q-14.15 29.55 -17.05 33.15 L-19.3 33.25 Q-20.15 34.8 -21.25 35.95 -23.2 37.9 -25.9 38.65 L-26.35 38.75 -29.0 39.05 -29.9 39.05 Q-33.6 44.75 -39.8 45.35 -32.8 45.65 -28.8 41.6 -31.8 46.7 -38.25 47.05 -37.1 52.4 -45.2 52.1 L-46.65 52.1 Q-49.5 52.0 -51.35 51.0 L-53.4 49.2 Q-54.6 51.4 -53.7 54.25 -52.8 57.7 -56.35 58.8 L-61.45 59.05 -67.5 59.0 M-80.65 57.25 Q-89.45 55.4 -98.4 51.7 L-99.15 43.75 -90.0 42.55 -87.95 42.5 M-78.35 37.5 Q-71.3 28.35 -58.6 33.45 -56.75 32.0 -52.7 32.45 L-52.7 32.3 -52.1 29.35 -52.05 29.25 Q-50.15 24.85 -43.3 24.95 L-39.7 25.45 Q-36.5 23.15 -31.3 25.55 L-30.0 25.05 -27.3 24.65 -26.2 24.7 Q-25.1 22.8 -23.1 21.65 L-21.9 21.3 Q-20.75 21.2 -19.25 21.8 L-18.5 19.05 Q-17.0 15.05 -12.85 14.4 L-12.1 14.35 Q-11.0 14.2 -9.7 14.35 -7.45 11.3 -2.3 12.7 -0.5 13.05 1.1 12.1 2.65 11.15 3.95 8.9 L4.0 8.85 Q5.05 5.85 9.7 4.9 L13.85 4.45 16.25 4.5 17.2 5.1" fill="none" stroke="#000000" stroke-linecap="round" stroke-linejoin="round" stroke-width="2.0"/>
  </g>
  <defs>
    <linearGradient gradientTransform="matrix(0.0062, 0.0147, -0.0451, 0.0189, -57.65, 45.2)" gradientUnits="userSpaceOnUse" id="gradient0" spreadMethod="pad" x1="-819.2" x2="819.2">
      <stop offset="0.0" stop-color="#000000" stop-opacity="0.0"/>
      <stop offset="1.0" stop-color="#000000" stop-opacity="0.4"/>
    </linearGradient>
  </defs>
</svg>
