<?xml version="1.0" encoding="UTF-8" standalone="no"?>
<svg xmlns:xlink="http://www.w3.org/1999/xlink" height="11.1px" width="32.65px" xmlns="http://www.w3.org/2000/svg">
  <g transform="matrix(1.0, 0.0, 0.0, 1.0, -242.75, -59.85)">
    <path d="M250.1 64.45 L250.25 65.75 Q250.25 67.6 249.2 68.9 248.1 70.2 246.6 70.25 245.1 70.2 244.05 68.9 242.95 67.6 243.0 65.75 242.95 63.85 244.05 62.55 245.1 61.25 246.6 61.25 248.1 61.25 249.2 62.55 249.85 63.4 250.1 64.45 M253.2 64.35 Q253.55 63.15 254.5 62.2 255.95 60.75 258.0 60.75 260.05 60.75 261.55 62.2 262.35 63.05 262.7 64.05 L263.0 65.75 Q263.0 67.8 261.55 69.25 260.05 70.7 258.0 70.7 255.95 70.7 254.5 69.25 253.0 67.8 253.05 65.75 253.0 65.0 253.2 64.35" fill="#ffffff" fill-opacity="0.5019608" fill-rule="evenodd" stroke="none"/>
    <path d="M250.1 64.45 L250.25 65.75 Q250.25 67.6 249.2 68.9 248.1 70.2 246.6 70.25 245.1 70.2 244.05 68.9 242.95 67.6 243.0 65.75 242.95 63.85 244.05 62.55 245.1 61.25 246.6 61.25 248.1 61.25 249.2 62.55 249.85 63.4 250.1 64.45 M253.2 64.35 Q253.55 63.15 254.5 62.2 255.95 60.75 258.0 60.75 260.05 60.75 261.55 62.2 262.35 63.05 262.7 64.05 L263.0 65.75 Q263.0 67.8 261.55 69.25 260.05 70.7 258.0 70.7 255.95 70.7 254.5 69.25 253.0 67.8 253.05 65.75 253.0 65.0 253.2 64.35" fill="none" stroke="#000000" stroke-linecap="round" stroke-linejoin="round" stroke-width="0.5"/>
    <path d="M250.1 64.45 L253.2 64.35 M262.7 64.05 L275.15 60.1" fill="none" stroke="#000000" stroke-linecap="round" stroke-linejoin="round" stroke-width="0.5"/>
  </g>
</svg>
