<?xml version="1.0" encoding="UTF-8" standalone="no"?>
<svg xmlns:xlink="http://www.w3.org/1999/xlink" height="21.35px" width="30.2px" xmlns="http://www.w3.org/2000/svg">
  <g transform="matrix(1.0, 0.0, 0.0, 1.0, 26.25, 157.55)">
    <path d="M-25.25 -150.6 L-23.75 -152.15 -20.6 -154.1 Q-22.55 -151.35 -23.7 -148.95 L-25.25 -150.6" fill="#000000" fill-opacity="0.4" fill-rule="evenodd" stroke="none"/>
    <path d="M-20.6 -154.1 Q-16.75 -156.05 -12.15 -156.4 -7.85 -156.95 -3.85 -155.35 -0.85 -144.8 -3.35 -138.85 L-3.05 -141.85 -4.65 -143.6 Q-6.35 -145.55 -7.45 -147.4 L-7.6 -151.5 Q-11.25 -151.1 -14.9 -148.45 L-15.95 -148.5 -22.95 -148.2 -24.1 -148.05 -23.7 -148.95 Q-22.55 -151.35 -20.6 -154.1 M-1.15 -136.75 L-0.65 -139.05 -0.15 -140.75 -0.3 -140.4 -0.6 -139.15 -0.9 -136.7 -1.15 -136.75" fill="#000000" fill-opacity="0.2" fill-rule="evenodd" stroke="none"/>
    <path d="M-25.25 -150.6 L-23.75 -152.15 -20.6 -154.1 Q-16.75 -156.05 -12.15 -156.4 -7.85 -156.95 -3.85 -155.35 3.85 -151.7 2.85 -143.05" fill="none" stroke="#000000" stroke-linecap="round" stroke-linejoin="round" stroke-width="2.0"/>
    <path d="M2.85 -143.05 L2.45 -143.05 2.3 -143.05 Q0.3 -142.55 -0.15 -140.8 L-0.6 -139.15 -0.9 -136.7 M-3.55 -137.25 L-3.05 -141.85 -4.65 -143.6 Q-6.35 -145.55 -7.45 -147.4 L-7.6 -151.5 Q-11.25 -151.1 -14.9 -148.45 L-22.95 -148.2 -25.25 -150.6" fill="none" stroke="#000000" stroke-linecap="round" stroke-linejoin="round" stroke-width="1.0"/>
  </g>
</svg>
