<?xml version="1.0" encoding="UTF-8" standalone="no"?>
<svg xmlns:xlink="http://www.w3.org/1999/xlink" height="50.15px" width="61.8px" xmlns="http://www.w3.org/2000/svg">
  <g transform="matrix(1.0, 0.0, 0.0, 1.0, 43.75, 167.1)">
    <path d="M-30.4 -129.7 Q-35.15 -130.75 -36.55 -134.5 -37.7 -137.25 -35.7 -140.0 -40.05 -136.15 -40.05 -131.35 -42.65 -134.8 -40.25 -138.75 -38.65 -141.25 -36.0 -142.55 -40.35 -142.8 -42.3 -146.05 L-42.9 -147.05 Q-44.0 -149.4 -43.7 -151.9 L-42.9 -150.45 Q-41.2 -147.8 -38.75 -147.6 -36.15 -147.45 -34.6 -149.35 -39.45 -148.5 -39.55 -153.5 -39.75 -158.0 -35.9 -160.75 L-34.5 -161.6 -33.25 -162.3 Q-30.4 -163.7 -27.4 -164.35 -28.65 -163.3 -29.1 -162.3 L-29.35 -160.75 Q-29.25 -159.7 -28.3 -158.7 -25.6 -156.35 -21.15 -157.9 -19.0 -158.6 -16.7 -158.45 L-16.1 -158.4 -16.35 -158.5 Q-20.55 -160.15 -26.8 -158.3 -24.65 -159.85 -22.45 -160.75 -18.2 -162.45 -13.65 -161.85 -12.15 -161.55 -11.05 -160.75 -9.95 -159.95 -9.25 -158.55 L-8.85 -157.6 -9.05 -158.55 Q-9.5 -159.75 -10.35 -160.75 L-12.2 -162.3 Q-14.1 -163.5 -17.1 -164.2 -11.4 -165.65 -6.3 -163.75 -4.95 -163.25 -3.95 -162.3 L-2.8 -160.75 Q-2.2 -159.65 -1.95 -158.25 -1.9 -159.5 -2.35 -160.75 L-3.1 -162.2 Q-1.9 -161.65 -1.2 -160.75 -0.45 -159.8 -0.2 -158.55 0.1 -156.95 -0.35 -155.95 1.8 -158.25 1.9 -160.75 L1.8 -162.3 1.7 -162.65 Q1.15 -164.9 -0.6 -167.1 3.25 -165.65 4.55 -162.3 L4.95 -160.75 5.1 -159.9 Q5.35 -157.5 2.35 -154.3 11.2 -156.65 13.3 -147.5 10.85 -150.7 6.8 -151.1 12.7 -148.5 12.8 -143.2 12.1 -144.75 10.65 -145.95 11.65 -143.5 11.6 -141.25 L9.55 -142.9 Q9.9 -141.6 11.75 -140.2 8.4 -141.4 7.15 -144.55 6.45 -146.85 3.65 -148.05 L2.5 -148.5 3.75 -148.55 5.45 -148.15 3.8 -149.05 1.75 -149.7 -2.2 -149.9 -2.4 -149.85 -2.3 -149.9 Q-0.3 -150.65 1.8 -150.45 L3.95 -150.0 Q5.35 -149.55 6.8 -148.7 5.45 -149.85 3.95 -150.4 L1.8 -150.95 -2.95 -150.6 Q-2.3 -151.65 -2.15 -152.95 -2.05 -154.0 -2.3 -155.2 -2.3 -154.1 -2.65 -153.1 -3.2 -151.65 -4.5 -150.55 L-6.0 -149.55 -5.05 -150.65 Q-4.05 -152.0 -3.65 -153.35 -3.35 -154.5 -3.45 -155.6 L-3.7 -157.0 Q-4.35 -159.25 -6.3 -160.75 -7.55 -161.65 -9.3 -162.3 L-9.5 -162.35 -9.45 -162.3 -8.25 -160.75 -6.95 -158.2 -6.8 -157.55 Q-6.55 -156.55 -7.1 -155.5 -7.65 -154.45 -9.0 -153.45 L-9.95 -152.8 -9.65 -153.45 Q-9.2 -154.55 -9.35 -155.5 -9.7 -157.45 -12.5 -158.8 L-12.8 -158.9 -12.6 -158.8 Q-10.5 -157.15 -10.55 -155.45 L-10.7 -154.75 -10.95 -155.45 -11.8 -156.7 -11.85 -156.75 Q-13.05 -157.85 -15.2 -157.4 -23.3 -156.1 -27.55 -152.9 -29.2 -151.65 -30.25 -150.15 L-30.45 -149.8 -30.5 -149.75 Q-33.0 -145.7 -38.05 -145.8 -34.4 -144.15 -27.65 -145.45 L-25.9 -145.8 -23.7 -146.35 Q-25.3 -143.8 -25.95 -141.7 L-26.15 -141.05 -26.4 -139.3 -26.4 -138.5 -26.35 -138.0 -26.25 -137.45 -26.25 -138.0 -26.15 -138.8 -26.1 -139.1 -25.4 -140.65 -25.35 -140.75 -25.35 -140.65 -25.5 -139.05 Q-25.35 -137.65 -24.25 -136.4 L-23.15 -135.35 -24.45 -135.65 Q-25.45 -136.0 -26.15 -136.45 L-26.55 -136.7 Q-27.55 -137.4 -27.9 -138.35 L-27.9 -138.4 -28.1 -139.75 -27.8 -141.15 -28.55 -139.6 Q-29.0 -138.3 -28.55 -136.75 L-28.45 -136.75 -28.45 -136.3 -28.9 -136.55 -29.35 -136.9 -30.05 -137.75 Q-31.25 -139.65 -30.1 -143.0 L-29.3 -144.1 Q-36.3 -139.65 -35.25 -134.85 -35.4 -136.45 -34.45 -137.6 -35.5 -132.35 -30.4 -129.7 M-13.55 -130.55 L-12.95 -130.15 -12.15 -129.8 Q-9.6 -128.6 -7.5 -129.6 L-6.6 -130.15 Q-5.0 -131.4 -4.95 -134.85 L-5.0 -137.15 -4.5 -136.6 Q-3.7 -135.6 -3.4 -134.5 L-3.25 -133.55 Q-3.2 -132.45 -3.6 -131.35 L-4.2 -129.85 -4.5 -129.25 -4.55 -129.15 Q-5.65 -127.4 -7.05 -127.05 L-9.2 -127.35 -9.4 -127.4 Q-12.35 -128.75 -13.55 -130.55 M-28.15 -133.15 Q-32.6 -133.0 -33.3 -137.15 -33.3 -139.3 -31.85 -140.95 -33.1 -135.95 -28.25 -133.2 L-28.15 -133.3 -28.15 -133.15" fill="#cc9900" fill-rule="evenodd" stroke="none"/>
    <path d="M11.6 -141.25 Q16.25 -139.15 18.05 -143.15 18.1 -141.65 17.35 -140.1 15.35 -136.95 11.55 -137.75 14.0 -133.8 10.85 -129.75 12.25 -132.9 10.1 -134.65 11.1 -131.9 8.85 -129.05 8.45 -128.3 8.6 -127.6 4.4 -126.5 4.05 -133.0 L4.35 -133.95 Q4.95 -136.0 4.85 -137.85 L4.85 -138.05 4.85 -139.25 4.6 -141.15 4.4 -141.65 3.75 -142.55 3.25 -142.85 2.75 -142.85 1.85 -142.6 0.55 -140.8 Q-0.85 -138.45 -1.0 -134.4 L-1.1 -129.35 -1.1 -129.25 -1.0 -128.2 Q-1.1 -127.05 -1.8 -126.0 -2.4 -125.15 -3.5 -124.3 -4.0 -123.9 -4.55 -123.7 L-5.0 -123.6 -5.4 -123.55 -6.65 -123.65 -8.65 -124.7 Q-5.5 -124.75 -4.55 -126.1 -4.15 -126.8 -4.15 -127.75 L-4.55 -127.15 Q-6.25 -125.05 -8.9 -125.45 L-8.95 -125.45 -10.3 -125.9 Q-11.6 -126.5 -12.35 -127.45 -13.1 -128.35 -13.4 -129.55 L-13.55 -130.55 Q-12.35 -128.75 -9.4 -127.4 L-9.2 -127.35 -7.05 -127.05 Q-5.65 -127.4 -4.55 -129.15 L-4.5 -129.25 -4.2 -129.85 -3.6 -131.35 Q-3.2 -132.45 -3.25 -133.55 L-3.4 -134.5 Q-3.7 -135.6 -4.5 -136.6 L-5.0 -137.15 -3.4 -136.7 -5.4 -138.8 -3.55 -137.95 -4.85 -139.25 -3.55 -139.25 -3.65 -139.35 -4.0 -139.55 -5.05 -140.2 Q-8.5 -142.6 -9.1 -145.75 L-9.1 -144.05 -9.1 -143.95 Q-8.9 -141.8 -7.65 -139.45 L-7.9 -139.75 -9.5 -142.35 -10.4 -144.65 Q-11.05 -146.65 -10.95 -148.65 -11.35 -146.5 -12.15 -144.9 L-13.0 -143.55 -13.5 -142.95 Q-14.0 -142.4 -14.55 -142.0 L-15.75 -141.25 -15.4 -142.0 -15.2 -142.6 -14.95 -144.25 -14.95 -144.4 -15.1 -145.5 -15.35 -144.3 -15.4 -144.25 Q-15.8 -143.05 -16.55 -142.1 L-16.75 -141.9 Q-17.8 -140.8 -19.4 -140.1 L-21.4 -139.45 -21.8 -139.3 -21.4 -139.6 -19.9 -140.9 Q-19.35 -141.7 -19.25 -142.5 -19.05 -143.85 -20.0 -145.4 L-19.95 -144.7 Q-23.15 -141.7 -23.45 -138.3 L-23.45 -137.0 -23.15 -135.35 -24.25 -136.4 Q-25.35 -137.65 -25.5 -139.05 L-25.35 -140.65 -25.35 -140.75 -25.4 -140.65 -26.1 -139.1 -26.15 -138.8 -26.25 -138.0 -26.25 -137.45 -26.35 -138.0 -26.4 -138.5 -26.4 -139.3 -26.15 -141.05 -25.95 -141.7 Q-25.3 -143.8 -23.7 -146.35 L-25.9 -145.8 -27.65 -145.45 Q-34.4 -144.15 -38.05 -145.8 -33.0 -145.7 -30.5 -149.75 L-30.45 -149.8 -30.25 -150.15 Q-29.2 -151.65 -27.55 -152.9 -23.3 -156.1 -15.2 -157.4 -13.05 -157.85 -11.85 -156.75 L-11.8 -156.7 -10.95 -155.45 -10.7 -154.75 -10.55 -155.45 Q-10.5 -157.15 -12.6 -158.8 L-12.8 -158.9 -12.5 -158.8 Q-9.7 -157.45 -9.35 -155.5 -9.2 -154.55 -9.65 -153.45 L-9.95 -152.8 -9.0 -153.45 Q-7.65 -154.45 -7.1 -155.5 -6.55 -156.55 -6.8 -157.55 L-6.95 -158.2 -8.25 -160.75 -9.45 -162.3 -9.5 -162.35 -9.3 -162.3 Q-7.55 -161.65 -6.3 -160.75 -4.35 -159.25 -3.7 -157.0 L-3.45 -155.6 Q-3.35 -154.5 -3.65 -153.35 -4.05 -152.0 -5.05 -150.65 L-6.0 -149.55 -4.5 -150.55 Q-3.2 -151.65 -2.65 -153.1 -2.3 -154.1 -2.3 -155.2 -2.05 -154.0 -2.15 -152.95 -2.3 -151.65 -2.95 -150.6 L1.8 -150.95 3.95 -150.4 Q5.45 -149.85 6.8 -148.7 5.35 -149.55 3.95 -150.0 L1.8 -150.45 Q-0.3 -150.65 -2.3 -149.9 L-2.4 -149.85 -2.2 -149.9 1.75 -149.7 3.8 -149.05 5.45 -148.15 3.75 -148.55 2.5 -148.5 3.65 -148.05 Q6.45 -146.85 7.15 -144.55 8.4 -141.4 11.75 -140.2 9.9 -141.6 9.55 -142.9 L11.6 -141.25 M-30.05 -137.75 Q-29.9 -135.85 -28.15 -133.3 -27.75 -132.3 -28.45 -130.85 -31.05 -131.7 -32.7 -133.7 -32.15 -131.7 -30.4 -129.7 -35.5 -132.35 -34.45 -137.6 -35.4 -136.45 -35.25 -134.85 -36.3 -139.65 -29.3 -144.1 L-30.1 -143.0 Q-31.25 -139.65 -30.05 -137.75 M-28.15 -133.15 L-28.15 -133.3 -28.25 -133.2 Q-33.1 -135.95 -31.85 -140.95 -33.3 -139.3 -33.3 -137.15 -32.6 -133.0 -28.15 -133.15" fill="#996600" fill-rule="evenodd" stroke="none"/>
    <path d="M8.6 -127.6 Q8.8 -126.4 10.6 -125.25 L13.7 -125.15 Q11.8 -122.6 7.4 -123.7 9.0 -120.9 7.15 -118.05 L6.3 -116.95 6.6 -117.8 6.65 -118.1 6.7 -118.3 Q7.25 -121.25 5.3 -123.1 L5.35 -122.35 5.35 -121.5 2.75 -130.35 Q3.5 -131.4 4.05 -133.0 4.4 -126.5 8.6 -127.6" fill="#663300" fill-rule="evenodd" stroke="none"/>
  </g>
</svg>
