<?xml version="1.0" encoding="UTF-8" standalone="no"?>
<svg xmlns:xlink="http://www.w3.org/1999/xlink" height="84.5px" width="45.4px" xmlns="http://www.w3.org/2000/svg">
  <g transform="matrix(1.0, 0.0, 0.0, 1.0, 35.7, 159.75)">
    <path d="M7.85 -140.0 Q11.35 -127.1 8.2 -111.4 L2.7 -130.55 3.35 -131.85 Q6.15 -142.8 2.85 -143.05 L2.45 -143.05 2.3 -143.05 Q0.3 -142.55 -0.15 -140.8 L-0.6 -139.15 -0.9 -136.7 -3.55 -137.25 -3.85 -130.9 Q-5.85 -102.8 -12.4 -75.25 -8.55 -100.2 -7.0 -126.05 -6.9 -132.15 -7.2 -136.75 -7.45 -140.35 -7.95 -143.05 -8.5 -145.9 -9.3 -147.75 L-9.3 -147.8 Q-15.7 -148.65 -22.25 -145.15 -24.9 -147.0 -27.0 -147.4 L-26.5 -148.65 -26.2 -149.2 Q-30.35 -152.15 -31.55 -145.1 -32.05 -142.3 -32.0 -137.85 -32.05 -133.6 -31.6 -127.85 -30.05 -105.2 -24.05 -82.55 -34.55 -113.2 -35.55 -144.0 L-35.65 -147.5 -35.7 -150.4 Q-35.75 -162.95 -28.7 -156.15 L-25.6 -152.85 Q-21.1 -157.55 -11.1 -158.85 L-8.95 -159.0 Q1.9 -161.9 5.75 -153.25 6.7 -151.1 7.25 -148.3 7.9 -144.7 7.85 -140.0 M-3.7 -142.5 L-3.55 -137.25 -3.05 -141.85 -3.65 -142.5 -3.7 -142.5" fill="#ffcc99" fill-rule="evenodd" stroke="none"/>
  </g>
</svg>
