<?xml version="1.0" encoding="UTF-8" standalone="no"?>
<svg xmlns:xlink="http://www.w3.org/1999/xlink" height="84.85px" width="65.95px" xmlns="http://www.w3.org/2000/svg">
  <g transform="matrix(1.0, 0.0, 0.0, 1.0, 41.2, 171.45)">
    <path d="M15.65 -132.45 Q5.4 -131.8 0.8 -139.05 L0.8 -139.15 Q5.6 -139.55 9.5 -136.25 12.0 -133.85 15.65 -132.45 M23.75 -105.05 Q19.5 -105.25 17.35 -103.75 L15.35 -105.85 13.9 -111.1 Q19.0 -109.3 23.75 -105.05 M-5.65 -139.7 Q-4.65 -139.5 -4.5 -141.05 -3.05 -136.25 -7.4 -135.2 -11.8 -134.15 -13.4 -135.3 -17.7 -137.35 -23.65 -136.2 L-25.25 -135.35 -25.3 -135.45 Q-24.9 -135.65 -24.75 -137.1 -18.0 -137.2 -12.95 -138.85 -14.0 -136.8 -12.95 -136.2 -11.5 -135.6 -10.6 -137.2 -8.75 -135.65 -6.95 -136.75 -5.2 -137.85 -5.65 -139.7 M-23.45 -144.75 L-23.15 -145.25 Q-21.8 -147.25 -19.75 -148.0 -25.2 -141.6 -25.9 -139.15 L-27.55 -140.45 -27.3 -140.65 Q-24.85 -142.5 -23.45 -144.75 M-28.3 -136.35 L-29.25 -135.45 Q-30.15 -134.2 -29.45 -132.6 L-29.15 -132.8 -26.55 -134.6 Q-29.95 -131.4 -32.4 -126.85 -33.3 -123.35 -30.9 -122.55 L-30.7 -122.0 Q-29.1 -118.3 -24.85 -114.55 L-27.95 -114.5 Q-29.7 -116.1 -32.95 -121.7 L-33.4 -121.95 Q-34.9 -123.1 -34.8 -125.25 L-35.3 -125.8 Q-36.9 -124.95 -38.3 -125.25 -39.15 -125.5 -39.95 -126.15 -40.75 -127.2 -39.15 -128.25 -36.75 -130.1 -35.35 -131.95 L-32.65 -135.1 -30.7 -136.65 Q-29.6 -137.35 -28.5 -137.55 L-28.15 -137.1 -28.3 -136.35 M-24.75 -99.05 Q-26.2 -100.25 -29.05 -99.8 -26.35 -102.45 -22.7 -102.65 -21.1 -108.9 -21.95 -115.1 -17.45 -118.7 -11.8 -118.1 -16.55 -116.85 -18.45 -114.6 -17.6 -107.85 -20.55 -101.5 -21.4 -98.65 -26.45 -95.75 L-29.0 -94.45 Q-27.3 -97.25 -24.75 -99.05" fill="#000000" fill-opacity="0.4" fill-rule="evenodd" stroke="none"/>
    <path d="M11.55 -139.4 Q13.2 -138.2 14.65 -136.5 L19.15 -132.55 Q18.9 -130.85 17.2 -131.4 12.5 -129.05 7.8 -130.4 L6.8 -131.25 Q7.0 -130.2 6.1 -128.6 11.1 -120.15 13.9 -111.1 L15.35 -105.85 17.35 -103.75 Q19.5 -101.1 20.85 -96.75 18.15 -99.6 15.45 -100.0 15.8 -96.3 13.3 -92.65 11.65 -95.75 7.6 -97.3 4.3 -91.6 -2.85 -89.65 -3.25 -92.6 -4.7 -94.8 -10.9 -89.35 -16.7 -87.6 -19.3 -91.95 -20.3 -94.3 -23.4 -92.1 -24.9 -89.85 -27.35 -92.75 -26.45 -95.75 -21.4 -98.65 -20.55 -101.5 -17.6 -107.85 -18.45 -114.6 -16.55 -116.85 -11.8 -118.1 -17.45 -118.7 -21.95 -115.1 L-22.0 -115.1 -24.85 -114.55 Q-29.1 -118.3 -30.7 -122.0 L-30.9 -122.55 Q-33.3 -123.35 -32.4 -126.85 -29.95 -131.4 -26.55 -134.6 L-29.15 -132.8 -29.45 -132.6 Q-30.15 -134.2 -29.25 -135.45 L-28.3 -136.35 Q-28.35 -135.45 -27.5 -135.05 -26.65 -134.45 -26.35 -136.2 -27.05 -138.15 -28.15 -137.1 L-28.5 -137.55 Q-29.35 -139.05 -27.55 -140.45 L-25.9 -139.15 Q-25.2 -141.6 -19.75 -148.0 L-16.9 -148.5 Q-13.25 -148.65 -9.6 -149.7 L-9.25 -149.75 Q-4.55 -150.9 0.4 -148.05 -0.75 -147.4 -0.6 -146.2 0.55 -144.1 2.8 -143.1 8.0 -148.75 9.4 -154.4 8.05 -148.2 5.05 -142.4 L7.9 -141.5 Q11.65 -146.2 12.15 -151.15 12.5 -146.45 9.95 -140.5 L11.55 -139.4 M0.8 -139.15 L0.7 -139.15 0.8 -139.05 Q5.4 -131.8 15.65 -132.45 12.0 -133.85 9.5 -136.25 5.6 -139.55 0.8 -139.15 M-4.5 -141.05 Q-4.65 -139.5 -5.65 -139.7 -6.0 -139.8 -6.35 -140.0 -8.85 -141.05 -10.15 -138.25 L-10.6 -137.2 Q-11.5 -135.6 -12.95 -136.2 -14.0 -136.8 -12.95 -138.85 -18.0 -137.2 -24.75 -137.1 -24.9 -135.65 -25.3 -135.45 L-25.25 -135.35 -23.65 -136.2 Q-17.7 -137.35 -13.4 -135.3 -11.8 -134.15 -7.4 -135.2 -3.05 -136.25 -4.5 -141.05 M-28.5 -137.55 Q-29.6 -137.35 -30.7 -136.65 -34.35 -141.8 -35.0 -147.3 -33.5 -141.45 -28.5 -137.55" fill="#000000" fill-opacity="0.2" fill-rule="evenodd" stroke="none"/>
    <path d="M-6.35 -140.0 Q-6.0 -139.8 -5.65 -139.7 -5.2 -137.85 -6.95 -136.75 -8.75 -135.65 -10.6 -137.2 L-10.15 -138.25 Q-8.85 -141.05 -6.35 -140.0 M-28.3 -136.35 L-28.15 -137.1 Q-27.05 -138.15 -26.35 -136.2 -26.65 -134.45 -27.5 -135.05 -28.35 -135.45 -28.3 -136.35" fill="#ffffcc" fill-rule="evenodd" stroke="none"/>
    <path d="M0.4 -148.05 Q-0.75 -147.4 -0.6 -146.2 0.55 -144.1 2.8 -143.1 L4.55 -142.5 4.6 -142.45 5.05 -142.4 7.9 -141.5 9.95 -140.5 11.55 -139.4 M-34.8 -125.25 L-35.3 -125.8 Q-36.2 -127.1 -35.95 -128.5 -34.65 -129.9 -32.8 -129.3 L-33.65 -128.35 M7.35 -135.9 Q4.05 -135.4 0.8 -139.05 5.4 -131.8 15.65 -132.45 12.0 -133.85 9.5 -136.25 5.6 -139.55 0.8 -139.15 L0.7 -139.15 0.8 -139.05 M3.3 -125.05 Q5.25 -127.1 6.1 -128.6 M-6.35 -140.0 Q-8.85 -141.05 -10.15 -138.25 L-10.6 -137.2 Q-8.75 -135.65 -6.95 -136.75 -5.2 -137.85 -5.65 -139.7 -6.0 -139.8 -6.35 -140.0 M-5.65 -139.7 Q-4.65 -139.5 -4.5 -141.05 M-12.95 -138.85 Q-14.0 -136.8 -12.95 -136.2 -11.5 -135.6 -10.6 -137.2 M-32.65 -135.1 L-30.7 -136.65 Q-29.6 -137.35 -28.5 -137.55 -29.35 -139.05 -27.55 -140.45 L-27.3 -140.65 Q-24.85 -142.5 -23.45 -144.75 M-28.3 -136.35 L-28.15 -137.1 -28.5 -137.55 M-28.15 -137.1 Q-27.05 -138.15 -26.35 -136.2 -25.75 -135.2 -25.3 -135.45 -24.9 -135.65 -24.75 -137.1 M-38.3 -125.25 Q-39.55 -126.15 -38.3 -127.0 -34.75 -129.35 -33.4 -131.9 -31.65 -135.2 -29.25 -135.45 L-28.3 -136.35 Q-28.35 -135.45 -27.5 -135.05 -26.65 -134.45 -26.35 -136.2 M-23.65 -136.2 L-25.25 -135.35 -26.55 -134.6 -29.15 -132.8 -29.45 -132.6 -32.8 -129.3 M-34.5 -126.95 L-34.8 -125.25 M-29.45 -132.6 Q-30.15 -134.2 -29.25 -135.45 M-32.95 -121.7 Q-31.9 -121.2 -30.7 -122.0 L-29.25 -122.35 -27.65 -122.0 Q-23.3 -120.1 -19.1 -121.0 L-15.05 -120.7 M-11.8 -118.1 Q-17.45 -118.7 -21.95 -115.1" fill="none" stroke="#000000" stroke-linecap="round" stroke-linejoin="round" stroke-width="1.0"/>
    <path d="M-15.05 -120.7 Q-12.15 -119.55 -11.8 -122.85" fill="none" stroke="#000000" stroke-linecap="round" stroke-linejoin="round" stroke-width="1.0"/>
    <path d="M11.55 -139.4 Q15.75 -146.5 14.65 -153.6 13.3 -165.75 1.15 -170.45 6.85 -166.1 6.85 -158.7 7.1 -152.8 2.0 -148.6 L0.4 -148.05 Q-4.55 -150.9 -9.25 -149.75 L-9.6 -149.7 Q-13.25 -148.65 -16.9 -148.5 L-19.75 -148.0 Q-21.8 -147.25 -23.15 -145.25 L-23.45 -144.75 Q-29.05 -146.25 -31.55 -149.5 -36.05 -155.3 -29.55 -161.3 -35.5 -159.6 -37.35 -151.0 -38.7 -143.05 -32.65 -135.1 L-35.35 -131.95 Q-36.75 -130.1 -39.15 -128.25 -40.75 -127.2 -39.95 -126.15 -39.15 -125.5 -38.3 -125.25 -36.9 -124.95 -35.3 -125.8 M11.55 -139.4 Q13.2 -138.2 14.65 -136.5 L19.15 -132.55 Q18.9 -130.85 17.2 -131.4 12.5 -129.05 7.8 -130.4 L6.8 -131.25 Q7.0 -130.2 6.1 -128.6 11.1 -120.15 13.9 -111.1 19.0 -109.3 23.75 -105.05 19.5 -105.25 17.35 -103.75 19.5 -101.1 20.85 -96.75 18.15 -99.6 15.45 -100.0 15.8 -96.3 13.3 -92.65 11.65 -95.75 7.6 -97.3 4.3 -91.6 -2.85 -89.65 -3.25 -92.6 -4.7 -94.8 -10.9 -89.35 -16.7 -87.6 -19.3 -91.95 -20.3 -94.3 -23.4 -92.1 -24.9 -89.85 -27.35 -92.75 -26.45 -95.75 L-29.0 -94.45 Q-27.3 -97.25 -24.75 -99.05 -26.2 -100.25 -29.05 -99.8 -26.35 -102.45 -22.7 -102.65 -21.1 -108.9 -21.95 -115.1 L-22.0 -115.1 -24.85 -114.55 -27.95 -114.5 Q-29.7 -116.1 -32.95 -121.7 L-33.4 -121.95 Q-34.9 -123.1 -34.8 -125.25" fill="none" stroke="#000000" stroke-linecap="round" stroke-linejoin="round" stroke-width="2.0"/>
    <path d="M4.2 -134.35 Q5.15 -132.65 6.8 -131.25 M17.35 -103.75 L15.35 -105.85 13.9 -111.1 M-23.65 -125.65 Q-22.45 -127.6 -21.1 -127.5 -20.0 -127.2 -20.35 -126.0 M-30.75 -125.05 Q-30.6 -126.9 -29.6 -128.85 M-22.7 -102.65 L-23.75 -99.7 -24.75 -99.05 M-4.85 -118.75 Q-0.05 -120.05 2.15 -123.85" fill="none" stroke="#000000" stroke-linecap="round" stroke-linejoin="round" stroke-opacity="0.5019608" stroke-width="1.0"/>
  </g>
</svg>
