<?xml version="1.0" encoding="UTF-8" standalone="no"?>
<svg xmlns:xlink="http://www.w3.org/1999/xlink" height="37.9px" width="49.55px" xmlns="http://www.w3.org/2000/svg">
  <g transform="matrix(1.0, 0.0, 0.0, 1.0, 40.7, 144.0)">
    <path d="M8.85 -109.3 L6.35 -108.35 Q0.8 -106.5 -4.75 -106.15 L-6.1 -106.1 -10.95 -106.25 -14.35 -106.75 Q-13.6 -108.15 -14.2 -110.45 -17.85 -110.25 -22.55 -111.25 L-24.8 -111.85 Q-30.15 -114.3 -34.9 -117.95 L-35.15 -118.2 Q-37.95 -120.95 -39.9 -124.65 L-39.95 -124.75 -40.1 -124.9 Q-41.35 -126.5 -39.95 -128.45 L-36.85 -131.55 Q-37.2 -137.15 -34.7 -137.55 L-34.2 -137.25 Q-33.05 -136.35 -30.35 -137.25 L-28.1 -139.0 Q-30.05 -138.95 -31.45 -139.65 -33.6 -140.9 -34.9 -139.15 -35.55 -140.25 -35.1 -141.3 -34.35 -142.8 -32.05 -142.65 L-23.85 -142.0 -23.05 -142.35 Q-17.25 -145.15 -11.75 -142.55 -9.5 -143.45 -6.65 -143.8 -3.35 -144.65 -0.25 -142.2 0.5 -141.05 0.5 -139.9 5.15 -135.7 7.25 -128.6 9.0 -124.8 8.85 -109.3 M-2.5 -140.55 Q-9.4 -141.05 -13.75 -137.75 L-14.25 -137.4 Q-12.4 -133.45 -8.2 -133.35 -3.65 -133.15 -1.75 -136.15 -0.8 -138.35 -2.5 -140.55" fill="#ffcc99" fill-rule="evenodd" stroke="none"/>
  </g>
</svg>
