<?xml version="1.0" encoding="UTF-8" standalone="no"?>
<svg xmlns:xlink="http://www.w3.org/1999/xlink" height="405.2px" width="314.85px" xmlns="http://www.w3.org/2000/svg">
  <g transform="matrix(1.0, 0.0, 0.0, 1.0, -242.5, -28.15)">
    <path d="M542.65 168.6 Q534.0 161.8 525.1 156.0 545.3 170.8 557.35 190.65 541.95 176.85 525.8 166.2 545.25 182.6 557.0 205.35 532.05 179.6 502.05 163.35 530.55 181.5 548.85 207.0 527.3 189.1 505.2 176.2 532.5 193.2 545.5 226.15 532.25 211.5 517.65 199.4 536.3 216.9 544.55 243.8 529.8 224.45 513.4 208.6 530.8 231.8 535.95 259.85 523.1 239.9 508.35 222.8 523.5 245.9 524.7 280.15 511.9 250.1 494.25 226.15 508.0 251.3 509.9 291.45 499.7 259.4 482.25 232.9 496.7 267.15 494.55 308.5 486.15 274.75 472.8 247.05 483.75 287.9 485.4 325.45 475.1 279.15 456.15 239.5 473.7 291.45 479.4 353.8 472.2 320.4 462.7 289.45 467.3 314.65 466.15 339.9 462.4 321.3 457.7 303.5 L458.4 332.45 Q455.4 315.95 451.8 299.85 453.1 319.0 445.6 341.25 443.35 322.55 440.15 304.35 441.95 335.9 431.5 365.75 431.55 349.0 430.65 332.4 430.8 360.4 419.5 386.9 423.95 338.6 420.45 296.85 418.75 358.15 407.85 421.25 413.5 347.95 407.85 279.45 407.7 356.45 399.9 433.35 392.1 356.45 392.0 279.45 386.35 347.95 392.0 421.25 381.05 358.15 379.4 296.85 375.85 338.6 380.35 386.9 369.05 360.4 369.15 332.4 368.25 349.0 368.35 365.75 357.85 335.9 359.7 304.35 356.5 322.55 354.2 341.25 346.75 319.0 348.05 299.85 344.4 315.95 341.4 332.45 L342.15 303.5 Q337.45 321.3 333.7 339.9 332.5 314.65 337.15 289.45 327.65 320.4 320.4 353.8 326.15 291.45 343.7 239.5 324.7 279.15 314.45 325.45 316.05 287.9 327.05 247.05 313.65 274.75 305.3 308.5 303.15 267.15 317.55 232.9 300.15 259.4 289.95 291.45 291.8 251.3 305.6 226.15 287.9 250.1 275.1 280.15 276.35 245.9 291.5 222.8 276.75 239.9 263.85 259.85 269.0 231.8 286.45 208.6 270.05 224.45 255.3 243.8 263.55 216.9 282.2 199.4 267.6 211.5 254.3 226.15 267.3 193.2 294.6 176.2 272.5 189.1 251.0 207.0 269.25 181.5 297.8 163.35 267.75 179.6 242.8 205.35 254.6 182.6 274.0 166.2 257.9 176.85 242.5 190.65 254.5 170.8 274.75 156.0 265.8 161.8 257.2 168.6 273.9 144.5 298.85 130.6 280.5 139.35 263.05 154.0 286.7 117.9 325.55 109.5 294.75 113.5 266.3 133.7 292.95 98.4 337.6 100.55 307.55 97.3 271.35 108.35 293.45 92.15 319.65 89.75 296.85 89.45 269.2 95.35 304.25 79.6 340.65 84.45 317.1 77.15 287.2 77.3 321.85 69.4 352.8 80.45 339.6 73.0 323.2 68.4 340.7 68.55 358.2 76.1 346.35 68.75 331.8 64.4 351.7 67.0 364.9 75.25 348.7 63.65 328.6 57.9 348.55 59.6 363.15 67.8 353.65 60.6 342.25 55.05 369.05 61.6 382.8 80.85 366.65 57.35 337.25 45.3 364.1 52.3 382.65 74.25 375.75 57.05 356.7 38.55 386.7 53.9 393.6 89.9 389.7 66.3 381.5 42.1 390.5 54.55 395.1 69.5 399.25 49.65 399.9 28.15 400.55 49.65 404.75 69.5 409.35 54.55 418.3 42.1 410.1 66.3 406.2 89.9 413.1 53.9 443.15 38.55 424.1 57.05 417.2 74.25 435.75 52.3 462.55 45.3 433.2 57.35 417.0 80.85 430.8 61.6 457.55 55.05 446.2 60.6 436.7 67.8 451.25 59.6 471.2 57.9 451.15 63.65 434.95 75.25 448.15 67.0 468.05 64.4 453.45 68.75 441.65 76.1 459.15 68.55 476.6 68.4 460.25 73.0 447.05 80.45 478.0 69.4 512.6 77.3 482.7 77.15 459.2 84.45 495.6 79.6 530.65 95.35 503.0 89.45 480.2 89.75 506.4 92.15 528.5 108.35 492.3 97.3 462.25 100.55 506.9 98.4 533.55 133.7 505.1 113.5 474.25 109.5 513.15 117.9 536.8 154.0 519.3 139.35 501.0 130.6 525.95 144.5 542.65 168.6" fill="#000000" fill-rule="evenodd" stroke="none"/>
  </g>
</svg>
