<?xml version="1.0" encoding="UTF-8" standalone="no"?>
<svg xmlns:xlink="http://www.w3.org/1999/xlink" height="23.0px" width="53.95px" xmlns="http://www.w3.org/2000/svg">
  <g transform="matrix(1.0, 0.0, 0.0, 1.0, -370.7, -122.5)">
    <path d="M375.75 128.85 Q371.5 136.4 371.2 145.0 373.8 140.2 376.5 136.8 L377.95 135.1 379.0 134.0 Q379.1 138.3 380.5 142.65 384.3 134.15 389.05 130.25 386.35 134.25 386.25 139.55 391.1 131.25 399.4 125.95 396.95 131.4 396.2 137.3 397.9 134.25 399.9 131.6 403.35 126.85 407.8 123.0 405.65 129.0 406.15 135.1 408.55 128.15 412.7 124.0 416.9 123.1 420.05 126.7 421.6 131.35 422.2 136.8 L424.15 136.8" fill="none" stroke="#000000" stroke-linecap="round" stroke-linejoin="round" stroke-opacity="0.5019608" stroke-width="1.0"/>
  </g>
</svg>
