<?xml version="1.0" encoding="UTF-8" standalone="no"?>
<svg xmlns:xlink="http://www.w3.org/1999/xlink" height="100.15px" width="56.35px" xmlns="http://www.w3.org/2000/svg">
  <g transform="matrix(1.0, 0.0, 0.0, 1.0, -371.8, -96.25)">
    <path d="M376.45 122.25 Q382.95 109.45 400.0 111.2 417.0 109.45 423.5 122.25 L422.9 118.8 Q418.55 105.2 400.0 104.45 381.4 105.2 377.05 118.8 L376.45 122.25 Q375.5 129.05 376.45 136.8 M377.6 143.15 L377.75 136.8 Q378.15 133.05 379.0 129.7 378.2 127.7 378.1 125.3 M379.0 129.7 Q380.3 132.85 383.3 135.0 383.15 128.6 387.05 125.4 386.65 130.55 389.8 135.1 392.1 126.6 400.0 123.6 407.85 126.6 410.2 135.1 413.3 130.55 412.9 125.4 416.8 128.6 416.7 135.0 419.65 132.85 420.95 129.7 421.75 127.7 421.9 125.3 M420.95 129.7 Q421.8 133.05 422.2 136.8 L422.35 143.15 M423.5 136.8 Q424.5 129.05 423.5 122.25" fill="none" stroke="#000000" stroke-linecap="round" stroke-linejoin="round" stroke-opacity="0.5019608" stroke-width="1.0"/>
    <path d="M376.45 136.8 Q375.5 165.7 372.3 195.9 376.7 169.3 377.6 143.15 M423.5 136.8 L426.0 128.35 Q427.45 120.85 425.7 112.95 422.0 96.75 399.8 96.75 377.95 96.75 374.25 112.95 372.5 120.85 374.0 128.35 L376.45 136.8 M422.35 143.15 Q423.25 169.3 427.65 195.9 424.5 165.7 423.5 136.8" fill="none" stroke="#000000" stroke-linecap="round" stroke-linejoin="round" stroke-width="1.0"/>
  </g>
</svg>
