<?xml version="1.0" encoding="UTF-8" standalone="no"?>
<svg xmlns:xlink="http://www.w3.org/1999/xlink" height="39.85px" width="59.4px" xmlns="http://www.w3.org/2000/svg">
  <g transform="matrix(1.0, 0.0, 0.0, 1.0, -370.3, -97.45)">
    <path d="M375.65 134.15 L375.75 134.15 379.0 129.8 Q381.9 125.1 382.8 119.75 383.55 117.3 384.95 115.0 386.15 113.05 387.75 111.3 393.75 105.55 400.0 117.5 406.2 105.55 412.2 111.3 L415.05 115.0 Q416.4 117.3 417.15 119.75 418.05 125.1 420.95 129.85 L424.3 134.15 M415.05 115.0 Q406.8 115.1 400.0 117.5 393.15 115.1 384.95 115.0 M375.85 136.8 L377.75 136.8 Q378.15 133.1 379.0 129.8 M420.95 129.85 Q421.8 133.1 422.2 136.8 L424.15 136.8" fill="none" stroke="#000000" stroke-linecap="round" stroke-linejoin="round" stroke-opacity="0.49803922" stroke-width="1.0"/>
    <path d="M424.3 134.15 Q431.0 123.15 428.5 116.95 425.85 109.35 420.25 103.45 410.1 93.4 400.0 101.75 389.85 93.4 379.7 103.45 374.1 109.35 371.45 116.95 369.0 123.15 375.65 134.15 M375.75 134.15 L375.85 136.8 M424.15 136.8 L424.3 134.15" fill="none" stroke="#000000" stroke-linecap="round" stroke-linejoin="round" stroke-width="1.0"/>
  </g>
</svg>
