<?xml version="1.0" encoding="UTF-8" standalone="no"?>
<svg xmlns:xlink="http://www.w3.org/1999/xlink" height="71.65px" width="84.65px" xmlns="http://www.w3.org/2000/svg">
  <g transform="matrix(1.0, 0.0, 0.0, 1.0, -357.65, -97.45)">
    <path d="M400.0 101.75 Q389.85 93.4 379.7 103.45 374.1 109.35 371.45 116.95 L370.95 118.6 Q369.95 122.45 367.2 125.55 362.1 132.1 359.4 140.25 355.15 151.9 365.4 160.65 L374.2 168.6 M400.0 101.75 Q410.1 93.4 420.25 103.45 425.85 109.35 428.5 116.95 L429.05 118.6 Q430.0 122.45 432.75 125.55 437.85 132.1 440.55 140.25 444.85 151.9 434.55 160.65 L425.8 168.6" fill="none" stroke="#000000" stroke-linecap="round" stroke-linejoin="round" stroke-width="1.0"/>
    <path d="M374.2 168.6 L375.1 159.75 Q370.3 156.5 371.9 150.75 374.5 146.4 376.5 142.0 L376.65 141.75 Q380.55 132.85 381.9 123.65 L382.8 119.75 Q383.55 117.3 384.95 115.0 386.15 113.05 387.75 111.3 393.75 105.55 400.0 117.5 L400.0 101.75 M425.8 168.6 L424.85 159.75 423.45 142.0 423.3 141.75 Q419.4 132.85 418.05 123.65 417.45 121.7 417.15 119.75 416.4 117.3 415.0 115.0 406.8 115.1 400.0 117.5 393.15 115.1 384.95 115.0 M376.5 142.0 L375.1 159.75 M415.0 115.0 Q413.8 113.05 412.2 111.3 406.2 105.55 400.0 117.5 M424.85 159.75 Q429.7 156.5 428.05 150.75 425.45 146.4 423.45 142.0" fill="none" stroke="#000000" stroke-linecap="round" stroke-linejoin="round" stroke-opacity="0.5019608" stroke-width="1.0"/>
  </g>
</svg>
