<?xml version="1.0" encoding="UTF-8" standalone="no"?>
<svg xmlns:xlink="http://www.w3.org/1999/xlink" height="55.0px" width="62.8px" xmlns="http://www.w3.org/2000/svg">
  <g transform="matrix(1.0, 0.0, 0.0, 1.0, -368.3, -91.85)">
    <path d="M426.15 135.35 L425.45 137.1 Q424.5 138.95 422.6 140.45 421.8 142.5 422.25 144.55 425.8 141.85 428.0 137.0 429.7 132.45 428.0 126.65 429.6 126.4 429.7 128.15 430.85 123.75 427.85 119.3 429.6 118.75 430.6 119.3 430.0 116.2 426.35 113.4 427.85 113.45 429.1 114.45 427.95 111.65 424.4 110.0 426.3 108.15 429.6 107.85 424.4 104.75 418.55 103.5 422.45 102.4 423.85 99.95 416.75 99.25 410.5 99.95 413.15 96.5 413.3 92.35 L403.3 100.05 Q402.3 96.7 403.3 93.3 400.0 96.55 399.2 99.8 395.35 97.2 391.15 97.3 388.2 95.6 386.6 93.05 386.9 96.75 389.45 99.15 L390.1 99.8 M389.45 99.15 Q385.05 98.6 379.9 100.9 L376.15 101.1 Q377.95 103.3 381.35 104.35 374.45 106.5 369.45 111.5 372.35 111.7 373.8 113.05 370.65 114.9 370.2 116.7 L371.95 116.6 372.4 116.7 M376.8 137.1 Q378.2 139.6 380.1 141.1 381.45 142.2 383.1 142.85 L380.1 135.75 Q376.65 131.6 374.9 125.4 M371.95 116.6 Q371.7 121.4 368.8 124.7 L369.95 124.65 Q370.8 132.3 374.05 137.6 377.25 142.8 381.35 146.35 380.6 143.8 380.1 141.1 M380.1 135.75 Q382.95 139.2 387.0 141.35 383.1 135.7 382.7 130.7 384.1 134.2 386.7 136.0 384.5 131.0 386.7 124.3 388.85 132.25 394.85 137.5 396.3 133.05 396.35 127.9 397.95 132.45 397.3 137.0 400.0 132.45 400.3 124.85 L400.3 119.95 M424.95 132.95 Q423.55 137.3 420.45 139.55 419.55 141.5 420.45 143.1 420.85 141.6 422.6 140.45 M400.3 124.85 Q403.5 130.45 407.7 134.05 406.15 129.05 406.7 123.65 410.3 128.6 411.75 133.5 413.35 129.25 411.75 123.6 415.65 128.8 413.95 137.3 417.15 133.85 419.5 129.95 L420.3 128.5 M419.5 129.95 Q420.3 136.15 416.3 141.4 418.7 140.85 420.45 139.55" fill="none" stroke="#000000" stroke-linecap="round" stroke-linejoin="round" stroke-width="1.0"/>
  </g>
</svg>
