<?xml version="1.0" encoding="UTF-8" standalone="no"?>
<svg xmlns:xlink="http://www.w3.org/1999/xlink" height="82.1px" width="63.95px" xmlns="http://www.w3.org/2000/svg">
  <g transform="matrix(1.0, 0.0, 0.0, 1.0, -368.85, -100.1)">
    <path d="M424.75 164.15 Q426.05 182.25 432.3 181.7 426.3 178.15 427.4 159.75 430.4 108.05 416.05 104.9 411.05 105.75 410.65 101.95 374.2 94.35 371.85 129.65 374.45 153.95 369.35 170.85 373.2 165.4 374.95 156.15 376.3 167.55 381.8 177.95 377.05 162.35 377.8 148.75 378.35 138.75 382.0 129.9 393.5 125.55 406.15 117.55 L407.45 116.7 408.9 115.8 M407.45 116.7 Q417.25 127.3 420.9 140.25 423.9 150.85 423.2 163.0 422.75 171.5 417.15 177.8 423.1 174.45 424.75 164.15" fill="none" stroke="#000000" stroke-linecap="round" stroke-linejoin="round" stroke-width="1.0"/>
    <path d="M392.1 110.4 Q385.9 116.9 384.3 123.4 390.95 115.55 400.25 110.55 M384.3 123.4 L383.35 126.0 382.0 129.9 Q392.85 121.7 401.6 112.7 M374.95 156.15 Q374.5 152.55 374.45 148.75 M424.75 164.15 L425.35 158.3" fill="none" stroke="#000000" stroke-linecap="round" stroke-linejoin="round" stroke-opacity="0.49803922" stroke-width="1.0"/>
  </g>
</svg>
