<?xml version="1.0" encoding="UTF-8" standalone="no"?>
<svg xmlns:xlink="http://www.w3.org/1999/xlink" height="92.6px" width="64.25px" xmlns="http://www.w3.org/2000/svg">
  <g transform="matrix(1.0, 0.0, 0.0, 1.0, -367.7, -146.15)">
    <path d="M374.75 146.7 Q375.5 147.05 375.4 148.5 375.4 149.95 374.65 151.9 L373.4 154.0 373.55 154.95 374.75 154.75 Q375.5 155.05 375.4 156.55 375.4 157.9 374.65 159.85 L373.4 162.0 373.55 162.8 Q374.25 162.4 374.75 162.55 375.5 162.95 375.4 164.35 375.4 165.8 374.65 167.75 L373.4 169.9 373.45 170.15 373.55 170.1 374.75 169.9 Q375.5 170.2 375.4 171.7 375.4 173.05 374.65 175.0 L373.4 177.15 373.45 177.3 373.45 177.25 373.55 177.15 374.75 176.95 Q375.5 177.3 375.4 178.8 375.4 180.15 374.65 182.1 L373.4 184.25 373.45 184.85 373.55 184.75 374.75 184.55 Q375.5 184.9 375.4 186.4 375.4 187.75 374.65 189.7 L373.4 191.85 373.6 192.75 Q374.25 192.3 374.75 192.5 375.5 192.9 375.4 194.3 375.4 195.75 374.65 197.65 L373.4 199.85 373.45 200.05 373.55 200.0 373.6 200.0 Q374.25 199.6 374.75 199.8 375.5 200.1 375.4 201.6 375.4 202.95 374.65 204.9 L373.4 207.05 373.55 207.85 373.6 207.85 Q374.25 207.45 374.75 207.6 375.5 207.95 375.4 209.4 375.4 210.85 374.65 212.8 L373.4 214.95 373.6 215.95 373.65 216.4 Q374.25 216.05 374.75 216.25 375.5 216.55 375.4 218.05 375.4 219.4 374.65 221.35 L374.3 222.1 376.0 222.1 376.0 228.5 375.1 228.5 Q378.55 232.2 377.15 237.6 L375.95 236.0 Q373.15 239.65 369.95 237.35 371.05 236.4 371.1 235.35 369.05 235.6 368.2 233.85 370.6 233.2 369.65 228.5 L368.85 228.5 368.85 222.2 368.7 220.7 Q368.8 219.2 369.5 218.9 L370.55 219.0 370.75 219.2 371.0 219.4 371.1 219.55 371.1 219.6 371.25 219.4 371.3 219.2 371.4 219.2 371.4 219.15 371.65 218.7 371.1 218.25 Q370.15 217.25 369.45 215.45 368.7 213.55 368.7 212.15 368.8 210.65 369.5 210.3 L370.55 210.45 370.75 210.55 371.0 210.85 371.1 210.95 371.1 211.05 371.25 210.85 371.3 210.65 371.1 210.45 Q370.15 209.4 369.45 207.6 368.7 205.75 368.7 204.25 368.8 202.85 369.5 202.45 L370.55 202.6 370.75 202.75 Q370.0 201.8 369.45 200.35 368.7 198.5 368.7 197.0 368.8 195.55 369.5 195.25 L370.55 195.3 371.0 195.75 371.1 195.8 371.1 195.9 371.25 195.75 371.3 195.55 371.4 195.5 371.1 195.25 Q370.15 194.2 369.45 192.35 368.7 190.55 368.7 189.05 368.8 187.65 369.5 187.25 L370.55 187.35 371.0 187.75 371.1 187.9 371.1 187.95 371.25 187.75 371.1 187.65 Q370.15 186.6 369.45 184.75 368.7 182.95 368.7 181.45 368.8 180.0 369.5 179.65 L370.55 179.75 369.45 177.7 Q368.7 175.85 368.7 174.35 368.8 172.95 369.5 172.55 L370.55 172.7 371.0 173.05 Q370.1 172.1 369.45 170.4 368.7 168.5 368.7 167.1 368.8 165.6 369.5 165.25 L370.55 165.4 371.1 166.0 371.3 165.6 371.1 165.4 Q370.15 164.35 369.45 162.55 368.7 160.7 368.7 159.2 368.8 157.8 369.5 157.4 L370.55 157.55 371.1 158.1 371.4 157.65 371.1 157.35 Q370.15 156.35 369.45 154.55 368.7 152.65 368.7 151.25 368.8 149.75 369.5 149.4 L370.55 149.55 371.1 150.1 372.1 148.45 372.9 147.4 Q374.0 146.5 374.75 146.7 M427.55 148.45 L428.5 150.1 429.1 149.55 430.15 149.4 Q430.85 149.75 430.9 151.25 430.9 152.65 430.2 154.55 429.5 156.35 428.5 157.35 L428.25 157.65 428.5 158.1 429.1 157.55 430.15 157.4 Q430.85 157.8 430.9 159.2 430.9 160.7 430.2 162.55 429.5 164.35 428.5 165.4 L428.3 165.6 428.5 166.0 429.1 165.4 430.15 165.25 Q430.85 165.6 430.9 167.1 430.9 168.5 430.2 170.4 429.55 172.1 428.65 173.05 L429.1 172.7 430.15 172.55 Q430.85 172.95 430.9 174.35 430.9 175.85 430.2 177.7 L429.1 179.75 430.15 179.65 Q430.85 180.0 430.9 181.45 430.9 182.95 430.2 184.75 429.5 186.6 428.5 187.65 L428.4 187.75 428.5 187.95 428.5 187.9 428.65 187.75 429.1 187.35 430.15 187.25 Q430.85 187.65 430.9 189.05 430.9 190.55 430.2 192.35 429.5 194.2 428.5 195.25 L428.25 195.5 428.3 195.55 428.4 195.75 428.5 195.9 428.5 195.8 428.65 195.75 429.1 195.3 430.15 195.25 Q430.85 195.55 430.9 197.0 430.9 198.5 430.2 200.35 L428.9 202.75 429.1 202.6 430.15 202.45 Q430.85 202.85 430.9 204.25 430.9 205.75 430.2 207.6 429.5 209.4 428.5 210.45 L428.3 210.65 428.4 210.85 428.5 211.05 428.5 210.95 428.65 210.85 428.9 210.55 429.1 210.45 430.15 210.3 Q430.85 210.65 430.9 212.15 430.9 213.55 430.2 215.45 429.5 217.25 428.5 218.25 L428.0 218.7 428.25 219.15 428.25 219.2 428.3 219.2 428.4 219.4 428.5 219.6 428.5 219.55 428.65 219.4 428.9 219.2 429.1 219.0 430.15 218.9 Q430.85 219.2 430.9 220.7 L430.8 222.2 430.8 228.5 430.0 228.5 Q429.05 233.2 431.45 233.85 430.6 235.6 428.5 235.35 428.6 236.4 429.7 237.35 426.5 239.65 423.7 236.0 L422.45 237.6 Q421.1 232.2 424.55 228.5 L423.65 228.5 423.65 222.1 425.35 222.1 425.0 221.35 Q424.2 219.4 424.2 218.05 424.15 216.55 424.85 216.25 L426.0 216.4 426.05 215.95 426.25 214.95 425.0 212.8 Q424.2 210.85 424.2 209.4 424.15 207.95 424.85 207.6 425.4 207.45 426.05 207.85 L426.1 207.85 426.25 207.05 425.0 204.9 Q424.2 202.95 424.2 201.6 424.15 200.1 424.85 199.8 L426.05 200.0 426.1 200.0 426.15 200.05 426.25 199.85 425.0 197.65 Q424.2 195.75 424.2 194.3 424.15 192.9 424.85 192.5 425.4 192.3 426.05 192.75 L426.25 191.85 425.0 189.7 Q424.2 187.75 424.2 186.4 424.15 184.9 424.85 184.55 L426.1 184.75 426.15 184.85 426.25 184.25 425.0 182.1 Q424.2 180.15 424.2 178.8 424.15 177.3 424.85 176.95 L426.1 177.15 426.15 177.25 426.15 177.3 426.25 177.15 425.0 175.0 Q424.2 173.05 424.2 171.7 424.15 170.2 424.85 169.9 L426.1 170.1 426.15 170.15 426.25 169.9 425.0 167.75 Q424.2 165.8 424.2 164.35 424.15 162.95 424.85 162.55 425.4 162.4 426.1 162.8 L426.25 162.0 425.0 159.85 Q424.2 157.9 424.2 156.55 424.15 155.05 424.85 154.75 L426.1 154.95 426.25 154.0 425.0 151.9 Q424.2 149.95 424.2 148.5 424.15 147.05 424.85 146.7 425.65 146.5 426.75 147.4 L427.55 148.45" fill="none" stroke="#000000" stroke-linecap="round" stroke-linejoin="round" stroke-width="1.0"/>
    <path d="M373.4 154.0 L373.0 153.1 Q372.3 151.25 371.25 150.2 L371.1 150.1 M373.4 162.0 L373.0 161.1 Q372.3 159.2 371.25 158.25 L371.1 158.1 M371.4 157.65 L372.1 156.5 372.9 155.45 Q373.25 155.15 373.55 154.95 M373.55 162.8 L372.9 163.25 372.1 164.3 371.4 165.45 371.3 165.6 M373.4 169.9 L373.0 168.9 Q372.3 167.1 371.25 166.05 L371.1 166.0 M371.0 173.05 L371.1 173.2 371.1 173.25 371.3 172.95 371.4 172.8 372.1 171.65 372.9 170.6 373.45 170.15 M370.55 179.75 L371.0 180.15 371.1 180.3 371.1 180.35 371.3 180.0 371.4 179.9 372.1 178.7 372.9 177.7 373.45 177.3 M373.4 177.15 L373.0 176.25 Q372.3 174.35 371.25 173.4 L371.1 173.25 M373.4 184.25 L373.0 183.35 Q372.5 181.95 371.85 181.2 L371.25 180.5 371.1 180.35 M371.25 187.75 L371.3 187.65 371.4 187.5 372.1 186.35 372.9 185.3 373.45 184.9 373.45 184.85 M373.4 191.85 L373.0 190.95 Q372.5 189.6 371.85 188.8 L371.25 188.1 371.1 187.95 M373.6 192.75 L373.55 192.75 373.45 192.85 373.45 192.9 372.9 193.2 372.1 194.25 371.4 195.45 371.4 195.5 M371.1 195.9 L371.25 196.0 371.85 196.75 Q372.5 197.55 373.0 198.85 L373.4 199.85 M428.5 150.1 L428.4 150.2 Q427.35 151.25 426.65 153.1 L426.25 154.0 M428.5 158.1 L428.4 158.25 Q427.35 159.2 426.65 161.1 L426.25 162.0 M428.25 157.65 L427.55 156.5 426.75 155.45 426.1 154.95 M428.3 165.6 L428.25 165.45 427.55 164.3 426.75 163.25 426.1 162.8 M426.25 169.9 L426.65 168.9 Q427.35 167.1 428.4 166.05 L428.5 166.0 M426.25 177.15 L426.65 176.25 Q427.35 174.35 428.4 173.4 L428.5 173.25 428.3 172.95 428.25 172.8 427.55 171.65 426.75 170.6 426.15 170.15 M428.65 173.05 L428.5 173.2 428.5 173.25 M426.25 184.25 L426.65 183.35 Q427.15 181.95 427.8 181.2 L428.4 180.5 428.5 180.35 428.3 180.0 428.25 179.9 427.55 178.7 426.75 177.7 426.15 177.3 M429.1 179.75 L428.65 180.15 428.5 180.3 428.5 180.35 M426.15 184.85 L426.15 184.9 426.75 185.3 427.55 186.35 428.25 187.5 428.3 187.65 428.4 187.75 M428.5 187.95 L428.4 188.1 427.8 188.8 Q427.15 189.6 426.65 190.95 L426.25 191.85 M426.05 192.75 L426.1 192.75 426.15 192.85 426.15 192.9 426.75 193.2 427.55 194.25 428.25 195.45 428.25 195.5 M428.5 195.9 L428.4 196.0 427.8 196.75 Q427.15 197.55 426.65 198.85 L426.25 199.85 M426.15 200.05 L426.15 200.1 426.75 200.5 427.55 201.55 428.25 202.7 428.25 202.75 428.3 202.85 428.4 202.95 428.5 203.15 428.5 203.1 428.65 202.95 428.9 202.75 428.5 203.15 428.5 203.25 428.1 203.55 427.8 204.0 Q427.15 204.8 426.65 206.15 L426.25 207.05 M428.5 203.15 L428.4 203.3 428.1 203.55 M428.3 210.65 L428.25 210.55 428.25 210.5 427.55 209.35 426.75 208.3 426.15 207.95 426.15 207.9 426.1 207.85 M426.25 214.95 L426.65 213.95 Q427.15 212.65 427.8 211.8 L428.1 211.4 428.4 211.1 428.5 211.05 M428.0 218.7 L427.55 218.0 426.75 216.9 426.15 216.55 426.15 216.5 426.1 216.4 426.0 216.4 M430.8 222.2 L430.8 222.1 426.8 222.1 425.35 222.1 M428.5 219.6 L428.4 219.75 428.1 220.0 427.8 220.4 426.8 222.1 M424.55 228.5 L430.0 228.5 M373.45 200.05 L373.45 200.1 372.9 200.5 372.1 201.55 371.4 202.7 371.4 202.75 371.3 202.85 371.25 202.95 371.1 203.15 371.25 203.3 371.5 203.55 371.85 204.0 Q372.5 204.8 373.0 206.15 L373.4 207.05 M370.75 202.75 L370.9 202.9 371.0 202.95 371.1 203.1 371.1 203.15 370.9 202.9 M371.1 203.15 L371.1 203.25 371.5 203.55 M373.55 207.85 L373.45 207.9 373.45 207.95 372.9 208.3 372.1 209.35 371.4 210.5 371.4 210.55 371.3 210.65 M373.4 214.95 L373.0 213.95 Q372.5 212.65 371.85 211.8 L371.5 211.4 371.25 211.1 371.1 211.05 M373.65 216.4 L373.55 216.4 373.45 216.5 373.45 216.55 372.9 216.9 372.1 218.0 371.65 218.7 M374.3 222.1 L372.8 222.1 368.85 222.1 368.85 222.2 M371.1 219.6 L371.25 219.75 371.5 220.0 371.85 220.4 372.8 222.1 M375.1 228.5 L369.65 228.5" fill="none" stroke="#000000" stroke-linecap="round" stroke-linejoin="round" stroke-opacity="0.5019608" stroke-width="1.0"/>
  </g>
</svg>
