<?xml version="1.0" encoding="UTF-8" standalone="no"?>
<svg xmlns:xlink="http://www.w3.org/1999/xlink" height="29.4px" width="59.0px" xmlns="http://www.w3.org/2000/svg">
  <g transform="matrix(1.0, 0.0, 0.0, 1.0, 29.7, 198.0)">
    <path d="M-26.55 -189.55 Q-25.15 -194.45 -22.4 -198.0 -24.25 -191.5 -23.55 -185.0 -24.45 -179.75 -24.5 -168.6 -29.65 -175.1 -29.7 -181.75 L-27.85 -179.25 Q-27.85 -185.0 -26.55 -189.55 M24.1 -168.6 Q24.05 -179.25 23.25 -184.5 L23.1 -185.0 23.2 -185.0 Q23.7 -191.35 21.95 -198.0 24.75 -194.45 26.1 -189.55 27.4 -185.0 27.4 -179.25 L29.3 -181.75 Q29.25 -175.1 24.1 -168.6" fill="#000000" fill-opacity="0.2" fill-rule="evenodd" stroke="none"/>
  </g>
</svg>
