<?xml version="1.0" encoding="UTF-8" standalone="no"?>
<svg xmlns:xlink="http://www.w3.org/1999/xlink" height="36.2px" width="67.95px" xmlns="http://www.w3.org/2000/svg">
  <g transform="matrix(1.0, 0.0, 0.0, 1.0, 34.25, 200.35)">
    <path d="M33.7 -166.35 Q15.85 -160.0 -0.3 -172.1 -5.1 -175.75 -9.75 -181.0 -13.3 -172.4 -21.15 -168.25 -29.0 -164.1 -34.25 -166.35 -26.55 -171.9 -29.05 -186.9 -26.55 -179.55 -26.55 -171.9 L-26.55 -170.55 Q-18.15 -173.3 -9.75 -181.0 6.75 -171.75 23.45 -168.05 28.6 -166.95 33.7 -166.35 M-4.75 -198.5 L1.8 -200.35 -8.9 -184.5 -7.95 -200.1 -4.75 -198.5" fill="#000000" fill-opacity="0.2" fill-rule="evenodd" stroke="none"/>
    <path d="M18.7 -171.25 L9.55 -173.6 10.65 -197.35 17.45 -193.55 18.7 -171.25 M-22.7 -173.45 L-21.45 -190.95 -14.6 -196.65 -15.95 -177.3 -22.7 -173.45" fill="#ffffff" fill-opacity="0.2509804" fill-rule="evenodd" stroke="none"/>
  </g>
</svg>
