<?xml version="1.0" encoding="UTF-8" standalone="no"?>
<svg xmlns:xlink="http://www.w3.org/1999/xlink" height="17.1px" width="27.85px" xmlns="http://www.w3.org/2000/svg">
  <g transform="matrix(1.0, 0.0, 0.0, 1.0, -386.05, -108.3)">
    <path d="M394.45 116.0 Q392.25 117.7 392.5 125.4 391.0 119.3 390.5 115.35 L390.45 114.85 Q389.7 114.85 389.2 115.2 387.25 116.45 386.45 121.2 386.0 117.45 386.05 115.0 386.25 108.85 390.25 112.15 389.85 102.35 400.0 117.5 410.1 102.35 409.75 112.15 413.7 108.85 413.9 115.0 413.95 117.45 413.5 121.2 412.7 116.45 410.75 115.2 410.25 114.85 409.55 114.85 L409.45 115.35 Q408.95 119.3 407.45 125.4 407.7 117.7 405.5 116.0 403.7 114.45 400.0 117.5 396.3 114.45 394.45 116.0" fill="#000000" fill-rule="evenodd" stroke="none"/>
  </g>
</svg>
