<?xml version="1.0" encoding="UTF-8" standalone="no"?>
<svg xmlns:xlink="http://www.w3.org/1999/xlink" height="34.45px" width="57.95px" xmlns="http://www.w3.org/2000/svg">
  <g transform="matrix(1.0, 0.0, 0.0, 1.0, -371.0, -97.95)">
    <path d="M376.65 115.0 Q375.75 120.35 375.65 131.8 L375.65 132.1 375.65 132.4 371.0 124.1 374.05 113.7 Q378.45 103.6 387.95 98.9 394.15 96.0 400.0 102.1 405.85 96.0 412.0 98.9 421.5 103.6 425.9 113.7 L428.95 124.1 424.3 131.85 424.3 131.8 Q424.2 120.35 423.3 115.0 L422.1 113.4 Q414.0 103.95 400.0 104.05 385.95 103.95 377.9 113.4 L376.65 115.0" fill="#000000" fill-rule="evenodd" stroke="none"/>
  </g>
</svg>
