<?xml version="1.0" encoding="UTF-8" standalone="no"?>
<svg xmlns:xlink="http://www.w3.org/1999/xlink" height="33.25px" width="49.95px" xmlns="http://www.w3.org/2000/svg">
  <g transform="matrix(1.0, 0.0, 0.0, 1.0, -375.0, -103.55)">
    <path d="M390.45 105.25 L391.2 115.5 Q389.8 116.5 388.0 115.15 L386.7 106.7 Q387.75 104.55 390.45 105.25 M401.8 116.9 L401.8 104.1 Q403.55 102.85 405.2 104.35 L405.2 116.05 Q403.5 117.55 401.8 116.9 M398.15 104.1 L398.15 116.9 Q396.45 117.55 394.8 116.05 L394.8 104.35 Q396.4 102.85 398.15 104.1 M379.95 111.25 Q379.95 108.65 382.75 109.0 L384.85 115.0 Q383.55 115.55 382.1 115.0 L379.95 111.25 M380.5 117.5 L376.45 116.4 Q376.15 115.55 376.2 114.5 376.2 113.4 376.9 113.35 L378.15 113.15 380.5 115.75 380.5 117.5 M376.2 118.55 L380.6 119.1 Q381.5 121.15 381.35 123.15 L375.95 122.25 Q374.75 120.2 376.2 118.55 M375.65 132.1 L378.4 132.5 Q377.95 134.6 377.75 136.8 L375.85 136.8 Q374.7 134.8 375.15 133.55 L375.65 132.1 M378.9 130.15 L375.75 128.95 Q374.7 127.2 375.8 125.55 L379.95 126.55 Q380.15 128.75 378.9 130.15 M420.05 111.25 L417.85 115.0 Q416.4 115.55 415.1 115.0 L417.2 109.0 Q420.0 108.65 420.05 111.25 M409.55 105.25 Q412.2 104.55 413.25 106.7 L411.95 115.15 Q410.2 116.5 408.75 115.5 L409.55 105.25 M423.75 114.5 Q423.85 115.55 423.5 116.4 L419.5 117.5 419.5 115.75 421.8 113.15 423.05 113.35 Q423.75 113.4 423.75 114.5 M419.35 119.1 L423.75 118.55 Q425.2 120.2 424.05 122.25 L418.65 123.15 Q418.45 121.15 419.35 119.1 M424.2 128.95 L421.05 130.15 Q419.8 128.75 420.0 126.55 L424.15 125.55 Q425.25 127.2 424.2 128.95 M424.8 133.55 Q425.25 134.8 424.1 136.8 L422.2 136.8 421.55 132.5 424.3 132.1 424.8 133.55" fill="#000000" fill-rule="evenodd" stroke="none"/>
  </g>
</svg>
