<?xml version="1.0" encoding="UTF-8" standalone="no"?>
<svg xmlns:xlink="http://www.w3.org/1999/xlink" height="49.75px" width="59.25px" xmlns="http://www.w3.org/2000/svg">
  <g transform="matrix(1.0, 0.0, 0.0, 1.0, -368.25, -101.75)">
    <path d="M381.0 137.3 Q400.05 132.5 403.8 118.0 398.3 129.4 380.75 136.3 L379.0 136.8 Q377.15 144.85 380.95 151.5 375.5 147.65 375.3 137.65 L373.4 138.05 Q371.6 135.45 373.65 131.35 372.1 133.05 371.25 134.6 369.95 136.65 369.9 138.4 L369.05 137.3 Q366.7 133.3 371.05 127.3 371.7 121.0 375.1 114.2 384.0 99.5 408.5 102.15 L410.5 104.05 413.7 102.85 Q428.4 113.05 427.45 132.9 425.25 132.95 425.35 134.85 426.25 147.2 419.2 150.05 422.35 146.8 421.45 140.55 421.1 135.55 415.85 134.05 410.6 132.5 411.05 115.4 L410.75 115.85 408.55 119.45 Q398.1 135.05 381.0 137.45 L381.0 137.3" fill="#000000" fill-rule="evenodd" stroke="none"/>
  </g>
</svg>
