<?xml version="1.0" encoding="UTF-8" standalone="no"?>
<svg xmlns:xlink="http://www.w3.org/1999/xlink" height="27.6px" width="190.6px" xmlns="http://www.w3.org/2000/svg">
  <g transform="matrix(1.0, 0.0, 0.0, 1.0, -304.5, -206.15)">
    <path d="M471.05 219.85 Q468.9 217.9 466.0 219.85 464.1 221.15 461.85 224.1 L460.05 226.7 459.9 226.95 Q459.3 227.75 457.6 231.3 L450.2 229.75 447.85 228.75 Q449.15 225.55 450.35 223.25 451.4 221.15 452.35 219.85 L453.1 218.95 Q450.7 212.6 442.1 219.1 L437.05 224.1 430.3 221.2 430.9 220.6 431.6 219.85 432.8 218.65 433.9 217.45 430.9 215.5 Q428.45 214.4 426.35 215.2 424.55 215.9 423.0 218.05 L416.45 215.2 Q419.8 207.8 424.45 206.55 L425.3 206.35 430.9 206.65 Q435.1 207.8 440.0 211.7 L440.05 211.7 Q452.1 202.15 458.7 213.55 L458.75 213.55 459.9 212.75 Q463.15 210.4 466.0 210.1 472.4 209.35 476.5 218.55 482.9 215.95 487.9 219.85 491.9 222.95 495.1 230.3 486.9 225.3 479.55 227.25 476.5 228.05 473.45 230.2 471.25 231.75 469.65 233.75 L461.55 232.1 461.45 232.05 Q463.25 229.05 463.6 228.65 L464.8 227.35 467.1 225.05 Q469.65 222.65 472.0 221.0 L471.05 219.85 M368.7 206.65 L374.3 206.35 375.15 206.55 Q379.8 207.8 383.15 215.2 L376.6 218.05 Q375.05 215.9 373.25 215.2 371.15 214.4 368.7 215.5 367.25 216.15 365.7 217.45 L366.8 218.65 368.0 219.85 368.7 220.6 369.3 221.2 362.55 224.1 357.5 219.1 Q348.9 212.6 346.5 218.95 L347.25 219.85 349.25 223.25 351.75 228.75 349.4 229.75 342.0 231.3 339.7 226.95 339.55 226.7 337.75 224.1 Q335.5 221.15 333.6 219.85 330.7 217.9 328.55 219.85 L327.6 221.0 Q329.95 222.65 332.5 225.05 L334.8 227.35 336.0 228.65 338.15 232.05 338.05 232.1 329.95 233.75 Q328.35 231.75 326.15 230.2 323.1 228.05 320.05 227.25 312.7 225.3 304.5 230.3 307.7 222.95 311.7 219.85 316.7 215.95 323.1 218.55 327.2 209.35 333.6 210.1 336.45 210.4 339.7 212.75 L340.85 213.55 340.9 213.55 Q347.5 202.15 359.55 211.7 L359.6 211.7 Q364.5 207.8 368.7 206.65" fill="#000000" fill-rule="evenodd" stroke="none"/>
  </g>
</svg>
