<?xml version="1.0" encoding="UTF-8" standalone="no"?>
<svg xmlns:xlink="http://www.w3.org/1999/xlink" height="266.8px" width="358.4px" xmlns="http://www.w3.org/2000/svg">
  <g transform="matrix(1.0, 0.0, 0.0, 1.0, -219.85, -123.5)">
    <path d="M538.9 127.4 L538.9 130.15 515.0 137.4 Q511.8 136.35 511.8 133.95 511.8 132.1 513.65 129.45 L539.1 123.5 Q539.0 124.3 539.4 124.95 539.9 125.85 541.15 126.15 L540.1 126.65 538.9 127.4 M538.9 136.25 Q543.75 131.35 545.85 137.25 L540.7 156.3 Q538.55 154.45 535.25 156.3 L538.9 136.25 M496.9 148.1 L463.55 176.45 463.0 176.95 457.5 170.15 491.45 141.9 496.9 148.1 M500.25 177.0 Q501.15 177.9 502.45 177.9 L502.8 177.9 497.65 183.4 496.95 182.7 Q496.15 182.2 495.0 182.2 L494.2 182.3 499.35 175.1 Q499.45 176.2 500.25 177.0 M524.25 167.1 L525.25 168.0 Q524.25 168.65 524.25 169.5 524.25 170.2 524.9 170.75 524.3 171.15 524.3 171.7 L524.3 171.85 504.65 177.0 Q505.55 176.1 505.55 174.8 505.55 173.5 504.65 172.6 L504.15 172.2 524.25 167.1 M497.25 185.1 L497.25 185.2 498.45 191.5 495.45 191.5 493.75 185.6 495.0 185.8 Q496.15 185.8 496.95 185.25 L497.25 185.1 M537.9 178.85 L538.4 178.25 Q539.2 178.05 539.85 177.4 L540.25 176.95 540.3 176.95 541.55 176.5 549.6 199.5 Q548.65 199.15 547.45 199.15 545.85 199.15 544.75 199.75 L544.1 200.25 536.8 179.6 537.9 178.85 M547.25 167.65 Q548.15 168.3 549.4 168.3 L550.5 168.15 548.2 174.0 545.9 174.0 546.7 167.1 547.25 167.65 M547.65 159.5 L548.05 159.75 550.05 160.15 551.3 160.0 551.7 164.75 551.7 164.95 551.45 164.75 Q550.6 164.15 549.4 164.15 L547.95 164.4 548.05 161.5 542.45 165.15 542.4 165.15 Q541.8 164.8 541.1 164.8 L540.35 164.85 540.0 164.05 Q539.45 163.25 538.65 163.25 L538.45 162.2 Q539.65 161.7 540.8 161.15 L546.75 157.5 546.65 158.0 Q546.65 158.9 547.65 159.5 M335.1 176.95 L334.55 176.45 301.2 148.1 306.6 141.9 340.6 170.15 335.1 176.95 M367.85 197.45 L378.25 220.25 374.4 220.6 Q370.55 221.5 368.2 224.85 L368.0 225.25 367.85 225.05 355.55 201.3 Q357.9 196.5 361.25 195.7 364.15 195.0 367.85 197.45 M436.9 195.7 Q440.15 196.5 442.5 201.3 L430.2 225.05 430.15 225.25 429.85 224.85 Q427.5 221.5 423.65 220.6 L419.85 220.25 430.2 197.45 Q433.9 195.0 436.9 195.7 M405.9 235.6 L405.35 237.35 Q403.85 241.4 402.4 243.6 401.15 238.9 399.45 238.9 397.6 238.9 396.25 244.4 394.5 242.25 392.75 237.3 L392.15 235.6 386.25 224.45 Q391.75 220.75 398.4 220.75 L399.05 220.75 399.65 220.75 Q406.35 220.75 411.85 224.45 L405.9 235.6 M409.2 284.95 L413.6 294.95 Q407.35 299.95 399.65 299.95 L399.05 299.95 398.4 299.95 Q390.7 299.95 384.5 294.95 L388.9 284.95 Q390.15 282.1 391.5 279.95 394.1 275.35 396.6 273.65 397.8 277.8 399.45 277.8 401.1 277.8 402.3 273.4 404.85 275.1 407.2 280.05 L409.2 284.95 M424.7 241.95 L425.2 242.8 425.25 242.9 Q428.0 250.8 428.0 260.35 428.0 267.5 426.45 273.75 L425.65 273.2 Q409.4 260.4 418.75 247.0 421.15 244.5 424.7 241.95 M430.65 294.0 L438.9 308.65 Q438.7 310.9 437.8 312.45 435.7 315.65 430.2 315.35 L421.55 299.35 Q425.75 299.25 428.85 296.2 L430.6 294.0 430.65 293.95 430.65 294.0 M372.9 242.9 L372.95 242.8 373.4 241.95 Q376.75 244.9 378.85 247.8 388.05 260.75 371.65 273.75 L371.55 273.4 Q370.05 267.3 370.05 260.35 370.05 250.8 372.9 242.9 M403.75 252.25 L404.55 252.95 Q406.65 255.05 406.65 258.0 406.65 261.0 404.55 263.1 L403.8 263.75 Q401.9 265.2 399.45 265.2 396.95 265.2 395.1 263.75 L394.35 263.1 Q392.25 261.0 392.25 258.0 392.25 255.05 394.35 252.95 L395.1 252.3 Q396.95 250.8 399.45 250.8 401.9 250.8 403.75 252.25 M367.45 294.0 L367.45 293.95 367.55 294.0 369.3 296.2 Q372.3 299.25 376.6 299.35 L367.9 315.35 Q362.35 315.65 360.35 312.45 359.4 310.9 359.15 308.65 L367.45 294.0 M343.4 337.1 L307.15 366.7 301.9 360.25 338.1 331.35 343.4 337.1 M454.65 337.1 L460.0 331.35 496.2 360.25 490.95 366.7 454.65 337.1 M549.85 202.85 L549.7 214.2 549.25 213.85 Q548.45 213.35 547.3 213.35 546.2 213.35 545.4 213.85 L545.8 203.1 547.45 203.3 549.85 202.85 M547.3 216.95 L548.15 216.85 544.55 222.2 542.55 220.15 545.25 216.3 545.4 216.4 Q546.2 216.95 547.3 216.95 M538.95 314.3 L540.25 317.65 538.95 317.5 536.85 317.9 536.7 318.0 536.65 314.3 538.95 314.3 M516.6 369.65 L516.1 368.75 Q515.5 368.2 514.65 368.2 513.8 368.2 513.15 368.75 L514.35 362.05 516.6 363.25 516.6 369.65 520.8 371.95 Q520.5 372.8 520.5 373.9 520.5 375.3 521.05 376.3 L521.15 376.5 521.65 377.05 522.45 377.3 Q523.25 377.3 523.8 376.3 524.35 375.3 524.35 373.9 524.35 372.5 523.8 371.45 L523.25 370.8 536.0 364.0 Q536.35 364.55 537.3 364.55 537.1 365.1 537.35 365.5 537.75 366.15 539.1 366.0 L540.2 365.75 Q539.45 366.8 539.85 367.45 L539.85 367.5 539.95 367.6 539.95 367.65 525.35 375.45 547.1 382.75 Q546.1 384.0 545.6 385.35 544.65 387.8 545.5 390.3 L518.8 380.55 518.7 380.5 Q514.45 377.7 515.5 374.95 515.7 374.25 516.3 373.6 L514.1 372.3 514.65 372.3 Q515.5 372.3 516.1 371.7 516.7 371.1 516.7 370.25 L516.6 369.65 M539.4 330.1 L540.65 330.25 Q542.2 330.25 543.3 329.55 L546.85 352.1 Q546.2 351.6 545.3 351.6 544.2 351.6 543.4 352.35 L543.3 352.5 543.2 352.3 542.5 351.55 539.4 330.1 M538.1 320.45 L538.95 320.5 541.0 320.05 541.05 320.05 541.8 324.7 540.65 324.6 Q539.25 324.6 538.2 325.15 L538.1 320.45 M547.15 370.5 L548.95 370.05 Q550.4 369.45 551.8 368.0 L552.05 368.0 556.8 383.1 Q554.85 387.05 549.95 385.1 L547.15 370.5 M554.65 363.65 Q555.3 363.0 555.3 362.15 555.3 361.35 554.7 360.7 L571.85 362.0 Q571.2 362.25 570.7 362.7 569.85 363.6 569.85 364.85 569.85 365.95 570.5 366.7 L555.35 365.1 555.3 365.1 Q555.3 364.25 554.65 363.65 M572.55 353.85 L578.25 356.85 578.2 358.9 Q578.2 358.15 577.6 357.55 577.05 357.0 576.3 357.0 575.55 357.0 574.95 357.55 L574.65 358.0 572.55 356.15 572.55 353.85 M575.9 364.85 Q575.9 363.6 575.0 362.7 574.15 361.85 572.85 361.85 L571.9 362.0 574.45 359.3 574.95 360.2 Q575.55 360.8 576.3 360.8 577.05 360.8 577.6 360.2 L577.9 359.9 575.85 365.45 575.9 364.85 M286.3 133.95 Q286.25 136.35 283.05 137.4 L259.2 130.15 259.2 127.4 257.95 126.65 256.95 126.15 Q258.2 125.85 258.75 124.95 259.1 124.3 259.0 123.5 L284.4 129.45 Q286.25 132.1 286.3 133.95 M303.05 182.2 Q301.95 182.2 301.1 182.7 300.65 183.0 300.5 183.4 L295.3 177.9 295.65 177.9 Q296.95 177.9 297.85 177.0 298.65 176.2 298.75 175.1 L303.85 182.3 303.05 182.2 M258.25 177.4 Q258.85 178.05 259.65 178.25 L260.15 178.85 261.3 179.6 253.95 200.25 253.35 199.75 Q252.2 199.15 250.65 199.15 L248.5 199.5 256.5 176.5 Q257.05 176.95 257.8 176.95 L257.85 176.95 258.25 177.4 M250.8 167.65 L251.4 167.1 252.15 174.0 249.85 174.0 247.55 168.15 248.7 168.3 Q249.9 168.3 250.8 167.65 M246.75 160.0 L248.0 160.15 250.05 159.75 250.45 159.5 Q251.45 158.9 251.45 158.0 L251.35 157.5 257.35 161.15 259.65 162.2 259.45 163.25 259.4 163.25 Q258.65 163.25 258.1 164.05 257.85 164.4 257.75 164.85 L256.95 164.8 Q256.25 164.8 255.65 165.15 L250.1 161.5 250.15 164.4 248.7 164.15 Q247.5 164.15 246.6 164.75 L246.4 164.95 246.4 164.75 246.75 160.0 M273.8 169.5 Q273.8 168.65 272.8 168.0 273.55 167.55 273.8 167.1 L293.9 172.2 293.4 172.6 Q292.5 173.5 292.5 174.8 292.5 176.1 293.4 177.0 L273.75 171.85 273.75 171.7 Q273.75 171.15 273.15 170.75 273.8 170.2 273.8 169.5 M252.3 137.25 Q254.3 131.35 259.2 136.25 L262.8 156.3 Q259.55 154.45 257.4 156.3 L252.3 137.25 M300.85 185.1 L301.1 185.25 Q301.95 185.8 303.05 185.8 L304.3 185.6 302.6 191.5 299.65 191.5 300.85 185.2 300.85 185.1 M250.65 203.3 L252.3 203.1 252.75 213.9 252.7 213.85 Q251.9 213.35 250.75 213.35 249.65 213.35 248.85 213.85 248.55 214.0 248.4 214.2 L248.3 202.85 250.65 203.3 M252.9 216.3 L255.55 220.15 253.5 222.2 249.9 216.85 250.75 216.95 Q251.9 216.95 252.7 216.4 L252.9 216.3 M225.5 353.85 L225.5 356.15 223.45 358.0 223.15 357.55 Q222.55 357.0 221.8 357.0 221.0 357.0 220.5 357.55 219.9 358.15 219.9 358.9 L219.85 356.85 225.5 353.85 M226.25 362.0 L225.2 361.85 Q223.95 361.85 223.1 362.7 222.2 363.6 222.2 364.85 L222.25 365.45 220.2 359.9 220.5 360.2 Q221.0 360.8 221.8 360.8 222.55 360.8 223.15 360.2 L223.65 359.3 226.25 362.0 M228.2 364.85 Q228.2 363.6 227.35 362.7 L226.3 362.0 243.45 360.7 Q242.8 361.35 242.8 362.15 242.8 363.0 243.45 363.65 242.8 364.25 242.75 365.1 L227.65 366.7 Q228.2 365.95 228.2 364.85 M261.45 314.3 L261.45 318.0 261.25 317.9 259.15 317.5 257.85 317.65 259.15 314.3 261.45 314.3 M257.0 320.05 L257.05 320.05 259.15 320.5 260.0 320.45 259.9 325.15 Q258.8 324.6 257.4 324.6 L256.3 324.7 257.0 320.05 M257.4 330.25 L258.7 330.1 255.6 351.55 Q255.15 351.7 254.85 352.3 L254.75 352.5 254.7 352.35 Q253.85 351.6 252.8 351.6 251.9 351.6 251.2 352.1 L254.8 329.55 Q255.9 330.25 257.4 330.25 M281.45 369.65 L281.45 363.25 283.7 362.05 284.9 368.75 Q284.3 368.2 283.45 368.2 282.6 368.2 282.0 368.75 L281.45 369.65 281.35 370.25 Q281.35 371.1 282.0 371.7 282.6 372.3 283.45 372.3 L284.0 372.3 281.8 373.6 282.6 374.95 Q283.6 377.7 279.4 380.5 L279.3 380.55 252.55 390.3 Q253.4 387.8 252.45 385.35 252.0 384.0 251.0 382.75 L272.75 375.45 258.2 367.65 258.15 367.6 258.3 367.45 Q258.65 366.8 257.85 365.75 L259.05 366.0 Q260.35 366.15 260.75 365.5 L260.8 364.55 Q261.75 364.55 262.1 364.0 L274.85 370.8 274.3 371.45 Q273.7 372.5 273.7 373.9 273.7 375.3 274.3 376.3 274.85 377.3 275.65 377.3 L276.45 377.05 276.9 376.5 277.05 376.3 Q277.6 375.3 277.6 373.9 277.6 372.8 277.25 371.95 L281.45 369.65 M249.15 370.05 L250.95 370.5 248.1 385.1 Q243.25 387.05 241.3 383.1 L246.05 368.0 246.25 368.0 Q247.65 369.45 249.15 370.05" fill="#000000" fill-rule="evenodd" stroke="none"/>
  </g>
</svg>
