<?xml version="1.0" encoding="UTF-8" standalone="no"?>
<svg xmlns:xlink="http://www.w3.org/1999/xlink" height="262.35px" width="77.15px" xmlns="http://www.w3.org/2000/svg">
  <g transform="matrix(1.0, 0.0, 0.0, 1.0, -361.2, -212.9)">
    <path d="M416.4 215.15 L416.25 215.1 Q400.25 211.65 383.3 215.15 L383.15 215.2 380.0 216.55 Q369.6 235.55 380.3 278.85 382.05 286.9 382.85 295.75 L383.45 305.2 383.6 311.6 Q383.55 352.7 367.65 409.6 359.05 440.5 362.85 474.75 399.8 469.2 436.7 474.75 440.5 440.5 431.9 409.55 416.0 352.65 415.95 311.55 L416.1 305.15 Q416.25 300.3 416.7 295.7 417.5 286.85 419.25 278.8 429.95 235.5 419.55 216.5 L416.4 215.15 Z" fill="none" stroke="#000000" stroke-linecap="round" stroke-linejoin="round" stroke-width="1.0"/>
  </g>
</svg>
