<?xml version="1.0" encoding="UTF-8" standalone="no"?>
<svg xmlns:xlink="http://www.w3.org/1999/xlink" height="214.8px" width="71.4px" xmlns="http://www.w3.org/2000/svg">
  <g transform="matrix(1.0, 0.0, 0.0, 1.0, -328.9, -322.95)">
    <path d="M395.2 359.5 L399.8 359.5 M360.85 524.65 L361.1 525.35 Q361.55 526.85 361.6 528.5 363.7 522.85 364.75 516.7 365.6 513.4 365.05 509.5 L365.05 509.25 364.15 506.15 364.95 502.95 362.85 498.45 364.95 488.45 Q367.7 476.0 374.0 464.5 376.0 460.85 378.3 457.35 L378.8 456.3 Q382.15 448.35 380.05 439.7 L376.8 427.4 Q383.85 391.95 395.2 359.5 M335.3 525.9 Q332.35 526.5 329.4 527.8 335.95 520.05 346.0 512.75 L351.55 505.9 351.55 501.45 354.9 498.05 348.8 458.25 Q347.3 448.35 350.35 439.95 L354.8 427.05 Q353.1 374.05 370.4 323.45" fill="none" stroke="#000000" stroke-linecap="round" stroke-linejoin="round" stroke-width="1.0"/>
    <path d="M384.3 349.4 Q390.45 354.45 393.8 359.5 L395.2 359.5 M356.6 431.1 L358.75 438.15 367.75 439.5 370.8 431.55 M360.85 524.65 L359.95 522.7 Q358.85 530.05 356.1 537.25 355.7 534.0 354.05 530.75 352.55 533.05 349.25 535.2 349.75 532.6 348.8 529.7 343.4 531.3 338.5 535.0 338.85 531.9 340.7 529.2 336.1 530.4 332.05 533.3 333.8 528.8 337.05 525.6 L335.3 525.9" fill="none" stroke="#000000" stroke-linecap="round" stroke-linejoin="round" stroke-opacity="0.5019608" stroke-width="1.0"/>
  </g>
</svg>
