<?xml version="1.0" encoding="UTF-8" standalone="no"?>
<svg xmlns:xlink="http://www.w3.org/1999/xlink" height="235.05px" width="151.2px" xmlns="http://www.w3.org/2000/svg">
  <g transform="matrix(1.0, 0.0, 0.0, 1.0, -324.3, -319.65)">
    <path d="M387.75 334.35 Q383.35 342.4 397.35 349.3 L399.8 349.3 399.8 353.1 Q397.1 353.5 395.75 352.15 L395.65 352.15 395.6 352.15 Q394.85 351.35 394.5 350.0 389.95 349.1 389.15 352.55 389.95 354.15 395.55 352.3 L395.6 352.35 Q397.0 353.75 399.8 353.35 L399.8 354.95 398.5 354.95 388.35 358.0 Q384.9 358.4 384.8 353.4 375.45 356.8 373.15 360.25 374.5 363.7 371.4 367.25 L370.75 375.2 Q369.85 388.05 370.0 401.55 L370.0 404.45 Q370.15 409.5 371.1 413.55 371.4 415.6 371.85 417.65 L372.1 418.8 Q373.1 422.95 374.65 427.05 L374.65 427.4 Q376.35 434.4 371.85 434.45 L370.75 434.4 368.95 434.0 368.65 434.45 371.8 434.9 Q373.15 435.7 373.15 437.65 373.1 441.6 367.25 450.45 362.5 474.8 361.95 499.0 363.7 504.45 362.35 506.75 L363.05 509.75 363.05 509.85 363.1 509.85 Q363.75 513.75 362.6 517.45 L354.1 532.45 351.85 544.7 348.9 553.45 Q342.85 556.2 340.2 552.95 L340.0 552.65 340.1 553.0 Q336.35 554.4 333.65 551.8 L334.15 551.1 333.5 551.25 Q331.25 551.75 330.1 550.6 328.0 550.95 326.1 549.3 L327.2 547.85 Q325.2 548.7 324.3 547.15 L326.65 540.25 333.55 531.8 354.0 504.45 Q353.6 502.9 353.55 502.0 353.45 501.05 355.55 498.15 L353.7 452.9 Q351.75 441.9 355.35 438.7 355.45 435.35 356.75 432.8 L360.1 433.3 359.85 432.35 Q353.7 431.45 358.15 423.15 L360.25 418.8 360.7 417.65 Q363.15 411.2 363.1 404.5 L363.5 366.05 Q359.15 360.15 363.45 355.3 366.8 349.3 371.4 351.2 L377.7 347.7 Q377.2 346.35 379.7 343.85 371.55 337.1 373.0 329.7 376.9 319.55 385.95 319.65 390.45 320.1 392.35 324.6 L394.7 324.6 Q395.95 327.35 399.9 329.0 403.85 327.35 405.1 324.6 L407.45 324.6 Q409.35 320.1 413.85 319.65 422.9 319.55 426.8 329.7 428.25 337.1 420.1 343.85 422.6 346.35 422.1 347.7 L428.4 351.2 Q433.0 349.3 436.35 355.3 440.65 360.15 436.3 366.05 L436.7 404.5 Q436.65 411.2 439.1 417.65 L439.55 418.8 441.65 423.15 Q446.1 431.45 439.95 432.35 L439.7 433.3 443.05 432.8 Q444.35 435.35 444.45 438.7 448.05 441.9 446.1 452.9 L444.25 498.15 Q446.35 501.05 446.25 502.0 L445.8 504.45 466.25 531.8 473.15 540.25 475.5 547.15 Q474.6 548.7 472.6 547.85 L473.7 549.3 Q471.8 550.95 469.7 550.6 468.55 551.75 466.3 551.25 L465.65 551.1 466.15 551.8 Q463.45 554.4 459.75 553.0 L459.8 552.65 459.6 552.95 Q456.95 556.2 450.9 553.45 L447.95 544.7 445.7 532.45 437.2 517.45 Q436.05 513.75 436.7 509.85 L436.8 509.8 436.75 509.75 437.45 506.75 Q436.1 504.45 437.85 499.0 437.3 474.8 432.55 450.45 426.7 441.6 426.65 437.65 426.65 435.7 428.0 434.9 L431.15 434.45 430.85 434.0 429.05 434.4 427.95 434.45 Q423.45 434.4 425.15 427.4 L425.15 427.05 Q426.7 422.95 427.7 418.8 L427.95 417.65 428.7 413.55 Q429.65 409.5 429.8 404.45 L429.8 401.55 Q429.95 388.05 429.05 375.2 L428.4 367.25 Q425.3 363.7 426.65 360.25 424.35 356.8 415.0 353.4 414.9 358.4 411.45 358.0 L401.3 354.95 400.05 354.95 400.05 353.35 Q402.8 353.75 404.25 352.35 L404.3 352.3 Q409.85 354.15 410.65 352.55 409.85 349.1 405.3 350.0 404.95 351.35 404.25 352.15 L404.15 352.15 404.1 352.15 Q402.7 353.5 400.05 353.1 L400.05 349.3 402.45 349.3 Q416.45 342.4 412.05 334.35 L410.85 333.05 Q410.1 335.1 407.3 335.95 406.3 339.95 403.55 343.15 403.55 346.2 399.9 348.5 396.25 346.2 396.25 343.15 393.5 339.95 392.5 335.95 389.7 335.1 388.95 333.05 L387.75 334.35 M442.85 484.0 Q444.7 469.7 442.4 453.95 441.75 469.75 442.85 484.0 M356.95 484.0 Q358.05 469.75 357.4 453.95 355.1 469.7 356.95 484.0" fill="#000000" fill-rule="evenodd" stroke="none"/>
  </g>
</svg>
