<?xml version="1.0" encoding="UTF-8" standalone="no"?>
<svg xmlns:xlink="http://www.w3.org/1999/xlink" height="113.85px" width="115.2px" xmlns="http://www.w3.org/2000/svg">
  <g transform="matrix(1.0, 0.0, 0.0, 1.0, -342.2, -323.45)">
    <path d="M370.4 323.45 Q380.55 328.3 399.8 328.2 419.1 328.3 429.2 323.45 454.0 375.55 452.7 412.9 457.85 418.2 457.35 425.4 456.15 422.15 453.35 421.05 453.25 428.4 451.05 435.75 L449.55 431.5 448.35 428.9 446.95 426.5 Q446.95 429.5 446.1 432.25 445.25 434.85 443.7 437.2 L443.25 437.3 442.25 434.25 Q441.15 431.45 439.25 429.3 437.8 431.3 437.1 433.35 436.7 434.6 436.6 435.9 L436.55 437.05 Q431.35 433.5 430.25 429.45 428.1 432.8 427.75 436.4 423.35 431.85 424.6 427.3 420.85 429.25 418.75 432.25 418.8 428.25 421.05 424.75 427.15 419.35 425.75 412.75 417.55 384.35 404.4 359.5 L395.2 359.5 Q382.05 384.35 373.85 412.75 372.45 419.35 378.55 424.75 380.8 428.25 380.85 432.25 378.75 429.25 375.0 427.3 376.25 431.85 371.85 436.4 371.5 432.8 369.35 429.45 368.25 433.5 363.05 437.05 L363.0 435.9 362.5 433.35 Q361.8 431.3 360.35 429.3 358.45 431.45 357.35 434.25 L356.35 437.3 355.9 437.2 Q354.35 434.85 353.5 432.25 352.65 429.5 352.65 426.5 L351.25 428.9 350.05 431.5 Q349.15 433.55 348.55 435.75 346.35 428.4 346.25 421.05 343.45 422.15 342.25 425.4 341.75 418.2 346.9 412.9 345.6 375.55 370.4 323.45" fill="#000000" fill-rule="evenodd" stroke="none"/>
  </g>
</svg>
