<?xml version="1.0" encoding="UTF-8" standalone="no"?>
<svg xmlns:xlink="http://www.w3.org/1999/xlink" height="233.15px" width="154.4px" xmlns="http://www.w3.org/2000/svg">
  <g transform="matrix(1.0, 0.0, 0.0, 1.0, -322.65, -322.95)">
    <path d="M404.4 359.5 L405.8 359.5 Q409.15 354.45 415.3 349.4 M395.2 359.5 L393.8 359.5 Q390.45 354.45 384.3 349.4 M329.1 551.55 Q328.1 544.4 332.95 539.0 M443.0 431.1 L440.85 438.15 431.85 439.5 428.8 431.55 M462.55 554.1 Q463.65 546.95 458.55 541.15 M356.6 431.1 L358.75 438.15 367.75 439.5 370.8 431.55 M337.15 553.7 Q336.05 546.55 341.15 540.75 M470.6 551.95 Q471.6 544.8 466.75 539.4" fill="none" stroke="#000000" stroke-linecap="round" stroke-linejoin="round" stroke-opacity="0.5019608" stroke-width="1.0"/>
    <path d="M395.2 359.5 L404.4 359.5 Q415.75 391.95 422.8 427.4 L419.55 439.7 Q417.45 448.35 420.8 456.3 L421.3 457.35 425.6 464.5 Q431.9 476.0 434.65 488.45 L436.75 498.45 434.75 503.35 435.55 506.55 434.65 509.65 434.65 509.9 Q433.8 515.9 436.3 520.45 L438.8 524.95 Q440.65 528.85 441.8 533.05 L442.8 537.9 Q444.1 546.85 450.95 554.35 458.85 557.0 462.55 554.1 469.05 554.25 470.6 551.95 474.25 551.4 475.75 547.8 475.9 547.45 476.55 547.0 476.55 542.4 474.0 538.1 L448.15 506.3 448.15 501.85 444.7 498.05 450.8 458.25 Q452.3 448.35 449.25 439.95 L444.8 427.05 Q446.5 374.05 429.25 323.45 M370.4 323.45 Q353.1 374.05 354.8 427.05 L350.35 439.95 Q347.3 448.35 348.8 458.25 L354.9 498.05 351.55 501.45 351.55 505.9 345.3 513.65 345.25 513.7 325.7 537.7 Q323.15 542.0 323.15 546.6 L323.95 547.4 Q325.45 551.0 329.1 551.55 330.65 553.85 337.15 553.7 340.85 556.6 348.75 553.95 355.6 546.45 356.9 537.5 L357.9 532.65 Q359.05 528.45 360.9 524.55 362.0 522.2 363.4 520.05 365.9 515.5 365.05 509.5 L365.05 509.35 364.15 506.15 364.95 502.95 362.85 498.45 364.95 488.45 Q367.7 476.0 374.0 464.5 376.0 460.85 378.3 457.35 L378.8 456.3 Q382.15 448.35 380.05 439.7 L376.8 427.4 Q383.85 391.95 395.2 359.5" fill="none" stroke="#000000" stroke-linecap="round" stroke-linejoin="round" stroke-width="1.0"/>
  </g>
</svg>
