<?xml version="1.0" encoding="UTF-8" standalone="no"?>
<svg xmlns:xlink="http://www.w3.org/1999/xlink" height="237.55px" width="154.4px" xmlns="http://www.w3.org/2000/svg">
  <g transform="matrix(1.0, 0.0, 0.0, 1.0, -322.6, -322.95)">
    <path d="M404.4 359.5 L405.8 359.5 Q409.15 354.45 415.3 349.4 M395.2 359.5 L393.8 359.5 Q390.45 354.45 384.3 349.4 M443.0 431.1 L440.85 438.15 431.85 439.5 428.8 431.55 M356.6 431.1 L358.75 438.15 367.75 439.5 370.8 431.55" fill="none" stroke="#000000" stroke-linecap="round" stroke-linejoin="round" stroke-opacity="0.5019608" stroke-width="1.0"/>
    <path d="M395.2 359.5 L404.4 359.5 Q415.75 391.95 422.8 427.4 L419.55 439.7 Q417.45 448.35 420.8 456.3 L421.3 457.35 425.6 464.5 Q431.9 476.0 434.65 488.45 L436.75 498.45 434.65 502.95 435.45 506.15 434.55 509.25 434.55 509.5 Q433.7 515.5 436.2 520.05 L438.7 524.55 Q440.55 528.45 441.7 532.65 L442.7 537.5 Q444.0 546.45 450.85 553.95 L458.05 560.0 471.1 560.0 475.35 553.05 Q478.2 545.0 473.9 537.7 L448.05 505.9 448.05 501.45 444.7 498.05 450.8 458.25 Q452.3 448.35 449.25 439.95 L444.8 427.05 Q446.5 374.05 429.25 323.45 M370.4 323.45 Q353.1 374.05 354.8 427.05 L350.35 439.95 Q347.3 448.35 348.8 458.25 L354.9 498.05 351.55 501.45 351.55 505.9 325.7 537.7 Q321.4 545.0 324.25 553.05 L328.5 560.0 341.55 560.0 348.75 553.95 Q355.6 546.45 356.9 537.5 L357.9 532.65 Q359.05 528.45 360.9 524.55 362.0 522.2 363.4 520.05 365.9 515.5 365.05 509.5 L365.05 509.25 364.15 506.15 364.95 502.95 362.85 498.45 364.95 488.45 Q367.7 476.0 374.0 464.5 376.0 460.85 378.3 457.35 L378.8 456.3 Q382.15 448.35 380.05 439.7 L376.8 427.4 Q383.85 391.95 395.2 359.5" fill="none" stroke="#000000" stroke-linecap="round" stroke-linejoin="round" stroke-width="1.0"/>
  </g>
</svg>
