<?xml version="1.0" encoding="UTF-8" standalone="no"?>
<svg xmlns:xlink="http://www.w3.org/1999/xlink" height="25.8px" width="54.5px" xmlns="http://www.w3.org/2000/svg">
  <g transform="matrix(1.0, 0.0, 0.0, 1.0, -372.6, -176.5)">
    <path d="M373.4 176.5 Q378.05 182.4 381.0 191.1 383.55 193.85 382.7 202.25 L381.6 202.3 Q378.6 202.0 377.55 197.3 L377.45 196.85 Q377.1 195.2 377.2 193.85 376.35 186.5 373.05 178.95 371.95 176.75 373.4 176.5 M426.3 176.5 Q427.75 176.75 426.65 178.95 423.35 186.5 422.5 193.85 L422.25 196.85 422.15 197.3 Q421.1 202.0 418.1 202.3 L417.0 202.25 Q416.15 193.85 418.7 191.1 421.65 182.4 426.3 176.5" fill="#000000" fill-rule="evenodd" stroke="none"/>
  </g>
</svg>
