<?xml version="1.0" encoding="UTF-8" standalone="no"?>
<svg xmlns:xlink="http://www.w3.org/1999/xlink" height="10.45px" width="31.5px" xmlns="http://www.w3.org/2000/svg">
  <g transform="matrix(1.0, 0.0, 0.0, 1.0, -384.15, -149.5)">
    <path d="M404.5 159.1 L406.7 157.05 Q404.45 155.25 403.95 153.25 402.25 154.75 401.35 157.6 402.5 160.3 404.5 159.1 M398.45 157.5 Q397.3 160.2 395.3 159.0 L393.1 156.95 390.35 154.95 390.25 154.9 389.2 154.35 386.35 154.25 Q383.9 152.6 384.95 150.15 387.35 149.85 389.45 150.15 393.15 150.7 395.85 153.15 397.55 154.65 398.45 157.5 M389.45 150.15 Q388.8 151.8 389.2 154.35 M393.1 156.95 Q395.35 155.15 395.85 153.15 M406.7 157.05 Q408.2 155.75 409.45 155.05 L409.55 155.0 410.6 154.45 Q411.0 151.9 410.35 150.25 406.65 150.8 403.95 153.25 M410.35 150.25 Q412.45 149.95 414.85 150.25 415.9 152.7 413.45 154.35 L410.6 154.45" fill="none" stroke="#000000" stroke-linecap="round" stroke-linejoin="round" stroke-opacity="0.5019608" stroke-width="1.0"/>
  </g>
</svg>
