<?xml version="1.0" encoding="UTF-8" standalone="no"?>
<svg xmlns:xlink="http://www.w3.org/1999/xlink" height="19.0px" width="33.5px" xmlns="http://www.w3.org/2000/svg">
  <g transform="matrix(1.0, 0.0, 0.0, 1.0, -383.15, -159.05)">
    <path d="M386.7 159.55 L386.15 160.5 385.95 160.75 385.75 161.05 386.15 162.25 385.1 163.85 385.45 166.5 386.7 166.5 387.75 169.15 388.95 168.9 391.45 172.9 393.7 171.5 396.2 174.0 398.55 172.45 399.9 173.6 401.25 172.45 403.6 174.0 406.1 171.5 408.3 172.9 410.8 168.9 412.0 169.15 413.05 166.5 414.35 166.5 414.65 163.85 413.6 162.25 414.0 161.05 413.85 160.75 413.65 160.5 413.05 159.55 M413.65 160.5 L414.9 161.1 414.9 161.85 416.15 163.4 416.15 165.25 415.5 165.05 414.95 168.5 413.7 168.3 412.1 173.15 411.1 172.25 408.6 176.25 407.95 175.75 406.65 176.95 405.6 175.65 403.75 177.2 402.45 175.6 400.8 177.55 399.9 176.95 399.0 177.55 397.3 175.6 396.05 177.2 394.2 175.65 393.15 176.95 391.8 175.75 391.2 176.25 388.7 172.25 387.7 173.15 386.1 168.3 384.85 168.5 384.3 165.05 383.65 165.25 383.65 163.4 384.9 161.85 384.9 161.1 386.15 160.5 M385.95 160.75 L385.3 161.4 385.3 162.25 384.1 163.4 384.1 164.55 384.7 164.55 385.2 167.85 386.4 167.5 387.85 172.05 388.75 171.15 391.15 175.3 391.7 174.4 393.0 176.15 394.1 174.65 396.05 176.15 397.25 174.55 399.1 176.7 399.9 175.85 400.7 176.7 402.55 174.55 403.75 176.15 405.65 174.65 406.75 176.15 408.1 174.4 408.65 175.3 411.05 171.15 411.9 172.05 413.4 167.5 414.6 167.85 415.05 164.55 415.65 164.55 415.65 163.4 414.45 162.25 414.45 161.4 413.85 160.75" fill="none" stroke="#000000" stroke-linecap="round" stroke-linejoin="round" stroke-opacity="0.49803922" stroke-width="1.0"/>
  </g>
</svg>
