<?xml version="1.0" encoding="UTF-8" standalone="no"?>
<svg xmlns:xlink="http://www.w3.org/1999/xlink" height="8.35px" width="46.65px" xmlns="http://www.w3.org/2000/svg">
  <g transform="matrix(1.0, 0.0, 0.0, 1.0, -376.6, -133.8)">
    <path d="M391.25 141.65 L391.75 139.3 388.3 139.2 387.65 139.1 384.7 138.75 Q383.45 138.45 382.45 137.75 381.25 137.0 380.85 135.7 380.7 135.3 380.7 134.65 L380.4 134.65 379.1 134.65 378.75 134.55 378.0 134.4 377.1 134.3 M385.3 134.5 L385.3 134.55 Q384.75 136.2 386.0 137.15 386.8 137.75 387.7 137.95 L388.8 137.8 388.85 137.8 Q389.7 137.35 390.05 136.4 L390.3 135.8 390.25 135.75 389.9 135.55 Q389.45 135.3 388.85 135.2 L386.9 134.7 385.75 134.55 385.3 134.5 380.7 134.65 M391.75 139.3 L391.75 139.25 Q391.9 138.2 391.4 137.15 L391.35 137.05 391.25 136.9 390.95 136.4 390.3 135.8 M422.75 134.55 L421.8 134.4 420.7 134.65 419.4 134.65 419.15 134.65 418.95 135.7 Q418.55 137.0 417.4 137.75 416.35 138.45 415.1 138.75 L412.2 139.1 411.55 139.2 409.75 139.25 408.1 139.3 408.55 141.65 M410.95 135.2 Q410.4 135.3 409.95 135.55 L409.6 135.75 409.55 135.8 409.8 136.4 410.1 137.05 Q410.45 137.55 411.05 137.8 L412.15 137.95 412.6 137.8 413.8 137.15 Q415.0 136.25 414.55 134.7 L414.55 134.5 Q412.7 134.55 410.95 135.2 M409.55 135.8 L408.9 136.4 408.55 136.9 408.45 137.15 Q407.9 138.2 408.1 139.3 M419.15 134.65 L414.55 134.5" fill="none" stroke="#000000" stroke-linecap="round" stroke-linejoin="round" stroke-opacity="0.5019608" stroke-width="1.0"/>
  </g>
</svg>
