<?xml version="1.0" encoding="UTF-8" standalone="no"?>
<svg xmlns:xlink="http://www.w3.org/1999/xlink" height="10.4px" width="37.85px" xmlns="http://www.w3.org/2000/svg">
  <g transform="matrix(1.0, 0.0, 0.0, 1.0, -380.95, -131.1)">
    <path d="M382.75 132.1 Q384.6 130.8 387.15 131.2 389.65 131.5 391.5 133.25 393.3 134.95 393.3 137.1 393.3 138.85 392.0 140.1 L391.5 140.5 Q389.65 141.8 387.15 141.4 384.6 141.05 382.75 139.4 380.95 137.65 380.95 135.5 L381.0 134.5 Q381.3 133.45 382.05 132.7 L382.75 132.1 M416.95 132.1 L417.65 132.7 Q418.45 133.45 418.7 134.5 L418.8 135.5 Q418.8 137.65 416.95 139.4 415.15 141.05 412.6 141.4 410.05 141.8 408.25 140.5 L407.75 140.1 Q406.45 138.85 406.45 137.1 406.45 134.95 408.25 133.25 410.05 131.5 412.6 131.2 415.15 130.8 416.95 132.1 M391.35 134.7 L391.05 134.5 Q390.3 134.0 389.65 134.1 388.95 134.2 388.7 134.7 L388.6 134.9 Q388.45 135.35 388.7 135.85 389.0 136.6 389.65 137.0 390.4 137.45 391.05 137.35 391.75 137.3 392.0 136.8 392.25 136.25 392.0 135.6 L391.35 134.7 M411.05 134.7 L410.05 134.1 Q409.4 134.0 408.7 134.5 L408.4 134.7 Q408.0 135.1 407.75 135.6 407.45 136.25 407.75 136.8 408.0 137.3 408.7 137.35 409.35 137.45 410.05 137.0 L411.05 135.85 411.1 134.9 411.05 134.7" fill="#000000" fill-rule="evenodd" stroke="none"/>
  </g>
</svg>
