<?xml version="1.0" encoding="UTF-8" standalone="no"?>
<svg xmlns:xlink="http://www.w3.org/1999/xlink" height="382.4px" width="264.65px" xmlns="http://www.w3.org/2000/svg">
  <g transform="matrix(1.0, 0.0, 0.0, 1.0, -79.15, -75.2)">
    <path d="M148.5 347.2 L148.55 347.2 148.5 347.25 148.5 347.2" fill="#cc9966" fill-rule="evenodd" stroke="none"/>
    <path d="M209.15 107.85 L209.85 107.95 209.6 108.25 209.15 107.85" fill="#ffcc99" fill-rule="evenodd" stroke="none"/>
    <path d="M311.4 210.1 L322.95 230.35 Q317.5 261.1 318.3 291.8 L343.3 316.55 Q335.85 326.15 333.4 341.2 L328.3 341.2 328.55 348.5 Q327.15 355.85 319.7 355.3 315.3 354.55 313.85 351.6 312.0 348.0 314.35 341.2 L328.3 341.2 314.35 341.2 Q312.0 348.0 313.85 351.6 307.5 354.55 303.75 352.4 300.95 350.75 299.65 346.3 295.2 347.85 292.4 346.3 289.9 344.95 288.65 341.25 285.1 340.7 283.25 339.0 L276.45 355.35 Q264.0 372.45 255.95 390.6 268.4 401.8 287.7 413.0 301.7 420.85 302.2 430.95 263.6 438.3 236.4 424.1 224.85 425.15 216.05 421.3 216.65 410.05 220.3 399.65 L218.65 398.05 221.2 385.5 216.85 347.8 221.8 338.7 Q216.15 325.4 215.45 312.1 203.55 336.95 187.6 362.5 168.4 387.1 167.4 411.65 L177.4 433.95 Q184.55 450.5 164.2 457.1 135.1 457.25 118.8 444.8 118.9 427.35 125.85 409.95 L122.3 400.55 128.75 393.55 132.9 350.4 113.85 337.75 Q116.1 318.6 117.15 305.65 85.4 277.35 79.65 245.3 L86.25 225.25 Q79.0 180.4 95.05 137.15 132.0 108.15 202.55 104.45 L205.55 101.3 205.55 101.25 Q204.35 95.0 208.7 94.7 L209.1 94.75 209.35 94.75 209.4 94.75 Q209.8 77.1 226.0 76.15 L231.25 75.7 Q228.45 76.2 226.25 77.0 217.35 80.05 217.45 87.75 L217.45 96.1 220.35 100.0 217.0 105.0 217.0 130.85 215.6 129.55 Q212.05 126.3 209.05 122.9 L209.85 107.95 209.05 122.9 Q212.05 126.3 215.6 129.55 L217.0 130.85 219.4 132.85 223.75 136.35 221.1 104.8 226.35 100.9 222.05 95.65 222.05 88.7 Q220.1 79.35 240.8 77.1 L241.5 77.3 Q257.3 82.4 254.1 102.6 L252.35 104.15 Q252.55 106.35 252.25 108.2 286.45 122.7 310.65 147.2 317.3 178.6 311.4 210.1 L310.45 214.85 311.4 210.1 M212.0 97.6 Q211.4 95.15 209.55 94.75 L209.4 94.75 209.55 94.75 Q211.4 95.15 212.0 97.6 M207.05 97.55 Q208.4 96.2 209.4 97.4 206.35 98.6 208.45 104.15 206.35 98.6 209.4 97.4 208.4 96.2 207.05 97.55 M252.25 108.2 Q251.65 111.7 249.15 114.0 L248.0 132.1 244.45 136.35 223.75 136.35 244.45 136.35 248.0 132.1 249.15 114.0 Q251.65 111.7 252.25 108.2 M209.15 107.85 Q207.75 107.45 207.1 106.35 L206.7 105.45 Q205.95 103.7 205.55 101.3 205.95 103.7 206.7 105.45 189.0 118.55 178.05 136.4 161.85 134.6 145.6 134.45 122.65 133.8 103.85 138.85 89.4 182.35 95.65 225.8 L88.6 246.5 Q100.1 274.95 121.8 301.9 L121.55 340.05 134.35 343.85 Q136.85 345.3 139.25 346.2 L126.85 299.6 Q110.3 274.45 102.25 244.95 L106.2 226.2 Q106.7 189.2 119.45 152.1 145.4 142.85 237.3 156.5 243.1 170.35 242.8 187.25 L242.8 187.6 238.55 193.9 Q224.25 194.45 210.4 197.0 193.4 200.15 182.15 199.95 176.75 199.85 172.7 198.95 176.75 199.85 182.15 199.95 193.4 200.15 210.4 197.0 224.25 194.45 238.55 193.9 L242.8 187.6 242.8 187.25 Q243.1 170.35 237.3 156.5 263.55 150.55 289.75 150.7 295.15 169.0 293.3 187.3 L283.05 197.0 Q281.35 206.4 272.2 215.75 268.8 231.85 269.8 256.0 268.8 231.85 272.2 215.75 281.35 206.4 283.05 197.0 L293.3 187.3 Q295.15 169.0 289.75 150.7 304.05 158.4 298.8 214.05 L309.65 233.55 Q303.85 264.05 304.25 294.55 L310.85 312.8 311.65 312.55 Q315.5 311.25 321.25 312.1 L311.25 294.1 Q311.25 262.05 315.85 232.35 L305.9 212.4 Q310.25 179.8 305.9 150.15 297.2 140.05 286.95 137.65 260.0 139.1 240.0 146.3 237.2 148.75 229.55 146.3 212.6 141.6 195.6 138.85 197.25 122.9 209.6 108.25 L209.85 107.95 209.15 107.85 M211.6 107.95 L209.85 107.95 211.6 107.95 M303.3 323.05 Q304.75 315.15 310.85 312.8 304.75 315.15 303.3 323.05 303.05 324.2 302.95 325.5 L302.95 326.0 303.3 323.05 M324.75 320.75 L323.6 330.55 Q317.5 330.0 314.05 331.45 310.8 325.8 304.9 328.2 L302.95 326.0 304.9 328.2 Q310.8 325.8 314.05 331.45 317.5 330.0 323.6 330.55 L324.75 320.75 M148.5 347.2 L144.65 347.4 143.05 347.2 139.25 346.2 143.05 347.2 144.65 347.4 148.5 347.2 148.5 347.25 148.55 347.2 148.5 347.2 M195.35 111.95 L202.55 104.45 195.35 111.95 M160.85 339.1 Q158.8 341.65 156.6 343.4 L156.4 343.7 155.6 344.2 155.2 344.45 Q152.05 346.55 148.55 347.2 152.05 346.55 155.2 344.45 L155.6 344.2 156.4 343.7 156.6 343.4 Q158.8 341.65 160.85 339.1 M282.3 322.3 Q282.8 319.25 283.6 316.2 L285.95 308.0 Q288.65 300.15 292.6 292.45 277.8 270.95 269.8 256.0 269.9 258.85 272.2 269.65 L282.3 322.3 283.5 328.1 289.6 319.8 Q291.8 319.25 294.2 321.6 L296.35 324.35 296.4 324.35 300.8 324.75 302.95 326.0 300.8 324.75 296.4 324.35 296.35 324.35 294.2 321.6 Q291.8 319.25 289.6 319.8 L283.5 328.1 282.3 322.3 M209.4 97.4 Q210.25 98.35 210.85 101.0 210.25 98.35 209.4 97.4 M144.65 180.6 L156.65 189.55 144.65 180.6 M238.55 193.9 Q257.65 193.1 277.5 195.9 257.65 193.1 238.55 193.9 M150.25 216.5 Q146.85 225.6 141.8 234.75 L146.8 248.1 Q143.45 268.85 146.3 289.6 L155.3 267.65 Q165.25 246.1 161.2 224.8 153.85 222.85 150.25 216.5 153.15 208.55 154.85 200.6 153.15 208.55 150.25 216.5 M172.7 198.95 Q168.05 197.95 165.15 195.9 L156.65 189.55 Q156.0 195.1 154.85 200.6 159.05 213.85 169.15 221.05 176.2 240.25 166.85 265.0 L154.25 297.15 146.8 292.85 146.3 289.6 146.8 292.85 154.25 297.15 162.1 301.75 177.05 266.65 Q185.05 239.9 177.45 220.1 170.45 210.25 172.7 198.95 M147.25 359.5 Q149.9 359.65 152.9 358.4 L152.9 358.45 154.4 362.6 165.9 360.1 Q165.45 349.5 165.9 338.95 L166.0 338.95 Q170.05 341.25 173.25 341.5 176.5 341.7 178.75 339.65 L180.35 337.75 173.75 328.15 177.5 310.6 162.1 301.75 177.5 310.6 173.75 328.15 180.35 337.75 178.75 339.65 Q176.5 341.7 173.25 341.5 170.05 341.25 166.0 338.95 L165.9 338.95 Q165.45 349.5 165.9 360.1 L154.4 362.6 152.9 358.45 152.9 358.4 Q149.9 359.65 147.25 359.5 142.9 359.15 139.7 354.85 L134.35 343.85 139.7 354.85 134.95 395.45 129.75 402.6 132.15 410.1 Q124.8 425.75 123.95 441.35 139.9 450.95 161.05 451.3 L134.4 438.15 Q132.25 425.05 138.25 411.95 L135.75 403.5 141.2 397.25 147.25 359.5 M132.9 350.4 L139.7 354.85 132.9 350.4 M152.9 358.4 L148.5 347.25 152.9 358.4 M113.85 337.75 L121.55 340.05 113.85 337.75 M258.9 233.95 L258.9 214.75 253.05 204.4 258.9 214.75 258.9 233.95 M239.95 202.95 L234.8 213.75 231.1 239.1 234.8 213.75 239.95 202.95 M202.3 233.2 L206.5 213.55 215.15 204.65 206.5 213.55 202.3 233.2 M232.0 285.6 L226.05 288.05 222.7 296.05 Q222.25 317.0 230.2 337.9 L222.75 350.7 226.85 387.8 224.0 403.2 221.45 417.0 239.85 419.3 Q262.45 430.3 296.1 427.85 264.45 423.2 242.35 413.2 L228.4 410.3 232.25 388.25 228.35 351.9 238.35 336.35 Q230.8 311.55 232.0 285.6 L249.15 278.65 232.0 285.6 M222.7 296.05 L215.45 312.1 222.7 296.05 M299.65 346.3 L304.9 328.2 299.65 346.3 M314.35 341.2 L309.75 341.2 Q309.4 339.4 309.6 337.9 309.95 333.2 314.05 331.45 309.95 333.2 309.6 337.9 309.4 339.4 309.75 341.2 L314.35 341.2 M288.65 341.25 L296.35 324.35 288.65 341.25 M283.25 339.0 Q284.9 333.55 283.5 328.15 L283.5 328.1 283.5 328.15 Q284.9 333.55 283.25 339.0 M221.9 391.45 L221.2 385.5 221.9 391.45 M167.75 317.9 Q166.4 328.4 166.0 338.95 166.4 328.4 167.75 317.9 M224.85 345.25 Q223.15 342.0 221.8 338.7 223.15 342.0 224.85 345.25 M198.6 270.8 Q216.05 278.75 226.05 288.05 216.05 278.75 198.6 270.8 M224.0 403.2 L220.3 399.65 224.0 403.2" fill="#010101" fill-opacity="0.0" fill-rule="evenodd" stroke="none"/>
    <path d="M231.25 75.7 Q236.05 75.7 240.8 77.1 220.1 79.35 222.05 88.7 L222.05 95.65 226.35 100.9 221.1 104.8 223.75 136.35 219.4 132.85 217.0 130.85 217.0 105.0 220.35 100.0 217.45 96.1 217.45 87.75 Q217.35 80.05 226.25 77.0 228.45 76.2 231.25 75.7 M206.7 105.45 L207.1 106.35 Q207.75 107.45 209.15 107.85 L209.6 108.25 Q197.25 122.9 195.6 138.85 212.6 141.6 229.55 146.3 237.2 148.75 240.0 146.3 260.0 139.1 286.95 137.65 297.2 140.05 305.9 150.15 310.25 179.8 305.9 212.4 L315.85 232.35 Q311.25 262.05 311.25 294.1 L321.25 312.1 Q315.5 311.25 311.65 312.55 L310.85 312.8 304.25 294.55 Q303.85 264.05 309.65 233.55 L298.8 214.05 Q304.05 158.4 289.75 150.7 263.55 150.55 237.3 156.5 145.4 142.85 119.45 152.1 106.7 189.2 106.2 226.2 L102.25 244.95 Q110.3 274.45 126.85 299.6 L139.25 346.2 Q136.85 345.3 134.35 343.85 L121.55 340.05 121.8 301.9 Q100.1 274.95 88.6 246.5 L95.65 225.8 Q89.4 182.35 103.85 138.85 122.65 133.8 145.6 134.45 161.85 134.6 178.05 136.4 189.0 118.55 206.7 105.45 M195.6 138.85 L178.05 136.4 195.6 138.85 M154.85 200.6 Q156.0 195.1 156.65 189.55 L165.15 195.9 Q168.05 197.95 172.7 198.95 170.45 210.25 177.45 220.1 185.05 239.9 177.05 266.65 L162.1 301.75 154.25 297.15 166.85 265.0 Q176.2 240.25 169.15 221.05 159.05 213.85 154.85 200.6 M147.25 359.5 L141.2 397.25 135.75 403.5 138.25 411.95 Q132.25 425.05 134.4 438.15 L161.05 451.3 Q139.9 450.95 123.95 441.35 124.8 425.75 132.15 410.1 L129.75 402.6 134.95 395.45 139.7 354.85 Q142.9 359.15 147.25 359.5 M222.7 296.05 L226.05 288.05 232.0 285.6 Q230.8 311.55 238.35 336.35 L228.35 351.9 232.25 388.25 228.4 410.3 242.35 413.2 Q264.45 423.2 296.1 427.85 262.45 430.3 239.85 419.3 L221.45 417.0 224.0 403.2 226.85 387.8 222.75 350.7 230.2 337.9 Q222.25 317.0 222.7 296.05" fill="#ffffff" fill-opacity="0.2509804" fill-rule="evenodd" stroke="none"/>
    <path d="M328.3 341.2 L333.4 341.2 Q335.85 326.15 343.3 316.55 L318.3 291.8 Q317.5 261.1 322.95 230.35 L311.4 210.1 310.45 214.85 M313.85 351.6 Q315.3 354.55 319.7 355.3 327.15 355.85 328.55 348.5 L328.3 341.2 314.35 341.2 Q312.0 348.0 313.85 351.6 307.5 354.55 303.75 352.4 300.95 350.75 299.65 346.3 295.2 347.85 292.4 346.3 289.9 344.95 288.65 341.25 285.1 340.7 283.25 339.0 L276.45 355.35 Q264.0 372.45 255.95 390.6 268.4 401.8 287.7 413.0 301.7 420.85 302.2 430.95 263.6 438.3 236.4 424.1 224.85 425.15 216.05 421.3 216.65 410.05 220.3 399.65 L218.65 398.05 221.2 385.5 216.85 347.8 221.8 338.7 Q216.15 325.4 215.45 312.1 203.55 336.95 187.6 362.5 168.4 387.1 167.4 411.65 L177.4 433.95 Q184.55 450.5 164.2 457.1 135.1 457.25 118.8 444.8 118.9 427.35 125.85 409.95 L122.3 400.55 128.75 393.55 132.9 350.4 113.85 337.75 Q116.1 318.6 117.15 305.65 85.4 277.35 79.65 245.3 L86.25 225.25 Q79.0 180.4 95.05 137.15 132.0 108.15 202.55 104.45 L205.55 101.3 205.55 101.25 Q204.35 95.0 208.7 94.7 L209.1 94.75 209.35 94.75 209.4 94.75 Q209.8 77.1 226.0 76.15 L231.25 75.7 Q236.05 75.7 240.8 77.1 L241.5 77.3 Q257.3 82.4 254.1 102.6 L252.35 104.15 Q252.55 106.35 252.25 108.2 286.45 122.7 310.65 147.2 317.3 178.6 311.4 210.1 M223.75 136.35 L244.45 136.35 248.0 132.1 249.15 114.0 Q251.65 111.7 252.25 108.2 M208.45 104.15 Q206.35 98.6 209.4 97.4 208.4 96.2 207.05 97.55 M209.4 94.75 L209.55 94.75 Q211.4 95.15 212.0 97.6 M206.7 105.45 L207.1 106.35 Q207.75 107.45 209.15 107.85 L209.85 107.95 211.6 107.95 M209.85 107.95 L209.05 122.9 Q212.05 126.3 215.6 129.55 L217.0 130.85 219.4 132.85 223.75 136.35 M195.6 138.85 Q212.6 141.6 229.55 146.3 237.2 148.75 240.0 146.3 260.0 139.1 286.95 137.65 M321.25 312.1 Q315.5 311.25 311.65 312.55 L310.85 312.8 Q304.75 315.15 303.3 323.05 303.05 324.2 302.95 325.5 L302.95 326.0 304.9 328.2 Q310.8 325.8 314.05 331.45 317.5 330.0 323.6 330.55 L324.75 320.75 M205.55 101.3 Q205.95 103.7 206.7 105.45 M178.05 136.4 L195.6 138.85 M172.7 198.95 Q176.75 199.85 182.15 199.95 193.4 200.15 210.4 197.0 224.25 194.45 238.55 193.9 L242.8 187.6 242.8 187.25 Q243.1 170.35 237.3 156.5 M139.25 346.2 L143.05 347.2 144.65 347.4 148.5 347.2 148.55 347.2 Q152.05 346.55 155.2 344.45 L155.6 344.2 156.4 343.7 156.6 343.4 Q158.8 341.65 160.85 339.1 M202.55 104.45 L195.35 111.95 M289.75 150.7 Q295.15 169.0 293.3 187.3 L283.05 197.0 Q281.35 206.4 272.2 215.75 268.8 231.85 269.8 256.0 277.8 270.95 292.6 292.45 288.65 300.15 285.95 308.0 L283.6 316.2 Q282.8 319.25 282.3 322.3 L283.5 328.1 289.6 319.8 Q291.8 319.25 294.2 321.6 L296.35 324.35 296.4 324.35 300.8 324.75 302.95 326.0 M210.85 101.0 Q210.25 98.35 209.4 97.4 M277.5 195.9 Q257.65 193.1 238.55 193.9 M156.65 189.55 L144.65 180.6 M121.55 340.05 L134.35 343.85 Q136.85 345.3 139.25 346.2 M146.3 289.6 Q143.45 268.85 146.8 248.1 L141.8 234.75 Q146.85 225.6 150.25 216.5 153.15 208.55 154.85 200.6 156.0 195.1 156.65 189.55 L165.15 195.9 Q168.05 197.95 172.7 198.95 M162.1 301.75 L177.5 310.6 173.75 328.15 180.35 337.75 178.75 339.65 Q176.5 341.7 173.25 341.5 170.05 341.25 166.0 338.95 L165.9 338.95 Q165.45 349.5 165.9 360.1 L154.4 362.6 152.9 358.45 152.9 358.4 Q149.9 359.65 147.25 359.5 142.9 359.15 139.7 354.85 L132.9 350.4 M150.25 216.5 Q153.85 222.85 161.2 224.8 165.25 246.1 155.3 267.65 L146.3 289.6 146.8 292.85 154.25 297.15 162.1 301.75 M148.5 347.25 L148.5 347.2 M148.5 347.25 L152.9 358.4 M121.55 340.05 L113.85 337.75 M134.35 343.85 L139.7 354.85 M253.05 204.4 L258.9 214.75 258.9 233.95 M269.8 256.0 Q269.9 258.85 272.2 269.65 L282.3 322.3 M215.15 204.65 L206.5 213.55 202.3 233.2 M231.1 239.1 L234.8 213.75 239.95 202.95 M232.0 285.6 L226.05 288.05 222.7 296.05 215.45 312.1 M232.0 285.6 L249.15 278.65 M226.05 288.05 Q216.05 278.75 198.6 270.8 M221.8 338.7 Q223.15 342.0 224.85 345.25 M166.0 338.95 Q166.4 328.4 167.75 317.9 M221.2 385.5 L221.9 391.45 M283.5 328.1 L283.5 328.15 Q284.9 333.55 283.25 339.0 M296.35 324.35 L288.65 341.25 M314.05 331.45 Q309.95 333.2 309.6 337.9 309.4 339.4 309.75 341.2 L314.35 341.2 M304.9 328.2 L299.65 346.3 M178.05 136.4 Q161.85 134.6 145.6 134.45 M220.3 399.65 L224.0 403.2" fill="none" stroke="#010101" stroke-linecap="round" stroke-linejoin="round" stroke-opacity="0.0" stroke-width="1.0"/>
  </g>
</svg>
