<?xml version="1.0" encoding="UTF-8" standalone="no"?>
<svg xmlns:xlink="http://www.w3.org/1999/xlink" height="236.55px" width="175.8px" xmlns="http://www.w3.org/2000/svg">
  <g transform="matrix(1.0, 0.0, 0.0, 1.0, -51.0, -20.5)">
    <path d="M170.45 109.65 L164.65 110.3 Q161.2 97.05 155.8 83.85 161.2 97.05 164.65 110.3 L158.35 110.1 152.0 109.3 Q149.9 97.4 147.85 88.35 149.9 97.4 152.0 109.3 145.75 108.2 138.35 106.0 131.65 104.0 124.05 101.1 120.05 94.65 117.0 87.9 L117.0 87.85 116.15 85.75 117.0 87.85 117.0 87.9 Q120.05 94.65 124.05 101.1 111.9 96.85 102.2 94.75 L93.95 93.25 85.55 92.55 62.3 55.9 85.55 92.55 Q77.5 92.35 72.6 94.65 68.85 75.05 61.7 55.6 L62.3 55.9 73.7 61.4 Q82.8 77.45 93.95 93.25 82.8 77.45 73.7 61.4 L83.9 66.45 Q99.35 74.3 114.7 82.7 L116.15 85.75 114.9 82.85 126.15 89.15 Q130.15 91.4 133.65 92.35 135.1 99.6 138.35 106.0 135.1 99.6 133.65 92.35 142.35 94.65 147.85 88.35 149.6 86.3 151.0 83.25 155.35 96.0 158.35 110.1 155.35 96.0 151.0 83.25 L152.3 80.25 155.8 83.85 163.05 91.75 Q167.3 100.65 170.45 109.65 167.3 100.65 163.05 91.75 169.95 99.4 176.3 107.8 173.6 109.0 170.45 109.65 M190.05 223.9 Q179.35 231.65 167.1 238.15 165.85 233.15 164.15 228.8 176.6 222.5 186.8 216.1 176.6 222.5 164.15 228.8 L161.3 222.45 Q158.5 216.85 154.85 212.55 169.35 209.9 180.25 204.85 169.35 209.9 154.85 212.55 L150.6 207.95 146.7 204.75 Q143.3 202.3 139.5 200.45 148.25 192.4 160.45 185.65 L164.95 189.0 Q171.7 194.2 176.95 200.6 L180.25 204.85 183.25 209.4 186.8 216.1 Q188.65 219.85 190.05 223.9 M102.2 94.75 L83.9 66.45 102.2 94.75 M183.25 209.4 Q172.5 216.75 161.3 222.45 172.5 216.75 183.25 209.4 M150.6 207.95 Q166.2 204.7 176.95 200.6 166.2 204.7 150.6 207.95 M146.7 204.75 L157.1 195.35 Q160.8 191.85 164.95 189.0 160.8 191.85 157.1 195.35 L146.7 204.75" fill="#ffffff" fill-opacity="0.2509804" fill-rule="evenodd" stroke="none"/>
    <path d="M170.45 109.65 Q167.3 100.65 163.05 91.75 L155.8 83.85 Q161.2 97.05 164.65 110.3 168.25 123.95 169.65 137.7 M158.35 110.1 Q160.75 121.75 162.15 134.35 M170.45 109.65 Q175.85 124.9 178.15 140.15 M176.3 107.8 Q186.5 121.1 195.6 136.25 205.5 152.75 223.35 161.9 228.5 177.25 224.6 190.75 209.85 209.6 190.05 223.9 179.35 231.65 167.1 238.15 150.05 247.1 130.2 253.55 L114.8 256.2 Q106.95 258.15 111.05 249.3 115.4 236.9 121.8 225.55 123.9 220.2 127.1 215.2 L129.5 211.7 Q133.75 205.8 139.5 200.45 148.25 192.4 160.45 185.65 169.05 180.85 179.5 176.7 83.75 142.1 72.65 95.25 L72.6 94.65 Q68.85 75.05 61.7 55.6 L60.95 53.8 Q58.45 47.05 55.45 40.35 45.4 16.0 60.95 22.3 81.35 29.65 99.7 40.1 117.85 50.4 133.9 63.65 138.45 67.4 142.95 71.45 L148.6 76.7 152.3 80.25 155.8 83.85 M164.95 189.0 Q175.4 181.75 189.0 179.1 M163.05 91.75 Q169.95 99.4 176.3 107.8 M93.95 93.25 Q82.8 77.45 73.7 61.4 67.4 50.35 62.15 39.2 54.25 20.55 61.7 32.1 L83.9 66.45 102.2 94.75 105.05 99.3 M62.3 55.9 L85.55 92.55 96.8 110.3 Q112.0 133.35 137.85 152.75 M116.15 85.75 L117.0 87.85 117.0 87.9 Q120.05 94.65 124.05 101.1 134.6 117.95 152.0 132.45 M138.35 106.0 Q135.1 99.6 133.65 92.35 130.9 79.2 133.9 63.65 M114.9 82.85 L116.15 85.75 114.7 82.7 Q99.7 51.75 60.95 22.3 M114.9 82.85 Q110.8 72.0 109.1 60.45 108.35 50.25 99.7 40.1 M93.95 93.25 Q99.4 101.05 105.4 108.8 118.55 125.7 137.85 135.0 166.45 148.5 185.7 163.5 M147.85 88.35 Q149.9 97.4 152.0 109.3 L154.75 125.85 158.4 128.6 M158.35 110.1 Q155.35 96.0 151.0 83.25 L148.6 76.7 M142.95 71.45 Q145.35 77.95 147.85 88.35 M60.95 53.8 L62.3 55.9 M138.35 106.0 Q143.9 117.15 154.75 125.85 M161.3 222.45 Q172.5 216.75 183.25 209.4 201.75 196.55 218.85 178.6 M180.25 204.85 Q169.35 209.9 154.85 212.55 L148.75 213.5 138.05 227.7 M150.6 207.95 L140.4 209.9 129.5 211.7 M146.7 204.75 L140.4 209.9 M115.85 247.9 Q124.05 227.1 134.9 214.9 L127.1 215.2 M148.75 213.5 L134.9 214.9 M161.3 222.45 Q153.5 226.3 145.6 229.4 128.4 234.65 117.2 250.55 M164.15 228.8 Q155.2 233.25 145.1 237.6 133.85 242.55 124.15 250.55 M186.8 216.1 Q176.6 222.5 164.15 228.8 M186.8 216.1 Q209.6 201.55 220.65 186.0 M176.95 200.6 Q166.2 204.7 150.6 207.95 M176.95 200.6 Q192.4 194.6 197.5 186.85 M180.25 204.85 Q192.45 199.15 200.1 190.3 M164.95 189.0 Q160.8 191.85 157.1 195.35 L146.7 204.75" fill="none" stroke="#000000" stroke-linecap="round" stroke-linejoin="round" stroke-opacity="0.2509804" stroke-width="1.0"/>
  </g>
</svg>
