<?xml version="1.0" encoding="UTF-8" standalone="no"?>
<svg xmlns:xlink="http://www.w3.org/1999/xlink" height="231.15px" width="94.4px" xmlns="http://www.w3.org/2000/svg">
  <g transform="matrix(1.0, 0.0, 0.0, 1.0, -222.85, -26.65)">
    <path d="M284.65 55.75 Q290.25 58.1 295.4 62.2 299.4 65.35 303.05 69.65 299.1 82.55 293.65 95.45 301.15 84.5 305.5 72.7 307.8 75.65 309.95 79.05 L309.65 80.0 Q309.35 80.8 309.2 81.65 L306.05 93.0 303.6 102.5 Q296.9 127.0 286.85 143.95 289.7 131.15 291.0 120.5 L291.9 112.15 Q292.45 104.1 292.1 97.5 291.55 87.75 288.9 81.05 L288.9 80.9 Q291.9 71.0 295.4 62.2 291.9 71.0 288.9 80.9 L288.9 81.05 Q284.3 69.4 273.4 66.8 278.65 60.85 284.65 55.75 M292.1 97.5 L293.65 95.45 292.1 97.5 M305.5 72.7 Q301.15 84.5 293.65 95.45 299.1 82.55 303.05 69.65 L305.5 72.7 M309.2 81.65 Q304.55 96.8 291.9 112.15 304.55 96.8 309.2 81.65 M303.6 102.5 Q297.9 111.5 291.0 120.5 297.9 111.5 303.6 102.5" fill="#ffffff" fill-opacity="0.2509804" fill-rule="evenodd" stroke="none"/>
    <path d="M309.95 79.05 L313.25 67.1 Q319.0 49.6 315.25 31.9 312.05 22.35 306.75 32.1 301.5 41.35 290.95 50.65 L284.65 55.75 Q278.65 60.85 273.4 66.8 265.35 75.65 258.85 86.35 269.8 98.05 260.8 131.45 L256.05 140.55 251.15 149.6 Q261.2 113.05 252.15 98.55 253.8 95.1 255.75 91.7 L258.85 86.35 M295.4 62.2 Q302.2 45.05 311.25 32.2 312.55 53.65 305.5 72.7 301.15 84.5 293.65 95.45 L292.1 97.5 288.15 102.65 M309.95 79.05 L309.65 80.0 Q309.35 80.8 309.2 81.65 L306.05 93.0 303.6 102.5 Q296.9 127.0 286.85 143.95 270.85 171.2 246.4 178.65 263.95 186.6 273.45 198.75 292.0 225.2 293.15 251.7 294.7 264.25 276.85 248.7 252.0 237.5 224.6 190.75 228.5 177.25 223.35 161.9 234.45 150.0 239.25 133.6 241.8 124.05 245.0 115.35 L245.15 115.1 Q248.3 106.4 252.15 98.55 M303.05 69.65 Q308.85 50.85 311.25 32.2 M288.9 81.05 Q278.95 112.55 261.9 144.05 M288.9 81.05 L288.9 80.9 Q291.9 71.0 295.4 62.2 M291.9 112.15 Q304.55 96.8 309.2 81.65 M303.05 69.65 Q299.1 82.55 293.65 95.45 M291.0 120.5 Q297.9 111.5 303.6 102.5 M267.7 78.5 Q277.55 98.55 267.7 118.5 L260.8 131.45 M291.0 120.5 Q277.35 138.55 259.25 156.55 M291.9 112.15 Q286.05 119.1 278.55 126.1 M256.05 140.55 Q265.75 105.65 255.75 91.7 M233.75 175.8 Q264.65 172.4 283.85 138.85 M239.2 160.3 Q254.75 131.85 245.0 115.35 M286.65 240.4 Q285.2 233.85 282.8 227.75 285.4 242.85 239.95 191.0 M286.65 248.65 Q249.9 228.55 230.35 186.85 M282.8 227.75 Q272.25 200.8 241.85 182.4" fill="none" stroke="#000000" stroke-linecap="round" stroke-linejoin="round" stroke-opacity="0.2509804" stroke-width="1.0"/>
  </g>
</svg>
