<?xml version="1.0" encoding="UTF-8" standalone="no"?>
<svg xmlns:xlink="http://www.w3.org/1999/xlink" height="242.45px" width="263.5px" xmlns="http://www.w3.org/2000/svg">
  <g transform="matrix(1.0, 0.0, 0.0, 1.0, -65.75, -173.45)">
    <path d="M109.35 212.7 Q117.1 193.35 121.05 173.45 119.1 209.5 113.35 238.65 95.9 325.5 113.35 395.7 115.55 404.55 118.25 413.1 L83.35 411.9 Q71.95 410.45 65.8 407.55 64.8 356.3 83.35 289.8 93.45 253.55 109.35 212.7 M289.75 272.7 Q292.1 299.0 307.65 332.0 325.2 369.45 329.25 408.05 318.2 414.15 298.25 415.9 298.9 406.65 298.8 396.0 297.9 361.25 286.8 311.65 282.45 292.55 280.5 270.35 277.25 233.75 285.05 199.8 286.35 235.45 289.75 272.7" fill="#000000" fill-rule="evenodd" stroke="none"/>
  </g>
</svg>
