<?xml version="1.0" encoding="UTF-8" standalone="no"?>
<svg xmlns:xlink="http://www.w3.org/1999/xlink" height="199.35px" width="243.3px" xmlns="http://www.w3.org/2000/svg">
  <g transform="matrix(1.0, 0.0, 0.0, 1.0, -79.65, -106.3)">
    <path d="M240.0 146.3 L244.2 144.9 244.75 144.7 244.65 144.55 Q263.2 129.1 258.0 110.75 L259.05 111.25 262.0 112.65 Q280.55 121.65 295.85 133.9 303.65 140.15 310.65 147.2 317.3 178.6 311.4 210.1 L322.95 230.35 Q317.5 261.1 318.3 291.8 305.45 295.7 292.6 292.45 277.8 270.95 269.8 256.0 L269.6 246.15 230.3 246.75 Q201.85 247.35 162.1 243.45 162.95 234.1 161.2 224.8 153.85 222.85 150.25 216.5 146.85 225.6 141.8 234.75 L146.8 248.1 Q143.45 268.85 146.3 289.6 L146.8 292.85 Q132.0 305.2 117.15 305.65 85.4 277.35 79.65 245.3 L86.25 225.25 Q79.0 180.4 95.05 137.15 111.65 124.1 135.1 116.2 155.35 109.35 180.7 106.3 189.1 127.55 217.65 143.25 L223.5 144.7 229.55 146.3 Q237.2 148.75 240.0 146.3" fill="#000000" fill-rule="evenodd" stroke="none"/>
  </g>
</svg>
