<?xml version="1.0" encoding="UTF-8" standalone="no"?>
<svg xmlns:xlink="http://www.w3.org/1999/xlink" height="197.75px" width="233.6px" xmlns="http://www.w3.org/2000/svg">
  <g transform="matrix(1.0, 0.0, 0.0, 1.0, -79.65, -107.9)">
    <path d="M240.0 146.3 Q242.35 145.45 244.75 144.7 L252.25 142.6 259.05 141.05 260.35 140.8 Q268.15 130.25 268.7 116.05 283.35 123.9 295.85 133.9 303.65 140.15 310.65 147.2 312.35 155.25 313.25 163.3 302.45 165.05 293.35 169.0 286.45 172.0 280.55 176.2 280.35 182.15 279.55 188.25 L273.7 195.4 265.35 246.25 230.3 246.75 182.65 245.25 185.15 200.0 185.2 199.95 190.5 191.0 189.4 179.0 Q160.05 157.35 112.5 157.85 109.7 192.1 114.9 227.25 L108.25 247.0 Q114.35 277.0 130.55 299.9 L131.5 302.45 Q124.35 305.45 117.15 305.65 85.4 277.35 79.65 245.3 L86.25 225.25 Q79.0 180.4 95.05 137.15 111.65 124.1 135.1 116.2 150.7 110.9 169.3 107.9 177.5 122.85 191.15 137.8 L190.85 138.1 191.5 138.2 194.1 138.6 203.25 140.2 207.15 140.95 214.8 142.6 223.5 144.7 229.55 146.3 Q237.2 148.75 240.0 146.3 M288.15 192.2 L287.3 217.4 296.05 235.35 303.35 293.9 Q297.95 293.8 292.6 292.45 277.8 270.95 269.8 256.0 L269.6 246.15 Q269.5 228.45 272.2 215.75 281.35 206.4 283.05 197.0 L288.15 192.2" fill="#000000" fill-rule="evenodd" stroke="none"/>
  </g>
</svg>
