<?xml version="1.0" encoding="UTF-8" standalone="no"?>
<svg xmlns:xlink="http://www.w3.org/1999/xlink" height="251.75px" width="263.65px" xmlns="http://www.w3.org/2000/svg">
  <g transform="matrix(1.0, 0.0, 0.0, 1.0, -79.65, -110.85)">
    <path d="M328.3 341.2 L328.55 348.5 Q327.15 355.85 319.7 355.3 315.3 354.55 313.85 351.6 307.5 354.55 303.75 352.4 300.95 350.75 299.65 346.3 295.2 347.85 292.4 346.3 289.9 344.95 288.65 341.25 285.1 340.7 283.25 339.0 284.9 333.55 283.5 328.15 L283.5 328.1 282.3 322.3 Q282.8 319.25 283.6 316.2 L285.95 308.0 Q288.65 300.15 292.6 292.45 277.8 270.95 269.8 256.0 L269.6 246.15 230.3 246.75 Q201.85 247.35 162.1 243.45 162.95 234.1 161.2 224.8 153.85 222.85 150.25 216.5 146.85 225.6 141.8 234.75 L146.8 248.1 Q143.45 268.85 146.3 289.6 L146.8 292.85 177.5 310.6 173.75 328.15 180.35 337.75 178.75 339.65 Q176.5 341.7 173.25 341.5 170.05 341.25 166.0 338.95 L165.9 338.95 Q165.45 349.5 165.9 360.1 L154.4 362.6 152.9 358.45 152.9 358.4 Q144.85 361.8 139.7 354.85 L113.85 337.75 Q116.1 318.6 117.15 305.65 85.4 277.35 79.65 245.3 L86.25 225.25 Q79.0 180.4 95.05 137.15 111.65 124.1 135.1 116.2 144.1 113.15 154.1 110.85 172.85 121.35 191.0 137.95 L190.85 138.1 191.2 138.15 Q215.5 160.45 238.55 193.9 268.5 166.2 276.4 138.5 278.7 130.3 279.15 122.1 287.9 127.55 295.85 133.9 303.65 140.15 310.65 147.2 317.3 178.6 311.4 210.1 L322.95 230.35 Q317.5 261.1 318.3 291.8 L343.3 316.55 Q335.85 326.15 333.4 341.2 L328.3 341.2 M148.5 347.25 L148.55 347.2 148.5 347.2 148.5 347.25" fill="#000000" fill-rule="evenodd" stroke="none"/>
  </g>
</svg>
