<?xml version="1.0" encoding="UTF-8" standalone="no"?>
<svg xmlns:xlink="http://www.w3.org/1999/xlink" height="146.95px" width="149.25px" xmlns="http://www.w3.org/2000/svg">
  <g transform="matrix(1.0, 0.0, 0.0, 1.0, -94.05, -100.3)">
    <path d="M205.55 101.3 L202.55 104.45 194.1 105.0 190.85 105.3 Q159.35 108.0 135.1 116.2 111.65 124.1 95.05 137.15 M162.1 243.45 Q162.95 234.1 161.2 224.8 153.85 222.85 150.25 216.5" fill="none" stroke="#000000" stroke-linecap="round" stroke-linejoin="round" stroke-width="2.0"/>
    <path d="M145.6 134.45 Q168.25 134.65 190.85 138.1 L194.1 138.6 203.25 140.2 207.15 140.95 214.8 142.6 223.5 144.7 229.55 146.3 Q232.5 147.25 234.75 147.45 L231.55 136.35 223.75 136.35 219.4 132.85 215.6 129.55 Q212.05 126.3 209.05 122.9 L209.85 107.95 209.15 107.85 Q207.75 107.45 207.1 106.35 206.05 104.35 205.55 101.3 M202.55 104.45 L195.35 111.95 M209.85 107.95 L211.6 107.95 M95.05 137.15 Q115.25 142.6 132.8 154.85 134.95 165.2 144.65 180.6 L156.65 189.55 165.15 195.9 Q170.5 199.75 182.15 199.95 193.4 200.15 210.4 197.0 224.25 194.45 238.55 193.9 L242.8 187.6 242.8 187.25 Q242.9 180.25 242.0 173.75 240.7 164.6 237.3 156.5 L234.75 147.45 M150.25 216.5 Q152.85 209.4 154.5 202.3 155.95 195.9 156.65 189.55 M215.15 204.65 L206.5 213.55 202.3 233.2 M230.3 246.75 L234.8 213.75 239.95 202.95 Q241.85 198.45 238.55 193.9" fill="none" stroke="#000000" stroke-linecap="round" stroke-linejoin="round" stroke-width="1.0"/>
  </g>
</svg>
