<?xml version="1.0" encoding="UTF-8" standalone="no"?>
<svg xmlns:xlink="http://www.w3.org/1999/xlink" height="145.0px" width="235.6px" xmlns="http://www.w3.org/2000/svg">
  <g transform="matrix(1.0, 0.0, 0.0, 1.0, -78.65, -106.9)">
    <path d="M268.7 116.05 Q283.35 123.9 295.85 133.9 303.65 140.15 310.65 147.2 312.35 155.25 313.25 163.3 M79.65 245.3 L86.25 225.25 Q79.0 180.4 95.05 137.15 111.65 124.1 135.1 116.2 150.7 110.9 169.3 107.9" fill="none" stroke="#000000" stroke-linecap="round" stroke-linejoin="round" stroke-width="2.0"/>
    <path d="M169.3 107.9 Q177.6 123.05 191.5 138.2 L194.1 138.6 203.25 140.2 207.15 140.95 214.8 142.6 223.5 144.7 229.55 146.3 Q237.2 148.75 240.0 146.3 242.35 145.45 244.75 144.7 L252.25 142.6 259.05 141.05 260.35 140.8 Q268.15 130.25 268.7 116.05 M313.25 163.3 Q302.45 165.05 293.35 169.0 286.45 172.0 280.55 176.2 280.35 182.15 279.55 188.25 L273.7 195.4 265.35 246.25 M145.6 134.45 Q168.25 134.65 190.85 138.1 L191.5 138.2 M182.65 245.25 L185.15 200.0 185.2 199.95 190.5 191.0 189.4 179.0 Q160.05 157.35 112.5 157.85 109.7 192.1 114.9 227.25 L108.25 247.0 109.2 251.4 Q93.8 250.4 79.65 245.3 M273.7 195.4 Q255.8 193.2 238.55 193.9 224.25 194.45 210.4 197.0 195.6 199.75 185.2 199.95 M237.3 156.5 Q243.1 170.35 242.8 187.25 L242.8 187.6 238.55 193.9 M260.35 140.8 L262.0 140.5 Q273.6 138.35 286.95 137.65 M293.35 169.0 Q292.55 160.95 290.35 152.85 L289.75 150.7 M288.15 192.2 L287.3 217.4 296.05 235.35 296.65 240.1 Q283.1 243.25 269.6 242.75 269.8 227.2 272.2 215.75 281.35 206.4 283.05 197.0 L288.15 192.2 M253.05 204.4 L258.9 214.75 258.9 233.95 M231.1 239.1 L234.8 213.75 239.95 202.95 M215.15 204.65 L206.5 213.55 202.3 233.2" fill="none" stroke="#000000" stroke-linecap="round" stroke-linejoin="round" stroke-width="1.0"/>
  </g>
</svg>
