<?xml version="1.0" encoding="UTF-8" standalone="no"?>
<svg xmlns:xlink="http://www.w3.org/1999/xlink" height="139.85px" width="148.25px" xmlns="http://www.w3.org/2000/svg">
  <g transform="matrix(1.0, 0.0, 0.0, 1.0, -142.6, -106.9)">
    <path d="M268.7 116.05 Q273.75 118.75 278.55 121.75 M143.6 113.55 Q155.65 110.1 169.3 107.9" fill="none" stroke="#000000" stroke-linecap="round" stroke-linejoin="round" stroke-width="2.0"/>
    <path d="M169.3 107.9 Q177.6 123.05 191.5 138.2 L194.1 138.6 203.25 140.2 207.15 140.95 214.8 142.6 223.5 144.7 229.55 146.3 Q237.2 148.75 240.0 146.3 242.35 145.45 244.75 144.7 L252.25 142.6 259.05 141.05 260.35 140.8 Q268.15 130.25 268.7 116.05 M278.55 121.75 Q281.65 129.6 284.15 137.85 288.0 150.45 290.35 163.8 278.95 180.35 275.6 191.3 L274.15 198.9 265.35 246.25 M143.6 113.55 Q151.25 123.05 155.25 134.7 173.05 135.35 190.85 138.1 L191.5 138.2 M182.65 245.25 L186.25 199.95 186.8 193.1 186.8 192.75 Q187.3 177.85 159.6 160.5 159.25 146.5 155.25 134.7 M274.15 198.9 Q274.2 197.3 274.55 195.5 256.2 193.15 238.55 193.9 224.25 194.45 210.4 197.0 196.35 199.6 186.25 199.95 M237.3 156.5 Q243.1 170.35 242.8 187.25 L242.8 187.6 238.55 193.9 M260.35 140.8 L262.0 140.5 Q272.4 138.6 284.15 137.85 M274.55 195.5 Q274.9 193.5 275.6 191.3 M253.05 204.4 L258.9 214.75 258.9 233.95 M215.15 204.65 L206.5 213.55 202.3 233.2 M231.1 239.1 L234.8 213.75 239.95 202.95" fill="none" stroke="#000000" stroke-linecap="round" stroke-linejoin="round" stroke-width="1.0"/>
  </g>
</svg>
