<?xml version="1.0" encoding="UTF-8" standalone="no"?>
<svg xmlns:xlink="http://www.w3.org/1999/xlink" height="100.0px" width="228.3px" xmlns="http://www.w3.org/2000/svg">
  <g transform="matrix(1.0, 0.0, 0.0, 1.0, -86.65, -103.45)">
    <path d="M202.55 104.45 L194.1 105.0 190.85 105.3 Q159.35 108.0 135.1 116.2 111.65 124.1 95.05 137.15 90.35 149.85 87.65 162.65 M313.95 171.4 Q313.2 159.3 310.65 147.2 303.65 140.15 295.85 133.9 280.55 121.65 262.0 112.65 L259.05 111.25 257.1 110.35 252.25 108.2" fill="none" stroke="#000000" stroke-linecap="round" stroke-linejoin="round" stroke-width="2.0"/>
    <path d="M145.6 134.45 Q168.25 134.65 190.85 138.1 L194.1 138.6 203.25 140.2 207.15 140.95 214.8 142.6 223.5 144.7 229.55 146.3 Q237.2 148.75 240.0 146.3 242.35 145.45 244.75 144.7 L252.25 142.6 259.05 141.05 262.0 140.5 Q273.6 138.35 286.95 137.65 M252.25 108.2 Q251.65 111.7 249.15 114.0 L248.0 132.1 244.45 136.35 223.75 136.35 219.4 132.85 215.6 129.55 214.3 128.35 Q200.85 123.1 195.35 111.95 L202.55 104.45 M87.65 162.65 L107.95 175.0 Q120.3 160.85 141.5 150.4 190.4 167.15 228.75 194.55 L238.55 193.9 242.8 187.6 242.8 187.25 Q243.1 170.35 237.3 156.5 M238.55 193.9 Q243.9 193.7 249.35 193.75 268.35 176.0 292.2 161.15 L292.25 161.1 291.15 155.85 290.35 152.85 289.75 150.7 M291.15 155.85 Q306.35 162.05 313.95 171.4 M228.75 194.55 Q234.45 198.6 239.95 202.95 L249.35 193.75" fill="none" stroke="#000000" stroke-linecap="round" stroke-linejoin="round" stroke-width="1.0"/>
  </g>
</svg>
