<?xml version="1.0" encoding="UTF-8" standalone="no"?>
<svg xmlns:xlink="http://www.w3.org/1999/xlink" height="84.35px" width="146.35px" xmlns="http://www.w3.org/2000/svg">
  <g transform="matrix(1.0, 0.0, 0.0, 1.0, -142.6, -100.3)">
    <path d="M143.6 113.55 Q164.7 107.5 190.85 105.3 L194.1 105.0 202.55 104.45 205.55 101.3 M252.25 108.2 L257.1 110.35 259.05 111.25 262.0 112.65 Q270.6 116.8 278.55 121.75" fill="none" stroke="#000000" stroke-linecap="round" stroke-linejoin="round" stroke-width="2.0"/>
    <path d="M205.55 101.3 Q206.05 104.35 207.1 106.35 207.75 107.45 209.15 107.85 L209.85 107.95 211.6 107.95 M209.85 107.95 L209.05 122.9 Q212.05 126.3 215.6 129.55 L219.4 132.85 223.75 136.35 244.45 136.35 248.0 132.1 249.15 114.0 Q251.65 111.7 252.25 108.2 M278.55 121.75 Q281.65 129.6 284.15 137.85 286.6 145.8 288.45 154.05 262.15 164.15 242.75 182.1 L242.8 184.15 M284.15 137.85 Q272.4 138.6 262.0 140.5 L259.05 141.05 252.25 142.6 244.75 144.7 Q242.35 145.45 240.0 146.3 237.2 148.75 229.55 146.3 L223.5 144.7 214.8 142.6 207.15 140.95 203.25 140.2 194.1 138.6 190.85 138.1 Q173.05 135.35 155.25 134.7 157.85 142.3 158.9 150.9 202.7 163.05 242.75 182.1 242.2 168.2 237.3 156.5 M202.55 104.45 L195.35 111.95 M155.25 134.7 Q151.25 123.05 143.6 113.55" fill="none" stroke="#000000" stroke-linecap="round" stroke-linejoin="round" stroke-width="1.0"/>
  </g>
</svg>
