<?xml version="1.0" encoding="UTF-8" standalone="no"?>
<svg xmlns:xlink="http://www.w3.org/1999/xlink" height="186.85px" width="65.9px" xmlns="http://www.w3.org/2000/svg">
  <g transform="matrix(1.0, 0.0, 0.0, 1.0, -236.3, -246.25)">
    <path d="M265.35 246.25 Q267.5 273.95 278.4 301.65 L283.5 328.1 283.5 328.15 Q284.9 333.55 283.25 339.0 L276.45 355.35 272.1 361.6 Q266.0 370.65 261.1 380.0 258.35 385.25 255.95 390.6 L264.1 397.35 Q270.6 402.35 278.5 407.4 282.85 410.2 287.7 413.0 L293.25 416.6 Q301.8 423.1 302.2 430.95 L286.15 433.1 Q242.45 415.45 236.3 395.9 L252.95 329.95 Q256.55 288.2 252.95 246.4 L265.35 246.25" fill="#000000" fill-rule="evenodd" stroke="none"/>
  </g>
</svg>
