<?xml version="1.0" encoding="UTF-8" standalone="no"?>
<svg xmlns:xlink="http://www.w3.org/1999/xlink" height="140.7px" width="156.5px" xmlns="http://www.w3.org/2000/svg">
  <g transform="matrix(1.0, 0.0, 0.0, 1.0, -127.75, -259.65)">
    <path d="M150.8 278.6 L155.3 267.65 158.2 260.65 M270.9 263.25 L272.2 269.65 274.95 283.75 M130.0 380.75 L128.75 393.55 M169.75 396.55 Q171.1 391.5 173.2 386.5 M165.7 348.65 Q165.65 354.35 165.9 360.1 L154.4 362.6 152.9 358.45 152.9 358.4 Q144.85 361.8 139.7 354.85 L132.9 350.4 131.7 363.1 M182.15 370.05 Q184.65 366.25 187.6 362.5 L196.0 348.65 M218.8 330.5 Q215.95 321.3 215.45 312.1 210.95 321.5 205.9 331.0 M173.75 328.15 L177.5 310.6 162.2 301.75 M278.4 301.65 L282.4 322.3 M221.8 338.7 L216.85 347.8 218.15 359.1 M272.1 361.6 L276.45 355.35 283.25 339.0 M221.2 385.5 L220.15 376.1 M261.1 380.0 Q258.35 385.25 255.95 390.6" fill="none" stroke="#000000" stroke-linecap="round" stroke-linejoin="round" stroke-width="2.0"/>
    <path d="M158.2 260.65 Q171.95 261.2 186.05 265.85 192.3 267.9 198.6 270.8 L199.4 271.15 203.05 272.9 227.45 274.75 Q242.85 275.45 256.4 274.8 260.05 272.7 263.0 270.5 267.8 266.95 270.9 263.25 M274.95 283.75 Q252.15 296.2 221.4 299.05 182.25 291.7 150.8 278.6 M128.75 393.55 Q147.05 404.4 169.75 396.55 M173.2 386.5 Q150.65 390.15 130.0 380.75 M131.7 363.1 Q155.9 372.4 182.15 370.05 M196.0 348.65 Q179.75 353.85 165.7 348.65 M256.4 274.8 L249.15 278.65 226.05 288.05 221.4 299.05 M203.05 272.9 Q215.0 278.8 223.0 285.4 L223.25 285.6 223.7 285.95 224.0 286.2 224.25 286.45 224.5 286.65 224.85 287.0 225.15 287.25 225.45 287.5 225.9 287.95 226.05 288.05 M205.9 331.0 Q191.6 333.25 173.75 328.15 M162.2 301.75 Q189.85 310.95 215.45 312.1 255.55 312.05 278.4 301.65 M282.4 322.3 Q262.4 332.7 218.8 330.5 M283.25 339.0 Q270.7 356.85 224.85 345.25 223.15 342.0 221.8 338.7 M218.15 359.1 Q257.8 371.2 272.1 361.6 M255.95 390.6 Q245.0 401.6 221.9 391.45 L221.2 385.5 M220.15 376.1 Q246.85 384.2 261.1 380.0" fill="none" stroke="#000000" stroke-linecap="round" stroke-linejoin="round" stroke-width="1.0"/>
  </g>
</svg>
