<?xml version="1.0" encoding="UTF-8" standalone="no"?>
<svg xmlns:xlink="http://www.w3.org/1999/xlink" height="110.3px" width="164.4px" xmlns="http://www.w3.org/2000/svg">
  <g transform="matrix(1.0, 0.0, 0.0, 1.0, -138.8, -347.8)">
    <path d="M148.35 359.55 L141.4 398.75 Q136.85 426.2 142.05 455.0 M172.4 453.4 Q160.1 426.45 157.2 399.55 162.65 377.4 171.7 356.2 168.4 352.85 165.7 348.95 M148.35 359.5 L148.35 359.55 M286.15 433.1 Q242.45 415.45 236.3 395.9 L244.2 364.6 Q268.1 362.4 279.2 348.8" fill="none" stroke="#000000" stroke-linecap="round" stroke-linejoin="round" stroke-width="1.0"/>
    <path d="M165.7 348.95 Q165.65 354.5 165.9 360.1 L154.4 362.6 152.9 358.45 Q150.5 359.45 148.35 359.55 M142.05 455.0 L142.75 455.15 160.65 457.1 164.2 457.1 164.75 456.95 Q169.25 455.4 172.4 453.4 M152.9 358.45 L152.9 358.4 Q150.5 359.4 148.35 359.5" fill="none" stroke="#000000" stroke-linecap="round" stroke-linejoin="round" stroke-width="2.0"/>
    <path d="M279.2 348.8 L276.45 355.35 272.1 361.6 Q266.0 370.65 261.1 380.0 258.35 385.25 255.95 390.6 L256.2 390.8 261.1 395.0 261.4 395.25 261.65 395.45 262.1 395.8 266.25 399.0 266.6 399.25 266.7 399.35 266.95 399.5 270.7 402.2 278.5 407.4 283.3 410.4 287.7 413.0 293.25 416.6 Q301.8 423.1 302.2 430.95 L300.2 431.35 287.25 433.05 286.15 433.1" fill="none" stroke="#000000" stroke-linecap="round" stroke-linejoin="round" stroke-width="2.0"/>
  </g>
</svg>
