<?xml version="1.0" encoding="UTF-8" standalone="no"?>
<svg xmlns:xlink="http://www.w3.org/1999/xlink" height="96.0px" width="65.35px" xmlns="http://www.w3.org/2000/svg">
  <g transform="matrix(1.0, 0.0, 0.0, 1.0, -117.8, -362.1)">
    <path d="M131.7 363.1 L130.85 372.15 130.65 373.95 M176.6 379.4 L177.45 377.75 179.4 374.35 182.15 370.05 M176.6 379.4 Q174.7 382.95 173.2 386.5 171.1 391.5 169.75 396.55 168.7 400.4 168.1 404.3 167.55 408.0 167.4 411.65 L177.4 433.95 Q181.7 443.9 176.1 450.25 172.35 454.45 164.2 457.1 143.1 457.2 128.75 450.7 123.3 448.25 118.8 444.8 118.85 440.15 119.35 435.5 120.75 422.7 125.85 409.95 L122.3 400.55 128.75 393.55 130.6 374.35" fill="none" stroke="#000000" stroke-linecap="round" stroke-linejoin="round" stroke-width="2.0"/>
    <path d="M182.15 370.05 L177.05 370.4 168.7 370.5 165.45 370.35 162.6 379.65 Q152.9 379.15 144.2 376.95 L145.45 367.4 140.95 366.2 137.4 365.15 131.7 363.1 M130.85 372.15 Q135.15 374.2 139.85 375.65 L138.8 384.15 143.1 385.35 Q151.45 387.45 160.15 387.55 L163.8 387.45 166.05 379.75 176.6 379.4" fill="none" stroke="#000000" stroke-linecap="round" stroke-linejoin="round" stroke-width="1.0"/>
  </g>
</svg>
