<?xml version="1.0" encoding="UTF-8" standalone="no"?>
<svg xmlns:xlink="http://www.w3.org/1999/xlink" height="156.35px" width="82.4px" xmlns="http://www.w3.org/2000/svg">
  <g transform="matrix(1.0, 0.0, 0.0, 1.0, -114.6, -307.1)">
    <path d="M143.5 358.5 Q144.65 362.35 146.25 365.75 L147.35 367.85 148.05 369.1 Q150.95 374.1 154.85 377.9 161.55 374.55 166.75 370.4 176.95 362.3 181.55 351.25 188.55 351.05 196.0 348.65 L190.8 357.3 187.6 362.5 185.95 364.65 182.15 370.05 Q177.9 376.35 174.9 382.7 L173.2 386.5 Q171.9 389.6 170.9 392.7 170.25 394.6 169.75 396.55 167.7 404.1 167.4 411.65 L163.15 406.45 158.9 401.2 138.35 399.25 133.5 403.45 125.85 409.95 122.3 400.55 128.75 393.55 132.95 350.4 139.7 354.85 142.0 357.3 Q142.7 357.9 143.45 358.35 L143.5 358.5 M137.4 362.15 L138.55 364.6 Q142.65 373.6 143.65 382.05 144.4 388.65 143.35 394.9 144.4 388.65 143.65 382.05 142.65 373.6 138.55 364.6 L137.4 362.15 M175.1 369.9 Q163.8 380.25 161.0 396.65 163.8 380.25 175.1 369.9" fill="url(#gradient0)" fill-rule="evenodd" stroke="none"/>
    <path d="M143.55 358.4 Q145.3 359.35 147.25 359.5 L148.35 359.5 Q150.5 359.4 152.9 358.4 L152.9 358.45 154.4 362.6 165.9 360.1 165.8 357.3 165.8 357.15 170.75 355.1 177.2 340.75 178.75 339.65 180.35 337.75 180.35 337.7 182.5 335.7 183.0 347.2 181.55 351.25 Q176.95 362.3 166.75 370.4 161.55 374.55 154.85 377.9 150.95 374.1 148.05 369.1 L147.35 367.85 146.25 365.75 Q144.65 362.35 143.5 358.5 L143.55 358.4" fill="url(#gradient1)" fill-rule="evenodd" stroke="none"/>
    <path d="M177.2 340.75 L170.75 355.1 165.8 357.15 165.7 348.65 165.7 346.35 165.9 338.95 166.0 338.95 Q170.05 341.25 173.25 341.5 175.45 341.65 177.2 340.75" fill="url(#gradient2)" fill-rule="evenodd" stroke="none"/>
    <path d="M182.5 335.7 L180.35 337.7 173.75 328.15 177.5 310.6 173.15 308.1 Q177.75 308.0 181.65 310.8 L182.5 335.7" fill="url(#gradient3)" fill-rule="evenodd" stroke="none"/>
    <path d="M133.5 403.45 L138.35 399.25 158.9 401.2 163.15 406.45 158.15 417.1 141.25 417.1 133.5 403.45" fill="url(#gradient4)" fill-rule="evenodd" stroke="none"/>
    <path d="M125.85 409.95 L133.5 403.45 141.25 417.1 158.15 417.1 163.15 406.45 167.4 411.65 177.4 433.95 178.35 436.5 Q174.7 440.05 170.4 442.45 L160.65 432.25 140.2 432.25 131.75 443.65 124.0 440.95 119.05 438.95 119.35 435.5 Q120.75 422.7 125.85 409.95" fill="url(#gradient5)" fill-rule="evenodd" stroke="none"/>
    <path d="M170.4 442.45 L166.85 444.1 Q160.15 446.8 152.15 446.9 146.15 446.95 139.45 445.6 L131.75 443.65 140.2 432.25 160.65 432.25 170.4 442.45" fill="url(#gradient6)" fill-rule="evenodd" stroke="none"/>
    <path d="M178.35 436.5 L181.5 433.0 184.1 440.35 Q182.0 454.95 165.7 462.45 129.55 461.5 115.6 445.85 L115.6 437.4 119.05 438.95 124.0 440.95 131.75 443.65 139.45 445.6 Q146.15 446.95 152.15 446.9 160.15 446.8 166.85 444.1 L170.4 442.45 Q174.7 440.05 178.35 436.5" fill="url(#gradient7)" fill-rule="evenodd" stroke="none"/>
    <path d="M165.8 357.15 L165.8 357.3 165.9 360.1 154.4 362.6 152.9 358.45 152.9 358.4 Q150.5 359.4 148.35 359.5 L147.25 359.5 Q145.3 359.35 143.55 358.4 L143.45 358.35 Q142.7 357.9 142.0 357.3 L139.7 354.85 132.95 350.4 128.75 393.55 122.3 400.55 125.85 409.95 Q120.75 422.7 119.35 435.5 L119.05 438.95 115.6 437.4 115.6 445.85 Q129.55 461.5 165.7 462.45 182.0 454.95 184.1 440.35 L181.5 433.0 178.35 436.5 177.4 433.95 167.4 411.65 Q167.7 404.1 169.75 396.55 170.25 394.6 170.9 392.7 171.9 389.6 173.2 386.5 L174.9 382.7 Q177.9 376.35 182.15 370.05 L185.95 364.65 187.6 362.5 190.8 357.3 196.0 348.65 M180.35 337.7 L180.35 337.75 178.75 339.65 177.2 340.75 Q175.45 341.65 173.25 341.5 170.05 341.25 166.0 338.95 L165.9 338.95 165.7 346.35 165.7 348.65 165.8 357.15 M180.35 337.7 L173.75 328.15 177.5 310.6 173.15 308.1" fill="none" stroke="#000000" stroke-linecap="round" stroke-linejoin="round" stroke-width="2.0"/>
    <path d="M143.5 358.5 Q144.65 362.35 146.25 365.75 L147.35 367.85 148.05 369.1 Q150.95 374.1 154.85 377.9 161.55 374.55 166.75 370.4 176.95 362.3 181.55 351.25 L183.0 347.2 182.5 335.7 180.35 337.7 177.35 340.4 177.2 340.75 170.75 355.1 165.8 357.15 M173.15 308.1 Q177.75 308.0 181.65 310.8 L182.5 335.7 M143.45 358.35 L143.5 358.5 M125.85 409.95 L133.5 403.45 138.35 399.25 158.9 401.2 163.15 406.45 167.4 411.65 M196.0 348.65 Q188.55 351.05 181.55 351.25 M143.35 394.9 Q144.4 388.65 143.65 382.05 142.65 373.6 138.55 364.6 L137.4 362.15 M178.35 436.5 Q174.7 440.05 170.4 442.45 L166.85 444.1 Q160.15 446.8 152.15 446.9 146.15 446.95 139.45 445.6 L131.75 443.65 124.0 440.95 119.05 438.95 M133.5 403.45 L141.25 417.1 158.15 417.1 163.15 406.45 M131.75 443.65 L140.2 432.25 160.65 432.25 170.4 442.45 M161.0 396.65 Q163.8 380.25 175.1 369.9" fill="none" stroke="#000000" stroke-linecap="round" stroke-linejoin="round" stroke-width="1.0"/>
    <path d="M143.45 358.35 L143.5 358.5 Q144.65 362.35 146.25 365.75 L143.65 382.05 Q142.65 373.6 138.55 364.6 142.65 373.6 143.65 382.05 L141.2 397.25 139.4 399.35 138.35 399.25 133.5 403.45 130.75 405.75 133.5 403.45 138.35 399.25 139.4 399.35 135.75 403.5 138.2 411.7 138.25 411.95 Q132.25 425.05 134.4 438.15 L135.45 438.65 131.75 443.65 124.0 440.95 Q124.9 425.55 132.15 410.1 L130.75 405.75 129.75 402.6 134.95 395.45 138.55 364.6 139.7 354.85 142.0 357.3 Q142.7 357.9 143.45 358.35 M152.15 446.9 Q146.15 446.95 139.45 445.6 L131.75 443.65 135.45 438.65 152.15 446.9 M138.2 411.7 L133.5 403.45 138.2 411.7" fill="#ffffff" fill-opacity="0.2509804" fill-rule="evenodd" stroke="none"/>
    <path d="M165.8 357.15 L165.8 357.3 165.9 360.1 154.4 362.6 152.9 358.45 152.9 358.4 Q150.5 359.4 148.35 359.5 L147.25 359.5 Q145.2 359.35 143.45 358.35 142.7 357.9 142.0 357.3 L139.7 354.85 132.95 350.4 128.75 393.55 122.3 400.55 125.85 409.95 Q120.75 422.7 119.35 435.5 L119.05 438.95 115.6 437.4 115.6 445.85 Q129.55 461.5 165.7 462.45 182.0 454.95 184.1 440.35 L181.5 433.0 178.35 436.5 177.4 433.95 167.4 411.65 Q167.7 404.1 169.75 396.55 170.25 394.6 170.9 392.7 171.9 389.6 173.2 386.5 L174.9 382.7 Q177.9 376.35 182.15 370.05 L185.95 364.65 187.6 362.5 190.8 357.3 196.0 348.65 M180.35 337.7 L180.35 337.75 178.75 339.65 177.2 340.75 Q175.45 341.65 173.25 341.5 170.05 341.25 166.0 338.95 L165.9 338.95 165.7 346.35 165.7 348.65 165.8 357.15 M180.35 337.7 L173.75 328.15 177.5 310.6 173.15 308.1" fill="none" stroke="#000000" stroke-linecap="round" stroke-linejoin="round" stroke-width="2.0"/>
    <path d="M143.45 358.35 L143.5 358.5 Q144.65 362.35 146.25 365.75 L147.35 367.85 148.05 369.1 Q150.95 374.1 154.85 377.9 161.55 374.55 166.75 370.4 176.95 362.3 181.55 351.25 L183.0 347.2 182.5 335.7 180.35 337.7 177.35 340.4 177.2 340.75 170.75 355.1 165.8 357.15 M173.15 308.1 Q177.75 308.0 181.65 310.8 L182.5 335.7 M138.55 364.6 Q142.65 373.6 143.65 382.05 144.4 388.65 143.35 394.9 M138.55 364.6 L137.4 362.15 M125.85 409.95 L130.75 405.75 133.5 403.45 138.35 399.25 139.4 399.35 158.9 401.2 163.15 406.45 167.4 411.65 M196.0 348.65 Q188.55 351.05 181.55 351.25 M178.35 436.5 Q174.7 440.05 170.4 442.45 L166.85 444.1 Q160.15 446.8 152.15 446.9 146.15 446.95 139.45 445.6 L131.75 443.65 124.0 440.95 119.05 438.95 M138.2 411.7 L141.25 417.1 158.15 417.1 163.15 406.45 M135.45 438.65 L140.2 432.25 160.65 432.25 170.4 442.45 M133.5 403.45 L138.2 411.7 M131.75 443.65 L135.45 438.65 M161.0 396.65 Q163.8 380.25 175.1 369.9" fill="none" stroke="#000000" stroke-linecap="round" stroke-linejoin="round" stroke-width="1.0"/>
  </g>
  <defs>
    <linearGradient gradientTransform="matrix(-0.045, 0.0, 0.0, -0.0385, 159.15, 380.15)" gradientUnits="userSpaceOnUse" id="gradient0" spreadMethod="pad" x1="-819.2" x2="819.2">
      <stop offset="0.0" stop-color="#000000" stop-opacity="0.0"/>
      <stop offset="1.0" stop-color="#000000" stop-opacity="0.2509804"/>
    </linearGradient>
    <linearGradient gradientTransform="matrix(-0.0241, 0.0, 0.0, -0.0258, 163.25, 356.8)" gradientUnits="userSpaceOnUse" id="gradient1" spreadMethod="pad" x1="-819.2" x2="819.2">
      <stop offset="0.0" stop-color="#000000" stop-opacity="0.0"/>
      <stop offset="1.0" stop-color="#000000" stop-opacity="0.2509804"/>
    </linearGradient>
    <linearGradient gradientTransform="matrix(-0.007, 0.0, 0.0, -0.0111, 171.45, 348.05)" gradientUnits="userSpaceOnUse" id="gradient2" spreadMethod="pad" x1="-819.2" x2="819.2">
      <stop offset="0.0" stop-color="#000000" stop-opacity="0.0"/>
      <stop offset="1.0" stop-color="#000000" stop-opacity="0.2509804"/>
    </linearGradient>
    <linearGradient gradientTransform="matrix(-0.0057, 0.0, 0.0, -0.0181, 177.85, 322.9)" gradientUnits="userSpaceOnUse" id="gradient3" spreadMethod="pad" x1="-819.2" x2="819.2">
      <stop offset="0.0" stop-color="#000000" stop-opacity="0.0"/>
      <stop offset="1.0" stop-color="#000000" stop-opacity="0.2509804"/>
    </linearGradient>
    <linearGradient gradientTransform="matrix(-0.0181, 0.0, 0.0, -0.0109, 148.35, 408.2)" gradientUnits="userSpaceOnUse" id="gradient4" spreadMethod="pad" x1="-819.2" x2="819.2">
      <stop offset="0.0" stop-color="#000000" stop-opacity="0.0"/>
      <stop offset="1.0" stop-color="#000000" stop-opacity="0.2509804"/>
    </linearGradient>
    <linearGradient gradientTransform="matrix(-0.0362, 0.0, 0.0, -0.0245, 148.7, 423.55)" gradientUnits="userSpaceOnUse" id="gradient5" spreadMethod="pad" x1="-819.2" x2="819.2">
      <stop offset="0.0" stop-color="#000000" stop-opacity="0.0"/>
      <stop offset="1.0" stop-color="#000000" stop-opacity="0.2509804"/>
    </linearGradient>
    <linearGradient gradientTransform="matrix(-0.0236, 0.0, 0.0, -0.0089, 151.1, 439.6)" gradientUnits="userSpaceOnUse" id="gradient6" spreadMethod="pad" x1="-819.2" x2="819.2">
      <stop offset="0.0" stop-color="#000000" stop-opacity="0.0"/>
      <stop offset="1.0" stop-color="#000000" stop-opacity="0.2509804"/>
    </linearGradient>
    <linearGradient gradientTransform="matrix(-0.0418, 0.0, 0.0, -0.018, 149.85, 447.75)" gradientUnits="userSpaceOnUse" id="gradient7" spreadMethod="pad" x1="-819.2" x2="819.2">
      <stop offset="0.0" stop-color="#000000" stop-opacity="0.0"/>
      <stop offset="1.0" stop-color="#000000" stop-opacity="0.2509804"/>
    </linearGradient>
  </defs>
</svg>
