<?xml version="1.0" encoding="UTF-8" standalone="no"?>
<svg xmlns:xlink="http://www.w3.org/1999/xlink" height="44.6px" width="122.15px" xmlns="http://www.w3.org/2000/svg">
  <g transform="matrix(1.0, 0.0, 0.0, 1.0, -154.2, -243.45)">
    <path d="M154.7 268.0 Q152.65 259.05 159.2 251.0 L155.75 253.05 Q157.1 246.45 162.1 243.45 201.85 247.35 230.3 246.75 L269.6 246.15 Q274.85 252.05 276.35 259.65 L271.85 257.6 Q276.3 264.65 274.6 274.25 272.55 268.05 267.85 266.4 264.3 275.5 254.05 282.95 255.6 280.1 254.05 276.1 244.85 284.45 226.05 288.05 207.0 283.5 195.9 269.55 189.65 270.7 191.2 276.0 175.75 271.75 168.05 261.6 159.65 261.4 154.7 268.0" fill="#000000" fill-rule="evenodd" stroke="none"/>
  </g>
</svg>
