<?xml version="1.0" encoding="UTF-8" standalone="no"?>
<svg xmlns:xlink="http://www.w3.org/1999/xlink" height="45.5px" width="124.4px" xmlns="http://www.w3.org/2000/svg">
  <g transform="matrix(1.0, 0.0, 0.0, 1.0, -151.65, -242.45)">
    <path d="M155.3 267.65 Q151.5 268.3 153.1 273.05 M155.3 267.65 L158.2 260.65 Q161.25 252.0 162.1 243.45 M274.2 279.9 Q276.35 275.25 272.95 273.35 L272.2 269.65 270.9 263.25 Q269.85 257.9 269.8 256.0" fill="none" stroke="#000000" stroke-linecap="round" stroke-linejoin="round" stroke-width="2.0"/>
    <path d="M153.1 273.05 L211.0 287.1 216.25 282.0 155.3 267.65 M272.95 273.35 L235.05 281.05 239.45 287.45 274.2 279.9 M269.8 256.0 L269.6 246.15 M230.3 246.75 L227.85 270.55 235.05 281.05 M216.25 282.0 L227.85 270.55" fill="none" stroke="#000000" stroke-linecap="round" stroke-linejoin="round" stroke-width="1.0"/>
  </g>
</svg>
