<?xml version="1.0" encoding="UTF-8" standalone="no"?>
<svg xmlns:xlink="http://www.w3.org/1999/xlink" height="142.0px" width="274.3px" xmlns="http://www.w3.org/2000/svg">
  <g transform="matrix(1.0, 0.0, 0.0, 1.0, -69.0, -220.6)">
    <path d="M333.4 341.2 L328.3 341.2 328.55 348.5 Q327.15 355.85 319.7 355.3 315.3 354.55 313.85 351.6 307.5 354.55 303.75 352.4 300.95 350.75 299.65 346.3 295.2 347.85 292.4 346.3 289.9 344.95 288.65 341.25 285.1 340.7 283.25 339.0 284.9 333.6 283.5 328.15 L283.95 327.55 283.4 327.65 282.3 322.3 Q282.8 319.25 283.6 316.2 L285.95 308.0 Q288.65 300.15 292.6 292.45 L284.1 279.8 Q278.6 271.35 274.4 264.2 L269.8 256.0 269.6 242.75 Q295.4 249.3 317.6 232.9 L322.55 228.95 Q326.8 225.2 330.9 220.6 320.35 253.4 318.25 289.6 L318.3 291.8 343.3 316.55 Q335.85 326.15 333.4 341.2 M144.9 244.4 Q149.15 240.9 152.7 235.9 145.95 264.4 146.8 292.85 L177.5 310.6 173.75 328.15 180.35 337.75 178.75 339.65 Q176.5 341.7 173.25 341.5 170.05 341.25 166.0 338.95 165.7 343.8 165.7 348.65 165.65 354.35 165.9 360.1 L154.4 362.6 152.9 358.4 Q144.85 361.8 139.7 354.85 L113.85 337.75 114.5 332.4 115.85 320.0 117.15 305.65 Q76.65 271.3 69.0 233.05 75.2 236.95 81.05 240.1 97.8 249.05 111.4 251.5 124.1 253.8 134.05 250.45 139.95 248.4 144.9 244.4" fill="#000000" fill-rule="evenodd" stroke="none"/>
  </g>
</svg>
