<?xml version="1.0" encoding="UTF-8" standalone="no"?>
<svg xmlns:xlink="http://www.w3.org/1999/xlink" height="63.15px" width="68.45px" xmlns="http://www.w3.org/2000/svg">
  <g transform="matrix(1.0, 0.0, 0.0, 1.0, -112.9, -300.4)">
    <path d="M113.9 337.75 L134.35 343.85 Q142.0 348.25 148.55 347.2 L148.65 347.2 Q152.1 346.6 155.25 344.5 155.75 344.05 156.4 343.65 L156.6 343.45 Q158.8 341.65 160.9 339.1 M161.95 301.75 Q150.3 311.4 153.55 329.45 138.65 335.95 114.7 330.85 M139.7 354.85 L134.35 343.85 M152.95 358.35 L148.55 347.3 148.55 347.2 M166.05 338.9 Q166.5 328.3 167.75 317.9 M161.95 301.75 L162.2 300.9" fill="none" stroke="#000000" stroke-linecap="round" stroke-linejoin="round" stroke-width="1.0"/>
    <path d="M114.7 330.85 L113.9 337.75 139.7 354.85 Q144.85 361.7 152.95 358.35 L154.4 362.55 165.95 360.1 Q165.55 349.5 165.95 338.9 L166.05 338.9 Q170.05 341.2 173.3 341.45 176.45 341.65 178.75 339.65 L180.35 337.75 173.85 328.1 177.5 310.55 161.95 301.75" fill="none" stroke="#000000" stroke-linecap="round" stroke-linejoin="round" stroke-width="2.0"/>
  </g>
</svg>
