<?xml version="1.0" encoding="UTF-8" standalone="no"?>
<svg xmlns:xlink="http://www.w3.org/1999/xlink" height="57.95px" width="61.7px" xmlns="http://www.w3.org/2000/svg">
  <g transform="matrix(1.0, 0.0, 0.0, 1.0, -281.6, -273.5)">
    <path d="M324.75 320.75 L323.6 330.6 Q317.5 330.0 314.05 331.45 310.75 325.8 304.9 328.2 304.05 326.85 303.0 326.0 301.95 325.15 300.8 324.75 L296.4 324.4 294.2 321.6 Q291.75 319.25 289.55 319.8 L283.5 328.1 282.25 322.3 283.6 316.25 286.0 308.05 Q288.6 300.15 292.6 292.5 284.35 290.65 284.9 286.15 279.45 281.0 283.05 278.15 L283.0 278.0 292.5 275.3 Q297.65 273.9 302.8 273.6 310.55 273.15 318.35 275.25 323.25 276.2 320.35 283.1 323.65 287.4 318.3 291.0 L318.0 291.75 318.3 291.85 318.35 291.85 343.3 316.55 324.75 320.75" fill="#000000" fill-rule="evenodd" stroke="none"/>
  </g>
</svg>
