<?xml version="1.0" encoding="UTF-8" standalone="no"?>
<svg xmlns:xlink="http://www.w3.org/1999/xlink" height="49.8px" width="48.2px" xmlns="http://www.w3.org/2000/svg">
  <g transform="matrix(1.0, 0.0, 0.0, 1.0, -273.4, -244.65)">
    <path d="M274.4 264.2 L274.45 264.2 Q289.1 263.35 300.9 258.55 302.8 274.9 306.65 291.25 L306.4 293.9 Q299.5 294.2 292.6 292.45 L287.0 284.15 284.1 279.8 Q278.6 271.4 274.4 264.2" fill="#000000" fill-opacity="0.2509804" fill-rule="evenodd" stroke="none"/>
    <path d="M320.6 245.65 L319.6 255.15 Q318.7 264.35 318.4 273.55 L318.2 284.15 318.3 291.8 M292.6 292.45 L287.0 284.15 284.1 279.8 Q278.6 271.4 274.4 264.2" fill="none" stroke="#000000" stroke-linecap="round" stroke-linejoin="round" stroke-width="2.0"/>
    <path d="M274.45 264.2 Q289.1 263.35 300.9 258.55 312.05 253.9 320.6 245.65 M318.3 291.8 Q312.35 293.6 306.4 293.9 299.5 294.2 292.6 292.45" fill="none" stroke="#000000" stroke-linecap="round" stroke-linejoin="round" stroke-width="1.0"/>
    <path d="M274.4 264.2 L274.45 264.2" fill="none" stroke="#000000" stroke-linecap="round" stroke-linejoin="round" stroke-width="2.0"/>
  </g>
</svg>
