<?xml version="1.0" encoding="UTF-8" standalone="no"?>
<svg xmlns:xlink="http://www.w3.org/1999/xlink" height="60.6px" width="36.5px" xmlns="http://www.w3.org/2000/svg">
  <g transform="matrix(1.0, 0.0, 0.0, 1.0, -205.3, -75.75)">
    <path d="M232.15 75.75 Q242.6 81.15 241.75 94.65 L240.5 109.7 240.3 109.6 220.3 113.2 222.95 130.9 230.25 130.9 232.85 128.45 239.05 128.45 238.4 136.35 223.75 136.35 219.4 132.85 215.6 129.55 Q212.05 126.3 209.05 122.9 L209.85 107.95 209.15 107.85 Q207.75 107.45 207.1 106.35 206.05 104.35 205.55 101.3 204.35 95.0 208.7 94.7 L209.4 94.75 Q209.7 81.05 219.55 77.4 222.4 76.35 226.0 76.15 L232.15 75.75" fill="#000000" fill-rule="evenodd" stroke="none"/>
  </g>
</svg>
