<?xml version="1.0" encoding="UTF-8" standalone="no"?>
<svg xmlns:xlink="http://www.w3.org/1999/xlink" height="124.8px" width="166.55px" xmlns="http://www.w3.org/2000/svg">
  <g transform="matrix(1.0, 0.0, 0.0, 1.0, -127.75, -101.0)">
    <path d="M156.65 189.55 L144.65 180.6 Q134.95 165.2 132.8 154.85 131.45 149.25 131.95 145.15 132.9 137.4 140.55 135.25 L145.6 134.45 Q168.25 134.65 190.85 138.1 L194.1 138.6 203.25 140.2 207.15 140.95 214.8 142.6 223.5 144.7 229.55 146.3 Q232.5 147.25 234.75 147.45 L235.45 147.5 237.3 156.5 Q243.1 170.35 242.8 187.25 L242.8 187.6 238.55 193.9 218.9 195.65 216.15 196.05 210.4 197.0 196.45 199.2 192.25 199.55 182.15 199.95 Q170.5 199.75 165.15 195.9 L156.65 189.55" fill="url(#gradient0)" fill-rule="evenodd" stroke="none"/>
    <path d="M284.1 137.85 L286.95 137.65 289.75 150.7 290.35 152.85 292.0 159.8 Q294.7 173.55 293.3 187.3 L283.05 197.0 277.5 195.9 270.9 195.1 263.3 194.35 260.1 194.15 257.85 194.0 Q248.1 193.5 238.55 193.9 L242.8 187.6 242.8 187.25 Q243.1 170.35 237.3 156.5 L235.45 147.5 Q238.45 147.65 240.0 146.3 242.35 145.45 244.75 144.7 L252.25 142.6 259.05 141.05 262.0 140.5 Q270.7 138.9 280.4 138.1 L284.1 137.85" fill="url(#gradient1)" fill-rule="evenodd" stroke="none"/>
    <path d="M283.05 197.0 Q281.35 206.4 272.2 215.75 268.0 216.1 261.9 213.65 L257.05 211.4 255.1 210.4 250.2 207.5 Q245.6 204.65 239.3 204.35 230.55 203.95 218.65 208.5 212.6 211.65 206.4 214.2 198.45 217.4 190.25 219.7 180.4 222.45 170.1 223.85 L161.2 224.8 Q153.85 222.85 150.25 216.5 152.75 209.65 154.4 202.85 155.95 196.2 156.65 189.55 L165.15 195.9 Q170.5 199.75 182.15 199.95 L192.25 199.55 196.45 199.2 210.4 197.0 216.15 196.05 218.9 195.65 238.55 193.9 Q248.1 193.5 257.85 194.0 L260.1 194.15 263.3 194.35 270.9 195.1 277.5 195.9 283.05 197.0 M206.5 213.55 L206.4 214.2 206.5 213.55" fill="url(#gradient2)" fill-rule="evenodd" stroke="none"/>
    <path d="M209.45 115.4 Q205.95 114.1 202.85 111.7 L199.05 108.15 198.9 108.0 199.05 108.15 202.85 111.7 Q205.95 114.1 209.45 115.4 L209.05 122.9 Q212.05 126.3 215.6 129.55 L219.4 132.85 223.75 136.35 244.45 136.35 248.0 132.1 249.05 116.0 249.15 114.0 Q251.65 111.7 252.25 108.2 L257.1 110.35 259.05 111.25 262.0 112.65 Q268.05 115.6 273.8 118.9 276.35 117.7 278.3 121.5 282.65 128.9 284.1 137.85 L280.4 138.1 Q270.7 138.9 262.0 140.5 L259.05 141.05 252.25 142.6 244.75 144.7 Q242.35 145.45 240.0 146.3 238.45 147.65 235.45 147.5 L234.75 147.45 Q232.5 147.25 229.55 146.3 L223.5 144.7 214.8 142.6 207.15 140.95 203.25 140.2 194.1 138.6 190.85 138.1 Q168.25 134.65 145.6 134.45 L144.9 132.7 142.8 128.3 140.05 123.7 Q137.55 119.85 134.4 116.45 L135.1 116.2 Q159.35 108.0 190.85 105.3 L194.1 105.0 195.75 104.9 196.4 104.85 198.9 108.0 201.1 105.85 201.15 105.95 204.9 109.35 Q207.1 111.2 209.6 112.85 L209.45 115.4 M191.5 110.5 L195.75 104.9 191.5 110.5 M140.55 135.25 L140.35 134.75 137.9 129.55 134.7 124.75 Q132.1 121.4 128.75 118.5 129.0 114.4 134.4 116.45 137.55 119.85 140.05 123.7 L142.8 128.3 144.9 132.7 145.6 134.45 140.55 135.25 M276.25 124.5 Q278.95 131.3 280.4 138.1 278.95 131.3 276.25 124.5 264.25 119.1 249.05 116.0 264.25 119.1 276.25 124.5 L273.8 118.9 276.25 124.5 M198.9 108.0 L191.9 115.05 Q165.3 116.05 140.05 123.7 165.3 116.05 191.9 115.05 L198.9 108.0" fill="url(#gradient3)" fill-rule="evenodd" stroke="none"/>
    <path d="M196.4 104.85 L195.75 104.9 194.1 105.0 190.85 105.3 Q159.35 108.0 135.1 116.2 L134.4 116.45 Q129.0 114.4 128.75 118.5 M252.25 108.2 L257.1 110.35 259.05 111.25 262.0 112.65 Q268.05 115.6 273.8 118.9 276.35 117.7 278.3 121.5 M161.2 224.8 Q153.85 222.85 150.25 216.5 M196.1 104.45 L197.65 102.0 199.8 104.5" fill="none" stroke="#000000" stroke-linecap="round" stroke-linejoin="round" stroke-width="2.0"/>
    <path d="M198.9 108.0 L199.05 108.15 202.85 111.7 Q205.95 114.1 209.45 115.4 L209.6 112.85 Q207.1 111.2 204.9 109.35 L201.15 105.95 201.1 105.85 199.9 104.6 199.8 104.5 M198.9 108.0 L196.4 104.85 196.1 104.45 195.75 104.9 191.5 110.5 M209.45 115.4 L209.05 122.9 Q212.05 126.3 215.6 129.55 L219.4 132.85 223.75 136.35 244.45 136.35 248.0 132.1 249.05 116.0 249.15 114.0 Q251.65 111.7 252.25 108.2 M278.3 121.5 Q282.65 128.9 284.1 137.85 L286.95 137.65 289.75 150.7 290.35 152.85 292.0 159.8 Q294.7 173.55 293.3 187.3 L283.05 197.0 Q281.35 206.4 272.2 215.75 268.0 216.1 261.9 213.65 L257.05 211.4 255.1 210.4 250.2 207.5 Q245.6 204.65 239.3 204.35 230.55 203.95 218.65 208.5 212.6 211.65 206.4 214.2 198.45 217.4 190.25 219.7 180.4 222.45 170.1 223.85 L161.2 224.8 M150.25 216.5 Q152.75 209.65 154.4 202.85 155.95 196.2 156.65 189.55 L144.65 180.6 Q134.95 165.2 132.8 154.85 131.45 149.25 131.95 145.15 132.9 137.4 140.55 135.25 L140.35 134.75 137.9 129.55 134.7 124.75 Q132.1 121.4 128.75 118.5 M145.6 134.45 Q168.25 134.65 190.85 138.1 L194.1 138.6 203.25 140.2 207.15 140.95 214.8 142.6 223.5 144.7 229.55 146.3 Q232.5 147.25 234.75 147.45 L235.45 147.5 Q238.45 147.65 240.0 146.3 242.35 145.45 244.75 144.7 L252.25 142.6 259.05 141.05 262.0 140.5 Q270.7 138.9 280.4 138.1 278.95 131.3 276.25 124.5 L273.8 118.9 M238.55 193.9 L242.8 187.6 242.8 187.25 Q243.1 170.35 237.3 156.5 M156.65 189.55 L165.15 195.9 Q170.5 199.75 182.15 199.95 L192.25 199.55 196.45 199.2 210.4 197.0 216.15 196.05 218.9 195.65 238.55 193.9 Q248.1 193.5 257.85 194.0 L260.1 194.15 263.3 194.35 270.9 195.1 277.5 195.9 283.05 197.0 M280.4 138.1 L284.1 137.85 M145.6 134.45 L144.9 132.7 142.8 128.3 140.05 123.7 Q137.55 119.85 134.4 116.45 M140.55 135.25 L145.6 134.45 M206.4 214.2 L206.5 213.55" fill="none" stroke="#000000" stroke-linecap="round" stroke-linejoin="round" stroke-width="1.0"/>
    <path d="M237.3 156.5 L235.45 147.5" fill="none" stroke="#000000" stroke-linecap="round" stroke-linejoin="round" stroke-width="1.0"/>
    <path d="M201.1 105.85 L198.9 108.0 191.9 115.05 Q165.3 116.05 140.05 123.7 M276.25 124.5 Q264.25 119.1 249.05 116.0" fill="none" stroke="#000000" stroke-linecap="round" stroke-linejoin="round" stroke-opacity="0.2509804" stroke-width="1.0"/>
    <path d="M154.4 202.85 Q158.8 213.35 170.1 223.85" fill="none" stroke="#000000" stroke-linecap="round" stroke-linejoin="round" stroke-opacity="0.2509804" stroke-width="1.0"/>
    <path d="M144.65 180.6 L169.25 191.45 Q191.35 195.85 221.05 189.9 232.3 187.9 242.8 187.25 L242.8 187.6 238.55 193.9 242.8 187.6 242.8 187.25 Q264.75 185.8 283.65 189.9 L293.3 187.3 283.05 197.0 277.5 195.9 270.9 195.1 263.3 194.35 260.1 194.15 257.85 194.0 Q248.1 193.5 238.55 193.9 L218.9 195.65 216.15 196.05 210.4 197.0 196.45 199.2 192.25 199.55 182.15 199.95 Q184.35 209.85 190.25 219.7 180.4 222.45 170.1 223.85 L161.2 224.8 Q153.85 222.85 150.25 216.5 152.75 209.65 154.4 202.85 155.95 196.2 156.65 189.55 L144.65 180.6 M154.4 202.85 Q158.8 213.35 170.1 223.85 158.8 213.35 154.4 202.85 M182.15 199.95 Q170.5 199.75 165.15 195.9 L156.65 189.55 165.15 195.9 Q170.5 199.75 182.15 199.95" fill="#000000" fill-opacity="0.2509804" fill-rule="evenodd" stroke="none"/>
    <path d="M202.85 111.7 L195.95 119.65 Q168.1 122.05 142.8 128.3 L140.05 123.7 142.8 128.3 137.9 129.55 134.7 124.75 140.05 123.7 Q165.3 116.05 191.9 115.05 L198.9 108.0 199.05 108.15 202.85 111.7 199.05 108.15 198.9 108.0 201.1 105.85 201.15 105.95 204.9 109.35 202.85 111.7 M145.6 134.45 Q168.25 134.65 190.85 138.1 L194.1 138.6 203.25 140.2 207.15 140.95 214.8 142.6 223.5 144.7 229.55 146.3 Q232.5 147.25 234.75 147.45 238.3 147.8 240.0 146.3 242.35 145.45 244.75 144.7 L252.25 142.6 259.05 141.05 262.0 140.5 Q270.7 138.9 280.4 138.1 L284.1 137.85 286.95 137.65 289.75 150.7 290.35 152.85 292.0 159.8 Q294.7 173.55 293.3 187.3 292.35 174.3 286.2 163.05 264.9 160.25 263.3 149.6 246.1 149.7 237.3 156.5 243.1 170.35 242.8 187.25 242.2 174.9 232.85 162.55 164.75 166.2 170.05 144.65 154.6 141.55 131.95 145.15 132.9 137.4 140.55 135.25 L145.6 134.45 M261.9 213.65 L257.05 211.4 255.1 210.4 263.3 194.35 270.9 195.1 261.9 213.65" fill="#ffffff" fill-opacity="0.2509804" fill-rule="evenodd" stroke="none"/>
    <path d="M278.3 121.5 Q276.35 117.7 273.8 118.9 268.05 115.6 262.0 112.65 L259.05 111.25 257.1 110.35 252.25 108.2 M196.4 104.85 L195.75 104.9 194.1 105.0 190.85 105.3 Q159.35 108.0 135.1 116.2 L134.4 116.45 Q129.0 114.4 128.75 118.5 M199.8 104.5 L197.65 102.0 196.1 104.45 M161.2 224.8 Q153.85 222.85 150.25 216.5" fill="none" stroke="#000000" stroke-linecap="round" stroke-linejoin="round" stroke-width="2.0"/>
    <path d="M280.4 138.1 Q278.95 131.3 276.25 124.5 264.25 119.1 249.05 116.0 L248.0 132.1 244.45 136.35 223.75 136.35 219.4 132.85 215.6 129.55 Q212.05 126.3 209.05 122.9 L209.45 115.4 Q205.95 114.1 202.85 111.7 L199.05 108.15 198.9 108.0 196.4 104.85 196.1 104.45 195.75 104.9 191.5 110.5 M142.8 128.3 L144.9 132.7 145.6 134.45 Q168.25 134.65 190.85 138.1 L194.1 138.6 203.25 140.2 207.15 140.95 214.8 142.6 223.5 144.7 229.55 146.3 Q232.5 147.25 234.75 147.45 238.3 147.8 240.0 146.3 242.35 145.45 244.75 144.7 L252.25 142.6 259.05 141.05 262.0 140.5 Q270.7 138.9 280.4 138.1 L284.1 137.85 Q282.65 128.9 278.3 121.5 M273.8 118.9 L276.25 124.5 M140.05 123.7 L142.8 128.3 M137.9 129.55 L140.35 134.75 140.55 135.25 145.6 134.45 M209.45 115.4 L209.6 112.85 Q207.1 111.2 204.9 109.35 L201.15 105.95 201.1 105.85 199.9 104.6 199.8 104.5 M131.95 145.15 Q131.45 149.25 132.8 154.85 134.95 165.2 144.65 180.6 L156.65 189.55 165.15 195.9 Q170.5 199.75 182.15 199.95 L192.25 199.55 196.45 199.2 210.4 197.0 216.15 196.05 218.9 195.65 238.55 193.9 Q248.1 193.5 257.85 194.0 L260.1 194.15 263.3 194.35 270.9 195.1 277.5 195.9 283.05 197.0 Q281.35 206.4 272.2 215.75 268.0 216.1 261.9 213.65 L257.05 211.4 255.1 210.4 250.2 207.5 Q245.6 204.65 239.3 204.35 230.55 203.95 218.65 208.5 212.6 211.65 206.4 214.2 198.45 217.4 190.25 219.7 180.4 222.45 170.1 223.85 L161.2 224.8 M242.8 187.25 Q243.1 170.35 237.3 156.5 M293.3 187.3 Q294.7 173.55 292.0 159.8 L290.35 152.85 289.75 150.7 286.95 137.65 284.1 137.85 M238.55 193.9 L242.8 187.6 242.8 187.25 M293.3 187.3 L283.05 197.0 M150.25 216.5 Q152.75 209.65 154.4 202.85 155.95 196.2 156.65 189.55 M249.05 116.0 L249.15 114.0 Q251.65 111.7 252.25 108.2 M134.4 116.45 Q137.55 119.85 140.05 123.7 M134.7 124.75 L137.9 129.55 M131.95 145.15 Q132.9 137.4 140.55 135.25 M134.7 124.75 Q132.1 121.4 128.75 118.5 M206.4 214.2 L206.5 213.55" fill="none" stroke="#000000" stroke-linecap="round" stroke-linejoin="round" stroke-width="1.0"/>
    <path d="M170.1 223.85 Q158.8 213.35 154.4 202.85" fill="none" stroke="#000000" stroke-linecap="round" stroke-linejoin="round" stroke-opacity="0.2509804" stroke-width="1.0"/>
    <path d="M198.9 108.0 L191.9 115.05 Q165.3 116.05 140.05 123.7 M201.1 105.85 L198.9 108.0" fill="none" stroke="#000000" stroke-linecap="round" stroke-linejoin="round" stroke-opacity="0.2509804" stroke-width="1.0"/>
  </g>
  <defs>
    <radialGradient cx="0" cy="0" gradientTransform="matrix(0.0978, 0.0, 0.0, 0.0978, 174.3, 199.25)" gradientUnits="userSpaceOnUse" id="gradient0" r="819.2" spreadMethod="pad">
      <stop offset="0.0" stop-color="#000000" stop-opacity="0.0"/>
      <stop offset="1.0" stop-color="#000000" stop-opacity="0.2509804"/>
    </radialGradient>
    <radialGradient cx="0" cy="0" gradientTransform="matrix(0.0906, 0.0, 0.0, 0.0906, 238.55, 193.9)" gradientUnits="userSpaceOnUse" id="gradient1" r="819.2" spreadMethod="pad">
      <stop offset="0.0" stop-color="#000000" stop-opacity="0.0"/>
      <stop offset="1.0" stop-color="#000000" stop-opacity="0.2509804"/>
    </radialGradient>
    <radialGradient cx="0" cy="0" gradientTransform="matrix(0.1495, 0.0, 0.0, 0.1495, 162.0, 215.4)" gradientUnits="userSpaceOnUse" id="gradient2" r="819.2" spreadMethod="pad">
      <stop offset="0.0" stop-color="#000000" stop-opacity="0.0"/>
      <stop offset="1.0" stop-color="#000000" stop-opacity="0.2509804"/>
    </radialGradient>
    <radialGradient cx="0" cy="0" gradientTransform="matrix(0.1617, 0.0, 0.0, 0.1617, 148.5, 134.45)" gradientUnits="userSpaceOnUse" id="gradient3" r="819.2" spreadMethod="pad">
      <stop offset="0.0" stop-color="#000000" stop-opacity="0.0"/>
      <stop offset="1.0" stop-color="#000000" stop-opacity="0.2509804"/>
    </radialGradient>
  </defs>
</svg>
