<?xml version="1.0" encoding="UTF-8" standalone="no"?>
<svg xmlns:xlink="http://www.w3.org/1999/xlink" height="143.9px" width="164.0px" xmlns="http://www.w3.org/2000/svg">
  <g transform="matrix(1.0, 0.0, 0.0, 1.0, -130.3, -103.45)">
    <path d="M209.5 114.45 L200.35 106.8 Q194.85 107.45 195.35 111.95 L209.05 122.9 M281.05 123.3 L289.75 150.7 290.35 152.85 292.0 159.8 Q294.7 173.55 293.3 187.3 L283.05 197.0 Q281.35 206.4 272.2 215.75 M150.25 216.5 Q155.2 203.0 156.65 189.55 L156.65 185.9 Q155.95 153.8 143.85 133.15 138.6 124.25 131.3 117.5 M202.55 104.45 L200.35 106.8 M280.6 138.1 Q276.5 127.5 271.4 117.55 M156.15 134.75 Q165.4 155.4 165.25 189.7 L165.15 195.9 Q170.5 199.75 182.15 199.95 M228.05 154.95 L236.85 154.95 243.8 154.95 243.8 149.05 235.2 149.05 228.05 149.05 228.05 154.95 M242.55 178.6 L233.3 178.6 233.3 172.7 241.85 172.7 249.05 172.7 249.05 178.6 242.55 178.6 M238.55 193.9 Q248.1 193.5 257.85 194.0 M196.45 199.2 L210.4 197.0 216.15 196.05 M218.9 195.65 L238.55 193.9 M240.5 201.15 L246.5 201.15 246.5 207.0 238.05 207.0 230.75 207.0 230.75 201.15 240.5 201.15 M233.2 225.65 L240.65 225.65 240.65 231.55 232.4 231.55 224.9 231.55 224.9 225.65 233.2 225.65 M280.6 138.1 Q289.45 161.2 293.3 187.3 M141.0 114.3 Q148.3 120.2 153.45 129.3 L156.15 134.75 M253.05 204.4 L258.9 214.75 258.9 233.95 M215.15 204.65 L206.5 213.55 202.3 233.2 M165.15 195.9 L154.1 221.2" fill="none" stroke="#000000" stroke-linecap="round" stroke-linejoin="round" stroke-width="1.0"/>
    <path d="M209.05 122.9 L209.5 114.45 M209.05 122.9 Q212.05 126.3 215.6 129.55 L219.4 132.85 223.75 136.35 231.55 136.35 244.45 136.35 248.0 132.1 249.15 114.0 Q251.65 111.7 252.25 108.2 M272.2 215.75 Q269.5 228.45 269.6 246.15 L230.3 246.75 Q212.3 247.15 189.75 245.7 L162.1 243.45 M156.15 134.75 Q173.5 135.45 190.85 138.1 L194.1 138.6 203.25 140.2 207.15 140.95 214.8 142.6 223.5 144.7 229.55 146.3 Q232.5 147.25 234.75 147.45 L231.55 136.35 M234.75 147.45 Q238.3 147.8 240.0 146.3 242.35 145.45 244.75 144.7 L252.25 142.6 259.05 141.05 262.0 140.5 Q270.8 138.9 280.6 138.1 M241.85 172.7 Q240.5 164.15 237.3 156.5 L236.85 154.95 M242.55 178.6 Q242.9 182.8 242.8 187.25 L242.8 187.6 238.55 193.9 Q241.2 197.5 240.5 201.15 M238.05 207.0 L234.8 213.75 233.2 225.65 M232.4 231.55 L230.3 246.75 M234.75 147.45 L235.2 149.05" fill="none" stroke="#000000" stroke-linecap="round" stroke-linejoin="round" stroke-width="1.0"/>
    <path d="M252.25 108.2 L257.1 110.35 259.05 111.25 262.0 112.65 271.4 117.55 Q277.15 114.95 281.05 123.3 M162.1 243.45 Q162.95 234.1 161.2 224.8 157.05 223.7 154.1 221.2 151.8 219.25 150.25 216.5 M131.3 117.5 Q133.7 111.8 141.0 114.3 163.1 107.65 190.85 105.3 L194.1 105.0 202.55 104.45" fill="none" stroke="#000000" stroke-linecap="round" stroke-linejoin="round" stroke-width="2.0"/>
  </g>
</svg>
