<?xml version="1.0" encoding="UTF-8" standalone="no"?>
<svg xmlns:xlink="http://www.w3.org/1999/xlink" height="65.2px" width="135.5px" xmlns="http://www.w3.org/2000/svg">
  <g transform="matrix(1.0, 0.0, 0.0, 1.0, -143.05, -218.25)">
    <path d="M151.25 222.4 Q153.5 221.1 156.8 220.15 160.95 218.95 166.75 218.25 168.75 218.7 169.45 220.3 180.5 218.85 192.15 220.8 L192.15 220.9 Q188.9 220.9 184.7 221.95 179.65 222.25 177.2 224.25 L177.15 224.35 Q174.95 226.05 174.8 229.2 L172.4 241.2 Q171.8 243.15 170.45 244.3 L169.55 244.8 Q168.45 245.35 166.95 245.5 L161.75 245.35 161.65 245.35 157.05 249.3 164.8 249.0 166.0 249.15 169.55 249.0 Q171.55 248.55 173.0 247.35 L171.25 263.8 Q170.7 267.25 171.5 270.25 172.15 273.1 174.05 275.55 L176.5 278.2 178.25 278.85 163.25 278.95 Q161.1 280.05 157.05 280.6 L152.2 280.95 149.4 280.05 Q147.2 279.3 145.2 278.1 L144.95 277.95 145.2 277.75 145.05 273.0 145.05 272.5 145.0 268.8 Q145.1 259.7 146.45 250.6 L146.8 248.1 143.05 238.1 144.3 235.05 145.85 230.7 146.95 226.65 Q148.1 224.2 151.25 222.4 M157.2 238.35 Q155.7 238.6 154.8 239.65 153.9 240.55 154.15 241.75 154.3 242.95 155.5 243.6 156.65 244.2 158.2 244.0 159.7 243.75 160.6 242.8 161.5 241.8 161.35 240.7 161.1 239.5 159.9 238.8 158.75 238.15 157.2 238.35 M178.1 230.8 Q178.9 228.7 180.6 227.35 182.4 225.75 185.3 225.1 L188.25 224.65 189.65 224.65 Q192.6 224.8 194.65 225.45 L194.95 225.6 Q196.15 226.05 196.95 226.8 197.95 227.8 198.1 229.15 L198.2 230.2 198.45 234.1 198.6 237.75 198.65 239.55 198.85 245.55 198.9 252.7 198.9 258.15 198.85 263.05 198.65 269.25 Q197.4 271.5 195.75 273.15 L194.95 273.85 Q193.5 275.05 191.9 275.7 190.05 276.45 187.95 276.6 L182.15 276.1 Q179.7 274.65 178.1 272.65 176.35 270.4 175.6 267.4 175.1 265.65 175.05 263.7 L177.3 237.75 176.55 237.75 178.1 230.8 M248.2 245.25 Q257.55 247.0 266.4 246.1 268.25 248.65 269.7 256.3 271.65 258.1 270.5 260.7 272.05 268.65 277.55 276.0 279.8 278.8 277.05 280.65 276.1 283.2 272.6 283.45 L252.15 282.15 252.15 282.1 Q245.2 274.75 241.65 264.1 L236.0 263.4 Q237.7 270.1 234.65 276.0 228.4 282.0 220.1 281.2 210.5 280.5 207.15 276.15 205.85 274.5 205.35 272.5 204.65 270.75 204.25 269.05 203.2 264.85 204.25 260.7 204.7 258.6 205.75 256.6 L206.1 256.0 204.25 255.3 202.3 254.55 202.3 254.5 202.45 247.35 202.4 241.5 202.15 237.55 204.25 238.5 210.1 241.0 210.05 241.3 210.2 241.0 210.1 241.0 Q210.6 236.5 214.55 235.95 L223.85 235.35 Q229.4 235.05 229.65 239.5 229.65 243.45 232.2 247.15 L233.65 247.8 238.6 248.65 Q242.7 244.95 248.2 245.25" fill="#000000" fill-rule="evenodd" stroke="none"/>
  </g>
</svg>
