<?xml version="1.0" encoding="UTF-8" standalone="no"?>
<svg xmlns:xlink="http://www.w3.org/1999/xlink" height="32.4px" width="34.7px" xmlns="http://www.w3.org/2000/svg">
  <g transform="matrix(1.0, 0.0, 0.0, 1.0, -219.95, -88.0)">
    <path d="M254.65 95.85 L254.65 95.95 254.4 100.5 254.1 102.6 252.35 104.15 Q252.55 106.35 252.25 108.2 251.65 111.7 249.15 114.0 L248.95 117.25 Q247.5 111.65 244.05 108.45 253.35 100.9 249.8 90.6 252.1 92.4 254.65 95.85 M224.4 93.1 Q226.1 90.55 228.35 88.0 230.0 100.15 239.15 108.2 230.45 112.45 226.15 120.4 220.95 114.6 220.1 108.45 219.1 101.05 224.4 93.1" fill="#000000" fill-rule="evenodd" stroke="none"/>
  </g>
</svg>
