<?xml version="1.0" encoding="UTF-8" standalone="no"?>
<svg xmlns:xlink="http://www.w3.org/1999/xlink" height="42.3px" width="67.2px" xmlns="http://www.w3.org/2000/svg">
  <g transform="matrix(1.0, 0.0, 0.0, 1.0, -197.3, -62.6)">
    <path d="M211.15 71.3 Q209.2 75.5 213.25 77.5 209.7 77.7 206.35 75.25 201.9 69.6 214.55 65.65 209.9 68.4 211.15 71.3 M205.2 87.0 Q201.9 86.5 200.6 84.5 197.6 83.45 198.55 79.25 201.0 84.8 207.25 81.45 214.25 79.7 220.1 82.05 215.4 83.3 209.25 86.05 L208.75 86.2 205.2 87.0 208.75 86.2 Q210.7 88.3 215.65 87.3 L209.25 90.0 208.4 90.15 Q199.65 91.65 198.85 86.55 201.0 87.8 205.2 87.0 M217.8 91.15 Q215.8 91.95 213.7 93.1 L213.05 93.35 Q203.25 99.3 206.5 103.9 204.35 102.0 203.25 100.35 200.65 96.3 208.7 90.55 210.95 92.95 217.8 91.15 M240.2 77.2 L226.75 76.65 Q250.65 71.05 249.5 79.7 248.2 75.85 240.2 77.2" fill="#000000" fill-opacity="0.2509804" fill-rule="evenodd" stroke="none"/>
    <path d="M254.25 93.85 Q255.4 95.2 255.75 97.2 257.8 93.95 256.0 91.05 257.6 91.0 258.75 92.7 261.35 88.4 257.0 86.55 262.3 86.75 262.3 80.15 L258.5 81.6 Q266.9 76.2 261.25 70.45 263.15 76.15 255.5 77.25 L255.5 74.6 Q255.0 70.6 248.6 68.4 L249.7 71.05 Q248.6 69.8 245.95 68.6 240.45 66.7 244.8 63.7 239.85 62.95 237.6 67.05 227.65 63.6 218.95 70.75 215.5 74.1 212.0 72.6 L211.15 71.3 Q209.9 68.4 214.55 65.65 201.9 69.6 206.35 75.25 L203.75 73.85 Q202.75 80.05 207.25 81.45 201.0 84.8 198.55 79.25 197.6 83.45 200.6 84.5 201.9 86.5 205.2 87.0 201.0 87.8 198.85 86.55 199.65 91.65 208.4 90.15 L209.25 90.0 M206.5 103.9 Q204.35 102.0 203.25 100.35 200.65 96.3 208.7 90.55" fill="none" stroke="#000000" stroke-linecap="round" stroke-linejoin="round" stroke-width="2.0"/>
    <path d="M213.25 77.5 Q215.2 77.35 217.2 76.45 M217.8 91.15 Q222.45 89.5 225.9 89.45 237.2 92.7 240.8 89.5 243.25 92.45 236.9 99.45 246.0 93.8 247.55 91.05 252.15 91.5 254.25 93.85 M248.85 88.75 Q254.7 82.7 251.65 80.3 M205.2 87.0 L208.75 86.2 209.25 86.05 Q215.4 83.3 220.1 82.05 225.75 80.5 229.35 81.1 M208.7 90.55 L209.55 89.95 209.25 90.0 215.65 87.3 Q224.55 83.7 228.7 84.05 M217.8 91.15 Q215.8 91.95 213.7 93.1 L213.05 93.35 Q203.25 99.3 206.5 103.9 M206.35 75.25 Q209.7 77.7 213.25 77.5 M240.2 77.2 Q248.2 75.85 249.5 79.7 M242.85 85.9 Q242.25 83.45 238.25 84.05" fill="none" stroke="#000000" stroke-linecap="round" stroke-linejoin="round" stroke-width="1.0"/>
  </g>
</svg>
