<?xml version="1.0" encoding="UTF-8" standalone="no"?>
<svg xmlns:xlink="http://www.w3.org/1999/xlink" height="101.6px" width="82.55px" xmlns="http://www.w3.org/2000/svg">
  <g transform="matrix(1.0, 0.0, 0.0, 1.0, -184.45, -70.15)">
    <path d="M191.95 96.8 Q193.95 91.35 197.1 87.0 203.25 77.8 213.55 73.35 225.35 68.2 243.95 71.35 272.05 78.25 265.9 102.45 264.45 108.3 262.65 112.95 260.6 118.4 258.05 122.2 L257.95 122.35 257.95 122.45 258.1 122.45 Q260.55 137.65 257.15 152.4 255.25 160.55 251.6 168.6 249.05 171.0 244.6 171.55 L243.2 171.7 241.75 171.75 239.65 171.65 Q234.95 171.05 231.4 170.05 227.5 169.0 225.05 167.5 L223.5 166.45 222.95 165.9 Q221.4 164.3 221.1 162.5 219.7 152.4 212.3 136.7 L210.6 135.2 209.85 135.15 Q206.8 134.85 205.0 131.35 L204.5 130.1 Q203.65 127.65 203.65 124.75 L203.7 124.7 203.7 124.6 202.9 123.0 Q200.7 119.2 197.7 116.8 196.6 115.95 194.7 115.4 191.75 114.4 186.95 114.15 183.85 109.95 184.6 105.9 L185.05 104.3 Q186.3 100.75 191.95 96.8" fill="#000000" fill-rule="evenodd" stroke="none"/>
  </g>
</svg>
