<?xml version="1.0" encoding="UTF-8" standalone="no"?>
<svg xmlns:xlink="http://www.w3.org/1999/xlink" height="53.3px" width="64.65px" xmlns="http://www.w3.org/2000/svg">
  <g transform="matrix(1.0, 0.0, 0.0, 1.0, -193.7, -67.65)">
    <path d="M258.35 96.5 Q256.2 97.4 254.3 98.55 254.35 100.7 253.95 102.35 255.8 106.1 255.8 109.75 255.8 115.5 251.25 120.95 246.55 120.2 243.25 117.1 239.65 119.15 236.9 116.3 229.45 119.9 224.45 117.35 222.6 116.45 221.1 114.65 218.4 111.1 217.35 107.4 L212.95 99.75 Q212.55 95.8 209.4 95.55 209.2 80.65 193.7 76.3 208.05 74.1 217.3 79.0 228.6 71.45 245.8 79.75 244.4 73.5 239.8 67.65 253.15 79.2 258.35 96.5" fill="#000000" fill-rule="evenodd" stroke="none"/>
  </g>
</svg>
