<?xml version="1.0" encoding="UTF-8" standalone="no"?>
<svg xmlns:xlink="http://www.w3.org/1999/xlink" height="91.45px" width="83.5px" xmlns="http://www.w3.org/2000/svg">
  <g transform="matrix(1.0, 0.0, 0.0, 1.0, -181.3, -34.3)">
    <path d="M253.9 91.15 Q254.45 93.35 254.4 95.9 L249.15 94.6 242.65 93.5 Q233.4 92.1 222.75 92.1 L219.45 92.15 220.35 87.65 Q221.5 78.6 216.0 78.05 219.6 75.95 224.75 75.4 L228.3 69.1 232.55 75.15 232.85 75.2 238.15 75.85 Q240.55 76.25 242.55 76.95 252.7 80.55 254.25 91.05 L253.9 91.15 248.4 89.8 242.7 88.75 Q232.25 86.95 222.25 87.55 L220.35 87.65 222.25 87.55 Q232.25 86.95 242.7 88.75 L248.4 89.8 253.9 91.15 M224.75 75.4 L227.3 75.2 Q229.7 75.05 232.55 75.15 229.7 75.05 227.3 75.2 L224.75 75.4" fill="url(#gradient0)" fill-rule="evenodd" stroke="none"/>
    <path d="M254.4 95.9 L254.5 95.9 254.2 91.2 254.25 91.05 Q252.7 80.55 242.55 76.95 242.0 74.9 243.25 72.3 241.7 68.5 242.95 63.8 237.7 52.95 243.5 41.95 247.5 59.5 258.95 74.5 268.3 85.15 259.6 99.55 257.9 101.45 256.75 103.7 L253.0 101.6 254.3 98.05 254.4 95.9 M219.45 92.15 L218.55 95.45 Q213.6 112.05 218.9 125.25 L215.15 123.95 Q212.25 122.7 209.55 120.9 206.2 118.7 203.05 115.5 L201.5 113.85 Q206.25 105.2 203.5 98.4 195.15 99.55 194.0 93.15 189.25 91.25 189.15 84.35 186.25 81.9 185.95 75.3 184.05 72.05 184.25 66.7 182.1 62.2 184.05 56.55 179.65 45.4 186.2 35.3 190.15 65.6 216.0 78.05 221.5 78.6 220.35 87.65 L219.45 92.15 M210.1 94.45 L205.45 97.35 Q204.6 98.25 203.5 98.4 204.6 98.25 205.45 97.35 L210.1 94.45 M202.65 93.0 L206.3 89.05 202.65 93.0 M196.95 93.85 L194.0 93.15 196.95 93.85 M197.25 81.95 L202.4 82.5 197.25 81.95 M185.95 75.3 Q188.1 78.85 192.65 79.95 188.1 78.85 185.95 75.3 M193.3 85.7 Q190.7 85.75 189.15 84.35 190.7 85.75 193.3 85.7 M189.85 72.9 Q185.9 70.1 184.25 66.7 185.9 70.1 189.85 72.9 M199.95 74.4 L194.05 69.7 Q187.05 63.45 184.05 56.55 187.05 63.45 194.05 69.7 L199.95 74.4 M249.5 79.05 Q244.9 76.15 243.25 72.3 244.9 76.15 249.5 79.05 M256.9 96.9 Q264.9 87.0 256.8 80.75 264.9 87.0 256.9 96.9 M253.2 76.7 Q246.15 70.25 242.95 63.8 246.15 70.25 253.2 76.7" fill="url(#gradient1)" fill-rule="evenodd" stroke="none"/>
    <path d="M256.75 103.7 Q255.4 106.2 254.65 109.25 252.95 115.9 254.0 125.15 L250.8 124.4 251.75 113.6 Q252.9 111.15 253.35 108.7 253.9 105.2 253.0 101.6 L256.75 103.7" fill="url(#gradient2)" fill-rule="evenodd" stroke="none"/>
    <path d="M253.9 91.15 Q254.45 93.35 254.4 95.9 L254.3 98.05 253.0 101.6 Q253.9 105.2 253.35 108.7 M203.05 115.5 L201.5 113.85 Q206.25 105.2 203.5 98.4 195.15 99.55 194.0 93.15 189.25 91.25 189.15 84.35 186.25 81.9 185.95 75.3 184.05 72.05 184.25 66.7 182.1 62.2 184.05 56.55 179.65 45.4 186.2 35.3 190.15 65.6 216.0 78.05 219.6 75.95 224.75 75.4 L228.3 69.1 232.55 75.15 232.85 75.2 238.15 75.85 Q240.55 76.25 242.55 76.95 242.0 74.9 243.25 72.3 241.7 68.5 242.95 63.8 237.7 52.95 243.5 41.95 247.5 59.5 258.95 74.5 268.3 85.15 259.6 99.55 257.9 101.45 256.75 103.7 255.4 106.2 254.65 109.25" fill="none" stroke="#000000" stroke-linecap="round" stroke-linejoin="round" stroke-width="2.0"/>
    <path d="M254.4 95.9 L254.5 95.9 254.2 91.2 253.9 91.15 248.4 89.8 242.7 88.75 Q232.25 86.95 222.25 87.55 L220.35 87.65 219.45 92.15 218.55 95.45 Q213.6 112.05 218.9 125.25 L215.15 123.95 Q212.25 122.7 209.55 120.9 206.2 118.7 203.05 115.5 M254.4 95.9 L249.15 94.6 242.65 93.5 Q233.4 92.1 222.75 92.1 L219.45 92.15 M254.65 109.25 Q252.95 115.9 254.0 125.15 L250.8 124.4 251.75 113.6 Q252.9 111.15 253.35 108.7 M254.2 91.2 L254.25 91.05 Q252.7 80.55 242.55 76.95 M256.8 80.75 Q264.9 87.0 256.9 96.9 M243.25 72.3 Q244.9 76.15 249.5 79.05 M184.05 56.55 Q187.05 63.45 194.05 69.7 L199.95 74.4 M184.25 66.7 Q185.9 70.1 189.85 72.9 M189.15 84.35 Q190.7 85.75 193.3 85.7 M192.65 79.95 Q188.1 78.85 185.95 75.3 M202.4 82.5 L197.25 81.95 M194.0 93.15 L196.95 93.85 M206.3 89.05 L202.65 93.0 M203.5 98.4 Q204.6 98.25 205.45 97.35 L210.1 94.45 M216.0 78.05 Q221.5 78.6 220.35 87.65 M232.55 75.15 Q229.7 75.05 227.3 75.2 L224.75 75.4 M253.0 101.6 L256.75 103.7 M242.95 63.8 Q246.15 70.25 253.2 76.7" fill="none" stroke="#000000" stroke-linecap="round" stroke-linejoin="round" stroke-width="1.0"/>
    <path d="M253.2 76.7 L256.8 80.75 Q264.9 87.0 256.9 96.9 L253.0 101.6 254.3 98.05 254.4 95.9 254.5 95.9 254.2 91.2 Q252.75 80.55 242.55 76.95 242.0 74.9 243.25 72.3 241.7 68.5 242.95 63.8 246.15 70.25 253.2 76.7 M222.25 87.55 Q222.2 89.7 222.75 92.1 L219.45 92.15 220.35 87.65 Q221.5 78.6 216.0 78.05 219.6 75.95 224.75 75.4 L227.3 75.2 Q222.15 80.9 222.25 87.55 L220.35 87.65 222.25 87.55 M189.85 72.9 Q185.9 70.1 184.25 66.7 185.9 70.1 189.85 72.9 M249.5 79.05 Q244.9 76.15 243.25 72.3 244.9 76.15 249.5 79.05 M184.05 56.55 Q187.05 63.45 194.05 69.7 194.0 86.15 203.2 92.4 205.8 94.05 209.2 95.0 L205.45 97.35 Q204.6 98.25 203.5 98.4 195.15 99.55 194.0 93.15 189.25 91.25 189.15 84.35 186.25 81.9 185.95 75.3 184.05 72.05 184.25 66.7 182.1 62.2 184.05 56.55 M192.65 79.95 Q188.1 78.85 185.95 75.3 188.1 78.85 192.65 79.95 M196.95 93.85 L194.0 93.15 196.95 93.85 M193.3 85.7 Q190.7 85.75 189.15 84.35 190.7 85.75 193.3 85.7 M202.65 93.0 L203.2 92.4 202.65 93.0" fill="#000000" fill-opacity="0.2509804" fill-rule="evenodd" stroke="none"/>
    <path d="M248.4 89.8 L249.15 94.6 242.65 93.5 Q243.05 90.95 242.7 88.75 L248.4 89.8 242.7 88.75 Q241.45 81.4 232.75 75.35 L232.85 75.2 238.15 75.85 Q246.1 80.8 248.4 89.8 M205.45 97.35 L209.2 95.0 209.4 95.05 Q207.75 108.45 215.15 123.95 212.25 122.7 209.55 120.9 205.0 108.85 205.45 97.35" fill="#ffffff" fill-opacity="0.2509804" fill-rule="evenodd" stroke="none"/>
    <path d="M256.75 103.7 Q257.9 101.45 259.6 99.55 268.3 85.15 258.95 74.5 247.5 59.5 243.5 41.95 237.7 52.95 242.95 63.8 241.7 68.5 243.25 72.3 242.0 74.9 242.55 76.95 240.55 76.25 238.15 75.85 L232.85 75.2 232.55 75.15 228.3 69.1 224.75 75.4 Q219.6 75.95 216.0 78.05 190.15 65.6 186.2 35.3 179.65 45.4 184.05 56.55 182.1 62.2 184.25 66.7 184.05 72.05 185.95 75.3 186.25 81.9 189.15 84.35 189.25 91.25 194.0 93.15 195.15 99.55 203.5 98.4 M254.4 95.9 Q254.45 93.35 253.9 91.15 M254.4 95.9 L254.3 98.05 253.0 101.6 Q253.9 105.2 253.35 108.7 M254.65 109.25 Q255.4 106.2 256.75 103.7" fill="none" stroke="#000000" stroke-linecap="round" stroke-linejoin="round" stroke-width="2.0"/>
    <path d="M256.8 80.75 Q264.9 87.0 256.9 96.9 M253.0 101.6 L256.75 103.7 M242.95 63.8 Q246.15 70.25 253.2 76.7 M248.4 89.8 L242.7 88.75 Q232.25 86.95 222.25 87.55 L220.35 87.65 Q221.5 78.6 216.0 78.05 M242.65 93.5 L249.15 94.6 254.4 95.9 254.5 95.9 254.2 91.2 253.9 91.15 248.4 89.8 M222.75 92.1 Q233.4 92.1 242.65 93.5 M253.35 108.7 Q252.9 111.15 251.75 113.6 L250.8 124.4 254.0 125.15 Q252.95 115.9 254.65 109.25 M243.25 72.3 Q244.9 76.15 249.5 79.05 M184.25 66.7 Q185.9 70.1 189.85 72.9 M184.05 56.55 Q187.05 63.45 194.05 69.7 L199.95 74.4 M185.95 75.3 Q188.1 78.85 192.65 79.95 M202.4 82.5 L197.25 81.95 M194.0 93.15 L196.95 93.85 M189.15 84.35 Q190.7 85.75 193.3 85.7 M203.5 98.4 Q204.6 98.25 205.45 97.35 L209.2 95.0 210.1 94.45 M203.2 92.4 L202.65 93.0 M203.2 92.4 L206.3 89.05 M215.15 123.95 L218.9 125.25 Q213.6 112.05 218.55 95.45 L219.45 92.15 220.35 87.65 M227.3 75.2 L224.75 75.4 M232.55 75.15 Q229.7 75.05 227.3 75.2 M222.75 92.1 L219.45 92.15 M203.5 98.4 Q206.25 105.2 201.5 113.85 L203.05 115.5 Q206.2 118.7 209.55 120.9 212.25 122.7 215.15 123.95 M242.55 76.95 Q252.75 80.55 254.2 91.2" fill="none" stroke="#000000" stroke-linecap="round" stroke-linejoin="round" stroke-width="1.0"/>
  </g>
  <defs>
    <linearGradient gradientTransform="matrix(-0.0221, -0.0023, 0.0013, -0.0124, 233.5, 82.65)" gradientUnits="userSpaceOnUse" id="gradient0" spreadMethod="pad" x1="-819.2" x2="819.2">
      <stop offset="0.0" stop-color="#000000" stop-opacity="0.5019608"/>
      <stop offset="1.0" stop-color="#000000" stop-opacity="0.0"/>
    </linearGradient>
    <linearGradient gradientTransform="matrix(0.002, -0.0198, 0.027, 0.0028, 199.3, 98.25)" gradientUnits="userSpaceOnUse" id="gradient1" spreadMethod="pad" x1="-819.2" x2="819.2">
      <stop offset="0.0" stop-color="#000000" stop-opacity="0.5019608"/>
      <stop offset="1.0" stop-color="#000000" stop-opacity="0.0"/>
    </linearGradient>
    <linearGradient gradientTransform="matrix(0.0019, -0.0182, 0.0024, 2.0E-4, 256.05, 91.15)" gradientUnits="userSpaceOnUse" id="gradient2" spreadMethod="pad" x1="-819.2" x2="819.2">
      <stop offset="0.0" stop-color="#000000" stop-opacity="0.5019608"/>
      <stop offset="1.0" stop-color="#000000" stop-opacity="0.0"/>
    </linearGradient>
  </defs>
</svg>
