<?xml version="1.0" encoding="UTF-8" standalone="no"?>
<svg xmlns:xlink="http://www.w3.org/1999/xlink" height="110.45px" width="83.45px" xmlns="http://www.w3.org/2000/svg">
  <g transform="matrix(1.0, 0.0, 0.0, 1.0, -176.3, -29.1)">
    <path d="M257.4 64.5 L258.75 71.5 Q258.75 82.85 255.75 93.75 L255.7 93.85 Q251.45 96.35 252.55 99.55 L248.7 100.25 247.15 100.95 Q245.55 101.7 243.95 102.85 251.8 94.4 252.6 86.05 L252.75 86.05 252.75 86.0 252.6 85.75 Q256.45 75.25 257.4 64.5 M255.75 93.75 Q254.85 89.65 252.75 86.05 254.85 89.65 255.75 93.75 M244.15 78.25 Q244.55 80.5 244.45 83.25 L241.45 88.7 239.6 88.5 237.0 82.6 222.15 33.0 217.85 30.1 221.05 30.4 224.65 32.75 241.65 72.65 Q243.45 75.1 244.15 78.25 M223.85 76.15 Q226.2 92.2 237.5 101.75 235.6 100.8 233.65 100.0 231.15 98.9 228.6 98.15 225.4 97.05 222.05 96.3 225.65 88.55 217.45 78.3 219.3 77.2 221.6 76.7 L223.85 76.15 M215.05 79.9 L216.5 81.85 Q218.7 91.5 209.4 93.15 L209.4 93.1 Q200.65 72.6 184.35 55.1 L179.0 49.7 182.2 50.45 Q201.1 61.4 215.05 79.9 M208.4 103.0 Q209.4 105.25 209.75 109.9 L194.1 111.95 Q184.2 111.55 178.15 106.65 L177.3 105.9 180.4 106.35 Q187.05 107.1 193.85 106.05 L201.1 104.55 202.5 104.25 208.4 103.0 M229.85 109.95 Q236.8 106.95 240.15 103.6 L241.0 105.85 240.05 115.2 Q235.0 112.3 229.85 109.95 M230.75 129.05 L234.9 129.05 234.9 136.35 234.55 139.55 227.1 138.8 228.2 136.35 230.75 129.05 M234.9 136.35 L228.2 136.35 234.9 136.35 M243.95 102.85 L244.8 104.0 Q248.75 108.2 252.55 99.55 L248.1 111.9 243.95 113.65 Q245.4 106.6 243.95 102.85" fill="#ffffff" fill-opacity="0.2509804" fill-rule="evenodd" stroke="none"/>
    <path d="M257.4 64.5 L258.75 71.5 Q258.75 82.85 255.75 93.75 L255.7 93.85 256.2 98.0 252.85 99.45 252.9 99.55 Q254.05 104.2 252.95 108.5 M244.15 78.25 L246.2 79.2 Q248.1 80.35 249.6 81.8 255.0 73.3 257.4 64.5 M217.45 78.3 Q216.15 78.95 215.05 79.9 201.1 61.4 182.2 50.45 L179.0 49.7 179.15 51.7 Q195.65 71.2 207.2 93.6 204.5 94.9 204.7 100.35 L177.3 105.9 178.15 106.65 M217.85 30.1 L223.85 76.15 221.6 76.7 Q219.3 77.2 217.45 78.3 M217.85 30.1 L221.05 30.4 224.65 32.75 241.65 72.65 Q243.45 75.1 244.15 78.25 M252.25 108.2 Q252.55 106.35 252.35 104.15" fill="none" stroke="#000000" stroke-linecap="round" stroke-linejoin="round" stroke-width="2.0"/>
    <path d="M252.95 108.5 L252.4 110.2 251.75 111.7 M257.4 64.5 Q256.45 75.25 252.6 85.75 L252.75 86.0 252.75 86.05 Q254.85 89.65 255.75 93.75 M252.6 85.75 L252.6 85.8 252.75 86.0 M249.6 81.8 Q251.45 83.6 252.6 85.75 M243.95 102.85 Q245.55 101.7 247.15 100.95 L248.7 100.25 252.55 99.55 Q248.75 108.2 244.8 104.0 L243.95 102.85 M249.6 81.8 Q251.3 83.75 252.6 85.8 M244.15 78.25 Q244.55 80.5 244.45 83.25 L241.45 88.7 239.6 88.5 237.0 82.6 Q232.85 76.85 227.4 75.65 L226.75 75.7 223.85 76.15 M237.5 101.75 Q234.6 104.1 232.0 104.5 L230.9 104.55 Q225.85 104.3 222.05 96.3 225.4 97.05 228.6 98.15 231.15 98.9 233.65 100.0 235.6 100.8 237.5 101.75 M215.05 79.9 L216.5 81.85 Q218.7 91.5 209.4 93.15 208.15 93.1 207.2 93.6 M204.7 100.35 L207.3 101.45 Q208.0 102.05 208.4 103.0 209.4 105.25 209.75 109.9 L209.85 107.95 M237.0 82.6 L222.15 33.0 217.85 30.1 M209.4 93.15 L209.4 93.1 Q200.65 72.6 184.35 55.1 L179.0 49.7 M229.85 109.95 Q235.0 112.3 240.05 115.2 L241.0 105.85 240.15 103.6 M202.5 104.25 L208.4 103.0 M228.2 136.35 L223.75 136.35 219.4 132.85 215.6 129.55 Q212.05 126.3 209.05 122.9 L209.75 109.9 194.1 111.95 Q184.2 111.55 178.15 106.65 M229.85 109.95 Q222.7 106.45 215.35 104.0 L217.6 111.45 216.45 122.8 225.7 131.8 230.75 129.05 234.9 129.05 244.55 129.05 248.0 132.1 244.45 136.35 234.9 136.35 228.2 136.35 M177.3 105.9 L180.4 106.35 Q187.05 107.1 193.85 106.05 L201.1 104.55 M243.95 113.65 L248.1 111.9 251.6 110.55 252.25 108.2 M252.4 110.2 L251.6 110.55 M243.95 113.65 L240.05 115.2" fill="none" stroke="#000000" stroke-linecap="round" stroke-linejoin="round" stroke-width="1.0"/>
  </g>
</svg>
