<?xml version="1.0" encoding="UTF-8" standalone="no"?>
<svg xmlns:xlink="http://www.w3.org/1999/xlink" height="89.65px" width="230.05px" xmlns="http://www.w3.org/2000/svg">
  <g transform="matrix(1.0, 0.0, 0.0, 1.0, -84.15, -128.7)">
    <path d="M221.55 152.1 Q231.25 166.95 232.4 184.35 206.2 189.05 186.6 199.9 L182.15 199.95 Q170.5 199.75 165.15 195.9 L156.65 189.55 155.85 195.55 Q125.55 188.3 85.3 218.35 84.45 211.45 84.15 204.6 89.05 197.95 93.1 191.3 97.95 183.35 101.55 175.4 98.4 167.3 94.55 161.25 92.15 157.55 89.55 154.65 91.8 145.85 95.05 137.15 100.85 132.6 107.45 128.7 L110.6 131.7 Q119.65 141.2 124.65 154.8 137.1 148.35 146.35 138.25 184.65 142.75 221.55 152.1 M310.65 147.2 Q314.6 165.8 314.15 184.4 L314.15 184.55 Q313.95 191.9 313.05 199.3 305.2 190.4 290.05 190.4 L286.8 193.5 Q281.55 189.9 274.2 186.65 268.25 184.05 253.7 183.75 254.85 165.45 247.15 151.55 L285.15 141.5 297.7 152.4 Q298.7 144.5 297.5 135.25 304.4 140.9 310.65 147.2" fill="#000000" fill-rule="evenodd" stroke="none"/>
  </g>
</svg>
