<?xml version="1.0" encoding="UTF-8" standalone="no"?>
<svg xmlns:xlink="http://www.w3.org/1999/xlink" height="99.2px" width="117.7px" xmlns="http://www.w3.org/2000/svg">
  <g transform="matrix(1.0, 0.0, 0.0, 1.0, -54.3, -98.45)">
    <path d="M168.65 135.85 L162.8 142.45 150.35 142.45 141.05 154.9 145.9 164.2 138.9 177.5 136.85 177.5 Q116.65 178.15 100.7 197.65 94.2 195.45 87.6 194.0 L84.05 193.25 82.55 193.0 76.75 192.15 76.2 192.05 71.9 191.6 65.4 191.2 62.1 191.1 Q58.2 191.05 54.3 191.25 57.3 171.2 62.65 156.1 72.35 128.55 89.75 117.3 99.4 111.1 109.55 106.95 133.9 96.95 161.25 98.7 160.5 102.5 160.3 106.2 L160.25 106.8 160.2 109.55 160.25 110.8 Q160.3 113.5 160.7 116.15 L160.7 116.25 Q161.3 120.3 162.65 124.2 164.7 130.2 168.55 135.75 L168.65 135.85 M170.05 156.0 Q172.0 157.9 172.0 160.65 172.0 163.45 170.05 165.4 168.1 167.3 165.35 167.3 162.55 167.3 160.65 165.4 158.7 163.45 158.75 160.65 158.7 157.9 160.65 156.0 162.55 154.05 165.35 154.05 168.1 154.05 170.05 156.0" fill="#000000" fill-rule="evenodd" stroke="none"/>
  </g>
</svg>
