<?xml version="1.0" encoding="UTF-8" standalone="no"?>
<svg xmlns:xlink="http://www.w3.org/1999/xlink" height="46.6px" width="212.55px" xmlns="http://www.w3.org/2000/svg">
  <g transform="matrix(1.0, 0.0, 0.0, 1.0, -109.35, -139.2)">
    <path d="M316.25 163.05 Q320.9 172.05 321.9 183.4 L317.1 183.15 Q312.5 183.0 308.0 183.15 L301.95 183.45 287.65 185.35 Q283.8 171.9 287.65 159.95 L288.5 159.05 Q291.35 155.9 293.25 152.8 294.6 150.45 295.45 148.15 305.85 151.5 314.75 160.4 L316.25 163.05 M138.85 139.2 Q140.45 141.85 142.65 144.3 145.35 147.3 148.95 149.95 151.95 152.15 155.6 154.15 161.45 168.9 161.85 185.8 146.95 183.75 133.15 183.25 127.85 183.0 122.75 183.05 L109.35 183.45 Q111.85 167.5 119.0 153.25 128.15 144.2 138.85 139.2" fill="#000000" fill-rule="evenodd" stroke="none"/>
  </g>
</svg>
