<?xml version="1.0" encoding="UTF-8" standalone="no"?>
<svg xmlns:xlink="http://www.w3.org/1999/xlink" height="66.05px" width="68.55px" xmlns="http://www.w3.org/2000/svg">
  <g transform="matrix(1.0, 0.0, 0.0, 1.0, -246.65, -134.25)">
    <path d="M314.15 184.4 L314.15 184.55 M313.05 199.3 Q305.2 190.4 290.05 190.4 M286.8 193.5 Q281.55 189.9 274.2 186.65 268.25 184.05 253.7 183.75 254.7 167.95 249.1 155.45 L247.15 151.55 285.15 141.5 297.7 152.4 Q298.7 144.5 297.5 135.25" fill="none" stroke="#000000" stroke-linecap="round" stroke-linejoin="round" stroke-width="1.0"/>
    <path d="M297.5 135.25 Q304.4 140.9 310.65 147.2 314.6 165.8 314.15 184.4 M314.15 184.55 Q313.95 191.9 313.05 199.3" fill="none" stroke="#000000" stroke-linecap="round" stroke-linejoin="round" stroke-width="2.0"/>
    <path d="M290.05 190.4 L286.8 193.5 M290.05 190.4 L293.3 187.3 Q295.05 170.1 290.35 152.85 L289.75 150.7" fill="none" stroke="#000000" stroke-linecap="round" stroke-linejoin="round" stroke-width="1.0"/>
  </g>
</svg>
