<?xml version="1.0" encoding="UTF-8" standalone="no"?>
<svg xmlns:xlink="http://www.w3.org/1999/xlink" height="51.55px" width="88.35px" xmlns="http://www.w3.org/2000/svg">
  <g transform="matrix(1.0, 0.0, 0.0, 1.0, -262.25, -109.6)">
    <path d="M270.3 110.8 L298.05 121.15 323.8 130.8 349.6 140.4 342.5 144.9 338.85 146.85 333.55 149.35 Q329.75 151.0 325.75 152.45 L320.0 154.35 316.15 155.45 312.35 156.4 311.25 156.65 309.3 157.15 297.95 159.2 297.45 159.25 292.85 159.85 287.2 160.35 286.8 160.45 Q281.55 161.35 278.35 157.8 L266.25 137.1 268.35 133.3 269.85 129.75 270.55 127.45 270.55 127.35 270.75 126.65 271.45 122.65 271.5 122.1 271.6 120.25 271.55 117.6 Q271.3 114.2 270.3 110.8 M323.8 130.8 Q324.4 134.95 324.1 139.1 323.8 142.6 322.95 146.1 321.9 150.2 320.0 154.35 321.9 150.2 322.95 146.1 323.8 142.6 324.1 139.1 324.4 134.95 323.8 130.8 M271.75 139.0 Q271.35 137.4 272.15 136.2 272.95 135.0 274.4 135.0 275.8 135.0 277.15 136.2 278.55 137.4 278.95 139.0 279.3 140.55 278.5 141.75 277.75 142.95 276.35 142.95 274.85 142.95 273.5 141.75 272.1 140.55 271.75 139.0 272.1 140.55 273.5 141.75 274.85 142.95 276.35 142.95 277.75 142.95 278.5 141.75 279.3 140.55 278.95 139.0 278.55 137.4 277.15 136.2 275.8 135.0 274.4 135.0 272.95 135.0 272.15 136.2 271.35 137.4 271.75 139.0 M292.85 159.85 Q297.45 149.0 298.6 138.6 L298.75 137.4 298.8 136.35 299.0 131.25 Q298.95 126.15 298.05 121.15 298.95 126.15 299.0 131.25 L298.8 136.35 298.75 137.4 298.6 138.6 Q297.45 149.0 292.85 159.85" fill="url(#gradient0)" fill-rule="evenodd" stroke="none"/>
    <path d="M312.35 156.4 L311.25 156.65 309.3 157.15 297.95 159.2 297.45 159.25 292.85 159.85 287.2 160.35 286.8 160.45 Q281.55 161.35 278.35 157.8 L266.25 137.1 268.35 133.3 269.85 129.75 270.55 127.45 270.55 127.35 270.75 126.65 271.45 122.65 271.5 122.1 271.6 120.25 271.55 117.6 Q271.3 114.2 270.3 110.8" fill="none" stroke="#000000" stroke-linecap="round" stroke-linejoin="round" stroke-width="1.0"/>
    <path d="M298.05 121.15 Q298.95 126.15 299.0 131.25 L298.8 136.35 298.75 137.4 298.6 138.6 Q297.45 149.0 292.85 159.85 M271.75 139.0 Q272.1 140.55 273.5 141.75 274.85 142.95 276.35 142.95 277.75 142.95 278.5 141.75 279.3 140.55 278.95 139.0 278.55 137.4 277.15 136.2 275.8 135.0 274.4 135.0 272.95 135.0 272.15 136.2 271.35 137.4 271.75 139.0 M320.0 154.35 Q321.9 150.2 322.95 146.1 323.8 142.6 324.1 139.1 324.4 134.95 323.8 130.8" fill="none" stroke="#000000" stroke-linecap="round" stroke-linejoin="round" stroke-opacity="0.2509804" stroke-width="1.0"/>
    <path d="M270.3 110.8 L298.05 121.15 323.8 130.8 349.6 140.4 342.5 144.9 338.85 146.85 333.55 149.35 Q329.75 151.0 325.75 152.45 L320.0 154.35 316.15 155.45 312.35 156.4 M271.55 117.6 Q267.45 115.35 263.25 113.25 265.85 109.9 270.3 110.8" fill="none" stroke="#000000" stroke-linecap="round" stroke-linejoin="round" stroke-width="2.0"/>
    <path d="M324.1 139.1 L342.5 144.9 338.85 146.85 333.55 149.35 322.95 146.1 Q323.8 142.6 324.1 139.1 323.8 142.6 322.95 146.1 L298.6 138.6 298.75 137.4 298.8 136.35 299.0 131.25 298.8 136.35 298.75 137.4 298.6 138.6 269.85 129.75 270.55 127.45 270.55 127.35 270.75 126.65 271.45 122.65 299.0 131.25 324.1 139.1" fill="#ffffff" fill-opacity="0.2509804" fill-rule="evenodd" stroke="none"/>
    <path d="M270.3 110.8 Q271.3 114.2 271.55 117.6 267.45 115.35 263.25 113.25 265.85 109.9 270.3 110.8" fill="#000000" fill-opacity="0.2509804" fill-rule="evenodd" stroke="none"/>
    <path d="M324.1 139.1 Q323.8 142.6 322.95 146.1 321.9 150.2 320.0 154.35 M323.8 130.8 Q324.4 134.95 324.1 139.1 M299.0 131.25 L298.8 136.35 298.75 137.4 298.6 138.6 Q297.45 149.0 292.85 159.85 M299.0 131.25 Q298.95 126.15 298.05 121.15 M271.75 139.0 Q272.1 140.55 273.5 141.75 274.85 142.95 276.35 142.95 277.75 142.95 278.5 141.75 279.3 140.55 278.95 139.0 278.55 137.4 277.15 136.2 275.8 135.0 274.4 135.0 272.95 135.0 272.15 136.2 271.35 137.4 271.75 139.0" fill="none" stroke="#000000" stroke-linecap="round" stroke-linejoin="round" stroke-opacity="0.2509804" stroke-width="1.0"/>
    <path d="M270.3 110.8 Q271.3 114.2 271.55 117.6 L271.6 120.25 271.5 122.1 271.45 122.65 270.75 126.65 270.55 127.35 270.55 127.45 269.85 129.75 268.35 133.3 266.25 137.1 278.35 157.8 Q281.55 161.35 286.8 160.45 L287.2 160.35 292.85 159.85 297.45 159.25 297.95 159.2 309.3 157.15 311.25 156.65 312.35 156.4" fill="none" stroke="#000000" stroke-linecap="round" stroke-linejoin="round" stroke-width="1.0"/>
    <path d="M333.55 149.35 L338.85 146.85 342.5 144.9 349.6 140.4 323.8 130.8 298.05 121.15 270.3 110.8 Q265.85 109.9 263.25 113.25 267.45 115.35 271.55 117.6 M320.0 154.35 L325.75 152.45 Q329.75 151.0 333.55 149.35 M320.0 154.35 L316.15 155.45 312.35 156.4" fill="none" stroke="#000000" stroke-linecap="round" stroke-linejoin="round" stroke-width="2.0"/>
  </g>
  <defs>
    <linearGradient gradientTransform="matrix(0.0052, -0.0215, 0.0189, 0.0057, 283.35, 135.25)" gradientUnits="userSpaceOnUse" id="gradient0" spreadMethod="pad" x1="-819.2" x2="819.2">
      <stop offset="0.0" stop-color="#000000" stop-opacity="0.0"/>
      <stop offset="1.0" stop-color="#000000" stop-opacity="0.2509804"/>
    </linearGradient>
  </defs>
</svg>
