<?xml version="1.0" encoding="UTF-8" standalone="no"?>
<svg xmlns:xlink="http://www.w3.org/1999/xlink" height="500.0px" width="800.0px" xmlns="http://www.w3.org/2000/svg">
  <g transform="matrix(1.0, 0.0, 0.0, 1.0, 0.0, 0.0)">
    <path d="M800.0 500.0 L0.0 500.0 0.0 0.0 800.0 0.0 800.0 500.0 M156.65 189.55 L144.65 180.6 95.05 137.15 Q79.0 180.4 86.25 225.25 L79.65 245.3 Q85.4 277.35 117.15 305.65 116.1 318.6 113.85 337.75 L139.7 354.85 Q144.85 361.8 152.9 358.4 L152.9 358.45 154.4 362.6 165.9 360.1 Q165.45 349.5 166.0 338.95 166.4 328.4 167.75 317.9 L169.85 306.2 146.8 292.85 146.3 289.6 Q143.45 268.85 146.8 248.1 L141.8 234.75 Q146.85 225.6 150.25 216.5 155.2 203.0 156.65 189.55" fill="#000000" fill-rule="evenodd" stroke="none"/>
  </g>
</svg>
