<?xml version="1.0" encoding="UTF-8" standalone="no"?>
<svg xmlns:xlink="http://www.w3.org/1999/xlink" height="98.6px" width="257.65px" xmlns="http://www.w3.org/2000/svg">
  <g transform="matrix(1.0, 0.0, 0.0, 1.0, -118.75, -311.2)">
    <path d="M177.25 331.45 L360.6 398.95 Q371.65 403.35 375.4 408.35 369.3 409.85 357.95 406.1 L174.2 339.95 174.35 339.55 174.65 339.05 176.25 335.9 176.25 335.85 Q176.95 333.7 177.05 332.4 L177.15 331.85 177.25 331.45 M375.4 408.35 L212.85 349.25 212.65 349.15 176.25 335.9 212.65 349.15 212.85 349.25 375.4 408.35" fill="url(#gradient0)" fill-rule="evenodd" stroke="none"/>
    <path d="M159.95 333.35 L159.85 333.65 Q143.35 329.35 128.0 321.55 L128.0 321.5 129.05 318.7 161.05 330.35 159.95 333.35" fill="#000000" fill-opacity="0.5019608" fill-rule="evenodd" stroke="none"/>
    <path d="M130.1 315.9 Q146.8 319.75 162.25 327.05 L162.1 327.4 161.05 330.35 129.05 318.7 130.1 315.9 M174.2 339.95 Q173.55 341.55 174.2 343.25 175.25 345.75 173.75 347.95 173.0 349.3 172.3 348.75 L172.05 347.9 Q171.9 345.85 170.35 344.0 167.9 341.4 167.0 338.65 166.0 335.9 166.15 335.5 160.4 334.15 160.0 333.45 L159.95 333.35 161.05 330.35 166.65 332.4 166.25 333.95 166.15 335.5 166.25 333.95 166.65 332.4 176.25 335.85 176.25 335.9 174.65 339.05 174.35 339.55 174.2 339.95 M128.0 321.55 L127.95 321.55 127.95 321.6 Q127.45 321.9 125.55 320.4 L125.4 320.85 124.4 321.95 Q123.0 322.55 121.7 320.95 L120.8 319.55 Q119.2 317.25 120.0 315.4 L126.5 317.75 129.05 318.7 128.0 321.5 128.0 321.55 M125.55 320.4 L126.5 317.75 125.55 320.4" fill="#000000" fill-opacity="0.2509804" fill-rule="evenodd" stroke="none"/>
    <path d="M127.5 315.15 Q129.85 315.25 130.05 315.75 L130.1 315.85 M162.1 327.4 L162.2 327.3 Q162.95 326.95 168.25 329.7 168.4 329.25 170.95 327.8 173.4 326.25 176.95 325.9 179.3 325.4 180.75 324.0 181.05 323.55 181.5 323.55 182.35 323.5 182.1 325.05 181.85 327.65 179.35 328.95 177.8 329.8 177.25 331.45 L360.6 398.95 Q371.65 403.35 375.4 408.35 369.3 409.85 357.95 406.1 L174.2 339.95 Q173.55 341.55 174.2 343.25 175.25 345.75 173.75 347.95 173.0 349.3 172.3 348.75 L172.05 347.9 Q171.9 345.85 170.35 344.0 167.9 341.4 167.0 338.65 166.0 335.9 166.15 335.5 160.4 334.15 160.0 333.45 L159.95 333.35 M159.85 333.65 Q143.35 329.35 128.0 321.55 M127.95 321.55 L127.95 321.6 Q127.45 321.9 125.55 320.4 M125.4 320.85 L124.4 321.95 Q123.0 322.55 121.7 320.95 L120.8 319.55 Q119.2 317.25 120.0 315.4 120.55 313.5 123.25 312.75 L124.85 312.25 Q126.9 311.9 127.6 313.25 127.85 313.75 127.6 314.7" fill="none" stroke="#000000" stroke-linecap="round" stroke-linejoin="round" stroke-width="2.0"/>
    <path d="M127.6 314.7 L127.5 315.15 M130.1 315.85 L130.1 315.9 Q146.8 319.75 162.25 327.05 L162.1 327.4 M159.95 333.35 L159.85 333.65 M128.0 321.55 L127.95 321.55 M125.55 320.4 L125.4 320.85" fill="none" stroke="#000000" stroke-linecap="round" stroke-linejoin="round" stroke-width="2.0"/>
    <path d="M128.0 321.55 L128.0 321.5" fill="none" stroke="#000000" stroke-linecap="round" stroke-linejoin="round" stroke-width="0.5"/>
    <path d="M126.5 317.75 L125.55 320.4 M129.05 318.7 L130.1 315.9 M128.0 321.5 L129.05 318.7 M127.5 315.15 L126.5 317.75 M159.95 333.35 L161.05 330.35 162.1 327.4 M177.25 331.45 L177.15 331.85 177.05 332.4 Q176.95 333.7 176.25 335.85 M166.65 332.4 L166.25 333.95 166.15 335.5 M166.65 332.4 L167.3 330.95 168.25 329.7 M176.25 335.9 L174.65 339.05 174.35 339.55 174.2 339.95" fill="none" stroke="#000000" stroke-linecap="round" stroke-linejoin="round" stroke-width="1.0"/>
    <path d="M176.25 335.9 L212.65 349.15 212.85 349.25 375.4 408.35" fill="none" stroke="#000000" stroke-linecap="round" stroke-linejoin="round" stroke-opacity="0.2509804" stroke-width="0.5"/>
    <path d="M176.25 335.85 L176.25 335.9" fill="none" stroke="#000000" stroke-linecap="round" stroke-linejoin="round" stroke-width="0.5"/>
  </g>
  <defs>
    <linearGradient gradientTransform="matrix(-0.002, 0.0058, -0.1204, -0.0433, 271.7, 370.8)" gradientUnits="userSpaceOnUse" id="gradient0" spreadMethod="pad" x1="-819.2" x2="819.2">
      <stop offset="0.0" stop-color="#000000" stop-opacity="0.0"/>
      <stop offset="1.0" stop-color="#000000" stop-opacity="0.2509804"/>
    </linearGradient>
  </defs>
</svg>
