<?xml version="1.0" encoding="UTF-8" standalone="no"?>
<svg xmlns:xlink="http://www.w3.org/1999/xlink" height="107.2px" width="274.55px" xmlns="http://www.w3.org/2000/svg">
  <g transform="matrix(1.0, 0.0, 0.0, 1.0, -107.2, -302.85)">
    <path d="M176.65 327.9 Q180.35 330.25 183.6 328.8 189.45 333.5 195.8 335.7 L304.5 375.25 Q356.45 394.95 380.75 409.05 353.05 404.25 300.6 385.9 L191.95 346.35 Q185.65 343.9 178.15 343.8 176.6 340.6 172.25 340.05 174.35 337.15 184.15 339.5 L311.25 385.55 Q339.05 395.25 360.0 402.2 361.3 402.5 361.85 402.2 361.65 401.6 360.4 400.95 339.9 392.75 312.4 382.45 L185.4 335.95 Q176.4 331.5 176.65 327.9 M380.75 409.05 L361.85 402.2 380.75 409.05" fill="url(#gradient0)" fill-rule="evenodd" stroke="none"/>
    <path d="M176.55 336.75 Q179.25 335.95 179.1 335.65 179.4 335.5 177.8 333.15 L185.4 335.95 312.4 382.45 Q339.9 392.75 360.4 400.95 361.65 401.6 361.85 402.2 361.3 402.5 360.0 402.2 339.05 395.25 311.25 385.55 L184.15 339.5 176.55 336.75" fill="url(#gradient1)" fill-rule="evenodd" stroke="none"/>
    <path d="M132.7 318.75 L132.25 320.5 Q132.1 321.25 132.25 321.95 L124.0 319.0 Q117.1 316.65 113.65 318.3 107.0 313.7 108.5 309.95 L108.75 309.45 115.35 312.0 115.65 312.55 132.7 318.75 M133.75 319.05 Q134.3 317.2 135.65 316.3 L168.05 327.15 167.65 327.85 166.35 331.55 168.75 332.5 173.9 334.5 174.45 335.0 175.05 335.05 175.25 335.0 176.35 334.65 179.1 335.65 Q179.25 335.95 176.55 336.75 173.5 337.8 171.45 339.95 168.55 343.45 167.5 348.05 165.25 358.05 168.15 362.6 167.25 363.15 166.55 362.6 166.35 364.2 164.3 364.8 163.05 357.25 164.85 349.05 L165.8 345.4 Q166.8 341.3 168.1 337.35 L166.55 336.75 Q165.15 336.25 165.15 335.05 165.15 334.7 165.3 334.3 L166.35 331.55 133.75 319.05 M132.25 320.5 L123.05 317.15 Q117.1 315.05 114.4 315.8 113.55 313.15 115.65 312.55 113.55 313.15 114.4 315.8 117.1 315.05 123.05 317.15 L132.25 320.5 M113.65 318.3 Q112.8 316.15 114.4 315.8 112.8 316.15 113.65 318.3 M168.1 337.35 L169.2 333.75 Q168.8 333.0 168.75 332.5 168.8 333.0 169.2 333.75 L168.1 337.35 M164.85 349.05 Q168.45 337.45 175.05 335.05 168.45 337.45 164.85 349.05" fill="#000000" fill-opacity="0.2509804" fill-rule="evenodd" stroke="none"/>
    <path d="M133.35 322.6 Q132.95 320.95 133.7 319.15 L133.75 319.05 166.35 331.55 165.3 334.3 Q165.15 334.7 165.15 335.05 L133.35 322.6" fill="#000000" fill-opacity="0.5019608" fill-rule="evenodd" stroke="none"/>
    <path d="M132.7 318.75 L115.65 312.55 Q113.55 313.15 114.4 315.8 117.1 315.05 123.05 317.15 L132.25 320.5 M133.5 317.1 L124.3 313.8 Q118.4 311.55 116.75 309.3 114.8 310.5 115.35 312.0 L115.65 312.55 M116.75 309.3 Q115.8 308.0 117.8 306.8 M114.4 315.8 Q112.8 316.15 113.65 318.3 M176.55 336.75 L184.15 339.5 311.25 385.55 Q339.05 395.25 360.0 402.2 361.3 402.5 361.85 402.2 361.65 401.6 360.4 400.95 339.9 392.75 312.4 382.45 L185.4 335.95 177.8 333.15 M184.15 339.5 Q174.35 337.15 172.25 340.05 M176.65 327.9 Q176.4 331.5 185.4 335.95 M361.85 402.2 L380.75 409.05" fill="none" stroke="#000000" stroke-linecap="round" stroke-linejoin="round" stroke-opacity="0.2509804" stroke-width="0.5"/>
    <path d="M132.3 322.35 Q132.8 323.05 133.35 322.6 L165.15 335.05 Q165.15 336.25 166.55 336.75 L168.1 337.35 Q166.8 341.3 165.8 345.4 L164.85 349.05 Q163.05 357.25 164.3 364.8 166.35 364.2 166.55 362.6 167.25 363.15 168.15 362.6 165.25 358.05 167.5 348.05 168.55 343.45 171.45 339.95 L172.25 340.05 Q176.6 340.6 178.15 343.8 185.65 343.9 191.95 346.35 L300.6 385.9 Q353.05 404.25 380.75 409.05 356.45 394.95 304.5 375.25 L195.8 335.7 Q189.45 333.5 183.6 328.8 180.35 330.25 176.65 327.9 L176.0 327.45 Q176.05 322.9 178.2 318.65 182.9 309.55 188.0 308.0 187.65 307.0 186.8 307.0 187.6 305.55 186.5 303.85 180.7 308.75 176.8 316.25 175.9 317.9 175.15 319.7 173.35 323.4 171.7 327.3 L170.2 326.75 Q168.85 326.25 168.05 327.15 L135.65 316.3 Q135.55 315.5 134.7 315.8 M108.75 309.45 Q110.35 306.15 117.8 306.8 119.4 310.35 126.2 313.05 L134.35 316.05 M132.25 321.95 L124.0 319.0 Q117.1 316.65 113.65 318.3 107.0 313.7 108.5 309.95 L108.75 309.45" fill="none" stroke="#000000" stroke-linecap="round" stroke-linejoin="round" stroke-width="2.0"/>
    <path d="M132.7 318.75 L132.25 320.5 Q132.1 321.25 132.25 321.95 M134.35 316.05 L133.5 317.1 132.7 318.65 132.7 318.75 M166.35 331.55 L167.65 327.85 M165.3 334.3 L166.35 331.55" fill="none" stroke="#000000" stroke-linecap="round" stroke-linejoin="round" stroke-width="1.0"/>
    <path d="M132.25 321.95 L132.3 322.35 M133.35 322.6 Q132.95 320.95 133.7 319.15 L133.75 319.05 Q134.3 317.2 135.65 316.3 M134.7 315.8 L134.35 316.05 M177.8 333.15 Q176.15 330.4 176.0 327.45 M173.9 334.5 Q173.75 334.1 173.9 333.75 L174.4 333.2 175.15 333.15 175.7 333.65 175.75 334.45 175.25 335.0 176.35 334.65 Q171.65 328.45 176.8 316.25 M167.65 327.85 L168.05 327.15 M168.75 332.5 L168.8 331.9 Q169.1 331.25 170.3 330.75 L171.7 327.3 M168.75 332.5 Q168.8 333.0 169.2 333.75 L168.1 337.35 M173.9 334.5 L174.45 335.0 175.05 335.05 175.2 335.0 175.25 335.0 M175.05 335.05 Q168.45 337.45 164.85 349.05 M165.15 335.05 Q165.15 334.7 165.3 334.3 M179.1 335.65 Q179.25 335.95 176.55 336.75 173.5 337.8 171.45 339.95 M177.8 333.15 Q179.4 335.5 179.1 335.65 L176.35 334.65" fill="none" stroke="#000000" stroke-linecap="round" stroke-linejoin="round" stroke-width="0.5"/>
  </g>
  <defs>
    <linearGradient gradientTransform="matrix(-0.0026, 0.0075, -0.1159, -0.0411, 272.5, 368.85)" gradientUnits="userSpaceOnUse" id="gradient0" spreadMethod="pad" x1="-819.2" x2="819.2">
      <stop offset="0.0" stop-color="#000000" stop-opacity="0.0"/>
      <stop offset="1.0" stop-color="#000000" stop-opacity="0.2509804"/>
    </linearGradient>
    <linearGradient gradientTransform="matrix(4.0E-4, -0.001, 0.1111, 0.0407, 265.9, 367.2)" gradientUnits="userSpaceOnUse" id="gradient1" spreadMethod="pad" x1="-819.2" x2="819.2">
      <stop offset="0.0" stop-color="#000000" stop-opacity="0.0"/>
      <stop offset="1.0" stop-color="#000000" stop-opacity="0.2509804"/>
    </linearGradient>
  </defs>
</svg>
