<?xml version="1.0" encoding="UTF-8" standalone="no"?>
<svg xmlns:xlink="http://www.w3.org/1999/xlink" height="68.9px" width="166.75px" xmlns="http://www.w3.org/2000/svg">
  <g transform="matrix(1.0, 0.0, 0.0, 1.0, -96.4, -303.25)">
    <path d="M117.05 309.4 L116.05 319.95 96.65 312.85 Q96.0 311.2 97.15 307.7 L97.2 307.6 Q98.55 304.05 100.15 303.25 L117.05 309.4 M166.55 338.3 L166.65 333.7 167.05 327.6 182.3 333.15 Q181.1 334.25 180.0 337.25 L179.8 337.75 Q178.8 340.35 178.8 342.75 L166.55 338.3 M183.05 338.85 Q184.4 335.1 185.65 334.4 L263.15 362.55 Q263.25 364.3 262.15 367.65 260.85 370.9 259.65 372.15 L182.1 343.95 Q181.75 342.55 183.05 338.9 L183.05 338.85" fill="#000000" fill-rule="evenodd" stroke="none"/>
  </g>
</svg>
