<?xml version="1.0" encoding="UTF-8" standalone="no"?>
<svg xmlns:xlink="http://www.w3.org/1999/xlink" height="54.05px" width="198.5px" xmlns="http://www.w3.org/2000/svg">
  <g transform="matrix(1.0, 0.0, 0.0, 1.0, -112.0, -413.15)">
    <path d="M303.8 419.25 L300.55 415.55 293.45 415.55 Q291.8 414.35 289.6 414.15 M306.4 420.15 L305.65 419.85 304.15 419.65 M306.4 420.15 Q309.25 421.45 309.45 425.95 309.9 430.35 306.0 430.4 L305.1 432.25 Q303.15 435.2 300.2 435.15 296.85 443.65 287.4 436.85 L274.75 433.3 Q267.8 437.25 261.6 432.35 M177.25 434.05 L178.15 435.6 Q182.55 443.45 177.35 447.4 L176.9 447.7 Q175.3 450.05 177.3 452.5 180.85 456.95 179.15 459.4 L176.25 463.55 Q174.1 466.4 170.2 465.9 L163.65 465.75 Q160.65 465.55 158.75 463.15 158.4 466.6 153.9 466.15 L150.95 465.9 Q147.95 465.2 146.55 462.5 146.6 466.5 140.45 465.7 L135.25 464.45 Q132.5 463.8 132.05 460.1 131.05 463.3 127.05 462.5 L123.0 461.15 Q120.9 460.5 120.05 458.85 112.05 457.5 113.15 451.7 L114.9 439.7 Q114.7 436.55 119.4 435.3" fill="none" stroke="#000000" stroke-linecap="round" stroke-linejoin="round" stroke-width="2.0"/>
    <path d="M303.8 419.25 L303.8 419.6 304.15 419.65 303.8 419.25 M293.45 415.55 Q294.9 416.6 296.0 418.35 L303.8 419.6 303.8 422.1 306.45 424.05 306.4 420.15 M289.6 414.15 L286.05 414.4 M300.2 435.15 Q301.7 431.3 301.3 428.9 L297.25 425.75 295.8 424.75 292.35 428.6 295.65 432.35 299.15 427.55 M298.95 426.05 L302.85 428.45 302.85 423.15 300.1 422.5 298.95 426.05 M300.1 422.5 L295.25 421.4 Q289.6 417.3 283.95 419.1 M295.8 424.75 Q294.3 423.8 292.4 423.05 289.75 421.95 286.35 421.1 L281.8 421.65 277.25 422.15 M306.0 430.4 Q306.9 427.0 302.85 423.15 M281.8 421.65 Q277.85 418.05 273.5 418.25 M119.4 435.3 L120.35 435.05 123.2 434.1 125.05 430.85 M175.6 458.5 Q167.65 456.8 159.35 458.55 L160.55 453.3 Q166.75 451.2 173.75 453.4 L175.6 458.5 M128.7 434.5 Q128.05 438.45 124.0 439.8 126.0 440.2 129.5 441.85 M139.65 435.6 Q138.75 440.75 136.2 442.15 L137.15 442.0 142.8 442.6 M149.8 433.05 Q150.55 437.8 147.7 440.1 149.4 438.8 152.7 438.1 M146.55 462.5 Q145.6 460.6 145.4 457.65 L145.75 442.95 Q146.05 441.4 147.45 440.25 147.5 440.15 147.65 440.1 L147.7 440.1 M120.05 458.85 Q119.2 457.2 119.45 454.7 117.3 453.05 113.85 453.0 L115.55 450.2 Q118.5 449.85 119.85 451.65 L121.45 440.65 Q121.8 439.4 124.0 439.8 M119.45 454.7 L119.5 454.25 119.85 451.65 M158.75 463.15 L158.1 462.3 157.5 460.65 146.9 460.05 148.4 454.75 Q152.1 453.5 155.6 455.1 L157.1 457.45 Q157.1 455.85 157.8 454.25 160.0 451.0 158.35 445.6 156.25 439.5 158.4 435.3 M142.1 455.5 Q139.05 454.3 135.1 454.55 L133.0 458.9 Q138.45 458.35 143.9 460.45 L142.1 455.5 M157.5 460.65 Q157.0 459.05 157.1 457.45 M122.2 452.2 L120.4 455.45 Q126.25 455.95 130.7 458.5 L129.3 454.7 Q126.0 451.8 122.2 452.2 M132.05 460.1 L132.0 458.8 132.85 448.35 Q133.0 443.15 136.2 442.15 M159.6 439.65 Q162.25 436.75 169.85 440.15" fill="none" stroke="#000000" stroke-linecap="round" stroke-linejoin="round" stroke-width="1.0"/>
  </g>
</svg>
