<?xml version="1.0" encoding="UTF-8" standalone="no"?>
<svg xmlns:xlink="http://www.w3.org/1999/xlink" height="35.6px" width="48.4px" xmlns="http://www.w3.org/2000/svg">
  <g transform="matrix(1.0, 0.0, 0.0, 1.0, -216.8, -152.8)">
    <path d="M220.85 157.5 Q226.25 152.8 237.4 152.8 248.8 152.8 255.95 157.45 263.15 162.05 264.75 170.35 265.95 176.35 264.1 180.15 262.05 184.05 257.45 186.25 252.7 188.4 245.1 188.4 237.35 188.4 231.9 186.55 226.35 184.65 222.4 180.65 218.45 176.65 217.2 170.55 215.5 162.25 220.85 157.5 M232.3 170.65 Q233.3 175.6 236.1 177.65 238.85 179.7 242.85 179.7 247.05 179.7 248.9 177.7 250.8 175.65 249.7 170.2 248.8 165.65 246.0 163.6 243.15 161.55 239.1 161.55 235.2 161.55 233.25 163.6 231.35 165.7 232.3 170.65" fill="#000000" fill-rule="evenodd" stroke="none"/>
  </g>
</svg>
