<?xml version="1.0" encoding="UTF-8" standalone="no"?>
<svg xmlns:xlink="http://www.w3.org/1999/xlink" height="104.85px" width="261.35px" xmlns="http://www.w3.org/2000/svg">
  <g transform="matrix(1.0, 0.0, 0.0, 1.0, -93.95, -267.9)">
    <path d="M341.45 348.4 Q327.65 362.25 308.05 362.25 288.5 362.25 274.7 348.4 260.9 334.6 260.9 315.1 260.9 295.5 274.7 281.65 288.5 267.85 308.05 267.9 327.65 267.85 341.45 281.65 355.3 295.5 355.3 315.1 355.3 334.6 341.45 348.4 M146.4 267.9 Q168.15 267.9 183.45 283.2 198.8 298.55 198.8 320.3 198.8 342.05 183.45 357.35 168.15 372.75 146.4 372.75 124.65 372.75 109.25 357.35 93.95 342.05 93.95 320.3 93.95 298.55 109.25 283.2 124.65 267.9 146.4 267.9" fill="#000000" fill-rule="evenodd" stroke="none"/>
  </g>
</svg>
