<?xml version="1.0" encoding="UTF-8" standalone="no"?>
<svg xmlns:xlink="http://www.w3.org/1999/xlink" height="188.45px" width="208.85px" xmlns="http://www.w3.org/2000/svg">
  <g transform="matrix(1.0, 0.0, 0.0, 1.0, -28.7, -287.7)">
    <path d="M28.7 366.0 Q41.25 366.25 51.7 363.65 94.75 349.25 143.25 354.7 159.6 347.0 175.95 343.15 L188.75 330.95 201.65 302.1 Q198.05 294.9 197.95 287.7 203.5 293.5 207.3 299.65 L219.85 300.0 219.85 287.75 Q224.3 294.15 226.95 304.35 L229.55 306.45 Q229.95 310.4 229.1 314.35 L237.55 325.75 Q236.9 329.35 234.6 333.0 L233.4 334.65 220.7 336.3 Q218.4 333.9 215.45 332.05 L210.2 383.3 206.95 386.8 190.2 417.1 194.35 458.75 203.95 457.5 209.25 467.0 205.6 467.0 Q204.7 468.55 200.85 468.45 L200.7 468.5 Q198.35 469.05 194.6 468.5 L199.55 474.65 Q197.05 475.4 194.4 474.65 L195.25 476.15 189.7 475.7 Q185.4 476.55 181.05 474.9 167.45 445.65 156.9 416.55 L162.05 402.65 150.05 402.65 Q137.2 391.55 117.6 387.75 113.0 395.75 109.55 403.75 106.05 411.7 103.7 419.65 93.65 434.1 91.35 455.7 L99.85 455.7 104.75 463.95 100.55 464.15 Q98.65 465.75 95.45 464.95 L95.45 464.9 95.3 465.0 Q89.5 466.45 83.35 464.95 L83.35 433.8 Q72.55 448.5 72.15 464.5 L79.65 464.05 86.35 471.55 Q84.2 471.85 81.95 471.55 L82.5 472.65 74.95 473.25 74.95 473.55 Q67.25 473.95 62.3 471.85 L64.2 461.9 64.2 433.8 73.1 422.05 75.55 412.2 75.4 373.75 Q77.3 368.9 83.2 364.55 L83.0 364.3 Q74.0 362.95 49.1 369.1 41.7 370.3 28.7 366.0 M228.75 306.7 Q226.4 307.5 224.85 308.85 L225.75 310.0 Q228.05 310.6 228.75 306.7 M211.3 306.85 Q215.0 311.9 217.85 310.7 L219.65 309.2 Q216.2 307.85 211.3 306.85 M237.2 325.65 L237.55 325.75 237.2 325.65 M173.55 416.8 L185.9 466.0 189.5 465.95 175.15 414.9 173.55 416.8" fill="#000000" fill-rule="evenodd" stroke="none"/>
  </g>
</svg>
