<?xml version="1.0" encoding="UTF-8" standalone="no"?>
<svg xmlns:xlink="http://www.w3.org/1999/xlink" height="132.85px" width="176.9px" xmlns="http://www.w3.org/2000/svg">
  <g transform="matrix(1.0, 0.0, 0.0, 1.0, -311.35, -229.25)">
    <path d="M450.2 229.75 L452.35 230.2 M461.8 232.15 L470.2 233.85 M449.9 280.65 Q455.9 292.25 465.85 303.75 462.2 313.2 461.7 320.8 L466.95 335.7 468.4 343.8 M349.4 229.75 L347.25 230.2 M337.8 232.15 L329.4 233.85 M333.75 303.75 Q343.7 292.25 349.7 280.65 M331.2 343.8 Q331.7 339.8 332.65 335.7 L337.9 320.8 Q337.4 313.2 333.75 303.75" fill="none" stroke="#000000" stroke-linecap="round" stroke-linejoin="round" stroke-width="1.0"/>
    <path d="M452.35 230.2 L452.55 239.35 M470.2 233.85 L473.1 264.55 481.65 296.75 487.75 315.45 Q485.05 339.15 479.2 361.45 L479.2 361.6 Q475.75 361.3 472.2 359.85 477.9 338.1 479.65 315.55 L475.05 301.85 Q468.6 281.65 464.25 261.4 461.65 246.4 461.8 232.15 M473.1 264.55 Q468.4 263.15 464.25 261.4 M465.85 303.75 L470.2 308.5 Q456.75 281.85 452.9 255.2 449.6 261.7 444.4 267.6 446.5 274.1 449.9 280.65 M468.4 343.8 Q470.95 326.15 470.2 308.5 M347.25 230.2 L347.05 239.3 M329.4 233.85 L326.5 264.55 Q331.2 263.15 335.35 261.4 337.95 246.35 337.8 232.15 M349.7 280.65 Q353.1 274.1 355.2 267.6 350.0 261.7 346.7 255.2 342.85 281.85 329.4 308.5 L333.75 303.75 M329.4 308.5 Q328.65 326.15 331.2 343.8 M335.35 261.4 Q331.0 281.65 324.55 301.85 L319.95 315.55 Q321.75 338.1 327.4 359.85 323.85 361.3 320.45 361.6 L320.4 361.45 Q314.55 339.15 311.85 315.45 L317.95 296.75 326.5 264.55 M481.65 296.75 Q477.8 299.15 475.05 301.85 M317.95 296.75 Q321.8 299.15 324.55 301.85" fill="none" stroke="#000000" stroke-linecap="round" stroke-linejoin="round" stroke-opacity="0.5019608" stroke-width="1.0"/>
  </g>
</svg>
