<?xml version="1.0" encoding="UTF-8" standalone="no"?>
<svg xmlns:xlink="http://www.w3.org/1999/xlink" height="156.35px" width="187.0px" xmlns="http://www.w3.org/2000/svg">
  <g transform="matrix(1.0, 0.0, 0.0, 1.0, -306.3, -193.15)">
    <path d="M471.5 235.45 Q477.65 243.5 479.05 255.75 M320.55 255.75 Q321.95 243.5 328.15 235.45 M440.15 225.4 L416.25 215.1 416.75 218.9 M384.3 206.45 L384.7 202.5 Q387.8 193.65 399.8 193.65 411.8 193.65 414.9 202.5 L415.35 206.45 M481.95 285.35 Q480.6 279.5 479.85 271.85 M449.9 280.65 Q453.1 286.9 457.5 293.1 M436.25 291.3 Q444.45 286.6 449.9 280.65 M349.7 280.65 Q355.15 286.6 363.35 291.3 M382.85 218.9 L383.35 215.1 359.45 225.4 M342.15 293.1 Q346.5 286.9 349.7 280.65 M319.75 271.85 Q319.0 279.5 317.7 285.35 M369.45 301.5 L370.85 305.1 371.6 313.25 M333.75 303.75 Q337.4 313.2 337.9 320.8 M306.8 315.8 Q310.2 309.3 314.0 302.75 L314.6 301.65 M332.65 335.7 Q331.15 342.05 330.8 348.25 M313.9 348.7 Q311.55 341.05 310.0 334.4 M465.85 303.75 Q462.2 313.2 461.7 320.8 M492.8 315.8 Q489.4 309.3 485.6 302.75 L485.0 301.65 M430.2 301.5 L428.75 305.1 428.05 313.25 M485.7 348.7 Q488.05 341.05 489.65 334.4 M466.95 335.7 Q468.45 342.05 468.85 348.25" fill="none" stroke="#000000" stroke-linecap="round" stroke-linejoin="round" stroke-width="1.0"/>
    <path d="M328.15 235.45 Q332.9 237.85 338.15 239.85 L346.1 242.6 Q369.2 249.7 399.8 249.5 430.4 249.7 453.5 242.6 L461.5 239.85 Q466.7 237.85 471.5 235.45 M479.05 255.75 L459.8 259.35 449.65 260.8 Q424.9 263.9 399.8 263.5 374.7 263.9 349.95 260.75 L339.8 259.35 320.55 255.75 M416.75 218.9 Q413.6 222.0 408.45 223.3 L405.35 231.8 M407.35 235.55 L421.5 234.5 Q432.9 231.8 440.15 225.4 M415.35 206.45 Q411.45 209.15 407.75 209.65 399.5 210.85 391.9 209.65 388.15 209.15 384.3 206.45 M424.25 286.1 Q429.65 282.6 431.15 277.7 M479.85 271.85 Q462.9 274.95 449.9 280.65 428.85 273.7 399.8 273.4 370.75 273.7 349.7 280.65 336.7 274.95 319.75 271.85 M457.5 293.1 Q468.25 288.8 481.95 285.35 M459.8 259.35 Q456.1 257.45 452.9 255.2 L449.65 260.8 M363.35 291.3 Q378.85 287.65 399.8 286.9 L399.8 282.5 M392.25 235.55 L378.2 234.5 Q387.55 236.7 399.8 236.45 412.05 236.7 421.5 234.5 M408.45 223.3 L399.8 224.15 Q394.95 224.2 391.15 223.3 L394.25 231.8 M391.15 223.3 Q386.0 222.0 382.85 218.9 M359.45 225.4 Q366.7 231.8 378.2 234.5 M339.8 259.35 Q343.5 257.45 346.7 255.2 348.15 258.05 349.95 260.75 M317.7 285.35 Q331.3 288.8 342.15 293.1 M399.8 249.5 L399.8 263.5 M375.35 286.1 Q369.95 282.6 368.45 277.7 M396.0 280.5 Q387.0 282.1 380.05 287.8 M385.95 306.3 L394.95 305.25 M417.4 305.25 L418.35 301.65 399.8 301.5 399.8 315.45 416.25 314.95 417.0 308.7 M382.2 305.25 L381.3 301.6 369.45 301.5 M371.6 313.25 L383.4 314.95 382.6 308.7 M381.3 301.6 L399.8 301.5 M399.8 315.45 L383.4 314.95 M314.6 301.65 Q320.45 303.25 326.25 303.7 L333.75 303.75 329.4 308.5 Q328.2 306.0 326.25 303.7 M337.9 320.8 Q321.55 321.4 306.8 315.8 M330.8 348.25 Q321.2 349.5 313.9 348.7 M310.0 334.4 Q317.95 335.9 332.65 335.7 M485.0 301.65 Q479.15 303.25 473.35 303.7 471.4 306.0 470.2 308.5 L465.85 303.75 M461.7 320.8 Q478.05 321.4 492.8 315.8 M473.35 303.7 Q469.6 303.95 465.85 303.75 M428.05 313.25 L416.25 314.95 M418.35 301.65 L430.2 301.5 M468.85 348.25 Q478.4 349.5 485.7 348.7 M489.65 334.4 Q481.65 335.9 466.95 335.7 M399.8 286.9 Q420.75 287.65 436.25 291.3 M413.65 306.3 L404.65 305.25 M403.6 280.5 Q412.6 282.1 419.55 287.8" fill="none" stroke="#000000" stroke-linecap="round" stroke-linejoin="round" stroke-opacity="0.5019608" stroke-width="1.0"/>
  </g>
</svg>
