<?xml version="1.0" encoding="UTF-8" standalone="no"?>
<svg xmlns:xlink="http://www.w3.org/1999/xlink" height="169.0px" width="187.0px" xmlns="http://www.w3.org/2000/svg">
  <g transform="matrix(1.0, 0.0, 0.0, 1.0, -306.3, -193.15)">
    <path d="M318.15 361.6 Q308.2 333.0 306.8 315.8 310.2 309.3 314.0 302.75 L314.6 301.65 312.4 298.6 Q318.7 289.8 320.2 266.2 319.45 245.35 329.4 233.85 L349.4 229.75 383.35 215.1 384.7 202.5 Q387.8 193.65 399.8 193.65 411.8 193.65 414.9 202.5 L416.25 215.1 450.2 229.75 470.2 233.85 Q480.15 245.35 479.4 266.2 480.9 289.8 487.2 298.6 L485.0 301.65 485.6 302.75 Q489.4 309.3 492.8 315.8 491.4 333.0 481.45 361.6 M416.25 215.1 L416.75 218.9 M383.35 215.1 L382.85 218.9" fill="none" stroke="#000000" stroke-linecap="round" stroke-linejoin="round" stroke-width="1.0"/>
    <path d="M481.45 361.6 Q476.95 361.8 472.2 359.8 477.9 338.1 479.65 315.55 L475.05 301.85 Q468.6 281.65 464.25 261.4 463.0 254.35 462.4 247.45 L461.95 247.6 Q458.1 248.6 454.6 249.95 L453.65 250.35 Q436.7 257.25 429.8 272.25 L427.95 283.1 421.5 320.75 422.4 325.9 M407.35 235.55 L442.15 232.95 M405.35 231.8 L410.95 216.45 M424.25 286.1 Q426.4 284.7 427.95 283.1 M479.4 266.2 Q471.1 264.3 464.25 261.4 M396.4 236.8 Q396.55 238.8 399.8 240.3 403.05 238.8 403.2 236.8 M394.25 231.8 L388.65 216.45 M377.2 325.9 L378.1 320.75 371.65 283.1 369.8 272.25 Q362.9 257.3 346.0 250.35 L345.35 250.1 Q341.9 248.7 338.05 247.7 L337.5 247.55 337.2 247.45 Q336.6 254.35 335.35 261.4 331.0 281.65 324.55 301.85 L319.95 315.55 Q321.75 338.1 327.4 359.85 322.65 361.85 318.15 361.6 M369.8 272.25 Q384.5 266.5 399.8 266.3 L399.8 240.3 M396.0 280.5 Q387.0 282.1 380.05 287.8 M371.65 283.1 Q373.2 284.7 375.35 286.1 M392.25 235.55 L357.45 232.95 M382.6 308.7 L384.35 322.65 M385.95 306.3 L394.95 305.25 M417.0 308.7 L415.25 322.65 M429.8 272.25 Q415.1 266.5 399.8 266.3 M378.55 291.05 L382.2 305.25 M399.8 282.5 L399.8 323.6 M421.05 291.05 L417.4 305.25 M475.05 301.85 Q477.8 299.15 481.65 296.75 L485.0 301.65 M413.65 306.3 L404.65 305.25 M403.6 280.5 Q412.6 282.1 419.55 287.8 M324.55 301.85 Q321.8 299.15 317.95 296.75 316.1 299.1 314.6 301.65 M320.2 266.2 Q328.5 264.3 335.35 261.4" fill="none" stroke="#000000" stroke-linecap="round" stroke-linejoin="round" stroke-opacity="0.5019608" stroke-width="1.0"/>
  </g>
</svg>
