<?xml version="1.0" encoding="UTF-8" standalone="no"?>
<svg xmlns:xlink="http://www.w3.org/1999/xlink" height="30.7px" width="107.2px" xmlns="http://www.w3.org/2000/svg">
  <g transform="matrix(1.0, 0.0, 0.0, 1.0, -346.2, -242.65)">
    <path d="M429.8 272.25 Q415.1 266.5 399.8 266.3 384.5 266.5 369.8 272.25 362.3 274.25 357.3 269.8 L356.95 269.45 355.95 268.35 355.2 267.6 Q350.0 261.7 346.7 255.2 L346.7 246.85 Q371.3 243.05 399.8 243.15 428.3 243.05 452.9 246.85 L452.9 255.2 Q449.6 261.7 444.4 267.6 L443.65 268.35 442.65 269.45 442.3 269.8 Q437.3 274.25 429.8 272.25 M399.8 243.15 L399.8 266.3" fill="none" stroke="#000000" stroke-linecap="round" stroke-linejoin="round" stroke-opacity="0.5019608" stroke-width="1.0"/>
  </g>
</svg>
