<?xml version="1.0" encoding="UTF-8" standalone="no"?>
<svg xmlns:xlink="http://www.w3.org/1999/xlink" height="81.75px" width="160.3px" xmlns="http://www.w3.org/2000/svg">
  <g transform="matrix(1.0, 0.0, 0.0, 1.0, -319.65, -193.15)">
    <path d="M320.2 266.2 Q319.45 245.35 329.4 233.85 L349.4 229.75 383.35 215.1 384.7 202.5 Q387.8 193.65 399.8 193.65 411.8 193.65 414.9 202.5 L416.25 215.1 450.2 229.75 470.2 233.85 Q480.15 245.35 479.4 266.2 M416.25 215.1 L416.75 218.9 M383.35 215.1 L382.85 218.9" fill="none" stroke="#000000" stroke-linecap="round" stroke-linejoin="round" stroke-width="1.0"/>
    <path d="M479.4 266.2 Q473.35 256.05 463.15 248.05 L462.8 247.75 462.4 247.45 462.05 247.55 457.5 248.75 453.7 249.8 Q430.2 256.5 411.25 267.25 405.3 270.6 399.8 274.4 394.3 270.6 388.35 267.25 369.4 256.45 345.9 249.75 L345.4 249.6 337.7 247.6 337.2 247.45 336.45 248.05 Q326.2 256.05 320.2 266.2 M407.35 235.55 L442.15 232.95 M405.35 231.8 L410.95 216.45 M396.4 236.8 Q396.55 238.8 399.8 240.3 403.05 238.8 403.2 236.8 M394.25 231.8 L388.65 216.45 M388.35 267.25 L399.8 266.3 399.8 240.3 M392.25 235.55 L357.45 232.95 M411.25 267.25 L399.8 266.3" fill="none" stroke="#000000" stroke-linecap="round" stroke-linejoin="round" stroke-opacity="0.5019608" stroke-width="1.0"/>
  </g>
</svg>
