<?xml version="1.0" encoding="UTF-8" standalone="no"?>
<svg xmlns:xlink="http://www.w3.org/1999/xlink" height="62.0px" width="170.2px" xmlns="http://www.w3.org/2000/svg">
  <g transform="matrix(1.0, 0.0, 0.0, 1.0, -314.7, -233.35)">
    <path d="M470.2 233.85 Q480.15 245.35 479.4 266.2 L484.4 285.5 482.3 286.9 Q470.35 294.45 458.75 294.85 L455.0 294.8 Q451.6 288.4 449.1 282.2 M350.5 282.2 Q348.0 288.4 344.6 294.8 L340.85 294.85 Q329.25 294.45 317.3 286.9 L315.2 285.5 320.2 266.2 Q319.45 245.35 329.4 233.85" fill="none" stroke="#000000" stroke-linecap="round" stroke-linejoin="round" stroke-width="1.0"/>
    <path d="M449.1 282.2 Q446.1 274.75 444.4 267.6 M355.2 267.6 Q353.5 274.75 350.5 282.2" fill="none" stroke="#000000" stroke-linecap="round" stroke-linejoin="round" stroke-opacity="0.5019608" stroke-width="1.0"/>
    <path d="M444.4 267.6 Q456.35 248.2 470.2 233.85 M329.4 233.85 Q343.25 248.2 355.2 267.6" fill="none" stroke="#000000" stroke-linecap="round" stroke-linejoin="round" stroke-opacity="0.2509804" stroke-width="1.0"/>
  </g>
</svg>
