<?xml version="1.0" encoding="UTF-8" standalone="no"?>
<svg xmlns:xlink="http://www.w3.org/1999/xlink" height="134.55px" width="108.05px" xmlns="http://www.w3.org/2000/svg">
  <g transform="matrix(1.0, 0.0, 0.0, 1.0, -345.8, -193.65)">
    <path d="M450.2 229.75 L450.3 236.0 Q454.65 240.2 453.65 250.35 436.7 257.25 429.8 272.25 L421.5 320.75 422.4 325.9 Q413.35 328.25 399.8 328.2 386.25 328.25 377.2 325.9 L378.1 320.75 369.8 272.25 Q362.9 257.3 346.0 250.35 344.95 240.2 349.3 236.0 L349.4 229.75 383.35 215.1 384.7 202.5 Q387.8 193.65 399.8 193.65 411.8 193.65 414.9 202.5 L416.25 215.1 450.2 229.75" fill="#000000" fill-rule="evenodd" stroke="none"/>
  </g>
</svg>
