<?xml version="1.0" encoding="UTF-8" standalone="no"?>
<svg xmlns:xlink="http://www.w3.org/1999/xlink" height="98.25px" width="119.2px" xmlns="http://www.w3.org/2000/svg">
  <g transform="matrix(1.0, 0.0, 0.0, 1.0, -340.55, -306.55)">
    <path d="M360.0 320.3 L360.8 320.5 368.85 322.6 371.2 323.1 Q383.75 325.7 397.55 326.1 L399.9 326.15 400.15 326.15 400.4 326.15 402.75 326.1 Q416.55 325.7 429.1 323.1 L431.45 322.6 439.5 320.5 440.3 320.25 M349.15 348.5 Q362.95 336.75 368.85 322.6 M346.85 376.3 L347.4 376.55 Q355.05 379.85 358.5 385.75 L358.5 385.8 359.75 386.9 361.1 387.95 361.6 388.25 Q366.7 391.5 375.1 392.5 L384.75 392.9 387.5 392.25 392.1 391.2 M348.4 352.2 Q364.65 339.2 371.2 323.1 M400.15 360.35 L400.15 326.15 M453.45 376.3 L452.9 376.55 Q445.25 379.85 441.8 385.75 L441.8 385.8 440.55 386.9 439.2 387.95 438.7 388.25 Q433.6 391.5 425.2 392.5 L415.55 392.9 412.8 392.25 408.2 391.2 M451.15 348.5 Q437.35 336.75 431.45 322.6 M429.1 323.1 Q435.65 339.2 451.9 352.2" fill="none" stroke="#000000" stroke-linecap="round" stroke-linejoin="round" stroke-opacity="0.49803922" stroke-width="1.0"/>
    <path d="M440.3 320.25 L437.4 315.3 437.4 307.05 Q418.95 309.65 400.15 309.35 381.35 309.65 362.9 307.05 L362.9 315.3 360.0 320.3 359.6 320.95 Q352.25 334.35 349.15 348.5 M440.3 320.25 L440.7 320.95 Q448.05 334.35 451.15 348.5 L451.9 352.2 Q453.9 363.4 453.35 375.1 L453.45 376.3 Q454.35 382.55 458.65 387.1 L459.25 387.7 458.65 387.95 Q451.0 391.3 447.55 397.15 L447.55 397.2 444.95 399.35 444.45 399.65 Q436.65 404.6 421.3 404.3 L418.55 403.65 Q409.4 401.45 408.7 402.2 409.1 397.0 408.2 391.2 L408.0 389.8 Q404.75 376.65 400.65 362.15 L400.15 360.35 399.65 362.15 Q395.55 376.65 392.3 389.8 L392.1 391.2 Q391.2 397.0 391.6 402.2 390.9 401.45 381.75 403.65 L379.0 404.3 Q363.65 404.6 355.85 399.65 L355.35 399.35 352.75 397.2 352.75 397.15 Q349.3 391.3 341.65 387.95 L341.05 387.7 341.65 387.1 Q345.95 382.55 346.85 376.3 L346.95 375.1 Q346.4 363.4 348.4 352.2 L349.15 348.5" fill="none" stroke="#000000" stroke-linecap="round" stroke-linejoin="round" stroke-width="1.0"/>
  </g>
</svg>
