<?xml version="1.0" encoding="UTF-8" standalone="no"?>
<svg xmlns:xlink="http://www.w3.org/1999/xlink" height="82.15px" width="35.0px" xmlns="http://www.w3.org/2000/svg">
  <g transform="matrix(1.0, 0.0, 0.0, 1.0, -304.95, -354.5)">
    <path d="M325.6 363.0 Q327.7 363.05 328.55 361.35 L332.15 381.7 332.0 383.85 334.15 395.8 334.2 396.05 339.85 426.95 339.95 427.55 339.35 427.05 Q338.55 426.5 337.65 426.3 334.9 425.65 332.2 428.9 L333.55 436.65 330.5 433.6 322.25 386.65 322.8 385.45 320.8 374.1 Q320.4 371.85 318.0 371.4 316.85 371.15 315.75 371.4 315.05 369.3 310.6 367.7 308.4 366.95 306.3 366.6 305.2 366.45 305.0 365.3 L305.05 364.3 306.3 357.25 Q306.9 356.0 308.15 355.2 310.65 353.6 313.75 355.7 L323.55 362.6 325.6 363.0 M330.15 380.6 L328.65 372.25 327.85 371.75 Q326.8 371.2 325.85 371.0 322.9 370.6 321.9 374.35 L322.4 377.2 322.4 377.25 323.45 383.0 Q323.9 384.55 324.85 384.4 L328.45 383.75 329.45 383.1 Q330.4 382.1 330.15 380.6" fill="#ffffff" fill-rule="evenodd" stroke="none"/>
  </g>
</svg>
