<?xml version="1.0" encoding="UTF-8" standalone="no"?>
<svg xmlns:xlink="http://www.w3.org/1999/xlink" height="215.2px" width="55.8px" xmlns="http://www.w3.org/2000/svg">
  <g transform="matrix(1.0, 0.0, 0.0, 1.0, -309.9, -238.5)">
    <path d="M331.15 253.75 L317.7 256.45 309.9 243.55 Q320.4 235.65 332.8 240.05 L331.15 253.75 M338.65 376.15 L318.9 263.35 332.2 261.35 352.4 373.75 338.65 376.15 M349.35 408.25 L350.65 408.9 352.35 412.05 Q353.5 413.75 354.6 414.75 L356.4 425.15 Q357.7 429.05 360.3 429.5 L361.65 429.25 365.7 450.15 Q359.55 455.15 351.85 453.1 L351.05 448.3 351.05 448.25 343.6 401.7 345.45 406.45 347.55 406.0 Q347.95 407.55 349.35 408.25" fill="#ffffff" fill-rule="evenodd" stroke="none"/>
  </g>
</svg>
