<?xml version="1.0" encoding="UTF-8" standalone="no"?>
<svg xmlns:xlink="http://www.w3.org/1999/xlink" height="190.6px" width="500.65px" xmlns="http://www.w3.org/2000/svg">
  <g transform="matrix(1.0, 0.0, 0.0, 1.0, -112.7, -291.35)">
    <path d="M112.8 291.5 L112.7 291.35 112.85 291.4 163.4 300.4 Q165.15 304.65 178.5 311.35 L195.95 317.75 Q194.55 319.25 193.9 321.0 193.2 322.75 193.4 324.8 L175.95 318.4 Q161.45 315.0 157.35 317.15 L157.3 317.15 157.3 317.1 112.8 291.5 M583.15 465.0 Q550.1 453.4 527.2 450.1 L527.15 450.0 Q524.4 444.0 518.85 446.35 516.05 447.8 515.4 451.35 514.8 455.7 519.1 458.4 L568.2 481.95 Q550.25 475.95 537.15 479.25 538.75 476.9 540.4 475.65 541.45 474.85 542.45 474.55 526.35 464.8 508.2 465.1 L508.15 465.1 508.2 465.05 Q508.8 455.5 504.85 449.1 L513.6 441.35 480.15 429.15 Q479.95 427.05 480.6 425.3 481.2 423.5 482.7 422.1 L516.15 434.3 514.45 422.7 Q521.6 420.3 527.3 412.55 541.05 424.45 559.65 427.35 559.05 426.4 558.8 425.15 558.3 423.2 558.55 420.35 566.5 431.2 584.1 438.2 L531.35 424.7 Q526.35 424.0 524.0 427.75 522.25 430.85 523.45 433.7 526.2 439.1 532.15 436.3 L532.2 436.3 Q551.9 448.35 584.65 460.8 L584.0 458.4 Q583.35 455.85 583.9 453.75 590.45 461.85 613.35 473.65 588.25 467.9 578.0 469.95 578.95 467.95 581.1 466.35 582.0 465.6 583.15 465.0" fill="#ffffff" fill-rule="evenodd" stroke="none"/>
  </g>
</svg>
