<?xml version="1.0" encoding="UTF-8" standalone="no"?>
<svg xmlns:xlink="http://www.w3.org/1999/xlink" height="87.4px" width="54.2px" xmlns="http://www.w3.org/2000/svg">
  <g transform="matrix(1.0, 0.0, 0.0, 1.0, 89.65, -52.9)">
    <path d="M-63.1 81.45 L-61.2 80.55 -62.9 74.7 Q-63.8 72.1 -62.75 71.35 -62.1 71.0 -61.65 71.35 -60.8 71.95 -60.2 73.95 L-58.6 79.35 -57.6 78.85 Q-57.15 79.8 -56.9 80.9 -56.7 82.05 -57.05 82.7 L-57.85 84.05 -63.1 86.6 -62.35 85.25 Q-62.0 84.55 -62.25 83.45 -62.5 82.25 -63.1 81.45 M-62.1 72.35 L-62.5 72.85 -62.55 73.6 -62.15 74.25 Q-61.9 74.55 -61.6 74.45 L-61.2 74.05 -61.15 73.25 Q-61.25 72.85 -61.5 72.6 -61.8 72.35 -62.1 72.35" fill="url(#gradient0)" fill-rule="evenodd" stroke="none"/>
    <path d="M-89.15 63.35 Q-88.9 59.8 -85.3 57.7 -80.4 55.25 -75.75 58.2 -70.65 61.3 -66.6 68.9 -65.55 70.8 -65.55 72.45 L-65.4 73.25 -63.1 81.45 -64.3 81.7 -64.45 81.35 Q-65.0 80.3 -66.1 80.0 L-67.45 79.9 Q-69.4 80.25 -69.65 82.15 L-71.45 75.8 Q-71.5 74.3 -73.35 71.6 -76.9 66.5 -81.8 69.3 L-84.9 69.15 Q-88.05 67.8 -89.15 64.5 L-89.15 63.35" fill="url(#gradient1)" fill-rule="evenodd" stroke="none"/>
    <path d="M-57.6 78.85 L-58.6 79.35 -60.2 73.95 Q-60.8 71.95 -61.65 71.35 -62.1 71.0 -62.75 71.35 -63.8 72.1 -62.9 74.7 L-61.2 80.55 -63.1 81.45 -65.4 73.25 -65.55 72.45 Q-65.55 70.8 -66.6 68.9 -70.65 61.3 -75.75 58.2 -80.4 55.25 -85.3 57.7 -88.9 59.8 -89.15 63.35 L-89.45 63.35 Q-90.6 57.85 -85.75 54.3 -80.55 51.05 -73.05 55.3 -65.75 60.1 -62.3 68.15 -61.75 69.2 -61.0 69.85 L-60.4 70.6 Q-58.65 74.8 -57.6 78.85" fill="url(#gradient2)" fill-rule="evenodd" stroke="none"/>
    <path d="M-69.65 82.15 Q-69.4 80.25 -67.45 79.9 L-66.1 80.0 Q-65.0 80.3 -64.45 81.35 L-64.3 81.7 Q-63.7 83.05 -63.2 86.25 L-63.1 86.6 -61.4 96.15 -70.4 109.55 Q-71.0 104.8 -69.6 101.6 L-69.1 101.8 -67.05 101.85 -64.1 98.85 -64.1 98.75 -65.2 92.9 Q-65.35 92.15 -65.15 91.7 -64.9 91.4 -64.45 91.25 L-64.45 91.15 -65.55 87.05 Q-66.25 84.75 -68.0 85.2 -68.75 85.4 -69.1 86.0 L-69.65 83.65 -69.65 82.15" fill="url(#gradient3)" fill-rule="evenodd" stroke="none"/>
    <path d="M-67.2 106.35 L-62.3 98.9 -61.1 97.9 -60.75 98.3 Q-64.15 102.0 -64.05 106.25 -63.6 116.7 -53.55 123.6 L-53.3 125.35 -54.5 126.35 Q-65.65 120.75 -67.2 109.85 -67.5 107.0 -67.2 106.35" fill="url(#gradient4)" fill-rule="evenodd" stroke="none"/>
    <path d="M-50.2 126.45 Q-46.9 127.55 -44.3 117.85 -42.3 109.5 -40.05 103.75 -39.15 101.45 -37.65 99.95 L-37.35 99.7 -35.65 100.2 -35.75 100.55 Q-37.65 102.75 -39.1 108.65 L-39.2 109.1 -39.5 110.4 -39.75 111.65 -39.9 112.35 -40.4 114.85 -40.8 116.7 -41.8 120.55 -42.85 123.3 -43.8 125.15 Q-44.25 125.95 -44.85 126.55 -45.55 127.35 -46.45 127.65 -47.95 127.95 -50.2 126.45" fill="url(#gradient5)" fill-rule="evenodd" stroke="none"/>
    <path d="M-50.2 126.45 Q-47.95 127.95 -46.45 127.65 -45.55 127.35 -44.85 126.55 -44.25 125.95 -43.8 125.15 L-42.85 123.3 -42.35 123.55 -43.25 125.7 Q-46.3 131.85 -50.45 129.65 L-50.25 128.95 -50.55 127.35 Q-50.7 126.9 -51.25 126.7 L-51.5 126.65 -51.65 125.4 -50.2 126.45" fill="url(#gradient6)" fill-rule="evenodd" stroke="none"/>
    <path d="M-67.2 106.35 Q-67.5 107.0 -67.2 109.85 -65.65 120.75 -54.5 126.35 L-53.0 135.4 Q-54.1 135.4 -55.5 134.3 L-54.55 132.4 -55.1 128.8 -58.9 127.95 Q-59.05 127.25 -60.1 126.45 -68.55 118.35 -70.1 110.65 L-67.2 106.35" fill="url(#gradient7)" fill-rule="evenodd" stroke="none"/>
    <path d="M-55.5 134.3 Q-56.65 136.25 -58.15 137.85 -60.55 140.45 -63.55 140.3 -65.1 140.15 -66.9 139.15 -69.45 137.6 -72.55 134.2 -77.45 128.8 -80.0 128.2 L-79.95 127.85 -79.7 126.25 -77.25 127.05 Q-73.8 128.5 -69.6 132.5 -67.05 134.95 -64.4 136.9 -58.35 141.2 -55.1 128.8 L-54.55 132.4 -55.5 134.3" fill="url(#gradient8)" fill-rule="evenodd" stroke="none"/>
    <path d="M-64.4 136.9 Q-61.45 137.15 -58.9 127.95 L-55.1 128.8 Q-58.35 141.2 -64.4 136.9" fill="url(#gradient9)" fill-rule="evenodd" stroke="none"/>
    <path d="M-70.1 110.65 L-67.2 106.35 Q-67.5 107.0 -67.2 109.85 -65.65 120.75 -54.5 126.35 L-53.0 135.4 Q-54.1 135.4 -55.5 134.3 L-54.55 132.4 -55.1 128.8 Q-58.35 141.2 -64.4 136.9 -61.45 137.15 -58.9 127.95 -59.05 127.25 -60.1 126.45 -68.55 118.35 -70.1 110.65 M-35.45 100.25 L-35.75 100.55 Q-37.65 102.75 -39.1 108.65 L-39.2 109.1 -39.5 110.4 -39.75 111.65 -39.9 112.35 Q-41.2 118.85 -41.8 120.55 L-42.85 123.3 -43.8 125.15 Q-44.25 125.95 -44.85 126.55 -45.55 127.35 -46.45 127.65 -47.95 127.95 -50.2 126.45 -46.9 127.55 -44.3 117.85 -42.3 109.5 -40.05 103.75 -39.15 101.45 -37.65 99.95 L-37.35 99.7 -35.45 100.25 M-75.75 58.2 Q-70.65 61.3 -66.6 68.9 -65.55 70.8 -65.55 72.45 L-65.4 73.25 -63.1 81.45 -64.3 81.7 Q-63.7 83.05 -63.2 86.25 L-63.1 86.6 -61.4 96.15 -70.4 109.55 Q-71.05 104.45 -69.4 101.15 L-69.1 101.8 -67.05 101.85 -64.1 98.85 -64.1 98.75 -65.2 92.9 Q-65.35 92.15 -65.15 91.7 -64.9 91.4 -64.45 91.25 L-64.45 91.15 -65.55 87.05 Q-66.25 84.75 -68.0 85.2 -68.75 85.4 -69.1 86.0 L-69.65 83.65 -69.65 82.15 Q-70.95 82.5 -71.85 83.2 -74.0 84.85 -73.55 88.1 -72.6 93.4 -68.1 94.2 L-67.9 95.05 Q-73.7 94.35 -74.8 88.4 L-74.95 87.5 Q-75.65 82.5 -70.1 80.45 L-71.45 75.8 Q-71.5 74.3 -73.35 71.6 -76.9 66.5 -81.8 69.3 L-84.9 69.15 Q-88.05 67.8 -89.15 64.5 -89.45 60.1 -85.3 57.7 -80.4 55.25 -75.75 58.2" fill="#000000" fill-opacity="0.2" fill-rule="evenodd" stroke="none"/>
  </g>
  <defs>
    <linearGradient gradientTransform="matrix(0.0, 0.0094, -0.0039, 0.0, -60.05, 78.85)" gradientUnits="userSpaceOnUse" id="gradient0" spreadMethod="pad" x1="-819.2" x2="819.2">
      <stop offset="0.0" stop-color="#000000" stop-opacity="0.2509804"/>
      <stop offset="1.0" stop-color="#000000" stop-opacity="0.0"/>
    </linearGradient>
    <linearGradient gradientTransform="matrix(0.0, 0.0156, -0.0159, 0.0, -76.1, 69.35)" gradientUnits="userSpaceOnUse" id="gradient1" spreadMethod="pad" x1="-819.2" x2="819.2">
      <stop offset="0.0" stop-color="#000000" stop-opacity="0.2509804"/>
      <stop offset="1.0" stop-color="#000000" stop-opacity="0.0"/>
    </linearGradient>
    <linearGradient gradientTransform="matrix(0.0, 0.0174, -0.0196, 0.0, -73.6, 67.15)" gradientUnits="userSpaceOnUse" id="gradient2" spreadMethod="pad" x1="-819.2" x2="819.2">
      <stop offset="0.0" stop-color="#000000" stop-opacity="0.2509804"/>
      <stop offset="1.0" stop-color="#000000" stop-opacity="0.0"/>
    </linearGradient>
    <linearGradient gradientTransform="matrix(0.0, 0.0181, -0.0056, 0.0, -66.0, 94.7)" gradientUnits="userSpaceOnUse" id="gradient3" spreadMethod="pad" x1="-819.2" x2="819.2">
      <stop offset="0.0" stop-color="#000000" stop-opacity="0.2509804"/>
      <stop offset="1.0" stop-color="#000000" stop-opacity="0.0"/>
    </linearGradient>
    <linearGradient gradientTransform="matrix(0.0, 0.0174, -0.0086, 0.0, -60.3, 112.1)" gradientUnits="userSpaceOnUse" id="gradient4" spreadMethod="pad" x1="-819.2" x2="819.2">
      <stop offset="0.0" stop-color="#000000" stop-opacity="0.2509804"/>
      <stop offset="1.0" stop-color="#000000" stop-opacity="0.0"/>
    </linearGradient>
    <linearGradient gradientTransform="matrix(0.0, 0.0171, -0.0089, 0.0, -42.9, 113.7)" gradientUnits="userSpaceOnUse" id="gradient5" spreadMethod="pad" x1="-819.2" x2="819.2">
      <stop offset="0.0" stop-color="#000000" stop-opacity="0.2509804"/>
      <stop offset="1.0" stop-color="#000000" stop-opacity="0.0"/>
    </linearGradient>
    <linearGradient gradientTransform="matrix(0.0, 0.0042, -0.0057, 0.0, -47.0, 126.75)" gradientUnits="userSpaceOnUse" id="gradient6" spreadMethod="pad" x1="-819.2" x2="819.2">
      <stop offset="0.0" stop-color="#000000" stop-opacity="0.2509804"/>
      <stop offset="1.0" stop-color="#000000" stop-opacity="0.0"/>
    </linearGradient>
    <linearGradient gradientTransform="matrix(0.0, 0.0177, -0.0104, 0.0, -61.55, 120.85)" gradientUnits="userSpaceOnUse" id="gradient7" spreadMethod="pad" x1="-819.2" x2="819.2">
      <stop offset="0.0" stop-color="#000000" stop-opacity="0.2509804"/>
      <stop offset="1.0" stop-color="#000000" stop-opacity="0.0"/>
    </linearGradient>
    <linearGradient gradientTransform="matrix(0.0, 0.0086, -0.0155, 0.0, -67.25, 133.25)" gradientUnits="userSpaceOnUse" id="gradient8" spreadMethod="pad" x1="-819.2" x2="819.2">
      <stop offset="0.0" stop-color="#000000" stop-opacity="0.2509804"/>
      <stop offset="1.0" stop-color="#000000" stop-opacity="0.0"/>
    </linearGradient>
    <linearGradient gradientTransform="matrix(0.0, 0.0061, -0.0057, 0.0, -59.75, 132.95)" gradientUnits="userSpaceOnUse" id="gradient9" spreadMethod="pad" x1="-819.2" x2="819.2">
      <stop offset="0.0" stop-color="#000000" stop-opacity="0.2509804"/>
      <stop offset="1.0" stop-color="#000000" stop-opacity="0.0"/>
    </linearGradient>
  </defs>
</svg>
