<?xml version="1.0" encoding="UTF-8" standalone="no"?>
<svg xmlns:xlink="http://www.w3.org/1999/xlink" height="115.0px" width="86.4px" xmlns="http://www.w3.org/2000/svg">
  <g transform="matrix(1.0, 0.0, 0.0, 1.0, -356.7, -206.4)">
    <path d="M415.15 241.25 Q411.75 237.75 403.0 238.55 L402.95 236.7 Q412.9 235.55 416.8 241.05 L433.75 239.9 Q437.4 239.8 438.95 242.2 L439.05 242.4 Q441.4 242.3 442.85 244.1 443.65 245.4 441.85 245.9 L441.7 245.95 440.85 246.1 440.8 246.1 Q436.25 247.25 435.8 250.6 L436.15 251.9 Q435.45 253.1 435.75 254.1 434.95 255.0 433.75 254.4 434.15 261.0 429.6 265.4 430.15 267.7 430.0 269.45 L430.0 269.65 Q431.9 273.1 430.05 275.5 L429.7 275.95 428.9 276.6 Q425.3 279.0 420.2 278.85 416.0 278.7 406.5 275.7 L404.8 275.1 406.15 273.35 406.2 273.3 Q412.75 275.7 417.45 276.45 L416.8 274.45 Q411.95 273.45 405.25 271.05 L405.45 269.8 Q411.8 271.55 416.3 272.2 L414.3 267.9 405.5 267.05 405.6 264.65 413.55 265.35 412.4 261.75 405.15 260.65 405.35 259.15 405.35 259.1 411.6 259.2 410.35 254.6 405.15 254.85 405.15 253.1 410.2 252.55 410.2 249.15 406.85 249.45 Q406.45 251.05 404.75 252.4 L405.0 253.0 404.9 253.0 404.9 253.1 404.9 254.85 404.9 254.95 405.0 255.0 404.75 255.4 Q404.2 256.65 404.55 257.55 L405.2 259.0 405.15 259.0 405.1 259.1 404.9 260.6 404.9 260.7 404.95 260.75 404.55 261.25 404.75 263.65 405.4 264.5 405.35 264.6 405.25 267.0 405.25 267.1 405.3 267.1 404.75 268.05 Q405.25 268.8 405.3 269.65 L405.25 269.65 405.2 269.75 405.0 271.0 405.0 271.1 405.05 271.15 404.75 271.65 406.0 273.15 405.95 273.2 404.55 275.0 404.55 275.1 404.6 275.15 404.65 275.2 404.9 317.25 Q403.65 319.85 399.8 321.4 396.0 319.85 394.75 317.25 L395.0 275.25 395.1 275.2 395.15 275.15 395.1 275.05 393.9 273.2 393.9 273.15 395.05 271.65 394.75 271.15 394.8 271.1 394.85 271.0 394.65 269.75 394.6 269.65 394.5 269.65 Q394.6 268.8 395.05 268.05 L394.5 267.1 394.55 267.1 394.6 267.0 394.55 264.6 394.5 264.5 394.45 264.5 395.05 263.65 395.25 261.25 394.85 260.75 394.9 260.7 394.95 260.6 394.75 259.1 394.7 259.0 394.65 259.0 Q394.75 258.3 395.25 257.55 395.65 256.65 395.05 255.4 L394.85 255.0 394.9 254.95 394.95 254.85 394.95 253.1 394.9 253.0 394.85 253.0 395.05 252.4 Q393.35 251.05 392.95 249.45 L389.6 249.15 389.6 252.55 394.7 253.1 394.7 254.85 389.45 254.6 388.2 259.2 394.5 259.1 394.5 259.15 394.7 260.65 387.4 261.75 386.25 265.35 394.3 264.65 394.35 267.05 385.5 267.9 383.55 272.2 Q388.0 271.55 394.4 269.8 L394.6 271.05 Q387.85 273.45 383.0 274.45 L382.35 276.45 Q387.05 275.7 393.7 273.3 L393.7 273.35 394.9 275.15 393.15 275.7 Q383.8 278.7 379.6 278.85 374.5 279.0 370.9 276.6 L370.1 275.95 369.75 275.5 Q367.9 273.1 369.8 269.65 L369.8 269.45 Q369.65 267.7 370.2 265.4 365.65 261.0 366.05 254.4 364.75 255.05 363.95 253.9 364.15 253.05 363.65 252.05 L364.0 250.6 Q363.55 247.25 359.05 246.1 L358.95 246.1 357.95 245.9 Q356.15 245.4 356.95 244.1 358.4 242.3 360.75 242.4 L360.85 242.2 Q362.4 239.8 366.05 239.9 L383.0 241.05 Q386.9 235.55 396.9 236.7 L396.9 238.55 Q388.05 237.75 384.65 241.25 L387.05 241.5 Q391.65 240.2 396.95 240.0 L397.0 238.7 397.1 238.65 397.15 238.55 397.15 236.7 397.1 236.6 397.0 236.6 396.15 207.05 Q397.8 206.55 399.9 206.4 402.0 206.55 403.65 207.05 L402.8 236.6 402.7 236.65 402.7 236.7 402.75 238.55 402.8 238.65 402.85 238.7 402.85 240.0 Q408.15 240.2 412.75 241.5 L415.15 241.25 M379.8 243.65 L369.05 242.85 368.5 243.65 Q371.15 244.8 372.35 246.45 375.15 244.3 379.8 243.65 M431.3 243.65 L430.75 242.85 420.0 243.65 Q424.65 244.3 427.5 246.45 428.65 244.8 431.3 243.65" fill="#000000" fill-rule="evenodd" stroke="none"/>
  </g>
</svg>
