<?xml version="1.0" encoding="UTF-8" standalone="no"?>
<svg xmlns:xlink="http://www.w3.org/1999/xlink" height="78.1px" width="65.45px" xmlns="http://www.w3.org/2000/svg">
  <g transform="matrix(1.0, 0.0, 0.0, 1.0, -367.2, -230.4)">
    <path d="M425.2 240.55 L425.85 237.2 426.3 235.6 Q430.2 237.55 432.65 240.5 L431.95 241.9 428.55 248.45 Q425.35 254.25 421.5 259.95 423.7 250.35 425.15 240.8 L425.2 240.55 M416.35 241.35 L416.15 241.8 412.0 250.2 413.0 242.25 413.05 241.65 Q413.65 236.05 413.65 230.4 L419.45 232.75 Q418.45 236.85 416.35 241.35 M405.9 293.35 L409.85 292.9 421.3 291.1 Q420.45 294.05 420.0 297.0 412.35 295.75 405.9 293.35 M405.65 280.45 L419.6 278.4 430.25 276.5 Q427.45 281.6 423.35 285.1 L413.35 282.9 Q409.5 281.95 405.65 280.45 M373.6 235.6 L374.0 237.2 374.6 240.55 374.65 240.8 Q376.1 250.35 378.3 259.95 374.5 254.25 371.3 248.45 L367.9 241.9 367.2 240.5 Q369.65 237.55 373.6 235.6 M383.7 241.8 L383.45 241.35 Q381.35 236.85 380.35 232.75 L386.15 230.4 Q386.15 236.05 386.75 241.65 L386.8 242.25 Q387.15 246.25 387.8 250.2 L383.7 241.8 M393.9 293.35 Q387.45 295.75 379.8 297.0 379.35 294.05 378.5 291.1 L389.95 292.9 393.9 293.35 M380.2 278.4 L394.15 280.45 Q390.3 281.95 386.45 282.9 L376.45 285.1 Q372.35 281.6 369.6 276.5 L380.2 278.4 M392.0 306.85 Q385.9 308.6 380.15 308.5 L380.35 303.95 Q385.6 306.1 391.95 306.4 L393.35 306.45 392.0 306.85 M407.8 306.85 L406.45 306.45 407.85 306.4 Q414.2 306.1 419.45 303.95 L419.65 308.5 Q413.9 308.6 407.8 306.85" fill="#000000" fill-rule="evenodd" stroke="none"/>
  </g>
</svg>
