<?xml version="1.0" encoding="UTF-8" standalone="no"?>
<svg xmlns:xlink="http://www.w3.org/1999/xlink" height="116.0px" width="87.4px" xmlns="http://www.w3.org/2000/svg">
  <g transform="matrix(1.0, 0.0, 0.0, 1.0, -356.2, -205.9)">
    <path d="M406.6 246.25 L406.85 246.55 406.85 247.4 Q412.5 246.7 414.8 244.4 410.55 245.1 406.6 246.25 M393.2 246.25 L392.95 246.55 392.95 247.4 M392.95 249.4 Q393.35 251.0 395.05 252.35 L394.8 253.05 M394.8 254.8 L395.05 255.35 Q395.65 256.6 395.25 257.5 394.7 258.3 394.6 259.05 M394.8 260.55 L395.25 261.2 395.05 263.6 394.4 264.6 M394.45 267.0 L395.05 268.05 Q394.55 268.85 394.5 269.75 M394.7 271.0 L395.05 271.65 M404.75 271.65 L405.1 271.0 M405.3 269.75 Q405.3 268.85 404.75 268.05 L405.35 267.0 414.3 267.9 M405.45 264.6 L404.75 263.6 404.55 261.2 405.0 260.55 M405.2 259.05 Q405.1 258.3 404.55 257.5 404.2 256.6 404.75 255.35 L405.0 254.8 410.35 254.55 411.6 259.15 405.2 259.05 M405.0 253.05 L404.75 252.35 Q406.45 251.0 406.85 249.4 L410.2 249.1 410.2 252.5 405.0 253.05 M420.0 243.6 L430.75 242.8 431.3 243.6 Q428.65 244.75 427.5 246.4 424.65 244.25 420.0 243.6 M439.05 242.35 L438.95 242.15 Q437.4 239.75 433.75 239.85 L416.8 241.0 M415.15 241.2 L412.75 241.45 M429.6 265.4 Q434.15 260.95 433.75 254.35 434.95 254.95 435.75 254.05 M441.85 245.85 Q443.65 245.35 442.85 244.05 441.4 242.25 439.05 242.35 M416.3 272.2 Q411.75 271.55 405.3 269.75 M430.0 269.65 L430.0 269.45 Q430.15 267.7 429.6 265.4 M405.45 264.6 L413.55 265.35 412.4 261.7 405.0 260.55 M416.3 272.2 L414.3 267.9 M416.8 274.45 L417.45 276.45 Q412.7 275.7 406.05 273.25 L404.75 271.65 M416.8 274.45 Q411.9 273.45 405.1 271.0 M404.65 275.05 L406.5 275.7 Q416.0 278.7 420.2 278.85 425.3 279.0 428.9 276.6 L429.7 275.95 430.05 275.5 Q431.9 273.1 430.0 269.65 M357.95 245.85 Q356.15 245.35 356.95 244.05 358.4 242.25 360.75 242.35 L360.85 242.15 Q362.4 239.75 366.05 239.85 L383.0 241.0 Q386.9 235.45 397.0 236.65 L396.85 233.05 396.6 228.65 396.4 224.55 396.35 220.75 396.3 215.85 396.2 211.15 396.15 207.05 Q397.8 206.55 399.9 206.4 402.0 206.55 403.65 207.05 L403.6 211.15 403.55 215.85 403.45 220.75 403.4 224.7 403.2 228.8 403.0 233.05 402.8 236.65 Q412.9 235.45 416.8 241.0 M379.8 243.6 Q375.15 244.25 372.35 246.4 371.15 244.75 368.5 243.6 L369.05 242.8 379.8 243.6 M385.0 244.4 Q389.25 245.1 393.2 246.25 M389.45 254.55 L394.8 254.8 M385.0 244.4 Q387.3 246.7 392.95 247.4 M402.85 238.5 Q411.75 237.7 415.15 241.2 M402.85 239.95 L402.85 238.5 M397.0 238.5 L396.95 239.95 Q391.65 240.15 387.05 241.45 L384.65 241.2 Q388.05 237.7 397.0 238.5 M402.85 239.95 Q408.15 240.15 412.75 241.45 M363.95 253.85 Q364.75 255.0 366.05 254.35 365.65 260.95 370.2 265.4 M392.95 249.4 L389.6 249.1 389.6 252.5 394.8 253.05 M389.45 254.55 L388.2 259.15 394.6 259.05 M394.45 267.0 L385.5 267.9 383.55 272.2 Q388.05 271.55 394.5 269.75 M394.8 260.55 L387.4 261.7 386.25 265.35 394.4 264.6 M394.75 317.25 L394.75 315.4 394.8 310.9 394.8 305.85 394.85 300.45 394.9 294.85 394.9 289.0 394.95 283.5 395.0 278.0 395.0 275.1 393.15 275.7 Q383.8 278.7 379.6 278.85 374.5 279.0 370.9 276.6 L370.1 275.95 369.75 275.5 Q367.9 273.1 369.8 269.65 L369.8 269.45 Q369.65 267.7 370.2 265.4 M382.35 276.45 L383.0 274.45 Q387.9 273.45 394.7 271.0 M404.7 278.0 L404.65 275.05 M404.7 283.5 L404.7 278.0 M404.8 294.85 L404.75 289.0 404.7 283.5 M382.35 276.45 Q387.1 275.7 393.8 273.25 L395.05 271.65 M404.85 305.85 L404.85 300.45 404.8 294.85 M404.85 305.85 L404.9 310.9 404.9 315.4 404.9 317.25" fill="none" stroke="#000000" stroke-linecap="round" stroke-linejoin="round" stroke-width="1.0"/>
    <path d="M406.6 246.25 Q404.85 244.05 401.75 243.4 L398.1 243.4 Q394.95 244.05 393.2 246.25 M392.95 247.4 L392.95 249.4 M394.8 253.05 Q394.55 254.05 394.8 254.8 M394.6 259.05 Q394.5 259.85 394.8 260.55 M394.4 264.6 Q393.95 265.7 394.45 267.0 M394.5 269.75 Q394.45 270.35 394.7 271.0 M395.05 271.65 Q394.55 273.0 395.2 274.1 L395.75 274.85 396.9 275.7 397.3 275.9 397.3 276.2 Q397.35 277.35 398.05 278.55 L398.25 278.85 399.9 280.75 401.55 278.85 401.8 278.5 Q402.45 277.35 402.5 276.2 L402.5 275.9 402.9 275.7 404.05 274.85 404.6 274.1 Q405.3 273.0 404.75 271.65 M405.1 271.0 L405.3 269.75 M405.35 267.0 Q405.9 265.7 405.45 264.6 M405.0 260.55 Q405.3 259.85 405.2 259.05 M405.0 254.8 Q405.3 254.05 405.0 253.05 M406.85 249.4 L406.85 247.4 M414.8 244.4 L417.55 243.9 418.0 243.85 420.0 243.6 Q422.65 246.9 422.25 249.25 424.85 251.05 424.95 254.2 L424.95 254.55 Q428.6 259.2 428.7 262.25 L429.6 265.4 M431.3 243.6 Q433.15 245.6 437.6 244.4 440.75 245.2 439.05 242.35 M416.8 241.0 L415.15 241.2 M412.75 241.45 L404.15 242.65 401.95 243.25 401.75 243.4 M435.75 254.05 Q435.45 253.05 436.15 251.85 L435.8 250.55 Q436.25 247.2 440.8 246.05 L440.85 246.05 441.7 245.9 441.85 245.85 M428.7 262.25 Q428.7 263.7 427.95 264.8 429.65 273.95 416.3 272.2 M412.4 261.7 Q423.35 262.55 424.75 256.4 L424.95 254.55 M422.25 249.25 L421.7 250.65 Q427.0 258.9 411.6 259.15 M410.2 252.5 Q425.15 250.4 418.0 243.85 M410.2 249.1 Q416.35 248.1 417.55 243.9 M410.35 254.55 Q419.6 253.75 421.7 250.65 M414.3 267.9 Q425.45 268.3 427.95 264.8 M417.45 276.45 Q426.75 277.95 428.75 272.85 425.9 276.2 416.8 274.45 M430.0 269.65 Q429.8 271.65 428.75 272.85 M413.55 265.35 Q430.1 265.9 424.75 256.4 M403.45 220.75 L396.35 220.75 M396.2 211.15 L403.6 211.15 M396.3 215.85 L403.55 215.85 M368.5 243.6 Q366.7 245.6 362.2 244.4 359.05 245.2 360.75 242.35 M384.65 241.2 L383.0 241.0 M379.8 243.6 L381.8 243.85 382.3 243.9 385.0 244.4 M379.8 243.6 Q377.15 246.9 377.55 249.25 L378.1 250.65 Q380.2 253.75 389.45 254.55 M403.4 224.7 L399.9 225.0 396.4 224.55 M396.6 228.65 L399.9 229.1 403.2 228.8 M403.0 233.05 L396.85 233.05 M402.8 236.65 L402.8 236.9 402.85 238.5 M397.0 236.65 L397.0 236.9 402.8 236.9 M397.0 236.9 L397.0 238.5 M396.95 239.95 Q397.7 240.9 399.9 240.75 402.1 240.9 402.85 239.95 M398.1 243.4 L397.85 243.25 395.65 242.65 387.05 241.45 M401.95 243.25 Q403.55 242.1 402.85 239.95 M397.85 243.25 Q396.25 242.1 396.95 239.95 M357.95 245.85 L358.95 246.05 359.05 246.05 Q363.55 247.2 364.0 250.55 L363.65 252.0 Q364.15 253.0 363.95 253.85 M370.2 265.4 L371.15 262.25 Q371.2 259.2 374.85 254.55 L374.85 254.2 Q374.95 251.05 377.55 249.25 M386.25 265.35 Q369.7 265.9 375.1 256.4 374.85 255.55 374.85 254.55 M371.15 262.25 Q371.1 263.7 371.85 264.8 374.35 268.3 385.5 267.9 M383.0 274.45 Q373.9 276.2 371.05 272.85 373.05 277.95 382.35 276.45 M404.65 275.05 L404.05 274.85 M395.0 275.1 L395.75 274.85 M404.7 283.5 L399.8 284.35 394.95 283.5 M404.7 278.0 L401.8 278.5 M395.0 278.0 L398.05 278.55 M394.9 294.85 L399.8 295.75 404.8 294.85 M404.75 289.0 L399.8 289.85 394.9 289.0 M371.05 272.85 Q370.0 271.65 369.8 269.65 M387.4 261.7 Q376.45 262.55 375.1 256.4 M371.85 264.8 Q370.2 273.95 383.55 272.2 M388.2 259.15 Q372.8 258.9 378.1 250.65 M389.6 252.5 Q374.65 250.4 381.8 243.85 M389.6 249.1 Q383.45 248.1 382.3 243.9 M404.85 300.45 L399.8 301.35 394.85 300.45 M394.8 305.85 L399.8 306.75 404.85 305.85 M404.9 317.25 Q403.65 319.85 399.8 321.4 396.0 319.85 394.75 317.25 M394.75 315.4 L399.8 316.55 404.9 315.4 M404.9 310.9 L399.8 311.5 394.8 310.9" fill="none" stroke="#000000" stroke-linecap="round" stroke-linejoin="round" stroke-opacity="0.2509804" stroke-width="1.0"/>
  </g>
</svg>
