<?xml version="1.0" encoding="UTF-8" standalone="no"?>
<svg xmlns:xlink="http://www.w3.org/1999/xlink" height="54.9px" width="52.1px" xmlns="http://www.w3.org/2000/svg">
  <g transform="matrix(1.0, 0.0, 0.0, 1.0, -286.5, -321.5)">
    <path d="M325.25 322.05 L325.0 323.35 317.55 322.65 Q301.8 323.1 290.5 326.7 290.05 326.75 288.4 327.5 L288.0 326.15 Q305.2 319.85 325.25 322.05 M326.65 328.05 Q326.25 326.65 317.3 326.25 308.3 325.85 298.75 329.1 289.2 332.3 288.35 335.25 287.65 341.0 290.4 344.25 292.15 346.4 297.1 344.9 307.75 341.5 319.0 341.0 L319.25 340.95 324.45 341.3 Q325.15 341.45 325.7 341.75 L325.75 341.8 Q326.55 342.8 325.6 343.75 L327.05 345.85 Q325.45 345.1 323.05 345.1 308.55 345.4 295.15 349.45 293.3 350.1 292.3 351.35 L291.95 349.3 Q302.0 343.3 324.15 342.8 L324.95 342.75 324.2 342.65 Q317.7 341.6 308.4 343.45 L297.65 345.95 Q293.75 347.05 291.45 346.55 290.05 346.2 289.35 345.3 287.05 342.8 286.7 339.4 285.95 335.5 288.15 332.7 L288.5 332.25 289.15 331.65 Q292.5 328.8 303.75 326.1 315.0 323.35 325.45 325.55 327.1 326.35 326.65 328.05 M337.35 376.4 L336.25 370.35 Q338.85 371.5 338.55 374.4 338.3 375.8 337.35 376.4" fill="#000000" fill-rule="evenodd" stroke="none"/>
  </g>
</svg>
