<?xml version="1.0" encoding="UTF-8" standalone="no"?>
<svg xmlns:xlink="http://www.w3.org/1999/xlink" height="53.1px" width="231.8px" xmlns="http://www.w3.org/2000/svg">
  <g transform="matrix(1.0, 0.0, 0.0, 1.0, -284.0, -302.2)">
    <path d="M328.85 313.5 Q315.8 314.2 304.25 314.15 L305.85 323.75 Q315.55 322.85 324.9 320.65 L319.45 329.15 307.25 332.0 308.45 339.0 Q312.75 337.9 317.25 336.0 L317.7 341.0 Q317.75 341.8 317.95 342.6 313.55 344.75 309.65 346.05 L310.4 350.55 311.15 353.0 Q303.65 355.8 296.75 354.25 L294.8 353.0 284.95 309.25 Q284.45 305.95 284.5 302.7 L332.35 305.65 Q330.8 309.55 328.85 313.5 M481.85 342.6 Q486.25 344.75 490.15 346.05 L489.4 350.55 488.65 353.0 Q496.15 355.8 503.05 354.25 L505.0 353.0 514.85 309.25 Q515.35 305.95 515.3 302.7 L467.45 305.65 470.95 313.5 Q484.0 314.2 495.55 314.15 L493.95 323.75 Q484.25 322.85 474.9 320.65 477.4 324.9 480.35 329.15 L492.55 332.0 491.35 339.0 Q487.05 337.9 482.55 336.0 L482.1 341.0 481.85 342.6" fill="none" stroke="#000000" stroke-linecap="round" stroke-linejoin="round" stroke-width="1.0"/>
  </g>
</svg>
