<?xml version="1.0" encoding="UTF-8" standalone="no"?>
<svg xmlns:xlink="http://www.w3.org/1999/xlink" height="53.1px" width="50.85px" xmlns="http://www.w3.org/2000/svg">
  <g transform="matrix(1.0, 0.0, 0.0, 1.0, -282.4, -302.2)">
    <path d="M328.85 313.5 L324.9 320.65 Q326.2 324.9 319.45 329.15 L317.3 332.15 Q317.2 334.1 317.25 336.0 320.4 338.2 319.1 340.65 L317.95 342.65 318.1 343.2 Q318.7 345.9 319.7 348.45 L317.0 350.15 Q306.35 356.4 296.75 354.25 L294.8 353.0 293.5 347.1 Q289.55 343.6 291.9 340.1 L290.3 332.85 Q284.9 328.85 288.3 324.15 L285.9 313.5 Q283.5 312.4 283.0 309.3 282.5 306.15 284.5 302.7 L332.35 305.65 Q333.95 309.9 328.85 313.5" fill="none" stroke="#000000" stroke-linecap="round" stroke-linejoin="round" stroke-width="1.0"/>
    <path d="M328.85 313.5 Q304.85 314.85 285.9 313.5 M317.95 342.65 L317.95 342.6 Q302.65 350.1 293.5 347.1 M319.45 329.15 Q303.4 333.85 290.3 332.85 M317.25 336.0 Q303.95 341.6 291.9 340.1 M288.3 324.15 Q307.2 324.85 324.9 320.65" fill="none" stroke="#000000" stroke-linecap="round" stroke-linejoin="round" stroke-opacity="0.49803922" stroke-width="1.0"/>
  </g>
</svg>
