<?xml version="1.0" encoding="UTF-8" standalone="no"?>
<svg xmlns:xlink="http://www.w3.org/1999/xlink" height="41.0px" width="33.45px" xmlns="http://www.w3.org/2000/svg">
  <g transform="matrix(1.0, 0.0, 0.0, 1.0, -286.8, -317.45)">
    <path d="M300.95 329.4 Q302.9 332.25 303.6 336.6 304.35 340.9 303.5 344.2 302.65 347.6 300.65 347.9 298.65 348.25 296.65 345.4 295.7 344.0 295.0 342.2 294.35 340.4 293.95 338.25 L293.65 335.15 Q293.55 332.7 294.1 330.6 295.0 327.3 297.0 326.95 299.0 326.6 300.95 329.4 M308.9 337.6 Q308.25 334.0 308.95 331.25 309.7 328.5 311.35 328.2 313.0 327.9 314.65 330.25 316.25 332.6 316.9 336.2 317.55 339.85 316.85 342.6 316.1 345.35 314.45 345.65 312.8 345.95 311.15 343.6 309.55 341.25 308.9 337.6 M293.7 348.25 L289.85 331.0" fill="none" stroke="#000000" stroke-linecap="round" stroke-linejoin="round" stroke-opacity="0.5019608" stroke-width="1.0"/>
    <path d="M288.9 326.9 Q293.25 315.4 301.7 318.7 309.9 325.0 319.75 328.8 318.45 338.3 319.25 348.85 L309.5 356.65 Q305.3 360.1 296.75 354.3 L294.8 353.05 293.7 348.25 293.15 348.4 Q291.5 348.7 289.85 346.35 288.25 344.0 287.6 340.35 286.95 336.75 287.65 334.0 288.35 331.45 289.85 331.0 L288.9 326.9" fill="none" stroke="#000000" stroke-linecap="round" stroke-linejoin="round" stroke-width="1.0"/>
  </g>
</svg>
