<?xml version="1.0" encoding="UTF-8" standalone="no"?>
<svg xmlns:xlink="http://www.w3.org/1999/xlink" height="43.05px" width="49.2px" xmlns="http://www.w3.org/2000/svg">
  <g transform="matrix(1.0, 0.0, 0.0, 1.0, -281.0, -261.55)">
    <path d="M328.45 278.95 Q330.3 281.35 329.45 283.8 330.8 287.85 329.65 292.0 330.25 294.0 329.1 296.05 312.0 290.45 292.65 294.7 292.05 299.1 284.5 304.6 282.85 302.8 283.35 299.65 L282.45 297.95 287.15 295.7 Q287.75 295.05 287.9 293.9 288.0 292.35 287.15 290.8 286.4 289.55 285.35 288.9 L284.8 288.6 Q283.4 287.95 282.35 288.6 282.2 288.7 282.0 288.85 L281.05 290.95 Q280.85 289.2 281.45 287.6 280.8 285.2 281.15 283.1 L282.45 284.0 282.8 284.2 282.9 284.3 284.8 284.05 Q286.05 283.45 286.9 282.25 L287.15 281.8 Q288.0 280.25 287.9 278.8 287.75 277.2 286.65 276.6 L286.25 276.4 282.75 276.75 Q283.6 272.95 286.5 271.1 L286.7 270.6 286.8 270.95 Q287.25 271.7 288.35 272.15 289.75 272.65 291.55 272.2 292.65 271.9 293.5 271.2 L294.15 270.55 Q295.15 269.35 294.9 268.15 L294.7 267.75 292.15 265.65 292.3 265.6 Q293.55 262.95 296.4 261.55 302.8 266.65 302.0 269.15 319.7 272.3 328.45 278.95" fill="#000000" fill-rule="evenodd" stroke="none"/>
  </g>
</svg>
