<?xml version="1.0" encoding="UTF-8" standalone="no"?>
<svg xmlns:xlink="http://www.w3.org/1999/xlink" height="553.9px" width="550.8px" xmlns="http://www.w3.org/2000/svg">
  <g transform="matrix(1.0, 0.0, 0.0, 1.0, 275.5, 260.5)">
    <path d="M133.05 -260.0 Q143.95 -231.85 152.3 -201.55 215.6 -220.3 274.8 -260.0 M123.8 -163.5 Q133.05 -166.9 143.9 -169.3 L141.9 -179.25 121.95 -175.65 123.8 -163.5 Q125.65 -150.35 126.95 -137.0 M141.9 -179.25 L157.2 -182.5 152.3 -201.55 137.75 -197.55 141.9 -179.25 M143.9 -169.3 Q147.35 -151.15 149.75 -132.1 157.55 -136.7 166.1 -140.25 163.15 -156.5 159.6 -172.25 L143.9 -169.3 M274.8 -219.2 Q212.4 -195.0 157.2 -182.5 L159.6 -172.25 Q205.6 -179.2 274.8 -172.2 M121.95 -175.65 L101.2 -172.7 102.25 -153.05 Q111.7 -159.05 123.8 -163.5 M121.95 -175.65 L118.85 -193.2 99.95 -189.75 101.2 -172.7 76.3 -170.3 76.5 -153.7 M149.75 -132.1 L150.4 -126.8 M145.6 -129.6 L149.75 -132.1 M102.25 -153.05 L102.5 -145.6 M102.25 -153.05 Q98.6 -150.75 95.35 -148.2 M101.85 -260.0 Q112.3 -227.3 118.85 -193.2 128.35 -195.15 137.75 -197.55 129.7 -230.3 117.95 -260.0 M99.95 -189.75 L75.8 -186.7 76.3 -170.3 Q57.3 -169.05 39.4 -169.5 L39.4 -160.9 M75.8 -186.7 L39.4 -184.8 39.4 -169.5 24.1 -170.2 M23.2 -185.0 Q31.35 -184.75 39.4 -184.8 L39.4 -260.0 M93.85 -8.55 L105.1 -13.35 M274.8 -128.0 Q224.85 -134.05 171.05 -108.8 L171.25 -107.2 M274.8 -150.0 Q210.5 -158.75 166.1 -140.25 168.85 -124.8 171.05 -108.8 L170.45 -108.55 M274.8 -109.0 Q218.4 -105.6 181.4 -82.8 M274.8 -84.95 Q225.15 -84.5 182.8 -54.95 M178.25 -27.6 Q227.65 -56.4 274.8 -62.95 M189.7 -5.45 Q233.3 -23.95 274.8 -29.85 M90.3 -260.0 Q96.75 -227.05 99.95 -189.75 M70.65 -260.0 Q74.45 -224.6 75.8 -186.7 M7.85 -260.0 L7.85 -195.1 M20.05 -260.0 L20.05 -188.6 M173.85 104.25 Q225.1 101.35 274.8 111.3 M186.1 71.7 Q234.75 67.45 274.8 71.75 M188.75 47.7 Q238.05 36.8 274.8 40.4 M191.4 23.75 L274.8 7.25 M113.7 30.75 Q101.05 30.7 93.9 26.5 86.75 22.3 70.8 22.15 M18.85 102.85 Q10.05 104.95 -0.1 104.5 -10.25 104.95 -19.05 102.85 L-19.05 115.4 Q-9.85 117.0 -0.1 116.8 9.65 117.0 18.85 115.4 L18.85 102.85 18.85 98.1 M18.85 135.2 L-19.05 135.2 -19.05 143.9 -0.1 143.3 18.85 143.9 18.85 135.2 18.85 124.75 -0.1 126.4 -19.05 124.75 -19.05 135.2 -35.45 135.2 M27.8 113.3 Q23.4 114.55 18.85 115.4 L18.85 124.75 31.95 123.55 M18.85 143.9 Q28.1 144.55 36.65 145.9 M35.25 135.2 L18.85 135.2 M21.85 102.05 L18.85 102.85 M18.85 152.25 L-0.1 151.3 -19.05 152.25 -19.05 164.6 -0.1 163.55 18.85 164.6 18.85 152.25 18.85 143.9 M18.85 152.25 Q27.85 153.35 35.85 155.8 M-19.05 164.6 L-19.05 178.55 -0.1 177.55 18.85 178.55 18.85 164.6 Q26.1 165.65 33.05 167.7 M-19.05 178.55 L-19.05 189.25 -0.1 188.7 18.85 189.25 18.85 178.55 Q27.1 179.6 35.2 181.8 M18.85 189.25 Q34.9 190.45 50.2 194.45 M274.8 141.15 Q214.25 120.55 153.7 126.55 150.35 134.65 148.05 142.25 215.4 136.45 274.8 162.35 M155.1 123.3 L153.7 126.55 136.8 128.75 M117.65 141.15 Q116.8 143.9 116.25 146.65 132.35 143.6 148.05 142.25 145.4 150.95 144.25 158.95 204.5 160.05 274.8 194.35 M83.15 85.35 Q89.95 86.05 96.3 102.2 101.5 115.35 115.3 124.5 M120.7 188.35 Q132.85 187.55 145.6 188.7 143.65 181.8 143.4 174.15 L116.65 175.4 Q118.05 181.8 120.7 188.35 122.45 192.8 124.8 197.3 136.75 196.65 149.45 198.6 147.05 193.85 145.6 188.7 204.2 193.95 274.8 240.1 M98.05 191.55 Q109.1 189.05 120.7 188.35 M143.4 174.15 Q143.1 166.9 144.25 158.95 129.25 158.7 114.9 160.5 114.95 167.85 116.65 175.4 109.7 176.25 102.85 177.65 M114.9 160.5 Q106.9 161.45 99.1 163.1 M116.25 146.65 Q114.8 153.45 114.9 160.5 M90.75 152.5 Q103.65 149.05 116.25 146.65 M128.75 61.4 Q100.85 50.35 72.95 54.35 M127.15 47.2 Q84.6 34.6 70.8 38.3 M101.95 85.0 Q87.3 71.1 78.9 72.05 M77.55 5.75 L100.35 11.0 M137.8 217.75 Q143.0 223.8 147.3 231.0 163.6 236.6 180.4 246.4 175.1 232.2 168.5 222.75 150.0 215.15 133.8 212.2 L137.8 217.75 M147.3 231.0 Q151.0 237.2 154.0 244.25 171.1 252.35 186.5 266.25 183.7 255.35 180.4 246.4 208.0 262.5 236.95 290.0 M147.3 231.0 Q130.0 225.05 113.3 223.85 119.4 229.5 127.6 234.9 L128.45 235.55 Q141.65 238.4 154.0 244.25 158.35 254.55 161.25 266.7 172.05 276.4 182.25 290.0 M274.8 263.4 Q205.0 206.9 149.45 198.6 153.55 206.65 160.35 213.4 164.65 217.3 168.5 222.75 214.6 241.75 274.8 290.0 M128.45 235.55 L129.1 236.1 Q134.45 240.8 137.85 250.4 149.85 256.4 161.25 266.7 163.8 277.6 165.15 290.0 M133.8 212.2 Q116.9 209.15 102.5 211.2 106.65 217.65 113.3 223.85 L102.15 223.55 M133.8 212.2 Q128.55 204.65 124.8 197.3 110.85 198.0 97.95 202.15 99.6 206.75 102.5 211.2 97.8 211.85 93.35 213.05 M95.0 203.15 L97.95 202.15 Q97.05 199.7 96.5 197.25 M100.45 264.65 L100.45 290.0 M117.95 264.65 L117.95 292.9 M73.25 256.8 Q51.2 264.95 18.85 267.3 L18.85 275.6 Q61.35 273.2 85.6 264.65 91.0 276.45 90.9 290.0 M159.8 290.0 Q151.85 275.85 141.75 266.85 143.25 276.95 143.6 290.0 M137.85 250.4 Q140.3 257.35 141.75 266.85 136.3 262.05 130.3 258.75 M129.1 246.6 Q133.5 248.2 137.85 250.4 M113.75 233.35 Q121.25 234.0 128.45 235.55 M18.85 189.25 L18.85 199.0 Q37.55 200.1 56.3 204.35 L56.1 201.15 M18.85 199.0 L18.85 206.9 Q38.5 208.0 56.85 212.7 L56.3 204.35 57.55 204.65 M57.25 219.25 L56.85 212.7 58.3 213.05 M18.85 206.9 Q9.55 206.35 -0.1 206.65 -9.75 206.35 -19.05 206.9 L-19.05 244.8 -0.1 246.15 18.85 244.8 18.85 206.9 M18.85 255.4 L-0.1 256.6 -19.05 255.4 -19.05 267.3 -0.1 268.1 18.85 267.3 18.85 255.4 18.85 244.8 Q41.0 241.95 60.25 233.25 M18.85 290.0 L18.85 275.6 -0.1 276.35 -19.05 275.6 -19.05 290.0 M65.9 244.0 Q44.9 252.65 18.85 255.4 M208.25 290.0 Q197.85 276.55 186.5 266.25 189.25 277.2 191.5 290.0 M143.4 174.15 Q204.95 175.75 274.8 218.1 M-133.25 -260.0 Q-144.15 -231.85 -152.45 -201.55 -145.25 -199.4 -137.9 -197.55 -129.9 -230.3 -118.15 -260.0 M-170.65 -108.55 L-171.2 -108.8 -171.45 -107.2 M-150.6 -126.8 L-149.95 -132.1 Q-157.75 -136.7 -166.25 -140.25 -169.05 -124.8 -171.2 -108.8 -225.05 -134.05 -275.0 -128.0 M-166.25 -140.25 Q-210.7 -158.75 -275.0 -150.0 M-275.0 -84.95 Q-225.35 -84.5 -183.0 -54.95 M-275.0 -109.0 Q-218.6 -105.6 -181.6 -82.8 M-189.9 -5.45 Q-233.5 -23.95 -275.0 -29.85 M-178.45 -27.6 Q-227.85 -56.4 -275.0 -62.95 M-24.3 -170.2 L-39.6 -169.5 -39.6 -160.9 M-23.4 -185.0 Q-31.55 -184.75 -39.6 -184.8 L-39.6 -169.5 Q-57.5 -169.05 -76.45 -170.3 L-76.7 -153.7 M-39.6 -184.8 L-76.0 -186.7 -76.45 -170.3 -101.4 -172.7 -102.4 -153.05 Q-98.8 -150.75 -95.55 -148.2 M-119.05 -193.2 L-122.15 -175.65 -101.4 -172.7 -100.1 -189.75 Q-109.65 -191.25 -119.05 -193.2 -128.55 -195.15 -137.9 -197.55 -140.15 -188.55 -142.05 -179.25 L-122.15 -175.65 -124.0 -163.45 Q-111.9 -159.05 -102.4 -153.05 L-102.7 -145.6 M-159.8 -172.25 L-144.05 -169.3 -142.05 -179.25 -157.4 -182.5 -159.8 -172.25 Q-205.8 -179.2 -275.0 -172.2 M-144.05 -169.3 Q-133.25 -166.85 -124.0 -163.45 -125.85 -150.35 -127.15 -137.0 M-145.8 -129.6 L-149.95 -132.1 Q-147.55 -151.15 -144.05 -169.3 M-94.05 -8.55 L-105.3 -13.35 M-76.0 -186.7 L-100.1 -189.75 Q-96.95 -227.05 -90.5 -260.0 M-39.6 -260.0 L-39.6 -184.8 M-20.25 -260.0 L-20.25 -188.6 M-8.05 -260.0 L-8.05 -195.1 M-159.8 -172.25 Q-163.35 -156.5 -166.25 -140.25 M-152.45 -201.55 L-157.4 -182.5 Q-212.6 -195.0 -275.0 -219.2 M-152.45 -201.55 Q-215.8 -220.3 -275.0 -260.0 M-102.05 -260.0 Q-112.5 -227.3 -119.05 -193.2 M-70.85 -260.0 Q-74.65 -224.6 -76.0 -186.7 M-113.9 30.75 Q-101.25 30.7 -94.1 26.5 -86.95 22.3 -71.0 22.15 M-117.85 141.15 Q-117.0 143.9 -116.45 146.65 -103.85 149.05 -90.95 152.5 M-83.35 85.35 Q-90.15 86.05 -96.5 102.2 -101.7 115.35 -115.5 124.5 M-137.0 128.75 L-153.9 126.55 Q-150.55 134.65 -148.25 142.25 -132.55 143.6 -116.45 146.65 -115.0 153.45 -115.05 160.5 -107.1 161.45 -99.3 163.1 M-155.3 123.3 L-153.9 126.55 Q-214.45 120.55 -275.0 141.15 M-145.8 188.7 Q-133.05 187.55 -120.85 188.35 -118.25 181.8 -116.8 175.4 L-143.55 174.15 Q-143.85 181.8 -145.8 188.7 -147.25 193.85 -149.65 198.6 -136.95 196.7 -124.95 197.3 -122.65 192.8 -120.85 188.35 -109.3 189.05 -98.25 191.55 M-116.8 175.4 Q-115.15 167.85 -115.05 160.5 -129.45 158.7 -144.45 158.95 -143.3 166.9 -143.55 174.15 -205.15 175.75 -275.0 218.1 M-103.05 177.65 L-116.8 175.4 M-148.25 142.25 Q-145.6 150.95 -144.45 158.95 -204.7 160.05 -275.0 194.35 M-32.15 123.55 L-19.05 124.75 -19.05 115.4 Q-23.6 114.55 -28.0 113.3 M-19.05 102.85 L-22.05 102.05 M-36.85 145.9 L-19.05 143.9 -19.05 152.25 Q-28.05 153.35 -36.05 155.8 M-35.4 181.8 Q-27.3 179.6 -19.05 178.55 M-33.25 167.7 Q-26.3 165.65 -19.05 164.6 M-50.4 194.45 Q-35.1 190.45 -19.05 189.25 L-19.05 199.0 Q-9.55 198.45 -0.1 198.75 9.35 198.45 18.85 199.0 M-19.05 102.85 L-19.05 98.1 M-77.75 5.75 L-100.55 11.0 M-102.15 85.0 Q-87.5 71.1 -79.1 72.05 M-127.35 47.2 Q-84.8 34.6 -71.0 38.3 M-128.95 61.4 Q-101.05 50.35 -73.15 54.35 M-191.6 23.75 L-275.0 7.25 M-188.95 47.7 Q-238.25 36.8 -275.0 40.4 M-186.3 71.7 Q-234.95 67.45 -275.0 71.75 M-174.05 104.25 Q-225.3 101.35 -275.0 111.3 M-180.55 246.4 Q-163.8 236.6 -147.5 231.0 -143.2 223.8 -138.0 217.75 L-133.95 212.2 Q-150.2 215.15 -168.65 222.75 -175.3 232.2 -180.55 246.4 -183.9 255.35 -186.65 266.3 -171.3 252.35 -154.15 244.25 -151.2 237.2 -147.5 231.0 -130.2 225.05 -113.5 223.85 -106.85 217.65 -102.65 211.2 -117.1 209.15 -133.95 212.2 -128.75 204.65 -124.95 197.3 -111.05 198.0 -98.15 202.15 -97.25 199.7 -96.7 197.25 M-186.65 266.3 Q-189.45 277.2 -191.7 290.0 M-186.65 266.3 Q-198.05 276.55 -208.45 290.0 M-180.55 246.4 Q-208.2 262.5 -237.15 290.0 M-168.65 222.75 Q-214.8 241.75 -275.0 290.0 M-19.05 199.0 Q-37.75 200.1 -56.5 204.35 L-57.0 212.7 Q-38.7 208.0 -19.05 206.9 L-19.05 199.0 M-57.75 204.65 L-56.5 204.35 -56.3 201.15 M-57.45 219.25 L-57.0 212.7 -58.5 213.05 M-91.1 290.0 Q-91.2 276.45 -85.8 264.65 -61.55 273.2 -19.05 275.6 L-19.05 267.3 Q-51.4 264.95 -73.45 256.8 M-66.1 244.0 Q-45.1 252.65 -19.05 255.4 L-19.05 244.8 Q-41.2 241.95 -60.45 233.25 M-102.35 223.55 L-113.5 223.85 Q-119.6 229.5 -127.8 234.9 L-128.65 235.55 Q-121.45 234.0 -113.95 233.35 M-95.2 203.15 L-98.15 202.15 Q-99.8 206.75 -102.65 211.2 -98.0 211.85 -93.55 213.05 M-149.65 198.6 Q-153.75 206.65 -160.55 213.4 -164.85 217.3 -168.65 222.75 M-154.15 244.25 Q-158.55 254.55 -161.4 266.7 -150.05 256.4 -138.0 250.4 -134.65 240.8 -129.3 236.1 L-128.65 235.55 Q-141.85 238.4 -154.15 244.25 M-130.5 258.75 Q-136.5 262.05 -141.9 266.85 -143.45 276.95 -143.8 290.0 M-129.3 246.6 Q-133.7 248.2 -138.0 250.4 -140.5 257.35 -141.9 266.85 -152.05 275.85 -160.0 290.0 M-118.15 264.65 L-118.15 292.9 M-100.65 264.65 L-100.65 290.0 M-148.25 142.25 Q-215.6 136.45 -275.0 162.35 M-145.8 188.7 Q-204.4 193.95 -275.0 240.1 M-149.65 198.6 Q-205.2 206.9 -275.0 263.4 M-161.4 266.7 Q-164.0 277.6 -165.35 290.0 M-161.4 266.7 Q-172.25 276.4 -182.45 290.0" fill="none" stroke="#000000" stroke-linecap="round" stroke-linejoin="round" stroke-opacity="0.2509804" stroke-width="1.0"/>
    <path d="M95.45 -148.2 Q87.3 -138.3 75.95 -130.8 75.2 -115.45 73.5 -98.8 88.7 -102.65 102.65 -107.95 103.6 -126.65 102.5 -145.6 M126.95 -137.0 Q128.7 -128.45 129.45 -120.0 137.85 -124.5 145.7 -129.6 M102.65 -107.95 Q116.7 -113.25 129.45 -120.0 130.9 -102.55 127.75 -85.75 140.55 -91.05 152.5 -97.6 152.15 -112.35 150.4 -126.8 M-8.05 -195.1 L-8.05 -187.4 -0.05 -187.65 7.85 -187.4 7.85 -195.1 M7.85 -187.4 L20.05 -185.75 20.05 -188.6 M7.85 -157.0 L20.05 -155.5 20.05 -171.15 7.85 -172.9 7.85 -157.0 -0.05 -157.35 -8.05 -157.0 -8.05 -142.2 -0.05 -142.55 7.85 -142.2 7.85 -157.0 M20.05 -185.75 L23.3 -185.0 M24.2 -170.2 L20.05 -171.15 20.05 -185.75 M20.05 -155.5 L22.7 -154.95 M-8.05 -187.4 L-8.05 -172.9 -0.05 -173.3 7.85 -172.9 7.85 -187.4 M-14.0 -135.15 L-14.9 -135.4 Q-16.4 -123.1 -17.35 -110.3 L-0.05 -108.35 17.2 -110.3 Q16.2 -123.1 14.75 -135.35 L13.9 -135.15 M17.2 -110.3 Q30.1 -112.25 41.4 -115.45 41.25 -130.9 40.45 -145.7 30.05 -139.35 14.75 -135.35 L14.65 -136.0 M7.85 -129.25 L7.85 -142.2 Q13.25 -141.65 18.8 -140.15 M41.4 -115.45 Q61.3 -121.15 75.95 -130.8 76.5 -142.65 76.5 -153.7 M20.05 -141.35 L20.05 -155.5 M51.7 -154.8 Q47.05 -149.75 40.45 -145.7 L39.4 -160.9 M41.4 -115.45 L41.2 -92.45 Q58.0 -94.9 73.5 -98.8 71.95 -84.35 69.7 -68.85 85.05 -71.65 99.5 -75.85 101.85 -91.8 102.65 -107.95 M40.1 -64.85 L18.9 -63.5 18.85 -53.85 18.85 -44.35 38.5 -42.85 39.3 -52.45 40.1 -64.85 Q40.9 -78.9 41.2 -92.45 L18.35 -89.9 Q18.85 -76.95 18.9 -63.5 9.55 -63.15 -0.05 -63.25 -9.7 -63.15 -19.1 -63.5 L-19.05 -53.85 -19.05 -44.3 Q-9.55 -44.8 -0.05 -44.7 9.4 -44.8 18.85 -44.35 L18.85 -23.75 37.3 -21.7 Q37.7 -32.35 38.5 -42.85 51.75 -41.5 65.0 -39.1 L66.0 -46.1 Q68.05 -57.75 69.7 -68.85 55.3 -66.25 40.1 -64.85 M18.85 -23.75 L18.85 -0.7 36.75 0.65 Q36.8 -10.55 37.3 -21.7 50.1 -20.0 61.85 -17.5 L65.0 -39.1 Q79.85 -36.45 94.7 -32.5 M170.55 -108.55 Q161.8 -102.7 152.5 -97.6 152.9 -81.75 151.75 -65.55 164.45 -71.2 175.85 -78.8 174.95 -93.0 171.25 -107.2 M105.8 -52.3 Q112.95 -53.4 119.8 -55.0 L121.15 -62.55 Q125.55 -74.0 127.75 -85.75 114.1 -80.1 99.5 -75.85 96.95 -58.45 92.55 -41.25 M105.2 -13.35 L118.15 -12.5 Q117.5 -19.35 117.5 -26.4 108.15 -24.85 98.2 -24.25 M145.8 -21.5 L147.75 -15.7 Q161.6 -18.95 174.65 -25.6 L171.95 -35.1 Q173.6 -41.95 174.6 -48.8 162.3 -40.4 148.2 -34.8 L145.8 -21.5 M148.2 -34.8 Q150.65 -50.35 151.75 -65.55 136.7 -58.9 119.8 -55.0 117.45 -40.25 117.5 -26.4 133.75 -29.15 148.2 -34.8 M118.15 -12.5 Q133.4 -12.3 147.75 -15.7 151.05 -5.1 152.9 6.25 167.1 3.4 179.35 -1.1 177.8 -13.3 174.65 -25.6 L178.35 -27.6 M-17.35 -110.3 L-18.55 -89.9 -0.05 -88.8 18.35 -89.9 17.2 -110.3 M61.85 -17.5 Q79.05 -13.85 93.95 -8.55 M175.85 -78.8 L181.5 -82.8 M189.8 -5.45 Q184.75 -3.1 179.35 -1.1 181.1 12.45 180.85 25.85 L191.5 23.75 M182.9 -54.95 Q178.85 -51.7 174.6 -48.8 176.8 -63.8 175.85 -78.8 M186.2 71.7 Q180.0 71.95 173.8 71.65 L162.7 104.4 173.95 104.25 M174.95 68.15 Q177.4 58.85 178.85 49.5 L154.7 50.35 Q154.15 58.45 153.05 66.85 L152.4 68.7 Q163.05 71.05 173.8 71.65 L174.95 68.15 M178.85 49.5 Q180.6 37.75 180.85 25.85 168.55 27.95 155.1 29.2 155.4 39.5 154.7 50.35 142.35 49.8 128.45 47.4 L129.0 50.55 M178.85 49.5 L188.85 47.7 M127.25 47.2 L128.45 47.4 125.45 30.7 113.8 30.75 M121.75 10.3 L125.45 30.7 155.1 29.2 Q154.7 17.35 152.9 6.25 138.35 9.15 121.75 10.3 L120.35 2.6 Q118.85 -4.8 118.15 -12.5 M102.05 85.0 L112.4 92.4 Q124.25 99.25 140.15 102.2 L152.4 68.7 Q140.6 66.1 128.85 61.4 L112.25 82.4 M100.45 11.0 L121.75 10.3 M77.65 5.75 L58.9 3.05 56.8 17.3 57.1 22.15 70.9 22.15 M57.1 22.15 L58.2 40.5 70.9 38.3 M18.85 22.15 L-19.05 22.15 -19.05 44.35 -5.2 44.7 -0.05 44.65 Q9.4 44.75 18.85 44.35 L18.85 22.15 18.85 -0.7 -0.05 -1.55 -19.05 -0.7 -19.05 22.15 -37.1 22.15 -37.55 34.1 -38.0 43.05 -19.05 44.35 -19.05 64.25 -5.2 65.05 -0.05 65.2 18.85 64.25 18.85 44.35 37.8 43.05 Q37.2 32.55 36.95 22.15 L18.85 22.15 M36.95 22.15 Q36.65 11.35 36.75 0.65 L58.9 3.05 61.85 -17.5 M18.85 98.1 L18.85 64.25 39.15 61.85 37.8 43.05 58.2 40.5 59.25 58.0 73.05 54.35 M40.4 74.85 L42.75 81.2 64.85 75.65 Q62.2 66.7 59.25 58.05 L59.25 58.0 Q49.4 60.3 39.15 61.85 L40.4 74.85 M21.95 102.05 Q34.35 98.1 47.2 94.5 L42.75 81.2 28.85 84.7 M79.0 72.05 L64.85 75.65 68.55 88.9 83.25 85.35 M47.2 94.5 Q57.7 91.55 68.55 88.9 L72.0 102.95 87.25 100.1 M57.1 22.15 L36.95 22.15 M72.0 102.95 L51.05 107.45 54.5 120.4 74.95 116.55 72.0 102.95 M60.0 146.25 Q70.35 145.6 79.65 143.45 L77.5 130.2 Q67.85 132.4 57.5 133.65 L60.0 146.25 61.95 158.0 Q72.25 157.75 81.3 155.55 L79.65 143.45 Q85.9 142.0 91.65 139.85 M77.5 130.2 L74.95 116.55 89.7 113.0 M54.5 120.4 L57.5 133.65 35.35 135.2 M36.75 145.9 L39.65 146.15 35.75 137.45 M61.95 158.0 L62.7 163.0 64.35 169.9 Q73.3 169.4 82.25 167.65 L82.2 163.3 82.05 161.95 81.3 155.55 Q86.25 154.3 90.85 152.5 M33.15 167.7 Q40.8 169.2 48.5 169.75 L44.05 157.05 35.95 155.8 M50.3 194.45 L54.95 194.85 52.45 183.7 35.3 181.8 M70.4 195.3 L82.4 194.5 82.35 182.25 67.65 183.75 70.4 195.3 73.15 206.65 82.5 206.15 82.4 194.5 Q90.0 193.6 97.05 191.85 97.55 185.65 97.35 179.2 89.85 181.1 82.35 182.25 L82.25 167.65 Q89.1 166.25 96.0 164.15 L94.95 157.8 M64.35 169.9 Q56.4 170.3 48.5 169.75 50.7 176.7 52.45 183.7 60.05 184.1 67.65 183.75 L64.35 169.9 M70.4 195.3 L54.95 194.85 56.1 201.15 M60.0 146.25 Q50.3 146.85 39.65 146.15 L44.05 157.05 61.95 158.0 M32.05 123.55 L54.5 120.4 M27.9 113.3 Q39.2 110.15 51.05 107.45 L47.2 94.5 M155.1 123.3 L159.3 114.35 162.7 104.4 Q150.55 104.1 140.15 102.2 L134.4 117.95 126.5 128.9 Q131.3 129.55 136.9 128.75 M96.0 164.15 L99.2 163.1 M96.5 197.25 L97.05 191.85 98.15 191.55 M96.0 164.15 Q97.15 171.8 97.35 179.2 L102.95 177.65 M117.65 141.15 L126.5 128.9 Q120.25 128.0 115.4 124.5 M77.5 130.2 Q84.6 128.55 91.25 126.4 M82.5 206.15 Q89.0 205.35 95.1 203.15 M82.5 206.15 L82.5 210.85 84.1 216.25 Q89.0 215.3 93.45 213.05 M84.1 216.25 L74.25 216.8 74.25 220.55 78.75 226.3 Q84.2 225.0 90.3 224.35 L84.95 219.1 84.1 216.25 M102.25 223.55 L90.3 224.35 99.1 233.0 Q106.6 232.3 113.85 233.35 M85.95 235.55 Q77.9 237.85 69.6 242.1 L78.3 254.35 Q87.4 249.95 95.65 247.5 L93.2 244.85 85.95 235.55 78.75 226.3 Q69.9 228.35 62.75 232.0 L63.2 233.1 69.6 242.1 66.0 244.0 M85.95 235.55 Q92.6 233.6 99.1 233.0 L109.7 243.4 111.35 244.55 Q121.05 243.9 129.2 246.6 M100.45 264.65 Q100.6 261.55 100.25 258.8 93.4 260.9 85.7 264.65 L78.3 254.35 Q75.85 255.5 73.35 256.8 M100.25 258.8 Q109.9 255.8 117.95 256.05 116.8 248.75 111.35 244.55 103.95 245.05 95.65 247.5 99.4 252.3 100.25 258.8 M117.95 264.65 Q118.55 259.9 117.95 256.05 124.75 256.2 130.4 258.75 M73.15 206.65 L74.25 211.35 74.25 216.8 Q66.75 216.3 58.4 213.05 M60.35 233.25 Q61.5 232.6 62.75 232.0 L57.25 219.25 M73.15 206.65 Q65.65 206.5 57.65 204.65 M-183.0 -54.95 L-174.8 -48.85 Q-177.0 -63.9 -176.0 -78.9 -178.85 -80.8 -181.6 -82.8 M-191.6 23.75 L-181.05 25.85 Q-181.3 12.4 -179.55 -1.15 -184.9 -3.15 -189.9 -5.45 M-179.55 -1.15 Q-167.3 3.4 -153.05 6.25 -151.25 -5.15 -147.95 -15.7 -161.8 -19.0 -174.8 -25.65 -178.0 -13.35 -179.55 -1.15 M-178.45 -27.6 L-174.8 -25.65 -172.15 -35.1 Q-173.8 -42.0 -174.8 -48.85 -162.5 -40.45 -148.35 -34.85 -150.85 -50.4 -151.95 -65.6 -164.65 -71.25 -176.0 -78.9 -175.15 -93.05 -171.45 -107.2 M-23.4 -185.0 L-20.25 -185.7 -20.25 -188.6 M-8.05 -187.4 Q-14.35 -186.95 -20.25 -185.7 L-20.25 -171.15 Q-14.4 -172.4 -8.05 -172.9 L-8.05 -157.0 -20.25 -155.45 -20.25 -141.35 M-22.8 -154.95 L-20.25 -155.45 -20.25 -171.15 -24.3 -170.2 M-76.7 -153.7 Q-76.75 -142.7 -76.15 -130.9 -61.5 -121.2 -41.55 -115.45 -41.45 -130.95 -40.6 -145.75 -47.2 -149.8 -51.8 -154.8 M-18.9 -140.15 Q-13.4 -141.65 -8.05 -142.2 L-8.05 -129.25 M-39.6 -160.9 L-40.6 -145.75 Q-30.25 -139.4 -14.9 -135.4 L-14.85 -136.0 M-41.55 -115.45 Q-30.3 -112.25 -17.35 -110.3 M-145.8 -129.6 Q-138.0 -124.55 -129.6 -120.05 -128.9 -128.45 -127.15 -137.0 M-102.7 -145.6 Q-103.8 -126.7 -102.85 -108.0 -96.3 -105.5 -89.45 -103.3 -81.75 -100.9 -73.65 -98.85 -75.45 -115.5 -76.15 -130.9 -83.45 -135.75 -89.45 -141.55 -92.7 -144.75 -95.55 -148.2 M-129.6 -120.05 Q-116.9 -113.3 -102.85 -108.0 -102.05 -91.85 -99.7 -75.85 L-89.45 -73.1 Q-79.85 -70.7 -69.85 -68.85 -72.15 -84.35 -73.65 -98.85 -58.2 -94.9 -41.4 -92.45 L-41.55 -115.45 M-92.75 -41.25 Q-97.15 -58.45 -99.7 -75.85 -114.3 -80.1 -127.95 -85.8 -125.75 -74.0 -121.35 -62.55 L-120.0 -55.0 -105.9 -52.3 M-127.95 -85.8 Q-140.75 -91.1 -152.7 -97.65 -153.1 -81.8 -151.95 -65.6 -136.9 -58.95 -120.0 -55.0 -117.65 -40.25 -117.65 -26.4 -108.3 -24.85 -98.3 -24.25 M-146.0 -21.5 L-147.95 -15.7 Q-133.6 -12.3 -118.3 -12.5 -117.7 -19.35 -117.65 -26.4 -134.0 -29.15 -148.35 -34.85 L-146.0 -21.5 M-105.3 -13.35 L-118.3 -12.5 Q-119.05 -4.8 -120.55 2.6 L-121.9 10.3 -100.55 11.0 M-94.05 -8.55 L-89.45 -10.1 Q-76.55 -14.4 -62.05 -17.45 L-65.15 -39.1 Q-77.3 -36.9 -89.45 -33.85 L-94.8 -32.5 M-40.3 -64.85 Q-55.5 -66.25 -69.85 -68.85 L-66.2 -46.1 -65.15 -39.1 Q-51.95 -41.5 -38.7 -42.85 L-39.5 -52.45 -40.3 -64.85 Q-41.1 -78.9 -41.4 -92.45 -30.25 -90.85 -18.55 -89.9 -19.1 -76.95 -19.1 -63.5 L-40.3 -64.85 M18.85 -23.75 L-0.05 -25.05 -19.05 -23.75 -19.05 -0.7 -36.9 0.65 Q-36.85 11.35 -37.1 22.15 L-57.3 22.15 -58.4 40.5 -38.0 43.05 -39.35 61.85 -19.05 64.25 -19.05 98.1 M-38.7 -42.85 Q-37.9 -32.3 -37.45 -21.7 L-19.05 -23.75 -19.05 -44.3 -38.7 -42.85 M-62.05 -17.45 L-59.05 3.05 -36.9 0.65 Q-37.0 -10.55 -37.45 -21.7 -50.3 -20.0 -62.05 -17.45 M-129.6 -120.05 Q-131.1 -102.65 -127.95 -85.8 M-150.6 -126.8 Q-152.3 -112.35 -152.7 -97.65 -161.95 -102.75 -170.65 -108.55 M-71.0 22.15 L-57.3 22.15 -57.0 17.3 -59.05 3.05 -77.75 5.75 M-71.0 38.3 L-58.4 40.5 -59.45 58.0 Q-49.6 60.3 -39.35 61.85 -39.9 68.35 -40.6 74.85 L-42.9 81.2 -28.95 84.7 M-79.1 72.05 L-65.0 75.6 Q-62.4 66.7 -59.45 58.05 L-59.45 58.0 -73.15 54.35 M-83.35 85.35 L-68.7 88.85 -65.0 75.6 -42.9 81.2 -47.35 94.5 Q-34.5 98.1 -22.05 102.05 M-68.7 88.85 Q-57.9 91.55 -47.35 94.5 L-51.25 107.4 Q-39.35 110.15 -28.0 113.3 M-125.6 30.7 L-155.25 29.2 -155.35 34.1 -155.35 39.55 -154.9 50.4 Q-142.55 49.85 -128.6 47.45 L-125.6 30.7 -121.9 10.3 Q-138.55 9.15 -153.05 6.25 -154.9 17.35 -155.25 29.2 -168.75 27.95 -181.05 25.85 L-180.7 34.1 -180.25 39.55 -179.0 49.5 -154.9 50.4 Q-154.35 58.45 -153.25 66.85 L-152.55 68.75 Q-140.75 66.15 -128.95 61.4 L-112.45 82.4 M-127.35 47.2 L-128.6 47.45 -129.2 50.55 M-152.55 68.75 L-140.35 102.2 Q-124.4 99.25 -112.5 92.4 L-102.15 85.0 M-125.6 30.7 L-113.9 30.75 M-137.0 128.75 Q-131.45 129.55 -126.7 128.9 L-134.6 117.95 -140.35 102.2 Q-150.75 104.15 -162.85 104.4 L-159.5 114.35 -155.3 123.3 M-95.15 157.8 L-96.2 164.1 Q-89.3 166.25 -82.4 167.65 L-82.4 163.3 -82.25 161.95 -81.45 155.55 Q-86.4 154.3 -90.95 152.5 M-103.05 177.65 L-97.55 179.2 Q-97.35 171.8 -96.2 164.1 L-99.3 163.1 M-97.25 191.8 Q-90.25 193.6 -82.6 194.45 L-82.5 182.25 Q-90.05 181.1 -97.55 179.2 -97.75 185.6 -97.25 191.8 L-98.25 191.55 M-96.7 197.25 L-97.25 191.8 M-82.5 182.25 L-67.8 183.7 -64.55 169.9 Q-73.5 169.4 -82.4 167.65 L-82.5 182.25 M-115.5 124.5 Q-120.35 128.0 -126.7 128.9 L-117.85 141.15 M-35.45 135.2 L-57.7 133.65 -60.15 146.25 Q-50.5 146.85 -39.85 146.15 L-35.95 137.45 M-36.85 145.9 L-39.85 146.15 -44.25 157.05 -36.05 155.8 M-51.25 107.4 Q-61.55 105.0 -72.2 102.95 L-75.15 116.55 Q-65.4 118.65 -54.65 120.4 L-51.25 107.4 M-91.75 139.85 Q-86.05 141.95 -79.8 143.4 L-77.7 130.15 Q-84.7 128.55 -91.35 126.4 M-75.15 116.55 L-77.7 130.15 Q-68.05 132.4 -57.7 133.65 L-54.65 120.4 -32.15 123.55 M-79.8 143.4 Q-70.55 145.55 -60.15 146.25 L-62.15 158.0 -44.25 157.05 Q-46.65 163.4 -48.65 169.75 -40.95 169.2 -33.25 167.7 M-62.15 158.0 L-62.9 163.0 -64.55 169.9 Q-56.6 170.35 -48.65 169.75 -50.9 176.7 -52.6 183.7 L-35.4 181.8 M-82.6 194.45 L-70.6 195.3 -67.8 183.7 Q-60.25 184.05 -52.6 183.7 L-55.15 194.9 -50.4 194.45 M-56.3 201.15 L-55.15 194.9 Q-63.15 195.45 -70.6 195.3 L-73.3 206.65 Q-65.8 206.5 -57.75 204.65 M-87.35 100.1 L-72.2 102.95 -68.7 88.85 M-89.8 113.0 L-75.15 116.55 M-62.15 158.0 Q-72.45 157.75 -81.45 155.55 L-79.8 143.4 M-186.3 71.7 Q-180.15 71.95 -173.95 71.65 L-175.15 68.15 Q-177.6 58.85 -179.0 49.5 L-188.95 47.7 M-174.05 104.25 L-162.85 104.4 -173.95 71.65 Q-163.25 71.05 -152.55 68.75 M-74.45 211.35 L-73.3 206.65 -82.65 206.15 -82.7 210.85 -84.3 216.25 -74.45 216.85 -74.45 211.35 M-58.5 213.05 Q-66.9 216.3 -74.45 216.85 L-74.45 220.55 -78.9 226.3 Q-70.05 228.35 -62.9 231.95 L-57.45 219.25 M-60.45 233.25 L-62.9 231.95 -63.4 233.1 -69.75 242.05 -66.1 244.0 M-73.45 256.8 L-78.45 254.3 -85.8 264.65 Q-93.55 260.9 -100.4 258.75 -100.8 261.55 -100.65 264.65 M-69.75 242.05 Q-78.05 237.8 -86.1 235.5 L-93.4 244.85 -95.8 247.5 Q-87.55 249.9 -78.45 254.3 L-69.75 242.05 M-93.55 213.05 Q-89.15 215.3 -84.3 216.25 L-85.15 219.1 -90.45 224.35 Q-84.4 225.0 -78.9 226.3 L-86.1 235.5 Q-92.8 233.55 -99.25 233.0 L-109.9 243.4 -111.5 244.55 Q-104.1 245.0 -95.8 247.5 -99.55 252.25 -100.4 258.75 -110.1 255.75 -118.15 256.05 -118.75 259.9 -118.15 264.65 M-82.65 206.15 Q-89.15 205.35 -95.2 203.15 M-90.45 224.35 L-99.25 233.0 Q-106.75 232.3 -113.95 233.35 M-102.35 223.55 L-90.45 224.35 M-129.3 246.6 Q-121.15 243.9 -111.5 244.55 -117.0 248.75 -118.15 256.05 -124.9 256.25 -130.5 258.75 M-82.65 206.15 L-82.6 194.45" fill="none" stroke="#000000" stroke-linecap="round" stroke-linejoin="round" stroke-opacity="0.2509804" stroke-width="1.0"/>
  </g>
</svg>
