<?xml version="1.0" encoding="UTF-8" standalone="no"?>
<svg xmlns:xlink="http://www.w3.org/1999/xlink" height="251.75px" width="222.55px" xmlns="http://www.w3.org/2000/svg">
  <g transform="matrix(1.0, 0.0, 0.0, 1.0, -288.6, -322.95)">
    <path d="M352.15 431.45 Q350.15 501.55 328.2 517.1 M376.7 351.1 L373.75 362.9 Q372.45 367.65 371.9 372.55 L371.15 377.3 369.9 384.1 Q368.75 384.1 368.15 383.6 367.25 383.7 366.9 384.5 366.55 385.5 366.35 386.55 L365.75 389.4 Q364.65 393.45 364.85 397.8 364.9 399.3 363.75 398.9 M423.1 351.1 Q424.4 356.95 426.05 362.9 427.35 367.65 427.9 372.55 L428.6 377.3 429.9 384.1 Q431.05 384.1 431.65 383.6 432.55 383.7 432.85 384.5 L433.4 386.55 434.05 389.4 Q435.15 393.45 434.95 397.8 434.85 399.3 436.05 398.9 M302.9 533.4 L304.65 533.15 Q310.75 532.15 314.35 529.4 L316.6 527.1 M293.45 542.5 Q296.15 534.75 300.35 534.45 M506.35 542.5 Q503.65 534.75 499.45 534.45 M310.7 549.35 L314.4 547.25 Q315.1 547.45 315.35 548.4 L315.7 549.7 316.75 552.4 Q317.65 554.6 320.0 554.45 321.9 554.25 323.6 553.65 L324.85 553.2 325.9 553.0 Q328.3 552.65 330.7 552.95 L332.4 555.3 Q332.8 555.9 333.8 555.85 L340.85 555.15 349.05 553.65 355.7 552.6 Q356.55 552.65 356.9 553.1 L357.3 554.35 Q357.55 556.65 358.25 558.75 358.55 559.75 359.85 560.5 360.7 561.0 361.75 561.0 L364.85 564.0 366.7 565.95 367.95 567.1 Q368.15 565.25 369.3 563.6 L371.85 560.5 375.1 556.95 377.8 554.35 381.2 551.55 383.4 549.9 Q384.35 549.2 385.4 549.1 387.05 548.15 387.75 546.95 L390.0 542.5 391.0 540.65 391.6 539.7 M496.9 533.4 L495.15 533.15 Q488.9 532.1 485.3 529.25 L483.2 527.1 M447.65 431.45 Q449.65 501.55 471.6 517.1 M425.1 392.2 L425.5 404.65 Q425.55 408.9 425.2 413.05 424.65 419.25 424.55 425.5 L424.5 428.65 422.9 427.9 421.45 427.35 Q420.9 427.55 420.5 428.75 421.15 429.45 420.75 429.85 421.15 432.2 421.15 434.2 421.15 437.9 420.1 441.1 L419.15 442.3 Q417.85 442.65 417.4 444.55 418.35 445.15 418.35 445.75 L418.35 467.85 418.35 471.55 M450.15 486.85 Q450.5 489.45 449.7 491.85 L449.6 493.05 Q448.1 491.55 447.0 489.05 446.25 487.25 445.85 485.55 445.25 484.85 445.0 484.1 L444.95 484.0 444.95 483.95 Q444.2 481.8 444.15 479.35 L444.05 477.8 Q443.85 475.0 443.1 472.5 442.15 472.85 442.15 474.05 L441.7 475.9 440.4 473.1 Q439.6 471.25 438.95 469.4 L437.35 464.45 436.85 463.2 Q435.95 461.8 435.95 460.05 435.05 457.55 435.15 455.1 L435.0 453.85 434.65 452.9 M374.7 392.2 Q374.3 398.4 374.25 404.65 374.25 408.9 374.6 413.05 L375.25 425.5 375.3 428.65 376.9 427.9 Q377.65 427.55 378.35 427.35 378.9 427.55 379.3 428.75 378.65 429.45 379.05 429.85 378.65 432.2 378.65 434.2 378.65 437.9 379.7 441.1 380.25 442.2 380.65 442.3 381.9 442.65 382.4 444.55 381.45 445.15 381.45 445.75 L381.45 467.85 381.45 471.55 M349.65 486.85 Q349.3 489.45 350.1 491.85 L350.2 493.05 Q351.7 491.55 352.75 489.05 L353.95 485.55 354.8 484.1 354.85 484.05 354.85 483.95 Q355.6 481.8 355.65 479.35 L355.75 477.8 Q355.95 475.0 356.7 472.5 357.6 472.85 357.6 474.05 L358.1 475.9 359.4 473.1 360.85 469.4 362.4 464.45 Q362.6 463.8 362.95 463.2 363.8 461.8 363.8 460.05 364.75 457.55 364.65 455.1 364.6 454.4 364.8 453.85 L365.15 452.9 M391.75 489.1 L386.4 502.85 381.8 512.7 Q381.5 513.3 381.35 513.95 380.75 516.05 379.4 517.25 378.1 518.75 376.9 518.25 375.45 517.7 374.05 517.6 372.65 517.5 372.05 518.45 370.85 520.2 369.75 522.45 L368.9 523.45 M391.6 526.0 Q388.35 529.55 384.15 531.95 381.9 533.35 379.45 534.3 L374.9 536.05 Q374.3 536.3 373.7 536.05 372.2 533.6 371.5 531.35 370.95 529.3 369.35 529.45 368.65 529.5 368.0 529.85 L364.5 531.8 Q359.7 534.4 354.7 536.05 L352.4 536.75 351.35 536.85 343.7 535.35 Q340.35 534.45 338.3 531.65 L336.95 529.9 Q334.95 527.35 333.75 523.9 L333.3 523.0 333.25 522.95 Q332.7 522.15 331.95 521.7 M343.15 543.25 Q355.55 548.15 369.75 545.3 M467.85 521.7 Q467.05 522.15 466.55 522.95 L466.05 523.9 Q464.85 527.35 462.8 529.9 L461.45 531.65 Q459.4 534.45 456.1 535.35 L448.45 536.85 447.4 536.75 445.1 536.05 Q440.1 534.4 435.3 531.8 L431.8 529.85 Q431.15 529.5 430.45 529.45 428.85 529.3 428.3 531.35 427.6 533.6 426.1 536.05 425.45 536.3 424.9 536.05 L420.35 534.3 Q417.85 533.35 415.6 531.95 411.45 529.55 408.2 526.0 M485.0 514.7 Q473.85 514.9 462.8 501.55 M483.65 535.2 Q472.05 534.15 463.7 542.5 M408.05 489.1 Q410.4 495.9 413.35 502.85 415.55 507.95 418.0 512.7 L418.45 513.95 Q419.05 516.05 420.35 517.25 421.7 518.75 422.9 518.25 424.35 517.7 425.75 517.6 427.15 517.5 427.75 518.45 L430.0 522.45 430.85 523.45 M489.1 549.35 L485.4 547.25 Q484.7 547.45 484.45 548.4 L484.05 549.7 483.05 552.4 Q482.15 554.6 479.8 554.45 L476.15 553.65 474.95 553.2 473.85 553.0 Q471.5 552.65 469.05 552.95 L467.4 555.3 Q467.0 555.9 465.95 555.85 L458.9 555.15 450.75 553.65 444.1 552.6 Q443.25 552.65 442.9 553.1 442.55 553.6 442.45 554.35 442.2 556.65 441.55 558.75 441.25 559.75 439.95 560.5 439.05 561.0 438.05 561.0 L434.95 564.0 433.1 565.95 431.85 567.1 Q431.65 565.25 430.5 563.6 L427.95 560.5 424.65 556.95 422.0 554.35 418.6 551.55 416.4 549.9 Q415.45 549.2 414.4 549.1 412.75 548.15 412.05 546.95 L409.8 542.5 408.75 540.65 408.2 539.7 M456.6 543.25 Q444.25 548.15 430.0 545.3 M445.45 525.0 Q430.9 466.6 428.1 407.25 M354.35 525.0 Q368.9 466.6 371.7 407.25 M416.55 484.55 Q415.25 414.5 408.4 343.5 M443.75 454.9 Q441.9 392.8 430.5 334.5 M356.05 454.9 Q357.9 392.8 369.3 334.5 M383.25 484.55 Q384.55 414.5 391.4 343.5 M316.15 535.2 Q327.75 534.15 336.05 542.5 M314.8 514.7 Q325.9 514.9 337.0 501.55" fill="none" stroke="#000000" stroke-linecap="round" stroke-linejoin="round" stroke-opacity="0.5019608" stroke-width="1.0"/>
    <path d="M447.65 431.45 L447.55 425.1 Q447.6 374.15 432.9 330.75 L429.2 323.45 Q426.25 324.85 422.55 325.85 413.5 328.25 399.8 328.2 386.3 328.25 377.3 325.9 373.45 324.9 370.4 323.45 L366.9 330.75 Q352.2 374.15 352.25 425.1 L352.15 431.45 Q345.7 493.85 328.2 502.95 311.8 502.3 308.35 510.75 306.05 516.25 299.65 518.0 290.2 521.75 289.1 531.9 289.0 538.1 293.45 542.5 288.65 554.45 296.0 555.95 307.2 558.8 310.65 563.25 316.85 569.0 337.45 569.8 L361.3 570.65 368.85 572.1 Q381.75 575.3 399.9 573.6 418.05 575.3 430.95 572.1 L438.8 570.6 462.3 569.8 Q482.9 569.0 489.15 563.25 492.55 558.8 503.8 555.95 511.15 554.45 506.35 542.5 510.8 538.1 510.65 531.9 509.55 521.75 500.15 518.0 493.7 516.25 491.45 510.75 488.0 502.3 471.6 502.95 454.1 493.85 447.65 431.45" fill="none" stroke="#000000" stroke-linecap="round" stroke-linejoin="round" stroke-width="1.0"/>
  </g>
</svg>
