<?xml version="1.0" encoding="UTF-8" standalone="no"?>
<svg xmlns:xlink="http://www.w3.org/1999/xlink" height="358.2px" width="204.1px" xmlns="http://www.w3.org/2000/svg">
  <g transform="matrix(1.0, 0.0, 0.0, 1.0, 102.25, 119.0)">
    <path d="M-24.0 -118.4 Q-23.4 -117.85 -23.4 -117.0 -23.4 -116.15 -24.0 -115.65 -24.55 -115.05 -25.4 -115.05 -26.2 -115.05 -26.8 -115.65 -27.35 -116.15 -27.35 -117.0 -27.35 -117.85 -26.8 -118.4 -26.2 -119.0 -25.4 -119.0 -24.55 -119.0 -24.0 -118.4" fill="url(#gradient0)" fill-rule="evenodd" stroke="none"/>
    <path d="M-30.25 -102.2 Q-30.25 -103.85 -29.05 -105.0 -27.9 -106.2 -26.3 -106.2 -24.6 -106.2 -23.5 -105.0 -22.3 -103.85 -22.3 -102.2 -22.3 -100.55 -23.5 -99.45 -24.6 -98.25 -26.3 -98.25 -27.9 -98.25 -29.05 -99.45 -30.25 -100.55 -30.25 -102.2" fill="url(#gradient1)" fill-rule="evenodd" stroke="none"/>
    <path d="M-81.8 -65.15 Q-80.05 -66.85 -77.6 -66.85 -75.15 -66.85 -73.4 -65.15 -71.65 -63.4 -71.65 -60.95 -71.65 -58.45 -73.4 -56.75 -75.15 -55.0 -77.6 -55.0 -80.05 -55.0 -81.8 -56.75 -83.55 -58.45 -83.55 -60.95 -83.55 -63.4 -81.8 -65.15" fill="url(#gradient2)" fill-rule="evenodd" stroke="none"/>
    <path d="M-96.8 -13.5 Q-96.8 -12.65 -97.4 -12.1 -97.9 -11.5 -98.8 -11.5 -99.6 -11.5 -100.15 -12.1 -100.75 -12.65 -100.75 -13.5 -100.75 -14.3 -100.15 -14.9 -99.6 -15.45 -98.8 -15.45 -97.9 -15.45 -97.4 -14.9 -96.8 -14.3 -96.8 -13.5" fill="url(#gradient3)" fill-rule="evenodd" stroke="none"/>
    <path d="M-94.3 -4.95 Q-93.1 -6.1 -91.5 -6.1 -89.8 -6.1 -88.7 -4.95 -87.55 -3.75 -87.55 -2.15 -87.55 -0.5 -88.7 0.65 -89.8 1.8 -91.5 1.8 -93.1 1.8 -94.3 0.65 -95.45 -0.5 -95.45 -2.15 -95.45 -3.75 -94.3 -4.95" fill="url(#gradient4)" fill-rule="evenodd" stroke="none"/>
    <path d="M-15.5 -84.5 Q-15.5 -82.0 -17.25 -80.3 -19.0 -78.55 -21.4 -78.55 -23.9 -78.55 -25.65 -80.3 -27.35 -82.0 -27.35 -84.5 -27.35 -86.95 -25.65 -88.7 -23.9 -90.45 -21.4 -90.45 -19.0 -90.45 -17.25 -88.7 -15.5 -86.95 -15.5 -84.5" fill="url(#gradient5)" fill-rule="evenodd" stroke="none"/>
    <path d="M-36.8 -80.7 Q-36.8 -79.0 -38.0 -77.9 -39.1 -76.75 -40.8 -76.75 -42.4 -76.75 -43.55 -77.9 -44.75 -79.0 -44.75 -80.7 -44.75 -82.3 -43.55 -83.5 -42.4 -84.65 -40.8 -84.65 -39.1 -84.65 -38.0 -83.5 -36.8 -82.3 -36.8 -80.7" fill="url(#gradient6)" fill-rule="evenodd" stroke="none"/>
    <path d="M-54.6 -93.35 Q-54.6 -94.15 -54.0 -94.75 -53.45 -95.3 -52.6 -95.3 -51.75 -95.3 -51.2 -94.75 -50.65 -94.15 -50.65 -93.35 -50.65 -92.5 -51.2 -91.95 -51.75 -91.35 -52.6 -91.35 -53.45 -91.35 -54.0 -91.95 -54.6 -92.5 -54.6 -93.35" fill="url(#gradient7)" fill-rule="evenodd" stroke="none"/>
    <path d="M-77.3 -78.0 Q-76.75 -77.4 -76.75 -76.6 -76.75 -75.75 -77.3 -75.2 -77.85 -74.6 -78.7 -74.6 -79.55 -74.6 -80.1 -75.2 -80.7 -75.75 -80.7 -76.6 -80.7 -77.4 -80.1 -78.0 -79.55 -78.55 -78.7 -78.55 -77.85 -78.55 -77.3 -78.0" fill="url(#gradient8)" fill-rule="evenodd" stroke="none"/>
    <path d="M-57.15 -61.0 Q-59.45 -63.3 -59.45 -66.6 -59.45 -69.9 -57.15 -72.25 -54.8 -74.5 -51.55 -74.5 -48.25 -74.5 -45.95 -72.25 -43.6 -69.9 -43.6 -66.6 -43.6 -63.3 -45.95 -61.0 -48.25 -58.7 -51.55 -58.7 -54.8 -58.7 -57.15 -61.0" fill="url(#gradient9)" fill-rule="evenodd" stroke="none"/>
    <path d="M-49.85 -33.7 Q-47.4 -33.7 -45.65 -32.0 -43.9 -30.25 -43.9 -27.75 -43.9 -25.3 -45.65 -23.6 -47.4 -21.85 -49.85 -21.85 -52.35 -21.85 -54.1 -23.6 -55.8 -25.3 -55.8 -27.75 -55.8 -30.25 -54.1 -32.0 -52.35 -33.7 -49.85 -33.7" fill="url(#gradient10)" fill-rule="evenodd" stroke="none"/>
    <path d="M-79.8 -31.2 Q-80.95 -32.3 -80.95 -34.0 -80.95 -35.6 -79.8 -36.75 -78.6 -37.95 -77.0 -37.95 -75.3 -37.95 -74.2 -36.75 -73.05 -35.6 -73.05 -34.0 -73.05 -32.3 -74.2 -31.2 -75.3 -30.0 -77.0 -30.0 -78.6 -30.0 -79.8 -31.2" fill="url(#gradient11)" fill-rule="evenodd" stroke="none"/>
    <path d="M-33.75 -9.9 Q-31.4 -12.2 -28.15 -12.2 -24.85 -12.2 -22.55 -9.9 -20.2 -7.55 -20.2 -4.25 -20.2 -1.0 -22.55 1.3 -24.85 3.65 -28.15 3.65 -31.4 3.65 -33.75 1.3 -36.05 -1.0 -36.05 -4.25 -36.05 -7.55 -33.75 -9.9" fill="url(#gradient12)" fill-rule="evenodd" stroke="none"/>
    <path d="M25.0 -119.0 Q25.8 -119.0 26.4 -118.4 26.95 -117.85 26.95 -117.0 26.95 -116.15 26.4 -115.65 25.8 -115.05 25.0 -115.05 24.15 -115.05 23.6 -115.65 23.0 -116.15 23.0 -117.0 23.0 -117.85 23.6 -118.4 24.15 -119.0 25.0 -119.0" fill="url(#gradient13)" fill-rule="evenodd" stroke="none"/>
    <path d="M29.85 -102.2 Q29.85 -100.55 28.65 -99.45 27.5 -98.25 25.9 -98.25 24.2 -98.25 23.1 -99.45 21.9 -100.55 21.9 -102.2 21.9 -103.85 23.1 -105.0 24.2 -106.2 25.9 -106.2 27.5 -106.2 28.65 -105.0 29.85 -103.85 29.85 -102.2" fill="url(#gradient14)" fill-rule="evenodd" stroke="none"/>
    <path d="M76.9 -75.2 Q76.35 -75.75 76.35 -76.6 76.35 -77.4 76.9 -78.0 77.45 -78.55 78.3 -78.55 79.15 -78.55 79.7 -78.0 80.3 -77.4 80.3 -76.6 80.3 -75.75 79.7 -75.2 79.15 -74.6 78.3 -74.6 77.45 -74.6 76.9 -75.2" fill="url(#gradient15)" fill-rule="evenodd" stroke="none"/>
    <path d="M54.2 -93.35 Q54.2 -92.5 53.6 -91.95 53.05 -91.35 52.2 -91.35 51.35 -91.35 50.8 -91.95 50.25 -92.5 50.25 -93.35 50.25 -94.15 50.8 -94.75 51.35 -95.3 52.2 -95.3 53.05 -95.3 53.6 -94.75 54.2 -94.15 54.2 -93.35" fill="url(#gradient16)" fill-rule="evenodd" stroke="none"/>
    <path d="M44.35 -80.7 Q44.35 -79.0 43.15 -77.9 42.0 -76.75 40.4 -76.75 38.7 -76.75 37.6 -77.9 36.4 -79.0 36.4 -80.7 36.4 -82.3 37.6 -83.5 38.7 -84.65 40.4 -84.65 42.0 -84.65 43.15 -83.5 44.35 -82.3 44.35 -80.7" fill="url(#gradient17)" fill-rule="evenodd" stroke="none"/>
    <path d="M43.2 -66.6 Q43.2 -69.9 45.55 -72.25 47.85 -74.5 51.15 -74.5 54.4 -74.5 56.75 -72.25 59.05 -69.9 59.05 -66.6 59.05 -63.3 56.75 -61.0 54.4 -58.7 51.15 -58.7 47.85 -58.7 45.55 -61.0 43.2 -63.3 43.2 -66.6" fill="url(#gradient18)" fill-rule="evenodd" stroke="none"/>
    <path d="M77.2 -55.0 Q74.75 -55.0 73.0 -56.75 71.25 -58.45 71.25 -60.95 71.25 -63.4 73.0 -65.15 74.75 -66.85 77.2 -66.85 79.65 -66.85 81.4 -65.15 83.15 -63.4 83.15 -60.95 83.15 -58.45 81.4 -56.75 79.65 -55.0 77.2 -55.0" fill="url(#gradient19)" fill-rule="evenodd" stroke="none"/>
    <path d="M26.95 -84.5 Q26.95 -82.0 25.25 -80.3 23.5 -78.55 21.0 -78.55 18.6 -78.55 16.85 -80.3 15.1 -82.0 15.1 -84.5 15.1 -86.95 16.85 -88.7 18.6 -90.45 21.0 -90.45 23.5 -90.45 25.25 -88.7 26.95 -86.95 26.95 -84.5" fill="url(#gradient20)" fill-rule="evenodd" stroke="none"/>
    <path d="M22.15 -9.9 Q24.45 -12.2 27.75 -12.2 31.0 -12.2 33.35 -9.9 35.65 -7.55 35.65 -4.25 35.65 -1.0 33.35 1.3 31.0 3.65 27.75 3.65 24.45 3.65 22.15 1.3 19.8 -1.0 19.8 -4.25 19.8 -7.55 22.15 -9.9" fill="url(#gradient21)" fill-rule="evenodd" stroke="none"/>
    <path d="M76.6 -30.0 Q74.9 -30.0 73.8 -31.2 72.65 -32.3 72.65 -34.0 72.65 -35.6 73.8 -36.75 74.9 -37.95 76.6 -37.95 78.2 -37.95 79.4 -36.75 80.55 -35.6 80.55 -34.0 80.55 -32.3 79.4 -31.2 78.2 -30.0 76.6 -30.0" fill="url(#gradient22)" fill-rule="evenodd" stroke="none"/>
    <path d="M49.45 -33.7 Q51.95 -33.7 53.7 -32.0 55.4 -30.25 55.4 -27.75 55.4 -25.3 53.7 -23.6 51.95 -21.85 49.45 -21.85 47.0 -21.85 45.25 -23.6 43.5 -25.3 43.5 -27.75 43.5 -30.25 45.25 -32.0 47.0 -33.7 49.45 -33.7" fill="url(#gradient23)" fill-rule="evenodd" stroke="none"/>
    <path d="M97.0 -14.9 Q97.5 -15.45 98.4 -15.45 99.2 -15.45 99.75 -14.9 100.35 -14.3 100.35 -13.5 100.35 -12.65 99.75 -12.1 99.2 -11.5 98.4 -11.5 97.5 -11.5 97.0 -12.1 96.4 -12.65 96.4 -13.5 96.4 -14.3 97.0 -14.9" fill="url(#gradient24)" fill-rule="evenodd" stroke="none"/>
    <path d="M87.15 -2.15 Q87.15 -3.75 88.3 -4.95 89.4 -6.1 91.1 -6.1 92.7 -6.1 93.9 -4.95 95.05 -3.75 95.05 -2.15 95.05 -0.5 93.9 0.65 92.7 1.8 91.1 1.8 89.4 1.8 88.3 0.65 87.15 -0.5 87.15 -2.15" fill="url(#gradient25)" fill-rule="evenodd" stroke="none"/>
    <path d="M89.95 15.2 Q90.05 12.9 91.7 11.25 93.45 9.55 95.9 9.55 98.4 9.55 100.15 11.25 101.85 13.0 101.85 15.5 101.85 17.95 100.15 19.65 98.4 21.45 95.9 21.45 94.2 21.45 92.8 20.55 L93.05 19.1 Q93.05 17.45 91.9 16.3 91.05 15.45 89.95 15.2" fill="url(#gradient26)" fill-rule="evenodd" stroke="none"/>
    <path d="M92.8 20.55 L91.9 21.9 Q90.75 23.05 89.1 23.05 87.45 23.05 86.3 21.9 85.15 20.75 85.15 19.1 85.15 17.45 86.3 16.3 87.45 15.15 89.1 15.15 L89.95 15.2 Q91.05 15.45 91.9 16.3 93.05 17.45 93.05 19.1 L92.8 20.55" fill="url(#gradient27)" fill-rule="evenodd" stroke="none"/>
    <path d="M98.75 38.5 Q98.75 41.75 96.45 44.05 94.1 46.4 90.8 46.4 87.55 46.4 85.25 44.05 82.9 41.75 82.9 38.5 82.9 35.2 85.25 32.85 87.55 30.55 90.8 30.55 94.1 30.55 96.45 32.85 98.75 35.2 98.75 38.5" fill="url(#gradient28)" fill-rule="evenodd" stroke="none"/>
    <path d="M86.8 57.9 Q88.0 59.1 88.0 60.7 88.0 62.4 86.8 63.5 85.65 64.65 84.0 64.65 82.35 64.65 81.25 63.5 80.05 62.4 80.05 60.7 80.05 59.1 81.25 57.9 82.35 56.75 84.0 56.75 85.65 56.75 86.8 57.9" fill="url(#gradient29)" fill-rule="evenodd" stroke="none"/>
    <path d="M85.45 80.45 Q84.9 81.05 84.05 81.05 83.2 81.05 82.65 80.45 82.1 79.95 82.1 79.05 82.1 78.25 82.65 77.7 83.2 77.1 84.05 77.1 84.9 77.1 85.45 77.7 86.05 78.25 86.05 79.05 86.05 79.95 85.45 80.45" fill="url(#gradient30)" fill-rule="evenodd" stroke="none"/>
    <path d="M53.0 23.15 Q54.75 21.45 57.2 21.45 59.7 21.45 61.45 23.15 63.15 24.9 63.15 27.35 63.15 29.85 61.45 31.55 59.7 33.3 57.2 33.3 54.75 33.3 53.0 31.55 51.25 29.85 51.25 27.35 51.25 24.9 53.0 23.15" fill="url(#gradient31)" fill-rule="evenodd" stroke="none"/>
    <path d="M66.75 35.65 Q67.85 34.5 69.55 34.5 71.15 34.5 72.3 35.65 73.5 36.8 73.5 38.45 73.5 40.1 72.3 41.25 71.15 42.4 69.55 42.4 67.85 42.4 66.75 41.25 65.55 40.1 65.55 38.45 65.55 36.8 66.75 35.65" fill="url(#gradient32)" fill-rule="evenodd" stroke="none"/>
    <path d="M31.6 27.3 Q32.2 27.85 32.2 28.7 32.2 29.55 31.6 30.05 31.05 30.65 30.2 30.65 29.35 30.65 28.8 30.05 28.25 29.55 28.25 28.7 28.25 27.85 28.8 27.3 29.35 26.7 30.2 26.7 31.05 26.7 31.6 27.3" fill="url(#gradient33)" fill-rule="evenodd" stroke="none"/>
    <path d="M34.3 55.95 Q34.3 54.35 35.5 53.15 36.6 52.0 38.3 52.0 39.9 52.0 41.05 53.15 42.25 54.35 42.25 55.95 42.25 57.6 41.05 58.75 39.9 59.9 38.3 59.9 36.6 59.9 35.5 58.75 34.3 57.6 34.3 55.95" fill="url(#gradient34)" fill-rule="evenodd" stroke="none"/>
    <path d="M28.2 92.5 Q29.9 94.25 29.9 96.75 29.9 99.2 28.2 100.95 26.45 102.7 24.0 102.7 21.55 102.7 19.8 100.95 18.05 99.2 18.05 96.75 18.05 94.25 19.8 92.5 21.55 90.8 24.0 90.8 26.45 90.8 28.2 92.5" fill="url(#gradient35)" fill-rule="evenodd" stroke="none"/>
    <path d="M64.65 55.15 Q64.05 55.7 63.25 55.7 62.4 55.7 61.85 55.15 61.25 54.6 61.25 53.75 61.25 52.95 61.85 52.35 62.4 51.75 63.25 51.75 64.05 51.75 64.65 52.35 65.2 52.95 65.2 53.75 65.2 54.6 64.65 55.15" fill="url(#gradient36)" fill-rule="evenodd" stroke="none"/>
    <path d="M68.05 72.75 Q68.45 73.25 68.45 73.95 68.45 74.8 67.85 75.35 67.3 75.9 66.45 75.9 L65.6 75.75 65.1 75.35 Q64.5 74.8 64.5 73.95 64.5 73.15 65.1 72.55 65.6 71.95 66.45 71.95 67.3 71.95 67.85 72.55 L68.05 72.75" fill="url(#gradient37)" fill-rule="evenodd" stroke="none"/>
    <path d="M68.05 72.75 L69.55 72.5 Q71.15 72.5 72.3 73.65 73.5 74.85 73.5 76.45 73.5 78.15 72.3 79.25 71.15 80.4 69.55 80.4 67.85 80.4 66.75 79.25 65.55 78.15 65.55 76.45 L65.6 75.75 66.45 75.9 Q67.3 75.9 67.85 75.35 68.45 74.8 68.45 73.95 68.45 73.25 68.05 72.75" fill="url(#gradient38)" fill-rule="evenodd" stroke="none"/>
    <path d="M47.9 78.2 Q47.3 77.7 47.3 76.8 47.3 76.0 47.9 75.45 48.45 74.85 49.3 74.85 50.1 74.85 50.7 75.45 51.25 76.0 51.25 76.8 51.25 77.7 50.7 78.2 50.1 78.8 49.3 78.8 48.45 78.8 47.9 78.2" fill="url(#gradient39)" fill-rule="evenodd" stroke="none"/>
    <path d="M68.95 92.6 Q68.35 93.2 67.55 93.2 66.7 93.2 66.15 92.6 65.55 92.1 65.55 91.2 65.55 90.4 66.15 89.85 66.7 89.25 67.55 89.25 68.35 89.25 68.95 89.85 69.55 90.4 69.55 91.2 69.55 92.1 68.95 92.6" fill="url(#gradient40)" fill-rule="evenodd" stroke="none"/>
    <path d="M59.8 132.25 Q59.8 133.1 59.25 133.65 58.65 134.25 57.85 134.25 57.0 134.25 56.45 133.65 55.85 133.1 55.85 132.25 55.85 131.45 56.45 130.85 57.0 130.3 57.85 130.3 58.65 130.3 59.25 130.85 59.8 131.45 59.8 132.25" fill="url(#gradient41)" fill-rule="evenodd" stroke="none"/>
    <path d="M41.05 136.1 Q43.35 133.8 46.65 133.8 49.9 133.8 52.25 136.1 54.55 138.4 54.55 141.7 54.55 145.0 52.25 147.3 49.9 149.65 46.65 149.65 43.35 149.65 41.05 147.3 38.7 145.0 38.7 141.7 38.7 138.4 41.05 136.1" fill="url(#gradient42)" fill-rule="evenodd" stroke="none"/>
    <path d="M14.9 110.45 Q16.5 110.45 17.7 111.6 18.85 112.75 18.85 114.4 18.85 116.05 17.7 117.2 16.5 118.35 14.9 118.35 13.25 118.35 12.1 117.2 10.95 116.05 10.95 114.4 10.95 112.75 12.1 111.6 13.25 110.45 14.9 110.45" fill="url(#gradient43)" fill-rule="evenodd" stroke="none"/>
    <path d="M61.3 182.4 Q61.3 181.6 61.85 181.05 62.4 180.45 63.25 180.45 64.1 180.45 64.65 181.05 65.25 181.6 65.25 182.4 65.25 183.3 64.65 183.8 64.1 184.4 63.25 184.4 62.4 184.4 61.85 183.8 61.3 183.3 61.3 182.4" fill="url(#gradient44)" fill-rule="evenodd" stroke="none"/>
    <path d="M64.5 196.45 Q65.6 195.3 67.25 195.3 68.9 195.3 70.05 196.45 71.25 197.65 71.25 199.25 71.25 200.9 70.05 202.05 68.9 203.2 67.25 203.2 65.6 203.2 64.5 202.05 63.3 200.9 63.3 199.25 63.3 197.65 64.5 196.45" fill="url(#gradient45)" fill-rule="evenodd" stroke="none"/>
    <path d="M62.15 211.2 Q63.3 212.35 63.3 213.95 63.3 215.65 62.15 216.75 60.95 217.95 59.35 217.95 57.7 217.95 56.55 216.75 55.4 215.65 55.4 213.95 55.4 212.35 56.55 211.2 57.7 210.0 59.35 210.0 60.95 210.0 62.15 211.2" fill="url(#gradient46)" fill-rule="evenodd" stroke="none"/>
    <path d="M64.1 237.45 Q62.35 235.75 62.35 233.25 62.35 230.8 64.1 229.05 65.9 227.35 68.3 227.35 70.8 227.35 72.55 229.05 74.25 230.8 74.25 233.25 74.25 235.75 72.55 237.45 70.8 239.2 68.3 239.2 65.9 239.2 64.1 237.45" fill="url(#gradient47)" fill-rule="evenodd" stroke="none"/>
    <path d="M-29.2 30.05 Q-29.75 30.65 -30.6 30.65 -31.45 30.65 -32.0 30.05 -32.6 29.55 -32.6 28.7 -32.6 27.85 -32.0 27.3 -31.45 26.7 -30.6 26.7 -29.75 26.7 -29.2 27.3 -28.65 27.85 -28.65 28.7 -28.65 29.55 -29.2 30.05" fill="url(#gradient48)" fill-rule="evenodd" stroke="none"/>
    <path d="M-53.4 23.15 Q-51.65 24.9 -51.65 27.35 -51.65 29.85 -53.4 31.55 -55.15 33.3 -57.6 33.3 -60.1 33.3 -61.85 31.55 -63.55 29.85 -63.55 27.35 -63.55 24.9 -61.85 23.15 -60.1 21.45 -57.6 21.45 -55.15 21.45 -53.4 23.15" fill="url(#gradient49)" fill-rule="evenodd" stroke="none"/>
    <path d="M-67.15 35.65 Q-65.95 36.8 -65.95 38.45 -65.95 40.1 -67.15 41.25 -68.25 42.4 -69.95 42.4 -71.55 42.4 -72.7 41.25 -73.9 40.1 -73.9 38.45 -73.9 36.8 -72.7 35.65 -71.55 34.5 -69.95 34.5 -68.25 34.5 -67.15 35.65" fill="url(#gradient50)" fill-rule="evenodd" stroke="none"/>
    <path d="M-41.45 53.15 Q-40.3 52.0 -38.7 52.0 -37.0 52.0 -35.9 53.15 -34.7 54.35 -34.7 55.95 -34.7 57.6 -35.9 58.75 -37.0 59.9 -38.7 59.9 -40.3 59.9 -41.45 58.75 L-42.45 57.25 -42.65 55.95 -42.45 54.7 Q-42.15 53.85 -41.45 53.15" fill="url(#gradient51)" fill-rule="evenodd" stroke="none"/>
    <path d="M-61.65 53.75 Q-61.65 54.6 -62.25 55.15 -62.8 55.7 -63.65 55.7 -64.45 55.7 -65.05 55.15 -65.6 54.6 -65.6 53.75 -65.6 52.95 -65.05 52.35 -64.45 51.75 -63.65 51.75 -62.8 51.75 -62.25 52.35 -61.65 52.95 -61.65 53.75" fill="url(#gradient52)" fill-rule="evenodd" stroke="none"/>
    <path d="M-66.0 75.75 L-66.85 75.9 Q-67.7 75.9 -68.25 75.35 -68.85 74.8 -68.85 73.95 -68.85 73.25 -68.45 72.75 L-68.25 72.55 Q-67.7 71.95 -66.85 71.95 -66.0 71.95 -65.5 72.55 -64.9 73.15 -64.9 73.95 -64.9 74.8 -65.5 75.35 L-66.0 75.75" fill="url(#gradient53)" fill-rule="evenodd" stroke="none"/>
    <path d="M-66.0 75.75 L-65.95 76.45 Q-65.95 78.15 -67.15 79.25 -68.25 80.4 -69.95 80.4 -71.55 80.4 -72.7 79.25 -73.9 78.15 -73.9 76.45 -73.9 74.85 -72.7 73.65 -71.55 72.5 -69.95 72.5 L-68.45 72.75 Q-68.85 73.25 -68.85 73.95 -68.85 74.8 -68.25 75.35 -67.7 75.9 -66.85 75.9 L-66.0 75.75" fill="url(#gradient54)" fill-rule="evenodd" stroke="none"/>
    <path d="M-67.95 93.2 Q-68.75 93.2 -69.35 92.6 -69.95 92.1 -69.95 91.2 -69.95 90.4 -69.35 89.85 -68.75 89.25 -67.95 89.25 -67.1 89.25 -66.55 89.85 -65.95 90.4 -65.95 91.2 -65.95 92.1 -66.55 92.6 -67.1 93.2 -67.95 93.2" fill="url(#gradient55)" fill-rule="evenodd" stroke="none"/>
    <path d="M-51.65 76.8 Q-51.65 76.0 -51.1 75.45 -50.5 74.85 -49.7 74.85 -48.85 74.85 -48.3 75.45 -47.7 76.0 -47.7 76.8 -47.7 77.7 -48.3 78.2 -48.85 78.8 -49.7 78.8 -50.5 78.8 -51.1 78.2 -51.65 77.7 -51.65 76.8" fill="url(#gradient56)" fill-rule="evenodd" stroke="none"/>
    <path d="M-28.6 92.5 Q-26.85 90.8 -24.4 90.8 -21.95 90.8 -20.2 92.5 -18.45 94.25 -18.45 96.75 -18.45 99.2 -20.2 100.95 -21.95 102.7 -24.4 102.7 -26.85 102.7 -28.6 100.95 -30.3 99.2 -30.3 96.75 -30.3 94.25 -28.6 92.5" fill="url(#gradient57)" fill-rule="evenodd" stroke="none"/>
    <path d="M-93.2 20.55 Q-94.6 21.45 -96.3 21.45 -98.8 21.45 -100.55 19.65 -102.25 17.95 -102.25 15.5 -102.25 13.0 -100.55 11.25 -98.8 9.55 -96.3 9.55 -93.85 9.55 -92.1 11.25 -90.45 12.9 -90.35 15.2 -91.45 15.45 -92.3 16.3 -93.45 17.45 -93.45 19.1 L-93.2 20.55" fill="url(#gradient58)" fill-rule="evenodd" stroke="none"/>
    <path d="M-93.2 20.55 L-93.45 19.1 Q-93.45 17.45 -92.3 16.3 -91.45 15.45 -90.35 15.2 L-89.5 15.15 Q-87.85 15.15 -86.7 16.3 -85.55 17.45 -85.55 19.1 -85.55 20.75 -86.7 21.9 -87.85 23.05 -89.5 23.05 -91.15 23.05 -92.3 21.9 -92.95 21.3 -93.2 20.55" fill="url(#gradient59)" fill-rule="evenodd" stroke="none"/>
    <path d="M-83.3 38.5 Q-83.3 41.75 -85.65 44.05 -87.95 46.4 -91.2 46.4 -94.5 46.4 -96.85 44.05 -99.15 41.75 -99.15 38.5 -99.15 35.2 -96.85 32.85 -94.5 30.55 -91.2 30.55 -87.95 30.55 -85.65 32.85 -83.3 35.2 -83.3 38.5" fill="url(#gradient60)" fill-rule="evenodd" stroke="none"/>
    <path d="M-84.4 56.75 Q-82.75 56.75 -81.65 57.9 -80.45 59.1 -80.45 60.7 -80.45 62.4 -81.65 63.5 -82.75 64.65 -84.4 64.65 -86.05 64.65 -87.2 63.5 -88.4 62.4 -88.4 60.7 -88.4 59.1 -87.2 57.9 -86.05 56.75 -84.4 56.75" fill="url(#gradient61)" fill-rule="evenodd" stroke="none"/>
    <path d="M-84.45 81.05 Q-85.3 81.05 -85.85 80.45 -86.45 79.95 -86.45 79.05 -86.45 78.25 -85.85 77.7 -85.3 77.1 -84.45 77.1 -83.6 77.1 -83.05 77.7 -82.5 78.25 -82.5 79.05 -82.5 79.95 -83.05 80.45 -83.6 81.05 -84.45 81.05" fill="url(#gradient62)" fill-rule="evenodd" stroke="none"/>
    <path d="M-12.5 117.2 Q-13.65 118.35 -15.3 118.35 -16.9 118.35 -18.1 117.2 -19.25 116.05 -19.25 114.4 -19.25 112.75 -18.1 111.6 -16.9 110.45 -15.3 110.45 -13.65 110.45 -12.5 111.6 -11.35 112.75 -11.35 114.4 -11.35 116.05 -12.5 117.2" fill="url(#gradient63)" fill-rule="evenodd" stroke="none"/>
    <path d="M-41.45 136.1 Q-39.1 138.4 -39.1 141.7 -39.1 145.0 -41.45 147.3 -43.75 149.65 -47.05 149.65 -50.3 149.65 -52.65 147.3 -54.95 145.0 -54.95 141.7 -54.95 138.4 -52.65 136.1 -50.3 133.8 -47.05 133.8 -43.75 133.8 -41.45 136.1" fill="url(#gradient64)" fill-rule="evenodd" stroke="none"/>
    <path d="M-56.25 132.25 Q-56.25 133.1 -56.85 133.65 -57.4 134.25 -58.25 134.25 -59.05 134.25 -59.65 133.65 -60.2 133.1 -60.2 132.25 -60.2 131.45 -59.65 130.85 -59.05 130.3 -58.25 130.3 -57.4 130.3 -56.85 130.85 -56.25 131.45 -56.25 132.25" fill="url(#gradient65)" fill-rule="evenodd" stroke="none"/>
    <path d="M-63.65 184.4 Q-64.5 184.4 -65.05 183.8 -65.65 183.3 -65.65 182.4 -65.65 181.6 -65.05 181.05 -64.5 180.45 -63.65 180.45 -62.8 180.45 -62.25 181.05 -61.7 181.6 -61.7 182.4 -61.7 183.3 -62.25 183.8 -62.8 184.4 -63.65 184.4" fill="url(#gradient66)" fill-rule="evenodd" stroke="none"/>
    <path d="M-64.9 196.45 Q-63.7 197.65 -63.7 199.25 -63.7 200.9 -64.9 202.05 -66.0 203.2 -67.65 203.2 -69.3 203.2 -70.45 202.05 -71.65 200.9 -71.65 199.25 -71.65 197.65 -70.45 196.45 -69.3 195.3 -67.65 195.3 -66.0 195.3 -64.9 196.45" fill="url(#gradient67)" fill-rule="evenodd" stroke="none"/>
    <path d="M-56.95 211.2 Q-55.8 212.35 -55.8 213.95 -55.8 215.65 -56.95 216.75 -58.1 217.95 -59.75 217.95 -61.35 217.95 -62.55 216.75 -63.7 215.65 -63.7 213.95 -63.7 212.35 -62.55 211.2 -61.35 210.0 -59.75 210.0 -58.1 210.0 -56.95 211.2" fill="url(#gradient68)" fill-rule="evenodd" stroke="none"/>
    <path d="M-74.65 233.25 Q-74.65 230.8 -72.95 229.05 -71.2 227.35 -68.7 227.35 -66.3 227.35 -64.5 229.05 -62.75 230.8 -62.75 233.25 -62.75 235.75 -64.5 237.45 -66.3 239.2 -68.7 239.2 -71.2 239.2 -72.95 237.45 -74.65 235.75 -74.65 233.25" fill="url(#gradient69)" fill-rule="evenodd" stroke="none"/>
  </g>
  <defs>
    <linearGradient gradientTransform="matrix(0.0, -0.0663, 0.0333, 0.0, -36.7, -131.85)" gradientUnits="userSpaceOnUse" id="gradient0" spreadMethod="pad" x1="-819.2" x2="819.2">
      <stop offset="0.0" stop-color="#000000" stop-opacity="0.2"/>
      <stop offset="1.0" stop-color="#000000" stop-opacity="0.0"/>
    </linearGradient>
    <radialGradient cx="0" cy="0" gradientTransform="matrix(0.0074, 0.0, 0.0, 0.0074, -25.05, -103.7)" gradientUnits="userSpaceOnUse" id="gradient1" r="819.2" spreadMethod="pad">
      <stop offset="0.0" stop-color="#000000" stop-opacity="0.0"/>
      <stop offset="1.0" stop-color="#000000" stop-opacity="0.2"/>
    </radialGradient>
    <radialGradient cx="0" cy="0" gradientTransform="matrix(0.0114, 0.0, 0.0, 0.0114, -75.2, -63.35)" gradientUnits="userSpaceOnUse" id="gradient2" r="819.2" spreadMethod="pad">
      <stop offset="0.0" stop-color="#000000" stop-opacity="0.0"/>
      <stop offset="1.0" stop-color="#000000" stop-opacity="0.2"/>
    </radialGradient>
    <radialGradient cx="0" cy="0" gradientTransform="matrix(0.0043, 0.0, 0.0, 0.0043, -98.2, -14.25)" gradientUnits="userSpaceOnUse" id="gradient3" r="819.2" spreadMethod="pad">
      <stop offset="0.0" stop-color="#000000" stop-opacity="0.0"/>
      <stop offset="1.0" stop-color="#000000" stop-opacity="0.2"/>
    </radialGradient>
    <radialGradient cx="0" cy="0" gradientTransform="matrix(0.0075, 0.0, 0.0, 0.0075, -90.2, -3.75)" gradientUnits="userSpaceOnUse" id="gradient4" r="819.2" spreadMethod="pad">
      <stop offset="0.0" stop-color="#000000" stop-opacity="0.0"/>
      <stop offset="1.0" stop-color="#000000" stop-opacity="0.2"/>
    </radialGradient>
    <radialGradient cx="0" cy="0" gradientTransform="matrix(0.0114, 0.0, 0.0, 0.0114, -19.05, -86.9)" gradientUnits="userSpaceOnUse" id="gradient5" r="819.2" spreadMethod="pad">
      <stop offset="0.0" stop-color="#000000" stop-opacity="0.0"/>
      <stop offset="1.0" stop-color="#000000" stop-opacity="0.2"/>
    </radialGradient>
    <radialGradient cx="0" cy="0" gradientTransform="matrix(0.0074, 0.0, 0.0, 0.0074, -39.55, -82.15)" gradientUnits="userSpaceOnUse" id="gradient6" r="819.2" spreadMethod="pad">
      <stop offset="0.0" stop-color="#000000" stop-opacity="0.0"/>
      <stop offset="1.0" stop-color="#000000" stop-opacity="0.2"/>
    </radialGradient>
    <linearGradient gradientTransform="matrix(0.0, -0.0663, 0.0333, 0.0, -63.95, -108.2)" gradientUnits="userSpaceOnUse" id="gradient7" spreadMethod="pad" x1="-819.2" x2="819.2">
      <stop offset="0.0" stop-color="#000000" stop-opacity="0.2"/>
      <stop offset="1.0" stop-color="#000000" stop-opacity="0.0"/>
    </linearGradient>
    <linearGradient gradientTransform="matrix(0.0, -0.0663, 0.0333, 0.0, -90.05, -91.45)" gradientUnits="userSpaceOnUse" id="gradient8" spreadMethod="pad" x1="-819.2" x2="819.2">
      <stop offset="0.0" stop-color="#000000" stop-opacity="0.2"/>
      <stop offset="1.0" stop-color="#000000" stop-opacity="0.0"/>
    </linearGradient>
    <radialGradient cx="0" cy="0" gradientTransform="matrix(0.0152, 0.0, 0.0, 0.0152, -49.0, -70.4)" gradientUnits="userSpaceOnUse" id="gradient9" r="819.2" spreadMethod="pad">
      <stop offset="0.0" stop-color="#000000" stop-opacity="0.0"/>
      <stop offset="1.0" stop-color="#000000" stop-opacity="0.2"/>
    </radialGradient>
    <radialGradient cx="0" cy="0" gradientTransform="matrix(0.0114, 0.0, 0.0, 0.0114, -47.45, -30.2)" gradientUnits="userSpaceOnUse" id="gradient10" r="819.2" spreadMethod="pad">
      <stop offset="0.0" stop-color="#000000" stop-opacity="0.0"/>
      <stop offset="1.0" stop-color="#000000" stop-opacity="0.2"/>
    </radialGradient>
    <radialGradient cx="0" cy="0" gradientTransform="matrix(0.0074, 0.0, 0.0, 0.0074, -75.75, -35.45)" gradientUnits="userSpaceOnUse" id="gradient11" r="819.2" spreadMethod="pad">
      <stop offset="0.0" stop-color="#000000" stop-opacity="0.0"/>
      <stop offset="1.0" stop-color="#000000" stop-opacity="0.2"/>
    </radialGradient>
    <radialGradient cx="0" cy="0" gradientTransform="matrix(0.0152, 0.0, 0.0, 0.0152, -25.6, -8.05)" gradientUnits="userSpaceOnUse" id="gradient12" r="819.2" spreadMethod="pad">
      <stop offset="0.0" stop-color="#000000" stop-opacity="0.0"/>
      <stop offset="1.0" stop-color="#000000" stop-opacity="0.2"/>
    </radialGradient>
    <linearGradient gradientTransform="matrix(0.0, -0.0663, -0.0333, 0.0, 36.3, -131.85)" gradientUnits="userSpaceOnUse" id="gradient13" spreadMethod="pad" x1="-819.2" x2="819.2">
      <stop offset="0.0" stop-color="#000000" stop-opacity="0.2"/>
      <stop offset="1.0" stop-color="#000000" stop-opacity="0.0"/>
    </linearGradient>
    <radialGradient cx="0" cy="0" gradientTransform="matrix(-0.0074, 0.0, 0.0, 0.0074, 24.65, -103.7)" gradientUnits="userSpaceOnUse" id="gradient14" r="819.2" spreadMethod="pad">
      <stop offset="0.0" stop-color="#000000" stop-opacity="0.0"/>
      <stop offset="1.0" stop-color="#000000" stop-opacity="0.2"/>
    </radialGradient>
    <linearGradient gradientTransform="matrix(0.0, -0.0663, -0.0333, 0.0, 89.65, -91.45)" gradientUnits="userSpaceOnUse" id="gradient15" spreadMethod="pad" x1="-819.2" x2="819.2">
      <stop offset="0.0" stop-color="#000000" stop-opacity="0.2"/>
      <stop offset="1.0" stop-color="#000000" stop-opacity="0.0"/>
    </linearGradient>
    <linearGradient gradientTransform="matrix(0.0, -0.0663, -0.0333, 0.0, 63.55, -108.2)" gradientUnits="userSpaceOnUse" id="gradient16" spreadMethod="pad" x1="-819.2" x2="819.2">
      <stop offset="0.0" stop-color="#000000" stop-opacity="0.2"/>
      <stop offset="1.0" stop-color="#000000" stop-opacity="0.0"/>
    </linearGradient>
    <radialGradient cx="0" cy="0" gradientTransform="matrix(-0.0074, 0.0, 0.0, 0.0074, 39.15, -82.15)" gradientUnits="userSpaceOnUse" id="gradient17" r="819.2" spreadMethod="pad">
      <stop offset="0.0" stop-color="#000000" stop-opacity="0.0"/>
      <stop offset="1.0" stop-color="#000000" stop-opacity="0.2"/>
    </radialGradient>
    <radialGradient cx="0" cy="0" gradientTransform="matrix(-0.0152, 0.0, 0.0, 0.0152, 48.6, -70.4)" gradientUnits="userSpaceOnUse" id="gradient18" r="819.2" spreadMethod="pad">
      <stop offset="0.0" stop-color="#000000" stop-opacity="0.0"/>
      <stop offset="1.0" stop-color="#000000" stop-opacity="0.2"/>
    </radialGradient>
    <radialGradient cx="0" cy="0" gradientTransform="matrix(-0.0114, 0.0, 0.0, 0.0114, 74.8, -63.35)" gradientUnits="userSpaceOnUse" id="gradient19" r="819.2" spreadMethod="pad">
      <stop offset="0.0" stop-color="#000000" stop-opacity="0.0"/>
      <stop offset="1.0" stop-color="#000000" stop-opacity="0.2"/>
    </radialGradient>
    <radialGradient cx="0" cy="0" gradientTransform="matrix(-0.0114, 0.0, 0.0, 0.0114, 18.65, -86.9)" gradientUnits="userSpaceOnUse" id="gradient20" r="819.2" spreadMethod="pad">
      <stop offset="0.0" stop-color="#000000" stop-opacity="0.0"/>
      <stop offset="1.0" stop-color="#000000" stop-opacity="0.2"/>
    </radialGradient>
    <radialGradient cx="0" cy="0" gradientTransform="matrix(-0.0152, 0.0, 0.0, 0.0152, 25.2, -8.05)" gradientUnits="userSpaceOnUse" id="gradient21" r="819.2" spreadMethod="pad">
      <stop offset="0.0" stop-color="#000000" stop-opacity="0.0"/>
      <stop offset="1.0" stop-color="#000000" stop-opacity="0.2"/>
    </radialGradient>
    <radialGradient cx="0" cy="0" gradientTransform="matrix(-0.0074, 0.0, 0.0, 0.0074, 75.35, -35.45)" gradientUnits="userSpaceOnUse" id="gradient22" r="819.2" spreadMethod="pad">
      <stop offset="0.0" stop-color="#000000" stop-opacity="0.0"/>
      <stop offset="1.0" stop-color="#000000" stop-opacity="0.2"/>
    </radialGradient>
    <radialGradient cx="0" cy="0" gradientTransform="matrix(-0.0114, 0.0, 0.0, 0.0114, 47.05, -30.2)" gradientUnits="userSpaceOnUse" id="gradient23" r="819.2" spreadMethod="pad">
      <stop offset="0.0" stop-color="#000000" stop-opacity="0.0"/>
      <stop offset="1.0" stop-color="#000000" stop-opacity="0.2"/>
    </radialGradient>
    <radialGradient cx="0" cy="0" gradientTransform="matrix(-0.0043, 0.0, 0.0, 0.0043, 97.8, -14.25)" gradientUnits="userSpaceOnUse" id="gradient24" r="819.2" spreadMethod="pad">
      <stop offset="0.0" stop-color="#000000" stop-opacity="0.0"/>
      <stop offset="1.0" stop-color="#000000" stop-opacity="0.2"/>
    </radialGradient>
    <radialGradient cx="0" cy="0" gradientTransform="matrix(-0.0075, 0.0, 0.0, 0.0075, 89.8, -3.75)" gradientUnits="userSpaceOnUse" id="gradient25" r="819.2" spreadMethod="pad">
      <stop offset="0.0" stop-color="#000000" stop-opacity="0.0"/>
      <stop offset="1.0" stop-color="#000000" stop-opacity="0.2"/>
    </radialGradient>
    <radialGradient cx="0" cy="0" gradientTransform="matrix(-0.0121, 0.0, 0.0, 0.0121, 93.3, 12.45)" gradientUnits="userSpaceOnUse" id="gradient26" r="819.2" spreadMethod="pad">
      <stop offset="0.0" stop-color="#000000" stop-opacity="0.0"/>
      <stop offset="1.0" stop-color="#000000" stop-opacity="0.2"/>
    </radialGradient>
    <radialGradient cx="0" cy="0" gradientTransform="matrix(-0.0076, 0.0, 0.0, 0.0076, 88.05, 17.2)" gradientUnits="userSpaceOnUse" id="gradient27" r="819.2" spreadMethod="pad">
      <stop offset="0.0" stop-color="#000000" stop-opacity="0.0"/>
      <stop offset="1.0" stop-color="#000000" stop-opacity="0.2"/>
    </radialGradient>
    <radialGradient cx="0" cy="0" gradientTransform="matrix(-0.0152, 0.0, 0.0, 0.0152, 88.3, 34.7)" gradientUnits="userSpaceOnUse" id="gradient28" r="819.2" spreadMethod="pad">
      <stop offset="0.0" stop-color="#000000" stop-opacity="0.0"/>
      <stop offset="1.0" stop-color="#000000" stop-opacity="0.2"/>
    </radialGradient>
    <radialGradient cx="0" cy="0" gradientTransform="matrix(-0.0074, 0.0, 0.0, 0.0074, 83.05, 58.9)" gradientUnits="userSpaceOnUse" id="gradient29" r="819.2" spreadMethod="pad">
      <stop offset="0.0" stop-color="#000000" stop-opacity="0.0"/>
      <stop offset="1.0" stop-color="#000000" stop-opacity="0.2"/>
    </radialGradient>
    <radialGradient cx="0" cy="0" gradientTransform="matrix(-0.0041, 0.0, 0.0, 0.0041, 83.55, 78.4)" gradientUnits="userSpaceOnUse" id="gradient30" r="819.2" spreadMethod="pad">
      <stop offset="0.0" stop-color="#000000" stop-opacity="0.0"/>
      <stop offset="1.0" stop-color="#000000" stop-opacity="0.2"/>
    </radialGradient>
    <radialGradient cx="0" cy="0" gradientTransform="matrix(-0.0114, 0.0, 0.0, 0.0114, 54.8, 24.95)" gradientUnits="userSpaceOnUse" id="gradient31" r="819.2" spreadMethod="pad">
      <stop offset="0.0" stop-color="#000000" stop-opacity="0.0"/>
      <stop offset="1.0" stop-color="#000000" stop-opacity="0.2"/>
    </radialGradient>
    <radialGradient cx="0" cy="0" gradientTransform="matrix(-0.0074, 0.0, 0.0, 0.0074, 68.3, 36.95)" gradientUnits="userSpaceOnUse" id="gradient32" r="819.2" spreadMethod="pad">
      <stop offset="0.0" stop-color="#000000" stop-opacity="0.0"/>
      <stop offset="1.0" stop-color="#000000" stop-opacity="0.2"/>
    </radialGradient>
    <linearGradient gradientTransform="matrix(0.0, -0.0663, -0.0333, 0.0, 41.55, 13.85)" gradientUnits="userSpaceOnUse" id="gradient33" spreadMethod="pad" x1="-819.2" x2="819.2">
      <stop offset="0.0" stop-color="#000000" stop-opacity="0.2"/>
      <stop offset="1.0" stop-color="#000000" stop-opacity="0.0"/>
    </linearGradient>
    <radialGradient cx="0" cy="0" gradientTransform="matrix(-0.0074, 0.0, 0.0, 0.0074, 37.05, 54.45)" gradientUnits="userSpaceOnUse" id="gradient34" r="819.2" spreadMethod="pad">
      <stop offset="0.0" stop-color="#000000" stop-opacity="0.0"/>
      <stop offset="1.0" stop-color="#000000" stop-opacity="0.2"/>
    </radialGradient>
    <radialGradient cx="0" cy="0" gradientTransform="matrix(-0.0114, 0.0, 0.0, 0.0114, 21.6, 94.3)" gradientUnits="userSpaceOnUse" id="gradient35" r="819.2" spreadMethod="pad">
      <stop offset="0.0" stop-color="#000000" stop-opacity="0.0"/>
      <stop offset="1.0" stop-color="#000000" stop-opacity="0.2"/>
    </radialGradient>
    <linearGradient gradientTransform="matrix(0.0, -0.0663, -0.0333, 0.0, 74.55, 38.9)" gradientUnits="userSpaceOnUse" id="gradient36" spreadMethod="pad" x1="-819.2" x2="819.2">
      <stop offset="0.0" stop-color="#000000" stop-opacity="0.2"/>
      <stop offset="1.0" stop-color="#000000" stop-opacity="0.0"/>
    </linearGradient>
    <radialGradient cx="0" cy="0" gradientTransform="matrix(-0.0037, 0.0, 0.0, 0.0037, 66.35, 73.4)" gradientUnits="userSpaceOnUse" id="gradient37" r="819.2" spreadMethod="pad">
      <stop offset="0.0" stop-color="#000000" stop-opacity="0.0"/>
      <stop offset="1.0" stop-color="#000000" stop-opacity="0.2"/>
    </radialGradient>
    <radialGradient cx="0" cy="0" gradientTransform="matrix(-0.0065, 0.0, 0.0, 0.0065, 69.1, 75.15)" gradientUnits="userSpaceOnUse" id="gradient38" r="819.2" spreadMethod="pad">
      <stop offset="0.0" stop-color="#000000" stop-opacity="0.0"/>
      <stop offset="1.0" stop-color="#000000" stop-opacity="0.2"/>
    </radialGradient>
    <radialGradient cx="0" cy="0" gradientTransform="matrix(-0.0043, 0.0, 0.0, 0.0043, 49.1, 75.9)" gradientUnits="userSpaceOnUse" id="gradient39" r="819.2" spreadMethod="pad">
      <stop offset="0.0" stop-color="#000000" stop-opacity="0.0"/>
      <stop offset="1.0" stop-color="#000000" stop-opacity="0.2"/>
    </radialGradient>
    <radialGradient cx="0" cy="0" gradientTransform="matrix(-0.0038, 0.0, 0.0, 0.0038, 67.55, 90.65)" gradientUnits="userSpaceOnUse" id="gradient40" r="819.2" spreadMethod="pad">
      <stop offset="0.0" stop-color="#000000" stop-opacity="0.0"/>
      <stop offset="1.0" stop-color="#000000" stop-opacity="0.2"/>
    </radialGradient>
    <linearGradient gradientTransform="matrix(0.0, -0.0663, -0.0333, 0.0, 69.15, 117.4)" gradientUnits="userSpaceOnUse" id="gradient41" spreadMethod="pad" x1="-819.2" x2="819.2">
      <stop offset="0.0" stop-color="#000000" stop-opacity="0.2"/>
      <stop offset="1.0" stop-color="#000000" stop-opacity="0.0"/>
    </linearGradient>
    <radialGradient cx="0" cy="0" gradientTransform="matrix(-0.0152, 0.0, 0.0, 0.0152, 44.1, 137.95)" gradientUnits="userSpaceOnUse" id="gradient42" r="819.2" spreadMethod="pad">
      <stop offset="0.0" stop-color="#000000" stop-opacity="0.0"/>
      <stop offset="1.0" stop-color="#000000" stop-opacity="0.2"/>
    </radialGradient>
    <radialGradient cx="0" cy="0" gradientTransform="matrix(-0.0074, 0.0, 0.0, 0.0074, 13.7, 112.9)" gradientUnits="userSpaceOnUse" id="gradient43" r="819.2" spreadMethod="pad">
      <stop offset="0.0" stop-color="#000000" stop-opacity="0.0"/>
      <stop offset="1.0" stop-color="#000000" stop-opacity="0.2"/>
    </radialGradient>
    <linearGradient gradientTransform="matrix(0.0, -0.0663, -0.0333, 0.0, 74.6, 167.55)" gradientUnits="userSpaceOnUse" id="gradient44" spreadMethod="pad" x1="-819.2" x2="819.2">
      <stop offset="0.0" stop-color="#000000" stop-opacity="0.2"/>
      <stop offset="1.0" stop-color="#000000" stop-opacity="0.0"/>
    </linearGradient>
    <radialGradient cx="0" cy="0" gradientTransform="matrix(-0.0074, 0.0, 0.0, 0.0074, 66.05, 197.75)" gradientUnits="userSpaceOnUse" id="gradient45" r="819.2" spreadMethod="pad">
      <stop offset="0.0" stop-color="#000000" stop-opacity="0.0"/>
      <stop offset="1.0" stop-color="#000000" stop-opacity="0.2"/>
    </radialGradient>
    <radialGradient cx="0" cy="0" gradientTransform="matrix(-0.0074, 0.0, 0.0, 0.0074, 58.15, 212.5)" gradientUnits="userSpaceOnUse" id="gradient46" r="819.2" spreadMethod="pad">
      <stop offset="0.0" stop-color="#000000" stop-opacity="0.0"/>
      <stop offset="1.0" stop-color="#000000" stop-opacity="0.2"/>
    </radialGradient>
    <radialGradient cx="0" cy="0" gradientTransform="matrix(-0.0114, 0.0, 0.0, 0.0114, 65.9, 230.85)" gradientUnits="userSpaceOnUse" id="gradient47" r="819.2" spreadMethod="pad">
      <stop offset="0.0" stop-color="#000000" stop-opacity="0.0"/>
      <stop offset="1.0" stop-color="#000000" stop-opacity="0.2"/>
    </radialGradient>
    <linearGradient gradientTransform="matrix(0.0, -0.0663, 0.0333, 0.0, -41.95, 13.85)" gradientUnits="userSpaceOnUse" id="gradient48" spreadMethod="pad" x1="-819.2" x2="819.2">
      <stop offset="0.0" stop-color="#000000" stop-opacity="0.2"/>
      <stop offset="1.0" stop-color="#000000" stop-opacity="0.0"/>
    </linearGradient>
    <radialGradient cx="0" cy="0" gradientTransform="matrix(0.0114, 0.0, 0.0, 0.0114, -55.2, 24.95)" gradientUnits="userSpaceOnUse" id="gradient49" r="819.2" spreadMethod="pad">
      <stop offset="0.0" stop-color="#000000" stop-opacity="0.0"/>
      <stop offset="1.0" stop-color="#000000" stop-opacity="0.2"/>
    </radialGradient>
    <radialGradient cx="0" cy="0" gradientTransform="matrix(0.0074, 0.0, 0.0, 0.0074, -68.7, 36.95)" gradientUnits="userSpaceOnUse" id="gradient50" r="819.2" spreadMethod="pad">
      <stop offset="0.0" stop-color="#000000" stop-opacity="0.0"/>
      <stop offset="1.0" stop-color="#000000" stop-opacity="0.2"/>
    </radialGradient>
    <radialGradient cx="0" cy="0" gradientTransform="matrix(0.0074, 0.0, 0.0, 0.0074, -37.45, 54.45)" gradientUnits="userSpaceOnUse" id="gradient51" r="819.2" spreadMethod="pad">
      <stop offset="0.0" stop-color="#000000" stop-opacity="0.0"/>
      <stop offset="1.0" stop-color="#000000" stop-opacity="0.2"/>
    </radialGradient>
    <linearGradient gradientTransform="matrix(0.0, -0.0663, 0.0333, 0.0, -74.95, 38.9)" gradientUnits="userSpaceOnUse" id="gradient52" spreadMethod="pad" x1="-819.2" x2="819.2">
      <stop offset="0.0" stop-color="#000000" stop-opacity="0.2"/>
      <stop offset="1.0" stop-color="#000000" stop-opacity="0.0"/>
    </linearGradient>
    <radialGradient cx="0" cy="0" gradientTransform="matrix(0.0037, 0.0, 0.0, 0.0037, -66.75, 73.4)" gradientUnits="userSpaceOnUse" id="gradient53" r="819.2" spreadMethod="pad">
      <stop offset="0.0" stop-color="#000000" stop-opacity="0.0"/>
      <stop offset="1.0" stop-color="#000000" stop-opacity="0.2"/>
    </radialGradient>
    <radialGradient cx="0" cy="0" gradientTransform="matrix(0.0065, 0.0, 0.0, 0.0065, -69.5, 75.15)" gradientUnits="userSpaceOnUse" id="gradient54" r="819.2" spreadMethod="pad">
      <stop offset="0.0" stop-color="#000000" stop-opacity="0.0"/>
      <stop offset="1.0" stop-color="#000000" stop-opacity="0.2"/>
    </radialGradient>
    <radialGradient cx="0" cy="0" gradientTransform="matrix(0.0038, 0.0, 0.0, 0.0038, -67.95, 90.65)" gradientUnits="userSpaceOnUse" id="gradient55" r="819.2" spreadMethod="pad">
      <stop offset="0.0" stop-color="#000000" stop-opacity="0.0"/>
      <stop offset="1.0" stop-color="#000000" stop-opacity="0.2"/>
    </radialGradient>
    <radialGradient cx="0" cy="0" gradientTransform="matrix(0.0043, 0.0, 0.0, 0.0043, -49.5, 75.9)" gradientUnits="userSpaceOnUse" id="gradient56" r="819.2" spreadMethod="pad">
      <stop offset="0.0" stop-color="#000000" stop-opacity="0.0"/>
      <stop offset="1.0" stop-color="#000000" stop-opacity="0.2"/>
    </radialGradient>
    <radialGradient cx="0" cy="0" gradientTransform="matrix(0.0114, 0.0, 0.0, 0.0114, -22.0, 94.3)" gradientUnits="userSpaceOnUse" id="gradient57" r="819.2" spreadMethod="pad">
      <stop offset="0.0" stop-color="#000000" stop-opacity="0.0"/>
      <stop offset="1.0" stop-color="#000000" stop-opacity="0.2"/>
    </radialGradient>
    <radialGradient cx="0" cy="0" gradientTransform="matrix(0.0121, 0.0, 0.0, 0.0121, -93.7, 12.45)" gradientUnits="userSpaceOnUse" id="gradient58" r="819.2" spreadMethod="pad">
      <stop offset="0.0" stop-color="#000000" stop-opacity="0.0"/>
      <stop offset="1.0" stop-color="#000000" stop-opacity="0.2"/>
    </radialGradient>
    <radialGradient cx="0" cy="0" gradientTransform="matrix(0.0076, 0.0, 0.0, 0.0076, -88.45, 17.2)" gradientUnits="userSpaceOnUse" id="gradient59" r="819.2" spreadMethod="pad">
      <stop offset="0.0" stop-color="#000000" stop-opacity="0.0"/>
      <stop offset="1.0" stop-color="#000000" stop-opacity="0.2"/>
    </radialGradient>
    <radialGradient cx="0" cy="0" gradientTransform="matrix(0.0152, 0.0, 0.0, 0.0152, -88.7, 34.7)" gradientUnits="userSpaceOnUse" id="gradient60" r="819.2" spreadMethod="pad">
      <stop offset="0.0" stop-color="#000000" stop-opacity="0.0"/>
      <stop offset="1.0" stop-color="#000000" stop-opacity="0.2"/>
    </radialGradient>
    <radialGradient cx="0" cy="0" gradientTransform="matrix(0.0074, 0.0, 0.0, 0.0074, -83.45, 58.9)" gradientUnits="userSpaceOnUse" id="gradient61" r="819.2" spreadMethod="pad">
      <stop offset="0.0" stop-color="#000000" stop-opacity="0.0"/>
      <stop offset="1.0" stop-color="#000000" stop-opacity="0.2"/>
    </radialGradient>
    <radialGradient cx="0" cy="0" gradientTransform="matrix(0.0041, 0.0, 0.0, 0.0041, -83.95, 78.4)" gradientUnits="userSpaceOnUse" id="gradient62" r="819.2" spreadMethod="pad">
      <stop offset="0.0" stop-color="#000000" stop-opacity="0.0"/>
      <stop offset="1.0" stop-color="#000000" stop-opacity="0.2"/>
    </radialGradient>
    <radialGradient cx="0" cy="0" gradientTransform="matrix(0.0074, 0.0, 0.0, 0.0074, -14.1, 112.9)" gradientUnits="userSpaceOnUse" id="gradient63" r="819.2" spreadMethod="pad">
      <stop offset="0.0" stop-color="#000000" stop-opacity="0.0"/>
      <stop offset="1.0" stop-color="#000000" stop-opacity="0.2"/>
    </radialGradient>
    <radialGradient cx="0" cy="0" gradientTransform="matrix(0.0152, 0.0, 0.0, 0.0152, -44.5, 137.95)" gradientUnits="userSpaceOnUse" id="gradient64" r="819.2" spreadMethod="pad">
      <stop offset="0.0" stop-color="#000000" stop-opacity="0.0"/>
      <stop offset="1.0" stop-color="#000000" stop-opacity="0.2"/>
    </radialGradient>
    <linearGradient gradientTransform="matrix(0.0, -0.0663, 0.0333, 0.0, -69.55, 117.4)" gradientUnits="userSpaceOnUse" id="gradient65" spreadMethod="pad" x1="-819.2" x2="819.2">
      <stop offset="0.0" stop-color="#000000" stop-opacity="0.2"/>
      <stop offset="1.0" stop-color="#000000" stop-opacity="0.0"/>
    </linearGradient>
    <linearGradient gradientTransform="matrix(0.0, -0.0663, 0.0333, 0.0, -75.0, 167.55)" gradientUnits="userSpaceOnUse" id="gradient66" spreadMethod="pad" x1="-819.2" x2="819.2">
      <stop offset="0.0" stop-color="#000000" stop-opacity="0.2"/>
      <stop offset="1.0" stop-color="#000000" stop-opacity="0.0"/>
    </linearGradient>
    <radialGradient cx="0" cy="0" gradientTransform="matrix(0.0074, 0.0, 0.0, 0.0074, -66.45, 197.75)" gradientUnits="userSpaceOnUse" id="gradient67" r="819.2" spreadMethod="pad">
      <stop offset="0.0" stop-color="#000000" stop-opacity="0.0"/>
      <stop offset="1.0" stop-color="#000000" stop-opacity="0.2"/>
    </radialGradient>
    <radialGradient cx="0" cy="0" gradientTransform="matrix(0.0074, 0.0, 0.0, 0.0074, -58.55, 212.5)" gradientUnits="userSpaceOnUse" id="gradient68" r="819.2" spreadMethod="pad">
      <stop offset="0.0" stop-color="#000000" stop-opacity="0.0"/>
      <stop offset="1.0" stop-color="#000000" stop-opacity="0.2"/>
    </radialGradient>
    <radialGradient cx="0" cy="0" gradientTransform="matrix(0.0114, 0.0, 0.0, 0.0114, -66.3, 230.85)" gradientUnits="userSpaceOnUse" id="gradient69" r="819.2" spreadMethod="pad">
      <stop offset="0.0" stop-color="#000000" stop-opacity="0.0"/>
      <stop offset="1.0" stop-color="#000000" stop-opacity="0.2"/>
    </radialGradient>
  </defs>
</svg>
