<?xml version="1.0" encoding="UTF-8" standalone="no"?>
<svg xmlns:xlink="http://www.w3.org/1999/xlink" height="155.5px" width="44.1px" xmlns="http://www.w3.org/2000/svg">
  <g transform="matrix(1.0, 0.0, 0.0, 1.0, 0.0, 0.0)">
    <path d="M22.25 22.8 L23.75 22.9 24.7 23.55 25.25 24.2 25.85 25.05 Q26.95 26.45 27.2 28.3 L27.55 30.4 27.95 31.4 28.4 31.9 29.75 32.9 31.3 34.35 31.65 34.75 32.0 35.4 31.6 36.15 Q31.2 37.5 31.25 39.0 31.3 40.55 30.8 41.85 L30.05 43.85 29.75 45.05 29.5 45.7 29.05 46.5 Q28.7 47.1 28.8 47.9 L28.7 49.2 28.5 50.25 28.1 52.9 28.0 53.4 27.95 54.1 27.9 54.75 27.0 57.8 26.75 58.45 26.6 58.95 26.45 62.15 26.5 62.65 27.15 66.15 27.45 67.15 Q28.0 68.2 28.65 68.85 L29.1 69.4 Q29.45 69.75 30.25 70.0 30.5 70.7 31.35 71.0 L31.9 71.35 33.8 72.9 34.85 73.6 Q37.65 75.4 40.2 77.3 L40.95 77.95 41.6 78.9 42.7 81.45 42.95 82.2 43.45 83.55 43.65 85.15 43.55 86.1 43.45 87.15 Q42.45 89.1 42.6 91.25 L42.95 93.95 42.8 95.4 Q43.55 96.2 43.4 97.55 L43.65 98.5 44.1 99.3 44.05 101.2 43.6 101.8 Q42.95 102.2 42.1 102.15 41.75 102.1 41.7 102.55 L41.55 103.5 41.35 104.75 40.4 106.35 39.55 107.55 38.8 108.45 38.8 111.55 38.9 112.5 Q38.95 113.25 39.6 114.15 L39.95 114.75 40.1 116.35 39.75 117.3 38.3 117.5 38.1 116.85 38.35 114.9 37.4 112.2 37.25 108.1 36.8 107.7 Q36.55 107.35 36.15 107.55 L35.35 107.65 Q34.85 107.75 34.6 107.95 33.05 109.05 32.7 111.05 L32.55 112.65 32.5 116.05 32.3 118.1 31.75 120.5 Q31.6 120.8 31.55 121.65 31.25 124.85 31.3 128.1 L31.3 135.0 31.4 141.3 31.7 142.5 32.05 143.25 32.3 143.85 32.3 145.65 32.55 149.8 32.85 151.75 32.9 152.85 Q33.05 153.9 32.25 154.85 32.0 154.9 31.8 155.1 31.4 155.65 30.55 155.4 30.0 155.3 29.7 154.3 L29.7 151.75 29.9 150.75 29.8 143.85 29.8 137.25 29.7 135.5 Q29.5 133.45 29.55 130.85 L29.55 125.55 29.35 122.45 28.7 121.0 28.3 120.5 26.3 118.25 25.05 117.1 23.7 115.35 23.4 113.45 23.0 110.1 Q22.9 108.6 22.25 107.35 21.95 106.8 21.05 106.85 20.15 106.85 19.7 107.4 L18.3 109.0 17.75 110.1 Q17.4 111.6 17.6 113.45 L17.65 117.8 17.55 118.6 Q17.3 120.0 17.4 121.5 L17.1 123.35 16.8 125.55 16.7 131.8 16.8 133.4 16.85 134.35 16.95 135.65 17.2 137.25 17.4 137.85 17.9 139.65 18.1 140.3 18.5 141.7 18.7 142.25 18.95 144.35 18.95 146.55 18.2 148.15 Q17.9 148.3 17.45 148.75 L17.0 149.15 15.8 149.4 Q15.3 149.45 15.1 148.5 L15.0 142.9 15.1 142.05 15.25 140.5 15.3 139.85 15.5 133.1 15.4 131.3 15.35 129.7 15.2 128.25 14.95 127.3 14.8 126.65 14.55 124.75 14.5 122.45 14.3 120.4 14.15 117.5 14.0 116.65 13.85 116.05 13.1 114.4 Q12.95 113.3 12.45 112.5 L11.75 111.2 Q11.25 110.55 11.1 109.9 L9.85 102.85 9.75 95.9 Q9.75 94.1 9.15 92.4 L8.95 91.75 8.25 89.15 8.15 88.55 8.0 87.7 7.95 87.1 7.8 82.75 Q7.8 79.25 8.1 75.95 L7.85 75.3 7.85 72.75 7.7 69.55 7.25 66.0 7.05 65.45 6.35 63.45 5.75 61.45 5.55 60.2 5.4 59.4 5.1 57.75 Q4.75 55.55 3.9 53.3 L3.75 52.65 3.45 51.7 2.6 50.15 2.35 49.25 2.15 48.3 2.1 47.65 2.0 45.4 Q2.05 43.5 1.4 41.9 L0.9 40.2 0.35 37.95 0.15 37.0 0.1 35.4 0.05 29.75 Q-0.05 27.55 0.15 25.6 0.35 23.75 1.7 21.85 L3.3 18.55 3.75 17.55 3.9 16.9 4.15 15.3 4.05 14.65 3.75 13.2 Q3.75 12.45 3.35 11.4 3.15 9.8 3.25 7.9 3.3 6.95 4.05 6.3 4.3 5.6 5.05 4.85 L5.55 4.4 Q6.4 3.85 7.05 2.95 L7.7 2.15 8.5 0.95 Q9.0 0.1 9.95 0.0 9.8 0.75 10.05 1.35 L10.35 2.0 11.1 3.35 11.4 3.95 Q12.55 5.2 12.2 7.4 11.9 7.95 11.85 9.2 L11.15 11.0 10.75 12.55 10.5 13.3 Q10.15 13.9 10.25 14.65 10.35 15.7 11.2 16.8 L12.45 17.85 13.7 19.55 Q14.05 20.6 14.7 21.4 15.15 23.05 15.95 24.45 L17.15 24.65 Q18.3 24.55 19.5 23.55 L20.55 23.2 22.25 22.8 M7.1 21.4 L6.9 23.55 6.75 24.8 6.3 25.95 Q5.95 26.55 5.9 27.35 5.85 28.6 6.4 29.3 L6.9 30.2 7.35 30.9 8.2 32.1 8.45 32.55 9.0 33.7 Q9.75 33.7 10.15 33.35 L10.85 32.8 Q11.1 32.35 11.4 32.2 L11.95 31.2 Q12.4 30.25 12.3 29.15 L12.15 28.0 11.6 27.15 10.6 25.85 9.65 24.0 Q9.2 23.4 9.05 22.6 L8.9 22.1 7.35 19.8 Q7.05 20.55 7.1 21.4" fill="#000000" fill-rule="evenodd" stroke="none"/>
  </g>
</svg>
