<?xml version="1.0" encoding="UTF-8" standalone="no"?>
<svg xmlns:xlink="http://www.w3.org/1999/xlink" height="60.75px" width="60.2px" xmlns="http://www.w3.org/2000/svg">
  <g transform="matrix(1.0, 0.0, 0.0, 1.0, 0.0, 0.0)">
    <path d="M28.2 23.05 L22.9 22.0 Q18.6 21.15 18.6 20.05 L18.9 18.8 19.15 17.25 Q19.15 15.75 18.2 14.8 17.3 13.85 15.9 13.85 14.75 13.85 13.2 15.05 L12.65 15.5 10.65 16.95 7.65 18.2 Q5.8 18.95 5.8 20.1 5.8 22.65 8.65 25.0 L12.8 28.15 Q14.4 29.45 19.6 31.0 24.3 32.35 26.0 32.35 27.8 32.35 29.95 31.35 32.5 30.2 33.45 28.3 L33.45 26.8 33.3 26.9 31.4 25.35 Q29.05 23.35 28.2 23.05 M42.65 6.85 L40.85 6.7 38.15 6.95 35.55 6.75 Q33.85 6.7 32.4 7.5 L30.2 9.15 Q28.9 10.3 28.9 10.75 L29.15 12.95 28.75 15.1 28.35 17.5 Q28.35 18.55 30.8 20.45 33.0 22.25 34.95 23.15 L38.95 22.45 Q40.75 22.2 40.75 20.75 L39.95 16.6 39.3 14.0 39.15 13.25 Q39.15 11.45 41.25 10.5 43.35 9.5 43.35 7.85 43.35 7.0 42.65 6.85 M53.9 11.9 L53.2 12.35 Q51.3 13.6 50.05 13.6 49.65 13.6 48.7 13.05 47.75 12.5 47.05 12.5 45.25 12.5 44.15 13.3 43.2 14.0 43.05 15.0 L43.05 15.05 Q43.05 15.75 44.1 17.35 45.1 19.0 45.1 19.7 45.1 20.55 43.7 21.75 42.25 22.95 42.25 23.9 42.25 25.0 43.35 25.75 44.2 26.3 44.95 26.3 51.55 26.3 58.6 20.35 L59.6 24.1 Q57.1 27.25 53.05 29.3 48.35 31.7 43.6 31.7 L38.4 31.4 Q36.0 31.4 30.9 34.4 26.05 37.3 26.05 38.3 L26.55 40.0 27.0 41.8 26.7 43.0 26.3 44.35 Q26.3 45.4 27.4 47.15 28.5 48.8 29.3 49.25 L32.55 50.0 35.7 50.45 Q39.75 50.45 43.35 47.6 46.75 44.9 47.9 41.4 49.25 37.35 55.7 33.05 L60.2 30.05 60.2 30.5 60.0 34.65 Q55.9 35.75 53.8 37.95 52.9 38.9 51.15 42.35 49.55 45.65 48.6 46.95 L47.35 48.35 Q46.55 49.2 46.55 49.9 46.55 52.7 50.05 52.5 L50.8 52.5 47.2 55.55 43.85 55.05 Q42.5 55.05 37.75 56.35 L32.0 57.75 29.55 58.25 Q27.85 58.75 26.85 59.5 L25.45 60.75 Q15.5 59.5 8.1 52.05 L6.45 50.25 7.8 51.0 11.2 53.1 Q16.6 56.05 23.35 56.1 L23.5 56.15 Q24.75 56.45 28.05 55.55 31.6 54.6 31.6 53.65 31.6 53.05 28.95 51.85 L25.65 50.6 20.85 49.7 Q18.0 49.2 16.05 48.0 L10.2 42.05 Q6.0 37.35 3.95 37.35 3.0 37.35 2.6 38.75 L2.3 41.4 1.65 42.75 Q0.6 40.3 0.0 37.65 L0.8 36.5 Q2.55 34.25 3.95 34.25 5.8 34.25 9.0 36.25 12.25 38.3 14.7 38.3 17.15 38.3 17.15 37.15 17.15 35.9 12.5 32.6 L5.95 28.55 Q4.15 27.65 2.45 22.2 1.95 20.4 1.2 19.35 3.2 14.15 7.3 9.8 L7.1 10.35 6.45 12.95 Q6.45 13.6 7.55 14.0 L8.9 14.25 Q9.6 14.25 11.0 13.45 L13.45 11.95 Q16.85 9.65 17.75 9.65 18.3 9.65 19.2 10.35 20.15 11.0 21.2 11.0 24.0 11.0 24.0 9.85 24.0 9.05 22.9 7.9 21.75 6.75 21.75 4.8 21.75 4.1 17.3 4.2 L14.5 4.0 Q18.8 1.45 23.8 0.55 L23.9 1.2 23.9 1.7 23.5 2.1 23.5 2.4 25.95 2.85 Q26.6 2.9 26.6 3.8 L26.3 4.6 26.05 5.5 Q26.05 6.2 26.3 6.3 L27.35 6.3 Q28.05 6.3 28.75 5.9 29.7 5.35 29.7 4.45 L27.2 0.1 29.7 0.0 30.55 0.0 30.3 0.25 29.95 1.05 Q29.95 1.7 31.0 2.9 L32.25 4.15 37.5 4.15 Q33.9 2.05 33.9 1.5 L34.35 0.3 38.65 1.25 Q39.85 3.75 43.3 5.0 L47.9 6.0 51.25 8.9 53.9 11.9" fill="#000000" fill-rule="evenodd" stroke="none"/>
  </g>
</svg>
