<?xml version="1.0" encoding="UTF-8" standalone="no"?>
<svg xmlns:xlink="http://www.w3.org/1999/xlink" height="358.2px" width="204.1px" xmlns="http://www.w3.org/2000/svg">
  <g transform="matrix(1.0, 0.0, 0.0, 1.0, 0.0, 0.0)">
    <path d="M163.7 142.15 Q165.4 143.9 165.4 146.35 165.4 148.85 163.7 150.55 161.95 152.3 159.45 152.3 157.0 152.3 155.25 150.55 153.5 148.85 153.5 146.35 153.5 143.9 155.25 142.15 157.0 140.45 159.45 140.45 161.95 140.45 163.7 142.15 M190.55 119.65 Q189.4 118.5 189.4 116.85 189.4 115.25 190.55 114.05 191.65 112.9 193.35 112.9 194.95 112.9 196.15 114.05 197.3 115.25 197.3 116.85 197.3 118.5 196.15 119.65 194.95 120.8 193.35 120.8 191.65 120.8 190.55 119.65 M199.25 106.9 Q198.65 106.35 198.65 105.5 198.65 104.7 199.25 104.1 199.75 103.55 200.65 103.55 201.45 103.55 202.0 104.1 202.6 104.7 202.6 105.5 202.6 106.35 202.0 106.9 201.45 107.5 200.65 107.5 199.75 107.5 199.25 106.9 M174.9 85.0 Q174.9 83.4 176.05 82.25 177.15 81.05 178.85 81.05 180.45 81.05 181.65 82.25 182.8 83.4 182.8 85.0 182.8 86.7 181.65 87.8 180.45 89.0 178.85 89.0 177.15 89.0 176.05 87.8 174.9 86.7 174.9 85.0 M185.4 58.05 Q185.4 60.55 183.65 62.25 181.9 64.0 179.45 64.0 177.0 64.0 175.25 62.25 173.5 60.55 173.5 58.05 173.5 55.6 175.25 53.85 177.0 52.15 179.45 52.15 181.9 52.15 183.65 53.85 185.4 55.6 185.4 58.05 M181.95 41.0 Q182.55 41.6 182.55 42.4 182.55 43.25 181.95 43.8 181.4 44.4 180.55 44.4 179.7 44.4 179.15 43.8 178.6 43.25 178.6 42.4 178.6 41.6 179.15 41.0 179.7 40.45 180.55 40.45 181.4 40.45 181.95 41.0 M202.4 130.25 Q204.1 132.0 204.1 134.5 204.1 136.95 202.4 138.65 200.65 140.45 198.15 140.45 196.45 140.45 195.05 139.55 194.8 140.3 194.15 140.9 193.0 142.05 191.35 142.05 189.7 142.05 188.55 140.9 187.4 139.75 187.4 138.1 187.4 136.45 188.55 135.3 189.7 134.15 191.35 134.15 L192.2 134.2 Q192.3 131.9 193.95 130.25 195.7 128.55 198.15 128.55 200.65 128.55 202.4 130.25 M153.4 44.5 Q156.65 44.5 159.0 46.75 161.3 49.1 161.3 52.4 161.3 55.7 159.0 58.0 156.65 60.3 153.4 60.3 150.1 60.3 147.8 58.0 145.45 55.7 145.45 52.4 145.45 49.1 147.8 46.75 150.1 44.5 153.4 44.5 M139.85 41.1 Q138.65 40.0 138.65 38.3 138.65 36.7 139.85 35.5 140.95 34.35 142.65 34.35 144.25 34.35 145.4 35.5 146.6 36.7 146.6 38.3 146.6 40.0 145.4 41.1 144.25 42.25 142.65 42.25 140.95 42.25 139.85 41.1 M123.25 28.55 Q125.75 28.55 127.5 30.3 129.2 32.05 129.2 34.5 129.2 37.0 127.5 38.7 125.75 40.45 123.25 40.45 120.85 40.45 119.1 38.7 117.35 37.0 117.35 34.5 117.35 32.05 119.1 30.3 120.85 28.55 123.25 28.55 M125.35 14.0 Q126.45 12.8 128.15 12.8 129.75 12.8 130.9 14.0 132.1 15.15 132.1 16.8 132.1 18.45 130.9 19.55 129.75 20.75 128.15 20.75 126.45 20.75 125.35 19.55 124.15 18.45 124.15 16.8 124.15 15.15 125.35 14.0 M128.65 0.6 Q129.2 1.15 129.2 2.0 129.2 2.85 128.65 3.35 128.05 3.95 127.25 3.95 126.4 3.95 125.85 3.35 125.25 2.85 125.25 2.0 125.25 1.15 125.85 0.6 126.4 0.0 127.25 0.0 128.05 0.0 128.65 0.6 M153.05 24.25 Q153.6 23.7 154.45 23.7 155.3 23.7 155.85 24.25 156.45 24.85 156.45 25.65 156.45 26.5 155.85 27.05 155.3 27.65 154.45 27.65 153.6 27.65 153.05 27.05 152.5 26.5 152.5 25.65 152.5 24.85 153.05 24.25 M184.9 196.7 Q185.45 196.1 186.3 196.1 187.15 196.1 187.7 196.7 188.3 197.25 188.3 198.05 188.3 198.95 187.7 199.45 187.15 200.05 186.3 200.05 185.45 200.05 184.9 199.45 184.35 198.95 184.35 198.05 184.35 197.25 184.9 196.7 M186.25 183.65 Q184.6 183.65 183.5 182.5 182.3 181.4 182.3 179.7 182.3 178.1 183.5 176.9 184.6 175.75 186.25 175.75 187.9 175.75 189.05 176.9 190.25 178.1 190.25 179.7 190.25 181.4 189.05 182.5 187.9 183.65 186.25 183.65 M167.35 194.35 Q166.75 193.8 166.75 192.95 166.75 192.15 167.35 191.55 167.85 190.95 168.7 190.95 169.55 190.95 170.1 191.55 L170.3 191.75 171.8 191.5 Q173.4 191.5 174.55 192.65 175.75 193.85 175.75 195.45 175.75 197.15 174.55 198.25 173.4 199.4 171.8 199.4 170.1 199.4 169.0 198.25 167.8 197.15 167.8 195.45 L167.85 194.75 167.35 194.35 M163.5 172.75 Q163.5 171.95 164.1 171.35 164.65 170.75 165.5 170.75 166.3 170.75 166.9 171.35 167.45 171.95 167.45 172.75 167.45 173.6 166.9 174.15 166.3 174.7 165.5 174.7 164.65 174.7 164.1 174.15 163.5 173.6 163.5 172.75 M174.55 154.65 Q175.75 155.8 175.75 157.45 175.75 159.1 174.55 160.25 173.4 161.4 171.8 161.4 170.1 161.4 169.0 160.25 167.8 159.1 167.8 157.45 167.8 155.8 169.0 154.65 170.1 153.5 171.8 153.5 173.4 153.5 174.55 154.65 M198.7 163.05 Q196.35 165.4 193.05 165.4 189.8 165.4 187.5 163.05 185.15 160.75 185.15 157.5 185.15 154.2 187.5 151.85 189.8 149.55 193.05 149.55 196.35 149.55 198.7 151.85 201.0 154.2 201.0 157.5 201.0 160.75 198.7 163.05 M86.75 34.5 Q86.75 37.0 85.0 38.7 83.25 40.45 80.85 40.45 78.35 40.45 76.6 38.7 74.9 37.0 74.9 34.5 74.9 32.05 76.6 30.3 78.35 28.55 80.85 28.55 83.25 28.55 85.0 30.3 86.75 32.05 86.75 34.5 M147.5 95.4 Q145.75 93.7 145.75 91.25 145.75 88.75 147.5 87.0 149.25 85.3 151.7 85.3 154.2 85.3 155.95 87.0 157.65 88.75 157.65 91.25 157.65 93.7 155.95 95.4 154.2 97.15 151.7 97.15 149.25 97.15 147.5 95.4 M78.25 3.35 Q77.7 3.95 76.85 3.95 76.05 3.95 75.45 3.35 74.9 2.85 74.9 2.0 74.9 1.15 75.45 0.6 76.05 0.0 76.85 0.0 77.7 0.0 78.25 0.6 78.85 1.15 78.85 2.0 78.85 2.85 78.25 3.35 M73.2 14.0 Q74.35 12.8 75.95 12.8 77.65 12.8 78.75 14.0 79.95 15.15 79.95 16.8 79.95 18.45 78.75 19.55 77.65 20.75 75.95 20.75 74.35 20.75 73.2 19.55 72.0 18.45 72.0 16.8 72.0 15.15 73.2 14.0 M49.65 23.7 Q50.5 23.7 51.05 24.25 51.6 24.85 51.6 25.65 51.6 26.5 51.05 27.05 50.5 27.65 49.65 27.65 48.8 27.65 48.25 27.05 47.65 26.5 47.65 25.65 47.65 24.85 48.25 24.25 48.8 23.7 49.65 23.7 M56.3 46.75 Q58.65 49.1 58.65 52.4 58.65 55.7 56.3 58.0 54.0 60.3 50.7 60.3 47.45 60.3 45.1 58.0 42.8 55.7 42.8 52.4 42.8 49.1 45.1 46.75 47.45 44.5 50.7 44.5 54.0 44.5 56.3 46.75 M57.5 38.3 Q57.5 36.7 58.7 35.5 59.85 34.35 61.45 34.35 63.15 34.35 64.25 35.5 65.45 36.7 65.45 38.3 65.45 40.0 64.25 41.1 63.15 42.25 61.45 42.25 59.85 42.25 58.7 41.1 57.5 40.0 57.5 38.3 M25.5 42.4 Q25.5 43.25 24.95 43.8 24.4 44.4 23.55 44.4 22.7 44.4 22.15 43.8 21.55 43.25 21.55 42.4 21.55 41.6 22.15 41.0 22.7 40.45 23.55 40.45 24.4 40.45 24.95 41.0 25.5 41.6 25.5 42.4 M24.65 64.0 Q22.2 64.0 20.45 62.25 18.7 60.55 18.7 58.05 18.7 55.6 20.45 53.85 22.2 52.15 24.65 52.15 27.1 52.15 28.85 53.85 30.6 55.6 30.6 58.05 30.6 60.55 28.85 62.25 27.1 64.0 24.65 64.0 M22.45 87.8 Q21.3 86.7 21.3 85.0 21.3 83.4 22.45 82.25 23.65 81.05 25.25 81.05 26.95 81.05 28.05 82.25 29.2 83.4 29.2 85.0 29.2 86.7 28.05 87.8 26.95 89.0 25.25 89.0 23.65 89.0 22.45 87.8 M52.4 85.3 Q54.85 85.3 56.6 87.0 58.35 88.75 58.35 91.25 58.35 93.7 56.6 95.4 54.85 97.15 52.4 97.15 49.9 97.15 48.15 95.4 46.45 93.7 46.45 91.25 46.45 88.75 48.15 87.0 49.9 85.3 52.4 85.3 M74.1 122.65 Q70.85 122.65 68.5 120.3 66.2 118.0 66.2 114.75 66.2 111.45 68.5 109.1 70.85 106.8 74.1 106.8 77.4 106.8 79.7 109.1 82.05 111.45 82.05 114.75 82.05 118.0 79.7 120.3 77.4 122.65 74.1 122.65 M48.85 142.15 Q50.6 143.9 50.6 146.35 50.6 148.85 48.85 150.55 47.1 152.3 44.65 152.3 42.15 152.3 40.4 150.55 38.7 148.85 38.7 146.35 38.7 143.9 40.4 142.15 42.15 140.45 44.65 140.45 47.1 140.45 48.85 142.15 M71.65 145.7 Q72.5 145.7 73.05 146.3 73.6 146.85 73.6 147.7 73.6 148.55 73.05 149.05 72.5 149.65 71.65 149.65 70.8 149.65 70.25 149.05 69.65 148.55 69.65 147.7 69.65 146.85 70.25 146.3 70.8 145.7 71.65 145.7 M3.45 107.5 Q2.65 107.5 2.1 106.9 1.5 106.35 1.5 105.5 1.5 104.7 2.1 104.1 2.65 103.55 3.45 103.55 4.35 103.55 4.85 104.1 5.45 104.7 5.45 105.5 5.45 106.35 4.85 106.9 4.35 107.5 3.45 107.5 M6.8 116.85 Q6.8 115.25 7.95 114.05 9.15 112.9 10.75 112.9 12.45 112.9 13.55 114.05 14.7 115.25 14.7 116.85 14.7 118.5 13.55 119.65 12.45 120.8 10.75 120.8 9.15 120.8 7.95 119.65 6.8 118.5 6.8 116.85 M11.9 134.2 L12.75 134.15 Q14.4 134.15 15.55 135.3 16.7 136.45 16.7 138.1 16.7 139.75 15.55 140.9 14.4 142.05 12.75 142.05 11.1 142.05 9.95 140.9 9.3 140.3 9.05 139.55 7.65 140.45 5.95 140.45 3.45 140.45 1.7 138.65 0.0 136.95 0.0 134.5 0.0 132.0 1.7 130.25 3.45 128.55 5.95 128.55 8.4 128.55 10.15 130.25 11.8 131.9 11.9 134.2 M35.1 160.25 Q34.0 161.4 32.3 161.4 30.7 161.4 29.55 160.25 28.35 159.1 28.35 157.45 28.35 155.8 29.55 154.65 30.7 153.5 32.3 153.5 34.0 153.5 35.1 154.65 36.3 155.8 36.3 157.45 36.3 159.1 35.1 160.25 M38.6 170.75 Q39.45 170.75 40.0 171.35 40.6 171.95 40.6 172.75 40.6 173.6 40.0 174.15 39.45 174.7 38.6 174.7 37.8 174.7 37.2 174.15 36.65 173.6 36.65 172.75 36.65 171.95 37.2 171.35 37.8 170.75 38.6 170.75 M11.05 149.55 Q14.3 149.55 16.6 151.85 18.95 154.2 18.95 157.5 18.95 160.75 16.6 163.05 14.3 165.4 11.05 165.4 7.75 165.4 5.4 163.05 3.1 160.75 3.1 157.5 3.1 154.2 5.4 151.85 7.75 149.55 11.05 149.55 M15.05 182.5 Q13.85 181.4 13.85 179.7 13.85 178.1 15.05 176.9 16.2 175.75 17.85 175.75 19.5 175.75 20.6 176.9 21.8 178.1 21.8 179.7 21.8 181.4 20.6 182.5 19.5 183.65 17.85 183.65 16.2 183.65 15.05 182.5 M17.8 196.1 Q18.65 196.1 19.2 196.7 19.75 197.25 19.75 198.05 19.75 198.95 19.2 199.45 18.65 200.05 17.8 200.05 16.95 200.05 16.4 199.45 15.8 198.95 15.8 198.05 15.8 197.25 16.4 196.7 16.95 196.1 17.8 196.1 M28.35 195.45 Q28.35 193.85 29.55 192.65 30.7 191.5 32.3 191.5 L33.8 191.75 34.0 191.55 Q34.55 190.95 35.4 190.95 36.25 190.95 36.75 191.55 37.35 192.15 37.35 192.95 37.35 193.8 36.75 194.35 L36.25 194.75 36.3 195.45 Q36.3 197.15 35.1 198.25 34.0 199.4 32.3 199.4 30.7 199.4 29.55 198.25 28.35 197.15 28.35 195.45 M63.55 171.0 Q65.25 171.0 66.35 172.15 67.55 173.35 67.55 174.95 67.55 176.6 66.35 177.75 65.25 178.9 63.55 178.9 61.95 178.9 60.8 177.75 60.1 177.05 59.8 176.25 L59.6 174.95 59.8 173.7 Q60.1 172.85 60.8 172.15 61.95 171.0 63.55 171.0 M52.55 197.8 Q51.75 197.8 51.15 197.2 50.6 196.7 50.6 195.8 50.6 195.0 51.15 194.45 51.75 193.85 52.55 193.85 53.4 193.85 53.95 194.45 54.55 195.0 54.55 195.8 54.55 196.7 53.95 197.2 53.4 197.8 52.55 197.8 M130.45 211.5 Q132.15 213.25 132.15 215.75 132.15 218.2 130.45 219.95 128.7 221.7 126.25 221.7 123.8 221.7 122.05 219.95 120.3 218.2 120.3 215.75 120.3 213.25 122.05 211.5 123.8 209.8 126.25 209.8 128.7 209.8 130.45 211.5 M150.15 197.2 Q149.55 196.7 149.55 195.8 149.55 195.0 150.15 194.45 150.7 193.85 151.55 193.85 152.35 193.85 152.95 194.45 153.5 195.0 153.5 195.8 153.5 196.7 152.95 197.2 152.35 197.8 151.55 197.8 150.7 197.8 150.15 197.2 M137.75 172.15 Q138.85 171.0 140.55 171.0 142.15 171.0 143.3 172.15 144.5 173.35 144.5 174.95 144.5 176.6 143.3 177.75 142.15 178.9 140.55 178.9 138.85 178.9 137.75 177.75 136.55 176.6 136.55 174.95 136.55 173.35 137.75 172.15 M133.85 146.3 Q134.45 146.85 134.45 147.7 134.45 148.55 133.85 149.05 133.3 149.65 132.45 149.65 131.6 149.65 131.05 149.05 130.5 148.55 130.5 147.7 130.5 146.85 131.05 146.3 131.6 145.7 132.45 145.7 133.3 145.7 133.85 146.3 M135.6 109.1 Q137.9 111.45 137.9 114.75 137.9 118.0 135.6 120.3 133.25 122.65 130.0 122.65 126.7 122.65 124.4 120.3 122.05 118.0 122.05 114.75 122.05 111.45 124.4 109.1 126.7 106.8 130.0 106.8 133.25 106.8 135.6 109.1 M83.8 215.75 Q83.8 218.2 82.05 219.95 80.3 221.7 77.85 221.7 75.4 221.7 73.65 219.95 71.95 218.2 71.95 215.75 71.95 213.25 73.65 211.5 75.4 209.8 77.85 209.8 80.3 209.8 82.05 211.5 83.8 213.25 83.8 215.75 M90.9 233.4 Q90.9 235.05 89.75 236.2 88.6 237.35 86.95 237.35 85.35 237.35 84.15 236.2 83.0 235.05 83.0 233.4 83.0 231.75 84.15 230.6 85.35 229.45 86.95 229.45 88.6 229.45 89.75 230.6 90.9 231.75 90.9 233.4 M143.3 255.1 Q145.6 252.8 148.9 252.8 152.15 252.8 154.5 255.1 156.8 257.4 156.8 260.7 156.8 264.0 154.5 266.3 152.15 268.65 148.9 268.65 145.6 268.65 143.3 266.3 140.95 264.0 140.95 260.7 140.95 257.4 143.3 255.1 M158.7 252.65 Q158.1 252.1 158.1 251.25 158.1 250.45 158.7 249.85 159.25 249.3 160.1 249.3 160.9 249.3 161.5 249.85 162.05 250.45 162.05 251.25 162.05 252.1 161.5 252.65 160.9 253.25 160.1 253.25 159.25 253.25 158.7 252.65 M117.15 229.45 Q118.75 229.45 119.95 230.6 121.1 231.75 121.1 233.4 121.1 235.05 119.95 236.2 118.75 237.35 117.15 237.35 115.5 237.35 114.35 236.2 113.2 235.05 113.2 233.4 113.2 231.75 114.35 230.6 115.5 229.45 117.15 229.45 M36.3 210.2 Q36.3 211.1 35.7 211.6 35.15 212.2 34.3 212.2 33.5 212.2 32.9 211.6 32.3 211.1 32.3 210.2 32.3 209.4 32.9 208.85 33.5 208.25 34.3 208.25 35.15 208.25 35.7 208.85 36.3 209.4 36.3 210.2 M60.8 266.3 Q58.5 268.65 55.2 268.65 51.95 268.65 49.6 266.3 47.3 264.0 47.3 260.7 47.3 257.4 49.6 255.1 51.95 252.8 55.2 252.8 58.5 252.8 60.8 255.1 63.15 257.4 63.15 260.7 63.15 264.0 60.8 266.3 M42.6 252.65 Q42.05 252.1 42.05 251.25 42.05 250.45 42.6 249.85 43.2 249.3 44.0 249.3 44.85 249.3 45.4 249.85 46.0 250.45 46.0 251.25 46.0 252.1 45.4 252.65 44.85 253.25 44.0 253.25 43.2 253.25 42.6 252.65 M45.3 330.2 Q46.45 331.35 46.45 332.95 46.45 334.65 45.3 335.75 44.15 336.95 42.5 336.95 40.9 336.95 39.7 335.75 38.55 334.65 38.55 332.95 38.55 331.35 39.7 330.2 40.9 329.0 42.5 329.0 44.15 329.0 45.3 330.2 M40.0 300.05 Q40.55 300.6 40.55 301.4 40.55 302.3 40.0 302.8 39.45 303.4 38.6 303.4 37.75 303.4 37.2 302.8 36.6 302.3 36.6 301.4 36.6 300.6 37.2 300.05 37.75 299.45 38.6 299.45 39.45 299.45 40.0 300.05 M37.35 321.05 Q36.25 322.2 34.6 322.2 32.95 322.2 31.8 321.05 30.6 319.9 30.6 318.25 30.6 316.65 31.8 315.45 32.95 314.3 34.6 314.3 36.25 314.3 37.35 315.45 38.55 316.65 38.55 318.25 38.55 319.9 37.35 321.05 M29.3 356.45 Q27.6 354.75 27.6 352.25 27.6 349.8 29.3 348.05 31.05 346.35 33.55 346.35 35.95 346.35 37.75 348.05 39.5 349.8 39.5 352.25 39.5 354.75 37.75 356.45 35.95 358.2 33.55 358.2 31.05 358.2 29.3 356.45 M170.55 358.2 Q168.15 358.2 166.35 356.45 164.6 354.75 164.6 352.25 164.6 349.8 166.35 348.05 168.15 346.35 170.55 346.35 173.05 346.35 174.8 348.05 176.5 349.8 176.5 352.25 176.5 354.75 174.8 356.45 173.05 358.2 170.55 358.2 M166.75 315.45 Q167.85 314.3 169.5 314.3 171.15 314.3 172.3 315.45 173.5 316.65 173.5 318.25 173.5 319.9 172.3 321.05 171.15 322.2 169.5 322.2 167.85 322.2 166.75 321.05 165.55 319.9 165.55 318.25 165.55 316.65 166.75 315.45 M164.1 302.8 Q163.55 302.3 163.55 301.4 163.55 300.6 164.1 300.05 164.65 299.45 165.5 299.45 166.35 299.45 166.9 300.05 167.5 300.6 167.5 301.4 167.5 302.3 166.9 302.8 166.35 303.4 165.5 303.4 164.65 303.4 164.1 302.8 M167.8 210.2 Q167.8 209.4 168.4 208.85 168.95 208.25 169.8 208.25 170.6 208.25 171.2 208.85 171.8 209.4 171.8 210.2 171.8 211.1 171.2 211.6 170.6 212.2 169.8 212.2 168.95 212.2 168.4 211.6 167.8 211.1 167.8 210.2 M158.8 335.75 Q157.65 334.65 157.65 332.95 157.65 331.35 158.8 330.2 159.95 329.0 161.6 329.0 163.2 329.0 164.4 330.2 165.55 331.35 165.55 332.95 165.55 334.65 164.4 335.75 163.2 336.95 161.6 336.95 159.95 336.95 158.8 335.75" fill="#000000" fill-rule="evenodd" stroke="none"/>
  </g>
</svg>
