<?xml version="1.0" encoding="UTF-8" standalone="no"?>
<svg xmlns:xlink="http://www.w3.org/1999/xlink" height="104.55px" width="66.9px" xmlns="http://www.w3.org/2000/svg">
  <g transform="matrix(1.0, 0.0, 0.0, 1.0, 0.0, 0.0)">
    <path d="M41.0 23.55 L41.15 24.15 41.35 26.2 Q41.3 27.35 42.35 28.1 42.9 28.5 43.5 28.1 L44.55 27.05 44.9 26.4 45.4 24.55 45.6 23.9 45.6 21.5 45.4 19.9 45.25 16.8 Q45.35 17.85 45.85 18.8 L46.4 20.1 47.05 21.75 48.2 23.7 49.3 25.0 53.05 30.25 53.75 31.55 54.15 33.35 54.2 33.95 54.3 35.6 Q54.4 36.65 54.0 37.5 L53.75 38.25 Q53.2 40.5 54.25 42.75 54.9 44.2 55.75 44.95 56.45 45.65 57.35 45.25 L58.7 44.55 59.2 43.8 Q60.2 42.65 60.45 41.3 L60.65 40.3 Q60.85 39.15 61.4 38.05 L61.95 37.4 62.95 36.3 63.5 35.8 64.65 34.6 65.9 33.55 66.9 32.35 Q65.95 33.85 65.75 35.6 L64.95 37.7 64.65 38.45 63.9 39.95 63.2 42.15 63.0 50.5 Q63.0 51.35 63.6 51.8 L64.55 53.6 64.95 54.6 Q65.25 55.95 65.8 57.1 L65.8 59.9 65.35 61.2 64.75 61.9 64.3 62.8 63.95 63.5 63.45 64.8 62.4 66.4 61.4 68.25 Q60.35 69.25 59.85 70.35 59.25 72.4 59.25 74.3 60.0 75.2 61.15 74.95 L62.6 73.6 63.25 72.95 63.7 72.4 64.15 71.8 64.5 71.3 65.05 70.65 64.3 73.2 62.8 79.05 Q62.55 79.95 61.8 80.55 L61.25 81.2 60.7 81.55 Q60.15 81.95 59.3 81.9 58.55 84.5 56.9 85.85 56.25 86.05 56.15 86.35 L55.8 87.2 55.7 87.65 55.7 87.7 54.05 90.0 54.0 90.0 Q52.85 90.95 53.35 91.5 L54.0 91.95 55.5 91.85 55.55 91.8 55.45 92.65 Q55.0 94.2 53.9 95.15 53.15 96.05 52.25 96.35 51.65 96.75 51.35 96.75 L48.25 97.25 45.3 98.05 44.7 98.25 Q43.5 99.0 42.7 100.15 L41.55 101.2 Q40.6 102.25 39.3 102.95 L37.8 103.15 36.8 102.95 Q35.8 102.3 35.55 102.8 L35.05 103.3 34.25 104.15 Q33.5 104.65 33.45 104.55 33.4 104.65 32.65 104.15 L31.85 103.3 31.35 102.8 Q31.1 102.3 30.1 102.95 L29.1 103.15 27.6 102.95 Q26.3 102.25 25.35 101.2 L24.2 100.15 Q23.4 99.0 22.2 98.25 L21.6 98.05 18.65 97.25 15.55 96.75 Q15.25 96.75 14.65 96.35 13.75 96.05 13.0 95.15 11.9 94.2 11.45 92.65 L11.35 91.8 11.4 91.85 12.9 91.95 13.55 91.5 Q14.05 90.95 12.9 90.0 L11.2 87.7 11.2 87.65 11.15 87.2 10.75 86.35 Q10.65 86.05 10.0 85.85 8.35 84.5 7.6 81.9 L6.2 81.55 5.65 81.2 5.1 80.55 Q4.35 79.95 4.1 79.05 L2.6 73.2 1.85 70.65 2.4 71.3 2.75 71.8 3.2 72.4 3.65 72.95 4.3 73.6 5.75 74.95 Q6.9 75.2 7.65 74.3 7.65 72.4 7.05 70.35 6.55 69.25 5.5 68.25 4.95 67.55 4.5 66.4 3.75 65.7 3.45 64.8 L2.95 63.5 2.6 62.8 2.15 61.9 1.55 61.2 Q1.2 60.75 1.1 59.9 L1.1 57.1 1.95 54.6 2.35 53.6 3.3 51.8 Q3.9 51.35 3.9 50.5 L3.7 42.15 3.0 39.95 2.25 38.45 1.95 37.7 1.15 35.6 Q0.95 33.85 0.0 32.35 L1.0 33.55 2.25 34.6 3.4 35.8 3.95 36.3 4.95 37.4 5.5 38.05 6.25 40.3 6.45 41.3 Q6.7 42.65 7.7 43.8 L8.2 44.55 Q8.6 44.95 9.55 45.25 10.45 45.65 11.15 44.95 12.0 44.2 12.65 42.75 13.7 40.5 13.15 38.25 L12.9 37.5 Q12.5 36.65 12.6 35.6 L12.7 33.95 12.75 33.35 Q12.8 32.35 13.15 31.55 L13.85 30.25 17.6 25.0 18.7 23.7 19.85 21.75 20.5 20.1 Q20.7 19.4 21.05 18.8 21.55 17.85 21.65 16.8 L21.5 19.9 21.3 21.5 21.3 23.9 21.5 24.55 22.0 26.4 22.35 27.05 23.4 28.1 Q24.0 28.5 24.55 28.1 25.6 27.35 25.55 26.2 25.5 25.15 25.75 24.15 L25.9 23.55 Q26.7 21.45 27.75 19.65 L28.3 18.45 29.55 14.75 Q29.7 14.05 30.1 13.5 L30.4 12.95 Q31.35 10.75 31.75 7.9 L31.95 7.2 32.45 3.55 Q32.6 1.8 33.45 0.0 34.3 1.8 34.45 3.55 L34.95 7.2 35.15 7.9 Q35.55 10.75 36.5 12.95 L36.8 13.5 37.35 14.75 Q37.9 16.8 38.6 18.45 L39.15 19.65 41.0 23.55 M43.7 36.85 L43.1 37.0 Q42.2 37.3 41.55 36.8 L40.75 36.25 39.85 35.5 39.0 34.8 Q37.05 33.15 35.55 30.6 35.1 29.6 34.8 28.15 33.9 25.8 33.45 22.8 33.0 25.8 32.1 28.15 L31.35 30.6 Q29.85 33.15 27.9 34.8 L27.1 35.5 26.15 36.25 25.35 36.8 Q24.7 37.3 23.8 37.0 L23.25 36.85 22.2 36.5 21.5 36.3 Q20.4 36.85 20.4 38.45 L20.4 38.7 19.6 43.8 Q18.4 46.05 18.25 47.95 L16.45 51.6 16.15 52.3 15.35 53.95 14.75 55.15 14.3 56.45 Q13.95 57.8 14.2 59.2 L14.7 60.25 Q14.9 62.25 13.4 61.3 12.15 60.5 11.7 59.5 L10.9 57.4 Q10.55 56.15 9.85 55.4 L9.1 54.55 8.85 54.25 Q9.25 54.85 9.35 56.0 L9.45 61.05 Q9.4 62.4 9.85 63.2 L10.85 65.0 12.0 68.2 12.15 69.35 12.55 75.65 14.25 78.0 14.15 78.8 15.15 79.65 18.05 83.45 20.8 86.15 21.7 86.95 22.2 87.45 Q21.75 88.05 20.75 87.95 L18.05 88.05 17.0 88.05 Q18.25 88.7 19.05 89.95 L20.3 91.3 Q20.9 91.9 22.05 91.6 L23.25 91.95 23.85 92.15 24.75 92.6 Q26.65 93.45 27.8 94.6 L28.85 95.3 Q29.8 95.8 30.2 96.15 L31.25 96.75 32.65 97.25 33.45 97.45 34.25 97.25 35.65 96.75 36.7 96.15 38.05 95.3 39.1 94.6 Q40.25 93.45 42.15 92.6 42.55 92.3 43.05 92.15 L43.65 91.95 44.85 91.6 Q46.0 91.9 46.6 91.3 L47.85 89.95 Q48.65 88.7 49.9 88.05 L48.85 88.05 46.15 87.95 Q45.15 88.05 44.7 87.45 L45.2 86.95 46.1 86.15 48.85 83.45 51.75 79.65 52.75 78.85 52.75 78.8 52.65 78.0 54.35 75.65 54.75 69.35 Q54.75 68.75 54.9 68.2 55.3 66.6 56.05 65.0 L57.05 63.2 Q57.5 62.4 57.45 61.05 L57.55 56.0 Q57.65 54.85 58.05 54.25 L57.8 54.55 57.05 55.4 Q56.35 56.15 56.0 57.4 L55.2 59.5 Q54.75 60.5 53.5 61.3 52.0 62.25 52.2 60.25 L52.7 59.2 Q52.95 57.8 52.6 56.45 L52.15 55.15 51.55 53.95 50.75 52.3 50.45 51.6 48.65 47.95 Q48.5 46.05 47.3 43.8 L46.5 38.7 46.5 38.45 Q46.5 36.85 45.4 36.3 L44.7 36.5 43.7 36.85 44.7 36.5 45.4 36.3 Q46.5 36.85 46.5 38.45 L46.5 38.7 47.3 43.8 Q48.5 46.05 48.65 47.95 L50.45 51.6 50.75 52.3 51.55 53.95 52.15 55.15 52.6 56.45 Q52.95 57.8 52.7 59.2 L52.2 60.25 Q52.0 62.25 53.5 61.3 54.75 60.5 55.2 59.5 L56.0 57.4 Q56.35 56.15 57.05 55.4 L57.8 54.55 58.05 54.25 Q57.65 54.85 57.55 56.0 L57.45 61.05 Q57.5 62.4 57.05 63.2 L56.05 65.0 Q55.3 66.6 54.9 68.2 54.75 68.75 54.75 69.35 L54.35 75.65 52.65 78.0 52.75 78.8 52.75 78.85 51.75 79.65 48.85 83.45 46.1 86.15 45.2 86.95 44.7 87.45 Q45.15 88.05 46.15 87.95 L48.85 88.05 49.9 88.05 Q48.65 88.7 47.85 89.95 L46.6 91.3 Q46.0 91.9 44.85 91.6 L43.65 91.95 43.05 92.15 Q42.55 92.3 42.15 92.6 40.25 93.45 39.1 94.6 L38.05 95.3 36.7 96.15 35.65 96.75 34.25 97.25 33.45 97.45 32.65 97.25 31.25 96.75 30.2 96.15 Q29.8 95.8 28.85 95.3 L27.8 94.6 Q26.65 93.45 24.75 92.6 L23.85 92.15 23.25 91.95 22.05 91.6 Q20.9 91.9 20.3 91.3 L19.05 89.95 Q18.25 88.7 17.0 88.05 L18.05 88.05 20.75 87.95 Q21.75 88.05 22.2 87.45 L21.7 86.95 20.8 86.15 18.05 83.45 15.15 79.65 14.15 78.8 14.25 78.0 12.55 75.65 12.15 69.35 12.0 68.2 10.85 65.0 9.85 63.2 Q9.4 62.4 9.45 61.05 L9.35 56.0 Q9.25 54.85 8.85 54.25 L9.1 54.55 9.85 55.4 Q10.55 56.15 10.9 57.4 L11.7 59.5 Q12.15 60.5 13.4 61.3 14.9 62.25 14.7 60.25 L14.2 59.2 Q13.95 57.8 14.3 56.45 L14.75 55.15 15.35 53.95 16.15 52.3 16.45 51.6 18.25 47.95 Q18.4 46.05 19.6 43.8 L20.4 38.7 20.4 38.45 Q20.4 36.85 21.5 36.3 L22.2 36.5 23.25 36.85 23.8 37.0 Q24.7 37.3 25.35 36.8 L26.15 36.25 27.1 35.5 27.9 34.8 Q29.85 33.15 31.35 30.6 L32.1 28.15 Q33.0 25.8 33.45 22.8 33.9 25.8 34.8 28.15 35.1 29.6 35.55 30.6 37.05 33.15 39.0 34.8 L39.85 35.5 40.75 36.25 41.55 36.8 Q42.2 37.3 43.1 37.0 L43.7 36.85" fill="#000000" fill-rule="evenodd" stroke="none"/>
  </g>
</svg>
