<?xml version="1.0" encoding="UTF-8" standalone="no"?>
<svg xmlns:xlink="http://www.w3.org/1999/xlink" height="103.95px" width="46.25px" xmlns="http://www.w3.org/2000/svg">
  <g transform="matrix(1.0, 0.0, 0.0, 1.0, -317.95, -345.75)">
    <path d="M335.5 346.45 L335.7 346.5 340.15 345.75 Q343.25 348.4 343.9 351.2 L344.05 352.05 346.15 353.35 350.25 358.4 350.95 362.3 350.5 362.35 350.35 363.2 348.5 363.55 348.35 362.75 346.55 363.05 353.95 404.95 353.7 405.2 356.55 422.9 Q357.9 426.05 360.25 426.55 L362.9 426.05 Q363.6 425.95 363.7 426.65 L364.2 429.35 Q364.3 430.1 363.4 430.15 L360.95 430.6 Q360.35 432.25 358.1 432.45 L357.1 433.05 353.75 433.8 353.1 434.45 352.5 434.65 353.0 437.5 351.9 438.8 353.6 448.4 Q353.05 449.3 351.35 449.6 349.75 449.9 348.9 449.2 L347.2 439.6 345.8 438.8 345.3 436.15 341.15 435.55 339.15 435.3 338.65 432.55 340.6 432.25 340.65 432.2 Q340.9 431.8 341.9 431.65 L341.2 427.7 340.65 427.8 Q339.45 425.15 336.7 425.75 332.15 427.05 327.65 427.7 L327.3 427.75 326.75 427.85 325.8 427.95 324.9 428.1 323.95 428.15 323.0 428.2 321.15 428.3 321.05 428.0 318.7 428.1 Q318.25 427.3 318.1 426.1 317.85 424.9 318.05 423.95 L320.35 423.4 320.3 423.0 322.1 422.55 323.05 422.3 323.95 422.1 324.85 421.9 325.75 421.75 326.3 421.65 326.65 421.6 335.85 420.7 Q338.7 420.45 339.05 417.5 L339.75 417.35 338.65 411.1 340.15 410.35 340.65 410.2 340.6 409.85 337.85 405.75 337.2 401.95 331.3 404.25 330.9 403.15 330.9 403.1 330.75 402.75 327.5 393.15 326.7 393.3 327.25 392.45 326.05 388.55 326.3 387.65 328.25 388.15 328.9 388.05 Q330.75 387.85 330.45 385.7 L328.95 377.15 Q325.3 375.35 322.5 378.4 322.7 375.1 327.55 375.2 L328.4 374.0 327.9 371.15 Q326.8 366.05 329.0 362.25 L329.85 360.35 330.55 353.25 329.55 347.6 332.15 347.15 332.3 347.0 Q332.95 346.5 333.8 346.35 L335.5 346.45 M331.85 367.55 L331.65 366.65 Q331.15 366.4 330.65 366.85 L331.5 371.65 Q331.65 372.3 332.25 372.7 L333.45 373.0 Q334.15 372.85 334.6 372.3 335.0 371.7 334.85 371.05 334.75 370.35 334.15 369.95 L333.65 369.65 Q332.05 369.15 331.85 367.55 M340.55 388.75 Q340.5 388.2 340.0 387.95 L339.05 387.75 Q338.7 387.8 338.45 388.0 L338.2 388.25 Q337.95 388.65 338.0 389.2 338.1 389.7 338.55 390.05 L338.8 390.15 338.9 390.2 339.5 390.25 340.35 389.75 Q340.65 389.25 340.55 388.75 M345.5 411.35 L345.2 411.3 345.05 411.0 345.1 410.75 345.35 410.6 345.6 410.65 345.8 410.9 345.7 411.2 345.5 411.35 M345.2 409.35 Q344.5 409.45 344.1 410.0 343.7 410.6 343.8 411.25 343.95 411.95 344.5 412.3 345.05 412.7 345.75 412.6 L346.8 411.9 Q347.2 411.35 347.05 410.65 346.95 410.0 346.4 409.6 345.85 409.2 345.2 409.35 M338.6 403.3 L339.1 403.35 339.45 403.15 339.55 402.65 339.3 402.3 338.85 402.15 Q338.6 402.2 338.45 402.45 L338.35 402.85 338.6 403.3 M342.4 406.35 L341.95 406.6 Q341.85 406.85 341.9 407.1 L342.1 407.5 342.6 407.6 343.0 407.35 343.1 406.85 342.85 406.45 342.4 406.35 M347.45 432.25 L347.25 432.7 Q347.05 433.15 347.15 433.7 347.3 434.45 347.95 434.9 348.6 435.35 349.4 435.2 L350.6 434.4 Q351.1 433.75 350.95 433.0 350.8 432.2 350.1 431.75 349.45 431.3 348.7 431.45 347.9 431.6 347.45 432.25 M348.65 433.0 Q348.75 432.85 348.95 432.8 L349.35 432.9 349.55 433.2 349.45 433.6 349.15 433.8 348.75 433.7 348.55 433.4 348.65 433.0" fill="#ffffff" fill-rule="evenodd" stroke="none"/>
  </g>
</svg>
