<?xml version="1.0" encoding="UTF-8" standalone="no"?>
<svg xmlns:xlink="http://www.w3.org/1999/xlink" height="82.2px" width="80.95px" xmlns="http://www.w3.org/2000/svg">
  <g transform="matrix(1.0, 0.0, 0.0, 1.0, -273.55, -330.65)">
    <path d="M338.25 331.8 Q339.4 331.7 339.95 332.65 M330.1 355.65 L331.35 362.7 333.15 373.0 333.3 373.75 M333.75 376.3 L334.2 378.9 M335.25 384.85 L335.45 386.1 M342.05 398.7 L343.9 398.4 Q344.7 398.2 344.5 397.15 L335.55 346.5 Q335.4 345.65 336.0 344.7 L340.7 337.95 M331.4 338.95 L331.3 339.35 331.5 339.7 331.9 339.8 332.25 339.55 332.35 339.15 332.15 338.8 331.7 338.75 Q331.5 338.75 331.4 338.95 M335.9 346.25 L343.95 391.95 344.05 392.2 344.6 392.65 345.05 392.7 345.2 392.65 345.5 392.55 Q345.95 392.25 345.9 391.6 L337.85 345.9 Q337.65 345.25 337.15 345.15 L336.8 345.15 336.65 345.2 336.25 345.35 Q335.9 345.65 335.9 346.25 M338.35 345.75 L346.4 391.5 Q346.65 392.1 347.05 392.25 L347.5 392.25 347.65 392.25 347.75 392.2 347.95 392.05 348.2 391.8 348.35 391.15 340.3 345.4 339.6 344.7 339.25 344.7 339.1 344.7 338.7 344.9 Q338.35 345.2 338.35 345.75 M334.7 354.75 L333.55 354.55 Q332.95 354.65 332.6 355.15 332.2 355.65 332.3 356.25 332.45 356.85 332.95 357.25 L334.1 357.45 Q334.7 357.35 335.05 356.85 335.4 356.35 335.25 355.75 L334.7 354.75 M337.75 375.2 L337.4 375.45 337.3 375.85 337.55 376.2 337.95 376.3 338.3 376.1 338.4 375.65 338.15 375.35 Q337.95 375.15 337.75 375.2 M337.35 381.4 L338.0 381.55 338.35 382.1 338.4 382.35 338.25 382.75 337.65 383.1 337.55 383.1 337.05 382.95 336.65 382.4 Q336.6 382.05 336.8 381.75 337.0 381.45 337.35 381.4 M340.75 382.65 L340.4 382.95 340.3 383.3 340.55 383.7 340.95 383.75 341.3 383.55 341.4 383.1 341.15 382.8 340.75 382.65 M333.15 373.0 L326.1 374.25 M341.95 389.65 L341.65 389.9 341.5 390.3 341.8 390.65 342.15 390.7 Q342.4 390.7 342.55 390.5 L342.6 390.1 342.4 389.75 341.95 389.65 M341.4 395.4 Q341.95 395.8 342.1 396.5 L342.05 397.3 341.8 397.8 Q341.4 398.4 340.7 398.5 L340.65 398.5 Q339.95 398.65 339.35 398.2 338.75 397.8 338.65 397.1 L338.65 397.0 Q338.55 396.35 338.95 395.8 339.35 395.25 340.05 395.1 L340.75 395.15 341.4 395.4 M349.3 386.75 L348.55 382.5 M274.55 372.9 L274.65 372.95 274.65 373.0 276.3 382.4 276.3 382.5 276.3 382.55 M308.15 376.9 L306.5 367.3 M351.1 396.85 L351.05 396.7 350.35 392.6 M349.05 400.05 Q345.8 401.05 342.5 401.2 M342.25 399.65 Q345.5 399.55 348.8 398.55 M344.1 410.15 Q347.35 410.0 350.65 409.05 M343.9 398.4 L348.6 397.55 M306.45 367.1 L331.35 362.7" fill="none" stroke="#000000" stroke-linecap="round" stroke-linejoin="round" stroke-opacity="0.5019608" stroke-width="1.0"/>
    <path d="M339.95 332.65 L342.75 332.0 343.25 331.65 343.2 331.35 Q343.1 331.1 342.9 331.15 L338.25 331.8 337.75 331.85 328.65 333.45 Q327.5 333.75 327.25 334.45 327.0 334.9 326.85 335.85 L326.8 336.9 330.1 355.65 M333.3 373.75 L333.75 376.3 M334.2 378.9 L335.25 384.85 M335.45 386.1 L337.75 399.15 338.85 399.3 342.05 398.7 M340.7 337.95 L341.3 337.2 Q340.8 334.55 340.15 333.0 L339.95 332.65 M335.45 386.1 Q335.3 385.7 334.65 385.7 L334.55 385.7 331.75 386.2 Q329.9 386.5 328.55 385.7 326.35 384.65 325.75 382.35 L324.95 375.95 Q324.9 374.6 326.1 374.25 L308.5 377.35 Q308.3 377.45 308.25 377.25 L308.15 376.9 276.3 382.55 276.25 382.55 276.2 382.65 276.0 382.75 275.9 382.7 275.7 382.6 275.7 382.5 275.6 381.8 275.1 379.2 274.35 374.95 274.15 373.8 274.05 373.1 274.05 373.05 274.15 372.8 274.25 372.75 274.45 372.75 274.55 372.9 306.5 367.3 306.45 367.1 305.75 361.95 Q305.85 361.6 306.2 361.55 L309.6 360.95 Q314.35 360.25 318.25 360.8 L323.75 361.1 Q327.85 360.55 329.45 356.35 329.5 355.85 329.85 355.7 L330.1 355.65 M333.3 373.75 L326.9 374.9 Q326.45 375.0 326.15 375.3 325.8 375.65 325.85 376.5 L326.5 382.15 Q327.0 384.1 328.95 385.05 330.15 385.7 331.8 385.5 L335.25 384.85 M334.2 378.9 Q331.15 378.05 327.95 380.0 327.5 380.3 327.3 379.35 327.3 379.0 327.65 378.65 331.05 375.7 333.75 376.3 M340.7 337.95 L348.55 382.5 348.75 382.3 350.15 382.05 351.25 382.3 351.95 386.25 350.9 386.85 349.65 387.05 Q349.4 387.1 349.3 386.75 L350.35 392.6 351.2 392.5 Q351.85 392.4 352.3 392.9 L353.75 394.65 Q354.4 395.8 353.5 396.45 L351.1 396.85 350.7 397.2 348.6 397.55 348.8 398.55 349.05 400.05 350.65 409.05 350.9 409.2 351.2 411.0 351.05 411.25 Q347.9 412.45 344.5 412.35 L344.3 412.15 344.0 410.4 344.1 410.15 342.5 401.2 342.25 399.65 342.05 398.7" fill="none" stroke="#000000" stroke-linecap="round" stroke-linejoin="round" stroke-width="1.0"/>
  </g>
</svg>
