<?xml version="1.0" encoding="UTF-8" standalone="no"?>
<svg xmlns:xlink="http://www.w3.org/1999/xlink" height="209.15px" width="71.65px" xmlns="http://www.w3.org/2000/svg">
  <g transform="matrix(1.0, 0.0, 0.0, 1.0, -287.9, -283.65)">
    <path d="M337.9 360.75 L324.9 287.15 324.95 286.3 Q324.75 285.35 324.15 284.85 322.2 283.1 316.2 285.75 309.15 288.8 307.25 289.2 L297.4 289.9 Q290.1 290.2 288.95 291.2 288.45 291.65 288.5 292.75 L288.4 295.15 292.95 320.9 297.95 326.05 303.25 353.05 M308.4 351.15 L307.25 344.6 Q307.3 341.9 310.85 340.85 L318.4 339.6 Q324.95 340.2 328.0 343.5 L329.8 346.6 331.6 356.75 331.4 358.2 330.85 359.45 Q329.35 361.55 325.35 359.0 317.3 353.65 314.15 352.5 311.0 351.2 308.4 351.15 M337.9 360.75 L341.65 363.3 347.7 397.5 344.85 401.7 359.05 482.1 355.6 487.95 355.45 487.95 353.6 488.3 353.3 486.8 352.35 487.85 Q351.25 488.4 349.55 488.7 L346.6 488.85 Q345.35 488.55 345.25 487.95 L345.25 488.2 344.55 489.9 330.75 492.3 Q327.6 490.95 327.15 488.85 L324.75 475.3 Q323.2 475.2 322.25 473.5 L321.2 467.5 320.8 465.3 320.4 463.1 320.05 460.85 319.65 458.65 319.25 456.5 318.85 454.25 318.5 452.05 318.1 449.85 317.7 447.65 317.3 445.4 316.9 443.2 316.55 441.0 316.15 438.8 315.75 436.6 315.35 434.35 313.95 426.4 Q313.75 423.85 315.25 421.45 L310.45 394.15 315.8 385.3 321.2 384.35 322.05 382.75 319.65 369.25 Q311.6 364.75 307.95 364.15 L301.95 364.9 Q299.2 365.4 298.65 363.5 298.3 362.6 298.65 361.55 L303.25 353.05 M329.35 373.55 L329.1 373.25 Q327.5 371.9 325.65 372.2 323.85 372.55 322.85 374.35 L322.3 375.6 323.35 381.5 324.25 382.4 Q325.85 383.85 327.65 383.5 329.5 383.2 330.5 381.3 L330.65 381.05 329.35 373.55" fill="none" stroke="#000000" stroke-linecap="round" stroke-linejoin="round" stroke-width="1.0"/>
    <path d="M303.25 353.05 Q305.4 351.25 308.4 351.15 M331.4 358.2 L332.05 361.75 337.9 360.75 M319.65 369.25 L321.05 368.25 Q324.0 366.5 328.2 367.2 L329.4 367.45 332.05 361.75 M321.2 384.35 L322.15 389.9 328.9 395.75 334.2 394.85 329.4 367.45 M329.35 373.55 L328.65 369.7 Q325.55 367.05 321.45 370.7 L322.3 375.6 M313.4 394.4 L313.9 394.95 314.55 395.1 315.1 394.75 315.3 394.1 Q315.25 393.7 314.85 393.5 314.55 393.2 314.2 393.25 L313.65 393.7 Q313.35 394.0 313.4 394.4 M317.75 388.65 L317.0 388.45 Q316.65 388.5 316.45 388.9 316.2 389.2 316.25 389.55 L316.7 390.2 317.35 390.3 318.0 389.95 318.1 389.2 317.75 388.65 M318.05 424.9 L318.45 424.75 318.55 424.4 318.35 424.05 317.9 423.95 317.7 424.15 317.6 424.55 317.8 424.85 318.05 424.9 M315.25 421.45 L321.65 420.3 330.55 428.35 337.2 466.1 Q337.1 467.9 336.4 469.65 335.1 473.45 332.0 474.0 L324.75 475.3 M345.25 487.95 L341.15 464.95 340.65 462.0 336.65 439.45 336.35 437.5 334.4 426.45 Q334.25 425.8 335.4 425.2 336.45 424.55 338.15 424.25 L341.15 424.2 Q342.1 424.35 342.4 424.75 L344.35 435.9 344.7 437.95 348.75 460.8 349.25 463.8 353.3 486.8 M326.15 429.0 L326.05 429.25 Q326.1 429.55 326.3 429.65 L326.65 429.7 327.0 429.5 327.0 429.1 326.85 428.85 326.5 428.8 326.15 429.0 M336.35 437.5 Q336.3 436.95 337.35 436.3 338.45 435.65 340.15 435.35 L343.1 435.3 Q344.05 435.45 344.35 435.9 M344.7 437.95 Q344.4 437.4 343.45 437.35 342.2 437.05 340.5 437.35 338.8 437.65 337.7 438.35 336.6 438.9 336.65 439.45 M344.85 401.7 L335.6 403.35 334.2 394.85 M349.25 463.8 Q349.15 464.3 348.3 464.85 347.2 465.45 345.5 465.75 L342.55 465.85 Q341.3 465.6 341.15 464.95 M340.65 462.0 Q340.75 462.55 342.05 462.85 L344.95 462.7 347.8 461.85 348.75 460.8 M333.95 468.6 L334.3 468.45 334.35 468.1 334.2 467.8 333.75 467.7 333.5 467.9 333.4 468.3 333.6 468.55 333.95 468.6 M326.8 472.15 L327.15 471.95 327.2 471.6 327.05 471.25 326.65 471.25 Q326.45 471.25 326.35 471.4 L326.25 471.75 326.45 472.1 326.8 472.15 M331.45 487.4 Q331.15 487.45 331.0 487.85 330.7 488.15 330.75 488.45 330.85 488.85 331.25 489.1 L331.8 489.25 332.45 488.85 332.55 488.15 332.2 487.6 331.45 487.4 M317.7 447.65 L328.45 445.75 M319.65 458.65 L330.4 456.75 M320.05 460.85 L330.8 458.95 M320.4 463.1 L331.15 461.2 M320.8 465.3 L331.55 463.4 M321.2 467.5 L331.95 465.6 M318.85 454.25 L329.6 452.35 M319.25 456.5 L330.0 454.6 M318.1 449.85 L328.85 447.95 M318.5 452.05 L329.25 450.15 M317.3 445.4 L328.05 443.5 M316.9 443.2 L327.65 441.3 M316.55 441.0 L327.3 439.1 M316.15 438.8 L326.9 436.9 M315.75 436.6 L326.5 434.7 M315.35 434.35 L326.1 432.45" fill="none" stroke="#000000" stroke-linecap="round" stroke-linejoin="round" stroke-opacity="0.49803922" stroke-width="1.0"/>
  </g>
</svg>
