<?xml version="1.0" encoding="UTF-8" standalone="no"?>
<svg xmlns:xlink="http://www.w3.org/1999/xlink" height="61.5px" width="120.8px" xmlns="http://www.w3.org/2000/svg">
  <g transform="matrix(1.0, 0.0, 0.0, 1.0, -339.5, -204.35)">
    <path d="M413.3 215.6 L413.9 225.2 Q414.1 226.35 414.6 226.75 L410.4 227.95 Q431.1 229.7 434.6 228.35 447.2 234.15 460.3 235.65 457.2 242.0 439.0 239.45 437.05 237.1 434.15 236.45 L406.1 229.15 403.1 229.95 403.1 229.2 404.5 228.7 403.1 228.35 403.1 227.25 407.35 227.65 411.65 226.1 411.65 213.75 407.15 204.35 414.6 213.3 Q413.35 214.35 413.3 215.6 M409.1 221.15 Q409.3 222.45 409.9 222.65 L402.8 225.95 401.95 225.6 407.75 222.45 406.15 214.3 402.1 208.85 408.25 213.2 Q407.3 213.55 407.55 214.65 L409.1 221.15 M414.35 235.55 Q413.8 235.95 413.6 237.1 L416.35 249.6 Q416.6 250.85 418.0 251.75 L408.4 265.85 414.7 251.8 410.95 236.4 402.8 233.1 402.8 232.35 414.35 235.55 Q409.35 233.75 403.1 231.9 L403.1 230.15 432.5 237.85 Q435.4 238.5 437.95 241.25 L448.9 242.2 Q442.8 246.0 431.7 244.4 427.6 240.3 414.35 235.55 M396.7 230.05 L396.7 231.8 Q373.75 238.65 368.05 244.25 357.0 245.9 350.9 242.1 L361.85 241.15 Q364.4 238.35 367.3 237.75 L396.7 230.05 M396.95 219.75 Q396.85 217.85 396.5 217.6 L398.55 215.45 Q397.25 217.45 398.7 218.7 L396.95 219.75 M402.85 219.75 L401.05 218.7 Q402.55 217.45 401.2 215.45 L403.3 217.6 Q402.95 217.85 402.85 219.75 M386.5 215.6 Q386.4 214.35 385.2 213.3 L392.6 204.35 388.1 213.75 388.1 226.1 392.2 227.6 396.7 227.15 396.7 228.2 395.1 228.65 396.7 229.2 396.7 229.95 393.5 229.05 365.65 236.35 Q362.75 236.95 360.8 239.3 342.55 241.9 339.5 235.55 352.6 234.0 365.2 228.2 368.6 229.6 389.15 227.85 L385.15 226.75 Q385.7 226.35 385.9 225.2 L386.5 215.6 M392.2 214.65 Q392.45 213.55 391.55 213.2 L397.7 208.85 393.65 214.3 392.05 222.45 397.85 225.6 397.0 225.95 389.9 222.65 Q390.45 222.45 390.7 221.15 L392.2 214.65 M409.9 238.9 Q409.35 239.05 409.1 240.35 L408.7 250.3 Q408.7 251.15 409.65 251.75 L403.4 258.8 407.0 251.6 407.8 239.45 402.25 236.4 403.1 235.85 409.9 238.9 M397.0 233.1 L388.85 236.4 385.1 251.8 391.4 265.85 381.8 251.75 Q383.15 250.85 383.4 249.6 L386.2 237.1 Q386.0 235.95 385.45 235.55 L397.0 232.35 397.0 233.1 M389.85 238.9 L396.7 235.85 397.55 236.4 392.0 239.45 392.8 251.6 396.4 258.8 390.1 251.75 Q391.1 251.15 391.1 250.3 L390.7 240.35 Q390.45 239.05 389.85 238.9 M400.85 250.35 L399.9 256.7 398.95 250.35 399.9 251.1 400.85 250.35" fill="#000000" fill-rule="evenodd" stroke="none"/>
  </g>
</svg>
