<?xml version="1.0" encoding="UTF-8" standalone="no"?>
<svg xmlns:xlink="http://www.w3.org/1999/xlink" height="32.5px" width="33.95px" xmlns="http://www.w3.org/2000/svg">
  <g transform="matrix(1.0, 0.0, 0.0, 1.0, -382.9, -209.3)">
    <path d="M412.5 215.7 Q411.2 213.25 409.6 211.55 412.2 213.35 413.8 215.7 L412.5 215.7 M406.25 214.05 L404.9 211.2 403.9 209.65 404.45 209.95 Q406.3 210.95 407.8 212.45 409.25 213.9 410.3 215.7 L406.8 215.7 406.25 214.05 M407.25 217.65 L411.3 217.65 411.5 218.15 Q412.65 221.35 412.85 224.55 L408.1 224.55 Q408.05 221.6 407.45 218.55 L407.25 217.65 M405.4 218.05 Q406.1 221.35 406.2 224.55 L400.85 224.55 400.85 217.65 405.3 217.65 405.4 218.05 M414.95 217.65 L416.15 220.45 Q416.8 222.8 416.85 224.55 L414.75 224.55 Q414.7 221.35 413.55 218.3 L413.3 217.65 414.95 217.65 M415.55 232.15 L415.0 233.35 413.4 233.35 Q414.6 230.1 414.75 226.45 L416.85 226.45 Q416.7 229.25 415.55 232.15 M405.35 233.35 L400.85 233.35 400.85 226.45 406.2 226.45 Q406.1 229.1 405.6 232.2 L405.35 233.35 M411.3 233.35 L407.3 233.35 Q408.05 229.85 408.1 226.45 L412.85 226.45 Q412.8 229.2 411.75 232.1 L411.3 233.35 M410.3 235.25 Q408.95 237.75 406.7 239.55 405.4 240.65 403.95 241.35 L404.9 239.85 Q406.0 238.05 406.8 235.25 L410.3 235.25 M409.6 239.4 L412.55 235.25 413.8 235.25 Q412.2 237.6 409.6 239.4 M401.45 209.75 Q402.35 210.55 403.3 212.25 404.15 213.8 404.75 215.7 L400.85 215.7 400.85 209.3 401.45 209.75 M390.95 211.15 Q388.9 213.05 387.65 215.7 L386.0 215.7 Q387.9 213.05 390.4 211.45 L391.0 211.05 390.95 211.15 M386.75 217.65 Q385.5 220.85 385.3 224.55 L382.9 224.55 Q383.1 221.65 384.2 218.9 L384.8 217.65 386.75 217.65 M388.85 217.65 L392.85 217.65 Q392.1 221.05 392.0 224.55 L387.2 224.55 Q387.4 221.6 388.3 218.95 L388.85 217.65 M394.8 217.65 L398.9 217.65 398.9 224.55 393.95 224.55 Q394.05 221.4 394.55 218.95 L394.8 217.65 M393.35 211.5 Q394.9 210.3 396.2 209.65 L395.15 211.35 Q394.1 213.15 393.35 215.7 L389.8 215.7 Q391.3 213.2 393.35 211.5 M396.8 212.15 L397.85 210.65 398.9 209.6 398.9 215.7 395.3 215.7 395.7 214.75 396.8 212.15 M382.9 226.45 L385.3 226.45 Q385.5 229.7 386.5 232.75 L386.75 233.35 384.8 233.35 383.7 230.6 Q383.1 228.75 382.9 226.45 M398.9 233.35 L394.8 233.35 394.7 233.1 Q394.05 230.15 393.95 226.45 L398.9 226.45 398.9 233.35 M388.6 232.85 Q387.4 229.8 387.2 226.45 L392.0 226.45 Q392.15 229.85 392.6 232.55 L392.8 233.35 388.8 233.35 388.6 232.85 M391.0 240.0 Q387.95 238.1 385.95 235.25 L387.6 235.25 Q388.8 237.75 391.0 240.0 M393.3 235.25 L393.9 237.05 395.2 239.9 396.1 241.35 395.75 241.1 Q394.0 240.25 392.3 238.55 391.0 237.25 389.8 235.25 L393.3 235.25 M403.25 238.95 L402.2 240.45 400.85 241.8 400.85 235.25 404.8 235.25 404.4 236.4 403.25 238.95 M395.3 235.25 L398.9 235.25 398.9 241.5 398.7 241.35 Q397.8 240.55 396.8 238.85 396.0 237.45 395.3 235.25" fill="#000000" fill-rule="evenodd" stroke="none"/>
  </g>
</svg>
