<?xml version="1.0" encoding="UTF-8" standalone="no"?>
<svg xmlns:xlink="http://www.w3.org/1999/xlink" height="20.5px" width="44.65px" xmlns="http://www.w3.org/2000/svg">
  <g transform="matrix(1.0, 0.0, 0.0, 1.0, -378.05, -213.15)">
    <path d="M422.7 218.8 L420.4 220.6 422.45 222.75 417.05 223.6 416.7 222.25 416.1 222.25 Q408.45 222.25 400.95 223.6 L398.8 224.0 Q392.55 225.15 386.45 227.2 385.6 227.35 384.9 227.65 L385.55 229.45 379.65 231.15 381.15 228.45 378.05 227.3 382.2 225.75 381.15 223.1 383.7 222.2 Q387.6 220.75 391.25 219.75 L393.15 219.25 399.55 217.8 400.3 217.65 Q408.4 216.25 415.6 216.8 L417.95 217.0 417.95 218.8 422.7 218.8 M416.1 233.65 L409.85 230.2 411.15 229.2 416.75 232.35 416.1 233.65 M387.25 217.45 L381.4 214.2 382.85 214.2 382.25 213.15 387.95 216.25 387.25 217.45" fill="#000000" fill-rule="evenodd" stroke="none"/>
  </g>
</svg>
