<?xml version="1.0" encoding="UTF-8" standalone="no"?>
<svg xmlns:xlink="http://www.w3.org/1999/xlink" height="37.0px" width="31.95px" xmlns="http://www.w3.org/2000/svg">
  <g transform="matrix(1.0, 0.0, 0.0, 1.0, -385.9, -202.9)">
    <path d="M406.25 213.35 L409.65 207.85 404.65 209.45 403.8 205.65 414.8 202.9 417.85 213.6 414.25 214.65 413.15 209.65 409.8 216.0 Q413.9 220.05 413.9 225.9 413.9 231.7 409.8 235.8 405.7 239.9 399.9 239.9 394.1 239.9 390.0 235.8 388.3 234.05 387.3 232.05 385.9 229.25 385.9 225.9 385.9 222.55 387.3 219.75 388.3 217.7 390.0 216.0 394.1 211.85 399.9 211.85 403.3 211.85 406.1 213.25 L406.25 213.35 M407.1 232.8 Q410.05 229.85 410.05 225.8 410.05 221.65 407.1 218.8 404.25 215.85 400.1 215.85 396.05 215.85 393.1 218.8 390.25 221.65 390.25 225.8 390.25 229.85 393.1 232.8 396.05 235.65 400.1 235.65 404.25 235.65 407.1 232.8" fill="#000000" fill-rule="evenodd" stroke="none"/>
  </g>
</svg>
