<?xml version="1.0" encoding="UTF-8" standalone="no"?>
<svg xmlns:xlink="http://www.w3.org/1999/xlink" height="35.1px" width="35.15px" xmlns="http://www.w3.org/2000/svg">
  <g transform="matrix(1.0, 0.0, 0.0, 1.0, -382.95, -207.5)">
    <path d="M408.95 220.95 Q410.0 220.95 410.0 221.7 L410.0 222.15 409.75 222.4 400.05 227.1 399.3 227.0 Q398.8 226.95 398.8 226.4 L398.8 214.7 Q398.8 214.5 399.25 214.25 L399.9 214.1 Q400.1 214.1 400.55 214.4 401.0 214.7 401.0 215.05 L401.0 223.85 401.7 223.85 408.35 220.95 408.95 220.95 M410.85 214.65 Q408.85 212.6 406.25 211.45 403.5 210.25 400.5 210.25 397.4 210.25 394.7 211.45 392.2 212.6 390.15 214.65 388.25 216.65 387.1 219.25 385.95 221.9 385.95 224.9 385.95 228.0 387.1 230.65 388.25 233.4 390.15 235.35 392.15 237.35 394.7 238.45 397.3 239.6 400.5 239.6 403.55 239.6 406.15 238.45 408.75 237.35 410.8 235.35 412.8 233.35 413.9 230.7 415.1 227.95 415.1 224.9 415.1 222.05 413.9 219.25 412.8 216.6 410.85 214.65 M413.2 212.6 Q415.55 214.95 416.8 218.25 418.1 221.5 418.1 225.3 418.1 228.85 416.7 232.1 415.25 235.3 412.9 237.65 410.45 239.95 407.3 241.3 404.05 242.6 400.5 242.6 396.75 242.6 393.5 241.25 390.2 239.75 387.95 237.45 385.6 235.1 384.25 231.8 382.95 228.5 382.95 224.8 382.95 221.15 384.35 218.0 385.65 214.85 388.1 212.45 390.5 210.15 393.7 208.8 396.95 207.5 400.5 207.5 404.4 207.5 407.6 208.85 410.85 210.3 413.2 212.6" fill="#000000" fill-rule="evenodd" stroke="none"/>
  </g>
</svg>
