<?xml version="1.0" encoding="UTF-8" standalone="no"?>
<svg xmlns:xlink="http://www.w3.org/1999/xlink" height="35.05px" width="31.25px" xmlns="http://www.w3.org/2000/svg">
  <g transform="matrix(1.0, 0.0, 0.0, 1.0, -384.2, -209.5)">
    <path d="M405.85 216.7 L407.9 216.35 Q413.45 215.65 414.95 218.25 416.5 220.95 413.15 225.5 L411.9 227.05 413.2 228.65 Q416.5 233.1 414.95 235.8 413.45 238.4 407.95 237.75 L405.85 237.45 405.1 239.45 Q402.9 244.55 399.8 244.55 396.75 244.55 394.55 239.45 L393.85 237.5 391.7 237.85 Q386.2 238.5 384.65 235.8 383.15 233.2 386.45 228.75 L387.85 227.05 386.5 225.4 Q383.15 220.85 384.65 218.25 386.2 215.55 391.75 216.25 L393.85 216.6 394.55 214.65 Q396.75 209.5 399.8 209.5 402.9 209.5 405.1 214.65 L405.85 216.7 M404.15 227.05 Q404.15 225.25 402.9 223.95 401.6 222.65 399.8 222.65 398.0 222.65 396.7 223.95 395.4 225.25 395.4 227.05 395.4 228.85 396.7 230.15 398.0 231.45 399.8 231.45 401.6 231.45 402.9 230.15 404.15 228.85 404.15 227.05" fill="#000000" fill-rule="evenodd" stroke="none"/>
  </g>
</svg>
