<?xml version="1.0" encoding="UTF-8" standalone="no"?>
<svg xmlns:xlink="http://www.w3.org/1999/xlink" height="9.35px" width="44.15px" xmlns="http://www.w3.org/2000/svg">
  <g transform="matrix(1.0, 0.0, 0.0, 1.0, -377.85, -128.75)">
    <path d="M402.0 134.5 Q402.9 137.05 404.55 136.75 403.15 135.65 405.55 134.85 412.25 131.15 416.9 131.45 419.8 131.75 421.5 133.7 L417.35 132.65 415.4 132.95 413.25 133.5 410.05 134.45 409.75 134.6 408.75 134.9 408.7 135.0 Q406.85 135.7 405.0 136.6 L404.55 136.75 Q403.3 137.7 401.8 137.6 L398.05 137.6 Q396.55 137.7 395.3 136.75 L394.85 136.6 391.15 135.0 391.1 134.9 390.1 134.6 389.8 134.45 386.6 133.5 384.45 132.95 382.5 132.65 378.35 133.7 Q380.05 131.75 382.95 131.45 387.55 131.15 394.25 134.85 396.65 135.65 395.3 136.75 396.95 137.05 397.85 134.5 M396.85 133.2 Q395.05 131.0 392.1 129.25 M402.95 133.2 Q404.8 131.0 407.7 129.25" fill="none" stroke="#000000" stroke-linecap="round" stroke-linejoin="round" stroke-opacity="0.5019608" stroke-width="1.0"/>
  </g>
</svg>
