<?xml version="1.0" encoding="UTF-8" standalone="no"?>
<svg xmlns:xlink="http://www.w3.org/1999/xlink" height="363.3px" width="517.95px" xmlns="http://www.w3.org/2000/svg">
  <g transform="matrix(1.0, 0.0, 0.0, 1.0, -132.55, -152.95)">
    <path d="M526.3 156.8 Q536.95 158.3 540.4 162.25 543.8 166.2 551.1 169.8 L564.95 171.8 Q571.3 172.95 578.3 179.5 585.25 186.1 591.55 192.9 L603.9 206.25 614.75 218.65 Q660.0 268.35 647.15 321.65 645.7 327.55 643.55 333.55 642.45 337.85 642.4 342.75 642.15 356.65 633.95 367.0 625.7 377.45 625.15 390.85 627.95 399.4 627.95 407.4 627.95 417.8 627.2 428.15 626.95 432.05 625.75 435.4 625.9 461.8 626.55 466.25 627.2 470.75 628.95 473.55 630.7 476.35 628.7 481.5 L629.5 483.4 Q630.8 487.85 632.75 491.5 634.75 493.55 633.95 496.9 633.45 499.0 631.3 498.9 626.4 498.6 622.25 499.6 619.05 501.15 618.4 498.05 617.8 500.25 615.15 501.05 L611.5 500.8 Q606.15 500.25 602.45 501.8 598.8 502.3 597.25 500.15 596.55 501.4 595.75 501.7 591.25 503.15 587.05 501.3 586.0 499.35 585.95 496.9 585.95 494.9 586.6 492.55 587.7 488.5 591.4 485.15 L591.85 484.75 Q593.1 481.0 593.3 476.65 593.45 472.3 593.95 468.5 594.4 464.6 593.9 461.75 593.4 453.45 593.35 444.7 L593.35 422.85 Q593.35 412.45 591.8 404.75 590.25 397.0 589.15 385.2 588.1 373.4 582.9 368.25 577.7 363.05 574.25 360.45 570.3 356.6 566.8 352.0 553.65 367.7 536.9 381.65 537.45 386.8 537.0 391.2 L535.9 402.8 Q535.35 408.8 535.35 414.85 L535.05 427.0 Q535.05 432.3 535.45 437.6 535.95 443.85 532.3 447.9 528.9 451.65 524.3 454.2 L521.6 458.4 Q519.45 461.4 518.05 465.1 516.15 469.95 513.2 473.35 513.4 477.15 514.25 480.9 515.45 486.3 515.0 492.55 514.1 496.65 510.35 498.85 506.1 501.3 500.0 500.45 L498.85 502.65 Q497.8 505.05 493.7 504.65 488.65 507.45 482.5 505.25 481.55 504.15 481.1 502.95 476.25 506.55 469.75 504.2 466.9 503.2 467.0 500.25 467.05 498.35 467.55 496.7 468.6 493.3 471.45 490.95 475.25 487.75 478.0 483.95 L479.25 481.95 483.5 470.5 Q485.45 464.9 486.25 459.0 L487.75 448.5 Q488.65 442.65 488.55 436.45 488.5 433.75 487.8 431.75 L484.55 419.9 Q482.9 414.65 483.45 408.35 484.0 402.0 484.0 395.95 L483.75 393.5 471.6 395.15 Q453.75 396.8 442.2 395.05 430.6 393.25 416.6 393.75 412.8 400.35 410.0 406.85 406.25 415.5 401.0 423.4 395.75 431.25 392.85 441.6 L386.7 463.1 Q383.2 475.15 378.5 484.15 380.15 486.55 380.3 490.5 L385.4 499.8 Q388.75 505.7 385.0 511.2 381.65 514.8 377.1 513.15 374.45 512.2 372.2 513.55 368.7 513.0 368.35 510.15 L365.0 510.35 Q363.8 514.1 360.05 514.55 357.6 513.75 354.6 514.05 L349.9 515.75 Q344.8 515.35 343.1 511.6 340.2 515.4 335.1 514.5 331.05 513.8 330.3 509.9 331.6 505.9 330.6 501.7 330.1 496.1 333.35 493.45 336.25 491.15 339.55 490.6 330.8 490.15 327.2 485.1 320.9 474.1 316.15 472.85 308.1 470.55 302.2 467.6 299.45 467.7 293.45 466.25 287.5 464.8 282.7 461.95 277.9 459.1 275.15 454.85 L269.45 445.3 Q266.5 439.95 265.3 434.45 264.1 428.95 263.75 426.1 L258.85 429.95 Q251.45 435.6 244.8 439.8 238.1 444.0 230.05 449.45 227.35 451.35 222.5 453.25 215.0 452.55 210.9 455.95 206.7 459.4 200.55 459.6 L193.75 459.65 Q189.95 455.75 186.25 452.3 182.35 448.65 179.25 444.1 177.7 439.8 176.05 436.75 174.6 432.7 177.9 429.95 176.2 427.95 176.3 424.1 175.3 421.8 175.15 419.1 174.5 417.45 173.45 416.8 170.7 416.05 170.15 413.6 164.7 411.7 161.3 408.85 156.95 405.25 151.9 400.2 146.9 395.1 142.9 387.5 138.95 379.9 137.35 373.35 L134.0 359.6 Q133.5 357.6 133.25 355.2 132.65 349.0 133.7 339.95 136.35 341.05 137.95 346.05 138.95 349.15 140.3 351.2 144.0 357.1 148.5 362.05 L157.4 371.9 Q161.85 376.75 168.75 379.65 173.95 381.85 180.1 383.45 181.2 382.65 181.5 381.35 179.5 379.3 182.1 376.35 L182.6 376.1 181.1 372.95 Q180.2 368.85 177.85 365.25 L173.6 358.85 Q171.7 356.1 169.75 352.15 168.2 349.0 166.75 339.95 167.8 339.2 174.4 341.15 181.05 343.15 186.85 344.2 192.6 345.2 196.7 347.6 L197.0 347.8 Q198.1 346.25 199.4 346.25 200.05 341.4 199.95 336.3 199.9 331.35 198.7 327.45 195.5 317.2 196.0 304.9 196.25 299.05 198.25 294.4 199.25 292.1 200.65 290.05 200.05 286.35 199.95 281.8 195.2 277.65 192.85 272.55 190.4 267.05 190.9 260.4 191.5 253.45 197.9 251.85 200.95 251.1 201.9 252.7 L210.1 258.7 Q214.65 262.0 216.9 267.35 217.8 269.6 218.45 273.55 223.1 269.8 231.0 266.9 231.9 262.25 234.7 258.45 237.05 255.15 240.9 252.5 L245.15 248.9 Q247.4 246.95 249.95 246.05 253.95 238.1 260.1 234.3 266.3 230.5 267.85 225.0 269.35 219.5 279.1 212.05 288.9 204.65 306.15 184.9 321.3 167.55 353.8 158.75 358.9 151.25 370.1 154.35 379.55 156.9 386.7 159.25 393.9 161.6 403.3 162.3 412.65 162.95 423.7 164.9 434.75 166.75 444.35 166.0 L464.3 165.35 484.25 164.45 Q493.85 163.4 500.05 161.7 506.25 160.0 510.9 157.65 515.65 155.3 526.3 156.8 M350.4 387.8 Q347.0 389.75 343.35 392.8 339.7 395.75 331.85 399.1 323.95 402.45 317.5 411.1 311.5 419.2 306.2 428.9 309.65 434.45 303.2 436.6 308.0 438.8 312.5 441.4 313.1 441.75 313.35 442.55 317.4 443.0 318.15 440.15 321.25 437.95 323.95 439.0 331.55 438.75 338.2 441.3 342.55 443.0 343.45 447.9 345.35 451.75 349.55 453.05 350.45 450.6 351.55 448.3 349.15 442.25 351.7 432.05 352.8 427.55 354.5 422.95 355.3 420.8 356.25 419.0 356.2 406.6 355.75 394.15 L355.6 389.85 Q352.35 389.45 350.4 387.8" fill="none" stroke="#000000" stroke-linecap="round" stroke-linejoin="round" stroke-width="1.0"/>
    <path d="M551.1 169.8 Q543.6 168.95 538.4 167.15 533.15 165.3 528.3 165.55 L523.4 165.7 M353.8 158.75 L363.2 156.45 M283.5 303.5 Q283.5 306.45 284.4 309.1 287.2 317.0 293.25 323.3 L293.65 323.65 Q299.2 329.35 299.9 339.95 300.65 350.55 298.1 362.0 296.45 369.25 295.75 373.9 L300.8 374.25 Q308.15 373.9 312.25 368.1 317.4 360.85 321.05 352.1 322.35 348.95 324.15 339.9 L324.2 339.5 Q326.05 330.05 325.95 320.1 325.8 310.15 322.95 289.95 L322.9 284.95 322.3 272.9 322.0 269.0 Q321.5 263.7 318.0 259.8 312.9 254.15 309.4 245.65 M348.0 354.75 Q344.6 354.9 342.25 357.5 L341.85 357.95 342.1 358.0 Q355.35 362.1 363.0 353.35 370.3 344.95 382.7 348.95 393.6 352.5 403.0 354.6 406.8 355.2 409.25 354.6 410.75 347.75 408.85 343.65 407.15 340.15 403.0 338.7 M350.4 387.8 Q348.4 386.2 347.6 383.45 336.7 383.35 333.65 381.45 L331.65 380.2 Q320.9 377.85 309.25 378.1 302.75 378.15 300.8 374.25 M347.6 383.45 Q346.7 380.4 347.15 375.95 348.0 367.95 344.4 363.2 M355.6 389.85 Q355.3 379.9 355.3 369.9 M342.55 375.95 Q334.45 366.5 341.85 357.95 M319.5 366.25 Q327.2 359.9 332.25 350.55 335.2 345.25 339.55 340.75 M347.45 349.25 Q349.75 342.05 357.15 339.65 M456.8 354.8 Q459.7 350.0 461.05 344.05 462.45 337.65 461.95 329.95 L461.55 322.55 Q461.05 312.2 461.05 301.75 L461.05 291.8 M441.6 338.65 Q441.25 341.25 439.85 343.0 433.6 350.65 430.35 361.5 L428.8 366.4 Q434.4 357.35 444.15 348.55 449.35 343.85 451.9 336.5 453.55 331.75 454.1 325.9 L454.5 319.85 Q454.8 310.55 453.25 301.0 M428.8 366.4 Q425.9 375.15 422.5 383.0 421.1 386.25 419.2 389.3 L416.6 393.75 M409.25 354.6 L410.5 354.15 M483.75 393.5 Q492.8 391.95 498.45 389.45 L516.85 381.1 Q526.25 376.7 558.45 342.25 L559.65 340.95 Q564.8 335.2 569.5 328.2 582.4 308.85 591.9 279.6 599.85 254.9 605.35 223.2 M534.2 383.85 L536.9 381.65 M559.65 340.95 Q562.95 346.95 566.8 352.0 M585.55 357.6 L585.5 330.0 585.5 329.25 Q585.5 315.45 589.7 305.9 594.85 294.4 591.9 279.6 M595.85 391.1 Q595.6 386.6 593.3 382.9 L591.95 380.6 M607.6 395.5 Q610.65 392.85 615.2 392.25 617.7 391.9 619.8 392.85 M231.0 266.9 L235.25 265.45 Q246.2 262.05 256.25 265.1 266.3 268.15 270.35 272.95 L275.25 270.15 281.15 264.45 283.45 262.45 292.1 255.1 Q292.25 251.7 291.85 247.95 293.05 248.6 293.6 250.5 L294.1 252.6 294.2 253.2 Q300.55 266.5 299.4 277.55 298.25 288.65 293.7 292.75 290.7 295.4 286.15 295.2 278.7 294.85 275.25 298.7 274.75 302.95 275.25 309.9 275.7 316.45 275.25 322.05 270.55 328.55 275.25 332.5 M249.95 246.05 Q255.85 243.95 263.0 247.8 L269.1 251.1 Q274.95 254.3 280.8 255.95 M269.55 297.3 Q266.95 297.05 264.85 295.6 262.45 294.0 260.7 290.95 L259.75 288.9 M292.1 255.1 Q292.0 258.15 291.45 260.9 290.85 264.15 290.85 267.55 289.3 273.4 285.15 276.75 281.05 280.05 277.95 284.35 276.05 287.1 278.05 291.05 278.95 286.8 282.2 283.85 L286.65 279.55 Q290.6 275.5 292.45 270.65 294.3 265.9 294.55 259.85 294.7 256.3 294.2 253.2 M277.65 293.95 Q277.7 292.4 278.05 291.05 M271.25 292.25 Q269.75 291.25 268.55 289.95 266.05 287.25 265.0 283.3 264.5 281.25 264.5 279.05 M265.15 276.35 Q267.5 274.65 270.35 272.95 M261.1 283.1 Q263.2 287.15 265.6 291.2 M308.35 306.75 Q309.1 295.85 306.2 287.15 L302.95 277.55 M322.3 272.9 Q326.55 261.15 322.05 254.35 319.75 250.8 319.15 246.75 M199.95 281.8 L199.95 277.4 Q200.05 273.9 199.15 271.05 198.35 268.55 196.8 266.6 M200.65 290.05 Q202.85 286.95 205.95 284.6 210.25 281.3 216.4 275.35 L218.45 273.55 M215.1 299.05 Q216.6 305.2 219.0 311.3 L223.15 322.0 Q224.45 325.6 224.15 329.8 L223.55 336.25 M182.05 383.95 L180.1 383.45 M181.8 402.25 Q182.4 400.05 182.65 397.65 L182.8 393.75 Q183.5 391.8 183.5 389.65 M186.0 404.05 L186.0 398.4 188.95 391.8 Q188.35 386.5 184.75 385.1 M190.8 384.8 Q186.4 384.05 182.85 382.3 L181.5 381.35 M192.45 381.9 Q187.3 383.0 184.7 379.45 L182.6 376.1 M197.0 347.8 Q200.85 350.05 203.15 352.2 L208.25 356.2 M196.35 381.2 Q198.6 378.4 203.0 377.9 L204.3 377.8 Q205.75 377.75 206.9 376.7 210.0 374.1 211.25 370.25 212.9 365.1 211.55 361.4 211.0 360.0 209.45 358.65 M206.05 350.15 Q204.15 350.3 203.25 349.1 201.2 346.25 199.4 346.25 M213.75 393.75 Q210.75 391.35 206.65 390.1 M197.35 384.3 Q200.1 382.4 203.25 381.3 L203.4 381.25 Q205.0 380.7 206.5 379.8 L210.95 376.6 Q212.75 375.0 213.1 372.2 M236.45 387.05 Q239.3 386.35 240.05 383.7 240.2 379.25 243.6 377.35 245.85 376.05 247.95 376.45 248.55 377.4 247.8 378.35 L245.8 378.6 Q246.45 384.55 241.25 383.1 240.75 383.65 240.05 383.7 M258.5 385.7 Q255.05 386.9 253.2 389.9 251.25 393.1 248.45 395.25 246.7 396.55 245.0 396.75 243.0 396.95 241.05 395.7 L235.2 391.7 Q232.35 389.7 232.35 385.5 232.35 380.85 230.15 378.25 M257.95 399.2 Q253.45 401.65 247.75 403.0 L242.85 403.55 Q238.2 401.45 231.65 401.2 224.45 401.75 221.8 396.15 223.1 390.0 223.2 383.6 L223.15 382.4 Q223.0 380.1 221.85 378.85 M245.8 378.6 Q243.0 379.4 241.9 382.05 L241.25 383.1 M254.25 370.4 L245.8 369.65 Q241.4 368.85 238.2 370.75 237.15 371.3 236.45 372.2 M300.75 326.25 L298.9 322.25 Q296.75 318.25 293.6 314.05 L291.45 311.3 M283.5 299.75 Q292.6 302.8 297.65 308.3 300.55 311.55 300.75 315.95 M271.9 302.35 L269.7 303.3 Q266.45 304.2 263.85 302.0 L263.8 302.0 Q262.7 301.05 261.7 299.6 258.2 294.55 256.0 288.9 M265.8 309.85 Q262.9 309.6 260.55 308.6 257.4 307.1 255.35 304.2 254.15 302.45 253.3 299.95 252.2 296.6 252.3 292.95 M245.2 290.9 Q247.4 296.25 250.05 301.65 252.0 305.5 254.65 309.5 M265.45 325.75 Q259.35 324.6 255.35 320.3 251.9 316.65 249.2 311.35 M259.9 376.7 L259.65 374.05 Q259.65 372.45 260.1 371.0 L260.9 369.1 Q261.65 367.65 261.45 365.9 M247.75 373.1 Q250.05 373.25 252.15 374.55 L250.85 374.9 M241.2 385.25 Q245.85 385.85 248.3 383.1 248.8 382.5 248.65 381.2 M241.2 389.1 L249.3 389.5 Q251.65 389.1 253.2 386.8 255.05 384.05 254.2 379.15 254.85 376.05 252.9 375.4 M257.2 373.3 L249.95 371.8 M263.75 376.95 Q263.4 375.45 263.45 374.15 263.5 371.55 264.85 369.55 M295.75 373.9 L295.25 378.4 Q294.95 383.3 293.95 386.1 L290.8 393.85 Q288.4 398.8 285.2 403.85 279.6 412.8 272.9 418.5 L263.75 426.1 M303.2 436.6 Q294.1 434.25 287.65 438.75 M313.35 442.55 L313.55 443.75 Q313.55 448.45 317.15 450.75 M306.2 428.9 Q296.75 424.0 291.2 415.2 M311.4 468.85 L302.2 467.6 M308.5 444.2 Q309.25 451.15 315.4 454.2 M220.85 413.7 Q225.6 409.45 232.35 409.35 236.0 409.25 238.45 410.65 M222.65 424.05 Q227.85 421.25 236.65 420.7 236.35 418.9 234.75 417.95 M235.75 406.9 Q232.3 406.0 228.65 405.65 L223.2 405.45 222.2 405.4 Q219.15 405.15 217.45 402.85 M223.55 409.25 Q218.65 411.55 213.5 414.7 L212.7 415.15 Q209.75 416.95 205.95 417.4 M231.35 417.4 Q224.3 417.1 218.75 418.9 L212.85 420.85 208.0 422.5 Q204.65 423.55 202.6 424.85 M230.3 428.2 L221.85 427.85 Q214.8 428.05 210.5 430.75 208.1 432.25 205.75 432.85 L205.7 432.85 204.8 433.05 Q198.6 434.2 196.15 440.05 M206.0 444.7 L206.45 445.55 Q214.85 445.7 215.65 437.2 209.3 434.45 205.85 439.55 204.25 441.9 206.0 444.7 M215.65 437.2 L216.8 437.7 Q217.8 436.35 217.95 435.1 218.0 433.5 216.75 432.05 M236.65 420.7 Q236.95 422.7 235.65 425.75 233.8 427.65 231.25 429.35 232.05 432.85 231.65 435.4 231.35 437.8 229.95 439.4 226.9 442.65 222.85 439.75 M221.2 446.85 Q226.6 444.55 231.1 441.1 L233.7 439.05 M220.5 429.95 L229.3 430.55 231.25 429.35 M198.9 399.15 L197.7 401.8 Q196.95 403.4 196.55 405.15 195.5 409.25 196.15 414.35 M172.85 410.5 Q177.35 410.1 179.7 407.1 180.6 405.9 180.85 404.2 M170.15 413.6 L173.2 414.5 M181.3 436.7 Q178.9 435.0 177.25 431.9 L177.9 429.95 M201.55 422.5 Q195.7 424.55 190.5 426.75 M182.6 441.4 Q187.4 443.5 193.05 442.95 M187.7 440.75 Q189.95 435.1 186.4 429.55 M202.25 445.1 Q199.7 445.3 198.2 444.4 197.05 443.65 196.55 442.4 M183.3 434.0 Q180.7 432.55 177.25 431.9 M185.0 426.55 Q178.6 427.5 176.3 424.1 M175.9 414.9 Q182.95 414.4 185.05 407.55 M177.2 417.75 Q182.6 416.05 186.95 411.6 M185.0 447.85 L191.75 448.55 M206.45 445.55 Q207.5 448.15 203.55 448.85 M214.75 449.2 Q219.1 445.15 223.15 442.5 M201.2 448.2 Q198.65 447.3 197.9 444.8 M620.0 444.15 Q623.95 440.4 625.75 435.4 M616.4 445.1 L606.6 445.05 Q601.45 445.0 599.05 441.7 L598.05 440.0 M591.85 484.75 Q594.55 482.15 595.6 478.85 M598.8 487.1 Q600.35 484.25 600.0 480.8 601.7 477.9 605.65 478.1 M601.0 461.2 L610.25 461.55 618.6 461.0 M618.4 498.05 Q618.8 496.55 618.25 494.35 617.8 492.65 616.75 491.3 615.8 490.05 614.4 489.15 612.3 487.85 609.8 486.9 M601.25 471.5 L610.95 472.15 616.3 472.0 Q617.2 471.8 618.0 471.25 618.9 470.6 620.05 470.25 M616.75 491.3 Q619.1 487.65 623.45 488.55 M616.15 486.65 Q614.85 481.9 618.3 479.7 M628.7 481.5 Q627.55 479.25 625.4 477.6 M601.5 498.85 Q602.7 494.75 606.05 493.55 608.75 492.65 610.5 494.2 611.7 495.35 612.75 497.15 613.1 497.8 612.95 498.6 M525.35 441.35 Q524.0 428.1 522.95 412.95 522.65 408.6 524.9 406.65 526.7 405.15 527.55 402.6 M494.6 431.85 Q502.65 418.4 497.1 405.4 M486.35 486.95 Q488.8 484.25 489.25 481.05 M493.7 480.45 Q497.05 476.0 502.85 476.3 M489.3 488.8 L487.1 490.45 Q483.75 492.65 482.2 495.2 481.45 496.4 481.05 497.55 484.15 491.9 490.5 495.15 493.1 496.5 492.55 499.65 M493.9 463.3 Q501.9 464.0 508.5 463.35 M496.8 451.6 Q505.35 446.6 518.05 449.35 M524.3 454.2 L526.5 449.75 M598.55 489.55 Q595.25 491.75 596.25 497.45 596.5 499.1 597.25 500.15 M585.95 496.9 Q588.5 491.9 593.55 494.05 594.8 494.55 594.4 496.9 M500.0 500.45 Q501.1 497.8 501.4 494.95 M620.75 497.15 Q619.5 491.75 624.9 491.35 630.4 490.95 631.0 495.4 M368.1 409.2 Q381.6 405.95 389.85 414.5 M356.25 419.0 Q358.15 415.35 360.75 412.95 M354.1 452.4 Q352.45 450.65 351.55 448.3 M353.6 465.7 Q358.2 469.65 363.75 468.6 M339.55 490.6 L342.0 488.0 Q337.6 484.9 333.95 478.95 332.65 476.9 329.9 476.65 M365.0 500.95 Q365.7 496.1 363.95 492.05 363.3 490.6 363.8 489.3 M342.0 488.0 Q347.05 481.55 346.8 471.15 346.55 461.5 349.55 453.05 M378.5 484.15 Q376.8 481.7 373.5 480.95 369.05 475.7 369.8 469.35 M350.2 481.5 Q358.5 478.5 364.75 482.3 M370.95 509.9 Q370.8 504.7 373.15 501.75 376.25 497.95 379.95 500.05 383.8 502.3 384.55 506.65 M368.35 510.15 Q368.2 509.05 368.6 507.55 369.6 503.6 367.5 501.45 M365.5 503.65 Q364.5 506.15 365.0 510.35 M347.65 509.65 Q348.6 505.55 351.7 502.75 355.35 499.4 359.45 501.8 361.25 502.8 361.7 505.6 L362.05 508.65 M343.1 511.6 Q343.25 507.95 344.6 506.85 348.6 504.2 346.65 499.7 346.4 499.0 346.4 497.95 M358.55 496.75 Q354.65 494.45 350.9 495.7 M330.6 501.7 Q333.45 497.3 337.5 501.2 339.8 506.2 339.25 511.35 M345.4 503.65 Q345.35 500.55 343.75 498.9 M467.55 496.7 Q471.55 491.8 475.9 495.35 476.95 496.15 476.85 497.55 M481.1 502.95 Q480.1 500.5 481.0 497.75 L481.05 497.55 M370.25 496.25 Q373.0 492.65 378.05 494.85 M311.05 404.8 Q313.0 396.7 321.4 391.1 M323.95 439.0 Q325.75 439.65 327.35 441.75 M316.5 371.7 Q324.05 375.55 331.65 380.2 M394.45 402.6 Q402.0 394.25 408.15 384.2" fill="none" stroke="#000000" stroke-linecap="round" stroke-linejoin="round" stroke-opacity="0.49803922" stroke-width="1.0"/>
  </g>
</svg>
