<?xml version="1.0" encoding="UTF-8" standalone="no"?>
<svg xmlns:xlink="http://www.w3.org/1999/xlink" height="329.85px" width="344.25px" xmlns="http://www.w3.org/2000/svg">
  <g transform="matrix(1.0, 0.0, 0.0, 1.0, 170.3, 170.3)">
    <path d="M-120.15 53.4 Q-116.6 53.0 -115.75 56.75 -119.5 57.45 -120.15 53.4" fill="#000000" fill-rule="evenodd" stroke="none"/>
    <path d="M-145.5 129.85 Q-145.0 121.0 -138.1 115.25 L-135.65 113.1 Q-129.6 107.5 -124.95 102.0 -120.9 97.2 -117.45 92.35 -116.4 90.85 -115.65 88.1 L-124.9 88.0 Q-129.45 87.9 -131.8 84.65 -134.35 71.75 -123.25 74.05 -116.8 78.45 -107.65 76.1 -104.4 75.25 -102.15 72.1 -97.05 65.1 -101.25 62.5 L-118.9 64.1 Q-126.75 64.85 -124.4 60.15 L-120.25 51.9 -120.15 53.4 Q-119.5 57.45 -115.75 56.75 L-114.4 56.3 Q-107.15 61.35 -97.55 58.55 -96.5 58.25 -94.7 60.15 -88.4 66.7 -92.65 78.85 -93.75 78.75 -94.65 79.3 L-95.95 80.25 Q-96.25 81.7 -97.05 82.65 L-98.75 83.95 Q-95.05 93.25 -88.5 85.0 L-78.1 72.65 Q-74.5 68.55 -76.25 61.0 -76.8 58.65 -74.3 55.7 -74.5 50.8 -77.35 48.0 -71.75 41.85 -69.7 50.95 -68.15 55.9 -60.6 53.4 -60.5 51.4 -56.05 52.45 -53.85 46.4 -49.75 42.95 L-50.5 51.9 -50.85 61.0 -31.6 58.35 Q-27.35 57.6 -24.5 55.0 38.1 49.3 66.0 11.8 76.95 -30.8 88.4 -63.85 90.7 -70.7 89.75 -77.85 88.55 -86.85 85.95 -95.0 83.5 -102.5 81.15 -110.85 74.7 -108.8 74.9 -101.9 75.2 -92.8 72.95 -84.3 70.7 -75.6 64.7 -61.4 60.0 -54.65 55.25 -48.6 51.0 -43.15 45.95 -37.85 39.9 -31.55 30.6 -31.15 L13.55 -31.75 Q20.5 -34.6 26.05 -41.3 28.9 -44.7 30.6 -49.25 30.6 -51.5 30.75 -53.3 L31.25 -56.55 Q32.75 -65.4 37.35 -71.35 42.5 -78.0 50.65 -78.3 60.75 -78.75 64.1 -85.85 66.2 -96.75 67.05 -106.0 67.9 -115.7 72.45 -121.45 77.5 -127.7 81.0 -135.0 82.8 -138.75 86.65 -140.45 88.3 -132.25 91.6 -121.95 93.55 -97.25 101.1 -71.1 112.05 -19.45 78.45 24.9 44.9 69.2 -7.35 74.65 L-9.1 74.45 -20.35 73.5 Q-19.85 76.65 -21.7 76.7 -28.9 76.8 -35.3 80.75 -37.1 81.85 -37.1 83.5 -36.85 93.2 -38.3 100.95 -39.9 95.95 -42.55 90.95 -46.1 84.45 -47.5 77.1 -49.8 77.3 -50.1 75.2 -53.35 77.3 -58.2 76.95 -60.3 78.85 -63.95 78.3 -65.5 79.4 -68.0 79.6 -80.7 98.5 -97.55 95.8 -122.45 110.8 -147.4 155.5 -155.1 159.7 -154.6 152.45 -147.85 137.5 -139.05 122.6 L-145.5 129.85" fill="#010101" fill-opacity="0.2" fill-rule="evenodd" stroke="none"/>
    <path d="M-145.5 129.85 Q-152.3 137.15 -159.3 143.6 -169.8 153.15 -170.3 138.6 -154.7 112.35 -133.8 90.3 -132.2 86.0 -135.1 83.1 -136.05 82.15 -137.0 79.4 -146.8 50.9 -112.5 27.25 -98.3 6.35 -70.65 -5.1 -69.9 -10.95 -66.4 -17.0 -62.85 -23.1 -58.35 -28.0 -53.15 -33.7 -47.7 -37.15 -44.0 -39.45 -38.45 -41.2 -34.05 -42.55 -31.45 -41.1 -31.9 -32.55 -29.5 -27.0 -28.05 -23.7 -29.0 -20.9 8.75 -30.25 22.55 -45.85 27.95 -55.25 30.45 -65.05 33.45 -76.95 50.75 -83.1 55.15 -86.45 57.8 -92.25 60.3 -97.8 61.25 -104.8 62.05 -110.9 64.55 -116.65 66.85 -122.05 69.35 -126.8 70.3 -128.55 70.9 -130.55 66.95 -136.45 60.5 -139.4 53.65 -142.45 48.5 -145.2 L37.8 -150.95 26.3 -157.15 Q24.65 -158.05 22.6 -158.5 17.55 -159.65 17.8 -166.15 20.95 -168.0 28.5 -167.55 L43.65 -168.15 59.2 -170.0 74.7 -169.45 Q81.95 -168.15 88.1 -164.75 90.65 -163.25 91.75 -160.65 93.15 -160.7 97.1 -162.95 101.1 -165.3 108.6 -164.7 L124.45 -162.8 Q132.9 -161.4 138.0 -159.4 L147.9 -155.4 Q152.8 -153.5 158.9 -149.95 165.0 -146.4 173.65 -148.05 175.05 -142.95 169.45 -139.45 163.35 -135.5 156.05 -134.45 L140.65 -132.6 127.75 -131.55 121.6 -131.2 106.2 -129.8 Q98.25 -129.05 92.9 -125.5 92.5 -123.6 91.6 -121.95 88.3 -132.25 86.65 -140.45 82.8 -138.75 81.0 -135.0 77.5 -127.7 72.45 -121.45 67.9 -115.7 67.05 -106.0 66.2 -96.75 64.1 -85.85 60.75 -78.75 50.65 -78.3 42.5 -78.0 37.35 -71.35 32.75 -65.4 31.25 -56.55 L30.75 -53.3 Q30.6 -51.5 30.6 -49.25 28.9 -44.7 26.05 -41.3 20.5 -34.6 13.55 -31.75 L30.6 -31.15 Q39.9 -31.55 45.95 -37.85 51.0 -43.15 55.25 -48.6 60.0 -54.65 64.7 -61.4 70.7 -75.6 72.95 -84.3 75.2 -92.8 74.9 -101.9 74.7 -108.8 81.15 -110.85 83.5 -102.5 85.95 -95.0 88.55 -86.85 89.75 -77.85 90.7 -70.7 88.4 -63.85 76.95 -30.8 66.0 11.8 38.1 49.3 -24.5 55.0 -27.35 57.6 -31.6 58.35 L-50.85 61.0 -50.5 51.9 -49.75 42.95 Q-53.85 46.4 -56.05 52.45 -60.5 51.4 -60.6 53.4 -68.15 55.9 -69.7 50.95 -71.75 41.85 -77.35 48.0 -74.5 50.8 -74.3 55.7 -76.8 58.65 -76.25 61.0 -74.5 68.55 -78.1 72.65 L-88.5 85.0 Q-95.05 93.25 -98.75 83.95 L-97.05 82.65 Q-96.25 81.7 -95.95 80.25 L-94.65 79.3 Q-93.75 78.75 -92.65 78.85 -88.4 66.7 -94.7 60.15 -96.5 58.25 -97.55 58.55 -107.15 61.35 -114.4 56.3 L-115.75 56.75 Q-116.6 53.0 -120.15 53.4 L-120.25 51.9 -124.4 60.15 Q-126.75 64.85 -118.9 64.1 L-101.25 62.5 Q-97.05 65.1 -102.15 72.1 -104.4 75.25 -107.65 76.1 -116.8 78.45 -123.25 74.05 -134.35 71.75 -131.8 84.65 -129.45 87.9 -124.9 88.0 L-115.65 88.1 Q-116.4 90.85 -117.45 92.35 -120.9 97.2 -124.95 102.0 -129.6 107.5 -135.65 113.1 L-138.1 115.25 Q-145.0 121.0 -145.5 129.85 M-7.35 74.65 Q-0.6 75.55 3.6 78.75 8.35 82.35 8.85 87.7 9.55 95.95 6.4 100.8 4.8 108.25 5.8 117.1 8.4 119.6 7.8 124.75 7.25 128.25 6.85 131.7 6.0 139.8 8.55 147.2 11.1 154.65 7.0 159.55 4.55 158.75 3.0 157.65 L-8.5 149.35 Q-13.85 145.4 -19.15 139.6 -23.55 134.8 -27.7 129.5 -31.9 124.15 -33.8 117.3 L-37.4 103.95 -38.3 100.95 Q-36.85 93.2 -37.1 83.5 -37.1 81.85 -35.3 80.75 -28.9 76.8 -21.7 76.7 -19.85 76.65 -20.35 73.5 L-9.1 74.45 -7.35 74.65" fill="#010101" fill-opacity="0.0" fill-rule="evenodd" stroke="none"/>
  </g>
</svg>
