<?xml version="1.0" encoding="UTF-8" standalone="no"?>
<svg xmlns:xlink="http://www.w3.org/1999/xlink" height="8.75px" width="45.05px" xmlns="http://www.w3.org/2000/svg">
  <g transform="matrix(1.0, 0.0, 0.0, 1.0, -377.5, -126.25)">
    <path d="M418.0 126.25 Q419.3 127.5 419.85 129.5 L422.3 127.25 Q423.3 131.25 420.05 134.4 411.8 129.95 405.1 135.0 403.25 133.7 403.05 131.65 L405.35 132.25 407.25 128.8 409.2 129.7 Q411.4 128.75 412.7 126.8 414.5 127.25 415.05 129.0 417.3 128.0 418.0 126.25 M380.2 129.5 Q380.7 127.5 382.0 126.25 382.75 128.0 385.0 129.0 385.5 127.25 387.35 126.8 388.65 128.75 390.85 129.7 L392.8 128.8 394.7 132.25 396.95 131.65 Q396.75 133.7 394.95 135.0 388.25 129.95 380.0 134.4 376.75 131.25 377.7 127.25 L380.2 129.5" fill="#000000" fill-rule="evenodd" stroke="none"/>
  </g>
</svg>
