<?xml version="1.0" encoding="UTF-8" standalone="no"?>
<svg xmlns:xlink="http://www.w3.org/1999/xlink" height="10.2px" width="42.75px" xmlns="http://www.w3.org/2000/svg">
  <g transform="matrix(1.0, 0.0, 0.0, 1.0, -378.55, -129.0)">
    <path d="M403.7 137.1 Q403.8 139.05 399.9 138.6 396.0 139.05 396.15 137.1 M399.25 135.7 Q397.4 137.0 394.85 136.4 L393.7 136.35 Q389.2 136.0 385.4 133.5 L379.05 135.0 385.4 132.65 Q390.75 134.65 396.1 135.5 L394.85 136.4 M384.6 129.5 Q388.85 129.8 393.35 131.75 M400.55 135.7 Q402.45 137.0 405.0 136.4 404.25 136.2 403.75 135.5 409.1 134.65 414.4 132.65 L420.8 135.0 414.4 133.5 Q410.65 136.0 406.15 136.35 L405.0 136.4 M415.25 129.5 Q410.95 129.8 406.5 131.75" fill="none" stroke="#000000" stroke-linecap="round" stroke-linejoin="round" stroke-opacity="0.5019608" stroke-width="1.0"/>
  </g>
</svg>
