<?xml version="1.0" encoding="UTF-8" standalone="no"?>
<svg xmlns:xlink="http://www.w3.org/1999/xlink" height="16.45px" width="41.9px" xmlns="http://www.w3.org/2000/svg">
  <g transform="matrix(1.0, 0.0, 0.0, 1.0, -378.95, -121.3)">
    <path d="M382.35 121.8 Q382.55 126.4 380.05 129.3 378.9 131.45 380.05 133.55 L381.9 133.55 Q387.45 133.7 392.9 136.4 L394.5 137.25 Q396.0 136.0 396.3 134.05 394.7 132.1 394.5 129.5 M417.45 121.8 Q417.25 126.4 419.8 129.3 420.9 131.45 419.8 133.55 L417.9 133.55 Q412.4 133.7 406.95 136.4 L405.3 137.25 Q403.8 136.0 403.55 134.05 405.1 132.1 405.3 129.5" fill="none" stroke="#000000" stroke-linecap="round" stroke-linejoin="round" stroke-opacity="0.5019608" stroke-width="1.0"/>
  </g>
</svg>
