<?xml version="1.0" encoding="UTF-8" standalone="no"?>
<svg xmlns:xlink="http://www.w3.org/1999/xlink" height="62.4px" width="234.3px" xmlns="http://www.w3.org/2000/svg">
  <g transform="matrix(1.0, 0.0, 0.0, 1.0, -282.75, -183.2)">
    <path d="M355.75 190.6 L348.3 193.25 Q348.15 195.2 348.25 197.3 348.75 203.6 351.8 210.05 354.9 216.45 361.2 222.35 L345.3 238.65 324.85 238.65 Q322.6 239.7 319.95 239.7 L317.5 239.4 Q316.2 242.7 312.55 245.6 295.65 243.0 282.75 238.2 282.9 234.3 283.6 230.55 295.4 236.85 309.2 240.0 311.05 239.15 311.8 236.4 L311.35 236.0 Q307.8 232.3 307.8 227.1 307.8 222.1 311.15 218.5 303.4 209.1 300.4 200.25 L305.85 195.35 Q309.7 195.3 312.9 199.15 L309.2 203.05 Q312.35 209.1 316.85 215.0 L319.95 214.6 Q324.95 214.6 328.5 218.3 332.1 222.0 332.1 227.1 332.1 231.95 329.0 235.45 L342.2 235.45 355.2 222.65 Q349.7 216.85 346.85 211.05 344.2 205.25 343.85 199.5 343.75 190.5 346.45 183.75 L350.0 183.2 Q353.5 185.95 355.75 190.6 M451.5 193.25 L444.05 190.6 Q446.3 185.95 449.8 183.2 L453.35 183.75 Q456.05 190.5 455.95 199.5 455.6 205.25 452.95 211.05 450.1 216.85 444.6 222.65 L457.6 235.45 470.8 235.45 Q467.7 231.95 467.7 227.1 467.7 222.0 471.3 218.3 474.85 214.6 479.85 214.6 L482.95 215.0 Q487.45 209.1 490.6 203.05 L486.9 199.15 Q490.1 195.3 493.95 195.35 L499.4 200.25 Q496.4 209.1 488.65 218.5 492.0 222.1 492.0 227.1 492.0 232.3 488.45 236.0 L488.0 236.4 Q488.75 239.15 490.6 240.0 504.4 236.85 516.2 230.55 516.9 234.3 517.05 238.2 504.15 243.0 487.25 245.6 483.6 242.7 482.3 239.4 L479.85 239.7 Q477.2 239.7 474.95 238.65 L454.5 238.65 438.6 222.35 Q444.9 216.45 448.0 210.05 451.05 203.6 451.55 197.3 L451.5 193.25 M480.75 219.0 Q477.75 219.0 475.65 221.05 473.55 223.1 473.55 226.0 473.55 228.85 475.65 230.9 477.75 232.95 480.75 232.95 L482.15 232.8 Q484.25 232.45 485.85 230.9 487.95 228.85 487.95 226.0 487.95 223.1 485.85 221.05 483.7 219.0 480.75 219.0 M326.25 226.0 Q326.25 223.1 324.15 221.05 322.05 219.0 319.05 219.0 316.1 219.0 313.95 221.05 311.85 223.1 311.85 226.0 311.85 228.85 313.95 230.9 315.55 232.45 317.65 232.8 L319.05 232.95 Q322.05 232.95 324.15 230.9 326.25 228.85 326.25 226.0" fill="#000000" fill-rule="evenodd" stroke="none"/>
  </g>
</svg>
