<?xml version="1.0" encoding="UTF-8" standalone="no"?>
<svg xmlns:xlink="http://www.w3.org/1999/xlink" height="42.2px" width="186.6px" xmlns="http://www.w3.org/2000/svg">
  <g transform="matrix(1.0, 0.0, 0.0, 1.0, -306.6, -180.7)">
    <path d="M493.2 180.7 Q487.25 184.05 487.5 188.65 479.95 185.55 476.7 200.8 475.75 205.4 476.9 210.9 475.85 220.25 440.05 222.9 449.2 192.95 451.15 191.85 465.4 193.8 486.5 182.05 490.0 180.55 493.2 180.7 M348.65 191.85 Q350.6 192.95 359.75 222.9 323.95 220.25 322.9 210.9 324.05 205.4 323.1 200.8 319.85 185.55 312.3 188.65 312.55 184.05 306.6 180.7 309.8 180.55 313.3 182.05 334.4 193.8 348.65 191.85" fill="#000000" fill-rule="evenodd" stroke="none"/>
  </g>
</svg>
