<?xml version="1.0" encoding="UTF-8" standalone="no"?>
<svg xmlns:xlink="http://www.w3.org/1999/xlink" height="102.1px" width="127.0px" xmlns="http://www.w3.org/2000/svg">
  <g transform="matrix(1.0, 0.0, 0.0, 1.0, -252.25, -138.5)">
    <path d="M276.35 183.65 Q278.35 177.05 277.6 174.3 L275.5 160.45 Q267.2 173.7 265.65 186.25 270.85 186.85 276.35 183.65 M354.25 218.1 L354.3 218.15 354.25 218.1 M357.75 157.8 Q345.9 164.45 328.8 167.8 337.1 176.9 347.9 181.9 356.85 186.45 366.65 186.4 L379.25 183.8 372.75 194.35 Q370.2 199.1 369.0 203.85 367.15 211.25 362.5 218.4 361.0 220.0 359.15 220.05 L357.35 219.75 357.55 219.8 359.15 220.05 359.2 220.1 Q355.05 222.65 350.2 223.55 L342.1 223.9 335.45 222.8 Q327.1 219.05 316.15 218.3 296.0 220.65 286.0 240.6 285.25 217.35 289.15 211.85 293.0 206.3 296.75 204.05 300.5 201.8 302.45 201.25 L303.7 200.85 306.4 200.05 313.2 198.35 323.95 196.55 335.35 195.25 Q325.8 184.45 314.4 180.05 308.35 178.25 300.5 178.8 301.75 175.5 302.0 172.2 302.85 167.0 302.0 161.8 296.5 161.65 290.0 166.25 285.65 170.2 284.7 177.95 285.05 184.75 289.25 191.5 287.0 194.35 285.1 197.8 282.55 202.3 282.0 206.75 281.4 211.9 281.75 217.05 279.2 218.6 277.6 220.2 275.95 221.8 275.8 223.45 275.3 225.85 275.8 228.65 273.15 228.75 268.7 226.35 264.25 223.95 258.7 219.0 257.4 217.9 256.95 216.5 L255.4 191.8 Q252.8 188.2 252.45 184.15 251.9 177.45 253.05 171.75 254.2 166.05 256.85 161.4 262.6 154.5 269.35 149.2 277.85 145.0 286.3 140.75 288.5 139.35 291.7 138.75 L294.4 138.5 309.5 143.25 318.25 146.75 319.15 147.2 Q332.35 158.15 357.75 157.8" fill="#000000" fill-rule="evenodd" stroke="none"/>
  </g>
</svg>
