<?xml version="1.0" encoding="UTF-8" standalone="no"?>
<svg xmlns:xlink="http://www.w3.org/1999/xlink" height="68.05px" width="62.7px" xmlns="http://www.w3.org/2000/svg">
  <g transform="matrix(1.0, 0.0, 0.0, 1.0, -284.95, -192.65)">
    <path d="M343.7 192.85 Q350.7 193.2 343.5 202.25 336.3 211.3 339.7 225.95 343.1 240.6 347.65 245.9 L344.25 260.7 344.25 260.2 Q343.35 246.95 336.6 241.1 337.15 250.35 333.1 257.7 332.15 249.45 325.25 242.2 324.9 250.1 319.55 255.95 321.25 243.95 319.55 231.95 316.9 234.15 314.6 236.6 311.5 239.95 309.05 243.75 306.55 247.5 304.75 251.8 304.45 243.6 307.9 235.45 297.7 246.15 294.75 256.85 291.45 247.85 296.9 235.45 292.35 235.95 287.8 241.0 288.9 227.8 301.65 213.8 293.85 215.25 284.95 221.1 290.25 206.9 302.9 200.8 306.1 199.25 309.75 197.95 313.4 196.6 319.05 194.95 324.65 193.25 330.65 192.85 336.65 192.45 343.7 192.85" fill="#000000" fill-rule="evenodd" stroke="none"/>
  </g>
</svg>
