<?xml version="1.0" encoding="UTF-8" standalone="no"?>
<svg xmlns:xlink="http://www.w3.org/1999/xlink" height="42.1px" width="149.9px" xmlns="http://www.w3.org/2000/svg">
  <g transform="matrix(1.0, 0.0, 0.0, 1.0, -226.5, -159.1)">
    <path d="M348.2 172.1 Q349.0 173.55 349.25 175.3 L349.45 176.6 349.5 177.7 349.4 179.1 349.0 181.35 Q348.55 182.85 347.75 184.15 L346.6 185.7 345.25 187.0 313.55 188.65 315.9 186.7 317.45 184.9 Q319.35 182.25 319.8 179.05 L320.0 176.8 319.95 175.45 Q319.7 172.45 318.2 169.95 317.3 168.3 315.9 166.9 314.9 165.9 313.8 165.2 L344.95 168.2 346.6 169.7 Q347.6 170.8 348.2 172.1 M356.8 172.85 L354.0 172.85 354.0 166.8 357.05 166.95 356.8 172.85 M332.8 189.25 Q335.65 192.5 341.55 191.8 L346.3 190.75 349.6 193.4 357.25 183.5 358.3 182.45 353.6 179.75 353.6 179.7 353.75 178.3 364.3 178.35 Q364.95 178.7 365.45 179.15 L365.9 178.75 Q369.95 175.4 374.35 181.1 L376.35 181.1 376.35 183.15 Q376.65 186.85 374.9 190.1 L374.9 191.95 372.85 191.95 Q370.85 193.65 368.55 194.25 L365.3 194.55 359.7 200.0 Q356.35 202.0 353.0 200.6 L353.0 196.1 351.75 195.9 344.95 197.3 346.45 194.3 346.05 193.65 332.5 196.25 332.8 189.25 M361.25 181.8 Q360.75 181.85 360.4 182.2 359.95 182.65 359.95 183.3 359.95 183.95 360.4 184.4 360.85 184.85 361.5 184.85 L362.4 184.6 362.6 184.4 Q363.05 183.95 363.05 183.3 363.05 182.65 362.6 182.2 362.15 181.75 361.5 181.75 L361.25 181.8 M362.6 185.7 L362.8 187.85 369.35 187.85 Q369.35 185.85 368.9 184.2 L362.6 185.7 M231.5 164.9 L233.3 162.85 Q235.75 160.4 238.6 159.1 L252.85 160.25 252.9 160.25 255.8 162.85 Q257.1 164.1 258.05 165.55 L258.5 166.2 258.55 166.2 259.65 168.5 Q260.65 170.8 260.85 173.4 L260.9 173.55 261.0 175.45 Q261.0 177.3 260.65 179.0 260.25 181.25 259.3 183.25 258.6 184.7 257.5 186.15 L255.8 188.1 252.15 191.0 251.45 191.3 239.6 191.75 238.8 191.9 238.75 191.9 237.15 191.1 236.8 190.9 233.3 188.1 Q231.7 186.45 230.55 184.6 L229.2 185.05 Q228.1 185.05 227.3 183.95 226.5 182.85 226.5 181.3 226.5 179.75 227.3 178.65 L228.25 177.8 228.15 175.45 Q228.15 173.2 228.6 171.15 L228.5 171.0 Q227.7 169.9 227.7 168.35 227.7 166.8 228.5 165.7 229.3 164.6 230.4 164.6 L230.9 164.65 231.5 164.9 M239.5 184.5 L239.3 184.45 238.8 184.4 238.55 184.45 239.5 184.5 M269.6 161.5 L282.3 162.5 Q284.75 163.55 286.9 165.3 288.45 166.55 289.5 168.0 291.75 170.9 292.15 174.45 L292.25 176.05 291.95 179.05 Q291.1 182.65 288.2 185.55 L286.9 186.75 Q284.25 188.95 281.05 190.1 L277.3 191.0 276.7 191.1 276.6 191.1 273.8 191.25 268.4 190.6 267.95 190.5 269.7 189.6 273.1 187.15 274.35 185.85 Q277.1 182.8 277.9 179.05 L277.9 179.0 278.25 175.6 278.2 174.0 Q277.85 170.25 275.8 167.2 274.7 165.55 273.1 164.05 L270.8 162.25 269.6 161.5 M273.0 167.05 Q275.05 170.1 275.4 173.85 L275.4 173.9 275.5 175.45 275.15 178.85 275.1 179.05 Q274.25 182.7 271.55 185.7 L271.4 185.9 270.3 187.0 Q268.75 188.45 266.95 189.45 L265.2 190.75 255.1 191.15 254.6 191.0 Q256.55 189.85 258.25 188.1 L260.0 186.15 260.15 186.15 260.05 186.05 261.75 183.25 Q262.7 181.25 263.15 179.0 L263.45 175.45 263.35 173.55 263.35 173.45 Q263.1 170.85 262.1 168.5 L261.0 166.35 260.5 165.55 258.25 162.85 Q256.9 161.4 255.35 160.4 L266.45 161.25 266.8 161.3 268.05 162.1 270.3 163.9 Q271.9 165.35 273.0 167.05 M250.25 165.65 L250.75 165.75 250.65 165.7 250.25 165.65 M312.35 169.5 Q314.1 172.1 314.45 175.25 L314.6 177.1 314.45 179.05 Q314.05 182.35 312.15 185.05 L310.5 187.0 308.15 188.9 283.95 189.95 Q286.5 189.1 288.65 187.55 L289.8 186.65 291.0 185.5 292.15 184.2 Q294.05 181.85 294.65 179.05 L294.95 176.15 294.85 174.5 Q294.5 171.4 292.7 168.8 L292.2 168.15 Q291.3 166.9 290.0 165.8 L289.8 165.6 Q287.6 163.75 285.05 162.7 L301.25 163.95 301.45 164.0 306.75 164.5 Q308.8 165.5 310.5 167.2 L312.35 169.5" fill="#000000" fill-rule="evenodd" stroke="none"/>
  </g>
</svg>
