<?xml version="1.0" encoding="UTF-8" standalone="no"?>
<svg xmlns:xlink="http://www.w3.org/1999/xlink" height="63.3px" width="240.8px" xmlns="http://www.w3.org/2000/svg">
  <g transform="matrix(1.0, 0.0, 0.0, 1.0, -279.5, -181.0)">
    <path d="M352.05 181.0 Q357.4 181.05 357.85 185.45 L357.85 210.1 Q357.7 218.7 351.7 224.65 L333.55 237.5 Q325.1 243.6 315.4 244.3 L283.45 244.3 Q279.5 243.25 279.5 239.0 279.4 234.8 283.4 233.9 L313.0 233.9 Q320.3 233.3 325.0 230.1 L345.55 214.7 Q347.8 212.0 347.4 208.75 L347.4 185.1 Q348.0 181.4 352.05 181.0 M452.4 185.1 L452.4 208.75 Q452.0 212.0 454.25 214.7 L474.8 230.1 Q479.5 233.3 486.8 233.9 L516.4 233.9 Q520.4 234.8 520.3 239.0 520.3 243.25 516.35 244.3 L484.4 244.3 Q474.7 243.6 466.25 237.5 L448.1 224.65 Q442.1 218.7 441.95 210.1 L441.95 185.45 Q442.4 181.05 447.75 181.0 451.8 181.4 452.4 185.1" fill="#000000" fill-rule="evenodd" stroke="none"/>
  </g>
</svg>
