<?xml version="1.0" encoding="UTF-8" standalone="no"?>
<svg xmlns:xlink="http://www.w3.org/1999/xlink" height="91.35px" width="81.65px" xmlns="http://www.w3.org/2000/svg">
  <g transform="matrix(1.0, 0.0, 0.0, 1.0, -253.7, -107.0)">
    <path d="M254.0 137.15 Q256.15 125.8 265.2 112.65 264.3 122.5 264.85 132.2 265.3 140.85 269.35 149.2 262.6 154.5 256.85 161.4 252.7 148.65 254.0 137.15 M294.9 107.0 Q290.6 114.9 288.05 123.6 285.6 132.15 286.3 140.75 L270.95 148.3 Q271.3 134.2 278.6 122.0 284.25 113.7 294.9 107.0 M311.8 133.5 Q309.0 138.5 309.5 143.25 L294.4 138.5 Q299.1 133.6 304.75 129.6 310.4 125.55 319.55 123.85 314.55 128.45 311.8 133.5 M276.35 183.65 Q270.85 186.85 265.65 186.25 267.2 173.7 275.5 160.45 L277.6 174.3 Q278.35 177.05 276.35 183.65 M302.0 172.2 Q301.75 175.5 300.5 178.8 308.35 178.25 314.4 180.05 325.8 184.45 335.35 195.25 L323.95 196.55 313.2 198.35 Q307.35 193.6 296.3 190.4 292.95 189.75 289.9 191.2 L289.25 191.5 Q285.05 184.75 284.7 177.95 285.65 170.2 290.0 166.25 296.5 161.65 302.0 161.8 302.85 167.0 302.0 172.2" fill="#000000" fill-rule="evenodd" stroke="none"/>
  </g>
</svg>
