<?xml version="1.0" encoding="UTF-8" standalone="no"?>
<svg xmlns:xlink="http://www.w3.org/1999/xlink" height="56.6px" width="236.9px" xmlns="http://www.w3.org/2000/svg">
  <g transform="matrix(1.0, 0.0, 0.0, 1.0, -281.45, -191.6)">
    <path d="M503.05 202.05 Q492.15 194.1 476.9 192.5 464.7 191.25 449.75 194.05 435.25 197.3 444.3 226.9 M503.05 202.05 Q506.85 204.85 510.15 208.5 514.2 213.0 517.45 218.75 L517.85 219.5 503.75 229.15 502.65 221.4 Q497.85 222.4 493.3 223.75 471.75 230.15 454.95 245.15 L452.15 247.7 451.05 245.15 Q448.8 239.75 447.05 234.95 445.45 230.7 444.3 226.9 M352.75 234.95 L355.5 226.9 Q364.55 197.3 350.05 194.05 335.1 191.25 322.9 192.5 307.65 194.1 296.75 202.05 292.95 204.85 289.65 208.5 285.6 213.0 282.35 218.75 L281.95 219.5 296.05 229.15 297.15 221.4 306.5 223.75 Q322.8 228.6 336.35 238.35 340.75 241.5 344.85 245.15 L347.65 247.7 348.75 245.15 352.75 234.95" fill="none" stroke="#000000" stroke-linecap="round" stroke-linejoin="round" stroke-width="1.0"/>
    <path d="M444.3 226.9 Q464.8 207.8 487.6 203.4 495.15 201.9 503.05 202.05 M289.65 208.5 Q300.1 208.55 309.95 210.95 329.25 215.6 346.15 229.2 349.5 231.9 352.75 234.95 M355.5 226.9 Q335.0 207.8 312.2 203.4 304.65 201.9 296.75 202.05 M281.95 219.5 Q291.0 220.15 297.15 221.4 M447.05 234.95 Q466.75 216.5 489.85 210.95 499.7 208.55 510.15 208.5 M517.85 219.5 Q508.8 220.15 502.65 221.4" fill="none" stroke="#000000" stroke-linecap="round" stroke-linejoin="round" stroke-opacity="0.49803922" stroke-width="1.0"/>
  </g>
</svg>
