<?xml version="1.0" encoding="UTF-8" standalone="no"?>
<svg xmlns:xlink="http://www.w3.org/1999/xlink" height="53.85px" width="347.8px" xmlns="http://www.w3.org/2000/svg">
  <g transform="matrix(1.0, 0.0, 0.0, 1.0, -226.0, -147.85)">
    <path d="M514.75 162.7 Q512.2 163.75 510.0 165.6 L509.8 165.8 Q508.5 166.9 507.6 168.15 L507.1 168.8 Q505.3 171.4 504.95 174.5 L504.85 176.15 Q504.85 177.65 505.15 179.05 505.75 181.85 507.65 184.2 L508.8 185.5 510.0 186.65 511.15 187.55 Q513.3 189.1 515.85 189.95 M522.5 191.0 L518.75 190.1 Q515.55 188.95 512.9 186.75 L511.6 185.55 Q508.7 182.65 507.85 179.05 507.55 177.6 507.55 176.05 L507.65 174.45 Q508.05 170.9 510.3 168.0 511.35 166.55 512.9 165.3 515.05 163.55 517.5 162.5 519.4 161.7 521.5 161.3 L522.5 161.25 522.95 161.25 527.1 161.75 530.2 161.5 530.6 161.3 M500.15 163.85 L498.55 163.95 498.35 164.0 493.05 164.5 Q491.0 165.5 489.3 167.2 488.2 168.3 487.45 169.5 L507.6 168.15 M507.65 174.45 L521.6 174.0 Q521.95 170.25 524.0 167.2 L510.3 168.0 M490.1 163.3 Q487.9 163.85 486.0 165.2 484.9 165.9 483.9 166.9 482.5 168.3 481.6 169.95 480.1 172.45 479.85 175.45 L479.8 176.8 480.0 179.05 Q480.45 182.25 482.35 184.9 L483.9 186.7 486.25 188.65 M498.05 163.5 Q495.05 163.5 493.05 164.5 M496.65 189.6 Q493.5 190.15 491.65 188.9 L489.3 187.0 487.65 185.05 Q485.75 182.35 485.35 179.05 L485.2 177.1 Q485.2 176.15 485.35 175.25 485.7 172.1 487.45 169.5 M497.75 189.2 L491.65 188.9 M521.6 174.0 L521.55 175.6 Q521.55 177.35 521.9 179.0 L521.9 179.05 Q522.7 182.8 525.45 185.85 L526.7 187.15 Q528.3 188.6 530.1 189.6 L531.85 190.5 532.2 190.65 534.6 190.75 532.85 189.45 529.5 187.0 528.4 185.9 528.25 185.7 Q525.55 182.7 524.7 179.05 L524.65 178.85 Q524.3 177.2 524.3 175.45 L524.4 173.9 524.4 173.85 Q524.75 170.1 526.8 167.05 527.9 165.35 529.5 163.9 L531.75 162.1 533.0 161.3 533.35 161.25 Q536.05 159.75 539.2 159.3 L539.45 159.25 M525.45 185.85 L511.6 185.55 M507.85 179.05 L521.9 179.05 M487.65 185.05 L508.8 185.5 M555.25 157.65 Q551.75 157.85 548.85 159.3 L548.45 159.5 546.95 160.25 553.05 159.75 558.55 159.3 Q558.9 159.05 559.3 158.95 L559.8 158.9 560.7 159.15 561.2 159.1 M558.55 159.3 L560.7 159.15 Q561.25 159.4 561.7 160.0 562.5 161.1 562.5 162.65 562.5 164.0 561.9 165.0 L562.7 165.0 568.3 164.9 567.45 165.7 Q566.65 166.8 566.7 168.35 566.65 169.9 567.45 171.0 568.2 172.05 569.35 172.1 L569.45 172.1 Q570.45 172.1 571.2 171.15 M558.55 159.3 L557.85 160.0 Q557.1 161.1 557.1 162.65 557.1 164.2 557.85 165.3 558.6 166.3 559.55 166.4 L559.8 166.4 Q560.95 166.4 561.7 165.3 L561.9 165.0 M555.25 193.3 Q552.2 193.1 549.55 191.9 L549.25 191.75 549.1 191.65 548.35 191.3 547.65 191.0 Q545.7 189.85 544.0 188.1 L542.3 186.15 Q541.2 184.7 540.5 183.25 539.55 181.25 539.15 179.0 538.8 177.3 538.8 175.45 L538.9 173.55 538.95 173.4 Q539.15 170.8 540.15 168.5 L541.25 166.2 541.3 166.2 541.75 165.55 Q542.7 164.1 544.0 162.85 L546.9 160.25 546.95 160.25 M549.55 165.65 L549.05 165.75 Q548.3 165.95 547.7 166.75 546.95 167.85 546.95 169.4 546.95 170.95 547.7 172.05 L548.85 173.0 549.65 173.15 Q550.8 173.15 551.55 172.05 552.35 170.95 552.35 169.4 552.35 167.85 551.55 166.75 L551.4 166.55 Q550.65 165.65 549.65 165.65 L549.55 165.65 549.15 165.7 549.05 165.75 543.15 166.1 Q542.2 167.2 541.85 168.35 541.2 170.75 543.5 173.2 L548.85 173.0 M551.4 166.55 L552.95 166.55 Q550.65 163.15 553.05 159.75 M562.7 165.0 Q559.0 168.55 563.15 172.1 L569.35 172.1 M552.95 166.55 L559.55 166.4 M539.5 159.25 Q542.35 159.3 544.95 160.1 L545.95 159.5 M544.95 160.1 L544.45 160.4 Q542.9 161.4 541.55 162.85 540.25 164.1 539.3 165.55 L538.8 166.35 537.7 168.5 Q536.7 170.85 536.45 173.45 L536.45 173.55 536.35 175.45 Q536.35 177.3 536.65 179.0 537.1 181.25 538.05 183.25 538.75 184.65 539.75 186.05 L539.8 186.15 541.55 188.1 Q543.25 189.85 545.2 191.0 L545.5 191.15 545.9 191.4 M530.2 161.5 L529.0 162.25 526.7 164.05 Q525.1 165.55 524.0 167.2 M543.15 166.1 L541.3 166.2 M533.35 161.25 L544.45 160.4 M538.8 166.35 L526.8 167.05 M542.3 186.15 L543.9 186.2 Q542.75 184.35 542.7 182.5 542.6 180.75 543.5 179.0 L539.15 179.0 M531.4 190.6 L531.85 190.5 M545.2 191.0 L544.7 191.15 545.5 191.15 M539.8 186.15 L539.65 186.15 528.4 185.9 M539.65 186.15 L539.75 186.05 M544.7 191.15 L534.6 190.75 M560.3 184.5 L554.7 184.85 Q552.9 187.8 554.7 190.75 L555.0 191.55 560.2 191.75 559.05 190.8 Q558.3 189.7 558.3 188.15 558.3 186.6 559.05 185.5 559.6 184.75 560.3 184.5 L560.5 184.45 561.0 184.4 561.25 184.45 563.55 184.5 Q561.35 181.1 563.35 177.7 L569.75 177.7 570.1 177.6 570.6 177.55 571.55 177.8 M562.65 191.1 L562.9 190.8 Q563.7 189.7 563.7 188.15 563.7 186.6 562.9 185.5 562.2 184.5 561.25 184.45 L560.3 184.5 M549.9 179.05 Q549.1 179.25 548.45 180.1 547.7 181.2 547.7 182.75 547.7 184.3 548.45 185.4 L549.4 186.25 550.4 186.5 Q551.55 186.5 552.3 185.4 L552.7 184.8 Q553.1 183.9 553.1 182.75 553.1 181.2 552.3 180.1 551.55 179.0 550.45 179.0 L550.2 179.0 549.9 179.05 M554.7 184.85 L552.7 184.8 M555.0 191.55 L548.35 191.3 M561.05 191.9 L561.0 191.9 560.2 191.75 M550.2 179.0 L543.5 179.0 M538.95 173.4 L543.5 173.2 M549.4 186.25 L543.9 186.2 M517.5 162.5 L527.1 161.75 M536.65 179.0 L524.7 179.05 M524.4 173.9 L536.45 173.45 M563.55 184.5 L569.25 184.6 568.65 183.95 Q567.85 182.85 567.9 181.3 567.85 179.75 568.65 178.65 569.15 177.95 569.75 177.7 M357.85 158.5 L357.85 160.1 M360.3 160.8 L352.95 160.7 M339.45 160.55 L325.55 160.35 324.85 160.35 322.6 160.3 321.95 160.3 314.4 160.3 M309.7 163.3 Q311.9 163.85 313.8 165.2 L335.6 167.3 336.1 167.1 Q337.7 166.4 339.55 166.4 L341.7 166.65 351.5 166.7 354.0 166.8 357.05 166.95 359.95 167.1 362.85 167.2 362.85 160.85 361.4 160.85 M348.4 171.15 Q348.5 168.9 351.35 169.75 L351.5 166.7 M354.0 166.8 L354.0 172.85 356.8 172.85 357.05 166.95 M341.7 166.65 Q343.45 167.05 344.95 168.2 L346.6 169.7 Q347.6 170.8 348.2 172.1 349.0 173.55 349.25 175.3 L351.1 174.4 351.35 169.75 M332.65 192.75 L332.8 189.25 332.9 187.65 328.9 187.85 Q329.4 189.45 328.55 190.25 M325.1 188.05 L328.9 187.85 M339.55 189.0 L340.9 188.9 Q342.3 188.7 343.5 188.1 L345.25 187.0 334.6 187.55 Q336.8 189.0 339.55 189.0 M332.9 187.65 L334.6 187.55 M353.0 196.1 Q363.3 197.2 362.8 187.85 L362.6 185.7 362.4 184.6 361.5 184.85 Q360.85 184.85 360.4 184.4 359.95 183.95 359.95 183.3 359.95 182.65 360.4 182.2 360.75 181.85 361.25 181.8 360.55 180.6 359.5 179.65 L357.85 178.35 353.75 178.3 353.6 179.7 353.6 179.75 358.3 182.45 357.25 183.5 349.6 193.4 346.3 190.75 341.55 191.8 Q335.65 192.5 332.8 189.25 M361.25 181.8 L361.5 181.75 Q362.15 181.75 362.6 182.2 363.05 182.65 363.05 183.3 363.05 183.95 362.6 184.4 L362.4 184.6 M357.85 178.35 L364.3 178.35 Q364.95 178.7 365.45 179.15 L365.9 178.75 M359.95 167.1 L359.95 174.95 353.7 174.55 353.75 178.3 M353.7 174.55 L351.1 174.4 M349.45 176.6 L319.95 175.45 320.0 176.8 319.8 179.05 349.4 179.1 349.5 177.7 349.45 176.6 349.25 175.3 M319.8 179.05 Q319.35 182.25 317.45 184.9 L347.75 184.15 Q348.55 182.85 349.0 181.35 L349.4 179.1 M353.6 179.75 Q352.55 185.9 347.0 190.5 L346.3 190.75 M345.25 187.0 L346.6 185.7 347.75 184.15 M335.6 167.3 L344.95 168.2 M365.45 179.15 Q368.0 181.0 368.9 184.2 369.35 185.85 369.35 187.85 369.4 190.7 368.55 194.25 M368.9 184.2 L362.6 185.7 M369.35 187.85 L362.8 187.85 M367.85 165.8 Q366.2 164.7 363.4 163.75 M433.9 178.75 L434.35 179.15 435.5 178.35 441.95 178.35 446.05 178.3 Q445.9 176.5 446.1 174.55 L439.85 174.95 439.85 167.1 436.95 167.2 436.95 160.85 438.4 160.85 M441.95 158.5 L441.95 160.1 M446.1 174.55 L448.7 174.4 448.45 169.75 448.3 166.7 445.8 166.8 445.8 172.85 443.0 172.85 442.75 166.95 439.85 167.1 M431.95 165.8 Q433.6 164.7 436.4 163.75 M434.35 179.15 Q431.8 181.0 430.9 184.2 L437.2 185.7 437.4 184.6 437.2 184.4 Q436.75 183.95 436.75 183.3 436.75 182.65 437.2 182.2 437.65 181.75 438.3 181.75 L438.55 181.8 Q439.25 180.6 440.3 179.65 L441.95 178.35 M437.4 184.6 L438.3 184.85 Q438.95 184.85 439.4 184.4 L439.85 183.3 439.4 182.2 Q439.05 181.85 438.55 181.8 M442.55 183.5 L450.2 193.4 453.5 190.75 452.8 190.5 Q447.25 185.9 446.2 179.75 L441.5 182.45 442.55 183.5 M431.25 194.25 Q430.4 190.7 430.45 187.85 430.45 185.85 430.9 184.2 M430.45 187.85 L437.0 187.85 437.2 185.7 M485.4 160.3 L477.85 160.3 477.2 160.3 474.95 160.35 474.25 160.35 460.35 160.55 M448.45 169.75 Q451.3 168.9 451.4 171.15 M486.0 165.2 L464.2 167.3 454.85 168.2 453.2 169.7 Q452.2 170.8 451.6 172.1 L481.6 169.95 M464.2 167.3 L463.7 167.1 Q462.1 166.4 460.25 166.4 L458.1 166.65 Q456.35 167.05 454.85 168.2 M458.1 166.65 L448.3 166.7 M453.5 190.75 L458.25 191.8 Q464.15 192.5 467.0 189.25 L466.9 187.65 465.2 187.55 Q463.0 189.0 460.25 189.0 L458.9 188.9 Q457.5 188.7 456.3 188.1 455.35 187.65 454.55 187.0 L453.2 185.7 452.05 184.15 Q451.25 182.85 450.8 181.35 L450.4 179.1 450.3 177.7 450.35 176.6 450.55 175.3 448.7 174.4 M446.05 178.3 L446.2 179.7 446.2 179.75 M454.55 187.0 L465.2 187.55 M466.9 187.65 L470.9 187.85 474.7 188.05 M467.0 189.25 L467.15 192.75 M471.25 190.25 Q470.4 189.45 470.9 187.85 M451.6 172.1 Q450.8 173.55 450.55 175.3 M452.05 184.15 L482.35 184.9 M450.4 179.1 L480.0 179.05 M479.85 175.45 L450.35 176.6 M445.8 166.8 L442.75 166.95 M439.5 160.8 L446.85 160.7 M446.8 196.1 Q436.5 197.2 437.0 187.85 M504.95 174.5 L485.35 175.25 M505.15 179.05 L485.35 179.05 M241.95 160.0 Q242.7 161.1 242.7 162.65 242.7 164.2 241.95 165.3 241.2 166.3 240.25 166.4 L246.85 166.55 Q249.15 163.15 246.75 159.75 L241.25 159.3 241.95 160.0 M231.5 164.9 L237.1 165.0 237.9 165.0 Q237.3 164.0 237.3 162.65 237.3 161.1 238.1 160.0 238.55 159.4 239.1 159.15 L238.6 159.1 M239.1 159.15 L241.25 159.3 240.5 158.95 240.0 158.9 239.1 159.15 M228.6 171.15 Q229.35 172.1 230.35 172.1 L230.45 172.1 Q231.6 172.05 232.35 171.0 233.15 169.9 233.1 168.35 233.15 166.8 232.35 165.7 L231.5 164.9 M240.25 166.4 L240.0 166.4 Q238.85 166.4 238.1 165.3 L237.9 165.0 M237.1 165.0 Q240.8 168.55 236.65 172.1 L230.45 172.1 M238.75 191.9 L238.8 191.9 239.6 191.75 240.75 190.8 Q241.5 189.7 241.5 188.15 241.5 186.6 240.75 185.5 240.2 184.75 239.5 184.5 L238.55 184.45 Q237.6 184.5 236.9 185.5 236.1 186.6 236.1 188.15 236.1 189.7 236.9 190.8 L237.15 191.1 M239.5 184.5 L239.3 184.45 238.8 184.4 238.55 184.45 236.25 184.5 230.55 184.6 231.15 183.95 Q231.95 182.85 231.9 181.3 231.95 179.75 231.15 178.65 L230.05 177.7 229.7 177.6 229.2 177.55 228.25 177.8 M230.05 177.7 L236.45 177.7 Q238.45 181.1 236.25 184.5 M260.35 159.25 L260.6 159.3 Q263.75 159.75 266.45 161.25 L266.8 161.3 268.05 162.1 270.3 163.9 Q271.9 165.35 273.0 167.05 275.05 170.1 275.4 173.85 L275.4 173.9 275.5 175.45 275.15 178.85 275.1 179.05 Q274.25 182.7 271.55 185.7 L271.4 185.9 270.3 187.0 Q268.75 188.45 266.95 189.45 L265.2 190.75 267.6 190.65 267.95 190.5 269.7 189.6 273.1 187.15 274.35 185.85 Q277.1 182.8 277.9 179.05 L277.9 179.0 278.25 175.6 278.2 174.0 Q277.85 170.25 275.8 167.2 274.7 165.55 273.1 164.05 L270.8 162.25 269.6 161.5 269.2 161.3 M269.6 161.5 L272.7 161.75 276.85 161.25 277.3 161.25 278.3 161.3 Q280.4 161.7 282.3 162.5 284.75 163.55 286.9 165.3 288.45 166.55 289.5 168.0 291.75 170.9 292.15 174.45 L292.25 176.05 291.95 179.05 Q291.1 182.65 288.2 185.55 L286.9 186.75 Q284.25 188.95 281.05 190.1 L277.3 191.0 M272.7 161.75 L282.3 162.5 M253.9 191.4 L254.3 191.15 254.6 191.0 Q256.55 189.85 258.25 188.1 L260.0 186.15 260.05 186.05 261.75 183.25 Q262.7 181.25 263.15 179.0 L263.45 175.45 263.35 173.55 263.35 173.45 Q263.1 170.85 262.1 168.5 L261.0 166.35 260.5 165.55 258.25 162.85 Q256.9 161.4 255.35 160.4 L254.85 160.1 253.85 159.5 M254.85 160.1 Q257.45 159.3 260.3 159.25 M244.55 157.65 Q248.05 157.85 250.95 159.3 L251.35 159.5 252.85 160.25 252.9 160.25 255.8 162.85 Q257.1 164.1 258.05 165.55 L258.5 166.2 258.55 166.2 259.65 168.5 Q260.65 170.8 260.85 173.4 L260.9 173.55 261.0 175.45 Q261.0 177.3 260.65 179.0 260.25 181.25 259.3 183.25 258.6 184.7 257.5 186.15 L255.8 188.1 252.15 191.0 251.45 191.3 250.7 191.65 250.55 191.75 250.25 191.9 Q247.6 193.1 244.55 193.3 M252.85 160.25 L246.75 159.75 M250.25 165.65 L250.75 165.75 250.65 165.7 250.25 165.65 250.15 165.65 Q249.15 165.65 248.4 166.55 L248.25 166.75 Q247.45 167.85 247.45 169.4 247.45 170.95 248.25 172.05 249.0 173.15 250.15 173.15 L250.95 173.0 252.1 172.05 Q252.85 170.95 252.85 169.4 252.85 167.85 252.1 166.75 251.5 165.95 250.75 165.75 L256.65 166.1 258.5 166.2 M248.4 166.55 L246.85 166.55 M256.65 166.1 Q257.6 167.2 257.95 168.35 258.6 170.75 256.3 173.2 L260.85 173.4 M256.3 173.2 L250.95 173.0 M260.65 179.0 L256.3 179.0 Q257.2 180.75 257.1 182.5 257.05 184.35 255.9 186.2 L257.5 186.15 M249.6 179.0 L249.35 179.0 Q248.25 179.0 247.5 180.1 246.7 181.2 246.7 182.75 246.7 183.9 247.1 184.8 L247.5 185.4 Q248.25 186.5 249.4 186.5 L250.4 186.25 251.35 185.4 Q252.1 184.3 252.1 182.75 252.1 181.2 251.35 180.1 250.7 179.25 249.9 179.05 L249.6 179.0 256.3 179.0 M239.5 184.5 L245.1 184.85 247.1 184.8 M245.1 184.85 Q246.9 187.8 245.1 190.75 L244.8 191.55 251.45 191.3 M260.0 186.15 L260.15 186.15 260.05 186.05 M254.3 191.15 L255.1 191.15 254.6 191.0 M255.9 186.2 L250.4 186.25 M268.4 190.6 L267.95 190.5 M275.4 173.9 L263.35 173.45 M273.0 167.05 L261.0 166.35 M255.35 160.4 L266.45 161.25 M271.4 185.9 L260.15 186.15 M265.2 190.75 L255.1 191.15 M263.15 179.0 L275.1 179.05 M301.75 163.5 Q304.75 163.5 306.75 164.5 308.8 165.5 310.5 167.2 L312.35 169.5 Q314.1 172.1 314.45 175.25 L314.6 177.1 314.45 179.05 Q314.05 182.35 312.15 185.05 L310.5 187.0 308.15 188.9 Q306.3 190.15 303.15 189.6 M319.95 175.45 Q319.7 172.45 318.2 169.95 317.3 168.3 315.9 166.9 314.9 165.9 313.8 165.2 M285.05 162.7 Q287.6 163.75 289.8 165.6 L290.0 165.8 Q291.3 166.9 292.2 168.15 L312.35 169.5 M292.2 168.15 L292.7 168.8 Q294.5 171.4 294.85 174.5 L314.45 175.25 M299.65 163.85 L301.25 163.95 301.45 164.0 306.75 164.5 M294.85 174.5 L294.95 176.15 294.65 179.05 314.45 179.05 M294.65 179.05 Q294.05 181.85 292.15 184.2 L291.0 185.5 312.15 185.05 M291.0 185.5 L289.8 186.65 288.65 187.55 Q286.5 189.1 283.95 189.95 M313.55 188.65 L315.9 186.7 317.45 184.9 M302.05 189.2 L308.15 188.9 M289.5 168.0 L275.8 167.2 M291.95 179.05 L277.9 179.05 M278.2 174.0 L292.15 174.45 M288.2 185.55 L274.35 185.85 M244.8 191.55 L239.6 191.75 M348.2 172.1 L318.2 169.95" fill="none" stroke="#000000" stroke-linecap="round" stroke-linejoin="round" stroke-opacity="0.49803922" stroke-width="1.0"/>
    <path d="M515.85 189.95 Q518.9 191.0 522.5 191.0 M521.5 161.3 Q517.85 161.4 514.75 162.7 L500.15 163.85 M530.6 161.3 L526.0 160.85 523.15 161.0 521.5 161.3 M530.6 161.3 Q534.4 159.25 539.2 159.25 L539.45 159.25 539.5 159.25 541.95 159.1 545.95 159.5 Q549.6 157.6 554.0 157.6 L555.25 157.65 Q558.4 157.8 561.2 159.1 564.05 160.4 566.5 162.85 L568.3 164.9 568.9 164.65 569.4 164.6 Q570.5 164.6 571.3 165.7 572.1 166.8 572.1 168.35 572.1 169.9 571.3 171.0 L571.2 171.15 Q571.65 173.2 571.65 175.45 L571.55 177.8 572.5 178.65 Q573.3 179.75 573.3 181.3 573.3 182.85 572.5 183.95 571.7 185.05 570.6 185.05 569.85 185.05 569.25 184.6 L566.5 188.1 563.0 190.9 562.65 191.1 561.05 191.9 561.0 191.95 Q558.3 193.1 555.25 193.3 L554.0 193.35 Q549.55 193.35 545.9 191.4 L541.95 191.75 541.7 191.75 539.2 191.9 Q535.4 191.9 532.2 190.65 L531.4 190.6 526.0 191.25 523.2 191.1 523.1 191.1 522.5 191.0 M515.85 189.95 L497.75 189.2 496.65 189.6 Q494.75 190.8 493.8 190.8 489.6 190.8 486.25 188.65 L474.7 188.05 474.15 191.05 Q472.05 191.05 471.25 190.25 L467.15 192.75 467.3 196.25 453.75 193.65 453.35 194.3 454.85 197.3 448.05 195.9 446.8 196.1 446.8 200.6 Q443.45 202.0 440.1 200.0 L434.5 194.55 431.25 194.25 Q428.95 193.65 426.95 191.95 L424.9 191.95 424.9 190.1 Q423.15 186.85 423.45 183.15 L423.45 181.1 425.45 181.1 Q429.85 175.4 433.9 178.75 L434.4 174.7 Q426.2 169.55 431.95 165.8 431.35 162.2 432.8 158.65 434.2 154.7 432.8 150.7 434.05 148.3 438.35 148.35 439.65 150.0 439.0 151.65 437.75 153.3 439.0 154.9 437.1 157.4 438.4 159.9 L438.4 160.85 439.5 160.8 440.75 158.25 441.95 158.25 441.95 158.5 446.85 160.7 460.35 160.55 477.85 158.55 481.65 157.8 485.4 160.3 489.4 160.3 489.4 160.1 490.1 160.1 490.1 163.3 493.8 162.8 Q495.65 162.8 498.05 163.5 L500.15 163.85 M360.3 160.8 L359.05 158.25 357.85 158.25 357.85 158.5 352.95 160.7 339.45 160.55 321.95 158.55 318.15 157.8 314.4 160.3 310.4 160.3 310.4 160.1 309.7 160.1 309.7 163.3 M361.4 160.85 L360.3 160.8 M361.4 160.85 L361.4 159.9 Q362.7 157.4 360.8 154.9 362.05 153.3 360.8 151.65 360.15 150.0 361.45 148.35 365.75 148.3 367.0 150.7 365.6 154.7 367.0 158.65 368.45 162.2 367.85 165.8 373.6 169.55 365.4 174.7 L365.9 178.75 Q369.95 175.4 374.35 181.1 L376.35 181.1 376.35 183.15 Q376.65 186.85 374.9 190.1 L374.9 191.95 372.85 191.95 Q370.85 193.65 368.55 194.25 L365.3 194.55 359.7 200.0 Q356.35 202.0 353.0 200.6 L353.0 196.1 351.75 195.9 344.95 197.3 346.45 194.3 346.05 193.65 332.5 196.25 332.65 192.75 328.55 190.25 Q327.75 191.05 325.65 191.05 L325.1 188.05 313.55 188.65 Q310.2 190.8 306.0 190.8 305.05 190.8 303.15 189.6 L302.05 189.2 283.95 189.95 Q280.9 191.0 277.3 191.0 L276.7 191.1 276.6 191.1 273.8 191.25 268.4 190.6 267.6 190.65 Q264.4 191.9 260.6 191.9 L258.1 191.75 257.85 191.75 253.9 191.4 Q250.25 193.35 245.8 193.35 L244.55 193.3 Q241.5 193.1 238.8 191.95 L238.75 191.9 237.15 191.1 236.8 190.9 233.3 188.1 Q231.7 186.45 230.55 184.6 L229.2 185.05 Q228.1 185.05 227.3 183.95 226.5 182.85 226.5 181.3 226.5 179.75 227.3 178.65 L228.25 177.8 228.15 175.45 Q228.15 173.2 228.6 171.15 L228.5 171.0 Q227.7 169.9 227.7 168.35 227.7 166.8 228.5 165.7 229.3 164.6 230.4 164.6 L230.9 164.65 231.5 164.9 233.3 162.85 Q235.75 160.4 238.6 159.1 241.4 157.8 244.55 157.65 L245.8 157.6 Q250.2 157.6 253.85 159.5 L257.85 159.1 260.3 159.25 260.35 159.25 260.6 159.25 Q265.4 159.25 269.2 161.3 L273.8 160.85 276.65 161.0 278.3 161.3 Q281.95 161.4 285.05 162.7 L299.65 163.85 301.75 163.5 Q304.15 162.8 306.0 162.8 L309.7 163.3" fill="none" stroke="#000000" stroke-linecap="round" stroke-linejoin="round" stroke-width="1.0"/>
  </g>
</svg>
