<?xml version="1.0" encoding="UTF-8" standalone="no"?>
<svg xmlns:xlink="http://www.w3.org/1999/xlink" height="79.9px" width="146.45px" xmlns="http://www.w3.org/2000/svg">
  <g transform="matrix(1.0, 0.0, 0.0, 1.0, -326.65, -505.7)">
    <path d="M365.55 505.7 L368.05 510.35 Q354.35 555.6 333.0 583.65 326.25 592.15 326.7 563.55 L326.7 563.2 330.05 563.2 Q330.45 574.5 333.8 569.4 L334.25 568.8 Q336.3 566.15 337.4 563.2 L338.75 563.2 348.15 555.65 Q354.25 546.5 355.75 539.55 L359.8 524.3 359.45 520.9 361.3 520.9 363.7 516.35 363.25 510.0 Q364.35 508.55 365.55 505.7 M436.05 516.35 L438.45 520.9 440.3 520.9 439.95 524.3 444.0 539.55 Q445.5 546.5 451.6 555.65 L461.0 563.2 462.35 563.2 Q463.45 566.15 465.5 568.8 L465.95 569.4 Q469.3 574.5 469.7 563.2 L473.05 563.2 473.05 563.55 Q473.5 592.15 466.75 583.65 445.4 555.6 431.7 510.35 L434.2 505.7 Q435.4 508.55 436.5 510.0 L436.05 516.35" fill="#000000" fill-rule="evenodd" stroke="none"/>
  </g>
</svg>
