<?xml version="1.0" encoding="UTF-8" standalone="no"?>
<svg xmlns:xlink="http://www.w3.org/1999/xlink" height="37.25px" width="158.7px" xmlns="http://www.w3.org/2000/svg">
  <g transform="matrix(1.0, 0.0, 0.0, 1.0, -320.5, -512.25)">
    <path d="M352.15 543.9 Q353.75 540.2 354.3 536.25 354.9 532.75 355.9 529.45 M447.55 543.9 Q445.95 540.2 445.4 536.25 444.8 532.75 443.8 529.45" fill="none" stroke="#000000" stroke-linecap="round" stroke-linejoin="round" stroke-opacity="0.5019608" stroke-width="1.0"/>
    <path d="M355.9 529.45 Q346.1 520.1 330.6 520.95 L321.0 533.1 Q337.9 532.95 352.15 543.9 M355.9 529.45 Q357.75 523.3 361.15 517.85 362.2 516.0 362.7 513.95 L362.95 512.75 362.95 520.1 Q357.95 526.9 356.05 537.75 355.65 543.4 349.35 549.0 L352.15 543.9 M447.55 543.9 Q448.7 546.5 450.35 549.0 444.05 543.4 443.65 537.75 441.75 526.9 436.75 520.1 L436.75 512.75 437.0 513.95 Q437.5 516.0 438.55 517.85 441.95 523.3 443.8 529.45 453.6 520.1 469.1 520.95 L478.7 533.1 Q461.8 532.95 447.55 543.9" fill="none" stroke="#000000" stroke-linecap="round" stroke-linejoin="round" stroke-width="1.0"/>
  </g>
</svg>
