<?xml version="1.0" encoding="UTF-8" standalone="no"?>
<svg xmlns:xlink="http://www.w3.org/1999/xlink" height="36.0px" width="112.1px" xmlns="http://www.w3.org/2000/svg">
  <g transform="matrix(1.0, 0.0, 0.0, 1.0, -343.8, -404.95)">
    <path d="M451.65 420.35 Q452.35 421.55 452.55 423.35 452.75 425.15 451.45 427.8 452.2 430.7 450.7 431.95 L448.85 433.4 447.3 435.05 Q445.05 437.0 442.25 437.0 439.65 437.0 437.6 435.35 436.45 434.45 435.45 433.05 L434.3 431.15 Q432.75 428.1 432.65 424.25 L432.65 423.55 Q432.6 420.05 433.75 417.2 434.4 415.5 435.45 414.0 438.25 410.1 442.8 409.65 444.25 409.5 445.45 409.65 447.75 409.95 448.7 411.45 450.0 413.6 449.15 414.1 451.7 415.65 451.65 420.35 L432.65 424.25 M433.1 410.7 Q429.4 415.8 429.4 422.95 429.4 429.35 432.35 434.05 M423.2 414.7 Q425.0 414.1 427.9 415.9 M423.0 425.35 Q425.25 424.8 427.55 426.8 M449.15 414.1 L433.75 417.2 M451.45 427.8 L434.3 431.15 M448.85 433.4 L437.6 435.35 M376.5 414.7 Q374.7 414.1 371.8 415.9 M365.4 431.15 L364.25 433.05 Q363.25 434.45 362.1 435.35 360.05 437.0 357.45 437.0 354.65 437.0 352.4 435.05 L350.85 433.4 349.0 431.95 Q347.5 430.7 348.25 427.8 346.95 425.15 347.15 423.35 347.35 421.55 348.05 420.35 348.0 415.65 350.55 414.1 349.7 413.6 351.0 411.45 351.95 409.95 354.25 409.65 355.45 409.5 356.9 409.65 361.45 410.1 364.25 414.0 365.3 415.5 365.95 417.2 367.1 420.05 367.05 423.55 L367.05 424.25 Q366.95 428.1 365.4 431.15 L348.25 427.8 M376.7 425.35 Q374.45 424.8 372.15 426.8 M366.6 410.7 Q370.3 415.8 370.3 422.95 370.3 429.35 367.35 434.05 M350.85 433.4 L362.1 435.35 M348.05 420.35 L367.05 424.25 M365.95 417.2 L350.55 414.1" fill="none" stroke="#000000" stroke-linecap="round" stroke-linejoin="round" stroke-opacity="0.49803922" stroke-width="1.0"/>
    <path d="M432.35 434.05 L433.2 435.3 Q437.0 440.45 442.4 440.45 445.2 440.45 447.6 439.05 449.8 437.75 451.6 435.3 455.4 430.2 455.4 422.95 455.4 415.7 451.6 410.55 448.8 406.8 445.15 405.8 L442.4 405.45 Q437.0 405.45 433.2 410.55 L433.1 410.7 M432.35 434.05 L421.2 431.8 423.0 425.35 424.35 420.35 423.2 414.7 422.0 409.2 433.1 410.7 M377.7 409.2 L376.5 414.7 375.35 420.35 376.7 425.35 378.5 431.8 367.35 434.05 366.5 435.3 Q362.7 440.45 357.3 440.45 354.5 440.45 352.1 439.05 349.9 437.75 348.1 435.3 344.3 430.2 344.3 422.95 344.3 415.7 348.1 410.55 350.9 406.8 354.55 405.8 L357.3 405.45 Q362.7 405.45 366.5 410.55 L366.6 410.7 377.7 409.2" fill="none" stroke="#000000" stroke-linecap="round" stroke-linejoin="round" stroke-width="1.0"/>
  </g>
</svg>
