<?xml version="1.0" encoding="UTF-8" standalone="no"?>
<svg xmlns:xlink="http://www.w3.org/1999/xlink" height="59.65px" width="115.4px" xmlns="http://www.w3.org/2000/svg">
  <g transform="matrix(1.0, 0.0, 0.0, 1.0, -342.15, -437.0)">
    <path d="M422.85 451.85 Q421.95 449.95 421.35 448.05 420.05 443.9 420.15 439.55 442.1 444.9 456.4 437.0 457.75 442.25 457.5 448.05 L457.05 452.8 456.9 453.9 451.7 456.05 Q446.2 457.9 440.25 458.35 435.95 458.7 431.35 458.3 L426.35 457.65 422.85 451.85 M436.85 484.7 L440.85 485.05 448.55 484.8 Q451.2 484.35 453.4 483.5 L452.0 495.55 452.05 495.6 Q445.3 497.75 438.6 495.55 438.05 490.0 436.85 484.7 M342.2 448.05 Q341.95 442.25 343.3 437.0 357.6 444.9 379.55 439.55 379.65 443.9 378.35 448.05 L376.85 451.85 373.35 457.65 368.35 458.3 Q363.75 458.7 359.45 458.35 353.5 457.9 348.0 456.05 L342.8 453.9 342.65 452.8 342.2 448.05 M351.15 484.8 L358.85 485.05 362.85 484.7 Q361.65 490.0 361.1 495.55 354.4 497.75 347.7 495.6 L347.7 495.55 346.3 483.5 Q348.5 484.35 351.15 484.8" fill="#000000" fill-rule="evenodd" stroke="none"/>
  </g>
</svg>
