<?xml version="1.0" encoding="UTF-8" standalone="no"?>
<svg xmlns:xlink="http://www.w3.org/1999/xlink" height="127.2px" width="169.4px" xmlns="http://www.w3.org/2000/svg">
  <g transform="matrix(1.0, 0.0, 0.0, 1.0, -315.2, -436.5)">
    <path d="M323.65 529.85 L323.8 529.7 Q330.45 529.15 335.8 530.75 338.3 531.5 340.55 532.75 342.5 533.85 344.3 535.3 M359.2 521.4 L358.6 522.65 357.6 524.9 Q356.4 527.75 355.6 530.75 L355.05 532.75 354.35 536.3 Q353.0 545.65 345.85 553.6 L338.3 560.0 321.35 560.0 316.9 552.6 316.9 552.55 M435.95 499.6 Q438.15 500.85 439.25 502.6 440.8 505.05 442.15 505.7 444.0 503.0 447.85 501.55 453.0 499.95 456.25 499.75 M482.9 552.55 L482.9 552.6 482.9 552.65 M365.05 501.2 L366.2 500.4 366.45 501.1 Q366.85 501.8 367.4 501.8 367.95 501.8 368.3 501.1 368.7 500.45 368.7 499.5 368.7 498.55 368.3 497.85 367.95 497.2 367.4 497.2 366.85 497.2 366.45 497.85 L366.2 498.6 364.8 499.1 M363.85 499.6 Q361.65 500.85 360.55 502.6 359.0 505.05 357.65 505.7 359.15 507.95 359.3 511.05 L359.4 511.85 Q361.5 511.25 362.1 506.55 L362.6 504.6 M353.4 512.2 Q354.1 511.5 355.1 511.5 356.1 511.5 356.8 512.2 357.5 512.9 357.5 513.9 357.5 514.9 356.8 515.6 356.1 516.3 355.1 516.3 354.1 516.3 353.4 515.6 352.7 514.9 352.7 513.9 352.7 512.9 353.4 512.2 M338.25 511.4 Q346.1 511.7 350.0 517.4 352.35 521.35 356.55 519.15 L356.95 518.95 Q358.8 518.0 359.3 515.65 359.65 514.05 359.4 511.85 M363.25 509.9 Q363.2 514.3 361.2 517.85 L360.5 519.05 359.3 515.65 M359.2 521.4 L356.95 518.95 M357.65 505.7 Q355.8 503.0 351.95 501.55 346.8 499.95 343.55 499.75 M356.55 508.9 Q351.45 502.75 342.4 503.0 M446.4 512.2 Q445.7 511.5 444.7 511.5 443.7 511.5 443.0 512.2 442.3 512.9 442.3 513.9 442.3 514.9 443.0 515.6 443.7 516.3 444.7 516.3 445.7 516.3 446.4 515.6 447.1 514.9 447.1 513.9 447.1 512.9 446.4 512.2 M461.55 511.4 Q453.7 511.7 449.8 517.4 447.45 521.35 443.25 519.15 L442.85 518.95 440.6 521.4 Q444.15 528.35 445.45 536.3 446.8 545.65 453.95 553.6 L461.5 560.0 478.45 560.0 482.9 552.65 M476.15 529.85 Q463.85 528.45 455.5 535.3 M436.55 509.9 Q436.6 514.3 438.6 517.85 L439.3 519.05 440.5 515.65 Q440.15 514.05 440.4 511.85 438.3 511.25 437.7 506.55 L437.2 504.6 M434.75 501.2 L433.6 500.4 433.35 501.1 Q432.95 501.8 432.4 501.8 431.85 501.8 431.5 501.1 431.1 500.45 431.1 499.5 431.1 498.55 431.5 497.85 431.85 497.2 432.4 497.2 432.95 497.2 433.35 497.85 L433.6 498.6 435.0 499.1 M442.85 518.95 Q441.0 518.0 440.5 515.65 M440.4 511.85 L440.5 511.05 Q440.65 507.95 442.15 505.7 M443.25 508.9 Q448.35 502.75 457.4 503.0" fill="none" stroke="#000000" stroke-linecap="round" stroke-linejoin="round" stroke-opacity="0.5019608" stroke-width="1.0"/>
    <path d="M323.8 529.7 L338.25 511.4 336.9 511.35 Q336.15 503.05 339.15 500.6 340.45 499.55 343.55 499.75 L343.55 498.1 346.75 495.3 343.5 473.8 Q340.0 455.35 341.45 438.35 L343.35 437.0 Q346.15 438.55 349.25 439.6 L353.8 447.35 Q357.45 448.55 361.05 448.0 L369.85 441.35 379.6 439.55 381.25 439.95 Q380.1 453.9 371.85 468.15 367.75 474.6 365.2 482.25 364.15 485.45 363.35 488.9 L362.9 491.15 362.4 494.0 362.15 495.4 363.85 499.6 364.8 499.1 Q364.9 497.65 365.55 496.6 366.3 495.45 367.35 495.45 368.4 495.45 369.15 496.6 369.9 497.8 369.9 499.45 369.9 501.1 369.15 502.25 368.4 503.45 367.35 503.45 366.3 503.45 365.55 502.25 L365.05 501.2 Q363.35 502.5 362.6 504.6 L363.25 509.5 363.25 509.9 363.65 516.35 361.25 520.9 359.45 520.9 359.4 521.0 359.75 524.3 355.7 539.55 Q354.2 546.5 348.1 555.65 L338.7 563.2 320.0 563.2 316.9 552.55 Q313.85 544.1 318.4 536.45 L323.65 529.85 M456.25 499.75 L456.25 498.1 453.05 495.3 456.3 473.8 Q459.8 455.35 458.35 438.35 L456.45 437.0 Q453.65 438.55 450.55 439.6 L446.0 447.35 Q442.35 448.55 438.75 448.0 L429.95 441.35 Q425.3 440.8 420.2 439.55 L418.55 439.95 Q419.7 453.9 427.95 468.15 435.35 479.75 437.65 495.4 L435.95 499.6 M456.25 499.75 Q459.35 499.55 460.65 500.6 463.65 503.05 462.9 511.35 L461.55 511.4 476.15 529.85 481.4 536.45 Q485.95 544.1 482.9 552.55 M482.9 552.65 L479.8 563.2 461.1 563.2 451.7 555.65 Q445.6 546.5 444.1 539.55 L440.05 524.3 440.4 521.0 440.35 520.9 438.55 520.9 436.15 516.35 436.55 509.9 436.55 509.5 Q436.6 508.2 437.2 504.6 436.45 502.5 434.75 501.2 L434.25 502.25 Q433.5 503.45 432.45 503.45 431.4 503.45 430.65 502.25 429.9 501.1 429.9 499.45 429.9 497.8 430.65 496.6 431.4 495.45 432.45 495.45 433.5 495.45 434.25 496.6 434.9 497.65 435.0 499.1 L435.95 499.6 M360.5 519.05 L359.9 520.1 359.45 520.9 359.4 520.9 359.4 521.0 359.2 521.4 M482.9 552.65 L482.9 552.55 M439.3 519.05 L439.9 520.1 440.35 520.9 440.4 520.9 440.4 521.0 440.6 521.4" fill="none" stroke="#000000" stroke-linecap="round" stroke-linejoin="round" stroke-width="1.0"/>
  </g>
</svg>
