<?xml version="1.0" encoding="UTF-8" standalone="no"?>
<svg xmlns:xlink="http://www.w3.org/1999/xlink" height="60.65px" width="38.4px" xmlns="http://www.w3.org/2000/svg">
  <g transform="matrix(1.0, 0.0, 0.0, 1.0, -341.65, -436.5)">
    <path d="M348.0 456.05 L342.8 453.9 M350.45 472.3 L354.9 479.05 M358.85 485.05 L362.85 484.7 M358.45 473.5 L354.25 466.45 M346.3 483.5 Q348.5 484.35 351.15 484.8 M359.45 458.35 Q363.75 458.7 368.35 458.3 M347.65 495.6 L347.35 495.5" fill="none" stroke="#000000" stroke-linecap="round" stroke-linejoin="round" stroke-opacity="0.5019608" stroke-width="1.0"/>
    <path d="M348.0 456.05 L354.25 466.45 359.45 458.35 Q353.5 457.9 348.0 456.05 M342.8 453.9 L343.75 462.1 350.45 472.3 M354.9 479.05 L358.85 485.05 351.15 484.8 354.9 479.05 M362.85 484.7 L363.5 481.9 358.45 473.5 M342.8 453.9 L342.65 452.8 342.2 448.05 Q341.95 442.25 343.3 437.0 357.6 444.9 379.55 439.55 379.65 443.9 378.35 448.05 L376.85 451.85 373.35 457.65 368.35 458.3 358.45 473.5 M347.65 495.6 L347.7 495.55 346.3 483.5 345.8 479.45 350.45 472.3 M362.85 484.7 Q361.65 490.0 361.1 495.55 354.4 497.75 347.65 495.6" fill="none" stroke="#000000" stroke-linecap="round" stroke-linejoin="round" stroke-width="1.0"/>
  </g>
</svg>
