<?xml version="1.0" encoding="UTF-8" standalone="no"?>
<svg xmlns:xlink="http://www.w3.org/1999/xlink" height="160.7px" width="168.4px" xmlns="http://www.w3.org/2000/svg">
  <g transform="matrix(1.0, 0.0, 0.0, 1.0, -315.65, -399.25)">
    <path d="M321.3 559.95 L316.85 552.55 316.05 549.75 Q314.55 542.8 318.35 536.4 L339.0 510.35 338.0 503.1 Q342.6 498.95 344.35 494.05 L345.2 492.95 342.05 477.6 344.65 469.7 342.65 452.8 Q342.05 448.8 342.15 445.05 340.6 443.95 338.85 442.95 340.95 433.7 346.65 426.8 L349.85 429.45 346.7 419.1 355.6 399.25 366.8 399.25 371.55 421.8 367.05 430.3 377.45 428.45 Q382.15 437.1 382.6 447.1 L378.5 447.5 376.85 451.85 Q370.2 462.0 366.3 472.85 367.55 477.0 370.05 480.1 L362.2 495.65 Q364.85 500.15 367.95 504.05 L367.95 509.65 362.7 513.95 Q362.2 516.0 361.15 517.85 L359.8 520.1 Q357.4 524.6 355.9 529.45 354.9 532.75 354.3 536.25 353.75 540.15 352.15 543.85 L352.1 543.9 Q349.95 548.95 345.8 553.55 L338.25 559.95 321.3 559.95 M453.05 426.8 Q458.75 433.7 460.85 442.95 L457.55 445.05 Q457.65 448.8 457.05 452.8 L455.05 469.7 Q456.2 473.65 457.65 477.6 L454.5 492.95 455.35 494.05 Q457.1 498.95 461.7 503.1 L460.7 510.35 481.35 536.4 Q485.15 542.8 483.65 549.75 L482.85 552.55 478.4 559.95 461.45 559.95 453.9 553.55 Q449.75 548.95 447.6 543.9 445.95 540.2 445.4 536.25 444.8 532.75 443.85 529.45 442.3 524.55 439.9 520.1 L438.55 517.85 Q437.5 516.0 437.0 513.95 L431.75 509.65 431.75 504.05 Q434.85 500.15 437.5 495.65 L429.65 480.1 Q432.15 477.0 433.4 472.85 429.5 462.0 422.85 451.85 421.8 449.7 421.2 447.5 L417.1 447.1 Q417.55 437.1 422.25 428.45 L432.65 430.3 428.15 421.8 432.9 399.25 444.1 399.25 453.0 419.1 449.85 429.45 453.05 426.8" fill="#000000" fill-rule="evenodd" stroke="none"/>
  </g>
</svg>
