<?xml version="1.0" encoding="UTF-8" standalone="no"?>
<svg xmlns:xlink="http://www.w3.org/1999/xlink" height="46.9px" width="117.2px" xmlns="http://www.w3.org/2000/svg">
  <g transform="matrix(1.0, 0.0, 0.0, 1.0, -341.3, -449.95)">
    <path d="M438.4 489.75 L439.35 489.8 441.45 489.95 442.2 489.95 445.0 489.95 445.6 489.9 448.6 489.65 448.95 489.6 450.05 489.45 451.35 489.25 451.55 489.25 453.85 488.75 454.2 488.35 454.25 488.3 454.25 488.35 453.5 494.55 Q452.4 498.55 451.3 494.7 450.7 496.9 450.05 496.6 449.6 496.35 449.15 494.8 447.5 498.85 445.9 494.95 444.3 498.7 442.7 495.1 441.55 498.05 440.05 495.25 438.75 497.75 437.4 495.35 L436.4 489.25 436.95 489.55 438.4 489.75 M428.45 462.85 L431.95 463.4 435.95 463.75 439.9 463.8 443.95 463.45 447.95 462.7 450.05 462.15 452.65 461.35 456.95 459.5 457.75 458.45 457.7 459.55 Q456.95 473.15 454.45 486.7 L454.45 486.8 454.4 486.7 453.85 485.95 451.65 486.5 451.45 486.55 450.05 486.8 448.85 487.0 448.5 487.05 445.45 487.35 444.85 487.4 442.0 487.4 441.2 487.35 439.0 487.2 438.05 487.1 436.15 486.8 436.05 486.95 436.0 486.85 435.85 485.9 Q430.3 471.1 428.1 462.95 L428.05 462.75 428.45 462.85 M439.1 455.0 Q440.7 450.9 443.4 454.3 445.5 449.95 447.65 453.65 448.85 451.6 450.05 451.25 451.5 450.85 452.95 452.85 455.7 447.5 458.5 452.0 L457.9 457.25 457.65 456.6 457.45 456.3 456.75 456.6 452.75 458.1 450.05 458.95 447.85 459.5 443.75 460.25 439.6 460.7 435.6 460.85 431.45 460.7 427.55 460.25 426.6 460.1 424.6 457.1 424.95 457.05 Q426.0 455.3 427.55 455.4 428.6 455.5 429.85 456.4 L430.65 456.3 Q432.5 452.8 434.9 455.65 436.55 451.8 439.1 455.0 M360.7 455.0 Q363.25 451.8 364.9 455.65 367.3 452.8 369.15 456.3 L369.95 456.4 Q371.2 455.5 372.25 455.4 373.8 455.3 374.85 457.05 L375.2 457.1 373.2 460.1 372.25 460.25 368.35 460.7 364.2 460.85 360.2 460.7 356.05 460.25 351.95 459.5 349.75 458.95 347.05 458.1 343.05 456.6 342.35 456.3 342.15 456.6 341.9 457.25 341.3 452.0 Q344.1 447.5 346.85 452.85 348.3 450.85 349.75 451.25 350.95 451.6 352.15 453.65 354.3 449.95 356.4 454.3 359.1 450.9 360.7 455.0 M349.75 462.15 L351.85 462.7 355.85 463.45 359.9 463.8 363.85 463.75 367.85 463.4 371.35 462.85 371.75 462.75 371.7 462.95 Q369.5 471.1 363.95 485.9 L363.8 486.85 363.75 486.95 363.65 486.8 361.75 487.1 360.8 487.2 358.6 487.35 357.8 487.4 354.95 487.4 354.35 487.35 351.3 487.05 350.95 487.0 349.75 486.8 348.35 486.55 348.15 486.5 345.95 485.95 345.4 486.7 345.35 486.8 345.35 486.7 Q342.85 473.15 342.1 459.55 L342.05 458.45 342.85 459.5 347.15 461.35 349.75 462.15 M345.55 488.3 L345.6 488.35 345.95 488.75 348.25 489.25 348.45 489.25 349.75 489.45 350.85 489.6 351.2 489.65 354.2 489.9 354.8 489.95 357.6 489.95 358.35 489.95 360.45 489.8 361.4 489.75 362.85 489.55 363.4 489.25 362.4 495.35 Q361.05 497.75 359.75 495.25 358.25 498.05 357.1 495.1 355.5 498.7 353.9 494.95 352.3 498.85 350.65 494.8 350.2 496.35 349.75 496.6 349.1 496.9 348.5 494.7 347.4 498.55 346.3 494.55 L345.55 488.35 345.55 488.3" fill="#000000" fill-rule="evenodd" stroke="none"/>
  </g>
</svg>
