<?xml version="1.0" encoding="UTF-8" standalone="no"?>
<svg xmlns:xlink="http://www.w3.org/1999/xlink" height="57.2px" width="168.4px" xmlns="http://www.w3.org/2000/svg">
  <g transform="matrix(1.0, 0.0, 0.0, 1.0, -315.65, -495.65)">
    <path d="M316.05 549.75 Q314.55 542.8 318.35 536.4 L328.45 523.7 341.6 502.45 343.7 495.65 345.6 497.6 344.45 498.7 344.45 501.5 Q350.1 500.45 356.5 505.7 358.0 498.9 362.3 498.5 L364.8 498.75 364.9 500.25 Q359.45 507.45 360.6 513.1 354.75 521.7 352.4 532.1 349.85 545.75 340.85 552.85 337.15 550.65 333.4 549.5 328.15 547.85 322.9 548.3 319.5 548.6 316.05 549.75 M345.85 525.95 L348.2 520.7 Q340.1 518.0 333.6 517.95 L330.05 523.5 Q337.95 523.45 345.85 525.95 M343.15 532.0 Q334.55 529.1 325.9 529.65 L322.6 534.85 Q332.65 534.95 341.4 537.45 342.2 534.7 343.15 532.0 M350.95 515.35 L354.2 509.75 Q347.15 506.8 341.1 507.0 L337.4 512.05 Q343.95 512.8 350.95 515.35 M458.1 502.45 L471.25 523.7 481.35 536.4 Q485.15 542.8 483.65 549.75 480.2 548.6 476.8 548.3 471.55 547.85 466.3 549.5 462.55 550.65 458.85 552.85 449.85 545.75 447.3 532.1 444.95 521.7 439.1 513.1 440.25 507.45 434.8 500.25 L434.9 498.75 437.4 498.5 Q441.7 498.9 443.2 505.7 449.6 500.45 455.25 501.5 L455.25 498.7 454.1 497.6 456.0 495.65 458.1 502.45 M448.75 515.35 Q455.75 512.8 462.3 512.05 L458.6 507.0 Q452.55 506.8 445.5 509.75 L448.75 515.35 M458.3 537.45 Q467.05 534.95 477.1 534.85 L473.8 529.65 Q465.15 529.1 456.55 532.0 L458.3 537.45 M453.85 525.95 Q461.75 523.45 469.65 523.5 L466.1 517.95 Q459.6 518.0 451.5 520.7 L453.85 525.95" fill="#000000" fill-rule="evenodd" stroke="none"/>
  </g>
</svg>
