<?xml version="1.0" encoding="UTF-8" standalone="no"?>
<svg xmlns:xlink="http://www.w3.org/1999/xlink" height="120.0px" width="55.55px" xmlns="http://www.w3.org/2000/svg">
  <g transform="matrix(1.0, 0.0, 0.0, 1.0, -315.7, -440.0)">
    <path d="M316.9 552.6 Q313.85 544.15 318.4 536.45 L344.5 503.45 344.5 498.7 347.75 495.55 343.6 460.25 343.65 459.95 Q346.55 448.75 351.1 440.0 L353.1 447.85 357.9 442.2 Q360.4 453.35 360.1 465.05 L360.7 466.3 Q362.75 470.1 366.55 466.3 L367.0 465.8 Q368.95 463.6 371.25 461.65 363.0 477.75 361.15 495.55 L362.9 499.85 362.05 503.3 363.0 506.5 363.0 506.8 Q363.9 513.1 361.2 517.85 L359.9 520.1 Q355.8 527.6 354.35 536.3 353.0 545.65 345.85 553.6 L338.3 560.0 321.35 560.0 316.9 552.6" fill="#000000" fill-rule="evenodd" stroke="none"/>
  </g>
</svg>
