<?xml version="1.0" encoding="UTF-8" standalone="no"?>
<svg xmlns:xlink="http://www.w3.org/1999/xlink" height="166.5px" width="78.35px" xmlns="http://www.w3.org/2000/svg">
  <g transform="matrix(1.0, 0.0, 0.0, 1.0, -315.15, -393.5)">
    <path d="M343.6 395.0 L343.65 393.5 343.9 395.0 Q345.05 402.3 347.2 406.85 349.7 412.15 354.3 415.6 356.95 416.8 359.65 417.25 L362.0 417.55 362.5 417.55 364.25 417.55 Q367.45 417.4 370.75 416.25 380.45 409.9 386.3 395.0 L386.5 394.5 386.45 395.0 Q384.7 404.55 380.75 413.5 379.75 415.7 378.35 417.55 377.05 419.2 375.4 420.55 L378.1 430.75 Q379.75 435.8 379.6 439.55 383.4 437.75 386.4 434.75 388.7 432.4 390.45 429.9 392.3 427.3 393.5 424.5 392.65 429.2 390.45 433.8 L387.35 439.15 Q384.3 443.65 380.4 446.0 L378.7 446.9 Q378.45 449.15 376.9 451.85 L370.8 462.45 365.35 475.8 371.0 472.1 372.9 470.8 Q380.05 465.6 385.5 456.7 382.05 464.85 378.3 470.8 375.7 474.8 373.0 477.85 368.4 483.0 362.9 484.7 L361.15 495.55 362.9 499.85 362.05 503.3 363.0 506.8 Q364.9 511.95 361.75 517.35 358.55 522.7 355.95 529.5 355.4 537.35 352.2 543.95 350.15 549.7 345.85 553.6 L338.3 560.0 334.4 560.0 Q331.75 553.85 333.3 548.05 334.5 543.85 336.6 540.6 L355.8 505.4 359.1 473.45 361.7 470.8 Q366.0 465.75 368.3 458.35 L371.5 441.65 369.7 446.0 Q366.05 453.75 360.75 458.4 L352.35 457.7 Q348.55 452.25 346.9 446.0 346.1 443.1 345.8 440.0 L345.65 438.6 344.95 455.1 Q345.95 464.25 350.35 470.8 L351.85 472.85 351.1 495.1 348.85 505.0 326.0 538.75 Q324.3 541.15 323.3 544.45 322.25 547.95 322.65 552.15 322.75 556.25 323.8 560.0 L321.35 560.0 316.9 552.6 Q315.25 549.75 315.15 547.15 315.05 543.85 316.0 541.1 316.9 538.35 318.4 536.45 L344.5 503.45 344.5 498.7 347.4 495.5 346.35 483.5 Q340.65 478.45 337.4 470.8 L337.15 470.2 Q333.7 461.7 334.0 453.6 336.7 461.05 340.3 468.35 L341.8 470.8 Q343.15 472.6 345.2 474.15 L344.7 470.8 Q343.2 461.25 342.2 451.55 341.95 448.85 342.15 446.0 L342.2 445.1 Q340.0 443.3 338.8 440.0 337.95 437.8 337.55 434.9 336.3 425.85 338.0 417.55 L338.25 416.35 338.35 417.55 Q338.7 423.6 339.55 429.75 340.1 433.8 343.35 437.0 345.5 428.75 348.85 420.55 L347.0 417.55 Q346.0 415.5 345.2 412.95 343.3 404.65 343.6 395.0" fill="#000000" fill-rule="evenodd" stroke="none"/>
  </g>
</svg>
