<?xml version="1.0" encoding="UTF-8" standalone="no"?>
<svg xmlns:xlink="http://www.w3.org/1999/xlink" height="112.0px" width="58.55px" xmlns="http://www.w3.org/2000/svg">
  <g transform="matrix(1.0, 0.0, 0.0, 1.0, -321.0, -437.0)">
    <path d="M362.85 484.7 Q361.65 490.0 361.1 495.55 354.4 497.75 347.7 495.6 L347.7 495.55 346.3 483.5 Q348.5 484.35 351.15 484.8 L358.85 485.05 362.85 484.7 M342.65 452.8 L342.2 448.05 Q341.95 442.25 343.3 437.0 357.6 444.9 379.55 439.55 379.65 443.9 378.35 448.05 L376.85 451.85 373.35 457.65 368.35 458.3 Q363.75 458.7 359.45 458.35 353.5 457.9 348.0 456.05 L342.8 453.9 342.65 452.8 M361.15 517.85 Q362.2 516.0 362.7 513.95 L362.95 513.95 362.95 520.1 Q357.95 526.9 356.05 537.75 355.65 543.4 349.35 549.0 L352.15 543.9 Q337.9 532.95 321.0 533.1 L330.6 520.95 Q346.1 520.1 355.9 529.45 357.75 523.3 361.15 517.85" fill="#000000" fill-rule="evenodd" stroke="none"/>
  </g>
</svg>
