<?xml version="1.0" encoding="UTF-8" standalone="no"?>
<svg xmlns:xlink="http://www.w3.org/1999/xlink" height="68.25px" width="55.7px" xmlns="http://www.w3.org/2000/svg">
  <g transform="matrix(1.0, 0.0, 0.0, 1.0, -372.0, -156.2)">
    <path d="M373.3 197.4 Q373.3 195.3 373.6 194.9 374.15 196.0 375.1 196.95 L376.8 197.9 Q377.6 197.9 377.6 197.05 377.6 196.55 376.65 195.5 L376.8 195.45 378.95 195.35 378.95 195.15 Q376.8 193.25 376.25 193.25 L376.25 193.15 377.65 192.9 379.4 193.3 379.4 193.25 Q379.25 192.85 377.4 191.75 L378.8 191.65 380.35 191.9 381.55 192.4 Q382.8 193.15 384.0 193.1 381.75 191.4 381.75 190.05 381.75 189.65 382.8 187.35 L383.15 186.65 383.3 186.3 384.8 183.1 384.75 182.5 385.4 182.45 386.25 182.3 Q386.75 182.9 386.75 183.6 386.75 184.3 385.75 185.95 385.4 186.55 385.2 187.2 384.8 188.15 384.8 189.05 384.8 190.85 387.35 192.9 389.7 194.75 391.05 194.75 L393.9 192.75 Q394.2 192.75 394.3 193.6 392.3 198.25 391.6 198.9 389.6 200.85 387.95 203.9 L387.85 203.95 387.65 204.6 387.6 204.85 387.6 204.9 387.55 205.0 Q387.35 205.95 387.85 206.85 388.2 207.2 389.05 207.15 389.0 208.45 389.7 209.6 390.4 210.7 391.15 210.7 L392.4 209.35 392.0 211.25 394.3 209.85 Q393.75 211.2 393.75 212.1 393.75 213.8 395.1 215.1 396.3 216.3 397.55 216.3 L399.85 214.5 Q401.65 216.3 402.2 216.3 403.4 216.3 404.6 215.1 405.95 213.8 405.95 212.1 L405.45 209.85 Q407.3 211.05 407.7 211.25 L407.3 209.35 408.6 210.7 Q409.3 210.7 410.0 209.6 410.7 208.45 410.65 207.15 411.5 207.2 411.85 206.85 412.35 205.95 412.2 205.0 L412.15 204.9 412.15 204.85 412.1 204.6 411.85 203.95 411.8 203.9 Q410.15 200.85 408.1 198.9 407.4 198.25 405.45 193.6 405.5 192.75 405.8 192.75 L408.7 194.75 Q410.0 194.75 412.35 192.9 414.9 190.85 414.9 189.05 L414.55 187.2 413.95 185.95 Q413.0 184.3 413.0 183.6 413.0 182.9 413.5 182.3 L414.35 182.45 415.0 182.5 414.9 183.1 416.45 186.3 416.9 187.35 417.9 189.85 417.95 190.05 Q417.95 191.4 415.7 193.1 416.9 193.15 418.15 192.4 L419.4 191.9 420.9 191.65 422.35 191.75 Q420.5 192.85 420.3 193.25 L420.3 193.3 422.1 192.9 423.45 193.15 423.45 193.25 Q422.9 193.25 420.75 195.15 L420.75 195.35 422.9 195.45 423.05 195.5 Q422.1 196.55 422.1 197.05 422.1 197.9 422.95 197.9 423.6 197.9 424.6 196.95 L426.1 194.9 Q426.45 195.3 426.45 197.4 426.45 199.65 424.6 200.7 L426.2 201.0 427.7 201.65 Q425.25 201.65 424.5 202.6 L424.45 202.65 424.45 202.7 424.5 202.7 Q425.3 202.55 426.9 204.3 L425.05 204.6 Q423.45 205.1 422.85 206.65 421.8 209.35 419.35 211.0 L417.7 212.55 417.55 212.55 420.1 212.95 421.25 212.7 420.5 213.45 Q417.45 216.3 413.55 216.45 L413.45 216.45 415.7 216.7 415.85 216.7 Q413.1 219.25 411.2 220.3 408.95 221.6 406.4 221.75 L408.65 222.05 Q405.9 224.5 400.4 224.45 L399.85 224.4 399.3 224.45 Q393.85 224.5 391.05 222.05 L391.1 222.05 393.3 221.75 Q390.75 221.6 388.5 220.3 386.6 219.25 383.85 216.7 L384.0 216.7 386.3 216.45 386.15 216.45 Q382.25 216.3 379.2 213.45 L378.5 212.7 379.65 212.95 382.15 212.55 382.0 212.55 380.4 211.0 Q377.9 209.35 376.9 206.65 376.25 205.1 374.65 204.6 L372.8 204.3 Q374.45 202.55 375.25 202.7 L375.3 202.7 375.3 202.65 375.25 202.6 Q374.5 201.65 372.0 201.65 L373.5 201.0 375.1 200.7 Q373.3 199.65 373.3 197.4 M399.7 156.2 L400.3 156.3 Q407.0 157.45 411.0 161.1 L412.85 163.15 Q416.35 167.75 416.8 175.35 L416.8 177.05 416.65 176.95 Q415.85 176.2 414.95 175.65 L414.75 175.55 410.4 168.25 410.4 166.25 Q410.3 164.8 409.55 164.25 408.3 163.4 406.0 163.4 402.4 163.4 399.85 165.5 397.3 163.4 393.7 163.4 391.4 163.4 390.15 164.25 389.4 164.8 389.3 166.25 L389.3 168.25 384.95 175.55 384.75 175.65 383.35 176.7 383.35 175.4 Q383.65 167.55 387.2 162.9 L389.05 160.9 Q393.0 157.25 399.7 156.2" fill="#000000" fill-rule="evenodd" stroke="none"/>
  </g>
</svg>
