<?xml version="1.0" encoding="UTF-8" standalone="no"?>
<svg xmlns:xlink="http://www.w3.org/1999/xlink" height="16.0px" width="15.05px" xmlns="http://www.w3.org/2000/svg">
  <g transform="matrix(1.0, 0.0, 0.0, 1.0, -374.1, -158.95)">
    <path d="M388.75 164.3 L389.15 167.25 Q389.15 168.5 388.35 170.8 L387.75 172.3 Q387.05 173.75 386.3 174.2 L383.6 174.95 382.65 173.95 381.25 172.6 380.65 172.1 380.55 172.05 380.4 171.9 380.2 171.75 377.85 170.4 375.0 168.75 Q374.1 168.2 374.1 167.4 L374.2 166.3 378.25 165.25 380.05 160.4 379.6 159.8 379.55 159.7 380.55 158.95 380.85 158.95 381.75 159.9 384.45 162.15 385.25 162.65 387.4 163.75 387.45 163.8 388.75 164.3" fill="#000000" fill-rule="evenodd" stroke="none"/>
  </g>
</svg>
