<?xml version="1.0" encoding="UTF-8" standalone="no"?>
<svg xmlns:xlink="http://www.w3.org/1999/xlink" height="54.95px" width="39.1px" xmlns="http://www.w3.org/2000/svg">
  <g transform="matrix(1.0, 0.0, 0.0, 1.0, -380.25, -159.6)">
    <path d="M381.85 168.55 L382.8 167.3 Q389.0 160.05 399.8 160.1 410.6 160.05 416.8 167.3 L417.75 168.55 Q418.45 172.65 418.5 181.45 L418.5 181.7 418.5 181.9 418.3 186.0 418.1 187.6 Q419.5 192.95 418.3 200.15 415.9 205.8 410.9 210.05 406.45 213.8 399.8 214.05 393.15 213.8 388.7 210.05 383.7 205.8 381.3 200.15 380.1 192.95 381.5 187.6 L381.3 186.0 381.1 181.9 381.1 181.7 381.1 181.45 Q381.15 172.65 381.85 168.55 Z" fill="none" stroke="#000000" stroke-linecap="round" stroke-linejoin="round" stroke-width="1.0"/>
  </g>
</svg>
