<?xml version="1.0" encoding="UTF-8" standalone="no"?>
<svg xmlns:xlink="http://www.w3.org/1999/xlink" height="52.05px" width="36.9px" xmlns="http://www.w3.org/2000/svg">
  <g transform="matrix(1.0, 0.0, 0.0, 1.0, -381.35, -160.2)">
    <path d="M382.7 190.65 L382.55 190.0 382.25 188.6 381.8 185.8 Q380.7 177.95 382.15 171.25 385.5 160.8 399.8 160.2 414.1 160.8 417.45 171.25 418.9 177.95 417.8 185.8 L417.35 188.6 417.05 190.0 416.9 190.65 416.9 190.7 414.0 201.25 410.1 205.05 Q406.6 208.35 401.8 211.75 L399.8 212.25 397.8 211.75 Q393.0 208.35 389.5 205.05 L385.6 201.25 382.7 190.7 382.7 190.65 M403.15 185.15 Q403.15 187.0 404.75 188.3 406.35 189.6 408.6 189.6 410.85 189.6 412.45 188.3 414.05 187.0 414.05 185.05 414.05 183.1 412.45 181.85 410.85 180.6 408.8 181.25 L404.95 182.6 Q403.15 183.3 403.15 185.15 M387.15 181.85 Q385.55 183.1 385.55 185.05 385.55 187.0 387.15 188.3 388.75 189.6 391.0 189.6 393.25 189.6 394.85 188.3 396.45 187.0 396.45 185.15 396.45 183.3 394.65 182.6 L390.8 181.25 Q388.75 180.6 387.15 181.85 M396.8 193.5 Q396.65 196.85 399.8 195.0 402.95 196.85 402.8 193.5 L399.8 189.1 396.8 193.5" fill="#000000" fill-rule="evenodd" stroke="none"/>
  </g>
</svg>
