<?xml version="1.0" encoding="UTF-8" standalone="no"?>
<svg xmlns:xlink="http://www.w3.org/1999/xlink" height="53.95px" width="37.4px" xmlns="http://www.w3.org/2000/svg">
  <g transform="matrix(1.0, 0.0, 0.0, 1.0, -381.1, -160.1)">
    <path d="M381.85 168.55 L382.8 167.3 Q389.0 160.05 399.8 160.1 410.6 160.05 416.8 167.3 L417.75 168.55 Q418.45 172.65 418.5 181.45 L418.5 181.7 418.5 181.9 418.3 186.0 418.1 187.6 Q415.65 196.9 409.65 197.7 L408.05 201.9 408.05 212.0 Q404.45 213.85 399.8 214.05 395.15 213.9 391.55 212.0 L391.55 201.9 389.95 197.7 Q383.9 196.9 381.5 187.6 L381.3 186.0 381.1 181.9 381.1 181.7 381.1 181.45 Q381.15 172.65 381.85 168.55" fill="#000000" fill-rule="evenodd" stroke="none"/>
  </g>
</svg>
