<?xml version="1.0" encoding="UTF-8" standalone="no"?>
<svg xmlns:xlink="http://www.w3.org/1999/xlink" height="98.35px" width="93.5px" xmlns="http://www.w3.org/2000/svg">
  <g transform="matrix(1.0, 0.0, 0.0, 1.0, 47.0, 164.7)">
    <path d="M18.3 -125.1 Q16.7 -127.1 15.65 -129.15 30.75 -131.7 39.6 -140.5 45.85 -146.8 44.3 -164.7 54.4 -132.4 18.35 -125.05 L18.3 -125.1 M12.3 -120.0 L14.6 -120.95 15.9 -119.65 Q21.7 -115.3 18.1 -110.2 L19.45 -111.3 Q20.3 -112.15 20.75 -113.15 24.55 -106.0 25.75 -98.85 23.75 -101.8 20.45 -102.95 L20.25 -101.4 Q19.4 -94.85 17.2 -88.65 12.95 -76.8 3.85 -66.35 12.85 -81.75 13.4 -95.65 L9.5 -90.25 Q5.05 -87.35 -0.25 -85.9 -5.55 -87.35 -10.0 -90.25 L-13.9 -95.65 Q-13.35 -81.75 -4.35 -66.35 -13.45 -76.8 -17.65 -88.65 -19.9 -94.85 -20.75 -101.4 L-20.95 -102.95 Q-24.25 -101.8 -26.25 -98.85 -25.05 -106.0 -21.2 -113.15 -20.8 -112.15 -19.95 -111.3 L-18.6 -110.2 Q-22.25 -115.3 -16.4 -119.65 L-15.1 -120.95 -12.8 -120.0 Q-14.55 -118.2 -12.7 -116.7 -10.05 -117.1 -9.45 -118.7 -8.6 -118.3 -8.0 -118.25 L-5.9 -109.15 Q-8.3 -107.15 -8.9 -101.4 L-9.0 -99.8 -9.05 -99.4 -8.95 -97.75 Q-8.1 -94.0 -0.25 -93.6 7.6 -94.0 8.45 -97.75 L8.55 -99.4 8.5 -99.8 8.4 -101.4 Q7.75 -107.15 5.4 -109.1 L7.5 -118.25 Q8.1 -118.3 8.95 -118.7 9.55 -117.1 12.2 -116.7 14.05 -118.2 12.3 -120.0 M19.45 -120.45 L18.6 -121.5 Q24.9 -116.6 30.5 -117.1 26.25 -113.9 21.5 -118.25 L19.45 -120.45 M-18.8 -125.1 L-18.85 -125.05 Q-54.9 -132.4 -44.8 -164.7 -46.35 -146.8 -40.1 -140.5 -31.25 -131.7 -16.15 -129.15 -17.2 -127.1 -18.8 -125.1" fill="#000000" fill-opacity="0.2509804" fill-rule="evenodd" stroke="none"/>
    <path d="M12.3 -120.0 Q14.05 -118.2 12.2 -116.7 9.55 -117.1 8.95 -118.7 L12.3 -120.0 M-9.45 -118.7 Q-10.05 -117.1 -12.7 -116.7 -14.55 -118.2 -12.8 -120.0 L-9.45 -118.7" fill="#ffffcc" fill-rule="evenodd" stroke="none"/>
  </g>
</svg>
