<?xml version="1.0" encoding="UTF-8" standalone="no"?>
<svg xmlns:xlink="http://www.w3.org/1999/xlink" height="52.9px" width="49.0px" xmlns="http://www.w3.org/2000/svg">
  <g transform="matrix(1.0, 0.0, 0.0, 1.0, -375.35, -163.4)">
    <path d="M393.7 163.4 Q397.3 163.4 399.85 165.5 402.4 163.4 406.0 163.4 408.3 163.4 409.55 164.25 410.3 164.8 410.4 166.25 L410.4 168.25 414.75 175.55 414.95 175.65 Q415.85 176.2 416.65 176.95 L416.8 177.05 Q418.7 178.85 419.1 180.05 420.1 179.45 421.1 179.45 422.0 179.45 423.0 180.55 L423.2 180.75 Q424.1 181.8 424.35 183.3 L424.35 184.05 Q424.35 185.65 422.1 188.6 L420.55 190.55 419.4 191.9 418.15 192.4 Q416.9 193.15 415.7 193.1 417.95 191.4 417.95 190.05 L417.9 189.85 416.9 187.35 416.45 186.3 414.9 183.1 415.0 182.5 414.35 182.45 413.5 182.3 Q413.0 182.9 413.0 183.6 413.0 184.3 413.95 185.95 L414.55 187.2 414.9 189.05 Q414.9 190.85 412.35 192.9 410.0 194.75 408.7 194.75 L405.8 192.75 Q405.5 192.75 405.45 193.6 407.4 198.25 408.1 198.9 410.15 200.85 411.8 203.9 L411.85 203.95 412.1 204.6 412.15 204.85 412.15 204.9 412.2 205.0 Q412.35 205.95 411.85 206.85 411.5 207.2 410.65 207.15 410.7 208.45 410.0 209.6 409.3 210.7 408.6 210.7 L407.3 209.35 407.7 211.25 Q407.3 211.05 405.45 209.85 L405.95 212.1 Q405.95 213.8 404.6 215.1 403.4 216.3 402.2 216.3 401.65 216.3 399.85 214.5 L397.55 216.3 Q396.3 216.3 395.1 215.1 393.75 213.8 393.75 212.1 393.75 211.2 394.3 209.85 L392.0 211.25 392.4 209.35 391.15 210.7 Q390.4 210.7 389.7 209.6 389.0 208.45 389.05 207.15 388.2 207.2 387.85 206.85 387.35 205.95 387.55 205.0 L387.6 204.9 387.6 204.85 387.65 204.6 387.85 203.95 387.95 203.9 Q389.6 200.85 391.6 198.9 392.3 198.25 394.3 193.6 394.2 192.75 393.9 192.75 L391.05 194.75 Q389.7 194.75 387.35 192.9 384.8 190.85 384.8 189.05 384.8 188.15 385.2 187.2 385.4 186.55 385.75 185.95 386.75 184.3 386.75 183.6 386.75 182.9 386.25 182.3 L385.4 182.45 384.75 182.5 384.8 183.1 383.3 186.3 383.15 186.65 382.8 187.35 Q381.75 189.65 381.75 190.05 381.75 191.4 384.0 193.1 382.8 193.15 381.55 192.4 L380.35 191.9 379.2 190.55 377.6 188.6 Q375.35 185.65 375.35 184.05 375.35 182.05 376.55 180.75 L376.7 180.55 Q377.75 179.45 378.6 179.45 379.65 179.45 380.6 180.05 L381.05 179.15 Q381.65 178.25 382.95 177.05 L383.35 176.7 384.75 175.65 384.95 175.55 389.3 168.25 389.3 166.25 Q389.4 164.8 390.15 164.25 391.4 163.4 393.7 163.4 M404.8 183.65 Q405.9 184.5 407.3 184.5 L409.1 184.05 Q410.5 183.4 410.5 182.45 L410.4 181.9 407.6 181.45 402.95 181.1 402.9 181.1 Q403.75 182.8 404.8 183.65 M394.9 183.65 Q396.0 182.8 396.8 181.1 L392.1 181.45 389.35 181.9 389.2 182.45 Q389.2 183.4 390.65 184.05 L392.4 184.5 Q393.8 184.5 394.9 183.65" fill="#000000" fill-rule="evenodd" stroke="none"/>
  </g>
</svg>
