<?xml version="1.0" encoding="UTF-8" standalone="no"?>
<svg xmlns:xlink="http://www.w3.org/1999/xlink" height="52.4px" width="62.9px" xmlns="http://www.w3.org/2000/svg">
  <g transform="matrix(1.0, 0.0, 0.0, 1.0, -368.0, -165.45)">
    <path d="M371.65 171.1 L371.65 171.0 372.15 170.0 Q375.9 162.65 383.55 167.25 389.45 164.25 399.4 166.7 409.45 164.25 415.35 167.25 423.0 162.6 426.75 169.95 L427.2 171.0 427.2 171.1 428.2 170.85 Q430.4 170.6 430.85 174.7 431.0 176.8 430.25 178.75 429.75 180.05 428.85 181.0 428.2 181.55 427.9 181.0 427.05 179.9 426.65 178.6 L426.05 176.5 425.7 177.65 424.85 178.95 Q425.35 183.05 422.55 184.55 424.9 194.65 420.3 200.4 419.85 205.6 417.65 208.5 415.1 216.55 413.15 215.8 L412.5 217.0 Q410.85 218.95 407.7 216.35 L405.55 214.2 Q403.4 216.8 399.45 216.35 395.5 216.9 393.4 214.2 L391.2 216.35 Q388.05 218.95 386.4 217.0 L385.75 215.85 Q383.75 216.6 381.25 208.5 379.05 205.65 378.6 200.45 374.0 194.65 376.35 184.6 373.55 183.1 374.05 178.95 L373.2 177.7 372.85 176.5 372.2 178.6 Q371.85 179.95 371.0 181.05 370.7 181.6 370.0 181.05 369.15 180.05 368.65 178.8 367.9 176.8 368.0 174.75 368.5 170.6 370.7 170.85 L370.75 170.85 371.65 171.1 M384.25 182.35 L383.75 182.55 384.25 183.1 384.5 183.35 386.3 184.6 386.75 184.8 387.75 185.15 387.95 185.2 388.7 185.4 388.85 185.35 391.55 184.15 390.5 182.6 Q389.45 182.0 388.4 181.85 L388.0 181.8 385.75 181.95 384.5 182.3 384.25 182.35 M408.4 182.55 L407.35 184.15 410.15 185.35 410.95 185.2 411.15 185.15 Q411.7 185.1 412.15 184.75 L412.6 184.55 414.4 183.25 414.65 183.05 415.1 182.55 414.65 182.35 414.4 182.25 413.15 181.9 410.9 181.75 410.5 181.8 Q409.45 182.0 408.4 182.55 M393.85 187.2 L393.9 187.2 394.85 188.65 Q395.55 189.85 397.35 190.05 L397.35 189.45 396.95 188.9 Q397.9 189.85 399.35 190.1 L399.15 194.8 Q396.3 194.7 394.35 195.35 L394.3 195.35 394.2 195.25 Q393.65 194.75 393.6 194.0 L393.55 193.8 393.45 193.8 Q392.65 194.0 392.75 194.7 L392.75 195.8 392.65 196.05 392.8 196.05 394.4 195.75 395.8 195.5 399.15 195.2 399.45 195.15 399.7 195.15 403.1 195.5 404.5 195.7 406.1 196.0 406.25 196.05 406.15 195.8 406.15 194.7 Q406.25 193.95 405.45 193.8 L405.35 193.8 405.3 194.0 404.65 195.25 404.6 195.3 404.55 195.35 Q402.55 194.65 399.7 194.75 L399.55 190.1 Q401.0 189.8 401.9 188.85 L401.55 189.4 401.55 190.05 Q403.35 189.8 404.05 188.65 L405.0 187.1 405.05 187.1 405.05 186.95 403.5 185.85 Q401.7 184.9 399.45 185.4 397.15 184.9 395.4 185.9 L393.85 187.0 393.85 187.2" fill="#000000" fill-rule="evenodd" stroke="none"/>
  </g>
</svg>
