<?xml version="1.0" encoding="UTF-8" standalone="no"?>
<svg xmlns:xlink="http://www.w3.org/1999/xlink" height="60.8px" width="52.85px" xmlns="http://www.w3.org/2000/svg">
  <g transform="matrix(1.0, 0.0, 0.0, 1.0, -373.45, -161.7)">
    <path d="M389.15 164.85 L391.9 163.8 395.5 162.8 396.0 162.65 399.05 162.8 399.85 161.7 400.75 162.75 403.75 162.65 404.25 162.8 407.85 163.85 410.6 164.85 411.75 165.55 417.6 169.35 Q418.65 170.0 419.7 171.4 L420.75 173.2 Q421.8 173.7 422.6 174.55 423.9 175.95 424.1 177.7 L424.1 178.25 Q424.1 179.75 422.8 181.9 L422.8 181.95 Q422.05 183.7 422.25 185.75 L422.25 187.25 425.75 193.4 Q426.3 194.25 426.3 196.05 426.3 197.9 424.6 199.7 423.25 201.05 421.85 201.55 L417.95 202.75 415.05 204.35 415.05 204.4 415.25 205.25 Q415.15 205.35 415.2 205.6 L416.1 207.55 Q416.65 208.85 416.65 210.15 416.65 212.1 415.75 213.9 L415.65 214.05 415.6 214.15 415.45 214.65 415.45 214.7 415.4 214.75 414.15 218.0 Q413.4 219.9 411.55 220.95 409.2 222.35 406.35 222.4 403.25 222.65 400.25 222.4 L399.85 222.35 399.55 222.35 Q396.5 222.65 393.35 222.35 390.55 222.3 388.2 220.9 386.35 219.85 385.55 217.95 L384.3 214.7 384.3 214.65 384.15 214.1 384.05 214.0 384.0 213.85 Q383.1 212.05 383.1 210.1 383.1 208.8 383.65 207.55 L384.55 205.55 384.5 205.2 384.7 204.4 384.7 204.35 Q382.9 203.15 381.75 202.7 L377.85 201.5 Q376.5 201.0 375.15 199.65 373.45 197.9 373.45 196.0 373.45 194.2 373.95 193.35 L377.5 187.2 377.5 185.7 Q377.65 183.7 376.95 181.95 L376.9 181.85 Q375.65 179.75 375.65 178.25 L375.65 177.7 Q375.85 175.95 377.15 174.5 377.95 173.65 379.0 173.2 379.15 172.5 380.0 171.35 381.1 170.0 382.1 169.35 385.85 166.9 387.65 165.8 L389.15 164.85 M385.45 184.45 Q386.15 185.4 388.1 185.4 L391.25 185.15 Q390.15 184.7 389.0 183.75 L385.25 180.85 385.2 180.85 385.0 182.3 Q385.0 183.8 385.45 184.45 M411.65 185.45 Q413.55 185.45 414.25 184.5 414.75 183.8 414.75 182.35 L414.6 180.85 414.55 180.85 414.5 180.9 410.75 183.8 408.5 185.2 411.65 185.45" fill="#000000" fill-rule="evenodd" stroke="none"/>
  </g>
</svg>
