<?xml version="1.0" encoding="UTF-8" standalone="no"?>
<svg xmlns:xlink="http://www.w3.org/1999/xlink" height="33.4px" width="72.65px" xmlns="http://www.w3.org/2000/svg">
  <g transform="matrix(1.0, 0.0, 0.0, 1.0, -297.9, -347.05)">
    <path d="M362.5 379.5 L362.55 380.45 303.65 360.85 303.45 358.85 304.5 355.8 305.9 354.35 364.25 375.7 363.7 376.2 362.5 379.5 M370.0 372.6 L368.7 376.0 368.8 376.8 310.35 355.6 310.25 353.65 311.35 350.6 312.8 349.2 370.55 372.0 370.0 372.6 M310.85 348.45 L311.95 348.9 310.55 350.25 309.4 353.35 309.5 355.35 308.35 354.9 308.2 352.85 309.4 349.85 310.85 348.45 M307.35 352.55 L307.5 354.6 304.9 353.65 304.75 351.6 305.9 348.55 307.4 347.05 310.0 348.1 308.5 349.5 307.35 352.55 M305.05 354.05 L303.6 355.5 302.55 358.5 302.75 360.5 301.6 360.15 301.45 358.15 302.5 355.05 303.9 353.65 305.05 354.05 M299.0 353.85 L300.4 352.35 303.05 353.3 301.6 354.75 300.55 357.85 300.75 359.85 298.1 359.0 297.9 356.95 299.0 353.85" fill="#ffffff" fill-rule="evenodd" stroke="none"/>
  </g>
</svg>
