<?xml version="1.0" encoding="UTF-8" standalone="no"?>
<svg xmlns:xlink="http://www.w3.org/1999/xlink" height="40.1px" width="33.85px" xmlns="http://www.w3.org/2000/svg">
  <g transform="matrix(1.0, 0.0, 0.0, 1.0, -329.2, -337.7)">
    <path d="M330.9 344.45 Q333.1 342.45 337.65 341.35 344.5 339.55 351.4 340.15 352.55 340.25 352.65 341.45 351.9 340.7 349.75 340.65 340.5 340.75 333.55 343.75 330.9 344.9 330.35 347.0 329.95 351.1 331.7 353.5 332.85 355.15 336.1 354.15 343.0 351.95 350.35 351.9 L350.5 351.85 Q353.3 351.7 354.7 352.55 L354.75 352.6 Q355.25 353.35 354.6 354.0 L355.55 355.55 Q354.55 355.0 352.95 354.9 343.55 354.8 334.8 357.45 333.55 357.9 332.9 358.7 L332.7 357.25 Q339.4 353.1 354.2 353.25 349.85 352.2 343.45 353.45 L336.45 354.95 332.35 355.25 Q331.45 355.0 331.0 354.3 329.55 352.4 329.3 350.0 328.8 346.9 330.45 344.85 L330.9 344.45 M331.25 341.1 L331.1 340.2 Q340.7 337.2 350.45 337.8 L350.6 338.7 349.4 338.65 Q339.15 338.55 331.8 340.85 331.5 340.9 331.25 341.1 M363.05 376.4 Q362.9 377.4 362.2 377.8 L361.55 373.45 Q363.25 374.35 363.05 376.4" fill="#000000" fill-rule="evenodd" stroke="none"/>
  </g>
</svg>
