<?xml version="1.0" encoding="UTF-8" standalone="no"?>
<svg xmlns:xlink="http://www.w3.org/1999/xlink" height="56.25px" width="146.7px" xmlns="http://www.w3.org/2000/svg">
  <g transform="matrix(1.0, 0.0, 0.0, 1.0, -326.6, -303.75)">
    <path d="M343.8 333.15 L344.2 327.55 Q344.7 321.9 345.55 316.3 343.65 313.8 342.5 311.2 340.95 307.8 340.7 304.25 L330.35 304.25 327.1 317.0 329.85 332.3 M343.8 333.15 Q343.45 338.8 343.5 344.45 L345.35 344.05 Q345.25 349.9 345.45 352.8 345.65 355.95 346.0 358.05 L344.15 358.7 335.45 359.0 Q332.4 345.8 329.85 332.3 M344.2 327.55 L346.25 327.1 355.3 312.15 342.5 311.2 M344.15 358.7 Q343.5 351.6 343.5 344.45 M456.4 344.45 Q456.45 338.8 456.1 333.15 L455.7 327.55 453.65 327.1 444.6 312.15 457.4 311.2 Q458.95 307.8 459.2 304.25 L469.55 304.25 472.8 317.0 470.05 332.3 Q467.5 345.8 464.45 359.0 L455.75 358.7 453.9 358.05 454.45 352.8 454.55 344.05 M456.4 344.45 Q456.4 351.6 455.75 358.7 M455.7 327.55 Q455.2 321.9 454.35 316.3 456.25 313.8 457.4 311.2" fill="none" stroke="#000000" stroke-linecap="round" stroke-linejoin="round" stroke-width="1.0"/>
    <path d="M329.85 332.3 L331.15 329.05 338.85 329.05 Q340.1 332.45 343.8 333.15 M454.55 344.05 L456.4 344.45 M470.05 332.3 L468.75 329.05 461.05 329.05 Q459.8 332.45 456.1 333.15" fill="none" stroke="#000000" stroke-linecap="round" stroke-linejoin="round" stroke-opacity="0.5019608" stroke-width="1.0"/>
  </g>
</svg>
