<?xml version="1.0" encoding="UTF-8" standalone="no"?>
<svg xmlns:xlink="http://www.w3.org/1999/xlink" height="41.35px" width="39.85px" xmlns="http://www.w3.org/2000/svg">
  <g transform="matrix(1.0, 0.0, 0.0, 1.0, -380.15, -201.65)">
    <path d="M415.2 206.5 Q417.4 208.55 418.6 212.35 L404.8 213.7 Q404.2 211.25 403.2 210.45 402.2 209.7 400.8 209.7 398.05 209.7 396.6 211.25 395.4 213.75 394.8 219.15 396.05 217.35 398.5 216.35 401.05 215.45 404.3 215.45 410.7 215.45 415.05 219.25 419.5 223.0 419.5 228.85 419.5 232.75 417.3 236.0 415.05 239.2 411.1 240.9 407.2 242.5 401.3 242.5 394.3 242.5 390.05 240.5 385.7 238.45 383.15 234.1 380.65 229.7 380.65 222.5 380.65 212.0 386.0 207.1 391.4 202.15 400.9 202.15 406.45 202.15 409.75 203.25 413.05 204.35 415.2 206.5 M400.8 223.0 Q398.45 223.0 396.8 224.5 395.25 226.0 395.25 228.85 395.25 231.8 396.95 233.35 398.55 234.9 400.95 234.9 403.2 234.9 404.75 233.45 406.25 232.05 406.25 229.1 406.25 226.1 404.6 224.55 403.05 223.0 400.8 223.0" fill="none" stroke="#000000" stroke-linecap="round" stroke-linejoin="round" stroke-opacity="0.5019608" stroke-width="1.0"/>
  </g>
</svg>
