<?xml version="1.0" encoding="UTF-8" standalone="no"?>
<svg xmlns:xlink="http://www.w3.org/1999/xlink" height="40.7px" width="36.7px" xmlns="http://www.w3.org/2000/svg">
  <g transform="matrix(1.0, 0.0, 0.0, 1.0, -381.55, -201.65)">
    <path d="M403.7 213.75 Q403.7 212.6 402.85 211.95 402.1 211.3 400.25 211.3 398.3 211.3 397.05 212.4 395.75 213.45 395.3 216.75 L382.05 215.45 Q382.65 209.2 387.05 205.65 391.5 202.15 400.45 202.15 407.4 202.15 410.8 204.55 417.75 208.0 417.75 213.5 417.75 215.85 416.2 218.0 414.7 220.2 410.0 223.2 407.0 225.15 406.25 226.4 405.5 227.55 405.5 229.95 L392.4 229.95 392.4 228.45 Q392.4 225.85 393.1 224.1 393.8 222.5 395.2 221.1 396.6 219.8 401.45 216.5 403.7 214.95 403.7 213.75 M405.9 241.85 L392.0 241.85 392.0 231.5 405.9 231.5 405.9 241.85" fill="none" stroke="#000000" stroke-linecap="round" stroke-linejoin="round" stroke-opacity="0.5019608" stroke-width="1.0"/>
  </g>
</svg>
