<?xml version="1.0" encoding="UTF-8" standalone="no"?>
<svg xmlns:xlink="http://www.w3.org/1999/xlink" height="44.8px" width="46.9px" xmlns="http://www.w3.org/2000/svg">
  <g transform="matrix(1.0, 0.0, 0.0, 1.0, -376.4, -200.6)">
    <path d="M415.4 223.0 Q415.4 228.0 413.0 231.4 409.15 236.5 403.4 236.4 L403.4 209.6 Q409.15 209.5 413.0 214.6 415.4 218.0 415.4 223.0 M414.15 209.7 Q423.0 213.75 422.8 223.0 423.0 232.25 414.15 236.35 409.05 238.45 403.4 238.65 L403.4 239.1 Q403.7 243.6 410.15 244.9 L389.6 244.9 Q396.05 243.6 396.35 239.1 L396.35 238.65 Q390.7 238.45 385.55 236.35 376.75 232.25 376.9 223.0 376.75 213.75 385.55 209.7 390.7 207.55 396.35 207.35 L396.35 206.9 Q396.05 202.4 389.6 201.1 L410.15 201.1 Q403.7 202.4 403.4 206.9 L403.4 207.35 Q409.05 207.55 414.15 209.7 M386.75 214.6 Q384.35 218.0 384.35 223.0 384.35 228.0 386.75 231.4 390.55 236.5 396.35 236.4 L396.35 209.6 Q390.55 209.5 386.75 214.6" fill="none" stroke="#000000" stroke-linecap="round" stroke-linejoin="round" stroke-opacity="0.5019608" stroke-width="1.0"/>
  </g>
</svg>
