<?xml version="1.0" encoding="UTF-8" standalone="no"?>
<svg xmlns:xlink="http://www.w3.org/1999/xlink" height="34.2px" width="53.8px" xmlns="http://www.w3.org/2000/svg">
  <g transform="matrix(1.0, 0.0, 0.0, 1.0, -373.25, -209.7)">
    <path d="M426.1 215.15 Q425.3 213.2 422.95 212.1 420.55 211.05 416.65 210.6 L407.75 210.2 398.5 210.2 378.6 210.85 393.7 211.9 395.1 212.4 395.4 212.55 Q395.95 213.0 395.65 214.15 L394.2 217.3 384.65 235.75 382.4 239.6 Q381.4 240.9 380.1 241.35 L376.35 242.0 374.5 242.1 Q374.0 242.35 373.8 242.85 373.65 243.2 374.05 243.4 L379.35 243.2 384.4 243.2 389.25 243.2 395.25 243.4 396.05 242.75 Q396.35 242.3 396.05 242.1 L393.8 242.0 390.25 241.4 Q389.35 240.95 389.75 239.65 390.1 238.35 391.55 235.75 L403.05 213.5 403.9 212.35 Q404.35 211.9 405.4 211.8 L408.6 211.7 Q415.05 211.75 417.55 213.85 419.8 216.0 417.95 219.7 416.35 222.95 412.35 225.15 408.4 227.3 401.1 228.25 L395.85 229.05 406.7 228.65 413.2 227.55 Q415.35 227.05 417.75 226.05 420.2 225.1 422.4 223.45 424.55 221.95 425.75 219.6 427.1 217.0 426.1 215.15 Z" fill="none" stroke="#000000" stroke-linecap="round" stroke-linejoin="round" stroke-opacity="0.5019608" stroke-width="1.0"/>
  </g>
</svg>
