<?xml version="1.0" encoding="UTF-8" standalone="no"?>
<svg xmlns:xlink="http://www.w3.org/1999/xlink" height="236.25px" width="265.2px" xmlns="http://www.w3.org/2000/svg">
  <g transform="matrix(1.0, 0.0, 0.0, 1.0, -51.5, -21.0)">
    <path d="M114.9 82.8 L114.85 82.65 114.7 82.7 114.8 82.85 115.95 85.35 114.9 82.8 M306.7 32.05 Q312.05 22.35 315.2 31.9 318.95 49.6 313.25 67.05 L309.65 80.0 309.15 81.65 306.0 92.95 303.6 102.5 Q296.85 127.0 286.9 143.95 270.85 171.2 246.45 178.65 263.95 186.6 273.45 198.75 292.0 225.2 293.15 251.65 294.7 264.2 276.8 248.7 252.0 237.5 224.65 190.75 209.85 209.6 190.05 223.9 179.35 231.65 167.1 238.1 150.1 247.15 130.15 253.55 L114.75 256.2 Q106.9 258.15 111.05 249.35 115.4 236.85 121.8 225.5 123.9 220.15 127.1 215.2 L129.45 211.65 Q133.75 205.8 139.55 200.45 148.25 192.4 160.4 185.65 169.05 180.85 179.5 176.7 83.75 142.1 72.65 95.25 L72.55 94.65 Q68.85 75.1 61.65 55.6 L62.3 55.9 60.95 53.8 Q58.45 47.05 55.5 40.35 45.35 16.0 60.95 22.3 81.35 29.65 99.7 40.1 117.8 50.4 133.9 63.6 L143.0 71.4 148.6 76.7 152.25 80.25 155.8 83.85 163.1 91.75 Q169.9 99.4 176.3 107.75 186.5 121.15 195.6 136.25 205.5 152.75 223.3 161.9 234.5 150.0 239.25 133.6 241.8 124.05 245.05 115.35 L245.1 115.1 Q248.25 106.4 252.15 98.5 253.8 95.05 255.7 91.7 257.2 88.95 258.8 86.35 265.35 75.65 273.35 66.75 278.65 60.85 284.65 55.75 L290.95 50.65 Q301.5 41.35 306.7 32.05" fill="#000000" fill-rule="evenodd" stroke="none"/>
  </g>
</svg>
