<?xml version="1.0" encoding="UTF-8" standalone="no"?>
<svg xmlns:xlink="http://www.w3.org/1999/xlink" height="391.6px" width="209.75px" xmlns="http://www.w3.org/2000/svg">
  <g transform="matrix(1.0, 0.0, 0.0, 1.0, -1.55, -3.05)">
    <path d="M177.55 70.15 Q185.95 128.5 211.3 146.35 L211.3 195.9 203.7 201.75 Q197.7 206.1 192.05 210.8 186.0 215.45 180.3 220.3 L171.55 227.75 158.15 239.8 Q151.0 246.4 144.15 253.15 136.9 260.15 130.15 267.4 122.7 275.0 115.7 282.9 L100.9 300.6 Q108.45 254.5 121.4 208.95 114.3 212.95 107.5 217.3 100.2 222.0 93.1 227.2 89.0 230.05 85.0 233.15 L79.2 237.7 Q74.85 243.8 70.9 249.85 66.8 255.95 63.05 262.0 L60.05 266.95 51.7 281.55 51.15 281.4 51.0 281.75 51.0 281.9 49.9 285.0 49.65 285.35 Q45.05 294.15 40.75 303.1 L40.45 303.65 39.45 306.0 35.7 314.4 Q28.15 331.6 22.7 349.1 L18.15 365.5 Q14.3 371.3 8.6 390.95 7.75 394.65 4.55 394.65 1.05 394.1 1.65 392.15 28.9 263.9 65.6 152.95 75.75 122.1 86.7 92.6 102.8 48.8 120.65 8.0 122.4 2.1 127.95 3.25 132.25 3.9 129.65 10.45 112.65 66.65 123.65 120.45 L148.7 127.9 Q159.45 100.15 172.3 72.85 174.6 67.45 177.55 70.15" fill="#000000" fill-rule="evenodd" stroke="none"/>
  </g>
</svg>
