<?xml version="1.0" encoding="UTF-8" standalone="no"?>
<svg xmlns:xlink="http://www.w3.org/1999/xlink" height="420.65px" width="292.6px" xmlns="http://www.w3.org/2000/svg">
  <g transform="matrix(1.0, 0.0, 0.0, 1.0, -52.65, -66.3)">
    <path d="M226.0 76.15 Q209.8 77.1 209.4 94.75 L208.7 94.7 Q204.35 95.0 205.55 101.25 L205.55 101.3 202.55 104.45 Q132.0 108.15 95.05 137.15 79.0 180.4 86.25 225.25 L79.65 245.3 Q85.4 277.35 117.15 305.65 116.1 318.6 113.85 337.75 L132.9 350.4 128.75 393.55 122.3 400.55 125.85 409.95 Q118.9 427.35 118.8 444.8 135.1 457.25 164.2 457.1 184.55 450.5 177.4 433.95 L167.4 411.65 Q168.4 387.1 187.6 362.5 203.55 336.95 215.45 312.1 216.15 325.4 221.8 338.7 L216.85 347.8 221.2 385.5 218.65 398.05 220.3 399.65 Q216.65 410.05 216.05 421.3 224.85 425.15 236.4 424.1 263.6 438.3 302.2 430.95 328.4 438.25 329.7 486.95 L52.65 486.95 52.65 67.5 232.85 67.5 226.0 76.15 M150.25 216.5 Q153.85 222.85 161.2 224.8 165.25 246.1 155.3 267.65 L146.3 289.6 Q143.45 268.85 146.8 248.1 L141.8 234.75 Q146.85 225.6 150.25 216.5" fill="#010101" fill-opacity="0.2509804" fill-rule="evenodd" stroke="none"/>
    <path d="M226.0 76.15 Q233.8 74.9 241.5 77.3 257.3 82.4 254.1 102.6 L252.35 104.15 Q252.55 106.35 252.25 108.2 286.45 122.7 310.65 147.2 317.3 178.6 311.4 210.1 L322.95 230.35 Q317.5 261.1 318.3 291.8 L343.3 316.55 Q335.85 326.15 333.4 341.2 L328.3 341.2 328.55 348.5 Q327.15 355.85 319.7 355.3 315.3 354.55 313.85 351.6 307.5 354.55 303.75 352.4 300.95 350.75 299.65 346.3 295.2 347.85 292.4 346.3 289.9 344.95 288.65 341.25 285.1 340.7 283.25 339.0 L276.45 355.35 Q264.0 372.45 255.95 390.6 268.4 401.8 287.7 413.0 301.7 420.85 302.2 430.95 254.65 431.25 235.0 413.4 L235.0 403.55 230.85 398.55 Q237.45 374.85 232.4 351.15 L238.7 352.7 Q232.95 312.5 244.15 280.7 L226.05 288.05 Q221.2 300.0 215.45 312.1 203.55 336.95 187.6 362.5 168.4 387.1 167.4 411.65 L177.4 433.95 Q184.55 450.5 164.2 457.1 122.6 451.4 140.35 414.65 L137.35 400.95 152.9 358.45 154.4 362.6 160.1 361.35 155.65 344.35 155.6 344.2 155.2 344.45 Q152.05 346.55 148.55 347.2 L148.5 347.2 144.65 347.4 125.5 304.1 Q107.9 266.35 102.2 228.6 L109.55 235.6 Q106.35 190.85 118.65 147.25 150.55 125.05 193.0 120.15 202.2 130.1 215.6 129.55 L219.4 132.85 219.75 112.4 Q214.7 106.75 228.55 98.1 219.0 87.1 226.0 76.15 M303.3 323.05 L306.65 291.25 Q299.5 261.05 299.05 230.8 L293.75 219.05 288.8 227.05 293.3 187.3 283.65 189.9 Q264.75 185.8 242.8 187.25 232.3 187.9 221.05 189.9 191.35 195.85 169.25 191.45 L144.65 180.6 156.65 189.55 Q155.2 203.0 150.25 216.5 146.85 225.6 141.8 234.75 L146.8 248.1 Q143.45 268.85 146.3 289.6 L146.8 292.85 166.85 304.45 181.25 265.15 Q195.55 238.25 192.05 222.55 184.65 211.3 182.15 199.95 193.4 200.15 210.4 197.0 224.25 194.45 238.55 193.9 257.65 193.1 277.5 195.9 L283.05 197.0 Q281.35 206.4 272.2 215.75 268.8 231.85 269.8 256.0 269.9 258.85 272.2 269.65 L282.3 322.3 283.5 328.1 289.6 319.8 Q291.8 319.25 294.2 321.6 L296.35 324.35 296.4 324.35 300.8 324.75 302.95 326.0 303.3 323.05" fill="#010101" fill-opacity="0.0" fill-rule="evenodd" stroke="none"/>
    <path d="M302.2 430.95 Q263.6 438.3 236.4 424.1 224.85 425.15 216.05 421.3 216.65 410.05 220.3 399.65 L218.65 398.05 221.2 385.5 216.85 347.8 221.8 338.7 Q216.15 325.4 215.45 312.1 221.2 300.0 226.05 288.05 L244.15 280.7 Q232.95 312.5 238.7 352.7 L232.4 351.15 Q237.45 374.85 230.85 398.55 L235.0 403.55 235.0 413.4 Q254.65 431.25 302.2 430.95 M164.2 457.1 Q135.1 457.25 118.8 444.8 118.9 427.35 125.85 409.95 L122.3 400.55 128.75 393.55 132.9 350.4 113.85 337.75 Q116.1 318.6 117.15 305.65 85.4 277.35 79.65 245.3 L86.25 225.25 Q79.0 180.4 95.05 137.15 132.0 108.15 202.55 104.45 L205.55 101.3 205.55 101.25 Q204.35 95.0 208.7 94.7 L209.4 94.75 Q209.8 77.1 226.0 76.15 219.0 87.1 228.55 98.1 214.7 106.75 219.75 112.4 L219.4 132.85 215.6 129.55 Q202.2 130.1 193.0 120.15 150.55 125.05 118.65 147.25 106.35 190.85 109.55 235.6 L102.2 228.6 Q107.9 266.35 125.5 304.1 L144.65 347.4 148.5 347.2 148.5 347.25 148.55 347.2 Q152.05 346.55 155.2 344.45 L155.65 344.35 160.1 361.35 154.4 362.6 152.9 358.45 137.35 400.95 140.35 414.65 Q122.6 451.4 164.2 457.1 M242.8 187.25 Q264.75 185.8 283.65 189.9 L293.3 187.3 288.8 227.05 293.75 219.05 299.05 230.8 Q299.5 261.05 306.65 291.25 L303.3 323.05 Q303.05 324.2 302.95 325.5 L302.95 326.0 300.8 324.75 296.4 324.35 296.35 324.35 294.2 321.6 Q291.8 319.25 289.6 319.8 L283.5 328.1 282.3 322.3 Q282.8 319.25 283.6 316.2 L285.95 308.0 Q288.65 300.15 292.6 292.45 277.8 270.95 269.8 256.0 268.8 231.85 272.2 215.75 281.35 206.4 283.05 197.0 L277.5 195.9 Q257.65 193.1 238.55 193.9 224.25 194.45 210.4 197.0 193.4 200.15 182.15 199.95 184.65 211.3 192.05 222.55 195.55 238.25 181.25 265.15 L166.85 304.45 146.8 292.85 146.3 289.6 155.3 267.65 Q165.25 246.1 161.2 224.8 153.85 222.85 150.25 216.5 155.2 203.0 156.65 189.55 L144.65 180.6 169.25 191.45 Q191.35 195.85 221.05 189.9 232.3 187.9 242.8 187.25 L242.8 187.6 242.8 187.25 M152.9 358.45 L152.9 358.4 152.9 358.45" fill="#010101" fill-opacity="0.2509804" fill-rule="evenodd" stroke="none"/>
    <path d="M148.5 347.2 L148.55 347.2 148.5 347.25 148.5 347.2 M155.2 344.45 L155.6 344.2 155.65 344.35 155.2 344.45 M242.8 187.25 L242.8 187.6 242.8 187.25 M152.9 358.45 L152.9 358.4 152.9 358.45" fill="#cc9966" fill-rule="evenodd" stroke="none"/>
    <path d="M339.8 66.8 Q337.4 73.25 335.05 73.3 337.4 79.7 339.8 79.75 342.15 79.7 344.5 73.25 M325.65 73.3 Q323.3 79.7 320.95 79.75 323.3 86.15 325.65 86.2 328.0 86.15 330.35 79.75 328.0 79.7 325.65 73.3 323.3 73.25 320.95 66.8 318.55 73.25 316.2 73.3 318.55 79.7 320.95 79.75 318.55 86.15 316.2 86.2 318.55 92.55 320.85 92.65 323.25 92.7 325.65 86.2 327.95 92.55 330.3 92.65 332.65 92.7 335.05 86.2 332.7 86.15 330.35 79.75 332.7 79.75 335.05 73.3 332.7 73.25 330.35 66.8 328.0 73.25 325.65 73.3 M339.8 79.75 Q337.4 86.15 335.05 86.2 337.35 92.5 339.7 92.65 342.1 92.7 344.5 86.15 M325.65 112.0 Q330.35 124.85 335.05 112.0 332.7 111.95 330.35 105.55 328.0 111.95 325.65 112.0 323.3 111.95 320.95 105.55 318.55 111.95 316.2 112.0 320.9 124.85 325.65 112.0 M316.2 112.0 Q311.5 124.85 306.8 112.0 302.05 124.85 297.35 112.0 292.65 124.85 287.95 112.0 283.2 124.85 278.5 112.0 273.75 124.85 269.05 112.0 264.35 124.85 259.65 112.0 254.9 124.85 250.2 112.0 245.5 124.85 240.8 112.0 236.05 124.85 231.35 112.0 226.6 124.85 221.9 112.0 217.2 124.85 212.5 112.0 207.75 124.85 203.05 112.0 198.35 124.85 193.65 112.0 188.9 124.85 184.2 112.0 179.5 124.85 174.8 112.0 170.05 124.85 165.35 112.0 160.65 124.85 155.9 112.0 151.2 124.85 146.5 112.0 141.75 124.85 137.05 112.0 132.35 124.85 127.65 112.0 122.9 124.85 118.2 112.0 113.5 124.85 108.8 112.0 104.05 124.85 99.35 112.0 94.6 124.85 89.9 112.0 85.2 124.85 80.5 112.0 78.05 118.7 75.6 118.4 77.95 124.85 80.3 124.9 82.65 124.85 85.0 118.45 87.35 124.85 89.7 124.9 92.05 124.85 94.45 118.45 96.8 124.85 99.15 124.9 101.5 124.85 103.85 118.45 106.2 124.85 108.6 124.9 110.9 124.85 113.3 118.45 115.65 124.85 118.0 124.9 120.35 124.85 122.7 118.45 125.05 124.85 127.45 124.9 129.8 124.85 132.15 118.45 134.5 124.85 136.85 124.9 139.2 124.85 141.6 118.45 143.95 124.85 146.3 124.9 148.65 124.85 151.0 118.45 153.35 124.85 155.7 124.9 158.05 124.85 160.45 118.45 162.8 124.85 165.15 124.9 167.5 124.85 169.85 118.45 172.2 124.85 174.6 124.9 176.9 124.85 179.3 118.45 181.65 124.85 184.0 124.9 186.35 124.85 188.7 118.45 191.05 124.85 193.45 124.9 195.8 124.85 198.15 118.45 200.5 124.85 202.85 124.9 205.2 124.85 207.6 118.45 209.95 124.85 212.3 124.9 214.65 124.85 217.0 118.45 219.35 124.85 221.75 124.9 224.05 124.85 226.45 118.45 228.8 124.85 231.15 124.9 233.5 124.85 235.85 118.45 238.2 124.85 240.6 124.9 242.9 124.85 245.3 118.45 247.65 124.85 250.0 124.9 252.35 124.85 254.75 118.45 257.1 124.85 259.45 124.9 261.8 124.85 264.15 118.45 266.5 124.85 268.85 124.9 271.2 124.85 273.6 118.45 275.95 124.85 278.3 124.9 280.65 124.85 283.0 118.45 285.35 124.85 287.75 124.9 290.05 124.85 292.45 118.45 294.8 124.85 297.15 124.9 299.5 124.85 301.85 118.45 304.2 124.85 306.6 124.9 308.95 124.85 311.3 118.45 313.65 124.85 316.0 124.9 318.35 124.85 320.75 118.45 323.1 124.85 325.45 124.9 327.8 124.85 330.15 118.45 332.5 124.85 334.85 124.9 337.2 124.85 339.6 118.4 337.3 118.15 335.05 112.0 337.4 111.95 339.8 105.55 337.4 105.6 335.0 99.1 330.3 111.95 325.6 99.1 320.85 111.95 316.15 99.1 313.8 105.45 311.5 105.55 313.85 111.95 316.2 112.0 M344.3 124.85 Q342.15 130.7 340.0 131.25 337.7 137.75 335.35 137.8 337.7 144.2 340.05 144.25 342.4 144.2 344.75 137.75 M335.35 137.8 Q332.95 137.75 330.6 131.3 328.25 137.75 325.9 137.8 328.25 144.2 330.6 144.25 332.95 144.25 335.35 137.8 M340.0 131.25 Q337.45 131.95 334.85 124.9 330.15 137.75 325.45 124.9 320.7 137.75 316.0 124.9 311.3 137.75 306.6 124.9 301.85 137.75 297.15 124.9 292.45 137.75 287.75 124.9 283.0 137.75 278.3 124.9 273.55 137.75 268.85 124.9 264.15 137.75 259.45 124.9 254.7 137.75 250.0 124.9 245.3 137.75 240.6 124.9 235.85 137.75 231.15 124.9 226.45 137.75 221.75 124.9 217.0 137.75 212.3 124.9 207.55 137.75 202.85 124.9 198.15 137.75 193.45 124.9 188.7 137.75 184.0 124.9 179.3 137.75 174.6 124.9 169.85 137.75 165.15 124.9 160.45 137.75 155.7 124.9 151.0 137.75 146.3 124.9 141.55 137.75 136.85 124.9 132.15 137.75 127.45 124.9 122.7 137.75 118.0 124.9 113.3 137.75 108.6 124.9 103.85 137.75 99.15 124.9 94.4 137.75 89.7 124.9 85.0 137.75 80.3 124.9 78.15 130.7 76.0 131.25 78.4 137.75 80.75 137.8 83.1 137.75 85.45 131.3 87.8 137.75 90.2 137.8 92.55 137.75 94.9 131.3 97.25 137.75 99.6 137.8 101.95 137.75 104.35 131.3 106.7 137.75 109.05 137.8 111.4 137.75 113.75 131.3 116.1 137.75 118.45 137.8 120.8 137.75 123.2 131.3 125.55 137.75 127.9 137.8 130.25 137.75 132.6 131.3 134.95 137.75 137.35 137.8 139.65 137.75 142.05 131.3 144.4 137.75 146.75 137.8 149.1 137.75 151.45 131.3 153.8 137.75 156.2 137.8 158.55 137.75 160.9 131.3 163.25 137.75 165.6 137.8 167.95 137.75 170.35 131.3 172.7 137.75 175.05 137.8 177.4 137.75 179.75 131.3 182.1 137.75 184.45 137.8 186.8 137.75 189.2 131.3 191.55 137.75 193.9 137.8 196.25 137.75 198.6 131.3 200.95 137.75 203.35 137.8 205.65 137.75 208.05 131.3 210.4 137.75 212.75 137.8 215.1 137.75 217.5 131.3 219.85 137.75 222.2 137.8 224.55 137.75 226.9 131.3 229.25 137.75 231.6 137.8 233.95 137.75 236.35 131.3 238.7 137.75 241.05 137.8 243.4 137.75 245.75 131.3 248.1 137.75 250.5 137.8 252.8 137.75 255.2 131.3 257.55 137.75 259.9 137.8 262.25 137.75 264.6 131.3 266.95 137.75 269.35 137.8 271.7 137.75 274.05 131.3 276.4 137.75 278.75 137.8 281.1 137.75 283.5 131.3 285.85 137.75 288.2 137.8 290.55 137.75 292.9 131.3 295.25 137.75 297.6 137.8 299.95 137.75 302.35 131.3 304.7 137.75 307.05 137.8 309.4 137.75 311.75 131.3 314.1 137.75 316.5 137.8 318.8 137.75 321.2 131.3 323.55 137.75 325.9 137.8 323.55 144.2 321.2 144.25 323.55 150.65 325.9 150.7 328.25 150.65 330.6 144.25 332.95 150.65 335.35 150.7 337.7 150.65 340.05 144.25 M344.45 99.05 Q342.1 105.4 339.8 105.55 M344.5 111.95 Q342.05 118.7 339.6 118.4 M325.9 150.7 Q323.5 157.2 321.15 157.15 323.5 163.55 325.85 163.6 328.2 163.55 330.55 157.15 328.25 157.05 325.9 150.7 M325.85 163.6 Q330.55 176.45 335.25 163.6 332.9 163.55 330.55 157.15 332.95 157.2 335.35 150.7 337.65 157.0 340.0 157.15 342.35 157.2 344.75 150.65 M340.0 157.15 Q337.6 163.55 335.25 163.6 337.65 170.1 340.05 170.05 342.35 169.9 344.7 163.55 M340.05 170.05 Q337.7 176.45 335.35 176.5 337.6 182.65 339.85 182.9 342.3 183.2 344.75 176.45 M335.35 176.5 Q332.95 176.45 330.6 170.05 328.25 176.45 325.9 176.5 330.6 189.35 335.35 176.5 M325.9 176.5 Q321.2 189.35 316.5 176.5 311.75 189.35 307.05 176.5 302.3 189.35 297.6 176.5 292.9 189.35 288.2 176.5 283.45 189.35 278.75 176.5 274.05 189.35 269.35 176.5 264.6 189.35 259.9 176.5 255.2 189.35 250.5 176.5 245.75 189.35 241.05 176.5 236.3 189.35 231.6 176.5 226.9 189.35 222.2 176.5 217.45 189.35 212.75 176.5 208.05 189.35 203.35 176.5 198.6 189.35 193.9 176.5 189.2 189.35 184.45 176.5 179.75 189.35 175.05 176.5 170.3 189.35 165.6 176.5 160.9 189.35 156.2 176.5 151.45 189.35 146.75 176.5 142.05 189.35 137.35 176.5 132.6 189.35 127.9 176.5 123.15 189.35 118.45 176.5 113.75 189.35 109.05 176.5 104.3 189.35 99.6 176.5 94.9 189.35 90.2 176.5 85.45 189.35 80.75 176.5 78.3 183.2 75.85 182.9 78.2 189.35 80.55 189.4 82.9 189.35 85.25 182.95 87.6 189.35 90.0 189.4 92.35 189.35 94.7 182.95 97.05 189.35 99.4 189.4 101.75 189.35 104.15 182.95 106.5 189.35 108.85 189.4 111.2 189.35 113.55 182.95 115.9 189.35 118.25 189.4 120.6 189.35 123.0 182.95 125.35 189.35 127.7 189.4 130.05 189.35 132.4 182.95 134.75 189.35 137.15 189.4 139.45 189.35 141.85 182.95 144.2 189.35 146.55 189.4 148.9 189.35 151.25 182.95 153.6 189.35 156.0 189.4 158.35 189.35 160.7 182.95 163.05 189.35 165.4 189.4 167.75 189.35 170.15 182.95 172.5 189.35 174.85 189.4 177.2 189.35 179.55 182.95 181.9 189.35 184.3 189.4 186.6 189.35 189.0 182.95 191.35 189.35 193.7 189.4 196.05 189.35 198.4 182.95 200.75 189.35 203.15 189.4 205.45 189.35 207.85 182.95 210.2 189.35 212.55 189.4 214.9 189.35 217.3 182.95 219.65 189.35 222.0 189.4 224.35 189.35 226.7 182.95 229.05 189.35 231.4 189.4 233.75 189.35 236.15 182.95 238.5 189.35 240.85 189.4 243.2 189.35 245.55 182.95 247.9 189.35 250.3 189.4 252.6 189.35 255.0 182.95 257.35 189.35 259.7 189.4 262.05 189.35 264.4 182.95 266.75 189.35 269.15 189.4 271.45 189.35 273.85 182.95 276.2 189.35 278.55 189.4 280.9 189.35 283.3 182.95 285.65 189.35 288.0 189.4 290.35 189.35 292.7 182.95 295.05 189.35 297.4 189.4 299.75 189.35 302.15 182.95 304.5 189.35 306.85 189.4 309.2 189.35 311.55 182.95 313.9 189.35 316.3 189.4 318.6 189.35 321.0 182.95 323.35 189.35 325.7 189.4 328.05 189.35 330.4 182.95 332.75 189.35 335.15 189.4 337.5 189.35 339.85 182.9 M339.7 92.65 Q337.35 99.05 335.0 99.1 332.65 99.05 330.3 92.65 327.9 99.05 325.6 99.1 323.2 99.05 320.85 92.65 318.5 99.05 316.15 99.1 313.8 99.05 311.45 92.65 309.05 99.05 306.7 99.1 309.1 105.6 311.5 105.55 309.1 111.95 306.8 112.0 304.4 111.95 302.05 105.55 299.7 111.95 297.35 112.0 295.0 111.95 292.65 105.55 290.25 111.95 287.95 112.0 285.55 111.95 283.2 105.55 280.85 111.95 278.5 112.0 276.15 111.95 273.8 105.55 271.4 111.95 269.05 112.0 266.7 111.95 264.35 105.55 262.0 111.95 259.65 112.0 257.3 111.95 254.95 105.55 252.55 111.95 250.2 112.0 247.85 111.95 245.5 105.55 243.1 111.95 240.8 112.0 238.4 111.95 236.05 105.55 233.7 111.95 231.35 112.0 229.0 111.95 226.65 105.55 224.25 111.95 221.9 112.0 219.55 111.95 217.2 105.55 214.85 111.95 212.5 112.0 210.15 111.95 207.8 105.55 205.4 111.95 203.05 112.0 200.7 111.95 198.35 105.55 196.0 111.95 193.65 112.0 191.25 111.95 188.9 105.55 186.55 111.95 184.2 112.0 181.85 111.95 179.5 105.55 177.1 111.95 174.8 112.0 172.4 111.95 170.05 105.55 167.7 111.95 165.35 112.0 163.0 111.95 160.65 105.55 158.25 111.95 155.9 112.0 153.55 111.95 151.2 105.55 148.85 111.95 146.5 112.0 144.15 111.95 141.8 105.55 139.4 111.95 137.05 112.0 134.7 111.95 132.35 105.55 129.95 111.95 127.65 112.0 125.25 111.95 122.9 105.55 120.55 111.95 118.2 112.0 115.85 111.95 113.5 105.55 111.1 111.95 108.8 112.0 106.4 111.95 104.05 105.55 101.7 111.95 99.35 112.0 97.0 111.95 94.65 105.55 92.25 111.95 89.9 112.0 87.55 111.95 85.2 105.55 82.85 111.95 80.5 112.0 78.15 111.95 75.8 105.55 73.35 105.6 71.0 99.1 M339.8 195.85 Q337.45 195.75 335.15 189.4 330.4 202.25 325.7 189.4 321.0 202.25 316.3 189.4 311.55 202.25 306.85 189.4 302.1 202.25 297.4 189.4 292.7 202.25 288.0 189.4 283.25 202.25 278.55 189.4 273.85 202.25 269.15 189.4 264.4 202.25 259.7 189.4 255.0 202.25 250.3 189.4 245.55 202.25 240.85 189.4 236.1 202.25 231.4 189.4 226.7 202.25 222.0 189.4 217.25 202.25 212.55 189.4 207.85 202.25 203.15 189.4 198.4 202.25 193.7 189.4 189.0 202.25 184.3 189.4 179.55 202.25 174.85 189.4 170.1 202.25 165.4 189.4 160.7 202.25 156.0 189.4 151.25 202.25 146.55 189.4 141.85 202.25 137.15 189.4 132.4 202.25 127.7 189.4 122.95 202.25 118.25 189.4 113.55 202.25 108.85 189.4 104.1 202.25 99.4 189.4 94.7 202.25 90.0 189.4 85.25 202.25 80.55 189.4 78.2 195.85 75.8 195.85 78.2 202.3 80.55 202.35 82.9 202.3 85.25 195.85 87.6 202.3 90.0 202.35 92.35 202.3 94.7 195.85 97.05 202.3 99.4 202.35 101.75 202.3 104.15 195.85 106.5 202.3 108.85 202.35 111.2 202.3 113.55 195.85 115.9 202.3 118.25 202.35 120.6 202.3 123.0 195.85 125.35 202.3 127.7 202.35 130.05 202.3 132.4 195.85 134.75 202.3 137.15 202.35 139.45 202.3 141.85 195.85 144.2 202.3 146.55 202.35 148.9 202.3 151.25 195.85 153.6 202.3 156.0 202.35 158.35 202.3 160.7 195.85 163.05 202.3 165.4 202.35 167.75 202.3 170.15 195.85 172.5 202.3 174.85 202.35 177.2 202.3 179.55 195.85 181.9 202.3 184.3 202.35 186.65 202.3 189.0 195.85 191.35 202.3 193.7 202.35 196.05 202.3 198.4 195.85 200.75 202.3 203.15 202.35 205.45 202.3 207.85 195.85 210.2 202.3 212.55 202.35 214.9 202.3 217.3 195.85 219.65 202.3 222.0 202.35 224.35 202.3 226.7 195.85 229.05 202.3 231.4 202.35 233.75 202.3 236.15 195.85 238.5 202.3 240.85 202.35 243.2 202.3 245.55 195.85 247.9 202.3 250.3 202.35 252.6 202.3 255.0 195.85 257.35 202.3 259.7 202.35 262.05 202.3 264.4 195.85 266.75 202.3 269.15 202.35 271.5 202.3 273.85 195.85 276.2 202.3 278.55 202.35 280.9 202.3 283.3 195.85 285.65 202.3 288.0 202.35 290.35 202.3 292.7 195.85 295.05 202.3 297.4 202.35 299.75 202.3 302.15 195.85 304.5 202.3 306.85 202.35 309.2 202.3 311.55 195.85 313.9 202.3 316.3 202.35 318.6 202.3 321.0 195.85 323.35 202.3 325.7 202.35 328.05 202.3 330.4 195.85 332.75 202.3 335.15 202.35 337.5 202.3 339.8 195.85 342.15 195.85 344.55 189.35 M330.9 209.95 Q333.0 215.2 335.15 215.25 337.25 215.2 339.4 209.95 L339.85 208.8 Q337.5 208.75 335.15 202.35 332.75 208.8 330.4 208.8 L330.9 209.95 M329.95 209.95 L330.4 208.8 Q328.05 208.75 325.7 202.35 323.35 208.75 321.0 208.8 L321.45 209.95 Q323.55 215.2 325.7 215.25 327.85 215.2 329.95 209.95 M325.7 241.05 Q330.4 253.9 335.15 241.05 332.75 241.0 330.4 234.6 328.05 241.0 325.7 241.05 323.35 241.0 321.0 234.6 318.6 241.0 316.3 241.05 321.0 253.9 325.7 241.05 M344.5 228.1 Q342.2 234.45 339.85 234.6 337.5 241.0 335.15 241.05 337.4 247.2 339.65 247.45 342.1 247.75 344.55 241.0 M344.55 215.2 Q342.15 221.75 339.8 221.7 337.4 228.1 335.05 228.15 337.45 234.65 339.85 234.6 M335.05 228.15 Q332.7 228.1 330.35 221.7 328.0 228.1 325.65 228.15 330.35 241.0 335.05 228.15 M339.8 221.7 Q337.45 221.55 335.15 215.25 332.75 221.75 330.35 221.7 328.05 221.6 325.7 215.25 323.3 221.75 320.95 221.7 323.3 228.1 325.65 228.15 320.9 241.0 316.2 228.15 313.9 234.5 311.55 234.6 313.9 241.0 316.3 241.05 311.55 253.9 306.85 241.05 302.1 253.9 297.4 241.05 292.7 253.9 288.0 241.05 283.25 253.9 278.55 241.05 273.85 253.9 269.15 241.05 264.4 253.9 259.7 241.05 255.0 253.9 250.3 241.05 245.55 253.9 240.85 241.05 236.1 253.9 231.4 241.05 226.7 253.9 222.0 241.05 217.25 253.9 212.55 241.05 207.85 253.9 203.15 241.05 198.4 253.9 193.7 241.05 189.0 253.9 184.3 241.05 179.55 253.9 174.85 241.05 170.1 253.9 165.4 241.05 160.7 253.9 156.0 241.05 151.25 253.9 146.55 241.05 141.85 253.9 137.15 241.05 132.4 253.9 127.7 241.05 122.95 253.9 118.25 241.05 113.55 253.9 108.85 241.05 104.1 253.9 99.4 241.05 94.7 253.9 90.0 241.05 85.25 253.9 80.55 241.05 78.1 247.75 75.65 247.45 78.0 253.9 80.35 253.95 82.7 253.9 85.05 247.5 87.4 253.9 89.8 253.95 92.15 253.9 94.5 247.5 96.85 253.9 99.2 253.95 101.55 253.9 103.95 247.5 106.3 253.9 108.65 253.95 111.0 253.9 113.35 247.5 115.7 253.9 118.05 253.95 120.4 253.9 122.8 247.5 125.15 253.9 127.5 253.95 129.85 253.9 132.2 247.5 134.55 253.9 136.95 253.95 139.25 253.9 141.65 247.5 144.0 253.9 146.35 253.95 148.7 253.9 151.05 247.5 153.4 253.9 155.8 253.95 158.15 253.9 160.5 247.5 162.85 253.9 165.2 253.95 167.55 253.9 169.95 247.5 172.3 253.9 174.65 253.95 177.0 253.9 179.35 247.5 181.7 253.9 184.1 253.95 186.4 253.9 188.8 247.5 191.15 253.9 193.5 253.95 195.85 253.9 198.2 247.5 200.55 253.9 202.95 253.95 205.25 253.9 207.65 247.5 210.0 253.9 212.35 253.95 214.7 253.9 217.1 247.5 219.45 253.9 221.8 253.95 224.15 253.9 226.5 247.5 228.85 253.9 231.2 253.95 233.55 253.9 235.95 247.5 238.3 253.9 240.65 253.95 243.0 253.9 245.35 247.5 247.7 253.9 250.1 253.95 252.4 253.9 254.8 247.5 257.15 253.9 259.5 253.95 261.85 253.9 264.2 247.5 266.55 253.9 268.95 253.95 271.3 253.9 273.65 247.5 276.0 253.9 278.35 253.95 280.7 253.9 283.1 247.5 285.45 253.9 287.8 253.95 290.15 253.9 292.5 247.5 294.85 253.9 297.2 253.95 299.55 253.9 301.95 247.5 304.3 253.9 306.65 253.95 309.0 253.9 311.35 247.5 313.7 253.9 316.1 253.95 318.4 253.9 320.8 247.5 323.15 253.9 325.5 253.95 327.85 253.9 330.2 247.5 332.55 253.9 334.95 253.95 337.3 253.9 339.65 247.45 M344.55 202.3 Q342.2 208.75 339.85 208.8 M330.2 260.4 Q327.85 260.35 325.5 253.95 323.15 260.35 320.8 260.4 323.15 266.8 325.5 266.85 327.85 266.8 330.2 260.4 332.55 260.4 334.95 253.95 337.25 260.3 339.6 260.4 341.95 260.45 344.35 253.9 M339.6 260.4 Q337.25 266.8 334.95 266.85 337.3 273.25 339.65 273.3 342.0 273.25 344.35 266.8 M330.2 260.4 Q332.55 266.8 334.95 266.85 332.55 273.3 330.2 273.3 332.1 278.4 334.0 279.45 334.45 279.7 334.95 279.75 L335.9 279.45 Q337.75 278.4 339.65 273.3 M326.45 279.45 Q328.3 278.4 330.2 273.3 327.85 273.25 325.5 266.85 323.15 273.25 320.8 273.3 322.65 278.4 324.55 279.45 L325.5 279.75 326.45 279.45 M325.45 292.65 Q330.15 305.5 334.85 292.65 332.5 292.6 330.15 286.2 327.8 292.6 325.45 292.65 323.1 292.6 320.75 286.2 318.35 292.6 316.0 292.65 320.7 305.5 325.45 292.65 M344.35 279.7 Q341.95 286.25 339.6 286.2 337.2 292.6 334.85 292.65 337.25 299.15 339.65 299.1 342.0 298.95 344.3 292.6 M334.95 279.75 Q337.25 286.05 339.6 286.2 M334.95 279.75 Q332.55 286.25 330.15 286.2 327.85 286.1 325.5 279.75 323.1 286.25 320.75 286.2 318.4 286.1 316.1 279.75 313.7 286.25 311.3 286.2 313.65 292.6 316.0 292.65 313.7 299.0 311.35 299.1 313.7 305.5 316.1 305.55 318.4 305.5 320.8 299.1 323.15 305.5 325.5 305.55 327.85 305.5 330.2 299.1 332.55 305.5 334.95 305.55 337.3 305.5 339.65 299.1 M334.95 305.55 Q337.2 311.7 339.45 311.95 341.9 312.25 344.35 305.5 M334.95 305.55 Q330.2 318.4 325.5 305.55 320.8 318.4 316.1 305.55 311.35 318.4 306.65 305.55 301.9 318.4 297.2 305.55 292.5 318.4 287.8 305.55 283.05 318.4 278.35 305.55 273.65 318.4 268.95 305.55 264.2 318.4 259.5 305.55 254.8 318.4 250.1 305.55 245.35 318.4 240.65 305.55 235.9 318.4 231.2 305.55 226.5 318.4 221.8 305.55 217.05 318.4 212.35 305.55 207.65 318.4 202.95 305.55 198.2 318.4 193.5 305.55 188.8 318.4 184.1 305.55 179.35 318.4 174.65 305.55 169.9 318.4 165.2 305.55 160.5 318.4 155.8 305.55 151.05 318.4 146.35 305.55 141.65 318.4 136.95 305.55 132.2 318.4 127.5 305.55 122.75 318.4 118.05 305.55 113.35 318.4 108.65 305.55 103.9 318.4 99.2 305.55 94.5 318.4 89.8 305.55 85.05 318.4 80.35 305.55 77.9 312.25 75.45 311.95 77.8 318.4 80.15 318.45 82.5 318.4 84.85 312.0 87.2 318.4 89.6 318.45 91.95 318.4 94.3 312.0 96.65 318.4 99.0 318.45 101.35 318.4 103.75 312.0 106.1 318.4 108.45 318.45 110.8 318.4 113.15 312.0 115.5 318.4 117.85 318.45 120.2 318.4 122.6 312.0 124.95 318.4 127.3 318.45 129.65 318.4 132.0 312.0 134.35 318.4 136.75 318.45 139.05 318.4 141.45 312.0 143.8 318.4 146.15 318.45 148.5 318.4 150.9 312.0 153.25 318.4 155.6 318.45 157.95 318.4 160.3 312.0 162.65 318.4 165.0 318.45 167.35 318.4 169.75 312.0 172.1 318.4 174.45 318.45 176.8 318.4 179.15 312.0 181.5 318.4 183.9 318.45 186.2 318.4 188.6 312.0 190.95 318.4 193.3 318.45 195.65 318.4 198.0 312.0 200.35 318.4 202.75 318.45 205.05 318.4 207.45 312.0 209.8 318.4 212.15 318.45 214.5 318.4 216.9 312.0 219.25 318.4 221.6 318.45 223.95 318.4 226.3 312.0 228.65 318.4 231.0 318.45 233.35 318.4 235.75 312.0 238.1 318.4 240.45 318.45 242.8 318.4 245.15 312.0 247.5 318.4 249.9 318.45 252.2 318.4 254.6 312.0 256.95 318.4 259.3 318.45 261.65 318.4 264.0 312.0 266.35 318.4 268.75 318.45 271.1 318.4 273.45 312.0 275.8 318.4 278.15 318.45 280.5 318.4 282.9 312.0 285.25 318.4 287.6 318.45 289.95 318.4 292.3 312.0 294.65 318.4 297.0 318.45 299.35 318.4 301.75 312.0 304.1 318.4 306.45 318.45 308.8 318.4 311.15 312.0 313.5 318.4 315.9 318.45 318.2 318.4 320.6 312.0 322.95 318.4 325.3 318.45 327.65 318.4 330.05 312.0 332.4 318.4 334.75 318.45 337.1 318.4 339.45 311.95 M344.15 318.4 Q341.85 324.65 339.6 324.85 337.25 331.25 334.95 331.3 337.3 337.7 339.65 337.75 342.0 337.7 344.35 331.25 M339.6 324.85 Q337.15 325.1 334.75 318.45 332.45 324.6 330.2 324.85 332.55 331.25 334.95 331.3 332.55 337.75 330.2 337.75 332.55 344.15 334.95 344.2 337.3 344.15 339.65 337.75 M325.3 318.45 Q323.05 324.6 320.8 324.85 323.15 331.25 325.5 331.3 327.85 331.25 330.2 324.85 327.75 325.1 325.3 318.45 M325.5 331.3 Q327.85 337.7 330.2 337.75 327.85 344.15 325.5 344.2 327.85 350.55 330.15 350.65 332.55 350.7 334.95 344.2 337.25 350.5 339.6 350.65 341.95 350.7 344.35 344.15 M325.45 357.1 Q330.15 369.95 334.85 357.1 332.5 357.05 330.15 350.65 327.8 357.05 325.45 357.1 323.1 357.05 320.75 350.65 318.35 357.05 316.0 357.1 320.7 369.95 325.45 357.1 M339.6 350.65 Q337.2 357.05 334.85 357.1 337.25 363.6 339.65 363.55 342.0 363.4 344.3 357.05 M334.95 370.0 Q330.2 382.85 325.5 370.0 320.8 382.85 316.1 370.0 311.35 382.85 306.65 370.0 301.9 382.85 297.2 370.0 292.5 382.85 287.8 370.0 283.05 382.85 278.35 370.0 273.65 382.85 268.95 370.0 264.2 382.85 259.5 370.0 254.8 382.85 250.1 370.0 245.35 382.85 240.65 370.0 235.9 382.85 231.2 370.0 226.5 382.85 221.8 370.0 217.05 382.85 212.35 370.0 207.65 382.85 202.95 370.0 198.2 382.85 193.5 370.0 188.8 382.85 184.1 370.0 179.35 382.85 174.65 370.0 169.9 382.85 165.2 370.0 160.5 382.85 155.8 370.0 151.05 382.85 146.35 370.0 141.65 382.85 136.95 370.0 132.2 382.85 127.5 370.0 122.75 382.85 118.05 370.0 113.35 382.85 108.65 370.0 103.9 382.85 99.2 370.0 94.5 382.85 89.8 370.0 85.05 382.85 80.35 370.0 77.9 376.7 75.45 376.4 77.8 382.85 80.15 382.9 82.5 382.85 84.85 376.45 87.2 382.85 89.6 382.9 91.95 382.85 94.3 376.45 96.65 382.85 99.0 382.9 101.35 382.85 103.75 376.45 106.1 382.85 108.45 382.9 110.8 382.85 113.15 376.45 115.5 382.85 117.85 382.9 120.2 382.85 122.6 376.45 124.95 382.85 127.3 382.9 129.65 382.85 132.0 376.45 134.35 382.85 136.75 382.9 139.05 382.85 141.45 376.45 143.8 382.85 146.15 382.9 148.5 382.85 150.9 376.45 153.25 382.85 155.6 382.9 157.95 382.85 160.3 376.45 162.65 382.85 165.0 382.9 167.35 382.85 169.75 376.45 172.1 382.85 174.45 382.9 176.8 382.85 179.15 376.45 181.5 382.85 183.9 382.9 186.2 382.85 188.6 376.45 190.95 382.85 193.3 382.9 195.65 382.85 198.0 376.45 200.35 382.85 202.75 382.9 205.05 382.85 207.45 376.45 209.8 382.85 212.15 382.9 214.5 382.85 216.9 376.45 219.25 382.85 221.6 382.9 223.95 382.85 226.3 376.45 228.65 382.85 231.0 382.9 233.35 382.85 235.75 376.45 238.1 382.85 240.45 382.9 242.8 382.85 245.15 376.45 247.5 382.85 249.9 382.9 252.2 382.85 254.6 376.45 256.95 382.85 259.3 382.9 261.65 382.85 264.0 376.45 266.35 382.85 268.75 382.9 271.1 382.85 273.45 376.45 275.8 382.85 278.15 382.9 280.5 382.85 282.9 376.45 285.25 382.85 287.6 382.9 289.95 382.85 292.3 376.45 294.65 382.85 297.0 382.9 299.35 382.85 301.75 376.45 304.1 382.85 306.45 382.9 308.8 382.85 311.15 376.45 313.5 382.85 315.9 382.9 318.2 382.85 320.6 376.45 322.95 382.85 325.3 382.9 327.65 382.85 330.05 376.45 332.4 382.85 334.75 382.9 337.1 382.85 339.45 376.4 337.2 376.15 334.95 370.0 332.55 369.95 330.2 363.55 327.85 369.95 325.5 370.0 323.15 369.95 320.8 363.55 318.4 369.95 316.1 370.0 313.7 369.95 311.35 363.55 309.0 369.95 306.65 370.0 304.3 369.95 301.95 363.55 299.55 369.95 297.2 370.0 294.85 369.95 292.5 363.55 290.15 369.95 287.8 370.0 285.45 369.95 283.1 363.55 280.7 369.95 278.35 370.0 276.0 369.95 273.65 363.55 271.3 369.95 268.95 370.0 266.55 369.95 264.2 363.55 261.85 369.95 259.5 370.0 257.15 369.95 254.8 363.55 252.4 369.95 250.1 370.0 247.7 369.95 245.35 363.55 243.0 369.95 240.65 370.0 238.3 369.95 235.95 363.55 233.55 369.95 231.2 370.0 228.85 369.95 226.5 363.55 224.15 369.95 221.8 370.0 219.45 369.95 217.1 363.55 214.7 369.95 212.35 370.0 210.0 369.95 207.65 363.55 205.25 369.95 202.95 370.0 200.55 369.95 198.2 363.55 195.85 369.95 193.5 370.0 191.15 369.95 188.8 363.55 186.4 369.95 184.1 370.0 181.7 369.95 179.35 363.55 177.0 369.95 174.65 370.0 172.3 369.95 169.95 363.55 167.55 369.95 165.2 370.0 162.85 369.95 160.5 363.55 158.15 369.95 155.8 370.0 153.4 369.95 151.05 363.55 148.7 369.95 146.35 370.0 144.0 369.95 141.65 363.55 139.25 369.95 136.95 370.0 134.55 369.95 132.2 363.55 129.85 369.95 127.5 370.0 125.15 369.95 122.8 363.55 120.4 369.95 118.05 370.0 115.7 369.95 113.35 363.55 111.0 369.95 108.65 370.0 106.3 369.95 103.95 363.55 101.55 369.95 99.2 370.0 96.85 369.95 94.5 363.55 92.15 369.95 89.8 370.0 87.4 369.95 85.05 363.55 82.7 369.95 80.35 370.0 78.0 369.95 75.65 363.55 73.25 363.6 70.85 357.1 M325.3 382.9 Q322.95 389.3 320.6 389.35 322.95 395.7 325.3 395.75 327.65 395.7 330.05 389.35 327.65 389.3 325.3 382.9 M334.75 382.9 Q337.05 389.25 339.4 389.35 341.75 389.35 344.15 382.85 M334.75 382.9 Q332.35 389.35 330.05 389.35 332.4 395.7 334.75 395.75 337.05 395.7 339.4 389.35 M344.35 369.95 Q341.9 376.7 339.45 376.4 M339.65 363.55 Q337.3 369.95 334.95 370.0 M259.65 73.3 Q257.25 73.25 254.95 66.8 252.55 73.25 250.2 73.3 252.55 79.7 254.95 79.75 257.25 79.75 259.65 73.3 262.0 73.25 264.35 66.8 266.7 73.25 269.05 73.3 271.4 73.25 273.8 66.8 276.15 73.25 278.5 73.3 280.85 73.25 283.2 66.8 285.55 73.25 287.95 73.3 290.3 73.25 292.65 66.8 295.0 73.25 297.35 73.3 299.7 73.25 302.05 66.8 304.4 73.25 306.8 73.3 309.15 73.25 311.5 66.8 313.85 73.25 316.2 73.3 313.85 79.7 311.5 79.75 313.85 86.15 316.2 86.2 313.8 92.7 311.45 92.65 309.1 92.5 306.8 86.2 304.4 92.7 302.0 92.65 304.35 99.05 306.7 99.1 302.0 111.95 297.3 99.1 292.55 111.95 287.85 99.1 283.15 111.95 278.45 99.1 273.7 111.95 269.0 99.1 264.3 111.95 259.55 99.1 254.85 111.95 250.15 99.1 247.8 105.45 245.5 105.55 243.1 105.6 240.7 99.1 236.0 111.95 231.3 99.1 226.55 111.95 221.85 99.1 217.15 111.95 212.45 99.1 207.7 111.95 203.0 99.1 198.3 111.95 193.55 99.1 191.25 105.45 188.9 105.55 186.5 105.6 184.15 99.1 179.4 111.95 174.7 99.1 170.0 111.95 165.3 99.1 160.55 111.95 155.85 99.1 151.15 111.95 146.45 99.1 141.7 111.95 137.0 99.1 134.65 105.45 132.35 105.55 129.95 105.6 127.55 99.1 122.85 111.95 118.15 99.1 113.4 111.95 108.7 99.1 104.0 111.95 99.3 99.1 96.95 105.45 94.65 105.55 92.25 105.6 89.85 99.1 85.1 111.95 80.4 99.1 78.1 105.45 75.8 105.55 M250.2 73.3 Q247.85 79.7 245.5 79.75 247.85 86.15 250.2 86.2 252.55 86.15 254.95 79.75 257.3 86.15 259.65 86.2 262.0 86.15 264.35 79.75 262.0 79.7 259.65 73.3 M245.45 92.65 Q247.8 99.05 250.15 99.1 252.5 99.05 254.85 92.65 252.55 92.55 250.2 86.2 247.8 92.7 245.45 92.65 243.1 92.5 240.8 86.2 238.4 92.7 236.0 92.65 238.35 99.05 240.7 99.1 243.05 99.05 245.45 92.65 M254.85 92.65 Q257.25 92.7 259.65 86.2 261.95 92.5 264.3 92.65 266.65 92.7 269.05 86.2 266.7 86.15 264.35 79.75 266.7 79.7 269.05 73.3 271.4 79.7 273.8 79.75 276.1 79.75 278.5 73.3 280.85 79.7 283.2 79.75 285.55 79.75 287.95 73.3 290.3 79.75 292.65 79.75 295.0 79.7 297.35 73.3 299.7 79.7 302.05 79.75 304.4 79.75 306.8 73.3 309.15 79.75 311.5 79.75 309.1 86.15 306.8 86.2 304.4 86.15 302.05 79.75 299.7 86.15 297.35 86.2 299.7 92.55 302.0 92.65 299.65 99.05 297.3 99.1 294.95 99.05 292.6 92.65 290.2 99.05 287.85 99.1 285.5 99.05 283.15 92.65 280.75 99.05 278.45 99.1 276.05 99.05 273.7 92.65 271.35 99.05 269.0 99.1 266.65 99.05 264.3 92.65 261.9 99.05 259.55 99.1 257.2 99.05 254.85 92.65 M278.5 86.2 Q276.15 86.15 273.8 79.75 271.4 86.15 269.05 86.2 271.4 92.55 273.7 92.65 276.1 92.7 278.5 86.2 280.85 86.15 283.2 79.75 285.55 86.15 287.95 86.2 290.25 86.15 292.65 79.75 295.0 86.15 297.35 86.2 294.95 92.7 292.6 92.65 290.25 92.55 287.95 86.2 285.55 92.7 283.15 92.65 280.8 92.55 278.5 86.2 M75.8 66.8 Q78.15 73.25 80.5 73.3 82.85 73.25 85.2 66.8 87.55 73.25 89.9 73.3 92.25 73.25 94.65 66.8 96.95 73.25 99.35 73.3 101.7 73.25 104.05 66.8 106.4 73.25 108.8 73.3 111.15 73.25 113.5 66.8 115.85 73.25 118.2 73.3 120.55 73.25 122.9 66.8 125.25 73.25 127.65 73.3 130.0 73.25 132.35 66.8 134.7 73.25 137.05 73.3 139.4 73.25 141.8 66.8 144.1 73.25 146.5 73.3 148.85 73.25 151.2 66.8 153.55 73.25 155.9 73.3 158.25 73.25 160.65 66.8 163.0 73.25 165.35 73.3 167.7 73.25 170.05 66.8 172.4 73.25 174.8 73.3 177.15 73.25 179.5 66.8 181.85 73.25 184.2 73.3 186.55 73.25 188.9 66.8 191.25 73.25 193.65 73.3 196.0 73.25 198.35 66.8 200.7 73.25 203.05 73.3 205.4 73.25 207.8 66.8 210.15 73.25 212.5 73.3 214.85 73.25 217.2 66.8 219.55 73.25 221.9 73.3 224.25 73.25 226.65 66.8 229.0 73.25 231.35 73.3 233.7 73.25 236.05 66.8 238.4 73.25 240.8 73.3 243.15 73.25 245.5 66.8 247.85 73.25 250.2 73.3 M174.8 73.3 Q177.1 79.7 179.5 79.75 181.85 79.75 184.2 73.3 186.55 79.7 188.9 79.75 191.25 79.75 193.65 73.3 196.0 79.7 198.35 79.75 200.7 79.75 203.05 73.3 205.4 79.7 207.8 79.75 210.1 79.7 212.5 73.3 214.85 79.75 217.2 79.75 219.55 79.7 221.9 73.3 224.25 79.75 226.65 79.75 229.0 79.7 231.35 73.3 233.7 79.7 236.05 79.75 238.4 79.75 240.8 73.3 243.15 79.75 245.5 79.75 243.1 86.15 240.8 86.2 238.4 86.15 236.05 79.75 233.7 86.15 231.35 86.2 233.65 92.5 236.0 92.65 233.65 99.05 231.3 99.1 228.9 99.05 226.55 92.65 224.2 99.05 221.85 99.1 219.5 99.05 217.15 92.65 214.75 99.05 212.45 99.1 210.05 99.05 207.7 92.65 205.35 99.05 203.0 99.1 200.65 99.05 198.3 92.65 195.9 99.05 193.55 99.1 191.2 99.05 188.85 92.65 186.5 99.05 184.15 99.1 181.8 99.05 179.45 92.65 177.05 99.05 174.7 99.1 172.35 99.05 170.0 92.65 167.6 99.05 165.3 99.1 162.9 99.05 160.55 92.65 158.2 99.05 155.85 99.1 153.5 99.05 151.15 92.65 148.75 99.05 146.45 99.1 144.05 99.05 141.7 92.65 139.35 99.05 137.0 99.1 134.65 99.05 132.3 92.65 129.9 99.05 127.55 99.1 125.2 99.05 122.85 92.65 120.5 99.05 118.15 99.1 115.8 99.05 113.45 92.65 111.05 99.05 108.7 99.1 106.35 99.05 104.0 92.65 101.6 99.05 99.3 99.1 96.9 99.05 94.55 92.65 92.2 99.05 89.85 99.1 87.5 99.05 85.15 92.65 82.75 99.05 80.4 99.1 78.05 99.05 75.7 92.65 73.4 92.55 71.05 86.2 M165.35 73.3 Q167.7 79.7 170.05 79.75 172.4 79.75 174.8 73.3 M170.0 92.65 Q167.65 92.55 165.35 86.2 162.95 92.7 160.55 92.65 158.25 92.55 155.9 86.2 153.5 92.7 151.15 92.65 148.8 92.55 146.5 86.2 144.1 92.7 141.7 92.65 139.35 92.5 137.05 86.2 134.65 92.7 132.3 92.65 129.95 92.55 127.65 86.2 125.25 92.7 122.85 92.65 120.5 92.5 118.2 86.2 115.8 92.7 113.45 92.65 111.1 92.5 108.8 86.2 106.4 92.7 104.0 92.65 101.65 92.55 99.35 86.2 96.95 92.7 94.55 92.65 92.25 92.55 89.9 86.2 87.5 92.7 85.15 92.65 82.8 92.55 80.5 86.2 78.1 92.7 75.7 92.65 M179.45 92.65 Q181.8 92.7 184.2 86.2 181.85 86.15 179.5 79.75 177.1 86.15 174.8 86.2 177.1 92.5 179.45 92.65 M165.35 73.3 Q163.0 79.7 160.65 79.75 163.0 86.15 165.35 86.2 167.7 86.15 170.05 79.75 172.4 86.15 174.8 86.2 172.4 92.7 170.0 92.65 M188.85 92.65 Q191.25 92.7 193.65 86.2 191.25 86.15 188.9 79.75 186.55 86.15 184.2 86.2 186.5 92.5 188.85 92.65 M198.3 92.65 Q200.65 92.7 203.05 86.2 200.7 86.15 198.35 79.75 196.0 86.15 193.65 86.2 195.95 92.5 198.3 92.65 M212.5 86.2 Q210.15 86.15 207.8 79.75 205.4 86.15 203.05 86.2 205.35 92.5 207.7 92.65 210.1 92.7 212.5 86.2 214.85 86.15 217.2 79.75 219.55 86.15 221.9 86.2 224.25 86.15 226.65 79.75 229.0 86.15 231.35 86.2 228.95 92.7 226.55 92.65 224.2 92.5 221.9 86.2 219.5 92.7 217.15 92.65 214.8 92.5 212.5 86.2 M203.35 137.8 Q200.95 144.25 198.6 144.25 200.95 150.65 203.35 150.7 205.65 150.65 208.05 144.25 205.65 144.2 203.35 137.8 M212.75 137.8 Q215.1 144.25 217.5 144.25 219.85 144.2 222.2 137.8 224.55 144.25 226.9 144.25 229.25 144.2 231.6 137.8 233.95 144.2 236.35 144.25 238.65 144.25 241.05 137.8 243.4 144.25 245.75 144.25 248.1 144.2 250.5 137.8 252.8 144.2 255.2 144.25 257.55 144.25 259.9 137.8 262.25 144.2 264.6 144.25 266.95 144.2 269.35 137.8 271.65 144.2 274.05 144.25 276.4 144.25 278.75 137.8 281.1 144.2 283.5 144.25 285.8 144.25 288.2 137.8 290.55 144.25 292.9 144.25 295.25 144.2 297.6 137.8 299.95 144.2 302.35 144.25 304.7 144.25 307.05 137.8 309.4 144.25 311.75 144.25 314.1 144.2 316.5 137.8 318.85 144.2 321.2 144.25 318.8 150.65 316.5 150.7 318.8 157.05 321.15 157.15 318.75 163.55 316.4 163.6 321.1 176.45 325.85 163.6 M212.75 137.8 Q210.4 144.2 208.05 144.25 210.4 150.65 212.75 150.7 215.1 150.65 217.5 144.25 219.85 150.65 222.2 150.7 224.55 150.65 226.9 144.25 229.25 150.65 231.6 150.7 233.95 150.65 236.35 144.25 238.7 150.65 241.05 150.7 243.4 150.65 245.75 144.25 248.1 150.65 250.5 150.7 252.8 150.65 255.2 144.25 257.55 150.65 259.9 150.7 262.25 150.65 264.6 144.25 266.95 150.65 269.35 150.7 271.65 150.65 274.05 144.25 276.4 150.65 278.75 150.7 281.1 150.65 283.5 144.25 285.85 150.65 288.2 150.7 290.55 150.65 292.9 144.25 295.25 150.65 297.6 150.7 299.95 150.65 302.35 144.25 304.7 150.65 307.05 150.7 309.4 150.65 311.75 144.25 314.1 150.65 316.5 150.7 314.05 157.2 311.7 157.15 314.05 163.55 316.4 163.6 314.1 169.95 311.75 170.05 314.1 176.45 316.5 176.5 318.8 176.45 321.2 170.05 323.55 176.45 325.9 176.5 M165.6 137.8 Q163.25 144.2 160.9 144.25 163.25 150.65 165.6 150.7 167.95 150.65 170.35 144.25 167.95 144.2 165.6 137.8 M175.05 137.8 Q177.4 144.2 179.75 144.25 182.1 144.25 184.45 137.8 186.8 144.2 189.2 144.25 191.55 144.25 193.9 137.8 196.25 144.2 198.6 144.25 196.25 150.65 193.9 150.7 196.2 157.0 198.55 157.15 200.95 157.2 203.35 150.7 205.65 157.0 208.0 157.15 210.35 157.2 212.75 150.7 215.05 157.0 217.4 157.15 219.8 157.2 222.2 150.7 224.5 157.0 226.85 157.15 229.2 157.2 231.6 150.7 233.9 157.0 236.25 157.15 238.65 157.2 241.05 150.7 243.35 157.0 245.7 157.15 248.05 157.2 250.5 150.7 252.8 157.05 255.1 157.15 257.5 157.2 259.9 150.7 262.2 157.0 264.55 157.15 266.95 157.2 269.35 150.7 271.65 157.05 274.0 157.15 276.35 157.2 278.75 150.7 281.1 157.05 283.4 157.15 285.8 157.2 288.2 150.7 290.5 157.05 292.85 157.15 295.2 157.2 297.6 150.7 299.95 157.05 302.25 157.15 304.65 157.2 307.05 150.7 309.35 157.0 311.7 157.15 309.3 163.55 307.0 163.6 309.35 170.1 311.75 170.05 309.4 176.45 307.05 176.5 304.7 176.45 302.35 170.05 299.95 176.45 297.6 176.5 295.25 176.45 292.9 170.05 290.55 176.45 288.2 176.5 285.85 176.45 283.5 170.05 281.1 176.45 278.75 176.5 276.4 176.45 274.05 170.05 271.65 176.45 269.35 176.5 266.95 176.45 264.6 170.05 262.25 176.45 259.9 176.5 257.55 176.45 255.2 170.05 252.8 176.45 250.5 176.5 248.1 176.45 245.75 170.05 243.4 176.45 241.05 176.5 238.7 176.45 236.35 170.05 233.95 176.45 231.6 176.5 229.25 176.45 226.9 170.05 224.55 176.45 222.2 176.5 219.85 176.45 217.5 170.05 215.1 176.45 212.75 176.5 210.4 176.45 208.05 170.05 205.65 176.45 203.35 176.5 200.95 176.45 198.6 170.05 196.25 176.45 193.9 176.5 191.55 176.45 189.2 170.05 186.8 176.45 184.45 176.5 182.1 176.45 179.75 170.05 177.4 176.45 175.05 176.5 172.7 176.45 170.35 170.05 167.95 176.45 165.6 176.5 163.25 176.45 160.9 170.05 158.55 176.45 156.2 176.5 153.8 176.45 151.45 170.05 149.1 176.45 146.75 176.5 144.4 176.45 142.05 170.05 139.65 176.45 137.35 176.5 134.95 176.45 132.6 170.05 130.25 176.45 127.9 176.5 125.55 176.45 123.2 170.05 120.8 176.45 118.45 176.5 116.1 176.45 113.75 170.05 111.4 176.45 109.05 176.5 106.7 176.45 104.35 170.05 101.95 176.45 99.6 176.5 97.25 176.45 94.9 170.05 92.5 176.45 90.2 176.5 87.8 176.45 85.45 170.05 83.1 176.45 80.75 176.5 78.4 176.45 76.05 170.05 73.65 170.1 71.25 163.6 M170.35 144.25 Q172.65 144.25 175.05 137.8 M184.45 150.7 Q182.05 157.2 179.7 157.15 182.05 163.55 184.4 163.6 186.75 163.55 189.1 157.15 186.75 157.0 184.45 150.7 182.1 150.65 179.75 144.25 177.4 150.65 175.05 150.7 177.35 157.0 179.7 157.15 177.3 163.55 175.0 163.6 179.7 176.45 184.4 163.6 186.8 170.1 189.2 170.05 191.5 169.95 193.85 163.6 191.45 163.55 189.1 157.15 191.5 157.2 193.9 150.7 191.55 150.65 189.2 144.25 186.8 150.65 184.45 150.7 M193.85 163.6 Q196.2 163.55 198.55 157.15 200.9 163.55 203.25 163.6 205.6 163.55 208.0 157.15 210.35 163.55 212.7 163.6 215.05 163.55 217.4 157.15 219.75 163.55 222.1 163.6 224.45 163.55 226.85 157.15 229.2 163.55 231.55 163.6 233.9 163.55 236.25 157.15 238.6 163.55 241.0 163.6 243.3 163.55 245.7 157.15 248.05 163.55 250.4 163.6 252.75 163.55 255.1 157.15 257.45 163.55 259.85 163.6 262.2 163.55 264.55 157.15 266.9 163.55 269.25 163.6 271.6 163.55 274.0 157.15 276.35 163.55 278.7 163.6 281.05 163.55 283.4 157.15 285.75 163.55 288.15 163.6 290.45 163.55 292.85 157.15 295.2 163.55 297.55 163.6 299.9 163.55 302.25 157.15 304.6 163.55 307.0 163.6 302.25 176.45 297.55 163.6 292.85 176.45 288.15 163.6 283.4 176.45 278.7 163.6 273.95 176.45 269.25 163.6 264.55 176.45 259.85 163.6 255.1 176.45 250.4 163.6 248.1 169.95 245.75 170.05 243.35 170.1 241.0 163.6 236.25 176.45 231.55 163.6 226.8 176.45 222.1 163.6 217.4 176.45 212.7 163.6 207.95 176.45 203.25 163.6 198.55 176.45 193.85 163.6 M175.05 150.7 Q172.65 157.2 170.25 157.15 172.6 163.55 175.0 163.6 170.25 176.45 165.55 163.6 160.85 176.45 156.1 163.6 151.4 176.45 146.7 163.6 141.95 176.45 137.25 163.6 134.95 169.95 132.6 170.05 130.2 170.1 127.85 163.6 123.1 176.45 118.4 163.6 113.7 176.45 109.0 163.6 104.25 176.45 99.55 163.6 97.2 169.95 94.9 170.05 92.5 170.1 90.1 163.6 85.4 176.45 80.7 163.6 78.35 169.95 76.05 170.05 M170.25 157.15 Q167.9 163.55 165.55 163.6 163.2 163.55 160.85 157.15 158.45 163.55 156.1 163.6 153.75 163.55 151.4 157.15 149.05 163.55 146.7 163.6 144.35 163.55 142.0 157.15 139.6 163.55 137.25 163.6 134.9 163.55 132.55 157.15 130.15 163.55 127.85 163.6 125.45 163.55 123.1 157.15 120.75 163.55 118.4 163.6 116.05 163.55 113.7 157.15 111.3 163.55 109.0 163.6 106.6 163.55 104.25 157.15 101.9 163.55 99.55 163.6 97.2 163.55 94.85 157.15 92.45 163.55 90.1 163.6 87.75 163.55 85.4 157.15 83.05 163.55 80.7 163.6 78.35 163.55 76.0 157.15 73.65 157.05 71.35 150.7 M165.6 150.7 Q167.95 157.05 170.25 157.15 M175.05 150.7 Q172.7 150.65 170.35 144.25 M89.9 73.3 Q92.25 79.75 94.65 79.75 97.0 79.7 99.35 73.3 101.7 79.7 104.05 79.75 106.4 79.7 108.8 73.3 111.15 79.75 113.5 79.75 115.85 79.7 118.2 73.3 120.55 79.75 122.9 79.75 125.25 79.7 127.65 73.3 130.0 79.75 132.35 79.75 134.7 79.7 137.05 73.3 139.4 79.75 141.8 79.75 144.15 79.7 146.5 73.3 148.85 79.75 151.2 79.75 153.55 79.7 155.9 73.3 158.25 79.7 160.65 79.75 158.25 86.15 155.9 86.2 153.55 86.15 151.2 79.75 148.85 86.15 146.5 86.2 144.15 86.15 141.8 79.75 139.4 86.15 137.05 86.2 134.7 86.15 132.35 79.75 129.95 86.15 127.65 86.2 125.25 86.15 122.9 79.75 120.55 86.15 118.2 86.2 115.85 86.15 113.5 79.75 111.1 86.15 108.8 86.2 106.4 86.15 104.05 79.75 101.7 86.15 99.35 86.2 97.0 86.15 94.65 79.75 92.25 86.15 89.9 86.2 87.55 86.15 85.2 79.75 82.85 86.15 80.5 86.2 78.15 86.15 75.8 79.75 73.4 79.75 71.05 73.3 M80.5 73.3 Q82.85 79.75 85.2 79.75 87.55 79.7 89.9 73.3 M75.8 79.75 Q78.15 79.7 80.5 73.3 M71.05 112.0 Q73.3 118.15 75.6 118.4 M71.35 137.8 Q73.7 144.25 76.05 144.25 78.4 144.2 80.75 137.8 83.1 144.25 85.45 144.25 87.8 144.2 90.2 137.8 92.55 144.25 94.9 144.25 97.25 144.2 99.6 137.8 101.95 144.2 104.35 144.25 106.7 144.2 109.05 137.8 111.4 144.25 113.75 144.25 116.1 144.2 118.45 137.8 120.8 144.25 123.2 144.25 125.55 144.2 127.9 137.8 130.25 144.25 132.6 144.25 134.95 144.2 137.35 137.8 139.7 144.25 142.05 144.25 144.4 144.2 146.75 137.8 149.1 144.25 151.45 144.25 153.8 144.2 156.2 137.8 158.55 144.2 160.9 144.25 158.55 150.65 156.2 150.7 158.5 157.05 160.85 157.15 163.2 157.2 165.6 150.7 M76.0 131.25 Q73.45 131.95 70.85 124.9 M76.0 157.15 Q78.35 157.2 80.75 150.7 78.4 150.65 76.05 144.25 M71.35 176.5 Q73.6 182.65 75.85 182.9 M113.7 157.15 Q111.35 157.0 109.05 150.7 106.65 157.2 104.25 157.15 101.95 157.05 99.6 150.7 97.2 157.2 94.85 157.15 92.5 157.05 90.2 150.7 87.8 157.2 85.4 157.15 83.1 157.05 80.75 150.7 83.1 150.65 85.45 144.25 87.8 150.65 90.2 150.7 92.5 150.65 94.9 144.25 97.25 150.65 99.6 150.7 101.95 150.65 104.35 144.25 106.7 150.65 109.05 150.7 111.4 150.65 113.75 144.25 116.1 150.65 118.45 150.7 120.8 150.65 123.2 144.25 125.55 150.65 127.9 150.7 130.25 150.65 132.6 144.25 134.95 150.65 137.35 150.7 139.65 150.65 142.05 144.25 144.4 150.65 146.75 150.7 149.1 150.65 151.45 144.25 153.8 150.65 156.2 150.7 153.8 157.2 151.4 157.15 149.1 157.05 146.75 150.7 144.35 157.2 142.0 157.15 139.65 157.0 137.35 150.7 134.95 157.2 132.55 157.15 130.2 157.05 127.9 150.7 125.5 157.2 123.1 157.15 120.75 157.0 118.45 150.7 116.05 157.2 113.7 157.15 M151.75 209.95 Q153.85 215.2 156.0 215.25 158.1 215.2 160.25 209.95 L160.7 208.8 Q158.35 208.75 156.0 202.35 153.6 208.75 151.25 208.8 L151.75 209.95 M151.25 208.8 Q148.9 208.8 146.55 202.35 144.2 208.75 141.85 208.8 L142.3 209.95 Q144.4 215.2 146.55 215.25 148.7 215.2 150.8 209.95 L151.25 208.8 M156.0 215.25 Q158.3 221.6 160.65 221.7 163.0 221.75 165.4 215.25 163.25 215.2 161.15 209.95 L160.7 208.8 Q163.05 208.75 165.4 202.35 167.75 208.75 170.15 208.8 172.45 208.8 174.85 202.35 177.2 208.75 179.55 208.8 181.9 208.8 184.3 202.35 186.6 208.75 189.0 208.8 191.35 208.8 193.7 202.35 196.05 208.75 198.4 208.8 200.75 208.8 203.15 202.35 205.45 208.75 207.85 208.8 210.2 208.75 212.55 202.35 214.9 208.8 217.3 208.8 219.65 208.75 222.0 202.35 224.35 208.8 226.7 208.8 229.05 208.75 231.4 202.35 233.75 208.75 236.15 208.8 238.45 208.8 240.85 202.35 243.2 208.8 245.55 208.8 247.9 208.75 250.3 202.35 252.6 208.75 255.0 208.8 257.35 208.8 259.7 202.35 262.05 208.75 264.4 208.8 266.75 208.75 269.15 202.35 271.45 208.75 273.85 208.8 276.2 208.8 278.55 202.35 280.9 208.75 283.3 208.8 285.6 208.8 288.0 202.35 290.35 208.8 292.7 208.8 295.05 208.75 297.4 202.35 299.75 208.75 302.15 208.8 304.5 208.8 306.85 202.35 309.2 208.8 311.55 208.8 313.9 208.75 316.3 202.35 318.65 208.75 321.0 208.8 L320.55 209.95 Q318.4 215.2 316.3 215.25 318.6 221.6 320.95 221.7 318.55 228.1 316.2 228.15 313.85 228.1 311.5 221.7 309.1 228.1 306.8 228.15 309.15 234.65 311.55 234.6 309.2 241.0 306.85 241.05 304.5 241.0 302.15 234.6 299.75 241.0 297.4 241.05 295.05 241.0 292.7 234.6 290.35 241.0 288.0 241.05 285.65 241.0 283.3 234.6 280.9 241.0 278.55 241.05 276.2 241.0 273.85 234.6 271.45 241.0 269.15 241.05 266.75 241.0 264.4 234.6 262.05 241.0 259.7 241.05 257.35 241.0 255.0 234.6 252.6 241.0 250.3 241.05 247.9 241.0 245.55 234.6 243.2 241.0 240.85 241.05 238.5 241.0 236.15 234.6 233.75 241.0 231.4 241.05 229.05 241.0 226.7 234.6 224.35 241.0 222.0 241.05 219.65 241.0 217.3 234.6 214.9 241.0 212.55 241.05 210.2 241.0 207.85 234.6 205.45 241.0 203.15 241.05 200.75 241.0 198.4 234.6 196.05 241.0 193.7 241.05 191.35 241.0 189.0 234.6 186.6 241.0 184.3 241.05 181.9 241.0 179.55 234.6 177.2 241.0 174.85 241.05 172.5 241.0 170.15 234.6 167.75 241.0 165.4 241.05 163.05 241.0 160.7 234.6 158.35 241.0 156.0 241.05 153.6 241.0 151.25 234.6 148.9 241.0 146.55 241.05 144.2 241.0 141.85 234.6 139.45 241.0 137.15 241.05 134.75 241.0 132.4 234.6 130.05 241.0 127.7 241.05 125.35 241.0 123.0 234.6 120.6 241.0 118.25 241.05 115.9 241.0 113.55 234.6 111.2 241.0 108.85 241.05 106.5 241.0 104.15 234.6 101.75 241.0 99.4 241.05 97.05 241.0 94.7 234.6 92.35 241.0 90.0 241.05 87.6 241.0 85.25 234.6 82.9 241.0 80.55 241.05 78.2 241.0 75.85 234.6 73.45 234.65 71.05 228.15 M127.7 215.25 Q129.85 215.2 131.95 209.95 L132.4 208.8 Q130.05 208.8 127.7 202.35 125.35 208.75 123.0 208.8 L123.45 209.95 Q125.55 215.2 127.7 215.25 130.0 221.6 132.35 221.7 134.75 221.75 137.15 215.25 135.0 215.2 132.9 209.95 L132.4 208.8 Q134.75 208.75 137.15 202.35 139.5 208.8 141.85 208.8 L141.4 209.95 Q139.25 215.2 137.15 215.25 139.45 221.55 141.8 221.7 144.15 221.75 146.55 215.25 148.9 221.6 151.2 221.7 153.6 221.75 156.0 215.25 M123.0 208.8 Q120.6 208.8 118.25 202.35 115.9 208.75 113.55 208.8 L114.0 209.95 Q116.1 215.2 118.25 215.25 120.4 215.2 122.5 209.95 L123.0 208.8 M132.4 234.6 Q134.75 234.5 137.05 228.15 134.7 228.1 132.35 221.7 129.95 228.1 127.65 228.15 130.0 234.65 132.4 234.6 M127.7 215.25 Q125.3 221.75 122.9 221.7 125.25 228.1 127.65 228.15 122.9 241.0 118.2 228.15 113.5 241.0 108.8 228.15 104.05 241.0 99.35 228.15 97.0 234.5 94.7 234.6 92.3 234.65 89.9 228.15 85.2 241.0 80.5 228.15 78.15 234.5 75.85 234.6 M155.9 228.15 Q160.65 241.0 165.35 228.15 163.0 228.1 160.65 221.7 158.25 228.1 155.9 228.15 153.55 228.1 151.2 221.7 148.85 228.1 146.5 228.15 151.2 241.0 155.9 228.15 M141.8 221.7 Q139.4 228.1 137.05 228.15 141.75 241.0 146.5 228.15 144.15 228.1 141.8 221.7 M103.65 209.95 Q101.55 215.2 99.4 215.25 101.75 221.6 104.05 221.7 106.45 221.75 108.85 215.25 106.7 215.2 104.6 209.95 L104.15 208.8 103.65 209.95 M113.55 208.8 L113.1 209.95 Q110.95 215.2 108.85 215.25 111.15 221.55 113.5 221.7 115.85 221.75 118.25 215.25 120.55 221.55 122.9 221.7 120.55 228.1 118.2 228.15 115.85 228.1 113.5 221.7 111.1 228.1 108.8 228.15 106.4 228.1 104.05 221.7 101.7 228.1 99.35 228.15 97.0 228.1 94.65 221.7 92.25 228.1 89.9 228.15 87.55 228.1 85.2 221.7 82.85 228.1 80.5 228.15 78.15 228.1 75.8 221.7 73.45 221.6 71.15 215.25 M113.55 208.8 Q111.2 208.8 108.85 202.35 106.5 208.75 104.15 208.8 101.75 208.75 99.4 202.35 97.05 208.75 94.7 208.8 L95.15 209.95 Q97.25 215.2 99.4 215.25 97.0 221.75 94.65 221.7 92.3 221.6 90.0 215.25 87.6 221.75 85.2 221.7 82.9 221.6 80.55 215.25 78.15 221.75 75.8 221.7 M85.25 208.8 Q82.9 208.8 80.55 202.35 78.2 208.75 75.85 208.8 L76.3 209.95 Q78.4 215.2 80.55 215.25 82.7 215.2 84.8 209.95 L85.25 208.8 Q87.6 208.75 90.0 202.35 92.35 208.8 94.7 208.8 L94.25 209.95 Q92.1 215.2 90.0 215.25 87.85 215.2 85.75 209.95 L85.25 208.8 M103.95 260.4 Q101.55 266.8 99.2 266.85 101.55 273.25 103.95 273.3 106.3 273.25 108.65 266.85 106.3 266.8 103.95 260.4 101.55 260.35 99.2 253.95 96.85 260.4 94.5 260.4 96.85 266.8 99.2 266.85 96.85 273.25 94.5 273.3 96.4 278.4 98.25 279.45 L99.2 279.75 100.2 279.45 Q102.05 278.4 103.95 273.3 105.8 278.4 107.7 279.45 L108.65 279.75 109.6 279.45 Q111.45 278.4 113.35 273.3 111.0 273.3 108.65 266.85 111.0 266.8 113.35 260.4 111.0 260.35 108.65 253.95 106.3 260.35 103.95 260.4 M113.35 273.3 Q115.7 273.25 118.05 266.85 115.7 266.8 113.35 260.4 115.7 260.4 118.05 253.95 120.4 260.4 122.8 260.4 125.15 260.35 127.5 253.95 129.85 260.4 132.2 260.4 134.55 260.35 136.95 253.95 139.25 260.35 141.65 260.4 144.0 260.4 146.35 253.95 148.7 260.35 151.05 260.4 153.4 260.4 155.8 253.95 158.15 260.35 160.5 260.4 162.85 260.35 165.2 253.95 167.55 260.35 169.95 260.4 172.25 260.4 174.65 253.95 177.0 260.35 179.35 260.4 181.7 260.4 184.1 253.95 186.45 260.4 188.8 260.4 191.15 260.35 193.5 253.95 195.85 260.4 198.2 260.4 200.55 260.35 202.95 253.95 205.25 260.35 207.65 260.4 210.0 260.35 212.35 253.95 214.7 260.4 217.1 260.4 219.45 260.35 221.8 253.95 224.15 260.4 226.5 260.4 228.85 260.35 231.2 253.95 233.55 260.35 235.95 260.4 238.25 260.4 240.65 253.95 243.0 260.35 245.35 260.4 247.7 260.4 250.1 253.95 252.45 260.4 254.8 260.4 257.15 260.35 259.5 253.95 261.85 260.35 264.2 260.4 266.55 260.35 268.95 253.95 271.3 260.35 273.65 260.4 276.0 260.4 278.35 253.95 280.7 260.4 283.1 260.4 285.45 260.35 287.8 253.95 290.15 260.4 292.5 260.4 294.85 260.35 297.2 253.95 299.55 260.35 301.95 260.4 304.3 260.4 306.65 253.95 309.0 260.35 311.35 260.4 313.7 260.4 316.1 253.95 318.45 260.35 320.8 260.4 318.4 266.8 316.1 266.85 318.45 273.25 320.8 273.3 318.9 278.4 317.05 279.45 L316.1 279.75 315.1 279.45 Q313.25 278.4 311.35 273.3 309.45 278.4 307.6 279.45 L306.65 279.75 Q308.95 286.05 311.3 286.2 308.95 292.6 306.6 292.65 308.95 299.15 311.35 299.1 309.0 305.5 306.65 305.55 304.3 305.5 301.95 299.1 299.55 305.5 297.2 305.55 294.85 305.5 292.5 299.1 290.15 305.5 287.8 305.55 285.45 305.5 283.1 299.1 280.7 305.5 278.35 305.55 276.0 305.5 273.65 299.1 271.3 305.5 268.95 305.55 266.55 305.5 264.2 299.1 261.85 305.5 259.5 305.55 257.15 305.5 254.8 299.1 252.4 305.5 250.1 305.55 247.7 305.5 245.35 299.1 243.0 305.5 240.65 305.55 238.3 305.5 235.95 299.1 233.55 305.5 231.2 305.55 228.85 305.5 226.5 299.1 224.15 305.5 221.8 305.55 219.45 305.5 217.1 299.1 214.7 305.5 212.35 305.55 210.0 305.5 207.65 299.1 205.25 305.5 202.95 305.55 200.55 305.5 198.2 299.1 195.85 305.5 193.5 305.55 191.15 305.5 188.8 299.1 186.4 305.5 184.1 305.55 181.7 305.5 179.35 299.1 177.0 305.5 174.65 305.55 172.3 305.5 169.95 299.1 167.55 305.5 165.2 305.55 162.85 305.5 160.5 299.1 158.15 305.5 155.8 305.55 153.4 305.5 151.05 299.1 148.7 305.5 146.35 305.55 144.0 305.5 141.65 299.1 139.25 305.5 136.95 305.55 134.55 305.5 132.2 299.1 129.85 305.5 127.5 305.55 125.15 305.5 122.8 299.1 120.4 305.5 118.05 305.55 115.7 305.5 113.35 299.1 111.0 305.5 108.65 305.55 106.3 305.5 103.95 299.1 101.55 305.5 99.2 305.55 96.85 305.5 94.5 299.1 92.15 305.5 89.8 305.55 87.4 305.5 85.05 299.1 82.7 305.5 80.35 305.55 78.0 305.5 75.65 299.1 73.25 299.15 70.85 292.65 M85.05 260.4 Q82.7 266.8 80.35 266.85 82.7 273.3 85.05 273.3 87.4 273.25 89.8 266.85 87.4 266.8 85.05 260.4 82.7 260.35 80.35 253.95 78.0 260.4 75.6 260.4 78.0 266.8 80.35 266.85 78.0 273.25 75.65 273.3 77.5 278.4 79.4 279.45 L80.35 279.75 81.3 279.45 Q83.15 278.4 85.05 273.3 86.95 278.4 88.8 279.45 L89.8 279.75 90.75 279.45 Q92.6 278.4 94.5 273.3 92.15 273.3 89.8 266.85 92.15 266.8 94.5 260.4 92.15 260.35 89.8 253.95 87.4 260.4 85.05 260.4 M85.0 286.2 Q82.65 292.6 80.3 292.65 85.0 305.5 89.7 292.65 87.35 292.6 85.0 286.2 82.7 286.1 80.35 279.75 77.95 286.25 75.6 286.2 77.95 292.6 80.3 292.65 77.95 299.0 75.65 299.1 M94.45 286.2 Q92.05 292.6 89.7 292.65 92.1 299.15 94.5 299.1 96.8 299.0 99.15 292.65 96.8 292.6 94.45 286.2 92.1 286.1 89.8 279.75 87.4 286.25 85.0 286.2 M99.15 292.65 Q101.5 292.6 103.85 286.2 101.55 286.1 99.2 279.75 96.8 286.25 94.45 286.2 M113.35 273.3 Q115.25 278.4 117.1 279.45 L118.05 279.75 119.05 279.45 Q120.9 278.4 122.8 273.3 120.4 273.3 118.05 266.85 120.4 266.8 122.8 260.4 125.15 266.8 127.5 266.85 129.85 266.8 132.2 260.4 134.55 266.8 136.95 266.85 139.25 266.8 141.65 260.4 144.0 266.8 146.35 266.85 148.7 266.8 151.05 260.4 153.4 266.8 155.8 266.85 158.15 266.8 160.5 260.4 162.85 266.8 165.2 266.85 167.55 266.8 169.95 260.4 172.3 266.8 174.65 266.85 177.0 266.8 179.35 260.4 181.7 266.8 184.1 266.85 186.4 266.8 188.8 260.4 191.15 266.8 193.5 266.85 195.85 266.8 198.2 260.4 200.55 266.8 202.95 266.85 205.25 266.8 207.65 260.4 210.0 266.8 212.35 266.85 214.7 266.8 217.1 260.4 219.45 266.8 221.8 266.85 224.15 266.8 226.5 260.4 228.85 266.8 231.2 266.85 233.55 266.8 235.95 260.4 238.3 266.8 240.65 266.85 243.0 266.8 245.35 260.4 247.7 266.8 250.1 266.85 252.4 266.8 254.8 260.4 257.15 266.8 259.5 266.85 261.85 266.8 264.2 260.4 266.55 266.8 268.95 266.85 271.3 266.8 273.65 260.4 276.0 266.8 278.35 266.85 280.7 266.8 283.1 260.4 285.45 266.8 287.8 266.85 290.15 266.8 292.5 260.4 294.85 266.8 297.2 266.85 299.55 266.8 301.95 260.4 304.3 266.8 306.65 266.85 309.0 266.8 311.35 260.4 313.7 266.8 316.1 266.85 313.7 273.25 311.35 273.3 309.0 273.3 306.65 266.85 304.3 273.3 301.95 273.3 303.8 278.4 305.7 279.45 306.15 279.7 306.65 279.75 304.25 286.25 301.85 286.2 304.2 292.6 306.6 292.65 301.85 305.5 297.15 292.65 292.45 305.5 287.75 292.65 283.0 305.5 278.3 292.65 273.55 305.5 268.85 292.65 264.15 305.5 259.45 292.65 254.7 305.5 250.0 292.65 247.7 299.0 245.35 299.1 242.95 299.15 240.6 292.65 235.85 305.5 231.15 292.65 226.45 305.5 221.75 292.65 217.0 305.5 212.3 292.65 207.55 305.5 202.85 292.65 198.15 305.5 193.45 292.65 191.1 299.0 188.8 299.1 186.4 299.15 184.0 292.65 179.3 305.5 174.6 292.65 169.85 305.5 165.15 292.65 160.45 305.5 155.7 292.65 151.0 305.5 146.3 292.65 141.55 305.5 136.85 292.65 134.55 299.0 132.2 299.1 129.8 299.15 127.45 292.65 122.7 305.5 118.0 292.65 113.3 305.5 108.6 292.65 103.85 305.5 99.15 292.65 M108.6 292.65 Q110.9 292.6 113.3 286.2 110.95 286.05 108.65 279.75 106.25 286.25 103.85 286.2 106.2 292.6 108.6 292.65 M118.0 292.65 Q120.35 292.6 122.7 286.2 120.35 286.05 118.05 279.75 115.65 286.25 113.3 286.2 115.65 292.6 118.0 292.65 M136.95 279.75 L137.9 279.45 Q139.75 278.4 141.65 273.3 139.3 273.3 136.95 266.85 134.55 273.25 132.2 273.3 134.1 278.4 135.95 279.45 L136.95 279.75 Q139.25 286.05 141.6 286.2 143.95 286.25 146.35 279.75 L145.4 279.45 Q143.5 278.4 141.65 273.3 144.0 273.25 146.35 266.85 148.7 273.3 151.05 273.3 153.4 273.25 155.8 266.85 158.15 273.25 160.5 273.3 162.85 273.25 165.2 266.85 167.55 273.25 169.95 273.3 172.25 273.3 174.65 266.85 177.0 273.25 179.35 273.3 181.7 273.3 184.1 266.85 186.4 273.25 188.8 273.3 191.15 273.3 193.5 266.85 195.85 273.25 198.2 273.3 200.55 273.3 202.95 266.85 205.25 273.25 207.65 273.3 210.0 273.25 212.35 266.85 214.7 273.3 217.1 273.3 219.45 273.25 221.8 266.85 224.15 273.3 226.5 273.3 228.85 273.25 231.2 266.85 233.55 273.25 235.95 273.3 238.25 273.3 240.65 266.85 243.0 273.3 245.35 273.3 247.7 273.25 250.1 266.85 252.4 273.25 254.8 273.3 257.15 273.3 259.5 266.85 261.85 273.25 264.2 273.3 266.55 273.25 268.95 266.85 271.3 273.25 273.65 273.3 276.0 273.3 278.35 266.85 280.7 273.25 283.1 273.3 285.4 273.3 287.8 266.85 290.15 273.3 292.5 273.3 294.85 273.25 297.2 266.85 299.55 273.25 301.95 273.3 300.05 278.4 298.2 279.45 L297.2 279.75 Q299.55 286.1 301.85 286.2 299.5 292.6 297.15 292.65 294.8 292.6 292.45 286.2 290.05 292.6 287.75 292.65 285.35 292.6 283.0 286.2 280.65 292.6 278.3 292.65 275.95 292.6 273.6 286.2 271.2 292.6 268.85 292.65 266.5 292.6 264.15 286.2 261.8 292.6 259.45 292.65 257.1 292.6 254.75 286.2 252.35 292.6 250.0 292.65 247.65 292.6 245.3 286.2 242.9 292.6 240.6 292.65 238.2 292.6 235.85 286.2 233.5 292.6 231.15 292.65 228.8 292.6 226.45 286.2 224.05 292.6 221.75 292.65 219.35 292.6 217.0 286.2 214.65 292.6 212.3 292.65 209.95 292.6 207.6 286.2 205.2 292.6 202.85 292.65 200.5 292.6 198.15 286.2 195.8 292.6 193.45 292.65 191.05 292.6 188.7 286.2 186.35 292.6 184.0 292.65 181.65 292.6 179.3 286.2 176.9 292.6 174.6 292.65 172.2 292.6 169.85 286.2 167.5 292.6 165.15 292.65 162.8 292.6 160.45 286.2 158.05 292.6 155.7 292.65 153.35 292.6 151.0 286.2 148.65 292.6 146.3 292.65 143.95 292.6 141.6 286.2 139.2 292.6 136.85 292.65 134.5 292.6 132.15 286.2 129.8 292.6 127.45 292.65 125.05 292.6 122.7 286.2 125.1 286.25 127.5 279.75 L126.55 279.45 Q124.65 278.4 122.8 273.3 125.15 273.25 127.5 266.85 129.85 273.3 132.2 273.3 130.3 278.4 128.45 279.45 L127.5 279.75 Q129.85 286.1 132.15 286.2 134.55 286.25 136.95 279.75 M151.05 273.3 Q152.95 278.4 154.85 279.45 L155.8 279.75 156.75 279.45 Q158.6 278.4 160.5 273.3 162.4 278.4 164.25 279.45 L165.2 279.75 166.2 279.45 Q168.05 278.4 169.95 273.3 171.8 278.4 173.7 279.45 L174.65 279.75 175.6 279.45 Q177.45 278.4 179.35 273.3 181.25 278.4 183.1 279.45 L184.1 279.75 185.05 279.45 Q186.9 278.4 188.8 273.3 190.65 278.4 192.55 279.45 L193.5 279.75 194.45 279.45 Q196.3 278.4 198.2 273.3 200.1 278.4 201.95 279.45 L202.95 279.75 203.9 279.45 Q205.75 278.4 207.65 273.3 209.5 278.4 211.4 279.45 L212.35 279.75 213.35 279.45 Q215.2 278.4 217.1 273.3 218.95 278.4 220.85 279.45 L221.8 279.75 222.75 279.45 Q224.6 278.4 226.5 273.3 228.4 278.4 230.25 279.45 L231.2 279.75 232.2 279.45 Q234.05 278.4 235.95 273.3 237.8 278.4 239.7 279.45 L240.65 279.75 241.6 279.45 Q243.45 278.4 245.35 273.3 247.25 278.4 249.1 279.45 L250.1 279.75 251.05 279.45 Q252.9 278.4 254.8 273.3 256.65 278.4 258.55 279.45 L259.5 279.75 260.45 279.45 Q262.3 278.4 264.2 273.3 266.1 278.4 267.95 279.45 L268.95 279.75 269.9 279.45 Q271.75 278.4 273.65 273.3 275.55 278.4 277.4 279.45 L278.35 279.75 279.35 279.45 Q281.2 278.4 283.1 273.3 284.95 278.4 286.85 279.45 L287.8 279.75 288.75 279.45 Q290.6 278.4 292.5 273.3 294.4 278.4 296.25 279.45 L297.2 279.75 Q294.8 286.25 292.45 286.2 290.1 286.1 287.8 279.75 285.4 286.25 283.0 286.2 280.7 286.1 278.35 279.75 275.95 286.25 273.6 286.2 271.25 286.1 268.95 279.75 266.55 286.25 264.15 286.2 261.8 286.05 259.5 279.75 257.1 286.25 254.75 286.2 252.4 286.1 250.1 279.75 247.65 286.25 245.3 286.2 242.95 286.05 240.65 279.75 238.25 286.25 235.85 286.2 233.5 286.05 231.2 279.75 228.8 286.25 226.45 286.2 224.1 286.05 221.8 279.75 219.4 286.25 217.0 286.2 214.65 286.05 212.35 279.75 209.95 286.25 207.6 286.2 205.25 286.05 202.95 279.75 200.55 286.25 198.15 286.2 195.8 286.05 193.5 279.75 191.1 286.25 188.7 286.2 186.4 286.05 184.1 279.75 181.65 286.25 179.3 286.2 176.95 286.05 174.65 279.75 172.25 286.25 169.85 286.2 167.55 286.1 165.2 279.75 162.8 286.25 160.45 286.2 158.1 286.1 155.8 279.75 153.4 286.25 151.0 286.2 148.7 286.1 146.35 279.75 L147.3 279.45 Q149.15 278.4 151.05 273.3 M71.15 202.35 Q73.5 208.8 75.85 208.8 M70.95 253.95 Q73.25 260.35 75.6 260.4 M70.95 279.75 Q73.25 286.1 75.6 286.2 M75.65 273.3 Q73.3 273.3 70.95 266.85 M71.15 241.05 Q73.4 247.2 75.65 247.45 M70.95 305.55 Q73.2 311.7 75.45 311.95 M70.75 318.45 Q73.15 325.1 75.6 324.85 77.9 324.6 80.15 318.45 82.6 325.15 85.05 324.85 87.3 324.6 89.6 318.45 92.05 325.1 94.5 324.85 96.75 324.6 99.0 318.45 101.45 325.15 103.95 324.85 106.2 324.6 108.45 318.45 110.9 325.1 113.35 324.85 115.6 324.6 117.85 318.45 120.3 325.1 122.8 324.85 125.05 324.6 127.3 318.45 129.75 325.15 132.2 324.85 134.45 324.6 136.75 318.45 139.15 325.1 141.65 324.85 143.9 324.6 146.15 318.45 148.6 325.15 151.05 324.85 153.3 324.6 155.6 318.45 158.05 325.15 160.5 324.85 162.75 324.6 165.0 318.45 167.45 325.1 169.95 324.85 172.15 324.6 174.45 318.45 176.9 325.1 179.35 324.85 181.6 324.6 183.9 318.45 186.3 325.1 188.8 324.85 191.05 324.6 193.3 318.45 195.75 325.15 198.2 324.85 200.45 324.6 202.75 318.45 205.15 325.1 207.65 324.85 209.9 324.6 212.15 318.45 214.6 325.15 217.1 324.85 219.35 324.6 221.6 318.45 224.05 325.15 226.5 324.85 228.75 324.6 231.0 318.45 233.45 325.1 235.95 324.85 238.2 324.6 240.45 318.45 242.9 325.15 245.35 324.85 247.6 324.6 249.9 318.45 252.35 325.15 254.8 324.85 257.05 324.6 259.3 318.45 261.75 325.1 264.2 324.85 266.45 324.6 268.75 318.45 271.2 325.1 273.65 324.85 275.9 324.6 278.15 318.45 280.6 325.1 283.1 324.85 285.3 324.6 287.6 318.45 290.05 325.15 292.5 324.85 294.75 324.6 297.0 318.45 299.45 325.1 301.95 324.85 304.2 324.6 306.45 318.45 308.9 325.15 311.35 324.85 313.6 324.6 315.9 318.45 318.35 325.15 320.8 324.85 318.4 331.25 316.1 331.3 318.45 337.7 320.8 337.75 323.15 337.7 325.5 331.3 M70.95 331.3 Q73.3 337.75 75.65 337.75 78.0 337.7 80.35 331.3 78.0 331.25 75.6 324.85 M70.95 344.2 Q73.25 350.55 75.6 350.65 77.95 350.7 80.35 344.2 78.0 344.15 75.65 337.75 M75.65 363.55 Q77.95 363.45 80.3 357.1 77.95 357.05 75.6 350.65 M70.75 382.9 Q73.05 389.3 75.4 389.35 77.8 389.35 80.15 382.9 82.5 389.35 84.85 389.35 87.2 389.3 89.6 382.9 91.95 389.35 94.3 389.35 96.65 389.3 99.0 382.9 101.35 389.3 103.75 389.35 106.1 389.3 108.45 382.9 110.8 389.3 113.15 389.35 115.5 389.35 117.85 382.9 120.2 389.3 122.6 389.35 124.95 389.35 127.3 382.9 129.65 389.35 132.0 389.35 134.35 389.3 136.75 382.9 139.1 389.35 141.45 389.35 143.8 389.3 146.15 382.9 148.5 389.35 150.9 389.35 153.25 389.3 155.6 382.9 157.95 389.3 160.3 389.35 162.65 389.3 165.0 382.9 167.35 389.35 169.75 389.35 172.1 389.3 174.45 382.9 176.8 389.3 179.15 389.35 181.5 389.35 183.9 382.9 186.25 389.35 188.6 389.35 190.95 389.3 193.3 382.9 195.65 389.35 198.0 389.35 200.35 389.3 202.75 382.9 205.05 389.3 207.45 389.35 209.8 389.3 212.15 382.9 214.5 389.3 216.9 389.35 219.2 389.35 221.6 382.9 223.95 389.35 226.3 389.35 228.65 389.3 231.0 382.9 233.35 389.3 235.75 389.35 238.1 389.35 240.45 382.9 242.8 389.35 245.15 389.35 247.5 389.3 249.9 382.9 252.25 389.35 254.6 389.35 256.95 389.3 259.3 382.9 261.65 389.3 264.0 389.35 266.35 389.3 268.75 382.9 271.1 389.35 273.45 389.35 275.8 389.3 278.15 382.9 280.5 389.35 282.9 389.35 285.25 389.3 287.6 382.9 289.95 389.35 292.3 389.35 294.65 389.3 297.0 382.9 299.35 389.35 301.75 389.35 304.1 389.3 306.45 382.9 308.8 389.35 311.15 389.35 313.5 389.3 315.9 382.9 318.25 389.3 320.6 389.35 318.2 395.7 315.9 395.75 318.25 402.15 320.6 402.2 322.95 402.15 325.3 395.75 327.65 402.15 330.05 402.2 332.35 402.2 334.75 395.75 337.1 402.15 339.45 402.2 341.8 402.15 344.15 395.7 M70.95 370.0 Q73.2 376.15 75.45 376.4 M122.8 337.75 Q125.15 344.15 127.5 344.2 129.85 344.15 132.2 337.75 129.85 337.75 127.5 331.3 125.15 337.7 122.8 337.75 120.4 344.15 118.05 344.2 120.35 350.5 122.7 350.65 125.1 350.7 127.5 344.2 129.85 350.55 132.15 350.65 134.55 350.7 136.95 344.2 134.55 344.15 132.2 337.75 134.55 337.7 136.95 331.3 134.55 331.25 132.2 324.85 129.85 331.25 127.5 331.3 125.15 331.25 122.8 324.85 120.4 331.25 118.05 331.3 120.4 337.75 122.8 337.75 M141.65 337.75 Q144.0 337.7 146.35 331.3 144.0 331.25 141.65 324.85 139.25 331.25 136.95 331.3 139.3 337.75 141.65 337.75 144.0 344.15 146.35 344.2 148.7 344.15 151.05 337.75 148.7 337.75 146.35 331.3 148.7 331.25 151.05 324.85 153.4 331.25 155.8 331.3 158.15 331.25 160.5 324.85 162.85 331.25 165.2 331.3 167.55 331.25 169.95 324.85 172.3 331.25 174.65 331.3 177.0 331.25 179.35 324.85 181.7 331.25 184.1 331.3 186.4 331.25 188.8 324.85 191.15 331.25 193.5 331.3 195.85 331.25 198.2 324.85 200.55 331.25 202.95 331.3 205.25 331.25 207.65 324.85 210.0 331.25 212.35 331.3 214.7 331.25 217.1 324.85 219.45 331.25 221.8 331.3 224.15 331.25 226.5 324.85 228.85 331.25 231.2 331.3 233.55 331.25 235.95 324.85 238.3 331.25 240.65 331.3 243.0 331.25 245.35 324.85 247.7 331.25 250.1 331.3 252.4 331.25 254.8 324.85 257.15 331.25 259.5 331.3 261.85 331.25 264.2 324.85 266.55 331.25 268.95 331.3 271.3 331.25 273.65 324.85 276.0 331.25 278.35 331.3 280.7 331.25 283.1 324.85 285.45 331.25 287.8 331.3 290.15 331.25 292.5 324.85 294.85 331.25 297.2 331.3 299.55 331.25 301.95 324.85 304.3 331.25 306.65 331.3 309.0 331.25 311.35 324.85 313.7 331.25 316.1 331.3 313.7 337.7 311.35 337.75 313.7 344.15 316.1 344.2 318.4 344.15 320.8 337.75 323.15 344.15 325.5 344.2 323.1 350.7 320.75 350.65 318.4 350.55 316.1 344.2 313.7 350.7 311.3 350.65 313.65 357.05 316.0 357.1 313.7 363.45 311.35 363.55 308.95 363.6 306.6 357.1 301.85 369.95 297.15 357.1 292.45 369.95 287.75 357.1 283.0 369.95 278.3 357.1 273.55 369.95 268.85 357.1 264.15 369.95 259.45 357.1 254.7 369.95 250.0 357.1 247.7 363.45 245.35 363.55 242.95 363.6 240.6 357.1 235.85 369.95 231.15 357.1 226.45 369.95 221.75 357.1 217.0 369.95 212.3 357.1 207.55 369.95 202.85 357.1 198.15 369.95 193.45 357.1 191.1 363.45 188.8 363.55 186.4 363.6 184.0 357.1 179.3 369.95 174.6 357.1 169.85 369.95 165.15 357.1 160.45 369.95 155.7 357.1 151.0 369.95 146.3 357.1 141.55 369.95 136.85 357.1 134.55 363.45 132.2 363.55 129.8 363.6 127.45 357.1 122.7 369.95 118.0 357.1 113.3 369.95 108.6 357.1 103.85 369.95 99.15 357.1 96.8 363.45 94.5 363.55 92.1 363.6 89.7 357.1 85.0 369.95 80.3 357.1 82.65 357.05 85.0 350.65 82.7 350.55 80.35 344.2 82.7 344.15 85.05 337.75 82.7 337.75 80.35 331.3 82.7 331.25 85.05 324.85 87.45 331.25 89.8 331.3 92.15 331.25 94.5 324.85 96.85 331.25 99.2 331.3 101.55 331.25 103.95 324.85 106.3 331.25 108.65 331.3 111.0 331.25 113.35 324.85 115.7 331.25 118.05 331.3 115.7 337.7 113.35 337.75 115.7 344.15 118.05 344.2 115.65 350.7 113.3 350.65 115.65 357.05 118.0 357.1 120.35 357.05 122.7 350.65 125.05 357.05 127.45 357.1 129.8 357.05 132.15 350.65 134.5 357.05 136.85 357.1 139.2 357.05 141.6 350.65 139.25 350.5 136.95 344.2 139.25 344.15 141.65 337.75 M155.8 331.3 Q158.15 337.7 160.5 337.75 162.85 337.7 165.2 331.3 167.55 337.7 169.95 337.75 172.25 337.75 174.65 331.3 177.0 337.7 179.35 337.75 181.7 337.75 184.1 331.3 186.4 337.7 188.8 337.75 191.15 337.75 193.5 331.3 195.85 337.7 198.2 337.75 200.55 337.75 202.95 331.3 205.25 337.7 207.65 337.75 210.0 337.7 212.35 331.3 214.7 337.75 217.1 337.75 219.45 337.7 221.8 331.3 224.15 337.75 226.5 337.75 228.85 337.7 231.2 331.3 233.55 337.7 235.95 337.75 238.25 337.75 240.65 331.3 243.0 337.75 245.35 337.75 247.7 337.7 250.1 331.3 252.4 337.7 254.8 337.75 257.15 337.75 259.5 331.3 261.85 337.7 264.2 337.75 266.55 337.7 268.95 331.3 271.3 337.7 273.65 337.75 276.0 337.75 278.35 331.3 280.7 337.7 283.1 337.75 285.4 337.75 287.8 331.3 290.15 337.75 292.5 337.75 294.85 337.7 297.2 331.3 299.55 337.7 301.95 337.75 304.3 337.75 306.65 331.3 309.0 337.75 311.35 337.75 309.0 344.15 306.65 344.2 308.95 350.5 311.3 350.65 308.95 357.05 306.6 357.1 304.2 357.05 301.85 350.65 299.5 357.05 297.15 357.1 294.8 357.05 292.45 350.65 290.05 357.05 287.75 357.1 285.35 357.05 283.0 350.65 280.65 357.05 278.3 357.1 275.95 357.05 273.6 350.65 271.2 357.05 268.85 357.1 266.5 357.05 264.15 350.65 261.8 357.05 259.45 357.1 257.1 357.05 254.75 350.65 252.35 357.05 250.0 357.1 247.65 357.05 245.3 350.65 242.9 357.05 240.6 357.1 238.2 357.05 235.85 350.65 233.5 357.05 231.15 357.1 228.8 357.05 226.45 350.65 224.05 357.05 221.75 357.1 219.35 357.05 217.0 350.65 214.65 357.05 212.3 357.1 209.95 357.05 207.6 350.65 205.2 357.05 202.85 357.1 200.5 357.05 198.15 350.65 195.8 357.05 193.45 357.1 191.05 357.05 188.7 350.65 186.35 357.05 184.0 357.1 181.65 357.05 179.3 350.65 176.9 357.05 174.6 357.1 172.2 357.05 169.85 350.65 167.5 357.05 165.15 357.1 162.8 357.05 160.45 350.65 158.05 357.05 155.7 357.1 153.35 357.05 151.0 350.65 148.65 357.05 146.3 357.1 143.95 357.05 141.6 350.65 143.95 350.7 146.35 344.2 148.7 350.55 151.0 350.65 153.4 350.7 155.8 344.2 153.4 344.15 151.05 337.75 153.4 337.7 155.8 331.3 M85.05 337.75 Q87.4 337.7 89.8 331.3 92.15 337.75 94.5 337.75 96.85 337.7 99.2 331.3 101.55 337.7 103.95 337.75 106.3 337.7 108.65 331.3 111.0 337.75 113.35 337.75 111.0 344.15 108.65 344.2 110.95 350.5 113.3 350.65 110.9 357.05 108.6 357.1 106.2 357.05 103.85 350.65 101.5 357.05 99.15 357.1 96.8 357.05 94.45 350.65 92.05 357.05 89.7 357.1 87.35 357.05 85.0 350.65 87.4 350.7 89.8 344.2 87.4 344.15 85.05 337.75 M108.65 344.2 Q106.25 350.7 103.85 350.65 101.55 350.55 99.2 344.2 96.8 350.7 94.45 350.65 92.1 350.55 89.8 344.2 92.15 344.15 94.5 337.75 96.85 344.15 99.2 344.2 101.55 344.15 103.95 337.75 106.3 344.15 108.65 344.2 M160.45 350.65 Q158.1 350.55 155.8 344.2 158.15 344.15 160.5 337.75 162.85 344.15 165.2 344.2 167.55 344.15 169.95 337.75 172.3 344.15 174.65 344.2 177.0 344.15 179.35 337.75 181.7 344.15 184.1 344.2 186.4 344.15 188.8 337.75 191.15 344.15 193.5 344.2 195.85 344.15 198.2 337.75 200.55 344.15 202.95 344.2 205.25 344.15 207.65 337.75 210.0 344.15 212.35 344.2 214.7 344.15 217.1 337.75 219.45 344.15 221.8 344.2 224.15 344.15 226.5 337.75 228.85 344.15 231.2 344.2 233.55 344.15 235.95 337.75 238.3 344.15 240.65 344.2 243.0 344.15 245.35 337.75 247.7 344.15 250.1 344.2 252.4 344.15 254.8 337.75 257.15 344.15 259.5 344.2 261.85 344.15 264.2 337.75 266.55 344.15 268.95 344.2 271.3 344.15 273.65 337.75 276.0 344.15 278.35 344.2 280.7 344.15 283.1 337.75 285.45 344.15 287.8 344.2 290.15 344.15 292.5 337.75 294.85 344.15 297.2 344.2 299.55 344.15 301.95 337.75 304.3 344.15 306.65 344.2 304.25 350.7 301.85 350.65 299.55 350.55 297.2 344.2 294.8 350.7 292.45 350.65 290.1 350.55 287.8 344.2 285.4 350.7 283.0 350.65 280.7 350.55 278.35 344.2 275.95 350.7 273.6 350.65 271.25 350.55 268.95 344.2 266.55 350.7 264.15 350.65 261.8 350.5 259.5 344.2 257.1 350.7 254.75 350.65 252.4 350.55 250.1 344.2 247.65 350.7 245.3 350.65 242.95 350.5 240.65 344.2 238.25 350.7 235.85 350.65 233.5 350.5 231.2 344.2 228.8 350.7 226.45 350.65 224.1 350.5 221.8 344.2 219.4 350.7 217.0 350.65 214.65 350.5 212.35 344.2 209.95 350.7 207.6 350.65 205.25 350.5 202.95 344.2 200.55 350.7 198.15 350.65 195.8 350.5 193.5 344.2 191.1 350.7 188.7 350.65 186.4 350.5 184.1 344.2 181.65 350.7 179.3 350.65 176.95 350.5 174.65 344.2 172.25 350.7 169.85 350.65 167.55 350.55 165.2 344.2 162.8 350.7 160.45 350.65 M302.15 208.8 L302.6 209.95 Q304.7 215.2 306.85 215.25 309.0 215.2 311.1 209.95 L311.55 208.8 312.05 209.95 Q314.15 215.2 316.3 215.25 313.85 221.75 311.5 221.7 309.15 221.55 306.85 215.25 304.45 221.75 302.05 221.7 304.4 228.1 306.8 228.15 302.05 241.0 297.35 228.15 292.65 241.0 287.95 228.15 283.2 241.0 278.5 228.15 273.75 241.0 269.05 228.15 264.35 241.0 259.65 228.15 254.9 241.0 250.2 228.15 247.9 234.5 245.55 234.6 243.15 234.65 240.8 228.15 236.05 241.0 231.35 228.15 226.6 241.0 221.9 228.15 217.2 241.0 212.5 228.15 207.75 241.0 203.05 228.15 198.35 241.0 193.65 228.15 191.3 234.5 189.0 234.6 186.6 234.65 184.2 228.15 179.5 241.0 174.8 228.15 170.05 241.0 165.35 228.15 167.7 228.1 170.05 221.7 167.75 221.6 165.4 215.25 167.55 215.2 169.65 209.95 L170.15 208.8 170.6 209.95 Q172.7 215.2 174.85 215.25 176.95 215.2 179.1 209.95 L179.55 208.8 180.05 209.95 Q182.15 215.2 184.3 215.25 186.4 215.2 188.5 209.95 L189.0 208.8 189.45 209.95 Q191.55 215.2 193.7 215.25 195.85 215.2 197.95 209.95 L198.4 208.8 198.9 209.95 Q201.0 215.2 203.15 215.25 205.25 215.2 207.4 209.95 L207.85 208.8 208.3 209.95 Q210.4 215.2 212.55 215.25 214.7 215.2 216.8 209.95 L217.3 208.8 217.75 209.95 Q219.85 215.2 222.0 215.25 224.1 215.2 226.25 209.95 L226.7 208.8 227.15 209.95 Q229.25 215.2 231.4 215.25 233.55 215.2 235.65 209.95 L236.15 208.8 236.6 209.95 Q238.7 215.2 240.85 215.25 242.95 215.2 245.1 209.95 L245.55 208.8 246.05 209.95 Q248.15 215.2 250.3 215.25 252.4 215.2 254.55 209.95 L255.0 208.8 255.45 209.95 Q257.55 215.2 259.7 215.25 261.85 215.2 263.95 209.95 L264.4 208.8 264.9 209.95 Q267.0 215.2 269.15 215.25 271.25 215.2 273.4 209.95 L273.85 208.8 274.3 209.95 Q276.4 215.2 278.55 215.25 280.7 215.2 282.8 209.95 L283.3 208.8 283.75 209.95 Q285.85 215.2 288.0 215.25 290.1 215.2 292.25 209.95 L292.7 208.8 293.15 209.95 Q295.25 215.2 297.4 215.25 299.55 215.2 301.65 209.95 L302.15 208.8 M292.65 221.7 Q290.3 221.6 288.0 215.25 285.6 221.75 283.2 221.7 285.55 228.1 287.95 228.15 290.25 228.1 292.65 221.7 295.0 221.75 297.4 215.25 299.75 221.6 302.05 221.7 299.7 228.1 297.35 228.15 295.0 228.1 292.65 221.7 M250.2 228.15 Q252.55 228.1 254.95 221.7 252.6 221.6 250.3 215.25 247.85 221.75 245.5 221.7 247.85 228.1 250.2 228.15 M259.65 228.15 Q262.0 228.1 264.35 221.7 262.0 221.55 259.7 215.25 257.3 221.75 254.95 221.7 257.3 228.1 259.65 228.15 M278.5 228.15 Q280.85 228.1 283.2 221.7 280.9 221.6 278.55 215.25 276.15 221.75 273.8 221.7 276.15 228.1 278.5 228.15 M269.05 228.15 Q271.4 228.1 273.8 221.7 271.45 221.6 269.15 215.25 266.75 221.75 264.35 221.7 266.7 228.1 269.05 228.15 M221.9 228.15 Q224.25 228.1 226.65 221.7 224.3 221.55 222.0 215.25 219.6 221.75 217.2 221.7 219.55 228.1 221.9 228.15 M212.5 228.15 Q214.85 228.1 217.2 221.7 214.85 221.55 212.55 215.25 210.15 221.75 207.8 221.7 210.15 228.1 212.5 228.15 M207.8 221.7 Q205.45 221.55 203.15 215.25 200.75 221.75 198.35 221.7 200.7 228.1 203.05 228.15 205.4 228.1 207.8 221.7 M231.35 228.15 Q229.0 228.1 226.65 221.7 229.0 221.75 231.4 215.25 233.7 221.55 236.05 221.7 238.45 221.75 240.85 215.25 243.15 221.55 245.5 221.7 243.1 228.1 240.8 228.15 238.4 228.1 236.05 221.7 233.7 228.1 231.35 228.15 M184.2 228.15 Q181.85 228.1 179.5 221.7 177.1 228.1 174.8 228.15 172.4 228.1 170.05 221.7 172.45 221.75 174.85 215.25 177.15 221.55 179.5 221.7 181.85 221.75 184.3 215.25 186.6 221.55 188.9 221.7 191.3 221.75 193.7 215.25 196.0 221.55 198.35 221.7 196.0 228.1 193.65 228.15 191.25 228.1 188.9 221.7 186.55 228.1 184.2 228.15 M75.8 195.85 Q73.45 195.8 71.15 189.4 M311.15 402.2 Q313.5 402.15 315.9 395.75 313.5 395.7 311.15 389.35 308.8 395.7 306.45 395.75 308.8 402.2 311.15 402.2 313.5 408.6 315.9 408.65 318.2 408.6 320.6 402.2 322.95 408.6 325.3 408.65 327.65 408.6 330.05 402.2 332.4 408.6 334.75 408.65 337.1 408.6 339.45 402.2 M306.45 408.65 Q304.05 415.15 301.65 415.1 304.0 421.5 306.4 421.55 308.75 421.5 311.1 415.1 308.75 414.95 306.45 408.65 304.1 408.6 301.75 402.2 299.35 408.6 297.0 408.65 299.35 415.0 301.65 415.1 299.3 421.5 296.95 421.55 301.65 434.4 306.4 421.55 308.75 428.05 311.15 428.0 313.5 427.9 315.8 421.55 313.45 421.5 311.1 415.1 313.5 415.15 315.9 408.65 318.2 415.0 320.55 415.1 322.9 415.15 325.3 408.65 327.65 415.0 329.95 415.1 332.35 415.15 334.75 408.65 337.05 414.95 339.4 415.1 341.75 415.15 344.15 408.6 M311.15 402.2 Q308.8 408.6 306.45 408.65 M301.75 402.2 Q304.1 402.2 306.45 395.75 304.1 395.7 301.75 389.35 299.35 395.7 297.0 395.75 299.35 402.15 301.75 402.2 M292.3 402.2 Q294.65 402.15 297.0 395.75 294.65 395.7 292.3 389.35 289.95 395.7 287.6 395.75 289.95 402.2 292.3 402.2 294.65 408.6 297.0 408.65 294.6 415.15 292.25 415.1 294.6 421.5 296.95 421.55 292.25 434.4 287.55 421.55 282.8 434.4 278.1 421.55 273.35 434.4 268.65 421.55 263.95 434.4 259.25 421.55 254.5 434.4 249.8 421.55 247.5 427.9 245.15 428.0 247.5 434.4 249.9 434.45 252.2 434.4 254.6 428.0 256.95 434.4 259.3 434.45 261.65 434.4 264.0 428.0 266.35 434.4 268.75 434.45 271.1 434.4 273.45 428.0 275.8 434.4 278.15 434.45 280.5 434.4 282.9 428.0 285.25 434.4 287.6 434.45 289.95 434.4 292.3 428.0 294.65 434.4 297.0 434.45 299.35 434.4 301.75 428.0 304.1 434.4 306.45 434.45 308.8 434.4 311.15 428.0 313.5 434.4 315.9 434.45 318.2 434.4 320.6 428.0 322.95 434.4 325.3 434.45 327.65 434.4 330.05 428.0 332.4 434.4 334.75 434.45 337.1 434.4 339.45 428.0 337.05 428.05 334.65 421.55 329.95 434.4 325.25 421.55 320.5 434.4 315.8 421.55 318.15 421.5 320.55 415.1 322.9 421.5 325.25 421.55 327.6 421.5 329.95 415.1 332.3 421.5 334.65 421.55 337.0 421.5 339.4 415.1 M292.3 402.2 Q289.95 408.6 287.6 408.65 289.9 415.0 292.25 415.1 289.85 421.5 287.55 421.55 285.15 421.5 282.8 415.1 280.45 421.5 278.1 421.55 275.75 421.5 273.4 415.1 271.0 421.5 268.65 421.55 266.3 421.5 263.95 415.1 261.6 421.5 259.25 421.55 256.9 421.5 254.55 415.1 252.15 421.5 249.8 421.55 247.45 421.5 245.1 415.1 242.7 421.5 240.4 421.55 242.75 428.05 245.15 428.0 242.8 434.4 240.45 434.45 245.15 447.3 249.9 434.45 254.6 447.3 259.3 434.45 264.0 447.3 268.75 434.45 273.45 447.3 278.15 434.45 282.85 447.3 287.6 434.45 292.3 447.3 297.0 434.45 301.7 447.3 306.45 434.45 311.15 447.3 315.9 434.45 320.6 447.3 325.3 434.45 330.0 447.3 334.75 434.45 337.0 440.6 339.25 440.85 341.7 441.15 344.15 434.4 M278.15 395.75 Q275.8 395.7 273.45 389.35 271.1 395.7 268.75 395.75 271.1 402.15 273.45 402.2 275.8 402.2 278.15 395.75 280.5 395.7 282.9 389.35 285.25 395.7 287.6 395.75 285.2 402.2 282.9 402.2 285.25 408.6 287.6 408.65 285.2 415.15 282.8 415.1 280.5 415.0 278.15 408.65 275.75 415.15 273.4 415.1 271.05 415.0 268.75 408.65 266.35 415.15 263.95 415.1 261.6 414.95 259.3 408.65 256.9 415.15 254.55 415.1 252.2 415.0 249.9 408.65 247.45 415.15 245.1 415.1 242.75 414.95 240.45 408.65 238.05 415.15 235.65 415.1 238.0 421.5 240.4 421.55 235.65 434.4 230.95 421.55 226.25 434.4 221.55 421.55 216.8 434.4 212.1 421.55 207.35 434.4 202.65 421.55 197.95 434.4 193.25 421.55 190.9 427.9 188.6 428.0 190.95 434.4 193.3 434.45 195.65 434.4 198.0 428.0 200.35 434.4 202.75 434.45 205.05 434.4 207.45 428.0 209.8 434.4 212.15 434.45 214.5 434.4 216.9 428.0 219.25 434.4 221.6 434.45 223.95 434.4 226.3 428.0 228.65 434.4 231.0 434.45 233.35 434.4 235.75 428.0 238.1 434.4 240.45 434.45 235.7 447.3 231.0 434.45 226.3 447.3 221.6 434.45 216.85 447.3 212.15 434.45 207.45 447.3 202.75 434.45 198.0 447.3 193.3 434.45 188.6 447.3 183.9 434.45 179.15 447.3 174.45 434.45 169.7 447.3 165.0 434.45 160.3 447.3 155.6 434.45 150.85 447.3 146.15 434.45 141.45 447.3 136.75 434.45 132.0 447.3 127.3 434.45 122.55 447.3 117.85 434.45 113.15 447.3 108.45 434.45 103.7 447.3 99.0 434.45 94.3 447.3 89.6 434.45 84.85 447.3 80.15 434.45 77.7 441.15 75.25 440.85 77.6 447.3 79.95 447.35 82.3 447.3 84.65 440.9 87.0 447.3 89.4 447.35 91.75 447.3 94.1 440.9 96.45 447.3 98.8 447.35 101.15 447.3 103.55 440.9 105.9 447.3 108.25 447.35 110.6 447.3 112.95 440.9 115.3 447.3 117.7 447.35 120.0 447.3 122.4 440.9 124.75 447.3 127.1 447.35 129.45 447.3 131.8 440.9 134.15 447.3 136.55 447.35 138.85 447.3 141.25 440.9 143.6 447.3 145.95 447.35 148.3 447.3 150.7 440.9 153.05 447.3 155.4 447.35 157.75 447.3 160.1 440.9 162.45 447.3 164.8 447.35 167.15 447.3 169.55 440.9 171.9 447.3 174.25 447.35 176.6 447.3 178.95 440.9 181.3 447.3 183.7 447.35 186.0 447.3 188.4 440.9 190.75 447.3 193.1 447.35 195.45 447.3 197.8 440.9 200.15 447.3 202.55 447.35 204.85 447.3 207.25 440.9 209.6 447.3 211.95 447.35 214.3 447.3 216.7 440.9 219.05 447.3 221.4 447.35 223.75 447.3 226.1 440.9 228.45 447.3 230.8 447.35 233.15 447.3 235.55 440.9 237.9 447.3 240.25 447.35 242.6 447.3 244.95 440.9 247.3 447.3 249.7 447.35 252.0 447.3 254.4 440.9 256.75 447.3 259.1 447.35 261.45 447.3 263.8 440.9 266.15 447.3 268.55 447.35 270.9 447.3 273.25 440.9 275.6 447.3 277.95 447.35 280.3 447.3 282.7 440.9 285.05 447.3 287.4 447.35 289.75 447.3 292.1 440.9 294.45 447.3 296.8 447.35 299.15 447.3 301.55 440.9 303.9 447.3 306.25 447.35 308.6 447.3 310.95 440.9 313.3 447.3 315.7 447.35 318.0 447.3 320.4 440.9 322.75 447.3 325.1 447.35 327.45 447.3 329.85 440.9 332.2 447.3 334.55 447.35 336.9 447.3 339.25 440.85 M278.15 395.75 Q280.5 402.15 282.9 402.2 280.5 408.6 278.15 408.65 275.8 408.6 273.45 402.2 271.1 408.6 268.75 408.65 266.35 408.6 264.0 402.2 261.65 408.6 259.3 408.65 256.95 408.6 254.6 402.2 252.2 408.6 249.9 408.65 247.5 408.6 245.15 402.2 242.8 408.6 240.45 408.65 238.1 408.6 235.75 402.2 233.35 408.6 231.0 408.65 233.3 414.95 235.65 415.1 233.3 421.5 230.95 421.55 228.6 421.5 226.25 415.1 223.85 421.5 221.55 421.55 219.15 421.5 216.8 415.1 214.45 421.5 212.1 421.55 209.75 421.5 207.4 415.1 205.0 421.5 202.65 421.55 200.3 421.5 197.95 415.1 195.6 421.5 193.25 421.55 190.85 421.5 188.5 415.1 186.15 421.5 183.8 421.55 186.2 428.05 188.6 428.0 186.2 434.4 183.9 434.45 181.5 434.4 179.15 428.0 176.8 434.4 174.45 434.45 172.1 434.4 169.75 428.0 167.35 434.4 165.0 434.45 162.65 434.4 160.3 428.0 157.95 434.4 155.6 434.45 153.25 434.4 150.9 428.0 148.5 434.4 146.15 434.45 143.8 434.4 141.45 428.0 139.05 434.4 136.75 434.45 134.35 434.4 132.0 428.0 129.65 434.4 127.3 434.45 124.95 434.4 122.6 428.0 120.2 434.4 117.85 434.45 115.5 434.4 113.15 428.0 110.8 434.4 108.45 434.45 106.1 434.4 103.75 428.0 101.35 434.4 99.0 434.45 96.65 434.4 94.3 428.0 91.95 434.4 89.6 434.45 87.2 434.4 84.85 428.0 82.5 434.4 80.15 434.45 77.8 434.4 75.45 428.0 73.05 428.05 70.65 421.55 M268.75 395.75 Q266.35 402.15 264.0 402.2 261.65 402.15 259.3 395.75 256.95 402.2 254.6 402.2 252.2 402.15 249.9 395.75 247.5 402.15 245.15 402.2 242.8 402.2 240.45 395.75 238.1 402.2 235.75 402.2 233.35 402.15 231.0 395.75 228.65 402.15 226.3 402.2 228.65 408.6 231.0 408.65 228.6 415.15 226.25 415.1 223.9 414.95 221.6 408.65 219.2 415.15 216.8 415.1 214.45 414.95 212.15 408.65 209.75 415.15 207.4 415.1 205.05 414.95 202.75 408.65 200.35 415.15 197.95 415.1 195.6 414.95 193.3 408.65 190.9 415.15 188.5 415.1 186.2 414.95 183.9 408.65 181.45 415.15 179.1 415.1 181.45 421.5 183.8 421.55 179.1 434.4 174.4 421.55 169.65 434.4 164.95 421.55 160.25 434.4 155.5 421.55 150.8 434.4 146.1 421.55 141.35 434.4 136.65 421.55 134.35 427.9 132.0 428.0 129.6 428.05 127.25 421.55 122.5 434.4 117.8 421.55 113.1 434.4 108.4 421.55 103.65 434.4 98.95 421.55 96.6 427.9 94.3 428.0 91.9 428.05 89.5 421.55 84.8 434.4 80.1 421.55 77.75 427.9 75.45 428.0 M277.95 447.35 Q280.3 453.75 282.65 453.8 L282.7 453.75 282.7 453.8 Q285.05 453.75 287.4 447.35 289.75 453.75 292.1 453.8 L292.1 453.75 292.1 453.8 Q294.45 453.75 296.8 447.35 299.15 453.75 301.5 453.8 L301.55 453.75 301.55 453.8 Q303.9 453.75 306.25 447.35 308.6 453.7 310.95 453.8 L310.95 453.75 311.0 453.8 Q313.35 453.75 315.7 447.35 318.05 453.75 320.35 453.8 L320.4 453.75 320.4 453.8 Q322.75 453.75 325.1 447.35 327.45 453.75 329.8 453.8 L329.85 453.75 329.85 453.8 Q332.2 453.75 334.55 447.35 336.85 453.7 339.2 453.8 341.55 453.85 343.95 447.3 M285.6 464.1 L286.2 462.95 287.4 460.15 Q285.05 460.1 282.7 453.8 L282.65 453.8 Q280.3 460.1 277.95 460.15 L279.15 462.95 279.75 464.1 M268.55 447.35 Q266.15 453.75 263.85 453.8 266.2 460.1 268.55 460.15 270.85 460.1 273.25 453.8 270.9 453.75 268.55 447.35 M263.85 453.8 L263.8 453.75 263.8 453.8 263.85 453.8 M273.25 453.8 L273.25 453.75 273.3 453.8 Q275.6 453.75 277.95 447.35 M276.15 464.1 L276.75 462.95 277.95 460.15 Q275.6 460.1 273.3 453.8 L273.25 453.8 M266.75 464.1 L267.35 462.95 268.55 460.15 Q269.1 461.75 269.75 462.95 L270.35 464.1 M254.4 453.8 Q256.75 460.1 259.1 460.15 261.45 460.1 263.8 453.8 261.45 453.75 259.1 447.35 256.75 453.75 254.4 453.8 L254.4 453.75 254.35 453.8 254.4 453.8 M245.0 453.8 L244.95 453.75 244.95 453.8 245.0 453.8 Q247.3 453.75 249.7 447.35 252.05 453.75 254.35 453.8 252.0 460.1 249.7 460.15 250.25 461.75 250.9 462.95 L251.45 464.1 M247.9 464.1 L248.5 462.95 249.7 460.15 Q247.35 460.1 245.0 453.8 M260.9 464.1 L260.3 462.95 259.1 460.15 257.9 462.95 257.3 464.1 M323.3 464.1 L323.9 462.95 325.1 460.15 Q322.75 460.1 320.4 453.8 L320.35 453.8 Q318.0 460.1 315.7 460.15 316.25 461.75 316.9 462.95 L317.5 464.1 M313.9 464.1 L314.5 462.95 315.7 460.15 Q313.35 460.1 311.0 453.8 L310.95 453.8 Q308.6 460.1 306.25 460.15 L307.45 462.95 308.05 464.1 M304.45 464.1 L305.05 462.95 306.25 460.15 Q303.9 460.1 301.55 453.8 L301.5 453.8 Q299.15 460.1 296.8 460.15 L298.0 462.95 298.6 464.1 M292.1 453.8 Q294.45 460.1 296.8 460.15 L295.65 462.95 295.05 464.1 M289.2 464.1 L288.6 462.95 Q287.95 461.75 287.4 460.15 289.7 460.1 292.1 453.8 M216.9 402.2 Q219.25 408.6 221.6 408.65 223.95 408.6 226.3 402.2 223.95 402.2 221.6 395.75 219.25 402.15 216.9 402.2 214.5 408.6 212.15 408.65 209.8 408.6 207.45 402.2 205.05 408.6 202.75 408.65 200.35 408.6 198.0 402.2 195.65 408.6 193.3 408.65 190.95 408.6 188.6 402.2 186.2 408.6 183.9 408.65 181.5 408.6 179.15 402.2 176.8 408.6 174.45 408.65 176.75 414.95 179.1 415.1 176.7 421.5 174.4 421.55 172.0 421.5 169.65 415.1 167.3 421.5 164.95 421.55 162.6 421.5 160.25 415.1 157.85 421.5 155.5 421.55 153.15 421.5 150.8 415.1 148.45 421.5 146.1 421.55 143.75 421.5 141.4 415.1 139.0 421.5 136.65 421.55 134.3 421.5 131.95 415.1 129.6 421.5 127.25 421.55 124.85 421.5 122.5 415.1 120.15 421.5 117.8 421.55 115.45 421.5 113.1 415.1 110.7 421.5 108.4 421.55 106.0 421.5 103.65 415.1 101.3 421.5 98.95 421.55 96.6 421.5 94.25 415.1 91.85 421.5 89.5 421.55 87.15 421.5 84.8 415.1 82.45 421.5 80.1 421.55 77.75 421.5 75.4 415.1 73.05 415.0 70.75 408.65 M216.9 402.2 Q214.5 402.2 212.15 395.75 209.8 402.15 207.45 402.2 205.05 402.15 202.75 395.75 200.35 402.2 198.0 402.2 195.65 402.15 193.3 395.75 190.95 402.2 188.6 402.2 186.2 402.15 183.9 395.75 181.5 402.2 179.15 402.2 176.8 402.15 174.45 395.75 172.05 402.2 169.75 402.2 172.1 408.6 174.45 408.65 172.05 415.15 169.65 415.1 167.35 415.0 165.0 408.65 162.6 415.15 160.25 415.1 157.9 415.0 155.6 408.65 153.2 415.15 150.8 415.1 148.5 415.0 146.15 408.65 143.75 415.15 141.4 415.1 139.05 414.95 136.75 408.65 134.35 415.15 131.95 415.1 129.65 415.0 127.3 408.65 124.9 415.15 122.5 415.1 120.15 414.95 117.85 408.65 115.45 415.15 113.1 415.1 110.75 414.95 108.45 408.65 106.05 415.15 103.65 415.1 101.35 415.0 99.0 408.65 96.6 415.15 94.25 415.1 91.9 415.0 89.6 408.65 87.2 415.15 84.8 415.1 82.5 415.0 80.15 408.65 77.75 415.15 75.4 415.1 M174.45 395.75 Q172.1 395.7 169.75 389.35 167.35 395.7 165.0 395.75 167.35 402.15 169.75 402.2 167.35 408.6 165.0 408.65 162.65 408.6 160.3 402.2 157.95 408.6 155.6 408.65 153.25 408.6 150.9 402.2 148.5 408.6 146.15 408.65 143.8 408.6 141.45 402.2 139.05 408.6 136.75 408.65 134.35 408.6 132.0 402.2 129.65 408.6 127.3 408.65 124.95 408.6 122.6 402.2 120.2 408.6 117.85 408.65 115.5 408.6 113.15 402.2 110.8 408.6 108.45 408.65 106.1 408.6 103.75 402.2 101.35 408.6 99.0 408.65 96.65 408.6 94.3 402.2 91.95 408.6 89.6 408.65 87.2 408.6 84.85 402.2 82.5 408.6 80.15 408.65 77.8 408.6 75.45 402.2 73.1 402.2 70.75 395.75 M193.1 447.35 Q195.45 453.75 197.8 453.8 L197.8 453.75 197.8 453.8 Q200.15 453.75 202.55 447.35 204.85 453.75 207.25 453.8 L207.25 453.75 207.3 453.8 Q209.6 453.75 211.95 447.35 214.3 453.75 216.7 453.8 L216.7 453.75 216.7 453.8 Q219.0 453.75 221.4 447.35 223.75 453.75 226.05 453.8 L226.1 453.75 226.1 453.8 Q228.45 453.75 230.8 447.35 233.15 453.75 235.55 453.8 L235.55 453.75 235.55 453.8 Q237.9 453.75 240.25 447.35 242.6 453.7 244.95 453.8 242.6 460.1 240.25 460.15 L241.45 462.95 242.05 464.1 M200.75 464.1 L201.35 462.95 202.55 460.15 Q200.2 460.1 197.8 453.8 195.45 460.1 193.1 460.15 L194.3 462.95 194.9 464.1 M183.7 447.35 Q181.3 453.75 178.95 453.8 181.35 460.1 183.7 460.15 186.0 460.1 188.35 453.8 186.0 453.7 183.7 447.35 M191.3 464.1 L191.9 462.95 193.1 460.15 Q190.75 460.1 188.45 453.8 L188.35 453.8 188.4 453.75 188.45 453.8 Q190.75 453.75 193.1 447.35 M185.45 464.1 L184.85 462.95 183.7 460.15 182.5 462.95 181.9 464.1 M178.95 453.75 L178.95 453.8 178.95 453.75 M174.25 447.35 Q171.9 453.75 169.55 453.8 171.9 460.1 174.25 460.15 176.55 460.1 178.95 453.8 176.6 453.75 174.25 447.35 M164.8 447.35 Q162.45 453.75 160.1 453.8 162.45 460.1 164.8 460.15 167.15 460.1 169.5 453.8 167.15 453.75 164.8 447.35 M169.55 453.8 L169.5 453.8 169.55 453.75 169.55 453.8 M166.6 464.1 L166.0 462.95 164.8 460.15 163.6 462.95 163.05 464.1 M176.05 464.1 L175.45 462.95 Q174.8 461.75 174.25 460.15 L173.05 462.95 172.45 464.1 M238.45 464.1 L239.05 462.95 240.25 460.15 Q237.9 460.1 235.55 453.8 233.15 460.1 230.8 460.15 L232.0 462.95 232.6 464.1 M229.05 464.1 L229.65 462.95 230.8 460.15 Q228.45 460.1 226.1 453.8 L226.05 453.8 Q223.7 460.1 221.4 460.15 L222.6 462.95 223.2 464.1 M219.6 464.1 L220.2 462.95 221.4 460.15 Q219.05 460.1 216.7 453.8 214.3 460.1 211.95 460.15 L213.15 462.95 213.75 464.1 M207.25 453.8 L207.3 453.8 Q209.6 460.1 211.95 460.15 L210.75 462.95 210.15 464.1 M207.25 453.8 Q204.85 460.1 202.55 460.15 203.1 461.75 203.75 462.95 L204.35 464.1 M160.3 402.2 Q162.65 402.15 165.0 395.75 162.65 395.7 160.3 389.35 157.9 395.7 155.6 395.75 157.95 402.15 160.3 402.2 M150.9 402.2 Q153.25 402.15 155.6 395.75 153.25 395.7 150.9 389.35 148.5 395.7 146.15 395.75 148.5 402.2 150.9 402.2 M141.45 402.2 Q143.8 402.15 146.15 395.75 143.8 395.7 141.45 389.35 139.05 395.7 136.75 395.75 139.1 402.2 141.45 402.2 M136.75 395.75 Q134.35 395.7 132.0 389.35 129.65 395.7 127.3 395.75 129.65 402.2 132.0 402.2 134.35 402.15 136.75 395.75 M127.3 395.75 Q124.95 395.7 122.6 389.35 120.2 395.7 117.85 395.75 120.2 402.2 122.6 402.2 124.95 402.15 127.3 395.75 M117.85 395.75 Q115.5 395.7 113.15 389.35 110.8 395.7 108.45 395.75 110.8 402.2 113.15 402.2 115.5 402.15 117.85 395.75 M108.45 395.75 Q106.1 402.15 103.75 402.2 101.35 402.15 99.0 395.75 96.65 402.15 94.3 402.2 91.95 402.2 89.6 395.75 87.2 402.15 84.85 402.2 82.5 402.2 80.15 395.75 77.8 402.15 75.45 402.2 M108.25 447.35 Q110.6 453.75 112.95 453.8 L112.95 453.75 113.0 453.8 Q115.3 453.75 117.7 447.35 120.05 453.75 122.35 453.8 L122.4 453.75 122.4 453.8 Q124.75 453.75 127.1 447.35 129.45 453.7 131.8 453.8 L131.8 453.75 131.85 453.8 Q134.2 453.75 136.55 447.35 138.9 453.75 141.2 453.8 L141.25 453.75 141.25 453.8 Q143.6 453.75 145.95 447.35 148.3 453.75 150.65 453.8 L150.7 453.75 150.7 453.8 Q153.05 453.75 155.4 447.35 157.75 453.75 160.05 453.8 L160.1 453.75 160.1 453.8 160.05 453.8 Q157.7 460.1 155.4 460.15 155.95 461.75 156.6 462.95 L157.2 464.1 M115.9 464.1 L116.5 462.95 117.7 460.15 Q115.35 460.1 113.0 453.8 L112.95 453.8 Q110.55 460.1 108.25 460.15 108.8 461.75 109.45 462.95 L110.05 464.1 M98.8 447.35 Q101.15 453.75 103.5 453.8 L103.55 453.75 103.55 453.8 Q105.9 453.75 108.25 447.35 M103.5 453.8 L103.55 453.8 Q105.9 460.1 108.25 460.15 L107.05 462.95 106.45 464.1 M125.3 464.1 L125.9 462.95 127.1 460.15 Q124.75 460.1 122.4 453.8 L122.35 453.8 Q120.0 460.1 117.7 460.15 L118.85 462.95 119.45 464.1 M89.4 447.35 Q91.7 453.7 94.05 453.8 L94.1 453.75 94.15 453.8 Q96.45 453.75 98.8 447.35 M97.0 464.1 L97.6 462.95 98.8 460.15 Q96.45 460.1 94.15 453.8 L94.05 453.8 Q91.7 460.1 89.4 460.15 89.95 461.75 90.6 462.95 L91.2 464.1 M84.65 453.8 L84.65 453.75 84.65 453.8 Q82.3 453.75 79.95 447.35 77.6 453.8 75.2 453.8 77.6 460.1 79.95 460.15 82.3 460.1 84.65 453.8 87.0 453.75 89.4 447.35 M89.4 460.15 L88.2 462.95 87.6 464.1 M81.75 464.1 L81.15 462.95 79.95 460.15 78.75 462.95 78.15 464.1 M100.6 464.1 L100.0 462.95 98.8 460.15 Q101.15 460.1 103.5 453.8 M89.4 460.15 Q87.05 460.1 84.65 453.8 M153.6 464.1 L154.2 462.95 155.4 460.15 Q153.05 460.1 150.7 453.8 L150.65 453.8 Q148.3 460.1 145.95 460.15 L147.15 462.95 147.75 464.1 M144.15 464.1 L144.75 462.95 145.95 460.15 Q143.6 460.1 141.25 453.8 L141.2 453.8 Q138.85 460.1 136.55 460.15 L137.75 462.95 138.35 464.1 M131.8 453.8 L131.85 453.8 Q134.2 460.1 136.55 460.15 L135.35 462.95 134.75 464.1 M128.9 464.1 L128.3 462.95 127.1 460.15 Q129.45 460.1 131.8 453.8 M70.75 434.45 Q73.0 440.6 75.25 440.85 M72.3 464.1 L71.75 462.95 70.55 460.15 M75.2 453.8 Q72.85 453.75 70.55 447.35 M344.1 421.5 Q341.8 427.85 339.45 428.0 M332.75 464.1 L333.35 462.95 334.55 460.15 Q332.2 460.1 329.85 453.8 L329.8 453.8 Q327.45 460.1 325.1 460.15 L326.3 462.95 326.9 464.1 M342.2 464.1 L342.75 462.95 343.95 460.1 M339.2 453.8 Q336.85 460.1 334.55 460.15 L335.75 462.95 336.35 464.1 M249.9 395.75 Q247.5 395.7 245.15 389.35 242.8 395.7 240.45 395.75 238.1 395.7 235.75 389.35 233.35 395.7 231.0 395.75 228.65 395.7 226.3 389.35 223.95 395.7 221.6 395.75 219.25 395.7 216.9 389.35 214.5 395.7 212.15 395.75 209.8 395.7 207.45 389.35 205.05 395.7 202.75 395.75 200.35 395.7 198.0 389.35 195.65 395.7 193.3 395.75 190.95 395.7 188.6 389.35 186.2 395.7 183.9 395.75 181.55 395.7 179.15 389.35 176.8 395.7 174.45 395.75 M108.45 395.75 Q106.1 395.7 103.75 389.35 101.35 395.7 99.0 395.75 96.65 395.7 94.3 389.35 91.95 395.7 89.6 395.75 87.25 395.7 84.85 389.35 82.5 395.7 80.15 395.75 77.8 395.7 75.4 389.35 M249.9 395.75 Q252.2 395.7 254.6 389.35 256.95 395.7 259.3 395.75 261.65 395.7 264.0 389.35 266.4 395.7 268.75 395.75" fill="none" stroke="#000000" stroke-linecap="round" stroke-linejoin="round" stroke-opacity="0.2509804" stroke-width="1.0"/>
  </g>
</svg>
