<?xml version="1.0" encoding="UTF-8" standalone="no"?>
<svg xmlns:xlink="http://www.w3.org/1999/xlink" height="391.6px" width="209.75px" xmlns="http://www.w3.org/2000/svg">
  <g transform="matrix(1.0, 0.0, 0.0, 1.0, -1.55, -3.05)">
    <path d="M177.55 70.15 Q185.95 128.5 211.3 146.35 L211.3 166.5 118.65 132.9 117.95 124.0 117.2 113.85 116.6 99.05 Q116.15 88.6 116.2 79.15 L116.6 69.5 Q116.65 62.85 117.3 56.9 L117.85 51.65 117.95 51.05 Q118.45 44.95 119.6 39.65 L119.6 39.55 Q121.1 30.85 123.55 24.15 112.65 46.65 101.9 74.15 93.75 94.85 85.65 118.5 53.6 211.85 22.7 349.1 L18.15 365.5 Q14.3 371.3 8.6 390.95 7.75 394.65 4.55 394.65 1.05 394.1 1.65 392.15 28.9 263.9 65.6 152.95 75.75 122.1 86.7 92.6 102.8 48.8 120.65 8.0 122.4 2.1 127.95 3.25 132.25 3.9 129.65 10.45 112.65 66.65 123.65 120.45 L195.85 141.9 Q193.3 138.2 191.25 134.55 188.1 129.5 185.65 124.5 182.85 119.05 180.7 113.45 178.1 106.8 176.4 100.1 174.75 94.55 173.8 89.05 172.5 81.0 172.3 72.85 174.6 67.45 177.55 70.15" fill="#000000" fill-rule="evenodd" stroke="none"/>
  </g>
</svg>
