<?xml version="1.0" encoding="UTF-8" standalone="no"?>
<svg xmlns:xlink="http://www.w3.org/1999/xlink" height="383.35px" width="265.65px" xmlns="http://www.w3.org/2000/svg">
  <g transform="matrix(1.0, 0.0, 0.0, 1.0, -78.65, -74.75)">
    <path d="M164.55 189.4 L169.25 191.45 Q191.35 195.85 221.05 189.9 L236.65 187.75 242.8 187.6 236.65 187.75 242.8 187.25 242.8 187.6 242.8 187.25 Q255.65 186.4 267.45 187.45 275.8 188.2 283.65 189.9 L293.3 187.3 283.05 197.0 277.5 195.9 270.85 195.05 238.55 193.9 Q224.25 194.45 210.4 197.0 L198.55 198.9 183.8 199.95 198.55 198.9 Q199.7 202.6 202.05 204.75 205.75 208.05 212.45 207.45 L215.0 204.8 Q216.35 208.75 218.75 211.8 223.85 218.45 233.75 221.05 220.5 220.9 204.4 223.35 207.0 229.9 210.6 234.65 L201.55 236.15 210.6 234.65 Q218.2 244.8 230.3 246.7 L232.1 233.0 233.75 221.05 Q233.9 227.8 235.5 233.1 L232.1 233.0 235.5 233.1 Q238.95 244.65 255.8 250.65 240.8 246.9 230.3 246.7 231.75 252.45 234.35 257.1 L230.4 256.9 234.35 257.1 Q239.0 265.55 247.45 270.3 238.6 267.25 228.25 266.65 228.9 272.45 230.6 275.45 L228.4 275.25 230.6 275.45 Q233.45 280.5 239.8 282.25 L239.3 282.65 226.05 288.05 Q221.45 283.75 215.25 279.75 213.3 278.15 211.85 276.4 208.45 272.3 208.05 267.65 203.6 263.8 202.35 258.55 201.3 254.1 202.5 248.6 200.2 242.85 201.55 236.15 L202.3 233.2 204.4 223.35 206.5 213.55 218.75 211.8 206.5 213.55 212.45 207.45 206.5 213.55 Q194.9 215.65 188.75 209.1 185.55 205.7 183.8 199.95 L182.15 199.95 Q170.5 199.75 165.15 195.9 L156.65 189.55 164.55 189.4 156.65 189.55 144.65 180.6 164.55 189.4 M242.8 187.6 L238.55 193.9 242.8 187.6 267.45 187.45 242.8 187.6 M244.25 211.8 Q249.65 220.0 258.9 224.35 247.95 221.2 233.75 221.05 L234.8 213.75 236.05 211.15 239.95 202.95 Q241.65 207.8 244.25 211.8 L236.05 211.15 244.25 211.8 M230.4 256.9 Q231.1 251.35 230.3 246.75 L230.3 246.7 Q217.8 246.45 202.5 248.6 205.3 253.75 209.85 257.65 216.9 263.6 228.15 266.65 218.7 266.1 208.05 267.65 L215.3 275.85 211.85 276.4 215.3 275.85 226.05 288.05 Q227.95 281.35 228.4 275.25 228.65 271.65 228.25 266.65 229.8 261.45 230.4 256.9 M188.75 209.1 Q195.6 206.6 202.05 204.75 195.6 206.6 188.75 209.1 M209.85 257.65 L202.35 258.55 209.85 257.65" fill="#000000" fill-opacity="0.2509804" fill-rule="evenodd" stroke="none"/>
    <path d="M328.3 341.2 L328.55 348.5 Q327.15 355.85 319.7 355.3 315.3 354.55 313.85 351.6 307.5 354.55 303.75 352.4 300.95 350.75 299.65 346.3 295.2 347.85 292.4 346.3 289.9 344.95 288.65 341.25 285.1 340.7 283.25 339.0 L276.45 355.35 272.1 361.6 Q262.55 375.75 255.95 390.6 268.4 401.8 287.7 413.0 301.7 420.85 302.2 430.95 263.6 438.3 236.4 424.1 224.85 425.15 216.05 421.3 216.65 410.05 220.3 399.65 L218.65 398.05 221.2 385.5 216.85 347.8 221.8 338.7 Q216.15 325.4 215.45 312.1 203.55 336.95 187.6 362.5 184.65 366.25 182.15 370.05 168.25 390.85 167.4 411.65 L177.4 433.95 Q184.55 450.5 164.2 457.1 135.1 457.25 118.8 444.8 118.9 427.35 125.85 409.95 L122.3 400.55 128.75 393.55 132.9 350.4 113.85 337.75 Q116.1 318.6 117.15 305.65 85.4 277.35 79.65 245.3 L86.25 225.25 Q79.0 180.4 95.05 137.15 111.65 124.1 135.1 116.2 159.35 108.0 190.85 105.3 L194.1 105.0 202.55 104.45 205.55 101.3 Q204.35 95.0 208.7 94.7 L209.4 94.75 Q209.7 81.05 219.55 77.4 222.4 76.35 226.0 76.15 232.05 75.2 238.05 76.4 L241.5 77.3 Q248.25 79.5 251.55 84.45 255.95 91.05 254.1 102.6 L252.35 104.15 Q252.55 106.35 252.25 108.2 L257.1 110.35 259.05 111.25 262.0 112.65 Q280.55 121.65 295.85 133.9 303.65 140.15 310.65 147.2 317.3 178.6 311.4 210.1 L322.95 230.35 Q317.5 261.1 318.3 291.8 L343.3 316.55 Q335.85 326.15 333.4 341.2 L328.3 341.2 M150.25 216.5 Q153.85 222.85 161.2 224.8 165.25 246.1 155.3 267.65 L146.3 289.6 146.8 292.85 177.5 310.6 173.75 328.15 180.35 337.75 178.75 339.65 Q176.5 341.7 173.25 341.5 170.05 341.25 166.0 338.95 L165.9 338.95 Q165.45 349.5 165.9 360.1 L154.4 362.6 152.9 358.45 152.9 358.4 Q144.85 361.8 139.7 354.85 L132.9 350.4 M269.8 256.0 Q277.8 270.95 292.6 292.45 288.65 300.15 285.95 308.0 L283.6 316.2 Q282.8 319.25 282.3 322.3 L283.5 328.1 283.5 328.15 Q284.9 333.55 283.25 339.0 M150.25 216.5 Q146.85 225.6 141.8 234.75 L146.8 248.1 Q143.45 268.85 146.3 289.6 M269.8 256.0 Q269.9 258.85 272.2 269.65 L282.3 322.3" fill="none" stroke="#000000" stroke-linecap="round" stroke-linejoin="round" stroke-width="2.0"/>
    <path d="M256.35 135.6 Q235.55 145.45 191.4 130.95 M211.3 125.35 Q204.9 123.2 197.95 120.05 M164.55 189.4 L156.65 189.55 M242.8 187.6 L236.65 187.75 164.55 189.4 M241.8 172.4 Q189.2 168.4 144.65 180.6 M237.3 156.5 Q183.0 150.6 132.8 154.85 M267.45 187.45 L293.3 187.3 M293.3 168.5 Q267.55 166.25 241.8 172.4 M237.3 156.5 Q263.55 148.85 289.75 150.7 M248.25 128.25 L252.1 126.95 M238.55 193.9 Q240.25 196.25 240.6 198.6 257.4 198.85 269.0 206.0 M267.45 187.45 L242.8 187.6 M235.5 233.1 Q249.6 233.65 259.15 238.15 M244.25 211.8 Q251.95 212.7 258.9 214.75 M236.05 211.15 L218.75 211.8 206.5 213.55 M210.6 234.65 Q222.35 232.95 232.1 233.0 L235.5 233.1 M236.05 211.15 L244.25 211.8 M239.95 202.95 Q240.85 200.75 240.6 198.6 223.9 198.3 202.05 204.75 195.6 206.6 188.75 209.1 M201.55 236.15 L210.6 234.65 M234.35 257.1 Q244.9 257.8 254.65 260.15 M230.4 256.9 L234.35 257.1 M215.3 275.85 L228.4 275.25 230.6 275.45 Q237.35 276.2 243.05 278.8 M230.4 256.9 L209.85 257.65 202.35 258.55 M211.85 276.4 L215.3 275.85" fill="none" stroke="#000000" stroke-linecap="round" stroke-linejoin="round" stroke-opacity="0.2509804" stroke-width="1.0"/>
    <path d="M328.3 341.2 L314.35 341.2 Q312.0 348.0 313.85 351.6 M208.45 104.15 Q206.35 98.6 209.4 97.4 208.4 96.2 207.05 97.55 M212.0 97.6 Q211.4 95.15 209.4 94.75 M205.55 101.3 Q206.05 104.35 207.1 106.35 207.75 107.45 209.15 107.85 L209.85 107.95 211.6 107.95 M211.3 125.35 L209.05 122.9 209.85 107.95 M191.4 130.95 Q189.75 134.2 188.4 137.7 L190.85 138.1 194.1 138.6 203.25 140.2 207.15 140.95 214.8 142.6 223.5 144.7 229.55 146.3 Q232.5 147.25 234.75 147.45 238.3 147.8 240.0 146.3 242.35 145.45 244.75 144.7 L252.25 142.6 259.05 141.05 256.35 135.6 252.1 126.95 248.75 120.25 248.25 128.25 248.0 132.1 244.45 136.35 223.75 136.35 219.4 132.85 215.6 129.55 211.3 125.35 M191.4 130.95 Q194.3 125.1 197.95 120.05 202.85 113.25 209.15 107.85 M156.65 189.55 L165.15 195.9 Q170.5 199.75 182.15 199.95 L183.8 199.95 198.55 198.9 210.4 197.0 Q224.25 194.45 238.55 193.9 L242.8 187.6 242.8 187.25 Q242.95 179.5 241.8 172.4 240.45 164.0 237.3 156.5 L234.75 147.45 M132.8 154.85 Q134.95 165.2 144.65 180.6 L156.65 189.55 Q155.2 203.0 150.25 216.5 M293.3 187.3 Q294.25 177.9 293.3 168.5 292.5 160.65 290.35 152.85 L289.75 150.7 288.8 146.35 Q287.05 139.5 280.95 138.05 270.95 138.85 262.0 140.5 L259.05 141.05 M202.55 104.45 L195.35 111.95 M252.25 108.2 Q251.65 111.7 249.15 114.0 L248.75 120.25 M283.05 197.0 L277.5 195.9 270.85 195.05 Q271.3 201.4 269.0 206.0 266.1 211.8 258.9 214.75 L258.9 224.35 258.9 233.95 Q259.2 236.05 259.15 238.15 259.0 244.5 255.8 250.65 256.6 255.35 254.65 260.15 252.6 265.15 247.45 270.3 246.3 274.75 243.05 278.8 L239.8 282.25 239.3 282.65 249.15 278.65 M293.3 187.3 L283.05 197.0 Q281.35 206.4 272.2 215.75 269.8 227.2 269.6 242.75 269.5 249.05 269.8 256.0 M283.5 328.1 L289.6 319.8 Q291.8 319.25 294.2 321.6 L296.35 324.35 296.4 324.35 300.8 324.75 302.95 326.0 302.95 325.5 Q303.05 324.2 303.3 323.05 304.85 314.7 311.65 312.55 315.5 311.25 321.25 312.1 M270.85 195.05 L238.55 193.9 M210.85 101.0 Q210.25 98.35 209.4 97.4 M188.4 137.7 Q167.0 134.65 145.6 134.45 129.15 137.9 132.8 154.85 M113.85 337.75 L134.35 343.85 Q138.85 346.45 143.05 347.2 L144.65 347.4 148.5 347.2 148.55 347.2 Q152.05 346.55 155.2 344.45 L155.6 344.25 155.6 344.2 156.4 343.7 156.6 343.4 Q158.8 341.65 160.85 339.1 M152.9 358.4 L148.5 347.25 148.5 347.2 M139.7 354.85 L134.35 343.85 M311.4 210.1 L310.45 214.85 M258.9 224.35 Q247.95 221.2 233.75 221.05 L234.8 213.75 236.05 211.15 239.95 202.95 Q248.15 202.8 253.05 204.4 L258.9 214.75 M233.75 221.05 Q220.5 220.9 204.4 223.35 L202.3 233.2 201.55 236.15 Q200.2 242.85 202.5 248.6 217.8 246.45 230.3 246.7 L232.1 233.0 233.75 221.05 M212.45 207.45 L215.0 204.8 215.15 204.65 Q227.55 201.35 239.95 202.95 M212.45 207.45 L206.5 213.55 204.4 223.35 M255.8 250.65 Q240.8 246.9 230.3 246.7 L230.3 246.75 Q231.1 251.35 230.4 256.9 229.8 261.45 228.25 266.65 L228.15 266.65 Q218.7 266.1 208.05 267.65 203.6 263.8 202.35 258.55 201.3 254.1 202.5 248.6 M247.45 270.3 Q238.6 267.25 228.25 266.65 228.65 271.65 228.4 275.25 227.95 281.35 226.05 288.05 221.2 300.0 215.45 312.1 M188.75 209.1 Q194.9 215.65 206.5 213.55 M188.75 209.1 Q185.55 205.7 183.8 199.95 M215.25 279.75 Q213.3 278.15 211.85 276.4 208.45 272.3 208.05 267.65 M239.3 282.65 L226.05 288.05 Q221.45 283.75 215.25 279.75 208.0 275.1 198.6 270.8 M224.85 345.25 Q223.15 342.0 221.8 338.7 M166.0 338.95 Q166.4 328.4 167.75 317.9 M221.2 385.5 L221.9 391.45 M296.35 324.35 L288.65 341.25 M314.35 341.2 L309.75 341.2 Q309.4 339.4 309.6 337.9 309.95 333.2 314.05 331.45 310.8 325.8 304.9 328.2 L299.65 346.3 M324.75 320.75 L323.6 330.55 Q317.5 330.0 314.05 331.45 M304.9 328.2 L302.95 326.0 M220.3 399.65 L224.1 403.3" fill="none" stroke="#000000" stroke-linecap="round" stroke-linejoin="round" stroke-width="1.0"/>
  </g>
</svg>
