<?xml version="1.0" encoding="UTF-8" standalone="no"?>
<svg xmlns:xlink="http://www.w3.org/1999/xlink" height="197.75px" width="243.3px" xmlns="http://www.w3.org/2000/svg">
  <g transform="matrix(1.0, 0.0, 0.0, 1.0, -79.65, -107.9)">
    <path d="M240.0 146.3 Q242.35 145.45 244.75 144.7 L252.25 142.6 259.05 141.05 260.35 140.8 Q268.15 130.25 268.7 116.05 283.35 123.9 295.85 133.9 303.65 140.15 310.65 147.2 317.3 178.6 311.4 210.1 L322.95 230.35 Q317.5 261.1 318.3 291.8 305.45 295.7 292.6 292.45 277.8 270.95 269.8 256.0 L269.6 246.15 230.3 246.75 Q201.85 247.35 162.1 243.45 162.95 234.1 161.2 224.8 153.85 222.85 150.25 216.5 146.85 225.6 141.8 234.75 L146.8 248.1 Q143.45 268.85 146.3 289.6 L146.8 292.85 Q132.0 305.2 117.15 305.65 85.4 277.35 79.65 245.3 L86.25 225.25 Q79.0 180.4 95.05 137.15 111.65 124.1 135.1 116.2 150.7 110.9 169.3 107.9 177.5 122.85 191.15 137.8 L190.85 138.1 191.5 138.2 194.1 138.6 203.25 140.2 207.15 140.95 214.8 142.6 223.5 144.7 229.55 146.3 Q237.2 148.75 240.0 146.3" fill="#000000" fill-rule="evenodd" stroke="none"/>
  </g>
</svg>
