<?xml version="1.0" encoding="UTF-8" standalone="no"?>
<svg xmlns:xlink="http://www.w3.org/1999/xlink" height="45.9px" width="88.8px" xmlns="http://www.w3.org/2000/svg">
  <g transform="matrix(1.0, 0.0, 0.0, 1.0, -182.15, -201.45)">
    <path d="M256.25 210.0 L258.9 214.75 258.9 233.95 M256.25 210.0 L255.35 208.45 256.35 208.9 270.45 215.0 M205.3 219.3 L202.3 233.2 M206.1 209.5 Q195.0 212.45 184.25 216.1 M227.5 204.4 L240.3 201.95 244.0 203.55 M239.45 204.05 L234.8 213.75 231.3 239.15" fill="none" stroke="#000000" stroke-linecap="round" stroke-linejoin="round" stroke-width="1.0"/>
    <path d="M256.35 208.9 L256.25 210.0 252.95 246.4 M270.45 215.0 L265.35 246.25 M203.0 246.4 L205.3 219.3 206.1 209.5 M184.25 216.1 L182.65 245.25 M222.4 246.85 Q223.3 224.95 227.5 204.4 M244.0 203.55 Q240.25 225.35 239.65 246.6" fill="none" stroke="#000000" stroke-linecap="round" stroke-linejoin="round" stroke-width="1.0"/>
  </g>
</svg>
