<?xml version="1.0" encoding="UTF-8" standalone="no"?>
<svg xmlns:xlink="http://www.w3.org/1999/xlink" height="88.25px" width="136.1px" xmlns="http://www.w3.org/2000/svg">
  <g transform="matrix(1.0, 0.0, 0.0, 1.0, -146.3, -243.45)">
    <path d="M158.2 260.65 Q161.25 252.0 162.1 243.45 201.85 247.35 230.3 246.75 L269.6 246.15 269.8 256.0 Q269.85 257.9 270.9 263.25 L272.2 269.65 282.4 322.3 Q262.4 332.7 218.8 330.5 215.95 321.3 215.45 312.1 210.95 321.5 205.9 331.0 191.6 333.25 173.75 328.15 L177.5 310.6 162.2 301.75 162.15 301.75 146.8 292.85 146.3 289.6 155.3 267.65 158.2 260.65" fill="#000000" fill-rule="evenodd" stroke="none"/>
  </g>
</svg>
