<?xml version="1.0" encoding="UTF-8" standalone="no"?>
<svg xmlns:xlink="http://www.w3.org/1999/xlink" height="156.4px" width="101.55px" xmlns="http://www.w3.org/2000/svg">
  <g transform="matrix(1.0, 0.0, 0.0, 1.0, -128.75, -243.45)">
    <path d="M158.2 260.65 Q161.25 252.0 162.1 243.45 201.85 247.35 230.3 246.75 L227.45 274.75 226.05 287.95 225.9 287.95 226.05 288.05 221.4 299.05 215.45 312.1 Q210.95 321.5 205.9 331.0 L196.0 348.65 187.6 362.5 Q184.65 366.25 182.15 370.05 176.65 378.25 173.2 386.5 171.1 391.5 169.75 396.55 147.05 404.4 128.75 393.55 L132.9 350.4 139.7 354.85 Q144.85 361.8 152.9 358.4 L152.9 358.45 154.4 362.6 165.9 360.1 Q165.65 354.35 165.7 348.65 L165.9 338.95 166.0 338.95 Q170.05 341.25 173.25 341.5 176.5 341.7 178.75 339.65 L180.35 337.75 173.75 328.15 177.5 310.6 162.2 301.75 162.15 301.75 146.8 292.85 146.3 289.6 155.3 267.65 158.2 260.65" fill="#000000" fill-rule="evenodd" stroke="none"/>
  </g>
</svg>
