<?xml version="1.0" encoding="UTF-8" standalone="no"?>
<svg xmlns:xlink="http://www.w3.org/1999/xlink" height="124.1px" width="88.65px" xmlns="http://www.w3.org/2000/svg">
  <g transform="matrix(1.0, 0.0, 0.0, 1.0, -166.1, -246.4)">
    <path d="M230.3 246.75 L252.95 246.4 Q256.55 288.2 252.95 329.95 L244.1 365.1 Q232.85 363.6 218.15 359.1 L216.85 347.8 221.8 338.7 Q220.05 334.6 218.8 330.5 215.95 321.3 215.45 312.1 210.95 321.5 205.9 331.0 L196.0 348.65 187.6 362.5 Q184.65 366.25 182.15 370.05 174.0 370.75 166.1 370.4 172.15 353.75 180.35 337.75 L203.0 246.4 Q217.75 247.0 230.3 246.75" fill="#000000" fill-rule="evenodd" stroke="none"/>
  </g>
</svg>
