<?xml version="1.0" encoding="UTF-8" standalone="no"?>
<svg xmlns:xlink="http://www.w3.org/1999/xlink" height="42.45px" width="124.45px" xmlns="http://www.w3.org/2000/svg">
  <g transform="matrix(1.0, 0.0, 0.0, 1.0, -165.7, -308.8)">
    <path d="M173.75 328.15 L174.6 324.2 180.05 320.75 204.3 341.8 196.0 348.65 Q179.75 353.85 165.7 348.65 L165.7 346.35 165.9 338.95 166.0 338.95 Q170.05 341.25 173.25 341.5 176.5 341.7 178.75 339.65 L180.35 337.75 173.75 328.15 M224.85 345.25 Q223.15 342.0 221.8 338.7 230.0 337.85 237.05 335.85 261.0 329.05 271.45 308.8 276.75 311.65 280.75 315.85 287.25 322.7 290.15 333.05 L283.25 339.0 Q272.6 354.1 238.1 348.1 L224.85 345.25" fill="#000000" fill-rule="evenodd" stroke="none"/>
  </g>
</svg>
