<?xml version="1.0" encoding="UTF-8" standalone="no"?>
<svg xmlns:xlink="http://www.w3.org/1999/xlink" height="153.95px" width="185.4px" xmlns="http://www.w3.org/2000/svg">
  <g transform="matrix(1.0, 0.0, 0.0, 1.0, -117.8, -304.15)">
    <path d="M246.75 341.05 L242.15 331.0 257.25 320.2 272.25 307.15 280.75 313.9 286.8 318.65 Q291.2 334.2 284.5 350.85 L280.15 352.3 269.15 355.85 247.7 343.2 246.75 341.05" fill="url(#gradient0)" fill-rule="evenodd" stroke="none"/>
    <path d="M165.75 354.05 Q165.65 351.35 165.7 348.65 L165.7 346.35 165.9 338.95 166.0 338.95 Q170.05 341.25 173.25 341.5 176.5 341.7 178.75 339.65 L180.35 337.75 173.75 328.15 177.5 310.6 169.45 305.95 175.75 304.65 193.6 326.75 187.15 341.5 182.9 351.1 165.75 354.05" fill="url(#gradient1)" fill-rule="evenodd" stroke="none"/>
    <path d="M152.9 358.4 L152.9 358.45 154.4 362.6 165.9 360.1 165.8 357.3 165.75 354.05 182.9 351.1 187.15 341.5 Q193.25 344.9 195.15 350.1 L195.15 350.15 187.85 367.55 184.45 368.0 157.45 371.6 131.55 358.8 128.7 357.4 130.3 348.65 139.7 354.85 142.0 357.3 Q144.35 359.3 147.25 359.5 L148.35 359.5 Q150.5 359.4 152.9 358.4" fill="url(#gradient2)" fill-rule="evenodd" stroke="none"/>
    <path d="M184.45 368.0 L176.35 387.1 172.6 387.95 152.35 392.55 130.05 379.95 126.0 377.65 131.55 358.8 157.45 371.6 184.45 368.0" fill="url(#gradient3)" fill-rule="evenodd" stroke="none"/>
    <path d="M172.6 387.95 L170.9 392.7 Q167.8 402.2 167.4 411.65 155.45 398.3 136.25 405.15 133.8 406.0 131.25 407.2 L125.85 409.95 122.3 400.55 128.75 393.55 130.05 379.95 152.35 392.55 172.6 387.95" fill="url(#gradient4)" fill-rule="evenodd" stroke="none"/>
    <path d="M167.4 411.65 L177.4 433.95 178.05 435.6 Q176.85 447.55 163.7 451.25 L160.85 451.2 Q152.1 450.9 144.75 449.5 128.75 446.45 119.1 438.05 120.25 424.0 125.85 409.95 L131.25 407.2 Q133.8 406.0 136.25 405.15 155.45 398.3 167.4 411.65" fill="url(#gradient5)" fill-rule="evenodd" stroke="none"/>
    <path d="M255.95 390.6 L264.1 397.35 Q270.6 402.35 278.5 407.4 282.85 410.2 287.7 413.0 L293.25 416.6 Q299.75 421.55 301.55 427.3 L295.5 427.75 Q286.4 428.35 278.3 428.2 252.85 427.6 237.0 419.15 226.4 419.95 216.5 416.25 217.5 407.7 220.3 399.65 L218.65 398.05 221.2 385.5 221.9 391.45 228.15 399.55 230.65 397.5 Q241.3 389.4 255.95 390.6 M220.3 399.65 L224.0 403.2 220.3 399.65" fill="url(#gradient6)" fill-rule="evenodd" stroke="none"/>
    <path d="M258.1 386.1 L256.85 388.7 256.6 389.2 255.95 390.6 Q241.3 389.4 230.65 397.5 L228.15 399.55 221.9 391.45 221.2 385.5 220.0 375.1 253.45 387.3 258.1 386.1" fill="url(#gradient7)" fill-rule="evenodd" stroke="none"/>
    <path d="M269.0 369.2 L263.8 384.6 258.1 386.1 253.45 387.3 220.0 375.1 212.8 372.45 Q212.2 362.55 215.45 354.8 L259.95 372.35 269.0 369.2" fill="url(#gradient8)" fill-rule="evenodd" stroke="none"/>
    <path d="M221.8 338.7 L229.05 339.95 235.55 340.75 Q241.85 341.35 246.75 341.05 L247.7 343.2 269.15 355.85 280.15 352.3 274.15 367.35 269.0 369.2 259.95 372.35 215.45 354.8 213.4 354.0 Q214.2 343.55 221.8 338.7" fill="url(#gradient9)" fill-rule="evenodd" stroke="none"/>
    <path d="M152.9 358.45 L152.9 358.4 Q150.5 359.4 148.35 359.5 L147.25 359.5 Q144.35 359.3 142.0 357.3 L139.7 354.85 130.3 348.65 128.7 357.4 131.55 358.8 126.0 377.65 130.05 379.95 128.75 393.55 122.3 400.55 125.85 409.95 Q120.25 424.0 119.1 438.05 118.8 441.4 118.8 444.8 128.25 452.05 142.05 455.0 L150.25 456.35 150.6 456.4 154.65 456.8 161.15 457.1 164.2 457.1 164.5 457.05 Q169.15 455.45 172.4 453.4 182.15 447.0 178.05 435.6 L177.4 433.95 167.4 411.65 Q167.8 402.2 170.9 392.7 L172.6 387.95 176.35 387.1 184.45 368.0 187.85 367.55 195.15 350.15 195.15 350.1 M152.9 358.45 L154.4 362.6 165.9 360.1 165.8 357.3 165.75 354.05 Q165.65 351.35 165.7 348.65 L165.7 346.35 165.9 338.95 166.0 338.95 Q170.05 341.25 173.25 341.5 176.5 341.7 178.75 339.65 L180.35 337.75 173.75 328.15 177.5 310.6 169.45 305.95 M280.75 313.9 L286.8 318.65 Q291.2 334.2 284.5 350.85 L280.15 352.3 274.15 367.35 269.0 369.2 263.8 384.6 258.1 386.1 256.85 388.7 256.6 389.2 255.95 390.6 264.1 397.35 Q270.6 402.35 278.5 407.4 282.85 410.2 287.7 413.0 L293.25 416.6 Q299.75 421.55 301.55 427.3 302.1 429.05 302.2 430.95 L286.75 433.05 286.15 433.1 Q257.75 435.25 236.4 424.1 224.85 425.15 216.05 421.3 L216.5 416.25 Q217.5 407.7 220.3 399.65 L218.65 398.05 221.2 385.5 220.0 375.1 212.8 372.45 Q212.2 362.55 215.45 354.8 L213.4 354.0 Q214.2 343.55 221.8 338.7" fill="none" stroke="#000000" stroke-linecap="round" stroke-linejoin="round" stroke-width="2.0"/>
    <path d="M169.45 305.95 L175.75 304.65 193.6 326.75 187.15 341.5 Q193.25 344.9 195.15 350.1 M172.6 387.95 L152.35 392.55 130.05 379.95 M131.55 358.8 L157.45 371.6 184.45 368.0 M221.8 338.7 L229.05 339.95 235.55 340.75 Q241.85 341.35 246.75 341.05 L242.15 331.0 257.25 320.2 272.25 307.15 280.75 313.9 M187.15 341.5 L182.9 351.1 165.75 354.05 M221.2 385.5 L221.9 391.45 228.15 399.55 230.65 397.5 Q241.3 389.4 255.95 390.6 M246.75 341.05 L247.7 343.2 269.15 355.85 280.15 352.3 M220.0 375.1 L253.45 387.3 258.1 386.1 M215.45 354.8 L259.95 372.35 269.0 369.2 M301.55 427.3 L295.5 427.75 Q286.4 428.35 278.3 428.2 252.85 427.6 237.0 419.15 226.4 419.95 216.5 416.25 M224.0 403.2 L220.3 399.65 M119.1 438.05 Q128.75 446.45 144.75 449.5 152.1 450.9 160.85 451.2 L163.7 451.25 Q176.85 447.55 178.05 435.6 M125.85 409.95 L131.25 407.2 Q133.8 406.0 136.25 405.15 155.45 398.3 167.4 411.65" fill="none" stroke="#000000" stroke-linecap="round" stroke-linejoin="round" stroke-width="1.0"/>
    <path d="M147.25 359.5 L146.2 366.05 138.85 362.4 146.2 366.05 142.85 387.15 136.35 383.5 142.85 387.15 141.2 397.25 135.75 403.5 136.25 405.15 Q133.8 406.0 131.25 407.2 133.8 406.0 136.25 405.15 L138.25 411.95 Q132.25 425.05 134.4 438.15 L160.85 451.2 Q152.1 450.9 144.75 449.5 133.45 447.05 123.95 441.35 124.8 425.75 132.15 410.1 L131.25 407.2 129.75 402.6 134.95 395.45 136.35 383.5 138.85 362.4 139.7 354.85 142.0 357.3 Q144.35 359.3 147.25 359.5 M229.05 339.95 L235.55 340.75 228.35 351.9 229.25 360.25 223.55 358.0 229.25 360.25 231.3 379.2 232.25 388.25 230.65 397.5 228.4 410.3 242.35 413.2 Q264.25 423.1 295.5 427.75 286.4 428.35 278.3 428.2 256.2 427.25 239.85 419.3 L221.45 417.0 224.0 403.2 225.35 395.95 226.85 387.8 225.7 377.15 231.3 379.2 225.7 377.15 223.55 358.0 222.75 350.7 229.05 339.95 M275.4 309.65 L280.75 313.9 281.9 314.8 270.2 355.55 269.15 355.85 263.45 352.5 275.4 309.65 M230.65 397.5 L228.15 399.55 225.35 395.95 228.15 399.55 230.65 397.5" fill="#ffffff" fill-opacity="0.2509804" fill-rule="evenodd" stroke="none"/>
    <path d="M184.45 368.0 L187.85 367.55 195.15 350.15 195.15 350.1 M165.75 354.05 L165.8 357.3 165.9 360.1 154.4 362.6 152.9 358.45 152.9 358.4 Q150.5 359.4 148.35 359.5 L147.25 359.5 Q144.35 359.3 142.0 357.3 L139.7 354.85 130.3 348.65 128.7 357.4 131.55 358.8 126.0 377.65 130.05 379.95 128.75 393.55 122.3 400.55 125.85 409.95 Q120.25 424.0 119.1 438.05 118.8 441.4 118.8 444.8 128.25 452.05 142.05 455.0 L150.25 456.35 150.6 456.4 154.65 456.8 161.15 457.1 164.2 457.1 164.5 457.05 Q169.15 455.45 172.4 453.4 182.15 447.0 178.05 435.6 L177.4 433.95 167.4 411.65 Q167.8 402.2 170.9 392.7 L172.6 387.95 176.35 387.1 184.45 368.0 M280.75 313.9 L281.9 314.8 286.8 318.65 Q291.2 334.2 284.5 350.85 L280.15 352.3 274.15 367.35 269.0 369.2 263.8 384.6 258.1 386.1 256.85 388.7 256.6 389.2 255.95 390.6 264.1 397.35 Q270.6 402.35 278.5 407.4 282.85 410.2 287.7 413.0 L293.25 416.6 Q299.75 421.55 301.55 427.3 302.1 429.05 302.2 430.95 L286.75 433.05 286.15 433.1 Q257.75 435.25 236.4 424.1 224.85 425.15 216.05 421.3 L216.5 416.25 Q217.5 407.7 220.3 399.65 L218.65 398.05 221.2 385.5 220.0 375.1 212.8 372.45 Q212.2 362.55 215.45 354.8 L213.4 354.0 Q214.2 343.55 221.8 338.7 M169.45 305.95 L177.5 310.6 173.75 328.15 180.35 337.75 178.75 339.65 Q176.5 341.7 173.25 341.5 170.05 341.25 166.0 338.95 L165.9 338.95 165.7 346.35 165.7 348.65 Q165.65 351.35 165.75 354.05" fill="none" stroke="#000000" stroke-linecap="round" stroke-linejoin="round" stroke-width="2.0"/>
    <path d="M146.2 366.05 L157.45 371.6 184.45 368.0 M195.15 350.1 Q193.25 344.9 187.15 341.5 L182.9 351.1 165.75 354.05 M138.85 362.4 L146.2 366.05 M142.85 387.15 L152.35 392.55 172.6 387.95 M131.55 358.8 L138.85 362.4 M136.35 383.5 L142.85 387.15 M136.25 405.15 Q155.45 398.3 167.4 411.65 M130.05 379.95 L136.35 383.5 M131.25 407.2 Q133.8 406.0 136.25 405.15 M160.85 451.2 L163.7 451.25 Q176.85 447.55 178.05 435.6 M229.05 339.95 L235.55 340.75 Q241.85 341.35 246.75 341.05 L242.15 331.0 257.25 320.2 272.25 307.15 275.4 309.65 280.75 313.9 M221.8 338.7 L229.05 339.95 M223.55 358.0 L229.25 360.25 259.95 372.35 269.0 369.2 M169.45 305.95 L175.75 304.65 193.6 326.75 187.15 341.5 M221.2 385.5 L221.9 391.45 225.35 395.95 228.15 399.55 230.65 397.5 Q241.3 389.4 255.95 390.6 M225.7 377.15 L220.0 375.1 M231.3 379.2 L225.7 377.15 M223.55 358.0 L215.45 354.8 M231.3 379.2 L253.45 387.3 258.1 386.1 M246.75 341.05 L247.7 343.2 263.45 352.5 269.15 355.85 270.2 355.55 280.15 352.3 M301.55 427.3 L295.5 427.75 Q286.4 428.35 278.3 428.2 252.85 427.6 237.0 419.15 226.4 419.95 216.5 416.25 M224.0 403.2 L220.3 399.65 M125.85 409.95 L131.25 407.2 M144.75 449.5 Q152.1 450.9 160.85 451.2 M119.1 438.05 Q128.75 446.45 144.75 449.5" fill="none" stroke="#000000" stroke-linecap="round" stroke-linejoin="round" stroke-width="1.0"/>
  </g>
  <defs>
    <radialGradient cx="0" cy="0" gradientTransform="matrix(0.0468, 0.0, 0.0, 0.0468, 255.45, 340.75)" gradientUnits="userSpaceOnUse" id="gradient0" r="819.2" spreadMethod="pad">
      <stop offset="0.0" stop-color="#000000" stop-opacity="0.0"/>
      <stop offset="1.0" stop-color="#000000" stop-opacity="0.2509804"/>
    </radialGradient>
    <radialGradient cx="0" cy="0" gradientTransform="matrix(0.0528, 0.0, 0.0, 0.0528, 168.75, 347.35)" gradientUnits="userSpaceOnUse" id="gradient1" r="819.2" spreadMethod="pad">
      <stop offset="0.0" stop-color="#000000" stop-opacity="0.0"/>
      <stop offset="1.0" stop-color="#000000" stop-opacity="0.2509804"/>
    </radialGradient>
    <radialGradient cx="0" cy="0" gradientTransform="matrix(0.0685, 0.0, 0.0, 0.0685, 139.7, 359.05)" gradientUnits="userSpaceOnUse" id="gradient2" r="819.2" spreadMethod="pad">
      <stop offset="0.0" stop-color="#000000" stop-opacity="0.0"/>
      <stop offset="1.0" stop-color="#000000" stop-opacity="0.2509804"/>
    </radialGradient>
    <radialGradient cx="0" cy="0" gradientTransform="matrix(0.0557, 0.0, 0.0, 0.0557, 139.2, 373.6)" gradientUnits="userSpaceOnUse" id="gradient3" r="819.2" spreadMethod="pad">
      <stop offset="0.0" stop-color="#000000" stop-opacity="0.0"/>
      <stop offset="1.0" stop-color="#000000" stop-opacity="0.2509804"/>
    </radialGradient>
    <radialGradient cx="0" cy="0" gradientTransform="matrix(0.0444, 0.0, 0.0, 0.0444, 136.85, 394.7)" gradientUnits="userSpaceOnUse" id="gradient4" r="819.2" spreadMethod="pad">
      <stop offset="0.0" stop-color="#000000" stop-opacity="0.0"/>
      <stop offset="1.0" stop-color="#000000" stop-opacity="0.2509804"/>
    </radialGradient>
    <radialGradient cx="0" cy="0" gradientTransform="matrix(0.0616, 0.0, 0.0, 0.0616, 133.6, 416.25)" gradientUnits="userSpaceOnUse" id="gradient5" r="819.2" spreadMethod="pad">
      <stop offset="0.0" stop-color="#000000" stop-opacity="0.0"/>
      <stop offset="1.0" stop-color="#000000" stop-opacity="0.2509804"/>
    </radialGradient>
    <radialGradient cx="0" cy="0" gradientTransform="matrix(0.0966, 0.0, 0.0, 0.0966, 225.95, 405.0)" gradientUnits="userSpaceOnUse" id="gradient6" r="819.2" spreadMethod="pad">
      <stop offset="0.0" stop-color="#000000" stop-opacity="0.0"/>
      <stop offset="1.0" stop-color="#000000" stop-opacity="0.2509804"/>
    </radialGradient>
    <radialGradient cx="0" cy="0" gradientTransform="matrix(0.0381, 0.0, 0.0, 0.0381, 226.85, 385.75)" gradientUnits="userSpaceOnUse" id="gradient7" r="819.2" spreadMethod="pad">
      <stop offset="0.0" stop-color="#000000" stop-opacity="0.0"/>
      <stop offset="1.0" stop-color="#000000" stop-opacity="0.2509804"/>
    </radialGradient>
    <radialGradient cx="0" cy="0" gradientTransform="matrix(0.0532, 0.0, 0.0, 0.0532, 225.45, 368.45)" gradientUnits="userSpaceOnUse" id="gradient8" r="819.2" spreadMethod="pad">
      <stop offset="0.0" stop-color="#000000" stop-opacity="0.0"/>
      <stop offset="1.0" stop-color="#000000" stop-opacity="0.2509804"/>
    </radialGradient>
    <radialGradient cx="0" cy="0" gradientTransform="matrix(0.0657, 0.0, 0.0, 0.0657, 226.4, 349.7)" gradientUnits="userSpaceOnUse" id="gradient9" r="819.2" spreadMethod="pad">
      <stop offset="0.0" stop-color="#000000" stop-opacity="0.0"/>
      <stop offset="1.0" stop-color="#000000" stop-opacity="0.2509804"/>
    </radialGradient>
  </defs>
</svg>
