<?xml version="1.0" encoding="UTF-8" standalone="no"?>
<svg xmlns:xlink="http://www.w3.org/1999/xlink" height="96.0px" width="65.35px" xmlns="http://www.w3.org/2000/svg">
  <g transform="matrix(1.0, 0.0, 0.0, 1.0, -117.8, -362.1)">
    <path d="M131.7 363.1 L131.7 363.15 126.65 367.1 126.5 373.65 Q126.05 381.8 124.8 389.7 L128.75 393.55 122.3 400.55 125.85 409.95 Q121.0 422.05 119.5 434.15 L119.1 438.05 Q118.8 441.4 118.8 444.8 135.1 457.25 164.2 457.1 183.55 450.85 178.05 435.6 L177.4 433.95 176.5 431.9 167.4 411.65 Q168.05 395.85 176.2 380.05 178.8 375.05 182.15 370.05 M131.7 363.1 L131.7 363.15" fill="none" stroke="#000000" stroke-linecap="round" stroke-linejoin="round" stroke-width="2.0"/>
    <path d="M126.5 373.65 L141.8 378.4 145.35 392.2 159.55 394.15 166.85 380.75 176.2 380.05 M182.15 370.05 Q165.3 371.55 149.3 368.3 140.35 366.45 131.7 363.1 M119.5 434.15 Q128.1 430.05 135.75 427.65 162.3 419.25 176.5 431.9 M119.1 438.05 Q127.85 445.65 141.85 448.9 151.5 451.1 163.7 451.25 176.85 447.55 178.05 435.6" fill="none" stroke="#000000" stroke-linecap="round" stroke-linejoin="round" stroke-width="1.0"/>
  </g>
</svg>
