<?xml version="1.0" encoding="UTF-8" standalone="no"?>
<svg xmlns:xlink="http://www.w3.org/1999/xlink" height="76.35px" width="90.25px" xmlns="http://www.w3.org/2000/svg">
  <g transform="matrix(1.0, 0.0, 0.0, 1.0, -212.95, -358.1)">
    <path d="M272.1 361.6 Q263.9 373.75 257.9 386.4 L255.95 390.6 Q265.55 399.25 279.25 407.9 283.3 410.45 287.7 413.0 299.1 419.4 301.55 427.3 302.1 429.1 302.2 430.95 263.6 438.3 236.4 424.1 224.85 425.15 216.05 421.3 L216.5 416.25 Q217.5 407.7 220.3 399.65 L213.95 395.3 Q216.55 383.8 215.9 370.95 L215.35 363.95 218.15 359.1" fill="none" stroke="#000000" stroke-linecap="round" stroke-linejoin="round" stroke-width="2.0"/>
    <path d="M218.15 359.1 Q226.8 361.75 234.25 363.35 260.9 369.1 272.1 361.6 M215.9 370.95 Q225.2 373.75 234.55 375.2 L245.05 376.4 248.95 385.85 257.9 386.4 M279.25 407.9 Q267.3 413.8 262.5 426.95 279.3 429.35 301.55 427.3 M262.5 426.95 Q247.55 424.75 237.0 419.15 226.4 419.95 216.5 416.25" fill="none" stroke="#000000" stroke-linecap="round" stroke-linejoin="round" stroke-width="1.0"/>
  </g>
</svg>
