<?xml version="1.0" encoding="UTF-8" standalone="no"?>
<svg xmlns:xlink="http://www.w3.org/1999/xlink" height="200.15px" width="263.65px" xmlns="http://www.w3.org/2000/svg">
  <g transform="matrix(1.0, 0.0, 0.0, 1.0, -79.65, -162.45)">
    <path d="M328.3 341.2 L328.55 348.5 Q327.15 355.85 319.7 355.3 315.3 354.55 313.85 351.6 307.5 354.55 303.75 352.4 300.95 350.75 299.65 346.3 295.2 347.85 292.4 346.3 289.9 344.95 288.65 341.25 285.1 340.7 283.25 339.0 284.9 333.6 283.5 328.15 L283.95 327.55 283.4 327.65 282.3 322.3 Q282.8 319.25 283.6 316.2 L285.95 308.0 Q288.65 300.15 292.6 292.45 L284.1 279.8 Q278.6 271.35 274.4 264.2 L269.8 256.0 269.6 242.75 270.25 229.2 270.75 224.75 Q271.3 219.95 272.2 215.75 L275.95 211.55 278.85 207.45 Q282.1 202.25 283.05 197.0 L293.3 187.3 Q293.75 182.7 293.8 178.1 L313.55 166.3 Q314.35 175.0 314.15 183.75 313.95 192.45 312.85 201.15 L311.4 210.1 322.95 230.35 321.45 239.55 Q320.3 247.35 319.6 255.15 318.7 264.35 318.4 273.55 318.05 282.7 318.3 291.8 L343.3 316.55 Q335.85 326.15 333.4 341.2 L328.3 341.2 M87.7 162.45 L144.65 180.6 156.65 189.55 156.55 190.55 Q155.85 196.4 154.5 202.3 152.9 209.25 150.35 216.25 L150.25 216.5 148.45 221.1 Q145.55 227.9 141.8 234.75 L146.8 248.1 Q145.4 256.65 145.1 265.2 144.8 272.75 145.35 280.3 145.65 284.95 146.3 289.6 L146.8 292.85 177.5 310.6 173.75 328.15 180.35 337.75 178.75 339.65 Q176.5 341.7 173.25 341.5 170.05 341.25 166.0 338.95 165.7 343.8 165.7 348.65 165.65 354.35 165.9 360.1 L154.4 362.6 152.9 358.4 Q144.85 361.8 139.7 354.85 L113.85 337.75 114.5 332.4 115.85 320.0 117.15 305.65 Q108.15 297.65 101.3 289.35 111.35 289.05 121.15 287.25 L115.35 270.3 Q101.5 271.05 87.7 268.9 81.8 257.35 79.65 245.3 93.65 250.35 108.9 251.4 L108.9 251.35 114.5 234.5 Q99.15 232.25 86.25 225.25 84.75 216.1 84.25 207.05 100.15 212.3 117.1 215.9 L119.85 195.9 Q102.1 191.75 84.4 185.85 85.2 174.1 87.7 162.45" fill="#000000" fill-rule="evenodd" stroke="none"/>
  </g>
</svg>
