<?xml version="1.0" encoding="UTF-8" standalone="no"?>
<svg xmlns:xlink="http://www.w3.org/1999/xlink" height="28.35px" width="234.65px" xmlns="http://www.w3.org/2000/svg">
  <g transform="matrix(1.0, 0.0, 0.0, 1.0, -79.65, -191.7)">
    <path d="M79.95 195.65 Q81.0 191.9 83.65 191.7 100.35 200.25 152.15 201.75 L153.9 202.0 Q156.0 202.55 156.4 204.55 157.2 207.6 152.8 210.55 153.9 219.25 147.65 219.85 L144.85 219.9 135.7 220.05 113.95 218.75 Q102.95 217.4 87.4 212.3 L85.4 211.55 Q79.35 208.6 82.15 204.15 L82.65 201.7 Q78.75 198.7 79.95 195.65 M303.9 213.65 L274.2 213.65 Q280.2 206.85 282.3 200.05 L312.95 197.9 Q315.55 199.3 313.05 203.1 311.55 205.65 312.35 208.15 315.05 210.7 309.65 213.3 L303.9 213.65" fill="#000000" fill-rule="evenodd" stroke="none"/>
  </g>
</svg>
