<?xml version="1.0" encoding="UTF-8" standalone="no"?>
<svg xmlns:xlink="http://www.w3.org/1999/xlink" height="48.3px" width="47.6px" xmlns="http://www.w3.org/2000/svg">
  <g transform="matrix(1.0, 0.0, 0.0, 1.0, -274.15, -245.65)">
    <path d="M274.4 264.2 L274.45 264.2 Q292.55 263.15 306.25 256.05 L313.4 251.65 Q317.2 248.95 320.6 245.65 323.25 247.7 319.8 253.05 316.6 255.95 312.75 258.45 L305.6 262.3 Q293.95 267.55 277.7 269.65 273.25 267.45 274.4 264.2 M289.5 287.9 L304.25 288.6 311.3 288.1 Q315.7 287.5 318.2 286.15 321.05 289.25 318.3 291.8 L311.25 293.4 304.25 293.95 Q298.4 293.9 292.6 292.45 287.8 291.35 289.5 287.9" fill="#000000" fill-rule="evenodd" stroke="none"/>
  </g>
</svg>
