<?xml version="1.0" encoding="UTF-8" standalone="no"?>
<svg xmlns:xlink="http://www.w3.org/1999/xlink" height="102.3px" width="251.1px" xmlns="http://www.w3.org/2000/svg">
  <g transform="matrix(1.0, 0.0, 0.0, 1.0, -75.75, -231.3)">
    <path d="M145.2 260.65 Q137.65 264.6 130.6 269.35 118.75 277.2 108.35 287.2 L94.3 281.0 89.45 278.9 76.75 252.45 Q107.9 239.5 145.75 238.5 L148.6 258.95 145.2 260.65" fill="url(#gradient0)" fill-rule="evenodd" stroke="none"/>
    <path d="M94.3 281.0 L108.35 287.2 Q118.75 277.2 130.6 269.35 137.65 264.6 145.2 260.65 L151.95 276.9 Q150.35 278.15 149.0 279.55 L145.95 282.25 138.2 289.7 Q131.15 296.85 124.55 304.95 122.95 306.6 121.5 308.5 L110.9 302.1 107.1 300.45 94.3 281.0" fill="url(#gradient1)" fill-rule="evenodd" stroke="none"/>
    <path d="M110.9 302.1 L121.5 308.5 Q122.95 306.6 124.55 304.95 131.15 296.85 138.2 289.7 L145.95 282.25 149.0 279.55 158.55 294.85 Q156.85 296.45 155.4 298.2 143.65 310.7 136.5 328.05 L134.5 333.1 115.6 323.55 112.05 321.75 110.9 302.1" fill="url(#gradient2)" fill-rule="evenodd" stroke="none"/>
    <path d="M321.8 235.8 L324.45 236.65 324.65 255.55 321.8 254.5 Q308.2 249.7 294.6 248.8 L295.65 238.55 Q295.95 235.25 296.4 232.0 309.45 232.15 321.8 235.8" fill="url(#gradient3)" fill-rule="evenodd" stroke="none"/>
    <path d="M294.6 248.8 Q308.2 249.7 321.8 254.5 L323.7 275.5 323.2 275.35 323.05 275.3 320.4 274.25 Q307.15 269.1 293.05 270.05 L293.55 264.45 293.95 258.7 293.95 257.65 294.6 248.8 M277.85 273.5 L276.45 274.65 269.8 256.0 274.4 264.2 279.3 272.25 277.85 273.5" fill="url(#gradient4)" fill-rule="evenodd" stroke="none"/>
    <path d="M296.4 232.0 Q295.95 235.25 295.65 238.55 L294.6 248.8 293.95 257.65 293.95 258.7 293.55 264.45 293.05 270.05 Q307.15 269.1 320.4 274.25 L323.9 297.45 Q317.05 294.4 309.95 293.15 301.55 291.55 292.6 292.5 L292.55 292.55 288.45 295.45 277.85 273.5 279.3 272.25 274.4 264.2 269.8 256.0 269.65 250.7 269.6 242.75 269.8 236.05 269.9 234.05 Q282.8 231.2 296.4 232.0 M269.65 250.7 Q280.95 247.75 294.6 248.8 280.95 247.75 269.65 250.7 M292.55 292.4 L292.6 292.5 292.55 292.4 292.55 292.55 292.55 292.4 292.3 291.8 292.55 292.35 292.55 292.4 M279.3 272.25 Q286.15 269.65 293.05 270.05 286.15 269.65 279.3 272.25" fill="url(#gradient5)" fill-rule="evenodd" stroke="none"/>
    <path d="M321.8 254.5 L324.65 255.55 324.45 236.65 321.8 235.8 M321.8 254.5 L323.7 275.5 323.2 275.35 323.05 275.3 320.4 274.25 323.9 297.45 M292.55 292.55 L288.45 295.45 277.85 273.5 276.45 274.65 269.8 256.0 M145.2 260.65 L148.6 258.95 145.75 238.5 M76.75 252.45 L89.45 278.9 94.3 281.0 107.1 300.45 110.9 302.1 112.05 321.75 115.6 323.55 M149.0 279.55 Q150.35 278.15 151.95 276.9 L145.2 260.65 M155.4 298.2 Q156.85 296.45 158.55 294.85 L149.0 279.55" fill="none" stroke="#000000" stroke-linecap="round" stroke-linejoin="round" stroke-width="2.0"/>
    <path d="M321.8 235.8 Q309.45 232.15 296.4 232.0 282.8 231.2 269.9 234.05 L269.8 236.05 269.6 242.75 269.65 250.7 269.8 256.0 M294.6 248.8 Q308.2 249.7 321.8 254.5 M323.9 297.45 Q317.05 294.4 309.95 293.15 301.55 291.55 292.6 292.5 L292.55 292.55 292.55 292.4 292.55 292.35 M94.3 281.0 L108.35 287.2 Q118.75 277.2 130.6 269.35 137.65 264.6 145.2 260.65 M145.75 238.5 Q107.9 239.5 76.75 252.45 M110.9 302.1 L121.5 308.5 Q122.95 306.6 124.55 304.95 131.15 296.85 138.2 289.7 L145.95 282.25 149.0 279.55 M115.6 323.55 L134.5 333.1 136.5 328.05 Q143.65 310.7 155.4 298.2 M277.85 273.5 L279.3 272.25 Q286.15 269.65 293.05 270.05 307.15 269.1 320.4 274.25 M294.6 248.8 Q280.95 247.75 269.65 250.7 M292.55 292.4 L292.6 292.5 292.55 292.4 Z" fill="none" stroke="#000000" stroke-linecap="round" stroke-linejoin="round" stroke-width="1.0"/>
    <path d="M324.55 245.3 L324.45 236.65 324.55 245.3 321.8 254.5 316.15 252.7 311.6 251.55 316.15 252.7 311.4 271.4 305.85 270.45 301.3 292.2 292.6 292.5 295.85 269.9 Q299.1 269.8 302.5 270.05 L307.3 250.6 311.6 251.55 316.0 234.35 321.8 235.8 322.1 235.9 324.45 236.65 326.85 237.5 324.55 245.3 M104.35 285.5 L91.0 247.3 Q98.7 244.85 106.8 243.1 L117.2 279.45 Q113.7 282.25 110.35 285.3 113.7 282.25 117.2 279.45 L122.1 275.45 130.95 297.5 134.3 293.8 142.7 315.35 Q139.25 321.3 136.5 328.05 L135.65 330.15 124.65 304.85 124.55 304.95 Q122.95 306.6 121.5 308.5 L120.25 307.8 110.35 285.3 108.35 287.2 104.35 285.5 M124.65 304.85 Q127.7 301.05 130.95 297.5 127.7 301.05 124.65 304.85 M302.5 270.05 L305.85 270.45 302.5 270.05" fill="#ffffff" fill-opacity="0.2509804" fill-rule="evenodd" stroke="none"/>
    <path d="M324.45 236.65 L324.55 245.3 324.65 255.55 321.8 254.5 323.7 275.5 323.2 275.35 323.05 275.3 320.4 274.2 323.9 297.45 M324.45 236.65 L322.1 235.9 M292.6 292.5 L288.45 295.45 277.85 273.5 276.45 274.65 269.8 256.0 M76.75 252.45 L89.45 278.9 94.3 281.0 107.1 300.45 110.9 302.1 112.05 321.75 115.6 323.55 M145.75 238.5 L148.6 258.95 145.2 260.65 151.95 276.9 Q150.35 278.15 149.0 279.55 L158.55 294.85 Q156.85 296.45 155.4 298.2" fill="none" stroke="#000000" stroke-linecap="round" stroke-linejoin="round" stroke-width="2.0"/>
    <path d="M322.1 235.9 L321.8 235.8 316.0 234.35 Q306.45 232.1 296.4 232.0 282.8 231.2 269.9 234.05 L269.8 236.05 269.6 242.75 269.65 250.7 269.8 256.0 M311.6 251.55 L316.15 252.7 321.8 254.5 M323.9 297.45 Q317.05 294.4 309.95 293.15 L301.3 292.2 292.6 292.5 M104.35 285.5 L108.35 287.2 110.35 285.3 Q113.7 282.25 117.2 279.45 L122.1 275.45 Q126.2 272.2 130.6 269.35 137.65 264.6 145.2 260.65 M106.8 243.1 Q98.7 244.85 91.0 247.3 83.7 249.55 76.75 252.45 M94.3 281.0 L104.35 285.5 M155.4 298.2 Q148.15 305.9 142.7 315.35 139.25 321.3 136.5 328.05 L135.65 330.15 134.5 333.1 115.6 323.55 M134.3 293.8 L138.2 289.7 145.95 282.25 149.0 279.55 M145.75 238.5 Q125.3 239.05 106.8 243.1 M130.95 297.5 L134.3 293.8 M130.95 297.5 Q127.7 301.05 124.65 304.85 L124.55 304.95 Q122.95 306.6 121.5 308.5 L120.25 307.8 110.9 302.1 M295.85 269.9 L293.05 270.05 Q286.15 269.65 279.3 272.25 L277.85 273.5 M305.85 270.45 L311.4 271.4 Q315.95 272.45 320.4 274.2 M307.3 250.6 L311.6 251.55 M295.85 269.9 Q299.1 269.8 302.5 270.05 L305.85 270.45 M307.3 250.6 Q300.9 249.25 294.6 248.8 280.95 247.75 269.65 250.7" fill="none" stroke="#000000" stroke-linecap="round" stroke-linejoin="round" stroke-width="1.0"/>
  </g>
  <defs>
    <linearGradient gradientTransform="matrix(-0.0303, 0.0081, -0.0066, -0.0246, 117.7, 263.05)" gradientUnits="userSpaceOnUse" id="gradient0" spreadMethod="pad" x1="-819.2" x2="819.2">
      <stop offset="0.0" stop-color="#000000" stop-opacity="0.0"/>
      <stop offset="1.0" stop-color="#000000" stop-opacity="0.2509804"/>
    </linearGradient>
    <linearGradient gradientTransform="matrix(-0.0253, 0.0068, -0.0063, -0.0236, 126.4, 286.45)" gradientUnits="userSpaceOnUse" id="gradient1" spreadMethod="pad" x1="-819.2" x2="819.2">
      <stop offset="0.0" stop-color="#000000" stop-opacity="0.0"/>
      <stop offset="1.0" stop-color="#000000" stop-opacity="0.2509804"/>
    </linearGradient>
    <linearGradient gradientTransform="matrix(-0.0217, 0.0126, -0.0119, -0.0207, 135.25, 310.0)" gradientUnits="userSpaceOnUse" id="gradient2" spreadMethod="pad" x1="-819.2" x2="819.2">
      <stop offset="0.0" stop-color="#000000" stop-opacity="0.0"/>
      <stop offset="1.0" stop-color="#000000" stop-opacity="0.2509804"/>
    </linearGradient>
    <linearGradient gradientTransform="matrix(-0.0179, 0.0, 0.0, -0.0165, 312.65, 245.55)" gradientUnits="userSpaceOnUse" id="gradient3" spreadMethod="pad" x1="-819.2" x2="819.2">
      <stop offset="0.0" stop-color="#000000" stop-opacity="0.0"/>
      <stop offset="1.0" stop-color="#000000" stop-opacity="0.2509804"/>
    </linearGradient>
    <linearGradient gradientTransform="matrix(-0.0156, 0.0, 0.0, -0.0172, 312.15, 263.0)" gradientUnits="userSpaceOnUse" id="gradient4" spreadMethod="pad" x1="-819.2" x2="819.2">
      <stop offset="0.0" stop-color="#000000" stop-opacity="0.0"/>
      <stop offset="1.0" stop-color="#000000" stop-opacity="0.2509804"/>
    </linearGradient>
    <linearGradient gradientTransform="matrix(-0.0163, 0.0, 0.0, -0.0168, 309.1, 283.7)" gradientUnits="userSpaceOnUse" id="gradient5" spreadMethod="pad" x1="-819.2" x2="819.2">
      <stop offset="0.0" stop-color="#000000" stop-opacity="0.0"/>
      <stop offset="1.0" stop-color="#000000" stop-opacity="0.2509804"/>
    </linearGradient>
  </defs>
</svg>
