<?xml version="1.0" encoding="UTF-8" standalone="no"?>
<svg xmlns:xlink="http://www.w3.org/1999/xlink" height="56.45px" width="61.1px" xmlns="http://www.w3.org/2000/svg">
  <g transform="matrix(1.0, 0.0, 0.0, 1.0, -86.7, -250.2)">
    <path d="M117.15 305.65 Q108.2 297.65 101.3 289.35 99.1 286.75 97.2 284.15 91.6 276.65 87.7 268.9 93.05 256.2 102.3 252.2 104.5 251.4 106.65 251.0 113.1 277.55 125.5 304.1 L125.6 304.45 Q121.35 305.5 117.15 305.65" fill="#000000" fill-opacity="0.2509804" fill-rule="evenodd" stroke="none"/>
    <path d="M117.15 305.65 Q108.2 297.65 101.3 289.35 99.1 286.75 97.2 284.15 91.6 276.65 87.7 268.9 M145.1 265.2 Q144.8 272.75 145.35 280.3 L145.65 284.15 146.3 289.6 146.8 292.85" fill="none" stroke="#000000" stroke-linecap="round" stroke-linejoin="round" stroke-width="2.0"/>
    <path d="M87.7 268.9 Q93.05 256.2 102.3 252.2 104.5 251.4 106.65 251.0 115.7 249.45 124.25 255.7 132.15 261.55 145.1 265.2 M146.8 292.85 Q136.2 301.65 125.65 304.45 L125.6 304.45 Q121.35 305.5 117.15 305.65" fill="none" stroke="#000000" stroke-linecap="round" stroke-linejoin="round" stroke-width="1.0"/>
  </g>
</svg>
