<?xml version="1.0" encoding="UTF-8" standalone="no"?>
<svg xmlns:xlink="http://www.w3.org/1999/xlink" height="62.1px" width="38.0px" xmlns="http://www.w3.org/2000/svg">
  <g transform="matrix(1.0, 0.0, 0.0, 1.0, -204.3, -74.75)">
    <path d="M232.15 75.75 L226.0 76.15 Q222.4 76.35 219.55 77.4 209.7 81.05 209.4 94.75 L208.7 94.7 Q204.35 95.0 205.55 101.3" fill="none" stroke="#000000" stroke-linecap="round" stroke-linejoin="round" stroke-width="2.0"/>
    <path d="M241.75 94.65 Q242.6 81.15 232.15 75.75 M209.4 94.75 Q211.4 95.15 212.0 97.6 M205.55 101.3 Q206.05 104.35 207.1 106.35 207.75 107.45 209.15 107.85 L209.85 107.95 211.6 107.95 M209.85 107.95 L209.05 122.9 Q212.05 126.3 215.6 129.55 L219.4 132.85 223.75 136.35 238.4 136.35 239.05 128.45 232.85 128.45 230.25 130.9 222.95 130.9 220.3 113.2 239.5 117.0 239.95 116.9 241.6 95.15" fill="none" stroke="#000000" stroke-linecap="round" stroke-linejoin="round" stroke-width="1.0"/>
  </g>
</svg>
