<?xml version="1.0" encoding="UTF-8" standalone="no"?>
<svg xmlns:xlink="http://www.w3.org/1999/xlink" height="98.75px" width="238.75px" xmlns="http://www.w3.org/2000/svg">
  <g transform="matrix(1.0, 0.0, 0.0, 1.0, -78.5, -104.45)">
    <path d="M215.6 129.55 L219.4 132.85 223.75 136.35 244.45 136.35 248.0 132.1 249.15 114.0 Q251.65 111.7 252.25 108.2 L257.1 110.35 259.05 111.25 262.0 112.65 Q280.55 121.65 295.85 133.9 303.65 140.15 310.65 147.2 316.7 168.45 317.2 190.05 L317.25 194.75 313.5 195.45 292.0 198.75 Q244.35 204.8 182.85 202.65 L152.9 201.2 109.65 197.7 84.05 195.0 78.5 194.35 79.35 188.9 Q83.85 161.9 95.05 137.15 111.65 124.1 135.1 116.2 159.35 108.0 190.85 105.3 L194.1 105.0 202.55 104.45 198.95 108.2 Q202.55 114.15 209.3 118.1 L209.05 122.9 Q212.05 126.3 215.6 129.55 M277.55 196.15 L278.35 196.1 277.5 195.9 277.55 196.15" fill="#000000" fill-rule="evenodd" stroke="none"/>
  </g>
</svg>
