<?xml version="1.0" encoding="UTF-8" standalone="no"?>
<svg xmlns:xlink="http://www.w3.org/1999/xlink" height="115.95px" width="166.65px" xmlns="http://www.w3.org/2000/svg">
  <g transform="matrix(1.0, 0.0, 0.0, 1.0, -126.55, -109.85)">
    <path d="M232.05 175.9 Q232.05 171.3 235.3 168.05 238.55 164.8 243.15 164.8 L245.0 164.95 Q248.4 165.45 251.0 168.05 254.25 171.3 254.25 175.9 254.25 180.5 251.0 183.75 248.4 186.3 245.0 186.85 L243.15 187.0 Q238.55 187.0 235.3 183.75 232.05 180.5 232.05 175.9" fill="url(#gradient0)" fill-rule="evenodd" stroke="none"/>
    <path d="M241.25 198.05 Q236.15 198.05 231.9 196.05 L230.75 195.5 Q227.95 193.95 225.55 191.55 220.2 186.2 219.3 179.0 219.05 177.5 219.1 175.9 L219.15 173.8 Q219.8 165.95 225.55 160.2 228.05 157.7 231.0 156.15 L231.5 155.9 Q233.65 154.85 236.05 154.3 L241.25 153.75 245.0 154.05 247.6 154.6 248.1 154.75 251.0 155.9 Q254.2 157.5 256.9 160.2 261.1 164.35 262.6 169.65 L263.35 173.4 263.45 175.9 263.15 179.8 263.05 180.3 Q261.8 186.7 256.9 191.55 254.2 194.3 251.0 195.9 L250.6 196.1 249.05 196.7 Q247.1 197.45 245.0 197.75 L243.3 198.0 241.25 198.05 M232.05 175.9 Q232.05 180.5 235.3 183.75 238.55 187.0 243.15 187.0 L245.0 186.85 Q248.4 186.3 251.0 183.75 254.25 180.5 254.25 175.9 254.25 171.3 251.0 168.05 248.4 165.45 245.0 164.95 L243.15 164.8 Q238.55 164.8 235.3 168.05 232.05 171.3 232.05 175.9" fill="url(#gradient1)" fill-rule="evenodd" stroke="none"/>
    <path d="M231.0 156.15 Q228.05 157.7 225.55 160.2 219.8 165.95 219.15 173.8 L219.1 175.9 Q219.05 177.5 219.3 179.0 220.2 186.2 225.55 191.55 227.95 193.95 230.75 195.5 L231.9 196.05 Q236.15 198.05 241.25 198.05 L241.3 198.35 238.15 198.55 Q233.8 198.55 230.05 197.1 L228.9 196.6 Q225.4 195.0 222.45 192.05 217.6 187.2 216.4 180.9 215.95 178.7 215.95 176.4 215.95 175.05 216.1 173.8 L216.3 172.45 216.35 172.1 Q217.5 165.6 222.45 160.7 225.9 157.25 230.1 155.6 L231.0 156.15" fill="url(#gradient2)" fill-rule="evenodd" stroke="none"/>
    <path d="M241.25 198.05 Q236.15 198.05 231.9 196.05 L230.75 195.5 Q227.95 193.95 225.55 191.55 220.2 186.2 219.3 179.0 219.05 177.5 219.1 175.9 L219.15 173.8 Q219.8 165.95 225.55 160.2 228.05 157.7 231.0 156.15 L230.1 155.6 Q225.9 157.25 222.45 160.7 217.5 165.6 216.35 172.1 L216.3 172.45 216.1 173.8 Q215.95 175.05 215.95 176.4 215.95 178.7 216.4 180.9 217.6 187.2 222.45 192.05 225.4 195.0 228.9 196.6 L230.05 197.1 Q233.8 198.55 238.15 198.55 L241.3 198.35 243.3 198.0 245.0 197.75 Q247.1 197.45 249.05 196.7 L250.6 196.1 251.0 195.9 Q254.2 194.3 256.9 191.55 261.8 186.7 263.05 180.3 L263.15 179.8 263.45 175.9 263.35 173.4 262.6 169.65 Q261.1 164.35 256.9 160.2 254.2 157.5 251.0 155.9 L248.1 154.75 247.6 154.6 245.0 154.05 241.25 153.75 236.05 154.3 Q233.65 154.85 231.5 155.9 L231.0 156.15 M241.25 198.05 L243.3 198.0 M231.5 155.9 L230.75 155.4 230.1 155.6 M154.05 110.85 Q195.15 130.7 230.75 155.4 233.25 154.5 236.05 154.3 M232.05 175.9 Q232.05 171.3 235.3 168.05 238.55 164.8 243.15 164.8 L245.0 164.95 Q248.4 165.45 251.0 168.05 254.25 171.3 254.25 175.9 254.25 180.5 251.0 183.75 248.4 186.3 245.0 186.85 L243.15 187.0 Q238.55 187.0 235.3 183.75 232.05 180.5 232.05 175.9 M263.15 179.8 Q273.35 188.15 283.05 197.0 282.1 202.25 278.85 207.45 L275.95 211.55 272.2 215.75 Q260.9 206.0 249.05 196.7 M292.2 131.05 Q283.9 154.35 263.35 173.4 M247.6 154.6 Q266.85 140.05 279.1 122.1 M150.25 216.5 L150.35 216.25 Q152.9 209.25 154.5 202.3 L155.8 195.7 Q190.0 186.7 216.1 173.8 M230.05 197.1 Q201.6 213.0 161.2 224.8 M216.3 172.45 Q174.75 143.4 127.55 118.95" fill="none" stroke="#000000" stroke-linecap="round" stroke-linejoin="round" stroke-width="1.0"/>
    <path d="M279.1 122.1 Q285.9 126.3 292.2 131.05 M127.55 118.95 Q131.25 117.5 135.1 116.2 144.1 113.15 154.05 110.85 M161.2 224.8 Q153.85 222.85 150.25 216.5" fill="none" stroke="#000000" stroke-linecap="round" stroke-linejoin="round" stroke-width="2.0"/>
    <path d="M243.3 198.0 L238.15 198.55 Q233.8 198.55 230.05 197.1 L228.9 196.6 Q225.4 195.0 222.45 192.05 217.6 187.2 216.4 180.9 215.95 178.7 215.95 176.4 215.95 175.05 216.1 173.8 L216.3 172.45 216.35 172.1 Q217.5 165.6 222.45 160.7 225.9 157.25 230.1 155.6 L231.0 156.15 Q228.05 157.7 225.55 160.2 219.8 165.95 219.15 173.8 L219.1 175.9 Q219.05 177.5 219.3 179.0 220.2 186.2 225.55 191.55 227.95 193.95 230.75 195.5 L231.9 196.05 Q236.15 198.05 241.25 198.05 L243.3 198.0 M245.0 184.1 L245.05 184.1 245.0 184.1 Q232.5 184.9 234.6 172.8 237.15 182.1 245.0 184.1" fill="#000000" fill-opacity="0.2509804" fill-rule="evenodd" stroke="none"/>
    <path d="M245.0 154.05 L247.6 154.6 248.1 154.75 251.0 155.9 251.0 168.05 Q248.4 165.45 245.0 164.95 L245.0 154.05 M249.05 196.7 Q247.1 197.45 245.0 197.75 L245.0 186.85 Q248.4 186.3 251.0 183.75 L251.0 195.9 250.6 196.1 249.05 196.7 M241.75 169.05 L236.95 169.05 Q241.65 166.9 245.0 167.4 248.9 167.95 251.0 172.2 L251.7 173.9 Q252.75 177.2 251.0 180.05 250.1 181.5 248.5 182.85 250.25 177.4 249.8 176.3 L245.0 175.8 Q240.6 174.4 241.75 169.05" fill="#ffffff" fill-opacity="0.2509804" fill-rule="evenodd" stroke="none"/>
    <path d="M154.05 110.85 Q195.15 130.7 230.75 155.4 233.25 154.5 236.05 154.3 L241.25 153.75 245.0 154.05 247.6 154.6 Q266.85 140.05 279.1 122.1 M292.2 131.05 Q283.9 154.35 263.35 173.4 L263.45 175.9 263.15 179.8 Q273.35 188.15 283.05 197.0 282.1 202.25 278.85 207.45 L275.95 211.55 272.2 215.75 Q260.9 206.0 249.05 196.7 247.1 197.45 245.0 197.75 L243.3 198.0 238.15 198.55 Q233.8 198.55 230.05 197.1 201.6 213.0 161.2 224.8 M150.25 216.5 L150.35 216.25 Q152.9 209.25 154.5 202.3 L155.8 195.7 Q190.0 186.7 216.1 173.8 L216.3 172.45 Q174.75 143.4 127.55 118.95 M231.0 156.15 L231.5 155.9 230.75 155.4 230.1 155.6 231.0 156.15 Q228.05 157.7 225.55 160.2 219.8 165.95 219.15 173.8 L219.1 175.9 Q219.05 177.5 219.3 179.0 220.2 186.2 225.55 191.55 227.95 193.95 230.75 195.5 L231.9 196.05 Q236.15 198.05 241.25 198.05 L243.3 198.0 M231.5 155.9 Q233.65 154.85 236.05 154.3 M216.3 172.45 L216.35 172.1 Q217.5 165.6 222.45 160.7 225.9 157.25 230.1 155.6 M230.05 197.1 L228.9 196.6 Q225.4 195.0 222.45 192.05 217.6 187.2 216.4 180.9 215.95 178.7 215.95 176.4 215.95 175.05 216.1 173.8 M245.0 164.95 L243.15 164.8 Q238.55 164.8 235.3 168.05 232.05 171.3 232.05 175.9 232.05 180.5 235.3 183.75 238.55 187.0 243.15 187.0 L245.0 186.85 Q248.4 186.3 251.0 183.75 254.25 180.5 254.25 175.9 254.25 171.3 251.0 168.05 248.4 165.45 245.0 164.95 M247.6 154.6 L248.1 154.75 251.0 155.9 Q254.2 157.5 256.9 160.2 261.1 164.35 262.6 169.65 L263.35 173.4 M263.15 179.8 L263.05 180.3 Q261.8 186.7 256.9 191.55 254.2 194.3 251.0 195.9 L250.6 196.1 249.05 196.7" fill="none" stroke="#000000" stroke-linecap="round" stroke-linejoin="round" stroke-width="1.0"/>
    <path d="M279.1 122.1 Q285.9 126.3 292.2 131.05 M161.2 224.8 Q153.85 222.85 150.25 216.5 M127.55 118.95 Q131.25 117.5 135.1 116.2 144.1 113.15 154.05 110.85" fill="none" stroke="#000000" stroke-linecap="round" stroke-linejoin="round" stroke-width="2.0"/>
  </g>
  <defs>
    <radialGradient cx="0" cy="0" gradientTransform="matrix(0.0282, 0.0, 0.0, 0.0282, 234.2, 182.5)" gradientUnits="userSpaceOnUse" id="gradient0" r="819.2" spreadMethod="pad">
      <stop offset="0.0" stop-color="#000000" stop-opacity="0.0"/>
      <stop offset="1.0" stop-color="#000000" stop-opacity="0.2509804"/>
    </radialGradient>
    <radialGradient cx="0" cy="0" gradientTransform="matrix(0.0515, 0.0, 0.0, 0.0515, 226.3, 189.15)" gradientUnits="userSpaceOnUse" id="gradient1" r="819.2" spreadMethod="pad">
      <stop offset="0.0" stop-color="#000000" stop-opacity="0.0"/>
      <stop offset="1.0" stop-color="#000000" stop-opacity="0.2509804"/>
    </radialGradient>
    <radialGradient cx="0" cy="0" gradientTransform="matrix(0.0424, 0.0, 0.0, 0.0424, 221.3, 189.15)" gradientUnits="userSpaceOnUse" id="gradient2" r="819.2" spreadMethod="pad">
      <stop offset="0.0" stop-color="#000000" stop-opacity="0.0"/>
      <stop offset="1.0" stop-color="#000000" stop-opacity="0.2509804"/>
    </radialGradient>
  </defs>
</svg>
