<?xml version="1.0" encoding="UTF-8" standalone="no"?>
<svg xmlns:xlink="http://www.w3.org/1999/xlink" height="27.55px" width="31.95px" xmlns="http://www.w3.org/2000/svg">
  <g transform="matrix(1.0, 0.0, 0.0, 1.0, -217.2, -235.5)">
    <path d="M222.45 256.15 L222.45 256.0 222.4 256.15 222.45 256.15 M238.15 240.9 L238.1 240.9 238.5 240.9 238.15 240.9 M243.0 236.7 L245.3 237.0 245.9 237.15 Q248.9 237.9 249.15 239.95 L247.6 259.95 Q246.25 262.95 242.4 263.05 L241.25 262.95 222.3 261.9 Q219.4 261.6 218.1 260.5 217.15 259.5 217.2 258.1 L217.2 257.65 219.05 237.9 Q219.4 235.6 222.4 235.5 L243.0 236.7" fill="#000000" fill-rule="evenodd" stroke="none"/>
  </g>
</svg>
