<?xml version="1.0" encoding="UTF-8" standalone="no"?>
<svg xmlns:xlink="http://www.w3.org/1999/xlink" height="38.35px" width="77.35px" xmlns="http://www.w3.org/2000/svg">
  <g transform="matrix(1.0, 0.0, 0.0, 1.0, -193.05, -61.9)">
    <path d="M208.9 87.5 L209.25 87.55 210.8 87.9 Q209.75 90.95 209.4 94.65 207.2 94.55 206.05 96.0 196.6 90.45 193.05 84.95 201.0 85.5 208.9 87.5 M244.4 62.05 Q250.95 60.75 253.6 70.05 255.05 75.55 255.7 81.3 256.2 86.5 256.1 91.85 L270.4 99.65 Q262.15 100.65 253.65 100.0 L244.35 98.8 Q237.85 97.7 231.2 95.65 226.0 93.1 220.9 91.2 215.85 89.3 210.85 87.9 L210.9 87.7 209.25 87.55 212.5 70.55 Q213.55 66.8 221.15 65.55 L237.9 63.65 Q240.85 62.4 244.4 62.05" fill="#000000" fill-rule="evenodd" stroke="none"/>
  </g>
</svg>
