<?xml version="1.0" encoding="UTF-8" standalone="no"?>
<svg xmlns:xlink="http://www.w3.org/1999/xlink" height="18.75px" width="49.75px" xmlns="http://www.w3.org/2000/svg">
  <g transform="matrix(1.0, 0.0, 0.0, 1.0, -205.3, -94.05)">
    <path d="M251.25 97.1 L252.05 97.25 Q253.0 97.6 253.55 98.6 254.55 99.85 254.95 102.4 L255.05 104.65 Q254.9 106.45 254.25 108.25 L252.2 111.3 Q249.15 114.4 245.75 111.05 240.45 105.4 230.75 110.8 225.45 113.35 222.35 111.25 L222.2 111.15 Q216.9 107.65 211.6 107.95 L209.85 107.95 209.15 107.85 Q207.75 107.45 207.1 106.35 206.05 104.35 205.55 101.3 204.35 95.0 208.7 94.7 L209.2 94.7 209.4 94.75 209.4 94.7 221.2 94.3 225.05 94.05 225.1 94.05 Q240.0 94.4 251.25 97.1" fill="#000000" fill-rule="evenodd" stroke="none"/>
  </g>
</svg>
