<?xml version="1.0" encoding="UTF-8" standalone="no"?>
<svg xmlns:xlink="http://www.w3.org/1999/xlink" height="52.95px" width="60.95px" xmlns="http://www.w3.org/2000/svg">
  <g transform="matrix(1.0, 0.0, 0.0, 1.0, -196.0, -89.3)">
    <path d="M250.35 98.1 L244.95 97.65 243.75 97.4 Q236.75 96.4 226.95 93.5 L224.4 103.7 233.9 108.55 230.55 141.1 Q218.55 136.15 209.6 131.05 L205.9 128.9 203.65 127.45 201.8 126.2 200.55 125.3 197.25 122.85 196.0 122.0 197.15 118.35 199.25 119.85 202.85 122.25 204.7 123.45 206.9 124.7 210.7 126.85 Q218.75 131.5 226.9 134.95 L229.3 111.55 219.65 106.6 223.25 89.3 Q235.65 92.75 243.8 93.8 L245.1 94.0 250.6 94.25 256.95 93.5 254.7 112.8 250.1 114.35 247.95 135.45 252.55 133.9 252.35 139.0 242.9 142.25 246.2 110.25 252.6 109.1 254.2 97.8 250.35 98.1" fill="#000000" fill-rule="evenodd" stroke="none"/>
  </g>
</svg>
