<?xml version="1.0" encoding="UTF-8" standalone="no"?>
<svg xmlns:xlink="http://www.w3.org/1999/xlink" height="56.6px" width="55.95px" xmlns="http://www.w3.org/2000/svg">
  <g transform="matrix(1.0, 0.0, 0.0, 1.0, -199.7, -91.45)">
    <path d="M251.45 97.05 L250.05 97.35 Q248.4 97.85 246.8 99.05 245.15 100.15 243.1 102.5 239.2 96.5 233.2 94.9 225.35 92.65 222.6 99.1 220.8 104.95 224.6 108.6 228.8 112.0 233.3 110.65 234.75 110.2 236.25 109.2 L230.85 146.9 227.9 145.35 Q213.35 137.2 208.1 127.3 L206.85 124.75 199.7 118.35 Q199.9 116.75 200.25 115.35 L208.9 121.6 Q215.7 133.8 228.6 141.15 L232.85 113.65 Q228.15 115.0 222.4 110.5 217.4 105.6 219.75 97.85 223.5 89.2 233.85 92.25 241.85 94.3 243.55 99.15 243.8 98.15 246.5 95.95 248.05 94.95 250.35 94.45 L253.35 94.0 Q255.5 93.65 255.65 99.45 L255.65 99.8 255.15 105.4 255.15 105.55 Q253.85 112.8 251.0 114.65 250.2 115.2 249.4 115.25 248.5 115.3 247.8 114.8 L245.15 140.55 Q249.75 135.05 253.1 129.25 L252.65 134.55 Q250.25 138.9 248.05 141.95 246.25 144.45 244.55 146.05 L242.0 148.05 246.45 109.95 Q247.2 111.45 248.05 112.15 248.75 112.7 249.4 112.6 L250.65 112.2 Q252.7 110.8 253.65 105.3 L254.05 102.7 254.1 100.75 Q253.95 96.65 251.45 97.05" fill="#000000" fill-rule="evenodd" stroke="none"/>
  </g>
</svg>
