<?xml version="1.0" encoding="UTF-8" standalone="no"?>
<svg xmlns:xlink="http://www.w3.org/1999/xlink" height="74.65px" width="111.65px" xmlns="http://www.w3.org/2000/svg">
  <g transform="matrix(1.0, 0.0, 0.0, 1.0, -176.0, -28.85)">
    <path d="M219.65 72.2 L224.9 59.8 216.6 46.8 219.2 45.1 228.95 60.55 226.85 81.05 220.05 78.3 216.45 76.4 219.65 72.2 216.45 76.4 220.05 78.3 226.85 81.05 222.6 85.05 214.6 92.65 210.05 90.95 207.95 90.25 Q198.1 86.35 189.95 81.9 182.9 78.2 177.0 74.05 199.0 70.1 219.65 72.2 M216.45 76.4 L213.15 80.65 214.85 81.5 221.25 84.5 222.6 85.05 221.25 84.5 214.85 81.5 213.15 80.65 216.45 76.4" fill="#000000" fill-opacity="0.2509804" fill-rule="evenodd" stroke="none"/>
    <path d="M247.6 84.7 L251.8 84.7 253.0 84.65 253.9 89.65 249.05 90.0 247.5 90.05 247.6 84.7" fill="#ffffff" fill-opacity="0.2509804" fill-rule="evenodd" stroke="none"/>
    <path d="M219.2 45.1 L216.6 46.8 224.9 59.8 219.65 72.2 Q199.0 70.1 177.0 74.05 182.9 78.2 189.95 81.9 198.1 86.35 207.95 90.25 L210.05 90.95 M219.2 45.1 L241.8 29.85 224.5 46.75 246.05 65.4 253.0 79.9 Q270.35 86.2 286.65 97.3 281.2 99.8 274.95 101.15 L261.85 94.55 266.85 102.3 Q260.85 102.75 254.25 102.2" fill="none" stroke="#000000" stroke-linecap="round" stroke-linejoin="round" stroke-width="2.0"/>
    <path d="M219.65 72.2 L216.45 76.4 220.05 78.3 226.85 81.05 Q236.35 84.3 247.0 84.75 L247.6 84.7 251.8 84.7 253.0 84.65 255.2 84.5 253.0 79.9 M254.25 102.2 L250.9 101.85 249.4 101.7 Q241.05 100.55 231.85 98.05 L231.75 98.05 223.7 95.7 217.55 93.7 217.05 93.5 214.6 92.65 210.05 90.95 M222.6 85.05 L221.25 84.5 214.85 81.5 213.15 80.65 216.45 76.4 M247.5 90.05 L249.05 90.0 253.9 89.65 254.3 89.65 254.65 89.55 257.55 89.2 255.2 84.5 M247.5 90.05 Q235.15 90.05 222.6 85.05" fill="none" stroke="#000000" stroke-linecap="round" stroke-linejoin="round" stroke-width="1.0"/>
  </g>
</svg>
