<?xml version="1.0" encoding="UTF-8" standalone="no"?>
<svg xmlns:xlink="http://www.w3.org/1999/xlink" height="95.7px" width="59.25px" xmlns="http://www.w3.org/2000/svg">
  <g transform="matrix(1.0, 0.0, 0.0, 1.0, -279.9, -118.05)">
    <path d="M290.45 168.75 L322.95 172.4 326.4 176.55 329.7 181.8 332.3 187.2 329.7 181.8 326.4 176.55 322.95 172.4 290.45 168.75 286.55 168.3 280.4 153.55 Q286.3 144.55 289.25 136.6 L289.7 135.25 290.3 132.85 Q291.0 128.9 289.4 125.15 288.1 122.0 285.25 119.05 351.8 138.85 334.65 194.2 333.65 190.5 332.3 187.2 331.9 195.55 327.25 203.15 L325.15 199.65 322.65 196.15 319.95 193.0 Q316.5 189.2 312.45 186.3 L293.65 184.0 312.45 186.3 Q316.5 189.2 319.95 193.0 L322.65 196.15 325.15 199.65 Q324.05 206.2 319.65 212.75 L315.75 208.75 314.8 212.0 313.85 211.9 285.2 207.95 289.85 197.25 293.65 184.0 290.45 183.55 290.45 168.75 M315.75 208.75 L307.15 199.8 289.85 197.25 307.15 199.8 315.75 208.75" fill="url(#gradient0)" fill-rule="evenodd" stroke="none"/>
    <path d="M332.3 187.2 L329.7 181.8 326.4 176.55 322.95 172.4 290.45 168.75 290.45 183.55 293.65 184.0 312.45 186.3 Q316.5 189.2 319.95 193.0 L322.65 196.15 325.15 199.65 M290.3 132.85 L289.7 135.25 289.25 136.6 Q286.3 144.55 280.4 153.55 L286.55 168.3 290.45 168.75 M313.85 211.9 L285.2 207.95 289.85 197.25 293.65 184.0 M289.85 197.25 L307.15 199.8 315.75 208.75" fill="none" stroke="#000000" stroke-linecap="round" stroke-linejoin="round" stroke-width="1.0"/>
    <path d="M325.15 199.65 L327.25 203.15 Q331.9 195.55 332.3 187.2 333.65 190.5 334.65 194.2 351.8 138.85 285.25 119.05 288.1 122.0 289.4 125.15 291.0 128.9 290.3 132.85 M315.75 208.75 L319.65 212.75 Q324.05 206.2 325.15 199.65 M315.75 208.75 L314.8 212.0 313.85 211.9" fill="none" stroke="#000000" stroke-linecap="round" stroke-linejoin="round" stroke-width="2.0"/>
    <path d="M289.4 125.15 Q333.85 139.0 329.7 181.8 L326.4 176.55 322.65 196.15 319.95 193.0 Q316.5 189.2 312.45 186.3 316.5 189.2 319.95 193.0 L315.75 208.75 314.8 212.0 313.85 211.9 309.1 211.25 311.4 204.25 307.15 199.8 309.4 185.95 312.45 186.3 315.7 171.55 319.2 172.0 Q317.9 146.05 289.25 136.6 L289.7 135.25 290.3 132.85 Q291.0 128.9 289.4 125.15 M326.4 176.55 L322.95 172.4 319.2 172.0 322.95 172.4 326.4 176.55 M311.4 204.25 L315.75 208.75 311.4 204.25" fill="#ffffff" fill-opacity="0.2509804" fill-rule="evenodd" stroke="none"/>
    <path d="M329.7 181.8 L332.3 187.2 M313.85 211.9 L309.1 211.25 285.2 207.95 289.85 197.25 293.65 184.0 290.45 183.55 290.45 168.75 286.55 168.3 280.4 153.55 Q286.3 144.55 289.25 136.6 L289.7 135.25 290.3 132.85 M329.7 181.8 L326.4 176.55 322.95 172.4 319.2 172.0 315.7 171.55 290.45 168.75 M322.65 196.15 L325.15 199.65 M312.45 186.3 Q316.5 189.2 319.95 193.0 L322.65 196.15 M309.4 185.95 L312.45 186.3 M309.4 185.95 L293.65 184.0 M311.4 204.25 L307.15 199.8 289.85 197.25 M315.75 208.75 L311.4 204.25" fill="none" stroke="#000000" stroke-linecap="round" stroke-linejoin="round" stroke-width="1.0"/>
    <path d="M332.3 187.2 Q333.65 190.5 334.65 194.2 351.8 138.85 285.25 119.05 288.1 122.0 289.4 125.15 291.0 128.9 290.3 132.85 M332.3 187.2 Q331.9 195.55 327.25 203.15 L325.15 199.65 Q324.05 206.2 319.65 212.75 L315.75 208.75 314.8 212.0 313.85 211.9" fill="none" stroke="#000000" stroke-linecap="round" stroke-linejoin="round" stroke-width="2.0"/>
  </g>
  <defs>
    <linearGradient gradientTransform="matrix(-0.0249, 0.0, 0.0, -0.0459, 308.95, 156.65)" gradientUnits="userSpaceOnUse" id="gradient0" spreadMethod="pad" x1="-819.2" x2="819.2">
      <stop offset="0.0" stop-color="#000000" stop-opacity="0.0"/>
      <stop offset="1.0" stop-color="#000000" stop-opacity="0.2509804"/>
    </linearGradient>
  </defs>
</svg>
