<?xml version="1.0" encoding="UTF-8" standalone="no"?>
<svg xmlns:xlink="http://www.w3.org/1999/xlink" height="67.05px" width="42.7px" xmlns="http://www.w3.org/2000/svg">
  <g transform="matrix(1.0, 0.0, 0.0, 1.0, -276.35, -120.75)">
    <path d="M307.15 177.45 Q302.95 185.4 293.3 187.3 293.95 180.8 293.7 174.3 301.3 175.75 307.15 177.45" fill="#000000" fill-opacity="0.2509804" fill-rule="evenodd" stroke="none"/>
    <path d="M317.5 144.0 Q316.9 148.95 315.9 153.8 301.75 148.1 287.5 143.9 285.35 136.8 281.85 130.3 299.6 136.15 317.5 144.0" fill="#ffffff" fill-opacity="0.2509804" fill-rule="evenodd" stroke="none"/>
    <path d="M277.45 121.85 L277.35 121.75 Q304.9 126.8 318.05 136.4 L317.5 144.0 Q316.9 148.95 315.9 153.8 L314.45 159.35" fill="none" stroke="#000000" stroke-linecap="round" stroke-linejoin="round" stroke-width="2.0"/>
    <path d="M314.45 159.35 Q311.75 168.8 307.15 177.45 302.95 185.4 293.3 187.3 293.95 180.8 293.7 174.3 293.3 163.85 290.5 153.45 L289.65 150.75 287.5 143.9 Q285.35 136.8 281.85 130.3 L277.45 121.85 M290.5 153.45 L290.35 152.85 289.65 150.75" fill="none" stroke="#000000" stroke-linecap="round" stroke-linejoin="round" stroke-width="1.0"/>
  </g>
</svg>
