<?xml version="1.0" encoding="UTF-8" standalone="no"?>
<svg xmlns:xlink="http://www.w3.org/1999/xlink" height="40.85px" width="17.9px" xmlns="http://www.w3.org/2000/svg">
  <g transform="matrix(1.0, 0.0, 0.0, 1.0, -165.9, -312.55)">
    <path d="M171.95 312.6 L173.7 320.5 Q177.0 319.3 178.35 322.2 178.5 325.7 175.25 325.65 L175.25 328.0 Q175.5 334.45 183.8 342.65 178.2 340.1 173.85 342.15 171.6 343.25 169.7 345.6 172.5 345.5 173.3 347.25 173.7 348.0 173.65 349.25 170.65 351.9 167.0 350.45 167.6 351.6 167.05 352.8 L165.95 353.4 165.9 353.4 165.9 351.45 166.0 345.0 166.6 344.85 Q166.4 339.25 166.65 333.7 L166.8 330.4 168.25 330.9 Q169.9 324.0 168.65 316.25 166.1 312.2 171.95 312.6" fill="#000000" fill-rule="evenodd" stroke="none"/>
  </g>
</svg>
