<?xml version="1.0" encoding="UTF-8" standalone="no"?>
<svg xmlns:xlink="http://www.w3.org/1999/xlink" height="61.55px" width="204.5px" xmlns="http://www.w3.org/2000/svg">
  <g transform="matrix(1.0, 0.0, 0.0, 1.0, -128.6, -317.75)">
    <path d="M174.15 343.05 L172.25 350.1 Q171.9 351.2 170.55 351.3 163.1 351.7 158.3 348.75 L165.05 348.25 Q167.55 347.2 168.25 342.7 168.6 340.7 166.95 338.65 164.6 337.35 160.3 337.55 151.9 336.95 145.1 333.1 138.3 329.25 137.75 329.2 135.65 329.05 134.85 331.5 134.15 336.2 137.0 339.35 137.85 340.6 149.45 346.05 145.75 346.85 130.5 339.6 129.4 338.95 129.65 337.7 130.45 330.75 132.35 324.25 L138.4 325.95 Q137.9 327.5 137.75 329.2 137.9 327.5 138.4 325.95 L167.8 334.25 175.9 336.6 174.15 343.05 M166.95 338.65 Q167.0 336.7 167.8 334.25 167.0 336.7 166.95 338.65" fill="#000000" fill-opacity="0.2509804" fill-rule="evenodd" stroke="none"/>
    <path d="M177.4 331.15 Q177.25 332.1 178.25 332.4 L205.05 339.2 211.15 340.65 216.8 341.9 222.9 343.25 Q237.1 346.25 246.85 347.5 L253.95 348.25 Q261.8 348.75 265.1 347.45 L268.0 349.45 272.0 352.0 Q279.65 356.7 288.75 361.05 L294.6 363.7 304.4 367.65 309.55 369.6 Q320.1 373.3 332.1 376.75 317.45 379.25 298.0 377.7 L291.0 377.05 284.7 376.25 277.65 375.2 Q262.9 372.75 246.0 368.55 L240.35 367.05 233.55 365.2 227.65 363.55 219.7 361.15 Q218.6 356.4 210.65 352.15 208.45 351.0 205.8 349.9 L201.65 348.3 196.05 346.5 Q187.9 344.0 177.05 341.75 174.85 341.25 174.15 343.05 L175.9 336.6 177.4 331.15 M332.1 376.75 Q326.85 377.4 305.4 372.45 L299.55 371.05 290.55 368.8 283.95 367.15 258.75 360.4 253.25 358.9 244.15 356.4 238.25 354.65 215.95 348.3 210.25 346.65 205.45 345.25 199.65 343.55 175.9 336.6 199.65 343.55 205.45 345.25 210.25 346.65 215.95 348.3 238.25 354.65 244.15 356.4 253.25 358.9 258.75 360.4 283.95 367.15 290.55 368.8 299.55 371.05 305.4 372.45 Q326.85 377.4 332.1 376.75" fill="url(#gradient0)" fill-rule="evenodd" stroke="none"/>
    <path d="M174.15 343.05 L172.25 350.1 Q171.9 351.2 170.55 351.3 163.1 351.7 158.3 348.75 L165.05 348.25 Q167.55 347.2 168.25 342.7 168.6 340.7 166.95 338.65 164.6 337.35 160.3 337.55 151.9 336.95 145.1 333.1 138.3 329.25 137.75 329.2 135.65 329.05 134.85 331.5 134.15 336.2 137.0 339.35 137.85 340.6 149.45 346.05 145.75 346.85 130.5 339.6 129.4 338.95 129.65 337.7 130.45 330.75 132.35 324.25 L133.95 319.3 Q134.15 318.75 134.75 318.75 L137.5 319.55 Q137.95 319.65 137.9 320.2 138.0 321.55 139.65 323.0 152.1 324.2 161.45 328.25 166.5 330.75 169.1 331.1 170.9 330.2 171.6 327.7 171.95 326.8 172.85 327.05 L177.35 328.1 Q178.1 328.45 177.8 329.5 L177.4 331.15 Q177.25 332.1 178.25 332.4 L205.05 339.2 211.15 340.65 216.8 341.9 222.9 343.25 Q237.1 346.25 246.85 347.5 L253.95 348.25 Q261.8 348.75 265.1 347.45 L268.0 349.45 272.0 352.0 Q279.65 356.7 288.75 361.05 L294.6 363.7 304.4 367.65 309.55 369.6 Q320.1 373.3 332.1 376.75 317.45 379.25 298.0 377.7 L291.0 377.05 284.7 376.25 277.65 375.2 Q262.9 372.75 246.0 368.55 L240.35 367.05 233.55 365.2 227.65 363.55 219.7 361.15 Q218.6 356.4 210.65 352.15 208.45 351.0 205.8 349.9 L201.65 348.3 196.05 346.5 Q187.9 344.0 177.05 341.75 174.85 341.25 174.15 343.05" fill="none" stroke="#000000" stroke-linecap="round" stroke-linejoin="round" stroke-width="2.0"/>
    <path d="M174.15 343.05 L175.9 336.6 177.4 331.15 M167.8 334.25 Q167.0 336.7 166.95 338.65 M138.4 325.95 Q137.9 327.5 137.75 329.2 M139.65 323.0 Q138.85 324.35 138.4 325.95 M167.8 334.25 Q168.3 332.8 169.1 331.1" fill="none" stroke="#000000" stroke-linecap="round" stroke-linejoin="round" stroke-width="1.0"/>
    <path d="M175.9 336.6 L199.65 343.55 205.45 345.25 210.25 346.65 215.95 348.3 238.25 354.65 244.15 356.4 253.25 358.9 258.75 360.4 283.95 367.15 290.55 368.8 299.55 371.05 305.4 372.45 Q326.85 377.4 332.1 376.75" fill="none" stroke="#000000" stroke-linecap="round" stroke-linejoin="round" stroke-opacity="0.2509804" stroke-width="0.5"/>
  </g>
  <defs>
    <linearGradient gradientTransform="matrix(-0.003, 0.0114, -0.095, -0.0255, 254.35, 357.9)" gradientUnits="userSpaceOnUse" id="gradient0" spreadMethod="pad" x1="-819.2" x2="819.2">
      <stop offset="0.0" stop-color="#000000" stop-opacity="0.0"/>
      <stop offset="1.0" stop-color="#000000" stop-opacity="0.2509804"/>
    </linearGradient>
  </defs>
</svg>
