<?xml version="1.0" encoding="UTF-8" standalone="no"?>
<svg xmlns:xlink="http://www.w3.org/1999/xlink" height="76.35px" width="101.7px" xmlns="http://www.w3.org/2000/svg">
  <g transform="matrix(1.0, 0.0, 0.0, 1.0, -100.75, -300.3)">
    <path d="M100.75 308.15 L106.8 306.7 Q106.0 308.1 105.45 309.85 104.75 311.55 104.45 313.15 L100.75 308.15 M107.2 310.45 Q108.3 307.35 109.75 305.35 111.15 302.9 112.9 301.65 114.45 300.5 116.2 300.3 112.6 305.6 116.0 308.3 L116.35 308.1 117.75 308.2 Q118.9 308.6 118.95 309.1 L118.9 309.0 118.75 308.95 Q117.05 310.05 115.75 313.6 114.5 317.15 115.1 319.05 L115.35 319.1 113.8 319.0 Q112.85 318.65 112.65 318.15 L112.6 317.8 Q108.2 317.65 107.6 324.1 106.4 322.7 105.95 320.9 105.4 318.75 105.85 316.05 106.05 313.4 107.2 310.45 M169.15 327.65 Q171.55 327.5 174.1 328.4 174.35 328.2 174.7 328.1 175.15 324.05 178.35 322.6 180.45 318.8 182.9 316.4 183.45 315.35 181.85 315.4 L179.45 315.9 Q183.0 310.95 189.0 311.1 L189.3 311.15 Q191.75 303.1 200.85 302.65 195.6 307.1 195.15 312.1 199.95 312.45 202.35 308.35 202.95 312.85 200.3 315.45 199.15 316.6 194.1 317.45 193.45 323.45 184.9 324.95 181.25 325.5 181.45 327.15 L182.1 326.05 Q182.55 325.4 183.2 325.75 183.8 326.0 183.55 326.8 L183.15 327.8 Q183.75 327.05 184.6 327.55 185.7 328.4 184.65 330.2 L184.25 330.8 183.0 332.4 181.25 334.15 Q180.5 334.7 179.95 334.75 180.15 335.95 179.85 336.9 179.45 337.85 178.55 338.65 L179.15 340.0 179.35 342.4 179.25 344.45 179.2 345.15 Q178.8 347.2 177.45 347.15 176.5 346.95 176.5 346.05 L176.1 347.1 Q175.9 347.8 175.25 347.65 174.5 347.45 174.65 346.7 L174.8 345.45 Q173.6 346.55 176.0 349.35 181.55 356.0 178.25 361.0 181.6 364.85 181.75 366.55 182.05 370.2 178.7 373.25 179.45 368.6 175.55 365.8 172.7 369.9 173.85 376.65 167.2 370.45 170.5 362.75 L170.25 362.55 Q165.55 358.85 166.05 352.75 166.7 353.9 167.55 354.65 168.7 355.7 168.95 354.55 168.7 351.15 169.5 346.95 168.0 343.75 170.25 340.35 L169.95 339.75 Q167.45 338.8 165.65 337.15 L169.15 327.65 M174.4 355.55 Q175.0 354.4 174.25 352.85 173.9 354.1 174.4 355.55" fill="#000000" fill-rule="evenodd" stroke="none"/>
  </g>
</svg>
