<?xml version="1.0" encoding="UTF-8" standalone="no"?>
<svg xmlns:xlink="http://www.w3.org/1999/xlink" height="168.95px" width="445.4px" xmlns="http://www.w3.org/2000/svg">
  <g transform="matrix(1.0, 0.0, 0.0, 1.0, 14.45, -228.55)">
    <path d="M404.9 381.6 L403.4 385.15 M132.45 316.45 L131.15 319.9 M-4.65 235.85 L-3.25 232.55 M176.75 334.7 L175.5 338.15" fill="none" stroke="#000000" stroke-linecap="round" stroke-linejoin="round" stroke-width="1.0"/>
    <path d="M403.4 385.15 L408.75 386.9 413.8 388.7 415.25 389.3 Q425.5 393.3 429.65 396.5 431.1 392.2 426.05 389.4 L404.9 381.6 404.8 381.6 -3.2 232.45 -3.75 232.25 -3.8 232.25 -4.15 232.05 Q-7.3 230.45 -9.9 229.55 -12.6 230.05 -13.45 231.85 -9.65 233.4 -6.05 235.15 L-4.65 235.85 -4.4 236.0 Q0.85 238.65 5.45 241.65 16.85 249.15 35.4 266.55 50.05 279.85 73.05 293.5 89.25 302.85 106.3 309.85 L107.35 310.4 129.55 319.25 131.15 319.9 130.95 320.4 175.35 338.6 175.5 338.15 178.35 339.35 Q205.25 350.6 230.65 361.7 241.95 366.9 253.1 371.1 277.9 380.55 327.35 378.4 L341.65 378.45 376.35 380.2 Q393.15 382.15 403.4 385.15 M-3.25 232.55 Q1.8 235.2 11.85 242.0 22.45 249.05 39.15 264.15 58.05 281.1 84.6 295.15 95.75 301.4 108.85 307.0 L130.85 315.8 132.45 316.45 132.65 315.85 176.95 334.1 176.75 334.7 179.6 335.9 Q206.95 347.35 233.05 358.7 242.95 362.85 253.2 366.7 275.7 375.15 322.25 374.6 L356.3 375.1 Q389.5 376.6 404.8 381.6 M-3.25 232.55 L-3.75 232.25" fill="none" stroke="#000000" stroke-linecap="round" stroke-linejoin="round" stroke-width="2.0"/>
    <path d="M-3.25 232.55 L-3.2 232.45" fill="none" stroke="#000000" stroke-linecap="round" stroke-linejoin="round" stroke-width="0.5"/>
  </g>
</svg>
