<?xml version="1.0" encoding="UTF-8" standalone="no"?>
<svg xmlns:xlink="http://www.w3.org/1999/xlink" height="39.95px" width="21.7px" xmlns="http://www.w3.org/2000/svg">
  <g transform="matrix(1.0, 0.0, 0.0, 1.0, -166.5, -315.15)">
    <path d="M177.15 319.95 L188.2 315.15 185.35 326.85 Q181.35 330.4 182.9 334.8 179.9 338.4 182.45 343.1 L181.2 355.1 172.5 346.8 Q171.35 341.55 166.75 340.7 L166.5 340.1 Q166.5 336.9 166.65 333.7 166.8 329.65 167.2 325.7 168.65 325.1 169.75 323.75 174.35 324.55 177.15 319.95 M172.8 329.5 L171.9 329.7 Q171.0 330.05 170.4 330.8 169.75 331.5 169.55 332.45 L169.55 333.4 Q169.7 334.85 170.85 335.85 171.95 336.8 173.5 336.7 L174.35 336.45 175.9 335.4 176.65 333.7 176.7 332.8 Q176.55 331.3 175.45 330.35 174.3 329.35 172.8 329.5" fill="#000000" fill-rule="evenodd" stroke="none"/>
  </g>
</svg>
