<?xml version="1.0" encoding="UTF-8" standalone="no"?>
<svg xmlns:xlink="http://www.w3.org/1999/xlink" height="83.05px" width="55.55px" xmlns="http://www.w3.org/2000/svg">
  <g transform="matrix(1.0, 0.0, 0.0, 1.0, -144.9, -314.55)">
    <path d="M155.1 320.25 Q154.65 320.35 154.45 320.75 154.25 321.1 154.35 321.55 154.45 321.95 154.9 322.15 L155.7 322.3 156.3 321.8 156.45 320.95 155.95 320.3 155.1 320.25 M149.4 316.15 L156.3 317.45 Q160.5 318.0 163.6 319.45 167.05 320.95 169.0 323.95 L169.3 324.15 170.45 326.75 Q172.45 326.5 173.8 328.35 L174.3 328.95 175.25 328.5 Q176.85 327.9 178.2 328.9 L181.65 329.05 181.95 329.0 182.3 329.05 183.1 329.7 Q183.45 329.9 183.6 330.6 L187.95 347.7 Q187.1 349.15 187.55 350.65 L188.6 354.6 Q188.6 354.95 188.05 355.1 L188.0 355.1 184.55 356.05 Q183.85 356.25 184.0 356.75 L183.6 355.4 181.25 345.65 Q183.8 346.3 185.2 344.5 L184.9 342.85 182.05 332.25 Q181.95 331.7 181.25 331.95 L180.45 332.1 180.3 332.25 Q179.6 331.25 177.75 331.2 L177.35 329.5 Q176.85 328.5 175.3 328.8 173.8 329.25 173.7 330.35 L174.15 332.2 Q172.8 333.05 172.65 334.25 172.25 334.3 171.9 334.5 171.0 334.65 171.15 335.9 L174.6 347.45 Q175.55 349.65 177.35 349.45 178.7 349.05 178.7 347.1 L178.8 347.05 181.5 355.5 181.65 355.9 Q181.75 356.6 181.1 356.85 180.65 357.05 180.25 356.85 L178.55 356.4 177.9 356.1 Q177.4 355.75 177.2 355.2 L175.75 351.65 Q175.0 351.7 174.45 350.75 L172.1 346.2 Q172.6 345.6 172.25 345.0 L166.45 330.9 166.05 330.6 165.4 330.75 164.95 331.25 Q164.75 330.3 163.8 329.6 L163.6 329.2 Q160.35 326.5 156.3 327.8 L153.55 328.5 Q148.95 329.55 148.3 327.15 L147.4 323.7 Q146.25 319.6 146.0 316.85 146.3 315.9 149.4 316.15 M163.6 329.2 L163.7 329.0 Q164.05 328.1 164.75 328.35 166.4 328.65 167.6 327.05 168.4 325.9 168.3 324.75 168.1 324.3 168.65 324.05 L169.0 323.95 168.65 324.05 Q168.1 324.3 168.3 324.75 168.4 325.9 167.6 327.05 166.4 328.65 164.75 328.35 164.05 328.1 163.7 329.0 L163.6 329.2 M168.9 334.0 Q168.75 334.2 168.85 334.5 L169.2 334.8 169.65 334.85 170.0 334.6 170.05 334.15 169.75 333.75 169.3 333.7 168.9 334.0 M171.1 329.3 L170.6 329.2 170.2 329.55 170.1 330.05 170.45 330.4 170.95 330.55 171.35 330.2 171.45 329.7 171.1 329.3" fill="#000000" fill-opacity="0.2509804" fill-rule="evenodd" stroke="none"/>
    <path d="M155.1 320.25 L155.95 320.3 156.45 320.95 156.3 321.8 155.7 322.3 154.9 322.15 Q154.45 321.95 154.35 321.55 154.25 321.1 154.45 320.75 154.65 320.35 155.1 320.25 M149.4 316.15 Q146.3 315.9 146.0 316.85 M153.55 328.5 Q148.95 329.55 148.3 327.15 M188.0 355.1 L188.05 355.1" fill="none" stroke="#000000" stroke-linecap="round" stroke-linejoin="round" stroke-width="0.5"/>
    <path d="M149.4 316.15 L156.3 317.45 Q160.5 318.0 163.6 319.45 167.05 320.95 169.0 323.95 L169.3 324.15 170.45 326.75 Q172.45 326.5 173.8 328.35 175.4 327.05 178.0 327.25 178.3 325.6 179.8 324.85 180.7 324.35 180.8 323.5 181.4 323.5 181.5 324.2 181.55 324.85 180.75 325.6 179.75 326.8 180.95 328.15 L181.95 329.0 182.3 329.05 183.1 329.7 Q183.45 329.9 183.6 330.6 L187.95 347.7 Q187.1 349.15 187.55 350.65 L188.6 354.6 Q188.6 354.95 188.05 355.1 L188.55 355.85 198.1 391.6 199.4 391.75 Q199.65 393.05 198.6 393.4 L199.1 395.3 Q197.05 396.85 194.6 396.55 L191.95 386.7 191.1 386.9 190.35 386.75 189.75 385.85 187.15 376.3 Q186.15 375.95 185.45 374.4 L182.9 367.6 Q181.25 363.55 179.75 360.95 178.9 359.7 178.55 358.6 L177.9 356.1 Q177.4 355.75 177.2 355.2 L175.75 351.65 Q175.0 351.7 174.45 350.75 L172.1 346.2 171.15 344.2 Q170.3 342.55 168.7 343.05 L166.8 343.4 Q164.3 343.4 163.1 341.8 161.2 339.4 161.1 336.75 161.4 334.45 163.6 333.15 165.0 332.55 164.95 331.25 164.75 330.3 163.8 329.6 L163.6 329.2 Q160.35 326.5 156.3 327.8 L153.55 328.5 Q151.55 329.1 149.5 330.0 149.0 330.3 148.75 329.5 L148.3 327.15 147.4 323.7 Q146.25 319.6 146.0 316.85 L145.9 316.45 Q145.9 315.6 146.25 315.55 L149.4 316.15" fill="none" stroke="#000000" stroke-linecap="round" stroke-linejoin="round" stroke-width="2.0"/>
    <path d="M169.0 323.95 L168.65 324.05 Q168.1 324.3 168.3 324.75 168.4 325.9 167.6 327.05 166.4 328.65 164.75 328.35 164.05 328.1 163.7 329.0 L163.6 329.2 M172.1 346.2 Q172.6 345.6 172.25 345.0 L166.45 330.9 166.05 330.6 165.4 330.75 164.95 331.25 M163.1 337.8 Q162.8 337.7 162.95 337.05 163.6 335.1 166.2 334.4 L165.25 334.1 Q163.3 334.05 162.25 336.05 161.65 337.45 162.85 340.05 163.75 341.85 165.35 342.5 167.15 342.95 168.3 341.75 169.15 340.8 168.75 339.5 L167.05 335.5 Q165.9 335.25 164.45 336.2 163.8 336.75 163.5 337.6 L163.1 337.8 M166.2 334.4 Q166.8 334.75 167.05 335.5 M168.9 334.0 L169.3 333.7 169.75 333.75 170.05 334.15 170.0 334.6 169.65 334.85 169.2 334.8 168.85 334.5 Q168.75 334.2 168.9 334.0 M178.7 347.1 Q178.7 349.05 177.35 349.45 175.55 349.65 174.6 347.45 L171.15 335.9 Q171.0 334.65 171.9 334.5 172.25 334.3 172.65 334.25 172.8 333.05 174.15 332.2 L173.7 330.35 Q173.8 329.25 175.3 328.8 176.85 328.5 177.35 329.5 L177.75 331.2 Q179.6 331.25 180.3 332.25 L180.45 332.1 181.25 331.95 Q181.95 331.7 182.05 332.25 L184.9 342.85 185.2 344.5 Q183.8 346.3 181.25 345.65 L183.6 355.4 184.0 356.75 M171.1 329.3 L171.45 329.7 171.35 330.2 170.95 330.55 170.45 330.4 170.1 330.05 170.2 329.55 170.6 329.2 171.1 329.3 M172.65 334.25 L174.6 333.7 174.15 332.2 M171.7 335.35 L174.9 347.4 Q177.4 346.1 179.75 345.4 182.45 344.55 185.05 344.55 L181.85 332.75 Q181.65 332.4 181.05 332.4 L182.9 339.0 Q183.3 340.8 182.85 341.15 182.2 341.15 181.8 339.25 L179.95 332.5 177.4 333.0 179.15 339.6 Q179.65 341.4 178.8 341.8 177.9 341.9 177.4 340.05 L175.6 333.5 173.2 334.45 175.0 341.2 Q175.45 343.0 174.95 343.3 174.35 343.3 173.9 341.45 L172.15 335.05 171.7 335.35 M173.2 334.45 Q172.65 335.15 172.15 335.05 M177.75 331.2 L178.2 332.8 180.3 332.25 M176.3 333.3 L175.6 333.5 Q176.65 333.75 177.4 333.0 L177.05 333.05 176.3 333.3 174.6 333.7 M178.2 332.8 L177.4 333.0 M181.05 332.4 L179.95 332.5 M185.2 344.5 L185.05 344.55 181.25 345.6 181.25 345.65 M181.65 355.9 Q181.85 356.2 182.15 356.15 L182.15 356.05 Q181.9 355.65 182.75 355.45 183.4 355.35 183.3 355.75 L183.3 355.95 183.6 355.4 M177.9 356.1 L178.55 356.4 180.25 356.85 Q180.65 357.05 181.1 356.85 181.75 356.6 181.65 355.9 L181.5 355.5 178.8 347.05 178.7 346.65 178.6 346.35 Q179.8 345.55 181.25 345.6 M178.7 347.1 L178.7 346.65 M174.9 347.4 L178.7 347.1 M188.55 374.0 Q188.4 373.65 188.1 373.7 L188.15 373.8 186.95 374.15 186.95 374.05 Q186.6 374.2 186.75 374.45 L187.05 375.65 188.2 375.75 188.7 375.5 188.9 375.2 M188.1 373.7 L183.3 355.95 M186.95 374.05 L182.15 356.15" fill="none" stroke="#000000" stroke-linecap="round" stroke-linejoin="round" stroke-opacity="0.5019608" stroke-width="0.5"/>
    <path d="M173.8 328.35 L174.3 328.95 175.25 328.5 Q176.85 327.9 178.2 328.9 L181.65 329.05 181.95 329.0 M184.0 356.75 Q183.85 356.25 184.55 356.05 L188.0 355.1 M188.9 375.2 L188.55 374.0 184.0 356.75 M188.9 375.2 L191.95 386.7 M198.1 391.6 L198.6 393.4" fill="none" stroke="#000000" stroke-linecap="round" stroke-linejoin="round" stroke-width="1.0"/>
  </g>
</svg>
