<?xml version="1.0" encoding="UTF-8" standalone="no"?>
<svg xmlns:xlink="http://www.w3.org/1999/xlink" height="35.6px" width="43.2px" xmlns="http://www.w3.org/2000/svg">
  <g transform="matrix(1.0, 0.0, 0.0, 1.0, -220.1, -152.8)">
    <path d="M239.45 174.0 Q230.25 172.5 225.35 169.05 221.1 167.2 220.25 163.05 219.7 160.35 221.3 157.95 222.95 155.5 226.85 154.2 230.75 152.8 237.8 152.8 246.65 152.8 251.8 155.25 256.95 157.8 259.05 163.65 L244.95 164.25 Q243.95 161.8 242.25 160.9 240.6 159.95 237.95 159.95 235.8 159.95 234.9 160.6 234.0 161.25 234.15 162.15 234.3 162.75 235.3 163.3 236.15 163.8 239.7 164.35 249.15 165.85 253.55 167.4 257.85 168.95 260.2 171.25 262.55 173.55 263.15 176.45 263.8 179.8 261.9 182.65 259.95 185.45 255.8 186.95 251.7 188.4 245.1 188.4 233.4 188.4 228.1 184.95 222.9 181.55 221.15 175.8 L235.35 175.2 Q236.45 177.9 237.8 179.05 240.15 180.9 243.8 180.9 246.5 180.9 247.8 180.0 249.0 179.05 248.75 177.9 248.5 176.8 247.0 175.9 245.4 174.95 239.45 174.0" fill="#000000" fill-rule="evenodd" stroke="none"/>
  </g>
</svg>
