<?xml version="1.0" encoding="UTF-8" standalone="no"?>
<svg xmlns:xlink="http://www.w3.org/1999/xlink" height="104.85px" width="99.3px" xmlns="http://www.w3.org/2000/svg">
  <g transform="matrix(1.0, 0.0, 0.0, 1.0, -94.9, -276.85)">
    <path d="M143.55 276.85 L144.25 276.85 Q154.05 276.85 162.6 280.0 L153.75 304.75 Q157.35 306.15 160.5 308.7 L177.1 288.3 181.3 292.15 Q190.45 301.3 194.2 312.75 L169.3 321.4 Q170.4 325.05 170.4 329.25 170.4 336.45 167.1 342.25 L189.0 356.85 Q185.8 361.8 181.3 366.3 175.95 371.7 169.8 375.25 L158.95 351.0 Q152.5 355.5 144.25 355.5 L143.55 355.5 143.55 381.7 Q134.85 381.6 127.2 379.05 L136.05 354.3 Q131.4 352.8 127.6 349.6 L111.1 369.9 107.1 366.3 Q98.65 357.85 94.9 347.35 L119.65 338.7 Q118.0 334.3 118.0 329.25 118.0 320.05 123.45 313.15 L101.65 298.6 Q104.05 295.2 107.1 292.15 115.95 283.35 126.85 279.6 L137.7 303.85 Q140.5 303.1 143.55 303.1 L143.55 276.85" fill="url(#gradient0)" fill-rule="evenodd" stroke="none"/>
  </g>
  <defs>
    <radialGradient cx="0" cy="0" gradientTransform="matrix(0.0657, 0.0, 0.0, 0.0657, 144.25, 329.25)" gradientUnits="userSpaceOnUse" id="gradient0" r="819.2" spreadMethod="pad">
      <stop offset="0.0" stop-color="#ffffff" stop-opacity="0.0"/>
      <stop offset="0.8627450980392157" stop-color="#ffffff"/>
      <stop offset="1.0" stop-color="#ffffff" stop-opacity="0.0"/>
    </radialGradient>
  </defs>
</svg>
