<?xml version="1.0" encoding="UTF-8" standalone="no"?>
<svg xmlns:xlink="http://www.w3.org/1999/xlink" height="200.5px" width="88.3px" xmlns="http://www.w3.org/2000/svg">
  <g transform="matrix(1.0, 0.0, 0.0, 1.0, -355.75, -308.5)">
    <path d="M380.15 308.5 Q386.0 310.85 391.9 311.75 L399.9 312.3 407.9 311.75 Q413.75 310.85 419.65 308.5 442.4 324.9 437.35 371.65 432.3 418.35 435.55 429.1 438.85 439.8 437.45 444.4 436.05 448.95 435.65 453.6 441.3 466.4 444.05 479.1 438.5 495.65 430.45 507.2 429.65 508.45 428.9 507.95 424.35 504.35 422.65 505.25 L422.5 505.35 Q420.75 506.3 418.4 508.45 416.0 510.6 413.35 504.45 L411.95 500.6 411.3 498.2 Q407.65 488.5 403.25 478.0 403.2 474.1 404.1 468.9 L404.75 465.4 Q404.15 464.3 403.7 462.9 401.85 457.05 402.6 446.45 L399.9 360.15 397.2 446.45 Q397.95 457.05 396.1 462.9 L395.05 465.4 395.7 468.9 Q396.6 474.1 396.55 478.0 392.15 488.5 388.5 498.2 L387.85 500.6 386.45 504.45 Q383.8 510.6 381.4 508.45 379.05 506.3 377.3 505.35 L377.15 505.25 Q375.45 504.35 370.9 507.95 370.15 508.45 369.35 507.2 361.3 495.65 355.75 479.1 358.5 466.4 364.15 453.6 363.75 448.95 362.35 444.4 360.95 439.8 364.25 429.1 367.5 418.35 362.45 371.65 357.4 324.9 380.15 308.5" fill="#000000" fill-rule="evenodd" stroke="none"/>
  </g>
</svg>
