<?xml version="1.0" encoding="UTF-8" standalone="no"?>
<svg xmlns:xlink="http://www.w3.org/1999/xlink" height="203.6px" width="90.9px" xmlns="http://www.w3.org/2000/svg">
  <g transform="matrix(1.0, 0.0, 0.0, 1.0, -354.55, -308.0)">
    <path d="M380.2 308.55 Q373.2 315.9 369.5 324.95 368.25 327.8 367.4 330.85 366.5 333.9 365.9 337.45 363.45 347.5 362.0 358.6 L361.9 359.4 Q359.2 392.6 363.5 430.1 369.45 481.55 355.05 502.15 375.65 512.55 400.0 510.85 L408.95 511.1 M430.8 507.75 Q438.1 505.65 444.95 502.2 430.55 481.55 436.5 430.1 440.8 392.6 438.1 359.4 L438.0 358.6 Q436.5 347.1 433.9 336.75 L432.5 330.85 430.7 325.55 Q426.9 316.15 419.7 308.5" fill="none" stroke="#000000" stroke-linecap="round" stroke-linejoin="round" stroke-width="1.0"/>
    <path d="M408.95 511.1 Q402.65 422.9 419.35 338.25 436.8 381.8 426.65 447.75 424.2 478.95 430.8 507.75" fill="none" stroke="#000000" stroke-linecap="round" stroke-linejoin="round" stroke-opacity="0.5019608" stroke-width="1.0"/>
  </g>
</svg>
