<?xml version="1.0" encoding="UTF-8" standalone="no"?>
<svg xmlns:xlink="http://www.w3.org/1999/xlink" height="105.95px" width="251.1px" xmlns="http://www.w3.org/2000/svg">
  <g transform="matrix(1.0, 0.0, 0.0, 1.0, -274.35, -256.95)">
    <path d="M474.2 261.8 Q475.05 261.35 475.85 260.85 L471.5 261.35 470.3 261.1 468.75 260.8 468.7 260.8 M469.65 270.25 L470.3 270.4 479.3 271.9 486.35 272.8 489.55 275.0 488.9 273.05 498.25 273.65 501.8 276.45 500.8 273.75 500.95 273.75 509.65 273.75 Q512.85 274.25 514.0 276.05 M469.65 270.25 L471.75 276.45 467.6 269.85 463.9 269.05 459.3 266.55 Q452.65 262.0 457.45 257.45 L459.3 258.15 Q463.6 259.65 468.7 260.8 M484.2 263.0 L479.3 262.5 474.2 261.8 M460.85 295.25 L459.3 296.7 459.15 296.85 M457.45 299.7 Q457.15 300.6 457.1 301.55 M460.85 295.25 L461.7 294.6 463.65 293.35 Q465.95 292.0 468.3 291.35 L471.25 287.35 471.25 290.85 Q472.95 290.7 474.65 290.9 L479.3 291.8 480.55 292.15 481.5 292.5 481.65 292.55 Q486.8 294.3 492.6 297.9 L494.45 297.9 493.45 298.45 499.1 302.35 500.3 303.25 503.25 305.65 505.75 307.7 509.75 307.7 508.35 309.95 512.45 313.75 512.3 312.85 M457.45 299.7 L455.6 292.55 459.15 296.85 M342.35 257.45 Q347.15 262.0 340.5 266.55 338.65 267.8 335.9 269.05 L332.2 269.85 328.05 276.45 330.15 270.25 329.5 270.4 320.5 271.9 313.45 272.8 310.25 275.0 310.9 273.05 301.55 273.65 298.0 276.45 299.0 273.75 298.85 273.75 290.15 273.75 Q286.95 274.25 285.8 276.05 284.75 277.65 285.3 280.2 L285.45 280.85 288.2 283.35 286.75 284.15 288.25 286.9 Q285.85 291.45 285.0 296.55 L283.05 293.7 281.85 294.85 282.3 292.55 Q278.95 287.3 277.4 283.0 L275.1 284.75 276.6 280.5 Q275.65 276.9 276.15 274.05 L274.85 274.05 276.35 273.15 Q277.75 267.85 284.55 265.5 L284.55 263.9 285.45 265.2 Q287.65 264.5 290.4 264.1 L289.7 262.2 293.9 263.75 295.85 263.6 299.5 263.65 302.7 263.6 312.95 263.2 311.05 259.4 315.6 263.0 320.5 262.5 325.6 261.8 323.95 260.85 328.3 261.35 329.5 261.1 331.05 260.8 331.1 260.8 Q336.2 259.65 340.5 258.15 L342.35 257.45 M336.15 293.35 Q333.85 292.0 331.5 291.35 L328.55 287.35 328.55 290.85 Q326.85 290.7 325.15 290.9 L320.5 291.8 319.25 292.15 318.3 292.5 318.15 292.55 M338.95 295.25 L338.1 294.6 336.15 293.35 M342.35 299.7 L344.2 292.55 340.65 296.85 340.5 296.7 338.95 295.25 M342.35 299.7 L342.7 301.55 Q342.9 304.15 341.2 307.1 L340.5 308.2 339.5 309.4 341.15 309.7 336.9 311.35 336.85 311.35 Q333.95 313.05 329.5 314.05 L328.7 314.2 332.25 306.0 Q335.8 304.25 336.15 302.65 L332.25 300.8 335.0 300.45 Q333.4 299.2 329.5 298.05 L329.1 297.9 325.1 297.55 322.05 299.75 323.1 297.8 320.5 298.45 Q316.9 299.55 312.55 302.05 L309.25 304.1 307.95 307.2 307.95 304.95 303.95 307.8 304.65 310.15 302.05 309.3 299.5 311.3 296.05 314.2 295.25 315.95 295.05 315.1 294.1 315.9 289.3 320.25 288.75 320.8 287.75 321.7 Q285.0 323.9 286.55 326.55 L288.5 325.4 287.55 327.9 289.4 329.55 290.5 335.5 290.95 337.85 288.1 337.05 284.9 334.35 284.25 335.25 284.25 333.65 Q281.55 330.85 280.65 328.1 L278.05 328.6 280.15 325.75 Q279.95 323.55 280.9 321.45 L280.2 321.25 281.1 320.95 Q282.35 318.3 285.3 315.7 L287.35 313.75 287.5 312.85 M322.45 327.45 L324.25 329.7 Q325.45 330.9 326.0 332.3 L326.55 331.55 326.4 334.45 Q326.3 338.75 320.15 344.15 L323.0 345.6 318.85 345.2 318.6 345.4 317.0 336.9 Q322.3 335.35 320.25 333.45 L317.35 332.8 318.55 332.35 317.55 331.9 317.45 331.9 314.5 332.0 311.65 334.95 312.4 333.1 Q311.65 333.7 311.05 334.6 309.65 336.65 308.8 340.2 L309.45 343.8 308.25 343.25 Q307.85 345.9 307.75 349.2 L307.25 351.55 307.85 352.85 307.0 352.4 Q306.0 355.2 304.1 357.15 L304.1 358.35 303.35 357.85 Q301.7 359.2 299.5 360.1 L299.0 360.3 296.6 361.0 296.55 361.0 294.35 361.35 291.7 361.55 290.45 362.4 290.9 361.4 289.1 360.75 286.1 362.3 286.95 360.0 284.4 359.05 285.85 359.05 284.65 357.45 287.05 359.05 288.85 359.05 287.7 357.05 290.75 359.05 291.6 359.05 292.05 357.85 293.85 358.85 297.3 357.95 296.45 356.7 298.45 357.4 299.0 357.05 299.5 356.7 Q301.55 355.2 302.5 352.75 L303.0 351.1 301.7 350.45 303.15 350.15 Q303.35 348.55 303.2 346.7 L303.0 344.1 302.25 344.1 303.0 343.45 Q302.85 339.9 303.5 337.1 L301.4 335.7 304.0 335.3 Q304.7 333.15 305.9 331.55 308.8 327.55 314.65 326.45 L315.9 326.3 315.9 324.85 316.95 326.35 Q318.6 326.5 320.95 327.25 L322.3 328.1 324.25 329.7 M512.45 313.75 L514.5 315.7 Q517.45 318.3 518.7 320.95 L519.6 321.25 518.9 321.45 Q519.85 323.55 519.65 325.75 L521.75 328.6 519.15 328.1 Q518.25 330.85 515.55 333.65 L515.55 335.25 514.9 334.35 511.7 337.05 508.85 337.85 509.3 335.5 510.4 329.55 512.25 327.9 511.3 325.4 513.25 326.55 Q514.8 323.9 512.05 321.7 L511.05 320.8 510.5 320.25 505.7 315.9 504.75 315.1 504.55 315.95 503.75 314.2 500.3 311.3 497.75 309.3 495.15 310.15 495.85 307.8 491.85 304.95 491.85 307.2 490.55 304.1 487.25 302.05 Q482.9 299.55 479.3 298.45 L476.7 297.8 477.75 299.75 474.7 297.55 470.7 297.9 470.3 298.05 Q466.4 299.2 464.8 300.45 L467.55 300.8 463.65 302.65 Q464.0 304.25 467.55 306.0 L471.1 314.2 470.3 314.05 Q465.85 313.05 462.95 311.35 L462.9 311.35 458.65 309.7 460.3 309.4 459.3 308.2 458.6 307.1 Q456.9 304.15 457.1 301.55 M493.9 331.55 Q491.0 327.55 485.15 326.45 L483.9 326.3 483.9 324.85 482.85 326.35 M477.5 328.1 Q476.4 328.85 475.55 329.7 474.35 330.9 473.8 332.3 M479.55 333.45 L482.45 332.8 481.25 332.35 482.25 331.9 482.35 331.9 485.3 332.0 M479.55 333.45 Q477.5 335.35 482.8 336.9 L481.2 345.4 480.95 345.2 476.8 345.6 479.65 344.15 Q473.5 338.75 473.4 334.45 L473.25 331.55 473.8 332.3 M477.5 328.1 L478.85 327.25 Q481.2 326.5 482.85 326.35 M477.35 327.45 L475.55 329.7 M509.4 264.1 L510.1 262.2 505.9 263.75 503.95 263.6 500.3 263.65 497.1 263.6 486.85 263.2 488.75 259.4 484.2 263.0 M514.35 265.2 Q512.15 264.5 509.4 264.1 M515.25 265.5 L515.25 263.9 514.35 265.2 M523.2 280.5 Q524.15 276.9 523.65 274.05 L524.95 274.05 523.45 273.15 Q522.05 267.85 515.25 265.5 M523.2 280.5 L524.7 284.75 522.4 283.0 Q520.85 287.3 517.5 292.55 L517.95 294.85 516.75 293.7 514.8 296.55 Q513.95 291.45 511.55 286.9 L513.05 284.15 511.6 283.35 514.35 280.85 514.5 280.2 Q515.05 277.65 514.0 276.05 M493.9 331.55 Q495.1 333.15 495.8 335.3 L498.4 335.7 496.3 337.1 Q496.95 339.9 496.8 343.45 L497.55 344.1 496.8 344.1 496.6 346.7 Q496.45 348.55 496.65 350.15 L498.1 350.45 496.8 351.1 497.3 352.75 Q498.25 355.2 500.3 356.7 L500.8 357.05 501.35 357.4 503.35 356.7 502.5 357.95 Q504.05 358.55 505.95 358.85 L507.75 357.85 508.2 359.05 509.05 359.05 512.1 357.05 510.95 359.05 512.75 359.05 515.15 357.45 513.95 359.05 515.4 359.05 512.85 360.0 513.7 362.3 510.7 360.75 508.9 361.4 509.35 362.4 508.1 361.55 505.45 361.35 503.25 361.0 503.2 361.0 500.8 360.3 500.3 360.1 Q498.1 359.2 496.45 357.85 L495.7 358.35 495.7 357.15 Q493.8 355.2 492.8 352.4 L491.95 352.85 492.55 351.55 492.05 349.2 491.55 343.25 490.35 343.8 491.0 340.2 Q490.15 336.65 488.75 334.6 L487.4 333.1 488.15 334.95 485.3 332.0 M307.2 297.9 L305.35 297.9 306.35 298.45 Q303.6 300.2 300.7 302.35 L299.5 303.25 296.55 305.65 294.05 307.7 290.05 307.7 291.45 309.95 287.35 313.75 M307.2 297.9 Q313.0 294.3 318.15 292.55" fill="none" stroke="#000000" stroke-linecap="round" stroke-linejoin="round" stroke-width="1.0"/>
    <path d="M468.7 260.8 L465.95 262.8 M474.2 261.8 L472.95 262.5 M486.35 272.8 L484.4 271.4 M468.75 267.55 L469.65 270.25 M468.7 260.8 L464.75 261.7 M467.6 269.85 L466.85 268.6 M484.2 263.0 L482.35 264.45 M474.7 265.15 L479.75 266.9 475.6 268.2 M459.7 261.5 L460.4 265.5 456.9 261.45 M462.7 297.4 L463.65 293.35 460.85 295.25 M459.15 296.85 Q458.0 298.2 457.45 299.7 M457.1 301.55 L460.05 304.35 M471.25 290.85 L471.25 292.35 M466.25 295.35 L471.45 295.35 468.15 297.2 M481.65 292.55 L478.25 294.05 M480.55 292.15 L475.3 292.6 M333.85 262.8 L331.1 260.8 335.05 261.7 M325.6 261.8 L326.85 262.5 M331.05 267.55 L330.15 270.25 M332.2 269.85 L332.95 268.6 M340.1 261.5 L339.4 265.5 342.9 261.45 M333.55 295.35 L328.35 295.35 331.65 297.2 M328.55 290.85 L328.55 292.35 M319.25 292.15 L324.5 292.6 M336.15 293.35 L338.95 295.25 M336.15 293.35 L337.1 297.4 M340.65 296.85 Q341.8 298.2 342.35 299.7 M337.55 300.1 L335.0 300.45 M336.15 302.65 L337.65 303.35 M339.75 304.35 L342.7 301.55 340.5 306.3 M336.9 311.35 L339.5 309.4 337.55 309.0 M332.75 308.05 L336.85 306.05 334.75 309.45 M326.4 334.45 Q326.4 333.35 326.0 332.3 L324.05 334.85 M457.1 301.55 L459.3 306.3 M473.1 296.35 L474.7 297.55 476.7 297.8 475.45 295.35 M464.8 300.45 L462.25 300.1 M463.65 302.65 L462.15 303.35 M462.9 311.35 L460.3 309.4 462.25 309.0 M467.05 308.05 L462.95 306.05 465.05 309.45 M483.9 326.3 L483.9 328.9 M482.85 326.35 L483.9 326.3 M477.25 330.9 L477.5 328.1 M473.8 332.3 L475.75 334.85 M481.25 332.35 Q480.1 332.9 479.55 333.45 M473.8 332.3 Q473.4 333.35 473.4 334.45 M485.3 332.0 L483.75 330.35 M485.3 332.0 Q486.45 332.3 487.4 333.1 L486.45 330.6 M481.25 332.35 L478.65 331.35 M482.85 326.35 L481.6 328.25 M480.85 341.0 L477.3 339.95 480.7 338.95 M479.65 344.15 L480.95 345.2 M479.45 336.8 L478.0 334.0 476.6 337.4 M481.2 296.1 L483.35 297.4 482.85 295.25 M324.35 295.35 L323.1 297.8 325.1 297.55 326.7 296.35 M514.35 265.2 L512.75 267.55 M509.4 264.1 L509.2 264.65 M515.25 265.5 L515.25 267.7 M486.85 263.2 L486.05 264.9 M493.3 268.0 L494.45 270.25 490.5 268.95 M498.4 267.2 L501.25 264.9 501.25 269.3 M514.0 276.05 L518.0 275.95 515.7 272.45 M500.8 273.75 L500.75 273.5 500.65 273.25 500.6 273.15 500.45 272.75 500.05 271.7 M498.25 273.65 L497.15 272.8 M488.9 273.05 L488.1 270.65 M522.4 283.0 L521.45 282.25 M518.55 281.15 L517.5 284.2 516.25 280.35 M523.65 274.05 L520.4 274.05 M523.45 273.15 L519.9 271.0 M522.5 278.35 L523.2 280.5 M510.0 269.75 L511.6 272.7 506.6 272.7 M516.95 289.25 L517.5 292.55 516.75 293.7 514.35 291.3 M513.05 284.15 L514.2 284.75 M512.45 313.75 L513.0 316.25 509.5 315.4 M508.35 309.95 L507.55 311.2 M518.7 320.95 L518.9 321.45 516.9 321.9 M514.75 319.6 L518.7 320.95 M497.75 309.3 L498.8 308.95 M503.25 305.65 L503.65 308.6 500.3 306.25 M490.3 300.25 L493.45 298.45 492.6 297.9 487.05 297.9 M486.25 299.0 L487.25 302.05 483.6 299.35 M490.55 304.1 L491.85 304.95 491.85 304.2 M495.85 307.8 L496.0 307.25 M502.4 311.2 L503.75 314.2 Q504.25 314.6 504.75 315.1 L505.3 313.0 M495.25 303.65 L499.1 302.35 495.75 300.8 M489.05 329.6 L493.9 331.55 489.1 333.0 M493.7 337.3 L492.95 339.95 491.15 336.45 M491.0 340.2 L491.55 343.25 492.45 342.85 M495.8 335.3 L493.2 334.85 M496.8 343.45 L496.8 344.1 495.85 344.1 M496.3 337.1 L495.6 337.6 M495.65 342.35 L496.8 343.45 M519.15 328.1 L517.75 327.8 M512.25 327.9 L512.6 328.85 M515.55 331.9 L515.55 333.65 514.9 334.35 513.6 332.45 M513.25 326.55 L514.95 327.5 M512.9 333.3 L509.3 335.5 511.6 329.95 M511.05 320.8 L513.7 322.8 512.15 320.05 M513.95 359.05 L512.75 359.05 M509.05 359.05 L510.95 359.05 510.5 359.85 M506.95 360.75 L508.1 361.55 508.5 361.55 508.9 361.4 508.45 360.2 M512.85 360.0 L510.7 360.75 M496.65 350.15 L496.8 351.1 M495.7 356.1 L495.7 357.15 496.05 357.45 496.45 357.85 498.05 356.85 M502.5 357.95 L502.2 358.4 M502.5 357.95 L501.35 357.4 500.3 357.8 M493.55 349.35 L492.55 351.55 492.8 352.4 493.8 351.9 M496.1 353.05 L496.1 354.3 494.55 353.55 M503.2 361.0 L501.5 359.8 M503.25 361.0 L502.95 359.4 M505.45 361.35 L506.05 359.85 505.25 359.85 M496.65 350.15 L495.65 349.9 M508.2 359.05 L505.95 358.85 M495.75 345.6 L494.75 348.7 493.55 345.85 M277.4 283.0 L278.35 282.25 M281.25 281.15 L282.3 284.2 283.55 280.35 M277.3 278.35 L276.6 280.5 M276.15 274.05 L279.4 274.05 M282.85 289.25 L282.3 292.55 283.05 293.7 285.45 291.3 M276.35 273.15 L279.9 271.0 M306.5 268.0 L305.35 270.25 309.3 268.95 M312.95 263.2 L313.75 264.9 M315.6 263.0 L317.45 264.45 M284.55 265.5 L284.55 267.7 M285.45 265.2 L287.05 267.55 M290.4 264.1 L290.6 264.65 M301.4 267.2 L298.55 264.9 298.55 269.3 M299.75 271.7 L299.35 272.75 299.2 273.15 299.15 273.25 299.05 273.5 299.0 273.75 299.05 273.5 M301.55 273.65 L302.65 272.8 M289.8 269.75 L288.2 272.7 293.2 272.7 M286.75 284.15 L285.6 284.75 M318.15 292.55 L321.55 294.05 M310.9 273.05 L311.7 270.65 M313.45 272.8 L315.4 271.4 M285.8 276.05 L281.8 275.95 284.1 272.45 M313.55 299.0 L312.55 302.05 316.2 299.35 M306.35 298.45 L307.2 297.9 312.75 297.9 M303.8 307.25 L303.95 307.8 M307.95 304.95 L307.95 304.2 M309.5 300.25 L306.35 298.45 M300.7 302.35 L304.05 300.8 M309.25 304.1 L307.95 304.95 M296.55 305.65 L296.15 308.6 299.5 306.25 M302.05 309.3 L301.0 308.95 M291.45 309.95 L292.25 311.2 M287.35 313.75 L286.8 316.25 290.3 315.4 M295.05 315.1 L294.5 313.0 M296.05 314.2 L295.05 315.1 M296.05 314.2 L297.4 311.2 M284.25 331.9 L284.25 333.65 284.9 334.35 286.2 332.45 M287.55 327.9 L287.2 328.85 M286.55 326.55 L284.85 327.5 M304.15 342.35 L303.0 343.45 303.0 344.1 303.95 344.1 M290.5 335.5 L286.9 333.3 M290.5 335.5 L288.2 329.95 M318.2 328.25 L316.95 326.35 315.9 326.3 315.9 328.9 M313.35 330.6 L312.4 333.1 Q313.35 332.3 314.5 332.0 L316.05 330.35 M322.55 330.9 L322.3 328.1 M321.15 331.35 L318.55 332.35 Q319.7 332.9 320.25 333.45 M310.75 329.6 L305.9 331.55 310.7 333.0 M306.1 337.3 L306.85 339.95 308.65 336.45 M308.25 343.25 L307.35 342.85 M308.8 340.2 Q308.45 341.6 308.25 343.25 M304.0 335.3 L306.6 334.85 M318.95 341.0 L322.5 339.95 319.1 338.95 M318.85 345.2 L320.15 344.15 M320.35 336.8 L321.8 334.0 323.2 337.4 M288.75 320.8 L286.1 322.8 287.65 320.05 M300.7 302.35 L304.55 303.65 M303.5 337.1 L304.2 337.6 M285.05 319.6 L281.1 320.95 280.9 321.45 282.9 321.9 M280.65 328.1 L282.05 327.8 M306.25 349.35 L307.25 351.55 307.0 352.4 306.0 351.9 M301.75 356.85 L303.35 357.85 303.75 357.45 304.1 357.15 304.1 356.1 M304.15 349.9 L303.15 350.15 303.0 351.1 M299.5 357.8 L298.45 357.4 Q297.9 357.7 297.3 357.95 L297.6 358.4 M303.7 353.05 L303.7 354.3 305.25 353.55 M291.7 361.55 L291.3 361.55 290.9 361.4 291.35 360.2 M292.85 360.75 L291.7 361.55 M290.75 359.05 L288.85 359.05 289.3 359.85 M285.85 359.05 L287.05 359.05 M289.1 360.75 L286.95 360.0 M296.85 359.4 L296.55 361.0 M294.55 359.85 L293.75 359.85 294.35 361.35 M296.6 361.0 L298.3 359.8 M291.6 359.05 L293.85 358.85 M304.05 345.6 L305.05 348.7 306.25 345.85 M318.6 296.1 L316.45 297.4 316.95 295.25 M325.1 265.15 L320.05 266.9 324.2 268.2" fill="none" stroke="#000000" stroke-linecap="round" stroke-linejoin="round" stroke-opacity="0.5019608" stroke-width="1.0"/>
  </g>
</svg>
