<?xml version="1.0" encoding="UTF-8" standalone="no"?>
<svg xmlns:xlink="http://www.w3.org/1999/xlink" height="46.6px" width="42.15px" xmlns="http://www.w3.org/2000/svg">
  <g transform="matrix(1.0, 0.0, 0.0, 1.0, -284.85, -310.25)">
    <path d="M325.15 321.8 L323.65 322.85 322.35 325.95 321.15 329.1 320.25 332.1 Q319.8 334.0 319.7 335.9 L319.6 338.3 319.55 340.6 319.45 343.0 319.35 345.3 320.3 345.85 Q321.75 346.8 321.85 348.65 L318.6 351.45 Q317.05 352.65 315.35 353.65 L312.1 355.3 308.75 356.1 305.0 356.35 301.45 355.9 Q298.1 355.3 295.2 353.8 293.6 352.2 294.15 350.1 L287.05 323.2 Q285.0 322.2 285.4 320.3 L285.65 319.05 Q288.45 316.1 292.0 314.25 293.5 313.45 295.05 312.75 296.45 312.05 297.95 311.65 L301.15 310.75 304.95 311.0 308.95 311.65 312.1 312.35 315.6 313.3 317.9 314.05 320.15 314.9 323.35 316.3 326.5 317.7 Q326.55 319.95 325.15 321.8" fill="none" stroke="#000000" stroke-linecap="round" stroke-linejoin="round" stroke-opacity="0.8" stroke-width="1.0"/>
    <path d="M287.05 323.2 L291.35 320.6 293.5 319.55 Q294.55 319.0 295.65 318.5 L297.65 317.75 299.65 317.2 301.05 317.05 303.85 316.95 306.65 317.25 310.5 318.05 310.55 318.05 312.05 318.45 315.75 319.6 317.95 320.35 318.65 320.6 323.65 322.85 M310.5 318.05 L310.2 320.8 310.0 323.0 309.8 325.2 309.7 327.35 309.6 329.5 309.55 331.6 309.45 333.65 309.45 335.65 309.5 337.7 309.55 339.7 309.8 343.65 310.1 347.5 310.5 351.2 Q312.1 350.65 313.65 349.7 L316.45 347.85 316.2 344.1 316.15 340.9 316.2 337.65 316.3 334.35 316.55 331.05 316.9 327.65 317.3 324.2 317.95 320.35 M291.35 320.6 L291.9 322.5 292.45 324.4 293.5 328.1 294.45 331.8 295.25 335.5 296.0 339.25 296.65 342.95 297.2 346.65 297.75 351.0 298.9 351.25 302.85 351.85 302.9 349.75 302.95 347.55 302.95 345.45 302.85 343.25 302.8 341.15 302.7 338.95 302.55 336.75 302.35 334.55 302.15 332.45 301.85 330.25 301.6 328.1 301.25 325.9 300.95 323.8 300.55 321.6 300.1 319.4 299.65 317.2 M310.5 351.2 Q308.8 352.2 306.8 352.2 L302.85 351.85 M294.15 350.1 L296.05 350.55 297.55 350.95 297.75 351.0 M319.35 345.3 L316.45 347.85" fill="none" stroke="#000000" stroke-linecap="round" stroke-linejoin="round" stroke-opacity="0.5019608" stroke-width="1.0"/>
  </g>
</svg>
