<?xml version="1.0" encoding="UTF-8" standalone="no"?>
<svg xmlns:xlink="http://www.w3.org/1999/xlink" height="71.4px" width="56.95px" xmlns="http://www.w3.org/2000/svg">
  <g transform="matrix(1.0, 0.0, 0.0, 1.0, -286.0, -321.0)">
    <path d="M325.0 323.35 Q325.8 324.05 325.65 324.9 L325.45 325.55 Q327.1 326.35 326.65 328.05 327.0 328.65 326.85 329.3 L324.45 341.3 Q325.15 341.45 325.7 341.75 L325.75 341.8 Q326.55 342.8 325.6 343.75 L327.05 345.85 Q328.05 346.35 328.7 347.15 L334.05 353.95 339.8 362.65 Q343.55 369.0 341.95 374.95 340.75 378.15 337.6 378.05 L338.0 380.05 Q338.9 386.85 327.3 389.4 316.8 391.4 306.45 391.9 296.95 392.15 294.15 385.9 289.3 374.3 291.3 353.95 291.45 352.45 292.3 351.35 L291.95 349.3 291.45 346.55 Q290.05 346.2 289.35 345.3 287.05 342.8 286.7 339.4 285.95 335.5 288.15 332.7 L287.6 330.7 Q286.95 328.25 288.4 327.5 L288.0 326.15 Q305.2 319.85 325.25 322.05 L325.0 323.35" fill="none" stroke="#000000" stroke-linecap="round" stroke-linejoin="round" stroke-width="1.0"/>
    <path d="M325.0 323.35 L317.55 322.65 Q301.8 323.1 290.5 326.7 290.05 326.75 288.4 327.5 M325.6 343.75 L324.95 342.75 324.15 342.8 Q302.0 343.3 291.95 349.3 M324.95 342.75 L324.2 342.65 324.15 342.8 M337.6 378.05 L337.35 376.4 336.25 370.35 Q338.85 371.5 338.55 374.4 338.3 375.8 337.35 376.4 M325.45 325.55 Q315.0 323.35 303.75 326.1 292.5 328.8 289.15 331.65 L288.5 332.25 288.15 332.7 M324.45 341.3 L319.25 340.95 319.0 341.0 Q307.75 341.5 297.1 344.9 292.15 346.4 290.4 344.25 287.65 341.0 288.35 335.25 289.2 332.3 298.75 329.1 308.3 325.85 317.3 326.25 326.25 326.65 326.65 328.05 M291.45 346.55 Q293.75 347.05 297.65 345.95 L308.4 343.45 Q317.7 341.6 324.2 342.65 M327.05 345.85 Q325.45 345.1 323.05 345.1 308.55 345.4 295.15 349.45 293.3 350.1 292.3 351.35" fill="none" stroke="#000000" stroke-linecap="round" stroke-linejoin="round" stroke-opacity="0.5019608" stroke-width="1.0"/>
  </g>
</svg>
