<?xml version="1.0" encoding="UTF-8" standalone="no"?>
<svg xmlns:xlink="http://www.w3.org/1999/xlink" height="94.75px" width="55.4px" xmlns="http://www.w3.org/2000/svg">
  <g transform="matrix(1.0, 0.0, 0.0, 1.0, -279.0, -252.55)">
    <path d="M303.65 269.8 Q318.3 271.9 328.35 277.55 333.15 275.0 333.9 270.05 321.6 261.6 306.5 261.1 M303.65 269.8 L303.5 270.2 Q300.35 278.95 296.45 286.5 L296.45 286.55 Q297.5 288.15 298.3 290.6 L298.8 292.8 Q303.0 311.25 304.55 330.4 304.15 332.4 303.2 333.8 L303.15 336.1 Q311.8 335.1 317.3 332.15 320.1 336.15 318.65 340.15 310.4 345.25 299.55 346.0 L298.3 346.05 296.65 346.1 294.05 346.8 291.9 346.05 Q287.5 343.85 285.9 336.75 L284.6 327.9 Q285.4 325.85 284.0 323.85 L283.6 321.25 Q284.15 319.25 283.1 318.0 L282.35 312.95 Q283.1 311.35 281.85 309.75 L281.25 305.55 Q281.9 303.6 280.7 302.05 L280.05 297.7 Q280.6 295.8 279.5 294.1 279.75 289.3 285.8 285.9 286.45 282.4 289.0 279.8 287.5 278.0 286.85 276.05 287.35 274.15 286.45 272.15 286.7 270.15 287.65 268.05 289.15 266.8 289.55 264.75 290.75 263.1 292.3 261.4 294.55 260.5 295.0 258.65 L297.1 256.75 Q296.2 254.9 298.6 253.05 301.95 253.9 304.0 255.05 307.0 256.7 307.1 259.05 L306.5 261.1" fill="none" stroke="#000000" stroke-linecap="round" stroke-linejoin="round" stroke-width="1.0"/>
    <path d="M306.5 261.1 L303.65 269.8 M297.1 256.75 Q301.2 256.2 303.15 258.45 L304.2 260.15 Q303.15 265.2 301.2 270.2 299.35 275.0 296.65 279.8 L296.4 279.9 294.4 280.45 Q291.7 280.9 289.0 279.8 M295.0 258.65 L296.9 259.55 Q297.6 261.65 295.15 262.75 L292.3 261.4 M289.55 264.75 L293.5 266.6 Q294.2 268.7 291.75 269.8 L288.8 268.4 287.65 268.05 M299.2 262.1 Q298.4 262.55 297.85 263.5 297.3 264.45 297.25 265.4 L297.3 265.95 Q297.45 266.35 297.75 266.55 L299.05 266.4 300.35 265.0 300.95 263.1 Q300.95 262.2 300.45 261.95 L299.2 262.05 299.2 262.1 M297.35 269.95 Q296.75 269.6 295.85 270.15 294.95 270.7 294.3 271.85 293.65 273.0 293.65 274.05 293.6 275.1 294.15 275.45 L295.7 275.25 Q296.55 274.65 297.2 273.5 297.9 272.35 297.95 271.35 297.95 270.25 297.35 269.95 M285.8 285.9 Q287.9 284.7 290.65 283.7 L293.6 283.85 294.85 284.65 296.4 286.45 296.45 286.55 M286.45 272.15 L290.85 273.85 Q291.55 276.3 289.15 277.0 L286.85 276.05 M293.4 294.25 Q293.95 294.1 294.55 294.75 295.2 295.4 295.5 296.45 295.8 297.55 295.55 298.4 295.4 299.3 294.8 299.45 294.2 299.6 293.55 298.95 292.95 298.3 292.65 297.25 292.4 296.15 292.6 295.25 292.85 294.4 293.4 294.25 M279.5 294.1 L285.95 293.75 Q288.5 295.2 286.1 297.35 L280.05 297.7 M294.55 308.35 Q293.85 307.55 293.5 306.3 293.15 305.0 293.35 304.0 293.65 302.95 294.3 302.8 294.95 302.6 295.65 303.4 296.4 304.15 296.75 305.45 297.1 306.7 296.8 307.7 296.6 308.75 295.95 308.95 295.3 309.1 294.55 308.35 M280.7 302.05 L287.55 301.35 Q290.35 303.15 287.75 304.95 L281.25 305.55 M283.1 318.0 L289.4 317.2 Q292.1 318.15 289.55 320.6 L283.6 321.25 M295.3 315.3 Q295.0 314.15 295.25 313.2 295.5 312.25 296.15 312.1 296.85 311.9 297.5 312.6 298.2 313.3 298.5 314.45 298.8 315.6 298.55 316.55 298.35 317.45 297.65 317.65 297.0 317.85 296.3 317.15 295.65 316.45 295.3 315.3 M281.85 309.75 L288.05 309.1 Q290.9 310.35 288.15 312.35 L282.35 312.95 M298.45 322.35 Q299.25 323.1 299.55 324.3 299.9 325.5 299.55 326.55 299.25 327.55 298.5 327.8 297.7 328.0 296.9 327.25 296.15 326.55 295.8 325.35 295.5 324.1 295.8 323.1 296.1 322.05 296.9 321.85 297.7 321.65 298.45 322.35 M284.0 323.85 L290.25 323.3 Q292.6 324.75 290.55 327.4 L284.6 327.9 M296.65 346.1 L296.75 346.05 Q298.15 345.45 299.35 344.5 L301.85 341.6 Q302.95 339.2 303.15 336.1 M303.2 333.8 Q300.5 336.0 297.9 336.45 L296.0 336.5 Q292.2 335.15 285.9 336.75" fill="none" stroke="#000000" stroke-linecap="round" stroke-linejoin="round" stroke-opacity="0.5019608" stroke-width="1.0"/>
  </g>
</svg>
