<?xml version="1.0" encoding="UTF-8" standalone="no"?>
<svg xmlns:xlink="http://www.w3.org/1999/xlink" height="57.2px" width="243.6px" xmlns="http://www.w3.org/2000/svg">
  <g transform="matrix(1.0, 0.0, 0.0, 1.0, -278.1, -304.9)">
    <path d="M334.1 308.55 L326.45 323.85 324.15 324.3 319.9 338.95 318.5 339.45 321.65 347.5 Q310.45 353.15 302.6 362.1 L294.75 357.75 292.1 346.4 290.8 345.75 287.15 330.45 284.9 328.9 278.1 307.05 Q305.75 302.1 334.1 308.55 M475.65 324.3 L473.35 323.85 465.7 308.55 Q494.05 302.1 521.7 307.05 L514.9 328.9 512.65 330.45 509.0 345.75 507.7 346.4 505.05 357.75 497.2 362.1 Q490.05 353.95 480.1 348.55 L478.15 347.5 481.3 339.45 479.9 338.95 475.65 324.3" fill="#000000" fill-rule="evenodd" stroke="none"/>
  </g>
</svg>
