<?xml version="1.0" encoding="UTF-8" standalone="no"?>
<svg xmlns:xlink="http://www.w3.org/1999/xlink" height="412.1px" width="242.9px" xmlns="http://www.w3.org/2000/svg">
  <g transform="matrix(1.0, 0.0, 0.0, 1.0, -277.05, -150.8)">
    <path d="M384.35 183.05 Q384.35 181.05 384.75 179.15 380.2 179.6 376.7 174.45 374.85 171.75 376.65 168.7 383.25 157.45 395.65 151.5 L396.65 150.8 396.8 151.0 397.15 150.8 Q405.6 161.4 393.7 173.65 L393.35 174.05 393.85 174.0 Q413.2 184.95 392.65 196.85 391.3 197.65 390.2 197.6 388.4 197.5 387.4 195.25 384.35 188.75 384.35 183.05 M370.25 223.9 Q368.15 227.05 365.25 229.7 L365.1 229.85 Q371.85 234.9 365.2 245.15 L362.9 248.05 362.1 248.85 354.2 249.9 352.3 250.35 Q352.55 249.7 353.85 249.45 L355.65 249.05 Q353.2 244.45 353.7 237.4 L353.75 237.1 350.7 236.45 Q346.05 235.65 341.15 236.3 L347.25 234.0 348.55 233.45 Q347.55 232.3 346.8 230.5 346.25 229.05 348.35 228.65 L350.15 228.25 Q347.7 223.65 348.2 216.6 L348.25 216.3 345.2 215.65 347.95 214.7 348.5 215.3 Q349.1 214.05 350.85 213.65 352.4 204.7 362.75 203.45 368.4 204.85 371.25 207.4 377.1 212.75 370.65 223.25 L370.25 223.9 M377.75 239.1 L380.6 235.9 Q383.8 232.15 388.2 230.45 404.95 233.6 396.55 249.2 392.95 255.95 388.5 258.6 384.6 254.5 378.2 252.5 381.05 244.85 377.75 239.1 M381.45 322.85 Q380.15 326.7 377.5 330.05 375.85 332.2 374.4 333.1 373.9 336.5 372.85 340.0 371.6 344.2 368.1 344.6 366.15 344.8 363.5 343.75 358.55 341.9 354.25 339.45 347.6 335.75 342.6 330.8 334.3 322.6 330.1 311.05 328.75 307.35 328.2 303.55 327.85 300.95 327.9 298.3 327.95 295.95 330.5 296.8 333.9 297.9 336.0 300.8 338.4 292.3 345.1 288.4 L345.1 288.3 Q351.05 295.55 341.8 306.0 L341.55 306.4 Q344.15 309.45 347.35 312.05 346.2 301.6 351.65 295.75 L352.8 294.6 Q353.9 293.65 355.7 294.85 360.65 298.05 364.3 301.75 364.3 304.0 364.65 306.55 365.1 310.25 364.95 313.55 364.75 317.4 366.45 320.9 367.0 322.1 368.1 322.6 374.2 325.2 381.45 322.85 M377.25 370.0 L377.6 369.75 Q377.35 379.2 393.25 375.1 L395.35 374.45 Q403.0 382.4 395.7 397.95 391.7 406.5 385.95 405.55 L386.1 405.4 Q390.85 400.4 383.9 398.5 382.3 398.55 381.05 399.75 L378.75 401.85 Q370.8 395.8 370.8 386.25 370.8 382.9 371.5 380.05 374.05 377.0 376.2 373.2 377.1 371.55 377.25 370.0 M389.35 332.1 Q390.9 329.25 394.75 326.1 L397.0 323.95 Q398.45 322.2 399.45 319.95 400.35 318.0 402.35 317.95 411.8 319.7 412.7 330.7 L412.95 334.0 413.0 336.55 Q412.35 343.35 404.05 345.0 L400.35 345.45 Q397.8 345.55 395.5 344.3 385.7 338.9 389.35 332.1 M410.5 296.05 Q405.3 295.0 401.1 289.1 396.5 282.55 402.5 277.4 405.95 274.45 410.0 272.25 403.8 271.35 401.4 262.8 400.9 261.2 402.75 262.1 407.35 264.25 411.6 263.8 L410.5 265.85 Q408.55 270.2 413.05 270.4 422.25 270.8 424.2 263.1 425.2 259.0 425.1 254.85 L430.25 251.55 Q436.2 247.05 437.75 243.95 L442.75 244.2 Q446.8 244.6 450.6 242.25 448.5 242.4 446.1 241.0 L445.35 240.45 Q444.05 239.3 443.75 237.15 419.45 233.25 431.2 216.45 431.65 215.85 432.95 215.2 435.1 214.1 437.3 213.25 441.3 211.7 445.5 211.0 L448.3 211.45 449.65 210.1 Q463.1 212.05 471.95 218.75 467.7 222.85 465.05 228.65 464.35 230.25 464.55 231.65 L465.0 231.6 472.7 232.3 Q483.15 233.9 489.65 239.0 L491.1 240.2 Q487.4 238.8 481.75 238.7 L481.7 238.45 Q480.55 235.4 477.1 235.65 474.25 237.45 471.95 239.7 468.65 242.9 466.3 247.1 464.2 241.65 463.45 235.8 L461.05 234.65 458.9 232.95 458.75 233.3 Q456.3 239.7 453.0 241.55 456.65 245.35 454.0 249.5 L454.65 249.8 Q448.75 257.25 455.15 268.3 L455.25 268.45 454.85 268.45 Q450.4 271.35 448.9 275.05 L447.55 273.5 445.7 271.25 Q444.7 273.55 442.6 276.0 435.0 284.85 431.55 280.55 430.45 284.95 427.55 288.3 L426.5 287.85 Q417.3 289.8 410.5 296.05 M419.25 211.0 Q417.3 210.3 414.95 209.05 409.35 206.1 407.05 199.7 402.6 187.1 415.6 184.6 429.55 190.0 428.6 206.1 428.45 208.5 427.6 209.95 L426.05 209.6 Q422.25 209.75 419.25 211.0 M498.05 250.45 Q499.8 254.95 500.35 260.55 L500.35 262.9 Q500.2 264.45 499.55 265.8 L498.8 268.75 Q497.25 272.55 493.4 270.95 488.95 272.65 484.55 270.3 482.75 269.35 481.0 267.75 L478.95 265.8 Q473.5 260.45 469.95 254.45 L469.0 252.8 472.7 253.25 Q471.8 249.5 471.55 245.55 471.45 244.1 473.35 244.05 489.25 244.6 498.0 251.45 L498.05 250.45 M437.9 319.5 Q448.1 323.4 452.1 333.0 455.7 328.5 460.8 325.8 462.75 324.75 464.8 324.0 472.2 329.25 462.65 334.8 L462.0 335.1 Q460.15 336.15 458.75 338.2 460.95 337.2 463.2 336.5 470.15 334.15 477.95 334.4 480.45 334.45 481.9 337.45 485.05 344.05 485.35 349.5 485.7 354.75 483.5 359.0 475.95 363.8 469.8 370.1 L469.4 370.25 Q468.25 368.5 466.7 366.95 462.75 368.3 461.35 372.55 L461.25 372.95 459.8 373.3 Q451.55 375.45 443.4 375.85 430.1 376.5 417.2 372.5 L416.2 372.15 Q415.1 371.8 415.55 371.1 415.7 370.7 416.2 370.35 421.9 365.75 429.95 364.25 434.05 363.5 437.0 361.75 L436.2 359.75 Q439.8 360.4 442.2 354.05 444.4 353.9 445.2 352.15 448.1 345.5 445.45 338.45 442.2 329.55 437.1 324.0 L435.3 325.0 436.8 321.95 437.9 319.5 M471.55 311.95 Q469.85 304.6 478.35 297.6 479.25 296.85 480.55 297.9 482.05 296.0 484.25 294.9 486.4 293.8 488.45 293.45 503.7 297.65 504.65 315.4 505.15 324.65 494.15 328.15 490.05 329.5 486.25 329.05 482.15 318.4 471.55 311.95 M465.85 442.65 Q468.0 448.25 467.5 456.15 466.65 469.6 455.7 472.5 453.95 473.0 453.5 470.7 L452.05 465.4 Q453.4 461.65 452.65 456.1 452.5 454.5 451.55 454.25 L446.55 452.55 Q446.3 450.65 447.3 448.6 L448.5 446.45 Q454.3 449.25 464.0 443.8 L465.85 442.65 M435.2 431.4 L433.55 433.7 Q428.55 440.65 421.7 435.15 411.0 426.7 414.55 416.4 415.2 414.55 416.45 412.95 418.45 410.55 419.35 407.5 421.6 405.3 423.4 400.65 425.6 395.05 425.65 390.1 L426.5 389.7 430.75 393.3 Q429.1 400.6 439.45 405.6 L439.95 406.9 420.9 423.55 Q419.7 424.55 420.8 425.5 427.8 431.65 435.2 431.4 M408.25 375.85 Q404.85 378.0 403.25 373.7 402.35 371.25 401.75 368.8 400.7 364.35 400.85 359.7 394.45 351.9 405.1 347.25 L407.0 346.45 Q424.0 356.85 414.05 369.95 412.25 372.35 409.55 374.8 L408.25 375.85 M382.95 464.85 Q387.7 471.25 380.8 478.25 382.75 484.35 377.3 492.9 366.65 509.75 358.4 494.95 L356.2 496.45 Q352.85 498.75 349.95 495.6 343.85 489.15 348.9 482.8 352.0 482.95 355.95 481.95 359.2 481.1 360.25 478.5 L361.35 475.35 Q366.35 480.45 376.95 472.45 381.95 468.6 382.95 464.85 M343.3 433.25 Q341.95 432.35 341.6 430.4 338.2 412.1 352.8 403.95 354.95 403.8 356.95 402.4 365.5 405.4 366.25 412.85 L366.35 415.15 Q366.15 418.65 364.55 423.05 363.4 426.0 361.9 428.25 357.6 421.9 348.9 422.1 347.7 422.15 346.75 423.15 344.45 425.45 343.9 428.2 343.45 430.75 343.3 433.25 M333.2 339.5 Q339.8 345.8 331.95 357.3 329.7 360.6 326.8 362.95 322.4 361.8 323.0 356.8 323.15 355.3 323.55 353.9 327.85 350.45 330.1 343.2 L330.85 340.45 333.2 339.5 M347.95 286.15 L345.65 287.0 Q330.6 291.45 330.7 283.8 333.15 283.1 336.5 281.3 341.85 278.45 344.3 273.5 L345.35 271.25 Q344.5 269.5 344.25 267.55 L347.1 269.35 Q351.95 271.7 357.15 270.25 L357.15 271.45 354.1 271.65 Q349.35 273.0 347.55 277.8 346.3 281.4 347.4 284.6 L347.95 286.15 M303.6 309.45 Q299.1 315.7 294.45 315.0 300.6 301.55 289.35 291.3 291.7 283.7 296.85 277.65 L299.65 279.25 Q298.3 279.45 296.85 280.15 295.35 280.9 295.75 281.7 302.35 294.55 303.6 309.45 M289.55 322.8 Q296.05 325.95 298.95 333.75 300.95 339.1 300.55 342.55 L294.5 340.15 Q293.45 340.25 292.3 340.95 290.8 341.95 290.25 343.5 L289.4 342.75 Q286.7 341.1 285.35 341.2 284.2 330.65 277.25 322.6 276.6 321.8 278.3 321.15 L279.8 320.7 283.5 321.0 283.55 322.65 Q283.75 330.05 288.65 323.95 L289.55 322.8 M309.95 256.3 L308.2 258.5 Q301.95 266.0 295.9 264.7 293.5 264.15 291.25 262.3 289.65 261.05 291.45 259.15 293.7 256.7 296.35 254.5 L299.45 251.9 Q298.15 249.7 297.4 247.45 295.55 242.0 296.5 236.15 L296.7 234.8 Q297.35 231.75 300.35 231.6 304.4 232.2 304.45 236.05 L304.45 236.35 Q310.65 238.9 312.75 242.65 L312.05 242.9 Q310.1 243.9 309.6 245.4 303.25 249.2 299.25 255.2 298.25 256.7 299.55 256.75 L302.0 256.95 302.2 255.6 Q302.85 252.55 305.85 252.4 309.6 252.95 309.95 256.3 M388.15 178.1 Q388.95 178.65 389.35 179.65 389.8 178.15 390.6 176.45 L388.15 178.1 M417.4 193.6 Q419.65 195.8 417.45 193.6 L417.4 193.6 M459.8 252.95 L461.7 254.6 Q460.65 254.95 459.6 255.45 L459.65 255.1 459.8 252.95 M425.8 256.4 L426.45 256.1 426.4 256.0 426.15 256.1 425.8 256.4 M357.8 235.9 L357.85 235.9 358.95 233.9 358.75 233.75 Q353.75 230.1 352.35 232.3 354.85 233.45 357.8 235.9 M422.25 335.8 L425.3 334.65 Q423.55 338.3 424.05 342.35 422.4 339.05 422.25 335.8 M344.35 320.35 L344.9 320.95 345.1 321.1 344.3 320.05 341.5 317.45 341.4 317.5 344.35 320.35 M361.7 334.6 Q364.7 334.95 361.6 334.55 L361.7 334.6 M475.6 353.85 Q480.9 347.3 474.15 340.15 469.85 341.2 466.25 342.8 458.1 346.55 454.15 353.4 L453.85 353.85 Q453.35 356.3 452.45 358.6 461.9 366.5 473.7 355.85 L475.6 353.85 M448.45 365.55 L446.8 367.4 449.35 366.8 448.45 365.55 M435.95 505.45 Q432.4 505.25 429.3 499.6 423.3 488.6 431.65 478.35 433.2 476.45 435.45 476.25 446.15 481.05 447.6 487.75 444.65 489.65 442.0 492.3 435.55 498.7 435.95 505.45 M462.4 509.5 Q478.8 517.1 471.75 534.95 471.15 536.5 469.15 535.15 460.35 529.2 455.8 520.4 L457.8 518.15 Q460.95 513.6 462.4 509.5 M360.3 542.65 Q365.7 551.4 350.55 559.35 334.85 567.6 335.3 554.15 335.4 551.2 338.55 549.75 343.85 547.35 348.6 544.45 354.1 549.35 360.3 542.65 M343.5 536.95 Q340.7 541.65 335.05 540.45 317.25 536.6 323.75 520.45 325.7 515.6 331.85 516.1 334.6 516.45 336.9 517.1 339.75 521.7 344.35 521.6 L345.55 523.8 Q339.75 528.8 343.0 535.85 L343.5 536.95 M363.65 511.25 Q377.4 520.7 361.25 533.05 354.95 537.9 352.65 530.9 350.75 525.2 352.3 519.35 354.4 510.9 363.65 511.25 M428.65 529.35 Q426.85 523.8 428.05 518.65 428.6 516.05 431.2 515.6 450.1 519.85 448.5 536.0 447.85 542.85 441.3 541.15 431.7 538.6 428.65 529.35 M480.95 558.4 Q478.15 560.65 473.85 561.8 459.2 565.55 454.5 556.35 453.15 553.75 455.9 551.5 462.3 546.1 469.55 542.95 472.95 542.7 474.1 545.75 L474.15 546.05 Q491.7 549.5 480.95 558.4" fill="#000000" fill-opacity="0.2509804" fill-rule="evenodd" stroke="none"/>
    <path d="M390.2 197.6 Q390.5 201.75 389.55 206.2 389.1 208.45 388.1 211.2 386.1 216.65 385.2 222.25 385.0 223.5 383.2 224.1 373.8 227.0 370.25 223.9 L370.65 223.25 Q377.1 212.75 371.25 207.4 L373.85 204.2 Q377.7 200.3 375.2 194.9 370.15 183.75 379.15 177.65 382.2 180.25 384.35 183.05 384.35 188.75 387.4 195.25 388.4 197.5 390.2 197.6 M365.25 229.7 Q374.45 233.45 377.75 239.1 381.05 244.85 378.2 252.5 384.6 254.5 388.5 258.6 395.05 265.45 394.6 278.2 394.25 288.2 386.3 287.05 386.55 289.5 385.45 292.3 384.45 294.9 383.0 297.15 377.55 291.25 369.7 286.95 364.25 292.5 364.3 301.75 360.65 298.05 355.7 294.85 353.9 293.65 352.8 294.6 L351.65 295.75 Q349.65 291.0 347.95 286.15 L347.4 284.6 Q346.3 281.4 347.55 277.8 349.35 273.0 354.1 271.65 L357.15 271.45 Q364.6 271.15 370.8 273.2 368.5 268.25 369.45 262.9 L369.05 262.45 374.05 257.35 Q383.15 247.25 365.65 248.55 L363.4 248.7 362.9 248.05 365.2 245.15 Q371.85 234.9 365.1 229.85 L365.25 229.7 M368.1 344.6 Q370.45 350.4 369.85 356.75 362.9 348.6 353.15 342.55 L354.25 339.45 Q358.55 341.9 363.5 343.75 366.15 344.8 368.1 344.6 M377.6 369.75 Q377.7 366.7 379.4 362.25 380.2 360.15 381.75 358.05 L384.65 354.65 384.55 354.55 Q371.25 339.5 389.35 332.1 385.7 338.9 395.5 344.3 397.8 345.55 400.35 345.45 L404.05 345.0 405.1 347.25 Q394.45 351.9 400.85 359.7 400.7 364.35 401.75 368.8 400.0 372.6 395.35 374.45 L393.25 375.1 Q377.35 379.2 377.6 369.75 M397.0 323.95 Q392.35 312.6 403.7 302.5 L409.05 297.4 410.5 296.05 Q417.3 289.8 426.5 287.85 L427.55 288.3 Q447.5 297.4 439.35 316.1 L437.9 319.5 436.8 321.95 435.3 325.0 Q427.85 329.35 425.3 334.65 L422.25 335.8 416.6 336.65 413.0 336.55 412.95 334.0 412.7 330.7 Q411.8 319.7 402.35 317.95 400.35 318.0 399.45 319.95 398.45 322.2 397.0 323.95 M411.6 263.8 L412.8 262.05 Q406.2 256.05 402.6 248.4 412.15 261.35 425.1 254.85 425.2 259.0 424.2 263.1 422.25 270.8 413.05 270.4 408.55 270.2 410.5 265.85 L411.6 263.8 M401.0 244.45 L400.4 242.55 Q399.1 238.3 403.75 237.35 L408.45 237.45 Q406.8 233.95 407.9 227.65 408.45 224.65 409.7 221.55 412.8 213.7 419.25 211.0 422.25 209.75 426.05 209.6 L427.6 209.95 Q433.1 211.05 437.3 213.25 435.1 214.1 432.95 215.2 431.65 215.85 431.2 216.45 419.45 233.25 443.75 237.15 444.05 239.3 445.35 240.45 442.1 242.9 438.25 242.4 439.0 237.75 427.95 236.6 415.95 239.35 403.85 242.4 401.35 243.0 401.0 244.45 M491.1 240.2 Q498.1 242.9 498.05 250.45 L498.0 251.45 Q489.25 244.6 473.35 244.05 471.45 244.1 471.55 245.55 471.8 249.5 472.7 253.25 L469.0 252.8 465.0 252.55 464.55 252.6 Q464.35 251.2 465.05 249.6 L466.3 247.1 Q468.65 242.9 471.95 239.7 474.25 237.45 477.1 235.65 480.55 235.4 481.7 238.45 L481.75 238.7 Q487.4 238.8 491.1 240.2 M500.35 262.9 L501.75 262.45 Q505.6 264.05 507.15 260.25 L507.1 263.6 Q506.7 268.4 508.0 273.3 511.6 286.95 501.6 284.6 L498.6 284.5 Q486.65 286.65 476.05 283.3 L474.95 282.9 475.05 284.3 Q475.5 289.1 471.65 292.4 459.55 302.75 450.8 287.8 446.55 280.55 448.9 275.05 450.4 271.35 454.85 268.45 L455.25 268.45 Q465.45 285.9 483.65 271.05 L484.55 270.3 Q488.95 272.65 493.4 270.95 497.25 272.55 498.8 268.75 L499.55 265.8 Q500.2 264.45 500.35 262.9 M460.8 325.8 Q460.3 320.3 461.15 314.3 461.75 309.95 466.2 309.15 469.0 310.4 471.55 311.95 482.15 318.4 486.25 329.05 487.7 332.85 488.35 337.15 489.0 341.3 487.15 345.4 L485.35 349.5 Q485.05 344.05 481.9 337.45 480.45 334.45 477.95 334.4 470.15 334.15 463.2 336.5 L462.65 334.8 Q472.2 329.25 464.8 324.0 462.75 324.75 460.8 325.8 M483.5 359.0 L489.95 355.25 Q495.8 356.45 493.7 361.9 L493.65 362.2 Q498.1 381.3 477.8 392.65 468.9 397.65 461.25 388.75 458.6 385.65 460.3 382.05 L461.15 380.55 Q464.95 375.05 469.5 370.4 L469.8 370.1 Q475.95 363.8 483.5 359.0 M459.8 373.3 L459.35 376.65 Q457.8 382.95 456.95 389.35 456.45 393.45 454.95 397.85 L454.35 399.6 Q453.55 398.2 451.1 397.1 L440.75 406.2 Q440.1 405.85 439.45 405.6 429.1 400.6 430.75 393.3 431.4 390.15 434.2 386.65 438.6 381.1 443.4 375.85 451.55 375.45 459.8 373.3 M457.0 414.9 Q469.7 420.45 469.85 434.5 469.9 439.45 465.85 442.65 L464.0 443.8 Q454.3 449.25 448.5 446.45 442.95 443.8 440.95 433.65 L440.45 430.35 Q444.3 429.0 448.25 426.0 456.2 419.95 457.0 414.9 M452.05 465.4 Q448.85 474.55 433.6 472.9 424.0 478.7 418.3 464.95 411.9 449.75 415.5 437.35 415.6 437.1 416.05 436.95 L419.0 438.95 Q419.9 438.4 420.8 438.35 437.25 440.05 443.25 451.35 L446.55 452.55 451.55 454.25 Q452.5 454.5 452.65 456.1 453.4 461.65 452.05 465.4 M419.35 407.5 Q415.7 411.05 410.95 408.2 409.55 407.35 409.8 405.2 411.8 390.45 408.25 375.85 L409.55 374.8 Q412.25 372.35 414.05 369.95 L415.55 371.1 Q415.1 371.8 416.2 372.15 L417.2 372.5 Q425.75 380.1 425.65 390.1 425.6 395.05 423.4 400.65 421.6 405.3 419.35 407.5 M385.95 405.55 L385.55 405.8 Q394.2 415.6 383.7 419.75 L382.4 422.2 382.05 422.6 Q401.7 441.15 381.7 458.3 L381.65 458.35 379.95 456.3 377.3 459.55 Q376.0 459.25 374.6 458.05 367.35 452.1 361.6 444.6 365.1 443.35 365.2 438.75 365.25 436.1 364.65 434.1 L362.9 429.9 Q365.9 424.9 370.6 421.2 367.95 420.15 366.9 417.25 L366.35 415.15 366.25 412.85 Q366.8 408.65 372.2 406.05 375.7 404.35 378.75 401.85 L381.05 399.75 Q382.3 398.55 383.9 398.5 390.85 400.4 386.1 405.4 L385.95 405.55 M348.9 482.8 Q338.35 482.2 337.6 468.15 337.25 460.0 337.75 451.75 338.15 445.55 342.75 442.95 L344.55 443.7 Q345.45 446.55 346.8 449.35 352.4 460.6 356.7 451.5 363.85 458.65 362.75 469.1 L360.75 469.7 Q358.5 470.4 359.15 471.9 360.05 474.05 361.35 475.35 L360.25 478.5 Q359.2 481.1 355.95 481.95 352.0 482.95 348.9 482.8 M352.8 403.95 Q349.6 404.15 345.95 401.7 341.55 398.8 344.85 394.3 353.7 382.25 350.0 366.75 349.0 362.4 349.6 357.9 L350.35 353.45 Q353.25 370.25 350.15 388.85 349.8 390.8 351.3 390.65 358.55 389.8 364.3 386.25 364.75 390.3 362.85 394.3 360.2 400.05 356.95 402.4 354.95 403.8 352.8 403.95 M342.6 330.8 Q338.5 337.05 333.2 339.5 L330.85 340.45 Q332.8 331.25 327.6 325.8 320.55 330.4 314.1 337.05 L313.3 337.9 310.35 335.7 Q302.25 328.2 306.8 321.25 309.2 317.7 312.4 314.7 319.65 308.0 328.2 303.55 328.75 307.35 330.1 311.05 334.3 322.6 342.6 330.8 M326.8 362.95 L330.1 363.25 332.0 363.1 Q334.45 367.6 335.55 373.0 L336.2 377.2 Q336.55 380.65 334.15 383.7 324.8 395.65 317.0 387.3 315.3 385.5 313.8 383.1 304.55 368.35 299.95 352.35 298.65 347.65 300.85 347.5 302.2 347.4 304.9 349.05 L305.75 349.8 Q306.3 348.25 307.8 347.25 L308.2 347.05 Q309.15 346.55 310.0 346.45 L316.05 348.85 Q320.25 350.85 323.65 353.45 L323.55 353.9 Q323.15 355.3 323.0 356.8 322.4 361.8 326.8 362.95 M330.7 283.8 Q324.95 285.4 324.4 281.0 L322.7 282.75 Q334.0 295.1 320.95 299.8 L319.35 297.7 317.45 295.65 Q312.45 296.75 311.45 301.65 L310.5 301.55 Q308.45 299.95 306.1 299.95 302.25 297.25 301.65 290.15 L301.4 285.5 Q307.45 286.8 313.7 279.3 L314.75 278.0 Q325.85 263.65 309.95 257.15 L309.95 256.85 309.95 256.3 Q309.6 252.95 305.85 252.4 302.85 252.55 302.2 255.6 L302.0 256.95 299.55 256.75 Q298.25 256.7 299.25 255.2 303.25 249.2 309.6 245.4 310.1 243.9 312.05 242.9 L312.75 242.65 313.25 242.45 314.05 243.05 Q315.7 242.25 317.55 241.6 L319.1 241.1 319.4 242.55 Q319.95 245.25 321.4 247.55 323.45 250.7 326.25 253.6 331.95 259.7 338.45 259.35 340.4 259.25 342.4 258.55 L342.45 258.55 346.65 257.1 Q345.5 259.3 344.7 262.35 344.0 265.1 344.25 267.55 344.5 269.5 345.35 271.25 L344.3 273.5 Q341.85 278.45 336.5 281.3 333.15 283.1 330.7 283.8 M294.45 315.0 Q292.7 318.75 289.55 322.8 L288.65 323.95 Q283.75 330.05 283.55 322.65 L283.5 321.0 Q283.05 312.8 280.05 303.9 276.25 292.8 283.6 286.95 286.9 289.05 289.35 291.3 300.6 301.55 294.45 315.0 M296.35 254.5 Q296.65 250.95 297.4 247.45 298.15 249.7 299.45 251.9 L296.35 254.5 M399.35 167.05 Q401.8 158.55 410.85 157.35 433.1 156.7 425.8 175.05 424.5 178.4 420.95 180.05 414.1 183.25 404.75 179.0 396.85 175.4 399.35 167.05 M333.45 230.45 Q333.7 233.1 333.2 230.35 L333.45 230.45 M358.75 233.75 L358.95 233.9 357.85 235.9 357.8 235.9 Q358.15 234.85 358.75 233.75 M344.3 320.05 L344.35 320.35 341.4 317.5 341.5 317.45 344.3 320.05 M466.25 342.8 Q469.85 341.2 474.15 340.15 480.9 347.3 475.6 353.85 469.85 348.8 466.25 342.8 M447.6 487.75 Q449.5 486.5 451.55 485.6 467.25 495.35 462.4 509.5 460.95 513.6 457.8 518.15 L455.8 520.4 Q450.75 524.7 443.4 518.75 440.45 516.4 438.45 513.1 436.15 509.25 435.95 505.45 435.55 498.7 442.0 492.3 444.65 489.65 447.6 487.75 M379.4 411.85 Q379.35 412.9 379.45 411.75 L379.4 411.85 M366.05 534.75 L363.45 538.6 360.3 542.65 Q354.1 549.35 348.6 544.45 345.95 542.0 343.5 536.95 L343.0 535.85 Q339.75 528.8 345.55 523.8 L347.55 522.35 347.8 522.2 Q349.6 528.4 352.95 534.45 354.65 537.55 358.05 537.05 362.8 536.45 366.05 534.75" fill="#000000" fill-opacity="0.5019608" fill-rule="evenodd" stroke="none"/>
    <path d="M383.0 297.15 Q389.1 303.8 392.15 312.45 393.5 316.4 389.15 319.15 385.15 321.65 381.45 322.85 374.2 325.2 368.1 322.6 367.0 322.1 366.45 320.9 364.75 317.4 364.95 313.55 365.1 310.25 364.65 306.55 364.3 304.0 364.3 301.75 364.25 292.5 369.7 286.95 377.55 291.25 383.0 297.15 M369.85 356.75 Q373.5 361.05 376.3 365.95 377.45 367.9 377.25 370.0 377.1 371.55 376.2 373.2 374.05 377.0 371.5 380.05 368.25 383.75 364.3 386.25 358.55 389.8 351.3 390.65 349.8 390.8 350.15 388.85 353.25 370.25 350.35 353.45 L349.9 351.3 Q349.55 349.25 348.4 346.9 346.35 342.35 351.4 341.45 L353.15 342.55 Q362.9 348.6 369.85 356.75 M402.6 248.4 L401.95 247.5 Q400.7 245.65 401.0 244.45 401.35 243.0 403.85 242.4 415.95 239.35 427.95 236.6 439.0 237.75 438.25 242.4 L437.75 243.95 Q436.2 247.05 430.25 251.55 L425.1 254.85 Q412.15 261.35 402.6 248.4 M460.3 382.05 Q459.6 378.15 461.25 372.95 L461.35 372.55 Q462.75 368.3 466.7 366.95 468.25 368.5 469.4 370.25 L469.5 370.4 Q464.95 375.05 461.15 380.55 L460.3 382.05 M454.35 399.6 Q455.7 402.0 452.05 405.45 L451.8 405.8 Q457.8 409.9 457.0 414.9 456.2 419.95 448.25 426.0 444.3 429.0 440.45 430.35 437.8 431.25 435.2 431.4 427.8 431.65 420.8 425.5 419.7 424.55 420.9 423.55 L439.95 406.9 440.75 406.2 451.1 397.1 Q453.55 398.2 454.35 399.6 M381.65 458.35 Q383.8 461.6 382.95 464.85 381.95 468.6 376.95 472.45 366.35 480.45 361.35 475.35 360.05 474.05 359.15 471.9 358.5 470.4 360.75 469.7 L362.75 469.1 Q371.4 466.1 377.3 459.55 L379.95 456.3 381.65 458.35 M344.55 443.7 Q343.05 438.55 343.3 433.25 343.45 430.75 343.9 428.2 344.45 425.45 346.75 423.15 347.7 422.15 348.9 422.1 357.6 421.9 361.9 428.25 L362.9 429.9 364.65 434.1 Q365.25 436.1 365.2 438.75 365.1 443.35 361.6 444.6 L358.95 445.0 Q357.85 448.95 356.7 451.5 352.4 460.6 346.8 449.35 345.45 446.55 344.55 443.7 M308.2 347.05 Q309.6 342.05 313.3 337.9 L314.1 337.05 Q320.55 330.4 327.6 325.8 332.8 331.25 330.85 340.45 L330.1 343.2 Q327.85 350.45 323.55 353.9 L323.65 353.45 Q320.25 350.85 316.05 348.85 L310.0 346.45 Q309.15 346.55 308.2 347.05 M319.35 297.7 L319.3 298.45 Q318.2 313.4 305.35 317.25 303.9 317.7 303.85 315.7 L303.6 309.45 Q302.35 294.55 295.75 281.7 295.35 280.9 296.85 280.15 298.3 279.45 299.65 279.25 L300.6 279.15 Q302.95 279.15 305.0 280.75 L305.8 281.5 305.95 280.85 Q306.95 275.95 311.95 274.85 L314.75 278.0 313.7 279.3 Q307.45 286.8 301.4 285.5 L301.65 290.15 Q302.25 297.25 306.1 299.95 308.45 299.95 310.5 301.55 L311.45 301.65 Q312.45 296.75 317.45 295.65 L319.35 297.7 M319.1 241.1 L318.85 238.85 Q318.4 231.55 326.1 237.3 L326.15 237.35 Q331.15 235.3 335.8 232.1 L336.4 231.85 336.4 231.8 Q340.95 231.75 341.15 235.95 L341.15 236.3 Q346.05 235.65 350.7 236.45 L353.75 237.1 353.7 237.4 Q353.2 244.45 355.65 249.05 L353.85 249.45 Q352.55 249.7 352.3 250.35 L354.2 249.9 362.1 248.85 363.4 248.7 365.65 248.55 Q383.15 247.25 374.05 257.35 L369.05 262.45 366.1 265.05 Q361.5 269.0 357.15 270.25 351.95 271.7 347.1 269.35 L344.25 267.55 Q344.0 265.1 344.7 262.35 345.5 259.3 346.65 257.1 L342.45 258.55 342.4 258.55 Q340.4 259.25 338.45 259.35 331.95 259.7 326.25 253.6 323.45 250.7 321.4 247.55 319.95 245.25 319.4 242.55 L319.1 241.1 M454.65 249.8 L455.8 248.5 Q459.6 249.6 459.8 252.95 L459.65 255.1 459.6 255.45 Q460.65 254.95 461.7 254.6 465.8 253.2 469.95 254.45 473.5 260.45 478.95 265.8 L481.0 267.75 Q482.75 269.35 484.55 270.3 L483.65 271.05 Q465.45 285.9 455.25 268.45 L455.15 268.3 Q448.75 257.25 454.65 249.8 M338.7 251.15 Q339.2 253.9 338.95 251.25 L338.7 251.15 M425.3 334.65 Q427.85 329.35 435.3 325.0 L437.1 324.0 Q442.2 329.55 445.45 338.45 448.1 345.5 445.2 352.15 444.4 353.9 442.2 354.05 439.8 360.4 436.2 359.75 432.55 359.05 427.7 351.45 424.65 346.65 424.05 342.35 423.55 338.3 425.3 334.65 M497.5 329.55 Q505.85 325.45 514.5 323.05 525.2 326.5 514.8 330.9 L514.95 331.0 Q515.45 332.05 515.3 333.1 515.1 334.9 513.7 335.9 517.85 350.2 505.45 353.7 503.8 354.15 503.6 351.95 486.25 345.95 493.7 333.0 494.95 330.85 497.5 329.55 M336.9 517.1 Q335.35 514.7 334.3 511.0 333.6 508.55 334.55 505.45 335.75 501.4 340.25 502.3 339.75 498.95 342.3 496.95 343.2 496.25 344.15 496.2 350.15 498.45 351.8 505.35 L351.95 505.7 Q370.0 496.45 372.95 517.45 374.65 530.05 366.05 534.75 362.8 536.45 358.05 537.05 354.65 537.55 352.95 534.45 349.6 528.4 347.8 522.2 L347.5 521.0 344.35 521.6 Q339.75 521.7 336.9 517.1 M363.65 511.25 Q354.4 510.9 352.3 519.35 350.75 525.2 352.65 530.9 354.95 537.9 361.25 533.05 377.4 520.7 363.65 511.25" fill="#000000" fill-opacity="0.7529412" fill-rule="evenodd" stroke="none"/>
  </g>
</svg>
