<?xml version="1.0" encoding="UTF-8" standalone="no"?>
<svg xmlns:xlink="http://www.w3.org/1999/xlink" height="390.85px" width="187.0px" xmlns="http://www.w3.org/2000/svg">
  <g transform="matrix(1.0, 0.0, 0.0, 1.0, -306.3, -166.05)">
    <path d="M418.45 179.95 Q409.85 177.75 399.8 177.6 389.75 177.75 381.15 179.95 M382.3 191.7 Q390.0 190.0 399.8 189.85 409.6 190.0 417.3 191.7 M381.85 168.6 Q390.25 166.45 399.8 166.55 409.35 166.45 417.75 168.6 M407.7 209.65 Q411.45 209.15 415.3 206.45 M319.7 271.85 Q336.7 274.95 349.7 280.65 370.75 273.7 399.8 273.4 428.85 273.7 449.9 280.65 462.9 274.95 479.9 271.85 M481.9 285.35 Q468.25 288.8 457.45 293.1 M391.9 209.65 Q388.15 209.15 384.3 206.45 M382.85 218.9 Q388.35 224.3 399.8 224.15 411.25 224.3 416.75 218.9 M385.3 203.1 Q392.75 201.1 399.8 201.25 406.85 201.1 414.3 203.1 M471.5 235.4 Q443.25 249.75 399.8 249.5 356.35 249.75 328.1 235.4 M363.25 291.3 Q378.75 287.65 399.8 286.9 420.85 287.65 436.35 291.3 M359.45 225.4 Q372.65 237.05 399.8 236.45 426.95 237.05 440.15 225.4 M430.2 301.5 Q415.05 301.75 399.8 301.5 384.55 301.75 369.4 301.5 M428.05 313.25 Q415.85 315.7 399.8 315.45 383.75 315.7 371.55 313.25 M429.2 323.45 Q419.1 328.3 399.8 328.2 380.5 328.3 370.4 323.45 M366.25 336.35 Q382.85 342.95 399.8 343.2 416.75 342.95 433.35 336.35 M343.2 382.4 L341.3 383.55 Q337.9 386.0 332.7 385.25 M319.25 375.85 Q333.25 376.05 342.5 370.7 L346.6 367.7 M387.8 382.65 Q372.15 382.4 357.45 377.2 M359.5 364.7 Q375.05 369.55 391.6 370.3 M355.85 390.5 Q369.0 395.25 384.45 394.4 M392.75 357.9 Q376.1 356.35 362.45 350.95 M465.85 303.75 Q475.4 304.3 485.0 301.65 M406.85 357.9 Q423.5 356.35 437.15 350.95 M443.75 390.5 Q430.6 395.25 415.15 394.4 M440.1 364.7 Q424.55 369.55 408.0 370.3 M411.8 382.65 Q427.45 382.4 442.15 377.2 M468.7 358.05 Q475.3 361.9 481.45 361.6 M468.85 348.25 Q478.4 349.5 485.65 348.65 M480.35 375.85 Q466.35 376.05 457.1 370.7 L453.0 367.7 M456.4 382.4 L458.3 383.55 Q461.7 386.0 466.9 385.25 M479.05 255.75 Q439.9 264.15 399.8 263.5 359.7 264.15 320.55 255.75 M461.7 320.8 Q478.05 321.4 492.8 315.8 M466.95 335.7 Q481.7 335.9 489.65 334.4 M422.8 427.4 Q437.5 432.5 444.8 427.05 M420.7 417.35 Q436.55 419.8 445.0 416.8 M418.1 406.25 Q434.75 408.05 444.7 404.05 M418.8 448.0 Q436.25 449.5 450.7 445.3 M450.15 462.35 Q438.55 465.3 425.6 464.5 M448.0 476.35 Q440.4 478.2 431.7 478.15 M446.2 488.35 Q441.15 490.2 434.8 489.15 M381.5 406.25 Q364.85 408.05 354.9 404.05 M378.9 417.35 Q363.05 419.8 354.6 416.8 M353.4 488.35 Q358.45 490.2 364.8 489.15 M351.6 476.35 Q359.2 478.2 367.9 478.15 M349.45 462.35 Q361.05 465.3 374.0 464.5 M380.8 448.0 Q363.35 449.5 348.9 445.3 M376.8 427.4 Q362.1 432.5 354.8 427.05 M358.0 532.35 Q347.75 521.55 337.5 523.2 M354.9 498.05 Q357.65 499.95 362.85 498.45 M353.45 547.4 Q340.45 532.15 325.7 537.7 M364.8 516.65 Q355.45 509.85 346.9 511.6 M444.7 498.05 Q441.95 499.95 436.75 498.45 M453.7 556.4 Q464.85 547.55 475.7 551.85 M434.8 516.65 Q444.15 509.85 452.7 511.6 M446.15 547.4 Q459.15 532.15 473.9 537.7 M441.6 532.35 Q451.85 521.55 462.1 523.2 M345.9 556.4 Q334.75 547.55 323.9 551.85 M317.7 285.35 Q331.35 288.8 342.15 293.1 M333.75 303.75 Q324.2 304.3 314.6 301.65 M332.65 335.7 Q317.9 335.9 309.95 334.4 M330.75 348.25 Q321.2 349.5 313.95 348.65 M337.9 320.8 Q321.55 321.4 306.8 315.8 M330.9 358.05 Q324.3 361.9 318.15 361.6" fill="none" stroke="#000000" stroke-linecap="round" stroke-linejoin="round" stroke-opacity="0.2509804" stroke-width="1.0"/>
  </g>
</svg>
