<?xml version="1.0" encoding="UTF-8" standalone="no"?>
<svg xmlns:xlink="http://www.w3.org/1999/xlink" height="23.2px" width="23.55px" xmlns="http://www.w3.org/2000/svg">
  <g transform="matrix(1.0, 0.0, 0.0, 1.0, -388.05, -241.8)">
    <path d="M408.65 261.3 Q407.4 262.65 405.7 263.65 404.0 264.65 402.25 265.0 L402.25 257.65 408.65 261.3 M410.05 247.5 L411.05 249.75 Q412.1 253.05 411.15 256.5 L411.0 257.1 402.25 252.05 402.25 241.8 402.85 241.95 Q406.4 242.95 408.65 245.55 L410.05 247.5 M397.4 241.8 L397.4 252.1 388.65 257.1 388.5 256.5 Q387.55 253.0 388.6 249.75 388.95 248.55 389.6 247.5 390.25 246.4 391.05 245.5 393.3 242.95 396.8 241.95 L397.4 241.8 M391.05 261.35 L397.4 257.65 397.4 265.0 Q395.65 264.65 393.9 263.65 392.25 262.65 391.05 261.35" fill="#000000" fill-rule="evenodd" stroke="none"/>
  </g>
</svg>
