<?xml version="1.0" encoding="UTF-8" standalone="no"?>
<svg xmlns:xlink="http://www.w3.org/1999/xlink" height="25.95px" width="27.35px" xmlns="http://www.w3.org/2000/svg">
  <g transform="matrix(1.0, 0.0, 0.0, 1.0, -386.2, -243.65)">
    <path d="M408.75 250.35 Q407.2 247.85 404.6 246.6 L406.05 243.65 Q409.45 245.4 411.45 248.6 413.55 252.0 413.55 255.9 413.55 261.55 409.55 265.6 405.5 269.6 399.9 269.6 394.25 269.6 390.25 265.6 386.2 261.55 386.2 255.9 386.2 252.0 388.3 248.6 390.3 245.4 393.75 243.65 L395.2 246.5 Q392.6 247.8 391.05 250.35 389.4 252.9 389.4 255.9 389.4 260.25 392.5 263.25 395.6 266.35 399.9 266.35 404.25 266.35 407.25 263.25 410.3 260.25 410.3 255.9 410.3 252.9 408.75 250.35" fill="#000000" fill-rule="evenodd" stroke="none"/>
  </g>
</svg>
