<?xml version="1.0" encoding="UTF-8" standalone="no"?>
<svg xmlns:xlink="http://www.w3.org/1999/xlink" height="34.25px" width="34.25px" xmlns="http://www.w3.org/2000/svg">
  <g transform="matrix(1.0, 0.0, 0.0, 1.0, -382.8, -237.45)">
    <path d="M406.9 240.45 L407.55 238.8 410.75 241.95 409.6 243.15 406.9 240.45 M405.9 242.9 L407.85 244.9 408.95 243.8 406.5 241.4 405.9 242.9 M400.85 240.55 L404.4 240.55 403.8 242.05 400.85 242.1 400.85 240.55 M406.05 246.75 L404.8 245.5 405.4 244.05 407.05 245.7 406.05 246.75 M407.65 248.3 L408.7 247.25 410.3 248.9 408.9 249.5 407.65 248.3 M402.75 244.6 L396.95 244.65 396.35 243.25 403.35 243.2 402.75 244.6 M415.55 246.7 L413.9 247.35 411.2 244.7 412.35 243.55 415.55 246.7 M413.85 249.85 L413.95 259.0 412.4 258.4 412.35 250.45 413.85 249.85 M416.4 248.75 L416.55 260.05 414.9 259.35 414.8 249.45 416.4 248.75 M413.0 247.75 L411.45 248.4 409.5 246.45 410.55 245.4 413.0 247.75 M404.75 239.6 L394.8 239.7 394.1 238.05 405.45 237.95 404.75 239.6 M411.25 253.55 L409.75 253.55 409.75 251.6 411.2 250.95 411.25 253.55 M411.25 255.8 L409.8 255.8 409.8 257.3 411.3 257.95 411.25 255.8 M413.15 261.1 L406.7 267.6 406.05 266.1 411.55 260.45 413.15 261.1 M415.7 262.1 L407.8 270.2 407.1 268.55 414.1 261.5 415.7 262.1 M404.65 268.45 L395.5 268.55 396.15 267.0 403.95 266.95 404.65 268.45 M403.5 265.85 L400.85 265.85 400.85 264.4 402.9 264.35 403.5 265.85 M405.05 269.45 L405.75 271.1 400.85 271.15 400.85 269.5 405.05 269.45 M404.95 263.5 L408.95 259.4 410.45 260.0 405.6 264.95 404.95 263.5 M386.75 248.05 L393.15 241.5 393.8 243.05 388.3 248.6 386.75 248.05 M384.95 249.7 L385.05 259.65 383.4 260.3 383.3 249.05 384.95 249.7 M385.8 247.65 L384.15 246.95 387.3 243.75 388.5 244.95 385.8 247.65 M395.85 242.15 L395.25 240.6 398.6 240.6 398.6 242.1 395.85 242.15 M392.75 240.55 L390.1 243.3 388.9 242.15 392.05 238.9 392.75 240.55 M390.85 249.65 L389.45 249.1 394.3 244.15 394.85 245.55 390.85 249.65 M390.0 253.55 L388.6 253.55 388.6 251.2 390.0 251.75 390.0 253.55 M390.0 255.8 L388.6 255.8 388.65 258.1 390.05 257.55 390.0 255.8 M385.95 253.55 L385.95 250.1 387.45 250.75 387.5 253.55 385.95 253.55 M387.5 255.8 L387.55 258.55 386.0 259.25 385.95 255.8 387.5 255.8 M388.4 260.65 L390.4 262.65 389.35 263.75 386.85 261.3 Q387.65 261.0 388.4 260.65 M385.85 261.7 L388.65 264.4 387.5 265.6 384.25 262.4 385.85 261.7 M397.15 264.45 L398.6 264.4 398.6 265.9 396.6 265.9 397.15 264.45 M390.3 266.0 L389.1 267.15 392.35 270.35 393.0 268.75 390.3 266.0 M394.0 266.15 L393.45 267.75 390.95 265.3 392.05 264.25 394.0 266.15 M398.6 269.5 L395.15 269.55 394.45 271.2 398.6 271.15 398.6 269.5 M394.45 265.05 L389.5 260.2 390.9 259.55 395.05 263.65 394.45 265.05" fill="none" stroke="#333333" stroke-linecap="round" stroke-linejoin="round" stroke-opacity="0.49803922" stroke-width="1.0"/>
  </g>
</svg>
