<?xml version="1.0" encoding="UTF-8" standalone="no"?>
<svg xmlns:xlink="http://www.w3.org/1999/xlink" height="31.55px" width="28.1px" xmlns="http://www.w3.org/2000/svg">
  <g transform="matrix(1.0, 0.0, 0.0, 1.0, -385.8, -238.45)">
    <path d="M405.25 244.95 L407.1 244.6 Q412.1 244.0 413.45 246.3 414.85 248.75 411.85 252.85 L410.7 254.25 411.9 255.7 Q414.85 259.7 413.45 262.1 412.1 264.45 407.15 263.85 L405.25 263.6 404.6 265.4 Q402.6 270.0 399.8 270.0 397.05 270.0 395.1 265.4 L394.45 263.65 392.55 263.95 Q387.6 264.55 386.2 262.1 384.85 259.8 387.8 255.75 L389.05 254.25 387.85 252.75 Q384.85 248.65 386.2 246.3 387.6 243.9 392.55 244.5 L394.45 244.85 395.1 243.1 Q397.05 238.45 399.8 238.45 402.6 238.45 404.6 243.1 L405.25 244.95 M395.85 254.25 Q395.85 255.85 397.05 257.05 398.2 258.2 399.8 258.2 401.45 258.2 402.6 257.05 403.75 255.85 403.75 254.25 403.75 252.6 402.6 251.45 401.45 250.3 399.8 250.3 398.2 250.3 397.05 251.45 395.85 252.6 395.85 254.25" fill="#000000" fill-rule="evenodd" stroke="none"/>
  </g>
</svg>
