<?xml version="1.0" encoding="UTF-8" standalone="no"?>
<svg xmlns:xlink="http://www.w3.org/1999/xlink" height="33.65px" width="38.6px" xmlns="http://www.w3.org/2000/svg">
  <g transform="matrix(1.0, 0.0, 0.0, 1.0, -380.95, -235.7)">
    <path d="M404.65 268.05 L409.95 268.4 Q405.25 270.35 400.75 268.35 L402.9 267.2 404.65 268.05 M410.6 246.9 L413.3 247.8 Q411.1 259.3 397.85 259.2 L398.05 254.4 Q407.4 254.25 410.6 246.9 M408.75 235.8 Q412.8 238.8 413.4 243.8 L411.3 242.45 Q411.5 238.9 408.75 235.8 M404.7 246.7 L401.15 243.75 Q413.85 239.1 419.55 253.35 412.85 244.4 404.7 246.7 M386.0 245.35 L385.8 247.8 Q382.5 249.25 380.95 253.05 381.8 248.1 386.0 245.35 M395.85 247.4 L399.75 250.1 Q395.15 258.15 399.7 264.7 L397.5 266.55 Q388.85 258.65 395.85 247.4 M390.15 246.2 L389.5 243.4 Q400.15 240.0 406.55 251.65 L402.5 253.65 Q397.75 245.6 390.15 246.2 M403.1 259.45 L407.4 257.85 Q405.05 271.15 389.85 269.0 401.0 267.7 403.1 259.45 M391.8 256.5 Q381.65 247.6 391.3 235.7 386.7 245.9 392.65 252.0 L391.8 256.5" fill="#000000" fill-rule="evenodd" stroke="none"/>
  </g>
</svg>
