<?xml version="1.0" encoding="UTF-8" standalone="no"?>
<svg xmlns:xlink="http://www.w3.org/1999/xlink" height="183.3px" width="56.1px" xmlns="http://www.w3.org/2000/svg">
  <g transform="matrix(1.0, 0.0, 0.0, 1.0, -333.2, -347.9)">
    <path d="M357.4 377.6 L361.1 378.25 M365.25 365.2 L380.55 368.5 M364.55 353.85 L388.8 360.1 M364.25 381.05 L387.05 385.15 M358.0 373.7 L364.9 375.3 M364.45 388.05 L381.85 390.7 M357.25 383.05 L378.75 386.65 M360.9 357.85 L379.1 362.15 M360.35 390.55 L375.3 392.8 M358.75 369.1 L374.6 372.55 M363.05 348.4 L386.25 354.55 M357.05 393.85 L365.95 394.95 M350.5 455.65 L363.4 457.05 M351.7 477.1 L361.15 477.4 M356.35 491.1 L358.95 491.3 M352.3 481.1 L362.0 481.65 M356.55 487.9 L361.4 488.1 M356.35 471.55 L359.15 471.55 M356.15 484.25 L365.85 484.9 M350.05 440.95 L367.65 443.15 M349.05 444.55 L360.4 446.15 M354.75 460.1 L366.45 461.5 M353.95 467.15 L364.6 468.1 M352.9 448.55 L371.45 450.4 M360.0 453.85 L377.0 455.9 M363.95 412.3 L367.65 412.9 M357.1 397.5 L372.35 399.95 M359.95 402.5 L374.3 404.5 M362.05 407.65 L373.3 409.05 M346.8 517.65 L355.2 518.65 M352.8 508.75 L359.55 509.6 M353.55 512.55 L355.75 512.9 M350.9 515.25 L356.1 515.85 M333.7 527.85 L349.45 530.7 M337.3 523.45 L344.6 524.7 M340.25 519.8 L352.65 521.85" fill="none" stroke="#000000" stroke-linecap="round" stroke-linejoin="round" stroke-opacity="0.5019608" stroke-width="1.0"/>
  </g>
</svg>
