<?xml version="1.0" encoding="UTF-8" standalone="no"?>
<svg xmlns:xlink="http://www.w3.org/1999/xlink" height="213.8px" width="140.8px" xmlns="http://www.w3.org/2000/svg">
  <g transform="matrix(1.0, 0.0, 0.0, 1.0, -329.4, -323.45)">
    <path d="M370.4 323.45 Q380.55 328.3 399.8 328.2 419.1 328.3 429.25 323.45 446.5 374.05 444.8 427.05 L449.25 439.95 Q452.3 448.35 450.8 458.25 L444.7 498.05 448.05 501.45 448.05 505.9 453.6 512.75 Q463.65 520.05 470.2 527.8 467.25 526.5 464.3 525.9 L462.55 525.6 Q465.8 528.8 467.55 533.3 463.5 530.4 458.9 529.2 460.75 531.9 461.1 535.0 456.2 531.3 450.8 529.7 449.85 532.6 450.35 535.2 447.05 533.05 445.55 530.75 443.9 534.0 443.5 537.25 440.75 530.05 439.65 522.7 L438.75 524.65 438.5 525.35 Q438.05 526.85 438.0 528.5 435.9 522.85 434.85 516.7 434.0 513.4 434.55 509.5 L434.55 509.25 435.45 506.15 434.65 502.95 436.75 498.45 434.65 488.45 Q431.9 476.0 425.6 464.5 L421.3 457.35 420.8 456.3 Q417.45 448.35 419.55 439.7 L422.8 427.4 Q415.75 391.95 404.4 359.5 L395.2 359.5 Q383.85 391.95 376.8 427.4 L380.05 439.7 Q382.15 448.35 378.8 456.3 L378.3 457.35 Q376.0 460.85 374.0 464.5 367.7 476.0 364.95 488.45 L362.85 498.45 364.95 502.95 364.15 506.15 365.05 509.25 365.05 509.5 Q365.6 513.4 364.75 516.7 363.7 522.85 361.6 528.5 361.55 526.85 361.1 525.35 L360.85 524.65 359.95 522.7 Q358.85 530.05 356.1 537.25 355.7 534.0 354.05 530.75 352.55 533.05 349.25 535.2 349.75 532.6 348.8 529.7 343.4 531.3 338.5 535.0 338.85 531.9 340.7 529.2 336.1 530.4 332.05 533.3 333.8 528.8 337.05 525.6 L335.3 525.9 Q332.35 526.5 329.4 527.8 335.95 520.05 346.0 512.75 L351.55 505.9 351.55 501.45 354.9 498.05 348.8 458.25 Q347.3 448.35 350.35 439.95 L354.8 427.05 Q353.1 374.05 370.4 323.45" fill="#000000" fill-rule="evenodd" stroke="none"/>
  </g>
</svg>
