<?xml version="1.0" encoding="UTF-8" standalone="no"?>
<svg xmlns:xlink="http://www.w3.org/1999/xlink" height="232.95px" width="79.0px" xmlns="http://www.w3.org/2000/svg">
  <g transform="matrix(1.0, 0.0, 0.0, 1.0, -320.8, -323.45)">
    <path d="M370.4 323.45 Q380.55 328.3 399.8 328.2 L399.8 359.5 395.2 359.5 Q383.85 391.95 376.8 427.4 L380.05 439.7 Q382.15 448.35 378.8 456.3 L378.3 457.35 Q376.0 460.85 374.0 464.5 367.7 476.0 364.95 488.45 L362.85 498.45 364.95 502.95 364.15 506.15 365.05 509.25 365.05 509.5 Q365.9 515.5 363.4 520.05 362.0 522.2 360.9 524.55 359.05 528.45 357.9 532.65 L356.9 537.5 Q355.6 546.45 348.75 553.95 L345.85 556.4 338.75 556.35 337.25 555.05 Q335.9 553.45 336.45 551.35 L338.5 548.7 339.1 547.65 Q338.1 545.55 336.1 545.4 334.35 545.9 334.1 548.7 333.2 552.35 330.35 554.05 L323.25 554.0 321.75 552.7 Q320.4 551.1 320.95 549.0 L323.0 546.35 323.15 546.1 Q323.65 545.0 324.3 544.35 323.95 542.1 324.4 540.3 L325.7 537.7 351.55 505.9 351.55 501.45 354.9 498.05 348.8 458.25 Q347.3 448.35 350.35 439.95 L354.8 427.05 Q353.1 374.05 370.4 323.45" fill="#000000" fill-rule="evenodd" stroke="none"/>
  </g>
</svg>
