<?xml version="1.0" encoding="UTF-8" standalone="no"?>
<svg xmlns:xlink="http://www.w3.org/1999/xlink" height="226.8px" width="121.3px" xmlns="http://www.w3.org/2000/svg">
  <g transform="matrix(1.0, 0.0, 0.0, 1.0, -339.3, -323.45)">
    <path d="M368.7 328.05 L370.4 323.45 Q380.5 328.3 399.8 328.2 419.1 328.3 429.2 323.45 L431.2 328.1 410.45 336.7 402.1 332.7 400.05 334.6 397.8 332.65 389.5 336.65 368.7 328.05 M364.95 337.6 L365.75 354.3 370.15 356.3 372.5 349.7 377.0 352.75 377.0 352.7 Q376.65 351.55 376.65 350.2 376.65 347.75 377.9 345.85 L378.5 345.0 Q380.35 342.85 383.0 342.9 385.6 342.85 387.6 345.15 L388.5 346.4 Q389.4 348.1 389.4 350.2 L389.3 351.4 389.2 352.05 Q388.8 353.75 387.65 355.15 L387.5 355.35 Q386.55 356.45 385.4 357.0 L384.6 357.3 383.0 357.5 Q380.35 357.5 378.5 355.35 L377.65 354.2 377.0 352.75 373.85 362.25 370.15 360.5 363.75 364.25 362.35 376.2 365.35 387.15 370.05 387.15 370.0 405.45 370.6 404.6 Q372.45 402.45 375.1 402.5 377.7 402.45 379.7 404.75 L379.75 387.15 384.95 387.15 384.7 388.75 383.7 410.65 388.7 431.0 386.85 431.75 381.3 411.65 Q380.85 413.45 379.6 414.9 377.75 417.05 375.1 417.1 372.45 417.05 370.6 414.9 L369.75 413.8 375.05 436.25 375.0 436.3 364.55 442.3 366.4 452.5 350.85 463.7 Q346.85 467.05 347.25 470.15 347.65 473.2 352.45 476.0 L356.4 476.0 360.65 477.75 349.3 477.85 350.2 487.0 342.55 487.0 Q343.0 483.2 343.0 478.45 L347.45 478.45 347.15 470.15 Q346.9 455.7 349.0 446.15 350.2 450.95 356.85 453.2 L358.8 453.75 363.45 422.5 359.55 396.3 359.55 368.25 364.95 345.5 364.95 337.6 M368.75 335.45 L373.0 344.5 373.0 347.75 368.75 339.45 368.75 335.45 M375.45 344.25 L371.2 336.0 371.2 331.95 375.45 341.05 375.45 344.25 M372.45 368.55 Q373.65 367.85 375.1 367.85 377.7 367.85 379.7 370.15 L380.3 370.95 Q381.5 372.75 381.5 375.15 L381.3 377.0 Q380.9 378.75 379.75 380.15 L379.6 380.3 Q377.75 382.45 375.1 382.45 372.85 382.45 371.2 380.9 L370.6 380.3 370.45 380.05 369.75 379.15 Q368.75 377.4 368.75 375.15 368.75 372.7 370.0 370.8 L370.6 369.95 371.6 369.05 Q372.0 368.75 372.45 368.55 M416.9 342.95 Q419.55 342.9 421.45 345.05 L422.0 345.85 Q423.25 347.75 423.3 350.25 L422.9 352.75 422.9 352.8 427.4 349.75 429.8 356.35 434.2 354.35 435.0 337.65 435.0 345.55 440.4 368.25 440.4 396.3 436.5 422.55 441.15 453.75 443.1 453.2 Q449.7 450.95 450.9 446.2 453.0 455.75 452.75 470.2 L452.45 478.5 456.95 478.5 Q456.9 483.25 457.35 487.05 L449.7 487.05 450.6 477.9 439.3 477.8 443.55 476.05 447.45 476.05 Q452.25 473.25 452.65 470.2 453.05 467.1 449.05 463.75 L433.55 452.55 435.4 442.35 424.9 436.35 424.9 436.3 430.15 413.85 429.35 414.95 Q427.45 417.1 424.8 417.15 422.15 417.1 420.3 414.95 419.05 413.5 418.65 411.7 L413.05 431.8 411.25 431.05 416.25 410.7 415.2 388.75 414.95 387.2 420.2 387.2 420.2 404.8 Q422.2 402.5 424.8 402.55 427.45 402.5 429.35 404.65 L429.9 405.5 429.85 387.2 434.6 387.2 437.55 376.25 436.2 364.3 429.8 360.55 426.05 362.3 422.9 352.8 422.25 354.25 421.45 355.4 Q419.55 357.55 416.9 357.55 L415.3 357.35 414.55 357.05 Q413.35 356.5 412.4 355.4 L412.3 355.2 Q411.1 353.8 410.75 352.1 L410.65 351.45 410.55 350.25 Q410.5 348.15 411.45 346.45 L412.3 345.2 Q414.3 342.9 416.9 342.95 M424.5 341.1 L428.75 332.0 428.75 336.05 424.5 344.3 424.5 341.1 M431.15 335.5 L431.15 339.5 426.9 347.8 426.9 344.55 431.15 335.5 M429.9 370.85 Q431.15 372.75 431.2 375.2 431.15 377.45 430.15 379.2 L429.5 380.1 429.35 380.35 428.75 380.95 Q427.05 382.5 424.8 382.5 422.15 382.5 420.3 380.35 L420.2 380.2 Q419.0 378.8 418.65 377.05 L418.45 375.2 Q418.4 372.8 419.6 371.0 L420.2 370.2 Q422.2 367.9 424.8 367.9 426.25 367.9 427.5 368.55 L428.3 369.1 429.35 370.0 429.9 370.85 M422.95 432.5 Q424.35 434.15 424.75 436.35 L424.8 436.6 424.9 437.9 Q424.85 440.75 423.3 442.85 L422.95 443.25 Q421.35 445.05 419.25 445.4 L418.25 445.5 Q415.7 445.5 413.85 443.55 L413.6 443.25 Q411.6 441.05 411.65 437.9 411.65 435.75 412.55 434.05 L413.6 432.5 Q415.5 430.25 418.25 430.3 421.0 430.25 422.95 432.5 M447.75 468.8 Q448.5 468.8 449.05 469.4 449.55 470.0 449.55 470.85 449.55 471.7 449.05 472.3 448.5 472.9 447.75 472.9 447.05 472.9 446.55 472.3 446.0 471.7 446.0 470.85 446.0 470.0 446.55 469.4 447.05 468.8 447.75 468.8 M437.15 458.25 Q437.95 458.25 438.55 458.9 439.05 459.55 439.1 460.45 439.05 461.35 438.55 462.0 437.95 462.65 437.15 462.7 436.35 462.65 435.8 462.0 435.2 461.35 435.25 460.45 435.2 459.55 435.8 458.9 436.35 458.25 437.15 458.25 M426.9 452.65 Q428.05 454.0 428.05 455.9 428.05 457.75 426.9 459.05 425.75 460.4 424.1 460.4 422.45 460.4 421.3 459.05 420.15 457.75 420.15 455.9 420.15 454.0 421.3 452.65 422.45 451.35 424.1 451.35 425.75 451.35 426.9 452.65 M381.65 430.25 Q384.4 430.2 386.35 432.45 L387.4 434.0 Q388.25 435.7 388.3 437.85 388.3 441.0 386.35 443.2 L386.05 443.5 Q384.2 445.45 381.65 445.45 L380.7 445.35 Q378.55 445.0 376.95 443.2 L376.65 442.8 Q375.05 440.7 375.05 437.85 L375.15 436.55 375.15 436.3 Q375.5 434.1 376.95 432.45 378.9 430.2 381.65 430.25 M353.4 469.35 Q353.9 469.95 353.9 470.8 353.9 471.65 353.4 472.25 352.85 472.85 352.15 472.85 351.4 472.85 350.85 472.25 350.35 471.65 350.35 470.8 350.35 469.95 350.85 469.35 351.4 468.75 352.15 468.75 352.85 468.75 353.4 469.35 M364.1 458.85 Q364.7 459.5 364.7 460.45 364.7 461.35 364.1 461.95 363.55 462.6 362.75 462.65 361.95 462.6 361.4 461.95 360.85 461.35 360.85 460.45 360.85 459.5 361.4 458.85 361.95 458.2 362.75 458.2 363.55 458.2 364.1 458.85 M379.75 455.85 Q379.75 457.7 378.6 459.05 377.45 460.35 375.8 460.35 374.15 460.35 373.05 459.05 371.85 457.7 371.85 455.85 371.85 453.95 373.05 452.6 374.15 451.3 375.8 451.3 377.45 451.3 378.6 452.6 379.75 453.95 379.75 455.85 M345.65 511.5 L346.15 521.05 346.15 524.7 346.15 524.85 345.9 534.65 345.65 538.4 345.15 542.75 344.15 547.95 Q343.5 550.15 342.75 550.2 L342.55 550.15 Q341.25 549.65 340.3 542.75 339.3 535.35 339.3 524.85 339.3 514.35 340.3 506.95 341.3 499.5 342.75 499.5 343.4 499.5 344.05 501.35 344.6 503.15 345.15 506.95 L345.3 508.3 345.65 511.5 M457.2 499.55 Q458.6 499.55 459.65 507.0 460.6 514.4 460.6 524.9 460.6 535.4 459.65 542.8 458.65 549.7 457.4 550.2 L457.2 550.25 Q456.4 550.2 455.8 548.0 455.25 546.15 454.8 542.8 L454.3 538.45 454.0 534.7 Q453.75 530.2 453.75 524.9 L453.75 524.75 453.8 521.1 Q453.85 515.9 454.25 511.55 L454.6 508.35 454.8 507.0 Q455.3 503.2 455.9 501.4 456.5 499.55 457.2 499.55 M342.6 515.55 Q341.75 515.55 341.2 518.2 340.6 520.8 340.6 524.55 340.6 528.3 341.2 530.95 341.75 533.6 342.6 533.6 343.45 533.6 344.0 530.95 344.6 528.3 344.6 524.55 344.6 520.8 344.0 518.2 343.45 515.55 342.6 515.55 M455.9 518.2 Q455.3 520.85 455.35 524.6 455.3 528.35 455.9 531.0 456.45 533.6 457.3 533.65 458.15 533.6 458.7 531.0 459.3 528.35 459.3 524.6 459.3 520.85 458.7 518.2 458.15 515.55 457.3 515.6 456.45 515.55 455.9 518.2" fill="#000000" fill-rule="evenodd" stroke="none"/>
  </g>
</svg>
