<?xml version="1.0" encoding="UTF-8" standalone="no"?>
<svg xmlns:xlink="http://www.w3.org/1999/xlink" height="233.95px" width="154.35px" xmlns="http://www.w3.org/2000/svg">
  <g transform="matrix(1.0, 0.0, 0.0, 1.0, -322.65, -322.95)">
    <path d="M395.2 359.5 L404.4 359.5 Q415.75 391.95 422.8 427.4 L419.55 439.7 Q417.45 448.35 420.8 456.3 L421.3 457.35 425.6 464.5 Q431.9 476.0 434.65 488.45 L436.75 498.45 434.65 502.95 435.45 506.15 434.55 509.25 434.55 509.5 Q433.7 515.5 436.2 520.05 L438.7 524.55 Q440.55 528.45 441.7 532.65 L442.7 537.5 Q444.0 546.45 450.85 553.95 L453.8 556.4 460.85 556.35 462.35 555.05 M370.4 323.45 Q353.1 374.05 354.8 427.05 L350.35 439.95 Q347.3 448.35 348.8 458.25 L354.9 498.05 351.55 501.45 351.55 505.9 325.7 537.7 Q323.1 542.1 323.15 546.75 323.1 548.0 323.3 549.25 323.75 550.2 324.9 550.4 326.45 553.8 328.7 553.45 329.95 555.1 332.35 554.5 334.5 556.0 337.25 555.05 L338.75 556.35 345.85 556.4 348.75 553.95 Q355.6 546.45 356.9 537.5 L357.9 532.65 Q359.05 528.45 360.9 524.55 362.0 522.2 363.4 520.05 365.9 515.5 365.05 509.5 L365.05 509.25 364.15 506.15 364.95 502.95 362.85 498.45 364.95 488.45 Q367.7 476.0 374.0 464.5 376.0 460.85 378.3 457.35 L378.8 456.3 Q382.15 448.35 380.05 439.7 L376.8 427.4 Q383.85 391.95 395.2 359.5 M474.7 550.4 Q475.85 550.2 476.3 549.25 L476.5 546.75 Q476.5 542.1 473.9 537.7 L448.05 505.9 448.05 501.45 444.7 498.05 450.8 458.25 Q452.3 448.35 449.25 439.95 L444.8 427.05 Q446.5 374.05 429.25 323.45 M474.7 550.4 Q473.15 553.8 470.9 553.45 469.65 555.1 467.25 554.5 465.1 556.0 462.35 555.05" fill="none" stroke="#000000" stroke-linecap="round" stroke-linejoin="round" stroke-width="1.0"/>
    <path d="M404.4 359.5 L405.8 359.5 Q409.15 354.45 415.3 349.4 M395.2 359.5 L393.8 359.5 Q390.45 354.45 384.3 349.4 M324.9 550.4 Q324.6 549.75 325.3 547.8 L327.75 544.25 M443.0 431.1 L440.85 438.15 431.85 439.5 428.8 431.55 M462.35 555.05 Q463.7 553.45 463.15 551.35 L461.1 548.7 Q460.55 547.45 459.8 546.7 459.1 546.05 458.3 545.8 M356.6 431.1 L358.75 438.15 367.75 439.5 370.8 431.55 M338.15 551.8 L338.95 552.15 344.8 552.15 345.65 551.8 M339.8 544.95 L339.8 546.7 Q340.5 546.05 341.3 545.8 M337.25 555.05 Q335.9 553.45 336.45 551.35 L338.5 548.7 Q339.05 547.45 339.8 546.7 M328.7 553.45 Q327.65 552.35 328.35 549.5 L331.85 545.4 M332.35 554.5 Q330.5 553.45 331.8 550.55 L335.05 546.5 M329.3 550.1 L330.65 550.1 M326.0 548.5 L327.25 548.75 M332.75 551.25 L335.35 551.25 M340.7 548.5 Q343.8 547.4 346.95 548.5 M471.85 544.25 L474.3 547.8 Q475.0 549.75 474.7 550.4 M475.1 547.2 L475.8 546.65 M473.6 548.5 L472.35 548.75 M470.3 550.1 L468.95 550.1 M470.9 553.45 Q471.95 552.35 471.25 549.5 L467.75 545.4 M467.25 554.5 Q469.1 553.45 467.8 550.55 L464.55 546.5 M459.8 544.95 L459.8 546.7 M461.45 551.8 L460.65 552.15 454.8 552.15 453.95 551.8 M458.9 548.5 Q455.8 547.4 452.65 548.5 M466.85 551.25 L464.25 551.25 M324.5 547.2 L323.8 546.65" fill="none" stroke="#000000" stroke-linecap="round" stroke-linejoin="round" stroke-opacity="0.5019608" stroke-width="1.0"/>
  </g>
</svg>
