<?xml version="1.0" encoding="UTF-8" standalone="no"?>
<svg xmlns:xlink="http://www.w3.org/1999/xlink" height="240.3px" width="154.4px" xmlns="http://www.w3.org/2000/svg">
  <g transform="matrix(1.0, 0.0, 0.0, 1.0, -322.6, -320.2)">
    <path d="M427.0 321.1 L428.3 320.7 429.25 323.45 433.55 337.2 431.8 338.05 433.05 340.9 434.4 340.2 Q445.4 379.8 444.95 420.85 L443.9 421.95 443.55 427.05 445.7 433.1 446.65 432.45 449.25 439.95 Q452.3 448.35 450.8 458.25 L445.15 495.2 444.25 494.55 443.6 497.4 444.7 498.05 448.05 501.45 448.05 505.9 456.15 515.9 454.65 515.45 456.5 517.8 457.9 518.0 472.75 536.25 470.6 535.65 472.6 538.45 474.55 538.9 Q477.95 545.65 475.35 553.05 L471.1 560.0 458.05 560.0 450.85 553.95 Q447.9 550.7 446.0 547.25 L447.65 545.65 446.05 542.7 444.5 544.1 Q443.2 540.9 442.7 537.5 L441.7 532.65 Q440.7 528.95 439.15 525.5 L440.2 523.7 439.0 521.45 437.85 522.8 436.2 520.05 Q433.7 515.5 434.55 509.5 L434.55 509.25 435.45 506.15 434.65 502.95 436.75 498.45 437.95 497.85 437.15 494.3 436.0 494.8 434.65 488.45 Q431.9 476.0 425.6 464.5 L421.3 457.35 420.8 456.3 Q417.45 448.35 419.55 439.7 L421.2 433.55 422.9 434.05 424.55 427.75 423.0 421.55 421.45 420.8 Q414.9 390.05 405.15 361.6 L407.65 361.6 406.4 358.65 405.8 359.5 393.8 359.5 393.2 358.65 391.95 361.6 394.5 361.6 Q384.7 390.05 378.2 420.75 L376.6 421.55 375.05 427.75 376.7 434.05 378.45 433.55 380.05 439.7 Q382.15 448.35 378.8 456.3 L378.3 457.35 Q376.0 460.85 374.0 464.5 367.7 476.0 364.95 488.45 L363.6 494.8 362.45 494.3 361.65 497.85 362.85 498.45 364.95 502.95 364.15 506.15 365.05 509.25 365.05 509.5 Q365.9 515.5 363.4 520.05 L361.8 522.8 360.6 521.45 359.4 523.7 360.45 525.5 Q358.9 528.95 357.9 532.65 L356.9 537.5 Q356.4 540.9 355.15 544.1 L353.55 542.7 351.95 545.65 353.65 547.25 Q351.7 550.7 348.75 553.95 L341.55 560.0 328.5 560.0 324.25 553.05 Q321.65 545.65 325.05 538.9 L327.0 538.45 329.0 535.65 326.9 536.25 341.75 518.0 343.1 517.8 344.95 515.45 Q344.2 515.6 343.45 515.9 L351.55 505.9 351.55 501.45 354.9 498.05 356.0 497.4 355.35 494.55 354.45 495.2 348.8 458.25 Q347.3 448.35 350.35 439.95 L352.95 432.45 353.9 433.1 356.05 427.05 355.7 421.95 354.7 420.85 Q354.2 379.8 365.2 340.2 L366.95 341.1 367.75 338.0 366.05 337.2 Q368.05 330.3 370.4 323.45 L371.35 320.7 372.6 321.1" fill="none" stroke="#000000" stroke-linecap="round" stroke-linejoin="round" stroke-width="1.0"/>
    <path d="M372.6 321.1 L384.35 325.0 399.8 325.95 415.25 325.0 427.0 321.1 M393.2 358.65 Q389.9 354.0 384.3 349.4 377.5 342.85 367.8 338.05 L367.75 338.0 M366.95 341.1 Q371.4 343.4 375.35 346.0 365.2 379.3 361.35 416.15 357.4 419.25 356.7 422.95 L355.7 421.95 M391.95 361.6 Q386.4 354.05 378.25 348.05 367.95 381.15 365.15 416.65 368.75 420.05 371.0 424.4 L376.6 421.55 M433.05 340.9 L432.65 341.1 Q428.2 343.4 424.25 346.0 434.4 379.3 438.25 416.15 442.2 419.25 442.9 422.95 L443.9 421.95 M423.0 421.55 L428.6 424.4 Q430.85 420.05 434.45 416.65 431.65 381.15 421.35 348.05 413.2 354.05 407.65 361.6 M431.8 338.05 Q422.1 342.85 415.3 349.4 409.7 354.0 406.4 358.65 M437.15 494.3 L439.75 493.15 Q439.1 466.9 435.3 441.45 L430.65 442.15 427.8 435.35 422.9 434.05 M445.7 433.1 L444.7 433.8 442.9 440.3 438.15 441.05 Q441.75 466.7 442.35 493.15 L444.25 494.55 M428.8 431.55 Q430.65 424.0 436.3 418.8 442.4 424.4 443.0 431.1 L440.85 438.15 431.85 439.5 428.8 431.55 M376.7 434.05 L371.8 435.35 368.95 442.15 364.3 441.45 Q360.5 466.9 359.85 493.15 L362.45 494.3 M370.8 431.55 Q368.95 424.0 363.3 418.8 357.2 424.4 356.6 431.1 L358.75 438.15 367.75 439.5 370.8 431.55 M355.35 494.55 L357.25 493.15 Q357.85 466.7 361.45 441.05 L356.7 440.3 354.9 433.8 353.9 433.1 M361.65 497.85 L358.25 496.0 356.0 497.4 M351.55 505.9 Q357.45 508.55 364.15 506.15 M353.55 542.7 Q341.6 532.65 329.0 535.65 M343.1 517.8 Q354.3 516.15 359.4 523.7 M360.6 521.45 Q353.1 513.5 344.95 515.45 M327.0 538.45 Q340.5 535.5 351.95 545.65 M470.6 535.65 Q458.0 532.65 446.05 542.7 M443.6 497.4 L441.35 496.0 437.95 497.85 M472.6 538.45 Q459.1 535.5 447.65 545.65 M456.5 517.8 Q445.3 516.15 440.2 523.7 M454.65 515.45 Q446.5 513.5 439.0 521.45 M448.05 505.9 Q442.15 508.55 435.45 506.15" fill="none" stroke="#000000" stroke-linecap="round" stroke-linejoin="round" stroke-opacity="0.5019608" stroke-width="1.0"/>
  </g>
</svg>
