<?xml version="1.0" encoding="UTF-8" standalone="no"?>
<svg xmlns:xlink="http://www.w3.org/1999/xlink" height="13.8px" width="11.35px" xmlns="http://www.w3.org/2000/svg">
  <g transform="matrix(1.0, 0.0, 0.0, 1.0, -394.2, -155.0)">
    <path d="M398.45 155.5 L397.55 158.85 398.35 162.25 M401.3 155.5 L402.2 158.85 401.45 162.25 M401.7 167.35 Q400.8 168.35 399.9 168.3 398.95 168.35 398.05 167.35 M395.75 167.1 L397.45 166.85 M404.0 167.1 L402.3 166.85 M396.95 164.3 Q396.15 163.65 395.2 163.85 L394.7 165.2 395.1 167.4 M397.75 161.55 L397.4 163.05 M402.8 164.3 Q403.65 163.65 404.55 163.85 L405.05 165.2 404.7 167.4 M402.05 161.55 L402.35 163.05" fill="none" stroke="#000000" stroke-linecap="round" stroke-linejoin="round" stroke-opacity="0.5019608" stroke-width="1.0"/>
  </g>
</svg>
