<?xml version="1.0" encoding="UTF-8" standalone="no"?>
<svg xmlns:xlink="http://www.w3.org/1999/xlink" height="45.25px" width="234.0px" xmlns="http://www.w3.org/2000/svg">
  <g transform="matrix(1.0, 0.0, 0.0, 1.0, -282.9, -302.7)">
    <path d="M328.85 313.5 Q304.85 314.85 285.9 313.5 283.5 312.4 283.0 309.3 282.5 306.15 284.5 302.7 L332.35 305.65 Q333.95 309.9 328.85 313.5 M470.95 313.5 Q465.85 309.9 467.45 305.65 L515.3 302.7 Q517.3 306.15 516.8 309.3 516.3 312.4 513.9 313.5 499.8 314.5 482.9 314.05 L470.95 313.5 M481.85 342.65 L480.7 340.65 Q479.4 338.2 482.55 336.0 495.85 341.6 507.9 340.1 510.25 343.6 506.3 347.1 497.15 350.1 481.85 342.6 L481.85 342.65 M480.35 329.15 Q473.6 324.9 474.9 320.65 492.6 324.85 511.5 324.15 514.9 328.85 509.5 332.85 496.4 333.85 480.35 329.15 M288.3 324.15 Q307.2 324.85 324.9 320.65 326.2 324.9 319.45 329.15 303.4 333.85 290.3 332.85 284.9 328.85 288.3 324.15 M319.1 340.65 L317.95 342.65 317.95 342.6 Q302.65 350.1 293.5 347.1 289.55 343.6 291.9 340.1 303.95 341.6 317.25 336.0 320.4 338.2 319.1 340.65" fill="#000000" fill-rule="evenodd" stroke="none"/>
  </g>
</svg>
