<?xml version="1.0" encoding="UTF-8" standalone="no"?>
<svg xmlns:xlink="http://www.w3.org/1999/xlink" height="106.25px" width="49.15px" xmlns="http://www.w3.org/2000/svg">
  <g transform="matrix(1.0, 0.0, 0.0, 1.0, -273.95, -248.7)">
    <path d="M273.95 279.25 Q276.8 288.5 279.45 294.45 282.1 300.35 284.95 301.95 283.15 294.9 283.1 287.8 283.35 279.75 284.8 272.3 286.3 264.8 288.45 260.05 290.55 255.25 294.95 248.7 291.65 262.4 291.75 267.4 291.85 272.4 292.85 277.05 293.8 281.65 295.75 285.3 296.75 279.15 299.5 275.0 302.2 270.8 305.1 268.75 304.95 275.25 306.6 281.75 307.35 284.65 310.3 286.4 316.4 288.3 323.1 285.9 317.05 291.75 313.8 296.95 310.55 302.7 310.2 309.75 309.8 316.8 311.65 322.7 313.5 328.6 317.9 332.3 317.4 338.4 320.5 348.3 307.85 356.4 299.15 354.6 296.45 354.2 294.45 353.45 L289.45 331.55 Q284.25 325.8 280.3 320.15 276.3 313.25 275.35 307.15 273.75 297.15 273.95 279.25 M304.3 302.35 Q301.95 312.55 300.95 323.5 300.65 329.3 301.15 337.5 305.25 332.95 305.9 329.15 L306.6 320.45 Q307.3 311.6 304.3 302.35" fill="#000000" fill-rule="evenodd" stroke="none"/>
  </g>
</svg>
