<?xml version="1.0" encoding="UTF-8" standalone="no"?>
<svg xmlns:xlink="http://www.w3.org/1999/xlink" height="44.55px" width="96.85px" xmlns="http://www.w3.org/2000/svg">
  <g transform="matrix(1.0, 0.0, 0.0, 1.0, -249.6, -333.25)">
    <path d="M346.45 366.55 L345.7 367.3 344.05 371.65 344.0 371.85 344.1 372.95 266.2 344.65 266.05 342.05 267.55 338.0 269.45 336.15 346.45 366.55 M335.7 376.75 L335.8 377.8 257.25 351.65 257.0 349.0 258.4 344.9 260.25 343.0 338.05 371.45 337.3 372.15 335.75 376.5 335.7 376.75 M252.95 340.35 L256.45 341.6 254.55 343.55 253.1 347.65 253.4 350.35 249.85 349.2 249.6 346.45 251.05 342.3 252.95 340.35 M260.25 335.25 L262.25 333.25 265.7 334.65 263.75 336.55 262.2 340.6 262.4 343.35 258.95 342.05 258.7 339.3 260.25 335.25 M257.6 342.05 L259.1 342.6 257.2 344.5 255.8 348.55 256.05 351.2 254.55 350.75 254.3 348.05 255.7 343.95 257.6 342.05 M266.85 335.1 L268.35 335.7 266.45 337.55 264.9 341.65 265.05 344.3 263.55 343.75 263.35 341.0 264.9 337.0 266.85 335.1" fill="#ffffff" fill-rule="evenodd" stroke="none"/>
  </g>
</svg>
