<?xml version="1.0" encoding="UTF-8" standalone="no"?>
<svg xmlns:xlink="http://www.w3.org/1999/xlink" height="142.25px" width="72.85px" xmlns="http://www.w3.org/2000/svg">
  <g transform="matrix(1.0, 0.0, 0.0, 1.0, -293.55, -351.7)">
    <path d="M361.4 412.7 Q360.9 413.45 360.9 414.5 360.9 415.55 361.4 416.25 L361.95 416.8 Q362.1 416.15 362.35 416.15 362.6 416.15 362.85 417.0 L363.85 416.25 Q364.4 415.55 364.4 414.5 364.4 413.45 363.85 412.7 L363.15 412.1 362.75 412.6 362.4 412.05 361.4 412.7 M361.6 399.7 Q361.1 400.45 361.1 401.5 361.1 402.55 361.6 403.25 L362.35 403.9 Q362.5 403.25 362.75 403.25 L363.2 403.95 364.05 403.25 Q364.6 402.55 364.6 401.5 364.6 400.45 364.05 399.7 363.65 399.15 363.2 399.05 L362.85 399.45 362.55 399.05 Q362.0 399.15 361.6 399.7 M362.85 385.75 L362.5 385.8 362.4 386.7 361.75 386.3 361.6 386.45 Q361.1 387.2 361.1 388.25 361.1 389.3 361.6 390.0 362.0 390.55 362.45 390.7 362.6 390.1 362.85 390.1 L363.25 390.7 364.05 390.0 Q364.6 389.3 364.6 388.25 364.6 387.2 364.05 386.45 363.55 385.75 362.85 385.75 M357.4 376.5 L357.9 375.05 Q359.55 375.35 360.65 376.5 362.15 378.15 361.7 379.75 L360.75 381.15 361.2 382.1 362.05 384.25 362.9 384.15 Q364.35 384.15 365.35 385.35 366.4 386.6 366.4 388.3 366.4 390.0 365.35 391.2 364.6 392.15 363.55 392.4 L363.65 394.75 363.5 397.45 Q364.55 397.65 365.35 398.6 L365.5 398.8 Q366.4 400.0 366.4 401.55 366.4 403.25 365.35 404.45 364.55 405.45 363.45 405.65 L363.55 407.9 363.45 410.5 Q364.4 410.7 365.15 411.6 366.2 412.85 366.2 414.55 366.2 416.25 365.15 417.45 364.3 418.55 363.1 418.7 L363.15 420.8 363.1 422.5 Q364.2 422.85 365.05 424.25 365.9 425.65 365.95 427.9 L364.2 427.9 364.2 427.55 Q364.2 426.4 363.6 425.6 363.25 425.05 362.75 424.85 L362.35 425.5 Q362.1 425.45 361.95 424.8 361.3 424.95 360.85 425.6 360.3 426.4 360.3 427.55 L360.35 427.9 358.85 427.9 Q358.5 425.75 359.4 424.25 360.35 422.75 361.6 422.45 L361.55 420.8 361.65 418.55 Q360.85 418.2 360.2 417.45 359.2 416.25 359.2 414.55 359.2 412.85 360.2 411.6 361.0 410.65 362.1 410.45 361.95 409.35 361.95 407.9 L362.05 405.6 Q361.15 405.3 360.4 404.45 359.4 403.25 359.4 401.55 359.4 400.0 360.25 398.8 L360.4 398.6 Q361.2 397.7 362.2 397.5 362.05 396.3 362.05 394.75 L362.15 392.35 Q361.15 392.1 360.4 391.2 359.4 390.0 359.4 388.3 359.4 386.6 360.4 385.35 L360.85 384.95 359.75 382.75 359.35 381.85 359.15 381.95 355.65 381.8 354.9 381.5 355.75 380.4 355.85 380.2 355.9 380.1 358.25 380.2 358.7 380.0 358.6 379.65 Q358.25 378.3 358.6 378.2 358.85 378.05 359.45 378.9 359.5 378.2 358.95 377.55 358.35 376.85 357.4 376.55 L357.4 376.5 M325.2 362.6 Q327.35 362.9 328.65 363.95 L328.7 363.85 Q330.75 363.9 332.6 365.3 334.55 365.4 336.1 366.65 L336.1 366.75 333.65 373.55 333.2 373.55 Q331.75 373.35 330.45 372.5 L330.0 372.25 329.6 372.2 Q327.85 372.45 326.75 371.15 L326.25 370.85 325.7 370.75 Q323.95 370.8 322.65 369.65 320.45 369.6 318.75 368.25 316.45 367.9 314.6 366.7 312.55 366.35 310.9 365.35 308.7 365.25 307.05 363.95 305.1 363.8 303.3 362.55 301.45 362.3 299.95 361.35 298.35 361.1 297.1 360.3 L296.9 360.05 296.5 360.1 Q294.75 360.15 293.8 359.1 L293.65 358.95 293.55 358.85 296.45 351.7 Q298.25 351.55 299.5 352.85 301.1 352.9 302.6 354.05 304.4 354.2 305.8 355.25 307.9 355.55 309.65 356.75 311.7 356.95 313.5 358.15 315.45 358.4 317.2 359.55 319.5 359.55 321.3 361.15 323.4 361.4 325.2 362.6 M358.4 451.25 L365.75 451.2 365.9 451.65 Q366.25 453.1 365.85 454.65 L365.75 455.1 365.85 455.55 Q366.7 457.05 365.85 458.55 L365.75 459.1 365.85 459.7 Q366.5 461.3 365.85 462.9 366.55 465.0 365.85 467.05 366.3 469.3 365.85 471.5 366.2 473.5 365.85 475.45 366.5 477.5 365.8 479.5 366.35 481.4 365.8 483.5 366.2 485.3 365.8 487.1 366.15 488.6 365.8 490.1 L365.65 490.4 365.8 490.75 Q366.45 492.35 365.8 493.65 L365.7 493.85 365.65 493.95 357.95 493.7 Q357.2 492.05 358.0 490.4 357.5 488.9 358.05 487.1 357.55 485.3 358.1 483.7 357.65 481.6 358.15 479.5 357.7 477.5 358.2 475.45 357.75 473.5 358.25 471.5 357.4 469.3 358.3 467.05 357.85 465.0 358.35 462.95 357.9 460.8 358.4 459.2 L358.3 459.2 Q357.65 457.3 358.35 455.05 357.8 453.2 358.4 451.25" fill="#ffffff" fill-rule="evenodd" stroke="none"/>
  </g>
</svg>
