<?xml version="1.0" encoding="UTF-8" standalone="no"?>
<svg xmlns:xlink="http://www.w3.org/1999/xlink" height="83.35px" width="171.9px" xmlns="http://www.w3.org/2000/svg">
  <g transform="matrix(1.0, 0.0, 0.0, 1.0, -280.75, -343.35)">
    <path d="M327.9 364.7 L334.0 365.3 Q339.65 366.0 339.35 366.7 341.4 367.5 344.2 369.45 L349.85 373.5 Q352.05 375.0 364.0 379.35 L374.75 383.1 Q376.95 383.65 380.35 383.2 M337.35 370.35 Q336.25 369.9 335.95 370.7 335.7 371.4 337.2 371.85 338.9 372.45 339.35 371.2 339.75 370.05 336.05 368.75 334.75 368.25 333.65 368.75 332.75 369.1 332.55 369.7 332.2 370.65 334.2 372.1 L336.9 373.6 341.15 373.5 M371.1 386.05 L376.35 388.1 Q384.15 390.95 392.45 391.4 400.7 391.85 410.8 395.55 417.25 397.9 421.05 400.75 L427.8 405.8 M398.85 389.15 L411.85 390.6 Q413.2 390.85 419.6 393.15 426.5 395.7 428.1 396.65 L433.85 400.85 Q435.25 401.85 442.35 404.4 M284.8 351.3 Q285.35 351.05 287.1 351.7 L290.2 353.25 M293.35 350.1 Q288.8 350.0 287.1 349.25 M281.25 351.7 L442.45 421.7 450.0 400.95 M438.4 410.55 Q434.15 411.2 426.25 409.55 M409.65 400.65 Q412.85 401.55 413.2 400.65 413.45 399.9 410.5 398.8 408.3 398.05 407.95 399.1 407.25 400.95 411.4 402.45 L415.3 402.3 Q415.6 401.45 414.4 400.1 413.0 398.6 410.65 397.75 407.0 396.4 405.7 397.5 403.9 399.0 403.55 399.9 403.2 400.9 406.0 401.8 M444.3 426.2 L442.45 421.7" fill="none" stroke="#000000" stroke-linecap="round" stroke-linejoin="round" stroke-opacity="0.5019608" stroke-width="1.0"/>
    <path d="M281.25 351.7 L283.15 343.85 323.05 358.4 450.0 400.95 452.15 404.75 444.3 426.2 285.9 356.3 281.25 351.7" fill="none" stroke="#000000" stroke-linecap="round" stroke-linejoin="round" stroke-width="1.0"/>
  </g>
</svg>
