<?xml version="1.0" encoding="UTF-8" standalone="no"?>
<svg xmlns:xlink="http://www.w3.org/1999/xlink" height="25.85px" width="44.7px" xmlns="http://www.w3.org/2000/svg">
  <g transform="matrix(1.0, 0.0, 0.0, 1.0, -336.7, -231.6)">
    <path d="M380.9 246.85 L372.0 256.95 Q362.45 255.25 354.25 251.45 344.8 247.1 337.2 240.0 L351.0 236.8 365.55 233.95 376.8 232.1 Q376.6 239.85 380.9 246.85" fill="none" stroke="#000000" stroke-linecap="round" stroke-linejoin="round" stroke-width="1.0"/>
    <path d="M374.8 246.5 Q374.0 246.5 373.45 247.05 372.9 247.6 372.9 248.4 372.9 249.15 373.45 249.7 374.0 250.3 374.8 250.3 375.55 250.3 376.15 249.7 376.7 249.15 376.7 248.4 376.7 247.6 376.15 247.05 375.55 246.5 374.8 246.5 M351.0 236.8 Q351.6 244.1 354.25 251.45 M372.0 256.95 Q366.7 245.8 365.55 233.95" fill="none" stroke="#000000" stroke-linecap="round" stroke-linejoin="round" stroke-opacity="0.5019608" stroke-width="1.0"/>
  </g>
</svg>
