<?xml version="1.0" encoding="UTF-8" standalone="no"?>
<svg xmlns:xlink="http://www.w3.org/1999/xlink" height="32.65px" width="40.2px" xmlns="http://www.w3.org/2000/svg">
  <g transform="matrix(1.0, 0.0, 0.0, 1.0, -339.2, -228.5)">
    <path d="M341.65 255.45 Q339.65 255.9 339.7 258.0 339.7 260.15 341.7 260.65 L357.65 260.65 Q362.5 260.3 366.75 257.25 L375.8 250.85 Q378.8 247.85 378.9 243.55 L378.9 231.25 Q378.65 229.05 376.0 229.0 373.95 229.2 373.65 231.05 M341.65 255.45 Q346.05 246.3 352.9 238.15 362.3 234.0 373.65 231.05" fill="none" stroke="#000000" stroke-linecap="round" stroke-linejoin="round" stroke-width="1.0"/>
    <path d="M373.65 231.05 L373.65 242.9 Q373.85 244.5 372.75 245.85 L362.45 253.55 Q360.1 255.15 356.45 255.45 L341.65 255.45 Z" fill="none" stroke="#000000" stroke-linecap="round" stroke-linejoin="round" stroke-opacity="0.5019608" stroke-width="1.0"/>
  </g>
</svg>
