<?xml version="1.0" encoding="UTF-8" standalone="no"?>
<svg xmlns:xlink="http://www.w3.org/1999/xlink" height="31.7px" width="120.4px" xmlns="http://www.w3.org/2000/svg">
  <g transform="matrix(1.0, 0.0, 0.0, 1.0, -339.7, -229.0)">
    <path d="M420.95 231.25 Q421.15 229.05 423.85 229.0 425.85 229.2 426.15 231.05 L426.15 242.9 Q425.95 244.5 427.1 245.85 L437.35 253.6 Q439.7 255.2 443.35 255.5 L458.15 255.5 Q460.15 255.95 460.1 258.05 460.1 260.15 458.15 260.7 L442.15 260.7 Q437.3 260.35 433.1 257.3 L424.0 250.85 Q421.0 247.9 420.95 243.55 L420.95 231.25 M378.9 231.25 L378.9 243.55 Q378.8 247.9 375.8 250.85 L366.75 257.3 Q362.5 260.35 357.65 260.7 L341.7 260.7 Q339.7 260.15 339.7 258.05 339.65 255.95 341.65 255.5 L356.45 255.5 Q360.1 255.2 362.45 253.6 L372.75 245.85 Q373.85 244.5 373.65 242.9 L373.65 231.05 Q373.95 229.2 376.0 229.0 378.65 229.05 378.9 231.25" fill="#000000" fill-rule="evenodd" stroke="none"/>
  </g>
</svg>
