<?xml version="1.0" encoding="UTF-8" standalone="no"?>
<svg xmlns:xlink="http://www.w3.org/1999/xlink" height="33.75px" width="138.9px" xmlns="http://www.w3.org/2000/svg">
  <g transform="matrix(1.0, 0.0, 0.0, 1.0, -330.4, -231.3)">
    <path d="M453.95 242.9 Q452.05 246.5 449.35 250.05 L447.5 249.8 Q444.5 249.8 442.35 252.05 440.2 254.25 440.2 257.3 440.2 260.2 442.05 262.3 L434.15 262.3 426.35 254.65 Q429.65 251.15 431.35 247.7 432.95 244.2 433.15 240.75 433.2 235.35 431.6 231.3 444.15 233.25 451.7 240.55 L453.95 242.9 M444.95 253.7 Q446.2 252.45 448.0 252.45 449.8 252.45 451.1 253.7 452.35 254.9 452.35 256.65 452.35 258.35 451.1 259.6 450.1 260.5 448.85 260.75 L448.0 260.8 Q446.2 260.8 444.95 259.6 443.7 258.35 443.7 256.65 443.7 254.9 444.95 253.7 M454.75 257.3 Q454.75 254.3 452.75 252.15 457.4 246.5 459.2 241.2 467.45 249.35 469.3 259.4 462.2 263.15 453.95 265.05 452.8 264.55 452.35 262.9 L452.65 262.65 Q454.75 260.45 454.75 257.3 M366.55 240.75 Q366.75 244.2 368.35 247.7 369.9 250.8 372.75 254.0 L373.35 254.65 365.55 262.3 357.65 262.3 Q359.5 260.2 359.5 257.3 359.5 254.25 357.35 252.05 355.2 249.8 352.2 249.8 L350.35 250.05 Q347.65 246.5 345.75 242.9 L348.0 240.55 Q355.55 233.25 368.1 231.3 366.5 235.35 366.55 240.75 M354.75 253.7 Q356.0 254.9 356.0 256.65 356.0 258.35 354.75 259.6 353.5 260.8 351.7 260.8 L350.85 260.75 Q349.6 260.5 348.6 259.6 347.35 258.35 347.35 256.65 347.35 254.9 348.6 253.7 349.9 252.45 351.7 252.45 353.5 252.45 354.75 253.7 M344.95 257.3 Q344.95 260.45 347.05 262.65 L347.35 262.9 Q346.9 264.55 345.75 265.05 337.5 263.15 330.4 259.4 332.25 249.35 340.5 241.2 342.3 246.5 346.95 252.15 344.95 254.3 344.95 257.3" fill="#000000" fill-rule="evenodd" stroke="none"/>
  </g>
</svg>
