<?xml version="1.0" encoding="UTF-8" standalone="no"?>
<svg xmlns:xlink="http://www.w3.org/1999/xlink" height="20.7px" width="32.25px" xmlns="http://www.w3.org/2000/svg">
  <g transform="matrix(1.0, 0.0, 0.0, 1.0, -349.05, -232.85)">
    <path d="M380.6 233.25 Q381.3 233.7 381.3 234.3 381.3 234.85 380.6 235.3 379.95 235.7 379.0 235.7 378.05 235.7 377.35 235.3 376.65 234.85 376.65 234.3 376.65 233.7 377.35 233.25 378.05 232.85 379.0 232.85 379.95 232.85 380.6 233.25 M349.05 241.85 Q349.1 243.95 351.55 245.7 358.35 244.75 365.2 242.9 L365.2 250.95 Q364.65 250.8 364.1 251.2 363.6 250.85 363.05 251.35 L362.25 251.55 Q361.7 251.1 361.1 251.75 360.4 251.35 359.9 251.95 359.25 251.7 358.9 252.15 L358.15 252.15 356.9 252.25 Q356.3 252.35 355.6 252.8 354.8 252.35 354.2 253.05 353.35 252.45 352.85 253.3 351.9 252.7 351.55 253.55 351.0 252.5 350.5 252.45 350.3 251.3 349.65 251.35 L349.05 250.6 349.05 241.85 M368.0 237.0 L366.5 240.75 363.55 241.4 365.3 237.65 362.0 236.25 364.4 235.25 368.0 237.0 M367.65 234.85 L370.1 233.85 373.65 235.6 372.15 239.35 369.2 240.0 370.95 236.25 367.65 234.85 M353.3 238.85 L354.75 238.4 355.85 243.5 354.25 243.9 353.3 238.85 M356.75 237.75 L359.2 236.75 362.8 238.5 361.3 242.25 358.35 242.9 360.1 239.15 356.75 237.75" fill="#000000" fill-rule="evenodd" stroke="none"/>
  </g>
</svg>
