<?xml version="1.0" encoding="UTF-8" standalone="no"?>
<svg xmlns:xlink="http://www.w3.org/1999/xlink" height="117.35px" width="140.9px" xmlns="http://www.w3.org/2000/svg">
  <g transform="matrix(1.0, 0.0, 0.0, 1.0, -329.35, -442.65)">
    <path d="M454.5 445.15 L455.5 470.2 Q455.25 472.35 451.8 473.95 L448.2 475.15 443.25 476.05 Q443.2 486.8 442.35 498.2 L444.8 506.4 465.9 537.45 Q472.25 545.3 469.35 560.0 L460.95 560.0 Q462.35 546.85 457.45 539.05 L440.25 506.9 Q439.3 491.1 437.55 476.3 L430.7 475.5 426.7 474.6 Q423.0 472.95 421.8 470.7 L416.8 449.0 Q416.05 445.25 418.8 444.05 418.65 446.05 418.8 448.0 436.25 449.5 450.7 445.3 L450.1 442.65 Q453.55 442.7 454.5 445.15 M345.1 445.15 Q346.05 442.7 349.5 442.65 L348.9 445.3 Q363.35 449.5 380.8 448.0 L380.8 444.05 Q383.55 445.25 382.8 449.0 L377.8 470.7 Q376.6 472.95 372.9 474.6 L368.9 475.5 362.05 476.3 Q360.3 491.1 359.35 506.9 L342.15 539.05 Q337.25 546.85 338.65 560.0 L330.25 560.0 Q327.35 545.3 333.7 537.45 L354.8 506.4 357.25 498.2 Q356.4 486.8 356.35 476.05 L351.4 475.15 Q349.55 474.65 347.8 473.95 344.35 472.35 344.1 470.2 L345.1 445.15" fill="#000000" fill-rule="evenodd" stroke="none"/>
  </g>
</svg>
