<?xml version="1.0" encoding="UTF-8" standalone="no"?>
<svg xmlns:xlink="http://www.w3.org/1999/xlink" height="36.05px" width="120.0px" xmlns="http://www.w3.org/2000/svg">
  <g transform="matrix(1.0, 0.0, 0.0, 1.0, -339.8, -437.25)">
    <path d="M418.5 443.15 L418.1 439.05 420.1 437.55 419.55 439.7 419.45 440.2 Q423.85 443.65 430.7 446.85 L431.55 447.25 433.0 447.8 Q435.5 448.65 438.45 448.7 436.2 459.25 436.45 470.3 L435.95 471.5 Q434.1 475.1 430.65 471.5 L430.25 471.0 427.4 467.95 425.55 466.25 Q421.15 462.3 415.7 459.3 415.85 455.0 418.1 452.45 418.9 448.4 418.5 443.15 M450.0 442.3 L449.25 439.95 448.3 437.25 452.25 438.9 453.65 448.25 Q455.1 454.75 459.8 458.45 457.2 464.8 452.4 470.1 L451.35 465.5 451.35 465.45 450.3 461.5 Q447.95 453.35 444.6 446.65 448.2 444.6 450.0 442.3 M381.1 443.15 Q380.7 448.4 381.5 452.45 383.75 455.0 383.9 459.3 378.45 462.3 374.05 466.25 L372.2 467.95 369.35 471.0 368.95 471.5 Q365.5 475.1 363.65 471.5 L363.15 470.3 Q363.4 459.25 361.15 448.7 364.1 448.65 366.6 447.8 L368.05 447.25 368.9 446.85 Q375.75 443.65 380.15 440.2 L380.05 439.7 379.5 437.55 381.5 439.05 381.1 443.15 M349.6 442.3 Q351.4 444.6 355.0 446.65 351.65 453.35 349.3 461.5 L348.25 465.45 348.25 465.5 Q347.65 467.75 347.2 470.1 342.4 464.8 339.8 458.45 344.5 454.75 345.95 448.25 L347.35 438.9 351.3 437.25 350.35 439.95 349.6 442.3" fill="#000000" fill-rule="evenodd" stroke="none"/>
  </g>
</svg>
