<?xml version="1.0" encoding="UTF-8" standalone="no"?>
<svg xmlns:xlink="http://www.w3.org/1999/xlink" height="59.85px" width="99.9px" xmlns="http://www.w3.org/2000/svg">
  <g transform="matrix(1.0, 0.0, 0.0, 1.0, -349.85, -404.2)">
    <path d="M447.05 404.5 L447.05 404.2 447.1 404.5 449.75 438.3 Q446.8 442.95 443.35 446.95 L442.65 447.7 Q446.1 434.4 447.05 404.5 M442.65 447.7 Q442.55 456.05 441.05 463.7 L438.5 464.05 Q437.8 455.6 434.25 448.5 429.45 446.7 425.05 444.05 423.55 431.7 424.3 407.9 428.25 433.95 434.25 448.5 436.95 434.5 435.7 404.5 L435.7 404.3 435.75 404.5 Q442.45 433.65 442.65 447.7 M374.55 444.05 Q370.15 446.7 365.35 448.5 361.8 455.6 361.1 464.05 L358.55 463.7 Q357.05 456.05 356.95 447.7 L356.25 446.95 Q352.8 442.95 349.85 438.3 L352.5 404.5 352.55 404.2 352.55 404.5 Q353.5 434.4 356.95 447.7 357.15 433.65 363.85 404.5 L363.9 404.3 363.9 404.5 Q362.65 434.5 365.35 448.5 371.35 433.95 375.3 407.9 376.05 431.7 374.55 444.05" fill="#000000" fill-rule="evenodd" stroke="none"/>
  </g>
</svg>
