<?xml version="1.0" encoding="UTF-8" standalone="no"?>
<svg xmlns:xlink="http://www.w3.org/1999/xlink" height="47.8px" width="152.7px" xmlns="http://www.w3.org/2000/svg">
  <g transform="matrix(1.0, 0.0, 0.0, 1.0, -323.45, -512.2)">
    <path d="M352.95 541.8 Q355.2 532.45 359.15 523.4 L365.3 512.2 Q365.3 516.55 363.4 520.05 362.0 522.2 360.9 524.55 359.05 528.45 357.9 532.65 L356.9 537.5 Q355.6 546.45 348.75 553.95 L341.55 560.0 328.5 560.0 324.25 553.05 323.45 550.2 329.05 557.2 340.7 557.2 Q347.75 552.2 352.05 545.85 L352.95 541.8 M441.7 532.65 Q440.55 528.45 438.7 524.55 L436.2 520.05 Q434.3 516.55 434.35 512.2 L440.45 523.4 Q444.4 532.45 446.65 541.8 L447.55 545.85 Q451.85 552.2 458.9 557.2 L470.55 557.2 476.15 550.2 475.35 553.05 471.1 560.0 458.05 560.0 450.85 553.95 Q444.0 546.45 442.7 537.5 L441.7 532.65" fill="#000000" fill-rule="evenodd" stroke="none"/>
  </g>
</svg>
