<?xml version="1.0" encoding="UTF-8" standalone="no"?>
<svg xmlns:xlink="http://www.w3.org/1999/xlink" height="45.15px" width="102.9px" xmlns="http://www.w3.org/2000/svg">
  <g transform="matrix(1.0, 0.0, 0.0, 1.0, -348.35, -453.95)">
    <path d="M421.3 457.35 L421.0 456.7 Q436.55 457.35 451.25 453.95 L450.8 458.25 450.15 462.35 Q438.55 465.3 425.6 464.5 L421.3 457.35 M434.8 489.15 L434.65 488.45 433.5 483.8 Q440.15 484.1 447.1 482.35 L446.15 488.35 Q441.15 490.2 434.8 489.15 M431.7 478.15 L429.1 471.6 Q439.1 471.55 449.1 469.35 L448.0 476.35 Q440.4 478.2 431.7 478.15 M436.0 494.8 L435.85 494.1 Q440.65 495.15 445.45 493.2 L444.7 498.05 Q441.95 499.95 436.75 498.45 L436.0 494.8 M350.5 469.35 Q360.5 471.55 370.5 471.6 369.05 474.85 367.9 478.15 359.2 478.2 351.6 476.35 L350.5 469.35 M352.5 482.35 Q359.45 484.1 366.1 483.8 365.45 486.1 364.95 488.45 L364.8 489.15 Q358.45 490.2 353.45 488.35 L352.5 482.35 M363.6 494.8 L362.85 498.45 Q357.65 499.95 354.9 498.05 L354.15 493.2 Q358.95 495.15 363.75 494.1 L363.6 494.8 M348.8 458.25 L348.35 453.95 Q363.05 457.35 378.6 456.7 L378.3 457.35 Q376.0 460.85 374.0 464.5 361.05 465.3 349.45 462.35 L348.8 458.25" fill="#000000" fill-rule="evenodd" stroke="none"/>
  </g>
</svg>
