<?xml version="1.0" encoding="UTF-8" standalone="no"?>
<svg xmlns:xlink="http://www.w3.org/1999/xlink" height="18.1px" width="95.8px" xmlns="http://www.w3.org/2000/svg">
  <g transform="matrix(1.0, 0.0, 0.0, 1.0, -351.9, -419.0)">
    <path d="M420.5 436.1 Q418.95 434.85 419.35 432.85 L419.9 422.75 Q419.95 420.7 421.2 419.9 L426.9 420.05 424.55 431.1 427.7 437.1 420.5 436.1 M442.55 419.0 L445.0 419.0 Q446.5 422.35 445.4 425.35 L442.55 419.0 M446.35 430.5 Q447.8 433.25 447.7 435.5 L444.5 436.55 446.35 430.5 M378.4 419.9 Q379.65 420.7 379.7 422.75 L380.25 432.85 Q380.65 434.85 379.1 436.1 L371.9 437.1 375.05 431.1 372.7 420.05 378.4 419.9 M357.05 419.0 L354.2 425.35 Q353.1 422.35 354.6 419.0 L357.05 419.0 M353.25 430.5 L355.1 436.55 351.9 435.5 Q351.8 433.25 353.25 430.5" fill="#000000" fill-rule="evenodd" stroke="none"/>
  </g>
</svg>
