<?xml version="1.0" encoding="UTF-8" standalone="no"?>
<svg xmlns:xlink="http://www.w3.org/1999/xlink" height="156.8px" width="153.9px" xmlns="http://www.w3.org/2000/svg">
  <g transform="matrix(1.0, 0.0, 0.0, 1.0, -322.85, -403.7)">
    <path d="M449.75 438.3 L447.1 404.5 447.05 404.2 447.05 404.5 Q446.1 434.4 442.65 447.7 M449.75 438.3 Q453.6 432.05 457.85 416.5 456.1 442.0 452.35 458.1 L456.6 453.85 450.25 474.5 Q452.55 472.95 454.7 470.8 L448.65 487.7 453.1 485.75 447.3 499.25 450.25 502.25 450.25 506.7 453.55 511.1 462.7 523.2 471.4 534.7 473.75 537.8 475.35 541.35 Q477.25 546.7 475.1 553.0 L471.1 560.0 455.8 560.0 449.0 553.95 Q445.4 549.95 443.35 544.85 L442.15 541.65 440.15 532.25 439.85 531.3 438.25 526.4 435.95 521.55 434.9 519.8 Q434.15 518.2 433.8 516.6 433.0 513.2 433.55 509.85 L434.4 506.55 433.65 503.3 435.2 499.25 429.1 485.9 Q431.0 487.45 433.2 488.35 L424.55 473.15 Q427.25 474.8 429.8 475.95 L417.25 457.7 422.05 460.4 Q413.45 446.0 407.35 421.65 415.85 438.45 425.05 444.05 423.55 431.7 424.3 407.9 428.25 433.95 434.25 448.5 436.95 434.5 435.7 404.5 L435.7 404.3 435.75 404.5 Q442.45 433.65 442.65 447.7 M374.55 444.05 Q383.75 438.45 392.25 421.65 386.15 446.0 377.55 460.4 L382.35 457.7 369.8 475.95 375.05 473.15 366.4 488.35 Q368.6 487.45 370.5 485.9 L364.4 499.25 365.95 503.3 365.2 506.55 366.05 509.85 Q366.6 513.2 365.8 516.6 365.45 518.2 364.7 519.8 L363.65 521.55 361.35 526.4 359.75 531.3 359.45 532.25 357.45 541.65 356.25 544.85 Q354.2 549.95 350.6 553.95 L343.8 560.0 328.5 560.0 324.5 553.0 Q322.35 546.7 324.25 541.35 L325.85 537.8 328.2 534.7 336.9 523.2 346.05 511.1 349.35 506.7 349.35 502.25 352.3 499.25 346.5 485.75 350.95 487.7 344.9 470.8 Q347.05 472.95 349.35 474.5 L343.0 453.85 Q345.1 456.25 347.25 458.1 343.5 442.0 341.75 416.5 346.0 432.05 349.85 438.3 L352.5 404.5 352.55 404.2 352.55 404.5 Q353.5 434.4 356.95 447.7 357.15 433.65 363.85 404.5 L363.9 404.3 363.9 404.5 Q362.65 434.5 365.35 448.5 371.35 433.95 375.3 407.9 376.05 431.7 374.55 444.05" fill="none" stroke="#000000" stroke-linecap="round" stroke-linejoin="round" stroke-width="1.0"/>
    <path d="M442.65 447.7 L443.35 446.95 Q446.8 442.95 449.75 438.3 M442.65 447.7 Q442.55 456.05 441.05 463.7 447.1 462.5 452.35 458.1 M434.25 448.5 Q437.8 455.6 438.5 464.05 L441.05 463.7 M438.5 464.05 Q430.9 464.7 422.05 460.4 M425.05 444.05 Q429.45 446.7 434.25 448.5 M429.8 475.95 Q440.95 480.65 450.25 474.5 M433.2 488.35 Q439.8 490.95 448.65 487.7 M374.55 444.05 Q370.15 446.7 365.35 448.5 361.8 455.6 361.1 464.05 368.7 464.7 377.55 460.4 M349.85 438.3 Q352.8 442.95 356.25 446.95 L356.95 447.7 Q357.05 456.05 358.55 463.7 L361.1 464.05 M358.55 463.7 Q352.5 462.5 347.25 458.1 M369.8 475.95 Q358.65 480.65 349.35 474.5 M366.4 488.35 Q359.8 490.95 350.95 487.7 M364.4 499.25 Q359.6 501.7 352.3 499.25 M359.75 531.3 Q350.5 522.0 336.9 523.2 M365.8 516.6 Q356.9 510.7 346.05 511.1 M356.25 544.85 Q344.4 534.6 328.2 534.7 M435.2 499.25 Q440.0 501.7 447.3 499.25 M439.85 531.3 Q449.1 522.0 462.7 523.2 M433.8 516.6 Q442.7 510.7 453.55 511.1 M443.35 544.85 Q455.2 534.6 471.4 534.7" fill="none" stroke="#000000" stroke-linecap="round" stroke-linejoin="round" stroke-opacity="0.5019608" stroke-width="1.0"/>
  </g>
</svg>
