<?xml version="1.0" encoding="UTF-8" standalone="no"?>
<svg xmlns:xlink="http://www.w3.org/1999/xlink" height="115.7px" width="154.4px" xmlns="http://www.w3.org/2000/svg">
  <g transform="matrix(1.0, 0.0, 0.0, 1.0, -322.6, -444.8)">
    <path d="M323.85 551.85 Q321.7 544.45 325.7 537.7 L351.55 505.9 351.55 501.45 354.9 498.05 Q355.8 498.7 357.05 498.95 L357.25 498.2 356.95 494.0 354.2 493.2 353.45 488.35 Q355.0 488.95 356.7 489.25 L356.45 483.15 352.5 482.35 351.6 476.35 356.35 477.3 356.35 470.55 350.5 469.35 349.45 462.35 356.5 463.8 Q356.65 459.5 356.95 455.35 L348.35 453.95 Q348.15 449.45 348.9 445.3 L357.65 447.25 366.1 448.2 Q373.15 448.65 380.8 448.0 380.5 452.25 378.8 456.3 L378.6 456.7 364.8 456.2 Q364.1 460.3 363.55 464.55 368.65 464.85 374.0 464.5 372.1 468.0 370.5 471.6 L362.65 471.35 361.85 477.95 367.9 478.15 366.1 483.8 361.25 483.7 360.65 489.55 364.8 489.15 363.75 494.1 360.25 494.4 359.9 499.05 362.85 498.45 364.95 502.95 364.15 506.15 365.05 509.25 365.05 509.5 Q365.6 513.35 364.75 516.65 L363.4 520.05 Q362.0 522.2 360.9 524.55 359.1 528.3 358.0 532.35 L357.9 532.65 356.9 537.5 Q356.15 542.7 353.5 547.45 L350.25 552.25 348.75 553.95 341.55 560.0 328.5 560.0 324.25 553.05 324.0 552.25 323.85 551.85 M442.65 455.35 L451.25 453.95 Q451.45 449.45 450.7 445.3 446.45 446.55 441.95 447.25 L433.5 448.2 Q426.45 448.65 418.8 448.0 419.1 452.25 420.8 456.3 L421.0 456.7 434.8 456.2 436.05 464.55 Q430.95 464.85 425.6 464.5 L429.1 471.6 436.95 471.35 437.75 477.95 431.7 478.15 433.5 483.8 438.35 483.7 438.95 489.55 434.8 489.15 435.85 494.1 439.35 494.4 439.7 499.05 436.75 498.45 434.65 502.95 435.45 506.15 434.55 509.25 434.55 509.5 Q434.0 513.35 434.85 516.65 435.3 518.45 436.2 520.05 L438.7 524.55 Q440.5 528.3 441.6 532.35 L441.7 532.65 442.7 537.5 Q443.45 542.7 446.1 547.45 447.5 549.9 449.35 552.25 L450.85 553.95 458.05 560.0 471.1 560.0 475.35 553.05 475.6 552.25 475.75 551.85 Q477.9 544.45 473.9 537.7 L448.05 505.9 448.05 501.45 444.7 498.05 Q443.8 498.7 442.55 498.95 L442.35 498.2 442.65 494.0 445.4 493.2 446.15 488.35 442.9 489.25 443.15 483.15 447.1 482.35 448.0 476.35 443.25 477.3 443.25 470.55 449.1 469.35 450.15 462.35 443.1 463.8 442.65 455.35" fill="none" stroke="#000000" stroke-linecap="round" stroke-linejoin="round" stroke-width="1.0"/>
  </g>
</svg>
