<?xml version="1.0" encoding="UTF-8" standalone="no"?>
<svg xmlns:xlink="http://www.w3.org/1999/xlink" height="26.5px" width="160.75px" xmlns="http://www.w3.org/2000/svg">
  <g transform="matrix(1.0, 0.0, 0.0, 1.0, -319.35, -535.85)">
    <path d="M323.7 542.45 L324.1 543.1 325.1 544.75 Q334.85 542.05 343.3 548.25 345.0 547.35 346.65 546.4 M475.35 543.2 L475.75 542.55 M452.8 546.5 L456.15 548.35 Q464.6 542.15 474.35 544.85 L475.35 543.2" fill="none" stroke="#000000" stroke-linecap="round" stroke-linejoin="round" stroke-opacity="0.5019608" stroke-width="1.0"/>
    <path d="M324.1 543.1 L330.45 536.35 344.35 538.55 346.65 546.4 353.6 542.6 353.6 553.1 342.5 561.75 325.7 561.75 320.45 553.7 Q318.7 547.0 322.15 539.9 L323.7 542.45 M475.75 542.55 L477.3 540.0 Q480.75 547.1 479.0 553.8 L473.75 561.85 456.95 561.85 445.85 553.2 445.85 542.7 452.8 546.5 455.1 538.65 469.0 536.45 475.35 543.2" fill="none" stroke="#000000" stroke-linecap="round" stroke-linejoin="round" stroke-width="1.0"/>
  </g>
</svg>
