<?xml version="1.0" encoding="UTF-8" standalone="no"?>
<svg xmlns:xlink="http://www.w3.org/1999/xlink" height="140.0px" width="35.05px" xmlns="http://www.w3.org/2000/svg">
  <g transform="matrix(1.0, 0.0, 0.0, 1.0, -347.8, -370.65)">
    <path d="M362.0 372.5 Q365.3 395.1 379.9 412.85 L381.0 414.15 378.3 424.7 374.05 426.15 375.15 429.65 Q375.5 432.45 374.7 434.55 L374.3 435.5 380.0 436.3 Q385.75 450.45 377.3 462.85 367.75 476.95 365.15 495.8 367.05 499.65 366.3 503.5 365.75 507.95 364.9 509.4 363.65 511.5 361.9 507.6 L361.35 506.3 Q357.3 495.95 352.55 503.55 352.05 504.3 351.55 505.9 L350.4 507.35 Q348.8 499.75 352.65 495.4 351.7 480.0 349.75 464.6 L348.8 458.25 Q347.3 448.35 350.35 439.95 L353.2 431.8 Q352.75 429.15 353.4 426.95 L355.55 422.7 353.5 420.5 Q352.0 394.8 357.0 371.15 L362.0 372.5" fill="none" stroke="#000000" stroke-linecap="round" stroke-linejoin="round" stroke-width="1.0"/>
    <path d="M364.95 411.05 Q361.2 411.5 359.1 415.4 L356.25 421.25 Q359.55 422.7 359.8 430.85 360.2 437.15 363.35 437.3 365.75 437.4 367.6 431.6 370.25 422.95 372.9 422.65 L370.65 415.7 Q368.9 411.05 364.95 411.05 M374.05 426.15 L372.9 422.65 M356.25 421.25 L355.55 422.7 M353.2 431.8 L353.65 433.8 357.65 446.95 Q359.2 449.8 362.15 450.3 366.35 450.1 368.3 447.65 L374.3 435.5 M355.5 488.8 L352.0 456.0 M374.15 451.15 Q365.85 470.65 360.65 492.3" fill="none" stroke="#000000" stroke-linecap="round" stroke-linejoin="round" stroke-opacity="0.5019608" stroke-width="1.0"/>
  </g>
</svg>
