<?xml version="1.0" encoding="UTF-8" standalone="no"?>
<svg xmlns:xlink="http://www.w3.org/1999/xlink" height="89.85px" width="156.9px" xmlns="http://www.w3.org/2000/svg">
  <g transform="matrix(1.0, 0.0, 0.0, 1.0, -321.35, -470.15)">
    <path d="M440.3 473.95 Q441.5 476.8 444.5 478.75 446.8 476.0 447.5 472.75 L447.75 470.15 448.9 471.65 449.25 472.15 449.75 473.05 450.25 474.0 447.1 493.95 445.1 495.6 444.7 498.05 448.05 501.45 448.05 503.65 450.65 504.9 453.4 509.1 452.65 511.6 454.5 513.9 454.55 513.95 457.3 514.6 471.45 531.4 471.65 534.95 473.9 537.7 477.65 539.55 Q479.45 548.0 476.0 556.0 L473.7 559.95 458.05 560.0 450.85 553.95 444.95 550.25 446.1 547.45 444.8 544.85 441.75 543.25 Q440.45 531.15 435.65 522.85 L435.65 518.95 434.85 516.65 434.95 516.6 434.8 516.4 432.45 514.6 Q431.95 509.65 433.65 506.05 L432.95 503.9 436.75 498.45 436.2 495.85 434.1 494.3 430.25 478.95 430.5 478.85 431.4 477.35 431.85 476.7 Q432.9 475.15 434.35 473.9 436.45 471.9 439.25 470.4 439.5 472.2 440.3 473.95 M323.6 556.0 Q320.15 548.0 321.95 539.55 L325.7 537.7 327.95 534.95 328.15 531.4 342.3 514.6 345.05 513.95 345.1 513.9 346.95 511.6 346.2 509.1 348.95 504.9 351.55 503.65 351.55 501.45 354.9 498.05 354.5 495.6 352.5 493.95 349.35 474.0 349.85 473.05 350.35 472.15 350.7 471.65 351.85 470.15 Q351.85 471.5 352.1 472.75 352.8 476.0 355.1 478.75 358.1 476.8 359.3 473.95 360.1 472.2 360.35 470.4 363.15 471.9 365.25 473.9 366.7 475.15 367.75 476.7 L368.2 477.35 369.1 478.85 369.35 478.95 365.5 494.3 363.4 495.85 362.85 498.45 366.65 503.9 365.95 506.05 Q367.65 509.65 367.15 514.6 L364.8 516.4 364.7 516.6 364.75 516.65 363.95 518.95 363.95 522.85 Q359.15 531.15 357.85 543.25 L354.8 544.85 353.5 547.45 354.65 550.25 348.75 553.95 341.55 560.0 325.9 559.95 323.6 556.0" fill="#000000" fill-rule="evenodd" stroke="none"/>
  </g>
</svg>
