<?xml version="1.0" encoding="UTF-8" standalone="no"?>
<svg xmlns:xlink="http://www.w3.org/1999/xlink" height="193.1px" width="146.6px" xmlns="http://www.w3.org/2000/svg">
  <g transform="matrix(1.0, 0.0, 0.0, 1.0, -326.5, -362.1)">
    <path d="M360.55 388.4 Q368.55 407.1 383.15 408.8 384.5 437.95 380.8 451.75 L381.55 459.2 Q379.8 464.05 377.85 468.15 378.7 484.95 378.45 501.35 378.3 512.6 377.65 523.7 371.2 538.05 363.5 547.0 359.25 551.9 354.6 555.2 353.9 546.45 352.15 539.35 349.45 528.2 344.25 521.15 L343.9 521.35 Q332.25 527.85 326.5 535.7 328.15 522.05 332.7 507.5 335.35 498.95 339.0 490.1 L336.0 490.1 Q340.55 471.55 343.9 458.9 346.4 449.4 348.2 443.2 L348.3 442.85 347.75 435.7 Q345.3 398.8 356.4 362.1 L362.9 362.1 Q360.8 375.2 360.5 388.35 L360.5 388.4 360.55 388.4 M443.2 362.1 Q454.3 398.8 451.85 435.7 L451.3 442.85 451.4 443.2 455.7 458.9 463.6 490.1 460.6 490.1 Q464.25 498.95 466.9 507.5 471.45 522.05 473.1 535.7 467.35 527.85 455.7 521.35 L455.35 521.15 Q450.15 528.2 447.45 539.35 445.7 546.45 445.0 555.2 440.35 551.9 436.1 547.0 428.4 538.05 421.95 523.7 421.3 512.6 421.15 501.35 420.9 484.95 421.75 468.15 419.8 464.05 418.05 459.2 418.3 455.15 418.8 451.75 415.1 437.95 416.45 408.8 431.05 407.1 439.05 388.4 L439.1 388.4 439.1 388.35 Q438.8 375.2 436.7 362.1 L443.2 362.1 M426.75 435.25 L435.5 451.25 440.5 451.25 445.7 433.75 Q443.2 428.1 440.55 425.9 438.65 424.3 436.7 424.5 431.95 424.85 426.75 435.25 M353.9 433.75 L359.1 451.25 364.1 451.25 372.85 435.25 Q367.65 424.85 362.9 424.5 360.95 424.3 359.05 425.9 356.4 428.1 353.9 433.75" fill="#000000" fill-rule="evenodd" stroke="none"/>
  </g>
</svg>
