<?xml version="1.0" encoding="UTF-8" standalone="no"?>
<svg xmlns:xlink="http://www.w3.org/1999/xlink" height="74.7px" width="36.0px" xmlns="http://www.w3.org/2000/svg">
  <g transform="matrix(1.0, 0.0, 0.0, 1.0, -346.75, -428.65)">
    <path d="M348.8 442.15 Q347.35 441.9 346.75 439.9 L361.1 428.65 382.75 443.6 Q382.0 445.35 380.9 446.0 L380.6 446.15 380.2 446.3 Q379.0 446.6 377.45 445.9 372.3 443.65 367.5 440.2 360.3 467.5 359.65 492.6 359.55 496.2 359.6 499.75 362.6 499.5 365.45 497.2 367.3 498.25 366.5 499.7 L357.25 503.35 351.2 499.1 Q350.55 497.5 353.1 497.0 354.25 499.15 356.1 499.35 L356.45 492.65 Q357.15 471.55 353.55 441.5 L353.5 440.4 351.2 441.65 Q349.8 442.3 348.8 442.15" fill="#000000" fill-rule="evenodd" stroke="none"/>
  </g>
</svg>
