<?xml version="1.0" encoding="UTF-8" standalone="no"?>
<svg xmlns:xlink="http://www.w3.org/1999/xlink" height="146.3px" width="169.55px" xmlns="http://www.w3.org/2000/svg">
  <g transform="matrix(1.0, 0.0, 0.0, 1.0, -327.25, -156.6)">
    <path d="M427.8 212.05 L431.85 207.1 433.45 205.35 435.55 212.1 427.75 212.1 427.8 212.05 M467.1 170.0 L478.05 169.2 478.7 175.2 478.75 175.25 Q473.05 172.65 465.75 171.3 L467.1 170.05 467.1 170.0 M470.5 162.25 L471.6 160.05 473.4 156.6 Q473.6 157.9 474.6 159.05 475.4 159.95 475.85 161.9 L470.5 162.25 M327.25 172.95 L327.7 169.6 337.5 170.5 337.6 170.75 Q332.0 171.5 327.25 172.95 M328.1 157.05 L331.5 160.7 332.75 162.5 328.2 162.2 328.1 157.05 M437.95 218.85 L441.5 228.45 429.75 227.8 429.7 227.75 Q427.85 222.45 427.25 217.7 L437.95 218.85 M433.8 234.7 L443.75 235.25 445.0 237.65 Q443.7 237.95 443.35 239.25 L442.05 243.85 441.5 245.5 436.95 244.7 Q435.95 243.25 435.3 239.9 434.3 237.7 433.8 234.7 M439.35 250.2 L436.75 254.8 436.5 254.75 436.85 249.55 439.35 250.2 M357.7 268.85 L358.0 271.9 Q347.95 280.2 339.95 283.9 L339.95 283.85 Q339.45 282.0 338.35 280.35 337.25 278.65 336.25 276.4 346.1 274.35 357.7 268.85 M364.05 266.65 L363.35 266.0 366.8 264.1 364.05 266.65 M359.85 262.55 L358.65 261.1 365.05 258.8 Q363.1 260.75 359.85 262.55 M356.85 264.05 L356.85 264.1 Q351.1 266.75 342.4 269.15 L341.95 269.15 333.45 270.6 330.35 264.15 338.15 264.4 Q347.6 264.15 356.3 261.8 L356.85 264.05 M356.05 235.25 L360.6 235.05 Q362.85 238.9 364.25 242.85 L364.8 244.35 350.05 246.7 356.05 235.25 M446.7 287.7 L447.9 285.95 452.15 289.2 Q445.85 294.1 441.5 301.55 441.5 299.25 442.15 295.6 444.2 292.55 445.9 288.95 L446.7 287.7 M459.65 282.05 L458.45 283.2 452.0 279.45 453.45 275.4 Q453.8 274.45 454.3 273.8 459.9 275.7 465.05 276.65 L459.65 282.05 M480.65 252.7 Q479.6 253.7 479.65 256.4 470.95 260.4 454.55 258.3 L454.05 253.15 Q471.3 255.75 480.65 252.7 M475.9 263.15 Q473.75 268.35 470.35 270.95 464.8 270.65 457.85 269.15 L457.4 269.15 454.8 268.4 454.8 263.95 461.7 264.4 Q469.4 264.6 475.9 263.15 M348.4 252.7 Q356.55 251.25 366.3 248.75 L368.0 253.5 Q356.0 256.8 346.5 258.1 L348.4 252.7 M496.8 221.75 L496.75 221.8 Q495.45 223.75 493.95 225.15 493.55 230.35 491.45 233.7 L491.45 233.75 Q491.1 231.3 490.35 228.55 494.1 225.35 496.8 221.75 M370.15 272.15 Q368.5 271.3 368.25 270.9 L372.45 266.55 373.35 270.95 Q373.5 272.2 374.75 273.95 372.9 273.7 370.15 272.15 M357.3 284.45 L357.05 285.95 Q355.7 292.15 353.3 298.05 L350.95 302.9 345.3 293.4 344.05 291.7 Q350.35 287.6 357.8 281.0 L357.3 284.45" fill="#000000" fill-rule="evenodd" stroke="none"/>
  </g>
</svg>
