<?xml version="1.0" encoding="UTF-8" standalone="no"?>
<svg xmlns:xlink="http://www.w3.org/1999/xlink" height="156.25px" width="153.9px" xmlns="http://www.w3.org/2000/svg">
  <g transform="matrix(1.0, 0.0, 0.0, 1.0, -322.95, -153.1)">
    <path d="M355.75 188.95 Q363.85 184.2 373.55 181.8 370.75 184.35 371.1 186.2 L379.8 184.25 382.05 162.25 Q386.25 154.1 399.9 153.1 413.55 154.1 417.8 162.25 L420.0 184.25 428.7 186.2 Q429.05 184.35 426.25 181.8 435.95 184.2 444.05 188.95 445.1 187.65 444.05 185.7 451.4 189.0 456.0 195.05 L461.45 197.4 Q480.75 204.8 475.9 225.8 471.1 246.75 458.8 260.5 453.1 268.0 444.5 273.5 L436.9 288.4 436.9 306.95 Q418.45 309.6 399.9 309.3 381.35 309.6 362.9 307.0 L362.9 288.4 355.3 273.5 Q346.7 268.0 341.0 260.5 328.7 246.75 323.9 225.8 319.05 204.8 338.35 197.4 341.05 196.2 343.8 195.1 348.4 189.0 355.75 185.7 354.7 187.65 355.75 188.95" fill="#000000" fill-rule="evenodd" stroke="none"/>
  </g>
</svg>
