<?xml version="1.0" encoding="UTF-8" standalone="no"?>
<svg xmlns:xlink="http://www.w3.org/1999/xlink" height="61.2px" width="119.5px" xmlns="http://www.w3.org/2000/svg">
  <g transform="matrix(1.0, 0.0, 0.0, 1.0, -289.9, -355.3)">
    <path d="M331.0 362.0 Q355.75 367.85 363.6 370.95 L364.85 371.45 Q366.2 371.9 369.0 374.0 L371.1 375.6 378.35 381.75 381.05 384.15 390.1 392.6 391.85 394.3 394.4 396.8 Q402.3 404.95 407.1 412.5 L408.9 415.95 Q399.85 416.55 387.55 410.1 380.1 406.15 373.55 400.5 L372.6 399.7 371.6 398.85 Q366.55 394.45 362.85 390.3 L361.85 389.2 360.45 387.8 Q355.4 382.65 351.4 379.95 L349.15 378.55 Q347.5 377.6 345.8 377.0 340.8 375.25 334.85 376.35 L334.25 375.6 Q334.9 375.0 335.0 374.35 335.15 373.55 334.25 372.8 332.75 371.8 331.75 372.2 330.5 372.55 330.5 374.6 L329.7 374.95 327.75 373.3 Q327.25 373.8 326.4 373.1 320.2 369.45 313.0 369.15 L312.9 369.35 Q312.35 370.1 311.05 369.85 309.85 369.65 309.6 369.05 303.7 367.15 294.1 371.55 290.95 372.65 290.5 366.3 L290.4 363.4 Q290.4 356.45 293.5 355.8 301.75 359.15 310.5 359.3 311.0 358.3 312.2 358.3 313.75 358.5 313.85 359.4 L313.95 359.4 Q319.7 359.6 328.0 360.95 330.0 361.0 331.0 362.0" fill="none" stroke="#000000" stroke-linecap="round" stroke-linejoin="round" stroke-width="1.0"/>
    <path d="M327.5 367.1 Q326.85 369.8 327.75 373.3 L330.1 365.15 330.5 363.75 331.0 362.0 Q328.25 364.1 327.5 367.1 M330.1 365.15 L361.8 373.75 Q362.75 373.3 362.05 372.55 L330.5 363.75 M407.1 412.5 Q400.6 412.35 394.0 409.5 385.45 405.65 377.05 399.3 L375.0 397.7 373.5 396.5 365.5 389.4 363.45 387.45 363.0 386.95 Q359.15 382.6 354.3 378.95 L352.5 377.65 Q350.9 376.6 349.25 375.8 342.45 372.6 335.0 374.35 M313.0 369.15 L312.75 369.15 312.75 365.65 Q312.85 362.5 313.55 359.45 L313.85 359.4 M309.6 369.05 L309.65 365.35 Q309.85 362.5 310.5 359.3 M321.6 363.45 Q320.8 363.5 320.3 364.1 319.8 364.7 319.9 365.5 L320.2 366.4 320.55 366.75 Q321.15 367.25 321.95 367.25 322.65 367.15 323.1 366.7 L323.2 366.55 Q323.7 365.95 323.65 365.2 323.6 364.35 323.0 363.85 322.4 363.35 321.6 363.45 M293.5 355.8 Q291.45 357.65 291.4 360.95 L291.4 363.5 Q291.6 368.2 292.85 370.85 293.3 371.65 294.1 371.55 M301.9 361.6 Q302.55 362.15 302.65 363.0 302.75 363.85 302.2 364.55 L302.2 364.6 Q301.65 365.2 300.8 365.25 299.9 365.3 299.25 364.75 L298.85 364.25 298.55 363.35 Q298.45 362.5 299.0 361.85 299.55 361.15 300.4 361.1 301.25 361.05 301.9 361.6" fill="none" stroke="#000000" stroke-linecap="round" stroke-linejoin="round" stroke-opacity="0.5019608" stroke-width="1.0"/>
  </g>
</svg>
