<?xml version="1.0" encoding="UTF-8" standalone="no"?>
<svg xmlns:xlink="http://www.w3.org/1999/xlink" height="63.85px" width="159.2px" xmlns="http://www.w3.org/2000/svg">
  <g transform="matrix(1.0, 0.0, 0.0, 1.0, -287.6, -351.8)">
    <path d="M348.0 358.1 Q348.4 359.25 346.15 359.95 L345.55 360.25 Q342.85 361.4 340.55 362.8 L414.8 392.45 415.4 392.7 419.65 394.55 Q440.65 403.95 446.3 413.7 434.55 417.95 408.5 409.75 L332.6 384.7 Q333.45 387.2 334.8 389.85 L335.1 390.4 Q336.3 392.45 335.25 393.1 334.5 393.45 333.3 392.2 331.75 390.25 330.55 388.3 327.0 382.45 326.4 376.1 L326.3 373.85 323.6 372.85 Q317.8 370.6 313.2 371.15 310.45 368.1 306.35 366.55 300.9 364.4 298.85 366.3 L298.3 367.45 Q294.3 366.05 292.15 364.4 L290.65 363.0 Q288.55 360.2 288.85 357.85 287.8 357.25 288.2 356.15 288.6 355.05 289.8 355.25 291.1 353.2 294.45 352.55 L296.55 352.3 Q299.25 352.45 303.2 353.95 L302.9 355.2 Q303.25 358.0 308.8 359.85 312.9 361.3 317.0 360.75 320.15 364.1 326.05 366.05 L328.75 367.05 Q329.45 366.15 330.25 365.4 334.85 360.85 341.3 358.7 343.5 357.9 345.95 357.45 347.65 357.25 348.0 358.1" fill="none" stroke="#000000" stroke-linecap="round" stroke-linejoin="round" stroke-width="1.0"/>
    <path d="M333.15 369.75 L364.4 381.5 Q366.3 379.95 365.9 377.5 L365.85 377.5 361.5 375.7 358.35 374.4 336.65 365.65 336.55 365.75 335.05 367.15 334.9 367.3 Q333.6 368.6 333.15 369.75 332.5 371.25 332.95 372.45 331.85 373.05 331.4 374.55 L362.85 385.7 Q363.75 385.05 364.1 383.75 364.65 382.55 364.4 381.5 M340.55 362.8 Q338.45 364.1 336.65 365.65 M332.6 384.7 Q331.8 382.3 331.4 379.95 L331.4 379.85 331.2 377.85 331.15 377.6 Q331.0 375.75 331.4 374.55 M446.3 413.7 L418.05 403.4 417.1 403.05 Q419.95 404.2 420.8 404.95 421.3 405.6 421.05 406.35 420.65 407.85 418.0 407.4 L402.7 402.9 397.85 401.35 382.35 396.45 374.2 393.85 364.3 390.65 361.4 389.75 359.85 389.25 353.7 387.2 344.35 384.15 331.4 379.95 M362.85 385.7 Q363.1 386.8 362.8 387.8 362.45 388.85 361.4 389.75 M328.75 367.05 L326.3 373.85 M417.1 403.05 L416.35 402.8 366.45 384.65 365.35 386.5 Q364.45 388.4 364.3 390.65 M416.35 402.8 L417.15 403.05 Q420.0 404.0 421.15 403.95 421.95 403.8 422.3 403.0 422.9 401.65 420.6 400.3 L413.95 397.35 409.7 395.5 395.9 389.75 388.6 386.75 375.6 381.45 368.65 378.65 Q366.7 381.4 366.45 384.65 M368.65 378.65 L365.9 377.5 M304.75 361.55 Q304.45 361.7 304.3 362.0 L304.35 362.65 304.85 363.05 305.45 363.05 305.85 362.6 305.85 362.55 305.85 361.95 305.4 361.5 304.75 361.55 M313.05 366.75 Q313.45 367.6 314.3 367.9 L315.9 367.8 Q316.7 367.45 317.0 366.65 L317.0 366.6 Q317.3 365.75 316.95 364.95 316.55 364.2 315.75 363.9 314.9 363.6 314.1 363.9 313.3 364.3 313.0 365.15 L313.0 365.2 Q312.7 366.0 313.05 366.75 M319.2 367.4 L319.2 367.45 319.2 368.05 319.7 368.45 320.3 368.45 320.75 368.0 320.7 367.35 320.25 366.9 319.6 366.95 319.2 367.4 M296.25 356.8 Q297.05 357.1 297.45 357.85 297.8 358.65 297.5 359.5 L297.5 359.55 Q297.2 360.35 296.4 360.7 L294.8 360.8 Q293.95 360.5 293.55 359.65 293.15 358.9 293.45 358.05 293.75 357.2 294.6 356.8 295.4 356.5 296.25 356.8 M298.85 366.3 Q293.1 364.05 291.6 361.95 289.45 359.2 290.25 356.9 291.1 354.6 294.55 353.85 297.05 353.25 302.9 355.2 M289.8 355.25 Q289.4 355.8 289.15 356.5 L288.85 357.85 M418.05 403.4 L417.15 403.05 M323.6 372.85 L326.05 366.05" fill="none" stroke="#000000" stroke-linecap="round" stroke-linejoin="round" stroke-opacity="0.5019608" stroke-width="1.0"/>
  </g>
</svg>
