<?xml version="1.0" encoding="UTF-8" standalone="no"?>
<svg xmlns:xlink="http://www.w3.org/1999/xlink" height="107.3px" width="269.5px" xmlns="http://www.w3.org/2000/svg">
  <g transform="matrix(1.0, 0.0, 0.0, 1.0, -285.45, -346.65)">
    <path d="M297.25 349.2 Q296.8 348.1 298.3 347.45 L299.8 346.75 Q300.7 346.35 301.1 347.35 303.2 352.05 302.7 356.6 L302.65 356.65 Q302.4 358.9 301.55 361.1 L301.5 361.35 Q300.7 363.55 299.55 365.3 L299.5 365.35 Q296.95 369.2 292.35 371.4 291.4 371.9 291.0 371.0 L290.25 369.6 Q289.5 368.05 290.55 367.55 291.35 363.1 288.45 359.5 L287.2 358.3 286.15 357.4 Q285.2 356.7 285.55 355.3 286.2 354.05 287.35 354.05 L288.75 354.05 290.45 353.95 Q295.0 353.05 297.25 349.2 M331.7 365.5 Q335.65 359.2 342.2 356.95 343.5 356.65 343.95 358.15 344.45 359.35 343.35 359.85 339.85 361.05 337.15 363.6 L522.8 435.6 Q551.05 446.55 554.95 453.35 547.55 456.1 518.9 446.35 L330.4 382.15 Q330.85 385.8 332.75 389.0 333.25 390.1 332.1 390.7 330.8 391.6 330.0 390.5 326.45 384.55 327.5 377.15 327.8 374.5 328.8 371.65 L328.95 371.1 Q330.15 368.0 331.7 365.5" fill="#ffffff" fill-rule="evenodd" stroke="none"/>
  </g>
</svg>
