<?xml version="1.0" encoding="UTF-8" standalone="no"?>
<svg xmlns:xlink="http://www.w3.org/1999/xlink" height="130.2px" width="359.4px" xmlns="http://www.w3.org/2000/svg">
  <g transform="matrix(1.0, 0.0, 0.0, 1.0, -255.25, -338.5)">
    <path d="M357.65 348.85 L363.75 345.65 366.95 351.75 362.3 366.55 477.75 402.55 490.05 406.3 Q534.2 419.0 568.9 420.4 594.35 421.5 614.65 416.5 589.6 449.65 530.3 463.95 L507.95 468.7 Q493.05 458.8 476.3 450.35 459.6 441.9 441.2 434.85 408.3 422.55 369.4 414.6 369.8 404.5 364.9 398.5 361.15 393.95 354.4 391.8 L349.8 406.6 343.7 409.9 340.6 403.7 346.7 384.3 344.6 383.05 342.6 381.65 342.85 380.9 339.9 379.85 343.55 368.15 346.55 368.9 346.8 368.1 349.2 368.1 351.6 368.4 357.65 348.85 M278.7 345.1 L279.5 347.05 279.8 348.25 283.1 349.5 284.15 349.9 280.65 361.15 279.55 360.8 276.2 359.95 275.2 360.8 273.45 361.9 Q268.9 364.3 264.05 362.75 259.15 361.2 256.65 356.65 254.3 352.1 255.85 347.2 257.4 342.25 261.95 339.9 266.5 337.55 271.4 339.1 276.3 340.55 278.7 345.1 M269.45 345.4 Q267.15 344.65 265.05 345.75 262.85 346.95 262.15 349.2 261.45 351.45 262.65 353.65 263.75 355.6 265.95 356.4 268.3 357.1 270.4 356.05 272.5 354.8 273.2 352.65 273.9 350.35 272.85 348.15 271.75 346.1 269.45 345.4" fill="#ffffff" fill-rule="evenodd" stroke="none"/>
  </g>
</svg>
