<?xml version="1.0" encoding="UTF-8" standalone="no"?>
<svg xmlns:xlink="http://www.w3.org/1999/xlink" height="25.7px" width="45.7px" xmlns="http://www.w3.org/2000/svg">
  <g transform="matrix(1.0, 0.0, 0.0, 1.0, -287.1, -348.8)">
    <path d="M322.6 364.45 L321.85 363.75 320.75 363.8 Q320.25 364.0 320.05 364.55 L320.0 364.85 320.1 365.6 Q320.35 366.15 320.9 366.35 L321.95 366.25 322.5 365.8 322.65 365.5 Q322.85 364.95 322.6 364.45 M309.85 360.85 Q310.05 360.3 309.8 359.8 309.6 359.3 309.05 359.1 L308.0 359.15 Q307.45 359.35 307.25 359.9 307.1 360.4 307.35 360.95 307.6 361.5 308.1 361.7 L309.15 361.6 309.85 360.9 309.85 360.85 M332.3 362.9 Q332.9 363.1 332.75 363.6 L328.85 374.4 328.4 374.5 Q326.3 374.5 324.2 373.0 321.5 367.85 314.9 367.35 308.75 366.5 303.3 363.3 297.0 359.65 292.2 361.55 290.05 360.9 288.3 358.15 286.7 355.0 287.25 352.15 288.25 348.3 293.9 348.9 L332.3 362.9 M293.95 355.05 Q293.8 355.55 294.05 356.1 294.3 356.65 294.85 356.85 L295.9 356.8 296.55 356.0 296.65 355.8 296.55 355.0 295.8 354.25 294.7 354.3 Q294.3 354.45 294.1 354.8 L293.95 355.05" fill="#ffffff" fill-rule="evenodd" stroke="none"/>
  </g>
</svg>
