<?xml version="1.0" encoding="UTF-8" standalone="no"?>
<svg xmlns:xlink="http://www.w3.org/1999/xlink" height="84.75px" width="202.35px" xmlns="http://www.w3.org/2000/svg">
  <g transform="matrix(1.0, 0.0, 0.0, 1.0, -231.9, -329.25)">
    <path d="M336.8 366.9 L364.4 377.1 386.0 384.8 Q415.05 394.65 429.75 397.35 L434.25 400.35 434.1 400.6 433.95 400.8 432.65 403.1 432.25 403.85 429.95 410.15 429.4 413.4 429.3 413.7 429.25 414.0 423.75 413.65 Q410.85 406.25 382.2 395.2 L360.8 387.2 332.95 377.3 336.8 366.9 M331.55 364.95 L327.7 375.5 Q294.95 363.95 250.35 348.8 L255.2 335.5 Q299.05 352.7 331.55 364.95 M239.05 329.25 L249.85 333.45 245.0 347.0 233.95 343.3 Q230.65 339.6 232.6 334.95 234.2 329.9 239.05 329.25" fill="#ffffff" fill-rule="evenodd" stroke="none"/>
  </g>
</svg>
