<?xml version="1.0" encoding="UTF-8" standalone="no"?>
<svg xmlns:xlink="http://www.w3.org/1999/xlink" height="41.85px" width="46.4px" xmlns="http://www.w3.org/2000/svg">
  <g transform="matrix(1.0, 0.0, 0.0, 1.0, -376.7, -157.0)">
    <path d="M402.35 177.8 Q404.2 180.25 406.95 177.55 411.95 174.05 412.3 167.3 417.4 163.2 417.0 157.5 L418.45 157.5 418.45 158.05 418.05 165.25 418.1 165.35 Q424.35 172.8 421.9 181.85 420.6 186.8 418.05 190.25 412.2 198.2 399.9 198.35 382.25 198.15 377.9 181.85 375.45 172.75 381.8 165.25 L381.35 157.5 382.8 157.5 Q382.4 163.2 387.5 167.3 387.85 174.05 392.85 177.55 395.6 180.25 397.45 177.8 L402.35 177.8 Z" fill="none" stroke="#000000" stroke-linecap="round" stroke-linejoin="round" stroke-width="1.0"/>
  </g>
</svg>
