<?xml version="1.0" encoding="UTF-8" standalone="no"?>
<svg xmlns:xlink="http://www.w3.org/1999/xlink" height="99.4px" width="384.7px" xmlns="http://www.w3.org/2000/svg">
  <g transform="matrix(1.0, 0.0, 0.0, 1.0, -207.5, -272.4)">
    <path d="M259.65 285.85 L264.5 286.55 Q279.15 288.4 294.7 286.65 296.45 289.7 297.7 292.75 301.5 302.3 299.45 311.0 297.2 320.65 287.65 329.25 L286.0 330.75 Q277.95 338.35 272.7 347.2 L270.8 350.55 Q269.25 356.6 271.05 361.4 242.4 372.9 213.7 371.7 L208.4 323.75 Q206.0 308.4 210.1 294.55 213.55 282.95 221.55 272.4 239.75 282.5 259.65 285.85 M578.2 272.5 Q586.2 283.05 589.65 294.65 593.7 308.45 591.3 323.8 L586.0 371.7 Q557.4 372.85 528.7 361.35 530.45 356.55 528.9 350.55 L527.1 347.3 Q521.85 338.4 513.75 330.8 L512.05 329.25 Q502.55 320.7 500.25 311.05 498.2 302.35 502.0 292.75 503.25 289.7 505.1 286.75 520.65 288.35 535.2 286.55 546.7 285.15 557.7 281.5 568.2 278.0 578.2 272.5" fill="#000000" fill-rule="evenodd" stroke="none"/>
  </g>
</svg>
