<?xml version="1.0" encoding="UTF-8" standalone="no"?>
<svg xmlns:xlink="http://www.w3.org/1999/xlink" height="126.75px" width="384.7px" xmlns="http://www.w3.org/2000/svg">
  <g transform="matrix(1.0, 0.0, 0.0, 1.0, -207.5, -245.05)">
    <path d="M578.15 272.4 Q586.2 283.05 589.65 294.65 593.7 308.45 591.3 323.8 L586.0 371.7 Q557.4 372.85 528.7 361.35 530.45 356.55 528.9 350.55 L527.1 347.3 Q521.85 338.4 513.75 330.8 L512.05 329.25 Q502.55 320.7 500.25 311.05 498.2 302.35 502.0 292.75 503.25 289.7 505.1 286.75 L502.2 282.65 Q499.85 279.25 498.1 275.85 531.4 273.75 557.7 261.0 563.6 258.15 569.2 254.75 576.2 250.4 582.7 245.25 L581.55 255.3 Q580.4 263.5 578.15 272.4 M297.7 292.75 Q301.5 302.3 299.45 311.0 297.2 320.65 287.65 329.25 L286.0 330.75 Q277.95 338.35 272.7 347.2 L270.8 350.55 Q269.25 356.6 271.05 361.4 242.4 372.9 213.7 371.7 L208.4 323.75 Q206.0 308.4 210.1 294.55 213.55 282.95 221.55 272.4 219.3 263.5 218.15 255.3 217.4 250.05 217.0 245.05 223.55 250.3 230.7 254.7 244.15 262.95 259.65 268.05 279.05 274.4 301.65 275.75 299.85 279.2 297.5 282.65 L294.7 286.65 Q296.45 289.7 297.7 292.75" fill="#000000" fill-rule="evenodd" stroke="none"/>
  </g>
</svg>
