<?xml version="1.0" encoding="UTF-8" standalone="no"?>
<svg xmlns:xlink="http://www.w3.org/1999/xlink" height="106.15px" width="99.75px" xmlns="http://www.w3.org/2000/svg">
  <g transform="matrix(1.0, 0.0, 0.0, 1.0, -213.7, -361.4)">
    <path d="M213.7 371.7 Q242.4 372.9 271.05 361.4 L294.15 373.45 309.05 390.6 313.45 411.5 Q302.6 414.05 297.65 398.2 L287.55 394.6 287.55 418.05 290.65 429.0 296.85 438.2 304.8 444.05 Q310.55 455.45 302.25 460.5 L290.2 451.65 Q294.45 463.15 285.0 467.55 L274.2 456.15 Q274.2 459.7 271.0 462.0 L257.75 450.5 Q257.75 454.4 254.3 455.35 L242.8 445.35 235.25 431.75 228.9 415.4 218.25 374.7 221.85 376.85 213.7 371.7" fill="#000000" fill-rule="evenodd" stroke="none"/>
  </g>
</svg>
