<?xml version="1.0" encoding="UTF-8" standalone="no"?>
<svg xmlns:xlink="http://www.w3.org/1999/xlink" height="107.15px" width="373.4px" xmlns="http://www.w3.org/2000/svg">
  <g transform="matrix(1.0, 0.0, 0.0, 1.0, -213.2, -360.9)">
    <path d="M528.75 361.4 L508.25 372.1 505.65 373.45 490.75 390.6 486.35 411.5 Q497.2 414.05 502.15 398.2 L512.25 394.6 512.25 418.05 509.15 429.0 502.95 438.2 495.0 444.05 Q489.25 455.45 497.55 460.5 L509.6 451.65 Q505.35 463.15 514.8 467.55 L525.6 456.15 Q525.6 459.7 528.8 462.0 L542.05 450.5 Q542.05 454.4 545.5 455.35 L557.0 445.35 564.55 431.75 570.9 415.4 581.55 374.7 581.6 374.55 584.95 372.45 586.1 371.7 M508.25 372.1 L505.8 373.3 505.65 373.45 M581.6 374.65 L584.95 372.45 M218.25 374.7 L228.9 415.4 235.25 431.75 242.8 445.35 254.3 455.35 Q257.75 454.4 257.75 450.5 M218.25 374.7 L218.2 374.55 214.85 372.45 218.2 374.65 M214.85 372.45 L213.7 371.7 M271.05 361.4 L294.15 373.45 294.0 373.3 271.05 361.4 M294.15 373.45 L309.05 390.6 313.45 411.5 Q302.6 414.05 297.65 398.2 L287.55 394.6 287.55 418.05 290.65 429.0 296.85 438.2 304.8 444.05 Q310.55 455.45 302.25 460.5 L290.2 451.65 Q294.45 463.15 285.0 467.55 L274.2 456.15 Q274.2 459.7 271.0 462.0 L257.75 450.5" fill="none" stroke="#000000" stroke-linecap="round" stroke-linejoin="round" stroke-width="1.0"/>
    <path d="M512.25 394.6 L512.25 382.4 M509.6 451.65 L512.7 449.45 521.7 438.1 527.65 425.55 M581.6 374.55 L577.95 376.85 581.55 374.7 581.6 374.65 M574.35 379.1 L577.95 376.85 M225.45 379.1 L221.85 376.85 218.25 374.7 M257.75 450.5 L254.8 448.1 246.75 436.25 239.35 420.5 M218.2 374.65 L218.25 374.7 M221.85 376.85 L218.2 374.55 M287.55 394.6 L287.55 382.4 M290.2 451.65 L287.1 449.45 278.1 438.1 272.15 425.55 M255.0 421.55 L249.95 416.45 M256.4 424.85 L261.0 436.95 269.75 451.45 274.2 456.15 M249.05 414.65 L246.15 407.95 M270.05 420.85 L264.1 415.55 258.45 403.95 M237.05 417.15 L233.6 407.95 M529.75 420.85 L535.7 415.55 541.35 403.95 M550.75 414.65 L553.65 407.95 M543.4 424.85 L538.8 436.95 530.05 451.45 525.6 456.15 M542.05 450.5 L545.0 448.1 553.05 436.25 560.45 420.5 M544.8 421.55 L549.85 416.45 M562.75 417.15 L566.2 407.95" fill="none" stroke="#000000" stroke-linecap="round" stroke-linejoin="round" stroke-opacity="0.5019608" stroke-width="1.0"/>
  </g>
</svg>
