<?xml version="1.0" encoding="UTF-8" standalone="no"?>
<svg xmlns:xlink="http://www.w3.org/1999/xlink" height="78.15px" width="385.7px" xmlns="http://www.w3.org/2000/svg">
  <g transform="matrix(1.0, 0.0, 0.0, 1.0, -207.0, -294.05)">
    <path d="M589.65 294.65 Q593.7 308.45 591.3 323.8 L586.0 371.7 M500.25 311.05 Q502.55 320.7 512.05 329.25 L513.75 330.8 Q521.85 338.4 527.1 347.3 L528.9 350.55 Q530.45 356.55 528.7 361.35 M213.7 371.7 L208.4 323.75 Q206.0 308.4 210.1 294.55 M299.45 311.0 Q297.2 320.65 287.65 329.25 L286.0 330.75 Q277.95 338.35 272.7 347.2 L270.8 350.55 Q269.25 356.6 271.05 361.4" fill="none" stroke="#000000" stroke-linecap="round" stroke-linejoin="round" stroke-width="1.0"/>
    <path d="M500.25 311.05 Q532.35 310.95 557.7 305.25 L566.8 302.95 Q579.05 299.5 589.65 294.65 M210.1 294.55 Q216.7 297.6 223.95 300.1 240.15 305.65 259.65 308.4 278.05 310.95 299.45 311.0" fill="none" stroke="#000000" stroke-linecap="round" stroke-linejoin="round" stroke-opacity="0.5019608" stroke-width="1.0"/>
  </g>
</svg>
