<?xml version="1.0" encoding="UTF-8" standalone="no"?>
<svg xmlns:xlink="http://www.w3.org/1999/xlink" height="127.65px" width="385.7px" xmlns="http://www.w3.org/2000/svg">
  <g transform="matrix(1.0, 0.0, 0.0, 1.0, -207.0, -244.55)">
    <path d="M586.0 371.7 L591.3 323.8 Q593.7 308.45 589.65 294.65 586.2 283.05 578.15 272.4 580.4 263.5 581.55 255.3 M505.1 286.75 Q503.25 289.7 502.0 292.75 498.2 302.35 500.25 311.05 502.55 320.7 512.05 329.25 L513.75 330.8 Q521.85 338.4 527.1 347.3 L528.9 350.55 Q530.45 356.55 528.7 361.35 M502.2 282.65 L505.1 286.75 M582.7 245.25 L581.55 255.3 M297.5 282.65 L294.7 286.65 Q296.45 289.7 297.7 292.75 301.5 302.3 299.45 311.0 297.2 320.65 287.65 329.25 L286.0 330.75 Q277.95 338.35 272.7 347.2 L270.8 350.55 Q269.25 356.6 271.05 361.4 M221.55 272.4 Q213.55 282.95 210.1 294.55 206.0 308.4 208.4 323.75 L213.7 371.7 M221.55 272.4 Q219.3 263.5 218.15 255.3 217.4 250.05 217.0 245.05" fill="none" stroke="#000000" stroke-linecap="round" stroke-linejoin="round" stroke-width="1.0"/>
    <path d="M578.15 272.4 Q575.4 268.6 571.85 264.9 550.65 273.05 535.2 286.55 526.9 293.8 520.25 302.6 511.2 294.65 505.1 286.75 M581.55 255.3 L569.2 254.75 Q563.6 258.15 557.7 261.0 531.4 273.75 498.1 275.85 499.85 279.25 502.2 282.65 M569.2 254.75 Q576.2 250.4 582.7 245.25 M217.0 245.05 Q223.55 250.3 230.7 254.7 244.15 262.95 259.65 268.05 279.05 274.4 301.65 275.75 299.85 279.2 297.5 282.65 M218.15 255.3 L230.7 254.7 M294.7 286.65 Q288.55 294.6 279.45 302.6 272.8 293.8 264.5 286.55 249.0 273.05 227.85 264.9 224.3 268.6 221.55 272.4" fill="none" stroke="#000000" stroke-linecap="round" stroke-linejoin="round" stroke-opacity="0.5019608" stroke-width="1.0"/>
  </g>
</svg>
