<?xml version="1.0" encoding="UTF-8" standalone="no"?>
<svg xmlns:xlink="http://www.w3.org/1999/xlink" height="5.8px" width="10.55px" xmlns="http://www.w3.org/2000/svg">
  <g transform="matrix(1.0, 0.0, 0.0, 1.0, -394.6, -148.45)">
    <path d="M404.4 150.1 Q403.7 148.95 400.75 148.95 L399.85 149.0 398.95 148.95 Q396.1 148.95 395.35 150.1 395.1 150.6 395.1 151.15 395.1 152.2 396.2 152.2 L396.35 152.2 396.6 152.0 Q396.8 151.7 397.25 151.7 L398.1 151.95 398.55 152.6 399.2 153.35 Q399.45 153.65 399.85 153.75 L400.0 153.75 400.65 153.35 401.3 152.6 401.65 151.95 402.5 151.7 Q402.95 151.7 403.15 152.0 L403.5 152.2 403.55 152.2 Q404.65 152.2 404.65 151.15 L404.4 150.1 M400.65 153.35 L402.15 152.85 Q403.25 152.25 403.5 152.2 M396.35 152.2 L397.7 152.85 399.2 153.35" fill="none" stroke="#000000" stroke-linecap="round" stroke-linejoin="round" stroke-opacity="0.5019608" stroke-width="1.0"/>
  </g>
</svg>
