<?xml version="1.0" encoding="UTF-8" standalone="no"?>
<svg xmlns:xlink="http://www.w3.org/1999/xlink" height="40.1px" width="169.4px" xmlns="http://www.w3.org/2000/svg">
  <g transform="matrix(1.0, 0.0, 0.0, 1.0, -315.2, -520.4)">
    <path d="M330.65 520.95 Q346.15 520.1 355.95 529.5 M443.85 529.5 Q453.65 520.1 469.15 520.95" fill="none" stroke="#000000" stroke-linecap="round" stroke-linejoin="round" stroke-opacity="0.5019608" stroke-width="1.0"/>
    <path d="M355.95 529.5 Q354.9 532.8 354.35 536.3 353.8 540.25 352.2 543.95 350.0 549.0 345.85 553.6 L338.3 560.0 321.35 560.0 316.9 552.6 316.1 549.8 Q314.6 542.85 318.4 536.45 L330.65 520.95 M469.15 520.95 L481.4 536.45 Q485.2 542.85 483.7 549.8 L482.9 552.6 478.45 560.0 461.5 560.0 453.95 553.6 Q449.8 549.0 447.6 543.95 446.0 540.25 445.45 536.3 444.9 532.8 443.85 529.5" fill="none" stroke="#000000" stroke-linecap="round" stroke-linejoin="round" stroke-width="1.0"/>
  </g>
</svg>
