<?xml version="1.0" encoding="UTF-8" standalone="no"?>
<svg xmlns:xlink="http://www.w3.org/1999/xlink" height="76.6px" width="116.4px" xmlns="http://www.w3.org/2000/svg">
  <g transform="matrix(1.0, 0.0, 0.0, 1.0, -341.7, -419.5)">
    <path d="M452.1 495.6 L452.05 495.55 457.1 452.8 Q458.35 444.4 456.45 437.0 L455.4 433.6 450.95 420.55 450.8 420.0 M424.4 420.55 L421.0 433.3 Q420.25 436.5 420.2 439.55 420.05 445.9 422.9 451.85 L426.4 457.65 Q430.45 464.7 433.15 472.1 435.5 478.25 436.9 484.7 438.1 490.0 438.65 495.55 M375.4 420.55 L378.8 433.3 Q379.55 436.5 379.6 439.55 379.75 445.9 376.9 451.85 L373.4 457.65 Q369.35 464.7 366.65 472.1 364.3 478.25 362.9 484.7 361.7 490.0 361.15 495.55 M347.7 495.6 L347.75 495.55 342.7 452.8 Q341.45 444.4 343.35 437.0 343.8 435.25 344.4 433.6 L348.85 420.55 349.0 420.0" fill="none" stroke="#000000" stroke-linecap="round" stroke-linejoin="round" stroke-width="1.0"/>
    <path d="M450.95 420.55 L449.75 421.4 Q442.3 426.45 433.85 424.6 L437.1 433.1 446.6 431.7 448.85 424.2 M424.4 420.55 L425.8 421.4 Q429.95 423.75 433.85 424.6 M348.85 420.55 L350.05 421.4 Q357.5 426.45 365.95 424.6 369.85 423.75 374.0 421.4 L375.4 420.55 M350.95 424.2 L353.2 431.7 362.7 433.1 365.95 424.6 M347.7 495.6 L347.4 495.5 M452.1 495.6 L452.4 495.5" fill="none" stroke="#000000" stroke-linecap="round" stroke-linejoin="round" stroke-opacity="0.5019608" stroke-width="1.0"/>
  </g>
</svg>
