<?xml version="1.0" encoding="UTF-8" standalone="no"?>
<svg xmlns:xlink="http://www.w3.org/1999/xlink" height="23.15px" width="100.4px" xmlns="http://www.w3.org/2000/svg">
  <g transform="matrix(1.0, 0.0, 0.0, 1.0, -349.7, -348.15)">
    <path d="M352.5 348.65 L357.25 350.15 365.8 352.6 372.05 354.15 390.75 357.9 M387.05 370.8 Q379.4 370.4 372.05 368.95 L365.8 367.55 Q357.8 365.5 350.2 362.2 M447.3 348.65 L442.55 350.15 434.0 352.6 427.75 354.15 409.05 357.9 M412.75 370.8 Q420.4 370.4 427.75 368.95 L434.0 367.55 Q442.0 365.5 449.6 362.2" fill="none" stroke="#000000" stroke-linecap="round" stroke-linejoin="round" stroke-opacity="0.5019608" stroke-width="1.0"/>
    <path d="M390.75 357.9 L387.05 370.8 M350.2 362.2 Q351.1 355.25 352.5 348.65 M409.05 357.9 L412.75 370.8 M449.6 362.2 Q448.7 355.25 447.3 348.65" fill="none" stroke="#000000" stroke-linecap="round" stroke-linejoin="round" stroke-width="1.0"/>
  </g>
</svg>
