<?xml version="1.0" encoding="UTF-8" standalone="no"?>
<svg xmlns:xlink="http://www.w3.org/1999/xlink" height="24.5px" width="88.2px" xmlns="http://www.w3.org/2000/svg">
  <g transform="matrix(1.0, 0.0, 0.0, 1.0, -355.8, -319.9)">
    <path d="M395.1 343.9 L392.7 343.9 391.05 341.85 Q373.85 340.7 356.3 333.65 M360.8 320.5 L360.45 320.4 M391.05 341.85 Q386.5 336.5 380.65 331.4 M439.0 320.5 Q421.9 325.55 402.25 326.1 L399.9 326.15 397.55 326.1 Q377.9 325.55 360.8 320.5 M439.35 320.4 L439.0 320.5 M443.5 333.65 Q425.95 340.7 408.75 341.85 L407.1 343.9 404.7 343.9 M408.75 341.85 Q413.3 336.5 419.15 331.4" fill="none" stroke="#000000" stroke-linecap="round" stroke-linejoin="round" stroke-opacity="0.5019608" stroke-width="1.0"/>
    <path d="M404.7 343.9 L395.1 343.9 M356.3 333.65 Q358.25 326.9 360.8 320.5 M439.0 320.5 Q441.55 326.9 443.5 333.65" fill="none" stroke="#000000" stroke-linecap="round" stroke-linejoin="round" stroke-width="1.0"/>
  </g>
</svg>
