<?xml version="1.0" encoding="UTF-8" standalone="no"?>
<svg xmlns:xlink="http://www.w3.org/1999/xlink" height="37.15px" width="113.1px" xmlns="http://www.w3.org/2000/svg">
  <g transform="matrix(1.0, 0.0, 0.0, 1.0, -343.35, -420.5)">
    <path d="M451.0 420.55 L455.4 433.55 456.45 436.95 456.45 437.0 Q453.8 455.1 426.5 457.65 L422.9 451.8 Q420.05 445.85 420.2 439.5 438.3 439.05 445.8 431.8 L446.95 430.6 Q450.4 426.5 451.0 420.55 M348.85 420.5 Q349.45 426.4 352.85 430.5 L354.05 431.8 Q361.55 439.05 379.6 439.5 379.75 445.85 376.9 451.8 L373.35 457.65 Q345.95 455.1 343.35 437.0 L343.35 436.95 Q343.8 435.2 344.4 433.55 L348.85 420.5" fill="#000000" fill-rule="evenodd" stroke="none"/>
  </g>
</svg>
