<?xml version="1.0" encoding="UTF-8" standalone="no"?>
<svg xmlns:xlink="http://www.w3.org/1999/xlink" height="26.45px" width="36.1px" xmlns="http://www.w3.org/2000/svg">
  <g transform="matrix(1.0, 0.0, 0.0, 1.0, -381.85, -222.6)">
    <path d="M417.3 232.45 Q419.25 237.7 415.45 242.35 411.7 247.1 404.4 248.55 397.05 250.0 390.5 247.25 384.0 244.5 382.05 239.25 L381.85 238.75 Q383.75 241.35 387.45 242.9 392.65 245.1 398.55 244.0 404.4 242.9 407.4 239.05 410.45 235.2 408.85 231.05 407.3 226.75 402.1 224.55 398.35 223.0 394.35 223.2 L394.95 223.15 Q402.25 221.65 408.75 224.35 415.35 227.1 417.3 232.45" fill="#000000" fill-rule="evenodd" stroke="none"/>
  </g>
</svg>
