<?xml version="1.0" encoding="UTF-8" standalone="no"?>
<svg xmlns:xlink="http://www.w3.org/1999/xlink" height="40.0px" width="44.5px" xmlns="http://www.w3.org/2000/svg">
  <g transform="matrix(1.0, 0.0, 0.0, 1.0, -378.5, -202.35)">
    <path d="M416.65 205.7 Q420.35 208.55 420.35 212.8 420.35 216.3 417.65 218.9 415.9 220.6 412.95 221.0 417.6 221.65 420.0 224.15 422.5 226.7 422.5 230.55 422.5 233.6 420.75 236.15 419.05 238.6 416.0 240.05 414.1 240.95 410.4 241.35 L404.05 241.85 379.0 241.85 379.0 202.85 406.05 202.85 Q412.95 202.85 416.65 205.7 M405.8 226.9 Q404.5 226.05 401.05 226.05 L394.55 226.05 394.55 232.6 401.1 232.6 Q404.5 232.6 405.8 231.7 407.1 230.8 407.1 229.25 407.1 227.8 405.8 226.9 M404.15 216.9 Q405.25 216.05 405.25 214.55 405.25 213.1 404.15 212.35 403.05 211.55 400.05 211.55 L394.55 211.55 394.55 217.65 400.0 217.65 Q403.05 217.65 404.15 216.9" fill="none" stroke="#000000" stroke-linecap="round" stroke-linejoin="round" stroke-opacity="0.5019608" stroke-width="1.0"/>
  </g>
</svg>
