<?xml version="1.0" encoding="UTF-8" standalone="no"?>
<svg xmlns:xlink="http://www.w3.org/1999/xlink" height="21.0px" width="26.55px" xmlns="http://www.w3.org/2000/svg">
  <g transform="matrix(1.0, 0.0, 0.0, 1.0, -386.5, -201.65)">
    <path d="M405.4 207.8 L410.05 206.1 412.55 212.45 407.4 213.4 403.85 213.65 Q405.4 213.9 406.45 214.9 L409.9 218.25 403.3 222.15 400.65 218.4 399.6 215.8 398.55 218.45 395.9 222.15 389.25 218.25 392.9 214.9 Q394.4 213.65 395.65 213.6 L392.7 213.25 387.0 212.45 389.55 206.1 394.55 207.8 Q395.2 208.0 397.0 209.3 396.4 207.8 396.3 206.75 L395.65 202.15 403.85 202.15 403.25 206.75 402.8 208.95 Q402.85 208.75 403.05 208.7 L405.4 207.8 Z" fill="none" stroke="#000000" stroke-linecap="round" stroke-linejoin="round" stroke-opacity="0.5019608" stroke-width="1.0"/>
  </g>
</svg>
