<?xml version="1.0" encoding="UTF-8" standalone="no"?>
<svg xmlns:xlink="http://www.w3.org/1999/xlink" height="41.35px" width="41.0px" xmlns="http://www.w3.org/2000/svg">
  <g transform="matrix(1.0, 0.0, 0.0, 1.0, -380.95, -201.65)">
    <path d="M419.25 213.05 L406.25 214.7 Q405.2 211.7 404.2 210.9 403.2 210.15 401.95 210.15 400.45 210.15 399.55 210.9 398.55 211.75 398.55 213.4 L398.75 215.15 400.15 218.9 409.75 218.9 409.75 226.2 401.35 226.2 Q401.25 228.0 400.3 229.95 399.65 231.25 398.25 231.9 L400.6 231.6 405.05 232.15 410.25 232.75 413.1 232.5 416.9 231.5 421.45 239.95 Q417.95 241.55 415.55 242.0 L410.4 242.5 403.05 241.55 397.4 240.3 395.0 240.15 Q391.2 240.15 385.85 242.5 L381.45 234.5 Q388.05 230.5 388.05 226.85 L387.95 226.2 381.45 226.2 381.45 218.9 386.1 218.9 384.8 215.65 384.6 213.4 Q384.6 210.0 386.75 207.35 388.95 204.6 392.45 203.35 395.95 202.15 401.9 202.15 407.3 202.15 410.6 203.25 413.9 204.3 416.1 206.7 418.4 209.1 419.25 213.05 Z" fill="none" stroke="#000000" stroke-linecap="round" stroke-linejoin="round" stroke-opacity="0.5019608" stroke-width="1.0"/>
  </g>
</svg>
