<?xml version="1.0" encoding="UTF-8" standalone="no"?>
<svg xmlns:xlink="http://www.w3.org/1999/xlink" height="45.65px" width="45.6px" xmlns="http://www.w3.org/2000/svg">
  <g transform="matrix(1.0, 0.0, 0.0, 1.0, -377.05, -200.2)">
    <path d="M413.7 219.75 Q413.65 230.6 404.4 235.75 L404.4 245.35 422.15 245.35 422.15 235.05 Q420.9 237.75 418.25 238.35 L406.95 238.15 Q412.5 235.75 416.25 232.25 L416.55 231.95 Q421.25 226.9 420.9 218.7 420.15 210.2 413.65 205.0 408.0 200.6 399.85 200.7 391.75 200.6 386.1 205.0 379.6 210.2 378.8 218.7 378.5 226.9 383.15 231.95 L383.5 232.25 Q387.25 235.75 392.8 238.15 L381.45 238.35 Q378.8 237.75 377.55 235.05 L377.55 245.35 395.3 245.35 395.3 235.75 Q386.1 230.6 386.0 219.75 385.55 212.4 389.85 207.0 393.25 202.55 399.85 202.6 406.5 202.55 409.9 207.0 414.15 212.4 413.7 219.75 Z" fill="none" stroke="#000000" stroke-linecap="round" stroke-linejoin="round" stroke-opacity="0.5019608" stroke-width="1.0"/>
  </g>
</svg>
