<?xml version="1.0" encoding="UTF-8" standalone="no"?>
<svg xmlns:xlink="http://www.w3.org/1999/xlink" height="37.15px" width="49.75px" xmlns="http://www.w3.org/2000/svg">
  <g transform="matrix(1.0, 0.0, 0.0, 1.0, -375.0, -207.1)">
    <path d="M423.25 207.6 L376.25 207.6 375.75 207.8 Q375.5 208.0 375.5 208.5 L375.5 216.2 375.8 216.5 376.4 216.65 387.05 216.65 387.05 234.65 376.15 234.65 375.7 234.85 375.5 235.55 375.5 243.0 375.75 243.55 376.55 243.75 423.5 243.75 Q424.0 243.75 424.1 243.55 L424.25 242.9 424.25 235.2 424.05 234.85 423.5 234.7 412.6 234.7 412.6 216.7 423.5 216.7 424.05 216.55 424.25 216.0 424.25 208.0 423.9 207.65 423.25 207.6 Z" fill="none" stroke="#000000" stroke-linecap="round" stroke-linejoin="round" stroke-opacity="0.5019608" stroke-width="1.0"/>
  </g>
</svg>
