<?xml version="1.0" encoding="UTF-8" standalone="no"?>
<svg xmlns:xlink="http://www.w3.org/1999/xlink" height="50.1px" width="49.8px" xmlns="http://www.w3.org/2000/svg">
  <g transform="matrix(1.0, 0.0, 0.0, 1.0, -375.05, -201.75)">
    <path d="M424.3 208.9 Q424.05 210.65 422.6 211.95 421.0 213.7 418.65 213.7 416.3 213.7 414.55 211.95 413.0 210.4 412.95 208.1 L412.95 208.0 Q413.0 205.6 414.55 203.9 416.3 202.25 418.65 202.25 421.0 202.25 422.6 203.9 424.35 205.65 424.35 208.0 L424.3 208.9 M405.05 208.0 L405.0 208.9 Q404.75 210.65 403.3 211.95 401.7 213.7 399.35 213.7 397.0 213.7 395.25 211.95 393.7 210.4 393.65 208.1 L393.65 208.0 Q393.7 205.6 395.25 203.9 397.0 202.25 399.35 202.25 401.7 202.25 403.3 203.9 405.05 205.65 405.05 208.0 M412.95 214.35 L412.95 236.0 Q412.95 237.7 411.75 238.8 410.65 239.95 408.95 239.95 407.3 239.95 406.1 238.8 405.0 237.7 405.0 236.0 L405.0 214.25 Q402.65 216.55 399.35 216.55 396.15 216.55 393.65 214.4 L393.65 238.85 Q392.5 239.95 390.9 239.95 389.2 239.95 388.1 238.8 386.95 237.7 386.95 236.0 L386.95 214.25 Q384.6 216.55 381.3 216.55 378.1 216.55 375.55 214.4 L375.55 236.0 Q375.55 242.55 380.0 246.9 384.35 251.35 390.9 251.35 395.95 251.35 399.95 248.4 403.9 251.35 408.95 251.35 415.45 251.35 419.9 246.9 424.3 242.5 424.3 236.0 L424.3 214.3 Q421.9 216.55 418.65 216.55 415.4 216.55 412.95 214.35 M385.25 211.95 Q383.6 213.7 381.3 213.7 378.95 213.7 377.2 211.95 375.6 210.4 375.55 208.1 L375.55 208.0 Q375.6 205.6 377.2 203.9 378.95 202.25 381.3 202.25 383.6 202.25 385.25 203.9 387.0 205.65 387.0 208.0 L386.95 208.9 Q386.65 210.65 385.25 211.95" fill="none" stroke="#000000" stroke-linecap="round" stroke-linejoin="round" stroke-opacity="0.5019608" stroke-width="1.0"/>
  </g>
</svg>
