<?xml version="1.0" encoding="UTF-8" standalone="no"?>
<svg xmlns:xlink="http://www.w3.org/1999/xlink" height="39.65px" width="39.25px" xmlns="http://www.w3.org/2000/svg">
  <g transform="matrix(1.0, 0.0, 0.0, 1.0, -380.05, -202.85)">
    <path d="M417.0 235.3 Q414.7 238.8 410.55 240.7 406.35 242.5 399.85 242.5 L391.95 241.8 Q388.6 241.0 386.3 239.6 383.95 238.15 382.5 236.25 381.0 234.4 380.05 231.05 L394.1 229.85 Q394.6 232.7 396.15 233.85 397.65 235.05 399.75 235.05 402.15 235.05 403.7 233.55 405.2 232.05 405.2 228.9 405.2 225.75 403.65 224.3 402.1 222.85 399.5 222.85 397.85 222.85 396.25 223.5 395.05 224.05 393.35 225.6 L381.75 224.15 385.85 202.85 417.1 202.85 417.1 212.3 396.6 212.3 395.65 216.95 Q396.95 216.1 399.0 215.7 L403.25 215.25 Q410.4 215.25 414.8 218.9 419.3 222.5 419.3 228.0 419.3 231.8 417.0 235.3" fill="#000000" fill-rule="evenodd" stroke="none"/>
  </g>
</svg>
