<?xml version="1.0" encoding="UTF-8" standalone="no"?>
<svg xmlns:xlink="http://www.w3.org/1999/xlink" height="44.5px" width="50.7px" xmlns="http://www.w3.org/2000/svg">
  <g transform="matrix(1.0, 0.0, 0.0, 1.0, -374.5, -200.85)">
    <path d="M415.4 206.15 Q418.25 200.6 425.2 201.1 421.4 203.35 421.55 210.0 421.85 217.65 418.3 221.25 413.4 225.75 403.65 225.75 L403.65 240.4 Q403.55 243.85 410.35 245.35 L389.4 245.35 Q396.15 243.85 396.1 240.4 L396.1 225.75 Q386.35 225.75 381.4 221.25 377.9 217.65 378.15 210.0 378.35 203.35 374.5 201.1 381.45 200.6 384.35 206.15 385.75 209.1 385.65 212.8 385.7 215.55 386.55 218.25 388.3 223.6 396.1 223.35 L396.1 206.25 Q396.1 201.55 390.45 200.85 L409.3 200.85 Q403.65 201.55 403.65 206.25 L403.65 223.35 Q411.45 223.6 413.2 218.25 414.05 215.55 414.1 212.8 413.95 209.1 415.4 206.15" fill="#000000" fill-rule="evenodd" stroke="none"/>
  </g>
</svg>
