<?xml version="1.0" encoding="UTF-8" standalone="no"?>
<svg xmlns:xlink="http://www.w3.org/1999/xlink" height="225.15px" width="237.7px" xmlns="http://www.w3.org/2000/svg">
  <g transform="matrix(1.0, 0.0, 0.0, 1.0, -281.05, -340.0)">
    <path d="M341.6 340.5 L340.55 358.05 Q324.1 406.35 317.75 461.9 L337.1 463.0 Q343.7 416.7 359.4 374.85 361.05 358.9 362.0 343.05 M500.45 564.65 Q501.1 552.25 493.2 544.85 L474.25 520.55 474.25 511.35 462.7 463.0 Q456.1 416.7 440.4 374.85 438.7 358.9 437.8 343.05 M458.2 340.5 L459.25 358.05 Q475.7 406.35 482.05 461.9 L482.5 510.85 484.95 519.1 509.7 543.4 Q519.85 549.75 517.95 564.65 M303.25 496.9 Q300.95 478.4 304.85 457.85 M317.75 461.9 L317.6 461.9 317.3 510.85 314.85 519.1 290.1 543.4 Q279.95 549.75 281.85 564.65 M299.35 564.65 Q298.7 552.25 306.6 544.85 L325.55 520.55 325.55 511.35 337.1 463.0 M342.55 519.25 L336.6 533.1 314.2 564.65 M494.95 457.85 Q498.85 478.4 496.55 496.9 M418.7 397.75 L418.85 397.5 418.85 344.35 M456.1 501.1 Q450.75 469.3 435.75 437.45 M482.05 461.9 L462.7 463.0 M381.1 397.75 L380.95 397.5 380.95 344.35 M364.1 437.45 Q349.05 469.3 343.7 501.1 M485.6 564.65 L463.2 533.1 457.25 519.25" fill="none" stroke="#000000" stroke-linecap="round" stroke-linejoin="round" stroke-opacity="0.5019608" stroke-width="1.0"/>
    <path d="M517.95 564.65 L500.45 564.65 M304.85 457.85 L300.7 463.1 Q294.85 470.45 297.2 478.9 300.9 487.95 303.25 496.9 M281.85 564.65 L299.35 564.65 M314.2 564.65 L323.15 559.55 Q331.8 553.2 333.45 545.7 335.25 537.65 341.55 530.95 344.85 527.1 343.75 522.05 L342.55 519.25 M496.55 496.9 Q498.9 487.95 502.6 478.9 504.95 470.45 499.1 463.1 L494.95 457.85 M435.75 437.45 Q437.1 445.35 436.55 452.8 L433.25 466.7 Q430.45 481.5 442.2 488.8 453.2 495.6 456.1 501.1 M343.7 501.1 Q346.6 495.6 357.6 488.8 369.35 481.5 366.55 466.7 L363.25 452.8 Q362.7 445.35 364.1 437.45 M457.25 519.25 L456.05 522.05 Q454.95 527.1 458.25 530.95 464.55 537.65 466.35 545.7 468.0 553.2 476.65 559.55 L485.6 564.65 M380.95 398.1 L418.85 398.1" fill="none" stroke="#000000" stroke-linecap="round" stroke-linejoin="round" stroke-width="1.0"/>
  </g>
</svg>
