<?xml version="1.0" encoding="UTF-8" standalone="no"?>
<svg xmlns:xlink="http://www.w3.org/1999/xlink" height="222.6px" width="202.2px" xmlns="http://www.w3.org/2000/svg">
  <g transform="matrix(1.0, 0.0, 0.0, 1.0, -298.8, -342.55)">
    <path d="M299.35 564.65 Q298.7 552.25 306.6 544.85 L325.55 520.55 325.55 511.35 337.1 463.0 Q343.7 416.7 359.4 374.85 361.05 358.9 362.0 343.05 M418.7 397.75 Q426.9 384.25 440.4 374.85 438.7 358.9 437.8 343.05 M500.45 564.65 Q501.1 552.25 493.2 544.85 L474.25 520.55 474.25 511.35 462.7 463.0 456.6 454.55 M337.1 463.0 L343.2 454.55 M462.7 463.0 Q456.1 416.7 440.4 374.85 M381.1 397.75 Q372.9 384.25 359.4 374.85" fill="none" stroke="#000000" stroke-linecap="round" stroke-linejoin="round" stroke-opacity="0.5019608" stroke-width="1.0"/>
    <path d="M299.35 564.65 L314.2 564.65 323.15 559.55 Q331.8 553.2 333.45 545.7 335.25 537.65 341.55 530.95 344.85 527.1 343.75 522.05 L342.55 519.25 343.6 516.55 341.5 513.05 Q340.8 507.45 343.35 501.85 345.85 496.05 357.6 488.8 369.35 481.5 366.55 466.7 L363.25 452.8 Q362.15 437.7 368.9 420.75 375.65 403.75 380.95 398.1 L418.85 398.1 Q424.15 403.75 430.9 420.75 437.65 437.7 436.55 452.8 L433.25 466.7 Q430.45 481.5 442.2 488.8 453.95 496.05 456.45 501.85 459.0 507.45 458.3 513.05 L456.2 516.55 457.25 519.25 456.05 522.05 Q454.95 527.1 458.25 530.95 464.55 537.65 466.35 545.7 468.0 553.2 476.65 559.55 L485.6 564.65 500.45 564.65" fill="none" stroke="#000000" stroke-linecap="round" stroke-linejoin="round" stroke-width="1.0"/>
  </g>
</svg>
