<?xml version="1.0" encoding="UTF-8" standalone="no"?>
<svg xmlns:xlink="http://www.w3.org/1999/xlink" height="145.65px" width="206.7px" xmlns="http://www.w3.org/2000/svg">
  <g transform="matrix(1.0, 0.0, 0.0, 1.0, -296.55, -338.3)">
    <path d="M399.9 344.65 Q435.35 345.05 470.8 338.3 L470.8 347.95 478.2 370.05 Q485.7 391.5 489.15 409.4 491.9 427.95 491.6 438.7 491.3 449.35 490.75 452.5 L499.1 463.1 Q504.5 469.9 502.9 477.7 469.8 487.5 435.2 481.9 431.55 475.65 433.25 466.7 L436.55 452.8 Q437.65 437.7 430.9 420.75 424.15 403.75 418.85 398.1 L380.95 398.1 Q375.65 403.75 368.9 420.75 362.15 437.7 363.25 452.8 L366.55 466.7 Q368.25 475.65 364.65 481.85 334.6 486.75 305.7 480.0 L296.9 477.65 Q295.3 469.9 300.7 463.1 L309.05 452.5 Q308.5 449.35 308.2 438.7 307.9 427.95 310.65 409.4 314.1 391.5 321.6 370.05 L329.0 347.95 329.0 338.3 Q364.45 345.05 399.9 344.65" fill="#000000" fill-rule="evenodd" stroke="none"/>
  </g>
</svg>
