<?xml version="1.0" encoding="UTF-8" standalone="no"?>
<svg xmlns:xlink="http://www.w3.org/1999/xlink" height="169.4px" width="207.7px" xmlns="http://www.w3.org/2000/svg">
  <g transform="matrix(1.0, 0.0, 0.0, 1.0, -296.05, -337.8)">
    <path d="M329.0 338.3 L329.0 347.95 321.6 370.05 Q314.1 391.5 310.65 409.4 307.9 427.95 308.2 438.7 308.5 449.35 309.05 452.5 L300.7 463.1 Q294.85 470.45 297.2 478.9 302.2 491.15 304.75 503.15 M342.3 504.65 L343.35 501.85 Q345.85 496.05 357.6 488.8 369.35 481.5 366.55 466.7 L363.25 452.8 Q362.15 437.7 368.9 420.75 375.65 403.75 380.95 398.1 L418.85 398.1 Q424.15 403.75 430.9 420.75 437.65 437.7 436.55 452.8 L433.25 466.7 Q430.45 481.5 442.2 488.8 453.95 496.05 456.45 501.85 L457.55 504.7 M495.05 503.2 Q497.6 491.2 502.6 478.9 504.95 470.45 499.1 463.1 L490.75 452.5 Q491.3 449.35 491.6 438.7 491.9 427.95 489.15 409.4 485.7 391.5 478.2 370.05 L470.8 347.95 470.8 338.3" fill="none" stroke="#000000" stroke-linecap="round" stroke-linejoin="round" stroke-width="1.0"/>
    <path d="M304.75 503.15 L305.7 503.5 Q322.5 509.2 342.3 504.65 M457.55 504.7 Q477.9 509.3 495.05 503.2 M312.95 455.9 L317.6 461.9 337.1 463.0 343.2 454.55 M486.85 455.9 L482.2 461.9 462.7 463.0 456.6 454.55 M381.1 397.75 Q372.9 384.25 359.4 374.85 M418.7 397.75 Q426.9 384.25 440.4 374.85" fill="none" stroke="#000000" stroke-linecap="round" stroke-linejoin="round" stroke-opacity="0.5019608" stroke-width="1.0"/>
  </g>
</svg>
