<?xml version="1.0" encoding="UTF-8" standalone="no"?>
<svg xmlns:xlink="http://www.w3.org/1999/xlink" height="76.05px" width="175.5px" xmlns="http://www.w3.org/2000/svg">
  <g transform="matrix(1.0, 0.0, 0.0, 1.0, -312.15, -337.8)">
    <path d="M329.0 338.3 L329.0 347.95 321.6 370.05 Q316.0 386.05 312.65 400.1 M372.05 413.3 Q376.9 402.4 380.95 398.1 L418.85 398.1 Q422.9 402.4 427.8 413.35 M487.15 400.15 Q483.8 386.1 478.2 370.05 L470.8 347.95 470.8 338.3" fill="none" stroke="#000000" stroke-linecap="round" stroke-linejoin="round" stroke-width="1.0"/>
    <path d="M312.65 400.1 Q343.95 405.55 372.05 413.3 M427.8 413.35 Q455.9 405.55 487.15 400.15 M381.1 397.75 Q372.9 384.25 359.4 374.85 M418.7 397.75 Q426.9 384.25 440.4 374.85" fill="none" stroke="#000000" stroke-linecap="round" stroke-linejoin="round" stroke-opacity="0.5019608" stroke-width="1.0"/>
  </g>
</svg>
