<?xml version="1.0" encoding="UTF-8" standalone="no"?>
<svg xmlns:xlink="http://www.w3.org/1999/xlink" height="64.8px" width="167.55px" xmlns="http://www.w3.org/2000/svg">
  <g transform="matrix(1.0, 0.0, 0.0, 1.0, -316.15, -337.8)">
    <path d="M329.0 338.3 L329.0 347.95 321.6 370.05 Q318.85 377.95 316.65 385.35 M377.95 402.05 Q379.5 399.65 380.95 398.1 L418.85 398.1 421.9 402.1 M483.2 385.4 L478.2 370.05 470.8 347.95 470.8 338.3" fill="none" stroke="#000000" stroke-linecap="round" stroke-linejoin="round" stroke-width="1.0"/>
    <path d="M316.65 385.35 Q348.5 392.65 377.95 402.05 M421.9 402.1 Q451.35 392.65 483.2 385.4 M381.1 397.75 Q372.9 384.25 359.4 374.85 M418.7 397.75 Q426.9 384.25 440.4 374.85" fill="none" stroke="#000000" stroke-linecap="round" stroke-linejoin="round" stroke-opacity="0.5019608" stroke-width="1.0"/>
  </g>
</svg>
