<?xml version="1.0" encoding="UTF-8" standalone="no"?>
<svg xmlns:xlink="http://www.w3.org/1999/xlink" height="337.15px" width="478.3px" xmlns="http://www.w3.org/2000/svg">
  <g transform="matrix(1.0, 0.0, 0.0, 1.0, -48.05, -188.05)">
    <path d="M60.3 197.15 L63.0 193.2 M517.8 515.0 L517.85 515.0 517.95 515.1 M288.05 403.95 L285.45 407.7 M517.8 515.0 L517.45 514.8 515.05 518.5 M337.55 436.1 L334.95 439.85" fill="none" stroke="#000000" stroke-linecap="round" stroke-linejoin="round" stroke-opacity="0.5019608" stroke-width="1.0"/>
    <path d="M63.0 193.2 L58.25 189.8 Q51.85 186.7 48.55 191.2 53.05 192.65 60.3 197.15 M63.0 193.2 L80.95 205.9 517.45 514.7 517.8 515.0 M517.95 515.1 L518.05 515.15 518.1 515.15 518.55 515.4 Q522.35 517.5 525.2 519.5 526.45 522.45 525.25 524.7 521.0 521.85 516.8 519.5 L515.05 518.5 514.75 518.4 Q508.4 514.85 502.15 512.3 486.5 506.1 455.95 499.4 432.2 493.95 402.3 480.15 381.55 470.4 362.55 458.0 L361.2 457.25 336.65 441.05 334.95 439.85 334.55 440.3 285.05 408.2 285.45 407.7 282.2 405.65 Q251.95 386.25 222.95 368.4 209.75 360.6 197.75 352.25 170.85 333.6 138.45 282.1 L128.35 267.7 Q115.25 248.55 102.35 233.8 88.65 218.0 78.35 209.75 75.5 207.4 72.9 205.65 L67.45 201.8 65.9 200.75 60.3 197.15 M288.05 403.95 L284.85 402.0 Q254.1 382.25 224.35 363.8 L202.15 349.0 Q177.85 332.15 145.85 284.6 L121.5 250.5 Q96.75 217.9 80.95 205.9 M337.55 436.1 L338.0 435.5 Q313.05 419.15 288.5 403.4 L288.05 403.95 M517.95 515.1 L517.8 515.0 M517.45 514.7 L517.45 514.8 Q511.2 511.55 497.35 506.1 482.7 500.3 455.75 494.0 425.4 486.75 392.55 469.7 378.45 462.75 363.6 453.4 L339.25 437.25 337.55 436.1" fill="none" stroke="#000000" stroke-linecap="round" stroke-linejoin="round" stroke-width="1.0"/>
  </g>
</svg>
