<?xml version="1.0" encoding="UTF-8" standalone="no"?>
<svg xmlns:xlink="http://www.w3.org/1999/xlink" height="168.95px" width="94.0px" xmlns="http://www.w3.org/2000/svg">
  <g transform="matrix(1.0, 0.0, 0.0, 1.0, -306.3, -193.15)">
    <path d="M399.8 193.65 Q387.8 193.65 384.7 202.5 L383.35 215.1 382.85 218.9 M383.35 215.1 L349.4 229.75 329.4 233.85 Q319.45 245.35 320.2 266.2 M370.4 323.45 L372.05 318.7 370.85 305.1 365.9 292.65 Q355.95 287.5 349.7 280.65 343.7 292.25 333.75 303.75 337.4 313.2 337.9 320.8 L332.65 335.7 Q329.95 347.15 330.9 358.05 M318.15 361.6 Q308.2 333.0 306.8 315.8 310.2 309.3 314.0 302.75 L314.6 301.65 312.4 298.6 Q318.7 289.8 320.2 266.2" fill="none" stroke="#000000" stroke-linecap="round" stroke-linejoin="round" stroke-width="1.0"/>
    <path d="M396.4 236.8 Q396.55 238.8 399.8 240.3 L399.8 193.65 M394.25 231.8 L388.65 216.45 M320.2 266.2 Q336.15 262.55 346.7 255.2 350.0 261.7 355.2 267.6 L355.95 268.35 356.95 269.45 357.3 269.8 Q362.3 274.25 369.8 272.25 384.5 266.5 399.8 266.3 L399.8 240.3 M349.7 280.65 Q353.1 274.1 355.2 267.6 M396.0 280.5 Q387.0 282.1 380.05 287.8 M375.35 286.1 Q369.95 282.6 368.45 277.7 M392.25 235.55 L357.45 232.95 M382.6 308.7 L384.35 322.65 M385.95 306.3 L394.95 305.25 M314.6 301.65 Q316.1 299.1 317.95 296.75 326.3 301.95 329.4 308.5 L333.75 303.75 M399.8 266.3 L399.8 328.2 M378.55 291.05 L382.2 305.25" fill="none" stroke="#000000" stroke-linecap="round" stroke-linejoin="round" stroke-opacity="0.5019608" stroke-width="1.0"/>
  </g>
</svg>
