<?xml version="1.0" encoding="UTF-8" standalone="no"?>
<svg xmlns:xlink="http://www.w3.org/1999/xlink" height="133.25px" width="86.2px" xmlns="http://www.w3.org/2000/svg">
  <g transform="matrix(1.0, 0.0, 0.0, 1.0, -356.7, -193.15)">
    <path d="M407.35 235.55 L441.4 233.0 Q441.55 229.6 442.0 226.2 M405.35 231.8 L410.95 216.45 M441.4 233.0 Q440.7 244.45 442.4 256.65 434.1 262.85 429.8 272.25 L427.95 283.1 421.5 320.75 422.4 325.9 M424.25 286.1 Q426.4 284.7 427.95 283.1 M396.4 236.8 Q396.55 238.8 399.8 240.3 403.05 238.8 403.2 236.8 M394.25 231.8 L388.65 216.45 M377.2 325.9 L378.1 320.75 371.65 283.1 369.8 272.25 Q365.5 262.85 357.2 256.65 358.9 244.45 358.25 233.0 L357.6 226.2 M396.0 280.5 Q387.0 282.1 380.05 287.8 M371.65 283.1 Q373.2 284.7 375.35 286.1 M429.8 272.25 Q415.1 266.5 399.8 266.3 384.5 266.5 369.8 272.25 M358.25 233.0 L392.25 235.55 M399.8 266.3 L399.8 240.3 M382.6 308.7 L384.35 322.65 M385.95 306.3 L394.95 305.25 M417.0 308.7 L415.25 322.65 M378.55 291.05 L382.2 305.25 M399.8 282.5 L399.8 323.6 M421.05 291.05 L417.4 305.25 M413.65 306.3 L404.65 305.25 M403.6 280.5 Q412.6 282.1 419.55 287.8" fill="none" stroke="#000000" stroke-linecap="round" stroke-linejoin="round" stroke-opacity="0.5019608" stroke-width="1.0"/>
    <path d="M442.0 226.2 L416.25 215.1 416.75 218.9 M357.6 226.2 L383.35 215.1 384.7 202.5 Q387.8 193.65 399.8 193.65 411.8 193.65 414.9 202.5 L416.25 215.1 M383.35 215.1 L382.85 218.9" fill="none" stroke="#000000" stroke-linecap="round" stroke-linejoin="round" stroke-width="1.0"/>
  </g>
</svg>
