<?xml version="1.0" encoding="UTF-8" standalone="no"?>
<svg xmlns:xlink="http://www.w3.org/1999/xlink" height="132.85px" width="187.0px" xmlns="http://www.w3.org/2000/svg">
  <g transform="matrix(1.0, 0.0, 0.0, 1.0, -306.3, -229.25)">
    <path d="M449.9 280.65 Q446.5 274.1 444.4 267.6 L443.65 268.35 442.65 269.45 442.3 269.8 Q437.3 274.25 429.8 272.25 423.75 269.9 417.6 268.45 L417.6 268.5 416.6 279.75 Q422.45 281.45 427.05 283.95 430.1 281.2 431.15 277.7 M417.6 268.45 Q418.55 258.8 418.6 248.9 L418.5 241.8 450.2 229.75 M436.3 291.25 Q432.6 287.0 427.05 283.95 M479.4 266.2 Q463.45 262.55 452.9 255.2 449.6 261.7 444.4 267.6 M349.4 229.75 L381.1 241.8 381.0 248.9 Q381.05 258.75 382.0 268.45 L382.0 268.5 383.0 279.75 Q377.15 281.45 372.55 283.95 367.0 287.0 363.3 291.25 M320.2 266.2 Q336.15 262.55 346.7 255.2 350.0 261.7 355.2 267.6 L355.95 268.35 356.95 269.45 357.3 269.8 Q362.3 274.25 369.8 272.25 375.85 269.9 382.0 268.45 M355.2 267.6 Q353.1 274.1 349.7 280.65 M372.55 283.95 Q369.5 281.2 368.45 277.7 M333.75 303.75 L329.4 308.5 Q326.3 301.95 317.95 296.75 316.1 299.1 314.6 301.65 M485.0 301.65 L481.65 296.75 Q473.3 301.95 470.2 308.5 L465.85 303.75" fill="none" stroke="#000000" stroke-linecap="round" stroke-linejoin="round" stroke-opacity="0.5019608" stroke-width="1.0"/>
    <path d="M450.2 229.75 L470.2 233.85 Q480.15 245.35 479.4 266.2 480.9 289.8 487.2 298.6 L485.0 301.65 485.6 302.75 Q489.4 309.3 492.8 315.8 491.4 333.0 481.45 361.6 M468.7 358.05 Q469.65 347.15 466.95 335.7 L461.7 320.8 Q462.2 313.2 465.85 303.75 455.9 292.25 449.9 280.65 444.5 286.6 436.3 291.25 M318.15 361.6 Q308.2 333.0 306.8 315.8 310.2 309.3 314.0 302.75 L314.6 301.65 312.4 298.6 Q318.7 289.8 320.2 266.2 319.45 245.35 329.4 233.85 L349.4 229.75 M363.3 291.25 Q355.1 286.6 349.7 280.65 343.7 292.25 333.75 303.75 337.4 313.2 337.9 320.8 L332.65 335.7 Q329.95 347.15 330.9 358.05" fill="none" stroke="#000000" stroke-linecap="round" stroke-linejoin="round" stroke-width="1.0"/>
  </g>
</svg>
