<?xml version="1.0" encoding="UTF-8" standalone="no"?>
<svg xmlns:xlink="http://www.w3.org/1999/xlink" height="55.9px" width="107.2px" xmlns="http://www.w3.org/2000/svg">
  <g transform="matrix(1.0, 0.0, 0.0, 1.0, -346.2, -227.6)">
    <path d="M447.8 228.7 L447.8 228.75 Q449.3 239.75 444.65 251.65 440.15 263.15 442.0 270.15 L442.05 270.25 Q443.05 274.3 445.05 278.3 446.2 280.65 447.7 283.0 M450.0 280.65 L450.0 280.6 Q446.6 274.1 444.55 267.7 L444.5 267.55 Q443.0 263.05 447.8 252.9 451.35 245.5 451.1 236.9 451.0 233.45 450.35 229.8 L450.3 229.75 M452.9 255.2 Q449.6 261.65 444.5 267.55 M349.4 229.75 Q348.7 233.35 348.6 236.75 348.35 245.35 351.9 252.8 356.8 263.15 355.2 267.6 353.1 274.1 349.7 280.65 M352.0 283.0 L354.65 278.3 Q356.65 274.2 357.7 270.15 359.6 263.15 355.05 251.55 350.4 239.65 351.9 228.7 L351.9 228.65 M346.7 255.2 Q350.0 261.7 355.2 267.6" fill="none" stroke="#000000" stroke-linecap="round" stroke-linejoin="round" stroke-opacity="0.5019608" stroke-width="1.0"/>
    <path d="M450.3 229.75 Q449.7 227.2 447.8 228.65 L447.8 228.7 M447.7 283.0 Q450.15 283.1 450.0 280.65 M351.9 228.65 Q350.0 227.2 349.4 229.75 M349.7 280.65 Q349.55 283.1 352.0 283.0" fill="none" stroke="#000000" stroke-linecap="round" stroke-linejoin="round" stroke-width="1.0"/>
  </g>
</svg>
