<?xml version="1.0" encoding="UTF-8" standalone="no"?>
<svg xmlns:xlink="http://www.w3.org/1999/xlink" height="134.55px" width="160.1px" xmlns="http://www.w3.org/2000/svg">
  <g transform="matrix(1.0, 0.0, 0.0, 1.0, -319.75, -193.65)">
    <path d="M450.2 229.75 L470.2 233.85 Q480.15 245.35 479.4 266.2 L479.85 271.85 Q462.9 274.95 449.9 280.65 443.65 287.5 433.7 292.65 L428.75 305.1 427.55 318.7 429.25 323.45 Q419.1 328.3 399.8 328.2 380.5 328.3 370.4 323.45 L372.05 318.7 370.85 305.1 365.9 292.65 Q355.95 287.5 349.7 280.65 336.7 274.95 319.75 271.85 L320.2 266.2 Q319.45 245.35 329.4 233.85 L349.4 229.75 383.35 215.1 384.7 202.5 Q387.8 193.65 399.8 193.65 411.8 193.65 414.9 202.5 L416.25 215.1 450.2 229.75" fill="#000000" fill-rule="evenodd" stroke="none"/>
  </g>
</svg>
