<?xml version="1.0" encoding="UTF-8" standalone="no"?>
<svg xmlns:xlink="http://www.w3.org/1999/xlink" height="135.55px" width="22.8px" xmlns="http://www.w3.org/2000/svg">
  <g transform="matrix(1.0, 0.0, 0.0, 1.0, -388.45, -193.15)">
    <path d="M399.85 193.65 L399.8 240.9 410.75 240.9 410.75 246.8 399.8 246.8 399.8 258.8 410.75 258.8 410.75 264.7 399.8 264.7 399.8 277.8 410.75 277.8 410.75 283.7 399.8 283.7 399.8 295.75 410.75 295.75 410.75 301.65 399.8 301.65 399.8 312.25 410.75 312.25 410.75 318.15 399.8 318.15 399.8 328.2 M399.8 246.8 L388.95 246.8 388.95 240.9 399.8 240.9 M399.8 264.7 L388.95 264.7 388.95 258.8 399.8 258.8 M399.8 283.7 L388.95 283.7 388.95 277.8 399.8 277.8 M399.8 295.75 L388.95 295.75 388.95 301.65 399.8 301.65 M399.8 312.25 L388.95 312.25 388.95 318.15 399.8 318.15" fill="none" stroke="#000000" stroke-linecap="round" stroke-linejoin="round" stroke-opacity="0.5019608" stroke-width="1.0"/>
  </g>
</svg>
