<?xml version="1.0" encoding="UTF-8" standalone="no"?>
<svg xmlns:xlink="http://www.w3.org/1999/xlink" height="131.85px" width="175.9px" xmlns="http://www.w3.org/2000/svg">
  <g transform="matrix(1.0, 0.0, 0.0, 1.0, -311.85, -229.75)">
    <path d="M470.2 233.85 L473.1 264.55 481.65 296.75 487.75 315.45 Q485.05 339.15 479.2 361.45 L479.2 361.6 Q475.75 361.3 472.2 359.85 477.9 338.1 479.65 315.55 L475.05 301.85 Q468.6 281.65 464.25 261.4 461.65 246.4 461.8 232.15 L470.2 233.85 M452.55 239.35 Q451.7 237.35 450.3 236.0 L450.2 229.75 452.35 230.2 452.55 239.35 M355.2 267.6 Q353.1 274.1 349.7 280.65 343.7 292.25 333.75 303.75 337.4 313.2 337.9 320.8 L332.65 335.7 Q331.7 339.8 331.2 343.8 328.65 326.15 329.4 308.5 342.85 281.85 346.7 255.2 350.0 261.7 355.2 267.6 M329.4 233.85 L337.8 232.15 Q337.95 246.35 335.35 261.4 331.0 281.65 324.55 301.85 L319.95 315.55 Q321.75 338.1 327.4 359.85 323.85 361.3 320.45 361.6 L320.4 361.45 Q314.55 339.15 311.85 315.45 L317.95 296.75 326.5 264.55 329.4 233.85 M347.25 230.2 L349.4 229.75 349.3 236.0 Q347.9 237.35 347.05 239.3 L347.25 230.2 M444.4 267.6 Q449.6 261.7 452.9 255.2 456.75 281.85 470.2 308.5 470.95 326.15 468.4 343.8 L466.95 335.7 461.7 320.8 Q462.2 313.2 465.85 303.75 455.9 292.25 449.9 280.65 446.5 274.1 444.4 267.6" fill="#000000" fill-rule="evenodd" stroke="none"/>
  </g>
</svg>
