<?xml version="1.0" encoding="UTF-8" standalone="no"?>
<svg xmlns:xlink="http://www.w3.org/1999/xlink" height="131.85px" width="186.0px" xmlns="http://www.w3.org/2000/svg">
  <g transform="matrix(1.0, 0.0, 0.0, 1.0, -306.8, -229.75)">
    <path d="M470.2 233.85 Q480.15 245.35 479.4 266.2 480.9 289.8 487.2 298.6 L485.0 301.65 485.6 302.75 Q489.4 309.3 492.8 315.8 491.4 333.0 481.45 361.6 475.3 361.9 468.7 358.05 469.65 347.15 466.95 335.7 L461.7 320.8 Q462.2 313.2 465.85 303.75 455.9 292.25 449.9 280.65 444.5 286.6 436.3 291.25 432.6 287.0 427.05 283.95 422.45 281.45 416.6 279.75 L417.6 268.5 417.6 268.45 Q418.55 258.8 418.6 248.9 L418.5 241.8 450.2 229.75 470.2 233.85 M349.4 229.75 L381.1 241.8 381.0 248.9 Q381.05 258.75 382.0 268.45 L382.0 268.5 383.0 279.75 Q377.15 281.45 372.55 283.95 367.0 287.0 363.3 291.25 355.1 286.6 349.7 280.65 343.7 292.25 333.75 303.75 337.4 313.2 337.9 320.8 L332.65 335.7 Q329.95 347.15 330.9 358.05 324.3 361.9 318.15 361.6 308.2 333.0 306.8 315.8 310.2 309.3 314.0 302.75 L314.6 301.65 312.4 298.6 Q318.7 289.8 320.2 266.2 319.45 245.35 329.4 233.85 L349.4 229.75" fill="#000000" fill-rule="evenodd" stroke="none"/>
  </g>
</svg>
