<?xml version="1.0" encoding="UTF-8" standalone="no"?>
<svg xmlns:xlink="http://www.w3.org/1999/xlink" height="95.85px" width="233.7px" xmlns="http://www.w3.org/2000/svg">
  <g transform="matrix(1.0, 0.0, 0.0, 1.0, -283.05, -443.55)">
    <path d="M313.35 443.65 Q316.85 444.1 316.85 445.5 316.85 446.95 314.1 446.95 312.55 446.95 310.95 445.95 L309.75 444.95 Q309.75 443.25 313.35 443.65 M314.45 453.75 Q311.8 455.15 308.7 455.15 L307.05 455.1 309.05 452.5 Q308.8 451.15 308.65 448.35 L310.1 448.55 Q312.55 449.0 314.75 450.0 316.85 451.0 316.85 451.7 316.85 452.55 314.45 453.75 M323.65 450.5 Q326.6 451.3 326.6 452.05 326.6 452.45 325.65 453.05 324.5 453.75 323.15 453.75 321.55 453.75 320.9 452.6 L320.6 451.55 Q320.6 449.7 323.65 450.5 M313.05 469.8 Q313.05 471.15 311.55 472.4 308.95 474.5 303.1 474.5 299.6 474.5 298.85 473.65 L298.85 472.7 Q298.85 469.1 305.95 468.25 308.7 467.9 310.85 468.3 313.05 468.8 313.05 469.8 M323.0 462.2 Q323.35 461.25 325.45 460.9 L328.4 461.05 330.0 461.1 Q333.95 461.3 334.6 462.35 335.5 462.55 335.95 462.95 336.5 463.35 336.5 463.8 336.5 464.35 335.3 465.0 333.75 465.85 331.5 465.85 326.75 465.85 324.4 464.5 322.9 463.6 322.9 462.6 L323.0 462.2 M317.3 461.55 Q316.2 463.45 308.5 463.45 L302.35 462.85 Q301.65 462.6 301.6 461.95 L303.8 459.2 Q306.05 457.6 309.05 457.6 312.7 457.6 315.75 459.5 L317.3 461.55 M303.3 486.55 Q308.5 487.4 308.5 489.6 308.5 490.3 307.25 490.95 305.55 491.85 302.15 491.85 L301.8 491.85 300.05 486.5 Q301.3 486.2 303.3 486.55 M303.0 480.6 L303.6 480.1 304.05 479.6 Q304.05 478.6 306.9 479.1 309.65 479.7 309.65 480.65 309.65 481.2 308.3 481.7 L306.15 482.1 Q304.5 482.1 303.6 481.35 L303.0 480.6 M322.3 481.9 Q330.75 482.4 330.75 486.8 330.75 488.35 330.55 488.6 329.7 489.85 326.2 490.0 L326.0 490.35 Q325.05 491.85 323.15 491.85 320.5 491.85 317.6 489.75 L315.15 487.6 Q315.15 486.6 317.1 485.85 316.65 485.55 316.05 485.35 313.9 484.45 313.9 483.9 313.9 482.95 316.55 482.3 L322.3 481.9 M314.85 500.1 Q313.35 501.0 311.6 501.0 309.8 501.0 308.05 499.85 306.6 498.95 306.6 498.7 306.6 497.3 311.35 497.55 316.05 497.85 316.05 498.8 316.05 499.35 314.85 500.1 M320.15 498.7 Q320.15 494.75 327.9 495.1 330.95 495.2 333.2 496.1 335.55 497.0 335.55 498.25 335.55 499.25 334.55 500.0 332.55 501.35 327.5 501.35 322.4 501.35 320.8 500.05 L320.15 498.7 M310.5 504.7 Q313.6 504.95 316.05 505.85 318.65 506.8 318.65 507.75 318.65 508.6 317.3 509.5 315.3 510.85 311.05 510.85 L306.1 510.4 305.15 505.0 310.5 504.7 M312.1 513.45 Q312.1 511.85 315.15 512.3 318.05 512.7 318.05 513.6 318.05 513.95 316.75 514.45 L314.75 514.9 Q312.75 514.9 312.3 514.15 L312.1 513.45 M320.45 517.2 Q324.7 517.1 324.7 519.6 324.7 521.1 319.2 521.1 316.85 521.1 316.25 520.45 316.05 520.3 316.05 519.65 316.05 517.35 320.45 517.2 M302.55 516.6 L304.8 516.75 Q310.95 517.5 310.95 520.2 310.95 520.75 308.4 521.85 L307.5 522.25 Q305.15 523.2 302.9 523.2 299.95 523.2 299.25 522.15 L302.55 519.35 302.55 516.6 M297.7 527.7 Q297.7 528.15 295.45 529.5 293.0 530.9 291.25 530.9 L289.25 530.65 294.7 526.0 Q297.7 526.5 297.7 527.7 M290.5 535.25 Q290.5 535.7 288.15 536.75 L284.95 537.8 Q283.4 537.8 283.05 537.15 L283.05 536.5 Q283.05 535.45 286.8 534.75 L287.15 534.7 Q290.2 534.2 290.5 535.1 L290.5 535.25 M297.15 533.3 Q296.5 532.8 296.5 532.2 296.5 529.25 303.95 529.0 L309.05 529.4 Q311.45 529.95 311.45 530.75 311.45 531.1 301.1 534.2 298.3 534.2 297.15 533.3 M315.15 525.35 Q315.15 524.85 315.5 524.5 L321.75 524.35 Q328.4 525.7 328.4 526.4 328.4 526.95 326.1 527.95 323.35 529.15 320.45 529.15 317.8 529.15 316.25 527.25 L315.35 525.7 315.15 525.35 M304.5 525.0 Q304.5 524.3 306.25 524.3 307.85 524.3 307.85 525.0 L307.8 525.25 Q307.55 525.65 306.25 525.65 L304.7 525.35 304.5 525.0 M313.5 532.6 L313.6 532.6 Q313.25 532.0 315.6 532.05 319.1 532.1 319.1 533.0 319.1 533.55 317.95 534.0 316.55 534.6 314.55 534.6 L314.25 534.6 314.1 534.6 311.8 534.3 Q310.85 534.05 310.85 533.75 310.85 533.05 313.5 532.6 M321.3 538.15 Q321.3 538.6 320.8 538.9 L319.2 539.4 317.6 539.25 317.5 538.4 Q317.5 537.55 319.4 537.45 321.3 537.3 321.3 538.15 M487.7 513.45 L487.5 514.15 Q487.05 514.9 485.05 514.9 L483.05 514.45 Q481.75 513.95 481.75 513.6 481.75 512.7 484.65 512.3 487.7 511.85 487.7 513.45 M489.3 504.7 L494.7 505.0 Q494.15 507.7 493.75 510.4 L488.75 510.85 Q484.5 510.85 482.5 509.5 481.15 508.6 481.15 507.75 481.15 506.8 483.75 505.85 486.2 504.95 489.3 504.7 M488.45 497.55 Q493.2 497.3 493.2 498.7 L491.75 499.85 Q490.0 501.0 488.2 501.0 486.45 501.0 484.95 500.1 483.75 499.35 483.75 498.8 483.75 497.85 488.45 497.55 M492.55 490.95 Q491.3 490.3 491.3 489.6 491.3 487.4 496.5 486.55 498.5 486.2 499.75 486.5 L498.0 491.85 497.65 491.85 Q494.25 491.85 492.55 490.95 M496.8 480.6 L496.2 481.35 Q495.3 482.1 493.65 482.1 L491.5 481.7 Q490.15 481.2 490.15 480.65 490.15 479.7 492.9 479.1 495.75 478.6 495.75 479.6 L496.2 480.1 Q496.8 480.35 496.8 480.6 M498.2 461.95 Q498.15 462.6 497.45 462.85 L491.3 463.45 Q483.6 463.45 482.5 461.55 L482.3 460.8 484.1 459.5 Q487.1 457.6 490.75 457.6 493.75 457.6 496.05 459.2 L498.2 461.95 M488.95 468.3 Q491.1 467.9 493.85 468.25 500.95 469.1 500.95 472.7 L500.95 473.65 Q500.2 474.5 496.7 474.5 490.85 474.5 488.25 472.4 486.75 471.15 486.75 469.8 486.75 468.8 488.95 468.3 M491.2 448.35 L490.75 452.5 492.8 455.1 491.1 455.15 Q488.0 455.15 485.35 453.75 482.95 452.55 482.95 451.7 482.95 451.0 485.05 450.0 487.25 449.0 489.7 448.55 L491.2 448.35 M486.45 443.65 Q490.05 443.25 490.05 444.95 L488.85 445.95 Q487.25 446.95 485.7 446.95 482.95 446.95 482.95 445.5 482.95 444.1 486.45 443.65 M497.25 519.35 L500.55 522.15 Q499.85 523.2 496.9 523.2 494.65 523.2 492.3 522.25 L491.4 521.85 Q488.85 520.75 488.85 520.2 488.85 517.5 495.0 516.75 L497.25 516.6 497.25 519.35 M477.5 481.9 L483.25 482.3 Q485.9 482.95 485.9 483.9 485.9 484.45 483.75 485.35 L482.7 485.85 Q484.65 486.6 484.65 487.6 L482.2 489.75 Q479.3 491.85 476.65 491.85 474.75 491.85 473.8 490.35 L473.6 490.0 Q470.1 489.85 469.25 488.6 469.05 488.35 469.05 486.8 469.05 482.4 477.5 481.9 M460.55 494.0 L461.85 494.1 Q464.3 493.8 464.3 494.6 L463.65 495.15 Q462.6 495.85 460.9 495.85 L459.7 495.65 459.1 495.2 Q458.45 495.05 458.45 494.65 458.45 494.0 460.55 494.0 M455.35 484.85 Q453.15 483.85 453.15 483.3 453.15 480.7 459.6 480.6 466.05 480.5 466.05 482.55 L465.1 484.2 Q463.4 485.95 459.6 485.95 457.6 485.95 455.35 484.85 M451.75 476.0 Q451.15 476.6 449.2 476.6 L446.7 476.05 Q445.4 475.5 445.4 475.15 445.4 474.3 448.6 474.15 451.85 474.1 451.85 475.4 L451.75 476.0 M465.55 475.1 Q464.05 473.8 464.05 473.1 464.05 472.6 466.05 471.95 468.0 471.25 470.3 471.1 476.65 470.6 476.65 474.3 476.65 475.05 475.7 475.65 474.0 476.65 469.9 476.65 467.55 476.65 465.55 475.1 M448.8 469.25 Q448.05 468.8 448.05 468.3 448.05 466.85 451.9 466.7 455.8 466.6 455.8 468.25 L455.35 468.95 Q454.3 469.8 451.9 469.8 L448.8 469.25 M475.4 464.5 Q473.05 465.85 468.3 465.85 466.05 465.85 464.5 465.0 463.3 464.35 463.3 463.8 463.3 463.35 463.85 462.95 L463.9 462.95 Q464.3 462.55 465.2 462.35 465.85 461.3 469.8 461.1 L471.4 461.05 474.35 460.9 Q476.45 461.25 476.85 462.2 L476.9 462.6 Q476.9 463.6 475.4 464.5 M467.9 456.35 Q469.9 456.65 469.9 457.2 L469.8 457.4 Q470.2 457.55 470.2 457.85 L469.6 458.65 Q468.75 459.4 467.35 459.4 L465.2 458.85 Q463.95 458.3 463.75 458.0 L463.75 457.95 462.9 457.75 Q462.35 457.55 462.35 457.3 462.35 456.65 465.2 456.15 L467.9 456.35 M476.15 450.5 Q479.2 449.7 479.2 451.55 L478.9 452.6 Q478.25 453.75 476.65 453.75 475.3 453.75 474.15 453.05 473.2 452.45 473.2 452.05 473.2 451.3 476.15 450.5 M442.15 488.75 L442.65 488.0 Q443.8 487.2 446.15 487.2 452.0 486.8 453.7 487.1 456.3 487.5 456.3 490.75 L455.45 493.0 Q454.1 494.8 450.95 495.05 447.5 492.1 442.2 488.8 L442.15 488.75 M435.65 475.55 Q438.6 475.8 440.65 476.9 442.95 478.05 442.95 479.65 L441.5 482.85 Q439.95 485.4 438.4 485.9 433.9 481.6 433.0 475.55 L435.65 475.55 M441.8 462.85 Q441.8 462.35 444.15 462.1 446.6 461.85 446.6 462.65 L446.15 463.1 443.9 463.55 Q441.8 463.55 441.8 462.85 M440.45 468.4 L439.5 469.8 Q438.0 471.1 434.4 471.1 L432.75 471.0 Q432.85 468.95 433.25 466.7 L433.5 465.75 434.05 465.7 Q440.45 465.2 440.45 468.4 M512.75 534.7 L513.0 534.75 Q516.75 535.45 516.75 536.5 L516.75 537.15 Q516.4 537.8 514.85 537.8 514.0 537.8 511.65 536.75 509.3 535.7 509.3 535.25 L509.35 535.1 Q509.6 534.2 512.75 534.7 M486.3 532.6 Q488.95 533.05 488.95 533.75 L488.0 534.3 485.7 534.6 485.55 534.6 485.25 534.6 Q483.25 534.6 481.85 534.0 480.7 533.55 480.7 533.0 480.7 532.1 484.2 532.05 486.55 532.0 486.2 532.6 L486.3 532.6 M488.35 530.75 Q488.35 529.95 490.75 529.4 L495.85 529.0 Q503.3 529.25 503.3 532.2 503.3 532.8 502.65 533.3 501.5 534.2 498.7 534.2 488.35 531.1 488.35 530.75 M495.1 525.35 L493.55 525.65 Q492.25 525.65 492.0 525.2 L491.95 525.0 Q491.95 524.3 493.55 524.3 495.3 524.3 495.3 525.0 L495.1 525.35 M504.35 529.5 Q502.1 528.15 502.1 527.7 502.1 526.5 505.1 526.0 L510.55 530.65 508.55 530.9 Q506.8 530.9 504.35 529.5 M353.2 462.65 Q353.2 461.85 355.65 462.1 358.0 462.35 358.0 462.85 358.0 463.55 355.9 463.55 354.4 463.55 353.65 463.1 L353.2 462.65 M351.75 468.3 Q351.75 468.8 351.0 469.25 349.85 469.8 347.9 469.8 345.5 469.8 344.45 468.95 L344.0 468.25 Q344.0 466.6 347.9 466.7 351.75 466.85 351.75 468.3 M360.3 469.8 L359.35 468.4 Q359.35 465.2 365.75 465.7 L366.35 465.75 366.55 466.7 367.1 471.0 365.4 471.1 Q361.8 471.1 360.3 469.8 M337.45 457.3 L336.9 457.75 336.05 457.95 336.05 458.0 334.6 458.85 332.45 459.4 Q331.05 459.4 330.2 458.65 L329.6 457.85 Q329.6 457.55 330.0 457.4 L329.9 457.2 Q329.9 456.65 331.9 456.35 L334.6 456.15 Q337.45 456.65 337.45 457.3 M334.25 475.1 Q332.25 476.65 329.9 476.65 325.8 476.65 324.1 475.65 323.15 475.05 323.15 474.3 323.15 470.6 329.5 471.1 331.8 471.25 333.75 471.95 335.75 472.6 335.75 473.1 335.75 473.8 334.25 475.1 M334.7 484.2 L333.75 482.55 Q333.75 480.5 340.2 480.6 346.65 480.7 346.65 483.3 346.65 483.85 344.45 484.85 342.2 485.95 340.2 485.95 336.4 485.95 334.7 484.2 M337.95 494.1 L339.25 494.0 Q341.35 494.0 341.35 494.65 341.35 495.05 340.7 495.2 L340.1 495.65 338.9 495.85 Q337.2 495.85 336.15 495.15 L335.5 494.6 Q335.5 493.8 337.95 494.1 M359.15 476.9 Q361.2 475.8 364.15 475.55 L366.85 475.55 Q365.9 481.6 361.4 485.9 359.85 485.4 358.3 482.85 L356.85 479.65 Q356.85 478.05 359.15 476.9 M350.6 476.6 Q348.65 476.6 348.05 476.0 L347.95 475.4 Q347.95 474.1 351.2 474.15 354.4 474.3 354.4 475.15 354.4 475.5 353.1 476.05 L350.6 476.6 M346.1 487.1 Q347.8 486.8 353.65 487.2 356.0 487.2 357.15 488.0 357.6 488.35 357.7 488.75 L357.6 488.8 Q352.3 492.1 348.9 495.05 345.7 494.8 344.35 493.0 L343.5 490.75 Q343.5 487.5 346.1 487.1 M326.5 506.95 L326.5 506.6 328.3 505.3 330.1 504.25 Q331.3 504.15 333.75 504.9 336.05 505.55 336.05 505.85 336.05 506.4 333.5 506.85 L328.45 507.25 326.5 506.95 M333.5 513.4 Q339.0 512.75 339.0 515.65 339.0 516.45 337.85 517.45 336.25 518.75 333.75 518.75 330.35 518.75 328.85 517.4 L328.0 515.9 Q328.0 514.05 333.5 513.4 M478.5 538.15 Q478.5 537.3 480.4 537.45 482.3 537.55 482.3 538.4 L482.2 539.25 480.6 539.4 479.0 538.9 Q478.5 538.6 478.5 538.15 M484.3 524.5 Q484.65 524.85 484.65 525.35 L484.5 525.7 483.55 527.25 Q482.0 529.15 479.35 529.15 476.45 529.15 473.7 527.95 471.4 526.95 471.4 526.4 471.4 525.7 478.05 524.35 L484.3 524.5 M455.8 525.2 Q456.2 524.75 456.75 524.35 459.0 522.7 462.05 522.15 L467.35 522.45 Q469.7 523.55 469.7 526.3 469.7 527.05 469.05 527.7 L467.65 529.35 Q467.35 529.65 468.0 531.1 467.9 532.45 464.05 532.45 461.2 532.45 458.4 531.1 L458.25 530.95 Q456.0 528.35 455.8 525.2 M479.35 517.2 Q483.75 517.35 483.75 519.65 483.75 520.3 483.55 520.45 482.95 521.1 480.6 521.1 475.1 521.1 475.1 519.6 475.1 517.1 479.35 517.2 M466.3 513.4 Q471.8 514.05 471.8 515.9 L470.95 517.4 Q469.45 518.75 466.05 518.75 463.55 518.75 461.95 517.45 460.8 516.45 460.8 515.65 460.8 512.75 466.3 513.4 M466.05 504.9 Q468.5 504.15 469.7 504.25 L471.5 505.3 473.3 506.6 473.3 506.95 471.35 507.25 466.3 506.85 Q463.75 506.4 463.75 505.85 463.75 505.55 466.05 504.9 M479.65 498.7 L479.0 500.05 Q477.4 501.35 472.3 501.35 467.25 501.35 465.25 500.0 464.25 499.25 464.25 498.25 464.25 497.0 466.6 496.1 468.85 495.2 471.9 495.1 479.65 494.75 479.65 498.7 M343.05 524.35 L344.0 525.2 Q343.8 528.35 341.55 530.95 L341.45 531.1 341.4 531.1 Q338.6 532.45 335.75 532.45 331.9 532.45 331.8 531.1 332.45 529.65 332.15 529.35 L330.75 527.7 Q330.1 527.05 330.1 526.3 330.1 523.55 332.45 522.45 L337.75 522.15 Q340.8 522.7 343.05 524.35" fill="#000000" fill-rule="evenodd" stroke="none"/>
  </g>
</svg>
