<?xml version="1.0" encoding="UTF-8" standalone="no"?>
<svg xmlns:xlink="http://www.w3.org/1999/xlink" height="219.6px" width="192.1px" xmlns="http://www.w3.org/2000/svg">
  <g transform="matrix(1.0, 0.0, 0.0, 1.0, -303.8, -333.75)">
    <path d="M325.95 341.05 Q324.6 337.4 325.95 333.75 330.4 336.6 339.05 338.05 L336.15 333.8 344.2 335.85 Q358.45 339.1 399.8 341.3 441.25 339.1 455.5 335.85 L463.55 333.8 460.65 338.05 Q469.3 336.6 473.75 333.75 475.1 337.4 473.75 341.05 477.6 349.6 487.2 373.5 490.25 381.0 492.25 388.45 L493.9 394.1 Q499.15 409.35 490.75 423.35 L476.15 445.35 Q467.45 461.9 470.3 470.65 476.65 476.6 474.1 483.8 474.9 488.7 468.55 492.6 463.9 513.25 470.15 521.8 477.8 526.05 474.75 530.3 476.1 532.95 469.7 535.45 468.8 539.6 471.95 543.35 478.5 547.15 482.1 551.8 459.85 546.5 442.0 553.35 444.35 548.95 451.2 544.05 452.25 540.1 448.7 536.1 446.75 534.5 445.9 532.8 443.55 528.3 448.35 523.2 449.7 520.2 450.25 517.2 436.6 515.7 425.05 520.15 427.05 516.35 432.95 512.2 433.8 508.8 430.8 505.4 424.85 500.45 430.55 494.4 435.9 481.7 427.4 470.05 420.7 466.3 421.0 460.7 418.3 455.55 424.7 450.75 429.0 442.9 423.5 428.95 L423.5 428.5 Q419.7 415.65 423.5 401.55 L425.75 397.8 408.9 401.4 390.8 401.4 373.95 397.8 376.2 401.55 Q380.0 415.65 376.2 428.5 L376.2 428.95 Q370.7 442.9 375.0 450.75 381.4 455.55 378.7 460.7 379.0 466.3 372.3 470.05 363.8 481.7 369.15 494.4 374.85 500.45 368.9 505.4 365.9 508.8 366.75 512.2 372.65 516.35 374.65 520.15 363.1 515.7 349.45 517.2 350.0 520.2 351.35 523.2 356.15 528.3 353.8 532.8 352.95 534.5 351.0 536.1 347.45 540.1 348.5 544.05 355.35 548.95 357.7 553.35 339.85 546.5 317.6 551.8 321.2 547.15 327.75 543.35 330.9 539.6 330.0 535.45 323.6 532.95 324.95 530.3 321.9 526.05 329.55 521.8 335.8 513.25 331.15 492.6 324.8 488.7 325.6 483.8 323.05 476.6 329.4 470.65 332.25 461.9 323.55 445.35 L308.95 423.35 Q300.55 409.35 305.8 394.1 L307.45 388.45 Q309.45 381.0 312.5 373.5 322.1 349.6 325.95 341.05 M349.95 504.45 Q348.85 508.05 348.85 511.75 L349.05 511.6 Q351.75 508.4 351.0 504.9 L349.95 504.45 M450.65 511.6 L450.85 511.75 Q450.85 508.05 449.75 504.45 L448.7 504.9 Q447.95 508.4 450.65 511.6" fill="#000000" fill-rule="evenodd" stroke="none"/>
  </g>
</svg>
