<?xml version="1.0" encoding="UTF-8" standalone="no"?>
<svg xmlns:xlink="http://www.w3.org/1999/xlink" height="22.95px" width="61.4px" xmlns="http://www.w3.org/2000/svg">
  <g transform="matrix(1.0, 0.0, 0.0, 1.0, -260.05, -548.15)">
    <path d="M278.35 552.85 Q278.75 557.15 275.15 559.0 L272.15 559.95 270.55 559.9 268.35 560.2 Q263.95 561.05 260.05 564.85 260.0 553.7 265.95 549.85 267.5 548.85 269.55 548.35 L270.3 548.15 Q273.05 548.45 274.95 549.45 277.35 550.6 278.35 552.85 M282.6 558.35 Q283.25 552.65 288.6 550.3 294.75 549.6 297.9 553.15 300.2 558.55 294.05 561.25 291.75 561.6 289.8 562.65 L287.0 564.65 Q285.35 566.25 284.0 568.55 L282.95 564.65 282.5 561.8 Q282.3 559.95 282.6 558.35 M321.3 556.2 Q322.15 559.25 318.1 561.95 315.9 562.6 314.2 563.75 L313.05 564.65 Q310.25 567.1 309.2 571.1 L306.95 568.25 Q305.6 566.35 304.75 564.65 L303.75 562.2 303.7 561.8 Q302.1 556.0 307.5 552.55 314.3 550.55 319.3 553.3 320.8 554.8 321.3 556.2" fill="#000000" fill-rule="evenodd" stroke="none"/>
  </g>
</svg>
