<?xml version="1.0" encoding="UTF-8" standalone="no"?>
<svg xmlns:xlink="http://www.w3.org/1999/xlink" height="226.4px" width="264.5px" xmlns="http://www.w3.org/2000/svg">
  <g transform="matrix(1.0, 0.0, 0.0, 1.0, -267.65, -337.8)">
    <path d="M329.0 338.3 L329.0 347.95 321.6 370.05 Q314.1 391.5 310.65 409.4 307.9 427.95 308.2 438.7 308.5 449.35 309.05 452.5 L300.7 463.1 Q294.85 470.45 297.2 478.9 304.25 496.25 306.45 513.05 L302.55 515.65 302.55 519.35 271.35 545.8 Q268.75 548.75 268.25 551.85 267.6 555.95 272.5 556.35 275.85 560.55 280.95 560.05 283.7 562.15 289.05 561.4 293.75 563.25 299.95 562.1 301.2 562.95 303.25 563.7 L316.4 563.4 323.15 559.55 Q331.8 553.2 333.45 545.7 335.25 537.65 341.55 530.95 344.85 527.1 343.75 522.05 L342.55 519.25 343.6 516.55 341.5 513.05 Q340.8 507.45 343.35 501.85 345.85 496.05 357.6 488.8 369.35 481.5 366.55 466.7 L363.25 452.8 Q362.15 437.7 368.9 420.75 375.65 403.75 380.95 398.1 L418.85 398.1 Q424.15 403.75 430.9 420.75 437.65 437.7 436.55 452.8 L433.25 466.7 Q430.45 481.5 442.2 488.8 453.95 496.05 456.45 501.85 459.0 507.45 458.3 513.05 L456.2 516.55 457.25 519.25 456.05 522.05 Q454.95 527.1 458.25 530.95 464.55 537.65 466.35 545.7 468.0 553.2 476.65 559.55 L483.4 563.4 496.55 563.7 Q498.6 562.95 499.85 562.1 M527.3 556.35 Q532.2 555.95 531.6 551.85 531.05 548.75 528.45 545.8 L497.25 519.35 497.25 515.65 493.35 513.05 Q495.55 496.25 502.6 478.9 504.95 470.45 499.1 463.1 L490.75 452.5 Q491.3 449.35 491.6 438.7 491.9 427.95 489.15 409.4 485.7 391.5 478.2 370.05 L470.8 347.95 470.8 338.3 M510.75 561.4 Q516.1 562.15 518.85 560.05 523.95 560.55 527.3 556.35 M510.75 561.4 Q506.05 563.25 499.85 562.1" fill="none" stroke="#000000" stroke-linecap="round" stroke-linejoin="round" stroke-width="1.0"/>
    <path d="M272.5 556.35 Q271.85 555.55 273.3 553.15 L278.8 548.75 M312.95 455.9 L317.6 461.9 337.1 463.0 343.2 454.55 M280.95 560.05 Q278.5 558.75 280.1 555.25 L287.95 550.2 M271.55 552.4 L270.05 551.7 M274.85 554.0 L277.7 554.3 M289.05 561.4 Q284.9 560.15 287.8 556.6 L295.05 551.55 M301.9 558.05 L303.7 558.55 316.65 558.55 318.7 558.05 M499.85 562.1 Q502.9 560.05 501.65 557.5 L497.1 554.25 Q495.8 552.7 494.2 551.8 492.65 550.95 490.8 550.65 M305.6 549.6 L305.6 551.8 Q307.15 550.95 309.0 550.65 M307.65 554.0 Q314.55 552.6 321.5 554.0 M290.0 557.4 L295.75 557.4 M299.95 562.1 Q296.9 560.05 298.15 557.5 L302.7 554.25 Q304.0 552.7 305.6 551.8 M282.25 555.95 L285.15 555.95 M518.85 560.05 Q521.3 558.75 519.7 555.25 L511.85 550.2 M517.55 555.95 L514.65 555.95 M524.95 554.0 L522.1 554.3 M504.75 551.55 L512.0 556.6 Q514.9 560.15 510.75 561.4 M497.9 558.05 L496.1 558.55 483.15 558.55 481.1 558.05 M494.2 549.6 L494.2 551.8 M509.8 557.4 L504.05 557.4 M528.25 552.4 L529.75 551.7 M527.3 556.35 Q527.95 555.55 526.5 553.15 L521.0 548.75 M486.85 455.9 L482.2 461.9 462.7 463.0 456.6 454.55 M492.15 554.0 Q485.25 552.6 478.3 554.0 M418.7 397.75 Q426.9 384.25 440.4 374.85 M381.1 397.75 Q372.9 384.25 359.4 374.85" fill="none" stroke="#000000" stroke-linecap="round" stroke-linejoin="round" stroke-opacity="0.5019608" stroke-width="1.0"/>
  </g>
</svg>
