<?xml version="1.0" encoding="UTF-8" standalone="no"?>
<svg xmlns:xlink="http://www.w3.org/1999/xlink" height="223.3px" width="262.95px" xmlns="http://www.w3.org/2000/svg">
  <g transform="matrix(1.0, 0.0, 0.0, 1.0, -268.45, -338.85)">
    <path d="M411.2 346.25 L416.3 346.25 Q420.35 339.95 430.15 339.35 449.8 339.25 458.2 353.4 459.6 357.95 457.0 362.4 453.6 368.0 443.7 373.25 447.15 374.9 446.25 376.5 L457.0 381.1 Q467.6 379.1 475.15 385.4 484.95 390.5 475.05 396.7 L475.8 436.7 Q475.75 442.0 480.35 447.1 482.7 449.75 486.35 452.35 L488.3 453.95 Q493.35 458.6 485.85 459.8 489.2 463.85 482.8 472.25 L483.05 511.6 Q483.7 512.6 483.65 513.5 483.5 514.35 482.6 514.95 L513.2 538.35 515.95 540.35 525.05 546.75 527.2 548.2 528.55 550.6 530.9 554.65 Q529.5 556.05 526.25 555.25 L528.0 556.6 Q524.9 558.15 521.5 557.8 519.6 558.9 516.0 558.45 L515.8 558.95 Q511.3 561.4 505.1 560.0 500.75 563.05 490.9 560.45 L488.5 556.4 486.2 552.35 483.4 543.85 482.45 540.95 474.15 532.75 468.65 527.0 Q466.75 523.55 467.85 519.85 468.3 518.45 469.1 517.1 466.85 514.95 468.8 512.0 470.0 490.75 463.05 470.15 454.5 467.8 454.15 465.6 453.85 463.35 455.3 461.8 447.85 461.25 451.15 455.95 L451.15 455.65 452.7 453.95 Q455.65 450.55 457.45 447.1 459.85 442.6 460.3 437.95 L460.2 437.0 Q460.55 427.6 459.8 418.45 459.45 413.3 458.7 408.2 458.1 403.05 457.0 397.95 449.95 394.25 453.05 390.6 446.55 386.1 437.15 386.4 L432.65 386.65 Q432.4 393.65 424.9 393.1 L402.95 388.8 396.85 388.8 374.95 393.1 Q367.45 393.65 367.15 386.65 L362.7 386.4 Q353.3 386.1 346.8 390.6 349.9 394.25 342.85 397.95 341.75 403.05 341.15 408.2 340.4 413.3 340.05 418.45 339.3 427.6 339.65 437.0 L339.55 437.95 Q340.0 442.6 342.4 447.1 344.2 450.55 347.15 453.95 L348.7 455.65 348.7 455.95 Q352.0 461.25 344.55 461.8 346.0 463.35 345.7 465.6 345.35 467.8 336.8 470.15 329.85 490.75 331.05 512.0 333.0 514.95 330.75 517.1 L332.0 519.85 Q333.1 523.55 331.2 527.0 L325.7 532.75 317.4 540.95 316.45 543.85 313.65 552.35 311.35 556.4 308.95 560.45 Q299.1 563.05 294.75 560.0 288.55 561.4 284.05 558.95 L283.85 558.45 Q280.25 558.9 278.35 557.8 274.95 558.15 271.85 556.6 L273.6 555.25 Q270.35 556.05 268.95 554.65 L271.3 550.6 272.65 548.2 274.8 546.75 283.9 540.35 286.65 538.35 317.25 514.95 Q316.35 514.35 316.2 513.5 316.15 512.6 316.8 511.6 L317.05 472.25 Q310.65 463.85 314.0 459.8 306.5 458.6 311.55 453.95 L313.5 452.35 Q317.15 449.75 319.5 447.1 324.1 442.0 324.05 436.7 L324.8 396.7 Q314.9 390.5 324.7 385.4 332.25 379.1 342.85 381.1 L353.6 376.5 Q352.7 374.9 356.15 373.25 349.7 369.8 346.05 366.25 344.1 364.35 342.95 362.4 340.25 357.95 341.65 353.4 350.05 339.25 369.65 339.35 379.45 339.95 383.55 346.25 L388.65 346.25 M371.4 366.25 Q372.05 370.1 377.65 373.7 383.4 377.4 394.35 380.85 L405.45 380.85 Q432.5 372.3 427.95 362.4 L426.3 359.9 423.6 358.1 Q422.05 361.05 415.9 362.2 L415.85 362.4 Q413.7 367.85 407.85 372.3 407.8 376.55 399.9 379.75 392.05 376.55 391.95 372.3 386.15 367.85 384.0 362.4 L383.9 362.2 Q377.8 361.05 376.25 358.1 374.85 358.9 373.55 359.9 372.55 361.15 372.0 362.4 371.1 364.35 371.4 366.25 M390.75 385.0 Q380.7 387.2 377.65 386.15 376.95 385.9 376.6 385.5 376.95 384.5 377.65 383.75 380.35 380.85 388.25 381.9 389.0 383.9 390.75 385.0 M409.1 385.0 Q410.85 383.9 411.6 381.9 421.45 380.6 423.25 385.5 421.45 387.7 409.1 385.0 M322.45 473.15 Q323.4 486.5 321.75 498.55 M322.45 473.15 Q319.05 486.45 321.75 498.55 M478.1 498.55 Q476.45 486.5 477.4 473.15 480.8 486.45 478.1 498.55" fill="none" stroke="#000000" stroke-linecap="round" stroke-linejoin="round" stroke-width="1.0"/>
    <path d="M388.65 346.25 Q391.4 350.15 399.9 352.45 408.45 350.15 411.2 346.25 M390.75 385.0 Q393.8 386.95 399.9 386.3 406.0 386.95 409.1 385.0 M367.15 386.65 Q374.0 384.65 370.2 378.3 364.5 371.3 356.15 373.25 M423.6 358.1 Q413.8 352.05 399.9 356.6 386.05 352.05 376.25 358.1 M443.7 373.25 Q435.35 371.3 429.6 378.3 425.8 384.65 432.65 386.65 M344.55 461.8 L342.75 461.85 340.4 461.85 336.55 461.5 335.9 461.85 Q334.5 462.65 332.5 463.05 L324.4 463.5 Q321.4 463.15 319.5 462.2 L319.95 464.4 Q320.6 466.65 322.05 469.2 L322.45 473.15 M321.75 498.55 Q320.75 504.2 319.35 509.8 L319.3 510.4 Q317.9 513.05 319.2 515.75 327.25 515.7 330.75 517.1 M319.5 462.2 L318.2 461.4 318.0 461.25 317.65 460.9 317.1 460.1 314.0 459.8 M336.55 461.5 L337.7 460.45 Q339.0 458.65 336.95 457.1 334.95 455.5 330.65 455.05 L322.65 455.45 Q318.85 456.35 317.55 458.15 316.8 459.15 317.1 460.1 M319.2 515.75 Q318.0 515.45 317.25 514.95 M298.15 539.3 L292.35 538.85 289.95 541.05 295.8 541.7 298.15 539.3 304.75 539.9 310.7 540.4 317.4 540.95 M295.8 541.7 L302.45 542.45 304.75 539.9 M292.35 538.85 L286.65 538.35 M283.9 540.35 L289.95 541.05 282.35 547.95 288.5 548.9 289.1 548.5 295.8 541.7 M308.55 544.0 L309.05 543.15 302.45 542.45 295.95 549.55 295.35 550.0 304.2 551.25 308.15 544.65 308.35 544.25 308.55 544.0 M309.05 543.15 L309.05 543.1 309.9 541.8 310.1 541.45 310.7 540.4 M316.45 543.85 L309.05 543.15 M271.3 550.6 L277.65 551.95 282.35 547.95 274.8 546.75 M278.35 557.8 L277.1 557.2 282.9 553.0 277.65 551.95 273.6 555.25 M313.65 552.35 L304.2 551.25 299.3 555.5 311.35 556.4 M294.75 560.0 L294.4 559.7 299.3 555.5 289.9 554.4 284.9 558.25 284.05 558.95 M283.85 558.45 L284.9 558.25 M288.5 548.9 L295.35 550.0 289.9 554.4 282.9 553.0 288.5 548.9 M489.95 541.8 L490.8 543.1 490.8 543.15 497.4 542.45 495.1 539.9 489.15 540.4 489.75 541.45 489.95 541.8 M486.2 552.35 L495.65 551.25 491.7 544.65 491.5 544.25 491.3 544.0 490.8 543.15 483.4 543.85 M497.4 542.45 L504.05 541.7 501.7 539.3 495.1 539.9 M513.2 538.35 L507.5 538.85 509.9 541.05 515.95 540.35 M504.05 541.7 L509.9 541.05 517.5 547.95 525.05 546.75 M507.5 538.85 L501.7 539.3 M526.25 555.25 L522.2 551.95 516.95 553.0 522.75 557.2 521.5 557.8 M517.5 547.95 L522.2 551.95 528.55 550.6 M497.4 542.45 L503.9 549.55 504.5 550.0 511.35 548.9 510.75 548.5 504.05 541.7 M516.0 558.45 L514.95 558.25 515.8 558.95 M514.95 558.25 L509.95 554.4 500.55 555.5 505.45 559.7 505.1 560.0 M516.95 553.0 L509.95 554.4 504.5 550.0 495.65 551.25 500.55 555.5 488.5 556.4 M517.5 547.95 L511.35 548.9 516.95 553.0 M477.4 473.15 L477.8 469.2 Q479.25 466.65 479.9 464.4 L480.35 462.2 Q478.45 463.15 475.45 463.5 L467.35 463.05 Q465.35 462.65 463.95 461.85 L463.3 461.5 459.45 461.85 457.1 461.85 455.3 461.8 M480.35 462.2 L481.65 461.4 481.85 461.25 482.2 460.9 482.75 460.1 Q483.05 459.15 482.3 458.15 481.0 456.35 477.2 455.45 L469.2 455.05 Q464.9 455.5 462.9 457.1 460.85 458.65 462.15 460.45 L463.3 461.5 M485.85 459.8 L482.75 460.1 M332.0 519.85 L326.95 525.05 325.7 532.75 M482.6 514.95 L480.65 515.75 Q472.6 515.7 469.1 517.1 M480.65 515.75 Q481.95 513.05 480.55 510.4 L480.5 509.8 Q479.1 504.2 478.1 498.55 M474.15 532.75 L472.9 525.05 467.85 519.85 M482.45 540.95 L489.15 540.4" fill="none" stroke="#000000" stroke-linecap="round" stroke-linejoin="round" stroke-opacity="0.2509804" stroke-width="1.0"/>
  </g>
</svg>
