<?xml version="1.0" encoding="UTF-8" standalone="no"?>
<svg xmlns:xlink="http://www.w3.org/1999/xlink" height="11.65px" width="33.05px" xmlns="http://www.w3.org/2000/svg">
  <g transform="matrix(1.0, 0.0, 0.0, 1.0, -383.1, -151.15)">
    <path d="M383.1 154.6 L383.1 152.65 384.2 152.45 Q399.75 149.85 415.3 152.5 L416.15 152.65 416.15 154.6 415.3 154.5 415.1 154.45 Q399.65 152.45 384.2 154.45 L383.1 154.6 M384.2 156.25 Q399.75 154.85 415.3 156.3 L415.3 158.15 Q399.75 159.5 384.2 158.2 L383.55 158.15 383.55 156.3 384.2 156.25 M384.35 159.9 Q399.8 161.5 415.2 159.85 L415.2 161.65 Q399.7 164.0 384.2 161.65 L384.2 159.85 384.35 159.9" fill="#000000" fill-rule="evenodd" stroke="none"/>
  </g>
</svg>
