<?xml version="1.0" encoding="UTF-8" standalone="no"?>
<svg xmlns:xlink="http://www.w3.org/1999/xlink" height="40.35px" width="104.7px" xmlns="http://www.w3.org/2000/svg">
  <g transform="matrix(1.0, 0.0, 0.0, 1.0, -347.55, -107.1)">
    <path d="M379.5 145.1 L366.2 145.1 Q357.8 142.9 356.05 134.2 L356.05 123.5 Q354.9 113.6 347.55 107.1 361.05 109.9 362.9 122.2 363.2 134.9 367.7 135.35 L380.4 135.35 Q383.0 132.9 384.95 133.4 385.7 133.55 386.35 134.2 L386.65 134.5 387.6 136.05 Q388.0 140.85 386.3 145.1 L384.95 146.25 Q382.9 147.75 381.5 147.4 380.2 147.1 379.5 145.1 M414.85 133.4 Q416.8 132.9 419.4 135.35 L432.1 135.35 Q436.6 134.9 436.9 122.2 438.75 109.9 452.25 107.1 444.9 113.6 443.75 123.5 L443.75 134.2 Q442.0 142.9 433.6 145.1 L420.3 145.1 Q419.6 147.1 418.3 147.4 416.9 147.75 414.85 146.25 L413.5 145.1 Q411.8 140.85 412.2 136.05 L413.15 134.5 413.45 134.2 Q414.1 133.55 414.85 133.4" fill="#000000" fill-rule="evenodd" stroke="none"/>
  </g>
</svg>
