<?xml version="1.0" encoding="UTF-8" standalone="no"?>
<svg xmlns:xlink="http://www.w3.org/1999/xlink" height="47.3px" width="36.2px" xmlns="http://www.w3.org/2000/svg">
  <g transform="matrix(1.0, 0.0, 0.0, 1.0, -381.8, -137.0)">
    <path d="M384.35 144.8 Q384.7 144.8 384.9 145.1 L385.15 145.85 384.9 146.6 Q384.7 146.95 384.35 146.95 L383.85 146.6 383.65 145.85 383.85 145.1 384.35 144.8 M392.8 138.1 L392.5 138.8 Q392.2 139.15 391.8 139.15 391.4 139.15 391.1 138.8 390.8 138.5 390.8 138.1 390.8 137.65 391.1 137.3 391.4 137.0 391.8 137.0 392.2 137.0 392.5 137.3 L392.8 138.1 M394.8 140.8 Q395.15 140.8 395.45 141.1 L395.75 141.85 395.45 142.6 394.8 142.9 Q394.35 142.9 394.05 142.6 393.8 142.3 393.8 141.85 393.8 141.4 394.05 141.1 394.35 140.8 394.8 140.8 M391.9 144.8 Q392.25 144.8 392.55 145.1 L392.85 145.85 392.55 146.6 391.9 146.95 Q391.45 146.95 391.15 146.6 L390.9 145.85 391.15 145.1 Q391.45 144.8 391.9 144.8 M402.25 149.65 Q402.25 149.2 402.5 148.85 402.8 148.55 403.2 148.55 403.65 148.55 403.9 148.85 L404.2 149.65 403.9 150.4 403.2 150.7 402.5 150.4 402.25 149.65 M404.35 142.6 Q404.05 142.3 404.05 141.85 404.05 141.4 404.35 141.1 404.65 140.8 405.05 140.8 405.45 140.8 405.75 141.1 L406.05 141.85 405.75 142.6 405.05 142.9 Q404.65 142.9 404.35 142.6 M395.9 148.85 Q396.2 148.55 396.6 148.55 397.0 148.55 397.3 148.85 L397.6 149.65 397.3 150.4 Q397.0 150.7 396.6 150.7 L395.9 150.4 395.6 149.65 Q395.6 149.2 395.9 148.85 M384.95 171.2 Q384.7 170.9 384.7 170.45 384.7 170.0 384.95 169.7 385.15 169.4 385.5 169.4 L386.0 169.7 386.25 170.45 386.0 171.2 385.5 171.5 Q385.15 171.5 384.95 171.2 M389.8 172.15 Q390.05 171.85 390.35 171.85 390.7 171.85 390.9 172.15 L391.1 172.9 390.9 173.65 Q390.7 173.95 390.35 173.95 L389.8 173.65 389.6 172.9 389.8 172.15 M397.15 169.4 L397.45 170.2 397.15 170.95 Q396.85 171.25 396.45 171.25 L395.75 170.95 Q395.45 170.6 395.45 170.2 395.45 169.75 395.75 169.4 396.05 169.1 396.45 169.1 396.85 169.1 397.15 169.4 M399.9 172.6 Q400.3 172.6 400.6 172.9 L400.9 173.65 400.6 174.4 Q400.3 174.75 399.9 174.75 399.5 174.75 399.2 174.4 398.9 174.1 398.9 173.65 398.9 173.25 399.2 172.9 399.5 172.6 399.9 172.6 M403.35 169.1 Q403.8 169.1 404.05 169.4 L404.35 170.2 404.05 170.95 403.35 171.25 402.65 170.95 402.4 170.2 Q402.4 169.75 402.65 169.4 402.95 169.1 403.35 169.1 M383.1 151.3 L382.55 151.6 Q382.25 151.6 382.0 151.3 L381.8 150.55 382.0 149.8 Q382.25 149.5 382.55 149.5 382.85 149.5 383.1 149.8 L383.3 150.55 383.1 151.3 M383.7 164.6 L383.9 165.35 383.7 166.1 383.15 166.4 Q382.85 166.4 382.6 166.1 L382.4 165.35 382.6 164.6 Q382.85 164.25 383.15 164.25 383.45 164.25 383.7 164.6 M403.55 176.2 Q403.85 175.9 404.25 175.9 404.65 175.9 404.95 176.2 L405.25 176.95 404.95 177.7 404.25 178.0 403.55 177.7 Q403.3 177.4 403.3 176.95 403.3 176.5 403.55 176.2 M396.55 176.95 L396.25 177.7 Q395.95 178.0 395.55 178.0 L394.85 177.7 Q394.55 177.4 394.55 176.95 394.55 176.5 394.85 176.2 395.15 175.9 395.55 175.9 395.95 175.9 396.25 176.2 L396.55 176.95 M399.2 181.3 Q398.9 181.0 398.9 180.55 398.9 180.1 399.2 179.8 399.5 179.5 399.9 179.5 400.3 179.5 400.6 179.8 400.9 180.1 400.9 180.55 L400.6 181.3 399.9 181.6 Q399.5 181.6 399.2 181.3 M395.7 182.5 L396.0 183.25 395.7 184.0 395.0 184.3 Q394.6 184.3 394.3 184.0 394.0 183.7 394.0 183.25 394.0 182.8 394.3 182.5 394.6 182.2 395.0 182.2 L395.7 182.5 M403.85 183.25 Q403.85 182.8 404.15 182.5 404.4 182.2 404.85 182.2 405.25 182.2 405.55 182.5 L405.8 183.25 405.55 184.0 Q405.25 184.3 404.85 184.3 L404.15 184.0 Q403.85 183.7 403.85 183.25 M388.7 175.85 L388.9 176.6 388.7 177.35 Q388.45 177.65 388.15 177.65 L387.6 177.35 387.4 176.6 387.6 175.85 Q387.85 175.55 388.15 175.55 388.45 175.55 388.7 175.85 M411.65 175.55 Q411.95 175.55 412.2 175.85 L412.4 176.6 412.2 177.35 411.65 177.65 Q411.35 177.65 411.1 177.35 L410.9 176.6 411.1 175.85 Q411.35 175.55 411.65 175.55 M416.15 164.6 Q416.35 164.25 416.65 164.25 L417.2 164.6 417.4 165.35 417.2 166.1 Q417.0 166.4 416.65 166.4 416.35 166.4 416.15 166.1 415.9 165.8 415.9 165.35 415.9 164.9 416.15 164.6 M414.85 169.7 L415.1 170.45 414.85 171.2 Q414.65 171.5 414.35 171.5 414.0 171.5 413.8 171.2 L413.6 170.45 413.8 169.7 Q414.0 169.4 414.35 169.4 414.65 169.4 414.85 169.7 M409.45 171.85 Q409.75 171.85 410.0 172.15 L410.2 172.9 410.0 173.65 409.45 173.95 Q409.15 173.95 408.9 173.65 L408.7 172.9 408.9 172.15 Q409.15 171.85 409.45 171.85 M416.5 150.55 Q416.5 150.1 416.75 149.8 416.95 149.5 417.25 149.5 417.55 149.5 417.8 149.8 L418.0 150.55 417.8 151.3 417.25 151.6 Q416.95 151.6 416.75 151.3 416.5 151.0 416.5 150.55 M414.7 145.85 L414.9 145.1 Q415.15 144.8 415.45 144.8 415.75 144.8 416.0 145.1 L416.2 145.85 416.0 146.6 415.45 146.95 414.9 146.6 414.7 145.85 M407.95 144.8 Q408.35 144.8 408.65 145.1 L408.95 145.85 408.65 146.6 Q408.35 146.95 407.95 146.95 407.55 146.95 407.25 146.6 406.95 146.3 406.95 145.85 406.95 145.45 407.25 145.1 407.55 144.8 407.95 144.8 M408.7 138.8 Q408.45 139.15 408.0 139.15 407.6 139.15 407.3 138.8 L407.05 138.1 407.3 137.3 Q407.6 137.0 408.0 137.0 408.45 137.0 408.7 137.3 L409.0 138.1 408.7 138.8" fill="#000000" fill-rule="evenodd" stroke="none"/>
  </g>
</svg>
