<?xml version="1.0" encoding="UTF-8" standalone="no"?>
<svg xmlns:xlink="http://www.w3.org/1999/xlink" height="22.55px" width="35.35px" xmlns="http://www.w3.org/2000/svg">
  <g transform="matrix(1.0, 0.0, 0.0, 1.0, -382.25, -162.45)">
    <path d="M400.9 167.95 L400.9 162.45 403.3 167.95 400.9 167.95 M385.6 179.0 L385.4 178.9 385.35 178.7 385.4 178.55 385.6 178.45 385.8 178.55 385.85 178.7 385.8 178.9 385.6 179.0 M394.2 178.9 L393.85 178.9 Q392.2 178.2 392.15 177.25 L392.15 175.6 Q392.1 174.35 393.6 173.85 L395.2 173.85 394.2 178.9 M399.9 185.0 L397.05 184.8 Q396.15 184.0 397.05 183.2 L399.9 183.05 402.8 183.2 Q403.7 184.0 402.8 184.8 L399.9 185.0 M395.7 173.85 L399.2 173.85 399.2 178.9 394.7 178.9 395.7 173.85 M400.6 173.85 L404.15 173.85 405.1 178.9 400.6 178.9 400.6 173.85 M382.45 173.35 L382.65 173.4 382.7 173.6 382.65 173.75 382.45 173.8 382.3 173.75 382.25 173.6 382.3 173.4 382.45 173.35 M398.9 167.95 L396.5 167.95 398.9 162.45 398.9 167.95 M417.5 173.4 L417.6 173.6 417.5 173.75 417.35 173.8 417.15 173.75 417.1 173.6 417.15 173.4 417.35 173.35 417.5 173.4 M414.2 178.45 L414.4 178.55 414.45 178.7 414.4 178.9 414.2 179.0 414.0 178.9 413.95 178.7 414.0 178.55 414.2 178.45 M406.25 173.85 Q407.7 174.35 407.65 175.6 L407.65 177.25 Q407.6 178.2 405.95 178.9 L405.6 178.9 404.65 173.85 406.25 173.85" fill="#000000" fill-rule="evenodd" stroke="none"/>
  </g>
</svg>
