<?xml version="1.0" encoding="UTF-8" standalone="no"?>
<svg xmlns:xlink="http://www.w3.org/1999/xlink" height="20.5px" width="58.4px" xmlns="http://www.w3.org/2000/svg">
  <g transform="matrix(1.0, 0.0, 0.0, 1.0, -370.75, -174.65)">
    <path d="M382.55 184.9 Q382.55 189.15 381.0 192.15 379.5 195.15 377.35 195.15 L376.65 195.1 375.95 195.15 Q373.8 195.15 372.25 192.15 370.75 189.15 370.75 184.9 370.75 180.65 372.25 177.65 373.8 174.65 375.95 174.65 L376.65 174.75 377.35 174.65 Q379.5 174.65 381.0 177.65 382.55 180.65 382.55 184.9 M423.25 174.75 L423.95 174.65 Q426.1 174.65 427.65 177.65 429.15 180.65 429.15 184.9 429.15 189.15 427.65 192.15 426.1 195.15 423.95 195.15 L423.25 195.1 422.55 195.15 Q420.4 195.15 418.9 192.15 417.35 189.15 417.35 184.9 417.35 180.65 418.9 177.65 420.4 174.65 422.55 174.65 L423.25 174.75" fill="#000000" fill-rule="evenodd" stroke="none"/>
  </g>
</svg>
