<?xml version="1.0" encoding="UTF-8" standalone="no"?>
<svg xmlns:xlink="http://www.w3.org/1999/xlink" height="51.7px" width="31.45px" xmlns="http://www.w3.org/2000/svg">
  <g transform="matrix(1.0, 0.0, 0.0, 1.0, -394.8, -127.25)">
    <path d="M397.65 170.65 Q398.85 170.05 400.05 170.05 401.25 170.05 402.45 170.65 L402.45 171.85 405.45 172.3 405.85 173.25 Q406.45 175.05 405.85 176.85 L405.2 178.3 Q400.4 179.6 395.6 178.3 394.05 175.3 395.6 172.3 L397.65 171.95 397.65 170.65 M425.15 135.95 Q423.75 138.05 422.0 137.85 419.5 133.05 416.2 128.75 417.95 128.3 419.6 127.25 422.85 131.35 425.15 135.95 M425.9 156.55 Q424.55 156.75 422.45 155.8 L422.65 153.3 Q424.65 152.5 426.25 153.65 L425.9 156.55" fill="#000000" fill-rule="evenodd" stroke="none"/>
  </g>
</svg>
