<?xml version="1.0" encoding="UTF-8" standalone="no"?>
<svg xmlns:xlink="http://www.w3.org/1999/xlink" height="22.05px" width="43.4px" xmlns="http://www.w3.org/2000/svg">
  <g transform="matrix(1.0, 0.0, 0.0, 1.0, -377.75, -128.8)">
    <path d="M418.45 143.45 L418.45 138.05 415.45 135.5 Q399.6 123.3 384.5 135.2 382.55 136.85 381.15 138.7 L380.95 143.45 M418.45 143.45 L418.95 143.7 Q422.4 145.8 418.75 149.85 L418.25 150.35 416.35 149.85 415.45 149.6 413.15 149.05 409.8 148.45 406.8 148.0 403.5 147.75 400.2 147.65 399.9 147.65 397.3 147.65 394.2 147.85 390.7 148.2 387.6 148.7 384.6 149.3 384.5 149.3 381.05 150.15 380.3 150.35 Q375.9 145.9 380.95 143.45" fill="none" stroke="#000000" stroke-linecap="round" stroke-linejoin="round" stroke-width="1.0"/>
    <path d="M380.95 143.45 L384.35 142.35 384.5 142.3 387.55 141.55 390.7 140.9 394.2 140.4 397.25 140.15 400.35 140.1 403.55 140.25 406.75 140.55 410.05 141.1 413.15 141.8 415.45 142.45 416.55 142.8 418.45 143.45 M380.95 143.45 Q380.25 146.85 381.05 150.15 M390.7 148.2 Q389.8 144.55 390.7 140.9 M394.2 140.4 Q393.15 144.1 394.2 147.85 M400.2 147.65 L400.15 146.85 Q399.85 143.45 400.35 140.1 M403.55 140.25 Q404.0 144.35 403.5 147.75 M397.3 147.65 Q396.3 144.1 397.25 140.15 M384.35 142.35 Q383.1 145.85 384.5 148.95 M387.55 141.55 Q386.5 145.1 387.6 148.7 M409.8 148.45 Q410.4 144.95 410.05 141.1 M406.75 140.55 Q407.45 144.3 406.8 148.0 M413.15 141.8 Q414.0 145.6 413.15 149.05 M418.95 143.7 Q419.5 146.95 418.75 149.85 M416.35 149.85 Q417.1 146.55 416.55 142.8" fill="none" stroke="#000000" stroke-linecap="round" stroke-linejoin="round" stroke-opacity="0.49803922" stroke-width="1.0"/>
  </g>
</svg>
