<?xml version="1.0" encoding="UTF-8" standalone="no"?>
<svg xmlns:xlink="http://www.w3.org/1999/xlink" height="27.9px" width="113.25px" xmlns="http://www.w3.org/2000/svg">
  <g transform="matrix(1.0, 0.0, 0.0, 1.0, -343.25, -130.65)">
    <path d="M369.45 141.55 Q372.3 141.25 373.05 141.95 L377.45 140.05 Q374.8 140.65 374.0 139.7 M360.95 145.2 Q363.65 144.85 364.4 145.75 L369.0 143.75 Q366.5 143.85 365.5 143.25 M373.25 146.9 L377.0 144.65 Q374.4 145.0 372.75 144.2 L368.45 146.3 Q371.75 145.9 373.25 146.9 376.1 146.55 377.4 147.3 L380.65 144.95 377.0 144.65 380.3 142.65 Q379.15 141.75 376.55 142.35 L372.75 144.2 Q369.25 144.55 369.0 143.75 L373.05 141.95 Q375.65 141.65 376.55 142.35 L380.6 140.35 Q378.25 140.7 377.45 140.05 L383.65 137.35 Q383.25 136.65 380.8 137.0 M384.1 140.8 L386.55 140.75 390.3 138.0 388.25 137.85 383.75 140.55 384.1 140.8 M384.1 137.25 Q385.6 137.0 386.05 137.65 L391.75 134.85 Q389.5 135.4 390.05 134.6 L383.65 137.35 384.1 137.25 M388.25 137.85 L387.7 137.6 386.05 137.65 380.6 140.35 380.85 140.55 Q381.75 141.1 383.75 140.55 L380.3 142.65 380.5 142.6 Q382.55 142.05 383.55 142.9 L386.55 140.75 389.1 140.9 392.2 138.15 Q391.65 137.5 390.3 138.0 L394.3 135.15 Q393.05 135.55 393.0 135.0 L388.25 137.85 M377.4 147.3 L379.75 147.05 Q380.8 147.15 381.45 147.65 L384.1 145.3 384.2 145.25 384.1 145.25 381.85 145.35 380.65 144.95 383.55 142.9 384.1 142.75 384.15 142.75 Q385.9 142.4 386.6 143.1 L389.1 140.9 392.2 141.0 394.45 138.25 392.2 138.15 395.5 135.25 Q394.1 135.9 394.3 135.15 L397.35 132.95 Q397.85 132.05 397.75 132.65 L397.35 132.95 M381.45 147.65 L384.1 147.35 Q385.6 147.4 386.55 148.0 L388.6 145.5 384.2 145.25 386.6 143.1 390.4 143.25 392.2 141.0 394.9 141.1 396.25 138.35 394.45 138.25 396.85 135.3 395.5 135.25 M399.7 132.85 L399.15 135.4 Q399.45 136.05 399.75 135.4 400.25 136.05 400.55 135.4 L400.0 132.85 400.0 132.75 400.0 131.2 399.7 132.75 399.75 132.75 399.75 132.8 399.7 132.85 399.7 132.75 Q399.5 132.15 398.95 132.75 L397.7 135.35 399.15 135.4 398.5 138.35 399.75 138.4 399.8 141.15 399.8 143.5 399.8 145.8 399.85 148.45 399.85 151.15 399.9 148.45 399.9 145.8 399.95 143.5 399.95 141.15 399.95 138.4 401.25 138.35 400.55 135.4 402.05 135.35 400.8 132.75 400.75 132.75 Q400.2 132.15 400.0 132.75 M396.85 135.3 L398.75 133.0 Q398.95 132.05 398.95 132.75 L398.75 133.0 M396.85 135.3 L397.7 135.35 396.25 138.35 Q397.35 137.7 398.5 138.35 L397.85 141.15 Q398.8 141.85 399.8 141.15 M402.05 135.35 L402.85 135.3 401.0 133.0 400.8 132.75 M400.75 132.75 Q400.75 132.05 401.0 133.0 M402.85 135.3 L404.2 135.25 Q405.6 135.9 405.4 135.15 L402.4 132.95 402.0 132.65 Q401.85 132.05 402.4 132.95 M388.0 134.2 Q387.9 134.9 390.05 134.6 M396.5 132.45 L391.75 134.85 Q391.25 135.65 393.0 135.0 M391.45 148.25 L396.2 148.4 396.8 145.8 395.6 146.1 Q394.15 146.25 392.7 145.65 L391.45 148.25 386.55 148.0 384.4 150.6 Q386.95 151.65 390.0 150.95 L390.2 150.9 391.45 148.25 M396.8 145.8 L397.3 143.45 Q395.3 142.6 393.8 143.4 L392.7 145.65 388.6 145.5 390.4 143.25 393.8 143.4 394.9 141.1 397.85 141.15 397.3 143.45 399.8 143.5 M401.25 138.35 L401.85 141.15 404.8 141.1 403.45 138.35 Q402.35 137.7 401.25 138.35 M399.95 141.15 Q400.9 141.85 401.85 141.15 L402.4 143.45 402.8 143.3 405.9 143.4 404.8 141.1 405.95 141.3 407.5 141.0 405.3 138.3 405.25 138.25 403.45 138.35 402.05 135.35 M396.8 145.8 L398.4 146.2 399.05 146.1 399.8 145.8 M399.85 148.45 Q398.1 147.75 396.2 148.4 L395.6 151.1 396.1 151.3 399.85 151.15 Q402.0 152.05 404.15 151.1 L403.55 148.4 403.35 148.35 401.65 148.1 401.6 148.1 Q400.7 148.1 399.9 148.45 M399.9 145.8 L400.2 145.95 402.95 145.8 402.95 145.65 402.4 143.45 399.95 143.5 M402.95 145.8 L404.15 146.1 Q405.55 146.25 407.0 145.65 L405.9 143.4 409.35 143.25 407.5 141.0 410.6 140.9 407.5 138.15 Q406.2 137.7 405.45 138.15 L405.25 138.25 402.85 135.3 M403.55 148.4 L402.95 145.8 M394.15 131.9 Q396.45 131.55 395.35 132.25 M359.45 147.9 Q360.7 149.25 363.95 148.55 L368.45 146.3 Q367.2 145.4 364.4 145.75 L359.45 147.9 353.25 150.6 Q356.9 150.45 358.35 151.3 361.15 149.95 363.95 148.55 365.4 149.75 369.35 149.2 L373.25 146.9 M359.45 147.9 Q356.8 148.3 356.1 147.35 M350.1 150.1 Q352.45 149.9 353.25 150.6 L345.75 153.85 M350.85 155.0 L358.35 151.3 Q362.4 151.15 364.6 152.05 L369.35 149.2 Q371.0 150.25 374.05 149.75 L377.4 147.3 M399.85 151.15 L399.85 152.4 399.9 154.25 Q401.65 153.5 403.55 153.85 L404.85 154.15 404.15 151.1 409.5 150.9 408.25 148.25 403.55 148.4 M399.85 152.4 L399.85 154.25 399.85 155.95 399.9 154.25 M399.85 154.25 Q398.4 153.65 396.9 153.75 L395.9 153.9 394.85 154.15 394.1 157.65 M399.85 157.65 L399.9 157.65 399.85 155.95 M384.4 150.6 L381.95 153.6 384.1 153.35 387.85 153.7 388.7 153.95 390.2 150.9 395.6 151.1 394.85 154.15 388.7 153.95 386.95 157.6 M384.4 150.6 L384.1 150.65 Q381.2 151.2 378.6 150.15 L375.25 153.1 Q379.4 152.45 381.95 153.6 L378.9 157.4 M374.05 149.75 Q375.05 150.25 376.15 150.4 L378.6 150.15 381.45 147.65 M374.05 149.75 L370.0 152.65 374.3 152.75 375.25 153.1 370.75 157.05 M364.45 156.65 L370.0 152.65 Q368.35 151.8 364.6 152.05 L358.05 156.05 M411.75 134.2 Q411.8 134.9 409.7 134.6 L416.1 137.35 Q416.45 136.65 418.95 137.0 M409.7 134.6 Q410.1 135.25 408.8 135.05 L408.0 134.85 413.65 137.65 Q414.1 137.0 415.6 137.25 L416.1 137.35 422.3 140.05 Q424.9 140.65 425.75 139.7 M408.0 134.85 Q408.45 135.65 406.7 135.0 L411.45 137.85 413.65 137.65 419.1 140.35 Q421.45 140.7 422.3 140.05 L426.7 141.95 Q427.4 141.25 430.25 141.55 M406.7 135.0 Q406.65 135.55 405.4 135.15 L409.4 138.0 411.45 137.85 415.95 140.55 419.1 140.35 423.2 142.35 Q424.05 141.65 426.7 141.95 L430.75 143.75 431.2 143.75 433.95 143.4 434.25 143.25 M410.6 140.9 L413.2 140.75 409.4 138.0 407.5 138.15 404.2 135.25 M408.25 148.25 L413.2 148.0 411.15 145.5 407.0 145.65 408.25 148.25 M410.6 140.9 L413.1 143.1 Q413.8 142.4 415.6 142.75 L416.2 142.9 413.2 140.75 415.6 140.8 415.95 140.55 419.45 142.65 Q420.55 141.75 423.2 142.35 L426.95 144.2 427.4 144.25 Q430.3 144.5 430.75 143.85 L430.75 143.75 435.35 145.75 Q436.05 144.85 438.75 145.2 M411.15 145.5 L415.55 145.25 413.1 143.1 409.35 143.25 411.15 145.5 M419.05 144.95 L422.3 147.3 Q423.6 146.55 426.5 146.9 L422.85 144.75 422.75 144.65 422.55 144.75 419.95 145.1 419.05 144.95 416.2 142.9 Q417.2 142.0 419.45 142.65 L422.75 144.65 423.15 144.7 426.65 144.35 426.95 144.2 431.25 146.3 Q432.5 145.4 435.35 145.75 L440.3 147.9 Q442.9 148.3 443.6 147.35 M419.05 144.95 L415.6 145.25 415.55 145.25 415.6 145.3 418.3 147.65 Q419.5 146.65 422.3 147.3 L425.7 149.75 Q428.7 150.25 430.35 149.2 L426.5 146.9 Q427.95 145.9 431.25 146.3 L435.8 148.55 437.85 148.8 Q439.45 148.75 440.3 147.9 L446.5 150.6 Q447.25 149.9 449.6 150.1 M415.6 147.35 Q414.1 147.4 413.2 148.0 L415.3 150.6 415.35 150.6 415.6 150.65 415.65 150.65 Q418.5 151.2 421.15 150.15 L418.3 147.65 415.6 147.35 M453.95 153.85 L446.5 150.6 445.35 150.6 Q442.55 150.6 441.4 151.3 L448.9 155.0 M435.8 148.55 L441.4 151.3 Q437.3 151.15 435.1 152.05 L441.7 156.05 M425.7 149.75 L429.75 152.65 430.85 152.25 435.1 152.05 430.35 149.2 Q434.3 149.75 435.8 148.55 M435.25 156.65 L429.75 152.65 427.25 152.6 Q425.3 152.6 424.5 153.1 L428.95 157.05 M421.15 150.15 L422.95 150.4 Q424.4 150.4 425.7 149.75 M415.3 150.6 L417.75 153.6 Q420.3 152.45 424.5 153.1 L421.15 150.15 M415.3 150.6 L409.5 150.9 411.0 153.95 Q412.5 153.4 414.3 153.35 L415.6 153.35 416.1 153.4 417.75 153.6 420.85 157.4 M412.75 157.6 L411.05 154.1 411.0 153.95 407.15 153.7 Q405.85 153.75 404.85 154.15 L405.65 157.65 M408.0 134.85 L403.25 132.45 M405.55 131.9 Q403.25 131.55 404.35 132.25" fill="none" stroke="#000000" stroke-linecap="round" stroke-linejoin="round" stroke-opacity="0.5019608" stroke-width="1.0"/>
    <path d="M384.45 135.55 L388.0 134.2 394.15 131.9 Q396.9 130.9 400.0 131.2 402.8 130.9 405.55 131.9 L410.25 133.65 411.75 134.2 415.6 135.7 418.95 137.0 425.75 139.7 430.25 141.55 434.25 143.25 434.45 143.35 438.75 145.2 443.6 147.35 444.1 147.6 446.65 148.75 446.8 148.8 447.6 149.2 449.6 150.1 456.0 153.15 Q455.45 154.05 453.95 153.85 452.55 155.1 448.9 155.0 446.65 156.4 441.7 156.05 438.9 157.1 435.25 156.65 432.4 157.8 428.95 157.05 L420.85 157.4 418.75 157.8 418.55 157.8 416.55 157.95 415.6 157.9 412.75 157.6 Q409.5 158.3 405.65 157.65 402.8 158.5 399.85 157.65 396.9 158.5 394.1 157.65 390.2 158.3 386.95 157.6 L384.1 157.9 382.6 157.9 380.8 157.75 380.65 157.75 378.9 157.4 370.75 157.05 366.15 157.15 364.45 156.65 Q360.8 157.1 358.05 156.05 353.05 156.4 350.85 155.0 347.15 155.1 345.75 153.85 344.25 154.05 343.75 153.15 L350.1 150.1 356.1 147.35 360.95 145.2 365.5 143.25 369.45 141.55 374.0 139.7 380.8 137.0 384.1 135.7 384.45 135.55" fill="none" stroke="#000000" stroke-linecap="round" stroke-linejoin="round" stroke-width="1.0"/>
  </g>
</svg>
