<?xml version="1.0" encoding="UTF-8" standalone="no"?>
<svg xmlns:xlink="http://www.w3.org/1999/xlink" height="34.7px" width="47.4px" xmlns="http://www.w3.org/2000/svg">
  <g transform="matrix(1.0, 0.0, 0.0, 1.0, -376.3, -128.25)">
    <path d="M419.5 142.45 Q417.85 144.25 416.25 144.05 L414.75 144.2 414.45 144.2 400.0 144.7 385.55 144.2 385.3 144.2 383.75 144.05 Q382.15 144.25 380.55 142.45 M380.25 145.75 Q382.0 147.85 383.75 147.65 L385.55 147.8 400.0 148.3 414.45 147.8 416.25 147.65 Q418.0 147.85 419.75 145.75 M417.7 135.15 Q415.4 139.25 414.75 144.2 M382.3 135.2 Q384.6 139.25 385.3 144.2" fill="none" stroke="#000000" stroke-linecap="round" stroke-linejoin="round" stroke-opacity="0.5019608" stroke-width="1.0"/>
    <path d="M380.55 142.45 L380.25 145.75 M419.75 145.75 L419.5 142.45 M419.45 142.2 Q418.8 135.8 417.7 135.15 M380.55 142.2 Q381.2 135.9 382.3 135.2 384.25 132.85 387.7 131.45 392.45 129.35 398.95 128.85 L400.0 128.75 401.05 128.85 Q407.55 129.35 412.3 131.45 415.7 132.85 417.7 135.15 M419.75 145.75 L421.45 149.85 423.2 161.7 Q419.6 163.35 419.15 161.25 L418.4 155.55 Q417.35 150.55 415.8 149.75 L411.25 149.95 400.2 150.4 400.0 150.4 399.9 150.4 399.8 150.4 388.75 149.95 384.2 149.75 Q382.65 150.55 381.6 155.55 L380.85 161.25 Q380.4 163.35 376.8 161.7 L378.55 149.85 380.25 145.75" fill="none" stroke="#000000" stroke-linecap="round" stroke-linejoin="round" stroke-width="1.0"/>
    <path d="M419.5 142.45 L419.45 142.2 M380.55 142.45 L380.55 142.2" fill="none" stroke="#000000" stroke-linecap="round" stroke-linejoin="round" stroke-width="0.05"/>
  </g>
</svg>
