<?xml version="1.0" encoding="UTF-8" standalone="no"?>
<svg xmlns:xlink="http://www.w3.org/1999/xlink" height="39.15px" width="41.3px" xmlns="http://www.w3.org/2000/svg">
  <g transform="matrix(1.0, 0.0, 0.0, 1.0, -379.3, -127.25)">
    <path d="M381.65 143.75 L380.45 144.0 379.8 144.1 380.2 149.5 381.3 149.15 381.7 149.15 Q388.2 147.55 396.3 147.1 M402.95 130.7 Q402.85 128.25 399.95 127.75 397.05 128.25 396.95 130.7 L395.75 130.7 395.75 131.35 Q382.8 132.8 380.45 144.0 M402.95 130.7 L404.15 130.7 404.15 131.35 Q417.1 132.8 419.45 144.0 L420.1 144.1 419.7 149.5 418.6 149.15 418.2 149.15 Q411.65 147.55 403.5 147.1 L401.8 157.25 404.0 165.9 395.9 165.9 398.1 157.25 396.3 147.1 M419.45 144.0 L418.25 143.75" fill="none" stroke="#000000" stroke-linecap="round" stroke-linejoin="round" stroke-width="1.0"/>
    <path d="M396.3 147.1 L395.75 141.65 Q388.6 141.95 381.65 143.75 M396.95 130.7 L402.95 130.7 M396.3 147.1 L399.95 146.95 403.5 147.1 404.15 141.65 399.95 141.7 395.75 141.65 395.75 131.35 M398.75 143.35 Q399.3 143.0 400.05 143.0 400.8 143.0 401.3 143.35 401.85 143.75 401.85 144.3 401.85 144.85 401.3 145.2 400.8 145.6 400.05 145.6 399.3 145.6 398.75 145.2 398.25 144.85 398.25 144.3 398.25 143.75 398.75 143.35 M404.15 141.65 L404.15 131.35 M418.25 143.75 Q411.3 141.95 404.15 141.65" fill="none" stroke="#000000" stroke-linecap="round" stroke-linejoin="round" stroke-opacity="0.5019608" stroke-width="1.0"/>
  </g>
</svg>
