<?xml version="1.0" encoding="UTF-8" standalone="no"?>
<svg xmlns:xlink="http://www.w3.org/1999/xlink" height="39.0px" width="81.65px" xmlns="http://www.w3.org/2000/svg">
  <g transform="matrix(1.0, 0.0, 0.0, 1.0, -359.1, -112.3)">
    <path d="M384.3 132.6 Q384.65 132.75 385.0 133.7 389.6 127.95 397.35 127.15 L401.35 127.1 401.65 127.1 Q409.7 127.75 414.45 133.7 L414.85 132.75 Q414.95 132.25 415.25 132.3 L416.15 133.0 424.3 132.75 425.15 133.2 425.3 133.1 Q434.9 126.6 434.25 114.65 436.1 110.8 438.9 115.35 444.05 136.05 428.4 143.65 L427.95 143.85 Q428.25 144.05 427.95 144.85 426.25 147.2 421.35 149.0 421.25 149.85 420.9 149.95 420.5 150.1 419.8 149.55 L418.9 150.8 415.35 150.2 Q407.2 148.9 400.2 149.25 L399.95 149.3 399.5 149.3 399.25 149.25 384.15 150.15 380.55 150.8 379.65 149.55 Q378.15 150.35 378.35 149.1 373.25 147.25 371.55 144.85 371.1 143.8 371.85 143.75 L371.4 143.55 Q355.7 135.95 360.9 115.25 363.65 110.7 365.55 114.55 364.85 126.5 374.5 133.0 L375.2 132.75 Q379.1 131.5 383.6 133.1 383.95 132.45 384.3 132.6" fill="none" stroke="#000000" stroke-linecap="round" stroke-linejoin="round" stroke-width="1.0"/>
    <path d="M371.85 143.75 L374.55 144.85 Q378.75 139.3 376.35 134.15 L375.0 133.35 374.5 133.0 M379.65 149.55 L380.3 148.9 Q382.7 146.5 384.0 143.85 L384.0 143.8 384.15 143.4 384.35 142.95 Q386.0 138.7 385.0 133.7 M386.95 144.55 Q386.35 145.0 386.35 145.65 386.35 146.3 386.95 146.75 387.45 147.2 388.25 147.2 L389.55 146.75 Q390.1 146.3 390.1 145.65 390.1 145.0 389.55 144.55 389.0 144.1 388.25 144.1 387.45 144.1 386.95 144.55 M384.35 142.95 Q390.7 140.95 399.7 141.45 L399.75 141.45 Q408.75 140.95 415.1 142.95 413.45 138.7 414.45 133.7 M399.75 146.65 Q400.45 146.6 401.0 146.2 L401.55 145.1 401.0 144.0 Q400.45 143.55 399.75 143.55 L399.65 143.55 Q398.85 143.55 398.35 144.0 397.75 144.45 397.8 145.1 397.75 145.7 398.35 146.2 398.85 146.65 399.65 146.65 L399.75 146.65 M380.3 148.9 L384.15 148.5 Q399.9 147.0 415.35 148.25 L418.8 148.55 Q416.65 146.3 415.5 143.85 399.75 141.1 384.0 143.85 M383.6 133.1 Q384.55 142.15 378.35 149.1 M427.95 143.85 L427.9 143.85 425.25 144.95 425.1 144.8 Q421.05 139.3 423.45 134.25 L424.75 133.45 425.15 133.2 M409.35 145.65 Q409.35 145.0 409.9 144.55 410.45 144.1 411.2 144.1 412.0 144.1 412.55 144.55 413.1 145.0 413.1 145.65 413.1 146.3 412.55 146.75 412.0 147.2 411.2 147.2 410.45 147.2 409.9 146.75 409.35 146.3 409.35 145.65 M415.1 142.95 L415.35 143.55 415.5 143.8 415.5 143.85 M418.8 148.55 L419.8 149.55 M416.15 133.0 Q413.9 141.1 421.35 149.0" fill="none" stroke="#000000" stroke-linecap="round" stroke-linejoin="round" stroke-opacity="0.5019608" stroke-width="1.0"/>
  </g>
</svg>
