<?xml version="1.0" encoding="UTF-8" standalone="no"?>
<svg xmlns:xlink="http://www.w3.org/1999/xlink" height="66.6px" width="53.75px" xmlns="http://www.w3.org/2000/svg">
  <g transform="matrix(1.0, 0.0, 0.0, 1.0, -373.2, -123.9)">
    <path d="M383.85 147.8 L379.45 148.65 379.6 149.8 383.0 149.5 Q383.5 149.0 384.0 148.95 L384.25 148.95 385.0 149.35 Q391.3 148.95 398.5 149.05 L398.5 147.0 384.25 147.75 383.85 147.8 M376.2 147.2 L377.15 146.95 Q377.9 145.25 379.25 146.4 L384.25 145.5 391.3 144.85 391.2 137.2 393.85 137.2 393.85 134.05 393.85 133.3 393.75 125.0 M376.2 149.45 L377.4 149.15 377.15 146.95 M393.85 137.2 L396.95 137.2 396.95 135.35 396.95 132.6 397.0 124.55 M391.3 144.85 L392.25 144.8 396.2 144.8 394.6 143.2 394.3 143.2 Q393.55 143.2 393.05 142.65 392.55 142.1 392.55 141.25 392.55 140.45 393.05 139.85 393.55 139.3 394.3 139.3 L394.85 139.4 405.3 139.4 405.85 139.3 Q406.55 139.3 407.1 139.85 407.6 140.45 407.6 141.25 407.6 142.1 407.1 142.65 406.55 143.2 405.85 143.2 L405.55 143.2 403.95 144.8 407.85 144.8 408.8 144.85 408.9 137.2 406.25 137.2 403.2 137.2 396.95 137.2 M405.3 139.4 L404.9 139.6 404.75 139.75 404.6 139.85 Q404.1 140.45 404.1 141.25 404.1 142.1 404.6 142.65 405.0 143.1 405.55 143.2 M394.85 139.4 L395.45 139.75 395.5 139.85 395.65 140.0 Q396.05 140.5 396.05 141.25 396.05 142.1 395.5 142.65 395.15 143.1 394.6 143.2 M399.55 143.05 Q399.05 143.15 398.5 143.5 L398.5 144.8 398.85 144.8 398.85 143.8 Q399.05 143.2 399.55 143.05 L400.05 142.95 400.6 143.05 401.65 143.5 401.65 144.8 403.95 144.8 M398.5 144.8 L398.5 147.0 398.85 147.0 398.85 144.8 M396.2 144.8 L398.5 144.8 M400.6 143.05 Q401.05 143.2 401.3 143.8 L401.3 144.8 401.65 144.8 401.65 147.0 415.0 147.6 416.3 147.8 420.65 148.65 420.9 146.4 415.0 145.35 408.8 144.85 M401.3 147.0 L401.3 149.05 401.65 149.05 401.65 147.0 401.3 147.0 401.3 144.8 M403.2 124.6 L403.2 137.2 M401.3 149.05 L401.3 151.1 401.65 151.05 401.65 149.05 Q408.75 148.95 415.0 149.35 L415.15 149.35 Q415.6 148.95 416.1 148.95 416.6 149.0 417.1 149.5 L420.55 149.8 420.65 148.65 M401.65 151.1 Q400.85 151.9 400.05 151.8 399.25 151.9 398.5 151.1 L398.5 151.05 Q391.3 150.5 385.1 150.8 L385.8 166.35 388.7 166.75 Q390.0 165.65 391.45 166.9 395.5 167.05 400.05 166.7 404.65 167.05 408.75 166.9 410.1 165.65 411.45 166.75 L414.35 166.35 415.05 150.8 415.0 150.8 Q408.8 150.5 401.65 151.05 L401.65 151.1 M401.3 151.1 Q400.7 151.7 400.05 151.8 399.45 151.7 398.85 151.1 L398.5 151.05 398.5 149.05 398.85 149.05 398.85 147.0 M398.85 151.1 L398.85 149.05 M385.1 150.8 L385.0 149.35 M385.8 166.35 L385.9 168.4 389.25 168.75 388.7 166.75 M389.25 168.75 L391.0 175.3 393.4 184.25 393.95 186.2 394.0 186.55 Q395.15 187.95 396.35 186.8 L395.85 184.75 393.55 175.5 393.2 174.0 391.95 168.95 391.45 166.9 M393.2 174.0 L394.9 174.5 395.6 174.9 395.8 175.05 Q397.2 176.0 398.05 177.85 398.45 178.3 398.95 178.35 L400.05 177.85 400.65 178.2 401.2 178.35 402.1 177.85 Q402.9 176.0 404.4 175.05 L404.5 174.95 404.55 174.9 405.25 174.5 406.95 174.0 408.25 168.95 400.05 169.1 391.95 168.95 M378.9 165.2 L379.2 165.6 379.25 165.7 Q380.45 167.4 381.65 167.65 L383.5 168.05 383.45 165.85 383.05 165.65 381.1 164.35 Q379.7 163.2 378.65 161.45 376.45 157.85 375.55 151.85 L377.65 151.5 379.75 151.2 381.5 151.05 383.05 150.95 383.0 149.5 M379.6 149.8 L377.5 150.05 375.95 150.25 M377.5 150.05 L377.4 149.15 M383.5 168.05 Q383.8 168.45 384.25 168.6 L384.65 168.75 385.9 168.4 M383.05 165.65 L381.5 151.05 M381.1 164.35 L379.75 151.2 M377.65 151.5 L378.65 161.45 M383.05 150.95 L383.45 165.85 M390.0 179.95 L385.6 175.05 384.25 175.2 383.7 174.9 384.25 176.2 Q386.85 181.45 391.4 183.55 L391.9 183.75 391.6 183.1 391.25 182.45 Q390.6 181.1 390.4 179.9 390.1 178.6 390.3 177.45 L386.25 173.65 385.25 172.75 384.7 173.05 384.7 174.05 385.6 175.05 M400.95 179.3 L400.05 179.3 Q401.2 180.65 402.3 179.3 403.8 176.7 404.95 175.85 405.35 175.55 405.7 175.45 L406.55 175.5 406.95 174.0 M393.55 175.5 L394.45 175.45 395.2 175.85 Q396.35 176.7 397.85 179.3 398.95 180.65 400.05 179.3 L399.15 179.3 M396.35 186.8 L400.05 186.75 403.8 186.8 404.3 184.75 400.05 184.85 395.85 184.75 M391.0 175.3 Q390.5 176.3 390.3 177.45 M391.9 183.75 L393.4 184.25 M394.0 186.55 L393.3 186.45 M386.25 173.65 Q386.65 170.6 384.65 168.75 M381.65 167.65 Q382.35 171.75 383.7 174.9 M379.45 148.65 L379.25 146.4 M420.55 149.8 L422.65 150.05 422.75 149.15 423.0 146.95 422.6 146.25 Q421.9 145.55 420.9 146.4 M423.95 147.5 L423.9 147.2 423.0 146.95 M406.25 137.2 L406.15 125.1 M422.65 150.05 L424.2 150.25 M422.75 149.15 L423.95 149.45 M422.5 151.5 L421.55 161.45 Q423.7 157.85 424.6 151.85 L422.5 151.5 420.4 151.2 419.05 164.35 Q420.45 163.2 421.55 161.45 M414.35 166.35 L414.25 168.4 415.0 168.7 415.5 168.75 Q416.15 168.65 416.65 168.05 L416.7 165.85 417.1 150.95 417.1 149.5 M416.7 165.85 L417.1 165.65 418.65 151.05 417.1 150.95 M420.4 151.2 L418.65 151.05 M408.75 166.9 L408.25 168.95 M411.45 166.75 L410.9 168.75 414.25 168.4 M421.25 165.2 L420.95 165.6 420.95 165.7 419.9 166.85 418.5 167.65 Q417.8 171.75 416.5 174.9 L416.2 175.55 415.6 176.75 415.0 177.85 Q412.4 182.0 408.25 183.75 L406.75 184.25 406.15 186.55 406.85 186.45 M417.1 165.65 L419.05 164.35 M418.5 167.65 L416.65 168.05 M415.15 149.35 L415.05 150.8 M415.5 168.75 L415.0 169.25 Q413.55 171.05 413.9 173.65 L414.9 172.75 415.45 173.05 415.45 174.05 414.55 175.05 415.0 175.25 416.5 174.9 M410.9 168.75 L409.15 175.3 409.3 175.55 409.7 176.75 409.85 177.45 413.9 173.65 M408.25 183.75 L408.55 183.1 408.9 182.45 409.8 179.9 409.85 177.45 M409.15 175.3 L406.75 184.25 M410.15 179.95 L414.55 175.05 M406.55 175.5 L404.3 184.75 M403.8 186.8 Q405.0 187.95 406.15 186.55" fill="none" stroke="#000000" stroke-linecap="round" stroke-linejoin="round" stroke-opacity="0.5019608" stroke-width="1.0"/>
    <path d="M393.75 125.0 Q388.45 126.15 384.25 129.35 L383.25 130.15 Q378.6 134.05 377.1 139.1 L377.05 139.4 Q375.75 143.3 376.2 147.2 L376.2 149.45 M397.0 124.55 L393.75 125.0 M397.0 124.55 L399.85 124.4 403.2 124.6 406.15 125.1 Q410.9 126.15 414.85 128.95 L416.4 130.15 Q420.95 134.05 422.5 139.0 L422.55 139.35 Q424.05 143.3 423.9 147.2 L423.95 147.2 423.95 147.5 423.95 149.45 424.2 150.25 425.3 150.4 Q426.9 150.7 426.3 152.5 424.5 161.1 421.25 165.2 L420.95 165.7 420.65 166.9 420.6 167.55 Q420.05 172.05 418.8 175.55 L418.3 176.75 Q416.95 179.8 415.0 181.9 411.8 185.4 406.85 186.45 L405.6 188.85 Q405.35 190.15 400.05 190.0 394.8 190.15 394.55 188.85 L393.3 186.45 Q387.65 185.25 384.25 180.85 380.55 176.1 379.55 167.55 L379.45 166.9 379.25 165.7 378.9 165.2 Q375.6 161.1 373.85 152.5 373.25 150.7 374.85 150.4 L375.95 150.25 376.2 149.45" fill="none" stroke="#000000" stroke-linecap="round" stroke-linejoin="round" stroke-width="1.0"/>
  </g>
</svg>
