<?xml version="1.0" encoding="UTF-8" standalone="no"?>
<svg xmlns:xlink="http://www.w3.org/1999/xlink" height="22.2px" width="31.2px" xmlns="http://www.w3.org/2000/svg">
  <g transform="matrix(1.0, 0.0, 0.0, 1.0, 50.65, 160.4)">
    <path d="M-20.15 -152.45 L-21.05 -152.4 -22.75 -152.45 Q-25.2 -152.6 -27.45 -153.45 -38.15 -157.25 -43.55 -153.9 -46.8 -157.15 -50.65 -159.2 -40.75 -162.35 -30.3 -157.2 -26.35 -155.45 -22.75 -154.8 L-19.45 -154.4 -19.55 -152.5 -20.15 -152.45 M-22.75 -146.75 Q-24.95 -144.05 -26.15 -141.15 -28.15 -138.15 -30.8 -138.2 L-32.75 -138.55 Q-33.5 -138.85 -34.25 -139.3 L-35.25 -140.05 Q-37.2 -141.65 -38.4 -143.35 -31.75 -138.3 -22.75 -146.9 L-21.8 -147.85 -22.75 -146.75 M-38.5 -143.5 Q-42.25 -147.75 -50.25 -147.45 -42.4 -152.3 -39.55 -145.45 L-38.5 -143.5" fill="#000000" fill-opacity="0.2509804" fill-rule="evenodd" stroke="none"/>
  </g>
</svg>
