<?xml version="1.0" encoding="UTF-8" standalone="no"?>
<svg xmlns:xlink="http://www.w3.org/1999/xlink" height="50.5px" width="55.1px" xmlns="http://www.w3.org/2000/svg">
  <g transform="matrix(1.0, 0.0, 0.0, 1.0, 27.5, 163.95)">
    <path d="M23.75 -157.7 Q28.55 -143.9 27.35 -131.65 21.6 -128.25 15.75 -126.95 L10.15 -126.1 Q5.85 -129.6 1.95 -126.5 0.75 -124.9 1.95 -123.55 5.7 -120.8 10.15 -123.55 L15.75 -124.25 Q22.05 -125.45 26.95 -128.45 L26.05 -124.15 Q21.45 -118.8 15.75 -116.1 8.95 -112.95 0.55 -113.55 L0.1 -113.6 -0.4 -113.55 Q-8.5 -113.0 -15.1 -115.9 -21.15 -118.55 -25.9 -124.15 -29.95 -139.55 -23.6 -157.7 -20.85 -160.55 -14.95 -162.1 -9.05 -163.65 -0.05 -163.95 L0.1 -163.95 0.2 -163.95 Q9.85 -163.65 15.9 -161.85 21.2 -160.35 23.75 -157.7" fill="url(#gradient0)" fill-rule="evenodd" stroke="none"/>
  </g>
  <defs>
    <linearGradient gradientTransform="matrix(0.0359, 0.0, 0.0, 0.0308, 1.9, -138.7)" gradientUnits="userSpaceOnUse" id="gradient0" spreadMethod="pad" x1="-819.2" x2="819.2">
      <stop offset="0.0" stop-color="#ffffff"/>
      <stop offset="0.49019607843137253" stop-color="#ffffff" stop-opacity="0.0"/>
      <stop offset="1.0" stop-color="#ffffff"/>
    </linearGradient>
  </defs>
</svg>
