<?xml version="1.0" encoding="UTF-8" standalone="no"?>
<svg xmlns:xlink="http://www.w3.org/1999/xlink" height="42.7px" width="47.1px" xmlns="http://www.w3.org/2000/svg">
  <g transform="matrix(1.0, 0.0, 0.0, 1.0, -376.4, -106.65)">
    <path d="M379.1 138.75 L384.65 142.15 Q390.6 146.8 400.35 146.75 409.3 146.8 415.25 142.15 L420.8 138.75 Q426.2 137.1 420.8 147.25 411.15 149.5 399.95 149.35 388.75 149.5 379.1 147.25 373.7 137.1 379.1 138.75 M381.95 136.95 Q381.85 125.85 377.75 115.6 387.55 106.35 399.95 106.65 412.35 106.35 422.15 115.6 418.05 125.85 417.95 136.95 408.5 134.35 399.95 134.65 391.4 134.35 381.95 136.95" fill="#000000" fill-rule="evenodd" stroke="none"/>
  </g>
</svg>
