<?xml version="1.0" encoding="UTF-8" standalone="no"?>
<svg xmlns:xlink="http://www.w3.org/1999/xlink" height="56.9px" width="76.6px" xmlns="http://www.w3.org/2000/svg">
  <g transform="matrix(1.0, 0.0, 0.0, 1.0, -361.65, -164.9)">
    <path d="M379.95 167.5 Q388.45 179.95 399.95 179.55 411.45 179.95 419.95 167.5 421.65 165.0 423.7 164.9 429.0 164.6 436.8 180.35 440.25 189.75 435.35 191.95 422.0 199.7 417.75 208.75 412.55 222.35 399.95 221.8 387.35 222.35 382.15 208.75 377.9 199.7 364.55 191.95 359.65 189.75 363.1 180.35 370.9 164.6 376.2 164.9 378.25 165.0 379.95 167.5 M423.25 174.75 L422.55 174.65 Q420.4 174.65 418.9 177.65 417.35 180.65 417.35 184.9 417.35 189.15 418.9 192.15 420.4 195.15 422.55 195.15 L423.25 195.1 423.95 195.15 Q426.1 195.15 427.65 192.15 429.15 189.15 429.15 184.9 429.15 180.65 427.65 177.65 426.1 174.65 423.95 174.65 L423.25 174.75 M382.55 184.9 Q382.55 180.65 381.0 177.65 379.5 174.65 377.35 174.65 L376.65 174.75 375.95 174.65 Q373.8 174.65 372.25 177.65 370.75 180.65 370.75 184.9 370.75 189.15 372.25 192.15 373.8 195.15 375.95 195.15 L376.65 195.1 377.35 195.15 Q379.5 195.15 381.0 192.15 382.55 189.15 382.55 184.9" fill="#000000" fill-rule="evenodd" stroke="none"/>
  </g>
</svg>
