<?xml version="1.0" encoding="UTF-8" standalone="no"?>
<svg xmlns:xlink="http://www.w3.org/1999/xlink" height="69.1px" width="123.1px" xmlns="http://www.w3.org/2000/svg">
  <g transform="matrix(1.0, 0.0, 0.0, 1.0, -198.95, -365.4)">
    <path d="M200.7 376.05 L203.0 373.7 Q203.3 374.6 204.35 374.25 L202.1 376.55 200.4 381.45 200.7 384.7 Q200.1 383.75 199.35 384.2 L198.95 381.0 200.7 376.05 M218.6 367.2 L216.3 369.4 214.5 374.25 214.7 377.4 Q214.2 376.3 213.3 376.95 L213.15 373.8 215.0 368.85 217.25 366.65 Q217.5 367.65 218.6 367.2 M203.9 377.2 L206.15 374.9 Q206.45 375.95 207.55 375.4 L205.35 377.7 203.65 382.6 203.95 385.8 Q203.45 384.65 202.5 385.25 L202.2 382.05 203.9 377.2 M215.45 365.9 L213.15 368.2 211.25 373.0 211.5 376.3 Q210.95 375.3 210.15 375.8 L209.9 372.5 211.75 367.65 214.1 365.4 Q214.4 366.3 215.45 365.9 M311.3 403.5 L321.5 407.6 321.6 409.1 321.2 410.0 Q322.4 410.85 321.9 412.2 321.5 413.15 320.55 413.25 L319.7 415.7 320.15 416.4 Q320.45 417.05 320.25 417.8 L319.15 420.75 Q318.85 421.5 318.2 421.85 L317.4 421.95 316.65 424.05 317.15 424.65 Q317.45 425.3 317.15 426.1 L316.15 429.0 Q315.85 429.75 315.2 430.1 L313.75 430.25 312.25 431.75 312.3 431.75 Q312.6 432.45 312.35 433.25 L312.3 433.3 312.25 433.4 Q312.0 434.0 311.4 434.3 L309.95 434.4 307.05 433.35 Q306.3 433.0 305.95 432.35 305.65 431.7 305.75 431.1 L305.9 430.9 Q306.15 430.2 306.8 429.8 L306.75 427.6 306.6 427.55 306.5 427.55 305.7 426.7 305.65 426.6 Q305.35 425.9 305.65 425.15 L306.65 422.25 Q306.95 421.5 307.65 421.1 L308.45 421.0 308.45 420.8 308.3 420.8 298.25 417.5 298.1 415.9 298.15 415.6 300.0 410.4 301.15 409.3 311.4 413.15 311.6 414.6 311.25 415.6 Q312.45 416.4 312.0 417.7 311.65 418.65 310.7 418.85 L309.75 421.5 310.15 422.1 Q310.5 422.8 310.2 423.6 L309.2 426.45 Q308.9 427.25 308.15 427.55 L308.05 427.6 308.15 429.7 308.3 429.75 311.25 430.8 311.3 430.85 312.65 429.3 312.6 429.2 Q312.3 428.5 312.6 427.7 L313.65 424.85 Q313.95 424.05 314.6 423.75 L315.3 423.5 316.1 421.5 315.6 420.95 Q315.3 420.2 315.6 419.5 L316.7 416.55 Q316.95 415.8 317.6 415.5 L317.9 415.35 318.35 415.25 317.75 415.1 308.15 411.65 308.05 410.0 308.1 409.8 310.1 404.55 311.0 403.65 311.3 403.5 M317.6 416.85 L316.5 419.8 316.45 420.4 316.7 419.85 317.05 419.55 317.55 419.5 317.6 419.55 317.95 419.85 318.0 420.35 317.75 420.9 318.25 420.45 319.35 417.5 319.25 416.8 319.1 417.35 318.75 417.75 318.25 417.8 318.2 417.75 317.85 417.45 Q317.65 417.1 317.75 416.85 L317.95 416.3 Q317.65 416.5 317.6 416.85 M309.25 422.85 L308.85 423.3 308.35 423.35 308.3 423.3 307.95 422.9 Q307.8 422.7 307.95 422.4 L308.05 422.0 308.0 422.0 307.5 422.6 306.5 425.5 Q306.35 425.85 306.5 426.15 L306.65 426.4 306.6 426.05 306.85 425.55 307.25 425.3 307.35 425.3 307.8 425.5 308.05 426.0 308.05 426.45 308.3 426.15 309.3 423.3 309.35 422.55 309.25 422.85 M314.75 425.0 L314.95 424.6 Q314.6 424.8 314.55 425.15 L313.5 428.0 313.4 428.5 313.75 428.1 314.25 427.85 314.7 428.0 314.75 428.0 314.95 428.5 314.85 429.0 314.55 429.3 314.75 429.2 315.25 428.7 316.25 425.8 316.25 425.1 316.1 425.5 315.75 425.9 315.25 426.0 315.2 425.9 314.85 425.6 314.75 425.0 M308.25 431.5 L308.05 432.0 307.55 432.2 307.55 432.15 307.1 432.0 306.85 431.5 306.8 431.1 306.8 431.2 Q306.6 431.55 306.85 431.9 306.95 432.3 307.35 432.45 L310.25 433.5 311.0 433.4 311.55 432.95 311.55 432.65 311.15 433.05 Q311.0 433.3 310.7 433.3 310.4 433.3 310.2 433.1 L310.15 433.1 309.9 432.65 310.1 432.15 310.65 431.55 308.25 430.65 308.25 431.5" fill="#ffffff" fill-rule="evenodd" stroke="none"/>
  </g>
</svg>
