<?xml version="1.0" encoding="UTF-8" standalone="no"?>
<svg xmlns:xlink="http://www.w3.org/1999/xlink" height="156.25px" width="142.2px" xmlns="http://www.w3.org/2000/svg">
  <g transform="matrix(1.0, 0.0, 0.0, 1.0, -328.8, -153.1)">
    <path d="M390.1 155.2 Q394.15 153.5 399.9 153.1 405.65 153.5 409.7 155.2 L414.75 174.95 415.5 177.2 Q417.75 183.75 420.75 190.1 423.35 195.6 426.5 200.95 L433.15 200.4 456.55 199.25 Q459.6 199.75 462.0 200.7 466.2 202.4 468.45 205.6 470.7 208.7 470.95 213.25 471.4 220.4 467.05 231.05 L464.15 235.55 Q458.3 243.75 452.15 245.9 447.65 247.4 443.05 245.75 444.65 249.15 443.6 254.35 442.4 261.85 433.9 265.15 L430.65 265.0 428.65 269.25 423.4 284.2 420.45 308.75 406.15 309.35 399.9 309.3 393.9 309.35 393.5 309.35 379.35 308.75 376.4 284.2 371.15 269.25 369.15 265.0 365.9 265.15 Q357.4 261.85 356.2 254.35 355.15 249.15 356.75 245.75 352.15 247.4 347.65 245.9 341.5 243.75 335.65 235.55 L332.75 231.05 Q328.4 220.4 328.85 213.25 329.1 208.7 331.35 205.6 333.55 202.4 337.8 200.7 340.2 199.75 343.25 199.25 L366.65 200.4 373.3 200.95 Q376.45 195.6 379.05 190.1 382.05 183.75 384.3 177.2 L385.05 174.95 390.1 155.2" fill="#000000" fill-rule="evenodd" stroke="none"/>
  </g>
</svg>
