<?xml version="1.0" encoding="UTF-8" standalone="no"?>
<svg xmlns:xlink="http://www.w3.org/1999/xlink" height="68.55px" width="143.15px" xmlns="http://www.w3.org/2000/svg">
  <g transform="matrix(1.0, 0.0, 0.0, 1.0, -328.35, -172.3)">
    <path d="M348.05 193.4 L357.65 190.05 M380.6 176.25 L380.95 172.8 M365.9 187.55 L372.35 185.9 M419.2 176.25 L418.85 172.8 M427.45 185.9 L433.9 187.55 M451.8 193.4 Q447.05 191.6 442.2 190.05" fill="none" stroke="#000000" stroke-linecap="round" stroke-linejoin="round" stroke-width="1.0"/>
    <path d="M357.65 190.05 L357.8 191.45 Q357.8 192.95 357.1 194.25 355.9 196.5 353.0 196.5 351.5 196.5 349.15 194.45 L348.05 193.4 M362.75 195.45 L366.4 191.95 Q370.0 189.45 370.0 193.8 368.8 199.05 366.35 199.05 365.0 199.05 363.75 197.25 L362.75 195.45 M380.95 172.8 L381.2 172.95 Q382.75 173.95 382.75 175.0 382.75 175.45 382.35 176.0 381.9 176.6 381.2 176.6 L380.6 176.25 M383.65 183.65 Q385.5 183.2 385.5 184.85 385.5 185.45 384.85 186.3 384.05 187.4 383.05 187.4 382.65 187.4 382.2 186.5 L381.75 185.4 Q381.75 184.1 383.65 183.65 M372.35 185.9 L372.15 186.25 Q371.1 187.85 368.45 187.85 L365.9 187.55 M380.65 196.8 Q380.65 197.4 379.5 198.15 378.45 198.9 378.0 198.9 377.05 198.9 376.45 198.0 376.0 197.4 376.0 197.05 376.0 195.95 379.8 195.8 380.65 196.05 380.65 196.8 M418.85 172.8 L418.6 172.95 Q417.05 173.95 417.05 175.0 417.05 175.45 417.45 176.0 417.9 176.6 418.6 176.6 L419.2 176.25 M416.15 183.65 Q414.3 183.2 414.3 184.85 414.3 185.45 414.95 186.3 415.75 187.4 416.75 187.4 417.15 187.4 417.6 186.5 L418.05 185.4 Q418.05 184.1 416.15 183.65 M420.0 195.8 Q419.15 196.05 419.15 196.8 419.15 197.4 420.3 198.15 421.35 198.9 421.8 198.9 422.75 198.9 423.35 198.0 L423.8 197.05 Q423.8 195.95 420.0 195.8 M433.9 187.55 L431.35 187.85 Q428.7 187.85 427.65 186.25 L427.45 185.9 M429.8 193.8 Q431.0 199.05 433.45 199.05 434.8 199.05 436.05 197.25 L437.05 195.45 433.4 191.95 Q429.8 189.45 429.8 193.8 M442.2 190.05 L442.0 191.45 Q442.0 192.95 442.7 194.25 443.9 196.5 446.8 196.5 448.3 196.5 450.65 194.45 L451.8 193.4 M462.05 199.2 Q461.45 199.8 461.2 200.4 460.55 201.8 460.55 203.95 460.55 205.15 461.65 206.65 463.0 208.6 464.95 208.6 L466.55 207.55 Q467.75 206.75 468.9 206.25 M471.0 213.5 L469.85 213.45 Q466.8 213.55 466.8 215.75 466.8 216.7 467.8 217.5 468.8 218.35 470.15 218.35 L470.75 218.3 M452.05 214.0 Q453.45 221.5 457.35 221.5 460.2 221.5 461.8 219.5 462.95 218.1 462.95 216.9 462.95 212.9 457.5 211.5 455.3 210.9 453.75 211.5 452.05 212.15 452.05 214.0 M457.8 225.95 Q457.45 223.05 453.8 224.55 452.15 225.25 451.15 225.95 449.8 226.95 449.8 228.0 449.8 228.85 450.85 229.75 452.1 230.8 453.8 230.8 455.95 230.8 457.05 228.85 457.8 227.6 457.8 226.55 L457.8 225.95 M464.85 234.6 L466.95 231.25 465.55 231.4 Q464.55 231.7 464.55 233.4 464.55 234.05 464.85 234.6 M447.2 237.35 Q445.05 237.1 445.05 238.4 445.05 239.05 445.55 239.6 L446.55 240.2 447.6 240.35 448.7 240.2 449.25 239.8 449.4 239.15 Q449.4 237.55 447.2 237.35 M440.65 208.3 Q440.65 209.25 441.9 210.75 443.3 212.4 444.7 212.4 L448.8 208.45 Q448.8 205.7 444.7 205.3 440.65 204.85 440.65 208.3 M425.5 216.5 Q423.75 217.1 423.75 218.3 423.75 218.85 424.6 219.5 425.35 220.1 425.85 220.1 426.75 220.1 426.8 219.1 L426.7 218.05 Q426.7 217.75 427.0 217.65 L427.3 217.25 Q427.3 215.95 425.5 216.5 M440.0 219.4 Q437.0 219.4 436.2 220.6 435.85 221.2 436.05 221.9 436.05 223.05 437.15 224.3 438.45 225.75 440.35 225.75 443.0 225.75 444.5 223.35 445.55 221.75 445.55 220.6 445.55 218.3 444.45 218.55 L440.0 219.4 M420.95 207.4 Q420.95 208.0 421.5 208.55 422.1 209.25 423.1 209.25 424.0 209.25 424.7 208.1 L425.2 207.05 Q425.2 204.85 423.05 205.4 420.95 205.9 420.95 207.4 M435.8 230.9 Q435.8 229.75 433.8 228.65 431.8 227.55 431.8 230.55 431.8 231.2 432.65 231.65 L434.25 232.05 Q435.4 232.05 435.7 231.5 L435.8 230.9 M375.1 208.1 L374.6 207.05 Q374.6 204.85 376.75 205.4 378.85 205.9 378.85 207.4 378.85 208.0 378.3 208.55 377.7 209.25 376.7 209.25 375.8 209.25 375.1 208.1 M373.0 219.1 L373.1 218.05 372.8 217.65 372.5 217.25 Q372.5 215.95 374.3 216.5 376.05 217.1 376.05 218.3 376.05 218.85 375.2 219.5 374.45 220.1 373.95 220.1 373.05 220.1 373.0 219.1 M365.55 232.05 Q364.4 232.05 364.1 231.5 L364.0 230.9 Q364.0 229.75 366.0 228.65 368.0 227.55 368.0 230.55 368.0 231.2 367.15 231.65 L365.55 232.05 M359.15 208.3 Q359.15 209.25 357.9 210.75 356.5 212.4 355.1 212.4 L351.0 208.45 Q351.0 205.7 355.1 205.3 359.15 204.85 359.15 208.3 M347.75 214.0 Q346.35 221.5 342.45 221.5 339.6 221.5 338.0 219.5 336.85 218.1 336.85 216.9 336.85 212.9 342.3 211.5 344.5 210.9 346.05 211.5 347.75 212.15 347.75 214.0 M363.6 220.6 Q363.95 221.2 363.75 221.9 363.75 223.05 362.65 224.3 361.35 225.75 359.45 225.75 356.8 225.75 355.3 223.35 354.25 221.75 354.25 220.6 354.25 218.3 355.35 218.55 L359.8 219.4 Q362.8 219.4 363.6 220.6 M330.95 206.25 L333.25 207.55 334.85 208.6 Q336.8 208.6 338.15 206.65 339.25 205.15 339.25 203.95 339.25 201.8 338.65 200.4 L337.8 199.15 M328.85 213.5 L329.95 213.45 Q333.0 213.55 333.0 215.75 333.0 216.7 332.0 217.5 331.0 218.35 329.65 218.35 L329.1 218.3 M342.05 225.95 Q342.35 223.05 346.0 224.55 L348.65 225.95 Q350.0 226.95 350.0 228.0 350.0 228.85 348.95 229.75 347.7 230.8 346.0 230.8 343.85 230.8 342.75 228.85 342.0 227.6 342.0 226.55 L342.05 225.95 M335.25 233.4 L335.0 234.6 332.9 231.25 334.25 231.4 Q335.25 231.7 335.25 233.4 M352.6 237.35 Q354.75 237.1 354.75 238.4 354.75 239.05 354.25 239.6 L353.3 240.2 352.2 240.35 351.15 240.2 350.55 239.8 350.4 239.15 Q350.4 237.55 352.6 237.35" fill="none" stroke="#000000" stroke-linecap="round" stroke-linejoin="round" stroke-opacity="0.5019608" stroke-width="1.0"/>
  </g>
</svg>
