<?xml version="1.0" encoding="UTF-8" standalone="no"?>
<svg xmlns:xlink="http://www.w3.org/1999/xlink" height="21.1px" width="30.35px" xmlns="http://www.w3.org/2000/svg">
  <g transform="matrix(1.0, 0.0, 0.0, 1.0, -384.0, -250.05)">
    <path d="M404.55 263.7 L414.35 271.15 401.25 271.15 384.0 271.15 391.55 268.5 393.0 257.7 397.9 259.5 398.9 259.9 399.8 260.05 Q400.35 260.05 400.8 259.35 401.25 258.75 401.25 257.9 401.25 256.9 400.55 256.15 399.9 255.35 398.45 254.75 L389.25 251.55 399.8 250.35 401.85 250.15 403.4 250.05 Q407.6 250.05 409.7 251.8 411.85 253.5 411.85 256.8 411.85 259.6 410.05 261.3 408.2 263.1 404.55 263.7 M397.75 263.55 L398.15 268.4 401.25 271.15 404.3 270.05 399.1 263.75 398.45 263.65 397.75 263.55" fill="#000000" fill-rule="evenodd" stroke="none"/>
  </g>
</svg>
