<?xml version="1.0" encoding="UTF-8" standalone="no"?>
<svg xmlns:xlink="http://www.w3.org/1999/xlink" height="18.2px" width="23.75px" xmlns="http://www.w3.org/2000/svg">
  <g transform="matrix(1.0, 0.0, 0.0, 1.0, -388.15, -252.75)">
    <path d="M407.45 254.7 Q410.0 256.15 411.05 259.25 L403.5 260.05 Q403.1 258.9 402.35 258.45 401.6 258.0 400.3 258.0 398.7 258.0 397.65 259.0 396.65 259.95 396.65 262.1 396.65 263.95 397.65 264.85 398.65 265.8 400.2 265.8 401.5 265.8 402.4 265.2 403.3 264.7 403.85 263.3 L411.4 264.0 Q410.8 266.2 409.4 267.6 408.05 268.95 405.95 269.7 403.85 270.45 400.6 270.45 L395.45 270.0 Q393.35 269.5 391.85 268.4 390.35 267.3 389.5 265.8 388.65 264.35 388.65 261.9 388.65 259.35 389.65 257.7 390.45 256.45 391.75 255.45 393.1 254.45 394.5 254.0 396.65 253.25 400.1 253.25 404.9 253.25 407.45 254.7 Z" fill="none" stroke="#000000" stroke-linecap="round" stroke-linejoin="round" stroke-opacity="0.5019608" stroke-width="1.0"/>
  </g>
</svg>
