<?xml version="1.0" encoding="UTF-8" standalone="no"?>
<svg xmlns:xlink="http://www.w3.org/1999/xlink" height="22.5px" width="23.1px" xmlns="http://www.w3.org/2000/svg">
  <g transform="matrix(1.0, 0.0, 0.0, 1.0, -388.9, -247.6)">
    <path d="M412.0 254.6 Q412.0 258.0 409.5 260.0 407.0 262.0 401.9 262.0 L397.85 262.0 397.85 270.1 388.9 270.1 388.9 247.6 402.8 247.6 Q407.35 247.6 409.7 249.45 412.0 251.25 412.0 254.6 M397.85 256.9 L399.45 256.9 Q401.65 256.9 402.5 256.35 403.35 255.75 403.35 254.8 403.35 253.9 402.6 253.25 401.9 252.6 399.75 252.6 L397.85 252.6 397.85 256.9" fill="#000000" fill-rule="evenodd" stroke="none"/>
  </g>
</svg>
