<?xml version="1.0" encoding="UTF-8" standalone="no"?>
<svg xmlns:xlink="http://www.w3.org/1999/xlink" height="198.8px" width="63.15px" xmlns="http://www.w3.org/2000/svg">
  <g transform="matrix(1.0, 0.0, 0.0, 1.0, -284.5, -196.9)">
    <path d="M347.65 245.9 Q344.8 253.3 341.0 260.5 333.7 273.9 322.8 286.25 330.2 295.4 332.35 305.65 327.0 318.95 317.3 332.15 317.15 334.85 317.35 337.5 L317.7 341.0 318.1 343.2 Q318.7 345.9 319.7 348.5 L329.7 353.7 337.9 359.25 340.0 363.4 337.85 364.9 Q339.5 366.3 340.45 368.15 337.1 368.6 334.0 363.7 L326.9 362.95 326.9 373.15 327.8 377.9 330.15 382.15 333.35 385.0 Q334.9 388.8 333.25 390.8 L331.5 388.05 329.7 390.3 325.5 386.65 322.05 381.4 319.95 375.75 319.2 379.2 321.2 384.85 323.9 389.65 Q324.25 393.3 322.25 394.8 L321.25 392.2 318.95 393.05 319.95 395.7 315.4 387.25 313.3 380.15 312.7 374.6 311.2 373.1 310.35 378.7 311.65 384.6 314.35 389.9 Q314.45 391.05 313.85 392.15 L313.15 393.1 312.2 390.05 310.3 391.95 308.05 387.8 Q307.5 389.45 306.75 390.2 L305.75 387.95 304.65 389.15 304.7 389.25 302.25 384.85 301.15 378.15 301.05 370.65 296.75 354.25 294.8 353.0 284.95 309.25 Q282.8 294.9 290.5 282.4 L288.2 275.65 294.85 267.25 Q298.25 256.45 298.45 245.65 293.7 228.55 298.45 216.5 309.7 193.8 338.35 197.4 L337.8 200.7 Q333.55 202.4 331.35 205.6 325.65 213.6 332.75 231.05 339.95 243.2 347.65 245.9" fill="#000000" fill-rule="evenodd" stroke="none"/>
  </g>
</svg>
