<?xml version="1.0" encoding="UTF-8" standalone="no"?>
<svg xmlns:xlink="http://www.w3.org/1999/xlink" height="173.1px" width="63.15px" xmlns="http://www.w3.org/2000/svg">
  <g transform="matrix(1.0, 0.0, 0.0, 1.0, -284.5, -196.9)">
    <path d="M331.35 205.6 Q325.65 213.6 332.75 231.05 339.95 243.2 347.65 245.9 344.8 253.3 341.0 260.5 333.7 273.9 322.8 286.25 330.2 295.4 332.35 305.65 327.0 318.95 317.3 332.15 317.05 336.7 317.7 341.0 L318.1 343.2 Q318.7 345.85 319.7 348.45 L319.7 348.5 Q323.5 350.15 327.8 349.65 L325.85 351.7 Q324.2 353.0 322.05 353.55 324.7 359.55 321.65 365.55 321.2 363.2 319.55 361.2 318.5 364.5 315.25 367.75 315.1 364.65 312.75 361.5 310.85 366.1 305.75 368.6 305.5 366.55 304.25 364.85 302.75 367.0 300.55 368.7 L298.65 370.0 Q298.6 362.2 296.75 354.25 L294.8 353.0 284.95 309.25 Q282.8 294.9 290.5 282.4 L288.2 275.65 294.85 267.25 Q298.25 256.45 298.45 245.65 293.7 228.55 298.45 216.5 309.7 193.8 338.35 197.4 L337.8 200.7 Q333.55 202.4 331.35 205.6" fill="#000000" fill-rule="evenodd" stroke="none"/>
  </g>
</svg>
