<?xml version="1.0" encoding="UTF-8" standalone="no"?>
<svg xmlns:xlink="http://www.w3.org/1999/xlink" height="187.35px" width="64.15px" xmlns="http://www.w3.org/2000/svg">
  <g transform="matrix(1.0, 0.0, 0.0, 1.0, -284.0, -196.4)">
    <path d="M298.45 245.65 Q318.85 244.5 332.75 231.05 339.95 243.2 347.65 245.9 344.8 253.3 341.0 260.5 M326.9 362.9 L326.9 373.15 327.65 374.6 329.3 377.2 M326.9 362.9 L326.9 357.65 M327.65 374.6 L325.55 375.9 M322.8 286.25 L315.05 294.5 Q307.85 283.7 295.1 276.1 292.45 279.2 290.5 282.4 M324.7 368.95 Q320.65 374.1 312.7 372.9 L304.1 370.9 M296.75 354.25 L299.9 356.15 M318.0 380.05 L314.0 375.55" fill="none" stroke="#000000" stroke-linecap="round" stroke-linejoin="round" stroke-opacity="0.5019608" stroke-width="1.0"/>
    <path d="M341.0 260.5 Q333.7 273.9 322.8 286.25 330.2 295.4 332.35 305.65 327.0 318.95 317.3 332.15 317.05 336.7 317.7 341.0 L318.1 343.2 Q318.7 345.9 319.7 348.5 L329.7 353.7 336.2 361.15 338.1 370.25 Q333.95 371.25 331.8 366.0 L331.25 364.45 326.9 362.9 M329.3 377.2 Q325.85 386.05 319.7 382.0 L318.0 380.05 301.4 372.0 296.75 354.25 294.8 353.0 284.95 309.25 Q282.8 294.9 290.5 282.4 L288.2 275.65 294.85 267.25 Q298.25 256.45 298.45 245.65 293.7 228.55 298.45 216.5 309.7 193.8 338.35 197.4" fill="none" stroke="#000000" stroke-linecap="round" stroke-linejoin="round" stroke-width="1.0"/>
  </g>
</svg>
