<?xml version="1.0" encoding="UTF-8" standalone="no"?>
<svg xmlns:xlink="http://www.w3.org/1999/xlink" height="11.0px" width="34.0px" xmlns="http://www.w3.org/2000/svg">
  <g transform="matrix(1.0, 0.0, 0.0, 1.0, -382.9, -149.9)">
    <path d="M415.1 150.4 Q416.55 151.75 416.4 153.75 416.3 155.65 415.2 157.15 L414.55 157.9 413.95 158.4 412.35 159.4 Q410.65 160.2 408.75 160.35 407.0 160.5 405.4 159.7 L404.8 159.3 404.1 158.75 Q402.4 157.55 400.3 157.6 L400.2 157.6 399.85 157.6 399.4 157.6 Q397.4 157.55 395.75 158.75 L395.05 159.3 394.4 159.7 Q392.85 160.5 391.0 160.35 389.2 160.2 387.45 159.4 L385.25 157.9 384.6 157.15 Q383.55 155.65 383.4 153.75 383.2 151.75 384.65 150.4 M396.95 160.4 L397.2 160.2 Q398.4 159.35 399.85 159.3 L400.0 159.3 Q401.4 159.35 402.5 160.2 402.8 160.25 402.9 160.4" fill="none" stroke="#000000" stroke-linecap="round" stroke-linejoin="round" stroke-opacity="0.5019608" stroke-width="1.0"/>
  </g>
</svg>
