<?xml version="1.0" encoding="UTF-8" standalone="no"?>
<svg xmlns:xlink="http://www.w3.org/1999/xlink" height="8.3px" width="22.2px" xmlns="http://www.w3.org/2000/svg">
  <g transform="matrix(1.0, 0.0, 0.0, 1.0, -389.6, -154.0)">
    <path d="M401.85 156.4 Q402.15 155.2 401.9 154.05 408.65 154.55 411.8 158.35 410.05 160.5 406.65 161.5 406.85 160.1 406.15 158.85 405.2 159.2 404.35 158.85 403.85 160.5 404.35 162.05 400.65 162.55 395.65 162.1 396.2 160.85 395.65 159.7 394.35 159.9 393.05 159.7 392.6 160.65 393.05 161.7 L391.85 161.5 Q388.25 160.2 390.4 154.9 L392.35 154.55 Q391.75 155.8 392.35 157.1 393.8 156.65 395.0 157.1 395.8 155.6 395.25 154.15 L399.0 154.0 Q398.45 155.15 399.0 156.4 400.4 156.1 401.85 156.4" fill="#000000" fill-rule="evenodd" stroke="none"/>
  </g>
</svg>
