<?xml version="1.0" encoding="UTF-8" standalone="no"?>
<svg xmlns:xlink="http://www.w3.org/1999/xlink" height="23.0px" width="30.3px" xmlns="http://www.w3.org/2000/svg">
  <g transform="matrix(1.0, 0.0, 0.0, 1.0, -384.75, -144.8)">
    <path d="M391.8 149.1 Q392.7 150.7 394.0 150.5 L394.05 150.45 394.15 150.3 Q395.7 150.9 397.0 152.35 L397.05 152.35 397.1 152.4 397.25 152.65 Q397.85 153.55 399.25 154.2 L400.55 154.2 Q401.95 153.55 402.5 152.65 L402.65 152.4 402.7 152.35 402.8 152.35 Q404.1 150.9 405.7 150.3 L405.7 150.45 405.75 150.5 Q407.05 150.7 408.0 149.1 L408.15 148.1 408.65 146.75 408.65 146.4 408.65 145.9 408.5 144.85 408.8 144.8 409.1 144.8 412.05 146.1 Q413.9 147.0 414.55 148.05 L414.8 148.05 414.95 149.3 415.0 151.55 414.95 151.95 414.85 152.0 414.95 152.25 414.8 153.55 414.35 155.05 414.3 155.65 414.85 157.8 Q415.95 163.85 410.75 166.05 407.7 167.4 402.5 167.4 L399.9 167.8 397.25 167.4 Q392.05 167.4 389.0 166.05 383.8 163.85 384.95 157.8 385.1 156.75 385.5 155.65 L385.4 155.05 385.05 153.55 384.85 152.25 384.75 151.95 384.75 151.55 Q384.75 150.4 384.9 149.3 L384.95 148.05 385.25 148.05 Q385.9 147.0 387.7 146.1 L390.6 144.8 390.95 144.8 391.25 144.85 391.15 145.9 391.15 146.4 391.2 146.75 391.55 148.1 Q391.45 148.5 391.8 149.1 M399.15 156.75 L396.8 157.8 395.65 158.1 399.4 158.5 399.6 158.5 399.65 158.5 400.1 158.5 400.2 158.5 400.35 158.5 404.15 158.1 402.95 157.8 400.65 156.75 400.45 156.7 400.35 156.6 400.35 156.7 400.25 156.7 400.1 156.6 399.55 156.7 399.4 156.7 399.15 156.75 M400.1 156.6 L400.2 156.55 400.1 156.3 400.1 156.6" fill="#000000" fill-rule="evenodd" stroke="none"/>
  </g>
</svg>
