<?xml version="1.0" encoding="UTF-8" standalone="no"?>
<svg xmlns:xlink="http://www.w3.org/1999/xlink" height="12.3px" width="21.55px" xmlns="http://www.w3.org/2000/svg">
  <g transform="matrix(1.0, 0.0, 0.0, 1.0, -389.2, -152.75)">
    <path d="M390.1 161.1 Q391.55 163.85 395.1 162.65 397.1 161.55 400.0 161.3 402.85 161.55 404.85 162.65 408.45 163.85 409.85 161.1 410.85 158.1 409.35 155.6 407.7 152.35 403.6 153.55 401.8 154.4 400.0 154.3 398.15 154.4 396.35 153.55 392.25 152.35 390.6 155.6 389.15 158.1 390.1 161.1 M406.15 164.55 Q403.7 162.95 400.0 162.85 396.3 162.95 393.8 164.55" fill="none" stroke="#000000" stroke-linecap="round" stroke-linejoin="round" stroke-opacity="0.5019608" stroke-width="1.0"/>
  </g>
</svg>
