<?xml version="1.0" encoding="UTF-8" standalone="no"?>
<svg xmlns:xlink="http://www.w3.org/1999/xlink" height="12.4px" width="23.4px" xmlns="http://www.w3.org/2000/svg">
  <g transform="matrix(1.0, 0.0, 0.0, 1.0, -388.8, -153.35)">
    <path d="M395.15 154.0 Q395.7 155.45 394.9 156.95 393.7 156.5 392.25 156.95 391.65 155.65 392.25 154.4 L390.3 154.75 Q388.15 160.05 391.75 161.35 L392.95 161.55 Q392.5 160.5 392.95 159.55 394.25 159.75 395.55 159.55 396.1 160.7 395.55 161.95 400.55 162.4 404.25 161.9 403.75 160.35 404.25 158.7 405.1 159.05 406.05 158.7 406.75 159.95 406.55 161.35 409.95 160.35 411.7 158.2 408.55 154.4 401.8 153.9 402.05 155.05 401.75 156.25 400.3 155.95 398.9 156.25 398.35 155.0 398.9 153.85 L395.15 154.0 392.25 154.4 M398.9 153.85 L401.8 153.9 M391.75 161.35 L389.65 161.35 Q387.7 163.3 396.45 165.25 M392.95 161.55 L395.55 161.95 M404.25 161.9 L406.55 161.35" fill="none" stroke="#000000" stroke-linecap="round" stroke-linejoin="round" stroke-opacity="0.49803922" stroke-width="1.0"/>
  </g>
</svg>
