<?xml version="1.0" encoding="UTF-8" standalone="no"?>
<svg xmlns:xlink="http://www.w3.org/1999/xlink" height="5.4px" width="12.85px" xmlns="http://www.w3.org/2000/svg">
  <g transform="matrix(1.0, 0.0, 0.0, 1.0, -393.35, -193.3)">
    <path d="M393.55 194.75 L393.35 194.0 Q393.55 193.4 394.95 193.35 L396.65 193.5 396.8 193.55 397.7 193.85 398.1 194.05 399.4 194.3 400.15 194.3 401.45 194.05 401.9 193.85 402.75 193.55 402.9 193.5 404.6 193.35 Q406.0 193.4 406.15 194.0 L406.0 194.75 Q405.3 196.0 404.3 195.85 L404.25 195.8 404.25 195.7 404.2 195.6 404.2 195.3 403.25 195.25 402.85 195.45 402.5 195.7 Q401.8 196.35 402.0 197.25 L401.95 197.25 401.9 197.3 401.8 197.5 Q401.35 198.2 400.3 198.7 L399.3 198.7 Q398.2 198.2 397.75 197.5 L397.65 197.3 397.6 197.25 397.55 197.25 Q397.75 196.35 397.05 195.7 L396.7 195.45 396.3 195.25 395.35 195.3 395.35 195.6 395.35 195.7 395.3 195.8 395.25 195.85 Q394.25 196.0 393.55 194.75" fill="#000000" fill-rule="evenodd" stroke="none"/>
  </g>
</svg>
