<?xml version="1.0" encoding="UTF-8" standalone="no"?>
<svg xmlns:xlink="http://www.w3.org/1999/xlink" height="15.65px" width="33.3px" xmlns="http://www.w3.org/2000/svg">
  <g transform="matrix(1.0, 0.0, 0.0, 1.0, -383.3, -252.0)">
    <path d="M387.65 257.7 Q386.75 257.7 386.15 258.3 385.55 258.9 385.55 259.65 385.55 260.65 386.15 261.15 386.7 261.7 387.65 261.7 388.6 261.7 389.15 261.15 389.7 260.7 389.7 259.65 389.7 258.9 389.1 258.3 388.5 257.7 387.65 257.7 M416.55 258.9 L416.6 259.1 416.45 259.55 413.0 263.2 411.05 261.3 409.1 263.05 407.2 261.3 405.3 263.05 403.45 261.3 401.1 263.6 398.0 263.6 Q396.95 265.45 395.05 266.55 393.2 267.65 391.05 267.65 L388.4 267.2 386.05 265.85 Q385.0 265.0 384.3 263.85 383.65 262.85 383.3 261.3 L383.3 259.85 Q383.3 258.35 383.9 256.85 384.45 255.4 385.5 254.35 386.45 253.35 387.95 252.6 389.4 252.0 391.05 252.0 393.15 252.0 394.95 253.05 396.75 254.1 397.9 255.9 L413.75 255.9 416.55 258.9" fill="#000000" fill-rule="evenodd" stroke="none"/>
  </g>
</svg>
