<?xml version="1.0" encoding="UTF-8" standalone="no"?>
<svg xmlns:xlink="http://www.w3.org/1999/xlink" height="35.8px" width="14.05px" xmlns="http://www.w3.org/2000/svg">
  <g transform="matrix(1.0, 0.0, 0.0, 1.0, -392.95, -240.95)">
    <path d="M397.9 257.35 L402.35 257.35 Q402.55 261.15 403.5 263.75 404.0 265.2 405.35 267.75 L394.9 267.75 396.8 263.75 Q397.65 261.15 397.9 257.35 M397.95 243.2 Q397.95 242.25 398.6 241.6 399.25 240.95 400.2 240.95 401.15 240.95 401.8 241.6 402.45 242.25 402.45 243.2 402.45 244.15 401.8 244.8 401.15 245.45 400.2 245.45 399.25 245.45 398.6 244.8 397.95 244.15 397.95 243.2 M407.0 272.55 Q407.1 274.05 406.2 275.2 L393.8 275.2 Q393.35 274.65 393.15 273.9 392.9 273.15 393.0 272.35 L393.5 270.75 394.4 269.35 405.7 269.35 Q406.9 271.1 407.0 272.55 M406.25 275.4 L406.45 275.55 406.7 275.95 406.85 276.75 393.1 276.75 393.25 275.9 393.5 275.55 393.7 275.4 406.25 275.4 M405.85 268.1 L406.15 268.5 406.05 268.95 405.75 269.15 394.45 269.15 394.15 268.95 394.05 268.5 Q394.1 268.25 394.4 268.1 L394.7 268.0 405.5 268.0 405.85 268.1 M405.8 246.25 Q406.15 246.75 405.95 247.3 L405.35 247.95 Q404.3 248.75 403.45 250.6 402.5 252.75 402.65 255.0 L403.8 255.0 404.25 255.25 404.65 256.15 Q404.7 256.55 404.35 256.9 L403.95 257.15 396.1 257.15 395.65 256.85 Q395.3 256.5 395.3 256.1 395.4 255.6 395.75 255.25 L396.25 255.0 397.55 255.0 Q397.7 252.75 396.75 250.6 395.95 248.7 394.85 247.95 L394.25 247.3 Q394.1 246.75 394.4 246.25 394.7 245.85 395.15 245.75 L395.65 245.75 396.2 246.05 397.0 246.25 Q397.75 246.25 398.6 245.65 399.45 246.3 400.1 246.3 400.7 246.3 401.55 245.7 L401.65 245.65 401.85 245.8 403.25 246.25 404.0 246.05 404.55 245.75 405.1 245.75 Q405.5 245.85 405.8 246.25" fill="#000000" fill-rule="evenodd" stroke="none"/>
  </g>
</svg>
