<?xml version="1.0" encoding="UTF-8" standalone="no"?>
<svg xmlns:xlink="http://www.w3.org/1999/xlink" height="26.25px" width="26.3px" xmlns="http://www.w3.org/2000/svg">
  <g transform="matrix(1.0, 0.0, 0.0, 1.0, -386.8, -247.65)">
    <path d="M405.75 249.0 L406.3 247.65 408.95 250.25 408.0 251.25 405.75 249.0 M407.45 251.8 L406.55 252.7 404.9 251.05 405.4 249.8 407.45 251.8 M407.9 254.0 L408.8 253.1 410.85 255.1 409.55 255.6 407.9 254.0 M407.45 256.55 L406.4 255.55 407.25 254.7 408.6 256.05 407.45 256.55 M411.6 254.75 L409.35 252.55 410.3 251.55 413.0 254.2 411.6 254.75 M405.05 254.25 L404.0 253.2 404.5 252.0 405.9 253.35 405.05 254.25 M408.7 265.3 L404.65 269.4 404.15 268.2 407.45 264.8 408.7 265.3 M413.1 267.05 L406.5 273.8 405.95 272.4 411.75 266.55 413.1 267.05 M409.65 265.65 L410.95 266.2 405.6 271.65 405.05 270.35 409.65 265.65 M395.75 253.25 L392.4 256.65 391.25 256.2 395.25 252.1 395.75 253.25 M394.85 251.15 L390.25 255.8 389.0 255.3 394.3 249.9 394.85 251.15 M393.35 247.7 L393.95 249.1 391.75 251.4 390.75 250.4 393.35 247.7 M386.8 254.4 L389.45 251.75 390.45 252.75 388.2 255.0 386.8 254.4 M392.45 264.9 L395.9 268.35 395.4 269.5 391.25 265.45 392.45 264.9 M386.9 267.3 L388.25 266.7 390.55 268.95 389.6 269.95 386.9 267.3 M391.1 268.4 L389.05 266.4 390.35 265.8 392.0 267.5 391.1 268.4 M390.95 271.25 L391.9 270.3 394.2 272.55 393.65 273.9 390.95 271.25 M393.35 268.8 L395.0 270.45 394.55 271.75 392.45 269.7 393.35 268.8" fill="#000000" fill-rule="evenodd" stroke="none"/>
  </g>
</svg>
