<?xml version="1.0" encoding="UTF-8" standalone="no"?>
<svg xmlns:xlink="http://www.w3.org/1999/xlink" height="26.75px" width="26.75px" xmlns="http://www.w3.org/2000/svg">
  <g transform="matrix(1.0, 0.0, 0.0, 1.0, -386.45, -246.3)">
    <path d="M411.65 254.75 Q410.65 252.45 408.95 250.65 407.05 248.8 404.85 247.8 402.5 246.8 399.85 246.8 397.25 246.8 394.9 247.8 392.6 248.85 390.8 250.6 389.0 252.35 388.0 254.7 386.95 257.05 386.95 259.65 386.95 262.35 388.0 264.65 389.05 267.0 390.8 268.75 392.6 270.55 394.9 271.5 397.25 272.55 399.85 272.55 402.5 272.55 404.8 271.5 407.2 270.45 408.85 268.75 410.6 267.05 411.65 264.7 412.7 262.4 412.7 259.7 412.7 257.1 411.65 254.75 M406.85 252.65 Q408.2 254.0 408.95 255.8 409.75 257.65 409.75 259.7 L409.5 262.2 408.55 264.55 408.05 265.35 407.85 265.5 394.05 251.65 394.2 251.45 395.0 250.95 Q396.15 250.3 397.3 250.05 L399.8 249.8 Q401.9 249.8 403.7 250.55 405.5 251.3 406.85 252.65 M404.7 268.4 L402.35 269.3 399.85 269.55 Q397.85 269.55 396.0 268.8 394.1 268.0 392.8 266.7 391.4 265.25 390.7 263.55 389.95 261.75 389.95 259.65 389.95 258.3 390.2 257.15 L391.1 254.8 391.25 254.7 391.4 254.35 391.65 254.05 Q391.7 253.9 391.85 253.9 L405.65 267.7 405.5 267.9 404.7 268.4" fill="none" stroke="#000000" stroke-linecap="round" stroke-linejoin="round" stroke-opacity="0.5019608" stroke-width="1.0"/>
  </g>
</svg>
