<?xml version="1.0" encoding="UTF-8" standalone="no"?>
<svg xmlns:xlink="http://www.w3.org/1999/xlink" height="28.2px" width="29.15px" xmlns="http://www.w3.org/2000/svg">
  <g transform="matrix(1.0, 0.0, 0.0, 1.0, -385.55, -245.75)">
    <path d="M401.9 246.25 L401.9 246.3 397.25 246.3 397.25 246.35 Q400.65 249.15 402.35 253.55 L402.35 253.6 400.4 254.8 403.5 254.85 403.55 254.85 407.1 254.85 407.15 254.85 410.35 249.2 410.35 249.15 Q409.55 249.65 408.7 250.2 L408.65 250.2 Q407.7 247.45 405.15 246.3 L405.15 246.25 405.05 246.25 401.9 246.25 M414.15 260.55 L414.2 260.55 414.2 261.0 414.2 261.1 414.15 261.1 Q413.3 263.15 411.2 263.9 L411.15 263.9 408.35 263.9 408.3 263.9 405.4 258.45 Q408.35 256.65 411.25 254.95 L411.25 254.9 414.15 260.55 M406.55 264.3 L406.6 264.3 410.9 264.3 410.9 264.25 Q412.6 263.95 413.6 262.9 412.85 264.45 412.4 266.0 410.85 271.35 404.0 271.2 L404.0 271.25 403.95 273.45 400.8 267.85 404.0 262.3 404.0 264.25 404.0 264.3 406.55 264.3 M399.65 249.4 L396.85 254.9 396.8 254.9 390.95 251.25 390.9 251.2 393.95 246.75 393.95 246.7 394.5 246.55 394.55 246.5 396.25 246.45 396.3 246.45 Q398.45 247.4 399.65 249.4 M395.95 260.75 L395.95 260.8 393.85 259.6 393.8 259.55 391.75 263.9 391.75 263.95 389.3 263.95 Q387.55 263.4 386.65 262.05 L386.6 262.05 386.1 261.0 386.05 261.0 386.05 260.9 386.05 260.8 388.3 256.3 388.3 256.25 386.25 255.1 386.15 255.05 392.7 255.0 392.75 255.0 395.95 260.75 M389.2 264.3 L398.6 264.35 398.65 264.35 398.65 271.15 398.65 271.2 398.6 271.2 393.15 271.2 Q392.45 271.05 392.0 270.6 388.25 267.65 386.4 262.8 387.5 263.85 389.15 264.3 L389.2 264.3" fill="none" stroke="#000000" stroke-linecap="round" stroke-linejoin="round" stroke-opacity="0.5019608" stroke-width="1.0"/>
  </g>
</svg>
