<?xml version="1.0" encoding="UTF-8" standalone="no"?>
<svg xmlns:xlink="http://www.w3.org/1999/xlink" height="33.5px" width="51.35px" xmlns="http://www.w3.org/2000/svg">
  <g transform="matrix(1.0, 0.0, 0.0, 1.0, -377.6, -241.3)">
    <path d="M400.1 249.55 L399.85 249.55 399.6 249.55 399.4 249.45 399.05 249.3 398.7 249.25 398.0 249.15 397.25 249.15 397.6 249.3 398.15 249.55 398.3 249.7 397.5 249.55 397.1 249.5 396.7 249.45 396.0 249.6 395.3 249.7 395.9 250.15 395.6 250.2 394.95 250.25 394.55 250.35 394.2 250.45 393.55 250.65 393.1 250.9 393.05 250.9 393.0 250.95 393.1 250.95 393.7 251.2 394.3 251.5 394.75 251.7 395.35 252.05 395.75 252.3 395.9 252.5 395.8 252.55 Q394.1 251.25 392.25 251.15 392.65 251.9 392.25 252.7 391.85 253.5 391.85 254.25 391.85 255.1 392.6 255.8 L392.55 255.8 392.45 255.8 391.95 255.5 391.6 254.85 391.45 254.15 391.45 253.95 391.55 253.45 391.75 252.75 391.95 252.15 392.0 251.9 392.0 251.7 391.8 251.85 391.4 252.25 390.95 252.65 390.65 253.15 390.5 253.35 390.3 253.7 390.05 254.2 389.75 254.65 389.5 255.15 389.2 255.6 Q389.35 255.45 389.5 255.45 L389.6 255.45 389.9 255.35 389.9 255.6 389.7 255.95 389.4 256.55 389.15 257.1 389.0 257.35 388.9 257.55 388.65 258.15 388.4 258.7 388.15 259.5 388.15 260.1 388.35 260.7 388.45 260.1 389.0 259.4 389.1 259.4 389.0 259.85 388.95 260.25 388.9 260.7 388.85 261.4 388.85 262.05 388.9 262.35 388.9 262.55 389.05 263.25 389.15 263.5 389.4 264.1 389.4 264.05 389.45 263.35 389.5 263.3 389.7 262.8 389.75 263.4 389.85 264.0 389.9 264.3 390.05 264.6 390.15 264.9 390.6 265.8 391.25 266.85 392.0 267.95 392.0 266.3 392.15 266.8 392.45 267.35 392.75 268.05 393.0 268.35 393.2 268.7 393.45 269.05 393.85 269.55 394.25 270.0 394.65 270.4 394.45 269.7 394.4 269.35 394.35 268.8 395.6 270.25 396.15 270.65 396.4 270.85 396.85 271.2 397.4 271.65 397.95 272.2 398.45 272.75 398.85 273.35 399.8 274.25 399.85 274.3 399.9 274.25 400.85 273.35 401.25 272.75 401.75 272.2 402.3 271.65 402.8 271.2 403.25 270.85 403.55 270.65 404.15 270.25 405.35 268.8 405.3 269.35 405.2 269.7 405.05 270.4 405.5 270.0 405.8 269.55 406.25 269.05 406.45 268.7 406.7 268.35 406.9 268.05 407.25 267.35 407.5 266.8 407.7 266.3 407.7 267.95 408.45 266.85 408.65 266.55 409.1 265.8 409.55 264.9 409.7 264.6 409.75 264.3 409.85 264.0 409.95 263.4 410.0 262.8 410.2 263.3 410.2 263.35 410.3 264.05 410.3 264.15 410.55 263.5 410.6 263.25 410.75 262.55 410.75 262.35 410.8 262.05 410.8 261.4 410.75 260.7 410.75 260.25 410.65 259.85 410.6 259.4 410.65 259.4 411.2 260.1 411.35 260.7 411.5 260.1 411.5 259.5 411.3 258.7 411.05 258.15 410.75 257.55 410.65 257.35 410.55 257.1 410.3 256.55 410.0 255.95 409.8 255.6 409.75 255.35 410.1 255.45 410.15 255.45 410.45 255.6 410.15 255.15 409.9 254.65 409.7 254.2 409.4 253.7 409.2 253.35 409.1 253.15 408.7 252.65 408.3 252.25 408.15 252.05 407.9 251.85 407.65 251.7 407.65 251.9 407.75 252.15 407.9 252.75 408.2 253.45 408.2 253.95 408.2 254.15 408.05 254.85 407.75 255.5 407.2 255.8 407.1 255.8 Q407.8 255.1 407.8 254.25 407.85 253.5 407.45 252.7 407.0 251.9 407.45 251.15 405.65 251.25 403.85 252.55 L403.8 252.5 403.95 252.3 404.3 252.05 404.9 251.7 405.4 251.5 405.95 251.2 406.55 250.95 406.7 250.95 406.6 250.9 406.1 250.65 405.5 250.45 405.15 250.35 404.75 250.25 404.05 250.2 403.85 250.15 404.4 249.7 403.7 249.6 402.95 249.45 402.6 249.5 402.2 249.55 401.35 249.7 401.6 249.55 402.05 249.3 402.4 249.15 401.7 249.15 401.0 249.25 400.65 249.3 400.3 249.45 400.1 249.55 M410.75 244.4 L412.2 247.6 413.3 247.65 410.75 244.4 M412.2 241.8 L414.1 247.7 416.6 248.1 412.2 241.8 M413.2 247.95 Q408.95 248.0 408.2 251.4 410.15 253.3 411.2 256.35 L410.7 256.15 411.9 258.95 Q412.15 260.3 411.55 261.45 L411.2 261.15 Q411.5 263.2 410.2 264.95 L410.05 264.6 Q409.95 265.5 409.25 266.3 414.05 264.3 414.35 257.55 L413.2 257.55 412.0 255.3 412.0 254.45 413.4 257.1 416.6 257.4 420.65 259.45 421.1 260.45 422.3 260.45 422.9 259.5 422.35 259.75 420.3 257.95 419.3 255.65 426.65 256.05 426.25 257.1 427.65 256.0 427.95 255.4 427.4 255.4 427.4 254.7 427.15 254.7 426.7 255.0 427.15 254.45 427.65 254.45 427.65 255.15 428.05 255.15 428.45 254.25 427.95 253.75 427.25 253.75 421.55 251.65 421.55 250.8 416.75 248.45 413.2 247.95 M403.6 247.8 Q406.55 248.7 407.9 250.8 408.65 248.65 410.8 247.8 407.55 245.45 403.6 247.8 M427.95 255.4 L428.05 255.15 M402.55 252.95 L401.9 252.85 401.2 253.0 400.65 253.35 400.25 253.65 399.85 253.95 399.45 253.65 399.05 253.35 398.45 253.0 397.8 252.85 397.1 252.95 396.5 253.3 396.15 253.5 395.8 253.8 395.5 254.1 395.25 254.45 395.05 254.85 394.75 255.55 394.65 255.75 394.45 256.15 394.1 256.7 394.1 256.8 393.65 257.4 393.3 257.8 393.25 257.85 393.05 258.05 392.9 258.25 392.75 258.4 392.3 258.9 Q391.85 259.6 391.7 260.4 L391.7 260.75 391.7 261.75 392.3 261.25 392.45 264.0 393.5 262.8 393.65 263.35 394.75 262.65 397.35 271.05 Q398.55 271.65 399.85 271.75 401.15 271.65 402.35 271.05 L404.9 262.65 406.05 263.35 406.2 262.8 407.25 264.0 407.35 261.25 408.05 261.75 408.05 260.75 408.0 260.4 407.35 258.9 406.95 258.4 406.75 258.25 406.6 258.05 406.4 257.85 406.4 257.8 406.05 257.4 405.65 256.8 405.6 256.7 405.2 256.15 405.05 255.75 404.95 255.55 404.65 254.85 404.45 254.45 404.15 254.1 403.85 253.8 403.55 253.5 403.2 253.3 402.55 252.95 M401.15 253.55 L400.55 253.95 400.15 254.4 399.85 254.7 399.5 254.4 399.1 253.95 398.6 253.55 397.95 253.4 397.35 253.5 396.75 253.8 396.4 254.05 396.1 254.3 395.85 254.6 395.6 254.95 395.4 255.3 395.15 255.95 395.0 256.2 394.85 256.5 394.55 257.1 394.5 257.1 394.1 257.7 393.8 258.1 393.75 258.15 393.55 258.35 393.45 258.55 393.25 258.65 392.9 259.15 Q392.45 259.8 392.3 260.55 L392.3 260.9 392.9 260.35 392.8 260.7 392.75 261.6 392.75 262.85 393.4 262.15 393.45 262.1 Q393.6 261.95 393.8 261.9 L393.8 261.95 393.85 262.5 393.9 262.6 394.05 262.5 394.55 262.2 394.75 262.05 395.15 261.9 395.15 261.95 395.05 262.4 397.55 270.6 Q398.6 271.2 399.85 271.3 401.05 271.2 402.15 270.6 L404.6 262.4 404.55 261.95 404.6 261.9 404.9 262.05 405.15 262.2 405.65 262.5 405.8 262.6 405.8 262.5 405.9 261.95 405.9 261.9 406.25 262.1 406.25 262.15 406.9 262.85 406.95 262.9 406.95 262.85 407.0 261.6 406.85 260.7 406.85 260.35 407.45 260.9 407.4 260.55 Q407.3 259.8 406.8 259.15 L406.4 258.65 406.25 258.55 406.1 258.35 405.95 258.15 405.95 258.1 405.6 257.7 405.2 257.1 405.15 257.1 404.8 256.5 404.65 256.2 404.6 255.95 404.3 255.3 404.1 254.95 403.85 254.6 403.55 254.3 403.25 254.05 402.95 253.8 402.35 253.5 401.75 253.4 401.15 253.55 M403.25 257.8 Q402.35 258.6 401.75 258.15 L401.65 258.0 401.6 258.0 401.5 257.9 401.6 257.9 402.45 257.5 403.8 257.1 404.0 257.1 403.75 257.35 403.7 257.35 403.7 257.4 403.25 257.8 M400.7 261.7 L400.4 261.75 400.3 261.8 399.95 261.9 399.75 261.9 399.35 261.8 399.25 261.75 399.0 261.7 398.95 261.65 398.45 261.6 Q398.1 261.6 398.0 261.8 L398.1 262.05 398.6 262.35 398.6 262.2 398.85 262.15 398.95 262.2 399.05 262.3 399.2 262.7 399.25 262.75 399.25 262.8 399.7 263.1 399.85 263.1 399.95 263.1 400.4 262.8 400.45 262.75 400.45 262.7 400.6 262.3 400.7 262.2 400.85 262.15 401.1 262.2 401.1 262.3 401.15 262.35 401.6 262.05 401.65 261.8 Q401.6 261.6 401.2 261.6 L400.7 261.65 400.7 261.7 M403.05 263.05 L402.95 263.3 402.95 263.4 402.75 263.65 402.45 263.9 402.35 263.95 402.25 264.0 401.75 264.05 401.4 265.05 401.15 264.05 401.1 264.05 400.75 264.0 400.55 263.9 400.0 263.7 399.85 263.65 399.65 263.7 399.2 263.9 398.9 264.0 398.6 264.05 398.5 264.05 398.3 265.05 397.95 264.05 397.45 264.0 397.4 263.95 397.25 263.9 396.95 263.65 396.8 263.4 396.75 263.4 396.7 263.3 396.65 263.05 396.35 263.0 397.55 268.5 Q397.7 268.65 398.15 268.8 L398.3 267.65 398.6 268.9 399.85 268.95 401.05 268.9 401.35 267.65 401.5 268.8 402.1 268.5 403.35 263.0 403.05 263.05 M401.75 264.05 L401.7 264.05 401.15 264.05 M421.05 251.95 L418.95 250.15 418.95 251.35 421.05 251.95 M388.3 247.25 L388.7 248.05 388.85 246.25 385.15 247.95 384.35 253.95 386.45 252.75 386.1 249.0 388.3 247.25 M397.95 258.15 Q397.35 258.6 396.4 257.8 L396.05 257.4 395.95 257.35 395.9 257.35 395.7 257.1 395.9 257.1 397.25 257.5 398.1 257.9 398.15 257.9 398.1 258.0 398.0 258.0 397.95 258.15 M388.5 256.35 Q389.05 254.7 389.9 253.35 L389.3 253.35 389.95 251.15 386.15 253.65 382.9 255.25 382.75 256.05 379.35 257.65 378.65 257.65 378.1 258.15 378.5 259.05 378.95 259.05 378.95 258.35 379.4 258.35 379.85 258.9 379.4 258.6 379.2 258.6 379.2 259.3 378.65 259.3 378.95 259.9 380.3 261.0 379.95 259.95 383.6 260.85 382.6 263.1 381.65 264.0 381.15 263.7 381.7 264.7 382.95 264.7 383.4 263.7 386.3 262.6 388.45 262.4 388.45 261.15 388.1 261.45 Q387.55 260.3 387.8 258.95 L389.0 256.15 388.5 256.35 M385.7 256.1 L383.65 256.7 385.7 254.9 385.7 256.1 M381.7 264.7 L381.7 265.4 381.05 266.25 382.25 265.8 382.0 266.35 382.8 265.8 382.95 264.7 M399.85 263.65 L399.85 263.1 M398.5 264.05 L398.0 264.05 397.95 264.05 M378.5 259.05 L378.65 259.3" fill="none" stroke="#000000" stroke-linecap="round" stroke-linejoin="round" stroke-opacity="0.5019608" stroke-width="1.0"/>
  </g>
</svg>
