<?xml version="1.0" encoding="UTF-8" standalone="no"?>
<svg xmlns:xlink="http://www.w3.org/1999/xlink" height="16.65px" width="34.3px" xmlns="http://www.w3.org/2000/svg">
  <g transform="matrix(1.0, 0.0, 0.0, 1.0, -382.8, -251.5)">
    <path d="M416.6 259.1 L416.55 258.9 413.75 255.9 397.9 255.9 Q396.75 254.1 394.95 253.05 393.15 252.0 391.05 252.0 389.4 252.0 387.95 252.6 386.45 253.35 385.5 254.35 384.45 255.4 383.9 256.85 383.3 258.35 383.3 259.85 L383.3 261.3 Q383.65 262.85 384.3 263.85 385.0 265.0 386.05 265.85 L388.4 267.2 391.05 267.65 Q393.2 267.65 395.05 266.55 396.95 265.45 398.0 263.6 L401.1 263.6 403.45 261.3 405.3 263.05 407.2 261.3 409.1 263.05 411.05 261.3 413.0 263.2 416.45 259.55 416.6 259.1 M387.65 257.7 Q388.5 257.7 389.1 258.3 389.7 258.9 389.7 259.65 389.7 260.7 389.15 261.15 388.6 261.7 387.65 261.7 386.7 261.7 386.15 261.15 385.55 260.65 385.55 259.65 385.55 258.9 386.15 258.3 386.75 257.7 387.65 257.7" fill="none" stroke="#000000" stroke-linecap="round" stroke-linejoin="round" stroke-opacity="0.5019608" stroke-width="1.0"/>
  </g>
</svg>
