<?xml version="1.0" encoding="UTF-8" standalone="no"?>
<svg xmlns:xlink="http://www.w3.org/1999/xlink" height="22.65px" width="24.45px" xmlns="http://www.w3.org/2000/svg">
  <g transform="matrix(1.0, 0.0, 0.0, 1.0, -387.65, -247.45)">
    <path d="M405.7 250.75 L407.8 250.75 407.8 254.2 411.2 252.45 412.1 253.8 408.5 255.45 412.1 257.1 411.2 258.45 406.75 256.4 401.6 258.75 406.7 261.15 411.2 259.05 412.1 260.4 408.5 262.05 412.1 263.7 411.2 265.05 407.8 263.35 407.8 266.8 405.7 266.8 405.7 262.6 400.9 260.0 400.9 264.9 405.2 267.0 404.3 268.35 400.9 266.65 400.9 270.1 398.8 270.1 398.8 266.65 395.4 268.35 394.55 267.0 398.8 264.9 398.8 260.0 394.0 262.55 394.0 266.8 391.9 266.8 391.9 263.35 388.55 265.05 387.65 263.7 391.25 262.05 387.65 260.4 388.55 259.05 392.95 261.15 398.15 258.75 392.95 256.4 388.55 258.45 387.65 257.1 391.25 255.45 387.65 253.85 388.55 252.45 391.9 254.2 391.9 250.75 394.0 250.75 394.0 254.95 398.8 257.5 398.8 252.65 394.55 250.55 395.45 249.15 398.8 250.9 398.8 247.45 400.9 247.45 400.9 250.9 404.3 249.15 405.2 250.55 400.9 252.65 400.9 257.5 405.7 254.95 405.7 250.75" fill="#000000" fill-rule="evenodd" stroke="none"/>
  </g>
</svg>
