<?xml version="1.0" encoding="UTF-8" standalone="no"?>
<svg xmlns:xlink="http://www.w3.org/1999/xlink" height="27.2px" width="27.55px" xmlns="http://www.w3.org/2000/svg">
  <g transform="matrix(1.0, 0.0, 0.0, 1.0, -386.05, -246.25)">
    <path d="M405.15 246.3 Q407.7 247.45 408.65 250.2 L408.7 250.2 Q409.55 249.65 410.35 249.15 L410.35 249.2 407.15 254.85 407.1 254.85 403.55 254.85 400.25 254.85 400.3 254.8 400.35 254.8 400.4 254.8 402.35 253.6 402.35 253.55 Q400.65 249.15 397.25 246.35 L397.15 246.25 401.9 246.25 405.05 246.25 405.15 246.25 405.15 246.3 M412.4 266.0 Q410.85 271.35 404.0 271.2 L404.0 271.25 403.95 273.45 400.8 267.85 404.0 262.3 404.0 262.25 404.0 264.25 404.0 264.3 406.55 264.3 406.6 264.3 406.6 264.25 410.8 264.25 410.9 264.25 Q412.6 263.95 413.6 262.9 412.85 264.45 412.4 266.0 M392.75 255.0 L395.95 260.75 395.95 260.8 393.85 259.6 393.8 259.55 391.75 263.9 391.75 263.95 389.3 263.95 Q387.55 263.4 386.65 262.05 L386.6 262.05 386.1 261.0 386.05 261.0 386.05 260.9 386.05 260.8 388.3 256.3 388.3 256.25 386.25 255.1 386.15 255.05 392.7 255.0 392.75 255.0 M398.65 264.3 L398.65 264.35 398.6 264.35 389.2 264.3 398.65 264.3 M398.65 271.2 L398.65 271.25 393.15 271.2 398.6 271.2 398.65 271.2" fill="#000000" fill-rule="evenodd" stroke="none"/>
  </g>
</svg>
