<?xml version="1.0" encoding="UTF-8" standalone="no"?>
<svg xmlns:xlink="http://www.w3.org/1999/xlink" height="36.75px" width="89.45px" xmlns="http://www.w3.org/2000/svg">
  <g transform="matrix(1.0, 0.0, 0.0, 1.0, -328.05, -359.1)">
    <path d="M358.95 368.95 Q358.35 369.2 358.05 370.05 L356.15 376.65 M359.45 377.7 L359.55 377.25 360.65 373.75 Q361.3 371.9 362.05 370.4 M334.35 360.75 Q333.65 360.85 333.3 361.65 L332.55 364.1 331.45 367.8 331.9 368.5 M362.55 379.2 Q363.0 378.25 365.45 378.75 L368.45 379.6 368.55 379.6 370.25 380.25 371.0 380.55 382.35 384.9 382.6 385.0 Q397.15 391.4 406.8 391.3 397.35 385.55 391.35 380.2 M406.8 391.3 L417.0 393.55" fill="none" stroke="#000000" stroke-linecap="round" stroke-linejoin="round" stroke-opacity="0.5019608" stroke-width="1.0"/>
    <path d="M356.15 376.65 Q357.35 380.25 354.7 381.9 358.1 383.3 358.95 379.75 L359.45 377.7 M362.05 370.4 L362.1 370.3 363.25 368.4 363.3 368.25 364.2 367.1 364.15 366.85 363.55 366.65 363.25 366.7 362.1 367.85 361.95 367.9 Q360.25 369.25 358.95 368.95 356.0 368.35 353.15 366.95 347.45 364.25 342.6 363.1 337.25 361.85 334.35 360.75 M331.9 368.5 Q335.15 367.6 337.75 370.75 341.55 369.45 343.75 372.65 347.3 371.8 349.6 374.95 353.05 374.2 355.3 376.4 L356.15 376.65 M331.9 368.5 Q331.1 369.0 330.8 370.6 L329.6 370.55 Q327.95 368.55 328.95 365.05 L330.15 361.05 Q330.85 359.05 332.5 359.85 L334.35 360.75 M362.05 370.4 Q367.05 372.4 372.95 374.45 L377.6 376.0 387.75 379.15 391.15 380.15 391.35 380.2 392.75 380.6 Q401.9 386.4 417.0 393.55 401.75 398.65 382.45 389.25 L378.4 387.6 378.25 387.5 375.25 386.25 373.35 385.5 371.75 384.9 367.25 383.1 367.2 383.05 366.05 382.6 362.5 381.2 362.75 380.25 362.55 379.2 361.8 378.55 361.65 378.5 359.45 377.7" fill="none" stroke="#000000" stroke-linecap="round" stroke-linejoin="round" stroke-width="1.0"/>
  </g>
</svg>
