<?xml version="1.0" encoding="UTF-8" standalone="no"?>
<svg xmlns:xlink="http://www.w3.org/1999/xlink" height="61.3px" width="153.55px" xmlns="http://www.w3.org/2000/svg">
  <g transform="matrix(1.0, 0.0, 0.0, 1.0, -322.95, -354.7)">
    <path d="M348.15 365.2 L348.15 364.75 Q347.45 364.35 346.85 364.3 L346.5 364.6 M344.1 371.2 L344.1 371.7 Q344.6 372.1 345.45 372.2 L345.75 371.85 M348.15 365.2 L351.1 366.3 351.45 365.95 Q352.05 365.95 352.75 366.45 L352.75 366.9 355.85 368.0 356.2 367.7 356.8 367.8 357.6 368.2 Q359.5 366.15 363.1 366.15 365.45 366.1 365.15 366.9 365.75 365.7 366.8 366.15 367.7 366.5 367.35 367.75 L367.35 367.85 Q374.85 371.5 383.85 375.3 L393.65 379.25 401.95 382.35 408.05 384.55 427.9 391.3 431.7 392.5 439.05 394.75 445.8 397.1 447.15 397.75 450.4 399.45 Q459.5 404.45 476.0 415.5 450.65 412.75 441.05 410.1 L436.2 408.3 432.6 406.9 427.25 404.65 Q426.05 404.1 424.85 403.65 L414.65 399.6 Q404.65 395.65 395.55 392.45 L389.3 390.3 380.65 387.45 369.7 384.15 362.1 382.15 362.1 382.3 Q361.5 383.5 360.55 383.2 359.5 382.9 359.85 381.5 359.5 382.3 357.85 380.75 355.0 378.45 354.85 375.6 L354.05 375.4 353.5 375.1 353.45 374.65 350.35 373.5 350.1 373.85 Q349.2 373.7 348.7 373.35 L348.7 372.9 345.75 371.85 M337.1 361.1 Q337.15 358.3 335.15 356.5 L334.45 356.05 M329.3 370.05 L330.15 370.15 Q332.9 370.1 334.6 367.95 M337.1 361.1 L337.35 360.85 Q337.95 360.85 338.7 361.35 L338.7 361.8 341.9 362.95 342.3 362.6 Q342.9 362.65 343.6 363.15 L343.6 363.55 346.5 364.6 M329.3 370.05 L327.75 369.5 327.7 369.45 Q325.75 368.55 324.9 366.55 324.45 365.15 324.95 362.55 323.1 361.6 323.55 360.05 324.25 358.5 326.25 359.0 327.5 356.65 328.85 355.9 330.7 354.9 332.8 355.35 L334.45 356.05 M339.5 369.55 L339.6 370.05 Q340.05 370.45 340.9 370.5 L341.2 370.15 344.1 371.2 M336.3 368.4 L339.5 369.55 M336.3 368.4 L336.0 368.75 334.65 368.3 334.6 367.95" fill="none" stroke="#000000" stroke-linecap="round" stroke-linejoin="round" stroke-width="1.0"/>
    <path d="M346.5 364.6 L345.9 365.35 344.7 367.7 344.7 367.75 344.1 370.35 344.1 371.2 M345.75 371.85 L345.4 371.7 345.4 370.85 Q345.5 369.75 346.05 368.25 L346.05 368.2 347.25 365.8 347.8 365.1 348.15 365.2 M350.35 373.5 L350.05 373.35 350.05 372.5 Q350.1 371.4 350.65 369.9 L350.65 369.85 Q351.2 368.35 351.9 367.5 L352.45 366.75 352.75 366.9 M351.1 366.3 L350.5 366.95 349.3 369.4 348.7 372.0 348.7 372.9 M353.45 374.65 L353.5 373.75 354.1 371.15 354.1 371.1 355.3 368.75 355.85 368.0 M357.6 368.2 Q356.5 369.35 355.9 371.15 L355.5 372.3 Q354.9 373.8 354.85 375.15 L354.85 375.6 M334.45 356.05 Q332.55 356.55 330.35 362.5 L330.35 362.55 Q328.25 368.45 329.3 370.05 M334.6 367.95 L334.6 367.8 334.6 366.9 Q334.7 365.8 335.25 364.3 L336.45 361.85 337.05 361.15 337.1 361.1 M324.95 362.55 L325.5 360.75 326.25 359.0 M332.8 355.35 Q331.1 356.05 328.9 361.95 L328.9 362.0 Q326.8 367.95 327.7 369.45 M341.2 370.15 L340.85 370.1 340.85 369.15 341.45 366.55 Q342.1 365.05 342.7 364.15 L343.25 363.45 343.6 363.55 M341.9 362.95 L341.35 363.65 Q340.7 364.55 340.1 366.05 L340.1 366.1 339.5 368.7 339.5 369.55 M338.7 361.8 L338.35 361.65 337.8 362.35 Q337.15 363.3 336.55 364.75 L335.95 367.35 335.95 368.3 336.3 368.4 M367.35 367.85 Q369.45 376.0 374.9 378.7 L476.0 415.5 M359.85 381.5 L365.15 366.9 M367.35 367.85 L362.1 382.15 Q369.0 377.3 374.9 378.7" fill="none" stroke="#000000" stroke-linecap="round" stroke-linejoin="round" stroke-opacity="0.5019608" stroke-width="1.0"/>
  </g>
</svg>
