<?xml version="1.0" encoding="UTF-8" standalone="no"?>
<svg xmlns:xlink="http://www.w3.org/1999/xlink" height="76.65px" width="205.75px" xmlns="http://www.w3.org/2000/svg">
  <g transform="matrix(1.0, 0.0, 0.0, 1.0, -319.15, -349.6)">
    <path d="M326.25 353.0 L325.9 352.8 Q324.65 355.1 323.9 358.55 322.85 362.95 325.1 362.75 L325.5 362.8 M359.75 376.25 Q359.65 372.2 358.35 369.35 356.6 365.45 356.85 362.5 M360.85 366.1 Q358.3 359.6 363.7 357.65 371.05 354.95 380.35 356.65 377.6 358.0 376.65 360.0 L386.8 361.85 Q376.05 366.4 371.35 376.45 L369.45 376.95 362.65 375.35 Q362.6 372.0 361.65 368.7 L360.85 366.1 M357.85 390.0 Q363.25 389.95 368.2 387.0 L370.05 379.7 362.2 378.0 Q361.45 384.55 357.85 390.0 M353.05 393.45 Q362.65 394.0 369.05 389.6 369.05 392.2 369.5 394.95 360.5 397.4 352.65 393.5 L353.05 393.45 M358.1 385.0 L357.85 385.6 Q357.15 387.0 356.05 388.05 M371.9 391.8 Q371.05 388.0 372.85 383.4 374.25 379.8 377.25 375.6 381.9 370.4 388.05 367.0 M376.65 360.0 Q372.6 370.2 361.65 368.7 M507.35 399.85 Q489.75 411.0 460.85 411.05 L454.4 406.15 443.7 411.75 433.8 404.7 426.1 407.05 418.45 400.45 Q412.65 398.4 406.75 395.75 L372.85 383.4" fill="none" stroke="#000000" stroke-linecap="round" stroke-linejoin="round" stroke-opacity="0.5019608" stroke-width="1.0"/>
    <path d="M356.85 362.5 L350.05 361.6 Q341.85 360.7 334.15 357.3 330.1 355.5 326.25 353.0 L323.35 350.4 Q321.35 349.2 320.6 353.15 319.2 360.6 319.85 368.6 321.6 364.6 325.5 362.8 L331.8 363.85 Q345.1 366.8 359.75 376.25 M356.85 362.5 Q357.05 360.35 357.9 358.45 358.45 356.6 360.35 355.95 375.4 350.1 392.75 354.9 387.1 354.75 383.05 357.5 395.05 358.1 406.95 361.05 396.2 362.45 388.05 367.0 434.35 383.7 478.8 393.8 L479.15 393.95 479.6 394.05 Q495.1 398.2 507.35 399.85 L524.4 400.9 Q512.4 414.15 490.65 419.95 L458.0 425.75 Q456.6 420.9 452.2 415.6 L441.6 422.9 432.6 412.75 423.2 417.15 415.55 407.7 411.65 406.3 371.9 391.8 Q373.0 396.95 378.85 400.6 370.55 402.2 363.25 400.8 L369.35 406.6 Q360.25 402.55 352.45 397.2 348.1 394.25 343.95 390.2 352.2 391.6 356.05 388.05 350.45 387.35 346.05 384.65 L358.1 385.0 Q359.85 380.25 359.75 376.25" fill="none" stroke="#000000" stroke-linecap="round" stroke-linejoin="round" stroke-width="1.0"/>
  </g>
</svg>
