<?xml version="1.0" encoding="UTF-8" standalone="no"?>
<svg xmlns:xlink="http://www.w3.org/1999/xlink" height="180.55px" width="238.45px" xmlns="http://www.w3.org/2000/svg">
  <g transform="matrix(1.0, 0.0, 0.0, 1.0, -241.55, -327.45)">
    <path d="M242.55 331.5 Q243.15 329.5 244.6 327.95 L469.8 408.85 479.2 412.25 Q479.75 414.4 479.35 416.25 478.85 418.4 477.2 420.15 476.65 424.05 475.5 428.2 472.9 438.0 467.35 449.5 464.15 456.05 460.05 463.2 L458.0 466.75 455.4 471.0 453.75 473.6 447.0 482.75 Q443.55 486.95 440.05 490.4 L435.8 494.35 434.05 495.8 Q430.65 498.55 427.05 500.65 421.45 504.0 415.5 505.75 L412.0 506.6 411.1 506.75 408.05 507.2 405.8 507.4 402.4 507.5 402.05 507.5 402.4 507.35 Q405.05 506.3 407.6 504.95 L408.1 504.65 411.25 502.8 Q420.45 497.05 428.7 487.4 432.85 482.55 436.8 476.65 L442.5 468.2 443.7 466.4 444.25 465.4 Q455.45 447.2 461.7 427.55 466.45 427.6 468.65 426.2 469.85 425.7 470.7 424.0 471.5 422.25 470.1 417.6 L467.45 416.65 242.1 335.7 Q241.95 333.4 242.55 331.5" fill="none" stroke="#000000" stroke-linecap="round" stroke-linejoin="round" stroke-width="1.0"/>
    <path d="M477.2 420.15 L470.1 417.6 M469.8 408.85 L469.3 412.7 Q468.7 415.25 467.45 416.65 M472.05 428.75 Q468.05 443.25 457.65 461.5 L453.1 469.35 452.05 470.9 452.05 470.95 451.45 471.95 Q445.1 481.7 439.05 488.85 435.85 492.65 432.65 495.75 L431.9 495.8 Q431.75 495.5 431.95 495.2 441.0 486.35 450.7 471.4 L451.3 470.4 451.4 470.4 456.95 461.0 Q467.35 442.7 471.35 428.2 471.7 427.75 471.95 427.9 472.25 428.1 472.05 428.75 M412.0 506.6 Q414.45 505.4 416.8 504.0 431.0 495.35 442.95 477.45 L448.25 469.65 448.85 468.65 454.45 459.2 Q463.05 443.6 468.65 426.2" fill="none" stroke="#000000" stroke-linecap="round" stroke-linejoin="round" stroke-opacity="0.5019608" stroke-width="1.0"/>
  </g>
</svg>
