<?xml version="1.0" encoding="UTF-8" standalone="no"?>
<svg xmlns:xlink="http://www.w3.org/1999/xlink" height="600.0px" width="800.0px" xmlns="http://www.w3.org/2000/svg">
  <g transform="matrix(1.0, 0.0, 0.0, 1.0, 0.0, 0.0)">
    <path d="M800.0 600.0 L0.0 600.0 0.0 0.0 354.65 0.0 354.65 243.15 Q350.5 251.55 349.65 261.5 342.05 277.95 338.1 296.0 327.75 308.5 332.95 327.55 L335.5 359.8 Q336.5 359.7 336.95 360.95 L337.35 359.85 337.45 359.6 337.95 357.9 Q338.9 356.0 341.65 355.65 L345.65 355.55 345.4 352.8 Q345.2 349.65 345.3 343.05 345.35 336.45 346.2 327.1 L355.25 312.15 Q354.25 305.0 351.95 299.2 L352.4 298.45 367.25 271.25 368.75 268.35 Q367.6 266.35 367.2 264.1 L367.1 263.75 366.95 261.45 366.95 261.2 366.95 260.55 Q367.1 255.35 370.55 251.4 L374.5 235.15 374.5 0.0 800.0 0.0 800.0 600.0" fill="#000000" fill-rule="evenodd" stroke="none"/>
  </g>
</svg>
