<?xml version="1.0" encoding="UTF-8" standalone="no"?>
<svg xmlns:xlink="http://www.w3.org/1999/xlink" height="50.25px" width="126.0px" xmlns="http://www.w3.org/2000/svg">
  <g transform="matrix(1.0, 0.0, 0.0, 1.0, 72.65, -60.4)">
    <path d="M-31.25 68.8 L28.15 92.5 28.6 92.7 32.0 94.2 Q48.8 101.7 53.35 109.5 L30.75 101.25 30.8 101.25 33.2 101.7 Q33.85 101.6 34.15 100.95 34.6 99.85 32.8 98.8 L27.45 96.45 24.05 94.95 13.0 90.35 Q10.25 89.25 7.2 87.95 L-3.2 83.7 -8.8 81.45 -11.0 80.55 -14.5 79.1 -17.0 78.05 -34.35 71.05 -31.25 68.8" fill="url(#gradient0)" fill-rule="evenodd" stroke="none"/>
    <path d="M-8.8 81.45 L-3.2 83.7 7.2 87.95 Q10.25 89.25 13.0 90.35 L24.05 94.95 27.45 96.45 32.8 98.8 Q34.6 99.85 34.15 100.95 33.85 101.6 33.2 101.7 L30.8 101.25 30.0 101.0 -10.55 86.25 Q-10.35 83.65 -8.8 81.45" fill="url(#gradient1)" fill-rule="evenodd" stroke="none"/>
    <path d="M30.8 101.35 Q32.4 102.05 32.95 102.5 33.35 103.05 33.15 103.65 32.8 104.85 30.7 104.45 L18.45 100.85 14.6 99.65 2.2 95.7 -4.35 93.65 -12.25 91.05 Q-12.15 89.25 -11.4 87.75 L-10.55 86.25 30.0 101.0 30.8 101.35" fill="url(#gradient2)" fill-rule="evenodd" stroke="none"/>
    <path d="M30.75 101.25 L53.35 109.5 Q43.95 112.9 23.1 106.35 L-37.6 86.3 -38.55 82.5 -28.2 85.85 -20.75 88.3 -15.8 89.95 -14.6 90.35 -12.25 91.05 -4.35 93.65 2.2 95.7 14.6 99.65 18.45 100.85 30.7 104.45 Q32.8 104.85 33.15 103.65 33.35 103.05 32.95 102.5 32.4 102.05 30.8 101.35 L30.75 101.25" fill="url(#gradient3)" fill-rule="evenodd" stroke="none"/>
    <path d="M-44.8 76.85 Q-49.45 75.05 -53.15 75.45 -55.35 73.05 -58.6 71.8 -62.95 70.05 -64.6 71.6 -69.2 69.8 -70.4 68.1 -72.15 65.9 -71.5 64.05 -70.8 62.25 -68.05 61.65 -66.05 61.15 -61.35 62.7 -61.1 64.95 -56.65 66.45 -53.35 67.6 -50.1 67.15 -47.55 69.85 -42.85 71.4 L-44.8 76.85 M-59.35 67.75 L-59.9 67.8 -60.25 68.15 -60.2 68.65 -59.8 69.0 -59.35 69.0 -59.0 68.65 -59.0 68.6 -59.0 68.1 -59.35 67.75 M-53.3 70.65 L-53.3 70.7 Q-53.55 71.35 -53.25 71.95 -52.95 72.65 -52.25 72.85 L-50.95 72.8 Q-50.35 72.5 -50.1 71.85 -49.85 71.15 -50.15 70.5 -50.45 69.9 -51.1 69.65 -51.75 69.45 -52.4 69.65 -53.05 70.0 -53.3 70.65 M-48.35 72.45 L-48.35 72.5 -48.35 73.0 -47.95 73.3 -47.45 73.3 -47.1 72.95 Q-46.95 72.7 -47.15 72.45 -47.25 72.15 -47.5 72.05 L-48.0 72.1 -48.35 72.45 M-65.7 66.2 L-65.7 66.15 Q-65.45 65.45 -65.75 64.85 -66.05 64.25 -66.7 64.0 -67.35 63.75 -68.0 64.0 -68.7 64.3 -68.95 65.0 -69.15 65.65 -68.85 66.25 -68.55 66.95 -67.85 67.2 L-66.55 67.1 Q-65.95 66.85 -65.7 66.2" fill="url(#gradient4)" fill-rule="evenodd" stroke="none"/>
    <path d="M-53.3 70.65 Q-53.05 70.0 -52.4 69.65 -51.75 69.45 -51.1 69.65 -50.45 69.9 -50.15 70.5 -49.85 71.15 -50.1 71.85 -50.35 72.5 -50.95 72.8 L-52.25 72.85 Q-52.95 72.65 -53.25 71.95 -53.55 71.35 -53.3 70.7 L-53.3 70.65" fill="url(#gradient5)" fill-rule="evenodd" stroke="none"/>
    <path d="M-48.35 72.45 L-48.0 72.1 -47.5 72.05 Q-47.25 72.15 -47.15 72.45 -46.95 72.7 -47.1 72.95 L-47.45 73.3 -47.95 73.3 -48.35 73.0 -48.35 72.5 -48.35 72.45" fill="url(#gradient6)" fill-rule="evenodd" stroke="none"/>
    <path d="M-42.65 77.65 L-44.8 76.85 -42.85 71.4 -40.7 72.2 -42.65 77.65" fill="url(#gradient7)" fill-rule="evenodd" stroke="none"/>
    <path d="M-64.6 71.6 L-65.05 72.5 Q-68.25 71.4 -69.95 70.05 L-71.15 68.95 Q-72.85 66.7 -72.6 64.85 L-72.35 63.75 -71.85 62.75 Q-70.8 61.1 -68.15 60.6 L-66.45 60.4 Q-64.3 60.5 -61.15 61.7 L-61.35 62.7 Q-66.05 61.15 -68.05 61.65 -70.8 62.25 -71.5 64.05 -72.15 65.9 -70.4 68.1 -69.2 69.8 -64.6 71.6" fill="url(#gradient8)" fill-rule="evenodd" stroke="none"/>
    <path d="M-65.7 66.2 Q-65.95 66.85 -66.55 67.1 L-67.85 67.2 Q-68.55 66.95 -68.85 66.25 -69.15 65.65 -68.95 65.0 -68.7 64.3 -68.0 64.0 -67.35 63.75 -66.7 64.0 -66.05 64.25 -65.75 64.85 -65.45 65.45 -65.7 66.15 L-65.7 66.2" fill="url(#gradient9)" fill-rule="evenodd" stroke="none"/>
    <path d="M-31.25 68.8 L-34.35 71.05 -34.45 71.15 -35.65 72.25 -35.75 72.4 -37.15 74.35 Q-37.7 75.55 -37.35 76.5 -38.2 77.0 -38.55 78.2 -38.9 79.15 -38.75 80.65 L-38.75 80.85 -38.55 82.45 -38.55 82.5 -37.6 86.3 -35.85 90.45 -35.6 90.85 Q-34.65 92.5 -35.5 93.05 -36.1 93.3 -37.05 92.3 L-39.25 89.2 Q-42.1 84.5 -42.55 79.45 L-42.65 77.65 -40.7 72.2 -39.5 70.85 Q-35.8 67.25 -30.65 65.5 L-26.95 64.5 Q-25.6 64.35 -25.3 65.05 -25.0 65.95 -26.8 66.5 L-27.25 66.75 Q-29.4 67.65 -31.25 68.8" fill="url(#gradient10)" fill-rule="evenodd" stroke="none"/>
    <path d="M-34.35 71.05 L-17.0 78.05 -14.5 79.1 -11.0 80.55 Q-10.65 82.5 -12.2 83.75 L-37.15 74.35 -35.75 72.4 -35.65 72.25 -34.45 71.15 -34.35 71.05" fill="url(#gradient11)" fill-rule="evenodd" stroke="none"/>
    <path d="M-38.55 78.2 Q-38.2 77.0 -37.35 76.5 -37.7 75.55 -37.15 74.35 L-12.2 83.75 Q-12.0 84.6 -12.4 85.55 -12.7 86.6 -13.4 87.1 L-38.55 78.2" fill="url(#gradient12)" fill-rule="evenodd" stroke="none"/>
    <path d="M-14.6 90.35 L-15.8 89.95 -20.75 88.3 -28.2 85.85 -38.55 82.5 -38.55 82.45 -38.75 80.85 -38.75 80.65 Q-38.9 79.15 -38.55 78.2 L-13.4 87.1 Q-13.2 88.0 -13.45 88.8 -13.75 89.65 -14.6 90.35" fill="url(#gradient13)" fill-rule="evenodd" stroke="none"/>
    <path d="M-11.0 80.55 L-8.8 81.45 Q-10.35 83.65 -10.55 86.25 L-11.4 87.75 Q-12.15 89.25 -12.25 91.05 L-14.6 90.35 Q-13.75 89.65 -13.45 88.8 -13.2 88.0 -13.4 87.1 -12.7 86.6 -12.4 85.55 -12.0 84.6 -12.2 83.75 -10.65 82.5 -11.0 80.55" fill="url(#gradient14)" fill-rule="evenodd" stroke="none"/>
    <path d="M-59.8 69.0 L-59.35 69.0 -59.0 68.65 -48.35 72.5 -48.35 72.45 -48.0 72.1 -47.5 72.05 Q-47.25 72.15 -47.15 72.45 -46.95 72.7 -47.1 72.95 L-37.35 76.5 Q-38.2 77.0 -38.55 78.2 -38.9 79.15 -38.75 80.65 L-38.75 80.85 -38.55 82.45 -38.55 82.5 -37.6 86.3 -35.85 90.45 -35.6 90.85 Q-34.65 92.5 -35.5 93.05 -36.1 93.3 -37.05 92.3 L-39.25 89.2 Q-42.1 84.5 -42.55 79.45 L-42.65 77.65 -44.8 76.85 Q-49.45 75.05 -53.15 75.45 -55.35 73.05 -58.6 71.8 -62.95 70.05 -64.6 71.6 L-65.05 72.5 Q-68.25 71.4 -69.95 70.05 L-71.15 68.95 Q-72.85 66.7 -72.6 64.85 L-72.35 63.75 -60.25 68.15 -60.2 68.65 -59.8 69.0" fill="#000000" fill-opacity="0.2" fill-rule="evenodd" stroke="none"/>
    <path d="M32.0 94.2 Q22.85 98.75 13.65 103.25 L9.8 102.0 28.6 92.7 32.0 94.2 M17.4 88.25 L-2.4 97.95 -8.8 95.85 11.45 85.85 17.4 88.25 M-10.55 86.25 L-11.4 87.75 -20.2 92.05 -32.5 88.0 -10.4 77.1 1.0 81.65 -9.3 86.7 -10.55 86.25" fill="#ffffff" fill-opacity="0.5019608" fill-rule="evenodd" stroke="none"/>
  </g>
  <defs>
    <linearGradient gradientTransform="matrix(0.0, 0.0249, -0.0535, 0.0, 9.5, 89.15)" gradientUnits="userSpaceOnUse" id="gradient0" spreadMethod="pad" x1="-819.2" x2="819.2">
      <stop offset="0.0" stop-color="#000000" stop-opacity="0.2509804"/>
      <stop offset="1.0" stop-color="#000000" stop-opacity="0.0"/>
    </linearGradient>
    <linearGradient gradientTransform="matrix(0.0, 0.0124, -0.0273, 0.0, 11.85, 91.6)" gradientUnits="userSpaceOnUse" id="gradient1" spreadMethod="pad" x1="-819.2" x2="819.2">
      <stop offset="0.0" stop-color="#000000" stop-opacity="0.2509804"/>
      <stop offset="1.0" stop-color="#000000" stop-opacity="0.0"/>
    </linearGradient>
    <linearGradient gradientTransform="matrix(0.0, 0.0112, -0.0278, 0.0, 10.5, 95.4)" gradientUnits="userSpaceOnUse" id="gradient2" spreadMethod="pad" x1="-819.2" x2="819.2">
      <stop offset="0.0" stop-color="#000000" stop-opacity="0.2509804"/>
      <stop offset="1.0" stop-color="#000000" stop-opacity="0.0"/>
    </linearGradient>
    <linearGradient gradientTransform="matrix(0.0, 0.0172, -0.0561, 0.0, 7.4, 96.6)" gradientUnits="userSpaceOnUse" id="gradient3" spreadMethod="pad" x1="-819.2" x2="819.2">
      <stop offset="0.0" stop-color="#000000" stop-opacity="0.2509804"/>
      <stop offset="1.0" stop-color="#000000" stop-opacity="0.0"/>
    </linearGradient>
    <linearGradient gradientTransform="matrix(0.0, 0.0094, -0.0176, 0.0, -57.25, 69.15)" gradientUnits="userSpaceOnUse" id="gradient4" spreadMethod="pad" x1="-819.2" x2="819.2">
      <stop offset="0.0" stop-color="#000000" stop-opacity="0.2509804"/>
      <stop offset="1.0" stop-color="#000000" stop-opacity="0.0"/>
    </linearGradient>
    <linearGradient gradientTransform="matrix(0.0, 0.0021, -0.0021, 0.0, -51.7, 71.25)" gradientUnits="userSpaceOnUse" id="gradient5" spreadMethod="pad" x1="-819.2" x2="819.2">
      <stop offset="0.0" stop-color="#000000" stop-opacity="0.2509804"/>
      <stop offset="1.0" stop-color="#000000" stop-opacity="0.0"/>
    </linearGradient>
    <linearGradient gradientTransform="matrix(0.0, 8.0E-4, -8.0E-4, 0.0, -47.7, 72.65)" gradientUnits="userSpaceOnUse" id="gradient6" spreadMethod="pad" x1="-819.2" x2="819.2">
      <stop offset="0.0" stop-color="#000000" stop-opacity="0.2509804"/>
      <stop offset="1.0" stop-color="#000000" stop-opacity="0.0"/>
    </linearGradient>
    <linearGradient gradientTransform="matrix(0.0, 0.0038, -0.0025, 0.0, -42.75, 74.5)" gradientUnits="userSpaceOnUse" id="gradient7" spreadMethod="pad" x1="-819.2" x2="819.2">
      <stop offset="0.0" stop-color="#000000" stop-opacity="0.2509804"/>
      <stop offset="1.0" stop-color="#000000" stop-opacity="0.0"/>
    </linearGradient>
    <linearGradient gradientTransform="matrix(0.0, 0.0074, -0.007, 0.0, -66.9, 66.45)" gradientUnits="userSpaceOnUse" id="gradient8" spreadMethod="pad" x1="-819.2" x2="819.2">
      <stop offset="0.0" stop-color="#000000" stop-opacity="0.2509804"/>
      <stop offset="1.0" stop-color="#000000" stop-opacity="0.0"/>
    </linearGradient>
    <linearGradient gradientTransform="matrix(0.0, 0.0021, -0.0021, 0.0, -67.3, 65.6)" gradientUnits="userSpaceOnUse" id="gradient9" spreadMethod="pad" x1="-819.2" x2="819.2">
      <stop offset="0.0" stop-color="#000000" stop-opacity="0.2509804"/>
      <stop offset="1.0" stop-color="#000000" stop-opacity="0.0"/>
    </linearGradient>
    <linearGradient gradientTransform="matrix(0.0, 0.0175, -0.0106, 0.0, -33.95, 78.8)" gradientUnits="userSpaceOnUse" id="gradient10" spreadMethod="pad" x1="-819.2" x2="819.2">
      <stop offset="0.0" stop-color="#000000" stop-opacity="0.2509804"/>
      <stop offset="1.0" stop-color="#000000" stop-opacity="0.0"/>
    </linearGradient>
    <linearGradient gradientTransform="matrix(0.0, 0.0077, -0.016, 0.0, -24.05, 77.4)" gradientUnits="userSpaceOnUse" id="gradient11" spreadMethod="pad" x1="-819.2" x2="819.2">
      <stop offset="0.0" stop-color="#000000" stop-opacity="0.2509804"/>
      <stop offset="1.0" stop-color="#000000" stop-opacity="0.0"/>
    </linearGradient>
    <linearGradient gradientTransform="matrix(0.0, 0.0078, -0.0162, 0.0, -25.35, 80.7)" gradientUnits="userSpaceOnUse" id="gradient12" spreadMethod="pad" x1="-819.2" x2="819.2">
      <stop offset="0.0" stop-color="#000000" stop-opacity="0.2509804"/>
      <stop offset="1.0" stop-color="#000000" stop-opacity="0.0"/>
    </linearGradient>
    <linearGradient gradientTransform="matrix(0.0, 0.0074, -0.0155, 0.0, -26.05, 84.25)" gradientUnits="userSpaceOnUse" id="gradient13" spreadMethod="pad" x1="-819.2" x2="819.2">
      <stop offset="0.0" stop-color="#000000" stop-opacity="0.2509804"/>
      <stop offset="1.0" stop-color="#000000" stop-opacity="0.0"/>
    </linearGradient>
    <linearGradient gradientTransform="matrix(0.0, 0.0064, -0.0035, 0.0, -11.65, 85.8)" gradientUnits="userSpaceOnUse" id="gradient14" spreadMethod="pad" x1="-819.2" x2="819.2">
      <stop offset="0.0" stop-color="#000000" stop-opacity="0.2509804"/>
      <stop offset="1.0" stop-color="#000000" stop-opacity="0.0"/>
    </linearGradient>
  </defs>
</svg>
