<?xml version="1.0" encoding="UTF-8" standalone="no"?>
<svg xmlns:xlink="http://www.w3.org/1999/xlink" height="77.8px" width="199.75px" xmlns="http://www.w3.org/2000/svg">
  <g transform="matrix(1.0, 0.0, 0.0, 1.0, 78.75, -55.45)">
    <path d="M13.75 88.5 Q14.2 89.2 15.4 90.0 18.1 91.75 24.4 94.0 L87.75 116.05 88.15 116.2 91.7 117.45 Q110.1 124.05 121.0 133.25 L108.45 128.7 Q105.15 125.7 88.6 119.65 L85.15 118.35 82.85 117.55 26.9 97.9 23.8 96.7 Q16.75 93.7 14.6 90.55 13.95 89.55 13.75 88.5" fill="url(#gradient0)" fill-rule="evenodd" stroke="none"/>
    <path d="M13.95 93.75 L13.9 94.3 13.6 94.7 13.0 94.7 -20.35 82.55 -20.75 82.2 -20.75 81.7 -20.4 81.3 -19.85 81.25 13.5 93.35 13.95 93.75" fill="url(#gradient1)" fill-rule="evenodd" stroke="none"/>
    <path d="M13.95 93.75 L13.5 93.35 -19.85 81.25 -20.4 81.3 -20.75 81.7 -20.75 82.2 -20.35 82.55 13.0 94.7 13.6 94.7 13.9 94.3 13.95 93.75 M13.75 88.5 Q13.95 89.55 14.6 90.55 16.75 93.7 23.8 96.7 L26.9 97.9 82.85 117.55 85.15 118.35 88.6 119.65 Q105.15 125.7 108.45 128.7 103.75 128.85 85.25 122.05 L81.8 120.75 81.7 120.7 26.2 99.8 21.6 98.3 Q13.2 95.95 10.1 98.55 L-11.35 89.7 Q-14.55 88.5 -19.65 91.85 L-20.15 89.3 Q-21.4 85.1 -25.3 83.7 L-34.05 80.5 -33.95 80.25 -32.45 80.45 -30.4 80.15 Q-29.0 79.9 -27.5 80.15 L-25.5 79.95 Q-25.55 79.2 -26.9 78.45 L-29.05 76.6 -30.5 75.05 -31.8 74.25 -31.7 74.0 -22.9 77.1 Q-18.0 78.95 -13.4 74.5 -11.8 79.85 -9.0 81.3 L-8.35 81.55 13.75 88.5" fill="url(#gradient2)" fill-rule="evenodd" stroke="none"/>
    <path d="M108.45 128.7 L121.0 133.25 Q105.2 133.25 84.45 125.05 L21.8 101.25 18.95 100.25 Q12.3 97.95 10.1 98.55 13.2 95.95 21.6 98.3 L26.2 99.8 81.7 120.7 81.8 120.75 85.25 122.05 Q103.75 128.85 108.45 128.7" fill="url(#gradient3)" fill-rule="evenodd" stroke="none"/>
    <path d="M-41.7 71.0 L-43.65 76.3 -45.75 75.55 -43.75 70.25 -41.7 71.0" fill="url(#gradient4)" fill-rule="evenodd" stroke="none"/>
    <path d="M-75.2 63.85 Q-75.35 64.5 -75.75 64.35 -78.75 63.3 -78.75 60.55 -76.95 58.4 -74.0 59.5 -73.65 59.7 -73.9 60.3 L-74.65 62.1 -75.2 63.85" fill="url(#gradient5)" fill-rule="evenodd" stroke="none"/>
    <path d="M-73.9 60.3 Q-73.55 61.1 -72.45 61.2 L-73.0 62.7 -73.55 64.15 Q-74.4 63.5 -75.2 63.85 L-74.65 62.1 -73.9 60.3" fill="url(#gradient6)" fill-rule="evenodd" stroke="none"/>
    <path d="M-72.45 61.2 L-71.9 60.1 Q-70.9 58.4 -69.5 59.6 L-72.25 67.25 Q-74.15 67.3 -73.75 65.3 L-73.55 64.15 -73.0 62.7 -72.45 61.2" fill="url(#gradient7)" fill-rule="evenodd" stroke="none"/>
    <path d="M-62.55 63.45 L-64.5 68.75 Q-65.05 69.05 -65.35 68.45 L-63.35 63.1 Q-62.75 62.85 -62.55 63.45" fill="url(#gradient8)" fill-rule="evenodd" stroke="none"/>
    <path d="M-69.5 59.6 Q-68.35 61.15 -65.35 62.4 L-67.3 67.7 Q-70.35 66.7 -72.25 67.25 L-69.5 59.6" fill="url(#gradient9)" fill-rule="evenodd" stroke="none"/>
    <path d="M-64.5 68.75 L-62.55 63.45 Q-52.15 66.0 -44.65 69.9 L-46.6 75.25 Q-54.8 73.5 -64.5 68.75" fill="url(#gradient10)" fill-rule="evenodd" stroke="none"/>
    <path d="M-40.35 79.9 L-41.5 81.75 Q-45.6 90.65 -36.95 94.1 L-46.35 94.35 Q-47.2 88.5 -43.55 78.7 L-43.5 78.7 -40.35 79.9" fill="url(#gradient11)" fill-rule="evenodd" stroke="none"/>
    <path d="M-40.05 69.25 Q-36.6 59.35 -32.15 55.45 -27.15 57.6 -25.15 61.7 -34.05 58.8 -36.55 68.2 L-36.85 70.4 -40.05 69.25" fill="url(#gradient12)" fill-rule="evenodd" stroke="none"/>
    <path d="M-37.25 77.9 L-38.95 78.7 -40.35 79.9 -43.5 78.7 -40.1 69.3 -40.05 69.25 -36.85 70.4 -36.55 72.25 -35.85 73.9 Q-34.55 75.9 -32.0 77.6 L-37.25 77.9" fill="url(#gradient13)" fill-rule="evenodd" stroke="none"/>
    <path d="M-33.95 80.25 Q-36.05 79.7 -37.25 77.9 L-32.0 77.6 Q-34.55 75.9 -35.85 73.9 -33.75 73.3 -31.8 74.25 L-30.5 75.05 -29.05 76.6 -26.9 78.45 Q-25.55 79.2 -25.5 79.95 L-27.5 80.15 Q-29.0 79.9 -30.4 80.15 L-32.45 80.45 -33.95 80.25" fill="url(#gradient14)" fill-rule="evenodd" stroke="none"/>
    <path d="M-72.25 67.25 Q-74.15 67.3 -73.75 65.3 L-73.55 64.15 Q-74.4 63.5 -75.2 63.85 -75.35 64.5 -75.75 64.35 -78.75 63.3 -78.75 60.55 L-32.0 77.6 -37.25 77.9 -38.95 78.7 -40.35 79.9 -41.5 81.75 Q-45.6 90.65 -36.95 94.1 L-46.35 94.35 Q-47.2 88.5 -43.55 78.7 L-43.5 78.7 -42.75 76.65 Q-43.35 76.95 -43.65 76.3 L-45.75 75.55 Q-46.3 75.9 -46.6 75.25 -54.8 73.5 -64.5 68.75 -65.05 69.05 -65.35 68.45 L-66.4 68.05 Q-66.95 68.35 -67.3 67.7 -70.35 66.7 -72.25 67.25" fill="#000000" fill-opacity="0.2" fill-rule="evenodd" stroke="none"/>
    <path d="M15.4 90.0 Q18.1 91.75 24.4 94.0 L87.75 116.05 88.15 116.2 91.7 117.45 Q110.1 124.05 121.0 133.25 105.2 133.25 84.45 125.05 L21.8 101.25 18.95 100.25 Q12.3 97.95 10.1 98.55 13.2 95.95 21.6 98.3 L23.8 96.7 Q16.75 93.7 14.6 90.55 L5.9 96.85 1.75 95.1 11.8 87.9 13.75 88.5 Q14.2 89.2 15.4 90.0 M75.0 114.8 L71.95 117.05 81.7 120.7 81.8 120.75 85.15 118.35 82.85 117.55 75.0 114.8 M49.15 105.7 L30.05 99.05 28.05 100.5 46.65 107.5 49.15 105.7 M56.55 108.3 L53.85 110.25 66.8 115.1 69.8 112.95 56.55 108.3 M88.6 119.65 L85.25 122.05 Q103.75 128.85 108.45 128.7 105.15 125.7 88.6 119.65 M-19.65 91.85 L-20.15 89.3 -9.0 81.3 -8.35 81.55 1.05 84.5 -8.05 91.1 -11.35 89.7 Q-14.55 88.5 -19.65 91.85" fill="#ffffff" fill-opacity="0.5019608" fill-rule="evenodd" stroke="none"/>
  </g>
  <defs>
    <linearGradient gradientTransform="matrix(0.0, 0.0273, -0.0655, 0.0, 67.4, 110.85)" gradientUnits="userSpaceOnUse" id="gradient0" spreadMethod="pad" x1="-819.2" x2="819.2">
      <stop offset="0.0" stop-color="#000000" stop-opacity="0.2509804"/>
      <stop offset="1.0" stop-color="#000000" stop-opacity="0.0"/>
    </linearGradient>
    <linearGradient gradientTransform="matrix(0.0, 0.0083, -0.0212, 0.0, -3.4, 87.95)" gradientUnits="userSpaceOnUse" id="gradient1" spreadMethod="pad" x1="-819.2" x2="819.2">
      <stop offset="0.0" stop-color="#000000" stop-opacity="0.2509804"/>
      <stop offset="1.0" stop-color="#000000" stop-opacity="0.0"/>
    </linearGradient>
    <linearGradient gradientTransform="matrix(0.0, 0.0334, -0.087, 0.0, 37.2, 101.35)" gradientUnits="userSpaceOnUse" id="gradient2" spreadMethod="pad" x1="-819.2" x2="819.2">
      <stop offset="0.0" stop-color="#000000" stop-opacity="0.2509804"/>
      <stop offset="1.0" stop-color="#000000" stop-opacity="0.0"/>
    </linearGradient>
    <linearGradient gradientTransform="matrix(0.0, 0.022, -0.0677, 0.0, 65.6, 115.25)" gradientUnits="userSpaceOnUse" id="gradient3" spreadMethod="pad" x1="-819.2" x2="819.2">
      <stop offset="0.0" stop-color="#000000" stop-opacity="0.2509804"/>
      <stop offset="1.0" stop-color="#000000" stop-opacity="0.0"/>
    </linearGradient>
    <linearGradient gradientTransform="matrix(0.0, 0.0037, -0.0025, 0.0, -43.7, 73.3)" gradientUnits="userSpaceOnUse" id="gradient4" spreadMethod="pad" x1="-819.2" x2="819.2">
      <stop offset="0.0" stop-color="#000000" stop-opacity="0.2509804"/>
      <stop offset="1.0" stop-color="#000000" stop-opacity="0.0"/>
    </linearGradient>
    <linearGradient gradientTransform="matrix(0.0, 0.0032, -0.003, 0.0, -76.3, 61.7)" gradientUnits="userSpaceOnUse" id="gradient5" spreadMethod="pad" x1="-819.2" x2="819.2">
      <stop offset="0.0" stop-color="#000000" stop-opacity="0.2509804"/>
      <stop offset="1.0" stop-color="#000000" stop-opacity="0.0"/>
    </linearGradient>
    <linearGradient gradientTransform="matrix(0.0, 0.0024, -0.0017, 0.0, -73.8, 62.2)" gradientUnits="userSpaceOnUse" id="gradient6" spreadMethod="pad" x1="-819.2" x2="819.2">
      <stop offset="0.0" stop-color="#000000" stop-opacity="0.2509804"/>
      <stop offset="1.0" stop-color="#000000" stop-opacity="0.0"/>
    </linearGradient>
    <linearGradient gradientTransform="matrix(0.0, 0.005, -0.0026, 0.0, -71.65, 63.15)" gradientUnits="userSpaceOnUse" id="gradient7" spreadMethod="pad" x1="-819.2" x2="819.2">
      <stop offset="0.0" stop-color="#000000" stop-opacity="0.2509804"/>
      <stop offset="1.0" stop-color="#000000" stop-opacity="0.0"/>
    </linearGradient>
    <linearGradient gradientTransform="matrix(0.0, 0.0035, -0.0017, 0.0, -63.95, 65.9)" gradientUnits="userSpaceOnUse" id="gradient8" spreadMethod="pad" x1="-819.2" x2="819.2">
      <stop offset="0.0" stop-color="#000000" stop-opacity="0.2509804"/>
      <stop offset="1.0" stop-color="#000000" stop-opacity="0.0"/>
    </linearGradient>
    <linearGradient gradientTransform="matrix(0.0, 0.005, -0.0042, 0.0, -68.75, 63.65)" gradientUnits="userSpaceOnUse" id="gradient9" spreadMethod="pad" x1="-819.2" x2="819.2">
      <stop offset="0.0" stop-color="#000000" stop-opacity="0.2509804"/>
      <stop offset="1.0" stop-color="#000000" stop-opacity="0.0"/>
    </linearGradient>
    <linearGradient gradientTransform="matrix(0.0, 0.0072, -0.0121, 0.0, -54.55, 69.3)" gradientUnits="userSpaceOnUse" id="gradient10" spreadMethod="pad" x1="-819.2" x2="819.2">
      <stop offset="0.0" stop-color="#000000" stop-opacity="0.2509804"/>
      <stop offset="1.0" stop-color="#000000" stop-opacity="0.0"/>
    </linearGradient>
    <linearGradient gradientTransform="matrix(0.0, 0.01, -0.0058, 0.0, -41.7, 86.9)" gradientUnits="userSpaceOnUse" id="gradient11" spreadMethod="pad" x1="-819.2" x2="819.2">
      <stop offset="0.0" stop-color="#000000" stop-opacity="0.2509804"/>
      <stop offset="1.0" stop-color="#000000" stop-opacity="0.0"/>
    </linearGradient>
    <linearGradient gradientTransform="matrix(0.0, 0.0091, -0.0091, 0.0, -32.6, 62.9)" gradientUnits="userSpaceOnUse" id="gradient12" spreadMethod="pad" x1="-819.2" x2="819.2">
      <stop offset="0.0" stop-color="#000000" stop-opacity="0.2509804"/>
      <stop offset="1.0" stop-color="#000000" stop-opacity="0.0"/>
    </linearGradient>
    <linearGradient gradientTransform="matrix(0.0, 0.0065, -0.007, 0.0, -37.75, 74.55)" gradientUnits="userSpaceOnUse" id="gradient13" spreadMethod="pad" x1="-819.2" x2="819.2">
      <stop offset="0.0" stop-color="#000000" stop-opacity="0.2509804"/>
      <stop offset="1.0" stop-color="#000000" stop-opacity="0.0"/>
    </linearGradient>
    <linearGradient gradientTransform="matrix(0.0, 0.0041, -0.0072, 0.0, -31.4, 77.05)" gradientUnits="userSpaceOnUse" id="gradient14" spreadMethod="pad" x1="-819.2" x2="819.2">
      <stop offset="0.0" stop-color="#000000" stop-opacity="0.2509804"/>
      <stop offset="1.0" stop-color="#000000" stop-opacity="0.0"/>
    </linearGradient>
  </defs>
</svg>
