<?xml version="1.0" encoding="UTF-8" standalone="no"?>
<svg xmlns:xlink="http://www.w3.org/1999/xlink" height="53.35px" width="29.25px" xmlns="http://www.w3.org/2000/svg">
  <g transform="matrix(1.0, 0.0, 0.0, 1.0, 61.15, -66.65)">
    <path d="M-60.2 75.65 L-57.75 75.3 Q-54.55 96.65 -46.6 120.0 -51.0 116.4 -52.85 113.75 -58.15 94.3 -60.2 75.65" fill="url(#gradient0)" fill-rule="evenodd" stroke="none"/>
    <path d="M-60.2 75.65 L-61.0 75.75 Q-61.5 70.5 -60.0 67.7 -57.7 70.85 -56.65 75.15 L-57.75 75.3 -60.2 75.65" fill="url(#gradient1)" fill-rule="evenodd" stroke="none"/>
    <path d="M-52.7 74.95 L-55.15 75.45 -55.95 75.55 Q-56.7 70.35 -55.2 67.0 -52.65 70.8 -51.6 74.75 L-52.7 74.95" fill="url(#gradient2)" fill-rule="evenodd" stroke="none"/>
    <path d="M-55.15 75.45 L-52.7 74.95 Q-48.35 96.15 -39.2 119.0 -43.8 115.7 -45.8 113.1 -52.1 93.95 -55.15 75.45" fill="url(#gradient3)" fill-rule="evenodd" stroke="none"/>
    <path d="M-50.1 75.25 L-50.95 75.4 Q-51.95 70.25 -50.5 66.65 -48.05 70.45 -46.6 74.4 L-47.7 74.65 -50.1 75.25" fill="url(#gradient4)" fill-rule="evenodd" stroke="none"/>
    <path d="M-50.1 75.25 L-47.7 74.65 Q-42.2 95.6 -31.9 117.95 -36.7 114.9 -38.8 112.4 -46.1 93.6 -50.1 75.25" fill="url(#gradient5)" fill-rule="evenodd" stroke="none"/>
    <path d="M-54.65 106.8 L-51.25 105.0 -47.5 117.3 -48.65 118.25 Q-51.45 115.75 -52.85 113.75 L-54.65 106.8 M-48.7 103.65 L-45.45 101.95 -41.7 112.5 -44.35 114.7 -45.8 113.1 -48.7 103.65 M-36.3 108.0 L-39.45 110.65 -43.05 100.65 -39.85 99.0 -36.3 108.0 M-53.7 83.25 L-51.05 82.3 -48.7 91.2 -51.65 92.55 -53.7 83.25 M-58.95 85.15 L-56.2 84.15 -54.2 93.7 -57.2 95.1 -58.95 85.15 M-48.65 81.4 L-46.1 80.45 -43.5 88.8 -46.35 90.1 -48.65 81.4" fill="#ffffff" fill-opacity="0.5019608" fill-rule="evenodd" stroke="none"/>
  </g>
  <defs>
    <linearGradient gradientTransform="matrix(0.0, 0.0273, -0.0083, 0.0, -53.4, 97.65)" gradientUnits="userSpaceOnUse" id="gradient0" spreadMethod="pad" x1="-819.2" x2="819.2">
      <stop offset="0.0" stop-color="#000000" stop-opacity="0.2509804"/>
      <stop offset="1.0" stop-color="#000000" stop-opacity="0.0"/>
    </linearGradient>
    <linearGradient gradientTransform="matrix(0.0, 0.0049, -0.0027, 0.0, -58.85, 71.7)" gradientUnits="userSpaceOnUse" id="gradient1" spreadMethod="pad" x1="-819.2" x2="819.2">
      <stop offset="0.0" stop-color="#000000" stop-opacity="0.2509804"/>
      <stop offset="1.0" stop-color="#000000" stop-opacity="0.0"/>
    </linearGradient>
    <linearGradient gradientTransform="matrix(0.0, 0.0052, -0.0028, 0.0, -53.9, 71.25)" gradientUnits="userSpaceOnUse" id="gradient2" spreadMethod="pad" x1="-819.2" x2="819.2">
      <stop offset="0.0" stop-color="#000000" stop-opacity="0.2509804"/>
      <stop offset="1.0" stop-color="#000000" stop-opacity="0.0"/>
    </linearGradient>
    <linearGradient gradientTransform="matrix(0.0, 0.0269, -0.0097, 0.0, -47.15, 96.95)" gradientUnits="userSpaceOnUse" id="gradient3" spreadMethod="pad" x1="-819.2" x2="819.2">
      <stop offset="0.0" stop-color="#000000" stop-opacity="0.2509804"/>
      <stop offset="1.0" stop-color="#000000" stop-opacity="0.0"/>
    </linearGradient>
    <linearGradient gradientTransform="matrix(0.0, 0.0053, -0.0029, 0.0, -48.95, 71.0)" gradientUnits="userSpaceOnUse" id="gradient4" spreadMethod="pad" x1="-819.2" x2="819.2">
      <stop offset="0.0" stop-color="#000000" stop-opacity="0.2509804"/>
      <stop offset="1.0" stop-color="#000000" stop-opacity="0.0"/>
    </linearGradient>
    <linearGradient gradientTransform="matrix(0.0, 0.0264, -0.0111, 0.0, -41.0, 96.3)" gradientUnits="userSpaceOnUse" id="gradient5" spreadMethod="pad" x1="-819.2" x2="819.2">
      <stop offset="0.0" stop-color="#000000" stop-opacity="0.2509804"/>
      <stop offset="1.0" stop-color="#000000" stop-opacity="0.0"/>
    </linearGradient>
  </defs>
</svg>
