<?xml version="1.0" encoding="UTF-8" standalone="no"?>
<svg xmlns:xlink="http://www.w3.org/1999/xlink" height="89.8px" width="241.6px" xmlns="http://www.w3.org/2000/svg">
  <g transform="matrix(1.0, 0.0, 0.0, 1.0, -297.2, -348.0)">
    <path d="M351.8 366.8 L352.55 366.55 Q355.85 365.2 359.6 366.2 L363.75 367.7 364.05 367.2 364.45 366.7 364.85 366.2 365.45 365.6 365.8 365.2 366.25 364.7 366.65 364.35 367.05 363.95 Q367.3 363.7 367.65 363.55 L368.25 363.2 368.75 362.8 369.45 362.6 369.95 362.3 370.65 362.05 371.15 361.95 371.55 361.75 381.7 350.7 Q382.85 349.45 383.5 349.6 383.85 350.15 382.7 351.45 L372.1 363.15 Q368.05 363.4 365.0 368.2 L365.65 368.4 365.75 370.35 379.95 375.55 Q380.5 374.6 382.85 375.75 L385.95 374.8 518.85 425.65 Q528.85 429.5 538.8 437.8 525.8 437.9 515.65 434.35 L381.25 387.8 379.45 385.1 Q376.85 384.6 377.05 383.45 L362.8 378.25 361.45 379.75 360.8 379.55 Q360.2 385.1 363.05 387.9 L363.7 403.65 Q363.75 405.35 363.1 405.6 362.45 405.35 362.5 403.6 L361.85 389.05 361.75 388.6 361.55 388.2 361.25 387.8 360.9 387.15 360.65 386.6 360.3 386.0 360.15 385.4 360.0 384.65 359.75 384.05 359.7 383.4 359.65 382.95 359.55 382.25 359.6 381.6 359.45 380.95 359.5 380.35 359.6 379.6 359.65 379.05 355.45 377.55 Q351.95 375.8 350.25 372.8 L349.95 372.1 349.8 371.7 Q349.2 370.4 349.0 368.8 350.15 367.7 351.5 367.0 L351.8 366.8 M359.4 369.15 Q360.6 369.6 361.25 370.8 361.8 372.0 361.35 373.2 360.9 374.4 359.65 374.95 L357.2 375.1 Q355.95 374.65 355.45 373.45 354.85 372.25 355.3 371.05 355.75 369.85 357.0 369.35 358.15 368.7 359.4 369.15 M359.1 367.4 Q354.4 366.2 350.8 369.4 351.5 374.2 355.85 376.3 L360.65 378.1 364.0 374.2 363.9 369.1 359.1 367.4 M309.65 351.0 Q307.0 354.15 307.4 357.2 L304.4 358.0 297.2 352.45 Q297.35 350.0 298.8 348.0 L307.95 348.35 309.65 351.0" fill="#ff0000" fill-rule="evenodd" stroke="none"/>
  </g>
</svg>
