<?xml version="1.0" encoding="UTF-8" standalone="no"?>
<svg xmlns:xlink="http://www.w3.org/1999/xlink" height="153.9px" width="187.0px" xmlns="http://www.w3.org/2000/svg">
  <g transform="matrix(1.0, 0.0, 0.0, 1.0, -306.3, -210.9)">
    <path d="M449.1 228.8 L448.85 229.15 Q448.6 229.55 448.6 230.0 448.6 230.7 449.1 231.2 449.6 231.7 450.3 231.7 451.0 231.7 451.5 231.2 451.95 230.75 452.0 230.15 L452.0 230.0 Q452.0 229.3 451.5 228.8 451.0 228.3 450.3 228.3 449.6 228.3 449.1 228.8 M446.15 228.0 L444.3 228.5 448.55 232.6 466.45 237.85 470.2 233.85 M433.6 222.6 Q435.25 225.4 436.2 229.65 L439.1 243.45 Q440.05 246.55 434.45 245.65 L419.1 242.2 411.65 241.0 M435.1 243.45 Q435.8 243.45 436.3 242.95 436.8 242.45 436.8 241.75 436.8 241.05 436.3 240.55 435.8 240.05 435.1 240.05 434.4 240.05 433.9 240.55 433.4 241.05 433.4 241.75 433.4 242.45 433.9 242.95 434.4 243.45 435.1 243.45 M426.9 252.9 Q426.4 253.4 426.4 254.1 426.4 254.8 426.9 255.3 427.4 255.8 428.1 255.8 428.8 255.8 429.3 255.3 429.8 254.8 429.8 254.1 429.8 253.4 429.3 252.9 428.8 252.4 428.1 252.4 427.4 252.4 426.9 252.9 M411.65 241.05 Q420.85 246.4 432.9 251.8 435.65 253.6 431.7 255.85 419.45 266.0 405.15 274.3 L409.25 282.15 411.35 284.1 413.5 286.1 401.6 343.05 M444.4 267.6 Q454.7 250.85 466.45 237.85 M365.7 240.55 Q366.2 241.05 366.2 241.75 366.2 242.45 365.7 242.95 365.2 243.45 364.5 243.45 363.8 243.45 363.3 242.95 362.8 242.45 362.8 241.75 362.8 241.05 363.3 240.55 363.8 240.05 364.5 240.05 365.2 240.05 365.7 240.55 M387.85 241.0 L380.35 242.2 365.0 245.65 Q359.45 246.55 360.4 243.45 L363.3 229.65 Q364.2 225.45 365.85 222.65 M355.2 267.6 Q344.9 250.85 333.15 237.85 L329.4 233.85 M349.3 228.3 Q350.0 228.3 350.5 228.8 L350.8 229.15 351.0 230.0 Q351.0 230.7 350.5 231.2 350.0 231.7 349.3 231.7 348.6 231.7 348.1 231.2 347.65 230.75 347.6 230.15 L347.6 230.0 Q347.6 229.3 348.1 228.8 348.6 228.3 349.3 228.3 M333.15 237.85 L351.05 232.6 355.3 228.5 353.45 228.0 M371.5 252.4 Q372.2 252.4 372.7 252.9 373.2 253.4 373.2 254.1 373.2 254.8 372.7 255.3 372.2 255.8 371.5 255.8 370.8 255.8 370.3 255.3 369.8 254.8 369.8 254.1 369.8 253.4 370.3 252.9 370.8 252.4 371.5 252.4 M409.25 282.15 L399.75 277.35 394.35 274.3 Q380.0 266.0 367.75 255.85 363.85 253.6 366.6 251.8 378.6 246.4 387.85 241.05 M367.1 317.5 L378.6 321.15 378.6 311.1 366.95 308.15 M384.95 341.75 L385.5 335.25 382.65 335.05 Q374.2 334.1 365.75 329.7 M432.5 317.5 L421.0 321.15 421.0 311.1 432.7 308.15 M414.7 341.75 L414.15 335.25 416.95 335.05 417.0 335.05 Q425.45 334.1 433.9 329.7 M411.35 284.1 L398.1 343.0 M405.15 274.3 L399.75 264.05" fill="none" stroke="#000000" stroke-linecap="round" stroke-linejoin="round" stroke-opacity="0.5019608" stroke-width="1.0"/>
    <path d="M470.2 233.85 L468.4 231.05 450.6 226.8 446.15 228.0 M470.2 233.85 Q480.15 245.35 479.4 266.2 480.9 289.8 487.2 298.6 L485.0 301.65 485.6 302.75 Q489.4 309.3 492.8 315.8 491.9 340.4 486.25 363.9 L481.25 364.25 Q476.6 363.85 471.85 361.1 L467.9 358.4 465.35 356.2 Q466.4 338.8 461.7 320.8 462.2 313.2 465.85 303.75 455.9 292.25 449.9 280.65 445.45 289.8 434.8 294.7 433.2 301.45 432.7 308.15 432.3 312.85 432.5 317.5 432.75 323.6 433.9 329.7 L435.2 335.6 433.35 336.4 Q424.1 340.05 414.7 341.75 408.6 342.95 401.6 343.05 L398.1 343.0 384.95 341.75 Q375.55 340.05 366.3 336.4 L364.4 335.6 365.75 329.7 Q366.85 323.6 367.1 317.5 367.3 312.85 366.95 308.15 366.4 301.45 364.8 294.7 354.15 289.8 349.7 280.65 343.7 292.25 333.75 303.75 337.4 313.2 337.9 320.8 333.2 338.8 334.25 356.2 L331.7 358.4 Q329.7 359.95 327.75 361.1 323.0 363.85 318.35 364.25 L313.35 363.9 Q307.7 340.4 306.8 315.8 310.2 309.3 314.0 302.75 L314.6 301.65 312.4 298.6 Q318.7 289.8 320.2 266.2 319.45 245.35 329.4 233.85 L331.2 231.05 349.0 226.8 353.45 228.0 365.85 222.65 Q367.6 219.6 370.25 218.2 L380.1 211.4 383.7 211.4 382.85 218.9 382.5 221.75 382.55 223.0 382.85 227.15 Q384.8 234.05 387.85 241.0 L387.85 241.05 Q390.95 248.2 395.2 255.4 L399.75 264.05 404.25 255.4 Q408.55 248.2 411.65 241.05 L411.65 241.0 Q414.7 234.05 416.6 227.15 417.05 222.55 416.95 218.9 416.8 215.05 416.0 212.25 L415.9 211.4 419.35 211.4 429.25 218.2 Q431.85 219.6 433.6 222.6 L446.15 228.0 M449.9 280.65 Q446.5 274.1 444.4 267.6 M349.7 280.65 Q353.1 274.1 355.2 267.6" fill="none" stroke="#000000" stroke-linecap="round" stroke-linejoin="round" stroke-width="1.0"/>
  </g>
</svg>
