<?xml version="1.0" encoding="UTF-8" standalone="no"?>
<svg xmlns:xlink="http://www.w3.org/1999/xlink" height="293.0px" width="187.0px" xmlns="http://www.w3.org/2000/svg">
  <g transform="matrix(1.0, 0.0, 0.0, 1.0, -306.3, -207.25)">
    <path d="M416.2 214.75 Q410.55 218.0 403.45 218.85 L403.45 319.55 Q407.25 330.4 410.55 342.45 426.2 400.3 429.65 486.25 449.4 480.6 461.65 463.95 M449.9 280.65 Q446.5 274.1 444.4 267.6 454.7 250.85 466.45 237.85 L470.2 233.85 M407.35 235.55 L442.15 232.95 M399.8 214.2 L399.8 323.6 M383.4 214.75 Q389.05 218.0 396.15 218.85 L396.15 319.55 Q392.35 330.35 389.15 342.3 373.4 400.25 369.95 486.25 350.2 480.6 337.95 463.95 M329.4 233.85 L333.15 237.85 Q344.9 250.85 355.2 267.6 353.1 274.1 349.7 280.65 M392.25 235.55 L357.45 232.95 M488.7 352.45 Q477.1 353.75 465.5 346.4 M310.9 352.45 Q322.5 353.75 334.1 346.4" fill="none" stroke="#000000" stroke-linecap="round" stroke-linejoin="round" stroke-opacity="0.5019608" stroke-width="1.0"/>
    <path d="M470.2 233.85 L450.2 229.75 416.25 215.1 416.2 214.75 417.5 213.95 417.0 208.5 415.5 207.75 415.5 207.85 Q412.5 213.95 399.8 214.2 387.1 213.95 384.15 207.85 L384.1 207.75 382.6 208.5 382.1 213.95 383.4 214.75 383.35 215.1 349.4 229.75 329.4 233.85 M461.65 463.95 Q443.1 378.7 438.0 333.8 434.8 305.75 439.0 292.5 446.4 287.9 449.9 280.65 M470.2 233.85 Q480.15 245.35 479.4 266.2 480.9 289.8 487.2 298.6 L485.0 301.65 485.6 302.75 Q489.4 309.3 492.8 315.8 492.1 334.45 488.7 352.45 L486.25 363.9 481.25 364.25 Q476.6 363.85 471.85 361.1 L467.9 358.4 465.35 356.2 465.5 346.4 Q465.1 333.75 461.7 320.8 462.2 313.2 465.85 303.75 455.9 292.25 449.9 280.65 M399.8 323.6 Q402.7 333.05 405.25 342.9 423.3 411.95 426.5 499.75 457.3 496.0 464.2 475.55 L461.65 463.95 M337.95 463.95 L335.4 475.55 Q342.3 496.0 373.1 499.75 376.3 411.85 394.4 342.8 396.95 333.0 399.8 323.6 M349.7 280.65 Q353.35 288.15 361.15 292.8 364.8 305.7 361.6 333.8 356.5 378.7 337.95 463.95 M334.1 346.4 Q334.5 333.75 337.9 320.8 337.4 313.2 333.75 303.75 343.7 292.25 349.7 280.65 M334.1 346.4 Q333.95 351.3 334.25 356.2 L331.7 358.4 Q329.7 359.95 327.75 361.1 323.0 363.85 318.35 364.25 L313.35 363.9 310.9 352.45 Q307.5 334.45 306.8 315.8 310.2 309.3 314.0 302.75 L314.6 301.65 312.4 298.6 Q318.7 289.8 320.2 266.2 319.45 245.35 329.4 233.85" fill="none" stroke="#000000" stroke-linecap="round" stroke-linejoin="round" stroke-width="1.0"/>
  </g>
</svg>
