<?xml version="1.0" encoding="UTF-8" standalone="no"?>
<svg xmlns:xlink="http://www.w3.org/1999/xlink" height="277.3px" width="141.8px" xmlns="http://www.w3.org/2000/svg">
  <g transform="matrix(1.0, 0.0, 0.0, 1.0, -328.9, -212.75)">
    <path d="M399.8 344.65 L411.5 379.65 Q423.8 427.0 425.8 479.4 427.2 487.95 434.8 489.15 441.15 490.2 446.2 488.35 L450.65 486.7 Q454.2 445.35 449.9 402.05 447.95 382.45 443.85 363.2 434.55 328.55 437.6 293.3 446.05 288.55 449.9 280.65 446.5 274.1 444.4 267.6 454.7 250.85 466.45 237.85 L470.2 233.85 450.2 229.75 423.8 218.35 422.95 217.0 422.85 216.8 416.3 213.25 416.8 217.45 416.85 218.9 416.7 222.8 416.05 227.95 415.4 229.75 413.3 235.1 Q408.15 247.6 399.9 260.7 M383.15 222.8 L383.0 218.9 383.05 217.45 383.45 214.2 383.55 213.25 Q380.3 215.05 377.0 216.8 L376.9 217.0 376.15 218.2 349.4 229.75 329.4 233.85 333.15 237.85 Q344.9 250.85 355.2 267.6 353.1 274.1 349.7 280.65 353.55 288.55 362.0 293.3 365.05 328.55 355.75 363.2 351.65 382.45 349.75 401.6 345.4 445.35 348.95 486.7 L353.4 488.35 Q358.45 490.2 364.8 489.15 372.4 487.95 373.8 479.4 375.8 427.0 388.15 379.65 L399.8 344.65 M383.15 222.8 Q383.3 225.25 383.8 227.95 L384.45 229.75 386.55 235.15 Q391.65 247.6 399.9 260.7 M383.45 214.2 L383.55 213.4 383.55 213.25" fill="none" stroke="#000000" stroke-linecap="round" stroke-linejoin="round" stroke-width="1.0"/>
    <path d="M423.8 218.35 L429.85 228.15 426.0 231.65 429.1 233.95 442.15 232.95 M416.7 222.8 Q419.65 226.1 422.9 229.0 L426.0 231.65 M399.9 260.7 L397.95 267.25 397.25 269.45 399.8 267.75 Q420.15 253.65 432.15 236.0 L429.1 233.95 M441.7 259.15 L414.95 260.9 414.95 263.9 441.7 262.15 441.7 259.15 M376.15 218.2 L369.95 228.15 373.85 231.65 376.95 229.0 383.15 222.8 M373.85 231.65 L370.75 233.95 367.7 236.0 Q379.85 253.95 397.95 267.25 M399.8 344.65 L399.8 278.4 397.25 269.45 M403.0 271.3 Q403.0 272.05 402.45 272.55 401.95 273.1 401.2 273.1 400.45 273.1 399.9 272.55 399.4 272.05 399.4 271.3 399.4 270.55 399.9 270.0 400.45 269.5 401.2 269.5 401.95 269.5 402.45 270.0 403.0 270.55 403.0 271.3 M370.75 233.95 L357.45 232.95 M402.25 309.05 Q401.75 308.55 401.75 307.8 401.75 307.05 402.25 306.5 402.8 306.0 403.55 306.0 404.3 306.0 404.8 306.5 405.35 307.05 405.35 307.8 405.35 308.55 404.8 309.05 404.3 309.6 403.55 309.6 402.8 309.6 402.25 309.05 M364.85 331.65 L392.3 336.45 392.3 339.5 364.85 334.65 364.85 331.65 M403.55 339.45 Q404.3 339.45 404.8 339.95 405.35 340.5 405.35 341.25 405.35 342.0 404.8 342.5 L404.1 343.0 403.55 343.05 403.1 343.0 402.25 342.5 Q401.75 342.0 401.75 341.25 401.75 340.5 402.25 339.95 402.8 339.45 403.55 339.45 M434.75 331.65 L407.3 336.45 407.3 339.5 434.75 334.65 434.75 331.65" fill="none" stroke="#000000" stroke-linecap="round" stroke-linejoin="round" stroke-opacity="0.5019608" stroke-width="1.0"/>
  </g>
</svg>
