<?xml version="1.0" encoding="UTF-8" standalone="no"?>
<svg xmlns:xlink="http://www.w3.org/1999/xlink" height="99.6px" width="141.8px" xmlns="http://www.w3.org/2000/svg">
  <g transform="matrix(1.0, 0.0, 0.0, 1.0, -328.9, -212.8)">
    <path d="M430.8 221.35 Q437.55 233.1 440.6 244.1 L430.25 249.65 438.35 253.45 411.15 306.5 M368.75 221.4 Q362.0 233.15 358.95 244.15 L369.3 249.7 361.2 253.5 388.4 306.55" fill="none" stroke="#000000" stroke-linecap="round" stroke-linejoin="round" stroke-opacity="0.5019608" stroke-width="1.0"/>
    <path d="M411.15 306.5 L429.95 301.9 428.7 305.05 428.1 311.85 438.25 290.0 Q445.1 285.8 449.85 280.6 446.45 274.1 444.4 267.6 454.7 250.85 466.45 237.85 L470.2 233.85 470.15 233.8 450.15 229.7 430.8 221.35 M411.15 306.5 Q433.0 241.1 419.55 216.5 L416.4 215.15 416.25 215.1 416.05 213.3 427.7 216.95 430.8 221.35 M388.4 306.55 Q366.55 241.15 380.0 216.55 L383.15 215.2 383.3 215.15 383.5 213.35 371.85 217.0 368.75 221.4 M388.4 306.55 L369.6 301.95 370.85 305.1 371.45 311.9 361.3 290.05 Q354.45 285.85 349.7 280.65 353.1 274.1 355.2 267.6 344.9 250.85 333.15 237.85 L329.4 233.85 349.4 229.75 368.75 221.4" fill="none" stroke="#000000" stroke-linecap="round" stroke-linejoin="round" stroke-width="1.0"/>
  </g>
</svg>
