<?xml version="1.0" encoding="UTF-8" standalone="no"?>
<svg xmlns:xlink="http://www.w3.org/1999/xlink" height="102.15px" width="153.4px" xmlns="http://www.w3.org/2000/svg">
  <g transform="matrix(1.0, 0.0, 0.0, 1.0, -323.1, -226.55)">
    <path d="M449.5 229.45 Q444.9 231.4 440.35 233.0 L440.3 233.0 437.55 233.95 Q421.3 239.2 405.25 239.9 L400.2 240.0 400.0 240.0 399.8 240.0 399.6 240.0 399.4 240.0 394.35 239.9 Q378.3 239.2 362.05 233.95 L359.3 233.0 359.25 233.0 Q354.7 231.4 350.1 229.45 M324.8 240.75 L325.7 241.15 Q331.4 243.85 337.1 246.2 L339.35 247.05 341.35 247.85 341.65 247.95 Q351.9 251.8 362.05 254.4 379.25 258.7 396.05 259.35 L403.55 259.35 Q420.35 258.7 437.55 254.4 447.7 251.8 457.95 247.95 L458.25 247.85 460.25 247.05 462.5 246.2 473.9 241.15 474.8 240.75 M450.85 231.9 Q451.75 231.9 452.8 232.4 454.75 233.45 456.0 235.65 457.3 237.85 457.15 240.0 457.1 242.25 455.65 243.05 454.2 243.9 452.25 242.85 450.35 241.85 449.05 239.65 447.8 237.45 447.9 235.25 448.0 233.35 449.1 232.5 L449.4 232.3 450.85 231.9 M425.2 247.4 Q426.1 249.8 427.8 251.05 429.55 252.35 431.1 251.8 432.7 251.25 433.15 249.1 L433.25 247.05 Q433.15 245.85 432.7 244.6 431.8 242.2 430.1 240.9 428.4 239.55 426.85 240.15 425.25 240.75 424.75 242.85 424.35 244.85 425.05 247.05 L425.2 247.4 M444.4 267.6 L443.65 268.35 442.65 269.45 442.3 269.8 Q437.3 274.25 429.8 272.25 423.45 269.75 417.0 268.35 L414.95 327.35 M344.8 252.15 Q353.5 255.2 362.05 257.35 372.3 259.9 382.35 261.15 L385.55 261.5 395.65 262.25 396.85 262.3 398.05 262.3 399.0 262.3 400.6 262.3 401.55 262.3 402.75 262.3 403.95 262.25 414.05 261.5 417.25 261.15 Q427.3 259.9 437.55 257.35 446.1 255.2 454.8 252.15 M417.0 268.35 L417.25 261.15 M374.85 242.85 Q375.25 244.85 374.55 247.05 L374.4 247.4 Q373.5 249.8 371.8 251.05 370.05 252.35 368.5 251.8 366.9 251.25 366.45 249.1 366.25 248.1 366.35 247.05 366.45 245.85 366.9 244.6 367.8 242.2 369.5 240.9 371.2 239.55 372.75 240.15 374.35 240.75 374.85 242.85 M399.15 255.95 L399.3 255.9 399.55 255.95 399.3 255.95 399.15 255.95 399.0 255.95 398.9 255.95 398.75 255.95 Q397.95 255.95 397.35 255.4 396.7 254.95 396.15 254.1 395.0 252.3 395.0 249.75 395.0 248.25 395.4 247.05 395.7 246.15 396.15 245.35 L397.35 243.9 Q397.95 243.55 398.75 243.55 L398.95 243.55 399.0 243.55 399.15 243.6 399.3 243.55 399.55 243.55 399.65 243.55 399.8 243.55 399.95 243.55 400.05 243.55 400.3 243.55 400.45 243.6 400.6 243.55 400.65 243.55 400.85 243.55 Q401.65 243.55 402.25 243.9 L403.45 245.35 404.2 247.05 Q404.6 248.25 404.6 249.75 404.6 252.3 403.45 254.1 L402.25 255.4 Q401.65 255.95 400.85 255.95 L400.7 255.95 400.6 255.95 400.45 255.95 400.3 255.95 400.05 255.95 400.3 255.9 400.45 255.95 M399.15 243.6 L399.3 243.6 399.55 243.55 M400.05 243.55 L400.3 243.6 400.45 243.6 M342.45 240.0 Q342.5 242.25 343.95 243.05 L347.35 242.85 Q349.25 241.85 350.55 239.65 351.8 237.45 351.7 235.25 351.6 233.35 350.5 232.5 L350.2 232.3 Q349.5 231.9 348.75 231.9 L346.8 232.4 Q344.85 233.45 343.6 235.65 342.3 237.85 342.45 240.0 M355.2 267.6 L355.95 268.35 356.95 269.45 357.3 269.8 Q362.3 274.25 369.8 272.25 376.15 269.75 382.6 268.35 L382.35 261.15 M400.45 287.75 L400.3 287.75 400.05 287.75 400.3 287.7 400.45 287.75 400.6 287.75 400.65 287.75 400.85 287.75 402.25 287.4 403.45 285.9 Q404.6 284.1 404.6 281.55 404.6 279.0 403.45 277.15 L402.25 275.9 Q401.65 275.35 400.85 275.35 L400.65 275.35 400.6 275.35 400.45 275.4 400.3 275.4 400.05 275.35 399.95 275.35 399.8 275.35 399.65 275.35 399.55 275.35 399.3 275.4 399.15 275.4 399.0 275.35 398.95 275.35 398.75 275.35 Q397.95 275.35 397.35 275.9 396.7 276.35 396.15 277.15 395.0 279.0 395.0 281.55 395.0 284.1 396.15 285.9 L397.35 287.4 398.75 287.75 398.95 287.75 399.0 287.75 399.15 287.75 399.3 287.7 399.55 287.75 399.3 287.75 399.15 287.75 M400.45 275.4 L400.3 275.35 400.05 275.35 M399.55 275.35 L399.3 275.35 399.15 275.4 M400.0 302.3 L399.95 302.3 399.8 302.3 399.65 302.3 399.6 302.3 399.3 302.35 399.15 302.35 399.0 302.3 398.95 302.3 398.75 302.3 Q397.95 302.3 397.35 302.85 396.7 303.3 396.15 304.1 395.5 305.15 395.25 306.4 395.0 307.4 395.0 308.5 395.0 311.1 396.15 312.9 L397.35 314.35 398.75 314.7 398.85 314.7 398.95 314.7 399.15 314.7 399.3 314.7 399.8 314.7 400.3 314.7 400.45 314.7 400.65 314.7 400.75 314.7 400.85 314.7 402.25 314.35 403.45 312.9 Q404.6 311.1 404.6 308.5 L404.35 306.4 Q404.1 305.15 403.45 304.1 L402.25 302.85 Q401.65 302.3 400.85 302.3 L400.65 302.3 400.6 302.3 400.45 302.35 400.3 302.35 400.0 302.3 M387.45 327.65 L385.55 261.5 M382.6 268.35 L384.65 327.35 M412.15 327.65 L414.05 261.5" fill="none" stroke="#000000" stroke-linecap="round" stroke-linejoin="round" stroke-opacity="0.49803922" stroke-width="1.0"/>
    <path d="M474.8 240.75 Q472.9 236.95 470.2 233.85 L450.2 229.75 449.5 229.45 443.95 227.05 437.55 229.7 437.5 229.7 437.15 229.85 Q419.7 236.45 402.25 236.85 L400.9 236.85 400.65 236.85 400.0 236.85 399.8 236.85 399.6 236.85 398.95 236.85 398.7 236.85 397.35 236.85 Q379.9 236.45 362.45 229.85 L362.1 229.7 362.05 229.7 355.65 227.05 350.1 229.45 349.4 229.75 329.4 233.85 Q326.7 236.95 324.8 240.75 M474.8 240.75 L476.0 243.4 467.85 247.05 467.35 247.25 462.5 249.3 458.25 250.9 454.8 252.15 452.7 255.05 Q448.45 261.05 444.4 267.6 446.5 274.1 449.9 280.65 443.65 287.5 433.7 292.65 L428.75 305.1 427.55 318.7 429.2 323.45 Q423.55 326.15 414.95 327.35 L412.15 327.65 399.8 328.2 387.45 327.65 384.65 327.35 Q376.05 326.15 370.4 323.45 L372.05 318.7 370.85 305.1 365.9 292.65 Q355.95 287.5 349.7 280.65 353.1 274.1 355.2 267.6 350.15 259.45 344.8 252.15 L341.35 250.9 337.1 249.3 332.25 247.25 331.75 247.05 323.6 243.4 324.8 240.75" fill="none" stroke="#000000" stroke-linecap="round" stroke-linejoin="round" stroke-width="1.0"/>
  </g>
</svg>
