<?xml version="1.0" encoding="UTF-8" standalone="no"?>
<svg xmlns:xlink="http://www.w3.org/1999/xlink" height="113.7px" width="101.2px" xmlns="http://www.w3.org/2000/svg">
  <g transform="matrix(1.0, 0.0, 0.0, 1.0, -349.3, -217.4)">
    <path d="M436.45 226.3 L442.2 228.9 Q443.45 229.4 444.35 228.4 L446.05 225.45 Q446.45 223.8 445.5 223.45 437.7 219.8 428.75 217.9 427.8 217.9 427.65 218.7 L426.85 221.65 Q426.65 222.55 427.95 223.1 L433.95 225.25 M435.9 227.95 Q438.2 229.2 439.75 231.9 443.0 238.65 441.05 249.1 442.45 254.15 438.85 258.85 440.7 262.7 439.6 266.55 441.4 271.85 445.3 271.05 L446.85 274.75 450.0 281.1 Q450.15 286.2 447.55 291.2 447.6 294.9 445.3 298.25 445.0 303.65 441.6 308.05 440.95 313.45 437.05 317.65 436.45 323.25 431.35 327.7 417.4 330.55 399.9 330.6 382.45 330.55 368.45 327.7 363.4 323.25 362.75 317.65 358.85 313.45 358.25 308.05 354.85 303.65 354.5 298.25 352.2 294.9 352.3 291.2 349.65 286.2 349.8 281.1 L352.95 274.75 354.5 271.05 Q358.4 271.85 360.25 266.55 359.15 262.7 360.95 258.85 357.4 254.15 358.75 249.1 356.85 238.65 360.05 231.9 361.6 229.2 363.95 227.95 L363.4 226.3 Q360.45 227.5 357.6 228.9 356.35 229.4 355.45 228.4 L353.75 225.45 Q353.35 223.8 354.3 223.45 362.1 219.8 371.1 217.9 372.0 217.9 372.15 218.7 L372.95 221.65 Q373.15 222.55 371.85 223.1 368.8 224.1 365.9 225.25 L366.45 227.1 Q368.75 226.3 373.0 227.7 377.2 229.05 380.75 233.8 384.2 239.05 399.9 239.0 415.6 239.05 419.1 233.8 422.6 229.05 426.8 227.7 431.1 226.3 433.35 227.1 L433.95 225.25" fill="none" stroke="#010101" stroke-linecap="round" stroke-linejoin="round" stroke-width="1.0"/>
    <path d="M433.95 225.25 L434.4 223.8 432.8 223.2 433.7 220.95 439.8 223.0 438.8 225.2 436.95 224.6 436.45 226.3 435.9 227.95 434.15 233.4 433.2 236.3 Q433.9 237.1 433.9 238.15 433.9 239.25 433.1 240.0 432.3 240.85 431.2 240.85 430.1 240.85 429.35 240.0 428.55 239.25 428.55 238.15 428.55 237.05 429.35 236.25 429.95 235.6 430.8 235.5 L431.65 232.75 Q430.35 232.75 428.7 233.35 425.9 234.4 424.05 236.25 416.25 244.0 399.9 243.8 383.6 244.0 375.75 236.25 373.9 234.4 371.1 233.35 L368.15 232.75 369.0 235.5 Q369.85 235.6 370.5 236.25 371.3 237.05 371.3 238.15 371.3 239.25 370.5 240.0 369.7 240.85 368.6 240.85 367.5 240.85 366.7 240.0 365.95 239.25 365.95 238.15 365.95 237.1 366.6 236.3 L365.65 233.4 Q364.5 234.1 363.75 235.6 361.8 240.0 363.1 248.25 L365.1 247.95 367.7 247.55 375.2 246.55 377.75 246.25 383.9 245.75 386.15 245.65 393.7 245.35 395.9 245.35 399.9 245.35 403.9 245.35 406.1 245.35 413.7 245.65 415.95 245.75 414.8 249.65 413.7 245.65 M415.95 245.75 L422.05 246.25 424.6 246.55 432.1 247.55 434.75 247.95 436.75 248.25 Q438.0 240.0 436.05 235.6 435.35 234.1 434.15 233.4 M436.95 224.6 L437.35 223.5 Q436.45 222.05 434.7 222.75 L434.4 223.8 M433.35 227.1 L431.65 232.75 M433.2 236.3 L432.6 238.15 Q430.9 238.75 430.25 237.35 L430.8 235.5 M441.05 249.1 L436.75 248.25 M432.1 247.55 L432.95 251.65 434.75 247.95 M430.7 257.5 L431.7 262.05 433.4 257.9 430.7 257.5 424.1 256.65 422.6 260.75 421.3 256.35 415.55 255.95 414.1 259.4 413.25 255.8 406.5 255.6 405.0 260.0 404.05 255.6 399.9 255.65 395.8 255.6 394.8 260.0 393.3 255.6 386.55 255.8 385.7 259.4 384.25 255.95 378.5 256.35 377.2 260.75 375.7 256.65 369.1 257.5 368.1 262.05 366.4 257.9 360.95 258.85 M360.25 266.55 Q360.55 267.8 361.25 269.05 L366.55 268.15 369.45 267.65 376.85 266.65 379.35 266.35 385.05 265.85 388.65 265.6 393.85 265.35 396.6 265.3 399.9 265.3 403.2 265.3 405.95 265.35 411.2 265.6 414.75 265.85 420.5 266.35 422.95 266.65 430.35 267.65 433.25 268.15 438.55 269.05 439.6 266.55 M438.85 258.85 L433.4 257.9 M424.1 256.65 L421.3 256.35 M414.75 265.85 L413.1 270.3 411.2 265.6 M422.95 266.65 L421.4 270.3 420.5 266.35 M415.55 255.95 L413.25 255.8 M420.25 277.8 L421.4 282.4 422.95 278.1 420.25 277.8 414.25 277.25 413.35 281.55 412.05 277.05 406.25 276.8 405.2 280.75 404.05 276.7 399.9 276.7 395.8 276.7 394.65 280.75 393.55 276.8 387.8 277.05 386.45 281.55 385.6 277.25 379.6 277.8 378.4 282.4 376.85 278.1 370.15 279.1 369.2 283.15 367.5 279.6 366.1 279.85 362.2 280.55 360.9 280.65 359.5 284.4 358.1 280.95 Q354.2 281.2 349.8 281.1 M414.25 277.25 L412.05 277.05 M447.55 291.2 L440.8 291.1 439.1 295.2 438.3 291.0 431.25 290.7 430.1 294.7 428.9 290.6 423.4 290.15 422.25 294.35 421.05 289.95 420.2 289.8 415.4 289.3 413.95 293.6 412.9 289.15 407.2 288.8 406.65 288.8 405.45 293.2 404.25 288.7 399.9 288.65 395.55 288.7 394.4 293.2 393.15 288.8 392.65 288.8 386.9 289.15 385.85 293.6 384.45 289.3 379.6 289.8 378.75 289.95 377.55 294.35 376.45 290.15 370.9 290.6 369.7 294.7 368.55 290.7 361.5 291.0 360.7 295.2 359.0 291.1 352.3 291.2 M423.4 290.15 L421.05 289.95 M415.4 289.3 L412.9 289.15 M446.85 274.75 Q441.4 275.65 439.05 272.4 439.2 276.05 437.65 280.55 L438.9 280.65 441.7 280.95 Q445.6 281.2 450.0 281.1 M438.9 280.65 L440.3 284.4 441.7 280.95 M429.65 279.1 L430.6 283.15 432.3 279.6 429.65 279.1 422.95 278.1 M432.3 279.6 L433.7 279.85 437.65 280.55 M431.25 290.7 L428.9 290.6 M440.8 291.1 L438.3 291.0 M439.05 272.4 Q439.0 270.65 438.55 269.05 M433.25 268.15 L431.1 272.5 430.35 267.65 M424.6 246.55 L423.1 250.35 422.05 246.25 M403.9 245.35 L405.0 248.95 406.1 245.35 M366.45 227.1 L368.15 232.75 M365.9 225.25 L365.4 223.8 365.1 222.75 Q363.4 222.05 362.5 223.5 L362.85 224.6 363.4 226.3 M365.4 223.8 L367.05 223.2 366.1 220.95 360.0 223.0 361.0 225.2 362.85 224.6 M366.6 236.3 L367.2 238.15 Q368.9 238.75 369.55 237.35 L369.0 235.5 M358.75 249.1 L363.1 248.25 M358.1 280.95 L360.9 280.65 M362.2 280.55 Q360.6 276.05 360.75 272.4 358.4 275.65 352.95 274.75 M361.5 291.0 L359.0 291.1 M361.25 269.05 Q360.85 270.65 360.75 272.4 M385.05 265.85 L386.7 270.3 388.65 265.6 M403.2 265.3 L404.65 269.7 405.95 265.35 M393.85 265.35 L395.15 269.7 396.6 265.3 M395.8 255.6 L393.3 255.6 M378.5 256.35 L375.7 256.65 M365.1 247.95 L366.85 251.65 367.7 247.55 M369.1 257.5 L366.4 257.9 M376.85 266.65 L378.4 270.3 379.35 266.35 M379.6 277.8 L376.85 278.1 M370.15 279.1 L367.5 279.6 M370.9 290.6 L368.55 290.7 M378.75 289.95 L376.45 290.15 M387.8 277.05 L385.6 277.25 M395.55 288.7 L395.05 288.7 393.15 288.8 M406.65 288.8 L404.75 288.7 404.25 288.7 M395.8 276.7 L393.55 276.8 M386.9 289.15 L384.45 289.3 M366.55 268.15 L368.7 272.5 369.45 267.65 M386.55 255.8 L384.25 255.95 M393.7 245.35 L394.8 248.95 395.9 245.35 M383.9 245.75 L385.0 249.65 386.15 245.65 M375.2 246.55 L376.75 250.35 377.75 246.25 M363.95 227.95 L365.65 233.4 M354.5 298.25 L359.35 298.4 362.25 298.5 367.85 298.6 370.9 298.7 376.65 298.85 379.45 298.9 384.05 299.0 387.0 299.05 392.35 299.15 393.0 299.15 395.25 299.2 399.9 299.25 404.6 299.2 406.8 299.15 407.5 299.15 412.8 299.05 415.75 299.0 420.35 298.9 423.15 298.85 428.9 298.7 431.95 298.6 437.6 298.5 440.45 298.4 445.3 298.25 M384.05 299.0 L385.2 302.95 387.0 299.05 M393.0 299.15 L394.4 303.05 395.25 299.2 M362.75 317.65 L367.1 318.3 369.7 318.65 375.2 319.25 378.0 319.55 383.4 319.95 386.2 320.2 393.75 320.5 396.1 320.55 396.1 320.6 399.9 320.65 403.7 320.6 403.7 320.55 406.05 320.5 413.6 320.2 416.4 319.95 421.8 319.55 424.6 319.25 430.1 318.65 432.75 318.3 437.05 317.65 M441.6 308.05 L439.05 308.45 438.2 312.15 436.4 308.75 431.75 309.3 430.6 313.15 429.05 309.55 424.65 309.95 423.1 314.35 421.75 310.1 416.75 310.4 415.3 315.35 413.45 310.55 407.75 310.65 407.1 310.65 405.7 314.6 404.5 310.65 399.9 310.6 395.3 310.65 394.1 314.6 392.7 310.65 392.05 310.65 386.4 310.55 384.5 315.35 383.05 310.4 378.05 310.1 376.7 314.35 375.15 309.95 370.8 309.55 369.2 313.15 368.05 309.3 363.4 308.75 361.65 312.15 360.8 308.45 358.25 308.05 M395.3 310.65 L394.65 310.65 393.25 310.65 392.7 310.65 M376.65 298.85 L377.8 302.55 379.45 298.9 M367.85 298.6 L369.05 302.45 370.9 298.7 M378.05 310.1 L375.15 309.95 M370.8 309.55 L368.05 309.3 M403.7 320.6 L404.9 324.75 406.05 320.5 M393.75 320.5 L394.9 324.75 396.1 320.6 M383.4 319.95 L385.0 324.8 386.2 320.2 M375.2 319.25 L376.85 324.3 378.0 319.55 M367.1 318.3 L368.35 322.1 369.7 318.65 M386.4 310.55 L383.05 310.4 M363.4 308.75 L360.8 308.45 M359.35 298.4 L360.45 302.2 362.25 298.5 M437.6 298.5 L439.35 302.2 440.45 298.4 M439.05 308.45 L436.4 308.75 M428.9 298.7 L430.8 302.45 431.95 298.6 M431.75 309.3 L429.05 309.55 M420.35 298.9 L422.0 302.55 423.15 298.85 M412.8 299.05 L414.6 302.95 415.75 299.0 M404.6 299.2 L405.45 303.05 406.8 299.15 M424.65 309.95 L421.75 310.1 M416.75 310.4 L413.45 310.55 M430.1 318.65 L431.45 322.1 432.75 318.3 M421.8 319.55 L422.95 324.3 424.6 319.25 M413.6 320.2 L414.8 324.8 416.4 319.95 M406.25 276.8 L404.05 276.7 M407.1 310.65 L404.5 310.65 M406.5 255.6 L404.05 255.6" fill="none" stroke="#010101" stroke-linecap="round" stroke-linejoin="round" stroke-opacity="0.5019608" stroke-width="1.0"/>
  </g>
</svg>
