<?xml version="1.0" encoding="UTF-8" standalone="no"?>
<svg xmlns:xlink="http://www.w3.org/1999/xlink" height="79.35px" width="176.1px" xmlns="http://www.w3.org/2000/svg">
  <g transform="matrix(1.0, 0.0, 0.0, 1.0, -311.75, -214.6)">
    <path d="M475.35 241.95 Q483.85 257.05 486.7 276.7 L487.35 281.45 481.65 283.1 Q442.85 293.95 399.8 293.4 356.75 293.95 317.95 283.1 L312.25 281.45 Q312.5 279.05 312.9 276.7 315.75 257.05 324.25 241.95 326.3 237.45 329.4 233.85 L349.4 229.75 383.35 215.15 383.35 215.1 Q389.0 219.7 399.8 219.8 410.6 219.7 416.25 215.1 L416.25 215.15 450.2 229.75 470.2 233.85 Q473.3 237.45 475.35 241.95" fill="none" stroke="#000000" stroke-linecap="round" stroke-linejoin="round" stroke-width="1.0"/>
    <path d="M383.35 215.15 L382.85 218.9 Q386.0 222.0 391.15 223.3 394.95 224.2 399.8 224.15 L408.45 223.3 Q413.6 222.0 416.75 218.9 L416.25 215.15 M486.7 276.7 Q445.6 290.3 399.8 289.85 354.0 290.3 312.9 276.7" fill="none" stroke="#000000" stroke-linecap="round" stroke-linejoin="round" stroke-opacity="0.5019608" stroke-width="1.0"/>
  </g>
</svg>
