<?xml version="1.0" encoding="UTF-8" standalone="no"?>
<svg xmlns:xlink="http://www.w3.org/1999/xlink" height="131.65px" width="140.8px" xmlns="http://www.w3.org/2000/svg">
  <g transform="matrix(1.0, 0.0, 0.0, 1.0, -329.4, -211.4)">
    <path d="M449.1 228.8 L448.85 229.15 Q448.6 229.55 448.6 230.0 448.6 230.7 449.1 231.2 449.6 231.7 450.3 231.7 451.0 231.7 451.5 231.2 451.95 230.75 452.0 230.15 L452.0 230.0 Q452.0 229.3 451.5 228.8 451.0 228.3 450.3 228.3 449.6 228.3 449.1 228.8 M446.15 228.0 L450.6 226.8 468.4 231.05 470.2 233.85 466.45 237.85 Q454.7 250.85 444.4 267.6 446.5 274.1 449.9 280.65 445.45 289.8 434.8 294.7 433.2 301.45 432.7 308.15 432.3 312.85 432.5 317.5 432.75 323.6 433.9 329.7 L435.2 335.6 433.35 336.4 Q424.1 340.05 414.7 341.75 408.6 342.95 401.6 343.05 L413.5 286.1 411.35 284.1 398.1 343.0 384.95 341.75 Q375.55 340.05 366.3 336.4 L364.4 335.6 365.75 329.7 Q366.85 323.6 367.1 317.5 367.3 312.85 366.95 308.15 366.4 301.45 364.8 294.7 354.15 289.8 349.7 280.65 353.1 274.1 355.2 267.6 344.9 250.85 333.15 237.85 L329.4 233.85 331.2 231.05 349.0 226.8 353.45 228.0 365.85 222.65 Q367.6 219.6 370.25 218.2 L380.1 211.4 383.7 211.4 382.85 218.9 382.5 221.75 382.55 223.0 382.85 227.15 Q384.8 234.05 387.85 241.0 L387.85 241.05 Q390.95 248.2 395.2 255.4 L399.75 264.05 404.25 255.4 Q408.55 248.2 411.65 241.05 L411.65 241.0 Q414.7 234.05 416.6 227.15 417.05 222.55 416.95 218.9 416.8 215.05 416.0 212.25 L415.9 211.4 419.35 211.4 429.25 218.2 Q431.85 219.6 433.6 222.6 L446.15 228.0 M435.1 243.45 Q435.8 243.45 436.3 242.95 436.8 242.45 436.8 241.75 436.8 241.05 436.3 240.55 435.8 240.05 435.1 240.05 434.4 240.05 433.9 240.55 433.4 241.05 433.4 241.75 433.4 242.45 433.9 242.95 434.4 243.45 435.1 243.45 M426.9 255.3 Q427.4 255.8 428.1 255.8 428.8 255.8 429.3 255.3 429.8 254.8 429.8 254.1 429.8 253.4 429.3 252.9 428.8 252.4 428.1 252.4 427.4 252.4 426.9 252.9 426.4 253.4 426.4 254.1 426.4 254.8 426.9 255.3 M371.5 252.4 Q370.8 252.4 370.3 252.9 369.8 253.4 369.8 254.1 369.8 254.8 370.3 255.3 370.8 255.8 371.5 255.8 372.2 255.8 372.7 255.3 373.2 254.8 373.2 254.1 373.2 253.4 372.7 252.9 372.2 252.4 371.5 252.4 M349.3 228.3 Q348.6 228.3 348.1 228.8 347.6 229.3 347.6 230.0 L347.6 230.15 Q347.65 230.75 348.1 231.2 348.6 231.7 349.3 231.7 350.0 231.7 350.5 231.2 351.0 230.7 351.0 230.0 L350.8 229.15 350.5 228.8 Q350.0 228.3 349.3 228.3 M365.7 240.55 Q365.2 240.05 364.5 240.05 363.8 240.05 363.3 240.55 362.8 241.05 362.8 241.75 362.8 242.45 363.3 242.95 363.8 243.45 364.5 243.45 365.2 243.45 365.7 242.95 366.2 242.45 366.2 241.75 366.2 241.05 365.7 240.55" fill="#000000" fill-rule="evenodd" stroke="none"/>
  </g>
</svg>
