<?xml version="1.0" encoding="UTF-8" standalone="no"?>
<svg xmlns:xlink="http://www.w3.org/1999/xlink" height="98.6px" width="140.8px" xmlns="http://www.w3.org/2000/svg">
  <g transform="matrix(1.0, 0.0, 0.0, 1.0, -329.4, -213.3)">
    <path d="M368.75 221.4 L371.85 217.0 383.5 213.35 383.3 215.15 383.15 215.2 380.0 216.55 Q366.6 241.0 388.2 305.9 L388.1 305.95 369.6 301.95 370.85 305.1 371.45 311.9 361.3 290.05 Q354.45 285.85 349.7 280.65 353.1 274.1 355.2 267.6 344.9 250.85 333.15 237.85 L329.4 233.85 349.4 229.75 368.75 221.4 M470.2 233.85 L466.45 237.85 Q454.7 250.85 444.4 267.6 446.5 274.1 449.85 280.6 445.1 285.8 438.25 290.0 L428.1 311.85 428.7 305.05 429.95 301.9 411.5 305.9 411.4 305.85 Q432.95 240.95 419.55 216.5 L416.4 215.15 416.25 215.1 416.05 213.3 427.7 216.95 430.8 221.35 450.15 229.7 470.15 233.8 470.2 233.85" fill="#000000" fill-rule="evenodd" stroke="none"/>
  </g>
</svg>
