<?xml version="1.0" encoding="UTF-8" standalone="no"?>
<svg xmlns:xlink="http://www.w3.org/1999/xlink" height="85.45px" width="115.5px" xmlns="http://www.w3.org/2000/svg">
  <g transform="matrix(1.0, 0.0, 0.0, 1.0, -342.05, -207.75)">
    <path d="M450.65 227.65 L448.2 233.5 Q461.2 235.95 456.15 254.85 453.7 261.9 444.9 268.05 446.65 274.25 449.55 280.05 447.35 288.6 437.4 293.2 437.3 289.35 435.5 284.75 435.35 283.6 433.95 282.6 425.05 282.6 425.25 289.85 L419.65 286.05 Q410.4 280.5 399.75 279.1 389.2 280.5 379.95 286.05 377.1 287.75 374.35 289.85 374.55 282.6 365.65 282.6 364.25 283.6 364.1 284.75 362.3 289.35 362.2 293.2 352.25 288.6 350.05 280.05 352.95 274.25 354.7 268.05 345.9 261.9 343.45 254.85 338.4 235.95 351.4 233.5 L348.95 227.65 381.7 214.35 381.95 212.8 Q382.3 210.0 381.75 207.75 383.65 210.85 387.0 213.15 L387.5 213.5 396.15 218.8 Q395.9 223.6 399.8 224.15 403.7 223.6 403.45 218.8 408.0 216.25 412.1 213.5 L412.6 213.15 Q415.95 210.85 417.85 207.75 417.3 210.0 417.65 212.8 L417.9 214.35 450.65 227.65 M396.5 232.9 L396.5 233.45 396.5 233.55 Q396.7 237.4 399.1 239.7 L399.8 240.3 400.5 239.7 Q402.9 237.4 403.1 233.55 L403.1 233.45 403.1 232.9 Q401.4 232.0 399.8 232.1 398.2 232.0 396.5 232.9 M393.0 270.85 Q396.0 274.6 399.85 274.85 403.6 274.6 406.6 270.85 404.2 261.25 399.85 260.95 395.4 261.25 393.0 270.85" fill="#000000" fill-rule="evenodd" stroke="none"/>
  </g>
</svg>
