<?xml version="1.0" encoding="UTF-8" standalone="no"?>
<svg xmlns:xlink="http://www.w3.org/1999/xlink" height="57.9px" width="60.45px" xmlns="http://www.w3.org/2000/svg">
  <g transform="matrix(1.0, 0.0, 0.0, 1.0, -369.7, -131.15)">
    <path d="M375.95 131.7 L375.85 131.7 Q374.9 131.65 374.1 132.1 371.85 133.25 371.25 135.65 371.0 136.55 371.05 137.5 L370.8 138.25 370.5 137.6 370.45 139.05 Q370.45 140.0 370.95 140.75 L371.1 141.15 370.9 141.2 370.2 140.3 370.35 142.0 Q370.7 144.5 372.9 145.55 L372.95 145.55 374.9 146.3 M375.95 131.7 L375.9 131.65 375.85 131.7 M375.9 131.65 L376.0 131.65 Q376.9 131.7 377.7 132.05 378.55 132.45 379.3 133.2 380.8 134.75 382.75 135.5 L383.4 135.7 386.45 136.1 388.15 136.15 387.3 135.75 390.85 135.15 390.15 134.9 Q392.2 134.2 394.4 134.35 L393.9 134.2 397.25 134.4 397.05 134.05 399.95 134.55 402.8 134.05 402.6 134.4 405.95 134.2 405.5 134.35 Q407.65 134.2 409.7 134.9 L409.05 135.15 412.6 135.75 411.7 136.15 413.45 136.1 416.45 135.7 417.1 135.5 Q419.1 134.75 420.6 133.2 421.3 132.45 422.2 132.05 423.0 131.7 423.9 131.65 L423.95 131.65 424.0 131.7 Q424.95 131.65 425.8 132.1 428.0 133.25 428.65 135.65 L428.85 137.5 Q428.8 138.05 429.05 138.25 L429.35 137.6 429.4 139.05 Q429.4 140.0 428.9 140.75 L428.75 141.15 429.0 141.2 429.65 140.3 429.55 142.0 Q429.2 144.5 426.95 145.55 L425.0 146.3 424.2 146.85 Q424.2 148.6 425.55 149.8 427.4 151.5 428.55 153.45 L427.7 153.1 427.95 153.45 Q429.45 155.15 429.55 157.45 L429.3 157.1 429.3 162.15 429.1 160.9 429.25 162.85 429.35 166.4 Q429.2 168.15 428.2 169.65 L428.35 168.35 Q427.65 170.65 426.5 172.7 L425.5 174.6 425.4 173.9 424.1 176.35 423.6 177.0 422.25 178.3 422.55 176.6 421.95 177.55 Q419.9 180.0 416.85 180.9 L416.95 180.6 416.75 180.75 416.7 180.75 415.05 181.55 413.3 182.2 413.2 182.2 Q412.3 182.4 411.5 182.8 L410.85 183.05 409.25 183.5 Q408.3 183.65 407.65 184.3 L407.6 184.35 407.6 184.4 407.5 184.5 406.55 185.55 406.25 185.85 407.0 185.6 406.4 186.05 404.65 187.0 403.15 187.65 400.5 188.55 399.35 188.55 396.7 187.65 395.25 187.0 393.5 186.05 392.9 185.6 393.55 185.85 393.6 185.85 393.35 185.55 392.4 184.5 392.25 184.4 392.25 184.35 392.2 184.3 Q391.55 183.65 390.65 183.5 L389.0 183.05 388.35 182.8 Q387.8 182.5 387.2 182.35 L386.7 182.2 384.85 181.55 383.2 180.75 383.15 180.75 382.9 180.6 383.05 180.9 Q379.95 180.0 377.9 177.55 L377.3 176.6 377.65 178.3 376.25 177.0 375.8 176.35 374.45 173.9 374.35 174.6 373.4 172.7 Q372.25 170.65 371.5 168.35 L371.65 169.65 Q370.65 168.15 370.55 166.4 370.4 164.6 370.6 162.85 L370.8 160.9 370.55 162.15 370.55 157.1 370.3 157.45 370.35 157.1 Q370.5 155.05 371.9 153.45 L372.2 153.1 371.3 153.45 Q372.45 151.5 374.3 149.8 375.65 148.6 375.7 146.85 L374.9 146.3 M423.95 131.65 L423.9 131.7 424.0 131.7" fill="none" stroke="#000000" stroke-linecap="round" stroke-linejoin="round" stroke-width="1.0"/>
    <path d="M374.9 146.3 L376.15 146.35 375.7 145.95 378.55 145.65 377.35 144.0 379.15 144.0 378.55 142.2 379.3 142.4 378.7 140.1 378.9 140.3 379.1 140.3 377.65 137.15 378.15 137.65 378.45 137.7 378.35 137.05 378.3 136.3 378.25 136.3 378.25 136.25 378.25 136.15 Q377.75 133.6 375.95 131.7 M397.65 155.1 Q397.8 153.2 397.0 151.5 L396.8 151.1 M402.2 155.1 Q402.1 153.2 402.85 151.5 L403.05 151.1 M382.35 152.6 Q384.75 152.9 386.95 153.8 L387.0 153.8 388.4 154.5 Q390.15 155.4 391.7 156.7 L392.05 157.0 392.45 157.35 392.55 157.4 392.75 157.6 392.8 157.6 393.25 158.0 394.65 157.85 394.75 157.7 394.8 157.65 394.95 157.35 395.25 155.75 Q395.2 154.65 394.45 153.7 L394.3 153.5 393.9 153.15 M417.55 152.6 Q415.15 152.9 412.95 153.8 L412.75 154.75 412.15 156.5 Q412.0 157.05 411.5 157.4 410.4 158.15 409.25 158.2 L407.9 157.95 407.85 157.95 407.65 157.9 407.2 157.7 407.1 157.65 407.1 157.6 406.65 158.0 405.25 157.85 405.15 157.7 405.1 157.7 405.1 157.65 404.9 157.35 Q404.6 156.5 404.65 155.75 404.65 154.65 405.4 153.7 L405.6 153.5 405.95 153.15 M386.95 153.8 L387.15 154.75 387.7 156.5 388.35 157.4 Q389.5 158.15 390.65 158.2 L392.0 157.95 392.05 157.95 392.2 157.9 392.65 157.7 392.75 157.65 392.75 157.6 M392.45 159.2 L389.8 160.25 383.85 160.4 M399.65 168.9 L396.0 169.05 395.9 169.05 Q395.1 169.15 394.7 169.65 L394.55 169.9 Q394.4 170.3 394.4 170.75 394.4 171.8 395.3 172.05 L395.55 171.9 395.65 171.8 395.85 171.6 Q396.8 170.6 397.7 171.45 L397.7 171.5 Q397.55 172.45 396.8 172.7 L395.65 171.8 M405.5 163.6 L406.1 164.8 406.95 166.8 408.05 169.65 408.65 171.85 Q409.05 173.4 408.85 174.8 L408.65 175.7 407.8 177.55 407.65 177.85 406.7 180.6 406.0 181.75 405.75 180.95 405.5 182.6 405.7 183.3 405.7 183.35 405.5 184.6 405.05 184.8 403.1 185.5 403.0 185.55 401.75 185.8 401.55 185.85 401.45 185.9 400.95 186.0 400.0 186.2 399.9 186.2 398.9 186.0 398.45 185.9 398.35 185.85 398.3 185.85 398.15 185.8 396.9 185.55 396.8 185.5 394.85 184.8 394.35 184.6 394.2 183.35 394.2 183.3 394.35 182.6 394.1 180.95 393.85 181.75 393.2 180.6 392.25 177.85 392.05 177.55 391.2 175.7 391.0 174.8 Q390.8 173.4 391.2 171.85 L391.85 169.65 392.95 166.8 393.85 164.8 394.4 163.65 M395.75 158.65 Q394.35 161.35 391.6 162.8 L391.05 163.05 M405.1 168.8 L404.9 164.8 404.85 164.35 404.7 163.75 404.65 163.7 404.35 163.15 403.6 161.9 403.35 161.6 M394.75 168.8 L395.0 164.8 395.05 164.35 395.2 163.75 395.2 163.7 395.5 163.15 396.25 161.95 396.3 161.9 396.5 161.6 M395.55 171.9 L395.55 172.0 Q395.9 174.0 397.8 174.85 398.45 175.2 399.25 175.25 398.55 176.65 396.95 177.1 L396.65 177.2 399.95 176.95 403.2 177.2 402.9 177.1 Q401.35 176.65 400.65 175.25 L402.1 174.85 Q403.95 174.0 404.3 172.0 L404.35 171.9 404.25 171.8 403.1 172.7 Q402.3 172.45 402.15 171.5 L402.15 171.45 Q403.05 170.6 404.0 171.6 L404.25 171.8 M400.1 168.9 L403.9 169.05 403.95 169.05 Q404.8 169.15 405.15 169.65 L405.3 169.9 405.5 170.75 Q405.45 171.8 404.6 172.05 L404.35 171.9 M400.05 178.25 L400.05 178.2 399.95 178.25 400.05 178.25 400.65 179.65 401.5 178.45 402.2 179.4 Q402.75 179.3 402.95 178.5 L403.0 178.35 402.25 177.75 Q401.9 177.75 401.5 178.25 L401.45 178.4 Q400.95 177.5 400.2 178.1 L400.05 178.2 M403.0 178.35 L403.25 178.1 403.65 177.9 403.65 177.85 403.95 177.85 Q404.35 177.85 404.7 178.35 L405.1 178.35 Q405.15 178.05 405.4 177.9 406.25 177.2 407.35 177.65 L407.65 177.85 407.45 177.4 Q407.25 177.2 407.0 177.15 L404.65 177.2 403.9 177.25 403.6 177.25 403.2 177.2 M404.7 178.35 L404.25 179.15 404.85 180.15 404.85 180.2 405.05 180.85 405.1 181.05 405.1 181.7 405.5 182.6 M396.65 177.2 L396.3 177.25 395.95 177.25 395.2 177.2 392.85 177.15 Q392.6 177.2 392.45 177.4 L392.25 177.85 392.55 177.65 Q393.6 177.2 394.5 177.9 L394.75 178.35 395.15 178.35 Q395.5 177.85 395.95 177.85 L396.2 177.85 396.25 177.9 396.65 178.1 396.9 178.35 397.6 177.75 Q398.0 177.75 398.35 178.25 L398.45 178.4 Q398.9 177.5 399.65 178.1 L399.7 178.1 399.8 178.2 399.95 178.25 399.85 178.25 399.8 178.35 399.25 179.65 398.4 178.45 397.7 179.4 Q397.15 179.3 396.95 178.5 L396.9 178.35 396.05 179.7 395.65 179.1 395.05 180.15 395.05 180.2 395.0 180.2 394.85 180.85 394.75 181.05 394.75 181.1 394.8 181.75 395.1 181.15 Q395.15 182.85 396.1 184.3 L396.15 184.45 396.55 184.5 397.25 183.2 397.4 184.55 397.85 184.65 398.4 183.3 398.75 184.8 399.05 184.8 399.55 183.4 399.7 183.75 399.8 184.3 399.8 184.75 400.05 184.75 400.05 184.3 400.35 183.4 400.85 184.8 401.15 184.8 401.5 183.3 402.05 184.65 402.45 184.55 402.6 183.2 403.35 184.55 403.7 184.45 403.8 184.3 Q404.7 182.85 404.8 181.15 L405.1 181.7 M395.65 179.1 L395.15 178.35 M399.8 178.35 L399.8 178.2 399.85 178.25 M404.45 180.3 L404.45 180.75 404.35 181.0 403.75 181.7 402.95 182.05 402.35 182.25 400.25 182.75 400.15 182.75 399.8 182.75 399.7 182.75 399.65 182.75 397.55 182.25 396.9 182.05 396.1 181.7 395.5 181.0 395.45 180.75 395.4 180.3 M394.85 184.8 L396.2 184.65 396.25 184.6 396.15 184.45 M397.4 184.55 L397.35 185.05 396.95 185.15 396.45 184.7 396.55 184.5 M398.75 184.8 L398.55 185.35 398.45 185.45 398.4 185.5 398.3 185.5 398.2 185.5 397.9 185.15 Q397.8 184.9 397.85 184.65 M399.8 184.75 L399.7 185.25 399.1 185.15 399.05 184.8 M399.7 183.75 L399.8 184.75 M400.85 184.8 L400.8 185.15 400.15 185.25 400.05 184.75 M402.05 184.65 L401.95 185.15 401.65 185.5 401.6 185.5 401.5 185.5 401.4 185.45 401.35 185.35 401.15 184.8 M403.7 184.45 L403.6 184.6 403.65 184.65 405.05 184.8 M403.35 184.55 L403.45 184.7 402.9 185.15 402.55 185.05 402.45 184.55 M399.95 181.35 L399.95 179.05 M404.25 179.15 L403.85 179.7 403.0 178.35 M394.35 182.6 L394.8 181.75 M394.75 178.35 L394.1 180.95 M423.9 131.7 Q422.1 133.6 421.65 136.15 L421.6 136.25 421.6 136.3 421.5 137.05 421.45 137.7 421.7 137.65 422.25 137.15 420.8 140.3 421.0 140.3 421.2 140.1 420.5 142.4 421.3 142.2 420.75 144.0 422.5 144.0 421.3 145.65 424.15 145.95 423.75 146.35 425.0 146.3 M412.95 153.8 L412.9 153.8 411.5 154.5 Q409.7 155.4 408.2 156.7 L407.8 157.0 407.4 157.35 407.35 157.4 407.15 157.6 407.1 157.6 M407.4 159.2 Q408.65 159.95 410.1 160.25 L416.0 160.4 M404.1 158.65 Q405.5 161.35 408.3 162.8 L408.85 163.05 M405.75 180.95 L405.1 178.35" fill="none" stroke="#000000" stroke-linecap="round" stroke-linejoin="round" stroke-opacity="0.5019608" stroke-width="1.0"/>
  </g>
</svg>
