<?xml version="1.0" encoding="UTF-8" standalone="no"?>
<svg xmlns:xlink="http://www.w3.org/1999/xlink" height="76.8px" width="88.85px" xmlns="http://www.w3.org/2000/svg">
  <g transform="matrix(1.0, 0.0, 0.0, 1.0, 44.4, 195.85)">
    <path d="M11.85 -165.85 L11.95 -165.9 12.1 -165.7 12.1 -165.65 11.85 -165.85 M12.75 -142.35 L12.9 -142.4 12.95 -142.4 14.3 -142.8 12.95 -142.35 12.9 -142.35 12.75 -142.35 M-12.9 -142.35 L-14.25 -142.8 -12.9 -142.4 -12.9 -142.35" fill="#7b5228" fill-rule="evenodd" stroke="none"/>
    <path d="M28.85 -195.85 L28.3 -194.1 28.1 -194.35 28.2 -195.85 28.75 -195.85 28.85 -195.85 M-28.8 -195.85 L-28.15 -195.85 -28.05 -194.35 -28.3 -194.1 -28.8 -195.85" fill="#3e3e1e" fill-rule="evenodd" stroke="none"/>
    <path d="M-1.65 -137.3 L-1.85 -137.55 -2.25 -138.0 Q-2.85 -138.55 -3.35 -138.55 L-3.7 -138.5 -3.8 -138.5 -3.65 -138.55 -3.25 -138.6 Q-2.8 -138.6 -2.2 -138.05 L-1.75 -137.6 -1.65 -137.3" fill="#624120" fill-rule="evenodd" stroke="none"/>
    <path d="M8.0 -140.15 L7.85 -140.5 Q9.75 -141.5 12.75 -142.35 L12.9 -142.35 12.9 -142.3 Q12.8 -141.55 11.7 -140.6 10.9 -139.9 9.4 -139.95 L8.0 -140.15 M-7.95 -140.15 L-9.75 -139.95 Q-11.0 -140.0 -11.65 -140.6 -12.8 -141.6 -12.9 -142.35 L-12.9 -142.4 -12.7 -142.35 Q-9.7 -141.5 -7.8 -140.5 L-7.95 -140.15" fill="#ffffff" fill-rule="evenodd" stroke="none"/>
    <path d="M27.25 -152.25 Q29.25 -151.4 31.7 -150.05 L29.05 -149.7 Q23.15 -150.1 17.75 -152.5 L17.7 -152.55 17.7 -152.45 17.0 -152.4 16.3 -152.6 15.7 -153.0 15.9 -153.1 15.05 -153.75 14.0 -154.4 13.7 -154.35 Q12.95 -154.8 12.25 -156.25 L12.4 -156.55 Q14.2 -160.6 18.65 -162.25 L19.35 -162.55 21.7 -163.4 21.75 -163.3 25.8 -162.25 25.9 -161.15 Q25.85 -160.35 25.0 -159.8 22.25 -158.2 22.1 -158.15 L19.3 -156.45 20.15 -156.35 Q23.45 -156.35 25.9 -157.3 L24.4 -154.4 Q24.4 -153.8 24.8 -153.4 L24.85 -153.1 24.55 -153.1 22.95 -153.15 Q23.5 -152.65 24.2 -152.35 L27.25 -152.25 M4.95 -163.15 Q2.75 -161.55 2.3 -159.8 1.55 -156.8 0.25 -155.15 -1.0 -156.8 -1.7 -159.6 -2.15 -161.35 -4.35 -162.95 -6.4 -164.45 -6.65 -166.15 L-6.65 -167.95 -6.7 -168.2 -2.4 -169.15 Q2.55 -169.85 7.25 -168.15 L7.25 -166.35 Q7.05 -164.65 4.95 -163.15 M3.65 -149.9 Q4.45 -151.1 7.25 -151.1 L12.65 -150.65 13.75 -150.35 Q15.7 -149.55 16.55 -147.25 L16.55 -146.75 15.75 -146.65 15.6 -146.65 13.4 -147.35 Q11.75 -148.05 10.0 -148.05 L8.05 -147.85 7.05 -147.5 5.55 -146.3 Q4.2 -144.9 1.7 -144.6 L2.0 -141.25 1.3 -141.15 0.95 -140.8 0.3 -139.35 0.0 -139.1 -0.3 -139.35 -0.9 -140.8 -1.25 -141.15 -2.0 -141.25 -1.65 -144.6 Q-4.15 -144.9 -5.55 -146.3 L-7.0 -147.5 -8.0 -147.85 -9.95 -148.05 Q-11.75 -148.05 -13.4 -147.35 -15.05 -146.65 -15.55 -146.65 L-15.7 -146.65 -16.55 -146.75 -16.55 -147.25 Q-15.75 -149.3 -14.2 -150.15 L-13.75 -150.35 -12.6 -150.65 -7.25 -151.1 Q-4.45 -151.1 -3.6 -149.9 -2.6 -148.45 -0.1 -147.95 L0.1 -147.95 Q2.6 -148.45 3.65 -149.9 M14.3 -142.8 L16.2 -143.15 16.75 -143.15 Q16.0 -141.85 14.7 -141.35 L12.8 -140.15 13.5 -139.45 14.45 -138.9 Q11.65 -138.15 9.4 -139.25 8.65 -139.6 8.0 -140.15 L9.4 -139.95 Q10.9 -139.9 11.7 -140.6 12.8 -141.55 12.9 -142.3 L12.9 -142.35 12.95 -142.35 14.3 -142.8 M19.35 -140.95 Q20.0 -139.55 20.05 -138.05 L20.05 -137.75 19.95 -136.45 Q19.95 -135.75 18.25 -133.65 L18.2 -133.55 Q16.95 -132.15 16.2 -131.85 L13.45 -130.7 10.65 -129.15 10.35 -129.2 10.45 -132.15 9.8 -133.9 8.4 -135.85 8.7 -135.9 Q9.45 -135.9 10.65 -134.4 L12.05 -132.95 Q15.6 -134.05 16.35 -135.4 L17.35 -137.55 17.45 -137.75 17.45 -137.8 19.15 -141.1 19.2 -141.15 19.25 -141.2 19.25 -141.1 19.35 -140.95 M1.8 -137.6 L2.2 -138.05 Q2.85 -138.6 3.3 -138.6 L3.65 -138.55 3.85 -138.45 3.85 -138.4 3.85 -138.25 3.1 -137.0 2.8 -136.55 Q2.3 -135.85 2.3 -135.1 L1.85 -132.6 1.3 -131.35 Q0.9 -131.7 0.9 -132.95 0.9 -135.5 1.65 -137.3 L1.8 -137.6 M5.3 -121.1 L2.9 -123.35 3.85 -124.8 5.2 -126.3 Q6.6 -127.75 7.15 -129.1 L7.35 -129.65 7.45 -130.6 7.7 -129.6 7.75 -128.85 6.7 -125.3 9.15 -126.35 9.45 -126.5 9.85 -126.4 Q10.35 -126.2 10.55 -125.2 L10.75 -122.95 10.7 -122.45 10.7 -122.4 Q10.65 -121.3 10.1 -120.6 L9.15 -119.75 6.85 -119.05 6.35 -120.5 6.35 -120.55 7.2 -120.8 Q8.45 -121.25 8.85 -122.3 L7.0 -122.15 Q5.95 -121.85 5.3 -121.1 M-24.8 -153.1 L-24.75 -153.4 Q-24.35 -153.8 -24.35 -154.4 L-25.9 -157.3 Q-23.4 -156.35 -20.1 -156.35 L-19.75 -156.35 -19.45 -156.4 -19.35 -156.4 -19.3 -156.4 -19.3 -156.45 -19.4 -156.5 -19.55 -156.65 -19.75 -156.8 -22.1 -158.15 -24.95 -159.8 Q-25.85 -160.35 -25.85 -161.15 L-25.75 -162.25 -21.7 -163.3 -19.35 -162.55 -17.25 -161.7 -14.25 -159.4 Q-12.85 -158.1 -12.5 -157.4 L-12.4 -156.95 -12.2 -156.25 Q-12.9 -154.8 -13.65 -154.35 L-13.95 -154.35 Q-14.25 -154.35 -15.0 -153.75 L-15.85 -153.1 -15.65 -153.0 -15.8 -152.8 -16.25 -152.6 -17.0 -152.4 -17.65 -152.45 -17.65 -152.55 -17.7 -152.5 Q-23.15 -150.1 -29.05 -149.7 L-31.65 -150.05 -27.2 -152.25 -24.2 -152.35 -22.9 -153.15 -24.5 -153.1 -24.8 -153.1 M-7.95 -140.15 Q-8.8 -139.45 -9.75 -139.1 L-14.4 -138.9 Q-14.05 -139.0 -13.45 -139.45 L-12.8 -140.15 -14.65 -141.35 Q-16.0 -141.85 -16.75 -143.15 L-16.15 -143.15 Q-15.5 -142.75 -14.25 -142.8 L-12.9 -142.35 Q-12.8 -141.6 -11.65 -140.6 -11.0 -140.0 -9.75 -139.95 L-7.95 -140.15 M-3.8 -138.5 L-3.7 -138.5 -3.35 -138.55 Q-2.85 -138.55 -2.25 -138.0 L-1.85 -137.55 -1.65 -137.3 -1.6 -137.25 -1.55 -137.05 Q-0.9 -135.35 -0.9 -132.95 -0.9 -131.7 -1.25 -131.35 L-1.8 -132.6 Q-2.3 -133.95 -2.3 -135.1 -2.3 -136.05 -3.1 -137.0 L-3.85 -138.25 -3.85 -138.4 -3.85 -138.45 -3.8 -138.5 M-19.9 -136.45 L-20.0 -137.75 Q-20.0 -139.4 -19.3 -140.95 L-19.25 -141.1 -19.2 -141.2 -19.15 -141.15 -19.1 -141.1 -17.45 -137.8 -17.4 -137.75 -16.35 -135.4 Q-15.55 -134.05 -12.05 -132.95 -11.8 -132.95 -10.6 -134.4 -9.45 -135.9 -8.65 -135.9 L-8.35 -135.85 -9.75 -133.9 -10.4 -132.15 -10.3 -129.2 -10.3 -129.15 -10.6 -129.15 -13.45 -130.7 -16.15 -131.85 Q-16.95 -132.15 -18.25 -133.65 L-18.35 -133.8 Q-19.9 -135.8 -19.9 -136.45 M-6.3 -120.5 L-6.85 -119.05 -9.1 -119.75 -10.1 -120.6 Q-10.6 -121.3 -10.7 -122.4 L-10.7 -122.45 -10.7 -122.95 -10.55 -125.2 Q-10.3 -126.2 -9.8 -126.4 L-9.75 -126.4 -9.4 -126.5 -9.1 -126.35 -7.85 -125.85 -7.3 -125.6 -7.0 -125.45 -6.85 -125.4 -6.65 -125.3 -6.75 -125.55 -6.85 -125.8 -7.0 -126.2 -7.25 -127.0 -7.75 -128.85 -7.75 -129.05 -7.4 -130.6 -7.35 -129.65 -7.1 -129.1 Q-6.6 -127.75 -5.15 -126.3 L-3.8 -124.8 -2.9 -123.35 -3.0 -123.35 -4.05 -124.1 -4.35 -124.1 -4.5 -124.2 -6.65 -125.3 -7.05 -122.15 -8.8 -122.3 Q-8.4 -121.25 -7.15 -120.8 L-6.3 -120.55 -6.3 -120.5" fill="#000000" fill-opacity="0.2509804" fill-rule="evenodd" stroke="none"/>
    <path d="M28.85 -195.85 Q35.6 -194.2 38.45 -190.6 L43.4 -184.2 Q45.45 -181.45 43.55 -178.1 41.65 -174.8 41.65 -172.7 L32.35 -173.15 Q36.1 -177.95 36.5 -181.35 36.9 -184.75 34.85 -187.65 32.75 -190.55 28.3 -194.1 L28.85 -195.85 M27.25 -152.25 L24.2 -152.35 Q23.5 -152.65 22.95 -153.15 L24.55 -153.1 24.85 -153.1 Q26.15 -153.25 27.15 -154.05 31.85 -157.7 37.65 -158.7 36.4 -156.9 34.7 -155.45 31.35 -152.55 27.25 -152.25 M6.35 -120.5 L5.05 -120.1 4.9 -120.55 5.3 -121.1 Q5.95 -121.85 7.0 -122.15 L8.85 -122.3 Q8.45 -121.25 7.2 -120.8 L6.35 -120.55 6.35 -120.5 M-28.3 -194.1 Q-32.75 -190.55 -34.8 -187.65 -36.9 -184.75 -36.45 -181.35 -36.05 -177.95 -32.3 -173.15 L-41.6 -172.7 Q-41.6 -174.8 -43.5 -178.1 -45.4 -181.45 -43.35 -184.2 L-38.4 -190.6 Q-35.6 -194.2 -28.8 -195.85 L-28.3 -194.1 M-24.8 -153.1 L-24.5 -153.1 -22.9 -153.15 -24.2 -152.35 -27.2 -152.25 Q-31.3 -152.55 -34.7 -155.45 -36.35 -156.9 -37.6 -158.7 -31.8 -157.7 -27.1 -154.05 -26.1 -153.25 -24.8 -153.1 M-7.05 -122.15 L-6.95 -122.15 Q-5.55 -121.8 -4.85 -120.55 L-5.0 -120.1 -6.3 -120.5 -6.3 -120.55 -7.15 -120.8 Q-8.4 -121.25 -8.8 -122.3 L-7.05 -122.15" fill="#000000" fill-opacity="0.49803922" fill-rule="evenodd" stroke="none"/>
  </g>
</svg>
