<?xml version="1.0" encoding="UTF-8" standalone="no"?>
<svg xmlns:xlink="http://www.w3.org/1999/xlink" height="28.4px" width="38.2px" xmlns="http://www.w3.org/2000/svg">
  <g transform="matrix(1.0, 0.0, 0.0, 1.0, -380.85, -133.15)">
    <path d="M399.05 141.95 Q396.5 137.5 391.65 134.9 L390.15 134.15 389.05 133.7 388.95 133.7 388.15 135.2 387.7 136.0 Q386.1 139.0 384.95 142.0 L384.05 144.6 384.1 144.55 383.95 144.9 383.5 146.4 383.35 146.95 Q382.35 150.45 382.0 154.05 381.6 157.5 381.75 161.05 L382.8 157.25 Q385.45 147.95 389.45 140.05 394.6 140.3 399.7 144.4 L400.15 144.75 405.25 141.65 Q411.65 145.55 412.85 159.3 413.5 152.4 412.2 147.1 410.6 140.5 406.0 136.4 402.75 138.6 400.8 142.6 M383.95 144.9 L384.05 144.6 M388.95 133.7 L389.0 133.65 389.05 133.7 M381.35 156.4 L382.0 154.05 M410.7 138.95 Q413.85 141.65 415.3 144.55 L415.75 145.55 Q416.5 148.5 416.75 151.6 L418.55 157.5 M412.2 147.1 Q415.45 152.05 416.55 157.95 416.9 154.7 416.75 151.6" fill="none" stroke="#000000" stroke-linecap="round" stroke-linejoin="round" stroke-opacity="0.5019608" stroke-width="1.0"/>
  </g>
</svg>
