<?xml version="1.0" encoding="UTF-8" standalone="no"?>
<svg xmlns:xlink="http://www.w3.org/1999/xlink" height="105.5px" width="43.0px" xmlns="http://www.w3.org/2000/svg">
  <g transform="matrix(1.0, 0.0, 0.0, 1.0, -378.45, -123.75)">
    <path d="M399.95 141.6 Q396.4 131.9 393.5 127.65 387.6 119.05 384.1 132.1 L384.1 132.15 Q382.05 139.75 380.85 154.75 L380.15 165.1 379.7 174.25 379.45 181.35 Q378.85 201.5 379.0 228.75 382.25 153.35 390.9 140.85 394.85 135.1 399.95 142.65 L399.95 141.6 Q403.45 131.95 406.4 127.65 412.3 119.05 415.8 132.1 L415.8 132.15 Q417.8 139.75 419.05 154.8 L419.75 165.1 420.2 174.25 420.45 181.35 Q421.05 201.5 420.9 228.75 417.65 153.3 409.0 140.85 405.05 135.1 399.95 142.65" fill="none" stroke="#000000" stroke-linecap="round" stroke-linejoin="round" stroke-opacity="0.5019608" stroke-width="1.0"/>
  </g>
</svg>
