<?xml version="1.0" encoding="UTF-8" standalone="no"?>
<svg xmlns:xlink="http://www.w3.org/1999/xlink" height="31.95px" width="44.85px" xmlns="http://www.w3.org/2000/svg">
  <g transform="matrix(1.0, 0.0, 0.0, 1.0, -377.3, -126.05)">
    <path d="M418.55 157.5 L418.65 154.1 418.65 153.9 418.65 153.65 418.65 153.15 420.75 141.4 420.0 136.9 421.65 137.3 Q416.3 130.6 406.45 128.75 L409.15 127.0 399.95 126.75 Q394.35 127.45 389.0 130.2 L389.0 127.95 Q384.3 130.45 383.15 134.6 379.9 134.6 377.8 137.55 L379.95 137.55 379.15 141.4 381.25 153.15 381.25 153.65 381.25 153.9 381.25 154.1 381.4 157.5" fill="none" stroke="#000000" stroke-linecap="round" stroke-linejoin="round" stroke-width="1.0"/>
  </g>
</svg>
