<?xml version="1.0" encoding="UTF-8" standalone="no"?>
<svg xmlns:xlink="http://www.w3.org/1999/xlink" height="60.35px" width="50.0px" xmlns="http://www.w3.org/2000/svg">
  <g transform="matrix(1.0, 0.0, 0.0, 1.0, -374.75, -126.45)">
    <path d="M416.7 162.8 L414.35 171.2 410.75 178.95 410.75 180.55 412.1 178.05 413.1 181.7 Q416.2 179.4 417.85 173.7 417.75 177.15 416.5 180.45 420.3 177.35 420.25 169.05 420.95 172.25 423.1 173.05 420.8 169.3 421.35 166.7 422.0 169.35 424.25 169.7 421.3 164.4 421.75 156.2 L424.0 158.85 Q419.55 148.0 417.65 135.75 409.65 130.8 402.3 126.95 391.05 128.35 385.35 133.6 L385.0 133.95 381.1 138.15 Q379.6 144.25 379.35 151.9 379.05 159.55 376.45 167.5 373.85 175.5 376.85 177.95 374.3 172.9 377.3 167.45 M416.7 162.8 Q417.2 157.75 416.0 152.7 L416.0 154.95 Q409.65 151.95 408.7 142.45 405.45 149.25 396.95 155.15 L391.6 162.55 Q399.4 149.25 401.35 141.65 389.85 149.95 384.0 163.8 L386.0 171.3 Q387.6 173.85 389.5 179.4 L389.5 183.05 387.85 179.8 Q387.0 182.55 385.2 183.55 387.1 181.25 387.1 178.55 383.3 183.9 379.1 186.3 380.8 184.1 381.1 180.55 376.7 176.0 377.3 167.45" fill="none" stroke="#000000" stroke-linecap="round" stroke-linejoin="round" stroke-width="1.0"/>
    <path d="M377.3 167.45 L377.85 166.45 M384.0 163.8 L382.1 168.8 384.8 157.95 Q386.8 150.0 391.1 142.05 M381.1 180.55 L381.75 177.3 M404.1 141.2 Q402.65 148.85 396.95 155.15 M416.7 162.8 L416.7 169.65 Q420.75 159.5 417.25 146.3" fill="none" stroke="#000000" stroke-linecap="round" stroke-linejoin="round" stroke-opacity="0.49803922" stroke-width="1.0"/>
  </g>
</svg>
