<?xml version="1.0" encoding="UTF-8" standalone="no"?>
<svg xmlns:xlink="http://www.w3.org/1999/xlink" height="102.2px" width="55.1px" xmlns="http://www.w3.org/2000/svg">
  <g transform="matrix(1.0, 0.0, 0.0, 1.0, -373.25, -128.55)">
    <path d="M401.95 129.1 Q415.3 129.5 420.35 143.8 421.1 148.65 420.9 158.8 420.65 168.95 425.85 177.85 429.65 185.1 426.25 196.1 427.25 190.8 424.45 188.5 425.25 191.45 424.95 194.85 423.9 203.45 421.5 207.2 L419.0 211.5 Q421.5 210.35 423.6 211.25 422.0 214.45 422.0 216.75 422.0 218.8 423.3 220.15 421.0 222.2 419.7 224.5 421.5 224.6 422.95 225.6 419.5 226.65 418.15 230.2 417.25 228.15 415.5 228.6 415.7 224.05 417.5 219.65 415.95 220.1 415.05 222.35 414.7 217.65 413.55 216.15 413.0 215.45 412.3 215.5 L411.6 215.6 Q410.65 211.3 412.95 205.9 416.25 200.65 417.0 196.7 415.45 199.4 412.85 200.95 410.45 202.6 409.2 209.3 410.05 203.85 407.6 198.7 L409.55 198.65 Q411.35 195.25 411.7 189.6 411.35 185.8 413.55 182.7 415.5 180.9 416.45 183.7 414.1 181.35 413.15 185.3 412.25 188.5 414.0 189.7 416.3 190.85 418.4 187.5 421.1 181.3 419.0 175.2 417.45 171.4 416.85 165.7 415.7 168.85 413.45 171.3 417.2 163.75 415.35 154.0 412.8 152.9 411.3 148.65 410.9 152.25 408.25 154.65 407.4 154.15 405.95 154.15 L405.6 154.6 402.5 154.4 Q401.65 154.15 401.3 153.45 399.7 153.25 398.85 153.95 398.8 152.15 399.3 150.05 399.8 147.95 399.4 145.4 399.15 147.15 398.35 148.65 397.25 152.05 395.65 152.85 393.75 154.05 390.75 153.55 L389.35 153.25 388.65 153.25 Q386.65 153.25 385.15 154.05 L385.55 152.55 383.9 153.75 Q383.35 165.05 387.15 172.0 383.7 167.55 382.45 158.8 381.65 165.1 384.95 174.3 L383.2 170.45 Q383.4 173.15 382.6 175.25 380.5 181.35 383.2 187.55 385.3 190.9 387.6 189.75 389.35 188.55 388.45 185.35 387.5 181.4 385.15 183.75 386.1 180.95 388.05 182.75 390.25 185.85 389.9 189.65 390.25 195.3 392.05 198.7 L394.0 198.75 Q391.55 203.9 392.4 209.35 391.15 202.65 388.75 201.0 386.15 199.45 384.6 196.75 385.35 200.7 388.65 205.95 390.95 211.35 390.0 215.65 L389.3 215.55 Q388.6 215.5 388.05 216.2 386.9 217.7 386.55 222.4 385.65 220.15 384.1 219.7 385.9 224.1 386.1 228.65 384.35 228.2 383.45 230.25 382.1 226.7 378.65 225.65 380.1 224.65 381.9 224.55 380.6 222.25 378.3 220.2 379.6 218.85 379.6 216.8 379.6 214.5 378.0 211.3 380.1 210.4 382.6 211.55 L380.1 207.25 Q377.7 203.5 376.65 194.9 376.35 191.5 377.15 188.55 374.35 190.85 375.35 196.15 371.95 185.15 375.75 177.9 379.7 168.85 379.1 153.45 379.3 150.15 380.0 146.45 383.55 128.05 398.5 129.1 400.25 130.9 401.95 129.1 M397.05 132.2 Q389.85 133.6 385.8 142.0 384.7 146.1 382.3 149.7 381.1 151.55 381.15 153.45 L381.3 154.8 383.9 153.75 M399.4 145.4 L399.5 143.1 M385.55 152.55 L386.25 152.1 M397.0 139.9 Q396.5 144.55 393.15 150.65 391.95 152.95 390.75 153.55 M381.3 154.8 Q380.1 162.4 383.2 170.45 M384.6 196.75 L383.4 194.1 M378.85 180.0 Q377.8 182.05 377.15 188.55 M386.3 192.1 Q387.9 195.95 391.0 197.75 391.35 198.5 392.05 198.7 M388.65 153.25 Q390.95 151.4 391.7 147.6 M401.3 153.45 Q403.3 150.45 402.3 146.5 M411.3 148.65 L411.25 148.25 410.95 143.7 Q409.5 137.4 403.05 133.8 M416.85 165.7 Q418.55 161.15 417.95 155.1 L418.0 153.9 Q418.15 145.2 411.25 134.9 M415.35 154.0 L417.0 154.35 Q414.75 151.25 413.95 145.25 M407.95 148.75 Q407.4 152.5 405.95 154.15 M417.0 196.7 L418.2 194.05 M422.75 179.95 Q423.8 182.0 424.45 188.5 M415.3 192.05 Q413.7 195.9 410.6 197.7 410.25 198.45 409.55 198.65 M419.0 211.5 Q417.55 214.2 416.6 216.45 418.9 213.8 421.6 212.35 L422.75 211.7 M417.5 219.65 Q419.0 215.9 421.6 212.35 M416.55 204.45 Q412.65 208.55 412.3 215.5 M413.55 216.15 Q414.45 209.95 418.25 204.4 421.85 199.7 420.8 189.45 M416.6 216.45 Q415.15 219.95 415.05 222.35 M419.7 224.5 Q418.25 227.15 418.15 230.2 M417.5 225.35 Q418.0 220.4 422.0 216.75 M382.6 211.55 L385.0 216.5 Q386.45 220.0 386.55 222.4 M385.05 204.5 Q388.95 208.6 389.3 215.55 M384.1 219.7 Q382.6 215.95 380.0 212.4 L378.85 211.75 M381.9 224.55 Q383.35 227.2 383.45 230.25 M379.6 216.8 Q383.6 220.45 384.1 225.4 M385.0 216.5 Q382.7 213.85 380.0 212.4 M380.8 189.5 Q379.75 199.75 383.35 204.45 387.15 210.0 388.05 216.2" fill="none" stroke="#000000" stroke-linecap="round" stroke-linejoin="round" stroke-width="1.0"/>
  </g>
</svg>
