<?xml version="1.0" encoding="UTF-8" standalone="no"?>
<svg xmlns:xlink="http://www.w3.org/1999/xlink" height="139.95px" width="64.9px" xmlns="http://www.w3.org/2000/svg">
  <g transform="matrix(1.0, 0.0, 0.0, 1.0, 32.55, 167.75)">
    <path d="M17.85 -159.3 Q26.55 -137.35 31.15 -113.2 34.65 -88.95 27.8 -66.15 L26.95 -72.75 Q25.65 -63.2 21.2 -54.4 L18.9 -61.2 Q17.0 -53.3 13.55 -45.95 L10.85 -49.9 Q7.2 -38.5 -0.1 -27.8 -7.4 -38.5 -11.05 -49.9 L-13.75 -45.95 Q-17.2 -53.3 -19.1 -61.2 L-21.4 -54.4 Q-25.85 -63.2 -27.15 -72.75 L-28.0 -66.15 Q-34.85 -88.95 -31.35 -113.2 -26.75 -137.35 -18.05 -159.3 L-17.1 -160.55 Q-10.9 -167.8 -0.1 -167.75 10.7 -167.8 16.9 -160.55 L17.85 -159.3" fill="#000000" fill-opacity="0.2" fill-rule="evenodd" stroke="none"/>
  </g>
</svg>
