<?xml version="1.0" encoding="UTF-8" standalone="no"?>
<svg xmlns:xlink="http://www.w3.org/1999/xlink" height="72.55px" width="68.1px" xmlns="http://www.w3.org/2000/svg">
  <g transform="matrix(1.0, 0.0, 0.0, 1.0, -364.85, -128.55)">
    <path d="M381.7 138.25 Q386.0 130.8 391.65 129.1 394.15 128.3 396.95 128.65 399.25 128.9 401.8 130.0 408.85 126.5 414.45 133.45 415.8 135.1 417.05 137.4 418.75 140.45 420.3 144.6 425.45 162.0 420.3 176.85 418.85 183.75 424.05 188.7 427.25 191.75 432.95 194.05 432.2 195.35 430.85 196.5 L430.7 196.65 Q427.9 198.9 422.75 200.6 410.3 203.5 410.95 188.8 407.85 183.55 410.95 178.25 L411.35 177.3 Q415.4 165.55 413.95 152.55 L410.3 152.9 408.65 153.05 405.05 153.25 403.4 153.3 400.95 153.35 399.65 145.85 398.85 153.35 394.05 153.25 392.6 153.15 389.6 153.0 388.65 152.95 386.5 152.7 384.75 152.55 Q384.55 158.85 385.65 164.8 386.6 170.7 388.85 176.4 L389.3 177.5 Q392.7 186.25 392.85 194.45 L389.8 189.85 Q390.2 195.7 385.3 198.9 379.3 200.15 374.85 199.5 370.75 198.9 367.95 196.85 366.15 195.5 364.85 193.55 L369.95 192.15 Q379.95 186.55 377.0 172.95 375.35 168.4 375.0 163.85 373.95 151.3 381.7 138.25" fill="#000000" fill-rule="evenodd" stroke="none"/>
  </g>
</svg>
