<?xml version="1.0" encoding="UTF-8" standalone="no"?>
<svg xmlns:xlink="http://www.w3.org/1999/xlink" height="17.2px" width="42.1px" xmlns="http://www.w3.org/2000/svg">
  <g transform="matrix(1.0, 0.0, 0.0, 1.0, -378.85, -130.05)">
    <path d="M380.95 143.5 Q379.5 142.85 379.4 141.95 L378.85 131.85 Q378.8 130.55 380.3 130.35 L399.9 131.2 419.55 130.35 Q421.05 130.55 420.95 131.85 L420.45 141.95 Q420.3 142.85 418.9 143.5 414.45 145.45 405.9 147.2 404.9 147.5 404.2 146.2 L400.9 140.2 Q400.35 139.45 399.9 139.45 399.4 139.4 398.95 140.2 L395.65 146.2 Q394.9 147.5 393.95 147.2 385.35 145.45 380.95 143.5" fill="#000000" fill-rule="evenodd" stroke="none"/>
  </g>
</svg>
