<?xml version="1.0" encoding="UTF-8" standalone="no"?>
<svg xmlns:xlink="http://www.w3.org/1999/xlink" height="23.25px" width="50.7px" xmlns="http://www.w3.org/2000/svg">
  <g transform="matrix(1.0, 0.0, 0.0, 1.0, -374.65, -98.1)">
    <path d="M403.9 101.95 L396.1 101.95 Q396.2 98.75 400.0 98.1 403.75 98.75 403.9 101.95 M400.1 121.35 Q399.15 121.35 398.4 120.8 397.75 120.35 397.75 119.65 397.75 118.9 398.4 118.4 399.15 117.95 400.1 117.95 401.1 117.95 401.75 118.4 402.45 118.9 402.45 119.65 402.45 120.35 401.75 120.8 401.1 121.35 400.1 121.35 M394.5 116.2 Q385.25 116.6 376.2 118.9 L374.65 119.25 Q377.7 104.7 394.5 102.8 L394.5 116.2 M425.35 119.25 L423.75 118.9 Q414.75 116.6 405.45 116.2 L405.45 102.8 Q422.25 104.7 425.35 119.25" fill="#000000" fill-rule="evenodd" stroke="none"/>
  </g>
</svg>
