<?xml version="1.0" encoding="UTF-8" standalone="no"?>
<svg xmlns:xlink="http://www.w3.org/1999/xlink" height="37.3px" width="145.6px" xmlns="http://www.w3.org/2000/svg">
  <g transform="matrix(1.0, 0.0, 0.0, 1.0, -327.1, -97.45)">
    <path d="M374.7 131.35 L373.8 130.1 373.45 129.7 Q368.25 123.3 362.85 122.15 359.15 121.45 356.3 122.75 L356.05 122.8 355.6 123.1 Q354.3 123.75 353.2 124.85 348.7 129.3 343.1 133.05 L340.85 134.2 Q337.7 135.35 334.45 134.2 333.1 133.75 331.8 132.9 323.8 125.35 329.45 113.25 335.85 100.85 349.85 97.45 349.85 98.85 348.75 100.0 341.15 104.75 338.25 114.75 L338.15 115.0 Q337.95 117.1 338.95 117.8 340.75 118.6 342.05 117.1 344.4 114.1 347.05 111.9 353.9 106.4 362.95 106.2 368.85 106.1 373.8 108.65 375.85 109.7 377.8 111.25 374.3 115.65 374.5 121.2 L374.7 131.35 M461.65 115.0 L461.6 114.75 Q458.65 104.75 451.05 100.0 449.95 98.85 449.95 97.45 464.0 100.85 470.35 113.25 476.05 125.35 468.05 132.9 466.75 133.75 465.35 134.2 462.1 135.35 459.0 134.2 L456.7 133.05 Q451.15 129.3 446.65 124.85 445.55 123.75 444.25 123.1 L443.8 122.8 443.55 122.75 Q440.65 121.45 436.95 122.15 431.55 123.3 426.35 129.7 L426.05 130.1 425.15 131.35 425.35 121.2 Q425.5 115.65 422.0 111.3 423.95 109.7 426.05 108.65 431.0 106.1 436.9 106.2 445.95 106.4 452.75 111.9 455.4 114.1 457.75 117.1 459.05 118.6 460.9 117.8 461.85 117.1 461.65 115.0" fill="#000000" fill-rule="evenodd" stroke="none"/>
  </g>
</svg>
