<?xml version="1.0" encoding="UTF-8" standalone="no"?>
<svg xmlns:xlink="http://www.w3.org/1999/xlink" height="26.0px" width="59.15px" xmlns="http://www.w3.org/2000/svg">
  <g transform="matrix(1.0, 0.0, 0.0, 1.0, -370.75, -125.4)">
    <path d="M379.0 126.25 Q380.55 126.05 382.05 126.25 389.85 127.05 395.05 136.85 388.15 131.9 381.25 132.25 378.2 129.4 379.0 126.25 M394.35 147.15 L400.0 133.95 406.3 147.35 399.9 151.4 394.35 147.15 M377.25 148.45 L370.75 142.3 370.75 130.1 374.9 125.4 377.25 148.45 M429.9 130.3 L429.9 142.5 423.4 148.65 425.7 125.6 429.9 130.3 M405.75 136.85 Q410.9 127.1 418.55 126.25 L419.95 126.2 421.8 126.25 Q422.6 129.4 419.55 132.25 412.65 131.9 405.75 136.85" fill="#000000" fill-rule="evenodd" stroke="none"/>
  </g>
</svg>
