<?xml version="1.0" encoding="UTF-8" standalone="no"?>
<svg xmlns:xlink="http://www.w3.org/1999/xlink" height="29.3px" width="45.95px" xmlns="http://www.w3.org/2000/svg">
  <g transform="matrix(1.0, 0.0, 0.0, 1.0, -376.95, -143.25)">
    <path d="M401.2 150.4 L401.2 143.25 404.35 150.4 401.2 150.4 M381.05 164.15 L381.35 164.05 381.6 164.15 381.65 164.35 381.6 164.6 381.35 164.75 381.05 164.6 381.0 164.35 381.05 164.15 M377.25 158.0 L377.05 157.9 376.95 157.75 377.05 157.45 377.25 157.4 377.5 157.45 377.55 157.75 377.5 157.9 377.25 158.0 M393.15 164.6 L394.45 158.05 399.0 158.05 399.0 164.6 393.15 164.6 M400.85 164.6 L400.85 158.05 405.45 158.05 406.7 164.6 400.85 164.6 M399.9 170.0 L403.7 170.2 Q404.85 171.25 403.7 172.3 L399.9 172.55 396.2 172.3 Q395.05 171.25 396.2 170.2 L399.9 170.0 M389.85 160.35 Q389.8 158.7 391.75 158.05 L393.8 158.05 392.5 164.6 392.05 164.6 Q389.9 163.7 389.85 162.45 L389.85 160.35 M398.6 150.4 L395.5 150.4 398.6 143.25 398.6 150.4 M422.8 157.9 L422.6 158.0 422.35 157.9 422.25 157.75 422.35 157.45 422.6 157.4 422.8 157.45 422.9 157.75 422.8 157.9 M408.15 158.05 Q410.05 158.7 410.0 160.35 L410.0 162.45 Q409.95 163.7 407.8 164.6 L407.35 164.6 406.1 158.05 408.15 158.05 M418.2 164.35 L418.25 164.15 418.5 164.05 418.75 164.15 418.85 164.35 418.75 164.6 418.5 164.75 418.25 164.6 418.2 164.35" fill="#000000" fill-rule="evenodd" stroke="none"/>
  </g>
</svg>
