<?xml version="1.0" encoding="UTF-8" standalone="no"?>
<svg xmlns:xlink="http://www.w3.org/1999/xlink" height="21.65px" width="49.75px" xmlns="http://www.w3.org/2000/svg">
  <g transform="matrix(1.0, 0.0, 0.0, 1.0, -375.05, -127.75)">
    <path d="M377.25 131.2 L377.8 141.2 M378.85 131.85 L379.4 141.95 Q379.5 142.85 380.95 143.5 385.35 145.45 393.95 147.2 394.9 147.5 395.65 146.2 L398.95 140.2 Q399.4 139.4 399.9 139.45 400.35 139.45 400.9 140.2 L404.2 146.2 Q404.9 147.5 405.9 147.2 414.45 145.45 418.9 143.5 420.3 142.85 420.45 141.95 L420.95 131.85 Q421.05 130.55 419.55 130.35 L399.9 131.2 380.3 130.35 Q378.8 130.55 378.85 131.85 M422.6 131.2 L422.0 141.2" fill="none" stroke="#000000" stroke-linecap="round" stroke-linejoin="round" stroke-opacity="0.5019608" stroke-width="1.0"/>
    <path d="M377.25 131.2 Q377.25 130.15 378.1 129.4 379.2 128.65 380.3 128.55 L399.9 129.4 419.55 128.55 Q420.65 128.65 421.75 129.4 422.6 130.15 422.6 131.2 L424.3 131.2 424.3 140.75 422.0 141.2 Q422.0 142.5 421.5 143.35 L418.9 145.2 Q414.6 147.05 406.3 148.8 404.85 149.1 404.35 148.45 L400.55 142.5 Q400.25 142.2 399.9 142.2 399.6 142.2 399.25 142.5 L395.5 148.45 Q395.0 149.1 393.55 148.8 385.25 147.05 380.95 145.2 379.65 144.6 378.35 143.35 377.8 142.5 377.8 141.2 L375.55 140.75 375.55 131.2 377.25 131.2 Z" fill="none" stroke="#000000" stroke-linecap="round" stroke-linejoin="round" stroke-width="1.0"/>
  </g>
</svg>
