<?xml version="1.0" encoding="UTF-8" standalone="no"?>
<svg xmlns:xlink="http://www.w3.org/1999/xlink" height="45.95px" width="76.15px" xmlns="http://www.w3.org/2000/svg">
  <g transform="matrix(1.0, 0.0, 0.0, 1.0, -361.85, -87.7)">
    <path d="M423.7 114.55 L423.05 103.15 Q421.6 88.75 399.9 88.2 378.25 88.75 376.85 103.15 L376.2 114.55 M423.7 114.55 L423.7 114.7 423.85 117.95 Q426.1 117.15 428.05 115.35 429.95 113.85 431.95 113.35 L434.55 112.95 Q438.65 113.15 437.05 117.55 432.2 132.4 399.9 133.15 367.75 132.4 362.8 117.55 361.2 113.15 365.25 112.95 L367.8 113.35 Q369.9 113.85 371.7 115.35 373.7 117.15 376.0 117.95 L376.2 114.7 376.2 114.55" fill="none" stroke="#000000" stroke-linecap="round" stroke-linejoin="round" stroke-width="1.0"/>
    <path d="M376.2 114.55 Q381.85 118.75 399.9 118.75 418.05 118.75 423.7 114.55 M367.8 113.35 Q365.75 113.05 364.5 114.3 363.95 114.85 364.15 115.85 364.5 118.55 367.5 121.45 369.1 123.15 371.7 124.5 382.0 130.3 399.9 130.45 417.85 130.3 428.1 124.5 430.7 123.15 432.35 121.45 435.4 118.55 435.65 115.85 435.85 114.85 435.35 114.3 434.1 113.05 431.95 113.35 M376.0 117.95 L375.75 124.45 Q381.45 128.6 399.9 128.55 418.35 128.6 424.15 124.45 L423.85 117.95" fill="none" stroke="#000000" stroke-linecap="round" stroke-linejoin="round" stroke-opacity="0.5019608" stroke-width="1.0"/>
  </g>
</svg>
