<?xml version="1.0" encoding="UTF-8" standalone="no"?>
<svg xmlns:xlink="http://www.w3.org/1999/xlink" height="91.55px" width="82.25px" xmlns="http://www.w3.org/2000/svg">
  <g transform="matrix(1.0, 0.0, 0.0, 1.0, -358.8, -96.75)">
    <path d="M429.35 116.65 L421.45 117.15 Q410.65 117.75 399.9 117.75 389.2 117.75 378.4 117.15 L370.45 116.65 M370.45 121.4 L378.45 121.9 Q389.2 122.5 399.9 122.5 410.65 122.5 421.35 121.9 L429.35 121.4 M374.55 126.7 L374.55 123.45 M425.25 126.7 L425.25 123.45" fill="none" stroke="#000000" stroke-linecap="round" stroke-linejoin="round" stroke-opacity="0.49803922" stroke-width="1.0"/>
    <path d="M401.65 98.25 L402.4 99.5 Q412.7 95.45 421.7 101.05 L422.2 101.35 Q428.0 104.8 429.35 108.9 431.9 113.15 429.35 116.65 L429.35 121.4 Q436.5 150.25 440.55 180.6 430.45 180.55 421.6 187.8 425.45 157.6 425.25 126.7 L421.25 127.35 Q410.6 129.0 399.9 129.0 389.25 129.0 378.6 127.35 L374.55 126.7 Q374.35 157.6 378.2 187.8 369.35 180.55 359.3 180.6 363.3 150.25 370.45 121.4 L370.45 116.65 Q367.95 113.15 370.45 108.9 371.85 104.8 377.6 101.35 L378.15 101.05 Q387.1 95.45 397.45 99.5 L398.15 98.25 Q398.8 97.0 399.7 97.3 L399.9 97.35 400.1 97.3 Q401.0 97.0 401.65 98.25" fill="none" stroke="#000000" stroke-linecap="round" stroke-linejoin="round" stroke-width="1.0"/>
  </g>
</svg>
