<?xml version="1.0" encoding="UTF-8" standalone="no"?>
<svg xmlns:xlink="http://www.w3.org/1999/xlink" height="71.2px" width="56.5px" xmlns="http://www.w3.org/2000/svg">
  <g transform="matrix(1.0, 0.0, 0.0, 1.0, -395.95, -33.6)">
    <path d="M396.45 104.3 L396.45 97.75 Q396.75 96.65 397.65 96.1 396.6 46.0 427.1 34.8 446.0 30.85 451.4 49.3 454.5 66.85 439.65 70.65 430.25 73.15 423.3 67.2 426.7 85.95 408.1 81.2 413.05 90.05 402.05 96.0 403.15 96.45 403.5 97.75 L403.5 104.3 M402.05 96.0 L400.0 95.7 Q398.55 95.65 397.65 96.1" fill="none" stroke="#000000" stroke-linecap="round" stroke-linejoin="round" stroke-width="1.0"/>
    <path d="M403.5 104.3 L400.0 104.15 396.45 104.3 Z" fill="none" stroke="#000000" stroke-linecap="round" stroke-linejoin="round" stroke-opacity="0.5019608" stroke-width="1.0"/>
  </g>
</svg>
