<?xml version="1.0" encoding="UTF-8" standalone="no"?>
<svg xmlns:xlink="http://www.w3.org/1999/xlink" height="50.0px" width="60.15px" xmlns="http://www.w3.org/2000/svg">
  <g transform="matrix(1.0, 0.0, 0.0, 1.0, -370.25, -116.1)">
    <path d="M400.35 122.9 Q407.8 122.8 418.95 116.8 420.5 116.8 422.2 117.75 L423.1 118.25 Q424.6 119.3 426.15 121.15 L425.7 125.6 429.9 130.3 429.9 142.5 423.4 148.65 422.25 159.3 Q420.05 163.3 416.15 165.6 L413.95 162.6 Q409.2 157.4 401.5 156.8 L399.9 156.75 399.15 156.75 Q391.35 157.25 386.65 162.55 385.4 163.75 384.45 165.4 380.55 163.1 378.35 159.1 L377.25 148.45 370.75 142.3 370.75 130.1 374.9 125.4 374.45 120.95 Q376.4 118.65 378.35 117.6 380.05 116.6 381.65 116.6 392.9 122.65 400.25 122.9 L400.35 122.9" fill="none" stroke="#000000" stroke-linecap="round" stroke-linejoin="round" stroke-width="1.0"/>
    <path d="M377.25 148.45 L374.9 125.4 M382.05 126.25 Q389.85 127.05 395.05 136.85 393.1 138.75 387.95 138.75 L384.0 135.9 Q382.0 134.05 381.25 132.25 378.2 129.4 379.0 126.25 380.55 126.05 382.05 126.25 M400.0 146.4 L400.0 133.95 394.35 147.15 399.9 151.4 406.3 147.35 400.0 133.95 M395.05 136.85 Q388.15 131.9 381.25 132.25 M419.55 132.25 Q422.6 129.4 421.8 126.25 L419.95 126.2 418.55 126.25 Q410.9 127.1 405.75 136.85 412.65 131.9 419.55 132.25 418.75 134.15 416.75 135.95 L412.85 138.75 Q407.7 138.75 405.75 136.85 M425.7 125.6 L423.4 148.65" fill="none" stroke="#000000" stroke-linecap="round" stroke-linejoin="round" stroke-opacity="0.49803922" stroke-width="1.0"/>
  </g>
</svg>
