<?xml version="1.0" encoding="UTF-8" standalone="no"?>
<svg xmlns:xlink="http://www.w3.org/1999/xlink" height="79.2px" width="82.7px" xmlns="http://www.w3.org/2000/svg">
  <g transform="matrix(1.0, 0.0, 0.0, 1.0, -358.3, -103.65)">
    <path d="M391.2 111.1 Q392.55 110.2 393.95 110.2 L405.4 110.2 Q406.75 110.2 408.1 111.1 L408.1 104.15 414.2 106.25 414.2 115.3 Q416.4 116.8 418.65 119.25 420.65 121.6 422.75 126.05 423.7 127.9 424.4 131.35 424.95 135.7 424.85 140.0 424.8 143.25 421.9 147.15 419.95 149.0 418.25 151.3 L417.25 153.55 418.35 153.95 418.5 157.15 419.85 157.6 Q421.6 154.6 423.45 152.2 424.55 150.85 426.0 150.4 L439.95 155.85 Q440.65 159.7 440.45 163.65 L440.0 166.3 439.5 168.2 Q438.6 171.1 437.2 173.85 434.5 179.05 429.6 182.35 L414.8 176.9 Q413.8 174.9 413.95 172.6 L415.05 166.95 414.1 166.45 411.3 168.45 411.05 168.4 409.85 168.0 409.85 173.15 Q408.65 174.9 405.7 176.6 403.45 177.9 401.2 177.8 L400.65 177.8 398.7 177.75 Q396.15 178.0 393.6 176.6 390.7 174.9 389.45 173.15 L389.45 168.0 388.3 168.4 388.0 168.45 385.25 166.45 384.25 166.95 385.35 172.6 Q385.5 174.9 384.5 176.9 L369.7 182.35 Q364.8 179.05 362.1 173.85 360.7 171.1 359.8 168.2 L359.3 166.3 Q358.9 165.0 358.85 163.65 358.65 159.7 359.35 155.85 L373.35 150.4 Q374.75 150.85 375.85 152.2 L379.45 157.6 380.8 157.15 380.95 153.95 382.05 153.55 Q381.8 152.55 381.05 151.3 379.4 149.0 377.45 147.15 374.5 143.25 374.45 140.0 374.35 135.7 374.9 131.35 375.6 127.9 376.6 126.05 378.65 121.6 380.75 119.25 382.9 116.8 385.1 115.3 L385.1 106.25 391.2 104.15 391.2 111.1" fill="none" stroke="#000000" stroke-linecap="round" stroke-linejoin="round" stroke-width="1.0"/>
    <path d="M391.2 111.1 L391.2 118.1 385.1 119.7 385.1 115.3 M376.9 132.05 Q376.7 134.7 377.05 137.6 377.25 139.65 378.15 141.5 379.25 143.5 380.95 145.05 382.45 146.15 383.85 146.7 385.35 147.2 388.5 145.65 391.65 144.1 394.2 141.15 395.65 139.4 396.4 137.6 L397.65 132.95 Q397.95 131.35 397.65 129.7 396.8 127.35 394.8 126.15 392.75 124.85 390.15 124.25 L385.1 124.0 Q382.65 124.2 380.85 125.35 379.1 126.45 377.9 128.6 377.1 130.1 376.9 132.05 M378.9 131.35 Q378.45 133.95 378.9 136.6 379.0 138.1 380.2 140.75 381.0 142.2 382.75 143.45 L383.4 143.8 Q384.95 144.2 386.35 143.8 L389.8 141.85 Q391.65 140.5 392.95 138.75 394.45 136.65 394.9 134.8 395.15 132.55 394.45 131.0 393.5 129.3 392.1 128.75 390.1 127.75 387.2 127.3 384.25 126.85 382.3 127.7 380.35 128.6 378.9 131.35 M404.85 131.0 Q405.85 129.3 407.2 128.75 409.2 127.75 412.15 127.3 415.05 126.85 417.0 127.7 418.95 128.6 420.4 131.35 420.85 133.95 420.4 136.6 420.3 138.1 419.1 140.75 418.3 142.2 416.55 143.45 L415.9 143.8 Q414.35 144.2 413.0 143.8 L409.55 141.85 Q407.65 140.5 406.35 138.75 404.85 136.65 404.4 134.8 404.15 132.55 404.85 131.0 M404.55 126.15 Q406.55 124.85 409.15 124.25 L414.2 124.0 Q416.7 124.2 418.45 125.35 420.2 126.45 421.45 128.6 422.25 130.1 422.4 132.05 422.6 134.7 422.25 137.6 422.1 139.65 421.15 141.5 420.05 143.5 418.35 145.05 416.9 146.15 415.45 146.7 414.0 147.2 410.85 145.65 407.65 144.1 405.1 141.15 403.7 139.4 402.95 137.6 402.05 135.3 401.65 132.95 401.35 131.35 401.65 129.7 402.5 127.35 404.55 126.15 M398.1 147.7 L398.1 145.2 401.2 145.2 401.2 147.7 398.1 147.7 M402.15 154.6 L402.45 154.8 403.45 155.45 Q405.0 156.75 405.0 158.55 405.0 160.4 403.45 161.7 L401.5 162.8 400.75 162.95 399.7 163.0 399.6 163.0 398.7 163.0 Q397.5 162.8 396.6 162.2 L395.9 161.7 395.1 160.85 Q394.4 159.85 394.35 158.7 L394.35 158.55 Q394.35 157.2 395.25 156.15 L395.9 155.45 Q397.0 154.6 398.3 154.3 L399.6 154.2 399.7 154.2 400.2 154.2 Q401.35 154.0 402.15 154.6 M403.05 152.8 L396.3 152.8 396.3 150.05 403.05 150.05 403.05 152.8 M403.45 155.45 L404.1 156.3 Q404.75 157.2 404.85 158.25 L404.85 158.55 Q404.85 160.0 403.9 161.1 L403.3 161.7 401.5 162.8 M402.45 154.8 Q401.4 154.3 400.2 154.2 M382.05 153.55 L386.55 151.75 Q388.55 152.4 390.05 155.05 L392.75 160.15 Q394.25 163.3 394.05 166.3 L389.45 168.0 M380.8 157.15 L382.1 156.6 386.2 165.9 385.25 166.45 M381.5 154.2 Q383.0 154.85 383.85 156.55 L387.35 164.05 Q388.4 166.25 388.3 168.4 M373.35 150.4 Q373.2 153.35 374.35 156.55 L381.45 172.55 Q382.25 174.05 384.5 176.9 M414.2 115.3 L414.2 119.7 408.1 118.1 408.1 111.1 M418.5 157.15 L417.2 156.6 413.1 165.9 414.1 166.45 M411.05 168.4 Q410.9 166.25 411.95 164.05 L415.45 156.55 Q416.3 154.85 417.8 154.2 M409.85 168.0 L405.25 166.3 Q405.05 163.3 406.6 160.15 L409.3 155.05 Q410.75 152.4 412.8 151.75 L417.25 153.55 M414.8 176.9 L417.85 172.55 424.95 156.55 Q426.1 153.35 426.0 150.4" fill="none" stroke="#000000" stroke-linecap="round" stroke-linejoin="round" stroke-opacity="0.49803922" stroke-width="1.0"/>
  </g>
</svg>
