<?xml version="1.0" encoding="UTF-8" standalone="no"?>
<svg xmlns:xlink="http://www.w3.org/1999/xlink" height="69.55px" width="105.7px" xmlns="http://www.w3.org/2000/svg">
  <g transform="matrix(1.0, 0.0, 0.0, 1.0, 52.85, 202.55)">
    <path d="M1.15 -192.55 L0.8 -193.3 Q0.5 -193.65 0.05 -193.65 L-0.75 -193.3 -1.05 -192.55 -0.75 -191.75 Q-0.4 -191.4 0.05 -191.4 0.5 -191.4 0.8 -191.75 1.15 -192.05 1.15 -192.55 M0.8 -196.9 Q1.15 -197.2 1.15 -197.65 L0.8 -198.45 0.05 -198.75 -0.75 -198.45 -1.05 -197.65 -0.75 -196.9 Q-0.4 -196.55 0.05 -196.55 0.5 -196.55 0.8 -196.9 M3.35 -202.3 L5.95 -185.0 Q3.0 -183.75 0.05 -182.6 L-5.9 -185.0 -3.35 -202.3 -2.8 -202.35 0.05 -202.55 2.9 -202.35 3.35 -202.3 M0.8 -185.75 Q1.15 -186.1 1.15 -186.55 L0.8 -187.35 0.05 -187.65 -0.75 -187.35 -1.05 -186.55 -0.75 -185.75 0.05 -185.45 Q0.5 -185.45 0.8 -185.75 M25.6 -172.0 L26.9 -172.4 28.9 -169.45 Q31.3 -182.5 37.45 -184.9 41.65 -186.55 43.8 -185.3 45.45 -181.65 49.15 -175.65 46.95 -177.6 43.05 -174.4 36.8 -169.2 35.2 -160.2 L45.2 -145.65 Q44.45 -142.85 39.1 -138.75 33.75 -135.15 25.65 -133.0 L23.15 -156.85 Q23.75 -159.5 24.0 -162.25 L24.3 -167.55 24.3 -167.85 24.3 -168.15 24.3 -171.65 25.6 -172.0 M-37.4 -184.9 Q-31.3 -182.5 -28.8 -169.45 L-26.8 -172.4 -24.85 -171.85 -24.25 -171.65 -24.35 -168.15 -24.35 -167.85 -24.35 -167.55 -24.1 -162.25 -23.25 -156.95 -25.65 -133.05 Q-33.75 -135.15 -39.05 -138.75 -44.4 -142.85 -45.15 -145.65 L-35.2 -160.2 Q-36.75 -169.2 -43.0 -174.4 -46.95 -177.6 -49.15 -175.65 -45.4 -181.65 -43.75 -185.3 -41.55 -186.55 -37.4 -184.9" fill="#000000" fill-opacity="0.2" fill-rule="evenodd" stroke="none"/>
    <path d="M46.7 -171.8 Q47.85 -172.4 49.05 -172.5 51.0 -172.65 52.05 -171.15 L52.1 -171.1 52.7 -169.85 Q53.25 -167.95 51.65 -165.25 L46.7 -171.8 M-46.7 -171.8 L-51.55 -165.25 Q-53.25 -167.95 -52.7 -169.85 L-52.05 -171.1 -52.05 -171.15 Q-51.0 -172.65 -49.05 -172.5 L-46.7 -171.8" fill="#000000" fill-opacity="0.4" fill-rule="evenodd" stroke="none"/>
  </g>
</svg>
