<?xml version="1.0" encoding="UTF-8" standalone="no"?>
<svg xmlns:xlink="http://www.w3.org/1999/xlink" height="44.95px" width="75.15px" xmlns="http://www.w3.org/2000/svg">
  <g transform="matrix(1.0, 0.0, 0.0, 1.0, -362.25, -88.15)">
    <path d="M375.65 124.4 Q381.35 128.55 399.8 128.5 418.25 128.55 424.05 124.4 L423.75 117.9 Q426.0 117.1 427.95 115.3 429.85 113.8 431.85 113.3 L434.45 112.9 Q438.55 113.1 436.95 117.5 432.1 132.35 399.8 133.1 367.65 132.35 362.7 117.5 361.1 113.1 365.15 112.9 L367.7 113.3 Q369.8 113.8 371.6 115.3 373.6 117.1 375.9 117.9 L375.65 124.4 M399.8 118.7 Q381.75 118.7 376.1 114.5 L376.75 103.1 Q378.15 88.7 399.8 88.15 421.5 88.7 422.95 103.1 L423.6 114.5 Q417.95 118.7 399.8 118.7" fill="#000000" fill-rule="evenodd" stroke="none"/>
  </g>
</svg>
