<?xml version="1.0" encoding="UTF-8" standalone="no"?>
<svg xmlns:xlink="http://www.w3.org/1999/xlink" height="76.6px" width="66.1px" xmlns="http://www.w3.org/2000/svg">
  <g transform="matrix(1.0, 0.0, 0.0, 1.0, -366.8, -104.2)">
    <path d="M380.3 109.2 Q386.55 104.95 395.0 104.2 396.35 114.4 396.9 124.65 L372.05 124.65 Q372.4 120.3 373.35 115.95 376.4 111.85 380.3 109.2 M380.3 148.0 Q383.55 149.55 386.95 149.25 L386.7 157.7 Q383.7 155.2 380.3 153.3 376.3 151.1 371.65 149.75 L373.35 142.4 Q376.8 146.3 380.3 148.0 M402.15 130.4 L403.6 130.4 403.6 130.45 Q401.75 149.7 419.75 140.25 L421.05 139.55 Q422.5 135.0 421.4 130.4 L425.75 130.4 Q425.7 136.4 424.4 142.2 422.15 144.55 419.75 145.8 411.4 150.0 401.0 140.7 L402.15 130.4 M373.9 130.4 L378.25 130.4 Q377.15 135.0 378.55 139.55 L380.3 140.5 Q397.85 149.4 396.05 130.4 L397.4 130.4 398.4 140.85 Q388.45 149.75 380.3 146.0 377.7 144.75 375.25 142.2 373.95 136.4 373.9 130.4 M386.25 168.55 Q383.35 166.15 380.3 164.25 375.2 161.05 369.55 159.3 L371.3 151.65 Q376.05 153.0 380.3 155.55 383.55 157.4 386.55 159.95 L386.25 168.55 M380.9 171.8 Q380.95 172.15 381.15 172.35 381.5 172.7 381.95 172.7 382.4 172.7 382.65 172.35 L383.0 171.8 383.0 171.65 Q383.0 171.2 382.65 170.85 382.4 170.6 381.95 170.6 L381.15 170.85 Q380.9 171.2 380.9 171.65 L380.9 171.8 M378.15 168.35 L377.85 167.55 Q377.6 167.3 377.15 167.3 376.7 167.3 376.35 167.55 376.1 167.9 376.1 168.35 L376.1 168.45 Q376.15 168.85 376.35 169.05 376.7 169.4 377.15 169.4 377.6 169.4 377.85 169.05 L378.15 168.45 378.15 168.35 M384.3 161.65 L383.55 161.4 Q383.1 161.4 382.8 161.65 382.55 161.95 382.55 162.4 L382.55 162.55 382.8 163.15 383.55 163.45 Q384.0 163.45 384.3 163.15 L384.6 162.55 384.6 162.4 384.3 161.65 M372.4 166.9 Q372.4 166.45 372.05 166.15 371.8 165.85 371.35 165.85 370.9 165.85 370.55 166.15 370.3 166.45 370.3 166.9 L370.3 167.05 370.55 167.6 371.35 167.95 Q371.8 167.95 372.05 167.6 L372.4 167.05 372.4 166.9 M372.15 156.9 L372.15 157.05 Q372.2 157.4 372.4 157.6 372.7 157.95 373.15 157.95 373.6 157.95 373.9 157.6 L374.2 157.05 374.2 156.9 373.9 156.1 373.15 155.85 Q372.7 155.85 372.4 156.1 372.15 156.45 372.15 156.9 M379.0 157.7 Q378.55 157.7 378.25 157.95 378.0 158.25 378.0 158.7 L378.0 158.85 378.25 159.45 Q378.55 159.75 379.0 159.75 L379.75 159.45 380.05 158.85 380.05 158.7 379.75 157.95 379.0 157.7 M386.1 171.2 L386.15 171.25 385.8 180.8 Q383.45 176.8 380.3 174.1 377.15 171.4 373.15 170.1 369.8 169.7 366.8 171.25 L369.05 161.2 Q374.85 162.95 380.3 166.7 383.25 168.65 386.1 171.2 M405.15 104.25 L405.2 104.25 Q413.6 105.1 419.75 109.5 423.4 112.1 426.25 115.95 427.25 120.3 427.55 124.65 L402.8 124.65 Q403.35 114.65 405.15 104.55 L405.15 104.25 M428.35 151.65 L428.4 151.65 430.15 159.3 430.1 159.3 Q424.7 160.95 419.75 164.0 416.45 165.95 413.4 168.55 L413.05 159.95 Q416.25 157.2 419.75 155.25 423.85 152.95 428.35 151.65 M419.75 147.75 Q423.1 146.05 426.25 142.4 L427.95 149.75 Q423.6 151.05 419.75 153.05 416.15 155.0 413.0 157.7 L412.7 149.25 Q416.25 149.55 419.75 147.75 M426.45 155.85 Q426.0 155.85 425.75 156.1 425.4 156.45 425.4 156.9 L425.4 157.05 425.75 157.6 Q426.0 157.95 426.45 157.95 426.9 157.95 427.25 157.6 L427.5 157.05 427.5 156.9 427.25 156.1 Q426.9 155.85 426.45 155.85 M429.3 166.9 L429.05 166.15 Q428.75 165.85 428.3 165.85 427.85 165.85 427.55 166.15 427.25 166.45 427.25 166.9 L427.25 167.05 427.55 167.6 Q427.85 167.95 428.3 167.95 428.75 167.95 429.05 167.6 L429.3 167.05 429.3 166.9 M419.75 159.3 L419.9 159.45 420.6 159.75 Q421.05 159.75 421.4 159.45 L421.65 158.85 421.65 158.7 421.4 157.95 420.6 157.7 419.9 157.95 419.75 158.15 419.55 158.7 419.55 158.85 419.75 159.3 M432.9 171.25 L432.85 171.25 Q429.85 169.7 426.45 170.1 422.75 171.35 419.75 173.75 416.3 176.55 413.85 180.8 L413.55 171.2 Q416.6 168.45 419.75 166.4 425.05 162.9 430.55 161.2 L432.9 171.25 M415.0 162.55 Q415.1 162.95 415.35 163.15 L416.05 163.45 416.85 163.15 417.1 162.55 417.1 162.4 416.85 161.65 416.05 161.4 Q415.6 161.4 415.35 161.65 415.0 161.95 415.0 162.4 L415.0 162.55 M416.95 172.35 Q417.25 172.7 417.7 172.7 418.15 172.7 418.45 172.35 L418.75 171.8 418.75 171.65 418.45 170.85 417.7 170.6 Q417.25 170.6 416.95 170.85 416.65 171.2 416.65 171.65 L416.65 171.8 416.95 172.35 M423.55 168.35 L423.3 167.55 422.5 167.3 Q422.05 167.3 421.8 167.55 421.45 167.9 421.45 168.35 L421.45 168.45 Q421.5 168.85 421.8 169.05 422.05 169.4 422.5 169.4 L423.3 169.05 423.55 168.45 423.55 168.35" fill="#000000" fill-rule="evenodd" stroke="none"/>
  </g>
</svg>
