<?xml version="1.0" encoding="UTF-8" standalone="no"?>
<svg xmlns:xlink="http://www.w3.org/1999/xlink" height="69.05px" width="50.4px" xmlns="http://www.w3.org/2000/svg">
  <g transform="matrix(1.0, 0.0, 0.0, 1.0, -374.65, -105.85)">
    <path d="M388.45 120.65 Q388.1 121.1 388.1 121.6 388.1 122.2 388.45 122.6 388.85 123.05 389.4 123.05 L390.25 122.6 Q390.65 122.2 390.65 121.6 390.65 121.1 390.25 120.65 L389.4 120.25 Q388.85 120.25 388.45 120.65 M392.2 115.45 Q391.9 115.8 391.9 116.4 391.9 117.0 392.2 117.4 L393.2 117.75 394.05 117.4 Q394.4 117.0 394.4 116.4 394.4 115.8 394.05 115.45 393.65 115.05 393.2 115.05 392.6 115.05 392.2 115.45 M390.2 110.5 Q389.8 110.1 389.3 110.1 388.75 110.1 388.4 110.5 388.0 110.95 388.0 111.55 388.0 112.05 388.4 112.45 388.75 112.9 389.3 112.9 389.8 112.9 390.2 112.45 390.6 112.05 390.6 111.55 390.6 110.95 390.2 110.5 M380.3 113.35 Q385.95 105.95 399.8 105.85 413.65 105.95 419.4 113.35 L419.3 113.4 Q414.75 120.65 413.4 130.55 L413.4 130.65 Q410.2 131.05 407.9 132.4 L407.55 132.5 Q405.6 133.8 404.9 135.5 404.0 138.55 406.3 140.45 410.2 142.65 414.2 141.9 419.7 139.75 418.35 135.0 416.7 130.85 413.7 130.55 415.0 120.8 419.55 113.65 L424.5 124.4 Q426.8 146.3 419.2 163.55 L409.35 172.9 Q406.05 174.85 399.8 174.9 393.6 174.85 390.25 172.9 L380.45 163.55 Q372.85 146.3 375.2 124.4 L380.1 113.65 Q384.6 120.8 385.95 130.55 383.0 130.85 381.35 135.0 380.0 139.75 385.5 141.9 389.4 142.65 393.3 140.45 395.65 138.55 394.75 135.5 394.1 133.8 392.1 132.5 L391.8 132.4 Q389.5 131.05 386.3 130.65 L386.3 130.55 Q384.85 120.65 380.3 113.4 L380.3 113.35 M396.45 125.5 Q396.05 125.1 395.55 125.1 395.0 125.1 394.6 125.5 394.25 125.95 394.25 126.55 394.25 127.05 394.6 127.5 395.0 127.9 395.55 127.9 396.05 127.9 396.45 127.5 396.85 127.05 396.85 126.55 396.85 125.95 396.45 125.5 M378.75 146.0 L378.05 145.5 Q377.65 145.5 377.35 146.0 377.05 146.35 377.05 146.95 377.05 147.55 377.35 147.95 377.65 148.3 378.05 148.3 378.45 148.3 378.75 147.95 L379.0 146.95 378.75 146.0 M378.0 128.7 L378.25 127.7 378.0 126.75 Q377.65 126.35 377.25 126.35 376.85 126.35 376.55 126.75 376.3 127.15 376.3 127.7 376.3 128.3 376.55 128.7 L377.25 129.1 Q377.65 129.1 378.0 128.7 M379.6 120.25 Q379.2 120.25 378.95 120.65 L378.7 121.6 Q378.7 122.2 378.95 122.6 L379.6 123.05 380.3 122.6 Q380.65 122.2 380.65 121.6 L380.3 120.65 Q380.05 120.25 379.6 120.25 M404.1 127.9 Q404.7 127.9 405.0 127.5 405.4 127.05 405.4 126.55 405.4 125.95 405.0 125.5 404.7 125.1 404.1 125.1 403.6 125.1 403.2 125.5 402.85 125.95 402.85 126.55 402.85 127.05 403.2 127.5 403.6 127.9 404.1 127.9 M403.4 152.2 Q403.05 152.65 403.05 153.25 403.05 153.8 403.4 154.25 403.8 154.6 404.3 154.6 404.9 154.6 405.2 154.25 405.6 153.8 405.6 153.25 405.6 152.65 405.2 152.2 404.9 151.85 404.3 151.85 403.8 151.85 403.4 152.2 M401.1 166.7 Q401.1 166.15 400.75 165.75 400.35 165.35 399.8 165.35 399.3 165.35 398.9 165.75 398.5 166.15 398.5 166.7 398.5 167.3 398.9 167.7 399.3 168.1 399.8 168.1 400.35 168.1 400.75 167.7 401.1 167.3 401.1 166.7 M393.45 168.85 Q392.95 168.85 392.55 169.25 392.15 169.65 392.15 170.2 392.15 170.8 392.55 171.2 392.95 171.6 393.45 171.6 393.95 171.6 394.35 171.2 394.75 170.8 394.75 170.2 394.75 169.65 394.35 169.25 393.95 168.85 393.45 168.85 M385.25 162.55 L385.5 161.6 385.25 160.6 Q384.95 160.2 384.55 160.2 384.15 160.2 383.85 160.6 383.55 161.0 383.55 161.6 383.55 162.15 383.85 162.55 384.15 162.95 384.55 162.95 L385.25 162.55 M392.85 162.05 Q392.85 162.6 393.25 163.0 393.65 163.4 394.15 163.4 394.7 163.4 395.05 163.0 395.45 162.6 395.45 162.05 395.45 161.45 395.05 161.05 394.7 160.65 394.15 160.65 393.65 160.65 393.25 161.05 392.85 161.45 392.85 162.05 M388.1 155.8 Q387.85 155.4 387.4 155.4 387.0 155.4 386.7 155.8 386.45 156.2 386.45 156.75 386.45 157.35 386.7 157.75 387.0 158.15 387.4 158.15 387.85 158.15 388.1 157.75 L388.4 156.75 388.1 155.8 M398.9 156.75 Q398.5 157.2 398.5 157.75 398.5 158.35 398.9 158.7 399.3 159.15 399.8 159.15 L400.75 158.7 401.1 157.75 Q401.1 157.2 400.75 156.75 400.35 156.4 399.8 156.4 399.3 156.4 398.9 156.75 M395.35 154.6 Q395.85 154.6 396.25 154.25 396.65 153.8 396.65 153.25 396.65 152.65 396.25 152.2 395.85 151.85 395.35 151.85 394.8 151.85 394.4 152.2 394.05 152.65 394.05 153.25 394.05 153.8 394.4 154.25 394.8 154.6 395.35 154.6 M404.55 163.0 Q404.95 163.4 405.45 163.4 406.0 163.4 406.4 163.0 L406.75 162.05 406.4 161.05 Q406.0 160.65 405.45 160.65 404.95 160.65 404.55 161.05 404.25 161.45 404.25 162.05 404.25 162.6 404.55 163.0 M381.75 154.55 L382.05 153.6 381.75 152.6 Q381.5 152.2 381.1 152.2 380.65 152.2 380.4 152.6 380.05 153.0 380.05 153.6 380.05 154.15 380.4 154.55 L381.1 154.95 381.75 154.55 M410.35 110.1 Q409.85 110.1 409.45 110.5 409.1 110.95 409.1 111.55 409.1 112.05 409.45 112.45 409.85 112.9 410.35 112.9 410.95 112.9 411.25 112.45 411.65 112.05 411.65 111.55 411.65 110.95 411.25 110.5 410.95 110.1 410.35 110.1 M405.6 117.4 Q406.0 117.75 406.5 117.75 407.05 117.75 407.4 117.4 407.8 117.0 407.8 116.4 407.8 115.8 407.4 115.45 407.05 115.05 406.5 115.05 406.0 115.05 405.6 115.45 405.2 115.8 405.2 116.4 405.2 117.0 405.6 117.4 M409.0 121.6 Q409.0 122.2 409.35 122.6 409.75 123.05 410.3 123.05 410.8 123.05 411.2 122.6 411.6 122.2 411.6 121.6 411.6 121.1 411.2 120.65 410.8 120.25 410.3 120.25 409.75 120.25 409.35 120.65 409.0 121.1 409.0 121.6 M419.3 122.6 Q419.65 123.05 420.05 123.05 L420.75 122.6 421.0 121.6 420.75 120.65 Q420.4 120.25 420.05 120.25 419.65 120.25 419.3 120.65 419.05 121.1 419.05 121.6 419.05 122.2 419.3 122.6 M421.4 127.7 Q421.4 128.3 421.7 128.7 422.0 129.1 422.35 129.1 422.75 129.1 423.1 128.7 L423.35 127.7 423.1 126.75 Q422.75 126.35 422.35 126.35 422.0 126.35 421.7 126.75 421.4 127.15 421.4 127.7 M420.6 146.95 Q420.6 147.55 420.95 147.95 L421.6 148.3 Q422.05 148.3 422.3 147.95 L422.55 146.95 422.3 146.0 Q422.05 145.5 421.6 145.5 421.2 145.5 420.95 146.0 420.6 146.35 420.6 146.95 M418.6 154.95 Q419.0 154.95 419.25 154.55 L419.55 153.6 419.25 152.6 Q419.0 152.2 418.6 152.2 418.15 152.2 417.9 152.6 417.6 153.0 417.6 153.6 417.6 154.15 417.9 154.55 418.15 154.95 418.6 154.95 M412.95 155.8 Q412.6 155.4 412.25 155.4 411.85 155.4 411.5 155.8 411.25 156.2 411.25 156.75 411.25 157.35 411.5 157.75 411.85 158.15 412.25 158.15 412.6 158.15 412.95 157.75 L413.2 156.75 412.95 155.8 M414.35 160.6 Q414.1 161.0 414.1 161.6 414.1 162.15 414.35 162.55 414.7 162.95 415.1 162.95 415.5 162.95 415.8 162.55 L416.05 161.6 415.8 160.6 Q415.5 160.2 415.1 160.2 414.7 160.2 414.35 160.6 M406.25 168.85 Q405.65 168.85 405.35 169.25 404.95 169.65 404.95 170.2 404.95 170.8 405.35 171.2 405.65 171.6 406.25 171.6 406.75 171.6 407.15 171.2 407.5 170.8 407.5 170.2 407.5 169.65 407.15 169.25 406.75 168.85 406.25 168.85" fill="#000000" fill-rule="evenodd" stroke="none"/>
  </g>
</svg>
