<?xml version="1.0" encoding="UTF-8" standalone="no"?>
<svg xmlns:xlink="http://www.w3.org/1999/xlink" height="95.05px" width="84.6px" xmlns="http://www.w3.org/2000/svg">
  <g transform="matrix(1.0, 0.0, 0.0, 1.0, -357.45, -86.3)">
    <path d="M418.6 89.5 Q420.05 93.25 420.6 96.95 421.5 102.45 420.6 107.9 410.35 104.05 400.15 103.85 L399.9 103.85 Q390.25 104.05 380.5 107.5 L379.4 107.9 Q378.15 100.15 380.5 92.35 L381.5 89.5 Q389.4 87.0 400.0 86.3 410.65 87.0 418.6 89.5 M367.5 113.55 L364.0 113.5 Q360.55 113.3 361.25 118.6 L361.25 129.0 362.3 129.0 362.3 129.2 Q361.45 133.9 361.35 138.65 361.2 142.35 361.45 146.1 361.9 153.2 363.8 160.4 L364.6 163.35 Q372.05 171.05 380.3 174.95 389.35 179.2 399.35 178.8 L400.0 178.75 400.75 178.8 Q411.05 179.25 420.4 174.65 428.3 170.8 435.45 163.35 L436.3 160.4 437.6 154.3 439.05 153.95 439.45 155.6 Q439.0 158.0 439.4 160.4 438.6 166.3 433.05 172.25 L429.8 174.3 427.9 175.35 425.25 176.65 420.4 178.55 418.6 179.05 410.85 180.7 400.75 181.35 400.1 181.35 399.35 181.35 389.15 180.7 Q385.15 180.1 381.5 179.05 L380.3 178.75 Q374.9 177.05 370.25 174.3 L367.0 172.25 Q361.45 166.3 360.6 160.4 356.85 153.6 357.55 146.15 L360.45 146.15 360.25 145.5 Q361.1 141.8 361.25 138.65 361.65 133.35 360.3 129.25 L360.15 129.0 359.9 128.25 358.0 128.25 358.0 124.55 358.3 119.4 Q358.6 115.75 359.3 112.25 L359.5 111.25 360.15 108.75 Q361.2 105.35 363.1 102.45 367.75 95.0 377.6 90.9 374.35 98.7 375.5 109.5 371.5 111.25 367.5 113.55 M436.0 113.5 L432.55 113.55 Q428.55 111.25 424.5 109.5 425.75 98.7 422.5 90.9 432.3 95.0 437.0 102.45 438.8 105.35 439.9 108.75 L440.55 111.25 440.75 112.25 441.8 119.4 442.05 124.55 442.05 128.25 440.2 128.25 439.85 129.0 439.8 129.25 Q438.7 132.5 438.7 136.5 438.7 140.65 439.8 145.5 L439.6 146.15 440.1 146.15 Q439.7 146.8 439.55 147.6 L439.45 149.5 438.25 149.9 438.5 147.55 438.6 146.1 Q438.95 141.3 438.6 136.5 438.35 132.8 437.75 129.15 L437.7 129.0 438.8 129.0 438.8 118.6 Q439.55 113.3 436.0 113.5" fill="#000000" fill-rule="evenodd" stroke="none"/>
  </g>
</svg>
