<?xml version="1.0" encoding="UTF-8" standalone="no"?>
<svg xmlns:xlink="http://www.w3.org/1999/xlink" height="28.95px" width="27.95px" xmlns="http://www.w3.org/2000/svg">
  <g transform="matrix(1.0, 0.0, 0.0, 1.0, -385.8, -237.75)">
    <path d="M402.1 245.85 Q402.1 244.8 401.4 244.15 400.65 243.55 399.3 243.55 397.95 243.55 397.1 244.2 396.25 244.9 395.9 247.05 L386.75 245.75 Q387.85 241.95 390.95 240.1 394.0 238.25 399.5 238.25 405.85 238.25 408.75 240.3 411.65 242.3 411.65 245.4 411.65 247.2 410.5 248.65 409.25 250.1 407.2 250.8 408.75 250.9 409.75 251.45 411.45 252.3 412.35 253.7 413.25 255.2 413.25 257.1 413.25 259.45 411.8 261.65 410.25 263.85 407.4 265.05 404.65 266.2 400.1 266.2 395.7 266.2 393.1 265.35 390.55 264.5 388.9 262.8 387.2 261.15 386.3 258.15 L395.9 257.1 Q396.45 259.55 397.45 260.3 398.4 261.05 399.85 261.05 401.45 261.05 402.5 260.1 403.55 259.15 403.55 257.5 403.55 255.75 402.55 254.9 401.55 253.95 399.75 253.95 L396.55 254.4 397.0 248.45 398.55 248.55 Q400.1 248.55 401.1 247.7 402.1 246.9 402.1 245.85 Z" fill="none" stroke="#000000" stroke-linecap="round" stroke-linejoin="round" stroke-opacity="0.5019608" stroke-width="1.0"/>
  </g>
</svg>
