<?xml version="1.0" encoding="UTF-8" standalone="no"?>
<svg xmlns:xlink="http://www.w3.org/1999/xlink" height="27.45px" width="26.3px" xmlns="http://www.w3.org/2000/svg">
  <g transform="matrix(1.0, 0.0, 0.0, 1.0, -385.5, -238.75)">
    <path d="M410.8 260.4 Q409.8 262.85 406.8 264.5 403.8 266.2 399.1 266.2 394.2 266.2 391.45 265.1 388.75 264.0 387.25 261.85 385.75 259.7 385.5 256.2 L395.7 255.1 Q395.75 257.1 396.05 257.95 396.35 258.7 397.05 259.1 L398.4 259.35 Q399.75 259.35 400.45 258.5 401.1 257.6 401.1 255.3 L401.1 238.75 411.8 238.75 411.8 253.4 Q411.8 258.0 410.8 260.4" fill="#000000" fill-rule="evenodd" stroke="none"/>
  </g>
</svg>
