<?xml version="1.0" encoding="UTF-8" standalone="no"?>
<svg xmlns:xlink="http://www.w3.org/1999/xlink" height="31.0px" width="35.45px" xmlns="http://www.w3.org/2000/svg">
  <g transform="matrix(1.0, 0.0, 0.0, 1.0, -382.2, -237.85)">
    <path d="M403.1 238.9 L403.1 238.35 417.15 238.35 417.15 238.9 415.1 239.25 413.7 240.15 Q413.05 240.9 412.8 241.95 412.55 243.05 412.55 245.3 L412.55 261.5 Q412.55 263.7 412.8 264.75 413.05 265.85 413.7 266.55 414.35 267.2 415.1 267.5 L417.15 267.9 417.15 268.35 403.1 268.35 403.1 267.9 405.15 267.5 406.55 266.55 Q407.25 265.9 407.5 264.8 L407.75 261.5 407.75 245.3 407.5 241.95 Q407.25 240.9 406.55 240.15 405.95 239.55 405.15 239.25 L403.1 238.9 M405.3 249.65 L394.55 249.65 394.55 256.4 405.3 256.4 405.3 249.65 M382.7 238.9 L382.7 238.35 396.75 238.35 396.75 238.9 394.75 239.25 Q393.9 239.55 393.35 240.15 392.65 240.9 392.4 241.95 392.1 243.05 392.1 245.3 L392.1 261.5 Q392.1 263.7 392.4 264.8 392.65 265.9 393.35 266.55 393.9 267.2 394.75 267.5 L396.75 267.9 396.75 268.35 382.7 268.35 382.7 267.9 384.8 267.5 386.15 266.55 Q386.85 265.9 387.1 264.8 L387.3 261.5 387.3 245.3 387.1 241.95 Q386.85 240.9 386.15 240.15 L384.75 239.25 382.7 238.9" fill="none" stroke="#000000" stroke-linecap="round" stroke-linejoin="round" stroke-opacity="0.5019608" stroke-width="1.0"/>
  </g>
</svg>
