<?xml version="1.0" encoding="UTF-8" standalone="no"?>
<svg xmlns:xlink="http://www.w3.org/1999/xlink" height="27.45px" width="26.05px" xmlns="http://www.w3.org/2000/svg">
  <g transform="matrix(1.0, 0.0, 0.0, 1.0, -386.3, -238.75)">
    <path d="M412.35 265.75 L403.25 265.75 403.25 262.95 Q402.3 264.7 401.05 265.15 398.8 266.2 396.35 266.2 391.4 266.2 388.9 263.1 386.3 260.05 386.3 255.7 386.3 250.8 389.15 248.15 392.0 245.55 396.4 245.55 398.5 245.55 400.25 246.15 402.0 246.75 402.6 247.8 L402.6 238.75 412.35 238.75 412.35 265.75 M396.9 252.6 Q396.0 253.6 396.0 256.0 396.0 258.2 396.95 259.2 397.9 260.15 399.2 260.15 400.65 260.15 401.65 259.15 402.65 258.2 402.65 255.85 402.65 253.7 401.6 252.7 400.65 251.7 399.1 251.7 397.8 251.7 396.9 252.6" fill="#000000" fill-rule="evenodd" stroke="none"/>
  </g>
</svg>
