<?xml version="1.0" encoding="UTF-8" standalone="no"?>
<svg xmlns:xlink="http://www.w3.org/1999/xlink" height="52.85px" width="53.4px" xmlns="http://www.w3.org/2000/svg">
  <g transform="matrix(1.0, 0.0, 0.0, 1.0, -374.25, -229.6)">
    <path d="M425.85 248.7 L426.4 248.55 427.3 248.55 Q427.65 248.7 427.65 249.2 L427.35 250.35 426.3 251.1 425.6 251.35 424.95 251.7 424.45 252.0 424.05 252.35 423.6 252.6 423.1 253.05 422.3 253.9 421.2 254.5 Q420.8 254.7 420.55 254.85 L420.45 254.85 420.2 254.85 420.3 255.05 420.3 255.15 420.2 256.25 420.3 257.9 420.35 259.6 420.1 262.95 Q419.85 264.85 419.9 266.8 L419.5 267.6 419.1 268.25 Q419.1 269.5 418.7 270.1 L417.85 271.35 416.3 273.3 416.4 273.4 416.4 273.6 416.5 275.3 416.55 276.3 416.65 277.3 417.5 279.0 417.75 280.7 417.75 281.75 Q417.65 282.45 417.25 282.45 416.4 282.45 415.7 281.25 L415.0 280.55 414.35 279.9 413.95 278.75 413.6 277.75 413.1 277.55 412.6 277.3 412.45 276.9 412.2 276.65 Q411.45 276.75 410.5 277.55 409.35 278.45 408.5 278.8 406.65 279.6 406.1 279.6 L403.7 279.6 401.5 279.55 399.25 279.45 396.4 279.1 393.55 278.65 392.55 278.2 Q391.85 277.75 391.6 277.65 L389.8 276.6 389.1 278.2 388.55 279.6 Q387.8 282.4 386.9 282.4 L385.9 282.05 Q385.5 281.6 385.5 280.7 385.5 279.9 385.8 278.75 L386.2 277.0 386.15 276.0 386.2 275.15 385.5 274.65 384.9 274.1 383.95 273.0 383.3 272.55 382.6 271.6 382.05 270.65 381.3 269.85 380.75 269.3 380.75 269.25 380.7 269.05 380.45 269.25 380.4 269.3 379.95 269.5 379.5 269.75 378.05 270.15 376.75 270.6 375.55 270.8 Q374.25 270.8 374.25 269.45 374.25 268.8 374.45 268.75 L375.2 268.3 Q375.45 268.1 376.15 267.9 L376.85 267.75 377.7 266.95 378.25 266.35 379.35 265.8 380.15 265.15 380.2 265.15 380.15 264.85 379.85 262.5 Q379.6 261.8 379.6 260.9 L379.65 260.15 379.95 259.35 380.25 258.65 380.35 257.75 380.9 256.05 381.7 254.25 382.5 252.6 383.5 251.1 384.5 249.45 385.1 248.7 385.55 248.0 386.1 247.4 386.7 247.05 388.3 245.85 388.5 245.4 388.55 245.0 388.9 244.75 389.15 244.6 389.65 244.05 Q389.95 243.7 390.15 243.6 L390.95 243.35 391.8 243.3 392.65 243.05 393.45 242.7 395.05 242.2 Q395.9 241.9 396.35 241.5 L396.8 240.85 397.1 240.2 397.6 239.55 397.95 238.8 398.0 237.9 398.2 236.85 398.55 235.9 398.8 235.15 398.7 233.6 398.8 232.8 399.1 231.2 399.5 230.1 Q399.65 229.9 400.05 229.6 400.3 229.5 400.5 229.9 L400.65 230.5 401.2 231.95 401.45 233.65 Q401.5 234.5 401.7 235.05 L402.05 235.8 402.35 236.5 402.8 238.15 402.9 239.0 403.05 239.25 403.2 239.55 403.35 240.35 Q403.35 240.9 403.6 241.1 L404.4 241.2 405.1 241.1 406.8 241.5 Q408.25 242.1 408.85 242.55 L410.1 243.15 411.0 243.6 412.1 244.15 413.0 244.75 413.7 245.55 414.5 246.55 415.5 247.2 416.35 247.95 418.0 249.85 418.65 250.05 418.7 250.3 418.95 250.25 419.15 250.15 419.95 250.15 421.65 249.85 423.4 249.25 424.15 249.1 425.2 249.0 425.85 248.7 M405.2 247.1 L405.15 247.3 406.0 249.3 406.9 251.1 407.5 253.05 407.9 253.9 407.9 253.95 408.05 254.15 408.1 254.1 408.25 254.2 Q408.7 254.2 410.85 253.1 L412.0 252.9 412.8 252.55 412.9 252.55 412.75 252.3 411.0 250.65 409.4 249.2 408.3 248.65 407.2 248.1 406.15 247.4 405.5 246.9 Q405.3 246.9 405.2 247.1 M416.0 256.65 L415.85 256.4 415.8 256.45 415.05 256.6 414.95 256.6 414.9 256.65 414.9 256.7 413.7 257.1 412.25 257.75 411.1 258.25 410.0 258.65 409.9 258.6 409.85 258.6 410.45 260.0 411.1 261.35 411.7 262.75 411.8 263.9 Q411.85 264.5 412.25 265.45 L412.65 266.55 Q412.75 267.1 413.15 267.7 413.65 268.4 414.0 268.4 L414.45 268.0 414.5 267.45 414.5 266.9 414.75 266.3 415.3 265.15 415.7 263.7 415.8 260.45 416.25 258.75 416.35 257.75 416.3 257.05 416.0 256.65 M405.2 260.5 L405.15 260.3 405.05 260.35 404.85 260.45 402.9 260.85 400.65 261.65 398.6 262.0 396.65 262.5 395.7 263.05 395.65 263.05 395.55 263.05 395.1 263.35 394.85 263.45 394.8 263.75 394.8 263.8 Q394.3 264.35 393.4 266.55 L392.65 267.95 Q392.3 268.75 392.35 269.25 392.55 270.15 392.2 270.7 L391.85 271.6 Q391.85 272.55 393.45 273.35 394.7 274.05 396.6 274.45 L398.2 274.95 399.9 275.25 403.65 275.3 405.5 275.1 407.5 273.95 Q408.2 273.65 409.25 273.3 410.05 272.95 410.05 272.2 410.05 271.45 409.65 270.55 L409.05 269.25 408.3 267.85 407.6 266.0 406.65 262.75 406.05 261.5 405.2 260.5 M392.2 249.35 L391.2 250.1 389.25 251.9 387.95 253.35 Q387.2 253.95 386.8 255.3 386.3 256.9 385.6 257.75 385.0 258.5 384.95 260.25 L385.0 262.25 385.05 262.65 385.1 262.6 Q385.25 262.5 385.5 262.35 L385.6 262.3 385.55 262.2 385.55 262.15 386.05 261.8 386.95 261.25 Q387.65 261.2 389.0 260.35 L390.05 259.9 390.7 259.9 391.25 259.7 391.7 258.45 391.95 257.4 Q391.8 256.75 392.1 256.1 L392.6 255.0 392.95 253.85 393.35 252.5 393.85 251.0 394.35 249.65 394.8 248.4 395.0 247.45 394.2 248.0 393.1 248.55 392.2 249.35 M398.6 250.1 L398.55 251.45 Q398.4 252.6 397.25 254.4 396.3 255.95 395.95 258.3 L395.9 258.65 395.95 258.6 Q396.2 258.45 396.5 258.45 L396.55 258.45 396.6 258.35 396.6 258.3 396.85 258.2 398.0 257.95 399.1 257.75 400.15 257.55 Q401.4 256.65 402.1 256.6 L403.4 256.5 403.9 256.2 403.95 256.25 404.05 256.25 404.25 256.2 404.2 255.95 404.05 256.0 404.1 255.7 403.8 254.6 403.15 253.35 402.75 252.1 402.1 251.1 Q401.75 250.7 401.7 249.9 L401.55 248.55 401.05 247.9 400.45 247.1 400.4 246.4 400.1 246.0 399.65 247.15 399.25 248.25 Q398.75 249.25 398.6 250.1 M385.8 267.0 L385.7 267.0 385.6 267.0 385.6 267.4 Q385.6 268.2 386.3 269.05 386.9 269.85 387.35 269.85 387.6 269.85 387.75 268.45 388.0 266.9 388.2 266.35 L388.25 266.3 388.3 266.25 388.5 265.95 388.65 265.65 388.45 265.75 Q388.1 265.9 388.05 266.2 L388.05 266.25 387.55 266.4 386.7 266.75 386.15 266.85 385.8 267.0" fill="#000000" fill-rule="evenodd" stroke="none"/>
  </g>
</svg>
