<?xml version="1.0" encoding="UTF-8" standalone="no"?>
<svg xmlns:xlink="http://www.w3.org/1999/xlink" height="6.7px" width="34.6px" xmlns="http://www.w3.org/2000/svg">
  <g transform="matrix(1.0, 0.0, 0.0, 1.0, -382.55, -177.2)">
    <path d="M402.2 181.35 L403.95 181.8 405.4 179.15 406.9 179.85 Q408.6 179.1 409.6 177.6 411.0 177.95 411.4 179.3 413.15 178.55 413.7 177.2 414.7 178.15 415.1 179.7 L417.0 177.95 Q417.75 181.05 415.25 183.45 408.9 180.05 403.75 183.9 402.35 182.9 402.2 181.35 M382.7 177.95 L384.6 179.7 Q385.0 178.15 386.0 177.2 386.55 178.55 388.3 179.3 388.7 177.95 390.1 177.6 391.1 179.1 392.8 179.85 L394.3 179.15 395.75 181.8 397.5 181.35 Q397.35 182.9 395.95 183.9 390.8 180.05 384.45 183.45 381.95 181.05 382.7 177.95" fill="#000000" fill-rule="evenodd" stroke="none"/>
  </g>
</svg>
