<?xml version="1.0" encoding="UTF-8" standalone="no"?>
<svg xmlns:xlink="http://www.w3.org/1999/xlink" height="8.95px" width="31.8px" xmlns="http://www.w3.org/2000/svg">
  <g transform="matrix(1.0, 0.0, 0.0, 1.0, -383.95, -175.1)">
    <path d="M395.15 183.25 L394.75 182.7 394.65 182.6 Q389.5 177.65 387.1 178.25 L384.45 179.9 387.05 175.6 Q391.2 176.55 395.2 180.7 396.1 182.1 397.6 181.1 396.95 183.15 396.25 183.45 395.5 183.7 395.15 183.25 M403.45 183.45 Q404.2 183.7 404.55 183.25 L404.95 182.7 405.05 182.6 Q410.2 177.65 412.6 178.25 L415.25 179.9 412.65 175.6 Q408.5 176.55 404.5 180.7 403.6 182.1 402.1 181.1 402.75 183.15 403.45 183.45" fill="none" stroke="#000000" stroke-linecap="round" stroke-linejoin="round" stroke-opacity="0.5019608" stroke-width="1.0"/>
  </g>
</svg>
