<?xml version="1.0" encoding="UTF-8" standalone="no"?>
<svg xmlns:xlink="http://www.w3.org/1999/xlink" height="78.0px" width="65.1px" xmlns="http://www.w3.org/2000/svg">
  <g transform="matrix(1.0, 0.0, 0.0, 1.0, -366.75, -231.8)">
    <path d="M403.0 266.25 Q418.65 253.3 431.35 237.6 L418.3 232.3 407.8 243.0 Q391.7 258.2 371.05 271.45 L370.2 272.0 M421.6 290.15 L423.35 285.1 Q427.25 281.75 429.95 276.95 L417.6 279.8 409.6 281.5 402.25 279.9 389.4 276.7 Q396.45 271.7 403.0 266.25 M377.65 288.25 Q378.95 292.2 379.65 296.15 L379.75 296.65 Q380.35 300.55 380.35 304.45 L380.2 308.1 384.1 308.1 388.95 308.1 Q401.55 310.25 414.7 308.5 416.0 308.3 419.65 308.5 418.8 299.45 421.6 290.15 M368.1 273.35 Q369.8 277.45 372.3 280.7 L372.55 281.0 376.45 285.1 377.65 288.25 M368.1 273.35 L367.25 271.25 370.2 272.0 M368.05 273.35 Q369.9 277.65 372.55 281.0" fill="none" stroke="#000000" stroke-linecap="round" stroke-linejoin="round" stroke-width="1.0"/>
    <path d="M371.05 271.45 L371.4 271.75 372.0 272.35 372.7 272.95 Q376.3 275.4 379.5 276.0 L381.85 276.15 385.25 276.0 Q389.75 275.15 393.15 271.75 396.85 268.15 397.5 263.25 M417.6 279.8 L416.7 281.55 414.6 284.45 Q409.65 290.0 399.25 293.25 407.3 292.95 415.2 291.45 L421.6 290.15 M409.6 281.5 L383.0 287.05 382.9 287.05 377.65 288.25 M379.75 296.65 L391.8 294.5 399.25 293.25 M403.0 266.25 Q402.5 264.8 402.3 263.25 M370.2 272.0 L368.1 273.35 368.05 273.35 M376.45 285.1 L389.4 276.7 M372.7 272.95 Q376.75 276.25 382.25 276.25 L385.25 276.0 M388.95 308.1 Q396.7 305.95 400.25 303.3 391.75 302.15 384.1 303.55 L380.35 304.45 M391.8 294.5 Q396.85 300.6 408.1 303.0 L414.9 302.25 419.1 302.1 M400.25 303.3 L408.1 303.0" fill="none" stroke="#000000" stroke-linecap="round" stroke-linejoin="round" stroke-opacity="0.5019608" stroke-width="1.0"/>
  </g>
</svg>
