<?xml version="1.0" encoding="UTF-8" standalone="no"?>
<svg xmlns:xlink="http://www.w3.org/1999/xlink" height="137.8px" width="139.8px" xmlns="http://www.w3.org/2000/svg">
  <g transform="matrix(1.0, 0.0, 0.0, 1.0, -330.0, -225.8)">
    <path d="M423.45 234.4 L423.3 234.2 Q422.3 232.7 420.95 231.9 L413.9 226.35 411.3 226.35 411.3 226.3 411.65 228.4 411.9 229.7 412.0 229.75 Q412.45 233.6 411.95 239.15 410.55 244.75 408.4 250.4 M423.45 234.4 L428.6 236.5 428.55 236.4 432.65 235.5 444.65 240.4 445.15 243.15 Q449.3 251.55 450.15 261.5 457.75 277.95 461.7 296.0 467.95 303.55 468.5 313.55 470.6 340.4 467.25 363.1 L464.1 362.8 Q460.15 362.2 456.95 360.9 454.5 359.9 452.5 358.55 L449.6 356.1 Q450.9 335.75 444.65 312.3 L444.6 312.15 Q445.6 305.05 447.85 299.25 L447.85 299.2 447.4 298.45 432.55 271.25 Q429.4 279.95 423.35 285.1 420.95 291.0 420.05 296.8 L419.5 301.8 Q419.35 305.15 419.65 308.5 L423.15 312.55 425.8 316.35 Q419.6 319.55 413.05 320.9 407.2 322.65 401.1 322.75 L397.6 322.7 Q392.3 322.4 386.8 320.9 380.2 319.55 374.0 316.35 L376.7 312.55 380.15 308.5 380.3 301.8 379.8 296.8 Q378.85 291.0 376.45 285.1 370.4 279.95 367.25 271.25 L352.4 298.45 351.95 299.2 351.95 299.25 Q354.2 305.05 355.2 312.15 L355.15 312.3 Q348.9 335.75 350.2 356.1 L347.3 358.55 Q345.25 359.9 342.9 360.9 339.65 362.2 335.7 362.8 L332.55 363.1 Q329.2 340.4 331.3 313.55 331.85 303.55 338.1 296.0 342.05 277.95 349.65 261.5 350.5 251.55 354.65 243.15 L355.15 240.4 367.15 235.5 371.25 236.4 371.2 236.5 376.3 234.45 376.45 234.15 Q377.5 232.7 378.8 231.9 L385.85 226.35 388.55 226.35 388.15 228.4 387.9 229.7 387.75 229.75 Q387.3 233.6 387.8 239.15 389.2 244.75 391.35 250.4 393.6 256.2 396.65 262.1 L399.9 269.1 403.1 262.1 Q406.15 256.2 408.4 250.4" fill="none" stroke="#000000" stroke-linecap="round" stroke-linejoin="round" stroke-width="1.0"/>
    <path d="M408.4 250.4 L413.75 251.35 424.7 254.15 Q428.7 254.9 428.0 252.35 L425.95 241.2 Q425.1 236.9 423.45 234.4 M408.4 250.4 Q415.0 254.75 423.6 259.15 425.55 260.6 422.75 262.45 416.3 268.5 409.1 273.75 412.8 276.25 417.55 276.25 423.95 276.25 428.4 271.75 430.05 270.2 431.1 268.4 L431.05 268.35 Q432.2 266.35 432.6 264.1 L432.7 263.75 432.85 261.45 432.85 261.2 432.85 260.55 Q432.8 258.7 432.35 257.0 431.45 253.95 429.25 251.4 M433.45 237.05 Q433.05 236.7 432.55 236.7 432.05 236.7 431.7 237.05 L431.35 237.6 431.3 237.95 Q431.3 238.45 431.7 238.8 432.05 239.2 432.55 239.2 433.05 239.2 433.45 238.8 L433.7 238.55 433.8 237.95 Q433.8 237.45 433.45 237.05 M432.35 257.0 L443.3 245.15 430.6 239.8 428.6 236.5 M445.15 243.15 L443.3 245.15 M431.1 268.4 L432.55 271.25 M424.3 251.8 L425.2 251.4 425.55 250.55 Q425.55 250.05 425.2 249.65 424.8 249.3 424.3 249.3 423.8 249.3 423.45 249.65 423.05 250.05 423.05 250.55 423.05 251.05 423.45 251.4 423.8 251.8 424.3 251.8 M420.75 260.9 L420.4 260.0 Q420.0 259.65 419.5 259.65 419.0 259.65 418.65 260.0 418.25 260.4 418.25 260.9 418.25 261.4 418.65 261.75 419.0 262.15 419.5 262.15 420.0 262.15 420.4 261.75 420.75 261.4 420.75 260.9 M397.6 322.7 L408.05 285.2 406.7 283.8 399.9 279.9 396.0 277.45 390.7 273.8 Q387.0 276.25 382.25 276.25 375.85 276.25 371.4 271.75 369.8 270.2 368.7 268.4 L367.25 271.25 M401.1 322.75 L409.4 286.6 408.05 285.2 M368.5 237.95 Q368.5 238.45 368.1 238.8 367.75 239.2 367.25 239.2 366.75 239.2 366.35 238.8 L366.15 238.55 366.0 237.95 Q366.0 237.45 366.35 237.05 366.75 236.7 367.25 236.7 367.75 236.7 368.1 237.05 L368.45 237.6 368.5 237.95 M371.2 236.5 L369.2 239.8 356.5 245.15 367.5 257.0 Q368.35 253.95 370.55 251.4 M390.7 273.8 Q383.45 268.5 377.0 262.45 374.2 260.6 376.15 259.15 384.75 254.75 391.35 250.4 L386.0 251.35 375.05 254.15 Q371.05 254.9 371.75 252.35 L373.8 241.2 Q374.65 236.9 376.3 234.45 M356.5 245.15 L354.65 243.15 M376.35 249.65 Q376.75 250.05 376.75 250.55 376.75 251.05 376.35 251.4 376.0 251.8 375.5 251.8 375.0 251.8 374.6 251.4 374.25 251.05 374.25 250.55 374.25 250.05 374.6 249.65 375.0 249.3 375.5 249.3 376.0 249.3 376.35 249.65 M368.7 268.4 L368.75 268.35 Q367.6 266.35 367.2 264.1 L367.1 263.75 366.95 261.45 366.95 261.2 366.95 260.55 Q367.0 258.7 367.5 257.0 M381.55 260.9 Q381.55 261.4 381.15 261.75 380.8 262.15 380.3 262.15 379.8 262.15 379.4 261.75 379.05 261.4 379.05 260.9 379.05 260.4 379.4 260.0 379.8 259.65 380.3 259.65 380.8 259.65 381.15 260.0 381.55 260.4 381.55 260.9 M406.7 283.8 L403.75 277.45 399.9 269.1 M380.3 301.8 L384.9 303.45 384.9 298.3 379.8 296.8 M376.7 312.55 Q380.1 315.15 385.35 316.1 L387.75 316.4 386.8 320.9 M420.05 296.8 L414.9 298.3 414.9 303.45 419.5 301.8 M423.15 312.55 Q419.7 315.15 414.45 316.1 L412.05 316.4 413.05 320.9 M409.1 273.75 L403.75 277.45" fill="none" stroke="#000000" stroke-linecap="round" stroke-linejoin="round" stroke-opacity="0.5019608" stroke-width="1.0"/>
  </g>
</svg>
