<?xml version="1.0" encoding="UTF-8" standalone="no"?>
<svg xmlns:xlink="http://www.w3.org/1999/xlink" height="136.5px" width="139.8px" xmlns="http://www.w3.org/2000/svg">
  <g transform="matrix(1.0, 0.0, 0.0, 1.0, -330.0, -227.1)">
    <path d="M425.95 282.5 L425.95 282.55 M421.45 233.6 L425.85 250.65 419.2 255.05 423.95 259.15 Q421.45 267.8 418.15 276.25 424.1 276.05 428.35 271.75 430.0 270.2 431.05 268.4 432.15 266.4 432.55 264.1 L432.65 263.75 432.8 261.45 432.8 261.0 432.8 260.55 Q432.75 258.7 432.3 257.0 431.4 253.95 429.2 251.4 M432.5 271.25 L431.05 268.4 M418.15 276.25 Q414.35 285.85 409.55 295.2 M445.15 243.2 L432.3 257.0 M373.8 282.55 L373.75 282.5 M370.5 251.4 Q368.3 253.9 367.45 256.95 366.95 258.65 366.9 260.55 L366.9 261.0 366.9 261.45 Q366.9 262.6 367.05 263.75 L367.15 264.1 Q367.55 266.35 368.7 268.35 L368.65 268.4 Q369.75 270.2 371.35 271.75 375.6 276.0 381.6 276.25 378.25 267.8 375.75 259.15 L380.5 255.05 373.85 250.65 378.3 233.6 M368.65 268.4 L367.2 271.25 M390.15 295.2 Q385.35 285.85 381.6 276.25 M354.65 243.15 L367.45 256.95 M351.9 299.2 Q349.0 303.95 344.55 306.85 M447.8 299.2 Q450.7 303.95 455.15 306.85" fill="none" stroke="#000000" stroke-linecap="round" stroke-linejoin="round" stroke-opacity="0.5019608" stroke-width="1.0"/>
    <path d="M425.95 282.55 Q421.1 294.85 419.6 308.5 418.95 301.8 420.35 294.95 L408.45 297.95 409.55 295.2 Q412.25 285.15 413.85 275.85 417.1 257.3 416.15 241.8 415.8 236.15 414.9 230.95 L411.85 229.7 411.5 227.6 420.75 230.95 421.45 233.6 445.1 243.15 445.15 243.2 Q449.25 251.55 450.1 261.5 457.7 277.95 461.65 296.0 467.9 303.55 468.5 313.55 470.55 340.4 467.2 363.1 455.65 362.3 449.5 356.1 450.8 335.7 444.5 312.15 445.5 305.0 447.8 299.2 L447.35 298.45 432.5 271.25 Q430.1 277.9 425.95 282.5 M373.75 282.5 Q369.6 277.9 367.2 271.25 L352.35 298.45 351.9 299.2 Q354.2 305.0 355.2 312.15 348.9 335.7 350.2 356.1 344.05 362.3 332.55 363.1 329.2 340.4 331.3 313.55 331.85 303.55 338.1 296.0 342.0 277.95 349.6 261.5 350.45 251.55 354.6 243.15 L354.65 243.15 378.3 233.6 378.95 230.95 388.2 227.6 387.85 229.7 384.8 230.95 Q383.9 236.15 383.6 241.8 382.6 257.3 385.85 275.85 387.5 285.15 390.15 295.2 L391.25 297.95 379.4 294.95 Q380.75 301.8 380.1 308.5 378.6 294.85 373.8 282.55" fill="none" stroke="#000000" stroke-linecap="round" stroke-linejoin="round" stroke-width="1.0"/>
  </g>
</svg>
