<?xml version="1.0" encoding="UTF-8" standalone="no"?>
<svg xmlns:xlink="http://www.w3.org/1999/xlink" height="120.95px" width="139.8px" xmlns="http://www.w3.org/2000/svg">
  <g transform="matrix(1.0, 0.0, 0.0, 1.0, -330.0, -242.65)">
    <path d="M447.85 299.3 Q445.6 305.05 444.6 312.15 L444.65 312.3 Q450.9 335.75 449.6 356.1 L452.5 358.55 Q454.5 359.9 456.95 360.9 460.15 362.2 464.1 362.8 L467.25 363.1 Q470.6 340.4 468.5 313.55 467.95 303.55 461.7 296.0 457.75 277.95 450.15 261.5 449.3 251.55 445.15 243.15 L432.35 257.0 Q432.8 258.7 432.85 260.55 L432.85 261.2 432.85 261.45 432.7 263.75 432.6 264.1 Q432.2 266.35 431.05 268.35 L431.1 268.4 432.55 271.25 447.4 298.45 447.85 299.2 447.85 299.3 M351.95 299.25 Q354.2 305.05 355.2 312.15 L355.15 312.3 Q348.9 335.75 350.2 356.1 L347.3 358.55 Q345.25 359.9 342.9 360.9 339.65 362.2 335.7 362.8 L332.55 363.1 Q329.2 340.4 331.3 313.55 331.85 303.55 338.1 296.0 342.05 277.95 349.65 261.5 350.5 251.55 354.65 243.15 L367.5 257.0 Q367.0 258.7 366.95 260.55 L366.95 261.2 366.95 261.45 367.1 263.75 367.2 264.1 Q367.6 266.35 368.75 268.35 L367.25 271.25 352.4 298.45 351.95 299.2 351.95 299.25" fill="none" stroke="#000000" stroke-linecap="round" stroke-linejoin="round" stroke-width="1.0"/>
    <path d="M447.85 299.3 Q450.75 303.95 455.15 306.85 M351.95 299.25 Q349.0 303.95 344.55 306.85" fill="none" stroke="#000000" stroke-linecap="round" stroke-linejoin="round" stroke-opacity="0.5019608" stroke-width="1.0"/>
  </g>
</svg>
