<?xml version="1.0" encoding="UTF-8" standalone="no"?>
<svg xmlns:xlink="http://www.w3.org/1999/xlink" height="55.35px" width="113.0px" xmlns="http://www.w3.org/2000/svg">
  <g transform="matrix(1.0, 0.0, 0.0, 1.0, -343.4, -225.15)">
    <path d="M411.95 229.7 L445.2 243.15 Q451.75 254.9 454.95 266.95 L455.9 270.75 Q434.95 278.35 411.8 280.0 L410.9 275.75 Q408.85 266.45 406.8 258.8 L403.95 258.8 403.95 257.75 393.3 257.7 Q391.1 265.75 388.9 275.75 L388.0 280.0 Q364.85 278.35 343.9 270.75 L344.85 266.95 Q348.05 254.9 354.6 243.15 L387.85 229.7 388.6 225.65 Q394.35 227.25 399.9 227.25 405.45 227.25 411.2 225.65 L411.95 229.7 M403.95 250.85 L403.95 251.9 404.85 251.9 M398.75 240.7 L399.9 237.8 401.1 240.7 398.75 240.7 M402.3 244.0 L403.5 247.55 396.3 247.55 397.55 243.95 402.3 244.0 M403.95 254.45 L394.2 254.45 M403.95 250.85 L395.3 250.8 394.2 254.45 M403.95 254.45 L403.95 253.4 405.3 253.4 404.85 251.9" fill="none" stroke="#000000" stroke-linecap="round" stroke-linejoin="round" stroke-width="1.0"/>
    <path d="M411.95 229.7 Q408.4 231.1 404.8 231.75 L399.95 232.2 403.65 240.7 403.95 240.7 403.95 239.65 408.15 239.65 408.15 240.7 415.45 240.7 Q415.9 240.4 416.55 240.4 417.45 240.4 418.05 241.0 418.7 241.65 418.7 242.55 418.7 243.45 418.05 244.1 417.45 244.75 416.55 244.75 415.65 244.75 415.0 244.1 L414.9 244.0 408.15 244.0 408.15 245.05 405.4 245.05 406.0 246.5 408.15 246.5 408.15 247.55 415.45 247.55 Q415.9 247.25 416.55 247.25 417.45 247.25 418.05 247.85 418.7 248.5 418.7 249.4 418.7 250.3 418.05 250.95 417.45 251.6 416.55 251.6 415.65 251.6 415.0 250.95 L414.9 250.85 408.15 250.85 408.15 251.9 408.0 251.9 408.9 254.45 415.45 254.45 Q415.9 254.15 416.55 254.15 417.45 254.15 418.05 254.75 418.7 255.4 418.7 256.3 418.7 257.2 418.05 257.85 417.45 258.5 416.55 258.5 415.65 258.5 415.0 257.85 L414.9 257.75 410.05 257.75 Q413.0 266.45 415.35 275.35 436.25 273.25 454.95 266.95 M403.95 240.7 L403.95 241.5 406.55 241.5 406.55 243.2 403.95 243.2 403.95 244.0 403.95 245.05 405.4 245.05 M414.9 244.0 Q414.4 243.4 414.4 242.55 414.4 241.65 415.0 241.0 L415.45 240.7 M408.15 240.7 L408.15 244.0 M414.9 250.85 Q414.4 250.25 414.4 249.4 414.4 248.5 415.0 247.85 L415.45 247.55 M406.0 246.5 L403.95 246.5 403.95 247.55 403.95 248.35 406.55 248.35 406.55 250.05 403.95 250.05 403.95 250.85 M404.85 251.9 L408.0 251.9 M405.3 253.4 L408.15 253.4 408.15 254.45 408.9 254.45 M408.15 247.55 L408.15 250.85 M410.05 257.75 L408.15 257.75 408.15 258.8 406.8 258.8 M406.55 255.25 L403.95 255.25 403.95 256.95 406.55 256.95 406.55 255.25 M408.15 254.45 L408.15 257.75 M414.9 257.75 Q414.4 257.15 414.4 256.3 414.4 255.4 415.0 254.75 L415.45 254.45 M344.85 266.95 Q363.55 273.25 384.45 275.35 386.8 266.4 389.8 257.65 L384.65 257.6 384.55 257.7 383.2 258.15 Q382.3 258.15 381.7 257.5 381.0 256.9 381.05 256.0 381.0 255.05 381.7 254.45 382.3 253.8 383.2 253.8 384.1 253.8 384.75 254.45 L390.9 254.45 392.2 250.75 384.65 250.7 384.55 250.8 383.2 251.25 Q382.3 251.25 381.7 250.6 381.0 250.0 381.05 249.1 381.0 248.15 381.7 247.55 382.3 246.9 383.2 246.9 384.1 246.9 384.75 247.55 L393.4 247.55 394.85 243.95 384.65 243.85 384.55 243.95 383.2 244.4 Q382.3 244.4 381.7 243.75 381.0 243.15 381.05 242.25 381.0 241.3 381.7 240.7 382.3 240.05 383.2 240.05 384.1 240.05 384.75 240.7 L396.15 240.7 399.85 232.2 395.0 231.75 Q391.4 231.1 387.85 229.7 M399.85 232.2 L399.9 232.2 399.95 232.2 M384.75 240.7 Q385.35 241.3 385.35 242.25 385.35 243.15 384.75 243.75 L384.65 243.85 M401.1 240.7 L403.65 240.7 M398.75 240.7 L396.15 240.7 M399.9 237.8 L399.9 232.2 M403.95 244.0 L402.3 244.0 M403.5 247.55 L403.95 247.55 M403.95 243.2 L403.95 241.5 M397.55 243.95 L394.85 243.95 M403.95 250.05 L403.95 248.35 M403.95 257.75 L403.95 256.95 M403.95 255.25 L403.95 254.45 M394.2 254.45 L390.9 254.45 M396.3 247.55 L393.4 247.55 M384.65 250.7 L384.75 250.6 Q385.35 250.0 385.35 249.1 385.35 248.15 384.75 247.55 M384.75 254.45 Q385.35 255.05 385.35 256.0 385.35 256.9 384.75 257.5 L384.65 257.6 M389.8 257.65 L393.3 257.7 M395.3 250.8 L392.2 250.75" fill="none" stroke="#000000" stroke-linecap="round" stroke-linejoin="round" stroke-opacity="0.49803922" stroke-width="1.0"/>
  </g>
</svg>
