<?xml version="1.0" encoding="UTF-8" standalone="no"?>
<svg xmlns:xlink="http://www.w3.org/1999/xlink" height="63.9px" width="69.6px" xmlns="http://www.w3.org/2000/svg">
  <g transform="matrix(1.0, 0.0, 0.0, 1.0, 34.75, 57.9)">
    <path d="M22.15 -37.55 L21.4 -40.7 23.3 -40.4 22.15 -37.55 M16.8 -55.45 Q18.1 -56.75 20.05 -57.5 L22.1 -57.9 21.5 -56.0 Q20.9 -55.9 20.5 -55.45 19.9 -54.9 19.9 -54.15 19.9 -53.4 20.5 -52.85 21.0 -52.3 21.8 -52.3 22.55 -52.3 23.1 -52.85 23.65 -53.4 23.65 -54.15 23.65 -54.9 23.15 -55.4 L23.8 -57.45 Q24.65 -56.95 25.15 -55.9 26.5 -52.9 25.6 -47.1 L24.25 -47.35 23.0 -44.75 22.4 -47.6 17.2 -48.3 16.15 -45.65 15.45 -48.5 11.2 -48.85 10.4 -46.15 9.6 -48.95 4.35 -49.15 3.6 -46.65 2.8 -49.15 0.05 -49.15 -2.75 -49.15 -3.5 -46.65 -4.25 -49.15 -9.5 -48.95 -10.3 -46.15 -11.1 -48.85 -15.35 -48.5 -16.05 -45.65 -17.1 -48.3 -22.3 -47.6 -22.9 -44.75 -24.15 -47.35 -25.5 -47.1 Q-26.4 -52.9 -25.05 -55.9 -24.55 -56.95 -23.7 -57.45 L-23.05 -55.4 Q-23.55 -54.9 -23.55 -54.15 -23.55 -53.4 -23.0 -52.85 -22.45 -52.3 -21.7 -52.3 -20.9 -52.3 -20.4 -52.85 -19.8 -53.4 -19.8 -54.15 -19.8 -54.9 -20.4 -55.45 -20.8 -55.9 -21.4 -56.0 L-22.0 -57.9 -19.95 -57.5 Q-18.0 -56.75 -16.7 -55.45 -11.3 -50.1 0.05 -50.2 11.4 -50.1 16.8 -55.45 M21.2 -33.65 L23.2 -33.35 21.7 -30.3 21.2 -33.65 M22.55 -25.35 L21.35 -22.9 20.7 -25.7 22.55 -25.35 M26.9 -32.7 L27.6 -34.4 Q28.85 -30.75 31.6 -31.3 L32.65 -28.75 34.85 -24.35 Q31.8 -24.25 29.05 -24.45 L28.1 -22.0 27.1 -24.6 26.25 -24.7 Q27.35 -27.85 27.25 -30.4 L26.9 -32.7 M14.9 -41.5 L16.85 -41.3 15.8 -38.45 14.9 -41.5 M9.9 -39.4 L9.3 -41.9 10.9 -41.8 9.9 -39.4 M2.9 -42.05 L4.6 -42.05 3.6 -38.95 2.9 -42.05 M4.25 -35.25 L3.35 -32.25 2.35 -35.3 4.25 -35.25 M4.45 -27.3 L3.7 -24.55 2.9 -27.35 4.45 -27.3 M8.45 -27.15 L10.0 -27.0 9.4 -24.05 8.45 -27.15 M7.85 -35.1 L10.35 -34.95 9.2 -31.85 7.85 -35.1 M14.15 -26.65 L16.05 -26.4 15.0 -23.45 14.15 -26.65 M15.0 -31.85 L14.35 -34.55 16.05 -34.35 15.0 -31.85 M16.35 -18.05 L15.6 -15.1 14.7 -18.2 16.35 -18.05 M9.1 -18.75 L10.8 -18.65 9.8 -15.65 9.1 -18.75 M3.05 -19.05 L3.4 -19.05 4.75 -19.0 3.9 -15.95 3.05 -19.05 M3.9 -9.1 L3.3 -11.75 4.85 -11.8 3.9 -9.1 M5.05 -3.8 L4.05 -1.05 3.25 -3.8 5.05 -3.8 M10.75 -0.55 L9.45 -3.9 11.75 -4.0 10.75 -0.55 M15.2 -4.2 L17.25 -4.3 16.15 -1.25 15.2 -4.2 M16.2 -12.0 L15.4 -9.45 14.25 -11.95 16.2 -12.0 M27.25 -14.55 L26.7 -17.45 28.45 -17.4 27.25 -14.55 M21.8 -17.65 L21.0 -14.9 20.2 -17.75 21.8 -17.65 M11.05 -11.9 L10.25 -9.15 9.0 -11.85 11.05 -11.9 M27.45 -9.7 L26.2 -12.25 28.2 -12.3 27.45 -9.7 M21.5 -9.5 L20.2 -12.1 22.3 -12.15 21.5 -9.5 M21.35 -2.05 L20.25 -4.6 22.15 -4.75 21.35 -2.05 M27.2 -5.35 L26.6 -2.8 25.4 -5.15 27.2 -5.35 M21.95 4.15 L21.0 1.75 22.85 1.5 21.95 4.15 M10.4 6.0 L9.55 2.8 11.5 2.65 10.4 6.0 M17.2 2.15 L16.05 5.65 15.25 2.35 17.2 2.15 M2.7 3.1 L2.7 3.05 4.35 3.0 3.55 5.95 2.7 3.1 M-9.8 -39.4 L-10.8 -41.8 -9.2 -41.9 -9.8 -39.4 M-4.55 -42.05 L-2.8 -42.05 -3.5 -38.95 -4.55 -42.05 M-16.75 -41.3 L-14.8 -41.5 -15.7 -38.45 -16.75 -41.3 M-15.95 -34.35 L-14.25 -34.55 -14.9 -31.85 -15.95 -34.35 M-15.95 -26.4 L-14.05 -26.65 -14.9 -23.45 -15.95 -26.4 M-2.8 -27.35 L-3.6 -24.55 -4.35 -27.3 -2.8 -27.35 M-8.35 -27.15 L-9.3 -24.05 -9.9 -27.0 -8.35 -27.15 M-3.25 -32.25 L-4.15 -35.25 -2.25 -35.3 -3.25 -32.25 M-9.1 -31.85 L-10.25 -34.95 -7.8 -35.1 -9.1 -31.85 M-22.05 -37.55 L-23.2 -40.4 -21.35 -40.7 -22.05 -37.55 M-31.5 -31.3 Q-28.75 -30.75 -27.5 -34.4 L-26.8 -32.7 -27.15 -30.4 Q-27.25 -27.85 -26.15 -24.7 L-27.0 -24.6 -28.0 -22.0 -28.95 -24.45 Q-31.7 -24.25 -34.75 -24.35 L-32.55 -28.75 -31.5 -31.3 M-23.1 -33.35 L-21.1 -33.65 -21.6 -30.3 -23.1 -33.35 M-22.45 -25.35 L-20.6 -25.7 -21.25 -22.9 -22.45 -25.35 M-27.15 -14.55 L-28.35 -17.4 -26.6 -17.45 -27.15 -14.55 M-21.7 -17.65 L-20.1 -17.75 -20.9 -14.9 -21.7 -17.65 M-27.35 -9.7 L-28.1 -12.3 -26.1 -12.25 -27.35 -9.7 M-22.2 -12.15 L-20.1 -12.1 -21.4 -9.5 -22.2 -12.15 M-25.3 -5.15 L-26.5 -2.8 -27.1 -5.35 -25.3 -5.15 M-22.05 -4.75 L-20.2 -4.6 -21.25 -2.05 -22.05 -4.75 M-4.65 -19.0 L-3.3 -19.05 -2.95 -19.05 -3.8 -15.95 -4.65 -19.0 M-9.7 -15.65 L-10.7 -18.65 -9.0 -18.75 -9.7 -15.65 M-16.25 -18.05 L-14.65 -18.2 -15.5 -15.1 -16.25 -18.05 M-15.15 -4.2 L-16.05 -1.25 -17.15 -4.3 -15.15 -4.2 M-11.65 -4.0 L-9.35 -3.9 -10.65 -0.55 -11.65 -4.0 M-15.3 -9.45 L-16.1 -12.0 -14.15 -11.95 -15.3 -9.45 M-10.95 -11.9 L-8.9 -11.85 -10.15 -9.15 -10.95 -11.9 M-4.95 -3.8 L-4.6 -3.8 -3.6 -3.8 -3.15 -3.8 -3.95 -1.05 -4.95 -3.8 M-4.75 -11.8 L-3.2 -11.75 -3.8 -9.1 -4.75 -11.8 M-2.6 3.1 L-3.45 5.95 -4.25 3.05 -4.25 3.0 -2.6 3.05 -2.6 3.1 M-15.95 5.65 L-17.1 2.15 -15.15 2.35 -15.95 5.65 M-11.4 2.65 L-9.45 2.8 -10.3 6.0 -11.4 2.65 M-21.85 4.15 L-22.75 1.5 -20.9 1.75 -21.85 4.15" fill="#000000" fill-opacity="0.4" fill-rule="evenodd" stroke="none"/>
  </g>
</svg>
