<?xml version="1.0" encoding="UTF-8" standalone="no"?>
<svg xmlns:xlink="http://www.w3.org/1999/xlink" height="248.95px" width="90.5px" xmlns="http://www.w3.org/2000/svg">
  <g transform="matrix(1.0, 0.0, 0.0, 1.0, -354.65, -228.35)">
    <path d="M445.15 243.15 L432.35 257.0 Q432.8 258.7 432.85 260.55 L432.85 261.2 432.85 261.45 432.7 263.75 432.6 264.1 Q432.2 266.4 431.1 268.4 L432.55 271.25 Q429.4 279.95 423.35 285.1 420.95 291.0 420.05 296.8 L419.5 301.8 Q419.35 305.15 419.65 308.5 L423.15 312.55 425.8 316.35 Q442.55 338.75 436.0 400.5 L444.65 465.35 Q438.1 471.95 425.9 477.3 418.55 377.2 405.3 322.5 L402.35 311.1 402.35 231.1 Q407.2 230.45 411.6 228.4 L411.65 228.35 411.9 229.7 445.15 243.15 M388.2 228.4 Q392.6 230.45 397.45 231.1 L397.45 311.1 394.5 322.45 Q381.25 377.15 373.9 477.3 361.7 471.95 355.15 465.35 L363.8 400.5 Q357.25 338.75 374.0 316.35 L376.7 312.55 380.15 308.5 380.3 301.8 379.8 296.8 Q378.85 291.0 376.45 285.1 370.4 279.95 367.25 271.25 L368.75 268.35 Q367.6 266.35 367.2 264.1 L367.1 263.75 366.95 261.45 366.95 261.2 366.95 260.55 Q367.0 258.7 367.5 257.0 L354.65 243.15 387.9 229.7 388.15 228.35 388.2 228.4" fill="#000000" fill-rule="evenodd" stroke="none"/>
  </g>
</svg>
