<?xml version="1.0" encoding="UTF-8" standalone="no"?>
<svg xmlns:xlink="http://www.w3.org/1999/xlink" height="51.75px" width="90.55px" xmlns="http://www.w3.org/2000/svg">
  <g transform="matrix(1.0, 0.0, 0.0, 1.0, -354.65, -229.6)">
    <path d="M445.2 243.2 L432.35 257.05 Q432.8 258.5 432.85 260.1 L432.9 260.6 432.9 261.25 432.9 261.5 432.85 262.6 432.75 263.8 432.65 264.15 Q432.25 266.4 431.1 268.4 L432.6 271.3 Q430.65 276.7 427.55 280.75 L427.05 281.35 424.9 280.85 Q420.65 280.05 418.05 281.25 L419.75 272.6 Q422.1 253.9 419.75 238.05 L418.4 229.65 Q421.45 231.0 426.0 233.5 L445.2 243.2 M380.1 238.0 Q377.75 253.85 380.1 272.55 L381.8 281.2 Q379.2 280.0 374.95 280.8 L372.8 281.3 372.3 280.7 Q369.2 276.65 367.25 271.25 L368.75 268.35 Q367.6 266.35 367.2 264.1 L367.1 263.75 367.0 262.55 366.95 261.45 366.95 261.2 366.95 260.55 367.0 260.05 Q367.05 258.45 367.5 257.0 L354.65 243.15 Q369.25 235.9 373.85 233.45 378.4 230.95 381.45 229.6 L380.1 238.0" fill="#000000" fill-rule="evenodd" stroke="none"/>
  </g>
</svg>
