<?xml version="1.0" encoding="UTF-8" standalone="no"?>
<svg xmlns:xlink="http://www.w3.org/1999/xlink" height="101.2px" width="51.8px" xmlns="http://www.w3.org/2000/svg">
  <g transform="matrix(1.0, 0.0, 0.0, 1.0, -374.0, -219.7)">
    <path d="M421.15 223.05 L421.85 226.75 Q420.4 228.65 417.25 228.85 L415.3 236.15 416.3 241.8 417.4 248.75 Q419.25 260.0 415.5 276.1 L415.5 276.15 Q411.85 292.95 413.1 311.05 L414.45 316.1 Q419.7 315.15 423.15 312.55 L425.8 316.35 Q419.6 319.55 413.05 320.9 L412.05 316.4 410.8 311.7 Q409.05 292.25 412.85 275.6 L412.85 275.55 Q415.7 258.25 413.95 242.1 L413.2 236.6 414.75 230.85 411.9 229.7 411.65 228.4 Q410.85 224.1 410.5 219.7 420.45 220.25 421.1 222.75 L421.15 223.05 M382.55 228.85 Q379.4 228.65 377.95 226.75 L378.65 223.05 378.7 222.75 Q379.35 220.25 389.35 219.7 388.95 224.1 388.15 228.4 L387.9 229.7 385.05 230.85 386.6 236.6 385.85 242.1 Q384.1 258.25 386.95 275.55 L386.95 275.6 Q390.75 292.25 389.0 311.7 L387.75 316.4 386.8 320.9 Q380.2 319.55 374.0 316.35 L376.7 312.55 Q380.1 315.15 385.35 316.1 L386.7 311.05 Q387.95 293.0 384.3 276.15 L384.3 276.1 Q380.55 260.0 382.4 248.75 L383.5 241.8 384.5 236.15 382.55 228.85 M384.9 303.45 L380.3 301.8 379.8 296.8 384.9 298.3 384.9 303.45 M414.9 303.45 L414.9 298.3 420.05 296.8 419.5 301.8 414.9 303.45" fill="#000000" fill-rule="evenodd" stroke="none"/>
  </g>
</svg>
