<?xml version="1.0" encoding="UTF-8" standalone="no"?>
<svg xmlns:xlink="http://www.w3.org/1999/xlink" height="33.0px" width="27.25px" xmlns="http://www.w3.org/2000/svg">
  <g transform="matrix(1.0, 0.0, 0.0, 1.0, -386.3, -245.9)">
    <path d="M403.45 272.1 L403.45 274.35 399.95 278.4 396.4 274.35 396.4 272.1 Q392.05 270.9 389.45 267.45 386.8 264.0 386.8 259.45 386.8 253.4 391.35 249.6 395.15 246.4 399.95 246.4 406.15 246.4 410.0 250.9 413.05 254.5 413.05 259.25 413.05 263.9 410.3 267.6 407.85 270.9 403.45 272.1 M405.4 259.5 Q405.4 257.15 403.8 255.45 402.2 253.75 399.95 253.75 397.7 253.75 396.05 255.45 394.45 257.15 394.45 259.5 394.45 262.45 396.65 264.25 L396.65 261.45 403.25 261.45 403.25 264.25 Q405.4 262.35 405.4 259.5" fill="none" stroke="#000000" stroke-linecap="round" stroke-linejoin="round" stroke-opacity="0.5019608" stroke-width="1.0"/>
  </g>
</svg>
