<?xml version="1.0" encoding="UTF-8" standalone="no"?>
<svg xmlns:xlink="http://www.w3.org/1999/xlink" height="405.55px" width="195.0px" xmlns="http://www.w3.org/2000/svg">
  <g transform="matrix(1.0, 0.0, 0.0, 1.0, -302.4, -135.15)">
    <path d="M461.05 239.45 Q464.1 236.05 467.05 231.05 L469.15 233.0 Q475.45 261.7 489.1 288.8 L489.1 288.85 485.85 310.8 490.05 332.2 485.15 351.55 468.35 358.3 470.1 353.7 482.7 349.1 486.3 331.3 479.6 309.45 484.75 294.5 Q469.65 268.2 461.05 239.45 M399.9 140.4 Q392.65 140.55 387.25 145.15 L385.35 141.25 Q389.75 136.0 399.9 135.15 410.05 136.0 414.45 141.25 L412.55 145.15 Q407.15 140.55 399.9 140.4 M467.0 214.95 Q437.6 212.65 399.9 217.05 362.2 212.65 332.8 214.95 333.65 209.7 337.8 204.5 365.55 204.1 399.9 209.25 434.25 204.1 462.0 204.5 466.15 209.7 467.0 214.95 M440.2 247.7 Q439.4 253.85 436.35 257.5 419.2 248.75 399.9 249.1 380.6 248.75 363.45 257.5 360.4 253.85 359.6 247.7 379.15 242.05 399.9 241.9 420.65 242.05 440.2 247.7 M405.75 268.75 L405.75 259.7 Q416.5 259.45 426.15 265.65 L423.3 273.85 Q416.65 269.2 405.75 268.75 M418.2 296.75 L404.05 294.1 404.05 286.25 419.4 289.35 418.2 296.75 M338.75 239.45 Q330.15 268.2 315.05 294.5 L320.2 309.45 313.5 331.3 317.1 349.1 329.7 353.7 331.45 358.3 314.65 351.55 309.75 332.2 313.95 310.8 310.7 288.85 310.7 288.8 Q324.35 261.7 330.65 233.0 L332.75 231.05 Q335.7 236.05 338.75 239.45 M381.2 331.9 Q384.95 335.2 388.2 338.65 375.7 376.05 371.4 418.2 L374.75 438.75 Q362.9 461.7 358.5 490.5 359.85 462.85 369.1 437.75 L366.4 423.35 Q368.4 374.7 381.2 331.9 M381.6 296.75 L380.4 289.35 395.75 286.25 395.75 294.1 381.6 296.75 M394.05 259.7 L394.05 268.75 Q383.15 269.2 376.5 273.85 L373.65 265.65 Q383.3 259.45 394.05 259.7 M418.6 331.9 Q431.4 374.7 433.4 423.35 L430.7 437.75 Q439.95 462.85 441.3 490.5 436.9 461.7 425.05 438.75 L428.4 418.2 Q424.1 376.05 411.65 338.65 414.85 335.2 418.6 331.9 M494.0 225.75 Q488.85 210.05 472.2 199.45 490.4 202.85 497.4 216.4 L494.0 225.75 M305.8 225.75 L302.4 216.4 Q309.4 202.85 327.6 199.45 310.95 210.05 305.8 225.75 M325.85 540.7 L319.8 539.9 346.25 505.6 325.85 540.7 M480.0 539.9 L473.95 540.7 453.55 505.6 480.0 539.9" fill="#ffffff" fill-opacity="0.2" fill-rule="evenodd" stroke="none"/>
  </g>
</svg>
