<?xml version="1.0" encoding="UTF-8" standalone="no"?>
<svg xmlns:xlink="http://www.w3.org/1999/xlink" height="68.55px" width="48.9px" xmlns="http://www.w3.org/2000/svg">
  <g transform="matrix(1.0, 0.0, 0.0, 1.0, 136.75, -72.4)">
    <path d="M-134.55 88.95 L-135.6 89.15 Q-133.95 95.25 -133.45 101.4 L-132.3 101.2 -132.65 102.75 -134.25 103.0 Q-135.1 95.85 -136.75 88.8 L-135.45 88.0 -135.25 87.9 -134.55 88.95" fill="url(#gradient0)" fill-rule="evenodd" stroke="none"/>
    <path d="M-132.3 101.2 L-133.45 101.4 Q-133.95 95.25 -135.6 89.15 L-134.55 88.95 Q-131.2 94.65 -132.3 101.2" fill="url(#gradient1)" fill-rule="evenodd" stroke="none"/>
    <path d="M-134.55 88.95 L-135.25 87.9 Q-134.45 86.45 -132.95 86.0 -125.75 84.85 -117.25 90.4 -110.9 91.25 -111.0 85.95 L-110.5 85.85 -109.2 85.6 -108.65 89.45 Q-108.6 92.35 -110.6 94.0 L-109.6 99.85 -108.05 101.45 -107.3 105.65 Q-107.7 103.95 -109.85 104.6 L-112.05 105.0 -118.5 103.75 Q-123.1 103.7 -128.0 101.9 -130.8 102.95 -132.65 102.75 L-132.3 101.2 Q-131.2 94.65 -134.55 88.95 M-125.55 92.3 Q-126.4 92.45 -126.85 93.2 -127.35 93.95 -127.2 95.0 -127.0 95.85 -126.25 96.45 -125.6 97.0 -124.75 96.85 -123.9 96.7 -123.4 95.95 -122.95 95.15 -123.1 94.25 -123.3 93.25 -124.0 92.7 -124.7 92.15 -125.55 92.3" fill="url(#gradient2)" fill-rule="evenodd" stroke="none"/>
    <path d="M-125.55 92.3 Q-124.7 92.15 -124.0 92.7 -123.3 93.25 -123.1 94.25 -122.95 95.15 -123.4 95.95 -123.9 96.7 -124.75 96.85 -125.6 97.0 -126.25 96.45 -127.0 95.85 -127.2 95.0 -127.35 93.95 -126.85 93.2 -126.4 92.45 -125.55 92.3" fill="url(#gradient3)" fill-rule="evenodd" stroke="none"/>
    <path d="M-110.5 85.85 L-112.45 74.8 -111.85 73.9 -110.4 73.65 -104.55 106.85 -102.7 117.15 -103.65 120.25 -100.45 138.5 -102.0 138.15 -104.75 122.65 Q-105.15 121.15 -107.3 121.25 L-110.4 121.8 Q-114.1 121.55 -114.8 118.6 L-117.0 106.1 -118.5 103.75 -112.05 105.0 -113.25 105.2 Q-114.8 105.8 -114.6 107.45 L-112.8 117.55 Q-112.4 119.3 -110.25 119.4 L-107.05 118.85 Q-105.4 118.8 -105.3 117.2 L-106.3 111.45 -107.2 106.35 -107.3 105.65 -108.05 101.45 -109.6 99.85 -110.6 94.0 Q-108.6 92.35 -108.65 89.45 L-109.2 85.6 -110.5 85.85" fill="url(#gradient4)" fill-rule="evenodd" stroke="none"/>
    <path d="M-110.4 73.65 L-103.35 72.4 -101.4 73.55 -101.3 74.15 -100.1 80.7 -100.1 80.95 -99.15 86.2 -99.8 88.35 -97.1 103.6 -99.85 104.1 -100.75 99.0 -102.2 99.25 -101.15 105.25 -101.95 106.4 -104.55 106.85 -110.4 73.65" fill="url(#gradient5)" fill-rule="evenodd" stroke="none"/>
    <path d="M-101.3 74.15 L-98.55 75.85 -98.15 78.05 Q-98.2 78.55 -98.75 78.7 L-99.6 78.9 Q-99.4 80.5 -100.1 80.7 L-101.3 74.15" fill="url(#gradient6)" fill-rule="evenodd" stroke="none"/>
    <path d="M-97.1 103.6 L-94.75 106.65 -89.7 132.7 -89.35 134.65 -90.85 138.05 -91.65 138.2 -95.9 139.0 -98.95 139.6 Q-100.4 139.35 -100.45 138.5 L-103.65 120.25 -102.7 117.15 -104.55 106.85 -101.95 106.4 -101.15 105.25 -100.45 104.2 -99.85 104.1 -97.1 103.6 M-93.9 128.1 Q-94.15 127.8 -94.5 127.85 L-94.95 128.25 -95.1 128.9 -94.7 129.5 -94.2 129.6 -93.65 129.35 Q-93.45 129.0 -93.55 128.65 -93.6 128.3 -93.9 128.1 M-97.25 131.45 L-96.95 131.9 -96.5 132.0 -96.05 131.75 -95.95 131.25 -96.25 130.75 -96.75 130.65 -97.15 130.9 -97.25 131.45 M-92.95 132.75 Q-92.95 132.4 -93.25 132.25 -93.5 132.05 -93.8 132.1 L-94.25 132.4 -94.35 133.0 -94.05 133.5 -93.5 133.7 -93.05 133.35 Q-92.85 133.1 -92.95 132.75" fill="url(#gradient7)" fill-rule="evenodd" stroke="none"/>
    <path d="M-99.85 104.1 L-100.45 104.2 -101.15 105.25 -102.2 99.25 -100.75 99.0 -99.85 104.1" fill="url(#gradient8)" fill-rule="evenodd" stroke="none"/>
    <path d="M-106.3 111.45 Q-109.7 106.85 -112.55 111.25 -113.3 107.75 -109.5 107.1 -107.85 107.35 -107.2 106.35 L-106.3 111.45" fill="url(#gradient9)" fill-rule="evenodd" stroke="none"/>
    <path d="M-89.7 132.7 L-88.45 134.1 -87.85 137.55 -90.85 138.05 -89.35 134.65 -89.7 132.7" fill="url(#gradient10)" fill-rule="evenodd" stroke="none"/>
    <path d="M-93.9 128.1 Q-93.6 128.3 -93.55 128.65 -93.45 129.0 -93.65 129.35 L-94.2 129.6 -94.7 129.5 -95.1 128.9 -94.95 128.25 -94.5 127.85 Q-94.15 127.8 -93.9 128.1" fill="url(#gradient11)" fill-rule="evenodd" stroke="none"/>
    <path d="M-92.95 132.75 Q-92.85 133.1 -93.05 133.35 L-93.5 133.7 -94.05 133.5 -94.35 133.0 -94.25 132.4 -93.8 132.1 Q-93.5 132.05 -93.25 132.25 -92.95 132.4 -92.95 132.75" fill="url(#gradient12)" fill-rule="evenodd" stroke="none"/>
    <path d="M-91.65 138.2 L-91.3 140.2 -95.45 140.95 -95.9 139.0 -91.65 138.2" fill="url(#gradient13)" fill-rule="evenodd" stroke="none"/>
    <path d="M-135.25 87.9 L-134.55 88.95 Q-131.2 94.65 -132.3 101.2 L-132.65 102.75 -134.25 103.0 Q-135.1 95.85 -136.75 88.8 L-135.45 88.0 -135.25 87.9 M-100.45 138.5 L-102.0 138.15 -104.75 122.65 Q-105.05 121.6 -106.15 121.35 L-107.3 121.25 -110.4 121.8 Q-114.1 121.55 -114.8 118.6 L-117.0 106.1 -118.5 103.75 -112.05 105.0 -113.25 105.2 Q-114.8 105.8 -114.6 107.45 L-112.8 117.55 Q-112.4 119.3 -110.25 119.4 L-107.05 118.85 Q-105.4 118.8 -105.3 117.2 L-106.3 111.45 Q-107.05 110.45 -107.75 109.9 -110.3 107.8 -112.55 111.25 -113.3 107.75 -109.5 107.1 -107.85 107.35 -107.2 106.35 L-108.05 101.45 -109.6 99.85 -110.6 94.0 Q-108.6 92.35 -108.65 89.45 L-109.2 85.6 -110.5 85.85 -112.45 74.8 -111.85 73.9 -110.4 73.65 -104.5 107.1 -102.7 117.15 -102.95 118.0 -103.65 120.25 -102.0 129.7 -100.45 138.5 M-101.15 105.25 L-102.2 99.25 -100.75 99.0 -99.85 104.1 -100.45 104.2 -101.15 105.25 M-93.0 132.45 L-92.95 132.75 Q-92.85 133.1 -93.05 133.35 L-93.5 133.7 -94.0 133.55 -94.05 133.5 -94.35 133.0 -94.25 132.4 -93.8 132.1 Q-93.5 132.05 -93.25 132.25 L-93.0 132.45 M-94.95 128.25 L-94.5 127.85 Q-94.15 127.8 -93.9 128.1 -93.6 128.3 -93.55 128.65 -93.45 129.0 -93.65 129.35 L-94.2 129.6 -94.7 129.5 -95.1 128.9 -94.95 128.25 M-97.15 130.9 L-96.75 130.65 -96.25 130.75 -95.95 131.25 -96.05 131.75 -96.5 132.0 -96.95 131.9 -97.25 131.45 -97.15 130.9" fill="#000000" fill-opacity="0.2" fill-rule="evenodd" stroke="none"/>
    <path d="M-104.5 107.1 L-104.15 106.8 -101.95 106.4 -101.15 105.25 -100.45 104.2 -99.85 104.1 -97.1 103.6 -94.75 106.65 -94.3 109.0 -102.95 118.0 -102.7 117.15 -104.5 107.1 M-102.0 129.7 L-92.25 119.35 -90.3 129.45 -93.0 132.45 -93.25 132.25 Q-93.5 132.05 -93.8 132.1 L-94.25 132.4 -94.35 133.0 -94.05 133.5 -94.0 133.55 -99.35 139.5 Q-100.4 139.2 -100.45 138.5 L-102.0 129.7 M-97.15 130.9 L-97.25 131.45 -96.95 131.9 -96.5 132.0 -96.05 131.75 -95.95 131.25 -96.25 130.75 -96.75 130.65 -97.15 130.9 M-94.95 128.25 L-95.1 128.9 -94.7 129.5 -94.2 129.6 -93.65 129.35 Q-93.45 129.0 -93.55 128.65 -93.6 128.3 -93.9 128.1 -94.15 127.8 -94.5 127.85 L-94.95 128.25" fill="#ffffff" fill-opacity="0.5019608" fill-rule="evenodd" stroke="none"/>
  </g>
  <defs>
    <linearGradient gradientTransform="matrix(0.0, 0.0092, -0.0027, 0.0, -134.5, 95.45)" gradientUnits="userSpaceOnUse" id="gradient0" spreadMethod="pad" x1="-819.2" x2="819.2">
      <stop offset="0.0" stop-color="#000000" stop-opacity="0.2509804"/>
      <stop offset="1.0" stop-color="#000000" stop-opacity="0.0"/>
    </linearGradient>
    <linearGradient gradientTransform="matrix(0.0, 0.0076, -0.0022, 0.0, -133.8, 95.15)" gradientUnits="userSpaceOnUse" id="gradient1" spreadMethod="pad" x1="-819.2" x2="819.2">
      <stop offset="0.0" stop-color="#000000" stop-opacity="0.2509804"/>
      <stop offset="1.0" stop-color="#000000" stop-opacity="0.0"/>
    </linearGradient>
    <linearGradient gradientTransform="matrix(0.0, 0.0122, -0.0171, 0.0, -121.25, 95.6)" gradientUnits="userSpaceOnUse" id="gradient2" spreadMethod="pad" x1="-819.2" x2="819.2">
      <stop offset="0.0" stop-color="#000000" stop-opacity="0.2509804"/>
      <stop offset="1.0" stop-color="#000000" stop-opacity="0.0"/>
    </linearGradient>
    <linearGradient gradientTransform="matrix(0.0, 0.0028, -0.0026, 0.0, -125.15, 94.55)" gradientUnits="userSpaceOnUse" id="gradient3" spreadMethod="pad" x1="-819.2" x2="819.2">
      <stop offset="0.0" stop-color="#000000" stop-opacity="0.2509804"/>
      <stop offset="1.0" stop-color="#000000" stop-opacity="0.0"/>
    </linearGradient>
    <linearGradient gradientTransform="matrix(0.011, 0.0, 0.0, 0.0396, -109.5, 106.05)" gradientUnits="userSpaceOnUse" id="gradient4" spreadMethod="pad" x1="-819.2" x2="819.2">
      <stop offset="0.0" stop-color="#000000" stop-opacity="0.2509804"/>
      <stop offset="1.0" stop-color="#000000" stop-opacity="0.0"/>
    </linearGradient>
    <linearGradient gradientTransform="matrix(0.0, 0.021, -0.0081, 0.0, -103.75, 89.6)" gradientUnits="userSpaceOnUse" id="gradient5" spreadMethod="pad" x1="-819.2" x2="819.2">
      <stop offset="0.0" stop-color="#000000" stop-opacity="0.2509804"/>
      <stop offset="1.0" stop-color="#000000" stop-opacity="0.0"/>
    </linearGradient>
    <linearGradient gradientTransform="matrix(0.0, 0.004, -0.0019, 0.0, -99.7, 77.4)" gradientUnits="userSpaceOnUse" id="gradient6" spreadMethod="pad" x1="-819.2" x2="819.2">
      <stop offset="0.0" stop-color="#000000" stop-opacity="0.2509804"/>
      <stop offset="1.0" stop-color="#000000" stop-opacity="0.0"/>
    </linearGradient>
    <linearGradient gradientTransform="matrix(0.0, 0.022, -0.0093, 0.0, -96.95, 121.6)" gradientUnits="userSpaceOnUse" id="gradient7" spreadMethod="pad" x1="-819.2" x2="819.2">
      <stop offset="0.0" stop-color="#000000" stop-opacity="0.2509804"/>
      <stop offset="1.0" stop-color="#000000" stop-opacity="0.0"/>
    </linearGradient>
    <linearGradient gradientTransform="matrix(0.0, 0.0038, -0.0014, 0.0, -101.0, 102.1)" gradientUnits="userSpaceOnUse" id="gradient8" spreadMethod="pad" x1="-819.2" x2="819.2">
      <stop offset="0.0" stop-color="#000000" stop-opacity="0.2509804"/>
      <stop offset="1.0" stop-color="#000000" stop-opacity="0.0"/>
    </linearGradient>
    <linearGradient gradientTransform="matrix(0.0, 0.0031, -0.0039, 0.0, -109.45, 108.9)" gradientUnits="userSpaceOnUse" id="gradient9" spreadMethod="pad" x1="-819.2" x2="819.2">
      <stop offset="0.0" stop-color="#000000" stop-opacity="0.2509804"/>
      <stop offset="1.0" stop-color="#000000" stop-opacity="0.0"/>
    </linearGradient>
    <linearGradient gradientTransform="matrix(0.0, 0.0033, -0.0018, 0.0, -89.35, 135.35)" gradientUnits="userSpaceOnUse" id="gradient10" spreadMethod="pad" x1="-819.2" x2="819.2">
      <stop offset="0.0" stop-color="#000000" stop-opacity="0.2509804"/>
      <stop offset="1.0" stop-color="#000000" stop-opacity="0.0"/>
    </linearGradient>
    <linearGradient gradientTransform="matrix(0.0, 0.0011, -0.001, 0.0, -94.3, 128.75)" gradientUnits="userSpaceOnUse" id="gradient11" spreadMethod="pad" x1="-819.2" x2="819.2">
      <stop offset="0.0" stop-color="#000000" stop-opacity="0.2509804"/>
      <stop offset="1.0" stop-color="#000000" stop-opacity="0.0"/>
    </linearGradient>
    <linearGradient gradientTransform="matrix(0.0, 0.001, -9.0E-4, 0.0, -93.6, 132.9)" gradientUnits="userSpaceOnUse" id="gradient12" spreadMethod="pad" x1="-819.2" x2="819.2">
      <stop offset="0.0" stop-color="#000000" stop-opacity="0.2509804"/>
      <stop offset="1.0" stop-color="#000000" stop-opacity="0.0"/>
    </linearGradient>
    <linearGradient gradientTransform="matrix(0.0, 0.0017, -0.0028, 0.0, -93.6, 139.55)" gradientUnits="userSpaceOnUse" id="gradient13" spreadMethod="pad" x1="-819.2" x2="819.2">
      <stop offset="0.0" stop-color="#000000" stop-opacity="0.2509804"/>
      <stop offset="1.0" stop-color="#000000" stop-opacity="0.0"/>
    </linearGradient>
  </defs>
</svg>
