<?xml version="1.0" encoding="UTF-8" standalone="no"?>
<svg xmlns:xlink="http://www.w3.org/1999/xlink" height="122.0px" width="44.6px" xmlns="http://www.w3.org/2000/svg">
  <g transform="matrix(1.0, 0.0, 0.0, 1.0, -286.2, -406.6)">
    <path d="M318.25 419.85 L318.85 423.15 Q319.05 424.65 318.0 424.9 L314.25 425.6 317.7 442.8 317.15 443.7 318.3 444.1 320.15 454.6 319.45 456.75 320.05 460.25 319.3 462.1 319.9 465.45 319.4 465.55 327.75 509.0 313.3 511.55 310.9 498.65 315.7 497.8 317.35 494.85 315.4 483.75 317.15 482.05 311.7 451.1 307.9 447.9 307.15 445.35 Q306.1 442.4 304.0 441.4 L302.45 440.95 298.65 441.65 296.25 428.15 296.75 422.6 295.5 424.3 Q294.6 422.15 292.35 422.1 L290.55 422.45 Q291.2 421.15 292.1 420.55 L292.9 420.2 Q294.65 419.55 294.7 418.85 L297.15 418.5 297.8 416.8 297.2 413.3 302.35 406.6 303.0 406.75 303.95 406.95 Q305.45 407.35 306.75 408.2 L308.8 409.9 309.35 410.45 318.25 419.85 M287.7 416.95 L288.6 416.55 Q290.25 415.9 290.35 415.15 L293.1 414.75 295.7 416.95 292.7 417.45 292.6 418.35 Q292.3 419.6 291.2 420.65 290.25 418.45 287.95 418.45 L286.2 418.75 Q286.85 417.45 287.7 416.95 M330.0 521.7 L330.8 526.05 Q327.45 527.15 324.0 527.25 L323.2 522.9 330.0 521.7 M322.0 523.1 L322.8 527.45 Q319.75 528.45 316.35 528.6 L315.55 524.25 322.0 523.1" fill="#ffffff" fill-rule="evenodd" stroke="none"/>
  </g>
</svg>
