<?xml version="1.0" encoding="UTF-8" standalone="no"?>
<svg xmlns:xlink="http://www.w3.org/1999/xlink" height="69.35px" width="47.75px" xmlns="http://www.w3.org/2000/svg">
  <g transform="matrix(1.0, 0.0, 0.0, 1.0, -263.1, -382.6)">
    <path d="M265.65 387.65 L266.25 386.25 Q270.45 384.65 275.8 387.85 L276.7 388.3 275.75 387.9 Q270.3 385.7 267.15 386.95 266.55 388.5 268.4 390.1 L268.45 390.15 269.25 390.3 269.7 390.85 269.8 391.15 269.8 391.2 Q269.9 391.75 269.6 392.2 L268.75 392.7 268.45 392.75 Q266.3 393.95 265.55 396.45 265.75 397.25 268.0 397.5 270.9 397.45 274.25 398.9 L287.55 404.65 287.45 404.8 Q287.15 405.25 287.25 405.8 287.35 406.35 287.8 406.65 L288.8 406.85 289.65 406.3 289.95 405.75 292.45 407.05 289.3 407.2 Q287.4 408.1 287.0 410.0 286.6 413.1 288.4 414.75 290.1 415.9 292.1 415.15 294.55 414.05 294.3 411.65 292.95 409.2 289.85 409.55 288.1 409.8 287.75 411.7 L287.5 411.95 Q287.35 412.0 287.35 411.65 287.4 410.0 288.6 408.95 289.95 407.85 291.85 408.1 293.0 408.3 293.85 408.95 L293.55 407.7 Q294.45 406.6 294.25 405.1 L294.15 405.0 291.85 393.0 291.65 392.55 291.6 392.15 Q291.2 392.55 290.6 392.35 289.95 392.0 290.1 391.1 L290.2 390.75 287.5 390.95 Q286.4 391.8 284.25 391.35 286.6 391.7 288.45 389.7 289.15 388.95 289.4 387.3 289.65 384.9 291.75 383.65 L296.5 382.65 Q297.3 382.6 297.95 383.25 L299.1 382.7 299.4 382.6 Q300.15 382.85 300.4 383.75 300.7 385.0 300.2 385.85 L299.9 386.7 299.8 387.75 300.0 389.15 300.35 389.1 300.5 389.85 300.4 389.8 299.2 389.75 Q298.2 389.95 297.6 390.75 297.0 391.65 297.15 392.7 297.35 393.65 298.2 394.2 L299.1 394.65 300.05 394.65 300.9 394.4 300.95 394.55 301.1 397.2 Q301.25 400.45 301.6 402.5 301.95 403.05 301.8 403.6 L302.1 404.4 Q302.2 405.15 301.75 405.7 L301.3 406.9 302.35 411.95 302.75 412.5 303.5 416.65 303.4 416.95 303.45 417.35 303.3 417.35 Q302.7 417.65 302.75 418.35 L303.7 423.3 304.55 427.85 305.1 430.7 307.7 446.4 308.0 446.95 308.1 446.95 308.2 446.95 310.6 448.15 Q310.95 448.45 310.8 449.0 310.55 449.7 309.95 450.2 L309.95 450.35 308.8 450.6 308.85 450.8 Q308.8 451.55 307.25 451.85 L305.1 451.65 304.3 447.5 Q304.6 447.35 304.5 446.8 L301.75 433.65 301.15 430.85 300.25 426.35 298.8 418.95 298.45 418.4 298.15 418.3 297.95 418.3 297.9 418.0 297.8 418.05 296.0 418.3 Q294.85 418.45 294.3 417.7 293.85 417.15 293.8 416.45 293.55 415.4 292.8 415.65 L289.45 415.85 Q287.7 415.35 286.8 413.35 286.1 411.1 286.8 408.95 287.1 407.9 286.7 406.85 L286.7 406.8 Q286.15 405.0 284.05 404.1 L275.15 400.25 Q271.05 398.4 267.9 398.45 264.65 398.3 264.35 395.0 L264.35 394.95 264.0 394.6 Q263.35 393.5 263.1 392.3 L263.6 392.8 265.15 393.15 Q265.95 393.0 266.45 392.3 266.9 391.65 266.75 390.75 L266.5 390.1 266.05 389.55 265.95 389.5 Q265.25 389.0 264.4 389.15 L265.5 388.0 265.65 387.65 M300.45 402.65 L300.75 404.0 301.1 403.7 301.25 403.2 300.95 402.7 300.45 402.65 M295.1 413.65 Q295.15 414.15 295.55 414.4 L296.5 414.55 296.8 414.45 297.2 414.05 297.4 413.2 296.9 412.4 296.05 412.25 Q295.55 412.3 295.25 412.75 295.0 413.15 295.1 413.65" fill="#ffffff" fill-rule="evenodd" stroke="none"/>
  </g>
</svg>
