<?xml version="1.0" encoding="UTF-8" standalone="no"?>
<svg xmlns:xlink="http://www.w3.org/1999/xlink" height="16.5px" width="66.2px" xmlns="http://www.w3.org/2000/svg">
  <g transform="matrix(1.0, 0.0, 0.0, 1.0, -366.8, -195.2)">
    <path d="M423.15 201.35 L423.35 201.1 Q427.6 195.0 433.0 195.2 427.7 197.15 424.4 202.25 422.0 206.15 418.05 208.6 415.75 210.0 412.95 210.9 404.9 213.5 399.9 207.45 394.95 213.45 386.85 210.9 379.15 208.4 375.4 202.25 372.1 197.15 366.8 195.2 372.2 195.0 376.45 201.1 L376.65 201.35 Q382.4 207.9 388.7 208.55 393.25 208.4 395.15 206.5 396.65 205.05 399.85 205.25 L399.95 205.25 Q403.15 205.0 404.65 206.5 406.55 208.4 411.1 208.55 414.65 208.2 418.05 205.95 420.65 204.2 423.15 201.35" fill="#000000" fill-rule="evenodd" stroke="none"/>
  </g>
</svg>
