<?xml version="1.0" encoding="UTF-8" standalone="no"?>
<svg xmlns:xlink="http://www.w3.org/1999/xlink" height="37.65px" width="39.0px" xmlns="http://www.w3.org/2000/svg">
  <g transform="matrix(1.0, 0.0, 0.0, 1.0, -380.4, -194.55)">
    <path d="M382.8 195.05 Q382.4 200.75 387.5 204.85 387.85 211.6 392.85 215.1 395.6 217.8 397.45 215.35 L402.35 215.35 Q404.2 217.8 406.95 215.1 411.95 211.6 412.3 204.85 417.4 200.75 417.0 195.05 L418.45 195.05 418.45 195.6 418.05 202.8 Q419.3 208.55 418.7 215.95 L416.9 213.4 Q416.9 218.85 414.0 223.9 L412.85 221.5 Q410.0 226.15 405.3 230.45 L404.7 228.8 399.9 231.7 395.1 228.8 394.5 230.45 Q389.8 226.15 386.95 221.5 L385.8 223.9 Q382.9 218.85 382.9 213.4 L381.1 215.95 Q380.5 209.0 381.65 203.5 L381.8 202.8 381.35 195.05 382.8 195.05 Z" fill="none" stroke="#000000" stroke-linecap="round" stroke-linejoin="round" stroke-width="1.0"/>
  </g>
</svg>
