<?xml version="1.0" encoding="UTF-8" standalone="no"?>
<svg xmlns:xlink="http://www.w3.org/1999/xlink" height="60.3px" width="43.9px" xmlns="http://www.w3.org/2000/svg">
  <g transform="matrix(1.0, 0.0, 0.0, 1.0, -204.5, -270.3)">
    <path d="M243.1 275.55 Q243.35 277.15 244.65 280.65 245.95 284.1 246.7 290.4 L248.35 305.95 248.4 310.1 Q248.5 311.95 247.9 313.25 246.95 315.15 245.55 316.65 245.55 318.65 244.45 319.95 L240.3 324.15 235.7 328.1 Q233.7 329.8 231.45 330.05 L224.5 330.6 221.35 329.95 Q218.3 328.6 216.05 327.15 213.15 325.25 211.75 323.2 210.0 320.6 210.0 317.4 209.5 315.9 209.6 313.95 L209.6 313.5 Q208.1 311.8 205.8 311.4 202.85 307.25 206.5 304.4 L209.95 291.55 Q210.85 288.35 210.85 285.3 L210.65 284.85 210.85 284.7 Q210.8 282.25 211.2 280.3 217.95 278.15 223.85 271.8 226.15 269.25 227.35 271.05 234.95 273.45 240.15 274.35 241.8 275.4 243.1 275.55 M233.75 298.45 Q230.65 297.65 227.9 299.4 L225.45 301.35 Q223.55 303.1 220.95 303.35 219.45 304.0 219.25 306.65 219.05 309.25 220.75 311.7 L224.15 316.15 Q225.85 318.1 229.2 317.1 L236.0 317.6 Q239.55 317.5 241.7 315.65 244.1 313.45 244.35 310.25 L244.35 308.45 Q245.45 308.2 245.1 306.3 243.95 305.3 244.2 303.3 241.7 301.55 240.15 299.45 238.5 297.2 234.6 297.8 234.05 297.9 233.75 298.45" fill="#000000" fill-rule="evenodd" stroke="none"/>
  </g>
</svg>
