<?xml version="1.0" encoding="UTF-8" standalone="no"?>
<svg xmlns:xlink="http://www.w3.org/1999/xlink" height="338.2px" width="279.95px" xmlns="http://www.w3.org/2000/svg">
  <g transform="matrix(1.0, 0.0, 0.0, 1.0, 239.6, 113.05)">
    <path d="M-188.55 -29.05 Q-188.35 -26.65 -190.0 -26.45 -196.2 -25.9 -195.5 -32.15 -191.3 -31.8 -188.55 -29.05 M-148.45 -30.4 Q-149.7 -28.65 -151.5 -27.55 -154.75 -26.75 -155.6 -29.3 -151.85 -34.55 -148.8 -30.85 L-148.45 -30.4 M-157.9 8.15 Q-158.7 8.15 -159.55 9.55 -162.2 11.6 -164.1 9.55 -163.95 8.7 -162.8 7.85 L-162.0 7.15 -157.9 8.15 M-167.6 8.6 Q-168.7 9.3 -168.55 11.0 -172.0 10.85 -173.65 9.95 L-171.7 7.95 Q-168.55 4.9 -167.6 8.6" fill="#000000" fill-rule="evenodd" stroke="none"/>
    <path d="M-189.35 -15.15 L-189.15 -15.3 -189.15 -14.7 -189.35 -15.15" fill="#ffffff" fill-rule="evenodd" stroke="none"/>
    <path d="M-166.25 -1.55 Q-165.95 -2.1 -165.4 -2.2 -161.5 -2.8 -159.85 -0.55 -158.3 1.55 -155.8 3.3 -156.05 5.3 -154.9 6.3 -154.55 8.2 -155.65 8.45 L-155.65 10.25 Q-155.9 13.45 -158.3 15.65 -160.45 17.5 -164.0 17.6 L-170.8 17.1 Q-174.15 18.1 -175.85 16.15 L-179.25 11.7 Q-180.95 9.25 -180.75 6.65 -180.55 4.0 -179.05 3.35 -176.45 3.1 -174.55 1.35 L-172.1 -0.6 Q-169.35 -2.35 -166.25 -1.55 M-157.9 8.15 L-162.0 7.15 -162.8 7.85 Q-163.95 8.7 -164.1 9.55 -162.2 11.6 -159.55 9.55 -158.7 8.15 -157.9 8.15 M-167.6 8.6 Q-168.55 4.9 -171.7 7.95 L-173.65 9.95 Q-172.0 10.85 -168.55 11.0 -168.7 9.3 -167.6 8.6" fill="#333333" fill-rule="evenodd" stroke="none"/>
    <path d="M-128.25 216.95 L-128.75 217.8 Q-130.8 220.9 -134.4 222.65 L-133.7 217.15 -133.6 215.85 -133.35 214.6 -132.7 212.55 Q-131.85 210.25 -129.55 208.0 -128.55 206.95 -127.15 206.3 -125.5 205.4 -123.3 205.1 -123.15 207.8 -123.75 209.95 -124.55 210.55 -125.0 211.45 -126.45 214.1 -128.25 216.95 M-136.2 215.9 L-139.6 221.55 Q-140.95 223.85 -143.9 224.25 -143.95 221.45 -143.2 219.05 -145.1 220.3 -146.1 222.75 -147.2 225.35 -149.25 225.15 L-149.05 221.8 Q-152.4 223.25 -153.05 223.0 -152.45 220.3 -151.65 217.95 -153.95 219.2 -154.5 218.75 L-151.6 212.85 Q-153.65 213.3 -154.85 212.5 -156.15 209.3 -156.75 205.9 L-157.1 203.75 Q-157.7 198.35 -155.75 194.4 -153.35 197.8 -153.3 203.05 L-153.2 205.4 Q-152.85 208.6 -151.6 212.8 L-148.85 208.25 -150.35 205.9 Q-151.85 202.9 -151.7 198.85 -151.55 195.3 -148.6 193.15 -147.55 197.55 -147.95 202.8 -148.05 204.4 -146.8 205.5 -144.75 202.9 -142.5 201.1 -142.35 202.4 -142.85 203.75 -143.35 204.85 -144.3 205.95 -142.65 204.45 -140.8 203.4 -140.45 205.45 -142.55 209.65 L-140.55 208.0 -138.55 206.6 Q-137.9 207.85 -138.75 210.75 L-138.4 210.9 Q-137.0 209.25 -135.45 208.05 L-134.6 207.4 -132.6 207.45 Q-132.65 208.95 -133.35 210.55 -134.1 212.1 -134.05 212.5 L-136.2 215.9 M-158.75 205.65 Q-158.8 207.75 -159.15 209.75 -162.35 209.05 -162.65 205.65 L-162.65 204.0 -162.95 202.55 Q-163.4 198.25 -161.85 194.6 -159.45 197.2 -159.0 201.3 -158.75 203.5 -158.75 205.65 M-171.15 206.75 L-171.9 209.25 Q-173.2 209.25 -174.1 204.55 -173.55 199.75 -175.3 196.85 -175.2 194.7 -173.55 193.95 -170.6 196.95 -170.7 202.55 -170.75 204.7 -171.15 206.75 M-140.5 196.6 Q-142.95 198.55 -144.65 201.2 -145.8 195.35 -142.9 191.45 L-141.65 190.2 Q-140.95 192.8 -140.5 196.6 M-28.1 184.5 L-28.05 184.5 -28.0 184.5 -27.9 184.5 -27.85 184.5 -27.75 184.5 Q-25.85 184.55 -26.25 186.3 L-26.6 187.35 -28.3 186.7 -28.85 186.5 Q-29.25 186.35 -29.45 186.75 L-29.9 187.35 Q-30.25 185.85 -29.0 184.85 -28.65 184.55 -28.15 184.5 L-28.1 184.5 M-59.2 184.9 Q-58.45 180.4 -56.0 183.4 -55.1 185.5 -57.15 185.7 -57.9 184.35 -59.2 184.9 M-49.5 184.05 Q-49.8 179.15 -47.1 182.4 -45.8 184.8 -47.6 186.2 -48.4 185.6 -48.85 186.5 -49.45 185.35 -49.5 184.05 M-66.25 184.2 L-66.85 183.5 Q-68.2 182.25 -69.45 183.3 L-68.45 181.55 Q-67.4 180.2 -66.25 180.9 -65.1 181.65 -64.1 182.9 -64.45 184.5 -66.25 184.2 M-6.55 189.65 Q-6.95 188.25 -6.55 186.3 -3.95 187.1 -3.15 190.05 L-6.55 189.65 M-20.75 187.4 Q-21.45 186.45 -22.75 186.85 -21.8 184.85 -20.6 185.0 -19.85 185.1 -19.0 186.05 -19.0 187.7 -20.75 187.4 M-36.05 185.0 L-35.95 185.3 Q-35.45 184.95 -34.7 184.75 -33.4 184.4 -32.9 186.35 -32.35 186.7 -32.7 187.6 -33.15 188.9 -35.25 188.45 -35.95 186.8 -37.2 188.2 L-37.05 187.7 -36.8 186.4 Q-36.6 185.75 -36.0 185.35 L-36.05 185.0" fill="#cccccc" fill-rule="evenodd" stroke="none"/>
    <path d="M18.6 175.5 L17.6 183.05 Q15.65 193.85 6.2 193.5 0.1 194.3 -3.7 193.5 -7.5 192.7 -8.35 191.5 -13.9 194.75 -17.6 193.15 L-18.3 192.8 Q-18.2 193.15 -19.55 193.3 L-20.1 193.5 Q-21.35 194.5 -23.1 193.9 -24.35 193.45 -25.2 192.85 -25.6 193.4 -26.3 193.5 -28.1 193.65 -29.75 193.45 L-33.15 193.0 Q-34.95 192.8 -35.25 191.55 L-35.35 191.1 Q-36.2 192.6 -38.75 192.55 -42.35 192.45 -45.55 192.6 -49.6 192.8 -50.55 189.55 L-50.55 189.45 -56.85 189.6 Q-58.55 189.5 -59.8 188.85 L-61.05 187.9 Q-61.65 189.2 -63.7 189.1 L-64.8 189.05 Q-66.5 188.2 -68.85 187.95 -70.5 187.7 -71.1 187.15 L-75.05 186.95 -74.85 185.4 -71.3 185.75 -69.9 185.75 -70.75 184.8 Q-73.5 181.45 -72.05 176.55 -71.6 174.85 -70.6 173.0 L-68.95 169.45 Q-66.6 163.4 -66.55 157.0 -66.6 147.8 -62.55 141.3 -59.3 136.1 -58.7 128.75 L-58.75 115.1 -58.75 113.1 -59.05 98.4 Q-59.15 95.6 -59.9 92.0 -48.35 85.8 -41.9 77.9 -35.15 69.6 -30.1 60.95 -27.05 55.6 -24.3 50.05 -18.5 38.15 -15.2 27.1 -13.0 19.85 -6.0 17.7 -1.0 29.55 -3.2 42.7 -5.45 55.85 -2.05 69.6 1.3 83.3 -1.1 94.55 L-1.15 94.55 Q-0.15 96.05 0.3 99.15 1.3 105.5 -1.6 114.3 -5.4 125.95 -5.25 139.15 -5.1 146.75 -0.45 150.6 9.8 159.05 11.4 171.35 15.05 173.8 18.6 175.5 M-87.0 198.0 Q-94.5 198.9 -99.25 205.3 -104.1 211.8 -112.65 215.55 -121.5 216.95 -128.25 216.95 -126.45 214.1 -125.0 211.45 -124.55 210.55 -123.75 209.95 -123.15 207.8 -123.3 205.1 -125.5 205.4 -127.15 206.3 -128.55 206.95 -129.55 208.0 -131.85 210.25 -132.7 212.55 L-133.35 214.6 -133.6 215.85 -136.2 215.9 -134.05 212.5 Q-134.1 212.1 -133.35 210.55 -132.65 208.95 -132.6 207.45 L-134.6 207.4 -135.45 208.05 Q-137.0 209.25 -138.4 210.9 L-138.75 210.75 Q-137.9 207.85 -138.55 206.6 L-140.55 208.0 -142.55 209.65 Q-140.45 205.45 -140.8 203.4 -142.65 204.45 -144.3 205.95 -143.35 204.85 -142.85 203.75 -142.35 202.4 -142.5 201.1 -144.75 202.9 -146.8 205.5 -148.05 204.4 -147.95 202.8 -147.55 197.55 -148.6 193.15 -151.55 195.3 -151.7 198.85 -151.85 202.9 -150.35 205.9 -151.7 207.75 -153.2 205.4 L-153.3 203.05 Q-153.35 197.8 -155.75 194.4 -157.7 198.35 -157.1 203.75 L-156.75 205.9 Q-157.6 206.9 -158.75 205.65 -158.75 203.5 -159.0 201.3 -159.45 197.2 -161.85 194.6 -163.4 198.25 -162.95 202.55 L-162.65 204.0 -162.65 205.65 Q-164.5 205.9 -165.7 203.6 L-166.0 204.5 Q-167.9 208.55 -171.15 206.75 -170.75 204.7 -170.7 202.55 -170.6 196.95 -173.55 193.95 -175.2 194.7 -175.3 196.85 -173.55 199.75 -174.1 204.55 -178.6 205.05 -180.15 200.8 -181.3 197.6 -180.5 193.9 L-180.5 193.85 Q-182.65 188.55 -179.55 184.6 -177.85 182.3 -176.7 178.85 -175.15 173.6 -174.55 169.1 L-174.15 164.9 Q-176.0 166.05 -178.25 166.25 -175.5 163.7 -174.1 160.2 -178.25 154.85 -180.65 147.3 -183.05 139.75 -187.1 131.75 -191.15 123.75 -193.6 115.4 -196.05 107.05 -199.25 97.8 -202.35 88.55 -204.45 79.4 -206.6 70.25 -211.95 62.9 -217.3 55.5 -219.0 44.95 -220.8 34.35 -221.2 23.05 -221.65 11.75 -218.4 0.85 L-228.05 -10.75 Q-231.8 -15.65 -235.05 -24.45 -239.65 -30.1 -239.6 -40.5 -239.55 -50.5 -234.85 -57.35 L-233.1 -59.8 Q-234.6 -66.25 -232.4 -70.7 -234.35 -75.2 -234.25 -81.2 L-234.25 -84.65 Q-225.3 -76.6 -216.15 -88.75 -213.6 -92.2 -207.15 -91.7 L-209.6 -93.9 Q-210.6 -94.65 -211.7 -95.2 -208.05 -96.45 -203.65 -96.9 L-195.65 -97.2 Q-199.05 -89.5 -191.3 -85.8 L-193.5 -85.55 Q-197.25 -85.1 -201.0 -83.65 -205.85 -81.8 -210.75 -78.35 L-224.9 -68.15 -228.85 -64.7 Q-231.05 -62.55 -233.1 -59.8 -231.65 -57.55 -230.95 -55.9 -226.6 -45.6 -218.65 -37.45 -210.45 -29.1 -203.7 -24.9 -193.35 -22.25 -189.35 -15.15 L-189.15 -14.7 Q-189.15 -11.65 -190.05 -8.45 L-193.5 4.4 Q-197.15 7.25 -194.2 11.4 -191.9 11.8 -190.4 13.5 L-190.4 13.95 Q-190.5 15.9 -190.0 17.4 -189.55 18.8 -188.55 19.85 L-184.6 23.5 Q-181.4 24.4 -177.95 24.3 L-171.65 24.2 -164.7 23.95 Q-162.05 23.75 -160.15 21.8 L-155.7 17.8 -154.45 16.65 Q-153.05 15.15 -152.1 13.25 -151.5 11.95 -151.6 10.1 L-151.65 5.95 Q-142.15 -1.3 -135.75 -8.25 -128.95 -15.8 -125.9 -26.2 -124.05 -32.8 -116.0 -31.85 L-116.0 -31.8 -115.5 -31.8 -114.05 -35.5 Q-111.2 -44.55 -116.3 -54.95 -117.8 -58.05 -119.55 -60.35 -122.45 -64.15 -126.1 -66.0 -129.95 -68.15 -133.4 -70.95 L-134.5 -71.85 Q-133.8 -73.55 -134.35 -75.8 -138.8 -78.25 -143.25 -81.2 -140.45 -92.55 -127.65 -88.65 -116.2 -85.2 -120.9 -70.6 -121.8 -67.75 -119.55 -60.4 L-116.5 -64.55 Q-115.2 -66.45 -114.55 -68.7 L-106.25 -46.8 Q-101.55 -34.5 -108.45 -23.1 -110.25 -20.15 -111.85 -16.8 -116.85 -6.75 -123.8 1.0 -131.4 9.5 -135.85 18.65 L-141.2 29.0 Q-137.0 36.35 -129.4 34.9 L-125.9 27.65 Q-124.85 25.2 -124.6 22.5 -119.15 29.35 -117.7 36.5 -115.3 48.5 -113.6 60.55 -111.8 73.6 -103.15 80.05 -104.5 94.0 -104.45 107.35 -104.45 118.65 -105.35 129.95 -106.7 146.1 -94.75 151.25 -88.45 153.95 -87.65 161.05 -86.4 172.0 -89.9 180.6 -91.3 183.95 -93.4 186.95 -88.8 190.65 -87.0 198.0 M-123.65 109.05 L-126.95 108.55 Q-127.2 118.25 -127.7 119.35 -129.05 122.35 -130.25 125.95 -131.55 129.65 -131.6 133.8 L-131.85 142.5 Q-131.95 146.85 -131.6 151.0 -131.55 152.75 -131.05 154.35 L-128.8 161.75 Q-130.75 161.9 -131.5 160.2 -130.95 165.45 -129.8 169.0 L-131.5 168.85 Q-131.7 171.2 -130.8 171.95 -127.7 174.65 -126.85 179.95 -125.65 177.3 -125.1 173.95 L-123.4 161.55 Q-122.75 156.1 -122.65 150.75 -122.45 142.1 -122.7 133.7 L-122.8 126.5 -123.5 110.45 -123.65 109.05 M-140.5 196.6 Q-140.95 192.8 -141.65 190.2 L-142.9 191.45 Q-145.8 195.35 -144.65 201.2 -142.95 198.55 -140.5 196.6 M-29.6 115.55 Q-31.35 112.8 -32.55 109.15 -33.7 105.7 -35.55 103.15 L-35.9 111.75 Q-36.3 117.5 -36.25 123.65 -36.25 126.2 -36.95 128.55 -38.45 133.7 -38.2 140.0 -38.0 146.15 -38.25 152.2 L-38.9 164.3 Q-38.05 165.35 -38.1 167.1 -38.25 171.0 -35.95 172.65 -38.35 172.3 -40.45 171.25 -39.05 172.95 -39.5 175.7 -39.95 177.95 -38.6 179.15 -36.4 181.05 -36.05 185.0 -36.15 183.25 -35.3 181.75 -34.4 180.05 -33.35 179.6 L-31.65 179.1 -31.45 179.1 -31.6 178.95 -26.85 173.5 Q-24.5 170.6 -23.2 167.55 -24.45 168.2 -26.55 168.05 -24.1 165.4 -23.85 161.35 L-23.65 153.0 Q-23.65 148.7 -23.8 144.4 -23.9 140.1 -23.35 136.05 -22.8 131.75 -23.15 127.45 -23.55 123.55 -25.65 120.5 -27.8 118.3 -29.6 115.55 M-57.85 171.35 L-56.95 171.45 -56.9 170.85 -57.85 171.35 M-66.25 184.2 Q-64.45 184.5 -64.1 182.9 -65.1 181.65 -66.25 180.9 -67.4 180.2 -68.45 181.55 L-69.45 183.3 Q-68.2 182.25 -66.85 183.5 L-66.25 184.2 M-49.5 184.05 Q-49.45 185.35 -48.85 186.5 -48.4 185.6 -47.6 186.2 -45.8 184.8 -47.1 182.4 -49.8 179.15 -49.5 184.05 M-59.2 184.9 Q-57.9 184.35 -57.15 185.7 -55.1 185.5 -56.0 183.4 -58.45 180.4 -59.2 184.9 M-28.15 184.5 Q-28.65 184.55 -29.0 184.85 -30.25 185.85 -29.9 187.35 L-29.45 186.75 Q-29.25 186.35 -28.85 186.5 L-28.3 186.7 -26.6 187.35 -26.25 186.3 Q-25.85 184.55 -27.75 184.5 L-27.85 184.5 -27.9 184.5 -28.0 184.5 -28.05 184.5 -28.1 184.5 -28.15 184.45 -28.15 184.5 M-36.05 185.0 L-36.0 185.35 Q-36.6 185.75 -36.8 186.4 L-37.05 187.7 -37.2 188.2 Q-35.95 186.8 -35.25 188.45 -33.15 188.9 -32.7 187.6 -32.35 186.7 -32.9 186.35 -33.4 184.4 -34.7 184.75 -35.45 184.95 -35.95 185.3 L-36.05 185.0 M-20.75 187.4 Q-19.0 187.7 -19.0 186.05 -19.85 185.1 -20.6 185.0 -21.8 184.85 -22.75 186.85 -21.45 186.45 -20.75 187.4 M-6.55 189.65 L-3.15 190.05 Q-3.95 187.1 -6.55 186.3 -6.95 188.25 -6.55 189.65" fill="#010101" fill-opacity="0.2" fill-rule="evenodd" stroke="none"/>
    <path d="M-203.65 -96.9 Q-200.95 -99.95 -197.4 -100.7 L-180.55 -104.75 Q-172.75 -106.8 -162.7 -105.95 L-159.85 -106.8 Q-152.15 -109.15 -141.75 -107.65 L-122.8 -106.2 Q-113.15 -106.15 -106.9 -101.5 L-105.2 -100.2 Q-95.1 -101.35 -87.2 -105.9 -79.35 -110.5 -74.25 -112.15 -69.15 -113.8 -60.45 -112.45 -51.85 -111.15 -43.0 -108.85 -34.2 -106.6 -24.25 -102.55 -14.3 -98.5 -7.65 -93.85 -1.05 -89.25 5.05 -83.7 11.1 -78.2 16.3 -69.4 21.45 -60.65 22.25 -56.55 23.0 -52.45 37.85 -13.7 45.3 60.45 30.75 82.1 L27.55 107.75 Q26.2 116.95 22.5 125.05 21.0 132.2 20.3 139.3 19.05 150.3 19.2 161.85 L19.05 169.85 19.05 170.0 Q19.4 174.55 23.2 175.75 L18.65 175.5 18.6 175.5 Q15.05 173.8 11.4 171.35 9.8 159.05 -0.45 150.6 -5.1 146.75 -5.25 139.15 -5.4 125.95 -1.6 114.3 1.3 105.5 0.3 99.15 -0.15 96.05 -1.15 94.55 L-1.1 94.55 Q1.3 83.3 -2.05 69.6 -5.45 55.85 -3.2 42.7 -1.0 29.55 -6.0 17.7 -13.0 19.85 -15.2 27.1 -18.5 38.15 -24.3 50.05 -27.05 55.6 -30.1 60.95 -35.15 69.6 -41.9 77.9 -48.35 85.8 -59.9 92.0 -59.15 95.6 -59.05 98.4 L-58.75 113.1 -58.75 115.1 -58.7 128.75 Q-59.3 136.1 -62.55 141.3 -66.6 147.8 -66.55 157.0 -66.6 163.4 -68.95 169.45 L-70.6 173.0 Q-71.6 174.85 -72.05 176.55 -73.5 181.45 -70.75 184.8 L-69.9 185.75 -71.3 185.75 -74.85 185.4 -75.05 186.95 Q-75.3 189.65 -74.75 191.8 -79.1 197.65 -85.1 197.85 L-87.0 198.0 Q-88.8 190.65 -93.4 186.95 -91.3 183.95 -89.9 180.6 -86.4 172.0 -87.65 161.05 -88.45 153.95 -94.75 151.25 -106.7 146.1 -105.35 129.95 -104.45 118.65 -104.45 107.35 -104.5 94.0 -103.15 80.05 -111.8 73.6 -113.6 60.55 -115.3 48.5 -117.7 36.5 -119.15 29.35 -124.6 22.5 -124.85 25.2 -125.9 27.65 L-129.4 34.9 Q-137.0 36.35 -141.2 29.0 L-135.85 18.65 Q-131.4 9.5 -123.8 1.0 -116.85 -6.75 -111.85 -16.8 -110.25 -20.15 -108.45 -23.1 -101.55 -34.5 -106.25 -46.8 L-114.55 -68.7 Q-115.2 -66.45 -116.5 -64.55 L-119.55 -60.4 Q-121.8 -67.75 -120.9 -70.6 -116.2 -85.2 -127.65 -88.65 -140.45 -92.55 -143.25 -81.2 -138.8 -78.25 -134.35 -75.8 -133.8 -73.55 -134.5 -71.85 L-133.4 -70.95 Q-129.95 -68.15 -126.1 -66.0 -122.45 -64.15 -119.55 -60.35 -117.8 -58.05 -116.3 -54.95 -111.2 -44.55 -114.05 -35.5 L-115.5 -31.8 -116.0 -31.85 Q-124.05 -32.8 -125.9 -26.2 -128.95 -15.8 -135.75 -8.25 -142.15 -1.3 -151.65 5.95 L-151.6 10.1 Q-151.5 11.95 -152.1 13.25 -153.05 15.15 -154.45 16.65 L-155.7 17.8 -160.15 21.8 Q-162.05 23.75 -164.7 23.95 L-171.65 24.2 -177.95 24.3 Q-181.4 24.4 -184.6 23.5 L-188.55 19.85 Q-189.55 18.8 -190.0 17.4 -190.5 15.9 -190.4 13.95 L-190.4 13.5 Q-191.9 11.8 -194.2 11.4 -197.15 7.25 -193.5 4.4 L-190.05 -8.45 Q-189.15 -11.65 -189.15 -14.7 L-189.15 -15.3 -189.35 -15.15 Q-193.35 -22.25 -203.7 -24.9 -210.45 -29.1 -218.65 -37.45 -226.6 -45.6 -230.95 -55.9 -231.65 -57.55 -233.1 -59.8 -231.05 -62.55 -228.85 -64.7 L-224.9 -68.15 -210.75 -78.35 Q-205.85 -81.8 -201.0 -83.65 -197.25 -85.1 -193.5 -85.55 L-191.3 -85.8 Q-199.05 -89.5 -195.65 -97.2 L-203.65 -96.9 M-234.25 -84.65 L-234.45 -87.8 Q-235.4 -96.4 -227.5 -98.15 -223.6 -96.4 -217.7 -96.65 -214.3 -96.45 -211.7 -95.2 -210.6 -94.65 -209.6 -93.9 L-207.15 -91.7 Q-213.6 -92.2 -216.15 -88.75 -225.3 -76.6 -234.25 -84.65 M-188.55 -29.05 Q-191.3 -31.8 -195.5 -32.15 -196.2 -25.9 -190.0 -26.45 -188.35 -26.65 -188.55 -29.05 M-166.25 -1.55 Q-169.35 -2.35 -172.1 -0.6 L-174.55 1.35 Q-176.45 3.1 -179.05 3.35 -180.55 4.0 -180.75 6.65 -180.95 9.25 -179.25 11.7 L-175.85 16.15 Q-174.15 18.1 -170.8 17.1 L-164.0 17.6 Q-160.45 17.5 -158.3 15.65 -155.9 13.45 -155.65 10.25 L-155.65 8.45 Q-154.55 8.2 -154.9 6.3 -156.05 5.3 -155.8 3.3 -158.3 1.55 -159.85 -0.55 -161.5 -2.8 -165.4 -2.2 -165.95 -2.1 -166.25 -1.55 M-148.45 -30.4 L-148.8 -30.85 Q-151.85 -34.55 -155.6 -29.3 -154.75 -26.75 -151.5 -27.55 -149.7 -28.65 -148.45 -30.4" fill="#010101" fill-opacity="0.0" fill-rule="evenodd" stroke="none"/>
  </g>
</svg>
