<?xml version="1.0" encoding="UTF-8" standalone="no"?>
<svg xmlns:xlink="http://www.w3.org/1999/xlink" height="121.5px" width="55.9px" xmlns="http://www.w3.org/2000/svg">
  <g transform="matrix(1.0, 0.0, 0.0, 1.0, -251.35, -232.45)">
    <path d="M271.15 242.75 Q278.45 238.35 284.2 232.45 287.6 240.65 294.05 247.7 299.0 253.15 305.8 257.9 L307.25 258.75 Q306.1 267.3 301.65 275.75 299.85 279.2 297.5 282.65 L294.7 286.65 Q296.45 289.7 297.7 292.75 301.5 302.3 299.45 311.0 297.2 320.65 287.65 329.25 L286.0 330.75 Q277.95 338.35 272.7 347.2 L270.8 350.55 Q270.35 352.3 270.2 353.95 267.3 351.35 264.9 348.45 257.95 340.25 254.6 329.95 251.2 319.55 251.35 307.1 251.5 296.65 254.1 284.75 L255.4 279.4 Q255.65 273.15 256.8 267.1 258.75 256.65 263.35 246.8 267.45 244.95 271.15 242.75" fill="#000000" fill-rule="evenodd" stroke="none"/>
  </g>
</svg>
