<?xml version="1.0" encoding="UTF-8" standalone="no"?>
<svg xmlns:xlink="http://www.w3.org/1999/xlink" height="336.95px" width="117.7px" xmlns="http://www.w3.org/2000/svg">
  <g transform="matrix(1.0, 0.0, 0.0, 1.0, -217.9, -143.0)">
    <path d="M330.0 148.3 Q322.8 156.95 322.1 175.7 321.7 185.45 323.1 198.0 324.85 205.0 324.85 212.75 324.85 221.55 322.6 229.4 L322.4 230.15 Q309.25 275.65 319.25 298.45 308.4 300.0 285.25 266.4 L279.25 267.5 278.65 267.55 272.8 267.85 272.1 267.85 268.9 267.7 265.2 267.35 268.5 256.9 Q255.4 258.2 246.8 251.05 L244.65 259.2 241.65 256.9 238.6 254.25 237.75 253.95 Q235.55 252.85 234.45 250.0 220.8 234.4 220.8 212.75 220.8 204.65 222.75 197.35 226.2 184.2 236.0 173.8 251.25 157.7 272.8 157.7 L279.25 158.25 287.95 159.4 Q297.9 153.9 312.45 148.5 327.0 143.05 335.6 143.0 332.4 145.4 330.0 148.3 M246.8 244.45 L246.9 244.45 246.8 244.4 246.8 244.45 M233.85 299.4 L231.9 306.6 230.1 311.0 Q225.45 319.1 230.15 327.25 L230.8 331.5 230.8 331.55 230.85 331.8 231.5 338.1 Q228.2 337.1 225.85 336.05 L224.35 334.5 Q218.95 328.45 218.95 319.85 218.95 311.25 224.35 305.1 228.4 300.5 233.85 299.4 M242.75 387.4 Q246.45 386.25 250.85 386.4 L250.55 382.85 254.1 383.05 254.15 383.2 254.2 383.6 257.95 388.15 274.25 393.35 279.9 402.5 276.9 406.9 282.35 416.75 297.15 415.4 300.5 421.7 296.4 423.65 299.0 428.6 297.25 430.2 300.15 435.7 296.95 436.8 299.95 442.55 297.55 444.0 300.2 449.15 297.05 451.0 299.55 455.8 297.35 457.7 300.0 462.75 296.0 464.3 298.95 469.9 296.6 471.35 300.0 477.9 294.8 479.9 294.7 479.95 294.7 479.9 287.8 478.95 284.4 472.4 280.8 471.55 277.8 465.9 272.65 465.2 270.0 460.15 266.1 458.8 263.65 454.0 258.85 452.85 256.2 447.7 252.5 446.8 249.45 441.1 245.45 440.6 242.6 435.1 239.35 433.95 236.85 429.0 231.1 427.95 227.85 421.65 262.5 418.5 262.5 418.55 262.6 418.55 275.9 417.35 273.15 412.15 254.75 413.8 254.65 413.8 254.55 413.85 254.15 413.85 245.85 414.6 247.6 417.9 224.8 411.75 217.9 393.95 232.55 386.75 232.55 386.7 Q234.4 385.7 236.35 385.0 L236.9 390.2 Q239.55 388.3 242.75 387.4 M254.35 302.15 L255.15 302.9 Q260.8 309.05 260.85 317.65 260.8 326.25 255.15 332.3 251.55 336.15 246.95 337.6 L246.7 334.4 246.45 331.65 245.95 331.5 245.95 329.1 Q253.15 323.35 250.55 314.3 L254.35 302.15" fill="#000000" fill-rule="evenodd" stroke="none"/>
  </g>
</svg>
