<?xml version="1.0" encoding="UTF-8" standalone="no"?>
<svg xmlns:xlink="http://www.w3.org/1999/xlink" height="404.9px" width="253.55px" xmlns="http://www.w3.org/2000/svg">
  <g transform="matrix(1.0, 0.0, 0.0, 1.0, -133.35, -159.7)">
    <path d="M329.6 210.05 Q331.55 208.6 333.75 210.25 L338.75 214.0 Q340.95 215.65 343.2 218.2 L347.55 223.3 Q349.65 225.9 350.45 228.75 351.15 231.5 351.15 233.8 L349.55 232.25 344.3 229.0 Q341.8 227.45 339.9 224.6 338.2 222.25 335.6 220.65 333.0 219.2 330.15 218.35 L324.35 217.2 318.9 216.5 318.15 216.8 310.45 219.85 310.6 221.85 Q312.15 222.35 313.75 223.3 L319.5 226.7 324.75 229.35 Q326.9 230.35 328.5 233.15 330.0 236.05 329.15 238.5 328.35 240.65 327.75 243.5 327.3 245.75 326.1 248.1 324.9 250.55 323.2 252.8 321.6 250.15 321.8 247.65 321.95 245.15 321.6 242.7 321.15 240.2 319.9 237.55 L319.4 236.35 Q317.6 235.95 316.75 234.75 L312.4 229.75 308.4 226.25 Q305.75 224.35 302.0 224.25 299.55 224.2 298.65 225.75 298.15 226.55 298.05 227.8 302.35 255.65 311.25 281.2 333.8 332.55 338.9 377.15 342.0 380.2 340.5 384.7 335.6 501.9 386.2 563.8 L386.4 564.1 386.1 563.85 385.25 563.3 Q380.6 559.8 376.3 554.9 292.6 477.3 274.45 507.7 278.5 493.5 281.75 479.65 263.25 469.0 243.95 478.9 235.35 483.3 228.25 491.65 L239.85 436.75 Q219.5 428.65 201.9 438.05 197.5 440.45 196.0 443.65 190.8 421.05 191.6 398.15 179.55 386.45 169.65 379.8 159.75 373.1 135.9 388.0 127.45 316.0 153.6 282.25 150.8 275.5 154.6 269.4 158.15 263.7 160.65 257.5 163.55 250.15 173.35 248.3 179.35 244.1 186.9 240.25 195.1 235.9 200.75 230.65 206.75 225.05 210.0 219.15 213.0 213.55 213.65 207.25 215.45 201.4 220.5 196.7 224.15 193.3 229.5 191.05 L229.95 189.05 Q231.45 182.6 233.3 176.45 234.85 171.7 239.9 168.7 247.9 163.6 255.4 161.75 263.0 159.75 269.9 160.3 272.4 160.55 274.5 161.8 L277.25 163.25 Q281.0 161.7 285.8 161.9 292.2 162.0 298.05 163.4 305.8 165.1 312.15 167.25 319.3 169.55 323.35 177.4 307.95 181.15 301.55 186.1 L296.15 189.85 Q294.8 192.5 293.6 195.25 290.5 202.45 288.35 210.15 L292.85 210.05 304.75 208.9 314.0 209.35 Q317.75 210.05 317.2 211.95 L321.7 211.5 329.55 210.05 329.6 210.05" fill="none" stroke="#000000" stroke-linecap="round" stroke-linejoin="round" stroke-width="1.0"/>
    <path d="M329.55 210.05 L328.5 211.0 Q327.35 212.3 327.9 213.75 L328.9 215.65 M294.8 229.6 L291.6 229.35 309.55 290.3 Q326.15 330.95 329.6 373.6 323.6 375.65 330.9 382.45 L333.8 384.95 M335.3 374.8 Q337.15 375.65 338.5 376.8 L338.9 377.15 M340.5 384.7 L340.0 385.9 Q338.55 389.3 336.1 390.5 M277.25 163.25 Q273.8 164.65 271.2 167.35 266.3 172.25 260.05 176.7 257.1 178.8 253.65 180.3 M296.15 189.85 Q291.65 192.45 286.45 194.4 282.95 195.7 279.45 196.1 L278.65 196.15 271.9 195.75 270.4 195.5 Q263.5 194.45 256.5 196.8 M135.9 388.0 Q137.1 311.55 160.6 282.3 L158.45 282.25 M160.2 311.0 L154.8 314.4 151.05 316.8 Q150.65 317.15 150.55 317.75 M197.1 301.05 Q197.75 299.7 195.75 298.7 192.4 298.45 188.8 296.7 L187.0 295.8 186.7 295.7 186.55 295.65 Q180.9 293.65 175.45 294.6 L172.15 294.7 Q169.85 294.4 168.25 292.2 166.4 294.95 166.35 298.2 166.35 299.0 166.0 299.8 L161.85 310.75 161.75 311.15 Q161.15 312.6 161.2 314.2 161.2 316.45 159.55 317.8 159.05 318.2 158.8 319.05 158.25 320.4 157.25 321.5 L156.05 322.7 Q155.65 323.1 155.55 323.6 M310.6 221.85 L310.0 221.7 308.45 221.4 M310.45 219.85 Q310.2 218.35 309.55 217.35 307.4 214.35 301.05 215.8 M317.2 211.95 L315.95 212.0 313.2 212.35 M318.9 216.5 L318.0 216.4 311.75 216.6 M288.35 210.15 L284.55 209.4 Q281.85 208.65 279.1 207.25 L278.2 208.0 Q274.4 211.45 274.9 214.75 279.0 215.0 281.0 217.2 282.25 218.5 282.75 220.65 283.65 235.3 280.25 245.75 287.65 240.2 291.6 229.35 288.2 228.35 288.35 223.9 M295.0 226.85 Q296.2 225.8 296.8 224.8 298.6 221.8 294.55 219.05 M319.4 236.35 Q318.95 234.4 320.15 232.65 M284.55 209.4 Q282.55 207.15 280.45 205.7 277.6 203.8 274.5 203.35 L272.65 203.25 Q268.3 208.7 260.3 213.1 L249.25 218.8 244.5 221.05 228.35 228.55 225.65 229.9 222.55 231.55 Q218.15 234.15 214.7 237.4 210.3 241.35 208.5 245.05 M281.0 217.2 Q279.6 218.4 278.6 219.35 271.2 218.0 263.45 221.1 259.0 222.95 254.6 225.0 251.2 253.05 223.05 296.7 193.3 348.15 191.6 398.15 M254.6 225.0 Q251.1 226.55 247.7 228.25 239.75 232.2 231.9 236.35 223.95 240.4 218.45 245.75 212.6 251.4 206.0 256.6 L199.55 261.1 Q195.8 263.35 191.6 265.3 183.7 268.95 176.55 273.45 169.6 277.7 162.0 281.8 L160.6 282.3 M257.8 261.3 L258.25 262.0 Q258.8 262.75 258.6 263.3 258.1 265.0 258.8 266.45 259.2 267.4 259.2 268.25 L258.7 269.75 260.7 268.15 Q262.05 266.7 262.45 264.8 262.85 262.65 263.85 260.85 L265.1 258.95 266.0 257.7 266.45 256.2 266.65 255.05 M243.9 274.8 Q242.1 277.9 241.15 282.05 239.35 289.05 237.15 293.65 L236.75 295.3 236.55 296.4 235.7 299.3 Q239.45 299.3 243.45 296.95 L246.85 294.3 247.65 293.0 Q247.85 292.15 248.2 291.4 L250.9 285.4 251.25 284.3 Q251.5 281.05 252.4 278.0 253.05 275.15 254.7 272.7 255.1 272.05 256.0 271.7 258.0 270.9 258.7 269.75 M220.45 223.15 Q216.7 216.25 222.1 210.75 226.3 206.4 232.9 203.7 L236.25 202.1 M222.55 231.55 Q214.85 228.1 206.6 232.5 198.8 236.75 191.2 241.15 184.15 245.3 178.55 250.75 175.4 253.8 173.4 257.25 L169.15 263.35 M200.75 262.4 Q200.55 263.8 199.5 265.7 198.35 267.65 198.2 269.1 L197.55 270.65 Q194.4 274.35 190.2 274.7 189.35 274.75 188.6 275.15 185.3 276.8 182.2 278.75 L180.7 279.65 Q176.75 282.1 176.0 284.8 L175.05 285.9 173.65 287.05 Q170.05 289.4 168.25 292.2 L167.2 290.55 M211.95 362.4 Q216.65 359.5 216.3 355.65 L216.55 354.55 Q217.1 353.75 217.05 353.05 217.05 350.0 219.65 347.55 222.55 344.75 225.45 346.0 L226.35 346.6 226.5 346.65 226.55 346.3 Q228.7 339.45 232.45 334.25 L233.15 332.7 Q233.65 330.2 234.65 328.2 236.05 325.1 235.75 321.3 235.65 319.55 234.85 317.9 233.45 314.85 234.1 312.6 L235.25 307.4 235.3 306.35 235.15 303.8 Q235.05 301.55 235.5 299.8 L235.7 299.3 M185.9 297.2 Q186.35 299.0 186.35 301.6 L186.6 302.5 Q188.4 305.75 185.9 308.3 185.35 308.8 185.0 309.55 184.3 311.2 184.5 313.0 M223.65 373.45 Q223.45 371.1 224.75 368.9 226.1 366.6 227.25 363.0 L227.9 361.3 228.25 359.65 Q228.35 358.45 228.7 357.3 229.05 355.65 228.85 353.9 228.3 350.45 226.05 346.95 L225.45 346.0 M293.05 323.85 Q293.6 320.95 297.15 318.45 298.55 317.35 300.15 316.55 301.75 319.1 300.75 322.05 300.05 324.15 301.65 326.1 L306.15 331.45 311.4 337.45 314.8 341.25 Q316.7 343.4 316.2 344.85 315.9 345.9 316.1 347.15 316.55 351.25 315.2 354.15 314.9 354.95 314.9 355.65 314.95 356.75 315.35 357.9 315.55 358.35 315.1 358.8 313.05 360.75 315.2 363.65 315.5 364.05 315.4 364.85 315.2 366.0 315.5 367.3 316.95 371.75 315.75 374.5 315.15 375.7 314.6 377.9 L313.5 383.55 Q313.0 386.0 314.8 388.35 L315.15 389.25 Q315.6 393.7 313.8 397.45 312.8 399.4 314.7 402.2 315.8 402.5 316.7 403.5 M277.9 374.65 Q278.9 377.2 277.65 379.0 276.8 380.2 276.0 382.05 275.45 383.05 275.05 384.8 L274.45 386.4 273.4 388.7 Q272.25 390.7 271.6 392.9 270.25 397.5 269.2 403.1 268.85 405.2 269.0 407.3 L270.0 415.35 Q270.25 418.05 268.6 420.95 268.3 421.45 268.3 421.95 268.45 424.3 265.5 426.25 263.4 427.55 263.2 428.7 L262.2 430.9 Q260.25 433.8 256.6 437.05 256.05 437.45 255.7 438.2 258.8 440.05 263.25 442.3 266.3 443.65 268.45 446.35 272.0 450.85 270.4 456.0 L269.8 457.6 Q269.4 458.6 269.2 460.4 269.05 461.1 269.6 461.75 L270.5 463.2 M281.75 479.65 Q300.05 399.6 291.95 323.95 290.25 308.15 287.4 292.55 M229.5 191.05 Q228.15 196.9 227.15 202.5 M316.7 421.35 Q317.1 419.55 316.55 418.5 315.9 416.9 316.3 415.2 L316.7 413.65 Q316.9 412.8 317.35 412.1 319.75 408.4 315.4 403.15 L314.7 402.2 312.75 402.25 311.65 402.6 Q307.65 403.9 305.75 406.8 304.85 408.2 304.8 410.7 L304.85 412.9 304.75 414.4 Q304.2 415.85 302.25 417.55 301.85 417.95 301.85 418.45 301.85 420.45 301.05 422.55 300.25 424.95 302.65 428.3 304.65 431.15 306.85 433.8 L307.55 434.5 Q308.8 435.7 309.35 437.2 L309.8 438.0 Q311.6 441.35 310.15 444.3 308.45 447.7 308.2 451.1 M255.7 438.2 L254.6 440.45 253.85 442.0 Q253.1 443.6 253.2 445.45 L253.4 447.3 M268.85 457.4 Q264.65 458.95 261.7 458.85 260.5 458.75 259.25 459.3 254.85 460.8 255.05 463.25 L254.9 464.35 Q253.85 466.75 254.9 469.1 M376.3 554.9 Q340.9 514.8 330.9 382.45 M239.85 436.75 L280.25 245.75" fill="none" stroke="#000000" stroke-linecap="round" stroke-linejoin="round" stroke-opacity="0.5019608" stroke-width="1.0"/>
  </g>
</svg>
