<?xml version="1.0" encoding="UTF-8" standalone="no"?>
<svg xmlns:xlink="http://www.w3.org/1999/xlink" height="282.45px" width="102.55px" xmlns="http://www.w3.org/2000/svg">
  <g transform="matrix(1.0, 0.0, 0.0, 1.0, -204.75, -159.65)">
    <path d="M283.75 232.4 Q291.3 248.1 303.6 256.65 L303.9 256.85 Q304.7 256.95 305.3 257.55 L305.7 258.05 306.8 258.7 Q300.95 282.0 283.75 296.85 L283.75 296.9 Q287.85 304.5 291.45 314.75 294.9 334.0 296.25 355.35 L296.55 361.95 Q298.35 362.0 299.65 363.25 300.95 364.6 300.95 366.45 300.95 368.3 299.65 369.6 298.5 370.75 297.0 370.95 L297.1 373.5 295.55 377.3 302.1 394.5 298.2 403.45 305.15 427.6 304.55 428.0 303.55 428.55 Q300.4 430.05 297.2 429.4 295.1 428.95 293.1 427.6 289.45 437.05 284.4 440.15 278.6 443.65 271.05 438.65 L269.1 436.45 267.1 434.15 228.9 415.55 227.9 411.6 221.05 385.55 Q218.95 383.25 216.95 380.4 L216.55 377.65 216.1 377.65 Q214.25 377.65 212.95 376.3 211.6 375.0 211.6 373.15 211.6 371.3 212.95 369.95 L213.45 369.5 Q214.3 368.85 215.35 368.7 L214.5 362.35 Q201.6 310.3 206.65 272.95 L214.35 250.0 Q221.0 239.0 225.1 252.45 L228.45 257.2 Q233.15 254.85 236.45 256.95 L242.15 245.3 237.7 244.05 Q237.05 238.35 240.45 234.3 235.8 224.4 242.95 217.6 240.05 214.05 241.55 210.75 236.6 182.9 248.85 173.3 255.05 169.5 262.15 166.55 271.8 162.55 283.85 160.15 277.25 164.05 273.55 167.95 282.5 180.55 296.6 188.8 287.4 206.35 285.1 223.9 284.5 228.35 284.35 232.8 M274.45 283.75 Q267.6 276.7 259.65 275.3 L269.15 252.95 Q272.1 251.1 272.1 246.55 277.6 258.1 287.55 265.3 M287.7 266.5 L287.55 265.3 M288.05 267.35 Q282.55 277.05 274.45 283.75" fill="none" stroke="#000000" stroke-linecap="round" stroke-linejoin="round" stroke-width="1.0"/>
    <path d="M284.35 232.8 L283.75 232.4 283.1 231.9 Q282.6 234.75 281.4 237.2 286.6 247.25 293.85 254.2 L297.5 257.45 299.85 257.55 301.3 257.9 301.55 257.55 Q302.35 256.8 303.45 256.8 L303.6 256.8 303.9 256.85 M254.2 220.7 Q253.75 218.6 243.55 217.65 L243.0 217.6 242.95 217.6 M254.0 221.5 Q246.7 228.6 249.9 237.85 L251.45 239.1 Q257.45 243.65 264.2 243.15 272.45 238.3 270.15 227.25 264.25 219.85 254.1 221.5 L254.0 221.5 M283.1 231.9 L283.1 231.85 282.85 231.65 282.6 231.5 282.45 231.35 Q273.45 224.15 270.15 227.25 M272.1 246.1 L271.9 246.1 272.1 246.55 272.1 246.1 Q278.65 242.85 281.4 237.2 M264.2 243.15 Q262.4 244.6 271.6 246.05 L271.9 246.1 M283.75 296.85 L281.55 293.1 Q278.15 287.55 274.45 283.75 M259.65 275.3 Q254.25 274.25 249.55 272.5 245.6 271.0 242.15 269.0 L241.8 268.85 Q234.05 264.3 228.45 257.2 M269.15 252.95 L258.95 250.05 249.55 272.5 M287.55 265.3 Q287.55 263.9 288.6 262.35 290.3 259.85 293.65 258.45 295.65 257.6 297.5 257.45 M258.95 250.05 L250.2 247.6 241.8 268.85 Q241.7 259.55 236.45 256.95 M305.7 258.05 Q306.1 258.65 306.1 259.45 306.1 260.55 305.3 261.3 304.75 261.9 304.05 262.05 303.85 263.3 302.95 264.7 301.95 266.15 300.35 267.25 293.9 282.35 281.55 293.1 M287.7 266.5 L301.25 260.95 Q300.9 260.45 300.85 259.9 L300.8 259.45 Q300.8 258.55 301.3 257.9 M287.7 266.5 L287.85 266.95 288.05 267.35 Q289.05 269.1 291.7 269.55 294.65 270.0 297.95 268.55 L300.35 267.25 M304.05 262.05 L303.45 262.1 302.4 261.9 301.55 261.3 301.25 260.95 M284.35 232.8 L282.85 231.65 M215.35 368.7 L215.95 373.2 216.55 377.6 216.55 377.65 M221.05 385.55 L224.65 388.95 Q230.35 393.65 236.85 394.5 239.05 394.75 241.4 394.55 L274.5 391.4 Q282.3 389.65 287.55 386.15 L289.15 385.0 Q293.25 381.75 295.55 377.3 M241.45 389.75 L243.2 389.45 244.65 388.4 Q245.95 387.1 245.95 385.25 245.95 383.95 245.3 382.9 L244.65 382.05 Q243.4 380.85 241.75 380.75 L241.45 380.75 Q239.6 380.75 238.3 382.05 237.45 382.9 237.15 384.0 L236.95 385.25 Q236.95 387.1 238.3 388.4 239.6 389.75 241.45 389.75 M296.25 355.35 Q293.25 363.95 285.1 368.75 280.15 371.7 273.25 373.2 L240.15 376.35 Q226.25 377.4 214.5 362.35 M273.5 380.75 Q273.5 382.6 274.85 383.9 276.15 385.25 278.0 385.25 279.85 385.25 281.2 383.9 282.5 382.6 282.5 380.75 282.5 378.9 281.2 377.55 279.85 376.25 278.0 376.25 276.15 376.25 274.85 377.55 273.5 378.9 273.5 380.75 M296.55 361.95 L297.0 370.95 M285.1 223.9 L241.55 210.75 M242.15 245.3 L250.2 247.6 M240.45 234.3 Q248.95 240.4 249.9 237.85" fill="none" stroke="#000000" stroke-linecap="round" stroke-linejoin="round" stroke-opacity="0.49803922" stroke-width="1.0"/>
    <path d="M287.55 386.15 L287.55 394.9 302.1 394.5 M228.9 415.55 L258.0 423.55 259.5 423.95 Q276.4 427.0 287.55 411.8 L287.55 402.25 287.55 400.3 282.65 408.55 Q273.2 420.35 255.1 417.6 L227.9 411.6 M298.2 403.45 L287.55 402.25 M287.55 411.8 L287.55 418.2 289.45 421.5 291.3 424.55 293.1 427.6 M289.45 421.5 L284.5 424.5 M267.1 434.15 L258.0 423.55 M269.1 436.45 Q284.65 442.85 291.3 424.55 M287.55 400.3 L287.55 394.9" fill="none" stroke="#000000" stroke-linecap="round" stroke-linejoin="round" stroke-opacity="0.5019608" stroke-width="1.0"/>
  </g>
</svg>
