<?xml version="1.0" encoding="UTF-8" standalone="no"?>
<svg xmlns:xlink="http://www.w3.org/1999/xlink" height="130.2px" width="335.25px" xmlns="http://www.w3.org/2000/svg">
  <g transform="matrix(1.0, 0.0, 0.0, 1.0, -231.55, -380.2)">
    <path d="M324.6 393.65 Q324.5 391.9 321.85 391.05 L315.65 390.6 Q316.7 392.55 319.15 395.0 321.35 397.35 323.25 396.5 323.6 397.95 324.95 398.3 326.45 398.7 327.2 397.95 L327.2 397.9 327.3 397.8 327.3 397.7 327.6 397.4 327.65 397.1 327.75 397.0 327.75 396.95 327.85 396.65 Q328.2 395.1 327.15 394.1 326.05 393.35 324.6 393.65 M238.65 389.75 Q237.65 390.05 237.05 390.65 L238.85 391.4 Q239.4 390.75 240.5 390.4 L240.2 389.8 Q239.9 389.2 239.9 388.55 L238.05 388.05 238.35 389.15 238.65 389.75 M238.85 391.4 L240.85 392.4 Q241.5 391.6 242.65 391.2 L242.35 390.65 Q242.0 389.9 242.0 389.2 L239.9 388.55 M234.8 389.7 L236.05 388.8 235.8 388.2 235.65 387.35 234.65 387.05 234.8 387.8 235.05 388.4 233.85 389.25 234.8 389.7 236.05 390.2 Q236.55 389.6 237.35 389.25 L237.15 388.65 236.95 387.75 235.65 387.35 M237.05 390.65 L236.05 390.2 M238.05 388.05 L236.95 387.75 M245.0 391.6 L245.35 392.2 Q243.95 392.55 243.2 393.35 L245.75 394.5 Q246.55 393.6 248.25 393.2 L247.8 392.7 Q247.15 391.65 247.15 390.7 L244.45 389.9 Q244.5 390.75 245.0 391.6 M252.6 394.5 Q252.5 393.4 252.85 392.4 L249.0 391.1 Q248.85 392.1 249.15 393.15 L249.25 393.6 Q248.0 394.35 247.45 395.3 L251.25 396.8 Q251.65 395.7 252.6 394.85 L252.6 394.5 M255.05 390.9 L254.45 391.9 Q253.7 392.9 253.05 394.65 L252.9 394.95 Q252.25 396.8 252.15 398.3 L251.95 399.45 M257.6 391.65 Q256.55 393.05 255.55 395.55 L255.45 395.85 Q254.45 398.7 254.35 400.5 M296.15 397.05 Q296.85 396.45 298.05 396.35 298.35 396.2 299.15 396.35 299.55 396.4 299.65 396.15 299.95 395.25 299.3 394.6 L301.25 394.9 301.45 394.55 Q301.65 394.1 301.4 394.0 L302.25 394.5 302.75 394.2 Q303.15 393.8 303.75 394.05 L302.65 392.75 302.7 392.6 304.7 393.05 307.95 392.8 306.55 391.8 Q309.8 391.8 311.85 391.0 L313.8 390.8 313.8 390.75 312.35 389.6 Q316.15 390.15 317.45 388.8 L316.7 388.55 Q316.1 388.35 316.15 388.05 316.5 387.15 317.65 387.9 L318.05 387.35 Q318.5 386.25 318.2 385.6 M314.0 401.75 Q314.4 401.8 314.85 401.25 L314.9 401.15 314.3 400.85 314.65 400.4 314.75 400.0 314.25 399.9 312.75 399.0 312.9 398.7 312.95 398.0 311.35 397.85 310.95 397.65 Q311.15 396.95 310.85 396.75 310.25 397.6 309.45 397.35 L310.25 396.6 309.75 396.6 Q309.2 396.4 309.0 395.5 L308.9 395.5 308.75 396.05 308.3 396.3 308.0 396.1 307.75 396.05 307.25 396.6 Q307.75 395.85 306.8 395.6 L306.8 395.8 306.35 396.2 305.65 396.3 305.75 396.1 305.6 395.1 305.05 394.3 304.85 394.25 Q304.75 395.15 303.75 395.6 L302.7 396.65 302.7 396.6 Q302.7 396.3 302.15 396.1 L300.9 396.05 Q301.2 396.6 300.95 397.1 L300.35 398.3 300.35 398.45 Q300.05 398.0 299.6 397.95 L298.95 397.65 299.05 399.75 Q299.0 401.25 299.4 401.8 M243.2 393.35 L240.85 392.4 M244.45 389.9 L242.0 389.2 M233.6 385.5 L254.45 391.9 M316.85 403.0 L315.25 403.1 314.75 403.4 M293.45 402.35 L293.35 402.7 Q293.65 407.3 297.6 409.8 297.85 409.4 297.25 407.8 297.5 405.75 296.35 405.8 L297.5 404.3 297.55 403.55 Q297.05 403.95 296.4 403.85 297.25 403.6 297.5 403.0 298.2 401.1 296.3 400.35 L294.35 400.4 M299.3 402.05 L298.8 403.1 298.85 403.2 M283.55 412.6 Q283.55 410.6 285.0 406.6 286.45 402.65 287.75 401.15 M290.65 401.3 Q289.05 402.35 287.15 407.4 L287.15 407.45 Q285.3 412.5 285.9 414.35 M288.2 417.4 Q288.35 418.2 289.65 418.6 291.55 419.3 292.25 417.4 292.45 416.85 291.9 416.15 292.55 416.3 292.65 417.05 L293.05 416.5 293.25 414.45 Q294.05 415.25 295.15 413.55 296.65 412.7 296.65 412.35 292.1 411.7 288.85 415.0 L288.75 415.35 M293.4 418.1 L293.35 418.1 292.95 419.4 M296.65 412.35 L296.75 412.35 Q298.35 412.6 298.75 411.65 L290.85 408.75 288.85 415.0 M566.3 508.95 L298.85 411.65 Q298.85 412.05 297.55 412.7 294.6 414.3 293.35 418.1 M298.75 411.65 Q299.05 410.55 297.75 409.85 L297.6 409.8 M298.85 411.65 L298.75 411.65 M298.8 403.1 Q297.25 406.95 298.55 409.95 299.1 411.4 298.85 411.65 M293.35 402.7 Q292.15 405.35 290.85 408.75 M292.95 419.6 Q292.25 419.8 291.35 420.9 L289.95 422.45 290.6 422.75 291.55 422.7 291.45 422.85 291.15 424.1 290.35 425.0 291.35 425.8 292.15 425.7 292.25 427.05 Q292.75 428.2 292.25 428.85 L292.45 428.9 293.35 428.75 294.15 428.0 294.2 427.7 294.65 428.3 294.75 428.9 294.6 429.05 294.5 429.1 Q295.5 429.5 295.55 428.7 L295.65 429.4 296.15 429.5 Q296.45 429.65 296.4 430.05 L296.15 430.55 296.25 430.6 Q296.95 430.05 297.5 430.25 L297.9 430.6 Q298.05 429.65 297.8 429.4 298.55 429.75 298.5 430.8 298.85 430.8 299.1 430.1 L299.55 430.3 Q300.6 430.65 300.9 431.2 L301.25 430.6 301.35 430.35 303.05 430.6 303.55 430.85 303.75 430.5 303.75 429.9 304.4 430.0 304.45 429.8 Q304.45 429.15 304.05 429.05 M295.5 431.7 Q294.8 431.55 294.6 432.0 L294.6 432.1 M296.95 444.05 Q297.55 443.8 297.9 442.7 L297.95 442.0 Q296.65 441.75 296.95 440.9 L297.65 440.8 298.4 441.1 Q298.25 439.3 295.05 437.25 L296.9 437.3 Q295.95 436.7 295.5 435.75 294.45 433.9 291.9 431.9 L293.65 431.9 Q292.1 430.0 291.35 429.7 290.3 429.35 289.55 428.75 L289.55 428.7 291.25 428.3 Q290.65 428.1 290.6 427.6 L290.35 427.0 289.5 426.9 289.8 426.5 289.95 426.05 Q289.2 426.0 288.2 425.0 289.15 424.9 289.5 424.05 L289.25 423.6 288.35 422.9 Q287.55 422.0 287.4 421.25 M298.2 438.6 Q299.6 440.25 303.25 442.2 L306.95 442.05 Q307.95 443.2 309.25 443.25 310.7 443.25 311.4 441.8 L311.55 441.45 311.6 441.4 311.6 441.3 311.7 441.05 311.7 440.7 311.7 440.55 311.7 440.4 Q311.65 439.35 310.25 438.7 309.0 438.05 307.75 438.95 306.9 437.1 303.65 437.45 300.25 437.8 298.2 438.6 M305.75 428.2 L305.9 428.75 Q306.25 429.5 307.05 429.95 M314.35 442.25 L313.25 441.65 312.65 441.45 311.6 441.3 M314.25 440.45 Q313.15 440.15 312.45 440.45 L311.7 441.05 M314.85 439.7 L312.85 439.55 Q311.95 439.85 311.7 440.4 M311.6 441.4 Q311.55 442.3 313.55 443.0 M311.4 441.8 Q311.1 443.15 313.55 444.4 M259.5 392.3 Q258.5 393.65 257.45 396.3 L257.35 396.6 Q256.25 399.5 256.25 401.25 M330.35 398.25 L329.15 398.0 328.65 397.7 327.65 397.1 M327.2 397.95 L327.3 397.8 M329.1 399.5 Q328.15 399.0 327.8 398.3 327.45 397.7 327.6 397.4 M327.2 397.95 Q327.0 398.5 327.5 399.35 327.9 400.0 329.15 400.35 M327.75 397.0 L330.25 397.1 M252.15 398.3 L232.05 389.8 M331.15 396.05 Q328.5 395.4 327.85 396.65" fill="none" stroke="#000000" stroke-linecap="round" stroke-linejoin="round" stroke-opacity="0.5019608" stroke-width="1.0"/>
    <path d="M331.5 395.0 L331.15 396.05 Q332.25 399.45 329.15 400.35 L328.4 401.2 Q326.75 400.6 326.3 401.4 325.65 402.3 324.3 401.8 322.8 405.1 320.4 403.35 321.45 401.4 320.15 400.85 319.05 400.7 318.6 400.25 319.55 400.1 319.7 399.1 315.3 393.4 309.75 393.0 308.85 392.9 308.65 393.4 308.55 393.8 309.2 394.1 316.1 396.5 316.85 403.0 L317.1 403.05 Q318.05 403.4 318.5 404.3 318.9 405.2 318.55 406.2 318.2 407.1 317.3 407.55 L315.45 407.6 Q314.45 407.25 314.05 406.35 313.65 405.4 314.0 404.5 314.25 403.85 314.75 403.4 L314.55 402.75 314.15 402.1 314.15 402.0 314.0 401.75 Q311.95 398.7 307.8 397.65 302.95 396.8 299.55 401.5 L299.4 401.8 299.3 402.05 298.85 403.2 553.25 499.85 Q565.1 504.9 566.3 508.95 562.7 511.4 550.45 507.65 L293.4 418.1 292.95 419.4 292.95 419.6 292.8 419.9 Q292.45 425.7 296.7 428.15 300.55 430.05 304.05 429.05 L304.35 428.9 304.45 428.85 305.15 428.55 305.75 428.2 Q305.6 427.55 305.85 426.9 306.2 425.9 307.1 425.5 L308.95 425.45 Q309.9 425.8 310.35 426.7 310.75 427.6 310.4 428.55 310.05 429.5 309.15 429.95 L307.25 430.0 307.05 429.95 Q302.35 434.3 295.5 431.7 L294.6 432.1 Q294.5 432.5 295.15 433.0 299.7 436.25 306.75 434.6 307.25 433.85 306.6 433.2 307.25 433.0 308.25 433.65 309.55 434.0 310.05 431.85 312.95 432.15 312.0 435.5 313.35 436.0 313.2 437.2 313.15 438.05 314.7 438.7 L314.85 439.7 Q316.55 442.5 313.55 444.4 L313.15 445.4 311.4 446.4 Q310.2 447.0 310.1 448.1 309.75 451.9 306.55 450.95 307.25 448.55 305.35 448.1 L302.9 448.4 Q302.7 447.6 303.6 446.45 301.75 446.4 299.1 443.8 298.5 444.95 297.25 445.05 L296.95 444.05 295.15 441.65 Q286.5 431.2 287.4 421.25 L287.45 420.4 288.2 417.4 288.75 415.35 285.9 414.35 283.7 413.55 283.55 412.6 Q280.95 412.05 272.15 408.9 262.85 405.65 256.25 401.25 L254.35 400.5 251.95 399.45 251.15 399.15 Q247.7 403.3 243.2 402.8 240.65 402.3 239.4 400.1 234.9 401.1 235.15 395.2 235.4 392.1 232.05 389.8 232.05 388.85 232.5 387.5 L232.7 387.05 Q233.1 386.1 233.6 385.5 237.65 385.85 239.45 383.3 243.05 378.7 245.9 382.25 248.25 381.45 250.5 382.7 254.3 385.25 254.3 390.65 L255.05 390.9 257.6 391.65 259.5 392.3 Q267.45 393.2 276.6 396.7 285.35 399.8 287.75 401.15 288.15 400.7 288.45 400.55 L290.65 401.3 293.45 402.35 294.35 400.4 295.75 397.6 296.15 397.05 Q302.0 388.7 315.3 386.3 317.1 386.15 318.2 385.6 L319.1 385.1 Q320.0 385.95 319.7 387.2 323.4 386.85 324.85 388.0 324.9 386.7 325.55 386.1 326.6 387.5 327.3 387.9 329.0 388.85 329.95 386.55 333.0 387.8 330.9 390.9 330.25 391.95 330.8 393.1 L331.5 395.0 M248.1 384.95 L243.95 384.8 Q240.6 385.4 240.05 386.2 L249.35 388.6 Q250.95 386.1 248.1 384.95 M242.85 399.5 Q245.65 400.55 246.15 397.55 L237.45 393.4 Q237.35 394.3 239.55 397.0 242.7 397.65 242.85 399.5" fill="none" stroke="#000000" stroke-linecap="round" stroke-linejoin="round" stroke-width="1.0"/>
  </g>
</svg>
