<?xml version="1.0" encoding="UTF-8" standalone="no"?>
<svg xmlns:xlink="http://www.w3.org/1999/xlink" height="114.45px" width="308.1px" xmlns="http://www.w3.org/2000/svg">
  <g transform="matrix(1.0, 0.0, 0.0, 1.0, -217.85, -369.95)">
    <path d="M227.15 389.4 L226.55 389.35 Q223.2 389.65 224.75 383.05 225.8 377.9 227.75 374.4 L227.85 374.5 M278.5 409.65 Q278.4 403.6 276.4 399.25 273.75 393.45 274.2 389.0 M228.2 374.8 L227.85 374.5 M319.05 388.05 Q303.0 394.8 295.9 409.95 L293.0 410.65 282.9 408.25 Q282.75 403.2 281.4 398.3 L280.1 394.4 Q276.35 384.7 284.45 381.75 295.5 377.65 309.4 380.25 305.25 382.3 303.9 385.2 L319.05 388.05 M320.9 395.7 Q311.75 400.9 304.7 408.7 300.2 414.9 298.2 420.3 L349.0 438.85 Q357.9 442.9 366.5 445.95 L378.05 455.85 389.6 452.3 404.45 462.85 420.5 454.5 430.2 461.85 Q473.5 461.8 499.9 445.05 M298.2 420.3 Q295.4 427.3 296.75 433.0 M294.0 414.8 L282.15 412.3 Q281.1 422.05 275.6 430.3 283.8 430.15 291.15 425.7 L294.0 414.8 M293.15 437.65 Q279.65 441.3 267.8 435.5 L268.5 435.45 Q282.9 436.2 292.4 429.7 292.4 433.6 293.15 437.65 M272.9 427.35 Q274.6 425.8 275.7 423.6 L276.05 422.8 M303.9 385.2 Q297.75 400.6 281.4 398.3" fill="none" stroke="#000000" stroke-linecap="round" stroke-linejoin="round" stroke-opacity="0.5019608" stroke-width="1.0"/>
    <path d="M227.85 374.5 L223.9 370.9 Q220.9 369.0 219.75 374.95 217.65 386.1 218.7 398.2 221.25 392.1 227.15 389.4 231.75 389.95 236.55 391.05 256.55 395.5 278.5 409.65 M274.2 389.0 L264.0 387.6 Q251.7 386.3 240.1 381.2 234.05 378.5 228.2 374.8 M274.2 389.0 Q274.5 385.75 275.75 382.95 276.5 380.2 279.4 379.15 301.95 370.4 328.0 377.6 319.55 377.35 313.4 381.5 331.4 382.4 349.3 386.85 333.15 388.95 320.9 395.7 390.4 420.8 457.1 436.0 L457.6 436.15 458.25 436.35 Q481.55 442.6 499.9 445.05 514.2 446.95 525.45 446.6 507.5 466.5 474.9 475.2 L425.85 483.9 Q423.75 476.6 417.2 468.7 L401.3 479.6 387.8 464.4 373.65 470.95 362.2 456.8 356.3 454.7 296.75 433.0 Q298.35 440.65 307.1 446.1 294.7 448.6 283.8 446.4 L292.9 455.2 Q279.3 449.1 267.5 441.1 261.05 436.65 254.8 430.5 267.15 432.7 272.9 427.35 264.6 426.25 258.0 422.25 269.1 424.4 276.05 422.8 278.7 415.65 278.5 409.65" fill="none" stroke="#000000" stroke-linecap="round" stroke-linejoin="round" stroke-width="1.0"/>
  </g>
</svg>
