<?xml version="1.0" encoding="UTF-8" standalone="no"?>
<svg xmlns:xlink="http://www.w3.org/1999/xlink" height="151.1px" width="140.7px" xmlns="http://www.w3.org/2000/svg">
  <g transform="matrix(1.0, 0.0, 0.0, 1.0, -188.95, -361.25)">
    <path d="M250.35 368.3 L249.5 368.7 248.5 368.85 M253.5 382.5 L253.5 382.2 Q252.3 377.05 252.35 373.75 L261.2 380.75 Q265.8 384.75 267.3 389.85 268.4 393.95 265.3 397.55 262.8 399.6 260.55 398.75 258.4 398.0 257.45 396.25 257.45 398.25 255.95 400.1 254.55 401.95 251.45 401.55 246.7 400.15 245.6 396.05 244.2 390.9 245.9 385.15 247.65 379.45 249.8 374.45 251.7 377.45 253.6 383.0 L253.5 382.5 M253.5 382.2 L253.8 383.6 257.45 396.25 M253.8 383.6 L253.6 383.0 M282.45 389.35 Q287.15 387.35 294.7 387.6 L295.9 387.65 306.4 387.8 312.95 386.95 307.25 386.75 296.2 385.7 295.7 385.65 Q288.05 384.45 281.4 386.25 L282.05 386.75 Q282.65 387.45 283.85 387.3 282.75 387.8 282.6 388.75 L282.45 389.35 281.7 390.25 Q280.7 391.05 279.65 390.5 279.15 390.2 278.7 390.25 277.5 390.5 277.65 391.75 277.85 393.05 275.6 393.6 274.25 394.2 273.6 395.65 M271.35 385.85 Q272.3 386.4 273.5 386.25 275.7 385.55 276.2 386.75 276.7 387.95 277.9 387.55 L278.6 386.75 Q279.3 385.8 280.55 385.85 L281.4 386.25 M243.5 396.95 Q245.75 403.25 251.55 403.5 L252.75 403.45 Q255.7 403.05 256.5 401.65 257.85 399.65 258.35 399.65 258.8 399.45 261.0 400.4 262.4 401.15 265.1 399.85 L266.15 399.35 Q270.95 396.05 269.5 389.55 L272.8 400.95 M273.3 408.5 L272.6 407.4 Q272.1 406.2 271.1 406.2 270.15 406.25 270.0 407.4 269.45 409.2 270.65 409.25 271.55 409.5 271.9 410.1 M265.1 399.85 Q260.7 403.95 261.15 409.45 L261.2 409.65 Q265.7 411.25 266.45 412.2 266.9 410.9 265.55 409.8 264.65 409.25 264.5 408.8 264.0 407.6 265.55 406.25 267.65 406.75 268.0 408.65 268.2 411.2 270.1 410.85 270.65 410.7 270.95 410.85 L271.0 410.85 M270.95 410.85 L270.2 411.3 Q268.5 412.5 266.1 416.4 L267.45 421.1 Q267.95 421.65 267.8 422.6 L271.8 436.15 Q275.15 447.8 277.95 458.75 L280.35 468.45 282.65 478.2 284.1 484.8 284.45 487.75 Q284.4 488.75 284.0 489.3 L290.5 511.85 M267.45 421.1 Q267.15 420.8 266.8 420.8 265.6 420.35 265.35 419.1 L265.3 417.85 Q265.4 417.05 266.0 416.1 L266.15 416.05 266.5 415.45 Q267.4 413.7 266.45 412.2 M266.1 416.4 L265.3 417.85 M250.4 415.05 L250.4 413.75 Q250.2 412.5 250.95 411.95 251.75 411.55 252.65 412.4 253.95 413.6 253.05 414.25 252.4 415.05 252.45 415.7 M253.6 415.8 L254.4 415.35 Q256.2 414.6 255.05 412.4 254.25 410.6 255.7 409.15 257.8 409.4 257.9 410.7 258.1 411.15 257.6 412.05 257.0 413.75 258.15 414.6 258.2 413.4 261.2 409.65 M258.15 414.6 Q258.1 416.4 259.8 417.35 L260.45 417.75 260.5 417.75 Q261.6 418.15 262.1 418.75 L262.7 419.85 Q263.15 421.1 262.35 422.05 262.05 422.3 262.0 422.65 261.75 423.35 262.35 424.15 263.0 424.95 263.8 425.05 265.3 425.25 264.75 426.75 265.4 428.55 266.75 428.95 267.6 427.95 267.3 426.0 266.0 425.05 267.1 424.1 267.75 423.5 267.8 422.6 M262.1 418.75 L260.55 417.95 262.0 422.65 M260.55 417.95 Q256.6 415.95 254.5 415.8 M261.15 409.45 Q258.6 404.55 252.75 403.45 M243.5 396.95 L246.8 408.45 M261.15 409.45 L258.35 399.65 M262.35 424.15 Q264.8 433.2 267.4 441.75 270.7 453.05 274.1 463.55 L277.05 472.55 280.1 481.4 281.55 485.55 Q282.45 488.05 283.5 488.95 L284.0 489.3 M189.45 423.15 Q196.3 423.05 205.35 417.8 L212.3 412.95 219.2 407.45 Q222.95 404.3 227.1 402.25 229.3 401.15 231.7 400.4 L232.35 399.65 Q233.3 398.95 234.4 399.45 L235.35 399.65 Q236.5 399.45 236.4 398.15 236.15 396.85 238.4 396.25 239.45 395.9 240.0 394.85 M243.35 404.3 Q242.0 403.45 240.5 403.65 238.3 404.35 237.8 403.2 237.3 402.0 236.15 402.35 235.7 402.6 235.4 403.2 234.75 404.15 233.5 404.05 232.85 403.95 232.4 403.65 228.1 404.35 222.8 407.65 L220.1 409.4 Q214.1 413.55 210.1 415.7 207.2 417.25 205.35 417.8 M232.4 403.65 L232.0 403.2 Q231.4 402.55 230.2 402.6 231.3 402.15 231.45 401.25 231.45 400.8 231.7 400.4 M329.15 383.1 Q323.4 386.7 312.95 386.95 M269.7 384.25 L273.2 397.45 M244.65 405.6 L240.65 392.6" fill="none" stroke="#000000" stroke-linecap="round" stroke-linejoin="round" stroke-opacity="0.5019608" stroke-width="1.0"/>
    <path d="M235.95 369.9 L243.5 396.95 Q241.6 388.7 245.1 381.75 247.35 377.15 248.7 372.5 L248.9 371.35 Q249.05 369.8 248.5 368.85 L248.15 368.65 Q247.5 368.3 247.25 367.55 247.05 366.85 247.5 366.2 247.8 365.55 248.5 365.3 L249.95 365.4 Q250.55 365.85 250.8 366.55 250.95 367.25 250.6 367.95 L250.35 368.3 Q250.5 369.35 251.45 370.65 L252.15 371.55 Q255.75 374.75 260.15 377.45 266.8 381.5 269.5 389.55 L261.7 362.55 262.2 362.0 263.0 361.75 263.85 362.0 269.7 384.25 Q270.4 385.5 271.35 385.85 283.6 382.05 297.9 383.65 L301.65 384.15 308.9 384.65 Q318.7 384.95 329.15 383.1 324.75 389.4 304.7 389.95 L299.4 390.0 292.55 390.3 Q280.55 391.35 273.6 395.65 273.2 396.35 273.2 397.45 L273.2 397.55 Q272.25 398.35 272.8 400.95 L275.2 409.25 Q274.0 409.25 273.3 408.5 273.05 409.25 271.9 410.1 272.2 410.9 271.7 412.1 271.5 411.15 271.0 410.85 L270.2 411.3 274.1 424.95 275.8 431.1 281.75 453.95 284.1 463.75 286.25 473.65 288.15 483.05 289.1 488.55 Q291.95 505.45 290.5 511.85 286.9 508.15 282.05 497.45 L280.1 493.15 277.0 485.35 273.75 476.75 270.65 467.95 Q267.35 458.25 263.6 446.45 L258.4 429.35 254.5 415.8 253.6 415.8 Q253.25 416.35 253.55 417.3 252.45 416.55 252.45 415.7 251.0 415.55 250.4 415.05 250.2 416.05 249.15 416.7 L246.8 408.45 Q245.8 405.95 244.65 405.8 L244.65 405.6 243.35 404.3 Q233.0 404.3 218.5 413.1 L218.3 413.15 Q212.1 417.15 207.0 419.65 195.1 425.4 189.45 423.15 203.0 417.55 213.45 409.35 L218.2 405.55 Q224.0 401.15 230.2 398.35 235.0 396.15 240.0 394.85 240.6 394.05 240.65 392.6 L233.8 370.55 234.35 369.95 235.25 369.75 235.95 369.9" fill="none" stroke="#000000" stroke-linecap="round" stroke-linejoin="round" stroke-width="1.0"/>
  </g>
</svg>
