<?xml version="1.0" encoding="UTF-8" standalone="no"?>
<svg xmlns:xlink="http://www.w3.org/1999/xlink" height="69.25px" width="132.45px" xmlns="http://www.w3.org/2000/svg">
  <g transform="matrix(1.0, 0.0, 0.0, 1.0, -253.5, -393.75)">
    <path d="M267.85 394.95 Q268.45 393.75 269.9 393.75 271.75 394.0 271.85 395.1 L271.5 395.15 Q270.65 398.8 270.55 402.6 L270.55 406.8 270.85 406.8 270.75 407.0 Q270.05 407.9 268.5 407.6 267.05 407.4 266.75 406.65 266.65 404.55 266.85 402.2 267.05 398.8 267.85 394.95 M314.25 418.05 Q312.25 416.9 310.2 416.2 304.2 414.1 297.05 415.4 L296.35 414.5 Q297.15 413.8 297.25 413.0 297.45 412.05 296.35 411.15 294.55 409.95 293.35 410.45 291.85 410.85 291.85 413.3 L290.9 413.75 288.55 411.75 292.45 398.2 Q322.15 405.2 331.55 408.95 L333.05 409.55 Q334.7 410.1 338.05 412.6 L340.55 414.5 349.25 421.9 352.5 424.8 363.35 434.9 365.45 436.95 368.55 439.95 Q378.0 449.75 383.75 458.8 L385.95 462.95 Q375.05 463.65 360.3 455.9 351.35 451.2 343.5 444.4 L342.35 443.45 341.15 442.4 Q335.1 437.15 330.65 432.15 L329.45 430.85 327.8 429.15 Q321.75 423.0 316.95 419.75 L314.25 418.05 M281.15 399.95 Q282.15 399.8 282.85 400.4 283.55 401.0 283.65 402.05 283.7 402.95 283.1 403.65 L282.95 403.85 Q282.45 404.4 281.6 404.5 280.65 404.5 279.9 403.9 L279.5 403.5 279.15 402.4 Q279.0 401.45 279.6 400.7 280.2 400.0 281.15 399.95 M257.9 401.3 Q257.25 402.05 256.2 402.1 255.15 402.15 254.35 401.5 L253.85 400.9 253.5 399.8 Q253.4 398.8 254.05 398.0 254.7 397.2 255.75 397.1 256.75 397.05 257.55 397.7 258.3 398.4 258.45 399.4 258.55 400.4 257.9 401.25 L257.9 401.3" fill="#ffffff" fill-rule="evenodd" stroke="none"/>
  </g>
</svg>
