<?xml version="1.0" encoding="UTF-8" standalone="no"?>
<svg xmlns:xlink="http://www.w3.org/1999/xlink" height="73.4px" width="127.75px" xmlns="http://www.w3.org/2000/svg">
  <g transform="matrix(1.0, 0.0, 0.0, 1.0, -247.9, -388.8)">
    <path d="M250.2 388.9 L251.1 389.8 251.25 390.75 251.1 391.0 250.35 391.95 249.05 392.0 Q248.4 391.8 248.1 391.1 247.8 390.45 248.0 389.85 L248.15 389.55 Q248.4 389.15 248.9 388.95 L250.2 388.9 M266.1 394.7 Q266.75 394.95 267.0 395.55 267.3 396.15 267.05 396.8 L267.05 396.9 266.25 397.7 264.95 397.85 Q264.35 397.6 264.05 396.95 263.75 396.3 263.95 395.7 264.2 395.0 264.85 394.8 L266.1 394.7 M285.75 434.3 L287.75 427.95 288.0 427.1 Q291.0 417.1 291.15 414.9 290.85 413.3 289.85 413.1 L294.55 400.1 Q306.15 404.55 316.95 407.9 332.0 412.6 345.5 415.2 355.7 417.1 365.0 417.8 L366.55 417.95 Q369.6 418.25 371.65 419.15 376.35 421.25 375.55 426.8 L374.3 435.2 Q373.25 441.2 371.85 446.7 L369.85 453.5 Q368.3 458.15 366.55 462.2 360.85 461.5 353.15 459.5 L343.15 456.6 Q335.25 454.1 325.8 450.65 L320.25 448.55 305.45 442.65 285.75 434.3 M282.35 401.15 Q282.65 401.75 282.45 402.4 L282.25 402.75 281.6 403.3 280.35 403.4 Q279.65 403.2 279.35 402.5 L279.25 401.6 279.3 401.25 Q279.55 400.6 280.15 400.35 L281.45 400.3 Q282.05 400.5 282.35 401.15 M364.85 425.4 Q364.45 426.45 364.95 427.5 365.4 428.5 366.45 428.85 L368.55 428.8 Q369.55 428.3 369.95 427.25 370.35 426.2 369.85 425.2 369.35 424.2 368.3 423.8 L366.25 423.9 Q365.25 424.35 364.85 425.4" fill="#ffffff" fill-rule="evenodd" stroke="none"/>
  </g>
</svg>
