<?xml version="1.0" encoding="UTF-8" standalone="no"?>
<svg xmlns:xlink="http://www.w3.org/1999/xlink" height="34.25px" width="39.1px" xmlns="http://www.w3.org/2000/svg">
  <g transform="matrix(1.0, 0.0, 0.0, 1.0, -296.3, -348.05)">
    <path d="M296.8 354.3 L299.95 356.2 M326.95 362.95 L326.95 357.7 M327.0 373.25 L326.95 373.2 326.95 373.15 M315.3 381.3 L313.3 376.05 M308.6 380.0 L305.9 374.15 M322.75 381.8 L320.15 376.35" fill="none" stroke="#000000" stroke-linecap="round" stroke-linejoin="round" stroke-opacity="0.5019608" stroke-width="1.0"/>
    <path d="M319.75 348.55 L329.75 353.75 334.9 359.65 331.25 364.45 326.95 362.95 326.95 373.15 327.0 373.25 328.2 377.85 322.75 381.8 315.3 381.3 308.6 380.0 304.1 379.05 301.45 372.05 301.45 372.0 296.8 354.3 Z" fill="none" stroke="#000000" stroke-linecap="round" stroke-linejoin="round" stroke-width="1.0"/>
  </g>
</svg>
