<?xml version="1.0" encoding="UTF-8" standalone="no"?>
<svg xmlns:xlink="http://www.w3.org/1999/xlink" height="50.85px" width="45.4px" xmlns="http://www.w3.org/2000/svg">
  <g transform="matrix(1.0, 0.0, 0.0, 1.0, -296.75, -348.55)">
    <path d="M334.0 363.7 L326.9 362.95 326.9 368.75 328.2 375.55 331.75 381.95 336.55 386.2 Q339.7 393.95 334.0 396.7 L324.75 388.7 318.05 381.2 315.9 375.25 310.75 372.55 310.0 376.45 311.95 385.3 316.0 393.25 Q316.15 395.0 315.25 396.65 314.2 398.65 311.65 399.4 L304.9 387.2 302.15 378.9 301.4 372.0 296.75 354.25 296.85 354.3 Q307.6 356.75 319.75 348.55 L329.7 353.7 337.9 359.25 342.15 367.55 Q337.85 369.8 334.0 363.7" fill="#000000" fill-rule="evenodd" stroke="none"/>
  </g>
</svg>
