<?xml version="1.0" encoding="UTF-8" standalone="no"?>
<svg xmlns:xlink="http://www.w3.org/1999/xlink" height="30.5px" width="207.3px" xmlns="http://www.w3.org/2000/svg">
  <g transform="matrix(1.0, 0.0, 0.0, 1.0, -296.3, -348.05)">
    <path d="M326.95 362.95 L331.25 364.45 334.9 359.65 329.75 353.75 319.75 348.55 M326.95 368.75 L326.95 373.2 327.7 374.65 325.6 375.95 Q321.85 378.65 316.05 377.85 L315.9 377.65 301.45 372.05 296.8 354.3 M480.15 348.55 L470.15 353.75 465.0 359.7 468.65 364.5 472.95 363.0 M472.95 368.75 L472.95 373.2 472.2 374.65 474.3 375.95 Q478.05 378.65 483.85 377.85 L484.0 377.65 498.45 372.05 503.1 354.3" fill="none" stroke="#000000" stroke-linecap="round" stroke-linejoin="round" stroke-width="1.0"/>
    <path d="M326.95 357.7 L326.95 362.95 326.95 368.75 M296.8 354.3 L299.95 356.2 M472.95 363.0 L472.95 357.7 M472.95 363.0 L472.95 368.75 M484.0 377.65 L485.85 375.6 M503.1 354.3 L499.95 356.2 M475.15 369.0 Q479.2 374.15 487.15 372.95 L495.75 370.95 M315.9 377.65 L314.05 375.6 M324.75 369.0 Q320.7 374.15 312.75 372.95 L304.15 370.95" fill="none" stroke="#000000" stroke-linecap="round" stroke-linejoin="round" stroke-opacity="0.5019608" stroke-width="1.0"/>
  </g>
</svg>
