<?xml version="1.0" encoding="UTF-8" standalone="no"?>
<svg xmlns:xlink="http://www.w3.org/1999/xlink" height="22.6px" width="231.75px" xmlns="http://www.w3.org/2000/svg">
  <g transform="matrix(1.0, 0.0, 0.0, 1.0, -284.0, -302.2)">
    <path d="M325.0 320.65 Q307.2 324.85 288.3 324.15 M284.5 302.7 L332.35 305.65 M474.75 320.7 Q492.55 324.9 511.45 324.2 M515.25 302.75 L467.4 305.7" fill="none" stroke="#000000" stroke-linecap="round" stroke-linejoin="round" stroke-opacity="0.5019608" stroke-width="1.0"/>
    <path d="M332.35 305.65 L332.35 305.7 Q329.35 313.2 325.0 320.65 M288.3 324.15 L284.95 309.3 Q284.45 305.95 284.5 302.7 M467.4 305.7 L467.4 305.75 Q470.4 313.25 474.75 320.7 M511.45 324.2 L514.8 309.35 Q515.3 306.0 515.25 302.75" fill="none" stroke="#000000" stroke-linecap="round" stroke-linejoin="round" stroke-width="1.0"/>
  </g>
</svg>
