<?xml version="1.0" encoding="UTF-8" standalone="no"?>
<svg xmlns:xlink="http://www.w3.org/1999/xlink" height="70.95px" width="33.45px" xmlns="http://www.w3.org/2000/svg">
  <g transform="matrix(1.0, 0.0, 0.0, 1.0, -182.0, -245.15)">
    <path d="M202.05 263.05 L198.85 245.15 215.1 258.75 215.35 259.35 Q215.85 261.3 214.25 263.25 L213.1 264.35 Q211.75 265.4 209.9 265.9 207.1 266.65 204.75 265.8 203.0 265.1 202.3 263.85 L202.05 263.05 M196.9 287.2 L182.0 276.8 203.05 274.95 203.65 275.15 Q205.4 276.15 205.65 278.7 205.9 281.15 204.45 283.65 L204.05 284.3 Q202.65 286.3 200.7 287.25 199.0 288.0 197.6 287.6 L197.4 287.45 196.9 287.2 M198.35 296.55 Q200.05 295.5 202.35 296.55 L203.25 297.05 Q204.9 298.1 206.1 300.1 207.55 302.6 207.3 305.1 207.1 306.95 206.05 308.0 L205.35 308.4 188.9 316.1 197.85 296.9 198.35 296.55" fill="#000000" fill-rule="evenodd" stroke="none"/>
  </g>
</svg>
