<?xml version="1.0" encoding="UTF-8" standalone="no"?>
<svg xmlns:xlink="http://www.w3.org/1999/xlink" height="61.7px" width="71.2px" xmlns="http://www.w3.org/2000/svg">
  <g transform="matrix(1.0, 0.0, 0.0, 1.0, -206.15, -323.1)">
    <path d="M213.5 369.65 Q212.15 368.8 210.85 366.85 208.35 363.05 207.3 357.3 206.15 351.5 207.1 347.1 208.15 342.75 210.45 342.25 M226.2 333.25 Q229.75 332.9 232.9 338.55 236.1 344.25 237.0 352.7 237.9 361.15 235.95 367.35 234.1 373.6 230.5 373.95 226.9 374.3 223.75 368.6 220.6 362.95 219.7 354.5 218.8 346.05 220.65 339.8 222.6 333.65 226.2 333.25 M255.75 337.85 Q258.55 337.9 260.5 342.45 262.45 347.1 262.5 353.65 262.5 360.2 260.5 364.85 258.55 369.5 255.8 369.45 252.95 369.45 251.0 364.8 249.05 360.2 249.05 353.65 249.0 347.1 251.0 342.45 253.0 337.85 255.75 337.85" fill="none" stroke="#000000" stroke-linecap="round" stroke-linejoin="round" stroke-opacity="0.5019608" stroke-width="1.0"/>
    <path d="M210.45 342.25 L210.1 338.95 Q229.65 315.6 248.4 327.75 267.15 339.85 276.85 340.95 270.9 351.5 271.05 361.4 L263.3 374.75 Q247.75 391.3 225.45 379.1 L213.7 371.7 213.5 369.65 M210.45 342.25 L213.5 369.65 Z" fill="none" stroke="#000000" stroke-linecap="round" stroke-linejoin="round" stroke-width="1.0"/>
  </g>
</svg>
