<?xml version="1.0" encoding="UTF-8" standalone="no"?>
<svg xmlns:xlink="http://www.w3.org/1999/xlink" height="76.5px" width="121.4px" xmlns="http://www.w3.org/2000/svg">
  <g transform="matrix(1.0, 0.0, 0.0, 1.0, -181.5, -244.65)">
    <path d="M300.85 284.55 Q302.65 280.65 298.8 276.85 280.55 266.25 228.45 259.25 L228.95 256.05 Q229.6 251.95 216.7 247.95 L216.4 248.0 Q213.3 248.45 211.4 250.6 L208.9 253.55 198.85 245.15 201.7 261.15 Q199.1 264.35 198.55 267.45 194.45 271.0 193.55 275.8 L182.0 276.8 193.2 284.6 Q191.5 290.1 195.2 295.5 194.6 298.5 195.9 301.15 L188.9 316.1 Q195.0 313.25 201.05 310.45 202.15 311.8 203.95 313.0 203.8 317.2 207.95 320.65 219.25 309.55 220.5 302.8 264.55 295.15 300.15 304.05 302.55 300.8 301.3 297.6 303.7 290.95 300.85 284.55" fill="none" stroke="#000000" stroke-linecap="round" stroke-linejoin="round" stroke-width="1.0"/>
    <path d="M228.45 259.25 L228.45 259.3 Q226.45 270.35 222.15 280.65 220.05 291.0 220.7 300.35 L220.55 302.75 220.5 302.8 M301.3 297.6 Q277.45 288.6 236.1 292.05 M300.85 284.55 Q283.1 273.9 245.05 273.75 M208.9 253.55 L215.1 258.75 215.35 259.35 Q215.85 261.3 214.25 263.25 L213.1 264.35 Q211.75 265.4 209.9 265.9 207.1 266.65 204.75 265.8 203.0 265.1 202.3 263.85 L202.05 263.05 201.7 261.15 M193.55 275.8 L203.05 274.95 203.65 275.15 Q205.4 276.15 205.65 278.7 205.9 281.15 204.45 283.65 L204.05 284.3 Q202.65 286.3 200.7 287.25 199.0 288.0 197.6 287.6 L197.4 287.45 196.9 287.2 193.2 284.6 M195.9 301.15 L197.85 296.9 198.35 296.55 Q200.05 295.5 202.35 296.55 L203.25 297.05 Q204.9 298.1 206.1 300.1 207.55 302.6 207.3 305.1 207.1 306.95 206.05 308.0 L205.35 308.4 201.05 310.45 M188.4 278.65 L197.8 284.85 199.2 284.3 Q202.6 282.55 202.25 277.8 M202.1 251.0 L204.35 262.05 Q208.75 264.5 212.45 260.2 M193.7 311.5 L203.8 306.45 Q204.45 303.75 203.25 301.85 202.25 300.2 199.9 299.1" fill="none" stroke="#000000" stroke-linecap="round" stroke-linejoin="round" stroke-opacity="0.5019608" stroke-width="1.0"/>
  </g>
</svg>
