<?xml version="1.0" encoding="UTF-8" standalone="no"?>
<svg xmlns:xlink="http://www.w3.org/1999/xlink" height="88.55px" width="403.6px" xmlns="http://www.w3.org/2000/svg">
  <g transform="matrix(1.0, 0.0, 0.0, 1.0, -198.1, -283.25)">
    <path d="M551.85 306.45 L552.1 306.15 Q560.05 296.4 562.35 286.75 L594.2 283.25 Q599.45 298.25 601.7 311.35 L586.1 371.7 577.7 371.8 Q561.05 371.4 544.35 366.75 545.55 360.0 546.15 353.5 L546.4 349.85 546.55 346.65 Q546.8 339.8 546.45 333.15 L546.2 329.9 Q545.5 322.15 543.95 314.65 548.4 310.5 551.85 306.45 M205.6 283.25 L237.45 286.75 Q239.75 296.4 247.7 306.15 L247.95 306.45 Q251.4 310.5 255.85 314.65 254.3 322.15 253.6 329.9 L253.35 333.15 Q253.0 339.8 253.25 346.65 L253.4 349.85 253.65 353.5 Q254.25 360.0 255.45 366.75 238.75 371.4 222.1 371.8 L213.7 371.7 198.1 311.35 Q200.35 298.25 205.6 283.25" fill="#000000" fill-rule="evenodd" stroke="none"/>
  </g>
</svg>
