<?xml version="1.0" encoding="UTF-8" standalone="no"?>
<svg xmlns:xlink="http://www.w3.org/1999/xlink" height="124.5px" width="391.4px" xmlns="http://www.w3.org/2000/svg">
  <g transform="matrix(1.0, 0.0, 0.0, 1.0, -204.2, -247.3)">
    <path d="M585.6 247.3 L595.6 258.0 593.9 288.8 590.05 295.9 Q593.7 309.15 591.4 323.75 L586.1 371.7 577.7 371.8 Q561.05 371.4 544.35 366.75 536.55 364.55 528.75 361.4 L524.6 358.7 523.1 346.9 534.6 335.7 528.15 318.3 501.0 313.4 496.85 310.65 Q497.55 295.1 505.1 286.65 511.25 294.6 520.35 302.6 533.7 284.9 553.7 273.5 L552.7 262.1 568.65 247.3 585.6 247.3 M247.1 262.1 L246.1 273.5 Q266.1 284.9 279.45 302.6 288.55 294.6 294.7 286.65 302.25 295.1 302.95 310.65 L298.8 313.4 271.65 318.3 265.2 335.7 276.7 346.9 275.2 358.7 271.05 361.4 Q263.25 364.55 255.45 366.75 238.75 371.4 222.1 371.8 L213.7 371.7 208.4 323.75 Q206.1 309.15 209.75 295.9 L205.9 288.8 204.2 258.0 214.2 247.3 231.15 247.3 247.1 262.1 M580.95 259.7 L580.0 259.6 Q576.45 259.6 573.95 263.9 L572.95 265.95 Q571.5 269.55 571.5 274.2 571.5 280.25 573.95 284.55 576.45 288.8 580.0 288.8 583.5 288.8 585.85 284.7 L585.95 284.55 Q587.5 281.85 588.15 278.5 L588.45 274.2 Q588.45 268.15 585.95 263.9 583.9 260.2 580.95 259.7 M225.85 263.9 Q223.35 259.6 219.8 259.6 L218.85 259.7 Q215.9 260.2 213.85 263.9 211.35 268.15 211.35 274.2 211.35 276.4 211.65 278.5 212.3 281.85 213.85 284.55 L213.95 284.7 Q216.3 288.8 219.8 288.8 223.35 288.8 225.85 284.55 228.3 280.25 228.3 274.2 228.3 269.55 226.85 265.95 L225.85 263.9" fill="#000000" fill-rule="evenodd" stroke="none"/>
  </g>
</svg>
