<?xml version="1.0" encoding="UTF-8" standalone="no"?>
<svg xmlns:xlink="http://www.w3.org/1999/xlink" height="126.85px" width="422.0px" xmlns="http://www.w3.org/2000/svg">
  <g transform="matrix(1.0, 0.0, 0.0, 1.0, -188.9, -278.65)">
    <path d="M577.4 286.75 L580.55 286.9 587.25 285.05 586.1 287.35 594.05 288.6 595.45 287.1 595.45 288.95 Q606.35 291.8 608.55 298.05 L610.9 299.15 608.9 299.15 Q609.7 302.5 608.15 306.75 L610.5 311.85 606.9 309.75 Q604.4 314.85 599.1 321.05 L599.75 323.8 597.9 322.45 Q596.4 324.1 590.5 327.45 L591.4 313.35 Q590.95 312.65 592.0 311.1 L589.6 310.15 594.0 307.2 594.25 306.45 Q595.1 303.35 593.5 301.5 591.65 299.35 586.5 298.8 L572.65 298.8 572.45 298.8 574.0 302.0 568.35 298.65 553.4 297.9 554.45 300.25 549.35 297.6 538.1 296.55 523.75 294.75 522.7 294.6 526.05 302.0 519.5 294.15 513.55 293.2 Q509.2 291.7 506.2 290.2 495.65 284.8 498.95 278.65 L506.2 280.25 521.2 283.4 521.3 283.4 523.75 283.75 525.7 284.05 532.6 283.45 Q531.3 284.05 529.95 284.6 L538.1 285.45 545.9 286.0 553.2 281.75 550.2 286.25 566.55 286.75 571.6 286.75 577.4 286.75 M538.9 320.4 L540.9 320.85 542.4 321.25 542.65 321.3 Q545.85 322.1 549.15 323.25 L554.5 325.25 560.1 327.7 561.5 328.35 Q565.9 330.4 570.5 332.95 L572.4 334.05 576.15 336.25 577.15 336.85 579.85 338.5 581.15 339.3 587.45 339.3 585.25 341.95 591.8 346.5 595.05 348.8 596.4 349.7 Q600.05 352.35 601.75 355.0 L602.1 355.6 Q603.6 358.1 603.3 360.7 L606.6 364.1 602.5 363.5 Q601.05 366.75 596.75 370.1 L595.7 370.9 591.75 371.55 586.9 372.1 586.2 372.3 586.15 372.3 586.75 363.9 Q590.3 364.2 591.45 363.25 L589.95 360.3 593.1 361.65 Q595.5 358.5 591.15 355.9 L589.6 354.8 588.65 354.2 587.1 353.1 581.0 349.05 579.85 348.25 579.55 348.05 577.9 347.0 576.15 345.85 572.4 343.6 568.35 341.15 564.2 342.2 565.3 339.4 Q562.0 337.6 558.9 336.05 L558.9 338.7 556.9 335.05 554.5 333.9 551.6 332.6 Q546.0 330.2 541.15 328.9 L538.9 328.3 534.8 327.55 536.45 329.85 531.55 327.25 525.25 327.7 524.55 327.85 Q518.4 329.2 515.8 330.65 L520.15 331.1 513.95 333.3 Q514.5 335.2 520.15 337.3 L525.85 347.0 524.55 346.8 Q517.5 345.65 512.85 343.65 L512.75 343.6 505.95 341.7 508.65 341.3 Q507.75 340.6 507.0 339.9 L505.9 338.6 Q503.2 335.1 503.5 332.0 503.6 330.9 504.1 329.8 L501.1 321.35 506.75 326.45 507.0 326.2 509.5 324.55 513.95 322.3 514.0 322.25 Q517.65 320.65 521.35 319.9 L526.05 315.15 526.05 319.3 Q528.75 319.1 531.5 319.35 L538.9 320.4 M525.45 350.5 L527.25 351.4 Q532.45 354.4 535.35 358.0 537.0 360.05 537.9 362.3 L537.9 362.35 Q538.95 364.8 539.0 367.55 L542.6 369.55 538.9 369.85 Q538.6 373.3 536.8 377.1 L536.55 377.6 536.45 377.8 535.7 379.3 535.0 380.55 Q534.0 382.5 533.55 384.35 L533.35 385.5 Q533.25 386.55 533.3 387.55 533.6 390.85 535.95 393.75 L536.5 394.45 537.2 395.15 538.65 396.45 Q540.65 398.0 543.3 399.5 L546.55 401.1 547.8 401.65 553.15 401.3 550.6 402.8 557.15 405.5 545.85 404.05 545.25 403.8 541.45 401.95 538.4 400.2 538.3 400.2 535.05 397.95 534.45 397.45 Q531.6 395.15 529.8 392.7 L529.6 392.4 529.35 392.0 529.0 391.4 Q527.05 388.1 526.9 384.5 L526.85 383.4 527.15 380.55 528.5 376.35 528.95 374.5 529.1 373.7 527.1 373.6 529.7 370.0 Q530.1 365.6 528.9 362.5 528.4 361.15 527.6 360.1 526.55 358.6 525.0 357.55 523.2 356.35 520.7 355.7 L520.5 355.65 518.85 355.5 515.85 355.7 Q512.0 356.55 522.45 364.55 L512.9 369.8 512.6 369.4 506.3 367.35 511.25 367.45 511.0 367.1 Q504.6 357.7 506.35 353.1 506.85 351.85 507.9 350.95 509.3 349.75 511.7 349.15 L515.25 348.6 517.6 348.45 Q521.4 349.05 523.95 349.95 L525.45 350.5 M246.6 281.75 L253.9 286.0 261.7 285.45 269.85 284.6 267.2 283.45 274.1 284.05 276.05 283.75 278.5 283.4 278.6 283.4 Q286.7 282.05 293.6 280.25 L300.85 278.65 Q304.15 284.8 293.6 290.2 290.6 291.7 286.25 293.2 L280.3 294.15 273.75 302.0 277.1 294.6 276.05 294.75 261.7 296.55 250.45 297.6 245.35 300.25 246.4 297.9 231.45 298.65 Q228.65 300.35 225.8 302.0 L227.35 298.8 227.15 298.8 213.3 298.8 Q208.15 299.35 206.3 301.5 204.7 303.35 205.55 306.45 L205.8 307.2 210.2 310.15 207.8 311.1 Q208.85 312.65 208.4 313.35 L209.3 327.45 Q203.4 324.1 201.9 322.45 L200.05 323.8 200.7 321.05 Q195.4 314.85 192.9 309.75 L189.3 311.85 191.65 306.75 Q190.1 302.5 190.9 299.15 L188.9 299.15 191.25 298.05 Q193.45 291.8 204.35 288.95 L204.35 287.1 205.75 288.6 213.7 287.35 212.55 285.05 219.25 286.9 222.4 286.75 228.2 286.75 233.25 286.75 249.6 286.25 246.6 281.75 M274.35 350.5 L275.85 349.95 Q278.4 349.05 282.2 348.45 L284.55 348.6 288.1 349.15 Q290.5 349.75 291.9 350.95 292.95 351.85 293.45 353.1 295.2 357.7 288.8 367.1 L288.55 367.45 293.5 367.35 287.2 369.4 286.9 369.8 277.35 364.55 Q287.8 356.55 283.95 355.7 L280.95 355.5 279.3 355.65 279.1 355.7 Q276.6 356.35 274.8 357.55 273.25 358.6 272.2 360.1 271.4 361.15 270.9 362.5 269.7 365.6 270.1 370.0 L272.7 373.6 270.7 373.7 270.85 374.5 271.3 376.35 272.65 380.55 272.95 383.4 272.9 384.5 Q272.75 388.1 270.8 391.4 L270.45 392.0 270.2 392.4 270.0 392.7 Q268.2 395.15 265.35 397.45 L264.75 397.95 261.5 400.2 261.4 400.2 258.35 401.95 254.55 403.8 253.95 404.05 242.65 405.5 249.2 402.8 246.65 401.3 252.0 401.65 253.25 401.1 256.5 399.5 261.15 396.45 262.6 395.15 263.3 394.45 263.85 393.75 Q266.2 390.85 266.5 387.55 L266.45 385.5 266.25 384.35 Q265.8 382.5 264.8 380.55 L264.1 379.3 263.35 377.8 263.25 377.6 263.0 377.1 Q261.2 373.3 260.9 369.85 L257.2 369.55 260.8 367.55 Q260.85 364.8 261.9 362.35 L261.9 362.3 Q262.8 360.05 264.45 358.0 267.35 354.4 272.55 351.4 273.3 350.9 274.35 350.5 M214.55 341.95 L212.35 339.3 218.65 339.3 219.95 338.5 222.65 336.85 223.65 336.25 227.4 334.05 229.3 332.95 Q233.9 330.4 238.3 328.35 L239.7 327.7 Q242.55 326.35 245.3 325.25 L250.65 323.25 Q253.95 322.1 257.15 321.3 L257.4 321.25 258.9 320.85 260.9 320.4 268.3 319.35 Q271.05 319.1 273.75 319.3 L273.75 315.15 278.45 319.9 Q282.15 320.65 285.8 322.25 L285.85 322.3 290.3 324.55 292.8 326.2 293.05 326.45 298.7 321.35 295.7 329.8 Q296.2 330.9 296.3 332.0 296.6 335.1 293.9 338.6 L292.8 339.9 291.15 341.3 293.85 341.7 287.05 343.6 286.95 343.65 Q282.3 345.65 275.25 346.8 L273.95 347.0 279.65 337.3 Q285.3 335.2 285.85 333.3 L279.65 331.1 284.0 330.65 Q281.4 329.2 275.25 327.85 L274.55 327.7 268.25 327.25 263.35 329.85 265.0 327.55 260.9 328.3 258.65 328.9 Q253.8 330.2 248.2 332.6 L245.3 333.9 242.9 335.05 240.9 338.7 240.9 336.05 234.5 339.4 235.6 342.2 231.45 341.15 Q229.45 342.3 227.4 343.6 L223.65 345.85 221.9 347.0 220.25 348.05 219.95 348.25 218.8 349.05 212.7 353.1 211.15 354.2 210.2 354.8 208.65 355.9 Q204.3 358.5 206.7 361.65 L209.85 360.3 208.35 363.25 Q209.5 364.2 213.05 363.9 L213.65 372.3 213.6 372.3 212.9 372.1 208.05 371.55 204.1 370.9 203.05 370.1 Q198.75 366.75 197.3 363.5 L193.2 364.1 196.5 360.7 Q196.2 358.1 197.7 355.6 L198.05 355.0 Q199.75 352.35 203.4 349.7 L204.75 348.8 208.0 346.5 Q211.3 344.1 214.55 341.95" fill="#000000" fill-rule="evenodd" stroke="none"/>
  </g>
</svg>
