<?xml version="1.0" encoding="UTF-8" standalone="no"?>
<svg xmlns:xlink="http://www.w3.org/1999/xlink" height="161.1px" width="394.5px" xmlns="http://www.w3.org/2000/svg">
  <g transform="matrix(1.0, 0.0, 0.0, 1.0, -202.65, -192.8)">
    <path d="M571.25 192.8 L572.25 197.0 Q546.6 226.05 514.3 235.3 L515.6 232.45 Q547.8 219.2 571.25 192.8 M585.75 206.35 L581.05 211.75 580.7 212.2 Q581.5 213.95 580.75 214.6 580.3 215.05 579.15 214.95 575.0 208.55 576.35 202.2 L576.5 202.15 Q578.55 201.2 579.25 204.55 L585.75 206.35 M573.8 271.3 L574.6 274.35 Q558.05 282.8 540.15 285.85 523.25 288.7 505.1 286.65 L503.35 284.25 Q541.15 288.65 573.8 271.3 M574.6 251.15 L573.95 255.15 Q548.05 274.05 499.7 278.6 L498.15 275.75 Q520.75 274.4 540.15 268.05 558.85 261.9 574.6 251.15 M580.6 266.85 L580.1 267.25 Q580.7 269.8 578.9 269.8 L578.05 269.65 Q575.2 262.55 577.85 256.55 580.1 255.85 580.2 259.4 L586.2 262.45 580.6 266.85 M575.6 217.9 L575.8 221.1 Q559.35 232.15 540.15 239.05 523.95 244.85 505.75 247.7 L508.35 244.65 Q541.2 238.9 575.6 217.9 M500.35 311.0 Q521.75 310.95 540.15 308.4 559.65 305.65 575.85 300.1 L579.35 298.85 579.7 301.95 Q550.2 312.55 501.15 313.8 L500.35 311.0 M510.9 328.1 Q545.9 327.9 580.85 322.3 L580.85 325.85 Q550.95 331.05 513.8 330.75 L512.15 329.25 510.9 328.1 M548.6 350.0 Q565.05 351.3 578.8 349.5 L588.75 347.7 588.35 351.0 Q564.25 357.2 528.85 350.25 L527.1 347.2 Q538.4 349.2 548.6 350.0 M597.15 311.5 L591.45 315.7 590.95 316.05 Q591.55 319.2 588.8 318.45 586.25 311.2 589.05 305.35 591.3 304.7 591.3 308.3 L597.15 311.5 M228.55 192.8 Q252.0 219.2 284.2 232.45 L285.5 235.3 Q253.2 226.05 227.55 197.0 L228.55 192.8 M300.1 278.6 Q251.75 274.05 225.85 255.15 L225.2 251.15 Q240.95 261.9 259.65 268.05 279.05 274.4 301.65 275.75 L300.1 278.6 M294.7 286.65 Q276.55 288.7 259.65 285.85 241.75 282.8 225.2 274.35 L226.0 271.3 Q258.65 288.65 296.45 284.25 L294.7 286.65 M259.65 239.05 Q240.45 232.15 224.0 221.1 L224.2 217.9 Q258.6 238.9 291.45 244.65 L294.05 247.7 Q275.85 244.85 259.65 239.05 M223.45 202.2 Q224.8 208.55 220.65 214.95 219.5 215.05 219.05 214.6 218.3 213.95 219.1 212.2 218.85 212.15 218.75 211.75 L214.05 206.35 220.55 204.55 Q221.25 201.2 223.3 202.15 L223.45 202.2 M213.6 262.45 L219.6 259.4 Q219.7 255.85 221.95 256.55 224.6 262.55 221.75 269.65 L220.9 269.8 Q219.1 269.8 219.7 267.25 L219.2 266.85 213.6 262.45 M220.45 298.85 L223.95 300.1 Q240.15 305.65 259.65 308.4 278.05 310.95 299.45 311.0 L298.65 313.8 Q249.6 312.55 220.1 301.95 L220.45 298.85 M202.65 311.5 L208.5 308.3 Q208.5 304.7 210.75 305.35 213.55 311.2 211.0 318.45 208.25 319.2 208.85 316.05 L208.35 315.7 202.65 311.5 M218.95 322.3 Q253.9 327.9 288.9 328.1 L287.65 329.25 286.0 330.75 Q248.85 331.05 218.95 325.85 L218.95 322.3 M211.05 347.7 Q215.85 348.8 221.0 349.5 234.75 351.3 251.2 350.0 261.4 349.2 272.7 347.2 L270.95 350.25 Q235.55 357.2 211.45 351.0 L211.05 347.7" fill="#000000" fill-rule="evenodd" stroke="none"/>
  </g>
</svg>
