<?xml version="1.0" encoding="UTF-8" standalone="no"?>
<svg xmlns:xlink="http://www.w3.org/1999/xlink" height="113.65px" width="67.5px" xmlns="http://www.w3.org/2000/svg">
  <g transform="matrix(1.0, 0.0, 0.0, 1.0, -367.7, -98.7)">
    <path d="M381.0 147.15 Q400.85 140.65 404.8 121.15 399.0 136.45 380.75 145.75 L381.0 147.15 M370.65 133.7 Q371.2 125.15 374.9 116.0 382.65 94.3 409.65 99.8 L411.75 102.35 415.05 100.8 Q428.6 115.4 429.1 123.8 429.6 132.2 432.8 148.45 435.9 164.7 435.0 170.65 433.25 177.05 428.6 181.3 L426.3 183.85 Q415.45 196.75 428.1 204.4 413.0 203.3 419.5 181.15 416.75 180.85 415.6 177.7 L409.15 182.25 Q413.05 178.7 415.95 175.2 415.3 163.6 420.65 150.45 419.0 152.25 420.2 150.0 421.75 146.85 421.35 137.3 420.9 127.75 412.25 117.7 401.0 143.75 381.0 147.35 L382.3 153.85 Q385.7 170.25 383.4 175.3 382.05 178.4 381.2 181.25 379.25 187.9 384.3 201.95 388.6 216.3 371.85 210.85 390.05 211.15 374.1 187.1 L372.15 184.5 Q370.45 181.8 370.55 177.3 L371.4 170.9 Q372.15 160.4 370.85 143.5 369.55 146.3 369.45 148.65 L368.6 147.15 Q366.1 141.75 370.65 133.7" fill="#000000" fill-rule="evenodd" stroke="none"/>
  </g>
</svg>
