<?xml version="1.0" encoding="UTF-8" standalone="no"?>
<svg xmlns:xlink="http://www.w3.org/1999/xlink" height="102.6px" width="103.75px" xmlns="http://www.w3.org/2000/svg">
  <g transform="matrix(1.0, 0.0, 0.0, 1.0, -348.05, -103.95)">
    <path d="M399.9 103.95 Q413.95 103.9 422.0 113.35 L423.25 114.95 Q429.9 130.35 440.3 145.75 458.5 166.25 447.95 181.3 444.9 187.1 439.3 190.35 L436.3 184.75 Q428.95 194.8 416.15 202.45 L413.0 198.35 Q407.65 203.7 399.9 206.55 392.2 203.7 386.85 198.35 L383.65 202.45 Q370.85 194.8 363.5 184.75 L360.55 190.35 Q354.95 187.1 351.9 181.3 341.35 166.25 359.55 145.75 369.95 130.35 376.6 114.95 L377.8 113.35 Q385.9 103.9 399.9 103.95" fill="#000000" fill-rule="evenodd" stroke="none"/>
  </g>
</svg>
