<?xml version="1.0" encoding="UTF-8" standalone="no"?>
<svg xmlns:xlink="http://www.w3.org/1999/xlink" height="69.65px" width="45.15px" xmlns="http://www.w3.org/2000/svg">
  <g transform="matrix(1.0, 0.0, 0.0, 1.0, -375.5, -107.8)">
    <path d="M391.8 114.95 Q393.55 113.0 400.0 117.5 393.85 106.25 388.15 110.2 L376.0 132.45 376.45 136.8 Q378.85 157.75 384.9 176.95 382.05 156.9 381.5 136.45 L391.8 114.95 M400.0 117.5 L404.15 115.0 Q407.5 112.4 410.4 117.5 L411.6 120.1 Q413.1 123.75 414.6 129.8 415.7 148.55 413.45 167.3 418.55 148.5 419.95 129.65 L420.15 126.2 414.0 113.6 Q409.35 104.8 404.9 110.6 L400.0 117.5" fill="none" stroke="#000000" stroke-linecap="round" stroke-linejoin="round" stroke-opacity="0.5019608" stroke-width="1.0"/>
  </g>
</svg>
