<?xml version="1.0" encoding="UTF-8" standalone="no"?>
<svg xmlns:xlink="http://www.w3.org/1999/xlink" height="32.75px" width="48.65px" xmlns="http://www.w3.org/2000/svg">
  <g transform="matrix(1.0, 0.0, 0.0, 1.0, -375.65, -104.05)">
    <path d="M391.2 115.8 L391.25 117.5 Q391.2 123.85 387.05 129.6 386.65 122.15 381.35 116.7 L381.35 123.15 Q378.55 129.15 377.75 136.8 L375.85 136.8 375.65 132.4 375.65 132.1 375.65 131.8 Q375.75 120.35 376.65 115.0 L377.9 113.4 Q385.95 103.95 400.0 104.05 414.0 103.95 422.1 113.4 L423.3 115.0 Q424.2 120.35 424.3 131.8 L424.3 132.1 424.3 132.4 424.15 136.8 422.2 136.8 Q421.45 129.15 418.65 123.15 L418.65 121.9 Q416.6 126.05 412.2 129.05 413.3 123.15 411.4 117.5 L409.95 114.05 408.15 117.5 Q403.6 125.1 394.4 129.65 396.1 122.75 392.5 117.5 L391.2 115.8" fill="#000000" fill-rule="evenodd" stroke="none"/>
  </g>
</svg>
