<?xml version="1.0" encoding="UTF-8" standalone="no"?>
<svg xmlns:xlink="http://www.w3.org/1999/xlink" height="48.25px" width="64.95px" xmlns="http://www.w3.org/2000/svg">
  <g transform="matrix(1.0, 0.0, 0.0, 1.0, -367.2, -89.05)">
    <path d="M424.2 136.0 L425.45 128.3 Q428.7 123.8 430.6 118.75 428.95 120.75 426.3 122.05 429.3 118.65 431.05 115.0 428.65 117.25 425.2 119.25 L425.45 119.05 Q429.35 114.95 431.65 110.95 L427.45 113.25 Q430.05 111.25 431.1 108.85 428.65 109.75 426.0 109.5 428.9 108.45 430.65 106.45 427.15 107.85 423.55 107.7 426.65 106.2 428.0 103.9 424.5 105.8 420.15 106.55 424.35 104.95 426.8 102.35 L416.75 102.35 Q422.45 100.15 425.7 97.65 L418.55 97.95 423.1 93.75 412.9 99.6 Q415.2 96.7 418.45 94.6 413.05 95.2 408.1 98.05 411.15 93.45 415.4 89.55 409.55 91.7 404.75 95.35 405.85 93.9 406.05 92.45 403.45 94.8 399.65 96.9 395.9 94.8 393.3 92.45 393.5 93.9 394.6 95.35 389.8 91.7 383.95 89.55 388.15 93.45 391.2 98.05 386.25 95.2 380.85 94.6 384.1 96.7 386.4 99.6 L376.2 93.75 380.75 97.95 373.6 97.65 Q376.85 100.15 382.55 102.35 L372.5 102.35 Q374.95 104.95 379.2 106.55 374.85 105.8 371.3 103.9 372.7 106.2 375.75 107.7 372.15 107.85 368.65 106.45 370.4 108.45 373.35 109.5 370.65 109.75 368.2 108.85 369.25 111.25 371.85 113.25 L367.7 110.95 Q369.95 114.95 373.85 119.05 L374.0 119.1 374.1 119.25 Q370.65 117.25 368.25 115.0 370.0 118.65 373.0 122.05 370.35 120.75 368.7 118.75 370.6 123.8 373.85 128.3 L375.85 136.8" fill="none" stroke="#000000" stroke-linecap="round" stroke-linejoin="round" stroke-width="1.0"/>
    <path d="M399.65 96.9 L399.65 103.4 403.55 98.05 M399.2 109.95 Q397.65 106.75 395.25 104.3 393.4 102.4 391.0 101.0 M400.1 109.95 Q401.65 106.7 404.15 104.25 405.95 102.4 408.3 101.0 M399.65 103.4 L395.75 98.05" fill="none" stroke="#000000" stroke-linecap="round" stroke-linejoin="round" stroke-opacity="0.5019608" stroke-width="1.0"/>
  </g>
</svg>
