<?xml version="1.0" encoding="UTF-8" standalone="no"?>
<svg xmlns:xlink="http://www.w3.org/1999/xlink" height="150.3px" width="59.05px" xmlns="http://www.w3.org/2000/svg">
  <g transform="matrix(1.0, 0.0, 0.0, 1.0, -370.3, -84.7)">
    <path d="M371.25 185.6 Q370.6 179.2 372.7 172.55 373.0 171.25 373.55 170.0 372.35 165.0 371.7 159.85 370.85 153.9 370.8 147.85 370.75 143.7 371.0 139.55 L371.1 137.85 371.05 137.1 Q370.55 127.1 373.35 118.6 374.0 116.45 374.9 114.45 371.95 109.15 377.5 102.65 L377.55 102.35 377.75 102.15 Q383.1 96.65 386.05 91.1 387.85 84.1 398.15 85.4 L399.45 85.75 Q404.25 87.25 405.65 90.4 409.75 87.4 416.05 90.15 423.25 91.3 423.65 101.75 428.95 106.1 427.55 113.9 431.0 124.95 425.4 130.05 L425.4 130.1 Q425.4 138.75 423.1 147.4 L422.55 144.6 M405.65 90.4 L406.75 91.9 Q410.6 96.05 420.5 99.75 422.25 100.65 423.65 101.75 M425.4 130.05 Q425.35 122.5 423.5 114.95 L423.1 113.55 Q421.5 106.5 415.6 103.05 412.05 101.25 408.65 100.45 L404.65 99.8 Q395.95 99.05 387.5 104.35 384.75 103.15 382.5 104.05 381.0 104.6 379.65 106.2 376.85 110.1 374.9 114.45" fill="none" stroke="#000000" stroke-linecap="round" stroke-linejoin="round" stroke-width="1.0"/>
    <path d="M422.55 144.6 Q418.9 129.2 405.9 123.1 L405.3 123.0 Q397.7 122.1 392.45 117.95 L389.45 113.0 Q388.35 120.8 382.8 127.45 L380.15 130.25 Q378.55 135.8 378.1 141.8 377.5 148.75 378.55 156.15 379.05 160.4 380.15 164.8 381.2 169.55 382.7 174.35 385.35 183.1 389.45 191.85 398.15 203.75 395.65 218.65 L392.9 213.45 Q389.95 227.75 408.1 233.6 L407.0 233.8 Q379.95 237.95 380.1 217.6 L379.3 211.6 Q377.7 202.9 373.55 194.8 L373.15 193.85 Q371.6 189.75 371.25 185.6 M380.15 130.25 L380.15 129.0" fill="none" stroke="#000000" stroke-linecap="round" stroke-linejoin="round" stroke-opacity="0.49803922" stroke-width="1.0"/>
  </g>
</svg>
