<?xml version="1.0" encoding="UTF-8" standalone="no"?>
<svg xmlns:xlink="http://www.w3.org/1999/xlink" height="106.3px" width="72.95px" xmlns="http://www.w3.org/2000/svg">
  <g transform="matrix(1.0, 0.0, 0.0, 1.0, -363.85, -99.75)">
    <path d="M375.2 132.0 Q375.55 140.0 376.4 146.95 377.55 156.6 379.75 164.15 378.75 154.85 378.55 148.25 M383.1 131.9 Q395.65 127.45 401.55 119.65 M373.65 184.2 Q374.45 179.9 374.75 175.0 M421.6 145.4 Q421.95 156.1 421.25 166.75 423.1 157.1 423.1 147.4 L424.6 131.15" fill="none" stroke="#000000" stroke-linecap="round" stroke-linejoin="round" stroke-opacity="0.5019608" stroke-width="1.0"/>
    <path d="M378.55 148.25 Q378.0 131.2 383.1 131.9 M378.55 148.25 Q380.2 151.5 380.75 155.2 L386.0 164.8 Q386.8 170.4 384.65 179.75 377.1 199.05 364.5 205.55 371.2 197.75 373.65 184.2 L364.35 188.0 366.5 185.35 Q374.7 173.05 371.95 140.75 371.2 136.45 371.95 131.15 L373.45 120.6 Q376.8 98.1 412.45 100.45 412.15 103.6 413.55 103.9 L418.3 103.6 Q427.95 109.7 429.05 145.45 428.45 176.2 436.3 189.65 L425.25 183.65 Q425.4 192.05 428.7 196.15 419.35 192.9 415.05 177.3 413.45 170.1 413.3 165.35 L418.75 155.05 Q419.35 149.6 421.6 145.4 L421.25 136.65 419.4 140.55 Q420.0 131.8 416.05 123.0 410.95 130.35 403.35 132.75 408.3 127.0 409.35 118.65 399.65 129.25 383.1 131.9" fill="none" stroke="#000000" stroke-linecap="round" stroke-linejoin="round" stroke-width="1.0"/>
  </g>
</svg>
