<?xml version="1.0" encoding="UTF-8" standalone="no"?>
<svg xmlns:xlink="http://www.w3.org/1999/xlink" height="132.55px" width="71.35px" xmlns="http://www.w3.org/2000/svg">
  <g transform="matrix(1.0, 0.0, 0.0, 1.0, -365.4, -99.3)">
    <path d="M402.6 99.9 Q419.95 100.4 426.5 119.0 427.45 125.3 427.2 138.5 426.9 151.7 433.65 163.25 438.6 172.7 434.15 187.0 435.45 180.1 431.85 177.1 432.85 180.95 432.5 185.35 431.1 196.55 428.0 201.4 426.15 204.35 424.75 207.0 428.0 205.5 430.7 206.65 428.65 210.85 428.65 213.8 428.65 216.5 430.35 218.25 427.35 220.9 425.65 223.9 428.0 224.05 429.9 225.35 425.4 226.7 423.65 231.3 422.45 228.65 420.2 229.25 420.45 223.3 422.8 217.6 420.8 218.2 419.6 221.1 419.15 215.0 417.65 213.05 416.95 212.15 416.05 212.2 L415.1 212.35 Q413.9 206.75 416.9 199.7 421.15 192.9 422.15 187.75 420.15 191.25 416.75 193.3 413.65 195.45 412.0 204.15 413.1 197.05 409.95 190.35 L412.45 190.3 Q414.8 185.85 415.25 178.55 414.8 173.6 417.65 169.55 420.2 167.2 421.45 170.85 418.35 167.8 417.15 172.95 415.95 177.1 418.25 178.65 421.25 180.15 423.95 175.8 427.45 167.75 424.75 159.8 422.75 154.85 421.95 147.45 420.45 151.55 417.55 154.75 422.4 144.9 420.0 132.25 416.7 130.8 414.75 125.3 414.2 129.95 410.75 133.1 409.65 132.45 407.8 132.45 L407.35 133.05 403.3 132.75 Q402.2 132.45 401.75 131.55 399.65 131.25 398.55 132.2 398.5 129.85 399.15 127.1 399.8 124.4 399.25 121.05 398.95 123.35 397.9 125.3 396.45 129.7 394.4 130.75 391.9 132.3 388.0 131.65 L386.2 131.25 385.3 131.25 Q382.7 131.25 380.75 132.3 L381.25 130.35 379.1 131.9 Q378.4 146.6 383.35 155.65 378.85 149.85 377.25 138.5 376.2 146.7 380.5 158.65 L378.2 153.65 Q378.45 157.15 377.45 159.85 374.7 167.8 378.2 175.85 380.95 180.2 383.95 178.7 386.2 177.15 385.05 173.0 383.8 167.85 380.75 170.9 382.0 167.3 384.5 169.6 387.35 173.65 386.9 178.6 387.35 185.95 389.7 190.35 L392.25 190.4 Q389.05 197.1 390.15 204.2 388.55 195.5 385.4 193.35 382.05 191.35 380.05 187.8 381.0 192.95 385.3 199.8 388.3 206.8 387.05 212.4 L386.15 212.25 Q385.25 212.2 384.5 213.1 383.0 215.05 382.55 221.15 381.4 218.25 379.4 217.65 381.7 223.4 382.0 229.3 379.7 228.7 378.55 231.35 376.8 226.75 372.3 225.4 374.2 224.1 376.5 223.95 374.85 220.95 371.85 218.3 373.55 216.55 373.55 213.9 373.55 210.9 371.45 206.75 374.2 205.55 377.45 207.05 L374.2 201.45 Q371.05 196.6 369.7 185.4 369.3 181.0 370.35 177.15 366.7 180.15 368.0 187.05 363.6 172.75 368.5 163.3 373.65 151.55 372.9 131.55 373.15 127.25 374.05 122.45 378.65 98.5 398.1 99.9 400.35 102.2 402.6 99.9 M399.25 121.05 L399.4 118.1 M381.25 130.35 L382.15 129.8 M396.2 103.9 Q386.85 105.75 381.6 116.65 380.15 122.0 377.05 126.65 375.5 129.05 375.55 131.55 L375.75 133.3 379.1 131.9 M396.15 113.9 Q395.5 119.95 391.15 127.9 389.6 130.9 388.0 131.65 M389.25 123.95 Q388.3 128.85 385.3 131.25 M403.05 122.5 Q404.35 127.65 401.75 131.55 M375.1 178.4 Q373.7 191.7 378.4 197.85 383.35 205.05 384.5 213.1 M380.05 187.8 Q379.1 186.25 378.45 184.4 M389.7 190.35 Q388.8 190.1 388.35 189.1 384.3 186.8 382.25 181.8 M372.55 166.05 Q371.2 168.7 370.35 177.15 M378.2 153.65 Q374.2 143.15 375.75 133.3 M421.95 147.45 Q424.15 141.55 423.4 133.7 L423.45 132.1 Q423.65 120.8 414.65 107.4 M420.0 132.25 L422.15 132.7 Q419.2 128.65 418.2 120.85 M410.4 125.4 Q409.65 130.3 407.8 132.45 M404.0 106.0 Q412.4 110.65 414.3 118.85 L414.65 124.75 414.75 125.3 M419.95 181.7 Q417.85 186.7 413.8 189.05 413.35 190.05 412.45 190.3 M422.15 187.75 L423.7 184.3 M431.85 177.1 Q431.0 168.65 429.6 166.0 M417.65 213.05 Q418.85 205.0 423.75 197.75 428.45 191.65 427.1 178.35 M424.75 207.0 Q422.85 210.5 421.6 213.45 424.6 210.0 428.1 208.1 L429.6 207.25 M421.6 213.45 Q419.75 218.0 419.6 221.1 M422.8 225.0 Q423.45 218.55 428.65 213.8 M425.65 223.9 Q423.75 227.35 423.65 231.3 M422.8 217.6 Q424.75 212.7 428.1 208.1 M379.4 217.65 Q377.45 212.8 374.05 208.15 L372.55 207.3 M382.55 221.15 Q382.45 218.05 380.55 213.5 377.55 210.05 374.05 208.15 M380.55 213.5 L377.45 207.05 M378.55 231.35 Q378.4 227.4 376.5 223.95 M373.55 213.9 Q378.75 218.65 379.4 225.05 M421.55 197.85 Q416.5 203.15 416.05 212.2 M386.15 212.25 Q385.7 203.25 380.6 197.9" fill="none" stroke="#000000" stroke-linecap="round" stroke-linejoin="round" stroke-width="1.0"/>
  </g>
</svg>
