<?xml version="1.0" encoding="UTF-8" standalone="no"?>
<svg xmlns:xlink="http://www.w3.org/1999/xlink" height="45.95px" width="61.65px" xmlns="http://www.w3.org/2000/svg">
  <g transform="matrix(1.0, 0.0, 0.0, 1.0, 31.6, 209.15)">
    <path d="M24.2 -163.2 L24.1 -167.65 24.1 -167.95 24.1 -168.25 Q24.05 -179.7 23.1 -185.0 L26.75 -190.7 Q28.9 -189.0 30.05 -186.85 28.7 -187.8 24.7 -186.8 28.2 -176.7 24.2 -163.2 M-20.6 -191.35 L-24.7 -189.25 Q-20.8 -198.8 -7.95 -207.65 -17.55 -197.3 -20.6 -191.35 M-7.75 -198.3 L-10.5 -199.5 Q-3.25 -206.15 6.8 -209.15 -2.1 -204.45 -7.75 -198.3 M-27.45 -186.6 Q-27.95 -188.25 -31.35 -191.0 -26.35 -188.85 -23.6 -185.15 L-23.55 -185.0 Q-24.45 -179.7 -24.5 -168.25 L-24.5 -167.95 -24.5 -167.65 -24.35 -163.25 Q-27.1 -171.35 -27.5 -176.5 -27.85 -179.9 -27.6 -181.25 L-27.45 -182.25 -31.6 -184.35 -27.3 -185.95 -27.45 -186.6" fill="#000000" fill-opacity="0.2" fill-rule="evenodd" stroke="none"/>
  </g>
</svg>
