<?xml version="1.0" encoding="UTF-8" standalone="no"?>
<svg xmlns:xlink="http://www.w3.org/1999/xlink" height="49.05px" width="69.95px" xmlns="http://www.w3.org/2000/svg">
  <g transform="matrix(1.0, 0.0, 0.0, 1.0, -365.0, -83.2)">
    <path d="M400.0 83.35 Q421.7 81.95 430.45 97.4 438.6 111.7 431.95 124.0 429.6 129.15 424.3 132.25 L424.3 132.1 424.3 131.8 Q424.2 120.35 423.3 115.0 L422.1 113.4 Q414.0 103.95 400.0 104.05 385.95 103.95 377.9 113.4 L376.65 115.0 Q375.75 120.35 375.65 131.8 L375.65 132.1 Q370.35 129.0 368.0 123.85 361.35 111.6 369.5 97.3 378.25 81.8 400.0 83.35" fill="#000000" fill-rule="evenodd" stroke="none"/>
  </g>
</svg>
