<?xml version="1.0" encoding="UTF-8" standalone="no"?>
<svg xmlns:xlink="http://www.w3.org/1999/xlink" height="109.2px" width="320.8px" xmlns="http://www.w3.org/2000/svg">
  <g transform="matrix(1.0, 0.0, 0.0, 1.0, -239.5, -89.55)">
    <path d="M480.9 105.95 L498.65 95.05 499.45 93.45 503.35 90.05 M481.8 120.9 L498.65 110.65 498.65 95.05 M531.45 98.6 Q530.45 99.0 529.5 99.9 527.7 101.75 527.7 104.35 L527.75 105.25 Q527.95 106.8 528.85 108.05 L529.65 103.95 534.35 100.7 535.7 101.8 538.5 104.0 539.15 107.85 Q539.9 106.65 540.1 105.3 L540.2 104.35 Q540.2 101.75 538.35 99.9 536.55 98.1 533.95 98.1 532.6 98.1 531.45 98.6 M554.55 90.05 L552.35 93.45 Q556.05 93.75 555.8 95.95 L559.8 94.7 M552.35 93.45 L499.45 93.45 M554.55 104.35 L554.5 105.3 Q554.3 106.65 553.5 107.85 L552.75 108.75 Q550.9 110.55 548.3 110.55 545.7 110.55 543.9 108.75 L543.75 108.6 543.25 108.05 Q542.35 106.8 542.15 105.25 L542.05 104.35 Q542.05 101.75 543.9 99.9 545.7 98.1 548.3 98.1 550.9 98.1 552.75 99.9 554.55 101.75 554.55 104.35 M543.75 108.6 L543.8 108.6 Q548.3 106.2 550.05 101.8 L548.7 100.7 544.0 103.95 543.25 108.05 M559.8 109.05 L555.8 108.1 555.65 108.75 Q554.7 111.85 550.45 115.0 L554.55 115.0 M553.5 107.85 L552.85 104.0 550.05 101.8 M535.7 101.8 Q534.4 105.15 531.45 107.3 L529.45 108.6 529.5 108.75 Q530.45 109.65 531.45 110.1 L533.95 110.55 Q536.55 110.55 538.35 108.75 L539.15 107.85 M528.85 108.05 L529.4 108.6 529.45 108.6 M529.4 108.6 L529.5 108.75 M526.9 146.6 Q526.85 144.95 526.4 142.75 525.55 142.85 524.9 143.85 524.15 145.1 524.15 146.85 524.15 148.6 524.9 149.75 525.7 151.0 526.8 151.0 527.9 151.0 528.7 149.75 529.45 148.6 529.45 146.85 529.45 145.1 528.7 143.85 527.9 142.7 526.8 142.7 L526.4 142.75 526.0 141.7 Q525.55 141.1 523.3 140.35 M516.7 143.05 L518.15 143.5 Q519.25 143.8 519.6 144.35 L519.9 144.7 520.1 144.7 Q521.0 144.7 521.6 145.6 522.25 146.5 522.25 147.75 522.25 149.0 521.6 149.9 521.0 150.8 520.1 150.8 519.2 150.8 518.55 149.9 517.95 149.0 517.95 147.75 517.95 146.5 518.55 145.6 519.05 144.9 519.75 144.75 L519.6 144.35 M539.55 121.3 L529.25 125.6 515.1 125.6 514.9 125.85 512.95 125.6 510.4 125.6 510.4 125.95 Q510.4 126.9 509.85 127.55 509.25 128.2 508.55 128.2 L507.1 131.05 509.65 131.65 510.0 131.7 M513.4 144.7 L513.8 146.85 513.9 146.85 514.85 147.15 515.15 147.5 Q515.7 148.15 515.7 149.05 515.7 149.95 515.15 150.6 514.7 151.2 514.05 151.25 L513.85 151.25 Q513.1 151.25 512.55 150.6 512.05 149.95 512.05 149.05 512.05 148.15 512.55 147.5 513.1 146.9 513.8 146.85 M551.15 140.4 Q535.9 145.55 530.45 137.8 M525.95 103.75 Q525.95 101.15 524.15 99.3 L524.05 99.25 Q522.25 97.5 519.7 97.5 517.1 97.5 515.3 99.3 513.45 101.15 513.45 103.75 L513.55 104.65 Q513.75 106.2 514.65 107.45 L515.4 103.35 520.1 100.1 521.45 101.2 524.25 103.4 524.9 107.25 Q525.7 106.1 525.9 104.7 L525.95 103.75 M521.45 101.2 Q519.7 105.65 515.2 108.05 L515.15 108.05 515.3 108.15 Q517.1 110.0 519.7 110.0 L522.1 109.6 524.15 108.15 524.9 107.25 M511.6 104.7 Q511.4 106.1 510.6 107.25 L509.85 108.15 509.75 108.25 Q507.95 110.0 505.4 110.0 502.8 110.0 501.0 108.15 L500.85 108.05 500.35 107.45 Q499.45 106.2 499.25 104.65 L499.15 103.75 Q499.15 101.15 501.0 99.3 502.8 97.5 505.4 97.5 507.95 97.5 509.75 99.25 L509.85 99.3 Q511.65 101.15 511.65 103.75 L511.6 104.7 M510.6 107.25 L509.95 103.4 507.15 101.2 Q505.4 105.65 500.9 108.05 L500.85 108.05 M514.65 107.45 L515.15 108.05 M507.15 101.2 L505.8 100.1 501.1 103.35 500.35 107.45 M487.15 125.6 L504.0 115.0 Q500.0 115.3 498.65 110.65 M504.65 125.6 L500.8 125.6 500.75 125.95 Q500.75 126.9 501.3 127.55 501.9 128.2 502.7 128.2 L503.25 128.1 504.05 127.55 Q504.65 126.9 504.65 125.95 L504.65 125.6 506.6 125.6 510.4 125.6 M496.9 128.2 Q497.6 128.2 498.2 127.55 498.8 126.9 498.8 125.95 L498.8 125.6 494.95 125.6 494.9 125.95 Q494.9 126.9 495.45 127.55 496.05 128.2 496.85 128.2 L496.9 128.2 Q496.85 134.05 503.4 134.35 L504.75 134.4 505.15 133.9 507.1 131.05 Q503.65 130.05 503.25 128.1 M498.8 125.6 L500.8 125.6 M494.35 125.6 L494.95 125.6 M503.85 139.15 Q503.25 138.7 503.25 137.95 503.25 136.45 504.75 134.4 L507.75 134.4 M512.95 125.6 L515.1 125.6 M506.6 125.6 L506.5 125.95 Q506.5 126.9 507.1 127.55 507.7 128.2 508.45 128.2 L508.55 128.2 M513.9 146.85 L513.9 146.9 513.65 148.35 M519.75 144.75 L519.9 144.7 520.35 146.4 520.1 147.6 M550.45 115.0 L504.0 115.0 M555.8 95.95 L555.8 108.1 M305.45 125.6 L304.85 125.6 304.9 125.95 Q304.9 126.9 304.35 127.55 303.75 128.2 302.95 128.2 L302.9 128.2 Q302.95 134.05 296.4 134.35 L295.05 134.4 Q296.55 136.45 296.55 137.95 296.55 138.7 295.95 139.15 M268.35 98.6 Q269.35 99.0 270.3 99.9 272.1 101.75 272.1 104.35 L272.05 105.25 Q271.85 106.8 270.95 108.05 L270.4 108.6 270.3 108.75 268.35 110.1 265.85 110.55 Q263.25 110.55 261.45 108.75 L260.65 107.85 Q259.9 106.65 259.7 105.3 L259.6 104.35 Q259.6 101.75 261.45 99.9 263.25 98.1 265.85 98.1 267.2 98.1 268.35 98.6 M244.0 95.95 L244.0 108.1 244.15 108.75 Q245.1 111.85 249.35 115.0 L295.8 115.0 Q299.8 115.3 301.15 110.65 L301.15 95.05 300.35 93.45 247.45 93.45 Q243.75 93.75 244.0 95.95 L240.0 94.7 M240.0 109.05 L244.0 108.1 M245.25 90.05 L247.45 93.45 M300.35 93.45 L296.45 90.05 M318.9 105.95 L301.15 95.05 M300.65 103.75 Q300.65 101.15 298.8 99.3 297.0 97.5 294.4 97.5 291.85 97.5 290.05 99.25 L289.95 99.3 Q288.15 101.15 288.15 103.75 L288.2 104.7 Q288.4 106.1 289.2 107.25 L289.85 103.4 292.65 101.2 294.0 100.1 298.7 103.35 299.45 107.45 Q300.35 106.2 300.55 104.65 L300.65 103.75 M289.2 107.25 L289.95 108.15 290.05 108.25 Q291.85 110.0 294.4 110.0 297.0 110.0 298.8 108.15 L298.95 108.05 298.9 108.05 Q294.4 105.65 292.65 101.2 M298.95 108.05 L299.45 107.45 M286.25 104.65 Q286.05 106.2 285.15 107.45 L284.65 108.05 284.5 108.15 Q282.7 110.0 280.1 110.0 L277.7 109.6 275.65 108.15 274.9 107.25 Q274.1 106.1 273.9 104.7 L273.85 103.75 Q273.85 101.15 275.65 99.3 L275.75 99.25 Q277.55 97.5 280.1 97.5 282.7 97.5 284.5 99.3 286.35 101.15 286.35 103.75 L286.25 104.65 M285.15 107.45 L284.4 103.35 279.7 100.1 278.35 101.2 Q280.1 105.65 284.6 108.05 L284.65 108.05 M302.9 128.2 Q302.2 128.2 301.6 127.55 301.0 126.9 301.0 125.95 L301.0 125.6 299.0 125.6 299.05 125.95 Q299.05 126.9 298.5 127.55 297.9 128.2 297.1 128.2 L296.55 128.1 Q296.15 130.05 292.7 131.05 L294.65 133.9 295.05 134.4 292.05 134.4 M283.1 143.05 L281.65 143.5 Q280.55 143.8 280.2 144.35 L280.05 144.75 Q280.75 144.9 281.25 145.6 281.85 146.5 281.85 147.75 281.85 149.0 281.25 149.9 280.6 150.8 279.7 150.8 278.8 150.8 278.2 149.9 277.55 149.0 277.55 147.75 277.55 146.5 278.2 145.6 278.8 144.7 279.7 144.7 L279.9 144.7 280.2 144.35 M296.55 128.1 L295.75 127.55 Q295.15 126.9 295.15 125.95 L295.15 125.6 293.2 125.6 293.3 125.95 Q293.3 126.9 292.7 127.55 292.1 128.2 291.35 128.2 L291.25 128.2 292.7 131.05 290.15 131.65 289.8 131.7 M276.5 140.35 Q274.25 141.1 273.8 141.7 L273.4 142.75 Q274.25 142.85 274.9 143.85 275.65 145.1 275.65 146.85 275.65 148.6 274.9 149.75 274.1 151.0 273.0 151.0 271.9 151.0 271.1 149.75 270.35 148.6 270.35 146.85 270.35 145.1 271.1 143.85 271.9 142.7 273.0 142.7 L273.4 142.75 Q272.95 144.95 272.9 146.6 M299.0 125.6 L295.15 125.6 M293.2 125.6 L289.4 125.6 289.4 125.95 Q289.4 126.9 289.95 127.55 290.55 128.2 291.25 128.2 M289.4 125.6 L286.85 125.6 284.9 125.85 284.7 125.6 270.55 125.6 260.25 121.3 M248.65 140.4 Q263.9 145.55 269.35 137.8 M284.7 125.6 L286.85 125.6 M285.9 146.85 Q285.35 146.85 284.95 147.15 L284.65 147.5 Q284.1 148.15 284.1 149.05 284.1 149.95 284.65 150.6 285.1 151.2 285.75 151.25 L285.95 151.25 Q286.7 151.25 287.25 150.6 287.75 149.95 287.75 149.05 287.75 148.15 287.25 147.5 286.7 146.9 286.0 146.85 L285.9 146.85 285.9 146.9 286.15 148.35 M286.4 144.7 L286.0 146.85 M312.65 125.6 L295.8 115.0 M318.0 120.9 L301.15 110.65 M301.0 125.6 L304.85 125.6 M278.35 101.2 L275.55 103.4 274.9 107.25 M270.95 108.05 L270.15 103.95 265.45 100.7 264.1 101.8 Q265.4 105.15 268.35 107.3 269.25 108.05 270.35 108.6 L270.4 108.6 M270.3 108.75 L270.35 108.6 M255.9 99.9 Q254.1 98.1 251.5 98.1 248.9 98.1 247.05 99.9 245.25 101.75 245.25 104.35 L245.3 105.3 Q245.5 106.65 246.3 107.85 L246.95 104.0 249.75 101.8 251.1 100.7 255.8 103.95 256.55 108.05 Q257.45 106.8 257.65 105.25 L257.75 104.35 Q257.75 101.75 255.9 99.9 M246.3 107.85 L247.05 108.75 Q248.9 110.55 251.5 110.55 254.1 110.55 255.9 108.75 L256.05 108.6 256.0 108.6 Q251.5 106.2 249.75 101.8 M256.05 108.6 L256.55 108.05 M264.1 101.8 L261.3 104.0 260.65 107.85 M249.35 115.0 L245.25 115.0 M279.9 144.7 L280.05 144.75 M279.7 147.6 L279.45 146.4 Q279.45 145.8 279.9 144.7" fill="none" stroke="#000000" stroke-linecap="round" stroke-linejoin="round" stroke-opacity="0.49803922" stroke-width="1.0"/>
    <path d="M503.35 90.05 L491.15 95.95 Q484.4 100.95 480.9 105.95 L481.8 120.9 Q482.8 124.0 485.15 125.05 L487.15 125.6 494.35 125.6 481.35 139.25 Q473.95 148.8 472.5 158.3 L467.2 198.25 484.35 194.2 Q492.0 193.3 492.45 185.6 492.4 176.65 493.25 169.05 495.45 150.8 503.45 139.7 L503.85 139.15 Q504.7 139.8 506.85 139.9 511.0 139.9 511.9 141.05 512.8 142.3 513.4 144.7 500.9 151.05 498.45 158.1 504.35 154.2 513.75 152.8 522.3 151.5 533.75 152.25 533.55 147.35 542.0 144.9 549.2 143.15 551.15 140.4 552.85 137.95 550.25 134.7 L539.55 121.3 554.55 115.0 Q559.05 113.05 559.8 109.05 L559.8 94.7 Q558.25 90.2 554.55 90.05 L503.35 90.05 M527.45 134.55 L526.25 130.5 Q523.2 127.9 518.8 126.7 517.0 126.1 514.9 125.85 L510.0 131.7 Q515.85 132.75 517.15 135.2 517.5 135.85 517.5 136.7 517.5 137.6 516.7 139.5 518.8 140.25 522.5 140.1 L523.3 140.35 530.45 137.8 529.9 137.35 527.85 135.0 527.45 134.55 M523.3 140.35 Q519.75 141.7 516.7 143.05 L515.5 143.65 513.4 144.7 M510.0 131.7 L507.75 134.4 508.6 134.35 Q511.3 134.5 512.15 135.6 514.2 138.15 516.05 139.15 L516.35 139.3 516.7 139.5 516.0 141.1 515.6 141.85 515.75 142.4 Q515.95 142.85 516.5 143.05 L516.7 143.05 M507.75 134.4 L504.3 138.5 503.85 139.15 M295.95 139.15 L296.35 139.7 Q304.35 150.8 306.55 169.05 307.4 176.65 307.35 185.6 307.8 193.3 315.45 194.2 L332.6 198.25 327.3 158.3 Q325.85 148.8 318.45 139.25 L305.45 125.6 312.65 125.6 314.65 125.05 Q317.0 124.0 318.0 120.9 L318.9 105.95 Q315.4 100.95 308.65 95.95 L296.45 90.05 245.25 90.05 Q241.55 90.2 240.0 94.7 L240.0 109.05 M295.95 139.15 L295.5 138.5 292.05 134.4 291.2 134.35 Q288.5 134.5 287.65 135.6 285.6 138.15 283.75 139.15 L283.45 139.3 283.1 139.5 283.8 141.1 284.2 141.85 284.05 142.4 283.3 143.05 283.1 143.05 284.3 143.65 286.4 144.7 Q287.0 142.3 287.9 141.05 288.8 139.9 292.95 139.9 295.1 139.8 295.95 139.15 M292.05 134.4 L289.8 131.7 Q283.95 132.75 282.65 135.2 282.3 135.85 282.3 136.7 282.3 137.6 283.1 139.5 281.0 140.25 277.3 140.1 L276.5 140.35 283.1 143.05 M289.8 131.7 L284.9 125.85 Q282.8 126.1 281.0 126.7 276.6 127.9 273.55 130.5 L272.35 134.55 271.95 135.0 269.9 137.35 269.35 137.8 Q273.15 139.05 276.5 140.35 M260.25 121.3 L249.55 134.7 Q246.95 137.95 248.65 140.4 M245.25 115.0 L260.25 121.3 M286.4 144.7 Q298.9 151.05 301.35 158.1 295.45 154.2 286.05 152.8 277.5 151.5 266.05 152.25 266.25 147.35 257.8 144.9 250.6 143.15 248.65 140.4 M245.25 115.0 Q240.75 113.05 240.0 109.05" fill="none" stroke="#000000" stroke-linecap="round" stroke-linejoin="round" stroke-width="1.0"/>
  </g>
</svg>
