<?xml version="1.0" encoding="UTF-8" standalone="no"?>
<svg xmlns:xlink="http://www.w3.org/1999/xlink" height="145.45px" width="435.6px" xmlns="http://www.w3.org/2000/svg">
  <g transform="matrix(1.0, 0.0, 0.0, 1.0, -182.1, -147.85)">
    <path d="M502.35 147.85 Q529.25 149.05 550.05 158.75 585.5 175.3 603.15 216.7 613.5 241.0 617.7 273.95 591.45 285.55 555.5 293.3 543.9 268.3 524.4 258.4 L523.85 248.75 535.65 231.55 515.75 199.45 496.4 202.65 488.45 193.3 Q500.0 172.7 502.35 147.85 M249.8 158.75 Q270.6 149.05 297.5 147.85 299.85 172.7 311.35 193.3 L303.45 202.65 284.1 199.45 264.2 231.55 276.0 248.75 275.45 258.4 Q255.9 268.3 244.3 293.3 208.4 285.55 182.1 273.95 186.35 241.0 196.7 216.7 214.35 175.3 249.8 158.75 M494.5 220.65 Q497.1 218.05 500.8 218.05 504.5 218.05 507.2 220.65 509.8 223.35 509.8 227.05 509.8 230.75 507.2 233.35 504.5 236.05 500.8 236.05 497.1 236.05 494.5 233.35 491.8 230.75 491.8 227.05 491.8 223.35 494.5 220.65 M299.05 218.05 Q302.7 218.05 305.35 220.65 308.05 223.35 308.05 227.05 308.05 230.75 305.35 233.35 302.7 236.05 299.05 236.05 295.35 236.05 292.65 233.35 290.05 230.75 290.05 227.05 290.05 223.35 292.65 220.65 295.35 218.05 299.05 218.05" fill="#000000" fill-rule="evenodd" stroke="none"/>
  </g>
</svg>
