<?xml version="1.0" encoding="UTF-8" standalone="no"?>
<svg xmlns:xlink="http://www.w3.org/1999/xlink" height="141.75px" width="430.2px" xmlns="http://www.w3.org/2000/svg">
  <g transform="matrix(1.0, 0.0, 0.0, 1.0, -184.8, -153.4)">
    <path d="M484.8 241.85 L479.75 236.55 Q470.45 225.9 466.7 215.4 L479.75 205.05 487.3 198.55 Q513.2 176.35 532.95 153.4 593.25 162.4 613.55 216.75 611.5 225.3 608.15 233.2 L615.0 247.35 Q612.15 254.9 607.7 262.1 L612.2 271.45 Q606.9 284.15 595.5 295.15 576.5 284.7 560.2 272.8 L532.05 279.4 523.1 267.7 516.3 269.65 505.65 251.3 499.1 252.9 489.55 240.5 484.8 241.85 M310.3 240.5 L300.75 252.9 294.0 251.2 283.55 269.65 276.7 267.7 267.8 279.4 239.65 272.8 Q223.35 284.7 204.35 295.15 192.9 284.15 187.6 271.45 L192.1 262.1 Q187.7 254.9 184.8 247.35 L191.65 233.2 Q188.35 225.3 186.25 216.75 206.6 162.4 266.9 153.4 286.6 176.35 312.55 198.55 L320.1 205.05 333.15 215.4 Q329.35 225.9 320.1 236.55 L315.05 241.85 310.3 240.5" fill="#000000" fill-rule="evenodd" stroke="none"/>
  </g>
</svg>
