<?xml version="1.0" encoding="UTF-8" standalone="no"?>
<svg xmlns:xlink="http://www.w3.org/1999/xlink" height="125.95px" width="403.2px" xmlns="http://www.w3.org/2000/svg">
  <g transform="matrix(1.0, 0.0, 0.0, 1.0, -198.3, -146.4)">
    <path d="M525.65 150.05 L526.2 149.3 Q530.25 144.0 535.65 148.4 548.85 158.25 558.95 169.55 L561.8 167.05 Q567.5 164.45 570.75 168.95 582.7 185.5 589.65 203.05 L592.25 201.95 Q596.65 202.4 597.2 207.45 597.3 221.4 594.3 235.45 L597.2 235.0 Q602.15 236.15 601.4 241.4 599.6 254.45 596.0 267.4 594.2 270.45 590.1 270.45 L550.2 272.35 Q545.25 272.6 543.1 267.6 L536.25 249.4 Q534.9 245.1 537.8 243.65 L540.65 243.3 533.2 233.2 Q530.85 229.4 533.9 227.0 534.75 226.65 535.55 226.25 L519.5 211.05 Q515.9 207.75 518.6 204.4 L519.7 203.5 506.3 197.9 Q501.95 195.65 503.25 192.35 L503.95 191.0 491.0 184.95 Q484.95 182.9 485.3 178.75 L485.6 177.65 494.05 150.3 Q494.3 149.7 494.7 149.25 496.75 146.1 500.9 147.0 512.6 149.85 523.3 154.35 L525.65 150.05 M238.0 167.05 L240.9 169.55 Q250.95 158.25 264.2 148.4 269.6 144.0 273.65 149.3 L274.2 150.05 276.55 154.35 Q287.25 149.85 298.95 147.0 303.1 146.1 305.15 149.25 L305.8 150.3 314.25 177.65 314.5 178.75 Q314.85 182.9 308.85 184.95 302.4 188.0 295.9 191.0 L296.6 192.35 Q297.85 195.65 293.55 197.9 L280.15 203.5 281.2 204.4 Q283.9 207.75 280.3 211.05 L264.3 226.25 265.9 227.0 Q268.95 229.4 266.65 233.2 L259.15 243.3 262.05 243.65 Q264.9 245.1 263.55 249.4 L256.75 267.6 Q254.55 272.6 249.6 272.35 L209.75 270.45 Q205.6 270.45 203.8 267.4 200.2 254.45 198.4 241.4 197.7 236.15 202.65 235.0 L205.5 235.45 Q202.55 221.4 202.65 207.45 203.2 202.4 207.6 201.95 L210.2 203.05 Q217.15 185.5 229.1 168.95 232.35 164.45 238.0 167.05" fill="#000000" fill-rule="evenodd" stroke="none"/>
  </g>
</svg>
