<?xml version="1.0" encoding="UTF-8" standalone="no"?>
<svg xmlns:xlink="http://www.w3.org/1999/xlink" height="64.25px" width="387.5px" xmlns="http://www.w3.org/2000/svg">
  <g transform="matrix(1.0, 0.0, 0.0, 1.0, -206.15, -183.35)">
    <path d="M581.9 183.4 Q588.2 188.85 593.65 195.95 576.35 196.05 560.1 200.7 521.9 211.6 489.35 247.6 486.75 239.3 484.85 231.85 518.7 194.6 556.35 186.0 568.9 183.1 581.9 183.4 M217.9 183.4 Q230.9 183.1 243.45 186.0 274.5 193.1 303.0 219.7 309.05 225.35 314.95 231.85 313.05 239.3 310.45 247.6 301.8 238.05 292.8 230.25 267.75 208.7 239.7 200.7 223.45 196.05 206.15 195.95 211.6 188.85 217.9 183.4" fill="#000000" fill-rule="evenodd" stroke="none"/>
  </g>
</svg>
