<?xml version="1.0" encoding="UTF-8" standalone="no"?>
<svg xmlns:xlink="http://www.w3.org/1999/xlink" height="441.8px" width="254.75px" xmlns="http://www.w3.org/2000/svg">
  <g transform="matrix(1.0, 0.0, 0.0, 1.0, -271.1, -121.1)">
    <path d="M383.65 155.65 Q383.65 153.5 384.05 151.5 379.3 151.95 375.6 146.45 373.65 143.55 375.55 140.3 382.5 128.2 395.5 121.85 L396.55 121.1 396.7 121.3 397.05 121.1 Q405.9 132.45 393.45 145.6 L393.05 146.0 393.6 145.95 Q413.9 157.7 392.35 170.45 390.9 171.3 389.75 171.25 387.9 171.15 386.85 168.75 383.65 161.75 383.65 155.65 M342.55 190.6 L345.45 189.6 347.3 191.8 342.55 190.6 M349.15 208.05 Q352.15 209.25 355.8 212.35 L355.85 212.35 Q357.45 208.75 360.35 206.3 L361.65 205.25 362.3 205.0 363.1 205.55 Q370.65 211.05 363.55 222.25 L361.15 225.35 360.3 226.2 352.0 227.35 Q344.4 228.85 341.15 233.7 L338.15 229.95 336.95 227.95 Q334.9 223.65 336.25 218.4 337.1 215.1 338.3 212.75 L344.7 210.3 Q347.25 209.25 349.15 208.05 M376.7 215.75 L379.7 212.35 Q383.05 208.3 387.65 206.5 405.25 209.85 396.45 226.6 392.65 233.8 388.0 236.65 383.9 232.25 377.2 230.1 380.15 221.9 376.7 215.75 M380.6 305.55 Q379.2 309.65 376.45 313.25 374.7 315.55 373.2 316.55 372.65 320.15 371.55 323.95 370.25 328.45 366.6 328.85 364.55 329.05 361.75 327.95 356.55 325.95 352.05 323.35 345.1 319.35 339.85 314.05 331.1 305.25 326.7 292.9 325.3 288.9 324.75 284.85 324.35 282.05 324.4 279.2 324.45 276.7 327.15 277.6 330.7 278.8 332.9 281.9 335.45 272.8 342.45 268.6 L342.45 268.5 Q348.7 276.3 339.0 287.5 L338.75 287.9 Q341.45 291.15 344.8 293.95 343.6 282.75 349.35 276.5 L350.55 275.25 Q351.7 274.25 353.6 275.5 358.75 278.95 362.6 282.9 362.6 285.35 362.95 288.05 363.45 292.05 363.3 295.55 363.05 299.7 364.85 303.45 365.45 304.75 366.6 305.25 373.0 308.05 380.6 305.55 M376.2 356.1 L376.55 355.8 Q376.3 365.95 392.95 361.55 L395.15 360.85 Q403.2 369.4 395.55 386.05 391.35 395.2 385.3 394.2 L385.45 394.05 Q390.45 388.7 383.15 386.65 381.5 386.7 380.15 388.0 L377.75 390.25 Q369.4 383.75 369.4 373.5 369.4 369.9 370.15 366.85 372.85 363.6 375.1 359.5 376.05 357.75 376.2 356.1 M388.9 315.45 Q390.5 312.4 394.55 309.05 L396.9 306.7 Q398.4 304.85 399.45 302.45 400.4 300.35 402.5 300.3 412.4 302.15 413.35 313.95 L413.65 317.5 413.7 320.25 Q413.0 327.5 404.3 329.3 L400.4 329.75 Q397.75 329.9 395.35 328.55 385.05 322.75 388.9 315.45 M411.05 276.8 Q405.6 275.7 401.2 269.35 396.35 262.35 402.65 256.8 406.3 253.65 410.55 251.3 404.05 250.35 401.5 241.15 401.0 239.45 402.95 240.4 407.75 242.7 412.2 242.25 411.55 243.3 411.05 244.45 409.0 249.1 413.75 249.3 423.4 249.75 425.45 241.5 426.5 237.1 426.4 232.65 429.0 231.25 431.8 229.1 438.0 224.3 439.65 220.95 L444.9 221.2 Q449.6 221.7 454.0 218.5 454.6 218.05 455.15 217.9 459.65 222.2 456.7 226.9 L457.4 227.25 Q451.2 235.2 457.9 247.05 L458.0 247.2 457.6 247.2 Q452.9 250.35 451.35 254.3 L449.95 252.65 448.0 250.2 Q446.95 252.7 444.75 255.3 436.75 264.8 433.15 260.2 432.0 264.9 428.95 268.5 L427.85 268.0 Q418.2 270.1 411.05 276.8 M420.25 185.65 Q418.2 184.9 415.75 183.55 409.85 180.35 407.45 173.5 402.8 160.0 416.4 157.35 431.05 163.1 430.05 180.4 429.9 182.95 429.0 184.5 L427.35 184.15 Q423.4 184.3 420.25 185.65 M462.8 230.6 L464.75 232.35 462.55 233.3 462.6 232.9 462.8 230.6 M491.65 235.25 Q484.3 227.85 480.2 219.4 475.8 210.4 475.1 200.2 475.0 198.65 477.0 198.6 493.65 199.2 502.85 206.55 512.6 214.3 514.1 229.65 514.4 232.8 513.25 235.25 512.95 237.15 512.45 238.45 510.85 242.5 506.8 240.8 500.3 243.35 493.8 237.35 L491.65 235.25 M470.9 213.2 Q467.35 212.9 464.1 211.0 462.45 209.95 461.2 208.5 458.05 204.75 454.0 201.6 442.85 192.95 452.15 184.65 466.25 186.75 475.5 193.95 471.05 198.35 468.3 204.55 467.1 207.3 468.35 209.45 469.55 211.5 470.9 213.2 M439.8 301.95 Q450.5 306.15 454.7 316.4 458.5 311.6 463.85 308.7 465.85 307.6 468.05 306.75 475.8 312.4 465.75 318.35 L465.1 318.7 Q463.15 319.8 461.7 322.0 464.0 320.95 466.35 320.15 473.65 317.65 481.8 317.9 484.45 318.0 485.95 321.2 489.25 328.25 489.6 334.1 490.5 348.95 472.85 356.35 L470.0 352.8 Q465.9 354.25 464.4 358.85 L464.3 359.25 462.8 359.65 Q454.1 361.95 445.55 362.35 431.6 363.05 418.1 358.75 L417.05 358.4 Q415.9 358.0 416.35 357.25 L417.05 356.45 Q423.0 351.55 431.45 349.95 435.75 349.1 438.85 347.25 L438.0 345.1 Q441.8 345.8 444.3 339.0 446.6 338.85 447.45 336.95 450.5 329.8 447.75 322.25 444.3 312.7 438.95 306.75 L437.1 307.85 438.65 304.6 439.8 301.95 M475.1 293.85 Q473.3 285.95 482.25 278.45 483.2 277.65 484.55 278.8 486.1 276.75 488.45 275.6 490.7 274.4 492.85 274.0 508.85 278.5 509.85 297.55 510.35 307.45 498.8 311.25 494.5 312.65 490.55 312.2 486.2 300.75 475.1 293.85 M469.1 433.95 Q471.4 440.0 470.85 448.45 469.95 462.85 458.5 466.0 456.65 466.5 456.15 464.05 L454.65 458.35 Q456.05 454.35 455.3 448.4 455.1 446.7 454.15 446.4 L448.9 444.6 Q448.6 442.55 449.65 440.35 L450.95 438.05 Q457.0 441.05 467.2 435.2 L469.1 433.95 M436.95 421.9 L435.25 424.4 Q430.0 431.85 422.8 425.95 411.6 416.85 415.3 405.85 416.0 403.85 417.3 402.15 419.4 399.55 420.35 396.3 422.7 393.95 424.6 388.95 426.9 382.95 426.95 377.65 L427.85 377.2 432.3 381.05 Q430.6 388.9 441.45 394.25 L441.95 395.65 421.95 413.5 Q420.7 414.55 421.85 415.6 429.2 422.2 436.95 421.9 M408.7 362.35 Q405.15 364.65 403.45 360.05 402.5 357.45 401.9 354.8 400.8 350.05 400.95 345.05 394.25 336.7 405.4 331.7 L407.4 330.85 Q425.25 342.0 414.8 356.05 412.9 358.6 410.05 361.25 L408.7 362.35 M382.15 457.8 Q387.15 464.65 379.9 472.15 381.95 478.7 376.25 487.85 365.05 505.9 356.4 490.05 L354.1 491.65 Q350.6 494.1 347.55 490.75 341.15 483.85 346.45 477.0 349.7 477.2 353.85 476.1 357.25 475.2 358.35 472.4 L359.5 469.05 Q364.75 474.5 375.85 465.9 381.1 461.8 382.15 457.8 M340.55 423.9 Q339.15 422.95 338.8 420.85 335.2 401.2 350.55 392.5 352.8 392.35 354.9 390.8 363.85 394.05 364.65 402.05 L364.75 404.5 Q364.55 408.25 362.85 412.95 361.65 416.15 360.1 418.55 355.55 411.75 346.45 411.95 345.2 412.0 344.2 413.05 341.75 415.55 341.2 418.5 340.7 421.2 340.55 423.9 M329.95 323.4 Q336.9 330.15 328.65 342.5 323.95 349.6 316.2 352.55 315.0 346.75 312.45 341.95 322.7 340.6 326.7 327.35 L327.5 324.4 Q328.75 324.0 329.95 323.4 M279.8 325.2 Q278.55 313.9 271.3 305.25 270.6 304.4 272.4 303.7 L273.95 303.25 277.85 303.55 277.9 305.35 Q278.1 313.25 283.25 306.7 L284.2 305.5 Q291.0 308.85 294.05 317.25 296.15 322.95 295.7 326.65 292.7 325.25 289.35 324.1 288.25 324.2 287.05 324.95 285.5 326.0 284.9 327.7 L284.05 326.85 Q281.2 325.1 279.8 325.2 M283.95 271.7 Q286.45 263.55 291.85 257.1 L294.8 258.8 Q293.35 259.0 291.85 259.75 290.25 260.55 290.7 261.45 297.6 275.2 298.9 291.2 294.2 297.9 289.3 297.1 295.75 282.7 283.95 271.7 M290.85 243.2 Q288.35 242.6 285.95 240.65 284.3 239.3 286.15 237.25 288.55 234.6 291.3 232.25 292.85 230.8 294.55 229.5 293.2 227.1 292.4 224.7 290.45 218.85 291.45 212.6 L291.7 211.15 Q292.35 207.9 295.5 207.7 299.75 208.35 299.8 212.5 L299.8 212.8 Q317.25 220.1 303.75 236.55 297.2 244.6 290.85 243.2 M309.15 193.2 Q305.7 192.35 303.85 187.75 303.25 186.2 305.5 185.8 L307.35 185.35 Q304.8 180.45 305.3 172.85 305.45 170.35 308.1 169.7 309.7 160.1 320.6 158.8 338.9 163.35 328.85 180.0 325.65 185.3 320.45 189.15 318.5 190.6 316.75 191.55 308.7 185.35 309.15 193.2 M390.2 148.6 L387.6 150.35 Q388.45 150.95 388.85 152.0 389.35 150.4 390.2 148.6 M418.3 167.0 Q420.65 169.35 418.35 166.95 L418.3 167.0 M478.1 172.45 Q452.6 168.25 464.95 150.25 465.4 149.6 466.75 148.9 473.1 145.55 479.95 144.4 501.9 147.1 493.85 168.3 488.85 181.5 480.55 176.55 478.5 175.35 478.1 172.45 M427.8 234.0 L427.75 233.9 427.5 234.0 427.1 234.3 427.8 234.0 M355.1 249.15 L355.1 250.45 351.9 250.65 Q346.9 252.1 345.05 257.25 343.7 261.1 344.85 264.55 L345.45 266.2 343.05 267.1 Q320.0 274.0 330.75 253.45 332.35 250.45 332.4 246.55 332.55 237.9 339.5 234.3 L340.55 234.65 340.15 235.45 Q336.25 244.1 344.55 248.2 349.65 250.7 355.1 249.15 M423.4 319.45 L426.6 318.2 Q424.75 322.1 425.3 326.45 423.55 322.9 423.4 319.45 M359.75 318.1 L359.85 318.15 Q363.0 318.5 359.75 318.1 M341.65 302.85 L342.25 303.5 342.45 303.65 341.6 302.55 Q340.3 300.95 338.7 299.75 L338.6 299.8 341.65 302.85 M469.55 326.95 Q461.0 330.95 456.85 338.3 L456.55 338.8 Q456.0 341.4 455.05 343.85 465.0 352.35 477.35 340.9 L479.35 338.8 Q484.9 331.75 477.85 324.1 473.3 325.2 469.55 326.95 M450.85 351.3 L449.15 353.3 451.8 352.65 450.85 351.3 M437.75 501.3 Q434.05 501.1 430.8 495.05 424.5 483.25 433.25 472.25 434.9 470.2 437.25 470.0 448.45 475.15 450.0 482.35 446.9 484.35 444.1 487.2 437.35 494.05 437.75 501.3 M465.5 505.65 Q482.7 513.8 475.3 532.95 474.7 534.6 472.6 533.15 463.35 526.75 458.6 517.35 L460.7 514.9 Q464.0 510.05 465.5 505.65 M358.4 541.2 Q364.05 550.55 348.15 559.1 331.7 567.95 332.2 553.5 332.3 550.35 335.6 548.8 341.15 546.2 346.15 543.1 351.9 548.35 358.4 541.2 M340.8 535.05 Q337.85 540.1 331.9 538.8 313.25 534.7 320.05 517.4 322.1 512.2 328.55 512.7 L333.85 513.8 Q336.85 518.75 341.65 518.6 L342.95 521.0 Q336.85 526.35 340.25 533.9 L340.8 535.05 M361.9 507.5 Q376.35 517.65 359.4 530.9 352.8 536.1 350.35 528.6 348.4 522.5 350.0 516.2 352.2 507.15 361.9 507.5 M430.1 526.9 Q428.2 521.0 429.45 515.45 430.05 512.65 432.8 512.2 452.6 516.75 450.95 534.05 450.25 541.4 443.35 539.55 433.3 536.85 430.1 526.9 M477.85 544.85 Q496.25 548.55 484.95 558.05 482.05 560.5 477.5 561.7 462.15 565.75 457.2 555.85 455.8 553.1 458.7 550.65 465.4 544.9 473.0 541.5 476.6 541.25 477.8 544.5 L477.85 544.85" fill="#000000" fill-opacity="0.2509804" fill-rule="evenodd" stroke="none"/>
    <path d="M389.75 171.25 Q390.1 175.7 389.1 180.5 L387.55 185.85 Q385.45 191.7 384.5 197.7 384.3 199.05 382.4 199.65 364.85 205.2 366.75 190.35 367.6 183.5 372.6 178.35 376.65 174.15 374.05 168.35 368.75 156.4 378.2 149.9 381.35 152.65 383.65 155.65 383.65 161.75 386.85 168.75 387.9 171.15 389.75 171.25 M355.8 212.35 Q356.25 210.75 357.25 209.1 358.4 207.2 360.35 206.3 357.45 208.75 355.85 212.35 L355.8 212.35 M363.1 205.55 L363.3 205.5 Q373.2 209.6 376.7 215.75 380.15 221.9 377.2 230.1 383.9 232.25 388.0 236.65 394.85 244.0 394.4 257.65 394.0 268.4 385.7 267.15 385.95 269.8 384.8 272.8 383.75 275.6 382.2 278.0 376.5 271.65 368.25 267.05 362.55 273.0 362.6 282.9 358.75 278.95 353.6 275.5 351.7 274.25 350.55 275.25 L349.35 276.5 Q347.25 271.4 345.45 266.2 L344.85 264.55 Q343.7 261.1 345.05 257.25 346.9 252.1 351.9 250.65 L355.1 250.45 Q362.9 250.1 369.4 252.3 367.0 247.0 368.0 241.25 L367.6 240.8 372.85 235.3 Q382.35 224.5 364.0 225.9 L361.65 226.05 361.15 225.35 363.55 222.25 Q370.65 211.05 363.1 205.55 M366.6 328.85 Q369.05 335.1 368.4 341.9 361.15 333.15 350.9 326.65 L352.05 323.35 Q356.55 325.95 361.75 327.95 364.55 329.05 366.6 328.85 M376.55 355.8 Q376.65 352.55 378.45 347.8 379.3 345.55 380.9 343.3 382.35 341.3 383.95 339.65 L383.85 339.5 Q369.9 323.4 388.9 315.45 385.05 322.75 395.35 328.55 397.75 329.9 400.4 329.75 L404.3 329.3 405.4 331.7 Q394.25 336.7 400.95 345.05 400.8 350.05 401.9 354.8 400.05 358.9 395.15 360.85 L392.95 361.55 Q376.3 365.95 376.55 355.8 M396.9 306.7 Q392.0 294.55 403.95 283.7 L409.55 278.25 411.05 276.8 Q418.2 270.1 427.85 268.0 L428.95 268.5 Q449.85 278.25 441.35 298.3 L439.8 301.95 438.65 304.6 437.1 307.85 Q429.25 312.5 426.6 318.2 L423.4 319.45 Q420.6 320.2 417.45 320.35 L413.7 320.25 413.65 317.5 413.35 313.95 Q412.4 302.15 402.5 300.3 400.4 300.35 399.45 302.45 398.4 304.85 396.9 306.7 M412.2 242.25 Q412.75 241.25 413.45 240.35 406.55 233.95 402.8 225.75 412.8 239.6 426.4 232.65 426.5 237.1 425.45 241.5 423.4 249.75 413.75 249.3 409.0 249.1 411.05 244.45 411.55 243.3 412.2 242.25 M401.1 221.5 L400.45 219.45 Q399.1 214.9 404.0 213.9 406.6 213.8 408.9 214.0 407.2 210.25 408.35 203.5 408.9 200.25 410.2 196.95 413.45 188.55 420.25 185.65 423.4 184.3 427.35 184.15 L429.0 184.5 Q449.15 188.65 452.3 206.8 453.1 211.4 449.6 215.3 445.4 220.0 440.15 219.3 440.95 214.3 429.35 213.05 L404.1 219.3 Q401.45 219.95 401.1 221.5 M485.25 240.05 L491.65 235.25 493.8 237.35 Q500.3 243.35 506.8 240.8 510.85 242.5 512.45 238.45 L512.4 242.0 Q512.0 247.15 513.35 252.4 517.1 267.05 506.65 264.55 L503.5 264.45 Q490.95 266.75 479.85 263.15 L478.65 262.7 478.8 264.2 Q479.25 269.35 475.2 272.9 462.5 284.0 453.35 267.95 448.9 260.2 451.35 254.3 452.9 250.35 457.6 247.2 L458.0 247.2 Q468.7 265.95 487.8 250.0 494.0 244.85 487.15 241.2 L485.25 240.05 M480.2 219.4 Q475.0 218.3 470.9 213.2 469.55 211.5 468.35 209.45 467.1 207.3 468.3 204.55 471.05 198.35 475.5 193.95 477.95 191.5 480.95 189.6 484.55 189.35 485.75 192.6 L485.8 192.85 Q503.75 193.15 502.85 206.55 493.65 199.2 477.0 198.6 475.0 198.65 475.1 200.2 475.8 210.4 480.2 219.4 M463.85 308.7 Q463.3 302.8 464.2 296.35 464.8 291.7 469.5 290.85 L475.1 293.85 Q486.2 300.75 490.55 312.2 492.05 316.25 492.75 320.85 493.4 325.3 491.45 329.7 L489.6 334.1 Q489.25 328.25 485.95 321.2 484.45 318.0 481.8 317.9 473.65 317.65 466.35 320.15 L465.75 318.35 Q475.8 312.4 468.05 306.75 465.85 307.6 463.85 308.7 M462.8 359.65 Q462.75 361.3 462.3 363.2 460.7 369.95 459.8 376.85 459.25 381.25 457.7 385.95 L457.05 387.8 Q456.2 386.3 453.65 385.15 L442.8 394.9 441.45 394.25 Q430.6 388.9 432.3 381.05 433.0 377.7 435.9 373.95 440.55 368.0 445.55 362.35 454.1 361.95 462.8 359.65 M459.85 404.2 Q473.15 410.2 473.3 425.25 473.4 430.55 469.1 433.95 L467.2 435.2 Q457.0 441.05 450.95 438.05 445.1 435.2 443.0 424.35 L442.5 420.8 Q446.5 419.35 450.65 416.15 459.0 409.65 459.85 404.2 M454.65 458.35 Q451.3 468.15 435.3 466.4 425.25 472.6 419.25 457.9 412.55 441.6 416.3 428.3 L416.9 427.85 420.0 430.0 Q420.9 429.4 421.85 429.35 439.1 431.2 445.4 443.3 L448.9 444.6 454.15 446.4 Q455.1 446.7 455.3 448.4 456.05 454.35 454.65 458.35 M420.35 396.3 Q416.5 400.1 411.55 397.05 410.05 396.15 410.35 393.85 412.4 378.0 408.7 362.35 L410.05 361.25 Q412.9 358.6 414.8 356.05 L416.35 357.25 Q415.9 358.0 417.05 358.4 L418.1 358.75 Q427.05 366.9 426.95 377.65 426.9 382.95 424.6 388.95 422.7 393.95 420.35 396.3 M385.3 394.2 L384.9 394.45 Q393.95 404.95 382.95 409.45 382.65 410.6 381.6 412.05 L381.2 412.5 Q401.85 432.35 380.85 450.75 L380.8 450.8 379.0 448.6 376.25 452.1 Q374.85 451.75 373.4 450.5 365.8 444.1 359.75 436.05 363.45 434.7 363.55 429.8 363.6 426.95 362.95 424.8 362.2 422.3 361.15 420.3 364.3 414.95 369.2 411.0 366.45 409.85 365.35 406.75 L364.75 404.5 364.65 402.05 Q365.2 397.55 370.9 394.75 374.55 392.9 377.75 390.25 L380.15 388.0 Q381.5 386.7 383.15 386.65 390.45 388.7 385.45 394.05 L385.3 394.2 M346.45 477.0 Q335.35 476.4 334.6 461.3 334.2 452.6 334.75 443.75 335.15 437.1 340.0 434.3 L341.9 435.1 Q342.8 438.15 344.25 441.15 350.1 453.2 354.65 443.45 362.15 451.15 360.95 462.35 L358.85 463.0 Q356.5 463.7 357.2 465.35 358.15 467.65 359.5 469.05 L358.35 472.4 Q357.25 475.2 353.85 476.1 349.7 477.2 346.45 477.0 M350.55 392.5 Q347.2 392.7 343.35 390.1 338.75 386.95 342.2 382.15 351.5 369.2 347.6 352.6 346.55 347.95 347.15 343.1 L347.95 338.35 Q351.0 356.35 347.75 376.3 347.4 378.4 348.95 378.25 356.55 377.3 362.6 373.5 363.05 377.85 361.1 382.15 358.3 388.3 354.9 390.8 352.8 392.35 350.55 392.5 M339.85 314.05 Q335.55 320.75 329.95 323.4 328.75 324.0 327.5 324.4 329.55 314.55 324.1 308.7 316.7 313.65 309.95 320.75 L309.1 321.7 306.0 319.3 Q297.5 311.3 302.3 303.85 304.8 300.0 308.15 296.8 315.75 289.6 324.75 284.85 325.3 288.9 326.7 292.9 331.1 305.25 339.85 314.05 M316.2 352.55 L316.85 357.05 Q317.25 360.75 314.7 364.05 304.9 376.85 296.7 367.9 294.95 365.95 293.35 363.4 283.65 347.55 278.85 330.4 277.45 325.35 279.8 325.2 281.2 325.1 284.05 326.85 L284.9 327.7 Q285.5 326.0 287.05 324.95 288.25 324.2 289.35 324.1 292.7 325.25 295.7 326.65 300.15 328.8 303.7 331.6 303.2 333.35 303.0 335.2 302.15 342.25 310.45 342.1 L312.45 341.95 Q315.0 346.75 316.2 352.55 M277.85 303.55 Q277.35 294.75 274.2 285.25 270.25 273.35 277.95 267.05 281.4 269.3 283.95 271.7 295.75 282.7 289.3 297.1 287.5 301.15 284.2 305.5 L283.25 306.7 Q278.1 313.25 277.9 305.35 L277.85 303.55 M295.8 258.7 Q291.75 255.8 291.1 248.2 290.9 245.7 290.85 243.2 297.2 244.6 303.75 236.55 317.25 220.1 299.8 212.8 L299.8 212.5 Q299.75 208.35 295.5 207.7 292.35 207.9 291.7 211.15 L291.45 212.6 288.9 212.4 Q287.55 212.3 288.6 210.7 292.8 204.3 299.45 200.2 299.95 198.6 302.0 197.55 L303.25 197.05 304.1 197.7 Q305.85 196.85 307.8 196.15 L309.4 195.6 309.7 197.15 Q310.3 200.05 311.85 202.5 314.0 205.9 316.9 209.0 324.7 217.45 333.85 214.3 L338.3 212.75 Q337.1 215.1 336.25 218.4 334.9 223.65 336.95 227.95 L335.85 230.35 Q333.3 235.65 327.65 238.7 315.8 245.1 314.95 238.35 L313.2 240.25 Q325.05 253.5 311.35 258.55 309.8 256.15 307.7 254.1 302.45 255.25 301.4 260.5 L300.4 260.4 Q298.25 258.7 295.8 258.7 M291.3 232.25 Q291.65 228.45 292.4 224.7 293.2 227.1 294.55 229.5 292.85 230.8 291.3 232.25 M427.1 147.1 Q425.75 150.7 422.05 152.45 414.85 155.9 405.05 151.35 396.75 147.45 399.35 138.5 401.95 129.4 411.45 128.1 434.75 127.4 427.1 147.1 M329.95 206.35 L330.25 206.5 Q330.5 209.3 329.95 206.35 M341.6 302.55 L341.65 302.85 338.6 299.8 338.7 299.75 Q340.3 300.95 341.6 302.55 M479.35 338.8 Q473.3 333.35 469.55 326.95 473.3 325.2 477.85 324.1 484.9 331.75 479.35 338.8 M475.55 376.5 Q487.3 359.2 505.75 349.4 511.9 350.65 509.65 356.5 L509.6 356.85 Q514.3 377.3 493.0 389.5 483.65 394.85 475.65 385.3 472.25 381.3 475.55 376.5 M450.0 482.35 Q452.0 481.0 454.15 480.0 470.6 490.45 465.5 505.65 464.0 510.05 460.7 514.9 L458.6 517.35 Q453.3 521.95 445.55 515.55 442.5 513.05 440.4 509.5 437.95 505.35 437.75 501.3 437.35 494.05 444.1 487.2 446.9 484.35 450.0 482.35 M378.5 400.85 L378.45 400.95 Q378.4 402.1 378.5 400.85 M364.45 532.7 L361.7 536.85 358.4 541.2 Q351.9 548.35 346.15 543.1 343.35 540.5 340.8 535.05 L340.25 533.9 Q336.85 526.35 342.95 521.0 L345.05 519.4 345.3 519.25 Q347.15 525.9 350.7 532.4 352.5 535.7 356.05 535.2 361.0 534.55 364.45 532.7" fill="#000000" fill-opacity="0.5019608" fill-rule="evenodd" stroke="none"/>
    <path d="M316.75 191.55 L316.8 191.6 Q322.05 189.4 326.95 185.95 327.2 185.75 327.55 185.7 L327.55 185.65 Q332.35 185.55 332.55 190.1 L332.55 190.45 Q337.7 189.75 342.55 190.6 L347.3 191.8 350.75 193.2 Q352.9 194.25 353.65 196.65 355.9 203.6 349.15 208.05 347.25 209.25 344.7 210.3 L338.3 212.75 333.85 214.3 Q324.7 217.45 316.9 209.0 314.0 205.9 311.85 202.5 310.3 200.05 309.7 197.15 L309.4 195.6 309.15 193.2 Q308.7 185.35 316.75 191.55 M382.2 278.0 Q388.6 285.1 391.8 294.4 393.25 298.65 388.65 301.55 384.45 304.25 380.6 305.55 373.0 308.05 366.6 305.25 365.45 304.75 364.85 303.45 363.05 299.7 363.3 295.55 363.45 292.05 362.95 288.05 362.6 285.35 362.6 282.9 362.55 273.0 368.25 267.05 376.5 271.65 382.2 278.0 M368.4 341.9 Q372.25 346.5 375.2 351.75 376.4 353.85 376.2 356.1 376.05 357.75 375.1 359.5 372.85 363.6 370.15 366.85 366.75 370.85 362.6 373.5 356.55 377.3 348.95 378.25 347.4 378.4 347.75 376.3 351.0 356.35 347.95 338.35 L347.5 336.05 Q347.1 333.85 345.9 331.3 343.75 326.45 349.05 325.5 L350.9 326.65 Q361.15 333.15 368.4 341.9 M402.8 225.75 L402.1 224.75 Q400.8 222.8 401.1 221.5 401.45 219.95 404.1 219.3 L429.35 213.05 Q440.95 214.3 440.15 219.3 L439.65 220.95 Q438.0 224.3 431.8 229.1 429.0 231.25 426.4 232.65 412.8 239.6 402.8 225.75 M457.4 227.25 L458.6 225.85 Q462.55 227.0 462.8 230.6 L462.6 232.9 462.55 233.3 464.75 232.35 Q473.25 229.4 481.95 237.5 L485.25 240.05 487.15 241.2 Q494.0 244.85 487.8 250.0 468.7 265.95 458.0 247.2 L457.9 247.05 Q451.2 235.2 457.4 227.25 M472.85 356.35 Q478.3 364.7 474.7 376.4 473.5 380.3 469.5 377.85 460.25 372.3 464.3 359.25 L464.4 358.85 Q465.9 354.25 470.0 352.8 L472.85 356.35 M457.05 387.8 Q458.5 390.4 454.65 394.1 L454.4 394.45 Q460.7 398.85 459.85 404.2 459.0 409.65 450.65 416.15 446.5 419.35 442.5 420.8 439.7 421.75 436.95 421.9 429.2 422.2 421.85 415.6 420.7 414.55 421.95 413.5 L441.95 395.65 442.8 394.9 453.65 385.15 Q456.2 386.3 457.05 387.8 M380.8 450.8 Q383.05 454.3 382.15 457.8 381.1 461.8 375.85 465.9 364.75 474.5 359.5 469.05 358.15 467.65 357.2 465.35 356.5 463.7 358.85 463.0 L360.95 462.35 Q370.05 459.1 376.25 452.1 L379.0 448.6 380.8 450.8 M341.9 435.1 Q340.3 429.6 340.55 423.9 340.7 421.2 341.2 418.5 341.75 415.55 344.2 413.05 345.2 412.0 346.45 411.95 355.55 411.75 360.1 418.55 L361.15 420.3 Q362.2 422.3 362.95 424.8 363.6 426.95 363.55 429.8 363.45 434.7 359.75 436.05 L357.0 436.5 Q355.85 440.75 354.65 443.45 350.1 453.2 344.25 441.15 342.8 438.15 341.9 435.1 M294.8 258.8 L295.8 258.7 Q298.25 258.7 300.4 260.4 L301.25 261.2 301.4 260.5 Q302.45 255.25 307.7 254.1 309.8 256.15 311.35 258.55 315.5 265.1 315.55 274.6 L315.4 279.4 Q314.25 295.4 300.75 299.55 299.25 300.0 299.2 297.9 L298.9 291.2 Q297.6 275.2 290.7 261.45 290.25 260.55 291.85 259.75 293.35 259.0 294.8 258.8 M367.6 240.8 L364.5 243.6 Q359.65 247.8 355.1 249.15 349.65 250.7 344.55 248.2 336.25 244.1 340.15 235.45 L340.55 234.65 341.15 233.7 Q344.4 228.85 352.0 227.35 L360.3 226.2 361.65 226.05 364.0 225.9 Q382.35 224.5 372.85 235.3 L367.6 240.8 M329.95 206.35 Q330.5 209.3 330.25 206.5 L329.95 206.35 M426.6 318.2 Q429.25 312.5 437.1 307.85 L438.95 306.75 Q444.3 312.7 447.75 322.25 450.5 329.8 447.45 336.95 446.6 338.85 444.3 339.0 441.8 345.8 438.0 345.1 434.2 344.35 429.1 336.2 425.9 331.05 425.3 326.45 424.75 322.1 426.6 318.2 M327.5 324.4 L326.7 327.35 Q322.7 340.6 312.45 341.95 L310.45 342.1 Q302.15 342.25 303.0 335.2 303.2 333.35 303.7 331.6 305.15 326.2 309.1 321.7 L309.95 320.75 Q316.7 313.65 324.1 308.7 329.55 314.55 327.5 324.4 M520.5 314.15 L520.65 314.3 Q521.15 315.4 521.0 316.55 520.8 318.45 519.3 319.55 523.7 334.85 510.65 338.6 508.95 339.1 508.75 336.75 490.55 330.3 498.35 316.45 499.65 314.1 502.35 312.75 511.1 308.35 520.15 305.75 531.4 309.45 520.5 314.15 M333.85 513.8 Q332.25 511.2 331.15 507.25 330.4 504.6 331.4 501.3 332.65 496.95 337.35 497.95 336.85 494.35 339.5 492.2 340.45 491.45 341.45 491.4 347.75 493.8 349.5 501.2 L349.65 501.55 Q368.6 491.65 371.65 514.15 373.45 527.7 364.45 532.7 361.0 534.55 356.05 535.2 352.5 535.7 350.7 532.4 347.15 525.9 345.3 519.25 L344.95 517.95 341.65 518.6 Q336.85 518.75 333.85 513.8 M361.9 507.5 Q352.2 507.15 350.0 516.2 348.4 522.5 350.35 528.6 352.8 536.1 359.4 530.9 376.35 517.65 361.9 507.5" fill="#000000" fill-opacity="0.7529412" fill-rule="evenodd" stroke="none"/>
  </g>
</svg>
