<?xml version="1.0" encoding="UTF-8" standalone="no"?>
<svg xmlns:xlink="http://www.w3.org/1999/xlink" height="29.95px" width="78.3px" xmlns="http://www.w3.org/2000/svg">
  <g transform="matrix(1.0, 0.0, 0.0, 1.0, -227.55, -155.2)">
    <path d="M240.35 169.9 L237.0 170.9 239.25 181.35 242.8 180.5 240.35 169.9 M227.55 177.15 L227.55 176.7 Q227.6 174.15 229.35 171.5 250.8 162.75 273.9 158.0 281.8 156.4 290.0 155.25 316.05 154.25 299.35 168.05 286.6 172.9 273.9 176.6 L263.6 179.35 Q248.35 183.1 233.1 185.15 227.65 181.5 227.55 177.15 M282.6 164.05 L274.6 160.45 269.15 162.55 276.55 165.45 272.65 173.3 279.2 171.85 282.6 164.05 M250.3 166.45 L244.8 168.6 252.25 171.5 248.35 179.35 254.9 177.9 258.3 170.1 250.3 166.45 M256.45 165.5 L263.85 168.35 259.95 176.2 266.55 174.8 269.9 167.0 261.9 163.35 256.45 165.5 M299.7 161.35 Q299.7 160.1 298.1 159.2 296.65 158.35 294.5 158.35 292.35 158.35 290.8 159.2 289.3 160.1 289.3 161.35 289.3 162.55 290.8 163.4 292.35 164.35 294.5 164.35 296.65 164.35 298.1 163.4 299.7 162.55 299.7 161.35" fill="#000000" fill-rule="evenodd" stroke="none"/>
  </g>
</svg>
