<?xml version="1.0" encoding="UTF-8" standalone="no"?>
<svg xmlns:xlink="http://www.w3.org/1999/xlink" height="56.0px" width="56.0px" xmlns="http://www.w3.org/2000/svg">
  <g transform="matrix(1.0, 0.0, 0.0, 1.0, 0.5, 0.5)">
    <path d="M55.0 27.5 L41.25 27.5 41.25 13.75 55.0 13.75 55.0 27.5 M41.25 0.0 L41.25 13.75 27.5 13.75 27.5 27.5 41.25 27.5 41.25 41.25 55.0 41.25 55.0 55.0 41.25 55.0 41.25 41.25 27.5 41.25 27.5 27.5 13.75 27.5 13.75 13.75 27.5 13.75 27.5 0.0 41.25 0.0 M13.75 41.25 L0.0 41.25 0.0 27.5 13.75 27.5 13.75 41.25 27.5 41.25 27.5 55.0 13.75 55.0 13.75 41.25 M13.75 13.75 L0.0 13.75 0.0 0.0 13.75 0.0 13.75 13.75" fill="#000000" fill-opacity="0.2509804" fill-rule="evenodd" stroke="none"/>
    <path d="M55.0 13.75 L41.25 13.75 41.25 27.5 55.0 27.5 M55.0 0.0 L41.25 0.0 41.25 13.75 27.5 13.75 27.5 27.5 41.25 27.5 41.25 41.25 55.0 41.25 M41.25 0.0 L27.5 0.0 27.5 13.75 13.75 13.75 13.75 27.5 27.5 27.5 27.5 41.25 41.25 41.25 41.25 55.0 M13.75 13.75 L13.75 0.0 0.0 0.0 0.0 13.75 13.75 13.75 M13.75 41.25 L13.75 27.5 0.0 27.5 0.0 41.25 13.75 41.25 27.5 41.25 27.5 55.0 M27.5 0.0 L13.75 0.0 M0.0 13.75 L0.0 27.5 M13.75 55.0 L13.75 41.25 M0.0 41.25 L0.0 55.0" fill="none" stroke="#000000" stroke-linecap="round" stroke-linejoin="round" stroke-opacity="0.2509804" stroke-width="1.0"/>
    <path d="M55.0 27.5 L55.0 13.75 55.0 0.0 M55.0 41.25 L55.0 27.5 M41.25 55.0 L55.0 55.0 55.0 41.25 M27.5 55.0 L41.25 55.0 M13.75 55.0 L27.5 55.0 M0.0 55.0 L13.75 55.0" fill="none" stroke="#010101" stroke-linecap="round" stroke-linejoin="round" stroke-opacity="0.0" stroke-width="1.0"/>
  </g>
</svg>
