<?xml version="1.0" encoding="UTF-8" standalone="no"?>
<svg xmlns:xlink="http://www.w3.org/1999/xlink" height="24.3px" width="43.2px" xmlns="http://www.w3.org/2000/svg">
  <g transform="matrix(1.0, 0.0, 0.0, 1.0, -378.3, -170.0)">
    <path d="M386.9 170.35 Q390.4 171.3 393.7 175.15 L406.05 175.15 Q409.4 171.25 412.9 170.3 L413.55 170.15 Q416.5 169.55 419.55 171.05 423.0 174.15 420.3 184.65 L420.15 185.35 418.65 190.1 Q415.65 195.85 411.35 193.75 L406.35 190.85 405.75 192.55 394.0 192.55 393.4 190.85 388.4 193.75 Q384.1 195.85 381.1 190.1 L379.7 185.45 379.5 184.65 Q376.8 174.15 380.2 171.05 383.25 169.55 386.2 170.15 L386.9 170.35" fill="#000000" fill-rule="evenodd" stroke="none"/>
  </g>
</svg>
