<?xml version="1.0" encoding="UTF-8" standalone="no"?>
<svg xmlns:xlink="http://www.w3.org/1999/xlink" height="50.35px" width="95.45px" xmlns="http://www.w3.org/2000/svg">
  <g transform="matrix(1.0, 0.0, 0.0, 1.0, -352.15, -125.35)">
    <path d="M375.65 134.1 L375.8 136.9 Q401.1 144.25 423.95 136.9 L424.05 136.9 424.15 134.1 424.2 132.4 424.2 132.1 424.2 131.8 424.1 125.35 Q435.45 126.25 435.05 131.4 437.15 133.5 435.05 137.35 433.25 141.3 442.8 145.5 447.85 145.45 447.6 150.8 432.4 175.4 399.9 175.7 367.35 175.4 352.15 150.8 351.9 145.45 357.0 145.5 366.5 141.3 364.7 137.35 362.6 133.5 364.7 131.4 364.3 126.25 375.75 125.35 375.6 128.3 375.6 131.8 L375.6 132.1 375.6 132.4 375.65 134.1" fill="#000000" fill-rule="evenodd" stroke="none"/>
  </g>
</svg>
