<?xml version="1.0" encoding="UTF-8" standalone="no"?>
<svg xmlns:xlink="http://www.w3.org/1999/xlink" height="32.55px" width="24.75px" xmlns="http://www.w3.org/2000/svg">
  <g transform="matrix(1.0, 0.0, 0.0, 1.0, -394.25, -206.0)">
    <path d="M406.2 221.8 L398.35 221.8 398.35 224.0 409.0 224.0 414.0 234.75 414.25 234.8 414.6 234.75 417.45 233.85 417.75 233.85 417.9 233.95 418.05 234.15 419.0 236.0 418.4 236.55 417.35 237.1 414.8 238.15 413.6 238.45 412.75 238.55 412.35 238.5 412.1 238.2 406.8 226.8 394.95 226.8 394.95 211.3 394.35 210.25 394.25 209.15 Q394.25 207.7 395.25 206.8 396.1 206.0 397.6 206.0 L398.8 206.2 399.85 206.75 400.6 207.7 400.85 208.95 400.65 210.05 400.15 211.05 399.35 211.8 398.35 212.25 398.35 218.7 406.2 218.7 406.2 221.8" fill="#000000" fill-rule="evenodd" stroke="none"/>
  </g>
</svg>
