<?xml version="1.0" encoding="UTF-8" standalone="no"?>
<svg xmlns:xlink="http://www.w3.org/1999/xlink" height="31.25px" width="32.7px" xmlns="http://www.w3.org/2000/svg">
  <g transform="matrix(1.0, 0.0, 0.0, 1.0, -383.45, -209.1)">
    <path d="M408.65 222.35 L410.55 219.75 406.8 219.75 408.65 222.35 M415.65 216.95 L410.5 224.7 415.65 232.5 405.2 232.5 399.8 239.85 394.4 232.5 383.95 232.5 389.1 224.7 383.95 216.95 394.4 216.95 399.8 209.6 405.2 216.95 415.65 216.95 M408.65 227.1 L406.8 229.75 410.55 229.75 408.65 227.1 M399.8 214.35 L397.9 216.95 401.7 216.95 399.8 214.35 M392.8 219.75 L389.05 219.75 390.95 222.35 392.8 219.75 M396.35 219.75 L392.8 224.75 396.35 229.75 403.25 229.75 406.8 224.7 403.25 219.75 396.35 219.75 M397.9 232.5 L399.8 235.15 401.7 232.5 397.9 232.5 M389.05 229.75 L392.8 229.75 390.95 227.1 389.05 229.75" fill="none" stroke="#000000" stroke-linecap="round" stroke-linejoin="round" stroke-opacity="0.5019608" stroke-width="1.0"/>
  </g>
</svg>
