<?xml version="1.0" encoding="UTF-8" standalone="no"?>
<svg xmlns:xlink="http://www.w3.org/1999/xlink" height="41.65px" width="37.55px" xmlns="http://www.w3.org/2000/svg">
  <g transform="matrix(1.0, 0.0, 0.0, 1.0, -381.1, -206.7)">
    <path d="M413.25 215.05 Q416.1 214.95 417.45 217.35 418.85 219.75 417.35 222.15 415.85 224.55 412.2 225.95 L410.15 226.7 404.7 227.4 404.7 227.5 404.7 227.6 Q407.65 227.6 410.15 228.35 L412.2 229.05 Q415.85 230.45 417.35 232.9 418.85 235.3 417.45 237.65 416.1 240.05 413.25 239.95 410.4 239.85 407.35 237.4 L405.75 236.0 Q403.85 234.2 402.35 231.6 L402.15 231.7 Q403.5 234.05 404.2 236.4 L404.7 238.95 Q405.3 242.8 403.95 245.35 402.6 247.85 399.85 247.85 397.1 247.85 395.8 245.35 394.45 242.8 395.05 238.95 L395.55 236.4 Q396.2 234.05 397.55 231.7 L397.4 231.6 Q396.05 233.95 394.35 235.7 L392.35 237.4 Q389.35 239.85 386.45 239.95 383.65 240.05 382.25 237.65 380.9 235.3 382.4 232.9 383.9 230.45 387.55 229.05 L390.0 228.2 395.05 227.6 395.05 227.5 395.05 227.4 390.0 226.8 387.55 225.95 Q383.9 224.55 382.4 222.1 380.9 219.75 382.25 217.35 383.65 214.95 386.45 215.05 389.35 215.15 392.35 217.6 L394.35 219.3 Q396.05 221.05 397.4 223.45 L397.55 223.35 Q396.05 220.75 395.45 218.2 L395.05 216.05 Q394.45 212.2 395.8 209.7 397.1 207.2 399.85 207.2 402.6 207.2 403.95 209.7 405.3 212.2 404.7 216.05 L404.3 218.2 Q403.65 220.75 402.15 223.35 L402.35 223.45 Q403.8 220.85 405.75 219.0 406.5 218.25 407.35 217.6 410.4 215.15 413.25 215.05 M404.7 227.4 Q404.65 226.15 404.05 225.1 L403.3 224.2 402.35 223.45 M402.15 223.35 Q401.2 222.8 400.0 222.8 L399.85 222.8 399.75 222.8 Q398.55 222.8 397.55 223.35 M397.4 223.45 L396.4 224.2 395.7 225.1 Q395.1 226.1 395.05 227.4 M397.55 231.7 Q398.55 232.2 399.75 232.2 L399.85 232.2 400.0 232.2 402.15 231.7 M395.05 227.6 Q395.05 228.9 395.7 229.9 L396.4 230.85 397.4 231.6 M402.35 231.6 L403.3 230.85 404.05 229.9 Q404.65 228.9 404.7 227.6" fill="none" stroke="#000000" stroke-linecap="round" stroke-linejoin="round" stroke-opacity="0.5019608" stroke-width="1.0"/>
  </g>
</svg>
