<?xml version="1.0" encoding="UTF-8" standalone="no"?>
<svg xmlns:xlink="http://www.w3.org/1999/xlink" height="38.4px" width="43.9px" xmlns="http://www.w3.org/2000/svg">
  <g transform="matrix(1.0, 0.0, 0.0, 1.0, -378.35, -205.95)">
    <path d="M405.2 218.65 L401.3 215.4 Q415.4 210.25 421.75 226.05 414.3 216.1 405.2 218.65 M405.15 242.4 L403.25 241.45 400.85 242.7 Q405.85 244.95 411.05 242.8 407.8 243.45 405.15 242.4 M411.8 218.9 Q408.2 227.05 397.85 227.25 L397.6 232.55 Q412.35 232.65 414.8 219.9 L411.8 218.9 M409.75 206.55 Q412.8 210.0 412.55 213.95 L414.9 215.45 Q414.25 209.9 409.75 206.55 M389.05 218.1 Q397.5 217.45 402.8 226.4 L407.3 224.15 Q400.15 211.2 388.35 215.0 L389.05 218.1 M395.4 219.45 Q387.6 231.95 397.2 240.7 L399.65 238.65 Q394.6 231.4 399.75 222.45 L395.4 219.45 M384.45 217.15 Q379.8 220.25 378.85 225.75 380.55 221.5 384.2 219.9 L384.45 217.15 M403.45 232.85 L408.25 231.05 Q405.6 245.85 388.75 243.45 401.1 242.0 403.45 232.85 M390.9 229.55 Q379.6 219.65 390.35 206.45 385.2 217.8 391.85 224.55 L390.9 229.55" fill="none" stroke="#000000" stroke-linecap="round" stroke-linejoin="round" stroke-opacity="0.5019608" stroke-width="1.0"/>
  </g>
</svg>
