<?xml version="1.0" encoding="UTF-8" standalone="no"?>
<svg xmlns:xlink="http://www.w3.org/1999/xlink" height="39.1px" width="31.6px" xmlns="http://www.w3.org/2000/svg">
  <g transform="matrix(1.0, 0.0, 0.0, 1.0, -384.5, -204.35)">
    <path d="M414.45 223.0 Q413.0 219.55 409.65 217.15 406.5 214.9 402.85 214.3 L402.7 213.25 Q402.45 212.65 401.85 212.5 L400.35 212.5 400.35 211.95 400.45 211.35 401.25 210.2 401.8 209.6 402.0 209.35 401.85 209.05 Q401.8 208.8 401.35 208.65 L400.75 208.6 399.5 210.2 399.2 210.75 399.0 211.35 398.9 211.95 398.9 212.5 398.05 212.5 397.55 212.6 Q396.75 212.95 396.8 214.5 394.8 214.9 392.55 216.1 388.6 218.3 386.6 222.2 384.5 226.15 385.2 230.65 385.8 234.8 389.1 238.2 392.25 241.55 396.45 242.5 L405.3 242.15 Q409.75 240.7 412.6 237.1 414.95 234.25 415.5 230.3 416.0 226.3 414.45 223.0 M405.7 210.4 Q404.7 209.65 403.5 209.3 L403.35 209.75 Q404.7 210.25 405.45 210.75 L405.7 210.4 M397.6 206.6 Q398.0 207.6 399.0 208.1 L399.2 207.65 Q398.55 207.4 398.2 206.75 L398.0 206.35 397.6 206.6 M395.65 208.9 Q395.85 209.2 396.75 209.55 L398.1 209.95 398.2 209.5 Q396.9 209.2 396.0 208.65 L395.65 208.9 M401.6 205.0 L401.2 204.85 Q400.85 206.15 400.95 206.95 L401.4 206.95 Q401.35 206.35 401.6 205.0 M403.35 207.9 L405.15 206.7 404.85 206.3 403.05 207.55 403.35 207.9 M403.85 212.65 L402.6 211.3 402.3 211.65 403.5 212.95 403.85 212.65 M397.65 211.25 L395.0 211.85 395.1 212.35 397.75 211.7 397.65 211.25" fill="none" stroke="#000000" stroke-linecap="round" stroke-linejoin="round" stroke-opacity="0.5019608" stroke-width="1.0"/>
  </g>
</svg>
