<?xml version="1.0" encoding="UTF-8" standalone="no"?>
<svg xmlns:xlink="http://www.w3.org/1999/xlink" height="37.4px" width="71.45px" xmlns="http://www.w3.org/2000/svg">
  <g transform="matrix(1.0, 0.0, 0.0, 1.0, -364.05, -209.75)">
    <path d="M416.4 213.3 Q410.15 219.0 402.55 218.55 403.7 216.15 402.55 213.7 L401.4 214.95 398.15 214.95 397.0 213.7 Q395.85 216.15 397.0 218.55 389.45 219.0 383.15 213.3 380.7 210.8 375.75 210.25 376.05 211.8 373.15 213.55 364.9 218.5 364.55 225.9 364.7 235.2 374.75 240.6 367.7 235.1 368.8 231.9 369.7 229.3 374.6 233.8 370.25 227.35 373.15 225.65 376.4 224.85 380.7 230.25 379.7 226.45 383.45 226.0 387.2 226.65 387.55 230.75 393.4 226.95 399.8 246.65 406.15 226.95 412.0 230.75 412.35 226.65 416.1 226.0 419.9 226.45 418.85 230.25 423.2 224.85 426.4 225.65 429.3 227.35 425.0 233.8 429.85 229.3 430.75 231.9 431.9 235.1 424.85 240.6 434.85 235.2 435.0 225.9 434.65 218.5 426.4 213.55 423.5 211.8 423.8 210.25 418.85 210.8 416.4 213.3 Z" fill="none" stroke="#000000" stroke-linecap="round" stroke-linejoin="round" stroke-opacity="0.5019608" stroke-width="1.0"/>
  </g>
</svg>
