<?xml version="1.0" encoding="UTF-8" standalone="no"?>
<svg xmlns:xlink="http://www.w3.org/1999/xlink" height="48.35px" width="37.5px" xmlns="http://www.w3.org/2000/svg">
  <g transform="matrix(1.0, 0.0, 0.0, 1.0, -381.6, -206.5)">
    <path d="M412.9 209.2 L413.4 209.2 Q413.75 209.2 413.9 209.5 L413.55 209.85 Q413.3 209.9 413.2 210.1 L413.6 210.7 414.45 209.85 414.85 209.65 415.45 209.5 416.85 210.8 416.7 210.9 416.6 210.75 415.5 210.7 415.85 211.25 Q416.0 211.8 415.15 212.6 L416.2 212.9 416.85 213.6 416.9 214.1 416.7 214.35 415.75 213.9 415.15 214.65 Q414.65 214.95 414.25 214.85 L413.9 214.65 413.85 214.9 414.2 215.15 414.45 216.2 Q414.7 216.4 414.95 216.0 L415.2 215.55 415.4 215.6 415.45 216.05 415.0 217.05 414.2 217.95 413.6 217.8 413.05 217.45 412.4 217.5 Q411.7 218.3 411.7 219.25 411.4 219.4 411.4 220.05 L411.25 220.9 410.8 220.6 409.05 222.2 Q408.9 222.9 409.5 223.3 L410.6 224.1 Q414.2 225.45 415.75 225.35 L416.8 225.1 418.0 225.55 418.6 226.2 418.35 226.75 418.0 227.25 417.8 226.8 Q417.55 226.55 417.65 226.4 L417.05 226.85 415.6 226.75 416.35 227.15 416.8 227.3 417.35 227.4 Q418.1 228.45 418.05 228.9 417.85 229.8 417.45 229.95 L417.05 229.95 417.15 229.55 415.4 229.2 Q414.8 229.2 414.8 230.0 414.9 230.75 414.5 230.9 414.05 230.5 413.95 230.15 L412.7 228.6 411.65 229.3 Q411.75 230.0 411.95 230.2 L411.6 230.3 Q411.4 230.3 411.2 229.95 L410.8 229.5 410.3 228.9 409.8 228.3 409.45 228.2 409.0 228.45 408.55 228.7 Q408.35 228.75 407.9 228.4 L408.05 228.2 408.35 228.1 407.55 227.95 404.85 227.7 Q404.15 228.3 402.8 230.2 401.65 231.7 400.5 232.15 L399.1 232.8 Q398.25 233.0 397.85 233.65 L397.65 234.3 398.0 234.55 399.7 233.55 Q400.6 232.9 401.4 232.8 L404.2 232.85 Q405.0 233.05 405.95 233.85 L407.55 235.3 Q408.05 235.3 408.35 236.15 L408.8 237.05 409.15 237.95 410.8 237.35 411.1 237.4 Q411.4 237.4 411.4 236.75 412.25 236.0 413.0 235.75 L413.65 235.7 414.2 235.8 413.65 236.15 415.5 237.1 415.7 237.65 415.9 238.05 415.8 238.35 414.2 238.15 414.1 238.5 413.85 238.7 413.6 239.0 413.2 239.2 413.4 239.3 413.75 239.75 Q414.05 239.95 413.95 240.2 414.75 240.9 414.45 241.9 414.1 241.1 411.7 241.1 411.1 241.4 411.25 241.85 L412.3 242.15 411.7 242.8 411.1 242.95 Q410.65 242.95 410.15 242.55 L409.15 241.85 409.0 242.25 Q408.8 242.5 408.85 242.7 L408.1 243.3 407.9 243.35 Q407.7 243.35 407.7 243.0 L407.45 242.55 406.0 242.75 405.45 242.75 Q405.0 242.75 404.9 242.5 L405.35 242.2 405.15 241.25 404.65 240.6 404.35 240.5 403.75 240.7 403.2 240.9 402.75 240.8 403.05 240.3 402.8 239.85 Q402.7 239.6 402.4 239.75 L401.4 240.0 Q401.05 239.75 400.9 239.8 L400.25 239.65 Q399.9 239.55 399.75 239.85 L398.95 242.2 Q398.4 243.8 398.55 244.7 L398.35 245.25 398.15 245.7 Q396.5 247.3 395.45 247.8 395.2 247.95 395.35 249.1 L395.7 249.6 396.9 249.15 397.85 249.25 398.2 249.55 397.75 249.6 Q397.35 249.6 397.25 249.85 L397.55 250.0 398.1 249.8 398.8 249.75 399.45 250.25 Q399.2 250.25 399.1 250.7 L398.85 251.3 Q398.75 251.55 399.15 251.85 399.4 252.55 399.1 252.75 L398.0 252.7 398.2 252.5 398.15 251.95 397.8 252.3 397.35 252.65 397.15 252.6 396.55 252.25 396.05 251.75 395.95 253.7 Q395.65 254.1 395.65 254.35 L395.25 254.35 Q395.3 253.85 394.6 252.95 393.9 252.25 393.9 251.8 393.6 251.95 393.6 252.6 L393.35 253.4 392.7 251.95 392.35 252.05 Q391.9 251.8 391.9 250.8 391.45 250.1 391.05 250.25 L390.2 248.9 Q389.8 248.2 388.95 247.9 L388.9 247.6 Q388.7 247.35 388.85 247.2 L389.9 247.45 Q391.6 246.45 391.75 245.65 L391.75 244.25 391.8 243.85 391.55 242.95 Q391.25 242.2 391.4 241.8 L391.0 241.35 390.5 240.9 Q389.95 241.25 389.85 241.45 389.25 241.55 388.95 241.75 L387.35 242.1 Q386.0 242.1 385.0 241.35 L384.2 240.75 Q383.7 240.45 383.65 240.0 382.75 239.2 382.55 237.95 382.1 237.15 382.1 235.6 L382.1 233.05 383.2 228.45 384.55 225.75 Q385.0 225.4 385.0 224.55 L384.85 223.3 Q384.55 222.7 384.55 221.65 L384.75 221.25 Q384.9 220.6 386.05 220.7 387.65 221.7 387.25 224.25 L386.65 226.2 385.05 229.85 Q384.25 232.8 384.2 234.2 L385.15 238.05 386.1 238.95 386.6 239.25 388.5 239.3 389.3 238.8 389.9 237.95 390.95 234.4 391.65 232.7 Q391.95 231.45 392.4 230.95 L394.6 224.2 Q394.45 224.05 394.45 223.6 394.45 223.15 394.25 223.0 L394.15 220.9 Q394.2 220.25 393.7 219.35 L393.0 217.8 Q391.75 215.9 391.45 214.95 391.05 214.7 391.05 213.7 L391.05 212.3 391.25 212.05 390.5 208.25 390.75 208.0 390.95 207.7 Q391.5 207.55 392.2 208.05 L392.7 208.0 Q392.4 207.7 392.65 207.05 393.2 206.85 393.9 207.45 L394.95 208.1 Q395.25 208.1 395.55 207.8 L396.35 208.1 397.15 208.55 397.55 208.4 Q398.0 208.2 398.6 208.4 L399.6 208.7 400.4 209.7 Q400.8 210.15 400.8 210.7 L400.75 211.15 399.2 212.2 400.4 212.35 401.2 211.75 401.8 211.15 Q402.1 211.65 402.05 212.7 L401.15 213.6 399.8 214.2 Q400.3 214.7 400.55 214.55 401.05 214.6 401.25 215.05 L401.7 215.85 402.6 216.2 404.3 216.2 404.55 216.05 404.85 216.15 404.55 216.45 Q404.2 216.7 404.3 216.85 L406.15 217.1 406.1 217.55 Q405.95 217.9 406.1 218.05 L406.5 218.05 406.9 218.0 409.3 215.7 411.25 213.2 411.55 212.65 411.4 211.9 411.4 211.1 411.9 210.15 Q412.1 209.6 412.5 209.35 L412.9 209.2 M395.35 210.0 Q395.4 210.35 396.65 210.25 L396.7 209.85 396.45 210.0 396.3 210.15 395.9 210.1 395.6 209.95 395.35 210.0" fill="none" stroke="#000000" stroke-linecap="round" stroke-linejoin="round" stroke-opacity="0.5019608" stroke-width="1.0"/>
  </g>
</svg>
