<?xml version="1.0" encoding="UTF-8" standalone="no"?>
<svg xmlns:xlink="http://www.w3.org/1999/xlink" height="21.9px" width="45.45px" xmlns="http://www.w3.org/2000/svg">
  <g transform="matrix(1.0, 0.0, 0.0, 1.0, -377.2, -215.2)">
    <path d="M422.15 225.2 L422.05 224.9 418.3 220.95 397.2 220.95 Q395.65 218.55 393.25 217.1 390.85 215.7 388.05 215.7 385.85 215.7 383.9 216.55 381.95 217.5 380.65 218.85 379.25 220.25 378.5 222.2 377.7 224.2 377.7 226.2 L377.7 228.1 Q378.2 230.2 379.05 231.5 380.0 233.05 381.4 234.2 382.9 235.35 384.5 236.0 386.15 236.6 388.05 236.6 390.9 236.6 393.4 235.15 395.9 233.65 397.35 231.2 L401.45 231.2 404.6 228.1 407.05 230.45 409.6 228.1 412.15 230.45 414.7 228.1 417.35 230.65 421.9 225.8 422.15 225.2 M381.55 227.95 Q380.7 227.25 380.7 225.95 380.7 224.95 381.55 224.1 382.3 223.35 383.5 223.35 384.65 223.35 385.45 224.1 386.25 224.9 386.25 225.95 386.25 227.3 385.5 227.95 384.8 228.65 383.5 228.65 382.25 228.65 381.55 227.95" fill="none" stroke="#000000" stroke-linecap="round" stroke-linejoin="round" stroke-opacity="0.5019608" stroke-width="1.0"/>
  </g>
</svg>
