<?xml version="1.0" encoding="UTF-8" standalone="no"?>
<svg xmlns:xlink="http://www.w3.org/1999/xlink" height="44.75px" width="17.25px" xmlns="http://www.w3.org/2000/svg">
  <g transform="matrix(1.0, 0.0, 0.0, 1.0, -391.45, -204.45)">
    <path d="M406.45 237.55 L393.75 237.55 392.65 239.7 Q392.0 241.1 391.95 242.1 391.9 243.25 392.2 244.45 L393.05 246.4 407.0 246.4 Q408.3 244.2 408.2 242.25 408.15 241.2 407.55 239.8 L406.45 237.55 M407.1 246.65 L392.95 246.65 392.75 246.9 392.45 247.45 Q392.3 247.9 392.3 248.7 L407.8 248.7 407.6 247.5 407.35 246.95 407.1 246.65 M407.1 236.35 L406.7 235.75 406.25 235.6 394.05 235.6 393.65 235.75 Q393.35 235.95 393.25 236.4 393.2 236.7 393.45 237.0 L393.8 237.25 406.5 237.25 406.9 237.0 407.1 236.35 M399.25 205.3 Q398.95 205.7 398.95 206.3 398.95 207.3 399.6 207.65 L397.95 210.1 399.2 212.95 Q399.45 213.4 399.05 213.4 398.8 213.4 398.65 213.2 L397.55 210.7 396.6 212.1 395.8 213.6 Q395.35 214.6 395.75 216.15 396.15 217.7 397.1 218.6 396.75 218.6 396.55 218.85 396.3 219.1 396.3 219.45 396.3 219.85 396.55 220.05 L397.1 220.3 403.3 220.3 403.9 220.05 404.1 219.45 403.9 218.85 403.3 218.6 Q404.3 217.7 404.65 216.15 405.0 214.65 404.6 213.6 L403.05 210.9 400.85 207.65 Q401.6 207.25 401.6 206.3 401.6 205.7 401.2 205.3 400.8 204.95 400.2 204.95 399.6 204.95 399.25 205.3 M397.1 220.55 L397.1 223.3 396.4 223.3 395.95 223.55 Q395.5 223.9 395.45 224.45 395.4 224.9 395.8 225.25 L396.25 225.55 404.45 225.55 404.85 225.25 405.2 224.5 404.75 223.6 404.3 223.3 403.3 223.3 403.3 220.55 397.1 220.55 M404.1 230.75 Q404.75 232.55 406.1 235.3 L394.4 235.3 Q397.35 229.25 397.5 225.85 L402.9 225.85 Q403.0 227.85 404.1 230.75" fill="none" stroke="#000000" stroke-linecap="round" stroke-linejoin="round" stroke-opacity="0.5019608" stroke-width="1.0"/>
  </g>
</svg>
