<?xml version="1.0" encoding="UTF-8" standalone="no"?>
<svg xmlns:xlink="http://www.w3.org/1999/xlink" height="34.3px" width="34.35px" xmlns="http://www.w3.org/2000/svg">
  <g transform="matrix(1.0, 0.0, 0.0, 1.0, -382.6, -208.8)">
    <path d="M407.3 236.95 L407.5 236.65 389.1 218.25 388.85 218.45 388.55 218.85 388.3 219.3 388.15 219.45 Q387.25 221.1 386.9 222.6 386.6 224.15 386.6 225.95 386.6 228.75 387.6 231.1 388.55 233.4 390.4 235.3 392.15 237.05 394.65 238.15 397.1 239.15 399.8 239.15 L403.1 238.8 Q404.75 238.4 406.25 237.6 L406.45 237.45 407.3 236.95 M411.95 220.8 Q410.9 218.4 409.1 216.6 407.3 214.8 404.9 213.8 402.5 212.8 399.75 212.8 L396.4 213.15 Q394.85 213.45 393.35 214.35 L392.65 214.7 392.25 215.0 392.05 215.25 392.1 215.35 410.45 233.7 410.75 233.5 411.4 232.45 412.65 229.35 Q413.0 227.75 413.0 226.0 413.0 223.25 411.95 220.8 M411.9 213.9 Q414.2 216.3 415.55 219.4 416.95 222.5 416.95 226.0 416.95 229.6 415.55 232.65 414.1 235.8 411.8 238.05 409.6 240.35 406.4 241.75 403.3 243.1 399.8 243.1 396.3 243.1 393.2 241.75 390.1 240.45 387.7 238.05 385.4 235.75 384.0 232.6 382.6 229.5 382.6 225.95 382.6 222.45 384.0 219.3 385.35 216.2 387.7 213.85 390.1 211.5 393.2 210.15 396.3 208.8 399.8 208.8 403.35 208.8 406.45 210.15 409.4 211.45 411.9 213.9" fill="#000000" fill-rule="evenodd" stroke="none"/>
  </g>
</svg>
