<?xml version="1.0" encoding="UTF-8" standalone="no"?>
<svg xmlns:xlink="http://www.w3.org/1999/xlink" height="44.1px" width="32.6px" xmlns="http://www.w3.org/2000/svg">
  <g transform="matrix(1.0, 0.0, 0.0, 1.0, -383.5, -200.65)">
    <path d="M412.0 232.8 Q414.35 233.05 415.95 227.35 416.85 235.8 412.1 241.2 407.3 245.5 402.0 244.5 406.65 241.55 406.7 237.0 405.3 238.05 403.3 238.35 404.75 236.3 405.1 234.0 403.4 235.55 400.9 236.1 403.45 231.4 401.25 226.8 401.2 230.45 399.4 232.95 397.75 232.4 397.35 230.8 396.5 234.8 397.75 239.15 395.05 235.7 393.85 231.0 392.8 234.45 394.35 237.5 392.95 237.5 391.85 236.1 393.35 241.8 397.95 244.65 392.95 245.25 388.85 241.6 385.65 238.35 386.05 233.35 385.95 229.5 383.5 225.7 386.5 226.6 388.4 229.6 391.0 225.85 387.75 220.25 390.65 221.8 392.4 224.5 392.25 221.5 393.3 219.05 394.3 216.7 391.0 212.65 394.4 213.2 397.4 216.45 398.3 213.8 397.4 211.15 396.05 206.2 400.0 200.65 399.0 206.65 401.65 211.1 404.75 215.8 404.6 220.7 406.15 219.6 406.2 215.6 410.65 220.2 408.2 227.4 411.25 226.6 412.85 220.5 415.55 225.45 412.0 232.8" fill="#000000" fill-rule="evenodd" stroke="none"/>
  </g>
</svg>
