<?xml version="1.0" encoding="UTF-8" standalone="no"?>
<svg xmlns:xlink="http://www.w3.org/1999/xlink" height="75.95px" width="26.05px" xmlns="http://www.w3.org/2000/svg">
  <g transform="matrix(1.0, 0.0, 0.0, 1.0, -329.0, -283.0)">
    <path d="M337.3 283.8 Q337.65 285.65 336.5 286.55 L335.1 285.4 Q336.2 284.6 336.4 283.0 L337.3 283.8 M332.9 291.2 Q333.6 290.1 333.8 288.3 L335.7 289.9 Q336.05 291.75 334.85 292.7 L333.45 291.45 332.9 291.2 M336.85 293.0 Q337.25 292.5 337.55 292.8 337.85 293.1 337.8 294.05 L337.5 295.9 336.75 297.4 Q336.3 297.9 336.0 297.6 335.75 297.25 335.75 296.35 335.8 295.45 336.1 294.5 336.4 293.5 336.85 293.0 M337.75 287.25 L338.4 286.0 338.45 285.95 339.0 285.85 339.25 286.9 339.0 288.5 338.35 289.75 337.75 289.9 337.5 289.35 337.5 288.85 337.75 287.25 M341.9 285.15 Q349.15 285.55 355.05 292.9 354.7 297.2 352.4 299.45 347.6 294.5 340.55 292.7 L341.9 285.15 M334.45 296.2 Q334.75 298.35 333.6 298.95 L332.5 298.15 Q332.75 296.45 332.35 294.7 L334.45 296.2 M329.25 316.9 Q329.5 315.25 329.0 313.8 L332.1 313.5 Q333.3 314.75 332.15 316.6 L329.25 316.9 M332.85 320.1 Q334.2 321.65 332.95 323.2 L329.85 323.75 Q330.15 322.0 329.55 320.65 L332.85 320.1 M335.65 313.9 Q335.95 313.75 336.2 314.35 L336.65 315.85 336.7 317.55 Q336.6 318.3 336.3 318.4 336.05 318.55 335.75 318.0 335.45 317.45 335.3 316.5 L335.25 314.8 Q335.4 314.05 335.65 313.9 M337.25 323.6 L337.3 325.6 Q337.2 326.5 336.85 326.65 336.55 326.8 336.2 326.15 L335.7 324.35 335.65 322.35 Q335.75 321.45 336.05 321.3 336.4 321.15 336.75 321.85 L337.25 323.6 M337.6 329.85 Q337.95 330.45 338.1 331.45 L338.1 333.25 Q338.0 334.05 337.7 334.25 337.4 334.4 337.05 333.8 336.7 333.2 336.55 332.2 L336.55 330.35 Q336.65 329.55 336.95 329.4 337.3 329.25 337.6 329.85 M333.1 326.8 Q334.45 327.9 333.15 329.65 L330.35 330.15 Q330.75 328.75 330.15 327.4 L333.1 326.8 M330.95 337.35 Q331.2 335.6 330.7 334.5 L333.75 333.8 Q335.05 334.65 333.8 336.75 L330.95 337.35 M331.45 343.1 Q331.8 341.35 331.15 339.6 L334.15 339.1 Q335.25 340.4 334.3 342.7 L331.45 343.1 M338.05 338.3 L338.6 340.0 Q338.8 341.05 338.6 341.95 338.45 342.8 338.1 343.0 337.75 343.2 337.35 342.55 337.0 341.95 336.8 340.9 336.65 339.8 336.8 338.95 336.95 338.05 337.3 337.9 337.7 337.7 338.05 338.3 M345.45 355.5 Q343.8 358.15 338.6 358.8 L338.0 358.9 337.2 358.95 337.25 358.9 338.5 357.55 339.7 355.0 Q340.25 352.95 340.3 350.25 344.45 349.35 345.25 347.85 346.9 350.25 345.45 355.5" fill="#000000" fill-rule="evenodd" stroke="none"/>
  </g>
</svg>
