<?xml version="1.0" encoding="UTF-8" standalone="no"?>
<svg xmlns:xlink="http://www.w3.org/1999/xlink" height="46.2px" width="142.1px" xmlns="http://www.w3.org/2000/svg">
  <g transform="matrix(1.0, 0.0, 0.0, 1.0, -328.85, -312.45)">
    <path d="M331.1 325.45 Q329.05 319.45 329.4 312.95 L339.4 314.05 338.95 325.45 331.1 325.45 M331.75 330.6 L339.3 330.6 339.9 342.65 332.55 342.65 331.75 330.6 M333.3 347.45 L334.25 357.3 Q337.35 358.75 340.85 357.7 L340.35 347.45 333.3 347.45 M468.05 330.6 L460.5 330.6 459.9 342.65 467.25 342.65 468.05 330.6 M468.7 325.45 Q470.75 319.45 470.4 312.95 L460.4 314.05 460.85 325.45 468.7 325.45 M466.5 347.45 L465.55 357.3 Q462.45 358.75 458.95 357.7 L459.45 347.45 466.5 347.45" fill="none" stroke="#000000" stroke-linecap="round" stroke-linejoin="round" stroke-opacity="0.49803922" stroke-width="1.0"/>
  </g>
</svg>
