<?xml version="1.0" encoding="UTF-8" standalone="no"?>
<svg xmlns:xlink="http://www.w3.org/1999/xlink" height="79.2px" width="144.8px" xmlns="http://www.w3.org/2000/svg">
  <g transform="matrix(1.0, 0.0, 0.0, 1.0, -327.55, -280.8)">
    <path d="M458.95 285.0 L457.85 281.3 451.3 281.3 Q449.5 289.35 443.3 290.9 L445.35 294.65 M458.95 285.0 L460.75 291.8 464.15 290.9 469.25 294.05 471.85 306.35 470.35 312.4 468.5 312.9 Q468.85 317.35 468.05 322.3 L466.25 356.8 464.45 359.0 Q459.75 360.35 453.9 358.05 L452.4 357.0 452.4 351.35 454.55 349.85 454.55 343.05 Q454.5 336.45 453.65 327.1 L448.5 318.6 445.45 316.35 444.6 312.15 Q445.6 305.0 447.9 299.2 L447.45 298.45 445.35 294.65 M354.55 294.65 L356.6 290.9 Q350.4 289.35 348.6 281.3 L342.05 281.3 340.95 285.0 M354.55 294.65 L352.45 298.45 352.0 299.2 Q354.3 305.0 355.3 312.15 L354.45 316.35 351.4 318.6 346.25 327.1 Q345.4 336.45 345.35 343.05 L345.35 349.85 347.5 351.35 347.5 357.0 346.0 358.05 Q340.15 360.35 335.45 359.0 L333.65 356.8 331.85 322.3 Q331.05 317.35 331.4 312.9 L329.55 312.4 328.05 306.35 330.65 294.05 335.75 290.9 339.15 291.8 340.95 285.0" fill="none" stroke="#000000" stroke-linecap="round" stroke-linejoin="round" stroke-width="1.0"/>
    <path d="M445.35 294.65 Q451.7 292.7 453.9 285.0 L458.95 285.0 M460.75 291.8 L457.45 292.65 452.8 300.25 455.2 306.85 456.6 310.6 462.85 314.4 468.5 312.9 M463.25 296.35 Q464.6 296.0 466.05 297.4 467.5 298.8 468.15 301.2 L468.5 302.9 Q468.55 304.35 468.25 305.55 L467.5 307.05 Q467.05 307.6 466.35 307.8 464.95 308.2 463.5 306.8 462.15 305.35 461.5 303.0 460.85 300.6 461.3 298.65 461.65 297.4 462.4 296.8 462.75 296.5 463.25 296.35 M340.95 285.0 L346.0 285.0 Q348.2 292.7 354.55 294.65 M339.15 291.8 L342.45 292.65 347.1 300.25 344.7 306.85 Q349.1 303.95 352.0 299.2 M336.65 296.35 Q335.3 296.0 333.85 297.4 332.4 298.8 331.75 301.2 L331.4 302.9 Q331.35 304.35 331.65 305.55 331.9 306.45 332.4 307.05 332.85 307.6 333.55 307.8 334.95 308.2 336.4 306.8 337.75 305.35 338.4 303.0 339.05 300.6 338.6 298.65 338.25 297.4 337.5 296.8 L336.65 296.35 M344.7 306.85 L343.3 310.6 337.05 314.4 331.4 312.9 M345.35 349.85 L343.55 348.55 Q342.3 336.5 343.55 324.4 L351.4 318.6 M455.2 306.85 Q450.8 303.95 447.9 299.2 M448.5 318.6 L456.35 324.4 Q457.6 336.5 456.35 348.55 L454.55 349.85" fill="none" stroke="#000000" stroke-linecap="round" stroke-linejoin="round" stroke-opacity="0.5019608" stroke-width="1.0"/>
  </g>
</svg>
