<?xml version="1.0" encoding="UTF-8" standalone="no"?>
<svg xmlns:xlink="http://www.w3.org/1999/xlink" height="51.6px" width="142.4px" xmlns="http://www.w3.org/2000/svg">
  <g transform="matrix(1.0, 0.0, 0.0, 1.0, -328.7, -337.2)">
    <path d="M330.9 344.45 L330.75 343.4 Q330.3 341.6 331.25 341.1 L331.1 340.2 Q340.7 337.2 350.45 337.8 L350.6 338.7 Q351.25 339.05 351.35 339.6 L351.4 340.15 Q352.55 340.25 352.65 341.45 L352.7 341.45 352.75 341.5 Q353.05 341.8 353.05 342.35 L354.7 352.55 354.75 352.6 Q355.25 353.35 354.6 354.0 L355.55 355.55 356.65 356.55 360.15 361.55 363.85 367.95 Q366.3 372.65 365.25 376.9 364.5 379.2 362.4 379.0 L362.7 380.5 Q363.25 385.45 355.65 387.0 L342.1 388.3 Q335.95 388.25 334.1 383.6 330.95 375.2 332.3 360.6 332.4 359.5 332.9 358.7 L332.7 357.25 332.35 355.25 Q331.45 355.0 331.0 354.3 329.55 352.4 329.3 350.0 328.8 346.9 330.45 344.85 L330.9 344.45 M449.35 337.8 Q459.1 337.2 468.7 340.2 L468.55 341.1 Q469.5 341.6 469.05 343.4 L468.9 344.45 469.35 344.85 Q471.0 346.9 470.5 350.0 470.25 352.4 468.8 354.3 468.35 355.0 467.45 355.25 L467.1 357.25 466.9 358.7 Q467.4 359.5 467.5 360.6 468.85 375.2 465.7 383.6 463.85 388.25 457.7 388.3 L444.15 387.0 Q436.55 385.45 437.1 380.5 L437.4 379.0 Q435.3 379.2 434.55 376.9 433.5 372.65 435.95 367.95 L439.65 361.55 443.15 356.55 444.25 355.55 445.2 354.0 Q444.55 353.35 445.05 352.6 L445.1 352.55 446.75 342.35 Q446.75 341.8 447.05 341.5 L447.1 341.45 447.15 341.45 Q447.25 340.25 448.4 340.15 L448.45 339.6 Q448.55 339.05 449.2 338.7 L449.35 337.8" fill="none" stroke="#000000" stroke-linecap="round" stroke-linejoin="round" stroke-width="1.0"/>
    <path d="M330.9 344.45 Q333.1 342.45 337.65 341.35 344.5 339.55 351.4 340.15 M350.6 338.7 L349.4 338.65 Q339.15 338.55 331.8 340.85 331.5 340.9 331.25 341.1 M354.7 352.55 Q353.3 351.7 350.5 351.85 L350.35 351.9 Q343.0 351.95 336.1 354.15 332.85 355.15 331.7 353.5 329.95 351.1 330.35 347.0 330.9 344.9 333.55 343.75 340.5 340.75 349.75 340.65 351.9 340.7 352.65 341.45 M355.55 355.55 Q354.55 355.0 352.95 354.9 343.55 354.8 334.8 357.45 333.55 357.9 332.9 358.7 M332.35 355.25 L336.45 354.95 343.45 353.45 Q349.85 352.2 354.2 353.25 L354.6 354.0 M362.4 379.0 L362.2 377.8 361.55 373.45 Q363.25 374.35 363.05 376.4 362.9 377.4 362.2 377.8 M332.7 357.25 Q339.4 353.1 354.2 353.25 M449.2 338.7 L450.4 338.65 Q460.65 338.55 468.0 340.85 L468.55 341.1 M445.1 352.55 Q446.5 351.7 449.3 351.85 L449.45 351.9 Q456.8 351.95 463.7 354.15 466.95 355.15 468.1 353.5 469.85 351.1 469.45 347.0 468.9 344.9 466.25 343.75 459.3 340.75 450.05 340.65 447.9 340.7 447.15 341.45 M468.9 344.45 Q466.7 342.45 462.15 341.35 455.3 339.55 448.4 340.15 M437.4 379.0 L437.6 377.8 Q436.9 377.4 436.75 376.4 436.55 374.35 438.25 373.45 L437.6 377.8 M444.25 355.55 Q445.25 355.0 446.85 354.9 456.25 354.8 465.0 357.45 466.25 357.9 466.9 358.7 M467.45 355.25 L463.35 354.95 456.35 353.45 Q449.95 352.2 445.6 353.25 460.4 353.1 467.1 357.25 M445.6 353.25 L445.2 354.0" fill="none" stroke="#000000" stroke-linecap="round" stroke-linejoin="round" stroke-opacity="0.5019608" stroke-width="1.0"/>
  </g>
</svg>
