<?xml version="1.0" encoding="UTF-8" standalone="no"?>
<svg xmlns:xlink="http://www.w3.org/1999/xlink" height="22.7px" width="147.3px" xmlns="http://www.w3.org/2000/svg">
  <g transform="matrix(1.0, 0.0, 0.0, 1.0, -326.25, -287.7)">
    <path d="M462.3 291.7 L461.15 292.7 461.05 292.9 Q460.9 293.55 461.4 294.2 L461.8 294.55 Q462.25 294.9 462.85 295.05 463.75 295.3 464.55 295.05 L465.35 294.4 465.35 294.3 M457.55 294.25 Q459.15 297.55 461.45 300.3 462.8 302.9 463.55 305.55 M468.6 307.9 L466.3 306.8 Q465.95 306.45 465.9 305.85 465.8 305.0 466.3 304.2 466.7 303.55 467.2 303.2 L467.5 303.0 Q468.3 302.65 468.85 303.0 L469.0 303.15 469.2 303.6 M468.85 300.2 L468.0 300.8 467.9 300.85 466.9 300.7 Q466.25 300.4 465.8 299.75 L465.65 299.5 Q465.15 298.7 465.25 297.9 465.35 297.05 465.9 296.7 L466.1 296.65 467.6 296.8 M465.4 290.15 L464.7 293.8 Q463.25 294.6 462.0 293.2 M332.2 296.8 L333.7 296.65 333.9 296.7 Q334.45 297.05 334.55 297.9 334.65 298.7 334.15 299.5 L334.0 299.75 332.9 300.7 331.9 300.85 331.8 300.8 330.95 300.2 M330.6 303.6 L330.8 303.15 330.95 303.0 Q331.5 302.65 332.3 303.0 L332.6 303.2 333.5 304.2 Q334.0 305.0 333.9 305.85 L333.5 306.8 331.2 307.9 M336.25 305.55 Q337.0 302.9 338.35 300.3 340.65 297.55 342.25 294.25 M337.5 291.7 L338.65 292.7 338.75 292.9 Q338.9 293.55 338.4 294.2 L338.0 294.55 Q337.55 294.9 336.95 295.05 336.05 295.3 335.25 295.05 L334.45 294.4 334.45 294.3 M334.4 290.15 L335.1 293.8 Q336.55 294.6 337.8 293.2 M354.85 306.1 Q349.45 302.95 341.95 302.95 M355.2 302.35 Q351.3 298.8 344.25 298.15 M328.85 297.85 L331.95 299.9 332.4 299.75 Q333.55 299.15 333.4 297.6 M329.45 307.95 L332.75 306.3 Q332.95 305.4 332.6 304.75 L331.45 303.85 M470.95 297.85 L467.85 299.9 467.4 299.75 Q466.25 299.15 466.4 297.6 M470.35 307.95 L467.05 306.3 Q466.85 305.4 467.2 304.75 467.55 304.2 468.35 303.85 M444.6 302.35 Q448.5 298.8 455.55 298.15 M444.95 306.1 Q450.35 302.95 457.85 302.95" fill="none" stroke="#000000" stroke-linecap="round" stroke-linejoin="round" stroke-opacity="0.5019608" stroke-width="1.0"/>
    <path d="M465.35 294.3 L465.45 294.1 466.5 288.2 462.3 291.7 460.4 290.35 Q457.0 293.15 457.55 294.25 M463.55 305.55 Q464.1 307.55 468.1 309.9 468.7 308.9 468.6 307.9 M469.2 303.6 Q469.35 302.6 468.85 301.75 L468.85 300.2 M467.6 296.8 Q467.0 295.1 465.45 294.4 L465.35 294.3 M330.95 300.2 Q330.8 300.9 330.95 301.75 330.45 302.6 330.6 303.6 M331.2 307.9 Q331.1 308.9 331.7 309.9 335.7 307.55 336.25 305.55 346.15 304.55 354.4 307.95 355.1 307.05 354.85 306.1 355.65 304.25 355.2 302.35 355.8 301.25 355.0 300.05 350.95 296.55 342.25 294.25 342.8 293.15 339.4 290.35 338.2 290.9 337.5 291.7 M334.45 294.3 L334.35 294.4 Q332.8 295.1 332.2 296.8 L326.75 297.25 330.95 300.2 M334.45 294.3 L334.35 294.1 333.3 288.2 337.5 291.7 M331.2 307.9 L327.85 309.45 330.6 303.6 M467.6 296.8 L473.05 297.25 468.85 300.2 M469.2 303.6 L471.95 309.45 468.6 307.9 M463.55 305.55 Q453.65 304.55 445.4 307.95 444.7 307.05 444.95 306.1 444.15 304.25 444.6 302.35 444.0 301.25 444.8 300.05 448.85 296.55 457.55 294.25" fill="none" stroke="#000000" stroke-linecap="round" stroke-linejoin="round" stroke-width="1.0"/>
  </g>
</svg>
