<?xml version="1.0" encoding="UTF-8" standalone="no"?>
<svg xmlns:xlink="http://www.w3.org/1999/xlink" height="75.65px" width="29.9px" xmlns="http://www.w3.org/2000/svg">
  <g transform="matrix(1.0, 0.0, 0.0, 1.0, -325.85, -285.55)">
    <path d="M335.75 312.0 Q334.9 309.4 334.5 306.15 334.05 302.85 334.0 299.3 334.0 295.75 335.4 286.05 333.5 290.7 332.6 294.1 331.65 297.45 331.05 302.8 330.4 308.05 330.3 313.75 330.3 318.8 331.1 323.8 M345.3 345.45 Q349.35 336.0 352.0 326.7 L354.25 318.05 Q355.05 314.3 355.25 312.15 344.65 314.1 342.0 312.75 340.75 311.55 340.4 309.45 339.7 304.85 339.75 300.25 338.5 301.7 337.35 304.7 336.15 307.65 335.75 312.0 M345.3 345.45 L345.95 358.05 Q341.8 360.0 338.85 360.5 L335.2 360.25 333.05 344.75 Q330.8 340.7 329.1 336.7 327.35 331.8 326.95 327.45 326.25 320.4 326.35 307.7 327.6 314.25 328.7 318.45 329.85 322.65 331.1 323.8" fill="none" stroke="#000000" stroke-linecap="round" stroke-linejoin="round" stroke-width="1.0"/>
    <path d="M331.1 323.8 L331.8 327.2 M355.25 312.15 Q348.25 315.15 346.35 319.25 344.45 323.3 343.6 327.0 342.75 330.7 343.1 336.65 343.4 342.55 345.3 345.45 M335.75 312.0 L336.9 315.15 M336.2 349.85 Q334.85 344.25 334.25 339.0 333.7 333.75 334.85 328.85 L336.1 325.25 Q337.55 323.3 336.45 321.1 M341.3 336.9 Q341.85 330.6 339.4 324.05 336.2 330.65 336.3 336.65 336.35 342.6 338.05 348.95 339.85 345.75 340.4 343.1 341.15 339.5 341.3 336.9" fill="none" stroke="#000000" stroke-linecap="round" stroke-linejoin="round" stroke-opacity="0.5019608" stroke-width="1.0"/>
  </g>
</svg>
