<?xml version="1.0" encoding="UTF-8" standalone="no"?>
<svg xmlns:xlink="http://www.w3.org/1999/xlink" height="47.9px" width="144.0px" xmlns="http://www.w3.org/2000/svg">
  <g transform="matrix(1.0, 0.0, 0.0, 1.0, -327.9, -317.9)">
    <path d="M344.1 321.35 L345.3 322.25 347.05 323.75 Q347.95 324.4 348.75 325.2 348.95 327.55 348.35 329.5 348.1 330.25 347.65 330.6 L344.95 328.25 Q344.5 330.15 344.5 332.0 L344.55 335.65 344.6 339.2 344.65 342.7 344.85 346.15 345.05 349.55 345.3 352.95 345.8 356.65 347.0 354.2 347.5 354.75 Q348.35 355.75 348.5 357.7 L347.0 360.65 345.5 362.95 343.95 364.7 Q343.15 365.35 342.3 365.5 L340.4 365.8 338.55 365.35 Q336.8 364.7 335.2 363.1 L335.0 362.35 Q334.65 360.85 334.55 359.2 L335.4 359.7 336.2 360.15 335.75 355.6 335.2 351.7 334.7 348.5 334.6 347.8 334.0 343.9 333.3 340.0 332.6 336.15 331.8 332.25 331.4 330.25 330.95 328.2 329.05 330.8 Q327.85 329.9 327.9 327.95 L327.95 326.6 Q329.2 323.5 330.85 321.55 L332.3 320.0 Q333.0 319.25 333.75 318.85 334.5 318.25 335.3 317.9 L337.3 318.15 339.35 318.85 341.0 319.55 342.9 320.55 344.1 321.35 M467.5 320.0 L468.95 321.55 Q470.6 323.5 471.85 326.6 L471.9 327.95 Q471.95 329.9 470.75 330.8 L468.85 328.2 468.4 330.25 468.0 332.25 467.2 336.15 466.5 340.0 465.8 343.9 465.2 347.8 465.1 348.5 464.6 351.7 464.05 355.6 463.6 360.15 464.4 359.7 Q464.8 359.4 465.25 359.2 L464.8 362.35 464.6 363.1 Q463.0 364.7 461.25 365.35 L459.4 365.8 457.5 365.5 Q456.65 365.35 455.85 364.7 L454.3 362.95 452.8 360.65 451.3 357.7 Q451.45 355.75 452.3 354.75 L452.8 354.2 454.0 356.65 454.5 352.95 454.75 349.55 454.95 346.15 455.15 342.7 455.2 339.2 455.25 335.65 455.3 332.0 Q455.3 330.15 454.85 328.25 L452.15 330.6 Q451.7 330.25 451.45 329.5 450.85 327.55 451.05 325.2 L452.75 323.75 454.5 322.25 455.7 321.35 456.9 320.55 Q457.85 320.0 458.8 319.55 L460.45 318.85 Q461.45 318.45 462.5 318.15 L464.5 317.9 466.05 318.85 467.5 320.0 M340.65 325.55 L340.6 325.55 338.55 324.7 337.15 324.4 335.7 324.5 335.0 324.7 335.35 327.0 335.75 329.3 336.1 331.6 336.4 333.8 336.7 336.15 337.0 338.4 337.3 340.7 337.55 342.9 337.8 345.2 338.05 347.5 338.15 348.6 338.25 349.8 338.4 352.0 338.6 354.35 338.75 356.55 338.9 358.85 338.95 361.05 341.05 361.45 Q342.05 361.45 342.85 360.4 L342.4 356.5 342.0 352.45 341.6 348.3 341.45 346.2 341.25 344.05 341.15 341.95 341.05 339.8 340.9 337.6 340.8 335.3 340.75 333.05 340.7 330.75 340.65 328.45 340.65 325.55 M464.8 324.7 L464.1 324.5 462.65 324.4 461.25 324.7 459.2 325.55 459.15 325.55 459.15 328.45 459.1 330.75 459.05 333.05 459.0 335.3 458.9 337.6 458.75 339.8 458.65 341.95 458.55 344.05 458.35 346.2 458.2 348.3 457.8 352.45 457.4 356.5 456.95 360.4 Q457.75 361.45 458.75 361.45 L460.85 361.05 460.9 358.85 461.05 356.55 461.2 354.35 461.4 352.0 461.55 349.8 461.65 348.6 461.75 347.5 462.0 345.2 462.25 342.9 462.5 340.7 462.8 338.4 463.1 336.15 463.4 333.8 463.7 331.6 464.05 329.3 464.45 327.0 464.8 324.7" fill="#000000" fill-rule="evenodd" stroke="none"/>
  </g>
</svg>
