<?xml version="1.0" encoding="UTF-8" standalone="no"?>
<svg xmlns:xlink="http://www.w3.org/1999/xlink" height="68.6px" width="143.8px" xmlns="http://www.w3.org/2000/svg">
  <g transform="matrix(1.0, 0.0, 0.0, 1.0, -328.05, -290.9)">
    <path d="M464.15 290.9 L469.25 294.05 471.85 306.35 470.35 312.4 468.5 312.9 Q468.85 317.35 468.05 322.3 L466.25 356.8 464.45 359.0 Q459.75 360.35 453.9 358.05 L452.4 357.0 452.4 351.35 456.35 348.55 Q457.6 336.5 456.35 324.4 L445.45 316.35 444.6 312.15 Q445.6 305.0 447.9 299.2 450.8 303.95 455.2 306.85 L452.8 300.25 457.45 292.65 464.15 290.9 M335.75 290.9 L342.45 292.65 347.1 300.25 344.7 306.85 Q349.1 303.95 352.0 299.2 354.3 305.0 355.3 312.15 L354.45 316.35 343.55 324.4 Q342.3 336.5 343.55 348.55 L347.5 351.35 347.5 357.0 346.0 358.05 Q340.15 360.35 335.45 359.0 L333.65 356.8 331.85 322.3 Q331.05 317.35 331.4 312.9 L329.55 312.4 328.05 306.35 330.65 294.05 335.75 290.9 M463.25 296.35 Q462.75 296.5 462.4 296.8 461.65 297.4 461.3 298.65 460.85 300.6 461.5 303.0 462.15 305.35 463.5 306.8 464.95 308.2 466.35 307.8 467.05 307.6 467.5 307.05 L468.25 305.55 Q468.55 304.35 468.5 302.9 L468.15 301.2 Q467.5 298.8 466.05 297.4 464.6 296.0 463.25 296.35 M336.65 296.35 Q335.3 296.0 333.85 297.4 332.4 298.8 331.75 301.2 L331.4 302.9 Q331.35 304.35 331.65 305.55 331.9 306.45 332.4 307.05 332.85 307.6 333.55 307.8 334.95 308.2 336.4 306.8 337.75 305.35 338.4 303.0 339.05 300.6 338.6 298.65 338.25 297.4 337.5 296.8 L336.65 296.35" fill="#000000" fill-rule="evenodd" stroke="none"/>
  </g>
</svg>
