<?xml version="1.0" encoding="UTF-8" standalone="no"?>
<svg xmlns:xlink="http://www.w3.org/1999/xlink" height="103.95px" width="137.4px" xmlns="http://www.w3.org/2000/svg">
  <g transform="matrix(1.0, 0.0, 0.0, 1.0, -331.2, -255.55)">
    <path d="M431.8 269.85 Q438.45 263.0 447.05 258.75 L446.75 256.4 449.3 255.55 449.9 259.05 449.65 259.15 Q448.75 263.15 451.4 267.15 452.25 267.2 452.5 266.8 L453.55 269.45 Q456.1 275.75 458.05 282.25 L458.95 285.2 Q458.7 285.25 458.4 285.4 457.7 289.4 460.45 293.35 L461.05 293.3 461.7 296.0 Q466.8 302.2 468.1 309.95 468.8 313.8 468.5 318.05 L468.1 317.75 Q468.45 315.55 467.0 315.75 464.7 319.1 465.7 323.8 467.3 324.55 467.25 322.55 L467.55 322.35 468.05 322.1 466.85 327.55 465.5 344.85 462.25 345.1 463.4 328.0 463.45 327.65 463.65 325.85 Q457.6 326.05 452.25 324.85 L445.8 314.25 463.8 313.05 463.45 310.55 Q462.3 302.95 458.75 296.7 L458.3 295.85 457.95 294.85 446.85 297.45 442.45 289.35 454.95 285.55 449.55 268.75 434.1 274.1 432.55 271.25 431.8 269.85 M345.4 352.8 Q345.6 355.95 345.95 358.05 340.1 360.35 335.4 359.0 L334.5 347.05 Q340.2 347.45 345.25 345.95 345.25 350.4 345.4 352.8 M349.9 259.05 L350.5 255.55 353.05 256.4 352.75 258.75 Q361.35 263.0 368.0 269.85 L367.25 271.25 365.7 274.1 350.25 268.75 344.85 285.55 357.35 289.35 352.95 297.45 341.85 294.85 341.5 295.85 341.05 296.7 Q337.5 302.95 336.35 310.55 L336.0 313.05 354.0 314.25 347.55 324.85 Q342.2 326.05 336.15 325.85 L336.35 327.65 337.55 345.1 334.3 344.85 332.95 327.55 Q332.2 324.75 331.75 322.1 L332.25 322.35 332.55 322.55 Q332.5 324.55 334.1 323.8 335.1 319.1 332.8 315.75 331.35 315.55 331.7 317.75 L331.3 318.05 Q331.0 313.8 331.7 309.95 333.0 302.2 338.1 296.0 L338.75 293.3 339.35 293.35 Q342.1 289.4 341.4 285.4 L340.85 285.2 341.75 282.25 Q343.7 275.75 346.25 269.45 L347.3 266.8 Q347.55 267.2 348.4 267.15 351.05 263.15 350.15 259.15 L349.9 259.05 M454.4 352.8 L454.55 345.95 Q459.6 347.45 465.3 347.05 L464.4 359.0 Q459.7 360.35 453.85 358.05 L454.4 352.8" fill="#000000" fill-rule="evenodd" stroke="none"/>
  </g>
</svg>
