<?xml version="1.0" encoding="UTF-8" standalone="no"?>
<svg xmlns:xlink="http://www.w3.org/1999/xlink" height="15.55px" width="138.7px" xmlns="http://www.w3.org/2000/svg">
  <g transform="matrix(1.0, 0.0, 0.0, 1.0, -330.55, -292.1)">
    <path d="M460.1 295.65 Q459.3 294.05 459.6 293.05 460.55 291.95 462.65 292.15 464.7 293.0 465.45 294.4 467.55 295.35 467.95 298.1 469.2 299.6 468.85 301.75 469.6 303.1 468.9 304.75 469.3 305.95 468.5 307.35 467.05 308.05 466.2 307.05 465.5 306.65 465.25 305.5 L464.45 303.05 Q463.75 301.4 462.65 299.85 461.1 297.7 460.1 295.65 M337.15 292.15 Q339.25 291.95 340.2 293.05 340.5 294.05 339.7 295.65 L337.15 299.85 Q336.05 301.4 335.35 303.05 L334.55 305.5 Q334.3 306.65 333.6 307.05 332.75 308.05 331.3 307.35 330.5 305.95 330.9 304.75 330.2 303.1 330.95 301.75 330.6 299.6 331.85 298.1 332.25 295.35 334.35 294.4 335.1 293.0 337.15 292.15" fill="#000000" fill-rule="evenodd" stroke="none"/>
  </g>
</svg>
