<?xml version="1.0" encoding="UTF-8" standalone="no"?>
<svg xmlns:xlink="http://www.w3.org/1999/xlink" height="41.2px" width="16.0px" xmlns="http://www.w3.org/2000/svg">
  <g transform="matrix(1.0, 0.0, 0.0, 1.0, -383.4, -176.65)">
    <path d="M396.55 201.05 L395.1 202.25 394.55 202.9 394.3 203.15 393.95 203.4 393.45 203.9 393.15 204.3 392.75 204.8 392.5 205.1 391.5 206.0 391.3 206.25 Q390.8 206.75 390.6 207.35 L390.15 207.75 390.15 207.8 391.6 211.6 392.9 211.6 392.95 211.25 393.2 210.2 393.8 208.9 394.25 208.3 394.55 208.0 Q394.85 207.35 395.4 207.35 L395.8 207.15 396.05 207.0 396.85 206.25 397.05 206.0 397.8 205.35 Q396.75 205.15 396.85 203.2 L398.85 200.3 398.8 199.65 398.55 199.4 398.3 199.15 398.1 198.8 397.95 198.4 397.7 197.95 397.55 197.45 397.25 197.0 397.1 196.75 397.0 196.45 396.9 196.05 396.8 193.95 396.7 192.45 396.55 192.2 395.65 190.95 395.4 190.6 394.7 189.4 394.3 188.7 393.55 187.45 393.2 187.4 392.95 187.55 392.55 187.95 Q392.0 187.7 391.75 187.0 L391.55 186.6 391.35 186.3 391.2 185.85 Q391.1 185.7 390.8 185.7 L390.25 185.65 389.75 185.2 389.5 184.75 389.3 184.25 Q388.8 183.45 388.65 182.6 L388.1 180.75 387.45 178.9 387.0 177.65 386.85 177.15 Q386.5 177.1 386.3 177.4 L385.85 178.15 385.4 179.05 385.3 179.4 385.1 179.9 384.95 180.4 Q384.55 181.35 384.55 182.5 L384.65 184.25 384.75 184.75 384.9 185.85 384.85 186.75 384.8 187.45 384.65 187.95 384.4 188.95 384.1 191.1 384.05 191.45 Q383.85 192.55 383.9 193.7 L384.0 195.45 384.1 196.45 384.25 197.55 384.3 197.95 384.35 198.7 384.5 199.5 384.75 200.05 384.95 200.65 385.7 201.8 385.9 202.0 386.85 201.9 386.95 202.3 387.25 203.3 387.4 203.65 387.45 206.75 390.0 207.4 390.15 207.8 389.55 208.75 389.05 209.25 M392.05 189.35 Q391.6 189.3 391.2 189.0 L390.7 188.65 390.45 188.5 389.65 188.0 389.3 187.8 389.1 187.6 388.95 187.35 388.6 187.0 388.3 186.65 387.75 186.05 387.25 185.45 386.95 185.05 386.55 184.55 386.35 184.25 386.1 184.0 M387.95 188.7 L387.1 189.35 386.6 189.5 386.1 189.85 385.95 190.1 385.65 190.55 385.3 190.95 385.15 191.2 M394.7 192.3 Q396.5 193.0 396.5 194.85 396.5 196.7 394.9 198.0 393.3 199.3 391.05 199.3 388.8 199.3 387.2 198.0 385.6 196.7 385.6 194.75 385.6 192.8 387.2 191.55 388.8 190.3 390.85 190.95 L394.7 192.3 M395.65 199.3 L395.25 199.5 394.55 200.4 394.3 200.6 393.95 200.75 393.25 201.2 392.95 201.35 391.9 201.85 391.55 202.0 389.95 202.35 389.45 202.45 388.95 202.65 M397.8 205.35 L398.35 204.7 398.55 204.4 398.85 203.15 398.9 202.4 398.85 200.3 M387.45 206.75 L387.55 207.25 387.7 208.65 387.75 209.5 387.8 209.9 388.05 210.6 388.35 211.25 388.65 212.25 388.8 212.6 389.3 213.35 389.65 213.7 390.2 214.5 390.5 214.85 390.65 215.1 390.95 215.45 391.65 216.3 392.0 216.85 392.2 217.1 392.45 217.35 392.6 216.85 Q392.45 215.65 392.65 214.5 L392.7 213.75 392.8 212.1 392.9 211.6" fill="none" stroke="#000000" stroke-linecap="round" stroke-linejoin="round" stroke-opacity="0.5019608" stroke-width="1.0"/>
  </g>
</svg>
