<?xml version="1.0" encoding="UTF-8" standalone="no"?>
<svg xmlns:xlink="http://www.w3.org/1999/xlink" height="53.95px" width="38.1px" xmlns="http://www.w3.org/2000/svg">
  <g transform="matrix(1.0, 0.0, 0.0, 1.0, -380.8, -169.8)">
    <path d="M381.15 191.4 L381.15 191.15 Q381.2 182.35 381.9 178.25 L382.85 177.0 Q389.05 169.75 399.85 169.8 410.65 169.75 416.85 177.0 L417.8 178.25 Q418.5 182.35 418.55 191.15 L418.55 191.4 418.55 191.6 418.35 195.7 418.15 197.3 Q419.55 202.65 418.35 209.85 415.95 215.5 410.95 219.75 406.5 223.5 399.85 223.75 393.2 223.5 388.75 219.75 383.75 215.5 381.35 209.85 380.15 202.65 381.55 197.3 L381.35 195.7 381.15 191.6 381.15 191.4 M396.5 194.85 Q396.5 193.0 394.7 192.3 L390.85 190.95 Q388.8 190.3 387.2 191.55 385.6 192.8 385.6 194.75 385.6 196.7 387.2 198.0 388.8 199.3 391.05 199.3 393.3 199.3 394.9 198.0 396.5 196.7 396.5 194.85 M408.85 190.95 L405.0 192.3 Q403.2 193.0 403.2 194.85 403.2 196.7 404.8 198.0 406.4 199.3 408.65 199.3 410.9 199.3 412.5 198.0 414.1 196.7 414.1 194.75 414.1 192.8 412.5 191.55 410.9 190.3 408.85 190.95 M399.85 198.8 L396.85 203.2 Q396.7 206.55 399.85 204.7 403.0 206.55 402.85 203.2 L399.85 198.8" fill="#000000" fill-rule="evenodd" stroke="none"/>
  </g>
</svg>
