<?xml version="1.0" encoding="UTF-8" standalone="no"?>
<svg xmlns:xlink="http://www.w3.org/1999/xlink" height="52.15px" width="37.4px" xmlns="http://www.w3.org/2000/svg">
  <g transform="matrix(1.0, 0.0, 0.0, 1.0, -381.15, -169.8)">
    <path d="M399.85 169.8 Q410.65 169.75 416.85 177.0 L417.8 178.25 Q418.5 182.35 418.55 191.15 L418.55 191.4 418.55 191.6 418.35 195.7 417.7 199.85 Q415.7 206.6 409.7 207.4 L408.1 211.6 408.2 218.95 405.75 221.35 399.85 221.95 393.95 221.35 391.55 218.95 391.6 211.6 390.0 207.4 Q383.95 206.6 382.0 199.75 L381.35 195.7 381.15 191.6 381.15 191.4 381.15 191.15 Q381.2 182.35 381.9 178.25 L382.85 177.0 Q389.05 169.75 399.85 169.8" fill="#000000" fill-rule="evenodd" stroke="none"/>
  </g>
</svg>
