<?xml version="1.0" encoding="UTF-8" standalone="no"?>
<svg xmlns:xlink="http://www.w3.org/1999/xlink" height="75.35px" width="49.85px" xmlns="http://www.w3.org/2000/svg">
  <g transform="matrix(1.0, 0.0, 0.0, 1.0, 25.05, 144.1)">
    <path d="M19.25 -120.65 L18.95 -120.4 18.9 -120.6 19.25 -120.65 M14.25 -101.05 Q14.65 -100.65 15.2 -100.5 L15.05 -99.95 Q14.5 -100.4 14.25 -101.05 M-19.15 -120.6 L-19.2 -120.4 -19.45 -120.65 -19.15 -120.6 M-15.4 -100.45 L-14.5 -101.0 Q-14.75 -100.4 -15.3 -99.95 L-15.4 -100.45" fill="#7f7f7f" fill-rule="evenodd" stroke="none"/>
    <path d="M13.9 -84.55 L13.45 -83.85 13.05 -83.85 Q12.8 -83.55 11.75 -83.6 10.6 -83.6 10.2 -83.2 L10.1 -83.3 10.8 -83.85 Q12.35 -84.95 13.05 -84.95 13.9 -84.95 13.9 -84.55 M-13.7 -83.85 L-14.15 -84.55 Q-14.15 -84.9 -13.3 -84.9 -12.6 -84.9 -11.05 -83.8 L-10.35 -83.3 -10.45 -83.2 -12.0 -83.55 Q-13.05 -83.55 -13.3 -83.85 L-13.7 -83.85" fill="#606060" fill-rule="evenodd" stroke="none"/>
    <path d="M19.9 -135.55 L22.5 -144.1 24.45 -136.35 Q25.45 -131.9 23.7 -127.7 22.1 -123.8 19.25 -120.65 L20.75 -131.35 20.1 -135.5 19.9 -135.55 M8.75 -128.5 L10.45 -126.8 10.95 -125.35 11.25 -124.6 Q12.6 -121.3 15.65 -119.4 L16.95 -119.05 13.65 -119.05 10.6 -121.4 9.65 -124.8 8.75 -128.5 M7.25 -116.0 L8.9 -115.25 11.3 -113.75 9.0 -113.75 8.6 -113.0 7.7 -111.75 6.2 -110.7 5.7 -111.75 7.15 -113.35 8.05 -114.6 7.25 -116.0 M8.15 -107.05 Q9.5 -106.25 10.7 -105.25 L12.35 -103.65 11.4 -103.65 11.3 -102.3 Q11.0 -100.9 10.4 -99.65 L8.5 -96.35 4.95 -95.1 -0.1 -94.0 -0.15 -94.0 -5.2 -95.1 -8.75 -96.35 -10.65 -99.6 -11.55 -102.3 -11.65 -103.6 -12.6 -103.6 -10.95 -105.25 -8.35 -107.0 -10.55 -103.35 -10.3 -102.05 -9.75 -100.25 Q-9.25 -98.65 -8.0 -97.5 -6.75 -96.25 -5.05 -95.8 L-1.7 -95.35 -0.15 -95.5 -0.15 -95.55 1.45 -95.4 4.8 -95.8 Q6.5 -96.3 7.75 -97.5 9.0 -98.7 9.5 -100.3 L10.05 -102.05 10.3 -103.35 8.15 -107.05 M-6.4 -110.7 L-7.95 -111.75 -8.85 -112.95 -9.25 -113.75 -11.55 -113.75 -7.5 -116.0 -8.3 -114.6 -7.4 -113.3 -5.9 -111.7 -6.4 -110.7 M-2.85 -124.7 L-3.5 -125.75 Q-4.9 -128.0 -5.95 -130.45 L-4.35 -130.95 -0.55 -131.35 -2.85 -124.7 M0.35 -131.35 L4.1 -131.0 5.75 -130.45 3.25 -125.75 2.6 -124.75 0.35 -131.35 M16.2 -112.3 L19.55 -112.95 20.65 -113.1 20.85 -113.2 19.55 -118.3 22.95 -111.85 19.4 -111.75 16.9 -111.15 15.0 -110.2 12.15 -107.95 11.7 -108.3 13.5 -110.6 Q14.65 -111.85 16.2 -112.3 M15.9 -130.8 L16.2 -131.4 15.45 -128.3 16.05 -123.8 8.25 -129.65 11.55 -128.65 13.35 -128.65 15.9 -130.8 M19.7 -105.85 Q18.1 -105.35 17.05 -103.95 L14.8 -101.6 14.15 -101.2 13.6 -101.05 12.9 -101.15 12.9 -101.2 14.4 -102.2 17.15 -106.15 18.15 -107.15 19.75 -108.2 22.05 -108.1 23.3 -107.7 23.55 -107.6 22.65 -105.7 Q22.25 -105.15 21.55 -105.1 L21.3 -105.25 20.95 -105.5 19.7 -105.85 M14.85 -94.55 L15.05 -96.35 Q15.25 -95.2 16.6 -92.65 L17.25 -91.15 15.25 -93.2 14.85 -94.55 M13.45 -92.65 L18.15 -87.6 18.9 -87.65 18.9 -87.3 18.9 -86.8 18.9 -85.9 14.1 -90.75 13.45 -92.65 M2.25 -89.75 L0.05 -89.35 -0.3 -89.35 -2.5 -89.75 -9.25 -92.9 Q-6.9 -93.05 -4.75 -91.85 -2.5 -90.65 -1.25 -90.65 L-0.15 -90.65 -0.15 -90.7 1.0 -90.7 Q2.25 -90.7 4.5 -91.9 6.65 -93.05 9.0 -92.95 L2.25 -89.75 M14.0 -88.35 Q14.85 -88.35 15.5 -87.45 16.15 -86.55 16.15 -85.5 16.15 -82.95 13.8 -82.35 L11.2 -81.95 13.5 -83.55 13.6 -83.65 14.65 -84.35 14.65 -85.4 14.0 -86.55 12.85 -87.1 10.15 -86.6 10.1 -86.6 6.7 -85.4 Q7.35 -85.95 9.9 -87.1 L9.95 -87.1 Q12.8 -88.35 14.0 -88.35 M12.25 -90.7 L12.3 -90.5 9.8 -89.85 3.85 -86.1 -0.15 -85.65 -4.1 -86.1 -10.05 -89.85 -12.55 -90.5 -12.5 -90.65 -10.3 -90.7 -9.85 -90.55 -9.75 -90.55 -8.2 -89.8 Q-4.8 -88.15 -0.15 -87.95 L-0.15 -88.0 -0.1 -88.0 Q4.55 -88.2 7.95 -89.85 L9.5 -90.55 9.6 -90.6 10.05 -90.75 12.25 -90.7 M9.7 -71.9 Q6.75 -69.9 3.25 -69.15 L2.85 -69.05 1.5 -68.75 -1.85 -68.75 -3.1 -69.0 -3.5 -69.15 Q-7.0 -69.9 -9.9 -71.9 L-9.8 -72.05 Q-6.75 -70.85 -3.5 -70.8 L-2.0 -70.8 -1.85 -70.8 1.5 -70.8 1.75 -70.8 3.25 -70.85 Q6.5 -70.85 9.55 -72.05 L9.7 -71.9 M-16.45 -131.35 L-16.15 -130.8 -13.6 -128.65 -11.8 -128.65 -8.5 -129.65 -16.3 -123.8 -15.7 -128.25 -16.45 -131.35 M-19.45 -120.65 Q-22.35 -123.75 -23.95 -127.65 -25.7 -131.85 -24.7 -136.3 L-22.7 -144.1 -20.15 -135.5 -20.35 -135.45 -21.0 -131.35 -19.45 -120.65 M-11.5 -124.55 L-11.2 -125.35 -10.7 -126.75 -9.0 -128.5 -9.9 -124.75 -10.85 -121.4 -13.9 -119.0 -17.2 -119.0 -15.85 -119.35 Q-12.85 -121.25 -11.5 -124.55 M-20.9 -113.1 L-19.8 -112.9 -16.45 -112.3 Q-14.9 -111.85 -13.75 -110.55 L-11.95 -108.3 -12.4 -107.95 -15.25 -110.2 -17.15 -111.15 -19.65 -111.7 -23.2 -111.85 -19.8 -118.3 -19.8 -118.25 -21.1 -113.2 -20.9 -113.1 M-21.55 -105.25 L-21.8 -105.05 Q-22.5 -105.1 -22.9 -105.7 L-23.8 -107.6 -23.55 -107.65 -22.3 -108.05 -20.0 -108.2 -18.4 -107.1 -17.4 -106.1 -14.65 -102.2 -13.15 -101.2 -13.15 -101.1 -13.85 -101.0 -14.4 -101.2 -15.05 -101.6 -17.3 -103.95 Q-18.35 -105.3 -19.95 -105.85 L-21.2 -105.45 -21.55 -105.25 M-16.85 -92.65 Q-15.5 -95.2 -15.3 -96.35 L-15.1 -94.5 -15.5 -93.15 -17.5 -91.15 -16.85 -92.65 M-19.15 -87.65 L-18.4 -87.6 -13.7 -92.65 -14.35 -90.75 -19.15 -85.85 -19.15 -86.8 -19.15 -87.3 -19.15 -87.65 M-14.25 -88.35 Q-13.05 -88.35 -10.2 -87.1 L-10.15 -87.05 Q-7.6 -85.95 -6.95 -85.35 L-10.35 -86.6 -10.4 -86.6 -13.1 -87.1 -14.25 -86.55 -14.9 -85.4 -14.9 -84.35 -13.85 -83.6 -13.75 -83.55 -11.45 -81.95 -14.05 -82.3 Q-16.4 -82.95 -16.4 -85.5 -16.4 -86.55 -15.75 -87.4 -15.1 -88.35 -14.25 -88.35" fill="#000000" fill-opacity="0.2509804" fill-rule="evenodd" stroke="none"/>
    <path d="M19.9 -135.55 L20.1 -135.5 20.75 -131.35 19.25 -120.65 18.9 -120.6 Q18.1 -123.55 17.75 -126.6 L17.6 -127.95 19.9 -135.55 M2.6 -124.75 L2.85 -124.05 7.25 -116.0 8.05 -114.6 7.15 -113.35 5.7 -111.75 6.2 -110.7 8.15 -107.05 10.3 -103.35 10.05 -102.05 9.5 -100.3 Q9.0 -98.7 7.75 -97.5 6.5 -96.3 4.8 -95.8 L1.45 -95.4 -0.15 -95.55 -0.15 -95.5 -1.7 -95.35 -5.05 -95.8 Q-6.75 -96.25 -8.0 -97.5 -9.25 -98.65 -9.75 -100.25 L-10.3 -102.05 -10.55 -103.35 -8.35 -107.0 -6.4 -110.7 -5.9 -111.7 -7.4 -113.3 -8.3 -114.6 -7.5 -116.0 -3.1 -124.05 -2.85 -124.7 -0.55 -131.35 -0.1 -132.65 0.35 -131.35 2.6 -124.75 M15.2 -100.5 L15.65 -100.35 16.55 -100.4 Q17.15 -100.6 17.7 -100.95 L18.25 -101.4 Q19.5 -102.65 19.6 -104.4 L19.7 -105.1 19.75 -105.65 19.7 -105.85 20.95 -105.5 21.3 -105.25 Q22.05 -103.6 22.4 -101.85 22.7 -100.1 22.25 -98.5 L21.85 -97.15 21.65 -96.45 19.3 -96.0 17.65 -96.45 Q16.75 -96.8 16.05 -97.5 L14.6 -99.3 13.6 -101.05 14.15 -101.2 14.25 -101.05 Q14.5 -100.4 15.05 -99.95 L15.2 -100.5 M-20.15 -135.5 L-17.85 -127.9 -18.0 -126.55 Q-18.35 -123.55 -19.15 -120.6 L-19.45 -120.65 -21.0 -131.35 -20.35 -135.45 -20.15 -135.5 M-21.55 -105.25 L-21.2 -105.45 -19.95 -105.85 -20.0 -105.6 -19.9 -105.05 -19.85 -104.4 Q-19.75 -102.65 -18.5 -101.4 L-17.95 -100.9 -16.8 -100.4 -15.85 -100.35 -15.4 -100.45 -15.3 -99.95 Q-14.75 -100.4 -14.5 -101.0 L-14.4 -101.2 -13.85 -101.0 -14.85 -99.25 -16.3 -97.5 Q-17.0 -96.8 -17.9 -96.45 L-19.55 -96.0 -21.9 -96.45 -22.1 -97.1 -22.5 -98.45 Q-22.95 -100.1 -22.6 -101.85 L-21.55 -105.25" fill="#000000" fill-opacity="0.49803922" fill-rule="evenodd" stroke="none"/>
  </g>
</svg>
