<?xml version="1.0" encoding="UTF-8" standalone="no"?>
<svg xmlns:xlink="http://www.w3.org/1999/xlink" height="47.3px" width="59.95px" xmlns="http://www.w3.org/2000/svg">
  <g transform="matrix(1.0, 0.0, 0.0, 1.0, 29.55, 127.7)">
    <path d="M26.0 -126.55 Q31.1 -123.6 30.3 -115.65 L27.1 -115.65 29.4 -111.9 Q26.3 -104.75 22.05 -104.8 L22.05 -104.95 Q22.35 -108.8 21.5 -112.6 L21.45 -112.75 Q20.6 -122.6 25.5 -126.8 L26.0 -126.55 M14.35 -99.3 Q14.35 -100.2 13.8 -100.9 13.25 -101.55 12.2 -101.6 11.1 -101.65 9.7 -100.95 8.35 -100.3 7.8 -99.15 7.25 -98.2 7.5 -97.45 L7.65 -97.2 7.25 -97.6 Q4.8 -100.2 4.8 -103.85 L4.95 -103.65 Q6.15 -102.4 7.35 -103.45 12.65 -106.75 15.8 -106.05 L15.8 -105.95 Q16.35 -101.65 14.25 -98.65 L14.35 -99.3 M-24.05 -127.6 L-23.9 -127.7 Q-19.05 -123.2 -20.4 -113.15 -21.5 -109.3 -21.2 -105.4 L-21.2 -105.35 Q-22.8 -105.35 -24.25 -106.35 -26.6 -108.0 -28.55 -112.45 L-26.25 -116.2 -29.45 -116.2 -29.45 -116.35 Q-30.3 -124.95 -24.05 -127.6 M-6.65 -103.7 L-4.25 -103.75 -4.0 -104.05 Q-4.2 -100.35 -7.0 -97.65 L-6.85 -98.15 Q-6.85 -98.7 -7.15 -99.4 -7.75 -100.55 -9.1 -101.3 -10.4 -102.0 -11.45 -102.05 -12.55 -102.0 -13.15 -101.35 -13.75 -100.65 -13.75 -99.75 L-13.55 -99.0 -13.7 -99.2 Q-15.8 -102.2 -15.2 -106.55 -11.95 -107.35 -6.65 -103.7" fill="#000000" fill-opacity="0.2509804" fill-rule="evenodd" stroke="none"/>
    <path d="M0.05 -85.1 Q2.0 -84.65 2.75 -82.6 2.7 -80.8 -0.05 -80.4 -2.8 -80.85 -2.75 -82.65 -1.9 -84.7 0.05 -85.1" fill="#000000" fill-rule="evenodd" stroke="none"/>
  </g>
</svg>
