<?xml version="1.0" encoding="UTF-8" standalone="no"?>
<svg xmlns:xlink="http://www.w3.org/1999/xlink" height="56.1px" width="71.05px" xmlns="http://www.w3.org/2000/svg">
  <g transform="matrix(1.0, 0.0, 0.0, 1.0, -364.5, -172.75)">
    <path d="M416.65 184.1 L416.45 182.9 Q415.2 182.7 413.6 184.5 L412.55 185.9 412.55 185.95 Q411.45 187.55 411.15 189.2 L411.05 189.65 411.05 190.9 411.7 190.9 Q415.25 190.5 416.2 188.6 416.65 187.6 416.65 184.1 M383.6 182.95 L383.4 184.1 Q383.4 187.6 383.85 188.6 384.8 190.55 388.35 190.9 L389.0 190.9 389.0 189.65 388.9 189.2 Q388.6 187.6 387.55 185.95 L387.5 185.95 387.5 185.9 386.45 184.5 Q384.85 182.75 383.6 182.95 M381.0 180.4 L382.1 179.55 Q386.4 176.1 391.65 174.45 395.65 173.15 400.1 172.75 404.35 173.15 408.4 174.4 413.65 176.05 417.95 179.55 L419.45 180.65 Q432.05 190.3 435.55 205.6 430.35 194.2 420.75 190.2 417.05 191.0 416.1 193.35 L415.55 194.5 Q413.35 211.95 418.85 228.85 L381.15 228.85 Q386.65 211.95 384.5 194.5 L383.95 193.35 Q383.0 191.0 379.3 190.25 369.7 194.2 364.5 205.6 368.05 190.1 381.0 180.4" fill="#000000" fill-rule="evenodd" stroke="none"/>
  </g>
</svg>
