<?xml version="1.0" encoding="UTF-8" standalone="no"?>
<svg xmlns:xlink="http://www.w3.org/1999/xlink" height="4.45px" width="33.3px" xmlns="http://www.w3.org/2000/svg">
  <g transform="matrix(1.0, 0.0, 0.0, 1.0, -383.2, -178.95)">
    <path d="M384.6 182.55 Q383.5 181.7 383.25 180.5 383.0 179.25 384.0 179.2 L386.35 178.95 Q387.75 178.8 388.5 179.7 L389.7 181.2 Q390.15 181.85 389.2 182.6 388.3 183.4 386.95 183.4 385.65 183.4 384.6 182.55 M413.35 178.95 L415.7 179.2 Q416.7 179.25 416.45 180.5 416.2 181.7 415.1 182.55 414.05 183.4 412.75 183.4 411.4 183.4 410.5 182.6 409.55 181.85 410.0 181.2 L411.2 179.7 Q411.95 178.8 413.35 178.95" fill="#000000" fill-rule="evenodd" stroke="none"/>
  </g>
</svg>
