<?xml version="1.0" encoding="UTF-8" standalone="no"?>
<svg xmlns:xlink="http://www.w3.org/1999/xlink" height="53.05px" width="37.9px" xmlns="http://www.w3.org/2000/svg">
  <g transform="matrix(1.0, 0.0, 0.0, 1.0, -380.85, -159.7)">
    <path d="M382.15 171.25 Q385.5 160.8 399.8 160.2 414.1 160.8 417.45 171.25 418.9 177.95 417.8 185.8 L417.35 188.6 417.05 190.0 416.9 190.65 416.9 190.7 414.0 201.25 410.1 205.05 Q406.6 208.35 401.8 211.75 L399.8 212.25 397.8 211.75 Q393.0 208.35 389.5 205.05 L385.6 201.25 382.7 190.7 382.7 190.65 382.55 190.0 382.25 188.6 381.8 185.8 Q380.7 177.95 382.15 171.25 Z" fill="none" stroke="#000000" stroke-linecap="round" stroke-linejoin="round" stroke-width="1.0"/>
  </g>
</svg>
