<?xml version="1.0" encoding="UTF-8" standalone="no"?>
<svg xmlns:xlink="http://www.w3.org/1999/xlink" height="120.15px" width="191.95px" xmlns="http://www.w3.org/2000/svg">
  <g transform="matrix(1.0, 0.0, 0.0, 1.0, -304.0, -101.75)">
    <path d="M425.75 165.55 L429.0 163.45 434.05 162.15 446.9 162.15 450.3 163.65 451.95 163.65 456.15 161.25 456.65 161.3 457.1 161.3 464.4 161.65 Q471.85 162.1 479.2 161.35 L480.5 161.15 Q483.15 160.25 485.15 158.3 L486.15 158.5 486.65 158.55 Q490.4 158.85 492.85 156.0 496.5 151.85 495.0 146.6 494.35 144.35 492.3 143.75 L491.95 144.05 491.8 144.2 Q491.45 144.85 491.6 145.6 492.15 148.55 490.85 151.1 490.45 151.9 489.55 152.1 L487.95 152.05 Q487.65 149.2 489.6 144.85 L490.6 141.45 490.0 138.5 486.65 132.25 483.45 129.0 475.75 124.95 474.55 125.4 474.55 126.8 478.3 131.35 Q487.05 148.7 472.85 151.75 L468.6 151.75 468.6 150.7 469.3 149.65 469.65 149.1 Q471.5 145.8 470.9 142.4 L470.15 139.95 Q468.55 136.2 466.1 132.85 L465.8 132.45 Q468.7 127.9 468.0 122.6 467.6 119.5 465.7 117.05 462.8 113.35 458.9 110.65 L457.2 111.45 462.5 118.9 460.4 126.8 444.15 115.0 444.15 102.85 443.35 102.25 442.15 102.25 441.75 102.95 Q440.65 104.55 438.25 108.8 435.9 113.05 443.95 120.4 452.0 127.75 456.15 132.85 L458.4 135.4 460.1 138.3 460.8 141.55 460.2 143.95 456.35 148.4 454.05 146.2 453.25 144.45 450.8 142.45 448.5 142.05 448.1 143.35 450.7 147.8 450.7 153.8 441.6 155.1 Q441.6 153.0 443.5 149.7 445.4 146.35 443.35 143.6 L438.4 137.2 Q435.55 133.6 428.8 131.95 L428.7 131.95 428.15 131.95 428.05 133.45 428.25 133.7 Q432.7 137.25 434.8 140.15 436.85 143.05 436.45 146.45 436.05 149.85 432.3 154.65 L420.4 159.05 420.35 159.05 M425.75 165.55 L425.85 166.65 Q425.8 167.45 424.95 168.0 L422.05 169.65 419.25 171.35 420.1 171.45 Q423.4 171.45 425.85 170.5 L427.1 169.95 Q430.8 168.05 434.15 167.4 436.45 167.65 438.3 166.7 439.1 165.75 442.15 164.6 L443.25 164.4 Q444.35 164.7 441.9 168.35 438.7 173.25 433.75 176.75 432.75 177.4 431.65 177.75 L429.0 178.1 Q423.1 177.7 417.7 175.3 L417.65 175.25 417.65 175.35 418.65 177.3 418.85 177.75 420.1 180.7 Q420.1 181.7 419.25 182.7 L418.65 183.3 418.55 183.4 418.55 183.65 418.65 184.45 418.65 184.5 419.15 186.45 419.2 186.6 419.2 186.7 419.3 186.85 Q419.95 188.25 420.0 189.75 L420.0 190.05 419.9 191.35 Q419.9 192.05 418.2 194.15 L418.15 194.25 M367.65 154.65 Q363.9 149.85 363.5 146.45 363.05 143.05 365.15 140.15 367.2 137.25 371.65 133.7 L371.9 133.45 371.8 131.95 371.15 131.95 Q364.35 133.6 361.55 137.2 L356.6 143.6 Q354.55 146.35 356.45 149.7 358.35 153.0 358.35 155.1 L349.25 153.8 349.25 147.8 351.8 143.35 351.4 142.05 349.15 142.45 346.65 144.45 345.85 146.2 343.6 148.4 339.75 143.95 339.15 141.55 339.85 138.3 341.5 135.4 343.8 132.85 Q347.9 127.75 356.0 120.4 364.0 113.05 361.65 108.8 359.3 104.55 358.15 102.95 L357.8 102.25 356.6 102.25 355.8 102.85 355.8 115.0 339.55 126.8 337.45 118.9 342.55 111.7 342.7 111.45 341.0 110.65 Q337.15 113.35 334.25 117.05 332.35 119.5 331.95 122.6 331.25 127.9 334.15 132.45 L333.85 132.85 Q331.4 136.2 329.75 139.95 329.25 141.15 329.05 142.4 328.45 145.8 330.25 149.1 L330.6 149.65 331.3 150.7 331.3 151.75 327.05 151.75 Q312.85 148.7 321.65 131.35 L325.4 126.8 325.4 125.4 324.2 124.95 316.45 129.0 313.3 132.25 309.95 138.5 309.35 141.45 310.3 144.85 Q312.3 149.2 312.0 152.05 L310.35 152.1 Q309.5 151.9 309.1 151.1 307.8 148.55 308.35 145.6 308.5 144.85 308.1 144.2 L307.95 144.05 307.65 143.75 Q305.6 144.35 304.95 146.6 303.45 151.85 307.05 156.0 309.55 158.85 313.3 158.55 L313.75 158.5 314.75 158.3 Q316.8 160.25 319.4 161.15 L320.7 161.35 Q328.1 162.1 335.5 161.65 L342.85 161.3 343.3 161.3 343.8 161.25 347.95 163.65 349.65 163.65 353.0 162.15 365.9 162.15 370.95 163.45 374.2 165.55 374.1 166.65 Q374.1 167.45 375.0 168.0 L377.85 169.65 380.2 171.0 380.4 171.15 380.55 171.3 380.65 171.35 380.65 171.4 380.6 171.4 380.5 171.4 380.2 171.45 379.85 171.45 Q376.55 171.45 374.05 170.5 L372.85 169.95 Q369.1 168.05 365.8 167.4 363.45 167.65 361.6 166.7 360.85 165.75 357.8 164.6 L356.7 164.4 Q355.6 164.7 358.0 168.35 361.25 173.25 366.2 176.75 367.2 177.4 368.3 177.75 L370.9 178.1 Q376.8 177.7 382.25 175.3 L382.3 175.25 382.7 174.25 382.65 173.2 381.25 171.85 380.65 171.35 M367.65 154.65 L379.6 159.05 379.55 158.95 380.55 158.2 380.85 158.2 381.75 159.15 384.45 161.4 385.25 161.9 387.4 163.0 387.65 162.55 Q390.25 160.6 393.25 159.6 395.3 158.9 397.55 158.65 402.5 157.95 407.2 159.65 L408.45 160.15 Q410.2 160.9 411.8 162.0 L412.05 162.15 412.1 162.15 412.6 162.55 413.0 162.8 414.7 161.9 415.35 161.5 418.15 159.15 419.1 158.2 419.35 158.2 420.4 158.95 420.35 159.05 M387.4 163.0 L387.45 163.05 388.75 163.55 M382.3 175.25 L382.3 175.35 381.3 177.3 381.1 177.75 Q379.85 180.2 379.85 180.7 379.85 181.7 380.7 182.7 L381.4 183.4 381.5 183.45 382.5 183.85 M381.4 183.4 Q381.35 185.15 380.75 186.6 L380.7 186.7 380.65 186.85 Q379.95 188.4 379.95 190.05 L380.05 191.35 Q380.05 192.0 381.6 194.0 M383.6 174.2 L382.65 173.2 M412.6 162.55 L412.1 162.2 411.8 162.0 M411.15 163.55 L412.45 163.05 412.5 163.05 412.55 163.0 413.0 162.8 M416.3 174.2 L417.25 173.2 418.7 171.85 419.25 171.35 M417.25 173.2 L417.2 174.25 417.65 175.25 M417.4 183.85 L418.0 183.7 418.4 183.45 418.55 183.4 M405.05 216.65 Q404.65 217.3 404.5 218.75 404.3 220.4 403.05 220.9 L403.0 219.9 402.75 219.05 402.75 219.1 Q402.0 220.95 401.35 221.4 L401.35 220.65 401.05 219.7 400.15 221.2 M394.9 216.6 Q395.25 217.2 395.45 218.75 395.65 220.4 396.85 220.9 L396.9 219.9 Q397.0 219.1 397.15 219.05 L397.15 219.1 Q397.95 220.95 398.6 221.4 L398.55 220.65 Q398.55 220.25 398.9 219.7 L399.75 221.2" fill="none" stroke="#000000" stroke-linecap="round" stroke-linejoin="round" stroke-width="1.0"/>
    <path d="M441.6 155.1 L432.3 154.65 M420.35 159.05 L419.9 159.65 421.65 164.4 421.7 164.5 425.75 165.55 M418.15 194.25 L416.25 195.9 416.15 195.95 413.4 197.1 Q411.2 198.15 410.6 198.65 M358.35 155.1 L367.65 154.65 M374.2 165.55 L378.25 164.5 380.05 159.65 379.6 159.05 M380.75 174.3 L379.95 174.3 377.05 174.65 375.75 175.45 372.75 175.55 Q368.65 175.25 365.25 172.35 363.6 170.9 362.35 169.1 360.0 168.6 359.35 167.5 M386.3 173.45 Q387.05 173.0 387.75 171.55 L388.35 170.05 Q389.15 167.75 389.15 166.5 M377.05 174.65 L375.45 174.7 375.15 174.7 Q373.85 174.55 372.85 173.75 368.15 170.1 362.35 169.1 M381.6 194.0 L381.7 194.15 383.6 195.85 383.8 195.95 Q384.6 196.2 386.5 197.1 L389.35 198.65 M385.2 188.8 L385.55 188.9 390.2 188.7 Q391.15 188.35 392.0 187.65 L390.2 187.85 Q388.95 187.8 388.3 187.2 387.15 186.2 387.05 185.45 L385.7 185.0 387.05 185.4 387.25 185.45 Q390.25 186.3 392.15 187.3 L392.2 187.35 392.7 187.25 393.15 186.9 393.45 186.5 393.5 186.15 M394.1 190.0 Q393.1 190.85 393.1 191.15 L393.15 191.3 Q393.25 191.9 394.1 192.4 L394.65 192.7 394.7 192.8 394.75 192.8 395.4 193.5 M394.7 192.8 Q394.7 193.75 393.45 195.5 392.85 196.35 392.55 197.2 392.25 198.0 392.2 198.75 L392.2 198.95 392.7 200.8 392.95 201.6 393.1 202.0 393.2 202.25 393.3 202.5 395.45 203.6 M394.9 216.6 L394.7 216.35 392.25 214.85 Q390.65 213.85 390.4 212.6 L390.3 212.6 389.7 212.15 389.45 211.6 Q390.3 211.5 390.15 210.5 390.15 209.95 389.4 209.1 388.65 208.25 388.65 206.85 L388.75 205.95 389.25 205.35 389.25 204.85 Q389.25 203.3 389.4 202.6 389.65 201.6 390.15 201.4 L390.2 201.4 389.85 200.35 389.65 198.65 389.65 198.6 389.55 195.65 Q389.55 195.2 390.2 193.9 390.85 192.55 391.6 191.95 L391.8 191.8 M404.05 187.35 L402.95 186.6 401.95 186.55 401.25 186.65 Q400.95 186.75 400.9 187.0 L400.25 188.45 M401.6 190.5 L401.75 190.2 402.15 189.75 Q402.8 189.2 403.25 189.2 L403.6 189.25 M395.9 187.35 Q396.55 186.7 397.0 186.6 L397.95 186.55 398.7 186.65 399.05 187.0 399.65 188.45 M396.25 189.3 L396.6 189.25 Q397.1 189.25 397.7 189.8 L398.1 190.25 398.3 190.5 M440.6 167.5 Q439.9 168.6 437.6 169.1 L434.65 172.35 Q431.3 175.25 427.2 175.55 L424.15 175.45 422.9 174.65 420.0 174.3 419.2 174.3 M413.65 173.45 Q412.9 173.0 412.2 171.55 L411.95 171.05 411.6 170.05 Q410.8 167.75 410.8 166.5 M437.6 169.1 Q431.8 170.1 427.1 173.75 426.1 174.55 424.8 174.7 L424.5 174.7 422.9 174.65 M414.75 188.8 L414.4 188.9 Q411.6 189.65 409.35 188.55 408.6 188.2 407.95 187.65 L409.35 187.85 Q410.85 187.9 411.65 187.2 412.75 186.25 412.85 185.5 L412.85 185.45 412.9 185.45 414.25 185.0 412.9 185.4 412.85 185.4 412.7 185.45 Q409.7 186.3 407.8 187.3 L407.75 187.3 407.7 187.35 407.25 187.25 406.8 186.9 406.5 186.5 406.4 186.15 M404.55 193.5 L405.2 192.8 405.3 192.7 405.85 192.4 Q406.7 191.9 406.8 191.3 L406.8 191.15 405.75 189.9 M408.1 191.8 L408.35 191.95 Q409.05 192.55 409.75 193.9 L410.4 195.65 410.3 198.6 410.1 200.35 409.8 201.4 Q410.3 201.6 410.5 202.6 L410.7 204.85 410.65 205.35 410.7 205.4 411.15 205.95 411.25 206.85 Q411.25 208.25 410.5 209.1 409.8 209.95 409.8 210.5 409.65 211.5 410.5 211.6 L410.25 212.15 409.65 212.6 409.55 212.6 Q409.25 213.85 407.65 214.85 L405.25 216.35 405.05 216.65 M404.5 203.6 L406.65 202.5 407.7 198.95 407.65 198.2 407.4 197.2 406.45 195.5 Q405.25 193.75 405.25 192.8 L405.3 192.7 M409.8 201.4 L409.4 201.3 Q409.3 201.3 409.1 201.45 408.25 201.7 406.65 202.5 M410.65 205.35 L410.65 205.4 Q410.6 206.5 410.05 207.2 L409.1 208.05 406.8 208.75 M404.85 207.25 L405.25 206.7 Q405.9 205.95 406.95 205.65 L408.8 205.5 M409.55 212.6 L407.7 211.8 402.55 211.6 401.65 211.6 400.05 211.5 398.3 211.6 398.25 211.6 397.35 211.6 392.2 211.8 390.4 212.6 M393.3 202.5 L393.1 202.4 392.95 202.35 392.65 202.2 392.1 201.95 390.85 201.45 390.55 201.3 390.2 201.4 M389.25 205.35 L389.25 205.4 Q389.35 206.5 389.85 207.2 L390.85 208.05 393.1 208.75 M391.15 205.5 L392.9 205.65 393.0 205.65 Q394.4 206.0 395.1 207.25 M403.25 212.8 L401.65 212.7 399.95 212.7 398.3 212.7 398.25 212.7 396.7 212.8" fill="none" stroke="#000000" stroke-linecap="round" stroke-linejoin="round" stroke-opacity="0.5019608" stroke-width="1.0"/>
  </g>
</svg>
