<?xml version="1.0" encoding="UTF-8" standalone="no"?>
<svg xmlns:xlink="http://www.w3.org/1999/xlink" height="81.85px" width="75.9px" xmlns="http://www.w3.org/2000/svg">
  <g transform="matrix(1.0, 0.0, 0.0, 1.0, -361.8, -138.6)">
    <path d="M383.05 145.3 L388.25 152.95 389.5 153.8 389.85 154.1 Q390.65 154.8 391.55 156.5 L393.05 158.35 Q394.95 159.9 397.25 160.25 L398.25 160.3 399.5 160.35 399.75 160.35 400.0 160.35 401.25 160.3 402.25 160.25 Q404.55 159.9 406.45 158.35 L407.95 156.5 Q408.85 154.8 409.65 154.1 L410.0 153.8 410.05 153.8 411.25 152.95 416.45 145.3 419.55 139.1 419.6 139.3 419.85 140.4 420.45 142.95 Q421.5 147.8 421.15 152.75 L420.95 156.95 421.45 158.0 421.45 158.1 421.9 160.15 421.95 160.4 421.95 161.1 Q423.45 160.6 425.4 161.6 L429.85 157.95 434.35 154.0 434.35 154.4 434.15 157.9 Q433.9 159.95 433.1 161.8 L430.15 167.4 430.15 167.75 429.8 169.65 429.6 170.25 429.45 170.85 430.4 172.05 434.5 170.5 436.95 169.5 437.2 169.35 437.15 169.55 435.95 172.45 434.25 175.3 432.45 177.3 432.45 177.75 432.2 179.55 432.0 179.65 434.8 179.35 435.05 179.3 435.05 179.4 Q434.3 183.75 430.65 186.35 L429.7 187.0 429.8 187.2 429.6 187.3 Q427.45 188.35 425.7 188.65 423.95 188.95 423.25 189.85 L421.3 192.35 421.15 192.45 Q420.45 195.45 421.5 197.9 L421.4 200.2 Q421.05 202.95 420.15 205.55 419.2 208.3 417.5 210.7 415.75 213.2 413.3 214.95 L413.2 215.0 413.15 215.05 Q410.15 217.15 406.65 218.3 L402.3 219.5 400.3 219.95 399.2 219.95 397.2 219.5 392.85 218.3 Q389.35 217.15 386.35 215.05 L386.3 215.0 386.2 214.95 Q383.75 213.2 382.0 210.7 380.3 208.3 379.35 205.55 378.45 202.95 378.1 200.2 L378.05 197.9 Q379.05 195.45 378.35 192.45 L378.25 192.35 376.3 189.85 Q375.55 188.95 373.8 188.65 372.05 188.35 369.95 187.3 L369.9 187.3 369.7 187.2 369.8 187.0 368.85 186.35 Q365.2 183.75 364.45 179.4 L364.45 179.3 364.7 179.35 367.5 179.65 367.3 179.55 367.05 177.75 367.05 177.3 365.25 175.3 Q364.25 173.95 363.55 172.45 L362.35 169.55 362.3 169.35 362.55 169.5 365.0 170.5 369.1 172.05 370.05 170.85 369.95 170.25 369.7 169.65 Q369.35 168.65 369.35 167.75 L369.35 167.4 Q367.7 164.65 366.4 161.8 365.6 159.95 365.35 157.9 L365.15 154.4 365.15 154.0 369.7 157.95 374.15 161.6 Q376.05 160.6 377.55 161.1 L377.6 160.4 377.6 160.15 Q377.7 159.1 378.05 158.1 L378.1 158.0 378.6 156.95 378.35 152.75 Q378.05 147.8 379.05 142.95 L379.65 140.4 379.9 139.3 379.95 139.1 383.05 145.3 M369.8 187.0 L369.95 187.3 M404.6 186.5 L403.8 186.9 M395.7 186.9 L394.95 186.5 M429.7 187.0 L429.6 187.3" fill="none" stroke="#000000" stroke-linecap="round" stroke-linejoin="round" stroke-opacity="0.8509804" stroke-width="1.0"/>
    <path d="M388.25 152.95 L385.9 153.15 Q384.25 153.35 382.85 153.9 380.4 154.85 378.6 156.95 M394.95 186.5 L393.9 187.15 Q392.45 187.7 391.15 186.45 L390.8 185.8 Q390.35 184.55 391.4 183.8 L391.35 183.75 Q389.3 183.5 387.5 184.7 387.2 184.85 386.9 185.1 386.05 185.95 384.85 186.1 L384.05 186.25 383.35 185.8 381.95 184.5 381.75 183.95 Q381.5 182.65 381.7 181.35 381.95 179.6 383.15 178.3 L383.7 177.85 Q384.35 177.35 385.1 177.1 L386.7 176.8 386.15 176.8 385.95 176.75 385.85 176.75 385.05 176.65 Q384.9 166.5 388.15 156.35 L388.15 156.3 388.25 156.05 388.5 155.2 388.55 155.3 Q390.75 165.95 394.4 174.15 L396.2 175.55 M374.15 161.6 L373.3 162.1 Q371.8 163.05 370.7 164.35 L370.65 164.4 Q370.1 165.1 369.8 165.9 369.5 166.6 369.35 167.4 M367.05 177.3 L367.65 175.05 367.7 174.95 368.6 172.9 369.1 172.05 M378.2 174.1 Q376.05 171.45 372.75 170.7 L372.0 170.55 M378.4 161.45 Q380.15 162.15 381.35 164.1 L383.4 167.7 M367.5 179.65 Q368.95 180.3 369.75 181.2 370.8 182.35 370.75 183.95 L370.6 184.9 370.1 186.4 369.8 187.0 M377.9 180.15 L374.3 180.45 371.3 180.1 M383.1 190.05 L382.75 190.6 Q381.95 191.6 379.8 192.85 M387.45 196.35 L387.0 195.55 386.05 195.5 Q383.85 195.5 382.8 197.2 L382.5 197.9 382.35 198.4 Q381.95 199.9 382.2 201.45 L382.3 201.95 M394.4 174.15 L394.15 174.5 393.85 174.75 393.55 175.0 390.8 176.25 389.9 176.5 389.2 176.65 390.95 176.6 391.65 176.65 393.9 177.25 394.6 177.6 396.45 178.6 Q397.9 179.45 399.2 180.45 L399.6 180.7 M399.9 180.7 L400.3 180.45 403.05 178.6 404.95 177.6 405.6 177.25 Q406.65 176.8 407.85 176.65 L408.55 176.6 410.3 176.65 409.6 176.5 408.7 176.25 Q407.25 175.8 405.95 175.0 L405.65 174.75 405.35 174.5 405.1 174.15 403.3 175.55 M389.2 176.65 L386.7 176.8 M398.65 187.3 L396.25 187.1 395.7 186.9 395.35 187.0 394.7 187.3 394.1 187.6 394.0 187.6 393.55 187.8 392.35 188.25 391.75 188.35 391.1 188.35 390.15 188.45 389.95 188.45 389.85 188.5 389.65 188.55 389.35 188.6 387.8 188.9 Q386.4 189.15 385.7 188.2 L385.5 187.9 M395.15 188.55 L392.65 189.3 392.1 189.45 390.6 189.9 387.1 190.8 Q386.25 190.8 385.9 190.5 L384.7 188.9 M395.5 196.85 L394.15 196.4 393.2 196.15 Q391.5 196.15 391.4 197.7 L391.4 197.9 391.5 198.4 391.7 199.15 392.35 200.0 Q393.35 200.8 394.55 200.6 M394.85 199.5 L393.55 198.95 393.2 198.6 393.1 197.95 393.1 197.9 Q393.15 197.65 393.45 197.65 L393.7 197.7 394.05 197.9 395.05 199.25 M403.8 186.9 L404.15 187.0 404.8 187.3 405.4 187.6 405.55 187.6 405.95 187.8 407.15 188.25 407.75 188.35 408.4 188.35 409.35 188.45 409.55 188.45 409.65 188.5 409.85 188.55 410.15 188.6 411.7 188.9 Q413.1 189.15 413.85 188.2 L414.0 187.9 M403.8 186.9 L403.25 187.1 400.85 187.3 M400.55 187.4 L400.55 187.35 399.65 184.0 399.0 187.35 398.95 187.4 398.8 187.9 397.9 190.6 397.9 190.7 397.85 190.75 397.85 190.8 396.9 192.9 396.45 193.7 396.75 194.05 396.85 194.25 Q398.0 195.65 399.75 196.1 401.5 195.65 402.65 194.25 L402.8 194.05 403.05 193.7 402.65 192.9 401.7 190.8 401.65 190.75 401.65 190.7 401.6 190.6 400.7 187.9 400.55 187.4 M394.95 186.5 L391.4 183.8 M389.55 196.65 Q389.0 193.55 396.3 190.05 M425.4 161.6 L426.2 162.1 Q427.7 163.05 428.8 164.35 L428.85 164.4 429.7 165.9 430.15 167.4 M421.3 174.1 Q423.5 171.45 426.8 170.7 L427.55 170.55 M430.4 172.05 L430.9 172.9 431.85 174.95 431.85 175.05 432.45 177.3 M411.25 152.95 L413.6 153.15 Q415.25 153.35 416.65 153.9 419.1 154.85 420.95 156.95 M410.3 176.65 L412.85 176.8 413.35 176.8 413.55 176.75 413.65 176.75 414.45 176.65 Q414.6 166.5 411.35 156.35 L411.35 156.3 411.3 156.05 411.0 155.2 410.95 155.3 Q408.75 165.95 405.1 174.15 M416.1 167.7 L418.15 164.1 Q419.35 162.15 421.15 161.45 M412.85 176.8 L414.4 177.1 Q415.15 177.35 415.8 177.85 L416.35 178.3 Q417.55 179.6 417.8 181.35 L417.75 183.95 417.55 184.5 416.2 185.8 415.45 186.25 414.65 186.1 Q413.45 185.95 412.6 185.1 L412.05 184.7 Q410.2 183.5 408.15 183.75 L408.1 183.8 Q409.15 184.55 408.7 185.8 L408.35 186.45 Q407.05 187.7 405.65 187.15 L404.6 186.5 408.1 183.8 M404.35 188.55 L406.85 189.3 407.4 189.45 407.45 189.45 408.95 189.9 412.4 190.8 413.6 190.5 414.8 188.9 M404.0 196.85 L405.35 196.4 406.3 196.15 Q408.05 196.15 408.1 197.7 L408.1 197.9 408.05 198.4 407.8 199.15 407.15 200.0 Q406.15 200.8 404.95 200.6 M404.65 199.5 L406.0 198.95 406.3 198.6 406.4 197.95 406.4 197.9 406.05 197.65 405.8 197.7 405.5 197.9 404.45 199.25 M412.05 196.35 Q412.2 195.7 412.5 195.55 L413.45 195.5 Q415.65 195.5 416.7 197.2 L417.0 197.9 417.15 198.4 Q417.55 199.9 417.3 201.45 L417.2 201.95 M419.7 192.85 Q417.55 191.6 416.75 190.6 L416.4 190.05 M428.2 180.1 L425.25 180.45 421.6 180.15 M429.7 187.0 L429.4 186.4 428.9 184.9 428.8 183.95 Q428.7 182.35 429.75 181.2 430.55 180.3 432.0 179.65 M409.95 196.65 Q410.5 193.55 403.2 190.05 M399.55 216.45 L398.45 216.1 396.1 215.4 391.0 214.0 Q387.25 212.85 387.35 211.4 L387.4 209.0 387.35 208.7 387.1 207.6 386.45 205.8 Q385.8 204.3 385.75 203.2 385.7 202.65 385.8 202.15 L386.2 201.25 387.2 200.15 Q387.7 199.85 389.6 200.8 L391.3 202.1 392.35 203.8 392.4 203.85 Q393.3 205.85 395.9 207.45 L397.75 208.55 Q398.45 208.95 399.7 209.15 L399.8 209.15 Q401.05 208.95 401.75 208.55 402.85 207.85 403.6 207.45 406.25 205.85 407.1 203.85 L407.15 203.8 Q407.55 202.8 408.2 202.1 408.9 201.3 409.95 200.8 411.85 199.85 412.3 200.15 L413.3 201.25 413.7 202.15 413.75 203.2 Q413.7 204.3 413.05 205.8 L412.4 207.6 412.15 208.7 412.1 209.0 412.15 211.4 Q412.25 212.85 408.5 214.0 L403.4 215.4 401.05 216.1 399.95 216.45 M412.4 207.6 Q412.0 206.55 411.15 205.85 L409.35 204.85 408.9 204.85 408.9 205.05 Q409.55 205.85 409.55 207.55 L409.3 209.65 Q407.95 208.35 407.1 208.4 L406.1 208.4 406.1 209.25 406.05 210.05 405.45 211.6 405.4 211.75 Q405.05 211.75 404.05 211.15 L402.75 210.2 401.95 212.65 400.65 211.7 399.85 213.05 Q399.3 212.7 398.85 211.7 L397.55 212.65 396.75 210.2 395.45 211.15 Q394.45 211.75 394.1 211.75 L394.05 211.6 393.45 210.05 Q393.35 209.8 393.4 209.25 L393.4 208.4 392.4 208.4 Q391.55 208.35 390.25 209.65 L389.95 207.55 Q389.95 205.85 390.6 205.05 L390.6 204.85 390.15 204.85 388.35 205.85 Q387.5 206.55 387.1 207.6 M415.9 206.55 Q415.05 207.1 414.7 208.25 L414.25 210.5 414.0 211.55 413.3 212.8 412.25 213.7 411.1 214.25 M383.65 206.55 Q384.45 207.1 384.8 208.25 L385.25 210.5 385.5 211.55 386.25 212.8 387.25 213.7 388.4 214.25" fill="none" stroke="#000000" stroke-linecap="round" stroke-linejoin="round" stroke-opacity="0.49803922" stroke-width="1.0"/>
  </g>
</svg>
