<?xml version="1.0" encoding="UTF-8" standalone="no"?>
<svg xmlns:xlink="http://www.w3.org/1999/xlink" height="75.35px" width="49.85px" xmlns="http://www.w3.org/2000/svg">
  <g transform="matrix(1.0, 0.0, 0.0, 1.0, 25.15, 153.8)">
    <path d="M19.15 -130.35 L18.85 -130.1 18.8 -130.3 19.15 -130.35 M14.15 -110.75 L15.1 -110.2 14.95 -109.65 Q14.4 -110.1 14.15 -110.75 M-19.25 -130.3 L-19.3 -130.1 -19.55 -130.35 -19.25 -130.3 M-15.5 -110.15 Q-15.0 -110.35 -14.6 -110.7 -14.85 -110.1 -15.4 -109.65 L-15.5 -110.15" fill="#7f7f7f" fill-rule="evenodd" stroke="none"/>
    <path d="M13.8 -94.25 L13.35 -93.55 12.95 -93.55 Q12.7 -93.25 11.65 -93.3 10.5 -93.3 10.1 -92.9 L10.0 -93.0 10.7 -93.55 Q12.25 -94.65 12.95 -94.65 13.8 -94.65 13.8 -94.25 M-14.25 -94.25 Q-14.25 -94.6 -13.4 -94.6 -12.7 -94.6 -11.15 -93.5 L-10.45 -93.0 -10.55 -92.9 Q-10.95 -93.3 -12.1 -93.25 -13.15 -93.25 -13.4 -93.55 L-13.8 -93.55 -14.25 -94.25" fill="#606060" fill-rule="evenodd" stroke="none"/>
    <path d="M19.8 -145.25 L22.4 -153.8 24.35 -146.05 Q25.35 -141.6 23.6 -137.4 22.0 -133.5 19.15 -130.35 L20.65 -141.05 20.0 -145.2 19.8 -145.25 M16.1 -141.1 L15.35 -138.0 15.95 -133.5 8.15 -139.35 11.45 -138.35 13.25 -138.35 15.8 -140.5 16.1 -141.1 M0.25 -141.05 L4.0 -140.7 5.65 -140.15 Q4.55 -137.7 3.15 -135.45 L2.5 -134.45 0.25 -141.05 M7.15 -125.7 L8.8 -124.95 11.2 -123.45 8.9 -123.45 8.5 -122.7 7.6 -121.45 6.1 -120.4 5.6 -121.45 7.05 -123.05 7.95 -124.3 7.15 -125.7 M8.05 -116.75 L10.6 -114.95 12.25 -113.35 11.3 -113.35 11.2 -112.0 10.3 -109.35 8.4 -106.05 4.85 -104.8 -0.2 -103.7 -0.25 -103.7 -5.3 -104.8 Q-7.1 -105.3 -8.85 -106.05 L-10.75 -109.3 -11.65 -112.0 -11.75 -113.3 -12.7 -113.3 -11.05 -114.95 -8.45 -116.7 -10.65 -113.05 -10.4 -111.75 -9.85 -109.95 Q-9.35 -108.35 -8.1 -107.2 -6.85 -105.95 -5.15 -105.5 L-1.8 -105.05 -0.25 -105.2 -0.25 -105.25 1.35 -105.1 4.7 -105.5 Q6.4 -106.0 7.65 -107.2 8.9 -108.4 9.4 -110.0 L9.95 -111.75 10.2 -113.05 8.05 -116.75 M-6.5 -120.4 L-8.05 -121.45 -8.95 -122.65 -9.35 -123.45 -11.65 -123.45 -7.6 -125.7 -8.4 -124.3 -7.5 -123.0 -6.0 -121.4 -6.5 -120.4 M-2.95 -134.4 L-3.6 -135.45 Q-5.0 -137.7 -6.05 -140.15 L-4.45 -140.65 -0.65 -141.05 -2.95 -134.4 M15.55 -129.1 L16.85 -128.75 13.55 -128.75 10.5 -131.1 9.55 -134.5 8.65 -138.2 10.35 -136.5 10.85 -135.05 11.15 -134.3 Q12.5 -131.0 15.55 -129.1 M16.1 -122.0 L19.45 -122.65 20.55 -122.8 20.75 -122.9 19.45 -128.0 22.85 -121.55 19.3 -121.45 16.8 -120.85 14.9 -119.9 12.05 -117.65 11.6 -118.0 13.4 -120.3 Q14.55 -121.55 16.1 -122.0 M19.6 -115.55 Q18.0 -115.05 16.95 -113.65 L14.7 -111.3 14.05 -110.9 13.5 -110.75 12.8 -110.85 12.8 -110.9 14.3 -111.9 17.05 -115.85 18.05 -116.85 19.65 -117.9 21.95 -117.8 23.2 -117.4 23.45 -117.3 22.55 -115.4 Q22.15 -114.85 21.45 -114.8 L21.2 -114.95 20.85 -115.2 19.6 -115.55 M9.5 -100.3 L9.95 -100.45 12.15 -100.4 12.2 -100.2 9.7 -99.55 3.75 -95.8 -0.25 -95.35 -4.2 -95.8 -10.15 -99.55 -12.65 -100.2 -12.6 -100.35 -10.4 -100.4 -9.95 -100.25 -9.85 -100.25 -8.3 -99.5 Q-4.9 -97.85 -0.25 -97.65 L-0.25 -97.7 -0.2 -97.7 Q4.45 -97.9 7.85 -99.55 L9.4 -100.25 9.5 -100.3 M0.9 -100.4 Q2.15 -100.4 4.4 -101.6 6.55 -102.75 8.9 -102.65 L2.15 -99.45 -0.05 -99.05 -0.4 -99.05 -2.6 -99.45 -9.35 -102.6 Q-7.0 -102.75 -4.85 -101.55 -2.6 -100.35 -1.35 -100.35 L-0.25 -100.35 -0.25 -100.4 0.9 -100.4 M15.15 -102.9 L14.75 -104.25 14.95 -106.05 Q15.15 -104.9 16.5 -102.35 L17.15 -100.85 15.15 -102.9 M13.35 -102.35 L18.05 -97.3 18.8 -97.35 18.8 -97.0 18.8 -96.5 18.8 -95.6 14.0 -100.45 13.35 -102.35 M15.4 -97.15 Q16.05 -96.25 16.05 -95.2 16.05 -92.65 13.7 -92.05 L11.1 -91.65 13.4 -93.25 13.5 -93.35 14.55 -94.05 14.55 -95.1 13.9 -96.25 12.75 -96.8 10.05 -96.3 10.0 -96.3 6.6 -95.1 Q7.25 -95.65 9.8 -96.8 L9.85 -96.8 Q12.7 -98.05 13.9 -98.05 14.75 -98.05 15.4 -97.15 M9.6 -81.6 Q6.65 -79.6 3.15 -78.85 L2.75 -78.75 1.4 -78.45 -1.95 -78.45 -3.2 -78.7 -3.6 -78.85 Q-7.1 -79.6 -10.0 -81.6 L-9.9 -81.75 Q-6.85 -80.55 -3.6 -80.5 L-2.1 -80.5 -1.95 -80.5 1.4 -80.5 1.65 -80.5 3.15 -80.55 Q6.4 -80.55 9.45 -81.75 L9.6 -81.6 M-19.55 -130.35 Q-22.45 -133.45 -24.05 -137.35 -25.8 -141.55 -24.8 -146.0 L-22.8 -153.8 -20.25 -145.2 -20.45 -145.15 -21.1 -141.05 -19.55 -130.35 M-11.6 -134.25 L-11.3 -135.05 -10.8 -136.45 -9.1 -138.2 -10.0 -134.45 -10.95 -131.1 -14.0 -128.7 -17.3 -128.7 -15.95 -129.05 Q-12.95 -130.95 -11.6 -134.25 M-16.25 -140.5 L-13.7 -138.35 -11.9 -138.35 -8.6 -139.35 -16.4 -133.5 -15.8 -137.95 -16.55 -141.05 -16.25 -140.5 M-19.9 -127.95 L-21.2 -122.9 -21.0 -122.8 -19.9 -122.6 -16.55 -122.0 Q-15.0 -121.55 -13.85 -120.25 L-12.05 -118.0 -12.5 -117.65 -15.35 -119.9 -17.25 -120.85 -19.75 -121.4 -23.3 -121.55 -19.9 -128.0 -19.9 -127.95 M-20.05 -115.55 Q-20.75 -115.6 -21.3 -115.15 L-21.65 -114.95 -21.9 -114.75 Q-22.6 -114.8 -23.0 -115.4 L-23.9 -117.3 -23.65 -117.35 -22.4 -117.75 -20.1 -117.9 -18.5 -116.8 -17.5 -115.8 -14.75 -111.9 -13.25 -110.9 -13.25 -110.8 -13.95 -110.7 -14.5 -110.9 Q-14.8 -111.0 -15.15 -111.3 L-17.4 -113.65 Q-18.45 -115.0 -20.05 -115.55 M-16.95 -102.35 Q-15.6 -104.9 -15.4 -106.05 L-15.2 -104.2 -15.6 -102.85 -17.6 -100.85 -16.95 -102.35 M-14.45 -100.45 L-19.25 -95.55 -19.25 -96.5 -19.25 -97.0 -19.25 -97.35 -18.5 -97.3 -13.8 -102.35 -14.45 -100.45 M-10.3 -96.8 L-10.25 -96.75 Q-7.7 -95.65 -7.05 -95.05 L-10.45 -96.3 -10.5 -96.3 -13.2 -96.8 -14.35 -96.25 -15.0 -95.1 -15.0 -94.05 -13.95 -93.3 -13.85 -93.25 -11.55 -91.65 -14.15 -92.0 Q-16.5 -92.65 -16.5 -95.2 -16.5 -96.25 -15.85 -97.1 -15.2 -98.05 -14.35 -98.05 -13.15 -98.05 -10.3 -96.8" fill="#000000" fill-opacity="0.2509804" fill-rule="evenodd" stroke="none"/>
    <path d="M19.8 -145.25 L20.0 -145.2 20.65 -141.05 19.15 -130.35 18.8 -130.3 Q18.0 -133.25 17.65 -136.3 L17.5 -137.65 19.8 -145.25 M2.5 -134.45 L2.75 -133.75 7.15 -125.7 7.95 -124.3 7.05 -123.05 5.6 -121.45 6.1 -120.4 8.05 -116.75 10.2 -113.05 9.95 -111.75 9.4 -110.0 Q8.9 -108.4 7.65 -107.2 6.4 -106.0 4.7 -105.5 L1.35 -105.1 -0.25 -105.25 -0.25 -105.2 -1.8 -105.05 -5.15 -105.5 Q-6.85 -105.95 -8.1 -107.2 -9.35 -108.35 -9.85 -109.95 L-10.4 -111.75 -10.65 -113.05 -8.45 -116.7 -6.5 -120.4 -6.0 -121.4 -7.5 -123.0 -8.4 -124.3 -7.6 -125.7 -3.2 -133.75 -2.95 -134.4 -0.65 -141.05 -0.2 -142.35 0.25 -141.05 2.5 -134.45 M14.05 -110.9 L14.15 -110.75 Q14.4 -110.1 14.95 -109.65 L15.1 -110.2 15.55 -110.05 16.45 -110.1 Q17.05 -110.3 17.6 -110.65 L18.15 -111.1 Q19.4 -112.35 19.5 -114.1 L19.6 -114.8 19.65 -115.35 19.6 -115.55 20.85 -115.2 21.2 -114.95 Q21.95 -113.3 22.3 -111.55 22.6 -109.8 22.15 -108.2 L21.75 -106.85 21.55 -106.15 19.2 -105.7 Q18.35 -105.85 17.55 -106.15 L15.95 -107.2 14.5 -109.0 13.5 -110.75 14.05 -110.9 M-20.25 -145.2 L-17.95 -137.6 -18.1 -136.25 Q-18.45 -133.25 -19.25 -130.3 L-19.55 -130.35 -21.1 -141.05 -20.45 -145.15 -20.25 -145.2 M-21.65 -114.95 L-21.3 -115.15 Q-20.75 -115.6 -20.05 -115.55 L-20.1 -115.3 -20.0 -114.75 -19.95 -114.1 Q-19.85 -112.35 -18.6 -111.1 L-18.05 -110.6 -16.9 -110.1 -15.95 -110.05 -15.5 -110.15 -15.4 -109.65 Q-14.85 -110.1 -14.6 -110.7 L-14.5 -110.9 -13.95 -110.7 -14.95 -108.95 Q-15.6 -108.0 -16.4 -107.2 L-18.0 -106.15 -19.65 -105.7 -22.0 -106.15 -22.2 -106.8 -22.6 -108.15 Q-23.05 -109.8 -22.7 -111.55 -22.4 -113.3 -21.65 -114.95" fill="#000000" fill-opacity="0.49803922" fill-rule="evenodd" stroke="none"/>
  </g>
</svg>
