<?xml version="1.0" encoding="UTF-8" standalone="no"?>
<svg xmlns:xlink="http://www.w3.org/1999/xlink" height="59.7px" width="51.1px" xmlns="http://www.w3.org/2000/svg">
  <g transform="matrix(1.0, 0.0, 0.0, 1.0, -373.55, -158.9)">
    <path d="M399.8 160.2 L401.1 160.3 404.85 161.2 406.9 161.8 407.4 162.0 409.35 162.85 411.05 164.05 411.05 164.0 411.2 163.9 411.9 163.15 411.95 163.1 414.55 161.25 415.1 160.85 415.15 160.85 Q417.45 159.5 419.2 159.05 L419.75 158.95 419.8 158.9 419.9 158.9 421.1 159.05 421.3 159.05 423.3 159.05 423.35 159.05 423.5 163.5 424.05 162.95 424.0 163.6 423.25 166.95 Q422.45 169.55 420.95 171.85 L419.7 173.15 418.9 173.75 Q418.0 174.6 417.85 175.8 L417.85 176.3 417.85 177.35 418.25 178.0 418.45 178.2 418.65 178.75 419.8 180.8 421.1 182.85 421.25 183.1 421.8 184.0 422.45 185.2 422.45 185.25 Q423.35 186.95 423.95 189.0 L423.95 189.05 424.55 191.3 424.55 191.35 424.65 191.5 424.5 191.35 424.5 191.3 422.8 189.45 423.3 191.15 423.45 191.6 423.75 193.85 Q423.85 196.8 423.25 198.1 L423.25 198.15 423.2 198.1 Q422.3 195.8 422.3 195.35 L420.4 201.25 420.4 201.3 420.35 201.25 420.05 198.2 420.05 198.05 419.95 198.15 419.45 199.8 418.4 201.65 418.05 202.1 417.9 202.1 417.85 200.9 416.75 203.0 Q415.9 204.9 415.15 205.65 L414.0 206.75 413.9 204.75 413.25 206.1 413.2 206.2 412.95 206.55 412.9 206.75 411.45 208.5 410.25 209.2 Q408.65 210.15 408.7 210.6 L408.3 210.9 408.25 211.0 408.2 213.3 Q408.15 215.5 407.25 216.65 L407.1 216.8 407.1 216.7 406.65 215.55 405.55 217.95 405.4 218.05 405.35 217.05 405.2 217.0 402.8 218.6 402.75 217.8 402.4 217.75 Q401.7 217.8 401.1 218.1 L399.3 218.4 397.1 218.05 395.75 217.75 395.4 217.8 395.4 218.55 392.95 217.0 392.8 217.05 392.75 218.0 392.65 217.95 Q392.35 217.7 391.5 215.55 L391.1 216.65 391.05 216.8 390.95 216.65 Q390.0 215.45 390.0 213.3 L389.9 210.95 389.9 210.9 389.5 210.55 Q389.5 210.15 387.95 209.2 L386.7 208.45 Q386.15 208.15 385.3 206.7 L385.2 206.55 384.95 206.15 384.95 206.05 384.3 204.7 384.2 206.75 383.05 205.65 Q382.25 204.85 381.4 203.0 L380.3 200.85 380.25 202.05 380.1 202.05 379.75 201.65 Q379.2 201.2 378.7 199.75 L378.2 198.15 378.15 198.0 378.15 198.2 377.8 201.2 375.9 195.35 374.95 198.05 Q374.3 196.75 374.4 193.85 L374.7 191.55 374.85 191.1 375.35 189.45 373.7 191.3 373.65 191.35 373.55 191.45 373.6 191.35 373.6 191.25 374.2 189.05 374.2 189.0 Q374.8 186.9 375.7 185.2 L376.35 184.0 376.95 183.05 377.05 182.85 378.35 180.75 379.5 178.75 379.5 178.7 379.75 178.15 379.9 177.95 380.3 177.3 380.35 176.25 380.35 175.75 Q380.2 174.55 379.3 173.7 L378.5 173.1 Q377.7 172.6 377.25 171.85 375.75 169.55 374.9 166.9 374.35 165.3 374.15 163.6 L374.15 163.55 374.1 162.9 374.65 163.5 374.85 159.0 374.9 159.0 377.1 159.0 378.3 158.9 378.45 158.9 378.95 159.05 Q380.7 159.45 383.05 160.85 L383.65 161.2 Q385.25 162.2 386.2 163.1 L386.25 163.1 387.0 163.85 387.1 164.0 Q388.0 163.3 388.85 162.85 L390.8 161.95 391.3 161.8 393.25 161.2 397.1 160.3 399.8 160.2 M387.4 182.65 Q387.05 183.5 387.05 183.8 387.0 185.45 387.85 186.1 L388.35 186.35 388.95 186.45 389.05 186.45 390.3 186.0 Q391.1 185.5 391.0 184.85 390.25 184.05 389.1 183.4 388.2 182.95 387.4 182.65 M393.55 197.7 L393.45 197.75 393.4 198.15 Q394.3 197.9 394.9 198.65 L395.7 199.9 Q396.3 201.15 398.45 201.25 L398.75 203.2 Q397.9 204.2 396.65 204.8 L395.1 205.4 392.7 205.75 392.5 205.75 392.15 205.75 392.15 205.8 392.05 206.7 Q391.95 209.35 392.85 211.05 L392.85 211.1 393.2 211.65 393.25 211.7 393.25 211.75 Q394.9 214.05 399.25 214.3 403.2 214.1 404.9 211.75 L404.95 211.75 404.95 211.7 405.3 211.15 405.35 211.1 405.35 211.05 Q406.2 209.35 406.1 206.75 L406.05 205.8 405.65 205.8 405.45 205.75 403.1 205.4 401.5 204.85 Q400.25 204.2 399.45 203.2 L399.7 201.3 Q401.85 201.15 402.5 199.95 L403.25 198.65 Q403.9 197.9 404.75 198.15 L404.75 197.8 404.6 197.75 403.15 197.35 402.3 197.4 401.1 197.8 399.5 198.6 398.65 198.6 397.1 197.75 395.85 197.4 395.05 197.3 393.65 197.65 393.55 197.7 M409.05 183.45 Q407.9 184.05 407.15 184.85 407.1 185.5 407.9 186.05 408.55 186.45 409.1 186.45 L409.8 186.35 410.4 186.05 411.0 184.95 411.1 183.8 410.75 182.65 Q409.95 182.95 409.05 183.45" fill="#000000" fill-rule="evenodd" stroke="none"/>
  </g>
</svg>
