<?xml version="1.0" encoding="UTF-8" standalone="no"?>
<svg xmlns:xlink="http://www.w3.org/1999/xlink" height="70.85px" width="28.75px" xmlns="http://www.w3.org/2000/svg">
  <g transform="matrix(1.0, 0.0, 0.0, 1.0, -224.3, -392.15)">
    <path d="M235.2 456.65 L235.0 455.8 Q236.2 456.35 236.3 457.6 236.7 461.05 231.45 462.55 L231.2 462.6 230.75 462.7 Q225.8 463.8 224.55 460.8 223.95 459.65 224.85 458.5 L225.05 459.35 Q226.7 461.15 230.15 460.5 L230.5 460.35 Q234.8 459.4 235.2 456.65 M237.1 395.15 L239.75 394.45 242.5 393.85 245.2 393.15 247.85 392.7 250.6 392.15 253.05 401.35 250.4 402.35 Q249.1 402.7 247.9 403.15 L245.2 403.95 242.55 404.75 239.9 405.55 237.35 406.15 234.5 406.85 231.95 407.4 229.1 407.95 226.55 398.4 229.25 397.5 231.8 396.7 234.5 395.8 237.1 395.15" fill="#ffffff" fill-rule="evenodd" stroke="none"/>
  </g>
</svg>
