<?xml version="1.0" encoding="UTF-8" standalone="no"?>
<svg xmlns:xlink="http://www.w3.org/1999/xlink" height="139.75px" width="285.6px" xmlns="http://www.w3.org/2000/svg">
  <g transform="matrix(1.0, 0.0, 0.0, 1.0, 263.0, -47.75)">
    <path d="M3.0 135.45 Q5.0 134.25 7.8 132.95 L9.6 135.6 5.95 138.95 4.25 137.1 3.0 135.45" fill="url(#gradient0)" fill-rule="evenodd" stroke="none"/>
    <path d="M3.0 135.45 L4.25 137.1 5.95 138.95 -0.7 157.2 -2.4 155.25 -3.65 153.65 3.0 135.45" fill="url(#gradient1)" fill-rule="evenodd" stroke="none"/>
    <path d="M5.95 138.95 L9.6 135.6 Q10.1 135.95 13.25 137.1 16.45 138.3 17.05 138.3 L17.7 143.2 16.0 142.7 11.75 141.3 7.55 139.65 5.95 138.95" fill="url(#gradient2)" fill-rule="evenodd" stroke="none"/>
    <path d="M5.95 138.95 L7.55 139.65 11.75 141.3 16.0 142.7 17.7 143.2 11.05 161.45 9.4 160.95 5.1 159.45 0.95 157.9 -0.7 157.2 5.95 138.95" fill="url(#gradient3)" fill-rule="evenodd" stroke="none"/>
    <path d="M9.6 135.6 L16.0 129.45 Q17.05 133.3 17.05 138.3 16.45 138.3 13.25 137.1 10.1 135.95 9.6 135.6" fill="url(#gradient4)" fill-rule="evenodd" stroke="none"/>
    <path d="M20.05 137.45 Q21.4 140.2 22.2 142.5 L20.2 142.9 17.7 143.2 17.05 138.3 20.05 137.45" fill="url(#gradient5)" fill-rule="evenodd" stroke="none"/>
    <path d="M22.2 142.5 L15.55 160.65 13.55 161.1 11.05 161.45 17.7 143.2 20.2 142.9 22.2 142.5" fill="url(#gradient6)" fill-rule="evenodd" stroke="none"/>
    <path d="M16.0 129.45 Q19.85 112.95 17.95 97.9 26.05 116.5 20.05 137.45 L17.05 138.3 Q17.05 133.3 16.0 129.45" fill="url(#gradient7)" fill-rule="evenodd" stroke="none"/>
    <path d="M-0.3 161.1 L-0.7 157.2 0.95 157.9 5.1 159.45 9.4 160.95 11.05 161.45 8.2 164.2 8.2 164.25 3.9 162.9 Q0.95 161.85 -0.25 161.2 L-0.3 161.1" fill="url(#gradient8)" fill-rule="evenodd" stroke="none"/>
    <path d="M15.55 160.65 L12.7 163.5 8.2 164.25 8.2 164.2 11.05 161.45 13.55 161.1 15.55 160.65" fill="url(#gradient9)" fill-rule="evenodd" stroke="none"/>
    <path d="M-0.25 161.2 Q0.95 161.85 3.9 162.9 L8.2 164.25 Q5.65 171.2 6.05 179.55 L-1.3 177.05 Q-8.05 174.65 -8.45 174.2 -2.9 168.15 -0.3 161.2 L-0.25 161.2" fill="url(#gradient10)" fill-rule="evenodd" stroke="none"/>
    <path d="M12.7 163.5 Q10.55 173.5 13.1 179.45 L6.05 179.55 Q5.65 171.2 8.2 164.25 L12.7 163.5" fill="url(#gradient11)" fill-rule="evenodd" stroke="none"/>
    <path d="M13.1 179.45 L9.6 187.3 Q6.0 187.6 2.8 187.4 4.6 183.65 6.05 179.55 L13.1 179.45" fill="url(#gradient12)" fill-rule="evenodd" stroke="none"/>
    <path d="M2.8 187.4 Q1.3 187.1 -4.25 185.15 -9.65 183.1 -11.1 182.3 L-8.45 174.2 Q-8.05 174.65 -1.3 177.05 L6.05 179.55 Q4.6 183.65 2.8 187.4" fill="url(#gradient13)" fill-rule="evenodd" stroke="none"/>
    <path d="M-19.4 132.2 Q-7.15 136.1 -0.85 136.7 L-6.4 152.0 Q-11.6 148.35 -23.45 143.55 -182.4 87.5 -220.7 76.7 L-261.05 65.4 Q-260.35 60.95 -258.85 56.55 -257.4 52.1 -255.2 47.75 -252.9 48.6 -250.5 49.6 -186.95 74.85 -19.4 132.2" fill="url(#gradient14)" fill-rule="evenodd" stroke="none"/>
    <path d="M-13.8 169.65 Q-8.05 166.7 -3.25 157.65 L-0.3 161.1 -0.3 161.2 Q-2.9 168.15 -8.45 174.2 L-13.8 169.65" fill="url(#gradient15)" fill-rule="evenodd" stroke="none"/>
    <path d="M-11.1 182.3 L-16.2 177.9 Q-15.2 173.55 -13.8 169.65 L-8.45 174.2 -11.1 182.3" fill="url(#gradient16)" fill-rule="evenodd" stroke="none"/>
    <path d="M16.0 129.45 L9.6 135.6 5.95 138.95 -0.7 157.2 -0.3 161.1 -0.3 161.2 Q-2.9 168.15 -8.45 174.2 L-11.1 182.3 -16.2 177.9 Q-15.2 173.55 -13.8 169.65 -8.05 166.7 -3.25 157.65 L-3.65 153.65 -3.1 152.2 -6.4 152.0 Q-11.6 148.35 -23.45 143.55 -182.4 87.5 -220.7 76.7 L-261.05 65.4 -263.0 62.85 Q-262.6 59.2 -261.5 55.65 L-3.6 144.35 -0.85 136.7 1.8 138.7 3.0 135.45 Q5.0 134.25 7.8 132.95 12.5 124.85 17.95 97.9 19.85 112.95 16.0 129.45" fill="#000000" fill-opacity="0.2" fill-rule="evenodd" stroke="none"/>
    <path d="M17.95 97.9 Q26.05 116.5 20.05 137.45 21.4 140.2 22.2 142.5 L15.55 160.65 12.7 163.5 Q10.55 173.5 13.1 179.45 L9.6 187.3 Q6.0 187.6 2.8 187.4 4.6 183.65 6.05 179.55 5.65 171.2 8.2 164.25 L8.2 164.2 11.05 161.45 17.7 143.2 17.05 138.3 Q17.05 133.3 16.0 129.45 19.85 112.95 17.95 97.9" fill="#ffffff" fill-opacity="0.5019608" fill-rule="evenodd" stroke="none"/>
  </g>
  <defs>
    <linearGradient gradientTransform="matrix(0.0, 0.0037, -0.004, 0.0, 6.3, 135.95)" gradientUnits="userSpaceOnUse" id="gradient0" spreadMethod="pad" x1="-819.2" x2="819.2">
      <stop offset="0.0" stop-color="#000000" stop-opacity="0.2509804"/>
      <stop offset="1.0" stop-color="#000000" stop-opacity="0.0"/>
    </linearGradient>
    <linearGradient gradientTransform="matrix(0.0, 0.0133, -0.0059, 0.0, 1.15, 146.3)" gradientUnits="userSpaceOnUse" id="gradient1" spreadMethod="pad" x1="-819.2" x2="819.2">
      <stop offset="0.0" stop-color="#000000" stop-opacity="0.2509804"/>
      <stop offset="1.0" stop-color="#000000" stop-opacity="0.0"/>
    </linearGradient>
    <linearGradient gradientTransform="matrix(0.0, 0.0047, -0.0072, 0.0, 11.8, 139.35)" gradientUnits="userSpaceOnUse" id="gradient2" spreadMethod="pad" x1="-819.2" x2="819.2">
      <stop offset="0.0" stop-color="#000000" stop-opacity="0.2509804"/>
      <stop offset="1.0" stop-color="#000000" stop-opacity="0.0"/>
    </linearGradient>
    <linearGradient gradientTransform="matrix(0.0, 0.0137, -0.0112, 0.0, 8.5, 150.15)" gradientUnits="userSpaceOnUse" id="gradient3" spreadMethod="pad" x1="-819.2" x2="819.2">
      <stop offset="0.0" stop-color="#000000" stop-opacity="0.2509804"/>
      <stop offset="1.0" stop-color="#000000" stop-opacity="0.0"/>
    </linearGradient>
    <linearGradient gradientTransform="matrix(0.0, 0.0054, -0.0045, 0.0, 13.3, 133.85)" gradientUnits="userSpaceOnUse" id="gradient4" spreadMethod="pad" x1="-819.2" x2="819.2">
      <stop offset="0.0" stop-color="#000000" stop-opacity="0.2509804"/>
      <stop offset="1.0" stop-color="#000000" stop-opacity="0.0"/>
    </linearGradient>
    <linearGradient gradientTransform="matrix(0.0, 0.0035, -0.0031, 0.0, 19.6, 140.3)" gradientUnits="userSpaceOnUse" id="gradient5" spreadMethod="pad" x1="-819.2" x2="819.2">
      <stop offset="0.0" stop-color="#000000" stop-opacity="0.2509804"/>
      <stop offset="1.0" stop-color="#000000" stop-opacity="0.0"/>
    </linearGradient>
    <linearGradient gradientTransform="matrix(0.0, 0.0116, -0.0068, 0.0, 16.6, 151.95)" gradientUnits="userSpaceOnUse" id="gradient6" spreadMethod="pad" x1="-819.2" x2="819.2">
      <stop offset="0.0" stop-color="#000000" stop-opacity="0.2509804"/>
      <stop offset="1.0" stop-color="#000000" stop-opacity="0.0"/>
    </linearGradient>
    <linearGradient gradientTransform="matrix(0.0, 0.0246, -0.004, 0.0, 19.3, 118.05)" gradientUnits="userSpaceOnUse" id="gradient7" spreadMethod="pad" x1="-819.2" x2="819.2">
      <stop offset="0.0" stop-color="#000000" stop-opacity="0.2509804"/>
      <stop offset="1.0" stop-color="#000000" stop-opacity="0.0"/>
    </linearGradient>
    <linearGradient gradientTransform="matrix(0.0, 0.0043, -0.0072, 0.0, 5.15, 160.7)" gradientUnits="userSpaceOnUse" id="gradient8" spreadMethod="pad" x1="-819.2" x2="819.2">
      <stop offset="0.0" stop-color="#000000" stop-opacity="0.2509804"/>
      <stop offset="1.0" stop-color="#000000" stop-opacity="0.0"/>
    </linearGradient>
    <linearGradient gradientTransform="matrix(0.0, 0.0022, -0.0045, 0.0, 11.9, 162.45)" gradientUnits="userSpaceOnUse" id="gradient9" spreadMethod="pad" x1="-819.2" x2="819.2">
      <stop offset="0.0" stop-color="#000000" stop-opacity="0.2509804"/>
      <stop offset="1.0" stop-color="#000000" stop-opacity="0.0"/>
    </linearGradient>
    <linearGradient gradientTransform="matrix(0.0, 0.0112, -0.0102, 0.0, -0.1, 170.4)" gradientUnits="userSpaceOnUse" id="gradient10" spreadMethod="pad" x1="-819.2" x2="819.2">
      <stop offset="0.0" stop-color="#000000" stop-opacity="0.2509804"/>
      <stop offset="1.0" stop-color="#000000" stop-opacity="0.0"/>
    </linearGradient>
    <linearGradient gradientTransform="matrix(0.0, 0.0098, -0.0043, 0.0, 9.55, 171.5)" gradientUnits="userSpaceOnUse" id="gradient11" spreadMethod="pad" x1="-819.2" x2="819.2">
      <stop offset="0.0" stop-color="#000000" stop-opacity="0.2509804"/>
      <stop offset="1.0" stop-color="#000000" stop-opacity="0.0"/>
    </linearGradient>
    <linearGradient gradientTransform="matrix(0.0, 0.0049, -0.0063, 0.0, 8.0, 183.45)" gradientUnits="userSpaceOnUse" id="gradient12" spreadMethod="pad" x1="-819.2" x2="819.2">
      <stop offset="0.0" stop-color="#000000" stop-opacity="0.2509804"/>
      <stop offset="1.0" stop-color="#000000" stop-opacity="0.0"/>
    </linearGradient>
    <linearGradient gradientTransform="matrix(0.0, 0.0081, -0.0105, 0.0, -2.5, 180.8)" gradientUnits="userSpaceOnUse" id="gradient13" spreadMethod="pad" x1="-819.2" x2="819.2">
      <stop offset="0.0" stop-color="#000000" stop-opacity="0.2509804"/>
      <stop offset="1.0" stop-color="#000000" stop-opacity="0.0"/>
    </linearGradient>
    <linearGradient gradientTransform="matrix(0.0, 0.0636, -0.1588, 0.0, -130.9, 99.9)" gradientUnits="userSpaceOnUse" id="gradient14" spreadMethod="pad" x1="-819.2" x2="819.2">
      <stop offset="0.0" stop-color="#000000" stop-opacity="0.2509804"/>
      <stop offset="1.0" stop-color="#000000" stop-opacity="0.0"/>
    </linearGradient>
    <linearGradient gradientTransform="matrix(0.0, 0.0101, -0.0082, 0.0, -7.0, 165.95)" gradientUnits="userSpaceOnUse" id="gradient15" spreadMethod="pad" x1="-819.2" x2="819.2">
      <stop offset="0.0" stop-color="#000000" stop-opacity="0.2509804"/>
      <stop offset="1.0" stop-color="#000000" stop-opacity="0.0"/>
    </linearGradient>
    <linearGradient gradientTransform="matrix(0.0, 0.0077, -0.0047, 0.0, -12.3, 175.95)" gradientUnits="userSpaceOnUse" id="gradient16" spreadMethod="pad" x1="-819.2" x2="819.2">
      <stop offset="0.0" stop-color="#000000" stop-opacity="0.2509804"/>
      <stop offset="1.0" stop-color="#000000" stop-opacity="0.0"/>
    </linearGradient>
  </defs>
</svg>
