<?xml version="1.0" encoding="UTF-8" standalone="no"?>
<svg xmlns:xlink="http://www.w3.org/1999/xlink" height="123.25px" width="300.55px" xmlns="http://www.w3.org/2000/svg">
  <g transform="matrix(1.0, 0.0, 0.0, 1.0, 191.85, -71.35)">
    <path d="M0.0 142.8 L3.0 148.5 9.7 145.4 6.6 139.65 0.0 142.8 M2.8 138.05 L3.25 137.75 97.9 169.9 99.65 170.85 Q105.3 174.45 104.1 180.7 L102.8 179.25 100.2 185.45 101.15 187.85 Q97.5 192.8 90.3 190.9 L89.45 190.6 85.1 186.1 80.65 187.2 70.1 183.05 65.65 178.6 61.25 179.7 50.9 175.65 46.45 171.15 42.05 172.25 32.15 168.35 27.8 163.95 23.5 165.0 14.6 161.55 14.6 161.5 10.15 157.05 5.75 158.15 -2.95 154.8 -3.05 154.2 Q-3.8 150.4 -1.85 145.5 -0.2 140.55 2.8 138.05 M27.25 151.8 L24.1 146.0 17.45 149.15 20.45 154.85 27.25 151.8 M35.8 155.8 L38.8 161.55 45.6 158.5 42.5 152.75 35.8 155.8 M61.9 159.5 L55.25 162.65 58.3 168.35 65.0 165.3 61.9 159.5 M80.7 165.95 L74.1 169.05 77.1 174.75 83.75 171.7 80.7 165.95" fill="url(#gradient0)" fill-rule="evenodd" stroke="none"/>
    <path d="M-92.65 119.9 L-93.35 120.4 -173.4 89.3 -173.6 88.4 Q-174.1 86.0 -173.1 83.15 -172.1 80.25 -170.1 78.75 L-169.4 78.3 -88.1 105.9 -87.85 106.7 -88.7 106.4 Q-90.95 108.45 -92.35 112.55 -93.9 116.6 -93.5 119.6 L-92.65 119.9" fill="url(#gradient1)" fill-rule="evenodd" stroke="none"/>
    <path d="M-3.05 154.2 L-92.65 119.9 -93.5 119.6 Q-93.9 116.6 -92.35 112.55 -90.95 108.45 -88.7 106.4 L-87.85 106.7 2.8 138.05 Q-0.2 140.55 -1.85 145.5 -3.8 150.4 -3.05 154.2" fill="url(#gradient2)" fill-rule="evenodd" stroke="none"/>
    <path d="M-182.05 85.25 Q-184.8 87.0 -187.55 85.9 -193.7 83.3 -191.1 76.6 -188.75 69.75 -182.45 71.85 -179.6 72.7 -178.6 75.8 -181.2 76.7 -182.35 79.8 L-182.4 79.85 Q-183.5 82.85 -182.05 85.25" fill="url(#gradient3)" fill-rule="evenodd" stroke="none"/>
    <path d="M-173.6 88.4 L-182.05 85.25 Q-183.5 82.85 -182.4 79.85 L-182.35 79.8 Q-181.2 76.7 -178.6 75.8 L-170.1 78.75 Q-172.1 80.25 -173.1 83.15 -174.1 86.0 -173.6 88.4" fill="url(#gradient4)" fill-rule="evenodd" stroke="none"/>
    <path d="M61.9 159.5 L65.0 165.3 59.1 162.2 61.9 159.5 M27.25 151.8 L21.35 148.65 24.1 146.0 27.25 151.8 M6.6 139.65 L9.7 145.4 3.85 142.3 6.6 139.65 M77.95 168.6 L80.7 165.95 83.75 171.7 77.95 168.6 M39.7 155.3 L42.5 152.75 45.6 158.5 39.7 155.3" fill="#ffffff" fill-opacity="0.5019608" fill-rule="evenodd" stroke="none"/>
    <path d="M19.2 143.1 L15.25 141.8 22.4 138.2 19.2 143.1 M0.0 142.8 L3.85 142.3 3.0 148.5 4.55 147.8 19.7 153.3 17.45 149.15 21.35 148.65 20.45 154.85 22.0 154.2 38.0 159.95 35.8 155.8 39.7 155.3 38.8 161.55 40.45 160.85 57.65 167.1 55.25 162.65 59.1 162.2 58.3 168.35 59.6 167.8 76.75 174.05 74.1 169.05 77.95 168.6 77.1 174.75 77.8 174.45 101.3 183.0 100.2 185.45 108.7 185.7 101.15 187.85 Q97.5 192.8 90.3 190.9 L89.45 190.6 85.1 186.1 82.5 194.6 80.65 187.2 70.1 183.05 65.65 178.6 63.2 187.05 61.25 179.7 50.9 175.65 46.45 171.15 43.9 179.6 42.05 172.25 32.15 168.35 27.8 163.95 25.25 172.4 23.45 165.05 23.5 165.0 14.6 161.55 14.6 161.5 10.15 157.05 7.6 165.5 5.75 158.15 -2.95 154.8 -3.05 154.2 -92.65 119.9 -93.35 120.4 -173.4 89.3 -173.6 88.4 -182.05 85.25 Q-184.8 87.0 -187.55 85.9 -193.7 83.3 -191.1 76.6 L2.2 146.9 0.0 142.8 M78.5 157.35 L75.25 162.2 71.35 160.85 78.5 157.35 M52.2 154.35 L59.35 150.75 56.1 155.75 52.2 154.35 M33.65 148.1 L40.8 144.5 37.6 149.4 33.65 148.1 M91.0 167.6 L98.15 164.0 94.9 168.9 91.0 167.6" fill="#000000" fill-opacity="0.2" fill-rule="evenodd" stroke="none"/>
  </g>
  <defs>
    <linearGradient gradientTransform="matrix(0.0, 0.0328, -0.0657, 0.0, 50.6, 164.55)" gradientUnits="userSpaceOnUse" id="gradient0" spreadMethod="pad" x1="-819.2" x2="819.2">
      <stop offset="0.0" stop-color="#000000" stop-opacity="0.2509804"/>
      <stop offset="1.0" stop-color="#000000" stop-opacity="0.0"/>
    </linearGradient>
    <linearGradient gradientTransform="matrix(0.0, 0.0257, -0.0524, 0.0, -130.8, 99.35)" gradientUnits="userSpaceOnUse" id="gradient1" spreadMethod="pad" x1="-819.2" x2="819.2">
      <stop offset="0.0" stop-color="#000000" stop-opacity="0.2509804"/>
      <stop offset="1.0" stop-color="#000000" stop-opacity="0.0"/>
    </linearGradient>
    <linearGradient gradientTransform="matrix(0.0, 0.0291, -0.0588, 0.0, -45.35, 130.3)" gradientUnits="userSpaceOnUse" id="gradient2" spreadMethod="pad" x1="-819.2" x2="819.2">
      <stop offset="0.0" stop-color="#000000" stop-opacity="0.2509804"/>
      <stop offset="1.0" stop-color="#000000" stop-opacity="0.0"/>
    </linearGradient>
    <linearGradient gradientTransform="matrix(0.0, 0.0091, -0.0081, 0.0, -185.2, 78.8)" gradientUnits="userSpaceOnUse" id="gradient3" spreadMethod="pad" x1="-819.2" x2="819.2">
      <stop offset="0.0" stop-color="#000000" stop-opacity="0.2509804"/>
      <stop offset="1.0" stop-color="#000000" stop-opacity="0.0"/>
    </linearGradient>
    <linearGradient gradientTransform="matrix(0.0, 0.0077, -0.0078, 0.0, -176.45, 82.1)" gradientUnits="userSpaceOnUse" id="gradient4" spreadMethod="pad" x1="-819.2" x2="819.2">
      <stop offset="0.0" stop-color="#000000" stop-opacity="0.2509804"/>
      <stop offset="1.0" stop-color="#000000" stop-opacity="0.0"/>
    </linearGradient>
  </defs>
</svg>
