<?xml version="1.0" encoding="UTF-8" standalone="no"?>
<svg xmlns:xlink="http://www.w3.org/1999/xlink" height="117.4px" width="253.7px" xmlns="http://www.w3.org/2000/svg">
  <g transform="matrix(1.0, 0.0, 0.0, 1.0, 203.05, -67.2)">
    <path d="M-8.1 136.35 Q-5.4 132.5 -1.4 129.95 L-1.5 131.6 0.8 132.45 Q3.0 130.6 6.4 129.1 8.15 128.3 10.25 127.65 L8.5 126.0 15.0 125.7 18.25 126.2 19.25 128.75 Q24.0 129.5 27.9 131.9 L27.95 130.5 Q31.4 132.95 33.85 136.4 L35.15 138.6 36.2 140.55 Q37.85 144.2 38.45 147.9 39.0 151.8 38.2 155.75 L37.7 158.25 37.1 157.25 31.5 157.05 Q30.55 161.9 27.4 166.8 L33.25 167.2 Q31.15 170.0 28.3 172.05 26.3 173.6 23.7 174.75 L19.6 176.4 Q15.4 177.5 11.3 177.2 L15.2 171.65 Q10.25 170.4 5.05 168.0 L2.2 172.25 3.4 175.35 Q1.15 174.45 -0.95 173.25 -4.2 171.2 -6.65 168.3 L-6.65 168.1 -5.4 168.1 Q-8.45 163.6 -8.7 159.15 -10.5 157.65 -11.15 156.0 L-12.3 157.25 Q-13.2 153.35 -12.9 149.45 L-11.3 150.05 Q-10.7 150.35 -10.3 149.85 -7.7 147.15 -6.55 144.1 -5.4 141.0 -5.8 137.55 -5.8 137.2 -6.35 136.95 L-8.1 136.35 M13.55 151.55 L9.05 161.3 19.9 165.3 24.0 155.4 13.55 151.55 M18.6 134.25 L15.55 142.6 26.5 146.6 29.1 138.8 27.5 132.9 18.6 134.25 M6.65 146.45 L-2.2 142.95 -8.0 148.05 -4.0 153.75 2.1 156.65 Q4.45 150.6 6.65 146.45" fill="url(#gradient0)" fill-rule="evenodd" stroke="none"/>
    <path d="M-8.1 136.35 L-6.35 136.95 Q-5.8 137.2 -5.8 137.55 -5.4 141.0 -6.55 144.1 -7.7 147.15 -10.3 149.85 -10.7 150.35 -11.3 150.05 L-12.9 149.45 -15.25 148.65 Q-12.3 145.7 -11.05 142.5 -9.85 139.2 -10.45 135.5 L-8.1 136.35" fill="url(#gradient1)" fill-rule="evenodd" stroke="none"/>
    <path d="M-15.25 148.65 L-198.6 81.9 Q-199.2 77.75 -197.6 74.1 -196.3 71.25 -193.8 68.75 L-10.45 135.5 Q-9.85 139.2 -11.05 142.5 -12.3 145.7 -15.25 148.65" fill="url(#gradient2)" fill-rule="evenodd" stroke="none"/>
    <path d="M-198.6 81.9 L-202.9 80.3 Q-203.5 76.2 -201.9 72.5 -200.65 69.7 -198.1 67.2 L-193.8 68.75 Q-196.3 71.25 -197.6 74.1 -199.2 77.75 -198.6 81.9" fill="url(#gradient3)" fill-rule="evenodd" stroke="none"/>
    <path d="M6.4 129.1 Q16.45 129.1 24.25 133.4 L18.6 134.25 17.7 136.7 Q10.0 133.2 0.8 132.45 3.0 130.6 6.4 129.1 M31.5 157.05 L37.1 157.25 43.15 168.05 31.5 157.05 M35.15 138.6 L33.85 136.4 50.65 136.9 35.15 138.6 M29.1 138.8 L28.4 136.1 Q34.2 140.55 38.45 147.9 39.0 151.8 38.2 155.75 33.6 148.25 27.65 143.2 L29.1 138.8 M17.35 160.05 L13.55 151.55 24.0 155.4 17.35 160.05 M-6.65 168.3 Q-6.85 168.15 -6.95 168.1 L-6.65 168.1 -6.65 168.3 M-6.35 146.6 L-2.2 142.95 6.65 146.45 -8.0 148.05 -6.35 146.6" fill="#ffffff" fill-opacity="0.5019608" fill-rule="evenodd" stroke="none"/>
    <path d="M31.5 157.05 L43.15 168.05 27.4 166.8 Q30.55 161.9 31.5 157.05 M17.35 160.05 L19.9 165.3 9.05 161.3 17.35 160.05 M-8.0 148.05 L2.1 156.65 -4.0 153.75 -5.45 151.7 Q-0.35 171.05 28.3 172.05 L28.4 184.6 19.6 176.4 Q15.4 177.5 11.3 177.2 L15.2 171.65 Q10.25 170.4 5.05 168.0 L6.5 183.8 4.9 179.7 -0.7 184.55 -0.95 173.25 Q-4.2 171.2 -6.65 168.3 L-6.65 168.1 -5.4 168.1 Q-8.45 163.6 -8.7 159.15 L-21.6 167.5 -12.3 157.25 Q-13.2 153.35 -12.9 149.45 L-202.9 80.3 Q-203.5 76.2 -201.9 72.5 L-6.55 144.1 -6.35 146.6 -8.0 148.05" fill="#000000" fill-opacity="0.2" fill-rule="evenodd" stroke="none"/>
  </g>
  <defs>
    <linearGradient gradientTransform="matrix(0.0, 0.0316, -0.0315, 0.0, 12.9, 151.4)" gradientUnits="userSpaceOnUse" id="gradient0" spreadMethod="pad" x1="-819.2" x2="819.2">
      <stop offset="0.0" stop-color="#000000" stop-opacity="0.2509804"/>
      <stop offset="1.0" stop-color="#000000" stop-opacity="0.0"/>
    </linearGradient>
    <linearGradient gradientTransform="matrix(0.0, 0.0089, -0.0058, 0.0, -10.45, 142.85)" gradientUnits="userSpaceOnUse" id="gradient1" spreadMethod="pad" x1="-819.2" x2="819.2">
      <stop offset="0.0" stop-color="#000000" stop-opacity="0.2509804"/>
      <stop offset="1.0" stop-color="#000000" stop-opacity="0.0"/>
    </linearGradient>
    <linearGradient gradientTransform="matrix(0.0, 0.0488, -0.1151, 0.0, -104.5, 108.7)" gradientUnits="userSpaceOnUse" id="gradient2" spreadMethod="pad" x1="-819.2" x2="819.2">
      <stop offset="0.0" stop-color="#000000" stop-opacity="0.2509804"/>
      <stop offset="1.0" stop-color="#000000" stop-opacity="0.0"/>
    </linearGradient>
    <linearGradient gradientTransform="matrix(0.0, 0.009, -0.0057, 0.0, -198.4, 74.5)" gradientUnits="userSpaceOnUse" id="gradient3" spreadMethod="pad" x1="-819.2" x2="819.2">
      <stop offset="0.0" stop-color="#000000" stop-opacity="0.2509804"/>
      <stop offset="1.0" stop-color="#000000" stop-opacity="0.0"/>
    </linearGradient>
  </defs>
</svg>
