<?xml version="1.0" encoding="UTF-8" standalone="no"?>
<svg xmlns:xlink="http://www.w3.org/1999/xlink" height="18.7px" width="33.1px" xmlns="http://www.w3.org/2000/svg">
  <g transform="matrix(1.0, 0.0, 0.0, 1.0, -383.3, -187.9)">
    <path d="M384.65 188.4 L384.35 188.4 Q383.9 188.95 383.8 189.8 M389.85 195.7 L388.3 194.3 386.0 191.6 385.95 191.55 385.55 191.0 384.4 189.15 385.25 192.3 385.3 192.4 385.4 192.9 386.0 194.45 386.5 193.9 387.55 196.1 388.15 195.45 388.85 198.05 389.6 196.75 390.2 199.2 391.4 197.8 392.3 200.15 393.15 198.75 394.3 201.8 394.55 201.7 395.1 200.1 396.4 202.65 397.35 201.1 397.6 202.65 398.7 201.35 398.8 201.45 399.25 203.05 399.35 203.0 399.75 202.0 400.3 203.05 400.4 203.1 400.8 201.55 400.95 201.4 402.05 202.7 402.3 201.15 403.25 202.7 404.55 200.15 405.1 201.8 405.35 201.85 406.55 198.85 407.35 200.2 408.25 197.9 409.45 199.25 410.0 196.85 410.05 196.85 410.8 198.15 411.5 195.5 412.05 196.15 412.7 194.8 M413.75 194.4 L413.75 194.3 M414.95 190.6 L415.25 189.25 414.4 190.6 M408.15 196.85 Q406.95 197.6 405.65 198.05 L402.3 199.0 399.85 199.15 399.8 199.15 397.35 198.9 394.0 198.05 Q392.75 197.55 391.6 196.85 M386.0 194.45 L386.75 196.1 389.55 200.3 390.15 201.0 Q391.55 202.85 393.85 204.45 396.15 206.05 399.8 206.1 L399.85 206.1 Q403.5 206.0 406.4 204.05 408.1 202.9 409.5 201.1 L410.15 200.3 412.9 196.15 412.95 195.95 413.75 194.4 M415.9 190.2 L415.85 189.95 415.85 189.85 415.3 188.45 415.0 188.45" fill="none" stroke="#000000" stroke-linecap="round" stroke-linejoin="round" stroke-opacity="0.5019608" stroke-width="1.0"/>
    <path d="M412.7 194.8 L413.1 193.95 413.75 194.4 M413.75 194.3 L414.25 192.9 414.25 192.85 414.4 192.5 414.45 192.35 414.95 190.6 M414.4 190.6 L414.1 191.05 413.7 191.6 413.7 191.65 413.45 192.0 412.95 192.6 412.9 192.7 411.8 193.95 411.35 194.4 411.0 194.75 410.9 194.8 408.65 196.55 408.15 196.85 M391.6 196.85 L390.95 196.5 389.85 195.7" fill="none" stroke="#000000" stroke-linecap="round" stroke-linejoin="round" stroke-opacity="0.49803922" stroke-width="1.0"/>
  </g>
</svg>
