<?xml version="1.0" encoding="UTF-8" standalone="no"?>
<svg xmlns:xlink="http://www.w3.org/1999/xlink" height="15.95px" width="31.55px" xmlns="http://www.w3.org/2000/svg">
  <g transform="matrix(1.0, 0.0, 0.0, 1.0, -384.05, -188.55)">
    <path d="M384.05 192.35 L384.05 191.2 385.25 190.05 385.25 189.2 385.9 188.55 385.7 188.85 386.1 190.05 385.05 191.65 385.4 194.3 386.65 194.3 387.7 196.95 388.9 196.7 391.4 200.7 393.65 199.3 396.15 201.8 398.5 200.25 399.85 201.4 401.2 200.25 403.55 201.8 406.05 199.3 408.25 200.7 410.75 196.7 411.95 196.95 413.0 194.3 414.3 194.3 414.6 191.65 413.55 190.05 413.95 188.85 413.8 188.55 414.4 189.2 414.4 190.05 415.6 191.2 415.6 192.35 415.0 192.35 414.55 195.65 413.35 195.3 411.85 199.85 411.0 198.95 408.6 203.1 408.05 202.2 406.7 203.95 405.6 202.45 403.7 203.95 402.5 202.35 400.65 204.5 399.85 203.65 399.05 204.5 397.2 202.35 396.0 203.95 394.05 202.45 392.95 203.95 391.65 202.2 391.1 203.1 388.7 198.95 387.8 199.85 386.35 195.3 385.15 195.65 384.65 192.35 384.05 192.35" fill="#000000" fill-rule="evenodd" stroke="none"/>
  </g>
</svg>
