<?xml version="1.0" encoding="UTF-8" standalone="no"?>
<svg xmlns:xlink="http://www.w3.org/1999/xlink" height="58.65px" width="47.35px" xmlns="http://www.w3.org/2000/svg">
  <g transform="matrix(1.0, 0.0, 0.0, 1.0, -309.9, -225.5)">
    <path d="M353.65 234.15 Q348.35 241.8 350.85 254.25 353.35 266.65 356.75 271.15 L354.2 283.65 354.2 283.25 Q353.55 272.0 348.55 267.05 348.95 274.9 346.0 281.15 345.3 274.15 340.2 268.0 339.95 274.7 336.0 279.65 337.25 269.5 336.0 259.3 334.0 261.2 332.3 263.25 330.05 266.1 328.2 269.3 326.35 272.5 325.05 276.15 324.8 269.2 327.35 262.3 319.85 271.35 317.65 280.4 315.2 272.8 319.25 262.3 315.9 262.7 312.5 267.0 313.35 255.8 322.75 243.95 317.0 245.15 310.4 250.1 314.35 238.1 323.7 232.9 326.05 231.6 328.75 230.5 331.45 229.35 335.6 227.95 339.75 226.5 344.15 226.2 348.6 225.85 353.8 226.2 359.0 226.5 353.65 234.15 Z" fill="none" stroke="#000000" stroke-linecap="round" stroke-linejoin="round" stroke-width="1.0"/>
  </g>
</svg>
