<?xml version="1.0" encoding="UTF-8" standalone="no"?>
<svg xmlns:xlink="http://www.w3.org/1999/xlink" height="18.45px" width="48.25px" xmlns="http://www.w3.org/2000/svg">
  <g transform="matrix(1.0, 0.0, 0.0, 1.0, -321.75, -221.7)">
    <path d="M365.2 226.75 Q366.15 226.25 366.15 225.5 366.15 224.75 365.2 224.15 364.3 223.65 362.95 223.65 361.65 223.65 360.7 224.15 359.75 224.75 359.75 225.5 359.75 226.25 360.7 226.75 361.65 227.35 362.95 227.35 364.3 227.35 365.2 226.75 M339.55 228.05 L344.1 229.8 341.7 234.65 345.75 233.75 347.85 228.95 342.9 226.75 339.55 228.05 M335.75 228.65 L332.4 229.95 336.95 231.75 334.55 236.55 338.6 235.7 340.7 230.9 335.75 228.65 M329.65 230.75 L327.6 231.35 328.95 237.8 331.15 237.3 329.65 230.75 M325.2 240.15 Q321.85 237.9 321.75 235.2 L321.75 234.95 Q321.8 233.35 322.9 231.75 336.1 226.35 350.3 223.45 L360.2 221.75 Q376.25 221.15 365.95 229.6 358.1 232.6 350.3 234.9 L343.95 236.55 Q334.55 238.9 325.2 240.15 M349.5 232.85 L353.55 231.95 355.65 227.15 350.7 224.95 347.35 226.25 351.9 228.0 349.5 232.85" fill="#000000" fill-rule="evenodd" stroke="none"/>
  </g>
</svg>
