<?xml version="1.0" encoding="UTF-8" standalone="no"?>
<svg xmlns:xlink="http://www.w3.org/1999/xlink" height="30.3px" width="168.9px" xmlns="http://www.w3.org/2000/svg">
  <g transform="matrix(1.0, 0.0, 0.0, 1.0, -315.45, -238.75)">
    <path d="M479.45 238.75 Q482.1 241.35 484.35 244.7 477.15 244.75 470.35 246.95 454.3 252.1 440.7 269.05 L438.8 261.65 Q453.0 244.05 468.75 240.0 474.0 238.6 479.45 238.75 M359.1 269.05 Q355.4 264.45 351.55 260.75 341.15 250.7 329.45 246.95 322.65 244.75 315.45 244.7 317.7 241.35 320.35 238.75 325.8 238.6 331.05 240.0 344.1 243.35 356.15 256.05 L361.0 261.65 359.1 269.05" fill="#000000" fill-rule="evenodd" stroke="none"/>
  </g>
</svg>
