<?xml version="1.0" encoding="UTF-8" standalone="no"?>
<svg xmlns:xlink="http://www.w3.org/1999/xlink" height="44.75px" width="42.15px" xmlns="http://www.w3.org/2000/svg">
  <g transform="matrix(1.0, 0.0, 0.0, 1.0, -311.35, -177.8)">
    <path d="M329.6 188.3 L329.55 188.4 329.65 188.3 329.6 188.3 M350.8 200.05 L353.5 200.05 353.5 200.3 Q353.5 200.95 353.1 201.4 352.7 201.85 352.15 201.85 351.65 201.85 351.25 201.4 350.8 200.95 350.8 200.3 L350.8 200.05 M350.35 177.8 L350.9 178.9 350.9 189.7 Q349.95 192.95 347.2 192.7 L315.05 192.7 Q312.1 190.55 311.45 188.4 L311.35 187.95 311.35 179.55 Q311.2 178.0 313.75 177.8 L350.35 177.8 M349.45 200.3 Q349.45 200.95 349.05 201.4 L348.1 201.85 347.7 201.8 347.2 201.4 Q346.75 200.95 346.75 200.3 L346.75 200.05 349.45 200.05 349.45 200.3 M345.45 200.3 Q345.45 200.95 345.05 201.4 344.65 201.85 344.1 201.85 L344.05 201.85 Q343.6 201.85 343.15 201.4 342.75 200.95 342.75 200.3 L342.75 200.05 345.4 200.05 345.45 200.3 M336.3 213.35 L336.4 213.05 336.2 213.3 336.3 213.35 M339.55 200.05 L339.65 200.25 336.95 200.8 Q333.9 201.65 331.8 203.45 L331.0 206.25 330.7 206.6 329.25 208.2 328.9 208.5 333.85 210.25 338.4 212.15 339.25 212.55 340.7 213.3 Q349.35 217.7 351.05 222.55 346.95 219.85 340.45 218.9 L326.6 218.5 Q326.75 215.15 320.9 213.4 315.9 212.2 314.55 210.3 313.4 208.6 315.2 206.35 L322.6 197.1 329.7 200.05 339.55 200.05" fill="#000000" fill-rule="evenodd" stroke="none"/>
  </g>
</svg>
