<?xml version="1.0" encoding="UTF-8" standalone="no"?>
<svg xmlns:xlink="http://www.w3.org/1999/xlink" height="13.2px" width="32.4px" xmlns="http://www.w3.org/2000/svg">
  <g transform="matrix(1.0, 0.0, 0.0, 1.0, -383.55, -180.05)">
    <path d="M383.95 189.15 L383.55 181.4 Q383.5 180.4 384.65 180.25 L399.75 180.9 414.85 180.25 Q416.0 180.4 415.95 181.4 L415.55 189.15 Q415.45 189.85 414.35 190.35 410.95 191.85 404.35 193.2 403.6 193.45 403.05 192.45 L400.5 187.8 Q400.1 187.25 399.75 187.25 399.35 187.2 399.0 187.8 L396.45 192.45 Q395.9 193.45 395.15 193.2 388.55 191.85 385.15 190.35 384.05 189.85 383.95 189.15" fill="#000000" fill-rule="evenodd" stroke="none"/>
  </g>
</svg>
