<?xml version="1.0" encoding="UTF-8" standalone="no"?>
<svg xmlns:xlink="http://www.w3.org/1999/xlink" height="33.2px" width="34.9px" xmlns="http://www.w3.org/2000/svg">
  <g transform="matrix(1.0, 0.0, 0.0, 1.0, -382.3, -144.95)">
    <path d="M400.8 154.5 L400.8 156.15 399.75 156.05 398.7 156.15 398.7 154.5 Q398.15 153.9 396.6 153.7 L399.75 144.95 402.9 153.7 Q401.35 153.9 400.8 154.5 M383.0 169.3 L383.5 169.7 383.7 170.7 383.5 171.7 383.0 172.1 Q382.7 172.1 382.5 171.7 L382.3 170.7 382.5 169.7 Q382.7 169.3 383.0 169.3 M416.5 172.1 L416.0 171.7 415.8 170.7 416.0 169.7 416.5 169.3 Q416.8 169.3 417.0 169.7 L417.2 170.7 417.0 171.7 416.5 172.1 M399.75 178.15 Q392.55 178.1 385.15 176.05 L384.1 176.0 Q392.3 171.55 399.75 171.6 407.2 171.55 415.4 176.0 L414.35 176.05 Q406.95 178.1 399.75 178.15" fill="#000000" fill-rule="evenodd" stroke="none"/>
  </g>
</svg>
