<?xml version="1.0" encoding="UTF-8" standalone="no"?>
<svg xmlns:xlink="http://www.w3.org/1999/xlink" height="47.1px" width="40.5px" xmlns="http://www.w3.org/2000/svg">
  <g transform="matrix(1.0, 0.0, 0.0, 1.0, -379.5, -168.1)">
    <path d="M389.0 204.25 L385.7 202.0 383.65 191.3 Q382.45 181.5 384.55 174.95 L381.8 168.6 Q379.3 178.5 380.3 191.2 L383.15 203.3 393.85 213.4 399.75 214.7 405.65 213.4 416.35 203.3 419.2 191.2 Q420.2 178.5 417.7 168.6 L414.95 174.95 Q417.05 181.5 415.85 191.3 L413.8 202.0 410.5 204.25 410.55 199.95 408.4 205.65 405.95 207.3 Q406.8 202.75 406.1 198.65 404.8 203.3 402.25 207.25 L399.75 207.0 397.25 207.25 Q394.7 203.3 393.4 198.65 392.7 202.75 393.55 207.3 L391.1 205.65 M389.0 204.25 L388.95 199.95 391.1 205.65" fill="none" stroke="#000000" stroke-linecap="round" stroke-linejoin="round" stroke-width="1.0"/>
    <path d="M410.5 204.25 L408.4 205.65 M405.95 207.3 L404.45 208.3 Q403.45 207.55 402.25 207.25 M397.25 207.25 Q396.05 207.55 395.05 208.3 L393.55 207.3 M391.1 205.65 L389.0 204.25 Z" fill="none" stroke="#000000" stroke-linecap="round" stroke-linejoin="round" stroke-opacity="0.49803922" stroke-width="1.0"/>
  </g>
</svg>
