<?xml version="1.0" encoding="UTF-8" standalone="no"?>
<svg xmlns:xlink="http://www.w3.org/1999/xlink" height="57.6px" width="43.6px" xmlns="http://www.w3.org/2000/svg">
  <g transform="matrix(1.0, 0.0, 0.0, 1.0, -378.0, -156.95)">
    <path d="M399.8 157.45 Q413.15 158.4 419.25 165.6 L420.95 201.7 421.1 204.15 405.15 214.05 405.15 193.8 413.8 190.8 413.8 179.1 Q408.1 180.5 399.8 180.65 391.5 180.5 385.8 179.1 L385.8 190.8 394.45 193.8 394.45 214.05 378.5 204.15 378.65 201.7 380.35 165.6 Q386.45 158.4 399.8 157.45" fill="none" stroke="#000000" stroke-linecap="round" stroke-linejoin="round" stroke-width="1.0"/>
    <path d="M420.95 201.7 L407.35 210.05 407.4 195.4 415.8 192.6 415.8 176.15 Q408.5 177.9 399.8 178.35 391.1 177.9 383.8 176.15 L383.8 192.6 392.2 195.4 392.25 210.05 378.65 201.7" fill="none" stroke="#000000" stroke-linecap="round" stroke-linejoin="round" stroke-opacity="0.5019608" stroke-width="1.0"/>
  </g>
</svg>
