<?xml version="1.0" encoding="UTF-8" standalone="no"?>
<svg xmlns:xlink="http://www.w3.org/1999/xlink" height="26.9px" width="34.4px" xmlns="http://www.w3.org/2000/svg">
  <g transform="matrix(1.0, 0.0, 0.0, 1.0, -382.5, -186.85)">
    <path d="M399.75 189.0 L398.3 189.6 396.5 194.55 396.45 194.75 393.7 202.3 393.5 203.4 Q393.15 205.75 394.2 208.0 394.85 209.4 396.05 210.8 L396.55 211.1 398.95 211.85 399.15 211.85 399.7 211.9 400.15 211.9 400.25 211.9 401.0 211.75 Q402.25 211.5 403.35 210.8 404.8 209.15 405.5 207.4 406.2 205.55 406.0 203.6 L405.9 203.0 405.7 202.3 401.1 189.6 399.75 189.0 M402.05 187.45 L403.1 190.1 Q405.25 193.95 416.7 196.95 L416.9 198.2 413.1 198.2 Q412.0 200.3 413.15 202.05 L416.3 202.05 415.6 203.55 Q414.45 205.35 411.95 206.15 408.9 205.8 408.0 204.5 408.05 208.7 404.75 212.35 402.95 213.4 401.0 213.65 L400.65 213.7 400.25 213.75 400.1 213.75 399.65 213.75 399.15 213.75 398.95 213.75 Q396.7 213.55 394.65 212.35 391.35 208.7 391.45 204.5 390.5 205.8 387.45 206.15 384.95 205.35 383.8 203.55 L383.1 202.05 386.25 202.05 Q387.4 200.3 386.3 198.2 L382.5 198.2 382.7 196.95 Q394.15 193.95 396.35 190.1 L397.35 187.45 Q398.5 187.0 399.7 186.85 L399.75 186.85 402.05 187.45" fill="#000000" fill-rule="evenodd" stroke="none"/>
  </g>
</svg>
