<?xml version="1.0" encoding="UTF-8" standalone="no"?>
<svg xmlns:xlink="http://www.w3.org/1999/xlink" height="33.7px" width="46.4px" xmlns="http://www.w3.org/2000/svg">
  <g transform="matrix(1.0, 0.0, 0.0, 1.0, -376.65, -156.45)">
    <path d="M398.8 156.55 L399.85 156.45 400.9 156.55 Q407.4 157.05 412.15 159.15 415.55 160.55 417.55 162.85 418.65 163.5 419.3 169.9 L419.35 170.15 Q417.7 171.95 416.1 171.75 L414.6 171.9 414.3 171.9 399.85 172.4 385.4 171.9 385.15 171.9 383.6 171.75 Q382.0 171.95 380.4 170.15 L380.4 169.9 Q381.05 163.6 382.15 162.9 384.1 160.55 387.55 159.15 392.3 157.05 398.8 156.55 M380.1 173.45 Q381.85 175.55 383.6 175.35 L385.4 175.5 399.85 176.0 414.3 175.5 416.1 175.35 Q417.85 175.55 419.6 173.45 L421.3 177.55 423.05 189.4 Q419.45 191.05 419.0 188.95 L418.25 183.25 Q417.2 178.25 415.65 177.45 L411.1 177.65 400.05 178.1 399.85 178.1 399.75 178.1 399.65 178.1 388.6 177.65 384.05 177.45 Q382.5 178.25 381.45 183.25 L380.7 188.95 Q380.25 191.05 376.65 189.4 L378.4 177.55 380.1 173.45" fill="#000000" fill-rule="evenodd" stroke="none"/>
  </g>
</svg>
