<?xml version="1.0" encoding="UTF-8" standalone="no"?>
<svg xmlns:xlink="http://www.w3.org/1999/xlink" height="22.0px" width="56.7px" xmlns="http://www.w3.org/2000/svg">
  <g transform="matrix(1.0, 0.0, 0.0, 1.0, -371.25, -154.8)">
    <path d="M397.2 154.85 L401.2 154.8 401.5 154.8 Q409.55 155.45 414.3 161.4 413.3 166.4 414.95 170.65 408.6 168.65 399.6 169.15 L399.55 169.15 Q390.55 168.65 384.2 170.65 385.85 166.4 384.85 161.4 389.45 155.65 397.2 154.85 M386.8 172.25 Q386.2 172.7 386.2 173.35 386.2 174.0 386.8 174.45 387.3 174.9 388.1 174.9 388.85 174.9 389.4 174.45 389.95 174.0 389.95 173.35 389.95 172.7 389.4 172.25 388.85 171.8 388.1 171.8 387.3 171.8 386.8 172.25 M399.5 171.25 Q398.7 171.25 398.2 171.7 397.6 172.15 397.65 172.8 397.6 173.4 398.2 173.9 398.7 174.35 399.5 174.35 L399.6 174.35 Q400.3 174.3 400.85 173.9 L401.4 172.8 Q401.35 172.15 400.85 171.7 400.3 171.25 399.6 171.25 L399.5 171.25 M371.7 171.45 L374.4 172.55 Q378.6 167.0 376.2 161.85 L374.85 161.05 374.35 160.7 375.05 160.45 Q378.95 159.2 383.45 160.8 384.4 169.85 378.2 176.8 373.1 174.95 371.4 172.55 370.95 171.5 371.7 171.45 M380.15 176.6 Q382.55 174.2 383.85 171.55 399.6 168.8 415.35 171.55 416.5 174.0 418.65 176.25 L415.2 175.95 Q399.75 174.7 384.0 176.2 L380.15 176.6 M427.8 172.55 Q426.1 174.9 421.2 176.7 413.75 168.8 416.0 160.7 L424.15 160.45 425.0 160.9 424.6 161.15 423.3 161.95 Q420.9 167.0 424.95 172.5 L425.1 172.65 427.75 171.55 427.8 171.55 Q428.1 171.75 427.8 172.55 M411.05 171.8 Q410.3 171.8 409.75 172.25 409.2 172.7 409.2 173.35 409.2 174.0 409.75 174.45 410.3 174.9 411.05 174.9 411.85 174.9 412.4 174.45 412.95 174.0 412.95 173.35 412.95 172.7 412.4 172.25 411.85 171.8 411.05 171.8" fill="#000000" fill-rule="evenodd" stroke="none"/>
  </g>
</svg>
