<?xml version="1.0" encoding="UTF-8" standalone="no"?>
<svg xmlns:xlink="http://www.w3.org/1999/xlink" height="56.9px" width="76.6px" xmlns="http://www.w3.org/2000/svg">
  <g transform="matrix(1.0, 0.0, 0.0, 1.0, -361.5, -192.6)">
    <path d="M379.8 195.2 Q388.3 207.65 399.8 207.25 411.3 207.65 419.8 195.2 421.5 192.7 423.55 192.6 428.85 192.3 436.65 208.05 440.1 217.45 435.2 219.65 421.85 227.4 417.6 236.45 412.4 250.05 399.8 249.5 387.2 250.05 382.0 236.45 377.75 227.4 364.4 219.65 359.5 217.45 362.95 208.05 370.75 192.3 376.05 192.6 378.1 192.7 379.8 195.2 M376.5 202.45 L375.8 202.35 Q373.65 202.35 372.1 205.35 370.6 208.35 370.6 212.6 370.6 216.85 372.1 219.85 373.65 222.85 375.8 222.85 L376.5 222.8 377.2 222.85 Q379.35 222.85 380.85 219.85 382.4 216.85 382.4 212.6 382.4 208.35 380.85 205.35 379.35 202.35 377.2 202.35 L376.5 202.45 M427.5 219.85 Q429.0 216.85 429.0 212.6 429.0 208.35 427.5 205.35 425.95 202.35 423.8 202.35 L423.1 202.45 422.4 202.35 Q420.25 202.35 418.75 205.35 417.2 208.35 417.2 212.6 417.2 216.85 418.75 219.85 420.25 222.85 422.4 222.85 L423.1 222.8 423.8 222.85 Q425.95 222.85 427.5 219.85" fill="#000000" fill-rule="evenodd" stroke="none"/>
  </g>
</svg>
