<?xml version="1.0" encoding="UTF-8" standalone="no"?>
<svg xmlns:xlink="http://www.w3.org/1999/xlink" height="13.4px" width="46.35px" xmlns="http://www.w3.org/2000/svg">
  <g transform="matrix(1.0, 0.0, 0.0, 1.0, -376.6, -180.0)">
    <path d="M381.55 192.9 Q378.55 192.6 377.5 187.9 376.75 184.8 377.5 182.55 376.9 181.35 377.5 180.55 379.75 180.3 380.95 181.7 M418.65 181.7 Q419.85 180.3 422.1 180.55 422.7 181.35 422.1 182.55 422.85 184.8 422.1 187.9 421.05 192.6 418.05 192.9" fill="none" stroke="#000000" stroke-linecap="round" stroke-linejoin="round" stroke-width="1.0"/>
    <path d="M377.5 182.55 Q379.65 182.65 380.1 185.05 M380.95 181.7 Q383.5 184.45 382.65 192.85 L381.55 192.9 M379.45 187.9 Q379.35 186.8 380.1 186.4 380.55 186.15 381.3 186.0 M422.1 182.55 Q419.95 182.65 419.5 185.05 M418.05 192.9 L416.95 192.85 Q416.1 184.45 418.65 181.7 M420.15 187.9 Q420.25 186.8 419.5 186.4 L418.3 186.0" fill="none" stroke="#000000" stroke-linecap="round" stroke-linejoin="round" stroke-opacity="0.5019608" stroke-width="1.0"/>
  </g>
</svg>
