<?xml version="1.0" encoding="UTF-8" standalone="no"?>
<svg xmlns:xlink="http://www.w3.org/1999/xlink" height="13.2px" width="32.4px" xmlns="http://www.w3.org/2000/svg">
  <g transform="matrix(1.0, 0.0, 0.0, 1.0, -383.7, -152.35)">
    <path d="M400.65 160.1 Q400.25 159.55 399.9 159.55 399.5 159.5 399.15 160.1 L396.6 164.75 Q396.05 165.75 395.3 165.5 388.7 164.15 385.3 162.65 384.2 162.15 384.1 161.45 L383.7 153.7 Q383.65 152.7 384.8 152.55 L399.9 153.2 415.0 152.55 Q416.15 152.7 416.1 153.7 L415.7 161.45 Q415.6 162.15 414.5 162.65 411.1 164.15 404.5 165.5 403.75 165.75 403.2 164.75 L400.65 160.1" fill="#000000" fill-rule="evenodd" stroke="none"/>
  </g>
</svg>
