<?xml version="1.0" encoding="UTF-8" standalone="no"?>
<svg xmlns:xlink="http://www.w3.org/1999/xlink" height="26.6px" width="38.6px" xmlns="http://www.w3.org/2000/svg">
  <g transform="matrix(1.0, 0.0, 0.0, 1.0, -380.6, -160.85)">
    <path d="M386.55 166.55 L386.65 167.8 387.3 172.25 387.35 172.7 387.7 175.45 385.7 175.3 Q384.55 175.65 384.35 177.5 L384.25 177.4 382.65 167.5 Q383.8 167.7 384.75 167.5 385.75 167.25 386.55 166.55 M380.6 163.15 Q380.6 162.2 381.25 161.5 381.95 160.85 382.9 160.85 383.7 160.85 384.3 161.35 L384.5 161.5 Q385.2 162.2 385.2 163.15 385.2 164.1 384.5 164.75 383.85 165.45 382.9 165.45 382.15 165.45 381.55 165.0 L381.25 164.75 Q380.6 164.1 380.6 163.15 M399.9 187.45 Q396.3 187.55 394.3 186.4 L392.1 184.4 Q399.1 178.1 407.85 184.3 L405.5 186.4 Q404.4 187.0 402.85 187.3 L399.9 187.45 M413.25 166.4 Q414.0 167.4 415.2 167.6 L417.2 167.5 415.55 177.4 Q415.15 175.6 414.05 175.25 L412.1 175.45 412.5 172.7 412.55 172.25 Q412.9 169.35 413.2 167.8 L413.25 166.4 M418.55 161.5 Q419.2 162.2 419.2 163.15 419.2 164.1 418.55 164.75 L418.25 165.0 Q417.65 165.45 416.9 165.45 415.95 165.45 415.3 164.75 414.6 164.1 414.6 163.15 414.6 162.2 415.3 161.5 L415.5 161.35 Q416.1 160.85 416.9 160.85 417.85 160.85 418.55 161.5" fill="#000000" fill-rule="evenodd" stroke="none"/>
  </g>
</svg>
