<?xml version="1.0" encoding="UTF-8" standalone="no"?>
<svg xmlns:xlink="http://www.w3.org/1999/xlink" height="24.35px" width="40.3px" xmlns="http://www.w3.org/2000/svg">
  <g transform="matrix(1.0, 0.0, 0.0, 1.0, -379.8, -128.1)">
    <path d="M397.65 130.6 L399.95 130.4 402.25 130.6 M380.7 146.8 Q388.65 137.7 399.95 137.8 411.25 137.7 419.2 146.8" fill="none" stroke="#000000" stroke-linecap="round" stroke-linejoin="round" stroke-opacity="0.5019608" stroke-width="1.0"/>
    <path d="M402.25 130.6 Q402.15 128.75 399.95 128.6 397.75 128.75 397.65 130.6 389.1 131.55 380.95 139.15 L380.7 146.8 M419.2 146.8 L418.95 139.15 Q410.8 131.55 402.25 130.6 M419.2 146.8 L419.6 150.6 Q414.15 153.95 411.75 149.05 408.25 140.8 399.95 141.15 391.65 140.8 388.15 149.05 385.75 153.95 380.3 150.6 L380.7 146.8" fill="none" stroke="#000000" stroke-linecap="round" stroke-linejoin="round" stroke-width="1.0"/>
  </g>
</svg>
