<?xml version="1.0" encoding="UTF-8" standalone="no"?>
<svg xmlns:xlink="http://www.w3.org/1999/xlink" height="133.6px" width="81.35px" xmlns="http://www.w3.org/2000/svg">
  <g transform="matrix(1.0, 0.0, 0.0, 1.0, 200.85, 16.25)">
    <path d="M-179.5 -9.3 L-174.65 -3.35 -174.65 10.0 -176.25 10.0 -176.25 19.75 -173.5 25.95 -173.5 28.9 -161.95 38.1 -172.1 36.3 -175.35 33.25 -182.5 24.95 -182.5 8.55 -184.35 2.4 -184.35 -16.25 -179.5 -12.55 -179.5 -9.3 M-142.05 90.25 L-142.05 85.15 -137.65 81.4 -138.8 87.0 -138.65 93.45 -142.05 90.25 M-122.95 60.1 L-122.95 54.35 -119.5 48.4 -119.5 60.55 -122.55 67.0 -122.55 74.7 -125.25 77.65 -128.3 74.4 -128.3 71.85 -125.95 67.9 -125.95 63.35 -122.95 60.1 M-159.8 117.35 L-161.6 117.35 -162.85 111.05 -165.75 107.15 -165.75 101.95 -169.0 97.35 -169.0 91.25 -173.35 86.75 -173.15 83.7 -177.85 76.3 -174.65 68.95 -169.9 72.6 -165.95 79.55 -165.95 83.2 -162.05 89.5 -162.05 94.55 -159.8 103.5 -159.8 117.35 M-194.0 18.1 L-194.0 21.85 -191.2 25.3 -191.2 30.1 -193.3 31.95 -193.3 34.8 -195.1 36.4 -195.1 39.1 -197.45 41.65 -197.45 34.8 -195.8 29.95 -195.8 23.85 -198.75 20.45 -198.75 16.95 -200.85 11.2 -196.55 14.7 -194.0 18.1 M-187.05 55.95 L-188.25 50.4 -183.8 54.1 -183.8 59.2 -187.25 62.45 -187.05 55.95" fill="#000000" fill-opacity="0.2509804" fill-rule="evenodd" stroke="none"/>
  </g>
</svg>
