<?xml version="1.0" encoding="UTF-8" standalone="no"?>
<svg xmlns:xlink="http://www.w3.org/1999/xlink" height="426.6px" width="408.5px" xmlns="http://www.w3.org/2000/svg">
  <g transform="matrix(1.0, 0.0, 0.0, 1.0, 0.0, 0.0)">
    <path d="M371.35 42.8 L371.35 46.95 372.95 49.75 372.95 56.25 370.0 58.45 370.0 63.6 366.05 66.3 363.7 63.8 363.7 61.1 361.9 59.45 361.9 56.65 359.8 54.8 359.8 50.0 362.65 46.5 362.65 42.8 365.15 39.35 369.5 35.9 369.5 40.25 371.35 42.8 M330.55 64.2 L335.3 60.55 339.0 68.85 339.0 74.4 342.65 80.55 342.65 97.7 338.7 101.4 338.7 105.9 334.85 108.95 334.85 112.65 332.0 116.15 325.95 112.45 323.55 112.45 322.25 108.95 320.45 108.95 320.45 95.1 322.7 86.15 322.7 81.15 326.6 74.85 326.6 71.15 330.55 64.2 M373.0 140.05 L376.55 137.95 376.55 142.1 377.9 144.2 377.9 151.3 380.2 153.6 380.2 155.4 383.8 158.65 386.0 164.25 386.0 166.75 388.5 168.4 388.5 187.05 386.65 193.2 386.65 209.6 379.5 217.9 376.25 220.95 366.1 222.75 361.8 217.3 360.35 211.7 358.25 208.45 358.25 193.75 356.45 188.5 356.45 178.05 361.8 173.0 361.8 166.5 363.6 164.25 363.6 162.6 367.1 159.4 370.8 154.5 370.8 144.4 373.0 140.05 M406.85 206.9 L408.5 209.7 408.5 216.2 405.55 218.4 405.55 223.6 401.6 226.3 399.25 223.75 399.25 221.05 397.45 219.45 397.45 216.6 395.35 214.75 395.35 209.95 398.15 206.5 398.15 202.75 400.7 199.35 405.0 195.85 405.0 200.25 406.85 202.75 406.85 206.9 M395.35 238.1 L395.35 243.85 391.4 247.1 387.95 243.85 387.95 238.75 392.4 235.05 395.35 238.1 M336.8 233.05 L336.8 250.5 332.45 256.5 332.45 259.05 329.4 262.3 326.7 259.35 326.7 251.65 323.65 245.2 323.65 233.05 326.9 229.5 326.9 224.8 328.9 219.0 333.6 223.6 333.6 228.9 336.8 233.05 M338.8 269.1 L341.8 266.05 346.2 269.8 346.2 274.9 342.8 278.1 338.8 274.9 338.8 269.1 M374.05 257.25 L378.8 253.6 382.0 260.95 382.5 261.85 382.5 267.45 386.15 273.55 386.15 290.7 382.2 294.45 382.2 298.95 378.35 302.0 378.35 305.65 375.5 309.2 369.4 305.5 367.0 305.5 365.75 302.0 363.95 302.0 363.95 288.15 366.2 279.2 366.2 274.15 370.1 267.85 370.1 264.2 374.05 257.25 M260.3 34.45 L256.9 37.7 252.95 34.45 252.95 28.7 255.95 25.6 260.3 29.35 260.3 34.45 M270.55 3.7 L270.55 8.8 267.15 12.05 263.2 8.8 263.2 3.05 266.2 0.0 270.55 3.7 M168.95 194.5 L168.95 199.3 166.85 201.15 166.85 203.95 165.05 205.6 165.05 208.3 162.7 210.8 158.75 208.1 158.75 202.95 155.8 200.75 155.8 194.25 157.45 191.45 157.45 187.3 159.3 184.75 159.3 180.4 163.6 183.85 166.15 187.3 166.15 191.0 168.95 194.5 M239.55 194.5 L242.35 191.0 242.35 187.3 244.9 183.85 249.2 180.4 249.2 184.75 251.05 187.3 251.05 191.45 252.7 194.25 252.7 200.75 249.75 202.95 249.75 208.1 245.8 210.8 243.45 208.3 243.45 205.6 241.65 203.95 241.65 201.15 239.55 199.3 239.55 194.5 M285.0 136.55 L280.7 142.55 280.7 145.1 277.65 148.3 274.95 145.4 274.95 137.7 271.85 131.2 271.85 119.1 275.1 115.55 275.1 110.8 277.15 105.05 281.85 109.6 281.85 114.95 285.0 119.1 285.0 136.55 M145.3 3.05 L145.3 8.8 141.35 12.05 137.95 8.8 137.95 3.7 142.3 0.0 145.3 3.05 M85.8 81.15 L85.8 86.15 88.05 95.1 88.05 108.95 86.25 108.95 84.95 112.45 82.55 112.45 76.5 116.15 73.65 112.65 73.65 108.95 69.8 105.9 69.8 101.4 65.85 97.7 65.85 80.55 69.5 74.4 69.5 68.85 73.2 60.55 77.95 64.2 81.9 71.15 81.9 74.85 85.8 81.15 M155.55 34.45 L151.6 37.7 148.2 34.45 148.2 29.35 152.55 25.6 155.55 28.7 155.55 34.45 M45.85 46.5 L48.7 50.0 48.7 54.8 46.6 56.65 46.6 59.45 44.8 61.1 44.8 63.8 42.45 66.3 38.5 63.6 38.5 58.45 35.55 56.25 35.55 49.75 37.15 46.95 37.15 42.8 39.0 40.25 39.0 35.9 43.35 39.35 45.85 42.8 45.85 46.5 M136.65 245.3 L140.3 239.2 140.3 233.6 140.8 232.7 144.05 225.35 148.75 229.0 152.75 235.95 152.75 239.6 156.65 245.9 156.65 250.95 158.85 259.9 158.85 273.75 157.05 273.75 155.8 277.25 153.4 277.25 147.35 280.95 144.45 277.4 144.45 273.75 140.6 270.7 140.6 266.2 136.65 262.5 136.65 245.3 M131.35 105.05 L133.4 110.8 133.4 115.55 136.65 119.1 136.65 131.2 133.55 137.7 133.55 145.4 130.85 148.3 127.8 145.1 127.8 142.55 123.5 136.55 123.5 119.1 126.65 114.95 126.65 109.6 131.35 105.05 M30.6 144.2 L31.95 142.1 31.95 137.95 35.5 140.05 37.7 144.4 37.7 154.5 41.4 159.4 44.9 162.6 44.9 164.25 46.7 166.5 46.7 173.0 52.05 178.05 52.05 188.5 50.25 193.75 50.25 208.45 48.15 211.7 46.7 217.3 42.4 222.75 32.25 220.95 29.0 217.9 21.85 209.6 21.85 193.2 20.0 187.05 20.0 168.4 22.5 166.75 22.5 164.25 24.7 158.65 28.3 155.4 28.3 153.6 30.6 151.3 30.6 144.2 M84.85 233.05 L84.85 245.2 81.8 251.65 81.8 259.35 79.1 262.3 76.05 259.05 76.05 256.5 71.7 250.5 71.7 233.05 74.9 228.9 74.9 223.6 79.6 219.0 81.6 224.8 81.6 229.5 84.85 233.05 M13.15 209.95 L13.15 214.75 11.05 216.6 11.05 219.45 9.25 221.05 9.25 223.75 6.9 226.3 2.95 223.6 2.95 218.4 0.0 216.2 0.0 209.7 1.65 206.9 1.65 202.75 3.5 200.25 3.5 195.85 7.8 199.35 10.35 202.75 10.35 206.5 13.15 209.95 M66.7 266.05 L69.7 269.1 69.7 274.9 65.7 278.1 62.3 274.9 62.3 269.8 66.7 266.05 M26.5 260.95 L29.7 253.6 34.45 257.25 38.4 264.2 38.4 267.85 42.3 274.15 42.3 279.2 44.55 288.15 44.55 302.0 42.75 302.0 41.5 305.5 39.1 305.5 33.0 309.2 30.15 305.65 30.15 302.0 26.3 298.95 26.3 294.45 22.35 290.7 22.35 273.55 26.0 267.45 26.0 261.85 26.5 260.95 M13.15 238.1 L16.1 235.05 20.55 238.75 20.55 243.85 17.1 247.1 13.15 243.85 13.15 238.1 M160.45 331.6 L162.05 328.8 162.05 324.65 163.95 322.15 163.95 317.75 168.25 321.25 170.75 324.65 170.75 328.35 173.6 331.85 173.6 336.65 171.5 338.5 171.5 341.35 169.7 342.95 169.7 345.65 167.35 348.15 163.4 345.45 163.4 340.3 160.45 338.1 160.45 331.6 M112.7 313.15 L115.7 316.25 115.7 322.0 111.75 325.25 108.35 322.0 108.35 316.9 112.7 313.15 M99.65 334.7 L104.0 331.0 107.0 334.05 107.0 339.8 103.05 343.05 99.65 339.8 99.65 334.7 M117.7 343.8 L117.7 348.5 120.95 352.05 120.95 364.2 117.9 370.65 117.9 378.35 115.2 381.3 112.15 378.05 112.15 375.5 107.8 369.5 107.8 352.05 111.0 347.9 111.0 342.6 115.7 338.0 117.7 343.8 M152.15 389.4 L152.15 371.95 155.35 367.8 155.35 362.45 160.05 357.9 162.05 363.65 162.05 368.4 165.3 371.95 165.3 384.05 162.25 390.55 162.25 398.2 159.55 401.15 156.5 397.9 156.5 395.4 152.15 389.4 M95.4 391.1 L98.4 394.15 98.4 399.9 94.45 403.15 91.05 399.9 91.05 394.8 95.4 391.1 M255.75 235.95 L259.75 229.0 264.45 225.35 267.7 232.7 268.2 233.6 268.2 239.2 271.85 245.3 271.85 262.5 267.9 266.2 267.9 270.7 264.05 273.75 264.05 277.4 261.15 280.95 255.1 277.25 252.7 277.25 251.45 273.75 249.65 273.75 249.65 259.9 251.85 250.95 251.85 245.9 255.75 239.6 255.75 235.95 M240.25 321.25 L244.55 317.75 244.55 322.15 246.45 324.65 246.45 328.8 248.05 331.6 248.05 338.1 245.1 340.3 245.1 345.45 241.15 348.15 238.8 345.65 238.8 342.95 237.0 341.35 237.0 338.5 234.9 336.65 234.9 331.85 237.75 328.35 237.75 324.65 240.25 321.25 M295.8 313.15 L300.15 316.9 300.15 322.0 296.75 325.25 292.8 322.0 292.8 316.25 295.8 313.15 M301.5 334.05 L304.5 331.0 308.85 334.7 308.85 339.8 305.45 343.05 301.5 339.8 301.5 334.05 M313.1 391.1 L317.45 394.8 317.45 399.9 314.05 403.15 310.1 399.9 310.1 394.15 313.1 391.1 M246.45 368.4 L246.45 363.65 248.45 357.9 253.15 362.45 253.15 367.8 256.35 371.95 256.35 389.4 252.0 395.4 252.0 397.9 248.95 401.15 246.25 398.2 246.25 390.55 243.2 384.05 243.2 371.95 246.45 368.4 M290.8 343.8 L292.8 338.0 297.5 342.6 297.5 347.9 300.7 352.05 300.7 369.5 296.35 375.5 296.35 378.05 293.3 381.3 290.6 378.35 290.6 370.65 287.55 364.2 287.55 352.05 290.8 348.5 290.8 343.8 M73.45 414.55 L77.9 418.25 77.9 423.35 74.5 426.6 70.5 423.35 70.5 417.6 73.45 414.55 M330.6 418.25 L335.05 414.55 338.0 417.6 338.0 423.35 334.0 426.6 330.6 423.35 330.6 418.25" fill="#000000" fill-rule="evenodd" stroke="none"/>
  </g>
</svg>
