<?xml version="1.0" encoding="UTF-8" standalone="no"?>
<svg xmlns:xlink="http://www.w3.org/1999/xlink" height="87.45px" width="73.6px" xmlns="http://www.w3.org/2000/svg">
  <g transform="matrix(1.0, 0.0, 0.0, 1.0, -363.05, -58.3)">
    <path d="M434.25 58.3 Q434.25 60.65 433.8 62.7 433.5 63.9 433.35 65.1 433.05 67.7 432.25 70.15 L431.5 72.05 Q430.45 73.8 429.8 74.0 427.4 75.75 425.2 74.5 422.1 72.9 419.0 74.75 L416.9 75.4 414.1 75.9 Q413.0 77.4 410.25 74.45 412.1 73.8 412.4 73.2 413.0 71.75 414.9 70.2 417.0 68.5 418.15 66.6 421.5 65.7 423.65 65.5 426.75 65.15 429.55 62.55 L431.25 60.75 Q432.25 59.65 434.25 58.3 M384.85 70.2 Q386.8 71.75 387.35 73.2 387.65 73.8 389.5 74.45 386.8 77.4 385.65 75.9 L382.85 75.4 380.8 74.75 Q377.65 72.9 374.55 74.5 372.35 75.75 369.95 74.0 369.3 73.8 368.25 72.05 L367.55 70.15 Q366.7 67.7 366.4 65.1 L365.95 62.7 Q365.55 60.65 365.55 58.3 367.55 59.65 368.5 60.75 L370.2 62.55 Q373.0 65.15 376.1 65.5 378.25 65.7 381.6 66.6 382.8 68.5 384.85 70.2 M414.45 88.2 L415.15 96.4 Q415.5 98.35 415.5 100.5 L415.5 103.65 Q418.75 102.0 421.05 99.4 L423.3 96.35 Q425.0 93.9 426.6 92.35 429.0 88.6 431.1 86.75 L434.95 83.75 Q436.25 84.55 436.0 86.9 435.7 90.65 435.7 94.3 L435.7 120.4 Q435.7 122.3 436.0 124.1 436.9 129.5 436.6 135.4 L436.15 139.6 Q435.4 143.75 432.95 144.95 431.2 145.95 430.6 145.7 L427.65 141.65 Q428.75 137.2 426.75 134.15 425.8 128.95 421.0 125.0 417.65 126.05 417.35 129.2 417.35 131.15 416.6 133.0 416.25 136.0 415.8 136.75 414.6 140.55 413.3 142.6 411.0 143.75 409.5 143.55 L405.8 143.4 Q403.45 143.9 399.9 143.5 396.35 143.9 393.95 143.4 L390.25 143.55 Q388.8 143.75 386.5 142.6 385.15 140.55 383.95 136.75 383.5 136.0 383.15 133.0 382.4 131.15 382.4 129.2 382.1 126.05 378.8 125.0 373.95 128.95 373.0 134.15 371.0 137.2 372.1 141.65 L369.15 145.7 Q368.55 145.95 366.8 144.95 364.35 143.75 363.6 139.6 363.3 137.55 363.15 135.4 362.85 129.5 363.75 124.1 L364.05 120.4 364.05 94.3 363.75 86.9 Q363.55 84.55 364.8 83.75 L368.65 86.75 Q370.8 88.6 373.15 92.35 374.8 93.9 376.5 96.35 L378.7 99.4 Q381.0 102.0 384.25 103.65 L384.25 100.5 Q384.25 98.35 384.65 96.4 L385.3 88.2 Q386.1 85.6 390.55 85.9 393.45 88.75 397.65 87.95 398.55 87.8 399.9 86.45 401.2 87.8 402.1 87.95 406.3 88.75 409.2 85.9 413.65 85.6 414.45 88.2" fill="#000000" fill-rule="evenodd" stroke="none"/>
  </g>
</svg>
