<?xml version="1.0" encoding="UTF-8" standalone="no"?>
<svg xmlns:xlink="http://www.w3.org/1999/xlink" height="15.45px" width="81.9px" xmlns="http://www.w3.org/2000/svg">
  <g transform="matrix(1.0, 0.0, 0.0, 1.0, 0.0, 0.0)">
    <path d="M80.05 1.9 L79.4 2.15 78.6 2.8 77.9 3.3 Q77.1 3.85 76.85 4.3 L76.5 4.7 75.85 5.45 74.9 6.3 Q74.5 6.3 74.35 6.45 L74.0 6.9 73.35 7.45 72.15 7.95 71.1 8.25 Q70.95 8.3 70.75 8.85 70.6 9.35 69.9 9.25 L69.5 9.1 69.05 9.05 65.65 8.9 Q64.95 9.1 64.45 9.55 L63.15 10.55 62.1 11.5 61.7 11.95 61.0 12.4 60.35 12.6 59.35 12.95 58.6 13.0 57.85 13.05 57.3 13.2 56.65 13.3 56.15 13.4 54.75 13.65 Q54.75 14.6 53.9 14.9 L52.45 15.35 51.8 15.4 Q50.9 15.6 50.6 15.2 L50.35 14.95 49.15 13.9 Q48.85 13.45 48.25 13.45 L46.95 13.4 Q46.6 13.4 46.5 13.15 L45.25 11.55 45.05 10.8 45.0 10.35 44.3 9.3 43.85 8.25 44.0 7.75 44.15 7.35 44.3 6.9 Q44.35 6.7 44.55 6.45 L45.85 4.8 46.45 4.1 46.7 3.85 47.25 3.2 Q47.8 2.45 48.9 2.25 L49.55 2.2 53.7 1.7 54.05 1.45 54.7 0.65 Q55.0 0.45 55.2 0.4 L56.65 0.5 57.15 0.65 Q58.05 0.7 58.75 1.1 59.9 1.95 61.3 1.8 L62.5 1.75 63.7 0.3 Q62.95 3.05 63.05 4.05 64.35 4.7 65.4 3.2 66.5 1.7 66.75 2.1 67.1 2.4 68.25 1.6 69.45 0.85 70.2 1.75 71.05 2.6 71.85 2.2 L73.15 1.6 Q74.5 1.05 76.0 1.15 L76.5 1.15 Q78.6 1.25 81.9 0.0 L80.85 0.9 80.4 1.35 80.05 1.9 M35.5 4.1 L36.1 4.8 37.4 6.45 37.65 6.9 37.8 7.35 37.9 7.75 38.1 8.25 37.65 9.3 Q37.25 9.6 36.95 10.35 L36.85 10.8 36.7 11.55 35.45 13.15 35.0 13.4 33.7 13.45 Q33.1 13.45 32.8 13.9 L31.6 14.95 31.35 15.2 Q31.0 15.6 30.1 15.4 L29.45 15.35 Q28.8 15.4 28.05 14.9 27.2 14.6 27.2 13.65 L25.75 13.4 25.3 13.3 24.65 13.2 24.05 13.05 23.35 13.0 22.55 12.95 Q22.25 12.8 21.6 12.6 L20.95 12.4 20.25 11.95 19.85 11.5 18.8 10.55 17.5 9.55 Q17.0 9.1 16.25 8.9 L12.9 9.05 12.45 9.1 12.05 9.25 Q11.35 9.35 11.2 8.85 L10.8 8.25 9.75 7.95 8.6 7.45 7.95 6.9 7.55 6.45 Q7.45 6.3 7.05 6.3 L6.05 5.45 5.4 4.7 5.1 4.3 4.05 3.3 3.35 2.8 2.55 2.15 Q2.15 2.15 1.9 1.9 L1.5 1.35 0.0 0.0 1.1 0.85 0.8 0.6 0.0 0.0 Q3.35 1.25 5.4 1.15 L5.95 1.15 Q7.45 1.05 8.8 1.6 L10.1 2.2 Q10.85 2.6 11.7 1.75 12.5 0.85 13.65 1.6 14.85 2.4 15.15 2.1 15.4 1.7 16.55 3.2 17.55 4.7 18.85 4.05 19.0 3.05 18.2 0.3 L19.45 1.75 20.6 1.8 Q22.05 1.95 23.15 1.1 23.85 0.7 24.8 0.65 L25.3 0.5 26.75 0.4 27.25 0.65 27.9 1.45 28.25 1.7 32.4 2.2 33.05 2.25 Q34.15 2.45 34.65 3.2 L35.25 3.85 35.5 4.1" fill="#000000" fill-rule="evenodd" stroke="none"/>
  </g>
</svg>
