<?xml version="1.0" encoding="UTF-8" standalone="no"?>
<svg xmlns:xlink="http://www.w3.org/1999/xlink" height="73.45px" width="32.75px" xmlns="http://www.w3.org/2000/svg">
  <g transform="matrix(1.0, 0.0, 0.0, 1.0, -345.45, -362.6)">
    <path d="M353.45 375.0 Q353.5 374.85 353.9 374.85 354.8 375.25 355.9 376.45 L356.4 377.1 357.65 379.2 358.3 381.0 358.25 381.15 M359.05 383.75 L359.5 383.65 359.9 383.95 360.15 385.1 360.1 385.25 359.95 385.45 359.55 385.45 M359.7 386.25 L360.0 386.25 360.8 387.4 360.8 387.55 361.85 391.1 Q362.0 391.8 361.75 392.0 M366.7 408.7 Q367.6 409.15 367.7 409.6 L367.75 409.9 367.75 410.1 369.85 420.3 370.45 422.1 370.75 423.35 Q370.85 423.9 371.35 423.75 L371.8 423.7 373.95 423.35 374.2 423.0 372.45 413.65 372.4 413.4 371.95 411.0 371.85 410.55 371.8 410.4 369.8 399.55 369.8 398.9 367.45 399.2 Q365.75 399.0 364.95 397.15 363.7 394.05 362.65 389.4 361.75 385.7 361.35 383.2 361.2 380.7 362.65 379.8 L362.95 379.65 Q363.65 379.4 364.35 379.85 L364.45 379.9 Q365.2 380.6 366.45 383.9 367.05 383.7 367.25 382.95 L367.35 382.5 367.35 382.45 367.5 382.45 M355.75 378.15 Q355.9 378.0 356.2 378.15 L356.35 378.3 356.5 378.4 Q356.8 378.9 356.5 379.65 L356.25 380.1 355.85 380.9 Q356.3 380.5 356.8 380.5 L357.25 380.55 357.45 380.9 Q357.75 381.15 357.4 381.2 M359.3 388.85 L357.1 388.9 M355.85 380.9 L355.85 381.3 356.25 380.9 Q356.95 380.6 357.45 380.9 M355.85 381.3 L355.45 381.7 M363.2 380.3 Q362.7 380.55 362.9 381.0 L363.7 380.4 363.2 380.3 M362.95 379.65 Q361.4 380.75 361.65 382.8 362.05 385.4 362.75 387.75 L364.0 392.7 Q364.75 392.75 364.95 393.45 L365.4 395.15 Q365.65 396.75 365.85 397.25 L365.9 397.35 Q366.45 398.55 367.65 398.7 368.3 398.65 368.35 398.25 L368.3 396.9 Q368.15 396.15 368.6 395.55 368.9 395.25 368.8 394.95 L368.55 394.9 368.5 395.15 368.4 395.35 368.35 395.4 368.25 395.55 368.2 395.65 368.1 395.85 368.05 396.05 368.0 396.3 367.95 396.55 367.95 396.7 367.95 396.85 367.95 396.9 368.05 397.8 368.1 397.95 368.05 398.1 368.05 398.3 367.8 398.4 367.55 398.4 367.45 398.4 Q366.65 398.3 366.2 396.95 L366.0 396.15 365.55 394.15 Q365.15 392.5 364.45 392.45 L364.2 392.0 362.5 384.85 362.35 384.3 362.35 384.2 362.1 382.35 362.2 381.5 362.2 381.45 Q362.5 380.4 363.05 380.0 L364.15 380.1 364.15 380.55 364.05 380.85 364.05 380.9 364.05 381.0 364.2 381.5 365.05 382.4 365.7 383.25 365.75 383.3 365.75 383.4 366.15 384.05 366.45 383.95 365.5 382.4 364.35 381.2 364.45 380.3 364.45 379.9 M363.9 380.8 L363.85 380.55 363.0 381.25 363.55 381.3 Q363.95 381.2 363.9 380.8 M362.9 381.0 L362.9 381.05 363.0 381.25 M365.7 383.25 L364.85 382.6 364.15 382.6 364.0 382.65 Q362.95 383.3 363.0 384.25 363.15 385.65 364.0 385.85 364.5 386.1 365.05 385.85 L365.8 385.45 Q366.1 385.2 367.1 384.85 L368.45 384.95 368.5 385.0 368.65 385.05 368.05 385.15 Q367.75 385.25 367.9 385.4 L368.0 385.35 368.65 385.45 M364.0 382.65 L363.95 382.65 363.75 382.75 363.55 382.8 Q362.95 383.15 362.7 383.7 L362.65 383.9 362.65 384.3 Q362.6 385.2 363.2 385.8 363.7 386.25 364.2 386.3 L364.35 386.3 365.35 386.1 365.65 385.9 365.85 385.75 365.9 385.75 366.25 385.4 366.55 385.2 366.95 385.05 368.05 385.15 M363.85 380.55 L363.7 380.4 M364.4 385.0 L364.5 385.05 365.0 383.6 Q364.5 383.45 364.15 383.9 363.9 384.6 364.4 385.0 M364.45 385.75 L364.7 385.75 365.65 385.35 366.5 384.7 Q366.55 384.35 366.2 384.45 365.8 384.45 365.5 383.75 L365.8 384.05 Q365.7 383.4 365.1 382.95 L364.95 382.9 364.8 382.8 Q364.0 382.65 363.4 383.4 363.1 384.3 363.45 385.15 363.85 385.65 364.45 385.75 M356.9 388.35 Q357.55 388.75 358.2 388.55 L359.5 387.65 Q359.95 387.3 359.75 387.05 L359.65 387.05 M359.15 385.2 L359.25 384.85 359.05 384.7 358.85 384.45 358.8 384.3 358.3 384.35 M358.3 384.3 Q358.3 384.15 358.75 384.15 L359.2 384.55 359.95 385.45 M359.8 388.65 L359.3 388.85 M376.6 383.2 L376.65 382.65 376.55 382.45 M376.15 382.55 L376.15 382.65 376.2 383.1 M371.2 386.4 L371.35 386.3 371.55 385.9 371.45 385.2 371.35 384.9 371.35 384.75 371.35 384.65 371.25 383.85 371.1 383.1 371.1 382.95 371.05 382.95 370.6 382.1 370.5 382.05 Q369.9 381.45 368.95 381.8 368.5 381.95 368.2 382.25 L368.05 382.45 368.15 382.75 368.15 382.9 Q368.3 382.25 369.1 382.2 L369.85 382.15 Q370.15 382.05 370.35 382.35 L370.7 382.8 370.8 383.1 370.85 383.35 370.9 383.7 371.2 385.8 371.2 385.85 Q371.25 386.25 370.85 386.25 M368.05 382.45 L367.95 382.35 367.8 382.25 M367.25 382.95 L367.1 383.55 Q366.55 384.15 366.15 384.05 M368.15 382.9 Q368.05 383.7 368.35 384.3 L368.6 384.25 Q369.0 384.75 369.75 384.65 L369.85 384.6 370.0 384.1 370.1 384.05 369.8 383.85 369.7 383.4 Q369.7 383.0 370.0 383.1 L369.95 383.0 369.3 382.35 369.1 382.2 M371.8 382.05 L371.75 382.2 371.5 382.25 371.65 382.85 371.8 382.9 371.85 382.8 371.95 383.0 372.0 383.65 372.05 383.7 371.9 383.85 371.8 383.75 371.85 384.35 371.8 384.6 372.0 384.6 372.1 384.9 372.3 385.8 372.4 385.6 Q372.25 385.5 372.5 385.2 372.4 385.05 372.55 384.85 372.4 384.6 372.6 384.3 L372.25 381.75 371.85 381.8 371.8 382.05 M371.1 383.1 L371.2 382.95 371.35 383.05 371.45 382.95 371.55 383.0 371.65 382.85 M371.5 382.25 L370.6 382.1 M374.35 382.55 Q374.7 383.1 374.45 383.55 M373.95 383.6 L373.9 382.65 M372.85 384.15 L372.8 384.0 372.25 381.75 M372.3 385.8 L372.2 386.25 M371.8 383.75 L371.65 383.85 371.55 383.8 371.5 383.9 371.25 383.85 M371.35 384.9 L371.4 384.9 371.35 384.75 371.55 384.6 371.35 384.65 M371.8 384.6 L371.55 384.6 M370.0 383.1 L370.15 384.0 370.1 384.05 M370.2 385.25 L370.45 384.9 Q370.45 384.2 370.0 384.1 M370.0 385.25 L370.1 385.2 Q370.3 384.75 370.0 384.6 L369.85 384.6 M371.4 384.9 L371.45 385.2 371.65 386.0 371.75 386.6 Q371.6 386.85 371.45 386.7 M368.6 384.25 L368.65 384.6 368.35 384.3 M366.45 383.9 L366.45 383.95 M364.5 385.05 L364.65 385.1 Q365.0 384.6 365.15 383.7 L365.1 383.65 365.0 383.6 M365.15 383.7 Q365.65 384.0 365.45 384.6 L364.9 385.05 364.65 385.1 M366.55 385.2 L366.9 386.4 367.5 388.95 367.85 388.85 367.8 388.7 366.95 385.05 M367.85 388.85 L368.2 388.8 368.5 388.85 368.45 388.6 367.8 388.7 M368.2 388.8 L368.35 389.1 368.8 391.45 Q368.95 392.15 368.6 392.5 L368.85 392.4 369.1 392.1 369.05 391.4 368.7 389.6 368.5 388.85 M369.3 388.45 L368.45 388.6 M367.5 388.95 Q366.5 389.4 366.35 390.45 L366.35 390.6 366.35 390.95 366.35 391.0 366.4 391.05 366.4 391.15 366.4 391.2 366.4 391.3 366.45 391.4 Q366.7 392.15 367.45 392.5 L368.25 392.55 368.45 392.5 368.55 392.5 368.6 392.5 M372.5 391.8 L372.15 392.35 370.9 393.55 370.05 393.65 Q369.85 394.05 369.5 393.9 L369.4 393.85 369.3 393.45 Q369.25 392.7 368.6 392.75 L368.3 392.8 368.05 392.85 Q367.9 392.9 367.85 392.75 L367.55 392.85 367.5 393.0 367.65 394.05 Q367.8 394.5 368.1 394.75 L368.1 394.8 368.15 394.8 368.2 394.8 368.55 394.9 M367.55 392.85 L367.35 392.65 367.15 392.6 Q366.7 392.7 366.7 393.05 L367.55 396.85 Q367.6 397.3 367.35 397.35 L367.1 397.3 367.0 397.2 366.7 396.4 366.0 393.05 366.0 392.35 366.1 392.0 366.1 391.95 Q366.55 391.0 365.75 390.4 L365.65 390.1 365.2 390.05 365.05 390.1 Q364.6 390.15 364.65 390.3 L364.6 390.6 Q364.35 390.95 364.45 391.55 364.6 392.1 364.9 392.35 365.35 392.6 365.3 392.95 L365.55 394.15 M368.6 392.75 L368.55 392.5 M368.25 392.55 L368.3 392.8 M366.15 391.35 L366.1 391.6 365.85 391.9 365.2 391.85 364.9 391.45 364.9 391.25 365.0 391.05 365.4 390.7 Q366.0 390.6 366.15 391.2 L366.15 391.35 Q365.55 391.05 365.0 391.05 M367.35 392.65 L366.7 392.6 366.45 392.8 Q366.35 392.95 366.4 393.3 L367.2 396.95 367.2 397.0 367.1 397.3 M364.9 391.25 L366.1 391.6 M366.2 396.95 L366.7 397.65 366.8 397.7 367.0 397.8 367.25 397.85 367.45 397.8 367.55 397.75 Q367.6 397.65 367.7 397.65 L367.7 397.55 367.75 397.5 367.75 397.35 367.8 397.2 367.8 397.1 367.8 397.0 367.75 396.9 367.75 396.75 367.75 396.65 367.1 393.75 367.05 393.6 367.0 393.35 367.0 393.15 367.0 393.0 367.15 392.9 Q367.3 392.8 367.4 393.0 L367.4 393.2 367.45 393.45 367.45 393.6 367.5 393.85 367.6 394.1 367.7 394.35 367.9 394.65 368.1 394.75 M369.05 393.45 L369.05 393.6 369.1 393.6 369.1 393.75 Q369.1 394.35 368.5 394.45 L367.95 394.05 367.9 394.05 367.9 393.9 367.9 393.8 367.9 393.65 Q368.05 393.1 368.55 393.15 368.85 393.2 369.0 393.45 L369.05 393.45 Q368.55 393.85 367.9 393.9 M368.8 394.95 L369.0 394.95 369.6 394.8 369.75 394.75 369.9 394.65 370.45 394.35 M369.1 393.6 L367.95 394.05 M369.4 393.85 L369.1 392.1 M372.45 391.8 Q371.6 392.3 370.85 393.2 370.5 393.75 370.1 393.6 L370.05 393.65 M370.15 393.15 L369.9 393.5 369.7 393.75 369.65 393.85 369.5 393.9 M376.65 396.5 Q377.15 396.2 377.05 395.7 L376.9 395.25 376.3 394.35 375.25 393.5 374.65 393.25 Q373.7 392.8 373.3 392.2 M373.2 382.55 Q373.55 383.25 373.3 383.75 M373.4 382.4 Q373.75 383.1 373.5 383.95 M374.55 382.45 Q374.95 383.1 374.7 383.7 M373.15 410.15 L372.4 410.1 Q372.35 410.4 371.8 410.4 M373.7 413.25 L372.45 413.65 M373.6 412.95 Q373.35 413.25 372.4 413.4 M373.25 410.65 L371.95 411.0 M373.15 410.2 L371.85 410.55 M366.9 409.65 L367.2 409.65 Q367.6 409.6 367.75 409.9 M371.2 425.1 L371.1 424.9 370.85 424.35 370.45 422.1 M372.05 424.95 L371.8 423.7 M377.1 432.9 Q375.55 433.7 373.65 433.6 M373.7 434.1 Q375.4 434.4 377.35 433.5 M377.55 434.0 Q375.5 434.9 373.6 434.7 M369.0 394.95 L369.8 398.9 M372.4 410.1 L369.6 394.8" fill="none" stroke="#000000" stroke-linecap="round" stroke-linejoin="round" stroke-opacity="0.5019608" stroke-width="1.0"/>
    <path d="M367.5 382.45 Q366.25 379.15 364.15 376.0 361.3 371.55 356.95 368.65 354.8 367.05 353.35 365.1 352.9 364.35 351.95 363.55 351.2 363.0 349.8 363.1 344.55 366.25 346.5 371.95 347.25 373.25 349.05 373.35 L351.25 373.65 353.45 375.0 Q353.25 375.2 353.85 375.85 L355.05 377.1 355.1 377.15 Q355.75 377.7 355.75 378.15 L355.75 378.45 Q355.9 378.9 355.65 379.65 L354.65 381.3 Q353.7 382.5 353.5 383.8 353.25 385.35 353.7 386.55 354.55 388.2 355.65 388.8 357.4 389.8 359.3 388.85 360.25 388.95 360.3 389.9 360.7 391.6 361.05 391.95 L361.75 392.0 365.15 405.1 365.8 407.3 Q366.2 408.35 366.7 408.7 M358.25 381.15 Q358.9 382.55 359.05 383.75 M359.55 385.45 L359.7 386.25 M367.5 382.45 L367.75 382.35 367.7 382.3 367.8 382.25 Q368.05 381.45 369.35 381.2 L371.05 381.35 371.95 381.1 371.9 380.95 Q371.9 380.4 372.4 380.45 372.85 380.4 373.0 380.85 L372.85 381.55 372.85 382.15 372.85 382.2 373.0 382.5 373.2 382.55 373.4 382.4 373.75 382.4 373.9 382.65 374.35 382.55 374.55 382.45 Q374.9 382.1 375.5 382.15 L376.15 382.55 376.55 382.45 Q376.9 382.4 376.9 382.8 376.95 383.2 376.6 383.2 L376.5 383.15 376.2 383.1 376.2 383.25 375.75 383.7 Q375.1 384.0 374.7 383.7 L374.45 383.55 373.95 383.6 373.9 383.85 373.5 383.95 373.3 383.75 Q373.05 383.7 372.95 383.9 L372.95 383.95 372.85 384.15 372.95 385.15 372.55 386.0 372.2 386.25 372.05 386.4 Q371.65 387.05 371.45 386.7 L371.35 386.65 371.2 386.4 Q371.05 386.55 370.8 386.25 L370.85 386.25 Q370.4 386.2 370.2 385.25 L370.0 385.25 369.55 385.4 Q369.05 385.5 369.05 385.8 L368.8 385.8 368.85 385.6 368.85 385.55 368.65 385.45 369.3 388.45 370.15 393.15 371.35 392.0 371.7 391.75 372.05 391.65 Q372.4 391.6 372.45 391.8 L372.5 391.8 Q372.75 392.1 373.15 392.1 L373.3 392.2 375.2 393.3 Q376.75 394.4 377.1 395.25 L377.15 395.35 377.15 395.45 377.2 395.8 Q377.2 396.3 376.75 396.45 L376.65 396.5 376.4 396.3 375.25 394.8 Q374.6 394.25 373.25 394.15 372.4 393.9 372.1 393.45 L372.1 393.15 371.55 393.1 370.75 394.05 370.45 394.35 373.3 409.9 373.15 410.15 373.15 410.2 373.25 410.65 373.6 412.95 373.7 413.25 377.1 432.9 377.35 433.5 377.55 434.0 377.65 434.0 377.65 434.7 Q377.35 435.1 375.85 435.4 L373.8 435.35 373.6 434.7 373.7 434.5 373.7 434.1 373.65 434.0 373.65 433.6 372.05 424.95 371.2 425.1 Q371.5 425.7 370.9 425.9 L370.2 426.05 Q369.55 426.1 369.45 425.45 L369.5 424.6 366.9 409.65 366.7 408.7 M357.4 381.2 L358.25 381.15 M355.45 381.7 Q356.3 381.0 357.4 381.2 M355.45 381.7 Q354.9 382.35 354.65 383.4 354.5 384.7 354.85 385.8 355.45 387.6 356.45 388.2 L356.9 388.35 358.4 388.3 359.35 387.45 359.65 387.05 359.5 386.7 Q359.45 386.25 359.7 386.25 M358.3 384.35 Q357.1 384.5 356.35 385.55 356.3 386.25 356.65 386.0 357.95 385.1 359.15 385.2 L359.55 385.45 M358.3 384.35 L358.3 384.3 Q358.25 384.05 358.6 383.9 L358.65 383.9 359.05 383.75" fill="none" stroke="#000000" stroke-linecap="round" stroke-linejoin="round" stroke-width="1.0"/>
  </g>
</svg>
