<?xml version="1.0" encoding="UTF-8" standalone="no"?>
<svg xmlns:xlink="http://www.w3.org/1999/xlink" height="156.1px" width="53.0px" xmlns="http://www.w3.org/2000/svg">
  <g transform="matrix(1.0, 0.0, 0.0, 1.0, -327.0, -310.25)">
    <path d="M367.5 415.65 Q367.3 415.35 366.55 415.25 L364.3 415.3 Q363.05 415.5 362.25 416.0 361.4 416.45 361.5 416.95 L362.95 425.25 Q362.95 424.8 363.7 424.35 364.55 423.85 365.8 423.6 367.1 423.4 368.05 423.6 368.75 423.7 368.95 424.05 L367.5 415.65 M358.6 383.1 L358.7 382.9 357.7 377.25 357.55 377.05 Q356.35 376.05 354.95 376.25 353.6 376.5 352.85 377.85 L352.45 378.8 353.2 383.25 353.9 383.9 Q355.1 385.0 356.45 384.75 357.85 384.5 358.6 383.1 M358.85 366.7 L359.25 365.75 359.4 364.65 358.05 357.05 356.7 354.75 Q354.4 352.25 349.5 351.8 L343.85 352.75 Q341.2 353.55 341.15 355.55 L342.0 360.45 Q343.95 360.5 346.3 361.5 348.7 362.35 354.7 366.35 357.7 368.25 358.85 366.7 M354.4 311.85 L354.4 312.45 364.15 367.65 359.75 368.4 357.75 372.7 362.4 399.6 369.35 398.4 380.0 458.7 377.4 463.05 377.3 463.05 375.9 463.35 372.65 444.95 371.95 445.75 369.85 446.4 367.6 446.5 Q366.7 446.3 366.55 445.8 L369.65 463.05 369.65 463.25 369.1 464.55 358.75 466.35 Q356.4 465.3 356.05 463.75 L354.25 453.6 359.7 452.6 Q362.05 452.2 363.0 449.35 363.55 448.05 363.6 446.7 L358.6 418.35 351.95 412.35 347.15 413.2 343.55 392.7 347.55 386.1 351.6 385.35 352.25 384.15 350.45 374.05 Q344.4 370.65 341.65 370.2 L337.15 370.8 Q335.1 371.15 334.7 369.75 334.45 369.05 334.7 368.25 L338.15 361.9 334.15 341.65 330.4 337.8 327.0 318.45 327.1 316.65 Q327.05 315.85 327.4 315.5 328.3 314.75 333.75 314.55 L341.15 314.0 Q342.55 313.7 347.85 311.4 352.35 309.45 353.8 310.75 354.25 311.1 354.4 311.85 M368.3 425.1 Q367.35 424.9 366.1 425.1 364.8 425.35 364.0 425.85 363.15 426.3 363.2 426.7 L366.2 443.6 Q366.25 444.0 367.25 444.25 L369.4 444.15 371.55 443.5 372.25 442.7 369.25 425.55 Q369.0 425.15 368.3 425.1" fill="#ffffff" fill-rule="evenodd" stroke="none"/>
  </g>
</svg>
