<?xml version="1.0" encoding="UTF-8" standalone="no"?>
<svg xmlns:xlink="http://www.w3.org/1999/xlink" height="160.75px" width="36.0px" xmlns="http://www.w3.org/2000/svg">
  <g transform="matrix(1.0, 0.0, 0.0, 1.0, -352.45, -245.9)">
    <path d="M363.75 249.9 L363.85 249.7 Q364.05 249.5 364.3 249.45 L364.75 249.6 364.95 250.05 365.0 250.1 364.9 250.45 364.8 250.65 Q364.7 250.85 364.45 250.85 L364.0 250.7 363.7 250.2 363.75 249.9 M363.1 247.6 L363.3 249.3 352.6 250.65 352.45 248.85 363.1 247.6 M364.5 246.55 L364.5 246.6 364.45 246.85 364.35 247.05 363.95 247.25 363.55 247.1 363.3 246.65 363.35 246.3 363.4 246.15 Q363.55 245.95 363.85 245.9 L364.25 246.05 364.5 246.55 M363.55 251.2 L366.25 273.9 355.5 275.15 352.8 252.45 363.55 251.2 M376.55 338.75 L375.55 338.85 376.65 348.35 377.65 348.25 376.55 338.75 M382.9 336.6 L383.1 337.05 382.95 337.5 382.6 337.75 Q382.35 337.75 382.15 337.55 L381.95 337.2 382.05 336.75 382.45 336.55 382.9 336.6 M383.8 336.95 L383.65 336.45 388.3 335.9 388.45 337.0 383.8 337.55 383.8 336.95 M375.15 328.9 Q375.15 329.35 374.8 329.35 L374.1 329.45 374.25 330.85 374.65 331.2 375.35 337.25 376.35 337.15 376.3 336.15 378.4 335.85 Q379.45 336.15 380.0 336.9 L381.35 336.75 Q381.25 337.0 381.3 337.3 L381.45 337.8 380.5 337.95 378.45 341.3 Q377.7 342.75 378.45 344.3 379.15 345.7 381.4 345.35 L381.75 348.25 Q381.7 349.8 380.15 350.7 L378.0 351.0 377.85 349.85 376.85 350.0 377.3 353.7 375.25 356.65 375.8 357.75 376.25 361.5 376.0 361.5 377.75 376.15 377.95 376.15 378.45 380.3 378.25 380.3 379.0 387.0 Q378.7 388.3 379.35 389.5 L379.45 390.45 380.55 390.3 380.65 391.65 379.55 391.8 379.7 392.6 379.0 392.7 379.7 398.95 380.45 398.85 380.55 399.75 381.7 399.65 381.85 401.05 380.7 401.2 380.8 402.0 380.15 402.1 380.6 403.6 380.9 405.65 372.05 406.65 371.8 404.65 371.9 403.1 371.2 403.2 370.85 400.05 371.65 399.95 370.85 393.65 370.15 393.75 369.75 390.65 Q370.2 389.3 369.4 388.15 L368.65 381.5 368.45 381.5 363.9 382.0 Q365.65 381.7 365.6 379.8 L365.5 379.0 365.6 378.65 Q365.95 378.15 367.3 377.95 L368.0 377.65 368.15 377.3 366.4 362.65 366.2 362.65 362.7 363.1 362.65 362.05 361.8 362.15 361.65 361.2 362.5 361.05 362.35 360.2 362.95 360.15 362.95 359.7 364.45 359.55 364.9 359.05 365.8 358.95 366.05 357.75 365.7 357.4 365.45 357.45 Q363.7 357.45 363.7 355.6 L363.4 355.35 361.7 341.25 361.15 341.25 360.25 333.5 360.8 333.45 360.7 332.85 360.95 332.4 360.8 331.05 360.15 331.1 360.0 331.05 359.95 331.1 359.95 331.05 359.8 330.95 359.75 330.95 359.65 330.75 359.5 329.75 359.65 329.7 359.5 328.5 374.75 326.75 374.9 327.95 375.1 327.9 375.15 328.9 M376.15 325.2 L376.4 325.55 376.4 325.65 376.35 325.95 376.25 326.1 375.75 326.35 375.25 326.2 375.05 325.7 375.1 325.35 375.2 325.25 Q375.3 325.05 375.6 325.0 L376.15 325.2 M367.8 274.95 L367.7 275.15 367.35 275.35 366.9 275.2 366.65 274.75 366.7 274.4 366.8 274.2 367.15 274.0 367.6 274.15 367.85 274.6 367.85 274.65 367.8 274.95 M355.9 278.7 L355.75 277.05 366.45 275.7 366.65 277.4 370.7 292.4 374.5 324.9 359.3 326.7 355.45 294.2 355.9 278.7 M379.5 341.4 L381.15 338.9 381.75 344.3 Q380.05 344.5 379.5 343.6 379.0 342.45 379.5 341.4 M382.65 400.1 L382.45 399.75 382.55 399.3 382.85 399.15 383.25 399.2 383.5 399.6 383.35 400.0 383.0 400.2 382.65 400.1 M384.2 397.45 L383.6 397.75 383.05 397.6 382.7 397.0 Q382.65 396.65 382.9 396.45 L383.4 396.1 384.05 396.3 384.3 396.85 384.2 397.45 M381.15 395.2 L381.95 395.1 Q382.35 395.55 382.05 396.0 L381.25 396.1 381.15 395.2 M382.95 392.2 Q383.35 392.15 383.6 392.35 L383.8 392.95 383.7 393.5 383.15 393.85 382.6 393.7 382.25 393.05 Q382.2 392.75 382.45 392.55 L382.95 392.2 M365.95 375.95 L365.6 375.4 Q365.55 375.05 365.8 374.7 366.05 374.45 366.4 374.4 L367.05 374.55 367.4 375.15 367.2 375.8 366.55 376.15 365.95 375.95 M357.5 372.2 Q357.8 371.9 358.2 371.85 L359.0 372.1 359.35 372.75 359.2 373.5 Q358.9 373.85 358.45 373.85 358.0 373.95 357.7 373.65 357.4 373.4 357.35 372.95 357.25 372.55 357.5 372.2 M355.6 368.0 L355.25 367.5 355.45 366.85 Q355.65 366.6 355.95 366.6 356.3 366.5 356.65 366.75 L356.95 367.3 356.8 367.9 356.15 368.25 355.6 368.0 M363.8 364.9 Q363.7 364.5 364.0 364.05 364.3 363.75 364.7 363.75 L365.5 363.95 365.85 364.65 Q365.95 365.1 365.65 365.4 365.35 365.8 364.9 365.85 L364.2 365.55 Q363.85 365.35 363.8 364.9" fill="#ffffff" fill-rule="evenodd" stroke="none"/>
  </g>
</svg>
