<?xml version="1.0" encoding="UTF-8" standalone="no"?>
<svg xmlns:xlink="http://www.w3.org/1999/xlink" height="102.75px" width="43.15px" xmlns="http://www.w3.org/2000/svg">
  <g transform="matrix(1.0, 0.0, 0.0, 1.0, -347.3, -364.3)">
    <path d="M362.1 399.35 L361.65 396.9 359.95 396.0 Q359.6 395.85 359.35 396.5 359.2 397.2 359.35 397.8 L359.8 398.85 361.1 399.75 Q362.05 400.2 362.1 399.35 M371.15 409.8 L374.0 412.2 378.1 435.4 376.75 436.65 378.25 445.0 377.0 447.2 370.3 448.4 369.6 448.35 Q369.05 448.2 368.8 447.5 L368.2 444.15 Q369.05 441.3 368.2 438.7 367.75 437.1 366.55 435.7 L366.5 435.7 362.7 414.15 363.7 405.15 367.05 404.55 368.2 404.9 Q369.8 405.65 370.6 407.85 L371.15 409.8 M361.95 369.4 L363.3 371.8 Q363.85 374.05 365.2 375.9 L366.8 377.75 367.0 378.8 363.1 383.85 363.55 386.45 363.15 387.5 358.15 383.3 Q356.55 384.65 355.2 384.9 L353.75 390.2 Q353.7 391.0 354.45 391.7 L360.5 395.7 Q361.75 396.1 362.4 394.95 L363.7 402.5 363.2 403.15 Q361.15 402.6 358.9 400.8 L358.0 395.4 354.45 393.2 Q352.95 392.3 352.7 390.4 353.05 386.5 354.7 383.05 357.75 381.8 356.65 377.85 L356.35 377.45 355.6 376.8 354.5 375.95 353.0 375.7 Q352.15 375.45 351.75 375.0 L350.65 374.8 Q349.9 374.85 349.3 375.45 348.45 375.9 347.95 374.9 347.6 374.1 347.4 372.35 L347.35 366.65 347.3 365.85 Q347.35 364.8 348.15 364.45 L349.1 364.3 353.25 364.4 Q354.35 364.25 355.4 364.4 359.05 364.95 361.95 369.4 M375.95 466.4 L374.5 458.25 375.2 457.5 386.05 455.6 387.05 456.0 387.4 458.05 389.95 458.95 390.35 461.1 Q390.65 461.85 390.15 461.95 L388.15 462.3 388.5 464.3 387.7 465.15 376.9 467.05 375.95 466.4" fill="#ffffff" fill-rule="evenodd" stroke="none"/>
  </g>
</svg>
