<?xml version="1.0" encoding="UTF-8" standalone="no"?>
<svg xmlns:xlink="http://www.w3.org/1999/xlink" height="107.0px" width="44.15px" xmlns="http://www.w3.org/2000/svg">
  <g transform="matrix(1.0, 0.0, 0.0, 1.0, -346.8, -363.8)">
    <path d="M367.0 378.8 L366.8 377.75 365.2 375.9 Q363.85 374.05 363.3 371.8 L361.95 369.4 Q359.05 364.95 355.4 364.4 354.35 364.25 353.25 364.4 L349.1 364.3 348.15 364.45 Q347.35 364.8 347.3 365.85 L347.35 366.65 347.4 372.35 Q347.6 374.1 347.95 374.9 M358.15 383.3 L360.05 384.9 M362.0 386.55 L363.15 387.5 M367.0 378.8 L367.45 378.9 368.2 379.05 Q369.3 379.35 370.3 380.0 371.1 380.5 371.8 381.3 L372.25 381.7 372.35 381.8 378.9 388.75 379.35 391.2 Q379.5 392.35 378.7 392.55 L375.9 393.05 378.5 405.95 378.1 406.65 378.95 406.95 380.35 414.8 379.8 416.4 380.25 419.05 379.7 420.45 380.15 422.95 379.75 423.0 379.95 423.8 380.1 424.65 380.3 425.65 380.45 426.35 380.55 427.15 380.75 427.95 381.05 429.3 381.15 430.0 381.3 430.8 381.45 431.6 381.55 432.45 381.7 433.1 381.85 433.95 386.05 455.6 387.05 456.0 387.4 458.05 389.95 458.95 390.35 461.1 Q390.65 461.85 390.15 461.95 L388.15 462.3 388.5 464.3 387.7 465.15 388.3 468.4 Q385.8 469.2 383.2 469.3 L382.6 466.05 381.7 466.2 382.3 469.45 377.5 470.3 376.9 467.05 375.95 466.4 374.5 458.25 375.2 457.5 373.4 447.85 370.3 448.4 369.6 448.35 Q369.05 448.2 368.8 447.5 L368.2 444.15 Q369.05 441.3 368.2 438.7 367.75 437.1 366.55 435.7 L366.5 435.7 365.95 432.75 365.4 429.55 364.8 426.25 364.3 423.45 363.85 420.5 363.3 417.75 362.9 415.2 362.7 414.15 362.8 413.1 363.7 405.15 364.2 405.1 363.7 402.5 363.2 403.15 Q361.15 402.6 358.9 400.8 L358.0 395.4 354.45 393.2 Q352.95 392.3 352.7 390.4 353.05 386.5 354.7 383.05 357.75 381.8 356.65 377.85 L356.35 377.45 355.6 376.8 354.5 375.95 353.0 375.7 Q352.15 375.45 351.75 375.0 L350.65 374.8 Q349.9 374.85 349.3 375.45 348.45 375.9 347.95 374.9 M362.0 386.55 L359.75 386.95 359.65 387.6 Q359.45 388.55 358.6 389.35 357.9 387.7 356.2 387.7 L354.85 387.9 Q355.35 386.95 356.0 386.55 L356.65 386.25 Q357.9 385.8 358.0 385.2 L360.05 384.9 M358.15 383.3 Q356.55 384.65 355.2 384.9 L353.75 390.2 Q353.7 391.0 354.45 391.7 L358.8 394.55 360.5 395.7 Q361.75 396.1 362.4 394.95 L362.8 390.8 361.85 392.1 Q361.15 390.45 359.5 390.45 L358.15 390.7 Q358.6 389.7 359.3 389.25 L359.9 389.0 Q361.2 388.5 361.25 388.0 L363.1 387.75 363.15 387.5 M362.1 399.35 Q362.05 400.2 361.1 399.75 L359.8 398.85 359.35 397.8 Q359.2 397.2 359.35 396.5 359.6 395.85 359.95 396.0 L361.65 396.9 362.1 399.35" fill="none" stroke="#000000" stroke-linecap="round" stroke-linejoin="round" stroke-width="1.0"/>
    <path d="M347.95 374.9 Q349.1 372.55 350.5 372.2 L351.55 372.0 Q352.95 371.85 354.2 372.45 355.45 373.05 356.55 374.4 L357.25 375.3 357.9 377.2 Q358.6 379.4 358.65 381.3 L358.15 383.3 M360.05 384.9 L360.6 385.35 361.35 386.05 362.0 386.55 M363.15 387.5 L363.55 386.45 363.1 383.85 367.0 378.8 M351.75 370.5 L351.25 370.35 350.9 369.8 Q350.9 369.5 351.05 369.25 351.15 369.0 351.45 368.95 L352.05 369.05 352.3 369.55 352.25 370.15 Q352.1 370.4 351.75 370.5 M355.6 376.8 L356.55 374.4 M358.65 381.3 Q358.15 379.8 357.25 378.55 L356.65 377.85 M361.75 379.35 Q361.75 379.0 361.9 378.7 362.05 378.4 362.35 378.4 L362.9 378.5 363.25 379.1 363.1 379.8 362.65 380.1 362.1 379.95 Q361.85 379.75 361.75 379.35 M357.9 377.2 L357.25 378.55 M351.55 372.0 L350.65 374.8 M353.0 375.7 L354.2 372.45 M363.1 387.75 L363.05 388.2 362.95 389.2 362.8 390.8 M363.05 388.2 L362.05 388.4 Q361.6 389.05 362.6 389.25 L362.95 389.2 M360.6 385.35 L358.75 385.7 Q358.3 386.35 359.3 386.5 L361.35 386.05 M358.8 394.55 L358.0 395.4 M365.35 383.0 L365.8 382.65 366.35 382.8 366.6 383.35 366.55 383.95 Q366.4 384.15 366.05 384.2 L365.55 384.15 365.2 383.6 Q365.2 383.25 365.35 383.0 M370.3 380.0 L372.15 390.6 Q372.2 391.5 371.5 391.5 L369.85 391.8 Q369.25 391.7 368.95 391.05 L367.55 382.95 368.0 382.0 367.45 378.9 M373.85 386.25 L373.7 386.85 Q373.55 387.15 373.2 387.15 L372.7 387.05 372.3 386.5 372.5 385.9 Q372.65 385.65 372.95 385.55 L373.5 385.7 373.85 386.25 M375.9 393.05 L374.35 384.8 Q373.45 383.0 372.35 381.8 M376.95 404.25 L377.3 404.75 377.15 405.35 376.7 405.65 376.1 405.55 375.85 405.0 375.9 404.4 Q376.15 404.15 376.45 404.1 L376.95 404.25 M364.2 405.1 L367.05 404.55 368.2 404.9 Q369.8 405.65 370.6 407.85 371.95 406.65 373.55 407.35 L378.1 406.65 M365.5 403.85 L364.95 403.7 364.65 403.2 364.75 402.6 Q364.95 402.3 365.2 402.3 L365.8 402.4 366.1 402.9 366.0 403.5 365.5 403.85 M366.85 407.85 Q367.15 407.75 367.35 408.0 L367.6 408.45 367.55 408.95 367.15 409.25 366.6 409.1 366.35 408.65 Q366.25 408.3 366.4 408.15 366.6 407.85 366.85 407.85 M366.75 406.95 Q367.3 406.85 367.75 407.25 368.2 407.6 368.35 408.25 368.45 408.9 368.2 409.4 L367.45 410.0 367.3 410.05 366.7 409.95 366.3 409.75 Q365.8 409.4 365.65 408.75 365.6 408.1 365.9 407.55 366.2 407.05 366.75 406.95 M373.15 413.1 L374.2 418.9 373.55 419.0 372.5 413.25 373.15 413.1 M373.4 447.85 L377.0 447.2 378.05 445.35 378.25 445.0 376.75 436.65 377.35 436.1 378.1 435.4 377.95 434.65 377.8 433.8 377.65 433.15 377.55 432.3 377.4 431.5 377.25 430.7 377.15 430.05 376.9 428.6 376.75 427.8 376.6 427.05 376.45 426.3 376.3 425.35 376.15 424.5 376.0 423.7 375.55 421.2 374.0 412.2 371.15 409.8 370.6 407.85 M362.8 413.1 Q363.8 412.65 365.2 414.8 L365.5 415.35 366.3 416.7 366.45 417.15 367.3 419.85 368.1 422.75 368.7 425.55 369.3 428.85 369.75 432.1 370.0 435.1 370.05 437.9 370.0 438.4 Q369.55 442.2 368.25 444.15 L368.2 444.15 M375.95 429.0 L376.95 434.75 376.3 434.85 375.3 429.1 375.95 429.0 M376.6 427.05 L380.45 426.35 M376.75 427.8 L380.55 427.15 M376.9 428.6 L380.75 427.95 M377.15 430.05 L381.05 429.3 M381.15 430.0 L377.25 430.7 M376.0 423.7 L379.75 423.0 M376.15 424.5 L379.95 423.8 M377.4 431.5 L381.3 430.8 M377.55 432.3 L381.45 431.6 M380.3 425.65 L376.45 426.3 M376.3 425.35 L380.1 424.65 M368.7 425.55 L364.8 426.25 M369.3 428.85 L365.4 429.55 M365.95 432.75 L369.75 432.1 M370.0 438.4 L368.2 438.7 M366.55 435.7 L370.0 435.1 M377.95 434.65 L381.85 433.95 M377.8 433.8 L381.7 433.1 M377.65 433.15 L381.55 432.45 M379.7 420.45 L375.55 421.2 M385.15 458.8 L385.05 459.25 384.75 459.45 384.3 459.4 384.1 459.0 384.2 458.6 Q384.35 458.4 384.55 458.4 L384.95 458.45 385.15 458.8 M384.8 462.3 Q384.75 462.05 384.85 461.85 L385.15 461.6 385.6 461.75 385.8 462.1 385.75 462.55 385.4 462.75 385.0 462.65 384.8 462.3 M387.4 458.05 L388.15 462.3 M386.05 455.6 L380.95 456.5 380.05 456.65 375.2 457.5 M383.5 460.35 L383.95 460.45 384.15 460.8 384.1 461.25 383.7 461.5 383.35 461.4 383.15 460.95 Q383.1 460.75 383.2 460.6 383.35 460.35 383.5 460.35 M379.75 461.55 L379.55 461.25 379.15 461.1 378.8 461.35 Q378.7 461.55 378.75 461.75 L378.95 462.15 379.35 462.3 379.7 462.0 379.75 461.55 M377.5 459.6 L377.2 459.8 Q377.05 460.0 377.15 460.2 L377.35 460.6 377.7 460.7 378.05 460.5 378.15 460.05 377.95 459.7 377.5 459.6 M377.8 463.95 L378.25 464.0 378.55 463.8 378.65 463.35 378.4 463.0 378.05 462.9 377.65 463.15 377.6 463.55 377.8 463.95 M381.7 466.2 L376.9 467.05 M387.7 465.15 L382.6 466.05 M382.3 469.45 Q379.75 469.25 377.5 470.3 M388.3 468.4 Q385.65 468.3 383.2 469.3 M366.45 417.15 L363.3 417.75 M362.9 415.2 L365.2 414.8 M367.3 419.85 L363.85 420.5 M368.1 422.75 L364.3 423.45 M377.35 436.1 L380.95 456.5 M380.05 456.65 L378.05 445.35 M362.4 394.95 L363.7 402.5" fill="none" stroke="#000000" stroke-linecap="round" stroke-linejoin="round" stroke-opacity="0.49803922" stroke-width="1.0"/>
  </g>
</svg>
