<?xml version="1.0" encoding="UTF-8" standalone="no"?>
<svg xmlns:xlink="http://www.w3.org/1999/xlink" height="195.8px" width="52.55px" xmlns="http://www.w3.org/2000/svg">
  <g transform="matrix(1.0, 0.0, 0.0, 1.0, -336.45, -315.3)">
    <path d="M356.55 315.8 L363.7 356.4 363.75 356.7 365.0 357.85 366.1 364.1 366.85 364.0 367.5 367.95 370.25 367.5 368.8 366.5 368.2 363.4 375.35 362.1 375.9 365.25 374.95 366.65 377.65 382.2 379.75 385.5 382.2 399.2 381.5 399.35 381.7 400.35 382.4 400.25 382.9 403.2 375.25 404.55 374.65 401.6 375.4 401.5 375.25 400.5 374.5 400.6 372.1 386.85 372.95 383.15 370.25 383.65 370.9 387.3 369.95 387.45 370.15 388.6 371.1 388.4 371.8 392.1 370.8 392.25 371.0 393.45 371.95 393.25 372.6 396.9 371.65 397.05 371.85 398.25 372.85 398.05 373.45 401.7 372.5 401.85 372.7 403.05 373.65 402.9 374.3 406.55 373.35 406.7 373.6 407.85 374.5 407.7 375.15 411.35 374.2 411.5 374.4 412.65 375.35 412.5 376.0 416.1 375.0 416.3 375.25 417.5 376.15 417.3 376.85 420.95 375.85 421.15 376.1 422.3 377.05 422.1 377.7 425.8 376.75 426.0 376.95 427.15 377.9 426.95 378.55 430.55 376.85 430.85 384.7 475.35 382.0 477.2 384.4 491.0 385.2 490.85 388.5 509.85 384.2 510.6 380.8 491.65 381.55 491.55 379.15 477.65 378.2 477.8 377.0 477.0 363.75 401.8 362.9 399.5 360.65 399.9 360.45 399.15 350.8 400.85 350.0 397.0 347.9 387.6 354.8 386.55 353.2 385.85 351.35 384.6 354.1 384.45 Q354.4 384.2 352.75 382.8 351.1 380.25 352.0 375.4 352.3 374.05 350.2 373.85 L348.05 373.95 348.1 372.95 Q347.8 371.85 346.3 371.1 L339.95 367.45 Q337.8 368.4 337.2 367.75 336.85 367.4 337.0 366.9 L338.2 357.1 Q338.3 356.45 338.7 356.25 339.55 355.9 341.1 357.6 L342.6 357.7 Q344.7 358.75 347.95 363.4 351.5 368.35 354.55 367.35 355.8 367.05 356.4 365.85 357.0 364.65 356.8 363.2 L355.8 357.8 347.95 343.3 Q339.7 328.15 337.85 325.15 336.7 323.2 337.0 321.85 337.1 321.25 337.4 321.0 L342.45 319.1 Q349.0 317.1 356.55 315.8 M357.8 375.2 L355.9 375.7 Q353.9 376.6 353.2 378.6 355.15 377.1 356.9 377.4 L358.3 378.15 M357.8 375.2 L357.2 374.45 Q356.05 373.6 353.3 374.8 351.7 379.3 353.3 382.0 L354.55 383.45 355.15 383.85 357.9 383.4 358.55 382.95 Q359.05 382.25 358.85 381.0 L358.3 378.15" fill="none" stroke="#000000" stroke-linecap="round" stroke-linejoin="round" stroke-width="1.0"/>
    <path d="M363.7 356.4 L359.6 357.15 363.75 380.55 365.8 380.15 367.05 381.05 369.65 395.4 368.7 396.8 366.7 397.15 366.85 398.35 371.0 397.65 363.75 356.7 M355.8 357.8 L356.7 357.6 356.8 357.6 359.6 357.15 M339.95 367.45 L341.1 357.6 M358.3 378.15 L357.8 375.2 M361.6 392.25 L362.9 399.5 364.75 399.15 363.55 391.95 362.9 392.05 361.6 392.25 M350.0 397.0 L359.3 395.4 356.55 386.25 354.85 386.5 354.8 386.55 M356.8 357.6 L362.9 392.05 M370.25 383.65 L369.25 383.8 369.1 382.6 370.05 382.4 369.9 381.5 369.4 378.75 368.4 378.9 368.25 377.85 369.25 377.7 368.55 373.95 367.6 374.1 367.4 373.05 368.35 372.85 367.7 369.15 366.75 369.35 366.55 368.15 367.5 367.95 M370.25 367.5 L374.95 366.65 M368.8 366.5 L375.9 365.25 M374.65 374.45 L375.25 374.7 Q375.8 375.15 375.9 375.85 376.05 376.55 375.65 377.2 L375.25 377.55 375.5 380.2 374.9 380.4 374.35 380.4 373.65 377.85 373.15 377.65 Q372.55 377.25 372.4 376.5 L372.4 376.45 Q372.25 375.75 372.7 375.15 L373.1 374.65 372.85 372.15 373.45 371.9 374.05 371.95 374.65 374.4 374.65 374.45 374.55 374.4 373.85 374.4 373.1 374.65 M373.65 377.85 L374.45 377.9 Q374.95 377.8 375.25 377.55 M377.65 382.2 L373.0 383.05 372.95 383.15 M372.1 386.85 L379.75 385.5 M373.0 383.05 L370.25 367.5 M375.4 401.5 L381.7 400.35 M381.5 399.35 L375.25 400.5 M363.75 380.55 L366.65 397.05 366.7 397.15 M366.85 398.35 L366.05 398.5 363.75 401.8 M371.0 397.65 L376.85 430.85 M384.4 491.0 L381.55 491.55 M379.15 477.65 L382.0 477.2 M360.45 399.15 L359.3 395.4" fill="none" stroke="#000000" stroke-linecap="round" stroke-linejoin="round" stroke-opacity="0.49803922" stroke-width="1.0"/>
  </g>
</svg>
