<?xml version="1.0" encoding="UTF-8" standalone="no"?>
<svg xmlns:xlink="http://www.w3.org/1999/xlink" height="11.75px" width="18.9px" xmlns="http://www.w3.org/2000/svg">
  <g transform="matrix(1.0, 0.0, 0.0, 1.0, -390.5, -206.5)">
    <path d="M408.2 211.7 Q407.65 210.2 406.85 209.2 405.35 210.75 404.05 209.85 403.15 210.75 401.8 210.2 L399.95 210.45 398.1 210.2 Q396.75 210.75 395.85 209.85 394.55 210.75 393.05 209.2 392.25 210.2 391.7 211.7 392.8 212.2 393.3 213.1 L396.5 214.2 403.4 214.2 406.6 213.1 Q407.1 212.2 408.2 211.7 L408.9 213.9 Q405.7 216.25 402.85 215.75 L397.05 215.75 Q394.2 216.25 391.0 213.9 L391.7 211.7 M393.05 209.2 Q394.95 206.6 398.05 207.1 L399.95 207.45 401.85 207.1 Q404.95 206.6 406.85 209.2 M393.35 216.75 Q395.05 218.15 398.3 217.55 L401.6 217.55 Q404.85 218.15 406.55 216.75" fill="none" stroke="#000000" stroke-linecap="round" stroke-linejoin="round" stroke-opacity="0.5019608" stroke-width="1.0"/>
  </g>
</svg>
