<?xml version="1.0" encoding="UTF-8" standalone="no"?>
<svg xmlns:xlink="http://www.w3.org/1999/xlink" height="6.5px" width="13.2px" xmlns="http://www.w3.org/2000/svg">
  <g transform="matrix(1.0, 0.0, 0.0, 1.0, -393.35, -209.5)">
    <path d="M405.35 211.8 Q404.4 212.7 399.95 212.5 395.5 212.7 394.55 211.8 L394.1 212.35 Q393.65 213.8 396.1 213.95 L398.55 213.65 401.35 213.65 403.8 213.95 Q406.25 213.8 405.8 212.35 L405.35 211.8 404.45 211.05 399.95 211.25 395.45 211.05 394.55 211.8 M395.45 211.05 Q397.15 209.9 399.95 210.0 402.75 209.9 404.45 211.05 M406.05 215.0 L399.95 215.4 393.85 215.0" fill="none" stroke="#000000" stroke-linecap="round" stroke-linejoin="round" stroke-opacity="0.5019608" stroke-width="1.0"/>
  </g>
</svg>
