<?xml version="1.0" encoding="UTF-8" standalone="no"?>
<svg xmlns:xlink="http://www.w3.org/1999/xlink" height="310.95px" width="123.95px" xmlns="http://www.w3.org/2000/svg">
  <g transform="matrix(1.0, 0.0, 0.0, 1.0, -86.55, -52.8)">
    <path d="M198.6 168.25 L198.55 168.25 198.55 168.2 198.6 168.25 M209.75 178.9 L209.8 178.95 209.5 179.5 209.75 178.9" fill="#000000" fill-opacity="0.4" fill-rule="evenodd" stroke="none"/>
    <path d="M209.5 179.5 Q180.2 149.75 162.05 117.7 152.05 100.25 141.6 80.1 L139.2 75.45 136.35 79.8 139.2 75.45 Q136.1 74.95 134.45 72.15 133.45 70.55 132.95 68.15 124.15 61.15 113.05 61.7 122.25 59.35 131.35 60.2 128.5 56.95 123.75 53.8 132.05 56.0 138.75 62.2 142.35 66.65 143.2 71.6 L165.8 115.15 Q154.35 95.7 141.6 72.3 131.2 58.05 113.05 61.7 131.1 60.25 140.6 74.55 152.6 96.75 164.3 116.2 181.15 148.9 209.5 179.5 M194.7 270.0 Q177.45 214.65 177.45 192.05 178.0 159.3 209.5 179.55 185.95 178.3 184.9 209.65 184.4 229.65 194.7 270.0 117.55 197.45 108.95 362.75 55.9 193.65 134.45 72.15 136.1 74.95 139.2 75.45 144.2 178.5 194.7 270.0 145.6 185.4 136.35 79.8 64.2 192.4 108.95 362.75 92.85 130.5 194.7 270.0 M143.2 71.6 L138.1 64.75 Q136.75 61.1 133.9 60.5 L131.35 60.2 133.9 60.5 Q136.75 61.1 138.1 64.75 L143.2 71.6 M184.45 209.15 L184.9 209.65 184.45 209.15" fill="#000000" fill-opacity="0.2" fill-rule="evenodd" stroke="none"/>
    <path d="M209.5 179.55 Q185.95 178.3 184.9 209.65 184.4 229.65 194.7 270.0 117.55 197.45 108.95 362.75 55.9 193.65 134.45 72.15 133.45 70.55 132.95 68.15 124.15 61.15 113.05 61.7 122.25 59.35 131.35 60.2 128.5 56.95 123.75 53.8 132.05 56.0 138.75 62.2 142.35 66.65 143.2 71.6 L165.8 115.15 Q180.8 143.75 209.5 179.5" fill="none" stroke="#000000" stroke-linecap="round" stroke-linejoin="round" stroke-width="2.0"/>
    <path d="M209.75 178.9 L209.5 179.5 209.8 178.95 M209.5 179.55 L210.0 179.45 209.55 179.5 209.5 179.5 Q180.2 149.75 162.05 117.7 152.05 100.25 141.6 80.1 148.0 177.4 194.7 270.0 145.6 185.4 136.35 79.8 L139.2 75.45 Q136.1 74.95 134.45 72.15 M131.35 60.2 L133.9 60.5 Q136.75 61.1 138.1 64.75 L143.2 71.6 M139.2 75.45 L141.6 80.1 M184.9 209.65 L184.45 209.15 M108.95 362.75 Q64.2 192.4 136.35 79.8" fill="none" stroke="#000000" stroke-linecap="round" stroke-linejoin="round" stroke-width="1.0"/>
  </g>
</svg>
