<?xml version="1.0" encoding="UTF-8" standalone="no"?>
<svg xmlns:xlink="http://www.w3.org/1999/xlink" height="188.0px" width="124.6px" xmlns="http://www.w3.org/2000/svg">
  <g transform="matrix(1.0, 0.0, 0.0, 1.0, -85.0, -59.35)">
    <path d="M170.1 130.25 L165.95 130.75 Q163.5 120.25 159.65 109.75 163.5 120.25 165.95 130.75 L161.45 130.6 156.95 129.95 Q152.5 129.1 147.25 127.35 144.95 122.25 143.9 116.5 144.95 122.25 147.25 127.35 142.5 125.75 137.1 123.45 134.25 118.35 132.1 112.95 L132.1 112.9 131.45 111.25 132.1 112.9 132.1 112.95 Q134.25 118.35 137.1 123.45 128.45 120.1 121.55 118.4 L108.55 95.95 121.55 118.4 115.7 117.2 109.7 116.65 93.2 87.6 109.7 116.65 Q104.0 116.5 100.5 118.35 97.85 102.8 92.75 87.35 L93.2 87.6 Q97.25 89.7 101.3 91.95 107.75 104.65 115.7 117.2 107.75 104.65 101.3 91.95 L108.55 95.95 130.45 108.85 131.45 111.25 130.6 108.95 138.6 113.95 Q141.4 115.75 143.9 116.5 150.1 118.35 154.0 113.35 155.45 120.5 156.95 129.95 155.45 120.5 154.0 113.35 155.25 111.7 156.25 109.3 L157.15 106.9 159.65 109.75 164.85 116.05 Q167.85 123.1 170.1 130.25 167.85 123.1 164.85 116.05 169.7 122.1 174.25 128.75 172.35 129.7 170.1 130.25 M162.95 190.55 L166.15 193.2 Q170.95 197.35 174.7 202.4 167.05 205.65 155.95 208.25 167.05 205.65 174.7 202.4 L177.05 205.8 Q169.3 209.8 159.0 211.9 169.3 209.8 177.05 205.8 L179.15 209.4 181.7 214.7 Q174.45 219.8 165.6 224.8 174.45 219.8 181.7 214.7 L184.0 220.9 Q176.4 227.05 167.7 232.2 166.8 228.25 165.6 224.8 L163.6 219.75 Q161.6 215.35 159.0 211.9 L155.95 208.25 153.2 205.7 160.6 198.25 Q163.2 195.45 166.15 193.2 163.2 195.45 160.6 198.25 L153.2 205.7 Q150.8 203.75 148.1 202.3 154.3 195.9 162.95 190.55 M156.25 109.3 Q159.35 119.4 161.45 130.6 159.35 119.4 156.25 109.3 M163.6 219.75 Q171.55 215.25 179.15 209.4 171.55 215.25 163.6 219.75" fill="#ffffff" fill-opacity="0.2509804" fill-rule="evenodd" stroke="none"/>
    <path d="M170.1 130.25 Q167.85 123.1 164.85 116.05 L159.65 109.75 Q163.5 120.25 165.95 130.75 168.5 141.6 169.5 152.5 M161.45 130.6 Q163.15 139.85 164.15 149.85 M174.25 128.75 Q169.7 122.1 164.85 116.05 M166.15 193.2 Q173.6 187.45 183.25 185.35 M174.7 202.4 Q185.65 197.65 189.3 191.5 M162.95 190.55 Q169.1 186.75 176.5 183.45 108.45 156.0 100.55 118.8 L100.5 118.35 Q97.85 102.8 92.75 87.35 L92.25 85.9 88.35 75.25 Q81.15 55.9 92.25 60.9 106.75 66.75 119.8 75.05 132.65 83.2 144.1 93.7 L150.55 99.9 154.55 104.1 157.15 106.9 159.65 109.75 M174.25 128.75 Q181.5 139.35 187.95 151.35 195.0 164.45 207.65 171.7 209.95 183.15 208.6 194.6 198.1 209.55 184.0 220.9 176.4 227.05 167.7 232.2 155.6 239.35 141.45 244.45 L130.5 246.55 Q124.9 248.1 127.85 241.1 130.95 231.2 135.5 222.2 137.0 217.95 139.25 214.0 L140.95 211.2 Q144.0 206.55 148.1 202.3 154.3 195.9 162.95 190.55 M170.1 130.25 Q173.9 142.35 175.55 154.45 M93.2 87.6 L92.25 85.9 M108.55 95.95 L92.75 68.65 Q87.45 59.5 93.1 74.35 96.85 83.15 101.3 91.95 107.75 104.65 115.7 117.2 L123.85 129.55 Q133.15 142.95 146.9 150.35 167.25 161.1 180.9 172.95 M93.2 87.6 L109.7 116.65 117.7 130.75 Q128.55 149.05 146.9 164.45 M130.6 108.95 Q127.65 100.35 126.45 91.15 125.9 83.1 119.8 75.05 M150.55 99.9 Q152.25 105.1 154.0 113.35 155.45 120.5 156.95 129.95 L158.9 143.1 161.5 145.3 M156.25 109.3 L154.55 104.1 M143.9 116.5 Q144.95 122.25 147.25 127.35 151.2 136.15 158.9 143.1 M130.6 108.95 L131.45 111.25 132.1 112.9 132.1 112.95 Q134.25 118.35 137.1 123.45 144.6 136.85 156.95 148.35 M161.45 130.6 Q159.35 119.4 156.25 109.3 M121.55 118.4 L123.6 122.0 M131.45 111.25 L130.45 108.85 Q119.8 84.3 92.25 60.9 M108.55 95.95 L121.55 118.4 M143.9 116.5 Q141.95 106.1 144.1 93.7 M140.95 211.2 L148.7 209.8 153.2 205.7 160.6 198.25 Q163.2 195.45 166.15 193.2 M155.95 208.25 Q167.05 205.65 174.7 202.4 M177.05 205.8 Q185.7 201.25 191.15 194.25 M155.95 208.25 L148.7 209.8 M139.25 214.0 L144.8 213.75 154.65 212.65 159.0 211.9 Q169.3 209.8 177.05 205.8 M179.15 209.4 Q192.35 199.2 204.5 184.95 M165.6 224.8 Q159.25 228.35 152.05 231.8 144.05 235.7 137.15 242.05 M163.6 219.75 Q158.05 222.85 152.4 225.3 140.15 229.45 132.2 242.05 M131.25 239.95 Q137.1 223.45 144.8 213.75 M147.05 223.9 L154.65 212.65 M179.15 209.4 Q171.55 215.25 163.6 219.75 M165.6 224.8 Q174.45 219.8 181.7 214.7 197.9 203.15 205.75 190.85" fill="none" stroke="#000000" stroke-linecap="round" stroke-linejoin="round" stroke-opacity="0.2509804" stroke-width="1.0"/>
  </g>
</svg>
