<?xml version="1.0" encoding="UTF-8" standalone="no"?>
<svg xmlns:xlink="http://www.w3.org/1999/xlink" height="44.8px" width="52.75px" xmlns="http://www.w3.org/2000/svg">
  <g transform="matrix(1.0, 0.0, 0.0, 1.0, -181.2, -87.4)">
    <path d="M186.35 98.45 Q188.2 95.3 190.95 93.1 L200.0 95.5 Q207.75 97.25 213.2 97.6 218.9 97.9 222.05 96.65 223.35 96.15 224.2 95.35 225.8 97.0 227.1 99.05 L224.75 101.05 224.0 99.45 Q223.2 97.9 222.05 96.65 223.2 97.9 224.0 99.45 L224.75 101.05 222.0 102.4 Q218.85 103.5 214.55 103.7 214.3 100.6 213.2 97.6 214.3 100.6 214.55 103.7 209.3 103.85 202.35 102.6 L197.65 101.6 186.35 98.45 M221.25 101.0 L222.0 102.4 221.25 101.0 M200.0 95.5 Q198.35 98.45 197.65 101.6 198.35 98.45 200.0 95.5 M202.75 101.2 L202.35 102.6 202.75 101.2" fill="#ffffff" fill-opacity="0.2509804" fill-rule="evenodd" stroke="none"/>
    <path d="M226.4 131.2 L220.65 130.1 Q223.25 125.6 224.25 122.05 223.55 126.6 226.4 131.2 M193.8 127.6 Q188.75 125.7 185.65 122.4 183.5 120.1 182.2 117.2 182.15 109.05 184.2 103.15 183.9 110.8 185.65 116.4 187.95 123.8 193.8 127.6 M185.65 116.4 L185.65 122.4 185.65 116.4" fill="#000000" fill-opacity="0.2509804" fill-rule="evenodd" stroke="none"/>
    <path d="M186.35 98.45 Q188.2 95.3 190.95 93.1 194.35 90.35 199.1 89.0 215.65 86.35 224.2 95.35 225.8 97.0 227.1 99.05 230.8 107.85 228.55 116.3 226.95 122.95 232.95 130.4 229.85 131.35 226.4 131.2 L220.65 130.1 Q223.25 125.6 224.25 122.05 M224.4 121.4 Q225.4 117.3 224.2 114.45 L225.9 109.25 Q226.0 106.8 225.65 104.7 M196.35 128.65 L193.8 127.6 Q188.75 125.7 185.65 122.4 183.5 120.1 182.2 117.2 182.15 109.05 184.2 103.15 185.05 100.6 186.35 98.45" fill="none" stroke="#000000" stroke-linecap="round" stroke-linejoin="round" stroke-width="2.0"/>
    <path d="M200.0 95.5 L200.85 94.05 M213.2 97.6 L213.0 97.1 M222.05 96.65 L220.85 95.45 M213.2 97.6 Q214.3 100.6 214.55 103.7 214.7 105.65 214.45 107.65 L202.1 106.45 197.15 105.55 Q197.85 118.85 205.45 131.45 201.0 130.4 196.35 128.65 M222.0 102.4 L221.25 101.0 M222.05 96.65 Q223.2 97.9 224.0 99.45 L224.75 101.05 225.65 104.7 Q224.6 105.8 222.75 106.5 219.65 107.65 214.45 107.65 M197.65 101.6 Q198.35 98.45 200.0 95.5 M222.0 102.4 Q222.95 104.4 222.75 106.5 M202.35 102.6 Q201.9 104.4 202.1 106.45 M197.65 101.6 Q197.2 103.55 197.15 105.55 M185.65 116.4 Q185.95 108.8 187.7 102.05 M185.65 122.4 L185.65 116.4 M193.8 127.6 Q191.2 115.65 191.8 104.0 M202.35 102.6 L202.75 101.2" fill="none" stroke="#000000" stroke-linecap="round" stroke-linejoin="round" stroke-width="1.0"/>
  </g>
</svg>
