<?xml version="1.0" encoding="UTF-8" standalone="no"?>
<svg xmlns:xlink="http://www.w3.org/1999/xlink" height="63.95px" width="79.65px" xmlns="http://www.w3.org/2000/svg">
  <g transform="matrix(1.0, 0.0, 0.0, 1.0, -166.4, -151.2)">
    <path d="M166.4 161.0 Q177.65 156.45 185.8 151.55 214.5 158.5 230.55 188.8 236.05 170.0 225.25 151.2 231.9 153.0 240.45 154.45 L238.45 161.45 Q241.35 163.0 243.15 165.1 245.2 167.45 245.8 170.45 246.35 172.85 245.65 175.15 L244.2 178.0 Q242.8 180.05 240.3 182.0 240.2 184.3 239.7 186.6 238.75 190.8 236.5 195.05 235.45 205.15 239.4 212.35 235.8 218.1 206.35 212.0 209.8 206.9 208.4 201.8 194.55 193.3 185.05 183.4 L187.1 172.6 Q181.15 162.8 166.4 161.0" fill="#000000" fill-rule="evenodd" stroke="none"/>
  </g>
</svg>
