<?xml version="1.0" encoding="UTF-8" standalone="no"?>
<svg xmlns:xlink="http://www.w3.org/1999/xlink" height="91.45px" width="70.95px" xmlns="http://www.w3.org/2000/svg">
  <g transform="matrix(1.0, 0.0, 0.0, 1.0, -160.55, -143.2)">
    <path d="M185.05 183.4 Q194.55 193.3 208.4 201.8 209.8 206.9 206.35 212.0 M163.0 231.7 Q162.2 228.4 161.55 225.1 163.15 216.45 168.3 209.75 164.25 185.0 166.4 161.0 185.85 153.1 196.05 144.2 M185.05 183.4 Q181.85 199.0 177.25 214.65 180.7 219.4 181.3 224.15 L180.9 231.8" fill="none" stroke="#000000" stroke-linecap="round" stroke-linejoin="round" stroke-width="2.0"/>
    <path d="M187.1 172.6 L185.05 183.4 M222.25 180.35 Q215.6 191.0 201.2 186.55 192.35 182.8 191.1 174.05" fill="none" stroke="#000000" stroke-linecap="round" stroke-linejoin="round" stroke-width="1.0"/>
    <path d="M180.9 231.8 Q172.75 236.55 163.0 231.7" fill="none" stroke="#000000" stroke-linecap="round" stroke-linejoin="round" stroke-width="1.0"/>
    <path d="M196.05 144.2 Q204.35 150.55 209.2 150.7 211.0 154.8 220.0 162.0 229.55 170.95 230.5 179.8 231.25 186.75 229.7 193.65 L229.55 205.85 Q229.6 210.5 231.0 215.15" fill="none" stroke="#000000" stroke-linecap="round" stroke-linejoin="round" stroke-width="1.0"/>
  </g>
</svg>
