<?xml version="1.0" encoding="UTF-8" standalone="no"?>
<svg xmlns:xlink="http://www.w3.org/1999/xlink" height="79.75px" width="38.75px" xmlns="http://www.w3.org/2000/svg">
  <g transform="matrix(1.0, 0.0, 0.0, 1.0, -208.3, -135.9)">
    <path d="M213.55 137.75 Q213.35 139.5 213.3 141.35 213.2 144.15 213.4 147.05 223.1 151.5 240.45 154.45 L240.45 154.5 M243.15 165.1 Q245.2 167.45 245.8 170.45 246.35 172.85 245.65 175.15 L244.2 178.0" fill="none" stroke="#000000" stroke-linecap="round" stroke-linejoin="round" stroke-width="2.0"/>
    <path d="M238.45 161.45 Q241.35 163.0 243.15 165.1 M244.2 178.0 Q242.8 180.05 240.3 182.0 240.2 184.3 239.7 186.6 238.75 190.8 236.5 195.05 235.45 205.15 239.4 212.35 M208.85 136.4 L213.55 137.75 M238.45 161.45 L236.5 160.55 M213.4 147.05 L213.55 148.95" fill="none" stroke="#000000" stroke-linecap="round" stroke-linejoin="round" stroke-width="1.0"/>
    <path d="M240.45 154.5 L238.45 161.45" fill="none" stroke="#000000" stroke-linecap="round" stroke-linejoin="round" stroke-width="1.0"/>
    <path d="M208.85 136.4 L208.8 149.3 Q209.3 153.45 220.0 162.0 229.55 170.95 230.5 179.8 231.25 186.75 229.7 193.65 L229.55 205.85 Q229.6 210.5 231.0 215.15" fill="none" stroke="#000000" stroke-linecap="round" stroke-linejoin="round" stroke-width="1.0"/>
  </g>
</svg>
