<?xml version="1.0" encoding="UTF-8" standalone="no"?>
<svg xmlns:xlink="http://www.w3.org/1999/xlink" height="85.55px" width="40.95px" xmlns="http://www.w3.org/2000/svg">
  <g transform="matrix(1.0, 0.0, 0.0, 1.0, -180.05, -361.4)">
    <path d="M220.0 362.4 L216.5 377.95 Q207.9 402.55 209.2 430.7 L215.25 441.95 M204.7 445.95 Q204.05 441.5 201.2 437.5 L195.7 434.8 Q196.35 430.4 198.0 426.05 200.5 411.85 198.25 397.65 L193.2 427.1 194.2 444.9 M181.05 443.5 L187.0 426.7 184.05 363.3" fill="none" stroke="#000000" stroke-linecap="round" stroke-linejoin="round" stroke-width="2.0"/>
    <path d="M184.05 363.3 Q193.9 361.3 203.75 365.15 L203.8 365.15 Q211.9 362.35 220.0 362.4 M198.25 397.65 L203.75 365.15" fill="none" stroke="#000000" stroke-linecap="round" stroke-linejoin="round" stroke-width="1.0"/>
    <path d="M215.25 441.95 L204.7 445.95 M194.2 444.9 Q187.75 442.25 181.05 443.5" fill="none" stroke="#000000" stroke-linecap="round" stroke-linejoin="round" stroke-width="1.0"/>
  </g>
</svg>
