<?xml version="1.0" encoding="UTF-8" standalone="no"?>
<svg xmlns:xlink="http://www.w3.org/1999/xlink" height="101.25px" width="46.7px" xmlns="http://www.w3.org/2000/svg">
  <g transform="matrix(1.0, 0.0, 0.0, 1.0, -178.95, -362.4)">
    <path d="M185.0 363.15 L185.3 363.1 185.8 363.0 189.25 362.65 Q196.45 362.3 203.75 365.15 L203.8 365.15 204.55 364.9 208.9 363.7 209.05 363.65 Q213.9 362.5 218.65 362.4 L220.0 362.4 Q224.55 362.75 225.65 364.1 L221.45 384.25 219.35 384.0 216.95 383.8 214.65 383.75 214.25 383.75 214.6 383.85 Q208.35 404.85 209.1 428.35 L209.1 428.85 209.2 430.7 223.1 456.5 222.8 456.5 222.55 456.45 222.4 456.45 218.8 455.85 217.9 455.65 Q211.4 453.85 204.9 448.7 204.95 442.75 201.2 437.5 L195.7 434.8 Q196.35 430.4 198.0 426.05 200.5 411.85 198.25 397.65 L193.2 427.1 194.65 453.45 185.65 463.65 Q183.65 460.75 182.3 457.85 179.9 452.75 179.55 447.7 L187.0 426.7 185.05 385.0 184.15 385.15 181.8 385.6 Q179.55 376.0 178.95 366.45 179.7 364.95 181.05 364.5 L184.05 363.3 185.0 363.15 M186.45 439.4 L186.65 438.6 186.35 439.65 186.45 439.4" fill="#000000" fill-rule="evenodd" stroke="none"/>
  </g>
</svg>
