<?xml version="1.0" encoding="UTF-8" standalone="no"?>
<svg xmlns:xlink="http://www.w3.org/1999/xlink" height="165.25px" width="36.75px" xmlns="http://www.w3.org/2000/svg">
  <g transform="matrix(1.0, 0.0, 0.0, 1.0, -176.85, -302.7)">
    <path d="M196.25 310.1 Q198.0 309.35 199.75 308.4 L203.05 306.4 207.3 303.2 213.1 315.55 210.25 328.05 209.4 328.6 198.65 335.2 189.25 323.0 187.95 322.15 194.0 310.9 196.25 310.1" fill="url(#gradient0)" fill-rule="evenodd" stroke="none"/>
    <path d="M209.4 328.6 Q211.85 336.95 212.95 345.3 L209.0 347.25 194.7 354.35 181.1 346.05 178.4 344.4 Q181.4 331.85 189.25 323.0 L198.65 335.2 209.4 328.6" fill="url(#gradient1)" fill-rule="evenodd" stroke="none"/>
    <path d="M204.45 376.75 L202.1 398.6 199.25 400.25 191.45 404.75 184.25 399.15 181.85 397.3 Q180.1 386.35 181.9 375.4 L192.95 381.5 204.45 376.75" fill="url(#gradient2)" fill-rule="evenodd" stroke="none"/>
    <path d="M209.0 347.25 Q210.55 358.05 207.3 373.8 L206.85 375.75 204.45 376.75 192.95 381.5 181.9 375.4 178.25 372.75 Q178.05 357.0 181.1 346.05 L194.7 354.35 209.0 347.25" fill="url(#gradient3)" fill-rule="evenodd" stroke="none"/>
    <path d="M199.25 400.25 Q195.7 413.8 197.0 428.85 L193.45 431.45 Q189.4 428.4 185.3 431.45 L182.15 427.75 Q185.4 424.1 184.25 399.15 L191.45 404.75 199.25 400.25" fill="url(#gradient4)" fill-rule="evenodd" stroke="none"/>
    <path d="M193.45 431.45 L194.65 453.45 194.65 457.05 185.8 466.95 Q178.9 460.15 177.85 452.65 L179.55 447.75 179.55 447.7 185.3 431.45 Q189.4 428.4 193.45 431.45 M179.55 447.75 Q180.1 455.7 185.65 463.65 L194.65 453.45 185.65 463.65 Q180.1 455.7 179.55 447.75" fill="url(#gradient5)" fill-rule="evenodd" stroke="none"/>
    <path d="M193.45 431.45 L194.65 453.45 194.65 457.05 185.8 466.95 Q178.9 460.15 177.85 452.65 L179.55 447.75 179.55 447.7 185.3 431.45 182.15 427.75 Q185.4 424.1 184.25 399.15 L181.85 397.3 Q180.1 386.35 181.9 375.4 L178.25 372.75 Q178.05 357.0 181.1 346.05 L178.4 344.4 Q181.4 331.85 189.25 323.0 L187.95 322.15 194.0 310.9 196.25 310.1" fill="none" stroke="#000000" stroke-linecap="round" stroke-linejoin="round" stroke-width="2.0"/>
    <path d="M196.25 310.1 Q198.0 309.35 199.75 308.4 L203.05 306.4 207.3 303.2 213.1 315.55 210.25 328.05 209.4 328.6 Q211.85 336.95 212.95 345.3 L209.0 347.25 Q210.55 358.05 207.3 373.8 L206.85 375.75 204.45 376.75 202.1 398.6 199.25 400.25 Q195.7 413.8 197.0 428.85 L193.45 431.45 Q189.4 428.4 185.3 431.45 M209.4 328.6 L198.65 335.2 189.25 323.0 M204.45 376.75 L192.95 381.5 181.9 375.4 M181.1 346.05 L194.7 354.35 209.0 347.25 M199.25 400.25 L191.45 404.75 184.25 399.15 M194.65 453.45 L185.65 463.65 Q180.1 455.7 179.55 447.75" fill="none" stroke="#000000" stroke-linecap="round" stroke-linejoin="round" stroke-width="1.0"/>
    <path d="M181.15 461.25 L179.55 458.3 180.75 453.9 187.25 430.35 189.15 429.95 182.1 457.45 180.75 453.9 182.1 457.45 181.15 461.25 M185.3 431.45 L184.4 430.4 188.1 402.15 190.9 404.35 186.95 430.5 185.3 431.45 M184.25 399.15 L183.75 398.75 185.3 377.25 189.1 379.4 186.9 401.2 184.25 399.15 M181.9 375.4 L181.0 374.75 184.5 348.15 183.4 347.45 Q184.6 333.9 191.0 325.25 L191.8 326.3 200.45 308.0 203.05 306.4 204.35 305.5 Q200.5 317.35 194.1 329.25 L193.55 328.6 192.85 331.5 Q188.0 339.35 186.6 349.4 L188.0 350.25 184.15 376.65 181.9 375.4 M191.95 326.5 L193.55 328.6 191.95 326.5 M186.6 349.4 L184.5 348.15 186.6 349.4" fill="#ffffff" fill-opacity="0.2509804" fill-rule="evenodd" stroke="none"/>
    <path d="M204.35 305.5 L207.3 303.2 213.1 315.55 210.25 328.05 209.4 328.6 Q211.85 336.95 212.95 345.3 L209.0 347.25 Q210.55 358.05 207.3 373.8 L206.85 375.75 204.45 376.75 202.1 398.6 199.25 400.25 Q195.7 413.8 197.0 428.85 M196.25 310.1 Q198.0 309.35 199.75 308.4 L200.45 308.0 203.05 306.4 204.35 305.5 M194.1 329.25 L198.65 335.2 209.4 328.6 M189.25 323.0 L191.0 325.25 191.8 326.3 M194.1 329.25 L193.55 328.6 191.95 326.5 M186.6 349.4 L188.0 350.25 194.7 354.35 209.0 347.25 M183.4 347.45 L184.5 348.15 186.6 349.4 M189.1 379.4 L192.95 381.5 204.45 376.75 M185.3 377.25 L184.15 376.65 181.9 375.4 M185.3 377.25 L189.1 379.4 M186.9 401.2 L188.1 402.15 190.9 404.35 191.45 404.75 199.25 400.25 M183.4 347.45 L181.1 346.05 M186.9 401.2 L184.25 399.15 M187.25 430.35 L189.15 429.95 Q191.3 429.8 193.45 431.45 M186.95 430.5 L187.25 430.35 M180.75 453.9 L182.1 457.45 Q183.5 460.55 185.65 463.65 L194.65 453.45 M185.3 431.45 L186.95 430.5 M180.75 453.9 Q179.75 450.85 179.55 447.75" fill="none" stroke="#000000" stroke-linecap="round" stroke-linejoin="round" stroke-width="1.0"/>
    <path d="M197.0 428.85 L193.45 431.45 194.65 453.45 194.65 457.05 185.8 466.95 Q183.0 464.15 181.15 461.25 L179.55 458.3 Q178.25 455.5 177.85 452.65 L179.55 447.75 179.55 447.7 185.3 431.45 184.4 430.4 182.15 427.75 Q185.4 424.1 184.25 399.15 L183.75 398.75 181.85 397.3 Q180.1 386.35 181.9 375.4 L181.0 374.75 178.25 372.75 Q178.05 357.0 181.1 346.05 L178.4 344.4 Q181.4 331.85 189.25 323.0 L187.95 322.15 194.0 310.9 196.25 310.1" fill="none" stroke="#000000" stroke-linecap="round" stroke-linejoin="round" stroke-width="2.0"/>
  </g>
  <defs>
    <radialGradient cx="0" cy="0" gradientTransform="matrix(0.0258, 0.0, 0.0, 0.0258, 196.5, 321.35)" gradientUnits="userSpaceOnUse" id="gradient0" r="819.2" spreadMethod="pad">
      <stop offset="0.0" stop-color="#000000" stop-opacity="0.0"/>
      <stop offset="1.0" stop-color="#000000" stop-opacity="0.2509804"/>
    </radialGradient>
    <radialGradient cx="0" cy="0" gradientTransform="matrix(0.0317, 0.0, 0.0, 0.0317, 187.8, 338.85)" gradientUnits="userSpaceOnUse" id="gradient1" r="819.2" spreadMethod="pad">
      <stop offset="0.0" stop-color="#000000" stop-opacity="0.0"/>
      <stop offset="1.0" stop-color="#000000" stop-opacity="0.2509804"/>
    </radialGradient>
    <radialGradient cx="0" cy="0" gradientTransform="matrix(0.0278, 0.0, 0.0, 0.0278, 187.3, 391.7)" gradientUnits="userSpaceOnUse" id="gradient2" r="819.2" spreadMethod="pad">
      <stop offset="0.0" stop-color="#000000" stop-opacity="0.0"/>
      <stop offset="1.0" stop-color="#000000" stop-opacity="0.2509804"/>
    </radialGradient>
    <radialGradient cx="0" cy="0" gradientTransform="matrix(0.0346, 0.0, 0.0, 0.0346, 184.8, 361.5)" gradientUnits="userSpaceOnUse" id="gradient3" r="819.2" spreadMethod="pad">
      <stop offset="0.0" stop-color="#000000" stop-opacity="0.0"/>
      <stop offset="1.0" stop-color="#000000" stop-opacity="0.2509804"/>
    </radialGradient>
    <radialGradient cx="0" cy="0" gradientTransform="matrix(0.0259, 0.0, 0.0, 0.0259, 188.3, 418.4)" gradientUnits="userSpaceOnUse" id="gradient4" r="819.2" spreadMethod="pad">
      <stop offset="0.0" stop-color="#000000" stop-opacity="0.0"/>
      <stop offset="1.0" stop-color="#000000" stop-opacity="0.2509804"/>
    </radialGradient>
    <radialGradient cx="0" cy="0" gradientTransform="matrix(0.0228, 0.0, 0.0, 0.0228, 184.55, 447.7)" gradientUnits="userSpaceOnUse" id="gradient5" r="819.2" spreadMethod="pad">
      <stop offset="0.0" stop-color="#000000" stop-opacity="0.0"/>
      <stop offset="1.0" stop-color="#000000" stop-opacity="0.2509804"/>
    </radialGradient>
  </defs>
</svg>
