<?xml version="1.0" encoding="UTF-8" standalone="no"?>
<svg xmlns:xlink="http://www.w3.org/1999/xlink" height="111.7px" width="29.5px" xmlns="http://www.w3.org/2000/svg">
  <g transform="matrix(1.0, 0.0, 0.0, 1.0, -194.7, -345.8)">
    <path d="M200.55 384.05 L201.45 378.7 202.6 371.9 203.75 365.15 205.4 355.55 207.1 354.65 209.8 353.15 Q215.15 349.8 217.2 346.3 L219.3 349.05 M219.35 349.15 L219.6 349.45 Q221.0 351.65 221.9 354.1 M198.25 397.65 L199.45 390.55 200.45 384.6 204.45 383.6 Q209.95 382.4 215.0 382.5 M201.45 378.7 L201.5 378.7 206.0 377.3 Q211.45 375.9 216.95 375.9 M220.0 362.4 Q214.45 362.35 208.9 363.7 L203.75 365.15 M218.5 369.15 Q213.0 369.35 207.55 370.6 L202.6 371.9 M213.2 388.9 L203.15 389.8 199.45 390.55 M210.5 402.45 Q206.1 402.35 201.75 403.3 L199.0 403.95 M199.3 410.85 L201.65 410.4 209.65 409.7 M198.25 397.65 L201.7 396.75 Q206.95 395.55 211.7 395.6 M209.2 430.7 Q203.8 431.15 200.1 428.2 L198.0 426.05 M198.6 421.95 L200.75 422.85 Q204.85 424.35 209.0 424.25 M209.2 416.45 L199.15 416.45" fill="none" stroke="#000000" stroke-linecap="round" stroke-linejoin="round" stroke-width="1.0"/>
    <path d="M221.9 354.1 Q222.85 356.7 223.2 359.55 L220.0 362.4 218.5 369.15 Q219.5 372.5 217.0 375.9 L216.75 376.95 216.5 377.95 215.0 382.5 Q215.8 385.4 213.2 388.9 L211.7 395.6 Q212.65 399.0 210.5 402.45 210.0 406.05 209.65 409.7 211.0 413.05 209.2 416.45 L209.0 424.25 Q210.65 427.45 209.2 430.7 L223.1 456.5 Q217.55 456.15 212.0 453.35 208.45 451.5 204.9 448.7 L204.7 445.95 Q204.05 441.55 201.25 437.5 L201.2 437.5 195.7 434.8 Q196.35 430.4 198.0 426.05 L197.85 424.85 Q197.55 423.65 198.6 421.95 L199.15 416.45 Q197.7 413.65 199.3 410.85 L199.0 403.95 198.25 397.65 M216.95 375.9 L217.0 375.9 M216.95 375.9 L216.75 376.95" fill="none" stroke="#000000" stroke-linecap="round" stroke-linejoin="round" stroke-width="2.0"/>
    <path d="M219.3 349.05 L219.35 349.15" fill="none" stroke="#000000" stroke-linecap="round" stroke-linejoin="round" stroke-width="1.0"/>
  </g>
</svg>
