<?xml version="1.0" encoding="UTF-8" standalone="no"?>
<svg xmlns:xlink="http://www.w3.org/1999/xlink" height="37.15px" width="59.55px" xmlns="http://www.w3.org/2000/svg">
  <g transform="matrix(1.0, 0.0, 0.0, 1.0, -189.65, -212.0)">
    <path d="M249.15 237.0 Q249.4 238.55 248.45 240.65 L237.5 249.15 230.95 233.35 218.9 249.15 190.05 241.2 Q189.0 238.4 190.6 235.95 192.3 224.95 206.35 212.0 L208.35 212.4 212.0 213.1 212.25 213.15 214.4 213.55 214.85 213.6 221.2 214.55 222.3 214.65 228.1 215.1 229.55 215.15 231.0 215.15 235.35 214.65 236.4 214.4 Q238.55 213.65 239.4 212.35 246.6 224.55 248.15 235.0 L248.9 236.25 249.15 236.85 249.15 237.0" fill="#000000" fill-rule="evenodd" stroke="none"/>
  </g>
</svg>
