<?xml version="1.0" encoding="UTF-8" standalone="no"?>
<svg xmlns:xlink="http://www.w3.org/1999/xlink" height="49.7px" width="38.3px" xmlns="http://www.w3.org/2000/svg">
  <g transform="matrix(1.0, 0.0, 0.0, 1.0, -151.7, -234.65)">
    <path d="M157.85 235.45 L163.7 234.7 163.8 234.7 164.4 234.65 180.85 235.15 183.75 235.65 188.1 236.55 186.55 248.15 185.2 248.55 186.25 256.3 185.0 256.95 187.5 263.1 186.4 264.05 190.0 269.9 188.8 271.15 Q186.1 274.05 184.05 277.6 182.7 279.85 181.65 282.4 L181.35 283.2 180.95 284.35 172.45 280.05 172.0 272.6 170.55 272.0 165.7 264.65 163.9 263.85 159.1 253.8 157.3 253.0 151.7 236.8 152.15 236.7 154.1 236.2 157.85 235.45" fill="#000000" fill-rule="evenodd" stroke="none"/>
  </g>
</svg>
