<?xml version="1.0" encoding="UTF-8" standalone="no"?>
<svg xmlns:xlink="http://www.w3.org/1999/xlink" height="24.45px" width="21.1px" xmlns="http://www.w3.org/2000/svg">
  <g transform="matrix(1.0, 0.0, 0.0, 1.0, -234.85, -265.4)">
    <path d="M252.15 284.45 L250.15 284.4 250.25 287.25 Q249.7 290.1 246.85 289.85 245.15 289.55 244.55 288.4 242.1 289.55 240.65 288.75 239.6 288.1 239.1 286.4 237.4 287.0 236.3 286.4 235.35 285.85 234.85 284.45 L237.85 277.95 237.35 277.3 237.4 277.25 240.45 269.15 240.6 269.1 240.5 268.95 241.55 265.95 242.9 265.9 246.3 265.4 255.95 274.9 Q253.05 278.6 252.15 284.45" fill="#000000" fill-rule="evenodd" stroke="none"/>
  </g>
</svg>
