<?xml version="1.0" encoding="UTF-8" standalone="no"?>
<svg xmlns:xlink="http://www.w3.org/1999/xlink" height="44.4px" width="87.05px" xmlns="http://www.w3.org/2000/svg">
  <g transform="matrix(1.0, 0.0, 0.0, 1.0, -161.2, -230.7)">
    <path d="M246.4 255.95 Q247.85 252.9 246.5 249.85 M246.3 265.55 L246.25 265.55 Q248.15 260.75 246.4 255.95 M163.0 231.7 Q160.55 237.4 165.7 242.25 163.85 247.05 168.65 251.85 167.4 257.4 171.75 260.75 170.95 267.3 175.1 271.2 M180.8 239.6 Q182.95 235.4 180.9 231.8 M181.0 249.4 Q183.6 244.8 180.8 239.6 M181.7 259.65 Q183.8 254.9 181.0 249.4 M181.7 259.65 Q183.95 263.15 182.5 267.35" fill="none" stroke="#000000" stroke-linecap="round" stroke-linejoin="round" stroke-width="2.0"/>
    <path d="M246.5 249.85 L246.2 251.15 244.7 256.25 246.4 255.95 M165.7 242.25 Q173.25 244.65 180.8 239.6 M180.9 231.8 Q172.75 236.55 163.0 231.7 M168.65 251.85 Q174.85 253.25 181.0 249.4 M171.75 260.75 Q176.4 262.95 181.7 259.65 M182.5 267.35 Q181.7 271.1 182.05 272.6 L176.6 274.6 175.1 271.2 M244.7 256.25 L241.55 266.1 246.3 265.55" fill="none" stroke="#000000" stroke-linecap="round" stroke-linejoin="round" stroke-width="1.0"/>
  </g>
</svg>
