<?xml version="1.0" encoding="UTF-8" standalone="no"?>
<svg xmlns:xlink="http://www.w3.org/1999/xlink" height="30.1px" width="27.1px" xmlns="http://www.w3.org/2000/svg">
  <g transform="matrix(1.0, 0.0, 0.0, 1.0, -172.1, -266.35)">
    <path d="M186.35 269.7 L189.15 271.3 190.05 271.8 Q188.0 276.35 188.65 281.3 184.55 282.5 180.6 282.4 L177.15 282.1 173.7 281.3 177.15 282.1 180.6 282.4 Q184.55 282.5 188.65 281.3 188.0 276.35 190.05 271.8 L197.15 275.8 197.15 275.85 195.75 282.45 198.2 286.1 197.6 286.85 Q196.75 287.6 195.55 287.5 194.35 287.4 192.8 286.55 192.6 290.55 192.8 294.55 L188.45 295.45 187.85 293.9 Q184.8 295.15 182.9 292.55 L173.1 286.1 173.7 281.3 174.65 273.55 175.45 270.1 177.15 270.55 Q179.0 270.75 180.6 269.45 L182.5 267.35 186.4 269.65 186.35 269.7 M173.1 286.1 L180.85 288.4 182.9 292.55 180.85 288.4 173.1 286.1 M195.75 282.45 L192.95 284.2 195.75 282.45 M192.8 286.55 L192.95 284.2 193.45 278.6 192.95 284.2 192.8 286.55 M193.45 278.6 L197.15 275.85 193.45 278.6 M180.85 288.4 Q183.75 290.05 186.2 289.7 L186.25 289.7 Q187.55 289.45 188.75 288.65 L189.15 288.3 189.25 288.25 190.9 286.65 192.95 284.2 190.9 286.65 189.25 288.25 189.15 288.3 188.75 288.65 Q187.55 289.45 186.25 289.7 L186.2 289.7 187.85 293.9 186.2 289.7 Q183.75 290.05 180.85 288.4" fill="url(#gradient0)" fill-rule="evenodd" stroke="none"/>
    <path d="M182.9 292.55 L180.85 288.4 173.1 286.1 M193.45 278.6 L192.95 284.2 192.8 286.55 M192.95 284.2 L190.9 286.65 189.25 288.25 189.15 288.3 188.75 288.65 Q187.55 289.45 186.25 289.7 L186.2 289.7 187.85 293.9 M186.2 289.7 Q183.75 290.05 180.85 288.4" fill="none" stroke="#000000" stroke-linecap="round" stroke-linejoin="round" stroke-width="1.0"/>
    <path d="M174.65 273.55 L173.7 281.3 173.1 286.1 182.9 292.55 Q184.8 295.15 187.85 293.9 L188.45 295.45 192.8 294.55 Q192.6 290.55 192.8 286.55 194.35 287.4 195.55 287.5 196.75 287.6 197.6 286.85 L198.2 286.1 195.75 282.45 197.15 275.85 197.15 275.8 190.05 271.8" fill="none" stroke="#000000" stroke-linecap="round" stroke-linejoin="round" stroke-width="2.0"/>
    <path d="M173.7 281.3 L177.15 282.1 180.6 282.4 Q184.55 282.5 188.65 281.3 188.0 276.35 190.05 271.8 M192.95 284.2 L195.75 282.45 M197.15 275.85 L193.45 278.6" fill="none" stroke="#000000" stroke-linecap="round" stroke-linejoin="round" stroke-opacity="0.2509804" stroke-width="1.0"/>
    <path d="M186.4 269.65 L182.5 267.35 M175.45 270.1 L174.65 273.55 M189.15 271.3 L186.4 269.65" fill="none" stroke="#000000" stroke-linecap="round" stroke-linejoin="round" stroke-width="2.0"/>
    <path d="M182.5 267.35 L180.6 269.45 Q179.0 270.75 177.15 270.55 L175.45 270.1" fill="none" stroke="#000000" stroke-linecap="round" stroke-linejoin="round" stroke-width="1.0"/>
    <path d="M190.05 271.8 L189.15 271.3 186.35 269.7" fill="none" stroke="#000000" stroke-linecap="round" stroke-linejoin="round" stroke-width="2.0"/>
    <path d="M177.15 270.55 Q179.0 270.75 180.6 269.45 L180.6 282.4 180.85 288.4 177.0 287.25 177.15 282.1 180.6 282.4 177.15 282.1 177.15 270.55" fill="#ffffff" fill-opacity="0.2509804" fill-rule="evenodd" stroke="none"/>
    <path d="M173.1 286.1 L177.0 287.25 180.85 288.4 Q183.75 290.05 186.2 289.7 L186.25 289.7 Q187.55 289.45 188.75 288.65 L189.15 288.3 189.25 288.25 190.9 286.65 192.95 284.2 193.45 278.6 M187.85 293.9 L186.2 289.7 M192.95 284.2 L192.8 286.55 M180.85 288.4 L182.9 292.55" fill="none" stroke="#000000" stroke-linecap="round" stroke-linejoin="round" stroke-width="1.0"/>
    <path d="M186.4 269.65 L190.05 271.8 197.15 275.8 197.15 275.85 195.75 282.45 198.2 286.1 197.6 286.85 Q196.75 287.6 195.55 287.5 194.35 287.4 192.8 286.55 192.6 290.55 192.8 294.55 L188.45 295.45 187.85 293.9 Q184.8 295.15 182.9 292.55 L173.1 286.1 173.7 281.3 174.65 273.55" fill="none" stroke="#000000" stroke-linecap="round" stroke-linejoin="round" stroke-width="2.0"/>
    <path d="M177.15 282.1 L173.7 281.3 M180.6 282.4 L177.15 282.1 M193.45 278.6 L197.15 275.85 M192.95 284.2 L195.75 282.45 M190.05 271.8 Q188.0 276.35 188.65 281.3 185.6 282.15 182.65 282.35 L180.6 282.4" fill="none" stroke="#000000" stroke-linecap="round" stroke-linejoin="round" stroke-opacity="0.2509804" stroke-width="1.0"/>
    <path d="M182.5 267.35 L186.4 269.65 M174.65 273.55 L175.45 270.1" fill="none" stroke="#000000" stroke-linecap="round" stroke-linejoin="round" stroke-width="2.0"/>
    <path d="M175.45 270.1 L177.15 270.55 Q179.0 270.75 180.6 269.45 L182.5 267.35" fill="none" stroke="#000000" stroke-linecap="round" stroke-linejoin="round" stroke-width="1.0"/>
  </g>
  <defs>
    <linearGradient gradientTransform="matrix(-0.0119, 0.0031, -0.0017, -0.0065, 172.75, 252.9)" gradientUnits="userSpaceOnUse" id="gradient0" spreadMethod="pad" x1="-819.2" x2="819.2">
      <stop offset="0.0" stop-color="#000000" stop-opacity="0.0"/>
      <stop offset="1.0" stop-color="#000000" stop-opacity="0.2509804"/>
    </linearGradient>
  </defs>
</svg>
