<?xml version="1.0" encoding="UTF-8" standalone="no"?>
<svg xmlns:xlink="http://www.w3.org/1999/xlink" height="8.5px" width="27.75px" xmlns="http://www.w3.org/2000/svg">
  <g transform="matrix(1.0, 0.0, 0.0, 1.0, -198.9, -108.85)">
    <path d="M206.55 116.55 L207.2 116.1 Q207.75 115.55 207.75 114.8 L207.75 114.55 Q209.15 115.15 210.5 116.05 L206.55 116.55 M204.0 113.35 L204.6 113.5 Q204.05 114.05 204.05 114.8 204.05 115.55 204.6 116.1 L205.05 116.45 202.6 115.8 Q201.15 113.55 204.0 113.35 M219.3 114.8 Q219.35 115.8 219.85 116.3 220.3 116.75 220.9 116.85 L220.5 116.9 216.75 116.65 Q217.6 115.8 218.6 115.2 L219.3 114.8 M222.15 116.55 L222.45 116.3 Q223.0 115.75 223.0 115.0 223.0 114.4 222.65 113.95 224.5 114.55 222.55 116.45 L222.15 116.55" fill="#ffffff" fill-rule="evenodd" stroke="none"/>
    <path d="M204.0 113.35 Q201.15 113.55 202.6 115.8 200.6 114.9 199.4 113.0 L204.0 113.35 M222.65 113.95 L222.05 113.8 226.15 113.55 Q224.8 115.65 222.55 116.45 224.5 114.55 222.65 113.95" fill="#000000" fill-rule="evenodd" stroke="none"/>
    <path d="M210.5 116.05 Q209.15 115.15 207.75 114.55 L207.75 114.8 Q207.75 115.55 207.2 116.1 L206.55 116.55 205.05 116.45 204.6 116.1 Q204.05 115.55 204.05 114.8 204.05 114.05 204.6 113.5 L204.0 113.35 199.4 113.0 Q200.6 114.9 202.6 115.8 L205.05 116.45 M204.6 113.5 Q206.25 113.85 207.75 114.55 M222.05 113.8 L221.85 113.85 Q220.5 114.15 219.3 114.8 219.35 115.8 219.85 116.3 220.3 116.75 220.9 116.85 L222.15 116.55 222.45 116.3 Q223.0 115.75 223.0 115.0 223.0 114.4 222.65 113.95 M222.05 113.8 L226.15 113.55 Q224.8 115.65 222.55 116.45 L222.15 116.55 221.2 116.85 220.9 116.85 M216.75 116.65 Q217.6 115.8 218.6 115.2 L219.3 114.8 M217.25 112.85 Q222.55 108.35 224.5 110.5 M199.6 110.25 Q204.7 107.55 210.75 112.95" fill="none" stroke="#000000" stroke-linecap="round" stroke-linejoin="round" stroke-width="1.0"/>
  </g>
</svg>
