<?xml version="1.0" encoding="UTF-8" standalone="no"?>
<svg xmlns:xlink="http://www.w3.org/1999/xlink" height="79.6px" width="63.15px" xmlns="http://www.w3.org/2000/svg">
  <g transform="matrix(1.0, 0.0, 0.0, 1.0, -176.35, -85.0)">
    <path d="M200.95 96.85 Q194.7 92.85 189.2 92.4 L189.15 92.4 Q187.95 97.1 190.15 101.85 188.15 106.85 189.45 111.85 L186.3 112.6 Q185.05 109.3 186.55 106.35 L184.45 104.1 186.6 102.3 Q183.2 93.35 188.35 88.35 192.0 89.6 194.95 91.5 198.4 93.75 200.95 96.85 M189.45 111.85 Q191.0 111.65 192.55 111.85 L193.9 112.1 Q193.2 112.35 192.6 112.75 190.4 114.0 189.9 116.2 L191.9 115.8 192.75 115.8 192.95 115.8 192.8 116.1 Q193.85 132.05 199.15 148.05 194.4 149.55 190.8 152.95 L190.15 152.55 189.45 152.1 Q183.8 152.4 177.35 155.15 178.8 150.25 185.05 147.45 L185.5 147.3 186.3 146.95 Q193.75 134.9 188.95 122.15 186.8 117.55 188.15 114.15 L189.4 111.95 189.45 111.85 M212.6 129.0 L212.85 129.1 Q215.65 130.6 217.3 133.4 L218.7 136.15 219.1 136.8 Q219.55 140.05 221.15 143.7 L219.05 140.5 Q210.2 134.85 204.15 125.4 206.7 126.9 210.0 128.0 211.4 128.4 212.6 129.0 M233.5 140.4 Q235.55 130.2 230.05 122.15 227.2 116.25 231.35 111.8 232.45 112.6 232.8 113.55 234.65 116.7 232.95 117.85 232.5 118.75 233.35 121.35 237.0 127.2 237.15 131.7 237.2 134.45 236.4 141.3 235.4 140.05 233.5 140.4 M226.85 111.2 Q225.65 112.25 224.9 109.95 227.95 108.9 230.35 106.55 L230.4 106.55 Q231.7 107.35 231.45 108.5 231.4 109.25 230.25 109.6 L229.55 109.55 Q228.35 109.65 227.0 111.1 L226.85 111.2 M223.75 97.95 L215.0 91.6 214.7 90.7 Q215.9 88.1 218.1 86.3 222.8 91.5 223.75 97.95 M219.35 111.75 Q219.7 113.85 216.9 113.55 215.75 113.25 214.95 112.25 L214.45 111.55 Q212.05 109.6 209.55 108.65 L208.25 108.25 Q204.9 108.7 204.6 104.75 206.7 106.4 208.65 106.4 212.6 105.95 216.05 110.2 217.55 111.9 219.35 111.75 M222.3 146.15 L223.65 148.6 225.6 150.8 226.5 155.3 Q218.75 149.1 214.8 147.4 L216.6 163.6 Q213.55 149.4 211.6 143.4 L222.3 146.15 M189.45 152.1 L190.05 152.05 190.15 152.55 190.05 152.05 189.45 152.1" fill="#000000" fill-opacity="0.2509804" fill-rule="evenodd" stroke="none"/>
    <path d="M196.75 117.1 Q195.7 113.9 196.75 110.75 199.15 120.35 212.6 129.0 211.4 128.4 210.0 128.0 206.7 126.9 204.15 125.4 200.4 123.15 198.3 120.05 197.4 118.65 196.8 117.1 L196.75 117.1" fill="#000000" fill-opacity="0.2" fill-rule="evenodd" stroke="none"/>
    <path d="M231.85 146.25 Q231.05 145.4 230.55 144.25 230.1 142.35 232.1 140.85 L233.5 140.4 Q235.4 140.05 236.4 141.3 L236.4 141.35 Q237.75 143.9 237.55 146.3 236.65 148.45 234.3 147.9 232.85 147.3 231.85 146.25" fill="#000000" fill-rule="evenodd" stroke="none"/>
    <path d="M200.95 96.85 Q198.4 93.75 194.95 91.5 M189.45 111.85 Q191.0 111.65 192.55 111.85 L193.9 112.1 Q193.2 112.35 192.6 112.75 190.4 114.0 189.9 116.2 L191.9 115.8 192.75 115.8 192.95 115.8 Q195.0 115.9 196.75 117.1 L196.8 117.1 Q197.4 118.65 198.3 120.05 200.4 123.15 204.15 125.4 206.7 126.9 210.0 128.0 211.4 128.4 212.6 129.0 M231.85 146.25 Q231.05 145.4 230.55 144.25 230.1 142.35 232.1 140.85 L233.5 140.4 Q235.4 140.05 236.4 141.3 M229.55 110.9 Q229.3 112.05 228.25 112.45 227.05 112.75 226.85 111.2 225.65 112.25 224.9 109.95 M223.75 97.95 L215.0 91.6 214.7 90.7 M229.55 109.55 Q228.35 109.65 227.0 111.1 L226.85 111.2 M229.55 109.55 L229.55 110.9 M204.6 104.75 Q204.9 108.7 208.25 108.25 L209.55 108.65 Q212.05 109.6 214.45 111.55 L214.95 112.25 Q215.75 113.25 216.9 113.55 219.7 113.85 219.35 111.75 M209.55 108.65 Q208.6 112.65 211.85 113.9 214.0 114.0 214.95 112.25 M189.2 92.4 Q194.1 94.95 197.45 99.35" fill="none" stroke="#000000" stroke-linecap="round" stroke-linejoin="round" stroke-width="1.0"/>
    <path d="M194.95 91.5 Q192.0 89.6 188.35 88.35 183.2 93.35 186.6 102.3 L184.45 104.1 186.55 106.35 Q185.05 109.3 186.3 112.6 L189.45 111.85 M219.1 136.8 Q222.15 142.0 225.4 144.35 228.5 146.55 231.85 146.25 232.85 147.3 234.3 147.9 236.65 148.45 237.55 146.3 237.75 143.9 236.4 141.35 L236.4 141.3 Q237.2 134.45 237.15 131.7 237.0 127.2 233.35 121.35 232.5 118.75 232.95 117.85 234.65 116.7 232.8 113.55 232.45 112.6 231.35 111.8 L229.55 110.9 M230.35 106.55 L228.0 104.7 223.75 97.95 Q222.8 91.5 218.1 86.3 215.9 88.1 214.7 90.7 213.8 88.65 211.8 86.35 212.05 88.25 211.3 90.05 206.7 86.3 200.85 86.0 203.25 87.7 204.25 89.7 199.15 89.45 194.95 91.5 M230.35 106.55 L230.4 106.55 Q231.7 107.35 231.45 108.5 231.4 109.25 230.25 109.6 L229.55 109.55" fill="none" stroke="#000000" stroke-linecap="round" stroke-linejoin="round" stroke-width="2.0"/>
    <path d="M218.7 136.15 L219.1 136.8 Q219.55 140.05 221.15 143.7 L222.3 146.15 223.65 148.6 225.6 150.8 228.35 153.9 Q233.45 154.9 238.5 158.55 233.0 157.0 227.5 157.05 228.4 159.55 228.85 162.85 221.85 157.25 218.25 155.7 218.8 160.25 216.6 163.6 210.35 161.55 207.1 155.6 L204.1 156.35 Q199.85 157.75 196.5 160.75 191.05 157.45 190.15 152.55 L190.05 152.05 189.45 152.1 Q183.8 152.4 177.35 155.15 178.8 150.25 185.05 147.45 L185.5 147.3 186.3 146.95 Q193.75 134.9 188.95 122.15 186.8 117.55 188.15 114.15 L189.4 111.95" fill="none" stroke="#000000" stroke-linecap="round" stroke-linejoin="round" stroke-width="2.0"/>
    <path d="M212.6 129.0 L212.85 129.1 Q215.65 130.6 217.3 133.4 L218.7 136.15" fill="none" stroke="#000000" stroke-linecap="round" stroke-linejoin="round" stroke-width="1.0"/>
  </g>
</svg>
