<?xml version="1.0" encoding="UTF-8" standalone="no"?>
<svg xmlns:xlink="http://www.w3.org/1999/xlink" height="297.5px" width="92.8px" xmlns="http://www.w3.org/2000/svg">
  <g transform="matrix(1.0, 0.0, 0.0, 1.0, -154.85, -138.15)">
    <path d="M213.3 141.8 Q222.65 145.85 231.05 148.05 232.5 149.65 233.05 153.05 L240.45 154.45 Q242.2 158.9 243.15 165.1 245.2 167.45 245.8 170.45 246.35 172.85 245.65 175.15 L244.2 178.0 Q244.45 189.85 242.85 205.85 L247.65 217.35 245.9 227.15 Q248.05 234.95 247.55 242.85 L246.4 252.25 Q245.1 263.0 244.1 273.3 L243.5 279.4 243.25 281.85 243.05 284.35 242.65 288.95 Q243.5 288.8 244.55 288.3 245.1 289.4 246.8 289.7 L247.55 289.7 Q247.1 302.85 241.05 311.05 237.0 377.4 244.6 422.35 234.85 432.2 220.9 433.25 L221.4 415.1 Q215.35 412.8 209.5 411.85 210.85 394.15 216.5 377.95 L223.95 345.05 224.3 345.0 224.55 341.35 224.55 341.3 224.25 341.3 Q224.95 328.2 221.5 315.15 L221.5 311.35 Q228.3 298.55 233.7 286.2 234.75 278.25 235.3 270.25 235.75 251.3 235.7 235.75 L235.6 229.65 Q234.9 182.65 228.5 169.55 221.35 152.3 213.4 147.05 213.2 144.35 213.3 141.8 M196.05 144.2 Q195.1 146.2 196.45 149.85 199.2 157.35 211.7 171.85 214.95 176.05 216.05 180.65 L216.7 184.25 217.55 190.65 Q220.3 211.0 219.3 232.55 218.6 246.95 215.95 261.35 L213.1 274.65 203.45 313.95 201.3 322.9 Q189.7 372.6 187.95 412.8 187.4 424.65 187.7 435.65 L184.0 435.15 183.8 435.15 Q177.95 434.25 173.4 432.85 163.6 429.85 159.7 424.45 163.55 416.25 166.7 368.85 166.9 341.75 170.1 314.65 174.8 322.4 179.15 324.7 L179.25 324.75 179.35 324.8 179.4 324.75 179.45 324.65 179.4 324.55 Q172.75 319.75 173.1 286.15 L182.8 292.55 Q184.75 295.2 187.85 293.9 L188.4 295.5 192.8 294.55 Q192.65 290.85 192.8 287.15 L194.2 287.15 195.6 287.45 Q196.8 287.55 197.7 286.75 L198.3 286.05 195.8 282.4 197.2 275.7 182.65 267.45 182.65 267.4 182.65 267.3 182.55 267.25 Q185.1 246.2 190.25 232.95 198.75 210.85 191.5 197.65 187.65 191.7 185.05 183.4 181.85 199.0 177.25 214.65 180.7 219.4 181.3 224.15 179.9 245.5 182.5 267.2 179.9 266.1 177.6 267.8 176.4 268.55 175.35 270.05 L175.35 270.1 Q173.7 278.75 172.85 286.05 172.5 317.55 178.3 323.95 174.4 321.3 170.2 314.4 L170.15 314.35 170.05 314.35 Q162.9 302.7 154.85 278.95 155.4 268.25 156.8 257.5 L158.95 239.05 Q159.8 230.85 160.7 225.15 161.9 191.95 166.4 161.0 L175.05 157.25 175.1 157.25 175.05 157.2 175.0 157.2 Q174.7 154.4 176.2 151.2 188.45 145.45 196.8 138.15 L196.05 144.2 M180.65 159.0 L180.65 158.95 180.6 159.0 180.65 159.0 M195.9 411.4 L198.25 397.65 Q199.3 404.4 199.35 411.2 L195.9 411.4" fill="#000000" fill-rule="evenodd" stroke="none"/>
  </g>
</svg>
