<?xml version="1.0" encoding="UTF-8" standalone="no"?>
<svg xmlns:xlink="http://www.w3.org/1999/xlink" height="70.05px" width="60.8px" xmlns="http://www.w3.org/2000/svg">
  <g transform="matrix(1.0, 0.0, 0.0, 1.0, -181.65, -145.55)">
    <path d="M228.85 158.15 Q227.5 154.85 225.8 151.5 L225.7 151.3 226.0 151.4 227.55 151.8 230.4 158.6 230.15 158.6 228.85 158.15 M232.55 215.05 L231.45 215.1 Q231.9 212.4 231.95 209.75 L232.6 196.7 232.85 183.2 Q232.85 175.9 232.25 173.15 L227.4 168.95 226.1 163.25 213.6 159.65 194.8 154.5 185.15 151.95 186.7 151.0 195.45 153.35 194.8 154.5 195.45 153.35 214.05 158.6 226.95 162.5 228.25 168.25 233.1 172.4 233.2 172.55 232.25 173.15 233.2 172.55 233.4 172.5 Q233.85 175.25 233.85 182.65 L233.6 195.8 232.6 196.7 233.6 195.8 233.05 209.65 233.0 209.9 Q233.05 212.45 232.55 215.05 M225.8 151.5 L226.0 151.4 225.8 151.5 M213.6 159.65 L214.05 158.6 213.6 159.65 M232.85 183.2 L233.85 182.65 232.85 183.2 M231.95 209.75 L233.0 209.9 231.95 209.75" fill="#000000" fill-opacity="0.2509804" fill-rule="evenodd" stroke="none"/>
    <path d="M229.8 161.75 Q231.05 160.2 233.25 160.25 235.5 160.3 237.45 161.9 239.35 163.5 239.85 165.75 240.35 168.0 239.1 169.55 237.9 171.15 235.65 171.05 233.4 171.05 231.5 169.4 229.55 167.75 229.05 165.5 228.55 163.25 229.8 161.75 M237.0 163.75 L235.65 165.5 237.9 167.4 Q238.2 166.6 237.95 165.65 237.75 164.6 237.0 163.75 M235.65 162.65 Q234.75 162.15 233.7 162.1 232.75 162.1 232.05 162.5 L234.3 164.35 235.65 162.65 M230.95 165.5 Q231.15 166.55 231.9 167.45 L233.45 165.45 231.15 163.55 Q230.7 164.3 230.95 165.5 M235.2 169.1 Q236.4 169.15 237.15 168.5 L234.8 166.55 233.2 168.55 Q234.15 169.1 235.2 169.1" fill="#000000" fill-rule="evenodd" stroke="none"/>
    <path d="M185.15 151.95 L182.65 153.4 183.3 151.05 189.7 146.55 192.25 147.25 M225.7 151.3 L223.15 150.6 224.8 149.5 233.2 151.55 233.8 153.2 M185.15 151.95 L186.7 151.0 M227.55 151.8 L226.0 151.4 225.7 151.3" fill="none" stroke="#000000" stroke-linecap="round" stroke-linejoin="round" stroke-width="2.0"/>
    <path d="M192.25 147.25 L199.4 149.2 216.45 154.2 228.85 158.15 Q227.5 154.85 225.8 151.5 L225.7 151.3 M233.8 153.2 Q234.95 155.8 235.8 158.75 L240.75 162.95 241.95 168.65 238.9 172.55 238.95 172.55 Q239.4 175.25 239.25 182.95 L238.85 196.1 238.1 210.1 238.1 210.2 238.05 210.4 238.0 210.4 236.95 214.15 Q235.25 214.85 232.55 215.05 L231.45 215.1 Q231.9 212.4 231.95 209.75 L232.6 196.7 232.85 183.2 Q232.85 175.9 232.25 173.15 L227.4 168.95 226.1 163.25 213.6 159.65 194.8 154.5 185.15 151.95 M186.7 151.0 L195.45 153.35 199.4 149.2 M194.8 154.5 L195.45 153.35 214.05 158.6 216.45 154.2 M226.0 151.4 L225.8 151.5 M228.85 158.15 L230.15 158.6 230.4 158.6 227.55 151.8 M233.1 172.4 L228.25 168.25 226.95 162.5 214.05 158.6 213.6 159.65 M233.4 172.5 L233.35 172.4 233.2 172.55 232.25 173.15 M233.1 172.4 L233.35 172.4 238.9 172.55 M235.8 158.75 L230.4 158.6 M230.15 158.6 L226.95 162.5 M233.6 195.8 L238.85 196.1 M233.85 182.65 L232.85 183.2 M233.6 195.8 L233.85 182.65 Q233.85 175.25 233.4 172.5 M233.6 195.8 L232.6 196.7 M233.85 182.65 L239.25 182.95 M233.0 209.9 L233.05 209.65 233.6 195.8 M233.0 209.9 L238.0 210.4 238.1 210.2 M232.55 215.05 Q233.05 212.45 233.0 209.9 L231.95 209.75" fill="none" stroke="#000000" stroke-linecap="round" stroke-linejoin="round" stroke-width="1.0"/>
  </g>
</svg>
