<?xml version="1.0" encoding="UTF-8" standalone="no"?>
<svg xmlns:xlink="http://www.w3.org/1999/xlink" height="35.35px" width="44.85px" xmlns="http://www.w3.org/2000/svg">
  <g transform="matrix(1.0, 0.0, 0.0, 1.0, -195.05, -204.7)">
    <path d="M212.2 206.35 L215.85 207.0 215.8 207.0 Q215.0 209.3 214.0 211.05 213.45 209.8 211.85 209.55 L211.05 209.35 212.2 206.35" fill="#ffffff" fill-opacity="0.2509804" fill-rule="evenodd" stroke="none"/>
    <path d="M202.85 239.3 Q200.35 239.7 198.1 238.45 L197.5 238.05 Q195.65 236.75 196.25 234.1 L196.35 233.55 Q196.9 236.8 202.1 236.25 L202.1 237.45 Q202.15 238.85 202.85 239.3 M196.4 210.65 L196.35 210.4 196.35 209.8 Q196.4 208.95 197.35 208.35 197.7 209.2 198.75 209.8 L199.3 210.05 201.2 210.6 203.2 210.85 204.25 210.85 203.3 212.05 Q201.9 213.9 201.25 215.9 200.9 216.95 200.8 218.05 L199.95 216.85 Q197.75 219.25 197.45 222.1 198.25 222.65 199.05 222.85 L198.7 224.25 Q196.55 223.95 196.8 221.95 197.35 216.45 196.4 210.65" fill="#000000" fill-opacity="0.2509804" fill-rule="evenodd" stroke="none"/>
    <path d="M215.85 207.0 Q233.85 209.9 237.1 206.4 L237.65 208.35 237.85 208.9 239.4 212.35 Q236.3 217.3 214.0 213.45 L213.45 215.35 211.8 220.5 Q209.5 227.05 206.5 233.45 L205.7 235.25 205.3 236.0 Q205.1 237.75 203.65 239.55 L202.85 239.3 Q200.35 239.7 198.1 238.45 L197.5 238.05 Q195.65 236.75 196.25 234.1 L196.35 233.55 197.15 228.4 197.25 227.15 197.3 225.5 197.8 225.9 198.3 226.05 198.9 226.2 199.45 224.35 198.9 224.25 198.7 224.25 199.05 222.85 199.85 223.0 199.45 224.35 200.7 224.35 201.6 224.25 Q203.7 223.95 204.9 222.6 L206.5 220.55 209.65 215.75 209.8 215.45 Q210.7 213.75 211.6 213.05 212.3 212.45 213.0 212.5 L213.35 212.55 212.5 213.2 211.6 214.4 211.1 215.4 Q209.35 218.65 207.0 221.75 L206.5 222.95 Q204.15 228.95 203.4 234.95 L203.35 235.45 Q203.1 236.95 203.35 238.05 204.55 237.3 205.3 236.0 M208.8 205.7 L212.2 206.35 215.85 207.0 M214.0 211.05 L214.1 211.35 214.2 212.8 214.0 213.45 M214.0 211.05 Q213.45 209.8 211.85 209.55 L211.05 209.35 210.25 209.15 208.1 208.7 M200.8 218.05 Q201.8 219.9 201.65 222.5 201.15 222.8 200.65 222.9 L199.85 223.0 M200.8 218.05 L199.95 216.85 Q197.75 219.25 197.45 222.1 198.25 222.65 199.05 222.85 M207.0 221.75 L206.5 222.4 205.2 224.0 Q203.1 228.75 202.4 233.4 L202.1 236.25 202.1 237.45 Q202.15 238.85 202.85 239.3 M205.2 224.0 L203.15 225.5 Q201.05 226.6 198.9 226.2 L198.45 227.8 199.3 228.3 198.65 229.9 197.9 229.2 197.9 229.9 Q198.05 232.0 199.2 233.9 M196.4 210.65 Q197.35 216.45 196.8 221.95 196.55 223.95 198.7 224.25 L198.3 226.05 197.9 227.5 198.45 227.8 M197.25 227.15 L197.9 227.5 M197.9 229.2 L197.9 229.15 197.15 228.4 M197.9 229.9 Q197.35 232.3 197.9 234.5" fill="none" stroke="#000000" stroke-linecap="round" stroke-linejoin="round" stroke-width="1.0"/>
    <path d="M197.3 225.5 Q195.8 224.25 196.1 222.05 196.7 216.35 196.4 210.65 L196.35 210.4 196.35 209.8 Q196.4 208.95 197.35 208.35 197.85 208.15 198.3 207.9 L199.35 207.6 200.65 207.7 201.75 207.8 201.8 207.8 208.1 208.7 Q208.65 207.2 208.8 205.7" fill="none" stroke="#000000" stroke-linecap="round" stroke-linejoin="round" stroke-width="2.0"/>
  </g>
</svg>
