<?xml version="1.0" encoding="UTF-8" standalone="no"?>
<svg xmlns:xlink="http://www.w3.org/1999/xlink" height="16.7px" width="19.2px" xmlns="http://www.w3.org/2000/svg">
  <g transform="matrix(1.0, 0.0, 0.0, 1.0, -219.75, -202.95)">
    <path d="M233.15 213.65 L233.0 213.3 Q230.3 210.05 227.4 212.2 L226.25 213.5 223.35 213.4 225.45 210.4 234.1 210.8 235.6 213.75 233.15 213.65" fill="#ffffff" fill-opacity="0.2509804" fill-rule="evenodd" stroke="none"/>
    <path d="M233.15 213.65 L233.0 213.3 Q230.3 210.05 227.4 212.2 L226.25 213.5 Q225.5 214.55 225.35 215.85 L225.3 216.0 Q225.2 217.0 225.4 218.25 L220.25 217.85 223.35 213.4 225.45 210.4 230.25 203.45 234.1 210.8 235.6 213.75 238.45 219.15 233.0 218.8 Q233.7 217.75 233.8 216.6 L233.8 216.4 Q233.9 215.1 233.15 213.65 Z" fill="none" stroke="#000000" stroke-linecap="round" stroke-linejoin="round" stroke-width="1.0"/>
  </g>
</svg>
