<?xml version="1.0" encoding="UTF-8" standalone="no"?>
<svg xmlns:xlink="http://www.w3.org/1999/xlink" height="13.8px" width="9.95px" xmlns="http://www.w3.org/2000/svg">
  <g transform="matrix(1.0, 0.0, 0.0, 1.0, -186.45, -111.5)">
    <path d="M188.95 113.65 L191.55 112.1 Q192.25 111.8 193.2 112.55 L193.55 112.85 Q195.25 114.6 195.75 117.5 196.2 120.4 195.15 122.65 L193.8 124.45 Q193.1 124.95 192.35 124.7 L189.95 123.75 189.75 123.65 Q189.05 123.45 188.4 122.65 187.4 121.3 187.1 119.2 186.75 117.1 187.25 115.5 187.75 114.1 188.65 113.75 L188.75 113.7 188.85 113.7 188.95 113.65 189.3 113.65 Q190.15 113.7 191.0 114.8 192.05 116.1 192.4 118.15 192.7 120.3 192.15 121.9 191.55 123.5 190.55 123.7 L190.5 123.7 190.3 123.75 190.2 123.75 189.95 123.75" fill="none" stroke="#000000" stroke-linecap="round" stroke-linejoin="round" stroke-width="1.0"/>
  </g>
</svg>
