<?xml version="1.0" encoding="UTF-8" standalone="no"?>
<svg xmlns:xlink="http://www.w3.org/1999/xlink" height="54.55px" width="85.95px" xmlns="http://www.w3.org/2000/svg">
  <g transform="matrix(1.0, 0.0, 0.0, 1.0, -163.25, -54.65)">
    <path d="M173.75 98.65 Q168.1 96.3 163.25 93.6 179.85 88.85 195.85 88.9 L198.9 78.9 191.55 69.65 209.5 54.65 197.55 68.95 215.55 81.6 222.0 92.15 Q235.85 95.65 249.2 102.85 245.25 105.25 240.6 106.75 L229.95 102.7 234.45 108.25 224.75 109.2 222.1 109.2 220.95 109.15 207.2 107.75 207.15 107.7 200.75 106.55 195.95 105.5 195.55 105.45 193.55 104.95 189.95 104.05 188.25 103.6 Q180.45 101.4 173.75 98.65" fill="#000000" fill-rule="evenodd" stroke="none"/>
  </g>
</svg>
