<?xml version="1.0" encoding="UTF-8" standalone="no"?>
<svg xmlns:xlink="http://www.w3.org/1999/xlink" height="46.65px" width="32.95px" xmlns="http://www.w3.org/2000/svg">
  <g transform="matrix(1.0, 0.0, 0.0, 1.0, -192.3, -90.1)">
    <path d="M222.3 90.1 Q225.95 95.0 225.1 101.95 220.8 102.3 215.2 107.65 207.75 103.5 200.15 102.95 L195.45 106.6 Q196.05 111.55 197.9 116.55 199.15 120.05 201.0 123.5 200.7 130.15 204.2 136.75 L197.4 129.2 Q197.15 121.1 193.65 113.0 190.85 100.55 193.95 90.3 196.85 94.65 203.3 96.25 209.7 97.9 214.8 102.75 217.95 98.1 219.75 96.35 222.6 93.55 222.3 90.1" fill="#000000" fill-rule="evenodd" stroke="none"/>
  </g>
</svg>
