<?xml version="1.0" encoding="UTF-8" standalone="no"?>
<svg xmlns:xlink="http://www.w3.org/1999/xlink" height="47.65px" width="33.95px" xmlns="http://www.w3.org/2000/svg">
  <g transform="matrix(1.0, 0.0, 0.0, 1.0, -191.8, -89.6)">
    <path d="M215.2 107.65 Q207.75 103.5 200.15 102.95 L195.45 106.6 Q196.05 111.55 197.9 116.55 194.4 110.55 194.25 104.55 L196.9 101.05 Q206.35 101.0 215.2 107.65" fill="#000000" fill-opacity="0.2509804" fill-rule="evenodd" stroke="none"/>
    <path d="M214.8 102.75 Q217.95 98.1 219.75 96.35 222.6 93.55 222.3 90.1 225.95 95.0 225.1 101.95 220.8 102.3 215.2 107.65 207.75 103.5 200.15 102.95 L195.45 106.6 Q196.05 111.55 197.9 116.55 199.15 120.05 201.0 123.5 200.7 130.15 204.2 136.75 L197.4 129.2 Q197.15 121.1 193.65 113.0 190.85 100.55 193.95 90.3 196.85 94.65 203.3 96.25" fill="none" stroke="#000000" stroke-linecap="round" stroke-linejoin="round" stroke-width="1.0"/>
    <path d="M203.3 96.25 Q209.7 97.9 214.8 102.75" fill="none" stroke="#000000" stroke-linecap="round" stroke-linejoin="round" stroke-width="1.0"/>
  </g>
</svg>
