<?xml version="1.0" encoding="UTF-8" standalone="no"?>
<svg xmlns:xlink="http://www.w3.org/1999/xlink" height="30.05px" width="38.0px" xmlns="http://www.w3.org/2000/svg">
  <g transform="matrix(1.0, 0.0, 0.0, 1.0, -223.5, -143.95)">
    <path d="M229.3 151.75 L224.5 150.7 225.3 148.1 Q226.8 144.7 230.15 144.95 232.8 144.9 233.85 149.25 L236.25 157.35 236.45 157.9 237.2 159.25 239.25 161.9 236.5 160.55 231.8 159.15 231.25 158.1 231.05 157.55 229.3 151.75 228.75 149.8 Q228.0 149.2 227.3 149.8 228.0 149.2 228.75 149.8 L229.3 151.75 M258.05 165.7 Q259.7 166.2 260.5 167.0 L260.35 171.4 Q258.6 172.65 256.05 172.9 L255.8 172.9 254.9 172.95 253.9 173.0 252.7 172.95 251.8 172.9 251.3 172.9 248.8 172.6 246.05 172.1 245.8 170.45 Q245.3 167.8 243.7 165.7 L245.1 166.45 245.9 166.8 251.3 168.05 251.8 168.15 252.45 168.2 254.9 168.3 255.8 168.25 256.05 168.25 258.8 167.9 258.05 165.7" fill="url(#gradient0)" fill-rule="evenodd" stroke="none"/>
    <path d="M233.85 149.25 L252.1 154.7 Q255.95 160.1 258.05 165.7 L258.8 167.9 256.05 168.25 255.8 168.25 254.9 168.3 252.45 168.2 251.8 168.15 251.3 168.05 245.9 166.8 245.1 166.45 243.7 165.7 243.15 165.1 Q241.6 163.3 239.25 161.9 L237.2 159.25 236.45 157.9 236.25 157.35 233.85 149.25" fill="url(#gradient1)" fill-rule="evenodd" stroke="none"/>
    <path d="M253.9 173.0 L252.7 172.95 251.8 172.9 251.3 172.9 248.8 172.6 246.05 172.1 245.8 170.45 Q245.3 167.8 243.7 165.7 L243.15 165.1 Q241.6 163.3 239.25 161.9 L236.5 160.55 231.8 159.15 231.25 158.1 231.05 157.55 229.3 151.75 228.75 149.8 Q228.0 149.2 227.3 149.8 M233.85 149.25 L236.25 157.35 236.45 157.9 237.2 159.25 239.25 161.9 M243.7 165.7 L245.1 166.45 245.9 166.8 251.3 168.05 251.8 168.15 252.45 168.2 254.9 168.3 255.8 168.25 256.05 168.25 258.8 167.9 258.05 165.7" fill="none" stroke="#000000" stroke-linecap="round" stroke-linejoin="round" stroke-width="1.0"/>
    <path d="M229.3 151.75 L224.5 150.7 225.3 148.1 Q226.8 144.7 230.15 144.95 232.8 144.9 233.85 149.25 L252.1 154.7 Q255.95 160.1 258.05 165.7 259.7 166.2 260.5 167.0 L260.35 171.4 Q258.6 172.65 256.05 172.9 L255.8 172.9 254.9 172.95 253.9 173.0" fill="none" stroke="#000000" stroke-linecap="round" stroke-linejoin="round" stroke-width="2.0"/>
    <path d="M225.3 148.1 Q230.3 142.55 231.05 157.55 L229.3 151.75 224.5 150.7 225.3 148.1 M239.25 161.9 L237.2 159.25 236.45 157.9 236.25 157.35 236.0 156.4 Q244.4 164.45 255.8 168.15 L255.8 168.25 254.9 168.3 252.45 168.2 251.8 168.15 251.3 168.05 245.9 166.8 245.1 166.45 243.7 165.7 243.15 165.1 Q241.6 163.3 239.25 161.9 M227.3 149.8 Q228.0 149.2 228.75 149.8 L229.3 151.75 228.75 149.8 Q228.0 149.2 227.3 149.8" fill="#000000" fill-opacity="0.2509804" fill-rule="evenodd" stroke="none"/>
    <path d="M258.8 167.9 L253.6 161.8 Q239.3 160.85 240.15 153.95 L234.5 151.5 233.85 149.25 252.1 154.7 Q255.95 160.1 258.05 165.7 L258.8 167.9 M251.3 168.05 L251.8 168.15 252.45 168.2 254.9 168.3 255.8 168.25 255.8 172.9 254.9 172.95 253.9 173.0 252.7 172.95 251.8 172.9 251.3 172.9 251.3 168.05" fill="#ffffff" fill-opacity="0.2509804" fill-rule="evenodd" stroke="none"/>
    <path d="M231.05 157.55 L231.25 158.1 231.8 159.15 236.5 160.55 239.25 161.9 237.2 159.25 236.45 157.9 236.25 157.35 236.0 156.4 M255.8 168.25 L256.05 168.25 258.8 167.9 258.05 165.7 M234.5 151.5 L235.9 156.05 M233.85 149.25 L234.5 151.5 M229.3 151.75 L228.75 149.8 Q228.0 149.2 227.3 149.8 M229.3 151.75 L231.05 157.55 M239.25 161.9 Q241.6 163.3 243.15 165.1 L243.7 165.7 245.1 166.45 245.9 166.8 251.3 168.05 251.8 168.15 252.45 168.2 254.9 168.3 255.8 168.25 M243.7 165.7 Q245.3 167.8 245.8 170.45 L246.05 172.1" fill="none" stroke="#000000" stroke-linecap="round" stroke-linejoin="round" stroke-width="1.0"/>
    <path d="M233.85 149.25 Q232.8 144.9 230.15 144.95 226.8 144.7 225.3 148.1 L224.5 150.7 229.3 151.75 M255.8 172.9 L256.05 172.9 Q258.6 172.65 260.35 171.4 L260.5 167.0 Q259.7 166.2 258.05 165.7 255.95 160.1 252.1 154.7 L233.85 149.25 M253.9 173.0 L254.9 172.95 255.8 172.9" fill="none" stroke="#000000" stroke-linecap="round" stroke-linejoin="round" stroke-width="2.0"/>
    <path d="M246.05 172.1 L248.8 172.6 251.3 172.9 251.8 172.9 252.7 172.95 253.9 173.0" fill="none" stroke="#000000" stroke-linecap="round" stroke-linejoin="round" stroke-width="2.0"/>
  </g>
  <defs>
    <radialGradient cx="0" cy="0" gradientTransform="matrix(0.0296, 0.0, 0.0, 0.0296, 239.25, 166.6)" gradientUnits="userSpaceOnUse" id="gradient0" r="819.2" spreadMethod="pad">
      <stop offset="0.0" stop-color="#000000" stop-opacity="0.0"/>
      <stop offset="1.0" stop-color="#000000" stop-opacity="0.2509804"/>
    </radialGradient>
    <radialGradient cx="0" cy="0" gradientTransform="matrix(0.027, 0.0, 0.0, 0.027, 242.1, 161.9)" gradientUnits="userSpaceOnUse" id="gradient1" r="819.2" spreadMethod="pad">
      <stop offset="0.0" stop-color="#000000" stop-opacity="0.0"/>
      <stop offset="1.0" stop-color="#000000" stop-opacity="0.2509804"/>
    </radialGradient>
  </defs>
</svg>
