<?xml version="1.0" encoding="UTF-8" standalone="no"?>
<svg xmlns:xlink="http://www.w3.org/1999/xlink" height="97.95px" width="250.4px" xmlns="http://www.w3.org/2000/svg">
  <g transform="matrix(1.0, 0.0, 0.0, 1.0, -146.3, -262.55)">
    <path d="M160.4 273.65 L159.2 276.95 Q155.1 275.15 153.75 276.15 146.45 272.6 147.4 269.0 L147.4 268.9 155.35 271.8 153.75 276.15 155.35 271.8 160.4 273.65 M161.65 274.1 L162.8 270.9 Q170.65 273.85 175.1 274.65 L173.65 278.5 175.1 279.05 173.7 282.9 173.6 283.15 Q172.65 283.45 172.15 282.65 L172.25 282.45 173.65 278.5 161.65 274.1 M176.5 275.2 L178.25 275.85 176.85 279.7 175.1 279.05 176.5 275.2 M179.65 276.4 Q185.45 279.8 194.3 282.35 L193.1 285.65 178.3 280.2 179.65 276.4 M201.15 292.0 Q198.55 294.95 197.5 298.65 194.75 308.8 204.15 314.85 199.25 318.25 194.15 315.3 194.85 313.1 194.1 310.0 192.55 303.6 194.45 297.3 195.6 293.3 195.75 290.25 L192.95 289.25 192.9 289.45 Q192.25 289.5 191.85 289.05 L191.9 288.85 193.1 285.65 194.15 286.0 195.5 286.5 Q195.85 288.15 195.75 290.25 195.85 288.15 195.5 286.5 L203.8 289.5 Q202.3 290.65 201.15 292.0 M192.95 289.25 L194.15 286.0 192.95 289.25 M197.55 314.4 L204.15 314.85 197.55 314.4 Q196.35 315.25 194.15 315.3 196.35 315.25 197.55 314.4 194.2 307.45 195.1 301.4 196.3 293.5 203.8 289.5 196.3 293.5 195.1 301.4 194.2 307.45 197.55 314.4" fill="#000000" fill-opacity="0.2509804" fill-rule="evenodd" stroke="none"/>
    <path d="M160.45 277.4 L161.65 274.1 173.65 278.5 172.25 282.45 Q168.35 280.15 160.45 277.4 M191.9 288.85 Q183.5 285.15 176.9 284.05 L176.8 284.3 Q175.85 284.6 175.35 283.8 L175.45 283.55 173.7 282.9 175.1 279.05 176.85 279.7 175.45 283.55 176.85 279.7 178.3 280.2 193.1 285.65 191.9 288.85 M176.9 284.05 L178.3 280.2 176.9 284.05" fill="#000000" fill-opacity="0.5019608" fill-rule="evenodd" stroke="none"/>
    <path d="M225.4 291.75 L227.45 290.95 Q257.5 306.05 308.8 322.0 377.25 340.95 395.7 359.35 369.75 361.6 305.15 332.1 255.6 311.35 222.85 303.6 L221.8 301.7 Q228.15 298.85 240.0 302.7 228.45 298.0 225.4 291.75 M395.7 359.35 L240.0 302.7 395.7 359.35" fill="url(#gradient0)" fill-rule="evenodd" stroke="none"/>
    <path d="M162.8 270.9 L162.9 270.7 Q162.4 269.95 161.65 270.2 L161.55 270.45 Q157.3 269.2 156.9 267.55 149.05 265.6 147.4 268.9 L147.4 269.0 Q146.45 272.6 153.75 276.15 155.1 275.15 159.2 276.95 L159.1 277.2 Q159.55 277.85 160.35 277.65 L160.45 277.4 161.65 274.1 162.8 270.9 M175.1 274.65 L175.15 274.45 Q176.05 274.15 176.55 274.95 L176.5 275.2 178.25 275.85 178.35 275.6 Q179.25 275.3 179.75 276.1 L179.65 276.4 Q185.45 279.8 194.3 282.35 L194.35 282.15 Q194.95 282.1 195.4 282.55 L195.35 282.75 198.15 283.75 Q200.0 281.3 201.65 277.55 204.25 271.45 209.5 267.55 212.1 265.65 213.0 263.55 218.8 264.55 220.35 270.35 209.3 268.9 204.85 278.45 203.25 281.95 203.35 285.85 205.65 285.7 208.8 284.5 216.65 294.45 225.4 291.75 L227.45 290.95 Q257.5 306.05 308.8 322.0 377.25 340.95 395.7 359.35 369.75 361.6 305.15 332.1 255.6 311.35 222.85 303.6 L221.8 301.7 Q216.8 294.0 204.4 296.55 202.8 293.6 201.15 292.0 198.55 294.95 197.5 298.65 194.75 308.8 204.15 314.85 199.25 318.25 194.15 315.3 194.85 313.1 194.1 310.0 192.55 303.6 194.45 297.3 195.6 293.3 195.75 290.25 L192.95 289.25 192.9 289.45 Q192.25 289.5 191.85 289.05 L191.9 288.85 Q183.5 285.15 176.9 284.05 L176.8 284.3 Q175.85 284.6 175.35 283.8 L175.45 283.55 173.7 282.9 173.6 283.15" fill="none" stroke="#000000" stroke-linecap="round" stroke-linejoin="round" stroke-width="2.0"/>
    <path d="M161.55 270.45 L160.4 273.65 159.2 276.95 M195.5 286.5 Q195.85 288.15 195.75 290.25 M198.15 283.75 L195.5 286.5 M203.35 285.85 Q203.4 287.65 203.8 289.5 202.3 290.65 201.15 292.0" fill="none" stroke="#000000" stroke-linecap="round" stroke-linejoin="round" stroke-width="1.0"/>
    <path d="M155.35 271.8 L156.9 267.55 M153.75 276.15 L155.35 271.8 M175.1 279.05 L173.7 282.9 M175.45 283.55 L176.85 279.7 178.25 275.85 M173.65 278.5 L172.25 282.45 M176.5 275.2 L175.1 279.05 M173.65 278.5 L175.1 274.65 M179.65 276.4 L178.3 280.2 176.9 284.05 M193.1 285.65 L194.3 282.35 M194.15 286.0 L192.95 289.25 M193.1 285.65 L191.9 288.85 M195.5 286.5 L203.8 289.5 Q200.6 281.6 204.75 274.8 208.0 269.55 215.0 266.4 214.65 265.0 213.0 263.55 M194.15 286.0 L195.35 282.75 M215.0 266.4 Q218.15 267.75 220.35 270.35 M194.15 315.3 Q196.35 315.25 197.55 314.4 194.2 307.45 195.1 301.4 196.3 293.5 203.8 289.5 M204.15 314.85 L197.55 314.4" fill="none" stroke="#000000" stroke-linecap="round" stroke-linejoin="round" stroke-width="0.5"/>
    <path d="M240.0 302.7 Q228.15 298.85 221.8 301.7 M225.4 291.75 Q228.45 298.0 240.0 302.7 L395.7 359.35" fill="none" stroke="#000000" stroke-linecap="round" stroke-linejoin="round" stroke-opacity="0.2509804" stroke-width="0.5"/>
    <path d="M175.1 274.65 Q170.65 273.85 162.8 270.9 M160.45 277.4 Q168.35 280.15 172.25 282.45 L172.15 282.65 Q172.65 283.45 173.6 283.15" fill="none" stroke="#000000" stroke-linecap="round" stroke-linejoin="round" stroke-width="2.0"/>
  </g>
  <defs>
    <linearGradient gradientTransform="matrix(-0.0021, 0.0058, -0.103, -0.0375, 309.8, 328.45)" gradientUnits="userSpaceOnUse" id="gradient0" spreadMethod="pad" x1="-819.2" x2="819.2">
      <stop offset="0.0" stop-color="#000000" stop-opacity="0.0"/>
      <stop offset="1.0" stop-color="#000000" stop-opacity="0.2509804"/>
    </linearGradient>
  </defs>
</svg>
