<?xml version="1.0" encoding="UTF-8" standalone="no"?>
<svg xmlns:xlink="http://www.w3.org/1999/xlink" height="550.0px" width="800.0px" xmlns="http://www.w3.org/2000/svg">
  <g transform="matrix(1.0, 0.0, 0.0, 1.0, 0.0, 50.0)">
    <path d="M166.4 161.0 Q164.25 185.0 168.3 209.75 163.15 216.45 161.55 225.1 166.15 248.0 175.45 270.1 173.85 278.75 172.95 286.05 L180.65 291.15 182.8 287.25 183.0 286.8 183.2 286.45 184.5 284.25 185.9 282.1 186.15 281.7 186.45 281.3 Q189.7 276.45 192.5 273.15 L182.5 267.35 Q179.9 245.6 181.3 224.15 180.7 219.4 177.25 214.65 181.85 199.0 185.05 183.4 L166.4 161.0 M240.35 278.5 L240.4 278.55 240.4 278.35 240.35 278.5 M800.0 -50.0 L800.0 500.0 0.0 500.0 0.0 -50.0 800.0 -50.0" fill="#000000" fill-rule="evenodd" stroke="none"/>
  </g>
</svg>
