<?xml version="1.0" encoding="UTF-8" standalone="no"?>
<svg xmlns:xlink="http://www.w3.org/1999/xlink" height="109.3px" width="285.75px" xmlns="http://www.w3.org/2000/svg">
  <g transform="matrix(1.0, 0.0, 0.0, 1.0, 1.75, -212.3)">
    <path d="M3.4 212.3 L7.25 213.7 6.15 215.5 5.3 217.6 5.25 217.6 Q4.35 220.1 4.25 221.9 L0.4 220.5 Q0.05 218.05 -1.75 215.05 L-1.7 215.05 Q0.0 214.45 1.3 213.75 L3.4 212.3 M23.2 224.15 L23.25 224.15 25.45 220.35 174.65 274.6 173.3 283.45 22.45 228.55 23.2 224.15 M193.2 281.35 L231.65 295.35 Q230.95 296.2 230.4 297.15 L229.4 299.15 229.4 299.2 229.35 299.2 Q228.7 301.45 228.65 303.6 L192.75 290.5 Q192.7 288.85 192.8 287.15 L193.2 281.35 M278.15 321.6 L267.5 317.7 Q267.0 315.7 267.7 313.15 L267.7 313.1 Q268.2 312.0 268.85 311.2 269.55 310.15 270.45 309.5 L278.65 312.5 284.0 319.05 278.15 321.6" fill="#000000" fill-rule="evenodd" stroke="none"/>
  </g>
</svg>
