<?xml version="1.0" encoding="UTF-8" standalone="no"?>
<svg xmlns:xlink="http://www.w3.org/1999/xlink" height="129.3px" width="284.45px" xmlns="http://www.w3.org/2000/svg">
  <g transform="matrix(1.0, 0.0, 0.0, 1.0, -47.45, -199.15)">
    <path d="M324.5 303.75 L323.75 304.5 323.1 305.15 Q306.0 322.7 283.8 326.8 L280.85 327.4 277.7 327.75 274.8 327.9 274.75 328.35 271.5 327.95 271.2 328.35 268.15 328.0 267.7 328.45 265.1 327.7 264.8 328.25 262.65 327.55 262.2 328.0 258.95 327.2 258.35 327.85 255.9 326.85 255.2 327.3 252.2 326.15 Q251.9 326.25 251.65 326.4 L249.5 325.4 248.65 325.9 244.75 324.3 244.4 324.5 241.9 323.35 241.6 323.5 238.75 322.35 238.25 322.55 Q237.05 322.05 236.45 321.05 223.6 315.55 213.45 306.45 L208.7 306.65 Q207.85 304.35 208.2 302.0 L208.25 301.7 207.75 301.65 206.35 301.65 201.6 301.55 201.9 297.3 199.95 298.5 199.0 295.65 197.4 295.1 193.0 291.45 192.7 291.25 Q192.7 288.35 192.85 285.5 L193.0 282.8 195.55 284.55 196.6 285.3 197.75 286.15 198.7 286.9 Q202.1 289.55 205.4 292.75 L206.05 293.0 205.65 294.1 210.5 295.95 209.8 299.0 216.75 301.95 Q224.85 309.75 235.85 314.4 L238.4 314.5 238.75 314.95 Q240.15 315.1 241.8 316.1 L242.1 316.55 Q242.9 316.35 244.9 317.25 L245.15 317.75 Q246.6 317.95 247.75 318.7 L247.95 319.0 Q248.75 318.85 250.65 319.65 L250.9 320.05 Q252.3 319.9 254.1 320.55 L254.2 320.65 257.05 321.35 257.25 321.65 Q258.85 321.75 260.65 322.55 L263.25 322.8 265.9 322.85 266.15 323.15 268.75 323.2 268.95 323.45 271.05 323.3 274.0 323.4 277.75 323.2 281.05 322.75 Q302.5 319.55 321.15 301.55 L321.8 300.95 322.05 300.7 323.1 299.8 Q323.95 299.15 324.6 298.8 324.85 298.6 325.1 298.55 332.0 296.3 331.9 308.15 328.35 301.75 325.8 302.75 L325.0 303.25 324.5 303.75 M101.9 265.75 L102.35 265.65 Q104.3 266.25 104.85 266.9 L105.2 266.8 Q106.5 266.95 107.8 267.7 L108.25 267.55 Q110.35 268.1 110.9 268.8 L111.4 268.65 Q113.3 268.95 114.5 269.75 L115.05 269.6 Q116.65 270.1 117.05 271.15 128.45 274.65 139.65 273.9 L146.9 276.05 148.3 273.35 153.25 275.0 153.65 273.9 154.25 274.15 Q158.85 273.8 163.2 274.0 L164.4 274.0 165.8 274.1 167.15 274.2 169.3 274.4 168.45 281.45 168.05 281.4 166.95 281.25 165.7 281.15 164.65 281.1 Q161.8 280.95 158.95 281.1 L157.35 280.5 154.8 282.05 154.05 279.9 154.0 279.9 151.5 283.3 Q149.75 282.25 147.8 280.4 L146.65 279.35 146.35 279.15 146.25 279.35 Q144.95 281.4 142.85 282.65 141.1 281.5 139.35 279.5 125.65 279.9 112.3 275.85 111.2 276.2 110.0 275.85 L109.7 275.45 106.8 274.45 106.65 274.15 104.05 273.4 103.85 273.0 99.85 271.7 99.5 270.8 97.2 270.2 97.0 269.65 93.95 268.6 93.7 267.8 91.15 267.0 91.15 266.15 88.1 264.65 88.05 264.0 85.95 263.2 86.1 262.55 83.6 261.4 83.55 260.8 81.0 259.1 81.05 258.6 78.25 256.85 78.55 256.45 76.45 254.45 74.25 252.15 72.4 249.85 Q57.95 232.4 56.1 207.95 L56.1 207.45 56.0 206.05 55.95 205.3 55.65 204.4 Q54.3 201.95 47.45 204.6 54.95 195.45 58.85 201.6 L59.1 202.15 59.55 203.9 59.8 205.25 59.85 205.6 59.95 206.5 Q62.65 232.25 77.05 248.45 L79.3 250.95 82.0 253.55 84.35 255.35 Q85.65 256.1 85.9 256.8 L86.15 256.75 Q88.25 257.8 88.25 258.4 L88.6 258.3 Q90.05 259.15 90.65 259.95 92.2 260.65 92.8 261.45 94.65 262.0 96.0 262.95 L96.35 262.85 98.95 264.15 99.1 264.15 Q100.9 264.75 101.9 265.75" fill="#000000" fill-rule="evenodd" stroke="none"/>
  </g>
</svg>
