<?xml version="1.0" encoding="UTF-8" standalone="no"?>
<svg xmlns:xlink="http://www.w3.org/1999/xlink" height="16.75px" width="15.85px" xmlns="http://www.w3.org/2000/svg">
  <g transform="matrix(1.0, 0.0, 0.0, 1.0, -193.0, -277.95)">
    <path d="M202.05 280.85 Q199.8 280.15 197.7 281.3 195.65 282.4 194.95 284.7 194.3 286.95 195.4 289.05 196.55 291.1 198.85 291.8 201.1 292.45 203.2 291.35 205.25 290.2 205.95 287.95 206.6 285.65 205.45 283.6 204.35 281.5 202.05 280.85 M198.3 278.25 Q200.5 277.6 202.85 278.3 205.5 279.1 207.1 281.25 L207.8 282.35 208.35 283.55 Q209.25 286.0 208.45 288.7 207.65 291.35 205.55 292.95 L204.45 293.65 203.2 294.2 Q200.75 295.1 198.1 294.3 195.4 293.5 193.8 291.4 L193.15 290.3 193.0 290.1 Q193.0 287.45 193.15 284.85 L193.3 282.05 Q194.1 280.65 195.4 279.65 L196.45 279.0 197.3 278.6 197.7 278.4 198.3 278.25" fill="#000000" fill-rule="evenodd" stroke="none"/>
  </g>
</svg>
