<?xml version="1.0" encoding="UTF-8" standalone="no"?>
<svg xmlns:xlink="http://www.w3.org/1999/xlink" height="57.1px" width="25.0px" xmlns="http://www.w3.org/2000/svg">
  <g transform="matrix(1.0, 0.0, 0.0, 1.0, -175.15, -278.15)">
    <path d="M180.2 296.4 Q180.9 301.8 181.95 307.35 L178.4 305.85 Q177.5 300.1 176.95 294.35 L180.2 296.4 M184.25 318.45 L186.15 326.25 182.35 325.4 180.4 316.95 184.25 318.45 M186.15 300.05 Q186.8 304.9 187.75 309.9 L184.65 308.55 183.2 298.2 186.15 300.05 M190.05 320.7 L191.75 327.45 188.25 326.7 188.2 326.55 186.6 319.35 190.05 320.7 M192.6 304.05 L194.1 312.6 190.4 311.0 189.05 301.85 192.6 304.05 M196.35 323.15 L197.7 328.75 194.4 328.05 194.0 327.5 192.55 321.65 196.35 323.15" fill="#ffffff" fill-opacity="0.2509804" fill-rule="evenodd" stroke="none"/>
    <path d="M179.0 284.5 L179.45 284.45 Q178.8 281.55 177.15 278.65 175.65 281.2 175.65 285.0 L176.3 284.9 176.5 288.4 M179.0 284.5 L179.5 290.4 M184.65 285.15 L185.1 285.1 Q184.45 282.2 182.8 279.3 181.3 281.85 181.35 285.6 L181.95 285.55 182.55 292.4 M184.65 285.15 Q184.9 289.7 185.45 294.35 M190.45 286.1 L190.9 286.05 Q190.25 283.1 188.65 280.2 187.1 282.75 187.15 286.55 L187.75 286.5 188.35 295.1 M190.45 286.1 L191.5 296.15" fill="none" stroke="#000000" stroke-linecap="round" stroke-linejoin="round" stroke-width="1.0"/>
    <path d="M179.5 290.4 L180.2 296.4 Q180.9 301.8 181.95 307.35 182.95 312.8 184.25 318.45 L186.15 326.25 188.2 333.55 182.5 325.95 182.35 325.4 180.4 316.95 Q179.25 311.4 178.4 305.85 177.5 300.1 176.95 294.35 L176.5 288.4 M185.45 294.35 L186.15 300.05 Q186.8 304.9 187.75 309.9 188.75 315.2 190.05 320.7 L191.75 327.45 193.6 334.15 188.25 326.7 188.2 326.55 186.6 319.35 Q185.5 313.95 184.65 308.55 L183.2 298.2 182.55 292.4 M191.5 296.15 L192.6 304.05 194.1 312.6 196.35 323.15 197.7 328.75 199.15 334.25 194.4 328.05 194.0 327.5 192.55 321.65 Q191.3 316.3 190.4 311.0 L189.05 301.85 188.35 295.1" fill="none" stroke="#000000" stroke-linecap="round" stroke-linejoin="round" stroke-width="2.0"/>
    <path d="M176.3 284.9 L179.0 284.5 M181.95 285.55 L184.65 285.15 M187.75 286.5 L190.45 286.1" fill="none" stroke="#000000" stroke-linecap="round" stroke-linejoin="round" stroke-width="0.5"/>
  </g>
</svg>
