<?xml version="1.0" encoding="UTF-8" standalone="no"?>
<svg xmlns:xlink="http://www.w3.org/1999/xlink" height="41.5px" width="61.85px" xmlns="http://www.w3.org/2000/svg">
  <g transform="matrix(1.0, 0.0, 0.0, 1.0, -160.8, -269.7)">
    <path d="M169.4 272.45 L218.3 286.0 Q214.7 291.25 215.6 297.25 L193.9 291.5 191.6 290.9 171.45 285.6 165.15 283.9 Q162.4 277.1 168.45 272.2 L169.4 272.45 M169.1 276.55 L169.25 276.7 169.45 276.85 169.55 276.85 169.7 276.85 169.85 276.9 170.05 277.0 170.15 277.0 170.3 276.9 170.15 276.75 169.9 276.65 169.75 276.65 169.6 276.65 169.5 276.55 169.3 276.45 169.2 276.45 169.1 276.55 M169.55 275.5 L169.25 275.55 169.2 275.6 169.25 275.65 169.3 275.65 169.45 275.65 169.75 275.65 170.3 275.9 170.5 276.2 170.45 276.2 170.35 276.25 168.4 275.8 168.35 276.0 171.6 276.85 171.65 276.65 171.55 276.6 171.35 276.55 171.2 276.45 170.8 276.05 170.35 275.7 169.95 275.55 169.55 275.5 M179.0 284.6 L178.6 284.55 178.25 284.65 178.25 284.75 178.3 284.75 178.35 284.75 178.5 284.75 178.8 284.75 Q179.15 284.8 179.3 284.95 L179.5 285.25 179.5 285.3 179.35 285.35 177.45 284.85 177.4 285.1 180.6 285.95 180.6 285.9 180.7 285.7 180.65 285.7 180.6 285.65 180.35 285.6 180.2 285.5 179.85 285.15 179.45 284.75 179.0 284.6 M178.65 279.75 L178.85 279.7 178.9 279.65 178.75 279.5 178.55 279.35 178.4 279.4 178.3 279.5 178.45 279.6 178.65 279.75 M179.0 279.2 L178.9 279.0 178.65 278.9 178.5 278.95 178.45 279.0 178.55 279.15 178.8 279.25 178.95 279.2 179.0 279.2 M181.25 279.15 L181.2 279.35 182.45 279.65 182.8 279.75 182.9 279.65 182.9 279.6 182.8 279.1 182.7 278.8 Q182.65 278.8 182.55 278.9 L182.45 279.0 182.5 279.15 182.6 279.35 182.5 279.4 182.25 279.4 181.25 279.15 M174.5 283.7 L174.65 283.75 175.0 283.7 Q175.3 283.8 175.45 283.95 L175.7 284.3 175.55 284.3 173.6 283.85 173.55 284.1 176.7 284.9 176.85 284.85 176.95 284.8 176.85 284.7 176.75 284.7 176.55 284.6 176.4 284.55 176.0 284.1 175.6 283.8 175.15 283.6 174.75 283.55 174.45 283.65 174.4 283.7 174.45 283.7 174.5 283.7 M173.2 283.05 L173.05 283.05 172.95 283.2 173.1 283.35 173.15 283.45 172.9 283.6 171.9 283.4 171.4 283.25 170.8 283.05 170.55 282.75 170.65 282.6 170.8 282.5 170.8 282.45 170.7 282.45 170.45 282.6 170.35 282.8 Q170.3 283.0 170.55 283.2 L171.2 283.45 171.7 283.6 172.9 283.85 173.35 283.6 173.35 283.2 173.2 283.05 M172.25 282.65 L172.4 282.8 172.5 282.75 172.6 282.65 172.5 282.5 172.25 282.4 172.1 282.4 172.0 282.4 171.85 282.35 171.65 282.2 171.5 282.25 171.4 282.3 171.6 282.45 171.8 282.6 171.95 282.6 172.1 282.6 172.25 282.65 M172.4 281.9 L172.25 281.95 172.1 281.95 172.0 281.85 171.8 281.75 171.65 281.75 171.55 281.85 171.7 281.95 171.9 282.15 172.05 282.15 172.2 282.1 172.4 282.2 172.5 282.3 172.65 282.3 172.75 282.2 172.6 282.0 172.4 281.9 M175.5 277.65 L175.45 277.9 176.7 278.15 177.05 278.25 177.15 278.15 177.1 277.6 176.95 277.3 176.8 277.4 176.7 277.5 176.8 277.65 176.85 277.9 176.75 277.9 176.5 277.9 175.5 277.65 M176.55 276.65 L176.4 276.55 176.2 276.45 176.1 276.45 175.95 276.55 176.15 276.7 176.35 276.85 176.55 276.85 176.65 276.85 176.8 276.9 176.95 277.0 177.1 277.0 177.15 276.9 177.05 276.75 176.8 276.65 176.7 276.65 176.55 276.65 M172.65 277.9 L172.55 277.95 172.7 278.15 172.9 278.25 173.05 278.2 173.1 278.15 173.0 278.0 172.8 277.85 172.65 277.9 M173.1 277.5 L172.9 277.35 172.75 277.4 172.7 277.5 172.8 277.65 173.0 277.75 173.15 277.7 173.25 277.7 173.1 277.5 M173.25 276.4 L172.85 276.35 172.5 276.45 172.5 276.5 172.55 276.5 172.6 276.5 172.75 276.5 173.05 276.5 173.55 276.75 173.75 277.05 173.6 277.1 171.7 276.65 171.65 276.85 174.75 277.7 174.9 277.65 175.05 277.55 174.95 277.5 174.9 277.5 174.85 277.45 174.6 277.4 174.45 277.3 174.1 276.9 173.7 276.55 173.25 276.4 M181.9 278.2 L182.1 278.35 182.3 278.35 182.35 278.35 182.55 278.4 182.7 278.5 182.8 278.5 182.95 278.4 182.8 278.25 182.55 278.15 182.45 278.15 182.3 278.15 182.15 278.05 181.95 277.95 181.85 277.95 Q181.7 278.0 181.7 278.05 L181.9 278.2 M181.85 277.6 L182.05 277.75 182.25 277.85 182.4 277.85 182.5 277.85 182.7 277.9 182.85 278.05 182.95 278.0 183.05 277.9 182.95 277.8 182.7 277.65 182.55 277.7 182.4 277.7 182.3 277.6 182.1 277.5 181.95 277.5 181.85 277.6 M177.45 278.15 L177.4 278.35 180.5 279.2 180.65 279.15 180.8 279.1 180.7 279.0 180.65 279.0 180.6 279.0 180.35 278.9 180.2 278.8 179.85 278.4 179.45 278.1 179.0 277.9 178.6 277.85 178.3 277.9 178.25 278.0 178.3 278.0 178.35 278.0 178.5 278.05 178.85 278.0 179.3 278.25 179.5 278.55 179.5 278.6 179.4 278.6 177.45 278.15 M177.2 276.5 L177.3 276.45 177.15 276.3 176.95 276.15 Q176.85 276.1 176.8 276.2 L176.65 276.2 176.55 276.1 176.35 276.0 176.2 276.0 176.1 276.1 176.3 276.25 176.5 276.4 176.65 276.35 176.75 276.35 176.95 276.45 177.1 276.55 177.2 276.5 M195.0 289.2 L195.1 289.2 195.2 289.2 195.35 289.2 195.45 289.25 195.45 289.35 195.25 289.5 195.05 289.65 194.85 289.85 194.8 290.05 Q194.7 290.35 194.95 290.7 195.2 291.0 195.75 291.15 L196.4 291.25 196.6 291.25 196.8 291.2 197.0 291.15 196.95 291.15 196.8 291.15 196.4 291.1 196.05 291.0 195.3 290.65 Q194.95 290.4 195.05 290.05 195.1 289.7 195.5 289.55 L196.15 289.45 196.25 289.75 Q196.25 290.0 196.6 290.05 L197.3 290.3 197.4 290.05 197.4 290.3 200.5 291.1 200.65 291.1 200.75 291.0 200.65 290.9 200.6 290.9 200.4 290.8 200.2 290.7 199.85 290.3 199.4 290.0 198.95 289.85 198.6 289.8 198.25 289.85 198.25 289.9 198.25 289.95 198.3 289.95 198.5 289.95 198.8 289.95 Q199.15 290.05 199.35 290.2 L199.55 290.5 199.5 290.5 199.35 290.55 197.4 290.05 196.65 289.85 196.5 289.75 196.45 289.65 196.55 289.55 196.65 289.6 196.8 289.6 196.8 289.65 196.95 289.55 197.0 289.4 196.9 289.4 196.8 289.4 196.7 289.35 196.5 289.3 196.2 289.2 195.8 289.1 195.7 289.0 195.25 289.05 195.0 289.2 194.95 289.2 195.0 289.2 M200.25 285.0 L200.1 285.0 200.0 285.15 200.15 285.3 200.4 285.4 200.5 285.4 200.6 285.35 200.45 285.15 200.25 285.0 M185.25 287.5 L185.35 287.65 185.55 287.75 185.7 287.75 185.9 287.7 186.0 287.85 186.2 287.95 186.35 287.95 186.45 287.8 186.25 287.7 186.05 287.55 185.9 287.55 185.75 287.55 185.65 287.5 185.5 287.35 185.35 287.4 185.25 287.5 M192.0 288.4 L192.1 288.35 192.3 288.35 192.45 288.4 192.6 288.45 192.6 288.55 192.3 288.7 192.1 288.85 191.9 289.1 191.8 289.3 191.75 289.6 192.0 289.95 192.3 290.3 192.8 290.45 193.6 290.5 194.0 290.45 194.05 290.45 194.15 290.45 194.1 290.4 194.0 290.4 193.35 290.3 192.95 290.25 192.3 289.95 Q192.0 289.65 192.1 289.3 192.15 289.0 192.5 288.85 L192.95 288.7 193.35 288.7 193.7 288.75 193.9 288.8 194.0 288.85 194.15 288.75 194.2 288.6 194.15 288.6 194.1 288.55 193.85 288.55 193.65 288.55 193.4 288.5 193.1 288.35 192.75 288.15 192.4 288.15 Q192.25 288.15 192.1 288.3 L192.0 288.35 192.0 288.4 M189.8 288.05 L189.75 288.3 190.55 288.5 191.0 288.55 191.25 288.65 191.6 288.8 191.65 288.55 191.3 288.45 191.25 288.35 191.25 288.2 191.3 288.15 191.3 288.05 191.3 287.95 191.25 287.95 191.0 288.05 190.85 288.25 190.75 288.3 190.45 288.2 189.8 288.05 M188.5 287.7 L187.85 287.55 187.85 287.8 188.6 287.95 189.05 288.05 189.3 288.15 189.65 288.3 189.75 288.05 189.35 287.95 189.3 287.85 189.3 287.7 189.35 287.6 189.35 287.55 189.4 287.5 189.35 287.45 189.3 287.45 189.05 287.55 188.9 287.75 188.8 287.8 188.5 287.7 M187.45 287.45 L187.35 287.35 186.95 286.95 186.55 286.65 186.1 286.45 185.7 286.45 185.4 286.5 185.35 286.55 185.4 286.6 185.45 286.6 185.6 286.6 185.9 286.6 Q186.25 286.65 186.4 286.85 L186.6 287.1 186.6 287.15 186.5 287.2 184.55 286.7 184.5 286.9 187.75 287.75 187.8 287.55 187.8 287.5 187.7 287.5 187.45 287.45 M188.4 286.25 L188.55 286.4 188.75 286.45 188.9 286.45 189.05 286.45 189.2 286.6 189.3 286.65 189.5 286.65 189.55 286.6 189.45 286.4 Q189.3 286.25 189.2 286.25 L189.1 286.3 188.95 286.3 188.85 286.25 188.6 286.1 188.45 286.15 188.4 286.25 M188.25 286.65 L188.45 286.85 188.65 286.95 188.75 286.95 188.9 286.95 189.1 287.05 189.2 287.15 189.35 287.1 189.45 287.05 189.3 286.85 189.1 286.75 188.95 286.75 188.85 286.8 188.7 286.65 188.5 286.6 188.35 286.6 188.25 286.65 M190.4 287.1 L190.3 287.1 190.2 287.15 190.4 287.35 190.55 287.45 190.7 287.45 190.85 287.45 191.05 287.5 191.15 287.65 191.25 287.65 191.4 287.5 191.25 287.35 191.05 287.25 190.85 287.25 190.75 287.3 190.6 287.2 190.4 287.1 M191.0 286.8 L190.85 286.8 190.8 286.7 190.55 286.6 190.4 286.65 190.35 286.7 190.5 286.85 190.7 287.0 190.8 287.0 191.0 286.95 191.15 287.1 191.25 287.15 191.45 287.15 191.5 287.1 191.35 286.9 191.15 286.8 191.0 286.8 M189.55 281.75 L189.45 281.9 189.55 282.0 189.8 282.15 189.95 282.1 190.0 282.05 189.9 281.9 189.7 281.75 189.55 281.75 M189.55 282.2 L189.4 282.25 189.3 282.35 189.45 282.5 189.7 282.6 189.8 282.6 189.95 282.55 189.75 282.4 189.55 282.2 M190.35 281.1 L190.55 281.4 190.5 281.45 190.4 281.5 188.45 281.0 188.4 281.25 191.5 282.05 191.65 282.0 191.8 281.95 191.7 281.85 191.65 281.85 191.65 281.8 191.4 281.75 191.25 281.65 190.85 281.3 190.45 280.9 190.0 280.75 189.6 280.7 Q189.3 280.7 189.3 280.8 L189.3 280.9 189.35 280.9 189.55 280.9 189.8 280.9 190.35 281.1 M184.45 278.8 L184.3 278.8 184.2 278.85 184.05 278.75 183.85 278.65 183.75 278.65 183.6 278.75 183.8 278.95 184.0 279.0 184.15 279.0 184.25 279.0 184.45 279.1 184.6 279.2 184.7 279.2 184.85 279.1 184.65 278.95 184.45 278.8 M185.05 280.35 L185.05 280.1 184.75 280.05 184.65 279.9 184.65 279.8 184.75 279.7 184.75 279.6 184.75 279.55 184.7 279.5 184.65 279.5 184.4 279.6 184.3 279.85 184.15 279.85 183.9 279.8 183.2 279.6 183.15 279.85 183.95 280.05 184.4 280.1 184.65 280.25 185.05 280.35 M185.95 280.85 L185.9 280.9 186.0 281.1 186.2 281.25 186.35 281.2 186.5 281.2 186.6 281.3 186.8 281.35 186.95 281.35 187.05 281.3 186.9 281.1 186.65 281.0 186.55 281.0 186.4 281.05 186.25 280.9 186.1 280.85 185.95 280.85 M186.75 279.9 L186.35 279.85 186.0 279.95 185.95 280.0 186.0 280.05 186.1 280.05 186.2 280.05 186.55 280.05 187.05 280.25 187.25 280.55 187.2 280.6 187.1 280.65 185.15 280.15 185.1 280.4 188.35 281.25 188.4 281.0 188.3 280.95 188.1 280.9 187.95 280.8 187.6 280.45 187.2 280.05 186.75 279.9 M184.6 278.35 L184.4 278.35 184.3 278.35 184.2 278.3 184.0 278.15 183.85 278.2 183.75 278.3 183.95 278.45 184.1 278.55 184.25 278.55 184.4 278.55 184.55 278.65 184.7 278.75 184.85 278.75 184.9 278.65 184.8 278.5 184.6 278.35 M200.4 284.55 L200.2 284.55 200.15 284.65 200.25 284.8 200.45 284.95 200.6 284.9 200.7 284.85 200.6 284.7 200.4 284.55 M199.15 283.8 L199.1 284.05 202.2 284.8 202.35 284.8 202.5 284.75 202.4 284.65 202.35 284.65 202.3 284.6 202.1 284.55 201.9 284.45 201.55 284.1 201.15 283.7 200.7 283.55 200.3 283.5 200.0 283.6 200.0 283.65 200.05 283.65 200.2 283.65 200.5 283.65 201.05 283.9 201.25 284.2 201.2 284.25 201.05 284.3 199.15 283.8 M197.4 284.05 L197.3 284.1 197.2 284.15 197.35 284.3 197.55 284.45 197.7 284.45 197.8 284.35 197.65 284.15 197.4 284.05 M197.4 283.6 L197.35 283.7 197.45 283.85 197.7 283.95 197.85 283.95 197.9 283.9 197.8 283.7 197.6 283.6 197.4 283.6 M196.55 282.8 L196.7 282.8 196.85 282.8 197.0 282.9 197.0 283.0 196.75 283.1 196.5 283.25 196.3 283.5 196.2 283.75 196.15 284.0 196.4 284.4 196.75 284.75 197.2 284.9 198.05 284.95 198.45 284.9 198.5 284.9 198.55 284.85 198.5 284.85 198.4 284.8 197.8 284.75 197.4 284.65 196.75 284.35 Q196.4 284.1 196.55 283.75 196.55 283.45 196.9 283.25 L197.4 283.15 197.8 283.1 198.1 283.2 198.3 283.25 198.45 283.25 198.55 283.2 198.65 283.05 198.55 283.0 198.5 283.0 198.25 283.0 198.05 282.95 197.85 282.9 197.5 282.8 197.15 282.6 196.8 282.6 196.5 282.7 196.4 282.8 196.55 282.8 M194.2 282.5 L194.2 282.75 195.4 283.05 195.75 283.15 195.85 283.05 195.85 283.0 195.75 282.45 195.65 282.2 195.5 282.25 195.4 282.35 195.5 282.55 195.55 282.75 195.45 282.8 195.2 282.75 194.2 282.5 M193.8 282.05 L193.8 281.95 193.8 281.9 193.8 281.85 193.7 281.85 193.45 282.0 193.35 282.2 193.2 282.2 192.95 282.2 192.3 282.0 192.25 282.2 193.0 282.4 193.45 282.5 193.7 282.6 194.1 282.7 194.15 282.45 193.8 282.4 193.7 282.3 193.75 282.15 193.8 282.05 M194.8 281.35 L194.65 281.45 194.85 281.55 195.1 281.7 195.25 281.7 195.3 281.7 195.5 281.8 195.65 281.9 195.75 281.9 195.9 281.8 195.75 281.6 195.5 281.5 195.4 281.55 195.25 281.55 195.1 281.4 194.9 281.35 194.8 281.35 M192.75 281.05 L192.7 281.1 192.85 281.3 193.05 281.35 193.15 281.4 193.35 281.35 193.5 281.5 193.6 281.55 193.8 281.55 193.85 281.5 193.75 281.35 193.55 281.15 193.35 281.15 193.25 281.2 193.15 281.1 192.95 281.0 192.75 281.05 M193.6 280.7 L193.5 280.7 193.35 280.7 193.25 280.65 193.0 280.55 192.95 280.55 Q192.8 280.6 192.8 280.65 L192.95 280.8 193.15 280.9 193.3 280.9 193.45 280.9 193.6 281.0 193.75 281.1 193.9 281.1 194.0 281.0 193.85 280.85 193.6 280.7 M195.0 281.1 L195.2 281.25 195.35 281.25 195.5 281.25 195.65 281.35 195.8 281.4 195.9 281.4 196.0 281.35 195.9 281.15 195.7 281.05 195.5 281.05 195.35 281.05 195.25 280.95 195.05 280.9 194.9 280.9 194.85 280.95 195.0 281.1 M175.1 284.95 L175.15 284.9 175.05 284.75 174.85 284.6 174.65 284.65 174.6 284.75 174.7 284.85 174.95 284.95 175.1 284.95 M174.9 285.2 L174.7 285.05 174.55 285.1 174.45 285.2 174.6 285.35 174.85 285.45 175.0 285.4 175.05 285.4 174.9 285.2 M178.65 285.9 L178.8 285.9 178.9 286.0 179.1 286.05 179.25 286.05 179.3 286.0 179.15 285.8 178.95 285.7 178.8 285.75 178.65 285.75 178.5 285.6 178.35 285.55 178.25 285.55 178.15 285.6 178.25 285.8 178.45 285.95 178.65 285.9 M181.7 287.2 L181.95 287.3 182.1 287.3 182.2 287.25 182.05 287.1 181.85 286.9 181.65 286.95 181.6 287.1 181.7 287.2 M181.85 286.7 L182.1 286.85 182.25 286.8 182.3 286.75 182.2 286.6 181.95 286.45 181.8 286.5 181.7 286.6 181.85 286.7 M181.65 285.6 L181.8 285.6 182.1 285.6 182.6 285.8 182.8 286.15 182.8 286.2 182.7 286.2 180.75 285.7 180.7 285.95 183.8 286.75 183.95 286.7 184.05 286.65 184.0 286.55 183.95 286.55 183.9 286.55 183.65 286.45 183.5 286.4 183.15 286.0 182.7 285.6 182.3 285.45 181.85 285.4 181.6 285.5 181.55 285.6 181.6 285.6 181.65 285.6 M167.65 282.75 L167.6 282.75 167.45 282.8 167.6 283.0 167.8 283.15 167.95 283.1 168.1 283.1 168.2 283.2 168.4 283.25 168.55 283.25 168.65 283.2 168.45 283.05 168.25 282.9 168.1 282.95 168.0 282.95 167.8 282.8 167.65 282.75 M166.75 282.05 L166.7 282.3 169.95 283.15 170.0 282.9 169.95 282.9 169.95 282.85 169.7 282.8 169.5 282.7 169.15 282.35 168.75 281.95 168.3 281.8 167.9 281.75 167.6 281.85 167.6 281.95 167.65 281.95 167.8 281.95 168.1 281.95 Q168.45 282.0 168.65 282.2 L168.85 282.5 168.8 282.55 168.65 282.55 166.75 282.05 M198.9 291.15 L199.0 291.15 198.9 290.95 198.65 290.8 198.5 290.85 198.45 290.9 198.55 291.1 198.75 291.2 198.9 291.15 M198.8 291.65 L198.9 291.55 198.75 291.4 198.5 291.3 198.35 291.3 198.3 291.4 198.45 291.55 198.65 291.7 198.8 291.65 M202.3 291.65 L202.2 291.75 202.35 291.85 202.55 292.0 202.7 292.0 202.8 291.9 202.7 291.75 Q202.55 291.6 202.45 291.6 202.35 291.55 202.3 291.65 M202.3 292.1 L202.15 292.1 202.1 292.2 202.25 292.35 202.45 292.5 202.6 292.45 202.7 292.4 202.55 292.2 202.3 292.1 M195.8 290.4 L195.6 290.4 195.55 290.5 195.7 290.65 195.95 290.75 196.05 290.7 196.15 290.7 196.0 290.5 195.8 290.4 M195.95 289.9 L195.75 289.95 195.7 290.05 195.8 290.15 196.0 290.3 196.15 290.3 196.25 290.2 196.15 290.05 195.95 289.9 M193.35 289.9 L193.25 289.75 193.0 289.65 192.9 289.65 192.8 289.7 192.95 289.85 193.15 290.0 193.3 290.0 193.35 289.9 M192.95 289.2 L192.95 289.25 193.05 289.45 193.3 289.55 193.4 289.5 193.5 289.45 193.35 289.3 193.15 289.2 192.95 289.2 M202.35 290.8 L202.2 290.7 201.75 290.75 201.5 290.9 201.5 290.95 201.6 290.9 201.75 290.9 201.9 290.9 201.95 290.95 201.95 291.05 201.75 291.2 201.6 291.35 Q201.45 291.4 201.45 291.55 L201.3 291.75 201.45 292.4 202.3 292.85 202.95 292.95 203.2 292.95 203.35 292.9 203.5 292.85 203.45 292.85 203.4 292.85 202.95 292.8 202.6 292.7 201.8 292.4 Q201.45 292.1 201.6 291.75 201.65 291.45 202.05 291.3 L202.65 291.15 202.75 291.45 203.15 291.8 203.85 292.0 203.9 291.75 203.2 291.55 203.05 291.5 203.0 291.35 203.1 291.25 203.2 291.3 203.3 291.3 203.35 291.35 203.5 291.25 203.6 291.1 203.55 291.1 203.45 291.1 203.35 291.1 203.2 291.05 203.05 291.0 202.75 290.9 202.35 290.8 M204.65 291.35 L204.4 291.45 204.25 291.65 204.5 292.05 205.1 292.35 205.65 292.45 206.85 292.65 207.25 292.4 207.25 292.05 207.1 291.85 207.0 291.95 206.9 292.05 207.0 292.2 207.1 292.35 206.8 292.45 205.85 292.25 205.3 292.1 204.65 291.9 204.5 291.6 204.6 291.5 204.65 291.35 204.7 291.35 204.65 291.35 M206.55 291.5 L206.4 291.35 206.2 291.2 206.05 291.25 205.9 291.25 205.75 291.15 205.6 291.05 205.45 291.1 205.35 291.15 205.5 291.35 205.75 291.45 205.9 291.45 206.0 291.4 206.15 291.5 206.35 291.6 206.4 291.6 206.55 291.5 M205.75 290.6 L205.55 290.6 205.45 290.7 205.65 290.85 205.85 290.95 206.0 290.95 206.15 290.9 206.3 291.05 206.4 291.15 206.6 291.15 206.65 291.05 206.55 290.9 206.35 290.75 206.15 290.8 206.0 290.75 205.9 290.7 205.75 290.6 M209.8 294.55 L209.15 294.45 208.75 294.35 208.1 294.1 Q207.8 293.75 207.85 293.45 207.95 293.15 208.3 293.0 208.5 292.85 208.75 292.85 L209.15 292.85 209.5 292.85 209.65 292.9 209.8 293.0 209.95 292.85 210.0 292.7 209.95 292.65 209.9 292.65 209.65 292.65 209.2 292.65 208.9 292.45 208.5 292.3 208.2 292.3 207.85 292.4 207.8 292.45 207.8 292.55 207.9 292.5 208.1 292.5 208.25 292.55 208.4 292.6 208.4 292.65 208.1 292.85 207.85 293.0 207.65 293.25 207.6 293.45 207.55 293.7 207.8 294.1 208.1 294.4 208.6 294.55 209.35 294.65 209.8 294.55 209.85 294.55 209.9 294.55 209.95 294.55 209.9 294.55 209.85 294.55 209.8 294.55 M211.35 292.6 L211.15 292.45 211.05 292.5 210.9 292.6 211.1 292.75 211.3 292.85 211.45 292.85 211.55 292.85 211.75 292.95 211.9 293.05 212.0 293.05 212.15 292.95 211.95 292.8 211.75 292.65 211.6 292.65 211.5 292.65 211.35 292.6 M211.2 293.65 L210.5 293.5 210.45 293.7 211.25 293.9 211.7 293.95 211.95 294.05 212.35 294.15 212.35 293.9 212.05 293.85 211.9 293.75 211.95 293.6 212.05 293.5 212.05 293.45 212.05 293.35 212.05 293.3 211.95 293.3 211.7 293.5 211.6 293.65 211.5 293.7 211.2 293.65 M212.1 292.3 L211.9 292.2 211.7 292.2 211.6 292.2 211.5 292.1 211.3 292.0 211.15 292.0 211.05 292.1 211.25 292.25 211.4 292.4 211.55 292.4 211.7 292.4 211.85 292.45 212.0 292.55 212.15 292.55 212.2 292.45 212.1 292.3 M208.75 293.3 L208.7 293.4 208.85 293.55 209.05 293.7 209.2 293.65 209.3 293.55 209.15 293.45 208.95 293.25 208.75 293.3 M208.8 293.75 L208.7 293.75 208.6 293.85 208.7 294.0 208.95 294.1 209.1 294.1 209.15 294.05 209.05 293.9 208.8 293.75" fill="url(#gradient0)" fill-rule="evenodd" stroke="none"/>
    <path d="M177.2 276.5 L177.1 276.55 176.95 276.45 176.75 276.35 176.65 276.35 176.5 276.4 176.3 276.25 176.1 276.1 176.2 276.0 176.35 276.0 176.55 276.1 176.65 276.2 176.8 276.2 Q176.85 276.1 176.95 276.15 L177.15 276.3 177.3 276.45 177.2 276.5 M177.45 278.15 L179.4 278.6 179.5 278.6 179.5 278.55 179.3 278.25 178.85 278.0 178.5 278.05 178.35 278.0 178.3 278.0 178.25 278.0 178.3 277.9 178.6 277.85 179.0 277.9 179.45 278.1 179.85 278.4 180.2 278.8 180.35 278.9 180.6 279.0 180.65 279.0 180.7 279.0 180.8 279.1 180.65 279.15 180.5 279.2 177.4 278.35 177.45 278.15 M181.85 277.6 L181.95 277.5 182.1 277.5 182.3 277.6 182.4 277.7 182.55 277.7 182.7 277.65 182.95 277.8 183.05 277.9 182.95 278.0 182.85 278.05 182.7 277.9 182.5 277.85 182.4 277.85 182.25 277.85 182.05 277.75 181.85 277.6 M181.9 278.2 L181.7 278.05 Q181.7 278.0 181.85 277.95 L181.95 277.95 182.15 278.05 182.3 278.15 182.45 278.15 182.55 278.15 182.8 278.25 182.95 278.4 182.8 278.5 182.7 278.5 182.55 278.4 182.35 278.35 182.3 278.35 182.1 278.35 181.9 278.2 M173.25 276.4 L173.7 276.55 174.1 276.9 174.45 277.3 174.6 277.4 174.85 277.45 174.9 277.5 174.95 277.5 175.05 277.55 174.9 277.65 174.75 277.7 171.65 276.85 171.7 276.65 173.6 277.1 173.75 277.05 173.55 276.75 173.05 276.5 172.75 276.5 172.6 276.5 172.55 276.5 172.5 276.5 172.5 276.45 172.85 276.35 173.25 276.4 M173.1 277.5 L173.25 277.7 173.15 277.7 173.0 277.75 172.8 277.65 172.7 277.5 172.75 277.4 172.9 277.35 173.1 277.5 M172.65 277.9 L172.8 277.85 173.0 278.0 173.1 278.15 173.05 278.2 172.9 278.25 172.7 278.15 172.55 277.95 172.65 277.9 M176.55 276.65 L176.7 276.65 176.8 276.65 177.05 276.75 177.15 276.9 177.1 277.0 176.95 277.0 176.8 276.9 176.65 276.85 176.55 276.85 176.35 276.85 176.15 276.7 175.95 276.55 176.1 276.45 176.2 276.45 176.4 276.55 176.55 276.65 M175.5 277.65 L176.5 277.9 176.75 277.9 176.85 277.9 176.8 277.65 176.7 277.5 176.8 277.4 176.95 277.3 177.1 277.6 177.15 278.15 177.05 278.25 176.7 278.15 175.45 277.9 175.5 277.65 M172.4 281.9 L172.6 282.0 172.75 282.2 172.65 282.3 172.5 282.3 172.4 282.2 172.2 282.1 172.05 282.15 171.9 282.15 171.7 281.95 171.55 281.85 171.65 281.75 171.8 281.75 172.0 281.85 172.1 281.95 172.25 281.95 172.4 281.9 M172.25 282.65 L172.1 282.6 171.95 282.6 171.8 282.6 171.6 282.45 171.4 282.3 171.5 282.25 171.65 282.2 171.85 282.35 172.0 282.4 172.1 282.4 172.25 282.4 172.5 282.5 172.6 282.65 172.5 282.75 172.4 282.8 172.25 282.65 M173.2 283.05 L173.35 283.2 173.35 283.6 172.9 283.85 171.7 283.6 171.2 283.45 170.55 283.2 Q170.3 283.0 170.35 282.8 L170.45 282.6 170.7 282.45 170.8 282.45 170.8 282.5 170.65 282.6 170.55 282.75 170.8 283.05 171.4 283.25 171.9 283.4 172.9 283.6 173.15 283.45 173.1 283.35 172.95 283.2 173.05 283.05 173.2 283.05 M174.5 283.7 L174.45 283.7 174.4 283.7 174.45 283.65 174.75 283.55 175.15 283.6 175.6 283.8 176.0 284.1 176.4 284.55 176.55 284.6 176.75 284.7 176.85 284.7 176.95 284.8 176.85 284.85 176.7 284.9 173.55 284.1 173.6 283.85 175.55 284.3 175.7 284.3 175.45 283.95 Q175.3 283.8 175.0 283.7 L174.65 283.75 174.5 283.7 M181.25 279.15 L182.25 279.4 182.5 279.4 182.6 279.35 182.5 279.15 182.45 279.0 182.55 278.9 Q182.65 278.8 182.7 278.8 L182.8 279.1 182.9 279.6 182.9 279.65 182.8 279.75 182.45 279.65 181.2 279.35 181.25 279.15 M179.0 279.2 L178.95 279.2 178.8 279.25 178.55 279.15 178.45 279.0 178.5 278.95 178.65 278.9 178.9 279.0 179.0 279.2 M178.65 279.75 L178.45 279.6 178.3 279.5 178.4 279.4 178.55 279.35 178.75 279.5 178.9 279.65 178.85 279.7 178.65 279.75 M179.0 284.6 L179.45 284.75 179.85 285.15 180.2 285.5 180.35 285.6 180.6 285.65 180.65 285.7 180.7 285.7 180.6 285.9 180.6 285.95 177.4 285.1 177.45 284.85 179.35 285.35 179.5 285.3 179.5 285.25 179.3 284.95 Q179.15 284.8 178.8 284.75 L178.5 284.75 178.35 284.75 178.3 284.75 178.25 284.75 178.25 284.65 178.6 284.55 179.0 284.6 M169.55 275.5 L169.95 275.55 170.35 275.7 170.8 276.05 171.2 276.45 171.35 276.55 171.55 276.6 171.65 276.65 171.6 276.85 168.35 276.0 168.4 275.8 170.35 276.25 170.45 276.2 170.5 276.2 170.3 275.9 169.75 275.65 169.45 275.65 169.3 275.65 169.25 275.65 169.2 275.6 169.25 275.55 169.55 275.5 M169.1 276.55 L169.2 276.45 169.3 276.45 169.5 276.55 169.6 276.65 169.75 276.65 169.9 276.65 170.15 276.75 170.3 276.9 170.15 277.0 170.05 277.0 169.85 276.9 169.7 276.85 169.55 276.85 169.45 276.85 169.25 276.7 169.1 276.55 M166.75 282.05 L168.65 282.55 168.8 282.55 168.85 282.5 168.65 282.2 Q168.45 282.0 168.1 281.95 L167.8 281.95 167.65 281.95 167.6 281.95 167.6 281.85 167.9 281.75 168.3 281.8 168.75 281.95 169.15 282.35 169.5 282.7 169.7 282.8 169.95 282.85 169.95 282.9 170.0 282.9 169.95 283.15 166.7 282.3 166.75 282.05 M167.65 282.75 L167.8 282.8 168.0 282.95 168.1 282.95 168.25 282.9 168.45 283.05 168.65 283.2 168.55 283.25 168.4 283.25 168.2 283.2 168.1 283.1 167.95 283.1 167.8 283.15 167.6 283.0 167.45 282.8 167.6 282.75 167.65 282.75 M181.65 285.6 L181.6 285.6 181.55 285.6 181.6 285.5 181.85 285.4 182.3 285.45 182.7 285.6 183.15 286.0 183.5 286.4 183.65 286.45 183.9 286.55 183.95 286.55 184.0 286.55 184.05 286.65 183.95 286.7 183.8 286.75 180.7 285.95 180.75 285.7 182.7 286.2 182.8 286.2 182.8 286.15 182.6 285.8 182.1 285.6 181.8 285.6 181.65 285.6 M181.85 286.7 L181.7 286.6 181.8 286.5 181.95 286.45 182.2 286.6 182.3 286.75 182.25 286.8 182.1 286.85 181.85 286.7 M181.7 287.2 L181.6 287.1 181.65 286.95 181.85 286.9 182.05 287.1 182.2 287.25 182.1 287.3 181.95 287.3 181.7 287.2 M178.65 285.9 L178.45 285.95 178.25 285.8 178.15 285.6 178.25 285.55 178.35 285.55 178.5 285.6 178.65 285.75 178.8 285.75 178.95 285.7 179.15 285.8 179.3 286.0 179.25 286.05 179.1 286.05 178.9 286.0 178.8 285.9 178.65 285.9 M174.9 285.2 L175.05 285.4 175.0 285.4 174.85 285.45 174.6 285.35 174.45 285.2 174.55 285.1 174.7 285.05 174.9 285.2 M175.1 284.95 L174.95 284.95 174.7 284.85 174.6 284.75 174.65 284.65 174.85 284.6 175.05 284.75 175.15 284.9 175.1 284.95 M195.0 281.1 L194.85 280.95 194.9 280.9 195.05 280.9 195.25 280.95 195.35 281.05 195.5 281.05 195.7 281.05 195.9 281.15 196.0 281.35 195.9 281.4 195.8 281.4 195.65 281.35 195.5 281.25 195.35 281.25 195.2 281.25 195.0 281.1 M193.6 280.7 L193.85 280.85 194.0 281.0 193.9 281.1 193.75 281.1 193.6 281.0 193.45 280.9 193.3 280.9 193.15 280.9 192.95 280.8 192.8 280.65 Q192.8 280.6 192.95 280.55 L193.0 280.55 193.25 280.65 193.35 280.7 193.5 280.7 193.6 280.7 M192.75 281.05 L192.95 281.0 193.15 281.1 193.25 281.2 193.35 281.15 193.55 281.15 193.75 281.35 193.85 281.5 193.8 281.55 193.6 281.55 193.5 281.5 193.35 281.35 193.15 281.4 193.05 281.35 192.85 281.3 192.7 281.1 192.75 281.05 M194.8 281.35 L194.9 281.35 195.1 281.4 195.25 281.55 195.4 281.55 195.5 281.5 195.75 281.6 195.9 281.8 195.75 281.9 195.65 281.9 195.5 281.8 195.3 281.7 195.25 281.7 195.1 281.7 194.85 281.55 194.65 281.45 194.8 281.35 M193.8 282.05 L193.75 282.15 193.7 282.3 193.8 282.4 194.15 282.45 194.1 282.7 193.7 282.6 193.45 282.5 193.0 282.4 192.25 282.2 192.3 282.0 192.95 282.2 193.2 282.2 193.35 282.2 193.45 282.0 193.7 281.85 193.8 281.85 193.8 281.9 193.8 281.95 193.8 282.05 M194.2 282.5 L195.2 282.75 195.45 282.8 195.55 282.75 195.5 282.55 195.4 282.35 195.5 282.25 195.65 282.2 195.75 282.45 195.85 283.0 195.85 283.05 195.75 283.15 195.4 283.05 194.2 282.75 194.2 282.5 M196.55 282.8 L196.4 282.8 196.5 282.7 196.8 282.6 197.15 282.6 197.5 282.8 197.85 282.9 198.05 282.95 198.25 283.0 198.5 283.0 198.55 283.0 198.65 283.05 198.55 283.2 198.45 283.25 198.3 283.25 198.1 283.2 197.8 283.1 197.4 283.15 196.9 283.25 Q196.55 283.45 196.55 283.75 196.4 284.1 196.75 284.35 L197.4 284.65 197.8 284.75 198.4 284.8 198.5 284.85 198.55 284.85 198.5 284.9 198.45 284.9 198.05 284.95 197.2 284.9 196.75 284.75 196.4 284.4 196.15 284.0 196.2 283.75 196.3 283.5 196.5 283.25 196.75 283.1 197.0 283.0 197.0 282.9 196.85 282.8 196.7 282.8 196.55 282.8 M197.4 283.6 L197.6 283.6 197.8 283.7 197.9 283.9 197.85 283.95 197.7 283.95 197.45 283.85 197.35 283.7 197.4 283.6 M197.4 284.05 L197.65 284.15 197.8 284.35 197.7 284.45 197.55 284.45 197.35 284.3 197.2 284.15 197.3 284.1 197.4 284.05 M199.15 283.8 L201.05 284.3 201.2 284.25 201.25 284.2 201.05 283.9 200.5 283.65 200.2 283.65 200.05 283.65 200.0 283.65 200.0 283.6 200.3 283.5 200.7 283.55 201.15 283.7 201.55 284.1 201.9 284.45 202.1 284.55 202.3 284.6 202.35 284.65 202.4 284.65 202.5 284.75 202.35 284.8 202.2 284.8 199.1 284.05 199.15 283.8 M200.4 284.55 L200.6 284.7 200.7 284.85 200.6 284.9 200.45 284.95 200.25 284.8 200.15 284.65 200.2 284.55 200.4 284.55 M184.6 278.35 L184.8 278.5 184.9 278.65 184.85 278.75 184.7 278.75 184.55 278.65 184.4 278.55 184.25 278.55 184.1 278.55 183.95 278.45 183.75 278.3 183.85 278.2 184.0 278.15 184.2 278.3 184.3 278.35 184.4 278.35 184.6 278.35 M186.75 279.9 L187.2 280.05 187.6 280.45 187.95 280.8 188.1 280.9 188.3 280.95 188.4 281.0 188.35 281.25 185.1 280.4 185.15 280.15 187.1 280.65 187.2 280.6 187.25 280.55 187.05 280.25 186.55 280.05 186.2 280.05 186.1 280.05 186.0 280.05 185.95 280.0 186.0 279.95 186.35 279.85 186.75 279.9 M185.95 280.85 L186.1 280.85 186.25 280.9 186.4 281.05 186.55 281.0 186.65 281.0 186.9 281.1 187.05 281.3 186.95 281.35 186.8 281.35 186.6 281.3 186.5 281.2 186.35 281.2 186.2 281.25 186.0 281.1 185.9 280.9 185.95 280.85 M185.05 280.35 L184.65 280.25 184.4 280.1 183.95 280.05 183.15 279.85 183.2 279.6 183.9 279.8 184.15 279.85 184.3 279.85 184.4 279.6 184.65 279.5 184.7 279.5 184.75 279.55 184.75 279.6 184.75 279.7 184.65 279.8 184.65 279.9 184.75 280.05 185.05 280.1 185.05 280.35 M184.45 278.8 L184.65 278.95 184.85 279.1 184.7 279.2 184.6 279.2 184.45 279.1 184.25 279.0 184.15 279.0 184.0 279.0 183.8 278.95 183.6 278.75 183.75 278.65 183.85 278.65 184.05 278.75 184.2 278.85 184.3 278.8 184.45 278.8 M190.35 281.1 L189.8 280.9 189.55 280.9 189.35 280.9 189.3 280.9 189.3 280.8 Q189.3 280.7 189.6 280.7 L190.0 280.75 190.45 280.9 190.85 281.3 191.25 281.65 191.4 281.75 191.65 281.8 191.65 281.85 191.7 281.85 191.8 281.95 191.65 282.0 191.5 282.05 188.4 281.25 188.45 281.0 190.4 281.5 190.5 281.45 190.55 281.4 190.35 281.1 M189.55 282.2 L189.75 282.4 189.95 282.55 189.8 282.6 189.7 282.6 189.45 282.5 189.3 282.35 189.4 282.25 189.55 282.2 M189.55 281.75 L189.7 281.75 189.9 281.9 190.0 282.05 189.95 282.1 189.8 282.15 189.55 282.0 189.45 281.9 189.55 281.75 M191.0 286.8 L191.15 286.8 191.35 286.9 191.5 287.1 191.45 287.15 191.25 287.15 191.15 287.1 191.0 286.95 190.8 287.0 190.7 287.0 190.5 286.85 190.35 286.7 190.4 286.65 190.55 286.6 190.8 286.7 190.85 286.8 191.0 286.8 M190.4 287.1 L190.6 287.2 190.75 287.3 190.85 287.25 191.05 287.25 191.25 287.35 191.4 287.5 191.25 287.65 191.15 287.65 191.05 287.5 190.85 287.45 190.7 287.45 190.55 287.45 190.4 287.35 190.2 287.15 190.3 287.1 190.4 287.1 M188.25 286.65 L188.35 286.6 188.5 286.6 188.7 286.65 188.85 286.8 188.95 286.75 189.1 286.75 189.3 286.85 189.45 287.05 189.35 287.1 189.2 287.15 189.1 287.05 188.9 286.95 188.75 286.95 188.65 286.95 188.45 286.85 188.25 286.65 M188.4 286.25 L188.45 286.15 188.6 286.1 188.85 286.25 188.95 286.3 189.1 286.3 189.2 286.25 Q189.3 286.25 189.45 286.4 L189.55 286.6 189.5 286.65 189.3 286.65 189.2 286.6 189.05 286.45 188.9 286.45 188.75 286.45 188.55 286.4 188.4 286.25 M187.45 287.45 L187.7 287.5 187.8 287.5 187.8 287.55 187.75 287.75 184.5 286.9 184.55 286.7 186.5 287.2 186.6 287.15 186.6 287.1 186.4 286.85 Q186.25 286.65 185.9 286.6 L185.6 286.6 185.45 286.6 185.4 286.6 185.35 286.55 185.4 286.5 185.7 286.45 186.1 286.45 186.55 286.65 186.95 286.95 187.35 287.35 187.45 287.45 M188.5 287.7 L188.8 287.8 188.9 287.75 189.05 287.55 189.3 287.45 189.35 287.45 189.4 287.5 189.35 287.55 189.35 287.6 189.3 287.7 189.3 287.85 189.35 287.95 189.75 288.05 189.65 288.3 189.3 288.15 189.05 288.05 188.6 287.95 187.85 287.8 187.85 287.55 188.5 287.7 M189.8 288.05 L190.45 288.2 190.75 288.3 190.85 288.25 191.0 288.05 191.25 287.95 191.3 287.95 191.3 288.05 191.3 288.15 191.25 288.2 191.25 288.35 191.3 288.45 191.65 288.55 191.6 288.8 191.25 288.65 191.0 288.55 190.55 288.5 189.75 288.3 189.8 288.05 M192.0 288.4 L192.0 288.35 192.1 288.3 Q192.25 288.15 192.4 288.15 L192.75 288.15 193.1 288.35 193.4 288.5 193.65 288.55 193.85 288.55 194.1 288.55 194.15 288.6 194.2 288.6 194.15 288.75 194.0 288.85 193.9 288.8 193.7 288.75 193.35 288.7 192.95 288.7 192.5 288.85 Q192.15 289.0 192.1 289.3 192.0 289.65 192.3 289.95 L192.95 290.25 193.35 290.3 194.0 290.4 194.1 290.4 194.15 290.45 194.05 290.45 194.0 290.45 193.6 290.5 192.8 290.45 192.3 290.3 192.0 289.95 191.75 289.6 191.8 289.3 191.9 289.1 192.1 288.85 192.3 288.7 192.6 288.55 192.6 288.45 192.45 288.4 192.3 288.35 192.1 288.35 192.0 288.4 M185.25 287.5 L185.35 287.4 185.5 287.35 185.65 287.5 185.75 287.55 185.9 287.55 186.05 287.55 186.25 287.7 186.45 287.8 186.35 287.95 186.2 287.95 186.0 287.85 185.9 287.7 185.7 287.75 185.55 287.75 185.35 287.65 185.25 287.5 M200.25 285.0 L200.45 285.15 200.6 285.35 200.5 285.4 200.4 285.4 200.15 285.3 200.0 285.15 200.1 285.0 200.25 285.0 M195.0 289.2 L195.25 289.05 195.7 289.0 195.8 289.1 196.2 289.2 196.5 289.3 196.7 289.35 196.8 289.4 196.9 289.4 197.0 289.4 196.95 289.55 196.8 289.65 196.8 289.6 196.65 289.6 196.55 289.55 196.45 289.65 196.5 289.75 196.65 289.85 197.4 290.05 199.35 290.55 199.5 290.5 199.55 290.5 199.35 290.2 Q199.15 290.05 198.8 289.95 L198.5 289.95 198.3 289.95 198.25 289.95 198.25 289.9 198.25 289.85 198.6 289.8 198.95 289.85 199.4 290.0 199.85 290.3 200.2 290.7 200.4 290.8 200.6 290.9 200.65 290.9 200.75 291.0 200.65 291.1 200.5 291.1 197.4 290.3 197.4 290.05 197.3 290.3 196.6 290.05 Q196.25 290.0 196.25 289.75 L196.15 289.45 195.5 289.55 Q195.1 289.7 195.05 290.05 194.95 290.4 195.3 290.65 L196.05 291.0 196.4 291.1 196.8 291.15 196.95 291.15 197.0 291.15 196.8 291.2 196.6 291.25 196.4 291.25 195.75 291.15 Q195.2 291.0 194.95 290.7 194.7 290.35 194.8 290.05 L194.85 289.85 195.05 289.65 195.25 289.5 195.45 289.35 195.45 289.25 195.35 289.2 195.2 289.2 195.1 289.2 195.0 289.2 M202.35 290.8 L202.75 290.9 203.05 291.0 203.2 291.05 203.35 291.1 203.45 291.1 203.55 291.1 203.6 291.1 203.5 291.25 203.35 291.35 203.3 291.3 203.2 291.3 203.1 291.25 203.0 291.35 203.05 291.5 203.2 291.55 203.9 291.75 203.85 292.0 203.15 291.8 202.75 291.45 202.65 291.15 202.05 291.3 Q201.65 291.45 201.6 291.75 201.45 292.1 201.8 292.4 L202.6 292.7 202.95 292.8 203.4 292.85 203.45 292.85 203.5 292.85 203.35 292.9 203.2 292.95 202.95 292.95 202.3 292.85 201.45 292.4 201.3 291.75 201.45 291.55 Q201.45 291.4 201.6 291.35 L201.75 291.2 201.95 291.05 201.95 290.95 201.9 290.9 201.75 290.9 201.6 290.9 201.5 290.95 201.5 290.9 201.75 290.75 202.2 290.7 202.35 290.8 M192.95 289.2 L193.15 289.2 193.35 289.3 193.5 289.45 193.4 289.5 193.3 289.55 193.05 289.45 192.95 289.25 192.95 289.2 M193.35 289.9 L193.3 290.0 193.15 290.0 192.95 289.85 192.8 289.7 192.9 289.65 193.0 289.65 193.25 289.75 193.35 289.9 M195.95 289.9 L196.15 290.05 196.25 290.2 196.15 290.3 196.0 290.3 195.8 290.15 195.7 290.05 195.75 289.95 195.95 289.9 M195.8 290.4 L196.0 290.5 196.15 290.7 196.05 290.7 195.95 290.75 195.7 290.65 195.55 290.5 195.6 290.4 195.8 290.4 M202.3 292.1 L202.55 292.2 202.7 292.4 202.6 292.45 202.45 292.5 202.25 292.35 202.1 292.2 202.15 292.1 202.3 292.1 M202.3 291.65 Q202.35 291.55 202.45 291.6 202.55 291.6 202.7 291.75 L202.8 291.9 202.7 292.0 202.55 292.0 202.35 291.85 202.2 291.75 202.3 291.65 M198.8 291.65 L198.65 291.7 198.45 291.55 198.3 291.4 198.35 291.3 198.5 291.3 198.75 291.4 198.9 291.55 198.8 291.65 M198.9 291.15 L198.75 291.2 198.55 291.1 198.45 290.9 198.5 290.85 198.65 290.8 198.9 290.95 199.0 291.15 198.9 291.15 M205.75 290.6 L205.9 290.7 206.0 290.75 206.15 290.8 206.35 290.75 206.55 290.9 206.65 291.05 206.6 291.15 206.4 291.15 206.3 291.05 206.15 290.9 206.0 290.95 205.85 290.95 205.65 290.85 205.45 290.7 205.55 290.6 205.75 290.6 M206.55 291.5 L206.4 291.6 206.35 291.6 206.15 291.5 206.0 291.4 205.9 291.45 205.75 291.45 205.5 291.35 205.35 291.15 205.45 291.1 205.6 291.05 205.75 291.15 205.9 291.25 206.05 291.25 206.2 291.2 206.4 291.35 206.55 291.5 M204.65 291.35 L204.6 291.5 204.5 291.6 204.65 291.9 205.3 292.1 205.85 292.25 206.8 292.45 207.1 292.35 207.0 292.2 206.9 292.05 207.0 291.95 207.1 291.85 207.25 292.05 207.25 292.4 206.85 292.65 205.65 292.45 205.1 292.35 204.5 292.05 204.25 291.65 204.4 291.45 204.65 291.35 M212.1 292.3 L212.2 292.45 212.15 292.55 212.0 292.55 211.85 292.45 211.7 292.4 211.55 292.4 211.4 292.4 211.25 292.25 211.05 292.1 211.15 292.0 211.3 292.0 211.5 292.1 211.6 292.2 211.7 292.2 211.9 292.2 212.1 292.3 M211.2 293.65 L211.5 293.7 211.6 293.65 211.7 293.5 211.95 293.3 212.05 293.3 212.05 293.35 212.05 293.45 212.05 293.5 211.95 293.6 211.9 293.75 212.05 293.85 212.35 293.9 212.35 294.15 211.95 294.05 211.7 293.95 211.25 293.9 210.45 293.7 210.5 293.5 211.2 293.65 M211.35 292.6 L211.5 292.65 211.6 292.65 211.75 292.65 211.95 292.8 212.15 292.95 212.0 293.05 211.9 293.05 211.75 292.95 211.55 292.85 211.45 292.85 211.3 292.85 211.1 292.75 210.9 292.6 211.05 292.5 211.15 292.45 211.35 292.6 M209.8 294.55 L209.35 294.65 208.6 294.55 208.1 294.4 207.8 294.1 207.55 293.7 207.6 293.45 207.65 293.25 207.85 293.0 208.1 292.85 208.4 292.65 208.4 292.6 208.25 292.55 208.1 292.5 207.9 292.5 207.8 292.55 207.8 292.45 207.85 292.4 208.2 292.3 208.5 292.3 208.9 292.45 209.2 292.65 209.65 292.65 209.9 292.65 209.95 292.65 210.0 292.7 209.95 292.85 209.8 293.0 209.65 292.9 209.5 292.85 209.15 292.85 208.75 292.85 Q208.5 292.85 208.3 293.0 207.95 293.15 207.85 293.45 207.8 293.75 208.1 294.1 L208.75 294.35 209.15 294.45 209.8 294.55 M208.8 293.75 L209.05 293.9 209.15 294.05 209.1 294.1 208.95 294.1 208.7 294.0 208.6 293.85 208.7 293.75 208.8 293.75 M208.75 293.3 L208.95 293.25 209.15 293.45 209.3 293.55 209.2 293.65 209.05 293.7 208.85 293.55 208.7 293.4 208.75 293.3" fill="#000000" fill-rule="evenodd" stroke="none"/>
    <path d="M217.9 286.65 L218.05 286.75 217.95 286.85 217.9 286.65" fill="#996600" fill-rule="evenodd" stroke="none"/>
    <path d="M206.3 305.35 L206.2 305.3 206.3 305.2 206.3 305.35" fill="#ffff99" fill-rule="evenodd" stroke="none"/>
    <path d="M171.45 285.6 L164.15 288.65 Q164.75 287.1 164.9 285.4 L164.4 285.2 Q163.7 283.9 163.3 282.6 L161.9 282.1 Q161.15 276.85 164.95 271.85 L166.15 272.15 Q167.0 271.25 168.1 270.7 170.2 270.95 169.4 272.45 L218.3 286.0 Q221.1 283.65 220.85 287.95 L221.5 288.2 Q222.15 292.65 219.6 297.05 L218.85 296.7 Q217.25 299.8 215.85 297.65 213.85 301.9 211.4 305.65 209.0 305.65 209.6 308.25 L208.15 310.2 Q201.45 299.95 191.6 290.9 L171.45 285.6" fill="none" stroke="#000000" stroke-linecap="round" stroke-linejoin="round" stroke-width="2.0"/>
    <path d="M171.45 285.6 L165.15 283.9 164.9 285.4 M166.15 272.15 Q163.75 274.5 162.9 279.25 162.8 280.95 163.3 282.6 M191.6 290.9 L193.9 291.5 215.6 297.25 Q214.7 291.25 218.3 286.0 M169.4 272.45 L168.45 272.2 Q162.4 277.1 165.15 283.9 M218.85 296.7 L218.0 296.45 Q217.65 291.65 220.25 287.7 L220.85 287.95 M215.6 297.25 L215.85 297.65 M193.9 291.5 Q201.65 295.6 207.2 300.5 M219.6 297.05 Q219.25 292.7 221.5 288.2" fill="none" stroke="#000000" stroke-linecap="round" stroke-linejoin="round" stroke-width="1.0"/>
  </g>
  <defs>
    <linearGradient gradientTransform="matrix(0.0037, -0.0142, 0.0314, 0.0083, 178.25, 279.45)" gradientUnits="userSpaceOnUse" id="gradient0" spreadMethod="pad" x1="-819.2" x2="819.2">
      <stop offset="0.0" stop-color="#000000" stop-opacity="0.0"/>
      <stop offset="1.0" stop-color="#000000" stop-opacity="0.2509804"/>
    </linearGradient>
  </defs>
</svg>
