<?xml version="1.0" encoding="UTF-8" standalone="no"?>
<svg xmlns:xlink="http://www.w3.org/1999/xlink" height="68.95px" width="43.2px" xmlns="http://www.w3.org/2000/svg">
  <g transform="matrix(1.0, 0.0, 0.0, 1.0, -168.65, -270.7)">
    <path d="M198.55 272.1 L202.65 271.7 Q203.35 271.65 204.05 272.35 L204.2 272.55 Q204.55 272.95 204.6 274.15 L204.45 275.7 204.75 278.65 204.6 278.65 Q203.6 278.7 203.0 279.45 202.35 280.2 202.45 281.25 202.55 282.2 203.3 282.85 L204.15 283.35 204.2 283.5 Q204.15 284.7 203.75 285.7 203.55 286.3 203.65 287.6 L204.15 292.25 203.95 292.25 201.95 292.45 198.6 292.75 197.35 281.15 199.1 281.0 Q199.9 280.9 200.15 280.2 200.6 277.45 203.15 276.15 204.0 275.6 203.95 274.8 L203.8 273.55 Q203.7 272.45 202.8 272.35 L202.35 272.35 199.05 272.6 Q198.6 272.65 198.55 272.1 M196.0 278.85 L197.5 275.8 197.6 275.3 197.75 274.95 197.65 273.65 Q197.6 273.25 198.1 273.25 L202.3 272.85 Q203.25 272.75 203.35 273.55 L203.45 274.55 Q203.5 275.35 202.7 275.9 200.25 277.15 199.8 279.75 199.6 280.45 198.8 280.55 L197.2 280.65 197.15 280.25 197.3 280.1 199.15 276.1 199.7 274.9 Q200.05 274.05 199.35 273.6 198.7 273.3 198.25 273.9 L197.75 274.95 198.25 273.9 Q198.7 273.3 199.35 273.6 200.05 274.05 199.7 274.9 L199.15 276.1 197.3 280.1 197.15 280.25 Q196.75 280.7 196.2 280.4 195.6 280.0 195.85 279.15 L196.0 278.85 M199.15 276.1 L198.45 275.45 Q197.95 275.2 197.6 275.3 197.95 275.2 198.45 275.45 L199.15 276.1 M204.45 275.7 L203.8 276.55 Q200.45 278.4 200.65 280.8 L201.95 292.45 200.65 280.8 Q200.45 278.4 203.8 276.55 L204.45 275.7" fill="#000000" fill-opacity="0.2509804" fill-rule="evenodd" stroke="none"/>
    <path d="M205.35 273.8 L205.15 273.75 Q204.9 273.75 204.8 273.95 L204.65 274.3 204.85 274.65 205.2 274.75 205.45 274.65 205.55 274.6 205.65 274.2 205.5 273.9 205.35 273.8 205.2 271.9 M205.55 275.75 L205.45 274.65 M204.15 292.25 L203.65 287.6 Q203.55 286.3 203.75 285.7 204.15 284.7 204.2 283.5 M204.8 291.05 Q205.0 291.05 205.2 291.2 L205.45 291.65 205.3 292.1 204.95 292.35 M205.0 293.0 Q205.8 292.85 206.0 292.25 M204.85 298.55 L205.3 302.7 Q206.35 303.6 205.6 305.05 M209.85 337.35 L209.65 334.8 M204.7 334.3 Q205.1 334.8 206.55 334.65 L208.4 334.1 M201.2 305.85 L206.25 305.4" fill="none" stroke="#000000" stroke-linecap="round" stroke-linejoin="round" stroke-width="0.5"/>
    <path d="M169.9 278.1 L170.35 278.6 Q170.95 279.1 171.75 279.05 172.55 278.95 173.1 278.35 173.6 277.7 173.55 276.9 173.45 276.1 172.85 275.6 172.2 275.05 171.45 275.15 M190.25 278.95 L193.4 278.8 196.0 278.85 M170.9 280.65 Q170.9 279.95 171.3 279.4 172.5 279.25 173.15 278.7 173.8 278.0 173.7 277.15 173.65 276.3 172.8 275.5 172.3 274.95 172.6 274.15 M205.7 280.9 L205.4 280.35 Q205.15 280.1 204.8 280.15 204.45 280.15 204.25 280.45 204.0 280.7 204.05 281.05 204.05 281.35 204.35 281.6 L204.95 281.8 205.5 281.5 205.7 280.9 M208.4 334.1 L208.7 337.6" fill="none" stroke="#000000" stroke-linecap="round" stroke-linejoin="round" stroke-width="1.0"/>
    <path d="M204.05 272.35 L204.2 272.55 Q204.55 272.95 204.6 274.15 L204.45 275.7 204.75 278.65 Q205.05 278.25 205.5 278.15 M175.25 276.4 L175.05 276.4 Q174.55 276.45 174.2 276.85 173.9 277.25 173.95 277.75 L173.95 277.85 176.35 277.25 176.0 276.7 Q175.65 276.4 175.25 276.4 173.6 274.75 174.3 273.25 177.7 272.25 183.35 275.4 M196.0 278.85 L197.5 275.8 197.6 275.3 197.75 274.95 197.65 273.65 Q197.6 273.25 198.1 273.25 L202.3 272.85 Q203.25 272.75 203.35 273.55 L203.45 274.55 Q203.5 275.35 202.7 275.9 200.25 277.15 199.8 279.75 199.6 280.45 198.8 280.55 L197.2 280.65 197.35 281.15 199.1 281.0 Q199.9 280.9 200.15 280.2 200.6 277.45 203.15 276.15 204.0 275.6 203.95 274.8 L203.8 273.55 Q203.7 272.45 202.8 272.35 L202.35 272.35 199.05 272.6 Q198.6 272.65 198.55 272.1 M173.95 277.85 L174.05 278.15 Q175.2 277.7 176.45 277.5 L176.35 277.25 M175.0 278.9 L175.3 278.9 176.15 278.45 Q176.5 278.05 176.45 277.55 L176.45 277.5 M174.05 278.15 L174.4 278.65 175.0 278.9 Q172.8 279.85 172.0 282.25 172.0 283.0 174.2 283.45 176.95 283.65 180.0 285.3 L189.4 290.4 192.25 291.95 Q192.55 291.6 193.05 291.6 193.55 291.55 194.0 291.9 194.4 292.2 194.45 292.75 L194.4 293.2 196.8 294.6 196.8 294.65 Q197.35 294.85 197.8 295.3 198.65 294.3 198.6 292.85 L198.6 292.75 197.35 281.15 M197.75 274.95 L198.25 273.9 Q198.7 273.3 199.35 273.6 200.05 274.05 199.7 274.9 L199.15 276.1 197.3 280.1 197.15 280.25 197.2 280.65 M197.6 275.3 Q197.95 275.2 198.45 275.45 L199.15 276.1 M197.15 280.25 Q196.75 280.7 196.2 280.4 195.6 280.0 195.85 279.15 L196.0 278.85 M192.25 291.95 L192.15 292.05 Q191.8 292.45 191.85 293.0 191.9 293.55 192.3 293.9 192.75 294.2 193.3 294.15 L194.15 293.7 194.4 293.2 M189.4 290.4 Q191.25 291.8 191.3 293.9 M196.8 294.6 L193.65 294.5 Q191.85 295.2 191.3 296.95 190.6 299.85 192.2 301.6 193.75 302.9 195.7 302.3 198.15 301.55 198.1 299.15 197.0 296.65 194.05 296.75 192.4 296.8 191.8 298.6 L191.65 298.85 191.5 298.6 Q191.65 296.95 192.9 296.1 194.25 295.1 196.1 295.55 197.2 295.85 197.9 296.5 L197.8 295.3 M198.6 292.75 L201.95 292.45 200.65 280.8 Q200.45 278.4 203.8 276.55 L204.45 275.7 M204.2 283.5 L204.15 283.35 203.3 282.85 Q202.55 282.2 202.45 281.25 202.35 280.2 203.0 279.45 203.6 278.7 204.6 278.65 L204.75 278.65 205.75 278.8 M204.15 283.35 L205.05 283.4 205.85 283.2 M204.2 283.5 L204.3 285.35 Q204.25 286.5 204.5 288.45 L204.8 291.05 204.95 292.35 205.0 293.0 205.25 295.25 M201.95 292.45 L203.95 292.25 204.15 292.25 204.15 292.3 204.3 292.55 204.85 298.35 204.85 298.55 Q204.8 299.1 204.25 299.15 L203.2 299.25 202.7 299.3 202.7 299.65 202.7 300.5 203.1 305.1 203.05 305.35 204.45 305.2 204.3 303.95 Q204.3 303.4 205.3 302.7 M205.6 305.05 L206.35 304.95 M203.2 299.25 L203.1 297.85 Q203.1 297.6 202.75 297.65 L200.1 297.95 Q199.05 298.05 198.95 297.25 L198.6 292.85 M203.05 305.35 L202.95 305.35 201.7 305.5 201.05 305.55 M205.6 305.05 L204.45 305.2 M197.9 296.5 L198.1 299.15 198.2 299.9 Q198.2 299.7 198.45 299.7 L201.05 299.45 202.7 299.3 M198.2 299.9 L198.2 300.05 198.45 302.5 Q198.5 303.25 198.65 303.45 L198.6 302.6 Q198.5 301.65 198.7 301.1 198.65 300.6 198.95 300.3 199.25 299.9 199.75 299.85 200.2 299.8 200.6 300.15 L201.0 300.9 200.7 301.75 200.3 302.05 Q200.2 302.2 200.25 302.5 L200.25 303.2 201.55 303.05 201.35 300.95 201.2 300.2 201.05 299.45 M198.7 301.1 Q198.7 301.55 199.1 301.9 L199.95 302.15 200.3 302.05 M198.65 303.45 L198.75 304.3 Q198.85 305.05 199.7 305.0 200.3 304.95 200.3 304.4 L200.25 303.2 M201.55 303.05 L201.7 305.5" fill="none" stroke="#000000" stroke-linecap="round" stroke-linejoin="round" stroke-opacity="0.5019608" stroke-width="0.5"/>
    <path d="M172.75 273.85 L173.4 272.6 Q177.6 271.4 182.45 274.85 L183.35 275.4 Q185.8 276.85 188.85 278.35 189.55 278.75 190.25 278.95 192.4 279.45 194.35 277.75 195.05 276.95 195.4 275.45 195.95 273.15 198.0 272.15 L202.65 271.7 Q203.35 271.65 204.05 272.35 L205.4 271.85 Q206.1 272.1 206.3 273.0 206.45 274.2 205.95 275.05 L205.55 275.75 205.35 276.75 205.5 278.15 205.8 278.1 205.85 278.85 206.4 279.2 Q207.1 279.8 207.2 280.8 207.3 281.8 206.65 282.55 L205.85 283.2 205.9 283.4 205.85 285.9 Q205.7 289.05 205.85 291.05 L206.0 292.1 206.2 292.9 205.75 294.15 Q205.25 294.8 205.25 295.25 L205.75 300.1 206.1 300.7 206.55 304.75 206.4 304.95 206.35 304.95 206.4 305.4 206.25 305.4 Q205.65 305.55 205.65 306.3 L208.0 333.5 208.3 334.05 208.4 334.1 210.65 335.45 Q210.95 335.75 210.75 336.25 L209.85 337.35 209.85 337.55 208.7 337.6 208.75 337.85 Q208.6 338.45 207.15 338.65 205.3 338.75 205.1 338.3 L204.7 334.3 Q205.0 334.15 205.0 333.6 203.3 320.65 201.85 306.55 201.75 306.0 201.2 305.85 L201.05 305.85 200.95 305.55 199.2 305.7 Q198.05 305.75 197.6 305.0 197.25 304.4 197.2 303.7 197.1 302.7 196.35 302.85 194.75 303.4 193.1 302.8 191.45 302.1 190.85 300.15 190.3 297.95 191.2 295.95 191.5 294.95 191.3 293.95 L191.3 293.9 Q190.9 292.1 188.95 291.1 L180.8 286.7 Q177.05 284.5 173.95 284.35 170.9 283.9 170.9 280.75 L170.9 280.65 170.55 280.35 Q170.05 279.25 169.9 278.1 L169.65 277.25 Q169.55 276.45 170.1 275.85 170.6 275.2 171.4 275.1 L171.45 275.15 172.6 274.15 172.75 273.85 Z" fill="none" stroke="#000000" stroke-linecap="round" stroke-linejoin="round" stroke-width="2.0"/>
  </g>
</svg>
