<?xml version="1.0" encoding="UTF-8" standalone="no"?>
<svg xmlns:xlink="http://www.w3.org/1999/xlink" height="162.9px" width="137.8px" xmlns="http://www.w3.org/2000/svg">
  <g transform="matrix(1.0, 0.0, 0.0, 1.0, -77.85, -157.15)">
    <path d="M194.6 175.35 L166.55 227.05 166.5 227.05 166.55 227.1 175.0 230.2 183.0 233.1 183.8 233.35 Q197.15 238.05 208.85 241.55 209.0 229.3 206.85 216.35 L205.85 211.15 205.65 210.25 204.3 204.2 201.75 194.95 194.6 175.35 M134.05 170.65 L128.85 176.6 Q114.65 191.9 98.4 200.35 L152.65 221.75 180.4 170.5 Q162.55 174.5 141.85 171.85 L134.05 170.65 M185.95 160.25 Q191.1 158.95 196.05 157.15 L207.55 188.7 210.9 201.05 212.25 207.15 213.35 213.25 Q216.0 228.85 215.6 243.55 L215.2 251.3 214.35 258.9 Q210.2 288.0 193.3 313.2 L188.4 320.05 180.3 317.95 Q151.15 309.5 129.25 289.85 L123.7 284.55 118.4 278.95 Q108.65 267.95 100.65 254.3 L97.6 248.85 94.7 243.3 Q91.85 237.7 89.35 231.75 L77.85 200.2 Q82.75 198.35 87.55 196.05 107.85 186.2 125.35 167.05 L130.55 161.05 138.35 162.3 Q164.05 165.75 185.95 160.25 M145.45 234.75 L145.35 234.75 90.65 213.2 97.8 232.8 101.75 241.5 104.6 247.05 105.05 247.85 107.65 252.45 Q114.3 263.8 122.3 273.1 129.0 262.85 136.25 250.65 L136.65 249.95 140.95 242.6 145.45 234.75 M147.1 261.6 L146.95 261.85 Q139.75 273.95 133.1 284.1 151.9 300.9 176.8 308.35 L184.95 310.45 189.8 303.6 Q204.05 281.9 207.65 256.95 196.05 253.45 182.75 248.8 L182.5 248.7 167.9 243.45 159.35 240.25 154.9 248.2 147.1 261.6" fill="#000000" fill-rule="evenodd" stroke="none"/>
  </g>
</svg>
