<?xml version="1.0" encoding="UTF-8" standalone="no"?>
<svg xmlns:xlink="http://www.w3.org/1999/xlink" height="16.3px" width="26.75px" xmlns="http://www.w3.org/2000/svg">
  <g transform="matrix(1.0, 0.0, 0.0, 1.0, -214.0, -163.3)">
    <path d="M232.85 163.8 L225.05 179.1 222.0 179.1 229.75 163.8 232.85 163.8 M238.15 172.4 Q239.8 173.5 240.15 175.2 240.5 176.95 239.3 178.05 238.1 179.1 235.65 179.1 L232.65 178.6 Q231.3 178.1 230.5 177.15 229.75 176.25 229.55 175.2 229.3 174.2 229.75 173.25 230.15 172.35 231.25 171.85 232.4 171.35 234.05 171.35 236.5 171.35 238.15 172.4 M225.2 167.65 Q225.55 169.4 224.35 170.5 223.15 171.55 220.65 171.55 L217.7 171.05 Q216.35 170.55 215.55 169.6 214.8 168.7 214.6 167.65 214.35 166.65 214.8 165.75 215.2 164.8 216.35 164.3 217.5 163.8 219.1 163.8 221.6 163.8 223.2 164.85 224.85 165.9 225.2 167.65 M218.8 165.8 Q218.5 166.55 218.7 167.7 218.95 168.8 219.3 169.2 L220.25 169.55 Q220.8 169.55 220.95 169.25 221.35 168.8 221.1 167.7 220.9 166.6 220.3 166.1 L219.5 165.85 218.8 165.8 M233.75 173.65 Q233.45 174.1 233.65 175.25 233.9 176.35 234.3 176.75 234.75 177.1 235.25 177.1 L235.95 177.15 Q236.3 176.35 236.05 175.25 235.85 174.15 235.2 173.6 234.95 173.35 234.5 173.35 234.0 173.35 233.75 173.65 Z" fill="none" stroke="#000000" stroke-linecap="round" stroke-linejoin="round" stroke-width="1.0"/>
  </g>
</svg>
