<?xml version="1.0" encoding="UTF-8" standalone="no"?>
<svg xmlns:xlink="http://www.w3.org/1999/xlink" height="57.5px" width="109.6px" xmlns="http://www.w3.org/2000/svg">
  <g transform="matrix(1.0, 0.0, 0.0, 1.0, -158.9, -252.0)">
    <path d="M228.95 296.6 Q227.15 295.35 225.5 293.7 L224.85 293.0 223.95 292.0 233.85 284.2 233.6 283.9 232.95 283.0 232.0 281.5 Q231.4 280.3 231.1 279.0 L218.7 281.25 Q218.15 278.7 218.15 275.9 218.15 273.45 218.55 271.2 L230.9 273.9 Q231.2 271.8 232.15 270.0 L220.9 264.25 222.85 261.15 223.6 260.2 225.5 258.1 Q227.4 256.15 229.55 254.75 L236.4 265.35 Q239.1 263.55 242.45 263.35 L243.3 263.35 245.05 263.45 246.3 263.65 246.25 265.55 255.75 274.95 Q252.9 278.6 252.0 284.35 L250.05 284.35 250.15 286.5 250.1 286.5 246.15 288.2 244.7 288.45 244.7 288.4 244.55 288.3 244.25 288.45 243.9 288.45 243.85 288.5 243.45 288.5 243.3 288.5 240.2 288.15 240.1 288.1 Q239.5 287.45 239.15 286.3 237.45 286.85 236.4 286.3 235.45 285.75 234.95 284.35 L237.9 277.9 237.4 277.25 234.5 284.3 228.95 296.6 M183.1 267.7 L193.05 273.6 192.8 269.75 193.95 270.6 202.75 259.7 204.0 260.8 204.4 261.15 205.0 261.75 Q209.9 266.6 211.85 272.75 L198.6 277.35 Q199.2 279.3 199.2 281.55 199.2 283.95 198.5 286.1 L198.45 286.3 197.45 288.45 209.1 296.25 Q207.4 298.9 205.0 301.3 L200.9 304.75 199.45 305.7 198.9 306.05 195.5 298.5 194.2 287.15 192.85 286.5 192.8 286.5 192.8 287.15 192.75 293.35 Q190.7 294.7 188.3 295.25 L188.3 295.2 187.85 293.9 Q184.75 295.2 182.8 292.55 L172.95 286.05 Q173.85 278.75 175.45 270.1 172.85 263.85 170.6 257.6 173.15 256.0 175.95 255.05 L181.75 267.95 183.1 267.7 M192.45 262.45 L192.2 254.4 195.05 255.25 192.45 262.45 M173.85 272.75 L173.8 272.7 174.15 272.95 173.85 272.75 M186.15 289.7 L186.2 289.65 186.15 289.65 186.15 289.7 M192.8 293.3 L192.8 293.35 192.75 293.35 192.8 293.3 M240.4 278.55 L240.4 278.35 240.35 278.5 240.4 278.55" fill="#000000" fill-opacity="0.2509804" fill-rule="evenodd" stroke="none"/>
    <path d="M228.95 296.6 L234.5 284.3 237.4 277.25 237.9 277.9 234.95 284.35 Q235.45 285.75 236.4 286.3 237.45 286.85 239.15 286.3 239.5 287.45 240.1 288.1 L240.0 288.1 236.2 300.1 Q232.3 299.0 228.95 296.6 M244.25 288.45 L244.55 288.3 244.7 288.4 244.6 288.4 244.25 288.45 M250.1 286.5 L250.15 286.5 250.05 284.35 252.0 284.35 Q252.9 278.6 255.75 274.95 L246.25 265.55 246.3 263.65 247.55 264.0 251.35 252.0 Q256.75 253.75 261.1 258.1 L263.5 260.85 253.6 268.65 Q255.5 271.25 255.85 274.55 L268.25 272.3 268.5 275.9 Q268.5 279.1 267.8 282.0 L255.5 279.3 254.65 281.5 265.9 287.3 Q264.1 290.75 261.1 293.7 259.15 295.65 257.0 297.1 L250.15 286.55 250.1 286.5 M183.1 267.7 L184.9 267.55 184.9 253.6 185.25 253.6 Q188.9 253.55 192.2 254.4 L192.45 262.45 190.3 268.45 Q191.6 268.95 192.8 269.75 L193.05 273.6 183.1 267.7 M173.85 272.75 L162.5 265.15 Q163.75 263.45 165.3 261.9 L165.45 261.75 Q167.85 259.3 170.6 257.6 172.85 263.85 175.45 270.1 173.85 278.75 172.95 286.05 L182.8 292.55 Q184.75 295.2 187.85 293.9 L188.3 295.2 188.3 295.25 186.8 295.45 185.25 295.55 184.9 295.55 184.9 309.5 Q180.25 309.45 176.15 308.1 L180.9 294.9 Q178.4 294.1 176.35 292.35 L167.55 303.25 165.45 301.3 Q160.9 296.75 158.9 291.2 L172.15 286.55 Q171.25 284.25 171.25 281.55 L173.15 274.45 174.15 272.95 173.8 272.7 173.85 272.75 M186.15 289.7 L186.15 289.65 186.2 289.65 186.15 289.7 M192.75 293.35 L192.8 287.15 192.8 286.5 192.85 286.5 194.2 287.15 195.5 298.5 193.1 293.15 192.8 293.3 192.75 293.35 M240.4 278.55 L240.35 278.5 240.4 278.35 240.4 278.55" fill="#010101" fill-opacity="0.0" fill-rule="evenodd" stroke="none"/>
    <path d="M261.1 258.1 L263.5 260.85 253.6 268.65 Q255.5 271.25 255.85 274.55 L268.25 272.3 268.5 275.9 Q268.5 279.1 267.8 282.0 L255.5 279.3 254.65 281.5 265.9 287.3 Q264.1 290.75 261.1 293.7 259.15 295.65 257.0 297.1 L250.1 286.5 Q247.1 288.45 243.3 288.5 L240.0 288.1 236.2 300.1 Q230.2 298.4 225.5 293.7 L223.95 292.0 233.85 284.2 Q231.8 281.85 231.1 279.0 L218.7 281.25 Q218.15 278.7 218.15 275.9 218.15 273.45 218.55 271.2 L230.9 273.9 Q231.2 271.8 232.15 270.0 L220.9 264.25 Q222.65 260.95 225.5 258.1 227.4 256.15 229.55 254.75 L236.4 265.35 Q239.4 263.3 243.3 263.35 245.55 263.3 247.55 264.0 L251.35 252.0 Q256.75 253.75 261.1 258.1" fill="url(#gradient0)" fill-rule="evenodd" stroke="none"/>
    <path d="M184.9 253.6 L185.25 253.6 Q190.5 253.55 195.05 255.25 L190.3 268.45 Q192.25 269.2 193.95 270.6 L202.75 259.7 205.0 261.75 Q209.9 266.6 211.85 272.75 L198.6 277.35 Q199.2 279.3 199.2 281.55 199.2 285.35 197.45 288.45 L209.1 296.25 Q207.4 298.9 205.0 301.3 202.15 304.15 198.9 306.05 L193.1 293.15 Q189.65 295.5 185.25 295.55 L184.9 295.55 184.9 309.5 Q180.25 309.45 176.15 308.1 L180.9 294.9 Q178.4 294.1 176.35 292.35 L167.55 303.25 165.45 301.3 Q160.9 296.75 158.9 291.2 L172.15 286.55 Q171.25 284.25 171.25 281.55 171.25 276.6 174.15 272.95 L162.5 265.15 Q163.8 263.35 165.45 261.75 170.15 257.05 175.95 255.05 L181.75 267.95 184.9 267.55 184.9 253.6" fill="url(#gradient1)" fill-rule="evenodd" stroke="none"/>
  </g>
  <defs>
    <radialGradient cx="0" cy="0" gradientTransform="matrix(0.0316, 0.0, 0.0, 0.0316, 243.75, 275.9)" gradientUnits="userSpaceOnUse" id="gradient0" r="819.2" spreadMethod="pad">
      <stop offset="0.0" stop-color="#000000" stop-opacity="0.0"/>
      <stop offset="1.0" stop-color="#000000" stop-opacity="0.2"/>
    </radialGradient>
    <radialGradient cx="0" cy="0" gradientTransform="matrix(0.0352, 0.0, 0.0, 0.0352, 185.15, 281.55)" gradientUnits="userSpaceOnUse" id="gradient1" r="819.2" spreadMethod="pad">
      <stop offset="0.0" stop-color="#000000" stop-opacity="0.0"/>
      <stop offset="1.0" stop-color="#000000" stop-opacity="0.2"/>
    </radialGradient>
  </defs>
</svg>
