<?xml version="1.0" encoding="UTF-8" standalone="no"?>
<svg xmlns:xlink="http://www.w3.org/1999/xlink" height="83.0px" width="42.2px" xmlns="http://www.w3.org/2000/svg">
  <g transform="matrix(1.0, 0.0, 0.0, 1.0, 83.7, 6.2)">
    <path d="M-76.65 -1.9 L-77.0 0.7 -78.4 -1.5 -80.95 -1.0 -79.2 -3.0 -80.5 -5.35 -78.05 -4.35 -76.25 -6.2 -76.45 -3.6 -74.1 -2.5 -76.65 -1.9" fill="url(#gradient0)" fill-rule="evenodd" stroke="none"/>
    <path d="M-74.4 11.55 L-68.7 7.65 -70.65 14.3 -65.15 18.55 -72.1 18.75 -74.4 25.3 -76.75 18.75 -83.7 18.55 -78.2 14.3 -80.15 7.65 -74.4 11.55" fill="url(#gradient1)" fill-rule="evenodd" stroke="none"/>
    <path d="M-77.85 40.3 L-80.95 38.65 -77.5 38.0 -76.9 34.6 -75.25 37.65 -71.75 37.2 -74.2 39.7 -72.65 42.9 -75.85 41.35 -78.35 43.8 -77.85 40.3" fill="url(#gradient2)" fill-rule="evenodd" stroke="none"/>
    <path d="M-52.05 32.5 L-54.4 29.9 -57.65 31.2 -55.9 28.2 -58.1 25.5 -54.7 26.15 -52.85 23.25 -52.45 26.7 -49.05 27.6 -52.25 29.0 -52.05 32.5" fill="url(#gradient3)" fill-rule="evenodd" stroke="none"/>
    <path d="M-46.85 45.4 L-41.95 43.65 -44.65 48.1 -41.5 52.25 -46.6 51.05 -49.5 55.35 -49.95 50.15 -54.95 48.65 -50.15 46.65 -50.25 41.4 -46.85 45.4" fill="url(#gradient4)" fill-rule="evenodd" stroke="none"/>
    <path d="M-52.35 65.25 L-49.9 66.25 -48.1 64.35 -48.3 67.0 -46.0 68.1 -48.55 68.7 -48.85 71.25 -50.25 69.05 -52.8 69.6 -51.1 67.6 -52.35 65.25" fill="url(#gradient5)" fill-rule="evenodd" stroke="none"/>
    <path d="M-57.4 73.0 L-60.85 73.5 -61.75 76.8 -63.2 73.7 -66.6 73.95 -64.15 71.6 -65.5 68.35 -62.4 70.05 -59.8 67.75 -60.4 71.2 -57.4 73.0" fill="url(#gradient6)" fill-rule="evenodd" stroke="none"/>
    <path d="M-62.35 51.5 L-63.1 54.0 -61.0 55.65 -63.6 55.7 -64.45 58.15 -65.3 55.7 -68.0 55.6 -65.85 54.0 -66.6 51.5 -64.45 53.0 -62.35 51.5" fill="url(#gradient7)" fill-rule="evenodd" stroke="none"/>
  </g>
  <defs>
    <linearGradient gradientTransform="matrix(0.0, 0.0042, -0.0042, 0.0, -77.5, -2.75)" gradientUnits="userSpaceOnUse" id="gradient0" spreadMethod="pad" x1="-819.2" x2="819.2">
      <stop offset="0.0" stop-color="#000000" stop-opacity="0.2"/>
      <stop offset="1.0" stop-color="#000000" stop-opacity="0.0"/>
    </linearGradient>
    <linearGradient gradientTransform="matrix(0.0, 0.0108, -0.0113, 0.0, -74.4, 16.45)" gradientUnits="userSpaceOnUse" id="gradient1" spreadMethod="pad" x1="-819.2" x2="819.2">
      <stop offset="0.0" stop-color="#000000" stop-opacity="0.2"/>
      <stop offset="1.0" stop-color="#000000" stop-opacity="0.0"/>
    </linearGradient>
    <linearGradient gradientTransform="matrix(0.0, 0.0056, -0.0056, 0.0, -76.35, 39.2)" gradientUnits="userSpaceOnUse" id="gradient2" spreadMethod="pad" x1="-819.2" x2="819.2">
      <stop offset="0.0" stop-color="#000000" stop-opacity="0.2"/>
      <stop offset="1.0" stop-color="#000000" stop-opacity="0.0"/>
    </linearGradient>
    <linearGradient gradientTransform="matrix(0.0, 0.0056, -0.0055, 0.0, -53.55, 27.85)" gradientUnits="userSpaceOnUse" id="gradient3" spreadMethod="pad" x1="-819.2" x2="819.2">
      <stop offset="0.0" stop-color="#000000" stop-opacity="0.2"/>
      <stop offset="1.0" stop-color="#000000" stop-opacity="0.0"/>
    </linearGradient>
    <linearGradient gradientTransform="matrix(0.0, 0.0085, -0.0082, 0.0, -48.2, 48.35)" gradientUnits="userSpaceOnUse" id="gradient4" spreadMethod="pad" x1="-819.2" x2="819.2">
      <stop offset="0.0" stop-color="#000000" stop-opacity="0.2"/>
      <stop offset="1.0" stop-color="#000000" stop-opacity="0.0"/>
    </linearGradient>
    <linearGradient gradientTransform="matrix(0.0, 0.0042, -0.0042, 0.0, -49.4, 67.8)" gradientUnits="userSpaceOnUse" id="gradient5" spreadMethod="pad" x1="-819.2" x2="819.2">
      <stop offset="0.0" stop-color="#000000" stop-opacity="0.2"/>
      <stop offset="1.0" stop-color="#000000" stop-opacity="0.0"/>
    </linearGradient>
    <linearGradient gradientTransform="matrix(0.0, 0.0055, -0.0056, 0.0, -62.0, 72.25)" gradientUnits="userSpaceOnUse" id="gradient6" spreadMethod="pad" x1="-819.2" x2="819.2">
      <stop offset="0.0" stop-color="#000000" stop-opacity="0.2"/>
      <stop offset="1.0" stop-color="#000000" stop-opacity="0.0"/>
    </linearGradient>
    <linearGradient gradientTransform="matrix(0.0, 0.0041, -0.0043, 0.0, -64.5, 54.8)" gradientUnits="userSpaceOnUse" id="gradient7" spreadMethod="pad" x1="-819.2" x2="819.2">
      <stop offset="0.0" stop-color="#000000" stop-opacity="0.2"/>
      <stop offset="1.0" stop-color="#000000" stop-opacity="0.0"/>
    </linearGradient>
  </defs>
</svg>
