<?xml version="1.0" encoding="UTF-8" standalone="no"?>
<svg xmlns:xlink="http://www.w3.org/1999/xlink" height="104.55px" width="66.9px" xmlns="http://www.w3.org/2000/svg">
  <g transform="matrix(1.0, 0.0, 0.0, 1.0, 33.55, 165.3)">
    <path d="M3.25 -151.8 L3.8 -150.55 Q4.35 -148.5 5.05 -146.85 L5.6 -145.65 7.45 -141.75 7.6 -141.15 7.8 -139.1 Q7.75 -137.95 8.8 -137.2 9.35 -136.8 9.95 -137.2 L11.0 -138.25 11.35 -138.9 11.85 -140.75 12.05 -141.4 12.05 -143.8 11.85 -145.4 11.7 -148.5 Q11.8 -147.45 12.3 -146.5 L12.85 -145.2 13.5 -143.55 14.65 -141.6 15.75 -140.3 19.5 -135.05 20.2 -133.75 20.6 -131.95 20.65 -131.35 20.75 -129.7 Q20.85 -128.65 20.45 -127.8 L20.2 -127.05 Q19.65 -124.8 20.7 -122.55 21.35 -121.1 22.2 -120.35 22.9 -119.65 23.8 -120.05 24.75 -120.35 25.15 -120.75 L25.65 -121.5 Q26.65 -122.65 26.9 -124.0 L27.1 -125.0 Q27.3 -126.15 27.85 -127.25 L28.4 -127.9 29.4 -129.0 29.95 -129.5 31.1 -130.7 32.35 -131.75 33.35 -132.95 Q32.4 -131.45 32.2 -129.7 L31.4 -127.6 31.1 -126.85 30.35 -125.35 29.65 -123.15 29.45 -114.8 Q29.45 -113.95 30.05 -113.5 L31.0 -111.7 31.4 -110.7 Q31.7 -109.35 32.25 -108.2 L32.25 -105.4 31.8 -104.1 31.2 -103.4 30.75 -102.5 30.4 -101.8 29.9 -100.5 28.85 -98.9 27.85 -97.05 Q26.8 -96.05 26.3 -94.95 25.7 -92.9 25.7 -91.0 26.45 -90.1 27.6 -90.35 L29.05 -91.7 29.7 -92.35 30.15 -92.9 30.6 -93.5 30.95 -94.0 31.5 -94.65 30.75 -92.1 29.25 -86.25 Q29.0 -85.35 28.25 -84.75 L27.7 -84.1 27.15 -83.75 Q26.6 -83.35 25.75 -83.4 25.0 -80.8 23.35 -79.45 22.7 -79.25 22.6 -78.95 L22.25 -78.1 22.15 -77.65 22.15 -77.6 20.5 -75.3 20.45 -75.3 Q19.3 -74.35 19.8 -73.8 L20.45 -73.35 21.95 -73.45 22.0 -73.5 21.9 -72.65 Q21.45 -71.1 20.35 -70.15 19.6 -69.25 18.7 -68.95 L17.8 -68.55 14.7 -68.05 11.75 -67.25 11.15 -67.05 Q9.95 -66.3 9.15 -65.15 L8.0 -64.1 Q7.05 -63.05 5.75 -62.35 L4.25 -62.15 3.25 -62.35 Q2.25 -63.0 2.0 -62.5 L1.5 -62.0 0.7 -61.15 -0.1 -60.75 -0.9 -61.15 -1.7 -62.0 -2.2 -62.5 Q-2.45 -63.0 -3.45 -62.35 L-4.45 -62.15 -5.95 -62.35 -8.2 -64.1 -9.35 -65.15 Q-10.15 -66.3 -11.35 -67.05 L-11.95 -67.25 -14.9 -68.05 -18.0 -68.55 -18.9 -68.95 Q-19.8 -69.25 -20.55 -70.15 -21.65 -71.1 -22.1 -72.65 L-22.2 -73.5 -22.15 -73.45 -20.65 -73.35 -20.0 -73.8 Q-19.5 -74.35 -20.65 -75.3 -21.4 -76.0 -22.35 -77.6 L-22.35 -77.65 -22.4 -78.1 -22.8 -78.95 Q-22.9 -79.25 -23.55 -79.45 -25.2 -80.8 -25.95 -83.4 -26.8 -83.35 -27.35 -83.75 L-27.9 -84.1 -28.45 -84.75 Q-29.2 -85.35 -29.45 -86.25 L-30.95 -92.1 -31.7 -94.65 -31.15 -94.0 -30.8 -93.5 -30.35 -92.9 -29.9 -92.35 -29.25 -91.7 -27.8 -90.35 Q-26.65 -90.1 -25.9 -91.0 -25.9 -92.9 -26.5 -94.95 -27.0 -96.05 -28.05 -97.05 L-29.05 -98.9 Q-29.8 -99.6 -30.1 -100.5 L-30.6 -101.8 -30.95 -102.5 -31.4 -103.4 -32.0 -104.1 -32.45 -105.4 -32.45 -108.2 Q-31.9 -109.35 -31.6 -110.7 L-31.2 -111.7 -30.25 -113.5 Q-29.65 -113.95 -29.65 -114.8 L-29.85 -123.15 -30.55 -125.35 -31.3 -126.85 -31.6 -127.6 -32.4 -129.7 Q-32.6 -131.45 -33.55 -132.95 L-32.55 -131.75 -31.3 -130.7 -30.15 -129.5 -29.6 -129.0 -28.6 -127.9 -28.05 -127.25 Q-27.5 -126.15 -27.3 -125.0 L-27.1 -124.0 Q-26.85 -122.65 -25.85 -121.5 L-25.35 -120.75 Q-24.95 -120.35 -24.0 -120.05 -23.1 -119.65 -22.4 -120.35 -21.55 -121.1 -20.9 -122.55 -19.85 -124.8 -20.4 -127.05 L-20.65 -127.8 Q-21.05 -128.65 -20.95 -129.7 L-20.85 -131.35 -20.8 -131.95 -20.4 -133.75 -19.7 -135.05 -15.95 -140.3 -14.85 -141.6 -13.7 -143.55 Q-13.25 -144.35 -13.05 -145.2 L-12.5 -146.5 Q-12.0 -147.45 -11.9 -148.5 L-12.05 -145.4 -12.25 -143.8 -12.25 -141.4 -12.05 -140.75 -11.55 -138.9 -11.2 -138.25 -10.15 -137.2 Q-9.55 -136.8 -9.0 -137.2 -7.95 -137.95 -8.0 -139.1 L-7.8 -141.15 -7.65 -141.75 -5.8 -145.65 -5.25 -146.85 Q-4.55 -148.5 -4.0 -150.55 L-3.45 -151.8 -3.15 -152.35 Q-2.2 -154.55 -1.8 -157.4 L-1.6 -158.1 -1.1 -161.75 Q-0.95 -163.5 -0.1 -165.3 0.75 -163.5 0.9 -161.75 L1.4 -158.1 1.6 -157.4 Q2.0 -154.55 2.95 -152.35 L3.25 -151.8 M5.45 -130.5 Q3.5 -132.15 2.0 -134.7 1.55 -135.7 1.25 -137.15 0.35 -139.5 -0.1 -142.5 -0.55 -139.5 -1.45 -137.15 -1.75 -135.7 -2.2 -134.7 -3.7 -132.15 -5.65 -130.5 L-6.45 -129.8 -7.4 -129.05 -8.2 -128.5 Q-8.85 -128.0 -9.75 -128.3 L-10.3 -128.45 -11.35 -128.8 -12.05 -129.0 Q-13.15 -128.45 -13.15 -126.85 L-13.15 -126.6 -13.95 -121.5 Q-15.15 -119.25 -15.3 -117.35 L-17.1 -113.7 -17.4 -113.0 -18.2 -111.35 -18.8 -110.15 -19.25 -108.85 Q-19.6 -107.5 -19.35 -106.1 L-18.85 -105.05 Q-18.65 -103.05 -20.15 -104.0 -21.4 -104.8 -21.85 -105.8 L-22.65 -107.9 Q-23.0 -109.15 -23.7 -109.9 L-24.45 -110.75 -24.7 -111.05 Q-24.3 -110.45 -24.2 -109.3 L-24.1 -104.25 Q-24.15 -102.9 -23.7 -102.1 L-22.7 -100.3 Q-21.95 -98.7 -21.55 -97.1 L-21.4 -95.95 -21.0 -89.65 -19.3 -87.3 -19.4 -86.5 -18.4 -85.65 -15.5 -81.85 -12.75 -79.15 -11.85 -78.35 -11.35 -77.85 Q-11.8 -77.25 -12.8 -77.35 L-15.5 -77.25 -16.55 -77.25 Q-15.3 -76.6 -14.5 -75.35 L-13.25 -74.0 Q-12.65 -73.4 -11.5 -73.7 L-10.3 -73.35 -9.7 -73.15 -8.8 -72.7 Q-6.9 -71.85 -5.75 -70.7 L-4.7 -70.0 -3.35 -69.15 Q-2.9 -68.8 -2.3 -68.55 L-0.9 -68.05 -0.1 -67.85 0.7 -68.05 2.1 -68.55 3.15 -69.15 4.5 -70.0 5.55 -70.7 Q6.7 -71.85 8.6 -72.7 L9.5 -73.15 10.1 -73.35 11.3 -73.7 Q12.45 -73.4 13.05 -74.0 L14.3 -75.35 Q15.1 -76.6 16.35 -77.25 L15.3 -77.25 12.6 -77.35 Q11.6 -77.25 11.15 -77.85 L11.65 -78.35 12.55 -79.15 15.3 -81.85 18.2 -85.65 19.2 -86.45 19.2 -86.5 19.1 -87.3 20.8 -89.65 21.2 -95.95 21.35 -97.1 Q21.75 -98.7 22.5 -100.3 L23.5 -102.1 Q23.95 -102.9 23.9 -104.25 L24.0 -109.3 Q24.1 -110.45 24.5 -111.05 L24.25 -110.75 23.5 -109.9 Q22.8 -109.15 22.45 -107.9 L21.65 -105.8 Q21.2 -104.8 19.95 -104.0 18.45 -103.05 18.65 -105.05 L19.15 -106.1 Q19.4 -107.5 19.05 -108.85 L18.6 -110.15 18.0 -111.35 17.2 -113.0 16.9 -113.7 15.1 -117.35 Q14.95 -119.25 13.75 -121.5 L12.95 -126.6 12.95 -126.85 Q12.95 -128.45 11.85 -129.0 L11.15 -128.8 10.15 -128.45 9.55 -128.3 Q8.65 -128.0 8.0 -128.5 L7.2 -129.05 6.3 -129.8 5.45 -130.5" fill="url(#gradient0)" fill-rule="evenodd" stroke="none"/>
    <path d="M5.45 -130.5 L6.3 -129.8 7.2 -129.05 8.0 -128.5 Q8.65 -128.0 9.55 -128.3 L10.15 -128.45 11.15 -128.8 11.85 -129.0 Q12.95 -128.45 12.95 -126.85 L12.95 -126.6 13.75 -121.5 Q14.95 -119.25 15.1 -117.35 L16.9 -113.7 17.2 -113.0 18.0 -111.35 18.6 -110.15 19.05 -108.85 Q19.4 -107.5 19.15 -106.1 L18.65 -105.05 Q18.45 -103.05 19.95 -104.0 21.2 -104.8 21.65 -105.8 L22.45 -107.9 Q22.8 -109.15 23.5 -109.9 L24.25 -110.75 24.5 -111.05 Q24.1 -110.45 24.0 -109.3 L23.9 -104.25 Q23.95 -102.9 23.5 -102.1 L22.5 -100.3 Q21.75 -98.7 21.35 -97.1 L21.2 -95.95 20.8 -89.65 19.1 -87.3 19.2 -86.5 19.2 -86.45 18.2 -85.65 15.3 -81.85 12.55 -79.15 11.65 -78.35 11.15 -77.85 Q11.6 -77.25 12.6 -77.35 L15.3 -77.25 16.35 -77.25 Q15.1 -76.6 14.3 -75.35 L13.05 -74.0 Q12.45 -73.4 11.3 -73.7 L10.1 -73.35 9.5 -73.15 8.6 -72.7 Q6.7 -71.85 5.55 -70.7 L4.5 -70.0 3.15 -69.15 2.1 -68.55 0.7 -68.05 -0.1 -67.85 -0.9 -68.05 -2.3 -68.55 Q-2.9 -68.8 -3.35 -69.15 L-4.7 -70.0 -5.75 -70.7 Q-6.9 -71.85 -8.8 -72.7 L-9.7 -73.15 -10.3 -73.35 -11.5 -73.7 Q-12.65 -73.4 -13.25 -74.0 L-14.5 -75.35 Q-15.3 -76.6 -16.55 -77.25 L-15.5 -77.25 -12.8 -77.35 Q-11.8 -77.25 -11.35 -77.85 L-11.85 -78.35 -12.75 -79.15 -15.5 -81.85 -18.4 -85.65 -19.4 -86.5 -19.3 -87.3 -21.0 -89.65 -21.4 -95.95 -21.55 -97.1 Q-21.95 -98.7 -22.7 -100.3 L-23.7 -102.1 Q-24.15 -102.9 -24.1 -104.25 L-24.2 -109.3 Q-24.3 -110.45 -24.7 -111.05 L-24.45 -110.75 -23.7 -109.9 Q-23.0 -109.15 -22.65 -107.9 L-21.85 -105.8 Q-21.4 -104.8 -20.15 -104.0 -18.65 -103.05 -18.85 -105.05 L-19.35 -106.1 Q-19.6 -107.5 -19.25 -108.85 L-18.8 -110.15 -18.2 -111.35 -17.4 -113.0 -17.1 -113.7 -15.3 -117.35 Q-15.15 -119.25 -13.95 -121.5 L-13.15 -126.6 -13.15 -126.85 Q-13.15 -128.45 -12.05 -129.0 L-11.35 -128.8 -10.3 -128.45 -9.75 -128.3 Q-8.85 -128.0 -8.2 -128.5 L-7.4 -129.05 -6.45 -129.8 -5.65 -130.5 Q-3.7 -132.15 -2.2 -134.7 -1.75 -135.7 -1.45 -137.15 -0.55 -139.5 -0.1 -142.5 0.35 -139.5 1.25 -137.15 1.55 -135.7 2.0 -134.7 3.5 -132.15 5.45 -130.5" fill="url(#gradient1)" fill-rule="evenodd" stroke="none"/>
  </g>
  <defs>
    <linearGradient gradientTransform="matrix(0.0, -0.0638, 0.0204, 0.0, -16.85, -113.0)" gradientUnits="userSpaceOnUse" id="gradient0" spreadMethod="pad" x1="-819.2" x2="819.2">
      <stop offset="0.0" stop-color="#000000" stop-opacity="0.2"/>
      <stop offset="1.0" stop-color="#000000" stop-opacity="0.0"/>
    </linearGradient>
    <linearGradient gradientTransform="matrix(0.0, 0.0456, -0.015, 0.0, -12.4, -105.2)" gradientUnits="userSpaceOnUse" id="gradient1" spreadMethod="pad" x1="-819.2" x2="819.2">
      <stop offset="0.0" stop-color="#000000" stop-opacity="0.2"/>
      <stop offset="1.0" stop-color="#000000" stop-opacity="0.0"/>
    </linearGradient>
  </defs>
</svg>
