<?xml version="1.0" encoding="UTF-8" standalone="no"?>
<svg xmlns:xlink="http://www.w3.org/1999/xlink" height="345.3px" width="167.2px" xmlns="http://www.w3.org/2000/svg">
  <g transform="matrix(1.0, 0.0, 0.0, 1.0, 0.0, 0.0)">
    <path d="M137.65 82.95 L132.55 84.15 135.7 80.0 133.0 75.5 137.9 77.3 141.3 73.3 141.2 78.5 146.0 80.55 141.0 82.05 140.55 87.25 137.65 82.95 M120.65 91.45 L118.0 91.35 120.1 89.75 119.35 87.25 121.45 88.75 123.65 87.25 122.9 89.75 125.0 91.3 122.3 91.45 121.45 93.85 120.65 91.45 M116.5 57.0 L114.2 63.55 111.9 57.0 104.95 56.8 110.45 52.6 108.5 45.9 114.2 49.85 119.95 45.9 118.0 52.6 123.5 56.8 116.5 57.0 M103.25 34.8 L102.4 32.4 99.8 32.3 101.9 30.7 101.15 28.2 103.25 29.7 105.4 28.2 104.65 30.7 106.8 32.25 104.1 32.4 103.25 34.8 M99.8 43.1 L97.1 43.2 96.2 45.65 95.4 43.2 92.75 43.15 94.85 41.55 94.1 39.0 96.2 40.5 98.4 39.0 97.65 41.55 99.8 43.1 M109.05 2.55 L111.15 4.1 108.45 4.2 107.6 6.65 106.8 4.2 104.15 4.15 106.25 2.55 105.5 0.0 107.6 1.5 109.8 0.0 109.05 2.55 M137.9 43.1 L141.3 39.1 141.2 44.35 146.0 46.35 141.0 47.85 140.55 53.05 137.65 48.75 132.55 49.95 135.7 45.8 133.0 41.35 137.9 43.1 M138.25 34.95 L135.55 35.05 134.7 37.5 133.9 35.05 131.25 35.0 133.35 33.4 132.6 30.85 134.7 32.35 136.9 30.85 136.15 33.4 138.25 34.95 M164.0 105.7 L162.7 108.05 164.45 110.05 161.9 109.55 160.5 111.75 160.15 109.15 157.6 108.55 159.95 107.45 159.75 104.85 161.55 106.7 164.0 105.7 M63.05 4.15 L60.4 4.2 59.6 6.65 58.75 4.2 56.05 4.1 58.15 2.55 57.4 0.0 59.6 1.5 61.7 0.0 60.95 2.55 63.05 4.15 M65.3 30.7 L67.4 32.3 64.8 32.4 63.95 34.8 63.1 32.4 60.4 32.25 62.55 30.7 61.8 28.2 63.95 29.7 66.05 28.2 65.3 30.7 M67.4 43.1 L69.55 41.55 68.8 39.0 71.0 40.5 73.1 39.0 72.35 41.55 74.45 43.15 71.8 43.2 71.0 45.65 70.1 43.2 67.4 43.1 M35.95 35.0 L33.3 35.05 32.5 37.5 31.65 35.05 28.95 34.95 31.05 33.4 30.3 30.85 32.5 32.35 34.6 30.85 33.85 33.4 35.95 35.0 M29.3 43.1 L34.2 41.35 31.5 45.8 34.65 49.95 29.55 48.75 26.65 53.05 26.2 47.85 21.2 46.35 26.0 44.35 25.9 39.1 29.3 43.1 M34.2 75.5 L31.5 80.0 34.65 84.15 29.55 82.95 26.65 87.25 26.2 82.05 21.2 80.55 26.0 78.5 25.9 73.3 29.3 77.3 34.2 75.5 M50.7 57.0 L43.7 56.8 49.2 52.6 47.25 45.9 53.0 49.85 58.7 45.9 56.75 52.6 62.25 56.8 55.3 57.0 53.0 63.55 50.7 57.0 M47.1 89.75 L49.2 91.35 46.55 91.45 45.75 93.85 44.9 91.45 42.2 91.3 44.3 89.75 43.55 87.25 45.75 88.75 47.85 87.25 47.1 89.75 M67.15 116.2 L69.25 117.85 66.65 117.9 65.8 120.35 64.95 117.9 62.25 117.8 64.4 116.2 63.65 113.7 65.8 115.2 67.9 113.7 67.15 116.2 M55.3 137.05 L50.35 135.55 55.15 133.55 55.0 128.35 58.45 132.3 63.3 130.55 60.6 135.0 63.75 139.15 58.65 137.95 55.75 142.3 55.3 137.05 M7.45 104.85 L7.25 107.45 9.6 108.55 7.05 109.15 6.7 111.75 5.3 109.55 2.75 110.05 4.5 108.05 3.2 105.7 5.65 106.7 7.45 104.85 M9.3 122.6 L15.0 118.7 13.05 125.35 18.55 129.6 11.6 129.8 9.3 136.35 6.95 129.8 0.0 129.6 5.5 125.35 3.55 118.7 9.3 122.6 M25.6 136.55 L29.0 137.2 30.85 134.3 31.25 137.75 34.65 138.65 31.45 140.05 31.65 143.55 29.3 140.95 26.05 142.25 27.8 139.25 25.6 136.55 M20.6 165.05 L22.7 166.7 20.1 166.75 19.25 169.2 18.4 166.75 15.7 166.65 17.85 165.05 17.1 162.55 19.25 164.05 21.35 162.55 20.6 165.05 M34.2 166.4 L33.75 161.2 28.75 159.7 33.55 157.7 33.45 152.45 36.85 156.45 41.75 154.7 39.05 159.15 42.2 163.3 37.1 162.1 34.2 166.4 M5.85 151.35 L2.75 149.7 6.2 149.05 6.8 145.65 8.45 148.7 11.95 148.25 9.5 150.75 11.05 153.95 7.85 152.4 5.35 154.85 5.85 151.35 M18.2 179.4 L21.3 181.1 23.9 178.8 23.3 182.25 26.3 184.05 22.85 184.55 21.95 187.85 20.5 184.75 17.1 185.0 19.55 182.65 18.2 179.4 M33.8 177.3 L35.6 175.4 35.4 178.05 37.7 179.15 35.15 179.75 34.85 182.3 33.45 180.1 30.9 180.65 32.6 178.65 31.35 176.3 33.8 177.3 M53.45 159.4 L52.6 157.0 49.9 156.85 52.0 155.3 51.25 152.8 53.45 154.3 55.55 152.8 54.8 155.3 56.9 156.9 54.25 157.0 53.45 159.4 M107.85 273.6 L112.75 275.35 116.15 271.35 116.05 276.6 120.85 278.6 115.85 280.1 115.4 285.3 112.5 281.0 107.4 282.2 110.55 278.05 107.85 273.6 M102.65 267.0 L102.0 263.55 104.65 265.9 107.7 264.15 106.4 267.45 108.85 269.8 105.4 269.55 103.95 272.6 103.1 269.3 99.65 268.8 102.65 267.0 M102.3 202.8 L101.85 208.05 98.95 203.7 93.85 204.9 97.0 200.75 94.3 196.3 99.2 198.05 102.6 194.1 102.5 199.3 107.3 201.3 102.3 202.8 M113.1 209.95 L112.25 206.65 108.8 206.15 111.8 204.35 111.15 200.9 113.8 203.25 116.85 201.5 115.55 204.75 118.0 207.15 114.55 206.85 113.1 209.95 M150.1 185.0 L146.7 184.75 145.25 187.85 144.35 184.55 140.9 184.05 143.9 182.25 143.3 178.8 145.9 181.1 149.0 179.4 147.65 182.65 150.1 185.0 M132.35 182.3 L132.05 179.75 129.5 179.15 131.8 178.05 131.6 175.4 133.4 177.3 135.85 176.3 134.6 178.65 136.3 180.65 133.75 180.1 132.35 182.3 M133.75 152.45 L133.65 157.7 138.45 159.7 133.45 161.2 133.0 166.4 130.1 162.1 125.0 163.3 128.15 159.15 125.45 154.7 130.35 156.45 133.75 152.45 M151.5 166.65 L148.8 166.75 147.95 169.2 147.1 166.75 144.5 166.7 146.6 165.05 145.85 162.55 147.95 164.05 150.1 162.55 149.35 165.05 151.5 166.65 M161.85 154.85 L159.35 152.4 156.15 153.95 157.7 150.75 155.25 148.25 158.75 148.7 160.4 145.65 161.0 149.05 164.45 149.7 161.35 151.35 161.85 154.85 M113.75 159.4 L112.95 157.0 110.3 156.9 112.4 155.3 111.65 152.8 113.75 154.3 115.95 152.8 115.2 155.3 117.3 156.85 114.6 157.0 113.75 159.4 M112.05 133.55 L116.85 135.55 111.9 137.05 111.45 142.3 108.55 137.95 103.45 139.15 106.6 135.0 103.9 130.55 108.75 132.3 112.2 128.35 112.05 133.55 M101.4 115.2 L103.55 113.7 102.8 116.2 104.95 117.8 102.25 117.9 101.4 120.35 100.55 117.9 97.95 117.85 100.05 116.2 99.3 113.7 101.4 115.2 M135.55 143.55 L135.75 140.05 132.55 138.65 135.95 137.75 136.35 134.3 138.2 137.2 141.6 136.55 139.4 139.25 141.15 142.25 137.9 140.95 135.55 143.55 M152.2 118.7 L157.9 122.6 163.65 118.7 161.7 125.35 167.2 129.6 160.25 129.8 157.9 136.35 155.6 129.8 148.65 129.6 154.15 125.35 152.2 118.7 M64.9 202.8 L59.9 201.3 64.7 199.3 64.6 194.1 68.0 198.05 72.9 196.3 70.2 200.75 73.35 204.9 68.25 203.7 65.35 208.05 64.9 202.8 M56.05 200.9 L55.4 204.35 58.4 206.15 54.95 206.65 54.1 209.95 52.65 206.85 49.2 207.15 51.65 204.75 50.35 201.5 53.4 203.25 56.05 200.9 M65.2 263.55 L64.55 267.0 67.55 268.8 64.1 269.3 63.25 272.6 61.8 269.55 58.35 269.8 60.8 267.45 59.5 264.15 62.55 265.9 65.2 263.55 M59.35 273.6 L56.65 278.05 59.8 282.2 54.7 281.0 51.8 285.3 51.35 280.1 46.35 278.6 51.15 276.6 51.05 271.35 54.45 275.35 59.35 273.6 M49.0 336.25 L48.35 339.7 51.35 341.5 47.9 342.0 47.05 345.3 45.6 342.2 42.2 342.5 44.6 340.1 43.3 336.85 46.4 338.6 49.0 336.25 M125.0 342.5 L121.6 342.2 120.15 345.3 119.3 342.0 115.85 341.5 118.85 339.7 118.2 336.25 120.8 338.6 123.9 336.85 122.6 340.1 125.0 342.5" fill="#000000" fill-rule="evenodd" stroke="none"/>
  </g>
</svg>
