<?xml version="1.0" encoding="UTF-8" standalone="no"?>
<svg xmlns:xlink="http://www.w3.org/1999/xlink" height="346.3px" width="168.2px" xmlns="http://www.w3.org/2000/svg">
  <g transform="matrix(1.0, 0.0, 0.0, 1.0, -315.8, -188.45)">
    <path d="M373.7 188.95 L375.9 190.45 378.0 188.95 377.25 191.5 379.35 193.1 376.7 193.15 375.9 195.6 375.05 193.15 372.35 193.05 374.45 191.5 373.7 188.95 M424.75 193.15 L427.45 193.05 425.35 191.5 426.1 188.95 423.9 190.45 421.8 188.95 422.55 191.5 420.45 193.1 423.1 193.15 423.9 195.6 424.75 193.15 M449.65 222.35 L447.55 223.95 450.2 224.0 451.0 226.45 451.85 224.0 454.55 223.9 452.45 222.35 453.2 219.8 451.0 221.3 448.9 219.8 449.65 222.35 M457.6 228.05 L454.2 232.05 449.3 230.3 452.0 234.75 448.85 238.9 453.95 237.7 456.85 242.0 457.3 236.8 462.3 235.3 457.5 233.3 457.6 228.05 M423.1 221.2 L420.95 219.65 421.7 217.15 419.55 218.65 417.45 217.15 418.2 219.65 416.1 221.25 418.7 221.35 419.55 223.75 420.4 221.35 423.1 221.2 M414.7 227.95 L412.5 229.45 410.4 227.95 411.15 230.5 409.05 232.1 411.7 232.15 412.5 234.6 413.4 232.15 416.1 232.05 413.95 230.5 414.7 227.95 M439.8 245.75 L434.3 241.55 436.25 234.85 430.5 238.8 424.8 234.85 426.75 241.55 421.25 245.75 428.2 245.95 430.5 252.5 432.8 245.95 439.8 245.75 M439.2 278.7 L439.95 276.2 437.75 277.7 435.65 276.2 436.4 278.7 434.3 280.3 436.95 280.4 437.75 282.8 438.6 280.4 441.3 280.25 439.2 278.7 M449.3 264.45 L452.0 268.95 448.85 273.1 453.95 271.9 456.85 276.2 457.3 271.0 462.3 269.5 457.5 267.45 457.6 262.25 454.2 266.25 449.3 264.45 M477.85 295.65 L476.05 293.8 476.25 296.4 473.9 297.5 476.45 298.1 476.8 300.7 478.2 298.5 480.75 299.0 479.0 297.0 480.3 294.65 477.85 295.65 M382.35 217.15 L381.6 219.65 383.7 221.25 381.1 221.35 380.25 223.75 379.4 221.35 376.7 221.2 378.85 219.65 378.1 217.15 380.25 218.65 382.35 217.15 M378.55 245.75 L371.6 245.95 369.3 252.5 367.0 245.95 360.0 245.75 365.5 241.55 363.55 234.85 369.3 238.8 375.0 234.85 373.05 241.55 378.55 245.75 M385.1 227.95 L387.3 229.45 389.4 227.95 388.65 230.5 390.75 232.1 388.1 232.15 387.3 234.6 386.4 232.15 383.7 232.05 385.85 230.5 385.1 227.95 M350.15 222.35 L352.25 223.95 349.6 224.0 348.8 226.45 347.95 224.0 345.25 223.9 347.35 222.35 346.6 219.8 348.8 221.3 350.9 219.8 350.15 222.35 M342.3 233.3 L342.2 228.05 345.6 232.05 350.5 230.3 347.8 234.75 350.95 238.9 345.85 237.7 342.95 242.0 342.5 236.8 337.5 235.3 342.3 233.3 M350.5 264.45 L347.8 268.95 350.95 273.1 345.85 271.9 342.95 276.2 342.5 271.0 337.5 269.5 342.3 267.45 342.2 262.25 345.6 266.25 350.5 264.45 M361.2 280.4 L358.5 280.25 360.6 278.7 359.85 276.2 362.05 277.7 364.15 276.2 363.4 278.7 365.5 280.3 362.85 280.4 362.05 282.8 361.2 280.4 M384.2 302.65 L383.45 305.15 385.55 306.8 382.95 306.85 382.1 309.3 381.25 306.85 378.55 306.75 380.7 305.15 379.95 302.65 382.1 304.15 384.2 302.65 M379.6 319.5 L376.9 323.95 380.05 328.1 374.95 326.9 372.05 331.25 371.6 326.0 366.65 324.5 371.45 322.5 371.3 317.3 374.75 321.25 379.6 319.5 M367.55 341.75 L369.75 343.25 371.85 341.75 371.1 344.25 373.2 345.85 370.55 345.95 369.75 348.35 368.9 345.95 366.2 345.8 368.3 344.25 367.55 341.75 M329.35 314.3 L334.85 318.55 327.9 318.75 325.6 325.3 323.25 318.75 316.3 318.55 321.8 314.3 319.85 307.65 325.6 311.55 331.3 307.65 329.35 314.3 M344.1 328.2 L341.9 325.5 345.3 326.15 347.15 323.25 347.55 326.7 350.95 327.6 347.75 329.0 347.95 332.5 345.6 329.9 342.35 331.2 344.1 328.2 M324.15 341.35 L321.65 343.8 322.15 340.3 319.05 338.65 322.5 338.0 323.1 334.6 324.75 337.65 328.25 337.2 325.8 339.7 327.35 342.9 324.15 341.35 M358.05 343.65 L355.35 348.1 358.5 352.25 353.4 351.05 350.5 355.35 350.05 350.15 345.05 348.65 349.85 346.65 349.75 341.4 353.15 345.4 358.05 343.65 M347.65 365.25 L350.1 366.25 351.9 364.35 351.7 367.0 354.0 368.1 351.45 368.7 351.15 371.25 349.75 369.05 347.2 369.6 348.9 367.6 347.65 365.25 M336.9 354.0 L339.0 355.65 336.4 355.7 335.55 358.15 334.7 355.7 332.0 355.6 334.15 354.0 333.4 351.5 335.55 353.0 337.65 351.5 336.9 354.0 M339.6 371.2 L342.6 373.0 339.15 373.5 338.25 376.8 336.8 373.7 333.4 373.95 335.85 371.6 334.5 368.35 337.6 370.05 340.2 367.75 339.6 371.2 M372.35 389.85 L371.7 393.3 374.7 395.1 371.25 395.6 370.4 398.9 368.95 395.8 365.5 396.1 367.95 393.7 366.65 390.45 369.7 392.2 372.35 389.85 M381.0 388.25 L380.9 383.05 384.3 387.0 389.2 385.25 386.5 389.7 389.65 393.85 384.55 392.65 381.65 397.0 381.2 391.75 376.2 390.25 381.0 388.25 M478.0 314.3 L479.95 307.65 474.2 311.55 468.5 307.65 470.45 314.3 464.95 318.55 471.9 318.75 474.2 325.3 476.55 318.75 483.5 318.55 478.0 314.3 M455.7 328.2 L457.9 325.5 454.5 326.15 452.65 323.25 452.25 326.7 448.85 327.6 452.05 329.0 451.85 332.5 454.2 329.9 457.45 331.2 455.7 328.2 M446.65 345.4 L441.75 343.65 444.45 348.1 441.3 352.25 446.4 351.05 449.3 355.35 449.75 350.15 454.75 348.65 449.95 346.65 450.05 341.4 446.65 345.4 M475.65 341.35 L478.15 343.8 477.65 340.3 480.75 338.65 477.3 338.0 476.7 334.6 475.05 337.65 471.55 337.2 474.0 339.7 472.45 342.9 475.65 341.35 M417.7 304.15 L415.6 302.65 416.35 305.15 414.25 306.8 416.85 306.85 417.7 309.3 418.55 306.85 421.25 306.75 419.1 305.15 419.85 302.65 417.7 304.15 M420.2 319.5 L422.9 323.95 419.75 328.1 424.85 326.9 427.75 331.25 428.2 326.0 433.15 324.5 428.35 322.5 428.5 317.3 425.05 321.25 420.2 319.5 M428.7 344.25 L426.6 345.85 429.25 345.95 430.05 348.35 430.9 345.95 433.6 345.8 431.5 344.25 432.25 341.75 430.05 343.25 427.95 341.75 428.7 344.25 M410.15 393.85 L415.25 392.65 418.15 397.0 418.6 391.75 423.6 390.25 418.8 388.25 418.9 383.05 415.5 387.0 410.6 385.25 413.3 389.7 410.15 393.85 M427.45 389.85 L428.1 393.3 425.1 395.1 428.55 395.6 429.4 398.9 430.85 395.8 434.3 396.1 431.85 393.7 433.15 390.45 430.1 392.2 427.45 389.85 M463.4 355.7 L464.25 358.15 465.1 355.7 467.8 355.6 465.65 354.0 466.4 351.5 464.25 353.0 462.15 351.5 462.9 354.0 460.8 355.65 463.4 355.7 M448.1 367.0 L445.8 368.1 448.35 368.7 448.65 371.25 450.05 369.05 452.6 369.6 450.9 367.6 452.15 365.25 449.7 366.25 447.9 364.35 448.1 367.0 M459.6 367.75 L460.2 371.2 457.2 373.0 460.65 373.5 461.55 376.8 463.0 373.7 466.4 373.95 463.95 371.6 465.3 368.35 462.2 370.05 459.6 367.75 M323.75 293.8 L323.55 296.4 325.9 297.5 323.35 298.1 323.0 300.7 321.6 298.5 319.05 299.0 320.8 297.0 319.5 294.65 321.95 295.65 323.75 293.8 M437.15 467.55 L432.35 465.55 432.45 460.3 429.05 464.3 424.15 462.55 426.85 467.0 423.7 471.15 428.8 469.95 431.7 474.25 432.15 469.05 437.15 467.55 M424.0 453.1 L420.95 454.85 418.3 452.5 418.95 455.95 415.95 457.75 419.4 458.25 420.25 461.55 421.7 458.5 425.15 458.75 422.7 456.4 424.0 453.1 M375.8 453.1 L378.85 454.85 381.5 452.5 380.85 455.95 383.85 457.75 380.4 458.25 379.55 461.55 378.1 458.5 374.65 458.75 377.1 456.4 375.8 453.1 M367.35 460.3 L370.75 464.3 375.65 462.55 372.95 467.0 376.1 471.15 371.0 469.95 368.1 474.25 367.65 469.05 362.65 467.55 367.45 465.55 367.35 460.3 M364.65 528.65 L367.65 530.45 364.2 530.95 363.35 534.25 361.9 531.15 358.5 531.45 360.9 529.05 359.6 525.8 362.7 527.55 365.3 525.2 364.65 528.65 M438.9 529.05 L440.2 525.8 437.1 527.55 434.5 525.2 435.15 528.65 432.15 530.45 435.6 530.95 436.45 534.25 437.9 531.15 441.3 531.45 438.9 529.05" fill="none" stroke="#000000" stroke-linecap="round" stroke-linejoin="round" stroke-opacity="0.2509804" stroke-width="1.0"/>
  </g>
</svg>
