<?xml version="1.0" encoding="UTF-8" standalone="no"?>
<svg xmlns:xlink="http://www.w3.org/1999/xlink" height="244.35px" width="80.3px" xmlns="http://www.w3.org/2000/svg">
  <g transform="matrix(1.0, 0.0, 0.0, 1.0, -359.75, -309.45)">
    <path d="M403.0 350.4 L396.8 350.4 M439.45 553.3 L430.45 553.3 M427.4 431.55 L430.1 443.25 Q429.65 456.5 428.7 469.8 M413.95 477.15 Q411.0 464.45 405.0 445.65 406.0 435.2 408.8 425.55 M371.15 469.8 Q370.15 456.5 369.7 443.25 L372.4 431.55 M391.0 425.55 Q393.8 435.2 394.8 445.65 388.8 464.45 385.9 477.15 M382.5 514.45 L383.2 516.65 383.25 517.15 383.3 517.4 Q383.65 521.5 382.2 524.45 379.35 530.15 378.4 537.05 377.6 543.45 373.6 549.0 M369.35 553.3 L360.35 553.3 M426.2 549.0 Q422.2 543.45 421.4 537.05 420.45 530.15 417.6 524.45 416.15 521.5 416.5 517.4 L416.55 517.15 416.6 516.65 417.3 514.45" fill="none" stroke="#000000" stroke-linecap="round" stroke-linejoin="round" stroke-width="1.0"/>
    <path d="M384.2 309.95 L384.15 310.2 Q376.75 319.85 374.8 334.95 371.7 383.1 376.9 435.45 L382.95 436.65 Q380.25 386.75 385.05 336.8 385.35 324.25 389.0 311.7 L389.05 311.25 M396.8 350.4 L395.2 348.3 395.2 312.15 M404.6 312.15 L404.6 348.3 403.0 350.4 M430.45 553.3 Q432.0 545.6 429.3 537.9 L421.0 514.95 416.85 436.65 Q419.55 386.75 414.75 336.8 414.45 324.25 410.8 311.7 L410.75 311.25 M415.65 309.95 L415.65 310.2 Q423.05 319.85 425.0 334.95 428.1 383.1 422.9 435.45 L422.9 507.2 423.4 514.95 435.85 537.6 Q440.1 543.8 439.45 553.3 M422.9 435.45 L416.85 436.65 M428.7 469.8 L427.4 431.55 M408.8 425.55 L413.95 477.15 M372.4 431.55 L371.15 469.8 M385.9 477.15 L391.0 425.55 M373.6 549.0 L382.5 514.45 M360.35 553.3 Q359.7 543.8 363.95 537.6 L376.4 514.95 376.9 507.2 376.9 435.45 M369.35 553.3 Q367.8 545.6 370.5 537.9 L378.8 514.95 382.95 436.65 M417.3 514.45 L426.2 549.0" fill="none" stroke="#000000" stroke-linecap="round" stroke-linejoin="round" stroke-opacity="0.5019608" stroke-width="1.0"/>
  </g>
</svg>
