<?xml version="1.0" encoding="UTF-8" standalone="no"?>
<svg xmlns:xlink="http://www.w3.org/1999/xlink" height="112.85px" width="123.8px" xmlns="http://www.w3.org/2000/svg">
  <g transform="matrix(1.0, 0.0, 0.0, 1.0, -338.0, -297.0)">
    <path d="M393.55 320.4 L385.65 394.35 399.9 409.35 414.15 394.35 406.25 320.4 407.15 320.4 409.05 320.35 410.15 320.3 415.45 320.1 M426.9 319.25 L428.7 319.1 433.95 318.45 M438.0 317.9 Q438.4 315.8 436.9 315.3 M362.9 315.3 Q361.4 315.8 361.8 317.9 M365.85 318.45 L371.1 319.1 372.9 319.25 M384.35 320.1 L389.65 320.3 390.75 320.35 392.65 320.4 393.55 320.4 M362.9 315.3 L362.9 299.95 Q361.65 298.75 362.9 297.5 L399.9 298.85 436.9 297.5 Q438.15 298.75 436.9 299.95 L436.9 315.3 M365.85 318.45 L349.8 381.9 338.5 389.85 338.5 375.55 361.8 317.9 M384.35 320.1 L376.9 391.9 361.3 402.55 354.9 385.95 372.9 319.25 M438.0 317.9 L461.3 375.55 461.3 389.85 450.0 381.9 433.95 318.45 M426.9 319.25 L444.9 385.95 438.5 402.55 422.9 391.9 415.45 320.1" fill="none" stroke="#000000" stroke-linecap="round" stroke-linejoin="round" stroke-width="1.0"/>
    <path d="M406.25 320.4 L399.9 320.35 393.55 320.4 M415.45 320.1 L417.55 320.0 420.9 319.75 426.9 319.25 M433.95 318.45 L434.05 318.45 438.0 317.9 M436.9 315.3 Q418.25 318.05 399.9 317.6 381.55 318.05 362.9 315.3 M361.8 317.9 L365.75 318.45 365.85 318.45 M372.9 319.25 L378.9 319.75 382.25 320.0 384.35 320.1 M342.3 375.2 L343.7 375.25 Q344.35 375.6 344.55 376.45 344.8 377.25 344.4 378.0 344.05 378.8 343.3 379.1 342.6 379.45 341.95 379.1 341.3 378.75 341.05 377.85 340.85 377.05 341.2 376.25 341.6 375.5 342.3 375.2 M363.1 385.5 Q363.8 384.8 364.8 384.8 365.8 384.8 366.5 385.5 367.2 386.2 367.2 387.2 367.2 388.2 366.5 388.9 365.8 389.6 364.8 389.6 363.8 389.6 363.1 388.9 362.4 388.2 362.4 387.2 362.4 386.2 363.1 385.5 M399.9 392.75 L399.8 392.75 Q398.9 392.75 398.25 393.4 397.6 394.05 397.6 394.95 397.6 395.85 398.25 396.5 398.9 397.15 399.8 397.15 L399.9 397.15 400.0 397.15 Q400.9 397.15 401.55 396.5 402.2 395.85 402.2 394.95 402.2 394.05 401.55 393.4 400.9 392.75 400.0 392.75 L399.9 392.75 M436.9 299.95 L399.9 301.45 362.9 299.95 M436.7 385.5 Q436.0 384.8 435.0 384.8 434.0 384.8 433.3 385.5 432.6 386.2 432.6 387.2 432.6 388.2 433.3 388.9 434.0 389.6 435.0 389.6 436.0 389.6 436.7 388.9 437.4 388.2 437.4 387.2 437.4 386.2 436.7 385.5 M456.1 375.25 Q455.45 375.6 455.25 376.45 455.0 377.25 455.4 378.0 455.75 378.8 456.5 379.1 457.2 379.45 457.85 379.1 458.5 378.75 458.75 377.85 458.95 377.05 458.6 376.25 458.2 375.5 457.5 375.2 L456.1 375.25" fill="none" stroke="#000000" stroke-linecap="round" stroke-linejoin="round" stroke-opacity="0.5019608" stroke-width="1.0"/>
  </g>
</svg>
