<?xml version="1.0" encoding="UTF-8" standalone="no"?>
<svg xmlns:xlink="http://www.w3.org/1999/xlink" height="49.8px" width="41.45px" xmlns="http://www.w3.org/2000/svg">
  <g transform="matrix(1.0, 0.0, 0.0, 1.0, -345.95, -294.65)">
    <path d="M351.75 308.2 L355.1 317.35 367.95 318.95 376.7 308.3 Q377.9 303.85 379.95 302.7 M362.15 313.85 Q362.7 313.85 363.1 314.25 363.5 314.65 363.5 315.2 363.5 315.75 363.1 316.15 362.7 316.55 362.15 316.55 361.6 316.55 361.2 316.15 360.8 315.75 360.8 315.2 360.8 314.65 361.2 314.25 361.6 313.85 362.15 313.85 M350.8 334.95 Q361.1 334.15 369.85 336.5" fill="none" stroke="#000000" stroke-linecap="round" stroke-linejoin="round" stroke-opacity="0.5019608" stroke-width="1.0"/>
    <path d="M351.75 308.2 L346.45 335.1 350.9 341.15 374.25 343.95 380.45 339.0 Q383.0 328.4 384.85 317.45 L384.9 317.05 386.9 302.05 385.4 297.95 358.15 295.15 Q351.7 297.25 350.9 305.9 L351.75 308.2 Z" fill="none" stroke="#000000" stroke-linecap="round" stroke-linejoin="round" stroke-width="1.0"/>
  </g>
</svg>
