<?xml version="1.0" encoding="UTF-8" standalone="no"?>
<svg xmlns:xlink="http://www.w3.org/1999/xlink" height="79.5px" width="112.6px" xmlns="http://www.w3.org/2000/svg">
  <g transform="matrix(1.0, 0.0, 0.0, 1.0, -343.6, -303.55)">
    <path d="M378.2 345.3 Q372.05 357.45 362.65 367.7 355.2 375.75 345.8 382.55 343.8 370.15 344.15 357.7 344.45 343.7 347.8 329.6 350.75 316.85 356.15 304.05 359.1 307.35 362.9 310.15 367.75 313.8 373.95 316.65 379.75 319.35 386.75 321.4 L385.95 324.8 383.7 332.25 382.5 335.5 Q380.85 339.85 378.85 344.0 L378.2 345.3 M436.9 310.15 Q440.7 307.35 443.65 304.05 449.05 316.85 452.0 329.6 455.35 343.7 455.65 357.7 456.0 370.15 454.0 382.55 444.6 375.75 437.15 367.7 427.75 357.45 421.6 345.3 L420.95 344.0 Q418.95 339.85 417.3 335.5 L416.15 332.25 413.9 324.8 413.05 321.4 Q420.05 319.35 425.85 316.65 432.05 313.8 436.9 310.15" fill="none" stroke="#000000" stroke-linecap="round" stroke-linejoin="round" stroke-width="1.0"/>
    <path d="M378.2 345.3 L376.05 344.5 Q360.2 338.7 347.8 329.6 M344.15 357.7 Q352.1 363.65 362.65 367.7 M452.0 329.6 Q439.6 338.7 423.8 344.55 L421.6 345.3 M437.15 367.7 Q447.7 363.65 455.65 357.7" fill="none" stroke="#000000" stroke-linecap="round" stroke-linejoin="round" stroke-opacity="0.5019608" stroke-width="1.0"/>
  </g>
</svg>
