<?xml version="1.0" encoding="UTF-8" standalone="no"?>
<svg xmlns:xlink="http://www.w3.org/1999/xlink" height="191.25px" width="62.45px" xmlns="http://www.w3.org/2000/svg">
  <g transform="matrix(1.0, 0.0, 0.0, 1.0, -323.4, -341.9)">
    <path d="M348.7 377.05 L352.75 377.85 M349.05 372.5 L357.25 374.35 M356.7 389.35 L377.2 392.45 M348.25 383.5 L373.55 387.7 M356.45 381.15 L383.1 385.9 M351.55 353.6 L373.95 358.9 M351.9 392.3 L369.5 394.95 M349.6 366.95 L368.65 371.15 M357.65 362.45 L375.65 366.35 M356.8 349.15 L385.35 356.5 M353.9 342.4 L382.35 349.95 M342.55 440.75 L355.95 442.65 M343.5 436.45 L364.45 439.1 M348.0 396.2 L358.45 397.5 M356.1 417.9 L360.45 418.6 M345.8 479.0 L356.85 479.4 M346.35 483.75 L357.8 484.4 M350.95 487.5 L362.15 488.2 M351.4 491.75 L357.1 492.0 M351.2 472.55 L354.5 472.55 M348.35 467.35 L360.9 468.5 M349.3 459.05 L363.05 460.7 M344.3 453.8 L359.45 455.5 M355.45 451.7 L375.45 454.15 M347.15 445.5 L368.95 447.65 M348.05 400.5 L366.0 403.35 M351.4 406.35 L368.3 408.7 M353.9 412.4 L367.15 414.05 M346.1 506.85 L354.05 507.8 M347.0 511.3 L349.6 511.7 M343.9 514.45 L350.0 515.2 M339.05 517.3 L348.95 518.45 M331.45 519.95 L345.95 522.25 M328.05 524.25 L336.45 525.6 M351.2 495.55 L354.25 495.75 M323.9 529.5 L342.2 532.65" fill="none" stroke="#000000" stroke-linecap="round" stroke-linejoin="round" stroke-opacity="0.5019608" stroke-width="1.0"/>
  </g>
</svg>
