<?xml version="1.0" encoding="UTF-8" standalone="no"?>
<svg xmlns:xlink="http://www.w3.org/1999/xlink" height="201.55px" width="67.45px" xmlns="http://www.w3.org/2000/svg">
  <g transform="matrix(1.0, 0.0, 0.0, 1.0, -325.0, -326.45)">
    <path d="M356.05 334.4 Q357.15 330.6 358.4 326.95 M349.3 369.6 L350.25 361.6 M389.95 360.65 L391.95 353.95 M383.0 386.2 L381.7 391.55 M376.3 415.8 L375.35 420.35 375.8 421.95 M348.1 403.2 L348.05 400.9 348.05 400.4 348.0 396.3 M342.8 439.65 Q343.3 436.55 344.4 433.6 L344.9 432.1 M362.15 488.65 L363.3 483.0 M344.4 467.0 L345.1 472.9 M373.55 457.35 L370.4 463.25 M344.5 503.45 L340.4 508.65 M325.5 527.5 L329.85 522.0" fill="none" stroke="#000000" stroke-linecap="round" stroke-linejoin="round" stroke-width="1.0"/>
    <path d="M358.4 326.95 Q368.7 334.2 381.5 339.3 368.55 338.3 356.05 334.4 M350.25 361.6 Q363.55 368.2 378.9 372.45 364.1 372.75 349.3 369.6 M391.95 353.95 Q380.25 354.9 368.1 352.55 376.95 357.65 389.95 360.65 M381.7 391.55 Q371.4 389.5 364.35 384.45 373.75 385.9 383.0 386.2 M375.8 421.95 Q366.5 420.65 359.2 416.85 368.85 417.2 376.3 415.8 M348.0 396.3 Q360.35 401.35 373.1 403.25 360.6 405.4 348.1 403.2 M344.9 432.1 Q354.6 436.85 366.35 439.5 354.55 441.4 342.8 439.65 M363.3 483.0 Q358.7 484.75 353.15 484.9 356.85 488.15 362.15 488.65 M345.1 472.9 Q351.85 474.15 358.05 471.85 349.85 470.2 344.4 467.0 M370.4 463.25 Q361.4 461.75 354.95 457.3 364.5 459.05 373.55 457.35 M340.4 508.65 Q347.25 508.1 355.15 510.1 351.05 507.0 344.5 503.45 M329.85 522.0 Q339.55 523.3 346.95 527.5 336.25 525.5 325.5 527.5" fill="none" stroke="#000000" stroke-linecap="round" stroke-linejoin="round" stroke-opacity="0.5019608" stroke-width="1.0"/>
  </g>
</svg>
