<?xml version="1.0" encoding="UTF-8" standalone="no"?>
<svg xmlns:xlink="http://www.w3.org/1999/xlink" height="248.65px" width="175.1px" xmlns="http://www.w3.org/2000/svg">
  <g transform="matrix(1.0, 0.0, 0.0, 1.0, -312.35, -306.95)">
    <path d="M395.1 343.9 Q385.25 374.4 378.1 407.1 L375.35 420.35 378.8 433.3 Q381.1 443.05 376.9 451.85 369.25 463.55 365.2 476.2 362.15 485.6 361.15 495.55 L362.9 499.85 362.05 503.3 363.0 506.5 363.0 506.8 Q363.9 513.1 361.2 517.85 356.0 526.25 354.35 536.3 353.0 545.65 345.85 553.6 L343.5 555.6 334.85 555.6 Q333.75 554.9 333.05 554.1 331.4 552.15 332.05 549.65 L334.55 546.5 335.15 545.4 Q334.5 543.45 331.85 543.85 329.55 545.15 328.15 549.25 327.05 551.8 324.0 553.65 L315.35 553.65 Q314.25 552.95 313.55 552.15 311.9 550.2 312.55 547.7 L315.05 544.55 Q315.45 543.7 315.95 543.1 316.15 541.65 316.65 540.3 317.3 538.35 318.4 536.45 L344.5 503.45 344.5 498.7 347.75 495.55 342.7 452.8 Q341.15 442.45 344.4 433.6 L349.0 420.0 348.25 407.1 348.05 400.9 348.05 400.4 Q347.15 351.8 362.9 315.3 L362.9 307.0 Q381.4 309.65 399.9 309.35 418.4 309.6 436.9 306.95 L436.9 315.3 Q452.65 351.8 451.75 400.4 L451.75 400.9 451.55 407.1 450.8 420.0 455.4 433.6 456.25 436.1 Q457.5 440.5 457.6 445.3 457.7 448.95 457.1 452.8 L452.05 495.55 455.3 498.7 455.3 503.45 481.4 536.45 483.15 540.25 483.9 543.05 484.75 544.55 487.25 547.7 Q487.9 550.2 486.25 552.15 L484.45 553.65 475.8 553.65 Q472.75 551.8 471.65 549.25 470.25 545.15 467.95 543.85 465.3 543.45 464.65 545.4 L465.25 546.5 467.75 549.65 Q468.4 552.15 466.75 554.1 L464.95 555.6 456.3 555.6 453.95 553.6 Q446.8 545.65 445.45 536.3 443.8 526.25 438.6 517.85 435.9 513.1 436.8 506.8 L436.8 506.5 437.75 503.3 436.9 499.85 438.65 495.55 437.95 490.05 Q436.8 483.0 434.6 476.2 430.55 463.55 422.9 451.85 420.9 447.7 420.4 443.35 419.95 439.8 420.5 436.1 L421.0 433.3 424.45 420.35 421.7 407.1 Q414.55 374.4 404.7 343.9 L395.1 343.9" fill="#000000" fill-rule="evenodd" stroke="none"/>
  </g>
</svg>
