<?xml version="1.0" encoding="UTF-8" standalone="no"?>
<svg xmlns:xlink="http://www.w3.org/1999/xlink" height="261.2px" width="168.45px" xmlns="http://www.w3.org/2000/svg">
  <g transform="matrix(1.0, 0.0, 0.0, 1.0, -315.7, -298.8)">
    <path d="M364.6 299.15 Q372.75 301.1 378.6 308.35 388.6 311.45 399.9 313.25 411.2 311.45 421.2 308.35 427.05 301.1 435.2 299.15 L436.9 298.8 436.9 315.3 419.15 331.4 Q412.2 337.45 407.1 343.9 L392.7 343.9 Q387.6 337.45 380.65 331.4 L362.9 315.3 362.9 298.8 364.6 299.15 M390.75 346.2 L394.35 346.2 Q385.0 375.65 378.1 407.1 L377.5 410.0 367.25 416.6 359.95 407.35 Q359.95 363.1 374.0 329.05 383.25 337.45 390.75 346.2 M363.1 319.65 L371.1 326.45 Q355.25 363.2 355.8 407.55 L348.6 414.25 348.25 407.1 348.05 400.9 348.05 400.4 Q347.2 353.9 361.6 318.45 L363.1 319.65 M436.7 319.65 L438.25 318.45 Q452.6 353.9 451.75 400.4 L451.75 400.9 451.55 407.1 451.2 414.25 444.0 407.55 Q444.55 363.2 428.7 326.45 L436.7 319.65 M409.05 346.2 Q416.55 337.45 425.8 329.05 439.85 363.1 439.85 407.35 L432.55 416.6 422.35 410.0 421.7 407.1 Q414.8 375.65 405.45 346.2 L409.05 346.2 M318.0 537.2 L318.4 536.45 333.9 516.9 Q335.1 516.3 336.35 516.0 345.55 513.6 354.95 526.85 L356.2 528.65 Q355.0 532.35 354.35 536.3 353.6 541.55 351.05 546.35 L349.65 544.85 Q335.4 530.2 320.05 536.3 L318.0 537.2 M318.55 540.15 Q333.75 534.65 347.7 547.8 L349.25 549.3 345.85 553.6 338.3 560.0 321.35 560.0 316.9 552.6 Q314.75 546.65 316.4 541.05 L318.55 540.15 M452.85 426.1 L455.4 433.6 Q458.65 442.45 457.1 452.8 L452.5 492.0 448.75 489.55 Q448.05 462.45 444.95 435.35 L448.95 434.95 450.95 428.0 452.85 426.1 M449.9 420.25 L446.6 431.7 437.1 433.1 433.4 423.35 Q434.7 417.0 442.15 410.3 446.05 413.65 449.2 419.0 L449.9 420.25 M422.9 426.25 L432.35 429.3 436.0 436.25 441.25 435.75 Q444.55 461.5 444.65 489.2 L438.25 492.0 Q435.25 470.7 422.9 451.85 418.7 443.05 421.0 433.3 L422.9 426.25 M376.95 426.25 L378.8 433.3 Q381.1 443.05 376.9 451.85 364.55 470.7 361.6 492.0 L355.15 489.2 Q355.25 461.5 358.55 435.75 L363.8 436.25 367.45 429.3 376.95 426.25 M357.65 410.3 Q365.1 417.0 366.4 423.35 L362.7 433.1 353.2 431.7 349.9 420.25 350.6 419.0 Q353.75 413.65 357.65 410.3 M348.85 428.0 L350.85 434.95 354.85 435.35 Q351.75 462.45 351.05 489.55 L347.35 492.0 342.7 452.8 Q341.15 442.45 344.4 433.6 L346.95 426.1 348.85 428.0 M344.5 498.7 L347.75 495.55 353.15 491.85 361.15 495.55 362.9 499.85 362.05 503.3 363.0 506.5 363.0 506.8 Q363.9 513.1 361.2 517.85 L359.9 520.1 Q358.45 522.75 357.35 525.55 L356.05 523.65 Q346.6 510.2 337.7 513.4 L336.1 514.1 344.5 503.45 344.5 498.7 M455.3 503.45 L463.75 514.1 462.1 513.4 Q453.2 510.2 443.75 523.65 L442.5 525.55 439.95 520.1 438.6 517.85 Q435.9 513.1 436.8 506.8 L436.8 506.5 437.75 503.3 436.9 499.85 438.65 495.55 446.65 491.85 452.05 495.55 455.3 498.7 455.3 503.45 M481.85 537.2 Q480.8 536.7 479.75 536.3 464.4 530.2 450.15 544.85 L448.8 546.35 Q446.2 541.55 445.45 536.3 444.8 532.35 443.6 528.65 L444.85 526.85 Q454.25 513.6 463.45 516.0 L465.95 516.9 481.4 536.45 481.85 537.2 M483.45 541.05 Q485.05 546.65 482.9 552.6 L478.45 560.0 461.5 560.0 453.95 553.6 450.55 549.3 452.1 547.8 Q466.05 534.65 481.25 540.15 L483.45 541.05" fill="#000000" fill-rule="evenodd" stroke="none"/>
  </g>
</svg>
