<?xml version="1.0" encoding="UTF-8" standalone="no"?>
<svg xmlns:xlink="http://www.w3.org/1999/xlink" height="59.9px" width="130.9px" xmlns="http://www.w3.org/2000/svg">
  <g transform="matrix(1.0, 0.0, 0.0, 1.0, -334.45, -416.95)">
    <path d="M465.35 436.45 Q462.8 456.6 454.45 475.25 L456.35 436.55 Q460.65 427.1 461.0 416.95 463.4 430.15 461.0 443.35 L465.35 436.45 M423.9 436.65 L434.85 476.85 Q422.85 459.95 414.9 442.55 417.1 444.25 420.75 445.55 L423.5 446.4 420.2 440.45 Q415.4 430.8 413.8 420.8 416.3 427.45 421.0 433.35 L423.9 436.65 M379.6 440.45 L376.3 446.4 379.05 445.55 Q382.75 444.25 384.9 442.55 376.95 459.95 365.0 476.85 L375.9 436.65 378.8 433.35 378.85 433.35 Q383.5 427.45 386.0 420.8 384.4 430.85 379.6 440.45 M343.45 436.55 L345.35 475.25 Q337.0 456.6 334.45 436.45 L338.8 443.35 Q336.4 430.15 338.8 416.95 339.15 427.1 343.45 436.55" fill="#000000" fill-rule="evenodd" stroke="none"/>
  </g>
</svg>
