<?xml version="1.0" encoding="UTF-8" standalone="no"?>
<svg xmlns:xlink="http://www.w3.org/1999/xlink" height="127.0px" width="132.7px" xmlns="http://www.w3.org/2000/svg">
  <g transform="matrix(1.0, 0.0, 0.0, 1.0, -333.55, -399.0)">
    <path d="M451.75 400.9 L451.75 401.65 451.5 402.15 Q450.65 403.5 449.85 403.5 448.4 403.5 448.4 401.55 448.4 399.7 450.25 399.1 451.3 398.8 451.8 399.35 L451.75 400.4 451.75 400.9 M451.55 407.1 L451.2 413.95 449.65 412.5 Q448.4 410.9 448.4 409.8 448.4 408.85 449.5 407.5 450.5 406.35 451.6 405.8 L451.55 407.1 M446.4 409.55 L446.25 410.95 Q445.9 412.5 445.05 412.5 444.35 412.5 443.75 411.55 443.25 410.75 443.25 410.25 443.25 409.25 444.8 408.2 446.4 407.15 446.4 409.55 M450.8 420.0 L452.6 425.35 Q450.0 425.3 448.9 424.15 448.05 423.3 448.05 421.8 449.35 418.95 450.95 418.05 L450.8 420.0 M420.3 442.65 Q421.25 441.0 423.4 441.4 424.95 441.7 426.05 443.15 427.25 444.7 427.25 446.8 L426.5 451.05 Q425.7 454.3 424.9 455.05 L422.9 451.85 Q420.75 447.35 420.3 442.65 M438.25 418.05 L437.8 417.8 Q437.5 417.55 437.5 417.2 437.5 416.3 439.0 415.65 440.25 415.15 440.45 415.95 441.5 416.35 441.5 417.05 L441.45 417.3 441.65 417.9 441.35 419.0 Q440.9 420.0 440.15 420.0 L439.0 419.25 438.25 418.15 438.25 418.05 M451.55 431.8 L454.15 431.7 454.85 431.95 455.4 433.6 Q456.5 436.6 457.05 439.75 L455.65 440.0 Q452.55 440.0 451.2 437.2 450.4 435.55 450.4 433.75 450.4 432.4 451.55 431.8 M420.75 434.6 L421.0 433.3 422.3 428.4 422.55 428.35 Q425.95 427.65 425.95 431.9 L425.45 433.75 Q424.65 435.5 422.75 435.5 421.65 435.5 420.75 434.6 M377.25 428.35 L377.5 428.4 378.8 433.3 379.1 434.6 Q378.15 435.5 377.05 435.5 375.15 435.5 374.35 433.75 L373.85 431.9 Q373.85 427.65 377.25 428.35 M448.45 492.9 Q447.75 492.25 447.75 491.8 447.75 490.6 449.3 490.05 450.9 489.5 450.9 491.6 L450.8 492.55 Q450.55 493.55 449.5 493.55 L448.45 492.9 M451.75 480.0 L453.9 480.05 452.95 488.0 451.45 488.15 Q449.2 488.15 448.15 486.35 447.45 485.2 447.45 484.05 447.45 482.8 448.8 481.55 450.1 480.35 451.75 480.0 M451.3 470.55 Q453.8 470.2 453.8 472.05 L453.05 473.6 Q452.1 475.1 451.15 475.1 450.25 475.1 449.45 473.9 448.8 472.9 448.8 472.2 448.8 470.95 451.3 470.55 M453.45 461.8 Q452.8 460.95 452.8 460.0 452.8 457.05 455.55 455.95 L456.75 455.75 455.9 463.0 Q454.3 462.9 453.45 461.8 M455.15 446.75 L455.4 447.4 455.7 448.05 455.4 449.05 Q454.9 450.05 454.05 450.05 453.5 450.05 452.9 449.5 452.2 448.85 452.2 448.15 452.2 446.85 453.65 446.1 455.15 445.4 455.15 446.75 M439.6 491.55 Q442.5 492.4 442.5 494.85 L442.05 496.8 Q441.25 498.65 439.45 498.65 438.5 498.65 437.8 497.7 L438.65 495.55 438.15 491.45 439.6 491.55 M439.45 480.25 Q440.75 479.25 441.4 479.4 L442.35 480.8 443.3 482.55 443.3 483.0 Q443.1 483.4 442.25 483.4 440.9 483.4 439.6 482.85 438.25 482.25 438.25 481.55 438.25 481.15 439.45 480.25 M439.75 468.6 Q440.95 467.4 442.55 467.25 446.65 466.85 446.65 472.05 L446.3 473.85 Q445.45 475.55 442.75 475.55 440.1 475.55 439.05 473.75 438.5 472.75 438.5 471.45 438.5 469.8 439.75 468.6 M437.25 465.95 Q438.55 465.55 438.55 466.65 L438.2 467.35 Q437.65 468.25 436.75 468.25 L436.1 468.0 435.8 467.4 Q435.45 467.2 435.45 466.7 435.45 465.85 436.55 465.8 L437.25 465.95 M443.55 461.0 L443.45 460.5 Q441.6 460.3 441.15 458.65 L441.05 456.3 Q441.05 450.45 445.5 449.8 447.2 449.6 448.55 450.35 449.95 451.2 449.95 452.45 449.95 453.2 448.8 454.35 L448.25 455.0 Q449.3 456.0 449.3 457.35 L448.0 460.2 Q446.45 463.0 445.05 463.0 444.05 463.0 443.55 461.0 M427.1 457.85 Q427.7 456.8 428.95 456.8 L432.95 456.65 Q434.3 457.2 434.3 461.55 L433.85 464.5 Q433.1 467.05 431.25 467.3 429.3 462.8 426.9 458.45 L427.1 457.85 M438.95 452.85 Q438.05 455.15 436.05 455.15 435.0 455.15 433.8 453.7 432.65 452.4 432.65 451.65 432.65 448.2 436.05 448.1 439.45 447.95 439.45 450.65 L438.95 452.85 M441.5 442.85 Q440.25 442.85 439.2 440.75 438.4 439.05 438.4 438.1 438.4 437.45 439.45 436.6 440.5 435.7 441.7 435.5 445.05 434.85 445.05 439.7 445.05 440.7 444.55 441.5 443.65 442.85 441.5 442.85 M431.9 442.0 Q431.6 442.75 430.55 442.75 L429.25 442.05 Q428.55 441.3 428.55 440.85 428.55 439.7 430.25 439.55 431.95 439.45 431.95 441.2 L431.9 442.0 M432.0 429.65 Q434.05 429.5 434.05 431.7 L433.8 432.65 Q433.25 433.75 432.0 433.75 430.95 433.75 430.35 433.0 429.95 432.45 429.95 431.75 429.95 429.85 432.0 429.65 M427.9 423.55 Q429.2 423.2 429.2 424.3 L428.95 424.85 Q428.55 425.5 427.75 425.5 426.65 425.5 426.65 424.55 426.65 423.9 427.9 423.55 M441.45 422.2 L442.3 422.15 Q443.1 421.6 443.85 421.95 445.2 422.55 445.2 424.2 445.2 425.55 444.4 426.75 443.15 428.5 440.65 428.5 439.45 428.5 438.65 427.4 438.0 426.55 438.0 425.8 438.0 425.2 438.3 424.7 L439.0 423.9 Q439.35 422.5 441.45 422.2 M371.9 423.55 Q373.15 423.9 373.15 424.55 373.15 425.5 372.05 425.5 371.25 425.5 370.85 424.85 L370.6 424.3 Q370.6 423.2 371.9 423.55 M365.75 431.7 Q365.75 429.5 367.8 429.65 369.85 429.85 369.85 431.75 369.85 432.45 369.45 433.0 368.85 433.75 367.8 433.75 366.55 433.75 366.0 432.65 L365.75 431.7 M367.9 442.0 L367.85 441.2 Q367.85 439.45 369.55 439.55 371.25 439.7 371.25 440.85 L370.55 442.05 Q369.8 442.75 369.25 442.75 368.2 442.75 367.9 442.0 M376.4 441.4 Q378.55 441.0 379.5 442.65 379.05 447.35 376.9 451.85 L374.9 455.05 Q374.1 454.3 373.3 451.05 L372.55 446.8 Q372.55 444.7 373.75 443.15 374.85 441.7 376.4 441.4 M351.4 401.55 Q351.4 403.5 349.95 403.5 349.15 403.5 348.3 402.15 L348.1 401.65 348.05 400.9 348.05 400.4 348.05 399.35 Q348.5 398.8 349.55 399.1 351.4 399.7 351.4 401.55 M348.2 405.8 Q349.3 406.35 350.3 407.5 351.4 408.85 351.4 409.8 351.4 410.9 350.15 412.5 L348.6 413.95 348.25 407.1 348.2 405.8 M353.4 409.55 Q353.4 407.15 355.0 408.2 356.55 409.25 356.55 410.25 L356.05 411.55 Q355.45 412.5 354.75 412.5 353.9 412.5 353.55 410.95 L353.4 409.55 M348.85 418.05 Q350.45 418.95 351.75 421.8 351.75 423.3 350.9 424.15 349.8 425.3 347.2 425.35 L349.0 420.0 348.85 418.05 M358.3 417.05 Q358.3 416.35 359.35 415.95 359.55 415.15 360.8 415.65 362.3 416.3 362.3 417.2 L362.0 417.8 361.55 418.05 361.55 418.15 360.8 419.25 359.65 420.0 Q358.9 420.0 358.45 419.0 L358.15 417.9 358.35 417.3 358.3 417.05 M344.15 440.0 L342.75 439.75 Q343.3 436.6 344.4 433.6 L344.95 431.95 345.65 431.7 348.25 431.8 Q349.4 432.4 349.4 433.75 349.4 435.55 348.6 437.2 347.25 440.0 344.15 440.0 M361.5 424.7 L361.8 425.8 Q361.8 426.55 361.15 427.4 360.35 428.5 359.15 428.5 356.65 428.5 355.4 426.75 354.6 425.55 354.6 424.2 354.6 422.55 355.95 421.95 356.7 421.6 357.5 422.15 L358.35 422.2 Q360.45 422.5 360.8 423.9 L361.5 424.7 M354.75 439.7 Q354.75 434.85 358.1 435.5 359.3 435.7 360.35 436.6 361.4 437.45 361.4 438.1 361.4 439.05 360.6 440.75 359.55 442.85 358.3 442.85 356.15 442.85 355.25 441.5 354.75 440.7 354.75 439.7 M360.35 450.65 Q360.35 447.95 363.75 448.1 367.15 448.2 367.15 451.65 367.15 452.4 366.0 453.7 364.8 455.15 363.75 455.15 361.75 455.15 360.85 452.85 L360.35 450.65 M354.3 449.8 Q358.75 450.45 358.75 456.3 L358.65 458.65 Q358.2 460.3 356.35 460.5 L356.25 461.0 Q355.75 463.0 354.75 463.0 353.35 463.0 351.8 460.2 L350.5 457.35 Q350.5 456.0 351.55 455.0 L351.0 454.35 Q349.85 453.2 349.85 452.45 349.85 451.2 351.25 450.35 352.6 449.6 354.3 449.8 M344.65 446.75 Q344.65 445.4 346.15 446.1 347.6 446.85 347.6 448.15 347.6 448.85 346.9 449.5 346.3 450.05 345.75 450.05 344.9 450.05 344.4 449.05 L344.1 448.05 Q344.1 447.75 344.4 447.4 L344.65 446.75 M347.0 460.0 Q347.0 460.95 346.35 461.8 345.5 462.9 343.9 463.0 L343.05 455.75 344.25 455.95 Q347.0 457.05 347.0 460.0 M364.0 467.4 L363.7 468.0 363.05 468.25 Q362.15 468.25 361.6 467.35 L361.25 466.65 Q361.25 465.55 362.55 465.95 L363.25 465.8 Q364.35 465.85 364.35 466.7 364.35 467.2 364.0 467.4 M360.05 468.6 Q361.3 469.8 361.3 471.45 361.3 472.75 360.75 473.75 359.7 475.55 357.05 475.55 354.35 475.55 353.5 473.85 L353.15 472.05 Q353.15 466.85 357.25 467.25 358.85 467.4 360.05 468.6 M357.45 480.8 L358.4 479.4 Q359.05 479.25 360.35 480.25 361.55 481.15 361.55 481.55 361.55 482.25 360.2 482.85 358.9 483.4 357.55 483.4 356.7 483.4 356.5 483.0 L356.5 482.55 Q356.5 482.25 357.45 480.8 M350.35 473.9 Q349.55 475.1 348.65 475.1 347.7 475.1 346.75 473.6 346.0 472.4 346.0 472.05 346.0 470.2 348.5 470.55 351.0 470.95 351.0 472.2 L350.35 473.9 M345.95 480.05 L348.05 480.0 Q349.7 480.35 351.0 481.55 352.35 482.8 352.35 484.05 352.35 485.2 351.65 486.35 350.6 488.15 348.35 488.15 L346.85 488.0 345.95 480.05 M348.9 491.6 Q348.9 489.5 350.5 490.05 352.05 490.6 352.05 491.8 352.05 492.25 351.35 492.9 L350.3 493.55 Q349.25 493.55 349.0 492.55 L348.9 491.6 M362.15 502.95 L362.05 503.3 363.0 506.5 363.0 506.8 Q363.8 512.35 361.8 516.75 L361.4 516.75 Q359.35 516.75 359.3 515.0 L359.5 512.65 358.75 510.5 Q358.4 509.6 358.4 508.65 358.4 504.95 359.65 503.5 360.7 502.35 362.15 502.95 M366.85 456.65 L370.85 456.8 Q372.1 456.8 372.7 457.85 L372.95 458.45 Q370.5 462.8 368.55 467.3 366.7 467.05 365.95 464.5 L365.5 461.55 Q365.5 457.2 366.85 456.65 M360.2 491.55 L361.65 491.45 361.15 495.55 362.05 497.7 Q361.3 498.65 360.35 498.65 358.55 498.65 357.75 496.8 L357.3 494.85 Q357.3 492.4 360.2 491.55 M351.0 499.8 Q351.0 496.75 353.3 496.55 355.55 496.4 355.55 499.75 355.55 501.75 352.65 501.75 351.4 501.75 351.1 500.85 L351.0 499.8 M344.5 498.7 L346.55 496.7 Q348.3 497.9 348.3 500.55 348.3 501.25 346.95 502.75 345.45 504.5 344.05 504.5 L343.7 504.5 344.5 503.45 344.5 498.7 M346.65 506.9 Q346.65 507.75 345.8 507.75 345.2 507.75 345.0 507.35 L344.9 506.9 Q344.9 506.0 345.8 506.0 346.65 506.0 346.65 506.9 M354.0 506.05 Q357.5 507.8 357.5 508.75 357.5 509.5 356.3 510.8 354.85 512.4 353.3 512.4 351.9 512.4 351.1 509.9 L350.5 507.35 Q350.5 504.35 354.0 506.05 M347.3 512.75 Q348.55 513.45 348.55 514.55 348.55 515.0 343.1 519.1 341.6 519.1 341.0 517.9 340.65 517.25 340.65 516.45 340.65 512.5 344.6 512.2 346.15 512.1 347.3 512.75 M348.25 518.5 Q348.25 517.6 349.65 517.0 L349.7 517.0 Q349.5 516.2 350.75 516.25 352.6 516.3 352.6 517.5 352.6 518.2 352.0 518.85 351.25 519.6 350.2 519.6 L350.05 519.6 349.95 519.6 348.75 519.25 Q348.25 518.9 348.25 518.5 M336.3 513.85 L340.4 508.65 Q341.3 509.3 341.3 510.5 341.3 511.1 340.1 512.85 338.8 514.75 337.9 514.75 337.0 514.75 336.3 513.85 M334.55 523.85 Q333.75 523.85 333.55 523.0 L333.55 522.15 Q333.55 520.75 335.55 519.85 337.5 518.95 337.5 520.5 337.5 521.1 336.25 522.5 335.0 523.85 334.55 523.85 M351.8 525.75 L351.75 524.65 Q351.75 523.55 352.75 523.4 353.75 523.2 353.75 524.35 L353.5 525.3 352.65 526.0 351.8 525.75 M450.1 517.0 L450.15 517.0 Q451.55 517.6 451.55 518.5 L451.05 519.25 Q450.55 519.6 449.85 519.6 L449.75 519.6 449.6 519.6 Q448.55 519.6 447.8 518.85 447.2 518.2 447.2 517.5 447.2 516.3 449.05 516.25 450.3 516.2 450.1 517.0 M452.5 512.75 Q453.65 512.1 455.2 512.2 459.15 512.5 459.15 516.45 459.15 517.25 458.8 517.9 458.2 519.1 456.7 519.1 451.25 515.0 451.25 514.55 451.25 513.45 452.5 512.75 M454.9 506.9 L454.8 507.35 Q454.6 507.75 454.0 507.75 453.15 507.75 453.15 506.9 453.15 506.0 454.0 506.0 454.9 506.0 454.9 506.9 M445.8 506.05 Q449.3 504.35 449.3 507.35 L448.7 509.9 Q447.9 512.4 446.5 512.4 444.95 512.4 443.5 510.8 442.3 509.5 442.3 508.75 442.3 507.8 445.8 506.05 M446.5 496.55 Q448.8 496.75 448.8 499.8 L448.7 500.85 Q448.4 501.75 447.15 501.75 444.25 501.75 444.25 499.75 444.25 496.4 446.5 496.55 M456.15 504.5 L455.75 504.5 Q454.35 504.5 452.85 502.75 451.5 501.25 451.5 500.55 451.5 497.9 453.25 496.7 L455.3 498.7 455.3 503.45 456.15 504.5 M463.55 513.85 Q462.8 514.75 461.9 514.75 461.0 514.75 459.7 512.85 458.5 511.1 458.5 510.5 458.5 509.3 459.4 508.65 L463.55 513.85 M465.25 523.85 L463.55 522.5 Q462.3 521.1 462.3 520.5 462.3 518.95 464.25 519.85 466.25 520.75 466.25 522.15 L466.25 523.0 Q466.05 523.85 465.25 523.85 M446.05 524.35 Q446.05 523.2 447.05 523.4 448.05 523.55 448.05 524.65 L448.0 525.75 447.15 526.0 446.3 525.3 Q446.05 524.95 446.05 524.35 M437.75 503.3 L437.7 502.95 Q439.1 502.35 440.15 503.5 441.4 504.95 441.4 508.65 L441.05 510.5 440.3 512.65 Q440.15 513.05 440.5 515.0 440.45 516.75 438.4 516.75 L438.05 516.75 Q436.0 512.35 436.8 506.8 L436.8 506.5 437.75 503.3" fill="#000000" fill-rule="evenodd" stroke="none"/>
  </g>
</svg>
