<?xml version="1.0" encoding="UTF-8" standalone="no"?>
<svg xmlns:xlink="http://www.w3.org/1999/xlink" height="249.4px" width="84.2px" xmlns="http://www.w3.org/2000/svg">
  <g transform="matrix(1.0, 0.0, 0.0, 1.0, -315.7, -307.0)">
    <path d="M395.1 343.9 Q385.25 374.4 378.1 407.1 L375.35 420.35 378.8 433.3 Q381.1 443.05 376.9 451.85 369.25 463.55 365.2 476.2 362.15 485.6 361.15 495.55 L362.9 499.85 362.05 503.3 363.0 506.5 363.0 506.8 Q363.9 513.1 361.2 517.85 L359.9 520.1 Q355.8 527.6 354.35 536.3 353.0 545.65 345.85 553.6 L343.5 555.6 Q334.75 557.55 330.65 554.75 323.5 554.9 321.8 552.7 317.4 552.1 315.8 547.95 L315.7 546.4 315.7 546.0 Q315.65 541.1 318.4 536.45 L344.5 503.45 344.5 498.7 347.75 495.55 342.7 452.8 Q341.15 442.45 344.4 433.6 L349.0 420.0 348.25 407.1 348.05 400.9 348.05 400.4 Q347.15 351.8 362.9 315.3 L362.9 307.0 Q381.4 309.65 399.9 309.35 L399.9 343.9 395.1 343.9" fill="#000000" fill-rule="evenodd" stroke="none"/>
  </g>
</svg>
