<?xml version="1.0" encoding="UTF-8" standalone="no"?>
<svg xmlns:xlink="http://www.w3.org/1999/xlink" height="20.75px" width="44.95px" xmlns="http://www.w3.org/2000/svg">
  <g transform="matrix(1.0, 0.0, 0.0, 1.0, -305.25, -540.75)">
    <path d="M309.55 542.3 Q310.9 541.2 312.75 540.75 314.75 541.0 316.15 541.9 317.9 542.95 318.65 545.0 318.95 548.9 316.3 550.55 L314.1 551.4 311.3 551.65 Q308.1 552.4 305.25 555.85 305.2 545.75 309.55 542.3 M321.75 549.95 Q322.25 544.8 326.15 542.7 330.65 542.05 332.95 545.25 334.65 550.15 330.15 552.6 328.45 552.9 327.05 553.85 324.5 555.5 322.8 559.2 321.9 555.85 321.7 553.1 321.55 551.4 321.75 549.95 M347.75 553.2 Q346.15 553.8 344.9 554.85 342.15 557.15 341.25 561.5 L339.6 558.9 Q337.85 555.95 337.25 553.45 L337.2 553.1 Q336.05 547.85 340.0 544.7 345.0 542.9 348.65 545.4 349.75 546.75 350.1 548.0 350.75 550.8 347.75 553.2" fill="#000000" fill-rule="evenodd" stroke="none"/>
  </g>
</svg>
