<?xml version="1.0" encoding="UTF-8" standalone="no"?>
<svg xmlns:xlink="http://www.w3.org/1999/xlink" height="249.6px" width="85.2px" xmlns="http://www.w3.org/2000/svg">
  <g transform="matrix(1.0, 0.0, 0.0, 1.0, -315.2, -306.5)">
    <path d="M380.65 331.4 Q387.6 337.45 392.7 343.9 L395.1 343.9 M318.0 548.55 Q317.65 547.75 318.45 545.45 323.4 541.1 324.9 536.25 M319.3 546.3 L320.85 546.6 M322.65 552.15 Q321.3 550.85 322.15 547.45 327.45 542.35 329.8 536.35 M327.05 553.45 Q324.8 552.2 326.4 548.75 331.65 543.2 334.1 537.1 M317.5 544.75 L316.65 544.05 M350.95 424.2 L353.2 431.7 362.7 433.1 366.4 423.35 M339.9 535.1 L339.9 537.2 Q340.75 536.4 341.75 536.1 M334.1 550.2 L335.1 550.65 342.2 550.65 343.3 550.2 M333.05 554.1 Q331.4 552.15 332.05 549.65 L334.55 546.5 339.9 537.2 M327.6 549.55 L330.75 549.55 M337.25 546.3 Q341.05 544.95 344.85 546.3 M323.35 548.2 L324.95 548.2" fill="none" stroke="#000000" stroke-linecap="round" stroke-linejoin="round" stroke-opacity="0.5019608" stroke-width="1.0"/>
    <path d="M395.1 343.9 L399.9 343.9 M362.9 307.0 L362.9 315.3 Q347.15 351.8 348.05 400.4 L348.05 400.9 348.25 407.1 349.0 420.0 344.4 433.6 Q341.15 442.45 342.7 452.8 L347.75 495.55 344.5 498.7 344.5 503.45 318.4 536.45 Q316.15 540.25 315.75 544.2 L315.7 545.3 Q315.7 548.2 318.0 548.55 319.85 552.6 322.65 552.15 324.15 554.15 327.05 553.45 329.65 555.2 333.05 554.1 333.75 554.9 334.85 555.6 L343.5 555.6 345.85 553.6 Q353.0 545.65 354.35 536.3 356.0 526.25 361.2 517.85 363.6 513.6 363.15 508.15 L363.0 506.8 363.0 506.5 362.05 503.3 362.9 499.85 361.15 495.55 362.05 489.2 Q365.4 469.45 376.9 451.85 381.1 443.05 378.8 433.3 L375.35 420.35 378.1 407.1 Q385.25 374.4 395.1 343.9" fill="none" stroke="#000000" stroke-linecap="round" stroke-linejoin="round" stroke-width="1.0"/>
  </g>
</svg>
