<?xml version="1.0" encoding="UTF-8" standalone="no"?>
<svg xmlns:xlink="http://www.w3.org/1999/xlink" height="16.5px" width="66.2px" xmlns="http://www.w3.org/2000/svg">
  <g transform="matrix(1.0, 0.0, 0.0, 1.0, -366.75, -185.5)">
    <path d="M399.9 195.55 Q403.1 195.3 404.6 196.8 406.5 198.7 411.05 198.85 414.6 198.5 418.0 196.25 420.6 194.5 423.1 191.65 L423.3 191.4 Q427.55 185.3 432.95 185.5 427.65 187.45 424.35 192.55 421.95 196.45 418.0 198.9 415.7 200.3 412.9 201.2 404.85 203.8 399.85 197.75 394.9 203.75 386.8 201.2 379.1 198.7 375.35 192.55 372.05 187.45 366.75 185.5 372.15 185.3 376.4 191.4 L376.6 191.65 Q382.35 198.2 388.65 198.85 393.2 198.7 395.1 196.8 396.6 195.35 399.8 195.55 L399.9 195.55" fill="#000000" fill-rule="evenodd" stroke="none"/>
  </g>
</svg>
