<?xml version="1.0" encoding="UTF-8" standalone="no"?>
<svg xmlns:xlink="http://www.w3.org/1999/xlink" height="29.3px" width="37.1px" xmlns="http://www.w3.org/2000/svg">
  <g transform="matrix(1.0, 0.0, 0.0, 1.0, -381.25, -185.35)">
    <path d="M408.55 204.1 L407.95 200.6 Q404.25 198.9 399.85 199.05 395.45 198.85 391.75 200.55 L391.15 204.1 392.8 205.45 Q395.55 208.15 397.4 205.7 L402.3 205.7 Q404.15 208.15 406.9 205.45 L408.55 204.1 M382.75 185.35 Q382.35 191.05 387.45 195.2 387.65 199.15 389.5 202.0 L389.8 199.8 Q394.2 196.65 399.85 197.05 405.5 196.7 409.9 199.85 L410.25 202.0 Q412.05 199.15 412.25 195.2 417.35 191.05 416.95 185.35 L418.35 185.35 418.3 186.0 418.0 188.3 417.45 191.05 416.95 192.85 415.65 195.9 Q413.35 201.1 410.8 205.5 L409.0 208.4 404.35 214.65 395.25 214.65 Q392.85 211.8 390.6 208.4 L388.9 205.65 Q386.3 201.2 383.95 195.9 L382.65 192.85 382.15 191.05 Q381.55 188.55 381.3 186.0 L381.25 185.35 382.75 185.35" fill="#000000" fill-rule="evenodd" stroke="none"/>
  </g>
</svg>
