<?xml version="1.0" encoding="UTF-8" standalone="no"?>
<svg xmlns:xlink="http://www.w3.org/1999/xlink" height="42.6px" width="98.9px" xmlns="http://www.w3.org/2000/svg">
  <g transform="matrix(1.0, 0.0, 0.0, 1.0, -350.45, -314.8)">
    <path d="M399.9 345.1 Q389.4 341.45 379.25 336.95 M420.6 336.95 Q410.1 333.95 399.9 330.4" fill="none" stroke="#000000" stroke-linecap="round" stroke-linejoin="round" stroke-opacity="0.5019608" stroke-width="1.0"/>
    <path d="M379.25 336.95 Q366.65 340.55 353.65 343.4 352.1 350.0 350.95 356.9 376.35 353.25 399.9 345.1 423.5 353.25 448.85 356.9 447.7 350.0 446.15 343.4 433.15 340.55 420.6 336.95 M399.9 330.4 Q380.9 323.75 362.9 315.3 360.5 320.8 358.55 326.6 368.7 332.25 379.25 336.95 M399.9 330.4 Q418.9 323.75 436.9 315.3 439.3 320.8 441.25 326.6 431.1 332.25 420.6 336.95" fill="none" stroke="#000000" stroke-linecap="round" stroke-linejoin="round" stroke-width="1.0"/>
  </g>
</svg>
