<?xml version="1.0" encoding="UTF-8" standalone="no"?>
<svg xmlns:xlink="http://www.w3.org/1999/xlink" height="22.0px" width="79.35px" xmlns="http://www.w3.org/2000/svg">
  <g transform="matrix(1.0, 0.0, 0.0, 1.0, -361.2, -302.35)">
    <path d="M399.95 308.5 L400.7 308.4 400.25 308.45 399.95 308.5 M395.2 311.9 L397.1 311.75 397.2 311.55 397.25 311.45 398.05 310.75 Q398.9 310.2 400.1 310.05 L400.4 309.9 400.9 309.85 403.4 310.15 Q403.95 310.35 404.35 310.65 L404.4 310.75 404.55 310.9 406.4 310.7 M400.1 316.65 L400.45 316.65 400.9 316.7 M388.45 312.65 L388.2 312.4 Q387.85 312.05 387.3 311.8 386.0 311.25 384.3 311.4 382.55 311.55 381.4 312.25 L380.6 312.95 381.15 312.95 Q382.05 313.65 381.25 314.45 L384.35 314.4 Q385.8 314.6 386.95 315.15 L387.55 314.85 388.2 314.35 388.4 314.15 387.65 314.2 Q386.7 313.55 387.55 312.75 L388.45 312.65 390.1 312.45 M381.25 314.45 L381.15 314.45 380.6 314.65 380.1 314.8 Q379.55 315.05 379.15 315.35 L378.35 316.15 380.25 316.55 380.5 316.4 381.2 316.05 384.2 315.9 Q385.65 316.1 386.7 316.75 L387.0 316.95 387.8 317.7 387.95 318.0 389.6 318.25 M389.25 319.7 L387.55 319.45 387.3 319.65 386.55 319.95 383.55 320.15 Q381.85 319.9 380.7 319.1 380.05 318.6 379.85 318.1 L379.8 318.0 378.05 317.65 M387.55 319.45 L386.85 319.35 Q386.05 318.5 387.05 317.9 L387.95 318.0 M388.4 314.15 L390.1 313.95 M388.25 316.05 L386.95 315.15 M397.1 311.75 L397.8 311.65 Q398.75 312.3 397.95 313.15 L397.3 313.2 398.3 313.85 400.55 314.25 400.65 314.25 400.95 314.2 401.3 314.15 Q402.75 313.9 403.8 313.25 L404.65 312.4 403.95 312.45 Q403.0 311.8 403.8 310.95 L404.55 310.9 M400.9 309.85 L400.1 310.05 M400.65 314.25 L401.3 314.15 M401.2 315.55 L400.7 315.65 401.35 315.55 401.2 315.55 M395.45 313.4 L397.3 313.2 M397.7 318.4 Q397.1 318.6 396.75 318.9 L396.7 318.95 396.55 319.1 397.3 319.2 Q398.05 320.05 397.1 320.7 L396.45 320.6 397.25 321.5 Q398.1 322.1 399.4 322.4 L399.7 322.45 400.0 322.45 400.1 322.45 402.75 322.15 403.75 321.55 403.55 321.55 Q402.6 320.8 403.5 320.05 L403.95 320.05 403.1 319.05 Q402.1 318.4 400.7 318.2 L400.2 318.15 399.9 318.15 397.7 318.4 M396.45 320.6 L394.6 320.4 M394.7 318.9 L396.55 319.1 M370.25 313.1 Q369.3 312.45 368.0 312.2 L365.0 312.1 364.6 312.2 Q364.2 312.35 363.95 312.55 363.55 312.85 363.45 313.35 L363.5 314.05 Q363.65 314.55 364.3 315.1 365.3 316.0 367.0 316.4 L369.85 316.45 370.05 316.45 370.6 316.25 370.8 316.15 370.6 316.15 370.4 316.1 Q370.1 315.75 370.1 315.45 370.05 314.95 370.7 314.65 370.15 314.05 370.75 313.45 L370.25 313.1 M370.75 313.45 L371.45 314.3 371.6 314.75 371.6 314.85 373.2 315.15 373.2 314.7 372.55 313.25 M370.7 314.65 L371.3 314.75 371.6 314.75 M371.6 314.85 L371.3 314.75 M370.8 316.15 L372.65 316.55 M381.15 314.45 L380.5 314.5 380.55 314.6 380.6 314.65 M379.15 315.35 L378.8 314.75 378.7 314.55 373.2 314.7 M379.8 318.0 L380.5 318.15 Q381.5 317.55 380.8 316.65 L380.25 316.55 M380.5 316.4 Q382.25 317.3 384.7 317.1 L386.7 316.75 M378.7 314.55 L380.5 314.5 M380.6 312.95 L378.65 313.05 M373.2 315.15 L378.35 316.15 M399.7 322.45 L399.75 322.45 400.0 322.45 M428.0 307.4 L429.6 307.15 429.6 307.1 429.75 306.6 430.5 305.8 430.8 305.55 431.3 305.25 Q432.1 304.8 433.25 304.55 434.9 304.2 436.25 304.55 L437.3 305.05 437.75 305.85 437.7 306.55 436.9 307.6 Q435.8 308.45 434.15 308.8 L431.65 308.9 431.15 308.8 431.1 308.8 430.35 308.5 428.5 308.85 M430.35 308.5 L430.8 308.45 431.0 307.45 430.5 307.0 429.6 307.15 M428.9 319.45 L430.75 319.25 431.2 319.2 431.5 318.75 431.5 318.25 431.25 317.95 431.0 317.75 430.1 317.85 428.5 318.0 M430.75 319.25 L431.5 319.6 432.05 319.75 434.5 319.8 Q436.2 319.6 437.35 318.8 L438.25 317.85 438.35 317.15 437.95 316.3 Q437.55 315.95 436.95 315.75 L433.95 315.55 Q432.8 315.7 431.95 316.1 L431.45 316.35 431.1 316.55 430.3 317.35 430.1 317.8 430.1 317.85 M411.5 310.15 L413.2 310.0 413.35 309.7 414.1 308.95 Q415.25 308.15 417.0 307.9 L419.95 308.15 420.9 308.65 422.8 308.35 M413.2 310.0 L414.05 309.9 Q415.0 310.5 414.25 311.35 L413.55 311.45 413.8 311.6 414.5 311.95 417.5 312.2 Q419.2 312.0 420.35 311.25 L421.25 310.25 421.35 310.15 420.6 310.25 Q419.6 309.65 420.35 308.75 L420.9 308.65 M411.8 311.6 L413.55 311.45 M413.95 321.5 L414.7 321.85 416.65 322.3 417.65 322.3 Q419.35 322.15 420.55 321.5 421.25 321.05 421.5 320.2 L420.9 320.25 Q419.95 319.6 420.75 318.8 L421.0 318.75 420.35 318.4 Q419.1 317.85 417.4 318.0 L415.95 318.2 Q415.1 318.4 414.45 318.85 413.9 319.15 413.65 319.55 L413.45 319.9 413.8 319.9 Q414.7 320.6 413.85 321.35 L413.8 321.35 413.95 321.5 M411.8 319.9 L413.45 319.9 M413.8 321.35 L412.2 321.4 M423.1 309.8 L421.35 310.15 M423.1 318.55 L421.0 318.75 M421.5 320.2 L423.3 320.0 M403.75 321.55 L405.6 321.5 M406.45 312.2 L404.65 312.4 M405.8 320.05 L403.95 320.05" fill="none" stroke="#000000" stroke-linecap="round" stroke-linejoin="round" stroke-opacity="0.49803922" stroke-width="1.0"/>
    <path d="M399.95 308.5 Q398.05 308.8 396.7 309.8 395.6 310.6 395.3 311.55 L395.25 311.7 395.2 311.9 M406.4 310.7 L406.3 310.5 406.25 310.35 Q405.7 309.5 404.5 308.95 402.85 308.2 400.7 308.4 M400.9 316.7 Q403.0 317.0 404.45 318.1 405.5 318.9 405.8 319.85 L405.8 320.05 411.25 319.95 411.35 319.9 411.8 319.9 411.85 319.65 Q412.1 318.65 413.25 317.85 414.9 316.65 417.35 316.5 L420.55 316.85 421.4 317.2 421.5 317.25 Q422.6 317.8 423.1 318.55 L428.5 318.0 428.5 317.55 Q428.7 316.55 429.85 315.65 L429.9 315.65 430.85 314.95 431.4 314.7 431.9 314.55 433.8 314.05 Q435.25 313.85 436.5 314.05 L437.7 314.4 438.05 314.55 Q439.35 315.1 439.8 316.05 L440.05 316.85 440.05 317.6 Q439.85 318.65 438.75 319.6 437.15 320.85 434.75 321.2 L432.05 321.15 431.6 321.05 430.55 320.7 Q429.4 320.2 428.9 319.45 L423.3 320.0 Q423.05 321.45 421.9 322.35 420.25 323.5 417.8 323.65 L416.9 323.7 Q415.05 323.65 413.65 322.95 L413.5 322.85 Q412.65 322.35 412.2 321.4 L405.6 321.5 Q405.1 322.6 403.9 323.2 402.15 324.0 399.8 323.8 L399.65 323.8 399.2 323.75 Q397.2 323.3 395.85 322.2 394.8 321.35 394.6 320.4 L389.25 319.7 389.15 319.85 387.5 321.1 Q385.65 321.85 383.3 321.5 380.85 321.15 379.35 319.85 378.2 318.9 378.05 317.85 L378.05 317.65 372.65 316.55 370.9 317.65 369.7 317.9 366.65 317.7 Q364.25 317.1 362.85 315.75 L362.85 315.7 Q362.15 315.1 361.9 314.4 L361.7 313.65 361.8 312.85 362.1 312.1 Q362.65 311.2 364.05 310.75 365.9 310.15 368.3 310.7 L370.0 311.3 370.45 311.5 Q371.35 311.95 372.05 312.65 L372.55 313.25 378.65 313.05 Q378.95 312.1 380.05 311.3 381.65 310.1 384.1 309.95 386.5 309.7 388.3 310.65 389.55 311.25 390.0 312.2 L390.1 312.45 395.2 311.9 M400.7 315.65 Q398.65 315.65 397.1 314.9 395.9 314.25 395.45 313.4 L390.1 313.95 390.05 314.15 388.7 315.75 388.25 316.05 388.3 316.05 Q389.35 316.95 389.6 318.0 L389.6 318.25 394.7 318.9 394.8 318.65 394.9 318.55 Q395.4 317.7 396.65 317.15 398.15 316.5 400.1 316.65 M400.9 316.7 L400.1 316.65 M406.4 310.7 L411.5 310.15 411.55 309.9 Q411.75 308.9 412.85 308.0 414.4 306.75 416.85 306.45 419.25 306.1 421.05 306.95 422.3 307.5 422.8 308.35 L428.0 307.4 428.0 307.0 Q428.1 305.95 429.15 305.0 429.8 304.35 430.65 303.9 L431.1 303.7 433.0 303.1 437.25 303.25 Q438.6 303.7 439.15 304.65 L439.45 305.4 439.5 306.2 Q439.35 307.2 438.3 308.25 436.85 309.6 434.5 310.1 L431.8 310.3 431.3 310.25 430.25 309.95 Q429.05 309.55 428.5 308.85 L423.1 309.8 423.05 310.05 Q422.85 311.05 421.75 312.0 420.15 313.25 417.75 313.55 415.35 313.85 413.55 313.05 412.4 312.55 411.9 311.8 L411.8 311.6 406.45 312.2 Q406.2 313.1 405.15 314.0 403.65 315.2 401.35 315.55" fill="none" stroke="#000000" stroke-linecap="round" stroke-linejoin="round" stroke-width="1.0"/>
  </g>
</svg>
