<?xml version="1.0" encoding="UTF-8" standalone="no"?>
<svg xmlns:xlink="http://www.w3.org/1999/xlink" height="78.5px" width="111.6px" xmlns="http://www.w3.org/2000/svg">
  <g transform="matrix(1.0, 0.0, 0.0, 1.0, -344.1, -304.05)">
    <path d="M376.05 344.5 Q360.2 338.7 347.8 329.6 350.75 316.85 356.15 304.05 359.1 307.35 362.9 310.15 367.75 313.8 373.95 316.65 379.75 319.35 386.75 321.4 L385.95 324.8 383.7 332.25 382.5 335.5 Q380.85 339.85 378.85 344.0 L378.2 345.3 376.05 344.5 M362.65 367.7 Q355.2 375.75 345.8 382.55 343.8 370.15 344.15 357.7 352.1 363.65 362.65 367.7 M436.9 310.15 Q440.7 307.35 443.65 304.05 449.05 316.85 452.0 329.6 439.6 338.7 423.8 344.55 L421.6 345.3 420.95 344.0 Q418.95 339.85 417.3 335.5 L416.15 332.25 413.9 324.8 413.05 321.4 Q420.05 319.35 425.85 316.65 432.05 313.8 436.9 310.15 M454.0 382.55 Q444.6 375.75 437.15 367.7 447.7 363.65 455.65 357.7 456.0 370.15 454.0 382.55" fill="#000000" fill-rule="evenodd" stroke="none"/>
  </g>
</svg>
