<?xml version="1.0" encoding="UTF-8" standalone="no"?>
<svg xmlns:xlink="http://www.w3.org/1999/xlink" height="40.9px" width="84.3px" xmlns="http://www.w3.org/2000/svg">
  <g transform="matrix(1.0, 0.0, 0.0, 1.0, -357.75, -281.2)">
    <path d="M420.7 286.5 Q427.05 291.6 436.9 290.65 438.2 291.5 436.9 292.95 426.8 294.0 418.85 288.95 410.95 283.85 399.9 284.15 388.85 283.85 380.95 288.95 373.0 294.0 362.9 292.95 361.6 291.5 362.9 290.65 372.75 291.6 379.1 286.5 385.45 281.35 399.9 281.2 414.35 281.35 420.7 286.5 M399.9 287.5 Q406.05 287.5 410.45 291.6 414.8 295.7 414.8 301.5 414.8 307.3 410.45 311.4 406.05 315.5 399.9 315.5 393.75 315.5 389.35 311.4 385.0 307.3 385.0 301.5 385.0 295.7 389.35 291.6 393.75 287.5 399.9 287.5 M378.95 304.45 Q378.95 308.4 376.8 311.2 374.65 314.0 371.65 314.0 368.65 314.0 366.5 311.2 L365.95 310.45 Q364.35 307.85 364.35 304.45 364.35 300.8 366.2 298.15 L366.5 297.7 Q368.65 294.9 371.65 294.9 374.65 294.9 376.8 297.7 378.95 300.5 378.95 304.45 M362.9 315.3 Q381.55 318.05 399.9 318.45 418.25 318.05 436.9 315.3 438.45 316.3 438.1 318.2 419.55 322.1 399.9 322.1 380.25 322.1 361.7 318.2 361.35 316.3 362.9 315.3 M362.9 311.35 Q360.85 311.2 359.4 309.25 357.75 307.15 357.75 304.2 357.75 301.25 359.4 299.15 360.85 297.2 362.9 297.1 L362.9 311.35 M440.4 309.25 Q438.95 311.2 436.9 311.35 L436.9 297.1 Q438.95 297.2 440.4 299.15 442.05 301.25 442.05 304.2 442.05 307.15 440.4 309.25 M433.3 297.7 L433.6 298.15 Q435.45 300.8 435.45 304.45 435.45 307.85 433.85 310.45 L433.3 311.2 Q431.15 314.0 428.15 314.0 425.15 314.0 423.0 311.2 420.85 308.4 420.85 304.45 420.85 300.5 423.0 297.7 425.15 294.9 428.15 294.9 431.15 294.9 433.3 297.7" fill="#000000" fill-rule="evenodd" stroke="none"/>
  </g>
</svg>
