<?xml version="1.0" encoding="UTF-8" standalone="no"?>
<svg xmlns:xlink="http://www.w3.org/1999/xlink" height="25.8px" width="82.1px" xmlns="http://www.w3.org/2000/svg">
  <g transform="matrix(1.0, 0.0, 0.0, 1.0, -358.45, -295.35)">
    <path d="M430.8 296.85 Q431.55 297.2 431.55 297.75 431.55 298.25 430.95 298.6 L430.95 303.9 430.8 304.0 Q428.25 305.3 425.75 304.5 L425.55 304.45 425.55 298.55 Q424.95 298.2 424.95 297.75 424.95 297.15 425.95 296.75 L428.25 296.35 430.6 296.75 430.8 296.85 M434.95 295.75 L437.25 295.35 439.6 295.75 Q440.55 296.15 440.55 296.75 440.55 297.25 439.95 297.6 L439.95 302.85 Q438.4 304.3 436.55 304.15 435.65 304.05 434.65 303.55 L434.55 303.5 434.55 297.55 Q433.95 297.2 433.95 296.75 433.95 296.15 434.95 295.75 M364.05 295.75 Q365.05 296.15 365.05 296.75 365.05 297.2 364.45 297.55 L364.45 303.5 Q361.45 305.05 359.05 302.85 L359.05 297.6 Q358.45 297.25 358.45 296.75 358.45 296.15 359.4 295.75 L361.75 295.35 364.05 295.75 M373.05 296.75 Q374.05 297.15 374.05 297.75 374.05 298.2 373.45 298.55 L373.45 304.45 Q370.75 305.4 368.05 303.9 L368.05 298.6 367.95 298.55 Q367.45 298.2 367.45 297.75 367.45 297.3 367.95 297.0 L368.4 296.75 370.75 296.35 373.05 296.75 M391.75 298.95 Q391.75 299.4 391.15 299.75 L391.15 305.5 385.75 305.3 385.75 299.8 Q385.15 299.45 385.15 298.95 385.15 298.35 386.1 297.95 L388.45 297.55 390.75 297.95 Q391.75 298.35 391.75 298.95 M387.45 320.7 Q386.6 320.05 385.75 318.5 L385.75 312.95 Q388.45 314.0 391.15 313.45 L391.15 318.5 Q390.45 320.05 389.7 320.7 388.6 321.6 387.45 320.7 M382.95 298.55 Q382.95 299.0 382.35 299.35 L382.35 305.1 Q379.65 306.45 376.95 304.75 L376.95 299.4 Q376.35 299.05 376.35 298.55 376.35 297.95 377.3 297.55 L379.65 297.15 381.95 297.55 Q382.95 297.95 382.95 298.55 M373.45 310.95 L373.45 317.3 Q371.0 322.6 368.05 317.3 L368.05 309.65 Q370.65 312.0 373.45 310.95 M376.95 318.1 L376.95 311.65 Q379.2 313.65 382.35 312.55 L382.35 318.1 Q381.3 320.4 380.15 320.7 L379.4 320.7 Q378.25 320.4 376.95 318.1 M364.45 308.65 L364.45 316.3 Q362.0 321.6 359.05 316.3 L359.05 307.35 Q361.15 310.3 364.45 308.65 M437.4 309.2 Q438.85 308.9 439.95 307.35 L439.95 316.3 Q437.0 321.6 434.55 316.3 L434.55 308.65 434.7 308.75 Q436.15 309.4 437.4 309.2 M430.95 309.65 L430.95 317.3 430.8 317.55 Q427.9 322.45 425.55 317.3 L425.55 310.95 Q428.25 312.0 430.8 309.8 L430.9 309.75 430.95 309.65 M422.65 298.55 Q422.65 299.05 422.05 299.4 L422.05 304.75 420.6 305.15 417.95 305.3 416.7 305.15 416.65 305.1 416.65 299.35 Q416.05 299.0 416.05 298.55 416.05 297.95 417.05 297.55 L419.35 297.15 421.7 297.55 Q422.65 297.95 422.65 298.55 M413.25 299.8 L413.25 305.3 413.2 305.35 407.9 305.55 407.85 305.5 407.85 299.75 Q407.25 299.4 407.25 298.95 407.25 298.35 408.25 297.95 L410.55 297.55 412.9 297.95 Q413.85 298.35 413.85 298.95 413.85 299.45 413.25 299.8 M407.85 318.5 L407.85 313.45 Q410.35 314.0 413.25 312.95 L413.25 318.5 Q412.4 320.05 411.55 320.7 410.4 321.6 409.35 320.7 408.55 320.05 407.85 318.5 M416.65 318.1 L416.65 312.55 Q419.8 313.65 422.05 311.65 L422.05 318.1 Q420.75 320.4 419.6 320.7 L418.85 320.7 Q417.7 320.4 416.65 318.1" fill="#000000" fill-rule="evenodd" stroke="none"/>
  </g>
</svg>
