<?xml version="1.0" encoding="UTF-8" standalone="no"?>
<svg xmlns:xlink="http://www.w3.org/1999/xlink" height="93.35px" width="84.65px" xmlns="http://www.w3.org/2000/svg">
  <g transform="matrix(1.0, 0.0, 0.0, 1.0, -357.55, -215.95)">
    <path d="M432.8 224.25 L431.8 223.05 Q429.7 220.65 427.1 218.55 L424.45 216.45 421.75 218.55 Q419.15 220.65 417.05 223.05 L416.05 224.25 M432.8 224.25 L433.45 225.05 Q433.9 224.95 434.25 225.3 434.55 225.7 434.25 226.15 L434.75 226.9 Q441.1 236.5 441.2 250.35 L441.2 251.4 Q441.6 251.55 441.7 252.05 L441.2 252.75 440.55 260.45 438.15 278.4 435.75 296.35 Q435.3 297.15 433.1 297.6 L432.9 299.1 432.6 301.3 432.25 303.8 432.0 305.8 431.8 307.4 Q428.7 308.85 424.45 308.8 420.15 308.85 417.1 307.4 L416.85 305.8 416.6 303.8 416.25 301.3 415.95 299.1 415.75 297.6 Q413.55 297.15 413.1 296.35 L410.7 278.4 408.3 260.45 Q407.8 256.45 407.7 252.75 407.2 252.55 407.2 252.05 407.25 251.55 407.65 251.4 L407.65 250.35 Q407.8 236.5 414.1 226.9 L414.6 226.15 Q414.3 225.7 414.6 225.3 414.95 224.95 415.4 225.05 L416.05 224.25 M375.35 216.45 L378.0 218.55 Q380.65 220.65 382.75 223.05 L383.7 224.25 384.4 225.05 Q384.85 224.95 385.2 225.3 385.45 225.7 385.2 226.15 L385.65 226.9 Q392.0 236.5 392.1 250.35 L392.1 251.4 Q392.55 251.55 392.6 252.05 392.6 252.55 392.1 252.75 L391.45 260.45 389.05 278.4 386.7 296.35 Q386.2 297.15 384.0 297.6 L383.8 299.1 383.5 301.3 383.2 303.8 382.9 305.8 382.7 307.4 Q379.6 308.85 375.35 308.8 371.1 308.85 368.0 307.4 L367.8 305.8 367.5 303.8 367.2 301.3 366.9 299.1 366.7 297.6 Q364.45 297.15 364.0 296.35 L361.6 278.4 359.25 260.45 Q358.7 256.45 358.6 252.75 358.1 252.55 358.05 252.05 358.15 251.55 358.6 251.4 L358.6 250.35 Q358.65 236.5 365.05 226.9 L365.5 226.15 Q365.25 225.7 365.5 225.3 365.85 224.95 366.3 225.05 L367.0 224.25 367.95 223.05 Q370.05 220.65 372.7 218.55 L375.35 216.45" fill="none" stroke="#000000" stroke-linecap="round" stroke-linejoin="round" stroke-width="1.0"/>
    <path d="M416.05 224.25 Q416.45 226.0 424.45 226.2 432.4 226.0 432.8 224.25 M420.3 228.0 Q420.1 228.2 419.8 228.2 L419.3 228.0 419.1 227.5 419.3 227.0 419.8 226.8 420.3 227.0 420.5 227.5 420.3 228.0 M422.4 227.3 Q422.6 227.1 422.85 227.1 L423.4 227.3 423.6 227.8 423.4 228.3 422.85 228.5 Q422.6 228.5 422.4 228.3 L422.2 227.8 422.4 227.3 M415.4 225.05 L415.3 225.7 414.6 226.15 M416.7 227.5 L416.35 227.2 416.3 226.65 Q416.4 226.35 416.65 226.2 L417.1 226.15 417.45 226.45 417.5 226.95 417.2 227.4 416.7 227.5 M414.1 226.9 Q414.45 229.2 424.45 229.45 434.4 229.2 434.75 226.9 M434.25 226.15 Q433.85 226.15 433.6 225.7 433.35 225.25 433.45 225.05 M431.75 226.15 Q431.5 226.2 431.4 226.45 431.3 226.7 431.35 226.95 L431.65 227.4 432.15 227.5 432.5 227.2 432.55 226.65 432.25 226.2 431.75 226.15 M426.0 227.1 Q425.7 227.1 425.5 227.3 L425.3 227.8 425.5 228.3 Q425.7 228.5 426.0 228.5 L426.5 228.3 426.7 227.8 426.5 227.3 426.0 227.1 M429.55 227.0 L429.1 226.8 428.55 227.0 428.35 227.5 428.55 228.0 429.1 228.2 Q429.35 228.2 429.55 228.0 L429.75 227.5 429.55 227.0 M441.2 251.4 Q440.95 251.45 440.9 251.95 440.85 252.5 441.15 252.75 L441.2 252.75 M438.45 253.45 L438.6 253.9 Q438.75 254.1 439.0 254.1 L439.45 253.9 439.6 253.4 439.45 252.9 439.0 252.7 Q438.75 252.7 438.6 252.9 L438.45 253.45 M436.2 254.3 L436.05 253.8 435.65 253.6 435.25 253.8 435.05 254.35 435.2 254.85 435.65 255.0 Q435.85 255.0 436.05 254.8 L436.2 254.3 M429.4 255.55 L429.6 255.0 429.4 254.55 428.9 254.35 428.4 254.55 428.2 255.0 428.4 255.55 428.9 255.75 Q429.15 255.75 429.4 255.55 M425.85 254.4 L425.4 254.6 425.2 255.1 425.4 255.6 425.85 255.8 426.4 255.6 426.6 255.1 426.4 254.6 425.85 254.4 M425.5 257.65 L425.3 258.15 425.5 258.6 426.0 258.85 426.5 258.6 426.7 258.15 426.5 257.65 Q426.3 257.4 426.0 257.4 425.7 257.4 425.5 257.65 M431.65 255.3 Q431.85 255.55 432.15 255.55 L432.6 255.3 432.85 254.8 432.6 254.35 432.15 254.1 Q431.85 254.1 431.65 254.35 L431.45 254.8 431.65 255.3 M425.5 261.0 L425.3 261.5 425.5 262.0 Q425.7 262.2 426.0 262.2 L426.5 262.0 426.7 261.5 426.5 261.0 426.0 260.8 Q425.7 260.8 425.5 261.0 M425.3 265.1 L425.5 265.6 Q425.7 265.8 426.0 265.8 L426.5 265.6 426.7 265.1 426.5 264.6 426.0 264.4 Q425.7 264.4 425.5 264.6 L425.3 265.1 M425.3 268.7 L425.5 269.2 Q425.7 269.4 426.0 269.4 L426.5 269.2 426.7 268.7 426.5 268.2 426.0 268.0 Q425.7 268.0 425.5 268.2 L425.3 268.7 M425.5 271.9 L425.3 272.4 425.5 272.9 Q425.7 273.1 426.0 273.1 L426.5 272.9 426.7 272.4 426.5 271.9 426.0 271.7 Q425.7 271.7 425.5 271.9 M419.5 254.55 Q419.7 254.35 420.0 254.35 L420.45 254.55 420.7 255.0 420.45 255.55 420.0 255.75 Q419.7 255.75 419.5 255.55 L419.25 255.0 419.5 254.55 M416.05 254.8 L416.25 254.35 Q416.45 254.1 416.7 254.1 L417.25 254.35 417.45 254.8 417.25 255.3 416.7 255.55 416.25 255.3 416.05 254.8 M423.5 255.6 L423.0 255.8 Q422.7 255.8 422.5 255.6 L422.3 255.1 422.5 254.6 Q422.7 254.4 423.0 254.4 L423.5 254.6 423.7 255.1 423.5 255.6 M422.4 257.65 L422.85 257.4 Q423.15 257.4 423.4 257.65 L423.6 258.15 423.4 258.6 422.85 258.85 422.4 258.6 422.2 258.15 422.4 257.65 M410.45 253.45 L410.3 253.9 409.85 254.1 Q409.65 254.1 409.45 253.9 409.3 253.65 409.3 253.4 409.25 253.1 409.45 252.9 L409.85 252.7 410.25 252.9 410.45 253.45 M407.65 251.4 L407.7 251.4 407.95 251.95 Q408.05 252.5 407.7 252.75 M413.65 254.85 L413.25 255.0 412.8 254.8 412.65 254.3 412.8 253.8 413.25 253.6 413.65 253.8 413.8 254.35 413.65 254.85 M423.6 261.5 L423.4 262.0 422.85 262.2 Q422.6 262.2 422.4 262.0 L422.2 261.5 422.4 261.0 Q422.6 260.8 422.85 260.8 L423.4 261.0 423.6 261.5 M422.2 265.1 L422.4 264.6 Q422.6 264.4 422.85 264.4 L423.4 264.6 423.6 265.1 423.4 265.6 422.85 265.8 Q422.6 265.8 422.4 265.6 L422.2 265.1 M423.35 268.2 L423.55 268.7 423.35 269.2 422.85 269.4 Q422.55 269.4 422.35 269.2 L422.15 268.7 422.35 268.2 422.85 268.0 423.35 268.2 M423.35 271.9 L423.55 272.4 423.35 272.9 422.85 273.1 Q422.55 273.1 422.35 272.9 L422.15 272.4 422.35 271.9 422.85 271.7 423.35 271.9 M407.65 250.35 Q408.7 253.3 424.45 253.55 440.2 253.3 441.2 250.35 M422.05 275.95 L422.25 275.45 422.75 275.25 423.25 275.45 423.45 275.95 423.25 276.45 422.75 276.65 422.25 276.45 422.05 275.95 M420.0 282.55 L420.25 289.2 Q419.45 290.0 418.7 289.1 L418.25 282.5 420.0 282.55 M422.75 280.0 L422.25 279.8 422.05 279.3 422.25 278.8 422.75 278.6 423.25 278.8 423.45 279.3 423.25 279.8 422.75 280.0 M423.35 282.6 L423.45 289.25 421.9 289.2 421.65 282.6 Q422.4 281.85 423.35 282.6 M413.35 281.85 L414.25 288.45 414.2 288.45 413.65 288.6 Q413.1 288.6 412.65 287.9 L411.75 281.25 Q412.0 280.9 412.25 280.9 412.75 280.8 413.35 281.85 M412.9 289.75 L413.5 289.45 Q413.95 289.4 414.4 290.1 L415.1 295.8 414.45 296.0 413.6 295.3 412.85 289.75 412.9 289.75 M418.75 290.7 L419.15 296.4 Q419.7 297.35 420.5 296.5 L420.3 290.8 Q419.5 289.9 418.8 290.7 L418.75 290.7 M415.75 290.35 Q416.4 289.55 417.2 290.55 L417.7 296.25 Q417.0 297.1 416.25 296.05 L415.75 290.4 415.75 290.35 M415.65 288.75 L415.0 282.15 Q415.6 281.2 416.55 282.35 L417.1 288.95 417.1 289.0 Q416.4 289.6 415.65 288.75 M423.55 296.65 L422.2 296.6 421.95 290.85 Q422.7 289.9 423.45 290.85 L423.55 296.65 M438.15 278.4 Q437.7 280.95 424.45 280.95 411.15 280.95 410.7 278.4 M436.5 280.9 Q436.05 280.95 435.5 281.85 L434.65 288.45 434.65 288.5 435.25 288.65 435.3 288.65 436.2 287.9 437.1 281.25 Q436.85 280.9 436.6 280.9 L436.5 280.9 M426.85 275.95 L426.6 275.45 426.1 275.25 Q425.85 275.25 425.65 275.45 L425.4 275.95 425.65 276.45 Q425.85 276.65 426.1 276.65 L426.6 276.45 426.85 275.95 M426.6 279.8 L426.85 279.3 426.6 278.8 426.1 278.6 Q425.85 278.6 425.65 278.8 L425.4 279.3 425.65 279.8 Q425.85 280.0 426.1 280.0 L426.6 279.8 M425.55 282.6 L425.4 289.3 426.95 289.2 427.2 282.6 Q426.45 281.85 425.55 282.6 M432.3 282.35 L431.75 288.95 431.75 289.0 Q432.45 289.6 433.2 288.75 L433.85 282.15 Q433.25 281.2 432.3 282.35 M430.65 282.5 L430.2 289.1 Q429.4 290.0 428.65 289.2 L428.85 282.55 430.65 282.5 M433.1 290.35 Q432.45 289.55 431.65 290.55 L431.2 296.25 Q431.85 297.1 432.6 296.05 L433.1 290.4 433.1 290.35 M428.6 290.8 L428.4 296.5 Q429.15 297.35 429.75 296.4 L430.1 290.7 Q429.35 289.9 428.6 290.8 M426.9 290.85 Q426.15 289.9 425.4 290.85 L425.3 296.65 426.7 296.6 426.9 290.85 M434.35 296.0 L434.4 296.0 Q434.85 295.95 435.3 295.3 L436.05 289.75 436.0 289.75 Q435.7 289.45 435.4 289.45 434.85 289.45 434.5 290.1 L433.75 295.8 434.35 296.0 M424.45 253.55 L424.45 280.95 M384.4 225.05 Q384.25 225.25 384.5 225.7 L385.2 226.15 M380.5 228.0 L380.7 227.5 380.5 227.0 379.95 226.8 379.5 227.0 379.3 227.5 379.5 228.0 Q379.7 228.2 379.95 228.2 L380.5 228.0 M382.3 226.95 L382.6 227.4 383.05 227.5 383.4 227.2 383.5 226.65 383.15 226.2 382.65 226.15 382.3 226.45 382.3 226.95 M376.4 228.3 L376.9 228.5 Q377.2 228.5 377.4 228.3 L377.6 227.8 377.4 227.3 376.9 227.1 376.4 227.3 376.2 227.8 376.4 228.3 M383.7 224.25 Q383.35 226.0 375.35 226.2 367.35 226.0 367.0 224.25 M371.4 227.5 L371.2 228.0 370.7 228.2 Q370.45 228.2 370.2 228.0 L370.0 227.5 370.2 227.0 370.7 226.8 371.2 227.0 371.4 227.5 M374.5 227.8 L374.25 228.3 373.8 228.5 373.3 228.3 373.05 227.8 Q373.05 227.5 373.3 227.3 L373.8 227.1 374.25 227.3 374.5 227.8 M365.5 226.15 Q365.95 226.15 366.2 225.7 366.45 225.25 366.3 225.05 M367.55 226.2 L368.05 226.15 368.35 226.45 368.4 226.95 368.1 227.4 367.65 227.5 367.3 227.2 367.2 226.65 Q367.3 226.35 367.55 226.2 M385.65 226.9 Q385.3 229.2 375.35 229.45 365.4 229.2 365.05 226.9 M360.75 252.7 L361.15 252.9 361.35 253.45 361.2 253.9 360.75 254.1 Q360.55 254.1 360.35 253.9 L360.15 253.4 360.35 252.9 360.75 252.7 M358.6 252.75 Q358.95 252.5 358.9 251.95 L358.6 251.4 M363.7 253.8 L364.15 253.6 364.55 253.8 364.75 254.35 364.6 254.85 364.15 255.0 Q363.9 255.0 363.75 254.8 L363.55 254.3 363.7 253.8 M364.4 289.45 Q364.9 289.45 365.3 290.1 L366.0 295.8 365.4 296.0 Q364.95 295.95 364.5 295.3 L363.75 289.75 Q364.1 289.45 364.4 289.45 M362.65 281.25 Q362.95 280.9 363.2 280.9 L363.3 280.9 Q363.75 280.95 364.3 281.85 L365.15 288.45 365.1 288.5 364.5 288.65 Q364.0 288.55 363.55 287.9 L362.65 281.25 M390.35 252.9 L389.95 252.7 389.5 252.9 Q389.35 253.15 389.35 253.45 L389.5 253.9 Q389.7 254.1 389.95 254.1 L390.3 253.9 390.5 253.4 390.35 252.9 M392.1 251.4 Q391.9 251.45 391.8 251.95 391.75 252.5 392.1 252.75 M386.95 253.8 L386.55 253.6 386.15 253.8 385.95 254.35 386.1 254.85 386.55 255.0 Q386.8 255.0 386.95 254.8 L387.15 254.3 386.95 253.8 M379.3 255.55 L379.8 255.75 Q380.1 255.75 380.3 255.55 L380.5 255.0 380.3 254.55 379.8 254.35 379.3 254.55 379.1 255.0 379.3 255.55 M377.25 254.6 L376.8 254.4 376.3 254.6 Q376.05 254.8 376.05 255.1 L376.3 255.6 376.8 255.8 377.25 255.6 377.5 255.1 377.25 254.6 M376.2 258.15 L376.4 258.6 376.9 258.85 377.4 258.6 377.6 258.15 377.4 257.65 Q377.2 257.4 376.9 257.4 376.6 257.4 376.4 257.65 L376.2 258.15 M382.55 254.35 L382.35 254.8 382.55 255.3 Q382.75 255.55 383.05 255.55 L383.55 255.3 383.75 254.8 383.55 254.35 383.05 254.1 Q382.75 254.1 382.55 254.35 M367.15 255.3 L366.95 254.8 367.15 254.35 Q367.35 254.1 367.65 254.1 L368.15 254.35 368.35 254.8 368.15 255.3 367.65 255.55 Q367.35 255.55 367.15 255.3 M374.4 255.6 Q374.2 255.8 373.9 255.8 L373.4 255.6 373.2 255.1 373.4 254.6 373.9 254.4 374.4 254.6 374.6 255.1 374.4 255.6 M370.9 254.35 L371.4 254.55 371.6 255.0 371.4 255.55 Q371.2 255.75 370.9 255.75 L370.4 255.55 370.2 255.0 370.4 254.55 370.9 254.35 M374.25 257.65 L374.5 258.15 374.25 258.6 373.8 258.85 373.3 258.6 373.05 258.15 Q373.05 257.85 373.3 257.65 373.5 257.4 373.8 257.4 374.05 257.4 374.25 257.65 M374.25 261.0 L374.5 261.5 374.25 262.0 373.8 262.2 373.3 262.0 373.05 261.5 Q373.05 261.2 373.3 261.0 L373.8 260.8 374.25 261.0 M374.5 265.1 L374.25 265.6 373.8 265.8 373.3 265.6 373.05 265.1 Q373.05 264.8 373.3 264.6 L373.8 264.4 374.25 264.6 374.5 265.1 M374.5 268.7 L374.25 269.2 373.75 269.4 Q373.5 269.4 373.3 269.2 L373.05 268.7 Q373.05 268.4 373.3 268.2 L373.75 268.0 374.25 268.2 374.5 268.7 M373.75 271.7 L374.25 271.9 374.5 272.4 374.25 272.9 373.75 273.1 Q373.5 273.1 373.3 272.9 L373.05 272.4 Q373.05 272.1 373.3 271.9 L373.75 271.7 M377.6 261.5 L377.4 261.0 376.9 260.8 376.4 261.0 376.2 261.5 376.4 262.0 376.9 262.2 Q377.2 262.2 377.4 262.0 L377.6 261.5 M376.2 265.1 L376.4 265.6 376.9 265.8 Q377.2 265.8 377.4 265.6 L377.6 265.1 377.4 264.6 376.9 264.4 376.4 264.6 376.2 265.1 M377.4 268.2 L376.9 268.0 376.45 268.2 376.2 268.7 376.45 269.2 376.9 269.4 Q377.2 269.4 377.4 269.2 L377.65 268.7 377.4 268.2 M376.45 271.9 L376.2 272.4 376.45 272.9 376.9 273.1 Q377.2 273.1 377.4 272.9 L377.65 272.4 377.4 271.9 376.9 271.7 376.45 271.9 M377.05 276.65 L377.5 276.45 377.7 275.95 377.5 275.45 377.05 275.25 376.5 275.45 376.3 275.95 376.5 276.45 377.05 276.65 M377.7 279.3 L377.5 278.8 377.05 278.6 376.5 278.8 376.3 279.3 376.5 279.8 377.05 280.0 377.5 279.8 377.7 279.3 M376.45 282.6 L376.3 289.25 376.35 289.25 377.85 289.2 378.1 282.6 Q377.35 281.85 376.45 282.6 M379.8 282.55 L379.55 289.2 381.1 289.1 381.55 282.5 379.8 282.55 M374.15 276.45 L373.65 276.65 Q373.35 276.65 373.15 276.45 L372.95 275.95 373.15 275.45 373.65 275.25 374.15 275.45 374.35 275.95 374.15 276.45 M367.45 282.35 L368.05 288.95 368.05 289.0 Q367.3 289.6 366.55 288.75 L365.95 282.15 Q366.55 281.2 367.45 282.35 M373.15 279.8 L372.95 279.3 373.15 278.8 373.65 278.6 374.15 278.8 374.35 279.3 374.15 279.8 373.65 280.0 Q373.35 280.0 373.15 279.8 M374.25 282.6 L374.35 289.3 372.85 289.2 372.55 282.6 Q373.3 281.85 374.25 282.6 M369.15 282.5 L369.6 289.1 Q370.35 290.0 371.15 289.2 L370.9 282.55 369.15 282.5 M371.2 290.8 L371.4 296.5 Q370.65 297.35 370.05 296.4 L369.7 290.7 Q370.45 289.9 371.2 290.8 M366.7 290.35 Q367.35 289.55 368.1 290.55 L368.6 296.25 Q367.9 297.1 367.2 296.05 L366.7 290.4 366.7 290.35 M374.5 296.65 L373.1 296.6 372.85 290.85 372.9 290.85 Q373.65 289.9 374.4 290.85 L374.5 296.65 M382.65 289.0 Q383.4 289.6 384.15 288.75 L384.75 282.15 Q384.15 281.2 383.25 282.35 L382.65 288.95 382.65 289.0 M384.0 290.35 Q383.35 289.55 382.6 290.55 L382.1 296.25 Q382.8 297.1 383.5 296.05 L384.0 290.4 384.0 290.35 M376.2 296.65 L377.6 296.6 377.8 290.85 Q377.05 289.9 376.3 290.85 L376.2 296.65 M380.65 296.4 Q380.05 297.35 379.3 296.5 L379.5 290.8 Q380.25 289.9 381.0 290.7 L380.65 296.4 M387.55 280.9 Q387.0 280.8 386.4 281.85 L385.55 288.45 385.6 288.45 386.15 288.6 387.1 287.9 388.0 281.25 Q387.75 280.9 387.55 280.9 M385.4 290.1 L384.7 295.8 385.3 296.0 386.2 295.3 386.95 289.75 386.9 289.75 386.3 289.45 Q385.8 289.4 385.4 290.1 M392.1 250.35 Q391.05 253.3 375.35 253.55 L375.35 280.95 Q388.6 280.95 389.05 278.4 M375.35 280.95 Q362.05 280.95 361.6 278.4 M358.6 250.35 Q359.6 253.3 375.35 253.55 M384.0 297.6 L375.35 298.3 366.7 297.6 M383.8 299.1 Q380.15 300.25 375.35 300.2 370.5 300.25 366.9 299.1 M383.5 301.3 Q379.5 302.5 375.35 302.4 371.2 302.5 367.2 301.3 M382.9 305.8 Q379.65 306.85 375.35 306.8 371.05 306.85 367.8 305.8 M367.5 303.8 Q370.85 304.8 375.35 304.8 379.85 304.8 383.2 303.8 M432.0 305.8 Q428.75 306.85 424.45 306.8 420.1 306.85 416.85 305.8 M432.25 303.8 Q428.95 304.8 424.45 304.8 419.95 304.8 416.6 303.8 M433.1 297.6 L424.45 298.3 415.75 297.6 M432.9 299.1 Q429.25 300.25 424.45 300.2 419.65 300.25 415.95 299.1 M432.6 301.3 Q428.55 302.5 424.45 302.4 420.3 302.5 416.25 301.3" fill="none" stroke="#000000" stroke-linecap="round" stroke-linejoin="round" stroke-opacity="0.5019608" stroke-width="1.0"/>
  </g>
</svg>
