<?xml version="1.0" encoding="UTF-8" standalone="no"?>
<svg xmlns:xlink="http://www.w3.org/1999/xlink" height="216.9px" width="304.75px" xmlns="http://www.w3.org/2000/svg">
  <g transform="matrix(1.0, 0.0, 0.0, 1.0, -181.85, -215.95)">
    <path d="M367.8 378.7 L384.05 389.45 Q393.9 395.7 403.3 400.3 425.25 411.7 445.45 416.5 463.45 420.7 473.2 424.55 482.45 428.2 486.6 430.35 L485.0 432.85 484.8 432.75 Q480.55 430.4 476.4 428.7 465.95 424.55 445.6 420.1 429.75 416.5 409.85 407.3 396.0 400.75 383.3 392.5 L382.45 392.0 366.1 381.2 364.9 380.4 366.7 377.95 367.8 378.7 M331.9 358.95 L329.75 357.6 290.3 332.75 Q281.5 327.55 273.5 322.0 255.5 309.55 233.9 275.25 L227.2 265.65 Q218.5 252.9 209.9 243.05 200.7 232.55 193.9 227.0 L190.25 224.3 186.6 221.75 185.55 221.0 181.85 218.6 183.65 215.95 195.6 224.45 Q206.1 232.45 222.65 254.15 L238.9 276.95 Q260.2 308.6 276.4 319.85 L291.2 329.75 Q311.05 342.0 331.5 355.15 L333.7 356.5 331.9 358.95" fill="#ffffff" fill-rule="evenodd" stroke="none"/>
  </g>
</svg>
