<?xml version="1.0" encoding="UTF-8" standalone="no"?>
<svg xmlns:xlink="http://www.w3.org/1999/xlink" height="181.2px" width="485.2px" xmlns="http://www.w3.org/2000/svg">
  <g transform="matrix(1.0, 0.0, 0.0, 1.0, 328.35, -23.45)">
    <path d="M59.95 163.0 Q69.6 162.6 75.35 154.1 L75.55 153.95 77.65 156.15 72.95 169.25 70.6 168.15 73.75 159.9 Q69.55 164.4 64.6 165.2 L59.95 163.0" fill="url(#gradient0)" fill-rule="evenodd" stroke="none"/>
    <path d="M64.85 167.3 Q63.35 168.95 62.95 170.45 L62.9 170.5 Q62.3 171.95 62.4 174.1 59.15 172.55 58.9 169.0 61.4 166.55 64.85 167.3" fill="url(#gradient1)" fill-rule="evenodd" stroke="none"/>
    <path d="M55.8 174.35 L53.5 173.7 53.45 173.3 Q53.1 169.7 54.0 167.25 L54.05 167.2 Q55.0 164.7 57.5 162.2 L57.8 161.9 59.95 163.0 64.6 165.2 70.6 168.15 72.95 169.25 Q70.3 171.0 72.25 173.85 L72.3 173.9 Q68.9 174.8 69.85 177.8 L67.3 177.2 60.85 175.55 55.8 174.35 M62.4 174.1 L63.35 174.5 66.55 175.2 Q66.65 173.3 67.2 172.05 67.6 170.7 68.75 169.1 67.25 168.1 65.8 167.6 L64.85 167.3 Q61.4 166.55 58.9 169.0 59.15 172.55 62.4 174.1" fill="url(#gradient2)" fill-rule="evenodd" stroke="none"/>
    <path d="M53.45 173.3 L-327.85 34.55 Q-328.9 30.75 -327.65 27.8 -326.65 25.3 -323.8 23.45 L57.5 162.2 Q55.0 164.7 54.05 167.2 L54.0 167.25 Q53.1 169.7 53.45 173.3" fill="url(#gradient3)" fill-rule="evenodd" stroke="none"/>
    <path d="M72.95 169.25 L90.1 177.5 Q91.6 178.2 94.3 177.15 91.8 178.5 88.4 179.75 90.2 182.85 91.25 185.55 89.9 182.9 88.25 182.5 L69.85 177.8 Q68.9 174.8 72.3 173.9 L72.25 173.85 Q70.3 171.0 72.95 169.25" fill="url(#gradient4)" fill-rule="evenodd" stroke="none"/>
    <path d="M69.85 177.8 L65.0 190.9 62.05 191.25 62.0 191.0 Q62.95 180.8 55.8 174.35 L60.85 175.55 Q64.1 179.45 64.45 185.5 L67.3 177.2 69.85 177.8" fill="url(#gradient5)" fill-rule="evenodd" stroke="none"/>
    <path d="M94.3 177.15 L94.75 177.0 94.85 176.9 Q96.95 175.95 99.7 174.05 155.15 202.5 156.85 204.65 L88.4 179.75 Q91.8 178.5 94.3 177.15" fill="url(#gradient6)" fill-rule="evenodd" stroke="none"/>
    <path d="M156.85 204.65 Q154.15 205.25 93.4 191.4 92.5 188.2 91.5 186.1 L91.45 186.0 91.25 185.55 Q90.2 182.85 88.4 179.75 L156.85 204.65" fill="url(#gradient7)" fill-rule="evenodd" stroke="none"/>
    <path d="M88.4 179.75 Q90.2 182.85 91.25 185.55 89.9 182.9 88.25 182.5 L53.5 173.7 53.45 173.3 -327.85 34.55 Q-328.9 30.75 -327.65 27.8 L58.9 169.0 Q59.15 172.55 62.4 174.1 L63.35 174.5 66.55 175.2 Q66.65 173.3 67.2 172.05 L72.25 173.85 72.3 173.9 88.4 179.75" fill="#000000" fill-opacity="0.2" fill-rule="evenodd" stroke="none"/>
    <path d="M88.4 179.75 Q91.8 178.5 94.3 177.15 L94.75 177.0 94.85 176.9 Q96.95 175.95 99.7 174.05 155.15 202.5 156.85 204.65 L88.4 179.75" fill="#ffffff" fill-opacity="0.5019608" fill-rule="evenodd" stroke="none"/>
  </g>
  <defs>
    <linearGradient gradientTransform="matrix(0.0, 0.0093, -0.0108, 0.0, 68.8, 161.55)" gradientUnits="userSpaceOnUse" id="gradient0" spreadMethod="pad" x1="-819.2" x2="819.2">
      <stop offset="0.0" stop-color="#000000" stop-opacity="0.2509804"/>
      <stop offset="1.0" stop-color="#000000" stop-opacity="0.0"/>
    </linearGradient>
    <linearGradient gradientTransform="matrix(0.0, 0.0042, -0.0036, 0.0, 61.9, 170.6)" gradientUnits="userSpaceOnUse" id="gradient1" spreadMethod="pad" x1="-819.2" x2="819.2">
      <stop offset="0.0" stop-color="#000000" stop-opacity="0.2509804"/>
      <stop offset="1.0" stop-color="#000000" stop-opacity="0.0"/>
    </linearGradient>
    <linearGradient gradientTransform="matrix(0.0, 0.0097, -0.012, 0.0, 63.2, 169.85)" gradientUnits="userSpaceOnUse" id="gradient2" spreadMethod="pad" x1="-819.2" x2="819.2">
      <stop offset="0.0" stop-color="#000000" stop-opacity="0.2509804"/>
      <stop offset="1.0" stop-color="#000000" stop-opacity="0.0"/>
    </linearGradient>
    <linearGradient gradientTransform="matrix(0.0, 0.0915, -0.2355, 0.0, -135.4, 98.4)" gradientUnits="userSpaceOnUse" id="gradient3" spreadMethod="pad" x1="-819.2" x2="819.2">
      <stop offset="0.0" stop-color="#000000" stop-opacity="0.2509804"/>
      <stop offset="1.0" stop-color="#000000" stop-opacity="0.0"/>
    </linearGradient>
    <linearGradient gradientTransform="matrix(0.0, 0.01, -0.0151, 0.0, 81.95, 177.4)" gradientUnits="userSpaceOnUse" id="gradient4" spreadMethod="pad" x1="-819.2" x2="819.2">
      <stop offset="0.0" stop-color="#000000" stop-opacity="0.2509804"/>
      <stop offset="1.0" stop-color="#000000" stop-opacity="0.0"/>
    </linearGradient>
    <linearGradient gradientTransform="matrix(0.0, 0.0103, -0.0086, 0.0, 62.8, 182.8)" gradientUnits="userSpaceOnUse" id="gradient5" spreadMethod="pad" x1="-819.2" x2="819.2">
      <stop offset="0.0" stop-color="#000000" stop-opacity="0.2509804"/>
      <stop offset="1.0" stop-color="#000000" stop-opacity="0.0"/>
    </linearGradient>
    <linearGradient gradientTransform="matrix(0.0, 0.0187, -0.0418, 0.0, 122.65, 189.35)" gradientUnits="userSpaceOnUse" id="gradient6" spreadMethod="pad" x1="-819.2" x2="819.2">
      <stop offset="0.0" stop-color="#000000" stop-opacity="0.2509804"/>
      <stop offset="1.0" stop-color="#000000" stop-opacity="0.0"/>
    </linearGradient>
    <linearGradient gradientTransform="matrix(0.0, 0.0152, -0.0418, 0.0, 122.65, 192.15)" gradientUnits="userSpaceOnUse" id="gradient7" spreadMethod="pad" x1="-819.2" x2="819.2">
      <stop offset="0.0" stop-color="#000000" stop-opacity="0.2509804"/>
      <stop offset="1.0" stop-color="#000000" stop-opacity="0.0"/>
    </linearGradient>
  </defs>
</svg>
