<?xml version="1.0" encoding="UTF-8" standalone="no"?>
<svg xmlns:xlink="http://www.w3.org/1999/xlink" height="198.7px" width="64.15px" xmlns="http://www.w3.org/2000/svg">
  <g transform="matrix(1.0, 0.0, 0.0, 1.0, -284.0, -196.4)">
    <path d="M341.0 260.5 Q333.7 273.9 322.8 286.25 330.2 295.4 332.35 305.65 327.0 318.95 317.3 332.15 317.15 334.85 317.35 337.5 L317.7 341.0 318.1 343.2 Q318.7 345.9 319.7 348.5 L329.7 353.7 336.2 361.15 338.1 370.25 Q333.4 371.35 331.25 364.45 L326.9 362.9 326.9 373.15 328.2 377.85 330.9 381.85 334.35 384.4 Q336.85 389.35 333.25 391.55 L328.0 387.7 Q329.85 392.7 325.75 394.6 L321.05 389.65 Q321.05 391.2 319.65 392.2 L313.9 387.2 Q313.9 388.9 312.4 389.3 L307.4 384.95 304.1 379.05 301.4 372.0 296.75 354.25 294.8 353.0 284.95 309.25 Q282.8 294.9 290.5 282.4 L288.2 275.65 294.85 267.25 Q298.25 256.45 298.45 245.65 293.7 228.55 298.45 216.5 309.7 193.8 338.35 197.4" fill="none" stroke="#000000" stroke-linecap="round" stroke-linejoin="round" stroke-width="1.0"/>
    <path d="M298.45 245.65 Q318.85 244.5 332.75 231.05 339.95 243.2 347.65 245.9 344.8 253.3 341.0 260.5 M326.9 357.65 L326.9 362.9 M328.0 387.7 L326.65 386.75 322.75 381.8 320.15 376.35 M322.8 286.25 L315.05 294.5 Q307.85 283.7 295.1 276.1 292.45 279.2 290.5 282.4 M299.9 356.15 L296.75 354.25 M319.25 374.3 L316.65 372.0 314.2 366.95 M312.7 374.6 L310.5 372.4 M313.9 387.2 L312.6 386.15 309.1 381.0 305.9 374.15 M321.05 389.65 L319.1 387.6 315.3 381.3 313.3 376.05 M304.9 372.7 L303.4 368.7 M310.1 371.6 L308.85 368.7" fill="none" stroke="#000000" stroke-linecap="round" stroke-linejoin="round" stroke-opacity="0.5019608" stroke-width="1.0"/>
  </g>
</svg>
