<?xml version="1.0" encoding="UTF-8" standalone="no"?>
<svg xmlns:xlink="http://www.w3.org/1999/xlink" height="68.7px" width="49.1px" xmlns="http://www.w3.org/2000/svg">
  <g transform="matrix(1.0, 0.0, 0.0, 1.0, -375.3, -103.65)">
    <path d="M376.45 137.45 Q375.0 127.25 376.9 118.55 381.25 104.95 399.85 104.15 418.45 104.95 422.8 118.55 424.7 127.25 423.25 137.45 L422.65 141.1 422.25 142.9 422.1 143.75 422.1 143.8 421.05 147.65 418.3 157.55 413.25 162.45 Q408.7 166.75 402.45 171.2 L399.85 171.85 397.25 171.2 Q391.0 166.75 386.45 162.45 L381.4 157.55 378.65 147.65 377.6 143.8 377.6 143.75 377.45 142.9 377.05 141.1 376.45 137.45" fill="none" stroke="#000000" stroke-linecap="round" stroke-linejoin="round" stroke-width="1.0"/>
    <path d="M381.35 136.45 Q381.35 133.95 383.4 132.3 385.5 130.7 388.15 131.55 L393.15 133.3 Q395.5 134.2 395.5 136.6 395.5 139.0 393.4 140.7 391.35 142.4 388.4 142.4 385.5 142.4 383.4 140.7 381.35 139.0 381.35 136.45 M399.85 141.75 L395.95 147.45 Q395.75 151.8 399.85 149.4 403.95 151.8 403.75 147.45 L399.85 141.75 M402.0 160.4 L402.0 158.4 397.7 158.4 397.7 160.4 M397.7 156.15 L397.7 158.4 394.65 158.4 394.65 159.75 M402.0 158.4 L402.0 156.15 M391.4 156.6 L391.4 158.4 394.65 158.4 394.65 156.5 M391.4 158.4 L391.4 159.75 M378.65 147.65 Q381.6 152.2 387.05 152.9 L389.15 158.4 391.4 158.4 M406.55 133.3 Q404.2 134.2 404.2 136.6 404.2 139.0 406.3 140.7 408.35 142.4 411.3 142.4 414.2 142.4 416.3 140.7 418.35 139.0 418.35 136.45 418.35 133.95 416.3 132.3 414.2 130.7 411.55 131.55 408.9 132.4 406.55 133.3 M421.05 147.65 Q418.1 152.2 412.65 152.9 L410.6 158.4 408.3 158.4 408.3 159.75 M405.05 156.5 L405.05 158.4 408.3 158.4 408.3 156.6 M405.05 158.4 L405.05 159.75 M402.0 158.4 L405.05 158.4" fill="none" stroke="#000000" stroke-linecap="round" stroke-linejoin="round" stroke-opacity="0.5019608" stroke-width="1.0"/>
  </g>
</svg>
