<?xml version="1.0" encoding="UTF-8" standalone="no"?>
<svg xmlns:xlink="http://www.w3.org/1999/xlink" height="80.1px" width="69.7px" xmlns="http://www.w3.org/2000/svg">
  <g transform="matrix(1.0, 0.0, 0.0, 1.0, -365.1, -105.6)">
    <path d="M398.8 107.55 L394.9 107.35 394.25 107.55 389.6 108.85 386.0 110.2 Q385.95 110.2 384.05 111.45 L376.85 116.05 Q375.55 116.9 374.1 118.65 373.0 120.15 372.8 121.05 371.45 121.65 370.4 122.75 368.7 124.65 368.45 126.9 L368.45 127.65 Q368.45 129.6 370.1 132.3 L370.15 132.45 Q371.05 134.7 370.85 137.3 L370.85 139.25 Q369.15 142.65 366.25 147.25 365.6 148.35 365.6 150.7 365.6 153.2 367.8 155.45 369.55 157.2 371.3 157.85 L376.4 159.4 Q377.9 160.0 380.2 161.55 L380.2 161.65 379.95 162.65 380.05 163.1 378.85 165.7 Q378.15 167.35 378.15 169.05 378.15 171.55 379.3 173.9 L379.4 174.1 379.5 174.25 379.7 174.95 379.7 175.0 381.35 179.25 Q382.35 181.7 384.75 183.1 387.85 184.9 391.45 184.95 395.55 185.35 399.55 184.95 L399.9 184.95 400.45 185.05 Q404.35 185.35 408.35 185.05 412.05 184.95 415.1 183.15 417.55 181.8 418.5 179.3 L420.15 175.1 420.2 175.0 420.2 174.95 420.4 174.3 420.45 174.15 420.6 174.0 Q421.75 171.65 421.75 169.1 421.75 167.4 421.05 165.7 L419.85 163.2 419.95 162.75 419.65 161.65 419.65 161.55 Q421.95 160.0 423.45 159.5 L428.5 157.9 Q430.35 157.25 432.1 155.5 434.3 153.2 434.3 150.75 434.3 148.45 433.6 147.35 430.7 142.65 429.05 139.35 L429.05 137.4 Q428.75 134.7 429.75 132.45 L429.75 132.4 Q431.45 129.6 431.45 127.65 L431.45 126.9 Q431.2 124.65 429.5 122.8 L427.1 121.05 Q426.9 120.2 425.7 118.75 424.35 116.9 423.0 116.05 L415.4 111.1 413.9 110.2 410.3 108.9 405.65 107.55 405.0 107.35 401.1 107.5 399.9 106.1 398.9 107.55" fill="none" stroke="#000000" stroke-linecap="round" stroke-linejoin="round" stroke-width="1.0"/>
    <path d="M401.1 107.5 L401.1 107.55 401.8 109.0 M372.8 121.05 Q374.45 120.3 376.5 120.3 379.95 120.3 383.35 122.3 L395.0 129.25 M398.9 107.55 L398.8 107.55 Q398.25 108.35 398.05 108.9 M393.05 115.3 L393.1 114.55 Q393.1 113.6 391.55 111.05 L390.1 114.85 390.35 116.25 M386.55 119.2 L386.4 118.45 385.75 117.6 384.6 116.6 Q384.1 116.8 383.75 117.3 383.4 117.7 383.4 117.9 L382.8 119.75 M391.8 123.6 L391.8 122.7 Q392.45 120.7 393.1 119.9 L394.4 121.7 Q395.25 123.3 395.05 124.2 M398.5 116.5 Q398.3 115.6 398.75 114.3 399.15 113.05 399.8 112.6 M401.4 116.5 Q401.6 115.65 401.15 114.35 400.7 113.05 400.1 112.6 M380.2 161.55 Q380.55 159.8 380.55 157.2 380.55 152.45 373.7 149.65 M381.2 135.7 Q382.1 136.95 384.65 136.95 L388.75 136.6 Q387.3 136.0 385.8 134.8 L380.95 131.0 380.85 131.0 Q380.6 131.8 380.6 132.9 380.6 134.85 381.2 135.7 M372.3 129.95 L374.3 130.1 376.5 130.15 Q379.55 130.35 380.85 131.0 M374.35 142.15 L378.45 142.65 Q380.95 142.65 383.0 141.35 L384.2 140.65 Q386.6 139.25 389.4 138.4 L389.65 138.35 390.05 138.35 M402.6 131.55 Q403.6 134.7 404.6 135.75 405.85 137.05 407.9 137.25 L408.35 137.25 Q409.75 137.25 411.15 136.65 412.6 136.0 414.1 134.85 418.55 131.25 418.95 131.1 L419.0 131.0 419.1 131.0 Q420.25 130.45 423.3 130.25 L425.6 130.1 427.6 130.05 M398.8 127.0 L398.75 126.05 Q398.75 124.9 399.7 123.3 M388.75 136.6 Q390.15 137.2 391.55 137.2 L391.75 137.2 392.0 137.2 Q394.05 137.05 395.3 135.75 396.2 134.65 397.5 131.6 M401.0 127.05 L401.15 126.15 Q401.15 124.95 400.1 123.35 M388.1 159.7 Q387.9 159.1 388.0 158.7 388.55 157.15 388.55 155.45 388.55 153.9 386.9 151.6 L386.7 151.35 386.65 151.3 Q384.85 148.9 384.85 147.85 384.85 145.9 387.0 144.2 389.25 142.4 389.2 141.35 M394.25 142.15 Q394.25 141.5 396.45 138.8 L397.75 137.1 Q398.55 135.95 398.55 135.45 M401.35 135.5 L402.15 137.2 403.45 138.9 Q405.65 141.5 405.65 142.15 M390.3 148.15 Q391.45 145.55 394.9 145.5 L399.7 145.7 M407.4 152.15 Q406.6 151.15 404.55 150.85 L403.95 150.85 400.25 150.7 M399.65 150.7 Q397.4 150.65 395.9 150.75 L395.35 150.85 395.15 150.85 Q393.2 151.15 392.5 152.05 M400.3 156.1 L402.8 156.05 Q404.8 156.15 406.3 157.45 M393.8 157.2 Q395.1 156.1 397.05 156.05 L399.6 156.05 M399.45 164.4 L398.7 164.4 396.1 164.05 393.85 163.25 391.2 161.5 Q389.6 160.5 388.0 160.5 L387.95 160.5 387.75 160.5 386.15 160.6 Q385.5 160.85 384.45 162.3 M391.15 170.1 L390.8 169.75 390.75 169.7 Q387.9 167.2 386.8 167.2 386.55 167.2 386.2 167.75 M392.3 168.65 Q391.4 166.9 388.65 165.6 L385.9 164.6 Q383.55 164.6 383.55 168.2 383.55 168.9 384.4 169.5 L387.1 171.05 389.45 172.1 M400.45 164.4 L401.2 164.4 403.8 164.1 406.05 163.25 406.8 162.75 408.65 161.55 Q410.25 160.5 411.9 160.5 L412.05 160.5 412.15 160.5 413.7 160.65 Q414.4 160.9 415.45 162.35 L415.7 162.6 M379.5 174.25 L379.9 174.95 Q381.35 176.75 383.4 177.7 387.35 179.45 391.8 179.85 395.8 180.4 399.85 180.0 404.0 180.4 408.1 179.9 412.55 179.45 416.4 177.75 418.55 176.85 419.95 175.0 L420.0 174.9 420.4 174.3 M419.65 161.55 Q419.3 159.85 419.3 157.25 419.3 152.55 426.1 149.65 M427.1 121.05 Q425.45 120.3 423.3 120.3 419.95 120.3 416.5 122.3 L404.85 129.3 M413.3 119.2 L413.5 118.45 414.15 117.7 415.25 116.65 416.1 117.3 416.5 117.95 417.05 119.85 M406.85 115.35 L406.75 114.65 Q406.75 113.6 408.35 111.1 L409.75 114.85 409.45 116.3 M408.05 123.65 L408.05 122.75 Q407.4 120.75 406.75 119.9 406.1 120.5 405.45 121.8 404.6 123.3 404.8 124.25 M411.15 136.65 L415.25 137.0 Q417.7 137.0 418.65 135.75 419.3 134.85 419.3 132.95 L419.1 131.0 M425.45 142.15 L421.45 142.65 Q418.95 142.65 416.9 141.35 L416.8 141.35 415.7 140.7 414.15 139.85 Q412.4 139.05 410.5 138.5 L410.25 138.35 409.8 138.35 M400.2 145.75 L405.0 145.55 Q408.45 145.65 409.6 148.25 M411.8 159.7 L411.8 158.75 Q411.3 157.15 411.3 155.5 411.3 153.9 413.0 151.6 L413.15 151.4 413.15 151.35 Q415.05 148.9 415.05 147.9 415.05 145.9 412.9 144.25 L412.85 144.2 412.8 144.15 Q410.65 142.4 410.7 141.35 M413.65 167.8 L413.1 167.3 Q411.95 167.3 409.15 169.75 L408.75 170.1 M410.4 172.15 L412.8 171.05 415.5 169.5 Q416.3 168.9 416.3 168.2 416.3 164.7 414.0 164.7 413.3 164.7 411.25 165.6 408.45 166.9 407.6 168.7" fill="none" stroke="#000000" stroke-linecap="round" stroke-linejoin="round" stroke-opacity="0.5019608" stroke-width="1.0"/>
  </g>
</svg>
