<?xml version="1.0" encoding="UTF-8" standalone="no"?>
<svg xmlns:xlink="http://www.w3.org/1999/xlink" height="115.25px" width="101.8px" xmlns="http://www.w3.org/2000/svg">
  <g transform="matrix(1.0, 0.0, 0.0, 1.0, -349.0, -103.1)">
    <path d="M399.85 103.6 Q415.9 103.05 424.75 119.1 425.65 140.2 428.85 156.35 L428.95 156.75 429.25 158.2 429.7 160.65 Q431.3 165.05 433.0 168.85 440.35 185.7 450.3 190.55 447.15 192.5 441.45 190.15 444.75 196.6 449.95 200.7 442.5 203.25 434.75 198.85 436.1 205.05 434.75 210.9 428.5 209.2 424.55 201.75 426.65 208.35 424.55 214.35 418.3 211.55 414.75 202.7 415.25 210.3 412.55 217.85 406.7 212.35 405.4 204.55 404.35 210.9 399.85 217.15 395.45 210.9 394.4 204.55 393.1 212.35 387.2 217.85 384.5 210.3 385.05 202.7 381.5 211.35 375.15 214.35 373.15 208.35 375.15 201.75 371.25 209.2 365.0 210.9 363.7 205.05 365.0 198.8 357.3 203.25 349.85 200.7 355.05 196.6 358.25 190.05 352.6 192.5 349.5 190.5 359.35 185.7 366.75 168.85 368.45 165.05 370.0 160.5 L370.55 158.2 370.8 156.75 370.85 156.35 Q374.05 140.2 375.0 119.1 383.85 103.05 399.85 103.6" fill="none" stroke="#000000" stroke-linecap="round" stroke-linejoin="round" stroke-width="1.0"/>
    <path d="M379.7 121.65 Q379.95 119.45 383.35 121.8 L383.85 122.1 385.05 122.8 Q385.5 123.1 386.0 123.2 L387.3 123.65 388.85 123.8 390.3 123.75 Q392.05 124.65 392.9 126.05 M387.3 123.65 Q388.15 124.65 387.5 126.55 387.3 127.2 386.65 127.45 L385.5 127.35 Q384.75 126.9 384.75 126.0 384.75 124.0 386.0 123.2 M385.05 122.8 Q382.55 123.8 383.2 125.8 383.85 127.75 385.15 128.85 386.55 129.95 388.4 128.3 390.35 126.6 388.85 123.8 390.55 124.3 390.45 125.8 389.5 129.05 386.4 129.7 383.2 130.35 382.8 126.25 382.5 122.55 383.85 122.1 M392.9 128.95 Q395.45 123.1 400.0 123.2 404.4 123.1 406.95 128.95 407.85 133.35 411.8 134.35 417.2 135.75 418.55 137.65 417.0 139.2 414.15 138.35 L409.3 138.05 Q407.7 140.3 404.0 140.65 403.5 143.35 402.65 145.85 400.65 151.7 399.9 151.9 399.2 151.7 397.2 145.85 396.35 143.35 395.8 140.65 392.3 140.3 390.55 138.05 L385.8 138.35 Q383.0 139.2 381.25 137.65 382.65 135.75 388.1 134.35 392.0 133.35 392.9 128.95 M383.2 137.5 Q384.2 137.7 386.85 136.8 392.2 135.3 392.3 137.95 394.7 137.25 395.8 140.65 M395.95 127.65 Q395.95 129.85 394.0 130.45 M372.1 173.6 Q369.9 181.05 365.0 186.35 363.4 192.65 365.0 198.8 370.1 197.4 374.2 189.6 377.05 184.75 378.85 176.3 M392.75 181.9 L391.8 193.2 Q390.6 200.05 394.4 204.55 398.1 200.8 399.85 193.4 L399.85 184.05 M385.5 179.95 Q384.85 186.0 382.55 191.45 381.25 197.65 385.05 202.7 389.5 200.3 391.8 193.2 M358.25 190.05 Q361.3 188.8 365.0 186.35 M406.95 126.05 Q407.8 124.65 409.45 123.75 L410.9 123.8 412.45 123.65 413.8 123.2 414.75 122.8 416.05 122.1 416.4 121.8 Q419.8 119.45 420.15 121.65 M410.9 123.8 Q409.4 126.6 411.3 128.3 413.25 129.95 414.55 128.85 415.9 127.75 416.5 125.8 417.2 123.8 414.75 122.8 M412.45 123.65 Q411.6 124.65 412.2 126.55 412.4 127.2 413.05 127.45 L414.3 127.35 Q415.0 126.9 415.0 126.0 415.05 124.0 413.8 123.2 M410.9 123.8 Q409.3 124.3 409.4 125.8 410.3 129.05 413.3 129.7 416.5 130.35 416.95 126.25 417.35 122.55 416.05 122.1 M404.0 140.65 Q405.05 137.25 407.7 137.95 407.8 135.3 413.05 136.8 415.65 137.7 416.7 137.5 M407.0 181.9 L408.05 193.2 Q410.3 200.35 414.75 202.7 418.55 197.7 417.25 191.45 414.95 186.05 414.2 179.95 M441.45 190.15 Q438.45 188.8 434.75 186.35 436.45 192.65 434.75 198.85 429.7 197.4 425.6 189.6 427.6 196.85 424.55 201.75 419.55 198.35 417.25 191.45 M434.75 186.35 Q429.9 181.15 427.6 173.6 M420.95 176.45 Q422.75 184.75 425.6 189.6 M403.9 127.65 Q403.9 129.85 405.9 130.45 M382.55 191.45 Q380.15 198.35 375.15 201.75 372.25 196.85 374.2 189.6 M408.05 193.2 Q409.2 200.05 405.4 204.55 401.65 200.8 399.85 193.4" fill="none" stroke="#000000" stroke-linecap="round" stroke-linejoin="round" stroke-opacity="0.5019608" stroke-width="1.0"/>
  </g>
</svg>
