<?xml version="1.0" encoding="UTF-8" standalone="no"?>
<svg xmlns:xlink="http://www.w3.org/1999/xlink" height="73.05px" width="63.0px" xmlns="http://www.w3.org/2000/svg">
  <g transform="matrix(1.0, 0.0, 0.0, 1.0, -368.35, -105.55)">
    <path d="M399.85 106.05 Q425.2 106.4 429.8 124.4 433.05 136.85 426.0 150.05 L412.55 169.1 Q406.55 178.7 399.85 178.05 393.15 178.7 387.2 169.1 L373.7 150.05 Q366.65 136.85 369.9 124.4 374.5 106.4 399.85 106.05" fill="none" stroke="#000000" stroke-linecap="round" stroke-linejoin="round" stroke-width="1.0"/>
    <path d="M383.15 130.5 Q387.05 130.5 390.6 133.75 394.2 137.0 395.25 141.6 396.35 146.2 394.35 149.45 392.25 152.7 388.35 152.7 384.45 152.7 380.95 149.45 377.35 146.2 376.25 141.6 375.2 137.0 377.25 133.75 379.25 130.5 383.15 130.5 M388.75 123.8 Q395.9 129.05 399.85 128.5 403.8 129.05 410.95 123.8 M379.25 153.05 Q385.55 156.9 390.7 155.3 M409.1 133.75 Q405.5 137.0 404.45 141.6 403.35 146.2 405.4 149.45 407.45 152.7 411.35 152.7 415.25 152.7 418.75 149.45 422.35 146.2 423.45 141.6 424.5 137.0 422.45 133.75 420.45 130.5 416.55 130.5 412.65 130.5 409.1 133.75 M420.45 153.05 Q414.15 156.9 409.0 155.3" fill="none" stroke="#000000" stroke-linecap="round" stroke-linejoin="round" stroke-opacity="0.5019608" stroke-width="1.0"/>
  </g>
</svg>
