<?xml version="1.0" encoding="UTF-8" standalone="no"?>
<svg xmlns:xlink="http://www.w3.org/1999/xlink" height="80.05px" width="86.9px" xmlns="http://www.w3.org/2000/svg">
  <g transform="matrix(1.0, 0.0, 0.0, 1.0, -357.7, -99.25)">
    <path d="M403.35 100.65 L403.5 100.55 403.5 100.7 Q403.3 101.1 403.05 103.0 L402.7 105.25 403.6 104.95 Q403.95 104.7 405.05 104.6 L407.85 104.5 407.25 105.1 408.75 105.35 411.3 106.0 411.35 106.05 411.55 106.1 411.7 106.1 Q438.0 108.25 443.7 133.15 446.6 155.9 428.4 168.65 L427.8 169.05 Q424.35 171.4 420.15 173.4 411.9 179.85 401.15 178.6 390.45 179.85 382.1 173.4 377.95 171.4 374.5 169.05 L373.9 168.65 Q355.7 155.9 358.6 133.15 364.3 108.25 390.6 106.1 L390.75 106.1 390.9 106.05 391.0 106.0 393.55 105.35 395.05 105.1 394.4 104.5 397.25 104.6 Q398.3 104.7 398.7 104.95 L399.55 105.25 399.25 103.0 398.75 100.7 398.75 100.55 398.9 100.65 398.9 100.4 Q400.1 99.8 400.95 99.75 L401.15 99.75 401.35 99.75 Q402.2 99.8 403.45 100.4 L403.35 100.65" fill="none" stroke="#000000" stroke-linecap="round" stroke-linejoin="round" stroke-width="1.0"/>
    <path d="M403.35 100.65 Q402.9 101.1 401.85 101.45 L401.35 101.55 401.15 101.65 400.95 101.55 400.35 101.45 Q399.35 101.1 398.9 100.65 M399.55 105.25 L399.55 105.45 399.4 106.65 398.95 107.7 M402.7 105.25 L402.7 105.45 Q402.7 106.3 402.85 106.65 L403.3 107.7 M390.9 106.05 L390.95 106.05 393.05 107.6 390.8 109.55 396.55 109.55 395.15 111.4 399.8 110.45 401.15 112.9 402.5 110.45 407.15 111.4 405.75 109.55 411.5 109.55 409.3 107.6 411.35 106.05 Q422.15 119.3 423.25 129.65 L424.75 127.95 425.05 127.5 426.1 125.3 427.85 129.0 426.9 133.85 423.9 140.45 423.55 140.65 Q424.35 150.5 422.0 160.9 L428.2 151.1 431.2 151.7 433.8 145.1 436.95 145.1 437.75 138.55 435.15 134.65 436.05 131.6 435.65 130.9 435.2 130.25 433.8 127.9 M368.5 127.9 L367.1 130.25 366.65 130.9 366.2 131.6 367.15 134.65 364.55 138.55 365.35 145.1 368.5 145.1 371.1 151.7 374.1 151.1 380.2 160.9 Q377.95 150.5 378.75 140.65 L378.35 140.45 375.35 133.85 374.35 129.0 376.15 125.3 377.25 127.5 377.55 127.95 379.05 129.65 Q380.15 119.3 390.9 106.05 M377.55 127.95 L376.45 128.65 377.45 132.85 380.1 139.0 384.25 140.75 389.8 141.2 394.25 139.55 393.6 139.55 388.85 133.4 387.0 131.8 379.05 129.65 M366.65 130.9 L365.0 132.45 365.0 134.6 362.0 137.45 362.0 140.25 363.6 140.25 364.75 148.5 367.75 147.6 371.4 158.9 373.55 156.7 379.45 166.9 380.85 164.7 384.1 169.05 386.85 165.35 391.6 169.05 394.6 165.05 399.15 170.4 401.15 168.25 403.15 170.4 407.7 165.05 410.7 169.05 415.45 165.35 418.1 169.05 421.45 164.7 422.85 166.9 428.75 156.7 430.85 158.9 434.55 147.6 437.55 148.5 438.65 140.25 440.2 140.25 440.2 137.45 437.2 134.6 437.2 132.45 435.65 130.9 M378.75 140.65 L382.05 142.15 385.5 142.85 392.55 141.95 396.55 139.55 394.25 139.55 M397.6 138.4 L396.55 139.55 393.85 142.7 391.6 143.55 389.25 145.2 386.8 145.9 383.65 146.35 M401.15 112.9 L401.15 143.55 406.55 148.9 407.25 150.9 408.0 153.0 403.6 150.4 401.15 149.6 401.15 162.65 404.55 159.85 410.3 163.7 416.5 157.45 422.0 160.9 M382.1 173.4 L381.15 168.05 379.65 169.25 373.45 159.35 370.95 161.65 366.95 149.55 363.9 150.1 362.55 141.55 360.9 142.0 360.9 137.45 363.95 133.6 363.95 131.8 367.1 130.25 M407.25 150.9 L403.45 148.75 401.15 148.15 398.8 148.75 395.05 150.9 394.25 153.0 398.6 150.4 401.15 149.6 M401.15 143.55 L395.75 148.9 395.05 150.9 M401.15 178.6 L401.15 171.05 398.95 172.5 394.8 167.65 391.6 171.65 387.05 167.8 384.45 171.05 381.15 168.05 M420.15 173.4 L421.1 168.05 417.85 171.05 415.25 167.8 410.7 171.65 407.5 167.65 403.35 172.5 401.15 171.05 M401.15 162.65 L397.75 159.85 392.0 163.7 385.8 157.45 380.2 160.9 M423.25 129.65 L415.3 131.8 413.35 133.4 408.7 139.55 408.0 139.55 412.55 141.2 418.05 140.75 422.2 139.0 424.85 132.85 425.85 128.65 424.75 127.95 M418.65 146.35 L415.5 145.9 413.0 145.2 410.7 143.55 408.35 142.7 405.75 139.55 404.75 138.4 M408.0 139.55 L405.75 139.55 409.75 141.95 416.75 142.85 420.25 142.15 423.55 140.65 M421.1 168.05 L422.65 169.25 428.85 159.35 431.35 161.65 435.35 149.55 438.4 150.1 439.75 141.55 441.4 142.0 441.4 137.45 438.35 133.6 438.35 131.8 435.2 130.25" fill="none" stroke="#000000" stroke-linecap="round" stroke-linejoin="round" stroke-opacity="0.49803922" stroke-width="1.0"/>
  </g>
</svg>
