<?xml version="1.0" encoding="UTF-8" standalone="no"?>
<svg xmlns:xlink="http://www.w3.org/1999/xlink" height="20.95px" width="70.05px" xmlns="http://www.w3.org/2000/svg">
  <g transform="matrix(1.0, 0.0, 0.0, 1.0, 34.65, 167.7)">
    <path d="M11.25 -162.3 L10.45 -161.75 9.4 -161.55 Q8.4 -161.55 7.65 -162.3 6.95 -163.05 6.95 -164.1 6.95 -165.15 7.65 -165.8 8.4 -166.6 9.4 -166.6 10.45 -166.6 11.25 -165.8 11.95 -165.15 11.95 -164.1 11.95 -163.05 11.25 -162.3 M-6.95 -165.85 Q-6.25 -165.2 -6.25 -164.15 -6.25 -163.15 -6.95 -162.35 -7.75 -161.65 -8.7 -161.65 -9.75 -161.65 -10.55 -162.35 -11.25 -163.15 -11.25 -164.15 L-11.05 -165.1 -10.55 -165.85 Q-9.75 -166.65 -8.7 -166.65 -7.75 -166.65 -6.95 -165.85" fill="#ffffff" fill-rule="evenodd" stroke="none"/>
    <path d="M25.5 -153.9 L25.15 -154.25 Q24.85 -156.0 25.6 -158.6 L25.65 -158.7 Q26.65 -162.05 28.85 -162.05 30.95 -162.05 32.25 -160.45 33.15 -159.3 33.35 -157.8 L35.4 -157.85 35.35 -156.9 Q34.6 -149.6 26.15 -146.75 25.5 -148.45 24.95 -150.65 L24.95 -150.7 26.4 -150.7 Q27.25 -152.55 25.5 -153.9 M1.25 -155.4 L2.9 -156.05 Q6.95 -156.95 6.65 -153.75 6.55 -153.1 5.45 -153.0 L5.15 -153.95 5.15 -154.5 2.9 -154.7 Q2.15 -154.5 1.75 -153.5 L1.6 -153.05 1.5 -153.0 Q1.15 -152.6 0.6 -152.6 -0.05 -152.6 -0.6 -153.0 L-0.8 -153.05 -0.9 -153.5 Q-1.35 -154.5 -2.1 -154.7 L-4.35 -154.5 -4.35 -153.95 -4.6 -153.0 Q-5.7 -153.1 -5.8 -153.75 -6.1 -156.95 -2.1 -156.05 L-0.45 -155.4 1.25 -155.4 M-31.4 -160.45 Q-30.15 -162.05 -27.95 -162.05 -25.85 -162.05 -24.9 -158.7 L-24.85 -158.6 Q-24.05 -156.0 -24.25 -154.25 L-24.7 -153.9 Q-26.45 -152.55 -25.55 -150.7 L-24.1 -150.7 -24.1 -150.65 -25.35 -146.75 Q-33.8 -149.6 -34.6 -156.9 L-34.65 -157.85 -32.55 -157.8 Q-32.35 -159.3 -31.4 -160.45" fill="#000000" fill-opacity="0.2509804" fill-rule="evenodd" stroke="none"/>
    <path d="M11.25 -162.3 Q11.95 -163.05 11.95 -164.1 11.95 -165.15 11.25 -165.8 10.45 -166.6 9.4 -166.6 8.4 -166.6 7.65 -165.8 6.95 -165.15 6.95 -164.1 6.95 -163.05 7.65 -162.3 8.4 -161.55 9.4 -161.55 L10.45 -161.75 11.25 -162.3 M13.0 -164.15 Q13.0 -162.75 12.1 -161.7 L11.95 -161.65 10.6 -160.75 9.5 -160.6 8.1 -160.8 Q7.55 -161.05 6.95 -161.65 5.9 -162.7 5.9 -164.15 5.9 -165.6 6.95 -166.65 7.45 -167.1 8.0 -167.35 L8.1 -167.4 9.5 -167.7 Q10.9 -167.7 11.95 -166.65 13.0 -165.6 13.0 -164.15 M-7.2 -167.35 L-6.15 -166.65 -6.05 -166.5 Q-5.15 -165.55 -5.15 -164.15 -5.15 -162.75 -6.05 -161.75 L-6.15 -161.65 Q-6.7 -161.1 -7.3 -160.8 L-8.65 -160.6 Q-10.05 -160.6 -11.05 -161.5 L-11.2 -161.65 -11.35 -161.85 Q-12.2 -162.8 -12.2 -164.15 L-12.0 -165.3 -11.2 -166.65 Q-10.15 -167.7 -8.65 -167.7 L-7.3 -167.4 -7.2 -167.35 M-6.95 -165.85 Q-7.75 -166.65 -8.7 -166.65 -9.75 -166.65 -10.55 -165.85 L-11.05 -165.1 -11.25 -164.15 Q-11.25 -163.15 -10.55 -162.35 -9.75 -161.65 -8.7 -161.65 -7.75 -161.65 -6.95 -162.35 -6.25 -163.15 -6.25 -164.15 -6.25 -165.2 -6.95 -165.85" fill="#000000" fill-rule="evenodd" stroke="none"/>
  </g>
</svg>
