<?xml version="1.0" encoding="UTF-8" standalone="no"?>
<svg xmlns:xlink="http://www.w3.org/1999/xlink" height="51.15px" width="30.55px" xmlns="http://www.w3.org/2000/svg">
  <g transform="matrix(1.0, 0.0, 0.0, 1.0, 15.4, 164.8)">
    <path d="M7.85 -161.7 L7.85 -161.75 10.55 -163.2 10.65 -162.6 Q10.65 -162.05 10.15 -161.5 9.55 -161.0 8.9 -161.0 8.1 -161.0 7.85 -161.7 M-8.1 -161.7 Q-8.4 -161.0 -9.15 -161.0 -9.8 -161.0 -10.4 -161.5 L-10.9 -162.6 -10.8 -163.2 -8.1 -161.75 -8.1 -161.7" fill="#ffffff" fill-rule="evenodd" stroke="none"/>
    <path d="M10.55 -163.2 L13.4 -164.7 13.7 -164.8 13.85 -164.5 13.7 -162.8 Q13.3 -161.5 12.15 -160.9 L10.85 -160.35 Q9.5 -159.8 8.5 -159.8 L7.95 -159.9 7.1 -160.2 6.1 -160.9 7.85 -161.7 Q8.1 -161.0 8.9 -161.0 9.55 -161.0 10.15 -161.5 10.65 -162.05 10.65 -162.6 L10.55 -163.2 M-8.1 -161.7 L-6.3 -160.9 -7.35 -160.2 Q-7.8 -160.0 -8.1 -159.9 L-8.75 -159.8 Q-9.75 -159.8 -11.1 -160.35 L-12.4 -160.9 Q-13.6 -161.5 -13.95 -162.8 L-14.1 -164.5 -13.95 -164.8 -13.65 -164.7 -10.8 -163.2 -10.9 -162.6 -10.4 -161.5 Q-9.8 -161.0 -9.15 -161.0 -8.4 -161.0 -8.1 -161.7" fill="#000000" fill-rule="evenodd" stroke="none"/>
    <path d="M8.05 -130.35 Q8.7 -129.55 8.7 -127.9 L8.45 -126.6 8.7 -126.55 9.15 -125.35 Q9.55 -124.15 9.55 -122.85 9.6 -120.95 9.1 -119.2 8.6 -117.3 7.0 -116.2 L5.9 -115.5 Q0.0 -111.8 -5.85 -115.5 L-6.0 -115.6 -6.1 -115.5 -7.3 -116.2 Q-8.85 -117.3 -9.35 -119.2 -9.9 -120.95 -9.8 -122.85 -9.8 -124.15 -9.4 -125.35 L-8.95 -126.55 -8.7 -126.6 -8.95 -127.9 Q-8.95 -129.55 -8.3 -130.35 -7.85 -130.95 -7.15 -131.15 -5.65 -132.7 -5.0 -135.3 L-3.4 -157.0 -3.1 -158.15 -2.45 -159.8 Q-1.45 -160.55 -0.2 -160.25 L-0.05 -160.25 Q1.15 -160.55 2.2 -159.8 L2.85 -158.15 3.1 -157.0 4.75 -135.3 Q5.4 -132.7 6.9 -131.15 7.6 -130.95 8.05 -130.35" fill="#000000" fill-opacity="0.2509804" fill-rule="evenodd" stroke="none"/>
    <path d="M2.85 -158.15 L3.2 -158.25 5.6 -158.4 7.55 -158.2 8.5 -157.95 Q11.95 -156.85 15.0 -154.35 L15.15 -154.25 Q15.2 -151.25 13.8 -148.9 13.9 -146.05 12.3 -144.3 L12.15 -142.9 Q12.0 -141.1 11.25 -139.4 11.35 -136.2 9.8 -134.1 L9.8 -133.95 9.75 -133.9 Q9.95 -131.8 8.3 -130.65 L8.05 -130.35 Q7.6 -130.95 6.9 -131.15 5.4 -132.7 4.75 -135.3 L3.1 -157.0 2.85 -158.15 M-8.3 -130.35 L-8.6 -130.65 Q-10.2 -131.8 -10.0 -133.9 L-10.0 -133.95 -10.05 -134.1 Q-11.65 -136.2 -11.5 -139.4 -12.3 -141.1 -12.4 -142.9 L-12.55 -144.3 Q-14.15 -146.05 -13.95 -148.9 -15.45 -151.25 -15.4 -154.25 L-15.25 -154.35 Q-12.2 -156.85 -8.75 -157.95 L-7.8 -158.2 -5.85 -158.4 -3.45 -158.25 -3.1 -158.15 -3.4 -157.0 -5.0 -135.3 Q-5.65 -132.7 -7.15 -131.15 -7.85 -130.95 -8.3 -130.35" fill="#000000" fill-opacity="0.49803922" fill-rule="evenodd" stroke="none"/>
  </g>
</svg>
