<?xml version="1.0" encoding="UTF-8" standalone="no"?>
<svg xmlns:xlink="http://www.w3.org/1999/xlink" height="62.6px" width="75.7px" xmlns="http://www.w3.org/2000/svg">
  <g transform="matrix(1.0, 0.0, 0.0, 1.0, 38.5, 184.6)">
    <path d="M-10.85 -162.1 L-10.85 -162.15 -10.65 -162.3 -10.85 -162.1" fill="#cc9966" fill-rule="evenodd" stroke="none"/>
    <path d="M14.25 -167.8 L17.15 -167.6 18.8 -167.15 19.1 -167.05 19.7 -166.75 19.1 -166.1 18.8 -165.85 16.45 -164.15 16.3 -164.3 Q16.75 -164.8 16.75 -165.55 16.75 -166.4 16.0 -167.05 15.25 -167.7 14.25 -167.7 L14.25 -167.8 M13.15 -163.2 L9.6 -164.7 11.0 -166.75 Q12.35 -167.5 13.7 -167.75 L13.7 -167.6 Q13.0 -167.55 12.5 -167.05 11.7 -166.4 11.7 -165.55 11.7 -164.7 12.5 -164.05 12.85 -163.7 13.25 -163.5 L13.15 -163.2 M6.1 -150.25 Q6.8 -151.0 6.95 -151.9 L7.0 -152.15 7.15 -152.15 Q8.2 -151.95 8.05 -151.0 L8.05 -149.55 Q7.3 -150.35 6.1 -150.25 M-9.35 -149.55 L-9.35 -151.0 Q-9.5 -151.9 -8.45 -152.15 L-8.3 -152.15 -8.25 -151.9 Q-8.2 -150.9 -7.45 -150.25 -8.6 -150.35 -9.35 -149.55 M-17.75 -164.1 Q-19.05 -164.8 -20.1 -165.75 L-20.4 -166.05 -21.05 -166.75 -20.4 -167.05 -20.1 -167.1 -18.45 -167.55 -15.55 -167.75 -15.55 -167.7 Q-16.55 -167.7 -17.3 -167.05 -18.05 -166.4 -18.05 -165.55 -18.05 -164.8 -17.6 -164.25 L-17.75 -164.1 M-15.0 -167.7 Q-13.65 -167.5 -12.3 -166.7 L-10.9 -164.7 -14.45 -163.15 -14.6 -163.5 -13.8 -164.0 Q-13.0 -164.65 -13.0 -165.55 -13.0 -166.4 -13.8 -167.05 L-15.0 -167.6 -15.0 -167.7" fill="#ffffff" fill-rule="evenodd" stroke="none"/>
    <path d="M-7.95 -161.0 Q-7.75 -161.45 -5.9 -162.4 -3.65 -163.7 -0.65 -163.0 L-0.65 -163.05 Q2.25 -163.7 4.6 -162.5 6.45 -161.45 6.65 -161.05 L6.65 -160.85 6.55 -160.85 5.35 -158.85 Q4.4 -157.35 2.1 -157.0 L2.1 -157.85 2.55 -158.6 Q1.35 -157.35 -0.5 -156.95 L-0.3 -150.9 Q3.4 -151.05 6.0 -150.15 L6.05 -150.2 6.1 -150.25 Q7.3 -150.35 8.05 -149.55 L8.0 -149.3 5.9 -149.7 4.1 -149.95 -0.3 -150.4 -0.65 -150.4 -1.05 -150.35 -5.4 -149.95 -7.2 -149.6 -9.3 -149.2 -9.35 -149.55 Q-8.6 -150.35 -7.45 -150.25 L-7.35 -150.15 -7.3 -150.15 Q-4.75 -151.0 -1.05 -150.85 L-0.8 -156.95 Q-2.65 -157.3 -3.9 -158.5 L-3.4 -157.8 -3.4 -157.0 Q-5.7 -157.3 -6.65 -158.85 L-7.85 -160.75 -7.95 -160.75 -7.95 -161.0" fill="#000000" fill-rule="evenodd" stroke="none"/>
    <path d="M24.65 -177.05 L24.9 -177.1 Q24.35 -178.4 24.35 -179.1 24.35 -180.15 25.4 -180.9 26.45 -181.6 27.75 -181.6 28.15 -181.6 28.4 -181.25 L29.1 -180.3 Q31.65 -177.45 32.1 -177.45 L32.9 -178.2 33.1 -177.55 33.65 -175.85 33.95 -174.65 33.45 -173.15 Q33.1 -172.15 32.35 -171.45 31.35 -169.0 29.95 -166.7 L28.75 -165.35 27.75 -168.8 Q27.15 -173.15 24.95 -176.65 L24.65 -177.05 M36.7 -181.85 Q37.0 -181.65 37.1 -180.25 L37.2 -178.8 Q37.2 -177.9 36.55 -177.9 35.8 -177.9 35.25 -180.25 L34.9 -181.6 Q34.7 -182.5 34.85 -183.15 L35.4 -181.8 35.4 -181.65 36.7 -182.0 36.7 -181.85 M3.75 -179.5 Q6.35 -180.55 9.15 -180.7 L14.45 -179.9 15.4 -179.65 14.45 -179.7 9.3 -179.75 6.95 -179.65 Q2.8 -178.35 -0.65 -176.6 L-0.65 -176.45 Q-4.1 -178.35 -8.25 -179.6 L-10.6 -179.75 Q-13.2 -179.9 -15.75 -179.65 L-16.75 -179.6 -15.75 -179.9 Q-13.2 -180.7 -10.45 -180.6 -7.65 -180.55 -5.05 -179.45 L-0.65 -177.55 Q1.6 -178.45 3.75 -179.5 M3.2 -183.6 L3.4 -183.6 4.7 -183.95 3.45 -183.2 2.15 -182.55 -0.65 -180.9 -0.65 -180.75 -3.45 -182.5 -4.75 -183.2 -6.05 -183.85 -4.7 -183.6 -4.5 -183.6 Q-3.4 -183.35 -2.35 -182.75 L-0.65 -181.8 -0.65 -181.85 1.05 -182.85 3.2 -183.6 M17.05 -175.6 L13.65 -175.35 Q11.05 -175.05 8.7 -174.0 L4.5 -171.9 Q2.0 -170.65 -0.65 -169.85 L-0.65 -169.75 Q-3.3 -170.6 -5.8 -171.9 L-10.0 -173.9 Q-12.35 -175.05 -14.95 -175.3 L-18.35 -175.6 -12.65 -175.95 Q-9.95 -175.3 -7.55 -173.85 -5.2 -172.55 -2.8 -171.65 L-0.7 -170.95 -0.6 -170.95 1.5 -171.65 Q3.85 -172.6 6.25 -173.9 8.65 -175.3 11.35 -176.0 14.25 -176.65 17.05 -175.6 M-22.7 -170.35 L-23.45 -169.95 -23.6 -169.95 Q-24.45 -169.45 -25.35 -169.7 -26.2 -169.95 -25.6 -170.75 -23.9 -173.4 -20.35 -173.15 -16.75 -172.8 -13.5 -170.6 -10.35 -168.35 -7.15 -166.85 -4.05 -165.3 -3.95 -169.1 L-2.45 -167.8 Q-3.0 -166.7 -3.75 -166.0 L-0.65 -166.65 -0.65 -166.7 2.45 -166.05 Q1.6 -166.7 1.1 -167.9 L2.65 -169.2 Q2.75 -165.35 5.85 -166.85 8.95 -168.4 12.2 -170.6 15.4 -172.8 19.0 -173.15 22.55 -173.45 24.3 -170.85 24.9 -169.95 24.0 -169.7 23.15 -169.45 22.3 -169.95 L22.15 -170.0 21.4 -170.4 17.35 -171.05 Q13.8 -170.75 11.35 -168.25 9.35 -166.25 6.7 -165.45 L4.4 -165.2 4.95 -164.65 4.95 -164.45 8.95 -162.5 8.9 -162.35 7.85 -161.55 Q7.2 -161.1 6.75 -161.05 L6.65 -161.05 Q6.45 -161.45 4.6 -162.5 2.25 -163.7 -0.65 -163.05 L-0.65 -163.0 Q-3.65 -163.7 -5.9 -162.4 -7.75 -161.45 -7.95 -161.0 L-8.05 -161.05 Q-8.5 -161.1 -9.15 -161.55 L-10.2 -162.35 -10.35 -162.5 -6.25 -164.3 -6.25 -164.65 -5.7 -165.2 -8.0 -165.4 Q-10.65 -166.2 -12.65 -168.25 -15.1 -170.75 -18.65 -171.0 -20.75 -171.15 -22.7 -170.35 M18.7 -160.25 L20.35 -155.25 Q21.25 -152.55 21.65 -149.7 22.1 -146.95 21.75 -144.2 L21.25 -141.35 21.0 -141.4 19.3 -144.75 17.2 -151.65 16.25 -153.85 Q15.25 -156.25 13.7 -158.3 12.1 -160.65 9.6 -162.1 11.85 -161.3 13.9 -160.2 16.4 -158.9 18.7 -160.25 M27.3 -154.25 Q27.95 -151.45 26.8 -148.75 L26.05 -147.1 24.85 -159.3 Q26.7 -157.1 27.3 -154.25 M12.35 -132.8 Q14.1 -126.1 16.5 -124.05 L17.15 -123.55 16.3 -122.0 15.25 -123.05 Q13.25 -125.15 12.35 -127.85 11.5 -130.5 11.3 -133.25 11.05 -135.7 11.3 -138.15 11.65 -135.45 12.35 -132.8 M7.3 -125.65 L8.1 -127.3 Q8.65 -125.25 9.7 -123.4 L10.05 -122.85 7.3 -125.65 M0.05 -147.8 Q2.85 -147.4 4.3 -144.95 L4.4 -144.65 4.7 -143.85 3.95 -144.55 Q2.15 -145.65 -0.05 -145.65 L-0.65 -145.6 -1.25 -145.6 Q-3.45 -145.65 -5.35 -144.5 L-6.05 -143.85 -5.7 -144.6 -5.7 -144.65 -5.6 -144.95 Q-4.15 -147.4 -1.35 -147.75 L-0.65 -147.85 -0.65 -148.0 0.05 -147.8 M-34.2 -178.15 L-33.45 -177.45 Q-32.95 -177.45 -30.4 -180.3 L-29.7 -181.2 -29.05 -181.45 Q-27.75 -181.45 -26.8 -180.75 -25.65 -180.05 -25.65 -179.1 -25.65 -178.35 -26.2 -177.1 L-25.95 -177.0 -26.25 -176.65 Q-28.45 -173.15 -29.05 -168.7 L-30.05 -165.3 -31.25 -166.65 Q-32.65 -169.0 -33.65 -171.45 -34.4 -172.15 -34.75 -173.1 L-35.25 -174.65 -34.95 -175.75 -34.4 -177.5 -34.2 -178.15 M-38.0 -182.0 L-37.95 -182.0 -36.8 -181.65 -36.8 -181.8 -36.15 -183.1 -36.2 -181.6 -36.2 -181.45 -36.55 -180.15 Q-37.1 -177.8 -37.85 -177.8 -38.5 -177.8 -38.5 -178.8 L-38.4 -180.15 Q-38.3 -181.6 -38.0 -181.8 L-38.0 -182.0 M-20.0 -160.25 Q-17.7 -158.85 -15.2 -160.2 L-10.9 -162.05 Q-13.4 -160.6 -15.0 -158.3 -16.55 -156.2 -17.55 -153.75 L-18.5 -151.55 -20.6 -144.75 -22.3 -141.35 -22.55 -141.35 -23.05 -144.2 Q-23.4 -146.95 -22.95 -149.7 -22.55 -152.45 -21.75 -155.25 L-20.0 -160.25 M-28.6 -154.25 Q-28.0 -157.0 -26.15 -159.3 L-27.35 -147.0 -28.1 -148.75 Q-29.25 -151.35 -28.6 -154.25 M-12.55 -138.1 Q-12.35 -135.65 -12.6 -133.25 -12.8 -130.45 -13.65 -127.85 -14.6 -125.15 -16.55 -123.05 L-17.6 -122.0 -18.45 -123.5 -17.8 -124.0 Q-15.4 -126.0 -13.65 -132.8 -12.95 -135.4 -12.6 -138.1 L-12.55 -138.1 M-8.5 -125.65 L-11.35 -122.85 -11.05 -123.4 Q-9.95 -125.25 -9.5 -127.25 L-8.5 -125.65" fill="#000000" fill-opacity="0.2509804" fill-rule="evenodd" stroke="none"/>
    <path d="M32.9 -178.2 L32.1 -177.45 Q31.65 -177.45 29.1 -180.3 L28.4 -181.25 Q28.15 -181.6 27.75 -181.6 26.45 -181.6 25.4 -180.9 24.35 -180.15 24.35 -179.1 24.35 -178.4 24.9 -177.1 L24.65 -177.05 21.95 -181.2 23.55 -183.1 23.85 -183.35 Q24.1 -183.4 24.25 -183.55 L24.65 -183.8 25.1 -183.95 25.55 -184.15 27.95 -184.6 28.9 -184.6 29.55 -183.8 30.3 -182.9 30.95 -182.0 31.5 -181.05 32.05 -180.15 32.9 -178.2 M16.45 -164.15 L18.8 -165.85 19.1 -166.1 19.7 -166.75 19.1 -167.05 18.8 -167.15 17.15 -167.6 14.25 -167.8 13.7 -167.75 Q12.35 -167.5 11.0 -166.75 L9.6 -164.7 13.15 -163.2 13.25 -163.15 14.3 -163.35 14.55 -163.4 Q15.25 -163.45 15.85 -163.9 L16.45 -164.15 M-22.7 -170.35 Q-20.75 -171.15 -18.65 -171.0 -15.1 -170.75 -12.65 -168.25 -10.65 -166.2 -8.0 -165.4 L-5.7 -165.2 -6.25 -164.65 -6.25 -164.3 -10.35 -162.5 -10.65 -162.3 -10.85 -162.15 -10.85 -162.1 -10.9 -162.1 -10.9 -162.05 -15.2 -160.2 Q-17.7 -158.85 -20.0 -160.25 L-20.55 -160.6 Q-22.55 -162.5 -22.95 -165.35 -23.4 -167.75 -22.7 -170.3 L-22.7 -170.35 M8.95 -162.5 L4.95 -164.45 4.95 -164.65 4.4 -165.2 6.7 -165.45 Q9.35 -166.25 11.35 -168.25 13.8 -170.75 17.35 -171.05 L21.4 -170.4 21.4 -170.3 Q22.05 -167.8 21.65 -165.35 21.25 -162.55 19.25 -160.65 L18.7 -160.25 Q16.4 -158.9 13.9 -160.2 11.85 -161.3 9.6 -162.1 L9.55 -162.15 9.35 -162.35 8.95 -162.5 M-34.2 -178.15 L-33.35 -180.05 -32.8 -181.05 -32.25 -182.0 -31.6 -182.85 -30.85 -183.75 -30.2 -184.5 -29.25 -184.6 -26.85 -184.15 -26.4 -183.95 -25.95 -183.75 -25.55 -183.5 -25.15 -183.3 -24.9 -183.0 -23.25 -181.15 -25.95 -177.0 -26.2 -177.1 Q-25.65 -178.35 -25.65 -179.1 -25.65 -180.05 -26.8 -180.75 -27.75 -181.45 -29.05 -181.45 L-29.7 -181.2 -30.4 -180.3 Q-32.95 -177.45 -33.45 -177.45 L-34.2 -178.15 M-15.55 -167.75 L-18.45 -167.55 -20.1 -167.1 -20.4 -167.05 -21.05 -166.75 -20.4 -166.05 -20.1 -165.75 Q-19.05 -164.8 -17.75 -164.1 L-17.15 -163.85 Q-16.55 -163.45 -15.85 -163.4 L-15.6 -163.35 -14.6 -163.05 -14.45 -163.15 -10.9 -164.7 -12.3 -166.7 Q-13.65 -167.5 -15.0 -167.7 L-15.55 -167.75" fill="#000000" fill-opacity="0.49803922" fill-rule="evenodd" stroke="none"/>
  </g>
</svg>
