<?xml version="1.0" encoding="UTF-8" standalone="no"?>
<svg xmlns:xlink="http://www.w3.org/1999/xlink" height="18.05px" width="43.65px" xmlns="http://www.w3.org/2000/svg">
  <g transform="matrix(1.0, 0.0, 0.0, 1.0, 21.95, 167.55)">
    <path d="M19.05 -167.5 L17.2 -165.85 Q16.1 -152.35 7.35 -155.8 L5.45 -154.4 Q9.55 -168.15 19.05 -167.5 M-19.3 -167.5 Q-9.8 -168.15 -5.7 -154.4 L-7.6 -155.8 Q-16.4 -152.35 -17.5 -165.85 L-19.3 -167.5" fill="#ffffff" fill-opacity="0.5019608" fill-rule="evenodd" stroke="none"/>
    <path d="M21.7 -164.15 Q19.75 -147.2 8.3 -149.85 15.1 -149.7 20.95 -162.5 L21.7 -164.15 M-21.95 -164.15 L-21.2 -162.5 Q-15.35 -149.7 -8.6 -149.85 -20.0 -147.2 -21.95 -164.15" fill="#000000" fill-opacity="0.2509804" fill-rule="evenodd" stroke="none"/>
  </g>
</svg>
