<?xml version="1.0" encoding="UTF-8" standalone="no"?>
<svg xmlns:xlink="http://www.w3.org/1999/xlink" height="65.5px" width="45.65px" xmlns="http://www.w3.org/2000/svg">
  <g transform="matrix(1.0, 0.0, 0.0, 1.0, -377.1, -120.85)">
    <path d="M386.35 120.95 Q387.9 120.8 389.45 120.95 391.25 120.95 392.9 121.6 L394.9 122.15 394.85 122.0 394.7 121.5 394.6 121.25 394.5 121.05 394.5 121.0 394.65 121.05 394.9 121.05 396.1 121.25 Q398.25 121.5 399.9 123.0 401.6 121.5 403.75 121.25 L404.9 121.05 405.3 121.0 405.1 121.5 405.0 122.0 404.9 122.15 406.95 121.6 Q408.55 120.95 410.4 120.95 411.95 120.8 413.5 120.95 L414.6 121.0 415.2 121.05 414.35 122.35 413.5 123.45 413.0 124.05 415.6 124.3 414.3 125.05 Q419.75 126.65 419.2 129.85 L419.35 129.9 420.05 130.45 Q421.6 131.35 422.45 133.05 423.05 134.2 422.35 135.55 421.8 136.55 420.6 137.1 L420.3 137.25 Q420.15 137.25 420.0 137.4 L419.85 137.4 419.6 137.45 Q418.0 137.95 416.8 138.75 L417.0 140.55 Q417.0 142.7 416.8 143.25 416.6 143.95 415.05 145.65 L415.2 145.75 Q415.25 148.75 413.8 151.1 413.95 153.95 412.35 155.7 L412.2 157.1 Q412.05 158.9 411.3 160.6 411.4 163.75 409.85 165.9 L409.85 166.05 409.8 166.1 Q410.0 168.2 408.15 169.7 408.75 170.55 408.75 172.1 L408.5 173.4 409.2 174.65 Q409.6 175.85 409.6 177.15 409.65 179.05 409.15 180.8 408.65 182.7 407.05 183.8 L405.95 184.5 Q400.05 188.2 394.05 184.4 L393.95 184.5 392.75 183.8 Q391.2 182.7 390.7 180.8 390.15 179.05 390.25 177.15 390.25 175.85 390.6 174.65 390.8 174.05 391.35 173.4 L391.1 172.1 Q391.1 170.45 391.75 169.6 389.85 168.2 390.05 166.1 L390.05 166.05 389.95 165.9 Q388.4 163.75 388.55 160.6 387.75 158.9 387.65 157.1 L387.5 155.7 Q385.9 153.95 386.05 151.1 384.6 148.75 384.65 145.75 L384.75 145.65 Q383.2 143.95 383.0 143.25 382.8 142.7 382.8 140.55 L383.0 138.75 Q381.85 137.95 380.2 137.45 378.2 136.85 377.5 135.55 376.8 134.2 377.35 133.05 378.2 131.35 379.75 130.45 L380.55 129.9 380.6 129.85 Q380.1 126.65 385.55 125.05 L384.25 124.3 386.85 124.05 386.35 123.45 385.5 122.35 384.65 121.05 385.25 121.0 386.35 120.95 M386.05 135.15 L385.95 135.5 386.05 137.2 Q386.45 138.5 387.65 139.05 L388.95 139.65 391.25 140.2 391.9 140.1 392.7 139.8 393.75 139.05 391.9 138.3 391.9 138.25 389.25 136.8 386.4 135.3 386.05 135.15 M413.45 135.3 L410.6 136.8 407.9 138.25 407.9 138.3 406.15 139.05 407.15 139.8 408.0 140.1 408.55 140.2 Q409.55 140.2 410.9 139.65 L412.2 139.05 Q413.35 138.5 413.75 137.2 L413.9 135.5 413.75 135.15 413.45 135.3" fill="#000000" fill-rule="evenodd" stroke="none"/>
  </g>
</svg>
