<?xml version="1.0" encoding="UTF-8" standalone="no"?>
<svg xmlns:xlink="http://www.w3.org/1999/xlink" height="81.25px" width="79.15px" xmlns="http://www.w3.org/2000/svg">
  <g transform="matrix(1.0, 0.0, 0.0, 1.0, -360.35, -106.5)">
    <path d="M389.15 111.4 L392.5 110.85 Q394.0 111.05 395.95 112.7 397.5 114.0 399.15 114.65 L399.8 114.9 399.9 114.95 400.1 114.9 400.75 114.65 403.9 112.7 Q405.85 111.05 407.35 110.85 L410.75 111.4 413.9 112.15 416.5 113.45 419.8 114.9 422.45 111.7 Q424.4 109.25 426.05 108.8 L426.15 108.8 427.6 107.95 428.9 106.5 Q429.3 106.75 429.8 107.95 L430.25 109.1 430.45 109.55 431.1 111.95 Q431.45 114.85 430.6 117.8 430.2 119.1 429.05 119.75 L427.65 120.55 427.65 120.6 428.2 122.05 429.95 124.65 Q431.85 127.0 432.0 129.15 L432.0 131.8 432.15 131.9 432.3 132.0 Q432.65 133.5 434.55 136.6 L437.3 140.95 437.4 141.2 Q439.25 144.1 439.5 146.75 L439.5 146.8 Q439.7 149.8 437.95 152.55 L437.4 153.1 435.1 155.3 434.55 155.7 Q431.25 158.3 427.95 159.3 L428.0 159.5 428.2 160.0 Q429.3 164.3 429.15 168.9 L429.15 169.35 428.9 172.1 Q428.0 178.05 423.5 182.1 L420.85 183.85 420.7 183.9 Q419.2 185.75 417.35 186.5 L415.75 186.9 413.5 187.25 412.25 187.35 410.7 187.45 408.1 187.65 Q406.1 187.9 400.1 187.55 L399.9 187.55 399.7 187.55 Q393.75 187.9 391.8 187.65 L389.15 187.45 386.35 187.25 384.05 186.9 382.5 186.5 Q380.6 185.75 379.1 183.9 L379.0 183.85 376.4 182.1 Q371.85 178.05 370.95 172.1 L370.75 169.35 370.75 168.9 Q370.55 164.3 371.7 160.0 L371.85 159.5 Q368.6 158.3 365.35 155.7 L364.8 155.3 362.4 153.1 361.9 152.55 Q360.15 149.8 360.35 146.8 L360.35 146.75 Q360.6 144.1 362.4 141.2 L362.55 140.95 365.35 136.6 Q367.15 133.5 367.6 132.0 L367.7 131.9 367.8 131.8 367.8 129.15 Q368.0 127.0 369.9 124.65 L371.6 122.1 371.65 122.05 372.15 120.55 370.8 119.75 Q369.65 119.1 369.3 117.8 368.4 114.85 368.7 111.95 368.8 111.25 369.45 109.55 L369.55 109.1 370.1 107.95 Q370.6 106.75 370.95 106.5 L372.25 107.95 373.65 108.8 373.8 108.8 Q375.4 109.25 377.35 111.7 L380.1 114.9 383.35 113.45 386.0 112.15 389.15 111.4 M375.85 122.65 L374.45 122.5 Q374.05 124.3 375.35 126.0 376.6 127.7 378.35 127.9 L378.75 127.85 381.9 127.3 381.8 127.2 381.0 126.25 Q378.0 122.8 375.85 122.65 M424.5 126.0 Q425.8 124.3 425.4 122.5 L424.05 122.65 Q421.8 122.8 418.85 126.25 L418.05 127.2 421.1 127.85 421.5 127.9 Q423.25 127.7 424.5 126.0" fill="#000000" fill-rule="evenodd" stroke="none"/>
  </g>
</svg>
