<?xml version="1.0" encoding="UTF-8" standalone="no"?>
<svg xmlns:xlink="http://www.w3.org/1999/xlink" height="40.3px" width="184.6px" xmlns="http://www.w3.org/2000/svg">
  <g transform="matrix(1.0, 0.0, 0.0, 1.0, -307.6, -181.35)">
    <path d="M346.55 184.7 Q347.7 181.9 351.75 181.35 L363.9 181.35 374.5 192.9 Q391.25 210.2 417.85 212.45 416.25 214.85 416.25 217.95 L416.3 218.65 Q416.35 220.25 416.95 221.65 398.2 218.1 382.5 212.7 L338.35 197.4 337.65 197.35 Q327.7 196.2 319.9 198.25 312.9 200.1 307.6 204.55 311.45 189.6 323.95 184.6 L330.75 186.6 Q338.65 184.75 346.55 184.7 M453.25 184.7 Q461.15 184.75 469.05 186.6 L475.85 184.6 Q488.35 189.6 492.2 204.55 486.9 200.1 479.9 198.25 472.1 196.2 462.15 197.35 L461.45 197.4 456.55 199.25 Q452.25 200.95 448.45 203.0 440.8 209.3 436.25 218.65 L436.25 217.95 Q436.25 215.05 434.85 212.8 L433.3 210.85 Q431.85 209.4 430.05 208.65 428.3 207.95 426.25 207.95 L424.85 208.05 Q421.6 208.45 419.15 210.85 L418.65 211.45 Q419.15 206.75 422.1 201.4 428.4 190.0 435.9 181.35 L448.05 181.35 Q452.1 181.9 453.25 184.7" fill="#000000" fill-rule="evenodd" stroke="none"/>
  </g>
</svg>
