<?xml version="1.0" encoding="UTF-8" standalone="no"?>
<svg xmlns:xlink="http://www.w3.org/1999/xlink" height="36.65px" width="235.2px" xmlns="http://www.w3.org/2000/svg">
  <g transform="matrix(1.0, 0.0, 0.0, 1.0, -282.3, -183.15)">
    <path d="M511.3 194.15 Q515.9 191.95 517.4 193.2 517.95 194.35 515.7 195.4 L510.15 199.0 Q503.0 203.8 496.55 209.15 L481.7 219.8 Q468.65 219.5 458.05 217.8 443.05 217.6 430.5 215.65 L427.8 215.85 Q420.15 213.75 414.8 211.1 L408.35 211.8 402.6 211.95 400.9 211.95 398.9 211.95 397.2 211.95 391.45 211.8 385.0 211.1 Q379.65 213.75 372.0 215.85 L369.3 215.65 Q356.75 217.6 341.75 217.8 331.15 219.5 318.1 219.8 L303.25 209.15 Q296.8 203.8 289.65 199.0 L284.1 195.4 Q281.85 194.35 282.4 193.2 283.9 191.95 288.5 194.15 L293.25 198.45 Q304.95 208.5 319.05 215.95 L336.05 214.75 Q321.25 206.55 309.05 197.2 L306.1 194.85 302.85 194.75 302.6 194.75 Q300.0 188.15 308.7 191.95 L314.35 196.75 Q326.5 206.4 340.85 212.4 351.15 213.95 361.45 212.55 346.65 204.5 332.75 195.3 L327.8 192.0 320.5 192.0 Q322.95 185.1 330.5 188.5 334.55 191.75 338.9 194.85 352.4 204.45 368.7 212.55 376.05 211.85 378.8 210.0 L378.75 209.75 Q368.1 201.85 358.3 193.3 L354.8 190.2 352.95 188.5 343.95 188.5 Q347.6 183.0 355.8 187.9 L355.9 187.95 355.8 187.95 356.1 188.25 358.2 190.2 361.3 193.05 Q369.0 199.95 378.05 206.35 L376.6 201.2 Q375.0 196.4 372.85 192.25 L372.8 192.15 371.75 190.2 369.35 186.5 369.35 186.4 369.4 186.25 370.0 183.15 371.7 185.65 373.85 189.25 374.35 190.2 Q377.2 195.6 378.75 201.4 379.55 204.65 380.0 208.0 L380.05 208.2 380.05 208.35 Q388.65 210.15 397.2 210.4 L399.6 210.45 400.2 210.45 402.6 210.4 Q411.15 210.15 419.75 208.35 L419.75 208.2 419.8 208.0 Q420.25 204.65 421.05 201.4 422.6 195.6 425.45 190.2 L425.95 189.25 428.1 185.65 429.8 183.15 430.4 186.25 430.45 186.4 430.45 186.5 428.05 190.2 427.0 192.15 426.95 192.25 Q424.8 196.4 423.2 201.2 422.4 203.7 421.75 206.35 430.8 199.95 438.5 193.05 L441.6 190.2 443.7 188.25 444.0 187.95 443.9 187.95 444.0 187.9 Q452.2 183.0 455.85 188.5 L446.85 188.5 445.0 190.2 441.5 193.3 Q431.7 201.85 421.05 209.75 L421.0 210.0 Q423.75 211.85 431.1 212.55 447.4 204.45 460.9 194.85 L469.3 188.5 Q476.85 185.1 479.3 192.0 L472.0 192.0 467.05 195.3 Q453.15 204.5 438.35 212.55 448.65 213.95 458.95 212.4 473.3 206.4 485.45 196.75 L491.1 191.95 Q499.8 188.15 497.2 194.75 L496.95 194.75 493.7 194.85 490.75 197.2 Q478.55 206.55 463.75 214.75 L480.75 215.95 Q494.85 208.5 506.55 198.45 L511.3 194.15 M482.1 208.6 Q482.7 209.2 482.7 210.05 482.7 210.9 482.1 211.5 481.5 212.1 480.65 212.1 479.8 212.1 479.2 211.5 478.6 210.9 478.6 210.05 478.6 209.2 479.2 208.6 479.8 208.0 480.65 208.0 481.5 208.0 482.1 208.6 M459.35 209.25 Q458.75 209.85 457.9 209.85 457.05 209.85 456.45 209.25 455.85 208.65 455.85 207.8 455.85 206.95 456.45 206.35 457.05 205.75 457.9 205.75 458.75 205.75 459.35 206.35 459.95 206.95 459.95 207.8 459.95 208.65 459.35 209.25 M429.55 207.6 Q429.55 206.75 430.15 206.15 430.75 205.55 431.6 205.55 432.45 205.55 433.05 206.15 L433.5 206.8 433.65 207.6 Q433.65 208.45 433.05 209.05 432.45 209.65 431.6 209.65 430.75 209.65 430.15 209.05 L429.8 208.6 429.55 207.6 M317.7 208.6 Q318.3 208.0 319.15 208.0 320.0 208.0 320.6 208.6 321.2 209.2 321.2 210.05 321.2 210.9 320.6 211.5 320.0 212.1 319.15 212.1 318.3 212.1 317.7 211.5 317.1 210.9 317.1 210.05 317.1 209.2 317.7 208.6 M341.9 209.85 Q341.05 209.85 340.45 209.25 339.85 208.65 339.85 207.8 339.85 206.95 340.45 206.35 341.05 205.75 341.9 205.75 342.75 205.75 343.35 206.35 343.95 206.95 343.95 207.8 343.95 208.65 343.35 209.25 342.75 209.85 341.9 209.85 M366.75 206.15 Q367.35 205.55 368.2 205.55 369.05 205.55 369.65 206.15 370.25 206.75 370.25 207.6 L370.0 208.6 369.65 209.05 Q369.05 209.65 368.2 209.65 367.35 209.65 366.75 209.05 366.15 208.45 366.15 207.6 366.15 207.15 366.3 206.8 L366.75 206.15 M400.05 198.1 L400.6 198.1 403.4 198.35 403.9 198.45 406.75 199.25 Q405.95 205.85 399.9 208.6 393.85 205.85 393.05 199.25 394.45 198.75 395.9 198.45 L396.4 198.35 399.2 198.1 400.05 198.1" fill="#000000" fill-rule="evenodd" stroke="none"/>
  </g>
</svg>
