<?xml version="1.0" encoding="UTF-8" standalone="no"?>
<svg xmlns:xlink="http://www.w3.org/1999/xlink" height="120.9px" width="245.5px" xmlns="http://www.w3.org/2000/svg">
  <g transform="matrix(1.0, 0.0, 0.0, 1.0, -277.15, -162.5)">
    <path d="M358.55 187.85 L342.75 190.55 Q329.7 189.75 315.85 194.95 313.35 196.25 311.0 197.8 L310.35 198.25 Q307.3 200.35 304.75 203.05 299.9 208.2 296.85 215.25 L279.4 252.95 M358.55 187.85 L354.2 179.6 352.35 176.1 Q353.6 173.3 355.2 171.35 359.1 166.6 365.45 166.0 367.6 165.75 370.05 166.0 378.25 166.85 380.8 164.05 383.3 161.25 383.9 166.0 385.05 178.9 389.7 185.85 L391.65 188.35 392.65 189.35 395.45 191.4 Q397.35 189.75 399.9 189.75 402.45 189.75 404.4 191.35 405.85 190.45 407.1 189.35 L408.1 188.35 408.35 188.1 410.1 185.85 Q411.6 183.55 412.75 180.6 415.1 174.65 415.85 166.0 416.45 161.25 418.95 164.05 421.5 166.85 429.7 166.0 442.4 164.7 447.4 176.1 L445.55 179.6 441.15 188.0 457.05 190.55 Q470.1 189.75 483.95 194.95 L488.8 197.8 489.45 198.25 Q492.5 200.35 495.05 203.05 499.9 208.2 502.95 215.25 L520.4 252.95 522.15 256.7 Q510.0 269.9 491.45 271.25 483.15 271.3 475.65 274.7 472.8 276.0 470.05 277.8 452.75 285.65 428.65 281.4 421.85 281.15 421.55 270.1 420.2 243.8 412.4 224.7 408.35 214.8 400.7 204.15 L399.9 204.2 399.1 204.15 Q391.45 214.8 387.4 224.7 379.6 243.8 378.25 270.1 377.95 281.15 371.15 281.4 347.05 285.65 329.75 277.8 L324.15 274.7 Q316.65 271.3 308.35 271.25 289.8 269.9 277.65 256.7 L279.4 252.95" fill="none" stroke="#000000" stroke-linecap="round" stroke-linejoin="round" stroke-width="1.0"/>
    <path d="M279.4 252.95 Q283.45 256.15 287.45 258.65 298.05 265.15 308.7 266.25 315.05 266.8 320.75 268.45 325.75 269.95 330.1 272.3 347.35 281.2 365.8 277.0 372.05 276.05 372.15 268.45 374.05 237.5 385.0 217.0 388.6 210.35 394.9 202.05 L394.0 200.95 393.5 200.05 392.95 198.6 392.75 196.95 392.75 196.75 380.55 196.75 Q368.7 196.8 362.9 193.05 361.05 191.9 359.85 190.3 L358.55 187.85 M392.75 196.75 Q392.8 195.6 393.15 194.6 L393.8 193.25 Q390.05 191.35 387.9 188.35 L387.15 187.15 387.1 187.15 386.5 185.85 Q385.8 184.4 385.5 182.7 L381.3 168.05 Q376.1 170.55 369.4 169.3 L367.7 169.25 Q359.55 169.05 355.2 177.45 354.65 178.45 354.2 179.6 M393.8 193.25 L394.6 192.2 394.9 191.85 395.45 191.4 M399.85 192.95 Q400.15 192.95 400.35 194.1 L400.6 195.45 401.55 194.65 Q402.6 193.95 402.75 194.1 403.0 194.35 402.3 195.4 L401.55 196.35 402.75 196.5 Q404.0 196.7 404.0 197.05 404.0 197.35 402.75 197.5 L401.55 197.7 402.35 198.75 Q403.0 199.7 402.75 199.95 402.6 200.15 401.6 199.45 L400.6 198.65 400.35 199.95 Q400.15 201.15 399.85 201.15 399.55 201.15 399.3 199.95 L399.2 198.75 398.2 199.45 Q397.2 200.2 396.95 199.95 396.75 199.75 397.5 198.75 L398.25 197.75 396.95 197.5 Q395.8 197.35 395.8 197.05 395.8 196.7 396.95 196.5 L398.25 196.35 397.5 195.3 Q396.8 194.35 397.0 194.15 397.25 193.95 398.2 194.6 L399.2 195.4 399.3 194.1 Q399.55 192.95 399.85 192.95 M398.25 196.35 L398.9 197.05 398.25 197.75 M400.6 195.45 L399.9 196.0 399.2 195.4 M399.85 191.85 Q402.0 191.85 403.5 193.4 405.0 194.85 405.0 197.05 405.0 199.15 403.5 200.6 402.0 202.15 399.85 202.15 397.7 202.15 396.2 200.6 394.7 199.15 394.7 197.05 394.7 194.85 396.2 193.4 397.7 191.85 399.85 191.85 M401.55 196.35 L400.95 197.05 401.55 197.7 M400.7 204.15 L402.4 203.75 Q403.75 203.2 404.9 202.05 L405.8 200.95 406.3 200.05 406.85 198.6 407.05 196.95 407.05 196.75 406.65 194.6 406.65 194.55 406.35 193.9 406.0 193.25 405.2 192.2 404.9 191.85 404.6 191.55 M445.55 179.6 Q440.8 168.1 430.35 169.3 423.65 170.55 418.5 168.05 L414.25 182.7 Q413.95 184.4 413.3 185.85 L412.65 187.15 412.6 187.15 411.85 188.35 410.45 190.0 Q408.6 191.9 406.0 193.25 M441.15 188.0 L439.9 190.3 Q438.7 191.9 436.85 193.05 431.05 196.8 419.25 196.75 L407.05 196.75 M520.4 252.95 Q516.35 256.15 512.35 258.65 501.75 265.15 491.1 266.25 484.75 266.8 479.05 268.45 474.05 269.95 469.7 272.3 452.45 281.2 434.0 277.0 427.75 276.05 427.65 268.45 425.75 237.5 414.8 217.0 411.2 210.35 404.9 202.05 M400.6 198.65 L399.9 198.05 399.2 198.75 M399.1 204.15 L397.4 203.75 Q396.05 203.2 394.9 202.05" fill="none" stroke="#000000" stroke-linecap="round" stroke-linejoin="round" stroke-opacity="0.5019608" stroke-width="1.0"/>
  </g>
</svg>
