<?xml version="1.0" encoding="UTF-8" standalone="no"?>
<svg xmlns:xlink="http://www.w3.org/1999/xlink" height="144.85px" width="71.0px" xmlns="http://www.w3.org/2000/svg">
  <g transform="matrix(1.0, 0.0, 0.0, 1.0, 146.05, -35.85)">
    <path d="M-100.9 77.05 L-103.55 77.5 -103.75 77.45 -105.45 77.35 Q-106.3 77.5 -106.95 78.0 L-107.1 78.15 -109.7 78.6 -109.85 77.75 -128.95 45.9 -129.9 40.7 Q-130.05 39.3 -128.5 39.15 -119.7 38.65 -111.0 35.95 -109.4 35.45 -109.0 37.25 L-103.15 68.45 Q-101.85 74.35 -99.1 76.75 L-100.9 77.05 M-108.7 57.1 L-110.2 49.15 -109.85 47.7 -110.75 42.6 Q-110.9 41.55 -111.65 41.55 -117.65 43.25 -123.65 43.9 -123.05 46.45 -125.05 47.75 L-119.6 56.85 -114.45 65.45 -112.7 68.35 -107.25 77.4 -104.25 76.85 Q-103.5 76.7 -103.45 76.05 -103.5 75.8 -103.7 75.5 L-104.1 74.85 Q-105.65 72.55 -106.55 68.25 L-107.25 64.6 -107.75 62.0 -108.7 57.1 M-126.15 46.0 L-125.65 46.1 Q-125.4 46.05 -125.15 45.8 L-125.05 45.3 -125.35 44.85 Q-125.65 44.65 -125.9 44.7 L-126.35 45.05 -126.45 45.5 -126.15 46.0" fill="url(#gradient0)" fill-rule="evenodd" stroke="none"/>
    <path d="M-110.85 105.0 L-130.6 99.5 Q-130.85 100.55 -131.55 100.35 -132.4 100.1 -132.45 99.5 L-132.45 98.95 Q-132.05 94.45 -128.8 89.65 L-115.85 94.7 Q-114.7 95.25 -113.75 95.15 -111.45 94.95 -110.25 93.25 -112.45 97.05 -111.35 102.15 L-110.85 105.0" fill="url(#gradient1)" fill-rule="evenodd" stroke="none"/>
    <path d="M-119.6 56.85 Q-118.65 58.25 -117.0 58.35 L-110.15 58.8 Q-108.5 58.85 -108.7 57.1 L-107.75 62.0 Q-108.35 60.4 -109.95 60.7 L-112.9 61.55 Q-115.15 62.2 -114.45 65.45 L-119.6 56.85" fill="url(#gradient2)" fill-rule="evenodd" stroke="none"/>
    <path d="M-107.25 64.6 L-106.55 68.25 Q-105.65 72.55 -104.1 74.85 L-103.7 75.5 Q-103.5 75.8 -103.45 76.05 -103.5 76.7 -104.25 76.85 L-107.25 77.4 -112.7 68.35 -111.8 68.2 -111.4 67.65 -111.6 66.35 Q-111.65 65.7 -111.05 65.6 L-107.25 64.6" fill="url(#gradient3)" fill-rule="evenodd" stroke="none"/>
    <path d="M-108.7 84.25 L-109.35 80.55 -107.75 80.25 -101.1 80.65 -86.15 165.45 -86.75 165.65 -90.0 166.65 -93.25 167.1 -93.95 167.15 -98.1 166.55 -98.65 163.4 Q-98.25 164.95 -92.25 163.75 -95.05 164.0 -95.25 162.1 L-98.65 140.85 -101.4 136.75 -101.55 135.85 -99.9 135.55 Q-98.55 135.2 -98.35 133.85 -98.3 133.3 -98.4 132.65 L-98.6 131.55 -98.9 129.8 -99.05 128.9 -100.4 121.35 -100.35 121.2 -99.75 121.25 Q-99.2 121.15 -98.9 120.75 -98.6 120.25 -98.7 119.75 -98.75 119.2 -99.25 118.95 -99.65 118.65 -100.2 118.75 -100.55 118.8 -100.8 119.0 L-100.9 118.7 -105.55 92.15 -107.55 90.7 -108.7 84.25 M-106.75 81.75 L-106.6 82.75 Q-106.3 83.5 -104.65 83.2 -103.0 82.95 -103.0 82.1 L-103.15 81.1 -106.75 81.75 M-107.3 87.6 L-107.35 88.05 -107.15 88.45 -106.7 88.55 -106.35 88.3 -106.2 87.85 -106.5 87.45 -106.9 87.4 -107.3 87.6 M-96.25 133.35 L-95.4 138.25 Q-94.5 138.85 -93.65 137.95 L-94.5 133.05 Q-95.5 132.25 -96.25 133.35 M-92.5 139.75 L-91.05 147.95 Q-90.35 148.65 -89.75 147.75 L-91.2 139.55 Q-92.05 138.95 -92.5 139.75 M-92.85 140.6 Q-93.4 140.2 -94.05 140.35 -94.75 140.45 -95.15 141.0 -95.55 141.6 -95.45 142.25 -95.3 142.95 -94.75 143.3 L-93.5 143.6 Q-92.85 143.45 -92.45 142.9 -92.05 142.35 -92.2 141.65 -92.3 141.0 -92.85 140.6 M-96.25 138.35 L-96.15 137.85 -96.4 137.45 -96.85 137.35 -97.3 137.6 -97.35 138.1 -97.15 138.5 -96.65 138.6 -96.25 138.35 M-88.8 160.75 Q-88.1 161.45 -87.5 160.55 L-88.95 152.3 Q-89.8 151.7 -90.25 152.5 L-88.8 160.75 M-92.1 164.7 Q-91.95 165.45 -91.3 165.9 -90.65 166.35 -89.85 166.2 -89.1 166.05 -88.65 165.4 -88.15 164.75 -88.3 164.0 -88.45 163.2 -89.15 162.75 -89.8 162.3 -90.55 162.45 -91.35 162.6 -91.8 163.25 L-92.0 163.7 -92.1 164.7" fill="url(#gradient4)" fill-rule="evenodd" stroke="none"/>
    <path d="M-110.85 105.0 L-111.35 102.15 Q-112.45 97.05 -110.25 93.25 -109.7 92.4 -109.4 91.35 L-108.7 84.25 -107.55 90.7 -105.55 92.15 -100.9 118.7 -103.6 119.15 -103.1 121.8 -108.8 124.25 Q-107.5 123.6 -107.9 121.9 L-108.8 116.7 -110.3 108.15 -110.85 105.0 M-107.4 98.55 L-107.6 97.65 Q-108.1 97.4 -108.6 97.85 L-107.75 102.65 -107.0 103.7 -105.8 104.0 Q-105.1 103.85 -104.65 103.3 -104.25 102.7 -104.4 102.05 -104.5 101.35 -105.1 100.95 -105.3 100.75 -105.6 100.65 -107.2 100.15 -107.4 98.55" fill="url(#gradient5)" fill-rule="evenodd" stroke="none"/>
    <path d="M-100.9 77.05 L-99.1 76.75 Q-96.0 79.4 -95.35 82.2 L-99.85 83.0 -100.9 77.05" fill="url(#gradient6)" fill-rule="evenodd" stroke="none"/>
    <path d="M-95.2 83.05 L-93.1 84.35 -89.0 89.4 -88.3 93.3 -90.9 93.75 -92.7 94.05 -97.75 94.95 -98.4 91.1 -93.9 90.3 -95.2 83.05" fill="url(#gradient7)" fill-rule="evenodd" stroke="none"/>
    <path d="M-95.35 82.2 L-95.2 83.05 -93.9 90.3 -98.4 91.1 -99.85 83.0 -95.35 82.2" fill="url(#gradient8)" fill-rule="evenodd" stroke="none"/>
    <path d="M-85.3 135.95 L-86.7 137.2 -86.9 137.15 -88.15 137.4 -88.8 138.3 -85.95 154.6 -86.35 154.65 -85.6 158.75 -83.6 158.4 -83.35 157.95 -83.2 157.95 -82.15 164.05 -85.5 164.8 -97.75 94.95 -92.7 94.05 -85.3 135.95" fill="url(#gradient9)" fill-rule="evenodd" stroke="none"/>
    <path d="M-90.9 93.75 L-90.2 97.7 -91.1 97.85 -90.9 99.1 -90.0 98.95 -89.8 99.85 -90.7 100.0 -90.5 101.2 -89.6 101.05 -89.45 101.95 -90.35 102.1 -90.15 103.35 -89.25 103.2 -89.05 104.05 -89.95 104.2 -89.75 105.45 -88.85 105.3 -88.7 106.2 -89.6 106.35 -89.4 107.55 -88.5 107.4 -88.3 108.3 -89.2 108.45 -89.0 109.7 -88.1 109.55 -87.95 110.45 -88.85 110.6 -88.65 111.8 -87.75 111.65 -87.55 112.55 -88.45 112.7 -88.25 113.95 -87.35 113.8 -87.2 114.7 -88.1 114.85 -87.9 116.05 -87.0 115.9 -86.85 116.8 -87.75 116.95 -87.5 118.2 -86.6 118.05 -86.45 118.9 -87.35 119.05 -87.15 120.3 -86.25 120.15 -86.1 121.05 -87.0 121.2 -86.75 122.4 -85.85 122.25 -85.7 123.15 -86.5 123.3 -86.6 123.3 -86.6 123.35 -86.4 124.55 -85.5 124.4 -85.35 125.3 -86.25 125.45 -86.0 126.65 -85.1 126.5 -84.95 127.4 -85.85 127.55 -85.65 128.8 -84.75 128.65 -84.6 129.5 -85.5 129.65 -85.25 130.9 -84.35 130.75 -84.2 131.65 -85.1 131.8 -84.9 133.0 -84.0 132.85 -83.55 135.3 -83.9 135.7 -85.3 135.95 -92.7 94.05 -90.9 93.75" fill="url(#gradient10)" fill-rule="evenodd" stroke="none"/>
    <path d="M-110.3 108.15 Q-113.95 106.35 -116.75 109.4 -116.55 106.1 -111.7 106.2 L-110.85 105.0 -110.3 108.15" fill="url(#gradient11)" fill-rule="evenodd" stroke="none"/>
    <path d="M-111.55 124.85 L-113.2 119.55 -110.35 119.05 Q-108.5 118.85 -108.8 116.7 L-107.9 121.9 Q-107.5 123.6 -108.8 124.25 L-109.2 124.45 -109.6 124.5 -111.55 124.85" fill="url(#gradient12)" fill-rule="evenodd" stroke="none"/>
    <path d="M-100.4 121.35 L-99.05 128.9 -107.1 132.45 -109.6 124.5 -109.2 124.45 -108.8 124.25 -103.1 121.8 -100.4 121.35" fill="url(#gradient13)" fill-rule="evenodd" stroke="none"/>
    <path d="M-111.15 126.05 L-111.55 124.85 -109.6 124.5 -107.1 132.45 -108.5 133.75 -109.75 130.05 -110.2 128.8 -111.15 126.05" fill="url(#gradient14)" fill-rule="evenodd" stroke="none"/>
    <path d="M-108.35 134.15 L-143.0 147.35 -146.05 139.95 -111.15 126.05 -110.2 128.8 -132.4 137.7 Q-133.35 138.15 -133.0 138.85 -132.8 139.35 -132.0 139.05 L-109.75 130.05 -108.5 133.75 -108.35 134.1 -108.35 134.15" fill="url(#gradient15)" fill-rule="evenodd" stroke="none"/>
    <path d="M-98.6 131.55 L-107.95 135.25 -108.35 134.15 -108.35 134.1 -108.5 133.75 -98.9 129.8 -98.6 131.55" fill="url(#gradient16)" fill-rule="evenodd" stroke="none"/>
    <path d="M-110.2 128.8 L-109.75 130.05 -132.0 139.05 Q-132.8 139.35 -133.0 138.85 -133.35 138.15 -132.4 137.7 L-110.2 128.8" fill="url(#gradient17)" fill-rule="evenodd" stroke="none"/>
    <path d="M-100.2 148.5 Q-99.65 149.0 -99.3 150.15 -99.85 151.75 -99.5 153.65 -99.2 155.6 -98.25 157.0 -98.2 158.15 -98.6 158.8 -99.8 156.15 -102.55 156.75 L-111.6 158.7 Q-112.2 157.85 -112.5 155.7 -112.85 153.55 -112.6 152.6 L-103.4 151.7 Q-100.55 151.45 -100.2 148.5" fill="url(#gradient18)" fill-rule="evenodd" stroke="none"/>
    <path d="M-86.75 165.65 L-86.25 168.5 Q-87.9 169.5 -89.75 169.9 L-93.45 169.8 -93.95 167.15 -93.25 167.1 -90.0 166.65 -86.75 165.65" fill="url(#gradient19)" fill-rule="evenodd" stroke="none"/>
    <path d="M-87.35 169.8 L-85.65 179.4 Q-86.2 180.3 -87.9 180.6 -89.5 180.9 -90.35 180.2 L-92.05 170.6 -89.6 170.5 Q-88.35 170.3 -87.35 169.8 M-90.2 173.25 Q-90.55 176.75 -89.05 180.0 -88.7 176.4 -90.2 173.25 M-88.1 172.9 Q-88.5 176.35 -86.95 179.65 -86.65 176.05 -88.1 172.9" fill="url(#gradient20)" fill-rule="evenodd" stroke="none"/>
    <path d="M-78.3 161.6 Q-78.9 163.25 -81.15 163.45 L-82.7 153.9 Q-81.35 157.05 -79.0 157.55 L-78.3 161.6 M-79.95 159.9 L-80.1 159.9 -80.3 159.95 -80.3 160.2 -80.25 160.3 -80.0 160.4 -79.9 160.25 -79.8 160.1 -79.95 159.9" fill="url(#gradient21)" fill-rule="evenodd" stroke="none"/>
    <path d="M-118.9 154.4 L-118.95 154.0 -117.15 153.55 -116.2 153.3 Q-116.45 154.3 -116.1 156.3 -115.8 158.3 -115.3 159.15 L-116.25 159.2 -118.1 159.3 -118.2 159.0 -118.7 156.7 -118.9 154.4" fill="url(#gradient22)" fill-rule="evenodd" stroke="none"/>
    <path d="M-118.9 154.4 L-118.7 156.7 -118.2 159.0 -120.55 159.1 -121.15 157.1 -121.2 154.95 -118.9 154.4" fill="url(#gradient23)" fill-rule="evenodd" stroke="none"/>
    <path d="M-78.3 161.6 L-79.0 157.55 -76.35 157.05 Q-75.65 156.95 -75.55 157.65 L-75.05 160.35 Q-74.95 161.1 -75.85 161.15 L-78.3 161.6" fill="url(#gradient24)" fill-rule="evenodd" stroke="none"/>
    <path d="M-111.4 67.65 L-111.6 66.35 Q-111.65 65.7 -111.05 65.6 L-107.25 64.6 -106.55 68.25 Q-105.65 72.55 -104.1 74.85 L-103.7 75.5 Q-103.5 75.8 -103.45 76.05 -103.5 76.7 -104.25 76.85 L-107.25 77.4 -112.7 68.35 -111.8 68.2 -111.4 67.65 M-110.15 58.8 Q-108.5 58.85 -108.7 57.1 L-107.75 62.0 Q-108.35 60.4 -109.95 60.7 L-112.9 61.55 Q-115.15 62.2 -114.45 65.45 L-119.6 56.85 Q-118.65 58.25 -117.0 58.35 L-110.15 58.8 M-106.75 81.75 L-103.15 81.1 -103.0 82.1 Q-103.0 82.95 -104.65 83.2 -106.3 83.5 -106.6 82.75 L-106.75 81.75 M-107.25 123.6 L-108.8 124.25 Q-107.5 123.6 -107.9 121.9 L-111.35 102.15 Q-112.45 97.05 -110.25 93.25 -109.7 92.4 -109.4 91.35 L-108.7 84.25 -107.55 90.7 -105.55 92.15 -101.0 118.05 -100.9 118.7 -101.95 118.9 -103.6 119.15 -103.4 120.15 -103.1 121.8 -107.25 123.6 M-107.6 97.65 Q-108.1 97.4 -108.6 97.85 L-107.75 102.65 -107.0 103.7 -105.8 104.0 Q-105.1 103.85 -104.65 103.3 -104.25 102.7 -104.4 102.05 -104.5 101.35 -105.1 100.95 -105.3 100.75 -105.6 100.65 -107.2 100.15 -107.4 98.55 L-107.6 97.65 M-98.25 143.55 L-95.25 162.1 -95.6 162.25 -95.45 163.05 Q-96.2 163.75 -97.2 163.35 L-98.05 158.7 -98.6 158.8 Q-99.8 156.15 -102.55 156.75 L-111.6 158.7 Q-112.2 157.85 -112.5 155.7 -112.85 153.55 -112.6 152.6 L-103.4 151.7 Q-100.55 151.45 -100.2 148.5 L-99.5 148.35 -100.6 142.1 -99.1 141.35 -98.7 143.65 -98.25 143.55 M-86.9 137.15 L-86.0 137.35 -85.35 140.85 -86.25 140.75 -86.95 140.9 -84.6 154.35 -85.95 154.6 -88.8 138.3 -88.15 137.4 -86.9 137.15 M-97.7 153.85 L-97.65 153.4 -97.85 153.0 -98.35 152.9 Q-98.6 152.95 -98.7 153.1 L-98.85 153.6 -98.55 153.95 -98.15 154.05 -97.7 153.85 M-98.65 163.25 L-98.1 166.55 -100.1 166.3 -100.6 163.55 -98.65 163.25 M-118.9 154.4 L-118.95 154.0 -117.15 153.55 -116.2 153.3 Q-116.45 154.3 -116.1 156.3 -115.8 158.3 -115.3 159.15 L-116.25 159.2 -118.1 159.3 -118.2 159.0 -120.55 159.1 -121.15 157.1 -121.2 154.95 -118.9 154.4" fill="#000000" fill-opacity="0.2" fill-rule="evenodd" stroke="none"/>
    <path d="M-107.25 123.6 L-103.1 121.8 -103.4 120.15 -101.95 118.9 -100.9 118.7 -101.0 118.05 -89.2 107.55 -88.5 107.4 -88.3 108.3 -89.2 108.45 -89.0 109.7 -88.1 109.55 -87.95 110.45 -88.85 110.6 -88.65 111.8 -87.75 111.65 -87.55 112.55 -88.45 112.7 -88.25 113.95 -87.35 113.8 -87.2 114.7 -88.1 114.85 -87.9 115.95 -105.9 131.95 -107.1 132.45 -109.3 125.4 -107.25 123.6 M-100.4 121.35 L-100.35 121.2 -100.45 121.15 -100.4 121.35 M-101.55 135.85 L-101.9 133.7 -100.3 132.25 -98.6 131.55 -98.7 130.85 -93.15 125.9 -92.65 128.75 -100.4 135.65 -101.55 135.85 M-92.45 125.25 L-87.9 121.25 -87.4 124.1 -91.95 128.15 -92.45 125.25" fill="#ffffff" fill-opacity="0.5019608" fill-rule="evenodd" stroke="none"/>
  </g>
  <defs>
    <linearGradient gradientTransform="matrix(0.0, 0.0261, -0.0188, 0.0, -114.5, 57.2)" gradientUnits="userSpaceOnUse" id="gradient0" spreadMethod="pad" x1="-819.2" x2="819.2">
      <stop offset="0.0" stop-color="#000000" stop-opacity="0.2509804"/>
      <stop offset="1.0" stop-color="#000000" stop-opacity="0.0"/>
    </linearGradient>
    <linearGradient gradientTransform="matrix(0.0, 0.0094, -0.0135, 0.0, -121.35, 97.3)" gradientUnits="userSpaceOnUse" id="gradient1" spreadMethod="pad" x1="-819.2" x2="819.2">
      <stop offset="0.0" stop-color="#000000" stop-opacity="0.2509804"/>
      <stop offset="1.0" stop-color="#000000" stop-opacity="0.0"/>
    </linearGradient>
    <linearGradient gradientTransform="matrix(0.0, 0.0052, -0.0072, 0.0, -113.65, 61.15)" gradientUnits="userSpaceOnUse" id="gradient2" spreadMethod="pad" x1="-819.2" x2="819.2">
      <stop offset="0.0" stop-color="#000000" stop-opacity="0.2509804"/>
      <stop offset="1.0" stop-color="#000000" stop-opacity="0.0"/>
    </linearGradient>
    <linearGradient gradientTransform="matrix(0.0, 0.0078, -0.0056, 0.0, -108.05, 71.0)" gradientUnits="userSpaceOnUse" id="gradient3" spreadMethod="pad" x1="-819.2" x2="819.2">
      <stop offset="0.0" stop-color="#000000" stop-opacity="0.2509804"/>
      <stop offset="1.0" stop-color="#000000" stop-opacity="0.0"/>
    </linearGradient>
    <linearGradient gradientTransform="matrix(0.0, 0.053, -0.0142, 0.0, -97.75, 123.7)" gradientUnits="userSpaceOnUse" id="gradient4" spreadMethod="pad" x1="-819.2" x2="819.2">
      <stop offset="0.0" stop-color="#000000" stop-opacity="0.2509804"/>
      <stop offset="1.0" stop-color="#000000" stop-opacity="0.0"/>
    </linearGradient>
    <linearGradient gradientTransform="matrix(0.0, 0.0244, -0.0066, 0.0, -106.3, 104.25)" gradientUnits="userSpaceOnUse" id="gradient5" spreadMethod="pad" x1="-819.2" x2="819.2">
      <stop offset="0.0" stop-color="#000000" stop-opacity="0.2509804"/>
      <stop offset="1.0" stop-color="#000000" stop-opacity="0.0"/>
    </linearGradient>
    <linearGradient gradientTransform="matrix(0.0, 0.0038, -0.0034, 0.0, -98.1, 79.85)" gradientUnits="userSpaceOnUse" id="gradient6" spreadMethod="pad" x1="-819.2" x2="819.2">
      <stop offset="0.0" stop-color="#000000" stop-opacity="0.2509804"/>
      <stop offset="1.0" stop-color="#000000" stop-opacity="0.0"/>
    </linearGradient>
    <linearGradient gradientTransform="matrix(0.0, 0.0073, -0.0062, 0.0, -93.35, 89.0)" gradientUnits="userSpaceOnUse" id="gradient7" spreadMethod="pad" x1="-819.2" x2="819.2">
      <stop offset="0.0" stop-color="#000000" stop-opacity="0.2509804"/>
      <stop offset="1.0" stop-color="#000000" stop-opacity="0.0"/>
    </linearGradient>
    <linearGradient gradientTransform="matrix(0.0, 0.0054, -0.0036, 0.0, -96.85, 86.65)" gradientUnits="userSpaceOnUse" id="gradient8" spreadMethod="pad" x1="-819.2" x2="819.2">
      <stop offset="0.0" stop-color="#000000" stop-opacity="0.2509804"/>
      <stop offset="1.0" stop-color="#000000" stop-opacity="0.0"/>
    </linearGradient>
    <linearGradient gradientTransform="matrix(0.0, 0.0432, -0.0095, 0.0, -89.95, 129.4)" gradientUnits="userSpaceOnUse" id="gradient9" spreadMethod="pad" x1="-819.2" x2="819.2">
      <stop offset="0.0" stop-color="#000000" stop-opacity="0.2509804"/>
      <stop offset="1.0" stop-color="#000000" stop-opacity="0.0"/>
    </linearGradient>
    <linearGradient gradientTransform="matrix(0.0, 0.0258, -0.0056, 0.0, -88.1, 114.85)" gradientUnits="userSpaceOnUse" id="gradient10" spreadMethod="pad" x1="-819.2" x2="819.2">
      <stop offset="0.0" stop-color="#000000" stop-opacity="0.2509804"/>
      <stop offset="1.0" stop-color="#000000" stop-opacity="0.0"/>
    </linearGradient>
    <linearGradient gradientTransform="matrix(0.0, 0.0027, -0.0039, 0.0, -113.5, 107.2)" gradientUnits="userSpaceOnUse" id="gradient11" spreadMethod="pad" x1="-819.2" x2="819.2">
      <stop offset="0.0" stop-color="#000000" stop-opacity="0.2509804"/>
      <stop offset="1.0" stop-color="#000000" stop-opacity="0.0"/>
    </linearGradient>
    <linearGradient gradientTransform="matrix(0.0, 0.005, -0.0033, 0.0, -110.5, 120.75)" gradientUnits="userSpaceOnUse" id="gradient12" spreadMethod="pad" x1="-819.2" x2="819.2">
      <stop offset="0.0" stop-color="#000000" stop-opacity="0.2509804"/>
      <stop offset="1.0" stop-color="#000000" stop-opacity="0.0"/>
    </linearGradient>
    <linearGradient gradientTransform="matrix(0.0, 0.0068, -0.0064, 0.0, -104.3, 126.9)" gradientUnits="userSpaceOnUse" id="gradient13" spreadMethod="pad" x1="-819.2" x2="819.2">
      <stop offset="0.0" stop-color="#000000" stop-opacity="0.2509804"/>
      <stop offset="1.0" stop-color="#000000" stop-opacity="0.0"/>
    </linearGradient>
    <linearGradient gradientTransform="matrix(0.0, 0.0056, -0.0027, 0.0, -109.3, 129.1)" gradientUnits="userSpaceOnUse" id="gradient14" spreadMethod="pad" x1="-819.2" x2="819.2">
      <stop offset="0.0" stop-color="#000000" stop-opacity="0.2509804"/>
      <stop offset="1.0" stop-color="#000000" stop-opacity="0.0"/>
    </linearGradient>
    <linearGradient gradientTransform="matrix(0.0, 0.013, -0.023, 0.0, -127.2, 136.7)" gradientUnits="userSpaceOnUse" id="gradient15" spreadMethod="pad" x1="-819.2" x2="819.2">
      <stop offset="0.0" stop-color="#000000" stop-opacity="0.2509804"/>
      <stop offset="1.0" stop-color="#000000" stop-opacity="0.0"/>
    </linearGradient>
    <linearGradient gradientTransform="matrix(0.0, 0.0033, -0.006, 0.0, -103.55, 132.5)" gradientUnits="userSpaceOnUse" id="gradient16" spreadMethod="pad" x1="-819.2" x2="819.2">
      <stop offset="0.0" stop-color="#000000" stop-opacity="0.2509804"/>
      <stop offset="1.0" stop-color="#000000" stop-opacity="0.0"/>
    </linearGradient>
    <linearGradient gradientTransform="matrix(0.0, 0.0063, -0.0143, 0.0, -121.4, 133.95)" gradientUnits="userSpaceOnUse" id="gradient17" spreadMethod="pad" x1="-819.2" x2="819.2">
      <stop offset="0.0" stop-color="#000000" stop-opacity="0.2509804"/>
      <stop offset="1.0" stop-color="#000000" stop-opacity="0.0"/>
    </linearGradient>
    <linearGradient gradientTransform="matrix(0.0, 0.0063, -0.0088, 0.0, -105.45, 153.65)" gradientUnits="userSpaceOnUse" id="gradient18" spreadMethod="pad" x1="-819.2" x2="819.2">
      <stop offset="0.0" stop-color="#000000" stop-opacity="0.2509804"/>
      <stop offset="1.0" stop-color="#000000" stop-opacity="0.0"/>
    </linearGradient>
    <linearGradient gradientTransform="matrix(0.0, 0.0027, -0.0047, 0.0, -90.1, 167.8)" gradientUnits="userSpaceOnUse" id="gradient19" spreadMethod="pad" x1="-819.2" x2="819.2">
      <stop offset="0.0" stop-color="#000000" stop-opacity="0.2509804"/>
      <stop offset="1.0" stop-color="#000000" stop-opacity="0.0"/>
    </linearGradient>
    <linearGradient gradientTransform="matrix(0.0, 0.0067, -0.0039, 0.0, -88.85, 175.25)" gradientUnits="userSpaceOnUse" id="gradient20" spreadMethod="pad" x1="-819.2" x2="819.2">
      <stop offset="0.0" stop-color="#000000" stop-opacity="0.2509804"/>
      <stop offset="1.0" stop-color="#000000" stop-opacity="0.0"/>
    </linearGradient>
    <linearGradient gradientTransform="matrix(0.0, 0.0058, -0.0027, 0.0, -80.5, 158.65)" gradientUnits="userSpaceOnUse" id="gradient21" spreadMethod="pad" x1="-819.2" x2="819.2">
      <stop offset="0.0" stop-color="#000000" stop-opacity="0.2509804"/>
      <stop offset="1.0" stop-color="#000000" stop-opacity="0.0"/>
    </linearGradient>
    <linearGradient gradientTransform="matrix(0.0, 0.0037, -0.0022, 0.0, -117.1, 156.3)" gradientUnits="userSpaceOnUse" id="gradient22" spreadMethod="pad" x1="-819.2" x2="819.2">
      <stop offset="0.0" stop-color="#000000" stop-opacity="0.2509804"/>
      <stop offset="1.0" stop-color="#000000" stop-opacity="0.0"/>
    </linearGradient>
    <linearGradient gradientTransform="matrix(0.0, 0.0029, -0.0019, 0.0, -119.75, 156.75)" gradientUnits="userSpaceOnUse" id="gradient23" spreadMethod="pad" x1="-819.2" x2="819.2">
      <stop offset="0.0" stop-color="#000000" stop-opacity="0.2509804"/>
      <stop offset="1.0" stop-color="#000000" stop-opacity="0.0"/>
    </linearGradient>
    <linearGradient gradientTransform="matrix(0.0, 0.0028, -0.0024, 0.0, -77.0, 159.3)" gradientUnits="userSpaceOnUse" id="gradient24" spreadMethod="pad" x1="-819.2" x2="819.2">
      <stop offset="0.0" stop-color="#000000" stop-opacity="0.2509804"/>
      <stop offset="1.0" stop-color="#000000" stop-opacity="0.0"/>
    </linearGradient>
  </defs>
</svg>
