<?xml version="1.0" encoding="UTF-8" standalone="no"?>
<svg xmlns:xlink="http://www.w3.org/1999/xlink" height="68.95px" width="51.05px" xmlns="http://www.w3.org/2000/svg">
  <g transform="matrix(1.0, 0.0, 0.0, 1.0, -263.95, -379.45)">
    <path d="M267.1 389.05 L268.15 388.75 272.45 388.6 Q276.65 389.85 282.3 390.25 L283.4 390.35 Q283.85 390.3 283.95 390.6 L284.8 390.45 Q287.05 390.3 288.4 388.75 289.8 387.15 289.55 384.7 L288.6 380.15 Q288.55 379.75 288.8 379.55 L289.25 379.5 Q291.1 381.25 291.85 383.55 292.15 385.25 293.5 385.4 296.95 385.15 298.45 382.75 298.95 382.15 299.45 382.3 300.15 382.55 300.1 383.3 299.85 384.6 300.15 386.35 L300.05 386.8 300.1 386.8 302.05 388.15 302.5 388.55 302.55 389.05 302.6 389.3 304.6 388.95 304.85 389.15 305.0 390.05 304.85 390.4 303.8 392.35 303.65 392.5 303.2 392.55 303.5 394.25 303.8 395.15 304.1 395.6 305.0 396.7 306.8 406.95 306.55 407.2 306.5 407.2 308.1 416.4 308.15 417.3 Q307.6 416.1 305.95 417.1 304.35 418.25 304.5 420.9 L304.6 422.5 305.0 426.1 305.05 426.6 305.2 427.25 305.2 427.35 307.55 440.75 Q307.7 441.2 306.25 441.55 L307.45 448.4 303.95 447.8 Q302.8 447.5 302.65 446.85 L302.3 444.9 302.05 444.2 297.95 422.35 Q297.65 420.95 296.85 419.85 296.05 418.75 294.75 417.9 293.6 417.2 292.3 416.95 L289.05 417.25 288.2 417.65 287.25 417.55 Q286.95 417.25 286.7 415.6 L285.55 409.55 285.65 408.45 Q285.85 407.4 284.95 406.45 284.35 405.75 282.95 405.75 L271.85 405.8 271.1 406.05 269.4 407.1 Q268.8 407.4 268.25 406.9 267.95 407.1 267.85 407.95 267.1 408.05 266.75 407.15 266.1 405.5 265.5 402.8 L263.95 394.2 Q263.9 393.95 264.15 394.0 L265.35 393.85 264.85 391.0 Q264.8 390.2 265.35 389.55 265.55 389.3 266.05 389.25 L267.1 389.05 M269.05 391.15 Q268.55 391.35 268.8 392.35 270.4 397.2 270.35 402.0 270.3 403.1 271.3 403.1 L284.3 402.7 Q284.7 402.8 284.8 402.5 L284.75 402.45 284.9 402.1 284.95 402.0 Q285.5 401.35 286.3 401.3 287.15 401.3 287.45 401.9 287.6 402.5 288.35 402.55 L291.1 402.45 291.25 402.25 289.25 393.5 Q289.2 393.05 288.5 393.0 L281.95 392.65 273.4 391.7 Q270.25 390.45 269.05 391.15 M301.1 389.45 Q300.5 388.75 299.35 388.8 298.35 388.9 297.9 389.5 L297.6 389.95 297.55 390.05 297.55 390.1 297.4 390.75 297.45 394.75 297.45 394.95 297.4 395.15 297.4 396.0 297.45 396.45 Q297.5 397.3 298.25 397.35 L299.6 397.5 301.85 397.05 Q302.7 396.7 302.7 396.1 L301.7 390.75 301.2 389.55 301.1 389.45 M294.3 406.85 L294.15 406.6 293.85 406.55 Q293.7 406.55 293.6 406.7 L293.5 407.0 293.7 407.25 294.0 407.3 294.25 407.15 294.3 406.85 M295.7 405.05 L295.7 405.1 295.85 405.05 295.7 405.05 M286.95 403.6 L286.9 403.5 286.8 403.3 286.5 403.25 286.35 403.4 286.25 403.6 286.3 404.95 286.0 405.25 Q285.8 405.5 285.85 405.85 L286.2 406.4 286.85 406.55 287.4 406.2 287.55 405.55 287.2 405.05 287.0 404.9 286.95 403.6 M289.4 405.85 Q288.2 406.1 287.35 407.05 286.45 408.25 286.6 409.85 L287.6 414.95 Q287.9 416.1 289.1 416.05 L291.45 415.65 292.4 415.35 293.45 414.6 293.5 414.6 294.1 413.65 Q294.6 412.6 294.4 411.55 L294.05 409.35 293.75 408.65 Q293.05 408.15 291.75 408.15 289.4 408.1 287.65 409.95 L287.15 410.1 Q286.9 409.95 287.05 409.4 287.35 407.9 288.65 407.0 289.95 406.25 291.95 406.3 L291.4 405.95 289.4 405.85 M296.15 411.7 Q295.95 411.55 295.75 411.55 L295.2 411.65 295.0 411.95 295.3 413.5 Q294.65 413.8 294.5 415.05 L294.35 415.05 Q294.05 415.1 293.9 415.35 L293.8 415.9 294.1 416.35 294.6 416.45 294.7 416.45 Q294.9 417.2 296.25 417.8 L296.95 417.95 297.1 417.45 Q296.95 416.75 297.3 416.65 L297.35 416.65 Q297.8 416.65 297.75 416.0 L297.15 412.9 296.95 412.9 296.85 412.55 296.7 412.3 296.15 411.7 M313.1 442.8 Q313.3 442.75 313.4 442.95 L314.85 444.55 314.95 445.25 314.35 445.7 313.4 445.9 312.9 442.85 313.1 442.8" fill="#ffffff" fill-rule="evenodd" stroke="none"/>
  </g>
</svg>
