<?xml version="1.0" encoding="UTF-8" standalone="no"?>
<svg xmlns:xlink="http://www.w3.org/1999/xlink" height="28.05px" width="39.45px" xmlns="http://www.w3.org/2000/svg">
  <g transform="matrix(1.0, 0.0, 0.0, 1.0, -262.7, -386.5)">
    <path d="M295.55 414.4 Q295.15 414.15 295.1 413.65 295.0 413.15 295.25 412.75 295.55 412.3 296.05 412.25 L296.9 412.4 297.4 413.2 297.2 414.05 296.8 414.45 296.5 414.55 295.55 414.4 M301.1 403.7 L300.75 404.0 300.45 402.65 300.95 402.7 301.25 403.2 301.1 403.7 M299.2 389.75 L300.4 389.8 300.5 389.85 301.05 390.15 Q301.85 390.75 302.1 391.8 302.25 392.8 301.65 393.6 L300.9 394.4 300.05 394.65 299.1 394.65 298.2 394.2 Q297.35 393.65 297.15 392.7 297.0 391.65 297.6 390.75 298.2 389.95 299.2 389.75 M268.45 390.15 L268.4 390.1 Q266.55 388.5 267.15 386.95 270.3 385.7 275.75 387.9 L276.7 388.3 276.8 388.35 282.75 390.85 284.25 391.35 Q286.4 391.8 287.5 390.95 L290.2 390.75 290.1 391.1 Q289.95 392.0 290.6 392.35 291.2 392.55 291.6 392.15 L291.65 392.55 291.85 393.0 294.15 405.0 294.25 405.1 Q294.45 406.6 293.55 407.7 293.15 407.25 292.5 407.1 L292.45 407.05 289.95 405.75 289.65 406.3 288.8 406.85 287.8 406.65 Q287.35 406.35 287.25 405.8 287.15 405.25 287.45 404.8 L287.55 404.65 274.25 398.9 Q270.9 397.45 268.0 397.5 265.75 397.25 265.55 396.45 266.3 393.95 268.45 392.75 L268.75 392.7 269.6 392.2 Q269.9 391.75 269.8 391.2 L269.8 391.15 269.7 390.85 269.25 390.3 268.45 390.15 M263.1 392.3 L262.7 391.45 Q262.6 390.65 263.1 390.0 263.6 389.25 264.4 389.15 265.25 389.0 265.95 389.5 L266.05 389.55 266.5 390.1 266.75 390.75 Q266.9 391.65 266.45 392.3 265.95 393.0 265.15 393.15 L263.6 392.8 263.1 392.3" fill="#ffffff" fill-rule="evenodd" stroke="none"/>
  </g>
</svg>
