<?xml version="1.0" encoding="UTF-8" standalone="no"?>
<svg xmlns:xlink="http://www.w3.org/1999/xlink" height="216.2px" width="78.65px" xmlns="http://www.w3.org/2000/svg">
  <g transform="matrix(1.0, 0.0, 0.0, 1.0, -255.05, -269.0)">
    <path d="M292.85 292.35 Q295.35 289.2 291.8 284.75 M278.35 287.45 Q274.8 292.5 279.55 294.35 M292.85 292.35 L299.3 328.4 313.05 404.75 Q314.45 404.5 315.7 406.1 L316.0 407.7 320.4 407.25 Q323.5 407.4 324.9 411.75 L333.2 455.35 Q333.4 457.4 331.9 458.65 L322.3 460.25 325.4 476.2 326.35 481.15 Q320.2 486.15 312.5 484.1 L311.7 479.3 311.7 479.25 308.75 480.9 Q307.3 480.0 305.85 476.2 305.55 463.6 296.45 453.35 L293.05 439.05 Q287.75 432.45 283.9 437.85 L281.45 443.95 Q278.65 447.35 275.25 447.9 L272.9 449.45 270.75 446.9 Q268.45 444.0 267.3 441.05 L269.85 438.95 271.3 437.65 Q279.65 429.95 288.9 423.8 L287.3 417.0 Q285.05 415.95 283.35 413.45 L281.15 401.3 Q273.7 397.65 264.8 397.75 L264.25 397.7 Q262.65 397.25 263.7 394.35 L264.0 393.55 266.35 387.5 Q270.35 382.3 275.65 385.2 L282.3 390.05 Q286.1 392.3 289.4 390.6 L282.35 352.15 281.4 352.35 278.9 343.5 Q277.6 341.85 275.25 341.7 L258.15 343.8 255.55 332.9 279.45 330.05 Q281.9 331.0 283.4 334.0 L286.4 351.6 293.45 388.15 294.1 387.7 296.05 388.35 285.9 330.7 279.55 294.35 M278.35 287.45 L270.55 274.55 Q281.05 266.65 293.45 271.05 L291.8 284.75 M283.25 401.75 L284.0 400.6 288.75 399.5 Q290.9 399.0 292.25 401.1 L292.55 402.4 Q286.15 400.65 283.15 404.45 L283.05 403.95 Q282.75 402.85 283.25 401.75 M293.5 406.65 L294.75 412.1 Q294.55 413.95 293.5 415.25 291.15 415.3 288.65 416.05 286.95 415.3 285.5 413.6 L283.45 405.45 M293.5 406.65 Q287.75 402.65 283.45 405.45" fill="none" stroke="#000000" stroke-linecap="round" stroke-linejoin="round" stroke-width="1.0"/>
    <path d="M291.8 284.75 L278.35 287.45 M279.55 294.35 L292.85 292.35 M285.9 330.7 L299.3 328.4 M293.45 388.15 L290.55 389.95 289.4 390.6 M292.55 402.4 L293.5 406.65 M293.5 415.25 L297.75 415.6 304.15 452.6 296.45 453.35 M288.65 416.05 Q287.95 416.25 287.3 417.0 M283.45 405.45 L283.15 404.45 M283.25 401.75 L281.15 401.3 M316.0 407.7 L318.95 422.1 315.55 430.6 315.65 433.1 315.7 435.65 314.05 435.9 314.75 442.6 Q316.65 445.7 318.8 446.4 M313.05 404.75 L299.3 407.15 304.25 432.7 315.55 430.6 M299.3 407.15 L296.05 388.35 M269.85 438.95 Q270.15 443.7 272.85 446.3 L275.25 447.9 M312.65 438.95 Q313.15 437.65 312.45 436.2 L308.2 437.0 Q308.6 438.55 310.0 439.25 L311.3 439.9 311.6 440.0 Q311.95 439.3 312.6 439.0 L312.65 438.95 314.75 442.6 M315.65 433.1 L305.15 435.0 306.1 437.45 308.2 437.0 M314.05 435.9 L312.45 436.2 M311.3 439.9 L313.0 443.05 Q314.15 444.75 315.25 445.75 L316.75 446.75 317.2 446.85 318.85 447.7 318.95 447.6 Q319.8 445.55 318.45 444.95 L317.35 445.0 M318.85 447.7 Q318.4 448.65 317.5 448.15 316.45 447.65 316.75 446.75 M315.25 445.75 L317.05 456.15 Q318.35 460.05 320.95 460.5 L322.3 460.25 M304.25 432.7 L305.15 435.0 M311.7 479.3 Q318.85 481.3 325.4 476.2 M311.7 479.25 L304.25 432.7 M286.4 351.6 L282.35 352.15" fill="none" stroke="#000000" stroke-linecap="round" stroke-linejoin="round" stroke-opacity="0.49803922" stroke-width="1.0"/>
  </g>
</svg>
