<?xml version="1.0" encoding="UTF-8" standalone="no"?>
<svg xmlns:xlink="http://www.w3.org/1999/xlink" height="427.7px" width="230.8px" xmlns="http://www.w3.org/2000/svg">
  <g transform="matrix(1.0, 0.0, 0.0, 1.0, -284.5, -132.3)">
    <path d="M382.0 162.15 L381.4 158.2 381.2 154.1 381.2 153.65 Q381.25 144.85 381.95 140.75 L382.9 139.5 Q389.1 132.25 399.9 132.3 410.7 132.25 416.9 139.5 L417.85 140.75 Q418.55 144.85 418.6 153.65 L418.6 154.1 418.4 158.2 417.8 162.15 417.55 163.25 417.05 165.05 415.4 174.3 405.8 183.85 399.9 184.45 394.0 183.85 384.4 174.3 382.75 165.05 382.25 163.25 382.0 162.15" fill="url(#gradient0)" fill-rule="evenodd" stroke="none"/>
    <path d="M417.8 162.15 L420.0 184.25 Q442.0 188.7 461.45 197.4 490.1 193.8 501.35 216.5 506.1 228.55 501.35 245.65 480.95 244.5 467.05 231.05 459.85 243.2 452.15 245.9 447.65 247.4 443.05 245.75 420.85 239.7 399.9 240.0 378.95 239.7 356.75 245.75 352.15 247.4 347.65 245.9 339.95 243.2 332.75 231.05 318.85 244.5 298.45 245.65 293.7 228.55 298.45 216.5 309.7 193.8 338.35 197.4 357.8 188.7 379.8 184.25 L382.0 162.15 382.25 163.25 382.75 165.05 384.4 174.3 394.0 183.85 399.9 184.45 405.8 183.85 415.4 174.3 417.05 165.05 417.55 163.25 417.8 162.15" fill="url(#gradient1)" fill-rule="evenodd" stroke="none"/>
    <path d="M501.35 245.65 Q501.55 256.45 504.95 267.25 L511.6 275.65 509.3 282.4 Q507.35 279.2 504.7 276.1 491.95 283.7 484.75 294.5 L477.0 286.25 Q466.1 273.9 458.8 260.5 455.0 253.3 452.15 245.9 459.85 243.2 467.05 231.05 480.95 244.5 501.35 245.65" fill="url(#gradient2)" fill-rule="evenodd" stroke="none"/>
    <path d="M458.8 260.5 Q453.1 268.0 444.5 273.5 L436.9 288.4 436.9 315.3 Q452.65 351.8 451.75 400.4 L451.75 400.9 451.55 407.1 450.8 420.0 455.4 433.6 Q458.65 442.45 457.1 452.8 L452.05 495.55 455.3 498.7 455.3 503.45 481.4 536.45 Q485.95 544.15 482.9 552.6 L478.45 560.0 461.5 560.0 453.95 553.6 Q446.8 545.65 445.45 536.3 443.8 526.25 438.6 517.85 435.9 513.1 436.8 506.8 L436.8 506.5 437.75 503.3 436.9 499.85 438.65 495.55 Q436.25 472.25 422.9 451.85 418.7 443.05 421.0 433.3 L424.45 420.35 421.7 407.1 Q414.55 374.4 404.7 343.9 L395.1 343.9 Q385.25 374.4 378.1 407.1 L375.35 420.35 378.8 433.3 Q381.1 443.05 376.9 451.85 363.55 472.25 361.15 495.55 L362.9 499.85 362.05 503.3 363.0 506.5 363.0 506.8 Q363.9 513.1 361.2 517.85 356.0 526.25 354.35 536.3 353.0 545.65 345.85 553.6 L338.3 560.0 321.35 560.0 316.9 552.6 Q313.85 544.15 318.4 536.45 L344.5 503.45 344.5 498.7 347.75 495.55 342.7 452.8 Q341.15 442.45 344.4 433.6 L349.0 420.0 348.25 407.1 348.05 400.9 348.05 400.4 Q347.15 351.8 362.9 315.3 L362.9 288.4 355.3 273.5 Q346.7 268.0 341.0 260.5 344.8 253.3 347.65 245.9 352.15 247.4 356.75 245.75 378.95 239.7 399.9 240.0 420.85 239.7 443.05 245.75 447.65 247.4 452.15 245.9 455.0 253.3 458.8 260.5" fill="url(#gradient3)" fill-rule="evenodd" stroke="none"/>
    <path d="M509.3 282.4 Q517.0 294.9 514.85 309.25 L505.0 353.0 503.05 354.25 498.4 372.0 481.8 380.05 480.1 382.0 Q473.95 386.05 470.5 377.2 467.9 378.9 465.3 377.2 L468.35 366.8 466.6 362.9 470.1 353.7 480.1 348.5 Q481.1 345.9 481.7 343.2 L482.1 341.0 Q482.75 336.7 482.5 332.15 472.8 318.95 467.45 305.65 469.6 295.4 477.0 286.25 L484.75 294.5 Q491.95 283.7 504.7 276.1 507.35 279.2 509.3 282.4" fill="url(#gradient4)" fill-rule="evenodd" stroke="none"/>
    <path d="M341.0 260.5 Q333.7 273.9 322.8 286.25 L315.05 294.5 Q307.85 283.7 295.1 276.1 292.45 279.2 290.5 282.4 L288.2 275.65 294.85 267.25 Q298.25 256.45 298.45 245.65 318.85 244.5 332.75 231.05 339.95 243.2 347.65 245.9 344.8 253.3 341.0 260.5" fill="url(#gradient5)" fill-rule="evenodd" stroke="none"/>
    <path d="M322.8 286.25 Q330.2 295.4 332.35 305.65 327.0 318.95 317.3 332.15 317.05 336.7 317.7 341.0 L318.1 343.2 Q318.7 345.9 319.7 348.5 L329.7 353.7 333.2 362.9 331.45 366.8 334.5 377.2 Q331.9 378.9 329.3 377.2 325.85 386.05 319.7 382.0 L318.0 380.05 301.4 372.0 296.75 354.25 294.8 353.0 284.95 309.25 Q282.8 294.9 290.5 282.4 292.45 279.2 295.1 276.1 307.85 283.7 315.05 294.5 L322.8 286.25" fill="url(#gradient6)" fill-rule="evenodd" stroke="none"/>
    <path d="M399.9 140.4 Q392.65 140.55 387.25 145.15 L385.35 141.25 Q389.75 136.0 399.9 135.15 410.05 136.0 414.45 141.25 L412.55 145.15 Q407.15 140.55 399.9 140.4 M467.0 214.95 Q437.6 212.65 399.9 217.05 362.2 212.65 332.8 214.95 333.65 209.7 337.8 204.5 365.55 204.1 399.9 209.25 434.25 204.1 462.0 204.5 466.15 209.7 467.0 214.95 M461.05 239.45 Q464.1 236.05 467.05 231.05 L469.15 233.0 Q475.45 261.7 489.1 288.8 L489.1 288.85 485.85 310.8 490.05 332.2 485.15 351.55 468.35 358.3 470.1 353.7 482.7 349.1 486.3 331.3 479.6 309.45 484.75 294.5 Q469.65 268.2 461.05 239.45 M423.3 273.85 Q416.65 269.2 405.75 268.75 L405.75 259.7 Q416.5 259.45 426.15 265.65 L423.3 273.85 M418.2 296.75 L404.05 294.1 404.05 286.25 419.4 289.35 418.2 296.75 M440.2 247.7 Q439.4 253.85 436.35 257.5 419.2 248.75 399.9 249.1 380.6 248.75 363.45 257.5 360.4 253.85 359.6 247.7 379.15 242.05 399.9 241.9 420.65 242.05 440.2 247.7 M338.75 239.45 Q330.15 268.2 315.05 294.5 L320.2 309.45 313.5 331.3 317.1 349.1 329.7 353.7 331.45 358.3 314.65 351.55 309.75 332.2 313.95 310.8 310.7 288.85 310.7 288.8 Q324.35 261.7 330.65 233.0 L332.75 231.05 Q335.7 236.05 338.75 239.45 M381.2 331.9 Q384.95 335.2 388.2 338.65 375.7 376.05 371.4 418.2 L374.75 438.75 Q362.9 461.7 358.5 490.5 359.85 462.85 369.1 437.75 L366.4 423.35 Q368.4 374.7 381.2 331.9 M381.6 296.75 L380.4 289.35 395.75 286.25 395.75 294.1 381.6 296.75 M394.05 259.7 L394.05 268.75 Q383.15 269.2 376.5 273.85 L373.65 265.65 Q383.3 259.45 394.05 259.7 M418.6 331.9 Q431.4 374.7 433.4 423.35 L430.7 437.75 Q439.95 462.85 441.3 490.5 436.9 461.7 425.05 438.75 L428.4 418.2 Q424.1 376.05 411.65 338.65 414.85 335.2 418.6 331.9 M494.0 225.75 Q488.85 210.05 472.2 199.45 490.4 202.85 497.4 216.4 L494.0 225.75 M305.8 225.75 L302.4 216.4 Q309.4 202.85 327.6 199.45 310.95 210.05 305.8 225.75 M325.85 540.7 L319.8 539.9 346.25 505.6 325.85 540.7 M480.0 539.9 L473.95 540.7 453.55 505.6 480.0 539.9" fill="#ffffff" fill-opacity="0.2" fill-rule="evenodd" stroke="none"/>
  </g>
  <defs>
    <linearGradient gradientTransform="matrix(0.0, 0.0318, -0.0228, 0.0, 399.9, 158.35)" gradientUnits="userSpaceOnUse" id="gradient0" spreadMethod="pad" x1="-819.2" x2="819.2">
      <stop offset="0.0" stop-color="#000000" stop-opacity="0.2"/>
      <stop offset="1.0" stop-color="#000000" stop-opacity="0.0"/>
    </linearGradient>
    <linearGradient gradientTransform="matrix(0.0, 0.0515, -0.1267, 0.0, 399.95, 204.35)" gradientUnits="userSpaceOnUse" id="gradient1" spreadMethod="pad" x1="-819.2" x2="819.2">
      <stop offset="0.0" stop-color="#000000" stop-opacity="0.2"/>
      <stop offset="1.0" stop-color="#000000" stop-opacity="0.0"/>
    </linearGradient>
    <linearGradient gradientTransform="matrix(0.0, 0.0387, -0.0363, 0.0, 481.9, 262.75)" gradientUnits="userSpaceOnUse" id="gradient2" spreadMethod="pad" x1="-819.2" x2="819.2">
      <stop offset="0.0" stop-color="#000000" stop-opacity="0.2"/>
      <stop offset="1.0" stop-color="#000000" stop-opacity="0.0"/>
    </linearGradient>
    <linearGradient gradientTransform="matrix(0.0, 0.1953, -0.1028, 0.0, 399.9, 400.0)" gradientUnits="userSpaceOnUse" id="gradient3" spreadMethod="pad" x1="-819.2" x2="819.2">
      <stop offset="0.0" stop-color="#000000" stop-opacity="0.2"/>
      <stop offset="1.0" stop-color="#000000" stop-opacity="0.0"/>
    </linearGradient>
    <linearGradient gradientTransform="matrix(0.0, 0.0654, -0.0305, 0.0, 490.3, 329.65)" gradientUnits="userSpaceOnUse" id="gradient4" spreadMethod="pad" x1="-819.2" x2="819.2">
      <stop offset="0.0" stop-color="#000000" stop-opacity="0.2"/>
      <stop offset="1.0" stop-color="#000000" stop-opacity="0.0"/>
    </linearGradient>
    <linearGradient gradientTransform="matrix(0.0, 0.0387, -0.0363, 0.0, 317.95, 262.75)" gradientUnits="userSpaceOnUse" id="gradient5" spreadMethod="pad" x1="-819.2" x2="819.2">
      <stop offset="0.0" stop-color="#000000" stop-opacity="0.2"/>
      <stop offset="1.0" stop-color="#000000" stop-opacity="0.0"/>
    </linearGradient>
    <linearGradient gradientTransform="matrix(0.0, 0.0654, -0.0305, 0.0, 309.5, 329.65)" gradientUnits="userSpaceOnUse" id="gradient6" spreadMethod="pad" x1="-819.2" x2="819.2">
      <stop offset="0.0" stop-color="#000000" stop-opacity="0.2"/>
      <stop offset="1.0" stop-color="#000000" stop-opacity="0.0"/>
    </linearGradient>
  </defs>
</svg>
