<?xml version="1.0" encoding="UTF-8" standalone="no"?>
<svg xmlns:xlink="http://www.w3.org/1999/xlink" height="55.1px" width="154.4px" xmlns="http://www.w3.org/2000/svg">
  <g transform="matrix(1.0, 0.0, 0.0, 1.0, -322.6, -505.4)">
    <path d="M364.15 506.15 L365.05 509.25 365.05 509.5 Q365.6 513.35 364.75 516.65 L363.4 520.05 Q362.0 522.2 360.9 524.55 359.05 528.45 357.9 532.65 L356.9 537.5 Q355.6 546.45 348.75 553.95 L341.55 560.0 328.5 560.0 324.25 553.05 Q321.4 545.0 325.7 537.7 L351.55 505.9 M448.05 505.9 L473.9 537.7 Q478.2 545.0 475.35 553.05 L471.1 560.0 458.05 560.0 450.85 553.95 Q444.0 546.45 442.7 537.5 L441.7 532.65 Q440.55 528.45 438.7 524.55 L436.2 520.05 Q435.3 518.45 434.85 516.65 434.0 513.35 434.55 509.5 L434.55 509.25 435.45 506.15" fill="none" stroke="#000000" stroke-linecap="round" stroke-linejoin="round" stroke-width="1.0"/>
    <path d="M351.55 505.9 L349.3 511.3 Q354.5 510.95 359.95 513.7 L364.15 506.15 M435.45 506.15 L439.65 513.7 Q445.1 510.95 450.3 511.3 L448.05 505.9" fill="none" stroke="#000000" stroke-linecap="round" stroke-linejoin="round" stroke-opacity="0.5019608" stroke-width="1.0"/>
  </g>
</svg>
