<?xml version="1.0" encoding="UTF-8" standalone="no"?>
<svg xmlns:xlink="http://www.w3.org/1999/xlink" height="38.45px" width="102.8px" xmlns="http://www.w3.org/2000/svg">
  <g transform="matrix(1.0, 0.0, 0.0, 1.0, -348.4, -426.55)">
    <path d="M444.8 427.05 L449.25 439.95 Q450.2 442.55 450.7 445.3 M425.6 464.5 L421.3 457.35 420.8 456.3 Q419.1 452.25 418.8 448.0 M348.9 445.3 Q349.4 442.55 350.35 439.95 L354.8 427.05 M380.8 448.0 Q380.5 452.25 378.8 456.3 L378.3 457.35 Q376.0 460.85 374.0 464.5" fill="none" stroke="#000000" stroke-linecap="round" stroke-linejoin="round" stroke-width="1.0"/>
    <path d="M450.7 445.3 Q448.15 461.3 425.6 464.5 M418.8 448.0 Q444.25 446.25 444.8 427.05 M354.8 427.05 Q355.35 446.25 380.8 448.0 M374.0 464.5 Q351.45 461.3 348.9 445.3" fill="none" stroke="#000000" stroke-linecap="round" stroke-linejoin="round" stroke-opacity="0.5019608" stroke-width="1.0"/>
  </g>
</svg>
