<?xml version="1.0" encoding="UTF-8" standalone="no"?>
<svg xmlns:xlink="http://www.w3.org/1999/xlink" height="37.7px" width="141.95px" xmlns="http://www.w3.org/2000/svg">
  <g transform="matrix(1.0, 0.0, 0.0, 1.0, -328.85, -522.8)">
    <path d="M338.65 560.0 L330.25 560.0 M460.95 560.0 L469.35 560.0" fill="none" stroke="#000000" stroke-linecap="round" stroke-linejoin="round" stroke-width="1.0"/>
    <path d="M330.25 560.0 L329.9 558.0 Q327.8 544.75 333.7 537.45 L343.35 523.3 Q346.35 523.85 349.4 525.5 L342.15 539.05 Q337.65 546.25 338.5 558.0 L338.65 560.0 M469.35 560.0 L470.1 555.25 Q471.2 544.0 465.9 537.45 L456.3 523.3 Q453.25 523.85 450.2 525.5 L457.45 539.05 Q461.45 545.4 461.25 555.25 L460.95 560.0" fill="none" stroke="#000000" stroke-linecap="round" stroke-linejoin="round" stroke-opacity="0.5019608" stroke-width="1.0"/>
  </g>
</svg>
