<?xml version="1.0" encoding="UTF-8" standalone="no"?>
<svg xmlns:xlink="http://www.w3.org/1999/xlink" height="95.0px" width="33.15px" xmlns="http://www.w3.org/2000/svg">
  <g transform="matrix(1.0, 0.0, 0.0, 1.0, -348.3, -404.1)">
    <path d="M380.05 439.7 Q381.1 443.95 380.8 448.0 380.5 452.25 378.8 456.3 L378.3 457.35 Q376.0 460.85 374.0 464.5 370.35 471.15 367.9 478.15 366.1 483.2 364.95 488.45 L364.8 489.15 362.85 498.45 Q357.65 499.95 354.9 498.05 L348.8 458.25 Q347.75 451.4 348.9 445.3 349.4 442.55 350.35 439.95 L354.8 427.05 354.65 416.85 Q354.65 410.45 354.95 404.1 364.9 408.0 381.45 406.25 380.1 411.75 378.9 417.35 L376.8 427.4 380.05 439.7" fill="#000000" fill-rule="evenodd" stroke="none"/>
  </g>
</svg>
