<?xml version="1.0" encoding="UTF-8" standalone="no"?>
<svg xmlns:xlink="http://www.w3.org/1999/xlink" height="33.55px" width="70.9px" xmlns="http://www.w3.org/2000/svg">
  <g transform="matrix(1.0, 0.0, 0.0, 1.0, -364.35, -113.15)">
    <path d="M365.4 113.15 Q371.45 120.8 375.3 132.1 378.6 135.7 377.5 146.6 L376.1 146.7 Q372.2 146.3 370.8 140.2 L370.7 139.6 Q370.25 137.45 370.35 135.7 369.25 126.15 364.95 116.3 363.55 113.45 365.4 113.15 M434.2 113.15 Q436.05 113.45 434.65 116.3 430.35 126.15 429.25 135.7 429.35 137.45 428.9 139.6 L428.8 140.2 Q427.4 146.3 423.5 146.7 L422.1 146.6 Q421.0 135.7 424.3 132.1 428.15 120.8 434.2 113.15" fill="#000000" fill-rule="evenodd" stroke="none"/>
  </g>
</svg>
