<?xml version="1.0" encoding="UTF-8" standalone="no"?>
<svg xmlns:xlink="http://www.w3.org/1999/xlink" height="31.15px" width="60.85px" xmlns="http://www.w3.org/2000/svg">
  <g transform="matrix(1.0, 0.0, 0.0, 1.0, -369.45, -97.0)">
    <path d="M424.15 97.0 L425.65 97.2 Q426.95 97.6 428.45 100.8 L429.3 103.4 429.95 106.7 430.15 108.35 430.3 110.1 430.3 112.1 Q430.3 114.85 429.05 117.75 L428.4 119.2 Q426.95 122.1 425.95 125.6 425.35 127.5 424.15 128.15 414.1 123.85 409.75 106.3 410.55 105.4 412.35 104.55 L415.15 103.4 415.6 103.2 420.2 98.95 421.7 98.05 Q422.75 97.45 423.85 97.15 L424.1 97.0 424.15 97.0 M379.5 98.95 L384.15 103.2 384.6 103.4 387.4 104.55 Q389.2 105.4 390.0 106.3 385.65 123.85 375.55 128.15 374.4 127.5 373.8 125.6 372.75 122.1 371.35 119.2 L370.7 117.75 Q369.45 114.85 369.45 112.1 L369.45 110.1 Q369.45 109.05 369.6 108.35 L369.75 106.7 370.4 103.4 Q370.8 101.7 371.25 100.8 372.75 97.6 374.05 97.2 L375.55 97.0 375.6 97.0 375.9 97.15 Q377.0 97.45 378.05 98.05 L379.5 98.95 M375.55 100.8 L373.75 100.65 Q372.0 104.3 371.9 108.7 371.8 113.2 372.9 116.8 373.15 117.7 373.55 118.45 374.3 120.5 375.55 121.8 L375.9 122.1 376.25 122.35 376.9 122.8 377.3 121.45 Q377.9 119.75 379.05 118.15 L379.5 117.15 Q380.3 115.6 381.3 114.35 L382.05 113.4 Q380.95 112.25 380.5 110.75 L380.3 110.15 380.1 110.2 380.05 111.25 Q379.35 109.25 379.5 107.1 L379.2 107.1 378.8 107.8 378.8 107.1 Q378.95 105.35 379.65 103.8 L378.05 102.2 375.9 101.0 375.55 100.8 M427.8 108.7 Q427.75 104.3 426.0 100.65 L424.15 100.8 423.85 101.0 421.7 102.2 420.1 103.8 Q420.8 105.35 420.9 107.1 L420.9 107.8 420.55 107.1 420.2 107.1 Q420.4 109.25 419.7 111.25 L419.6 110.2 419.45 110.15 419.25 110.75 Q418.8 112.25 417.65 113.4 L418.45 114.35 420.2 117.15 420.65 118.15 Q421.85 119.75 422.4 121.45 L422.8 122.8 423.45 122.35 423.85 122.1 424.15 121.8 Q425.4 120.5 426.2 118.45 L426.85 116.8 Q427.95 113.2 427.8 108.7" fill="#000000" fill-rule="evenodd" stroke="none"/>
  </g>
</svg>
