<?xml version="1.0" encoding="UTF-8" standalone="no"?>
<svg xmlns:xlink="http://www.w3.org/1999/xlink" height="16.15px" width="91.5px" xmlns="http://www.w3.org/2000/svg">
  <g transform="matrix(1.0, 0.0, 0.0, 1.0, -354.1, -112.05)">
    <path d="M370.7 126.35 L369.25 127.7 367.3 128.0 365.95 128.15 Q361.4 128.6 358.4 125.1 356.05 122.35 355.1 118.45 354.3 115.35 354.1 112.05 L362.3 113.25 362.9 113.8 368.15 118.25 Q370.9 120.4 372.05 122.0 373.2 123.55 374.3 123.65 372.45 124.65 370.7 126.35 M431.6 118.25 L436.85 113.8 437.45 113.25 445.6 112.05 Q445.45 115.35 444.65 118.45 443.65 122.35 441.35 125.1 438.35 128.6 433.8 128.15 L432.45 128.0 430.5 127.7 429.05 126.35 Q427.3 124.65 425.4 123.65 426.5 123.55 427.7 122.0 428.85 120.4 431.6 118.25" fill="#000000" fill-rule="evenodd" stroke="none"/>
  </g>
</svg>
