<?xml version="1.0" encoding="UTF-8" standalone="no"?>
<svg xmlns:xlink="http://www.w3.org/1999/xlink" height="551.0px" width="550.6px" xmlns="http://www.w3.org/2000/svg">
  <g transform="matrix(1.0, 0.0, 0.0, 1.0, 275.5, 260.5)">
    <path d="M-52.75 -130.15 L-52.75 -107.95 -42.45 -107.5 -42.45 -130.3 -52.75 -130.15 -52.75 -260.0 M-70.6 -130.3 L-70.6 -109.15 -62.2 -108.5 -62.2 -130.15 -70.6 -130.3 Q-170.85 -132.75 -275.0 -170.5 M-275.0 -104.15 Q-181.9 -121.35 -70.6 -103.95 L-70.6 -109.15 Q-137.55 -114.55 -275.0 -136.4 M-70.6 -103.95 L-70.6 -88.5 Q-66.25 -87.05 -62.2 -85.45 L-62.2 -102.6 -70.6 -103.95 M-62.2 -102.6 L-52.75 -101.0 -52.75 -107.95 -62.2 -108.5 -62.2 -102.6 M-52.75 -130.15 L-62.2 -130.15 -62.2 -260.0 M-18.15 -131.45 L-29.5 -130.75 -29.5 -107.45 -17.7 -108.3 M-42.45 -107.5 L-42.45 -99.1 -29.5 -96.5 -29.5 -107.45 Q-35.25 -107.3 -42.45 -107.5 M-29.5 -130.75 L-42.45 -130.3 -42.45 -260.0 M29.1 -130.75 L29.1 -107.45 Q34.85 -107.3 42.05 -107.5 L42.05 -130.3 29.1 -130.75 17.75 -131.45 M17.3 -108.3 L29.1 -107.45 29.1 -96.5 42.05 -99.05 42.05 -107.5 52.35 -107.95 52.35 -130.1 42.05 -130.3 42.05 -260.0 M52.35 -260.0 L52.35 -130.1 61.8 -130.15 61.8 -260.0 M61.8 -102.6 L70.2 -103.95 70.2 -109.15 61.8 -108.5 61.8 -102.6 61.8 -85.45 70.2 -88.5 70.2 -103.95 Q181.5 -121.35 274.6 -104.15 M52.35 -107.95 L61.8 -108.5 61.8 -130.15 70.2 -130.3 70.2 -260.0 M274.6 -170.5 Q170.45 -132.75 70.2 -130.3 L70.2 -109.15 Q137.15 -114.55 274.6 -136.4 M-70.6 -260.0 L-70.6 -130.3 M-6.3 -260.0 L-6.3 -139.3 M-15.7 -260.0 L-15.7 -134.25 M15.3 -260.0 L15.3 -134.25 M5.9 -260.0 L5.9 -139.3 M29.1 -130.75 L29.1 -260.0 M-29.5 -260.0 L-29.5 -130.75 M61.8 -85.45 L61.8 -67.95 M70.2 -66.15 L70.2 -88.5 Q139.5 -111.55 274.6 -91.7 M61.8 -85.45 Q56.9 -83.5 52.35 -81.3 L52.35 -69.9 M61.8 -102.6 L52.35 -100.95 52.35 -81.3 Q46.95 -78.7 42.05 -75.75 L42.05 -73.8 M15.3 -93.55 L29.1 -96.5 29.1 -79.4 M40.15 -74.6 L42.05 -75.75 42.05 -99.05 52.35 -100.95 52.35 -107.95 M-15.7 -93.55 L-29.5 -96.5 -29.5 -79.4 M-52.75 -81.3 Q-47.35 -78.7 -42.45 -75.75 L-42.45 -99.1 -52.75 -101.0 -52.75 -81.3 Q-57.3 -83.5 -62.2 -85.45 L-62.2 -67.95 M-40.55 -74.6 L-42.45 -75.75 -42.45 -73.8 M-70.6 -66.15 L-70.6 -88.5 Q-139.9 -111.55 -275.0 -91.7 M-52.75 -69.9 L-52.75 -81.3 M-42.55 77.2 Q-46.75 74.65 -48.05 71.15 -49.35 67.6 -53.4 67.7 M-69.1 58.05 Q-67.55 57.3 -65.7 56.95 -67.3 52.7 -68.15 48.1 L-69.25 48.25 M-64.6 59.8 L-65.7 56.95 Q-56.25 55.1 -40.5 64.7 M-71.9 84.2 L-71.65 85.35 -67.3 85.25 M-44.15 90.5 Q-48.05 88.8 -49.05 86.05 -50.25 82.9 -52.2 82.0 -50.45 90.55 -49.55 103.0 L-45.1 104.05 M-57.5 67.15 Q-54.3 71.9 -52.2 82.0 -54.1 81.15 -56.75 82.35 M-37.55 50.95 Q-52.15 45.9 -68.15 48.1 L-68.8 43.85 M-12.2 82.65 L-6.3 82.65 -6.3 71.25 M-15.55 94.4 L-6.3 94.4 -6.3 82.65 5.9 82.65 5.9 71.25 M-33.75 36.35 Q-56.0 33.4 -67.35 35.7 M-62.1 20.8 Q-46.75 18.75 -29.6 23.45 M-66.25 3.75 Q-47.35 5.85 -28.45 13.25 M11.8 82.65 L5.9 82.65 5.9 94.4 15.15 94.4 M68.4 43.85 L67.75 48.1 68.85 48.25 M42.15 77.2 Q46.35 74.65 47.65 71.15 48.95 67.6 53.0 67.7 M64.2 59.8 L65.35 56.95 Q55.85 55.1 40.1 64.7 M43.75 90.5 Q47.65 88.8 48.65 86.05 49.85 82.9 51.85 82.0 53.9 71.9 57.1 67.15 M51.85 82.0 Q53.7 81.15 56.35 82.35 M71.5 84.2 L71.3 85.35 Q168.35 87.15 274.6 111.95 M59.5 90.15 Q58.3 95.9 57.45 101.5 L68.8 100.15 Q69.75 92.75 71.3 85.35 L66.9 85.25 M68.7 58.05 Q67.15 57.3 65.35 56.95 66.9 52.7 67.75 48.1 51.75 45.85 37.15 50.95 M65.85 3.75 Q46.95 5.85 28.05 13.25 M61.7 20.8 Q46.35 18.75 29.2 23.45 M33.35 36.35 Q55.6 33.4 66.95 35.7 M-30.6 1.5 L-57.85 -6.9 M30.2 1.5 L57.45 -6.9 M-8.4 70.3 L8.0 70.3 M-6.3 94.4 L-6.3 104.15 -0.2 103.9 5.9 104.15 5.9 94.4 -6.3 94.4 M-275.0 -52.3 Q-173.55 -75.2 -79.45 -44.25 M-80.3 -28.15 Q-174.15 -48.1 -275.0 -34.7 M-82.15 -15.4 Q-173.65 -33.75 -275.0 -16.2 M-85.4 1.65 Q-177.7 -15.05 -275.0 1.85 M-93.2 15.8 Q-176.05 0.15 -275.0 20.35 M-90.05 34.4 Q-169.1 19.15 -275.0 39.35 M-86.05 48.65 Q-173.9 38.5 -275.0 58.8 M-81.85 61.6 Q-178.4 54.1 -275.0 76.85 M-91.0 219.45 Q-84.8 217.8 -78.65 216.4 -75.7 209.75 -72.2 202.85 L-69.6 197.45 -81.3 198.3 Q-85.5 208.95 -91.0 219.45 L-91.25 219.95 Q-94.75 226.3 -97.45 233.65 -90.75 231.2 -83.85 229.1 L-78.65 216.4 Q-69.05 214.2 -59.45 212.6 -56.6 205.9 -54.5 197.4 -61.95 197.1 -69.6 197.45 -67.1 192.0 -65.05 186.5 L-76.95 186.15 Q-78.9 192.25 -81.3 198.3 -166.1 206.95 -275.0 290.0 M-88.4 242.5 Q-82.75 240.3 -76.95 238.55 -74.2 233.1 -70.3 229.35 L-65.7 224.0 Q-74.9 226.3 -83.85 229.1 -86.45 235.9 -88.4 242.5 -90.95 250.9 -92.45 258.85 -87.45 256.15 -82.05 254.05 -80.35 245.1 -76.95 238.55 L-74.3 237.7 M-76.1 251.85 L-82.05 254.05 Q-84.8 268.8 -83.0 290.0 M-94.45 290.0 Q-95.65 275.4 -92.45 258.85 -99.2 262.35 -105.2 266.85 -106.55 277.75 -106.8 290.0 M-88.4 242.5 Q-95.25 245.1 -101.9 248.3 -104.0 257.0 -105.2 266.85 -118.1 276.35 -128.0 290.0 M-160.2 290.0 Q-133.15 263.15 -101.9 248.3 -100.05 240.55 -97.45 233.65 -150.95 252.8 -196.85 290.0 M-91.0 219.45 Q-162.9 238.6 -237.0 290.0 M-275.0 261.6 Q-166.75 186.25 -76.95 186.15 -74.9 179.8 -73.25 173.4 -155.6 169.05 -275.0 230.55 M236.6 290.0 Q162.5 238.6 90.6 219.45 L90.85 219.95 Q94.35 226.3 97.1 233.6 150.55 252.75 196.45 290.0 M106.4 290.0 Q106.15 277.75 104.85 266.85 98.8 262.35 92.1 258.85 95.25 275.4 94.05 290.0 M159.8 290.0 Q132.75 263.15 101.55 248.3 103.6 257.0 104.85 266.85 117.7 276.35 127.6 290.0 M101.55 248.3 Q99.65 240.5 97.1 233.6 90.35 231.2 83.45 229.05 86.05 235.9 88.05 242.5 94.85 245.1 101.55 248.3 M88.05 242.5 Q82.35 240.3 76.6 238.55 79.95 245.1 81.65 254.05 87.05 256.15 92.1 258.85 90.55 250.9 88.05 242.5 M274.6 126.6 Q136.1 94.25 68.8 100.15 67.9 107.2 67.45 114.2 150.7 107.75 274.6 144.65 M55.8 115.3 Q56.35 108.5 57.45 101.5 L49.15 103.0 48.45 116.3 55.8 115.3 67.45 114.2 Q67.15 119.1 67.1 124.05 138.0 119.35 274.6 163.4 M50.7 145.3 L55.6 144.3 Q54.85 134.95 55.2 125.25 L48.2 126.4 48.1 136.6 M67.1 124.05 Q66.95 133.25 67.75 142.35 154.0 130.8 274.6 181.95 M48.45 116.3 Q48.25 121.1 48.2 126.4 L44.8 127.05 M55.6 144.3 Q56.2 152.5 57.65 160.45 63.5 159.1 69.7 158.25 68.4 150.3 67.75 142.35 L55.6 144.3 M55.8 115.3 Q55.35 120.3 55.2 125.25 L67.1 124.05 M22.8 127.4 Q15.25 123.8 5.9 123.2 L5.9 143.95 Q7.9 144.6 9.55 145.55 13.4 147.8 18.8 148.0 M20.7 117.35 Q13.95 114.85 5.9 114.25 L5.9 123.2 Q2.95 123.0 -0.2 123.1 -3.35 123.0 -6.3 123.2 L-6.3 143.95 Q-3.6 143.05 -0.2 142.65 3.2 143.0 5.9 143.95 L5.9 163.0 25.6 164.5 M18.1 106.25 Q11.85 104.65 5.9 104.15 L5.9 114.25 -0.2 114.05 -6.3 114.25 -6.3 123.2 Q-15.65 123.8 -23.2 127.4 M5.9 177.35 L-6.3 177.35 -6.3 187.05 -0.2 187.05 5.9 187.05 5.9 177.35 5.9 163.0 Q2.85 162.95 -0.2 163.05 L-6.3 163.0 -6.3 177.35 -31.7 178.15 -33.3 188.9 Q-20.35 187.2 -6.3 187.05 L-6.3 209.95 -0.2 210.45 5.9 209.95 5.9 187.05 Q19.95 187.2 32.95 188.9 L31.35 178.15 5.9 177.35 M31.7 178.15 L31.35 178.15 31.1 176.55 M32.95 188.9 L34.8 189.15 M49.45 167.2 L50.35 175.95 60.8 174.4 Q58.9 167.55 57.65 160.45 L50.15 162.35 M52.05 187.6 L54.15 197.4 Q61.55 197.1 69.2 197.45 66.7 192.05 64.7 186.5 L52.05 187.6 Q51.05 182.05 50.35 175.95 L48.0 176.35 M46.2 188.35 L52.05 187.6 M64.7 186.5 L76.55 186.15 Q74.5 179.8 72.9 173.4 L60.8 174.4 Q62.5 180.5 64.7 186.5 M274.6 205.6 Q149.35 146.55 69.7 158.25 70.95 165.85 72.9 173.4 155.2 169.05 274.6 230.55 M45.0 116.8 L48.45 116.3 M49.15 103.0 L44.7 104.05 M-21.1 117.35 Q-14.4 114.85 -6.3 114.25 L-6.3 104.15 Q-12.25 104.65 -18.5 106.25 M-45.4 116.8 L-48.8 116.3 -48.55 126.4 -45.2 127.05 M-49.55 103.0 L-57.85 101.5 Q-56.75 108.5 -56.15 115.3 L-48.8 116.3 Q-49.1 109.15 -49.55 103.0 M-57.85 101.5 L-69.2 100.15 Q-68.3 107.2 -67.85 114.2 L-56.15 115.3 -55.55 125.25 -48.55 126.4 -48.5 136.6 M-55.95 144.3 Q-55.25 134.95 -55.55 125.25 L-67.45 124.05 Q-67.35 133.25 -68.1 142.35 -61.95 143.15 -55.95 144.3 L-51.1 145.3 M-67.85 114.2 L-67.45 124.05 Q-138.4 119.35 -275.0 163.4 M-70.1 158.25 Q-71.4 165.85 -73.25 173.4 L-61.2 174.4 Q-59.3 167.55 -58.0 160.45 -63.95 159.1 -70.1 158.25 -149.75 146.55 -275.0 205.6 M-65.05 186.5 L-52.45 187.6 Q-51.45 182.05 -50.7 175.95 L-61.2 174.4 Q-62.9 180.5 -65.05 186.5 M-48.4 176.35 L-50.7 175.95 -49.85 167.2 M-46.6 188.35 L-52.45 187.6 Q-53.4 192.75 -54.5 197.4 L-45.1 198.05 M-55.95 144.3 Q-56.6 152.5 -58.0 160.45 L-50.55 162.35 M-32.1 178.15 L-31.7 178.15 -31.5 176.55 M-35.2 189.15 L-33.3 188.9 -34.65 198.1 Q-27.4 197.6 -21.05 203.5 -16.0 208.55 -6.3 209.95 L-6.3 230.15 Q-3.35 230.35 -0.2 230.2 2.95 230.35 5.9 230.15 L5.9 209.95 Q15.6 208.5 20.65 203.5 27.0 197.6 34.3 198.1 L32.95 188.9 M-26.0 164.5 L-6.3 163.0 -6.3 143.95 Q-8.35 144.6 -9.95 145.55 -13.8 147.8 -19.2 148.0 M-68.1 142.35 Q-68.8 150.3 -70.1 158.25 M-35.2 216.65 Q-23.3 229.0 -6.3 230.15 L-6.3 245.95 -0.2 246.2 5.9 245.95 5.9 230.15 Q22.9 229.05 34.8 216.65 M-53.1 211.6 L-59.45 212.6 Q-62.25 219.15 -65.7 224.0 L-62.5 223.2 M-6.3 290.0 L-6.3 268.85 Q-30.2 268.35 -54.1 256.4 -56.6 271.95 -56.3 290.0 M-61.35 290.0 L-61.35 260.0 M-69.75 290.0 L-69.75 260.0 M-46.55 247.4 Q-31.45 257.6 -6.3 258.8 L-6.3 245.95 Q-28.8 244.35 -42.0 232.35 M-0.2 268.75 L5.9 268.85 5.9 258.8 -0.2 258.95 -6.3 258.8 -6.3 268.85 -0.2 268.75 M-37.15 198.45 L-34.65 198.1 -35.85 206.15 M69.2 197.45 L80.9 198.3 Q78.5 192.25 76.55 186.15 166.3 186.25 274.6 261.6 M54.15 197.4 Q56.25 205.9 59.1 212.6 68.65 214.2 78.25 216.4 75.3 209.75 71.8 202.85 L69.2 197.45 M52.7 211.6 L59.1 212.6 Q61.85 219.15 65.35 224.0 74.5 226.25 83.45 229.05 L78.25 216.4 90.6 219.45 Q85.1 208.95 80.9 198.3 165.75 207.0 274.6 290.0 M62.1 223.2 L65.35 224.0 Q67.45 227.0 69.9 229.35 73.8 233.15 76.6 238.55 L73.9 237.7 M36.75 198.45 L34.3 198.1 35.45 206.15 M5.9 290.0 L5.9 268.85 Q29.8 268.35 53.7 256.4 56.2 271.95 55.9 290.0 M41.6 232.35 Q28.4 244.35 5.9 245.95 L5.9 258.8 Q31.05 257.6 46.15 247.4 M69.35 290.0 L69.35 260.0 M60.95 290.0 L60.95 260.0 M82.6 290.0 Q84.45 268.75 81.65 254.05 L75.7 251.85 M54.15 197.4 L44.7 198.05 M-71.9 -64.6 Q-137.5 -97.2 -275.0 -75.0 M-80.75 75.85 Q-174.25 71.4 -275.0 96.3 M-275.0 181.95 Q-154.45 130.8 -68.1 142.35 M-275.0 144.65 Q-151.1 107.75 -67.85 114.2 M51.85 82.0 Q50.1 90.6 49.15 103.0 M-57.85 101.5 Q-58.7 95.9 -59.9 90.15 M-275.0 126.6 Q-136.5 94.3 -69.2 100.15 -70.15 92.75 -71.65 85.35 -168.75 87.15 -275.0 111.95 M81.45 61.6 Q178.0 54.1 274.6 76.85 M85.65 48.65 Q173.5 38.5 274.6 58.8 M89.65 34.4 Q168.7 19.15 274.6 39.35 M92.8 15.8 Q175.65 0.15 274.6 20.35 M85.0 1.65 Q177.3 -15.05 274.6 1.85 M81.75 -15.4 Q173.25 -33.75 274.6 -16.2 M79.9 -28.15 Q173.75 -48.1 274.6 -34.7 M274.6 -52.3 Q173.15 -75.2 79.05 -44.25 M80.35 75.85 Q173.85 71.4 274.6 96.3 M71.5 -64.6 Q137.1 -97.2 274.6 -75.0" fill="none" stroke="#000000" stroke-linecap="round" stroke-linejoin="round" stroke-opacity="0.2509804" stroke-width="1.0"/>
    <path d="M-6.3 -139.3 L-6.3 -133.25 -0.2 -133.45 5.9 -133.25 5.9 -139.3 M-18.15 -131.4 L-15.7 -131.95 -15.7 -134.25 M-17.7 -108.3 L-15.7 -108.7 -15.7 -120.75 -18.85 -120.05 M-6.3 -122.1 L-6.3 -109.9 -0.2 -110.15 5.9 -109.9 5.9 -122.1 -0.2 -122.4 -6.3 -122.1 -6.3 -133.25 -15.7 -131.95 -15.7 -120.75 -6.3 -122.1 M-15.7 -108.7 L-6.3 -109.9 -6.3 -98.45 -0.2 -98.75 5.9 -98.45 5.9 -109.9 15.3 -108.7 15.3 -120.75 5.9 -122.1 5.9 -133.25 15.3 -131.95 15.3 -134.25 M15.3 -131.95 L17.75 -131.4 M18.45 -120.05 L15.3 -120.75 15.3 -131.95 M15.3 -108.7 L17.3 -108.3 M52.65 -57.15 L52.9 -44.8 53.7 -39.75 63.8 -41.3 Q62.3 -51.0 61.95 -60.3 57.45 -58.6 52.65 -57.15 L52.35 -69.9 M71.5 -64.6 L70.4 -64.05 72.4 -42.9 79.05 -44.25 M61.8 -67.95 Q61.75 -64.15 61.95 -60.3 66.3 -62.05 70.4 -64.05 L70.2 -66.15 M5.9 -98.45 Q10.05 -98.05 14.3 -96.9 M7.7 -90.35 Q11.45 -90.85 15.3 -93.55 M5.9 -63.55 Q12.55 -63.8 18.25 -64.8 17.8 -72.9 16.75 -81.1 12.85 -77.25 5.9 -76.2 L5.9 -63.55 5.9 -50.55 18.65 -51.1 Q18.65 -57.95 18.25 -64.8 25.25 -66.1 30.85 -68.65 L29.1 -79.4 M31.9 -52.6 Q31.95 -45.0 31.15 -37.35 L44.55 -38.6 Q44.65 -46.75 44.1 -54.9 L31.9 -52.6 Q31.85 -60.65 30.85 -68.65 36.15 -71.05 40.15 -74.6 M42.05 -73.8 Q43.5 -64.35 44.1 -54.9 48.5 -55.9 52.65 -57.15 M5.9 -98.45 L5.9 -76.2 -0.2 -75.85 -6.3 -76.2 -6.3 -63.55 -0.2 -63.55 5.9 -63.55 M31.15 -37.35 L29.8 -27.75 29.2 -24.25 Q40.35 -22.5 49.9 -19.35 53.7 -21.0 57.85 -22.45 55.25 -31.1 53.7 -39.75 L44.55 -38.6 44.4 -32.4 M5.9 -50.55 L5.9 -36.45 18.05 -36.65 Q18.6 -43.85 18.65 -51.1 L31.9 -52.6 M5.9 -36.45 L5.9 -26.45 17.1 -25.75 17.6 -31.5 18.05 -36.65 31.15 -37.35 M5.9 -26.45 L5.9 -12.8 15.9 -12.0 17.1 -25.75 29.2 -24.25 26.85 -10.55 36.35 -8.7 M15.9 -12.0 L26.85 -10.55 24.8 1.6 30.2 1.5 M72.4 -42.9 L63.8 -41.3 64.25 -38.6 67.35 -25.35 75.3 -27.25 73.1 -35.45 72.4 -42.9 M57.45 -6.9 L62.5 -8.8 Q59.85 -15.6 57.85 -22.45 62.35 -24.05 67.35 -25.35 L71.0 -11.6 78.85 -13.85 75.3 -27.25 79.9 -28.15 M81.9 -14.65 L78.85 -13.85 83.4 2.1 85.0 1.65 M62.5 -8.8 Q64.95 -2.5 67.95 3.85 L75.6 3.5 Q73.15 -4.05 71.0 -11.6 L62.5 -8.8 M-14.7 -96.9 Q-10.45 -98.05 -6.3 -98.45 L-6.3 -76.2 Q-13.25 -77.25 -17.15 -81.1 -18.2 -72.9 -18.65 -64.85 L-6.3 -63.55 -6.3 -50.55 -0.2 -50.5 5.9 -50.55 M-29.5 -79.4 L-31.25 -68.65 Q-25.65 -66.15 -18.65 -64.85 L-19.0 -51.1 -6.3 -50.55 -6.3 -36.45 -0.2 -36.5 5.9 -36.45 M-42.45 -73.8 Q-43.9 -64.35 -44.5 -54.9 L-32.3 -52.6 Q-32.25 -60.65 -31.25 -68.65 -36.55 -71.05 -40.55 -74.6 M-8.1 -90.35 Q-11.85 -90.85 -15.7 -93.55 M-53.0 -57.15 L-53.3 -44.8 -54.1 -39.8 -44.95 -38.65 Q-45.05 -46.75 -44.5 -54.9 L-53.0 -57.15 Q-57.85 -58.6 -62.3 -60.3 -62.65 -51.0 -64.2 -41.3 L-54.1 -39.8 Q-55.65 -31.15 -58.2 -22.45 -54.1 -21.0 -50.3 -19.35 -40.8 -22.5 -29.6 -24.25 L-30.2 -27.75 Q-31.05 -32.55 -31.55 -37.4 L-44.95 -38.65 -44.8 -32.4 M-53.0 -57.15 L-52.75 -69.9 M-62.2 -67.95 L-62.3 -60.3 Q-66.7 -62.05 -70.8 -64.05 L-72.8 -42.9 -64.2 -41.3 -64.65 -38.6 -67.7 -25.35 -58.2 -22.45 Q-60.25 -15.6 -62.9 -8.8 L-57.85 -6.9 M-71.9 -64.6 L-70.8 -64.05 -70.6 -66.15 M-80.3 -28.15 L-75.65 -27.25 -73.5 -35.45 -72.8 -42.9 -79.45 -44.25 M-67.7 -25.35 L-71.4 -11.6 -62.9 -8.8 Q-65.35 -2.5 -68.3 3.85 L-66.25 3.75 M-75.65 -27.25 L-67.7 -25.35 M-29.6 -24.25 L-17.5 -25.75 -18.0 -31.5 -18.45 -36.65 -31.55 -37.4 Q-32.35 -45.0 -32.3 -52.6 L-19.0 -51.1 Q-19.0 -43.85 -18.45 -36.65 L-6.3 -36.45 -6.3 -26.45 -0.2 -26.6 5.9 -26.45 M-29.6 -24.25 L-27.25 -10.55 -16.25 -12.0 -17.5 -25.75 -6.3 -26.45 -6.3 -12.8 -0.2 -13.1 5.9 -12.8 5.9 1.6 14.7 1.65 15.9 -12.0 M-16.25 -12.0 L-6.3 -12.8 -6.3 1.6 -0.2 1.5 5.9 1.6 5.9 15.45 13.5 15.15 14.7 1.65 24.8 1.6 22.65 14.2 28.05 13.25 M-36.75 -8.7 L-27.25 -10.55 -25.15 1.6 -15.05 1.65 -16.25 -12.0 M-6.3 15.45 L-6.3 1.6 -15.05 1.65 -13.85 15.15 -6.3 15.45 -0.2 15.45 5.9 15.45 5.9 28.1 13.5 27.55 12.95 21.15 13.5 15.15 22.65 14.2 21.5 20.75 22.4 25.9 Q26.2 24.9 29.2 23.45 M-13.85 15.15 L-13.35 21.15 -13.85 27.55 -6.3 28.1 -6.3 15.45 M-29.6 23.45 Q-26.6 24.9 -22.8 25.9 L-21.9 20.75 -23.0 14.2 -28.45 13.25 M-23.0 14.2 L-25.15 1.6 -30.6 1.5 M-37.55 50.95 Q-33.05 52.75 -28.25 54.1 L-25.6 42.05 -25.1 39.35 Q-29.45 38.05 -33.75 36.35 M-25.1 39.35 L-22.8 25.9 -13.85 27.55 -15.05 41.75 -6.3 42.9 -6.3 28.1 -0.2 28.2 5.9 28.1 5.9 42.9 14.7 41.75 13.5 27.55 22.4 25.9 24.75 39.35 33.35 36.35 M-6.3 42.9 L-0.2 43.2 5.9 42.9 5.9 71.25 M-25.1 39.35 Q-20.1 40.85 -15.05 41.75 L-15.7 49.4 -17.4 56.55 -7.25 57.9 M-13.85 15.15 L-23.0 14.2 M-67.35 35.7 L-69.8 35.75 -68.8 43.85 M-62.1 20.8 Q-66.45 20.95 -70.7 20.7 -70.55 28.2 -69.8 35.75 L-77.65 35.6 -75.2 48.85 -69.25 48.25 M-70.6 8.5 L-68.3 3.85 -75.95 3.5 -80.05 15.55 -79.7 19.6 -70.7 20.7 Q-70.85 14.6 -70.6 8.5 M-69.1 58.05 L-72.6 59.85 -72.35 60.75 -68.0 74.7 Q-62.15 73.4 -57.5 70.7 L-53.4 67.7 M-75.2 48.85 L-72.6 59.85 Q-76.15 61.3 -79.55 61.6 L-75.4 75.7 -68.0 74.7 -66.05 81.0 -63.15 85.3 Q-60.65 84.95 -58.7 83.55 L-56.8 82.4 M-57.5 67.15 L-64.6 59.8 M-71.9 84.2 L-74.15 79.95 -75.4 75.7 -80.75 75.85 M-63.15 85.3 L-59.9 90.15 M-63.15 85.3 Q-65.05 85.55 -67.3 85.25 M-40.5 64.7 L-30.9 67.25 -28.25 54.1 -17.4 56.55 -20.3 69.2 -8.4 70.3 M-30.9 67.25 L-20.3 69.2 -22.95 81.9 -12.2 82.65 M-22.95 81.9 L-25.35 94.4 Q-20.6 94.7 -15.55 94.4 M-22.95 81.9 Q-28.2 81.2 -33.3 79.95 L-35.5 93.0 -25.35 94.4 -27.55 106.8 -18.5 106.25 M-42.55 77.2 L-33.3 79.95 -30.9 67.25 M-6.3 42.9 L-6.3 71.25 M-44.15 90.5 Q-39.95 92.0 -35.5 93.0 L-37.5 106.1 -27.55 106.8 -29.35 118.3 -21.1 117.35 M61.7 20.8 Q66.05 20.95 70.35 20.7 L70.2 8.5 67.95 3.85 65.85 3.75 M79.3 19.6 L87.5 17.6 87.75 15.45 83.4 2.1 75.6 3.5 79.65 15.55 79.3 19.6 Q78.55 27.65 77.3 35.6 L84.95 35.1 Q86.45 26.45 87.5 17.6 L92.8 15.8 M70.35 20.7 L79.3 19.6 M70.35 20.7 Q70.15 28.2 69.4 35.75 L77.3 35.6 74.85 48.85 Q78.75 49.1 82.2 48.95 L84.95 35.1 89.65 34.4 M68.4 43.85 L69.4 35.75 66.95 35.7 M14.7 41.75 L15.3 49.4 17.05 56.55 Q22.65 55.55 27.85 54.1 L25.2 42.05 24.75 39.35 Q19.7 40.85 14.7 41.75 M17.05 56.55 L19.95 69.2 30.55 67.3 27.85 54.1 37.15 50.95 M40.1 64.7 Q35.35 66.2 30.55 67.3 L32.95 79.95 Q37.6 78.8 42.15 77.2 M11.8 82.65 L22.6 81.9 19.95 69.2 8.0 70.3 M6.85 57.9 L17.05 56.55 M15.15 94.4 Q20.2 94.7 25.0 94.35 L22.6 81.9 32.95 79.95 35.15 92.95 Q39.55 92.0 43.75 90.5 M25.0 94.35 L35.15 92.95 37.1 106.1 Q41.3 105.4 44.7 104.05 M82.2 48.95 L85.65 48.65 M68.85 48.25 L74.85 48.85 72.2 59.85 Q75.75 61.3 79.2 61.6 L79.2 61.45 82.2 48.95 M72.2 59.85 L71.95 60.75 67.65 74.7 75.0 75.7 79.2 61.6 81.45 61.6 M68.7 58.05 Q70.45 59.1 72.2 59.85 M57.1 67.15 L64.2 59.8 M56.4 82.4 L58.3 83.55 Q60.25 84.95 62.75 85.3 L65.65 81.0 67.65 74.7 Q61.75 73.4 57.1 70.7 L53.0 67.7 M66.9 85.25 Q64.65 85.55 62.75 85.3 L59.5 90.15 M80.35 75.85 L75.0 75.7 73.75 79.95 71.5 84.2 M-71.4 -11.6 L-75.95 3.5 -83.75 2.1 -88.15 15.45 -87.9 17.6 -79.7 19.6 Q-78.95 27.65 -77.65 35.6 L-85.35 35.1 -82.6 48.95 Q-79.15 49.1 -75.2 48.85 M-15.7 -108.7 L-15.7 -97.9 M15.3 -108.7 L15.3 -97.9 M-82.3 -14.65 L-79.2 -13.85 -75.65 -27.25 M-90.05 34.4 L-85.35 35.1 Q-86.85 26.45 -87.9 17.6 L-93.2 15.8 M-83.75 2.1 L-85.4 1.65 M-81.85 61.6 L-79.55 61.6 -79.6 61.45 -82.6 48.95 -86.05 48.65 M-83.75 2.1 L-79.2 -13.85 -71.4 -11.6 M20.7 117.35 L29.0 118.3 27.2 106.8 18.1 106.25 M25.0 94.35 L27.2 106.8 37.1 106.1 38.7 118.2 Q42.25 117.8 45.0 116.8 M29.0 118.3 Q34.4 118.65 38.7 118.2 L40.0 129.35 Q42.7 128.6 44.8 127.05 M30.6 129.45 L31.85 139.5 33.5 148.25 42.0 147.3 40.85 138.15 40.0 129.35 Q35.95 130.35 30.6 129.45 27.0 128.85 22.8 127.4 25.25 137.95 27.15 148.4 L33.5 148.25 36.05 164.55 43.1 163.8 Q42.8 155.3 42.0 147.3 L48.5 145.9 48.1 136.6 M29.0 118.3 L30.6 129.45 M31.1 176.55 L29.7 164.65 25.6 164.5 M27.15 148.4 Q28.6 156.55 29.7 164.65 L36.05 164.55 37.75 177.95 43.3 177.3 43.1 163.8 49.25 162.6 48.5 145.9 50.7 145.3 M37.75 177.95 L38.95 189.55 42.9 189.25 43.3 177.3 48.0 176.35 M37.75 177.95 L31.7 178.15 M34.8 189.15 L38.95 189.55 39.75 199.05 42.6 198.95 42.35 198.2 42.9 189.25 46.2 188.35 M18.8 148.0 L27.15 148.4 M50.15 162.35 L49.25 162.6 49.45 167.2 M-30.95 129.45 L-32.25 139.5 -33.9 148.2 -27.5 148.4 Q-25.65 137.95 -23.2 127.4 -27.4 128.85 -30.95 129.45 L-29.35 118.3 Q-34.8 118.65 -39.1 118.2 L-40.35 129.35 Q-36.35 130.35 -30.95 129.45 M-48.5 136.6 L-48.9 145.9 -42.35 147.25 -41.25 138.15 -40.35 129.35 Q-43.1 128.6 -45.2 127.05 M-39.1 118.2 Q-42.65 117.75 -45.4 116.8 M-39.1 118.2 L-37.5 106.1 Q-41.7 105.4 -45.1 104.05 M-48.9 145.9 L-49.65 162.6 -43.5 163.8 Q-43.2 155.3 -42.35 147.25 L-33.9 148.2 -36.45 164.55 -30.05 164.7 -27.5 148.4 -19.2 148.0 M-43.5 163.8 L-36.45 164.55 -38.15 177.95 -32.1 178.15 M-50.55 162.35 L-49.65 162.6 -49.85 167.2 M-43.65 177.3 L-43.3 189.25 -39.35 189.55 -38.15 177.95 -43.65 177.3 -48.4 176.35 M-46.6 188.35 L-43.3 189.25 -42.75 198.2 -42.95 198.95 -40.1 199.05 -39.35 189.55 -35.2 189.15 M-43.65 177.3 Q-43.75 170.4 -43.5 163.8 M-26.0 164.5 L-30.05 164.7 -31.5 176.55 M-48.9 145.9 L-51.1 145.3 M-45.1 198.05 Q-44.2 198.7 -42.95 198.95 L-45.2 206.4 -48.5 211.3 Q-46.05 211.45 -43.5 212.25 L-40.65 206.9 -40.1 199.05 -37.15 198.45 M-62.5 223.2 Q-59.6 222.75 -56.65 223.3 L-48.5 211.3 -53.1 211.6 M-37.85 214.9 Q-40.75 213.15 -43.5 212.25 L-50.55 225.5 Q-47.35 227.25 -44.1 230.25 L-38.7 218.35 -37.85 214.9 -35.85 206.15 M-65.45 236.25 L-66.3 237.45 Q-70.4 242.55 -70.65 250.55 -66.15 250.1 -61.55 251.95 -61.15 244.3 -57.85 239.05 L-57.5 238.4 Q-61.4 236.45 -65.45 236.25 -69.8 236.0 -74.3 237.7 M-65.45 236.25 L-56.65 223.3 Q-53.6 223.85 -50.55 225.5 L-57.5 238.4 Q-53.75 240.2 -50.15 243.6 L-49.45 242.0 -44.1 230.25 -42.0 232.35 M-61.35 260.0 Q-61.8 255.7 -61.55 251.95 -57.9 253.4 -54.15 256.35 -53.15 250.65 -50.15 243.6 L-46.55 247.4 M-69.75 260.0 Q-70.75 254.85 -70.65 250.55 -73.4 250.8 -76.1 251.85 M-37.85 214.9 Q-36.55 215.65 -35.2 216.65 M44.7 198.05 Q43.75 198.7 42.6 198.95 L44.8 206.4 48.1 211.3 52.7 211.6 M48.1 211.3 L56.25 223.3 Q59.2 222.75 62.1 223.2 M50.2 225.5 L57.1 238.4 Q61.0 236.45 65.1 236.25 L56.25 223.3 Q53.2 223.85 50.2 225.5 L43.1 212.25 Q40.35 213.15 37.5 214.9 L38.3 218.35 43.7 230.25 Q46.95 227.25 50.2 225.5 M43.7 230.25 L49.05 242.0 49.75 243.6 Q53.35 240.2 57.1 238.4 L57.45 239.05 Q60.75 244.3 61.2 251.95 65.75 250.1 70.25 250.55 70.0 242.55 65.9 237.45 L65.1 236.25 Q69.4 236.0 73.9 237.7 M43.1 212.25 L40.25 206.9 39.75 199.05 36.75 198.45 M34.8 216.65 L37.5 214.9 35.45 206.15 M41.6 232.35 L43.7 230.25 M70.25 250.55 Q73.0 250.75 75.7 251.85 M69.35 260.0 Q70.35 254.85 70.25 250.55 M60.95 260.0 Q61.4 255.65 61.2 251.95 57.5 253.4 53.8 256.35 52.8 250.65 49.75 243.6 L46.15 247.4 M48.1 211.3 Q45.65 211.4 43.1 212.25" fill="none" stroke="#000000" stroke-linecap="round" stroke-linejoin="round" stroke-opacity="0.2509804" stroke-width="1.0"/>
  </g>
</svg>
