<?xml version="1.0" encoding="UTF-8" standalone="no"?>
<svg xmlns:xlink="http://www.w3.org/1999/xlink" height="68.0px" width="81.85px" xmlns="http://www.w3.org/2000/svg">
  <g transform="matrix(1.0, 0.0, 0.0, 1.0, -169.15, -155.95)">
    <path d="M169.15 185.5 Q171.75 182.15 173.3 178.8 L182.6 176.75 182.65 176.8 182.65 176.75 Q208.0 173.5 227.1 172.9 240.3 172.5 250.5 173.45 L251.0 176.15 247.35 180.8 240.75 180.45 Q233.5 179.15 226.25 179.15 218.85 179.05 211.55 180.45 200.6 182.55 193.75 181.75 176.25 184.3 171.2 188.5 L169.15 185.5 M172.1 157.25 Q200.7 155.65 220.9 156.0 L244.55 157.3 Q246.7 161.3 248.25 165.5 237.35 164.8 224.8 165.0 202.8 165.25 175.5 168.1 175.25 162.65 172.1 157.25 M238.2 193.5 Q233.85 193.2 228.9 193.35 L214.6 194.4 Q200.45 196.05 182.5 200.2 178.85 197.25 175.8 194.0 224.8 182.55 248.7 187.9 L248.55 190.95 246.9 194.65 238.2 193.5 M239.6 218.5 L239.0 223.4 Q222.95 224.55 190.75 223.3 L190.8 217.7 215.4 216.45 226.35 216.35 239.95 216.8 239.6 218.5 M241.65 209.7 L236.45 209.0 227.8 208.55 211.7 209.25 Q202.0 210.1 190.55 212.1 L189.85 205.45 Q200.1 203.45 208.85 202.35 L229.1 200.9 238.35 201.35 243.95 202.2 242.7 206.05 241.65 209.7" fill="#000000" fill-rule="evenodd" stroke="none"/>
  </g>
</svg>
