<?xml version="1.0" encoding="UTF-8" standalone="no"?>
<svg xmlns:xlink="http://www.w3.org/1999/xlink" height="146.55px" width="119.0px" xmlns="http://www.w3.org/2000/svg">
  <g transform="matrix(1.0, 0.0, 0.0, 1.0, -136.95, -120.85)">
    <path d="M210.1 137.45 L210.1 140.0 221.6 143.0 M176.45 139.5 Q181.85 137.7 186.25 134.6 M187.0 128.9 L187.9 121.85 M239.0 148.25 L250.35 152.2 M253.0 163.75 Q253.5 167.3 253.6 171.1 M253.5 178.55 L252.45 188.25 M182.5 200.2 Q178.85 197.25 175.8 194.0 M171.2 188.5 L169.15 185.5 168.15 188.8 165.85 195.85 M144.8 174.0 Q144.8 168.65 145.2 163.5 M145.0 182.7 L145.6 191.55 M146.3 152.5 Q152.7 148.55 161.05 144.95 M146.75 201.2 L147.75 207.8 146.35 209.75 M139.3 235.55 Q140.05 239.1 141.2 242.7 M137.95 226.65 Q139.25 221.85 141.8 217.0 M161.15 249.05 L160.95 255.2 M146.55 255.7 L143.85 249.8 M161.0 260.15 L161.15 265.25 M152.65 266.35 L152.05 265.35 149.55 261.1 M250.75 196.95 L248.95 203.95 M190.55 212.1 L189.85 205.45 M251.75 240.5 Q251.55 243.9 251.5 247.3 M238.95 248.75 L237.45 242.3 M253.45 223.95 L252.35 232.8 M251.95 209.45 L254.95 214.95 M190.75 223.3 L190.8 217.7 M251.45 253.5 L251.6 258.8 251.65 259.95 251.65 260.25 251.75 261.65 M241.95 261.85 L240.4 255.1 M162.0 220.85 Q163.35 224.6 164.05 228.35 M159.7 213.3 L162.5 205.65 M161.6 242.9 Q161.9 239.5 162.45 236.25" fill="none" stroke="#000000" stroke-linecap="round" stroke-linejoin="round" stroke-width="2.0"/>
    <path d="M221.6 143.0 Q224.6 147.0 221.6 150.5 L220.95 150.55 Q220.3 151.6 218.7 151.6 L218.65 151.6 Q217.2 151.55 214.95 150.7 L205.1 149.65 201.4 148.95 189.35 147.3 Q180.7 146.2 176.45 139.5 M186.25 134.6 Q188.9 143.25 199.2 145.55 L210.1 146.25 210.1 140.0 Q201.8 141.05 195.8 137.9 190.5 135.05 187.0 128.9 M187.9 121.85 Q190.15 128.85 198.45 131.25 L201.0 133.7 205.6 137.45 210.1 137.45 M195.8 137.9 Q194.45 134.35 193.65 130.85 M161.05 144.95 Q162.7 149.0 168.15 151.4 166.95 153.85 167.0 157.55 198.9 155.65 220.9 156.0 L246.75 157.55 246.05 156.15 Q243.7 151.95 238.65 150.2 L239.0 148.25 M250.35 152.2 L248.35 161.55 249.6 165.55 253.0 163.75 M253.6 171.1 L250.8 171.95 Q250.45 168.75 249.6 165.55 238.15 164.8 224.8 165.0 226.2 168.9 227.1 172.9 240.55 172.5 250.9 173.45 L251.0 176.15 249.15 178.55 249.1 179.7 253.5 178.55 M252.45 188.25 L248.65 189.3 248.55 190.95 246.9 194.65 238.2 193.5 Q233.85 193.2 228.9 193.35 L214.6 194.4 Q200.45 196.05 182.5 200.2 M175.8 194.0 Q224.8 182.55 248.7 187.9 L249.1 179.7 M224.8 165.0 Q200.95 165.3 170.95 168.55 L168.4 166.75 167.55 163.0 Q167.0 160.0 167.0 157.55 M169.15 185.5 L170.3 181.65 171.0 179.3 172.15 175.25 M193.75 181.75 Q200.6 182.55 211.55 180.45 218.85 179.05 226.25 179.15 L227.8 176.6 227.6 175.55 227.1 172.9 Q208.0 173.5 182.65 176.75 L182.6 176.75 182.65 176.8 185.65 178.9 Q188.55 181.15 193.75 181.75 176.25 184.3 171.2 188.5 M171.0 179.3 L182.6 176.75 M220.9 156.0 L221.25 156.75 Q223.3 160.8 224.8 165.0 M214.6 194.4 Q216.8 191.8 219.45 189.65 M228.35 190.35 L228.9 193.3 228.9 193.35 M238.2 193.5 Q237.3 191.4 235.4 189.85 M226.25 179.15 Q233.5 179.15 240.75 180.45 L247.35 180.8 249.15 178.55 M246.75 157.55 L248.35 161.55 M248.65 189.3 L248.7 187.9 M189.85 205.45 Q200.1 203.45 208.85 202.35 L229.1 200.9 238.35 201.35 243.95 202.2 245.45 198.1 250.75 196.95 M248.95 203.95 Q246.2 206.05 242.7 206.05 L241.65 209.7 236.45 209.0 227.8 208.55 211.7 209.25 Q202.0 210.1 190.55 212.1 M251.5 247.3 Q245.25 249.1 238.95 248.75 M237.45 242.3 Q245.3 242.85 251.75 240.5 M252.35 232.8 Q245.5 234.7 237.95 235.15 L238.3 230.75 238.65 226.95 Q247.45 226.4 253.45 223.95 M254.95 214.95 Q247.65 218.95 239.6 218.5 L239.0 223.4 Q222.95 224.55 190.75 223.3 M190.8 217.7 L215.4 216.45 226.35 216.35 239.95 216.8 241.0 212.2 Q248.15 211.55 251.95 209.45 M251.75 261.65 Q246.45 263.6 241.95 261.85 M240.4 255.1 Q246.35 255.6 251.45 253.5 M236.45 209.0 L238.15 202.0 238.35 201.35 M227.8 208.55 L228.35 205.4 229.1 200.9 M225.4 221.35 L226.35 216.35 M239.6 218.5 L239.95 216.8 M215.4 216.45 L216.05 217.7 M208.85 202.35 Q206.65 205.0 204.45 206.3 201.8 207.85 199.15 207.45 M210.55 206.95 L211.7 209.25 M242.7 206.05 L243.95 202.2" fill="none" stroke="#000000" stroke-linecap="round" stroke-linejoin="round" stroke-width="1.0"/>
    <path d="M141.2 242.7 Q151.8 245.65 161.6 242.9 M146.35 209.75 Q153.55 213.8 159.7 213.3 M160.95 255.2 Q154.55 257.15 146.55 255.7 M143.85 249.8 Q155.7 251.6 161.15 249.05 M149.55 261.1 Q155.0 262.6 161.0 260.1 M161.15 265.25 Q156.55 267.85 152.65 266.35 M168.15 188.8 Q155.7 186.15 145.0 182.7 M145.6 191.55 Q155.2 195.05 165.85 195.85 M145.2 163.5 Q161.4 168.8 172.15 175.25 M141.8 217.0 Q150.9 222.35 162.0 220.85 M164.05 228.35 Q147.2 230.6 137.95 226.65 M162.45 236.25 Q149.65 238.65 139.3 235.55 M162.5 205.65 Q153.2 204.5 146.75 201.2 M167.55 163.0 Q158.55 154.95 146.3 152.5 M170.3 181.65 Q160.65 177.7 144.8 174.0" fill="none" stroke="#000000" stroke-linecap="round" stroke-linejoin="round" stroke-width="1.0"/>
  </g>
</svg>
