<?xml version="1.0" encoding="UTF-8" standalone="no"?>
<svg xmlns:xlink="http://www.w3.org/1999/xlink" height="40.75px" width="106.05px" xmlns="http://www.w3.org/2000/svg">
  <g transform="matrix(1.0, 0.0, 0.0, 1.0, -145.3, -140.55)">
    <path d="M250.35 152.2 Q249.25 155.55 247.3 158.8 241.05 169.2 226.25 179.15 193.65 158.45 146.3 152.5 M169.6 141.55 Q172.7 144.0 173.8 146.4 L175.4 146.45 176.65 146.5 M169.15 146.35 L173.8 146.4 M177.4 146.55 L189.35 147.3 201.4 148.95 205.1 149.65 214.95 150.7 Q217.2 151.55 218.65 151.6 220.3 151.6 220.95 150.55 L221.6 150.5 225.5 149.65 Q227.6 148.7 229.95 148.9 L232.25 148.95 232.25 146.1 M226.25 179.15 L227.8 176.6 227.6 175.55 227.1 172.9 Q226.2 168.9 224.8 165.0 223.3 160.8 221.25 156.75 M247.3 158.8 L246.75 157.55 246.05 156.15" fill="none" stroke="#000000" stroke-linecap="round" stroke-linejoin="round" stroke-width="1.0"/>
    <path d="M232.25 146.1 L236.0 147.3 250.35 152.2 M146.3 152.5 Q152.7 148.55 161.05 144.95 165.1 143.2 169.6 141.55" fill="none" stroke="#000000" stroke-linecap="round" stroke-linejoin="round" stroke-width="2.0"/>
    <path d="M246.6 180.75 L247.35 180.8" fill="none" stroke="#000000" stroke-linecap="round" stroke-linejoin="round" stroke-opacity="0.2509804" stroke-width="1.0"/>
  </g>
</svg>
