<?xml version="1.0" encoding="UTF-8" standalone="no"?>
<svg xmlns:xlink="http://www.w3.org/1999/xlink" height="124.65px" width="81.65px" xmlns="http://www.w3.org/2000/svg">
  <g transform="matrix(1.0, 0.0, 0.0, 1.0, -157.15, -229.75)">
    <path d="M158.15 349.5 L181.75 353.4 M183.8 330.25 L180.2 335.3 M237.45 242.3 L238.3 230.75 M207.8 280.75 Q213.25 269.75 217.95 258.7 226.1 256.1 232.7 241.45 M215.15 254.0 Q209.75 245.8 200.95 242.35 M218.0 331.05 L215.95 324.35 M220.4 332.2 L222.5 326.8 M222.65 347.9 L198.85 352.5 M176.55 325.6 L176.55 336.1" fill="none" stroke="#000000" stroke-linecap="round" stroke-linejoin="round" stroke-width="1.0"/>
    <path d="M190.2 230.75 L189.85 233.9 Q177.2 272.75 175.95 316.1 165.95 324.15 158.75 335.8 L158.15 349.5 M181.75 353.4 L183.8 345.1 183.8 330.25 184.75 328.9 187.65 317.55 Q198.75 299.15 207.8 280.75 L208.85 318.85 Q201.25 329.9 198.1 341.5 198.35 347.05 198.85 352.5 M222.5 326.8 L223.15 325.0 223.15 311.0 231.95 288.95 232.15 288.45 232.9 286.85 235.3 280.1 Q237.75 271.9 237.65 263.75 L237.5 260.25 237.5 259.95 237.45 258.8 Q237.1 248.5 237.45 242.3 M222.5 326.8 Q223.25 337.35 222.65 347.9" fill="none" stroke="#000000" stroke-linecap="round" stroke-linejoin="round" stroke-width="2.0"/>
  </g>
</svg>
