<?xml version="1.0" encoding="UTF-8" standalone="no"?>
<svg xmlns:xlink="http://www.w3.org/1999/xlink" height="75.15px" width="45.15px" xmlns="http://www.w3.org/2000/svg">
  <g transform="matrix(1.0, 0.0, 0.0, 1.0, -191.25, -230.65)">
    <path d="M195.7 303.75 Q202.15 292.25 207.8 280.75 L208.5 304.8" fill="none" stroke="#000000" stroke-linecap="round" stroke-linejoin="round" stroke-width="2.0"/>
    <path d="M206.9 245.5 Q211.7 248.8 215.15 254.0 M207.8 280.75 Q213.25 269.75 217.95 258.7 226.1 256.1 232.7 241.45" fill="none" stroke="#000000" stroke-linecap="round" stroke-linejoin="round" stroke-width="1.0"/>
    <path d="M208.5 304.8 L220.35 304.8 M191.75 301.95 L195.7 303.75" fill="none" stroke="#000000" stroke-linecap="round" stroke-linejoin="round" stroke-width="1.0"/>
    <path d="M209.1 231.75 L206.9 245.5 Q202.15 273.85 191.75 301.95 M220.35 304.8 L223.65 297.5 Q233.05 275.0 233.65 252.5 L233.7 252.15 235.9 231.15" fill="none" stroke="#000000" stroke-linecap="round" stroke-linejoin="round" stroke-width="1.0"/>
  </g>
</svg>
