<?xml version="1.0" encoding="UTF-8" standalone="no"?>
<svg xmlns:xlink="http://www.w3.org/1999/xlink" height="193.05px" width="81.3px" xmlns="http://www.w3.org/2000/svg">
  <g transform="matrix(1.0, 0.0, 0.0, 1.0, -157.5, -230.25)">
    <path d="M209.1 231.75 L206.9 245.5 Q200.65 283.0 184.45 320.0 L177.9 340.75 160.8 422.4 160.7 422.8 M237.45 242.3 L238.3 230.75 M197.4 231.2 L195.75 241.0 Q185.5 277.75 179.5 318.65 171.5 328.2 166.75 338.45 L158.1 421.85 160.8 422.4 M219.1 415.75 L216.15 418.0 216.05 417.85 210.95 336.25 217.3 320.2 217.3 311.4 223.65 297.5 Q233.05 275.0 233.65 252.5 L233.7 252.15 235.9 231.15 M206.9 245.5 Q204.15 243.6 200.95 242.35 M222.5 326.8 L220.4 332.2 M218.0 331.05 L215.95 324.35 M176.55 325.6 L176.55 336.1 M158.1 421.85 L158.0 422.45" fill="none" stroke="#000000" stroke-linecap="round" stroke-linejoin="round" stroke-width="1.0"/>
    <path d="M237.45 242.3 Q237.1 248.5 237.45 258.8 L237.5 259.95 237.5 260.25 237.65 263.75 Q237.75 271.9 235.3 280.1 L232.9 286.85 232.15 288.45 231.95 288.95 223.15 311.0 223.15 325.0 222.5 326.8 Q223.55 341.85 221.85 356.85 218.55 379.6 219.1 415.75" fill="none" stroke="#000000" stroke-linecap="round" stroke-linejoin="round" stroke-width="2.0"/>
  </g>
</svg>
