<?xml version="1.0" encoding="UTF-8" standalone="no"?>
<svg xmlns:xlink="http://www.w3.org/1999/xlink" height="98.55px" width="49.0px" xmlns="http://www.w3.org/2000/svg">
  <g transform="matrix(1.0, 0.0, 0.0, 1.0, -198.85, -347.9)">
    <path d="M198.85 352.5 L222.65 347.9 221.95 355.9 221.85 356.85 221.85 357.05 221.3 361.15 221.25 361.5 Q220.5 367.65 220.0 374.65 L220.0 375.1 219.75 378.95 219.45 385.25 Q219.2 390.45 219.1 396.05 L219.1 396.6 219.05 404.7 219.05 406.6 219.1 415.75 232.1 430.85 247.85 445.55 Q233.45 449.05 216.2 439.0 L205.85 439.0 Q205.65 431.85 206.9 424.7 L208.05 419.3 Q212.2 420.25 216.15 418.0 L216.05 417.85 215.45 407.75 207.45 410.3 206.25 399.7 214.8 397.3 214.1 386.7 204.6 389.25 203.6 384.15 202.45 378.45 213.45 376.1 212.65 363.05 200.3 365.2 Q199.4 358.9 198.85 352.5" fill="#000000" fill-rule="evenodd" stroke="none"/>
  </g>
</svg>
