<?xml version="1.0" encoding="UTF-8" standalone="no"?>
<svg xmlns:xlink="http://www.w3.org/1999/xlink" height="119.2px" width="101.75px" xmlns="http://www.w3.org/2000/svg">
  <g transform="matrix(1.0, 0.0, 0.0, 1.0, -147.1, -346.9)">
    <path d="M222.65 347.9 L221.85 356.85 Q218.55 379.6 219.1 415.75 L232.1 430.85 247.85 445.55 242.95 446.35 M148.1 458.45 Q150.3 461.8 153.7 465.1 157.1 462.55 159.75 459.8" fill="none" stroke="#000000" stroke-linecap="round" stroke-linejoin="round" stroke-width="2.0"/>
    <path d="M175.5 352.4 L165.5 350.75 M211.8 350.0 L222.65 347.9" fill="none" stroke="#000000" stroke-linecap="round" stroke-linejoin="round" stroke-width="1.0"/>
    <path d="M242.95 446.35 Q225.1 433.1 216.05 417.85 L211.8 350.0 M159.75 459.8 L160.7 422.8 175.5 352.4 M165.5 350.75 L158.0 422.45 148.1 458.45" fill="none" stroke="#000000" stroke-linecap="round" stroke-linejoin="round" stroke-width="1.0"/>
  </g>
</svg>
