<?xml version="1.0" encoding="UTF-8" standalone="no"?>
<svg xmlns:xlink="http://www.w3.org/1999/xlink" height="123.55px" width="34.45px" xmlns="http://www.w3.org/2000/svg">
  <g transform="matrix(1.0, 0.0, 0.0, 1.0, -194.7, -310.95)">
    <path d="M205.95 316.3 L207.75 316.7 212.75 317.4 213.2 317.45 213.7 317.5 215.5 317.6 216.75 317.65 217.25 317.65 221.35 310.95 227.5 312.6 227.85 325.75 224.05 332.05 Q227.2 337.55 227.45 345.0 224.35 346.15 222.6 348.6 L221.8 349.85 222.95 372.9 220.4 415.55 Q222.65 414.35 224.95 415.6 228.05 417.95 229.15 422.7 L227.75 425.8 225.6 423.3 Q218.4 425.05 215.8 432.25 L215.1 434.5 205.85 434.5 202.4 427.6 206.45 427.6 Q207.0 423.45 208.05 419.3 L199.05 373.8 201.65 373.9 Q204.0 373.65 205.7 372.1 208.5 369.55 209.65 363.55 L210.15 360.35 Q210.65 356.0 210.5 350.25 L210.4 347.75 209.3 346.75 Q206.8 344.8 202.7 343.85 L198.2 343.2 194.7 343.0 Q197.1 334.35 203.2 328.4 L203.25 328.3 201.7 327.7 Q200.55 324.6 203.1 319.05 203.75 316.15 205.95 316.3" fill="#000000" fill-rule="evenodd" stroke="none"/>
  </g>
</svg>
