<?xml version="1.0" encoding="UTF-8" standalone="no"?>
<svg xmlns:xlink="http://www.w3.org/1999/xlink" height="119.15px" width="33.2px" xmlns="http://www.w3.org/2000/svg">
  <g transform="matrix(1.0, 0.0, 0.0, 1.0, -195.7, -300.45)">
    <path d="M216.2 305.0 L216.1 304.85 216.2 304.8 221.05 300.45 228.9 313.5 Q228.85 323.55 225.8 333.6 L224.45 335.05 Q226.65 343.05 225.6 350.75 L224.6 351.7 Q226.0 361.8 225.1 372.75 L222.6 374.45 222.1 392.65 220.55 394.35 Q220.15 404.0 221.35 413.25 L219.1 415.75 219.05 415.85 219.0 415.9 215.95 418.1 214.65 418.75 213.55 419.15 213.3 419.2 212.85 419.35 212.7 419.35 212.5 419.4 211.65 419.55 211.55 419.55 210.55 419.6 210.45 419.6 210.35 419.6 209.75 419.6 209.55 419.55 209.3 419.55 208.8 419.45 208.05 419.3 205.25 416.75 Q205.75 413.0 205.6 408.15 205.4 401.25 203.9 392.1 L202.05 391.3 198.6 370.1 197.2 369.5 Q194.2 356.75 197.2 345.35 L195.75 344.55 Q196.3 333.65 201.8 326.7 L200.4 324.55 202.75 314.05 204.55 312.05 208.95 311.15 216.1 304.9 216.2 305.0" fill="#000000" fill-rule="evenodd" stroke="none"/>
  </g>
</svg>
