<?xml version="1.0" encoding="UTF-8" standalone="no"?>
<svg xmlns:xlink="http://www.w3.org/1999/xlink" height="117.6px" width="38.3px" xmlns="http://www.w3.org/2000/svg">
  <g transform="matrix(1.0, 0.0, 0.0, 1.0, -144.45, -348.5)">
    <path d="M178.0 368.25 L181.75 353.4 M158.15 349.55 L153.6 354.1 154.05 364.85 Q154.65 390.45 151.35 417.45 L154.85 421.15 Q151.95 426.2 149.95 430.8 147.1 437.35 146.05 442.9 145.5 445.9 145.45 448.6 145.4 452.2 146.3 455.3 148.7 460.25 153.7 465.1 160.45 460.05 164.25 453.95 L163.75 444.5 Q163.55 437.45 163.8 430.8 163.95 426.9 164.25 423.15 L178.0 368.25 M158.15 349.55 L158.15 349.5" fill="none" stroke="#000000" stroke-linecap="round" stroke-linejoin="round" stroke-width="2.0"/>
    <path d="M154.05 364.85 L159.6 367.65 159.6 384.6 167.65 385.35 172.9 368.6 178.0 368.25 M181.75 353.4 L158.15 349.5 158.15 349.55 M146.05 442.9 Q148.9 441.1 151.7 440.65 157.75 439.6 163.75 444.5 M145.45 448.6 Q147.9 454.6 152.4 459.4 L153.85 460.85 164.25 453.95" fill="none" stroke="#000000" stroke-linecap="round" stroke-linejoin="round" stroke-width="1.0"/>
  </g>
</svg>
