<?xml version="1.0" encoding="UTF-8" standalone="no"?>
<svg xmlns:xlink="http://www.w3.org/1999/xlink" height="117.6px" width="41.45px" xmlns="http://www.w3.org/2000/svg">
  <g transform="matrix(1.0, 0.0, 0.0, 1.0, -144.45, -348.5)">
    <path d="M158.15 349.5 Q154.5 349.95 153.5 352.95 149.7 366.45 150.1 381.8 L155.1 383.35 155.6 383.45 M173.55 386.15 L181.35 386.0 Q184.5 371.65 184.9 358.25 184.75 355.15 181.75 353.4 M156.55 383.7 L156.7 380.8 M173.55 386.15 L164.25 423.15 Q163.05 437.6 164.25 453.95 162.35 457.0 159.75 459.8 157.1 462.55 153.7 465.1 150.3 461.8 148.1 458.45 L146.3 455.3 Q142.6 442.65 154.85 421.15 L156.55 383.7" fill="none" stroke="#000000" stroke-linecap="round" stroke-linejoin="round" stroke-width="2.0"/>
    <path d="M155.6 383.45 L156.7 380.8 160.1 372.5 161.2 384.75 161.75 384.85 165.1 385.4 173.55 386.15 M181.75 353.4 L158.15 349.5 M156.55 383.7 L155.6 383.45" fill="none" stroke="#000000" stroke-linecap="round" stroke-linejoin="round" stroke-width="1.0"/>
  </g>
</svg>
