<?xml version="1.0" encoding="UTF-8" standalone="no"?>
<svg xmlns:xlink="http://www.w3.org/1999/xlink" height="41.0px" width="33.45px" xmlns="http://www.w3.org/2000/svg">
  <g transform="matrix(1.0, 0.0, 0.0, 1.0, -161.6, -299.25)">
    <path d="M176.15 307.0 L176.85 306.6 177.4 306.3 178.1 305.9 178.95 305.45 179.15 305.3 179.75 304.9 179.95 304.8 180.45 304.5 181.05 304.15 181.5 303.8 181.8 303.6 182.35 303.25 183.15 302.65 184.1 301.95 184.3 301.8 184.95 301.3 185.2 301.1 186.4 300.15 186.8 299.75 191.9 310.6 194.05 315.2 190.5 330.85 186.6 333.25 176.0 339.75 164.25 324.55 162.6 323.45 170.2 309.4 173.0 308.4 175.6 307.25 176.15 307.0" fill="url(#gradient0)" fill-rule="evenodd" stroke="none"/>
    <path d="M176.15 307.0 L176.85 306.6 177.4 306.3 178.1 305.9 178.95 305.45 179.15 305.3 179.75 304.9 179.95 304.8 180.45 304.5 181.05 304.15 181.5 303.8 181.8 303.6 182.35 303.25 183.15 302.65 184.1 301.95 184.3 301.8 184.95 301.3 185.2 301.1 186.4 300.15 186.8 299.75 191.9 310.6 M186.6 333.25 L176.0 339.75 164.25 324.55" fill="none" stroke="#000000" stroke-linecap="round" stroke-linejoin="round" stroke-width="1.0"/>
    <path d="M191.9 310.6 L194.05 315.2 190.5 330.85 186.6 333.25 M164.25 324.55 L162.6 323.45 170.2 309.4 173.0 308.4 175.6 307.25 176.15 307.0" fill="none" stroke="#000000" stroke-linecap="round" stroke-linejoin="round" stroke-width="2.0"/>
    <path d="M172.45 335.15 L168.05 329.5 177.4 306.3 178.1 305.9 178.95 305.45 179.15 305.3 179.75 304.9 179.95 304.8 180.45 304.5 181.05 304.15 181.5 303.8 172.45 335.15" fill="#ffffff" fill-opacity="0.2509804" fill-rule="evenodd" stroke="none"/>
    <path d="M181.5 303.8 L181.8 303.6 182.35 303.25 183.15 302.65 184.1 301.95 184.3 301.8 184.95 301.3 185.2 301.1 186.4 300.15 186.8 299.75 191.9 310.6 M186.6 333.25 L176.0 339.75 172.45 335.15 168.05 329.5 164.25 324.55 M176.15 307.0 L176.85 306.6 177.4 306.3 178.1 305.9 178.95 305.45 179.15 305.3 179.75 304.9 179.95 304.8 180.45 304.5 181.05 304.15 181.5 303.8" fill="none" stroke="#000000" stroke-linecap="round" stroke-linejoin="round" stroke-width="1.0"/>
    <path d="M191.9 310.6 L194.05 315.2 190.5 330.85 186.6 333.25 M164.25 324.55 L162.6 323.45 170.2 309.4 173.0 308.4 175.6 307.25 176.15 307.0" fill="none" stroke="#000000" stroke-linecap="round" stroke-linejoin="round" stroke-width="2.0"/>
  </g>
  <defs>
    <radialGradient cx="0" cy="0" gradientTransform="matrix(0.0323, 0.0, 0.0, 0.0323, 173.3, 322.5)" gradientUnits="userSpaceOnUse" id="gradient0" r="819.2" spreadMethod="pad">
      <stop offset="0.0" stop-color="#000000" stop-opacity="0.0"/>
      <stop offset="1.0" stop-color="#000000" stop-opacity="0.2509804"/>
    </radialGradient>
  </defs>
</svg>
