<?xml version="1.0" encoding="UTF-8" standalone="no"?>
<svg xmlns:xlink="http://www.w3.org/1999/xlink" height="29.45px" width="55.7px" xmlns="http://www.w3.org/2000/svg">
  <g transform="matrix(1.0, 0.0, 0.0, 1.0, -185.45, -229.75)">
    <path d="M194.6 241.9 Q193.9 240.4 193.65 238.9 190.75 240.5 190.2 243.15 188.7 238.9 189.2 235.9 189.4 234.85 189.85 233.9 L186.45 235.5 Q187.45 232.75 190.2 230.75 L197.15 231.2 195.15 239.95 194.6 241.9" fill="#000000" fill-opacity="0.2509804" fill-rule="evenodd" stroke="none"/>
    <path d="M189.2 235.9 Q189.4 234.85 189.85 233.9 L186.45 235.5 Q187.45 232.75 190.2 230.75" fill="none" stroke="#000000" stroke-linecap="round" stroke-linejoin="round" stroke-width="2.0"/>
    <path d="M238.3 230.75 Q239.75 233.6 240.65 239.2 L239.05 238.05 Q238.0 245.7 232.45 253.3 L231.45 250.4 Q227.35 256.15 217.95 258.7 213.25 251.25 205.1 249.5 L205.1 252.45 Q197.0 247.15 194.6 241.9 193.9 240.4 193.65 238.9 190.75 240.5 190.2 243.15 188.7 238.9 189.2 235.9" fill="none" stroke="#000000" stroke-linecap="round" stroke-linejoin="round" stroke-width="1.0"/>
    <path d="M190.2 230.75 L197.15 231.2 Q226.8 232.85 238.3 230.75" fill="none" stroke="#000000" stroke-linecap="round" stroke-linejoin="round" stroke-width="1.0"/>
  </g>
</svg>
