<?xml version="1.0" encoding="UTF-8" standalone="no"?>
<svg xmlns:xlink="http://www.w3.org/1999/xlink" height="114.7px" width="23.8px" xmlns="http://www.w3.org/2000/svg">
  <g transform="matrix(1.0, 0.0, 0.0, 1.0, -237.45, -171.1)">
    <path d="M249.15 178.55 L251.0 176.15 250.8 171.95 253.6 171.1 Q254.05 185.95 248.95 203.95 L254.95 214.95 Q250.7 236.9 251.6 258.8 L251.65 259.95 251.65 260.25 251.75 261.65 261.25 271.05 Q258.4 274.7 257.5 280.45 L255.55 280.45 255.65 283.25 Q255.1 286.05 252.25 285.8 250.6 285.5 250.05 284.45 247.6 285.5 246.2 284.75 245.15 284.05 244.65 282.4 242.9 283.0 241.9 282.4 240.95 281.85 240.45 280.45 239.05 280.25 238.35 279.65 237.25 278.6 237.55 276.75 237.75 273.8 238.55 270.95 L239.45 267.8 Q240.45 264.8 241.95 261.85 L237.45 242.3 Q238.4 227.25 239.6 218.5 242.55 203.5 248.55 190.95 L249.15 178.55 M245.9 274.65 L245.9 274.45 245.85 274.6 245.9 274.65" fill="#000000" fill-rule="evenodd" stroke="none"/>
  </g>
</svg>
