<?xml version="1.0" encoding="UTF-8" standalone="no"?>
<svg xmlns:xlink="http://www.w3.org/1999/xlink" height="48.15px" width="128.6px" xmlns="http://www.w3.org/2000/svg">
  <g transform="matrix(1.0, 0.0, 0.0, 1.0, -128.75, -221.7)">
    <path d="M138.3 229.0 L140.15 228.95 141.45 230.7 142.7 232.15 Q146.25 236.2 151.2 239.4 156.1 238.45 162.6 235.4 162.0 238.75 161.65 242.3 157.65 244.55 154.5 245.75 154.75 248.95 155.5 252.35 155.95 254.35 156.55 256.35 L157.0 257.7 Q159.25 256.6 160.95 254.85 L161.25 254.5 162.0 259.3 162.65 262.75 163.4 265.85 161.05 267.7 Q159.2 268.8 157.25 269.35 L156.4 269.55 155.35 269.75 154.4 269.8 151.65 269.7 Q146.5 264.45 142.2 259.3 135.15 250.9 130.2 242.7 L128.75 230.55 130.5 230.05 Q133.1 229.35 136.15 229.1 L138.3 229.0 M149.45 253.4 L149.6 253.3 149.45 253.35 149.45 253.4 M253.15 246.15 Q252.2 252.6 251.95 256.0 L251.65 259.65 251.65 259.8 251.65 260.25 251.75 261.65 248.35 262.15 245.25 262.2 245.1 262.2 244.8 262.2 244.55 262.2 241.95 261.9 241.95 261.85 241.2 260.15 241.35 259.3 237.85 247.2 243.1 247.15 251.5 246.4 Q251.65 241.1 252.1 235.85 244.95 237.35 237.85 236.85 L238.35 230.0 Q246.15 230.1 252.8 228.55 L253.8 221.7 257.35 225.85 Q254.4 235.8 253.15 246.15" fill="#000000" fill-rule="evenodd" stroke="none"/>
  </g>
</svg>
