<?xml version="1.0" encoding="UTF-8" standalone="no"?>
<svg xmlns:xlink="http://www.w3.org/1999/xlink" height="38.1px" width="30.3px" xmlns="http://www.w3.org/2000/svg">
  <g transform="matrix(1.0, 0.0, 0.0, 1.0, -236.45, -226.65)">
    <path d="M252.9 228.15 L256.3 228.55 260.75 229.3 263.35 229.75 263.85 229.9 265.75 230.3 260.45 243.4 259.95 243.15 259.3 242.75 258.2 242.25 256.7 241.55 255.0 240.95 253.1 240.3 250.9 239.75 Q247.25 238.9 243.4 238.85 L237.7 239.05 Q238.1 232.45 238.65 227.15 L245.35 227.55 252.9 228.15" fill="url(#gradient0)" fill-rule="evenodd" stroke="none"/>
    <path d="M259.3 242.75 L257.4 249.15 257.0 248.95 256.35 248.7 255.75 248.45 253.1 247.4 250.95 246.75 249.2 246.3 247.55 245.95 242.75 245.25 238.25 245.65 238.25 245.6 237.45 242.3 237.7 239.05 243.4 238.85 Q247.25 238.9 250.9 239.75 L253.1 240.3 255.0 240.95 256.7 241.55 258.2 242.25 259.3 242.75" fill="url(#gradient1)" fill-rule="evenodd" stroke="none"/>
    <path d="M256.35 248.7 L255.1 256.0 254.15 255.55 253.8 255.4 253.55 255.35 Q251.35 254.35 249.15 253.85 L247.0 253.5 245.75 253.35 243.2 253.3 240.0 253.3 238.25 245.65 242.75 245.25 247.55 245.95 249.2 246.3 250.95 246.75 253.1 247.4 255.75 248.45 256.35 248.7" fill="url(#gradient2)" fill-rule="evenodd" stroke="none"/>
    <path d="M253.8 255.4 L253.9 263.75 Q251.3 262.6 248.55 262.15 L245.3 261.75 241.95 261.9 241.95 261.85 241.4 259.35 241.4 259.3 241.3 259.0 240.0 253.3 243.2 253.3 245.75 253.35 247.0 253.5 249.15 253.85 Q251.35 254.35 253.55 255.35 L253.8 255.4" fill="url(#gradient3)" fill-rule="evenodd" stroke="none"/>
    <path d="M252.9 228.15 L256.3 228.55 260.75 229.3 263.35 229.75 263.85 229.9 265.75 230.3 260.45 243.4 259.95 243.15 259.3 242.75 257.4 249.15 257.0 248.95 256.35 248.7 255.1 256.0 254.15 255.55 253.8 255.4 253.9 263.75 M241.3 259.0 L240.0 253.3 238.25 245.65 238.25 245.6 237.45 242.3 M241.4 259.3 L241.4 259.35 241.95 261.85" fill="none" stroke="#000000" stroke-linecap="round" stroke-linejoin="round" stroke-width="2.0"/>
    <path d="M253.9 263.75 Q251.3 262.6 248.55 262.15 L245.3 261.75 241.95 261.9 241.95 261.85 241.15 260.15 241.4 259.3 241.3 259.0 M237.45 242.3 L237.7 239.05 Q238.1 232.45 238.65 227.15 L245.35 227.55 252.9 228.15 M259.3 242.75 L258.2 242.25 256.7 241.55 255.0 240.95 253.1 240.3 250.9 239.75 Q247.25 238.9 243.4 238.85 L237.7 239.05 M256.35 248.7 L255.75 248.45 253.1 247.4 250.95 246.75 249.2 246.3 247.55 245.95 242.75 245.25 238.25 245.65 M240.0 253.3 L243.2 253.3 245.75 253.35 247.0 253.5 249.15 253.85 Q251.35 254.35 253.55 255.35 L253.8 255.4 M241.95 261.85 L241.2 260.15 241.4 259.35" fill="none" stroke="#000000" stroke-linecap="round" stroke-linejoin="round" stroke-width="1.0"/>
    <path d="M256.3 228.55 L260.75 229.3 256.7 241.55 255.0 240.95 253.1 247.4 250.95 246.75 249.15 253.85 247.0 253.5 245.75 253.35 247.0 253.5 245.3 261.75 241.95 261.9 241.95 261.85 243.2 253.3 245.75 253.35 247.55 245.95 249.2 246.3 250.95 246.75 249.2 246.3 250.9 239.75 253.1 240.3 256.3 228.55 M253.1 240.3 L255.0 240.95 253.1 240.3" fill="#ffffff" fill-opacity="0.2509804" fill-rule="evenodd" stroke="none"/>
    <path d="M253.9 263.75 Q251.3 262.6 248.55 262.15 L245.3 261.75 241.95 261.9 241.15 260.15 241.4 259.3 241.3 259.0 M252.9 228.15 L245.35 227.55 238.65 227.15 Q238.1 232.45 237.7 239.05 L243.4 238.85 Q247.25 238.9 250.9 239.75 L253.1 240.3 255.0 240.95 256.7 241.55 258.2 242.25 259.3 242.75 M250.95 246.75 L253.1 247.4 255.75 248.45 256.35 248.7 M249.2 246.3 L247.55 245.95 242.75 245.25 238.25 245.65 M245.75 253.35 L247.0 253.5 249.15 253.85 Q251.35 254.35 253.55 255.35 L253.8 255.4 M250.95 246.75 L249.2 246.3 M245.75 253.35 L243.2 253.3 240.0 253.3 M241.95 261.9 L241.2 260.15 241.4 259.35 M237.7 239.05 L237.45 242.3" fill="none" stroke="#000000" stroke-linecap="round" stroke-linejoin="round" stroke-width="1.0"/>
    <path d="M256.3 228.55 L260.75 229.3 263.35 229.75 263.85 229.9 265.75 230.3 260.45 243.4 259.95 243.15 259.3 242.75 257.4 249.15 257.0 248.95 256.35 248.7 255.1 256.0 254.15 255.55 253.8 255.4 253.9 263.75 M241.3 259.0 L240.0 253.3 238.25 245.65 237.9 245.65 M256.3 228.55 L252.9 228.15 M241.4 259.35 L241.4 259.3 M237.45 242.3 L238.25 245.65 M241.95 261.85 L241.4 259.35" fill="none" stroke="#000000" stroke-linecap="round" stroke-linejoin="round" stroke-width="2.0"/>
  </g>
  <defs>
    <linearGradient gradientTransform="matrix(-0.0091, 0.0, 0.0, -0.0097, 254.55, 235.5)" gradientUnits="userSpaceOnUse" id="gradient0" spreadMethod="pad" x1="-819.2" x2="819.2">
      <stop offset="0.0" stop-color="#000000" stop-opacity="0.0"/>
      <stop offset="1.0" stop-color="#000000" stop-opacity="0.2509804"/>
    </linearGradient>
    <linearGradient gradientTransform="matrix(-0.0068, 0.0, 0.0, -0.0063, 249.6, 244.0)" gradientUnits="userSpaceOnUse" id="gradient1" spreadMethod="pad" x1="-819.2" x2="819.2">
      <stop offset="0.0" stop-color="#000000" stop-opacity="0.0"/>
      <stop offset="1.0" stop-color="#000000" stop-opacity="0.2509804"/>
    </linearGradient>
    <linearGradient gradientTransform="matrix(-0.0059, 0.0, 0.0, -0.0066, 249.4, 250.65)" gradientUnits="userSpaceOnUse" id="gradient2" spreadMethod="pad" x1="-819.2" x2="819.2">
      <stop offset="0.0" stop-color="#000000" stop-opacity="0.0"/>
      <stop offset="1.0" stop-color="#000000" stop-opacity="0.2509804"/>
    </linearGradient>
    <linearGradient gradientTransform="matrix(-0.0062, 0.0, 0.0, -0.0064, 248.25, 258.55)" gradientUnits="userSpaceOnUse" id="gradient3" spreadMethod="pad" x1="-819.2" x2="819.2">
      <stop offset="0.0" stop-color="#000000" stop-opacity="0.0"/>
      <stop offset="1.0" stop-color="#000000" stop-opacity="0.2509804"/>
    </linearGradient>
  </defs>
</svg>
