<?xml version="1.0" encoding="UTF-8" standalone="no"?>
<svg xmlns:xlink="http://www.w3.org/1999/xlink" height="30.1px" width="89.85px" xmlns="http://www.w3.org/2000/svg">
  <g transform="matrix(1.0, 0.0, 0.0, 1.0, -144.7, -147.4)">
    <path d="M224.3 159.85 L225.6 159.7 Q229.3 159.7 231.9 162.3 234.55 164.9 234.55 168.6 234.55 170.35 233.95 171.85 L233.7 172.45 Q233.0 173.75 231.9 174.85 L230.55 176.05 229.75 176.5 229.35 176.7 227.35 177.35 225.6 177.5 Q221.95 177.5 219.35 174.85 216.75 172.25 216.75 168.6 216.75 167.05 217.15 165.7 L217.65 164.65 Q218.25 163.4 219.35 162.3 220.3 161.35 221.35 160.75 L221.75 160.55 222.9 160.15 224.3 159.85 M150.7 147.55 Q151.75 147.85 152.35 149.1 L152.75 150.2 152.95 151.6 152.95 152.1 152.95 152.5 152.5 155.3 151.75 157.35 150.45 159.5 150.15 159.8 Q148.55 161.45 147.0 161.1 146.05 160.8 145.45 159.75 L144.95 158.35 144.8 157.75 Q144.55 156.25 144.9 154.45 144.95 153.9 145.15 153.3 145.4 152.15 145.9 151.3 146.25 150.4 146.75 149.7 L147.5 148.8 147.6 148.7 Q149.15 147.1 150.65 147.5 L150.7 147.55" fill="#000000" fill-rule="evenodd" stroke="none"/>
  </g>
</svg>
