<?xml version="1.0" encoding="UTF-8" standalone="no"?>
<svg xmlns:xlink="http://www.w3.org/1999/xlink" height="69.9px" width="56.5px" xmlns="http://www.w3.org/2000/svg">
  <g transform="matrix(1.0, 0.0, 0.0, 1.0, -182.05, -227.75)">
    <path d="M191.85 235.15 L191.85 235.25 192.05 235.2 191.85 235.15 M190.55 235.05 L191.0 235.1 191.8 235.15 191.5 235.15 190.55 235.05 M238.55 227.95 L238.4 229.9 237.95 235.05 Q224.85 237.35 198.85 235.7 L198.85 235.65 194.65 235.35 194.55 235.35 194.65 235.4 194.85 235.45 192.8 259.25 197.0 260.45 Q205.8 263.25 213.95 267.8 L211.7 272.75 Q208.2 270.75 204.5 269.15 200.6 267.4 196.55 266.15 L192.3 264.95 189.5 296.95 Q187.15 298.55 184.15 296.5 L187.0 263.95 182.1 263.2 182.05 263.2 182.1 263.2 Q182.65 260.3 183.35 257.5 L187.5 258.2 189.5 235.0 189.85 233.9 190.2 230.75 190.4 228.9 190.5 227.75 198.85 228.25 Q223.2 229.4 238.55 227.95" fill="#000000" fill-rule="evenodd" stroke="none"/>
  </g>
</svg>
