<?xml version="1.0" encoding="UTF-8" standalone="no"?>
<svg xmlns:xlink="http://www.w3.org/1999/xlink" height="27.2px" width="60.95px" xmlns="http://www.w3.org/2000/svg">
  <g transform="matrix(1.0, 0.0, 0.0, 1.0, -181.2, -228.4)">
    <path d="M239.0 233.05 L240.05 234.5 Q242.3 238.25 242.05 243.45 241.8 248.6 239.25 252.15 237.95 253.95 236.4 254.85 L236.65 251.45 Q237.1 244.05 238.25 236.95 L238.3 236.95 239.0 233.05 M222.7 242.45 L211.0 235.0 196.2 235.4 Q197.95 238.85 197.75 243.45 197.5 248.6 194.95 252.15 192.35 255.7 189.0 255.6 L186.85 255.05 Q184.8 254.15 183.3 251.65 181.05 247.9 181.3 242.75 181.5 237.55 184.1 233.95 185.5 232.0 187.2 231.2 L187.2 229.25 196.2 228.85 211.55 228.4 223.5 235.25 232.8 229.2 234.7 229.45 236.45 229.75 239.5 230.45 238.95 233.0 238.25 236.95 232.0 235.85 222.7 242.45" fill="#000000" fill-rule="evenodd" stroke="none"/>
  </g>
</svg>
