<?xml version="1.0" encoding="UTF-8" standalone="no"?>
<svg xmlns:xlink="http://www.w3.org/1999/xlink" height="12.5px" width="17.85px" xmlns="http://www.w3.org/2000/svg">
  <g transform="matrix(1.0, 0.0, 0.0, 1.0, -214.35, -226.1)">
    <path d="M222.95 231.0 L218.7 228.65 219.05 228.6 228.05 228.6 228.3 228.6 224.15 231.0 228.3 228.6 228.05 228.6 219.05 228.6 218.7 228.65 222.95 231.0 219.95 231.2 217.25 231.7 214.85 232.35 214.85 229.0 214.9 228.95 215.85 228.75 Q222.6 227.25 229.65 228.55 L231.7 229.0 231.7 232.35 229.85 231.8 229.85 230.15 229.85 229.9 229.85 229.8 229.85 229.65 227.1 231.25 229.85 229.65 229.85 229.8 229.85 229.9 229.85 230.15 229.85 231.8 227.1 231.25 224.15 231.0 222.95 231.0 M219.95 231.2 L217.3 229.7 217.25 230.0 217.25 230.15 217.25 231.7 217.25 230.15 217.25 230.0 217.3 229.7 219.95 231.2" fill="#ffffff" fill-opacity="0.2509804" fill-rule="evenodd" stroke="none"/>
    <path d="M224.15 231.0 L228.3 228.6 228.05 228.6 219.05 228.6 218.7 228.65 222.95 231.0 223.55 231.35 224.15 231.0 M227.1 231.25 L229.85 229.65 229.85 229.8 229.85 229.9 229.85 230.15 229.85 231.8 229.85 234.6 229.85 234.85 225.3 232.3 227.1 231.25 M231.7 232.35 L231.7 229.0 231.7 228.65 231.65 228.45 231.6 228.05 Q231.15 226.55 229.3 226.6 L217.25 226.6 Q215.75 226.6 215.2 227.5 L215.1 227.7 Q214.85 228.15 214.85 228.75 L214.85 228.95 214.85 229.0 214.85 232.35 214.85 235.7 214.85 236.05 214.9 236.35 Q215.15 238.1 217.25 238.1 L229.3 238.1 Q230.75 238.1 231.35 237.25 L231.6 236.65 231.7 235.85 231.7 232.35 M217.25 231.7 L217.25 230.15 217.25 230.0 217.3 229.7 219.95 231.2 221.85 232.3 217.3 234.85 217.25 234.75 217.25 234.5 217.25 231.7 M214.9 228.95 L214.85 228.95 M219.05 236.05 L228.05 236.05 228.25 236.05 223.6 233.35 218.9 236.05 219.05 236.05 Z" fill="none" stroke="#000000" stroke-linecap="round" stroke-linejoin="round" stroke-width="1.0"/>
  </g>
</svg>
