<?xml version="1.0" encoding="UTF-8" standalone="no"?>
<svg xmlns:xlink="http://www.w3.org/1999/xlink" height="21.4px" width="36.25px" xmlns="http://www.w3.org/2000/svg">
  <g transform="matrix(1.0, 0.0, 0.0, 1.0, -180.0, -127.9)">
    <path d="M197.1 138.35 Q194.05 138.5 194.4 140.45 196.5 144.95 188.9 143.35 184.95 140.95 181.0 137.35 L184.1 130.35 Q185.15 128.2 187.4 129.2 L186.15 131.15 Q192.0 136.1 197.1 138.35" fill="#000000" fill-opacity="0.2509804" fill-rule="evenodd" stroke="none"/>
    <path d="M214.95 140.35 L214.4 138.55 215.0 137.7 Q215.7 136.35 212.95 136.15 L212.95 137.45 M186.15 131.15 L187.4 129.2 Q185.15 128.2 184.1 130.35 L181.0 137.35" fill="none" stroke="#000000" stroke-linecap="round" stroke-linejoin="round" stroke-width="2.0"/>
    <path d="M214.4 138.55 L212.95 140.15 Q210.2 142.95 206.0 145.85 M212.95 137.45 Q211.0 139.4 207.65 140.05 202.8 140.9 197.1 138.35 192.0 136.1 186.15 131.15 M188.9 143.35 Q197.6 148.75 206.6 148.8 210.6 148.7 212.95 147.05 217.3 144.2 214.95 140.35 M181.0 137.35 Q184.95 140.95 188.9 143.35" fill="none" stroke="#000000" stroke-linecap="round" stroke-linejoin="round" stroke-width="1.0"/>
  </g>
</svg>
