<?xml version="1.0" encoding="UTF-8" standalone="no"?>
<svg xmlns:xlink="http://www.w3.org/1999/xlink" height="44.1px" width="55.0px" xmlns="http://www.w3.org/2000/svg">
  <g transform="matrix(1.0, 0.0, 0.0, 1.0, -179.05, -131.3)">
    <path d="M208.35 144.75 L208.05 145.85 207.5 145.7 208.35 144.75 M210.85 144.85 L210.4 144.4 Q212.25 143.6 214.0 144.4 L213.45 144.75 211.2 144.8 210.85 144.85 M188.45 146.0 Q183.2 142.15 180.05 137.6 L183.0 132.3 184.6 133.7 191.0 138.15 188.45 146.0" fill="#000000" fill-opacity="0.2509804" fill-rule="evenodd" stroke="none"/>
    <path d="M210.4 144.4 L208.35 144.75 207.5 145.7 208.05 145.85 208.2 145.85 Q209.6 145.1 210.85 144.85 L211.2 144.8 213.45 144.75 214.0 144.4 Q212.25 143.6 210.4 144.4 214.0 141.9 212.95 137.45 M217.0 140.75 L217.75 142.25 219.4 141.4 219.95 141.1 Q220.85 143.25 221.05 145.8 221.2 148.1 220.75 150.75 L220.7 150.75 220.15 150.8 220.3 153.2 219.3 150.85 Q216.7 150.9 213.65 150.05 228.3 156.9 233.55 166.55 L231.95 172.45 Q227.0 159.5 211.25 151.1 218.15 158.7 223.35 174.9 L216.45 172.7 Q217.1 160.45 208.2 150.9 L207.0 151.55 204.9 152.5 204.95 154.4 202.4 153.45 199.0 154.5 198.35 154.65 197.95 154.05 Q197.25 152.8 197.1 151.1 192.2 148.7 188.45 146.0 183.2 142.15 180.05 137.6 M184.6 133.7 L191.0 138.15 Q198.95 142.95 208.35 144.75 M208.2 145.85 Q207.4 148.2 208.2 150.9 L209.4 151.15 210.8 151.15 211.25 151.1 212.7 150.5 213.4 149.95 213.75 147.9 213.75 147.45 213.45 144.75 M214.0 144.4 L215.0 143.75 217.75 142.25 M220.15 150.8 L219.3 150.85 M213.65 150.05 L213.4 149.95 M204.9 152.5 L203.2 153.15 202.4 153.45 M197.1 151.1 Q196.75 148.1 197.85 143.6 L207.5 145.7" fill="none" stroke="#000000" stroke-linecap="round" stroke-linejoin="round" stroke-width="1.0"/>
    <path d="M212.95 137.45 Q214.45 136.8 215.95 138.9 L217.0 140.75 M180.05 137.6 L183.0 132.3 184.6 133.7" fill="none" stroke="#000000" stroke-linecap="round" stroke-linejoin="round" stroke-width="2.0"/>
  </g>
</svg>
