<?xml version="1.0" encoding="UTF-8" standalone="no"?>
<svg xmlns:xlink="http://www.w3.org/1999/xlink" height="80.6px" width="55.45px" xmlns="http://www.w3.org/2000/svg">
  <g transform="matrix(1.0, 0.0, 0.0, 1.0, -166.0, -88.3)">
    <path d="M202.3 168.4 Q203.1 158.25 193.65 153.5 179.65 150.2 172.25 140.65 L170.05 137.4 Q168.4 134.65 167.2 131.5 166.0 126.4 172.05 122.25 179.0 113.8 180.7 105.3 181.1 94.4 193.6 90.85 184.95 94.5 185.0 101.6 184.35 108.4 180.3 117.0 177.75 126.6 183.85 136.2 185.4 138.7 187.6 141.2 204.75 157.75 202.3 168.4" fill="#000000" fill-opacity="0.2509804" fill-rule="evenodd" stroke="none"/>
    <path d="M193.6 90.85 L198.65 89.75 Q216.1 87.15 220.45 100.25 L217.55 100.15 216.2 99.7 M172.25 140.65 L170.05 137.4 Q168.4 134.65 167.2 131.5 166.0 126.4 172.05 122.25 179.0 113.8 180.7 105.3 181.1 94.4 193.6 90.85" fill="none" stroke="#000000" stroke-linecap="round" stroke-linejoin="round" stroke-width="2.0"/>
    <path d="M216.2 99.7 Q214.55 99.0 213.4 97.45 L213.4 100.05 Q207.7 99.85 204.1 96.2 L204.1 99.45 Q198.0 99.6 195.85 96.0 L192.8 98.05 Q194.0 100.95 192.55 103.8 196.2 113.5 195.85 129.65 213.9 147.15 209.35 159.15 208.0 163.8 202.3 168.4 203.1 158.25 193.65 153.5 179.65 150.2 172.25 140.65 M180.3 117.0 Q177.75 126.6 183.85 136.2 185.4 138.7 187.6 141.2 M195.85 129.65 L191.2 125.4 M197.25 136.75 Q202.5 144.65 203.1 155.6" fill="none" stroke="#000000" stroke-linecap="round" stroke-linejoin="round" stroke-width="1.0"/>
  </g>
</svg>
