<?xml version="1.0" encoding="UTF-8" standalone="no"?>
<svg xmlns:xlink="http://www.w3.org/1999/xlink" height="13.15px" width="27.1px" xmlns="http://www.w3.org/2000/svg">
  <g transform="matrix(1.0, 0.0, 0.0, 1.0, -193.95, -105.35)">
    <path d="M194.45 110.0 Q194.25 103.6 203.5 107.1 210.0 110.5 214.25 107.1 216.6 105.1 218.15 106.25 L218.55 106.65 Q219.3 107.45 219.8 109.1 L220.05 110.6 Q217.5 112.9 214.2 111.85 210.65 110.0 204.3 111.35 199.05 113.8 194.45 110.0" fill="#ffffff" fill-opacity="0.2509804" fill-rule="evenodd" stroke="none"/>
    <path d="M218.55 106.65 Q219.3 107.45 219.8 109.1 L220.05 110.6 219.8 113.05 218.65 115.25 217.65 116.15" fill="none" stroke="#000000" stroke-linecap="round" stroke-linejoin="round" stroke-width="2.0"/>
    <path d="M194.45 110.0 Q194.25 103.6 203.5 107.1 210.0 110.5 214.25 107.1 216.6 105.1 218.15 106.25 L218.55 106.65 M217.65 116.15 Q216.15 117.05 214.2 115.6 210.1 112.25 203.85 116.6 197.25 120.8 194.75 112.4 194.45 111.05 194.45 110.0" fill="none" stroke="#000000" stroke-linecap="round" stroke-linejoin="round" stroke-width="1.0"/>
  </g>
</svg>
