<?xml version="1.0" encoding="UTF-8" standalone="no"?>
<svg xmlns:xlink="http://www.w3.org/1999/xlink" height="59.3px" width="153.75px" xmlns="http://www.w3.org/2000/svg">
  <g transform="matrix(1.0, 0.0, 0.0, 1.0, -121.7, -133.3)">
    <path d="M233.45 137.0 L233.45 136.95 Q249.7 137.55 260.4 150.4 266.45 157.75 270.3 168.8 271.85 173.15 272.65 177.35 273.85 183.65 274.45 189.95 L265.35 191.6 Q265.0 187.0 263.35 183.85 L262.9 183.05 262.25 182.05 Q261.0 180.35 259.25 179.2 256.6 177.4 252.85 176.75 L247.55 176.5 239.9 161.85 240.95 159.95 241.1 159.65 242.45 156.15 243.0 154.1 Q243.4 152.15 243.4 150.2 L243.45 150.0 243.4 150.0 Q243.3 146.95 240.65 143.55 238.2 140.4 233.45 137.0 M251.6 161.85 L256.15 170.0 Q259.05 170.5 261.45 171.35 L263.2 172.1 Q267.85 174.25 269.6 178.15 L272.65 177.35 269.6 178.15 Q267.85 174.25 263.2 172.1 L261.45 171.35 Q259.05 170.5 256.15 170.0 L253.65 172.8 252.85 176.75 253.65 172.8 256.15 170.0 251.6 161.85 246.5 161.85 241.1 159.65 246.5 161.85 251.6 161.85 Q252.55 159.8 253.95 157.75 L255.15 156.1 257.4 153.5 260.4 150.4 257.4 153.5 255.15 156.1 253.95 157.75 Q252.55 159.8 251.6 161.85 M251.85 168.5 Q252.1 169.8 251.55 170.75 250.95 171.6 249.8 171.6 248.65 171.6 247.6 170.75 246.6 169.8 246.25 168.5 245.95 167.15 246.55 166.3 247.15 165.35 248.3 165.35 249.45 165.35 250.45 166.3 251.45 167.15 251.85 168.5 251.45 167.15 250.45 166.3 249.45 165.35 248.3 165.35 247.15 165.35 246.55 166.3 245.95 167.15 246.25 168.5 246.6 169.8 247.6 170.75 248.65 171.6 249.8 171.6 250.95 171.6 251.55 170.75 252.1 169.8 251.85 168.5" fill="url(#gradient0)" fill-rule="evenodd" stroke="none"/>
    <path d="M152.2 138.85 Q165.2 133.55 179.75 134.45 179.35 136.5 179.25 138.45 L179.25 138.75 179.25 140.9 179.45 143.75 179.45 143.8 Q179.8 145.95 180.5 148.05 181.6 151.25 183.65 154.2 L183.7 154.25 180.6 157.75 173.95 157.75 Q170.05 150.4 164.55 145.65 L164.15 145.3 Q161.7 143.25 159.05 141.75 155.8 139.95 152.2 138.85 155.8 139.95 159.05 141.75 161.7 143.25 164.15 145.3 L164.55 145.65 Q170.05 150.4 173.95 157.75 L180.6 157.75 183.7 154.25 Q187.5 159.75 194.5 164.3 L180.9 179.9 Q178.5 178.75 176.25 177.95 171.85 176.55 167.85 176.5 L166.75 176.5 Q155.95 176.8 147.45 187.2 144.05 186.05 140.45 185.3 L137.8 184.75 134.7 184.3 134.4 184.25 132.1 184.0 128.65 183.75 126.85 183.75 122.7 183.8 Q124.3 173.15 127.2 165.05 132.35 150.35 141.65 144.35 146.75 141.05 152.2 138.85 M181.95 163.95 Q183.45 163.95 184.45 165.0 185.45 166.0 185.5 167.5 185.45 168.95 184.45 170.0 183.45 171.05 181.95 171.05 180.45 171.05 179.45 170.0 178.4 168.95 178.45 167.5 178.4 166.0 179.45 165.0 180.45 163.95 181.95 163.95 180.45 163.95 179.45 165.0 178.4 166.0 178.45 167.5 178.4 168.95 179.45 170.0 180.45 171.05 181.95 171.05 183.45 171.05 184.45 170.0 185.45 168.95 185.5 167.5 185.45 166.0 184.45 165.0 183.45 163.95 181.95 163.95 M173.95 157.75 L169.0 164.4 Q157.05 161.15 145.3 168.6 142.3 167.35 139.2 166.6 L138.9 166.55 133.65 165.55 127.2 165.05 133.65 165.55 138.9 166.55 139.2 166.6 Q142.3 167.35 145.3 168.6 157.05 161.15 169.0 164.4 L173.95 157.75 M169.0 164.4 L171.6 169.35 167.85 176.5 171.6 169.35 169.0 164.4" fill="url(#gradient1)" fill-rule="evenodd" stroke="none"/>
    <path d="M233.45 136.95 L233.45 137.0 Q237.1 141.8 233.35 146.35 M274.45 189.95 L265.35 191.6 Q265.0 187.0 263.35 183.85 L262.9 183.05 M179.25 140.9 L179.25 138.75 179.25 138.45 Q179.35 136.5 179.75 134.45 165.2 133.55 152.2 138.85 146.75 141.05 141.65 144.35 132.35 150.35 127.2 165.05 124.3 173.15 122.7 183.8 L126.85 183.75 128.65 183.75 132.1 184.0 134.4 184.25 134.7 184.3 137.8 184.75" fill="none" stroke="#000000" stroke-linecap="round" stroke-linejoin="round" stroke-width="2.0"/>
    <path d="M262.9 183.05 L262.25 182.05 Q261.0 180.35 259.25 179.2 256.6 177.4 252.85 176.75 L247.55 176.5 239.9 161.85 240.95 159.95 241.1 159.65 242.45 156.15 243.0 154.1 Q243.4 152.15 243.4 150.2 L243.4 150.0 Q243.3 146.95 240.65 143.55 238.2 140.4 233.45 137.0 M183.7 154.25 L183.65 154.2 Q181.6 151.25 180.5 148.05 179.8 145.95 179.45 143.8 L179.45 143.75 179.25 140.9 M167.85 176.5 Q171.85 176.55 176.25 177.95 178.5 178.75 180.9 179.9 L194.5 164.3 Q187.5 159.75 183.7 154.25 M137.8 184.75 L140.45 185.3 Q144.05 186.05 147.45 187.2 155.95 176.8 166.75 176.5 L167.85 176.5" fill="none" stroke="#000000" stroke-linecap="round" stroke-linejoin="round" stroke-width="1.0"/>
    <path d="M152.2 138.85 Q155.8 139.95 159.05 141.75 161.7 143.25 164.15 145.3 L164.55 145.65 Q170.05 150.4 173.95 157.75 L180.6 157.75 183.7 154.25 M181.95 163.95 Q180.45 163.95 179.45 165.0 178.4 166.0 178.45 167.5 178.4 168.95 179.45 170.0 180.45 171.05 181.95 171.05 183.45 171.05 184.45 170.0 185.45 168.95 185.5 167.5 185.45 166.0 184.45 165.0 183.45 163.95 181.95 163.95 M241.1 159.65 L246.5 161.85 251.6 161.85 Q252.55 159.8 253.95 157.75 L255.15 156.1 257.4 153.5 260.4 150.4 M272.65 177.35 L269.6 178.15 Q267.85 174.25 263.2 172.1 L261.45 171.35 Q259.05 170.5 256.15 170.0 L253.65 172.8 252.85 176.75 M251.85 168.5 Q251.45 167.15 250.45 166.3 249.45 165.35 248.3 165.35 247.15 165.35 246.55 166.3 245.95 167.15 246.25 168.5 246.6 169.8 247.6 170.75 248.65 171.6 249.8 171.6 250.95 171.6 251.55 170.75 252.1 169.8 251.85 168.5 M256.15 170.0 L251.6 161.85 M127.2 165.05 L133.65 165.55 138.9 166.55 139.2 166.6 Q142.3 167.35 145.3 168.6 157.05 161.15 169.0 164.4 L173.95 157.75 M167.85 176.5 L171.6 169.35 169.0 164.4" fill="none" stroke="#000000" stroke-linecap="round" stroke-linejoin="round" stroke-opacity="0.2509804" stroke-width="1.0"/>
    <path d="M233.45 136.95 Q249.7 137.55 260.4 150.4 266.45 157.75 270.3 168.8 271.85 173.15 272.65 177.35 273.85 183.65 274.45 189.95 M243.4 150.0 Q238.55 147.95 233.35 146.35" fill="none" stroke="#000000" stroke-linecap="round" stroke-linejoin="round" stroke-width="2.0"/>
    <path d="M273.45 190.15 L269.15 190.95 Q265.2 179.55 261.45 171.35 257.55 162.9 253.95 157.75 L255.15 156.1 257.4 153.5 255.15 156.1 253.95 157.75 Q248.4 150.0 243.4 150.0 243.3 146.95 240.65 143.55 249.8 143.95 257.4 153.5 264.15 162.1 269.75 178.1 271.65 183.65 273.45 190.15 M179.45 143.8 Q171.65 143.55 164.55 145.65 L164.15 145.3 Q161.7 143.25 159.05 141.75 161.7 143.25 164.15 145.3 L164.55 145.65 Q155.0 148.55 146.6 155.8 142.15 160.15 139.2 166.6 L138.9 166.55 133.65 165.55 138.9 166.55 139.2 166.6 Q135.8 174.0 134.4 184.25 L132.1 184.0 128.65 183.75 Q130.3 173.6 133.65 165.55 137.05 157.35 142.1 151.35 149.5 144.9 159.05 141.75 168.15 138.75 179.25 138.75 L179.25 140.9 179.45 143.75 179.45 143.8 M269.75 178.1 L269.6 178.15 Q267.85 174.25 263.2 172.1 L261.45 171.35 263.2 172.1 Q267.85 174.25 269.6 178.15 L269.75 178.1" fill="#ffffff" fill-opacity="0.2509804" fill-rule="evenodd" stroke="none"/>
    <path d="M243.4 150.0 Q238.55 147.95 233.35 146.35 237.1 141.8 233.45 136.95 238.2 140.35 240.65 143.55 243.3 146.95 243.4 150.0" fill="#000000" fill-opacity="0.2509804" fill-rule="evenodd" stroke="none"/>
    <path d="M233.45 136.95 Q249.7 137.55 260.4 150.4 266.45 157.75 270.3 168.8 271.85 173.15 272.65 177.35 273.85 183.65 274.45 189.95 L273.45 190.15 269.15 190.95 265.35 191.6 Q265.0 187.0 263.35 183.85 L262.9 183.05 M243.4 150.0 Q238.55 147.95 233.35 146.35 237.1 141.8 233.45 136.95 M137.8 184.75 L134.7 184.3 134.4 184.25 132.1 184.0 128.65 183.75 126.85 183.75 122.7 183.8 Q124.3 173.15 127.2 165.05 132.35 150.35 141.65 144.35 146.75 141.05 152.2 138.85 165.2 133.55 179.75 134.45 179.35 136.5 179.25 138.45 L179.25 138.75 179.25 140.9" fill="none" stroke="#000000" stroke-linecap="round" stroke-linejoin="round" stroke-width="2.0"/>
    <path d="M262.9 183.05 L262.25 182.05 Q261.0 180.35 259.25 179.2 256.6 177.4 252.85 176.75 L247.55 176.5 239.9 161.85 240.95 159.95 241.1 159.65 242.45 156.15 243.0 154.1 Q243.4 152.15 243.4 150.2 L243.4 150.0 Q243.3 146.95 240.65 143.55 238.2 140.35 233.45 136.95 M183.7 154.25 L183.65 154.2 Q181.6 151.25 180.5 148.05 179.8 145.95 179.45 143.8 L179.45 143.75 179.25 140.9 M183.7 154.25 Q187.5 159.75 194.5 164.3 L180.9 179.9 Q178.5 178.75 176.25 177.95 171.85 176.55 167.85 176.5 L166.75 176.5 Q155.95 176.8 147.45 187.2 144.05 186.05 140.45 185.3 L137.8 184.75" fill="none" stroke="#000000" stroke-linecap="round" stroke-linejoin="round" stroke-width="1.0"/>
    <path d="M257.4 153.5 L260.4 150.4 M164.55 145.65 Q170.05 150.4 173.95 157.75 L180.6 157.75 183.7 154.25 M181.95 163.95 Q180.45 163.95 179.45 165.0 178.4 166.0 178.45 167.5 178.4 168.95 179.45 170.0 180.45 171.05 181.95 171.05 183.45 171.05 184.45 170.0 185.45 168.95 185.5 167.5 185.45 166.0 184.45 165.0 183.45 163.95 181.95 163.95 M257.4 153.5 L255.15 156.1 253.95 157.75 Q252.55 159.8 251.6 161.85 L256.15 170.0 Q259.05 170.5 261.45 171.35 L263.2 172.1 Q267.85 174.25 269.6 178.15 L269.75 178.1 272.65 177.35 M251.85 168.5 Q251.45 167.15 250.45 166.3 249.45 165.35 248.3 165.35 247.15 165.35 246.55 166.3 245.95 167.15 246.25 168.5 246.6 169.8 247.6 170.75 248.65 171.6 249.8 171.6 250.95 171.6 251.55 170.75 252.1 169.8 251.85 168.5 M256.15 170.0 L253.65 172.8 252.85 176.75 M241.1 159.65 L246.5 161.85 251.6 161.85 M164.55 145.65 L164.15 145.3 Q161.7 143.25 159.05 141.75 155.8 139.95 152.2 138.85 M133.65 165.55 L138.9 166.55 139.2 166.6 Q142.3 167.35 145.3 168.6 157.05 161.15 169.0 164.4 L173.95 157.75 M127.2 165.05 L133.65 165.55 M167.85 176.5 L171.6 169.35 169.0 164.4" fill="none" stroke="#000000" stroke-linecap="round" stroke-linejoin="round" stroke-opacity="0.2509804" stroke-width="1.0"/>
  </g>
  <defs>
    <radialGradient cx="0" cy="0" gradientTransform="matrix(0.0334, 0.0, 0.0, 0.0334, 246.45, 169.15)" gradientUnits="userSpaceOnUse" id="gradient0" r="819.2" spreadMethod="pad">
      <stop offset="0.0" stop-color="#000000" stop-opacity="0.0"/>
      <stop offset="1.0" stop-color="#000000" stop-opacity="0.2509804"/>
    </radialGradient>
    <radialGradient cx="0" cy="0" gradientTransform="matrix(0.0629, 0.0, 0.0, 0.0629, 178.7, 165.95)" gradientUnits="userSpaceOnUse" id="gradient1" r="819.2" spreadMethod="pad">
      <stop offset="0.0" stop-color="#000000" stop-opacity="0.0"/>
      <stop offset="1.0" stop-color="#000000" stop-opacity="0.2509804"/>
    </radialGradient>
  </defs>
</svg>
