<?xml version="1.0" encoding="UTF-8" standalone="no"?>
<svg xmlns:xlink="http://www.w3.org/1999/xlink" height="44.5px" width="113.6px" xmlns="http://www.w3.org/2000/svg">
  <g transform="matrix(1.0, 0.0, 0.0, 1.0, -131.25, -264.5)">
    <path d="M176.15 267.9 L176.8 265.85 Q178.5 265.65 179.65 266.9 177.0 273.1 176.85 278.0 L191.7 283.95 195.75 285.6 200.35 287.45 204.05 289.0 209.15 291.15 212.8 292.7 216.8 294.4 220.35 295.9 226.8 298.75 230.4 300.3 232.45 301.2 234.75 302.25 235.7 302.7 Q242.9 305.95 244.85 308.75 241.35 309.65 232.95 307.2 L228.55 305.9 224.55 304.75 222.75 304.25 218.55 303.0 210.8 300.65 206.7 299.4 202.55 298.1 198.4 296.8 192.7 295.0 188.6 293.7 184.8 292.45 180.45 291.05 173.0 288.55 Q170.0 292.4 168.0 298.85 166.3 299.05 165.2 297.85 L166.0 295.85 170.0 285.55 170.1 282.25 Q170.15 279.95 170.35 277.65 L172.6 278.35 176.15 267.9 M146.8 269.25 Q149.55 270.3 151.8 270.8 L150.6 278.7 149.7 278.25 Q148.05 277.35 145.9 276.5 L143.85 275.75 143.15 275.55 142.9 275.45 140.65 274.55 Q139.3 273.95 138.85 273.2 L138.35 273.45 134.75 273.6 Q132.95 272.95 132.15 271.2 131.6 270.05 131.7 268.9 L131.7 268.85 131.55 268.45 131.35 268.05 Q131.15 267.75 131.3 267.4 L131.35 267.25 Q131.5 266.95 131.75 266.9 L132.2 266.7 Q132.3 266.55 132.55 266.5 133.2 265.5 134.4 264.95 L138.0 264.8 Q139.8 265.45 140.6 267.25 L140.8 267.75 143.05 267.9 145.4 268.7 146.8 269.25" fill="#000000" fill-rule="evenodd" stroke="none"/>
  </g>
</svg>
