<?xml version="1.0" encoding="UTF-8" standalone="no"?>
<svg xmlns:xlink="http://www.w3.org/1999/xlink" height="79.8px" width="111.45px" xmlns="http://www.w3.org/2000/svg">
  <g transform="matrix(1.0, 0.0, 0.0, 1.0, -134.6, -267.35)">
    <path d="M134.7 277.5 Q134.85 275.6 135.15 274.05 136.3 267.5 139.45 267.35 142.9 269.45 146.6 270.95 L151.5 272.65 Q150.65 277.7 150.1 282.3 L145.25 282.0 144.9 282.05 139.55 282.9 137.45 283.4 Q134.1 283.95 134.7 277.5 M176.35 279.8 L195.05 287.9 Q199.75 290.05 203.1 291.7 206.95 293.65 208.95 294.95 210.65 295.85 214.55 300.15 L215.9 301.7 225.05 312.75 234.6 325.4 236.65 328.45 241.0 335.65 Q243.2 339.6 244.8 343.4 L246.05 347.15 Q236.85 346.3 225.5 337.75 222.05 335.05 218.85 332.05 215.3 328.65 212.1 324.75 L210.0 322.2 Q206.0 317.25 203.2 312.75 L202.95 312.35 Q200.05 308.2 197.5 305.15 194.45 301.55 191.9 299.5 L191.45 299.15 Q188.45 296.8 184.75 295.75 181.55 294.85 177.8 294.95 L177.35 294.1 178.35 292.95 Q178.6 292.15 177.8 291.25 176.45 290.0 175.35 290.25 174.05 290.45 173.75 292.5 L172.85 292.65 171.15 290.7 Q170.55 291.1 169.85 290.3 L169.65 290.15 Q169.65 287.45 169.8 284.85 169.95 281.0 170.35 277.25 L173.4 278.25 Q175.45 278.65 176.35 279.8" fill="#000000" fill-rule="evenodd" stroke="none"/>
  </g>
</svg>
