<?xml version="1.0" encoding="UTF-8" standalone="no"?>
<svg xmlns:xlink="http://www.w3.org/1999/xlink" height="62.5px" width="158.15px" xmlns="http://www.w3.org/2000/svg">
  <g transform="matrix(1.0, 0.0, 0.0, 1.0, -133.65, -264.9)">
    <path d="M143.4 265.15 L145.05 265.75 145.8 266.2 146.95 267.55 145.55 278.6 145.25 278.4 145.2 278.05 Q143.4 280.3 140.6 280.4 L139.75 280.3 138.0 279.7 Q136.0 278.7 135.15 276.65 134.65 275.15 135.25 272.45 133.25 271.5 133.75 269.85 L133.9 269.55 Q134.65 268.3 136.55 268.85 137.85 266.35 139.15 265.6 141.15 264.55 143.35 265.1 L143.4 265.15 M176.9 276.95 Q177.55 275.65 178.6 276.15 179.55 276.45 179.2 277.85 L179.15 278.0 Q189.6 283.1 202.8 288.35 L206.85 289.95 216.6 293.65 220.6 295.1 236.4 300.5 240.8 301.95 245.9 303.55 246.25 303.65 250.4 304.95 Q256.05 306.7 260.45 308.35 263.2 309.6 267.05 311.8 L270.25 313.65 274.15 316.0 277.25 317.95 Q283.65 321.95 291.8 327.4 L267.05 324.2 262.15 323.35 256.1 322.0 255.55 321.85 252.2 320.6 241.3 316.15 235.35 313.7 231.6 312.2 228.9 311.15 224.7 309.5 Q215.9 306.1 207.85 303.25 L203.75 301.85 194.25 298.7 189.9 297.35 Q181.3 294.7 173.75 292.85 L173.7 292.95 Q173.1 294.15 172.15 293.85 171.05 293.5 171.4 292.1 L171.35 292.1 Q171.05 292.9 169.5 291.55 L170.1 291.4 Q169.9 286.35 170.15 281.3 L170.35 277.25 Q172.15 276.15 174.8 276.2 177.15 276.1 176.9 276.95" fill="#000000" fill-rule="evenodd" stroke="none"/>
  </g>
</svg>
