<?xml version="1.0" encoding="UTF-8" standalone="no"?>
<svg xmlns:xlink="http://www.w3.org/1999/xlink" height="111.35px" width="211.65px" xmlns="http://www.w3.org/2000/svg">
  <g transform="matrix(1.0, 0.0, 0.0, 1.0, -128.2, -265.65)">
    <path d="M179.95 278.4 Q181.15 279.2 183.0 278.4 184.35 283.65 200.6 290.25 211.65 295.5 221.7 299.9 L229.85 303.4 236.4 306.15 Q235.0 311.05 237.35 318.1 238.65 321.4 242.4 325.75 L248.4 331.95 248.55 332.1 Q255.6 338.65 264.45 344.2 L272.55 348.85 Q281.05 353.35 291.0 357.05 L299.4 359.95 304.7 361.55 Q318.3 365.0 322.85 356.75 L329.35 363.15 Q337.8 371.25 338.85 375.6 321.05 377.3 299.6 371.6 L294.4 370.0 284.0 366.35 Q274.75 362.75 266.8 358.45 261.7 355.65 257.1 352.6 254.5 350.85 252.05 349.0 241.6 341.3 234.35 333.35 230.9 329.55 228.15 325.75 225.25 321.65 223.15 317.5 228.45 315.6 225.3 312.55 223.8 311.15 220.3 309.05 L220.0 308.9 Q217.1 307.1 213.85 305.4 L213.75 305.3 212.1 304.45 Q200.8 298.6 185.75 293.05 179.35 290.65 175.05 293.9 174.85 292.6 173.75 292.65 177.05 289.7 179.8 289.65 183.0 288.75 192.85 292.8 L231.45 310.1 231.45 312.5 Q231.7 318.55 236.6 325.75 L239.05 329.15 242.15 332.55 Q248.7 339.35 260.65 347.6 L261.2 347.9 270.05 353.05 Q279.0 357.95 287.6 361.55 292.25 363.5 296.85 365.1 L307.8 368.3 Q318.6 370.35 324.2 364.85 337.7 375.3 338.85 375.6 336.8 369.9 323.9 360.45 320.35 367.1 309.8 365.95 306.9 365.95 298.0 362.8 L289.15 359.5 286.95 358.65 Q279.0 355.55 271.15 351.15 266.95 348.8 262.8 346.1 257.0 342.3 251.2 337.8 L245.2 332.25 Q242.0 329.0 239.5 325.75 L236.7 321.75 235.1 318.75 Q233.65 314.8 233.9 308.05 L218.45 301.45 195.6 290.85 Q181.2 284.4 179.95 278.4" fill="url(#gradient0)" fill-rule="evenodd" stroke="none"/>
    <path d="M171.35 293.65 Q169.95 294.9 170.05 292.7 L170.1 291.9 170.7 288.4 Q171.35 285.25 172.35 282.65 L175.95 284.2 Q174.3 288.55 171.35 293.65 M136.2 279.55 Q134.7 280.45 134.55 282.4 L134.65 283.4 Q134.75 284.35 133.4 283.9 130.25 280.9 129.45 274.85 L134.45 274.65 134.1 272.25 Q133.7 268.05 134.8 267.75 L145.2 269.95 Q154.95 271.95 166.05 276.2 169.9 277.9 173.25 277.2 175.3 276.5 176.55 275.25 L175.65 276.4 Q173.7 279.05 172.35 282.65 152.55 274.45 134.45 274.65 135.15 278.7 136.2 279.55" fill="#000000" fill-opacity="0.2509804" fill-rule="evenodd" stroke="none"/>
    <path d="M170.1 291.9 Q170.05 290.65 169.45 289.1 168.35 286.7 158.95 282.35 149.55 278.0 139.45 278.8 137.35 278.8 136.2 279.55 135.15 278.7 134.45 274.65 152.55 274.45 172.35 282.65 171.35 285.25 170.7 288.4 L170.1 291.9" fill="#000000" fill-opacity="0.5019608" fill-rule="evenodd" stroke="none"/>
    <path d="M136.2 279.55 Q135.15 278.7 134.45 274.65 L134.1 272.25 Q133.7 268.05 134.8 267.75 M172.35 282.65 Q173.7 279.05 175.65 276.4 L176.55 275.25 M178.05 275.25 L177.75 278.3 Q177.2 281.05 175.95 284.2 174.3 288.55 171.35 293.65 M170.1 291.9 L170.7 288.4 Q171.35 285.25 172.35 282.65" fill="none" stroke="#000000" stroke-linecap="round" stroke-linejoin="round" stroke-width="0.5"/>
    <path d="M179.95 278.4 Q181.2 284.4 195.6 290.85 L218.45 301.45 233.9 308.05 Q233.65 314.8 235.1 318.75 L236.7 321.75 239.5 325.75 Q242.0 329.0 245.2 332.25 L251.2 337.8 Q257.0 342.3 262.8 346.1 266.95 348.8 271.15 351.15 279.0 355.55 286.95 358.65 L289.15 359.5 298.0 362.8 Q306.9 365.95 309.8 365.95 320.35 367.1 323.9 360.45 336.8 369.9 338.85 375.6 337.7 375.3 324.2 364.85 318.6 370.35 307.8 368.3 L296.85 365.1 Q292.25 363.5 287.6 361.55 279.0 357.95 270.05 353.05 L261.2 347.9 260.65 347.6 Q248.7 339.35 242.15 332.55 L239.05 329.15 236.6 325.75 Q231.7 318.55 231.45 312.5 L231.45 310.1 192.85 292.8 Q183.0 288.75 179.8 289.65 177.05 289.7 173.75 292.65 M178.85 280.15 Q180.25 284.95 185.25 287.9 177.85 287.25 176.05 288.65" fill="none" stroke="#000000" stroke-linecap="round" stroke-linejoin="round" stroke-opacity="0.2509804" stroke-width="0.5"/>
    <path d="M179.95 278.4 Q181.15 279.2 183.0 278.4 184.35 283.65 200.6 290.25 211.65 295.5 221.7 299.9 L229.85 303.4 236.4 306.15 Q235.0 311.05 237.35 318.1 238.65 321.4 242.4 325.75 L248.4 331.95 248.55 332.1 Q255.6 338.65 264.45 344.2 L272.55 348.85 Q281.05 353.35 291.0 357.05 L299.4 359.95 304.7 361.55 Q318.3 365.0 322.85 356.75 L329.35 363.15 Q337.8 371.25 338.85 375.6 321.05 377.3 299.6 371.6 L294.4 370.0 284.0 366.35 Q274.75 362.75 266.8 358.45 261.7 355.65 257.1 352.6 254.5 350.85 252.05 349.0 241.6 341.3 234.35 333.35 230.9 329.55 228.15 325.75 225.25 321.65 223.15 317.5 228.45 315.6 225.3 312.55 223.8 311.15 220.3 309.05 L220.0 308.9 Q217.1 307.1 213.85 305.4 L213.75 305.3 212.1 304.45 Q200.8 298.6 185.75 293.05 179.35 290.65 175.05 293.9 174.85 292.6 173.75 292.65 172.85 292.7 171.35 293.65 169.95 294.9 170.05 292.7 L170.1 291.9 M136.2 279.55 Q134.7 280.45 134.55 282.4 L134.65 283.4 Q134.75 284.35 133.4 283.9 130.25 280.9 129.45 274.85 129.1 272.2 129.2 269.0 129.35 265.95 131.75 266.9 L134.8 267.75 145.2 269.95 M166.05 276.2 Q169.9 277.9 173.25 277.2 175.3 276.5 176.55 275.25 L176.8 275.0 Q177.95 273.8 178.05 275.25 178.7 277.5 179.85 278.35 L179.95 278.4" fill="none" stroke="#000000" stroke-linecap="round" stroke-linejoin="round" stroke-width="2.0"/>
    <path d="M145.2 269.95 Q154.95 271.95 166.05 276.2 M170.1 291.9 Q170.05 290.65 169.45 289.1 168.35 286.7 158.95 282.35 149.55 278.0 139.45 278.8 137.35 278.8 136.2 279.55" fill="none" stroke="#000000" stroke-linecap="round" stroke-linejoin="round" stroke-width="2.0"/>
  </g>
  <defs>
    <linearGradient gradientTransform="matrix(-0.0071, 0.0144, -0.1009, -0.0499, 257.05, 332.85)" gradientUnits="userSpaceOnUse" id="gradient0" spreadMethod="pad" x1="-819.2" x2="819.2">
      <stop offset="0.0" stop-color="#000000" stop-opacity="0.0"/>
      <stop offset="1.0" stop-color="#000000" stop-opacity="0.2509804"/>
    </linearGradient>
  </defs>
</svg>
