<?xml version="1.0" encoding="UTF-8" standalone="no"?>
<svg xmlns:xlink="http://www.w3.org/1999/xlink" height="32.5px" width="42.8px" xmlns="http://www.w3.org/2000/svg">
  <g transform="matrix(1.0, 0.0, 0.0, 1.0, -139.05, -263.65)">
    <path d="M141.0 264.0 Q142.15 263.15 142.45 264.45 L150.35 265.85 149.95 268.75 148.2 269.05 Q145.7 269.65 145.0 272.45 L144.7 273.15 144.15 273.4 Q142.65 276.45 143.55 279.65 146.45 278.4 148.9 277.5 152.55 276.15 155.0 275.6 L156.7 275.3 167.35 275.9 173.3 276.1 Q174.45 275.8 175.45 274.95 L175.5 274.95 176.35 274.1 Q178.35 271.5 180.3 269.65 182.3 267.75 181.75 270.2 181.35 272.25 179.4 276.7 L179.4 276.75 179.3 277.65 179.05 277.5 Q177.95 278.85 175.75 285.55 L175.05 285.8 172.75 289.7 Q169.95 294.45 164.65 295.8 155.4 297.5 146.35 290.35 137.6 282.9 141.25 272.85 L140.65 272.5 Q140.0 273.55 139.15 272.6 L139.1 270.5 Q139.25 268.35 140.2 265.85 L141.0 264.0" fill="#000000" fill-rule="evenodd" stroke="none"/>
  </g>
</svg>
