<?xml version="1.0" encoding="UTF-8" standalone="no"?>
<svg xmlns:xlink="http://www.w3.org/1999/xlink" height="108.7px" width="278.05px" xmlns="http://www.w3.org/2000/svg">
  <g transform="matrix(1.0, 0.0, 0.0, 1.0, -110.05, -253.7)">
    <path d="M118.2 258.3 Q119.5 256.1 121.1 254.95 122.5 253.9 124.1 253.7 120.8 258.55 123.9 261.0 L124.2 260.8 125.5 260.9 Q126.55 261.25 126.6 261.7 L126.6 261.75 Q135.25 265.35 146.8 269.7 L151.7 271.5 150.4 280.05 145.75 278.35 Q132.95 273.8 123.3 270.8 L121.9 270.7 120.85 269.95 120.8 269.65 Q117.45 269.55 116.5 273.65 116.3 274.4 116.25 275.35 115.15 274.1 114.75 272.45 L114.65 272.05 Q114.25 270.3 114.65 268.05 L113.3 266.25 113.4 265.4 110.05 260.85 115.55 259.55 116.0 258.8 118.2 258.3 M358.65 361.65 Q351.05 356.1 339.8 351.85 L315.75 343.05 Q309.35 341.25 303.4 346.95 L303.05 347.25 303.0 346.85 Q302.1 338.6 296.05 335.9 L223.0 309.3 221.65 308.9 Q216.25 307.85 214.85 314.4 214.6 315.45 214.5 316.75 L214.4 318.35 Q213.15 317.65 212.4 316.4 L212.05 315.75 Q210.95 313.5 210.95 309.7 L210.8 307.8 Q209.85 304.05 205.85 302.8 L202.0 301.4 199.65 301.5 Q198.4 302.75 199.6 304.9 195.15 304.3 190.8 298.65 188.8 296.55 181.35 294.5 181.0 296.35 179.75 296.3 178.9 296.15 178.9 295.3 L178.55 296.25 Q178.35 296.9 177.75 296.75 177.1 296.6 177.2 295.9 L177.35 294.75 Q176.25 295.75 178.45 298.3 183.5 304.35 180.5 308.9 183.55 312.4 183.65 313.95 183.95 317.25 180.9 320.05 181.6 315.8 178.05 313.25 175.45 317.0 176.5 323.15 170.45 317.5 173.45 310.5 L173.2 310.3 Q168.95 306.95 169.4 301.4 170.0 302.45 170.75 303.15 171.8 304.1 172.05 303.05 171.8 299.95 172.55 296.15 171.15 293.2 173.2 290.15 L172.95 289.6 Q171.2 288.9 169.85 287.85 L169.95 284.1 Q170.05 281.15 170.3 278.25 L171.1 278.5 171.55 278.65 Q174.05 278.35 176.7 279.25 L177.25 279.0 Q177.65 275.3 180.6 274.0 182.5 270.55 184.7 268.35 185.2 267.4 183.75 267.45 L181.6 267.9 Q184.8 263.4 190.25 263.55 L190.55 263.6 Q192.75 256.25 201.05 255.85 196.25 259.9 195.85 264.45 200.2 264.75 202.4 261.05 202.95 265.15 200.55 267.5 199.5 268.55 194.9 269.3 194.3 274.75 186.55 276.15 183.2 276.65 183.4 278.15 L184.0 277.15 Q184.4 276.55 185.0 276.85 185.55 277.1 185.3 277.8 L184.95 278.7 Q185.5 278.05 186.25 278.5 187.25 279.25 186.3 280.9 193.3 284.1 196.2 283.8 203.15 282.25 206.95 284.65 204.65 285.5 204.8 287.3 204.9 288.25 206.55 288.85 L210.4 290.3 Q214.3 291.9 217.4 289.65 L218.75 288.25 Q223.15 283.15 226.95 283.85 219.75 293.25 227.75 296.35 L300.75 322.9 Q307.05 324.7 313.0 319.1 L313.45 318.7 313.5 319.2 Q314.4 327.35 320.45 330.1 L344.55 338.85 Q355.85 342.8 365.25 343.4 374.8 350.2 382.1 356.55 L388.1 362.05 377.8 362.4 358.65 361.65" fill="#000000" fill-rule="evenodd" stroke="none"/>
  </g>
</svg>
