<?xml version="1.0" encoding="UTF-8" standalone="no"?>
<svg xmlns:xlink="http://www.w3.org/1999/xlink" height="32.8px" width="58.55px" xmlns="http://www.w3.org/2000/svg">
  <g transform="matrix(1.0, 0.0, 0.0, 1.0, -115.2, -255.45)">
    <path d="M122.2 259.45 L120.15 261.2 120.15 263.35 122.2 261.75 122.2 259.45 M119.25 255.45 L120.25 255.95 122.25 256.9 124.2 257.75 126.2 258.7 128.2 259.6 130.4 260.65 132.25 261.45 134.55 262.5 136.2 263.25 138.25 264.2 139.95 264.95 142.1 265.95 143.75 266.7 146.0 267.7 146.5 267.9 147.45 268.35 149.7 269.35 151.25 270.05 151.9 270.3 Q151.05 275.05 150.5 279.35 L139.9 274.6 132.05 271.1 132.05 271.05 132.0 271.05 115.25 263.5 115.25 262.8 Q115.3 260.95 116.05 259.4 116.85 257.6 118.45 256.15 L119.25 255.45 M128.0 266.9 Q129.15 266.1 130.35 265.35 L130.4 262.8 128.05 264.45 128.0 266.9 M126.0 263.8 L126.1 261.2 124.0 262.75 123.95 265.3 126.0 263.8 M134.5 264.5 L132.15 266.2 132.1 268.85 134.5 267.05 134.5 264.5 M169.7 281.05 L169.85 278.15 170.0 278.2 170.3 278.35 170.35 278.35 172.0 279.05 173.75 279.8 Q172.55 282.0 171.65 284.3 L170.85 286.7 170.4 288.25 169.5 287.85 169.55 284.6 170.6 283.75 170.4 280.4 169.7 281.05 M143.8 274.35 L145.9 272.55 146.05 269.5 143.75 271.4 143.8 274.35 M139.9 272.65 L142.15 270.8 142.15 268.05 139.95 269.9 139.9 272.65 M116.7 261.6 L118.3 260.2 118.4 257.45 116.65 258.9 116.7 261.6 M138.3 266.25 L136.25 267.85 136.25 270.7 138.35 269.0 138.3 266.25" fill="#000000" fill-rule="evenodd" stroke="none"/>
    <path d="M169.7 281.05 L170.4 280.4 170.6 283.75 169.55 284.6 168.25 285.6 168.0 282.5 169.7 281.05" fill="#000000" fill-opacity="0.2509804" fill-rule="evenodd" stroke="none"/>
  </g>
</svg>
