<?xml version="1.0" encoding="UTF-8" standalone="no"?>
<svg xmlns:xlink="http://www.w3.org/1999/xlink" height="22.6px" width="37.0px" xmlns="http://www.w3.org/2000/svg">
  <g transform="matrix(1.0, 0.0, 0.0, 1.0, -138.25, -267.55)">
    <path d="M141.3 272.45 Q141.25 272.9 141.5 273.25 141.75 273.6 142.2 273.65 L142.95 273.45 143.4 272.8 143.4 272.75 143.2 272.0 Q142.95 271.65 142.5 271.6 L141.7 271.75 141.45 272.1 141.3 272.45 M151.8 271.0 Q150.95 275.7 150.4 279.95 L148.5 278.45 145.65 278.35 Q144.1 278.95 142.5 280.9 136.5 279.05 138.95 271.2 139.15 270.4 139.5 269.55 140.5 266.45 144.1 268.15 L151.8 271.0 M175.25 279.8 L171.6 290.15 170.35 289.95 169.75 289.85 Q169.75 286.85 169.9 283.95 L170.3 277.95 175.25 279.8" fill="#000000" fill-rule="evenodd" stroke="none"/>
  </g>
</svg>
