<?xml version="1.0" encoding="UTF-8" standalone="no"?>
<svg xmlns:xlink="http://www.w3.org/1999/xlink" height="83.15px" width="196.4px" xmlns="http://www.w3.org/2000/svg">
  <g transform="matrix(1.0, 0.0, 0.0, 1.0, -104.05, -254.85)">
    <path d="M104.45 258.8 L104.45 258.7 Q105.15 256.85 106.65 255.6 108.7 254.15 109.55 255.6 L146.85 269.15 145.65 278.65 106.35 264.35 Q104.8 264.9 104.15 262.45 103.9 261.0 104.2 259.55 L104.45 258.8 M181.05 291.5 L169.9 287.45 170.0 283.3 Q170.1 280.5 170.35 277.75 L184.2 282.8 Q185.9 282.25 187.25 283.9 L257.7 309.5 257.7 309.45 257.45 309.35 257.75 308.9 257.8 308.85 258.15 308.65 Q259.6 308.85 260.9 309.65 L260.9 310.35 268.7 313.0 269.8 313.35 275.05 314.35 Q282.8 314.0 287.15 309.8 L288.1 311.3 289.35 310.35 290.2 311.8 Q292.05 320.2 295.95 323.6 296.6 323.3 296.75 324.35 L296.45 326.2 297.55 326.6 297.9 326.05 Q300.95 327.8 300.35 329.95 L300.35 330.0 Q299.4 332.05 295.95 331.4 L296.05 330.75 294.95 330.4 294.0 332.0 292.85 332.05 Q287.7 332.1 280.9 337.4 L279.3 338.0 278.95 336.45 277.25 336.95 Q276.65 330.95 270.95 325.7 268.85 324.3 266.25 323.1 L265.2 322.65 257.5 319.7 257.05 320.2 Q255.55 319.95 254.3 319.2 L254.2 318.8 254.2 318.75 254.25 318.25 254.45 318.35 254.55 318.25 184.05 292.6 Q181.95 293.0 181.05 291.5" fill="#000000" fill-rule="evenodd" stroke="none"/>
  </g>
</svg>
