<?xml version="1.0" encoding="UTF-8" standalone="no"?>
<svg xmlns:xlink="http://www.w3.org/1999/xlink" height="85.15px" width="198.4px" xmlns="http://www.w3.org/2000/svg">
  <g transform="matrix(1.0, 0.0, 0.0, 1.0, -103.05, -253.85)">
    <path d="M106.35 264.35 Q105.75 262.85 106.8 259.65 L181.95 286.95 Q181.05 289.35 181.05 291.5 L106.35 264.35 M184.05 292.6 Q183.7 291.35 184.9 288.0 L256.8 314.15 Q255.65 317.1 254.55 318.25 L184.05 292.6 M290.2 311.8 Q292.05 320.2 295.95 323.6 L291.45 321.95 Q290.1 320.35 289.15 318.2 L281.9 318.45 260.85 310.8 260.9 310.35 268.7 313.0 269.75 313.45 Q281.5 317.85 290.2 311.8 M292.85 332.05 Q287.7 332.1 280.9 337.4 278.15 327.15 266.3 323.0 L265.2 322.65 257.5 319.7 257.75 319.3 278.8 326.95 Q281.9 329.1 284.2 331.8 286.3 330.75 288.4 330.45 L292.85 332.05 M268.25 317.05 L268.45 317.1 Q283.15 322.1 288.3 321.2 289.45 324.1 295.2 326.9 L294.85 327.95 294.85 328.0 294.4 329.05 267.65 319.35 294.4 329.05 Q288.2 327.5 285.5 329.0 282.1 324.95 267.65 319.35 L267.45 319.25 259.3 316.3 259.75 315.2 260.1 314.1 268.25 317.05 M268.45 317.1 L295.2 326.9 268.45 317.1" fill="#000000" fill-opacity="0.2509804" fill-rule="evenodd" stroke="none"/>
    <path d="M106.35 264.35 Q105.75 262.85 106.8 259.65 L106.85 259.55 Q108.1 256.35 109.55 255.6 M184.2 282.8 Q183.15 283.8 182.15 286.5 L181.95 286.95 Q181.05 289.35 181.05 291.5 M254.25 318.25 L254.45 318.35 254.55 318.25 M268.25 317.05 L268.45 317.1 295.2 326.9 M288.3 321.2 L289.15 318.2 M260.9 310.35 L260.85 310.8 281.9 318.45 M268.7 313.0 L269.75 313.45 M267.65 319.35 L267.45 319.25 M284.2 331.8 L285.5 329.0 M267.65 319.35 L294.4 329.05 M265.2 322.65 L266.3 323.0 M295.95 323.6 L291.45 321.95 M297.55 326.6 L297.95 326.75 297.9 326.05 M296.4 330.9 L295.95 331.4 M296.4 330.9 L296.05 330.75 M288.4 330.45 L292.85 332.05 M257.7 309.5 L257.7 309.45 257.45 309.35 M257.75 308.9 L257.7 309.15 257.7 309.45 M278.8 326.95 L257.75 319.3 257.5 319.7 M254.45 318.35 L254.25 318.55 254.2 318.75" fill="none" stroke="#000000" stroke-linecap="round" stroke-linejoin="round" stroke-width="0.5"/>
    <path d="M109.55 255.6 Q108.7 254.15 106.65 255.6 105.15 256.85 104.45 258.7 L104.45 258.8 Q103.8 260.6 104.15 262.45 104.8 264.9 106.35 264.35 M187.25 283.9 Q185.9 282.25 184.2 282.8 M181.05 291.5 Q181.95 293.0 184.05 292.6 L254.55 318.25 M288.1 311.3 L287.15 309.8 Q282.8 314.0 275.05 314.35 L269.8 313.35 268.7 313.0 260.9 310.35 260.9 309.65 Q259.6 308.85 258.15 308.65 L257.8 308.85 257.75 308.9 257.45 309.35 M288.1 311.3 L289.35 310.35 290.2 311.8 Q292.05 320.2 295.95 323.6 296.6 323.3 296.75 324.35 L296.45 326.2 297.55 326.6 297.9 326.05 Q300.95 327.8 300.35 329.95 L300.35 330.0 Q299.4 332.05 295.95 331.4 L296.05 330.75 294.95 330.4 294.0 332.0 292.85 332.05 Q287.7 332.1 280.9 337.4 L279.3 338.0 278.95 336.45 277.25 336.95 Q276.65 330.95 270.95 325.7 268.85 324.3 266.25 323.1 L265.2 322.65 257.5 319.7 257.05 320.2 Q255.55 319.95 254.3 319.2 L254.2 318.8 254.2 318.75 254.25 318.25 M257.7 309.5 L187.25 283.9" fill="none" stroke="#000000" stroke-linecap="round" stroke-linejoin="round" stroke-width="2.0"/>
    <path d="M184.05 292.6 Q183.7 291.35 184.9 288.0 L184.9 287.95 Q186.15 284.55 187.25 283.9 M254.55 318.25 Q255.65 317.1 256.8 314.15 257.8 311.1 257.7 309.5 M275.05 314.35 Q282.65 315.1 288.1 311.3 M268.45 317.1 Q283.15 322.1 288.3 321.2 289.45 324.1 295.2 326.9 L294.85 327.95 294.85 328.0 294.4 329.05 Q288.2 327.5 285.5 329.0 282.1 324.95 267.65 319.35 M289.15 318.2 L281.9 318.45 Q277.15 318.05 272.0 316.2 L260.65 312.05 260.1 314.1 268.25 317.05 M269.75 313.45 Q281.5 317.85 290.2 311.8 M267.45 319.25 L259.3 316.3 258.4 318.2 269.75 322.35 Q274.9 324.2 278.8 326.95 281.9 329.1 284.2 331.8 286.3 330.75 288.4 330.45 L293.65 330.75 294.4 329.05 M266.3 323.0 Q278.15 327.15 280.9 337.4 M278.95 336.45 Q277.25 329.95 270.95 325.7 M291.45 321.95 Q293.15 323.9 295.7 325.1 L295.95 323.6 M294.95 330.4 L295.85 328.35 295.9 328.3 296.45 326.2 M295.7 325.1 L295.2 326.9 M297.95 326.75 L297.55 328.9 297.5 328.95 296.4 330.9 M292.85 332.05 L293.65 330.75 M289.15 318.2 Q290.1 320.35 291.45 321.95 M260.1 314.1 L259.75 315.2 259.3 316.3 M258.4 318.2 L257.75 319.3 M260.85 310.8 L260.65 312.05" fill="none" stroke="#000000" stroke-linecap="round" stroke-linejoin="round" stroke-width="1.0"/>
    <path d="M106.35 264.35 L181.05 291.5 M184.2 282.8 L109.55 255.6" fill="none" stroke="#000000" stroke-linecap="round" stroke-linejoin="round" stroke-width="2.0"/>
  </g>
</svg>
