<?xml version="1.0" encoding="UTF-8" standalone="no"?>
<svg xmlns:xlink="http://www.w3.org/1999/xlink" height="49.75px" width="22.85px" xmlns="http://www.w3.org/2000/svg">
  <g transform="matrix(1.0, 0.0, 0.0, 1.0, -153.45, -280.75)">
    <path d="M165.5 291.35 L164.9 282.75 167.6 282.35 168.65 292.4 169.75 300.3 171.25 308.85 173.5 319.4 174.85 325.0 176.3 330.5 171.15 323.75 169.7 317.9 Q168.45 312.55 167.55 307.25 L166.2 298.1 165.5 291.35 M153.65 284.65 L153.45 281.15 156.15 280.75 156.65 286.65 157.35 292.65 Q158.05 298.05 159.1 303.6 160.1 309.05 161.4 314.7 L163.3 322.5 165.35 329.8 159.65 322.2 159.5 321.65 157.55 313.2 Q156.4 307.65 155.55 302.1 154.65 296.35 154.1 290.6 L153.65 284.65 M159.7 288.65 L159.1 281.8 161.8 281.4 Q162.05 285.95 162.6 290.6 L163.3 296.3 Q163.95 301.15 164.9 306.15 165.9 311.45 167.2 316.95 L168.9 323.7 170.75 330.4 165.4 322.95 165.35 322.8 163.75 315.6 161.8 304.8 160.35 294.45 159.7 288.65" fill="#000000" fill-rule="evenodd" stroke="none"/>
  </g>
</svg>
