<?xml version="1.0" encoding="UTF-8" standalone="no"?>
<svg xmlns:xlink="http://www.w3.org/1999/xlink" height="37.3px" width="57.4px" xmlns="http://www.w3.org/2000/svg">
  <g transform="matrix(1.0, 0.0, 0.0, 1.0, -190.25, -153.55)">
    <path d="M232.65 158.65 L234.65 158.65 235.45 156.5 229.65 156.5 Q231.95 157.1 232.65 158.65 M197.55 168.7 Q193.9 166.3 190.25 164.05 L201.2 153.55 236.05 153.85 Q240.15 156.8 243.65 160.45 245.8 162.6 247.65 165.05 L228.65 190.85 Q213.45 179.1 197.55 168.7 M194.95 163.5 L198.85 166.25 Q200.35 162.7 202.9 160.1 204.9 158.05 207.55 156.5 L201.65 156.5 194.95 163.5 M219.75 159.7 Q215.35 160.5 213.8 163.3 212.85 165.4 213.65 166.7 214.85 168.65 220.3 168.7 L228.25 168.7 Q235.65 168.5 238.75 172.65 L244.1 165.05 241.3 161.7 239.15 164.3 233.35 164.3 Q230.9 160.7 226.95 159.7 L223.7 159.35 219.75 159.7 M228.55 187.1 L230.25 184.7 225.1 184.7 228.55 187.1 M221.95 179.5 L224.65 179.5 227.1 181.8 230.1 181.8 Q231.85 181.1 231.75 179.7 231.05 177.15 224.25 177.45 218.65 177.7 213.2 176.3 L220.45 181.4 221.95 179.5" fill="#000000" fill-rule="evenodd" stroke="none"/>
  </g>
</svg>
