<?xml version="1.0" encoding="UTF-8" standalone="no"?>
<svg xmlns:xlink="http://www.w3.org/1999/xlink" height="38.3px" width="58.4px" xmlns="http://www.w3.org/2000/svg">
  <g transform="matrix(1.0, 0.0, 0.0, 1.0, -189.75, -153.05)">
    <path d="M202.9 160.1 Q211.45 159.7 219.75 159.7 215.35 160.5 213.8 163.3 212.85 165.4 213.65 166.7 212.85 165.4 213.8 163.3 215.35 160.5 219.75 159.7 L226.95 159.7 243.65 160.45 Q245.8 162.6 247.65 165.05 L245.1 168.5 242.05 167.95 Q228.3 165.7 213.65 166.7 205.7 167.2 197.55 168.7 193.9 166.3 190.25 164.05 L193.85 160.65 197.95 160.35 202.9 160.1 Q200.35 162.7 198.85 166.25 L194.95 163.5 197.95 160.35 194.95 163.5 198.85 166.25 Q200.35 162.7 202.9 160.1 M242.05 167.95 L244.1 165.05 241.3 161.7 239.15 164.3 233.35 164.3 Q230.9 160.7 226.95 159.7 230.9 160.7 233.35 164.3 L239.15 164.3 241.3 161.7 244.1 165.05 242.05 167.95" fill="#ffffff" fill-opacity="0.2509804" fill-rule="evenodd" stroke="none"/>
    <path d="M197.95 160.35 L201.65 156.5 207.55 156.5 Q204.9 158.05 202.9 160.1 200.35 162.7 198.85 166.25 L194.95 163.5 197.95 160.35 M219.75 159.7 L223.7 159.35 226.95 159.7 Q230.9 160.7 233.35 164.3 L239.15 164.3 241.3 161.7 244.1 165.05 242.05 167.95 238.75 172.65 Q235.65 168.5 228.25 168.7 L220.3 168.7 Q214.85 168.65 213.65 166.7 212.85 165.4 213.8 163.3 215.35 160.5 219.75 159.7 M243.65 160.45 Q240.15 156.8 236.05 153.85 L201.2 153.55 193.85 160.65 190.25 164.05 Q193.9 166.3 197.55 168.7 213.45 179.1 228.65 190.85 L245.1 168.5 247.65 165.05 Q245.8 162.6 243.65 160.45 M232.65 158.65 Q231.95 157.1 229.65 156.5 L235.45 156.5 234.65 158.65 232.65 158.65 M221.95 179.5 L220.45 181.4 213.2 176.3 Q218.65 177.7 224.25 177.45 231.05 177.15 231.75 179.7 231.85 181.1 230.1 181.8 L227.1 181.8 224.65 179.5 221.95 179.5 M228.55 187.1 L225.1 184.7 230.25 184.7 228.55 187.1 Z" fill="none" stroke="#000000" stroke-linecap="round" stroke-linejoin="round" stroke-width="1.0"/>
  </g>
</svg>
