<?xml version="1.0" encoding="UTF-8" standalone="no"?>
<svg xmlns:xlink="http://www.w3.org/1999/xlink" height="22.9px" width="27.75px" xmlns="http://www.w3.org/2000/svg">
  <g transform="matrix(1.0, 0.0, 0.0, 1.0, -210.7, -155.05)">
    <path d="M223.75 169.7 L225.45 177.95 215.3 177.95 210.7 155.05 226.45 155.05 Q231.65 155.05 234.65 156.9 237.6 158.75 238.3 162.2 239.0 165.7 236.55 167.7 234.1 169.7 228.35 169.7 L223.75 169.7 M224.5 164.55 Q227.1 164.55 227.9 163.9 228.7 163.3 228.55 162.4 228.35 161.5 227.4 160.8 226.45 160.15 224.05 160.15 L221.85 160.15 222.7 164.55 224.5 164.55" fill="#000000" fill-rule="evenodd" stroke="none"/>
  </g>
</svg>
