<?xml version="1.0" encoding="UTF-8" standalone="no"?>
<svg xmlns:xlink="http://www.w3.org/1999/xlink" height="26.85px" width="36.15px" xmlns="http://www.w3.org/2000/svg">
  <g transform="matrix(1.0, 0.0, 0.0, 1.0, -208.75, -154.15)">
    <path d="M231.25 170.55 Q231.8 169.3 231.25 166.45 230.6 163.15 228.7 161.85 226.9 160.5 224.1 160.5 221.6 160.5 220.3 161.85 218.95 163.25 219.55 166.3 220.3 169.85 222.1 171.2 223.9 172.55 226.65 172.55 L228.0 172.55 224.1 171.3 225.1 168.35 227.5 168.8 230.5 170.1 231.25 170.55 M211.9 157.75 Q215.5 154.65 223.0 154.65 230.6 154.65 235.35 157.7 240.15 160.8 241.3 166.5 242.3 171.5 239.65 174.35 L241.8 175.25 244.4 176.15 242.5 180.5 237.85 178.75 235.1 177.35 Q232.4 178.35 227.7 178.35 220.75 178.35 216.1 175.6 210.7 172.4 209.55 166.55 208.4 160.9 211.9 157.75 Z" fill="none" stroke="#000000" stroke-linecap="round" stroke-linejoin="round" stroke-width="1.0"/>
  </g>
</svg>
