<?xml version="1.0" encoding="UTF-8" standalone="no"?>
<svg xmlns:xlink="http://www.w3.org/1999/xlink" height="58.7px" width="139.6px" xmlns="http://www.w3.org/2000/svg">
  <g transform="matrix(1.0, 0.0, 0.0, 1.0, -134.4, -246.95)">
    <path d="M142.55 257.9 Q150.75 249.75 162.35 249.75 173.95 249.75 182.1 257.9 190.3 266.1 190.3 277.7 190.3 289.3 182.1 297.45 173.95 305.65 162.35 305.65 150.75 305.65 142.55 297.45 134.4 289.3 134.4 277.7 134.4 266.1 142.55 257.9" fill="url(#gradient0)" fill-rule="evenodd" stroke="none"/>
    <path d="M266.6 289.9 Q259.25 297.3 248.8 297.3 238.35 297.3 231.0 289.9 223.65 282.55 223.65 272.15 223.65 261.7 231.0 254.3 238.35 246.95 248.8 246.95 259.25 246.95 266.6 254.3 274.0 261.7 274.0 272.15 274.0 282.55 266.6 289.9" fill="url(#gradient1)" fill-rule="evenodd" stroke="none"/>
  </g>
  <defs>
    <radialGradient cx="0" cy="0" gradientTransform="matrix(0.0351, 0.0, 0.0, 0.0351, 162.35, 277.7)" gradientUnits="userSpaceOnUse" id="gradient0" r="819.2" spreadMethod="pad">
      <stop offset="0.0" stop-color="#ffffff" stop-opacity="0.0"/>
      <stop offset="0.8627450980392157" stop-color="#ffffff"/>
      <stop offset="1.0" stop-color="#ffffff" stop-opacity="0.0"/>
    </radialGradient>
    <radialGradient cx="0" cy="0" gradientTransform="matrix(0.0316, 0.0, 0.0, 0.0316, 248.8, 272.1)" gradientUnits="userSpaceOnUse" id="gradient1" r="819.2" spreadMethod="pad">
      <stop offset="0.0" stop-color="#ffffff" stop-opacity="0.0"/>
      <stop offset="0.8627450980392157" stop-color="#ffffff"/>
      <stop offset="1.0" stop-color="#ffffff" stop-opacity="0.0"/>
    </radialGradient>
  </defs>
</svg>
