<?xml version="1.0" encoding="UTF-8" standalone="no"?>
<svg xmlns:xlink="http://www.w3.org/1999/xlink" height="158.6px" width="58.2px" xmlns="http://www.w3.org/2000/svg">
  <g transform="matrix(1.0, 0.0, 0.0, 1.0, -331.9, -275.95)">
    <path d="M361.3 382.95 L360.35 378.85 Q356.05 375.85 352.8 377.95 L354.35 384.05 Q355.45 385.35 356.7 385.9 358.6 385.35 360.35 385.3 361.15 384.3 361.3 382.95 M359.4 374.7 Q358.4 373.1 356.8 373.5 L353.2 374.3 352.65 375.15 Q352.3 376.0 352.5 376.8 L352.6 377.2 Q354.85 374.35 359.65 375.65 L359.4 374.7 M352.0 337.95 L351.25 338.1 349.4 331.5 Q348.4 330.25 346.65 330.15 L333.85 331.7 331.9 323.55 349.8 321.4 Q351.65 322.1 352.75 324.35 L360.3 364.95 360.8 364.65 362.25 365.1 364.7 379.2 375.0 377.4 Q376.05 377.25 377.0 378.45 L377.2 379.65 380.5 379.3 Q382.85 379.4 383.9 382.65 L390.1 415.35 Q390.25 416.9 389.15 417.85 L380.95 419.25 Q379.0 418.9 378.0 415.95 L376.65 408.15 374.95 406.15 373.7 403.8 372.7 403.3 Q371.65 402.75 371.35 401.6 L369.8 401.95 368.4 398.4 374.0 433.3 371.8 434.55 Q370.7 433.85 369.6 431.0 369.4 421.55 362.55 413.85 L360.0 403.15 Q356.05 398.2 353.15 402.25 L351.3 406.8 Q349.2 409.35 346.65 409.8 L344.9 410.95 343.3 409.05 Q341.55 406.85 340.7 404.65 L342.6 403.05 343.7 402.1 Q349.95 396.3 356.9 391.7 L355.7 386.6 Q354.0 385.8 352.75 383.95 L351.1 374.85 Q345.5 372.1 338.8 372.15 L338.4 372.15 Q337.2 371.8 338.0 369.6 L338.2 369.0 340.0 364.5 Q343.0 360.6 346.95 362.75 L351.95 366.4 Q354.8 368.1 357.25 366.8 L352.0 337.95 M359.85 293.1 L349.9 294.6 Q346.3 293.25 349.0 289.45 L343.15 279.75 Q351.0 273.85 360.3 277.15 L359.05 287.4 Q361.75 290.75 359.85 293.1" fill="#ffffff" fill-rule="evenodd" stroke="none"/>
  </g>
</svg>
