<?xml version="1.0" encoding="UTF-8" standalone="no"?>
<svg xmlns:xlink="http://www.w3.org/1999/xlink" height="60.7px" width="24.3px" xmlns="http://www.w3.org/2000/svg">
  <g transform="matrix(1.0, 0.0, 0.0, 1.0, -353.4, -374.85)">
    <path d="M356.4 377.1 L357.65 379.2 358.3 381.0 358.25 381.15 357.4 381.2 Q356.3 381.0 355.45 381.7 354.9 382.35 354.65 383.4 354.5 384.7 354.85 385.8 355.45 387.6 356.45 388.2 L356.9 388.35 358.4 388.3 359.35 387.45 359.65 387.05 359.5 386.7 Q359.45 386.25 359.7 386.25 L360.0 386.25 360.8 387.4 360.8 387.55 361.85 391.1 Q362.0 391.8 361.75 392.0 L361.05 391.95 Q360.7 391.6 360.3 389.9 360.25 388.95 359.3 388.85 357.4 389.8 355.65 388.8 354.55 388.2 353.7 386.55 353.25 385.35 353.5 383.8 353.7 382.5 354.65 381.3 L355.65 379.65 Q355.9 378.9 355.75 378.45 L355.75 378.15 Q355.75 377.7 355.1 377.15 L355.05 377.1 353.85 375.85 Q353.25 375.2 353.45 375.0 353.5 374.85 353.9 374.85 354.8 375.25 355.9 376.45 L356.4 377.1 M362.65 379.8 L362.95 379.65 Q363.65 379.4 364.35 379.85 L364.45 379.9 Q365.2 380.6 366.45 383.9 367.05 383.7 367.25 382.95 L367.35 382.5 367.35 382.45 367.5 382.45 367.75 382.35 367.7 382.3 367.8 382.25 Q368.05 381.45 369.35 381.2 L371.05 381.35 371.95 381.1 371.9 380.95 Q371.9 380.4 372.4 380.45 372.85 380.4 373.0 380.85 L372.85 381.55 372.85 382.15 372.85 382.2 373.0 382.5 373.2 382.55 373.4 382.4 373.75 382.4 373.9 382.65 374.35 382.55 374.55 382.45 Q374.9 382.1 375.5 382.15 L376.15 382.55 376.55 382.45 Q376.9 382.4 376.9 382.8 376.95 383.2 376.6 383.2 L376.5 383.15 376.2 383.1 376.2 383.25 375.75 383.7 Q375.1 384.0 374.7 383.7 L374.45 383.55 373.95 383.6 373.9 383.85 373.5 383.95 373.3 383.75 Q373.05 383.7 372.95 383.9 L372.95 383.95 372.85 384.15 372.95 385.15 372.55 386.0 372.2 386.25 372.05 386.4 Q371.65 387.05 371.45 386.7 L371.35 386.65 371.2 386.4 Q371.05 386.55 370.8 386.25 L370.85 386.25 Q370.4 386.2 370.2 385.25 L370.0 385.25 369.55 385.4 Q369.05 385.5 369.05 385.8 L368.8 385.8 368.85 385.6 368.85 385.55 368.65 385.45 368.0 385.35 367.9 385.4 Q367.75 385.25 368.05 385.15 L366.95 385.05 367.8 388.7 369.3 388.45 370.15 393.15 371.35 392.0 371.7 391.75 372.05 391.65 Q372.4 391.6 372.45 391.8 L372.5 391.8 Q372.75 392.1 373.15 392.1 L373.3 392.2 375.2 393.3 Q376.75 394.4 377.1 395.25 L377.15 395.35 377.15 395.45 377.2 395.8 Q377.2 396.3 376.75 396.45 L376.65 396.5 376.4 396.3 375.25 394.8 Q374.6 394.25 373.25 394.15 372.4 393.9 372.1 393.45 L372.1 393.15 371.55 393.1 370.75 394.05 370.45 394.35 373.3 409.9 373.15 410.15 373.15 410.2 377.1 432.9 377.35 433.5 377.55 434.0 377.65 434.0 377.65 434.7 Q377.35 435.1 375.85 435.4 L373.8 435.35 373.6 434.7 373.7 434.5 373.7 434.1 373.65 434.0 373.65 433.6 372.05 424.95 371.2 425.1 Q371.5 425.7 370.9 425.9 L370.2 426.05 Q369.55 426.1 369.45 425.45 L369.5 424.6 366.7 408.7 Q367.6 409.15 367.7 409.6 L367.75 409.9 367.75 410.1 369.85 420.3 370.45 422.1 370.75 423.35 Q370.85 423.9 371.35 423.75 L371.8 423.7 373.95 423.35 374.2 423.0 369.8 399.55 369.8 398.9 367.45 399.2 Q365.75 399.0 364.95 397.15 363.7 394.05 362.65 389.4 361.75 385.7 361.35 383.2 361.2 380.7 362.65 379.8 M359.95 385.45 L359.55 385.45 359.15 385.2 Q357.95 385.1 356.65 386.0 356.3 386.25 356.35 385.55 357.1 384.5 358.3 384.35 L358.3 384.3 Q358.25 384.05 358.6 383.9 L358.65 383.9 359.5 383.65 359.9 383.95 360.15 385.1 360.1 385.25 359.95 385.45" fill="#ffffff" fill-rule="evenodd" stroke="none"/>
  </g>
</svg>
