<?xml version="1.0" encoding="UTF-8" standalone="no"?>
<svg xmlns:xlink="http://www.w3.org/1999/xlink" height="58.9px" width="37.45px" xmlns="http://www.w3.org/2000/svg">
  <g transform="matrix(1.0, 0.0, 0.0, 1.0, -340.9, -365.25)">
    <path d="M361.15 370.05 Q361.6 372.0 360.0 372.35 L358.8 372.7 Q357.75 373.0 357.4 375.35 356.8 378.15 354.75 378.9 L354.7 378.95 354.6 378.95 354.6 379.0 354.45 379.0 353.85 379.35 Q352.5 379.4 353.05 377.65 353.2 376.35 352.15 375.6 L352.05 375.55 349.3 375.4 Q347.35 373.85 345.05 375.15 343.9 374.1 342.25 374.05 341.15 371.85 340.9 367.45 340.95 366.65 341.5 365.95 341.95 365.3 342.95 365.25 350.65 365.05 356.3 367.85 L359.6 368.1 Q360.6 367.85 360.85 368.75 L361.15 369.95 361.15 370.05 M364.0 375.2 Q364.8 375.3 364.85 376.6 364.75 376.9 364.8 377.15 364.8 378.0 367.1 378.4 L367.15 379.05 361.3 380.1 361.25 379.4 Q363.2 378.3 362.95 377.5 L362.75 376.95 362.6 376.2 Q362.6 375.4 363.5 375.2 L363.55 375.2 364.0 375.2 M366.95 379.7 Q367.5 379.8 367.55 380.1 367.6 380.4 367.15 380.7 L366.85 380.85 366.5 380.9 366.5 381.05 365.95 381.15 365.7 379.65 366.25 379.6 366.3 379.75 366.7 379.7 366.95 379.7 M364.0 374.55 L364.6 374.75 Q365.3 374.85 365.8 374.35 L366.25 373.5 366.1 371.85 Q366.55 371.65 366.75 372.15 L366.85 373.0 366.75 374.2 Q366.5 375.0 367.0 375.4 L368.15 375.9 368.35 376.15 Q365.85 376.1 364.4 374.9 L364.0 374.55 M362.75 380.45 L363.3 380.85 362.9 381.45 362.65 381.6 362.3 381.65 362.3 381.8 361.8 381.9 361.55 380.4 362.05 380.35 362.05 380.5 362.45 380.45 362.75 380.45 M359.4 386.15 L359.65 386.55 359.55 387.0 359.15 387.25 358.75 387.15 358.55 386.75 Q358.45 386.5 358.6 386.3 358.75 386.1 359.0 386.1 L359.4 386.15 M366.95 392.2 L367.9 397.35 368.15 397.45 368.35 398.35 367.75 398.7 367.15 398.55 367.0 397.65 367.3 397.45 366.4 392.3 366.95 392.2 M371.95 391.35 L372.1 391.35 378.25 423.55 378.35 423.6 377.7 423.95 376.6 424.15 370.9 391.5 371.95 391.35 M371.5 393.45 L372.2 397.65 372.7 397.55 371.95 393.4 371.5 393.45 M374.35 409.95 L375.1 414.1 375.6 414.0 374.85 409.85 374.35 409.95 M374.15 405.9 L373.45 401.7 372.95 401.8 373.65 405.95 374.15 405.9 M375.75 417.9 L376.5 422.1 377.0 422.05 376.25 417.85 375.75 417.9" fill="#ffffff" fill-rule="evenodd" stroke="none"/>
  </g>
</svg>
