<?xml version="1.0" encoding="UTF-8" standalone="no"?>
<svg xmlns:xlink="http://www.w3.org/1999/xlink" height="551.0px" width="550.8px" xmlns="http://www.w3.org/2000/svg">
  <g transform="matrix(1.0, 0.0, 0.0, 1.0, 275.5, 260.5)">
    <path d="M274.8 -148.2 Q181.05 -145.9 89.95 -134.05 L90.8 -119.35 Q182.8 -144.25 274.8 -123.05 M274.8 -169.55 Q165.45 -149.9 89.4 -146.65 L89.95 -134.05 76.0 -132.2 77.35 -115.45 90.8 -119.35 Q91.65 -107.15 92.8 -94.9 M274.8 -191.9 Q172.15 -160.2 89.05 -156.65 L89.4 -146.65 75.15 -146.2 76.0 -132.2 59.4 -129.8 Q59.95 -119.95 60.8 -110.0 L77.35 -115.45 78.65 -102.05 M92.8 -260.0 Q87.7 -209.1 89.05 -156.65 L74.7 -156.25 Q74.85 -151.25 75.15 -146.2 L58.55 -146.05 Q58.85 -137.95 59.4 -129.8 L47.7 -128.05 Q48.6 -117.7 49.85 -107.3 M-32.85 -157.7 L-33.3 -146.8 -20.2 -147.7 -20.2 -159.0 -32.85 -157.7 Q-30.85 -210.8 -35.8 -260.0 M-18.05 -159.25 L-20.2 -159.0 -20.2 -260.0 M-74.85 -156.3 L-75.3 -146.25 -58.7 -146.1 -58.35 -156.35 Q-66.5 -156.2 -74.85 -156.3 L-89.2 -156.7 -89.55 -146.7 -75.3 -146.25 -76.15 -132.25 -59.55 -129.85 Q-59.05 -138.0 -58.7 -146.1 -52.5 -146.1 -46.55 -146.25 L-46.0 -156.8 -58.35 -156.35 Q-56.75 -209.0 -61.65 -260.0 M-47.9 -128.1 L-34.6 -126.0 -33.3 -146.8 -46.55 -146.25 Q-47.1 -137.2 -47.9 -128.1 L-59.55 -129.85 Q-60.15 -119.95 -61.0 -110.0 L-51.85 -106.65 M-61.0 -110.0 L-61.65 -102.6 M-47.9 -128.1 Q-48.8 -117.75 -50.05 -107.3 M-20.2 -115.75 L-20.2 -123.6 -34.6 -126.0 -35.8 -111.95 M-18.75 -147.85 L-20.2 -147.7 -20.2 -123.6 -19.4 -123.45 M-32.85 -157.7 L-46.0 -156.8 Q-43.65 -209.5 -50.05 -260.0 M61.45 -260.0 Q56.55 -209.0 58.15 -156.3 66.3 -156.15 74.7 -156.25 72.6 -210.25 78.65 -260.0 M49.85 -260.0 Q43.45 -209.45 45.8 -156.75 L58.15 -156.3 58.55 -146.05 Q52.3 -146.05 46.35 -146.2 46.9 -137.15 47.7 -128.05 L34.45 -125.95 35.6 -111.95 M20.0 -260.0 L20.0 -158.95 32.65 -157.65 Q30.65 -210.8 35.6 -260.0 M17.85 -159.2 L20.0 -158.95 20.0 -147.65 33.15 -146.75 32.65 -157.65 45.8 -156.75 46.35 -146.2 33.15 -146.75 Q33.65 -136.45 34.45 -125.95 L20.0 -123.55 20.0 -115.75 M18.55 -147.8 L20.0 -147.65 20.0 -123.55 19.2 -123.4 M61.45 -102.6 L60.8 -110.0 51.65 -106.65 M-6.3 -260.0 L-6.3 -167.05 M-15.6 -260.0 L-15.6 -162.05 M15.4 -260.0 L15.4 -162.05 M6.1 -260.0 L6.1 -167.05 M77.0 -13.75 L71.4 -12.8 73.05 -8.2 M66.15 -27.5 L65.65 -27.25 71.4 -12.8 37.15 -7.1 M52.15 -54.1 Q59.75 -40.65 65.65 -27.25 56.55 -23.1 42.55 -22.7 M-66.35 -27.5 L-65.8 -27.25 Q-59.95 -40.65 -52.35 -54.1 M-37.35 -7.1 L-71.6 -12.8 -73.25 -8.2 M-42.75 -22.7 Q-56.7 -23.05 -65.8 -27.25 -68.95 -20.05 -71.6 -12.8 L-77.2 -13.75 M-43.75 33.65 Q-58.0 31.95 -70.35 33.5 -68.8 39.05 -67.4 44.65 -58.0 43.9 -47.5 48.65 M-67.65 5.65 L-37.1 7.05 M-74.4 19.55 L-74.1 20.5 Q-56.0 17.35 -39.55 20.4 M-82.75 36.0 Q-76.8 34.3 -70.35 33.5 L-74.1 20.5 -75.05 20.65 M-68.55 58.3 L-64.35 57.55 -67.4 44.65 Q-74.0 45.15 -80.1 48.3 M-75.75 83.2 L-73.95 90.7 Q-65.4 91.45 -57.75 93.15 -59.25 82.95 -61.2 72.75 -66.25 72.05 -72.25 74.55 L-74.45 75.9 M-49.8 62.2 Q-56.05 56.8 -64.35 57.55 L-61.2 72.75 Q-55.75 73.5 -51.4 78.05 M-52.0 94.55 L-57.75 93.15 Q-56.8 99.7 -56.0 106.3 -53.8 107.0 -51.7 107.85 M-12.95 70.8 L-6.85 71.2 -6.55 58.15 -9.25 57.9 M-7.25 84.35 L-7.65 96.35 -0.1 95.8 7.45 96.45 7.05 84.35 -0.1 84.05 -7.25 84.35 -6.85 71.2 -0.1 71.6 6.7 71.2 6.4 58.15 -0.1 58.65 -6.55 58.15 -6.3 43.9 M-16.6 84.75 L-7.25 84.35 M74.2 19.55 L73.95 20.5 74.85 20.65 M82.55 36.0 Q76.6 34.3 70.15 33.5 L67.25 44.65 Q73.8 45.15 79.9 48.3 M73.95 20.5 L70.15 33.5 Q57.8 31.95 43.55 33.65 M6.1 43.9 L6.4 58.15 9.05 57.9 M12.75 70.8 L6.7 71.2 7.05 84.35 16.4 84.75 M51.2 78.05 Q55.55 73.5 61.0 72.75 L64.15 57.55 Q55.85 56.8 49.6 62.2 M51.8 94.55 L57.55 93.15 Q59.05 82.95 61.0 72.75 66.05 72.0 72.05 74.55 L74.25 75.9 M75.55 83.2 L73.75 90.65 85.75 89.95 Q87.0 84.05 88.55 78.05 L83.8 77.8 M57.55 93.15 Q65.2 91.45 73.75 90.65 72.3 96.9 71.2 103.0 L83.45 102.15 Q84.4 96.1 85.75 89.95 154.35 88.25 274.8 134.55 M68.35 58.3 L64.15 57.55 67.25 44.65 Q57.8 43.9 47.3 48.65 M39.35 20.4 Q55.8 17.4 73.95 20.5 M67.45 5.65 L36.9 7.05 M88.9 76.6 L88.55 78.05 Q191.05 83.8 274.8 115.55 M-89.55 -146.7 L-90.1 -134.1 -76.15 -132.25 -77.5 -115.45 -61.0 -110.0 M-77.5 -115.45 L-78.85 -102.05 M-90.1 -134.1 L-91.0 -119.35 -77.5 -115.45 M-93.0 -260.0 Q-87.9 -209.15 -89.2 -156.7 -172.35 -160.25 -275.0 -191.95 M-84.0 77.8 L-88.7 78.05 -85.9 90.0 -73.95 90.7 Q-72.5 96.9 -71.4 103.0 -63.0 104.05 -56.0 106.3 L-54.6 119.6 -51.15 120.55 M-89.1 76.6 L-88.7 78.05 Q-191.25 83.8 -275.0 115.55 M-91.0 -119.35 Q-91.85 -107.15 -93.0 -94.9 M-275.0 -123.05 Q-183.0 -144.25 -91.0 -119.35 M-89.55 -146.7 Q-165.6 -149.95 -275.0 -169.6 M-90.1 -134.1 Q-181.25 -145.95 -275.0 -148.25 M-275.0 -98.45 Q-188.45 -117.6 -94.85 -93.15 M-101.55 -54.35 Q-192.55 -71.0 -275.0 -49.2 M-275.0 19.15 Q-197.5 0.95 -115.5 2.7 M-275.0 -72.8 Q-196.8 -91.65 -103.85 -72.8 M-111.7 24.15 Q-201.9 21.95 -275.0 41.2 M-108.1 40.1 Q-192.35 37.65 -275.0 59.65 M-275.0 -7.15 Q-197.8 -20.6 -109.5 -17.6 M-275.0 -28.05 Q-193.05 -43.95 -103.9 -37.15 M-103.25 54.25 Q-199.8 57.6 -275.0 77.7 M-80.55 131.95 L-67.6 134.1 Q-68.05 125.6 -69.2 116.75 L-81.75 115.5 Q-80.85 123.85 -80.55 131.95 -153.8 123.55 -275.0 187.1 M-69.2 116.75 Q-70.1 109.95 -71.4 103.0 L-83.6 102.1 Q-82.5 108.85 -81.75 115.5 -155.5 111.2 -275.0 170.45 M-88.85 194.75 Q-82.05 194.35 -75.15 194.4 -72.9 187.95 -71.3 181.1 L-84.85 180.2 Q-86.55 187.6 -88.85 194.75 -91.1 201.7 -93.95 208.45 L-80.55 207.55 Q-77.5 201.2 -75.15 194.4 L-61.0 194.85 Q-59.25 189.1 -58.0 182.8 L-71.3 181.1 Q-69.7 174.2 -68.7 166.85 L-82.05 164.65 Q-83.15 172.55 -84.85 180.2 -184.15 176.65 -275.0 262.5 M-68.7 166.85 Q-67.7 159.15 -67.4 151.0 -73.9 149.45 -80.65 148.5 -81.0 156.7 -82.05 164.65 -170.3 153.5 -275.0 236.5 M-80.55 131.95 Q-80.25 140.35 -80.65 148.5 -160.15 137.25 -275.0 210.4 M-105.8 231.3 Q-108.5 235.25 -110.7 239.55 -104.35 237.5 -98.05 236.1 -95.9 231.65 -93.2 228.15 L-88.95 222.25 -101.65 224.2 -105.8 231.3 M-78.95 233.15 L-82.9 233.55 -84.05 234.65 Q-90.85 242.05 -93.95 253.8 L-83.9 249.8 M-82.9 233.55 Q-90.4 234.4 -98.05 236.1 -102.4 245.15 -104.55 258.4 -99.45 256.05 -93.95 253.8 -97.9 268.5 -96.05 290.0 M-93.95 208.45 Q-97.4 216.5 -101.65 224.2 -163.95 235.95 -230.95 290.0 M-88.95 222.25 Q-84.25 215.2 -80.55 207.55 -73.1 207.3 -65.65 207.7 -63.0 201.65 -61.0 194.85 L-52.25 195.55 M-120.2 290.0 Q-120.7 276.85 -118.9 265.4 -140.35 276.75 -154.9 290.0 M-76.2 290.0 L-76.2 260.0 M-106.7 290.0 Q-106.8 272.0 -104.55 258.4 -112.1 261.8 -118.9 265.4 -116.6 251.1 -110.7 239.55 -151.85 252.45 -196.4 290.0 M-88.85 194.75 Q-188.1 200.25 -275.0 290.0 M-93.95 208.45 Q-172.9 216.5 -258.3 290.0 M-83.6 102.1 Q-146.85 100.6 -275.0 153.6 M93.8 208.45 L80.4 207.55 Q84.1 215.2 88.8 222.25 L101.45 224.2 Q97.2 216.5 93.8 208.45 90.9 201.7 88.7 194.75 81.85 194.4 75.0 194.4 77.35 201.2 80.4 207.55 72.9 207.3 65.45 207.7 68.6 214.85 72.6 221.05 L88.8 222.25 93.0 228.15 Q95.7 231.6 97.85 236.1 104.15 237.5 110.5 239.5 108.3 235.2 105.6 231.3 L101.45 224.2 Q163.75 235.95 230.75 290.0 M154.7 290.0 Q140.15 276.75 118.7 265.4 120.5 276.85 120.0 290.0 M97.85 236.1 Q102.25 245.15 104.4 258.4 111.9 261.8 118.7 265.4 116.4 251.1 110.5 239.5 151.7 252.45 196.2 290.0 M106.5 290.0 Q106.6 272.0 104.4 258.4 99.25 256.0 93.75 253.8 97.7 268.5 95.85 290.0 M71.2 103.0 Q69.9 110.0 69.05 116.75 L81.6 115.5 Q82.3 108.9 83.45 102.15 146.65 100.6 274.8 153.6 M50.95 120.55 L54.45 119.6 Q55.0 112.95 55.8 106.3 53.6 107.0 51.5 107.85 M69.05 116.75 Q67.85 125.6 67.4 134.1 73.7 132.7 80.4 131.95 80.65 123.85 81.6 115.5 155.3 111.2 274.8 170.45 M69.05 116.75 Q61.45 117.8 54.45 119.6 54.0 124.1 53.7 128.65 M57.55 93.15 Q56.6 99.7 55.8 106.3 62.8 104.05 71.2 103.0 M56.45 137.0 Q61.75 135.3 67.4 134.1 66.95 142.75 67.25 151.0 73.7 149.45 80.45 148.5 80.05 140.35 80.4 131.95 153.6 123.55 274.8 187.1 M7.85 106.7 L-0.1 106.2 -8.0 106.7 -8.4 116.15 -0.1 115.45 8.2 116.15 7.85 106.7 7.45 96.45 19.7 98.35 M7.85 106.7 Q15.05 107.5 22.25 109.7 M24.4 120.55 Q17.55 117.4 8.2 116.15 8.7 128.1 9.35 139.55 L20.2 139.55 M34.45 175.8 L35.55 184.7 36.9 184.7 M26.4 157.65 L10.4 157.65 11.4 172.1 33.15 172.1 M11.4 172.1 L12.35 184.7 35.55 184.7 36.9 196.0 38.65 195.55 M67.25 151.0 Q67.5 159.15 68.55 166.85 75.15 165.45 81.9 164.6 80.8 156.7 80.45 148.5 159.95 137.25 274.8 210.4 M55.4 167.05 L55.75 170.1 Q62.1 168.2 68.55 166.85 69.5 174.15 71.15 181.1 L84.7 180.2 Q82.95 172.55 81.9 164.6 170.15 153.5 274.8 236.5 M60.8 194.85 L75.0 194.4 Q72.75 187.95 71.15 181.1 L57.8 182.8 Q59.05 189.1 60.8 194.85 62.8 201.65 65.45 207.7 L58.95 208.1 M53.45 183.5 L57.8 182.8 Q56.55 176.7 55.75 170.1 L55.0 170.3 M56.95 153.9 Q62.0 152.25 67.25 151.0 M9.35 139.55 L-9.55 139.55 -10.6 157.65 10.4 157.65 9.35 139.55 M-7.65 96.35 L-8.0 106.7 Q-15.35 107.5 -22.45 109.7 M-19.9 98.35 Q-13.6 97.0 -7.65 96.35 M-20.4 139.55 L-9.55 139.55 -8.4 116.15 Q-17.75 117.4 -24.6 120.55 M-56.65 137.0 Q-61.95 135.3 -67.6 134.1 -67.15 142.75 -67.4 151.0 -62.2 152.25 -57.15 153.9 M-54.6 119.6 L-53.9 128.65 M-69.2 116.75 Q-61.65 117.8 -54.6 119.6 M-58.0 182.8 Q-56.75 176.7 -55.95 170.1 -62.3 168.2 -68.7 166.85 M-37.1 184.7 L-35.7 184.7 -34.65 175.8 M-55.6 167.05 L-55.95 170.1 -55.2 170.3 M-53.65 183.5 L-58.0 182.8 M11.4 172.1 L-11.55 172.1 -12.5 184.7 12.35 184.7 13.6 199.65 Q25.55 198.65 36.9 196.0 L37.75 203.3 M-33.35 172.1 L-11.55 172.1 -10.6 157.65 -26.6 157.65 M-35.7 184.7 L-12.5 184.7 -13.8 199.9 Q-6.95 200.4 -0.1 200.2 L13.6 199.65 Q14.6 210.6 15.75 220.95 29.15 219.25 37.05 213.95 M-0.1 237.9 L17.6 237.05 Q16.6 229.2 15.75 220.95 L-0.1 221.7 -15.9 220.95 -17.8 237.05 -0.1 237.9 M-13.8 199.9 L-15.9 220.95 Q-29.35 219.25 -37.25 213.95 M-37.95 203.3 L-37.05 196.05 -38.85 195.55 M-59.15 208.1 L-65.65 207.7 Q-68.8 214.85 -72.8 221.05 L-69.35 220.95 M-26.25 290.0 Q-24.25 280.25 -22.45 269.5 -39.4 265.6 -55.55 255.15 L-55.55 290.0 M-55.8 255.0 Q-55.65 255.1 -55.55 255.15 L-55.55 254.8 M-65.6 260.0 L-65.6 290.0 M-19.95 253.15 L-22.45 269.5 Q-11.45 272.05 -0.1 271.75 11.25 272.05 22.3 269.5 20.95 261.6 19.75 253.15 10.25 254.75 -0.1 254.6 -10.45 254.75 -19.95 253.15 -34.9 250.65 -47.8 243.95 M-13.8 199.9 Q-25.45 199.0 -37.05 196.05 L-35.7 184.7 M-19.95 253.15 L-17.8 237.05 Q-33.8 235.2 -44.05 229.5 M97.85 236.1 Q90.25 234.4 82.75 233.55 L83.85 234.65 Q90.6 242.05 93.75 253.8 L83.7 249.8 M78.75 233.15 L82.75 233.55 Q77.1 227.95 72.6 221.05 L69.15 220.95 M43.85 229.5 Q33.6 235.2 17.6 237.05 L19.75 253.15 Q34.7 250.65 47.6 243.95 M26.05 290.0 Q24.05 280.25 22.3 269.5 39.2 265.6 55.35 255.15 L55.35 254.8 M65.4 260.0 L65.4 290.0 M55.6 255.0 L55.35 255.15 55.35 290.0 M76.0 290.0 L76.0 260.0 M60.8 194.85 L52.05 195.55 M88.7 194.75 Q86.35 187.6 84.7 180.2 184.0 176.65 274.8 262.5 M-83.6 102.1 Q-84.6 96.1 -85.9 90.0 -154.55 88.3 -275.0 134.55 M-78.85 -260.0 Q-72.85 -210.25 -74.85 -156.3 M-100.65 67.4 Q-199.15 73.4 -275.0 97.95 M-82.9 233.55 Q-77.3 227.95 -72.8 221.05 L-88.95 222.25 M274.8 -98.45 Q188.25 -117.6 94.65 -93.15 M100.45 67.4 Q198.95 73.4 274.8 97.95 M103.05 54.25 Q199.6 57.6 274.8 77.7 M274.8 -28.05 Q192.85 -43.95 103.7 -37.15 M274.8 -7.15 Q197.6 -20.6 109.3 -17.6 M107.9 40.1 Q192.15 37.65 274.8 59.65 M111.5 24.15 Q201.7 21.95 274.8 41.2 M274.8 -72.8 Q196.6 -91.65 103.65 -72.8 M274.8 19.15 Q197.3 0.95 115.3 2.7 M101.35 -54.35 Q192.35 -71.0 274.8 -49.2 M93.8 208.45 Q172.7 216.5 258.1 290.0 M274.8 290.0 Q187.9 200.2 88.7 194.75" fill="none" stroke="#000000" stroke-linecap="round" stroke-linejoin="round" stroke-opacity="0.2509804" stroke-width="1.0"/>
    <path d="M-18.75 -147.85 L-15.6 -148.55 -15.6 -159.75 -18.05 -159.2 M-6.3 -167.05 L-6.3 -161.05 -0.1 -161.25 6.1 -161.05 6.1 -167.05 M-15.6 -162.05 L-15.6 -159.75 -6.3 -161.05 -6.3 -149.9 -0.1 -150.2 6.1 -149.9 6.1 -161.05 15.4 -159.75 15.4 -162.05 M-51.85 -106.65 L-50.2 -105.8 -50.05 -107.3 M-6.3 -149.9 L-6.3 -137.65 -0.1 -137.95 6.1 -137.65 6.1 -149.9 15.4 -148.55 15.4 -159.75 17.85 -159.2 M-17.6 -136.1 L-15.6 -136.5 -15.6 -148.55 Q-11.15 -149.5 -6.3 -149.9 M-20.2 -115.75 L-20.85 -111.2 Q-16.0 -107.75 -9.2 -106.4 L-6.3 -105.9 -6.3 -126.25 -14.6 -124.7 M-6.3 -105.9 L-0.1 -105.45 6.1 -105.9 6.1 -126.25 -0.1 -126.55 -6.3 -126.25 -6.3 -137.65 -15.6 -136.5 -15.6 -125.7 M-19.4 -123.45 Q-15.3 -121.9 -10.9 -121.05 M18.55 -147.85 L15.4 -148.55 15.4 -136.5 17.4 -136.1 M6.1 -137.65 L15.4 -136.5 15.4 -125.7 M6.1 -137.65 L6.1 -126.25 Q10.2 -125.85 14.4 -124.7 M10.7 -121.05 Q15.1 -121.9 19.25 -123.45 M6.1 -105.9 L9.0 -106.4 Q15.8 -107.75 20.65 -111.2 L20.0 -115.75 M49.85 -107.3 L50.05 -105.8 51.65 -106.65 M50.6 -100.55 L50.05 -105.8 Q44.0 -102.8 37.25 -100.55 L37.3 -99.85 Q38.25 -91.2 38.6 -81.8 L51.8 -83.65 Q51.4 -92.35 50.6 -100.55 M51.8 -83.65 Q52.2 -75.5 52.25 -66.85 L66.55 -68.1 67.15 -68.15 67.05 -68.95 Q67.0 -77.7 65.6 -86.1 L51.8 -83.65 M52.15 -54.1 L52.25 -66.85 38.75 -66.0 38.4 -55.45 38.4 -55.4 37.35 -49.35 54.85 -47.55 M81.75 -58.9 Q82.05 -55.05 82.6 -51.1 87.75 -52.3 93.2 -53.1 L93.05 -55.35 93.05 -55.4 Q94.4 -63.55 94.65 -71.45 L82.05 -69.8 81.75 -58.95 81.75 -58.9 M67.15 -68.15 L67.8 -68.25 82.05 -69.8 Q82.0 -79.8 80.8 -89.45 L65.6 -86.1 Q64.2 -94.55 61.45 -102.6 M37.25 -100.55 L34.5 -99.7 Q28.85 -98.0 22.7 -96.85 23.45 -88.8 23.4 -80.25 L38.6 -81.8 Q38.9 -74.15 38.75 -66.0 L22.8 -65.3 22.15 -58.55 21.55 -50.45 37.35 -49.35 35.2 -35.4 35.25 -35.4 53.35 -33.4 M6.1 -79.2 L6.1 -65.05 22.8 -65.3 Q23.35 -73.0 23.4 -80.25 L6.1 -79.2 6.1 -94.7 1.7 -94.45 -0.1 -94.4 -1.9 -94.45 -6.3 -94.7 -6.3 -79.2 -0.1 -79.0 6.1 -79.2 M6.1 -100.45 L6.1 -94.7 Q14.8 -95.35 22.7 -96.85 L22.5 -98.65 Q21.85 -105.1 20.65 -111.2 M6.1 -51.15 L6.1 -37.0 20.6 -36.5 20.9 -41.15 Q21.15 -45.8 21.55 -50.45 L6.1 -51.15 -0.1 -51.35 -6.3 -51.15 -6.3 -37.0 -0.1 -37.0 6.1 -37.0 6.1 -21.85 19.9 -21.95 20.6 -36.5 35.2 -35.4 33.55 -22.3 42.55 -22.7 M6.1 -21.85 L-0.1 -21.9 -6.3 -21.85 -6.3 -5.55 -0.1 -5.7 6.1 -5.55 6.1 -21.85 M6.1 -5.55 L6.1 9.4 19.1 8.9 Q19.15 1.55 19.35 -5.7 12.8 -5.45 6.1 -5.55 M19.35 -5.7 L22.0 -5.85 32.05 -6.55 Q32.65 -14.45 33.55 -22.3 L25.6 -22.1 19.9 -21.95 Q19.55 -13.9 19.35 -5.7 M37.15 -7.1 L36.9 -7.05 32.05 -6.55 Q31.45 0.6 31.1 7.8 L36.9 7.05 M74.6 -31.45 Q80.1 -33.6 86.05 -34.95 83.75 -43.05 82.6 -51.1 76.3 -49.7 70.5 -47.8 72.2 -39.6 74.6 -31.45 77.05 -22.95 80.25 -14.45 86.55 -15.75 92.95 -16.45 88.75 -25.7 86.05 -34.95 L96.05 -36.6 Q93.85 -44.85 93.2 -53.1 L101.35 -54.15 M80.25 -14.45 L83.05 -7.2 Q83.9 -1.4 84.15 4.65 L96.7 3.85 Q97.1 -7.65 93.4 -15.55 L93.35 -15.6 92.95 -16.45 94.6 -16.65 103.55 -17.3 101.3 -21.75 Q98.05 -29.2 96.05 -36.6 L103.7 -37.15 M57.25 -42.55 Q63.55 -45.55 70.5 -47.8 68.3 -57.95 67.15 -68.15 M74.6 -31.45 Q70.2 -29.75 66.15 -27.5 M77.0 -13.75 L80.25 -14.45 M6.1 -51.15 L6.1 -65.05 -0.1 -65.05 -6.3 -65.05 -6.3 -51.15 -21.7 -50.45 -21.1 -41.15 -20.8 -36.5 -6.3 -37.0 -6.3 -21.85 -20.1 -21.95 -19.55 -5.75 Q-13.0 -5.5 -6.3 -5.55 L-6.3 9.4 -0.1 9.35 6.1 9.4 6.1 25.95 19.1 24.75 19.1 8.9 31.1 7.8 Q30.8 13.65 30.65 19.5 L31.35 22.5 39.0 20.5 39.35 20.4 M-20.85 -111.2 Q-22.05 -105.1 -22.7 -98.65 L-22.85 -96.85 Q-15.0 -95.35 -6.3 -94.7 L-6.3 -100.45 M-34.7 -99.7 L-37.4 -100.55 -37.5 -99.85 Q-38.45 -91.2 -38.8 -81.8 L-23.6 -80.25 Q-23.6 -88.8 -22.85 -96.85 -29.05 -98.0 -34.7 -99.7 M-22.95 -65.35 L-38.95 -66.0 -38.6 -55.45 -38.6 -55.4 -37.55 -49.35 -21.7 -50.45 -22.35 -58.55 -22.95 -65.35 Q-23.55 -73.0 -23.6 -80.25 L-6.3 -79.2 -6.3 -65.05 -22.95 -65.35 M-37.4 -100.55 Q-44.15 -102.75 -50.2 -105.8 L-50.75 -100.55 Q-51.6 -92.35 -52.0 -83.65 L-38.8 -81.8 Q-39.1 -74.15 -38.95 -66.0 L-52.45 -66.9 -52.35 -54.1 M-52.45 -66.9 L-66.75 -68.1 -67.35 -68.15 Q-68.55 -57.95 -70.65 -47.8 -63.75 -45.55 -57.45 -42.55 M-67.35 -68.15 L-67.25 -68.95 Q-67.2 -77.7 -65.8 -86.1 -73.45 -87.6 -80.95 -89.45 -82.2 -79.8 -82.25 -69.8 L-68.0 -68.25 -67.35 -68.15 M-52.45 -66.9 Q-52.4 -75.5 -52.0 -83.65 L-65.8 -86.1 Q-64.4 -94.55 -61.65 -102.6 M-55.05 -47.55 L-37.55 -49.35 -35.4 -35.4 -20.8 -36.5 -20.1 -21.95 -25.8 -22.1 -33.75 -22.3 -32.2 -6.55 -22.2 -5.85 -19.55 -5.75 Q-19.35 1.55 -19.3 8.9 L-6.3 9.4 -6.3 25.95 -0.1 26.15 6.1 25.95 6.1 43.9 M-70.65 -47.8 Q-76.5 -49.75 -82.75 -51.15 -83.9 -43.05 -86.25 -34.95 -80.3 -33.65 -74.75 -31.45 -72.4 -39.6 -70.65 -47.8 M-37.35 -7.1 L-37.1 -7.05 -32.2 -6.55 -31.3 7.8 -19.3 8.9 Q-19.2 16.8 -19.25 24.75 L-6.3 25.95 -6.3 43.9 M-66.35 -27.5 Q-70.45 -29.75 -74.75 -31.45 -77.25 -22.95 -80.4 -14.45 L-77.2 -13.75 M-42.75 -22.7 L-33.75 -22.3 -35.4 -35.4 -35.45 -35.4 -53.55 -33.4 M-31.3 7.8 Q-31.0 13.65 -30.85 19.5 L-31.55 22.5 -19.25 24.75 -19.35 31.4 -20.9 40.35 -8.95 41.85 M-31.55 22.5 L-34.65 36.95 Q-27.75 39.1 -20.9 40.35 L-23.55 55.15 -9.25 57.9 M-67.65 5.65 L-74.5 5.25 Q-74.85 12.3 -74.4 19.55 M-39.55 20.4 L-39.2 20.5 -31.55 22.5 M-47.5 48.65 L-37.45 51.7 -34.65 36.95 Q-39.2 35.5 -43.75 33.65 M-39.85 65.95 Q-33.1 68.1 -26.05 69.3 L-23.55 55.15 -37.45 51.7 -39.85 65.95 Q-44.9 64.3 -49.8 62.2 M-73.1 57.65 L-80.3 48.45 Q-84.65 51.4 -88.85 52.95 L-84.8 66.0 Q-78.2 64.55 -73.1 61.6 L-68.55 58.3 M-51.4 78.05 Q-47.5 80.4 -42.15 81.95 L-39.85 65.95 M-12.95 70.8 L-26.05 69.3 -28.7 84.3 -16.6 84.75 M-42.15 81.95 L-43.9 96.8 Q-37.75 98.1 -31.2 98.45 L-28.7 84.3 Q-36.3 83.6 -42.15 81.95 M-31.3 7.8 L-37.1 7.05 M74.2 19.5 Q74.65 12.25 74.35 5.25 L67.45 5.65 M82.55 36.0 Q87.05 37.9 91.35 39.0 L93.95 23.75 83.7 22.45 82.5 32.15 M74.85 20.65 L83.7 22.45 Q84.55 13.3 84.15 4.65 L74.35 5.25 Q74.05 -1.6 73.05 -8.2 M8.75 41.85 L20.75 40.35 19.15 31.4 19.1 24.75 Q25.35 23.9 31.35 22.5 L34.45 36.9 43.55 33.65 M20.75 40.35 L23.35 55.2 37.3 51.75 34.45 36.9 Q27.55 39.1 20.75 40.35 M23.35 55.2 L25.85 69.35 Q32.9 68.1 39.65 65.95 L37.3 51.75 Q42.45 50.3 47.3 48.65 M23.35 55.2 L9.05 57.9 M25.85 69.35 L28.5 84.3 Q36.1 83.6 41.95 81.95 L39.65 65.95 Q44.7 64.3 49.6 62.2 M16.4 84.75 L28.5 84.3 31.0 98.45 Q37.55 98.1 43.75 96.8 L41.95 81.95 Q47.3 80.4 51.2 78.05 M25.85 69.35 L12.75 70.8 M74.25 75.9 Q76.4 77.45 79.2 77.85 L82.4 73.05 84.6 66.0 Q78.0 64.55 72.9 61.6 L68.35 58.3 M72.9 57.65 L80.1 48.5 Q84.45 51.4 88.65 53.0 L89.4 50.55 91.35 39.0 Q96.3 40.2 101.1 40.4 L104.45 24.25 93.95 23.75 96.1 10.95 Q96.6 7.25 96.7 3.85 L107.65 3.2 Q107.6 -8.05 103.55 -17.3 L109.3 -17.4 M85.8 75.55 L83.8 77.8 81.8 80.05 M83.8 77.8 Q81.3 78.15 79.2 77.85 L75.6 83.2 M-73.25 -8.2 Q-74.2 -1.55 -74.5 5.25 L-84.35 4.65 Q-84.75 13.3 -83.9 22.4 L-75.05 20.65 M78.65 -102.05 Q79.95 -95.85 80.8 -89.45 L93.25 -92.75 92.85 -94.9 M94.65 -93.15 L93.25 -92.75 Q95.0 -82.4 94.65 -71.45 L103.65 -72.8 M115.3 2.7 L107.65 3.2 Q107.65 7.05 107.15 11.2 L104.45 24.25 111.5 24.15 M107.9 40.1 L101.1 40.4 98.7 51.9 97.65 54.8 103.05 54.25 M97.65 54.8 L93.15 67.2 99.6 67.4 100.45 67.4 M97.65 54.8 Q93.25 54.75 88.65 53.0 L84.6 66.0 93.15 67.2 91.4 71.9 88.9 76.6 M35.6 -111.95 L37.25 -100.55 M6.1 -105.9 L6.1 -100.75 M-6.3 -100.75 L-6.3 -105.9 M-35.8 -111.95 L-37.4 -100.55 M-103.85 -72.8 L-94.85 -71.45 Q-95.2 -82.4 -93.4 -92.75 L-94.85 -93.15 M-93.0 -94.9 L-93.4 -92.75 -80.95 -89.45 Q-80.15 -95.85 -78.85 -102.05 M-93.4 -53.15 L-82.75 -51.15 -81.95 -58.9 -81.95 -58.95 -82.25 -69.8 -94.85 -71.45 Q-94.6 -63.6 -93.25 -55.4 L-93.25 -55.35 -93.4 -53.15 -101.55 -54.15 M-96.25 -36.6 Q-98.25 -29.2 -101.5 -21.75 L-103.7 -17.35 -94.8 -16.65 -93.15 -16.45 Q-88.95 -25.75 -86.25 -34.95 L-96.25 -36.6 -103.9 -37.15 M-115.5 2.7 L-107.8 3.2 Q-107.8 -8.1 -103.7 -17.35 L-109.5 -17.6 M-93.15 -16.45 L-93.55 -15.6 -93.55 -15.55 Q-97.3 -7.65 -96.9 3.85 L-84.35 4.65 Q-84.1 -1.4 -83.25 -7.2 -81.75 -10.8 -80.4 -14.45 L-93.15 -16.45 M-96.25 -36.6 Q-94.05 -44.9 -93.4 -53.15 M-96.9 3.85 L-107.8 3.2 Q-107.85 7.05 -107.35 11.2 L-104.65 24.25 -94.15 23.7 -96.3 10.95 -96.9 3.85 M-108.1 40.1 L-101.3 40.4 -104.65 24.25 -111.7 24.15 M-82.7 32.15 Q-83.5 27.2 -83.9 22.4 L-94.15 23.7 -91.55 39.0 Q-87.2 37.9 -82.75 36.0 M-101.3 40.4 Q-96.5 40.2 -91.55 39.0 L-89.6 50.55 -88.85 52.95 Q-93.45 54.7 -97.85 54.8 L-93.3 67.2 -84.8 66.0 -82.6 73.05 -79.35 77.85 Q-76.6 77.45 -74.45 75.9 M-103.25 54.25 L-97.85 54.8 -98.9 51.9 -101.3 40.4 M-100.65 67.4 L-99.8 67.4 -93.3 67.2 -91.6 71.9 -89.1 76.6 M-75.75 83.2 L-79.35 77.85 Q-81.5 78.15 -84.0 77.8 L-82.0 80.05 M-84.0 77.8 L-86.0 75.55 M-65.6 260.0 Q-67.2 254.55 -66.5 249.55 -71.8 247.95 -77.05 248.35 -77.65 253.75 -76.2 260.0 M-83.9 249.8 Q-80.45 248.65 -77.05 248.35 -76.35 242.0 -72.8 236.8 L-70.7 233.75 -78.95 233.15 M53.75 128.65 L54.15 138.2 56.45 137.0 M50.95 120.55 L46.1 123.45 46.6 131.7 46.9 140.65 Q50.75 139.75 54.15 138.2 L54.9 154.85 Q55.95 154.4 56.95 153.9 M31.0 98.45 L33.25 111.4 Q40.0 111.85 45.1 110.55 L43.75 96.8 51.8 94.55 M24.45 120.35 L24.5 120.6 Q29.35 123.6 33.85 124.6 L35.65 124.95 33.25 111.4 Q28.2 111.05 22.25 109.7 M28.2 141.1 L31.3 158.3 Q35.45 158.7 39.4 158.45 L37.9 141.7 28.2 141.1 20.2 139.55 M46.1 123.45 Q41.1 125.65 35.65 124.95 L37.1 133.1 37.9 141.7 46.9 140.65 47.45 157.3 Q51.25 156.4 54.9 154.85 L55.45 167.05 M19.7 98.35 Q25.5 98.75 31.0 98.45 M28.2 141.1 L24.5 120.6 M33.15 172.1 L33.85 172.2 31.3 158.3 26.4 157.65 M36.9 184.7 L41.8 185.1 40.7 172.85 33.85 172.2 34.5 175.8 M40.7 172.85 L47.95 172.35 47.45 157.3 39.4 158.45 40.7 172.85 M55.0 170.3 Q51.65 171.7 47.95 172.35 L48.35 184.8 Q51.15 184.4 53.45 183.5 M41.8 185.1 L42.85 196.5 49.0 196.35 48.7 195.1 48.35 184.8 41.8 185.1 M45.1 110.55 Q48.7 109.65 51.5 107.85 M46.1 123.45 L45.1 110.55 M-19.9 98.35 Q-25.7 98.75 -31.2 98.45 L-33.45 111.4 Q-28.4 111.05 -22.45 109.7 M-33.45 111.4 L-35.85 124.9 -34.05 124.6 Q-29.5 123.6 -24.7 120.6 L-28.4 141.1 -20.4 139.55 M-51.7 107.85 Q-48.9 109.65 -45.25 110.55 L-43.9 96.8 -52.0 94.55 M-53.9 128.65 L-54.35 138.15 Q-50.95 139.75 -47.1 140.6 L-46.8 131.7 -46.25 123.45 Q-48.8 122.35 -51.15 120.55 M-47.1 140.6 L-38.05 141.7 -37.3 133.1 -35.85 124.9 Q-41.25 125.6 -46.25 123.45 L-45.25 110.55 Q-40.2 111.85 -33.45 111.4 M-56.65 137.0 L-54.35 138.15 -55.05 154.85 Q-51.45 156.35 -47.65 157.3 L-47.1 140.6 M-55.05 154.85 L-55.6 167.05 M-47.65 157.3 L-48.15 172.35 -40.85 172.85 -39.55 158.45 -47.65 157.3 M-34.65 175.8 L-34.0 172.2 -40.85 172.85 -41.95 185.1 -37.1 184.7 M-52.6 195.5 L-52.3 195.6 -49.15 196.35 -48.9 195.1 -48.55 184.8 Q-51.35 184.4 -53.65 183.5 M-55.2 170.3 Q-51.85 171.7 -48.15 172.35 L-48.55 184.8 -41.95 185.1 -43.0 196.5 -38.85 195.55 M-55.05 154.85 L-57.15 153.9 M-26.6 157.65 L-31.5 158.3 -34.0 172.2 -33.35 172.1 M-38.05 141.7 L-28.4 141.1 -31.5 158.3 Q-35.65 158.65 -39.55 158.45 L-38.05 141.7 M-43.0 196.5 L-44.2 205.4 -46.5 209.65 Q-43.5 210.5 -40.75 211.9 L-39.05 207.65 -37.95 203.3 M-43.0 196.5 L-49.15 196.35 -51.15 205.0 -53.4 208.3 Q-49.8 208.7 -46.5 209.65 L-53.85 223.2 Q-50.15 224.65 -46.9 227.05 L-40.75 211.9 Q-38.95 212.8 -37.25 213.95 M-70.7 233.75 L-62.1 221.15 -69.35 220.95 M-66.5 249.55 Q-66.0 245.5 -64.0 241.75 L-61.05 236.4 Q-65.75 234.55 -70.7 233.75 M-44.05 229.5 Q-45.45 228.2 -46.9 227.05 L-52.45 240.7 -47.8 243.95 M-62.1 221.15 L-53.4 208.3 -59.15 208.1 M-61.05 236.4 L-53.85 223.2 Q-57.7 221.65 -62.1 221.15 M-61.05 236.4 Q-56.65 238.1 -52.45 240.7 L-54.2 244.95 Q-56.15 249.85 -55.55 254.8 M-66.5 249.55 Q-61.15 251.2 -55.8 255.0 M49.0 196.35 L52.1 195.6 52.4 195.5 M42.85 196.5 L44.0 205.4 46.3 209.65 Q49.6 208.65 53.2 208.3 L50.95 205.0 49.0 196.35 M58.95 208.1 L53.2 208.3 61.95 221.15 69.15 220.95 M47.6 243.95 Q49.9 242.2 52.3 240.7 L46.75 227.05 43.85 229.5 M63.8 241.75 Q65.8 245.5 66.35 249.55 71.6 247.9 76.85 248.35 76.15 242.0 72.6 236.8 L70.55 233.75 Q65.55 234.55 60.9 236.4 L63.8 241.75 M52.3 240.7 Q56.45 238.1 60.9 236.4 L53.7 223.2 Q49.95 224.65 46.75 227.05 L40.6 211.9 Q38.75 212.8 37.05 213.95 M46.3 209.65 L53.7 223.2 Q57.55 221.65 61.95 221.15 L70.55 233.75 78.75 233.15 M42.85 196.5 L38.65 195.55 M40.6 211.9 L38.85 207.65 37.75 203.3 M83.7 249.8 Q80.25 248.65 76.85 248.35 77.45 253.75 76.0 260.0 M55.35 254.8 Q55.95 249.85 54.0 244.95 L52.3 240.7 M65.4 260.0 Q67.0 254.55 66.35 249.55 60.95 251.2 55.6 255.0 M46.3 209.65 Q43.3 210.5 40.6 211.9" fill="none" stroke="#000000" stroke-linecap="round" stroke-linejoin="round" stroke-opacity="0.2509804" stroke-width="1.0"/>
  </g>
</svg>
