<?xml version="1.0" encoding="UTF-8" standalone="no"?>
<svg xmlns:xlink="http://www.w3.org/1999/xlink" height="39.3px" width="110.65px" xmlns="http://www.w3.org/2000/svg">
  <g transform="matrix(1.0, 0.0, 0.0, 1.0, -344.55, -235.3)">
    <path d="M432.5 272.8 L431.55 274.6 431.15 272.8 429.7 265.55 Q436.75 252.55 445.1 248.6 448.65 246.9 452.4 246.85 453.85 250.05 455.05 254.1 L455.2 254.65 450.1 261.5 449.7 256.0 Q447.95 256.7 446.3 257.65 438.55 262.2 432.5 272.8 M430.65 236.7 Q436.05 234.7 440.45 235.6 445.95 236.7 449.85 242.35 447.0 242.2 444.3 243.25 436.1 246.35 428.7 259.85 425.45 238.95 430.65 236.7 M359.3 235.6 Q363.7 234.7 369.1 236.7 373.7 238.7 371.7 255.2 L371.05 259.85 369.55 257.2 Q362.8 246.05 355.45 243.25 352.75 242.2 349.9 242.35 353.8 236.7 359.3 235.6 M350.05 256.0 L349.65 261.5 344.55 254.65 344.7 254.1 Q345.9 250.05 347.35 246.85 351.1 246.9 354.65 248.6 360.85 251.55 366.35 259.45 L370.05 265.55 368.6 272.8 368.2 274.6 367.25 272.8 Q363.65 266.45 359.45 262.3 356.55 259.5 353.45 257.65 351.8 256.7 350.05 256.0" fill="#000000" fill-rule="evenodd" stroke="none"/>
  </g>
</svg>
