<?xml version="1.0" encoding="UTF-8" standalone="no"?>
<svg xmlns:xlink="http://www.w3.org/1999/xlink" height="38.45px" width="123.8px" xmlns="http://www.w3.org/2000/svg">
  <g transform="matrix(1.0, 0.0, 0.0, 1.0, -338.0, -231.8)">
    <path d="M454.0 242.4 Q456.8 241.1 460.15 240.15 L461.3 232.3 449.1 232.55 427.2 233.0 Q424.95 240.8 418.85 247.0 L422.85 257.25 430.35 256.05 M454.0 242.4 Q458.55 250.45 457.25 260.2 L455.6 260.1 456.75 268.6 452.35 269.75 Q448.35 264.0 440.0 267.9 436.8 262.0 430.35 256.05 M381.0 247.0 L377.0 257.25 369.45 256.05 Q363.0 262.0 359.8 267.9 351.5 264.0 347.45 269.75 L343.1 268.6 344.25 260.1 342.55 260.2 Q341.3 250.45 345.85 242.4 343.05 241.1 339.7 240.15 L338.5 232.3 350.75 232.55 372.65 233.0 Q374.85 240.8 381.0 247.0" fill="none" stroke="#000000" stroke-linecap="round" stroke-linejoin="round" stroke-width="1.0"/>
    <path d="M449.1 232.55 L444.85 240.65 418.85 247.0 M430.35 256.05 L433.8 255.5 441.8 254.2 Q445.4 246.45 454.0 242.4 M455.6 260.1 Q448.1 259.95 439.8 262.7 437.7 258.55 433.8 255.5 M381.0 247.0 L355.0 240.65 350.75 232.55 M369.45 256.05 L366.05 255.5 Q362.1 258.55 360.05 262.7 351.75 259.95 344.25 260.1 M366.05 255.5 L358.05 254.2 Q354.45 246.45 345.85 242.4" fill="none" stroke="#000000" stroke-linecap="round" stroke-linejoin="round" stroke-opacity="0.5019608" stroke-width="1.0"/>
  </g>
</svg>
