<?xml version="1.0" encoding="UTF-8" standalone="no"?>
<svg xmlns:xlink="http://www.w3.org/1999/xlink" height="38.45px" width="140.9px" xmlns="http://www.w3.org/2000/svg">
  <g transform="matrix(1.0, 0.0, 0.0, 1.0, -329.4, -230.45)">
    <path d="M455.95 238.25 L459.2 241.2 Q467.45 249.35 469.3 259.4 L469.8 263.95 Q462.05 266.85 451.9 268.4 449.75 266.65 448.95 264.7 L447.5 264.85 Q445.9 264.85 444.55 264.25 L432.25 264.25 422.75 254.45 Q426.5 250.9 428.35 247.1 430.2 243.2 430.5 239.45 L430.45 237.0 427.15 235.8 426.0 235.4 Q427.35 232.6 429.45 230.95 L431.6 231.3 Q444.15 233.25 451.7 240.55 453.65 238.25 455.95 238.25 M372.55 235.8 L373.7 235.4 Q372.35 232.6 370.25 230.95 L368.1 231.3 M355.15 264.25 L367.45 264.25 376.95 254.45 374.45 251.8 Q372.5 249.5 371.35 247.1 369.5 243.2 369.2 239.45 369.15 238.15 369.25 237.0 M372.55 235.8 L369.25 237.0 M355.15 264.25 L352.2 264.85 350.75 264.7 Q349.95 266.65 347.8 268.4 337.65 266.85 329.9 263.95 330.0 261.65 330.4 259.4 332.25 249.35 340.5 241.2 L343.75 238.25 Q346.05 238.25 348.0 240.55 355.55 233.25 368.1 231.3" fill="none" stroke="#000000" stroke-linecap="round" stroke-linejoin="round" stroke-width="1.0"/>
    <path d="M455.95 238.25 L453.95 242.9 Q452.05 246.5 449.35 250.05 451.25 250.5 452.65 252.05 L452.75 252.15 Q457.4 246.5 459.2 241.2 M451.7 240.55 L453.95 242.9 M430.45 237.0 Q430.25 235.0 429.5 233.3 428.5 233.65 427.15 235.8 M431.6 231.3 Q433.2 235.35 433.15 240.75 432.95 244.2 431.35 247.7 429.65 251.15 426.35 254.65 L434.15 262.3 442.05 262.3 Q440.2 260.2 440.2 257.3 440.2 254.25 442.35 252.05 444.5 249.8 447.5 249.8 L449.35 250.05 M443.7 256.65 Q443.7 254.9 444.95 253.7 446.2 252.45 448.0 252.45 449.8 252.45 451.1 253.7 452.35 254.9 452.35 256.65 452.35 258.35 451.1 259.6 450.1 260.5 448.85 260.75 L448.0 260.8 Q446.2 260.8 444.95 259.6 443.7 258.35 443.7 256.65 M442.05 262.3 L442.35 262.65 444.55 264.25 M448.95 264.7 Q450.9 264.35 452.35 262.9 L452.65 262.65 Q454.75 260.45 454.75 257.3 454.75 254.3 452.75 252.15 M469.3 259.4 Q462.2 263.15 453.95 265.05 452.8 264.55 452.35 262.9 M368.1 231.3 Q366.5 235.35 366.55 240.75 366.75 244.2 368.35 247.7 369.9 250.8 372.75 254.0 L373.35 254.65 365.55 262.3 357.65 262.3 357.35 262.65 357.15 262.85 355.15 264.25 M369.25 237.0 Q369.45 235.0 370.2 233.3 371.2 233.65 372.55 235.8 M348.0 240.55 L345.75 242.9 Q347.65 246.5 350.35 250.05 L352.2 249.8 Q355.2 249.8 357.35 252.05 359.5 254.25 359.5 257.3 359.5 260.2 357.65 262.3 M343.75 238.25 L345.75 242.9 M356.0 256.65 Q356.0 254.9 354.75 253.7 353.5 252.45 351.7 252.45 349.9 252.45 348.6 253.7 347.35 254.9 347.35 256.65 347.35 258.35 348.6 259.6 349.6 260.5 350.85 260.75 L351.7 260.8 Q353.5 260.8 354.75 259.6 356.0 258.35 356.0 256.65 M350.35 250.05 Q348.45 250.5 347.05 252.05 L346.95 252.15 Q344.95 254.3 344.95 257.3 344.95 260.45 347.05 262.65 L347.35 262.9 348.4 263.75 Q349.45 264.45 350.75 264.7 M347.35 262.9 Q346.9 264.55 345.75 265.05 337.5 263.15 330.4 259.4 M346.95 252.15 Q342.3 246.5 340.5 241.2" fill="none" stroke="#000000" stroke-linecap="round" stroke-linejoin="round" stroke-opacity="0.49803922" stroke-width="1.0"/>
  </g>
</svg>
