<?xml version="1.0" encoding="UTF-8" standalone="no"?>
<svg xmlns:xlink="http://www.w3.org/1999/xlink" height="228.75px" width="600.75px" xmlns="http://www.w3.org/2000/svg">
  <g transform="matrix(1.0, 0.0, 0.0, 1.0, -30.5, -313.4)">
    <path d="M30.6 313.6 L30.5 313.4 30.65 313.5 91.35 324.3 Q93.45 329.4 109.45 337.4 L130.4 345.1 Q128.7 346.9 127.95 349.0 127.1 351.1 127.35 353.55 L106.4 345.9 Q89.0 341.8 84.05 344.4 L84.0 344.4 84.0 344.3 30.6 313.6 M523.4 484.25 Q526.7 490.7 533.85 487.35 L533.9 487.35 Q557.55 501.8 596.85 516.75 596.3 515.25 596.05 513.9 595.25 510.8 595.95 508.3 603.8 518.0 631.25 532.2 601.15 525.3 588.85 527.75 590.0 525.35 592.55 523.4 593.65 522.5 595.05 521.8 555.35 507.9 527.9 503.9 L527.85 503.8 Q524.55 496.6 517.85 499.4 514.5 501.15 513.75 505.4 513.0 510.65 518.15 513.9 L577.1 542.15 Q555.55 534.95 539.85 538.9 541.75 536.1 543.75 534.6 545.0 533.6 546.2 533.25 526.85 521.55 505.1 521.9 L505.05 521.9 505.1 521.85 Q505.8 510.4 501.05 502.7 L511.55 493.4 471.45 478.8 Q471.2 476.25 471.95 474.15 472.7 472.0 474.5 470.3 L514.65 484.95 512.6 471.05 Q521.15 468.15 528.0 458.85 544.5 473.15 566.85 476.6 566.1 475.5 565.8 474.0 565.2 471.65 565.5 468.2 575.05 481.25 596.15 489.65 L532.85 473.45 Q526.85 472.6 524.05 477.1 521.95 480.8 523.4 484.25" fill="#ffffff" fill-rule="evenodd" stroke="none"/>
  </g>
</svg>
