<?xml version="1.0" encoding="UTF-8" standalone="no"?>
<svg xmlns:xlink="http://www.w3.org/1999/xlink" height="121.5px" width="303.85px" xmlns="http://www.w3.org/2000/svg">
  <g transform="matrix(1.0, 0.0, 0.0, 1.0, -130.3, -304.8)">
    <path d="M210.0 362.0 Q182.6 349.2 171.95 331.1 169.25 326.7 166.25 322.6 158.1 311.5 148.35 307.6 L145.8 306.6 139.75 305.3 Q133.2 305.4 130.8 311.4 154.65 305.8 162.95 331.05 171.35 356.15 197.3 371.15 L199.55 372.3 199.75 373.1 Q230.9 389.75 234.0 397.65 L233.35 398.25 237.35 402.75 242.25 397.65 Q248.6 394.85 256.05 399.2 261.65 402.15 267.95 404.5 274.35 406.7 280.65 408.2 289.1 409.55 292.2 415.85 L292.55 422.8 298.45 422.0 298.45 421.1 M210.0 362.0 L210.95 362.0 249.75 380.85 250.65 379.8 255.3 383.75 254.9 384.3 Q255.45 388.1 262.45 389.7 267.5 390.7 272.3 392.5 277.2 394.3 281.85 396.75 288.2 400.05 291.2 397.4 L291.2 396.8 297.25 396.75 297.3 398.15 339.05 408.7 339.8 409.3 Q368.95 417.1 388.75 410.0 L398.55 407.15 Q411.95 403.9 422.05 407.15 L148.35 307.6 M341.15 423.9 L343.75 424.4 Q373.2 429.6 395.7 415.8 414.9 403.8 428.4 416.25 430.85 418.4 433.05 421.4 435.05 415.4 430.2 411.2 L430.1 411.05 Q427.45 409.3 424.5 408.05 L422.05 407.15 M341.15 423.9 L340.45 424.3 Q306.05 417.1 298.45 421.1" fill="none" stroke="#000000" stroke-linecap="round" stroke-linejoin="round" stroke-width="1.0"/>
    <path d="M199.55 372.3 Q203.25 365.85 210.0 362.0 M234.0 397.65 L249.75 380.85 M298.45 421.1 L297.3 398.15 M292.2 415.85 L291.2 397.4 M242.25 397.65 L254.9 384.3 M339.8 409.3 Q342.5 416.55 341.15 423.9" fill="none" stroke="#000000" stroke-linecap="round" stroke-linejoin="round" stroke-opacity="0.5019608" stroke-width="1.0"/>
  </g>
</svg>
