<?xml version="1.0" encoding="UTF-8" standalone="no"?>
<svg xmlns:xlink="http://www.w3.org/1999/xlink" height="178.5px" width="164.5px" xmlns="http://www.w3.org/2000/svg">
  <g transform="matrix(1.0, 0.0, 0.0, 1.0, -170.15, -311.2)">
    <path d="M217.4 311.2 L220.0 311.5 Q221.5 312.05 222.2 313.6 L229.05 332.6 Q233.65 344.95 239.4 344.45 L265.4 344.45 Q271.15 344.95 275.75 332.6 L282.6 313.6 Q283.3 312.05 284.8 311.5 L287.4 311.2 Q289.25 311.7 290.15 314.05 294.1 325.8 295.1 338.4 L292.6 339.2 291.9 337.6 Q290.65 335.6 288.9 335.55 287.2 335.6 285.95 337.7 284.75 339.8 284.75 342.85 284.8 345.85 286.0 348.0 287.25 350.1 288.95 350.1 290.7 350.1 291.9 347.9 293.1 345.8 293.1 342.8 L293.05 342.0 296.15 341.65 Q300.7 345.9 303.85 352.05 L306.4 357.85 Q310.25 368.6 311.1 384.05 309.5 386.45 307.4 388.65 306.4 397.6 304.65 406.55 L303.5 412.05 303.45 412.3 Q300.9 424.1 297.65 435.85 293.95 449.75 287.05 461.8 L285.75 464.05 285.9 489.65 272.7 489.7 272.55 459.7 Q272.8 452.15 268.35 448.9 L236.45 448.9 Q232.0 452.15 232.25 459.7 L232.1 489.7 218.9 489.65 219.05 464.05 217.75 461.8 Q210.85 449.75 207.15 435.85 203.9 424.1 201.35 412.3 L201.3 412.05 200.15 406.55 Q198.4 397.6 197.4 388.65 195.3 386.45 193.7 384.05 194.55 368.6 198.4 357.85 199.55 354.75 200.95 352.05 204.1 345.9 208.65 341.65 L211.75 342.0 Q211.65 342.4 211.7 342.8 211.7 345.8 212.9 347.9 214.1 350.1 215.85 350.1 217.55 350.1 218.8 348.0 220.0 345.85 220.05 342.85 220.05 339.8 218.85 337.7 217.6 335.6 215.9 335.55 214.15 335.6 212.9 337.6 L212.2 339.2 209.7 338.4 Q210.7 325.8 214.65 314.05 215.55 311.7 217.4 311.2 M207.05 368.05 L207.0 389.4 242.65 402.65 Q244.1 387.0 229.55 379.35 L207.05 368.05 M297.75 368.05 L275.25 379.35 Q260.7 387.0 262.15 402.65 L297.8 389.4 297.75 368.05 M310.7 410.45 Q310.7 408.3 312.6 406.55 L314.2 405.35 Q317.75 403.25 322.7 403.2 327.7 403.2 331.2 405.25 334.65 407.4 334.65 410.35 334.7 413.25 331.25 415.35 327.75 417.5 322.75 417.5 317.8 417.55 314.25 415.45 311.9 414.0 311.1 412.2 310.7 411.4 310.7 410.45 M293.85 408.2 L295.4 397.8 Q279.3 404.1 256.5 407.8 L252.5 408.35 252.3 408.35 248.3 407.8 Q225.5 404.1 209.4 397.8 210.1 403.1 210.95 408.2 213.85 425.8 219.1 441.35 219.65 440.0 221.9 438.9 224.2 437.8 228.2 436.95 230.5 436.25 232.25 435.2 L233.95 434.0 Q240.55 422.3 250.45 421.6 L254.35 421.6 Q264.25 422.3 270.85 434.0 L272.55 435.2 Q274.3 436.25 276.6 436.95 280.6 437.8 282.9 438.9 285.15 440.0 285.7 441.35 290.95 425.8 293.85 408.2 M192.2 406.55 Q194.1 408.3 194.1 410.45 194.1 411.4 193.7 412.2 192.9 414.0 190.55 415.45 187.0 417.55 182.05 417.5 177.05 417.5 173.55 415.35 170.1 413.25 170.15 410.35 170.15 407.4 173.6 405.25 177.1 403.2 182.1 403.2 187.05 403.25 190.6 405.35 L192.2 406.55" fill="#000000" fill-rule="evenodd" stroke="none"/>
  </g>
</svg>
