<?xml version="1.0" encoding="UTF-8" standalone="no"?>
<svg xmlns:xlink="http://www.w3.org/1999/xlink" height="291.1px" width="181.5px" xmlns="http://www.w3.org/2000/svg">
  <g transform="matrix(1.0, 0.0, 0.0, 1.0, -161.65, -274.6)">
    <path d="M337.9 321.2 L337.9 313.7 M309.9 291.55 L314.3 286.6 Q315.4 285.55 317.85 285.45 L317.35 284.5 Q314.2 279.0 309.4 283.65 L310.25 284.5 Q310.85 285.35 310.8 286.55 L307.3 290.2 M197.5 290.2 L194.0 286.55 Q193.95 285.35 194.55 284.5 194.85 284.0 195.4 283.65 190.6 279.0 187.45 284.5 L186.95 285.45 Q189.4 285.55 190.5 286.6 L194.9 291.55 M193.5 310.2 Q204.1 306.8 202.85 315.5 202.55 317.5 201.6 320.2 L207.5 316.8 210.15 321.4 Q212.15 324.95 214.9 328.15 L222.05 335.05 Q210.3 328.2 196.5 325.3 L192.2 329.65 M229.75 334.75 L226.4 333.55 223.1 330.9 218.5 327.4 Q215.5 324.2 213.9 321.05 L210.45 314.7 Q213.35 314.6 215.0 316.55 L223.1 330.9 M237.9 331.65 L241.05 331.65 241.1 327.0 245.45 327.0 245.4 329.1 259.4 329.1 259.35 327.0 263.7 327.0 263.75 331.65 266.9 331.65 M189.35 319.7 L199.0 316.7 Q197.8 311.75 191.8 310.85 M166.9 321.2 L166.9 313.7 M189.3 322.35 L201.6 320.2 196.5 325.3 M190.0 311.5 Q180.8 315.25 171.8 320.75 M226.0 348.75 L226.0 362.65 229.0 362.65 Q227.35 344.15 235.1 338.15 240.0 334.3 245.85 334.3 L245.85 331.1 258.95 331.1 258.95 334.3 Q264.8 334.3 269.7 338.15 277.45 344.15 275.8 362.65 L278.8 362.65 278.8 348.75 M229.0 362.65 L232.0 362.65 232.0 365.65 232.05 378.65 239.35 378.65 242.9 381.95 261.9 381.95 265.45 378.65 272.75 378.65 272.8 365.65 272.8 362.65 275.8 362.65 M216.75 382.2 L216.75 378.65 224.75 378.65 224.7 365.65 224.75 362.65 226.0 362.65 M232.0 365.65 L224.7 365.65 M240.55 369.25 Q243.0 371.65 245.85 372.85 248.4 373.95 251.35 374.05 L251.7 374.1 252.0 374.05 252.4 374.1 252.8 374.05 253.1 374.1 253.45 374.05 Q256.4 373.95 258.95 372.85 261.8 371.65 264.25 369.25 268.95 364.4 269.0 357.5 269.0 350.65 264.25 345.8 261.9 343.45 258.95 342.15 256.45 341.05 253.45 340.75 L252.6 340.7 252.4 340.7 252.2 340.7 251.35 340.75 Q248.35 341.05 245.85 342.15 242.9 343.45 240.55 345.8 235.8 350.65 235.8 357.5 235.85 364.4 240.55 369.25 M209.45 384.85 Q210.6 385.95 210.8 387.4 L210.85 388.0 Q210.85 389.45 209.95 390.65 M212.15 385.8 L210.55 385.8 M212.25 390.15 L210.8 390.15 M219.05 381.1 L230.3 381.05 230.25 386.5 219.0 386.5 219.05 381.1 M232.05 390.15 L224.9 390.15 224.9 395.55 225.0 412.1 Q228.75 409.3 232.15 411.75 L232.1 394.5 232.05 390.15 242.65 390.15 251.8 387.4 253.0 387.4 262.15 390.15 272.75 390.15 279.9 390.15 287.5 390.15 M224.75 378.65 L232.05 378.65 M233.2 357.7 Q233.15 349.3 238.55 343.45 241.7 340.05 245.85 338.5 248.4 337.55 251.3 337.3 L252.15 337.25 252.4 337.25 252.65 337.25 253.5 337.3 Q256.4 337.55 258.95 338.5 263.1 340.05 266.25 343.45 271.65 349.3 271.6 357.7 271.65 366.1 266.2 371.85 262.95 375.35 258.95 376.8 256.3 377.75 253.35 377.8 L253.1 377.8 252.7 377.8 252.1 377.8 251.7 377.8 251.45 377.8 Q248.5 377.75 245.85 376.8 241.85 375.35 238.6 371.85 233.15 366.1 233.2 357.7 M217.3 390.15 L224.9 390.15 M199.0 316.7 L202.85 315.5 M205.8 302.65 L202.45 302.6 M315.45 319.7 L305.8 316.7 301.95 315.5 Q302.25 317.5 303.2 320.2 L315.5 322.35 M305.8 316.7 Q307.0 311.75 313.0 310.85 M299.0 302.65 L302.35 302.6 M312.6 329.65 L308.3 325.3 Q294.5 328.2 282.75 335.05 L289.9 328.15 Q292.65 324.95 294.65 321.4 L297.3 316.8 303.2 320.2 308.3 325.3 M275.05 334.75 L278.4 333.55 281.7 330.9 289.8 316.55 Q291.45 314.6 294.35 314.7 L290.9 321.05 Q289.3 324.2 286.3 327.4 L281.7 330.9 M311.3 310.2 Q300.7 306.8 301.95 315.5 M245.85 334.3 L258.95 334.3 M272.8 365.65 L280.1 365.65 280.05 362.65 278.8 362.65 M272.75 390.15 L272.7 394.5 272.65 411.75 Q276.05 409.3 279.8 412.1 L279.9 395.55 279.9 390.15 M274.55 386.5 L285.8 386.5 285.75 381.1 274.5 381.05 274.55 386.5 M272.75 378.65 L280.05 378.65 280.1 365.65 M288.05 382.2 L288.05 378.65 280.05 378.65 M295.35 384.85 Q294.2 385.95 294.0 387.4 L293.95 388.0 Q293.95 389.45 294.85 390.65 M292.55 390.15 L294.0 390.15 M292.65 385.8 L294.25 385.8 M279.8 412.1 L281.4 413.35 281.4 420.6 Q286.35 421.25 289.95 419.25 293.8 417.15 294.7 412.4 295.55 407.9 294.35 403.65 292.6 400.1 289.2 398.85 L279.9 395.55 M291.45 439.4 L289.3 439.4 288.95 470.5 284.3 470.5 284.25 478.4 289.1 478.4 M272.7 394.5 Q265.2 396.95 256.75 396.95 259.6 397.3 262.05 398.35 L262.2 398.45 Q266.7 400.7 267.35 406.25 L267.35 420.25 270.95 423.2 271.0 413.35 272.65 411.75 M256.75 396.95 L255.4 396.85 253.5 396.85 251.3 396.85 249.25 396.85 248.05 396.95 Q245.2 397.3 242.75 398.35 L242.6 398.45 Q238.1 400.7 237.45 406.25 L237.45 420.25 238.4 419.5 238.65 419.25 Q241.35 416.9 245.4 416.25 L249.25 416.0 249.95 416.0 252.4 415.75 254.85 416.0 255.4 416.0 259.4 416.25 Q263.45 416.9 266.15 419.25 L266.3 419.4 267.35 420.25 M238.2 429.6 Q240.45 428.1 243.25 426.95 L244.5 426.45 245.1 426.25 Q247.2 425.45 249.6 424.9 L252.4 424.6 255.2 424.9 259.7 426.25 260.3 426.45 261.65 427.0 Q264.4 428.1 266.6 429.6 M270.35 432.8 Q274.1 436.8 275.55 442.35 277.1 448.55 275.75 456.8 277.45 455.9 278.65 454.65 280.8 452.4 281.35 449.1 282.55 442.15 281.35 435.25 279.25 430.7 276.4 427.65 273.55 424.65 270.95 423.2 M252.4 434.25 L252.15 433.95 245.95 441.35 245.2 440.8 245.3 458.4 245.95 459.0 252.2 451.65 252.4 451.9 252.6 451.65 258.85 459.0 259.5 458.4 259.6 440.8 258.85 441.35 252.65 433.95 252.4 434.25 M238.2 435.25 L245.2 440.8 245.1 426.25 M259.6 440.8 L259.7 426.25 M285.45 427.9 L281.4 427.85 281.35 431.65 287.75 431.65 M281.35 435.25 L281.35 431.65 M272.7 460.85 L272.7 445.25 Q273.4 442.6 275.55 442.35 M266.6 435.25 L259.6 440.8 M281.4 427.85 L281.4 420.6 M266.5 451.95 L259.5 458.4 259.5 474.6 266.4 468.35 266.4 464.5 M245.3 458.4 L245.3 474.6 245.95 475.15 252.2 467.75 252.4 468.0 252.6 467.75 258.85 475.15 259.5 474.6 259.4 492.85 266.45 485.35 M266.4 475.85 L266.4 468.35 M238.35 485.35 L245.4 492.85 245.3 474.6 238.4 468.35 238.4 475.85 M238.35 490.3 L238.35 497.6 M245.4 492.85 L246.25 492.25 252.4 485.0 258.55 492.25 259.4 492.85 259.4 507.85 266.45 500.25 M266.45 490.3 L266.45 497.6 M272.65 490.35 L272.75 497.6 M272.7 472.25 L272.7 484.35 M303.3 452.55 L305.25 448.9 Q307.55 447.55 308.7 449.65 L306.9 452.4 M297.25 461.15 L295.55 462.4 M284.25 483.65 L284.25 478.4 M284.3 470.5 L284.3 449.35 281.35 435.25 287.7 435.35 M224.9 395.55 L215.6 398.85 Q212.2 400.1 210.45 403.65 209.25 407.9 210.1 412.4 211.0 417.15 214.85 419.25 218.45 421.25 223.4 420.6 L223.4 413.35 225.0 412.1 M232.15 411.75 L233.8 413.35 233.85 423.2 237.45 420.25 M213.35 439.4 L215.5 439.4 215.85 470.5 220.5 470.5 220.5 449.35 223.45 435.25 217.1 435.35 M234.45 432.8 Q230.7 436.8 229.25 442.35 231.4 442.6 232.1 445.25 L232.1 460.85 M217.05 431.65 L223.45 431.65 223.4 427.85 219.35 427.9 M223.45 431.65 L223.45 435.25 Q225.55 430.7 228.4 427.65 231.25 424.65 233.85 423.2 M223.4 420.6 L223.4 427.85 M201.5 452.55 L199.55 448.9 Q197.25 447.55 196.1 449.65 L197.9 452.4 M229.25 442.35 Q227.7 448.55 229.05 456.8 227.35 455.9 226.15 454.65 224.0 452.4 223.45 449.1 222.25 442.15 223.45 435.25 M238.4 464.5 L238.4 468.35 M207.55 461.15 L209.25 462.4 M220.5 470.5 L220.55 478.4 220.55 483.65 M220.55 478.4 L215.7 478.4 M214.35 483.65 L211.25 483.7 M232.1 484.35 L232.1 472.25 M252.8 515.45 L259.05 522.85 259.3 522.5 259.4 507.85 252.4 499.65 245.4 507.85 245.5 522.5 245.75 522.85 252.0 515.45 252.4 515.9 252.8 515.45 M266.4 515.3 L259.3 522.5 259.3 536.9 266.4 530.75 M245.5 522.5 L245.5 536.9 246.15 537.55 252.4 530.25 258.65 537.55 259.3 536.9 259.25 550.95 266.4 544.05 M245.6 565.2 L245.55 550.95 238.4 544.05 M259.25 550.95 L259.2 565.2 M245.55 550.95 L245.5 536.9 238.4 530.75 M259.25 550.95 L252.4 542.8 245.55 550.95 M245.4 507.85 L238.35 500.25 M284.25 490.15 L284.25 497.6 M238.4 515.3 L245.5 522.5 M232.15 490.35 L232.05 497.6 M220.55 490.15 L220.55 497.6 M245.3 458.4 L238.3 451.95 M245.4 507.85 L245.4 492.85 M248.05 396.95 Q239.6 396.95 232.1 394.5 M314.8 311.5 Q324.0 315.25 333.0 320.75" fill="none" stroke="#000000" stroke-linecap="round" stroke-linejoin="round" stroke-opacity="0.5019608" stroke-width="1.0"/>
    <path d="M330.25 291.6 Q321.1 296.0 309.9 291.55 L303.35 297.85 Q302.35 299.75 302.35 302.6 L311.35 302.65 311.3 310.2 312.15 310.45 313.0 310.85 314.8 311.5 337.9 313.7 342.65 314.15 342.65 321.7 337.9 321.2 333.0 320.75 Q337.1 323.3 341.15 326.1 342.65 328.7 339.4 328.4 327.5 322.55 315.45 319.7 L315.5 322.35 315.5 329.3 312.6 329.65 Q296.5 331.0 278.85 341.8 L278.8 348.75 Q283.9 351.2 287.75 356.0 L288.6 357.15 Q291.4 361.0 292.5 365.65 293.4 370.0 292.25 374.35 291.0 379.2 288.05 382.2 L288.1 385.8 292.65 385.8 295.35 384.85 296.3 384.1 Q298.7 382.5 302.05 382.5 305.4 382.5 307.7 384.1 309.75 385.5 310.0 387.4 L310.05 388.0 Q310.05 390.35 307.7 391.95 305.4 393.55 302.0 393.55 298.65 393.55 296.3 391.9 295.4 391.35 294.85 390.65 L292.55 390.15 287.5 390.15 289.1 391.55 295.75 398.5 Q297.7 400.95 298.3 404.65 298.85 408.25 298.25 412.35 297.65 415.85 295.2 419.15 293.1 421.8 289.45 423.35 287.8 424.05 285.5 424.35 L285.45 427.9 291.8 428.05 291.8 431.65 287.75 431.65 287.7 435.35 291.5 435.4 291.45 439.4 293.7 439.4 Q296.8 441.65 297.3 445.25 L297.25 461.15 Q299.65 459.2 301.45 456.3 L303.3 452.55 299.8 452.55 299.8 444.6 Q299.95 443.2 302.0 443.1 L314.75 443.15 Q317.05 443.35 317.0 445.4 L317.0 451.05 Q316.85 452.8 314.45 452.45 L306.9 452.4 Q305.35 456.25 302.25 460.1 L296.7 466.3 296.65 470.9 301.8 470.9 301.8 468.0 316.2 468.05 Q318.3 468.2 319.3 470.4 L319.3 475.65 Q318.4 478.35 314.9 478.1 L301.4 478.15 301.45 475.45 296.65 475.45 296.6 483.7 284.25 483.65 284.25 490.15 290.1 490.15 Q293.5 494.2 290.15 497.65 L284.25 497.6 Q281.55 502.2 278.65 502.15 275.8 502.05 272.75 497.6 L266.45 497.6 266.45 500.25 266.4 515.3 266.4 530.75 266.4 544.05 266.4 559.4 Q264.65 564.5 259.9 565.2 L259.2 565.2 245.6 565.2 244.9 565.2 Q240.15 564.5 238.4 559.4 L238.4 544.05 238.4 530.75 238.4 515.3 238.35 500.25 238.35 497.6 232.05 497.6 Q229.0 502.05 226.15 502.15 223.25 502.2 220.55 497.6 L214.65 497.65 Q211.3 494.2 214.7 490.15 L220.55 490.15 220.55 483.65 214.35 483.65 196.2 530.85 192.2 530.6 192.4 528.75 195.05 528.9 211.25 483.7 208.2 483.7 208.15 475.45 203.35 475.45 203.4 478.15 189.9 478.1 Q186.4 478.35 185.5 475.65 L185.5 470.4 Q186.5 468.2 188.6 468.05 L203.0 468.0 203.0 470.9 208.15 470.9 208.1 466.3 202.55 460.1 Q199.45 456.25 197.9 452.4 L190.35 452.45 Q187.95 452.8 187.8 451.05 L187.8 445.4 Q187.75 443.35 190.05 443.15 L202.8 443.1 Q204.85 443.2 205.0 444.6 L205.0 452.55 201.5 452.55 203.35 456.3 Q205.15 459.2 207.55 461.15 L207.5 445.25 Q208.0 441.65 211.1 439.4 L213.35 439.4 213.3 435.4 217.1 435.35 217.05 431.65 213.0 431.65 213.0 428.05 219.35 427.9 219.3 424.35 Q217.0 424.05 215.35 423.35 211.7 421.8 209.6 419.15 207.15 415.85 206.55 412.35 205.95 408.25 206.5 404.65 207.1 400.95 209.05 398.5 L215.7 391.55 217.3 390.15 212.25 390.15 209.95 390.65 208.5 391.9 Q206.15 393.55 202.8 393.55 199.4 393.55 197.1 391.95 194.75 390.35 194.75 388.0 L194.8 387.4 Q195.05 385.5 197.1 384.1 199.4 382.5 202.75 382.5 206.1 382.5 208.5 384.1 L209.45 384.85 212.15 385.8 216.7 385.8 216.75 382.2 Q213.8 379.2 212.55 374.35 211.4 370.0 212.3 365.65 213.4 361.0 216.2 357.15 L217.1 356.0 Q220.9 351.2 226.0 348.75 L225.95 341.8 Q208.3 331.0 192.2 329.65 L189.3 329.3 189.3 322.35 189.35 319.7 Q177.3 322.55 165.4 328.4 162.15 328.7 163.65 326.1 167.7 323.3 171.8 320.75 L166.9 321.2 162.15 321.7 162.15 314.15 166.9 313.7 190.0 311.5 191.8 310.85 192.65 310.45 193.5 310.2 193.45 302.65 202.45 302.6 Q202.45 299.75 201.45 297.85 L194.9 291.55 Q183.7 296.0 174.55 291.6 171.85 289.6 171.15 286.75 L170.75 284.5 Q170.5 281.85 171.35 279.6 172.9 275.55 176.75 275.35 195.05 273.75 199.95 281.65 200.6 283.1 200.7 284.5 L200.45 287.2 Q199.75 288.9 197.5 290.2 L203.85 295.85 Q205.75 298.75 205.8 302.65 L209.1 302.65 209.1 309.8 213.45 309.8 Q218.75 312.1 220.05 315.8 L224.35 324.6 Q225.65 327.65 227.85 329.75 232.6 332.5 237.9 331.65 L237.9 325.75 Q239.1 321.6 242.55 319.9 246.25 317.9 251.2 318.0 L252.15 318.05 252.4 318.05 252.65 318.05 253.6 318.0 Q258.55 317.9 262.25 319.9 265.7 321.6 266.9 325.75 L266.9 331.65 Q272.2 332.5 276.95 329.75 279.15 327.65 280.45 324.6 L284.75 315.8 Q286.05 312.1 291.35 309.8 L295.7 309.8 295.7 302.65 299.0 302.65 Q299.05 298.75 300.95 295.85 L307.3 290.2 Q305.05 288.9 304.35 287.2 304.0 285.85 304.1 284.5 304.2 283.1 304.85 281.65 309.75 273.75 328.05 275.35 331.9 275.55 333.45 279.6 334.3 281.85 334.05 284.5 L333.65 286.75 Q332.95 289.6 330.25 291.6 M289.1 478.4 L293.85 468.4 293.85 478.4 289.1 478.4 M266.6 429.6 Q268.75 431.05 270.35 432.8 M266.6 429.6 L266.6 435.25 266.5 451.95 266.4 464.5 272.7 472.25 272.7 460.85 269.3 460.9 269.3 441.75 270.35 432.8 M266.45 485.35 L266.4 475.85 M238.4 475.85 L238.35 485.35 238.35 490.3 M272.65 490.35 L266.45 490.3 M272.7 484.35 L272.65 490.35 M272.7 484.35 L266.4 475.85 M266.45 485.35 L266.45 490.3 M234.45 432.8 L235.5 441.75 235.5 460.9 232.1 460.85 232.1 472.25 238.4 464.5 238.3 451.95 238.2 435.25 238.2 429.6 Q236.05 431.05 234.45 432.8 M215.7 478.4 L210.95 478.4 210.95 468.4 215.7 478.4 M238.4 475.85 L232.1 484.35 232.15 490.35 238.35 490.3" fill="none" stroke="#000000" stroke-linecap="round" stroke-linejoin="round" stroke-width="1.0"/>
  </g>
</svg>
