<?xml version="1.0" encoding="UTF-8" standalone="no"?>
<svg xmlns:xlink="http://www.w3.org/1999/xlink" height="283.2px" width="187.0px" xmlns="http://www.w3.org/2000/svg">
  <g transform="matrix(1.0, 0.0, 0.0, 1.0, 241.1, 18.0)">
    <path d="M-91.25 48.1 L-73.4 53.95 Q-71.45 55.35 -71.95 57.75 -72.05 59.95 -74.0 61.25 L-83.65 58.85 -93.25 53.65 -91.25 48.1 M-131.25 229.45 L-131.15 253.2 Q-131.95 259.9 -138.3 263.35 L-139.75 264.05 Q-142.4 265.1 -145.75 265.2 L-146.75 265.15 -147.25 265.2 -147.6 265.2 -147.95 265.2 -148.45 265.15 -149.45 265.2 Q-152.8 265.1 -155.45 264.05 L-156.9 263.35 Q-163.25 259.9 -164.05 253.2 L-163.95 229.45 -163.55 148.9 -131.65 148.9 -131.25 229.45 M-211.55 58.85 L-221.2 61.25 Q-223.15 59.95 -223.25 57.75 -223.75 55.35 -221.8 53.95 L-203.95 48.1 -201.95 53.65 -211.55 58.85 M-147.7 108.35 L-147.5 108.35 -126.2 108.25 -126.15 130.35 -127.45 130.35 -127.45 135.2 -129.15 134.0 Q-135.75 122.3 -145.65 121.6 L-149.55 121.6 Q-159.45 122.3 -166.05 134.0 L-167.75 135.2 -167.75 130.35 -169.05 130.35 -169.0 108.25 -147.7 108.35 M-118.7 108.25 L-106.15 108.2 Q-109.05 125.8 -114.3 141.35 -114.85 140.0 -117.1 138.9 L-117.15 130.35 -118.6 130.35 -118.7 108.25 M-178.1 138.9 Q-180.35 140.0 -180.9 141.35 -186.15 125.8 -189.05 108.2 L-176.5 108.25 -176.6 130.35 -178.05 130.35 -178.1 138.9" fill="#333333" fill-rule="evenodd" stroke="none"/>
    <path d="M-127.35 2.55 L-139.55 -11.55 Q-141.6 -13.35 -144.5 -13.75 L-145.5 -13.9 -149.7 -13.9 -150.7 -13.75 Q-153.6 -13.35 -155.65 -11.55 L-167.85 2.55 Q-173.4 5.25 -178.0 9.45 L-156.55 -15.7 Q-153.85 -17.65 -151.25 -17.95 L-150.75 -18.0 -144.45 -18.0 -143.95 -17.95 Q-141.35 -17.65 -138.65 -15.7 L-117.2 9.45 Q-121.8 5.25 -127.35 2.55" fill="url(#gradient0)" fill-rule="evenodd" stroke="none"/>
    <path d="M-167.85 2.55 L-167.1 2.15 Q-160.35 -0.95 -153.6 -1.8 L-141.6 -1.8 Q-134.85 -0.95 -128.1 2.15 L-127.35 2.55 Q-121.8 5.25 -117.2 9.45 L-116.85 9.85 -115.2 11.5 Q-116.7 12.05 -117.4 13.6 L-120.85 23.15 -124.25 32.6 Q-128.85 44.95 -134.6 44.45 L-160.6 44.45 Q-166.35 44.95 -170.95 32.6 L-174.35 23.15 -177.8 13.6 Q-178.5 12.05 -180.0 11.5 L-178.35 9.85 -178.0 9.45 Q-173.4 5.25 -167.85 2.55" fill="url(#gradient1)" fill-rule="evenodd" stroke="none"/>
    <path d="M-104.9 38.4 Q-94.75 34.65 -89.8 27.1 L-87.55 27.1 -87.6 18.45 Q-87.3 13.3 -82.75 12.75 L-60.6 10.9 Q-55.9 10.8 -54.2 15.65 L-54.15 23.7 Q-53.65 32.85 -59.55 33.2 L-84.15 35.35 Q-85.2 33.55 -85.3 31.8 -93.2 38.1 -99.9 40.5 L-103.85 41.65 -106.95 42.0 Q-107.0 40.5 -107.4 39.2 L-104.9 38.4" fill="url(#gradient2)" fill-rule="evenodd" stroke="none"/>
    <path d="M-83.65 58.85 L-69.85 66.4 Q-67.3 69.4 -70.6 68.9 L-93.6 57.85 Q-94.75 54.75 -96.15 52.05 L-93.25 53.65 -83.65 58.85" fill="url(#gradient3)" fill-rule="evenodd" stroke="none"/>
    <path d="M-104.9 38.4 L-107.4 39.2 -108.1 37.6 Q-109.35 35.6 -111.1 35.55 -112.8 35.6 -114.05 37.7 -115.25 39.8 -115.25 42.85 -115.2 45.85 -114.0 48.0 -112.75 50.1 -111.05 50.1 -109.3 50.1 -108.1 47.9 -106.9 45.8 -106.9 42.8 -106.85 42.4 -106.95 42.0 L-103.85 41.65 Q-99.3 45.9 -96.15 52.05 -94.75 54.75 -93.6 57.85 -89.75 68.6 -88.9 84.05 -90.5 86.45 -92.6 88.65 -97.35 93.75 -104.6 97.8 -120.7 104.1 -143.5 107.8 L-143.6 87.85 Q-142.8 78.9 -139.5 72.3 L-127.3 47.75 Q-121.3 35.45 -120.85 23.15 L-117.4 13.6 Q-116.7 12.05 -115.2 11.5 L-112.6 11.2 Q-110.75 11.7 -109.85 14.05 -105.9 25.8 -104.9 38.4 M-102.25 68.05 L-124.75 79.35 Q-139.3 87.0 -137.85 102.65 L-102.2 89.4 -102.25 68.05" fill="url(#gradient4)" fill-rule="evenodd" stroke="none"/>
    <path d="M-107.4 39.2 Q-107.0 40.5 -106.95 42.0 -106.85 42.4 -106.9 42.8 -106.9 45.8 -108.1 47.9 -109.3 50.1 -111.05 50.1 -112.75 50.1 -114.0 48.0 -115.2 45.85 -115.25 42.85 -115.25 39.8 -114.05 37.7 -112.8 35.6 -111.1 35.55 -109.35 35.6 -108.1 37.6 L-107.4 39.2" fill="url(#gradient5)" fill-rule="evenodd" stroke="none"/>
    <path d="M-103.85 41.65 L-99.9 40.5 -90.0 44.6 -91.25 48.1 -93.25 53.65 -96.15 52.05 Q-99.3 45.9 -103.85 41.65" fill="url(#gradient6)" fill-rule="evenodd" stroke="none"/>
    <path d="M-120.85 23.15 Q-121.3 35.45 -127.3 47.75 L-139.5 72.3 Q-142.8 78.9 -143.6 87.85 L-143.5 107.8 -147.5 108.35 -147.7 108.35 -151.7 107.8 -151.6 87.85 Q-152.4 78.9 -155.7 72.3 L-167.9 47.75 Q-173.9 35.45 -174.35 23.15 L-170.95 32.6 Q-166.35 44.95 -160.6 44.45 L-134.6 44.45 Q-128.85 44.95 -124.25 32.6 L-120.85 23.15 M-150.55 60.5 L-144.65 60.5 Q-138.5 57.0 -136.1 52.55 -141.3 50.6 -146.5 50.6 L-147.25 50.6 -147.95 50.6 -148.7 50.6 Q-153.9 50.6 -159.1 52.55 -156.7 57.0 -150.55 60.5" fill="url(#gradient7)" fill-rule="evenodd" stroke="none"/>
    <path d="M-150.55 60.5 Q-156.7 57.0 -159.1 52.55 -153.9 50.6 -148.7 50.6 L-147.95 50.6 -147.25 50.6 -146.5 50.6 Q-141.3 50.6 -136.1 52.55 -138.5 57.0 -144.65 60.5 L-150.55 60.5" fill="url(#gradient8)" fill-rule="evenodd" stroke="none"/>
    <path d="M-202.6 88.65 L-206.3 84.05 Q-205.45 68.6 -201.6 57.85 L-199.05 52.05 Q-195.9 45.9 -191.35 41.65 L-188.25 42.0 -188.3 42.8 Q-188.3 45.8 -187.1 47.9 -185.9 50.1 -184.15 50.1 -182.45 50.1 -181.2 48.0 -180.0 45.85 -179.95 42.85 -179.95 39.8 -181.15 37.7 -182.4 35.6 -184.1 35.55 -185.85 35.6 -187.1 37.6 L-187.8 39.2 -190.3 38.4 Q-189.3 25.8 -185.35 14.05 -184.45 11.7 -182.6 11.2 L-180.0 11.5 Q-178.5 12.05 -177.8 13.6 L-174.35 23.15 Q-173.9 35.45 -167.9 47.75 L-155.7 72.3 Q-152.4 78.9 -151.6 87.85 L-151.7 107.8 Q-174.5 104.1 -190.6 97.8 -197.85 93.75 -202.6 88.65 M-192.95 68.05 L-193.0 89.4 -157.35 102.65 Q-155.9 87.0 -170.45 79.35 L-192.95 68.05" fill="url(#gradient9)" fill-rule="evenodd" stroke="none"/>
    <path d="M-92.6 88.65 Q-93.6 97.6 -95.35 106.55 L-96.5 112.05 -96.55 112.3 Q-99.1 124.1 -102.35 135.85 -106.05 149.75 -112.95 161.8 L-114.25 164.05 -114.3 141.35 Q-109.05 125.8 -106.15 108.2 -105.3 103.1 -104.6 97.8 -97.35 93.75 -92.6 88.65" fill="url(#gradient10)" fill-rule="evenodd" stroke="none"/>
    <path d="M-87.4 106.55 Q-86.75 105.9 -85.8 105.35 -82.25 103.25 -77.3 103.2 -72.3 103.2 -68.8 105.25 -65.35 107.4 -65.35 110.35 -65.3 113.25 -68.75 115.35 -72.25 117.5 -77.25 117.5 -82.2 117.55 -85.75 115.45 -88.1 114.0 -88.9 112.2 -89.3 111.4 -89.3 110.45 -89.3 108.3 -87.4 106.55" fill="url(#gradient11)" fill-rule="evenodd" stroke="none"/>
    <path d="M-95.35 106.55 L-87.4 106.55 Q-89.3 108.3 -89.3 110.45 -89.3 111.4 -88.9 112.2 L-96.55 112.3 -96.5 112.05 -95.35 106.55" fill="url(#gradient12)" fill-rule="evenodd" stroke="none"/>
    <path d="M-143.5 107.8 Q-120.7 104.1 -104.6 97.8 -105.3 103.1 -106.15 108.2 L-118.7 108.25 -126.2 108.25 -147.5 108.35 -143.5 107.8" fill="url(#gradient13)" fill-rule="evenodd" stroke="none"/>
    <path d="M-118.6 130.35 L-117.15 130.35 -117.1 138.9 Q-119.4 137.8 -123.4 136.95 -125.7 136.25 -127.45 135.2 L-127.45 130.35 -126.15 130.35 -118.6 130.35" fill="url(#gradient14)" fill-rule="evenodd" stroke="none"/>
    <path d="M-114.25 164.05 L-114.1 189.65 -115.55 189.65 -124.65 189.7 -127.3 189.7 -127.45 159.7 Q-127.2 152.15 -131.65 148.9 L-129.15 134.0 -127.45 135.2 Q-125.7 136.25 -123.4 136.95 -119.4 137.8 -117.1 138.9 -114.85 140.0 -114.3 141.35 L-114.25 164.05" fill="url(#gradient15)" fill-rule="evenodd" stroke="none"/>
    <path d="M-118.7 108.25 L-118.6 130.35 -126.15 130.35 -126.2 108.25 -118.7 108.25" fill="url(#gradient16)" fill-rule="evenodd" stroke="none"/>
    <path d="M-151.7 107.8 L-147.7 108.35 -169.0 108.25 -176.5 108.25 -189.05 108.2 -190.6 97.8 Q-174.5 104.1 -151.7 107.8" fill="url(#gradient17)" fill-rule="evenodd" stroke="none"/>
    <path d="M-129.15 134.0 L-131.65 148.9 -163.55 148.9 -166.05 134.0 Q-159.45 122.3 -149.55 121.6 L-145.65 121.6 Q-135.75 122.3 -129.15 134.0" fill="url(#gradient18)" fill-rule="evenodd" stroke="none"/>
    <path d="M-127.3 189.7 L-127.3 191.35 Q-126.6 228.65 -131.25 229.45 L-131.65 148.9 Q-127.2 152.15 -127.45 159.7 L-127.3 189.7" fill="url(#gradient19)" fill-rule="evenodd" stroke="none"/>
    <path d="M-115.55 189.65 L-115.55 197.3 -117.4 197.3 -120.2 197.35 -123.0 197.35 -124.6 197.35 -124.65 189.7 -115.55 189.65" fill="url(#gradient20)" fill-rule="evenodd" stroke="none"/>
    <path d="M-117.4 197.3 L-117.35 202.55 -120.2 202.6 -120.2 197.35 -117.4 197.3" fill="url(#gradient21)" fill-rule="evenodd" stroke="none"/>
    <path d="M-120.2 202.6 L-123.0 202.6 -123.0 197.35 -120.2 197.35 -120.2 202.6" fill="url(#gradient22)" fill-rule="evenodd" stroke="none"/>
    <path d="M-203.95 48.1 L-205.2 44.6 -195.3 40.5 -191.35 41.65 Q-195.9 45.9 -199.05 52.05 L-201.95 53.65 -203.95 48.1" fill="url(#gradient23)" fill-rule="evenodd" stroke="none"/>
    <path d="M-195.3 40.5 Q-202.0 38.1 -209.9 31.8 -210.0 33.55 -211.05 35.35 L-235.65 33.2 Q-241.55 32.85 -241.05 23.7 L-241.0 15.65 Q-239.3 10.8 -234.6 10.9 L-212.45 12.75 Q-207.9 13.3 -207.6 18.45 L-207.65 27.1 -205.4 27.1 Q-200.45 34.65 -190.3 38.4 L-187.8 39.2 Q-188.2 40.5 -188.25 42.0 L-191.35 41.65 -195.3 40.5" fill="url(#gradient24)" fill-rule="evenodd" stroke="none"/>
    <path d="M-187.8 39.2 L-187.1 37.6 Q-185.85 35.6 -184.1 35.55 -182.4 35.6 -181.15 37.7 -179.95 39.8 -179.95 42.85 -180.0 45.85 -181.2 48.0 -182.45 50.1 -184.15 50.1 -185.9 50.1 -187.1 47.9 -188.3 45.8 -188.3 42.8 L-188.25 42.0 Q-188.2 40.5 -187.8 39.2" fill="url(#gradient25)" fill-rule="evenodd" stroke="none"/>
    <path d="M-201.6 57.85 L-224.6 68.9 Q-227.9 69.4 -225.35 66.4 L-211.55 58.85 -201.95 53.65 -199.05 52.05 -201.6 57.85" fill="url(#gradient26)" fill-rule="evenodd" stroke="none"/>
    <path d="M-182.25 161.8 Q-189.15 149.75 -192.85 135.85 -196.1 124.1 -198.65 112.3 L-198.7 112.05 -199.85 106.55 Q-201.6 97.6 -202.6 88.65 -197.85 93.75 -190.6 97.8 L-189.05 108.2 Q-186.15 125.8 -180.9 141.35 L-180.95 164.05 -182.25 161.8" fill="url(#gradient27)" fill-rule="evenodd" stroke="none"/>
    <path d="M-176.5 108.25 L-169.0 108.25 -169.05 130.35 -176.6 130.35 -176.5 108.25" fill="url(#gradient28)" fill-rule="evenodd" stroke="none"/>
    <path d="M-198.65 112.3 L-206.3 112.2 Q-205.9 111.4 -205.9 110.45 -205.9 108.3 -207.8 106.55 L-199.85 106.55 -198.7 112.05 -198.65 112.3" fill="url(#gradient29)" fill-rule="evenodd" stroke="none"/>
    <path d="M-167.9 189.7 L-170.55 189.7 -179.65 189.65 -181.1 189.65 -180.95 164.05 -180.9 141.35 Q-180.35 140.0 -178.1 138.9 -175.8 137.8 -171.8 136.95 -169.5 136.25 -167.75 135.2 L-166.05 134.0 -163.55 148.9 Q-168.0 152.15 -167.75 159.7 L-167.9 189.7" fill="url(#gradient30)" fill-rule="evenodd" stroke="none"/>
    <path d="M-167.75 135.2 Q-169.5 136.25 -171.8 136.95 -175.8 137.8 -178.1 138.9 L-178.05 130.35 -176.6 130.35 -169.05 130.35 -167.75 130.35 -167.75 135.2" fill="url(#gradient31)" fill-rule="evenodd" stroke="none"/>
    <path d="M-206.3 112.2 Q-207.1 114.0 -209.45 115.45 -213.0 117.55 -217.95 117.5 -222.95 117.5 -226.45 115.35 -229.9 113.25 -229.85 110.35 -229.85 107.4 -226.4 105.25 -222.9 103.2 -217.9 103.2 -212.95 103.25 -209.4 105.35 L-207.8 106.55 Q-205.9 108.3 -205.9 110.45 -205.9 111.4 -206.3 112.2" fill="url(#gradient32)" fill-rule="evenodd" stroke="none"/>
    <path d="M-163.95 229.45 Q-168.6 228.65 -167.9 191.35 L-167.9 189.7 -167.75 159.7 Q-168.0 152.15 -163.55 148.9 L-163.95 229.45" fill="url(#gradient33)" fill-rule="evenodd" stroke="none"/>
    <path d="M-180.95 164.05 L-211.65 228.25 -214.7 228.0 -214.55 226.4 -212.5 226.45 -182.25 161.8 -180.95 164.05" fill="url(#gradient34)" fill-rule="evenodd" stroke="none"/>
    <path d="M-170.55 189.7 L-170.6 197.35 -172.2 197.35 -175.0 197.35 -177.8 197.3 -179.65 197.3 -179.65 189.65 -170.55 189.7" fill="url(#gradient35)" fill-rule="evenodd" stroke="none"/>
    <path d="M-175.0 202.6 L-177.85 202.55 -177.8 197.3 -175.0 197.35 -175.0 202.6" fill="url(#gradient36)" fill-rule="evenodd" stroke="none"/>
    <path d="M-172.2 197.35 L-172.2 202.6 -175.0 202.6 -175.0 197.35 -172.2 197.35" fill="url(#gradient37)" fill-rule="evenodd" stroke="none"/>
    <path d="M-102.25 68.05 L-102.2 89.4 -137.85 102.65 Q-139.3 87.0 -124.75 79.35 L-102.25 68.05 M-192.95 68.05 L-170.45 79.35 Q-155.9 87.0 -157.35 102.65 L-193.0 89.4 -192.95 68.05" fill="#ffffff" fill-rule="evenodd" stroke="none"/>
    <path d="M-54.15 23.7 Q-53.65 32.85 -59.55 33.2 L-84.15 35.35 Q-85.2 33.55 -85.3 31.8 -93.2 38.1 -99.9 40.5 L-103.85 41.65 Q-99.3 45.9 -96.15 52.05 -94.75 54.75 -93.6 57.85 -89.75 68.6 -88.9 84.05 -90.5 86.45 -92.6 88.65 -93.2 94.2 -94.1 99.75 -102.55 102.9 -109.2 123.5 -111.45 132.95 -114.3 141.35 -114.85 140.0 -117.1 138.9 L-117.15 130.35 -118.6 130.35 -118.7 108.25 -106.15 108.2 Q-105.3 103.1 -104.6 97.8 -99.85 95.15 -96.2 92.05 -94.55 64.6 -107.75 47.2 -106.9 45.3 -106.9 42.8 -106.85 42.4 -106.95 42.0 -106.95 41.25 -107.1 40.55 -95.55 37.65 -85.2 28.8 L-54.15 23.7 M-109.85 14.05 Q-105.9 25.8 -104.9 38.4 L-107.4 39.2 -108.1 37.6 Q-109.05 36.05 -110.3 35.7 L-112.6 11.2 Q-110.75 11.7 -109.85 14.05 M-96.5 112.05 L-95.95 109.55 -65.4 109.55 -65.35 110.35 Q-65.3 113.25 -68.75 115.35 -72.25 117.5 -77.25 117.5 -82.2 117.55 -85.75 115.45 -88.1 114.0 -88.9 112.2 L-96.55 112.3 -96.5 112.05 M-149.55 121.6 Q-156.45 122.1 -161.75 127.95 -160.2 144.9 -147.6 148.95 -135.0 144.9 -133.4 127.95 -138.75 122.1 -145.65 121.6 L-149.55 121.6 M-147.5 108.35 L-126.2 108.25 -126.15 130.35 -127.45 130.35 -127.45 135.2 -129.15 134.0 -131.65 148.9 Q-127.2 152.15 -127.45 159.7 L-127.3 191.35 Q-126.6 228.65 -131.25 229.45 L-131.15 253.2 Q-131.95 259.9 -138.3 263.35 L-139.75 264.05 -140.15 148.95 -147.6 148.95 -155.05 148.95 -155.45 264.05 -156.9 263.35 Q-163.25 259.9 -164.05 253.2 L-163.95 229.45 Q-168.6 228.65 -167.9 191.35 L-167.75 159.7 Q-168.0 152.15 -163.55 148.9 L-166.05 134.0 -167.75 135.2 -167.75 130.35 -169.05 130.35 -169.0 108.25 -148.0 108.3 -147.5 108.35 M-114.1 189.65 L-120.2 189.7 -120.2 151.85 -114.3 141.35 -114.1 189.65 M-182.6 11.2 L-184.9 35.7 Q-186.15 36.05 -187.1 37.6 L-187.8 39.2 -190.3 38.4 Q-189.3 25.8 -185.35 14.05 -184.45 11.7 -182.6 11.2 M-188.3 42.8 Q-188.3 45.3 -187.45 47.2 -200.65 64.6 -199.0 92.05 -195.35 95.15 -190.6 97.8 L-189.05 108.2 -176.5 108.25 -176.6 130.35 -178.05 130.35 -178.1 138.9 Q-180.35 140.0 -180.9 141.35 -183.75 132.95 -185.85 123.95 -192.55 102.95 -201.05 99.75 L-202.6 88.65 -206.3 84.05 Q-205.45 68.6 -201.6 57.85 L-199.05 52.05 Q-195.9 45.9 -191.35 41.65 L-195.3 40.5 Q-202.0 38.1 -209.9 31.8 -210.0 33.55 -211.05 35.35 L-235.65 33.2 Q-241.55 32.85 -241.05 23.7 L-210.0 28.8 Q-199.65 37.65 -188.1 40.55 L-188.25 42.0 -188.3 42.8 M-175.0 151.85 L-175.0 189.7 -181.1 189.65 -180.9 141.35 -175.0 151.85 M-198.7 112.05 L-198.65 112.3 -206.3 112.2 Q-207.1 114.0 -209.45 115.45 -213.0 117.55 -217.95 117.5 -222.95 117.5 -226.45 115.35 -229.9 113.25 -229.85 110.35 L-229.75 109.55 -199.2 109.55 -198.7 112.05" fill="#010101" fill-opacity="0.2" fill-rule="evenodd" stroke="none"/>
    <path d="M-56.15 12.45 Q-54.9 13.6 -54.2 15.65 L-54.15 18.1 -87.5 22.65 -87.55 22.65 -87.6 18.45 -87.15 16.15 -56.15 12.45 M-117.4 13.6 L-120.05 21.0 Q-129.3 17.2 -138.6 16.0 -157.1 13.45 -175.15 20.95 L-177.8 13.6 -177.7 13.55 Q-147.55 -3.25 -117.35 13.5 L-117.4 13.6 M-125.35 79.7 L-125.35 79.65 Q-127.9 68.1 -132.5 58.2 L-127.3 47.75 Q-119.95 59.35 -116.6 75.25 L-124.75 79.35 -124.95 79.45 -125.35 79.7 M-138.4 70.15 L-139.5 72.3 Q-140.9 75.1 -141.85 78.3 L-153.35 78.3 Q-154.3 75.1 -155.7 72.3 L-156.75 70.15 -138.4 70.15 M-114.9 94.15 L-114.1 93.85 -113.8 101.05 -122.15 103.4 -122.65 97.0 -114.9 94.15 M-207.6 18.45 L-207.6 22.75 -241.0 18.2 -241.0 15.65 Q-240.3 13.7 -239.1 12.55 L-208.0 16.25 Q-207.65 17.2 -207.6 18.45 M-172.55 97.0 L-173.05 103.4 -181.4 101.05 -181.1 93.85 -180.3 94.15 -172.55 97.0 M-178.6 75.25 Q-175.25 59.35 -167.9 47.75 L-162.7 58.2 Q-167.3 68.1 -169.85 79.65 L-170.45 79.35 -178.6 75.25" fill="#ffffff" fill-opacity="0.4" fill-rule="evenodd" stroke="none"/>
    <path d="M-125.35 79.7 L-124.95 79.45 -124.75 79.35 -116.6 75.25 -102.25 68.05 -102.2 89.4 -114.9 94.15 -122.65 97.0 -137.85 102.65 Q-139.25 87.35 -125.35 79.7" fill="url(#gradient38)" fill-rule="evenodd" stroke="none"/>
    <path d="M-172.55 97.0 L-180.3 94.15 -193.0 89.4 -192.95 68.05 -178.6 75.25 -170.45 79.35 Q-155.9 87.0 -157.35 102.65 L-172.55 97.0" fill="url(#gradient39)" fill-rule="evenodd" stroke="none"/>
  </g>
  <defs>
    <radialGradient cx="0" cy="0" gradientTransform="matrix(0.0496, 0.0, 0.0, 0.0496, -146.75, -16.5)" gradientUnits="userSpaceOnUse" id="gradient0" r="819.2" spreadMethod="pad">
      <stop offset="0.0" stop-color="#000000" stop-opacity="0.0"/>
      <stop offset="1.0" stop-color="#000000" stop-opacity="0.2509804"/>
    </radialGradient>
    <radialGradient cx="0" cy="0" gradientTransform="matrix(0.0435, 0.0, 0.0, 0.0435, -148.65, 22.05)" gradientUnits="userSpaceOnUse" id="gradient1" r="819.2" spreadMethod="pad">
      <stop offset="0.0" stop-color="#000000" stop-opacity="0.0"/>
      <stop offset="1.0" stop-color="#000000" stop-opacity="0.2509804"/>
    </radialGradient>
    <radialGradient cx="0" cy="0" gradientTransform="matrix(0.0486, 0.0, 0.0, 0.0486, -72.45, 22.05)" gradientUnits="userSpaceOnUse" id="gradient2" r="819.2" spreadMethod="pad">
      <stop offset="0.0" stop-color="#000000" stop-opacity="0.0"/>
      <stop offset="1.0" stop-color="#000000" stop-opacity="0.2509804"/>
    </radialGradient>
    <linearGradient gradientTransform="matrix(0.0, -0.0103, 0.0167, 0.0, -82.45, 60.5)" gradientUnits="userSpaceOnUse" id="gradient3" spreadMethod="pad" x1="-819.2" x2="819.2">
      <stop offset="0.0" stop-color="#000000" stop-opacity="0.0"/>
      <stop offset="1.0" stop-color="#000000" stop-opacity="0.2509804"/>
    </linearGradient>
    <linearGradient gradientTransform="matrix(0.0, -0.059, 0.0334, 0.0, -116.25, 59.5)" gradientUnits="userSpaceOnUse" id="gradient4" spreadMethod="pad" x1="-819.2" x2="819.2">
      <stop offset="0.0" stop-color="#000000" stop-opacity="0.0"/>
      <stop offset="1.0" stop-color="#000000" stop-opacity="0.2509804"/>
    </linearGradient>
    <linearGradient gradientTransform="matrix(0.0051, 0.0, 0.0, 0.0089, -111.1, 42.8)" gradientUnits="userSpaceOnUse" id="gradient5" spreadMethod="pad" x1="-819.2" x2="819.2">
      <stop offset="0.0" stop-color="#000000" stop-opacity="0.2509804"/>
      <stop offset="0.5098039215686274" stop-color="#000000" stop-opacity="0.0"/>
      <stop offset="1.0" stop-color="#000000" stop-opacity="0.2509804"/>
    </linearGradient>
    <linearGradient gradientTransform="matrix(0.0, -0.008, 0.0085, 0.0, -96.95, 47.1)" gradientUnits="userSpaceOnUse" id="gradient6" spreadMethod="pad" x1="-819.2" x2="819.2">
      <stop offset="0.0" stop-color="#000000" stop-opacity="0.0"/>
      <stop offset="1.0" stop-color="#000000" stop-opacity="0.2509804"/>
    </linearGradient>
    <linearGradient gradientTransform="matrix(0.0, 0.052, -0.0327, 0.0, -147.6, 65.75)" gradientUnits="userSpaceOnUse" id="gradient7" spreadMethod="pad" x1="-819.2" x2="819.2">
      <stop offset="0.0" stop-color="#000000" stop-opacity="0.0"/>
      <stop offset="1.0" stop-color="#000000" stop-opacity="0.2509804"/>
    </linearGradient>
    <linearGradient gradientTransform="matrix(0.0, 0.0061, -0.014, 0.0, -147.6, 55.5)" gradientUnits="userSpaceOnUse" id="gradient8" spreadMethod="pad" x1="-819.2" x2="819.2">
      <stop offset="0.0" stop-color="#000000" stop-opacity="0.2509804"/>
      <stop offset="0.5098039215686274" stop-color="#000000" stop-opacity="0.0"/>
      <stop offset="1.0" stop-color="#000000" stop-opacity="0.2509804"/>
    </linearGradient>
    <linearGradient gradientTransform="matrix(0.0, -0.059, 0.0334, 0.0, -178.95, 59.5)" gradientUnits="userSpaceOnUse" id="gradient9" spreadMethod="pad" x1="-819.2" x2="819.2">
      <stop offset="0.0" stop-color="#000000" stop-opacity="0.0"/>
      <stop offset="1.0" stop-color="#000000" stop-opacity="0.2509804"/>
    </linearGradient>
    <linearGradient gradientTransform="matrix(0.0, -0.046, 0.0132, 0.0, -103.45, 126.35)" gradientUnits="userSpaceOnUse" id="gradient10" spreadMethod="pad" x1="-819.2" x2="819.2">
      <stop offset="0.0" stop-color="#000000" stop-opacity="0.0"/>
      <stop offset="1.0" stop-color="#000000" stop-opacity="0.2509804"/>
    </linearGradient>
    <radialGradient cx="0" cy="0" gradientTransform="matrix(0.017, 0.0, 0.0, 0.017, -75.75, 110.0)" gradientUnits="userSpaceOnUse" id="gradient11" r="819.2" spreadMethod="pad">
      <stop offset="0.0" stop-color="#000000" stop-opacity="0.0"/>
      <stop offset="1.0" stop-color="#000000" stop-opacity="0.2509804"/>
    </radialGradient>
    <linearGradient gradientTransform="matrix(0.0, 0.0035, -0.0056, 0.0, -91.95, 109.4)" gradientUnits="userSpaceOnUse" id="gradient12" spreadMethod="pad" x1="-819.2" x2="819.2">
      <stop offset="0.0" stop-color="#000000" stop-opacity="0.2509804"/>
      <stop offset="0.5098039215686274" stop-color="#000000" stop-opacity="0.0"/>
      <stop offset="1.0" stop-color="#000000" stop-opacity="0.2509804"/>
    </linearGradient>
    <linearGradient gradientTransform="matrix(0.0, -0.0064, 0.0262, 0.0, -126.05, 103.1)" gradientUnits="userSpaceOnUse" id="gradient13" spreadMethod="pad" x1="-819.2" x2="819.2">
      <stop offset="0.0" stop-color="#000000" stop-opacity="0.0"/>
      <stop offset="1.0" stop-color="#000000" stop-opacity="0.2509804"/>
    </linearGradient>
    <linearGradient gradientTransform="matrix(0.0063, 0.0, 0.0, 0.0052, -122.3, 134.6)" gradientUnits="userSpaceOnUse" id="gradient14" spreadMethod="pad" x1="-819.2" x2="819.2">
      <stop offset="0.0" stop-color="#000000" stop-opacity="0.2509804"/>
      <stop offset="0.5098039215686274" stop-color="#000000" stop-opacity="0.0"/>
      <stop offset="1.0" stop-color="#000000" stop-opacity="0.2509804"/>
    </linearGradient>
    <linearGradient gradientTransform="matrix(0.0107, 0.0, 0.0, 0.034, -122.9, 161.85)" gradientUnits="userSpaceOnUse" id="gradient15" spreadMethod="pad" x1="-819.2" x2="819.2">
      <stop offset="0.0" stop-color="#000000" stop-opacity="0.2509804"/>
      <stop offset="0.5098039215686274" stop-color="#000000" stop-opacity="0.0"/>
      <stop offset="1.0" stop-color="#000000" stop-opacity="0.2509804"/>
    </linearGradient>
    <linearGradient gradientTransform="matrix(0.0046, 0.0, 0.0, 0.0135, -122.4, 119.3)" gradientUnits="userSpaceOnUse" id="gradient16" spreadMethod="pad" x1="-819.2" x2="819.2">
      <stop offset="0.0" stop-color="#000000" stop-opacity="0.2509804"/>
      <stop offset="0.5098039215686274" stop-color="#000000" stop-opacity="0.0"/>
      <stop offset="1.0" stop-color="#000000" stop-opacity="0.2509804"/>
    </linearGradient>
    <linearGradient gradientTransform="matrix(0.0, -0.0064, 0.0262, 0.0, -169.15, 103.1)" gradientUnits="userSpaceOnUse" id="gradient17" spreadMethod="pad" x1="-819.2" x2="819.2">
      <stop offset="0.0" stop-color="#000000" stop-opacity="0.0"/>
      <stop offset="1.0" stop-color="#000000" stop-opacity="0.2509804"/>
    </linearGradient>
    <radialGradient cx="0" cy="0" gradientTransform="matrix(0.0256, 0.0, 0.0, 0.0256, -149.1, 137.3)" gradientUnits="userSpaceOnUse" id="gradient18" r="819.2" spreadMethod="pad">
      <stop offset="0.0" stop-color="#000000" stop-opacity="0.0"/>
      <stop offset="1.0" stop-color="#000000" stop-opacity="0.2509804"/>
    </radialGradient>
    <linearGradient gradientTransform="matrix(0.0, -0.0492, 0.0027, 0.0, -129.45, 189.2)" gradientUnits="userSpaceOnUse" id="gradient19" spreadMethod="pad" x1="-819.2" x2="819.2">
      <stop offset="0.0" stop-color="#000000" stop-opacity="0.0"/>
      <stop offset="1.0" stop-color="#000000" stop-opacity="0.2509804"/>
    </linearGradient>
    <linearGradient gradientTransform="matrix(0.0, -0.0047, 0.0056, 0.0, -120.1, 193.5)" gradientUnits="userSpaceOnUse" id="gradient20" spreadMethod="pad" x1="-819.2" x2="819.2">
      <stop offset="0.0" stop-color="#000000" stop-opacity="0.0"/>
      <stop offset="1.0" stop-color="#000000" stop-opacity="0.2509804"/>
    </linearGradient>
    <linearGradient gradientTransform="matrix(0.0, -0.0032, 0.0017, 0.0, -118.8, 199.95)" gradientUnits="userSpaceOnUse" id="gradient21" spreadMethod="pad" x1="-819.2" x2="819.2">
      <stop offset="0.0" stop-color="#000000" stop-opacity="0.0"/>
      <stop offset="1.0" stop-color="#000000" stop-opacity="0.2509804"/>
    </linearGradient>
    <linearGradient gradientTransform="matrix(0.0, -0.0032, 0.0017, 0.0, -121.6, 200.0)" gradientUnits="userSpaceOnUse" id="gradient22" spreadMethod="pad" x1="-819.2" x2="819.2">
      <stop offset="0.0" stop-color="#000000" stop-opacity="0.0"/>
      <stop offset="1.0" stop-color="#000000" stop-opacity="0.2509804"/>
    </linearGradient>
    <linearGradient gradientTransform="matrix(0.0, -0.008, 0.0085, 0.0, -198.3, 47.1)" gradientUnits="userSpaceOnUse" id="gradient23" spreadMethod="pad" x1="-819.2" x2="819.2">
      <stop offset="0.0" stop-color="#000000" stop-opacity="0.0"/>
      <stop offset="1.0" stop-color="#000000" stop-opacity="0.2509804"/>
    </linearGradient>
    <radialGradient cx="0" cy="0" gradientTransform="matrix(0.0509, 0.0, 0.0, 0.0509, -224.85, 22.05)" gradientUnits="userSpaceOnUse" id="gradient24" r="819.2" spreadMethod="pad">
      <stop offset="0.0" stop-color="#000000" stop-opacity="0.0"/>
      <stop offset="1.0" stop-color="#000000" stop-opacity="0.2509804"/>
    </radialGradient>
    <linearGradient gradientTransform="matrix(0.0051, 0.0, 0.0, 0.0089, -184.15, 42.8)" gradientUnits="userSpaceOnUse" id="gradient25" spreadMethod="pad" x1="-819.2" x2="819.2">
      <stop offset="0.0" stop-color="#000000" stop-opacity="0.2509804"/>
      <stop offset="0.5098039215686274" stop-color="#000000" stop-opacity="0.0"/>
      <stop offset="1.0" stop-color="#000000" stop-opacity="0.2509804"/>
    </linearGradient>
    <linearGradient gradientTransform="matrix(0.0, -0.0103, 0.0167, 0.0, -212.75, 60.5)" gradientUnits="userSpaceOnUse" id="gradient26" spreadMethod="pad" x1="-819.2" x2="819.2">
      <stop offset="0.0" stop-color="#000000" stop-opacity="0.0"/>
      <stop offset="1.0" stop-color="#000000" stop-opacity="0.2509804"/>
    </linearGradient>
    <linearGradient gradientTransform="matrix(0.0132, 0.0, 0.0, 0.046, -191.75, 126.35)" gradientUnits="userSpaceOnUse" id="gradient27" spreadMethod="pad" x1="-819.2" x2="819.2">
      <stop offset="0.0" stop-color="#000000" stop-opacity="0.2509804"/>
      <stop offset="0.5098039215686274" stop-color="#000000" stop-opacity="0.0"/>
      <stop offset="1.0" stop-color="#000000" stop-opacity="0.2509804"/>
    </linearGradient>
    <linearGradient gradientTransform="matrix(0.0046, 0.0, 0.0, 0.0135, -172.8, 119.3)" gradientUnits="userSpaceOnUse" id="gradient28" spreadMethod="pad" x1="-819.2" x2="819.2">
      <stop offset="0.0" stop-color="#000000" stop-opacity="0.2509804"/>
      <stop offset="0.5098039215686274" stop-color="#000000" stop-opacity="0.0"/>
      <stop offset="1.0" stop-color="#000000" stop-opacity="0.2509804"/>
    </linearGradient>
    <linearGradient gradientTransform="matrix(0.0, 0.0035, -0.0056, 0.0, -203.2, 109.4)" gradientUnits="userSpaceOnUse" id="gradient29" spreadMethod="pad" x1="-819.2" x2="819.2">
      <stop offset="0.0" stop-color="#000000" stop-opacity="0.2509804"/>
      <stop offset="0.5098039215686274" stop-color="#000000" stop-opacity="0.0"/>
      <stop offset="1.0" stop-color="#000000" stop-opacity="0.2509804"/>
    </linearGradient>
    <linearGradient gradientTransform="matrix(0.0107, 0.0, 0.0, 0.034, -172.35, 161.85)" gradientUnits="userSpaceOnUse" id="gradient30" spreadMethod="pad" x1="-819.2" x2="819.2">
      <stop offset="0.0" stop-color="#000000" stop-opacity="0.2509804"/>
      <stop offset="0.5098039215686274" stop-color="#000000" stop-opacity="0.0"/>
      <stop offset="1.0" stop-color="#000000" stop-opacity="0.2509804"/>
    </linearGradient>
    <linearGradient gradientTransform="matrix(0.0063, 0.0, 0.0, 0.0052, -172.95, 134.6)" gradientUnits="userSpaceOnUse" id="gradient31" spreadMethod="pad" x1="-819.2" x2="819.2">
      <stop offset="0.0" stop-color="#000000" stop-opacity="0.2509804"/>
      <stop offset="0.5098039215686274" stop-color="#000000" stop-opacity="0.0"/>
      <stop offset="1.0" stop-color="#000000" stop-opacity="0.2509804"/>
    </linearGradient>
    <radialGradient cx="0" cy="0" gradientTransform="matrix(0.0155, 0.0, 0.0, 0.0155, -218.25, 110.0)" gradientUnits="userSpaceOnUse" id="gradient32" r="819.2" spreadMethod="pad">
      <stop offset="0.0" stop-color="#000000" stop-opacity="0.0"/>
      <stop offset="1.0" stop-color="#000000" stop-opacity="0.2509804"/>
    </radialGradient>
    <linearGradient gradientTransform="matrix(0.0, -0.0492, 0.0027, 0.0, -165.8, 189.2)" gradientUnits="userSpaceOnUse" id="gradient33" spreadMethod="pad" x1="-819.2" x2="819.2">
      <stop offset="0.0" stop-color="#000000" stop-opacity="0.0"/>
      <stop offset="1.0" stop-color="#000000" stop-opacity="0.2509804"/>
    </linearGradient>
    <linearGradient gradientTransform="matrix(0.0, -0.0406, 0.0206, 0.0, -197.85, 195.05)" gradientUnits="userSpaceOnUse" id="gradient34" spreadMethod="pad" x1="-819.2" x2="819.2">
      <stop offset="0.0" stop-color="#000000" stop-opacity="0.0"/>
      <stop offset="1.0" stop-color="#000000" stop-opacity="0.2509804"/>
    </linearGradient>
    <linearGradient gradientTransform="matrix(0.0, -0.0047, 0.0056, 0.0, -175.1, 193.5)" gradientUnits="userSpaceOnUse" id="gradient35" spreadMethod="pad" x1="-819.2" x2="819.2">
      <stop offset="0.0" stop-color="#000000" stop-opacity="0.0"/>
      <stop offset="1.0" stop-color="#000000" stop-opacity="0.2509804"/>
    </linearGradient>
    <linearGradient gradientTransform="matrix(0.0, -0.0032, 0.0017, 0.0, -176.45, 199.95)" gradientUnits="userSpaceOnUse" id="gradient36" spreadMethod="pad" x1="-819.2" x2="819.2">
      <stop offset="0.0" stop-color="#000000" stop-opacity="0.0"/>
      <stop offset="1.0" stop-color="#000000" stop-opacity="0.2509804"/>
    </linearGradient>
    <linearGradient gradientTransform="matrix(0.0, -0.0032, 0.0017, 0.0, -173.6, 200.0)" gradientUnits="userSpaceOnUse" id="gradient37" spreadMethod="pad" x1="-819.2" x2="819.2">
      <stop offset="0.0" stop-color="#000000" stop-opacity="0.0"/>
      <stop offset="1.0" stop-color="#000000" stop-opacity="0.2509804"/>
    </linearGradient>
    <radialGradient cx="0" cy="0" gradientTransform="matrix(0.0312, 0.0, 0.0, 0.0312, -120.4, 86.0)" gradientUnits="userSpaceOnUse" id="gradient38" r="819.2" spreadMethod="pad">
      <stop offset="0.0" stop-color="#000000" stop-opacity="0.0"/>
      <stop offset="1.0" stop-color="#000000" stop-opacity="0.2509804"/>
    </radialGradient>
    <radialGradient cx="0" cy="0" gradientTransform="matrix(0.0325, 0.0, 0.0, 0.0325, -177.8, 86.0)" gradientUnits="userSpaceOnUse" id="gradient39" r="819.2" spreadMethod="pad">
      <stop offset="0.0" stop-color="#000000" stop-opacity="0.0"/>
      <stop offset="1.0" stop-color="#000000" stop-opacity="0.2509804"/>
    </radialGradient>
  </defs>
</svg>
