<?xml version="1.0" encoding="UTF-8" standalone="no"?>
<svg xmlns:xlink="http://www.w3.org/1999/xlink" height="284.15px" width="189.6px" xmlns="http://www.w3.org/2000/svg">
  <g transform="matrix(1.0, 0.0, 0.0, 1.0, 242.4, 18.95)">
    <path d="M-112.85 16.9 L-105.8 16.8 Q-101.95 16.75 -98.85 16.95 -91.1 17.5 -87.0 19.4 -85.2 20.4 -82.35 18.5 -84.85 25.25 -83.65 30.6 -85.4 28.15 -87.1 28.1 L-93.05 28.0 -95.1 27.55 -106.05 26.65 Q-111.9 23.95 -115.0 19.15 L-115.0 23.4 -116.6 23.4 -122.45 23.45 -124.8 23.4 -124.8 15.6 -124.8 15.05 -115.0 15.05 -115.0 17.05 -112.85 16.9 M-124.95 205.2 L-124.85 233.1 -125.0 237.05 Q-125.65 249.55 -131.6 258.3 -137.05 264.55 -145.8 265.15 L-147.1 265.2 -147.6 265.2 -148.1 265.2 -149.4 265.15 Q-158.15 264.55 -163.6 258.3 -169.55 249.55 -170.2 237.05 L-170.35 233.1 -170.25 205.2 -170.15 193.55 -169.85 112.9 Q-161.85 125.85 -149.5 125.3 L-148.3 125.35 -147.6 125.4 -146.9 125.35 -145.7 125.3 Q-133.35 125.85 -125.35 112.9 L-125.05 193.55 -124.95 205.2 M-202.15 28.0 L-208.1 28.1 Q-209.8 28.15 -211.55 30.6 -210.35 25.25 -212.85 18.5 -210.0 20.4 -208.2 19.4 -204.1 17.5 -196.35 16.95 -193.25 16.75 -189.4 16.8 L-182.35 16.9 -180.2 17.05 -180.2 15.05 -170.4 15.05 -170.4 15.6 -170.4 23.4 -172.75 23.45 -178.6 23.4 -180.2 23.4 -180.2 19.15 Q-183.3 23.95 -189.15 26.65 L-200.1 27.55 -202.15 28.0 M-116.55 29.55 L-115.05 29.5 -114.9 37.0 Q-118.8 34.1 -123.55 31.9 L-123.6 29.55 -122.4 29.55 -116.55 29.55 M-115.1 99.85 Q-113.85 95.15 -112.3 91.2 -109.15 82.95 -104.95 78.05 -98.85 70.85 -95.2 78.0 -94.0 81.6 -93.1 85.1 -92.25 88.5 -91.9 91.9 L-91.65 94.15 Q-91.15 98.85 -91.05 103.65 -90.85 109.05 -91.15 114.65 L-91.75 122.95 -92.1 124.9 Q-92.8 130.15 -94.1 135.4 -95.5 141.0 -97.55 146.45 L-98.1 147.85 Q-100.35 154.0 -103.45 160.05 -108.15 169.25 -114.85 178.65 L-115.1 99.85 M-178.65 29.55 L-172.8 29.55 -171.6 29.55 -171.65 31.9 Q-176.4 34.1 -180.3 37.0 L-180.15 29.5 -178.65 29.55 M-180.35 178.65 Q-187.05 169.25 -191.75 160.05 -194.85 154.0 -197.1 147.85 L-197.65 146.45 Q-199.7 141.0 -201.1 135.4 -202.4 130.15 -203.1 124.9 L-203.45 122.95 -204.05 114.65 Q-204.35 109.05 -204.15 103.65 -204.05 98.85 -203.55 94.15 L-203.3 91.9 Q-202.95 88.5 -202.1 85.1 L-200.0 78.0 Q-196.35 70.85 -190.25 78.05 -186.05 82.95 -182.9 91.2 -181.35 95.15 -180.1 99.85 L-180.35 178.65" fill="#333333" fill-rule="evenodd" stroke="none"/>
    <path d="M-182.35 16.9 Q-182.2 -3.25 -171.25 -12.25 L-168.55 -14.1 Q-160.1 -19.0 -148.3 -18.9 L-147.6 -18.9 -146.9 -18.9 Q-135.1 -19.0 -126.65 -14.1 L-123.95 -12.25 Q-113.0 -3.25 -112.85 16.9 L-115.0 17.05 -115.0 15.05 -124.8 15.05 -124.8 15.6 Q-133.15 8.95 -147.55 9.6 L-147.65 9.6 Q-162.05 8.95 -170.4 15.6 L-170.4 15.05 -180.2 15.05 -180.2 17.05 -182.35 16.9 M-146.95 -14.85 L-147.6 -14.85 -148.25 -14.85 Q-160.05 -15.0 -168.45 -10.15 L-126.75 -10.15 Q-135.15 -15.0 -146.95 -14.85" fill="url(#gradient0)" fill-rule="evenodd" stroke="none"/>
    <path d="M-82.35 18.5 Q-81.3 17.0 -79.6 16.7 -76.6 16.05 -76.4 20.1 -76.05 26.55 -78.3 30.6 -80.95 33.35 -83.65 30.6 -84.85 25.25 -82.35 18.5" fill="url(#gradient1)" fill-rule="evenodd" stroke="none"/>
    <path d="M-93.25 48.6 Q-93.1 39.55 -89.3 36.15 -86.85 33.95 -82.4 33.05 -75.6 31.95 -69.05 32.7 -61.8 33.25 -56.1 36.4 -50.3 41.9 -54.75 47.45 -58.0 51.8 -62.7 53.55 -70.9 56.3 -81.4 55.85 -90.0 55.05 -93.25 48.6" fill="url(#gradient2)" fill-rule="evenodd" stroke="none"/>
    <path d="M-105.8 16.8 L-102.3 11.6 -98.9 11.6 -98.85 16.95 Q-101.95 16.75 -105.8 16.8" fill="url(#gradient3)" fill-rule="evenodd" stroke="none"/>
    <path d="M-106.5 30.8 Q-99.1 40.5 -97.7 50.75 L-102.2 53.05 Q-106.5 43.4 -114.9 37.0 L-115.05 29.5 -116.55 29.55 -116.6 23.4 -115.0 23.4 Q-112.0 29.15 -106.5 30.8" fill="url(#gradient4)" fill-rule="evenodd" stroke="none"/>
    <path d="M-93.05 28.0 Q-91.65 28.65 -90.7 29.8 L-90.65 34.1 Q-93.35 30.65 -100.75 30.8 L-106.5 30.8 Q-112.0 29.15 -115.0 23.4 L-115.0 19.15 Q-111.9 23.95 -106.05 26.65 L-95.1 27.55 -93.05 28.0" fill="url(#gradient5)" fill-rule="evenodd" stroke="none"/>
    <path d="M-116.6 23.4 L-116.55 29.55 -122.4 29.55 -122.45 23.45 -116.6 23.4" fill="url(#gradient6)" fill-rule="evenodd" stroke="none"/>
    <path d="M-170.4 15.6 Q-162.05 8.95 -147.65 9.6 L-147.55 9.6 Q-133.15 8.95 -124.8 15.6 L-124.8 23.4 -122.45 23.45 -122.4 29.55 -123.6 29.55 -123.55 31.9 Q-118.8 34.1 -114.9 37.0 -106.5 43.4 -102.2 53.05 L-105.1 54.5 -111.9 57.0 Q-112.0 68.7 -106.15 73.0 L-108.65 76.2 Q-113.25 83.05 -117.2 91.1 L-118.45 93.8 Q-120.8 98.65 -122.4 104.2 -123.4 108.45 -125.35 112.9 -133.35 125.85 -145.7 125.3 L-146.9 125.35 -147.6 125.4 -148.3 125.35 -149.5 125.3 Q-161.85 125.85 -169.85 112.9 -171.8 108.45 -172.8 104.2 -174.4 98.65 -176.75 93.8 L-178.0 91.1 Q-181.95 83.05 -186.55 76.2 L-189.05 73.0 Q-183.2 68.7 -183.3 57.0 L-190.1 54.5 -193.0 53.05 Q-188.7 43.4 -180.3 37.0 -176.4 34.1 -171.65 31.9 L-171.6 29.55 -172.8 29.55 -172.75 23.45 -170.4 23.4 -170.4 15.6 M-130.3 15.85 Q-138.75 12.55 -147.6 12.75 -156.45 12.55 -164.9 15.85 -167.25 18.85 -163.75 19.75 -156.5 17.35 -147.6 17.65 -138.7 17.35 -131.45 19.75 -127.95 18.85 -130.3 15.85 M-126.75 52.6 Q-129.55 47.7 -133.8 47.45 -138.2 47.05 -141.6 51.6 -144.9 56.0 -145.25 60.35 L-145.45 63.0 Q-145.8 69.7 -143.0 74.65 -140.3 79.65 -135.9 80.0 -131.55 80.3 -128.2 75.7 -124.8 71.25 -124.35 64.45 -124.15 61.15 -124.7 58.35 -125.3 55.25 -126.75 52.6 M-149.75 63.0 L-149.95 60.35 Q-150.3 56.0 -153.6 51.6 -157.0 47.05 -161.4 47.45 -165.65 47.7 -168.45 52.6 -169.9 55.25 -170.5 58.35 -171.05 61.15 -170.85 64.45 -170.4 71.25 -167.0 75.7 -163.65 80.3 -159.3 80.0 -154.9 79.65 -152.2 74.65 -149.4 69.7 -149.75 63.0" fill="url(#gradient7)" fill-rule="evenodd" stroke="none"/>
    <path d="M-93.95 62.95 Q-92.05 69.2 -92.1 75.45 -93.1 72.1 -96.65 69.3 -98.35 68.5 -100.15 68.8 -97.35 65.5 -93.95 62.95" fill="url(#gradient8)" fill-rule="evenodd" stroke="none"/>
    <path d="M-92.1 75.45 Q-91.9 75.8 -91.85 76.3 -88.3 92.25 -88.45 109.0 -88.5 113.55 -88.85 118.05 -89.15 123.2 -89.8 128.15 L-90.25 130.8 -90.25 131.45 Q-91.8 146.2 -99.2 158.65 -105.9 173.0 -114.8 185.0 L-114.85 178.65 Q-108.15 169.25 -103.45 160.05 -100.35 154.0 -98.1 147.85 L-97.55 146.45 Q-95.5 141.0 -94.1 135.4 -92.8 130.15 -92.1 124.9 L-91.75 122.95 -91.15 114.65 Q-90.85 109.05 -91.05 103.65 -91.15 98.85 -91.65 94.15 L-91.9 91.9 Q-92.25 88.5 -93.1 85.1 -94.0 81.6 -95.2 78.0 -98.85 70.85 -104.95 78.05 -109.15 82.95 -112.3 91.2 -113.85 95.15 -115.1 99.85 L-118.45 93.8 -117.2 91.1 Q-113.25 83.05 -108.65 76.2 L-106.15 73.0 Q-103.95 70.4 -101.75 69.3 -100.95 68.9 -100.2 68.8 L-100.15 68.8 Q-98.35 68.5 -96.65 69.3 -93.1 72.1 -92.1 75.45" fill="url(#gradient9)" fill-rule="evenodd" stroke="none"/>
    <path d="M-97.7 50.75 L-93.25 48.6 Q-90.0 55.05 -81.4 55.85 -88.4 58.5 -93.95 62.95 -97.35 65.5 -100.15 68.8 L-100.2 68.8 Q-106.0 62.5 -105.1 54.5 L-102.2 53.05 -97.7 50.75" fill="url(#gradient10)" fill-rule="evenodd" stroke="none"/>
    <path d="M-100.2 68.8 Q-100.95 68.9 -101.75 69.3 -103.95 70.4 -106.15 73.0 -112.0 68.7 -111.9 57.0 L-105.1 54.5 Q-106.0 62.5 -100.2 68.8" fill="url(#gradient11)" fill-rule="evenodd" stroke="none"/>
    <path d="M-88.85 118.05 L-84.45 118.0 -84.35 125.8 -86.2 125.85 -86.15 128.2 -89.8 128.15 Q-89.15 123.2 -88.85 118.05" fill="url(#gradient12)" fill-rule="evenodd" stroke="none"/>
    <path d="M-114.8 185.0 L-114.8 190.05 Q-114.75 193.55 -118.5 193.55 L-125.05 193.55 -125.35 112.9 Q-123.4 108.45 -122.4 104.2 -120.8 98.65 -118.45 93.8 L-115.1 99.85 -114.85 178.65 -114.8 185.0 M-119.9 120.75 Q-120.65 120.8 -121.25 122.3 -121.7 123.85 -121.65 126.05 -121.7 128.2 -121.15 129.75 -120.65 131.3 -119.9 131.3 -119.1 131.3 -118.6 129.75 -118.1 128.2 -118.1 126.05 -118.1 123.9 -118.65 122.3 -119.1 120.8 -119.9 120.75 M-118.4 173.65 Q-118.85 172.1 -119.65 172.05 -120.45 172.1 -121.0 173.65 -121.45 175.2 -121.45 177.4 -121.45 179.5 -120.9 181.05 -120.45 182.6 -119.7 182.65 -118.9 182.6 -118.35 181.05 -117.9 179.5 -117.85 177.35 -117.9 175.2 -118.4 173.65" fill="url(#gradient13)" fill-rule="evenodd" stroke="none"/>
    <path d="M-119.9 120.75 Q-119.1 120.8 -118.65 122.3 -118.1 123.9 -118.1 126.05 -118.1 128.2 -118.6 129.75 -119.1 131.3 -119.9 131.3 -120.65 131.3 -121.15 129.75 -121.7 128.2 -121.65 126.05 -121.7 123.85 -121.25 122.3 -120.65 120.8 -119.9 120.75" fill="url(#gradient14)" fill-rule="evenodd" stroke="none"/>
    <path d="M-86.15 128.2 L-84.3 128.05 -84.3 130.8 -90.25 130.8 -89.8 128.15 -86.15 128.2" fill="url(#gradient15)" fill-rule="evenodd" stroke="none"/>
    <path d="M-118.4 173.65 Q-117.9 175.2 -117.85 177.35 -117.9 179.5 -118.35 181.05 -118.9 182.6 -119.7 182.65 -120.45 182.6 -120.9 181.05 -121.45 179.5 -121.45 177.4 -121.45 175.2 -121.0 173.65 -120.45 172.1 -119.65 172.05 -118.85 172.1 -118.4 173.65" fill="url(#gradient16)" fill-rule="evenodd" stroke="none"/>
    <path d="M-118.5 193.55 Q-122.5 198.2 -124.95 205.2 L-125.05 193.55 -118.5 193.55" fill="url(#gradient17)" fill-rule="evenodd" stroke="none"/>
    <path d="M-178.6 23.4 L-172.75 23.45 -172.8 29.55 -178.65 29.55 -178.6 23.4" fill="url(#gradient18)" fill-rule="evenodd" stroke="none"/>
    <path d="M-188.7 30.8 L-194.45 30.8 Q-201.85 30.65 -204.55 34.1 L-204.5 29.8 Q-203.55 28.65 -202.15 28.0 L-200.1 27.55 -189.15 26.65 Q-183.3 23.95 -180.2 19.15 L-180.2 23.4 Q-183.2 29.15 -188.7 30.8" fill="url(#gradient19)" fill-rule="evenodd" stroke="none"/>
    <path d="M-197.5 50.75 Q-196.1 40.5 -188.7 30.8 -183.2 29.15 -180.2 23.4 L-178.6 23.4 -178.65 29.55 -180.15 29.5 -180.3 37.0 Q-188.7 43.4 -193.0 53.05 L-197.5 50.75" fill="url(#gradient20)" fill-rule="evenodd" stroke="none"/>
    <path d="M-196.35 16.95 L-196.3 11.6 -192.9 11.6 -189.4 16.8 Q-193.25 16.75 -196.35 16.95" fill="url(#gradient21)" fill-rule="evenodd" stroke="none"/>
    <path d="M-211.55 30.6 Q-214.25 33.35 -216.9 30.6 -219.15 26.55 -218.8 20.1 -218.6 16.05 -215.6 16.7 -213.9 17.0 -212.85 18.5 -210.35 25.25 -211.55 30.6" fill="url(#gradient22)" fill-rule="evenodd" stroke="none"/>
    <path d="M-213.8 55.85 Q-224.3 56.3 -232.5 53.55 -237.2 51.8 -240.45 47.45 -244.9 41.9 -239.1 36.4 -233.4 33.25 -226.15 32.7 -219.6 31.95 -212.8 33.05 -208.35 33.95 -205.9 36.15 -202.1 39.55 -201.95 48.6 -205.2 55.05 -213.8 55.85" fill="url(#gradient23)" fill-rule="evenodd" stroke="none"/>
    <path d="M-180.4 185.0 L-184.15 179.7 -186.4 176.25 Q-191.65 167.95 -196.0 158.65 -203.4 146.2 -204.95 131.45 L-204.95 130.8 -205.4 128.15 Q-206.05 123.2 -206.35 118.05 L-206.75 109.0 Q-206.9 92.25 -203.35 76.3 L-203.1 75.45 Q-202.1 72.1 -198.55 69.3 -196.85 68.5 -195.05 68.8 L-195.0 68.8 -193.45 69.3 Q-191.25 70.4 -189.05 73.0 L-186.55 76.2 Q-181.95 83.05 -178.0 91.1 L-176.75 93.8 -180.1 99.85 Q-181.35 95.15 -182.9 91.2 -186.05 82.95 -190.25 78.05 -196.35 70.85 -200.0 78.0 L-202.1 85.1 Q-202.95 88.5 -203.3 91.9 L-203.55 94.15 Q-204.05 98.85 -204.15 103.65 -204.35 109.05 -204.05 114.65 L-203.45 122.95 -203.1 124.9 Q-202.4 130.15 -201.1 135.4 -199.7 141.0 -197.65 146.45 L-197.1 147.85 Q-194.85 154.0 -191.75 160.05 -187.05 169.25 -180.35 178.65 L-180.4 185.0" fill="url(#gradient24)" fill-rule="evenodd" stroke="none"/>
    <path d="M-189.05 73.0 Q-191.25 70.4 -193.45 69.3 L-195.0 68.8 Q-189.2 62.5 -190.1 54.5 L-183.3 57.0 Q-183.2 68.7 -189.05 73.0" fill="url(#gradient25)" fill-rule="evenodd" stroke="none"/>
    <path d="M-201.25 62.95 Q-206.8 58.5 -213.8 55.85 -205.2 55.05 -201.95 48.6 L-197.5 50.75 -193.0 53.05 -190.1 54.5 Q-189.2 62.5 -195.0 68.8 L-195.05 68.8 Q-197.85 65.5 -201.25 62.95" fill="url(#gradient26)" fill-rule="evenodd" stroke="none"/>
    <path d="M-203.1 75.45 Q-203.15 69.2 -201.25 62.95 -197.85 65.5 -195.05 68.8 -196.85 68.5 -198.55 69.3 -202.1 72.1 -203.1 75.45" fill="url(#gradient27)" fill-rule="evenodd" stroke="none"/>
    <path d="M-176.7 193.55 Q-180.45 193.55 -180.4 190.05 L-180.4 185.0 -180.35 178.65 -180.1 99.85 -176.75 93.8 Q-174.4 98.65 -172.8 104.2 -171.8 108.45 -169.85 112.9 L-170.15 193.55 -176.7 193.55 M-173.95 122.3 Q-174.55 120.8 -175.3 120.75 -176.1 120.8 -176.55 122.3 -177.1 123.9 -177.1 126.05 -177.1 128.2 -176.6 129.75 -176.1 131.3 -175.3 131.3 -174.55 131.3 -174.05 129.75 -173.5 128.2 -173.55 126.05 -173.5 123.85 -173.95 122.3 M-173.75 177.4 Q-173.75 175.2 -174.2 173.65 -174.75 172.1 -175.55 172.05 -176.35 172.1 -176.8 173.65 -177.3 175.2 -177.35 177.35 -177.3 179.5 -176.85 181.05 -176.3 182.6 -175.5 182.65 -174.75 182.6 -174.3 181.05 -173.75 179.5 -173.75 177.4" fill="url(#gradient28)" fill-rule="evenodd" stroke="none"/>
    <path d="M-173.95 122.3 Q-173.5 123.85 -173.55 126.05 -173.5 128.2 -174.05 129.75 -174.55 131.3 -175.3 131.3 -176.1 131.3 -176.6 129.75 -177.1 128.2 -177.1 126.05 -177.1 123.9 -176.55 122.3 -176.1 120.8 -175.3 120.75 -174.55 120.8 -173.95 122.3" fill="url(#gradient29)" fill-rule="evenodd" stroke="none"/>
    <path d="M-209.05 128.2 L-209.0 125.85 -210.85 125.8 -210.75 118.0 -206.35 118.05 Q-206.05 123.2 -205.4 128.15 L-209.05 128.2" fill="url(#gradient30)" fill-rule="evenodd" stroke="none"/>
    <path d="M-204.95 130.8 L-210.9 130.8 -210.9 128.05 -209.05 128.2 -205.4 128.15 -204.95 130.8" fill="url(#gradient31)" fill-rule="evenodd" stroke="none"/>
    <path d="M-184.15 179.7 L-203.8 230.85 -207.8 230.6 -207.6 228.75 -204.95 228.9 -186.4 176.25 -184.15 179.7" fill="url(#gradient32)" fill-rule="evenodd" stroke="none"/>
    <path d="M-173.75 177.4 Q-173.75 179.5 -174.3 181.05 -174.75 182.6 -175.5 182.65 -176.3 182.6 -176.85 181.05 -177.3 179.5 -177.35 177.35 -177.3 175.2 -176.8 173.65 -176.35 172.1 -175.55 172.05 -174.75 172.1 -174.2 173.65 -173.75 175.2 -173.75 177.4" fill="url(#gradient33)" fill-rule="evenodd" stroke="none"/>
    <path d="M-170.25 205.2 Q-172.7 198.2 -176.7 193.55 L-170.15 193.55 -170.25 205.2" fill="url(#gradient34)" fill-rule="evenodd" stroke="none"/>
    <path d="M-130.3 15.85 Q-127.95 18.85 -131.45 19.75 -138.7 17.35 -147.6 17.65 -156.5 17.35 -163.75 19.75 -167.25 18.85 -164.9 15.85 -156.45 12.55 -147.6 12.75 -138.75 12.55 -130.3 15.85 M-126.75 52.6 Q-125.3 55.25 -124.7 58.35 -124.15 61.15 -124.35 64.45 -124.8 71.25 -128.2 75.7 -131.55 80.3 -135.9 80.0 -140.3 79.65 -143.0 74.65 -145.8 69.7 -145.45 63.0 L-145.25 60.35 Q-144.9 56.0 -141.6 51.6 -138.2 47.05 -133.8 47.45 -129.55 47.7 -126.75 52.6 M-149.75 63.0 Q-149.4 69.7 -152.2 74.65 -154.9 79.65 -159.3 80.0 -163.65 80.3 -167.0 75.7 -170.4 71.25 -170.85 64.45 -171.05 61.15 -170.5 58.35 -169.9 55.25 -168.45 52.6 -165.65 47.7 -161.4 47.45 -157.0 47.05 -153.6 51.6 -150.3 56.0 -149.95 60.35 L-149.75 63.0" fill="#ffffff" fill-rule="evenodd" stroke="none"/>
    <path d="M-166.25 -10.15 Q-173.2 1.9 -173.3 15.05 L-180.2 15.05 -180.2 17.05 -182.35 16.9 Q-182.2 -3.25 -171.25 -12.25 L-168.55 -14.1 Q-165.35 -15.95 -161.65 -17.1 -163.7 -14.45 -165.35 -11.7 L-168.45 -10.15 -166.25 -10.15 M-133.55 -17.1 Q-129.85 -15.95 -126.65 -14.1 L-123.95 -12.25 Q-113.0 -3.25 -112.85 16.9 L-115.0 17.05 -115.0 15.05 -121.9 15.05 Q-122.0 1.9 -128.9 -10.15 L-126.75 -10.15 -129.85 -11.7 -133.55 -17.1 M-54.75 47.45 Q-58.0 51.8 -62.7 53.55 -70.9 56.3 -81.4 55.85 -88.4 58.5 -93.95 62.95 -92.05 69.2 -92.1 75.45 -91.9 75.8 -91.85 76.3 -88.3 92.25 -88.45 109.0 -88.5 113.55 -88.85 118.05 -89.15 123.2 -89.8 128.15 L-90.25 130.8 -90.25 131.45 Q-91.8 146.2 -99.2 158.65 -105.9 173.0 -114.8 185.0 L-115.1 99.85 -118.45 93.8 Q-120.8 98.65 -122.4 104.2 -123.4 108.45 -125.35 112.9 L-124.85 233.1 -125.0 237.05 Q-125.65 249.55 -131.6 258.3 L-132.85 259.65 -132.85 121.4 Q-138.55 125.6 -145.7 125.3 L-146.9 125.35 -147.6 125.4 -148.3 125.35 -149.5 125.3 Q-156.85 125.65 -162.65 121.2 L-162.65 259.35 -163.6 258.3 Q-169.55 249.55 -170.2 237.05 L-170.35 233.1 -169.85 112.9 Q-171.8 108.45 -172.8 104.2 -174.4 98.65 -176.75 93.8 L-180.1 99.85 -180.4 185.0 -184.15 179.7 -186.4 176.25 Q-191.65 167.95 -196.0 158.65 -203.4 146.2 -204.95 131.45 L-204.95 130.8 -205.4 128.15 Q-206.05 123.2 -206.35 118.05 L-206.75 109.0 Q-206.9 92.25 -203.35 76.3 L-203.1 75.45 Q-203.15 69.2 -201.25 62.95 -206.8 58.5 -213.8 55.85 -224.3 56.3 -232.5 53.55 -237.2 51.8 -240.45 47.45 -244.9 41.9 -239.1 36.4 L-238.6 36.15 Q-238.45 51.95 -204.4 52.0 L-184.25 65.5 Q-171.4 79.65 -166.3 99.3 -161.3 112.55 -147.6 112.7 -133.9 112.55 -128.9 99.3 -123.8 79.65 -110.95 65.5 L-90.8 52.0 -90.75 52.0 Q-56.8 51.95 -56.6 36.15 L-56.1 36.4 Q-50.3 41.9 -54.75 47.45 M-116.6 23.4 L-115.0 23.4 Q-112.0 29.15 -106.5 30.8 -99.1 40.5 -97.7 50.75 L-102.2 53.05 Q-106.5 43.4 -114.9 37.0 L-115.05 29.5 -116.55 29.55 -116.6 23.4 M-131.1 19.65 Q-128.05 18.7 -130.3 15.85 L-132.45 15.1 -133.6 11.1 Q-128.6 12.6 -124.8 15.6 L-124.8 23.4 -122.45 23.45 -122.4 29.55 -123.6 29.55 -123.55 31.9 -128.15 29.9 -131.1 19.65 M-162.75 15.1 L-164.9 15.85 Q-166.0 17.25 -165.8 18.2 L-165.25 19.05 Q-164.85 19.45 -164.05 19.7 L-167.05 29.9 Q-169.45 30.85 -171.65 31.9 L-171.6 29.55 -172.8 29.55 -172.75 23.45 -170.4 23.4 -170.4 15.6 Q-166.6 12.6 -161.55 11.1 L-162.75 15.1 M-178.6 23.4 L-178.65 29.55 -180.15 29.5 -180.3 37.0 Q-188.7 43.4 -193.0 53.05 L-197.5 50.75 Q-196.1 40.5 -188.7 30.8 -183.2 29.15 -180.2 23.4 L-178.6 23.4" fill="#010101" fill-opacity="0.2" fill-rule="evenodd" stroke="none"/>
    <path d="M-112.1 45.05 L-114.35 50.65 Q-131.25 40.9 -147.6 41.2 -163.95 40.9 -180.85 50.65 L-183.1 45.05 Q-165.35 31.4 -147.6 31.65 -129.85 31.4 -112.1 45.05 M-88.05 38.9 Q-79.55 32.85 -63.7 37.2 -63.75 46.4 -88.05 38.9 M-207.15 38.9 Q-231.45 46.4 -231.5 37.2 -215.65 32.85 -207.15 38.9" fill="#ffffff" fill-opacity="0.4" fill-rule="evenodd" stroke="none"/>
    <path d="M-132.45 15.1 L-130.3 15.85 Q-128.05 18.7 -131.1 19.65 L-131.45 19.75 Q-138.7 17.35 -147.6 17.65 -156.5 17.35 -163.75 19.75 L-164.05 19.7 Q-164.85 19.45 -165.25 19.05 L-165.8 18.2 Q-166.0 17.25 -164.9 15.85 L-162.75 15.1 Q-155.3 12.6 -147.6 12.75 -139.9 12.6 -132.45 15.1" fill="url(#gradient35)" fill-rule="evenodd" stroke="none"/>
    <path d="M-124.7 58.35 Q-124.15 61.15 -124.35 64.45 -124.8 71.25 -128.2 75.7 -131.55 80.3 -135.9 80.0 -140.3 79.65 -143.0 74.65 -145.8 69.7 -145.45 63.0 L-145.25 60.35 Q-142.25 70.45 -135.45 70.95 -127.95 71.75 -124.7 58.35" fill="url(#gradient36)" fill-rule="evenodd" stroke="none"/>
    <path d="M-124.7 58.35 Q-127.95 71.75 -135.45 70.95 -142.25 70.45 -145.25 60.35 -144.9 56.0 -141.6 51.6 -138.2 47.05 -133.8 47.45 -129.55 47.7 -126.75 52.6 -125.3 55.25 -124.7 58.35" fill="url(#gradient37)" fill-rule="evenodd" stroke="none"/>
    <path d="M-170.5 58.35 Q-169.9 55.25 -168.45 52.6 -165.65 47.7 -161.4 47.45 -157.0 47.05 -153.6 51.6 -150.3 56.0 -149.95 60.35 -152.95 70.45 -159.75 70.95 -167.25 71.75 -170.5 58.35" fill="url(#gradient38)" fill-rule="evenodd" stroke="none"/>
    <path d="M-149.95 60.35 L-149.75 63.0 Q-149.4 69.7 -152.2 74.65 -154.9 79.65 -159.3 80.0 -163.65 80.3 -167.0 75.7 -170.4 71.25 -170.85 64.45 -171.05 61.15 -170.5 58.35 -167.25 71.75 -159.75 70.95 -152.95 70.45 -149.95 60.35" fill="url(#gradient39)" fill-rule="evenodd" stroke="none"/>
  </g>
  <defs>
    <linearGradient gradientTransform="matrix(0.0, -0.0219, 0.0424, 0.0, -147.6, -0.9)" gradientUnits="userSpaceOnUse" id="gradient0" spreadMethod="pad" x1="-819.2" x2="819.2">
      <stop offset="0.0" stop-color="#000000" stop-opacity="0.0"/>
      <stop offset="1.0" stop-color="#000000" stop-opacity="0.2509804"/>
    </linearGradient>
    <linearGradient gradientTransform="matrix(0.0, -0.0094, 0.0047, 0.0, -80.2, 24.3)" gradientUnits="userSpaceOnUse" id="gradient1" spreadMethod="pad" x1="-819.2" x2="819.2">
      <stop offset="0.0" stop-color="#000000" stop-opacity="0.0"/>
      <stop offset="1.0" stop-color="#000000" stop-opacity="0.2509804"/>
    </linearGradient>
    <radialGradient cx="0" cy="0" gradientTransform="matrix(0.0261, 0.0, 0.0, 0.0261, -73.85, 43.2)" gradientUnits="userSpaceOnUse" id="gradient2" r="819.2" spreadMethod="pad">
      <stop offset="0.0" stop-color="#000000" stop-opacity="0.0"/>
      <stop offset="1.0" stop-color="#000000" stop-opacity="0.2509804"/>
    </radialGradient>
    <linearGradient gradientTransform="matrix(0.0, -0.0033, 0.0042, 0.0, -102.35, 14.3)" gradientUnits="userSpaceOnUse" id="gradient3" spreadMethod="pad" x1="-819.2" x2="819.2">
      <stop offset="0.0" stop-color="#000000" stop-opacity="0.0"/>
      <stop offset="1.0" stop-color="#000000" stop-opacity="0.2509804"/>
    </linearGradient>
    <linearGradient gradientTransform="matrix(0.0, -0.0181, 0.0115, 0.0, -107.15, 38.25)" gradientUnits="userSpaceOnUse" id="gradient4" spreadMethod="pad" x1="-819.2" x2="819.2">
      <stop offset="0.0" stop-color="#000000" stop-opacity="0.0"/>
      <stop offset="1.0" stop-color="#000000" stop-opacity="0.2509804"/>
    </linearGradient>
    <linearGradient gradientTransform="matrix(0.0, -0.0091, 0.0149, 0.0, -102.85, 26.65)" gradientUnits="userSpaceOnUse" id="gradient5" spreadMethod="pad" x1="-819.2" x2="819.2">
      <stop offset="0.0" stop-color="#000000" stop-opacity="0.0"/>
      <stop offset="1.0" stop-color="#000000" stop-opacity="0.2509804"/>
    </linearGradient>
    <linearGradient gradientTransform="matrix(0.0, -0.0038, 0.0036, 0.0, -119.5, 26.5)" gradientUnits="userSpaceOnUse" id="gradient6" spreadMethod="pad" x1="-819.2" x2="819.2">
      <stop offset="0.0" stop-color="#000000" stop-opacity="0.0"/>
      <stop offset="1.0" stop-color="#000000" stop-opacity="0.2509804"/>
    </linearGradient>
    <radialGradient cx="0" cy="0" gradientTransform="matrix(0.1003, 0.0, 0.0, 0.1003, -148.15, 44.2)" gradientUnits="userSpaceOnUse" id="gradient7" r="819.2" spreadMethod="pad">
      <stop offset="0.0" stop-color="#000000" stop-opacity="0.0"/>
      <stop offset="1.0" stop-color="#000000" stop-opacity="0.2509804"/>
    </radialGradient>
    <linearGradient gradientTransform="matrix(0.0, -0.0076, 0.0049, 0.0, -96.15, 69.2)" gradientUnits="userSpaceOnUse" id="gradient8" spreadMethod="pad" x1="-819.2" x2="819.2">
      <stop offset="0.0" stop-color="#000000" stop-opacity="0.0"/>
      <stop offset="1.0" stop-color="#000000" stop-opacity="0.2509804"/>
    </linearGradient>
    <linearGradient gradientTransform="matrix(0.0, -0.071, 0.0183, 0.0, -103.45, 126.85)" gradientUnits="userSpaceOnUse" id="gradient9" spreadMethod="pad" x1="-819.2" x2="819.2">
      <stop offset="0.0" stop-color="#000000" stop-opacity="0.0"/>
      <stop offset="1.0" stop-color="#000000" stop-opacity="0.2509804"/>
    </linearGradient>
    <linearGradient gradientTransform="matrix(0.0, -0.0123, 0.0145, 0.0, -93.3, 58.7)" gradientUnits="userSpaceOnUse" id="gradient10" spreadMethod="pad" x1="-819.2" x2="819.2">
      <stop offset="0.0" stop-color="#000000" stop-opacity="0.0"/>
      <stop offset="1.0" stop-color="#000000" stop-opacity="0.2509804"/>
    </linearGradient>
    <linearGradient gradientTransform="matrix(0.0, -0.0113, 0.0071, 0.0, -106.05, 63.75)" gradientUnits="userSpaceOnUse" id="gradient11" spreadMethod="pad" x1="-819.2" x2="819.2">
      <stop offset="0.0" stop-color="#000000" stop-opacity="0.0"/>
      <stop offset="1.0" stop-color="#000000" stop-opacity="0.2509804"/>
    </linearGradient>
    <linearGradient gradientTransform="matrix(0.0, -0.0062, 0.0033, 0.0, -87.1, 123.1)" gradientUnits="userSpaceOnUse" id="gradient12" spreadMethod="pad" x1="-819.2" x2="819.2">
      <stop offset="0.0" stop-color="#000000" stop-opacity="0.0"/>
      <stop offset="1.0" stop-color="#000000" stop-opacity="0.2509804"/>
    </linearGradient>
    <linearGradient gradientTransform="matrix(0.0064, 0.0, 0.0, 0.0609, -120.1, 143.65)" gradientUnits="userSpaceOnUse" id="gradient13" spreadMethod="pad" x1="-819.2" x2="819.2">
      <stop offset="0.0" stop-color="#000000" stop-opacity="0.2509804"/>
      <stop offset="0.5098039215686274" stop-color="#000000" stop-opacity="0.0"/>
      <stop offset="1.0" stop-color="#000000" stop-opacity="0.2509804"/>
    </linearGradient>
    <linearGradient gradientTransform="matrix(0.0, -0.0064, 0.0022, 0.0, -119.9, 126.05)" gradientUnits="userSpaceOnUse" id="gradient14" spreadMethod="pad" x1="-819.2" x2="819.2">
      <stop offset="0.0" stop-color="#000000" stop-opacity="0.0"/>
      <stop offset="1.0" stop-color="#000000" stop-opacity="0.2509804"/>
    </linearGradient>
    <linearGradient gradientTransform="matrix(0.0, -0.0017, 0.0036, 0.0, -87.3, 129.45)" gradientUnits="userSpaceOnUse" id="gradient15" spreadMethod="pad" x1="-819.2" x2="819.2">
      <stop offset="0.0" stop-color="#000000" stop-opacity="0.0"/>
      <stop offset="1.0" stop-color="#000000" stop-opacity="0.2509804"/>
    </linearGradient>
    <linearGradient gradientTransform="matrix(0.0, -0.0065, 0.0022, 0.0, -119.65, 177.35)" gradientUnits="userSpaceOnUse" id="gradient16" spreadMethod="pad" x1="-819.2" x2="819.2">
      <stop offset="0.0" stop-color="#000000" stop-opacity="0.0"/>
      <stop offset="1.0" stop-color="#000000" stop-opacity="0.2509804"/>
    </linearGradient>
    <linearGradient gradientTransform="matrix(0.0, -0.0071, 0.004, 0.0, -121.8, 199.4)" gradientUnits="userSpaceOnUse" id="gradient17" spreadMethod="pad" x1="-819.2" x2="819.2">
      <stop offset="0.0" stop-color="#000000" stop-opacity="0.0"/>
      <stop offset="1.0" stop-color="#000000" stop-opacity="0.2509804"/>
    </linearGradient>
    <linearGradient gradientTransform="matrix(0.0, -0.0038, 0.0036, 0.0, -175.7, 26.5)" gradientUnits="userSpaceOnUse" id="gradient18" spreadMethod="pad" x1="-819.2" x2="819.2">
      <stop offset="0.0" stop-color="#000000" stop-opacity="0.0"/>
      <stop offset="1.0" stop-color="#000000" stop-opacity="0.2509804"/>
    </linearGradient>
    <linearGradient gradientTransform="matrix(0.0, -0.0091, 0.0149, 0.0, -192.4, 26.65)" gradientUnits="userSpaceOnUse" id="gradient19" spreadMethod="pad" x1="-819.2" x2="819.2">
      <stop offset="0.0" stop-color="#000000" stop-opacity="0.0"/>
      <stop offset="1.0" stop-color="#000000" stop-opacity="0.2509804"/>
    </linearGradient>
    <linearGradient gradientTransform="matrix(0.0, -0.0181, 0.0115, 0.0, -188.05, 38.25)" gradientUnits="userSpaceOnUse" id="gradient20" spreadMethod="pad" x1="-819.2" x2="819.2">
      <stop offset="0.0" stop-color="#000000" stop-opacity="0.0"/>
      <stop offset="1.0" stop-color="#000000" stop-opacity="0.2509804"/>
    </linearGradient>
    <linearGradient gradientTransform="matrix(0.0, -0.0033, 0.0042, 0.0, -192.9, 14.3)" gradientUnits="userSpaceOnUse" id="gradient21" spreadMethod="pad" x1="-819.2" x2="819.2">
      <stop offset="0.0" stop-color="#000000" stop-opacity="0.0"/>
      <stop offset="1.0" stop-color="#000000" stop-opacity="0.2509804"/>
    </linearGradient>
    <linearGradient gradientTransform="matrix(0.0, -0.0094, 0.0047, 0.0, -215.0, 24.3)" gradientUnits="userSpaceOnUse" id="gradient22" spreadMethod="pad" x1="-819.2" x2="819.2">
      <stop offset="0.0" stop-color="#000000" stop-opacity="0.0"/>
      <stop offset="1.0" stop-color="#000000" stop-opacity="0.2509804"/>
    </linearGradient>
    <radialGradient cx="0" cy="0" gradientTransform="matrix(0.0264, 0.0, 0.0, 0.0264, -221.05, 41.8)" gradientUnits="userSpaceOnUse" id="gradient23" r="819.2" spreadMethod="pad">
      <stop offset="0.0" stop-color="#000000" stop-opacity="0.0"/>
      <stop offset="1.0" stop-color="#000000" stop-opacity="0.2509804"/>
    </radialGradient>
    <linearGradient gradientTransform="matrix(0.0, -0.071, 0.0183, 0.0, -191.75, 126.85)" gradientUnits="userSpaceOnUse" id="gradient24" spreadMethod="pad" x1="-819.2" x2="819.2">
      <stop offset="0.0" stop-color="#000000" stop-opacity="0.0"/>
      <stop offset="1.0" stop-color="#000000" stop-opacity="0.2509804"/>
    </linearGradient>
    <linearGradient gradientTransform="matrix(0.0, -0.0113, 0.0071, 0.0, -189.15, 63.75)" gradientUnits="userSpaceOnUse" id="gradient25" spreadMethod="pad" x1="-819.2" x2="819.2">
      <stop offset="0.0" stop-color="#000000" stop-opacity="0.0"/>
      <stop offset="1.0" stop-color="#000000" stop-opacity="0.2509804"/>
    </linearGradient>
    <linearGradient gradientTransform="matrix(0.0, -0.0123, 0.0145, 0.0, -201.9, 58.7)" gradientUnits="userSpaceOnUse" id="gradient26" spreadMethod="pad" x1="-819.2" x2="819.2">
      <stop offset="0.0" stop-color="#000000" stop-opacity="0.0"/>
      <stop offset="1.0" stop-color="#000000" stop-opacity="0.2509804"/>
    </linearGradient>
    <linearGradient gradientTransform="matrix(0.0, -0.0076, 0.0049, 0.0, -199.1, 69.2)" gradientUnits="userSpaceOnUse" id="gradient27" spreadMethod="pad" x1="-819.2" x2="819.2">
      <stop offset="0.0" stop-color="#000000" stop-opacity="0.0"/>
      <stop offset="1.0" stop-color="#000000" stop-opacity="0.2509804"/>
    </linearGradient>
    <linearGradient gradientTransform="matrix(0.0064, 0.0, 0.0, 0.0609, -175.15, 143.65)" gradientUnits="userSpaceOnUse" id="gradient28" spreadMethod="pad" x1="-819.2" x2="819.2">
      <stop offset="0.0" stop-color="#000000" stop-opacity="0.2509804"/>
      <stop offset="0.5098039215686274" stop-color="#000000" stop-opacity="0.0"/>
      <stop offset="1.0" stop-color="#000000" stop-opacity="0.2509804"/>
    </linearGradient>
    <linearGradient gradientTransform="matrix(0.0, -0.0064, 0.0022, 0.0, -175.35, 126.05)" gradientUnits="userSpaceOnUse" id="gradient29" spreadMethod="pad" x1="-819.2" x2="819.2">
      <stop offset="0.0" stop-color="#000000" stop-opacity="0.0"/>
      <stop offset="1.0" stop-color="#000000" stop-opacity="0.2509804"/>
    </linearGradient>
    <linearGradient gradientTransform="matrix(0.0, -0.0062, 0.0033, 0.0, -208.15, 123.1)" gradientUnits="userSpaceOnUse" id="gradient30" spreadMethod="pad" x1="-819.2" x2="819.2">
      <stop offset="0.0" stop-color="#000000" stop-opacity="0.0"/>
      <stop offset="1.0" stop-color="#000000" stop-opacity="0.2509804"/>
    </linearGradient>
    <linearGradient gradientTransform="matrix(0.0, -0.0017, 0.0036, 0.0, -207.95, 129.45)" gradientUnits="userSpaceOnUse" id="gradient31" spreadMethod="pad" x1="-819.2" x2="819.2">
      <stop offset="0.0" stop-color="#000000" stop-opacity="0.0"/>
      <stop offset="1.0" stop-color="#000000" stop-opacity="0.2509804"/>
    </linearGradient>
    <linearGradient gradientTransform="matrix(0.0, -0.0333, 0.0144, 0.0, -196.0, 203.55)" gradientUnits="userSpaceOnUse" id="gradient32" spreadMethod="pad" x1="-819.2" x2="819.2">
      <stop offset="0.0" stop-color="#000000" stop-opacity="0.0"/>
      <stop offset="1.0" stop-color="#000000" stop-opacity="0.2509804"/>
    </linearGradient>
    <linearGradient gradientTransform="matrix(0.0, -0.0065, 0.0022, 0.0, -175.55, 177.35)" gradientUnits="userSpaceOnUse" id="gradient33" spreadMethod="pad" x1="-819.2" x2="819.2">
      <stop offset="0.0" stop-color="#000000" stop-opacity="0.0"/>
      <stop offset="1.0" stop-color="#000000" stop-opacity="0.2509804"/>
    </linearGradient>
    <linearGradient gradientTransform="matrix(0.0, -0.0071, 0.004, 0.0, -173.45, 199.4)" gradientUnits="userSpaceOnUse" id="gradient34" spreadMethod="pad" x1="-819.2" x2="819.2">
      <stop offset="0.0" stop-color="#000000" stop-opacity="0.0"/>
      <stop offset="1.0" stop-color="#000000" stop-opacity="0.2509804"/>
    </linearGradient>
    <linearGradient gradientTransform="matrix(0.0, -0.0043, 0.0223, 0.0, -147.6, 16.25)" gradientUnits="userSpaceOnUse" id="gradient35" spreadMethod="pad" x1="-819.2" x2="819.2">
      <stop offset="0.0" stop-color="#000000" stop-opacity="0.0"/>
      <stop offset="1.0" stop-color="#000000" stop-opacity="0.2509804"/>
    </linearGradient>
    <radialGradient cx="0" cy="0" gradientTransform="matrix(0.0234, 0.0, 0.0, 0.0234, -134.55, 73.8)" gradientUnits="userSpaceOnUse" id="gradient36" r="819.2" spreadMethod="pad">
      <stop offset="0.0" stop-color="#000000" stop-opacity="0.0"/>
      <stop offset="1.0" stop-color="#000000" stop-opacity="0.2509804"/>
    </radialGradient>
    <radialGradient cx="0" cy="0" gradientTransform="matrix(0.0153, 0.0, 0.0, 0.0153, -135.0, 58.75)" gradientUnits="userSpaceOnUse" id="gradient37" r="819.2" spreadMethod="pad">
      <stop offset="0.0" stop-color="#000000" stop-opacity="0.0"/>
      <stop offset="1.0" stop-color="#000000" stop-opacity="0.2509804"/>
    </radialGradient>
    <radialGradient cx="0" cy="0" gradientTransform="matrix(0.0153, 0.0, 0.0, 0.0153, -160.4, 58.75)" gradientUnits="userSpaceOnUse" id="gradient38" r="819.2" spreadMethod="pad">
      <stop offset="0.0" stop-color="#000000" stop-opacity="0.0"/>
      <stop offset="1.0" stop-color="#000000" stop-opacity="0.2509804"/>
    </radialGradient>
    <radialGradient cx="0" cy="0" gradientTransform="matrix(0.0247, 0.0, 0.0, 0.0247, -160.85, 75.25)" gradientUnits="userSpaceOnUse" id="gradient39" r="819.2" spreadMethod="pad">
      <stop offset="0.0" stop-color="#000000" stop-opacity="0.0"/>
      <stop offset="1.0" stop-color="#000000" stop-opacity="0.2509804"/>
    </radialGradient>
  </defs>
</svg>
