<?xml version="1.0" encoding="UTF-8" standalone="no"?>
<svg xmlns:xlink="http://www.w3.org/1999/xlink" height="30.0px" width="33.45px" xmlns="http://www.w3.org/2000/svg">
  <g transform="matrix(1.0, 0.0, 0.0, 1.0, -383.85, -209.85)">
    <path d="M415.4 226.25 Q417.3 228.2 417.3 231.15 417.3 233.5 415.95 235.45 414.65 237.35 412.3 238.45 410.85 239.15 408.0 239.45 L403.1 239.85 383.85 239.85 383.85 209.85 404.65 209.85 Q409.95 209.85 412.8 212.05 415.65 214.25 415.65 217.5 415.65 220.2 413.6 222.2 412.25 223.5 409.95 223.8 413.55 224.3 415.4 226.25 M400.05 216.55 L395.8 216.55 395.8 221.25 400.0 221.25 Q402.35 221.25 403.2 220.65 404.05 220.0 404.05 218.85 404.05 217.75 403.2 217.15 402.35 216.55 400.05 216.55 M395.8 232.75 L400.85 232.75 Q403.45 232.75 404.45 232.05 405.45 231.35 405.45 230.15 405.45 229.05 404.45 228.35 403.45 227.7 400.8 227.7 L395.8 227.7 395.8 232.75" fill="#000000" fill-rule="evenodd" stroke="none"/>
  </g>
</svg>
