<?xml version="1.0" encoding="UTF-8" standalone="no"?>
<svg xmlns:xlink="http://www.w3.org/1999/xlink" height="32.05px" width="30.7px" xmlns="http://www.w3.org/2000/svg">
  <g transform="matrix(1.0, 0.0, 0.0, 1.0, -384.55, -208.8)">
    <path d="M411.4 236.55 Q408.05 240.35 399.85 240.35 395.3 240.35 392.45 239.15 389.6 237.9 388.05 235.75 386.5 233.9 385.75 231.05 385.05 228.2 385.05 224.7 385.05 216.2 388.8 212.75 392.5 209.3 400.1 209.3 403.75 209.3 406.1 210.05 408.5 210.85 410.0 212.05 L412.35 214.6 Q413.25 215.95 413.75 217.7 414.75 221.0 414.75 224.6 414.75 232.7 411.4 236.55 M396.7 217.4 Q395.7 219.3 395.7 224.7 395.7 230.25 396.8 232.15 397.9 234.0 399.85 234.0 401.1 234.0 402.1 233.25 403.05 232.45 403.55 230.7 404.05 228.85 404.05 224.95 404.05 219.25 402.95 217.4 401.85 215.55 399.8 215.55 397.7 215.55 396.7 217.4" fill="none" stroke="#000000" stroke-linecap="round" stroke-linejoin="round" stroke-opacity="0.5019608" stroke-width="1.0"/>
  </g>
</svg>
