<?xml version="1.0" encoding="UTF-8" standalone="no"?>
<svg xmlns:xlink="http://www.w3.org/1999/xlink" height="49.0px" width="125.15px" xmlns="http://www.w3.org/2000/svg">
  <g transform="matrix(1.0, 0.0, 0.0, 1.0, -284.6, -350.25)">
    <path d="M334.8 351.8 Q336.65 351.55 337.9 352.9 335.1 359.75 334.9 365.15 L355.25 373.3 362.25 376.2 369.1 379.05 373.05 380.7 389.7 387.9 393.3 389.5 398.6 391.85 Q407.45 395.75 409.75 399.0 405.9 399.95 396.65 397.25 L384.05 393.6 379.7 392.35 360.3 386.4 355.75 385.0 348.05 382.5 340.25 380.0 330.65 376.8 Q327.35 381.0 325.1 388.05 323.25 388.3 322.0 386.95 L322.9 384.75 323.55 383.15 Q325.85 377.6 327.8 373.75 L327.5 373.5 329.3 369.7 Q330.05 367.6 330.4 365.55 L330.75 365.6 Q331.75 361.4 333.55 355.7 L334.1 354.0 334.8 351.8 M295.35 354.3 Q295.7 355.7 295.25 357.15 L295.15 357.25 Q294.6 358.75 293.35 359.65 L292.95 359.85 292.5 360.15 288.55 360.3 Q286.55 359.55 285.65 357.65 285.05 356.35 285.15 355.05 285.0 354.95 285.0 354.65 L284.8 354.15 Q284.55 353.85 284.65 353.45 L284.75 353.3 Q284.95 353.05 285.25 352.95 L285.7 352.7 286.1 352.5 Q286.9 351.35 288.15 350.75 L292.1 350.6 Q294.1 351.3 295.0 353.25 L295.15 353.8 295.35 354.3" fill="#ffffff" fill-rule="evenodd" stroke="none"/>
  </g>
</svg>
