<?xml version="1.0" encoding="UTF-8" standalone="no"?>
<svg xmlns:xlink="http://www.w3.org/1999/xlink" height="112.25px" width="302.05px" xmlns="http://www.w3.org/2000/svg">
  <g transform="matrix(1.0, 0.0, 0.0, 1.0, 143.7, -41.9)">
    <path d="M-134.7 54.4 L-143.7 47.45 Q-143.5 44.4 -141.7 41.9 L-130.25 42.3 Q-134.4 47.75 -134.7 54.4" fill="url(#gradient0)" fill-rule="evenodd" stroke="none"/>
    <path d="M-130.25 42.3 L-128.1 45.6 Q-131.45 49.55 -130.95 53.35 L-134.7 54.4 Q-134.4 47.75 -130.25 42.3" fill="url(#gradient1)" fill-rule="evenodd" stroke="none"/>
    <path d="M-74.5 65.05 L-75.45 65.4 -75.8 65.65 Q-77.5 66.5 -78.95 67.85 -78.7 69.85 -77.95 71.5 L-77.75 72.0 -77.35 72.85 -130.95 53.35 Q-131.45 49.55 -128.1 45.6 L-74.5 65.05" fill="url(#gradient2)" fill-rule="evenodd" stroke="none"/>
    <path d="M-71.05 70.7 L-76.7 68.65 Q-72.2 64.6 -66.3 66.1 L-60.3 68.25 -60.2 74.65 -63.5 73.4 Q-62.95 71.9 -63.65 70.35 -64.45 68.9 -65.95 68.3 -67.5 67.75 -68.95 68.55 -70.5 69.2 -71.05 70.7" fill="url(#gradient3)" fill-rule="evenodd" stroke="none"/>
    <path d="M-63.5 73.4 Q-64.05 74.9 -65.6 75.55 L-68.7 75.75 Q-70.25 75.2 -70.9 73.7 -71.6 72.2 -71.05 70.7 -70.5 69.2 -68.95 68.55 -67.5 67.75 -65.95 68.3 -64.45 68.9 -63.65 70.35 -62.95 71.9 -63.5 73.4" fill="url(#gradient4)" fill-rule="evenodd" stroke="none"/>
    <path d="M-71.05 70.7 Q-71.6 72.2 -70.9 73.7 -70.25 75.2 -68.7 75.75 L-65.6 75.55 Q-64.05 74.9 -63.5 73.4 L-60.2 74.65 -64.35 79.5 -70.35 77.25 Q-75.8 74.65 -76.7 68.65 L-71.05 70.7" fill="url(#gradient5)" fill-rule="evenodd" stroke="none"/>
    <path d="M-58.0 69.8 L-40.25 76.3 -43.9 86.2 -61.7 79.7 -57.9 75.45 -58.0 69.8" fill="url(#gradient6)" fill-rule="evenodd" stroke="none"/>
    <path d="M-37.7 79.5 L-39.85 85.4 -40.85 88.25 Q-44.1 87.6 -43.9 86.2 L-40.25 76.3 Q-39.55 75.15 -36.65 76.55 L-37.7 79.5" fill="url(#gradient7)" fill-rule="evenodd" stroke="none"/>
    <path d="M135.5 145.85 Q134.4 143.2 130.55 141.75 L-37.7 79.5 -36.65 76.55 -32.75 75.4 133.4 138.95 Q145.9 143.75 158.35 154.15 L135.5 145.85" fill="url(#gradient8)" fill-rule="evenodd" stroke="none"/>
    <path d="M135.5 145.85 Q132.95 147.1 129.05 145.8 L-39.85 85.4 -37.7 79.5 130.55 141.75 Q134.4 143.2 135.5 145.85" fill="url(#gradient9)" fill-rule="evenodd" stroke="none"/>
    <path d="M-39.85 85.4 L129.05 145.8 Q132.95 147.1 135.5 145.85 L158.35 154.15 Q142.05 154.25 129.4 149.8 L-38.65 91.6 -40.85 88.25 -39.85 85.4" fill="url(#gradient10)" fill-rule="evenodd" stroke="none"/>
    <path d="M-60.5 66.5 L-60.1 65.85 -59.6 65.25 -59.1 64.6 -58.4 63.85 -57.95 63.35 -57.35 62.75 -56.85 62.3 -56.35 61.8 Q-56.05 61.5 -55.6 61.3 L-54.9 60.85 -54.25 60.4 -53.4 60.1 -52.75 59.75 -51.9 59.45 -51.25 59.3 -50.75 59.05 -50.35 58.7 -38.05 45.25 Q-36.65 43.7 -35.8 43.85 -35.35 44.55 -36.8 46.2 L-50.05 60.8 Q-55.1 61.15 -58.95 67.15 L-60.5 66.5" fill="url(#gradient11)" fill-rule="evenodd" stroke="none"/>
    <path d="M-65.65 80.7 L-64.2 81.3 Q-64.95 88.25 -61.35 91.75 L-60.55 111.45 Q-60.5 113.55 -61.3 113.9 -62.1 113.55 -62.05 111.4 L-62.9 93.2 -63.0 92.6 -63.25 92.15 -63.6 91.65 -64.05 90.8 -64.35 90.15 -64.8 89.35 -65.0 88.65 -65.2 87.7 -65.5 86.95 -65.55 86.15 -65.65 85.55 -65.75 84.7 -65.7 83.9 -65.85 83.05 -65.8 82.3 -65.7 81.4 -65.65 80.7" fill="url(#gradient12)" fill-rule="evenodd" stroke="none"/>
    <path d="M-58.95 67.15 L-58.15 67.4 -58.0 69.8 -57.9 75.45 -61.7 79.7 -63.35 81.55 -64.2 81.3 -65.65 80.7 -70.85 78.8 Q-75.25 76.6 -77.35 72.85 L-77.75 72.0 -77.95 71.5 Q-78.7 69.85 -78.95 67.85 -77.5 66.5 -75.8 65.65 L-75.45 65.4 -74.5 65.05 Q-70.4 63.35 -65.7 64.6 L-60.5 66.5 -58.95 67.15 M-76.7 68.65 Q-75.8 74.65 -70.35 77.25 L-64.35 79.5 -60.2 74.65 -60.3 68.25 -66.3 66.1 Q-72.2 64.6 -76.7 68.65" fill="url(#gradient13)" fill-rule="evenodd" stroke="none"/>
    <path d="M111.9 130.75 L118.0 133.05 103.65 140.9 97.3 138.7 111.9 130.75 M100.3 126.3 L85.25 134.55 67.4 128.35 83.15 119.75 100.3 126.3 M133.4 138.95 Q135.8 139.85 138.2 141.0 L124.9 148.25 118.3 146.0 132.1 138.45 133.4 138.95 M42.15 104.05 L53.85 108.5 36.9 117.8 24.75 113.55 42.15 104.05 M9.4 91.55 L16.35 94.2 -2.05 104.25 -9.3 101.75 9.4 91.55 M-0.45 87.75 L-19.55 98.2 -33.5 93.4 -13.85 82.65 -0.45 87.75" fill="#ffffff" fill-opacity="0.5019608" fill-rule="evenodd" stroke="none"/>
    <path d="M-77.35 72.85 L-130.95 53.35 -134.7 54.4 -143.7 47.45 Q-143.6 46.0 -143.15 44.65 L-78.95 67.85 Q-78.7 69.85 -77.95 71.5 L-77.75 72.0 -77.35 72.85 M-40.85 88.25 Q-44.1 87.6 -43.9 86.2 L-61.7 79.7 -57.9 75.45 -38.75 82.45 -40.85 88.25" fill="#000000" fill-opacity="0.2" fill-rule="evenodd" stroke="none"/>
  </g>
  <defs>
    <linearGradient gradientTransform="matrix(0.0, 0.0076, -0.0082, 0.0, -136.95, 48.15)" gradientUnits="userSpaceOnUse" id="gradient0" spreadMethod="pad" x1="-819.2" x2="819.2">
      <stop offset="0.0" stop-color="#000000" stop-opacity="0.2509804"/>
      <stop offset="1.0" stop-color="#000000" stop-opacity="0.0"/>
    </linearGradient>
    <linearGradient gradientTransform="matrix(0.0, 0.0074, -0.004, 0.0, -131.4, 48.35)" gradientUnits="userSpaceOnUse" id="gradient1" spreadMethod="pad" x1="-819.2" x2="819.2">
      <stop offset="0.0" stop-color="#000000" stop-opacity="0.2509804"/>
      <stop offset="1.0" stop-color="#000000" stop-opacity="0.0"/>
    </linearGradient>
    <linearGradient gradientTransform="matrix(0.0, 0.0166, -0.0345, 0.0, -102.75, 59.2)" gradientUnits="userSpaceOnUse" id="gradient2" spreadMethod="pad" x1="-819.2" x2="819.2">
      <stop offset="0.0" stop-color="#000000" stop-opacity="0.2509804"/>
      <stop offset="1.0" stop-color="#000000" stop-opacity="0.0"/>
    </linearGradient>
    <linearGradient gradientTransform="matrix(0.0, 0.0055, -0.0101, 0.0, -68.45, 70.15)" gradientUnits="userSpaceOnUse" id="gradient3" spreadMethod="pad" x1="-819.2" x2="819.2">
      <stop offset="0.0" stop-color="#000000" stop-opacity="0.2509804"/>
      <stop offset="1.0" stop-color="#000000" stop-opacity="0.0"/>
    </linearGradient>
    <linearGradient gradientTransform="matrix(0.0, 0.0049, -0.0049, 0.0, -67.25, 72.05)" gradientUnits="userSpaceOnUse" id="gradient4" spreadMethod="pad" x1="-819.2" x2="819.2">
      <stop offset="0.0" stop-color="#000000" stop-opacity="0.2509804"/>
      <stop offset="1.0" stop-color="#000000" stop-opacity="0.0"/>
    </linearGradient>
    <linearGradient gradientTransform="matrix(0.0, 0.0066, -0.0101, 0.0, -68.45, 74.05)" gradientUnits="userSpaceOnUse" id="gradient5" spreadMethod="pad" x1="-819.2" x2="819.2">
      <stop offset="0.0" stop-color="#000000" stop-opacity="0.2509804"/>
      <stop offset="1.0" stop-color="#000000" stop-opacity="0.0"/>
    </linearGradient>
    <linearGradient gradientTransform="matrix(0.0, 0.01, -0.0131, 0.0, -50.95, 78.0)" gradientUnits="userSpaceOnUse" id="gradient6" spreadMethod="pad" x1="-819.2" x2="819.2">
      <stop offset="0.0" stop-color="#000000" stop-opacity="0.2509804"/>
      <stop offset="1.0" stop-color="#000000" stop-opacity="0.0"/>
    </linearGradient>
    <linearGradient gradientTransform="matrix(0.0, 0.0076, -0.0044, 0.0, -40.25, 82.0)" gradientUnits="userSpaceOnUse" id="gradient7" spreadMethod="pad" x1="-819.2" x2="819.2">
      <stop offset="0.0" stop-color="#000000" stop-opacity="0.2509804"/>
      <stop offset="1.0" stop-color="#000000" stop-opacity="0.0"/>
    </linearGradient>
    <linearGradient gradientTransform="matrix(0.0, 0.0481, -0.1197, 0.0, 60.35, 114.75)" gradientUnits="userSpaceOnUse" id="gradient8" spreadMethod="pad" x1="-819.2" x2="819.2">
      <stop offset="0.0" stop-color="#000000" stop-opacity="0.2509804"/>
      <stop offset="1.0" stop-color="#000000" stop-opacity="0.0"/>
    </linearGradient>
    <linearGradient gradientTransform="matrix(0.0, 0.0409, -0.107, 0.0, 47.85, 112.95)" gradientUnits="userSpaceOnUse" id="gradient9" spreadMethod="pad" x1="-819.2" x2="819.2">
      <stop offset="0.0" stop-color="#000000" stop-opacity="0.2509804"/>
      <stop offset="1.0" stop-color="#000000" stop-opacity="0.0"/>
    </linearGradient>
    <linearGradient gradientTransform="matrix(0.0, 0.042, -0.1216, 0.0, 58.75, 119.75)" gradientUnits="userSpaceOnUse" id="gradient10" spreadMethod="pad" x1="-819.2" x2="819.2">
      <stop offset="0.0" stop-color="#000000" stop-opacity="0.2509804"/>
      <stop offset="1.0" stop-color="#000000" stop-opacity="0.0"/>
    </linearGradient>
    <linearGradient gradientTransform="matrix(0.0, 0.0142, -0.0151, 0.0, -48.1, 55.5)" gradientUnits="userSpaceOnUse" id="gradient11" spreadMethod="pad" x1="-819.2" x2="819.2">
      <stop offset="0.0" stop-color="#000000" stop-opacity="0.2509804"/>
      <stop offset="1.0" stop-color="#000000" stop-opacity="0.0"/>
    </linearGradient>
    <linearGradient gradientTransform="matrix(0.0, 0.0203, -0.0032, 0.0, -63.2, 97.3)" gradientUnits="userSpaceOnUse" id="gradient12" spreadMethod="pad" x1="-819.2" x2="819.2">
      <stop offset="0.0" stop-color="#000000" stop-opacity="0.2509804"/>
      <stop offset="1.0" stop-color="#000000" stop-opacity="0.0"/>
    </linearGradient>
    <linearGradient gradientTransform="matrix(0.0, 0.0107, -0.0128, 0.0, -68.4, 72.8)" gradientUnits="userSpaceOnUse" id="gradient13" spreadMethod="pad" x1="-819.2" x2="819.2">
      <stop offset="0.0" stop-color="#000000" stop-opacity="0.2509804"/>
      <stop offset="1.0" stop-color="#000000" stop-opacity="0.0"/>
    </linearGradient>
  </defs>
</svg>
