<?xml version="1.0" encoding="UTF-8" standalone="no"?>
<svg xmlns:xlink="http://www.w3.org/1999/xlink" height="51.25px" width="132.1px" xmlns="http://www.w3.org/2000/svg">
  <g transform="matrix(1.0, 0.0, 0.0, 1.0, -293.45, -353.75)">
    <path d="M353.45 360.6 L347.8 358.5 Q340.85 356.6 338.15 363.9 L425.55 395.7 Q414.2 410.3 392.8 401.95 L331.6 381.8 Q328.45 390.55 319.9 388.1 L314.05 386.0 Q288.9 377.5 294.75 361.25 L295.6 358.85 293.6 358.1 Q293.35 357.45 293.55 356.9 293.7 356.25 294.45 355.8 L296.45 356.55 297.4 353.9 Q298.5 353.45 299.05 354.45 L298.75 355.3 303.85 357.2 301.6 363.3 296.5 361.4 Q291.05 375.8 314.65 384.4 L320.35 386.45 Q327.15 388.3 329.9 381.4 L331.95 375.85 328.9 374.7 332.05 365.95 335.1 367.1 336.5 363.3 Q339.6 354.4 348.25 356.85 L354.05 359.0 Q354.65 360.05 353.45 360.6" fill="#ffffff" fill-rule="evenodd" stroke="none"/>
  </g>
</svg>
