<?xml version="1.0" encoding="UTF-8" standalone="no"?>
<svg xmlns:xlink="http://www.w3.org/1999/xlink" height="94.55px" width="255.95px" xmlns="http://www.w3.org/2000/svg">
  <g transform="matrix(1.0, 0.0, 0.0, 1.0, -284.35, -344.55)">
    <path d="M355.65 356.85 L368.3 359.2 Q354.9 364.85 349.0 377.45 L346.6 378.05 338.15 376.05 Q338.05 371.85 336.9 367.75 L335.85 364.5 Q332.7 356.4 339.45 353.95 348.65 350.55 360.25 352.7 356.8 354.4 355.65 356.85 M332.1 394.4 Q336.65 387.55 337.55 379.4 L347.4 381.5 345.05 390.6 Q338.9 394.3 332.1 394.4 M356.35 376.4 Q362.2 369.9 369.85 365.6 427.75 386.5 483.35 399.15 L483.75 399.3 484.3 399.45 Q503.7 404.65 519.0 406.7 530.9 408.3 540.3 408.0 525.35 424.6 498.15 431.85 L457.3 439.1 Q455.55 433.0 450.1 426.4 L436.85 435.5 425.6 422.85 413.8 428.3 404.25 416.5 399.35 414.75 349.7 396.65 Q348.6 391.9 350.9 386.1 352.6 381.6 356.35 376.4 M284.65 367.65 Q283.8 357.6 285.55 348.3 286.5 343.35 289.0 344.9 L292.6 348.15 292.2 347.85 Q290.6 350.75 289.7 355.05 288.4 360.55 291.2 360.3 L291.7 360.35 Q286.8 362.6 284.65 367.65 M325.6 398.75 L326.15 398.7 Q338.15 399.35 346.1 393.9 346.1 397.15 346.7 400.55 335.45 403.6 325.6 398.75" fill="#ffffff" fill-rule="evenodd" stroke="none"/>
  </g>
</svg>
