<?xml version="1.0" encoding="UTF-8" standalone="no"?>
<svg xmlns:xlink="http://www.w3.org/1999/xlink" height="96.2px" width="274.4px" xmlns="http://www.w3.org/2000/svg">
  <g transform="matrix(1.0, 0.0, 0.0, 1.0, -266.7, -340.0)">
    <path d="M333.6 365.2 Q335.75 361.55 337.45 361.6 L338.75 362.1 Q340.25 362.55 338.35 368.4 L343.55 370.5 Q343.9 370.6 343.7 370.95 362.5 378.85 381.75 386.05 L399.0 392.35 407.8 395.4 414.45 397.65 423.85 400.7 426.25 401.5 453.45 409.8 474.1 415.6 484.75 418.4 494.35 420.8 502.0 422.65 507.1 423.9 535.45 430.15 541.1 431.35 Q535.7 435.9 527.15 436.2 512.2 433.2 497.5 429.8 L492.35 428.6 484.7 426.75 475.1 424.3 464.45 421.55 443.75 415.8 Q430.05 411.8 416.5 407.45 L414.1 406.7 404.7 403.6 398.1 401.35 389.3 398.3 372.05 392.0 Q356.2 386.05 340.6 379.6 L339.9 379.55 334.1 377.35 Q331.5 382.15 330.4 381.65 L329.1 381.2 Q327.7 380.15 329.1 375.6 L329.1 375.45 330.1 372.75 331.15 370.25 Q332.15 367.8 333.1 366.05 L333.25 365.8 333.6 365.2 M324.45 368.1 L327.2 365.8 327.4 369.55 324.8 371.6 324.45 368.1 M277.3 344.15 L277.25 347.1 274.9 348.8 275.0 345.9 277.3 344.15 M272.95 342.15 L272.95 344.75 270.6 346.6 270.65 344.15 272.95 342.15 M266.7 341.6 L268.7 340.0 268.55 343.05 266.75 344.6 266.7 341.6 M279.5 350.55 L279.55 347.8 282.15 345.95 282.1 348.5 282.05 348.85 279.5 350.55 M306.25 359.9 L308.9 357.7 309.15 361.15 306.55 363.35 306.25 359.9 M313.55 359.55 L313.7 363.25 311.05 365.5 310.85 361.9 313.55 359.55 M304.1 355.4 L304.4 359.0 301.9 361.1 301.7 357.5 304.1 355.4 M322.8 367.15 L320.25 369.35 320.0 365.65 322.45 363.45 322.8 367.15 M318.3 364.6 L318.3 364.9 315.55 367.2 315.35 363.8 318.05 361.5 318.3 364.6 M299.8 353.5 L299.95 356.7 297.25 358.95 297.2 355.65 299.8 353.5 M284.15 349.8 L286.8 347.9 286.8 350.75 284.1 352.8 284.15 349.8 M288.95 351.55 L291.05 349.85 291.1 352.95 288.75 354.9 288.75 351.65 288.95 351.55 M295.35 351.85 L295.4 355.0 292.9 357.05 292.9 353.95 295.35 351.85" fill="#ffffff" fill-rule="evenodd" stroke="none"/>
  </g>
</svg>
