<?xml version="1.0" encoding="UTF-8" standalone="no"?>
<svg xmlns:xlink="http://www.w3.org/1999/xlink" height="80.55px" width="202.3px" xmlns="http://www.w3.org/2000/svg">
  <g transform="matrix(1.0, 0.0, 0.0, 1.0, -290.3, -353.0)">
    <path d="M334.1 363.6 L492.6 421.3 Q477.25 438.7 457.0 431.4 L329.4 376.95 334.1 363.6 M324.8 364.4 L325.65 364.9 Q325.95 365.35 325.85 365.95 L325.85 366.05 325.3 366.85 324.4 367.1 323.45 366.55 Q323.15 366.1 323.25 365.55 L323.35 365.15 323.75 364.65 Q324.2 364.3 324.8 364.4 M308.15 358.3 L309.0 358.8 Q309.35 359.25 309.25 359.85 L309.2 360.1 308.7 360.7 307.75 360.95 306.85 360.35 Q306.55 359.95 306.55 359.4 L306.65 359.2 Q306.8 358.8 307.1 358.5 L308.15 358.3 M292.8 353.55 L293.05 354.35 293.05 354.55 Q292.95 355.15 292.5 355.45 L291.5 355.75 Q290.9 355.65 290.55 355.2 290.25 354.75 290.35 354.15 L290.65 353.5 290.85 353.25 291.9 353.05 292.8 353.55" fill="#ffffff" fill-rule="evenodd" stroke="none"/>
  </g>
</svg>
