<?xml version="1.0" encoding="UTF-8" standalone="no"?>
<svg xmlns:xlink="http://www.w3.org/1999/xlink" height="126.8px" width="135.1px" xmlns="http://www.w3.org/2000/svg">
  <g transform="matrix(1.0, 0.0, 0.0, 1.0, -258.35, -338.25)">
    <path d="M356.25 372.6 L367.25 376.6 Q368.65 376.1 369.35 377.4 L393.45 386.15 Q393.2 388.9 392.35 391.4 391.35 394.45 389.45 397.2 379.3 434.55 361.15 454.0 353.15 461.05 343.55 463.5 L334.65 465.05 Q368.05 447.6 374.9 397.7 375.6 392.15 372.1 390.7 L372.0 390.65 371.9 390.6 365.45 388.15 Q364.1 388.6 363.35 387.3 L352.4 383.15 Q350.95 383.65 350.15 382.35 L354.0 371.8 Q355.55 371.4 356.25 372.6 M342.35 367.55 L338.6 377.95 Q332.8 378.65 330.3 374.8 L334.05 364.55 Q339.05 363.7 342.35 367.55 M268.55 340.7 L265.05 350.3 Q261.45 349.6 258.4 347.85 258.2 345.35 258.85 343.2 259.65 340.4 261.9 338.25 265.45 338.8 268.55 340.7 M289.45 359.3 Q284.5 360.1 281.35 356.25 L284.85 346.65 Q289.95 346.15 293.0 349.6 L289.45 359.3" fill="#ffffff" fill-rule="evenodd" stroke="none"/>
  </g>
</svg>
