<?xml version="1.0" encoding="UTF-8" standalone="no"?>
<svg xmlns:xlink="http://www.w3.org/1999/xlink" height="95.45px" width="228.95px" xmlns="http://www.w3.org/2000/svg">
  <g transform="matrix(1.0, 0.0, 0.0, 1.0, -278.25, -340.25)">
    <path d="M329.05 365.25 Q331.0 362.15 334.4 360.9 340.9 358.3 345.2 359.95 L343.55 366.45 Q340.0 365.55 337.5 365.9 L473.2 413.85 Q501.55 423.6 507.2 434.35 496.0 438.9 467.95 428.15 L333.25 377.65 Q334.9 379.55 338.2 381.1 L335.35 387.1 Q330.95 385.65 327.65 379.45 325.85 376.35 326.3 372.75 326.5 371.15 327.1 369.5 L327.45 368.65 327.6 368.15 Q328.2 366.5 329.05 365.25 M287.25 340.25 Q295.05 345.45 297.0 353.8 L294.45 360.9 Q287.6 366.0 278.25 365.0 L279.85 358.9 Q286.15 359.95 289.0 358.25 L289.55 357.9 288.95 358.2 285.6 358.3 Q283.85 357.7 283.15 356.05 282.35 354.4 282.95 352.7 L283.1 352.4 Q283.75 350.9 285.3 350.2 L288.6 350.05 Q290.3 350.7 291.1 352.35 L291.4 353.1 291.2 352.35 Q290.1 349.2 284.55 346.0 L287.25 340.25" fill="#ffffff" fill-rule="evenodd" stroke="none"/>
  </g>
</svg>
