<?xml version="1.0" encoding="UTF-8" standalone="no"?>
<svg xmlns:xlink="http://www.w3.org/1999/xlink" height="19.75px" width="37.45px" xmlns="http://www.w3.org/2000/svg">
  <g transform="matrix(1.0, 0.0, 0.0, 1.0, -292.95, -353.75)">
    <path d="M329.3 369.7 L327.5 373.5 327.3 373.45 Q325.35 372.6 323.2 372.05 314.05 370.05 304.85 365.65 L298.8 362.95 295.0 361.3 Q293.5 360.7 292.95 359.85 L293.35 359.65 Q294.6 358.75 295.15 357.25 L295.25 357.15 Q295.7 355.7 295.35 354.3 L295.15 353.8 297.65 354.05 301.65 355.2 308.0 357.05 Q317.85 359.6 326.15 363.9 328.15 364.95 330.2 365.5 L330.4 365.55 Q330.05 367.6 329.3 369.7" fill="#ffffff" fill-rule="evenodd" stroke="none"/>
  </g>
</svg>
