<?xml version="1.0" encoding="UTF-8" standalone="no"?>
<svg xmlns:xlink="http://www.w3.org/1999/xlink" height="85.15px" width="199.9px" xmlns="http://www.w3.org/2000/svg">
  <g transform="matrix(1.0, 0.0, 0.0, 1.0, -274.7, -348.5)">
    <path d="M356.25 387.25 Q355.85 385.95 357.15 382.5 L357.25 382.25 Q358.45 379.05 359.45 378.4 M356.4 377.25 Q355.35 378.3 354.25 381.05 L354.25 381.15 Q353.15 383.75 353.15 386.1 M427.6 413.2 Q428.7 412.0 429.9 409.05 430.9 405.95 430.85 404.35 L430.55 404.25 M277.55 358.65 Q277.0 357.1 278.05 353.75 L278.35 353.15 Q279.45 350.45 280.8 349.75 M469.55 418.6 L465.0 416.95 Q466.7 418.95 469.25 420.1 L469.55 418.6 M463.75 406.65 Q454.9 412.8 443.0 408.3 L441.9 407.9 M434.05 405.15 L434.0 405.65 455.3 413.4 462.6 413.1 Q463.6 415.35 465.0 416.95 M461.6 406.15 Q456.05 410.0 448.35 409.2 M462.6 413.1 L461.8 416.2 Q462.95 419.1 468.8 421.9 L469.25 420.1 M466.4 427.15 L461.85 425.5 Q459.75 425.85 457.55 426.9 455.3 424.2 452.15 421.95 L430.85 414.2 430.6 414.65 M438.35 417.65 L439.5 418.05 Q451.5 422.15 454.3 432.55 M466.4 427.15 L467.2 425.85 461.85 425.5 M452.3 431.6 Q450.55 425.05 444.2 420.75 M467.2 425.85 L467.95 424.15 Q461.65 422.55 458.9 424.05 L457.55 426.9 M469.65 425.85 L470.0 426.0 471.1 424.0 471.5 421.75 471.15 421.65 M471.5 421.1 L471.5 421.75 M470.05 421.2 L469.45 423.45 468.5 425.45 M468.8 421.9 L441.65 412.05 441.45 411.95 433.25 408.95 432.85 410.1 432.4 411.2 440.65 414.2 440.85 414.3 467.95 424.15 468.4 423.0 468.8 421.9 M469.5 426.5 L470.0 426.0 M430.55 404.15 L430.8 404.25 430.75 404.0 430.85 403.7 M430.8 404.25 L430.85 404.35 M433.25 408.95 L433.75 406.9 434.0 405.65 M430.85 414.2 L431.5 413.15 432.4 411.2 M427.55 413.25 L427.3 413.5 427.2 413.7 M452.15 421.95 Q448.25 419.25 443.0 417.35 L431.5 413.15 M455.3 413.4 Q450.5 413.0 445.25 411.1 L433.75 406.9 M441.65 412.05 Q456.6 417.1 461.8 416.2 M440.85 414.3 Q455.5 420.0 458.9 424.05" fill="none" stroke="#000000" stroke-linecap="round" stroke-linejoin="round" stroke-opacity="0.5019608" stroke-width="1.0"/>
    <path d="M359.45 378.4 Q358.1 376.7 356.4 377.25 M353.15 386.1 Q354.1 387.6 356.25 387.25 L427.6 413.2 427.55 413.25 M430.55 404.25 L359.45 378.4 M280.8 349.75 Q279.95 348.3 277.85 349.75 276.65 350.8 275.9 352.25 L275.65 352.85 Q275.0 354.75 275.3 356.7 276.0 359.15 277.55 358.65 L353.15 386.1 M280.8 349.75 L356.4 377.25 M469.55 418.6 Q465.6 415.15 463.75 406.65 M441.9 407.9 L434.05 405.15 M470.05 421.2 L470.35 419.4 Q470.2 418.3 469.55 418.6 M448.35 409.2 Q445.85 409.0 443.05 408.2 L441.9 407.9 M448.35 409.2 Q456.2 408.85 460.65 404.6 L461.6 406.15 462.85 405.15 463.75 406.65 M430.6 414.65 L438.35 417.65 M454.3 432.55 Q461.15 427.2 466.4 427.15 M452.3 431.6 L452.65 433.15 454.3 432.55 M444.2 420.75 Q450.0 426.05 450.65 432.15 L452.3 431.6 M444.2 420.75 Q442.1 419.25 439.45 418.1 L438.35 417.65 M470.05 421.2 L471.15 421.65 471.5 421.1 Q474.6 422.85 474.0 425.05 473.05 427.15 469.5 426.5 L469.65 425.85 468.5 425.45 467.55 427.05 Q466.7 427.85 466.4 427.15 M430.55 404.25 L430.55 404.15 430.85 403.7 430.95 403.65 Q431.0 403.5 431.25 403.5 432.75 403.65 434.0 404.5 L434.05 405.15 M427.2 413.7 L427.25 413.75 427.4 414.15 Q428.65 414.9 430.1 415.15 L430.6 414.65 M427.2 413.7 L427.3 413.15 427.55 413.25" fill="none" stroke="#000000" stroke-linecap="round" stroke-linejoin="round" stroke-width="1.0"/>
  </g>
</svg>
