<?xml version="1.0" encoding="UTF-8" standalone="no"?>
<svg xmlns:xlink="http://www.w3.org/1999/xlink" height="160.45px" width="48.4px" xmlns="http://www.w3.org/2000/svg">
  <g transform="matrix(1.0, 0.0, 0.0, 1.0, -306.8, -229.75)">
    <path d="M349.3 236.0 Q343.95 241.15 346.7 255.2 350.0 261.7 355.2 267.6 353.1 274.1 349.7 280.65 343.7 292.25 333.75 303.75 337.4 313.2 337.9 320.8 L332.65 335.7 Q329.95 347.15 330.9 358.05 L345.05 363.6 350.9 370.3 352.6 378.45 Q348.35 379.45 346.4 373.25 L342.5 371.85 342.5 381.1 344.65 384.75 Q341.55 392.7 336.05 389.05 L334.5 387.3 319.55 380.05 318.15 361.6 Q308.2 333.0 306.8 315.8 310.2 309.3 314.0 302.75 L314.6 301.65 312.4 298.6 Q318.7 289.8 320.2 266.2 319.45 245.35 329.4 233.85 L349.4 229.75 349.3 236.0" fill="#000000" fill-rule="evenodd" stroke="none"/>
  </g>
</svg>
