<?xml version="1.0" encoding="UTF-8" standalone="no"?>
<svg xmlns:xlink="http://www.w3.org/1999/xlink" height="133.95px" width="47.35px" xmlns="http://www.w3.org/2000/svg">
  <g transform="matrix(1.0, 0.0, 0.0, 1.0, -302.2, -221.05)">
    <path d="M310.3 309.35 L307.8 313.95 306.8 315.8 307.35 320.8 308.3 326.5 309.4 331.8 311.0 338.5 313.0 345.65 314.75 351.4 315.95 355.0 Q314.85 353.75 313.0 353.4 314.15 350.3 308.75 347.95 309.6 343.7 305.1 340.45 307.3 336.95 303.1 333.1 306.15 330.0 302.2 326.65 305.55 324.0 302.5 319.95 303.6 319.8 304.35 318.4 305.55 316.1 303.6 312.6 307.95 310.1 307.35 307.1 310.15 307.3 312.0 306.3 L310.3 309.35 M329.15 221.05 L331.55 222.3 Q337.1 224.85 340.4 222.8 340.95 227.35 346.4 225.9 L346.45 226.25 Q346.75 227.85 348.55 229.1 L349.55 229.7 349.4 229.75 329.4 233.85 329.25 234.05 Q326.65 237.05 324.85 240.7 323.1 244.1 322.05 248.0 321.3 250.6 320.9 253.5 320.5 255.75 320.35 258.15 L320.15 262.7 Q318.7 260.4 316.95 259.75 318.6 253.3 313.5 252.3 L313.05 252.25 Q314.3 246.4 310.8 241.0 315.35 238.3 312.55 232.65 319.75 232.0 320.3 223.9 326.3 227.35 329.15 221.05" fill="#000000" fill-rule="evenodd" stroke="none"/>
  </g>
</svg>
