<?xml version="1.0" encoding="UTF-8" standalone="no"?>
<svg xmlns:xlink="http://www.w3.org/1999/xlink" height="229.2px" width="60.5px" xmlns="http://www.w3.org/2000/svg">
  <g transform="matrix(1.0, 0.0, 0.0, 1.0, -294.7, -228.5)">
    <path d="M349.3 236.0 Q343.95 241.15 346.7 255.2 350.0 261.7 355.2 267.6 352.6 274.25 349.2 280.75 346.4 285.85 343.1 290.8 L342.85 291.1 338.65 296.9 332.8 303.9 Q306.95 328.7 320.0 356.1 329.95 377.05 315.85 396.6 298.6 421.25 335.1 452.75 L340.95 456.85 Q341.35 458.55 338.7 456.85 275.6 422.15 304.0 389.4 313.65 375.0 299.2 356.9 288.15 333.4 304.3 314.7 320.4 296.05 310.85 280.0 301.25 263.9 307.15 248.2 316.45 223.55 349.4 229.75 L349.3 236.0" fill="#000000" fill-rule="evenodd" stroke="none"/>
  </g>
</svg>
