<?xml version="1.0" encoding="UTF-8" standalone="no"?>
<svg xmlns:xlink="http://www.w3.org/1999/xlink" height="172.65px" width="50.45px" xmlns="http://www.w3.org/2000/svg">
  <g transform="matrix(1.0, 0.0, 0.0, 1.0, -306.3, -229.25)">
    <path d="M349.7 280.65 Q343.7 292.25 333.75 303.75 337.4 313.2 337.9 320.8 L332.65 335.7 Q331.45 340.75 331.0 345.7 330.35 351.95 330.9 358.05 L345.05 363.6 352.4 368.55 356.25 376.05 Q352.35 378.05 348.9 372.6 L342.5 371.9 342.5 381.1 343.3 385.35 345.45 389.2 348.3 391.75 Q350.2 396.4 346.8 398.05 L341.25 393.25 338.15 388.5 336.25 383.4 335.6 386.55 337.4 391.6 339.8 395.95 Q340.25 400.65 336.25 401.4 L332.15 393.75 330.25 387.4 329.75 382.4 328.4 381.05 327.6 386.1 328.8 391.4 331.2 396.15 Q331.3 397.2 330.75 398.2 330.15 399.4 328.6 399.85 L325.55 394.25 Q324.65 396.9 323.25 396.9 L320.3 391.6 319.35 385.6 319.45 378.85 318.15 361.6 Q315.2 353.15 313.05 345.7 307.8 327.9 306.8 315.8 310.2 309.3 314.0 302.75 L314.6 301.65 312.4 298.6 Q318.7 289.8 320.2 266.2 319.45 245.35 329.4 233.85 L349.4 229.75 M342.5 371.9 L342.5 371.85" fill="none" stroke="#000000" stroke-linecap="round" stroke-linejoin="round" stroke-width="1.0"/>
    <path d="M320.2 266.2 Q336.15 262.55 346.7 255.2 350.0 261.7 355.2 267.6 353.1 274.1 349.7 280.65 M333.75 303.75 L329.4 308.5 Q326.3 301.95 317.95 296.75 316.1 299.1 314.6 301.65 M342.5 371.85 L342.5 367.15 M327.4 379.7 L326.25 377.1 M335.6 382.1 L333.3 380.05 331.1 375.5 M328.4 381.05 L327.75 380.4 M325.55 394.25 L324.55 392.5 323.15 387.05 322.6 380.35 321.35 377.1" fill="none" stroke="#000000" stroke-linecap="round" stroke-linejoin="round" stroke-opacity="0.5019608" stroke-width="1.0"/>
  </g>
</svg>
