<?xml version="1.0" encoding="UTF-8" standalone="no"?>
<svg xmlns:xlink="http://www.w3.org/1999/xlink" height="246.5px" width="46.65px" xmlns="http://www.w3.org/2000/svg">
  <g transform="matrix(1.0, 0.0, 0.0, 1.0, -353.75, -308.0)">
    <path d="M399.9 350.35 L396.8 350.35 391.0 425.5 Q398.55 455.0 392.95 471.9 388.4 491.8 388.25 510.6 L388.25 511.65 Q390.55 525.6 389.35 527.05 L386.35 519.7 387.5 533.05 383.9 526.7 384.7 542.35 382.05 539.45 Q382.5 544.8 382.25 551.65 375.1 554.2 368.0 554.0 L366.45 551.4 365.1 553.8 Q359.65 553.25 354.25 551.05 355.5 542.45 357.25 536.15 354.25 527.95 358.4 519.5 L362.0 512.2 Q368.95 494.15 365.7 467.3 363.85 449.85 373.9 424.95 359.4 358.35 367.35 330.85 370.95 318.25 380.15 308.5" fill="none" stroke="#000000" stroke-linecap="round" stroke-linejoin="round" stroke-width="1.0"/>
    <path d="M396.8 350.35 Q392.55 344.6 387.6 339.65 M375.35 429.0 L376.9 435.4 382.95 436.6 385.3 428.2 M382.05 539.45 L381.4 534.1 Q379.9 525.1 375.9 522.1 367.55 516.65 362.4 523.85 360.8 526.25 359.4 529.7 358.25 532.55 357.25 536.15" fill="none" stroke="#000000" stroke-linecap="round" stroke-linejoin="round" stroke-opacity="0.5019608" stroke-width="1.0"/>
  </g>
</svg>
