<?xml version="1.0" encoding="UTF-8" standalone="no"?>
<svg xmlns:xlink="http://www.w3.org/1999/xlink" height="195.85px" width="33.85px" xmlns="http://www.w3.org/2000/svg">
  <g transform="matrix(1.0, 0.0, 0.0, 1.0, -361.45, -337.35)">
    <path d="M365.9 337.35 Q376.2 344.6 389.0 349.7 376.05 348.7 364.95 344.85 365.3 340.85 365.9 337.35 M387.6 389.3 Q378.2 389.55 366.95 386.45 L365.95 378.55 Q377.85 385.85 387.6 389.3 M372.9 368.85 Q385.05 371.2 395.3 370.2 L394.75 376.95 Q381.75 373.95 372.9 368.85 M374.0 402.2 L392.7 403.95 392.25 409.3 Q381.05 407.25 374.0 402.2 M377.4 443.25 Q388.8 444.1 394.4 442.05 L394.8 445.7 394.05 448.1 392.65 447.85 Q384.15 446.45 377.4 443.25 M373.8 424.45 L372.65 419.15 Q381.75 423.1 390.0 424.5 381.9 426.1 373.8 424.45 M370.6 461.45 L370.25 455.45 Q376.15 458.5 384.7 459.6 378.75 461.75 370.6 461.45 M381.75 491.75 Q378.7 493.5 373.25 493.2 L372.65 487.4 Q377.3 491.2 381.75 491.75 M385.5 479.0 Q379.3 477.5 376.65 474.95 382.15 475.6 386.85 473.35 L385.5 479.0 M371.9 516.75 Q376.2 519.3 378.9 521.55 373.85 520.15 369.45 520.5 L371.9 516.75 M381.65 507.7 Q377.65 507.3 376.2 505.4 380.2 505.3 381.85 503.9 L381.65 507.7 M364.65 528.0 Q369.1 529.0 373.8 533.2 367.05 531.2 361.45 532.95 L364.65 528.0" fill="#000000" fill-rule="evenodd" stroke="none"/>
  </g>
</svg>
