<?xml version="1.0" encoding="UTF-8" standalone="no"?>
<svg xmlns:xlink="http://www.w3.org/1999/xlink" height="61.05px" width="69.8px" xmlns="http://www.w3.org/2000/svg">
  <g transform="matrix(1.0, 0.0, 0.0, 1.0, -365.0, -417.2)">
    <path d="M428.7 437.15 Q431.2 427.85 431.45 417.7 433.0 430.9 431.45 444.1 L434.3 437.2 Q432.6 457.35 428.2 476.1 M404.75 446.3 Q402.3 445.0 400.9 443.3 406.15 460.7 414.1 477.75 M371.55 475.6 Q367.2 457.1 365.5 437.2 L368.35 444.1 Q366.8 430.9 368.35 417.7 368.6 427.85 371.1 437.15 M404.75 446.3 L405.25 443.55 404.4 441.2 Q401.25 431.6 400.15 421.55 401.8 428.2 404.95 434.1 M393.55 436.4 L394.85 434.1 Q398.0 428.2 399.65 421.55 398.55 431.6 395.4 441.2 L394.6 443.55 395.05 446.3 Q397.5 445.0 398.9 443.3 393.65 460.7 385.75 477.75" fill="none" stroke="#000000" stroke-linecap="round" stroke-linejoin="round" stroke-width="1.0"/>
    <path d="M404.95 434.1 L406.25 436.4 406.85 437.4 M405.25 443.55 L406.6 447.15 405.3 446.6 404.75 446.3 M393.55 436.4 L392.95 437.4 M394.6 443.55 L393.2 447.15 394.5 446.6 395.05 446.3" fill="none" stroke="#000000" stroke-linecap="round" stroke-linejoin="round" stroke-opacity="0.5019608" stroke-width="1.0"/>
  </g>
</svg>
