<?xml version="1.0" encoding="UTF-8" standalone="no"?>
<svg xmlns:xlink="http://www.w3.org/1999/xlink" height="249.0px" width="132.6px" xmlns="http://www.w3.org/2000/svg">
  <g transform="matrix(1.0, 0.0, 0.0, 1.0, -317.75, -307.8)">
    <path d="M388.2 316.6 L385.25 325.75 Q391.9 331.0 399.9 334.55 L399.9 316.15 388.3 312.65 388.2 316.6 M388.35 311.1 L388.3 312.65 M399.9 316.15 L400.05 316.1 399.9 312.3 399.9 316.15 M379.6 343.2 L377.65 355.5 376.6 363.45 376.05 368.1 Q383.8 381.15 398.2 386.0 L398.4 383.1 399.0 371.85 399.6 357.9 Q384.7 353.05 379.65 343.05 L379.6 343.0 379.6 343.2 M355.9 451.3 Q353.4 469.95 349.3 487.3 L348.55 490.5 M367.95 549.2 Q363.95 546.75 362.15 539.35 359.8 529.5 361.4 510.9 362.35 499.7 364.75 485.4 L365.65 479.85 365.8 479.35 367.35 470.75 367.85 467.85 368.8 461.9 370.55 449.35 Q371.55 441.05 372.2 432.65 L372.9 422.85 372.9 420.3 372.95 415.9 373.45 400.35 374.15 388.4 Q374.8 379.25 375.8 370.15 L376.05 368.1 M399.9 334.55 L400.05 334.6 400.05 328.05 400.05 322.75 400.05 316.1 411.5 312.65 411.45 311.1 M379.65 343.05 L385.25 325.75 M397.7 392.9 Q396.65 408.1 394.75 423.45 409.55 415.45 419.55 402.6 421.05 390.6 421.5 378.8 L421.6 370.9 Q411.25 382.55 398.2 386.0 L397.7 392.9 M399.6 357.9 L400.05 334.6 Q407.4 332.2 414.75 327.2 L411.6 316.45 411.5 312.65 M420.35 346.15 L420.3 345.75 420.25 345.85 Q411.9 355.95 399.6 357.9 M420.35 346.15 L421.35 359.4 421.6 366.55 421.6 370.9 M414.75 327.2 L420.25 345.85 M419.55 402.6 Q418.0 414.5 415.4 426.6 L414.7 429.65 Q410.5 448.65 405.85 465.25 L405.05 467.9 Q401.8 481.25 399.75 492.6 397.55 504.75 396.7 514.55 395.35 531.25 398.1 540.85 401.2 551.65 409.5 553.5 422.8 555.0 435.45 545.5 M372.2 432.65 Q378.1 446.2 389.45 457.9 392.55 441.55 394.75 423.45 380.75 413.55 373.45 400.35 M414.7 429.65 Q403.45 447.95 389.45 457.9 L387.25 468.75 384.2 483.6 Q396.8 481.2 405.85 465.25 M384.2 483.6 L383.45 487.5 Q381.95 495.5 380.95 502.55 392.1 501.3 399.75 492.6 M368.8 461.9 Q371.6 474.75 384.2 483.6 M380.95 502.55 Q379.1 515.15 378.85 524.75 389.9 522.9 396.7 514.55 M405.35 556.2 Q407.75 555.75 409.5 553.5 M389.95 555.85 Q383.95 554.0 381.2 546.05 369.95 544.3 362.15 539.35 M381.2 546.05 Q378.5 538.3 378.85 524.75 367.45 521.95 361.4 510.9 M381.2 546.05 Q390.7 544.8 398.1 540.85 M380.95 502.55 Q368.05 496.15 364.75 485.4" fill="none" stroke="#000000" stroke-linecap="round" stroke-linejoin="round" stroke-opacity="0.5019608" stroke-width="1.0"/>
    <path d="M379.65 343.05 L379.6 343.2 M380.25 308.3 Q373.65 315.35 369.95 323.75 L369.8 324.05 Q358.8 344.8 359.55 394.0 359.5 424.0 355.9 451.3 328.65 431.8 336.3 384.95 338.0 374.7 342.3 364.15 350.45 344.35 355.5 341.15 337.7 351.65 328.6 367.35 321.9 380.1 319.85 394.55 311.3 455.85 348.55 490.5 L348.0 493.1 347.85 493.8 Q343.35 521.4 354.0 537.0 359.2 544.5 367.95 549.2 L368.8 549.65 Q372.65 551.6 377.2 553.05 383.05 554.9 389.95 555.85 L391.55 556.0 394.55 556.2 395.7 556.25 395.95 556.25 403.85 556.25 405.35 556.2 Q424.5 555.0 435.45 545.5 447.25 535.25 449.75 515.4 451.45 486.65 417.75 470.25 450.9 367.05 430.5 325.2 L430.45 325.1 Q426.65 315.95 419.6 308.35 M420.25 345.85 L420.35 346.15 M412.85 512.2 Q407.3 515.85 409.3 502.55 410.5 494.5 414.5 480.15 L417.75 470.25" fill="none" stroke="#000000" stroke-linecap="round" stroke-linejoin="round" stroke-width="1.0"/>
  </g>
</svg>
