<?xml version="1.0" encoding="UTF-8" standalone="no"?>
<svg xmlns:xlink="http://www.w3.org/1999/xlink" height="243.4px" width="43.75px" xmlns="http://www.w3.org/2000/svg">
  <g transform="matrix(1.0, 0.0, 0.0, 1.0, -356.65, -308.0)">
    <path d="M399.9 350.35 L396.8 350.35 391.0 425.5 Q393.8 435.15 394.8 445.6 385.4 475.1 383.55 489.55 381.6 503.9 381.65 507.6 L383.0 511.3 382.5 514.4 383.2 516.6 383.25 517.1 383.3 517.35 Q383.6 520.8 382.6 523.45 L382.2 524.4 Q379.35 530.1 378.4 537.0 377.6 543.4 373.6 548.95 L372.25 550.35 Q367.6 551.7 365.4 549.75 361.6 549.85 360.7 548.3 358.35 547.85 357.5 544.95 L357.5 544.8 Q357.1 544.05 357.15 542.7 357.35 539.9 358.65 537.2 L373.3 514.45 373.3 510.35 374.9 507.2 Q370.8 475.15 369.7 443.2 L373.9 424.95 Q359.4 358.35 367.35 330.85 370.95 318.25 380.15 308.5" fill="none" stroke="#000000" stroke-linecap="round" stroke-linejoin="round" stroke-width="1.0"/>
    <path d="M396.8 350.35 Q392.55 344.6 387.6 339.65 M375.5 428.95 L376.9 435.4 382.95 436.6 385.3 428.2 M360.4 542.55 Q359.45 541.95 358.4 541.8 L358.05 543.0 Q357.9 544.05 358.55 544.7 358.95 544.0 359.75 543.95 L360.4 542.55 M357.5 544.8 L357.45 543.85 357.45 543.55 Q357.65 540.65 359.35 539.0 M364.3 545.85 L364.95 544.1 Q363.5 543.35 362.05 543.6 L361.45 545.2 Q361.55 546.45 362.35 547.2 362.95 546.15 364.3 545.85 M372.05 546.4 L372.9 544.75 367.75 544.35 Q367.05 545.05 366.95 546.0 366.85 547.5 368.5 548.4 369.65 547.0 372.05 546.4 M365.4 549.75 Q364.75 544.85 367.75 540.95 M360.7 548.3 Q360.1 543.4 362.95 539.75" fill="none" stroke="#000000" stroke-linecap="round" stroke-linejoin="round" stroke-opacity="0.5019608" stroke-width="1.0"/>
  </g>
</svg>
