<?xml version="1.0" encoding="UTF-8" standalone="no"?>
<svg xmlns:xlink="http://www.w3.org/1999/xlink" height="282.25px" width="160.8px" xmlns="http://www.w3.org/2000/svg">
  <g transform="matrix(1.0, 0.0, 0.0, 1.0, -104.5, -139.1)">
    <path d="M259.7 351.75 Q264.1 375.15 265.3 398.5 259.15 403.6 255.05 415.35 246.7 365.9 235.85 415.35 226.1 367.6 216.35 410.65 199.4 368.35 188.9 412.5 165.8 362.05 151.45 415.65 141.45 381.85 131.4 398.95 122.15 339.35 131.2 256.0 L143.05 144.95 Q197.05 134.2 239.8 143.25 L253.15 302.95 259.7 351.75 M104.5 398.15 Q112.0 380.95 127.0 406.45 123.3 411.8 120.6 421.35 109.4 393.55 104.5 398.15" fill="#000000" fill-rule="evenodd" stroke="none"/>
  </g>
</svg>
