<?xml version="1.0" encoding="UTF-8" standalone="no"?>
<svg xmlns:xlink="http://www.w3.org/1999/xlink" height="385.1px" width="161.95px" xmlns="http://www.w3.org/2000/svg">
  <g transform="matrix(1.0, 0.0, 0.0, 1.0, -118.25, -81.0)">
    <path d="M194.25 95.3 Q196.3 95.25 196.9 97.85 M194.05 103.35 Q192.4 98.7 194.85 97.65 194.0 96.6 192.9 97.75 M219.3 124.4 L204.9 124.4 195.1 113.8 195.1 106.45 Q193.8 106.3 193.0 104.9 M219.3 131.1 L219.3 139.75 M195.9 125.75 L196.1 126.25 Q198.7 133.05 203.25 139.0 M160.45 173.5 L165.65 176.65 181.0 185.9 Q185.65 189.05 211.05 186.25 L228.65 185.65 M229.8 185.7 L235.8 185.95 238.65 182.35 238.65 181.25 238.6 180.05 238.1 175.05 237.4 171.45 Q236.25 166.7 234.1 162.5 231.55 157.55 227.6 153.4 M166.15 150.5 Q194.65 145.9 217.0 146.8 224.5 150.7 226.2 147.25 243.15 148.55 257.3 152.95 M235.8 185.95 L244.3 186.8 248.55 187.45 257.1 188.95 M241.35 285.35 L242.5 281.45 244.65 271.85 244.7 271.85 245.3 267.95 Q246.05 262.75 246.3 257.45 246.85 248.15 248.35 239.2 249.2 233.75 250.45 228.4 251.75 223.4 253.45 218.6 257.1 208.0 262.5 198.5 L262.5 188.65 269.35 180.95 Q270.75 171.75 269.35 162.55 M196.0 100.65 Q195.5 98.45 194.85 97.65 M158.45 196.4 L161.55 188.0 165.65 176.65 M153.4 210.25 L151.1 216.5 M144.75 292.65 L154.5 295.55 Q158.15 297.65 161.25 297.15 L161.3 297.15 Q162.95 296.85 164.45 295.85 L165.0 295.45 165.1 295.35 167.15 293.3 M161.25 297.15 L161.25 297.2 163.35 302.45 M157.05 300.8 L154.5 295.55 M244.6 219.1 L249.9 202.85 248.05 198.65 M240.15 292.6 L244.2 287.05 Q245.25 286.8 246.4 287.9 L247.45 289.25 249.55 289.4 250.6 290.0 Q250.95 284.8 254.7 283.6 L259.3 283.4 M249.0 299.7 L251.5 291.05 250.6 290.0 M255.75 302.2 Q254.85 300.5 256.0 297.25 L253.8 297.25 253.75 295.7 Q253.9 293.4 255.85 292.6 254.3 289.9 251.5 291.05 M255.85 292.6 L260.4 292.2 260.95 287.5 M242.5 281.45 Q243.75 277.7 245.65 274.05 L244.7 271.85 M234.9 206.25 L235.45 202.3 M234.4 209.65 L234.9 206.25 M233.6 215.45 L234.05 212.3 234.4 209.65 M233.1 218.65 L233.6 215.45 M208.8 217.6 L208.8 202.65 214.45 196.4 M169.6 293.2 Q169.8 288.15 170.4 283.2 M211.0 258.05 Q219.8 263.95 224.5 270.45 L238.0 262.75 M208.4 306.9 Q215.95 296.2 220.3 284.85 222.3 279.65 223.65 274.3 L224.5 270.45 M200.4 320.05 L205.7 310.6 208.4 306.9 M218.0 334.95 L214.3 340.6 M207.2 336.75 L207.2 329.45 M179.3 337.85 L180.7 331.9 M191.8 339.1 L187.6 343.65 M191.85 339.1 L191.8 339.1 M191.85 356.25 L190.75 362.3 189.4 370.25 189.35 370.55 M191.85 344.65 L191.85 350.45 191.85 356.25 M262.65 297.25 L256.0 297.25 M243.75 297.3 L247.45 289.25" fill="none" stroke="#000000" stroke-linecap="round" stroke-linejoin="round" stroke-width="1.0"/>
    <path d="M219.3 124.4 L222.0 124.4 223.9 122.3 223.6 104.75 Q225.05 100.7 223.6 96.7 L224.25 94.25 Q224.15 86.55 217.7 83.55 211.1 81.1 204.55 82.55 202.85 82.9 201.2 83.55 194.1 86.05 194.25 95.3 190.75 95.55 191.7 100.9 192.15 103.5 193.0 104.9 189.9 114.65 183.85 122.55 L179.4 127.65 Q152.2 134.7 127.6 144.15 125.65 150.5 124.4 156.9 L123.55 162.0 122.85 167.65 Q122.6 169.7 122.5 171.8 122.3 174.65 122.25 177.55 122.15 181.2 122.35 184.9 L122.6 189.25 123.2 195.35 123.95 200.6 125.0 206.15 125.7 209.3 123.6 213.1 120.55 218.6 119.25 220.95 119.6 223.6 120.8 229.95 Q121.55 233.2 122.6 236.5 L124.5 241.95 Q125.85 245.55 127.6 249.15 L129.75 253.35 132.6 258.3 134.9 261.85 136.2 263.8 139.25 267.95 139.4 268.1 144.9 274.8 146.7 276.8 144.75 292.65 157.05 300.8 Q159.5 304.05 163.35 302.45 L164.05 304.45 169.55 303.3 Q169.35 298.25 169.6 293.2 171.5 294.3 173.05 294.4 174.55 294.5 175.65 293.55 L176.4 292.65 173.3 288.05 175.05 279.75 175.05 279.7 161.4 272.0 160.45 268.1 159.6 263.8 159.3 262.1 158.55 256.7 158.05 250.15 Q157.85 246.2 157.95 242.25 L158.35 235.25 Q158.75 230.8 159.45 226.25 L159.6 225.35 153.4 210.25 154.45 207.4 156.1 202.85 158.45 196.4 Q169.65 205.2 182.95 211.95 186.55 241.25 182.95 272.2 L180.55 293.35 177.05 323.7 175.9 333.75 M219.3 131.1 L219.3 124.4 M278.25 161.4 L277.45 157.25 276.45 153.15 Q253.5 135.8 219.3 131.1 M279.0 178.4 L279.2 173.1 278.9 166.45 278.25 161.4 M279.0 178.4 L277.95 186.65 277.15 190.5 276.2 194.15 275.1 197.75 272.7 204.2 270.4 209.4 269.1 212.0 Q272.5 218.6 274.05 225.15 L274.95 230.0 271.5 237.2 270.2 240.0 268.0 244.85 265.8 249.9 263.5 255.55 262.1 259.5 261.15 262.4 260.5 264.65 260.4 265.05 259.85 266.9 259.65 267.65 259.55 267.95 257.9 273.75 269.8 285.5 Q266.25 290.05 265.1 297.25 L262.65 297.25 262.75 300.75 Q262.1 304.25 258.55 303.95 256.45 303.6 255.75 302.2 252.7 303.6 250.95 302.6 249.6 301.8 249.0 299.7 246.85 300.4 245.55 299.7 244.35 299.05 243.75 297.3 242.05 297.0 241.15 296.2 239.8 295.0 240.15 292.6 240.4 288.95 241.35 285.35 239.8 290.25 237.8 295.0 L234.85 301.45 231.75 307.3 231.7 307.3 225.45 316.75 218.5 327.25 218.25 331.1 218.0 334.95 218.65 343.05 219.3 351.15 217.95 356.95 215.3 368.2 209.8 391.65 205.35 410.6 204.6 413.8 Q203.5 420.3 210.75 426.8 222.7 438.2 231.85 450.2 216.55 451.1 201.25 439.75 L190.95 435.35 192.4 413.25 192.7 407.0 192.75 401.1 Q192.65 393.6 191.9 386.25 191.05 378.35 189.35 370.55 L188.0 379.45 Q185.7 395.15 184.35 411.15 L184.1 414.35 Q185.7 427.85 190.3 442.05 192.15 457.05 185.7 465.1 176.25 458.25 170.35 450.4 170.8 438.1 174.75 427.45 175.4 421.4 173.7 415.35 L173.5 414.8 170.9 406.55 Q168.65 399.05 166.95 391.65 164.4 380.4 163.05 369.3 L162.4 362.75 Q162.0 358.75 161.85 354.75 L163.3 350.85 Q164.25 348.5 165.35 346.4 166.8 343.55 168.6 341.15 170.4 338.6 172.6 336.55 M191.85 339.1 L193.8 337.0 194.4 334.9 196.5 327.1 200.4 320.05 200.4 331.15 196.1 337.9 192.95 342.95 191.85 344.65 191.85 339.1" fill="none" stroke="#000000" stroke-linecap="round" stroke-linejoin="round" stroke-width="2.0"/>
    <path d="M124.4 156.9 L134.55 161.0 M183.7 165.35 L202.3 162.45 M228.65 185.65 L229.8 185.7 244.3 186.8 M238.6 180.05 L230.55 180.8 M234.1 162.5 Q221.75 162.2 209.4 163.15 M238.1 175.05 Q213.7 173.8 194.15 175.45 M234.3 194.35 L241.35 194.35 M237.4 171.45 L218.5 171.45 M237.4 171.45 L258.6 171.45 M191.5 159.7 Q206.5 157.3 222.0 157.55 M200.75 182.4 L221.95 182.4 M278.9 166.45 L275.5 166.45 M277.45 157.25 L274.05 157.25 M278.25 161.4 L275.2 161.4 M275.2 178.4 L279.0 178.4 M259.85 266.9 L259.65 267.65 254.65 268.65 M172.6 336.55 L172.95 336.2 Q174.35 334.85 175.9 333.75 M127.6 249.15 L126.75 248.65 M276.2 194.15 L270.45 194.15 M277.15 190.5 L267.8 190.0 M277.95 186.65 L272.25 186.75 M268.65 197.75 L275.1 197.75 M238.6 180.05 L262.9 180.8 M258.1 164.25 L234.1 162.5 M177.6 156.2 Q219.1 148.75 258.9 156.2 M241.1 158.0 L255.5 158.0 M227.95 190.0 L245.35 190.0 M122.85 167.65 L127.55 169.6 M123.55 162.0 L131.05 164.5 M122.5 171.8 L132.25 176.45 M122.6 189.25 L128.3 192.8 M123.2 195.35 L128.65 197.4 M122.35 184.9 L127.65 187.9 M122.25 177.55 L127.65 180.35 M161.55 188.0 L157.1 185.95 M150.9 195.1 L158.45 196.4 M135.5 182.0 L148.95 187.55 M141.05 176.75 L157.45 181.7 M147.95 169.25 L160.45 173.5 M135.5 169.9 L146.3 173.8 M143.7 192.8 L132.25 187.55 M156.1 202.85 L148.25 200.0 M154.45 207.4 L148.6 205.55 M125.0 206.15 L135.85 208.85 M123.6 213.1 L131.25 213.1 M120.55 218.6 L128.9 222.05 M123.95 200.6 L131.25 203.3 M122.6 236.5 L130.6 240.3 M124.5 241.95 L130.4 245.0 M127.6 249.15 L131.85 251.55 M154.1 240.45 L157.95 242.25 M158.35 235.25 L145.2 231.25 M159.45 226.25 L152.1 223.75 M139.65 236.5 L153.1 242.05 M147.85 247.3 L138.65 243.1 M139.65 224.4 L150.45 228.3 M119.6 223.6 L125.4 225.55 M120.8 229.95 L125.5 231.85 M158.05 250.15 L155.05 249.6 M152.4 254.5 L158.55 256.7 M148.8 263.05 L150.15 263.35 M159.3 262.1 L152.75 260.05 M134.9 261.85 L140.75 264.05 M132.6 258.3 L135.5 260.1 M129.75 253.35 L140.85 256.15 M144.9 274.8 L151.1 274.8 M139.25 267.95 L145.55 270.25 M272.7 204.2 L263.3 204.6 M270.4 209.4 L264.5 209.4 M248.35 239.2 L259.15 239.2 M274.95 230.0 L269.85 230.55 M274.05 225.15 L270.15 225.15 M253.45 218.6 L268.35 218.6 M260.05 223.1 L265.1 223.1 M255.55 226.65 L264.8 226.65 M257.95 232.3 L266.3 232.3 M261.2 244.85 L268.0 244.85 M270.2 240.0 L263.0 239.45 M257.35 263.0 L259.85 266.9 M263.5 255.55 L257.95 255.55 M265.8 249.9 L259.45 249.9 M234.9 206.25 L242.95 206.25 M234.9 206.25 L226.15 206.25 M234.3 198.05 L237.3 198.05 M234.4 209.65 L237.95 209.65 M233.6 215.45 L241.35 215.45 M234.05 212.3 L237.95 212.3 M234.05 212.3 L231.15 212.3 M233.6 215.45 L225.4 215.45 M234.4 209.65 L228.5 209.65 M223.55 220.95 L242.65 220.95 M229.95 201.75 L241.35 201.75 M230.1 236.65 L231.95 236.65 M229.3 231.7 L235.6 231.7 M229.55 228.8 L234.8 228.8 M221.2 225.65 L235.05 225.65 M188.2 261.4 L199.35 264.55 M195.35 295.75 L201.9 295.75 M180.55 293.35 L185.95 293.35 M188.75 271.4 L199.35 275.15 M233.4 270.85 L239.4 270.85 M208.8 290.85 L211.95 290.85 M223.95 291.15 L227.95 291.15 M223.65 274.3 L235.65 274.3 M226.8 278.0 L236.8 281.4 M228.25 295.75 L233.95 295.75 M235.65 288.3 L225.35 288.3 M220.3 284.85 L233.95 284.85 M221.1 294.0 L224.25 294.0 M214.8 275.15 L195.9 268.25 M192.75 277.15 L207.35 282.0 M205.9 286.0 L188.75 281.7 M189.9 290.0 L204.8 293.45 M231.7 307.3 L224.45 307.25 M217.1 304.9 L220.8 304.9 M207.15 319.5 L212.45 319.5 M208.4 306.9 L197.95 306.7 M214.3 340.6 L210.5 338.75 M218.25 331.1 L212.45 332.9 M218.65 343.05 L209.4 344.05 M207.45 323.7 L214.95 323.7 M205.7 310.6 L222.8 310.6 M217.65 298.6 L224.8 298.6 M220.5 301.75 L228.5 301.75 M217.2 318.1 L225.45 316.75 220.25 314.2 M184.75 314.6 L195.05 314.6 M187.6 310.6 L193.6 310.6 M186.45 304.6 L195.05 308.0 M195.35 301.15 L186.2 298.0 M191.0 320.35 L195.15 320.35 M168.6 341.15 L177.05 341.15 M191.8 339.1 L191.85 339.1 M194.4 334.9 L181.5 328.7 M191.8 339.1 L184.3 335.7 M200.4 331.15 L200.4 337.1 M184.85 321.45 L191.55 324.8 M177.05 323.7 L182.6 323.7 M189.35 370.55 L178.3 365.8 M191.85 350.45 L185.6 347.05 M191.85 356.25 L199.95 359.8 M163.3 350.85 L175.65 356.6 M162.4 362.75 L169.4 362.75 M168.15 378.55 L176.1 378.55 M174.8 393.8 L180.2 393.8 M173.85 389.0 L180.85 389.0 M170.7 383.3 L178.65 383.3 M191.9 386.25 L200.9 386.25 M190.75 362.3 L181.8 357.25 M188.0 379.45 L179.9 379.15 M172.9 374.7 L183.4 374.7 M166.95 391.65 L182.45 391.65 M163.05 369.3 L178.0 372.5 M215.3 368.2 L205.65 368.2 M217.95 356.95 L202.7 356.95 M219.3 351.15 L210.5 351.15 M196.1 337.9 L204.1 346.0 M192.95 342.95 L209.1 352.15 M198.65 364.85 L208.2 364.85 M196.1 371.85 L203.1 371.85 M199.6 377.55 L205.35 377.55 M209.8 391.65 L200.9 391.65 M165.35 346.4 L179.85 351.0 M161.55 188.0 L165.6 189.85 M161.85 354.75 L167.55 354.75 M192.7 407.0 L198.0 407.0 M173.5 414.8 L178.95 414.75 M175.75 400.15 L178.95 400.15 M170.9 406.55 L180.55 406.55 M184.35 411.15 L177.35 410.95 M196.45 396.65 L203.1 396.65 M192.75 401.1 L203.1 401.1 M205.35 410.6 L200.25 410.6" fill="none" stroke="#000000" stroke-linecap="round" stroke-linejoin="round" stroke-opacity="0.5019608" stroke-width="0.5"/>
  </g>
</svg>
