<?xml version="1.0" encoding="UTF-8" standalone="no"?>
<svg xmlns:xlink="http://www.w3.org/1999/xlink" height="103.5px" width="145.8px" xmlns="http://www.w3.org/2000/svg">
  <g transform="matrix(1.0, 0.0, 0.0, 1.0, -127.6, -127.65)">
    <path d="M209.5 141.8 L208.95 137.05 Q213.75 137.25 217.6 136.05 L218.45 141.3 229.65 147.55 Q243.5 161.4 245.0 182.1 L241.4 186.45 Q242.75 191.9 241.6 198.95 L237.4 229.2 231.75 228.85 226.3 228.7 229.65 198.5 Q230.2 191.7 229.0 185.7 L229.0 185.65 231.75 181.45 Q228.6 157.45 212.55 146.65 L212.5 146.65 209.5 141.8 M198.95 146.95 Q206.95 152.6 216.55 181.5 L214.9 186.0 215.0 186.0 Q218.3 186.4 216.8 228.6 L201.0 228.95 Q199.8 196.15 195.65 187.5 L196.5 182.75 Q190.75 155.95 179.35 148.65 L179.3 148.6 Q174.5 139.8 164.15 131.85 L179.4 127.65 Q191.6 137.3 198.9 146.9 L198.95 146.95 M244.3 149.75 L244.25 149.7 Q238.7 140.65 227.7 132.5 238.25 134.5 247.65 137.85 255.95 145.9 260.35 153.95 265.6 160.25 267.65 182.85 L262.5 188.65 262.5 198.5 Q260.4 202.2 258.6 206.05 253.55 216.6 250.45 228.4 L249.85 231.15 243.75 229.95 Q255.1 194.55 252.8 188.2 L256.75 183.6 Q254.25 154.55 244.3 149.75 M273.2 162.85 L269.95 168.25 269.35 162.55 263.05 144.65 Q267.75 147.1 272.05 150.05 273.95 156.75 273.2 162.85 M146.15 137.5 L156.1 134.3 Q169.25 151.1 174.25 181.85 176.25 194.15 176.95 208.75 167.1 203.2 158.45 196.4 158.75 175.7 153.45 157.05 150.6 147.0 146.15 137.5 M127.6 144.15 L140.8 139.35 139.4 147.85 Q134.0 145.5 127.6 144.15" fill="#000000" fill-rule="evenodd" stroke="none"/>
  </g>
</svg>
