<?xml version="1.0" encoding="UTF-8" standalone="no"?>
<svg xmlns:xlink="http://www.w3.org/1999/xlink" height="75.3px" width="21.4px" xmlns="http://www.w3.org/2000/svg">
  <g transform="matrix(1.0, 0.0, 0.0, 1.0, -118.25, -155.65)">
    <path d="M122.6 189.45 Q122.2 184.3 122.25 179.15 M124.45 156.65 Q123.3 162.45 122.8 168.3 M120.25 227.35 Q119.6 224.15 119.25 220.95 L120.6 218.55 M125.7 209.3 Q124.5 204.1 123.7 198.95" fill="none" stroke="#000000" stroke-linecap="round" stroke-linejoin="round" stroke-width="2.0"/>
    <path d="M122.25 179.15 Q129.85 182.1 137.45 184.1 L137.8 194.2 Q130.1 192.5 122.6 189.45 M122.8 168.3 Q129.95 171.4 137.45 173.8 137.55 167.65 137.95 161.8 L124.45 156.65 M120.6 218.55 Q129.35 220.65 137.55 220.75 L135.45 224.7 136.5 230.45 Q128.55 230.15 120.25 227.35 M123.7 198.95 Q131.4 201.65 138.35 202.85 L139.15 212.05 Q133.05 211.55 125.7 209.3" fill="none" stroke="#000000" stroke-linecap="round" stroke-linejoin="round" stroke-width="1.0"/>
  </g>
</svg>
