<?xml version="1.0" encoding="UTF-8" standalone="no"?>
<svg xmlns:xlink="http://www.w3.org/1999/xlink" height="78.95px" width="150.85px" xmlns="http://www.w3.org/2000/svg">
  <g transform="matrix(1.0, 0.0, 0.0, 1.0, -126.6, -103.9)">
    <path d="M219.3 131.1 L219.3 139.75 M276.45 153.15 Q254.55 165.35 238.65 182.35 186.8 156.5 127.6 144.15 M193.0 104.9 Q193.8 106.3 195.1 106.45 L195.1 113.8 204.9 124.4 219.3 124.4 M238.65 182.35 L238.65 181.25 Q238.2 164.55 227.6 153.4 M166.15 150.5 Q194.65 145.9 217.0 146.8 224.5 150.7 226.2 147.25 243.15 148.55 257.3 152.95 M195.9 125.75 Q198.5 132.8 203.25 139.0" fill="none" stroke="#000000" stroke-linecap="round" stroke-linejoin="round" stroke-width="1.0"/>
    <path d="M219.3 124.4 L219.3 131.1 Q253.5 135.8 276.45 153.15 M127.6 144.15 Q152.2 134.7 179.4 127.65 188.85 118.0 193.0 104.9" fill="none" stroke="#000000" stroke-linecap="round" stroke-linejoin="round" stroke-width="2.0"/>
  </g>
</svg>
