<?xml version="1.0" encoding="UTF-8" standalone="no"?>
<svg xmlns:xlink="http://www.w3.org/1999/xlink" height="137.25px" width="60.75px" xmlns="http://www.w3.org/2000/svg">
  <g transform="matrix(1.0, 0.0, 0.0, 1.0, -183.0, -228.6)">
    <path d="M215.65 261.4 Q218.25 245.0 216.8 228.6 234.0 228.5 243.75 229.95 241.1 239.5 240.9 250.3 240.8 256.0 239.7 261.65 238.7 266.6 236.95 271.55 230.7 298.05 211.7 324.6 L210.5 332.05 210.5 351.4 208.55 363.3 Q201.25 363.2 190.25 365.85 191.05 361.0 192.0 356.3 L192.0 344.45 200.4 331.15 200.4 320.05 196.5 327.1 193.8 337.0 191.85 339.1 191.85 344.0 191.75 344.0 191.75 344.1 191.75 356.25 Q190.8 361.0 190.0 365.85 186.5 364.75 183.0 364.35 L183.5 357.2 186.75 340.75 213.9 270.25 215.65 261.4" fill="#000000" fill-rule="evenodd" stroke="none"/>
  </g>
</svg>
