<?xml version="1.0" encoding="UTF-8" standalone="no"?>
<svg xmlns:xlink="http://www.w3.org/1999/xlink" height="80.2px" width="60.0px" xmlns="http://www.w3.org/2000/svg">
  <g transform="matrix(1.0, 0.0, 0.0, 1.0, -190.35, -228.1)">
    <path d="M241.35 285.35 L242.5 281.45 244.65 271.85 244.7 271.85 245.3 267.95 Q246.05 262.75 246.3 257.45 247.15 243.95 249.85 231.15 M201.0 228.95 Q203.1 248.45 199.35 268.0 L190.85 302.75 Q195.55 303.3 200.6 304.9 L213.9 270.25 215.65 261.4 211.0 258.05 M236.95 271.55 Q232.95 288.55 223.75 305.55 230.8 305.25 231.7 307.3" fill="none" stroke="#000000" stroke-linecap="round" stroke-linejoin="round" stroke-width="1.0"/>
    <path d="M231.7 307.3 L231.75 307.3 234.85 301.45 237.8 295.0 Q239.8 290.25 241.35 285.35" fill="none" stroke="#000000" stroke-linecap="round" stroke-linejoin="round" stroke-width="2.0"/>
    <path d="M243.75 229.95 Q241.1 239.5 240.9 250.3 240.75 261.05 236.95 271.55 M216.8 228.6 Q218.25 245.0 215.65 261.4" fill="none" stroke="#000000" stroke-linecap="round" stroke-linejoin="round" stroke-width="1.0"/>
  </g>
</svg>
