<?xml version="1.0" encoding="UTF-8" standalone="no"?>
<svg xmlns:xlink="http://www.w3.org/1999/xlink" height="101.8px" width="58.4px" xmlns="http://www.w3.org/2000/svg">
  <g transform="matrix(1.0, 0.0, 0.0, 1.0, -173.45, -363.3)">
    <path d="M208.55 363.3 Q213.1 363.35 216.2 364.5 L204.6 413.8 Q203.5 420.3 210.75 426.8 222.7 438.2 231.85 450.2 229.05 450.35 226.25 450.15 L202.5 425.75 Q199.05 416.6 200.85 409.2 L208.55 363.3 M173.45 364.45 Q178.25 363.8 183.0 364.35 L179.7 411.0 181.6 427.25 189.25 458.5 Q188.0 462.2 185.7 465.1 L179.6 460.25 178.6 427.25 176.5 411.45 173.45 364.45" fill="#000000" fill-rule="evenodd" stroke="none"/>
  </g>
</svg>
