<?xml version="1.0" encoding="UTF-8" standalone="no"?>
<svg xmlns:xlink="http://www.w3.org/1999/xlink" height="17.9px" width="55.4px" xmlns="http://www.w3.org/2000/svg">
  <g transform="matrix(1.0, 0.0, 0.0, 1.0, -161.8, -362.8)">
    <path d="M189.35 370.55 L189.75 372.45 190.8 378.15 M214.7 370.75 L216.2 364.5 M189.1 372.3 L189.35 370.55 M162.8 367.3 L163.6 373.5 Q164.0 376.6 164.55 379.7 M188.15 378.25 L189.1 372.3 M214.7 370.75 L213.2 377.2" fill="none" stroke="#000000" stroke-linecap="round" stroke-linejoin="round" stroke-width="2.0"/>
    <path d="M216.2 364.5 Q208.2 361.5 190.15 365.85 L189.4 370.25 189.35 370.55 M189.75 372.45 Q207.25 368.6 214.7 370.75 M190.15 365.85 L190.1 365.85 Q178.65 362.35 167.15 365.8 163.8 370.2 167.65 372.6 179.4 370.2 189.1 372.3 M170.8 370.2 Q170.35 370.7 169.65 370.7 168.95 370.7 168.45 370.2 168.0 369.75 168.0 369.05 168.0 368.35 168.45 367.85 168.95 367.4 169.65 367.4 170.35 367.4 170.8 367.85 171.3 368.35 171.3 369.05 171.3 369.75 170.8 370.2 M167.15 365.8 Q165.0 366.4 162.8 367.3 M163.6 373.5 L167.65 372.6 Q165.1 376.3 168.35 378.9 178.65 376.95 188.15 378.25 M169.45 376.65 Q168.95 376.15 168.95 375.45 168.95 374.75 169.45 374.25 169.95 373.75 170.65 373.75 171.35 373.75 171.85 374.25 172.35 374.75 172.35 375.45 172.35 376.15 171.85 376.65 171.35 377.15 170.65 377.15 169.95 377.15 169.45 376.65 M164.55 379.7 L168.35 378.9 M213.2 377.2 Q205.55 375.6 190.8 378.15" fill="none" stroke="#000000" stroke-linecap="round" stroke-linejoin="round" stroke-width="1.0"/>
  </g>
</svg>
