<?xml version="1.0" encoding="UTF-8" standalone="no"?>
<svg xmlns:xlink="http://www.w3.org/1999/xlink" height="198.75px" width="63.5px" xmlns="http://www.w3.org/2000/svg">
  <g transform="matrix(1.0, 0.0, 0.0, 1.0, -160.85, -267.35)">
    <path d="M183.35 268.8 Q203.55 265.55 223.8 273.45 L223.85 273.45 Q219.2 292.95 205.7 310.6 L200.4 320.05 M191.85 344.65 L191.85 356.25 Q190.5 363.2 189.4 370.25 L189.35 370.55 M179.3 337.85 L180.7 331.9 M191.85 339.1 L187.6 343.65" fill="none" stroke="#000000" stroke-linecap="round" stroke-linejoin="round" stroke-width="1.0"/>
    <path d="M189.35 370.55 Q185.85 392.15 184.1 414.35 185.7 427.85 190.3 442.05 192.15 457.05 185.7 465.1 176.25 458.25 170.35 450.4 170.8 438.1 174.75 427.45 175.4 421.4 173.7 415.35 163.2 384.5 161.85 354.75 166.45 340.65 175.9 333.75 L182.95 272.2 183.35 268.8 M200.4 320.05 L196.5 327.1 193.8 337.0 191.85 339.1 191.85 344.65" fill="none" stroke="#000000" stroke-linecap="round" stroke-linejoin="round" stroke-width="2.0"/>
  </g>
</svg>
