<?xml version="1.0" encoding="UTF-8" standalone="no"?>
<svg xmlns:xlink="http://www.w3.org/1999/xlink" height="88.45px" width="44.5px" xmlns="http://www.w3.org/2000/svg">
  <g transform="matrix(1.0, 0.0, 0.0, 1.0, -188.35, -362.8)">
    <path d="M189.35 370.55 L189.4 370.25 190.15 365.85 Q201.2 363.2 208.55 363.3 L207.4 370.0 Q211.8 369.9 214.7 370.75 M212.85 378.65 L206.05 378.15 202.1 378.3 203.3 370.2 Q197.5 370.75 189.75 372.45" fill="none" stroke="#000000" stroke-linecap="round" stroke-linejoin="round" stroke-width="1.0"/>
    <path d="M214.7 370.75 L212.85 378.65 204.6 413.8 Q203.5 420.3 210.75 426.8 222.7 438.2 231.85 450.2 229.05 450.35 226.25 450.15 213.75 449.0 201.25 439.75 L190.95 435.35 192.4 413.25 Q193.55 396.1 191.0 379.5 L189.75 372.45 189.35 370.55" fill="none" stroke="#000000" stroke-linecap="round" stroke-linejoin="round" stroke-width="2.0"/>
  </g>
</svg>
