<?xml version="1.0" encoding="UTF-8" standalone="no"?>
<svg xmlns:xlink="http://www.w3.org/1999/xlink" height="109.8px" width="74.4px" xmlns="http://www.w3.org/2000/svg">
  <g transform="matrix(1.0, 0.0, 0.0, 1.0, -157.45, -355.3)">
    <path d="M192.1 356.45 L191.95 356.6 191.85 356.25 192.1 356.45" fill="#000000" fill-opacity="0.2509804" fill-rule="evenodd" stroke="none"/>
    <path d="M192.1 356.45 L195.25 358.85 197.45 355.3 196.4 359.65 199.0 364.1 200.15 365.9 Q202.7 369.8 206.65 374.55 L209.1 377.4 214.5 370.0 215.1 369.2 Q218.95 363.55 220.25 360.45 L217.5 368.6 213.7 375.05 204.6 413.8 Q204.4 414.95 204.5 416.15 204.8 421.5 210.75 426.8 222.7 438.2 231.85 450.2 L226.6 450.15 226.25 450.15 Q213.75 449.0 201.25 439.75 L190.95 435.35 192.4 413.25 Q193.55 396.25 191.05 379.85 L185.65 398.0 184.1 414.35 184.35 416.15 Q186.0 428.8 190.3 442.05 191.5 451.7 189.25 458.5 L188.95 459.4 185.85 464.95 185.7 465.1 185.7 465.05 179.6 460.25 Q174.2 455.5 170.35 450.4 170.8 438.1 174.75 427.45 175.35 421.8 173.95 416.15 L173.7 415.35 Q170.6 406.15 168.3 397.05 L168.25 396.95 Q161.5 379.0 158.75 364.45 157.9 360.0 157.45 355.85 L162.3 361.65 166.4 366.0 172.4 371.85 174.05 373.35 178.1 376.95 182.35 373.55 Q186.5 369.95 190.05 365.85 L190.1 365.8 190.15 365.7 190.2 365.65 190.25 365.6 190.2 365.6 191.75 356.65 191.95 356.6 192.1 356.45 M178.6 427.25 L178.5 426.5 178.5 427.25 178.6 427.25" fill="#000000" fill-rule="evenodd" stroke="none"/>
  </g>
</svg>
