<?xml version="1.0" encoding="UTF-8" standalone="no"?>
<svg xmlns:xlink="http://www.w3.org/1999/xlink" height="116.95px" width="63.8px" xmlns="http://www.w3.org/2000/svg">
  <g transform="matrix(1.0, 0.0, 0.0, 1.0, -158.7, -320.55)">
    <path d="M194.9 352.3 L195.15 355.6 191.9 355.2 191.85 355.2 189.65 355.5 Q186.25 356.55 184.8 360.75 184.75 362.75 184.85 364.6 185.05 370.3 186.15 374.2 186.9 376.85 188.1 378.65 189.05 380.1 190.25 381.0 L184.1 414.35 184.65 418.35 Q186.05 419.8 187.55 422.0 L191.5 426.6 192.4 413.25 192.4 413.05 190.25 381.0 191.2 380.7 194.45 379.2 Q197.25 377.6 199.4 375.35 L201.0 373.45 Q203.95 369.3 205.2 363.4 L205.85 358.55 Q204.85 356.15 203.6 354.6 201.4 351.95 198.4 351.75 196.75 351.65 194.9 352.3 M207.65 327.6 L208.15 327.65 211.2 327.8 211.7 327.8 215.8 321.1 221.95 322.75 222.3 335.9 218.6 342.0 Q222.45 349.5 222.5 356.95 218.3 358.8 216.3 364.55 L215.75 366.3 204.6 413.8 Q204.45 414.8 204.45 415.8 206.65 414.4 208.4 416.5 211.6 419.65 211.25 426.35 L210.25 426.4 Q207.0 426.5 204.4 427.7 201.95 428.8 200.05 430.85 L199.9 431.05 Q198.45 432.6 197.3 434.75 L197.3 434.8 196.1 437.5 188.15 434.8 188.1 434.8 Q185.35 431.65 182.5 431.0 180.9 430.6 179.3 431.05 L178.75 431.2 Q177.55 431.55 176.4 432.35 174.25 433.75 172.1 436.45 L171.95 436.5 169.4 427.05 172.8 422.0 174.55 419.05 173.7 415.35 Q168.65 405.85 165.6 396.4 163.15 389.0 161.95 381.65 163.4 380.95 164.65 380.05 167.25 378.15 168.85 375.4 L169.1 375.0 169.2 374.75 Q171.35 370.65 171.45 364.75 L171.1 359.2 Q169.9 357.25 168.4 355.8 L167.6 355.05 167.6 354.7 167.45 354.9 Q165.35 353.1 162.8 352.1 160.85 351.3 158.7 351.0 164.3 341.0 172.75 336.35 171.85 334.55 172.45 332.75 L173.85 327.8 Q174.3 326.3 176.75 326.35 L176.75 326.3 181.5 328.0 186.75 320.55 194.25 322.55 195.45 335.9 191.85 341.05 192.7 343.3 196.15 337.85 Q195.0 334.75 197.55 329.2 198.2 326.3 200.4 326.45 L202.2 326.85 207.65 327.6 M200.8 419.6 L200.8 419.55 200.75 419.55 200.75 419.6 200.8 419.6" fill="#000000" fill-rule="evenodd" stroke="none"/>
  </g>
</svg>
