<?xml version="1.0" encoding="UTF-8" standalone="no"?>
<svg xmlns:xlink="http://www.w3.org/1999/xlink" height="120.1px" width="39.3px" xmlns="http://www.w3.org/2000/svg">
  <g transform="matrix(1.0, 0.0, 0.0, 1.0, -159.3, -312.15)">
    <path d="M161.7 356.05 L159.5 354.35 Q162.65 344.15 168.8 336.95 L167.15 335.85 174.75 321.8 177.55 320.8 181.95 318.7 186.05 316.2 Q188.7 314.4 191.35 312.15 L198.6 327.6 195.05 343.25 193.5 344.25 195.6 355.75 192.35 358.25 193.7 378.4 190.1 381.2 188.0 407.3 185.9 409.55 Q185.8 419.15 188.4 428.8 L187.1 430.65 187.05 430.6 Q183.9 427.55 180.8 427.6 L179.0 427.85 177.5 428.5 175.5 429.9 173.2 432.25 171.25 429.65 Q173.7 419.35 171.3 410.05 L167.8 407.55 162.95 380.0 159.35 377.0 Q159.05 366.05 161.7 356.05" fill="#000000" fill-rule="evenodd" stroke="none"/>
  </g>
</svg>
