<?xml version="1.0" encoding="UTF-8" standalone="no"?>
<svg xmlns:xlink="http://www.w3.org/1999/xlink" height="101.8px" width="71.65px" xmlns="http://www.w3.org/2000/svg">
  <g transform="matrix(1.0, 0.0, 0.0, 1.0, -160.2, -363.3)">
    <path d="M190.15 365.85 L197.95 364.25 200.3 363.9 208.55 363.3 Q213.1 363.35 216.2 364.5 218.0 365.1 218.25 366.9 L213.05 389.25 210.45 389.0 204.6 413.8 Q203.5 420.3 210.75 426.8 222.7 438.2 231.85 450.2 L224.2 448.0 202.5 425.75 Q199.05 416.6 200.85 409.2 L204.3 388.7 198.95 388.85 196.5 389.0 192.2 389.55 189.25 390.0 186.6 389.7 181.25 389.35 179.7 411.0 181.6 427.25 189.25 458.5 Q188.0 462.2 185.7 465.1 L179.5 457.0 178.6 427.25 178.5 426.5 Q178.6 422.25 177.8 418.05 L176.3 408.3 175.1 389.4 173.95 389.5 171.3 389.7 166.7 390.3 163.75 390.75 Q161.0 380.15 160.2 369.5 161.1 367.8 162.85 367.3 165.75 366.1 168.65 365.35 L171.95 364.65 173.45 364.45 Q178.2 363.8 183.0 364.35 186.55 364.75 190.1 365.85 L190.15 365.85" fill="#000000" fill-rule="evenodd" stroke="none"/>
  </g>
</svg>
