<?xml version="1.0" encoding="UTF-8" standalone="no"?>
<svg xmlns:xlink="http://www.w3.org/1999/xlink" height="28.5px" width="65.15px" xmlns="http://www.w3.org/2000/svg">
  <g transform="matrix(1.0, 0.0, 0.0, 1.0, -158.4, -328.85)">
    <path d="M217.75 335.35 L218.1 335.85 Q222.6 342.9 223.55 351.1 L218.4 355.0 Q212.55 353.55 201.3 354.85 L191.85 356.25 Q183.95 353.15 171.5 355.2 L162.0 357.35 Q159.35 353.7 158.4 349.45 165.45 339.3 173.6 333.05 L176.2 331.2 179.95 328.85 183.6 335.0 Q186.2 339.15 188.7 342.45 L191.85 346.25 192.5 347.0 Q198.7 344.25 203.25 341.45 211.4 336.4 214.5 331.1 216.25 333.1 217.65 335.2 L217.75 335.35" fill="#000000" fill-rule="evenodd" stroke="none"/>
  </g>
</svg>
