<?xml version="1.0" encoding="UTF-8" standalone="no"?>
<svg xmlns:xlink="http://www.w3.org/1999/xlink" height="44.05px" width="59.6px" xmlns="http://www.w3.org/2000/svg">
  <g transform="matrix(1.0, 0.0, 0.0, 1.0, -166.15, -311.65)">
    <path d="M221.9 322.3 L224.75 327.05 Q224.7 337.1 221.65 347.15 L220.3 348.6 214.05 355.2 200.4 344.4 196.25 338.1 198.6 327.6 200.4 325.6 204.8 324.7 216.9 314.0 221.9 322.3" fill="url(#gradient0)" fill-rule="evenodd" stroke="none"/>
    <path d="M196.25 338.1 L195.05 343.25 180.55 352.15 168.8 336.95 167.15 335.85 174.75 321.8 177.55 320.8 181.95 318.7 186.05 316.2 Q188.7 314.4 191.35 312.15 L198.6 327.6 196.25 338.1" fill="url(#gradient1)" fill-rule="evenodd" stroke="none"/>
    <path d="M221.9 322.3 L224.75 327.05 Q224.7 337.1 221.65 347.15 L220.3 348.6 M168.8 336.95 L167.15 335.85 174.75 321.8 177.55 320.8" fill="none" stroke="#000000" stroke-linecap="round" stroke-linejoin="round" stroke-width="2.0"/>
    <path d="M220.3 348.6 L214.05 355.2 200.4 344.4 196.25 338.1 M198.6 327.6 L200.4 325.6 204.8 324.7 216.9 314.0 221.9 322.3" fill="none" stroke="#000000" stroke-linecap="round" stroke-linejoin="round" stroke-width="1.0"/>
    <path d="M196.25 338.1 L195.05 343.25 180.55 352.15 168.8 336.95 M177.55 320.8 L181.95 318.7 186.05 316.2 Q188.7 314.4 191.35 312.15 L198.6 327.6 196.25 338.1" fill="none" stroke="#000000" stroke-linecap="round" stroke-linejoin="round" stroke-width="1.0"/>
    <path d="M217.15 351.9 L214.05 355.2 210.65 352.5 Q218.45 332.1 211.95 318.4 L215.0 315.7 Q224.5 328.95 217.15 351.9 M177.0 347.55 L172.6 341.9 181.95 318.7 186.05 316.2 177.0 347.55" fill="#ffffff" fill-opacity="0.2509804" fill-rule="evenodd" stroke="none"/>
    <path d="M215.0 315.7 L216.9 314.0 221.9 322.3 M220.3 348.6 L217.15 351.9 214.05 355.2 210.65 352.5 200.4 344.4 196.25 338.1 195.05 343.25 180.55 352.15 177.0 347.55 172.6 341.9 168.8 336.95 M177.55 320.8 L181.95 318.7 186.05 316.2 Q188.7 314.4 191.35 312.15 L198.6 327.6 200.4 325.6 204.8 324.7 211.95 318.4 215.0 315.7 M196.25 338.1 L198.6 327.6" fill="none" stroke="#000000" stroke-linecap="round" stroke-linejoin="round" stroke-width="1.0"/>
    <path d="M221.9 322.3 L224.75 327.05 Q224.7 337.1 221.65 347.15 L220.3 348.6 M168.8 336.95 L167.15 335.85 174.75 321.8 177.55 320.8" fill="none" stroke="#000000" stroke-linecap="round" stroke-linejoin="round" stroke-width="2.0"/>
  </g>
  <defs>
    <radialGradient cx="0" cy="0" gradientTransform="matrix(0.0334, 0.0, 0.0, 0.0334, 205.1, 338.75)" gradientUnits="userSpaceOnUse" id="gradient0" r="819.2" spreadMethod="pad">
      <stop offset="0.0" stop-color="#000000" stop-opacity="0.0"/>
      <stop offset="1.0" stop-color="#000000" stop-opacity="0.2509804"/>
    </radialGradient>
    <radialGradient cx="0" cy="0" gradientTransform="matrix(0.0323, 0.0, 0.0, 0.0323, 177.85, 334.9)" gradientUnits="userSpaceOnUse" id="gradient1" r="819.2" spreadMethod="pad">
      <stop offset="0.0" stop-color="#000000" stop-opacity="0.0"/>
      <stop offset="1.0" stop-color="#000000" stop-opacity="0.2509804"/>
    </radialGradient>
  </defs>
</svg>
