<?xml version="1.0" encoding="UTF-8" standalone="no"?>
<svg xmlns:xlink="http://www.w3.org/1999/xlink" height="105.2px" width="32.5px" xmlns="http://www.w3.org/2000/svg">
  <g transform="matrix(1.0, 0.0, 0.0, 1.0, -161.85, -363.6)">
    <path d="M162.85 367.3 Q167.4 365.45 171.95 364.65 181.0 363.1 190.1 365.85 L190.15 365.85 189.4 370.25 189.35 370.55 M189.15 371.9 L189.6 371.55 M186.95 387.35 L180.65 383.4 177.3 381.3 167.65 375.05 163.95 375.8 M164.45 378.75 L173.6 384.25 176.85 386.25 186.35 391.95 M167.3 393.15 L176.85 386.25 M167.65 375.05 L172.6 374.3 Q179.8 373.4 186.25 374.2 L188.75 374.55 M173.6 384.25 L166.55 389.85 M188.25 377.65 L180.65 383.4 M177.3 381.3 L186.25 374.2 M184.7 407.45 L181.8 405.15 178.4 402.8 167.9 395.65 M169.85 402.95 L175.0 406.2 178.25 408.25 184.3 411.95 M175.0 406.2 L171.8 409.4 M172.9 412.85 L178.25 408.25 M184.1 414.35 Q180.75 415.6 177.4 415.65 L173.7 415.35 M174.85 421.95 L178.4 422.7 Q182.05 422.95 185.1 421.1 M171.9 437.4 L176.9 437.6 188.65 436.7 M170.4 450.4 L174.4 449.4 Q185.45 446.9 190.7 448.5 M181.8 405.15 L185.25 401.7 M186.0 394.8 L178.4 402.8" fill="none" stroke="#000000" stroke-linecap="round" stroke-linejoin="round" stroke-width="1.0"/>
    <path d="M189.35 370.55 L189.15 371.9 188.75 374.55 188.25 377.65 M163.95 375.8 L164.45 378.75 M186.35 391.95 L186.95 387.35 M166.55 389.85 L167.3 393.15 M162.85 367.3 L163.95 375.8 M184.3 411.95 L184.7 407.45 M167.9 395.65 L169.85 402.95 171.8 409.4 172.9 412.85 M173.7 415.35 Q174.65 418.65 174.85 421.95 M185.1 421.1 L184.1 414.35 M188.65 436.7 Q187.3 431.9 186.25 427.15 L192.9 445.45 Q194.65 458.0 189.25 466.8 185.75 468.5 182.25 467.25 175.6 462.4 168.0 451.6 169.45 438.7 174.65 427.7 172.95 432.4 171.9 437.4 170.6 443.65 170.35 450.4 L170.4 450.4 Q176.3 458.25 185.7 465.1 190.7 458.85 190.7 448.5 190.7 445.45 190.3 442.05 L188.65 436.7 M185.25 401.7 L186.0 394.8" fill="none" stroke="#000000" stroke-linecap="round" stroke-linejoin="round" stroke-width="2.0"/>
  </g>
</svg>
