<?xml version="1.0" encoding="UTF-8" standalone="no"?>
<svg xmlns:xlink="http://www.w3.org/1999/xlink" height="27.35px" width="25.25px" xmlns="http://www.w3.org/2000/svg">
  <g transform="matrix(1.0, 0.0, 0.0, 1.0, -171.2, -320.05)">
    <path d="M181.5 328.0 L186.75 320.55 194.25 322.55 195.15 332.15 195.45 335.9 191.85 341.05 187.75 346.9 180.25 344.9 179.8 340.15 179.05 331.5 181.5 328.0" fill="url(#gradient0)" fill-rule="evenodd" stroke="none"/>
    <path d="M195.15 332.15 L195.45 335.9 191.85 341.05 M172.75 336.35 Q171.85 334.55 172.45 332.75 L173.85 327.8 Q174.3 326.3 176.75 326.35 L176.75 326.3" fill="none" stroke="#000000" stroke-linecap="round" stroke-linejoin="round" stroke-width="2.0"/>
    <path d="M176.75 326.3 L181.5 328.0 186.75 320.55 194.25 322.55 195.15 332.15 M191.85 341.05 L187.75 346.9 180.25 344.9 179.8 340.15 172.75 336.35 M179.8 340.15 L179.05 331.5 181.5 328.0 M176.75 326.3 L176.75 326.35" fill="none" stroke="#000000" stroke-linecap="round" stroke-linejoin="round" stroke-width="1.0"/>
    <path d="M176.75 326.35 L176.75 326.3 181.5 328.0 179.05 331.5 179.5 336.85 179.5 336.95 179.8 340.15 172.75 336.35 Q171.85 334.55 172.45 332.75 L173.85 327.8 Q174.3 326.3 176.75 326.35" fill="#000000" fill-opacity="0.2509804" fill-rule="evenodd" stroke="none"/>
    <path d="M172.75 336.35 L179.8 340.15 179.5 336.95 179.5 336.85 179.05 331.5 181.5 328.0 176.75 326.3 176.75 326.35 M191.85 341.05 L187.75 346.9 180.25 344.9 179.8 340.15 M181.5 328.0 L186.75 320.55 194.25 322.55 195.15 332.15" fill="none" stroke="#000000" stroke-linecap="round" stroke-linejoin="round" stroke-width="1.0"/>
    <path d="M176.75 326.35 Q174.3 326.3 173.85 327.8 L172.45 332.75 Q171.85 334.55 172.75 336.35 M176.75 326.35 L176.75 326.3 M195.15 332.15 L195.45 335.9 191.85 341.05" fill="none" stroke="#000000" stroke-linecap="round" stroke-linejoin="round" stroke-width="2.0"/>
  </g>
  <defs>
    <radialGradient cx="0" cy="0" gradientTransform="matrix(0.0229, 0.0, 0.0, 0.0229, 182.5, 337.2)" gradientUnits="userSpaceOnUse" id="gradient0" r="819.2" spreadMethod="pad">
      <stop offset="0.0" stop-color="#000000" stop-opacity="0.0"/>
      <stop offset="1.0" stop-color="#000000" stop-opacity="0.2509804"/>
    </radialGradient>
  </defs>
</svg>
