<?xml version="1.0" encoding="UTF-8" standalone="no"?>
<svg xmlns:xlink="http://www.w3.org/1999/xlink" height="88.45px" width="47.3px" xmlns="http://www.w3.org/2000/svg">
  <g transform="matrix(1.0, 0.0, 0.0, 1.0, -185.55, -362.8)">
    <path d="M216.2 364.5 Q213.1 363.35 208.55 363.3 L200.3 363.9 197.95 364.25 190.15 365.85 189.4 370.25 189.35 370.55 Q187.8 380.0 186.65 389.55 L186.55 389.85 M192.2 389.55 L196.5 389.0 198.95 388.85 204.3 388.7 207.45 388.8 210.45 389.0 M226.25 450.15 L202.5 425.75 Q199.05 416.6 200.85 409.2 L204.3 388.7" fill="none" stroke="#000000" stroke-linecap="round" stroke-linejoin="round" stroke-width="1.0"/>
    <path d="M186.65 389.55 L186.6 389.85 192.2 389.55 Q193.2 401.25 192.4 413.25 L190.95 435.35 201.25 439.75 Q213.75 449.0 226.25 450.15 229.05 450.35 231.85 450.2 222.7 438.2 210.75 426.8 203.5 420.3 204.6 413.8 L210.45 389.0 213.05 389.25 218.25 366.9 Q218.0 365.1 216.2 364.5 M186.55 389.85 L186.6 389.85" fill="none" stroke="#000000" stroke-linecap="round" stroke-linejoin="round" stroke-width="2.0"/>
  </g>
</svg>
