<?xml version="1.0" encoding="UTF-8" standalone="no"?>
<svg xmlns:xlink="http://www.w3.org/1999/xlink" height="27.0px" width="28.5px" xmlns="http://www.w3.org/2000/svg">
  <g transform="matrix(1.0, 0.0, 0.0, 1.0, -194.8, -320.6)">
    <path d="M208.9 340.3 L208.9 332.3 211.7 327.8 215.8 321.1 221.55 322.65 221.95 322.75 222.3 335.9 218.6 342.0 215.4 347.1 209.3 345.45 208.9 340.3" fill="url(#gradient0)" fill-rule="evenodd" stroke="none"/>
    <path d="M200.4 326.45 Q198.2 326.3 197.55 329.2 195.0 334.75 196.15 337.85 M218.6 342.0 L222.3 335.9 221.95 322.75 221.55 322.65" fill="none" stroke="#000000" stroke-linecap="round" stroke-linejoin="round" stroke-width="2.0"/>
    <path d="M208.9 340.3 L208.9 332.3 211.7 327.8 211.2 327.8 Q205.8 327.65 200.4 326.45 M196.15 337.85 Q202.35 340.45 208.9 340.3 L209.3 345.45 215.4 347.1 218.6 342.0 M221.55 322.65 L215.8 321.1 211.7 327.8" fill="none" stroke="#000000" stroke-linecap="round" stroke-linejoin="round" stroke-width="1.0"/>
    <path d="M203.4 339.95 L199.65 339.1 196.15 337.85 Q195.0 334.75 197.55 329.2 198.2 326.3 200.4 326.45 L202.2 326.85 207.65 327.6 Q202.55 332.7 203.4 339.95" fill="#000000" fill-opacity="0.2509804" fill-rule="evenodd" stroke="none"/>
    <path d="M218.6 342.0 L215.4 347.1 209.3 345.45 208.9 340.3 205.2 340.15 203.4 339.95 199.65 339.1 196.15 337.85 M200.4 326.45 L202.2 326.85 207.65 327.6 208.15 327.65 211.2 327.8 211.7 327.8 215.8 321.1 221.55 322.65 M208.9 340.3 L208.9 332.3 211.7 327.8" fill="none" stroke="#000000" stroke-linecap="round" stroke-linejoin="round" stroke-width="1.0"/>
    <path d="M221.55 322.65 L221.95 322.75 222.3 335.9 218.6 342.0 M196.15 337.85 Q195.0 334.75 197.55 329.2 198.2 326.3 200.4 326.45" fill="none" stroke="#000000" stroke-linecap="round" stroke-linejoin="round" stroke-width="2.0"/>
  </g>
  <defs>
    <radialGradient cx="0" cy="0" gradientTransform="matrix(0.0225, 0.0, 0.0, 0.0225, 212.45, 338.5)" gradientUnits="userSpaceOnUse" id="gradient0" r="819.2" spreadMethod="pad">
      <stop offset="0.0" stop-color="#000000" stop-opacity="0.0"/>
      <stop offset="1.0" stop-color="#000000" stop-opacity="0.2509804"/>
    </radialGradient>
  </defs>
</svg>
