<?xml version="1.0" encoding="UTF-8" standalone="no"?>
<svg xmlns:xlink="http://www.w3.org/1999/xlink" height="138.7px" width="95.2px" xmlns="http://www.w3.org/2000/svg">
  <g transform="matrix(1.0, 0.0, 0.0, 1.0, -154.65, -228.6)">
    <path d="M159.5 349.65 L157.4 344.6 Q163.0 336.75 171.55 330.55 179.0 301.35 182.9 272.2 L183.35 268.45 183.5 266.9 Q185.35 248.0 184.5 229.7 L199.4 229.0 Q218.9 228.25 231.75 228.85 243.7 229.4 249.85 231.15 247.15 243.95 246.3 257.45 246.05 262.75 245.3 267.95 L244.7 271.85 242.5 281.45 241.35 285.35 Q236.0 307.4 222.15 328.2 222.25 336.8 224.3 345.4 L221.6 348.05 223.65 358.85 Q222.0 361.7 216.3 364.55 L216.2 364.5 Q210.65 362.45 200.3 363.9 L197.95 364.25 190.15 365.85 Q181.0 363.1 171.95 364.65 L168.65 365.35 Q165.75 366.1 162.85 367.3 157.95 363.9 154.65 358.9 L159.5 349.65" fill="#000000" fill-rule="evenodd" stroke="none"/>
  </g>
</svg>
