<?xml version="1.0" encoding="UTF-8" standalone="no"?>
<svg xmlns:xlink="http://www.w3.org/1999/xlink" height="44.45px" width="32.15px" xmlns="http://www.w3.org/2000/svg">
  <g transform="matrix(1.0, 0.0, 0.0, 1.0, -244.7, -230.0)">
    <path d="M249.0 235.45 Q251.85 236.55 255.15 237.1 L261.0 237.55 266.65 237.25 271.8 236.5 274.95 230.0 276.85 236.8 Q265.5 252.4 257.9 273.75 L253.65 274.35 249.75 274.45 249.55 274.45 248.85 274.45 245.65 274.05 244.7 271.85 245.3 267.95 246.1 260.7 Q248.55 261.45 251.0 261.8 L253.55 261.95 258.1 261.65 261.65 260.85 Q262.65 257.65 264.35 253.45 L267.4 246.2 263.25 246.95 258.05 247.2 253.5 246.75 247.45 245.25 Q248.1 240.3 249.0 235.45" fill="#000000" fill-rule="evenodd" stroke="none"/>
  </g>
</svg>
