<?xml version="1.0" encoding="UTF-8" standalone="no"?>
<svg xmlns:xlink="http://www.w3.org/1999/xlink" height="22.5px" width="21.15px" xmlns="http://www.w3.org/2000/svg">
  <g transform="matrix(1.0, 0.0, 0.0, 1.0, -244.2, -252.45)">
    <path d="M246.6 253.25 Q249.3 254.1 252.2 254.4 L251.3 259.9 250.0 267.95 248.85 274.45 245.65 274.05 244.7 271.85 245.3 267.95 246.1 260.7 246.3 257.45 246.6 253.25" fill="#000000" fill-opacity="0.2509804" fill-rule="evenodd" stroke="none"/>
    <path d="M264.35 253.45 Q262.65 257.65 261.65 260.85 L261.15 262.4 259.55 267.95 257.9 273.75" fill="none" stroke="#000000" stroke-linecap="round" stroke-linejoin="round" stroke-width="2.0"/>
    <path d="M257.9 273.75 L253.65 274.35 249.75 274.45 249.55 274.45 248.85 274.45 245.65 274.05 244.7 271.85 245.3 267.95 246.1 260.7 246.3 257.45 246.6 253.25" fill="none" stroke="#000000" stroke-linecap="round" stroke-linejoin="round" stroke-width="1.0"/>
    <path d="M246.6 253.25 Q249.3 254.1 252.2 254.4 257.95 255.0 264.35 253.45" fill="none" stroke="#000000" stroke-linecap="round" stroke-linejoin="round" stroke-width="1.0"/>
  </g>
</svg>
