<?xml version="1.0" encoding="UTF-8" standalone="no"?>
<svg xmlns:xlink="http://www.w3.org/1999/xlink" height="161.6px" width="159.95px" xmlns="http://www.w3.org/2000/svg">
  <g transform="matrix(1.0, 0.0, 0.0, 1.0, -119.25, -122.35)">
    <path d="M219.3 135.4 L219.3 131.1 Q225.25 131.9 230.9 133.15 257.5 138.85 276.45 153.15 284.5 181.85 269.1 212.0 273.75 221.0 274.95 230.0 265.65 250.45 263.2 273.2 261.4 274.55 259.45 275.45 254.6 277.7 248.9 277.4 L243.7 276.6 244.7 271.85 245.3 267.95 246.1 260.7 Q237.35 262.95 227.95 263.8 214.35 264.95 199.4 263.1 L184.05 260.45 181.15 259.8 181.15 216.9 158.45 196.4 153.4 210.25 159.6 225.35 Q159.05 250.55 166.8 271.6 L164.6 274.35 Q159.45 280.4 154.15 282.65 149.85 284.4 145.5 283.8 L142.4 283.0 Q119.35 245.55 119.25 220.95 L125.7 209.3 Q117.9 175.9 127.6 144.15 149.65 135.65 173.85 129.15 L173.95 129.1 Q179.15 126.95 184.0 122.35 183.5 130.0 187.9 138.35 194.55 150.95 212.45 165.1 219.35 172.7 224.75 181.2 L227.45 185.65 Q232.05 193.6 235.45 202.3 240.7 194.35 242.8 186.6 L243.85 181.55 Q247.35 157.2 219.3 135.4 M141.65 148.05 L141.85 148.15 141.95 147.9 141.65 148.05" fill="#000000" fill-rule="evenodd" stroke="none"/>
  </g>
</svg>
