<?xml version="1.0" encoding="UTF-8" standalone="no"?>
<svg xmlns:xlink="http://www.w3.org/1999/xlink" height="167.05px" width="161.95px" xmlns="http://www.w3.org/2000/svg">
  <g transform="matrix(1.0, 0.0, 0.0, 1.0, -118.25, -121.35)">
    <path d="M219.3 131.1 L219.3 135.4 Q236.8 150.05 244.0 163.2 246.55 172.1 247.65 181.9 L248.15 187.4 Q248.75 196.45 248.15 206.3 252.05 197.75 254.35 188.5 L255.5 183.2 Q257.95 170.6 257.6 156.8 L242.0 151.0 250.6 149.0 Q246.05 139.55 230.9 133.15 M243.7 276.6 L244.7 271.85 245.3 267.95 Q246.05 262.75 246.3 257.45 247.2 242.5 250.45 228.4 251.65 223.9 253.1 219.6 250.05 219.0 246.25 221.1 247.7 213.45 248.15 206.3 M173.85 129.15 Q172.5 134.05 173.15 139.35 173.85 145.75 177.45 152.7 L188.4 152.7 174.45 158.65 Q189.95 169.05 201.6 182.45 L205.25 186.85 Q213.7 197.45 219.9 209.8 219.3 197.6 216.35 185.9 L215.1 181.55 Q212.45 172.6 208.4 164.0 195.95 152.8 189.35 138.35 185.9 130.8 184.05 122.35 M158.45 196.4 L165.65 176.65 165.45 175.15 Q162.15 156.1 141.65 148.05 135.4 145.6 127.6 144.15 M145.8 283.8 Q150.0 284.35 154.15 282.6 159.6 280.3 164.95 273.95 M153.4 210.25 L151.1 216.5 M276.45 153.15 Q275.5 161.25 270.0 168.6 270.3 174.8 269.35 180.95 L262.5 188.65 262.5 198.5 Q256.9 208.45 253.1 219.6 M270.0 168.6 L269.85 166.75 269.35 162.55 M219.9 209.8 Q220.25 216.6 219.85 223.5 209.65 218.8 198.7 217.0 191.2 215.7 183.4 215.75 186.3 243.25 182.95 272.2 L181.2 287.4" fill="none" stroke="#000000" stroke-linecap="round" stroke-linejoin="round" stroke-width="1.0"/>
    <path d="M230.9 133.15 Q225.25 131.9 219.3 131.1 M230.9 133.15 Q257.5 138.85 276.45 153.15 284.5 181.85 269.1 212.0 273.75 221.0 274.95 230.0 265.65 250.45 263.2 273.2 256.9 277.85 248.9 277.4 L243.7 276.6 M184.05 122.35 Q179.15 126.95 173.95 129.1 L173.85 129.15 Q149.65 135.65 127.6 144.15 117.9 175.9 125.7 209.3 L119.25 220.95 Q119.35 245.55 142.4 283.0 144.1 283.6 145.8 283.8 M164.95 273.95 L166.8 271.6 Q159.05 250.55 159.6 225.35 L153.4 210.25 158.45 196.4 179.6 216.0 Q173.95 261.55 181.2 287.4" fill="none" stroke="#000000" stroke-linecap="round" stroke-linejoin="round" stroke-width="2.0"/>
  </g>
</svg>
