<?xml version="1.0" encoding="UTF-8" standalone="no"?>
<svg xmlns:xlink="http://www.w3.org/1999/xlink" height="34.95px" width="89.3px" xmlns="http://www.w3.org/2000/svg">
  <g transform="matrix(1.0, 0.0, 0.0, 1.0, -170.25, -220.7)">
    <path d="M258.55 228.5 L259.1 232.85 258.35 232.85 259.55 242.6 Q259.5 244.7 256.35 244.95 L251.15 244.9 Q246.95 244.45 247.4 238.5 L247.35 235.3 245.95 235.05 241.4 234.35 232.2 233.4 Q216.7 232.55 206.85 232.75 L203.2 232.85 202.0 249.75 Q201.45 252.75 199.75 254.3 198.6 255.3 196.95 255.65 L182.95 254.55 Q181.2 254.3 180.2 253.3 178.7 251.8 178.8 248.75 L173.4 247.7 170.25 245.1 171.9 227.8 Q172.2 224.4 175.6 223.9 L181.85 223.9 185.15 221.0 Q196.9 219.9 203.55 223.0 L203.9 223.15 203.9 223.0 206.85 222.8 Q218.25 222.25 231.85 222.7 L243.15 223.8 247.2 224.5 247.2 224.45 Q247.7 222.15 250.45 222.0 257.3 223.2 258.55 228.5" fill="#000000" fill-rule="evenodd" stroke="none"/>
  </g>
</svg>
