<?xml version="1.0" encoding="UTF-8" standalone="no"?>
<svg xmlns:xlink="http://www.w3.org/1999/xlink" height="23.15px" width="73.1px" xmlns="http://www.w3.org/2000/svg">
  <g transform="matrix(1.0, 0.0, 0.0, 1.0, -180.4, -220.9)">
    <path d="M198.75 221.7 Q197.0 224.25 198.85 226.75 L182.6 228.25 198.85 226.75 Q200.1 231.3 199.55 235.8 190.95 235.85 182.8 237.35 190.95 235.85 199.55 235.8 197.35 238.75 199.55 241.75 L184.8 242.35 Q181.55 242.7 181.4 239.85 181.25 237.55 182.8 237.35 L182.6 228.25 Q181.3 227.25 181.4 225.7 181.65 222.6 184.0 222.5 L198.75 221.7" fill="#000000" fill-opacity="0.2509804" fill-rule="evenodd" stroke="none"/>
    <path d="M251.15 229.65 Q252.15 229.5 252.5 228.75 253.8 224.95 251.7 224.05 M250.25 239.0 Q250.1 237.5 250.45 235.05 L251.15 229.65 M247.7 243.45 Q250.85 243.9 251.3 241.85 251.65 239.7 250.25 239.0" fill="none" stroke="#000000" stroke-linecap="round" stroke-linejoin="round" stroke-width="1.0"/>
    <path d="M251.7 224.05 Q230.6 220.45 198.75 221.7 L184.0 222.5 M198.85 226.75 Q204.7 226.5 210.75 226.65 M251.15 229.65 Q240.7 227.05 229.75 226.9 M250.25 239.0 Q233.95 236.05 214.1 236.65 M182.6 228.25 L198.85 226.75 M199.55 235.8 L201.3 235.8 M199.55 235.8 Q190.95 235.85 182.8 237.35 M184.8 242.35 L199.55 241.75 Q226.85 240.95 247.7 243.45 M218.25 231.55 Q232.9 231.15 246.95 233.95" fill="none" stroke="#000000" stroke-linecap="round" stroke-linejoin="round" stroke-width="1.0"/>
    <path d="M184.0 222.5 Q181.65 222.6 181.4 225.7 181.3 227.25 182.6 228.25 L182.8 237.35 Q181.25 237.55 181.4 239.85 181.55 242.7 184.8 242.35" fill="none" stroke="#000000" stroke-linecap="round" stroke-linejoin="round" stroke-width="2.0"/>
  </g>
</svg>
