<?xml version="1.0" encoding="UTF-8" standalone="no"?>
<svg xmlns:xlink="http://www.w3.org/1999/xlink" height="65.5px" width="63.55px" xmlns="http://www.w3.org/2000/svg">
  <g transform="matrix(1.0, 0.0, 0.0, 1.0, -172.75, -75.1)">
    <path d="M196.7 81.1 Q199.8 83.1 202.15 85.95 196.45 82.3 191.45 81.9 190.35 86.15 192.3 90.45 190.55 95.0 191.7 99.5 193.1 99.3 194.5 99.5 L195.75 99.75 194.55 100.3 Q192.55 101.5 192.1 103.45 L193.9 103.1 194.7 103.1 194.85 103.1 194.7 103.35 Q195.65 117.8 200.5 132.3 196.2 133.65 192.9 136.75 187.15 133.3 186.45 128.05 180.55 128.25 173.75 131.15 175.35 125.75 182.7 122.95 185.5 109.65 191.7 99.5 190.3 99.65 188.85 100.2 187.75 97.2 189.05 94.55 L187.15 92.5 189.1 90.9 Q186.05 82.8 190.7 78.2 194.0 79.35 196.7 81.1 M212.9 115.15 Q215.45 116.5 216.9 119.05 220.4 126.15 224.3 128.95 L224.75 129.9 Q229.85 130.9 234.9 134.55 229.4 133.0 223.9 133.05 224.8 135.55 225.25 138.85 218.25 133.25 214.65 131.7 215.2 136.25 213.0 139.6 213.5 133.5 211.75 128.1 L221.95 130.7 218.5 125.45 Q210.55 120.35 205.05 111.8 207.35 113.15 210.3 114.15 L212.65 115.05 212.9 115.15 M231.6 125.4 Q233.45 116.15 228.5 108.85 225.9 103.5 229.65 99.5 230.65 100.15 230.95 101.05 232.65 103.9 231.1 104.95 230.7 105.75 231.45 108.15 234.8 113.4 234.9 117.5 234.95 120.0 234.2 126.2 233.35 125.05 231.6 125.4 M225.55 98.9 Q224.45 99.9 223.8 97.8 226.6 96.85 228.75 94.7 L228.8 94.7 Q230.0 95.45 229.75 96.5 229.7 97.15 228.65 97.45 L228.05 97.45 Q226.95 97.55 225.7 98.85 L225.55 98.9 M222.8 86.95 L214.85 81.2 214.55 80.35 Q215.65 78.0 217.65 76.35 221.9 81.1 222.8 86.95 M205.45 93.1 Q207.35 94.55 209.1 94.6 212.7 94.15 215.8 98.0 217.15 99.55 218.8 99.45 219.1 101.35 216.6 101.05 215.55 100.75 214.8 99.9 L214.35 99.25 Q212.2 97.5 209.9 96.65 L208.7 96.25 Q205.7 96.65 205.45 93.1" fill="#000000" fill-opacity="0.2509804" fill-rule="evenodd" stroke="none"/>
    <path d="M198.3 104.25 Q197.35 101.4 198.3 98.5 200.5 107.2 212.65 115.05 L210.3 114.15 Q207.35 113.15 205.05 111.8 201.65 109.8 199.75 106.95 198.9 105.7 198.35 104.3 L198.3 104.25" fill="#000000" fill-opacity="0.2" fill-rule="evenodd" stroke="none"/>
    <path d="M212.65 115.05 L212.9 115.15 212.65 115.05" fill="#ffffff" fill-rule="evenodd" stroke="none"/>
    <path d="M230.1 130.7 Q229.35 129.9 228.9 128.85 228.55 127.15 230.35 125.8 L231.6 125.4 Q233.35 125.05 234.2 126.2 L234.25 126.25 Q235.45 128.55 235.3 130.7 234.45 132.65 232.35 132.15 231.0 131.65 230.1 130.7" fill="#000000" fill-rule="evenodd" stroke="none"/>
    <path d="M196.7 81.1 Q199.8 83.1 202.15 85.95 M191.45 81.9 Q195.9 84.2 198.95 88.2 M191.7 99.5 Q193.1 99.3 194.5 99.5 L195.75 99.75 194.55 100.3 Q192.55 101.5 192.1 103.45 L193.9 103.1 194.7 103.1 194.85 103.1 Q196.7 103.2 198.3 104.25 L198.35 104.3 Q198.9 105.7 199.75 106.95 201.65 109.8 205.05 111.8 207.35 113.15 210.3 114.15 L212.65 115.05 212.9 115.15 Q215.45 116.5 216.9 119.05 220.4 126.15 224.3 128.95 M230.1 130.7 Q229.35 129.9 228.9 128.85 228.55 127.15 230.35 125.8 L231.6 125.4 Q233.35 125.05 234.2 126.2 M228.05 98.65 Q227.8 99.7 226.85 100.05 225.75 100.35 225.55 98.9 224.45 99.9 223.8 97.8 M222.8 86.95 L214.85 81.2 214.55 80.35 M205.45 93.1 Q205.7 96.65 208.7 96.25 L209.9 96.65 Q212.2 97.5 214.35 99.25 L214.8 99.9 Q215.55 100.75 216.6 101.05 219.1 101.35 218.8 99.45 M228.05 97.45 Q226.95 97.55 225.7 98.85 L225.55 98.9 M228.05 98.65 L228.05 97.45 M209.9 96.65 Q209.05 100.25 212.0 101.35 213.95 101.5 214.8 99.9" fill="none" stroke="#000000" stroke-linecap="round" stroke-linejoin="round" stroke-width="1.0"/>
    <path d="M224.3 128.95 Q227.1 130.95 230.1 130.7 231.0 131.65 232.35 132.15 234.45 132.65 235.3 130.7 235.45 128.55 234.25 126.25 L234.2 126.2 Q234.95 120.0 234.9 117.5 234.8 113.4 231.45 108.15 230.7 105.75 231.1 104.95 232.65 103.9 230.95 101.05 230.65 100.15 229.65 99.5 L228.05 98.65 M228.75 94.7 L226.65 93.05 222.8 86.95 Q221.9 81.1 217.65 76.35 215.65 78.0 214.55 80.35 213.75 78.5 211.95 76.45 212.2 78.15 211.5 79.8 207.35 76.4 202.0 76.1 204.2 77.6 205.1 79.45 200.45 79.25 196.7 81.1 194.0 79.35 190.7 78.2 186.05 82.8 189.1 90.9 L187.15 92.5 189.05 94.55 Q187.75 97.2 188.85 100.2 190.3 99.65 191.7 99.5 185.5 109.65 182.7 122.95 175.35 125.75 173.75 131.15 180.55 128.25 186.45 128.05 187.15 133.3 192.9 136.75 196.2 133.65 200.5 132.3 L203.5 131.6 Q206.75 137.55 213.0 139.6 215.2 136.25 214.65 131.7 218.25 133.25 225.25 138.85 224.8 135.55 223.9 133.05 229.4 133.0 234.9 134.55 229.85 130.9 224.75 129.9 L224.3 128.95 M228.05 97.45 L228.65 97.45 Q229.7 97.15 229.75 96.5 230.0 95.45 228.8 94.7 L228.75 94.7" fill="none" stroke="#000000" stroke-linecap="round" stroke-linejoin="round" stroke-width="2.0"/>
  </g>
</svg>
