<?xml version="1.0" encoding="UTF-8" standalone="no"?>
<svg xmlns:xlink="http://www.w3.org/1999/xlink" height="31.2px" width="44.4px" xmlns="http://www.w3.org/2000/svg">
  <g transform="matrix(1.0, 0.0, 0.0, 1.0, -182.45, -73.45)">
    <path d="M182.45 92.65 Q186.5 91.4 189.15 89.3 190.55 88.15 191.55 86.75 188.45 86.45 186.9 85.15 L193.6 80.4 Q200.25 76.85 208.1 78.25 206.8 76.2 202.8 73.45 214.65 73.4 219.85 81.85 L219.9 78.1 Q224.65 81.85 226.3 86.3 228.0 89.85 224.2 93.35 224.0 89.95 222.45 87.55 L217.1 90.25 Q209.45 87.1 201.4 87.35 203.6 90.9 203.95 94.4 200.15 98.2 197.9 101.25 L196.9 97.85 196.85 97.75 Q196.3 95.25 194.25 95.3 190.75 95.55 191.7 100.9 L191.85 101.8 191.95 102.4 192.45 104.65 Q185.15 99.45 182.45 92.65" fill="#000000" fill-rule="evenodd" stroke="none"/>
  </g>
</svg>
