<?xml version="1.0" encoding="UTF-8" standalone="no"?>
<svg xmlns:xlink="http://www.w3.org/1999/xlink" height="71.5px" width="54.7px" xmlns="http://www.w3.org/2000/svg">
  <g transform="matrix(1.0, 0.0, 0.0, 1.0, -171.1, -52.9)">
    <path d="M197.7 52.9 L200.25 54.2 214.25 79.5 Q215.6 81.0 216.25 83.05 L217.7 83.55 220.15 85.05 Q223.15 79.05 224.15 73.05 L225.5 77.6 Q226.3 85.1 225.0 92.55 L225.0 92.6 225.6 95.35 223.5 96.55 223.55 96.6 Q224.85 100.2 223.9 103.7 L216.05 107.85 Q212.5 106.3 208.95 105.05 203.95 103.25 198.95 102.1 L200.9 106.9 200.9 114.5 206.85 121.65 210.95 118.8 220.85 118.8 223.9 122.3 222.0 124.4 204.9 124.4 195.1 113.8 195.1 106.45 185.35 108.8 Q178.3 109.25 173.8 105.95 L191.6 100.4 Q191.1 96.8 192.8 95.75 183.6 81.7 171.35 69.85 L171.1 68.55 173.3 68.8 Q186.55 74.8 197.1 86.15 L198.55 84.9 Q199.7 84.05 201.2 83.55 L202.65 83.05 195.55 52.9 197.7 52.9 M194.25 95.3 L194.25 95.25 194.25 95.3 Q193.4 95.35 192.8 95.75 L194.25 95.3 M220.8 97.35 L219.8 97.9 217.8 99.4 218.45 100.1 Q221.35 102.65 223.3 96.65 L220.8 97.35 M210.8 98.2 L207.3 97.3 202.85 96.55 Q205.9 101.6 209.25 101.4 L210.0 101.3 Q211.7 100.85 213.45 99.1 L210.8 98.2 M222.4 87.45 Q221.5 86.1 220.15 85.05 L222.4 87.5 222.5 87.65 222.4 87.45" fill="#000000" fill-rule="evenodd" stroke="none"/>
  </g>
</svg>
