<?xml version="1.0" encoding="UTF-8" standalone="no"?>
<svg xmlns:xlink="http://www.w3.org/1999/xlink" height="42.7px" width="91.8px" xmlns="http://www.w3.org/2000/svg">
  <g transform="matrix(1.0, 0.0, 0.0, 1.0, -96.7, -125.85)">
    <path d="M174.3 130.55 L175.45 132.75 176.35 134.2 178.05 136.55 178.25 136.8 180.0 138.9 181.35 140.3 183.4 142.25 188.5 146.45 187.4 163.8 Q186.8 168.95 182.65 168.5 L174.25 168.2 170.1 167.95 160.4 166.95 152.6 165.7 152.05 165.6 144.75 164.05 144.2 163.9 144.15 163.75 143.9 163.85 141.15 163.1 137.15 161.95 137.05 161.95 136.6 161.8 136.0 161.6 Q130.15 159.7 124.75 157.35 L124.35 157.2 121.25 155.75 Q117.25 153.85 113.45 151.65 L112.15 150.9 Q107.8 148.25 103.75 145.2 L103.75 145.05 103.6 145.05 Q100.0 142.4 96.7 139.4 L172.8 125.85 Q173.1 127.5 173.75 129.15 L174.1 130.05 174.25 130.4 174.3 130.55" fill="#000000" fill-rule="evenodd" stroke="none"/>
  </g>
</svg>
