<?xml version="1.0" encoding="UTF-8" standalone="no"?>
<svg xmlns:xlink="http://www.w3.org/1999/xlink" height="33.4px" width="56.75px" xmlns="http://www.w3.org/2000/svg">
  <g transform="matrix(1.0, 0.0, 0.0, 1.0, -126.95, -273.6)">
    <path d="M136.3 276.85 L136.35 276.95 136.35 277.0 134.45 282.1 134.4 282.2 Q133.95 282.45 132.25 281.1 L132.1 281.5 131.2 282.5 Q129.9 283.05 128.75 281.6 L127.9 280.3 Q126.45 278.25 127.2 276.55 127.7 274.8 130.15 274.15 L131.6 273.7 Q133.45 273.35 134.1 274.6 134.3 275.05 134.1 275.9 L134.0 276.3 Q136.15 276.4 136.3 276.85 M171.05 289.55 Q171.2 289.15 173.5 287.8 175.75 286.4 178.95 286.1 181.1 285.65 182.4 284.35 182.7 283.95 183.1 283.95 183.85 283.9 183.65 285.3 183.4 287.7 181.15 288.85 179.75 289.65 179.25 291.15 L179.15 291.5 179.05 292.0 178.3 295.15 178.3 295.2 176.85 298.05 176.6 298.5 176.45 298.85 Q175.85 300.3 176.45 301.85 177.4 304.15 176.05 306.15 175.35 307.35 174.75 306.85 174.5 306.55 174.5 306.1 174.35 304.25 172.95 302.55 170.75 300.2 169.9 297.7 L169.5 296.5 169.6 293.2 169.85 288.9 171.05 289.55" fill="#000000" fill-rule="evenodd" stroke="none"/>
  </g>
</svg>
