<?xml version="1.0" encoding="UTF-8" standalone="no"?>
<svg xmlns:xlink="http://www.w3.org/1999/xlink" height="19.8px" width="28.0px" xmlns="http://www.w3.org/2000/svg">
  <g transform="matrix(1.0, 0.0, 0.0, 1.0, -118.45, -267.25)">
    <path d="M119.45 273.45 Q119.5 271.15 121.1 270.15 122.9 268.9 124.95 269.45 125.2 268.6 127.45 267.5 L131.3 267.75 Q133.6 268.7 134.0 272.6 134.0 273.3 134.35 273.9 132.55 274.6 131.4 277.8 130.25 280.9 131.15 282.65 130.5 282.9 130.05 283.45 127.25 286.15 124.9 285.35 122.6 284.6 121.8 283.15 120.75 280.8 121.1 280.05 119.15 279.1 118.6 277.0 118.05 275.2 119.45 273.45 M133.4 278.5 Q134.55 275.55 135.3 274.95 L146.45 279.05 145.45 287.05 132.55 282.45 Q132.4 281.45 133.4 278.5" fill="#000000" fill-rule="evenodd" stroke="none"/>
  </g>
</svg>
