<?xml version="1.0" encoding="UTF-8" standalone="no"?>
<svg xmlns:xlink="http://www.w3.org/1999/xlink" height="68.35px" width="170.4px" xmlns="http://www.w3.org/2000/svg">
  <g transform="matrix(1.0, 0.0, 0.0, 1.0, -140.4, -268.55)">
    <path d="M141.45 288.5 Q142.8 288.5 143.45 289.45 L143.6 289.2 144.25 287.9 Q142.9 288.5 142.15 287.6 141.7 286.9 141.55 285.55 L141.2 281.7 Q141.15 281.35 141.25 281.0 141.4 280.45 142.0 280.05 L144.9 278.0 Q146.0 277.3 146.65 277.2 147.8 277.05 148.3 278.35 L148.7 277.25 148.8 276.95 149.35 275.2 Q150.3 273.2 153.2 272.8 157.35 272.1 163.55 274.05 170.45 276.55 174.75 281.0 L177.05 276.2 179.85 270.45 Q180.85 268.4 182.9 269.25 184.6 267.85 186.75 269.25 188.4 269.2 188.5 270.4 188.4 271.8 187.0 271.95 186.9 273.65 185.35 274.0 182.85 274.9 180.45 277.4 179.05 278.85 177.7 280.9 L178.2 281.05 Q178.95 281.4 178.55 282.95 L178.45 283.4 Q178.15 284.35 178.1 285.25 177.8 287.95 177.9 290.8 L194.15 297.35 204.05 301.25 225.65 309.2 232.0 311.35 Q243.55 315.25 253.2 317.95 L257.45 318.9 Q260.5 319.25 261.25 318.2 L267.35 320.2 Q287.9 326.65 310.8 330.9 299.25 342.65 258.6 331.45 L255.6 330.6 250.25 329.0 Q238.75 325.45 225.15 320.5 L217.15 317.55 Q206.35 313.45 194.3 308.55 L183.65 304.15 182.8 303.75 178.2 301.85 Q178.2 303.75 178.65 305.25 L179.1 305.5 Q179.35 306.0 179.0 306.55 178.4 307.3 174.05 310.3 L172.45 310.75 Q169.6 311.0 167.8 308.8 166.55 306.9 166.8 304.5 L166.3 305.5 164.0 310.35 161.2 316.05 Q160.2 318.05 158.2 317.25 156.45 318.65 154.3 317.25 152.6 317.25 152.55 316.1 152.65 314.7 154.1 314.6 154.15 312.85 155.7 312.5 158.2 311.6 160.6 309.1 162.35 307.25 164.0 304.6 L164.35 303.95 Q158.25 307.2 151.3 303.9 145.4 300.6 144.1 294.7 142.25 292.75 142.8 290.65 142.7 289.95 142.2 289.5 140.9 290.45 140.5 289.6 140.1 288.45 141.45 288.5 M147.1 296.95 L146.1 296.35 Q147.65 300.7 153.1 303.15 157.85 305.0 161.7 303.45 L158.25 302.2 Q152.15 299.85 147.1 296.95 M176.65 301.15 L169.55 298.1 167.95 301.95 Q166.2 307.5 170.35 309.6 173.5 311.05 177.35 306.1 176.7 303.7 176.65 301.15" fill="#000000" fill-rule="evenodd" stroke="none"/>
  </g>
</svg>
