<?xml version="1.0" encoding="UTF-8" standalone="no"?>
<svg xmlns:xlink="http://www.w3.org/1999/xlink" height="50.65px" width="132.6px" xmlns="http://www.w3.org/2000/svg">
  <g transform="matrix(1.0, 0.0, 0.0, 1.0, -132.25, -275.85)">
    <path d="M132.55 277.95 Q133.45 275.45 135.4 275.9 L140.6 277.8 Q140.95 277.9 140.8 278.4 L146.25 280.35 145.65 285.3 139.15 282.95 Q138.95 283.4 138.65 283.25 L133.45 281.35 Q131.65 280.45 132.55 277.95 M169.95 287.8 Q172.2 287.2 174.05 284.85 176.25 281.7 179.4 280.4 182.1 279.15 185.0 280.65 188.3 282.0 191.95 284.15 195.55 286.3 202.25 286.85 197.95 289.9 193.05 288.35 193.15 287.35 192.1 286.75 188.3 284.55 184.25 283.15 182.3 282.2 179.45 283.75 176.5 285.25 176.0 288.65 175.7 292.3 180.8 292.65 L260.85 322.95 Q263.85 324.15 264.85 326.1 L259.75 325.95 178.95 297.7 Q174.8 294.65 172.7 297.7 170.9 300.6 172.2 303.6 173.4 306.65 175.5 307.2 179.5 308.7 183.8 309.45 185.0 309.7 185.6 308.9 190.35 310.85 191.65 315.95 186.15 312.05 182.05 311.35 177.9 310.65 174.5 309.6 171.3 308.85 170.0 306.2 169.35 304.85 169.0 303.4 L169.55 303.3 Q169.35 298.25 169.6 293.2 169.7 290.45 169.95 287.8" fill="#000000" fill-rule="evenodd" stroke="none"/>
  </g>
</svg>
