<?xml version="1.0" encoding="UTF-8" standalone="no"?>
<svg xmlns:xlink="http://www.w3.org/1999/xlink" height="68.45px" width="161.85px" xmlns="http://www.w3.org/2000/svg">
  <g transform="matrix(1.0, 0.0, 0.0, 1.0, -136.95, -275.8)">
    <path d="M138.65 280.45 L141.15 281.35 141.0 281.7 Q140.95 282.15 141.2 282.5 L141.9 282.9 142.65 282.7 143.1 282.05 143.1 282.0 153.6 285.7 153.6 285.75 Q153.55 286.2 153.8 286.55 L154.5 286.95 155.25 286.75 155.6 286.4 166.6 290.3 166.5 290.55 Q166.45 290.95 166.7 291.3 166.95 291.65 167.4 291.7 L168.15 291.55 168.55 291.0 173.65 292.75 172.3 296.5 171.3 299.4 170.05 299.2 Q168.05 298.9 167.8 297.15 167.2 293.9 163.05 293.25 153.75 292.7 148.2 287.7 145.25 286.4 142.2 290.15 136.2 288.3 138.65 280.45" fill="#000000" fill-opacity="0.2509804" fill-rule="evenodd" stroke="none"/>
    <path d="M173.65 292.75 L174.95 289.05 292.35 331.75 Q282.9 341.15 269.15 336.2 L172.3 296.5 173.65 292.75" fill="url(#gradient0)" fill-rule="evenodd" stroke="none"/>
    <path d="M171.3 299.4 L172.3 296.5 269.15 336.2 Q282.9 341.15 292.35 331.75 L297.8 333.75 Q285.85 347.25 270.2 341.55 L171.3 299.4" fill="#ffffff" fill-opacity="0.2509804" fill-rule="evenodd" stroke="none"/>
    <path d="M141.15 281.35 L141.4 281.0 142.2 280.85 Q142.65 280.9 142.9 281.25 L143.1 282.0 143.1 282.05 142.65 282.7 141.9 282.9 141.2 282.5 Q140.95 282.15 141.0 281.7 L141.15 281.35 M153.6 285.7 L154.0 285.05 154.8 284.9 Q155.25 284.95 155.5 285.3 L155.7 286.1 155.6 286.4 155.25 286.75 154.5 286.95 153.8 286.55 Q153.55 286.2 153.6 285.75 L153.6 285.7 M166.6 290.3 Q166.65 290.0 166.9 289.85 L167.7 289.65 Q168.15 289.7 168.4 290.05 L168.6 290.85 168.55 291.0 168.15 291.55 167.4 291.7 Q166.95 291.65 166.7 291.3 166.45 290.95 166.5 290.55 L166.6 290.3 M173.65 292.75 L174.95 289.05 M171.3 299.4 L172.3 296.5 173.65 292.75" fill="none" stroke="#000000" stroke-linecap="round" stroke-linejoin="round" stroke-width="0.5"/>
    <path d="M174.95 289.05 L143.8 277.4 Q140.2 275.7 139.2 278.8 138.85 279.65 138.65 280.45 136.2 288.3 142.2 290.15 145.25 286.4 148.2 287.7 153.75 292.7 163.05 293.25 167.2 293.9 167.8 297.15 168.05 298.9 170.05 299.2 L171.3 299.4 270.2 341.55 Q285.85 347.25 297.8 333.75 L292.35 331.75 174.95 289.05" fill="none" stroke="#000000" stroke-linecap="round" stroke-linejoin="round" stroke-width="2.0"/>
    <path d="M292.35 331.75 Q282.9 341.15 269.15 336.2 L172.3 296.5" fill="none" stroke="#000000" stroke-linecap="round" stroke-linejoin="round" stroke-opacity="0.5019608" stroke-width="0.5"/>
  </g>
  <defs>
    <linearGradient gradientTransform="matrix(-0.0024, 0.0059, -0.0695, -0.0285, 230.9, 314.75)" gradientUnits="userSpaceOnUse" id="gradient0" spreadMethod="pad" x1="-819.2" x2="819.2">
      <stop offset="0.0" stop-color="#000000" stop-opacity="0.0"/>
      <stop offset="1.0" stop-color="#000000" stop-opacity="0.2509804"/>
    </linearGradient>
  </defs>
</svg>
