<?xml version="1.0" encoding="UTF-8" standalone="no"?>
<svg xmlns:xlink="http://www.w3.org/1999/xlink" height="38.6px" width="92.0px" xmlns="http://www.w3.org/2000/svg">
  <g transform="matrix(1.0, 0.0, 0.0, 1.0, -92.8, -263.85)">
    <path d="M138.5 281.1 L138.15 287.65 93.8 264.85 138.5 281.1 93.8 264.85 142.45 275.9 138.5 281.1" fill="url(#gradient0)" fill-rule="evenodd" stroke="none"/>
    <path d="M138.15 287.65 L138.5 281.1 93.8 264.85 M145.15 283.55 L138.5 281.1 142.45 275.9" fill="none" stroke="#000000" stroke-linecap="round" stroke-linejoin="round" stroke-opacity="0.5019608" stroke-width="0.5"/>
    <path d="M144.15 285.55 L145.15 283.55 145.7 281.35 M176.3 292.35 L178.85 292.25 Q180.1 292.7 180.7 294.0 181.3 295.2 180.85 296.5 180.35 297.8 179.1 298.4 L176.55 298.5 Q175.25 298.05 174.7 296.8 174.1 295.5 174.6 294.25 175.05 292.95 176.3 292.35 M173.15 291.35 Q172.85 293.6 171.6 295.55" fill="none" stroke="#000000" stroke-linecap="round" stroke-linejoin="round" stroke-width="1.0"/>
    <path d="M93.8 264.85 L138.15 287.65 144.15 285.55 146.9 286.55 148.7 287.2 151.7 288.3 153.6 289.0 157.45 290.4 158.8 290.9 162.15 292.1 163.85 292.7 166.7 293.75 170.2 295.05 171.6 295.55 Q171.6 296.5 172.0 297.5 L172.2 297.95 Q173.25 300.2 175.6 301.1 L180.25 300.85 Q182.55 299.8 183.4 297.45 M142.45 275.9 L93.8 264.85 M150.5 283.1 L147.35 281.95 145.7 281.35 142.45 275.9 M150.5 283.1 L151.95 283.6 156.2 285.15 157.35 285.55 161.15 287.0 163.7 287.9 167.45 289.25 168.3 289.6 170.25 290.3 173.15 291.35" fill="none" stroke="#000000" stroke-linecap="round" stroke-linejoin="round" stroke-width="2.0"/>
    <path d="M147.35 281.95 Q147.5 283.85 146.9 286.55 M148.7 287.2 Q149.65 285.85 150.5 283.1 M153.6 289.0 Q155.1 287.7 156.2 285.15 M157.35 285.55 Q157.85 287.5 157.45 290.4 M158.8 290.9 Q159.9 289.75 161.15 287.0 M151.95 283.6 Q152.4 285.45 151.7 288.3 M168.3 289.6 L166.7 293.75 M170.2 295.05 Q170.7 292.05 170.25 290.3 M163.7 287.9 Q163.45 289.5 162.15 292.1 M163.85 292.7 Q165.7 291.8 167.45 289.25" fill="none" stroke="#000000" stroke-linecap="round" stroke-linejoin="round" stroke-width="0.5"/>
    <path d="M173.15 291.35 L174.75 290.1 175.15 289.9 179.8 289.7 Q182.15 290.5 183.2 292.8 184.25 295.1 183.4 297.45" fill="none" stroke="#000000" stroke-linecap="round" stroke-linejoin="round" stroke-width="2.0"/>
  </g>
  <defs>
    <linearGradient gradientTransform="matrix(-0.0019, 0.0056, -0.0287, -0.0101, 117.5, 273.55)" gradientUnits="userSpaceOnUse" id="gradient0" spreadMethod="pad" x1="-819.2" x2="819.2">
      <stop offset="0.0" stop-color="#000000" stop-opacity="0.0"/>
      <stop offset="1.0" stop-color="#000000" stop-opacity="0.2509804"/>
    </linearGradient>
  </defs>
</svg>
