<?xml version="1.0" encoding="UTF-8" standalone="no"?>
<svg xmlns:xlink="http://www.w3.org/1999/xlink" height="68.7px" width="57.05px" xmlns="http://www.w3.org/2000/svg">
  <g transform="matrix(1.0, 0.0, 0.0, 1.0, -133.1, -236.15)">
    <path d="M160.25 256.6 Q156.3 255.25 152.05 258.65 147.85 262.05 145.8 268.15 143.7 274.25 145.0 279.55 146.3 284.8 150.25 286.15 154.15 287.45 158.4 284.05 162.65 280.65 164.7 274.55 166.75 268.45 165.45 263.15 164.15 257.9 160.25 256.6 M135.8 268.1 Q137.05 268.0 136.85 266.25 136.75 263.85 139.2 262.15 140.35 261.5 139.9 260.6 L172.55 240.75 Q172.7 241.8 173.9 240.75 176.05 240.1 177.4 241.95 176.6 243.7 178.3 243.35 L177.2 285.6 165.35 289.7 177.2 285.6 Q181.5 288.35 186.55 288.9 L173.4 293.5 165.35 289.7 163.8 290.25 139.5 298.7 163.8 290.25 171.55 294.15 148.9 302.1 Q142.9 301.0 139.5 298.7 L138.45 299.1 134.1 300.6 135.8 268.1 M177.65 290.05 L178.2 289.85 177.85 289.35 176.8 288.85 175.6 288.6 Q175.1 288.6 175.05 288.8 174.95 288.95 175.35 289.3 L176.45 289.8 177.65 290.05" fill="#000000" fill-opacity="0.2509804" fill-rule="evenodd" stroke="none"/>
    <path d="M160.25 256.6 Q164.15 257.9 165.45 263.15 166.75 268.45 164.7 274.55 162.65 280.65 158.4 284.05 154.15 287.45 150.25 286.15 146.3 284.8 145.0 279.55 143.7 274.25 145.8 268.15 147.85 262.05 152.05 258.65 156.3 255.25 160.25 256.6 M150.35 269.85 L148.6 269.25 M160.75 268.6 L160.55 264.3 158.95 265.05 159.05 266.9 M158.8 269.35 L157.6 265.9 157.3 269.4 156.1 266.65 154.5 267.15 154.45 271.3 M153.75 271.2 L153.0 268.15 M135.8 268.1 Q137.05 268.0 136.85 266.25 136.75 263.85 139.2 262.15 140.35 261.5 139.9 260.6 M156.25 276.15 L156.2 272.4 156.95 272.65 157.25 271.85 157.75 275.4 158.5 270.65 159.25 274.5 M155.05 276.6 L154.65 273.5 155.65 273.05 M154.05 277.15 L153.8 273.1 M149.05 279.25 L151.25 277.95 151.0 276.95 150.15 276.7 149.4 271.55 M160.35 273.95 L160.0 270.75 M161.35 273.6 L161.05 270.2 M147.0 269.15 L162.0 261.8 163.4 274.45 147.95 280.65 147.0 269.15 M139.1 301.4 L140.0 301.55 140.85 302.0 141.15 302.35 140.7 302.45 139.8 302.25 138.95 301.9 138.65 301.5 139.1 301.4 M134.1 300.6 L138.45 299.1 139.5 298.7 163.8 290.25 165.35 289.7 177.2 285.6 178.3 243.35 Q176.6 243.7 177.4 241.95 176.05 240.1 173.9 240.75 172.7 241.8 172.55 240.75 M147.0 302.75 Q141.2 301.2 138.45 299.1 M148.9 302.1 Q142.9 301.0 139.5 298.7 M178.5 237.15 L178.3 243.35 M171.55 294.15 L163.8 290.25 M177.65 290.05 L176.45 289.8 175.35 289.3 Q174.95 288.95 175.05 288.8 175.1 288.6 175.6 288.6 L176.8 288.85 177.85 289.35 178.2 289.85 177.65 290.05 M173.4 293.5 L165.35 289.7 M177.2 285.6 Q181.5 288.35 186.55 288.9 M179.45 239.3 L178.25 285.45 Q181.65 287.45 185.6 287.9 L188.25 240.5" fill="none" stroke="#000000" stroke-linecap="round" stroke-linejoin="round" stroke-width="1.0"/>
    <path d="M139.9 260.6 L136.1 262.9 135.8 268.1 134.1 300.6 Q137.8 303.9 143.8 303.85 L147.0 302.75 148.9 302.1 171.55 294.15 173.4 293.5 186.55 288.9 189.15 240.3 Q188.5 239.65 188.25 240.5 182.75 241.65 179.45 239.3 L179.35 237.8 178.5 237.15 172.55 240.75 139.9 260.6 Z" fill="none" stroke="#000000" stroke-linecap="round" stroke-linejoin="round" stroke-width="2.0"/>
  </g>
</svg>
