<?xml version="1.0" encoding="UTF-8" standalone="no"?>
<svg xmlns:xlink="http://www.w3.org/1999/xlink" height="162.9px" width="137.8px" xmlns="http://www.w3.org/2000/svg">
  <g transform="matrix(1.0, 0.0, 0.0, 1.0, -65.25, -168.7)">
    <path d="M173.35 171.8 Q178.5 170.5 183.45 168.7 L194.95 200.25 198.3 212.6 199.65 218.7 200.75 224.8 Q203.4 240.4 203.0 255.1 L202.6 262.85 201.75 270.45 Q197.6 299.55 180.7 324.75 L175.8 331.6 167.7 329.5 Q138.55 321.05 116.65 301.4 L111.1 296.1 105.8 290.5 Q96.05 279.5 88.05 265.85 L85.0 260.4 82.1 254.85 Q79.25 249.25 76.75 243.3 L65.25 211.75 Q70.15 209.9 74.95 207.6 95.25 197.75 112.75 178.6 L117.95 172.6 125.75 173.85 Q151.45 177.3 173.35 171.8 M177.75 179.2 Q172.9 180.85 167.9 182.0 L167.8 182.05 Q149.95 186.05 129.25 183.4 L121.45 182.2 116.25 188.15 Q102.05 203.45 85.8 211.9 81.2 214.25 76.4 216.1 L134.8 239.15 136.5 239.8 140.35 241.3 140.4 241.35 140.55 241.4 143.4 242.5 142.95 243.3 142.85 243.45 142.8 243.55 142.7 243.75 142.5 244.15 142.35 244.4 142.2 244.7 142.05 245.0 141.95 245.1 141.9 245.2 141.85 245.3 141.45 246.0 139.75 249.05 138.95 250.55 138.9 250.55 128.9 267.9 Q121.65 280.1 114.95 290.35 L115.4 290.8 120.5 295.65 Q139.3 312.45 164.2 319.9 L172.35 322.0 177.2 315.15 Q191.45 293.45 195.05 268.5 L195.85 261.5 195.9 260.9 Q184.2 257.35 170.75 252.65 L152.0 245.8 151.95 245.8 150.4 245.2 148.1 244.3 146.4 243.7 146.35 243.65 146.25 243.6 146.15 243.6 145.8 243.45 145.7 243.4 145.4 243.3 145.15 243.2 144.7 243.0 144.5 242.95 144.4 242.9 144.25 242.85 143.4 242.5 147.8 234.4 177.75 179.2" fill="#000000" fill-rule="evenodd" stroke="none"/>
  </g>
</svg>
