<?xml version="1.0" encoding="UTF-8" standalone="no"?>
<svg xmlns:xlink="http://www.w3.org/1999/xlink" height="20.1px" width="17.5px" xmlns="http://www.w3.org/2000/svg">
  <g transform="matrix(1.0, 0.0, 0.0, 1.0, -223.15, -218.65)">
    <path d="M225.0 222.55 L225.75 221.6 Q228.3 218.65 231.9 218.65 235.5 218.65 238.05 221.6 L239.3 223.3 Q240.6 225.7 240.65 228.7 240.6 231.7 239.25 234.1 L238.05 235.8 Q235.5 238.7 231.9 238.75 228.3 238.7 225.75 235.8 224.6 234.5 224.0 233.0 223.15 231.05 223.15 228.7 223.15 225.15 225.0 222.55 M232.65 222.2 L230.55 222.65 Q229.5 223.15 228.65 224.15 227.15 225.85 227.0 228.15 L227.0 228.75 Q226.95 231.3 228.5 233.2 L228.65 233.35 Q230.3 235.25 232.65 235.25 234.7 235.2 236.25 233.75 L236.65 233.35 Q238.3 231.4 238.3 228.75 L238.25 228.15 Q238.1 225.85 236.65 224.15 236.0 223.4 235.25 222.95 234.05 222.2 232.65 222.2" fill="#000000" fill-rule="evenodd" stroke="none"/>
  </g>
</svg>
