<?xml version="1.0" encoding="UTF-8" standalone="no"?>
<svg xmlns:xlink="http://www.w3.org/1999/xlink" height="29.65px" width="39.7px" xmlns="http://www.w3.org/2000/svg">
  <g transform="matrix(1.0, 0.0, 0.0, 1.0, -214.35, -152.8)">
    <path d="M241.1 154.35 Q244.55 155.4 247.05 157.4 249.55 159.4 251.05 162.0 252.5 164.65 253.1 167.55 254.0 172.05 253.1 174.6 252.25 177.15 250.05 178.85 247.9 180.6 245.1 181.15 L238.25 181.95 220.6 181.95 214.85 153.3 232.5 153.3 Q237.65 153.3 241.1 154.35 M240.5 167.7 Q239.6 163.4 237.5 161.9 235.4 160.4 231.15 160.4 L228.85 160.4 231.75 174.85 234.0 174.85 238.8 174.3 Q240.1 173.75 240.6 172.35 241.15 170.95 240.5 167.7 Z" fill="none" stroke="#000000" stroke-linecap="round" stroke-linejoin="round" stroke-width="1.0"/>
  </g>
</svg>
