<?xml version="1.0" encoding="UTF-8" standalone="no"?>
<svg xmlns:xlink="http://www.w3.org/1999/xlink" height="262.3px" width="232.25px" xmlns="http://www.w3.org/2000/svg">
  <g transform="matrix(1.0, 0.0, 0.0, 1.0, -159.35, -73.85)">
    <path d="M376.15 242.45 L377.5 242.45 Q400.95 239.4 383.9 214.3 354.9 175.1 316.6 140.25 307.2 131.4 299.45 126.65 234.85 86.25 187.85 75.2 181.75 73.75 178.35 74.75 191.55 76.0 204.9 84.2 L228.65 93.6 Q231.5 96.0 228.0 96.65 245.05 101.65 260.95 110.65 275.45 118.8 287.8 127.25 295.25 132.3 289.4 131.4 L286.9 130.9 289.25 131.8 Q295.95 134.55 298.55 140.35 L302.35 148.85 Q298.75 136.85 307.85 143.7 332.35 161.85 361.55 201.65 366.45 209.1 364.8 211.0 L360.4 211.1 Q364.0 215.05 363.0 218.1 361.55 220.55 355.3 219.45 363.1 222.8 363.25 225.9 362.6 230.2 338.8 225.85 359.65 233.1 378.0 237.55 383.1 239.45 377.35 242.0 L376.15 242.45 350.55 242.25 Q341.9 242.5 333.3 239.35 309.05 228.5 281.1 219.4 273.3 219.2 268.05 216.25 L239.25 199.25 Q229.4 192.65 229.45 186.15 201.75 172.45 205.95 160.45 189.7 150.55 191.85 141.6 182.65 137.45 182.5 127.7 176.0 123.35 175.7 115.95 164.6 110.05 165.9 98.9 156.7 94.05 161.5 84.5 165.75 75.7 174.75 77.55 175.8 75.5 178.35 74.75 M360.4 211.1 L360.25 211.0 Q342.65 196.3 324.5 184.5 319.7 186.55 267.25 163.6 L255.1 167.1 Q260.05 180.6 257.35 186.85 271.6 190.6 283.8 201.5 312.7 200.25 355.3 219.45 M283.8 201.5 Q278.35 217.1 281.1 219.4 L288.15 218.95 Q304.1 218.65 333.5 224.65 L338.8 225.85 M362.95 263.75 Q371.15 260.85 374.6 262.75 377.75 264.6 374.6 268.15 365.25 276.65 351.15 283.55 356.05 281.35 357.9 283.35 360.15 285.7 356.75 289.15 L363.3 283.8 Q382.65 272.65 386.15 262.2 388.65 251.35 376.2 247.55 363.2 244.75 333.75 247.15 362.15 245.85 366.95 251.3 370.1 256.5 357.1 258.25 L343.4 259.25 Q346.85 261.7 341.65 264.1 357.25 263.15 349.9 267.95 337.9 273.25 326.2 278.75 333.25 279.45 338.5 281.05 344.85 270.1 361.3 264.35 L362.95 263.75 M351.15 283.55 L351.0 283.6 347.45 285.2 Q326.25 302.55 298.9 332.7 304.1 338.25 314.35 333.3 331.75 309.5 356.75 289.15 M347.45 285.2 Q343.8 282.65 338.5 281.05 M174.75 77.55 Q192.75 82.95 213.4 90.9 L223.05 94.65 228.0 96.65 M213.4 90.9 Q215.65 93.85 203.1 97.35 209.1 99.0 215.75 101.65 214.0 96.35 223.05 94.65 M203.1 97.35 Q180.3 91.05 165.9 98.9 M267.25 163.6 Q258.3 152.2 246.8 148.15 244.6 147.3 242.35 146.8 L213.55 141.05 Q200.95 138.3 191.85 141.6 M175.7 115.95 Q201.4 105.8 224.2 114.1 234.1 112.35 228.05 107.0 L223.55 105.0 Q219.55 103.15 215.75 101.65 M182.5 127.7 Q196.15 122.25 210.9 125.7 L245.6 132.6 250.4 130.35 Q242.1 122.75 233.25 118.1 228.8 115.7 224.2 114.1 M286.9 130.9 Q266.3 123.0 242.55 113.1 235.7 113.65 233.25 118.1 M228.05 107.0 L242.55 113.1 M205.95 160.45 Q209.95 157.9 224.9 160.8 L255.1 167.1 M324.5 184.5 Q314.0 171.2 306.1 157.4 293.75 154.6 279.9 144.95 264.45 135.1 250.4 130.35 M245.6 132.6 Q248.45 142.65 246.8 148.15 M306.1 157.4 L302.35 148.85 M257.35 186.85 Q244.2 183.4 229.45 186.15 M281.45 268.55 L270.85 264.5 Q229.5 270.65 220.15 265.85 182.05 275.8 205.6 292.5 217.85 282.75 271.15 279.5 273.55 273.25 281.45 268.55 314.2 261.7 343.4 259.25 M333.75 247.15 Q311.8 249.05 280.65 253.8 273.05 260.65 270.85 264.5 M341.65 264.1 Q320.0 270.45 286.9 283.5 L282.55 289.0 287.3 293.2 Q299.1 287.45 307.1 288.2 316.55 283.4 326.2 278.75 M205.6 292.5 Q208.4 305.4 220.15 305.65 276.75 283.4 286.9 283.5 274.35 282.45 271.15 279.5 M298.9 332.7 Q285.55 335.4 283.65 329.65 255.1 339.15 254.35 324.8 235.7 326.35 234.65 315.05 221.2 316.55 220.15 305.65 M234.65 315.05 L282.55 289.0 M254.35 324.8 Q275.15 308.55 287.3 293.2 M220.15 265.85 Q234.75 253.1 280.65 253.8 M283.65 329.65 Q293.85 309.3 307.1 288.2" fill="none" stroke="#000000" stroke-linecap="round" stroke-linejoin="round" stroke-opacity="0.5019608" stroke-width="1.0"/>
  </g>
</svg>
