<?xml version="1.0" encoding="UTF-8" standalone="no"?>
<svg xmlns:xlink="http://www.w3.org/1999/xlink" height="131.8px" width="116.2px" xmlns="http://www.w3.org/2000/svg">
  <g transform="matrix(1.0, 0.0, 0.0, 1.0, -297.25, -321.0)">
    <path d="M394.4 371.35 Q395.9 368.55 396.75 365.5 L397.3 363.75 Q398.1 360.55 398.5 357.55 L398.75 353.8 398.55 349.0 Q397.85 343.1 395.2 337.65 L392.85 333.6 Q390.7 330.25 387.75 327.1 L392.35 321.5 Q399.2 326.45 403.75 331.9 L403.85 332.1 403.95 332.2 Q406.1 334.75 407.7 337.55 409.65 340.7 410.85 344.1 413.9 352.45 412.55 361.8 412.1 364.65 411.25 367.7 L409.9 371.65 Q407.15 379.0 403.35 385.0 L400.5 388.85 397.45 392.4 Q393.2 396.95 387.9 400.35 387.4 400.55 386.95 400.9 L385.95 401.4 385.05 402.0 384.05 402.5 383.1 403.05 381.95 403.6 Q381.4 403.75 380.95 404.0 L379.85 404.6 Q375.55 406.4 370.85 407.6 L365.55 408.9 Q363.45 409.5 361.7 410.25 357.6 411.65 353.5 413.75 L348.75 416.3 347.05 417.2 345.4 418.25 343.7 419.25 Q342.9 419.75 342.05 420.4 341.4 420.85 340.5 421.55 L339.9 422.05 334.0 426.55 328.3 431.55 Q324.4 434.95 320.55 439.0 314.75 444.9 308.85 452.0 295.0 454.35 298.4 437.35 301.8 433.25 305.35 429.6 L307.7 427.15 Q308.6 426.05 309.8 425.05 L313.3 421.85 Q321.7 414.25 330.9 408.65 L332.45 407.6 334.15 406.7 335.9 405.85 337.6 404.85 Q338.15 404.5 338.7 404.25 L339.8 403.75 Q343.15 402.1 346.55 400.7 351.1 398.85 355.75 397.4 L356.95 397.1 367.4 393.45 367.55 393.3 374.35 390.1 Q378.6 387.85 382.05 385.3 L382.1 385.25 Q387.6 380.75 391.75 375.2 L391.75 375.1 394.15 371.6" fill="none" stroke="#000000" stroke-linecap="round" stroke-linejoin="round" stroke-width="1.0"/>
  </g>
</svg>
