<?xml version="1.0" encoding="UTF-8" standalone="no"?>
<svg xmlns:xlink="http://www.w3.org/1999/xlink" height="141.95px" width="112.25px" xmlns="http://www.w3.org/2000/svg">
  <g transform="matrix(1.0, 0.0, 0.0, 1.0, -344.05, -322.95)">
    <path d="M370.4 323.45 Q361.9 348.2 358.05 373.5 L357.95 374.1 Q352.3 399.3 352.05 426.8 L348.85 436.05 Q342.8 450.9 345.25 464.4 346.2 459.75 348.2 456.1 349.65 453.35 351.7 451.15 354.55 448.2 358.45 446.3 364.1 450.45 364.45 457.25 373.2 452.35 376.05 447.4 377.65 450.35 378.7 453.3 L379.3 455.1 Q380.5 459.35 380.55 463.5 384.95 452.6 385.2 442.25 L388.4 444.5 Q387.55 432.05 382.55 420.4 380.5 410.75 382.75 401.1 388.15 379.7 395.2 359.5 L404.4 359.5 Q409.3 373.5 413.4 388.15 L413.55 388.55 Q417.0 408.5 413.6 425.25 409.55 433.5 411.1 445.65 413.5 441.1 417.25 437.85 L420.25 435.55 Q419.8 437.7 419.5 439.9 418.85 444.8 419.1 449.7 L419.2 450.95 Q419.55 456.65 421.2 462.4 L422.05 459.75 423.25 456.85 Q426.2 450.3 431.45 445.2 437.6 452.0 439.95 458.8 445.1 451.8 444.85 444.1 L448.65 447.05 451.25 449.4 Q454.2 452.3 455.8 455.0 454.3 439.55 448.4 422.85 447.45 396.7 441.15 370.55 437.2 346.75 429.25 323.45 M419.5 439.9 Q418.15 445.55 419.2 450.95" fill="none" stroke="#000000" stroke-linecap="round" stroke-linejoin="round" stroke-width="1.0"/>
    <path d="M395.2 359.5 L393.8 359.5 Q390.45 354.45 384.3 349.4 M367.35 381.3 Q370.6 369.4 369.6 358.85 363.65 371.85 367.35 381.3 M404.4 359.5 L405.8 359.5 Q409.15 354.45 415.3 349.4 M440.0 412.5 Q440.05 392.0 436.4 375.5 434.05 398.85 440.0 412.5" fill="none" stroke="#000000" stroke-linecap="round" stroke-linejoin="round" stroke-opacity="0.5019608" stroke-width="1.0"/>
  </g>
</svg>
