<?xml version="1.0" encoding="UTF-8" standalone="no"?>
<svg xmlns:xlink="http://www.w3.org/1999/xlink" height="28.8px" width="30.4px" xmlns="http://www.w3.org/2000/svg">
  <g transform="matrix(1.0, 0.0, 0.0, 1.0, -384.65, -215.3)">
    <path d="M405.1 218.55 L406.7 215.3 Q410.5 217.2 412.7 220.8 415.05 224.55 415.05 228.9 415.05 235.15 410.6 239.65 406.1 244.1 399.9 244.1 393.6 244.1 389.15 239.65 384.65 235.15 384.65 228.9 384.65 224.55 387.0 220.8 389.25 217.2 393.05 215.3 L394.65 218.45 Q391.8 219.9 390.05 222.75 388.25 225.55 388.25 228.9 388.25 233.7 391.65 237.05 395.1 240.5 399.9 240.5 404.7 240.5 408.05 237.05 411.45 233.7 411.45 228.9 411.45 225.55 409.7 222.75 408.0 219.95 405.1 218.55" fill="#000000" fill-rule="evenodd" stroke="none"/>
  </g>
</svg>
