<?xml version="1.0" encoding="UTF-8" standalone="no"?>
<svg xmlns:xlink="http://www.w3.org/1999/xlink" height="30.2px" width="32.6px" xmlns="http://www.w3.org/2000/svg">
  <g transform="matrix(1.0, 0.0, 0.0, 1.0, -383.5, -209.65)">
    <path d="M407.6 214.05 L410.4 214.05 410.4 218.65 414.9 216.35 416.1 218.15 411.3 220.35 416.1 222.5 414.9 224.3 409.0 221.6 402.1 224.75 408.95 227.9 414.9 225.1 416.1 226.95 411.3 229.15 416.1 231.35 414.9 233.15 410.4 230.85 410.4 235.45 407.6 235.45 407.6 229.85 401.2 226.4 401.2 232.9 406.95 235.7 405.75 237.5 401.2 235.25 401.2 239.85 398.4 239.85 398.4 235.25 393.85 237.5 392.7 235.7 398.4 232.9 398.4 226.4 392.0 229.8 392.0 235.45 389.2 235.45 389.2 230.85 384.7 233.15 383.5 231.35 388.35 229.15 383.5 226.95 384.7 225.1 390.6 227.9 397.55 224.75 390.6 221.6 384.7 224.3 383.5 222.5 388.35 220.35 383.5 218.2 384.7 216.35 389.2 218.65 389.2 214.05 392.0 214.05 392.0 219.65 398.4 223.05 398.4 216.6 392.7 213.8 393.9 211.95 398.4 214.25 398.4 209.65 401.2 209.65 401.2 214.25 405.7 211.95 406.9 213.8 401.2 216.6 401.2 223.05 407.6 219.65 407.6 214.05" fill="#000000" fill-rule="evenodd" stroke="none"/>
  </g>
</svg>
