<?xml version="1.0" encoding="UTF-8" standalone="no"?>
<svg xmlns:xlink="http://www.w3.org/1999/xlink" height="32.8px" width="34.65px" xmlns="http://www.w3.org/2000/svg">
  <g transform="matrix(1.0, 0.0, 0.0, 1.0, -382.4, -211.8)">
    <path d="M415.25 213.85 Q417.05 215.9 417.05 219.0 417.05 221.95 415.1 225.55 L412.0 225.55 Q413.85 221.8 413.85 219.15 413.85 217.05 413.0 215.8 412.1 214.55 410.7 214.55 407.6 214.55 404.8 221.8 403.3 225.6 402.3 231.65 401.3 237.7 401.3 242.7 L401.3 244.6 398.15 244.6 398.15 242.6 Q398.15 237.9 397.15 232.1 396.2 226.2 394.85 222.55 391.95 214.8 388.7 214.8 387.35 214.8 386.45 216.0 385.6 217.25 385.6 219.3 385.6 222.05 387.45 225.55 L384.35 225.55 Q382.4 222.0 382.4 219.05 382.4 215.95 384.2 213.9 386.0 211.8 388.75 211.8 393.1 211.8 396.1 217.55 398.9 222.85 399.7 231.3 400.4 223.05 403.25 217.65 406.3 211.8 410.7 211.8 413.45 211.8 415.25 213.85" fill="#000000" fill-rule="evenodd" stroke="none"/>
  </g>
</svg>
