<?xml version="1.0" encoding="UTF-8" standalone="no"?>
<svg xmlns:xlink="http://www.w3.org/1999/xlink" height="156.65px" width="76.75px" xmlns="http://www.w3.org/2000/svg">
  <g transform="matrix(1.0, 0.0, 0.0, 1.0, 132.1, 62.6)">
    <path d="M-123.75 -50.75 Q-123.7 -48.4 -122.15 -47.05 L-121.65 -46.3 -121.15 -45.9 -120.4 -45.35 -119.6 -44.7 -118.9 -44.2 Q-117.15 -43.25 -115.85 -41.75 L-115.7 -38.3 Q-115.75 -37.0 -115.15 -36.0 L-114.25 -34.95 -113.6 -35.05 -112.45 -34.0 -110.55 -32.0 Q-109.55 -31.0 -108.9 -29.4 L-108.9 -29.35 -109.0 -26.65 Q-108.1 -26.4 -107.95 -26.1 -107.5 -25.25 -107.05 -24.9 L-106.1 -24.0 -105.25 -23.2 -102.65 -20.8 Q-102.45 -21.1 -102.65 -22.25 L-103.0 -23.7 Q-103.15 -27.3 -102.2 -29.4 L-101.05 -31.55 -100.4 -32.55 Q-99.1 -34.35 -98.45 -35.85 L-97.4 -38.4 -94.75 -44.4 -94.25 -45.2 Q-94.25 -42.1 -94.65 -39.15 L-94.85 -37.5 Q-95.1 -34.05 -93.9 -31.15 L-92.65 -28.35 Q-92.1 -27.15 -92.25 -25.6 -92.6 -21.15 -91.5 -17.25 L-90.85 -15.35 Q-89.6 -13.5 -88.65 -12.6 -86.9 -10.85 -85.85 -9.1 -85.8 -6.85 -85.4 -5.9 -85.0 -6.25 -84.9 -7.3 -84.75 -9.7 -85.05 -11.7 L-85.3 -12.85 Q-86.5 -16.3 -83.75 -18.9 -83.2 -18.65 -83.1 -18.1 L-81.85 -12.8 -81.15 -9.5 -80.05 -6.7 Q-79.1 -6.4 -78.85 -5.85 L-78.25 -4.75 Q-77.05 -3.45 -76.45 -4.5 L-75.7 -5.05 Q-75.15 -4.6 -75.25 -3.4 L-75.2 -2.3 Q-75.05 -0.25 -74.15 0.95 -72.8 1.65 -72.2 2.9 -70.3 4.2 -69.85 5.75 L-68.5 4.1 Q-67.25 2.7 -65.4 1.9 -64.3 1.45 -63.9 0.25 L-63.65 -1.0 -63.15 -1.75 -62.7 -2.4 -61.85 -4.15 -61.55 -5.0 -61.3 -6.05 Q-61.1 -6.55 -61.05 -7.05 L-60.3 -9.3 -60.2 -7.7 -60.1 -5.25 Q-60.05 -3.15 -60.45 -0.75 L-60.6 -0.15 -60.9 0.95 -61.35 1.9 -61.9 2.8 Q-62.85 4.45 -63.95 5.8 L-64.3 6.45 Q-64.75 8.15 -64.65 10.1 L-64.7 14.15 -64.7 14.8 Q-64.75 16.2 -65.55 17.05 L-65.95 17.65 -66.35 18.35 -67.1 19.2 -69.3 21.05 -70.7 22.75 Q-70.6 25.0 -72.0 26.75 L-72.9 27.9 -76.25 33.15 Q-76.8 34.15 -77.5 34.95 -78.5 36.15 -78.7 37.85 L-76.85 37.3 Q-75.35 37.15 -73.85 35.95 L-72.25 33.3 -71.85 32.8 -70.9 31.3 -70.2 29.9 -69.55 28.8 Q-69.1 27.9 -68.45 27.4 -68.4 28.15 -68.7 28.85 L-69.4 30.9 -70.15 34.75 -70.2 35.4 Q-70.25 36.45 -70.45 37.4 -70.8 39.0 -71.8 40.25 L-75.1 43.95 -74.8 44.75 -74.0 45.6 -73.5 45.95 -73.0 46.3 -71.95 46.65 -70.5 46.55 Q-69.55 46.4 -68.9 45.6 -68.05 44.5 -66.85 44.35 L-66.75 53.15 -66.35 54.2 -66.05 55.2 -65.95 55.8 -65.9 56.4 -65.8 62.1 -65.7 63.55 -65.25 64.8 -64.7 65.85 -64.15 66.95 -63.85 67.5 -62.6 69.25 -62.0 70.15 -60.95 71.15 -60.1 71.3 -59.3 70.9 Q-58.55 70.3 -58.3 69.05 L-58.05 68.25 -57.75 67.6 -56.95 66.05 -56.6 65.15 Q-56.35 64.3 -55.6 63.95 -55.25 64.55 -55.35 65.6 L-55.45 66.4 Q-55.8 68.25 -56.55 69.85 L-57.15 71.5 -57.55 72.7 -57.6 73.05 -57.7 73.35 Q-57.95 75.55 -59.45 77.05 L-60.35 78.2 -60.95 79.45 -61.25 80.3 -61.4 82.55 Q-61.5 83.75 -61.9 84.8 L-62.1 85.4 Q-62.4 86.95 -63.4 88.6 L-66.15 91.15 -66.75 91.6 Q-67.6 92.35 -68.65 92.75 L-69.15 93.05 Q-69.4 93.3 -69.9 93.35 L-71.35 93.4 Q-72.35 93.45 -73.15 92.65 -73.55 92.65 -73.75 92.3 L-74.2 91.85 -75.2 91.3 Q-76.2 90.75 -77.45 91.0 L-78.05 91.3 -79.45 92.0 -80.15 92.25 Q-81.05 92.55 -81.8 93.1 -83.0 94.0 -85.0 94.05 L-88.9 93.45 Q-89.5 93.45 -89.9 93.15 -90.45 92.7 -91.15 92.5 L-91.75 92.15 -93.2 91.15 -94.55 89.85 -96.5 87.75 -99.9 84.8 -100.35 84.4 -100.85 84.05 -101.55 83.75 -102.35 83.75 Q-103.95 83.7 -105.0 82.75 L-106.8 81.05 -107.3 80.55 -108.9 78.85 -109.75 77.25 Q-110.05 76.5 -110.5 76.0 -111.35 75.05 -111.15 74.15 L-110.6 74.45 Q-110.2 74.8 -109.7 74.8 L-108.85 75.05 -107.05 75.25 Q-106.05 75.35 -106.1 74.55 -106.1 74.0 -106.25 73.55 L-106.85 71.7 -107.1 70.9 Q-107.55 69.05 -109.25 67.8 L-110.9 66.35 -111.4 65.85 -113.5 63.95 Q-113.55 63.2 -113.95 62.5 -114.3 61.8 -114.3 60.9 -114.3 59.35 -115.15 58.05 L-115.6 57.2 -116.5 54.35 Q-116.65 53.8 -117.25 53.3 -119.45 51.5 -121.35 49.25 L-125.6 44.7 -126.45 43.75 -126.95 42.9 -127.5 41.5 -127.7 40.5 Q-127.75 39.35 -128.2 38.3 -128.75 36.8 -128.7 35.15 L-127.3 36.65 Q-126.35 38.3 -124.7 39.75 L-122.45 42.2 Q-122.25 42.65 -121.55 42.5 -120.65 42.25 -119.95 41.7 L-119.55 41.15 -119.4 40.55 -118.25 37.7 -117.95 37.0 -117.0 35.25 Q-115.65 33.4 -116.6 31.35 L-116.8 30.7 Q-116.9 29.35 -117.5 28.25 L-117.65 27.65 Q-117.75 26.8 -118.2 26.25 -118.15 24.85 -118.5 23.6 -118.6 23.2 -118.85 22.85 L-119.2 21.75 -119.2 21.15 Q-119.15 20.7 -119.7 20.5 L-120.25 19.7 Q-120.55 19.0 -121.45 18.45 L-122.15 17.65 Q-123.4 15.4 -125.0 13.8 L-125.5 13.1 Q-126.05 12.05 -126.85 11.5 L-127.15 10.95 -127.6 10.3 Q-128.6 9.15 -128.95 8.05 L-129.7 5.8 Q-130.0 4.8 -129.95 3.35 L-130.05 0.3 -130.45 -0.6 -130.75 -1.55 -131.0 -2.35 -131.45 -3.85 -132.1 -5.9 -130.9 -4.05 -129.95 -2.9 -128.15 -0.65 -126.5 1.4 -123.95 4.3 -122.55 4.8 Q-122.0 4.95 -122.0 4.6 L-121.9 2.15 -121.85 1.1 Q-121.8 -0.15 -120.75 -1.35 -119.7 -2.85 -119.9 -4.8 L-120.05 -6.25 Q-120.1 -7.15 -120.45 -7.9 L-121.35 -10.1 -121.7 -11.75 -121.8 -12.55 Q-122.2 -14.5 -121.7 -16.65 -121.25 -18.45 -120.25 -20.3 L-119.95 -20.95 -118.55 -24.4 -117.85 -26.25 -117.75 -26.85 -117.6 -28.9 Q-117.5 -30.2 -118.1 -31.75 -118.75 -33.15 -119.85 -34.45 L-120.55 -35.15 -122.8 -37.2 -123.35 -37.9 -125.65 -41.15 -125.95 -41.8 -126.35 -42.7 -126.9 -43.85 Q-127.6 -45.55 -127.4 -47.45 L-127.35 -48.05 -126.7 -51.75 -126.55 -52.75 -126.0 -58.5 -125.9 -59.5 -125.4 -62.6 -124.2 -59.1 Q-123.9 -58.3 -123.9 -57.5 L-123.75 -50.75 M-102.65 -20.8 L-100.65 -18.35 -101.3 -19.45 Q-101.6 -20.05 -102.65 -20.8 M-110.2 -17.2 L-112.3 -19.75 -112.35 -19.8 -112.35 -17.85 -112.55 -14.65 Q-112.65 -11.05 -111.95 -7.8 L-111.75 -6.45 Q-111.55 -4.55 -112.25 -2.9 L-113.15 0.05 Q-113.75 1.8 -113.65 3.2 L-113.4 7.45 Q-113.25 9.25 -112.4 10.8 -112.4 14.15 -111.95 15.7 L-111.7 16.7 Q-111.2 19.15 -111.1 21.7 -113.8 20.15 -115.85 17.2 L-114.9 20.95 -114.1 23.55 Q-114.25 27.6 -111.85 29.25 L-110.1 31.1 Q-109.7 31.4 -109.6 32.05 L-109.05 35.95 -108.85 37.4 -108.75 39.15 Q-109.6 40.7 -110.7 41.7 L-111.65 43.0 Q-112.3 43.8 -112.35 44.15 -112.75 47.35 -110.8 48.55 -109.45 49.85 -109.0 50.6 -108.85 53.35 -108.3 55.55 L-107.25 58.8 -106.95 60.25 -106.5 61.45 Q-103.35 61.2 -101.05 62.65 L-99.7 63.45 Q-97.7 64.55 -96.95 67.0 L-96.7 76.55 Q-95.75 79.15 -94.2 80.35 L-90.1 80.2 Q-88.05 78.2 -86.95 79.6 L-85.5 80.95 -84.3 81.85 Q-81.1 84.45 -77.25 85.0 -75.25 85.3 -73.65 84.1 L-72.6 83.35 -70.75 81.65 -69.9 80.4 -69.4 79.4 Q-68.9 77.6 -68.9 75.5 L-68.65 74.5 Q-67.75 72.7 -68.0 70.5 -68.95 70.25 -69.25 70.7 -72.6 71.45 -72.8 68.75 L-72.95 63.75 -72.8 56.25 -72.55 54.85 Q-71.95 53.3 -71.9 51.65 L-73.0 51.6 -75.1 52.15 -81.15 52.35 -86.1 52.0 Q-86.05 49.55 -85.05 47.75 L-84.45 46.6 Q-83.8 45.4 -83.95 43.8 -84.15 42.45 -85.05 42.15 L-87.3 39.55 -87.95 38.1 Q-88.0 36.45 -86.6 36.05 L-85.4 35.0 Q-82.9 33.3 -80.55 30.55 L-78.2 28.2 Q-77.15 27.3 -76.45 25.7 L-75.85 24.5 Q-73.85 20.95 -74.15 16.7 -74.3 15.15 -73.75 13.85 -73.15 12.4 -73.15 10.65 -71.35 8.45 -73.45 7.7 L-74.75 7.4 -75.2 7.4 Q-76.4 6.8 -76.75 5.45 -77.25 3.6 -77.05 1.6 -78.05 2.0 -78.75 3.0 -79.2 3.6 -80.1 3.7 -81.15 3.75 -82.4 2.65 L-82.45 2.65 -83.9 1.2 Q-84.65 0.7 -84.55 0.2 L-87.05 0.85 Q-88.7 1.1 -88.85 0.2 -89.95 -1.45 -90.4 -3.4 -90.75 -4.95 -91.85 -6.35 L-93.45 -8.1 Q-94.5 -9.15 -94.65 -10.9 L-95.9 -13.1 Q-96.7 -14.0 -96.75 -14.5 -97.5 -13.6 -97.7 -12.0 L-98.05 -8.7 Q-99.75 -7.35 -100.65 -8.95 L-102.6 -12.55 -103.35 -13.45 -104.8 -14.8 -106.2 -14.7 -108.45 -14.75 Q-109.7 -15.85 -110.2 -17.2" fill="url(#gradient0)" fill-rule="evenodd" stroke="none"/>
    <path d="M-110.2 -17.2 Q-109.7 -15.85 -108.45 -14.75 L-106.2 -14.7 -104.8 -14.8 -103.35 -13.45 -102.6 -12.55 -100.65 -8.95 Q-99.75 -7.35 -98.05 -8.7 L-97.7 -12.0 Q-97.5 -13.6 -96.75 -14.5 -96.7 -14.0 -95.9 -13.1 L-94.65 -10.9 Q-94.5 -9.15 -93.45 -8.1 L-91.85 -6.35 Q-90.75 -4.95 -90.4 -3.4 -89.95 -1.45 -88.85 0.2 -88.7 1.1 -87.05 0.85 L-84.55 0.2 Q-84.65 0.7 -83.9 1.2 L-82.45 2.65 -82.4 2.65 Q-81.15 3.75 -80.1 3.7 -79.2 3.6 -78.75 3.0 -78.05 2.0 -77.05 1.6 -77.25 3.6 -76.75 5.45 -76.4 6.8 -75.2 7.4 L-74.75 7.4 -73.45 7.7 Q-71.35 8.45 -73.15 10.65 -73.15 12.4 -73.75 13.85 -74.3 15.15 -74.15 16.7 -73.85 20.95 -75.85 24.5 L-76.45 25.7 Q-77.15 27.3 -78.2 28.2 L-80.55 30.55 Q-82.9 33.3 -85.4 35.0 L-86.6 36.05 Q-88.0 36.45 -87.95 38.1 L-87.3 39.55 -85.05 42.15 Q-84.15 42.45 -83.95 43.8 -83.8 45.4 -84.45 46.6 L-85.05 47.75 Q-86.05 49.55 -86.1 52.0 L-81.15 52.35 -75.1 52.15 -73.0 51.6 -71.9 51.65 Q-71.95 53.3 -72.55 54.85 L-72.8 56.25 -72.95 63.75 -72.8 68.75 Q-72.6 71.45 -69.25 70.7 -68.95 70.25 -68.0 70.5 -67.75 72.7 -68.65 74.5 L-68.9 75.5 Q-68.9 77.6 -69.4 79.4 L-69.9 80.4 -70.75 81.65 -72.6 83.35 -73.65 84.1 Q-75.25 85.3 -77.25 85.0 -81.1 84.45 -84.3 81.85 L-85.5 80.95 -86.95 79.6 Q-88.05 78.2 -90.1 80.2 L-94.2 80.35 Q-95.75 79.15 -96.7 76.55 L-96.95 67.0 Q-97.7 64.55 -99.7 63.45 L-101.05 62.65 Q-103.35 61.2 -106.5 61.45 L-106.95 60.25 -107.25 58.8 -108.3 55.55 Q-108.85 53.35 -109.0 50.6 -109.45 49.85 -110.8 48.55 -112.75 47.35 -112.35 44.15 -112.3 43.8 -111.65 43.0 L-110.7 41.7 Q-109.6 40.7 -108.75 39.15 L-108.85 37.4 -109.05 35.95 -109.6 32.05 Q-109.7 31.4 -110.1 31.1 L-111.85 29.25 Q-114.25 27.6 -114.1 23.55 L-114.9 20.95 -115.85 17.2 Q-113.8 20.15 -111.1 21.7 -111.2 19.15 -111.7 16.7 L-111.95 15.7 Q-112.4 14.15 -112.4 10.8 -113.25 9.25 -113.4 7.45 L-113.65 3.2 Q-113.75 1.8 -113.15 0.05 L-112.25 -2.9 Q-111.55 -4.55 -111.75 -6.45 L-111.95 -7.8 Q-112.65 -11.05 -112.55 -14.65 L-112.35 -17.85 -112.35 -19.8 -112.3 -19.75 -110.2 -17.2" fill="url(#gradient1)" fill-rule="evenodd" stroke="none"/>
  </g>
  <defs>
    <linearGradient gradientTransform="matrix(0.0, -0.0956, 0.0469, 0.0, -93.8, 15.75)" gradientUnits="userSpaceOnUse" id="gradient0" spreadMethod="pad" x1="-819.2" x2="819.2">
      <stop offset="0.0" stop-color="#000000" stop-opacity="0.2"/>
      <stop offset="1.0" stop-color="#000000" stop-opacity="0.0"/>
    </linearGradient>
    <linearGradient gradientTransform="matrix(0.0, 0.064, -0.0292, 0.0, -91.9, 32.6)" gradientUnits="userSpaceOnUse" id="gradient1" spreadMethod="pad" x1="-819.2" x2="819.2">
      <stop offset="0.0" stop-color="#000000" stop-opacity="0.2"/>
      <stop offset="1.0" stop-color="#000000" stop-opacity="0.0"/>
    </linearGradient>
  </defs>
</svg>
