<?xml version="1.0" encoding="UTF-8" standalone="no"?>
<svg xmlns:xlink="http://www.w3.org/1999/xlink" height="110.65px" width="56.25px" xmlns="http://www.w3.org/2000/svg">
  <g transform="matrix(1.0, 0.0, 0.0, 1.0, 128.55, 36.55)">
    <path d="M-124.25 -35.4 L-121.0 -34.05 -118.6 -36.55 -118.85 -33.05 -115.75 -31.6 -119.15 -30.8 -119.6 -27.35 -121.45 -30.3 -124.85 -29.6 -122.55 -32.25 -124.25 -35.4" fill="url(#gradient0)" fill-rule="evenodd" stroke="none"/>
    <path d="M-113.1 -3.3 L-116.15 5.45 -119.25 -3.3 -128.55 -3.55 -121.2 -9.2 -123.8 -18.1 -116.15 -12.85 -108.55 -18.1 -111.15 -9.2 -103.8 -3.55 -113.1 -3.3" fill="url(#gradient1)" fill-rule="evenodd" stroke="none"/>
    <path d="M-72.9 29.9 L-76.5 35.85 -72.3 41.4 -79.1 39.8 -82.95 45.55 -83.55 38.6 -90.2 36.6 -83.8 33.9 -83.95 26.95 -79.4 32.25 -72.9 29.9" fill="url(#gradient2)" fill-rule="evenodd" stroke="none"/>
    <path d="M-86.9 7.35 L-82.35 8.5 -86.6 10.4 -86.35 15.05 -89.45 11.6 -93.8 13.3 -91.5 9.3 -94.4 5.7 -89.85 6.6 -87.4 2.75 -86.9 7.35" fill="url(#gradient3)" fill-rule="evenodd" stroke="none"/>
    <path d="M-115.85 24.65 L-113.8 28.9 Q-115.9 27.9 -118.05 26.85 L-121.4 30.1 -120.75 25.45 -124.85 23.25 -120.3 22.4 -119.45 17.85 -117.25 21.95 -112.6 21.3 -115.85 24.65" fill="url(#gradient4)" fill-rule="evenodd" stroke="none"/>
    <path d="M-105.75 40.4 L-102.85 42.4 -100.05 40.4 -101.05 43.75 -98.25 45.9 -101.75 46.0 -102.85 49.25 -104.0 46.0 -107.6 45.85 -104.75 43.75 -105.75 40.4" fill="url(#gradient5)" fill-rule="evenodd" stroke="none"/>
    <path d="M-86.75 58.7 L-83.5 60.05 -81.1 57.55 -81.35 61.05 -78.25 62.5 -81.65 63.3 -82.1 66.75 -83.95 63.8 -87.35 64.5 -85.05 61.85 -86.75 58.7" fill="url(#gradient6)" fill-rule="evenodd" stroke="none"/>
    <path d="M-93.5 69.05 L-98.1 69.7 -99.25 74.1 -101.2 70.0 -105.75 70.35 -102.5 67.2 -104.25 62.85 -100.15 65.15 -96.65 62.05 -97.5 66.65 -93.5 69.05" fill="url(#gradient7)" fill-rule="evenodd" stroke="none"/>
  </g>
  <defs>
    <linearGradient gradientTransform="matrix(0.0, 0.0056, -0.0056, 0.0, -120.3, -31.95)" gradientUnits="userSpaceOnUse" id="gradient0" spreadMethod="pad" x1="-819.2" x2="819.2">
      <stop offset="0.0" stop-color="#000000" stop-opacity="0.2"/>
      <stop offset="1.0" stop-color="#000000" stop-opacity="0.0"/>
    </linearGradient>
    <linearGradient gradientTransform="matrix(0.0, 0.0144, -0.0151, 0.0, -116.15, -6.35)" gradientUnits="userSpaceOnUse" id="gradient1" spreadMethod="pad" x1="-819.2" x2="819.2">
      <stop offset="0.0" stop-color="#000000" stop-opacity="0.2"/>
      <stop offset="1.0" stop-color="#000000" stop-opacity="0.0"/>
    </linearGradient>
    <linearGradient gradientTransform="matrix(0.0, 0.0114, -0.0109, 0.0, -81.25, 36.25)" gradientUnits="userSpaceOnUse" id="gradient2" spreadMethod="pad" x1="-819.2" x2="819.2">
      <stop offset="0.0" stop-color="#000000" stop-opacity="0.2"/>
      <stop offset="1.0" stop-color="#000000" stop-opacity="0.0"/>
    </linearGradient>
    <linearGradient gradientTransform="matrix(0.0, 0.0075, -0.0074, 0.0, -88.35, 8.9)" gradientUnits="userSpaceOnUse" id="gradient3" spreadMethod="pad" x1="-819.2" x2="819.2">
      <stop offset="0.0" stop-color="#000000" stop-opacity="0.2"/>
      <stop offset="1.0" stop-color="#000000" stop-opacity="0.0"/>
    </linearGradient>
    <linearGradient gradientTransform="matrix(0.0, 0.0075, -0.0075, 0.0, -118.7, 23.95)" gradientUnits="userSpaceOnUse" id="gradient4" spreadMethod="pad" x1="-819.2" x2="819.2">
      <stop offset="0.0" stop-color="#000000" stop-opacity="0.2"/>
      <stop offset="1.0" stop-color="#000000" stop-opacity="0.0"/>
    </linearGradient>
    <linearGradient gradientTransform="matrix(0.0, 0.0054, -0.0057, 0.0, -102.9, 44.8)" gradientUnits="userSpaceOnUse" id="gradient5" spreadMethod="pad" x1="-819.2" x2="819.2">
      <stop offset="0.0" stop-color="#000000" stop-opacity="0.2"/>
      <stop offset="1.0" stop-color="#000000" stop-opacity="0.0"/>
    </linearGradient>
    <linearGradient gradientTransform="matrix(0.0, 0.0056, -0.0056, 0.0, -82.8, 62.15)" gradientUnits="userSpaceOnUse" id="gradient6" spreadMethod="pad" x1="-819.2" x2="819.2">
      <stop offset="0.0" stop-color="#000000" stop-opacity="0.2"/>
      <stop offset="1.0" stop-color="#000000" stop-opacity="0.0"/>
    </linearGradient>
    <linearGradient gradientTransform="matrix(0.0, 0.0074, -0.0075, 0.0, -99.6, 68.05)" gradientUnits="userSpaceOnUse" id="gradient7" spreadMethod="pad" x1="-819.2" x2="819.2">
      <stop offset="0.0" stop-color="#000000" stop-opacity="0.2"/>
      <stop offset="1.0" stop-color="#000000" stop-opacity="0.0"/>
    </linearGradient>
  </defs>
</svg>
