<?xml version="1.0" encoding="UTF-8" standalone="no"?>
<svg xmlns:xlink="http://www.w3.org/1999/xlink" height="388.85px" width="245.0px" xmlns="http://www.w3.org/2000/svg">
  <g transform="matrix(1.0, 0.0, 0.0, 1.0, 122.6, 158.0)">
    <path d="M-26.65 -157.35 Q-26.0 -156.7 -26.0 -155.8 -26.0 -154.85 -26.65 -154.25 -27.25 -153.6 -28.2 -153.6 -29.1 -153.6 -29.75 -154.25 -30.4 -154.85 -30.4 -155.8 -30.4 -156.7 -29.75 -157.35 -29.1 -158.0 -28.2 -158.0 -27.25 -158.0 -26.65 -157.35" fill="url(#gradient0)" fill-rule="evenodd" stroke="none"/>
    <path d="M-67.9 -131.15 Q-68.55 -131.75 -68.55 -132.7 -68.55 -133.6 -67.9 -134.25 -67.25 -134.9 -66.35 -134.9 -65.4 -134.9 -64.8 -134.25 -64.15 -133.6 -64.15 -132.7 -64.15 -131.75 -64.8 -131.15 -65.4 -130.5 -66.35 -130.5 -67.25 -130.5 -67.9 -131.15" fill="url(#gradient1)" fill-rule="evenodd" stroke="none"/>
    <path d="M-65.15 -111.8 Q-61.5 -111.8 -58.95 -109.25 -56.35 -106.65 -56.35 -103.0 -56.35 -99.35 -58.95 -96.8 -61.5 -94.2 -65.15 -94.2 -68.8 -94.2 -71.4 -96.8 -73.95 -99.35 -73.95 -103.0 -73.95 -106.65 -71.4 -109.25 -68.8 -111.8 -65.15 -111.8" fill="url(#gradient2)" fill-rule="evenodd" stroke="none"/>
    <path d="M-48.8 -118.65 Q-48.8 -116.8 -50.1 -115.55 -51.35 -114.25 -53.2 -114.25 -55.0 -114.25 -56.3 -115.55 -57.6 -116.8 -57.6 -118.65 -57.6 -120.45 -56.3 -121.75 -55.0 -123.05 -53.2 -123.05 -51.35 -123.05 -50.1 -121.75 -48.8 -120.45 -48.8 -118.65" fill="url(#gradient3)" fill-rule="evenodd" stroke="none"/>
    <path d="M-24.8 -139.35 Q-24.8 -137.5 -26.1 -136.25 -27.35 -134.95 -29.2 -134.95 -31.0 -134.95 -32.3 -136.25 -33.6 -137.5 -33.6 -139.35 -33.6 -141.15 -32.3 -142.45 -31.0 -143.75 -29.2 -143.75 -27.35 -143.75 -26.1 -142.45 -24.8 -141.15 -24.8 -139.35" fill="url(#gradient4)" fill-rule="evenodd" stroke="none"/>
    <path d="M-23.8 -126.25 Q-21.1 -126.25 -19.15 -124.35 -17.2 -122.4 -17.2 -119.65 -17.2 -116.9 -19.15 -115.0 -21.1 -113.05 -23.8 -113.05 -26.55 -113.05 -28.5 -115.0 -30.4 -116.9 -30.4 -119.65 -30.4 -122.4 -28.5 -124.35 -26.55 -126.25 -23.8 -126.25" fill="url(#gradient5)" fill-rule="evenodd" stroke="none"/>
    <path d="M-100.3 -101.1 Q-100.9 -100.45 -101.85 -100.45 -102.75 -100.45 -103.4 -101.1 -104.05 -101.7 -104.05 -102.65 -104.05 -103.55 -103.4 -104.2 -102.75 -104.85 -101.85 -104.85 -100.9 -104.85 -100.3 -104.2 -99.65 -103.55 -99.65 -102.65 -99.65 -101.7 -100.3 -101.1" fill="url(#gradient6)" fill-rule="evenodd" stroke="none"/>
    <path d="M-94.0 -85.25 Q-94.0 -82.5 -95.95 -80.6 -97.9 -78.65 -100.6 -78.65 -103.35 -78.65 -105.3 -80.6 -107.2 -82.5 -107.2 -85.25 -107.2 -88.0 -105.3 -89.95 -103.35 -91.85 -100.6 -91.85 -97.9 -91.85 -95.95 -89.95 -94.0 -88.0 -94.0 -85.25" fill="url(#gradient7)" fill-rule="evenodd" stroke="none"/>
    <path d="M-104.75 -55.35 Q-103.45 -56.65 -101.65 -56.65 -99.8 -56.65 -98.55 -55.35 -97.25 -54.05 -97.25 -52.25 -97.25 -50.4 -98.55 -49.15 -99.8 -47.85 -101.65 -47.85 -103.45 -47.85 -104.75 -49.15 -106.05 -50.4 -106.05 -52.25 -106.05 -54.05 -104.75 -55.35" fill="url(#gradient8)" fill-rule="evenodd" stroke="none"/>
    <path d="M-120.3 -35.15 Q-119.65 -35.8 -118.75 -35.8 -117.8 -35.8 -117.2 -35.15 -116.55 -34.5 -116.55 -33.6 -116.55 -32.65 -117.2 -32.05 -117.8 -31.4 -118.75 -31.4 -119.65 -31.4 -120.3 -32.05 -120.95 -32.65 -120.95 -33.6 -120.95 -34.5 -120.3 -35.15" fill="url(#gradient9)" fill-rule="evenodd" stroke="none"/>
    <path d="M-110.65 -16.6 Q-112.45 -16.6 -113.75 -17.9 -115.05 -19.15 -115.05 -21.0 -115.05 -22.8 -113.75 -24.1 -112.45 -25.4 -110.65 -25.4 -108.8 -25.4 -107.55 -24.1 -106.25 -22.8 -106.25 -21.0 -106.25 -19.15 -107.55 -17.9 -108.8 -16.6 -110.65 -16.6" fill="url(#gradient10)" fill-rule="evenodd" stroke="none"/>
    <path d="M-112.55 4.25 Q-114.1 5.2 -116.0 5.2 -118.75 5.2 -120.7 3.25 -122.6 1.35 -122.6 -1.4 -122.6 -4.15 -120.7 -6.1 -118.75 -8.0 -116.0 -8.0 -113.3 -8.0 -111.35 -6.1 -109.5 -4.25 -109.4 -1.7 -110.6 -1.45 -111.55 -0.5 -112.85 0.8 -112.85 2.6 L-112.55 4.25" fill="url(#gradient11)" fill-rule="evenodd" stroke="none"/>
    <path d="M-109.4 -1.7 L-108.45 -1.8 Q-106.6 -1.8 -105.35 -0.5 -104.05 0.8 -104.05 2.6 -104.05 4.45 -105.35 5.7 -106.6 7.0 -108.45 7.0 -110.25 7.0 -111.55 5.7 -112.25 5.05 -112.55 4.25 L-112.85 2.6 Q-112.85 0.8 -111.55 -0.5 -110.6 -1.45 -109.4 -1.7" fill="url(#gradient12)" fill-rule="evenodd" stroke="none"/>
    <path d="M-72.1 -28.85 Q-72.1 -31.6 -70.2 -33.55 -68.25 -35.45 -65.5 -35.45 -62.8 -35.45 -60.85 -33.55 -58.9 -31.6 -58.9 -28.85 -58.9 -26.1 -60.85 -24.2 -62.8 -22.25 -65.5 -22.25 -68.25 -22.25 -70.2 -24.2 -72.1 -26.1 -72.1 -28.85" fill="url(#gradient13)" fill-rule="evenodd" stroke="none"/>
    <path d="M-25.05 -1.6 Q-27.6 1.0 -31.25 1.0 -34.9 1.0 -37.5 -1.6 -40.05 -4.15 -40.05 -7.8 -40.05 -11.45 -37.5 -14.05 -34.9 -16.6 -31.25 -16.6 -27.6 -16.6 -25.05 -14.05 -22.45 -11.45 -22.45 -7.8 -22.45 -4.15 -25.05 -1.6" fill="url(#gradient14)" fill-rule="evenodd" stroke="none"/>
    <path d="M100.1 -101.1 Q99.45 -101.7 99.45 -102.65 99.45 -103.55 100.1 -104.2 100.7 -104.85 101.65 -104.85 102.55 -104.85 103.2 -104.2 103.85 -103.55 103.85 -102.65 103.85 -101.7 103.2 -101.1 102.55 -100.45 101.65 -100.45 100.7 -100.45 100.1 -101.1" fill="url(#gradient15)" fill-rule="evenodd" stroke="none"/>
    <path d="M26.45 -157.35 Q27.05 -158.0 28.0 -158.0 28.9 -158.0 29.55 -157.35 30.2 -156.7 30.2 -155.8 30.2 -154.85 29.55 -154.25 28.9 -153.6 28.0 -153.6 27.05 -153.6 26.45 -154.25 25.8 -154.85 25.8 -155.8 25.8 -156.7 26.45 -157.35" fill="url(#gradient16)" fill-rule="evenodd" stroke="none"/>
    <path d="M32.1 -142.45 Q33.4 -141.15 33.4 -139.35 33.4 -137.5 32.1 -136.25 30.8 -134.95 29.0 -134.95 27.15 -134.95 25.9 -136.25 24.6 -137.5 24.6 -139.35 24.6 -141.15 25.9 -142.45 27.15 -143.75 29.0 -143.75 30.8 -143.75 32.1 -142.45" fill="url(#gradient17)" fill-rule="evenodd" stroke="none"/>
    <path d="M23.6 -126.25 Q26.35 -126.25 28.3 -124.35 30.2 -122.4 30.2 -119.65 30.2 -116.9 28.3 -115.0 26.35 -113.05 23.6 -113.05 20.9 -113.05 18.95 -115.0 17.0 -116.9 17.0 -119.65 17.0 -122.4 18.95 -124.35 20.9 -126.25 23.6 -126.25" fill="url(#gradient18)" fill-rule="evenodd" stroke="none"/>
    <path d="M63.95 -132.7 Q63.95 -133.6 64.6 -134.25 65.2 -134.9 66.15 -134.9 67.05 -134.9 67.7 -134.25 68.35 -133.6 68.35 -132.7 68.35 -131.75 67.7 -131.15 67.05 -130.5 66.15 -130.5 65.2 -130.5 64.6 -131.15 63.95 -131.75 63.95 -132.7" fill="url(#gradient19)" fill-rule="evenodd" stroke="none"/>
    <path d="M56.1 -121.75 Q57.4 -120.45 57.4 -118.65 57.4 -116.8 56.1 -115.55 54.8 -114.25 53.0 -114.25 51.15 -114.25 49.9 -115.55 48.6 -116.8 48.6 -118.65 48.6 -120.45 49.9 -121.75 51.15 -123.05 53.0 -123.05 54.8 -123.05 56.1 -121.75" fill="url(#gradient20)" fill-rule="evenodd" stroke="none"/>
    <path d="M56.15 -103.0 Q56.15 -106.65 58.75 -109.25 61.3 -111.8 64.95 -111.8 68.6 -111.8 71.2 -109.25 73.75 -106.65 73.75 -103.0 73.75 -99.35 71.2 -96.8 68.6 -94.2 64.95 -94.2 61.3 -94.2 58.75 -96.8 56.15 -99.35 56.15 -103.0" fill="url(#gradient21)" fill-rule="evenodd" stroke="none"/>
    <path d="M24.85 -1.6 Q22.25 -4.15 22.25 -7.8 22.25 -11.45 24.85 -14.05 27.4 -16.6 31.05 -16.6 34.7 -16.6 37.3 -14.05 39.85 -11.45 39.85 -7.8 39.85 -4.15 37.3 -1.6 34.7 1.0 31.05 1.0 27.4 1.0 24.85 -1.6" fill="url(#gradient22)" fill-rule="evenodd" stroke="none"/>
    <path d="M70.0 -24.2 Q68.05 -22.25 65.3 -22.25 62.6 -22.25 60.65 -24.2 58.7 -26.1 58.7 -28.85 58.7 -31.6 60.65 -33.55 62.6 -35.45 65.3 -35.45 68.05 -35.45 70.0 -33.55 71.9 -31.6 71.9 -28.85 71.9 -26.1 70.0 -24.2" fill="url(#gradient23)" fill-rule="evenodd" stroke="none"/>
    <path d="M107.0 -85.25 Q107.0 -82.5 105.1 -80.6 103.15 -78.65 100.4 -78.65 97.7 -78.65 95.75 -80.6 93.8 -82.5 93.8 -85.25 93.8 -88.0 95.75 -89.95 97.7 -91.85 100.4 -91.85 103.15 -91.85 105.1 -89.95 107.0 -88.0 107.0 -85.25" fill="url(#gradient24)" fill-rule="evenodd" stroke="none"/>
    <path d="M97.05 -52.25 Q97.05 -54.05 98.35 -55.35 99.6 -56.65 101.45 -56.65 103.25 -56.65 104.55 -55.35 105.85 -54.05 105.85 -52.25 105.85 -50.4 104.55 -49.15 103.25 -47.85 101.45 -47.85 99.6 -47.85 98.35 -49.15 97.05 -50.4 97.05 -52.25" fill="url(#gradient25)" fill-rule="evenodd" stroke="none"/>
    <path d="M120.1 -32.05 Q119.45 -31.4 118.55 -31.4 117.6 -31.4 117.0 -32.05 116.35 -32.65 116.35 -33.6 116.35 -34.5 117.0 -35.15 117.6 -35.8 118.55 -35.8 119.45 -35.8 120.1 -35.15 120.75 -34.5 120.75 -33.6 120.75 -32.65 120.1 -32.05" fill="url(#gradient26)" fill-rule="evenodd" stroke="none"/>
    <path d="M114.85 -21.0 Q114.85 -19.15 113.55 -17.9 112.25 -16.6 110.45 -16.6 108.6 -16.6 107.35 -17.9 106.05 -19.15 106.05 -21.0 106.05 -22.8 107.35 -24.1 108.6 -25.4 110.45 -25.4 112.25 -25.4 113.55 -24.1 114.85 -22.8 114.85 -21.0" fill="url(#gradient27)" fill-rule="evenodd" stroke="none"/>
    <path d="M112.35 4.25 L112.65 2.6 Q112.65 0.8 111.35 -0.5 110.4 -1.45 109.2 -1.7 109.3 -4.25 111.15 -6.1 113.1 -8.0 115.8 -8.0 118.55 -8.0 120.5 -6.1 122.4 -4.15 122.4 -1.4 122.4 1.35 120.5 3.25 118.55 5.2 115.8 5.2 113.9 5.2 112.35 4.25" fill="url(#gradient28)" fill-rule="evenodd" stroke="none"/>
    <path d="M112.35 4.25 Q112.05 5.05 111.35 5.7 110.05 7.0 108.25 7.0 106.4 7.0 105.15 5.7 103.85 4.45 103.85 2.6 103.85 0.8 105.15 -0.5 106.4 -1.8 108.25 -1.8 L109.2 -1.7 Q110.4 -1.45 111.35 -0.5 112.65 0.8 112.65 2.6 L112.35 4.25" fill="url(#gradient29)" fill-rule="evenodd" stroke="none"/>
    <path d="M103.95 17.9 Q106.5 15.35 110.15 15.35 113.8 15.35 116.4 17.9 118.95 20.5 118.95 24.15 118.95 27.8 116.4 30.35 113.8 32.95 110.15 32.95 106.5 32.95 103.95 30.35 101.35 27.8 101.35 24.15 101.35 20.5 103.95 17.9" fill="url(#gradient30)" fill-rule="evenodd" stroke="none"/>
    <path d="M89.6 21.0 Q90.9 22.3 90.9 24.1 90.9 25.95 89.6 27.2 88.3 28.5 86.5 28.5 84.65 28.5 83.4 27.2 82.1 25.95 82.1 24.1 82.1 22.3 83.4 21.0 84.65 19.7 86.5 19.7 88.3 19.7 89.6 21.0" fill="url(#gradient31)" fill-rule="evenodd" stroke="none"/>
    <path d="M81.05 39.55 Q81.7 40.2 81.7 41.1 81.7 42.05 81.05 42.65 80.4 43.3 79.5 43.3 78.55 43.3 77.95 42.65 77.3 42.05 77.3 41.1 77.3 40.2 77.95 39.55 78.55 38.9 79.5 38.9 80.4 38.9 81.05 39.55" fill="url(#gradient32)" fill-rule="evenodd" stroke="none"/>
    <path d="M98.2 48.85 Q98.2 47.05 99.5 45.75 100.75 44.45 102.6 44.45 104.4 44.45 105.7 45.75 107.0 47.05 107.0 48.85 107.0 50.7 105.7 51.95 104.4 53.25 102.6 53.25 100.75 53.25 99.5 51.95 98.2 50.7 98.2 48.85" fill="url(#gradient33)" fill-rule="evenodd" stroke="none"/>
    <path d="M102.65 67.05 Q103.55 67.05 104.2 67.7 104.85 68.35 104.85 69.25 104.85 70.2 104.2 70.8 103.55 71.45 102.65 71.45 101.7 71.45 101.1 70.8 100.45 70.2 100.45 69.25 100.45 68.35 101.1 67.7 101.7 67.05 102.65 67.05" fill="url(#gradient34)" fill-rule="evenodd" stroke="none"/>
    <path d="M84.85 62.25 L86.5 61.95 Q88.3 61.95 89.6 63.25 90.9 64.55 90.9 66.35 90.9 68.2 89.6 69.45 88.3 70.75 86.5 70.75 84.65 70.75 83.4 69.45 82.1 68.2 82.1 66.35 L82.15 65.55 83.1 65.75 Q84.0 65.75 84.65 65.1 85.3 64.5 85.3 63.55 85.3 62.8 84.85 62.25" fill="url(#gradient35)" fill-rule="evenodd" stroke="none"/>
    <path d="M82.15 65.55 L81.55 65.1 Q80.9 64.5 80.9 63.55 80.9 62.65 81.55 62.0 82.15 61.35 83.1 61.35 84.0 61.35 84.65 62.0 L84.85 62.25 Q85.3 62.8 85.3 63.55 85.3 64.5 84.65 65.1 84.0 65.75 83.1 65.75 L82.15 65.55" fill="url(#gradient36)" fill-rule="evenodd" stroke="none"/>
    <path d="M85.85 81.2 Q86.5 81.85 86.5 82.75 86.5 83.7 85.85 84.3 85.2 84.95 84.3 84.95 83.35 84.95 82.75 84.3 82.1 83.7 82.1 82.75 82.1 81.85 82.75 81.2 83.35 80.55 84.3 80.55 85.2 80.55 85.85 81.2" fill="url(#gradient37)" fill-rule="evenodd" stroke="none"/>
    <path d="M72.8 18.4 Q70.1 18.4 68.15 16.45 66.2 14.55 66.2 11.8 66.2 9.05 68.15 7.1 70.1 5.2 72.8 5.2 75.55 5.2 77.5 7.1 79.4 9.05 79.4 11.8 79.4 14.55 77.5 16.45 75.55 18.4 72.8 18.4" fill="url(#gradient38)" fill-rule="evenodd" stroke="none"/>
    <path d="M40.7 19.15 Q41.35 19.8 41.35 20.7 41.35 21.65 40.7 22.25 40.05 22.9 39.15 22.9 38.2 22.9 37.6 22.25 36.95 21.65 36.95 20.7 36.95 19.8 37.6 19.15 38.2 18.5 39.15 18.5 40.05 18.5 40.7 19.15" fill="url(#gradient39)" fill-rule="evenodd" stroke="none"/>
    <path d="M50.1 43.85 Q51.4 45.15 51.4 46.95 51.4 48.8 50.1 50.05 48.8 51.35 47.0 51.35 45.15 51.35 43.9 50.05 42.6 48.8 42.6 46.95 42.6 45.15 43.9 43.85 45.15 42.55 47.0 42.55 48.8 42.55 50.1 43.85" fill="url(#gradient40)" fill-rule="evenodd" stroke="none"/>
    <path d="M16.8 96.0 Q18.05 94.7 19.9 94.7 21.7 94.7 23.0 96.0 24.3 97.3 24.3 99.1 24.3 100.95 23.0 102.2 21.7 103.5 19.9 103.5 18.05 103.5 16.8 102.2 15.5 100.95 15.5 99.1 15.5 97.3 16.8 96.0" fill="url(#gradient41)" fill-rule="evenodd" stroke="none"/>
    <path d="M30.0 86.1 Q27.3 86.1 25.35 84.15 23.4 82.25 23.4 79.5 23.4 76.75 25.35 74.8 27.3 72.9 30.0 72.9 32.75 72.9 34.7 74.8 36.6 76.75 36.6 79.5 36.6 82.25 34.7 84.15 32.75 86.1 30.0 86.1" fill="url(#gradient42)" fill-rule="evenodd" stroke="none"/>
    <path d="M61.8 66.75 Q61.8 65.85 62.45 65.2 63.05 64.55 64.0 64.55 64.9 64.55 65.55 65.2 66.2 65.85 66.2 66.75 66.2 67.7 65.55 68.3 64.9 68.95 64.0 68.95 63.05 68.95 62.45 68.3 61.8 67.7 61.8 66.75" fill="url(#gradient43)" fill-rule="evenodd" stroke="none"/>
    <path d="M64.0 94.7 Q64.9 94.7 65.55 95.35 66.2 96.0 66.2 96.9 66.2 97.85 65.55 98.45 64.9 99.1 64.0 99.1 63.05 99.1 62.45 98.45 61.8 97.85 61.8 96.9 61.8 96.0 62.45 95.35 63.05 94.7 64.0 94.7" fill="url(#gradient44)" fill-rule="evenodd" stroke="none"/>
    <path d="M51.55 116.2 Q47.9 116.2 45.35 113.6 42.75 111.05 42.75 107.4 42.75 103.75 45.35 101.15 47.9 98.6 51.55 98.6 55.2 98.6 57.8 101.15 60.35 103.75 60.35 107.4 60.35 111.05 57.8 113.6 55.2 116.2 51.55 116.2" fill="url(#gradient45)" fill-rule="evenodd" stroke="none"/>
    <path d="M63.95 167.75 Q63.95 166.85 64.6 166.2 65.2 165.55 66.15 165.55 67.05 165.55 67.7 166.2 68.35 166.85 68.35 167.75 68.35 168.7 67.7 169.3 67.05 169.95 66.15 169.95 65.2 169.95 64.6 169.3 63.95 168.7 63.95 167.75" fill="url(#gradient46)" fill-rule="evenodd" stroke="none"/>
    <path d="M67.5 183.35 Q68.75 182.05 70.6 182.05 72.4 182.05 73.7 183.35 75.0 184.65 75.0 186.45 75.0 188.3 73.7 189.55 72.4 190.85 70.6 190.85 68.75 190.85 67.5 189.55 66.2 188.3 66.2 186.45 66.2 184.65 67.5 183.35" fill="url(#gradient47)" fill-rule="evenodd" stroke="none"/>
    <path d="M71.75 217.65 Q74.5 217.65 76.45 219.55 78.35 221.5 78.35 224.25 78.35 227.0 76.45 228.9 74.5 230.85 71.75 230.85 69.05 230.85 67.1 228.9 65.15 227.0 65.15 224.25 65.15 221.5 67.1 219.55 69.05 217.65 71.75 217.65" fill="url(#gradient48)" fill-rule="evenodd" stroke="none"/>
    <path d="M64.9 205.9 Q63.6 207.2 61.8 207.2 59.95 207.2 58.7 205.9 57.4 204.65 57.4 202.8 57.4 201.0 58.7 199.7 59.95 198.4 61.8 198.4 63.6 198.4 64.9 199.7 66.2 201.0 66.2 202.8 66.2 204.65 64.9 205.9" fill="url(#gradient49)" fill-rule="evenodd" stroke="none"/>
    <path d="M-37.8 22.25 Q-38.4 22.9 -39.35 22.9 -40.25 22.9 -40.9 22.25 -41.55 21.65 -41.55 20.7 -41.55 19.8 -40.9 19.15 -40.25 18.5 -39.35 18.5 -38.4 18.5 -37.8 19.15 -37.15 19.8 -37.15 20.7 -37.15 21.65 -37.8 22.25" fill="url(#gradient50)" fill-rule="evenodd" stroke="none"/>
    <path d="M-79.6 11.8 Q-79.6 9.05 -77.7 7.1 -75.75 5.2 -73.0 5.2 -70.3 5.2 -68.35 7.1 -66.4 9.05 -66.4 11.8 -66.4 14.55 -68.35 16.45 -70.3 18.4 -73.0 18.4 -75.75 18.4 -77.7 16.45 -79.6 14.55 -79.6 11.8" fill="url(#gradient51)" fill-rule="evenodd" stroke="none"/>
    <path d="M-79.7 43.3 Q-80.6 43.3 -81.25 42.65 -81.9 42.05 -81.9 41.1 -81.9 40.2 -81.25 39.55 -80.6 38.9 -79.7 38.9 -78.75 38.9 -78.15 39.55 -77.5 40.2 -77.5 41.1 -77.5 42.05 -78.15 42.65 -78.75 43.3 -79.7 43.3" fill="url(#gradient52)" fill-rule="evenodd" stroke="none"/>
    <path d="M-42.8 46.95 Q-42.8 48.8 -44.1 50.05 -45.35 51.35 -47.2 51.35 -49.0 51.35 -50.3 50.05 -51.6 48.8 -51.6 46.95 -51.6 45.15 -50.3 43.85 -49.0 42.55 -47.2 42.55 -45.35 42.55 -44.1 43.85 -42.8 45.15 -42.8 46.95" fill="url(#gradient53)" fill-rule="evenodd" stroke="none"/>
    <path d="M-64.2 68.95 Q-65.1 68.95 -65.75 68.3 -66.4 67.7 -66.4 66.75 -66.4 65.85 -65.75 65.2 -65.1 64.55 -64.2 64.55 -63.25 64.55 -62.65 65.2 -62.0 65.85 -62.0 66.75 -62.0 67.7 -62.65 68.3 -63.25 68.95 -64.2 68.95" fill="url(#gradient54)" fill-rule="evenodd" stroke="none"/>
    <path d="M-62.65 95.35 Q-62.0 96.0 -62.0 96.9 -62.0 97.85 -62.65 98.45 -63.25 99.1 -64.2 99.1 -65.1 99.1 -65.75 98.45 -66.4 97.85 -66.4 96.9 -66.4 96.0 -65.75 95.35 -65.1 94.7 -64.2 94.7 -63.25 94.7 -62.65 95.35" fill="url(#gradient55)" fill-rule="evenodd" stroke="none"/>
    <path d="M-25.55 84.15 Q-27.5 86.1 -30.2 86.1 -32.95 86.1 -34.9 84.15 -36.8 82.25 -36.8 79.5 -36.8 76.75 -34.9 74.8 -32.95 72.9 -30.2 72.9 -27.5 72.9 -25.55 74.8 -23.6 76.75 -23.6 79.5 -23.6 82.25 -25.55 84.15" fill="url(#gradient56)" fill-rule="evenodd" stroke="none"/>
    <path d="M-17.0 96.0 Q-15.7 97.3 -15.7 99.1 -15.7 100.95 -17.0 102.2 -18.25 103.5 -20.1 103.5 -21.9 103.5 -23.2 102.2 -24.5 100.95 -24.5 99.1 -24.5 97.3 -23.2 96.0 -21.9 94.7 -20.1 94.7 -18.25 94.7 -17.0 96.0" fill="url(#gradient57)" fill-rule="evenodd" stroke="none"/>
    <path d="M-86.7 19.7 Q-84.85 19.7 -83.6 21.0 -82.3 22.3 -82.3 24.1 -82.3 25.95 -83.6 27.2 -84.85 28.5 -86.7 28.5 -88.5 28.5 -89.8 27.2 -91.1 25.95 -91.1 24.1 -91.1 22.3 -89.8 21.0 -88.5 19.7 -86.7 19.7" fill="url(#gradient58)" fill-rule="evenodd" stroke="none"/>
    <path d="M-116.6 17.9 Q-114.0 15.35 -110.35 15.35 -106.7 15.35 -104.15 17.9 -101.55 20.5 -101.55 24.15 -101.55 27.8 -104.15 30.35 -106.7 32.95 -110.35 32.95 -114.0 32.95 -116.6 30.35 -119.15 27.8 -119.15 24.15 -119.15 20.5 -116.6 17.9" fill="url(#gradient59)" fill-rule="evenodd" stroke="none"/>
    <path d="M-105.9 45.75 Q-104.6 44.45 -102.8 44.45 -100.95 44.45 -99.7 45.75 -98.4 47.05 -98.4 48.85 -98.4 50.7 -99.7 51.95 -100.95 53.25 -102.8 53.25 -104.6 53.25 -105.9 51.95 -107.2 50.7 -107.2 48.85 -107.2 47.05 -105.9 45.75" fill="url(#gradient60)" fill-rule="evenodd" stroke="none"/>
    <path d="M-85.05 62.25 L-84.85 62.0 Q-84.2 61.35 -83.3 61.35 -82.35 61.35 -81.75 62.0 -81.1 62.65 -81.1 63.55 -81.1 64.5 -81.75 65.1 L-82.35 65.55 -83.3 65.75 Q-84.2 65.75 -84.85 65.1 -85.5 64.5 -85.5 63.55 -85.5 62.8 -85.05 62.25" fill="url(#gradient61)" fill-rule="evenodd" stroke="none"/>
    <path d="M-82.35 65.55 L-82.3 66.35 Q-82.3 68.2 -83.6 69.45 -84.85 70.75 -86.7 70.75 -88.5 70.75 -89.8 69.45 -91.1 68.2 -91.1 66.35 -91.1 64.55 -89.8 63.25 -88.5 61.95 -86.7 61.95 L-85.05 62.25 Q-85.5 62.8 -85.5 63.55 -85.5 64.5 -84.85 65.1 -84.2 65.75 -83.3 65.75 L-82.35 65.55" fill="url(#gradient62)" fill-rule="evenodd" stroke="none"/>
    <path d="M-104.4 70.8 Q-105.05 70.2 -105.05 69.25 -105.05 68.35 -104.4 67.7 -103.75 67.05 -102.85 67.05 -101.9 67.05 -101.3 67.7 -100.65 68.35 -100.65 69.25 -100.65 70.2 -101.3 70.8 -101.9 71.45 -102.85 71.45 -103.75 71.45 -104.4 70.8" fill="url(#gradient63)" fill-rule="evenodd" stroke="none"/>
    <path d="M-86.7 82.75 Q-86.7 81.85 -86.05 81.2 -85.4 80.55 -84.5 80.55 -83.55 80.55 -82.95 81.2 -82.3 81.85 -82.3 82.75 -82.3 83.7 -82.95 84.3 -83.55 84.95 -84.5 84.95 -85.4 84.95 -86.05 84.3 -86.7 83.7 -86.7 82.75" fill="url(#gradient64)" fill-rule="evenodd" stroke="none"/>
    <path d="M-58.0 113.6 Q-60.55 111.05 -60.55 107.4 -60.55 103.75 -58.0 101.15 -55.4 98.6 -51.75 98.6 -48.1 98.6 -45.55 101.15 -42.95 103.75 -42.95 107.4 -42.95 111.05 -45.55 113.6 -48.1 116.2 -51.75 116.2 -55.4 116.2 -58.0 113.6" fill="url(#gradient65)" fill-rule="evenodd" stroke="none"/>
    <path d="M-67.9 169.3 Q-68.55 168.7 -68.55 167.75 -68.55 166.85 -67.9 166.2 -67.25 165.55 -66.35 165.55 -65.4 165.55 -64.8 166.2 -64.15 166.85 -64.15 167.75 -64.15 168.7 -64.8 169.3 -65.4 169.95 -66.35 169.95 -67.25 169.95 -67.9 169.3" fill="url(#gradient66)" fill-rule="evenodd" stroke="none"/>
    <path d="M-70.8 182.05 Q-68.95 182.05 -67.7 183.35 -66.4 184.65 -66.4 186.45 -66.4 188.3 -67.7 189.55 -68.95 190.85 -70.8 190.85 -72.6 190.85 -73.9 189.55 -75.2 188.3 -75.2 186.45 -75.2 184.65 -73.9 183.35 -72.6 182.05 -70.8 182.05" fill="url(#gradient67)" fill-rule="evenodd" stroke="none"/>
    <path d="M-58.9 205.9 Q-60.15 207.2 -62.0 207.2 -63.8 207.2 -65.1 205.9 -66.4 204.65 -66.4 202.8 -66.4 201.0 -65.1 199.7 -63.8 198.4 -62.0 198.4 -60.15 198.4 -58.9 199.7 -57.6 201.0 -57.6 202.8 -57.6 204.65 -58.9 205.9" fill="url(#gradient68)" fill-rule="evenodd" stroke="none"/>
    <path d="M-71.95 217.65 Q-69.25 217.65 -67.3 219.55 -65.35 221.5 -65.35 224.25 -65.35 227.0 -67.3 228.9 -69.25 230.85 -71.95 230.85 -74.7 230.85 -76.65 228.9 -78.55 227.0 -78.55 224.25 -78.55 221.5 -76.65 219.55 -74.7 217.65 -71.95 217.65" fill="url(#gradient69)" fill-rule="evenodd" stroke="none"/>
  </g>
  <defs>
    <linearGradient gradientTransform="matrix(0.0, -0.0737, 0.037, 0.0, -40.8, -172.3)" gradientUnits="userSpaceOnUse" id="gradient0" spreadMethod="pad" x1="-819.2" x2="819.2">
      <stop offset="0.0" stop-color="#000000" stop-opacity="0.2"/>
      <stop offset="1.0" stop-color="#000000" stop-opacity="0.0"/>
    </linearGradient>
    <linearGradient gradientTransform="matrix(0.0, -0.0737, 0.037, 0.0, -78.95, -149.2)" gradientUnits="userSpaceOnUse" id="gradient1" spreadMethod="pad" x1="-819.2" x2="819.2">
      <stop offset="0.0" stop-color="#000000" stop-opacity="0.2"/>
      <stop offset="1.0" stop-color="#000000" stop-opacity="0.0"/>
    </linearGradient>
    <radialGradient cx="0" cy="0" gradientTransform="matrix(0.0168, 0.0, 0.0, 0.0168, -62.35, -107.2)" gradientUnits="userSpaceOnUse" id="gradient2" r="819.2" spreadMethod="pad">
      <stop offset="0.0" stop-color="#000000" stop-opacity="0.0"/>
      <stop offset="1.0" stop-color="#000000" stop-opacity="0.2"/>
    </radialGradient>
    <radialGradient cx="0" cy="0" gradientTransform="matrix(0.0082, 0.0, 0.0, 0.0082, -51.85, -120.3)" gradientUnits="userSpaceOnUse" id="gradient3" r="819.2" spreadMethod="pad">
      <stop offset="0.0" stop-color="#000000" stop-opacity="0.0"/>
      <stop offset="1.0" stop-color="#000000" stop-opacity="0.2"/>
    </radialGradient>
    <radialGradient cx="0" cy="0" gradientTransform="matrix(0.0082, 0.0, 0.0, 0.0082, -27.85, -141.0)" gradientUnits="userSpaceOnUse" id="gradient4" r="819.2" spreadMethod="pad">
      <stop offset="0.0" stop-color="#000000" stop-opacity="0.0"/>
      <stop offset="1.0" stop-color="#000000" stop-opacity="0.2"/>
    </radialGradient>
    <radialGradient cx="0" cy="0" gradientTransform="matrix(0.0127, 0.0, 0.0, 0.0127, -21.15, -122.35)" gradientUnits="userSpaceOnUse" id="gradient5" r="819.2" spreadMethod="pad">
      <stop offset="0.0" stop-color="#000000" stop-opacity="0.0"/>
      <stop offset="1.0" stop-color="#000000" stop-opacity="0.2"/>
    </radialGradient>
    <linearGradient gradientTransform="matrix(0.0, -0.0737, 0.037, 0.0, -114.45, -119.15)" gradientUnits="userSpaceOnUse" id="gradient6" spreadMethod="pad" x1="-819.2" x2="819.2">
      <stop offset="0.0" stop-color="#000000" stop-opacity="0.2"/>
      <stop offset="1.0" stop-color="#000000" stop-opacity="0.0"/>
    </linearGradient>
    <radialGradient cx="0" cy="0" gradientTransform="matrix(0.0127, 0.0, 0.0, 0.0127, -97.95, -87.95)" gradientUnits="userSpaceOnUse" id="gradient7" r="819.2" spreadMethod="pad">
      <stop offset="0.0" stop-color="#000000" stop-opacity="0.0"/>
      <stop offset="1.0" stop-color="#000000" stop-opacity="0.2"/>
    </radialGradient>
    <radialGradient cx="0" cy="0" gradientTransform="matrix(0.0082, 0.0, 0.0, 0.0082, -100.3, -53.9)" gradientUnits="userSpaceOnUse" id="gradient8" r="819.2" spreadMethod="pad">
      <stop offset="0.0" stop-color="#000000" stop-opacity="0.0"/>
      <stop offset="1.0" stop-color="#000000" stop-opacity="0.2"/>
    </radialGradient>
    <radialGradient cx="0" cy="0" gradientTransform="matrix(0.0048, 0.0, 0.0, 0.0048, -118.1, -34.45)" gradientUnits="userSpaceOnUse" id="gradient9" r="819.2" spreadMethod="pad">
      <stop offset="0.0" stop-color="#000000" stop-opacity="0.0"/>
      <stop offset="1.0" stop-color="#000000" stop-opacity="0.2"/>
    </radialGradient>
    <radialGradient cx="0" cy="0" gradientTransform="matrix(0.0084, 0.0, 0.0, 0.0084, -109.2, -22.8)" gradientUnits="userSpaceOnUse" id="gradient10" r="819.2" spreadMethod="pad">
      <stop offset="0.0" stop-color="#000000" stop-opacity="0.0"/>
      <stop offset="1.0" stop-color="#000000" stop-opacity="0.2"/>
    </radialGradient>
    <radialGradient cx="0" cy="0" gradientTransform="matrix(0.0135, 0.0, 0.0, 0.0135, -113.1, -4.75)" gradientUnits="userSpaceOnUse" id="gradient11" r="819.2" spreadMethod="pad">
      <stop offset="0.0" stop-color="#000000" stop-opacity="0.0"/>
      <stop offset="1.0" stop-color="#000000" stop-opacity="0.2"/>
    </radialGradient>
    <radialGradient cx="0" cy="0" gradientTransform="matrix(0.0084, 0.0, 0.0, 0.0084, -107.25, 0.5)" gradientUnits="userSpaceOnUse" id="gradient12" r="819.2" spreadMethod="pad">
      <stop offset="0.0" stop-color="#000000" stop-opacity="0.0"/>
      <stop offset="1.0" stop-color="#000000" stop-opacity="0.2"/>
    </radialGradient>
    <radialGradient cx="0" cy="0" gradientTransform="matrix(0.0127, 0.0, 0.0, 0.0127, -62.85, -31.55)" gradientUnits="userSpaceOnUse" id="gradient13" r="819.2" spreadMethod="pad">
      <stop offset="0.0" stop-color="#000000" stop-opacity="0.0"/>
      <stop offset="1.0" stop-color="#000000" stop-opacity="0.2"/>
    </radialGradient>
    <radialGradient cx="0" cy="0" gradientTransform="matrix(0.0168, 0.0, 0.0, 0.0168, -28.45, -12.0)" gradientUnits="userSpaceOnUse" id="gradient14" r="819.2" spreadMethod="pad">
      <stop offset="0.0" stop-color="#000000" stop-opacity="0.0"/>
      <stop offset="1.0" stop-color="#000000" stop-opacity="0.2"/>
    </radialGradient>
    <linearGradient gradientTransform="matrix(0.0, -0.0737, -0.037, 0.0, 114.25, -119.15)" gradientUnits="userSpaceOnUse" id="gradient15" spreadMethod="pad" x1="-819.2" x2="819.2">
      <stop offset="0.0" stop-color="#000000" stop-opacity="0.2"/>
      <stop offset="1.0" stop-color="#000000" stop-opacity="0.0"/>
    </linearGradient>
    <linearGradient gradientTransform="matrix(0.0, -0.0737, -0.037, 0.0, 40.6, -172.3)" gradientUnits="userSpaceOnUse" id="gradient16" spreadMethod="pad" x1="-819.2" x2="819.2">
      <stop offset="0.0" stop-color="#000000" stop-opacity="0.2"/>
      <stop offset="1.0" stop-color="#000000" stop-opacity="0.0"/>
    </linearGradient>
    <radialGradient cx="0" cy="0" gradientTransform="matrix(-0.0082, 0.0, 0.0, 0.0082, 27.65, -141.0)" gradientUnits="userSpaceOnUse" id="gradient17" r="819.2" spreadMethod="pad">
      <stop offset="0.0" stop-color="#000000" stop-opacity="0.0"/>
      <stop offset="1.0" stop-color="#000000" stop-opacity="0.2"/>
    </radialGradient>
    <radialGradient cx="0" cy="0" gradientTransform="matrix(-0.0127, 0.0, 0.0, 0.0127, 20.95, -122.35)" gradientUnits="userSpaceOnUse" id="gradient18" r="819.2" spreadMethod="pad">
      <stop offset="0.0" stop-color="#000000" stop-opacity="0.0"/>
      <stop offset="1.0" stop-color="#000000" stop-opacity="0.2"/>
    </radialGradient>
    <linearGradient gradientTransform="matrix(0.0, -0.0737, -0.037, 0.0, 78.75, -149.2)" gradientUnits="userSpaceOnUse" id="gradient19" spreadMethod="pad" x1="-819.2" x2="819.2">
      <stop offset="0.0" stop-color="#000000" stop-opacity="0.2"/>
      <stop offset="1.0" stop-color="#000000" stop-opacity="0.0"/>
    </linearGradient>
    <radialGradient cx="0" cy="0" gradientTransform="matrix(-0.0082, 0.0, 0.0, 0.0082, 51.65, -120.3)" gradientUnits="userSpaceOnUse" id="gradient20" r="819.2" spreadMethod="pad">
      <stop offset="0.0" stop-color="#000000" stop-opacity="0.0"/>
      <stop offset="1.0" stop-color="#000000" stop-opacity="0.2"/>
    </radialGradient>
    <radialGradient cx="0" cy="0" gradientTransform="matrix(-0.0168, 0.0, 0.0, 0.0168, 62.15, -107.2)" gradientUnits="userSpaceOnUse" id="gradient21" r="819.2" spreadMethod="pad">
      <stop offset="0.0" stop-color="#000000" stop-opacity="0.0"/>
      <stop offset="1.0" stop-color="#000000" stop-opacity="0.2"/>
    </radialGradient>
    <radialGradient cx="0" cy="0" gradientTransform="matrix(-0.0168, 0.0, 0.0, 0.0168, 28.25, -12.0)" gradientUnits="userSpaceOnUse" id="gradient22" r="819.2" spreadMethod="pad">
      <stop offset="0.0" stop-color="#000000" stop-opacity="0.0"/>
      <stop offset="1.0" stop-color="#000000" stop-opacity="0.2"/>
    </radialGradient>
    <radialGradient cx="0" cy="0" gradientTransform="matrix(-0.0127, 0.0, 0.0, 0.0127, 62.65, -31.55)" gradientUnits="userSpaceOnUse" id="gradient23" r="819.2" spreadMethod="pad">
      <stop offset="0.0" stop-color="#000000" stop-opacity="0.0"/>
      <stop offset="1.0" stop-color="#000000" stop-opacity="0.2"/>
    </radialGradient>
    <radialGradient cx="0" cy="0" gradientTransform="matrix(-0.0127, 0.0, 0.0, 0.0127, 97.75, -87.95)" gradientUnits="userSpaceOnUse" id="gradient24" r="819.2" spreadMethod="pad">
      <stop offset="0.0" stop-color="#000000" stop-opacity="0.0"/>
      <stop offset="1.0" stop-color="#000000" stop-opacity="0.2"/>
    </radialGradient>
    <radialGradient cx="0" cy="0" gradientTransform="matrix(-0.0082, 0.0, 0.0, 0.0082, 100.1, -53.9)" gradientUnits="userSpaceOnUse" id="gradient25" r="819.2" spreadMethod="pad">
      <stop offset="0.0" stop-color="#000000" stop-opacity="0.0"/>
      <stop offset="1.0" stop-color="#000000" stop-opacity="0.2"/>
    </radialGradient>
    <radialGradient cx="0" cy="0" gradientTransform="matrix(-0.0048, 0.0, 0.0, 0.0048, 117.9, -34.45)" gradientUnits="userSpaceOnUse" id="gradient26" r="819.2" spreadMethod="pad">
      <stop offset="0.0" stop-color="#000000" stop-opacity="0.0"/>
      <stop offset="1.0" stop-color="#000000" stop-opacity="0.2"/>
    </radialGradient>
    <radialGradient cx="0" cy="0" gradientTransform="matrix(-0.0084, 0.0, 0.0, 0.0084, 109.0, -22.8)" gradientUnits="userSpaceOnUse" id="gradient27" r="819.2" spreadMethod="pad">
      <stop offset="0.0" stop-color="#000000" stop-opacity="0.0"/>
      <stop offset="1.0" stop-color="#000000" stop-opacity="0.2"/>
    </radialGradient>
    <radialGradient cx="0" cy="0" gradientTransform="matrix(-0.0135, 0.0, 0.0, 0.0135, 112.9, -4.75)" gradientUnits="userSpaceOnUse" id="gradient28" r="819.2" spreadMethod="pad">
      <stop offset="0.0" stop-color="#000000" stop-opacity="0.0"/>
      <stop offset="1.0" stop-color="#000000" stop-opacity="0.2"/>
    </radialGradient>
    <radialGradient cx="0" cy="0" gradientTransform="matrix(-0.0084, 0.0, 0.0, 0.0084, 107.05, 0.5)" gradientUnits="userSpaceOnUse" id="gradient29" r="819.2" spreadMethod="pad">
      <stop offset="0.0" stop-color="#000000" stop-opacity="0.0"/>
      <stop offset="1.0" stop-color="#000000" stop-opacity="0.2"/>
    </radialGradient>
    <radialGradient cx="0" cy="0" gradientTransform="matrix(-0.0168, 0.0, 0.0, 0.0168, 107.35, 19.95)" gradientUnits="userSpaceOnUse" id="gradient30" r="819.2" spreadMethod="pad">
      <stop offset="0.0" stop-color="#000000" stop-opacity="0.0"/>
      <stop offset="1.0" stop-color="#000000" stop-opacity="0.2"/>
    </radialGradient>
    <radialGradient cx="0" cy="0" gradientTransform="matrix(-0.0082, 0.0, 0.0, 0.0082, 85.15, 22.45)" gradientUnits="userSpaceOnUse" id="gradient31" r="819.2" spreadMethod="pad">
      <stop offset="0.0" stop-color="#000000" stop-opacity="0.0"/>
      <stop offset="1.0" stop-color="#000000" stop-opacity="0.2"/>
    </radialGradient>
    <linearGradient gradientTransform="matrix(0.0, -0.0737, -0.037, 0.0, 92.1, 24.6)" gradientUnits="userSpaceOnUse" id="gradient32" spreadMethod="pad" x1="-819.2" x2="819.2">
      <stop offset="0.0" stop-color="#000000" stop-opacity="0.2"/>
      <stop offset="1.0" stop-color="#000000" stop-opacity="0.0"/>
    </linearGradient>
    <radialGradient cx="0" cy="0" gradientTransform="matrix(-0.0082, 0.0, 0.0, 0.0082, 101.5, 46.85)" gradientUnits="userSpaceOnUse" id="gradient33" r="819.2" spreadMethod="pad">
      <stop offset="0.0" stop-color="#000000" stop-opacity="0.0"/>
      <stop offset="1.0" stop-color="#000000" stop-opacity="0.2"/>
    </radialGradient>
    <radialGradient cx="0" cy="0" gradientTransform="matrix(-0.0046, 0.0, 0.0, 0.0046, 102.1, 68.5)" gradientUnits="userSpaceOnUse" id="gradient34" r="819.2" spreadMethod="pad">
      <stop offset="0.0" stop-color="#000000" stop-opacity="0.0"/>
      <stop offset="1.0" stop-color="#000000" stop-opacity="0.2"/>
    </radialGradient>
    <radialGradient cx="0" cy="0" gradientTransform="matrix(-0.0073, 0.0, 0.0, 0.0073, 86.0, 64.9)" gradientUnits="userSpaceOnUse" id="gradient35" r="819.2" spreadMethod="pad">
      <stop offset="0.0" stop-color="#000000" stop-opacity="0.0"/>
      <stop offset="1.0" stop-color="#000000" stop-opacity="0.2"/>
    </radialGradient>
    <radialGradient cx="0" cy="0" gradientTransform="matrix(-0.0042, 0.0, 0.0, 0.0042, 82.95, 62.95)" gradientUnits="userSpaceOnUse" id="gradient36" r="819.2" spreadMethod="pad">
      <stop offset="0.0" stop-color="#000000" stop-opacity="0.0"/>
      <stop offset="1.0" stop-color="#000000" stop-opacity="0.2"/>
    </radialGradient>
    <radialGradient cx="0" cy="0" gradientTransform="matrix(-0.0043, 0.0, 0.0, 0.0043, 84.3, 82.1)" gradientUnits="userSpaceOnUse" id="gradient37" r="819.2" spreadMethod="pad">
      <stop offset="0.0" stop-color="#000000" stop-opacity="0.0"/>
      <stop offset="1.0" stop-color="#000000" stop-opacity="0.2"/>
    </radialGradient>
    <radialGradient cx="0" cy="0" gradientTransform="matrix(-0.0127, 0.0, 0.0, 0.0127, 70.15, 9.1)" gradientUnits="userSpaceOnUse" id="gradient38" r="819.2" spreadMethod="pad">
      <stop offset="0.0" stop-color="#000000" stop-opacity="0.0"/>
      <stop offset="1.0" stop-color="#000000" stop-opacity="0.2"/>
    </radialGradient>
    <linearGradient gradientTransform="matrix(0.0, -0.0737, -0.037, 0.0, 51.75, 4.2)" gradientUnits="userSpaceOnUse" id="gradient39" spreadMethod="pad" x1="-819.2" x2="819.2">
      <stop offset="0.0" stop-color="#000000" stop-opacity="0.2"/>
      <stop offset="1.0" stop-color="#000000" stop-opacity="0.0"/>
    </linearGradient>
    <radialGradient cx="0" cy="0" gradientTransform="matrix(-0.0082, 0.0, 0.0, 0.0082, 45.65, 45.3)" gradientUnits="userSpaceOnUse" id="gradient40" r="819.2" spreadMethod="pad">
      <stop offset="0.0" stop-color="#000000" stop-opacity="0.0"/>
      <stop offset="1.0" stop-color="#000000" stop-opacity="0.2"/>
    </radialGradient>
    <radialGradient cx="0" cy="0" gradientTransform="matrix(-0.0082, 0.0, 0.0, 0.0082, 18.55, 97.45)" gradientUnits="userSpaceOnUse" id="gradient41" r="819.2" spreadMethod="pad">
      <stop offset="0.0" stop-color="#000000" stop-opacity="0.0"/>
      <stop offset="1.0" stop-color="#000000" stop-opacity="0.2"/>
    </radialGradient>
    <radialGradient cx="0" cy="0" gradientTransform="matrix(-0.0127, 0.0, 0.0, 0.0127, 27.35, 76.8)" gradientUnits="userSpaceOnUse" id="gradient42" r="819.2" spreadMethod="pad">
      <stop offset="0.0" stop-color="#000000" stop-opacity="0.0"/>
      <stop offset="1.0" stop-color="#000000" stop-opacity="0.2"/>
    </radialGradient>
    <radialGradient cx="0" cy="0" gradientTransform="matrix(-0.0048, 0.0, 0.0, 0.0048, 63.8, 65.7)" gradientUnits="userSpaceOnUse" id="gradient43" r="819.2" spreadMethod="pad">
      <stop offset="0.0" stop-color="#000000" stop-opacity="0.0"/>
      <stop offset="1.0" stop-color="#000000" stop-opacity="0.2"/>
    </radialGradient>
    <linearGradient gradientTransform="matrix(0.0, -0.0737, -0.037, 0.0, 76.6, 80.4)" gradientUnits="userSpaceOnUse" id="gradient44" spreadMethod="pad" x1="-819.2" x2="819.2">
      <stop offset="0.0" stop-color="#000000" stop-opacity="0.2"/>
      <stop offset="1.0" stop-color="#000000" stop-opacity="0.0"/>
    </linearGradient>
    <radialGradient cx="0" cy="0" gradientTransform="matrix(-0.0168, 0.0, 0.0, 0.0168, 48.75, 103.2)" gradientUnits="userSpaceOnUse" id="gradient45" r="819.2" spreadMethod="pad">
      <stop offset="0.0" stop-color="#000000" stop-opacity="0.0"/>
      <stop offset="1.0" stop-color="#000000" stop-opacity="0.2"/>
    </radialGradient>
    <linearGradient gradientTransform="matrix(0.0, -0.0737, -0.037, 0.0, 78.75, 151.25)" gradientUnits="userSpaceOnUse" id="gradient46" spreadMethod="pad" x1="-819.2" x2="819.2">
      <stop offset="0.0" stop-color="#000000" stop-opacity="0.2"/>
      <stop offset="1.0" stop-color="#000000" stop-opacity="0.0"/>
    </linearGradient>
    <radialGradient cx="0" cy="0" gradientTransform="matrix(-0.0082, 0.0, 0.0, 0.0082, 69.25, 184.8)" gradientUnits="userSpaceOnUse" id="gradient47" r="819.2" spreadMethod="pad">
      <stop offset="0.0" stop-color="#000000" stop-opacity="0.0"/>
      <stop offset="1.0" stop-color="#000000" stop-opacity="0.2"/>
    </radialGradient>
    <radialGradient cx="0" cy="0" gradientTransform="matrix(-0.0127, 0.0, 0.0, 0.0127, 69.1, 221.55)" gradientUnits="userSpaceOnUse" id="gradient48" r="819.2" spreadMethod="pad">
      <stop offset="0.0" stop-color="#000000" stop-opacity="0.0"/>
      <stop offset="1.0" stop-color="#000000" stop-opacity="0.2"/>
    </radialGradient>
    <radialGradient cx="0" cy="0" gradientTransform="matrix(-0.0082, 0.0, 0.0, 0.0082, 60.45, 201.15)" gradientUnits="userSpaceOnUse" id="gradient49" r="819.2" spreadMethod="pad">
      <stop offset="0.0" stop-color="#000000" stop-opacity="0.0"/>
      <stop offset="1.0" stop-color="#000000" stop-opacity="0.2"/>
    </radialGradient>
    <linearGradient gradientTransform="matrix(0.0, -0.0737, 0.037, 0.0, -51.95, 4.2)" gradientUnits="userSpaceOnUse" id="gradient50" spreadMethod="pad" x1="-819.2" x2="819.2">
      <stop offset="0.0" stop-color="#000000" stop-opacity="0.2"/>
      <stop offset="1.0" stop-color="#000000" stop-opacity="0.0"/>
    </linearGradient>
    <radialGradient cx="0" cy="0" gradientTransform="matrix(0.0127, 0.0, 0.0, 0.0127, -70.35, 9.1)" gradientUnits="userSpaceOnUse" id="gradient51" r="819.2" spreadMethod="pad">
      <stop offset="0.0" stop-color="#000000" stop-opacity="0.0"/>
      <stop offset="1.0" stop-color="#000000" stop-opacity="0.2"/>
    </radialGradient>
    <linearGradient gradientTransform="matrix(0.0, -0.0737, 0.037, 0.0, -92.3, 24.6)" gradientUnits="userSpaceOnUse" id="gradient52" spreadMethod="pad" x1="-819.2" x2="819.2">
      <stop offset="0.0" stop-color="#000000" stop-opacity="0.2"/>
      <stop offset="1.0" stop-color="#000000" stop-opacity="0.0"/>
    </linearGradient>
    <radialGradient cx="0" cy="0" gradientTransform="matrix(0.0082, 0.0, 0.0, 0.0082, -45.85, 45.3)" gradientUnits="userSpaceOnUse" id="gradient53" r="819.2" spreadMethod="pad">
      <stop offset="0.0" stop-color="#000000" stop-opacity="0.0"/>
      <stop offset="1.0" stop-color="#000000" stop-opacity="0.2"/>
    </radialGradient>
    <radialGradient cx="0" cy="0" gradientTransform="matrix(0.0048, 0.0, 0.0, 0.0048, -64.0, 65.7)" gradientUnits="userSpaceOnUse" id="gradient54" r="819.2" spreadMethod="pad">
      <stop offset="0.0" stop-color="#000000" stop-opacity="0.0"/>
      <stop offset="1.0" stop-color="#000000" stop-opacity="0.2"/>
    </radialGradient>
    <linearGradient gradientTransform="matrix(0.0, -0.0737, 0.037, 0.0, -76.8, 80.4)" gradientUnits="userSpaceOnUse" id="gradient55" spreadMethod="pad" x1="-819.2" x2="819.2">
      <stop offset="0.0" stop-color="#000000" stop-opacity="0.2"/>
      <stop offset="1.0" stop-color="#000000" stop-opacity="0.0"/>
    </linearGradient>
    <radialGradient cx="0" cy="0" gradientTransform="matrix(0.0127, 0.0, 0.0, 0.0127, -27.55, 76.8)" gradientUnits="userSpaceOnUse" id="gradient56" r="819.2" spreadMethod="pad">
      <stop offset="0.0" stop-color="#000000" stop-opacity="0.0"/>
      <stop offset="1.0" stop-color="#000000" stop-opacity="0.2"/>
    </radialGradient>
    <radialGradient cx="0" cy="0" gradientTransform="matrix(0.0082, 0.0, 0.0, 0.0082, -18.75, 97.45)" gradientUnits="userSpaceOnUse" id="gradient57" r="819.2" spreadMethod="pad">
      <stop offset="0.0" stop-color="#000000" stop-opacity="0.0"/>
      <stop offset="1.0" stop-color="#000000" stop-opacity="0.2"/>
    </radialGradient>
    <radialGradient cx="0" cy="0" gradientTransform="matrix(0.0082, 0.0, 0.0, 0.0082, -85.35, 22.45)" gradientUnits="userSpaceOnUse" id="gradient58" r="819.2" spreadMethod="pad">
      <stop offset="0.0" stop-color="#000000" stop-opacity="0.0"/>
      <stop offset="1.0" stop-color="#000000" stop-opacity="0.2"/>
    </radialGradient>
    <radialGradient cx="0" cy="0" gradientTransform="matrix(0.0168, 0.0, 0.0, 0.0168, -107.55, 19.95)" gradientUnits="userSpaceOnUse" id="gradient59" r="819.2" spreadMethod="pad">
      <stop offset="0.0" stop-color="#000000" stop-opacity="0.0"/>
      <stop offset="1.0" stop-color="#000000" stop-opacity="0.2"/>
    </radialGradient>
    <radialGradient cx="0" cy="0" gradientTransform="matrix(0.0082, 0.0, 0.0, 0.0082, -101.7, 46.85)" gradientUnits="userSpaceOnUse" id="gradient60" r="819.2" spreadMethod="pad">
      <stop offset="0.0" stop-color="#000000" stop-opacity="0.0"/>
      <stop offset="1.0" stop-color="#000000" stop-opacity="0.2"/>
    </radialGradient>
    <radialGradient cx="0" cy="0" gradientTransform="matrix(0.0042, 0.0, 0.0, 0.0042, -83.15, 62.95)" gradientUnits="userSpaceOnUse" id="gradient61" r="819.2" spreadMethod="pad">
      <stop offset="0.0" stop-color="#000000" stop-opacity="0.0"/>
      <stop offset="1.0" stop-color="#000000" stop-opacity="0.2"/>
    </radialGradient>
    <radialGradient cx="0" cy="0" gradientTransform="matrix(0.0073, 0.0, 0.0, 0.0073, -86.2, 64.9)" gradientUnits="userSpaceOnUse" id="gradient62" r="819.2" spreadMethod="pad">
      <stop offset="0.0" stop-color="#000000" stop-opacity="0.0"/>
      <stop offset="1.0" stop-color="#000000" stop-opacity="0.2"/>
    </radialGradient>
    <radialGradient cx="0" cy="0" gradientTransform="matrix(0.0046, 0.0, 0.0, 0.0046, -102.3, 68.5)" gradientUnits="userSpaceOnUse" id="gradient63" r="819.2" spreadMethod="pad">
      <stop offset="0.0" stop-color="#000000" stop-opacity="0.0"/>
      <stop offset="1.0" stop-color="#000000" stop-opacity="0.2"/>
    </radialGradient>
    <radialGradient cx="0" cy="0" gradientTransform="matrix(0.0043, 0.0, 0.0, 0.0043, -84.5, 82.1)" gradientUnits="userSpaceOnUse" id="gradient64" r="819.2" spreadMethod="pad">
      <stop offset="0.0" stop-color="#000000" stop-opacity="0.0"/>
      <stop offset="1.0" stop-color="#000000" stop-opacity="0.2"/>
    </radialGradient>
    <radialGradient cx="0" cy="0" gradientTransform="matrix(0.0168, 0.0, 0.0, 0.0168, -48.95, 103.2)" gradientUnits="userSpaceOnUse" id="gradient65" r="819.2" spreadMethod="pad">
      <stop offset="0.0" stop-color="#000000" stop-opacity="0.0"/>
      <stop offset="1.0" stop-color="#000000" stop-opacity="0.2"/>
    </radialGradient>
    <linearGradient gradientTransform="matrix(0.0, -0.0737, 0.037, 0.0, -78.95, 151.25)" gradientUnits="userSpaceOnUse" id="gradient66" spreadMethod="pad" x1="-819.2" x2="819.2">
      <stop offset="0.0" stop-color="#000000" stop-opacity="0.2"/>
      <stop offset="1.0" stop-color="#000000" stop-opacity="0.0"/>
    </linearGradient>
    <radialGradient cx="0" cy="0" gradientTransform="matrix(0.0082, 0.0, 0.0, 0.0082, -69.45, 184.8)" gradientUnits="userSpaceOnUse" id="gradient67" r="819.2" spreadMethod="pad">
      <stop offset="0.0" stop-color="#000000" stop-opacity="0.0"/>
      <stop offset="1.0" stop-color="#000000" stop-opacity="0.2"/>
    </radialGradient>
    <radialGradient cx="0" cy="0" gradientTransform="matrix(0.0082, 0.0, 0.0, 0.0082, -60.65, 201.15)" gradientUnits="userSpaceOnUse" id="gradient68" r="819.2" spreadMethod="pad">
      <stop offset="0.0" stop-color="#000000" stop-opacity="0.0"/>
      <stop offset="1.0" stop-color="#000000" stop-opacity="0.2"/>
    </radialGradient>
    <radialGradient cx="0" cy="0" gradientTransform="matrix(0.0127, 0.0, 0.0, 0.0127, -69.3, 221.55)" gradientUnits="userSpaceOnUse" id="gradient69" r="819.2" spreadMethod="pad">
      <stop offset="0.0" stop-color="#000000" stop-opacity="0.0"/>
      <stop offset="1.0" stop-color="#000000" stop-opacity="0.2"/>
    </radialGradient>
  </defs>
</svg>
