<?xml version="1.0" encoding="UTF-8" standalone="no"?>
<svg xmlns:xlink="http://www.w3.org/1999/xlink" height="110.45px" width="254.2px" xmlns="http://www.w3.org/2000/svg">
  <g transform="matrix(1.0, 0.0, 0.0, 1.0, 127.2, -169.7)">
    <path d="M8.45 170.9 L9.45 171.75 12.45 173.7 13.5 174.5 Q16.1 175.9 18.5 177.65 L22.05 180.2 24.75 181.9 25.9 182.8 Q26.25 183.55 27.2 183.55 L30.0 183.45 Q30.8 183.4 31.45 184.35 L36.75 188.55 Q20.5 185.9 1.75 185.6 2.7 185.5 3.9 184.8 6.65 184.7 9.25 183.2 L12.1 183.35 Q12.85 183.4 13.1 183.0 13.6 182.35 14.55 182.0 15.4 181.7 15.0 180.95 L14.2 179.05 13.6 178.35 12.9 177.65 12.2 176.5 10.85 174.45 8.45 170.9" fill="url(#gradient0)" fill-rule="evenodd" stroke="none"/>
    <path d="M123.3 222.1 Q115.9 209.4 90.6 199.7 76.65 194.25 60.45 191.05 L60.55 190.95 Q62.05 190.55 63.0 189.3 L65.4 187.4 Q65.75 187.1 65.5 186.15 L64.8 184.1 67.45 186.15 68.8 187.0 70.4 187.95 71.3 188.5 Q72.45 188.6 73.45 187.7 73.7 187.2 74.35 187.2 L76.75 187.3 Q79.95 187.5 81.65 184.7 L81.65 183.4 80.55 179.85 Q79.85 178.95 79.3 177.6 L78.6 176.7 Q77.35 175.65 76.3 173.9 L75.75 173.0 Q74.7 170.95 72.95 169.7 76.4 171.65 79.85 174.05 82.85 176.2 86.05 179.2 L89.25 182.15 90.7 183.4 Q93.1 185.25 95.55 187.95 L97.65 190.1 Q98.0 190.55 98.55 190.8 100.5 191.75 102.3 193.45 103.25 193.75 103.95 194.35 106.65 196.55 107.25 199.4 L108.25 201.55 Q108.6 203.4 109.9 204.85 L111.5 206.7 Q112.6 207.95 113.75 208.5 L115.3 209.6 Q117.25 211.1 118.15 209.5 118.6 210.65 119.65 211.8 120.8 213.3 122.75 214.8 L123.2 215.8 123.3 219.55 123.3 222.1" fill="url(#gradient1)" fill-rule="evenodd" stroke="none"/>
    <path d="M123.3 222.1 L123.3 219.55 123.2 215.8 122.75 214.8 Q120.8 213.3 119.65 211.8 118.6 210.65 118.15 209.5 L118.05 208.25 119.4 207.3 Q120.9 206.5 120.8 204.9 120.7 203.3 119.9 201.7 120.0 198.25 119.3 195.7 118.95 194.55 118.05 193.65 116.35 191.75 115.55 189.2 L115.0 187.8 Q114.8 186.65 114.6 186.5 117.7 188.3 119.55 191.4 L120.45 192.55 123.0 197.8 Q123.55 199.05 123.45 200.5 L123.3 204.9 Q123.2 207.5 124.25 209.6 124.7 210.4 124.6 211.35 124.6 212.4 124.9 213.4 L125.35 216.5 Q125.5 218.2 125.95 218.9 126.4 219.8 126.4 220.95 127.1 223.15 127.0 225.05 126.95 227.95 126.3 230.85 127.2 233.7 126.3 235.65 L126.15 236.0 125.95 237.05 Q124.1 246.35 113.55 254.3 L113.55 254.25 114.35 252.4 115.1 251.15 115.9 250.15 Q117.15 248.35 118.05 246.2 L119.2 243.0 Q119.55 242.2 118.95 241.5 116.8 239.1 117.25 235.65 117.4 233.5 118.6 232.1 L121.75 228.5 Q122.65 227.5 122.85 226.35 L123.3 222.1" fill="url(#gradient2)" fill-rule="evenodd" stroke="none"/>
    <path d="M-0.1 280.15 Q1.5 279.7 2.75 278.1 4.6 277.05 6.05 276.35 L9.25 274.75 10.5 273.85 Q11.6 272.8 13.2 272.8 L14.9 272.4 20.75 272.05 26.15 272.0 Q27.65 271.45 28.9 271.35 L30.95 271.0 Q32.5 270.45 34.0 270.4 L36.4 268.8 37.55 268.1 39.25 266.85 45.65 263.5 47.95 262.45 49.65 261.45 Q52.3 258.95 54.3 256.2 L55.2 255.05 57.85 250.55 58.3 249.6 Q60.2 245.15 62.4 241.8 63.2 242.2 63.4 243.45 64.0 247.45 63.55 251.7 63.1 254.25 61.8 256.2 L60.35 258.5 59.3 261.2 Q58.95 261.9 58.75 262.95 L58.05 265.1 Q57.6 266.5 57.6 267.05 59.2 267.25 59.9 266.25 61.8 263.65 64.35 262.05 L66.15 261.7 69.6 262.0 Q73.4 262.35 75.95 260.1 76.75 259.5 77.65 259.25 78.25 259.05 78.7 258.45 79.4 256.65 80.3 256.1 L81.55 255.05 83.75 252.55 Q85.65 250.95 86.4 248.7 87.75 244.6 88.2 240.35 88.2 235.65 88.65 232.2 90.5 233.25 90.25 235.9 L90.05 239.75 89.8 244.9 89.6 247.3 Q88.8 250.9 88.9 253.75 L88.65 255.05 85.8 260.85 Q85.35 261.8 85.2 262.95 L84.75 264.4 83.05 266.5 Q81.35 267.05 81.55 269.55 L80.1 270.0 Q47.6 280.15 4.2 280.15 L-0.1 280.15" fill="url(#gradient3)" fill-rule="evenodd" stroke="none"/>
    <path d="M103.25 253.65 Q105.3 251.75 105.05 248.25 106.0 249.8 105.9 251.95 L106.0 253.0 Q106.2 255.5 105.05 257.45 104.7 258.1 104.05 260.3 100.25 262.35 95.7 264.3 97.15 263.3 98.3 261.25 100.75 258.45 102.0 256.1 102.55 254.45 103.25 253.65" fill="url(#gradient4)" fill-rule="evenodd" stroke="none"/>
    <path d="M-123.5 222.1 L-123.05 226.35 Q-122.85 227.5 -121.95 228.5 L-118.8 232.1 Q-117.6 233.5 -117.45 235.65 -117.0 239.1 -119.15 241.5 -119.75 242.2 -119.4 243.0 L-118.25 246.2 Q-117.35 248.35 -116.1 250.15 L-115.3 251.15 -114.55 252.4 -113.75 254.25 -113.75 254.3 Q-124.3 246.35 -126.15 237.05 L-126.35 236.0 -126.5 235.65 Q-127.4 233.7 -126.5 230.85 -127.15 227.95 -127.2 225.05 -127.3 223.15 -126.6 220.95 -126.6 219.8 -126.15 218.9 -125.7 218.2 -125.55 216.5 L-125.1 213.4 Q-124.8 212.4 -124.8 211.35 -124.9 210.4 -124.45 209.6 -123.4 207.5 -123.5 204.9 L-123.65 200.5 Q-123.75 199.05 -123.2 197.8 L-120.65 192.55 -119.75 191.4 Q-117.9 188.3 -114.8 186.5 L-115.2 187.8 -115.75 189.2 Q-116.55 191.75 -118.25 193.65 -119.15 194.55 -119.5 195.7 -120.2 198.25 -120.1 201.7 -120.9 203.3 -121.0 204.9 -121.1 206.5 -119.6 207.3 L-118.25 208.25 -118.35 209.5 Q-118.8 210.65 -119.85 211.8 -121.0 213.3 -122.95 214.8 L-123.4 215.8 -123.5 219.55 -123.5 222.1" fill="url(#gradient5)" fill-rule="evenodd" stroke="none"/>
    <path d="M-118.35 209.5 Q-117.45 211.1 -115.5 209.6 L-113.95 208.5 Q-112.8 207.95 -111.7 206.7 L-110.1 204.85 Q-108.8 203.4 -108.45 201.55 L-107.45 199.4 Q-106.85 196.55 -104.15 194.35 L-102.5 193.45 Q-100.7 191.75 -98.75 190.8 -98.2 190.55 -97.85 190.1 L-95.75 187.95 Q-93.3 185.25 -90.9 183.4 L-89.45 182.15 Q-88.05 180.55 -86.25 179.2 -83.05 176.2 -80.05 174.05 -76.6 171.65 -73.15 169.7 -74.9 170.95 -75.95 173.0 L-76.5 173.9 Q-77.55 175.65 -78.8 176.7 L-79.5 177.6 Q-80.05 178.95 -80.75 179.85 L-81.85 183.4 -81.85 184.7 Q-80.15 187.5 -76.95 187.3 L-74.55 187.2 Q-73.9 187.2 -73.65 187.7 -72.65 188.6 -71.5 188.5 -71.05 188.4 -70.6 187.95 L-69.0 187.0 -67.65 186.15 Q-66.7 185.15 -65.0 184.1 -65.15 185.15 -65.7 186.15 -65.95 187.1 -65.6 187.4 L-63.2 189.3 Q-62.25 190.55 -60.75 190.95 L-60.65 191.05 Q-76.85 194.25 -90.8 199.7 -116.1 209.4 -123.5 222.1 L-123.5 219.55 -123.4 215.8 -122.95 214.8 Q-121.0 213.3 -119.85 211.8 -118.8 210.65 -118.35 209.5" fill="url(#gradient6)" fill-rule="evenodd" stroke="none"/>
    <path d="M-8.65 170.9 L-11.05 174.45 -12.4 176.5 -13.1 177.65 -13.8 178.35 -14.4 179.05 -15.2 180.95 Q-15.6 181.7 -14.75 182.0 -13.8 182.35 -13.3 183.0 -13.05 183.4 -12.3 183.35 L-9.45 183.2 Q-6.85 184.7 -4.1 184.8 L-1.95 185.6 Q-20.7 185.9 -36.95 188.55 L-31.65 184.35 Q-31.0 183.4 -30.2 183.45 L-27.4 183.55 Q-26.45 183.55 -26.1 182.8 L-24.95 181.9 -22.25 180.2 Q-20.7 179.2 -18.7 177.65 -16.3 175.9 -13.7 174.5 L-12.65 173.7 -9.65 171.75 -8.65 170.9" fill="url(#gradient7)" fill-rule="evenodd" stroke="none"/>
    <path d="M-0.1 280.15 L-4.4 280.15 Q-47.8 280.15 -80.3 270.0 L-81.75 269.55 Q-81.55 267.05 -83.25 266.5 L-84.95 264.4 -85.4 262.95 Q-85.55 261.8 -86.0 260.85 L-88.85 255.05 Q-89.2 254.45 -89.1 253.75 -89.0 250.9 -89.8 247.3 L-90.0 244.9 -90.25 239.75 -90.45 235.9 Q-90.7 233.25 -88.85 232.2 -88.4 235.65 -88.4 240.35 -87.95 244.6 -86.6 248.7 -85.85 250.95 -83.95 252.55 L-81.75 255.05 -80.5 256.1 Q-79.6 256.65 -78.9 258.45 L-77.85 259.25 Q-76.95 259.5 -76.15 260.1 -73.6 262.35 -69.8 262.0 L-66.35 261.7 Q-65.35 261.65 -64.55 262.05 -62.0 263.65 -60.1 266.25 -59.4 267.25 -57.8 267.05 L-58.25 265.1 -58.95 262.95 Q-59.15 261.9 -59.5 261.2 L-60.55 258.5 -62.0 256.2 Q-63.3 254.25 -63.75 251.7 -64.2 247.45 -63.6 243.45 -63.4 242.2 -62.6 241.8 -60.4 245.15 -58.5 249.6 L-58.05 250.55 -55.4 255.05 -54.5 256.2 Q-52.5 258.95 -49.85 261.45 L-48.15 262.45 -45.85 263.5 -39.45 266.85 -37.75 268.1 -36.6 268.8 -34.2 270.4 Q-32.7 270.45 -31.15 271.0 L-29.1 271.35 Q-27.85 271.45 -26.35 272.0 L-20.95 272.05 -15.1 272.4 -13.4 272.8 Q-11.8 272.8 -10.7 273.85 L-9.45 274.75 -6.25 276.35 -2.95 278.1 Q-1.7 279.7 -0.1 280.15" fill="url(#gradient8)" fill-rule="evenodd" stroke="none"/>
    <path d="M-98.5 261.25 Q-97.35 263.3 -95.9 264.3 -100.45 262.35 -104.25 260.3 -104.9 258.1 -105.25 257.45 -106.4 255.5 -106.2 253.0 L-106.1 251.95 Q-106.2 249.8 -105.25 248.25 -105.5 251.75 -103.45 253.65 -102.75 254.45 -102.2 256.1 -100.95 258.45 -98.5 261.25" fill="url(#gradient9)" fill-rule="evenodd" stroke="none"/>
  </g>
  <defs>
    <linearGradient gradientTransform="matrix(0.0, 0.0108, -0.0214, 0.0, 19.25, 179.7)" gradientUnits="userSpaceOnUse" id="gradient0" spreadMethod="pad" x1="-819.2" x2="819.2">
      <stop offset="0.0" stop-color="#000000" stop-opacity="0.2"/>
      <stop offset="1.0" stop-color="#000000" stop-opacity="0.0"/>
    </linearGradient>
    <linearGradient gradientTransform="matrix(0.0, 0.032, -0.0384, 0.0, 91.9, 195.9)" gradientUnits="userSpaceOnUse" id="gradient1" spreadMethod="pad" x1="-819.2" x2="819.2">
      <stop offset="0.0" stop-color="#000000" stop-opacity="0.2"/>
      <stop offset="1.0" stop-color="#000000" stop-opacity="0.0"/>
    </linearGradient>
    <linearGradient gradientTransform="matrix(0.0, 0.0414, -0.0082, 0.0, 120.3, 220.4)" gradientUnits="userSpaceOnUse" id="gradient2" spreadMethod="pad" x1="-819.2" x2="819.2">
      <stop offset="0.0" stop-color="#000000" stop-opacity="0.2"/>
      <stop offset="1.0" stop-color="#000000" stop-opacity="0.0"/>
    </linearGradient>
    <linearGradient gradientTransform="matrix(0.0, 0.0293, -0.0552, 0.0, 45.1, 256.15)" gradientUnits="userSpaceOnUse" id="gradient3" spreadMethod="pad" x1="-819.2" x2="819.2">
      <stop offset="0.0" stop-color="#000000" stop-opacity="0.2"/>
      <stop offset="1.0" stop-color="#000000" stop-opacity="0.0"/>
    </linearGradient>
    <linearGradient gradientTransform="matrix(0.0, 0.0098, -0.0063, 0.0, 100.9, 256.25)" gradientUnits="userSpaceOnUse" id="gradient4" spreadMethod="pad" x1="-819.2" x2="819.2">
      <stop offset="0.0" stop-color="#000000" stop-opacity="0.2"/>
      <stop offset="1.0" stop-color="#000000" stop-opacity="0.0"/>
    </linearGradient>
    <linearGradient gradientTransform="matrix(0.0, 0.0414, -0.0082, 0.0, -120.45, 220.4)" gradientUnits="userSpaceOnUse" id="gradient5" spreadMethod="pad" x1="-819.2" x2="819.2">
      <stop offset="0.0" stop-color="#000000" stop-opacity="0.2"/>
      <stop offset="1.0" stop-color="#000000" stop-opacity="0.0"/>
    </linearGradient>
    <linearGradient gradientTransform="matrix(0.0, 0.032, -0.0384, 0.0, -92.05, 195.9)" gradientUnits="userSpaceOnUse" id="gradient6" spreadMethod="pad" x1="-819.2" x2="819.2">
      <stop offset="0.0" stop-color="#000000" stop-opacity="0.2"/>
      <stop offset="1.0" stop-color="#000000" stop-opacity="0.0"/>
    </linearGradient>
    <linearGradient gradientTransform="matrix(0.0, 0.0108, -0.0214, 0.0, -19.45, 179.7)" gradientUnits="userSpaceOnUse" id="gradient7" spreadMethod="pad" x1="-819.2" x2="819.2">
      <stop offset="0.0" stop-color="#000000" stop-opacity="0.2"/>
      <stop offset="1.0" stop-color="#000000" stop-opacity="0.0"/>
    </linearGradient>
    <linearGradient gradientTransform="matrix(0.0, 0.0293, -0.0552, 0.0, -45.3, 256.15)" gradientUnits="userSpaceOnUse" id="gradient8" spreadMethod="pad" x1="-819.2" x2="819.2">
      <stop offset="0.0" stop-color="#000000" stop-opacity="0.2"/>
      <stop offset="1.0" stop-color="#000000" stop-opacity="0.0"/>
    </linearGradient>
    <linearGradient gradientTransform="matrix(0.0, 0.0098, -0.0063, 0.0, -101.05, 256.25)" gradientUnits="userSpaceOnUse" id="gradient9" spreadMethod="pad" x1="-819.2" x2="819.2">
      <stop offset="0.0" stop-color="#000000" stop-opacity="0.2"/>
      <stop offset="1.0" stop-color="#000000" stop-opacity="0.0"/>
    </linearGradient>
  </defs>
</svg>
