<?xml version="1.0" encoding="UTF-8" standalone="no"?>
<svg xmlns:xlink="http://www.w3.org/1999/xlink" height="110.65px" width="56.25px" xmlns="http://www.w3.org/2000/svg">
  <g transform="matrix(1.0, 0.0, 0.0, 1.0, 0.0, 0.0)">
    <path d="M46.2 45.05 L41.95 46.95 42.2 51.6 39.1 48.15 34.75 49.85 37.05 45.85 34.15 42.25 38.7 43.15 41.15 39.3 41.65 43.9 46.2 45.05 M7.55 2.5 L9.95 0.0 9.7 3.5 12.8 4.95 9.4 5.75 8.95 9.2 7.1 6.25 3.7 6.95 6.0 4.3 4.3 1.15 7.55 2.5 M20.0 18.45 L17.4 27.35 24.75 33.0 15.45 33.25 12.4 42.0 9.3 33.25 0.0 33.0 7.35 27.35 4.75 18.45 12.4 23.7 20.0 18.45 M12.7 61.2 L14.75 65.45 10.5 63.4 7.15 66.65 7.8 62.0 3.7 59.8 8.25 58.95 9.1 54.4 11.3 58.5 15.95 57.85 12.7 61.2 M27.5 80.3 L30.3 82.45 26.8 82.55 25.7 85.8 24.55 82.55 20.95 82.4 23.8 80.3 22.8 76.95 25.7 78.95 28.5 76.95 27.5 80.3 M55.65 66.45 L52.05 72.4 56.25 77.95 49.45 76.35 45.6 82.1 45.0 75.15 38.35 73.15 44.75 70.45 44.6 63.5 49.15 68.8 55.65 66.45 M47.2 97.6 L50.3 99.05 46.9 99.85 46.45 103.3 44.6 100.35 41.2 101.05 43.5 98.4 41.8 95.25 45.05 96.6 47.45 94.1 47.2 97.6 M35.05 105.6 L30.45 106.25 29.3 110.65 27.35 106.55 22.8 106.9 26.05 103.75 24.3 99.4 28.4 101.7 31.9 98.6 31.05 103.2 35.05 105.6" fill="#000000" fill-rule="evenodd" stroke="none"/>
  </g>
</svg>
