<?xml version="1.0" encoding="UTF-8" standalone="no"?>
<svg xmlns:xlink="http://www.w3.org/1999/xlink" height="307.65px" width="85.15px" xmlns="http://www.w3.org/2000/svg">
  <g transform="matrix(1.0, 0.0, 0.0, 1.0, -198.55, -50.7)">
    <path d="M245.05 69.25 Q245.35 64.25 247.4 59.65 251.1 53.2 255.95 50.7 253.25 54.0 251.7 57.4 257.0 56.15 262.55 58.15 255.95 58.05 251.0 65.35 L250.25 69.45 Q300.7 187.55 275.05 358.35 295.75 186.65 249.4 77.15 L247.6 155.05 246.55 211.35 245.1 267.25 246.3 77.65 Q240.8 98.15 235.5 115.95 L235.45 115.95 Q225.9 148.4 209.8 178.95 L209.75 178.9 Q225.3 142.45 233.15 113.55 L245.05 69.25 M198.6 168.25 L198.55 168.25 198.55 168.2 198.6 168.25 M209.8 178.95 L209.5 179.5 209.75 178.9 209.8 178.95" fill="#000000" fill-rule="evenodd" stroke="none"/>
  </g>
</svg>
