<?xml version="1.0" encoding="UTF-8" standalone="no"?>
<svg xmlns:xlink="http://www.w3.org/1999/xlink" height="89.65px" width="37.7px" xmlns="http://www.w3.org/2000/svg">
  <g transform="matrix(1.0, 0.0, 0.0, 1.0, -171.9, -128.95)">
    <path d="M179.15 140.75 Q182.2 133.9 187.4 130.65 189.55 129.3 191.9 130.6 197.05 133.55 200.5 140.2 L179.15 140.75" fill="url(#gradient0)" fill-rule="evenodd" stroke="none"/>
    <path d="M179.15 140.75 L200.5 140.2 Q214.0 154.25 204.95 205.1 L202.65 206.2 Q198.9 207.6 192.2 207.7 L185.25 207.5 181.7 206.75 Q180.35 206.35 179.35 205.75 166.6 155.5 179.15 140.75" fill="url(#gradient1)" fill-rule="evenodd" stroke="none"/>
    <path d="M202.65 206.2 L199.65 216.0 Q196.3 217.5 192.55 217.6 188.85 217.7 185.45 216.35 L181.7 206.75 185.25 207.5 192.2 207.7 Q198.9 207.6 202.65 206.2" fill="url(#gradient2)" fill-rule="evenodd" stroke="none"/>
    <path d="M179.15 140.75 L200.5 140.2 M202.65 206.2 Q198.9 207.6 192.2 207.7 L185.25 207.5 181.7 206.75" fill="none" stroke="#000000" stroke-linecap="round" stroke-linejoin="round" stroke-width="1.0"/>
    <path d="M200.5 140.2 Q197.05 133.55 191.9 130.6 189.55 129.3 187.4 130.65 182.2 133.9 179.15 140.75 166.6 155.5 179.35 205.75 180.35 206.35 181.7 206.75 L185.45 216.35 Q188.85 217.7 192.55 217.6 196.3 217.5 199.65 216.0 L202.65 206.2 204.95 205.1 Q214.0 154.25 200.5 140.2 Z" fill="none" stroke="#000000" stroke-linecap="round" stroke-linejoin="round" stroke-width="2.0"/>
    <path d="M192.85 140.4 L196.75 140.3 192.85 140.4 Q192.25 136.2 190.05 132.9 195.65 135.85 196.75 140.3 205.5 168.35 200.6 202.6 200.45 168.65 192.85 140.4" fill="#ffffff" fill-opacity="0.2509804" fill-rule="evenodd" stroke="none"/>
    <path d="M196.75 140.3 L192.85 140.4 179.15 140.75 M181.7 206.75 L185.25 207.5 192.2 207.7 Q198.9 207.6 202.65 206.2 M200.5 140.2 L196.75 140.3" fill="none" stroke="#000000" stroke-linecap="round" stroke-linejoin="round" stroke-width="1.0"/>
    <path d="M179.15 140.75 Q166.6 155.5 179.35 205.75 180.35 206.35 181.7 206.75 L185.45 216.35 Q188.85 217.7 192.55 217.6 196.3 217.5 199.65 216.0 L202.65 206.2 204.95 205.1 Q214.0 154.25 200.5 140.2 197.05 133.55 191.9 130.6 189.55 129.3 187.4 130.65 182.2 133.9 179.15 140.75 Z" fill="none" stroke="#000000" stroke-linecap="round" stroke-linejoin="round" stroke-width="2.0"/>
  </g>
  <defs>
    <linearGradient gradientTransform="matrix(0.013, 0.0, 0.0, 0.0066, 189.8, 135.35)" gradientUnits="userSpaceOnUse" id="gradient0" spreadMethod="pad" x1="-819.2" x2="819.2">
      <stop offset="0.0" stop-color="#000000" stop-opacity="0.0"/>
      <stop offset="1.0" stop-color="#000000" stop-opacity="0.2509804"/>
    </linearGradient>
    <linearGradient gradientTransform="matrix(0.0218, 0.0, 0.0, 0.0412, 190.75, 173.95)" gradientUnits="userSpaceOnUse" id="gradient1" spreadMethod="pad" x1="-819.2" x2="819.2">
      <stop offset="0.0" stop-color="#000000" stop-opacity="0.0"/>
      <stop offset="1.0" stop-color="#000000" stop-opacity="0.2509804"/>
    </linearGradient>
    <linearGradient gradientTransform="matrix(0.0128, 0.0, 0.0, 0.007, 192.15, 211.9)" gradientUnits="userSpaceOnUse" id="gradient2" spreadMethod="pad" x1="-819.2" x2="819.2">
      <stop offset="0.0" stop-color="#000000" stop-opacity="0.0"/>
      <stop offset="1.0" stop-color="#000000" stop-opacity="0.2509804"/>
    </linearGradient>
  </defs>
</svg>
