<?xml version="1.0" encoding="UTF-8" standalone="no"?>
<svg xmlns:xlink="http://www.w3.org/1999/xlink" height="67.3px" width="64.7px" xmlns="http://www.w3.org/2000/svg">
  <g transform="matrix(1.0, 0.0, 0.0, 1.0, -181.95, -148.35)">
    <path d="M182.95 153.2 L189.3 149.35 M219.25 149.35 L225.75 151.3 M185.05 183.4 L190.35 188.5 M243.15 165.1 L243.2 165.1 M244.2 178.0 L245.65 175.2 M206.35 212.0 Q209.8 206.9 208.4 201.8" fill="none" stroke="#000000" stroke-linecap="round" stroke-linejoin="round" stroke-width="2.0"/>
    <path d="M189.3 149.35 Q199.05 157.5 215.65 157.15 225.15 156.1 219.25 149.35 M225.75 151.3 Q236.95 162.85 223.2 164.15 L214.55 163.9 Q221.05 166.35 222.8 170.95 L223.25 172.7 Q207.5 168.15 191.8 169.15 194.2 160.6 205.4 161.8 192.75 160.1 182.95 153.2 M190.35 188.5 Q236.45 194.45 239.2 188.55 L239.7 186.6 Q240.2 184.3 240.3 182.05 L235.7 182.4 Q232.45 181.95 230.55 179.05 229.75 177.8 229.15 176.15 L223.2 176.8 222.25 180.35 221.6 181.35 219.5 183.8 Q212.9 190.15 201.2 186.55 196.85 184.7 194.35 181.65 192.6 179.55 191.75 176.9 191.3 175.55 191.1 174.05 L187.1 172.6 185.05 183.4 M243.2 165.1 L243.15 165.1 Q235.15 164.65 228.2 170.95 226.45 159.45 236.5 160.55 L237.45 160.95 238.1 161.3 238.45 161.45 Q241.35 163.0 243.15 165.1 M236.5 160.55 L237.45 160.95 M214.55 163.9 Q210.95 162.55 205.85 161.85 L205.4 161.8 M222.25 180.35 L221.6 181.35 M240.3 182.05 L240.3 182.0 Q242.8 180.05 244.2 178.0 M245.65 175.2 Q239.75 178.65 230.55 179.05 M222.25 180.35 Q205.4 182.1 191.75 176.9 M208.4 201.8 Q232.25 205.1 236.35 201.65 236.7 206.35 238.4 210.25 L239.4 212.35 Q235.8 218.1 206.35 212.0" fill="none" stroke="#000000" stroke-linecap="round" stroke-linejoin="round" stroke-width="1.0"/>
  </g>
</svg>
