<?xml version="1.0" encoding="UTF-8" standalone="no"?>
<svg xmlns:xlink="http://www.w3.org/1999/xlink" height="67.3px" width="66.85px" xmlns="http://www.w3.org/2000/svg">
  <g transform="matrix(1.0, 0.0, 0.0, 1.0, -164.65, -148.35)">
    <path d="M183.1 192.35 L185.05 183.4 Q194.55 193.3 208.4 201.8 209.8 206.9 206.35 212.0 M165.85 185.55 Q165.3 173.2 166.4 161.0 180.15 155.4 189.3 149.35" fill="none" stroke="#000000" stroke-linecap="round" stroke-linejoin="round" stroke-width="2.0"/>
    <path d="M222.25 180.35 Q215.6 191.0 201.2 186.55 192.35 182.8 191.1 174.05 M185.05 183.4 L187.1 172.6" fill="none" stroke="#000000" stroke-linecap="round" stroke-linejoin="round" stroke-width="1.0"/>
    <path d="M183.1 192.35 L183.4 192.35 M165.85 185.55 Q174.45 192.6 183.1 192.35" fill="none" stroke="#000000" stroke-linecap="round" stroke-linejoin="round" stroke-width="1.0"/>
    <path d="M189.3 149.35 Q198.7 157.15 214.4 157.2" fill="none" stroke="#000000" stroke-linecap="round" stroke-linejoin="round" stroke-width="1.0"/>
    <path d="M214.4 157.2 L220.0 162.0 Q229.55 170.95 230.5 179.8 231.25 186.75 229.7 193.65 L229.55 205.85 Q229.6 210.5 231.0 215.15" fill="none" stroke="#000000" stroke-linecap="round" stroke-linejoin="round" stroke-width="1.0"/>
  </g>
</svg>
