<?xml version="1.0" encoding="UTF-8" standalone="no"?>
<svg xmlns:xlink="http://www.w3.org/1999/xlink" height="70.55px" width="57.45px" xmlns="http://www.w3.org/2000/svg">
  <g transform="matrix(1.0, 0.0, 0.0, 1.0, -191.15, -218.35)">
    <path d="M199.6 219.35 Q235.4 229.7 243.8 221.0 L245.4 225.35 234.15 237.25 223.8 237.15 Q220.8 233.35 215.95 230.0 206.4 223.3 196.9 223.4 M246.5 249.85 L246.2 251.15 245.0 255.35 Q235.8 254.95 224.7 260.4 208.45 249.65 192.15 251.15 M192.55 235.4 Q209.7 234.4 226.85 247.75 L226.9 247.75 247.55 237.05 M192.65 267.05 Q207.05 266.45 221.45 275.2 231.5 270.6 239.75 271.0 L237.4 277.25 235.9 280.9 234.5 284.3 M233.6 286.4 Q225.75 285.35 217.9 288.4 L217.85 288.4 Q206.85 282.85 195.85 282.3 L197.2 275.7 193.05 273.6 M224.7 260.4 L226.85 247.75 M221.45 275.2 L217.9 288.4" fill="none" stroke="#000000" stroke-linecap="round" stroke-linejoin="round" stroke-width="1.0"/>
    <path d="M196.9 223.4 Q198.1 221.35 199.6 219.35 M247.55 237.05 Q247.75 240.65 247.4 244.3 L246.5 249.85 M192.15 251.15 Q192.1 245.05 192.2 239.0 L192.55 235.4 M193.05 273.6 L192.65 267.05 M234.5 284.3 L233.6 286.4" fill="none" stroke="#000000" stroke-linecap="round" stroke-linejoin="round" stroke-width="2.0"/>
  </g>
</svg>
