<?xml version="1.0" encoding="UTF-8" standalone="no"?>
<svg xmlns:xlink="http://www.w3.org/1999/xlink" height="103.25px" width="45.55px" xmlns="http://www.w3.org/2000/svg">
  <g transform="matrix(1.0, 0.0, 0.0, 1.0, -178.55, -361.4)">
    <path d="M198.05 363.4 L197.35 370.0 191.85 369.4 192.15 362.65 M184.35 370.0 L189.45 369.4 189.45 375.3 191.55 375.3 196.75 375.85 198.45 376.2 199.5 370.6 202.65 371.8 Q206.5 370.6 210.0 370.15 L209.0 375.95 210.65 375.85 215.55 376.15 216.85 376.35 M217.9 362.45 L216.6 369.95 Q214.25 369.75 211.7 369.95 L212.9 362.9 M213.6 387.5 L213.6 387.45" fill="none" stroke="#000000" stroke-linecap="round" stroke-linejoin="round" stroke-width="1.0"/>
    <path d="M184.05 363.3 L184.35 370.0 187.0 426.7 179.55 447.7 Q180.1 455.65 185.65 463.65 L194.65 453.45 193.2 427.1 198.25 397.65 Q200.5 411.85 198.0 426.05 196.35 430.4 195.7 434.8 L201.2 437.5 Q204.95 442.75 204.9 448.7 214.0 455.95 223.1 456.5 L209.2 430.7 Q208.15 407.95 213.6 387.5 M213.6 387.45 Q214.85 382.6 216.5 377.95 L216.85 376.35 220.0 362.4" fill="none" stroke="#000000" stroke-linecap="round" stroke-linejoin="round" stroke-width="2.0"/>
    <path d="M192.15 362.65 L184.05 363.3 M202.65 371.8 L203.75 365.15 Q200.9 364.0 198.05 363.4 M212.9 362.9 Q208.35 363.55 203.8 365.15 L203.75 365.15 M220.0 362.4 L217.9 362.45 M202.65 371.8 L198.25 397.65" fill="none" stroke="#000000" stroke-linecap="round" stroke-linejoin="round" stroke-width="1.0"/>
  </g>
</svg>
