<?xml version="1.0" encoding="UTF-8" standalone="no"?>
<svg xmlns:xlink="http://www.w3.org/1999/xlink" height="151.9px" width="34.0px" xmlns="http://www.w3.org/2000/svg">
  <g transform="matrix(1.0, 0.0, 0.0, 1.0, -193.7, -304.6)">
    <path d="M223.75 319.8 Q227.85 329.8 227.7 343.55 225.5 343.75 223.9 345.2 223.3 345.7 222.8 346.35 L222.15 347.4 Q221.15 353.05 220.85 358.8 220.4 366.35 221.2 373.9 210.35 400.25 211.3 426.55 214.25 426.6 217.65 427.95 L212.65 437.1 223.1 456.5 221.15 456.3 Q216.55 455.65 212.0 453.35 208.45 451.5 204.9 448.7 L204.7 445.95 Q204.3 443.15 203.0 440.5 L202.95 440.4 196.0 435.0 193.7 433.4 195.85 427.05 197.15 428.45 198.0 426.05 Q200.1 414.15 198.85 402.25 L198.25 397.65 202.7 371.35 202.9 371.4 202.85 371.3 Q207.95 369.2 210.75 363.3 213.2 358.0 213.85 349.75 L212.7 348.15 Q210.9 346.3 207.6 345.8 L207.05 345.9 207.15 345.4 207.25 322.15 209.2 319.85 210.15 318.7 210.35 318.4 211.0 317.65 210.8 316.5 215.5 304.6 221.85 305.2 224.45 318.1 223.75 319.8" fill="#000000" fill-rule="evenodd" stroke="none"/>
  </g>
</svg>
