<?xml version="1.0" encoding="UTF-8" standalone="no"?>
<svg xmlns:xlink="http://www.w3.org/1999/xlink" height="29.05px" width="29.05px" xmlns="http://www.w3.org/2000/svg">
  <g transform="matrix(1.0, 0.0, 0.0, 1.0, -175.65, -361.45)">
    <path d="M184.05 362.9 L185.35 362.5 187.95 361.9 Q195.1 360.6 202.25 362.9 L202.3 362.9 Q203.6 363.75 203.95 365.1 L204.05 365.5 Q205.2 371.1 204.25 379.45 203.65 376.3 202.85 375.6 L201.45 386.55 199.95 382.4 Q200.1 383.9 199.85 385.45 L199.35 387.2 199.3 387.45 198.9 388.35 198.65 388.8 196.75 381.3 Q197.15 384.7 196.0 388.0 L195.1 390.25 194.8 388.25 Q194.05 384.6 191.55 380.75 190.45 384.3 190.8 388.7 L191.0 390.5 190.25 389.6 189.65 388.8 189.5 388.6 188.65 387.4 Q186.9 384.8 185.95 382.4 L185.9 382.35 185.85 382.25 185.8 382.4 Q185.2 385.5 185.95 388.65 L185.2 388.0 185.2 387.95 184.65 387.4 Q183.25 385.9 182.6 384.1 182.15 383.0 182.0 381.85 180.6 384.6 180.55 387.6 178.35 381.5 178.05 375.35 176.45 376.7 175.65 379.1 175.85 372.0 178.65 365.95 179.4 364.55 180.75 364.15 L184.05 362.9" fill="#000000" fill-rule="evenodd" stroke="none"/>
  </g>
</svg>
