<?xml version="1.0" encoding="UTF-8" standalone="no"?>
<svg xmlns:xlink="http://www.w3.org/1999/xlink" height="29.25px" width="25.3px" xmlns="http://www.w3.org/2000/svg">
  <g transform="matrix(1.0, 0.0, 0.0, 1.0, -200.55, -360.75)">
    <path d="M200.55 384.1 L204.25 362.45 208.45 361.55 210.3 361.25 210.4 361.25 Q216.4 360.35 220.3 361.05 L222.8 361.75 Q224.25 362.25 224.45 363.8 226.35 370.45 225.7 378.6 L224.1 375.95 224.05 375.95 Q223.7 381.2 222.6 385.75 L221.55 389.3 Q221.85 387.6 221.75 385.9 L221.2 382.7 220.35 386.2 218.45 390.0 218.8 386.45 Q218.95 384.0 218.75 381.6 L218.3 383.25 217.7 384.7 216.55 386.7 214.3 389.55 214.3 386.9 214.05 385.85 Q213.55 384.5 212.45 384.1 211.55 385.45 211.1 386.95 210.7 388.25 210.65 389.65 L210.4 389.2 209.2 387.0 Q207.65 383.65 207.8 380.55 L207.8 380.35 207.5 382.35 207.4 383.35 Q207.15 386.2 207.5 389.2 L206.4 386.65 Q205.6 384.55 205.15 382.35 L204.35 384.05 204.05 385.65 204.0 386.25 204.15 387.75 203.65 387.4 203.1 386.75 203.05 386.7 202.6 385.95 Q202.1 384.9 201.85 383.35 L201.45 386.55 200.55 384.1" fill="#000000" fill-rule="evenodd" stroke="none"/>
  </g>
</svg>
