<?xml version="1.0" encoding="UTF-8" standalone="no"?>
<svg xmlns:xlink="http://www.w3.org/1999/xlink" height="30.15px" width="29.4px" xmlns="http://www.w3.org/2000/svg">
  <g transform="matrix(1.0, 0.0, 0.0, 1.0, -194.7, -427.35)">
    <path d="M197.2 428.35 Q200.0 429.3 201.4 431.9 L205.8 439.6 206.75 441.0 Q210.1 445.05 218.05 447.1 M199.25 445.15 L201.2 437.5 195.7 434.8 M203.2 440.9 Q202.4 439.15 201.2 437.5" fill="none" stroke="#000000" stroke-linecap="round" stroke-linejoin="round" stroke-width="1.0"/>
    <path d="M218.05 447.1 L223.1 456.5 222.55 456.45 218.8 455.85 217.9 455.65 Q211.4 453.85 204.9 448.7 204.95 444.65 203.2 440.9 L201.7 445.15 199.25 445.15 196.25 443.5 195.7 434.8 Q196.15 431.55 197.2 428.35" fill="none" stroke="#000000" stroke-linecap="round" stroke-linejoin="round" stroke-width="2.0"/>
  </g>
</svg>
