<?xml version="1.0" encoding="UTF-8" standalone="no"?>
<svg xmlns:xlink="http://www.w3.org/1999/xlink" height="58.6px" width="62.0px" xmlns="http://www.w3.org/2000/svg">
  <g transform="matrix(1.0, 0.0, 0.0, 1.0, -186.65, -226.7)">
    <path d="M194.65 227.9 L192.0 236.4 196.2 239.15 192.65 238.85 192.65 249.75 198.55 250.9 201.45 251.45 Q201.1 253.75 199.65 253.8 L192.35 253.95 192.2 253.95 Q188.55 254.05 188.5 250.3 L188.15 235.4 187.65 233.65 Q188.25 229.75 190.95 227.75 L190.95 227.7 194.65 227.9 M192.65 238.85 L189.1 238.55 188.15 235.4 189.1 238.55 192.65 238.85 M192.55 258.1 L192.9 269.15 189.55 268.65 188.7 265.5 189.55 268.65 192.9 269.15 193.05 273.45 188.95 271.2 188.7 265.5 188.25 263.8 Q188.6 259.9 190.85 257.95 L192.55 258.1" fill="#000000" fill-opacity="0.2509804" fill-rule="evenodd" stroke="none"/>
    <path d="M246.55 229.75 L243.5 229.45 242.85 252.4 245.3 254.35 M247.65 239.3 L244.85 235.35 M196.2 239.15 L198.65 234.5 200.2 231.8 M201.45 251.45 L201.55 250.55 201.9 228.2 194.65 227.9 M196.2 239.15 L192.65 238.85 189.1 238.55 188.15 235.4 M198.55 250.9 L198.65 234.5 M197.05 284.2 L198.7 284.2 Q200.15 284.2 200.2 281.0 L200.0 258.75 192.55 258.1 M192.9 269.15 L195.5 269.5 197.45 264.95 198.6 262.25 M192.35 253.95 L199.65 253.8 Q201.1 253.75 201.45 251.45 M188.7 265.5 L189.55 268.65 192.9 269.15 M197.45 264.95 L197.75 281.2 M243.7 259.5 L241.55 259.5 239.55 265.2 240.9 267.85 M234.5 284.3 L233.2 283.4 239.55 265.2" fill="none" stroke="#000000" stroke-linecap="round" stroke-linejoin="round" stroke-width="1.0"/>
    <path d="M245.3 254.35 L246.2 251.15 246.5 249.85 247.4 244.3 247.65 239.3 Q247.6 234.5 246.55 229.75 M194.65 227.9 L190.95 227.7 190.95 227.75 Q188.25 229.75 187.65 233.65 L188.15 235.4 188.5 250.3 Q188.55 254.05 192.2 253.95 L192.35 253.95 M192.55 258.1 L190.85 257.95 Q188.6 259.9 188.25 263.8 L188.7 265.5 188.95 271.2 193.05 273.45 197.2 275.7 195.8 282.4 197.05 284.2 M240.9 267.85 L243.7 259.5 M240.9 267.85 L237.4 277.25 234.5 284.3" fill="none" stroke="#000000" stroke-linecap="round" stroke-linejoin="round" stroke-width="2.0"/>
  </g>
</svg>
