<?xml version="1.0" encoding="UTF-8" standalone="no"?>
<svg xmlns:xlink="http://www.w3.org/1999/xlink" height="31.05px" width="83.7px" xmlns="http://www.w3.org/2000/svg">
  <g transform="matrix(1.0, 0.0, 0.0, 1.0, -172.05, -258.65)">
    <path d="M183.15 263.85 Q184.45 265.6 182.5 267.35 L197.2 275.7 193.45 278.8 193.05 283.2 190.9 286.55 189.9 287.8 189.6 288.05 189.2 288.3 188.7 288.6 Q187.5 289.4 186.2 289.65 L186.15 289.65 184.1 289.65 Q182.5 289.35 180.75 288.35 L172.95 286.05 Q173.85 278.75 175.45 270.1 172.65 269.85 172.85 267.0 171.15 266.15 173.15 264.4 177.2 264.2 181.85 261.2 L181.9 261.15 Q183.8 260.75 183.15 263.85 M246.3 265.55 L255.75 274.95 Q252.05 274.85 248.7 276.55 L248.25 280.3 244.65 280.6 Q243.4 278.45 241.15 279.4 L240.4 278.55 240.4 278.35 240.35 278.5 239.6 278.05 237.9 277.9 237.4 277.25 241.7 265.55 243.9 259.0 246.35 258.65 Q248.15 259.3 247.5 262.05 248.2 265.0 246.3 265.55" fill="#000000" fill-rule="evenodd" stroke="none"/>
  </g>
</svg>
