<?xml version="1.0" encoding="UTF-8" standalone="no"?>
<svg xmlns:xlink="http://www.w3.org/1999/xlink" height="10.8px" width="82.75px" xmlns="http://www.w3.org/2000/svg">
  <g transform="matrix(1.0, 0.0, 0.0, 1.0, -167.75, -254.55)">
    <path d="M245.1 254.95 L245.75 255.0 248.45 254.85 250.5 254.55 Q249.25 257.6 248.65 259.8 L248.2 261.3 248.15 261.3 246.15 261.5 243.75 261.6 243.05 261.55 245.1 254.95 M182.45 262.6 L182.0 262.9 Q179.7 264.15 177.15 264.75 L174.15 265.25 173.5 265.3 171.5 265.35 169.75 263.0 167.75 259.95 170.75 259.95 171.45 259.95 174.3 259.6 Q178.5 258.95 181.5 257.15 L181.75 256.95 Q181.95 259.8 182.45 262.6" fill="#000000" fill-rule="evenodd" stroke="none"/>
  </g>
</svg>
