<?xml version="1.0" encoding="UTF-8" standalone="no"?>
<svg xmlns:xlink="http://www.w3.org/1999/xlink" height="22.9px" width="91.25px" xmlns="http://www.w3.org/2000/svg">
  <g transform="matrix(1.0, 0.0, 0.0, 1.0, -163.15, -248.2)">
    <path d="M171.5 265.35 L173.5 265.3 174.15 265.25 177.15 264.75 Q179.7 264.15 182.0 262.9 L182.45 262.6 182.0 262.9 Q179.7 264.15 177.15 264.75 L174.15 265.25 173.5 265.3 171.5 265.35 169.75 263.0 167.75 259.95 170.75 259.95 171.45 259.95 174.3 259.6 Q178.5 258.95 181.5 257.15 L181.75 256.95 181.5 257.15 Q178.5 258.95 174.3 259.6 L171.45 259.95 170.75 259.95 167.75 259.95 167.7 259.95 166.4 259.65 164.15 255.35 164.75 254.4 168.2 254.55 169.5 254.5 172.0 254.3 Q176.65 253.7 181.15 251.75 L181.65 251.55 181.65 251.5 182.45 252.4 182.45 256.0 181.8 256.95 181.75 256.95 Q181.95 259.8 182.45 262.6 L183.4 263.2 184.0 266.85 183.5 267.5 Q181.55 269.25 179.3 269.85 L177.35 270.2 175.45 270.1 174.2 269.95 171.05 266.3 171.5 265.35" fill="url(#gradient0)" fill-rule="evenodd" stroke="none"/>
    <path d="M246.5 249.85 L246.6 249.4 247.45 249.4 250.4 249.35 252.8 249.2 253.4 250.0 251.7 253.8 250.5 254.55 Q249.25 257.6 248.65 259.8 L248.2 261.3 248.15 261.3 248.2 261.35 248.75 262.1 Q248.25 263.75 247.9 265.4 L246.8 266.1 244.45 266.45 242.25 266.5 241.4 266.45 243.05 261.55 245.1 254.95 246.2 251.15 246.5 249.85 M245.1 254.95 L245.75 255.0 248.45 254.85 250.5 254.55 248.45 254.85 245.75 255.0 245.1 254.95 M243.05 261.55 L243.75 261.6 246.15 261.5 248.15 261.3 246.15 261.5 243.75 261.6 243.05 261.55" fill="url(#gradient1)" fill-rule="evenodd" stroke="none"/>
    <path d="M246.8 266.1 L244.45 266.45 242.25 266.5 241.4 266.45 M250.5 254.55 L248.45 254.85 245.75 255.0 245.1 254.95 M248.15 261.3 L248.2 261.35 M248.15 261.3 L246.15 261.5 243.75 261.6 243.05 261.55 M182.45 262.6 L182.0 262.9 Q179.7 264.15 177.15 264.75 L174.15 265.25 173.5 265.3 171.5 265.35 M175.45 270.1 L177.35 270.2 179.3 269.85 Q181.55 269.25 183.5 267.5 M181.75 256.95 L181.5 257.15 Q178.5 258.95 174.3 259.6 L171.45 259.95 170.75 259.95 167.75 259.95 M169.5 254.5 L172.0 254.3 Q176.65 253.7 181.15 251.75 L181.65 251.55" fill="none" stroke="#000000" stroke-linecap="round" stroke-linejoin="round" stroke-width="1.0"/>
    <path d="M241.4 266.45 L243.05 261.55 245.1 254.95 246.2 251.15 246.5 249.85" fill="none" stroke="#000000" stroke-linecap="round" stroke-linejoin="round" stroke-width="1.0"/>
    <path d="M246.5 249.85 L246.6 249.4 247.45 249.4 250.4 249.35 252.8 249.2 253.4 250.0 251.7 253.8 250.5 254.55 Q249.25 257.6 248.65 259.8 L248.2 261.3 248.2 261.35 248.75 262.1 Q248.25 263.75 247.9 265.4 L246.8 266.1 M171.5 265.35 L171.05 266.3 174.2 269.95 175.45 270.1 M183.5 267.5 L184.0 266.85 183.4 263.2 182.45 262.6 Q181.95 259.8 181.75 256.95 L181.8 256.95 182.45 256.0 182.45 252.4 181.65 251.5 181.65 251.55 M167.75 259.95 L169.75 263.0 171.5 265.35 M167.75 259.95 L167.7 259.95 166.4 259.65 164.15 255.35 164.75 254.4 168.2 254.55 169.5 254.5" fill="none" stroke="#000000" stroke-linecap="round" stroke-linejoin="round" stroke-width="2.0"/>
    <path d="M244.45 266.45 L242.25 266.5 243.75 261.6 245.75 255.0 247.45 249.4 250.4 249.35 248.45 254.85 245.75 255.0 248.45 254.85 246.15 261.5 243.75 261.6 246.15 261.5 244.45 266.45 M177.15 264.75 L177.15 264.8 179.2 268.05 179.3 269.85 177.35 270.2 177.4 269.25 174.15 265.25 177.15 264.75 174.15 265.25 173.8 264.8 172.65 263.1 170.75 259.95 171.45 259.95 174.3 259.6 171.45 259.95 170.75 259.95 Q169.35 257.35 168.2 254.55 L169.5 254.5 172.0 254.3 Q173.0 256.95 174.3 259.6 175.55 262.2 177.15 264.75" fill="#ffffff" fill-opacity="0.2509804" fill-rule="evenodd" stroke="none"/>
    <path d="M246.8 266.1 L244.45 266.45 242.25 266.5 241.4 266.45 M246.6 249.4 L247.45 249.4 M248.45 254.85 L250.5 254.55 M245.75 255.0 L245.1 254.95 M245.75 255.0 L248.45 254.85 M246.15 261.5 L248.15 261.3 248.2 261.35 M243.75 261.6 L246.15 261.5 M243.75 261.6 L243.05 261.55 M182.45 262.6 L182.0 262.9 Q179.7 264.15 177.15 264.75 L174.15 265.25 173.5 265.3 171.5 265.35 M179.3 269.85 Q181.55 269.25 183.5 267.5 M181.75 256.95 L181.5 257.15 Q178.5 258.95 174.3 259.6 L171.45 259.95 170.75 259.95 167.75 259.95 M177.35 270.2 L179.3 269.85 M172.0 254.3 Q176.65 253.7 181.15 251.75 L181.65 251.55 M169.5 254.5 L172.0 254.3 M175.45 270.1 L177.35 270.2" fill="none" stroke="#000000" stroke-linecap="round" stroke-linejoin="round" stroke-width="1.0"/>
    <path d="M241.4 266.45 L243.05 261.55 245.1 254.95 246.2 251.15 246.5 249.85" fill="none" stroke="#000000" stroke-linecap="round" stroke-linejoin="round" stroke-width="1.0"/>
    <path d="M250.4 249.35 L252.8 249.2 253.4 250.0 251.7 253.8 250.5 254.55 Q249.25 257.6 248.65 259.8 L248.2 261.35 248.75 262.1 Q248.25 263.75 247.9 265.4 L246.8 266.1 M246.5 249.85 L246.6 249.4 M247.45 249.4 L250.4 249.35 M183.5 267.5 L184.0 266.85 183.4 263.2 182.45 262.6 Q181.95 259.8 181.75 256.95 L181.8 256.95 182.45 256.0 182.45 252.4 181.65 251.5 181.65 251.55 M171.5 265.35 L171.05 266.3 174.2 269.95 175.45 270.1 M168.2 254.55 L169.5 254.5 M171.5 265.35 L169.75 263.0 167.75 259.95 167.7 259.95 166.4 259.65 164.15 255.35 164.75 254.4 168.2 254.55" fill="none" stroke="#000000" stroke-linecap="round" stroke-linejoin="round" stroke-width="2.0"/>
  </g>
  <defs>
    <linearGradient gradientTransform="matrix(-0.0082, 0.0022, -0.0012, -0.0045, 174.15, 255.9)" gradientUnits="userSpaceOnUse" id="gradient0" spreadMethod="pad" x1="-819.2" x2="819.2">
      <stop offset="0.0" stop-color="#000000" stop-opacity="0.0"/>
      <stop offset="1.0" stop-color="#000000" stop-opacity="0.2509804"/>
    </linearGradient>
    <linearGradient gradientTransform="matrix(-0.0052, 0.0, 0.0, -0.0038, 246.95, 251.85)" gradientUnits="userSpaceOnUse" id="gradient1" spreadMethod="pad" x1="-819.2" x2="819.2">
      <stop offset="0.0" stop-color="#000000" stop-opacity="0.0"/>
      <stop offset="1.0" stop-color="#000000" stop-opacity="0.2509804"/>
    </linearGradient>
  </defs>
</svg>
