<?xml version="1.0" encoding="UTF-8" standalone="no"?>
<svg xmlns:xlink="http://www.w3.org/1999/xlink" height="47.9px" width="86.55px" xmlns="http://www.w3.org/2000/svg">
  <g transform="matrix(1.0, 0.0, 0.0, 1.0, -162.3, -143.2)">
    <path d="M213.4 147.05 L215.05 147.75 Q224.55 151.7 240.45 154.45 242.2 158.9 243.15 165.1 245.05 167.25 245.7 169.95 246.85 174.55 247.4 179.15 L247.65 181.6 247.8 184.05 247.85 186.75 245.2 187.75 244.15 188.05 M188.6 186.95 L188.75 189.75 186.2 189.6 183.75 189.45 183.65 189.45 M165.95 188.1 L163.3 187.85 163.3 185.15 163.35 182.75 163.4 180.5 Q163.9 170.3 166.4 161.0 184.05 153.85 194.05 145.85 L196.05 144.2" fill="none" stroke="#000000" stroke-linecap="round" stroke-linejoin="round" stroke-width="2.0"/>
    <path d="M244.15 188.05 L243.1 188.35 242.75 182.5 234.8 183.5 235.05 189.7 233.1 189.9 225.4 190.45 223.35 190.5 222.7 184.25 218.85 184.4 215.05 184.45 211.75 184.5 212.4 190.6 210.35 190.6 203.75 190.45 200.45 190.3 198.45 190.25 197.9 184.35 188.4 184.05 188.6 186.95 M183.65 189.45 L176.9 188.95 174.7 188.8 174.7 183.45 171.75 183.3 166.35 182.95 166.0 188.1 165.95 188.1 M196.05 144.2 L199.3 146.55 Q209.6 153.45 213.55 148.95 L213.4 147.05 M243.15 165.1 Q240.8 162.4 236.5 160.55" fill="none" stroke="#000000" stroke-linecap="round" stroke-linejoin="round" stroke-width="1.0"/>
    <path d="M163.4 180.5 L166.5 180.65 171.75 180.9 174.7 181.0 176.9 181.05 176.9 186.15 184.4 186.6 186.0 186.7 185.65 181.35 188.25 181.4 197.6 181.55 199.8 181.55 200.25 187.3 201.65 187.35 204.7 187.45 210.05 187.55 209.45 181.55 211.45 181.5 221.05 181.3 221.65 181.25 222.35 181.25 224.55 181.15 225.15 187.35 233.0 186.9 232.75 180.7 234.65 180.55 242.55 179.8 244.35 179.55 244.9 185.0 247.8 184.05 M215.05 147.75 Q216.75 152.45 210.8 153.3 203.9 153.95 197.45 148.9 L194.05 145.85" fill="none" stroke="#000000" stroke-linecap="round" stroke-linejoin="round" stroke-opacity="0.5019608" stroke-width="1.0"/>
  </g>
</svg>
