<?xml version="1.0" encoding="UTF-8" standalone="no"?>
<svg xmlns:xlink="http://www.w3.org/1999/xlink" height="19.9px" width="27.55px" xmlns="http://www.w3.org/2000/svg">
  <g transform="matrix(1.0, 0.0, 0.0, 1.0, -190.6, -134.9)">
    <path d="M196.05 150.0 Q192.1 148.1 191.65 147.7 L191.6 147.65 Q192.75 136.0 196.85 135.9 L201.6 138.65 Q197.75 140.9 196.05 150.0" fill="#000000" fill-opacity="0.2509804" fill-rule="evenodd" stroke="none"/>
    <path d="M201.6 138.65 Q205.65 140.75 208.85 141.4 L211.4 141.7 Q213.6 141.7 215.25 140.8 M217.15 148.65 L217.1 150.15 Q217.0 152.5 214.7 153.6 213.45 154.2 211.6 154.3 L211.4 154.3 208.65 154.15 208.5 154.15 206.0 153.75 Q201.7 152.85 197.3 150.6 L196.05 150.0 Q192.1 148.1 191.65 147.7 L191.6 147.65 M196.85 135.9 L201.6 138.65" fill="none" stroke="#000000" stroke-linecap="round" stroke-linejoin="round" stroke-width="1.0"/>
    <path d="M215.25 140.8 Q217.3 142.4 217.15 148.6 L217.15 148.65 M191.6 147.65 Q192.75 136.0 196.85 135.9" fill="none" stroke="#000000" stroke-linecap="round" stroke-linejoin="round" stroke-width="2.0"/>
  </g>
</svg>
