<?xml version="1.0" encoding="UTF-8" standalone="no"?>
<svg xmlns:xlink="http://www.w3.org/1999/xlink" height="38.55px" width="88.2px" xmlns="http://www.w3.org/2000/svg">
  <g transform="matrix(1.0, 0.0, 0.0, 1.0, -137.85, -89.35)">
    <path d="M197.25 91.05 Q202.75 89.35 207.5 89.35 L210.15 89.4 Q225.15 90.8 226.05 105.0 L224.4 104.8 222.05 104.5 216.6 104.2 Q209.0 104.05 201.5 105.6 L198.0 106.4 197.6 106.5 Q193.4 107.65 189.45 109.65 L190.05 111.2 190.6 112.3 190.7 113.0 190.1 113.35 189.3 113.65 Q186.5 114.9 184.3 117.05 L183.25 118.3 Q180.8 121.3 179.4 124.55 177.2 127.95 174.2 127.9 L172.05 127.45 170.35 126.65 169.25 125.8 Q167.05 124.0 165.7 122.1 L165.6 121.9 Q161.4 117.15 152.4 117.5 158.3 110.65 166.4 117.5 172.25 122.75 177.1 117.5 180.25 113.7 183.25 112.45 L183.35 112.45 Q184.25 112.05 185.15 111.95 L183.25 111.9 Q180.5 111.7 177.95 110.8 166.0 106.55 159.9 110.25 156.3 106.65 151.95 104.35 148.25 102.35 144.05 101.35 L137.85 100.45 137.85 99.8 Q158.35 92.65 177.1 103.4 180.2 105.5 183.25 107.05 186.35 108.65 189.45 109.65 L189.45 109.5 189.35 109.15 Q188.15 102.45 188.1 98.6 188.05 95.45 186.1 93.75 187.35 93.0 188.6 92.5 191.65 91.2 194.6 91.0 L196.95 91.0 197.25 91.05" fill="#000000" fill-rule="evenodd" stroke="none"/>
  </g>
</svg>
