<?xml version="1.0" encoding="UTF-8" standalone="no"?>
<svg xmlns:xlink="http://www.w3.org/1999/xlink" height="36.75px" width="39.65px" xmlns="http://www.w3.org/2000/svg">
  <g transform="matrix(1.0, 0.0, 0.0, 1.0, -187.7, -85.1)">
    <path d="M193.15 95.45 L193.05 95.6 193.1 95.55 193.15 95.45 M201.9 89.2 L201.8 87.75 201.85 87.75 204.0 87.15 Q204.65 84.95 207.3 85.1 209.8 85.3 209.9 86.9 L212.9 87.55 212.95 89.2 Q214.75 89.6 216.55 90.3 L217.45 90.65 Q220.45 91.85 222.45 93.75 L223.55 94.9 223.8 95.25 224.0 95.5 224.9 97.05 225.3 97.95 Q226.0 99.9 226.2 101.6 L227.15 101.45 227.35 106.7 226.0 107.0 225.3 107.1 224.95 107.2 224.3 107.3 221.8 107.7 221.75 107.7 221.15 107.75 218.6 108.05 218.05 111.5 219.2 121.15 Q217.55 122.5 213.5 121.2 L213.7 111.9 212.4 108.25 203.25 107.9 199.65 107.6 199.6 107.65 198.45 107.5 194.45 107.05 194.35 107.05 190.95 106.55 189.75 106.35 187.7 106.05 188.1 101.05 188.9 101.2 189.3 99.55 189.3 99.5 189.45 99.05 Q189.85 97.85 191.05 95.75 193.3 92.25 197.7 90.4 199.8 89.6 201.9 89.2 M214.45 91.5 L214.45 91.6 214.55 91.65 214.45 91.5" fill="#000000" fill-rule="evenodd" stroke="none"/>
  </g>
</svg>
