<?xml version="1.0" encoding="UTF-8" standalone="no"?>
<svg xmlns:xlink="http://www.w3.org/1999/xlink" height="36.1px" width="39.9px" xmlns="http://www.w3.org/2000/svg">
  <g transform="matrix(1.0, 0.0, 0.0, 1.0, -189.05, -90.95)">
    <path d="M196.5 93.65 Q199.35 91.7 203.1 91.2 L206.85 91.0 209.75 91.2 215.2 92.35 Q225.15 95.75 225.85 106.55 L228.2 108.2 Q229.6 113.85 228.4 119.35 L225.35 121.55 225.95 118.75 226.05 118.55 225.9 118.6 227.0 117.75 Q227.7 113.95 227.0 109.9 L225.7 109.05 Q226.6 113.85 225.8 118.6 L225.75 118.6 225.7 118.7 225.1 121.6 225.1 121.7 225.05 121.7 224.15 122.4 224.1 122.45 217.7 127.05 219.45 123.15 219.45 123.05 219.55 123.0 222.9 120.8 223.45 115.5 223.5 115.1 223.55 112.65 223.4 108.5 223.3 107.75 221.6 107.5 220.1 107.35 220.1 107.9 220.25 109.95 220.25 114.45 219.95 118.9 219.8 120.15 219.3 123.0 219.25 123.0 219.3 123.0 217.6 127.05 211.6 124.6 212.4 122.35 215.85 123.5 216.75 119.95 217.05 118.2 Q217.75 113.15 217.4 108.0 L217.3 107.25 215.85 107.25 213.55 107.35 213.65 108.4 213.75 110.4 213.6 115.7 213.0 119.35 212.3 122.2 212.25 122.2 211.45 124.5 205.3 122.0 205.35 121.95 206.1 120.2 209.5 121.35 210.55 116.9 Q211.05 113.4 210.65 109.4 L210.6 108.9 210.5 108.1 207.1 109.35 207.1 109.5 207.15 109.6 Q207.6 113.7 206.75 117.5 L206.1 119.8 206.1 119.75 206.1 119.8 206.0 120.05 205.2 121.95 205.1 121.9 200.8 120.1 197.8 118.85 196.25 117.65 Q196.65 121.25 194.65 124.45 L193.0 124.5 192.7 124.45 192.45 124.4 Q191.2 124.05 190.65 123.05 189.7 121.25 189.25 118.45 188.45 114.1 190.6 113.0 L190.25 111.6 Q187.9 101.15 193.75 95.95 194.65 95.0 195.7 94.2 L196.5 93.65" fill="#000000" fill-rule="evenodd" stroke="none"/>
  </g>
</svg>
