<?xml version="1.0" encoding="UTF-8" standalone="no"?>
<svg xmlns:xlink="http://www.w3.org/1999/xlink" height="24.45px" width="30.95px" xmlns="http://www.w3.org/2000/svg">
  <g transform="matrix(1.0, 0.0, 0.0, 1.0, -196.5, -96.15)">
    <path d="M226.3 107.4 Q227.45 109.45 227.45 112.1 227.45 115.6 225.45 118.05 L224.5 119.1 223.3 119.9 Q222.05 120.55 220.65 120.55 217.8 120.55 215.8 118.05 215.0 117.1 214.55 116.0 L214.35 115.5 Q213.55 120.1 206.2 120.55 L203.85 120.6 Q201.0 120.3 198.95 118.15 196.5 115.7 196.5 112.2 196.5 108.7 198.95 106.2 L200.1 105.25 Q198.85 98.35 205.85 96.15 202.9 100.6 205.9 103.8 L206.9 103.95 Q211.05 104.65 214.3 108.85 214.8 107.3 215.8 106.1 217.35 104.15 219.45 103.75 220.6 100.0 218.15 96.35 221.8 97.95 222.65 103.95 L224.0 104.7 225.45 106.1 226.2 107.2 226.3 107.4" fill="#000000" fill-rule="evenodd" stroke="none"/>
  </g>
</svg>
