<?xml version="1.0" encoding="UTF-8" standalone="no"?>
<svg xmlns:xlink="http://www.w3.org/1999/xlink" height="27.45px" width="48.85px" xmlns="http://www.w3.org/2000/svg">
  <g transform="matrix(1.0, 0.0, 0.0, 1.0, -152.05, -270.4)">
    <path d="M156.95 276.0 L157.3 278.4 Q158.0 282.45 159.05 283.3 157.55 284.2 157.4 286.15 L157.5 287.15 Q157.6 288.1 156.25 287.65 153.1 284.65 152.3 278.6 151.95 275.95 152.05 272.75 152.2 269.7 154.6 270.65 L157.65 271.5 Q156.55 271.8 156.95 276.0 M198.5 280.15 L199.4 279.0 199.65 278.75 Q200.8 277.55 200.9 279.0 L200.6 282.05 Q200.05 284.8 198.8 287.95 197.15 292.3 194.2 297.4 192.8 298.65 192.9 296.45 L192.95 295.65 193.55 292.15 Q194.2 289.0 195.2 286.4 196.55 282.8 198.5 280.15" fill="#000000" fill-rule="evenodd" stroke="none"/>
  </g>
</svg>
