<?xml version="1.0" encoding="UTF-8" standalone="no"?>
<svg xmlns:xlink="http://www.w3.org/1999/xlink" height="97.7px" width="234.65px" xmlns="http://www.w3.org/2000/svg">
  <g transform="matrix(1.0, 0.0, 0.0, 1.0, -155.35, -271.1)">
    <path d="M330.3 338.75 L336.15 341.55 339.2 343.05 349.6 348.2 350.05 348.4 Q369.45 358.05 390.0 368.8 369.55 369.15 333.85 351.85 L325.55 347.65 322.5 346.1 318.55 344.15 314.85 342.35 Q302.65 336.5 290.25 331.1 L286.35 329.45 280.55 326.95 276.85 325.45 Q261.9 319.25 246.75 313.8 L242.65 312.35 231.05 308.3 227.55 307.15 Q214.2 302.7 200.6 298.8 L195.75 297.4 Q192.0 302.05 185.15 302.95 175.7 304.05 168.1 295.25 167.0 293.6 165.05 294.7 163.6 292.55 165.75 291.45 167.5 290.85 168.8 292.75 L170.6 295.2 Q176.45 301.9 184.4 300.95 190.7 300.15 194.05 295.6 196.4 292.2 194.65 290.0 L192.85 289.4 192.95 285.45 193.15 281.9 197.05 283.4 Q199.1 283.4 200.1 281.5 L202.35 276.15 Q203.3 274.25 205.25 274.75 207.2 275.45 206.25 278.15 204.25 277.15 203.65 278.9 L201.35 284.95 220.25 292.0 221.55 292.45 Q234.25 297.0 246.55 301.8 L249.75 303.05 257.5 306.15 261.4 307.7 Q272.5 312.2 283.2 316.95 L290.5 320.15 294.0 321.75 298.7 323.9 302.45 325.6 326.6 336.95 330.3 338.75 M155.8 274.85 Q158.35 268.7 168.3 272.65 L169.55 273.15 174.6 275.0 173.35 283.0 166.45 280.7 165.45 280.45 Q162.0 279.9 160.7 284.1 153.8 281.4 155.8 274.85" fill="#000000" fill-rule="evenodd" stroke="none"/>
  </g>
</svg>
