<?xml version="1.0" encoding="UTF-8" standalone="no"?>
<svg xmlns:xlink="http://www.w3.org/1999/xlink" height="241.1px" width="108.05px" xmlns="http://www.w3.org/2000/svg">
  <g transform="matrix(1.0, 0.0, 0.0, 1.0, -114.85, -134.85)">
    <path d="M177.65 161.7 Q190.8 172.25 203.2 190.35 206.0 194.55 207.8 199.95 L211.45 209.95 Q211.85 210.95 211.15 211.2 L209.65 211.75 Q208.55 212.1 208.15 210.65 L206.85 207.15 Q205.9 204.0 201.35 200.95 196.1 198.05 192.2 197.7 187.9 197.15 185.25 201.6 184.6 202.95 184.35 204.7 183.8 210.8 189.85 218.2 195.3 224.55 213.7 236.9 L219.55 308.25 222.8 364.65 Q223.25 375.2 221.2 375.9 219.15 376.7 212.75 368.35 L178.95 323.0 137.55 264.6 Q143.7 243.3 143.85 234.95 143.7 225.4 139.35 221.05 138.05 219.9 136.7 219.3 131.75 217.55 128.85 220.75 126.05 223.55 123.9 229.15 122.35 234.4 123.7 237.45 L124.95 240.95 Q125.55 242.3 124.5 242.75 L123.0 243.25 Q122.3 243.55 121.95 242.55 L118.3 232.5 Q116.2 227.25 115.75 222.2 113.55 200.4 116.85 183.85 118.1 177.3 120.25 171.55 121.95 166.95 124.3 162.85 L124.4 162.65 126.75 158.25 Q131.2 149.5 132.05 143.05 133.05 135.05 133.45 134.85 133.9 134.75 139.85 140.2 144.6 144.6 153.6 148.5 L158.3 150.3 158.5 150.4 Q162.85 152.05 167.15 154.5 172.45 157.5 177.65 161.7" fill="#000000" fill-rule="evenodd" stroke="none"/>
  </g>
</svg>
