<?xml version="1.0" encoding="UTF-8" standalone="no"?>
<svg xmlns:xlink="http://www.w3.org/1999/xlink" height="18.35px" width="51.55px" xmlns="http://www.w3.org/2000/svg">
  <g transform="matrix(1.0, 0.0, 0.0, 1.0, -176.1, -447.2)">
    <path d="M194.45 451.8 L194.6 452.5 Q195.35 455.8 193.85 457.2 L193.7 457.4 Q193.25 458.2 193.65 459.35 194.4 461.2 193.85 462.1 L192.85 463.7 Q192.25 464.75 191.25 464.5 L189.55 464.2 Q188.8 464.1 188.4 463.1 188.2 464.5 187.05 464.15 L186.3 463.95 Q185.55 463.65 185.3 462.45 185.1 464.15 183.6 463.55 L182.3 462.85 Q181.7 462.6 181.7 461.05 181.3 462.35 180.35 461.9 L179.35 461.25 Q178.9 460.9 178.7 460.3 176.7 459.45 177.2 457.15 L178.2 452.35 Q178.3 451.0 179.6 450.75 M219.25 448.2 L220.55 448.5 Q221.3 448.75 221.8 449.35 L224.35 450.05 225.2 451.65 M225.25 451.85 L225.8 452.1 226.0 452.25 Q226.95 453.0 226.55 454.65 226.3 456.25 224.85 455.95 L224.4 456.5 Q223.4 457.35 222.35 457.05 220.35 459.8 217.55 456.45 L213.35 453.9 Q210.45 454.7 207.6 450.95" fill="none" stroke="#000000" stroke-linecap="round" stroke-linejoin="round" stroke-width="2.0"/>
    <path d="M179.6 450.75 L179.8 450.55 180.6 450.3 181.25 449.05 M185.3 462.45 Q185.15 461.7 185.25 460.45 L186.0 454.55 186.55 453.45 186.65 453.45 186.65 453.4 186.95 452.95 Q187.45 452.0 187.45 450.6 M186.65 453.45 L186.7 453.45 186.9 453.25 187.95 452.7 M184.8 451.4 L184.2 453.15 183.6 453.95 183.8 453.85 185.25 454.3 M181.7 461.05 L181.7 460.55 182.45 456.3 Q182.7 454.25 183.6 453.95 M189.65 453.6 Q190.5 452.5 192.3 454.1 M188.4 463.1 L188.25 462.65 188.15 462.05 185.5 461.45 186.15 459.4 Q187.15 459.0 188.0 459.7 L188.25 460.75 188.55 459.45 Q189.25 458.2 189.05 455.95 188.8 453.45 189.6 451.85 M188.15 462.05 L188.25 460.75 M189.3 459.1 Q191.0 458.5 192.7 459.6 L192.9 461.65 Q190.95 460.7 188.75 461.2 L189.3 459.1 M182.75 458.9 L182.0 460.65 Q183.45 460.55 184.75 461.55 L184.5 459.5 Q183.75 458.95 182.75 458.9 M178.7 460.3 L178.75 458.6 Q178.25 457.8 177.35 457.7 L177.95 456.6 Q178.7 456.55 178.95 457.35 L179.85 452.9 Q180.05 452.4 180.55 452.6 181.6 452.15 182.0 450.65 M180.55 452.6 L181.85 453.65 M181.25 458.85 Q180.5 457.5 179.55 457.6 L178.9 458.9 Q180.4 459.2 181.4 460.4 L181.25 458.85 M178.75 458.6 L178.75 458.4 178.95 457.35 M225.2 451.65 L225.25 451.85 225.15 451.8 222.4 450.6 221.8 449.35 M226.0 452.25 L225.65 453.7 224.9 452.7 225.15 451.8 225.2 451.65 M222.8 453.65 L223.95 454.95 224.45 453.0 223.5 452.5 222.8 453.65 M222.35 457.05 L223.35 454.95 222.75 454.2 220.95 455.65 220.15 453.95 221.75 452.9 220.65 451.95 218.7 450.7 217.0 450.45 215.3 450.15 M224.85 455.95 Q225.55 454.75 224.45 453.0 M223.5 452.5 L221.9 451.65 Q220.25 449.6 218.05 449.7 M217.0 450.45 Q215.95 448.75 214.35 448.4 M222.75 454.2 L222.15 453.4 221.75 452.9" fill="none" stroke="#000000" stroke-linecap="round" stroke-linejoin="round" stroke-width="1.0"/>
  </g>
</svg>
