<?xml version="1.0" encoding="UTF-8" standalone="no"?>
<svg xmlns:xlink="http://www.w3.org/1999/xlink" height="23.85px" width="34.95px" xmlns="http://www.w3.org/2000/svg">
  <g transform="matrix(1.0, 0.0, 0.0, 1.0, -206.25, -154.9)">
    <path d="M234.65 161.3 L236.75 161.45 Q239.4 163.85 240.3 166.8 L240.6 167.95 238.9 167.65 238.65 166.8 238.35 165.95 Q237.25 163.35 234.65 161.3 237.25 163.35 238.35 165.95 L238.65 166.8 238.9 167.65 229.5 166.65 229.2 165.95 238.35 165.95 229.2 165.95 229.5 166.65 Q224.9 166.35 220.4 166.5 L220.15 165.95 208.6 165.95 Q208.05 163.45 209.35 161.4 208.05 163.45 208.6 165.95 L220.15 165.95 220.4 166.5 209.05 167.6 207.5 167.85 207.1 166.8 Q206.25 163.9 207.35 161.55 L209.35 161.4 Q222.2 160.5 234.65 161.3 M208.6 165.95 L208.8 166.8 209.05 167.6 208.8 166.8 208.6 165.95" fill="#ffffff" fill-opacity="0.2509804" fill-rule="evenodd" stroke="none"/>
    <path d="M209.35 161.4 Q209.95 160.4 210.95 159.55 L211.35 159.25 Q212.5 158.3 214.0 157.7 216.75 156.55 220.6 156.55 L222.95 156.65 Q227.45 157.1 231.5 159.25 L232.05 159.55 234.65 161.3 Q237.25 163.35 238.35 165.95 L238.65 166.8 238.9 167.65 Q239.6 171.35 236.5 174.05 234.65 175.65 232.1 176.4 L226.85 177.1 223.4 176.85 Q219.15 176.2 215.4 174.05 210.55 171.35 209.05 167.6 L208.8 166.8 208.6 165.95 220.15 165.95 220.4 166.5 Q222.5 171.05 223.4 176.85 M236.75 161.45 Q235.2 160.0 233.0 158.75 227.1 155.4 220.25 155.4 215.95 155.4 212.85 156.7 210.95 157.5 209.55 158.75 208.05 160.05 207.35 161.55 206.25 163.9 207.1 166.8 L207.5 167.85 Q209.2 171.9 214.45 174.9 218.75 177.3 223.55 178.0 L227.2 178.25 232.2 177.7 Q235.6 176.9 237.9 174.9 241.25 171.95 240.6 167.95 L240.3 166.8 Q239.4 163.85 236.75 161.45 M229.5 166.65 L229.2 165.95 238.35 165.95 M209.35 161.4 Q208.05 163.45 208.6 165.95 M229.5 166.65 Q231.4 171.15 232.1 176.4 M211.35 159.25 L231.5 159.25" fill="none" stroke="#000000" stroke-linecap="round" stroke-linejoin="round" stroke-width="1.0"/>
  </g>
</svg>
