<?xml version="1.0" encoding="UTF-8" standalone="no"?>
<svg xmlns:xlink="http://www.w3.org/1999/xlink" height="18.7px" width="19.3px" xmlns="http://www.w3.org/2000/svg">
  <g transform="matrix(1.0, 0.0, 0.0, 1.0, -218.05, -163.8)">
    <path d="M224.5 171.15 Q224.95 173.4 226.0 174.2 227.05 175.0 228.6 175.0 230.15 175.0 230.8 174.35 231.45 173.7 231.6 172.3 L237.35 173.5 Q237.15 175.3 236.25 176.4 235.35 177.5 233.75 178.05 L231.25 178.6 231.85 178.85 Q232.9 179.45 233.05 180.3 233.15 180.8 232.85 181.35 232.55 181.85 231.6 182.2 L228.95 182.5 225.2 182.2 224.9 180.7 228.0 180.9 229.3 180.7 229.5 180.3 229.2 179.95 228.35 179.8 226.0 179.95 226.15 178.5 226.5 178.45 224.45 177.95 Q222.3 177.25 220.55 175.55 218.75 173.85 218.2 171.2 217.5 167.65 219.65 165.7 221.8 163.8 226.4 163.8 230.0 163.8 232.3 164.9 234.6 166.0 236.15 168.5 L230.8 169.4 230.25 168.45 Q229.5 167.9 228.75 167.65 L227.3 167.4 Q225.5 167.4 224.7 168.5 224.15 169.35 224.5 171.15" fill="#000000" fill-rule="evenodd" stroke="none"/>
  </g>
</svg>
