<?xml version="1.0" encoding="UTF-8" standalone="no"?>
<svg xmlns:xlink="http://www.w3.org/1999/xlink" height="98.2px" width="111.25px" xmlns="http://www.w3.org/2000/svg">
  <g transform="matrix(1.0, 0.0, 0.0, 1.0, -157.25, -208.15)">
    <path d="M240.3 285.65 Q240.6 285.5 240.9 285.65 L241.3 286.1 241.3 286.7 Q240.85 287.6 240.4 287.65 L239.6 287.6 235.45 289.35 239.6 298.5 223.65 300.35 235.95 297.35 233.5 288.45 240.15 285.6 240.2 285.65 240.3 285.65 M233.9 279.85 L233.3 279.85 232.85 279.4 232.5 278.65 232.5 278.6 231.1 274.45 225.3 278.9 231.9 271.8 234.0 278.0 234.35 278.75 234.35 279.35 233.9 279.85 M236.05 271.35 L236.15 271.95 235.8 272.45 235.2 272.55 234.7 272.2 231.05 265.85 236.05 271.35 M196.65 287.75 L193.45 287.75 Q193.15 287.7 192.9 287.5 L192.65 286.95 Q192.65 286.6 192.9 286.35 193.15 286.1 193.45 286.15 L198.55 286.15 197.75 293.35 206.15 294.15 206.15 301.1 204.55 295.75 194.55 295.75 196.65 287.75 M183.9 286.55 L184.3 287.05 184.2 287.65 180.15 294.4 187.4 292.95 184.8 305.1 184.8 296.0 177.3 296.0 182.8 286.85 183.3 286.45 183.9 286.55 M195.95 277.65 L193.55 276.4 193.2 275.95 Q193.05 275.6 193.25 275.3 L193.7 274.95 194.3 275.0 197.05 276.45 201.85 282.8 207.8 272.6 216.3 284.15 208.0 277.25 202.0 285.7 195.95 277.65 M172.9 280.95 Q172.8 280.6 173.0 280.35 173.15 280.0 173.45 279.95 L174.05 280.05 174.45 280.55 177.2 291.3 169.65 291.3 169.65 295.6 161.35 299.95 168.05 294.8 166.9 288.75 175.15 289.7 172.9 280.95 M174.5 272.5 Q174.8 272.45 175.05 272.7 175.3 272.9 175.35 273.25 L175.15 273.8 168.55 282.55 160.4 274.7 168.35 279.05 173.95 272.75 Q174.15 272.5 174.5 272.5 M167.3 215.6 L166.2 221.4 169.65 223.35 165.75 231.6 168.1 234.65 168.15 234.7 170.05 238.95 173.85 232.4 176.4 234.8 180.4 224.55 177.25 236.65 174.7 235.05 171.1 240.3 170.75 240.6 Q172.6 244.8 175.3 249.0 L173.65 252.85 173.65 252.9 173.65 252.95 172.9 256.05 175.0 257.3 177.85 253.6 Q178.4 253.2 178.4 252.8 L178.35 252.5 178.5 252.25 179.9 250.2 180.0 249.2 Q179.9 248.8 180.2 248.8 180.55 248.75 180.8 249.0 L181.1 249.55 Q181.25 251.05 180.0 252.95 180.0 254.5 178.95 254.8 L176.4 258.1 180.2 260.1 Q179.35 260.65 178.3 262.05 L178.0 262.95 179.45 264.1 182.45 264.1 182.45 267.95 189.45 269.1 192.5 268.45 187.35 274.2 189.1 269.55 182.1 269.55 178.95 274.8 184.1 272.35 181.45 283.05 181.3 276.4 176.1 276.4 180.85 268.55 180.85 265.7 178.85 265.7 177.4 264.55 175.2 268.05 176.2 263.1 176.25 262.95 176.95 261.2 176.9 261.2 Q177.2 260.8 178.1 260.3 L174.85 259.05 174.8 259.0 174.75 258.95 170.4 257.25 171.95 253.1 163.85 247.9 172.3 251.45 172.8 249.15 169.8 242.4 169.75 242.35 166.75 235.55 164.2 232.2 164.15 232.1 158.5 224.95 164.65 230.15 167.6 224.05 163.4 223.1 164.6 216.6 157.25 208.15 167.3 215.6 M246.6 288.85 L243.05 293.75 249.3 297.05 242.8 306.35 246.8 297.95 241.45 293.25 245.3 287.9 Q245.5 287.65 245.8 287.6 L246.4 287.75 246.75 288.25 246.6 288.85 M255.45 278.6 L254.9 278.35 254.65 277.8 Q254.65 277.45 254.9 277.25 255.1 277.0 255.45 277.0 L263.9 274.75 261.1 284.95 266.1 284.95 268.5 293.8 265.1 286.55 256.15 288.75 262.15 276.55 255.45 278.6 M245.9 237.7 L245.9 240.25 247.85 244.4 245.1 247.1 245.1 248.4 Q247.0 249.7 246.65 251.0 L246.65 251.1 245.0 254.9 244.95 254.95 243.8 257.45 249.3 256.3 248.2 258.9 251.1 261.55 247.2 261.55 243.35 265.4 243.35 269.4 245.3 273.85 242.2 270.5 238.75 270.5 238.75 272.35 235.0 275.5 237.15 271.6 236.85 268.0 241.75 268.9 241.75 264.75 246.55 259.95 247.0 259.95 246.6 259.6 246.6 259.05 241.3 259.05 243.0 255.35 238.3 253.75 243.7 253.75 245.1 250.65 Q245.0 250.15 243.9 249.55 L243.5 249.3 243.5 247.0 240.5 242.15 240.5 237.95 250.9 215.9 242.1 237.75 242.1 241.7 244.4 245.5 245.9 244.05 244.3 240.6 244.3 235.95 250.15 237.05 257.05 222.15 251.3 240.5 245.9 237.7" fill="#000000" fill-rule="evenodd" stroke="none"/>
  </g>
</svg>
