<?xml version="1.0" encoding="UTF-8" standalone="no"?>
<svg xmlns:xlink="http://www.w3.org/1999/xlink" height="310.05px" width="216.5px" xmlns="http://www.w3.org/2000/svg">
  <g transform="matrix(1.0, 0.0, 0.0, 1.0, -291.65, -189.5)">
    <path d="M485.95 294.5 L488.5 305.8 490.8 316.45 Q494.2 333.05 497.0 349.95 L499.15 363.85 Q506.0 410.0 508.05 457.8 508.95 495.1 501.05 499.1 493.55 502.9 478.0 476.3 459.15 435.8 443.8 374.55 L443.3 370.55 Q433.95 321.15 399.9 321.6 365.85 321.15 356.5 370.55 L356.0 374.55 Q340.65 435.8 321.8 476.3 306.25 502.9 298.75 499.1 290.85 495.1 291.75 457.8 293.8 410.0 300.65 363.85 301.65 356.85 302.8 349.95 305.6 333.05 309.0 316.45 L311.3 305.8 Q312.5 300.1 313.85 294.5 316.25 284.2 321.4 271.7 337.5 232.7 356.7 211.6 377.95 188.15 399.9 189.6 421.85 188.15 443.1 211.6 462.3 232.7 478.4 271.7 483.55 284.2 485.95 294.5" fill="#000000" fill-rule="evenodd" stroke="none"/>
  </g>
</svg>
