<?xml version="1.0" encoding="UTF-8" standalone="no"?>
<svg xmlns:xlink="http://www.w3.org/1999/xlink" height="52.05px" width="36.9px" xmlns="http://www.w3.org/2000/svg">
  <g transform="matrix(1.0, 0.0, 0.0, 1.0, -381.45, -169.6)">
    <path d="M382.25 180.65 Q385.6 170.2 399.9 169.6 414.2 170.2 417.55 180.65 419.0 187.35 417.9 195.2 L417.45 198.0 417.15 199.4 417.0 200.05 417.0 200.1 414.1 210.65 412.85 211.95 410.2 214.45 Q406.7 217.75 401.9 221.15 L399.9 221.65 397.9 221.15 Q393.1 217.75 389.6 214.45 L386.95 211.95 385.7 210.65 382.8 200.1 382.8 200.05 382.65 199.4 382.35 198.0 381.9 195.2 Q380.8 187.35 382.25 180.65 M385.35 182.65 Q382.35 189.65 385.35 198.2 L388.35 202.15 388.35 211.0 395.2 216.45 396.55 215.1 403.25 215.1 404.6 216.45 411.4 211.0 411.4 202.15 414.4 198.2 Q417.4 189.65 414.4 182.65 407.5 181.35 399.9 181.3 392.3 181.35 385.35 182.65" fill="#000000" fill-rule="evenodd" stroke="none"/>
  </g>
</svg>
