<?xml version="1.0" encoding="UTF-8" standalone="no"?>
<svg xmlns:xlink="http://www.w3.org/1999/xlink" height="40.2px" width="39.1px" xmlns="http://www.w3.org/2000/svg">
  <g transform="matrix(1.0, 0.0, 0.0, 1.0, -380.25, -183.8)">
    <path d="M381.2 186.15 L381.1 190.9 381.1 191.15 381.1 191.35 381.3 195.45 381.5 197.05 Q380.1 202.4 381.3 209.6 383.7 215.25 388.7 219.5 393.15 223.25 399.8 223.5 406.45 223.25 410.9 219.5 415.9 215.25 418.3 209.6 418.85 206.4 418.85 203.6 L418.85 203.2 Q418.85 199.85 418.1 197.05 L418.3 195.45 418.5 191.35 418.5 191.15 418.5 190.9 418.45 186.15" fill="none" stroke="#000000" stroke-linecap="round" stroke-linejoin="round" stroke-width="1.0"/>
    <path d="M418.45 186.15 Q409.7 184.2 399.9 184.3 390.0 184.2 381.2 186.15 Z" fill="none" stroke="#000000" stroke-linecap="round" stroke-linejoin="round" stroke-opacity="0.5019608" stroke-width="1.0"/>
  </g>
</svg>
