<?xml version="1.0" encoding="UTF-8" standalone="no"?>
<svg xmlns:xlink="http://www.w3.org/1999/xlink" height="55.55px" width="38.15px" xmlns="http://www.w3.org/2000/svg">
  <g transform="matrix(1.0, 0.0, 0.0, 1.0, -380.85, -169.05)">
    <path d="M382.0 177.85 L382.8 176.75 Q389.0 169.5 399.8 169.55 M417.65 177.85 L417.75 178.0 Q418.45 182.1 418.5 190.9 L418.5 191.15 418.5 191.35 418.3 195.45 418.3 195.6 M413.7 209.55 Q411.5 214.05 409.0 217.85 L404.35 224.1 399.8 224.1 M385.9 209.55 L383.95 205.35 382.65 202.3 382.15 200.5 Q381.55 198.05 381.35 195.6" fill="none" stroke="#000000" stroke-linecap="round" stroke-linejoin="round" stroke-width="1.0"/>
    <path d="M399.8 169.55 L399.8 195.6 399.85 195.6 417.65 177.85 M418.3 195.6 L399.85 195.6 399.8 195.65 413.7 209.55 M399.8 224.1 L399.8 195.65 385.9 209.55 M381.35 195.6 L399.75 195.6 382.0 177.85 M399.75 195.6 L399.8 195.65 399.8 195.6 399.75 195.6" fill="none" stroke="#000000" stroke-linecap="round" stroke-linejoin="round" stroke-opacity="0.5019608" stroke-width="1.0"/>
  </g>
</svg>
