<?xml version="1.0" encoding="UTF-8" standalone="no"?>
<svg xmlns:xlink="http://www.w3.org/1999/xlink" height="47.5px" width="38.1px" xmlns="http://www.w3.org/2000/svg">
  <g transform="matrix(1.0, 0.0, 0.0, 1.0, -380.75, -176.0)">
    <path d="M381.85 178.05 Q390.3 175.9 399.85 176.0 409.4 175.9 417.75 178.05 418.45 182.15 418.5 190.9 L418.5 191.15 418.5 191.35 418.3 195.45 418.1 197.05 Q418.85 199.85 418.85 203.2 L418.85 203.6 Q418.85 206.4 418.3 209.6 415.9 215.25 410.9 219.5 406.45 223.25 399.8 223.5 393.15 223.25 388.7 219.5 383.7 215.25 381.3 209.6 380.1 202.4 381.5 197.05 L381.3 195.45 381.1 191.35 381.1 191.15 381.1 190.9 Q381.15 182.15 381.85 178.05" fill="#000000" fill-rule="evenodd" stroke="none"/>
  </g>
</svg>
