<?xml version="1.0" encoding="UTF-8" standalone="no"?>
<svg xmlns:xlink="http://www.w3.org/1999/xlink" height="39.8px" width="37.4px" xmlns="http://www.w3.org/2000/svg">
  <g transform="matrix(1.0, 0.0, 0.0, 1.0, -381.1, -184.3)">
    <path d="M381.3 195.45 L381.1 191.35 381.1 191.15 381.1 190.9 381.2 186.15 Q390.0 184.2 399.9 184.3 409.7 184.2 418.45 186.15 L418.5 190.9 418.5 191.15 418.5 191.35 418.3 195.45 417.45 200.5 416.95 202.3 415.65 205.35 Q412.6 212.3 409.0 217.85 L404.35 224.1 395.25 224.1 Q392.85 221.25 390.6 217.85 387.0 212.3 383.95 205.35 L382.65 202.3 382.15 200.5 Q381.55 198.0 381.3 195.45" fill="#000000" fill-rule="evenodd" stroke="none"/>
  </g>
</svg>
