<?xml version="1.0" encoding="UTF-8" standalone="no"?>
<svg xmlns:xlink="http://www.w3.org/1999/xlink" height="54.95px" width="38.75px" xmlns="http://www.w3.org/2000/svg">
  <g transform="matrix(1.0, 0.0, 0.0, 1.0, -380.3, -131.8)">
    <path d="M382.05 140.6 L382.85 139.5 Q389.05 132.25 399.85 132.3 M417.7 140.6 L417.8 140.75 Q418.5 144.85 418.55 153.65 L418.55 153.9 418.55 154.1 418.35 158.2 418.35 158.35 M416.85 175.4 Q414.55 179.2 410.95 182.25 406.5 186.0 399.85 186.25 M382.9 175.4 L381.35 172.35 Q380.15 165.15 381.55 159.8 L381.4 158.35" fill="none" stroke="#000000" stroke-linecap="round" stroke-linejoin="round" stroke-width="1.0"/>
    <path d="M399.85 132.3 L399.85 158.35 399.9 158.35 417.7 140.6 M418.35 158.35 L399.9 158.35 399.85 158.4 416.85 175.4 M399.85 186.25 L399.85 158.4 382.9 175.4 M381.4 158.35 L399.8 158.35 382.05 140.6 M399.8 158.35 L399.85 158.35 399.85 158.4 399.8 158.35" fill="none" stroke="#000000" stroke-linecap="round" stroke-linejoin="round" stroke-opacity="0.5019608" stroke-width="1.0"/>
  </g>
</svg>
