<?xml version="1.0" encoding="UTF-8" standalone="no"?>
<svg xmlns:xlink="http://www.w3.org/1999/xlink" height="17.25px" width="21.55px" xmlns="http://www.w3.org/2000/svg">
  <g transform="matrix(1.0, 0.0, 0.0, 1.0, -364.2, -175.15)">
    <path d="M384.35 181.05 L381.05 181.8 380.15 181.85 Q378.7 181.8 377.15 180.15 374.9 177.9 373.05 177.25 L371.55 176.75 371.5 176.75 371.0 176.6 364.7 175.65 Q364.85 178.2 365.45 180.6 366.2 183.6 368.0 185.7 370.3 188.4 373.8 188.05 L374.85 187.95 376.35 187.7 377.6 187.45 Q379.7 187.15 381.45 188.25 L382.1 188.7 382.55 189.05 383.6 190.25 383.9 190.65 384.35 191.9" fill="none" stroke="#000000" stroke-linecap="round" stroke-linejoin="round" stroke-width="1.0"/>
    <path d="M371.0 176.6 L371.45 177.0 375.5 180.45 Q377.6 182.1 378.5 183.3 379.4 184.5 380.25 184.6 L382.75 185.1 383.4 185.25 M376.35 187.7 L377.45 186.65 Q378.8 185.35 380.25 184.6 M384.35 191.9 Q386.15 184.35 384.35 181.05 Z" fill="none" stroke="#000000" stroke-linecap="round" stroke-linejoin="round" stroke-opacity="0.5019608" stroke-width="1.0"/>
  </g>
</svg>
