<?xml version="1.0" encoding="UTF-8" standalone="no"?>
<svg xmlns:xlink="http://www.w3.org/1999/xlink" height="72.65px" width="33.85px" xmlns="http://www.w3.org/2000/svg">
  <g transform="matrix(1.0, 0.0, 0.0, 1.0, -355.35, -129.25)">
    <path d="M358.35 132.65 L356.7 130.75 356.55 130.55 355.85 129.75 356.25 130.95 Q363.2 154.25 361.85 171.8 372.3 177.9 374.85 193.6 377.45 193.35 379.65 196.55 L380.0 197.0 Q381.45 198.75 382.7 201.4 M358.35 132.65 Q370.55 144.55 379.7 159.85 L380.0 160.35 Q384.65 166.65 388.6 173.5" fill="none" stroke="#000000" stroke-linecap="round" stroke-linejoin="round" stroke-width="1.0"/>
    <path d="M382.7 201.4 L382.8 201.2 383.05 200.95 383.35 201.0 384.0 199.7 382.8 195.4 382.45 194.5 381.4 193.15 Q381.05 192.8 381.05 192.0 L381.25 190.55 382.85 189.45 Q384.1 188.25 384.7 186.5 L384.9 185.85 Q382.6 181.9 382.65 180.65 382.95 178.35 384.45 176.55 L385.35 175.45 380.0 166.15 379.7 165.55 379.65 165.4 Q370.85 147.8 358.35 132.65 M388.6 173.5 Q389.35 183.1 384.0 199.7 M372.15 155.95 Q369.35 155.5 367.2 161.15 366.5 162.85 364.85 169.3 M376.4 189.65 Q375.15 181.1 378.9 174.85 379.15 174.35 379.65 174.0 M385.35 175.45 Q386.1 174.8 386.95 174.5" fill="none" stroke="#000000" stroke-linecap="round" stroke-linejoin="round" stroke-opacity="0.5019608" stroke-width="1.0"/>
  </g>
</svg>
