<?xml version="1.0" encoding="UTF-8" standalone="no"?>
<svg xmlns:xlink="http://www.w3.org/1999/xlink" height="17.1px" width="43.0px" xmlns="http://www.w3.org/2000/svg">
  <g transform="matrix(1.0, 0.0, 0.0, 1.0, -378.4, -166.85)">
    <path d="M379.8 166.9 L381.2 167.0 381.45 167.15 Q382.3 167.55 383.1 168.1 L384.35 169.3 Q383.8 170.5 383.7 171.85 L383.7 172.4 384.0 171.85 384.25 171.85 Q384.1 173.5 384.65 175.05 L384.7 174.25 384.85 174.2 385.0 174.65 Q385.35 175.8 386.2 176.7 L385.6 177.45 Q384.85 178.4 384.25 179.6 L383.9 180.35 Q383.0 181.6 382.55 182.9 L382.25 183.95 381.75 183.6 381.45 183.4 381.2 183.15 Q380.25 182.15 379.65 180.6 L379.15 179.3 Q378.3 176.55 378.4 173.1 378.45 169.7 379.8 166.9 M420.0 166.9 Q421.35 169.7 421.4 173.1 421.5 176.55 420.65 179.3 L420.15 180.6 Q419.55 182.15 418.6 183.15 L418.35 183.4 418.05 183.6 417.55 183.95 417.25 182.9 415.9 180.35 415.55 179.6 414.2 177.45 413.6 176.7 Q414.45 175.8 414.8 174.65 L414.95 174.2 415.1 174.25 415.15 175.05 Q415.7 173.5 415.55 171.85 L415.8 171.85 416.1 172.4 416.1 171.85 Q416.0 170.5 415.45 169.3 L416.7 168.1 418.35 167.15 418.6 167.0 420.0 166.9" fill="#000000" fill-rule="evenodd" stroke="none"/>
  </g>
</svg>
