<?xml version="1.0" encoding="UTF-8" standalone="no"?>
<svg xmlns:xlink="http://www.w3.org/1999/xlink" height="17.25px" width="71.4px" xmlns="http://www.w3.org/2000/svg">
  <g transform="matrix(1.0, 0.0, 0.0, 1.0, -364.2, -175.15)">
    <path d="M384.35 191.9 L383.9 190.65 383.6 190.25 382.55 189.05 382.1 188.7 381.45 188.25 Q379.7 187.15 377.6 187.45 L376.35 187.7 374.85 187.95 373.8 188.05 Q370.3 188.4 368.0 185.7 366.2 183.6 365.45 180.6 364.85 178.2 364.7 175.65 L371.0 176.6 371.5 176.75 371.55 176.75 373.05 177.25 Q374.9 177.9 377.15 180.15 378.7 181.8 380.15 181.85 L381.05 181.8 384.35 181.05 M428.8 176.6 L428.3 176.75 428.25 176.75 426.75 177.25 Q424.9 177.9 422.65 180.15 421.1 181.8 419.65 181.85 L418.75 181.8 415.45 181.05 M415.45 191.9 L415.9 190.65 416.2 190.25 417.25 189.05 417.7 188.7 418.35 188.25 Q420.1 187.15 422.2 187.45 L423.45 187.7 424.95 187.95 426.0 188.05 Q429.5 188.4 431.8 185.7 433.6 183.6 434.35 180.6 434.95 178.2 435.1 175.65 L428.8 176.6" fill="none" stroke="#000000" stroke-linecap="round" stroke-linejoin="round" stroke-width="1.0"/>
    <path d="M384.35 181.05 Q386.15 184.35 384.35 191.9 M371.0 176.6 L371.45 177.0 375.5 180.45 Q377.6 182.1 378.5 183.3 379.4 184.5 380.25 184.6 L382.75 185.1 383.4 185.25 M380.25 184.6 Q378.8 185.35 377.45 186.65 L376.35 187.7 M416.4 185.25 L417.05 185.1 419.55 184.6 Q420.4 184.5 421.3 183.3 422.2 182.1 424.3 180.45 L428.35 177.0 428.8 176.6 M415.45 181.05 Q413.65 184.35 415.45 191.9 M423.45 187.7 L422.35 186.65 Q421.0 185.35 419.55 184.6" fill="none" stroke="#000000" stroke-linecap="round" stroke-linejoin="round" stroke-opacity="0.5019608" stroke-width="1.0"/>
  </g>
</svg>
