<?xml version="1.0" encoding="UTF-8" standalone="no"?>
<svg xmlns:xlink="http://www.w3.org/1999/xlink" height="9.35px" width="10.55px" xmlns="http://www.w3.org/2000/svg">
  <g transform="matrix(1.0, 0.0, 0.0, 1.0, -394.65, -143.25)">
    <path d="M394.65 145.75 Q394.7 144.4 395.25 144.0 L395.45 143.9 396.35 143.5 397.5 143.3 399.85 143.8 402.25 143.25 403.5 143.45 404.4 143.8 404.6 143.95 Q405.05 144.35 405.2 145.7 L405.05 147.05 404.55 148.7 Q403.95 148.55 403.55 147.4 L403.5 147.4 Q403.7 148.45 402.3 150.4 401.0 152.2 399.85 152.6 398.75 152.15 397.5 150.45 396.15 148.45 396.35 147.45 L396.3 147.4 Q395.9 148.65 395.3 148.7 L394.8 147.15 Q394.6 146.6 394.65 145.75" fill="#000000" fill-rule="evenodd" stroke="none"/>
  </g>
</svg>
