<?xml version="1.0" encoding="UTF-8" standalone="no"?>
<svg xmlns:xlink="http://www.w3.org/1999/xlink" height="6.65px" width="12.3px" xmlns="http://www.w3.org/2000/svg">
  <g transform="matrix(1.0, 0.0, 0.0, 1.0, -381.85, -193.85)">
    <path d="M382.35 194.35 L383.05 194.4 383.6 194.55 383.9 194.6 384.9 194.6 385.1 194.6 388.65 194.5 389.0 194.55 389.9 194.65 391.4 195.05 Q391.85 195.1 392.2 195.3 L392.45 195.45 392.5 195.5 393.0 195.95 393.25 196.35 393.3 196.45 393.35 196.55 Q393.75 197.35 393.6 198.15 L393.6 198.2 393.25 200.0 M385.1 194.6 Q385.1 195.1 385.25 195.4 385.55 196.4 386.45 197.0 387.25 197.55 388.2 197.75 L390.45 198.05 390.95 198.1 393.6 198.2 M392.5 195.5 L392.3 195.95 Q392.05 196.7 391.4 197.05 L391.35 197.05 390.5 197.15 Q389.8 197.0 389.2 196.55 388.25 195.8 388.65 194.55 L388.65 194.5" fill="none" stroke="#000000" stroke-linecap="round" stroke-linejoin="round" stroke-opacity="0.5019608" stroke-width="1.0"/>
  </g>
</svg>
