<?xml version="1.0" encoding="UTF-8" standalone="no"?>
<svg xmlns:xlink="http://www.w3.org/1999/xlink" height="6.45px" width="26.4px" xmlns="http://www.w3.org/2000/svg">
  <g transform="matrix(1.0, 0.0, 0.0, 1.0, -386.7, -192.2)">
    <path d="M411.95 192.2 L412.05 192.45 412.5 193.3 Q414.45 197.25 410.05 198.5 L410.0 198.5 409.75 198.6 409.0 198.65 408.3 198.55 Q407.6 198.3 407.05 197.65 L406.75 197.1 406.8 197.05 407.4 196.7 407.9 197.2 407.95 197.25 408.2 197.3 408.7 197.3 409.3 197.25 410.6 196.65 Q411.35 196.0 411.35 194.9 L411.35 194.65 411.0 193.5 411.6 192.65 411.85 192.3 411.9 192.3 411.95 192.2 M387.85 192.2 L387.9 192.3 387.95 192.3 388.2 192.65 388.65 193.3 388.8 193.5 Q388.45 193.95 388.45 194.9 388.45 196.0 389.2 196.65 389.95 197.3 391.1 197.3 L391.85 197.25 392.4 196.7 393.0 197.05 393.05 197.1 392.95 197.3 Q392.35 198.3 391.5 198.55 L391.4 198.6 390.8 198.65 389.8 198.5 389.75 198.5 Q384.9 197.1 387.75 192.45 L387.85 192.2" fill="#000000" fill-rule="evenodd" stroke="none"/>
  </g>
</svg>
