<?xml version="1.0" encoding="UTF-8" standalone="no"?>
<svg xmlns:xlink="http://www.w3.org/1999/xlink" height="3.45px" width="25.8px" xmlns="http://www.w3.org/2000/svg">
  <g transform="matrix(1.0, 0.0, 0.0, 1.0, -387.0, -194.4)">
    <path d="M387.5 194.9 Q388.7 194.4 389.95 194.4 L390.0 194.55 Q390.2 195.7 390.95 196.6 L391.05 194.45 391.1 194.45 391.35 194.5 Q392.1 194.6 392.75 195.0 L393.9 196.05 Q393.8 197.25 392.65 197.65 L392.2 197.8 391.05 197.85 389.45 197.4 389.4 197.4 Q387.85 196.6 387.0 195.1 L387.5 194.9 M408.7 194.45 L408.75 194.45 408.85 196.6 Q409.6 195.7 409.8 194.55 L409.85 194.4 Q411.1 194.4 412.3 194.9 L412.8 195.1 Q411.95 196.6 410.4 197.4 L410.35 197.4 408.75 197.85 407.6 197.8 407.15 197.65 Q406.0 197.25 405.9 196.05 L407.05 195.0 Q407.7 194.6 408.45 194.5 L408.7 194.45" fill="#000000" fill-rule="evenodd" stroke="none"/>
  </g>
</svg>
