<?xml version="1.0" encoding="UTF-8" standalone="no"?>
<svg xmlns:xlink="http://www.w3.org/1999/xlink" height="10.4px" width="27.6px" xmlns="http://www.w3.org/2000/svg">
  <g transform="matrix(1.0, 0.0, 0.0, 1.0, -386.1, -189.1)">
    <path d="M412.55 189.1 L412.95 189.85 412.95 189.95 413.35 191.35 413.6 192.9 413.7 194.05 Q413.75 195.5 413.0 196.9 L412.8 197.35 412.7 197.45 Q412.1 198.35 411.1 198.8 L410.9 198.9 409.2 199.4 408.05 199.5 407.1 199.5 406.7 199.4 405.3 198.9 405.25 198.9 405.15 198.8 405.2 198.8 405.35 198.65 405.65 198.75 407.1 199.0 409.2 199.0 Q410.1 198.9 410.7 198.3 L411.75 196.95 411.8 196.8 Q412.65 194.8 411.75 190.25 L412.55 189.1 M387.25 189.1 L388.05 190.25 Q387.15 194.8 388.0 196.8 L388.05 196.95 389.1 198.3 Q389.7 198.9 390.6 199.0 L392.7 199.0 394.15 198.75 394.45 198.65 394.6 198.8 394.65 198.8 394.55 198.9 394.5 198.9 393.1 199.4 392.7 199.5 391.75 199.5 390.6 199.4 Q389.7 199.25 388.9 198.9 L388.7 198.8 387.1 197.45 387.0 197.35 386.8 196.9 Q386.05 195.5 386.1 194.05 L386.2 192.9 386.45 191.35 386.85 189.95 386.85 189.85 387.25 189.1" fill="#000000" fill-rule="evenodd" stroke="none"/>
  </g>
</svg>
