<?xml version="1.0" encoding="UTF-8" standalone="no"?>
<svg xmlns:xlink="http://www.w3.org/1999/xlink" height="36.85px" width="89.25px" xmlns="http://www.w3.org/2000/svg">
  <g transform="matrix(1.0, 0.0, 0.0, 1.0, -319.9, -356.1)">
    <path d="M350.05 368.85 L351.9 369.5 354.85 370.55 356.65 371.25 359.3 372.2 365.2 370.1 408.65 392.45 361.0 381.65 357.85 376.3 356.25 375.7 353.1 374.6 351.7 374.05 347.5 372.55 346.4 372.15 342.65 370.8 340.15 369.9 336.5 368.55 335.65 368.25 333.7 367.55 330.9 366.5 329.3 367.75 328.9 367.95 324.35 368.15 Q322.05 367.3 321.0 365.1 319.95 362.85 320.8 360.5 321.65 358.25 323.9 357.2 326.1 356.1 328.45 356.95 330.75 357.8 331.8 360.1 L331.95 360.45 Q332.35 361.4 332.35 362.4 L333.75 362.9 337.2 364.15 340.0 365.15 341.65 365.75 344.9 366.95 346.3 367.45 350.05 368.85 M329.5 363.65 Q329.05 364.9 327.8 365.5 L325.3 365.65 Q324.0 365.15 323.5 363.9 322.9 362.7 323.35 361.45 323.85 360.2 325.05 359.6 L327.5 359.5 Q328.75 359.95 329.35 361.15 329.95 362.4 329.5 363.65" fill="none" stroke="#000000" stroke-linecap="round" stroke-linejoin="round" stroke-width="1.0"/>
    <path d="M350.05 368.85 Q348.6 370.1 347.5 372.55 M333.7 367.55 Q333.25 365.8 333.75 362.9 M332.35 362.4 Q331.15 364.3 330.9 366.5 M337.2 364.15 L335.65 368.25 M340.0 365.15 Q338.2 366.0 336.5 368.55 M341.65 365.75 Q340.35 368.3 340.15 369.9 M361.0 381.65 L364.85 376.5 358.3 374.15 Q357.95 375.2 357.85 376.3 M356.65 371.25 Q356.05 373.85 356.25 375.7 M359.3 372.2 L358.3 374.15 M353.1 374.6 Q353.95 371.9 354.85 370.55 M351.9 369.5 Q351.25 372.3 351.7 374.05 M344.9 366.95 Q343.85 368.1 342.65 370.8 M346.4 372.15 Q345.85 370.3 346.3 367.45 M364.85 376.5 L365.2 370.1 M364.85 376.5 L408.65 392.45" fill="none" stroke="#000000" stroke-linecap="round" stroke-linejoin="round" stroke-opacity="0.5019608" stroke-width="1.0"/>
  </g>
</svg>
