<?xml version="1.0" encoding="UTF-8" standalone="no"?>
<svg xmlns:xlink="http://www.w3.org/1999/xlink" height="60.25px" width="189.0px" xmlns="http://www.w3.org/2000/svg">
  <g transform="matrix(1.0, 0.0, 0.0, 1.0, -322.1, -362.0)">
    <path d="M364.45 367.5 L364.6 367.55 Q365.05 367.75 364.85 369.15 L364.7 369.85 364.0 372.55 407.7 389.1 413.05 391.0 418.75 392.95 440.45 400.25 445.3 401.75 462.4 406.9 466.75 408.1 468.0 408.4 472.0 409.5 479.35 411.3 484.8 412.6 Q493.35 414.5 500.7 415.65 L502.4 415.9 510.6 416.95 Q493.75 425.3 473.1 419.1 L469.6 418.05 469.5 418.0 465.9 416.9 465.35 416.7 464.8 416.5 458.15 414.4 453.4 412.85 441.1 408.65 439.7 408.1 433.6 405.95 429.1 404.3 408.75 396.5 403.4 394.45 402.1 393.9 367.7 380.65 361.95 378.4 360.4 381.7 360.05 382.35 Q359.35 383.5 358.75 383.35 L358.65 383.3 357.85 383.05 Q357.1 382.5 357.6 379.55 L357.6 379.45 357.8 378.65 357.85 378.5 358.0 378.0 358.15 377.35 357.2 376.9 Q344.25 372.15 330.25 370.35 326.95 370.25 324.0 372.4 322.7 370.0 322.6 367.4 322.45 365.05 323.35 362.5 327.65 363.95 330.15 363.95 343.0 364.1 359.45 370.75 L360.5 371.05 360.65 370.75 360.8 370.55 Q360.9 370.15 361.15 369.85 362.7 367.1 363.65 367.15 L364.45 367.5" fill="none" stroke="#000000" stroke-linecap="round" stroke-linejoin="round" stroke-width="1.0"/>
    <path d="M364.6 367.55 Q363.6 367.45 362.05 370.15 L361.7 370.85 361.6 371.05 361.45 371.45 361.05 372.2 360.95 372.45 Q359.65 375.35 358.9 378.35 L358.75 378.8 358.7 378.95 358.5 379.75 358.5 379.9 Q358.0 382.8 358.75 383.35 M358.15 377.35 L359.2 374.25 360.05 372.15 360.15 371.9 360.5 371.1 360.5 371.05 M330.25 370.35 L329.95 367.6 Q329.9 365.85 330.15 363.95 M364.0 372.55 L363.05 372.15 Q361.6 375.05 360.95 378.05 L361.95 378.4 M359.45 370.75 Q358.55 372.1 358.0 373.85 357.45 375.25 357.2 376.9 M367.7 380.65 Q369.5 379.2 370.8 379.65 L401.85 391.4 406.6 393.3 411.95 395.4 432.45 403.1 437.0 404.75 439.5 405.65 440.85 406.15 456.85 411.6 461.65 413.15 465.1 414.25 465.7 414.4 468.4 415.25 470.0 415.7 473.6 416.6 474.8 416.85 Q490.15 419.9 500.7 415.65 M390.6 384.7 Q390.85 384.2 391.75 384.5 L407.0 390.25 411.05 391.7 416.75 393.7 438.45 400.95 443.25 402.5 461.65 408.0 464.6 408.85 467.3 409.55 Q468.5 409.9 468.55 410.5 L468.1 410.85 466.85 410.7 462.6 409.55 461.2 409.15 441.35 403.2 436.55 401.65 414.85 394.35 409.2 392.35 406.6 391.4 391.35 385.6 Q390.45 385.3 390.6 384.7" fill="none" stroke="#000000" stroke-linecap="round" stroke-linejoin="round" stroke-opacity="0.5019608" stroke-width="1.0"/>
  </g>
</svg>
