<?xml version="1.0" encoding="UTF-8" standalone="no"?>
<svg xmlns:xlink="http://www.w3.org/1999/xlink" height="51.6px" width="179.1px" xmlns="http://www.w3.org/2000/svg">
  <g transform="matrix(1.0, 0.0, 0.0, 1.0, 78.15, -56.3)">
    <path d="M83.75 101.7 Q75.7 103.0 66.45 102.9 L59.1 102.65 Q50.7 102.1 41.45 100.55 L36.0 99.55 21.25 96.25 16.35 94.9 1.75 90.55 -16.2 84.3 -20.25 82.8 -36.1 76.45 -36.1 76.4 Q-35.25 75.7 -34.25 75.15 L-35.0 72.9 -35.0 72.75 -35.65 69.7 Q-24.7 74.15 -14.5 77.7 L-12.5 78.35 Q-0.1 82.5 11.0 85.25 L27.5 88.5 33.3 89.3 Q43.85 90.45 52.9 89.85 L61.95 88.7 Q67.55 87.7 72.45 85.85 73.7 89.95 75.5 93.15 L77.7 96.45 Q80.3 99.85 83.75 101.7" fill="url(#gradient0)" fill-rule="evenodd" stroke="none"/>
    <path d="M100.95 103.4 Q83.95 109.65 59.1 107.2 L52.5 106.4 36.3 103.5 31.2 102.3 17.1 98.6 12.45 97.2 -1.7 92.55 -16.9 87.0 -23.2 84.5 -37.85 78.5 -36.1 76.45 -20.25 82.8 -16.2 84.3 1.75 90.55 16.35 94.9 21.25 96.25 36.0 99.55 41.45 100.55 Q50.7 102.1 59.1 102.65 L66.45 102.9 Q75.7 103.0 83.75 101.7 90.65 103.2 100.95 103.4" fill="url(#gradient1)" fill-rule="evenodd" stroke="none"/>
    <path d="M100.95 103.4 Q90.65 103.2 83.75 101.7 80.3 99.85 77.7 96.45 L75.5 93.15 Q73.7 89.95 72.45 85.85 74.55 89.05 77.8 91.85 L81.15 94.45 Q88.75 99.7 100.95 103.4" fill="url(#gradient2)" fill-rule="evenodd" stroke="none"/>
    <path d="M-73.85 64.95 L-77.65 64.8 Q-78.45 64.85 -78.0 64.1 -76.45 61.25 -74.8 59.45 -71.65 56.0 -68.0 56.35 L-65.25 58.8 Q-68.55 59.15 -70.85 61.05 -72.65 62.5 -73.85 64.95" fill="url(#gradient3)" fill-rule="evenodd" stroke="none"/>
    <path d="M-42.15 77.55 Q-44.7 74.15 -60.65 68.5 -70.45 65.2 -73.85 64.95 -72.65 62.5 -70.85 61.05 -68.55 59.15 -65.25 58.8 -57.1 63.65 -39.4 68.55 L-39.55 68.9 -39.85 69.3 -39.9 69.4 Q-41.1 71.1 -42.45 72.35 -42.05 75.15 -42.15 77.55" fill="url(#gradient4)" fill-rule="evenodd" stroke="none"/>
    <path d="M-36.1 76.45 L-37.85 78.5 -38.25 79.0 -39.85 81.9 -40.95 84.7 Q-41.25 85.6 -41.7 86.3 -43.45 89.0 -46.5 88.15 L-47.65 87.45 Q-49.25 85.7 -48.2 83.45 -46.95 81.7 -44.9 82.0 -43.85 82.2 -43.45 82.9 -42.9 81.75 -42.65 80.5 L-42.15 77.9 -42.15 77.55 Q-42.05 75.15 -42.45 72.35 L-34.25 75.15 Q-35.25 75.7 -36.1 76.4 L-36.1 76.45" fill="url(#gradient5)" fill-rule="evenodd" stroke="none"/>
    <path d="M-39.4 68.55 Q-37.85 66.15 -36.6 62.9 -34.95 59.2 -31.5 60.05 -31.0 60.15 -30.4 60.55 -28.7 62.1 -29.35 64.15 L-29.9 65.1 Q-31.05 66.4 -32.8 66.25 -33.85 66.1 -34.2 65.35 L-34.5 64.1 Q-35.95 65.75 -35.65 69.15 L-35.65 69.7 -35.0 72.75 -35.0 72.9 -34.25 75.15 -42.45 72.35 Q-41.1 71.1 -39.9 69.4 L-39.85 69.3 -39.55 68.9 -39.4 68.55" fill="url(#gradient6)" fill-rule="evenodd" stroke="none"/>
    <path d="M-37.85 78.5 L-38.25 79.0 -39.85 81.9 -40.95 84.7 Q-41.25 85.6 -41.7 86.3 -43.45 89.0 -46.5 88.15 L-47.65 87.45 Q-49.25 85.7 -48.2 83.45 -46.95 81.7 -44.9 82.0 -43.85 82.2 -43.45 82.9 -42.9 81.75 -42.65 80.5 L-42.15 77.9 -42.15 77.55 Q-44.7 74.15 -60.65 68.5 -70.45 65.2 -73.85 64.95 L-77.65 64.8 Q-78.45 64.85 -78.0 64.1 -76.45 61.25 -74.8 59.45 L-42.45 72.35 -34.25 75.15 Q-35.25 75.7 -36.1 76.4 L-36.1 76.45 -37.85 78.5" fill="#000000" fill-opacity="0.2" fill-rule="evenodd" stroke="none"/>
    <path d="M-36.1 76.45 L-20.25 82.8 -12.5 78.35 Q-0.1 82.5 11.0 85.25 L1.75 90.55 16.35 94.9 27.5 88.5 33.3 89.3 21.25 96.25 36.0 99.55 52.9 89.85 61.95 88.7 41.45 100.55 Q50.7 102.1 59.1 102.65 L75.5 93.15 Q73.7 89.95 72.45 85.85 74.55 89.05 77.8 91.85 L81.15 94.45 Q88.75 99.7 100.95 103.4 83.95 109.65 59.1 107.2 L52.5 106.4 36.3 103.5 31.2 102.3 17.1 98.6 12.45 97.2 -1.7 92.55 -16.9 87.0 -23.2 84.5 -37.85 78.5 -36.1 76.45 M66.45 102.9 Q75.7 103.0 83.75 101.7 80.3 99.85 77.7 96.45 L66.45 102.9" fill="#ffffff" fill-opacity="0.5019608" fill-rule="evenodd" stroke="none"/>
  </g>
  <defs>
    <linearGradient gradientTransform="matrix(0.0, 0.0203, -0.0732, 0.0, 23.85, 86.3)" gradientUnits="userSpaceOnUse" id="gradient0" spreadMethod="pad" x1="-819.2" x2="819.2">
      <stop offset="0.0" stop-color="#000000" stop-opacity="0.2509804"/>
      <stop offset="1.0" stop-color="#000000" stop-opacity="0.0"/>
    </linearGradient>
    <linearGradient gradientTransform="matrix(0.0, 0.0192, -0.0847, 0.0, 31.55, 92.15)" gradientUnits="userSpaceOnUse" id="gradient1" spreadMethod="pad" x1="-819.2" x2="819.2">
      <stop offset="0.0" stop-color="#000000" stop-opacity="0.2509804"/>
      <stop offset="1.0" stop-color="#000000" stop-opacity="0.0"/>
    </linearGradient>
    <linearGradient gradientTransform="matrix(0.0, 0.0107, -0.0174, 0.0, 86.7, 94.6)" gradientUnits="userSpaceOnUse" id="gradient2" spreadMethod="pad" x1="-819.2" x2="819.2">
      <stop offset="0.0" stop-color="#000000" stop-opacity="0.2509804"/>
      <stop offset="1.0" stop-color="#000000" stop-opacity="0.0"/>
    </linearGradient>
    <linearGradient gradientTransform="matrix(0.0, 0.0053, -0.0079, 0.0, -71.7, 60.65)" gradientUnits="userSpaceOnUse" id="gradient3" spreadMethod="pad" x1="-819.2" x2="819.2">
      <stop offset="0.0" stop-color="#000000" stop-opacity="0.2509804"/>
      <stop offset="1.0" stop-color="#000000" stop-opacity="0.0"/>
    </linearGradient>
    <linearGradient gradientTransform="matrix(0.0, 0.0114, -0.021, 0.0, -56.65, 68.15)" gradientUnits="userSpaceOnUse" id="gradient4" spreadMethod="pad" x1="-819.2" x2="819.2">
      <stop offset="0.0" stop-color="#000000" stop-opacity="0.2509804"/>
      <stop offset="1.0" stop-color="#000000" stop-opacity="0.0"/>
    </linearGradient>
    <linearGradient gradientTransform="matrix(0.0, 0.0098, -0.0088, 0.0, -41.45, 80.35)" gradientUnits="userSpaceOnUse" id="gradient5" spreadMethod="pad" x1="-819.2" x2="819.2">
      <stop offset="0.0" stop-color="#000000" stop-opacity="0.2509804"/>
      <stop offset="1.0" stop-color="#000000" stop-opacity="0.0"/>
    </linearGradient>
    <linearGradient gradientTransform="matrix(0.0, 0.0093, -0.0081, 0.0, -35.85, 67.5)" gradientUnits="userSpaceOnUse" id="gradient6" spreadMethod="pad" x1="-819.2" x2="819.2">
      <stop offset="0.0" stop-color="#000000" stop-opacity="0.2509804"/>
      <stop offset="1.0" stop-color="#000000" stop-opacity="0.0"/>
    </linearGradient>
  </defs>
</svg>
