<?xml version="1.0" encoding="UTF-8" standalone="no"?>
<svg xmlns:xlink="http://www.w3.org/1999/xlink" height="101.45px" width="108.05px" xmlns="http://www.w3.org/2000/svg">
  <g transform="matrix(1.0, 0.0, 0.0, 1.0, 98.0, -48.5)">
    <path d="M-29.85 148.7 Q-7.8 139.45 3.45 98.6 4.45 94.85 1.6 93.7 L-7.0 90.45 -7.1 90.4 -7.2 90.4 -12.35 88.4 -9.2 79.8 10.05 86.8 Q9.85 89.0 9.2 91.0 8.4 93.45 6.85 95.65 -1.25 125.55 -15.8 141.1 -22.2 146.75 -29.85 148.7" fill="url(#gradient0)" fill-rule="evenodd" stroke="none"/>
    <path d="M-7.0 90.45 L1.6 93.7 Q4.45 94.85 3.45 98.6 -7.8 139.45 -29.85 148.7 L-36.95 149.95 Q-10.25 135.95 -4.8 96.05 -4.2 91.6 -7.0 90.45" fill="url(#gradient1)" fill-rule="evenodd" stroke="none"/>
    <path d="M-73.15 65.35 L-70.3 57.6 Q-53.05 62.0 -37.45 69.55 L-40.45 77.75 Q-57.7 73.35 -73.15 65.35" fill="url(#gradient2)" fill-rule="evenodd" stroke="none"/>
    <path d="M-70.3 57.6 L-73.15 65.35 Q-77.1 66.0 -79.6 62.9 L-76.8 55.2 Q-72.75 54.8 -70.3 57.6" fill="url(#gradient3)" fill-rule="evenodd" stroke="none"/>
    <path d="M-76.8 55.2 L-79.6 62.9 -92.65 58.15 -89.85 50.45 -76.8 55.2" fill="url(#gradient4)" fill-rule="evenodd" stroke="none"/>
    <path d="M-40.45 77.75 L-37.45 69.55 Q-33.45 68.85 -30.8 71.95 L-33.8 80.25 Q-38.45 80.8 -40.45 77.75" fill="url(#gradient5)" fill-rule="evenodd" stroke="none"/>
    <path d="M-21.5 75.35 Q-20.25 75.0 -19.7 76.0 L-22.8 84.4 Q-23.95 84.8 -24.6 83.8 L-21.5 75.35" fill="url(#gradient6)" fill-rule="evenodd" stroke="none"/>
    <path d="M-30.8 71.95 L-21.5 75.35 -24.6 83.8 -33.8 80.25 -30.8 71.95" fill="url(#gradient7)" fill-rule="evenodd" stroke="none"/>
    <path d="M-19.7 76.0 L-10.9 79.2 -14.0 87.75 -22.8 84.4 -19.7 76.0" fill="url(#gradient8)" fill-rule="evenodd" stroke="none"/>
    <path d="M-9.2 79.8 L-12.35 88.4 Q-13.4 88.8 -14.0 87.75 L-10.9 79.2 Q-9.8 78.8 -9.2 79.8" fill="url(#gradient9)" fill-rule="evenodd" stroke="none"/>
    <path d="M-89.85 50.45 L-92.65 58.15 Q-95.55 57.6 -97.95 56.2 -98.15 54.2 -97.6 52.45 -96.95 50.2 -95.15 48.5 -92.35 48.95 -89.85 50.45" fill="url(#gradient10)" fill-rule="evenodd" stroke="none"/>
    <path d="M-10.65 83.85 L-12.35 88.4 Q-13.4 88.8 -14.0 87.75 L-22.8 84.4 Q-23.95 84.8 -24.6 83.8 L-33.8 80.25 Q-38.45 80.8 -40.45 77.75 -57.7 73.35 -73.15 65.35 -77.1 66.0 -79.6 62.9 L-92.65 58.15 Q-95.55 57.6 -97.95 56.2 -98.15 54.2 -97.6 52.45 L-10.65 83.85" fill="#000000" fill-opacity="0.2" fill-rule="evenodd" stroke="none"/>
    <path d="M-10.65 83.85 L-9.2 79.8 10.05 86.8 Q9.85 89.0 9.2 91.0 L-10.65 83.85 M3.45 98.6 Q-7.8 139.45 -29.85 148.7 L-36.95 149.95 Q-10.25 135.95 -4.8 96.05 -4.2 91.6 -7.0 90.45 L1.6 93.7 Q4.45 94.85 3.45 98.6" fill="#ffffff" fill-opacity="0.5019608" fill-rule="evenodd" stroke="none"/>
  </g>
  <defs>
    <linearGradient gradientTransform="matrix(0.0, 0.042, -0.0244, 0.0, -9.9, 114.25)" gradientUnits="userSpaceOnUse" id="gradient0" spreadMethod="pad" x1="-819.2" x2="819.2">
      <stop offset="0.0" stop-color="#000000" stop-opacity="0.2509804"/>
      <stop offset="1.0" stop-color="#000000" stop-opacity="0.0"/>
    </linearGradient>
    <linearGradient gradientTransform="matrix(0.0, 0.0363, -0.0248, 0.0, -16.6, 120.15)" gradientUnits="userSpaceOnUse" id="gradient1" spreadMethod="pad" x1="-819.2" x2="819.2">
      <stop offset="0.0" stop-color="#000000" stop-opacity="0.2509804"/>
      <stop offset="1.0" stop-color="#000000" stop-opacity="0.0"/>
    </linearGradient>
    <linearGradient gradientTransform="matrix(0.0, 0.0123, -0.0218, 0.0, -55.3, 67.65)" gradientUnits="userSpaceOnUse" id="gradient2" spreadMethod="pad" x1="-819.2" x2="819.2">
      <stop offset="0.0" stop-color="#000000" stop-opacity="0.2509804"/>
      <stop offset="1.0" stop-color="#000000" stop-opacity="0.0"/>
    </linearGradient>
    <linearGradient gradientTransform="matrix(0.0, 0.0063, -0.0057, 0.0, -74.95, 60.3)" gradientUnits="userSpaceOnUse" id="gradient3" spreadMethod="pad" x1="-819.2" x2="819.2">
      <stop offset="0.0" stop-color="#000000" stop-opacity="0.2509804"/>
      <stop offset="1.0" stop-color="#000000" stop-opacity="0.0"/>
    </linearGradient>
    <linearGradient gradientTransform="matrix(0.0, 0.0076, -0.0097, 0.0, -84.75, 56.65)" gradientUnits="userSpaceOnUse" id="gradient4" spreadMethod="pad" x1="-819.2" x2="819.2">
      <stop offset="0.0" stop-color="#000000" stop-opacity="0.2509804"/>
      <stop offset="1.0" stop-color="#000000" stop-opacity="0.0"/>
    </linearGradient>
    <linearGradient gradientTransform="matrix(0.0, 0.0067, -0.0059, 0.0, -35.6, 74.85)" gradientUnits="userSpaceOnUse" id="gradient5" spreadMethod="pad" x1="-819.2" x2="819.2">
      <stop offset="0.0" stop-color="#000000" stop-opacity="0.2509804"/>
      <stop offset="1.0" stop-color="#000000" stop-opacity="0.0"/>
    </linearGradient>
    <linearGradient gradientTransform="matrix(0.0, 0.0057, -0.003, 0.0, -22.15, 79.9)" gradientUnits="userSpaceOnUse" id="gradient6" spreadMethod="pad" x1="-819.2" x2="819.2">
      <stop offset="0.0" stop-color="#000000" stop-opacity="0.2509804"/>
      <stop offset="1.0" stop-color="#000000" stop-opacity="0.0"/>
    </linearGradient>
    <linearGradient gradientTransform="matrix(0.0, 0.0072, -0.0075, 0.0, -27.65, 77.85)" gradientUnits="userSpaceOnUse" id="gradient7" spreadMethod="pad" x1="-819.2" x2="819.2">
      <stop offset="0.0" stop-color="#000000" stop-opacity="0.2509804"/>
      <stop offset="1.0" stop-color="#000000" stop-opacity="0.0"/>
    </linearGradient>
    <linearGradient gradientTransform="matrix(0.0, 0.0072, -0.0072, 0.0, -16.8, 81.85)" gradientUnits="userSpaceOnUse" id="gradient8" spreadMethod="pad" x1="-819.2" x2="819.2">
      <stop offset="0.0" stop-color="#000000" stop-opacity="0.2509804"/>
      <stop offset="1.0" stop-color="#000000" stop-opacity="0.0"/>
    </linearGradient>
    <linearGradient gradientTransform="matrix(0.0, 0.0058, -0.0029, 0.0, -11.6, 83.8)" gradientUnits="userSpaceOnUse" id="gradient9" spreadMethod="pad" x1="-819.2" x2="819.2">
      <stop offset="0.0" stop-color="#000000" stop-opacity="0.2509804"/>
      <stop offset="1.0" stop-color="#000000" stop-opacity="0.0"/>
    </linearGradient>
    <linearGradient gradientTransform="matrix(0.0, 0.0059, -0.005, 0.0, -93.95, 53.3)" gradientUnits="userSpaceOnUse" id="gradient10" spreadMethod="pad" x1="-819.2" x2="819.2">
      <stop offset="0.0" stop-color="#000000" stop-opacity="0.2509804"/>
      <stop offset="1.0" stop-color="#000000" stop-opacity="0.0"/>
    </linearGradient>
  </defs>
</svg>
