<?xml version="1.0" encoding="UTF-8" standalone="no"?>
<svg xmlns:xlink="http://www.w3.org/1999/xlink" height="51.6px" width="179.1px" xmlns="http://www.w3.org/2000/svg">
  <g transform="matrix(1.0, 0.0, 0.0, 1.0, -321.85, -356.3)">
    <path d="M364.35 369.7 Q375.3 374.15 385.5 377.65 L387.5 378.35 Q399.9 382.5 411.0 385.25 L427.5 388.5 433.3 389.25 452.9 389.85 461.95 388.7 Q467.55 387.65 472.45 385.85 474.55 389.05 477.8 391.85 L481.15 394.45 Q488.75 399.65 500.95 403.4 483.95 409.65 459.1 407.2 L452.5 406.4 436.3 403.5 431.2 402.3 417.1 398.6 412.45 397.2 398.3 392.55 383.1 387.0 376.8 384.5 362.15 378.45 361.75 379.0 360.15 381.9 359.05 384.7 358.3 386.3 Q356.55 389.0 353.5 388.15 L352.35 387.45 Q350.75 385.65 351.8 383.45 353.05 381.65 355.1 382.0 356.15 382.2 356.55 382.9 L357.35 380.45 357.85 377.85 357.85 377.55 Q357.95 375.15 357.55 372.35 L360.1 369.4 360.15 369.3 360.45 368.9 360.6 368.55 Q362.15 366.15 363.4 362.9 365.05 359.2 368.5 360.05 369.0 360.15 369.6 360.55 371.3 362.1 370.65 364.15 L370.1 365.1 Q368.95 366.4 367.2 366.25 366.15 366.1 365.8 365.35 365.5 364.9 365.5 364.1 364.05 365.75 364.35 369.15 L364.35 369.7 M334.75 358.8 Q331.45 359.15 329.15 361.05 327.35 362.5 326.15 364.95 L322.35 364.8 Q321.55 364.85 322.0 364.1 323.55 361.25 325.2 359.45 328.35 356.0 332.0 356.35 L334.75 358.8" fill="#ff0000" fill-rule="evenodd" stroke="none"/>
  </g>
</svg>
