<?xml version="1.0" encoding="UTF-8" standalone="no"?>
<svg xmlns:xlink="http://www.w3.org/1999/xlink" height="86.1px" width="222.85px" xmlns="http://www.w3.org/2000/svg">
  <g transform="matrix(1.0, 0.0, 0.0, 1.0, -316.65, -352.45)">
    <path d="M354.25 365.65 L357.65 366.85 358.25 365.6 359.15 363.7 359.45 363.35 Q363.3 357.8 372.2 356.2 L374.1 355.7 374.7 355.4 Q375.3 355.95 375.1 356.8 377.6 356.55 378.55 357.3 378.6 356.4 379.05 356.0 379.7 357.0 380.2 357.2 381.3 357.85 381.95 356.35 384.0 357.2 382.6 359.2 382.15 359.95 382.5 360.7 L383.0 362.0 382.75 362.65 Q383.45 364.95 381.45 365.55 L380.9 366.1 379.5 366.2 Q379.05 366.8 378.2 366.5 377.2 368.7 375.6 367.55 376.25 366.2 375.45 365.85 374.65 365.8 374.4 365.45 375.05 365.4 375.1 364.7 372.2 360.9 368.45 360.6 367.85 360.6 367.75 360.9 367.65 361.2 368.1 361.4 372.7 363.0 373.25 367.3 L373.4 367.35 Q374.05 367.6 374.3 368.2 374.6 368.8 374.35 369.4 L373.5 370.35 372.25 370.4 371.35 369.55 Q371.05 368.9 371.3 368.3 L371.85 367.6 371.65 367.15 371.45 366.7 371.45 366.6 371.3 366.45 Q369.95 364.4 367.2 363.75 363.95 363.2 361.65 366.3 L361.6 366.5 361.5 366.65 361.2 367.4 361.25 367.4 530.8 431.85 Q538.7 435.2 539.5 437.95 537.1 439.55 528.95 437.05 L357.6 377.4 357.55 377.4 357.25 378.2 357.25 378.4 357.2 378.6 Q356.95 382.4 359.8 384.05 362.35 385.35 364.65 384.65 L364.85 384.6 364.95 384.55 365.45 384.35 365.85 384.1 Q365.7 383.65 365.85 383.2 366.1 382.6 366.7 382.3 L367.95 382.25 Q368.6 382.5 368.85 383.1 369.15 383.7 368.9 384.35 368.65 385.0 368.05 385.25 L366.85 385.3 366.65 385.25 Q363.55 388.2 359.0 386.4 358.5 386.35 358.4 386.6 L358.4 386.7 Q358.3 387.0 358.75 387.3 361.8 389.45 366.45 388.4 366.85 387.85 366.4 387.4 366.85 387.3 367.45 387.75 368.35 388.0 368.65 386.55 370.65 386.75 370.0 389.0 370.85 389.3 370.8 390.1 370.75 390.65 371.8 391.1 L371.85 391.8 Q373.05 393.6 371.05 394.9 L370.75 395.6 369.6 396.2 Q368.8 396.6 368.7 397.4 368.45 399.9 366.35 399.25 366.85 397.65 365.55 397.4 L363.9 397.6 Q363.8 397.0 364.4 396.25 363.15 396.2 361.4 394.5 361.0 395.25 360.15 395.35 L359.95 394.65 358.75 393.05 Q353.0 386.1 353.6 379.45 L353.65 378.9 354.1 376.9 354.45 375.55 351.1 374.35 351.05 373.7 Q351.05 372.4 352.0 369.7 352.95 367.05 353.85 366.05 L354.25 365.65 M329.0 353.8 Q331.5 355.45 331.5 359.05 L335.0 360.2 Q334.3 361.05 333.65 362.8 L333.55 363.0 Q332.85 365.0 332.85 366.15 L329.45 364.75 Q327.1 367.5 324.1 367.2 322.45 366.8 321.6 365.4 318.6 366.0 318.75 362.1 318.9 360.0 316.65 358.5 L330.05 364.2 Q330.15 363.2 330.6 361.95 L330.65 361.75 Q331.1 360.6 331.65 359.9 L317.7 355.6 Q320.45 355.85 321.65 354.2 324.05 351.1 325.9 353.45 327.45 352.95 329.0 353.8 M324.65 355.2 Q322.4 355.6 322.05 356.1 L328.25 357.7 Q329.25 356.0 327.4 355.25 L324.65 355.2 M380.1 363.95 L380.2 363.8 380.1 363.9 380.1 363.95 M323.85 365.0 Q325.75 365.65 326.05 363.65 L320.25 360.9 Q320.25 361.5 321.65 363.3 323.8 363.75 323.85 365.0" fill="#ff0000" fill-rule="evenodd" stroke="none"/>
  </g>
</svg>
