<?xml version="1.0" encoding="UTF-8" standalone="no"?>
<svg xmlns:xlink="http://www.w3.org/1999/xlink" height="82.8px" width="196.05px" xmlns="http://www.w3.org/2000/svg">
  <g transform="matrix(1.0, 0.0, 0.0, 1.0, -316.25, -344.95)">
    <path d="M375.45 381.8 L379.05 379.2 377.95 375.0 383.75 373.25 385.65 374.0 392.25 366.0 390.65 376.15 392.9 377.05 399.4 369.2 397.85 379.2 400.1 380.15 406.65 372.2 405.1 382.3 407.25 383.15 413.9 375.3 412.3 385.3 512.3 427.75 408.45 395.95 403.2 404.7 403.25 394.4 400.95 393.8 395.7 402.4 395.75 392.15 393.4 391.45 388.15 400.05 388.25 389.85 385.9 389.1 380.7 397.8 380.75 387.55 378.8 386.95 375.45 381.8 M324.8 363.15 L324.1 363.6 320.65 362.35 319.5 362.5 Q316.6 361.65 316.25 360.1 318.6 361.35 320.2 361.2 321.35 360.1 320.55 359.0 318.2 358.0 316.45 356.45 L321.2 357.15 Q322.5 356.9 322.35 355.2 321.2 354.2 318.65 353.5 319.9 352.65 322.65 354.0 323.35 354.2 323.45 354.65 L326.85 355.95 327.1 356.75 Q325.8 357.7 325.15 359.6 324.55 361.35 324.8 363.15 M364.25 367.6 L363.05 368.95 Q361.85 370.5 361.1 372.75 360.25 374.85 360.1 376.9 L360.2 378.7 360.3 379.7 Q361.45 385.05 367.85 389.8 L364.6 411.8 365.7 390.75 353.5 394.2 364.3 389.8 Q361.2 387.2 359.6 384.0 L352.4 385.0 359.05 382.95 Q358.4 381.1 358.25 379.0 L358.25 378.9 353.9 378.0 358.2 377.6 Q358.45 375.4 359.1 373.05 L352.9 369.7 359.75 371.2 Q360.75 368.95 362.05 367.1 L358.9 364.15 362.85 366.2 362.95 366.05 Q364.35 364.65 366.15 363.6 L362.25 357.8 367.2 363.15 Q370.5 361.75 374.5 361.8 L369.1 351.4 376.2 361.95 388.9 344.95 377.25 364.0 Q369.3 363.5 365.0 366.85 L364.25 367.6 M353.6 366.4 L353.85 365.95 357.65 367.35 357.55 367.6 357.15 367.9 356.85 368.15 Q355.45 369.3 352.9 369.7 354.5 371.7 354.9 373.55 L354.95 373.95 355.05 374.35 355.0 374.7 351.25 373.25 351.45 369.2 353.6 366.4 M377.25 377.0 Q377.6 377.75 377.3 378.6 376.95 379.4 376.25 379.8 L374.55 379.9 Q373.65 379.6 373.25 378.8 372.85 377.95 373.2 377.1 373.45 376.3 374.35 375.95 L376.0 375.85 Q376.85 376.2 377.25 377.0" fill="#ff0000" fill-rule="evenodd" stroke="none"/>
  </g>
</svg>
