<?xml version="1.0" encoding="UTF-8" standalone="no"?>
<svg xmlns:xlink="http://www.w3.org/1999/xlink" height="55.6px" width="235.9px" xmlns="http://www.w3.org/2000/svg">
  <g transform="matrix(1.0, 0.0, 0.0, 1.0, -281.95, -192.1)">
    <path d="M451.05 245.15 Q448.8 239.75 447.05 234.95 466.75 216.5 489.85 210.95 499.7 208.55 510.15 208.5 514.2 213.0 517.45 218.75 L517.85 219.5 503.75 229.15 502.65 221.4 Q497.85 222.4 493.3 223.75 471.75 230.15 454.95 245.15 L452.15 247.7 451.05 245.15 M449.75 194.05 Q464.7 191.25 476.9 192.5 492.15 194.1 503.05 202.05 495.15 201.9 487.6 203.4 464.8 207.8 444.3 226.9 435.25 197.3 449.75 194.05 M336.35 238.35 Q322.8 228.6 306.5 223.75 L297.15 221.4 296.05 229.15 281.95 219.5 282.35 218.75 Q285.6 213.0 289.65 208.5 300.1 208.55 309.95 210.95 329.25 215.6 346.15 229.2 349.5 231.9 352.75 234.95 L348.75 245.15 347.65 247.7 344.85 245.15 Q340.75 241.5 336.35 238.35 M355.5 226.9 Q335.0 207.8 312.2 203.4 304.65 201.9 296.75 202.05 307.65 194.1 322.9 192.5 335.1 191.25 350.05 194.05 364.55 197.3 355.5 226.9" fill="#000000" fill-rule="evenodd" stroke="none"/>
  </g>
</svg>
