<?xml version="1.0" encoding="UTF-8" standalone="no"?>
<svg xmlns:xlink="http://www.w3.org/1999/xlink" height="45.05px" width="322.6px" xmlns="http://www.w3.org/2000/svg">
  <g transform="matrix(1.0, 0.0, 0.0, 1.0, -238.6, -148.35)">
    <path d="M512.9 165.3 Q511.35 166.55 510.3 168.0 508.05 170.9 507.65 174.45 L507.55 176.05 Q507.55 177.6 507.85 179.05 508.7 182.65 511.6 185.55 L512.9 186.75 Q515.55 188.95 518.75 190.1 L522.5 191.0 Q518.9 191.0 515.85 189.95 513.3 189.1 511.15 187.55 L510.0 186.65 508.8 185.5 507.65 184.2 Q505.75 181.85 505.15 179.05 504.85 177.65 504.85 176.15 L504.95 174.5 Q505.3 171.4 507.1 168.8 L507.6 168.15 Q508.5 166.9 509.8 165.8 L510.0 165.6 Q512.2 163.75 514.75 162.7 517.85 161.4 521.5 161.3 L523.15 161.0 526.0 160.85 530.6 161.3 Q534.4 159.25 539.2 159.25 L539.45 159.25 539.5 159.25 Q542.35 159.3 544.95 160.1 L545.95 159.5 Q549.6 157.6 554.0 157.6 L555.25 157.65 Q558.4 157.8 561.2 159.1 L560.7 159.15 559.8 158.9 559.3 158.95 Q558.9 159.05 558.55 159.3 L546.95 160.25 546.9 160.25 544.0 162.85 Q542.7 164.1 541.75 165.55 L541.3 166.2 541.25 166.2 540.15 168.5 Q539.15 170.8 538.95 173.4 L538.9 173.55 538.8 175.45 Q538.8 177.3 539.15 179.0 539.55 181.25 540.5 183.25 541.2 184.7 542.3 186.15 L544.0 188.1 Q545.7 189.85 547.65 191.0 L548.35 191.3 560.2 191.75 561.0 191.9 561.05 191.9 561.0 191.95 Q558.3 193.1 555.25 193.3 L554.0 193.35 Q549.55 193.35 545.9 191.4 L541.95 191.75 541.7 191.75 539.2 191.9 Q535.4 191.9 532.2 190.65 L531.85 190.5 530.1 189.6 Q528.3 188.6 526.7 187.15 L525.45 185.85 Q522.7 182.8 521.9 179.05 L521.9 179.0 Q521.55 177.35 521.55 175.6 L521.6 174.0 Q521.95 170.25 524.0 167.2 525.1 165.55 526.7 164.05 L529.0 162.25 530.2 161.5 517.5 162.5 Q515.05 163.55 512.9 165.3 M489.4 160.1 L490.1 160.1 490.1 163.3 493.8 162.8 Q495.65 162.8 498.05 163.5 L500.15 163.85 498.55 163.95 498.35 164.0 493.05 164.5 Q491.0 165.5 489.3 167.2 488.2 168.3 487.45 169.5 485.7 172.1 485.35 175.25 485.2 176.15 485.2 177.1 L485.35 179.05 Q485.75 182.35 487.65 185.05 L489.3 187.0 491.65 188.9 497.75 189.2 496.65 189.6 Q494.75 190.8 493.8 190.8 489.6 190.8 486.25 188.65 L483.9 186.7 482.35 184.9 Q480.45 182.25 480.0 179.05 L479.8 176.8 479.85 175.45 Q480.1 172.45 481.6 169.95 482.5 168.3 483.9 166.9 484.9 165.9 486.0 165.2 L454.85 168.2 453.2 169.7 Q452.2 170.8 451.6 172.1 450.8 173.55 450.55 175.3 L450.35 176.6 450.3 177.7 450.4 179.1 450.8 181.35 Q451.25 182.85 452.05 184.15 L453.2 185.7 454.55 187.0 474.7 188.05 474.15 191.05 Q472.05 191.05 471.25 190.25 L467.15 192.75 467.0 189.25 Q464.15 192.5 458.25 191.8 L453.5 190.75 450.2 193.4 442.55 183.5 441.5 182.45 446.2 179.75 446.2 179.7 446.05 178.3 435.5 178.35 434.35 179.15 433.9 178.75 434.4 174.7 Q426.2 169.55 431.95 165.8 431.35 162.2 432.8 158.65 434.2 154.7 432.8 150.7 434.05 148.3 438.35 148.35 439.65 150.0 439.0 151.65 437.75 153.3 439.0 154.9 437.1 157.4 438.4 159.9 L438.4 160.85 439.5 160.8 440.75 158.25 441.95 158.25 441.95 158.5 446.85 160.7 460.35 160.55 477.85 158.55 481.65 157.8 485.4 160.3 489.4 160.3 489.4 160.1 M524.7 179.05 Q525.55 182.7 528.25 185.7 L528.4 185.9 529.5 187.0 532.85 189.45 534.6 190.75 545.5 191.15 545.2 191.0 Q543.25 189.85 541.55 188.1 L539.8 186.15 539.75 186.05 Q538.75 184.65 538.05 183.25 537.1 181.25 536.65 179.0 536.35 177.3 536.35 175.45 L536.45 173.55 536.45 173.45 Q536.7 170.85 537.7 168.5 L538.8 166.35 539.3 165.55 Q540.25 164.1 541.55 162.85 542.9 161.4 544.45 160.4 L533.35 161.25 533.0 161.3 531.75 162.1 529.5 163.9 Q527.9 165.35 526.8 167.05 524.75 170.1 524.4 173.85 L524.4 173.9 524.3 175.45 Q524.3 177.2 524.65 178.85 L524.7 179.05 M357.85 158.25 L359.05 158.25 360.3 160.8 361.4 160.85 361.4 159.9 Q362.7 157.4 360.8 154.9 362.05 153.3 360.8 151.65 360.15 150.0 361.45 148.35 365.75 148.3 367.0 150.7 365.6 154.7 367.0 158.65 368.45 162.2 367.85 165.8 373.6 169.55 365.4 174.7 L365.9 178.75 365.45 179.15 Q364.95 178.7 364.3 178.35 L353.75 178.3 353.6 179.7 353.6 179.75 358.3 182.45 357.25 183.5 349.6 193.4 346.3 190.75 341.55 191.8 Q335.65 192.5 332.8 189.25 L332.65 192.75 328.55 190.25 Q327.75 191.05 325.65 191.05 L325.1 188.05 345.25 187.0 346.6 185.7 347.75 184.15 Q348.55 182.85 349.0 181.35 L349.4 179.1 349.5 177.7 349.45 176.6 349.25 175.3 Q349.0 173.55 348.2 172.1 347.6 170.8 346.6 169.7 L344.95 168.2 313.8 165.2 Q314.9 165.9 315.9 166.9 317.3 168.3 318.2 169.95 319.7 172.45 319.95 175.45 L320.0 176.8 319.8 179.05 Q319.35 182.25 317.45 184.9 L315.9 186.7 313.55 188.65 Q310.2 190.8 306.0 190.8 305.05 190.8 303.15 189.6 L302.05 189.2 308.15 188.9 310.5 187.0 312.15 185.05 Q314.05 182.35 314.45 179.05 L314.6 177.1 314.45 175.25 Q314.1 172.1 312.35 169.5 L310.5 167.2 Q308.8 165.5 306.75 164.5 L301.45 164.0 301.25 163.95 299.65 163.85 301.75 163.5 Q304.15 162.8 306.0 162.8 L309.7 163.3 309.7 160.1 310.4 160.1 310.4 160.3 314.4 160.3 318.15 157.8 321.95 158.55 339.45 160.55 352.95 160.7 357.85 158.5 357.85 158.25 M354.0 172.85 L356.8 172.85 357.05 166.95 354.0 166.8 354.0 172.85 M361.25 181.8 L361.5 181.75 Q362.15 181.75 362.6 182.2 363.05 182.65 363.05 183.3 363.05 183.95 362.6 184.4 L362.4 184.6 361.5 184.85 Q360.85 184.85 360.4 184.4 359.95 183.95 359.95 183.3 359.95 182.65 360.4 182.2 360.75 181.85 361.25 181.8 M362.6 185.7 L368.9 184.2 Q369.35 185.85 369.35 187.85 L362.8 187.85 362.6 185.7 M437.2 185.7 L437.0 187.85 430.45 187.85 Q430.45 185.85 430.9 184.2 L437.2 185.7 M438.55 181.8 Q439.05 181.85 439.4 182.2 L439.85 183.3 439.4 184.4 Q438.95 184.85 438.3 184.85 L437.4 184.6 437.2 184.4 Q436.75 183.95 436.75 183.3 436.75 182.65 437.2 182.2 437.65 181.75 438.3 181.75 L438.55 181.8 M442.75 166.95 L443.0 172.85 445.8 172.85 445.8 166.8 442.75 166.95 M238.6 159.1 Q241.4 157.8 244.55 157.65 L245.8 157.6 Q250.2 157.6 253.85 159.5 L254.85 160.1 Q257.45 159.3 260.3 159.25 L260.35 159.25 260.6 159.25 Q265.4 159.25 269.2 161.3 L273.8 160.85 276.65 161.0 278.3 161.3 Q281.95 161.4 285.05 162.7 287.6 163.75 289.8 165.6 L290.0 165.8 Q291.3 166.9 292.2 168.15 L292.7 168.8 Q294.5 171.4 294.85 174.5 L294.95 176.15 294.65 179.05 Q294.05 181.85 292.15 184.2 L291.0 185.5 289.8 186.65 288.65 187.55 Q286.5 189.1 283.95 189.95 280.9 191.0 277.3 191.0 L281.05 190.1 Q284.25 188.95 286.9 186.75 L288.2 185.55 Q291.1 182.65 291.95 179.05 L292.25 176.05 292.15 174.45 Q291.75 170.9 289.5 168.0 288.45 166.55 286.9 165.3 284.75 163.55 282.3 162.5 L269.6 161.5 270.8 162.25 273.1 164.05 Q274.7 165.55 275.8 167.2 277.85 170.25 278.2 174.0 L278.25 175.6 277.9 179.0 277.9 179.05 Q277.1 182.8 274.35 185.85 L273.1 187.15 269.7 189.6 267.95 190.5 267.6 190.65 Q264.4 191.9 260.6 191.9 L258.1 191.75 257.85 191.75 253.9 191.4 Q250.25 193.35 245.8 193.35 L244.55 193.3 Q241.5 193.1 238.8 191.95 L238.75 191.9 238.8 191.9 239.6 191.75 251.45 191.3 252.15 191.0 255.8 188.1 257.5 186.15 Q258.6 184.7 259.3 183.25 260.25 181.25 260.65 179.0 261.0 177.3 261.0 175.45 L260.9 173.55 260.85 173.4 Q260.65 170.8 259.65 168.5 L258.55 166.2 258.5 166.2 258.05 165.55 Q257.1 164.1 255.8 162.85 L252.9 160.25 252.85 160.25 241.25 159.3 240.5 158.95 240.0 158.9 239.1 159.15 238.6 159.1 M273.0 167.05 Q271.9 165.35 270.3 163.9 L268.05 162.1 266.8 161.3 266.45 161.25 255.35 160.4 Q256.9 161.4 258.25 162.85 L260.5 165.55 261.0 166.35 262.1 168.5 Q263.1 170.85 263.35 173.45 L263.35 173.55 263.45 175.45 263.15 179.0 Q262.7 181.25 261.75 183.25 L260.05 186.05 260.0 186.15 258.25 188.1 Q256.55 189.85 254.6 191.0 L254.3 191.15 265.2 190.75 266.95 189.45 Q268.75 188.45 270.3 187.0 L271.4 185.9 271.55 185.7 Q274.25 182.7 275.1 179.05 L275.15 178.85 275.5 175.45 275.4 173.9 275.4 173.85 Q275.05 170.1 273.0 167.05" fill="#000000" fill-rule="evenodd" stroke="none"/>
  </g>
</svg>
