<?xml version="1.0" encoding="UTF-8" standalone="no"?>
<svg xmlns:xlink="http://www.w3.org/1999/xlink" height="62.35px" width="229.1px" xmlns="http://www.w3.org/2000/svg">
  <g transform="matrix(1.0, 0.0, 0.0, 1.0, -285.35, -187.45)">
    <path d="M451.55 205.55 L473.0 213.95 Q478.8 231.85 480.8 249.05 M348.25 205.55 L326.8 213.95 Q321.0 231.85 319.0 249.05" fill="none" stroke="#000000" stroke-linecap="round" stroke-linejoin="round" stroke-opacity="0.5019608" stroke-width="1.0"/>
    <path d="M480.8 249.05 Q497.5 250.0 513.95 247.35 510.55 223.7 499.0 201.85 L457.3 187.95 Q456.75 198.0 451.55 205.55 446.65 212.7 437.5 217.5 L452.15 244.8 Q466.55 248.2 480.8 249.05 M319.0 249.05 Q333.25 248.2 347.65 244.8 L362.3 217.5 Q353.15 212.7 348.25 205.55 343.05 198.0 342.5 187.95 L300.8 201.85 Q289.25 223.7 285.85 247.35 302.3 250.0 319.0 249.05" fill="none" stroke="#000000" stroke-linecap="round" stroke-linejoin="round" stroke-width="1.0"/>
  </g>
</svg>
