<?xml version="1.0" encoding="UTF-8" standalone="no"?>
<svg xmlns:xlink="http://www.w3.org/1999/xlink" height="337.7px" width="240.4px" xmlns="http://www.w3.org/2000/svg">
  <g transform="matrix(1.0, 0.0, 0.0, 1.0, -135.9, -217.2)">
    <path d="M330.9 382.45 Q340.9 514.8 376.3 554.9 292.6 477.3 274.45 507.7 278.5 493.5 281.75 479.65 263.25 469.0 243.95 478.9 235.35 483.3 228.25 491.65 L239.85 436.75 Q219.5 428.65 201.9 438.05 197.5 440.45 196.0 443.65 190.8 421.05 191.6 398.15 179.55 386.45 169.65 379.8 159.75 373.1 135.9 388.0 137.1 311.55 160.6 282.3 L162.0 281.8 Q169.6 277.7 176.55 273.45 183.7 268.95 191.6 265.3 195.8 263.35 199.55 261.1 L206.0 256.6 Q212.6 251.4 218.45 245.75 223.95 240.4 231.9 236.35 239.75 232.2 247.7 228.25 251.1 226.55 254.6 225.0 259.0 222.95 263.45 221.1 271.2 218.0 278.6 219.35 279.6 218.4 281.0 217.2 282.25 218.5 282.75 220.65 283.65 235.3 280.25 245.75 287.65 240.2 291.6 229.35 L309.55 290.3 Q326.15 330.95 329.6 373.6 323.6 375.65 330.9 382.45" fill="#000000" fill-rule="evenodd" stroke="none"/>
  </g>
</svg>
