<?xml version="1.0" encoding="UTF-8" standalone="no"?>
<svg xmlns:xlink="http://www.w3.org/1999/xlink" height="121.6px" width="142.2px" xmlns="http://www.w3.org/2000/svg">
  <g transform="matrix(1.0, 0.0, 0.0, 1.0, -328.8, -187.8)">
    <path d="M355.4 189.3 Q357.5 188.25 360.05 187.8 L362.35 195.65 366.6 195.65 371.3 200.8 374.9 201.1 392.8 203.1 396.85 204.1 Q397.9 206.05 399.9 206.1 401.9 206.05 402.95 204.1 L407.0 203.1 424.9 201.1 428.5 200.8 433.2 195.65 437.45 195.65 439.75 187.8 Q442.3 188.25 444.4 189.3 L441.65 195.65 443.75 199.75 446.15 199.65 456.55 199.25 Q459.6 199.75 462.0 200.7 466.25 202.4 468.45 205.6 470.7 208.7 470.95 213.25 471.4 220.4 467.05 231.05 459.85 243.2 452.15 245.9 455.0 253.3 458.8 260.5 453.1 268.0 444.5 273.5 L434.7 267.6 Q448.15 260.85 450.55 246.35 446.85 247.1 443.05 245.75 420.85 239.7 399.9 240.0 378.95 239.7 356.75 245.75 352.95 247.1 349.25 246.35 351.65 260.85 365.1 267.6 L355.3 273.5 Q346.7 268.0 341.0 260.5 344.8 253.3 347.65 245.9 339.95 243.2 332.75 231.05 328.4 220.4 328.85 213.25 329.1 208.7 331.35 205.6 333.55 202.4 337.8 200.7 340.2 199.75 343.25 199.25 L353.65 199.65 356.05 199.75 358.15 195.65 355.4 189.3 M432.1 269.25 Q432.7 269.25 433.15 269.7 433.6 270.15 433.6 270.75 L433.15 271.8 Q432.7 272.25 432.1 272.25 431.5 272.25 431.05 271.8 430.6 271.35 430.6 270.75 430.6 270.15 431.05 269.7 431.5 269.25 432.1 269.25 M433.9 265.15 Q421.65 252.05 399.9 252.85 378.15 252.05 365.9 265.15 357.4 261.85 356.2 254.35 373.0 242.15 399.9 242.3 426.8 242.15 443.6 254.35 442.4 261.85 433.9 265.15 M428.65 269.25 L423.4 284.2 399.9 279.6 376.4 284.2 371.15 269.25 371.15 263.45 Q380.9 255.8 396.0 255.2 L399.9 254.95 403.8 255.2 Q418.9 255.8 428.65 263.45 L428.65 269.25 M425.7 296.3 Q426.3 296.3 426.75 296.75 427.2 297.2 427.2 297.8 427.2 298.4 426.75 298.85 L425.7 299.3 Q425.1 299.3 424.65 298.85 424.2 298.4 424.2 297.8 424.2 297.2 424.65 296.75 425.1 296.3 425.7 296.3 M427.0 289.95 Q426.4 289.95 425.95 289.5 425.5 289.05 425.5 288.45 425.5 287.85 425.95 287.4 426.4 286.95 427.0 286.95 427.6 286.95 428.05 287.4 428.5 287.85 428.5 288.45 L428.05 289.5 Q427.6 289.95 427.0 289.95 M429.1 277.45 Q429.7 277.45 430.15 277.9 430.6 278.35 430.6 278.95 L430.15 280.0 Q429.7 280.45 429.1 280.45 428.5 280.45 428.05 280.0 427.6 279.55 427.6 278.95 427.6 278.35 428.05 277.9 428.5 277.45 429.1 277.45 M369.2 270.75 Q369.2 271.35 368.75 271.8 368.3 272.25 367.7 272.25 367.1 272.25 366.65 271.8 366.2 271.35 366.2 270.75 366.2 270.15 366.65 269.7 367.1 269.25 367.7 269.25 368.3 269.25 368.75 269.7 369.2 270.15 369.2 270.75 M370.7 277.45 Q371.3 277.45 371.75 277.9 372.2 278.35 372.2 278.95 372.2 279.55 371.75 280.0 371.3 280.45 370.7 280.45 370.1 280.45 369.65 280.0 369.2 279.55 369.2 278.95 369.2 278.35 369.65 277.9 370.1 277.45 370.7 277.45 M374.3 288.45 Q374.3 289.05 373.85 289.5 373.4 289.95 372.8 289.95 372.2 289.95 371.75 289.5 371.3 289.05 371.3 288.45 371.3 287.85 371.75 287.4 372.2 286.95 372.8 286.95 373.4 286.95 373.85 287.4 374.3 287.85 374.3 288.45 M374.1 296.3 Q374.7 296.3 375.15 296.75 375.6 297.2 375.6 297.8 L375.15 298.85 374.1 299.3 Q373.5 299.3 373.05 298.85 372.6 298.4 372.6 297.8 372.6 297.2 373.05 296.75 373.5 296.3 374.1 296.3 M377.2 289.45 L399.9 285.05 422.6 289.45 420.65 305.45 420.65 308.8 Q410.3 309.5 399.9 309.35 389.5 309.5 379.15 308.8 L379.15 305.45 377.2 289.45 M375.6 305.1 L375.15 306.15 374.1 306.6 Q373.5 306.6 373.05 306.15 372.6 305.7 372.6 305.1 372.6 304.5 373.05 304.05 373.5 303.6 374.1 303.6 374.7 303.6 375.15 304.05 375.6 304.5 375.6 305.1 M425.7 303.6 Q426.3 303.6 426.75 304.05 427.2 304.5 427.2 305.1 427.2 305.7 426.75 306.15 L425.7 306.6 Q425.1 306.6 424.65 306.15 424.2 305.7 424.2 305.1 424.2 304.5 424.65 304.05 425.1 303.6 425.7 303.6" fill="#000000" fill-rule="evenodd" stroke="none"/>
  </g>
</svg>
