<?xml version="1.0" encoding="UTF-8" standalone="no"?>
<svg xmlns:xlink="http://www.w3.org/1999/xlink" height="138.2px" width="180.6px" xmlns="http://www.w3.org/2000/svg">
  <g transform="matrix(1.0, 0.0, 0.0, 1.0, -309.6, -171.2)">
    <path d="M379.8 180.4 Q374.15 174.0 381.05 171.45 L380.05 180.65 379.8 180.4 M378.65 183.05 L379.7 184.0 379.8 184.1 Q382.1 186.1 384.55 187.25 387.7 188.7 391.15 188.9 397.9 189.15 395.65 195.05 383.3 200.4 365.8 206.9 353.55 210.95 352.3 220.95 353.85 231.25 356.4 241.55 L357.45 245.6 Q363.6 268.45 379.7 308.8 L362.9 307.05 362.9 288.4 355.3 273.5 Q346.7 268.0 341.0 260.5 344.8 253.3 347.65 245.9 344.15 239.9 340.05 234.2 329.25 219.25 314.1 206.65 L309.6 203.0 Q320.65 195.2 338.35 197.4 355.85 189.6 375.4 185.2 L375.4 184.9 Q375.45 181.0 374.55 177.65 375.5 180.1 378.65 183.05 M421.1 184.5 Q425.3 181.2 426.85 178.5 426.15 181.9 426.8 185.6 L426.85 185.75 Q445.05 190.05 461.45 197.4 479.15 195.2 490.2 203.0 L485.7 206.65 Q470.55 219.25 459.75 234.2 455.65 239.9 452.15 245.9 455.0 253.3 458.8 260.5 453.1 268.0 444.5 273.5 L436.9 288.4 436.9 307.05 Q418.45 309.65 399.9 309.35 391.6 309.5 383.3 309.05 378.3 295.25 374.35 286.3 370.35 277.35 366.85 265.15 L362.55 250.35 362.55 250.3 361.0 244.65 360.35 242.15 Q358.05 232.55 356.65 223.05 357.95 213.05 370.15 209.0 401.6 196.9 415.85 188.1 L421.1 184.5 M423.75 173.05 L423.95 173.2 Q427.7 176.5 419.95 182.25 L418.75 171.2 Q422.25 171.85 423.75 173.05" fill="#000000" fill-rule="evenodd" stroke="none"/>
  </g>
</svg>
