<?xml version="1.0" encoding="UTF-8" standalone="no"?>
<svg xmlns:xlink="http://www.w3.org/1999/xlink" height="140.05px" width="118.8px" xmlns="http://www.w3.org/2000/svg">
  <g transform="matrix(1.0, 0.0, 0.0, 1.0, -340.5, -182.6)">
    <path d="M372.65 183.1 Q377.2 208.15 399.9 208.1 422.6 208.15 427.15 183.1 L431.25 186.85 Q440.0 189.0 452.95 193.9 435.85 234.5 458.8 260.5 449.95 282.35 436.9 301.85 L443.5 313.0 Q430.05 319.55 407.7 322.15 405.75 316.3 399.9 316.6 394.05 316.3 392.1 322.15 369.75 319.55 356.3 313.0 L362.9 301.85 Q349.85 282.35 341.0 260.5 363.95 234.5 346.85 193.9 359.8 189.0 368.55 186.85 L372.65 183.1" fill="none" stroke="#000000" stroke-linecap="round" stroke-linejoin="round" stroke-width="1.0"/>
    <path d="M362.9 301.85 Q371.2 306.3 399.9 310.4 L399.9 212.85 Q374.6 212.6 368.55 186.85 M436.9 301.85 Q428.6 306.3 399.9 310.4 M431.25 186.85 Q425.2 212.6 399.9 212.85" fill="none" stroke="#000000" stroke-linecap="round" stroke-linejoin="round" stroke-opacity="0.5019608" stroke-width="1.0"/>
  </g>
</svg>
