<?xml version="1.0" encoding="UTF-8" standalone="no"?>
<svg xmlns:xlink="http://www.w3.org/1999/xlink" height="108.25px" width="117.8px" xmlns="http://www.w3.org/2000/svg">
  <g transform="matrix(1.0, 0.0, 0.0, 1.0, 59.0, 96.35)">
    <path d="M45.95 -49.75 Q45.85 -51.8 45.35 -53.65 46.15 -55.15 46.55 -56.6 48.7 -50.4 53.3 -51.3 L55.1 -46.95 Q56.8 -43.15 58.8 -39.5 53.65 -39.4 49.05 -39.7 L47.4 -35.6 45.75 -40.0 44.25 -40.15 Q46.1 -45.45 45.95 -49.75 M43.2 -78.1 L40.85 -78.5 38.75 -74.1 37.75 -78.95 28.95 -80.1 27.15 -75.65 25.95 -80.45 18.75 -81.05 17.4 -76.45 16.1 -81.2 7.2 -81.55 5.9 -77.3 4.6 -81.55 -0.1 -81.55 -4.8 -81.55 -6.1 -77.3 -7.4 -81.55 -16.3 -81.2 -17.6 -76.45 -18.95 -81.05 -26.15 -80.45 -27.35 -75.65 -29.15 -80.1 -37.95 -78.95 -38.95 -74.1 -41.05 -78.5 -43.4 -78.1 Q-44.9 -87.85 -42.6 -93.0 -41.75 -94.75 -40.35 -95.6 L-39.25 -92.15 Q-40.05 -91.25 -40.05 -90.0 -40.05 -88.7 -39.15 -87.8 -38.2 -86.85 -36.9 -86.85 -35.6 -86.85 -34.7 -87.8 -33.75 -88.7 -33.75 -90.0 -33.75 -91.3 -34.7 -92.25 -35.45 -93.0 -36.45 -93.1 L-37.45 -96.35 Q-35.9 -96.35 -33.95 -95.65 -30.65 -94.4 -28.5 -92.25 -19.3 -83.15 -0.1 -83.35 19.1 -83.15 28.3 -92.25 30.45 -94.4 33.75 -95.65 35.7 -96.35 37.25 -96.35 L36.25 -93.1 Q35.25 -93.0 34.5 -92.25 33.55 -91.3 33.55 -90.0 33.55 -88.7 34.5 -87.8 35.4 -86.85 36.7 -86.85 38.0 -86.85 38.95 -87.8 39.85 -88.7 39.85 -90.0 39.85 -91.25 39.05 -92.15 L40.15 -95.6 Q41.55 -94.75 42.4 -93.0 44.7 -87.85 43.2 -78.1 M18.3 -69.1 L16.6 -65.0 15.6 -69.25 18.3 -69.1 M4.75 -69.5 L7.65 -69.5 5.9 -64.3 4.75 -69.5 M3.8 -58.05 L7.0 -58.0 5.5 -52.9 3.8 -58.05 M37.3 -61.9 L36.1 -67.25 39.3 -66.75 37.3 -61.9 M13.15 -57.75 L17.35 -57.45 15.4 -52.2 13.15 -57.75 M28.35 -68.25 L26.6 -63.4 25.05 -68.6 28.35 -68.25 M35.7 -55.3 L39.1 -54.75 36.6 -49.6 35.7 -55.3 M25.2 -52.2 L24.1 -56.85 27.0 -56.5 25.2 -52.2 M38.0 -41.25 L36.0 -37.1 34.9 -41.85 38.0 -41.25 M25.2 -38.0 L23.8 -43.4 27.0 -43.05 25.2 -38.0 M34.0 -28.35 L36.75 -28.2 35.4 -23.5 34.0 -28.35 M27.5 -28.85 L26.2 -23.9 24.75 -29.1 27.5 -28.85 M15.7 -39.0 L14.15 -44.25 16.75 -44.05 15.7 -39.0 M16.4 -24.8 L15.2 -30.05 18.1 -29.85 16.4 -24.8 M7.85 -30.45 L6.4 -25.3 5.0 -30.55 5.6 -30.55 7.85 -30.45 M7.35 -44.55 L6.1 -39.9 4.75 -44.65 7.35 -44.55 M15.05 -18.4 L18.55 -18.45 17.2 -13.8 15.05 -18.4 M6.4 -13.7 L5.4 -18.2 8.0 -18.25 6.4 -13.7 M6.7 -0.1 L5.3 -4.75 8.35 -4.75 6.7 -0.1 M19.7 -5.05 L18.0 0.8 15.8 -4.9 19.7 -5.05 M36.2 -14.4 L34.0 -18.8 37.6 -18.9 36.2 -14.4 M27.25 -18.65 L25.9 -14.3 23.95 -18.55 27.25 -18.65 M29.0 -5.6 L27.2 -0.4 25.6 -5.4 29.0 -5.6 M34.15 -6.05 L37.35 -6.35 36.0 -1.8 34.15 -6.05 M48.0 -27.75 L46.0 -22.9 45.05 -27.85 48.0 -27.75 M44.2 -19.05 L47.6 -19.15 46.3 -14.7 44.2 -19.05 M45.9 -7.35 L44.9 -3.0 42.8 -7.0 45.9 -7.35 M35.4 4.65 L38.5 4.25 37.0 8.7 35.4 4.65 M28.95 5.35 L27.0 11.3 25.65 5.7 28.95 5.35 M16.0 6.45 L19.3 6.2 17.4 11.9 16.0 6.45 M5.8 11.8 L4.35 6.95 4.35 6.9 7.15 6.8 5.8 11.8 M-25.25 -68.6 L-26.8 -63.4 -28.55 -68.25 -25.25 -68.6 M-36.3 -67.25 L-37.5 -61.9 -39.5 -66.75 -36.3 -67.25 M-36.8 -49.6 L-39.3 -54.75 -35.9 -55.3 -36.8 -49.6 M-24.3 -56.85 L-25.4 -52.2 -27.2 -56.5 -24.3 -56.85 M-7.85 -69.5 L-4.95 -69.5 -6.1 -64.3 -7.85 -69.5 M-15.8 -69.25 L-16.8 -65.0 -18.5 -69.1 -15.8 -69.25 M-15.6 -52.2 L-17.55 -57.45 -13.35 -57.75 -15.6 -52.2 M-4.0 -58.05 L-5.7 -52.9 -7.2 -58.0 -4.0 -58.05 M-45.55 -53.65 Q-46.05 -51.8 -46.15 -49.75 -46.3 -45.45 -44.45 -40.15 L-45.95 -40.0 -47.6 -35.6 -49.25 -39.7 Q-53.85 -39.4 -59.0 -39.5 -57.0 -43.15 -55.3 -46.95 L-53.5 -51.3 Q-48.9 -50.4 -46.75 -56.6 -46.35 -55.15 -45.55 -53.65 M-45.25 -27.85 L-46.2 -22.9 -48.2 -27.75 -45.25 -27.85 M-46.5 -14.7 L-47.8 -19.15 -44.4 -19.05 -46.5 -14.7 M-43.0 -7.0 L-45.1 -3.0 -46.1 -7.35 -43.0 -7.0 M-6.3 -39.9 L-7.55 -44.55 -4.95 -44.65 -6.3 -39.9 M-15.9 -39.0 L-16.95 -44.05 -14.35 -44.25 -15.9 -39.0 M-15.4 -30.05 L-16.6 -24.8 -18.3 -29.85 -15.4 -30.05 M-8.05 -30.45 L-5.8 -30.55 -5.2 -30.55 -6.6 -25.3 -8.05 -30.45 M-34.2 -28.35 L-35.6 -23.5 -36.95 -28.2 -34.2 -28.35 M-27.2 -43.05 L-24.0 -43.4 -25.4 -38.0 -27.2 -43.05 M-38.2 -41.25 L-35.1 -41.85 -36.2 -37.1 -38.2 -41.25 M-24.95 -29.1 L-26.4 -23.9 -27.7 -28.85 -24.95 -29.1 M-24.15 -18.55 L-26.1 -14.3 -27.45 -18.65 -24.15 -18.55 M-37.8 -18.9 L-34.2 -18.8 -36.4 -14.4 -37.8 -18.9 M-34.35 -6.05 L-36.2 -1.8 -37.55 -6.35 -34.35 -6.05 M-29.2 -5.6 L-25.8 -5.4 -27.4 -0.4 -29.2 -5.6 M-5.6 -18.2 L-6.6 -13.7 -8.2 -18.25 -5.6 -18.2 M-17.4 -13.8 L-18.75 -18.45 -15.25 -18.4 -17.4 -13.8 M-16.0 -4.9 L-18.2 0.8 -19.9 -5.05 -16.0 -4.9 M-7.95 -4.75 L-6.3 -4.75 -5.5 -4.75 -6.9 -0.1 -8.55 -4.75 -7.95 -4.75 M-7.35 6.8 L-4.55 6.9 -4.55 6.95 -6.0 11.8 -7.35 6.85 -7.35 6.8 M-17.6 11.9 L-19.5 6.2 -16.2 6.45 -17.6 11.9 M-25.85 5.7 L-27.2 11.3 -29.15 5.35 -25.85 5.7 M-37.2 8.7 L-38.7 4.25 -35.6 4.65 -37.2 8.7" fill="#000000" fill-opacity="0.4" fill-rule="evenodd" stroke="none"/>
  </g>
</svg>
