<?xml version="1.0" encoding="UTF-8" standalone="no"?>
<svg xmlns:xlink="http://www.w3.org/1999/xlink" height="217.2px" width="180.6px" xmlns="http://www.w3.org/2000/svg">
  <g transform="matrix(1.0, 0.0, 0.0, 1.0, -309.6, -181.4)">
    <path d="M356.5 190.4 Q364.1 187.9 372.05 186.0 L372.15 185.75 380.1 181.4 380.1 181.55 379.5 186.55 Q379.3 189.7 379.6 193.15 379.8 196.2 380.4 199.5 L381.2 201.75 Q387.75 220.25 399.9 240.0 412.0 220.3 418.65 201.75 L419.4 199.5 Q420.0 196.2 420.2 193.15 L420.35 186.55 419.7 181.4 427.65 185.75 427.8 186.0 Q435.0 187.7 441.9 189.95 L443.95 190.6 Q450.3 192.7 456.45 195.25 L461.45 197.4 468.0 196.95 Q481.25 196.7 490.2 203.0 L485.7 206.65 Q468.2 221.25 456.45 239.0 L452.15 245.9 Q454.1 250.9 456.45 255.85 L458.8 260.5 Q452.75 271.35 447.2 276.95 445.45 311.15 450.15 347.5 453.75 369.6 454.6 393.45 L451.8 394.55 Q439.45 398.7 425.3 398.6 416.2 395.9 413.05 389.25 L399.9 319.6 386.75 389.25 Q383.6 395.9 374.5 398.6 360.35 398.7 348.0 394.55 L345.2 393.45 Q346.05 369.6 349.65 347.5 354.35 311.15 352.6 276.95 347.05 271.35 341.0 260.5 L342.85 256.9 Q345.5 251.45 347.65 245.9 344.15 239.9 340.05 234.2 329.25 219.25 314.1 206.65 L309.6 203.0 Q319.15 196.25 333.6 197.0 L338.35 197.4 340.05 196.65 Q347.8 193.25 356.0 190.6 L356.5 190.4 M450.4 233.15 L420.65 235.1 420.65 238.45 450.4 236.5 450.4 233.15 M402.75 318.15 Q403.4 318.8 404.3 318.8 405.2 318.8 405.85 318.15 406.5 317.5 406.5 316.6 406.5 315.7 405.85 315.05 405.2 314.4 404.3 314.4 403.4 314.4 402.75 315.05 402.1 315.7 402.1 316.6 402.1 317.5 402.75 318.15 M387.2 314.4 L387.2 311.05 357.45 305.75 357.45 309.1 387.2 314.4 M403.8 252.0 Q403.15 251.35 402.25 251.35 401.35 251.35 400.7 252.0 400.05 252.65 400.05 253.55 400.05 254.45 400.7 255.1 401.35 255.75 402.25 255.75 403.15 255.75 403.8 255.1 404.45 254.45 404.45 253.55 404.45 252.65 403.8 252.0 M406.5 284.4 Q406.5 283.5 405.85 282.85 405.2 282.2 404.3 282.2 403.4 282.2 402.75 282.85 402.1 283.5 402.1 284.4 402.1 285.3 402.75 285.95 403.4 286.6 404.3 286.6 405.2 286.6 405.85 285.95 406.5 285.3 406.5 284.4 M442.35 305.75 L412.6 311.05 412.6 314.4 442.35 309.1 442.35 305.75" fill="#000000" fill-rule="evenodd" stroke="none"/>
  </g>
</svg>
