<?xml version="1.0" encoding="UTF-8" standalone="no"?>
<svg xmlns:xlink="http://www.w3.org/1999/xlink" height="313.0px" width="180.6px" xmlns="http://www.w3.org/2000/svg">
  <g transform="matrix(1.0, 0.0, 0.0, 1.0, -309.6, -190.0)">
    <path d="M357.7 190.0 Q357.15 194.55 356.95 199.25 L356.95 199.8 Q356.75 204.2 356.85 208.8 357.2 225.75 361.3 244.6 367.8 258.65 372.15 274.85 379.0 300.4 380.65 331.4 373.65 398.55 372.25 459.65 L372.15 464.35 371.95 481.4 371.95 481.7 Q371.85 492.45 372.0 503.0 340.75 498.55 329.1 477.5 L332.35 462.4 337.5 435.5 339.9 421.4 Q343.75 397.75 346.4 374.35 L346.45 374.0 346.5 373.6 355.1 318.75 Q356.25 297.9 352.1 276.4 346.75 270.85 341.0 260.5 344.8 253.3 347.65 245.9 342.6 237.2 336.3 229.25 326.7 217.15 314.1 206.65 L309.6 203.0 Q319.15 196.25 333.6 197.0 L338.35 197.4 342.1 195.8 349.8 192.7 357.7 190.0 M450.0 192.7 L457.7 195.8 461.45 197.4 466.2 197.0 468.2 196.95 Q476.45 196.8 483.05 199.25 L484.25 199.75 Q487.45 201.05 490.2 203.0 L485.7 206.65 483.15 208.8 Q476.6 214.5 470.85 220.7 459.95 232.45 452.15 245.9 455.0 253.3 458.8 260.5 453.05 270.85 447.7 276.4 443.55 297.9 444.7 318.75 L453.3 373.6 453.35 374.0 Q458.3 417.85 467.45 462.4 L467.85 464.35 470.7 477.5 468.05 481.7 Q455.8 499.0 427.8 503.0 L427.85 481.4 427.55 459.65 Q426.15 398.55 419.15 331.4 421.8 280.75 438.5 244.6 443.75 220.6 442.85 199.8 442.65 194.8 442.1 190.0 L450.0 192.7" fill="#000000" fill-rule="evenodd" stroke="none"/>
  </g>
</svg>
