<?xml version="1.0" encoding="UTF-8" standalone="no"?>
<svg xmlns:xlink="http://www.w3.org/1999/xlink" height="153.2px" width="63.25px" xmlns="http://www.w3.org/2000/svg">
  <g transform="matrix(1.0, 0.0, 0.0, 1.0, -284.4, -203.0)">
    <path d="M340.05 234.2 Q344.15 239.9 347.65 245.9 345.5 251.45 342.85 256.9 L341.0 260.5 Q333.7 273.9 322.8 286.25 330.2 295.4 332.35 305.65 L332.35 305.7 332.0 306.55 Q325.0 325.4 323.3 346.95 L320.65 349.0 320.45 349.1 Q316.05 352.15 311.45 353.9 305.8 356.05 299.9 356.2 L297.25 356.15 290.2 355.1 Q284.5 329.2 284.6 306.8 L284.55 306.3 Q284.3 303.35 284.55 300.5 L303.8 304.95 313.2 259.1 297.65 255.15 Q298.35 250.4 298.45 245.65 296.7 239.3 296.25 233.65 295.45 224.1 298.45 216.5 302.75 207.8 309.6 203.0 L314.1 206.65 Q329.25 219.25 340.05 234.2" fill="#000000" fill-rule="evenodd" stroke="none"/>
  </g>
</svg>
