<?xml version="1.0" encoding="UTF-8" standalone="no"?>
<svg xmlns:xlink="http://www.w3.org/1999/xlink" height="90.6px" width="173.9px" xmlns="http://www.w3.org/2000/svg">
  <g transform="matrix(1.0, 0.0, 0.0, 1.0, -312.95, -188.1)">
    <path d="M364.1 188.1 Q372.25 195.5 382.75 201.9 390.65 206.7 399.9 210.9 409.15 206.7 417.05 201.9 427.55 195.5 435.7 188.1 L436.4 188.3 463.2 194.4 Q475.7 193.6 486.85 196.9 L484.6 199.85 Q473.85 214.4 467.05 231.05 459.85 243.2 452.15 245.9 L448.45 246.6 456.2 263.65 Q453.9 266.2 451.2 268.55 L444.5 278.7 442.55 277.35 Q421.65 263.0 399.9 256.7 378.15 263.0 357.25 277.35 L355.3 278.7 348.6 268.55 Q345.9 266.2 343.6 263.65 L351.35 246.6 347.65 245.9 Q339.95 243.2 332.75 231.05 325.95 214.4 315.2 199.85 L312.95 196.9 Q324.1 193.6 336.6 194.4 L364.1 188.1" fill="#000000" fill-rule="evenodd" stroke="none"/>
  </g>
</svg>
