<?xml version="1.0" encoding="UTF-8" standalone="no"?>
<svg xmlns:xlink="http://www.w3.org/1999/xlink" height="161.35px" width="223.4px" xmlns="http://www.w3.org/2000/svg">
  <g transform="matrix(1.0, 0.0, 0.0, 1.0, -288.15, -193.05)">
    <path d="M358.3 196.95 Q377.65 204.3 397.05 204.75 L398.55 204.75 398.85 204.75 399.55 204.75 399.8 204.75 399.9 204.75 400.15 204.75 400.85 204.75 401.15 204.75 402.65 204.75 Q422.05 204.3 441.4 196.95 L441.8 196.8 441.85 196.8 Q446.3 195.1 450.7 193.05 L457.2 195.6 461.35 197.4 Q479.05 195.2 490.1 203.0 L492.15 204.6 494.65 206.95 491.7 208.45 Q483.6 212.6 475.55 216.05 L475.0 216.3 469.6 218.55 464.85 220.35 Q453.25 224.65 441.85 227.5 430.5 230.35 419.3 231.7 L416.65 309.1 413.55 309.25 399.9 309.4 399.8 309.4 Q392.95 309.5 386.15 309.25 L383.05 309.1 380.4 231.7 Q369.2 230.35 357.85 227.5 346.45 224.65 334.85 220.35 L330.1 218.55 324.7 216.3 324.15 216.05 Q316.1 212.6 308.0 208.45 L305.05 206.95 307.55 204.6 309.6 203.0 Q320.65 195.2 338.35 197.4 L342.5 195.6 Q345.7 194.25 349.0 193.05 353.4 195.1 357.85 196.8 L357.9 196.8 358.3 196.95 M399.05 212.2 L399.2 212.2 399.5 212.15 399.2 212.15 399.05 212.2 M400.65 212.2 L400.5 212.15 400.2 212.15 400.5 212.2 400.65 212.2 M399.05 247.55 L399.2 247.55 399.5 247.5 399.2 247.5 399.05 247.55 M400.5 225.95 L400.65 225.95 400.5 225.9 400.2 225.95 400.5 225.95 M399.2 225.9 L399.05 225.95 399.2 225.95 399.5 225.95 399.2 225.9 M400.2 247.5 L400.5 247.55 400.65 247.55 400.5 247.5 400.2 247.5 M400.65 261.3 L400.5 261.25 400.2 261.3 400.5 261.3 400.65 261.3 M399.05 261.3 L399.2 261.3 399.5 261.3 399.2 261.25 399.05 261.3 M327.35 346.35 Q322.3 349.0 317.15 350.75 311.15 352.8 305.0 353.7 L304.25 353.8 296.8 354.4 293.8 352.5 288.2 326.95 288.15 323.4 288.3 323.4 297.95 324.05 298.2 324.05 Q311.7 324.05 325.25 320.1 L327.35 346.35 M474.45 320.1 Q488.0 324.05 501.5 324.05 L501.75 324.05 511.4 323.4 511.55 323.4 511.5 326.95 505.9 352.5 502.9 354.4 495.45 353.8 494.7 353.7 Q488.55 352.8 482.55 350.75 477.4 349.0 472.35 346.35 L474.45 320.1" fill="#000000" fill-rule="evenodd" stroke="none"/>
  </g>
</svg>
