<?xml version="1.0" encoding="UTF-8" standalone="no"?>
<svg xmlns:xlink="http://www.w3.org/1999/xlink" height="99.2px" width="245.75px" xmlns="http://www.w3.org/2000/svg">
  <g transform="matrix(1.0, 0.0, 0.0, 1.0, -246.35, -374.25)">
    <path d="M249.15 391.25 L253.2 388.35 Q254.85 387.35 255.8 387.15 257.45 387.0 258.15 388.9 L258.75 387.3 258.9 386.85 259.7 384.35 Q261.05 381.45 265.2 380.9 271.2 379.9 280.05 382.65 289.95 386.25 296.15 392.7 L299.55 385.7 303.5 377.45 Q304.95 374.55 307.8 375.75 310.35 373.8 313.4 375.75 315.8 375.75 315.9 377.45 315.8 379.4 313.7 379.6 313.65 382.1 311.4 382.6 307.8 383.85 304.4 387.5 302.4 389.6 300.45 392.5 L301.1 392.75 Q302.25 393.2 301.65 395.45 L301.45 396.1 Q301.1 397.55 301.05 398.75 300.55 402.7 300.6 406.7 L334.4 420.3 349.95 426.15 361.2 430.3 367.75 432.65 Q383.05 438.0 396.25 442.05 L408.85 445.7 Q418.8 448.5 420.45 446.1 L422.85 446.9 438.75 451.85 446.4 454.0 Q468.15 459.95 491.6 464.3 475.8 480.35 422.1 466.55 L414.35 464.45 412.25 463.85 398.3 459.6 Q387.95 456.3 376.5 452.25 L349.35 442.2 343.05 439.7 332.1 435.4 317.05 429.2 307.7 425.3 301.1 422.6 Q301.15 425.3 301.7 427.5 302.25 427.4 302.4 427.85 302.75 428.55 302.25 429.4 299.45 432.8 295.15 434.75 L292.85 435.4 Q288.8 435.75 286.2 432.6 284.7 430.5 284.65 427.85 L284.05 427.85 280.7 434.8 276.65 443.0 Q275.25 445.9 272.35 444.75 269.85 446.75 266.75 444.75 264.35 444.75 264.3 443.0 264.45 441.1 266.45 440.9 266.55 438.4 268.75 437.9 272.35 436.6 275.85 433.0 278.3 430.4 280.75 426.5 L280.55 426.05 Q272.05 430.1 262.5 425.5 254.05 420.8 252.2 412.35 249.55 409.6 250.2 406.55 250.1 405.5 249.45 404.85 247.5 406.3 246.95 405.05 246.45 403.35 248.3 403.4 250.25 403.5 251.15 404.75 L251.4 404.45 252.35 402.5 Q250.4 403.5 249.3 402.1 248.7 401.1 248.4 399.15 L248.0 393.65 Q247.95 393.3 248.05 392.9 248.15 392.0 249.15 391.25 M297.95 401.3 Q297.6 403.8 297.8 405.6 M288.65 417.2 L298.85 421.6 Q299.0 425.3 299.85 428.7 294.3 435.8 289.8 433.7 283.85 430.7 286.45 422.75 L288.65 417.2 M297.95 401.3 Q296.55 403.0 294.6 404.25 L297.8 405.6 M255.0 414.7 Q257.25 420.95 265.05 424.5 271.95 427.1 277.4 424.9 275.35 424.35 272.45 423.1 263.7 419.75 256.45 415.6 L255.0 414.7" fill="none" stroke="#000000" stroke-linecap="round" stroke-linejoin="round" stroke-width="1.0"/>
    <path d="M263.15 391.95 L263.75 391.85 264.25 391.25 Q264.45 390.9 264.25 390.6 264.2 390.15 263.85 390.1 L263.25 390.15 Q262.95 390.35 262.75 390.7 L262.75 391.4 Q262.85 391.85 263.15 391.95 M260.05 397.7 L259.1 397.35 258.55 398.0 257.6 398.2 Q257.15 398.0 257.05 397.5 L257.1 396.5 257.15 396.15 Q257.45 395.5 257.9 395.15 258.35 394.7 258.8 394.9 259.25 395.1 259.4 395.7 L259.4 396.4 266.55 399.1 267.2 398.55 268.35 398.45 270.3 393.9 269.85 393.2 Q269.45 392.45 269.7 391.7 270.0 391.0 270.75 390.75 L272.1 390.65 Q272.85 390.9 273.2 391.65 273.5 392.3 273.2 393.05 272.95 393.75 272.3 394.1 L271.1 394.2 269.05 398.75 269.55 399.4 269.7 400.35 277.95 403.5 Q278.15 403.1 278.65 402.9 279.3 402.65 279.95 402.9 280.7 403.1 281.0 403.7 281.25 404.4 281.0 405.1 L280.55 405.8 280.15 406.05 278.75 406.1 Q278.1 405.9 277.8 405.2 L277.7 404.7 277.7 404.25 269.4 401.2 269.3 401.4 268.7 401.75 267.6 401.9 265.2 407.1 265.85 407.8 Q266.15 408.5 265.95 409.2 265.65 409.9 264.95 410.25 264.25 410.55 263.55 410.25 262.8 410.0 262.5 409.35 262.2 408.65 262.5 407.9 262.75 407.25 263.4 406.9 L264.75 406.85 266.95 401.6 266.35 400.9 266.15 400.1 266.15 400.0 261.0 398.1 M258.15 388.9 L255.45 395.85 252.35 402.5 M277.85 395.5 Q277.55 395.7 277.4 396.05 277.25 396.45 277.4 396.75 277.55 397.2 278.0 397.3 L278.65 397.25 279.2 396.7 279.15 396.0 Q279.0 395.55 278.65 395.45 L277.85 395.5 M258.9 386.85 Q260.3 384.35 264.15 383.8 270.15 382.8 279.0 385.55 288.8 389.1 294.85 395.4 L296.15 392.7 299.4 394.0 300.45 392.5 M301.45 396.1 Q300.15 399.05 297.95 401.3 M297.8 405.6 L300.6 406.7 M294.6 404.25 L294.15 404.0 291.65 410.15 288.65 417.2 M298.85 421.6 Q299.05 421.65 299.3 421.8 L301.1 422.6 M291.65 410.15 L288.5 408.95 282.65 422.6 282.65 422.75 281.6 424.9 281.25 425.7 280.75 426.5 284.05 427.85 284.7 426.4 286.45 422.75 M299.85 428.7 Q301.1 427.55 301.7 427.5 M284.65 427.85 L284.7 426.4 M491.6 464.3 Q474.35 465.15 461.0 462.95 449.35 463.3 434.0 460.4 L425.6 458.6 408.8 454.2 405.15 453.05 386.45 447.1 358.25 437.55 351.65 435.2 340.25 431.15 324.5 425.4 324.25 425.3 315.2 422.0 Q310.8 422.1 307.7 425.3 M271.15 409.25 L271.2 410.0 271.75 410.5 272.45 410.45 272.9 409.9 272.9 409.2 272.4 408.75 Q272.05 408.6 271.65 408.75 271.25 408.9 271.15 409.25 M257.6 403.3 L258.05 403.7 258.6 403.65 259.1 403.05 259.1 402.35 258.65 401.9 258.05 402.0 257.6 402.5 Q257.45 402.9 257.6 403.3 M250.2 406.55 L251.15 404.75 M255.0 414.7 Q253.25 413.55 252.2 412.35 M282.65 422.75 Q280.1 423.75 273.6 420.9 264.85 417.45 257.6 413.3 250.25 409.2 251.4 404.45 M281.25 425.7 L280.55 426.05 M277.4 424.9 Q280.2 425.55 281.6 424.9 M420.45 446.1 L420.95 447.9 Q422.0 450.5 424.15 452.15 L432.25 455.2 439.5 457.55 453.2 461.2 461.0 462.95 M294.85 395.4 L288.5 408.95 M299.4 394.0 Q296.75 398.25 294.15 404.0" fill="none" stroke="#000000" stroke-linecap="round" stroke-linejoin="round" stroke-opacity="0.5019608" stroke-width="1.0"/>
  </g>
</svg>
