<?xml version="1.0" encoding="UTF-8" standalone="no"?>
<svg xmlns:xlink="http://www.w3.org/1999/xlink" height="125.2px" width="296.85px" xmlns="http://www.w3.org/2000/svg">
  <g transform="matrix(1.0, 0.0, 0.0, 1.0, -229.15, -368.95)">
    <path d="M340.4 369.45 Q337.5 372.3 334.65 374.3 322.05 383.75 310.7 379.2 M340.4 369.45 L322.85 398.0 Q311.0 397.3 304.5 402.35 L303.35 403.5 Q303.3 405.5 305.05 407.3 306.55 408.8 309.2 410.1 L313.45 411.7 317.85 413.1 323.95 414.5 332.65 411.95 335.55 413.1 345.35 401.1 343.05 416.25 346.4 417.65 356.1 405.8 353.85 420.8 357.2 422.25 366.95 410.4 364.7 425.5 367.95 426.75 377.9 415.0 375.5 430.0 525.5 493.65 369.65 445.95 361.8 459.1 361.85 443.7 358.45 442.7 350.6 455.7 350.65 440.25 347.1 439.25 339.25 452.15 339.45 436.85 335.9 435.7 328.1 448.7 328.15 433.35 325.2 432.45 320.25 424.8 314.55 421.95 Q312.35 420.8 310.25 420.15 308.05 419.25 306.15 418.8 303.2 418.1 301.1 418.2 299.55 418.3 298.4 419.0 L297.3 420.1 297.5 421.6 Q299.25 429.65 308.75 436.7 L303.9 469.8 Q303.45 465.8 302.55 462.6 298.95 447.3 287.3 443.4 291.5 432.1 285.6 429.5 291.6 425.2 287.9 419.0 L288.25 418.25 Q289.55 416.3 289.65 414.3 L289.5 414.1 283.85 411.95 283.95 411.2 244.2 396.75 243.2 397.5 237.95 395.55 236.3 395.8 Q231.9 394.55 231.35 392.2 230.6 391.65 230.25 390.75 229.2 388.5 230.05 386.15 230.85 383.8 233.1 382.8 233.95 382.4 234.95 382.3 236.9 381.05 240.95 383.0 242.05 383.4 242.15 384.05 L247.35 385.95 247.7 387.15 287.4 401.6 287.85 400.95 293.55 403.05 293.65 403.1 Q295.05 401.3 295.35 399.05 L295.4 398.25 Q302.3 395.75 300.35 388.7 306.55 390.45 310.7 379.2" fill="none" stroke="#000000" stroke-linecap="round" stroke-linejoin="round" stroke-width="1.0"/>
    <path d="M310.7 379.2 L321.3 394.95 340.4 369.45 M310.7 379.2 L318.8 394.7 Q312.8 394.65 307.8 396.75 L300.35 388.7 306.25 397.5 Q303.55 399.05 301.45 401.15 L301.35 401.4 295.4 398.25 300.15 402.7 Q298.15 405.45 296.65 408.8 L286.4 406.6 295.7 411.65 Q294.65 415.2 294.3 418.4 L287.9 419.0 294.45 420.4 294.35 420.5 Q294.6 423.7 295.65 426.45 L285.6 429.5 296.4 428.1 Q298.8 432.8 303.5 436.7 L287.3 443.4 305.6 438.15 303.9 469.8 M238.8 387.75 Q235.1 386.8 231.65 386.75 234.3 389.1 237.85 390.6 239.15 390.95 239.75 389.6 240.15 388.25 238.8 387.75 240.8 387.4 240.55 384.9 238.8 383.3 234.95 382.3 M240.55 384.9 Q241.85 384.75 242.15 384.05 M237.95 395.55 Q238.2 394.85 237.3 393.9 234.9 394.05 231.35 392.2 M237.3 393.9 Q239.05 392.2 237.85 390.6 M247.7 387.15 Q245.7 388.6 244.75 391.5 243.85 394.05 244.2 396.75 M309.2 410.1 Q307.75 411.05 306.65 414.0 305.6 417.05 306.15 418.8 M310.25 420.15 Q309.65 419.2 310.95 415.55 312.25 412.05 313.45 411.7 M318.55 415.95 L321.0 415.85 Q322.35 416.3 322.95 417.5 323.4 418.65 323.0 419.9 322.45 421.2 321.35 421.8 L318.85 421.9 Q317.45 421.5 316.95 420.2 316.35 418.95 316.8 417.7 317.25 416.5 318.55 415.95 M314.55 421.95 Q314.1 420.2 315.15 417.1 316.4 414.05 317.85 413.1 M297.3 420.1 L297.2 417.4 Q297.45 414.35 298.7 411.15 299.75 407.8 301.65 405.45 L303.35 403.5 M287.4 401.6 L284.15 405.8 286.4 406.6 Q290.15 406.0 292.25 404.25 L292.75 403.9 293.35 403.4 293.55 403.05 M286.4 406.6 Q288.8 409.6 289.4 412.35 L289.45 412.95 289.65 413.55 289.5 414.1 M305.05 407.3 Q303.2 407.4 301.45 412.3 299.75 417.0 301.1 418.2 M283.95 411.2 L284.15 405.8 M323.95 414.5 L325.55 420.9 Q327.9 418.7 332.25 420.05 L441.5 461.8 Q445.55 463.6 446.35 464.85 L525.5 493.65 M446.35 464.85 Q444.85 465.45 440.6 464.25 L330.0 426.0 Q326.0 424.1 325.55 420.9 L320.25 424.8 M367.95 426.75 L370.55 430.95 377.9 415.0 M364.7 425.5 L364.65 425.4 359.7 426.2 357.2 422.25 M375.5 430.0 L370.55 430.95 M345.35 401.1 L338.1 417.15 343.05 416.25 M335.55 413.1 L338.1 417.15 M328.15 433.35 L332.7 432.0 335.9 435.7 M339.25 452.15 L343.95 435.3 339.45 436.85 M353.85 420.8 L353.75 420.75 353.15 421.0 348.9 421.8 346.4 417.65 M347.1 439.25 L347.1 439.2 346.75 438.65 343.95 435.3 M350.65 440.25 L355.15 438.8 358.4 442.65 358.45 442.7 M361.85 443.7 L361.95 443.7 366.45 442.2 369.6 445.95 369.65 445.95 M348.9 421.8 L356.1 405.8 M359.7 426.2 L366.95 410.4 M366.45 442.2 L361.8 459.1 M350.6 455.7 L355.15 438.8 M328.1 448.7 L332.7 432.0" fill="none" stroke="#000000" stroke-linecap="round" stroke-linejoin="round" stroke-opacity="0.5019608" stroke-width="1.0"/>
  </g>
</svg>
