<?xml version="1.0" encoding="UTF-8" standalone="no"?>
<svg xmlns:xlink="http://www.w3.org/1999/xlink" height="153.15px" width="163.1px" xmlns="http://www.w3.org/2000/svg">
  <g transform="matrix(1.0, 0.0, 0.0, 1.0, -204.8, -369.2)">
    <path d="M217.5 372.65 L213.3 384.15 M232.85 391.3 L237.05 379.8 M246.85 383.3 L242.6 394.95 M291.6 413.55 L296.1 401.25 M322.75 410.9 L318.15 423.6 M306.05 404.85 L301.55 417.35 M320.05 409.95 L315.45 422.6 M307.5 520.0 Q340.55 506.15 357.5 444.8 359.0 439.25 354.65 437.5 L341.75 432.65 M335.95 415.7 L331.25 428.55 M333.8 429.6 L338.45 416.7" fill="none" stroke="#000000" stroke-linecap="round" stroke-linejoin="round" stroke-opacity="0.5019608" stroke-width="1.0"/>
    <path d="M213.3 384.15 L232.85 391.3 M237.05 379.8 L217.5 372.65 Q213.8 370.35 209.55 369.7 206.85 372.3 205.85 375.65 205.1 378.2 205.35 381.2 209.0 383.3 213.3 384.15 M237.05 379.8 Q243.2 379.2 246.85 383.3 272.7 389.9 296.1 401.25 302.1 400.25 306.05 404.85 L320.05 409.95 Q321.9 409.5 322.75 410.9 L335.95 415.7 Q337.65 415.1 338.45 416.7 L367.4 427.2 Q367.1 430.5 366.05 433.5 364.85 437.15 362.6 440.45 350.4 485.25 328.65 508.6 319.05 517.05 307.5 520.0 L296.85 521.85 Q336.9 500.9 345.15 441.05 345.95 434.4 341.75 432.65 L341.65 432.6 341.55 432.5 333.8 429.6 Q332.15 430.1 331.25 428.55 L318.15 423.6 Q316.4 424.2 315.45 422.6 L301.55 417.35 Q294.6 418.2 291.6 413.55 265.75 406.95 242.6 394.95 236.65 395.9 232.85 391.3" fill="none" stroke="#000000" stroke-linecap="round" stroke-linejoin="round" stroke-width="1.0"/>
  </g>
</svg>
