<?xml version="1.0" encoding="UTF-8" standalone="no"?>
<svg xmlns:xlink="http://www.w3.org/1999/xlink" height="214.4px" width="316.9px" xmlns="http://www.w3.org/2000/svg">
  <g transform="matrix(1.0, 0.0, 0.0, 1.0, 310.85, -26.1)">
    <path d="M-304.3 39.7 L-310.85 37.3 -306.8 26.1 -300.25 28.5 -304.3 39.7" fill="url(#gradient0)" fill-rule="evenodd" stroke="none"/>
    <path d="M-81.9 120.65 L-304.3 39.7 -300.25 28.5 -77.85 109.45 -81.9 120.65" fill="url(#gradient1)" fill-rule="evenodd" stroke="none"/>
    <path d="M-73.15 127.35 L-81.9 120.65 -77.85 109.45 -66.9 110.2 -73.15 127.35" fill="url(#gradient2)" fill-rule="evenodd" stroke="none"/>
    <path d="M-66.1 127.0 L-73.15 127.35 -66.9 110.2 -62.0 115.75 -64.05 121.4 -66.1 127.0" fill="url(#gradient3)" fill-rule="evenodd" stroke="none"/>
    <path d="M-21.1 146.8 Q-17.75 123.05 -36.2 124.3 L-36.55 124.35 -37.25 124.5 Q-54.85 131.8 -66.1 127.0 L-64.05 121.4 Q-50.3 124.2 -40.0 118.5 -32.4 114.2 -25.85 114.85 -20.9 115.45 -16.65 118.8 L-17.05 123.5 -17.8 130.45 Q-19.0 138.75 -21.1 146.8" fill="url(#gradient4)" fill-rule="evenodd" stroke="none"/>
    <path d="M-62.0 115.75 Q-53.4 116.85 -46.55 114.4 L-48.6 105.95 -52.7 107.65 -46.75 91.25 -40.0 118.5 Q-50.3 124.2 -64.05 121.4 L-62.0 115.75" fill="url(#gradient5)" fill-rule="evenodd" stroke="none"/>
    <path d="M-46.75 91.25 L-35.1 105.25 -37.25 104.45 -36.2 110.05 Q-32.6 109.05 -29.4 108.95 L-27.85 94.9 -25.85 114.85 Q-32.4 114.2 -40.0 118.5 L-46.75 91.25" fill="url(#gradient6)" fill-rule="evenodd" stroke="none"/>
    <path d="M-27.85 94.9 L-23.05 109.7 Q-19.5 110.65 -16.4 112.95 L-16.65 118.8 Q-20.9 115.45 -25.85 114.85 L-27.85 94.9" fill="url(#gradient7)" fill-rule="evenodd" stroke="none"/>
    <path d="M-16.4 112.95 Q-16.1 101.45 -17.6 89.7 L-9.65 87.1 Q-5.8 99.75 -10.3 115.5 -13.45 118.75 -17.05 123.5 L-16.65 118.8 -16.4 112.95" fill="url(#gradient8)" fill-rule="evenodd" stroke="none"/>
    <path d="M-9.65 87.1 L-2.05 84.6 Q1.45 94.7 -0.7 108.45 -4.95 110.1 -10.3 115.5 -5.8 99.75 -9.65 87.1" fill="url(#gradient9)" fill-rule="evenodd" stroke="none"/>
    <path d="M-2.05 84.6 L4.0 82.65 Q6.3 95.45 6.05 108.3 3.05 107.05 -0.7 108.45 1.45 94.7 -2.05 84.6" fill="url(#gradient10)" fill-rule="evenodd" stroke="none"/>
    <path d="M6.05 108.3 L5.9 113.8 Q-4.7 111.05 -17.8 130.45 L-17.05 123.5 Q-13.45 118.75 -10.3 115.5 -4.95 110.1 -0.7 108.45 3.05 107.05 6.05 108.3" fill="url(#gradient11)" fill-rule="evenodd" stroke="none"/>
    <path d="M5.9 113.8 Q3.75 153.55 -21.7 195.2 -50.2 238.6 -95.35 240.5 -45.4 222.1 -24.85 179.35 -17.8 160.7 -21.1 146.8 -19.0 138.75 -17.8 130.45 -4.7 111.05 5.9 113.8 M-4.95 133.65 Q-12.0 133.7 -10.4 141.65 -6.25 138.7 -4.95 133.65" fill="url(#gradient12)" fill-rule="evenodd" stroke="none"/>
    <path d="M-4.95 133.65 Q-6.25 138.7 -10.4 141.65 -12.0 133.7 -4.95 133.65" fill="url(#gradient13)" fill-rule="evenodd" stroke="none"/>
    <path d="M-95.35 240.5 Q-40.05 211.25 -22.55 152.1 L-21.1 146.8 Q-17.8 160.7 -24.85 179.35 -45.4 222.1 -95.35 240.5" fill="url(#gradient14)" fill-rule="evenodd" stroke="none"/>
    <path d="M-73.15 127.35 L-81.9 120.65 -310.85 37.3 -308.8 31.7 -64.05 121.4 -66.1 127.0 -73.15 127.35" fill="#000000" fill-opacity="0.2" fill-rule="evenodd" stroke="none"/>
    <path d="M-17.2 187.55 L-21.7 195.2 Q-24.35 199.2 -27.1 202.85 L-41.25 192.65 Q-38.25 188.15 -35.6 183.45 L-17.2 187.55 M-6.2 165.05 L-26.6 164.05 -23.6 155.5 -1.3 151.8 Q-3.45 158.4 -6.2 165.05 M-63.25 233.0 L-65.95 220.65 -59.45 214.65 -53.65 227.8 Q-58.35 230.7 -63.25 233.0" fill="#ffffff" fill-opacity="0.5019608" fill-rule="evenodd" stroke="none"/>
  </g>
  <defs>
    <linearGradient gradientTransform="matrix(0.0, 0.0083, -0.0065, 0.0, -305.55, 32.9)" gradientUnits="userSpaceOnUse" id="gradient0" spreadMethod="pad" x1="-819.2" x2="819.2">
      <stop offset="0.0" stop-color="#000000" stop-opacity="0.2509804"/>
      <stop offset="1.0" stop-color="#000000" stop-opacity="0.0"/>
    </linearGradient>
    <linearGradient gradientTransform="matrix(0.0, 0.0562, -0.1382, 0.0, -191.05, 74.55)" gradientUnits="userSpaceOnUse" id="gradient1" spreadMethod="pad" x1="-819.2" x2="819.2">
      <stop offset="0.0" stop-color="#000000" stop-opacity="0.2509804"/>
      <stop offset="1.0" stop-color="#000000" stop-opacity="0.0"/>
    </linearGradient>
    <linearGradient gradientTransform="matrix(0.0, 0.0109, -0.0092, 0.0, -74.4, 118.4)" gradientUnits="userSpaceOnUse" id="gradient2" spreadMethod="pad" x1="-819.2" x2="819.2">
      <stop offset="0.0" stop-color="#000000" stop-opacity="0.2509804"/>
      <stop offset="1.0" stop-color="#000000" stop-opacity="0.0"/>
    </linearGradient>
    <linearGradient gradientTransform="matrix(0.0, 0.0105, -0.0068, 0.0, -67.55, 118.75)" gradientUnits="userSpaceOnUse" id="gradient3" spreadMethod="pad" x1="-819.2" x2="819.2">
      <stop offset="0.0" stop-color="#000000" stop-opacity="0.2509804"/>
      <stop offset="1.0" stop-color="#000000" stop-opacity="0.0"/>
    </linearGradient>
    <linearGradient gradientTransform="matrix(0.0, 0.0196, -0.0302, 0.0, -41.35, 130.75)" gradientUnits="userSpaceOnUse" id="gradient4" spreadMethod="pad" x1="-819.2" x2="819.2">
      <stop offset="0.0" stop-color="#000000" stop-opacity="0.2509804"/>
      <stop offset="1.0" stop-color="#000000" stop-opacity="0.0"/>
    </linearGradient>
    <linearGradient gradientTransform="matrix(0.0, 0.019, -0.0147, 0.0, -52.0, 106.75)" gradientUnits="userSpaceOnUse" id="gradient5" spreadMethod="pad" x1="-819.2" x2="819.2">
      <stop offset="0.0" stop-color="#000000" stop-opacity="0.2509804"/>
      <stop offset="1.0" stop-color="#000000" stop-opacity="0.0"/>
    </linearGradient>
    <linearGradient gradientTransform="matrix(0.0, 0.0166, -0.0128, 0.0, -36.3, 104.85)" gradientUnits="userSpaceOnUse" id="gradient6" spreadMethod="pad" x1="-819.2" x2="819.2">
      <stop offset="0.0" stop-color="#000000" stop-opacity="0.2509804"/>
      <stop offset="1.0" stop-color="#000000" stop-opacity="0.0"/>
    </linearGradient>
    <linearGradient gradientTransform="matrix(0.0, 0.0146, -0.007, 0.0, -22.1, 106.85)" gradientUnits="userSpaceOnUse" id="gradient7" spreadMethod="pad" x1="-819.2" x2="819.2">
      <stop offset="0.0" stop-color="#000000" stop-opacity="0.2509804"/>
      <stop offset="1.0" stop-color="#000000" stop-opacity="0.0"/>
    </linearGradient>
    <linearGradient gradientTransform="matrix(0.0, 0.0222, -0.006, 0.0, -12.7, 105.3)" gradientUnits="userSpaceOnUse" id="gradient8" spreadMethod="pad" x1="-819.2" x2="819.2">
      <stop offset="0.0" stop-color="#000000" stop-opacity="0.2509804"/>
      <stop offset="1.0" stop-color="#000000" stop-opacity="0.0"/>
    </linearGradient>
    <linearGradient gradientTransform="matrix(0.0, 0.0189, -0.0063, 0.0, -5.1, 100.05)" gradientUnits="userSpaceOnUse" id="gradient9" spreadMethod="pad" x1="-819.2" x2="819.2">
      <stop offset="0.0" stop-color="#000000" stop-opacity="0.2509804"/>
      <stop offset="1.0" stop-color="#000000" stop-opacity="0.0"/>
    </linearGradient>
    <linearGradient gradientTransform="matrix(0.0, 0.0157, -0.0049, 0.0, 2.0, 95.55)" gradientUnits="userSpaceOnUse" id="gradient10" spreadMethod="pad" x1="-819.2" x2="819.2">
      <stop offset="0.0" stop-color="#000000" stop-opacity="0.2509804"/>
      <stop offset="1.0" stop-color="#000000" stop-opacity="0.0"/>
    </linearGradient>
    <linearGradient gradientTransform="matrix(0.0, 0.0139, -0.0146, 0.0, -5.85, 119.05)" gradientUnits="userSpaceOnUse" id="gradient11" spreadMethod="pad" x1="-819.2" x2="819.2">
      <stop offset="0.0" stop-color="#000000" stop-opacity="0.2509804"/>
      <stop offset="1.0" stop-color="#000000" stop-opacity="0.0"/>
    </linearGradient>
    <linearGradient gradientTransform="matrix(0.0, 0.0775, -0.0618, 0.0, -44.7, 176.95)" gradientUnits="userSpaceOnUse" id="gradient12" spreadMethod="pad" x1="-819.2" x2="819.2">
      <stop offset="0.0" stop-color="#000000" stop-opacity="0.2509804"/>
      <stop offset="1.0" stop-color="#000000" stop-opacity="0.0"/>
    </linearGradient>
    <linearGradient gradientTransform="matrix(0.0, 0.0049, -0.0035, 0.0, -7.8, 137.65)" gradientUnits="userSpaceOnUse" id="gradient13" spreadMethod="pad" x1="-819.2" x2="819.2">
      <stop offset="0.0" stop-color="#000000" stop-opacity="0.2509804"/>
      <stop offset="1.0" stop-color="#000000" stop-opacity="0.0"/>
    </linearGradient>
    <linearGradient gradientTransform="matrix(0.0, 0.0572, -0.046, 0.0, -57.7, 193.65)" gradientUnits="userSpaceOnUse" id="gradient14" spreadMethod="pad" x1="-819.2" x2="819.2">
      <stop offset="0.0" stop-color="#000000" stop-opacity="0.2509804"/>
      <stop offset="1.0" stop-color="#000000" stop-opacity="0.0"/>
    </linearGradient>
  </defs>
</svg>
