<?xml version="1.0" encoding="UTF-8" standalone="no"?>
<svg xmlns:xlink="http://www.w3.org/1999/xlink" height="106.7px" width="282.35px" xmlns="http://www.w3.org/2000/svg">
  <g transform="matrix(1.0, 0.0, 0.0, 1.0, -237.25, -383.6)">
    <path d="M239.45 393.3 L238.45 391.75 Q236.65 389.2 237.55 387.25 238.15 385.0 241.15 384.25 L242.95 383.75 Q245.15 383.25 245.95 384.75 246.25 385.35 246.0 386.35 L245.8 386.85 Q248.45 387.0 248.65 387.55 L248.7 387.65 248.65 387.65 246.35 393.9 246.35 393.95 246.3 393.95 246.3 394.0 Q245.75 394.3 243.7 392.7 L243.55 393.15 Q243.05 394.15 242.4 394.35 240.9 395.1 239.45 393.3 M304.6 396.6 Q305.05 396.25 305.45 396.1 306.4 396.1 306.1 397.8 305.8 400.65 303.1 402.1 301.35 403.05 300.75 404.85 L503.2 479.4 Q515.5 484.25 519.6 489.9 512.95 491.45 500.35 487.3 L297.35 414.3 Q296.7 416.1 297.4 417.9 298.55 420.7 296.85 423.15 296.05 424.55 295.3 423.95 295.0 423.65 295.0 423.0 294.85 420.75 293.15 418.75 290.5 415.9 289.45 412.9 288.35 409.8 288.45 409.35 282.1 407.85 281.75 407.1 L281.65 406.95 284.05 400.35 284.15 400.3 284.15 400.25 Q285.0 399.9 290.8 402.95 291.05 402.45 293.8 400.85 296.55 399.1 300.4 398.75 303.05 398.2 304.6 396.6" fill="#ffffff" fill-rule="evenodd" stroke="none"/>
  </g>
</svg>
