<?xml version="1.0" encoding="UTF-8" standalone="no"?>
<svg xmlns:xlink="http://www.w3.org/1999/xlink" height="34.8px" width="79.8px" xmlns="http://www.w3.org/2000/svg">
  <g transform="matrix(1.0, 0.0, 0.0, 1.0, -224.4, -380.6)">
    <path d="M231.45 386.25 L231.25 385.6 Q230.9 385.2 230.35 385.1 229.8 384.95 229.4 385.3 L228.9 385.85 228.8 386.15 Q228.65 386.75 228.95 387.15 229.25 387.65 229.85 387.7 L230.9 387.5 Q231.3 387.2 231.35 386.6 L231.45 386.25 M225.3 391.3 Q223.85 388.5 224.75 385.1 225.35 382.95 226.95 380.6 263.9 386.9 297.05 406.05 L303.3 409.7 304.2 410.3 Q304.2 412.2 303.3 413.55 302.6 414.65 301.2 415.4 L297.3 413.4 Q266.1 397.05 225.3 391.3 M299.7 410.7 L299.4 411.1 299.3 411.35 299.45 412.1 300.15 412.6 300.9 412.4 301.15 412.2 301.35 411.75 Q301.45 411.35 301.15 410.9 300.95 410.6 300.5 410.5 L299.7 410.7" fill="#ffffff" fill-rule="evenodd" stroke="none"/>
  </g>
</svg>
