<?xml version="1.0" encoding="UTF-8" standalone="no"?>
<svg xmlns:xlink="http://www.w3.org/1999/xlink" height="59.8px" width="151.15px" xmlns="http://www.w3.org/2000/svg">
  <g transform="matrix(1.0, 0.0, 0.0, 1.0, -236.3, -383.6)">
    <path d="M238.55 386.8 Q239.4 386.75 238.75 388.4 L238.7 388.6 Q238.1 390.6 237.45 389.85 M249.45 388.35 L249.65 388.95 Q250.1 390.65 249.55 392.4 L249.45 392.5 Q248.75 394.3 247.25 395.4 L246.8 395.6 M295.5 390.65 Q293.35 397.5 292.15 402.5 L291.05 407.7 298.45 410.4 Q296.95 406.55 297.15 402.0 M292.15 402.5 L291.75 402.45 290.4 407.45 288.25 412.0 288.6 412.3 291.05 407.7 M291.5 402.4 L291.75 402.45 M288.25 412.0 L288.0 411.95 M386.95 442.6 L298.45 410.4 Q294.85 412.25 292.05 415.95 M283.5 423.6 Q286.25 416.9 288.6 412.3" fill="none" stroke="#000000" stroke-linecap="round" stroke-linejoin="round" stroke-opacity="0.5019608" stroke-width="1.0"/>
    <path d="M241.05 384.7 L245.75 384.5 Q248.15 385.35 249.25 387.7 L249.45 388.35 252.45 388.65 257.25 390.05 264.85 392.25 Q276.65 395.3 286.65 400.5 289.05 401.75 291.5 402.4 L295.5 390.65 296.15 388.6 297.0 385.95 Q299.25 385.65 300.75 387.3 297.35 395.5 297.15 402.0 309.6 406.9 321.55 411.75 L329.95 415.25 338.15 418.65 342.9 420.65 362.9 429.3 367.2 431.2 373.55 434.0 Q384.2 438.7 386.95 442.6 382.35 443.75 371.25 440.5 L356.1 436.1 350.9 434.6 327.6 427.5 322.15 425.8 312.9 422.8 303.55 419.8 292.05 415.95 Q288.05 421.0 285.35 429.45 283.15 429.75 281.65 428.15 L282.75 425.5 283.5 423.6 288.0 411.95 Q285.65 410.9 283.1 410.25 272.1 407.85 261.05 402.6 257.25 400.7 253.8 399.35 L249.25 397.35 Q247.45 396.65 246.8 395.6 L246.25 396.0 241.5 396.15 Q239.1 395.25 238.05 393.0 237.3 391.4 237.45 389.85 L237.25 389.4 237.0 388.8 Q236.7 388.4 236.85 387.95 L236.95 387.75 Q237.2 387.45 237.55 387.35 L238.1 387.05 Q238.25 386.9 238.55 386.8 239.55 385.4 241.05 384.7" fill="none" stroke="#000000" stroke-linecap="round" stroke-linejoin="round" stroke-width="1.0"/>
  </g>
</svg>
