<?xml version="1.0" encoding="UTF-8" standalone="no"?>
<svg xmlns:xlink="http://www.w3.org/1999/xlink" height="88.85px" width="190.9px" xmlns="http://www.w3.org/2000/svg">
  <g transform="matrix(1.0, 0.0, 0.0, 1.0, -257.7, -334.2)">
    <path d="M411.5 390.4 L409.4 396.1 409.3 396.45 409.0 397.3 257.8 342.25 Q257.5 339.75 258.4 337.6 259.15 335.8 260.7 334.2 L411.9 389.25 411.6 390.1 411.5 390.4 M415.7 374.4 L447.85 386.1 447.9 386.1 448.6 386.4 448.2 387.45 Q447.6 388.2 447.55 389.4 L447.15 390.45 414.25 378.45 414.6 377.4 Q415.3 376.45 415.3 375.45 L415.7 374.4 M425.85 381.15 L426.35 380.6 Q426.55 380.2 426.35 379.8 L425.8 379.3 Q425.4 379.15 425.0 379.3 L424.45 379.9 Q424.3 380.25 424.5 380.65 L425.05 381.2 425.85 381.15 M418.45 377.7 Q418.3 378.1 418.45 378.45 L419.05 379.0 419.8 378.95 420.35 378.4 420.3 377.6 419.75 377.1 419.6 377.05 418.95 377.1 418.45 377.7 M444.4 386.35 L443.95 385.9 443.8 385.85 Q443.45 385.7 443.05 385.85 442.65 386.1 442.5 386.5 L442.55 387.2 443.15 387.75 443.9 387.7 444.4 387.15 444.4 386.35 M431.8 381.45 Q431.4 381.3 431.0 381.45 L430.45 382.1 Q430.35 382.5 430.5 382.8 L431.05 383.4 431.85 383.35 432.4 382.8 Q432.55 382.35 432.35 382.0 L431.8 381.45 M438.4 384.15 Q438.25 383.8 437.8 383.65 L437.05 383.7 Q436.6 383.85 436.45 384.3 436.35 384.65 436.55 385.05 L437.1 385.55 437.9 385.5 438.4 385.0 438.4 384.15 M441.7 401.05 L442.0 400.2 444.75 401.2 Q445.1 403.75 444.4 405.75 443.65 407.75 441.85 409.25 L439.1 408.25 439.4 407.4 439.5 407.05 441.6 401.35 441.7 401.05 M425.95 416.25 L425.15 416.3 Q424.75 416.5 424.6 416.85 424.45 417.25 424.65 417.65 L425.25 418.15 426.0 418.15 426.55 417.6 Q426.7 417.2 426.5 416.8 L425.95 416.25 M419.9 414.05 L419.1 414.1 418.6 414.7 Q418.45 415.05 418.6 415.45 418.85 415.8 419.2 415.95 L419.95 415.95 420.55 415.35 Q420.7 415.0 420.45 414.6 L419.9 414.05 M431.95 418.45 L431.15 418.5 430.65 419.1 Q430.5 419.45 430.65 419.85 L431.25 420.35 431.4 420.4 432.0 420.3 432.55 419.75 432.5 418.95 431.95 418.45 M406.6 410.3 Q406.45 410.7 406.6 411.1 L407.05 411.55 407.2 411.6 407.95 411.6 408.5 411.0 Q408.65 410.6 408.4 410.25 408.25 409.8 407.9 409.65 L407.05 409.75 Q406.75 409.95 406.6 410.3 M414.5 413.2 Q414.7 412.8 414.45 412.4 414.25 412.0 413.9 411.9 413.5 411.75 413.1 411.9 L412.6 412.5 Q412.45 412.85 412.6 413.25 L413.2 413.8 413.95 413.75 414.5 413.2 M436.75 419.0 L436.35 420.05 Q435.7 421.05 435.7 421.95 L435.25 423.05 434.55 422.75 434.5 422.75 402.35 411.05 402.75 409.95 Q403.4 409.25 403.45 408.05 L403.8 407.0 436.75 419.0" fill="#ffffff" fill-rule="evenodd" stroke="none"/>
  </g>
</svg>
