<?xml version="1.0" encoding="UTF-8" standalone="no"?>
<svg xmlns:xlink="http://www.w3.org/1999/xlink" height="384.2px" width="137.5px" xmlns="http://www.w3.org/2000/svg">
  <g transform="matrix(1.0, 0.0, 0.0, 1.0, -331.15, -169.6)">
    <path d="M395.2 175.15 L395.2 186.8 Q397.55 186.7 399.9 186.75 L404.6 186.8 404.6 175.15 399.9 175.05 395.2 175.15 395.2 170.1 M383.95 177.0 L387.1 176.2 387.1 173.55 M395.2 175.15 L387.1 176.2 387.1 187.6 395.2 186.8 395.2 198.45 399.9 198.3 404.6 198.45 404.6 186.8 412.7 187.6 412.7 176.2 404.6 175.15 404.6 170.1 M382.9 200.45 L387.1 199.45 387.1 187.6 381.45 188.7 M412.7 176.2 L412.7 173.55 M415.85 177.0 L412.7 176.2 M418.35 188.7 L412.7 187.6 412.7 199.45 416.9 200.45 M412.7 199.45 L404.6 198.45 404.6 208.9 Q409.35 209.3 412.7 211.15 L412.7 199.45 M412.7 212.1 L412.7 211.15 413.3 211.5 M411.9 229.7 Q408.25 231.15 404.6 231.8 L404.6 243.0 413.9 241.55 Q413.2 235.55 411.9 229.7 L411.6 228.4 M413.9 241.55 Q414.45 246.35 414.6 251.3 L424.05 250.0 Q423.65 244.15 422.25 239.05 L413.9 241.55 M422.25 239.05 Q421.4 235.9 420.15 233.05 M428.55 236.4 L428.05 236.65 429.1 249.3 434.55 247.5 433.15 238.3 M440.35 245.25 L442.05 257.9 446.75 256.4 445.15 243.15 440.35 245.25 439.75 240.95 M434.55 247.5 L440.35 245.25 M422.25 239.05 L428.05 236.65 428.0 236.15 M429.25 251.4 L429.1 249.3 428.05 249.6 424.05 250.0 Q424.4 255.45 423.95 261.55 L432.85 260.8 436.45 259.7 434.55 247.5 M436.45 259.7 L437.05 263.75 440.55 273.9 445.9 272.05 442.7 262.6 442.05 257.9 436.45 259.7 M414.6 251.3 Q414.75 257.05 414.35 263.0 L423.95 261.55 Q423.5 267.1 422.3 273.2 L432.35 271.9 M421.8 275.7 L422.3 273.2 413.05 274.4 412.85 275.55 Q411.95 279.6 411.35 283.8 L418.75 283.05 Q420.0 279.25 421.8 275.7 M413.05 274.4 L410.65 274.7 404.6 275.4 404.6 284.15 411.35 283.8 Q410.7 288.2 410.45 292.85 L416.4 292.4 Q417.2 287.5 418.75 283.05 L426.5 281.9 M416.4 292.4 L421.05 291.9 M441.55 287.65 L444.85 286.6 440.55 273.9 435.05 275.75 M413.05 274.4 Q413.95 268.65 414.35 263.0 409.1 264.0 404.6 265.5 L404.6 275.4 399.9 275.35 395.2 275.4 395.2 284.15 399.9 284.25 404.6 284.15 404.6 293.15 410.45 292.85 Q410.2 297.35 410.3 302.0 L415.5 301.45 Q415.65 296.75 416.4 292.4 M449.35 255.55 L446.75 256.4 447.45 262.15 450.2 270.6 453.6 269.45 M445.9 272.05 L450.2 270.6 454.35 283.5 458.05 282.25 M454.35 283.5 L458.3 295.85 458.8 296.7 461.7 296.0 M454.35 283.5 L450.25 284.85 454.55 297.65 458.8 296.7 Q462.3 302.95 463.5 310.55 L468.15 309.95 M444.85 286.6 L450.25 284.85 445.9 272.05 M395.2 198.45 L395.2 208.9 399.9 208.75 404.6 208.9 404.6 219.3 410.35 218.25 M387.1 212.1 L387.1 211.15 386.5 211.5 M395.2 208.9 L395.2 219.3 395.5 219.35 M404.3 219.35 L404.6 219.3 404.6 231.8 399.9 232.2 395.2 231.75 395.2 243.0 399.9 243.2 404.6 243.0 404.6 253.15 414.6 251.3 M395.2 198.45 L387.1 199.45 387.1 211.15 Q390.45 209.3 395.2 208.9 M388.2 228.4 L387.9 229.7 Q391.55 231.15 395.2 231.75 L395.2 219.3 389.45 218.25 M371.8 236.15 L371.75 236.65 377.55 239.05 Q378.4 235.9 379.65 233.05 M370.55 251.4 L370.75 249.3 371.75 236.65 371.25 236.4 M387.9 229.7 Q386.6 235.55 385.9 241.55 L395.2 243.0 395.2 253.15 397.2 253.6 399.9 253.6 402.6 253.6 404.6 253.15 404.6 265.5 402.95 266.05 396.85 266.05 395.2 265.5 395.2 275.4 389.15 274.7 386.8 274.4 386.95 275.55 388.45 283.75 395.2 284.15 395.2 293.15 399.9 293.3 404.6 293.15 404.6 302.4 410.3 302.0 Q410.35 306.55 410.75 311.25 L415.65 309.95 Q415.35 305.55 415.5 301.45 L419.6 300.85 M377.55 239.05 Q376.15 244.15 375.75 250.0 L385.25 251.25 Q385.35 246.35 385.9 241.55 381.7 240.55 377.55 239.05 M395.2 265.5 L395.2 253.15 385.25 251.25 Q385.05 257.05 385.5 263.0 390.7 264.0 395.2 265.5 M366.95 260.8 L375.9 261.55 Q375.4 255.4 375.75 250.0 L371.75 249.6 370.75 249.3 M373.3 281.9 L381.1 283.05 Q379.8 279.25 378.0 275.7 L377.5 273.2 367.45 271.9 M378.75 291.9 L383.4 292.4 Q382.6 287.5 381.1 283.05 L388.45 283.75 Q389.1 288.2 389.35 292.85 L395.2 293.15 395.2 302.35 399.9 302.5 404.6 302.4 404.6 312.15 410.75 311.25 410.8 311.7 Q412.6 317.85 413.6 324.0 417.25 322.1 421.1 319.65 418.9 314.4 415.65 310.2 L415.65 309.95 419.65 308.5 M383.4 292.4 L389.35 292.85 389.55 302.0 395.2 302.35 395.2 312.15 M385.5 263.0 L375.9 261.55 Q376.3 267.1 377.5 273.2 L386.8 274.4 Q385.85 268.65 385.5 263.0 M365.1 248.45 L365.25 247.5 M389.05 311.25 L389.4 306.15 389.55 302.0 384.3 301.45 384.35 306.15 384.2 309.95 M380.2 300.85 L384.3 301.45 Q384.15 296.75 383.4 292.4 M399.9 328.75 L404.6 327.6 404.6 312.15 M404.6 348.35 L404.6 327.6 Q409.0 326.25 413.6 324.0 414.6 330.4 414.75 336.8 L414.8 336.95 Q419.0 332.7 424.0 329.05 422.9 324.0 421.1 319.65 L425.8 316.35 M454.55 297.65 L456.2 302.5 Q457.4 306.55 458.05 311.15 L463.5 310.55 Q464.7 318.4 463.45 327.65 L463.45 328.0 466.85 327.55 M444.55 312.15 L452.3 311.65 450.35 302.65 449.1 298.95 447.85 299.2 M444.85 286.6 L449.1 298.95 454.55 297.65 M452.3 311.65 L458.05 311.15 Q459.1 318.5 458.8 327.25 L458.85 327.95 463.45 328.0 462.25 345.1 465.5 344.85 M458.85 327.95 L458.25 344.8 462.25 345.1 461.3 358.65 461.2 359.5 464.4 359.0 M452.3 311.65 Q453.6 319.4 453.6 327.1 L458.85 327.95 M454.5 344.05 L458.25 344.8 457.7 358.85 457.6 359.2 461.2 359.5 459.35 371.25 463.4 371.5 M412.2 339.7 L414.8 336.95 416.0 351.5 Q420.75 349.0 425.65 346.75 L425.0 334.95 424.0 329.05 Q427.0 326.8 430.3 324.8 M416.0 351.5 L416.95 366.1 426.1 363.7 425.65 346.75 Q430.05 344.65 434.65 342.8 M441.8 362.4 Q442.9 363.85 444.25 365.1 L453.85 358.05 Q455.8 358.8 457.6 359.2 L453.5 370.15 459.35 371.25 458.6 375.85 456.85 379.1 M444.95 379.05 L448.8 380.55 450.95 376.85 453.5 370.15 Q448.0 368.55 444.25 365.1 L443.9 365.35 M426.1 363.7 L435.15 361.3 M405.5 383.0 L417.55 381.95 416.95 366.1 404.45 369.35 M426.1 363.7 L426.1 380.4 433.85 378.25 M417.55 381.95 L426.1 380.4 425.6 398.15 Q428.65 397.4 431.4 396.3 M448.8 380.55 L451.2 381.45 M446.4 384.55 L448.8 380.55 M403.65 358.6 L416.0 351.5 M417.7 413.9 L424.75 413.15 425.6 398.15 417.85 399.35 417.7 413.9 417.35 426.7 Q420.65 426.65 423.8 425.75 L424.75 413.15 428.6 412.1 M417.85 399.35 Q412.65 399.75 406.75 399.3 M407.85 413.45 L417.7 413.9 M417.35 426.7 L416.85 436.65 417.35 445.55 422.9 444.95 422.9 435.45 423.8 425.75 425.9 425.0 M417.35 426.7 Q413.2 426.75 408.8 425.55 L410.8 445.8 417.35 445.55 418.2 461.6 422.9 461.3 422.9 444.95 427.8 443.95 427.4 431.55 M427.8 443.95 L430.1 443.25 M427.8 443.95 L428.35 460.3 429.35 460.0 M428.35 460.3 L428.65 469.8 M410.8 445.8 L412.35 461.4 418.2 461.6 419.05 477.7 422.9 477.6 422.9 461.3 428.35 460.3 M409.7 461.15 L412.35 461.4 413.9 477.1 419.05 477.7 419.85 492.9 422.9 492.8 422.9 477.6 Q425.85 477.25 428.2 476.25 M410.8 445.8 L405.0 445.65 M413.9 477.1 L413.95 477.5 M418.15 507.65 Q419.45 508.2 420.65 508.35 L419.85 492.9 416.6 492.65 M426.65 492.15 L422.9 492.8 422.95 508.15 424.9 507.25 M393.95 445.7 L394.8 445.65 M420.65 508.35 L421.0 514.95 421.8 517.1 Q423.0 516.65 424.3 516.55 L423.4 514.95 422.95 508.15 420.65 508.35 M417.3 514.45 L418.45 518.8 Q420.1 517.7 421.8 517.1 L424.55 524.75 Q426.35 523.9 428.2 523.7 L424.3 516.55 428.0 516.85 M420.65 527.45 L423.25 537.55 Q425.35 535.45 428.0 534.35 L424.55 524.75 Q422.55 525.7 420.65 527.45 L418.45 518.8 416.45 520.35 M420.65 527.45 L419.35 528.7 M421.8 539.15 L423.25 537.55 425.8 547.4 Q428.1 546.0 430.9 545.25 430.6 541.55 429.3 537.9 L428.0 534.35 Q430.5 533.3 433.4 533.15 L428.2 523.7 432.7 524.15 M438.8 533.55 L433.4 533.15 435.85 537.6 Q437.9 540.6 438.85 544.4 L442.65 544.65 M425.3 547.7 L425.8 547.4 426.2 549.0 M430.45 553.3 Q431.25 549.25 430.9 545.25 434.45 544.3 438.85 544.4 439.8 548.4 439.45 553.3 M417.85 399.35 L417.55 381.95" fill="none" stroke="#000000" stroke-linecap="round" stroke-linejoin="round" stroke-opacity="0.2509804" stroke-width="1.0"/>
    <path d="M360.05 240.95 L359.5 245.25 362.0 246.25 365.25 247.45 366.65 238.3 M370.75 249.3 L365.25 247.5 365.25 247.45 M354.65 243.15 L353.05 256.4 357.75 257.9 359.5 245.25 354.65 243.15 M357.75 257.9 L363.4 259.7 365.1 248.45 M350.45 255.55 L353.05 256.4 352.35 262.15 349.65 270.6 353.9 272.05 357.1 262.6 357.75 257.9 M346.2 269.45 L349.65 270.6 345.5 283.5 349.6 284.85 353.9 272.05 359.3 273.9 362.75 263.75 363.4 259.7 366.95 260.8 M338.1 296.0 L341.05 296.7 341.5 295.85 345.5 283.5 341.75 282.25 M358.25 287.65 L354.95 286.6 350.75 298.95 351.95 299.2 M349.6 284.85 L354.95 286.6 359.3 273.9 364.75 275.75 M404.6 312.15 L399.9 312.3 395.2 312.15 395.2 327.6 399.9 328.75 M395.2 312.15 L391.45 311.7 389.05 311.25 389.0 311.7 387.4 317.9 387.3 318.3 Q386.7 321.15 386.25 323.95 L391.65 326.35 395.2 327.6 395.2 348.35 M378.75 319.65 L377.7 322.4 377.7 322.45 Q376.6 325.55 375.85 329.05 L377.85 330.55 379.3 331.75 Q382.35 334.2 385.05 336.95 L385.05 336.8 Q385.15 333.0 385.55 329.2 L385.65 328.2 386.25 323.95 Q383.5 322.6 380.75 320.9 L379.75 320.3 378.75 319.65 376.75 318.3 376.65 318.25 374.0 316.35 M378.75 319.65 L379.35 318.3 380.75 315.45 Q382.25 312.65 384.15 310.2 L384.2 309.95 380.15 308.5 M365.15 342.8 Q369.7 344.7 374.2 346.75 L374.5 339.95 374.8 334.95 Q375.2 331.85 375.85 329.05 L369.5 324.8 M387.6 339.7 L385.05 336.95 383.95 349.85 383.8 351.55 390.05 354.95 396.15 358.6 M389.05 311.25 L384.2 309.95 M350.75 298.95 L345.25 297.65 343.6 302.5 343.35 303.45 Q342.9 304.9 342.6 306.45 342.1 308.7 341.75 311.15 L347.5 311.65 348.55 306.45 349.25 303.45 349.45 302.65 350.75 298.95 M355.25 312.15 L347.5 311.65 Q346.9 315.15 346.6 318.7 346.2 322.9 346.2 327.1 L340.95 327.95 341.6 344.8 345.3 344.05 M331.65 309.95 L336.35 310.55 Q336.65 308.45 337.2 306.45 337.55 304.9 338.05 303.45 339.25 299.9 341.05 296.7 L345.25 297.65 349.6 284.85 M341.75 311.15 Q341.25 314.75 341.05 318.7 340.85 322.8 341.0 327.25 L340.95 327.95 336.4 328.0 337.55 345.1 341.6 344.8 342.1 358.85 342.25 359.2 345.95 358.05 355.55 365.1 358.0 362.4 M332.95 327.55 L336.4 328.0 336.35 327.65 Q335.75 323.0 335.75 318.7 335.7 314.45 336.35 310.55 L341.75 311.15 M334.3 344.85 L337.55 345.1 338.5 358.65 338.65 359.5 342.25 359.2 346.35 370.15 Q351.8 368.55 355.55 365.1 L355.9 365.35 M335.4 359.0 L338.65 359.5 340.5 371.3 346.35 370.15 348.85 376.85 351.05 380.55 354.85 379.05 M342.95 379.1 L341.2 375.85 340.5 371.3 336.4 371.5 M353.4 384.55 L351.05 380.55 348.6 381.45 M383.8 351.55 L380.6 349.85 379.3 349.25 377.85 348.5 374.2 346.75 374.0 352.1 373.8 358.85 373.7 363.7 382.9 366.1 383.2 360.35 383.3 358.85 383.8 351.55 M365.95 378.25 L373.7 380.4 373.7 366.95 373.7 363.7 364.65 361.3 M373.7 380.4 L382.25 381.95 382.55 373.1 382.9 366.1 395.35 369.35 M394.3 383.0 L382.25 381.95 382.0 399.35 Q387.15 399.75 393.05 399.3 M382.0 399.35 L374.25 398.15 374.55 404.85 375.05 413.15 382.1 413.9 382.0 404.85 382.0 399.35 M368.4 396.3 Q371.15 397.4 374.25 398.15 L373.7 380.4 M375.05 413.15 L375.5 419.65 376.0 425.75 Q379.15 426.65 382.5 426.7 L382.25 419.65 382.1 413.9 391.95 413.45 M375.05 413.15 L371.2 412.1 M372.4 431.55 L372.0 443.95 376.9 444.95 376.9 435.45 376.0 425.75 373.9 425.0 M369.7 443.25 L372.0 443.95 371.45 460.3 376.9 461.3 376.9 444.95 382.5 445.55 382.95 436.65 382.5 426.7 Q386.6 426.8 391.0 425.55 L389.0 445.75 393.95 445.7 M390.1 461.15 L387.45 461.4 385.9 477.1 385.85 477.5 M389.0 445.75 L387.45 461.4 381.65 461.6 380.8 477.7 385.9 477.1 M376.9 461.3 L381.65 461.6 382.5 445.55 389.0 445.75 M371.15 469.8 L371.45 460.3 370.45 460.0 M373.15 492.15 L376.9 492.85 376.9 477.6 Q373.95 477.3 371.6 476.25 M376.9 492.85 L380.0 492.9 380.8 477.7 376.9 477.6 376.9 461.3 M380.0 492.9 L383.2 492.65 M376.9 492.85 L376.85 508.15 379.15 508.35 380.0 492.9 M375.55 516.55 L371.6 523.7 Q373.45 523.9 375.25 524.75 L378.05 517.1 Q376.8 516.65 375.55 516.55 L371.8 516.85 M378.05 517.1 L378.8 514.95 379.15 508.35 381.65 507.65 M375.55 516.55 L376.4 514.95 376.85 508.15 Q375.85 507.85 374.9 507.25 M382.5 514.45 L381.4 518.8 383.35 520.35 M375.25 524.75 Q377.25 525.7 379.15 527.45 L381.4 518.8 Q379.7 517.7 378.05 517.1 M379.15 527.45 L380.45 528.7 M367.1 524.15 L371.6 523.7 366.4 533.15 Q369.3 533.3 371.8 534.35 L375.25 524.75 M366.4 533.15 L363.95 537.6 Q361.9 540.6 361.0 544.4 365.3 544.3 368.9 545.25 369.2 541.55 370.5 537.9 L371.8 534.35 Q374.45 535.45 376.55 537.55 L379.15 527.45 M376.55 537.55 L378.0 539.15 M374.5 547.7 L374.05 547.4 373.6 549.0 M368.9 545.25 Q371.7 546.0 374.05 547.4 L376.55 537.55 M369.35 553.3 Q368.55 549.25 368.9 545.25 M361.0 533.55 L366.4 533.15 M360.35 553.3 Q360.0 548.4 361.0 544.4 L357.15 544.65" fill="none" stroke="#000000" stroke-linecap="round" stroke-linejoin="round" stroke-opacity="0.2509804" stroke-width="1.0"/>
  </g>
</svg>
