<?xml version="1.0" encoding="UTF-8" standalone="no"?>
<svg xmlns:xlink="http://www.w3.org/1999/xlink" height="19.6px" width="22.35px" xmlns="http://www.w3.org/2000/svg">
  <g transform="matrix(1.0, 0.0, 0.0, 1.0, -376.2, -121.9)">
    <path d="M395.65 132.1 L397.25 135.1 Q397.95 136.7 398.05 137.7 L398.05 139.45 Q397.7 140.25 396.15 140.4 L396.15 140.5 395.95 140.5 394.6 140.8 393.8 140.6 393.75 140.6 393.2 140.25 393.1 140.1 392.95 140.25 392.9 140.25 391.1 140.9 390.55 141.0 389.3 141.0 387.85 140.9 385.6 140.25 385.35 140.1 Q384.05 139.5 383.3 138.35 L383.15 138.2 382.9 137.65 Q381.9 135.8 382.0 133.9 L382.1 132.45 382.45 130.4 382.95 128.6 382.95 128.45 383.45 127.5 381.65 124.9 Q380.2 122.95 378.85 122.55 L377.95 122.4 377.15 122.5 376.7 122.6 M393.1 140.1 L393.05 140.1 392.85 139.9 392.45 140.05 390.55 140.35 387.85 140.35 Q386.65 140.25 385.9 139.45 385.05 138.85 384.5 137.7 L384.45 137.5 Q383.35 134.9 384.5 129.0 L383.45 127.5 M392.85 139.9 L392.4 139.5 392.3 139.45 390.7 137.7 390.55 137.55 390.25 137.15 Q388.2 134.65 387.1 132.75 L384.5 129.0" fill="none" stroke="#000000" stroke-linecap="round" stroke-linejoin="round" stroke-opacity="0.5019608" stroke-width="1.0"/>
  </g>
</svg>
