<?xml version="1.0" encoding="UTF-8" standalone="no"?>
<svg xmlns:xlink="http://www.w3.org/1999/xlink" height="22.05px" width="24.2px" xmlns="http://www.w3.org/2000/svg">
  <g transform="matrix(1.0, 0.0, 0.0, 1.0, -375.95, -125.1)">
    <path d="M385.75 146.65 L388.85 146.2 391.35 145.5 393.7 143.85 395.95 143.0 398.6 139.85 394.65 142.25 387.55 143.15 384.1 142.45 380.4 140.75 377.45 134.2 376.45 129.3 378.2 125.6 379.3 127.8 379.65 128.25 381.15 129.95 389.05 132.1 390.95 133.75 395.7 139.85 396.35 139.85 398.6 139.85 399.65 138.75 M379.65 128.25 L378.55 129.0 379.5 133.15 382.15 139.3 386.35 141.05 391.85 141.55 396.35 139.85" fill="none" stroke="#000000" stroke-linecap="round" stroke-linejoin="round" stroke-opacity="0.49803922" stroke-width="1.0"/>
  </g>
</svg>
