<?xml version="1.0" encoding="UTF-8" standalone="no"?>
<svg xmlns:xlink="http://www.w3.org/1999/xlink" height="3.7px" width="35.6px" xmlns="http://www.w3.org/2000/svg">
  <g transform="matrix(1.0, 0.0, 0.0, 1.0, -382.1, -134.65)">
    <path d="M382.1 136.4 L384.0 134.65 385.5 134.85 Q385.35 135.15 385.35 135.6 385.35 136.6 386.0 137.25 386.7 137.95 387.7 137.95 388.65 137.95 389.3 137.25 390.05 136.6 390.05 135.6 L390.05 135.35 390.9 135.4 392.95 137.15 Q385.6 139.85 382.1 136.4 M414.35 134.85 L415.85 134.65 417.7 136.4 Q414.2 139.85 406.85 137.15 L408.95 135.4 409.8 135.35 409.8 135.6 Q409.8 136.6 410.5 137.25 411.15 137.95 412.15 137.95 413.1 137.95 413.8 137.25 414.45 136.6 414.45 135.6 L414.35 134.85" fill="#000000" fill-rule="evenodd" stroke="none"/>
  </g>
</svg>
