<?xml version="1.0" encoding="UTF-8" standalone="no"?>
<svg xmlns:xlink="http://www.w3.org/1999/xlink" height="600.0px" width="800.0px" xmlns="http://www.w3.org/2000/svg">
  <g transform="matrix(1.0, 0.0, 0.0, 1.0, 0.0, 0.0)">
    <path d="M800.0 600.0 L0.0 600.0 0.0 0.0 329.4 0.0 329.4 233.85 Q319.45 245.35 320.2 266.2 318.7 289.8 312.4 298.6 L314.6 301.65 314.0 302.75 Q310.2 309.3 306.8 315.8 308.2 333.0 318.15 361.6 L319.55 380.05 334.5 387.3 336.05 389.05 Q341.55 392.7 344.65 384.75 L342.5 381.1 342.5 367.15 345.05 363.6 330.9 358.05 Q329.95 347.15 332.65 335.7 L337.9 320.8 Q337.4 313.2 333.75 303.75 343.7 292.25 349.7 280.65 353.1 274.1 355.2 267.6 L355.2 0.0 800.0 0.0 800.0 600.0" fill="#000000" fill-rule="evenodd" stroke="none"/>
    <path d="M343.4 373.5 L348.9 374.0 Q354.0 374.65 353.7 375.3 355.55 376.0 358.1 377.75 L363.15 381.4 Q365.15 382.75 375.9 386.65 L385.55 390.05 Q387.55 390.55 390.6 390.15 M351.9 378.55 Q350.9 378.15 350.65 378.9 350.45 379.5 351.8 379.9 353.3 380.45 353.7 379.35 354.05 378.3 350.75 377.1 349.55 376.65 348.6 377.1 347.75 377.45 347.6 378.0 347.3 378.85 349.1 380.15 350.45 381.15 351.5 381.5 L355.35 381.4 M382.3 392.7 L387.0 394.55 Q394.05 397.1 401.5 397.5 408.95 397.9 418.0 401.25 423.8 403.35 427.25 405.9 L433.3 410.45 M304.6 361.4 Q305.1 361.2 306.7 361.8 L309.5 363.15 M312.3 360.35 Q308.2 360.25 306.7 359.55 M301.4 361.8 L446.5 424.8 453.3 406.1 M446.5 424.8 L448.15 428.85 M407.25 395.5 L418.95 396.8 Q420.2 397.0 425.95 399.1 432.15 401.4 433.6 402.25 L438.75 406.0 Q440.0 406.9 446.4 409.2 M442.85 414.75 Q439.05 415.35 431.9 413.85 M417.0 405.85 Q419.85 406.65 420.2 405.85 420.4 405.15 417.75 404.15 415.75 403.5 415.45 404.45 414.8 406.1 418.55 407.45 421.6 408.55 422.05 407.3 422.35 406.55 421.25 405.35 420.0 404.0 417.9 403.2 L413.45 403.0 Q411.8 404.35 411.5 405.15 411.2 406.05 413.7 406.85" fill="none" stroke="#000000" stroke-linecap="round" stroke-linejoin="round" stroke-opacity="0.5019608" stroke-width="1.0"/>
    <path d="M301.4 361.8 L303.15 354.7 339.05 367.8 453.3 406.1 455.25 409.5 448.15 428.85 305.6 365.9 301.4 361.8" fill="none" stroke="#000000" stroke-linecap="round" stroke-linejoin="round" stroke-width="1.0"/>
  </g>
</svg>
