<?xml version="1.0" encoding="UTF-8" standalone="no"?>
<svg xmlns:xlink="http://www.w3.org/1999/xlink" height="600.0px" width="800.0px" xmlns="http://www.w3.org/2000/svg">
  <g transform="matrix(1.0, 0.0, 0.0, 1.0, 0.0, 0.0)">
    <path d="M800.0 600.0 L0.0 600.0 0.0 0.0 800.0 0.0 800.0 600.0" fill="#000000" fill-rule="evenodd" stroke="none"/>
    <path d="M346.95 374.15 L343.45 383.85 M345.65 384.65 L349.15 374.95 M405.8 392.2 L411.3 391.7 415.35 395.65 M420.55 389.55 L414.15 384.2 405.8 384.2 M419.25 370.2 L414.15 384.2 M410.25 394.7 L414.5 399.2 411.25 408.15 405.1 408.75 400.85 404.25 404.1 395.45 410.25 394.7 M257.4 341.55 L253.9 351.3 M259.6 342.45 L256.1 352.1 M266.1 344.7 L262.6 354.4 M263.9 343.9 L260.4 353.65 M408.85 412.65 Q404.95 424.15 406.4 431.3 M411.25 411.15 L404.0 411.8 398.9 406.7 M399.7 409.25 Q395.35 420.7 389.65 425.25 M400.9 410.4 Q396.35 421.35 391.9 426.05 M401.95 411.55 Q397.65 422.35 394.15 426.85 M404.25 413.1 Q399.95 424.85 399.7 428.9 M403.0 412.65 Q398.9 423.8 396.35 427.65 M407.35 412.75 Q403.75 424.05 404.1 430.5 M405.8 412.95 Q402.1 423.95 401.9 429.65 M384.9 431.7 L405.85 439.35 M387.15 425.6 L408.1 433.2 M397.25 404.95 L401.75 392.55 M398.6 392.95 L395.1 402.65" fill="none" stroke="#000000" stroke-linecap="round" stroke-linejoin="round" stroke-opacity="0.5019608" stroke-width="1.0"/>
    <path d="M349.15 374.95 L349.3 374.6 347.1 373.8 346.95 374.15 M343.45 383.85 L343.3 384.3 345.55 385.15 345.65 384.65 M349.15 374.95 L398.6 392.95 399.1 391.6 401.75 392.55 405.8 392.2 Q406.85 388.8 406.7 386.9 406.75 384.85 405.8 384.2 409.5 376.4 419.25 370.2 422.65 381.15 420.55 389.55 419.3 389.35 417.95 391.0 416.65 392.4 415.35 395.65 L418.15 398.55 413.65 410.9 411.25 411.15 Q405.85 425.6 408.1 433.2 L405.85 439.35 Q401.3 441.0 394.35 438.4 387.3 435.9 384.9 431.7 L387.15 425.6 Q393.7 421.15 398.9 406.7 L397.25 404.95 394.6 404.0 395.1 402.65 345.65 384.65 M343.45 383.85 L262.6 354.4 262.45 354.85 260.25 354.0 260.4 353.65 256.1 352.1 255.95 352.5 253.75 351.7 253.9 351.3 249.8 351.7 245.25 346.45 247.7 339.75 254.6 338.7 257.4 341.55 257.55 341.2 259.75 342.0 259.6 342.45 263.9 343.9 264.05 343.5 266.25 344.35 266.1 344.7 346.95 374.15 Z" fill="none" stroke="#000000" stroke-linecap="round" stroke-linejoin="round" stroke-width="1.0"/>
  </g>
</svg>
