<?xml version="1.0" encoding="UTF-8" standalone="no"?>
<svg xmlns:xlink="http://www.w3.org/1999/xlink" height="98.8px" width="167.6px" xmlns="http://www.w3.org/2000/svg">
  <g transform="matrix(1.0, 0.0, 0.0, 1.0, -253.75, -341.2)">
    <path d="M264.05 343.5 L266.25 344.35 262.45 354.85 260.25 354.0 264.05 343.5 M257.55 341.2 L259.75 342.0 255.95 352.5 253.75 351.7 257.55 341.2 M399.1 391.6 L401.75 392.55 405.8 392.2 Q406.85 388.8 406.7 386.9 406.75 384.85 405.8 384.2 409.5 376.4 419.25 370.2 422.65 381.15 420.55 389.55 419.3 389.35 417.95 391.0 416.65 392.4 415.35 395.65 L418.15 398.55 413.65 410.9 411.25 411.15 Q405.85 425.6 408.1 433.2 L405.85 439.35 Q401.3 441.0 394.35 438.4 387.3 435.9 384.9 431.7 L387.15 425.6 Q393.7 421.15 398.9 406.7 L397.25 404.95 394.6 404.0 399.1 391.6 M343.3 384.3 L347.1 373.8 349.3 374.6 345.65 384.65 345.55 385.15 343.3 384.3" fill="#ffffff" fill-rule="evenodd" stroke="none"/>
  </g>
</svg>
