<?xml version="1.0" encoding="UTF-8" standalone="no"?>
<svg xmlns:xlink="http://www.w3.org/1999/xlink" height="128.0px" width="65.55px" xmlns="http://www.w3.org/2000/svg">
  <g transform="matrix(1.0, 0.0, 0.0, 1.0, -312.5, -361.8)">
    <path d="M373.55 416.7 Q373.1 417.35 373.1 418.3 373.1 419.25 373.55 419.85 L374.05 420.35 Q374.2 419.8 374.4 419.8 374.65 419.8 374.85 420.55 375.35 420.45 375.75 419.85 376.25 419.25 376.25 418.3 376.25 417.35 375.75 416.7 L375.15 416.15 374.75 416.6 374.45 416.1 Q373.95 416.2 373.55 416.7 M373.75 405.0 Q373.3 405.65 373.3 406.6 373.3 407.55 373.75 408.15 L374.4 408.75 Q374.55 408.15 374.75 408.15 L375.2 408.8 Q375.65 408.65 375.95 408.15 376.45 407.55 376.45 406.6 376.45 405.65 375.95 405.0 375.6 404.5 375.2 404.4 L374.85 404.75 374.6 404.4 Q374.1 404.5 373.75 405.0 M374.85 392.4 L374.55 392.45 374.45 393.3 373.85 392.9 373.75 393.05 Q373.3 393.75 373.3 394.65 373.3 395.6 373.75 396.25 L374.5 396.9 Q374.65 396.35 374.85 396.35 375.1 396.35 375.2 396.9 375.65 396.7 375.95 396.25 376.45 395.6 376.45 394.65 376.45 393.75 375.95 393.05 375.5 392.4 374.85 392.4 M369.95 384.15 L369.95 384.1 370.4 382.8 Q371.9 383.05 372.9 384.1 374.25 385.6 373.85 387.0 373.6 387.75 372.95 388.3 L373.4 389.15 374.15 391.05 374.9 391.0 Q376.2 391.0 377.1 392.05 378.05 393.2 378.05 394.7 378.05 396.25 377.1 397.35 376.45 398.2 375.5 398.4 L375.6 400.5 375.45 402.95 Q376.4 403.15 377.1 404.0 L377.25 404.15 Q378.05 405.25 378.05 406.65 378.05 408.15 377.1 409.25 376.4 410.15 375.4 410.35 L375.5 412.35 375.4 414.7 Q376.25 414.9 376.95 415.7 377.9 416.8 377.9 418.35 377.9 419.85 376.95 420.95 376.15 421.95 375.1 422.1 L375.15 423.95 375.1 425.5 Q376.1 425.8 376.85 427.05 377.6 428.35 377.65 430.35 L376.1 430.35 376.1 430.05 Q376.1 429.0 375.55 428.3 L374.75 427.6 374.4 428.2 374.05 427.55 Q373.45 427.7 373.05 428.3 372.55 429.0 372.55 430.05 L372.6 430.35 371.25 430.35 Q370.95 428.4 371.75 427.05 372.6 425.7 373.75 425.45 L373.7 423.95 373.8 421.95 Q373.05 421.65 372.5 420.95 371.6 419.85 371.6 418.35 371.6 416.8 372.5 415.7 373.2 414.85 374.2 414.65 374.05 413.65 374.05 412.35 L374.15 410.3 Q373.35 410.0 372.65 409.25 371.75 408.15 371.75 406.65 371.75 405.25 372.5 404.15 L372.65 404.0 Q373.4 403.2 374.3 403.0 374.15 401.9 374.15 400.5 L374.25 398.35 Q373.35 398.15 372.65 397.35 371.75 396.25 371.75 394.7 371.75 393.2 372.65 392.05 L373.05 391.7 372.05 389.7 371.7 388.9 371.55 389.0 368.4 388.85 367.7 388.6 368.45 387.6 368.55 387.45 368.6 387.35 370.7 387.45 371.15 387.25 371.05 386.95 Q370.7 385.7 371.05 385.65 371.25 385.5 371.8 386.25 371.85 385.65 371.35 385.05 370.8 384.4 369.95 384.15 M341.0 371.6 Q342.9 371.85 344.1 372.8 L344.15 372.7 Q345.95 372.75 347.65 374.0 349.4 374.1 350.8 375.25 L350.8 375.3 348.6 381.45 348.2 381.45 Q346.85 381.25 345.7 380.5 L345.3 380.25 344.95 380.25 Q343.35 380.45 342.35 379.3 L341.9 379.0 341.45 378.9 Q339.85 378.95 338.7 377.95 336.7 377.9 335.15 376.65 333.1 376.35 331.45 375.3 329.6 374.95 328.1 374.05 326.15 373.95 324.65 372.8 322.9 372.65 321.25 371.55 319.6 371.3 318.25 370.45 316.8 370.25 315.7 369.5 L315.5 369.3 315.15 369.35 Q313.55 369.4 312.7 368.45 L312.6 368.3 312.5 368.2 315.1 361.8 Q316.7 361.65 317.85 362.8 319.3 362.85 320.65 363.9 322.25 364.05 323.5 364.95 325.4 365.25 327.0 366.3 328.85 366.5 330.45 367.6 332.2 367.8 333.8 368.85 335.85 368.85 337.45 370.3 339.35 370.5 341.0 371.6 M370.85 451.35 L377.45 451.35 377.6 451.75 Q377.9 453.05 377.55 454.45 L377.45 454.85 377.55 455.25 Q378.35 456.6 377.55 457.95 L377.45 458.45 377.55 459.0 Q378.15 460.4 377.55 461.85 378.2 463.75 377.55 465.6 377.95 467.6 377.55 469.6 377.9 471.4 377.55 473.15 378.15 475.0 377.5 476.8 378.0 478.5 377.5 480.4 377.9 482.0 377.5 483.65 377.85 485.0 377.5 486.35 L377.4 486.6 377.5 486.9 Q378.1 488.35 377.5 489.55 L377.45 489.7 377.4 489.8 370.45 489.6 Q369.8 488.1 370.5 486.6 370.05 485.25 370.55 483.65 370.1 482.0 370.6 480.6 370.2 478.7 370.65 476.8 370.25 475.0 370.7 473.15 370.25 471.4 370.7 469.6 369.95 467.6 370.75 465.6 370.35 463.75 370.8 461.9 370.4 459.95 370.85 458.55 L370.75 458.55 Q370.2 456.8 370.8 454.8 370.3 453.15 370.85 451.35" fill="#ffffff" fill-rule="evenodd" stroke="none"/>
  </g>
</svg>
