<?xml version="1.0" encoding="UTF-8" standalone="no"?>
<svg xmlns:xlink="http://www.w3.org/1999/xlink" height="24.4px" width="18.55px" xmlns="http://www.w3.org/2000/svg">
  <g transform="matrix(1.0, 0.0, 0.0, 1.0, -395.7, -244.7)">
    <path d="M404.65 256.55 L398.75 256.55 398.75 258.2 406.75 258.2 410.5 266.25 410.7 266.3 410.95 266.25 413.1 265.6 413.3 265.6 413.45 265.65 413.55 265.8 414.25 267.2 413.8 267.6 413.0 268.05 411.1 268.8 410.2 269.05 409.55 269.1 409.25 269.1 409.1 268.85 405.1 260.3 396.2 260.3 396.2 248.7 395.75 247.9 395.7 247.05 Q395.7 246.0 396.45 245.3 397.1 244.7 398.2 244.7 L399.1 244.85 399.9 245.25 400.45 246.0 400.65 246.9 400.5 247.75 400.1 248.5 399.5 249.05 398.75 249.4 398.75 254.25 404.65 254.25 404.65 256.55" fill="#000000" fill-rule="evenodd" stroke="none"/>
  </g>
</svg>
