<?xml version="1.0" encoding="UTF-8" standalone="no"?>
<svg xmlns:xlink="http://www.w3.org/1999/xlink" height="25.7px" width="11.75px" xmlns="http://www.w3.org/2000/svg">
  <g transform="matrix(1.0, 0.0, 0.0, 1.0, -394.05, -246.75)">
    <path d="M405.8 268.5 Q405.9 269.95 405.05 271.0 L394.75 271.0 394.2 269.8 394.05 268.35 Q394.1 267.7 394.55 266.85 L395.35 265.5 404.6 265.5 Q405.75 267.15 405.8 268.5 M405.15 271.2 L405.35 271.35 405.55 271.7 405.7 272.45 394.15 272.45 394.25 271.7 394.55 271.35 394.7 271.2 405.15 271.2 M404.9 265.15 L404.65 265.35 395.4 265.35 395.15 265.15 Q395.0 264.95 395.0 264.75 L395.3 264.35 395.6 264.3 404.45 264.3 404.75 264.35 405.05 264.75 404.9 265.15 M403.85 253.85 Q404.35 254.25 404.4 254.85 404.45 255.65 403.45 256.15 L401.65 256.15 Q401.9 257.75 402.75 260.2 403.55 262.65 404.3 264.05 L395.85 264.05 397.2 260.1 398.15 256.15 396.35 256.15 395.85 255.8 Q395.4 255.35 395.45 254.85 395.45 254.25 395.95 253.85 L396.5 253.55 398.4 253.55 398.4 253.5 Q397.5 253.1 396.95 252.25 396.4 251.4 396.4 250.35 396.4 248.85 397.4 247.8 398.45 246.75 399.9 246.75 401.35 246.75 402.4 247.8 403.4 248.85 403.4 250.35 403.4 251.4 402.9 252.25 L401.45 253.5 401.45 253.55 403.3 253.55 403.85 253.85" fill="#000000" fill-rule="evenodd" stroke="none"/>
  </g>
</svg>
