<?xml version="1.0" encoding="UTF-8" standalone="no"?>
<svg xmlns:xlink="http://www.w3.org/1999/xlink" height="28.6px" width="28.55px" xmlns="http://www.w3.org/2000/svg">
  <g transform="matrix(1.0, 0.0, 0.0, 1.0, -385.55, -245.95)">
    <path d="M406.0 260.25 Q406.0 262.8 404.2 264.6 402.45 266.4 399.95 266.4 L399.8 266.4 Q397.25 266.4 395.45 264.6 393.65 262.8 393.65 260.25 393.65 257.65 395.45 255.8 397.25 254.0 399.8 254.0 L399.95 254.0 Q402.45 254.05 404.2 255.8 406.0 257.65 406.0 260.25 M407.45 260.25 Q407.45 261.8 406.9 263.1 L406.95 263.1 413.6 260.25 406.85 257.35 Q407.45 258.7 407.45 260.25 M406.85 257.35 L406.9 257.3 409.65 250.5 402.8 253.2 405.2 254.85 405.25 254.95 Q406.3 256.05 406.85 257.35 M406.9 263.1 L409.7 270.0 402.9 267.3 402.85 267.3 399.95 274.05 397.1 267.35 397.05 267.4 390.15 270.05 392.85 263.3 Q393.4 264.6 394.45 265.65 L394.5 265.65 Q395.7 266.8 397.1 267.35 L399.8 267.85 399.95 267.85 402.85 267.25 405.2 265.65 405.25 265.55 Q406.35 264.45 406.9 263.1 M402.8 253.2 L399.95 252.65 399.8 252.65 398.45 252.75 Q397.65 252.9 396.9 253.2 395.6 253.8 394.55 254.85 L394.45 254.85 Q393.35 256.0 392.8 257.4 392.25 258.7 392.25 260.25 392.25 261.9 392.85 263.25 L386.05 260.25 392.8 257.4 390.15 250.45 396.9 253.2 399.95 246.45 402.8 253.2" fill="none" stroke="#000000" stroke-linecap="round" stroke-linejoin="round" stroke-opacity="0.5019608" stroke-width="1.0"/>
  </g>
</svg>
