<?xml version="1.0" encoding="UTF-8" standalone="no"?>
<svg xmlns:xlink="http://www.w3.org/1999/xlink" height="25.6px" width="27.0px" xmlns="http://www.w3.org/2000/svg">
  <g transform="matrix(1.0, 0.0, 0.0, 1.0, -386.3, -248.55)">
    <path d="M412.8 254.45 Q412.8 256.65 411.35 259.35 L409.0 259.35 Q410.4 256.55 410.4 254.55 410.4 253.0 409.75 252.05 409.1 251.1 408.05 251.1 405.7 251.1 403.6 256.55 402.5 259.4 401.75 263.95 401.0 268.5 401.0 272.25 L401.0 273.65 398.6 273.65 398.6 272.15 Q398.6 268.65 397.85 264.3 397.15 259.85 396.15 257.1 393.95 251.3 391.55 251.3 390.5 251.3 389.85 252.2 389.2 253.15 389.2 254.7 389.2 256.75 390.6 259.35 L388.25 259.35 Q386.8 256.7 386.8 254.5 386.8 252.15 388.15 250.65 389.5 249.05 391.55 249.05 394.85 249.05 397.1 253.35 399.2 257.35 399.8 263.7 400.3 257.5 402.45 253.45 404.75 249.05 408.05 249.05 410.1 249.05 411.45 250.6 412.8 252.15 412.8 254.45 Z" fill="none" stroke="#000000" stroke-linecap="round" stroke-linejoin="round" stroke-opacity="0.5019608" stroke-width="1.0"/>
  </g>
</svg>
