<?xml version="1.0" encoding="UTF-8" standalone="no"?>
<svg xmlns:xlink="http://www.w3.org/1999/xlink" height="25.4px" width="24.35px" xmlns="http://www.w3.org/2000/svg">
  <g transform="matrix(1.0, 0.0, 0.0, 1.0, -387.6, -249.05)">
    <path d="M411.45 249.55 L411.45 251.45 410.85 251.45 Q409.25 251.45 407.95 253.8 L407.2 255.15 405.5 257.6 Q404.7 258.4 403.55 258.7 405.65 259.65 406.85 261.6 408.05 263.55 408.05 265.8 408.05 269.1 405.55 271.55 403.1 273.95 399.8 273.95 396.45 273.95 394.0 271.55 391.55 269.1 391.55 265.8 391.55 263.55 392.75 261.6 393.95 259.65 396.0 258.7 394.85 258.4 394.1 257.6 L392.3 255.15 391.55 253.8 Q390.3 251.45 388.7 251.45 L388.1 251.45 388.1 249.55 389.3 249.55 Q391.9 249.55 393.95 253.15 L394.7 254.75 Q395.95 256.6 397.0 257.25 398.05 257.95 399.8 257.95 401.5 257.95 402.55 257.25 403.6 256.6 404.9 254.75 L405.6 253.15 Q407.65 249.55 410.25 249.55 L411.45 249.55 M405.65 265.8 Q405.65 263.4 403.95 261.75 402.2 260.0 399.8 260.0 397.35 260.0 395.6 261.75 393.95 263.4 393.95 265.8 393.95 268.2 395.6 269.9 397.35 271.6 399.8 271.6 402.2 271.6 403.95 269.9 405.65 268.2 405.65 265.8" fill="none" stroke="#000000" stroke-linecap="round" stroke-linejoin="round" stroke-opacity="0.5019608" stroke-width="1.0"/>
  </g>
</svg>
