<?xml version="1.0" encoding="UTF-8" standalone="no"?>
<svg xmlns:xlink="http://www.w3.org/1999/xlink" height="36.5px" width="28.35px" xmlns="http://www.w3.org/2000/svg">
  <g transform="matrix(1.0, 0.0, 0.0, 1.0, -386.1, -244.95)">
    <path d="M400.85 250.4 L399.85 250.85 Q400.25 251.25 400.4 251.1 L400.95 251.5 401.3 252.1 401.95 252.35 403.25 252.35 403.4 252.25 403.65 252.3 403.4 252.55 Q403.15 252.75 403.25 252.85 L404.6 253.05 404.6 253.35 Q404.45 253.65 404.6 253.75 L404.9 253.75 405.2 253.7 407.0 252.0 408.45 250.1 408.65 249.7 408.55 249.15 408.55 248.55 408.95 247.8 409.4 247.2 409.7 247.1 410.05 247.1 Q410.3 247.1 410.45 247.35 L410.15 247.6 409.9 247.8 410.2 248.25 410.85 247.6 411.15 247.45 411.6 247.35 412.65 248.3 412.55 248.4 412.45 248.25 Q411.85 248.0 411.65 248.25 L411.9 248.65 Q412.0 249.05 411.35 249.65 L412.15 249.9 412.65 250.4 412.7 250.8 412.55 250.95 411.8 250.65 411.35 251.2 410.7 251.35 Q410.55 251.2 410.45 251.2 L410.4 251.4 410.65 251.55 410.85 252.35 411.2 252.2 411.4 251.85 411.55 251.9 411.6 252.25 411.25 253.0 410.65 253.65 410.2 253.55 409.8 253.3 409.3 253.35 Q408.8 253.95 408.8 254.65 408.55 254.75 408.55 255.25 L408.45 255.9 408.1 255.65 406.8 256.85 Q406.7 257.4 407.15 257.7 L407.95 258.3 Q410.65 259.3 411.8 259.2 L412.6 259.05 413.5 259.35 413.95 259.85 413.75 260.25 413.5 260.65 413.35 260.3 Q413.15 260.1 413.25 260.0 L412.8 260.35 411.7 260.25 Q412.0 260.5 412.25 260.55 L412.6 260.7 413.0 260.75 Q413.6 261.55 413.55 261.9 413.4 262.55 413.1 262.65 L412.8 262.65 412.85 262.35 411.55 262.1 Q411.1 262.1 411.1 262.7 411.2 263.25 410.9 263.4 L410.45 262.8 409.55 261.65 408.75 262.2 408.95 262.85 408.7 262.95 408.4 262.65 408.1 262.35 407.75 261.9 407.35 261.45 407.1 261.35 Q406.95 261.35 406.75 261.55 L406.4 261.75 405.95 261.5 406.05 261.35 406.25 261.3 405.65 261.15 403.65 261.0 Q403.1 261.45 402.1 262.85 401.25 264.0 400.4 264.3 L399.35 264.8 Q398.7 264.95 398.4 265.45 L398.25 265.95 398.5 266.1 399.8 265.35 Q400.45 264.9 401.05 264.8 L403.15 264.85 Q403.75 265.0 404.45 265.6 L405.65 266.7 Q406.05 266.7 406.25 267.3 L406.6 268.0 406.85 268.65 408.1 268.2 408.35 268.25 Q408.55 268.25 408.55 267.75 L409.75 267.0 410.25 267.0 410.65 267.05 410.25 267.3 411.65 268.05 411.8 268.45 411.95 268.75 411.85 268.95 410.65 268.8 410.6 269.1 410.4 269.25 410.2 269.45 409.9 269.6 410.05 269.7 410.3 270.0 Q410.55 270.15 410.45 270.35 411.05 270.9 410.85 271.65 410.6 271.05 408.8 271.05 408.35 271.25 408.45 271.6 L409.25 271.8 408.8 272.3 408.35 272.4 Q408.0 272.4 407.6 272.1 L406.85 271.6 Q407.0 271.75 406.75 271.9 L406.65 272.25 406.1 272.7 405.95 272.7 Q405.8 272.7 405.8 272.45 L405.6 272.1 404.5 272.25 404.1 272.25 403.7 272.1 404.0 271.85 403.85 271.15 403.5 270.65 403.25 270.6 402.8 270.75 402.4 270.9 402.05 270.8 402.3 270.45 402.1 270.1 Q402.05 269.9 401.8 270.0 L401.05 270.2 400.7 270.05 400.2 269.95 Q399.95 269.85 399.8 270.1 L399.2 271.85 Q398.8 273.05 398.9 273.75 398.75 273.85 398.75 274.15 L398.6 274.5 396.6 276.05 Q396.4 276.15 396.5 277.05 L396.8 277.4 397.7 277.05 398.4 277.15 398.65 277.35 398.3 277.4 Q398.0 277.4 397.95 277.6 L398.15 277.7 398.6 277.55 399.1 277.5 399.6 277.9 Q399.4 277.9 399.35 278.25 L399.15 278.7 399.35 279.1 Q399.55 279.6 399.35 279.75 L398.5 279.75 398.65 279.6 398.6 279.15 398.35 279.45 398.0 279.7 397.85 279.65 Q397.55 279.75 397.4 279.4 L397.05 279.0 396.95 280.5 396.75 280.95 396.45 280.95 Q396.5 280.6 395.95 279.9 395.45 279.4 395.45 279.05 395.2 279.15 395.2 279.65 395.2 280.15 395.0 280.25 L394.55 279.15 394.25 279.25 Q393.95 279.05 393.95 278.3 393.6 277.8 393.3 277.9 L392.65 276.9 Q392.35 276.35 391.7 276.15 L391.7 275.9 391.65 275.6 392.45 275.8 Q393.7 275.05 393.8 274.45 L393.8 273.4 393.85 273.1 393.65 272.4 Q393.45 271.85 393.55 271.55 L393.25 271.2 392.9 270.9 392.4 271.3 391.7 271.5 390.5 271.8 Q389.5 271.8 388.75 271.2 L388.15 270.75 Q387.8 270.55 387.75 270.2 387.05 269.6 386.9 268.65 386.6 268.05 386.6 266.9 L386.6 265.0 387.4 261.55 388.4 259.5 Q388.75 259.25 388.75 258.6 L388.65 257.7 Q388.4 257.25 388.4 256.45 L388.55 256.15 Q388.7 255.65 389.55 255.75 390.75 256.5 390.45 258.4 L390.0 259.85 388.8 262.6 Q388.2 264.8 388.15 265.85 L388.85 268.75 389.6 269.4 389.95 269.65 391.4 269.7 392.0 269.3 392.45 268.65 393.2 266.0 393.75 264.75 Q393.95 263.8 394.3 263.4 L395.95 258.35 395.85 257.9 395.7 257.45 395.6 255.9 Q395.65 255.4 395.3 254.7 L394.75 253.55 Q393.8 252.15 393.6 251.4 393.3 251.25 393.3 250.5 L393.3 249.45 393.45 249.25 Q393.0 247.45 392.9 246.4 L393.05 246.2 393.2 246.0 Q393.65 245.85 394.15 246.25 L394.55 246.2 Q394.3 246.0 394.5 245.5 394.9 245.35 395.45 245.8 L396.2 246.3 396.65 246.05 397.25 246.3 Q397.65 246.3 397.85 246.6 L398.15 246.5 Q398.5 246.35 398.95 246.5 L399.7 246.75 400.3 247.5 400.6 248.25 400.55 248.55 399.4 249.35 400.3 249.45 Q400.65 249.4 400.9 249.0 L401.35 248.55 401.55 249.75 Q401.4 250.2 400.85 250.4 M397.25 247.8 L396.95 247.8 396.7 247.65 396.5 247.7 397.5 247.9 397.55 247.6 397.35 247.7 397.25 247.8" fill="none" stroke="#000000" stroke-linecap="round" stroke-linejoin="round" stroke-opacity="0.5019608" stroke-width="1.0"/>
  </g>
</svg>
