<?xml version="1.0" encoding="UTF-8" standalone="no"?>
<svg xmlns:xlink="http://www.w3.org/1999/xlink" height="30.25px" width="26.25px" xmlns="http://www.w3.org/2000/svg">
  <g transform="matrix(1.0, 0.0, 0.0, 1.0, -386.8, -245.4)">
    <path d="M404.8 269.0 L399.95 275.65 395.0 269.0 386.8 268.05 390.15 260.55 386.8 253.0 395.05 252.0 399.95 245.4 404.85 252.0 413.05 253.0 409.75 260.5 413.0 268.1 404.8 269.0 M408.75 265.6 L406.55 260.45 408.8 255.4 403.25 254.75 399.95 250.25 396.65 254.75 391.05 255.4 393.3 260.5 391.05 265.6 396.6 266.2 399.95 270.7 403.2 266.2 408.75 265.6" fill="#000000" fill-rule="evenodd" stroke="none"/>
  </g>
</svg>
