<?xml version="1.0" encoding="UTF-8" standalone="no"?>
<svg xmlns:xlink="http://www.w3.org/1999/xlink" height="24.7px" width="22.55px" xmlns="http://www.w3.org/2000/svg">
  <g transform="matrix(1.0, 0.0, 0.0, 1.0, -388.55, -249.2)">
    <path d="M404.3 269.3 Q405.0 270.05 406.75 270.05 L407.6 270.05 407.6 268.2 411.1 271.1 407.6 273.9 407.6 272.1 406.15 272.1 Q403.6 272.1 402.45 270.75 401.3 269.4 401.3 266.5 L401.3 255.25 Q401.3 252.5 400.7 251.4 398.9 253.65 398.05 257.2 L398.05 268.7 395.7 268.7 395.7 255.9 Q395.7 252.6 395.1 251.4 393.35 253.55 392.5 256.8 L392.5 268.7 390.1 268.7 390.1 255.15 Q390.1 251.9 388.55 249.55 L390.95 249.55 Q392.1 251.35 392.3 253.2 392.9 251.15 394.25 249.6 L396.35 249.2 Q397.7 250.8 397.95 253.4 398.3 251.55 399.9 249.6 L402.0 249.2 Q403.65 251.4 403.65 254.25 L403.65 265.85 403.75 268.3 Q403.85 268.85 404.3 269.3" fill="#000000" fill-rule="evenodd" stroke="none"/>
  </g>
</svg>
