<?xml version="1.0" encoding="UTF-8" standalone="no"?>
<svg xmlns:xlink="http://www.w3.org/1999/xlink" height="233.75px" width="61.85px" xmlns="http://www.w3.org/2000/svg">
  <g transform="matrix(1.0, 0.0, 0.0, 1.0, 80.2, -7.7)">
    <path d="M-57.6 58.1 L-67.05 40.65 Q-76.95 22.5 -79.15 18.9 -80.5 16.55 -80.15 14.95 -80.05 14.2 -79.65 13.95 L-73.6 11.65 Q-65.75 9.2 -56.7 7.7 L-48.1 56.4 -53.05 57.3 -56.35 57.8 -56.5 57.85 -57.6 58.1" fill="url(#gradient0)" fill-rule="evenodd" stroke="none"/>
    <path d="M-48.1 56.4 L-48.05 56.8 -39.35 105.9 -44.3 106.75 -44.55 105.3 -42.1 104.9 -40.95 103.2 -44.1 86.0 -45.6 84.9 -48.05 85.35 -53.05 57.3 -48.1 56.4" fill="url(#gradient1)" fill-rule="evenodd" stroke="none"/>
    <path d="M-48.05 56.8 L-46.55 58.15 -45.25 65.65 -44.35 65.5 -43.55 70.3 -44.65 70.5 -44.45 71.95 -43.3 71.7 -42.5 76.15 -43.65 76.35 -43.45 77.65 -42.3 77.5 -41.45 81.95 -42.65 82.15 -42.45 83.4 -41.3 83.25 -40.65 86.55 -40.5 87.6 -41.65 87.85 -41.4 89.25 -40.25 89.1 -39.45 93.45 -40.6 93.7 -40.4 95.05 -39.2 94.8 -38.4 99.2 -39.6 99.45 -39.35 100.85 -38.2 100.6 -37.4 105.0 -38.6 105.15 -38.3 106.6 -37.15 106.35 -36.4 110.75 -37.55 110.9 -37.35 112.4 -36.15 112.2 -35.4 116.6 -36.5 116.75 -36.25 118.15 -35.15 117.95 -34.35 122.35 -35.55 122.55 -35.25 123.9 -34.15 123.7 -33.35 128.05 -34.55 128.3 -34.25 129.75 -33.15 129.5 -32.35 133.85 -33.5 134.1 -33.25 135.5 -32.1 135.25 -31.3 139.65 -32.45 139.9 -32.2 141.3 -31.05 141.05 -30.3 145.4 -32.35 145.75 -39.35 105.9 -48.05 56.8" fill="url(#gradient2)" fill-rule="evenodd" stroke="none"/>
    <path d="M-49.05 108.15 L-51.75 108.6 -52.0 107.7 -53.4 103.2 -56.7 92.25 -58.75 92.5 -58.8 92.55 -60.7 91.75 -62.95 90.25 -59.6 90.05 Q-59.25 89.75 -61.25 88.05 -63.25 85.0 -62.1 79.2 -61.8 77.55 -64.35 77.35 L-66.9 77.45 -66.85 76.25 Q-67.2 74.95 -68.95 74.0 L-76.6 69.65 -75.2 57.85 -73.4 57.95 Q-70.9 59.2 -67.05 64.8 -62.75 70.75 -59.05 69.55 -57.6 69.15 -56.85 67.75 -56.15 66.3 -56.4 64.55 L-57.6 58.1 -56.5 57.85 -56.35 57.8 -49.05 99.15 -50.6 99.45 -49.05 108.15 M-55.2 78.95 L-55.9 78.05 Q-57.3 77.05 -60.6 78.45 -62.5 83.85 -60.6 87.1 L-59.1 88.85 -58.35 89.35 -55.05 88.8 -54.3 88.25 Q-53.65 87.45 -53.95 85.95 L-54.55 82.5 -55.2 78.95" fill="url(#gradient3)" fill-rule="evenodd" stroke="none"/>
    <path d="M-48.05 110.85 L-49.05 108.15 -46.8 107.7 -48.3 99.1 -49.05 99.15 -56.35 57.8 -53.05 57.3 -48.05 85.35 -44.55 105.15 -44.55 105.3 -44.3 106.75 -45.3 106.9 -48.05 110.85" fill="url(#gradient4)" fill-rule="evenodd" stroke="none"/>
    <path d="M-43.55 70.3 L-40.25 69.75 -36.9 88.35 -37.0 88.5 -40.25 89.1 -41.4 89.25 -41.65 87.85 -40.5 87.6 -40.65 86.55 -41.3 83.25 -42.45 83.4 -42.65 82.15 -41.45 81.95 -42.3 77.5 -43.45 77.65 -43.65 76.35 -42.5 76.15 -43.3 71.7 -44.45 71.95 -44.65 70.5 -43.55 70.3" fill="url(#gradient5)" fill-rule="evenodd" stroke="none"/>
    <path d="M-42.0 68.55 L-42.7 64.8 -34.15 63.25 -33.45 67.0 -42.0 68.55" fill="url(#gradient6)" fill-rule="evenodd" stroke="none"/>
    <path d="M-76.6 69.65 Q-79.2 70.8 -79.9 70.0 -80.3 69.6 -80.1 69.0 L-78.75 57.25 Q-78.6 56.45 -78.1 56.25 -77.05 55.8 -75.2 57.85 L-76.6 69.65" fill="url(#gradient7)" fill-rule="evenodd" stroke="none"/>
    <path d="M-48.05 85.35 L-45.6 84.9 -44.1 86.0 -40.95 103.2 -42.1 104.9 -44.55 105.3 -44.55 105.15 -48.05 85.35" fill="url(#gradient8)" fill-rule="evenodd" stroke="none"/>
    <path d="M-55.2 78.95 L-54.55 82.5 -56.25 81.6 Q-58.35 81.2 -60.7 83.05 -59.85 80.65 -57.45 79.55 L-55.2 78.95" fill="url(#gradient9)" fill-rule="evenodd" stroke="none"/>
    <path d="M-64.55 105.1 L-67.05 93.8 -58.8 92.55 -58.75 92.5 -56.7 92.25 -53.4 103.2 -64.55 105.1" fill="url(#gradient10)" fill-rule="evenodd" stroke="none"/>
    <path d="M-40.25 69.7 L-42.0 68.55 -33.45 67.0 -34.65 68.7 -40.25 69.7" fill="url(#gradient11)" fill-rule="evenodd" stroke="none"/>
    <path d="M-40.25 69.75 L-40.25 69.7 -34.65 68.7 -31.35 87.35 -36.9 88.35 -40.25 69.75 M-34.95 78.05 L-34.95 78.0 -35.7 75.05 -36.45 75.0 -37.1 75.3 -36.85 78.3 -37.3 78.9 Q-37.8 79.6 -37.7 80.45 L-37.65 80.55 Q-37.5 81.4 -36.8 81.9 L-36.15 82.1 -35.35 85.2 -34.65 85.2 -33.95 84.95 -34.25 81.8 -33.75 81.35 Q-33.3 80.6 -33.45 79.75 -33.6 78.9 -34.25 78.35 -34.6 78.15 -34.95 78.05" fill="url(#gradient12)" fill-rule="evenodd" stroke="none"/>
    <path d="M-34.95 78.05 Q-34.6 78.15 -34.25 78.35 -33.6 78.9 -33.45 79.75 -33.3 80.6 -33.75 81.35 L-34.25 81.8 -35.2 82.2 -36.15 82.1 -36.8 81.9 Q-37.5 81.4 -37.65 80.55 L-37.7 80.45 Q-37.8 79.6 -37.3 78.9 L-36.85 78.3 -35.95 78.0 -35.1 78.0 -34.95 78.05" fill="url(#gradient13)" fill-rule="evenodd" stroke="none"/>
    <path d="M-36.85 78.3 L-37.1 75.3 -36.45 75.0 -35.7 75.05 -34.95 78.0 -34.95 78.05 -35.1 78.0 -35.95 78.0 -36.85 78.3" fill="url(#gradient14)" fill-rule="evenodd" stroke="none"/>
    <path d="M-34.25 81.8 L-33.95 84.95 -34.65 85.2 -35.35 85.2 -36.15 82.1 -35.2 82.2 -34.25 81.8" fill="url(#gradient15)" fill-rule="evenodd" stroke="none"/>
    <path d="M-31.35 87.35 L-28.8 91.3 -38.05 92.9 -37.0 88.5 -36.9 88.35 -31.35 87.35" fill="url(#gradient16)" fill-rule="evenodd" stroke="none"/>
    <path d="M-28.8 91.3 L-25.9 107.75 -26.75 107.95 -34.25 109.3 -35.1 109.45 -38.05 92.9 -28.8 91.3" fill="url(#gradient17)" fill-rule="evenodd" stroke="none"/>
    <path d="M-26.75 107.95 L-26.55 109.15 -34.05 110.5 -34.25 109.3 -26.75 107.95" fill="url(#gradient18)" fill-rule="evenodd" stroke="none"/>
    <path d="M-26.55 109.15 L-25.65 109.05 -25.05 112.6 -34.25 114.2 -34.95 110.65 -34.05 110.5 -26.55 109.15" fill="url(#gradient19)" fill-rule="evenodd" stroke="none"/>
    <path d="M-32.35 145.75 L-22.9 199.1 -26.15 201.35 -29.6 201.9 -30.7 202.1 -32.15 201.1 -48.05 110.85 -45.3 106.9 -44.3 106.75 -39.35 105.9 -32.35 145.75" fill="url(#gradient20)" fill-rule="evenodd" stroke="none"/>
    <path d="M-49.05 99.15 L-48.3 99.1 -46.8 107.7 -49.05 108.15 -50.6 99.45 -49.05 99.15" fill="url(#gradient21)" fill-rule="evenodd" stroke="none"/>
    <path d="M-52.0 107.7 L-63.55 109.75 -64.55 105.1 -53.4 103.2 -52.0 107.7" fill="url(#gradient22)" fill-rule="evenodd" stroke="none"/>
    <path d="M-26.15 201.35 L-23.25 217.95 -26.65 218.55 -29.6 201.9 -26.15 201.35" fill="url(#gradient23)" fill-rule="evenodd" stroke="none"/>
    <path d="M-23.25 217.95 L-22.3 217.75 -18.35 240.5 -23.5 241.45 -27.55 218.7 -26.65 218.55 -23.25 217.95" fill="url(#gradient24)" fill-rule="evenodd" stroke="none"/>
    <path d="M-44.45 71.95 L-44.65 70.5 -40.25 69.75 -36.9 88.35 -37.0 88.5 -41.4 89.25 -41.65 87.85 -40.5 87.6 -40.65 86.55 -41.3 83.25 -42.45 83.4 -42.65 82.15 -41.45 81.95 -42.3 77.5 -43.45 77.65 -43.65 76.35 -42.5 76.15 -43.3 71.7 -44.45 71.95 M-53.05 57.3 L-48.05 85.35 -45.6 84.9 -44.1 86.0 -40.95 103.2 -42.1 104.9 -44.55 105.3 -44.3 106.75 -45.3 106.9 -48.05 110.85 -49.05 108.15 -46.8 107.7 -48.3 99.1 -49.05 99.15 -56.35 57.8 -53.05 57.3 M-78.1 56.25 Q-77.05 55.8 -75.2 57.85 L-76.6 69.65 Q-79.2 70.8 -79.9 70.0 -80.3 69.6 -80.1 69.0 L-78.75 57.25 Q-78.6 56.45 -78.1 56.25 M-40.25 69.7 L-42.0 68.55 -33.45 67.0 -34.65 68.7 -40.25 69.7 M-34.95 78.05 L-35.1 78.0 -35.95 78.0 -36.85 78.3 -37.1 75.3 -36.45 75.0 -35.7 75.05 -34.95 78.0 -34.95 78.05 M-34.65 85.2 L-35.35 85.2 -36.15 82.1 -35.2 82.2 -34.25 81.8 -33.95 84.95 -34.65 85.2 M-26.75 107.95 L-26.55 109.15 -34.05 110.5 -34.25 109.3 -26.75 107.95 M-52.0 107.7 L-63.55 109.75 -64.55 105.1 -53.4 103.2 -52.0 107.7 M-26.15 201.35 L-23.25 217.95 -26.65 218.55 -29.6 201.9 -26.15 201.35" fill="#000000" fill-opacity="0.2" fill-rule="evenodd" stroke="none"/>
    <path d="M-33.15 141.1 L-41.25 149.55 -42.9 139.95 -34.65 132.75 -33.15 141.1 M-37.8 168.75 L-39.55 159.2 -31.5 150.6 -29.8 159.85 -37.8 168.75" fill="#ffffff" fill-opacity="0.5019608" fill-rule="evenodd" stroke="none"/>
  </g>
  <defs>
    <linearGradient gradientTransform="matrix(0.0, 0.0308, -0.0196, 0.0, -64.15, 32.9)" gradientUnits="userSpaceOnUse" id="gradient0" spreadMethod="pad" x1="-819.2" x2="819.2">
      <stop offset="0.0" stop-color="#000000" stop-opacity="0.2509804"/>
      <stop offset="1.0" stop-color="#000000" stop-opacity="0.0"/>
    </linearGradient>
    <linearGradient gradientTransform="matrix(0.0, 0.0307, -0.0083, 0.0, -46.2, 81.6)" gradientUnits="userSpaceOnUse" id="gradient1" spreadMethod="pad" x1="-819.2" x2="819.2">
      <stop offset="0.0" stop-color="#000000" stop-opacity="0.2509804"/>
      <stop offset="1.0" stop-color="#000000" stop-opacity="0.0"/>
    </linearGradient>
    <linearGradient gradientTransform="matrix(0.0, 0.0543, -0.0108, 0.0, -39.15, 101.25)" gradientUnits="userSpaceOnUse" id="gradient2" spreadMethod="pad" x1="-819.2" x2="819.2">
      <stop offset="0.0" stop-color="#000000" stop-opacity="0.2509804"/>
      <stop offset="1.0" stop-color="#000000" stop-opacity="0.0"/>
    </linearGradient>
    <linearGradient gradientTransform="matrix(0.0, 0.0311, -0.0168, 0.0, -62.85, 83.1)" gradientUnits="userSpaceOnUse" id="gradient3" spreadMethod="pad" x1="-819.2" x2="819.2">
      <stop offset="0.0" stop-color="#000000" stop-opacity="0.2509804"/>
      <stop offset="1.0" stop-color="#000000" stop-opacity="0.0"/>
    </linearGradient>
    <linearGradient gradientTransform="matrix(0.0, 0.0327, -0.0074, 0.0, -50.35, 84.1)" gradientUnits="userSpaceOnUse" id="gradient4" spreadMethod="pad" x1="-819.2" x2="819.2">
      <stop offset="0.0" stop-color="#000000" stop-opacity="0.2509804"/>
      <stop offset="1.0" stop-color="#000000" stop-opacity="0.0"/>
    </linearGradient>
    <linearGradient gradientTransform="matrix(0.0, 0.0119, -0.0047, 0.0, -40.8, 79.5)" gradientUnits="userSpaceOnUse" id="gradient5" spreadMethod="pad" x1="-819.2" x2="819.2">
      <stop offset="0.0" stop-color="#000000" stop-opacity="0.2509804"/>
      <stop offset="1.0" stop-color="#000000" stop-opacity="0.0"/>
    </linearGradient>
    <linearGradient gradientTransform="matrix(0.0, 0.0032, -0.0056, 0.0, -38.05, 65.85)" gradientUnits="userSpaceOnUse" id="gradient6" spreadMethod="pad" x1="-819.2" x2="819.2">
      <stop offset="0.0" stop-color="#000000" stop-opacity="0.2509804"/>
      <stop offset="1.0" stop-color="#000000" stop-opacity="0.0"/>
    </linearGradient>
    <linearGradient gradientTransform="matrix(0.0, 0.0087, -0.003, 0.0, -77.7, 63.2)" gradientUnits="userSpaceOnUse" id="gradient7" spreadMethod="pad" x1="-819.2" x2="819.2">
      <stop offset="0.0" stop-color="#000000" stop-opacity="0.2509804"/>
      <stop offset="1.0" stop-color="#000000" stop-opacity="0.0"/>
    </linearGradient>
    <linearGradient gradientTransform="matrix(0.0, 0.0124, -0.0043, 0.0, -44.5, 95.1)" gradientUnits="userSpaceOnUse" id="gradient8" spreadMethod="pad" x1="-819.2" x2="819.2">
      <stop offset="0.0" stop-color="#000000" stop-opacity="0.2509804"/>
      <stop offset="1.0" stop-color="#000000" stop-opacity="0.0"/>
    </linearGradient>
    <linearGradient gradientTransform="matrix(0.0, 0.0025, -0.0037, 0.0, -57.6, 81.0)" gradientUnits="userSpaceOnUse" id="gradient9" spreadMethod="pad" x1="-819.2" x2="819.2">
      <stop offset="0.0" stop-color="#000000" stop-opacity="0.2509804"/>
      <stop offset="1.0" stop-color="#000000" stop-opacity="0.0"/>
    </linearGradient>
    <linearGradient gradientTransform="matrix(0.0, 0.0079, -0.0083, 0.0, -60.25, 98.7)" gradientUnits="userSpaceOnUse" id="gradient10" spreadMethod="pad" x1="-819.2" x2="819.2">
      <stop offset="0.0" stop-color="#000000" stop-opacity="0.2509804"/>
      <stop offset="1.0" stop-color="#000000" stop-opacity="0.0"/>
    </linearGradient>
    <linearGradient gradientTransform="matrix(0.0, 0.0016, -0.0052, 0.0, -37.75, 68.35)" gradientUnits="userSpaceOnUse" id="gradient11" spreadMethod="pad" x1="-819.2" x2="819.2">
      <stop offset="0.0" stop-color="#000000" stop-opacity="0.2509804"/>
      <stop offset="1.0" stop-color="#000000" stop-opacity="0.0"/>
    </linearGradient>
    <linearGradient gradientTransform="matrix(0.0, 0.012, -0.0054, 0.0, -35.8, 78.5)" gradientUnits="userSpaceOnUse" id="gradient12" spreadMethod="pad" x1="-819.2" x2="819.2">
      <stop offset="0.0" stop-color="#000000" stop-opacity="0.2509804"/>
      <stop offset="1.0" stop-color="#000000" stop-opacity="0.0"/>
    </linearGradient>
    <linearGradient gradientTransform="matrix(0.0, 0.0026, -0.0026, 0.0, -35.55, 80.1)" gradientUnits="userSpaceOnUse" id="gradient13" spreadMethod="pad" x1="-819.2" x2="819.2">
      <stop offset="0.0" stop-color="#000000" stop-opacity="0.2509804"/>
      <stop offset="1.0" stop-color="#000000" stop-opacity="0.0"/>
    </linearGradient>
    <linearGradient gradientTransform="matrix(0.0, 0.002, -0.0013, 0.0, -36.0, 76.65)" gradientUnits="userSpaceOnUse" id="gradient14" spreadMethod="pad" x1="-819.2" x2="819.2">
      <stop offset="0.0" stop-color="#000000" stop-opacity="0.2509804"/>
      <stop offset="1.0" stop-color="#000000" stop-opacity="0.0"/>
    </linearGradient>
    <linearGradient gradientTransform="matrix(0.0, 0.0021, -0.0013, 0.0, -35.05, 83.5)" gradientUnits="userSpaceOnUse" id="gradient15" spreadMethod="pad" x1="-819.2" x2="819.2">
      <stop offset="0.0" stop-color="#000000" stop-opacity="0.2509804"/>
      <stop offset="1.0" stop-color="#000000" stop-opacity="0.0"/>
    </linearGradient>
    <linearGradient gradientTransform="matrix(0.0, 0.0034, -0.0056, 0.0, -33.4, 90.15)" gradientUnits="userSpaceOnUse" id="gradient16" spreadMethod="pad" x1="-819.2" x2="819.2">
      <stop offset="0.0" stop-color="#000000" stop-opacity="0.2509804"/>
      <stop offset="1.0" stop-color="#000000" stop-opacity="0.0"/>
    </linearGradient>
    <linearGradient gradientTransform="matrix(0.0, 0.0111, -0.0074, 0.0, -31.95, 100.35)" gradientUnits="userSpaceOnUse" id="gradient17" spreadMethod="pad" x1="-819.2" x2="819.2">
      <stop offset="0.0" stop-color="#000000" stop-opacity="0.2509804"/>
      <stop offset="1.0" stop-color="#000000" stop-opacity="0.0"/>
    </linearGradient>
    <linearGradient gradientTransform="matrix(0.0, 0.0016, -0.0047, 0.0, -30.4, 109.2)" gradientUnits="userSpaceOnUse" id="gradient18" spreadMethod="pad" x1="-819.2" x2="819.2">
      <stop offset="0.0" stop-color="#000000" stop-opacity="0.2509804"/>
      <stop offset="1.0" stop-color="#000000" stop-opacity="0.0"/>
    </linearGradient>
    <linearGradient gradientTransform="matrix(0.0, 0.0032, -0.006, 0.0, -30.0, 111.6)" gradientUnits="userSpaceOnUse" id="gradient19" spreadMethod="pad" x1="-819.2" x2="819.2">
      <stop offset="0.0" stop-color="#000000" stop-opacity="0.2509804"/>
      <stop offset="1.0" stop-color="#000000" stop-opacity="0.0"/>
    </linearGradient>
    <linearGradient gradientTransform="matrix(0.0, 0.0587, -0.0154, 0.0, -35.45, 154.0)" gradientUnits="userSpaceOnUse" id="gradient20" spreadMethod="pad" x1="-819.2" x2="819.2">
      <stop offset="0.0" stop-color="#000000" stop-opacity="0.2509804"/>
      <stop offset="1.0" stop-color="#000000" stop-opacity="0.0"/>
    </linearGradient>
    <linearGradient gradientTransform="matrix(0.0, 0.0055, -0.0023, 0.0, -48.7, 103.6)" gradientUnits="userSpaceOnUse" id="gradient21" spreadMethod="pad" x1="-819.2" x2="819.2">
      <stop offset="0.0" stop-color="#000000" stop-opacity="0.2509804"/>
      <stop offset="1.0" stop-color="#000000" stop-opacity="0.0"/>
    </linearGradient>
    <linearGradient gradientTransform="matrix(0.0, 0.004, -0.0077, 0.0, -58.25, 106.45)" gradientUnits="userSpaceOnUse" id="gradient22" spreadMethod="pad" x1="-819.2" x2="819.2">
      <stop offset="0.0" stop-color="#000000" stop-opacity="0.2509804"/>
      <stop offset="1.0" stop-color="#000000" stop-opacity="0.0"/>
    </linearGradient>
    <linearGradient gradientTransform="matrix(0.0, 0.0105, -0.0039, 0.0, -26.4, 209.95)" gradientUnits="userSpaceOnUse" id="gradient23" spreadMethod="pad" x1="-819.2" x2="819.2">
      <stop offset="0.0" stop-color="#000000" stop-opacity="0.2509804"/>
      <stop offset="1.0" stop-color="#000000" stop-opacity="0.0"/>
    </linearGradient>
    <linearGradient gradientTransform="matrix(0.0, 0.0145, -0.0056, 0.0, -22.95, 229.6)" gradientUnits="userSpaceOnUse" id="gradient24" spreadMethod="pad" x1="-819.2" x2="819.2">
      <stop offset="0.0" stop-color="#000000" stop-opacity="0.2509804"/>
      <stop offset="1.0" stop-color="#000000" stop-opacity="0.0"/>
    </linearGradient>
  </defs>
</svg>
