<?xml version="1.0" encoding="UTF-8" standalone="no"?>
<svg xmlns:xlink="http://www.w3.org/1999/xlink" height="72.8px" width="29.15px" xmlns="http://www.w3.org/2000/svg">
  <g transform="matrix(1.0, 0.0, 0.0, 1.0, -339.55, -378.55)">
    <path d="M340.1 378.55 Q341.2 379.0 342.5 380.45 L343.15 381.25 344.6 383.75 Q345.4 385.2 345.4 385.95 L345.35 386.1 344.35 386.15 344.3 386.15 Q343.0 385.9 341.95 386.75 341.35 387.55 341.0 388.8 340.85 390.35 341.3 391.65 341.95 393.85 343.2 394.55 L343.7 394.75 345.5 394.65 Q346.05 394.6 346.7 393.65 L347.05 393.2 346.85 392.8 Q346.8 392.25 347.1 392.2 L347.45 392.25 348.4 393.6 348.4 393.75 349.65 398.05 Q349.85 398.9 349.55 399.15 L348.7 399.05 Q348.3 398.65 347.8 396.6 347.75 395.5 346.6 395.35 L342.25 395.25 Q340.9 394.6 339.9 392.6 339.35 391.1 339.65 389.25 339.9 387.7 341.0 386.3 L342.25 384.3 Q342.55 383.4 342.35 382.85 L342.35 382.5 Q342.35 381.95 341.55 381.3 L341.5 381.25 340.1 379.75 Q339.35 378.95 339.6 378.7 339.65 378.5 340.1 378.55 M343.1 391.4 Q344.0 390.15 345.45 389.95 L345.4 389.9 Q345.35 389.6 345.8 389.4 L345.85 389.4 346.85 389.1 Q347.15 388.95 347.3 389.45 L347.65 390.85 347.6 391.05 347.4 391.25 346.9 391.25 346.4 391.0 Q345.0 390.85 343.45 391.95 343.0 392.25 343.1 391.4 M350.95 384.3 Q351.8 384.0 352.7 384.55 L352.75 384.6 Q353.65 385.45 355.2 389.4 355.9 389.2 356.15 388.25 L356.3 387.7 356.3 387.65 356.45 387.65 356.75 387.5 356.7 387.45 356.8 387.45 Q357.15 386.5 358.65 386.15 L360.7 386.35 Q361.45 386.4 361.75 386.05 L361.7 385.85 Q361.7 385.2 362.3 385.25 362.9 385.2 363.05 385.7 363.15 386.2 362.9 386.55 L362.85 387.3 362.85 387.4 363.05 387.7 363.3 387.8 363.5 387.6 Q363.9 387.45 363.95 387.6 L364.1 387.9 364.7 387.8 364.9 387.65 Q365.3 387.25 366.05 387.3 366.6 387.45 366.8 387.8 L367.3 387.65 Q367.75 387.6 367.75 388.05 367.8 388.55 367.4 388.55 L367.25 388.5 366.9 388.45 366.9 388.6 366.35 389.2 365.1 389.15 364.8 389.0 364.2 389.05 364.1 389.3 363.65 389.45 363.45 389.25 Q363.1 389.2 363.0 389.4 L363.0 389.45 362.85 389.7 363.0 390.9 362.55 391.95 362.1 392.2 361.9 392.4 Q361.45 393.2 361.2 392.8 L361.1 392.7 360.9 392.4 360.4 392.25 360.45 392.25 Q359.9 392.15 359.7 391.05 L359.45 391.05 358.9 391.2 Q358.3 391.3 358.3 391.7 358.15 391.9 358.05 391.7 358.0 391.55 358.1 391.45 L358.1 391.4 357.85 391.25 357.05 391.15 356.9 391.2 Q356.75 391.05 357.15 390.9 L355.8 390.8 356.8 395.15 358.6 394.85 359.65 400.5 361.05 399.15 361.5 398.8 361.9 398.7 Q362.35 398.65 362.4 398.85 L362.45 398.85 Q362.75 399.2 363.2 399.2 L363.4 399.35 365.7 400.65 Q367.55 402.0 368.0 403.0 L368.0 403.15 368.0 403.25 368.1 403.65 Q368.1 404.3 367.55 404.5 L367.45 404.55 Q367.1 404.55 367.1 404.25 366.7 403.25 365.75 402.45 364.95 401.85 363.35 401.7 362.3 401.4 362.0 400.85 L361.95 400.5 361.3 400.45 360.35 401.55 359.95 401.95 363.4 420.6 363.25 420.9 363.2 420.95 363.35 421.5 368.0 448.2 368.3 448.9 368.25 448.95 368.5 449.55 368.6 449.55 368.65 450.4 Q368.25 450.85 366.5 451.2 L364.0 451.15 363.75 450.4 363.9 450.1 363.9 449.65 363.85 449.55 363.85 449.05 361.9 438.65 360.9 438.8 Q361.25 439.6 360.5 439.8 L359.7 440.0 Q358.9 440.05 358.8 439.25 359.0 438.9 358.85 438.25 L355.5 419.15 Q356.55 419.7 356.7 420.25 L356.75 420.6 356.75 420.8 359.25 433.1 360.0 435.25 360.35 436.75 Q360.45 437.4 361.1 437.25 L361.65 437.15 364.2 436.75 Q364.55 436.75 364.5 436.35 L362.4 425.1 362.3 424.8 359.2 408.15 Q359.05 407.7 359.2 407.4 L356.4 407.75 Q354.35 407.55 353.4 405.3 351.9 401.55 350.6 396.0 L349.1 388.55 Q348.9 385.55 350.6 384.45 L350.95 384.3" fill="#ffffff" fill-rule="evenodd" stroke="none"/>
  </g>
</svg>
