<?xml version="1.0" encoding="UTF-8" standalone="no"?>
<svg xmlns:xlink="http://www.w3.org/1999/xlink" height="78.1px" width="43.4px" xmlns="http://www.w3.org/2000/svg">
  <g transform="matrix(1.0, 0.0, 0.0, 1.0, -327.05, -365.9)">
    <path d="M359.1 377.05 Q359.1 377.55 358.3 378.2 357.3 379.25 358.3 380.5 L359.15 381.35 359.45 381.45 360.1 382.05 360.5 382.95 363.05 398.7 Q362.25 400.0 362.5 401.4 L363.1 405.0 Q363.1 405.4 362.6 405.45 362.85 405.45 362.95 406.15 L368.8 439.2 Q369.65 439.1 369.95 439.45 370.1 440.7 369.1 440.85 L369.4 442.65 Q367.5 443.85 365.3 443.35 L363.65 434.25 362.8 434.35 362.15 434.2 361.7 433.35 360.1 424.45 Q359.4 424.25 359.0 423.3 L358.75 422.7 356.95 416.25 355.8 412.8 354.65 410.05 353.75 407.85 353.35 405.55 Q352.9 405.2 352.8 404.7 L351.75 401.3 Q351.05 401.35 350.65 400.5 L348.9 396.15 348.2 394.3 Q347.55 392.75 346.0 393.05 L344.35 393.2 Q342.1 393.0 341.05 391.45 339.6 389.15 339.7 386.7 340.15 384.7 342.2 383.7 343.6 383.3 343.65 382.05 343.55 381.2 342.7 380.5 L342.5 380.1 Q339.85 377.45 336.05 378.2 L333.55 378.65 329.75 379.7 Q329.3 379.95 329.1 379.2 L328.85 377.1 328.4 373.9 Q327.65 370.1 327.55 367.55 L327.6 367.2 Q327.7 366.45 327.95 366.4 L330.75 367.2 336.9 368.9 Q340.6 369.75 343.3 371.3 346.35 373.0 347.85 375.75 L348.1 376.0 348.95 378.45 Q350.75 378.45 351.8 380.15 353.35 379.1 355.7 379.45 356.15 378.0 357.55 377.45 358.4 377.1 358.55 376.3 359.1 376.4 359.1 377.05 M341.0 389.85 Q341.7 391.55 343.05 392.3 344.6 392.8 345.8 391.8 346.65 391.05 346.4 389.8 L345.15 386.1 Q344.2 385.8 342.8 386.5 342.15 386.95 341.8 387.7 L341.4 387.85 Q341.15 387.7 341.4 387.15 342.05 385.45 344.55 385.05 L343.65 384.65 Q341.9 384.45 340.85 386.15 340.15 387.45 341.0 389.85" fill="none" stroke="#000000" stroke-linecap="round" stroke-linejoin="round" stroke-width="1.0"/>
    <path d="M347.85 375.75 L347.5 375.85 Q346.95 376.05 347.15 376.45 347.15 377.55 346.35 378.5 345.1 379.85 343.65 379.4 343.1 379.2 342.6 379.95 L342.5 380.1 M354.65 384.65 L354.7 384.65 354.8 384.65 354.95 384.6 355.05 384.6 355.4 384.5 355.15 383.0 354.9 381.45 Q354.5 380.55 353.15 380.7 351.8 380.95 351.55 382.0 L351.8 383.6 352.1 385.1 353.1 384.9 353.9 384.75 354.4 384.7 354.65 384.65 M355.05 384.6 L357.05 384.4 Q357.45 384.7 358.1 384.4 358.65 384.45 358.75 384.75 L360.7 395.65 360.8 395.65 360.75 394.1 359.0 384.3 Q358.95 383.85 358.25 384.0 L357.55 384.15 357.35 384.15 355.4 384.5 M357.35 384.15 Q356.8 383.25 355.15 383.0 M349.6 381.15 L349.5 381.65 349.1 381.85 348.65 381.8 348.4 381.4 348.5 380.95 Q348.65 380.7 348.85 380.7 L349.35 380.8 349.6 381.15 M359.15 381.35 L358.95 381.45 Q357.55 381.95 355.8 380.95 354.3 379.75 352.25 380.7 L351.8 380.15 M352.1 385.1 L350.35 385.4 349.6 385.55 Q348.8 385.65 348.8 386.75 L351.0 397.45 Q351.8 399.6 353.35 399.45 354.65 399.25 354.8 397.45 352.3 397.65 351.35 397.45 L349.4 386.35 Q349.55 386.15 349.85 386.05 350.3 386.2 350.8 385.6 L353.1 384.9 Q354.0 385.3 354.7 384.65 L355.8 390.75 Q356.1 392.45 355.3 392.7 354.5 392.75 354.15 391.05 L353.1 384.9 M351.8 383.6 Q350.55 384.3 350.35 385.4 M343.65 382.05 L344.05 381.6 344.65 381.55 345.0 381.9 349.15 395.1 Q349.35 395.6 348.9 396.15 M347.3 384.65 L347.75 384.75 347.95 385.1 347.9 385.5 347.55 385.75 347.15 385.65 346.85 385.25 347.0 384.85 Q347.1 384.7 347.3 384.65 M345.15 386.1 Q345.05 385.4 344.55 385.05 M349.85 386.05 L350.9 392.0 Q351.2 393.75 351.75 393.75 352.2 393.55 351.9 391.85 L350.8 385.6 M360.7 395.65 L360.65 395.65 357.2 396.35 357.2 396.4 Q359.45 397.2 360.8 395.65 M354.8 397.45 L354.8 397.05 354.75 396.85 Q355.9 396.15 357.2 396.35 M360.65 395.65 L355.85 396.0 Q353.7 396.5 351.35 397.45 M357.05 384.4 L358.1 390.65 Q358.45 392.4 359.0 392.4 359.45 392.2 359.15 390.5 L358.1 384.4 M327.55 367.55 Q327.95 366.75 330.75 367.2 M336.7 372.15 Q336.8 372.55 336.55 372.85 L335.95 373.25 Q335.55 373.35 335.2 373.05 334.85 372.85 334.75 372.45 334.7 372.05 335.0 371.7 335.2 371.4 335.6 371.3 L336.35 371.5 336.7 372.15 M333.55 378.65 Q329.3 379.3 328.85 377.1 M358.2 405.6 Q358.35 405.3 357.75 405.35 357.0 405.45 357.15 405.85 L357.2 405.95 360.05 422.35 360.05 422.45 360.1 422.55 Q360.7 422.65 361.2 422.35 L361.2 422.3 361.15 422.2 358.25 405.8 358.2 405.6 M362.6 405.45 L359.4 405.95 Q358.7 406.2 358.75 406.6 L361.6 422.55 361.75 423.6 363.65 434.25 M358.75 406.6 L358.55 405.35 Q358.5 405.75 358.25 405.8 M360.05 422.45 L360.0 422.5 359.9 422.85 360.05 423.9 Q360.3 424.3 361.05 424.1 L361.55 423.9 361.75 423.6 M361.15 422.2 L361.25 422.2 361.6 422.55 M353.35 405.55 L353.9 405.85 355.4 406.45 356.2 406.55 Q356.75 406.35 356.75 405.6 L356.65 405.25 354.8 397.05 M357.2 405.95 Q356.9 405.95 356.75 405.6 M368.8 439.2 L369.1 440.85 M357.2 396.4 L358.55 405.35" fill="none" stroke="#000000" stroke-linecap="round" stroke-linejoin="round" stroke-opacity="0.5019608" stroke-width="1.0"/>
  </g>
</svg>
