<?xml version="1.0" encoding="UTF-8" standalone="no"?>
<svg xmlns:xlink="http://www.w3.org/1999/xlink" height="113.9px" width="61.6px" xmlns="http://www.w3.org/2000/svg">
  <g transform="matrix(1.0, 0.0, 0.0, 1.0, -321.5, -347.7)">
    <path d="M356.35 348.85 L357.7 356.45 359.3 357.15 359.9 360.6 367.9 359.15 368.1 359.1 376.3 357.7 376.8 360.45 373.85 363.05 374.4 366.3 373.15 366.5 373.4 367.85 374.65 367.7 375.15 370.4 373.85 370.65 374.1 372.0 375.35 371.8 375.85 374.5 374.6 374.75 374.8 376.1 376.1 375.95 376.55 378.65 375.3 378.9 375.55 380.2 376.85 380.05 377.3 382.75 376.05 382.95 376.4 384.95 378.1 384.7 379.1 384.5 379.65 383.35 380.85 384.5 Q382.2 385.95 382.6 387.25 382.55 389.05 381.4 389.8 L380.15 390.15 379.15 390.35 376.15 390.9 372.5 394.8 378.05 426.15 379.4 425.85 381.05 435.4 379.7 441.7 381.5 451.75 377.35 452.45 376.7 455.25 Q376.35 457.05 373.9 457.95 372.75 458.4 371.6 458.5 L356.75 461.1 Q355.7 461.25 355.1 460.2 L354.65 459.0 353.6 452.85 350.45 450.0 352.4 446.7 352.45 446.55 352.15 444.85 337.7 447.4 335.45 434.65 336.85 432.65 336.05 428.25 337.5 428.0 337.65 427.95 337.5 427.95 Q335.55 426.3 333.15 423.7 328.35 418.45 326.65 413.45 324.65 407.45 327.45 401.85 330.25 396.1 336.65 393.85 L336.0 388.75 Q335.6 383.35 336.35 381.5 336.6 380.7 337.3 380.4 L337.75 380.0 337.85 379.8 337.8 379.75 337.6 378.9 Q336.85 376.55 332.65 375.3 L328.65 374.45 323.4 374.65 Q322.75 374.4 322.35 373.65 321.55 372.25 322.6 370.25 L323.4 368.25 323.7 366.75 Q324.25 365.7 327.85 365.2 331.95 364.7 334.2 365.65 335.7 366.2 339.2 368.95 341.8 370.95 343.1 370.6 L343.9 369.9 345.85 365.5 344.55 358.2 346.75 357.85 345.35 349.9 350.55 348.95 352.3 358.85 353.85 357.15 352.25 348.2 356.35 348.85 M342.95 378.75 Q343.65 379.3 344.15 380.7 L344.65 383.15 Q344.7 384.45 344.15 385.7 L342.9 387.45 343.75 388.9 343.25 389.35 342.55 389.8 Q340.05 391.35 337.15 389.55 M342.95 378.75 Q342.0 378.0 340.8 378.75 339.7 379.45 338.9 380.7 L338.4 381.15 Q337.8 381.5 337.45 382.2 336.7 384.05 337.15 389.4 L337.15 389.55 M342.65 419.95 Q341.45 419.0 340.1 417.45 337.4 414.2 336.9 410.7 336.4 407.1 338.1 404.65 339.1 403.3 341.75 401.5 343.3 400.5 345.5 402.25 347.4 403.8 347.7 405.3 L349.55 415.8 Q349.25 418.1 348.2 418.95 L342.65 419.95" fill="none" stroke="#000000" stroke-linecap="round" stroke-linejoin="round" stroke-width="1.0"/>
    <path d="M368.1 359.1 L370.05 364.65 368.85 366.05 373.8 380.1 372.1 381.7 376.15 390.9 M368.85 366.05 L368.8 366.15 367.7 367.5 370.5 383.4 372.1 381.7 M373.85 363.05 L373.65 363.15 372.7 364.0 373.15 366.5 M374.8 376.1 L375.3 378.9 M374.1 372.0 L374.6 374.75 M377.35 452.45 L379.7 441.7 375.0 442.5 372.75 442.9 372.0 438.6 368.85 439.15 366.2 424.1 369.35 423.55 368.6 419.6 370.9 419.35 367.45 399.6 Q366.65 399.7 366.15 398.2 L364.05 386.35 359.95 387.05 357.65 373.9 361.0 369.0 359.65 361.25 350.3 362.9 349.15 361.35 346.75 357.85 M367.7 367.5 L363.65 372.35 366.3 387.5 370.5 383.4 M373.4 367.85 L373.85 370.65 M352.3 358.85 L352.65 360.7 349.15 361.35 M343.75 388.9 L344.1 389.45 344.3 390.05 345.05 389.9 349.45 390.2 350.45 391.05 352.75 404.4 355.95 398.45 350.0 364.8 Q347.25 362.8 345.85 365.5 L347.25 373.5 344.6 374.0 342.95 378.75 M337.15 389.55 L337.85 394.6 Q339.55 395.45 341.2 395.45 343.1 395.45 344.0 394.05 L344.1 393.95 344.15 393.85 Q344.95 392.05 344.3 390.05 M375.55 380.2 L376.05 382.95 M366.3 387.5 L367.85 396.2 369.8 397.6 372.5 394.8 M369.8 397.6 L370.05 399.15 367.45 399.6 M364.05 386.35 L361.0 369.0 M379.15 390.35 L378.1 384.7 M357.7 356.45 L353.85 357.15 M337.85 394.6 L336.65 393.85 M347.7 405.3 Q349.05 401.4 352.75 404.4 L355.55 420.15 352.7 425.3 353.45 429.75 355.05 438.95 352.15 444.85 M378.7 434.7 L375.15 435.35 373.85 428.2 377.45 427.55 378.7 434.7 M369.35 423.55 L370.1 423.45 372.75 438.45 372.0 438.6 M350.9 405.9 L350.5 406.15 350.15 406.05 349.9 405.75 350.0 405.3 Q350.1 405.15 350.35 405.1 L350.8 405.15 350.95 405.55 350.9 405.9 M344.05 423.4 L344.15 422.95 Q344.25 422.8 344.5 422.75 L344.95 422.8 345.1 423.2 345.05 423.55 344.65 423.85 344.3 423.7 344.05 423.4 M342.65 419.95 Q341.3 423.8 343.9 426.9 L352.7 425.3 M365.5 437.55 L362.5 420.7 358.9 425.85 361.7 442.0 365.5 437.55 M375.0 442.5 L372.3 427.1 370.9 419.35 M352.45 446.55 L352.5 446.75 353.6 452.85 M372.3 427.1 L378.05 426.15 M337.65 427.95 L343.9 426.9 M353.45 429.75 L336.85 432.65" fill="none" stroke="#000000" stroke-linecap="round" stroke-linejoin="round" stroke-opacity="0.49803922" stroke-width="1.0"/>
  </g>
</svg>
