<?xml version="1.0" encoding="UTF-8" standalone="no"?>
<svg xmlns:xlink="http://www.w3.org/1999/xlink" height="63.4px" width="44.3px" xmlns="http://www.w3.org/2000/svg">
  <g transform="matrix(1.0, 0.0, 0.0, 1.0, -319.65, -361.2)">
    <path d="M339.55 369.55 Q341.45 369.95 342.45 369.2 L344.9 369.0 346.15 366.05 346.2 365.55 346.3 365.2 346.1 364.05 Q345.95 363.6 346.4 363.6 L350.3 362.95 Q351.2 362.75 351.35 363.45 L351.55 364.4 Q351.7 365.15 350.9 365.7 348.8 367.1 348.6 369.55 348.4 370.3 347.7 370.35 L346.2 370.65 346.4 371.05 348.05 370.8 Q348.75 370.65 348.95 369.95 349.15 367.4 351.35 365.95 352.2 365.4 352.05 364.55 L351.8 363.45 Q351.6 362.45 350.75 362.4 L350.3 362.4 347.3 362.95 Q346.85 363.05 346.8 362.5 M351.85 362.25 L352.1 362.45 352.6 364.0 352.65 365.4 353.1 368.1 Q353.35 367.65 353.7 367.6 M352.9 361.8 L353.25 363.55 353.35 363.6 353.6 363.95 353.55 364.25 353.4 364.4 353.6 365.4 M353.4 364.4 L353.2 364.5 352.85 364.4 352.7 364.05 352.7 363.7 Q352.85 363.55 353.1 363.55 L353.25 363.55 M352.65 365.4 L352.05 366.25 Q349.1 368.2 349.45 370.45 L351.6 381.25 353.5 380.9 353.6 380.9 352.8 376.6 352.75 374.85 Q353.05 373.85 353.0 372.75 L352.9 372.55 352.1 372.15 Q351.35 371.65 351.15 370.8 351.0 369.85 351.55 369.0 352.1 368.3 353.0 368.1 L354.05 368.15 354.15 368.2 M346.2 365.55 L346.95 365.65 347.7 366.2 348.1 365.05 Q348.35 364.2 347.65 363.9 347.05 363.65 346.6 364.2 L346.3 365.2 M344.9 369.0 L344.8 369.35 Q344.65 370.15 345.25 370.45 L346.15 370.3 346.25 370.05 347.7 366.2 M346.2 370.65 L346.15 370.3 M354.5 372.3 L353.75 372.55 352.9 372.55 M353.85 369.65 L353.25 369.5 352.75 369.9 Q352.6 370.05 352.7 370.4 L353.0 370.95 353.55 371.1 354.05 370.8 354.2 370.15 353.85 369.65 M354.9 383.55 L354.5 381.5 354.4 380.95 354.1 379.75 353.65 377.3 353.2 374.45 353.0 372.75 M355.35 380.6 L355.35 380.7 Q355.25 381.3 354.5 381.5 M354.4 380.95 L354.7 380.7 354.85 380.25 354.55 379.8 354.1 379.75 M351.6 381.25 L348.45 381.85 348.55 381.95 349.2 385.95 Q349.35 386.75 350.3 386.5 L352.75 386.05 Q353.15 386.0 353.15 386.2 L353.35 387.45 354.3 387.35 Q354.85 387.25 354.8 386.75 L354.85 386.55 353.8 381.15 353.6 380.9 M353.35 387.45 L352.85 387.6 352.9 387.9 353.0 388.75 353.7 392.9 353.7 393.25 355.0 392.95 354.8 391.8 354.8 391.7 Q354.85 391.2 355.55 390.5 L354.8 386.75 M351.2 390.0 L351.35 389.25 Q351.3 388.8 350.9 388.5 L350.15 388.35 Q349.7 388.4 349.45 388.8 349.2 389.2 349.3 389.65 L349.7 390.3 350.55 390.45 350.85 390.35 351.2 390.0 M352.85 387.6 L351.35 387.85 351.55 388.5 351.75 389.25 352.1 391.2 352.5 393.4 352.95 393.35 353.6 393.25 353.7 393.25 M344.6 382.15 L344.15 381.35 343.25 381.15 Q342.8 381.25 342.5 381.55 L342.4 381.65 Q342.15 382.05 342.25 382.55 342.35 383.05 342.75 383.35 L343.65 383.5 344.4 383.0 344.65 382.5 344.6 382.15 M347.9 384.3 Q348.7 383.3 348.55 381.95 M348.2 385.4 L348.6 387.85 348.7 388.5 348.9 388.3 351.35 387.85 M346.9 383.7 L344.65 382.5 M352.1 391.2 L350.9 391.4 351.1 392.45 Q351.15 393.05 350.5 393.2 349.75 393.3 349.55 392.6 L349.4 391.8 349.15 390.95 348.7 388.65 348.7 388.5 M356.75 392.6 L356.1 392.75 355.0 392.95 M356.1 392.75 Q356.55 391.55 355.85 390.75 L355.55 390.5 M350.9 391.4 L350.85 390.8 350.85 390.35 M349.4 391.8 L349.3 390.95 Q349.15 390.15 349.3 389.65 M351.8 393.55 L352.5 393.4 M356.7 392.95 L352.05 393.8 M348.45 381.85 L346.4 371.05 M341.75 383.45 Q341.6 381.5 339.75 380.35 L330.55 376.35 Q327.5 375.05 324.9 375.1 322.9 374.85 322.7 374.15 323.4 371.9 325.3 370.8 L324.7 370.6 324.35 370.15 324.2 369.9 324.2 369.85 Q324.1 369.35 324.4 368.95 L325.2 368.5 325.3 368.5 325.25 368.45 Q323.6 367.0 324.15 365.6 327.0 364.5 331.9 366.45 L332.75 366.8 M322.65 366.55 Q322.45 367.35 323.0 367.8 L323.15 367.95 323.55 368.45 323.9 369.0 323.9 369.3 Q324.1 370.05 323.55 370.8 L322.55 371.35 321.95 371.5 Q321.65 372.15 321.65 372.8 M323.15 367.95 L323.05 367.9 Q322.45 367.45 321.65 367.6 M325.3 370.8 L325.6 370.8 326.35 370.35 326.55 369.45 326.55 369.4 324.35 370.15 M326.55 369.4 L326.45 369.1 324.2 369.9 M326.45 369.1 L326.05 368.6 325.3 368.5 M320.5 370.4 L320.95 370.85 Q321.6 371.3 322.35 371.2 323.05 371.05 323.5 370.4 323.9 369.85 323.8 369.0 L323.55 368.45 M361.1 419.6 L361.65 422.9 M362.2 420.15 L362.65 422.55 M357.6 420.1 Q358.0 420.55 359.35 420.35 360.7 420.05 361.1 419.6 M342.5 381.55 L339.75 380.35" fill="none" stroke="#000000" stroke-linecap="round" stroke-linejoin="round" stroke-opacity="0.5019608" stroke-width="1.0"/>
    <path d="M353.15 361.7 Q353.85 361.9 354.05 362.7 354.35 363.85 353.9 364.6 L353.6 365.4 Q353.5 365.85 353.55 366.3 L353.7 367.6 354.05 367.55 354.15 368.2 354.65 368.5 Q355.4 369.0 355.6 369.95 355.75 370.85 355.2 371.6 L354.5 372.3 354.55 372.45 354.7 374.85 Q354.85 377.75 355.15 379.6 355.45 380.1 355.35 380.6 L355.6 381.3 Q355.7 382.0 355.3 382.5 L354.9 383.55 355.85 388.1 Q355.85 388.35 356.2 388.6 L356.85 392.35 356.75 392.6 356.8 392.95 356.7 392.95 Q356.15 393.25 356.2 393.85 L357.05 398.3 357.8 402.4 358.3 405.0 360.65 419.1 360.9 419.6 361.0 419.6 361.1 419.6 362.2 420.15 363.25 420.7 Q363.55 420.95 363.45 421.45 L362.65 422.55 362.65 422.65 361.65 422.9 361.7 423.05 Q361.65 423.75 360.25 424.0 L358.3 423.85 357.6 420.1 Q357.85 419.95 357.75 419.45 L355.3 407.65 354.75 405.1 353.95 401.05 352.65 394.4 352.3 393.9 352.05 393.8 351.85 393.8 351.8 393.55 351.75 393.6 350.1 393.8 Q349.1 393.95 348.6 393.3 348.2 392.8 348.15 392.15 347.9 391.2 347.25 391.45 L344.2 391.6 Q342.65 391.15 341.85 389.35 341.2 387.35 341.85 385.4 342.1 384.45 341.75 383.5 L341.75 383.45 Q341.25 381.85 339.35 381.05 L331.35 377.55 Q327.65 375.9 324.8 375.95 321.9 375.8 321.65 372.85 L321.65 372.8 321.3 372.5 Q320.75 371.5 320.5 370.4 320.25 370.1 320.15 369.65 320.05 368.95 320.5 368.35 320.95 367.65 321.65 367.6 L322.65 366.55 322.8 366.25 323.35 364.95 Q327.1 363.55 331.95 366.4 L332.75 366.8 332.85 366.85 Q335.3 368.05 338.2 369.1 L339.55 369.55 Q341.65 369.9 343.3 368.1 343.95 367.4 344.15 365.9 344.4 363.75 346.3 362.65 L346.8 362.5 350.55 361.75 Q351.3 361.7 351.85 362.25 L352.9 361.8 353.15 361.7 M346.9 383.7 L346.95 383.75 Q347.55 383.85 347.9 384.3 L348.2 385.4 Q347.4 384.8 346.4 384.65 344.65 384.4 343.45 385.4 342.35 386.35 342.35 387.85 342.35 388.15 342.45 388.1 L342.7 387.9 Q343.0 386.15 344.6 385.95 347.35 385.65 348.6 387.85 348.8 390.0 346.6 391.0 344.8 391.65 343.25 390.6 341.65 389.15 342.0 386.35 342.35 384.65 344.1 383.85 L346.9 383.7" fill="none" stroke="#000000" stroke-linecap="round" stroke-linejoin="round" stroke-width="1.0"/>
  </g>
</svg>
