<?xml version="1.0" encoding="UTF-8" standalone="no"?>
<svg xmlns:xlink="http://www.w3.org/1999/xlink" height="332.6px" width="266.0px" xmlns="http://www.w3.org/2000/svg">
  <g transform="matrix(1.0, 0.0, 0.0, 1.0, -266.6, -157.1)">
    <path d="M399.55 157.1 Q465.7 163.35 526.1 173.9 538.95 395.65 526.4 489.7 515.45 447.8 499.25 472.2 496.85 475.9 494.3 481.0 477.25 435.6 457.0 475.2 437.1 437.0 421.5 473.1 418.4 453.65 399.55 453.55 380.7 453.45 377.65 473.1 362.1 437.0 342.2 475.2 321.9 435.6 304.85 481.0 302.35 475.9 299.95 472.2 283.75 447.8 272.8 489.7 260.25 395.65 273.05 173.9 333.5 163.35 399.55 157.1" fill="#000000" fill-rule="evenodd" stroke="none"/>
  </g>
</svg>
