<?xml version="1.0" encoding="UTF-8" standalone="no"?>
<svg xmlns:xlink="http://www.w3.org/1999/xlink" height="400.65px" width="517.55px" xmlns="http://www.w3.org/2000/svg">
  <g transform="matrix(1.0, 0.0, 0.0, 1.0, -141.55, -45.6)">
    <path d="M656.35 389.9 Q657.45 389.9 658.25 390.7 659.1 391.55 659.1 392.65 L659.1 392.7 Q659.1 393.5 658.7 394.1 L658.25 394.55 Q657.45 395.4 656.35 395.4 655.25 395.4 654.4 394.55 653.8 393.95 653.7 393.25 L653.65 392.65 Q653.65 391.95 653.95 391.35 L654.4 390.7 Q655.25 389.9 656.35 389.9 M655.7 402.1 Q655.45 403.3 654.45 404.3 653.25 405.6 651.4 405.6 649.6 405.6 648.3 404.3 L647.95 403.9 Q647.05 402.8 647.05 401.25 647.05 399.4 648.3 398.1 649.0 397.45 649.9 397.15 L650.0 397.15 651.4 396.9 Q653.25 396.9 654.45 398.1 655.75 399.4 655.75 401.25 L655.7 402.1 M567.85 72.65 L572.75 71.15 Q577.05 73.25 558.35 79.2 559.85 84.6 550.15 83.5 548.25 87.65 542.55 89.1 L533.05 78.25 Q534.55 74.5 539.95 70.7 545.6 59.15 553.55 63.1 554.6 62.55 555.6 61.95 570.3 57.4 568.35 60.65 L565.9 61.2 Q563.2 65.05 563.2 67.7 563.2 71.15 567.85 72.65 M615.85 47.3 L616.1 47.9 616.85 47.9 Q619.35 47.95 620.35 49.6 621.0 50.7 620.65 52.1 621.95 52.5 622.55 53.55 623.45 55.15 622.3 57.5 621.15 59.7 618.45 61.3 L617.3 61.85 617.4 62.2 612.8 74.0 612.35 72.45 Q609.35 63.95 602.35 71.05 L602.35 58.25 604.1 57.2 Q604.9 56.75 605.6 56.4 L606.5 56.45 606.7 56.45 607.3 56.45 607.2 56.35 607.1 55.8 605.6 56.4 Q603.75 56.0 603.05 54.7 602.45 53.75 602.65 52.65 602.8 51.8 603.25 50.9 604.5 48.55 607.15 47.05 609.8 45.5 612.35 45.6 614.9 45.7 615.85 47.3 M614.35 53.05 L613.85 53.3 Q612.3 54.15 611.25 55.3 L611.75 55.05 Q613.35 54.15 614.35 53.05 M552.9 123.55 Q554.2 124.85 554.2 126.75 554.2 128.6 552.9 129.9 551.75 131.05 550.2 131.2 L549.7 131.2 Q547.8 131.2 546.5 129.9 545.35 128.75 545.2 127.15 L545.2 126.75 Q545.2 124.85 546.5 123.55 547.8 122.25 549.7 122.25 551.05 122.25 552.15 122.95 L552.9 123.55 M536.15 138.1 Q536.9 137.65 537.8 137.55 L538.95 137.4 Q540.6 137.4 541.75 138.1 L542.75 139.15 542.95 140.0 Q542.95 140.9 542.15 141.55 L541.75 141.8 Q540.6 142.6 538.95 142.6 L537.15 142.35 536.15 141.8 Q535.0 141.1 535.0 140.0 535.0 138.9 536.15 138.1 M620.3 105.35 L618.45 105.55 Q616.85 105.55 615.55 104.95 L614.95 104.65 Q613.5 103.75 613.5 102.45 613.5 102.05 613.65 101.7 613.9 100.85 614.95 100.2 616.45 99.3 618.45 99.3 620.5 99.3 621.9 100.2 623.4 101.15 623.4 102.45 623.4 103.75 621.9 104.65 L620.3 105.35 M613.2 114.3 Q613.2 113.1 614.45 112.2 L615.4 111.7 617.5 111.35 Q619.25 111.35 620.5 112.2 L620.85 112.5 Q621.8 113.3 621.8 114.3 621.8 115.55 620.5 116.4 L619.1 117.1 617.5 117.3 Q615.75 117.3 614.45 116.4 L613.6 115.6 Q613.2 115.05 613.2 114.3 M608.15 113.3 Q609.25 114.4 609.25 115.95 609.25 117.5 608.15 118.55 607.15 119.6 605.7 119.65 L605.6 120.15 Q606.3 120.5 606.9 121.35 608.0 122.85 608.0 124.85 608.0 126.85 606.9 128.3 L606.2 129.15 Q605.4 129.8 604.35 129.8 L604.3 129.8 Q602.85 129.75 601.9 128.45 L602.1 129.8 Q602.1 130.85 601.65 131.7 L600.9 132.6 599.3 133.65 598.1 133.75 Q596.5 133.75 595.3 132.6 594.15 131.4 594.15 129.8 594.15 128.55 594.85 127.6 L592.4 123.8 591.7 124.15 Q589.95 124.9 587.4 124.9 584.85 124.9 583.05 124.15 581.5 123.4 581.3 122.45 L581.3 122.25 Q581.3 121.45 582.15 120.9 581.2 120.05 581.2 119.05 581.2 117.85 582.65 116.85 581.6 116.25 581.2 115.55 L580.95 114.5 Q580.95 113.1 582.8 112.05 584.6 111.05 587.2 111.05 L587.6 111.05 Q588.1 105.95 594.5 103.2 L595.8 99.95 597.1 99.95 Q601.8 97.3 604.95 99.95 L606.25 99.95 604.3 105.15 605.05 107.0 601.7 108.55 602.0 110.05 Q603.1 110.05 603.9 111.2 604.25 111.7 604.4 112.35 L605.55 112.25 Q606.55 112.25 607.4 112.75 L607.5 112.75 608.15 113.3 M601.25 127.3 L601.75 128.3 601.9 128.45 601.25 127.3 M612.3 167.6 L610.8 166.95 Q609.25 166.15 609.25 164.9 609.25 164.1 609.9 163.45 610.2 163.05 610.8 162.75 612.4 161.9 614.7 161.9 616.45 161.9 617.8 162.4 L618.55 162.75 Q620.15 163.65 620.15 164.9 620.15 166.15 618.55 166.95 L618.15 167.25 Q616.7 167.9 614.7 167.9 L612.3 167.6 M618.45 185.0 Q618.45 186.1 617.3 186.8 L615.75 187.45 614.5 187.6 Q612.85 187.6 611.7 186.8 L611.5 186.65 Q610.55 185.95 610.55 185.0 610.55 183.85 611.7 183.15 L611.7 183.1 Q612.85 182.4 614.5 182.4 616.1 182.4 617.3 183.1 L617.95 183.6 Q618.45 184.2 618.45 185.0 M411.3 246.9 Q411.3 242.65 408.25 239.6 L407.15 238.6 Q404.5 236.5 400.9 236.5 397.35 236.5 394.65 238.65 L393.55 239.6 Q390.5 242.65 390.5 246.9 390.5 251.2 393.55 254.25 L394.6 255.2 Q397.35 257.3 400.9 257.3 404.5 257.3 407.2 255.2 L408.25 254.25 Q411.3 251.2 411.3 246.9 M447.65 138.05 Q455.75 129.4 466.05 132.8 474.25 121.75 484.55 119.2 L486.2 118.85 484.75 120.0 492.7 129.8 Q487.75 140.15 475.6 144.6 477.3 160.95 467.4 162.35 L463.1 165.0 Q459.75 158.05 455.0 156.9 450.7 155.85 445.35 159.45 L447.65 151.2 Q443.95 144.6 447.65 138.05 M370.3 192.4 Q374.45 192.6 379.6 194.2 L390.4 214.55 391.25 217.0 Q393.75 224.1 396.3 227.25 398.25 219.3 400.9 219.3 403.4 219.3 405.2 226.1 407.3 222.95 409.45 217.1 L410.25 214.55 421.05 194.2 Q426.2 192.6 430.4 192.4 L435.9 192.85 Q441.45 194.15 444.85 199.0 L445.25 199.6 Q447.2 202.8 448.35 207.35 L438.15 225.1 438.1 224.95 437.35 223.7 Q432.25 227.35 428.8 231.0 415.25 250.35 438.75 268.85 L439.25 270.9 439.9 269.6 449.9 290.35 Q448.25 295.3 445.95 298.8 L445.9 298.9 443.35 302.05 Q438.95 306.45 432.8 306.6 L432.65 306.6 431.35 306.55 Q427.55 306.25 423.2 304.5 L415.1 286.0 416.5 286.0 415.0 285.8 412.1 278.7 Q408.7 271.55 405.05 269.15 403.3 275.45 400.9 275.45 398.55 275.45 396.8 269.5 393.2 271.95 389.4 278.6 387.5 281.7 385.7 285.8 L377.45 304.5 Q373.1 306.25 369.4 306.55 L368.0 306.6 367.9 306.6 Q361.7 306.45 357.35 302.05 L354.85 298.9 354.7 298.8 Q352.4 295.3 350.8 290.35 L360.75 269.6 Q384.45 250.9 371.15 232.15 368.15 227.95 363.3 223.7 L362.65 224.95 362.65 225.0 362.5 225.1 362.5 225.0 352.3 207.35 Q353.45 202.8 355.5 199.6 L355.8 199.0 Q359.2 194.15 364.75 192.85 L370.3 192.4 M334.6 132.8 Q344.9 129.4 353.0 138.05 356.7 144.6 353.0 151.2 L355.3 159.45 Q349.95 155.85 345.75 156.9 340.9 158.05 337.55 165.0 L333.25 162.35 Q323.35 160.95 325.05 144.6 312.9 140.15 307.95 129.8 L315.9 120.0 314.55 118.85 316.15 119.2 Q326.4 121.75 334.6 132.8 M338.85 321.0 L338.4 322.05 342.75 320.05 Q343.05 323.3 344.45 325.5 347.35 330.2 355.35 329.75 L358.2 330.6 Q361.0 340.35 352.3 347.6 345.1 352.35 337.8 347.6 L337.2 348.3 339.5 350.9 Q333.4 360.35 322.7 364.05 L310.55 350.9 Q316.1 340.5 326.7 336.45 L329.95 340.05 331.6 338.65 Q326.3 330.1 338.0 321.65 L338.85 321.0 M462.65 321.65 Q474.35 330.1 469.1 338.65 L470.8 340.05 473.95 336.45 Q484.55 340.5 490.1 350.9 L477.95 364.05 Q467.25 360.35 461.15 350.9 L463.5 348.3 462.85 347.6 Q455.65 352.35 448.35 347.6 439.65 340.35 442.45 330.6 L445.3 329.75 Q453.3 330.2 456.3 325.5 457.6 323.3 457.9 320.05 L462.35 322.05 461.8 321.0 462.65 321.65 M605.4 333.45 Q606.7 334.1 606.7 335.0 606.7 335.9 605.45 336.5 L605.4 336.5 Q604.15 337.15 602.4 337.15 L601.15 337.1 Q600.2 336.9 599.35 336.5 598.1 335.9 598.1 335.0 598.1 334.15 599.15 333.55 L599.35 333.45 Q600.65 332.85 602.4 332.85 L604.3 333.05 605.4 333.45 M601.35 343.9 Q602.85 343.05 604.9 343.05 L606.5 343.25 Q607.85 343.45 608.95 344.25 610.65 345.45 610.65 347.15 610.65 348.85 608.95 350.0 L608.7 350.2 Q607.1 351.25 604.9 351.25 L603.05 351.05 Q601.8 350.75 600.8 350.0 599.1 348.85 599.1 347.15 599.1 345.45 600.8 344.25 601.05 344.05 601.35 343.9 M606.2 390.5 Q605.55 390.2 605.05 389.35 604.35 388.05 604.35 386.2 604.35 384.4 605.05 383.1 605.8 381.8 606.85 381.8 L607.55 382.0 Q608.15 382.25 608.6 383.1 L608.7 383.35 608.85 383.15 Q610.0 382.05 611.55 382.05 612.85 382.05 613.85 382.85 614.7 382.05 615.8 382.05 L616.85 382.25 Q617.6 382.5 618.2 383.3 619.2 384.6 619.2 386.35 619.2 387.4 618.85 388.25 L620.4 389.65 622.1 389.35 Q623.75 389.35 624.85 390.4 626.0 391.4 626.0 392.9 626.0 394.2 625.1 395.25 L625.15 395.25 Q626.0 396.15 626.0 397.35 626.0 398.55 625.1 399.5 626.0 400.4 626.05 401.6 L626.05 401.8 Q626.05 403.45 624.55 404.6 623.2 405.7 621.3 405.8 L621.0 405.8 Q619.0 407.85 616.85 408.7 L614.25 409.35 Q610.25 409.6 606.0 406.05 L605.7 405.8 605.6 405.8 Q604.35 405.8 603.85 405.2 L603.7 405.05 603.7 405.0 Q603.1 404.05 604.25 402.55 L602.6 402.9 Q600.65 403.1 600.15 402.15 599.75 401.55 600.05 400.8 598.65 400.8 598.2 400.0 597.6 399.0 598.75 397.45 599.95 395.9 602.15 394.6 603.3 393.9 604.5 393.55 L606.2 390.5 M258.1 89.1 Q252.4 87.65 250.5 83.5 240.8 84.6 242.3 79.2 223.6 73.25 227.95 71.15 L232.8 72.65 Q237.45 71.15 237.5 67.7 237.45 65.05 234.75 61.2 L232.3 60.65 Q230.35 57.4 245.1 61.95 L247.2 63.1 Q255.05 59.15 260.7 70.7 266.1 74.5 267.6 78.25 L258.1 89.1 M184.55 47.9 L184.8 47.3 Q185.75 45.7 188.35 45.6 190.85 45.5 193.5 47.05 196.15 48.55 197.4 50.9 L198.05 52.65 Q198.2 53.75 197.65 54.7 196.9 56.0 195.05 56.4 L196.55 57.2 198.3 58.25 198.3 71.05 Q191.3 63.95 188.35 72.45 L187.85 74.0 183.25 62.2 183.35 61.85 182.2 61.3 Q179.5 59.7 178.4 57.5 177.2 55.15 178.1 53.55 178.7 52.5 180.05 52.1 179.65 50.7 180.3 49.6 181.3 47.95 183.9 47.9 L184.55 47.9 M193.55 55.8 L193.45 56.35 193.45 56.45 193.95 56.45 194.15 56.45 195.05 56.4 193.55 55.8 M188.9 55.05 L189.4 55.3 Q188.35 54.15 186.8 53.3 L186.35 53.05 Q187.3 54.15 188.9 55.05 M213.45 111.05 Q216.05 111.05 217.85 112.05 219.7 113.1 219.7 114.5 L219.45 115.55 218.0 116.85 Q219.45 117.85 219.45 119.05 219.45 120.05 218.5 120.9 219.35 121.45 219.35 122.25 L219.35 122.45 Q219.15 123.4 217.6 124.15 215.8 124.9 213.25 124.9 210.7 124.9 208.95 124.15 L208.25 123.8 205.85 127.6 Q206.5 128.55 206.5 129.8 206.5 131.4 205.35 132.6 204.15 133.75 202.55 133.75 L201.35 133.65 Q200.45 133.3 199.75 132.6 L199.0 131.7 Q198.55 130.85 198.55 129.8 198.55 129.1 198.85 128.45 197.8 129.75 196.35 129.8 L196.3 129.8 Q195.25 129.8 194.45 129.15 L193.75 128.3 Q192.65 126.85 192.65 124.85 192.65 122.85 193.75 121.35 L194.55 120.55 194.3 119.6 Q193.25 119.35 192.5 118.55 191.4 117.5 191.4 115.95 191.4 114.4 192.5 113.3 L193.25 112.75 Q194.1 112.25 195.1 112.25 L196.25 112.35 196.75 111.2 Q197.55 110.05 198.65 110.05 L198.7 110.05 Q198.7 109.2 198.95 108.55 L195.65 107.0 196.35 105.15 194.4 99.95 195.7 99.95 Q198.85 97.3 203.55 99.95 L204.85 99.95 206.15 103.2 Q212.55 105.95 213.05 111.05 L213.45 111.05 M187.0 101.7 L187.15 102.45 Q187.15 103.75 185.7 104.65 L185.1 104.95 Q183.8 105.55 182.2 105.55 L180.35 105.35 Q179.45 105.1 178.75 104.65 177.25 103.75 177.25 102.45 177.25 101.15 178.75 100.2 180.15 99.3 182.2 99.3 184.2 99.3 185.7 100.2 186.75 100.85 187.0 101.7 M186.2 112.2 Q187.45 113.1 187.45 114.3 187.45 115.05 187.05 115.6 L186.2 116.4 Q184.9 117.3 183.15 117.3 L181.55 117.1 Q180.8 116.85 180.15 116.4 178.85 115.55 178.85 114.3 178.85 113.3 179.85 112.5 L180.15 112.2 Q181.4 111.35 183.15 111.35 L185.25 111.7 186.2 112.2 M182.9 162.4 Q184.2 161.9 185.95 161.9 188.25 161.9 189.85 162.75 190.45 163.05 190.75 163.45 191.4 164.1 191.4 164.9 191.4 166.15 189.85 166.95 L188.35 167.6 185.95 167.9 Q183.95 167.9 182.6 167.25 L182.1 166.95 Q180.5 166.15 180.5 164.9 180.5 163.65 182.1 162.75 L182.9 162.4 M198.9 128.35 L198.95 128.25 198.9 128.3 198.9 128.35 M189.0 183.15 Q190.1 183.85 190.1 185.0 190.1 185.95 189.2 186.65 L188.95 186.8 Q187.8 187.6 186.15 187.6 L184.9 187.45 Q184.05 187.25 183.35 186.8 182.2 186.1 182.2 185.0 182.2 184.2 182.75 183.6 L183.35 183.1 Q184.55 182.4 186.15 182.4 187.8 182.4 188.95 183.1 L189.0 183.15 M248.5 122.95 Q249.6 122.25 250.95 122.25 252.85 122.25 254.15 123.55 255.45 124.85 255.45 126.75 L255.45 127.15 Q255.3 128.75 254.15 129.9 252.85 131.2 250.95 131.2 L250.5 131.2 Q248.9 131.05 247.75 129.9 246.45 128.6 246.45 126.75 246.45 124.85 247.75 123.55 L248.5 122.95 M258.0 139.15 Q258.25 138.55 258.9 138.1 260.05 137.4 261.7 137.4 L262.85 137.55 Q263.75 137.65 264.5 138.1 265.65 138.9 265.65 140.0 265.65 141.1 264.5 141.8 L263.5 142.35 261.7 142.6 Q260.05 142.6 258.9 141.8 L258.5 141.55 Q257.7 140.9 257.7 140.0 257.7 139.55 258.0 139.15 M141.55 392.65 Q141.55 391.55 142.4 390.7 143.2 389.9 144.3 389.9 145.4 389.9 146.25 390.7 L146.7 391.35 147.0 392.65 146.95 393.25 Q146.85 393.95 146.25 394.55 145.4 395.4 144.3 395.4 143.2 395.4 142.4 394.55 L142.0 394.1 Q141.55 393.5 141.55 392.7 L141.55 392.65 M196.35 333.05 L198.25 332.85 Q200.0 332.85 201.3 333.45 L201.55 333.55 Q202.55 334.15 202.55 335.0 202.55 335.9 201.3 336.5 L199.5 337.1 198.25 337.15 Q196.5 337.15 195.25 336.5 L195.2 336.5 Q193.95 335.9 193.95 335.0 193.95 334.1 195.25 333.45 L196.35 333.05 M195.75 343.05 Q197.8 343.05 199.35 343.9 L199.85 344.25 Q201.55 345.45 201.55 347.15 201.55 348.85 199.85 350.0 198.85 350.75 197.6 351.05 L195.75 351.25 Q193.55 351.25 192.0 350.2 L191.7 350.0 Q190.0 348.85 190.0 347.15 190.0 345.45 191.7 344.25 192.8 343.45 194.15 343.25 L195.75 343.05 M178.55 389.35 L180.25 389.65 181.8 388.25 Q181.45 387.4 181.45 386.35 181.45 384.6 182.45 383.3 183.05 382.5 183.8 382.25 L184.85 382.05 Q185.95 382.05 186.8 382.85 187.8 382.05 189.1 382.05 190.65 382.05 191.8 383.15 L191.95 383.35 192.05 383.1 Q192.5 382.25 193.1 382.0 L193.8 381.8 Q194.85 381.8 195.6 383.1 196.3 384.4 196.3 386.2 196.3 388.05 195.6 389.35 L194.45 390.5 196.15 393.55 Q197.35 393.9 198.55 394.6 200.7 395.9 201.95 397.45 203.05 399.0 202.55 400.0 202.0 400.8 200.65 400.8 200.9 401.55 200.6 402.15 200.0 403.1 198.1 402.9 L196.4 402.55 Q197.55 404.05 197.0 405.0 L196.8 405.2 Q196.3 405.8 195.05 405.8 L195.0 405.8 194.75 406.05 194.65 406.05 Q190.4 409.6 186.4 409.35 L183.8 408.7 Q181.65 407.85 179.65 405.8 L179.35 405.8 Q177.45 405.7 176.1 404.6 174.6 403.45 174.6 401.8 L174.6 401.6 Q174.65 400.4 175.6 399.5 174.65 398.55 174.65 397.35 174.65 396.15 175.55 395.25 174.65 394.2 174.65 392.9 174.65 391.4 175.8 390.4 176.9 389.35 178.55 389.35 M260.65 411.05 Q260.7 424.35 246.55 420.2 L227.35 423.9 227.5 423.85 Q233.6 419.8 232.1 415.8 231.8 414.8 231.0 413.85 L234.2 411.95 233.35 412.0 Q232.1 412.0 231.25 411.1 230.35 410.25 230.35 409.05 L230.5 408.2 Q230.7 407.45 231.25 406.9 232.1 406.05 233.35 406.05 234.6 406.05 235.5 406.9 L240.6 405.15 Q242.25 397.25 252.8 399.55 254.65 394.8 260.0 394.6 L268.55 405.15 Q267.8 410.0 260.65 411.05 M224.1 417.75 L223.9 418.05 223.25 418.85 Q222.7 419.25 222.1 419.25 220.95 419.25 220.15 417.75 219.3 416.3 219.3 414.3 219.3 412.3 220.15 410.8 220.45 410.15 220.95 409.8 221.45 409.35 222.1 409.35 223.25 409.35 224.1 410.8 L224.45 411.5 Q224.9 412.75 224.9 414.3 224.9 416.3 224.1 417.75 M170.9 430.8 L172.0 426.45 172.5 427.6 Q175.3 433.3 182.3 430.5 L183.8 429.75 184.45 429.45 186.5 427.1 Q187.9 428.9 188.6 430.8 190.0 434.4 188.75 437.95 L185.1 440.55 183.8 442.4 Q179.6 447.6 173.65 445.8 165.3 443.1 166.8 435.35 167.05 430.1 170.9 430.8 M567.3 406.05 Q568.55 406.05 569.4 406.9 569.95 407.45 570.15 408.2 L570.3 409.05 Q570.3 410.25 569.4 411.1 568.55 412.0 567.3 412.0 L566.55 411.95 569.7 413.85 Q568.85 414.8 568.55 415.8 567.05 419.8 573.15 423.85 L554.1 420.2 Q539.95 424.35 540.0 411.05 532.85 410.0 532.1 405.15 L540.65 394.6 Q546.0 394.8 547.85 399.55 558.4 397.25 560.05 405.15 L565.15 406.9 Q566.05 406.05 567.3 406.05 M611.9 437.95 Q610.65 434.4 612.05 430.8 612.75 428.9 614.15 427.1 L616.2 429.45 616.85 429.75 618.35 430.5 Q625.35 433.3 628.2 427.6 L628.65 426.45 629.85 430.8 Q633.6 430.1 633.85 435.35 635.45 443.1 627.0 445.8 621.05 447.6 616.85 442.4 L615.55 440.55 611.9 437.95 M152.75 403.9 L152.35 404.3 Q151.05 405.6 149.25 405.6 147.4 405.6 146.2 404.3 145.2 403.3 144.95 402.1 L144.9 401.25 Q144.9 399.4 146.2 398.1 147.4 396.9 149.25 396.9 L150.75 397.15 150.8 397.15 Q151.65 397.45 152.35 398.1 153.6 399.4 153.6 401.25 153.6 402.8 152.75 403.9 M576.55 410.8 Q577.4 409.35 578.55 409.35 579.2 409.35 579.7 409.8 580.2 410.15 580.5 410.8 581.35 412.3 581.35 414.3 581.35 416.3 580.5 417.75 579.7 419.25 578.6 419.25 L578.55 419.25 Q577.95 419.25 577.45 418.85 L576.75 418.05 576.55 417.75 Q575.75 416.3 575.75 414.3 575.75 412.75 576.2 411.5 L576.55 410.8" fill="#000000" fill-rule="evenodd" stroke="none"/>
  </g>
</svg>
