<?xml version="1.0" encoding="UTF-8" standalone="no"?>
<svg xmlns:xlink="http://www.w3.org/1999/xlink" height="340.15px" width="173.1px" xmlns="http://www.w3.org/2000/svg">
  <g transform="matrix(1.0, 0.0, 0.0, 1.0, -313.35, -133.6)">
    <path d="M430.05 135.4 L424.15 134.1 375.65 134.1 369.75 135.4 M313.85 473.25 Q398.55 451.85 485.95 473.25" fill="none" stroke="#000000" stroke-linecap="round" stroke-linejoin="round" stroke-width="1.0"/>
    <path d="M369.75 135.4 Q349.45 170.15 359.65 248.55 L359.75 249.35 360.5 255.35 Q362.8 276.3 362.45 297.0 362.2 311.55 360.65 325.95 354.3 383.4 326.45 438.55 318.4 454.55 313.85 473.25 M485.95 473.25 Q481.45 454.55 473.35 438.55 445.5 383.4 439.15 325.95 437.6 311.55 437.35 297.0 437.0 276.3 439.3 255.35 L440.05 249.35 440.15 248.55 Q450.35 170.15 430.05 135.4 Z" fill="none" stroke="#000000" stroke-linecap="round" stroke-linejoin="round" stroke-opacity="0.5019608" stroke-width="1.0"/>
  </g>
</svg>
