<?xml version="1.0" encoding="UTF-8" standalone="no"?>
<svg xmlns:xlink="http://www.w3.org/1999/xlink" height="173.25px" width="99.65px" xmlns="http://www.w3.org/2000/svg">
  <g transform="matrix(1.0, 0.0, 0.0, 1.0, -277.8, -102.2)">
    <path d="M350.75 115.4 Q354.3 121.35 357.0 128.6 M345.15 118.3 L344.25 117.8 344.6 120.0 345.75 127.95 345.5 128.4 M350.15 130.5 Q348.95 122.75 349.0 115.85 M325.65 120.1 L325.85 119.85 327.3 117.5 327.9 116.4 M331.65 118.6 L332.4 123.3 333.5 131.25 332.3 132.95 M335.55 134.4 L335.25 132.15 Q334.6 127.85 334.5 123.8 L334.35 119.8 M331.35 118.4 L328.4 122.8 M344.25 117.8 L343.8 114.75 340.65 119.5 M343.8 114.75 L343.55 113.15 M340.95 111.35 L339.5 114.2 M343.05 122.45 L344.6 120.0 M330.8 125.75 L332.4 123.3 M336.1 119.3 Q339.65 125.25 342.4 132.5 M366.3 150.5 L294.15 169.85 M323.0 122.8 L323.85 122.55 Q327.4 128.5 330.15 135.8 M317.8 120.9 L317.85 120.95 Q319.3 121.85 321.0 122.55 L321.2 122.7 Q321.7 122.8 322.2 123.05 L323.0 122.8 M294.95 126.9 Q296.5 127.8 298.35 128.55 L299.55 129.1 300.05 129.0 M299.55 129.1 L299.6 133.1 Q299.8 137.15 300.4 141.45 L300.7 143.7 M307.55 141.9 Q304.85 134.55 301.3 128.6 M291.6 131.25 L292.6 133.9 295.1 135.3 M298.25 144.4 L297.45 142.3 295.55 141.45 292.6 133.9 M299.25 143.0 L298.25 144.4 M299.25 143.0 L297.45 142.3 M295.7 131.55 L290.7 129.0 M290.2 131.6 Q290.15 138.5 291.4 146.2 M321.2 138.2 L320.55 136.5 318.15 135.4 315.2 127.9 314.15 125.2 M315.2 127.9 L317.75 129.3 M322.2 123.05 L322.25 127.05 322.3 127.55 Q322.5 131.3 323.0 135.4 L323.1 135.75 323.3 137.7 M310.25 138.2 L309.2 137.8 306.3 130.25 304.35 125.3 304.1 124.6 M313.25 125.45 L313.3 129.45 Q313.5 133.5 314.1 137.8 L314.4 140.0 M322.1 137.1 L320.55 136.5 M306.3 130.25 L308.8 131.6 M309.5 127.85 L304.35 125.3 M318.45 125.45 L313.25 122.9 M283.3 136.4 L285.8 137.8 M286.4 134.0 L281.3 131.5 M299.45 147.6 L292.0 149.55" fill="none" stroke="#000000" stroke-linecap="round" stroke-linejoin="round" stroke-opacity="0.5019608" stroke-width="1.0"/>
    <path d="M355.25 115.6 L358.4 110.85 357.2 102.7 Q355.2 109.7 350.75 115.4 M357.0 128.6 L360.4 124.05 359.2 116.1 357.65 118.55 M359.2 116.1 L358.4 110.85 M323.85 122.55 L325.65 120.1 322.5 112.05 Q325.0 114.45 327.9 116.4 L328.7 114.65 330.4 109.9 331.6 118.0 331.65 118.6 333.2 119.25 334.35 119.8 336.1 119.3 Q338.0 116.85 339.5 114.2 L337.05 108.1 340.95 111.35 342.65 106.65 343.55 113.15 Q346.1 114.7 349.0 115.85 L350.75 115.4 M345.5 128.4 L350.15 130.5 M331.6 118.0 L331.35 118.4 331.65 118.6 M332.3 132.95 L335.55 134.4 M345.5 128.4 L342.4 132.5 343.6 135.75 350.75 133.85 350.15 130.5 M332.3 132.95 L330.15 135.8 331.35 139.05 336.15 137.75 335.55 134.4 M343.6 135.75 L336.15 137.75 M366.3 150.5 L361.05 131.1 358.2 131.85 350.75 133.85 M358.2 131.85 L357.0 128.6 M294.15 169.85 L342.6 274.95 376.95 265.7 366.3 150.5 M294.15 169.85 L288.95 150.4 292.0 149.55 291.4 146.2 286.2 143.9 283.3 136.4 281.3 131.5 278.3 123.9 Q283.6 128.9 290.2 131.6 L291.6 131.25 290.7 129.0 287.6 121.35 Q291.0 124.55 294.95 126.9 297.15 122.85 298.5 118.5 L300.05 129.0 301.3 128.6 304.1 124.6 301.3 117.7 305.75 121.4 Q307.0 118.8 307.8 115.95 L308.9 123.35 312.05 124.9 313.25 125.45 314.15 125.2 313.25 122.9 310.25 115.3 Q312.35 117.35 314.7 119.0 L317.55 120.8 317.8 120.9 318.35 119.9 319.8 117.05 321.45 112.3 323.0 122.8 M305.75 121.4 L308.6 123.2 308.9 123.35 M300.7 143.7 L301.3 147.1 308.75 145.1 307.55 141.9 M298.25 144.4 L299.45 147.6 301.3 147.1 M300.7 143.7 L299.25 143.0 M323.3 137.7 L323.9 141.05 331.35 139.05 M314.4 140.0 L315.0 143.45 322.4 141.45 321.2 138.2 322.1 137.1 M314.4 140.0 L310.25 138.2 307.55 141.9 M322.4 141.45 L323.9 141.05 M323.3 137.7 L322.1 137.1 M308.75 145.1 L315.0 143.45" fill="none" stroke="#000000" stroke-linecap="round" stroke-linejoin="round" stroke-width="1.0"/>
  </g>
</svg>
