<?xml version="1.0" encoding="UTF-8" standalone="no"?>
<svg xmlns:xlink="http://www.w3.org/1999/xlink" height="90.3px" width="37.85px" xmlns="http://www.w3.org/2000/svg">
  <g transform="matrix(1.0, 0.0, 0.0, 1.0, -307.15, -302.3)">
    <path d="M324.85 312.4 L326.15 313.85 Q327.0 315.05 327.3 316.4 327.65 318.1 328.5 319.55 328.6 320.3 329.95 320.1 L331.9 319.55 Q331.8 319.9 332.45 320.35 L333.6 321.6 Q334.6 322.55 335.4 322.55 336.1 322.45 336.5 321.95 337.05 321.05 337.85 320.75 337.65 322.45 338.05 324.0 338.35 325.25 339.25 325.7 L339.65 325.7 340.65 326.0 Q342.3 326.65 340.9 328.5 340.9 330.05 340.45 331.3 340.0 332.4 340.1 333.7 340.35 337.35 338.75 340.45 L338.3 341.45 Q337.7 342.85 336.9 343.65 335.85 344.65 335.1 345.7 333.2 348.05 331.2 349.5 L330.3 350.4 Q329.15 350.75 329.25 352.2 L329.7 353.4 331.5 355.65 Q332.2 355.9 332.35 357.05 332.5 358.5 332.0 359.45 L331.5 360.5 Q330.7 362.05 330.65 364.1 L334.6 364.45 339.4 364.25 341.05 363.8 341.9 363.85 Q341.85 365.25 341.35 366.55 L341.2 367.75 341.1 374.3 341.2 378.55 Q341.35 380.9 344.0 380.25 344.25 379.85 344.95 380.1 345.15 382.0 344.45 383.5 344.3 383.95 344.3 384.4 344.3 386.2 343.85 387.75 L343.45 388.6 342.8 389.65 341.35 391.1 340.55 391.8 Q339.25 392.8 337.65 392.55 334.65 392.1 332.1 389.85 L331.15 389.05 330.0 387.9 Q329.1 386.7 327.5 388.45 L324.25 388.55 Q323.05 387.5 322.3 385.25 L322.1 377.05 Q321.5 374.95 319.9 374.0 L318.85 373.3 Q317.05 372.05 314.55 372.25 L314.2 371.2 313.95 370.0 Q313.45 368.7 313.1 367.15 312.7 365.3 312.55 362.9 L311.2 361.15 Q309.65 360.1 309.9 357.4 309.95 357.05 310.45 356.4 L311.25 355.25 Q312.15 354.35 312.8 353.05 L312.7 351.6 312.55 350.35 312.15 346.95 311.75 346.1 310.35 344.55 Q308.45 343.1 308.55 339.6 L307.95 337.35 307.15 334.15 Q308.8 336.7 310.9 338.0 310.85 335.85 310.45 333.7 L310.25 332.9 Q309.9 331.5 309.9 328.65 309.2 327.3 309.1 325.75 L308.95 322.1 Q308.8 320.9 309.3 319.4 L310.05 316.85 Q310.6 315.45 310.4 313.8 L310.25 312.65 Q309.7 309.8 309.75 306.75 L309.9 303.95 309.9 302.3 309.95 302.3 311.65 304.5 Q312.0 305.7 313.0 306.65 L314.75 306.7 315.9 306.6 317.05 307.8 317.65 308.55 319.2 311.6 Q319.9 313.05 321.25 311.85 L321.5 309.0 Q321.65 307.6 322.3 306.85 322.3 307.3 322.95 308.05 L323.95 309.95 Q324.05 311.45 324.85 312.4" fill="#000000" fill-rule="evenodd" stroke="none"/>
  </g>
</svg>
