<?xml version="1.0" encoding="UTF-8" standalone="no"?>
<svg xmlns:xlink="http://www.w3.org/1999/xlink" height="129.45px" width="64.65px" xmlns="http://www.w3.org/2000/svg">
  <g transform="matrix(1.0, 0.0, 0.0, 1.0, -288.75, -264.6)">
    <path d="M320.3 281.2 L320.3 283.75 314.3 292.05 314.3 294.35 311.55 297.6 311.55 307.65 310.3 307.65 310.3 314.95 312.4 319.6 312.4 321.8 321.05 328.7 M348.95 325.9 L348.05 329.7 348.05 336.6 350.3 340.9 352.9 336.45 M343.05 336.45 L345.95 338.45 348.05 336.6 M350.3 340.9 L350.3 345.2 348.05 347.65 348.05 351.05 346.3 354.05 M338.55 370.25 L338.4 365.4 339.25 361.2 M304.25 287.95 L307.9 290.7 307.9 293.15 311.55 297.6 M294.45 331.35 L294.45 326.25 295.65 322.6 295.65 318.05 293.45 315.45 293.45 312.85 291.85 308.55 M302.1 346.95 L302.2 342.1 301.3 337.95 M309.1 357.35 L312.65 362.9 312.5 365.2 315.75 368.55 315.75 373.15 318.2 376.6 318.2 380.5 320.35 383.4 321.3 388.15" fill="none" stroke="#000000" stroke-linecap="round" stroke-linejoin="round" stroke-opacity="0.5019608" stroke-width="1.0"/>
    <path d="M321.05 328.7 L324.25 324.6 325.35 320.4 326.95 318.0 326.95 306.95 328.3 303.0 328.3 295.2 324.25 291.4 324.25 286.55 322.9 284.85 322.9 283.6 320.3 281.2 M321.05 328.7 L313.45 327.35 311.0 325.05 305.65 318.85 305.65 306.55 304.25 301.95 304.25 287.95 306.15 286.7 306.15 284.85 307.75 280.65 310.45 278.2 310.45 276.85 312.2 275.1 312.2 269.8 313.2 268.2 313.2 265.1 315.85 266.7 317.5 269.95 317.5 277.55 320.3 281.2 M352.9 336.45 L350.45 333.8 350.45 330.25 348.95 325.9 345.4 329.35 345.4 333.35 343.05 336.45 343.05 349.55 346.3 354.05 346.3 355.95 348.55 358.35 350.6 356.15 350.6 350.4 352.9 345.55 352.9 336.45 M339.25 361.2 L335.95 364.0 335.95 367.8 338.55 370.25 M339.25 361.2 L341.5 363.5 341.5 367.8 338.55 370.25 M291.85 308.55 L291.85 311.85 290.5 313.7 290.5 316.8 289.25 318.95 289.25 323.8 291.45 325.45 291.45 329.35 294.45 331.35 M291.85 308.55 L295.1 311.15 297.0 313.7 297.0 316.5 299.1 319.1 299.1 322.7 297.55 324.1 297.55 326.25 296.2 327.45 296.2 329.45 294.45 331.35 M301.3 337.95 L299.1 340.2 299.1 344.55 302.1 346.95 304.65 344.55 304.65 340.7 301.3 337.95 M309.1 357.35 L311.55 351.85 315.1 354.6 318.05 359.8 318.05 362.55 321.0 367.25 321.0 371.05 322.65 377.75 322.65 388.15 321.3 388.15 320.35 390.75 318.55 390.75 314.0 393.55 311.85 390.9 311.85 388.15 308.95 385.85 308.95 382.5 306.0 379.7 306.0 366.8 308.75 362.25 308.75 358.05 309.1 357.35" fill="none" stroke="#000000" stroke-linecap="round" stroke-linejoin="round" stroke-width="1.0"/>
  </g>
</svg>
