<?xml version="1.0" encoding="UTF-8" standalone="no"?>
<svg xmlns:xlink="http://www.w3.org/1999/xlink" height="341.3px" width="166.9px" xmlns="http://www.w3.org/2000/svg">
  <g transform="matrix(1.0, 0.0, 0.0, 1.0, 0.0, 0.0)">
    <path d="M125.5 44.1 L119.45 56.35 119.45 64.75 122.6 73.05 126.3 77.95 118.8 85.1 120.35 90.9 111.5 98.6 112.6 105.25 116.55 110.85 113.4 116.4 120.9 128.2 116.6 123.2 113.3 132.8 109.05 131.95 105.55 136.9 106.35 144.0 106.35 144.15 104.15 149.15 105.55 144.0 104.9 137.85 104.0 139.0 100.6 140.6 103.45 138.35 104.75 136.65 104.85 136.55 104.9 136.5 108.7 131.1 112.8 131.9 116.05 122.45 111.55 116.55 114.7 110.95 111.15 105.9 111.1 105.7 110.05 99.2 105.65 99.8 100.2 110.05 97.7 110.85 90.8 119.4 88.75 117.5 85.2 123.1 88.4 115.1 90.65 117.15 96.8 109.45 99.05 108.7 103.9 99.7 98.45 101.25 98.35 101.3 93.15 96.9 89.2 98.45 93.0 96.55 93.0 94.55 89.1 91.85 93.4 94.3 93.4 96.6 98.65 100.35 104.7 98.4 105.0 98.25 110.35 97.5 118.55 90.4 116.05 84.6 123.4 77.75 121.2 73.75 118.25 66.0 100.4 77.85 94.1 74.05 88.1 79.65 85.3 71.65 88.45 77.15 93.2 71.4 100.2 76.55 117.85 64.4 117.85 56.05 121.5 45.45 107.9 44.65 101.95 49.5 101.55 54.1 101.55 49.75 96.8 51.85 93.25 50.1 91.4 52.6 91.35 52.6 88.1 53.95 91.1 52.25 92.9 49.9 89.7 47.85 93.25 49.65 93.35 49.65 96.8 51.4 101.55 48.9 106.95 44.25 110.05 31.55 108.3 31.55 101.5 21.9 111.55 19.35 109.45 12.35 113.55 20.5 104.15 22.9 109.15 30.0 112.05 30.0 109.0 42.8 123.6 42.8 135.1 32.95 142.85 37.4 153.3 35.2 153.5 35.15 156.05 31.95 161.1 32.75 156.45 32.75 154.2 35.6 166.9 50.3 153.15 36.8 143.2 38.95 144.3 47.75 138.2 56.45 139.8 59.7 139.85 59.8 143.85 68.3 139.25 60.5 130.45 65.85 128.6 68.7 129.8 65.3 138.95 59.85 137.3 56.35 143.45 47.5 142.45 39.0 135.15 35.95 125.5 44.1 M95.25 17.1 L99.1 4.95 98.85 0.0 99.85 4.8 101.6 7.3 99.6 5.85 95.8 17.8 88.4 22.3 95.25 17.1 M40.1 191.75 L37.1 195.85 40.05 191.2 43.95 193.65 46.05 186.8 49.8 189.0 46.55 182.55 48.05 180.45 50.45 171.8 40.8 153.45 52.15 171.3 52.3 171.75 63.8 178.95 73.4 177.75 63.7 179.9 52.1 172.65 49.85 180.65 54.15 193.3 61.2 189.75 64.4 198.8 66.7 197.55 69.05 203.2 66.35 198.8 63.9 200.0 60.75 191.0 54.4 194.15 54.3 194.5 49.35 205.25 52.05 214.7 56.1 218.85 59.65 233.0 51.8 237.15 51.85 237.6 55.75 241.15 55.85 241.25 60.25 241.05 63.95 245.0 63.6 245.3 60.05 241.5 56.0 241.7 59.4 254.9 63.85 264.45 58.6 255.3 58.6 255.25 58.55 255.2 55.05 241.75 51.55 238.6 48.75 248.9 41.35 249.3 44.65 265.05 45.3 277.0 55.3 287.3 43.55 277.9 42.9 265.4 40.55 254.25 40.45 258.25 35.65 260.5 30.4 270.4 34.95 259.8 35.1 259.75 39.5 257.7 39.4 248.65 Q39.3 248.4 39.45 248.15 L39.75 247.75 40.2 247.55 47.35 247.2 50.05 237.2 50.35 236.75 50.25 236.45 41.9 230.9 40.25 234.4 34.0 229.25 31.55 235.75 31.6 235.85 26.0 239.3 25.55 238.45 30.85 235.25 33.6 227.7 39.9 233.0 41.5 229.6 50.8 235.7 57.55 232.1 54.5 219.75 50.6 215.75 50.45 215.65 47.55 205.15 52.5 194.1 48.3 181.55 47.05 182.65 50.8 190.05 50.75 190.1 46.3 187.4 44.2 194.3 40.1 191.75 M53.35 20.5 L57.45 12.35 55.35 19.35 65.4 21.9 58.6 31.55 56.85 31.55 59.95 44.25 65.35 48.9 70.1 51.4 73.55 49.65 73.65 49.65 77.2 47.85 74.0 49.9 75.8 52.25 78.8 53.95 75.55 52.6 75.5 52.6 73.65 50.1 70.1 51.85 65.35 49.75 65.35 54.1 64.95 49.5 59.0 44.65 45.4 45.45 49.05 56.05 49.05 64.4 66.7 76.55 73.7 71.4 78.45 77.15 81.6 71.65 78.8 79.65 72.8 74.05 66.5 77.85 48.65 66.0 45.7 73.75 43.5 77.75 50.85 84.6 48.35 90.4 56.55 97.5 61.9 98.25 62.2 98.4 68.25 100.35 73.5 96.6 73.5 94.3 77.8 91.85 73.9 94.55 73.9 96.55 77.7 98.45 73.75 96.9 68.55 101.3 68.45 101.25 63.0 99.7 67.85 108.7 70.1 109.45 76.25 117.15 78.5 115.1 81.7 123.1 78.15 117.5 76.1 119.4 69.2 110.85 66.7 110.05 61.25 99.8 56.85 99.2 55.8 105.7 55.75 105.9 52.2 110.95 55.35 116.55 50.85 122.45 54.1 131.9 58.2 131.1 62.0 136.5 62.05 136.55 62.15 136.65 63.45 138.35 66.3 140.6 62.9 139.0 62.0 137.85 61.35 144.0 62.75 149.15 60.55 144.15 60.55 144.0 61.35 136.9 57.85 131.95 53.6 132.8 50.3 123.2 46.0 128.2 53.5 116.4 50.35 110.85 54.3 105.25 55.4 98.6 46.55 90.9 48.1 85.1 40.6 77.95 44.3 73.05 47.45 64.75 47.45 56.35 41.4 44.1 31.75 35.95 24.45 39.0 23.45 47.5 29.6 56.35 27.95 59.85 37.1 65.3 38.3 68.7 36.45 65.85 27.65 60.5 23.05 68.3 27.05 59.8 27.1 59.7 28.7 56.45 22.6 47.75 23.7 38.95 13.75 36.8 0.0 50.3 12.7 35.6 10.45 32.75 5.8 32.75 10.85 31.95 13.4 35.15 13.6 35.2 24.05 37.4 31.8 32.95 43.3 42.8 57.9 42.8 54.85 30.0 57.75 30.0 62.75 22.9 53.35 20.5 M67.3 5.85 L65.3 7.3 67.05 4.8 68.05 0.0 67.8 4.95 71.65 17.1 78.5 22.3 71.1 17.8 67.3 5.85 M114.75 171.3 L126.1 153.45 116.45 171.8 118.85 180.45 120.35 182.55 117.1 189.0 120.85 186.8 122.95 193.65 126.85 191.2 129.8 195.85 126.8 191.75 122.7 194.3 120.6 187.4 116.15 190.1 116.1 190.05 119.85 182.65 118.6 181.55 114.4 194.1 119.35 205.15 116.45 215.65 116.3 215.75 112.4 219.75 109.35 232.1 116.1 235.7 125.4 229.6 127.0 233.0 133.3 227.7 136.05 235.25 141.35 238.45 140.9 239.3 135.3 235.85 135.35 235.75 132.9 229.25 126.65 234.4 125.0 230.9 116.65 236.45 116.55 236.75 116.85 237.2 119.55 247.2 126.7 247.55 127.15 247.75 127.45 248.15 127.5 248.65 127.4 257.7 131.8 259.75 131.95 259.8 136.5 270.4 131.25 260.5 126.45 258.25 126.35 254.25 124.0 265.4 123.35 277.9 111.6 287.3 121.6 277.0 122.25 265.05 125.55 249.3 118.15 248.9 115.35 238.6 111.85 241.75 108.35 255.2 108.3 255.25 108.3 255.3 103.05 264.45 107.5 254.9 110.9 241.7 106.85 241.5 103.3 245.3 102.95 245.0 106.65 241.05 111.05 241.25 111.15 241.15 115.05 237.6 115.1 237.15 107.25 233.0 110.8 218.85 114.85 214.7 117.55 205.25 112.6 194.5 112.5 194.15 106.15 191.0 103.0 200.0 100.55 198.8 97.85 203.2 100.2 197.55 102.5 198.8 105.7 189.75 112.75 193.3 117.05 180.65 114.8 172.65 103.2 179.9 93.5 177.75 103.1 178.95 114.6 171.75 Q114.6 171.55 114.75 171.3 M26.2 317.9 L34.0 313.1 32.65 303.2 49.35 301.3 35.8 304.8 35.8 314.1 27.7 319.1 25.65 324.95 25.95 324.2 28.3 330.95 33.15 331.75 38.2 339.4 43.4 341.3 37.65 340.2 32.65 332.6 27.7 331.75 24.75 325.55 14.25 326.45 2.75 331.5 13.65 324.7 24.15 323.75 26.2 317.9 M131.1 314.1 L131.1 304.8 117.55 301.3 134.25 303.2 132.9 313.1 140.7 317.9 142.75 323.75 153.25 324.7 164.15 331.5 152.65 326.45 142.15 325.55 139.2 331.75 134.25 332.6 129.25 340.2 123.5 341.3 128.7 339.4 133.75 331.75 138.6 330.95 140.95 324.2 141.25 324.95 139.2 319.1 131.1 314.1" fill="#000000" fill-rule="evenodd" stroke="none"/>
  </g>
</svg>
