<?xml version="1.0" encoding="UTF-8" standalone="no"?>
<svg xmlns:xlink="http://www.w3.org/1999/xlink" height="214.8px" width="443.1px" xmlns="http://www.w3.org/2000/svg">
  <g transform="matrix(1.0, 0.0, 0.0, 1.0, -178.35, -74.35)">
    <path d="M571.15 93.6 Q568.3 96.0 571.8 96.65 554.75 101.65 538.85 110.65 524.35 118.8 512.0 127.25 504.55 132.3 510.4 131.4 L512.9 130.9 510.55 131.8 Q503.85 134.55 501.25 140.35 L497.45 148.85 Q501.05 136.85 491.95 143.7 467.45 161.85 438.25 201.65 433.35 209.1 435.0 211.0 L439.4 211.1 Q435.8 215.05 436.8 218.1 438.25 220.55 444.55 219.45 436.7 222.8 436.55 225.9 437.2 230.2 461.0 225.85 440.2 233.1 421.8 237.55 416.75 239.45 422.45 242.0 L423.65 242.45 422.3 242.45 Q398.85 239.4 415.9 214.3 444.9 175.1 483.2 140.25 492.6 131.4 500.35 126.65 564.95 86.25 611.95 75.2 618.05 73.75 621.45 74.75 608.25 76.0 594.9 84.2 L571.15 93.6 M362.95 263.75 L361.3 264.35 Q344.85 270.1 338.5 281.05 333.25 279.45 326.2 278.75 337.9 273.25 349.9 267.95 357.25 263.15 341.65 264.1 346.85 261.7 343.4 259.25 L357.1 258.25 Q370.1 256.5 366.95 251.3 362.15 245.85 333.75 247.15 363.2 244.75 376.2 247.55 388.65 251.35 386.15 262.2 382.65 272.65 363.3 283.8 L356.75 289.15 Q360.15 285.7 357.9 283.35 356.05 281.35 351.15 283.55 365.25 276.65 374.6 268.15 377.75 264.6 374.6 262.75 371.15 260.85 362.95 263.75 M383.9 214.3 Q400.95 239.4 377.5 242.45 L376.15 242.45 377.35 242.0 Q383.1 239.45 378.0 237.55 359.65 233.1 338.8 225.85 362.6 230.2 363.25 225.9 363.1 222.8 355.3 219.45 361.55 220.55 363.0 218.1 364.0 215.05 360.4 211.1 L364.8 211.0 Q366.45 209.1 361.55 201.65 332.35 161.85 307.85 143.7 298.75 136.85 302.35 148.85 L298.55 140.35 Q295.95 134.55 289.25 131.8 L286.9 130.9 289.4 131.4 Q295.25 132.3 287.8 127.25 275.45 118.8 260.95 110.65 245.05 101.65 228.0 96.65 231.5 96.0 228.65 93.6 L204.9 84.2 Q191.55 76.0 178.35 74.75 181.75 73.75 187.85 75.2 234.85 86.25 299.45 126.65 307.2 131.4 316.6 140.25 354.9 175.1 383.9 214.3 M413.65 262.2 Q411.15 251.35 423.6 247.55 436.6 244.75 466.05 247.15 437.65 245.85 432.85 251.3 429.7 256.5 442.7 258.25 L456.4 259.25 Q452.95 261.7 458.15 264.1 442.55 263.15 449.9 267.95 461.9 273.25 473.6 278.75 466.55 279.45 461.3 281.05 454.95 270.1 438.5 264.35 L436.85 263.75 Q428.65 260.85 425.2 262.75 422.05 264.6 425.2 268.15 434.55 276.65 448.65 283.55 443.75 281.35 441.9 283.35 439.65 285.7 443.05 289.15 L436.5 283.8 Q417.15 272.65 413.65 262.2" fill="#000000" fill-rule="evenodd" stroke="none"/>
  </g>
</svg>
