<?xml version="1.0" encoding="UTF-8" standalone="no"?>
<svg xmlns:xlink="http://www.w3.org/1999/xlink" height="75.75px" width="48.95px" xmlns="http://www.w3.org/2000/svg">
  <g transform="matrix(1.0, 0.0, 0.0, 1.0, -322.25, -363.8)">
    <path d="M349.7 364.75 L344.15 365.7 343.4 366.65 344.0 370.45 Q343.25 372.0 341.35 371.95 L339.5 371.6 330.65 365.4 Q327.9 363.5 325.65 364.95 324.5 365.65 323.95 366.75 L322.85 373.1 Q322.7 373.55 322.8 374.0 323.0 375.05 323.95 375.2 325.85 375.5 327.85 376.2 331.85 377.6 332.45 379.5 333.45 379.3 334.5 379.5 336.65 379.9 337.0 381.95 L338.8 392.15 338.3 393.25 345.45 433.6 343.45 436.0 344.0 439.05 348.5 438.25 355.5 437.0 362.5 435.8 363.4 434.9 370.3 433.65 370.7 433.15 360.6 376.0 353.1 376.5 351.2 365.85 349.7 364.75 M357.0 398.85 L354.1 382.5 M344.1 380.25 L341.45 381.4 Q338.75 382.9 338.45 384.75 L340.35 383.5 344.6 383.4 345.45 387.8 Q345.65 389.15 344.8 390.05 L343.9 390.6 340.65 391.2 Q339.8 391.35 339.4 389.95 L338.45 384.75 338.0 382.15 Q338.9 378.8 341.55 379.15 L343.35 379.8 344.1 380.25 M357.0 398.85 L362.05 398.7 363.55 400.3 363.5 400.05 360.55 383.05 359.95 382.3 354.1 382.5 M361.6 400.6 Q359.05 400.05 357.8 403.35 L362.6 430.3 Q363.6 431.05 364.85 431.15 367.4 431.45 368.55 428.6 L363.9 401.95 363.2 401.4 Q362.45 400.8 361.6 400.6" fill="none" stroke="#000000" stroke-linecap="round" stroke-linejoin="round" stroke-width="1.0"/>
    <path d="M344.0 370.45 L347.25 388.8 347.1 390.7 349.05 401.45 349.1 401.7 357.25 400.25 357.0 398.85 M354.1 382.5 L353.1 376.5 M349.7 364.75 L353.6 387.1 355.4 397.1 353.8 397.35 351.55 397.8 350.15 396.75 348.8 389.15 349.75 387.8 352.0 387.4 353.6 387.1 M338.8 392.15 L347.1 390.7 M344.6 383.4 L344.1 380.25 M353.8 397.35 L352.0 387.4 M345.45 433.6 L345.75 435.5 348.5 438.25 347.3 431.25 Q349.7 428.35 352.2 428.9 353.0 429.1 353.7 429.6 L354.25 430.05 354.15 429.5 349.1 401.7 M363.55 400.3 L363.85 401.85 363.9 401.95 M355.5 437.0 L354.25 430.05 M363.4 434.9 L362.6 430.3 M360.55 425.45 L359.7 420.75 358.1 421.05 358.95 425.7 360.55 425.45 M361.9 433.3 L360.3 433.55 359.45 428.85 361.1 428.6 361.9 433.3 M357.8 403.35 L357.25 400.25" fill="none" stroke="#000000" stroke-linecap="round" stroke-linejoin="round" stroke-opacity="0.49803922" stroke-width="1.0"/>
  </g>
</svg>
