<?xml version="1.0" encoding="UTF-8" standalone="no"?>
<svg xmlns:xlink="http://www.w3.org/1999/xlink" height="174.05px" width="60.0px" xmlns="http://www.w3.org/2000/svg">
  <g transform="matrix(1.0, 0.0, 0.0, 1.0, -316.95, -315.7)">
    <path d="M374.0 464.0 L373.4 460.3 375.05 460.0 375.65 463.75 374.0 464.0 M372.45 454.65 L374.0 454.4 374.7 458.1 373.05 458.4 372.45 454.65 M371.4 449.0 L373.05 448.75 373.7 452.5 372.05 452.75 371.4 449.0 M371.1 437.5 L371.7 441.3 370.1 441.55 369.4 437.8 371.1 437.5 M370.4 443.45 L372.05 443.2 372.75 446.9 371.1 447.15 370.4 443.45 M368.45 432.15 L370.1 431.9 370.7 435.6 369.05 435.9 368.45 432.15 M341.95 389.75 L343.6 390.95 349.65 389.8 348.2 381.75 348.15 381.75 345.95 381.25 Q343.25 381.25 340.8 383.35 L341.95 389.75 M347.75 315.7 L349.65 316.05 351.5 326.5 350.25 328.45 350.9 332.1 353.6 331.6 357.65 354.65 355.85 357.25 362.85 396.95 363.95 396.75 365.25 404.0 361.25 404.65 Q360.2 404.9 359.25 405.65 358.1 406.8 357.3 408.7 L356.8 409.95 Q356.4 411.15 356.3 412.3 L367.55 476.3 369.35 475.25 371.8 489.15 368.45 489.75 366.2 476.9 365.95 476.95 363.35 477.4 362.65 473.6 364.35 473.3 364.05 471.45 362.4 471.75 361.7 468.0 363.4 467.65 363.05 465.8 361.4 466.15 360.75 462.4 362.4 462.1 362.05 460.2 360.4 460.5 359.75 456.75 361.35 456.4 361.05 454.6 359.45 454.9 358.75 451.1 360.4 450.8 360.1 449.0 358.45 449.25 357.75 445.5 359.45 445.2 359.05 443.3 357.4 443.65 356.75 439.9 358.4 439.6 358.1 437.8 356.45 438.1 355.8 434.25 357.45 433.95 357.15 432.1 355.45 432.45 354.8 428.75 356.45 428.4 356.1 426.55 354.45 426.85 353.75 423.05 355.4 422.75 355.1 420.85 353.45 421.2 352.75 417.45 354.45 417.15 354.15 415.3 352.55 415.6 351.85 411.85 353.5 411.6 353.15 409.7 351.5 409.95 350.85 406.3 352.5 405.95 350.1 392.45 343.1 393.75 340.3 391.75 338.3 380.8 336.75 379.4 Q334.55 378.05 331.65 378.8 330.8 376.55 328.45 374.55 324.9 371.4 320.1 371.25 317.4 371.2 317.0 369.05 316.75 367.5 317.75 364.8 318.95 361.55 321.15 358.45 322.1 357.7 323.95 358.05 327.85 358.85 332.75 364.95 341.1 372.75 343.6 366.75 344.7 363.75 344.25 359.2 L344.15 359.25 342.35 359.55 337.25 330.75 338.35 327.7 336.5 326.4 336.85 325.25 329.45 321.8 331.65 316.35 339.0 319.8 339.45 318.65 339.45 318.6 341.4 319.95 342.35 317.35 Q345.3 315.75 347.75 315.7 M375.0 469.6 L376.95 480.35 372.0 481.25 370.75 474.1 371.95 473.0 375.0 469.6 374.3 465.85 376.0 465.6 376.65 469.35 375.0 469.6" fill="#ffffff" fill-rule="evenodd" stroke="none"/>
  </g>
</svg>
