<?xml version="1.0" encoding="UTF-8" standalone="no"?>
<svg xmlns:xlink="http://www.w3.org/1999/xlink" height="3.9px" width="28.4px" xmlns="http://www.w3.org/2000/svg">
  <g transform="matrix(1.0, 0.0, 0.0, 1.0, -385.7, -193.75)">
    <path d="M394.55 196.55 L392.85 194.85 392.2 194.75 392.3 195.15 392.3 195.35 Q392.3 196.1 391.75 196.6 391.25 197.15 390.5 197.15 389.75 197.15 389.2 196.6 388.7 196.1 388.7 195.35 L388.8 194.75 389.0 194.3 387.65 194.25 386.2 195.95 M392.2 194.75 L389.0 194.3 M405.25 196.55 L406.95 194.85 407.6 194.75 410.8 194.3 412.15 194.25 413.6 195.95 M407.6 194.75 L407.5 195.15 407.5 195.35 Q407.5 196.1 408.05 196.6 408.55 197.15 409.3 197.15 410.05 197.15 410.6 196.6 411.1 196.1 411.1 195.35 L411.0 194.75 410.8 194.3" fill="none" stroke="#000000" stroke-linecap="round" stroke-linejoin="round" stroke-opacity="0.5019608" stroke-width="1.0"/>
  </g>
</svg>
