<?xml version="1.0" encoding="UTF-8" standalone="no"?>
<svg xmlns:xlink="http://www.w3.org/1999/xlink" height="3.75px" width="28.4px" xmlns="http://www.w3.org/2000/svg">
  <g transform="matrix(1.0, 0.0, 0.0, 1.0, -385.7, -193.45)">
    <path d="M394.55 196.55 L393.1 194.85 392.1 194.55 391.45 194.35 391.85 195.2 391.85 195.35 391.4 196.3 Q391.05 196.7 390.5 196.7 389.9 196.7 389.5 196.3 389.15 195.95 389.15 195.35 L389.2 194.9 389.5 194.4 Q389.75 194.15 390.05 194.1 L389.3 194.0 387.7 193.95 386.2 195.95 M391.45 194.35 L390.05 194.1 M405.25 196.55 L406.7 194.85 407.7 194.55 408.4 194.35 409.75 194.1 410.5 194.0 412.1 193.95 413.6 195.95 M408.4 194.35 L407.95 195.2 407.95 195.35 Q407.95 195.95 408.4 196.3 408.75 196.7 409.3 196.7 409.9 196.7 410.3 196.3 410.65 195.95 410.65 195.35 L410.6 194.9 410.3 194.4 409.75 194.1" fill="none" stroke="#000000" stroke-linecap="round" stroke-linejoin="round" stroke-opacity="0.5019608" stroke-width="1.0"/>
  </g>
</svg>
