<?xml version="1.0" encoding="UTF-8" standalone="no"?>
<svg xmlns:xlink="http://www.w3.org/1999/xlink" height="12.0px" width="34.8px" xmlns="http://www.w3.org/2000/svg">
  <g transform="matrix(1.0, 0.0, 0.0, 1.0, -382.5, -189.9)">
    <path d="M388.35 195.35 L388.45 194.65 388.95 193.8 Q389.6 193.2 390.5 193.2 391.4 193.2 392.0 193.8 392.55 194.35 392.65 195.1 L392.65 195.35 Q392.65 196.25 392.0 196.85 391.4 197.5 390.5 197.5 389.6 197.5 388.95 196.85 388.35 196.25 388.35 195.35 M407.9 196.85 Q407.2 196.25 407.2 195.35 L407.3 195.1 Q407.35 194.35 407.9 193.8 408.5 193.2 409.4 193.2 410.3 193.2 410.95 193.8 L411.4 194.65 411.55 195.35 Q411.55 196.25 410.95 196.85 410.3 197.5 409.4 197.5 408.5 197.5 407.9 196.85" fill="#000000" fill-rule="evenodd" stroke="none"/>
    <path d="M388.35 195.35 L388.45 194.65 388.95 193.8 Q389.6 193.2 390.5 193.2 391.4 193.2 392.0 193.8 392.55 194.35 392.65 195.1 L392.65 195.35 Q392.65 196.25 392.0 196.85 391.4 197.5 390.5 197.5 389.6 197.5 388.95 196.85 388.35 196.25 388.35 195.35 M393.4 192.95 L392.4 191.85 Q386.6 190.7 385.35 194.9 384.15 199.15 388.0 201.15 390.85 201.7 394.95 201.15 L395.0 200.5 Q395.05 198.6 394.45 195.5 L394.4 195.25 Q394.1 193.9 393.4 192.95 M392.4 191.85 Q391.45 191.1 390.1 190.65 386.5 189.45 383.95 193.9 382.35 196.7 383.4 198.55 L384.0 199.2 Q384.95 200.05 385.55 200.35 L388.0 201.15 M407.9 196.85 Q408.5 197.5 409.4 197.5 410.3 197.5 410.95 196.85 411.55 196.25 411.55 195.35 L411.4 194.65 410.95 193.8 Q410.3 193.2 409.4 193.2 408.5 193.2 407.9 193.8 407.35 194.35 407.3 195.1 L407.2 195.35 Q407.2 196.25 407.9 196.85 M405.4 195.25 Q405.7 193.9 406.4 192.95 L407.4 191.85 Q408.35 191.1 409.7 190.65 413.3 189.45 415.85 193.9 417.45 196.7 416.4 198.55 L415.8 199.2 414.25 200.35 Q413.2 200.9 411.8 201.15 408.95 201.7 404.85 201.15 L404.8 200.5 Q404.75 198.6 405.35 195.5 L405.4 195.25 M407.4 191.85 Q413.2 190.7 414.45 194.9 415.65 199.15 411.8 201.15" fill="none" stroke="#000000" stroke-linecap="round" stroke-linejoin="round" stroke-opacity="0.5019608" stroke-width="1.0"/>
  </g>
</svg>
