<?xml version="1.0" encoding="UTF-8" standalone="no"?>
<svg xmlns:xlink="http://www.w3.org/1999/xlink" height="14.65px" width="34.3px" xmlns="http://www.w3.org/2000/svg">
  <g transform="matrix(1.0, 0.0, 0.0, 1.0, -382.75, -188.9)">
    <path d="M383.25 195.65 Q383.15 196.85 383.8 198.0 385.15 200.5 390.0 202.85 396.2 204.4 397.4 193.7 390.0 186.5 385.85 191.3 383.55 193.35 383.25 195.35 L383.25 195.65 M388.9 191.9 Q389.2 191.9 389.4 192.95 L389.65 194.7 391.3 194.9 Q392.25 195.15 392.25 195.5 392.25 195.85 391.3 196.05 L389.65 196.3 389.4 197.95 Q389.2 199.0 388.9 199.0 388.6 199.0 388.35 197.95 388.2 197.2 388.2 196.3 L386.75 196.05 Q385.85 195.85 385.85 195.5 385.85 195.15 386.75 194.9 L388.2 194.75 Q388.2 193.75 388.35 192.95 388.6 191.9 388.9 191.9 M407.55 195.5 Q407.55 195.85 408.5 196.05 L410.15 196.3 410.4 197.95 Q410.6 199.0 410.9 199.0 411.2 199.0 411.45 197.95 L411.6 196.3 413.05 196.05 Q413.95 195.85 413.95 195.5 413.95 195.15 413.05 194.9 L411.6 194.75 411.45 192.95 Q411.2 191.9 410.9 191.9 410.6 191.9 410.4 192.95 410.2 193.7 410.15 194.7 L408.5 194.9 Q407.55 195.15 407.55 195.5 M416.55 195.65 Q416.65 196.85 416.0 198.0 414.65 200.5 409.8 202.85 403.6 204.4 402.4 193.7 409.8 186.5 413.95 191.3 416.25 193.35 416.55 195.35 L416.55 195.65" fill="none" stroke="#000000" stroke-linecap="round" stroke-linejoin="round" stroke-opacity="0.5019608" stroke-width="1.0"/>
  </g>
</svg>
