<?xml version="1.0" encoding="UTF-8" standalone="no"?>
<svg xmlns:xlink="http://www.w3.org/1999/xlink" height="8.7px" width="14.45px" xmlns="http://www.w3.org/2000/svg">
  <g transform="matrix(1.0, 0.0, 0.0, 1.0, -383.6, -190.45)">
    <path d="M396.65 190.95 Q397.55 192.55 397.55 193.85 397.6 196.05 395.25 197.5 L395.1 197.6 394.15 197.65 394.1 197.65 393.8 197.45 393.25 197.2 393.05 197.1 392.95 197.3 Q392.35 198.3 391.5 198.55 L391.4 198.6 390.8 198.65 389.8 198.5 389.75 198.5 Q384.9 197.1 387.75 192.45 L387.85 192.2 Q387.25 191.55 386.45 191.4 L385.3 191.35 384.55 191.5 384.1 191.6 M393.05 197.1 L393.0 197.05 392.4 196.7 391.85 197.25 391.1 197.3 Q389.95 197.3 389.2 196.65 388.45 196.0 388.45 194.9 388.45 193.95 388.8 193.5 L388.65 193.3 388.2 192.65 387.95 192.3 387.9 192.3 387.85 192.2 M392.4 196.7 Q391.0 195.85 389.8 194.65 L388.8 193.5" fill="none" stroke="#000000" stroke-linecap="round" stroke-linejoin="round" stroke-opacity="0.5019608" stroke-width="1.0"/>
  </g>
</svg>
