<?xml version="1.0" encoding="UTF-8" standalone="no"?>
<svg xmlns:xlink="http://www.w3.org/1999/xlink" height="13.65px" width="14.15px" xmlns="http://www.w3.org/2000/svg">
  <g transform="matrix(1.0, 0.0, 0.0, 1.0, -383.25, -189.4)">
    <path d="M388.9 191.9 Q388.6 191.9 388.35 192.95 388.2 193.75 388.2 194.75 L386.75 194.9 Q385.85 195.15 385.85 195.5 385.85 195.85 386.75 196.05 L388.2 196.3 Q388.2 197.2 388.35 197.95 388.6 199.0 388.9 199.0 389.2 199.0 389.4 197.95 L389.65 196.3 391.3 196.05 Q392.25 195.85 392.25 195.5 392.25 195.15 391.3 194.9 L389.65 194.7 389.4 192.95 Q389.2 191.9 388.9 191.9 M383.25 195.65 L383.25 195.35 Q383.55 193.35 385.85 191.3 390.0 186.5 397.4 193.7 396.2 204.4 390.0 202.85 385.15 200.5 383.8 198.0 383.15 196.85 383.25 195.65" fill="#000000" fill-rule="evenodd" stroke="none"/>
  </g>
</svg>
