<?xml version="1.0" encoding="UTF-8" standalone="no"?>
<svg xmlns:xlink="http://www.w3.org/1999/xlink" height="2.85px" width="31.1px" xmlns="http://www.w3.org/2000/svg">
  <g transform="matrix(1.0, 0.0, 0.0, 1.0, -384.4, -194.6)">
    <path d="M388.8 194.75 L388.7 195.35 Q388.7 196.1 389.2 196.6 389.75 197.15 390.5 197.15 391.25 197.15 391.75 196.6 392.3 196.1 392.3 195.35 L392.3 195.15 392.95 195.2 394.55 196.55 Q388.9 198.6 386.2 195.95 L384.4 194.95 387.65 194.6 388.8 194.75 M408.15 196.6 Q408.65 197.15 409.4 197.15 410.15 197.15 410.7 196.6 411.2 196.1 411.2 195.35 L411.1 194.75 412.25 194.6 415.5 194.95 413.6 195.95 Q410.9 198.6 405.35 196.55 L406.95 195.2 407.6 195.15 407.6 195.35 Q407.6 196.1 408.15 196.6" fill="#000000" fill-rule="evenodd" stroke="none"/>
  </g>
</svg>
