<?xml version="1.0" encoding="UTF-8" standalone="no"?>
<svg xmlns:xlink="http://www.w3.org/1999/xlink" height="136.9px" width="364.8px" xmlns="http://www.w3.org/2000/svg">
  <g transform="matrix(1.0, 0.0, 0.0, 1.0, -180.3, -314.5)">
    <path d="M184.15 315.0 L470.1 419.05 470.3 418.85 471.95 419.65 Q479.2 419.35 483.5 413.0 L483.65 412.85 485.2 414.5 481.7 424.35 494.55 430.55 Q495.7 431.05 497.7 430.25 L498.05 430.15 498.15 430.1 501.75 427.95 Q543.35 449.25 544.6 450.9 542.6 451.35 497.05 440.95 L495.6 436.95 495.55 436.9 495.45 436.55 Q494.4 434.6 493.2 434.25 L479.35 430.75 475.7 440.55 473.4 440.85 473.45 440.65 Q474.2 433.0 468.85 428.15 L467.1 427.65 467.1 427.4 181.15 323.3 Q180.35 320.45 181.3 318.25 182.05 316.35 184.15 315.0 M479.95 423.5 L475.45 421.3 M472.6 429.05 L477.45 430.3 475.3 436.5 Q475.05 432.0 472.6 429.05 M479.95 423.5 L482.3 417.3 Q479.15 420.7 475.45 421.3" fill="none" stroke="#000000" stroke-linecap="round" stroke-linejoin="round" stroke-width="1.0"/>
    <path d="M495.45 436.55 L493.25 432.2 497.7 430.25 M544.6 450.9 L493.25 432.2 M477.45 430.3 L479.35 430.75 Q478.65 428.5 481.2 427.85 L481.15 427.8 Q479.7 425.65 481.7 424.35 L479.95 423.5 M475.45 421.3 L471.95 419.65 M477.4 426.45 Q477.7 425.4 478.55 424.25 477.45 423.45 476.35 423.1 475.6 424.0 475.0 425.55 474.45 427.05 474.5 428.3 L476.9 428.8 Q477.0 427.4 477.4 426.45 M471.15 424.15 Q471.35 426.8 473.8 427.95 473.7 426.35 474.15 425.25 L474.2 425.25 Q474.5 424.1 475.65 422.9 473.0 422.3 471.15 424.15 M467.1 427.4 Q466.8 424.7 467.5 422.85 L467.55 422.8 Q468.25 420.9 470.1 419.05 M473.8 427.95 L474.5 428.3 M468.85 428.15 L472.6 429.05 M476.35 423.1 L475.65 422.9" fill="none" stroke="#000000" stroke-linecap="round" stroke-linejoin="round" stroke-opacity="0.5019608" stroke-width="1.0"/>
  </g>
</svg>
