<?xml version="1.0" encoding="UTF-8" standalone="no"?>
<svg xmlns:xlink="http://www.w3.org/1999/xlink" height="50.65px" width="132.5px" xmlns="http://www.w3.org/2000/svg">
  <g transform="matrix(1.0, 0.0, 0.0, 1.0, 92.4, -61.4)">
    <path d="M-43.85 78.2 L36.1 108.5 Q39.15 109.75 40.1 111.65 L-42.45 81.6 -43.85 78.2" fill="url(#gradient0)" fill-rule="evenodd" stroke="none"/>
    <path d="M40.1 111.65 L35.05 111.5 -45.7 83.3 -42.45 81.6 40.1 111.65" fill="url(#gradient1)" fill-rule="evenodd" stroke="none"/>
    <path d="M-45.7 83.3 Q-49.85 80.25 -51.95 83.25 -53.75 86.15 -52.5 89.2 -51.25 92.25 -49.15 92.8 -45.15 94.3 -40.9 95.05 -39.65 95.25 -39.05 94.4 -34.3 96.4 -33.0 101.45 -38.5 97.65 -42.6 96.9 -46.75 96.2 -50.2 95.15 -53.35 94.4 -54.65 91.75 -56.2 88.7 -55.85 84.9 -55.75 79.55 -60.25 77.7 L-85.5 68.5 -83.8 63.95 -58.55 73.15 Q-53.95 74.65 -50.6 70.35 -48.4 67.3 -45.25 65.95 -42.6 64.75 -39.65 66.25 -36.35 67.65 -32.75 69.8 -29.15 71.9 -22.45 72.45 -26.7 75.5 -31.6 73.95 -31.55 72.95 -32.6 72.3 -36.4 70.2 -40.4 68.7 -42.35 67.8 -45.25 69.35 -48.2 70.8 -48.65 74.2 -49.0 77.95 -43.85 78.2 L-42.45 81.6 -45.7 83.3" fill="url(#gradient2)" fill-rule="evenodd" stroke="none"/>
    <path d="M-85.5 68.5 Q-85.65 68.95 -86.0 68.85 L-91.25 66.95 Q-93.0 66.0 -92.1 63.5 -91.15 61.0 -89.25 61.5 L-84.05 63.4 Q-83.65 63.5 -83.8 63.95 L-85.5 68.5" fill="url(#gradient3)" fill-rule="evenodd" stroke="none"/>
    <path d="M-42.45 81.6 L-45.7 83.3 Q-49.85 80.25 -51.95 83.25 -53.75 86.15 -52.5 89.2 -51.25 92.25 -49.15 92.8 -45.15 94.3 -40.9 95.05 -39.65 95.25 -39.05 94.4 -34.3 96.4 -33.0 101.45 -38.5 97.65 -42.6 96.9 -46.75 96.2 -50.2 95.15 -53.35 94.4 -54.65 91.75 -56.2 88.7 -55.85 84.9 -55.75 79.55 -60.25 77.7 L-85.5 68.5 Q-85.65 68.95 -86.0 68.85 L-91.25 66.95 Q-93.0 66.0 -92.1 63.5 L-42.45 81.6" fill="#000000" fill-opacity="0.2" fill-rule="evenodd" stroke="none"/>
    <path d="M-42.45 81.6 L-43.85 78.2 36.1 108.5 Q39.15 109.75 40.1 111.65 L-42.45 81.6" fill="#ffffff" fill-opacity="0.5019608" fill-rule="evenodd" stroke="none"/>
  </g>
  <defs>
    <linearGradient gradientTransform="matrix(0.0, 0.0204, -0.0513, 0.0, -1.85, 94.9)" gradientUnits="userSpaceOnUse" id="gradient0" spreadMethod="pad" x1="-819.2" x2="819.2">
      <stop offset="0.0" stop-color="#000000" stop-opacity="0.2509804"/>
      <stop offset="1.0" stop-color="#000000" stop-opacity="0.0"/>
    </linearGradient>
    <linearGradient gradientTransform="matrix(0.0, 0.0186, -0.0524, 0.0, -2.75, 96.8)" gradientUnits="userSpaceOnUse" id="gradient1" spreadMethod="pad" x1="-819.2" x2="819.2">
      <stop offset="0.0" stop-color="#000000" stop-opacity="0.2509804"/>
      <stop offset="1.0" stop-color="#000000" stop-opacity="0.0"/>
    </linearGradient>
    <linearGradient gradientTransform="matrix(0.0, 0.0229, -0.0385, 0.0, -53.95, 82.7)" gradientUnits="userSpaceOnUse" id="gradient2" spreadMethod="pad" x1="-819.2" x2="819.2">
      <stop offset="0.0" stop-color="#000000" stop-opacity="0.2509804"/>
      <stop offset="1.0" stop-color="#000000" stop-opacity="0.0"/>
    </linearGradient>
    <linearGradient gradientTransform="matrix(0.0, 0.0045, -0.0053, 0.0, -88.1, 65.1)" gradientUnits="userSpaceOnUse" id="gradient3" spreadMethod="pad" x1="-819.2" x2="819.2">
      <stop offset="0.0" stop-color="#000000" stop-opacity="0.2509804"/>
      <stop offset="1.0" stop-color="#000000" stop-opacity="0.0"/>
    </linearGradient>
  </defs>
</svg>
