<?xml version="1.0" encoding="UTF-8" standalone="no"?>
<svg xmlns:xlink="http://www.w3.org/1999/xlink" height="32.3px" width="106.9px" xmlns="http://www.w3.org/2000/svg">
  <g transform="matrix(1.0, 0.0, 0.0, 1.0, -346.4, -405.2)">
    <path d="M452.6 419.15 L448.15 433.8 Q446.4 436.95 443.15 437.5 438.45 437.3 436.3 434.55 L429.65 421.05 429.2 420.0 Q428.3 417.65 428.7 414.55 L431.2 406.8 Q434.15 407.1 437.1 416.75 439.15 423.15 441.8 423.05 445.3 422.9 445.75 415.9 446.05 406.85 449.7 405.2 L452.85 411.55 Q453.85 414.95 452.6 419.15 M370.5 420.0 L370.05 421.05 363.4 434.55 Q361.25 437.3 356.55 437.5 353.3 436.95 351.55 433.8 L347.1 419.15 Q345.85 414.95 346.85 411.55 L350.0 405.2 Q353.65 406.85 353.95 415.9 354.4 422.9 357.9 423.05 360.55 423.15 362.6 416.75 365.55 407.1 368.5 406.8 L371.0 414.55 Q371.4 417.65 370.5 420.0" fill="#000000" fill-rule="evenodd" stroke="none"/>
  </g>
</svg>
