<?xml version="1.0" encoding="UTF-8" standalone="no"?>
<svg xmlns:xlink="http://www.w3.org/1999/xlink" height="106.95px" width="158.15px" xmlns="http://www.w3.org/2000/svg">
  <g transform="matrix(1.0, 0.0, 0.0, 1.0, -320.8, -436.95)">
    <path d="M321.0 533.2 L325.6 527.4 Q324.95 531.3 327.7 533.1 L328.6 533.55 Q334.15 525.45 340.2 517.3 L349.25 505.3 349.4 502.85 349.45 502.1 349.85 494.75 Q350.45 475.95 349.15 456.6 L349.1 456.4 Q345.9 455.35 342.85 453.9 L342.7 452.8 Q341.45 444.4 343.35 437.0 350.0 440.65 358.3 441.5 367.85 442.4 379.6 439.55 379.75 445.9 376.9 451.85 L373.4 457.65 364.05 458.5 356.3 504.9 350.2 517.3 Q345.9 526.45 342.0 535.65 L354.4 536.05 354.35 536.3 Q353.85 539.8 352.55 543.1 L338.95 543.9 332.2 542.9 330.9 542.7 327.7 541.9 327.3 541.8 326.25 541.35 324.0 540.25 Q320.05 538.3 320.95 533.4 L321.0 533.2 M420.15 439.5 Q431.9 442.35 441.45 441.45 449.75 440.6 456.4 436.95 458.3 444.35 457.05 452.75 L456.9 453.85 Q453.85 455.3 450.65 456.35 L450.6 456.55 Q449.3 475.9 449.9 494.7 L450.3 502.05 450.35 502.8 450.5 505.25 459.55 517.25 Q465.6 525.4 471.15 533.5 L472.05 533.05 Q474.8 531.25 474.15 527.35 L478.75 533.15 478.8 533.35 Q479.7 538.25 475.75 540.2 L473.5 541.3 Q472.9 541.55 472.45 541.75 L472.05 541.85 468.85 542.65 467.55 542.85 460.8 543.85 447.2 543.05 Q445.9 539.75 445.4 536.25 L445.35 536.0 457.75 535.6 Q453.85 526.4 449.55 517.25 L443.45 504.85 435.7 458.45 426.35 457.6 422.85 451.8 Q420.0 445.85 420.15 439.5" fill="#000000" fill-rule="evenodd" stroke="none"/>
  </g>
</svg>
