<?xml version="1.0" encoding="UTF-8" standalone="no"?>
<svg xmlns:xlink="http://www.w3.org/1999/xlink" height="88.6px" width="142.45px" xmlns="http://www.w3.org/2000/svg">
  <g transform="matrix(1.0, 0.0, 0.0, 1.0, -328.65, -444.8)">
    <path d="M459.8 444.85 L460.4 446.85 456.4 448.05 457.9 455.7 461.85 454.6 462.1 456.85 459.55 457.65 459.75 459.9 456.1 460.9 457.0 468.75 460.45 467.65 460.65 469.65 458.4 470.45 458.55 473.15 455.0 473.75 455.6 479.5 458.85 478.9 458.95 480.5 456.35 481.3 453.9 481.95 453.1 471.75 454.8 471.4 453.5 459.45 456.4 458.65 454.1 447.0 459.75 444.9 459.8 444.85 M450.95 494.8 Q450.95 494.25 451.35 493.85 451.75 493.45 452.3 493.45 452.85 493.45 453.25 493.85 453.65 494.25 453.65 494.8 453.65 495.35 453.25 495.75 452.85 496.15 452.3 496.15 451.75 496.15 451.35 495.75 450.95 495.35 450.95 494.8 M451.35 487.8 Q451.75 487.4 452.3 487.4 452.85 487.4 453.25 487.8 453.65 488.2 453.65 488.75 453.65 489.3 453.25 489.7 452.85 490.1 452.3 490.1 451.75 490.1 451.35 489.7 450.95 489.3 450.95 488.75 450.95 488.2 451.35 487.8 M439.35 494.4 Q439.9 494.4 440.3 494.8 440.7 495.2 440.7 495.75 440.7 496.3 440.3 496.7 439.9 497.1 439.35 497.1 438.8 497.1 438.4 496.7 438.0 496.3 438.0 495.75 438.0 495.2 438.4 494.8 438.8 494.4 439.35 494.4 M437.1 488.8 Q437.5 488.4 438.05 488.4 438.6 488.4 439.0 488.8 439.4 489.2 439.4 489.75 439.4 490.3 439.0 490.7 438.6 491.1 438.05 491.1 437.5 491.1 437.1 490.7 436.7 490.3 436.7 489.75 436.7 489.2 437.1 488.8 M343.35 448.0 L339.35 446.8 339.95 444.8 Q342.75 446.05 345.65 446.95 L343.35 458.6 346.25 459.4 344.95 471.35 346.65 471.7 345.85 481.9 343.4 481.25 340.8 480.45 340.9 478.85 344.15 479.45 344.75 473.7 341.2 473.1 341.35 470.4 339.1 469.6 339.3 467.6 342.75 468.7 343.65 460.85 340.0 459.85 340.2 457.6 337.65 456.8 337.9 454.55 341.85 455.65 343.35 448.0 M348.4 487.75 Q348.8 488.15 348.8 488.7 348.8 489.25 348.4 489.65 348.0 490.05 347.45 490.05 346.9 490.05 346.5 489.65 346.1 489.25 346.1 488.7 346.1 488.15 346.5 487.75 346.9 487.35 347.45 487.35 348.0 487.35 348.4 487.75 M346.5 493.8 Q346.9 493.4 347.45 493.4 348.0 493.4 348.4 493.8 348.8 494.2 348.8 494.75 348.8 495.3 348.4 495.7 348.0 496.1 347.45 496.1 346.9 496.1 346.5 495.7 346.1 495.3 346.1 494.75 346.1 494.2 346.5 493.8 M362.65 488.75 Q363.05 489.15 363.05 489.7 363.05 490.25 362.65 490.65 362.25 491.05 361.7 491.05 361.15 491.05 360.75 490.65 360.35 490.25 360.35 489.7 360.35 489.15 360.75 488.75 361.15 488.35 361.7 488.35 362.25 488.35 362.65 488.75 M361.35 494.75 Q361.75 495.15 361.75 495.7 361.75 496.25 361.35 496.65 360.95 497.05 360.4 497.05 359.85 497.05 359.45 496.65 359.05 496.25 359.05 495.7 359.05 495.15 359.45 494.75 359.85 494.35 360.4 494.35 360.95 494.35 361.35 494.75 M360.65 500.8 Q360.65 501.35 360.25 501.75 359.85 502.15 359.3 502.15 358.75 502.15 358.35 501.75 357.95 501.35 357.95 500.8 357.95 500.25 358.35 499.85 358.75 499.45 359.3 499.45 L360.25 499.85 Q360.65 500.25 360.65 500.8 M358.6 505.0 Q359.15 505.0 359.55 505.4 359.95 505.8 359.95 506.35 359.95 506.9 359.55 507.3 359.15 507.7 358.6 507.7 358.05 507.7 357.65 507.3 357.25 506.9 357.25 506.35 357.25 505.8 357.65 505.4 358.05 505.0 358.6 505.0 M345.8 500.2 Q345.4 499.8 345.4 499.25 345.4 498.7 345.8 498.3 346.2 497.9 346.75 497.9 347.3 497.9 347.7 498.3 348.1 498.7 348.1 499.25 348.1 499.8 347.7 500.2 347.3 500.6 346.75 500.6 346.2 500.6 345.8 500.2 M344.8 504.05 Q344.8 503.5 345.2 503.1 345.6 502.7 346.15 502.7 346.7 502.7 347.1 503.1 347.5 503.5 347.5 504.05 347.5 504.6 347.1 505.0 346.7 505.4 346.15 505.4 345.6 505.4 345.2 505.0 344.8 504.6 344.8 504.05 M351.05 518.6 Q351.45 518.2 352.0 518.2 352.55 518.2 352.95 518.6 353.35 519.0 353.35 519.55 353.35 520.1 352.95 520.5 352.55 520.9 352.0 520.9 351.45 520.9 351.05 520.5 350.65 520.1 350.65 519.55 350.65 519.0 351.05 518.6 M356.65 511.8 Q357.05 512.2 357.05 512.75 357.05 513.3 356.65 513.7 356.25 514.1 355.7 514.1 355.15 514.1 354.75 513.7 354.35 513.3 354.35 512.75 354.35 512.2 354.75 511.8 355.15 511.4 355.7 511.4 356.25 511.4 356.65 511.8 M343.85 510.05 Q343.85 510.6 343.45 511.0 343.05 511.4 342.5 511.4 341.95 511.4 341.55 511.0 341.15 510.6 341.15 510.05 341.15 509.5 341.55 509.1 341.95 508.7 342.5 508.7 343.05 508.7 343.45 509.1 343.85 509.5 343.85 510.05 M337.75 515.2 Q338.3 515.2 338.7 515.6 339.1 516.0 339.1 516.55 339.1 517.1 338.7 517.5 338.3 517.9 337.75 517.9 337.2 517.9 336.8 517.5 336.4 517.1 336.4 516.55 336.4 516.0 336.8 515.6 337.2 515.2 337.75 515.2 M334.15 523.05 Q333.6 523.05 333.2 522.65 332.8 522.25 332.8 521.7 332.8 521.15 333.2 520.75 333.6 520.35 334.15 520.35 334.7 520.35 335.1 520.75 335.5 521.15 335.5 521.7 335.5 522.25 335.1 522.65 334.7 523.05 334.15 523.05 M343.65 531.05 Q344.05 530.65 344.6 530.65 345.15 530.65 345.55 531.05 345.95 531.45 345.95 532.0 345.95 532.55 345.55 532.95 345.15 533.35 344.6 533.35 344.05 533.35 343.65 532.95 343.25 532.55 343.25 532.0 343.25 531.45 343.65 531.05 M329.05 526.45 Q329.45 526.05 330.0 526.05 330.55 526.05 330.95 526.45 331.35 526.85 331.35 527.4 331.35 527.95 330.95 528.35 330.55 528.75 330.0 528.75 329.45 528.75 329.05 528.35 328.65 527.95 328.65 527.4 328.65 526.85 329.05 526.45 M349.95 525.75 Q349.95 526.3 349.55 526.7 349.15 527.1 348.6 527.1 348.05 527.1 347.65 526.7 347.25 526.3 347.25 525.75 347.25 525.2 347.65 524.8 348.05 524.4 348.6 524.4 349.15 524.4 349.55 524.8 349.95 525.2 349.95 525.75 M444.05 511.45 Q444.6 511.45 445.0 511.85 445.4 512.25 445.4 512.8 445.4 513.35 445.0 513.75 444.6 514.15 444.05 514.15 443.5 514.15 443.1 513.75 442.7 513.35 442.7 512.8 442.7 512.25 443.1 511.85 443.5 511.45 444.05 511.45 M440.2 507.35 Q439.8 506.95 439.8 506.4 439.8 505.85 440.2 505.45 440.6 505.05 441.15 505.05 441.7 505.05 442.1 505.45 442.5 505.85 442.5 506.4 442.5 506.95 442.1 507.35 441.7 507.75 441.15 507.75 440.6 507.75 440.2 507.35 M440.45 499.5 Q441.0 499.5 441.4 499.9 441.8 500.3 441.8 500.85 441.8 501.4 441.4 501.8 441.0 502.2 440.45 502.2 439.9 502.2 439.5 501.8 439.1 501.4 439.1 500.85 439.1 500.3 439.5 499.9 439.9 499.5 440.45 499.5 M468.4 527.45 Q468.4 526.9 468.8 526.5 469.2 526.1 469.75 526.1 470.3 526.1 470.7 526.5 471.1 526.9 471.1 527.45 471.1 528.0 470.7 528.4 470.3 528.8 469.75 528.8 469.2 528.8 468.8 528.4 468.4 528.0 468.4 527.45 M451.15 524.45 Q451.7 524.45 452.1 524.85 452.5 525.25 452.5 525.8 452.5 526.35 452.1 526.75 451.7 527.15 451.15 527.15 450.6 527.15 450.2 526.75 449.8 526.35 449.8 525.8 449.8 525.25 450.2 524.85 450.6 524.45 451.15 524.45 M456.1 531.1 Q456.5 531.5 456.5 532.05 456.5 532.6 456.1 533.0 455.7 533.4 455.15 533.4 454.6 533.4 454.2 533.0 453.8 532.6 453.8 532.05 453.8 531.5 454.2 531.1 454.6 530.7 455.15 530.7 455.7 530.7 456.1 531.1 M465.6 523.1 Q465.05 523.1 464.65 522.7 464.25 522.3 464.25 521.75 464.25 521.2 464.65 520.8 465.05 520.4 465.6 520.4 466.15 520.4 466.55 520.8 466.95 521.2 466.95 521.75 466.95 522.3 466.55 522.7 466.15 523.1 465.6 523.1 M463.35 516.6 Q463.35 517.15 462.95 517.55 462.55 517.95 462.0 517.95 461.45 517.95 461.05 517.55 460.65 517.15 460.65 516.6 460.65 516.05 461.05 515.65 461.45 515.25 462.0 515.25 462.55 515.25 462.95 515.65 463.35 516.05 463.35 516.6 M458.6 510.1 Q458.6 510.65 458.2 511.05 457.8 511.45 457.25 511.45 456.7 511.45 456.3 511.05 455.9 510.65 455.9 510.1 455.9 509.55 456.3 509.15 456.7 508.75 457.25 508.75 457.8 508.75 458.2 509.15 458.6 509.55 458.6 510.1 M446.8 518.65 Q447.2 518.25 447.75 518.25 448.3 518.25 448.7 518.65 449.1 519.05 449.1 519.6 449.1 520.15 448.7 520.55 448.3 520.95 447.75 520.95 447.2 520.95 446.8 520.55 446.4 520.15 446.4 519.6 446.4 519.05 446.8 518.65 M454.55 505.05 Q454.15 505.45 453.6 505.45 453.05 505.45 452.65 505.05 452.25 504.65 452.25 504.1 452.25 503.55 452.65 503.15 453.05 502.75 453.6 502.75 454.15 502.75 454.55 503.15 454.95 503.55 454.95 504.1 454.95 504.65 454.55 505.05 M452.05 500.25 Q451.65 499.85 451.65 499.3 451.65 498.75 452.05 498.35 452.45 497.95 453.0 497.95 453.55 497.95 453.95 498.35 454.35 498.75 454.35 499.3 454.35 499.85 453.95 500.25 453.55 500.65 453.0 500.65 452.45 500.65 452.05 500.25" fill="#000000" fill-rule="evenodd" stroke="none"/>
  </g>
</svg>
