<?xml version="1.0" encoding="UTF-8" standalone="no"?>
<svg xmlns:xlink="http://www.w3.org/1999/xlink" height="63.6px" width="28.45px" xmlns="http://www.w3.org/2000/svg">
  <g transform="matrix(1.0, 0.0, 0.0, 1.0, -345.05, -394.6)">
    <path d="M347.95 395.0 L348.0 394.6 348.0 395.0 Q349.1 426.7 352.9 440.85 L352.1 440.05 Q348.3 435.8 345.05 430.85 L347.95 395.0 M360.55 395.0 L360.6 394.8 360.6 395.0 Q359.2 426.8 362.2 441.7 358.25 449.2 357.5 458.2 L354.65 457.8 Q353.0 449.7 352.9 440.85 353.1 425.9 360.55 395.0 M362.2 441.7 Q368.85 426.25 373.25 398.6 374.05 423.85 372.4 436.95 367.55 439.75 362.2 441.7" fill="#000000" fill-rule="evenodd" stroke="none"/>
  </g>
</svg>
