<?xml version="1.0" encoding="UTF-8" standalone="no"?>
<svg xmlns:xlink="http://www.w3.org/1999/xlink" height="33.65px" width="31.45px" xmlns="http://www.w3.org/2000/svg">
  <g transform="matrix(1.0, 0.0, 0.0, 1.0, -341.9, -456.3)">
    <path d="M349.75 486.8 L350.95 487.0 351.3 487.05 354.35 487.35 354.95 487.4 357.8 487.4 358.6 487.35 360.8 487.2 361.75 487.1 363.65 486.8 363.75 486.95 Q364.8 488.2 363.4 489.25 L362.85 489.55 361.4 489.75 360.45 489.8 358.35 489.95 357.6 489.95 354.8 489.95 354.2 489.9 351.2 489.65 350.85 489.6 349.75 489.45 348.45 489.25 348.25 489.25 345.95 488.75 345.6 488.35 345.55 488.3 345.35 486.8 345.4 486.7 345.95 485.95 348.15 486.5 348.35 486.55 349.75 486.8 M347.05 458.1 L349.75 458.95 351.95 459.5 356.05 460.25 360.2 460.7 364.2 460.85 368.35 460.7 372.25 460.25 373.2 460.1 Q373.7 461.85 372.25 462.55 L371.75 462.75 371.35 462.85 367.85 463.4 363.85 463.75 359.9 463.8 355.85 463.45 351.85 462.7 349.75 462.15 347.15 461.35 342.85 459.5 342.05 458.45 341.9 457.25 342.15 456.6 342.35 456.3 343.05 456.6 347.05 458.1" fill="#000000" fill-rule="evenodd" stroke="none"/>
  </g>
</svg>
