<?xml version="1.0" encoding="UTF-8" standalone="no"?>
<svg xmlns:xlink="http://www.w3.org/1999/xlink" height="127.35px" width="169.4px" xmlns="http://www.w3.org/2000/svg">
  <g transform="matrix(1.0, 0.0, 0.0, 1.0, -315.15, -433.1)">
    <path d="M316.85 552.55 Q313.8 544.1 318.35 536.4 L344.45 503.45 344.45 498.7 347.7 495.55 345.0 472.4 339.1 471.0 Q335.8 469.35 335.65 466.7 L335.65 466.2 Q335.6 453.55 337.55 437.65 339.4 434.05 344.35 433.6 343.75 435.25 343.3 437.0 357.6 444.9 379.6 439.55 L379.35 436.55 Q383.2 439.0 381.85 443.3 L374.8 467.55 Q373.75 470.85 371.05 471.95 L366.3 472.9 Q364.3 478.4 363.0 484.1 362.3 487.0 361.85 489.95 L361.1 495.55 362.85 499.85 362.0 503.3 362.95 506.5 362.95 506.8 Q363.85 513.1 361.15 517.85 L359.85 520.1 Q358.3 522.95 357.1 526.0 355.2 530.9 354.3 536.25 352.95 545.6 345.8 553.55 L338.25 559.95 334.35 559.95 323.75 559.95 321.3 559.95 316.85 552.55 M454.7 472.4 L460.6 471.0 Q463.9 469.35 464.05 466.7 L464.05 466.2 Q464.1 453.55 462.15 437.65 460.3 434.05 455.35 433.6 L456.4 437.0 Q442.1 444.9 420.1 439.55 L420.35 436.55 Q416.5 439.0 417.85 443.3 L424.9 467.55 Q425.95 470.85 428.65 471.95 L433.4 472.9 M454.7 472.4 L452.0 495.55 455.25 498.7 455.25 503.45 481.35 536.4 Q485.9 544.1 482.85 552.55 L478.4 559.95 475.95 559.95 465.35 559.95 461.45 559.95 453.9 553.55 Q446.75 545.6 445.4 536.25 444.5 530.9 442.6 526.0 L439.85 520.1 438.55 517.85 Q435.85 513.1 436.75 506.8 L436.75 506.5 437.7 503.3 436.85 499.85 438.6 495.55 437.85 489.95 436.75 484.1 Q435.4 478.4 433.4 472.9" fill="none" stroke="#000000" stroke-linecap="round" stroke-linejoin="round" stroke-width="1.0"/>
    <path d="M433.4 472.9 L440.65 473.6 444.3 473.6 447.9 473.4 454.7 472.4 M345.0 472.4 L351.8 473.4 355.4 473.6 359.05 473.6 366.3 472.9 M351.8 473.4 L351.05 495.1 348.8 505.0 327.15 536.75 Q320.6 546.35 323.75 559.95 M334.35 559.95 Q331.45 550.15 335.95 541.7 L355.75 505.4 359.05 473.6 M475.95 559.95 Q479.1 546.35 472.55 536.75 L450.9 505.0 448.65 495.1 447.9 473.4 M465.35 559.95 Q468.25 550.15 463.75 541.7 L443.95 505.4 440.65 473.6" fill="none" stroke="#000000" stroke-linecap="round" stroke-linejoin="round" stroke-opacity="0.5019608" stroke-width="1.0"/>
  </g>
</svg>
