<?xml version="1.0" encoding="UTF-8" standalone="no"?>
<svg xmlns:xlink="http://www.w3.org/1999/xlink" height="114.0px" width="167.35px" xmlns="http://www.w3.org/2000/svg">
  <g transform="matrix(1.0, 0.0, 0.0, 1.0, -316.2, -436.65)">
    <path d="M329.75 533.4 L329.55 533.35 321.6 532.4 Q316.9 535.85 316.7 540.25 322.35 540.15 327.6 541.15 340.2 543.45 348.5 550.15 351.55 547.85 352.2 543.95 346.5 538.65 338.95 535.8 M329.75 533.4 L334.15 526.95 Q330.5 526.5 326.1 526.75 327.15 523.2 330.7 520.9 334.8 520.65 338.2 520.9 L342.0 515.3 335.6 514.7 Q336.75 510.45 340.65 508.4 L346.65 508.2 346.8 508.2 348.75 505.3 349.3 502.85 344.5 501.8 344.5 498.7 347.75 495.55 348.85 495.7 350.8 496.35 350.9 496.05 351.15 491.0 348.7 490.7 347.15 490.4 Q345.65 486.9 346.35 483.95 L348.55 484.7 351.5 485.3 351.8 479.25 348.4 478.55 Q346.5 478.05 345.6 477.55 343.8 473.75 344.85 470.7 L345.05 470.7 348.25 471.65 352.15 472.5 Q349.9 469.05 348.35 465.0 L348.1 464.95 344.0 463.65 Q341.75 457.8 342.85 454.0 L345.8 455.45 Q345.25 451.7 345.1 447.6 L342.25 446.65 Q340.8 439.25 343.2 437.15 L345.35 438.1 347.45 438.9 351.9 440.3 Q358.75 442.1 365.55 441.9 L373.95 440.85 379.65 439.3 Q381.05 445.05 377.5 450.4 L371.95 450.95 368.35 458.55 373.3 457.75 Q372.8 461.65 369.2 466.05 L363.8 466.5 359.75 472.95 366.6 472.1 Q367.5 475.5 364.2 479.1 L357.8 479.75 Q357.35 482.3 357.0 485.6 L362.85 484.75 Q363.45 487.5 361.75 490.45 L356.55 491.1 356.2 496.95 Q358.75 496.85 361.15 495.55 L362.9 499.85 362.05 503.3 362.7 505.5 355.9 504.2 355.9 505.55 353.75 509.4 Q358.5 510.9 362.7 514.35 362.45 516.5 361.5 518.35 L358.85 522.2 Q354.5 518.8 349.45 517.1 L346.3 522.7 Q351.9 524.8 355.9 529.4 356.2 532.2 355.35 534.7 L354.1 537.7 Q349.2 531.95 342.65 529.2 L338.95 535.8 M452.3 438.9 L454.4 438.1 456.55 437.15 Q458.95 439.25 457.5 446.65 L454.65 447.6 Q454.5 451.7 453.95 455.45 L456.9 454.0 Q458.0 457.8 455.75 463.65 L451.65 464.95 451.4 465.0 Q449.85 469.05 447.6 472.5 L451.5 471.65 454.7 470.7 454.9 470.7 Q455.95 473.75 454.15 477.55 453.25 478.05 451.35 478.55 L447.95 479.25 448.25 485.3 451.2 484.7 453.4 483.95 Q454.1 486.9 452.6 490.4 L451.05 490.7 448.6 491.0 448.85 496.05 448.95 496.35 450.9 495.7 452.0 495.55 455.25 498.7 455.25 501.8 450.45 502.85 451.0 505.3 452.95 508.2 453.1 508.2 459.1 508.4 Q463.0 510.45 464.15 514.7 L457.75 515.3 461.55 520.9 Q464.95 520.65 469.05 520.9 472.6 523.2 473.65 526.75 469.25 526.5 465.6 526.95 L470.0 533.4 470.2 533.35 478.15 532.4 Q482.85 535.85 483.05 540.25 477.4 540.15 472.15 541.15 459.55 543.45 451.25 550.15 448.2 547.85 447.55 543.95 453.25 538.65 460.8 535.8 L457.1 529.2 Q450.55 531.95 445.65 537.7 L444.4 534.7 Q443.55 532.2 443.85 529.4 447.85 524.8 453.45 522.7 L450.3 517.1 Q445.25 518.8 440.9 522.2 439.25 520.2 438.25 518.35 437.3 516.5 437.05 514.35 441.25 510.9 446.0 509.4 L443.85 505.55 443.85 504.2 437.05 505.5 Q437.2 504.65 437.7 503.3 L436.85 499.85 438.6 495.55 Q441.0 496.85 443.55 496.95 L443.2 491.1 438.0 490.45 Q436.3 487.5 436.9 484.75 L442.75 485.6 441.95 479.75 435.55 479.1 Q432.25 475.5 433.15 472.1 L440.0 472.95 435.95 466.5 430.55 466.05 Q426.95 461.65 426.45 457.75 L431.4 458.55 Q429.15 454.3 427.8 450.95 L422.25 450.4 Q418.7 445.05 420.1 439.3 L425.8 440.85 Q429.95 441.75 434.2 441.9 441.0 442.1 447.85 440.3 L452.3 438.9 M439.05 458.7 Q437.2 454.75 436.0 450.9 M439.05 458.7 L446.4 457.65 Q447.35 453.5 447.7 449.4 441.95 450.55 436.0 450.9 M353.35 457.65 L360.7 458.7 Q362.55 454.75 363.75 450.9 357.8 450.55 352.05 449.4 352.4 453.5 353.35 457.65" fill="none" stroke="#000000" stroke-linecap="round" stroke-linejoin="round" stroke-width="1.0"/>
    <path d="M338.95 535.8 Q330.0 543.0 330.2 537.25 330.3 534.5 329.75 533.4 M433.4 449.3 Q433.4 449.95 432.9 450.4 432.45 450.9 431.8 450.9 431.15 450.9 430.65 450.4 430.2 449.95 430.2 449.3 430.2 448.65 430.65 448.15 431.15 447.7 431.8 447.7 432.45 447.7 432.9 448.15 433.4 448.65 433.4 449.3 M437.1 460.4 Q437.75 460.4 438.2 460.85 L438.7 461.7 438.7 462.0 Q438.7 462.65 438.2 463.1 437.75 463.6 437.1 463.6 436.45 463.6 435.95 463.1 L435.9 463.05 Q435.5 462.6 435.5 462.0 435.5 461.35 435.95 460.85 436.45 460.4 437.1 460.4 M446.4 457.65 Q445.4 461.95 443.75 466.3 L443.6 466.7 443.35 466.35 Q440.85 462.5 439.05 458.7 M436.0 450.9 Q430.8 438.65 427.8 450.95 M435.95 466.5 L431.4 458.55 M440.0 472.95 L440.4 473.6 Q441.3 475.75 441.95 479.75 M443.25 474.35 Q443.75 473.9 444.4 473.9 445.05 473.9 445.5 474.35 446.0 474.85 446.0 475.5 446.0 476.15 445.5 476.6 445.05 477.1 444.4 477.1 443.75 477.1 443.25 476.6 442.8 476.15 442.8 475.5 442.8 474.85 443.25 474.35 M442.75 485.6 L443.2 491.1 M445.0 487.25 Q445.5 486.8 446.15 486.8 446.8 486.8 447.25 487.25 447.75 487.75 447.75 488.4 447.75 489.05 447.25 489.5 446.8 490.0 446.15 490.0 445.5 490.0 445.0 489.5 444.55 489.05 444.55 488.4 444.55 487.75 445.0 487.25 M452.1 448.35 L452.0 448.4 451.35 448.55 450.6 448.35 450.2 448.05 Q449.75 447.6 449.75 446.95 449.75 446.3 450.2 445.8 450.7 445.35 451.35 445.35 L452.05 445.5 452.2 445.6 452.45 445.8 Q452.95 446.3 452.95 446.95 452.95 447.6 452.45 448.05 L452.1 448.35 M451.15 460.65 L451.2 461.0 Q451.2 461.65 450.7 462.1 450.25 462.6 449.6 462.6 448.95 462.6 448.45 462.1 448.0 461.65 448.0 461.0 L448.05 460.65 448.45 459.85 Q448.95 459.4 449.6 459.4 450.25 459.4 450.7 459.85 L451.15 460.65 M453.95 455.45 Q453.15 460.15 451.7 464.3 L451.4 465.0 M447.6 472.5 L447.55 472.55 447.95 479.25 M448.25 485.3 L448.6 491.0 M454.65 447.6 Q454.65 445.15 452.3 442.85 447.1 443.6 447.7 449.4 M350.0 446.95 Q350.0 446.3 349.55 445.8 349.05 445.35 348.4 445.35 L347.7 445.5 347.55 445.6 347.3 445.8 Q346.8 446.3 346.8 446.95 346.8 447.6 347.3 448.05 L347.65 448.35 347.75 448.4 348.4 448.55 349.15 448.35 349.55 448.05 Q350.0 447.6 350.0 446.95 M353.35 457.65 Q354.35 461.95 356.0 466.3 L356.15 466.7 356.4 466.35 Q358.9 462.5 360.7 458.7 M351.3 459.85 Q350.8 459.4 350.15 459.4 349.5 459.4 349.05 459.85 348.7 460.2 348.6 460.65 L348.55 461.0 Q348.55 461.65 349.05 462.1 349.5 462.6 350.15 462.6 350.8 462.6 351.3 462.1 L351.75 461.0 351.7 460.65 351.3 459.85 M345.8 455.45 Q346.6 460.15 348.05 464.3 L348.35 465.0 M362.65 460.4 Q362.0 460.4 361.55 460.85 361.2 461.2 361.05 461.7 L361.05 462.0 Q361.05 462.65 361.55 463.1 362.0 463.6 362.65 463.6 363.3 463.6 363.8 463.1 L363.85 463.05 Q364.25 462.6 364.25 462.0 364.25 461.35 363.8 460.85 363.3 460.4 362.65 460.4 M359.75 472.95 L359.35 473.6 Q358.45 475.75 357.8 479.75 M356.5 474.35 Q356.0 473.9 355.35 473.9 354.7 473.9 354.25 474.35 353.75 474.85 353.75 475.5 353.75 476.15 354.25 476.6 354.7 477.1 355.35 477.1 356.0 477.1 356.5 476.6 356.95 476.15 356.95 475.5 356.95 474.85 356.5 474.35 M352.15 472.5 L352.2 472.55 351.8 479.25 M352.5 487.25 Q352.0 487.75 352.0 488.4 352.0 489.05 352.5 489.5 352.95 490.0 353.6 490.0 354.25 490.0 354.75 489.5 355.2 489.05 355.2 488.4 355.2 487.75 354.75 487.25 354.25 486.8 353.6 486.8 352.95 486.8 352.5 487.25 M351.5 485.3 L351.15 491.0 M357.0 485.6 L356.55 491.1 M369.55 449.3 Q369.55 448.65 369.1 448.15 368.6 447.7 367.95 447.7 367.3 447.7 366.85 448.15 366.35 448.65 366.35 449.3 366.35 449.95 366.85 450.4 367.3 450.9 367.95 450.9 368.6 450.9 369.1 450.4 369.55 449.95 369.55 449.3 M363.8 466.5 L368.35 458.55 M363.75 450.9 Q368.95 438.65 371.95 450.95 M345.1 447.6 Q345.1 445.15 347.45 442.85 352.65 443.6 352.05 449.4 M356.2 496.95 L355.9 504.2 M351.0 500.5 Q351.0 501.15 351.5 501.6 351.95 502.1 352.6 502.1 353.25 502.1 353.75 501.6 354.2 501.15 354.2 500.5 354.2 499.85 353.75 499.35 353.25 498.9 352.6 498.9 351.95 498.9 351.5 499.35 351.0 499.85 351.0 500.5 M350.8 496.35 L349.3 502.85 M349.4 511.45 Q348.9 511.0 348.25 511.0 347.6 511.0 347.15 511.45 346.65 511.95 346.65 512.6 346.65 513.25 347.15 513.7 347.6 514.2 348.25 514.2 348.9 514.2 349.4 513.7 349.85 513.25 349.85 512.6 349.85 511.95 349.4 511.45 M353.75 509.4 L349.45 517.1 M342.2 523.15 Q341.7 522.7 341.05 522.7 340.4 522.7 339.95 523.15 339.45 523.65 339.45 524.3 339.45 524.95 339.95 525.4 340.4 525.9 341.05 525.9 341.7 525.9 342.2 525.4 342.65 524.95 342.65 524.3 342.65 523.65 342.2 523.15 M338.2 520.9 L334.15 526.95 M331.7 536.0 Q331.7 536.65 332.2 537.1 332.65 537.6 333.3 537.6 333.95 537.6 334.45 537.1 334.9 536.65 334.9 536.0 334.9 535.35 334.45 534.85 333.95 534.4 333.3 534.4 332.65 534.4 332.2 534.85 331.7 535.35 331.7 536.0 M342.65 529.2 L346.3 522.7 M346.8 508.2 L342.0 515.3 M447.15 498.9 Q447.8 498.9 448.25 499.35 448.75 499.85 448.75 500.5 448.75 501.15 448.25 501.6 447.8 502.1 447.15 502.1 446.5 502.1 446.0 501.6 445.55 501.15 445.55 500.5 445.55 499.85 446.0 499.35 446.5 498.9 447.15 498.9 M448.95 496.35 L450.45 502.85 M453.1 512.6 Q453.1 513.25 452.6 513.7 452.15 514.2 451.5 514.2 450.85 514.2 450.35 513.7 449.9 513.25 449.9 512.6 449.9 511.95 450.35 511.45 450.85 511.0 451.5 511.0 452.15 511.0 452.6 511.45 453.1 511.95 453.1 512.6 M450.3 517.1 L446.0 509.4 M452.95 508.2 L457.75 515.3 M458.7 525.9 Q458.05 525.9 457.55 525.4 457.1 524.95 457.1 524.3 457.1 523.65 457.55 523.15 458.05 522.7 458.7 522.7 459.35 522.7 459.8 523.15 460.3 523.65 460.3 524.3 460.3 524.95 459.8 525.4 459.35 525.9 458.7 525.9 M461.55 520.9 L465.6 526.95 M464.85 536.0 Q464.85 535.35 465.3 534.85 465.8 534.4 466.45 534.4 467.1 534.4 467.55 534.85 468.05 535.35 468.05 536.0 468.05 536.65 467.55 537.1 467.1 537.6 466.45 537.6 465.8 537.6 465.3 537.1 464.85 536.65 464.85 536.0 M457.1 529.2 L453.45 522.7 M470.0 533.4 Q469.45 534.5 469.55 537.25 469.75 543.0 460.8 535.8 M443.85 504.2 L443.55 496.95" fill="none" stroke="#000000" stroke-linecap="round" stroke-linejoin="round" stroke-opacity="0.5019608" stroke-width="1.0"/>
  </g>
</svg>
