<?xml version="1.0" encoding="UTF-8" standalone="no"?>
<svg xmlns:xlink="http://www.w3.org/1999/xlink" height="161.7px" width="67.95px" xmlns="http://www.w3.org/2000/svg">
  <g transform="matrix(1.0, 0.0, 0.0, 1.0, -315.15, -398.75)">
    <path d="M321.0 533.1 L318.35 536.4 Q314.55 542.8 316.05 549.75 L316.85 552.55 321.3 559.95 338.25 559.95 344.15 554.95 345.8 553.55 Q349.95 548.95 352.1 543.9 L352.15 543.85 M321.0 533.1 L330.65 520.95 339.0 510.35 338.0 503.1 Q342.6 498.95 344.35 494.05 L345.2 492.95 342.05 477.6 344.65 469.7 342.65 452.8 Q342.05 448.8 342.15 445.05 340.6 443.95 338.85 442.95 340.95 433.7 346.65 426.8 345.45 423.7 347.15 420.6 L346.7 419.1 347.6 417.1 Q346.45 412.15 348.3 410.4 L350.5 410.55 355.6 399.25 366.8 399.25 369.6 412.5 376.95 412.4 377.05 411.9 M377.65 412.35 Q379.1 413.6 378.45 415.1 L378.45 425.05 Q379.2 427.15 377.45 428.45 382.15 437.1 382.6 447.1 L378.5 447.5 376.85 451.85 Q370.2 462.0 366.3 472.85 367.55 477.0 370.05 480.1 L362.2 495.65 Q364.85 500.15 367.95 504.05 L367.95 509.65 362.7 513.95 Q362.2 516.0 361.15 517.85 L359.8 520.1 Q357.4 524.6 355.9 529.45 354.9 532.75 354.3 536.25 353.75 540.15 352.15 543.85 M339.0 510.35 L340.75 508.1" fill="none" stroke="#000000" stroke-linecap="round" stroke-linejoin="round" stroke-width="1.0"/>
    <path d="M316.05 549.75 Q330.15 545.0 344.15 554.95 M352.15 543.85 Q337.9 532.95 321.0 533.1 M377.05 411.9 L377.65 412.35 M376.95 412.4 L377.65 412.35 M347.15 420.6 L349.85 429.45 351.5 434.85 363.45 437.1 367.05 430.3 371.55 421.8 369.6 412.5 M377.45 428.45 L367.05 430.3 M350.5 410.55 L347.6 417.1 M349.85 429.45 L346.65 426.8 M345.2 492.95 L347.15 490.95 Q354.05 484.9 362.2 495.65 M344.65 469.7 Q347.3 460.4 348.2 450.8 345.65 447.55 342.15 445.05 M348.2 450.8 Q350.7 454.0 352.25 457.9 L360.3 458.85 Q362.7 454.95 366.1 452.4 371.2 448.55 378.5 447.5 M366.1 452.4 Q363.85 464.7 366.3 472.85 M340.75 508.1 Q353.55 507.8 362.7 513.95 M355.9 529.45 Q346.1 520.1 330.65 520.95" fill="none" stroke="#000000" stroke-linecap="round" stroke-linejoin="round" stroke-opacity="0.5019608" stroke-width="1.0"/>
  </g>
</svg>
