<?xml version="1.0" encoding="UTF-8" standalone="no"?>
<svg xmlns:xlink="http://www.w3.org/1999/xlink" height="94.05px" width="50.3px" xmlns="http://www.w3.org/2000/svg">
  <g transform="matrix(1.0, 0.0, 0.0, 1.0, -304.9, -257.1)">
    <path d="M354.45 269.8 Q342.55 262.9 327.0 259.15 L327.2 257.1 Q343.3 261.0 355.2 267.6 L354.45 269.8 M340.75 295.0 Q331.6 291.25 320.1 288.5 L320.8 286.15 Q332.55 289.3 342.15 293.1 L340.75 295.0 M349.7 280.65 Q338.5 275.7 324.35 272.75 L324.85 270.75 Q339.4 273.25 350.55 279.05 L349.7 280.65 M333.75 303.75 Q325.0 304.25 316.25 302.1 L316.9 299.8 Q326.15 302.05 335.4 301.85 L333.75 303.75 M337.2 322.85 Q324.6 322.85 312.4 319.85 L312.1 317.6 Q324.45 321.3 337.9 320.8 L337.2 322.85 M332.65 335.7 L314.65 335.1 314.25 332.6 333.55 333.2 332.65 335.7 M330.7 350.35 L314.6 350.85 313.9 348.7 317.4 348.95 330.8 348.25 330.7 350.35 M322.2 259.1 Q324.2 262.95 322.6 267.8 320.8 268.45 321.1 266.3 L320.85 266.1 316.9 263.4 320.75 261.1 Q320.65 258.75 322.2 259.1 M317.15 288.85 Q318.1 293.1 315.3 297.4 313.45 297.5 314.3 295.55 L314.25 295.55 314.05 295.3 310.95 291.65 315.25 290.45 Q315.7 288.45 316.8 288.75 L317.15 288.85 M304.9 326.15 L308.45 323.45 Q308.1 321.1 309.65 321.25 312.05 324.95 311.05 329.95 309.3 330.7 309.4 328.6 309.25 328.6 309.05 328.4 L304.9 326.15" fill="#000000" fill-rule="evenodd" stroke="none"/>
  </g>
</svg>
