<?xml version="1.0" encoding="UTF-8" standalone="no"?>
<svg xmlns:xlink="http://www.w3.org/1999/xlink" height="42.05px" width="186.3px" xmlns="http://www.w3.org/2000/svg">
  <g transform="matrix(1.0, 0.0, 0.0, 1.0, -306.65, -323.25)">
    <path d="M335.6 333.7 L334.6 334.6 333.8 337.4 333.05 340.2 332.55 342.9 Q332.3 344.65 332.3 346.35 L332.35 348.5 332.4 350.6 332.45 352.75 332.5 354.85 333.2 355.3 Q334.25 356.15 334.4 357.85 L332.25 360.35 330.0 362.35 327.75 363.85 325.4 364.55 322.75 364.8 320.2 364.35 Q317.75 363.85 315.65 362.45 L315.4 361.8 Q314.95 360.5 314.95 359.1 L314.35 356.15 313.7 353.2 312.95 350.2 312.25 347.2 311.45 344.25 310.65 341.15 309.8 338.1 308.5 334.9 Q307.0 334.0 307.15 332.3 L307.3 331.2 Q309.15 328.55 311.6 326.9 312.6 326.1 313.7 325.5 314.65 324.9 315.7 324.55 316.8 324.0 318.0 323.75 L320.7 323.9 323.55 324.55 325.85 325.15 328.4 326.0 Q329.2 326.3 330.05 326.7 330.85 327.0 331.7 327.45 L334.05 328.75 336.35 329.95 Q336.5 331.95 335.6 333.7 M491.1 334.9 Q492.6 334.0 492.45 332.3 L492.3 331.2 Q490.45 328.55 488.0 326.9 L485.9 325.5 Q484.95 324.9 483.9 324.55 482.8 324.0 481.6 323.75 L478.9 323.9 476.05 324.55 473.75 325.15 471.2 326.0 Q470.4 326.3 469.55 326.7 468.75 327.0 467.9 327.45 466.75 328.0 465.55 328.75 L463.25 329.95 Q463.1 331.95 464.0 333.7 L465.0 334.6 M491.1 334.9 L489.8 338.1 488.95 341.15 488.15 344.25 487.35 347.2 486.65 350.2 485.9 353.2 485.25 356.15 484.65 359.1 484.2 361.8 483.95 362.45 Q481.85 363.85 479.4 364.35 L476.85 364.8 474.2 364.55 Q473.0 364.4 471.85 363.85 L469.6 362.35 467.35 360.35 465.2 357.85 Q465.35 356.15 466.4 355.3 L467.1 354.85 467.15 352.75 467.2 350.6 467.25 348.5 467.3 346.35 467.05 342.9 466.55 340.2 465.8 337.4 465.0 334.6" fill="none" stroke="#000000" stroke-linecap="round" stroke-linejoin="round" stroke-opacity="0.8" stroke-width="1.0"/>
    <path d="M326.1 330.65 L325.0 330.3 324.95 330.3 324.85 332.8 324.8 334.75 324.75 336.75 324.8 338.65 324.8 340.6 324.9 342.5 324.9 344.35 325.0 346.1 325.15 347.95 325.25 349.8 325.6 353.35 325.95 356.8 326.45 360.1 328.65 358.8 Q329.55 357.9 330.55 357.1 L330.2 353.75 330.0 350.85 329.9 347.9 329.85 344.95 329.9 341.95 329.95 338.9 330.1 335.85 330.35 332.35 Q329.55 331.95 328.75 331.7 L326.1 330.65 M334.6 334.6 L330.35 332.35 M332.5 354.85 L330.65 356.9 330.55 357.1 M465.0 334.6 L469.25 332.35 Q470.05 331.95 470.85 331.7 L473.5 330.65 474.6 330.3 474.65 330.3 477.4 329.55 479.4 329.3 481.4 329.4 482.4 329.55 483.8 330.0 485.2 330.7 486.65 331.65 488.2 332.55 491.1 334.9 M482.4 329.55 L481.95 331.5 481.55 333.5 481.15 335.45 480.85 337.35 480.55 339.35 480.25 341.25 479.95 343.25 479.7 345.15 479.5 347.1 479.25 349.1 479.1 351.05 478.95 352.95 478.8 354.95 478.7 356.85 478.65 358.85 478.6 360.7 481.45 360.15 482.05 359.9 482.85 356.0 483.4 352.7 484.0 349.35 484.7 345.95 485.5 342.7 486.3 339.35 487.2 336.0 487.7 334.3 488.2 332.55 M469.25 332.35 L469.5 335.85 469.65 338.9 469.7 341.95 469.75 344.95 469.7 347.9 469.6 350.85 469.4 353.75 469.05 357.1 470.95 358.8 Q472.05 359.65 473.15 360.1 L473.65 356.8 474.0 353.35 474.35 349.8 474.45 347.95 474.6 346.1 474.7 344.35 474.7 342.5 474.8 340.6 474.8 338.65 474.85 336.75 474.8 334.75 474.75 332.8 474.65 330.3 M467.1 354.85 L468.95 356.9 469.05 357.1 M478.6 360.7 L475.75 361.0 Q474.35 361.0 473.15 360.1 M484.65 359.1 L483.5 359.55 482.4 359.9 482.05 359.9 M315.8 330.0 L314.4 330.7 312.95 331.65 Q312.15 332.05 311.4 332.55 L311.9 334.3 312.4 336.0 313.3 339.35 314.1 342.7 314.9 345.95 315.6 349.35 316.2 352.7 316.75 356.0 317.55 359.9 318.15 360.15 321.0 360.7 320.95 358.85 320.9 356.85 320.8 354.95 320.65 352.95 320.5 351.05 320.35 349.1 320.1 347.1 319.9 345.15 319.65 343.25 319.35 341.25 319.05 339.35 318.75 337.35 318.45 335.45 318.05 333.5 317.65 331.5 317.2 329.55 315.8 330.0 M317.2 329.55 L318.2 329.4 320.2 329.3 322.2 329.55 324.95 330.3 M308.5 334.9 L311.4 332.55 M326.45 360.1 Q325.25 361.0 323.85 361.0 L321.0 360.7 M314.95 359.1 L316.1 359.55 317.2 359.9 317.55 359.9" fill="none" stroke="#000000" stroke-linecap="round" stroke-linejoin="round" stroke-opacity="0.5019608" stroke-width="1.0"/>
  </g>
</svg>
