<?xml version="1.0" encoding="UTF-8" standalone="no"?>
<svg xmlns:xlink="http://www.w3.org/1999/xlink" height="90.2px" width="39.95px" xmlns="http://www.w3.org/2000/svg">
  <g transform="matrix(1.0, 0.0, 0.0, 1.0, -305.2, -273.4)">
    <path d="M325.15 281.55 L325.6 279.6 Q325.55 277.35 323.35 275.75 321.9 274.65 319.45 273.9 317.75 275.6 318.35 277.4 M312.55 299.35 Q310.7 301.8 310.25 305.1 M317.9 305.7 Q320.7 298.5 323.0 290.2 L323.1 289.8 M325.15 281.55 Q336.05 282.0 344.65 289.85 343.75 294.5 340.05 297.05 333.7 291.8 323.1 289.8 M318.05 362.4 L319.25 362.35 320.15 362.3 Q328.0 361.6 330.8 357.6 333.6 353.55 330.7 349.9 329.0 351.9 322.75 352.85 L322.8 350.7 Q323.45 349.4 323.75 347.45 322.65 329.25 319.6 311.7 L319.25 309.6 Q318.65 307.25 317.9 305.75 L317.9 305.7 M318.05 362.4 L316.15 363.1 Q315.35 362.85 314.65 362.35 311.45 360.25 310.3 353.5 L309.35 345.05 Q309.9 343.15 308.9 341.25 L308.65 338.75 Q309.05 336.85 308.3 335.65 L307.75 330.85 Q308.25 329.35 307.4 327.85 L306.95 323.85 Q307.4 321.95 306.55 320.5 L306.1 316.35 Q306.5 314.55 305.7 312.95 305.85 308.35 310.25 305.1 M314.9 281.8 L312.95 285.0 M311.55 288.15 Q310.85 290.15 310.7 292.05 311.35 293.95 311.0 295.75 311.45 297.6 312.55 299.35 M314.9 281.8 Q316.55 280.95 316.85 279.2 L318.35 277.4 M311.55 288.15 Q312.65 286.95 312.95 285.0" fill="none" stroke="#000000" stroke-linecap="round" stroke-linejoin="round" stroke-width="1.0"/>
    <path d="M318.35 277.4 Q321.35 276.85 322.75 279.0 L323.5 280.65 Q322.75 285.4 321.35 290.2 320.0 294.75 318.05 299.35 L317.85 299.45 316.45 299.95 Q314.5 300.4 312.55 299.35 M310.25 305.1 Q311.75 303.95 313.75 303.0 L315.85 303.2 316.75 303.95 317.85 305.65 317.9 305.7 M323.1 289.8 L325.15 281.55 M322.75 352.85 Q322.6 355.85 321.8 358.1 321.05 359.75 320.0 360.9 319.15 361.8 318.15 362.35 L318.05 362.4 M316.85 279.2 L318.25 280.05 Q318.75 282.05 317.0 283.1 L314.9 281.8 M312.95 285.0 L315.75 286.75 Q316.3 288.75 314.55 289.8 L312.4 288.45 311.55 288.15 M310.7 292.05 L313.9 293.65 Q314.4 296.0 312.65 296.65 L311.0 295.75 M320.8 282.3 Q320.45 282.0 319.9 282.45 319.35 282.9 318.9 283.8 318.5 284.75 318.5 285.6 L318.55 286.15 318.85 286.7 319.8 286.6 320.75 285.2 Q321.15 284.3 321.15 283.45 321.15 282.6 320.8 282.3 M317.5 290.15 Q316.85 290.65 316.35 291.75 315.9 292.85 315.9 293.85 315.85 294.85 316.25 295.15 L317.35 295.0 Q318.0 294.45 318.45 293.35 L319.0 291.25 Q319.0 290.25 318.55 289.95 318.15 289.6 317.5 290.15 M306.95 323.85 L311.6 323.25 Q313.5 321.55 311.5 319.85 L306.55 320.5 M306.1 316.35 L310.45 316.05 Q312.15 314.0 310.3 312.6 L305.7 312.95 M316.55 313.55 Q317.05 314.15 317.2 315.15 L317.25 317.05 Q317.15 317.85 316.7 318.0 316.3 318.15 315.85 317.55 315.4 316.9 315.2 315.9 315.0 314.85 315.1 314.05 315.3 313.2 315.7 313.1 316.15 312.9 316.55 313.55 M317.55 327.05 Q317.1 327.2 316.55 326.45 316.05 325.7 315.75 324.5 315.55 323.3 315.7 322.35 315.9 321.35 316.35 321.2 316.85 321.0 317.35 321.75 317.9 322.5 318.1 323.7 L318.15 325.9 Q318.0 326.85 317.55 327.05 M317.7 330.05 Q318.2 329.85 318.7 330.5 319.2 331.15 319.4 332.3 L319.45 334.25 Q319.3 335.15 318.8 335.35 318.3 335.5 317.8 334.85 L317.1 333.1 Q316.9 332.0 317.05 331.1 317.25 330.2 317.7 330.05 M307.75 330.85 L311.9 330.3 Q313.9 328.4 311.85 327.2 L307.4 327.85 M309.35 345.05 L313.65 344.6 Q315.15 342.1 313.45 340.7 L308.9 341.25 M308.65 338.75 L312.9 338.15 Q314.8 335.85 312.85 334.9 L308.3 335.65 M317.45 342.65 Q317.25 341.45 317.45 340.5 317.7 339.55 318.25 339.35 318.8 339.15 319.35 339.8 319.95 340.5 320.15 341.65 320.4 342.8 320.15 343.8 319.95 344.75 319.4 345.0 318.85 345.15 318.25 344.5 317.7 343.8 317.45 342.65 M322.8 350.7 Q320.85 352.8 318.95 353.2 L317.6 353.3 310.3 353.5" fill="none" stroke="#000000" stroke-linecap="round" stroke-linejoin="round" stroke-opacity="0.5019608" stroke-width="1.0"/>
  </g>
</svg>
