<?xml version="1.0" encoding="UTF-8" standalone="no"?>
<svg xmlns:xlink="http://www.w3.org/1999/xlink" height="41.05px" width="185.3px" xmlns="http://www.w3.org/2000/svg">
  <g transform="matrix(1.0, 0.0, 0.0, 1.0, -307.15, -323.75)">
    <path d="M335.6 333.7 L334.6 334.6 330.35 332.35 330.1 335.85 329.95 338.9 329.9 341.95 329.85 344.95 329.9 347.9 330.0 350.85 330.2 353.75 330.55 357.1 330.65 356.9 332.5 354.85 333.2 355.3 Q334.25 356.15 334.4 357.85 L332.25 360.35 330.0 362.35 327.75 363.85 325.4 364.55 322.75 364.8 320.2 364.35 Q317.75 363.85 315.65 362.45 L315.4 361.8 Q314.95 360.5 314.95 359.1 L316.1 359.55 317.2 359.9 317.55 359.9 316.75 356.0 316.2 352.7 315.6 349.35 314.9 345.95 314.1 342.7 313.3 339.35 312.4 336.0 311.9 334.3 311.4 332.55 308.5 334.9 Q307.0 334.0 307.15 332.3 L307.3 331.2 Q309.15 328.55 311.6 326.9 312.6 326.1 313.7 325.5 314.65 324.9 315.7 324.55 316.8 324.0 318.0 323.75 L320.7 323.9 323.55 324.55 325.85 325.15 328.4 326.0 Q329.2 326.3 330.05 326.7 330.85 327.0 331.7 327.45 L334.05 328.75 336.35 329.95 Q336.5 331.95 335.6 333.7 M324.95 330.3 L322.2 329.55 320.2 329.3 318.2 329.4 317.2 329.55 317.65 331.5 318.05 333.5 318.45 335.45 318.75 337.35 319.05 339.35 319.35 341.25 319.65 343.25 319.9 345.15 320.1 347.1 320.35 349.1 320.5 351.05 320.65 352.95 320.8 354.95 320.9 356.85 320.95 358.85 321.0 360.7 323.85 361.0 Q325.25 361.0 326.45 360.1 L325.95 356.8 325.6 353.35 325.25 349.8 325.15 347.95 325.0 346.1 324.9 344.35 324.9 342.5 324.8 340.6 324.8 338.65 324.75 336.75 324.8 334.75 324.85 332.8 324.95 330.3 M479.4 329.3 L477.4 329.55 474.65 330.3 474.75 332.8 474.8 334.75 474.85 336.75 474.8 338.65 474.8 340.6 474.7 342.5 474.7 344.35 474.6 346.1 474.45 347.95 474.35 349.8 474.0 353.35 473.65 356.8 473.15 360.1 Q474.35 361.0 475.75 361.0 L478.6 360.7 478.65 358.85 478.7 356.85 478.8 354.95 478.95 352.95 479.1 351.05 479.25 349.1 479.5 347.1 479.7 345.15 479.95 343.25 480.25 341.25 480.55 339.35 480.85 337.35 481.15 335.45 481.55 333.5 481.95 331.5 482.4 329.55 481.4 329.4 479.4 329.3 M463.25 329.95 L465.55 328.75 Q466.75 328.0 467.9 327.45 468.75 327.0 469.55 326.7 470.4 326.3 471.2 326.0 L473.75 325.15 476.05 324.55 478.9 323.9 481.6 323.75 Q482.8 324.0 483.9 324.55 484.95 324.9 485.9 325.5 L488.0 326.9 Q490.45 328.55 492.3 331.2 L492.45 332.3 Q492.6 334.0 491.1 334.9 L488.2 332.55 487.7 334.3 487.2 336.0 486.3 339.35 485.5 342.7 484.7 345.95 484.0 349.35 483.4 352.7 482.85 356.0 482.05 359.9 482.4 359.9 483.5 359.55 484.65 359.1 484.2 361.8 483.95 362.45 Q481.85 363.85 479.4 364.35 L476.85 364.8 474.2 364.55 Q473.0 364.4 471.85 363.85 L469.6 362.35 467.35 360.35 465.2 357.85 Q465.35 356.15 466.4 355.3 L467.1 354.85 468.95 356.9 469.05 357.1 469.4 353.75 469.6 350.85 469.7 347.9 469.75 344.95 469.7 341.95 469.65 338.9 469.5 335.85 469.25 332.35 465.0 334.6 464.0 333.7 Q463.1 331.95 463.25 329.95" fill="#000000" fill-rule="evenodd" stroke="none"/>
  </g>
</svg>
