<?xml version="1.0" encoding="UTF-8" standalone="no"?>
<svg xmlns:xlink="http://www.w3.org/1999/xlink" height="45.85px" width="186.0px" xmlns="http://www.w3.org/2000/svg">
  <g transform="matrix(1.0, 0.0, 0.0, 1.0, -306.8, -315.8)">
    <path d="M331.45 341.9 L323.5 342.4 324.8 348.85 330.8 348.25 330.65 353.15 326.1 354.65 327.4 359.85 Q322.65 361.85 318.15 361.6 L316.05 355.35 313.9 348.7 311.95 341.9 310.0 334.4 Q308.9 329.8 308.15 325.7 307.15 320.35 306.8 315.8 313.4 318.3 320.3 319.6 328.85 321.15 337.9 320.8 L335.35 328.15 321.2 327.65 322.35 335.6 332.65 335.7 Q331.9 338.8 331.45 341.9 M466.95 335.7 L477.25 335.6 478.4 327.65 464.25 328.15 461.7 320.8 Q470.75 321.15 479.3 319.6 486.2 318.3 492.8 315.8 492.45 320.35 491.45 325.7 L489.6 334.4 487.65 341.9 485.7 348.7 483.55 355.35 481.45 361.6 Q476.95 361.85 472.2 359.85 L473.5 354.65 468.95 353.15 468.8 348.25 474.8 348.85 476.1 342.4 468.15 341.9 466.95 335.7" fill="#000000" fill-rule="evenodd" stroke="none"/>
  </g>
</svg>
