<?xml version="1.0" encoding="UTF-8" standalone="no"?>
<svg xmlns:xlink="http://www.w3.org/1999/xlink" height="24.5px" width="166.3px" xmlns="http://www.w3.org/2000/svg">
  <g transform="matrix(1.0, 0.0, 0.0, 1.0, -316.65, -270.65)">
    <path d="M449.05 280.65 Q452.75 278.55 453.7 277.8 455.1 276.7 456.25 274.7 458.0 271.6 463.85 272.15 462.95 277.25 459.25 278.05 456.95 278.55 455.45 279.55 454.4 280.15 451.1 283.25 447.8 282.85 449.05 280.65 M452.15 285.3 Q467.0 279.35 479.95 270.65 481.4 271.35 480.65 272.75 475.15 277.85 468.25 281.5 461.45 285.15 453.3 287.4 451.85 286.8 451.85 285.9 L452.15 285.3 M455.55 291.5 L455.85 290.9 Q463.0 287.95 469.65 284.25 475.45 281.0 480.8 277.25 482.15 277.9 481.5 279.2 L476.25 283.6 Q467.95 289.75 456.85 292.8 455.55 292.3 455.55 291.5 M482.05 283.0 L482.75 283.4 482.95 283.85 Q482.6 285.35 481.35 286.2 478.55 288.2 476.0 290.35 475.15 290.95 474.6 291.95 473.7 293.5 472.95 295.15 472.85 290.55 476.0 287.5 L477.65 285.95 481.25 283.2 482.05 283.0 M340.35 278.05 Q336.65 277.25 335.75 272.15 341.6 271.6 343.35 274.7 344.5 276.7 345.9 277.8 L350.55 280.65 Q351.8 282.85 348.5 283.25 345.2 280.15 344.15 279.55 342.65 278.55 340.35 278.05 M347.45 285.3 L347.75 285.9 Q347.75 286.8 346.3 287.4 338.15 285.15 331.35 281.5 324.45 277.85 318.95 272.75 318.2 271.35 319.65 270.65 332.6 279.35 347.45 285.3 M326.65 295.15 L325.0 291.95 323.6 290.35 318.25 286.2 Q317.0 285.35 316.65 283.85 L316.85 283.4 317.55 283.0 318.35 283.2 321.95 285.95 323.6 287.5 Q326.75 290.55 326.65 295.15 M344.05 291.5 Q344.05 292.3 342.75 292.8 331.65 289.75 323.35 283.6 320.55 281.55 318.1 279.2 317.45 277.9 318.8 277.25 324.15 281.0 329.95 284.25 336.6 287.95 343.75 290.9 L344.05 291.5" fill="#000000" fill-rule="evenodd" stroke="none"/>
  </g>
</svg>
