<?xml version="1.0" encoding="UTF-8" standalone="no"?>
<svg xmlns:xlink="http://www.w3.org/1999/xlink" height="41.35px" width="21.25px" xmlns="http://www.w3.org/2000/svg">
  <g transform="matrix(1.0, 0.0, 0.0, 1.0, -306.1, -317.05)">
    <path d="M317.7 324.35 Q318.3 324.35 318.7 323.95 319.1 323.55 319.1 322.95 319.1 322.35 318.7 321.95 318.3 321.55 317.7 321.55 317.1 321.55 316.7 321.95 316.3 322.35 316.3 322.95 316.3 323.55 316.7 323.95 317.1 324.35 317.7 324.35 M315.9 318.3 Q319.65 319.45 323.2 321.7 318.8 338.35 327.35 353.65 325.0 355.55 322.65 356.7 319.4 358.25 316.15 358.4 312.9 350.2 310.65 342.05 307.45 330.55 306.3 319.1 L306.1 317.1 Q311.15 316.8 315.9 318.3 M316.15 327.15 Q316.15 328.9 316.3 330.65 L316.6 333.45 317.05 336.5 317.85 340.1 318.9 343.6 319.75 346.1 321.75 346.1 321.0 343.4 Q320.5 341.55 320.15 339.7 L319.6 336.4 319.2 333.2 319.0 330.4 318.9 327.0 316.15 327.15" fill="#000000" fill-rule="evenodd" stroke="none"/>
  </g>
</svg>
