<?xml version="1.0" encoding="UTF-8" standalone="no"?>
<svg xmlns:xlink="http://www.w3.org/1999/xlink" height="34.45px" width="33.55px" xmlns="http://www.w3.org/2000/svg">
  <g transform="matrix(1.0, 0.0, 0.0, 1.0, -303.9, -286.55)">
    <path d="M336.2 299.85 Q337.55 301.7 336.95 303.65 337.9 306.75 337.05 310.0 337.5 311.55 336.7 313.15 324.45 308.8 310.6 312.1 310.15 315.5 307.35 321.0 306.1 321.15 304.85 319.65 L304.6 319.35 304.6 319.3 304.5 319.15 303.9 315.95 Q306.05 316.9 307.1 315.05 308.05 314.3 308.25 312.35 308.45 310.2 308.95 308.1 309.7 305.25 311.0 302.45 312.85 298.6 313.95 295.0 314.8 292.2 314.25 290.55 312.7 288.9 309.8 289.6 L313.15 286.75 313.5 286.65 313.55 286.6 313.65 286.6 Q315.7 286.2 316.8 288.3 317.85 290.3 317.25 292.25 329.95 294.7 336.2 299.85" fill="#000000" fill-rule="evenodd" stroke="none"/>
  </g>
</svg>
