<?xml version="1.0" encoding="UTF-8" standalone="no"?>
<svg xmlns:xlink="http://www.w3.org/1999/xlink" height="34.45px" width="35.25px" xmlns="http://www.w3.org/2000/svg">
  <g transform="matrix(1.0, 0.0, 0.0, 1.0, -302.2, -286.55)">
    <path d="M336.2 299.85 Q337.55 301.7 336.95 303.65 337.9 306.75 337.05 310.0 337.5 311.55 336.7 313.15 324.45 308.8 310.6 312.1 310.15 315.5 307.35 321.0 306.1 321.15 304.85 319.65 L304.6 319.35 304.6 319.3 304.5 319.15 303.95 316.05 306.4 314.9 306.75 314.7 Q307.25 314.15 307.35 313.25 307.5 312.0 306.75 310.75 306.15 309.75 305.35 309.2 L304.9 308.95 Q303.75 308.45 302.9 308.95 L302.65 309.15 302.35 309.8 Q302.0 308.15 302.55 306.6 302.15 305.0 302.3 303.55 L303.35 304.3 303.7 304.5 305.25 304.35 Q306.25 303.85 306.95 302.85 L307.15 302.55 Q307.85 301.3 307.75 300.05 307.6 298.8 306.75 298.3 L306.45 298.2 303.45 298.45 Q303.95 295.5 305.85 294.0 L305.9 294.25 306.05 294.65 Q306.4 295.3 307.25 295.65 L309.85 295.7 Q310.75 295.45 311.45 294.9 L312.0 294.35 Q312.8 293.4 312.55 292.4 L312.45 292.1 309.6 289.75 309.8 289.6 313.15 286.75 313.5 286.65 313.55 286.6 313.65 286.6 Q315.7 286.2 316.8 288.3 317.85 290.3 317.25 292.25 329.95 294.7 336.2 299.85" fill="#000000" fill-rule="evenodd" stroke="none"/>
  </g>
</svg>
