<?xml version="1.0" encoding="UTF-8" standalone="no"?>
<svg xmlns:xlink="http://www.w3.org/1999/xlink" height="33.45px" width="207.8px" xmlns="http://www.w3.org/2000/svg">
  <g transform="matrix(1.0, 0.0, 0.0, 1.0, -295.9, -285.3)">
    <path d="M496.7 308.95 L496.95 309.15 501.45 318.75 493.2 314.9 492.85 314.7 Q492.35 314.15 492.25 313.25 492.1 312.0 492.85 310.75 493.45 309.75 494.25 309.2 L494.7 308.95 Q495.85 308.45 496.7 308.95 M487.6 294.35 Q486.8 293.4 487.05 292.4 L487.15 292.1 495.3 285.3 493.7 294.25 493.55 294.65 492.35 295.65 489.75 295.7 Q488.85 295.45 488.15 294.9 L487.6 294.35 M496.25 304.3 L495.9 304.5 494.35 304.35 Q493.35 303.85 492.65 302.85 L492.45 302.55 Q491.75 301.3 491.85 300.05 492.0 298.8 492.85 298.3 L493.15 298.2 503.7 299.1 496.25 304.3 M306.05 294.65 L305.9 294.25 304.3 285.3 312.45 292.1 312.55 292.4 Q312.8 293.4 312.0 294.35 L311.45 294.9 Q310.75 295.45 309.85 295.7 L307.25 295.65 Q306.4 295.3 306.05 294.65 M306.75 298.3 Q307.6 298.8 307.75 300.05 307.85 301.3 307.15 302.55 L306.95 302.85 Q306.25 303.85 305.25 304.35 L303.7 304.5 303.35 304.3 295.9 299.1 306.45 298.2 306.75 298.3 M305.35 309.2 Q306.15 309.75 306.75 310.75 307.5 312.0 307.35 313.25 307.25 314.15 306.75 314.7 L306.4 314.9 Q302.3 316.85 298.15 318.75 L302.65 309.15 302.9 308.95 Q303.75 308.45 304.9 308.95 L305.35 309.2" fill="#000000" fill-rule="evenodd" stroke="none"/>
  </g>
</svg>
