<?xml version="1.0" encoding="UTF-8" standalone="no"?>
<svg xmlns:xlink="http://www.w3.org/1999/xlink" height="3.55px" width="28.45px" xmlns="http://www.w3.org/2000/svg">
  <g transform="matrix(1.0, 0.0, 0.0, 1.0, -385.6, -183.1)">
    <path d="M390.45 183.95 L390.4 184.35 Q390.4 185.1 390.9 185.6 391.45 186.15 392.2 186.15 392.95 186.15 393.45 185.6 L393.85 185.05 392.85 184.2 390.45 183.95 387.55 183.6 386.1 184.95 M394.45 185.55 L393.85 185.05 M405.25 185.55 L406.85 184.2 409.4 183.95 412.15 183.6 412.9 184.3 413.55 184.9 M409.4 183.95 L409.35 184.15 409.3 184.35 Q409.3 185.1 409.85 185.6 410.35 186.15 411.1 186.15 411.85 186.15 412.4 185.6 412.9 185.1 412.9 184.35 L412.9 184.3" fill="none" stroke="#000000" stroke-linecap="round" stroke-linejoin="round" stroke-opacity="0.5019608" stroke-width="1.0"/>
  </g>
</svg>
