<?xml version="1.0" encoding="UTF-8" standalone="no"?>
<svg xmlns:xlink="http://www.w3.org/1999/xlink" height="3.55px" width="32.1px" xmlns="http://www.w3.org/2000/svg">
  <g transform="matrix(1.0, 0.0, 0.0, 1.0, -383.8, -183.1)">
    <path d="M384.3 183.95 L387.55 183.6 388.7 183.75 392.2 184.15 392.85 184.2 394.45 185.55 M388.7 183.75 L388.6 184.35 Q388.6 185.1 389.1 185.6 389.65 186.15 390.4 186.15 391.15 186.15 391.65 185.6 392.2 185.1 392.2 184.35 L392.2 184.15 M405.25 185.55 L406.85 184.2 407.5 184.15 411.0 183.75 412.15 183.6 415.4 183.95 M411.0 183.75 L411.1 184.35 Q411.1 185.1 410.6 185.6 410.05 186.15 409.3 186.15 408.55 186.15 408.05 185.6 407.5 185.1 407.5 184.35 L407.5 184.15" fill="none" stroke="#000000" stroke-linecap="round" stroke-linejoin="round" stroke-opacity="0.5019608" stroke-width="1.0"/>
  </g>
</svg>
