<?xml version="1.0" encoding="UTF-8" standalone="no"?>
<svg xmlns:xlink="http://www.w3.org/1999/xlink" height="8.7px" width="32.6px" xmlns="http://www.w3.org/2000/svg">
  <g transform="matrix(1.0, 0.0, 0.0, 1.0, -383.5, -179.45)">
    <path d="M396.55 179.95 Q397.45 181.55 397.45 182.85 397.5 185.05 395.15 186.5 L395.0 186.6 394.05 186.65 394.0 186.65 393.7 186.45 393.15 186.2 392.95 186.1 392.85 186.3 Q392.25 187.3 391.4 187.55 L391.3 187.6 390.7 187.65 389.7 187.5 389.65 187.5 Q384.8 186.1 387.65 181.45 L387.75 181.2 Q387.15 180.55 386.35 180.4 L385.2 180.35 384.45 180.5 384.0 180.6 M403.05 179.95 Q402.15 181.55 402.15 182.85 402.1 185.1 404.6 186.6 L405.55 186.65 405.8 186.5 405.9 186.45 406.65 186.1 406.7 186.05 407.3 185.7 Q409.35 184.45 410.9 182.5 L411.5 181.65 411.75 181.3 411.8 181.3 411.85 181.2 Q412.85 180.15 414.4 180.35 L414.6 180.4 415.15 180.5 415.6 180.6 M392.95 186.1 L392.9 186.05 392.3 185.7 391.75 186.25 391.0 186.3 Q389.85 186.3 389.1 185.65 388.35 185.0 388.35 183.9 388.35 182.95 388.7 182.5 L388.55 182.3 388.1 181.65 387.85 181.3 387.8 181.3 387.75 181.2 M392.3 185.7 L389.7 183.65 388.7 182.5 M406.65 186.1 L406.95 186.65 Q407.5 187.3 408.2 187.55 L408.9 187.65 409.65 187.6 409.9 187.5 409.95 187.5 Q414.35 186.25 412.4 182.3 L411.95 181.45 411.85 181.2 M407.3 185.7 L407.8 186.2 407.85 186.25 408.1 186.3 408.6 186.3 409.2 186.25 Q409.95 186.1 410.5 185.65 411.25 185.0 411.25 183.9 L411.25 183.65 410.9 182.5" fill="none" stroke="#000000" stroke-linecap="round" stroke-linejoin="round" stroke-opacity="0.5019608" stroke-width="1.0"/>
  </g>
</svg>
