<?xml version="1.0" encoding="UTF-8" standalone="no"?>
<svg xmlns:xlink="http://www.w3.org/1999/xlink" height="15.3px" width="17.4px" xmlns="http://www.w3.org/2000/svg">
  <g transform="matrix(1.0, 0.0, 0.0, 1.0, -381.45, -173.7)">
    <path d="M396.5 181.65 L397.75 183.95 398.35 185.95 398.35 187.3 Q398.1 187.9 396.9 188.05 L396.9 188.1 396.75 188.1 395.7 188.35 395.1 188.2 395.05 188.2 394.65 187.9 394.55 187.8 394.45 187.9 394.4 187.9 393.0 188.4 392.6 188.5 391.65 188.5 390.5 188.4 388.8 187.9 388.6 187.8 Q387.6 187.35 387.0 186.45 L386.9 186.35 386.7 185.9 Q385.95 184.5 386.0 183.05 L386.1 181.9 386.35 180.35 386.75 178.95 386.75 178.85 387.15 178.1 385.75 176.1 Q384.65 174.6 383.6 174.3 L382.9 174.2 382.3 174.25 381.95 174.35 M394.55 187.8 L394.5 187.8 394.35 187.65 394.05 187.75 392.6 188.0 390.5 188.0 Q389.6 187.9 389.0 187.3 388.35 186.85 387.95 185.95 L387.9 185.8 Q387.05 183.8 387.95 179.25 L387.15 178.1 M394.35 187.65 L394.0 187.35 393.95 187.3 392.7 185.95 392.6 185.85 392.35 185.55 389.95 182.15 387.95 179.25" fill="none" stroke="#000000" stroke-linecap="round" stroke-linejoin="round" stroke-opacity="0.5019608" stroke-width="1.0"/>
  </g>
</svg>
