<?xml version="1.0" encoding="UTF-8" standalone="no"?>
<svg xmlns:xlink="http://www.w3.org/1999/xlink" height="9.6px" width="27.3px" xmlns="http://www.w3.org/2000/svg">
  <g transform="matrix(1.0, 0.0, 0.0, 1.0, -386.9, -180.2)">
    <path d="M388.05 182.25 Q389.25 181.1 390.9 181.1 392.55 181.1 393.75 182.25 394.95 183.45 394.95 185.1 394.95 186.7 393.75 187.9 L392.4 188.75 390.65 189.05 Q389.15 188.95 388.05 187.9 386.85 186.7 386.9 185.1 386.85 183.45 388.05 182.25 M389.5 183.0 Q389.1 182.95 388.85 183.2 L388.65 183.8 388.85 184.35 389.5 184.6 390.05 184.35 390.3 183.8 390.05 183.2 Q389.85 182.95 389.5 183.0 M409.35 180.2 Q411.35 180.2 412.8 181.6 414.2 183.0 414.2 185.0 414.2 187.0 412.8 188.4 411.35 189.8 409.35 189.8 407.3 189.8 405.85 188.4 404.45 187.0 404.45 185.0 404.45 183.0 405.85 181.6 407.3 180.2 409.35 180.2 M410.85 182.7 L410.65 183.3 410.85 183.85 411.5 184.1 412.05 183.85 412.3 183.3 412.05 182.7 Q411.85 182.45 411.5 182.5 L410.85 182.7" fill="#000000" fill-rule="evenodd" stroke="none"/>
  </g>
</svg>
