<?xml version="1.0" encoding="UTF-8" standalone="no"?>
<svg xmlns:xlink="http://www.w3.org/1999/xlink" height="5.75px" width="27.1px" xmlns="http://www.w3.org/2000/svg">
  <g transform="matrix(1.0, 0.0, 0.0, 1.0, -386.25, -181.75)">
    <path d="M390.3 187.4 Q386.95 186.7 386.25 182.05 L389.1 182.15 390.15 182.7 Q389.65 183.55 390.3 187.4 390.7 185.5 390.25 182.75 391.5 183.45 393.0 184.75 L395.2 186.8 Q392.3 187.8 390.3 187.4 M409.3 187.4 Q407.3 187.8 404.4 186.8 L406.6 184.75 409.35 182.75 Q408.9 185.5 409.3 187.4 409.95 183.55 409.45 182.7 410.0 182.35 410.5 182.15 L413.35 182.05 Q412.65 186.7 409.3 187.4" fill="#000000" fill-rule="evenodd" stroke="none"/>
  </g>
</svg>
