<?xml version="1.0" encoding="UTF-8" standalone="no"?>
<svg xmlns:xlink="http://www.w3.org/1999/xlink" height="4.1px" width="27.4px" xmlns="http://www.w3.org/2000/svg">
  <g transform="matrix(1.0, 0.0, 0.0, 1.0, -386.1, -182.35)">
    <path d="M389.55 184.05 L389.5 184.35 389.75 184.95 Q390.05 185.25 390.4 185.25 L391.05 184.95 391.3 184.35 391.3 184.25 391.05 183.7 Q390.8 183.45 390.4 183.45 390.05 183.45 389.75 183.7 L389.55 184.05 M387.9 182.35 L389.55 182.75 392.0 183.5 392.25 183.6 393.0 183.85 394.45 185.55 Q388.8 187.6 386.1 184.95 386.95 183.0 387.9 182.35 M406.6 183.85 L407.35 183.6 407.6 183.5 Q408.85 183.05 410.05 182.75 L411.7 182.35 Q412.65 183.0 413.5 184.95 410.8 187.6 405.15 185.55 L406.6 183.85 M409.2 183.45 Q408.8 183.45 408.55 183.7 408.35 183.9 408.3 184.25 L408.3 184.35 408.55 184.95 Q408.8 185.25 409.2 185.25 L409.85 184.95 410.1 184.35 410.05 184.05 409.85 183.7 409.2 183.45" fill="#000000" fill-rule="evenodd" stroke="none"/>
  </g>
</svg>
