<?xml version="1.0" encoding="UTF-8" standalone="no"?>
<svg xmlns:xlink="http://www.w3.org/1999/xlink" height="10.4px" width="27.6px" xmlns="http://www.w3.org/2000/svg">
  <g transform="matrix(1.0, 0.0, 0.0, 1.0, -386.0, -178.1)">
    <path d="M413.5 181.9 L413.6 183.05 Q413.65 184.5 412.9 185.9 L412.7 186.35 412.6 186.45 Q412.0 187.35 411.0 187.8 L410.8 187.9 409.1 188.4 407.95 188.5 407.0 188.5 406.6 188.4 405.2 187.9 405.15 187.9 405.05 187.8 405.1 187.8 405.25 187.65 405.55 187.75 407.0 188.0 409.1 188.0 Q410.0 187.9 410.6 187.3 L411.65 185.95 411.7 185.8 Q412.55 183.8 411.65 179.25 L412.45 178.1 412.85 178.85 412.85 178.95 413.25 180.35 413.5 181.9 M386.0 183.05 L386.1 181.9 386.35 180.35 386.75 178.95 386.75 178.85 387.15 178.1 387.95 179.25 Q387.05 183.8 387.9 185.8 L387.95 185.95 Q388.35 186.85 389.0 187.3 389.6 187.9 390.5 188.0 L392.6 188.0 394.05 187.75 394.35 187.65 394.5 187.8 394.55 187.8 394.45 187.9 394.4 187.9 393.0 188.4 392.6 188.5 391.65 188.5 390.5 188.4 388.8 187.9 388.6 187.8 Q387.6 187.35 387.0 186.45 L386.9 186.35 386.7 185.9 Q385.95 184.5 386.0 183.05" fill="#000000" fill-rule="evenodd" stroke="none"/>
  </g>
</svg>
