<?xml version="1.0" encoding="UTF-8" standalone="no"?>
<svg xmlns:xlink="http://www.w3.org/1999/xlink" height="419.45px" width="290.65px" xmlns="http://www.w3.org/2000/svg">
  <g transform="matrix(1.0, 0.0, 0.0, 1.0, -52.65, -67.5)">
    <path d="M226.0 76.15 Q209.8 77.1 209.4 94.75 L208.7 94.7 Q204.35 95.0 205.55 101.25 L205.55 101.3 202.55 104.45 Q132.0 108.15 95.05 137.15 79.0 180.4 86.25 225.25 L79.65 245.3 Q85.4 277.35 117.15 305.65 116.1 318.6 113.85 337.75 L132.9 350.4 128.75 393.55 122.3 400.55 125.85 409.95 Q118.9 427.35 118.8 444.8 135.1 457.25 164.2 457.1 184.55 450.5 177.4 433.95 L167.4 411.65 Q168.4 387.1 187.6 362.5 203.55 336.95 215.45 312.1 216.15 325.4 221.8 338.7 L216.85 347.8 221.2 385.5 218.65 398.05 220.3 399.65 Q216.65 410.05 216.05 421.3 224.85 425.15 236.4 424.1 263.6 438.3 302.2 430.95 328.4 438.25 329.7 486.95 L52.65 486.95 52.65 67.5 232.85 67.5 226.0 76.15 M150.25 216.5 Q153.85 222.85 161.2 224.8 165.25 246.1 155.3 267.65 L146.3 289.6 Q143.45 268.85 146.8 248.1 L141.8 234.75 Q146.85 225.6 150.25 216.5" fill="#010101" fill-opacity="0.2509804" fill-rule="evenodd" stroke="none"/>
    <path d="M226.0 76.15 Q233.8 74.9 241.5 77.3 257.3 82.4 254.1 102.6 L252.35 104.15 Q252.55 106.35 252.25 108.2 286.45 122.7 310.65 147.2 317.3 178.6 311.4 210.1 L322.95 230.35 Q317.5 261.1 318.3 291.8 L343.3 316.55 Q335.85 326.15 333.4 341.2 L328.3 341.2 328.55 348.5 Q327.15 355.85 319.7 355.3 315.3 354.55 313.85 351.6 307.5 354.55 303.75 352.4 300.95 350.75 299.65 346.3 295.2 347.85 292.4 346.3 289.9 344.95 288.65 341.25 285.1 340.7 283.25 339.0 L276.45 355.35 Q264.0 372.45 255.95 390.6 268.4 401.8 287.7 413.0 301.7 420.85 302.2 430.95 254.65 431.25 235.0 413.4 L235.0 403.55 230.85 398.55 Q237.45 374.85 232.4 351.15 L238.7 352.7 Q232.95 312.5 244.15 280.7 L226.05 288.05 Q221.2 300.0 215.45 312.1 203.55 336.95 187.6 362.5 168.4 387.1 167.4 411.65 L177.4 433.95 Q184.55 450.5 164.2 457.1 122.6 451.4 140.35 414.65 L137.35 400.95 152.9 358.45 154.4 362.6 160.1 361.35 155.65 344.35 155.6 344.2 155.2 344.45 Q152.05 346.55 148.55 347.2 L148.5 347.2 144.65 347.4 125.5 304.1 Q107.9 266.35 102.2 228.6 L109.55 235.6 Q106.35 190.85 118.65 147.25 150.55 125.05 193.0 120.15 202.2 130.1 215.6 129.55 L219.4 132.85 219.75 112.4 Q214.7 106.75 228.55 98.1 219.0 87.1 226.0 76.15 M242.8 187.25 Q232.3 187.9 221.05 189.9 191.35 195.85 169.25 191.45 L144.65 180.6 156.65 189.55 Q155.2 203.0 150.25 216.5 146.85 225.6 141.8 234.75 L146.8 248.1 Q143.45 268.85 146.3 289.6 L146.8 292.85 166.85 304.45 181.25 265.15 Q195.55 238.25 192.05 222.55 184.65 211.3 182.15 199.95 193.4 200.15 210.4 197.0 224.25 194.45 238.55 193.9 257.65 193.1 277.5 195.9 L283.05 197.0 Q281.35 206.4 272.2 215.75 268.8 231.85 269.8 256.0 269.9 258.85 272.2 269.65 L282.3 322.3 283.5 328.1 289.6 319.8 Q291.8 319.25 294.2 321.6 L296.35 324.35 296.4 324.35 300.8 324.75 302.95 326.0 303.3 323.05 306.65 291.25 Q299.5 261.05 299.05 230.8 L293.75 219.05 288.8 227.05 293.3 187.3 283.65 189.9 Q264.75 185.8 242.8 187.25" fill="#010101" fill-opacity="0.0" fill-rule="evenodd" stroke="none"/>
    <path d="M302.2 430.95 Q263.6 438.3 236.4 424.1 224.85 425.15 216.05 421.3 216.65 410.05 220.3 399.65 L218.65 398.05 221.2 385.5 216.85 347.8 221.8 338.7 Q216.15 325.4 215.45 312.1 221.2 300.0 226.05 288.05 L244.15 280.7 Q232.95 312.5 238.7 352.7 L232.4 351.15 Q237.45 374.85 230.85 398.55 L235.0 403.55 235.0 413.4 Q254.65 431.25 302.2 430.95 M164.2 457.1 Q135.1 457.25 118.8 444.8 118.9 427.35 125.85 409.95 L122.3 400.55 128.75 393.55 132.9 350.4 113.85 337.75 Q116.1 318.6 117.15 305.65 85.4 277.35 79.65 245.3 L86.25 225.25 Q79.0 180.4 95.05 137.15 132.0 108.15 202.55 104.45 L205.55 101.3 205.55 101.25 Q204.35 95.0 208.7 94.7 L209.4 94.75 Q209.8 77.1 226.0 76.15 219.0 87.1 228.55 98.1 214.7 106.75 219.75 112.4 L219.4 132.85 215.6 129.55 Q202.2 130.1 193.0 120.15 150.55 125.05 118.65 147.25 106.35 190.85 109.55 235.6 L102.2 228.6 Q107.9 266.35 125.5 304.1 L144.65 347.4 148.5 347.2 148.5 347.25 148.55 347.2 Q152.05 346.55 155.2 344.45 L155.65 344.35 160.1 361.35 154.4 362.6 152.9 358.45 137.35 400.95 140.35 414.65 Q122.6 451.4 164.2 457.1 M242.8 187.25 L242.8 187.6 242.8 187.25 Q264.75 185.8 283.65 189.9 L293.3 187.3 288.8 227.05 293.75 219.05 299.05 230.8 Q299.5 261.05 306.65 291.25 L303.3 323.05 Q303.05 324.2 302.95 325.5 L302.95 326.0 300.8 324.75 296.4 324.35 296.35 324.35 294.2 321.6 Q291.8 319.25 289.6 319.8 L283.5 328.1 282.3 322.3 Q282.8 319.25 283.6 316.2 L285.95 308.0 Q288.65 300.15 292.6 292.45 277.8 270.95 269.8 256.0 268.8 231.85 272.2 215.75 281.35 206.4 283.05 197.0 L277.5 195.9 Q257.65 193.1 238.55 193.9 224.25 194.45 210.4 197.0 193.4 200.15 182.15 199.95 184.65 211.3 192.05 222.55 195.55 238.25 181.25 265.15 L166.85 304.45 146.8 292.85 146.3 289.6 155.3 267.65 Q165.25 246.1 161.2 224.8 153.85 222.85 150.25 216.5 155.2 203.0 156.65 189.55 L144.65 180.6 169.25 191.45 Q191.35 195.85 221.05 189.9 232.3 187.9 242.8 187.25 M152.9 358.4 L152.9 358.45 152.9 358.4" fill="#010101" fill-opacity="0.2509804" fill-rule="evenodd" stroke="none"/>
    <path d="M148.5 347.2 L148.55 347.2 148.5 347.25 148.5 347.2 M155.2 344.45 L155.6 344.2 155.65 344.35 155.2 344.45" fill="#cc9966" fill-rule="evenodd" stroke="none"/>
    <path d="M185.0 146.95 Q182.9 154.7 180.75 154.7 178.65 162.5 176.5 162.5 174.35 162.5 172.25 154.7 170.1 154.7 168.0 146.95 M223.2 174.3 Q221.1 182.1 218.95 182.1 221.1 189.9 223.2 189.9 225.35 189.9 227.45 182.1 M218.95 182.1 Q216.8 182.1 214.7 174.3 M172.25 154.7 Q174.35 154.7 176.5 146.95 178.65 154.7 180.75 154.7 M275.75 146.95 Q273.65 154.7 271.5 154.75 273.65 162.5 275.75 162.55 277.9 162.5 280.0 154.75 M267.25 146.95 Q269.35 154.7 271.5 154.75 M119.15 162.5 Q121.3 162.5 123.4 154.7 121.3 154.7 119.15 146.9 117.05 154.7 114.9 154.7 117.05 162.5 119.15 162.5 M127.7 146.9 L126.3 151.15 Q124.85 154.7 123.4 154.7 125.55 162.5 127.7 162.5 129.8 162.5 131.95 154.7 M110.65 146.9 Q112.75 154.7 114.9 154.7 M111.2 191.6 Q109.1 199.4 106.95 199.4 109.1 207.2 111.2 207.2 113.35 207.2 115.5 199.4 M114.9 278.6 Q117.05 286.4 119.15 286.4 121.25 286.4 123.4 278.65 121.4 278.2 119.4 270.9 117.25 270.85 115.15 263.1 M123.4 278.65 L123.65 278.7 Q125.8 278.65 127.9 270.9 M123.65 263.1 Q121.55 270.85 119.4 270.9 M156.0 378.8 Q158.15 386.55 160.25 386.6 162.4 386.55 164.6 378.8 162.45 378.75 160.35 371.0 M254.15 217.55 Q251.95 225.3 249.85 225.35 247.7 225.3 245.6 217.55 M265.55 277.05 Q263.35 284.85 261.2 284.85 263.35 292.65 265.5 292.65 267.6 292.65 269.8 284.85 M261.2 284.85 Q259.1 284.85 256.95 277.05 M291.2 247.5 Q293.3 255.25 295.45 255.3 297.55 255.25 299.75 247.5 297.8 246.9 295.85 239.75 293.65 247.55 291.55 247.55 L291.2 247.5 Q289.25 246.9 287.3 239.75 M304.4 239.75 Q302.25 247.55 300.15 247.55 L299.75 247.5 M192.75 226.8 Q190.6 234.55 188.5 234.6 186.4 234.55 184.3 226.8 182.1 234.55 180.0 234.6 L179.95 234.6 Q177.8 242.35 175.65 242.4 173.55 242.35 171.4 234.6 M179.95 234.6 Q177.85 234.5 175.75 226.8 M188.75 219.0 Q186.6 226.75 184.5 226.8 L184.25 226.75 184.3 226.8 M180.25 219.0 Q182.25 226.35 184.25 226.75 M206.8 297.65 Q204.6 305.4 202.5 305.45 201.95 305.45 201.4 304.95 199.2 312.75 197.1 312.75 194.95 312.75 192.85 304.95 M201.4 304.95 Q199.8 303.45 198.25 297.65 M168.9 371.0 Q166.7 378.75 164.6 378.8 166.7 386.55 168.85 386.6 170.95 386.55 173.15 378.8 M252.6 300.45 Q254.7 308.25 256.85 308.25 258.95 308.25 261.15 300.45 259.05 300.45 256.9 292.65 M249.5 352.2 Q251.6 359.95 253.75 360.0 255.85 359.95 258.05 352.2 256.1 351.6 254.15 344.45 251.95 352.25 249.85 352.25 L249.5 352.2 Q247.55 351.6 245.6 344.45 M262.75 344.45 Q260.55 352.25 258.45 352.25 L258.05 352.2 M261.15 300.45 Q263.3 300.45 265.5 292.65 M102.7 191.6 Q104.85 199.4 106.95 199.4 M143.15 400.0 Q140.95 407.75 138.8 407.8 136.7 407.75 134.55 400.0 M245.6 392.2 Q243.4 400.0 241.25 400.0 239.15 400.0 237.0 392.2" fill="none" stroke="#000000" stroke-linecap="round" stroke-linejoin="round" stroke-opacity="0.2509804" stroke-width="1.0"/>
  </g>
</svg>
