<?xml version="1.0" encoding="UTF-8" standalone="no"?>
<svg xmlns:xlink="http://www.w3.org/1999/xlink" height="551.0px" width="711.0px" xmlns="http://www.w3.org/2000/svg">
  <g transform="matrix(1.0, 0.0, 0.0, 1.0, 0.5, 0.5)">
    <path d="M710.0 550.0 L0.0 550.0 0.0 0.0 710.0 0.0 710.0 550.0 Z" fill="none" stroke="#010101" stroke-linecap="round" stroke-linejoin="round" stroke-opacity="0.0" stroke-width="1.0"/>
    <path d="M328.3 341.2 L328.55 348.5 Q327.15 355.85 319.7 355.3 315.3 354.55 313.85 351.6 307.5 354.55 303.75 352.4 300.95 350.75 299.65 346.3 295.2 347.85 292.4 346.3 289.9 344.95 288.65 341.25 285.1 340.7 283.25 339.0 L276.45 355.35 Q264.0 372.45 255.95 390.6 268.4 401.8 287.7 413.0 301.7 420.85 302.2 430.95 263.6 438.3 236.4 424.1 224.85 425.15 216.05 421.3 216.65 410.05 220.3 399.65 L218.65 398.05 221.2 385.5 216.85 347.8 221.8 338.7 Q216.15 325.4 215.45 312.1 203.55 336.95 187.6 362.5 168.4 387.1 167.4 411.65 L177.4 433.95 Q184.55 450.5 164.2 457.1 135.1 457.25 118.8 444.8 118.9 427.35 125.85 409.95 L122.3 400.55 128.75 393.55 132.9 350.55 139.65 354.95 Q144.8 361.9 152.85 358.65 L154.3 362.65 154.35 362.7 154.45 362.75 165.95 360.25 166.0 360.2 166.05 360.1 Q165.6 349.6 166.15 339.15 170.1 341.4 173.25 341.65 176.55 341.85 178.85 339.75 L180.45 337.85 180.5 337.75 180.45 337.7 173.9 328.15 177.65 310.65 177.65 310.55 177.6 310.5 146.95 292.8 146.45 289.6 146.4 289.5 146.35 289.5 155.3 267.65 Q165.25 246.1 161.2 224.8 153.85 222.85 150.25 216.5 146.85 225.6 141.8 234.75 L146.8 248.1 Q143.45 268.8 146.3 289.5 L146.2 289.55 146.2 289.65 146.7 292.9 146.7 292.95 146.75 292.95 177.35 310.65 173.65 328.15 173.65 328.2 173.65 328.25 180.2 337.75 178.7 339.55 Q176.45 341.55 173.25 341.4 170.05 341.15 166.05 338.85 L166.0 338.85 165.9 338.9 165.9 338.95 Q165.35 349.45 165.8 360.0 L154.5 362.45 153.05 358.4 153.0 358.35 152.95 358.35 152.85 358.35 Q144.9 361.65 139.8 354.8 L139.8 354.75 133.0 350.3 132.9 350.3 132.8 350.35 113.85 337.75 Q116.1 318.6 117.15 305.65 85.4 277.35 79.65 245.3 L86.25 225.25 Q79.0 180.4 95.05 137.15 111.65 124.1 135.1 116.2 159.35 108.0 190.85 105.3 L194.1 105.0 202.55 104.45 205.55 101.3 Q204.35 95.0 208.7 94.7 L209.4 94.75 Q209.7 81.05 219.55 77.4 222.4 76.35 226.0 76.15 232.05 75.2 238.05 76.4 L241.5 77.3 Q257.3 82.4 254.1 102.6 L252.35 104.15 Q252.55 106.35 252.25 108.2 L257.1 110.35 259.05 111.25 262.0 112.65 Q280.55 121.65 295.85 133.9 303.65 140.15 310.65 147.2 317.3 178.6 311.4 210.1 L322.95 230.35 Q317.5 261.1 318.3 291.8 L343.3 316.55 Q335.85 326.15 333.4 341.2 L328.3 341.2 M148.5 347.25 L148.55 347.2 148.5 347.2 148.5 347.25 M272.2 269.65 L282.3 322.3 Q282.8 319.25 283.6 316.2 L285.95 308.0 Q288.65 300.15 292.6 292.45 277.8 270.95 269.8 256.0 269.9 258.85 272.2 269.65" fill="#000000" fill-rule="evenodd" stroke="none"/>
  </g>
</svg>
