<?xml version="1.0" encoding="UTF-8" standalone="no"?>
<svg xmlns:xlink="http://www.w3.org/1999/xlink" height="381.35px" width="249.3px" xmlns="http://www.w3.org/2000/svg">
  <g transform="matrix(1.0, 0.0, 0.0, 1.0, -94.0, -75.75)">
    <path d="M328.3 341.2 L328.55 348.5 328.35 349.5 Q326.6 355.8 319.7 355.3 315.3 354.55 313.85 351.6 307.5 354.55 303.75 352.4 302.1 351.45 301.0 349.5 300.2 348.15 299.65 346.3 295.2 347.85 292.4 346.3 289.9 344.95 288.65 341.25 285.1 340.7 283.25 339.0 284.9 333.55 283.5 328.15 L283.5 328.1 282.3 322.3 Q282.8 319.25 283.6 316.2 L285.5 309.65 285.95 308.0 Q287.85 302.5 290.4 297.05 L290.6 296.55 292.6 292.45 Q292.5 284.55 297.55 280.05 288.05 263.55 283.7 245.1 L281.3 234.4 Q275.0 228.7 273.4 222.6 L276.25 223.9 Q275.55 222.3 275.75 221.1 275.85 220.05 276.65 219.3 L274.9 218.3 275.0 217.1 Q275.4 214.15 277.15 212.15 279.0 210.05 282.25 209.0 L282.9 203.6 Q286.5 190.2 285.55 178.0 L285.6 178.0 285.7 177.9 Q289.3 170.4 283.05 165.95 L282.95 165.95 282.9 165.95 281.4 162.65 279.3 163.95 279.2 163.9 279.1 163.9 274.65 165.4 274.55 165.45 274.55 165.55 272.8 165.9 273.35 174.1 279.35 173.0 Q284.45 171.25 274.8 165.6 277.2 165.05 279.2 164.15 L279.3 164.05 Q281.35 164.95 282.85 166.0 L282.85 166.1 282.9 166.15 Q289.0 170.5 285.45 177.8 L285.45 177.9 285.5 177.95 283.6 181.0 278.1 181.3 278.05 181.2 277.95 181.2 273.4 181.2 273.35 181.2 273.3 181.25 273.3 181.3 272.5 181.25 273.3 181.75 273.3 181.85 273.3 181.95 273.4 182.0 273.35 183.15 272.8 189.8 276.4 189.25 Q280.7 187.95 275.05 183.15 L273.5 181.95 273.55 181.85 273.55 181.45 277.95 181.45 278.05 181.4 279.5 183.15 Q287.4 193.4 277.75 197.05 L272.35 197.65 272.3 197.55 272.2 197.55 271.65 197.55 268.25 197.4 268.2 197.4 268.15 197.5 268.15 197.6 270.6 202.4 270.65 202.5 270.7 202.5 269.45 207.4 270.25 207.3 Q272.25 206.65 270.75 202.5 L270.85 202.4 270.85 202.3 Q270.05 200.3 268.5 197.65 L271.65 197.8 272.2 197.8 272.25 197.8 Q279.45 214.25 271.4 214.95 L267.25 214.55 Q263.0 213.85 259.1 212.2 L257.1 219.15 Q245.85 218.75 240.0 206.65 L239.2 202.8 Q236.2 202.9 233.2 200.65 L233.25 200.6 Q234.65 196.45 235.45 192.4 L235.95 189.35 236.15 187.35 236.15 187.3 236.35 183.25 236.35 183.15 Q236.3 179.6 235.8 176.25 L235.8 176.2 235.8 176.15 Q235.25 172.5 234.1 169.1 L234.05 169.05 234.05 168.95 231.55 163.25 231.5 163.2 231.5 163.15 230.8 161.9 228.05 157.6 228.0 157.55 Q225.9 157.0 224.15 156.25 L224.05 156.25 224.0 156.3 Q217.25 153.3 215.25 146.55 L206.85 145.0 206.8 144.9 206.75 144.85 189.05 141.95 188.95 141.95 188.9 142.05 163.75 138.8 158.1 140.45 Q166.75 142.3 179.1 147.1 L177.2 156.6 193.7 157.35 190.95 147.5 189.05 142.2 206.7 145.1 206.75 145.1 207.7 147.4 Q209.65 152.3 211.0 157.1 L224.0 156.35 224.0 156.4 224.05 156.5 227.9 157.8 230.6 162.0 230.8 162.4 231.0 163.15 230.9 163.2 230.9 163.25 212.8 164.2 212.75 164.1 212.65 164.1 195.1 164.5 195.0 164.5 195.0 164.6 Q184.4 164.65 176.1 164.2 175.55 167.75 175.15 171.4 185.45 171.95 196.0 171.75 L195.15 164.75 212.65 164.35 212.7 164.35 213.55 171.1 232.2 169.3 233.8 169.05 233.85 169.15 233.85 169.2 Q234.95 172.55 235.55 176.15 L233.8 176.5 233.7 176.55 233.7 176.65 213.9 179.8 213.85 179.7 213.75 179.7 196.2 181.2 196.1 181.25 196.1 181.3 Q184.7 181.85 174.15 181.0 L174.0 183.15 173.5 190.0 Q183.6 190.4 195.95 189.35 L196.6 189.3 195.95 189.15 Q195.95 186.15 196.1 183.15 L196.1 182.75 196.2 181.45 213.75 179.95 213.55 183.15 213.5 183.55 213.2 187.35 235.15 183.5 236.1 183.3 235.9 187.3 235.7 189.3 235.7 189.35 Q223.6 192.65 212.85 194.85 L212.8 194.75 212.7 194.75 195.9 197.35 195.8 197.4 195.8 197.5 Q183.5 198.7 173.15 198.15 L173.05 204.05 172.2 208.35 Q182.25 210.45 196.1 207.45 196.0 205.85 196.05 204.25 L195.9 197.6 195.95 197.6 212.7 195.0 212.4 202.5 Q222.95 198.55 235.15 192.45 234.35 196.4 233.0 200.5 L233.0 200.6 Q222.0 206.65 212.35 210.5 L212.45 218.35 212.75 225.25 213.1 230.7 213.4 234.0 Q215.25 239.9 217.05 244.3 220.6 253.1 223.9 255.85 L223.9 255.9 223.9 256.0 224.0 256.05 Q235.15 257.2 237.65 262.35 218.95 259.6 202.7 265.35 L202.65 265.35 Q200.7 262.15 201.95 259.7 203.2 257.2 207.65 255.45 L207.75 255.35 207.75 255.25 207.65 255.2 207.55 255.2 207.5 255.2 Q202.95 257.05 201.7 259.6 200.4 262.2 202.45 265.5 L202.55 265.55 202.6 265.5 203.9 267.25 Q211.8 276.75 228.3 277.55 224.3 277.95 219.85 279.8 L219.8 279.85 219.8 279.9 204.25 276.45 Q203.0 286.05 210.95 284.15 L213.0 283.55 Q216.5 281.35 219.8 279.95 L219.85 280.05 219.95 280.05 Q224.95 277.95 229.45 277.75 232.2 277.85 234.95 279.05 L235.05 279.05 235.15 278.95 Q238.05 280.2 240.8 282.75 246.8 282.55 244.65 275.3 L235.15 278.85 235.05 278.8 Q232.5 277.65 229.9 277.5 240.35 274.8 238.4 264.65 238.35 263.45 237.85 262.5 L237.95 262.4 237.95 262.3 Q235.5 257.05 224.3 255.8 244.05 249.75 260.2 253.0 268.9 260.75 256.2 273.85 267.75 279.55 266.55 288.95 264.0 306.05 276.35 330.6 279.3 336.6 273.05 339.1 276.0 342.35 276.0 346.85 276.0 351.55 272.75 354.85 270.85 356.85 268.45 357.65 257.35 370.3 254.6 387.75 253.75 390.65 259.3 393.55 265.9 399.05 274.15 404.55 L283.45 410.5 287.7 413.0 Q290.65 414.65 293.0 416.4 301.8 422.95 302.2 430.95 L298.05 431.7 287.65 433.0 273.45 433.4 260.85 432.15 Q253.4 430.95 246.6 428.55 241.3 426.65 236.4 424.1 224.85 425.15 216.05 421.3 216.65 410.05 220.3 399.65 220.0 395.9 222.75 394.25 238.65 381.6 238.05 368.95 233.7 366.65 234.15 357.55 235.45 350.85 242.05 348.55 L241.95 343.3 Q237.25 341.3 237.05 336.8 236.8 328.7 245.15 325.4 252.25 317.6 248.4 306.25 237.8 305.25 235.5 300.15 232.6 293.3 237.4 287.2 L235.7 285.95 Q229.45 282.7 223.15 285.95 L211.0 292.45 Q194.3 295.9 199.05 284.9 L188.75 291.85 Q196.05 298.65 191.65 304.1 183.05 318.8 192.7 337.5 190.75 350.55 184.3 348.6 183.65 351.95 181.4 354.65 187.45 360.55 179.15 367.15 L178.9 367.5 Q161.3 392.05 167.4 411.65 L177.4 433.95 Q179.55 438.95 179.2 443.05 178.7 449.1 172.7 453.2 169.3 455.45 164.2 457.1 L154.1 456.75 Q146.35 456.15 139.65 454.45 129.85 452.0 122.35 447.25 L118.8 444.8 119.05 438.8 119.8 432.2 Q121.4 421.05 125.85 409.95 128.15 397.15 137.05 390.4 145.5 375.65 149.35 359.6 L149.4 359.6 152.85 358.65 154.3 362.65 154.35 362.7 154.45 362.75 165.95 360.25 166.0 360.2 166.05 360.1 Q165.6 349.6 166.15 339.15 170.1 341.4 173.25 341.65 176.55 341.85 178.85 339.75 L180.45 337.85 180.5 337.75 180.45 337.7 173.9 328.15 177.65 310.65 177.65 310.55 177.6 310.5 160.05 300.4 Q165.7 279.75 178.05 282.9 L189.0 275.8 Q187.8 275.3 186.5 274.95 174.7 270.6 168.65 263.25 160.55 251.4 184.9 250.65 199.95 250.0 207.5 255.2 203.5 252.1 200.5 242.6 199.2 238.5 198.1 233.25 L197.5 228.35 197.2 224.5 196.65 217.6 196.5 215.5 Q180.4 219.05 168.65 214.95 167.2 215.9 165.45 215.35 149.45 208.7 142.3 194.1 139.85 189.05 138.5 183.15 L137.75 179.6 Q135.1 166.75 129.75 159.05 125.85 153.2 119.25 153.2 L117.95 154.8 Q116.1 168.35 115.55 183.15 115.0 197.8 115.65 213.6 L115.75 216.05 116.55 221.35 117.55 222.6 Q119.5 225.25 120.15 227.7 120.75 229.75 120.45 231.65 L120.3 232.3 118.65 232.6 Q119.65 234.55 117.9 236.5 L121.0 235.8 Q121.45 239.4 118.0 242.2 L119.05 264.15 Q122.95 275.2 131.05 286.7 138.85 285.4 146.65 292.7 L146.7 292.9 146.7 292.95 146.75 292.95 177.35 310.65 173.65 328.15 173.65 328.2 173.65 328.25 180.2 337.75 178.7 339.55 Q176.45 341.55 173.25 341.4 170.05 341.15 166.05 338.85 L166.0 338.85 165.9 338.9 165.9 338.95 Q165.35 349.45 165.8 360.0 L154.5 362.45 153.05 358.4 153.0 358.35 152.95 358.35 152.85 358.35 Q151.0 359.05 149.35 359.35 L147.05 359.4 141.1 356.35 141.15 356.35 140.9 356.1 140.9 356.15 140.8 355.95 140.75 355.95 140.65 355.85 140.65 355.9 140.3 355.4 140.3 355.45 139.8 354.8 139.8 354.75 133.0 350.3 132.9 350.3 132.85 350.3 113.85 337.75 115.65 321.7 116.8 309.75 117.15 305.65 Q114.3 296.2 122.85 288.55 112.0 272.9 106.15 254.9 L102.8 244.45 Q96.1 239.3 94.0 233.3 L96.95 234.35 Q96.1 232.85 96.2 231.65 96.2 230.6 96.95 229.75 L95.15 228.9 95.15 227.7 Q95.3 224.7 96.85 222.6 98.5 220.35 101.65 219.05 L101.85 213.6 Q102.65 194.4 103.4 183.15 104.2 170.25 106.2 158.1 102.7 151.9 104.25 146.0 106.8 131.6 120.2 133.9 125.05 126.5 129.25 133.05 L157.4 134.25 188.0 124.7 Q189.25 119.55 192.6 114.4 195.5 109.9 199.95 105.35 203.95 101.3 209.2 97.25 209.0 96.0 209.4 94.75 209.7 81.05 219.55 77.4 222.4 76.35 226.0 76.15 232.05 75.2 238.05 76.4 L241.5 77.3 Q256.4 82.1 254.4 100.3 L254.1 102.6 252.35 104.15 252.4 107.2 252.25 108.2 Q251.7 111.3 249.7 113.5 L249.15 114.0 249.15 114.1 248.0 132.1 246.15 134.35 Q255.3 137.05 263.3 140.25 267.7 142.0 271.8 143.9 L260.05 141.8 259.95 141.8 259.9 141.85 258.1 141.25 Q250.0 138.55 241.7 136.35 L223.75 136.35 219.4 132.85 217.55 131.3 205.2 129.5 Q204.65 132.2 204.5 135.2 L204.5 139.3 204.15 139.25 203.75 139.2 203.7 139.2 188.05 137.1 188.0 137.1 187.45 134.1 Q187.2 132.1 187.25 130.15 L168.25 135.15 187.1 137.1 187.9 137.2 187.9 137.3 188.0 137.35 203.7 139.45 204.1 139.5 204.5 139.55 204.6 139.5 204.65 139.45 218.55 141.65 Q225.75 145.5 230.75 142.85 242.3 140.1 256.8 141.55 L259.9 141.9 259.9 142.0 260.0 142.05 272.3 144.3 272.4 144.25 272.45 144.2 275.7 144.95 Q280.15 142.1 284.35 145.85 292.9 144.65 294.95 156.95 303.35 179.1 296.65 204.75 L296.55 207.2 296.9 212.55 297.75 213.9 Q299.45 216.7 299.9 219.15 300.35 221.25 299.9 223.15 L299.7 223.75 298.0 223.95 Q298.85 225.95 296.95 227.75 L300.1 227.35 Q300.25 230.9 296.55 233.45 L295.8 255.4 Q298.75 266.75 305.85 278.85 316.55 280.35 318.3 291.8 L343.3 316.55 Q335.85 326.15 333.4 341.2 L328.3 341.2 M209.25 119.2 L208.3 120.8 Q207.1 123.0 206.25 125.45 L212.45 126.5 209.05 122.9 209.25 119.2 M151.85 309.3 L151.65 309.2 151.2 310.0 151.85 309.3 M145.05 139.4 L150.25 139.25 Q150.8 139.0 151.45 138.85 L152.65 138.55 157.25 138.15 128.8 136.1 145.05 139.4 M122.6 340.35 L122.65 340.4 122.6 340.3 122.6 340.35 M148.5 347.25 L148.55 347.2 148.5 347.2 148.5 347.25 M295.95 325.3 L296.35 324.35 296.2 324.1 295.95 325.3" fill="#000000" fill-rule="evenodd" stroke="none"/>
  </g>
</svg>
