<?xml version="1.0" encoding="UTF-8" standalone="no"?>
<svg xmlns:xlink="http://www.w3.org/1999/xlink" height="142.4px" width="215.6px" xmlns="http://www.w3.org/2000/svg">
  <g transform="matrix(1.0, 0.0, 0.0, 1.0, -95.05, -104.45)">
    <path d="M214.3 128.35 L215.6 129.55 219.4 132.85 223.75 136.35 244.45 136.35 248.0 132.1 249.15 114.0 Q251.65 111.7 252.25 108.2 L257.1 110.35 259.05 111.25 262.0 112.65 Q280.55 121.65 295.85 133.9 303.65 140.15 310.65 147.2 L292.0 159.8 Q294.7 173.55 293.3 187.3 L283.05 197.0 Q281.35 206.4 272.2 215.75 269.8 227.2 269.6 242.75 L269.6 246.15 230.3 246.75 Q201.85 247.35 162.1 243.45 162.95 234.1 161.2 224.8 153.85 222.85 150.25 216.5 152.85 209.4 154.5 202.3 155.95 195.9 156.65 189.55 L144.65 180.6 Q134.95 165.2 132.8 154.85 115.25 142.6 95.05 137.15 111.65 124.1 135.1 116.2 159.35 108.0 190.85 105.3 L194.1 105.0 202.55 104.45 195.35 111.95 Q200.85 123.1 214.3 128.35" fill="#000000" fill-rule="evenodd" stroke="none"/>
  </g>
</svg>
