<?xml version="1.0" encoding="UTF-8" standalone="no"?>
<svg xmlns:xlink="http://www.w3.org/1999/xlink" height="75.8px" width="144.85px" xmlns="http://www.w3.org/2000/svg">
  <g transform="matrix(1.0, 0.0, 0.0, 1.0, -143.6, -106.3)">
    <path d="M240.0 146.3 L244.2 144.9 244.75 144.7 244.65 144.55 Q263.2 129.1 258.0 110.75 L259.05 111.25 262.0 112.65 Q270.6 116.8 278.55 121.75 281.65 129.6 284.15 137.85 286.6 145.8 288.45 154.05 262.15 164.15 242.75 182.1 202.7 163.05 158.9 150.9 157.85 142.3 155.25 134.7 151.25 123.05 143.6 113.55 160.55 108.7 180.7 106.3 189.1 127.55 217.65 143.25 L223.5 144.7 229.55 146.3 Q237.2 148.75 240.0 146.3" fill="#000000" fill-rule="evenodd" stroke="none"/>
  </g>
</svg>
