<?xml version="1.0" encoding="UTF-8" standalone="no"?>
<svg xmlns:xlink="http://www.w3.org/1999/xlink" height="136.0px" width="149.7px" xmlns="http://www.w3.org/2000/svg">
  <g transform="matrix(1.0, 0.0, 0.0, 1.0, -143.6, -110.85)">
    <path d="M215.7 196.1 Q225.45 219.85 230.3 246.75 244.65 227.1 254.8 207.45 L261.15 194.2 Q273.55 166.25 277.5 138.35 278.6 130.7 279.05 123.05 281.85 130.3 284.15 137.85 291.3 161.3 293.3 187.3 L283.05 197.0 Q281.35 206.4 272.2 215.75 269.8 227.2 269.6 242.75 L269.6 246.15 230.3 246.75 Q201.85 247.35 162.1 243.45 162.95 234.1 161.2 224.8 153.85 222.85 150.25 216.5 152.85 209.4 154.5 202.3 155.95 195.9 156.65 189.55 163.2 157.85 155.25 134.7 151.25 123.05 143.6 113.55 L154.05 110.85 Q168.05 122.9 179.6 136.6 202.3 163.3 215.7 196.1" fill="#000000" fill-rule="evenodd" stroke="none"/>
  </g>
</svg>
