<?xml version="1.0" encoding="UTF-8" standalone="no"?>
<svg xmlns:xlink="http://www.w3.org/1999/xlink" height="201.3px" width="225.2px" xmlns="http://www.w3.org/2000/svg">
  <g transform="matrix(1.0, 0.0, 0.0, 1.0, -78.65, -105.35)">
    <path d="M222.4 246.85 Q223.55 219.65 229.7 194.45 L229.75 194.45 235.6 187.85 Q234.35 165.95 227.35 145.7 L229.55 146.3 Q237.2 148.75 240.0 146.3 L244.2 144.9 244.45 144.65 244.5 144.8 Q251.3 165.85 251.05 187.55 L245.9 193.75 245.8 193.85 245.85 193.75 245.8 193.75 Q240.4 220.6 239.65 246.6 M169.9 107.8 L179.15 136.55 190.85 138.1 194.1 138.6 201.4 139.85 201.35 139.8 198.1 129.85 Q185.75 119.1 180.7 106.35 M133.15 116.85 Q144.75 148.15 149.1 183.95 L156.65 189.55 165.15 195.9 165.4 196.05 Q165.85 162.9 159.15 134.85 L145.6 134.45 M237.3 156.5 Q243.1 170.35 242.8 187.25 L242.8 187.6 238.55 193.9 Q242.15 193.75 245.8 193.75 245.85 193.25 245.85 193.75 L245.9 193.75 M238.55 193.9 L229.75 194.45 M202.3 233.2 L205.3 219.25 207.1 197.65 207.15 197.6 Q194.45 199.75 185.2 199.95 L185.15 200.0 182.65 245.25 M207.15 197.6 L213.45 189.6 Q213.05 161.5 201.4 139.85 M179.15 136.55 Q188.7 162.15 190.5 191.0 L185.2 199.95 M299.1 136.55 L293.8 179.1 293.3 187.3 288.15 192.2 287.3 217.4 296.05 235.35 303.35 293.9 Q297.95 293.8 292.6 292.45 M269.8 256.0 L269.6 246.15 Q269.5 228.45 272.2 215.75 281.35 206.4 283.05 197.0 L288.15 192.2 M258.0 110.75 Q261.15 121.8 255.65 131.85 L258.1 141.2 258.15 141.25 259.05 141.05 262.0 140.5 275.35 138.6 275.35 138.55 267.05 115.2 M244.2 144.9 L244.5 144.8 M258.15 141.25 Q264.95 161.8 262.1 188.7 L257.65 194.0 273.7 195.4 279.55 188.25 Q282.9 161.9 275.35 138.6 M265.35 246.25 L273.65 195.45 273.7 195.4 M293.3 187.3 L293.05 185.0 293.8 179.1 Q293.95 166.0 290.35 152.85 L289.75 150.7 288.0 128.0 M151.9 111.4 Q156.2 122.65 159.15 134.85 M117.3 123.4 Q107.1 174.3 114.9 227.25 L115.0 227.75 115.2 229.35 108.25 247.0 Q114.35 277.0 130.55 299.9 L131.5 302.45 Q124.35 305.45 117.15 305.65 M150.25 216.5 L151.45 213.1 Q150.85 198.15 149.1 183.95 M258.9 233.95 L258.9 214.75 256.25 210.0 252.95 246.4 M203.0 246.4 L205.3 219.25 206.5 213.55 M231.1 239.1 L234.8 213.75 239.95 202.95 M151.45 213.1 Q155.4 201.3 156.65 189.55 M165.4 196.05 Q165.1 215.4 162.4 236.5 M257.65 194.0 L256.25 210.0" fill="none" stroke="#000000" stroke-linecap="round" stroke-linejoin="round" stroke-width="1.0"/>
    <path d="M180.7 106.35 L169.9 107.8 M288.0 128.0 Q292.0 130.85 295.85 133.9 L299.1 136.55 M292.6 292.45 Q277.8 270.95 269.8 256.0 M267.05 115.2 Q264.55 113.85 262.0 112.65 L259.05 111.25 258.0 110.75 M133.15 116.85 L135.1 116.2 Q143.1 113.45 151.9 111.4 M117.15 305.65 Q85.4 277.35 79.65 245.3 L86.25 225.25 Q79.0 180.4 95.05 137.15 104.95 129.35 117.3 123.4 M162.1 243.45 L162.4 236.5 Q162.3 230.65 161.2 224.8 153.85 222.85 150.25 216.5" fill="none" stroke="#000000" stroke-linecap="round" stroke-linejoin="round" stroke-width="2.0"/>
  </g>
</svg>
