<?xml version="1.0" encoding="UTF-8" standalone="no"?>
<svg xmlns:xlink="http://www.w3.org/1999/xlink" height="142.05px" width="144.05px" xmlns="http://www.w3.org/2000/svg">
  <g transform="matrix(1.0, 0.0, 0.0, 1.0, -149.75, -105.3)">
    <path d="M180.7 106.3 Q166.6 108.0 154.05 110.85 M258.0 110.75 L259.05 111.25 262.0 112.65 Q270.6 116.8 278.55 121.75 L279.1 122.1 M162.15 231.45 Q162.65 237.45 162.1 243.45" fill="none" stroke="#000000" stroke-linecap="round" stroke-linejoin="round" stroke-width="2.0"/>
    <path d="M154.05 110.85 Q163.4 124.7 179.9 136.6 L190.85 138.1 191.5 138.2 194.1 138.6 194.7 138.7 203.0 140.15 203.25 140.2 204.25 140.4 213.85 142.4 214.5 142.55 214.8 142.6 216.25 142.95 217.65 143.25 Q189.1 127.55 180.7 106.3 M216.25 142.95 L218.15 143.4 217.65 143.25 M179.9 136.6 L155.25 134.7 Q158.2 143.4 159.15 153.35 197.1 152.15 237.3 156.5 L234.75 147.45 229.9 146.4 229.55 146.3 223.5 144.7 218.15 143.4 M241.8 172.4 Q197.35 169.05 158.7 177.2 157.95 183.2 156.65 189.55 L242.8 187.6 242.8 187.25 242.8 186.8 Q242.9 179.3 241.8 172.4 266.45 166.5 291.1 168.35 292.55 177.65 293.3 187.3 L242.8 187.6 M156.65 189.55 L165.15 195.9 Q170.5 199.75 182.15 199.95 193.4 200.15 210.4 197.0 224.25 194.45 238.55 193.9 257.65 193.1 277.5 195.9 L283.05 197.0 Q282.1 202.25 278.85 207.45 267.65 204.75 253.05 204.15 246.6 203.9 239.45 204.05 L214.1 205.75 Q186.1 208.65 150.4 216.5 L150.25 216.5 150.35 216.25 Q152.9 209.25 154.5 202.3 155.95 195.9 156.65 189.55 M279.1 122.1 L278.95 122.85 Q277.1 131.3 265.7 139.85 L266.95 139.7 284.2 137.95 287.6 150.6 Q262.45 149.2 237.3 156.5 M278.95 122.85 L278.55 121.75 M258.0 110.75 Q263.2 129.1 244.65 144.55 L244.2 144.9 244.15 144.9 M245.7 144.45 L258.25 141.25 259.05 141.05 262.0 140.5 265.7 139.85 265.65 139.9 266.95 139.7 M265.65 139.9 L258.25 141.25 M258.9 233.95 L258.9 226.55 233.1 225.35 230.3 246.75 269.6 246.15 269.6 244.05 269.6 242.75 270.25 229.2 Q265.7 227.45 258.9 226.55 M233.1 225.35 L203.65 226.9 202.3 233.2 M215.15 204.65 L214.1 205.75 M238.55 193.9 Q241.85 198.45 239.95 202.95 L239.45 204.05 M162.1 243.45 Q201.85 247.35 230.3 246.75 M203.65 226.9 Q185.15 228.45 162.15 231.45" fill="none" stroke="#000000" stroke-linecap="round" stroke-linejoin="round" stroke-width="1.0"/>
    <path d="M243.4 145.2 L244.15 144.9 245.7 144.45 244.75 144.7 244.2 144.9 243.4 145.2 243.1 145.25 240.0 146.3 Q238.3 147.8 234.75 147.45" fill="none" stroke="#000000" stroke-linecap="round" stroke-linejoin="round" stroke-width="1.0"/>
  </g>
</svg>
