<?xml version="1.0" encoding="UTF-8" standalone="no"?>
<svg xmlns:xlink="http://www.w3.org/1999/xlink" height="143.8px" width="100.7px" xmlns="http://www.w3.org/2000/svg">
  <g transform="matrix(1.0, 0.0, 0.0, 1.0, -142.6, -103.45)">
    <path d="M202.55 104.45 L194.1 105.0 190.85 105.3 Q164.7 107.5 143.6 113.55 M150.25 216.5 Q153.85 222.85 161.2 224.8 162.95 234.1 162.1 243.45" fill="none" stroke="#000000" stroke-linecap="round" stroke-linejoin="round" stroke-width="2.0"/>
    <path d="M143.6 113.55 Q151.25 123.05 155.25 134.7 173.05 135.35 190.85 138.1 L194.1 138.6 203.25 140.2 207.15 140.95 214.8 142.6 223.5 144.7 229.55 146.3 Q232.5 147.25 234.75 147.45 L231.55 136.35 223.75 136.35 219.4 132.85 215.6 129.55 214.3 128.35 Q200.85 123.1 195.35 111.95 L202.55 104.45 M155.25 134.7 Q163.2 157.85 156.65 189.55 L165.15 195.9 Q170.5 199.75 182.15 199.95 193.4 200.15 210.4 197.0 224.25 194.45 238.55 193.9 L242.8 187.6 242.8 187.25 Q243.1 170.35 237.3 156.5 L234.75 147.45 M156.65 189.55 Q155.95 195.9 154.5 202.3 152.85 209.4 150.25 216.5 M215.15 204.65 L206.5 213.55 202.3 233.2 M230.3 246.75 L234.8 213.75 239.95 202.95 Q241.85 198.45 238.55 193.9" fill="none" stroke="#000000" stroke-linecap="round" stroke-linejoin="round" stroke-width="1.0"/>
  </g>
</svg>
