<?xml version="1.0" encoding="UTF-8" standalone="no"?>
<svg xmlns:xlink="http://www.w3.org/1999/xlink" height="141.35px" width="148.25px" xmlns="http://www.w3.org/2000/svg">
  <g transform="matrix(1.0, 0.0, 0.0, 1.0, -142.6, -105.3)">
    <path d="M258.0 110.75 L259.05 111.25 262.0 112.65 Q270.6 116.8 278.55 121.75 M150.25 216.5 Q153.85 222.85 161.2 224.8 162.95 234.1 162.1 243.45 M180.7 106.3 Q160.55 108.7 143.6 113.55" fill="none" stroke="#000000" stroke-linecap="round" stroke-linejoin="round" stroke-width="2.0"/>
    <path d="M180.7 106.3 Q189.1 127.55 217.65 143.25 L223.5 144.7 229.55 146.3 Q237.2 148.75 240.0 146.3 L244.2 144.9 Q263.25 129.35 258.0 110.75 M278.55 121.75 Q281.65 129.6 284.15 137.85 288.0 150.45 290.35 163.8 276.6 183.75 274.55 195.5 272.95 204.45 278.1 208.65 275.65 212.2 272.2 215.75 269.8 227.2 269.6 242.75 L269.6 246.15 M143.6 113.55 Q151.25 123.05 155.25 134.7 173.05 135.35 190.85 138.1 L194.1 138.6 203.25 140.2 207.15 140.95 214.8 142.6 217.65 143.25 M274.55 195.5 Q256.2 193.15 238.55 193.9 224.25 194.45 210.4 197.0 195.35 199.8 184.8 199.95 183.2 203.0 180.3 205.95 171.45 218.35 150.25 216.5 M237.3 156.5 Q243.1 170.35 242.8 187.25 L242.8 187.6 238.55 193.9 M244.2 144.9 L244.75 144.7 252.25 142.6 259.05 141.05 262.0 140.5 Q272.4 138.6 284.15 137.85 M184.8 199.95 Q194.15 182.15 159.6 160.5 159.25 146.5 155.25 134.7 M253.05 204.4 L258.9 214.75 258.9 233.95 M215.15 204.65 L206.5 213.55 202.3 233.2 M231.1 239.1 L234.8 213.75 239.95 202.95" fill="none" stroke="#000000" stroke-linecap="round" stroke-linejoin="round" stroke-width="1.0"/>
  </g>
</svg>
