<?xml version="1.0" encoding="UTF-8" standalone="no"?>
<svg xmlns:xlink="http://www.w3.org/1999/xlink" height="137.4px" width="151.2px" xmlns="http://www.w3.org/2000/svg">
  <g transform="matrix(1.0, 0.0, 0.0, 1.0, -142.6, -109.85)">
    <path d="M143.6 113.55 L154.05 110.85 M150.25 216.5 Q153.85 222.85 161.2 224.8 162.95 234.1 162.1 243.45" fill="none" stroke="#000000" stroke-linecap="round" stroke-linejoin="round" stroke-width="2.0"/>
    <path d="M156.65 189.55 L165.15 195.9 Q170.5 199.75 182.15 199.95 193.4 200.15 210.4 197.0 L215.7 196.1 M277.5 195.9 L261.15 194.2 M293.3 187.3 L283.05 197.0 Q281.35 206.4 272.2 215.75 269.8 227.2 269.6 242.75 L269.6 246.15 M284.15 137.85 L277.5 138.35 M155.25 134.7 L179.6 136.6 M254.8 207.45 L258.9 214.75 258.9 233.95 M215.15 204.65 L206.5 213.55 202.3 233.2" fill="none" stroke="#000000" stroke-linecap="round" stroke-linejoin="round" stroke-width="1.0"/>
    <path d="M278.55 121.75 L279.05 123.05 279.1 122.1 M284.15 137.85 Q281.85 130.3 279.05 123.05 M293.3 187.3 Q291.3 161.3 284.15 137.85 M143.6 113.55 Q151.25 123.05 155.25 134.7 163.2 157.85 156.65 189.55 155.95 195.9 154.5 202.3 152.85 209.4 150.25 216.5" fill="none" stroke="#000000" stroke-linecap="round" stroke-linejoin="round" stroke-width="1.0"/>
    <path d="M154.05 110.85 Q168.05 122.9 179.6 136.6 202.3 163.3 215.7 196.1 225.45 219.85 230.3 246.75 244.65 227.1 254.8 207.45 L261.15 194.2 Q273.55 166.25 277.5 138.35 278.6 130.7 279.05 123.05" fill="none" stroke="#000000" stroke-linecap="round" stroke-linejoin="round" stroke-width="1.0"/>
  </g>
</svg>
