<?xml version="1.0" encoding="UTF-8" standalone="no"?>
<svg xmlns:xlink="http://www.w3.org/1999/xlink" height="81.2px" width="227.15px" xmlns="http://www.w3.org/2000/svg">
  <g transform="matrix(1.0, 0.0, 0.0, 1.0, -87.15, -105.3)">
    <path d="M313.3 163.7 Q312.4 155.45 310.65 147.2 303.65 140.15 295.85 133.9 280.55 121.65 262.0 112.65 L259.05 111.25 258.0 110.75 M180.7 106.3 Q155.35 109.35 135.1 116.2 111.65 124.1 95.05 137.15 90.8 148.65 88.15 160.3" fill="none" stroke="#000000" stroke-linecap="round" stroke-linejoin="round" stroke-width="2.0"/>
    <path d="M286.95 137.65 Q273.6 138.35 262.0 140.5 L259.05 141.05 252.25 142.6 244.75 144.7 244.2 144.9 240.0 146.3 Q237.2 148.75 229.55 146.3 L223.5 144.7 217.65 143.25 214.8 142.6 207.15 140.95 203.25 140.2 194.1 138.6 190.85 138.1 Q168.25 134.65 145.6 134.45 M293.75 180.1 L293.2 181.05 293.75 180.95" fill="none" stroke="#000000" stroke-linecap="round" stroke-linejoin="round" stroke-width="1.0"/>
    <path d="M258.0 110.75 Q263.25 129.35 244.2 144.9 M217.65 143.25 Q189.1 127.55 180.7 106.3" fill="none" stroke="#000000" stroke-linecap="round" stroke-linejoin="round" stroke-width="1.0"/>
    <path d="M88.15 160.3 L116.85 164.1 109.3 171.55 118.8 179.5 146.8 182.2 160.05 183.3 151.2 175.4 151.25 175.4 158.6 168.35 191.4 170.4 183.75 177.4 183.7 177.4 190.85 185.15 Q209.1 186.0 225.3 186.0 L217.55 178.35 217.6 178.35 226.25 171.1 241.55 170.85 255.25 170.3 263.0 177.05 256.75 185.15 275.95 183.55 281.55 175.3 274.8 168.95 292.4 167.0 297.85 172.9 293.75 180.1 293.75 180.95 305.1 178.5 309.1 170.6 303.25 165.45 313.3 163.7" fill="none" stroke="#000000" stroke-linecap="round" stroke-linejoin="round" stroke-width="1.0"/>
  </g>
</svg>
