<?xml version="1.0" encoding="UTF-8" standalone="no"?>
<svg xmlns:xlink="http://www.w3.org/1999/xlink" height="69.2px" width="62.45px" xmlns="http://www.w3.org/2000/svg">
  <g transform="matrix(1.0, 0.0, 0.0, 1.0, -216.05, -359.1)">
    <path d="M218.15 359.1 Q257.8 371.2 272.1 361.6 266.0 370.65 261.1 380.0 258.35 385.25 255.95 390.6 L256.2 390.8 Q258.75 393.15 261.65 395.45 L264.1 397.35 266.6 399.25 270.7 402.2 278.5 407.4 Q256.7 413.85 245.9 428.3 L244.9 427.9 Q240.5 426.25 236.4 424.1 224.85 425.15 216.05 421.3 216.65 410.05 220.3 399.65 L218.65 398.05 221.2 385.5 218.15 359.1" fill="#000000" fill-rule="evenodd" stroke="none"/>
  </g>
</svg>
