<?xml version="1.0" encoding="UTF-8" standalone="no"?>
<svg xmlns:xlink="http://www.w3.org/1999/xlink" height="97.5px" width="164.4px" xmlns="http://www.w3.org/2000/svg">
  <g transform="matrix(1.0, 0.0, 0.0, 1.0, -138.8, -360.6)">
    <path d="M286.15 433.1 L287.25 433.05 300.2 431.35 302.2 430.95 Q301.8 423.1 293.25 416.6 L287.7 413.0 283.3 410.4 278.5 407.4 270.7 402.2 266.95 399.5 266.7 399.35 266.6 399.25 266.25 399.0 262.1 395.8 261.9 395.65 261.65 395.45 261.1 395.0 256.2 390.8 255.95 390.6 Q258.35 385.25 261.1 380.0 266.0 370.65 272.1 361.6 M142.05 455.0 L142.75 455.15 160.65 457.1 164.2 457.1 164.75 456.95 Q169.25 455.4 172.4 453.4" fill="none" stroke="#000000" stroke-linecap="round" stroke-linejoin="round" stroke-width="2.0"/>
    <path d="M272.1 361.6 Q263.1 367.65 244.1 365.1 L236.3 395.9 Q242.45 415.45 286.15 433.1 M172.4 453.4 Q160.1 426.45 157.2 399.55 160.85 384.75 166.1 370.4 156.35 369.9 146.9 367.75 L141.4 398.75 Q136.85 426.2 142.05 455.0" fill="none" stroke="#000000" stroke-linecap="round" stroke-linejoin="round" stroke-width="1.0"/>
  </g>
</svg>
