<?xml version="1.0" encoding="UTF-8" standalone="no"?>
<svg xmlns:xlink="http://www.w3.org/1999/xlink" height="130.95px" width="89.1px" xmlns="http://www.w3.org/2000/svg">
  <g transform="matrix(1.0, 0.0, 0.0, 1.0, -117.8, -327.15)">
    <path d="M205.9 331.0 L196.0 348.65 187.85 362.15 187.6 362.5 Q184.65 366.25 182.15 370.05 L179.4 374.35 177.45 377.75 Q175.05 382.15 173.2 386.5 171.1 391.5 169.75 396.55 168.7 400.4 168.1 404.3 167.55 408.0 167.4 411.65 L177.4 433.95 Q181.7 443.9 176.1 450.25 172.35 454.45 164.2 457.1 143.1 457.2 128.75 450.7 123.3 448.25 118.8 444.8 118.85 440.15 119.35 435.5 120.75 422.7 125.85 409.95 L122.3 400.55 128.75 393.55 130.6 374.35 M173.75 328.15 L180.35 337.75 178.75 339.65 Q176.5 341.7 173.25 341.5 170.05 341.25 166.0 338.95 165.7 343.8 165.7 348.65 165.65 354.35 165.9 360.1 L154.4 362.6 152.9 358.45 Q144.85 361.8 139.7 354.85 L132.9 350.4 130.65 373.95" fill="none" stroke="#000000" stroke-linecap="round" stroke-linejoin="round" stroke-width="2.0"/>
    <path d="M205.9 331.0 Q191.6 333.25 173.75 328.15" fill="none" stroke="#000000" stroke-linecap="round" stroke-linejoin="round" stroke-width="1.0"/>
  </g>
</svg>
