<?xml version="1.0" encoding="UTF-8" standalone="no"?>
<svg xmlns:xlink="http://www.w3.org/1999/xlink" height="110.05px" width="172.95px" xmlns="http://www.w3.org/2000/svg">
  <g transform="matrix(1.0, 0.0, 0.0, 1.0, -117.1, -313.9)">
    <path d="M152.9 358.4 L152.9 358.45 154.4 362.6 165.9 360.1 165.8 357.3 165.7 348.65 165.7 347.05 165.7 346.35 165.9 338.95 166.0 338.95 Q170.05 341.25 173.25 341.5 175.2 341.6 176.75 340.95 177.85 340.5 178.75 339.65 L180.35 337.75 173.75 328.15 176.8 313.9 180.1 314.35 182.85 326.55 205.9 331.0 199.85 342.0 Q202.5 349.1 200.6 356.2 L191.3 356.5 Q182.9 357.75 176.25 362.85 175.8 366.95 176.6 370.4 177.25 373.2 178.7 375.55 179.9 377.5 181.7 379.1 L169.3 398.2 174.9 410.0 170.25 418.05 167.4 411.65 Q153.8 401.75 138.3 405.25 L136.4 405.7 Q133.85 406.35 131.3 407.4 128.6 408.5 125.85 409.95 124.0 414.6 122.65 419.25 L117.1 407.25 122.3 400.55 128.75 393.55 126.3 368.95 Q129.0 368.95 131.2 368.2 134.15 367.15 136.15 364.7 138.2 362.2 139.25 358.15 L139.3 358.2 139.3 358.1 139.25 358.1 Q136.75 354.7 132.8 351.95 L132.95 350.4 139.7 354.85 142.0 357.3 Q144.35 359.3 147.25 359.5 L148.35 359.5 Q150.5 359.4 152.9 358.4 M143.0 386.15 L142.95 386.15 142.75 386.2 143.0 386.25 143.0 386.15 M219.6 332.95 L228.8 333.95 236.95 334.2 237.7 334.2 Q253.9 333.95 266.65 328.3 L272.65 315.85 284.5 315.85 290.05 333.25 282.55 352.25 280.15 352.25 282.15 358.95 274.25 366.9 269.2 366.3 261.4 379.45 261.1 380.0 260.8 380.55 259.25 383.75 Q261.8 384.1 264.35 385.1 L266.75 399.4 264.1 397.35 262.85 396.4 Q247.35 395.3 235.45 408.9 L235.0 409.4 233.4 411.35 Q231.05 414.35 228.9 417.95 227.15 420.75 225.5 423.95 220.45 423.2 216.05 421.3 L208.55 419.5 211.7 408.05 Q215.05 407.7 218.3 406.45 219.1 403.0 220.3 399.65 L218.65 398.05 221.2 385.5 216.45 376.4 220.3 377.45 225.8 378.2 231.15 377.75 Q232.9 377.35 234.5 376.6 240.8 373.6 243.95 365.1 245.45 360.95 246.25 355.55 240.2 353.45 232.75 352.9 L228.45 352.75 223.0 352.85 217.5 353.3 212.5 353.95 Q213.1 342.25 221.8 338.7 220.55 335.8 219.6 332.95 M224.0 403.4 L223.95 403.4 224.0 403.4 223.95 403.6 224.05 403.55 224.2 403.45 224.0 403.4" fill="#000000" fill-rule="evenodd" stroke="none"/>
  </g>
</svg>
