<?xml version="1.0" encoding="UTF-8" standalone="no"?>
<svg xmlns:xlink="http://www.w3.org/1999/xlink" height="73.4px" width="65.85px" xmlns="http://www.w3.org/2000/svg">
  <g transform="matrix(1.0, 0.0, 0.0, 1.0, -218.15, -359.1)">
    <path d="M221.9 391.45 L225.1 392.45 232.05 393.9 Q244.15 395.5 255.95 390.6 258.5 392.9 261.35 395.2 249.9 406.4 235.0 405.5 229.75 405.15 224.1 403.3 L218.65 398.05 221.2 385.5 221.9 391.45 M218.15 359.1 Q226.8 361.75 234.25 363.35 260.9 369.1 272.1 361.6 268.7 366.6 265.7 371.75 255.85 376.4 234.6 371.75 L230.65 370.85 219.25 368.4 218.15 359.1 M270.85 402.3 Q276.9 406.55 284.0 410.8 271.85 417.55 265.6 427.7 264.2 430.0 263.05 432.5 253.2 431.1 244.4 427.75 246.0 424.65 247.95 421.85 256.5 409.2 270.85 402.3" fill="#000000" fill-rule="evenodd" stroke="none"/>
  </g>
</svg>
