<?xml version="1.0" encoding="UTF-8" standalone="no"?>
<svg xmlns:xlink="http://www.w3.org/1999/xlink" height="52.0px" width="229.4px" xmlns="http://www.w3.org/2000/svg">
  <g transform="matrix(1.0, 0.0, 0.0, 1.0, -113.9, -310.55)">
    <path d="M343.3 316.55 Q335.8 326.1 333.4 341.2 L328.25 341.2 328.45 348.55 Q327.1 355.9 319.65 355.3 315.25 354.55 313.75 351.6 307.35 354.55 303.7 352.45 300.85 350.75 299.6 346.35 295.1 347.85 292.35 346.35 289.85 345.0 288.55 341.3 285.1 340.7 283.2 339.1 284.9 333.55 283.5 328.1 L283.5 328.05 289.5 319.8 Q291.7 319.25 294.15 321.6 L296.35 324.4 Q298.75 324.0 300.75 324.75 301.9 325.15 302.95 326.0 304.0 326.85 304.85 328.2 310.75 325.8 314.0 331.45 317.45 330.0 323.55 330.6 L324.7 320.75 343.3 316.55 M160.9 339.1 L166.25 334.1 Q166.6 328.4 167.2 322.85 167.3 321.5 167.55 320.2 L167.75 317.9 177.5 310.55 173.85 328.1 180.35 337.75 178.75 339.65 Q176.45 341.65 173.3 341.45 170.05 341.2 166.05 338.9 L165.95 338.9 Q165.55 349.5 165.95 360.1 L154.4 362.55 152.95 358.35 Q144.85 361.7 139.7 354.85 L113.9 337.75 134.35 343.85 Q142.0 348.25 148.55 347.2 L148.65 347.2 Q152.1 346.6 155.25 344.5 155.75 344.05 156.4 343.65 L156.6 343.45 Q158.8 341.65 160.9 339.1" fill="#000000" fill-rule="evenodd" stroke="none"/>
  </g>
</svg>
