<?xml version="1.0" encoding="UTF-8" standalone="no"?>
<svg xmlns:xlink="http://www.w3.org/1999/xlink" height="34.1px" width="219.1px" xmlns="http://www.w3.org/2000/svg">
  <g transform="matrix(1.0, 0.0, 0.0, 1.0, -100.3, -272.55)">
    <path d="M119.85 290.95 Q120.55 291.65 120.55 292.65 120.55 293.65 119.85 294.35 119.15 295.05 118.15 295.05 117.15 295.05 116.45 294.35 115.75 293.65 115.75 292.65 115.75 291.65 116.45 290.95 117.15 290.25 118.15 290.25 119.15 290.25 119.85 290.95 M101.3 289.35 L113.05 288.5 Q129.55 286.5 145.35 280.3 M146.8 292.85 Q135.35 302.4 123.85 304.85 L117.15 305.65 M125.95 300.45 Q125.95 301.45 125.25 302.15 124.55 302.85 123.55 302.85 122.55 302.85 121.85 302.15 121.15 301.45 121.15 300.45 121.15 299.45 121.85 298.75 122.55 298.05 123.55 298.05 124.55 298.05 125.25 298.75 125.95 299.45 125.95 300.45 M123.85 304.85 Q116.95 303.4 118.75 297.15 L109.3 298.2 M113.05 288.5 Q111.1 295.5 118.75 297.15 131.55 294.75 146.0 287.0 M288.65 286.6 Q305.9 288.05 318.2 283.05 M318.4 273.55 Q303.95 280.0 284.1 279.8 M292.6 292.45 Q305.45 295.7 318.3 291.8" fill="none" stroke="#000000" stroke-linecap="round" stroke-linejoin="round" stroke-width="1.0"/>
    <path d="M145.35 280.3 L146.0 287.0 146.3 289.6 146.8 292.85 M117.15 305.65 Q113.0 301.95 109.3 298.2 L101.3 289.35 M318.2 283.05 L318.4 273.55 M284.1 279.8 L288.65 286.6 292.6 292.45 M318.3 291.8 L318.2 283.05" fill="none" stroke="#000000" stroke-linecap="round" stroke-linejoin="round" stroke-width="2.0"/>
  </g>
</svg>
