<?xml version="1.0" encoding="UTF-8" standalone="no"?>
<svg xmlns:xlink="http://www.w3.org/1999/xlink" height="75.65px" width="248.25px" xmlns="http://www.w3.org/2000/svg">
  <g transform="matrix(1.0, 0.0, 0.0, 1.0, -74.7, -230.35)">
    <path d="M100.55 236.75 L104.35 240.75 Q109.65 245.85 116.3 250.2 L118.6 251.6 Q132.2 251.4 146.8 248.1 145.4 256.65 145.1 265.2 134.25 268.3 123.4 269.6 L124.3 274.2 Q125.1 277.85 126.25 281.6 L127.05 284.05 127.65 285.85 Q136.6 283.7 145.35 280.3 L145.65 284.15 146.3 289.6 146.8 292.85 Q140.4 298.2 134.0 301.3 130.75 302.9 127.5 303.9 L125.65 304.45 122.35 305.15 117.1 305.95 116.85 306.0 Q108.6 297.6 101.6 289.35 L101.45 289.2 99.6 287.0 Q86.55 271.45 77.45 256.25 L74.7 233.8 77.95 232.8 Q82.75 231.5 88.4 231.05 L95.85 230.85 98.25 234.0 100.55 236.75 M322.0 236.05 Q320.5 245.6 319.6 255.15 310.65 259.2 301.25 261.4 288.3 264.45 274.4 264.2 L269.8 256.0 Q269.5 249.05 269.6 242.75 284.45 243.3 299.35 239.4 311.15 236.3 322.95 230.35 L322.0 236.05 M284.1 279.8 Q294.75 279.9 303.85 278.1 311.7 276.55 318.4 273.55 L318.2 284.15 318.3 291.8 Q312.35 293.6 306.4 293.9 299.5 294.2 292.6 292.45 L287.0 284.15 284.1 279.8" fill="#000000" fill-rule="evenodd" stroke="none"/>
  </g>
</svg>
