<?xml version="1.0" encoding="UTF-8" standalone="no"?>
<svg xmlns:xlink="http://www.w3.org/1999/xlink" height="75.15px" width="72.1px" xmlns="http://www.w3.org/2000/svg">
  <g transform="matrix(1.0, 0.0, 0.0, 1.0, -74.7, -230.85)">
    <path d="M100.55 236.75 L104.35 240.75 Q109.65 245.85 116.3 250.2 L118.6 251.6 Q132.2 251.4 146.8 248.1 145.4 256.65 145.1 265.2 134.25 268.3 123.4 269.6 L124.3 274.2 Q125.1 277.85 126.25 281.6 L127.05 284.05 127.65 285.85 Q136.6 283.7 145.35 280.3 L145.65 284.15 146.3 289.6 146.8 292.85 Q140.4 298.2 134.0 301.3 130.75 302.9 127.5 303.9 L125.65 304.45 122.35 305.15 117.1 305.95 116.85 306.0 Q108.6 297.6 101.6 289.35 L101.45 289.2 99.6 287.0 Q86.55 271.45 77.45 256.25 L74.7 233.8 77.95 232.8 Q82.75 231.5 88.4 231.05 L95.85 230.85 98.25 234.0 100.55 236.75" fill="#000000" fill-rule="evenodd" stroke="none"/>
  </g>
</svg>
