<?xml version="1.0" encoding="UTF-8" standalone="no"?>
<svg xmlns:xlink="http://www.w3.org/1999/xlink" height="77.65px" width="250.25px" xmlns="http://www.w3.org/2000/svg">
  <g transform="matrix(1.0, 0.0, 0.0, 1.0, -73.7, -229.35)">
    <path d="M77.95 232.8 Q82.75 231.5 88.4 231.05 L95.85 230.85 Q97.95 233.85 100.55 236.75 107.15 244.25 116.3 250.2 L118.6 251.6 122.15 253.65 Q122.05 257.75 122.4 261.9 122.7 265.7 123.4 269.6 L124.3 274.2 Q125.1 277.85 126.25 281.6 119.75 280.05 113.3 275.9 119.75 280.05 126.25 281.6 L127.05 284.05 127.65 285.85 Q130.2 293.4 134.0 301.3 125.55 305.4 117.15 305.65 108.75 297.8 101.6 289.35 L101.45 289.2 99.6 287.0 Q86.55 271.45 77.45 256.25 L74.7 233.8 77.95 232.8 M113.1 276.0 L99.6 280.2 99.6 287.0 99.6 280.2 113.1 276.0 113.1 276.05 113.3 275.9 113.1 276.0" fill="url(#gradient0)" fill-rule="evenodd" stroke="none"/>
    <path d="M126.25 281.6 Q125.1 277.85 124.3 274.2 L123.4 269.6 Q122.7 265.7 122.4 261.9 122.05 257.75 122.15 253.65 L118.6 251.6 116.3 250.2 Q107.15 244.25 100.55 236.75 97.95 233.85 95.85 230.85 L88.4 231.05 Q82.75 231.5 77.95 232.8 M126.25 281.6 L127.05 284.05 127.65 285.85 Q136.6 283.7 145.35 280.3 M146.8 292.85 Q140.4 298.2 134.0 301.3 125.55 305.4 117.15 305.65 M145.1 265.2 Q134.25 268.3 123.4 269.6 M146.8 248.1 Q132.25 251.4 118.6 251.6 M134.0 301.3 Q130.2 293.4 127.65 285.85 M319.6 255.15 Q298.5 264.65 274.4 264.2 M269.8 256.0 Q269.5 249.05 269.6 242.75 296.25 243.75 322.95 230.35 M318.3 291.8 Q305.45 295.7 292.6 292.45 M284.1 279.8 Q303.95 280.0 318.4 273.55" fill="none" stroke="#000000" stroke-linecap="round" stroke-linejoin="round" stroke-width="1.0"/>
    <path d="M77.95 232.8 L74.7 233.8 77.45 256.25 Q86.55 271.45 99.6 287.0 L101.45 289.2 M145.35 280.3 L145.65 284.15 146.3 289.6 146.8 292.85 M117.15 305.65 Q108.75 297.8 101.6 289.35 M146.8 248.1 Q145.4 256.65 145.1 265.2 M322.95 230.35 L322.0 236.05 Q320.5 245.6 319.6 255.15 M274.4 264.2 L269.8 256.0 M318.4 273.55 L318.2 284.15 318.3 291.8 M292.6 292.45 L287.0 284.15 284.1 279.8" fill="none" stroke="#000000" stroke-linecap="round" stroke-linejoin="round" stroke-width="2.0"/>
    <path d="M99.6 287.0 L99.6 280.2 113.1 276.0 113.3 275.9 Q119.75 280.05 126.25 281.6 M101.6 289.35 L101.45 289.2" fill="none" stroke="#000000" stroke-linecap="round" stroke-linejoin="round" stroke-opacity="0.2509804" stroke-width="1.0"/>
    <path d="M88.4 231.05 L95.85 230.85 98.25 234.0 100.55 236.75 Q101.75 243.85 103.7 250.9 106.4 260.75 110.6 270.45 L113.1 276.0 104.35 278.7 113.1 276.0 116.5 282.7 119.2 287.6 121.7 291.9 Q124.35 296.3 127.35 300.75 L127.5 303.9 125.65 304.45 122.35 305.15 122.35 304.0 Q117.1 298.25 112.65 291.9 L110.5 288.75 Q107.2 283.85 104.35 278.7 102.05 274.55 100.1 270.25 95.4 260.15 92.3 249.0 89.9 240.35 88.4 231.05" fill="#ffffff" fill-opacity="0.2509804" fill-rule="evenodd" stroke="none"/>
    <path d="M301.25 261.4 Q288.3 264.45 274.4 264.2 L269.8 256.0 Q269.5 249.05 269.6 242.75 284.45 243.3 299.35 239.4 299.8 250.4 301.25 261.4 M292.6 292.45 L287.0 284.15 284.1 279.8 Q294.75 279.9 303.85 278.1 305.1 284.65 306.65 291.25 L306.4 293.9 Q299.5 294.2 292.6 292.45" fill="#000000" fill-opacity="0.2509804" fill-rule="evenodd" stroke="none"/>
    <path d="M88.4 231.05 L95.85 230.85 98.25 234.0 100.55 236.75 104.35 240.75 Q109.65 245.85 116.3 250.2 L118.6 251.6 Q132.2 251.4 146.8 248.1 M145.1 265.2 Q134.25 268.3 123.4 269.6 L124.3 274.2 Q125.1 277.85 126.25 281.6 L127.05 284.05 127.65 285.85 Q136.6 283.7 145.35 280.3 M146.8 292.85 Q140.4 298.2 134.0 301.3 130.75 302.9 127.5 303.9 L125.65 304.45 122.35 305.15 117.1 305.95 M101.6 289.35 L101.45 289.2 M77.95 232.8 Q82.75 231.5 88.4 231.05 M118.6 251.6 L122.15 253.65 Q122.05 257.75 122.4 261.9 122.7 265.7 123.4 269.6 M127.65 285.85 Q130.2 293.4 134.0 301.3 M319.6 255.15 Q310.65 259.2 301.25 261.4 288.3 264.45 274.4 264.2 M269.8 256.0 Q269.5 249.05 269.6 242.75 284.45 243.3 299.35 239.4 311.15 236.3 322.95 230.35 M284.1 279.8 Q294.75 279.9 303.85 278.1 311.7 276.55 318.4 273.55 M318.3 291.8 Q312.35 293.6 306.4 293.9 299.5 294.2 292.6 292.45" fill="none" stroke="#000000" stroke-linecap="round" stroke-linejoin="round" stroke-width="1.0"/>
    <path d="M146.8 248.1 Q145.4 256.65 145.1 265.2 M145.35 280.3 L145.65 284.15 146.3 289.6 146.8 292.85 M117.1 305.95 L116.85 306.0 Q108.6 297.6 101.6 289.35 M101.45 289.2 L99.6 287.0 Q86.55 271.45 77.45 256.25 L74.7 233.8 77.95 232.8 M322.95 230.35 L322.0 236.05 Q320.5 245.6 319.6 255.15 M274.4 264.2 L269.8 256.0 M292.6 292.45 L287.0 284.15 284.1 279.8 M318.4 273.55 L318.2 284.15 318.3 291.8" fill="none" stroke="#000000" stroke-linecap="round" stroke-linejoin="round" stroke-width="2.0"/>
    <path d="M104.35 278.7 L113.1 276.0 113.3 275.9 114.25 276.5 Q120.2 280.15 126.25 281.6 M99.6 287.0 L99.6 280.2 104.35 278.7" fill="none" stroke="#000000" stroke-linecap="round" stroke-linejoin="round" stroke-opacity="0.2509804" stroke-width="1.0"/>
  </g>
  <defs>
    <linearGradient gradientTransform="matrix(-0.0222, 0.0059, -0.0032, -0.0122, 113.65, 267.75)" gradientUnits="userSpaceOnUse" id="gradient0" spreadMethod="pad" x1="-819.2" x2="819.2">
      <stop offset="0.0" stop-color="#000000" stop-opacity="0.0"/>
      <stop offset="1.0" stop-color="#000000" stop-opacity="0.2509804"/>
    </linearGradient>
  </defs>
</svg>
