<?xml version="1.0" encoding="UTF-8" standalone="no"?>
<svg xmlns:xlink="http://www.w3.org/1999/xlink" height="42.45px" width="65.75px" xmlns="http://www.w3.org/2000/svg">
  <g transform="matrix(1.0, 0.0, 0.0, 1.0, -84.45, -264.2)">
    <path d="M117.15 305.65 L112.7 305.65 Q94.7 290.0 85.45 273.45 L87.7 268.95 87.7 268.9 Q99.95 270.8 112.2 270.45 117.65 287.25 125.5 304.1 L125.6 304.45 Q121.35 305.5 117.15 305.65" fill="#000000" fill-opacity="0.2509804" fill-rule="evenodd" stroke="none"/>
    <path d="M145.1 265.2 L147.95 267.9 Q147.4 278.95 149.2 289.45 L146.8 292.85" fill="none" stroke="#000000" stroke-linecap="round" stroke-linejoin="round" stroke-width="2.0"/>
    <path d="M117.15 305.65 Q121.35 305.5 125.6 304.45 L125.65 304.45 Q136.2 301.65 146.8 292.85 M112.2 270.45 Q99.95 270.8 87.7 268.9 M112.2 270.45 Q128.6 269.9 145.1 265.2" fill="none" stroke="#000000" stroke-linecap="round" stroke-linejoin="round" stroke-width="1.0"/>
    <path d="M87.7 268.9 L87.7 268.95 85.45 273.45 Q94.7 290.0 112.7 305.65 L117.15 305.65" fill="none" stroke="#000000" stroke-linecap="round" stroke-linejoin="round" stroke-width="2.0"/>
  </g>
</svg>
