<?xml version="1.0" encoding="UTF-8" standalone="no"?>
<svg xmlns:xlink="http://www.w3.org/1999/xlink" height="14.05px" width="33.45px" xmlns="http://www.w3.org/2000/svg">
  <g transform="matrix(1.0, 0.0, 0.0, 1.0, -220.9, -98.2)">
    <path d="M229.25 110.75 Q225.75 110.5 223.35 108.6 221.0 106.7 220.9 103.75 220.7 100.8 223.35 99.3 225.9 97.7 229.8 98.45 233.55 99.15 235.95 101.05 238.25 102.95 238.1 105.4 237.9 107.9 235.35 109.4 232.75 111.0 229.25 110.75 M254.1 102.6 L252.35 104.15 Q252.55 106.35 252.25 108.2 251.85 110.45 250.7 112.25 L249.95 112.2 Q246.9 112.0 244.9 110.1 242.85 108.25 243.05 105.75 243.2 103.3 245.5 101.75 247.7 100.15 250.75 100.35 L252.55 100.6 254.35 101.05 254.1 102.6" fill="#000000" fill-rule="evenodd" stroke="none"/>
  </g>
</svg>
