<?xml version="1.0" encoding="UTF-8" standalone="no"?>
<svg xmlns:xlink="http://www.w3.org/1999/xlink" height="114.1px" width="283.85px" xmlns="http://www.w3.org/2000/svg">
  <g transform="matrix(1.0, 0.0, 0.0, 1.0, -55.9, -110.6)">
    <path d="M332.7 143.1 L327.75 151.6 327.0 152.7 327.75 158.35 Q329.4 172.3 329.3 186.2 L322.05 186.2 322.05 186.15 321.75 186.2 322.95 192.9 Q323.55 199.55 321.75 206.25 L304.5 206.25 Q303.7 199.5 301.65 193.1 L298.95 186.15 293.8 178.15 293.65 172.6 Q293.25 166.2 292.0 159.8 L290.4 152.95 290.35 152.85 288.6 144.25 284.4 137.8 283.65 136.75 281.65 133.95 279.1 130.7 Q274.8 125.4 270.05 120.8 264.45 115.3 258.2 110.85 L258.25 110.6 316.2 121.65 339.75 125.5 337.9 131.25 336.3 135.35 334.45 139.5 332.7 143.1 M309.4 178.75 L309.45 178.75 309.6 178.7 309.35 178.45 309.5 178.65 309.4 178.75 M80.15 131.85 L80.65 131.45 80.5 131.35 80.15 131.85 M64.0 121.4 L140.95 114.25 141.0 114.3 Q145.4 119.95 148.65 125.9 L148.7 125.95 150.9 130.25 152.85 134.6 153.1 135.2 154.4 138.75 154.9 140.2 Q156.6 145.5 157.55 151.0 158.25 155.35 158.5 159.9 159.1 170.65 156.85 182.2 L156.55 183.8 140.0 177.45 139.4 177.9 136.0 180.6 135.7 180.85 135.4 181.15 134.9 181.6 Q127.45 188.45 123.55 197.55 121.15 203.1 120.1 209.55 L118.9 209.7 115.15 210.55 Q112.35 211.3 110.05 212.35 L108.95 212.9 Q108.3 213.2 107.75 213.6 101.3 217.55 100.0 224.7 L75.55 224.7 Q72.5 204.9 75.4 185.1 L61.35 174.0 Q57.9 161.5 64.6 149.45 57.95 141.9 56.5 134.4 53.75 121.4 64.0 121.4" fill="#000000" fill-rule="evenodd" stroke="none"/>
  </g>
</svg>
