<?xml version="1.0" encoding="UTF-8" standalone="no"?>
<svg xmlns:xlink="http://www.w3.org/1999/xlink" height="113.6px" width="238.25px" xmlns="http://www.w3.org/2000/svg">
  <g transform="matrix(1.0, 0.0, 0.0, 1.0, -81.35, -95.25)">
    <path d="M199.4 110.35 Q201.55 113.3 205.3 116.25 L203.8 128.3 Q212.05 133.75 223.75 136.35 L244.45 136.35 Q251.7 132.8 255.8 124.65 271.6 129.4 284.35 137.8 272.45 138.6 262.0 140.5 L259.05 141.05 252.25 142.6 244.75 144.7 252.25 142.6 259.05 141.05 262.0 140.5 Q272.45 138.6 284.35 137.8 292.0 142.85 298.55 149.25 L300.1 159.0 Q272.4 148.3 244.75 144.9 L244.75 144.7 244.35 144.85 217.85 143.3 214.8 142.6 207.15 140.95 203.25 140.2 194.1 138.6 190.85 138.1 Q168.25 134.65 145.6 134.45 168.25 134.65 190.85 138.1 L194.1 138.6 203.25 140.2 207.15 140.95 214.8 142.6 217.85 143.3 Q176.1 143.5 134.4 160.35 127.8 158.45 121.25 156.9 L96.3 180.1 92.65 178.3 92.65 169.2 94.05 169.3 Q97.9 169.25 101.7 166.25 105.2 163.45 107.2 159.25 L103.1 157.5 Q104.15 155.4 104.85 152.95 105.6 150.05 105.65 147.4 105.6 150.05 104.85 152.95 104.15 155.4 103.1 157.5 L98.75 155.65 100.15 151.75 Q100.85 149.0 100.95 146.55 L105.65 147.4 109.6 148.15 Q109.5 145.5 108.75 143.05 L108.3 141.7 Q107.1 138.65 105.2 136.8 154.7 121.55 193.7 118.95 197.85 124.35 203.8 128.3 197.85 124.35 193.7 118.95 L199.4 110.35 M311.85 141.55 Q313.75 144.3 315.25 147.25 L312.2 153.8 310.65 147.2 310.6 147.05 310.15 146.65 305.6 143.45 306.55 143.2 310.15 146.65 306.55 143.2 311.85 141.55 M237.9 164.75 L237.9 160.15 Q253.95 158.45 251.8 175.4 249.45 163.35 237.9 164.75 M85.65 143.85 L87.7 144.2 Q86.9 145.95 86.35 148.0 L85.85 150.15 84.0 149.35 84.4 147.45 Q84.9 145.5 85.65 143.85 M94.35 139.15 Q101.5 138.9 97.35 154.5 98.1 143.25 93.6 142.85 L94.1 139.15 94.35 139.15 M109.6 148.15 Q109.7 151.4 108.75 154.95 L107.2 159.25 108.75 154.95 Q109.7 151.4 109.6 148.15" fill="#ffffff" fill-opacity="0.2509804" fill-rule="evenodd" stroke="none"/>
    <path d="M244.6 177.45 L245.1 181.5 Q232.0 183.75 230.9 170.65 236.9 179.95 244.6 177.45 M87.55 149.05 Q87.55 153.5 89.45 155.0 90.35 155.7 91.7 155.75 L90.45 161.1 Q89.15 160.55 88.35 159.5 86.0 156.5 87.55 149.05" fill="#000000" fill-opacity="0.2509804" fill-rule="evenodd" stroke="none"/>
    <path d="M196.7 104.8 Q197.35 107.55 199.4 110.35 201.55 113.3 205.3 116.25 L208.3 118.4 209.25 119.05 209.05 122.9 Q212.05 126.3 215.6 129.55 L219.4 132.85 223.75 136.35 244.45 136.35 248.0 132.1 248.6 123.05 249.15 114.0 Q251.65 111.7 252.25 108.2 M313.95 171.8 L300.1 159.0 Q279.8 183.25 237.35 208.35 186.35 175.05 134.4 160.35 127.8 158.45 121.25 156.9 L96.3 180.1 92.65 178.3 85.55 174.7 M99.4 133.95 L100.65 134.2 Q101.8 134.5 102.8 135.05 104.1 135.75 105.2 136.8 107.1 138.65 108.3 141.7 L108.75 143.05 Q109.5 145.5 109.6 148.15 109.7 151.4 108.75 154.95 L107.2 159.25 Q105.2 163.45 101.7 166.25 97.9 169.25 94.05 169.3 L92.65 169.2 91.35 168.9 Q88.75 168.2 86.9 166.45 M193.7 118.95 Q189.2 113.15 186.75 105.7 L186.8 105.65 M145.6 134.45 Q168.25 134.65 190.85 138.1 L194.1 138.6 203.25 140.2 207.15 140.95 214.8 142.6 217.85 143.3 223.5 144.7 229.55 146.3 Q232.5 147.25 234.75 147.45 238.3 147.8 240.0 146.3 L244.35 144.85 244.75 144.7 252.25 142.6 259.05 141.05 262.0 140.5 Q272.45 138.6 284.35 137.8 L286.95 137.65 M255.8 124.65 Q251.7 132.8 244.45 136.35 M203.8 128.3 Q212.05 133.75 223.75 136.35 M203.8 128.3 Q197.85 124.35 193.7 118.95 M205.3 99.35 L196.4 102.35 Q196.4 103.6 196.7 104.8 M235.6 159.05 Q237.35 158.2 239.35 157.95 L241.35 157.8 Q246.85 157.8 250.8 161.7 254.7 165.65 254.7 171.15 254.7 173.75 253.8 176.05 L253.45 176.85 Q252.5 178.85 250.8 180.55 L248.75 182.25 247.5 183.0 246.95 183.3 Q244.4 184.5 241.35 184.5 235.85 184.5 231.9 180.55 228.0 176.65 228.05 171.15 228.05 168.85 228.7 166.8 L229.4 165.2 Q230.3 163.3 231.9 161.7 233.35 160.25 235.0 159.35 L235.6 159.05 M231.25 154.7 Q235.15 152.65 239.85 152.65 247.4 152.65 252.75 158.0 258.15 163.4 258.15 170.95 258.15 175.05 256.55 178.5 L256.05 179.45 Q254.8 181.8 252.75 183.85 L250.65 185.7 249.85 186.3 249.05 186.8 Q244.95 189.25 239.85 189.25 232.3 189.25 226.9 183.85 221.55 178.5 221.55 170.95 221.55 166.3 223.6 162.45 L224.8 160.45 226.9 158.0 Q228.55 156.35 230.35 155.25 L231.25 154.7 M248.6 123.05 L248.85 122.75 Q255.35 116.1 255.25 109.5 M259.85 111.6 Q258.55 119.15 255.8 124.65 M105.65 147.4 L105.45 144.2 104.7 141.35 Q103.35 137.4 100.65 135.85 99.75 135.25 98.7 135.0 L98.15 134.85 Q94.2 134.1 90.3 137.5 87.35 140.0 85.65 143.85 84.9 145.5 84.4 147.45 L84.0 149.35 Q82.95 154.6 84.5 159.05 L85.05 160.45 Q86.0 162.5 87.45 163.75 88.8 164.95 90.55 165.45 92.6 166.0 94.7 165.4 96.8 164.75 98.95 162.9 101.5 160.7 103.1 157.5 104.15 155.4 104.85 152.95 105.6 150.05 105.65 147.4 M87.7 144.2 Q88.45 142.6 89.35 141.3 L90.8 139.6 90.95 139.4 Q93.1 137.2 95.2 137.05 L96.65 137.2 96.8 137.25 Q99.5 138.05 100.55 142.2 100.95 143.9 100.95 145.8 L100.95 146.55 Q100.85 149.0 100.15 151.75 L98.75 155.65 Q97.5 158.25 95.7 160.15 L95.7 160.2 Q92.65 163.3 89.85 162.55 L87.95 161.45 Q86.6 160.15 86.0 157.55 L85.75 156.4 Q85.25 153.5 85.85 150.15 L86.35 148.0 Q86.9 145.95 87.7 144.2" fill="none" stroke="#000000" stroke-linecap="round" stroke-linejoin="round" stroke-width="1.0"/>
    <path d="M99.4 133.95 Q114.65 123.1 135.1 116.2 157.75 108.5 186.8 105.65 L194.7 98.9 205.9 96.25 M202.55 104.45 L196.7 104.8 M254.1 102.6 L259.85 105.75 259.85 111.6 262.0 112.65 Q280.55 121.65 295.85 133.9 L301.65 138.7 Q304.1 140.9 306.55 143.2 L310.15 146.65 310.65 147.2 Q313.25 159.5 313.95 171.8 M85.55 174.7 Q86.1 170.55 86.9 166.45 85.6 165.2 84.65 163.45 M255.25 109.5 L252.25 108.2 M98.15 134.85 L99.4 133.95" fill="none" stroke="#000000" stroke-linecap="round" stroke-linejoin="round" stroke-width="2.0"/>
    <path d="M205.9 96.25 Q205.2 97.4 205.3 99.35 L205.55 101.3 202.55 104.45 M252.25 108.2 Q252.55 106.35 252.35 104.15 L254.1 102.6 M301.65 138.7 L309.3 138.2 311.85 141.55 Q313.75 144.3 315.25 147.25 317.35 151.35 318.6 155.75 L313.7 164.9 Q313.3 159.3 312.2 153.8 L310.65 147.2 310.6 147.05 310.15 146.65 M84.65 163.45 L83.7 161.4 Q81.45 155.7 83.0 148.95 L83.25 148.15 Q83.85 145.7 84.9 143.65 86.85 139.55 90.3 136.85 94.8 133.25 99.4 133.95" fill="none" stroke="#000000" stroke-linecap="round" stroke-linejoin="round" stroke-width="2.0"/>
  </g>
</svg>
