<?xml version="1.0" encoding="UTF-8" standalone="no"?>
<svg xmlns:xlink="http://www.w3.org/1999/xlink" height="143.9px" width="285.85px" xmlns="http://www.w3.org/2000/svg">
  <g transform="matrix(1.0, 0.0, 0.0, 1.0, -54.9, -103.45)">
    <path d="M156.55 183.8 L140.0 177.45 135.1 175.5 116.65 168.45 115.55 166.75 114.3 164.95 113.8 164.15 107.9 156.35 103.3 151.05 97.6 145.3 93.75 141.75 93.25 141.35 88.25 137.15 86.5 135.75 85.15 134.7 84.4 134.15 81.15 131.8 80.65 131.45 80.5 131.35 Q77.25 129.1 73.85 127.05 69.1 124.1 64.0 121.4 L103.0 117.8 140.95 114.25 141.0 114.3 Q145.4 119.95 148.65 125.9 L148.7 125.95 150.9 130.25 152.85 134.6 153.1 135.2 154.4 138.75 130.5 139.1 129.25 137.85 125.0 133.9 123.25 132.35 118.6 128.55 114.0 125.05 Q109.55 121.85 104.65 118.85 L103.0 117.8 104.65 118.85 Q109.55 121.85 114.0 125.05 L118.6 128.55 123.25 132.35 125.0 133.9 129.25 137.85 130.5 139.1 154.4 138.75 154.9 140.2 Q156.6 145.5 157.55 151.0 158.25 155.35 158.5 159.9 159.1 170.65 156.85 182.2 L156.55 183.8" fill="url(#gradient0)" fill-rule="evenodd" stroke="none"/>
    <path d="M75.4 185.1 L61.35 174.0 Q57.9 161.5 64.6 149.45 66.95 145.3 70.45 141.2 74.5 136.5 80.15 131.85 L80.65 131.45 81.15 131.8 84.4 134.15 85.15 134.7 86.5 135.75 88.25 137.15 93.25 141.35 93.75 141.75 97.6 145.3 103.3 151.05 107.9 156.35 113.8 164.15 114.3 164.95 115.55 166.75 116.65 168.45 135.1 175.5 121.4 183.3 117.1 181.75 113.45 180.65 112.15 180.35 111.6 180.25 109.45 179.85 Q102.45 178.65 96.55 179.95 L95.15 180.3 Q90.25 181.65 86.2 184.75 L85.95 184.95 Q83.35 186.9 81.1 189.6 L75.4 185.1" fill="url(#gradient1)" fill-rule="evenodd" stroke="none"/>
    <path d="M140.0 177.45 L139.4 177.9 136.0 180.6 135.7 180.85 135.4 181.15 134.9 181.6 Q127.45 188.45 123.55 197.55 121.15 203.1 120.1 209.55 L118.9 209.7 115.15 210.55 Q112.35 211.3 110.05 212.35 L108.95 212.9 Q108.3 213.2 107.75 213.6 101.3 217.55 100.0 224.7 L84.3 224.7 75.55 224.7 Q72.5 204.9 75.4 185.1 L81.1 189.6 Q83.35 186.9 85.95 184.95 L86.2 184.75 Q90.25 181.65 95.15 180.3 L96.55 179.95 Q102.45 178.65 109.45 179.85 L111.6 180.25 112.15 180.35 113.45 180.65 117.1 181.75 121.4 183.3 135.1 175.5 140.0 177.45" fill="url(#gradient2)" fill-rule="evenodd" stroke="none"/>
    <path d="M258.25 110.6 L316.2 121.65 339.75 125.5 337.9 131.25 336.3 135.35 334.45 139.5 332.7 143.1 327.75 151.6 327.0 152.7 323.65 157.7 323.4 158.0 322.3 159.55 320.6 161.8 301.1 169.65 293.65 172.6 Q293.25 166.2 292.0 159.8 L290.4 152.95 290.35 152.85 288.6 144.25 284.4 137.8 283.65 136.75 281.65 133.95 279.1 130.7 Q274.8 125.4 270.05 120.8 264.45 115.3 258.2 110.85 L258.25 110.6 M316.2 121.65 L305.8 136.5 281.65 133.95 305.8 136.5 316.2 121.65" fill="url(#gradient3)" fill-rule="evenodd" stroke="none"/>
    <path d="M327.0 152.7 L327.75 158.35 Q329.4 172.3 329.3 186.2 L321.75 186.2 314.25 186.2 Q312.15 181.5 309.6 178.7 L309.35 178.45 Q307.5 176.5 305.45 175.55 L305.0 175.4 304.85 175.35 303.1 174.85 293.65 172.6 301.1 169.65 320.6 161.8 322.3 159.55 323.4 158.0 323.65 157.7 327.0 152.7" fill="url(#gradient4)" fill-rule="evenodd" stroke="none"/>
    <path d="M321.75 186.2 L322.95 192.9 Q323.55 199.55 321.75 206.25 L312.5 206.25 304.5 206.25 Q303.7 199.5 301.65 193.1 L298.95 186.15 293.8 178.15 293.65 172.6 303.1 174.85 304.85 175.35 305.0 175.4 305.45 175.55 Q307.5 176.5 309.35 178.45 L309.5 178.65 309.6 178.7 Q312.15 181.5 314.25 186.2 L321.75 186.2" fill="url(#gradient5)" fill-rule="evenodd" stroke="none"/>
    <path d="M312.5 206.25 L304.5 206.25 Q303.7 199.5 301.65 193.1 L298.95 186.15 293.8 178.15 M272.2 215.75 Q269.5 228.45 269.6 246.15 L230.3 246.75 Q212.3 247.15 189.75 245.7 L162.1 243.45 M156.65 189.55 L156.55 183.8 140.0 177.45 139.4 177.9 136.0 180.6 135.7 180.85 135.4 181.15 134.9 181.6 Q127.45 188.45 123.55 197.55 121.15 203.1 120.1 209.55 L118.9 209.7 115.15 210.55 Q112.35 211.3 110.05 212.35 L108.95 212.9 Q108.3 213.2 107.75 213.6 101.3 217.55 100.0 224.7 L84.3 224.7 M140.95 114.25 L141.0 114.3 Q145.4 119.95 148.65 125.9 L148.7 125.95 150.9 130.25 152.85 134.6 Q171.85 135.2 190.85 138.1 L194.1 138.6 203.25 140.2 207.15 140.95 214.8 142.6 223.5 144.7 229.55 146.3 Q232.5 147.25 234.75 147.45 238.3 147.8 240.0 146.3 242.35 145.45 244.75 144.7 L252.25 142.6 259.05 141.05 262.0 140.5 Q272.5 138.55 284.4 137.8 L283.65 136.75 281.65 133.95 279.1 130.7 Q274.8 125.4 270.05 120.8 264.45 115.3 258.2 110.85 L257.7 110.5 M195.35 111.95 Q198.45 117.45 209.05 122.9 M288.6 144.25 L284.4 137.8 M327.0 152.7 L323.65 157.7 323.4 158.0 322.3 159.55 320.6 161.8 301.1 169.65 293.65 172.6 303.1 174.85 304.85 175.35 305.0 175.4 305.45 175.55 Q307.5 176.5 309.35 178.45 L309.5 178.65 309.6 178.7 Q312.15 181.5 314.25 186.2 L321.75 186.2 M64.6 149.45 Q66.95 145.3 70.45 141.2 74.5 136.5 80.15 131.85 L80.65 131.45 80.5 131.35 Q77.25 129.1 73.85 127.05 69.1 124.1 64.0 121.4 M154.4 138.75 L153.1 135.2 152.85 134.6 M156.55 183.8 L156.85 182.2 Q159.1 170.65 158.5 159.9 158.25 155.35 157.55 151.0 156.6 145.5 154.9 140.2 L154.4 138.75 M80.65 131.45 L81.15 131.8 84.4 134.15 85.15 134.7 86.5 135.75 88.25 137.15 93.25 141.35 93.75 141.75 97.6 145.3 103.3 151.05 107.9 156.35 113.8 164.15 114.3 164.95 115.55 166.75 116.65 168.45 135.1 175.5 140.0 177.45 M75.4 185.1 L81.1 189.6 Q83.35 186.9 85.95 184.95 L86.2 184.75 Q90.25 181.65 95.15 180.3 L96.55 179.95 Q102.45 178.65 109.45 179.85 L111.6 180.25 112.15 180.35 113.45 180.65 117.1 181.75 121.4 183.3 135.1 175.5" fill="none" stroke="#000000" stroke-linecap="round" stroke-linejoin="round" stroke-width="1.0"/>
    <path d="M258.25 110.6 L316.2 121.65 339.75 125.5 337.9 131.25 336.3 135.35 334.45 139.5 332.7 143.1 327.75 151.6 327.0 152.7 327.75 158.35 Q329.4 172.3 329.3 186.2 L321.75 186.2 322.95 192.9 Q323.55 199.55 321.75 206.25 L312.5 206.25 M84.3 224.7 L75.55 224.7 Q72.5 204.9 75.4 185.1 L61.35 174.0 Q57.9 161.5 64.6 149.45 57.95 141.9 56.5 134.4 53.75 121.4 64.0 121.4 L103.0 117.8 140.95 114.25 M257.7 110.5 L258.25 110.6" fill="none" stroke="#000000" stroke-linecap="round" stroke-linejoin="round" stroke-width="2.0"/>
    <path d="M281.65 133.95 L305.8 136.5 316.2 121.65 M103.0 117.8 L104.65 118.85 Q109.55 121.85 114.0 125.05 L118.6 128.55 123.25 132.35 125.0 133.9 129.25 137.85 130.5 139.1 154.4 138.75" fill="none" stroke="#000000" stroke-linecap="round" stroke-linejoin="round" stroke-width="0.5"/>
    <path d="M162.1 243.45 Q162.95 234.1 161.2 224.8 153.85 222.85 150.25 216.5 M141.0 114.3 Q163.1 107.65 190.85 105.3 L194.1 105.0 202.55 104.45 M252.25 108.2 L257.1 110.35 258.2 110.85" fill="none" stroke="#000000" stroke-linecap="round" stroke-linejoin="round" stroke-width="2.0"/>
    <path d="M293.8 178.15 Q293.75 182.7 293.3 187.3 L283.05 197.0 Q281.35 206.4 272.2 215.75 M150.25 216.5 Q155.2 203.0 156.65 189.55 M202.55 104.45 L195.35 111.95 M209.05 122.9 Q212.05 126.3 215.6 129.55 L219.4 132.85 223.75 136.35 244.45 136.35 248.0 132.1 249.15 114.0 Q251.65 111.7 252.25 108.2 M196.45 199.2 L210.4 197.0 216.15 196.05 M218.9 195.65 L238.55 193.9 Q248.1 193.5 257.85 194.0 M293.65 172.6 Q293.25 166.2 292.0 159.8 L290.4 152.95 290.35 152.85 288.6 144.25 M293.65 172.6 L293.8 178.15 M165.15 195.9 Q170.5 199.75 182.15 199.95" fill="none" stroke="#000000" stroke-linecap="round" stroke-linejoin="round" stroke-width="1.0"/>
    <path d="M327.75 151.6 L327.0 152.7 323.65 157.7 290.4 152.95 290.35 152.85 288.6 144.25 327.75 151.6 M115.15 210.55 Q112.35 211.3 110.05 212.35 L108.95 212.9 Q108.3 213.2 107.75 213.6 L113.45 180.65 117.1 181.75 113.45 180.65 112.15 180.35 111.6 180.25 109.45 179.85 115.55 166.75 116.65 168.45 122.8 170.8 117.1 181.75 121.4 183.3 122.65 182.6 115.15 210.55 M64.6 149.45 Q57.95 141.9 56.5 134.4 53.75 121.4 64.0 121.4 69.1 124.1 73.85 127.05 77.25 129.1 80.5 131.35 L80.15 131.85 Q74.5 136.5 70.45 141.2 66.95 145.3 64.6 149.45 M113.8 164.15 L107.9 156.35 157.55 151.0 Q158.25 155.35 158.5 159.9 L113.8 164.15" fill="#000000" fill-opacity="0.2509804" fill-rule="evenodd" stroke="none"/>
    <path d="M327.75 186.2 L322.05 186.2 322.05 186.15 316.5 163.45 320.6 161.8 322.3 159.55 327.75 186.2 M319.05 206.25 L312.5 206.25 309.4 178.75 309.45 178.75 309.6 178.7 Q312.15 181.5 314.25 186.2 L316.1 186.2 319.05 206.25 M89.45 224.7 L84.3 224.7 82.4 224.7 85.95 184.95 86.2 184.75 Q90.25 181.65 95.15 180.3 L89.45 224.7 M69.85 180.65 L64.9 176.75 Q67.4 147.3 86.5 135.75 L85.15 134.7 84.4 134.15 81.15 131.8 118.6 128.55 123.25 132.35 125.0 133.9 129.25 137.85 125.0 133.9 123.25 132.35 118.6 128.55 148.65 125.9 148.7 125.95 150.9 130.25 152.85 134.6 153.1 135.2 129.25 137.85 93.75 141.75 91.7 142.0 Q77.9 149.85 69.85 180.65 M337.9 131.25 L336.3 135.35 334.45 139.5 306.75 135.1 312.25 127.3 306.75 135.1 279.1 130.7 Q274.8 125.4 270.05 120.8 L312.25 127.3 337.9 131.25 M93.75 141.75 L93.25 141.35 88.25 137.15 86.5 135.75 88.25 137.15 93.25 141.35 93.75 141.75" fill="#ffffff" fill-opacity="0.2509804" fill-rule="evenodd" stroke="none"/>
    <path d="M312.5 206.25 L304.5 206.25 Q303.7 199.5 301.65 193.1 L298.95 186.15 293.8 178.15 M272.2 215.75 Q269.5 228.45 269.6 246.15 L230.3 246.75 Q212.3 247.15 189.75 245.7 L162.1 243.45 M156.65 189.55 L156.55 183.8 140.0 177.45 139.4 177.9 136.0 180.6 135.7 180.85 135.4 181.15 134.9 181.6 Q127.45 188.45 123.55 197.55 121.15 203.1 120.1 209.55 L118.9 209.7 115.15 210.55 Q112.35 211.3 110.05 212.35 L108.95 212.9 Q108.3 213.2 107.75 213.6 101.3 217.55 100.0 224.7 L89.45 224.7 84.3 224.7 M140.95 114.25 L141.0 114.3 Q145.4 119.95 148.65 125.9 L148.7 125.95 150.9 130.25 152.85 134.6 Q171.85 135.2 190.85 138.1 L194.1 138.6 203.25 140.2 207.15 140.95 214.8 142.6 223.5 144.7 229.55 146.3 Q232.5 147.25 234.75 147.45 238.3 147.8 240.0 146.3 242.35 145.45 244.75 144.7 L252.25 142.6 259.05 141.05 262.0 140.5 Q272.5 138.55 284.4 137.8 L288.6 144.25 M195.35 111.95 Q198.45 117.45 209.05 122.9 M258.2 110.85 L257.7 110.5 M281.65 133.95 L283.65 136.75 284.4 137.8 M279.1 130.7 L281.65 133.95 M270.05 120.8 Q264.45 115.3 258.2 110.85 M279.1 130.7 Q274.8 125.4 270.05 120.8 M323.65 157.7 L323.4 158.0 322.3 159.55 320.6 161.8 316.5 163.45 301.1 169.65 Q297.4 171.15 293.65 172.6 L303.1 174.85 304.85 175.35 305.0 175.4 305.45 175.55 Q307.5 176.5 309.35 178.45 L309.5 178.65 309.6 178.7 Q312.15 181.5 314.25 186.2 L316.1 186.2 321.75 186.2 M323.65 157.7 L327.0 152.7 M80.15 131.85 L80.65 131.45 80.5 131.35 Q77.25 129.1 73.85 127.05 69.1 124.1 64.0 121.4 M80.15 131.85 Q74.5 136.5 70.45 141.2 66.95 145.3 64.6 149.45 M153.1 135.2 L152.85 134.6 M154.4 138.75 L153.1 135.2 M157.55 151.0 Q156.6 145.5 154.9 140.2 L154.4 138.75 M107.9 156.35 L103.3 151.05 97.6 145.3 93.75 141.75 93.25 141.35 88.25 137.15 86.5 135.75 85.15 134.7 84.4 134.15 81.15 131.8 80.65 131.45 M113.8 164.15 L107.9 156.35 M157.55 151.0 Q158.25 155.35 158.5 159.9 159.1 170.65 156.85 182.2 L156.55 183.8 M115.55 166.75 L114.3 164.95 113.8 164.15 M115.55 166.75 L116.65 168.45 122.8 170.8 135.1 175.5 140.0 177.45 M75.4 185.1 L81.1 189.6 Q83.35 186.9 85.95 184.95 L86.2 184.75 Q90.25 181.65 95.15 180.3 L96.55 179.95 Q102.45 178.65 109.45 179.85 L111.6 180.25 112.15 180.35 113.45 180.65 117.1 181.75 121.4 183.3 122.65 182.6 135.1 175.5" fill="none" stroke="#000000" stroke-linecap="round" stroke-linejoin="round" stroke-width="1.0"/>
    <path d="M334.45 139.5 L332.7 143.1 327.75 151.6 327.0 152.7 327.75 158.35 Q329.4 172.3 329.3 186.2 L327.75 186.2 322.05 186.2 321.75 186.2 322.95 192.9 Q323.55 199.55 321.75 206.25 L319.05 206.25 312.5 206.25 M84.3 224.7 L82.4 224.7 75.55 224.7 Q72.5 204.9 75.4 185.1 L69.85 180.65 64.9 176.75 61.35 174.0 Q57.9 161.5 64.6 149.45 57.95 141.9 56.5 134.4 53.75 121.4 64.0 121.4 L103.0 117.8 140.95 114.25 M257.7 110.5 L316.2 121.65 339.75 125.5 337.9 131.25 336.3 135.35 334.45 139.5" fill="none" stroke="#000000" stroke-linecap="round" stroke-linejoin="round" stroke-width="2.0"/>
    <path d="M306.75 135.1 L305.8 136.5 281.65 133.95 M316.2 121.65 L312.25 127.3 306.75 135.1 M118.6 128.55 L123.25 132.35 125.0 133.9 129.25 137.85 130.5 139.1 154.4 138.75 M118.6 128.55 L114.0 125.05 Q109.55 121.85 104.65 118.85 L103.0 117.8" fill="none" stroke="#000000" stroke-linecap="round" stroke-linejoin="round" stroke-width="0.5"/>
    <path d="M162.1 243.45 Q162.95 234.1 161.2 224.8 153.85 222.85 150.25 216.5 M141.0 114.3 Q163.1 107.65 190.85 105.3 L194.1 105.0 202.55 104.45 M252.25 108.2 L257.1 110.35 258.2 110.85" fill="none" stroke="#000000" stroke-linecap="round" stroke-linejoin="round" stroke-width="2.0"/>
    <path d="M293.8 178.15 Q293.75 182.7 293.3 187.3 L283.05 197.0 Q281.35 206.4 272.2 215.75 M150.25 216.5 Q155.2 203.0 156.65 189.55 M202.55 104.45 L195.35 111.95 M209.05 122.9 Q212.05 126.3 215.6 129.55 L219.4 132.85 223.75 136.35 244.45 136.35 248.0 132.1 249.15 114.0 Q251.65 111.7 252.25 108.2 M218.9 195.65 L238.55 193.9 Q248.1 193.5 257.85 194.0 M196.45 199.2 L210.4 197.0 216.15 196.05 M290.4 152.95 L292.0 159.8 Q293.25 166.2 293.65 172.6 L293.8 178.15 M288.6 144.25 L290.35 152.85 M165.15 195.9 Q170.5 199.75 182.15 199.95" fill="none" stroke="#000000" stroke-linecap="round" stroke-linejoin="round" stroke-width="1.0"/>
    <path d="M290.35 152.85 L290.4 152.95" fill="none" stroke="#000000" stroke-linecap="round" stroke-linejoin="round" stroke-width="1.0"/>
  </g>
  <defs>
    <linearGradient gradientTransform="matrix(0.0, -0.0403, 0.0578, 0.0, 111.3, 150.8)" gradientUnits="userSpaceOnUse" id="gradient0" spreadMethod="pad" x1="-819.2" x2="819.2">
      <stop offset="0.0" stop-color="#000000" stop-opacity="0.0"/>
      <stop offset="1.0" stop-color="#000000" stop-opacity="0.2509804"/>
    </linearGradient>
    <linearGradient gradientTransform="matrix(-0.0303, -0.0303, 0.022, -0.022, 92.25, 168.75)" gradientUnits="userSpaceOnUse" id="gradient1" spreadMethod="pad" x1="-819.2" x2="819.2">
      <stop offset="0.0" stop-color="#000000" stop-opacity="0.0"/>
      <stop offset="1.0" stop-color="#000000" stop-opacity="0.2509804"/>
    </linearGradient>
    <linearGradient gradientTransform="matrix(-0.0403, 0.0, 0.0, -0.03, 107.0, 200.1)" gradientUnits="userSpaceOnUse" id="gradient2" spreadMethod="pad" x1="-819.2" x2="819.2">
      <stop offset="0.0" stop-color="#000000" stop-opacity="0.0"/>
      <stop offset="1.0" stop-color="#000000" stop-opacity="0.2509804"/>
    </linearGradient>
    <linearGradient gradientTransform="matrix(0.0, -0.0311, 0.0355, 0.0, 310.7, 147.15)" gradientUnits="userSpaceOnUse" id="gradient3" spreadMethod="pad" x1="-819.2" x2="819.2">
      <stop offset="0.0" stop-color="#000000" stop-opacity="0.0"/>
      <stop offset="1.0" stop-color="#000000" stop-opacity="0.2509804"/>
    </linearGradient>
    <linearGradient gradientTransform="matrix(0.0218, 0.0, 0.0, 0.0204, 311.45, 169.45)" gradientUnits="userSpaceOnUse" id="gradient4" spreadMethod="pad" x1="-819.2" x2="819.2">
      <stop offset="0.0" stop-color="#000000" stop-opacity="0.0"/>
      <stop offset="1.0" stop-color="#000000" stop-opacity="0.2509804"/>
    </linearGradient>
    <linearGradient gradientTransform="matrix(0.018, 0.0, 0.0, 0.0205, 308.35, 189.4)" gradientUnits="userSpaceOnUse" id="gradient5" spreadMethod="pad" x1="-819.2" x2="819.2">
      <stop offset="0.0" stop-color="#000000" stop-opacity="0.0"/>
      <stop offset="1.0" stop-color="#000000" stop-opacity="0.2509804"/>
    </linearGradient>
  </defs>
</svg>
