<?xml version="1.0" encoding="UTF-8" standalone="no"?>
<svg xmlns:xlink="http://www.w3.org/1999/xlink" height="52.05px" width="129.75px" xmlns="http://www.w3.org/2000/svg">
  <g transform="matrix(1.0, 0.0, 0.0, 1.0, -150.8, -218.45)">
    <path d="M250.95 232.8 Q254.8 238.05 254.3 245.2 254.05 247.65 253.35 249.9 L252.9 251.2 Q251.6 254.3 249.25 256.9 L249.1 257.05 246.15 259.5 Q244.85 260.35 243.5 260.8 L240.55 261.45 238.6 261.45 Q232.6 261.1 228.8 255.9 L227.0 252.6 Q226.35 251.1 226.0 249.6 225.4 246.75 225.65 243.6 225.85 241.15 226.55 238.95 L227.0 237.55 227.35 236.7 Q227.75 235.6 228.4 234.7 L228.45 234.65 Q229.4 233.0 230.65 231.7 235.3 226.95 241.35 227.25 L243.35 227.5 Q247.95 228.45 250.95 232.8" fill="url(#gradient0)" fill-rule="evenodd" stroke="none"/>
    <path d="M206.0 238.95 Q208.9 242.35 209.65 247.5 L209.85 249.45 209.9 250.35 209.9 250.7 209.85 250.95 Q209.8 253.3 209.05 255.3 L209.0 255.45 208.55 256.45 208.2 257.2 206.25 259.45 Q204.95 260.5 203.2 260.7 199.7 261.1 196.7 257.7 193.85 254.5 193.05 249.6 L192.95 249.3 192.8 247.65 192.8 245.2 192.85 244.95 192.85 244.8 Q193.05 242.35 194.1 240.25 196.0 236.35 199.5 236.05 L200.55 235.95 202.25 236.35 202.6 236.4 202.95 236.55 Q203.85 237.0 204.7 237.7 L206.0 238.95" fill="url(#gradient1)" fill-rule="evenodd" stroke="none"/>
    <path d="M274.65 241.5 Q275.25 241.65 275.7 242.05 L275.95 242.2 277.0 243.3 277.7 244.6 278.3 246.85 Q278.65 248.95 278.25 251.4 277.55 254.5 275.85 256.75 L275.1 257.65 273.4 259.0 272.7 259.35 271.85 259.65 270.2 259.75 269.65 259.6 Q267.3 258.85 266.25 256.35 265.45 254.4 265.45 252.15 L265.7 249.6 Q266.05 247.8 266.75 246.4 L266.75 246.3 266.95 246.1 Q267.1 245.55 267.4 245.2 L268.85 243.3 Q270.1 242.05 271.4 241.6 272.55 241.05 273.85 241.3 L274.55 241.45 274.65 241.5" fill="url(#gradient2)" fill-rule="evenodd" stroke="none"/>
    <path d="M156.4 247.45 L156.05 242.4 181.55 237.15 Q200.0 233.1 218.05 228.45 250.3 220.05 262.85 229.95 L263.1 230.1 275.35 239.7 274.65 241.5 274.55 241.45 273.85 241.3 Q272.55 241.05 271.4 241.6 270.1 242.05 268.85 243.3 L267.4 245.2 Q267.1 245.55 266.95 246.1 L266.75 246.3 266.75 246.4 Q266.05 247.8 265.7 249.6 L265.45 252.15 Q265.45 254.4 266.25 256.35 267.3 258.85 269.65 259.6 L269.15 261.75 Q266.0 262.65 262.15 263.35 L256.9 264.0 Q231.95 266.85 183.8 261.75 L156.95 258.45 156.85 254.65 156.7 251.1 156.4 247.45 M250.95 232.8 Q247.95 228.45 243.35 227.5 L241.35 227.25 Q235.3 226.95 230.65 231.7 229.4 233.0 228.45 234.65 L228.4 234.7 Q227.75 235.6 227.35 236.7 L227.0 237.55 226.55 238.95 Q225.85 241.15 225.65 243.6 225.4 246.75 226.0 249.6 226.35 251.1 227.0 252.6 L228.8 255.9 Q232.6 261.1 238.6 261.45 L240.55 261.45 243.5 260.8 Q244.85 260.35 246.15 259.5 L249.1 257.05 249.25 256.9 Q251.6 254.3 252.9 251.2 L253.35 249.9 Q254.05 247.65 254.3 245.2 254.8 238.05 250.95 232.8 M206.0 238.95 L204.7 237.7 Q203.85 237.0 202.95 236.55 L202.6 236.4 202.25 236.35 200.55 235.95 199.5 236.05 Q196.0 236.35 194.1 240.25 193.05 242.35 192.85 244.8 L192.85 244.95 192.8 245.2 192.8 247.65 192.95 249.3 193.05 249.6 Q193.85 254.5 196.7 257.7 199.7 261.1 203.2 260.7 204.95 260.5 206.25 259.45 L208.2 257.2 208.55 256.45 209.0 255.45 209.05 255.3 Q209.8 253.3 209.85 250.95 L209.9 250.7 209.9 250.35 209.85 249.45 209.65 247.5 Q208.9 242.35 206.0 238.95" fill="url(#gradient3)" fill-rule="evenodd" stroke="none"/>
    <path d="M156.4 247.45 Q147.65 242.4 155.55 237.55 L155.65 237.45 Q168.5 235.65 181.2 232.9 197.55 229.35 213.4 224.25 247.15 213.45 263.8 224.7 L264.15 224.95 277.45 234.25 Q280.85 238.0 279.8 240.6 279.2 242.1 277.0 243.3 L275.95 242.2 275.7 242.05 Q275.25 241.65 274.65 241.5 L275.35 239.7 263.1 230.1 262.85 229.95 Q250.3 220.05 218.05 228.45 200.0 233.1 181.55 237.15 L156.05 242.4 156.4 247.45" fill="url(#gradient4)" fill-rule="evenodd" stroke="none"/>
    <path d="M157.1 263.65 Q147.75 259.35 156.85 254.65 L156.95 258.45 183.8 261.75 Q231.95 266.85 256.9 264.0 L262.15 263.35 Q266.0 262.65 269.15 261.75 L269.65 259.6 270.2 259.75 271.85 259.65 Q274.45 263.95 268.1 267.25 L260.9 268.9 256.0 269.4 Q233.8 271.45 184.25 266.55 L157.1 263.65" fill="url(#gradient5)" fill-rule="evenodd" stroke="none"/>
    <path d="M274.65 241.5 Q275.25 241.65 275.7 242.05 L275.95 242.2 277.0 243.3 Q279.2 242.1 279.8 240.6 280.85 238.0 277.45 234.25 L264.15 224.95 263.8 224.7 Q247.15 213.45 213.4 224.25 197.55 229.35 181.2 232.9 168.5 235.65 155.65 237.45 L155.55 237.55 M269.65 259.6 Q267.3 258.85 266.25 256.35 265.45 254.4 265.45 252.15 L265.7 249.6 Q266.05 247.8 266.75 246.4 L266.75 246.3 266.95 246.1 Q267.1 245.55 267.4 245.2 L268.85 243.3 Q270.1 242.05 271.4 241.6 272.55 241.05 273.85 241.3 L274.55 241.45 274.65 241.5 M250.95 232.8 Q254.8 238.05 254.3 245.2 254.05 247.65 253.35 249.9 L252.9 251.2 Q251.6 254.3 249.25 256.9 L249.1 257.05 246.15 259.5 Q244.85 260.35 243.5 260.8 L240.55 261.45 238.6 261.45 Q232.6 261.1 228.8 255.9 L227.0 252.6 Q226.35 251.1 226.0 249.6 225.4 246.75 225.65 243.6 225.85 241.15 226.55 238.95 L227.0 237.55 227.35 236.7 Q227.75 235.6 228.4 234.7 L228.45 234.65 Q229.4 233.0 230.65 231.7 235.3 226.95 241.35 227.25 L243.35 227.5 Q247.95 228.45 250.95 232.8 M277.0 243.3 L277.7 244.6 278.3 246.85 Q278.65 248.95 278.25 251.4 277.55 254.5 275.85 256.75 L275.1 257.65 273.4 259.0 272.7 259.35 271.85 259.65 Q274.45 263.95 268.1 267.25 L260.9 268.9 256.0 269.4 Q233.8 271.45 184.25 266.55 L157.1 263.65 M269.65 259.6 L270.2 259.75 271.85 259.65 M206.0 238.95 Q208.9 242.35 209.65 247.5 L209.85 249.45 209.9 250.35 209.9 250.7 209.85 250.95 Q209.8 253.3 209.05 255.3 L209.0 255.45 208.55 256.45 208.2 257.2 206.25 259.45 Q204.95 260.5 203.2 260.7 199.7 261.1 196.7 257.7 193.85 254.5 193.05 249.6 L192.95 249.3 192.8 247.65 192.8 245.2 192.85 244.95 192.85 244.8 Q193.05 242.35 194.1 240.25 196.0 236.35 199.5 236.05 L200.55 235.95 202.25 236.35 202.6 236.4 202.95 236.55 Q203.85 237.0 204.7 237.7 L206.0 238.95" fill="none" stroke="#000000" stroke-linecap="round" stroke-linejoin="round" stroke-width="1.0"/>
    <path d="M155.55 237.55 Q147.65 242.4 156.4 247.45 L156.7 251.1 156.85 254.65 Q147.75 259.35 157.1 263.65" fill="none" stroke="#000000" stroke-linecap="round" stroke-linejoin="round" stroke-width="2.0"/>
    <path d="M156.4 247.45 L156.05 242.4 181.55 237.15 Q200.0 233.1 218.05 228.45 250.3 220.05 262.85 229.95 L263.1 230.1 275.35 239.7 274.65 241.5 M156.85 254.65 L156.95 258.45 183.8 261.75 Q231.95 266.85 256.9 264.0 L262.15 263.35 Q266.0 262.65 269.15 261.75 L269.65 259.6" fill="none" stroke="#000000" stroke-linecap="round" stroke-linejoin="round" stroke-opacity="0.5019608" stroke-width="1.0"/>
    <path d="M156.4 247.45 Q147.65 242.4 155.55 237.55 L155.65 237.45 Q168.5 235.65 181.2 232.9 L181.55 237.15 156.05 242.4 156.4 247.45 156.05 242.4 181.55 237.15 183.8 261.75 184.25 266.55 157.1 263.65 Q147.75 259.35 156.85 254.65 L156.95 258.45 183.8 261.75 156.95 258.45 156.85 254.65 156.7 251.1 156.4 247.45 M246.15 259.5 Q244.85 260.35 243.5 260.8 L240.55 261.45 238.6 261.45 Q232.6 261.1 228.8 255.9 L227.0 252.6 Q226.35 251.1 226.0 249.6 225.4 246.75 225.65 243.6 225.85 241.15 226.55 238.95 L227.0 237.55 Q227.75 258.9 246.15 259.5 M269.65 259.6 Q267.3 258.85 266.25 256.35 265.45 254.4 265.45 252.15 L265.7 249.6 Q266.05 247.8 266.75 246.4 L266.95 246.4 Q266.85 256.0 273.4 259.0 L272.7 259.35 271.85 259.65 270.2 259.75 269.65 259.6 M208.2 257.2 L206.25 259.45 Q204.95 260.5 203.2 260.7 199.7 261.1 196.7 257.7 193.85 254.5 193.05 249.6 L192.95 249.3 192.8 247.65 Q198.9 259.75 208.2 257.2" fill="#000000" fill-opacity="0.2509804" fill-rule="evenodd" stroke="none"/>
    <path d="M268.15 234.1 L263.1 230.1 262.85 229.95 263.1 230.1 268.15 234.1 262.15 263.35 256.9 264.0 262.85 229.95 263.8 224.7 264.15 224.95 269.3 228.55 268.15 234.1 M228.45 234.65 Q229.4 233.0 230.65 231.7 235.3 226.95 241.35 227.25 L243.35 227.5 Q247.95 228.45 250.95 232.8 254.8 238.05 254.3 245.2 254.05 247.65 253.35 249.9 L252.9 251.2 Q251.6 254.3 249.25 256.9 L248.1 249.9 Q232.95 252.25 236.75 231.4 L228.45 234.65 M267.4 245.2 L268.85 243.3 Q270.1 242.05 271.4 241.6 272.55 241.05 273.85 241.3 L274.55 241.45 274.65 241.5 Q275.25 241.65 275.7 242.05 L275.95 242.2 277.0 243.3 277.7 244.6 278.3 246.85 Q278.65 248.95 278.25 251.4 277.55 254.5 275.85 256.75 L275.85 251.8 Q268.8 254.2 271.4 244.45 L267.4 245.2 M256.9 264.0 L262.15 263.35 260.9 268.9 256.0 269.4 256.9 264.0 M192.85 244.8 Q193.05 242.35 194.1 240.25 196.0 236.35 199.5 236.05 L200.55 235.95 202.25 236.35 202.6 236.4 202.95 236.55 Q203.85 237.0 204.7 237.7 L206.0 238.95 Q208.9 242.35 209.65 247.5 L209.85 249.45 209.9 250.35 209.9 250.7 209.85 250.95 Q209.8 253.3 209.05 255.3 L209.0 255.35 207.05 250.45 206.0 250.7 204.1 250.95 Q202.2 251.0 200.75 250.35 196.6 248.45 196.3 240.6 L192.85 244.8" fill="#ffffff" fill-opacity="0.2509804" fill-rule="evenodd" stroke="none"/>
    <path d="M209.05 255.3 L209.0 255.45 209.0 255.35 209.05 255.3" fill="#ff0000" fill-rule="evenodd" stroke="none"/>
    <path d="M155.55 237.55 Q147.65 242.4 156.4 247.45 L156.7 251.1 156.85 254.65 Q147.75 259.35 157.1 263.65" fill="none" stroke="#000000" stroke-linecap="round" stroke-linejoin="round" stroke-width="2.0"/>
    <path d="M156.4 247.45 L156.05 242.4 181.55 237.15 Q200.0 233.1 218.05 228.45 250.3 220.05 262.85 229.95 L263.1 230.1 268.15 234.1 275.35 239.7 274.65 241.5 M183.8 261.75 L156.95 258.45 156.85 254.65 M183.8 261.75 Q231.95 266.85 256.9 264.0 L262.15 263.35 Q266.0 262.65 269.15 261.75 L269.65 259.6" fill="none" stroke="#000000" stroke-linecap="round" stroke-linejoin="round" stroke-opacity="0.5019608" stroke-width="1.0"/>
    <path d="M181.2 232.9 Q168.5 235.65 155.65 237.45 L155.55 237.55 M157.1 263.65 L184.25 266.55 Q233.8 271.45 256.0 269.4 L260.9 268.9 268.1 267.25 Q274.45 263.95 271.85 259.65 L272.7 259.35 273.4 259.0 275.1 257.65 275.85 256.75 Q277.55 254.5 278.25 251.4 278.65 248.95 278.3 246.85 L277.7 244.6 277.0 243.3 275.95 242.2 275.7 242.05 Q275.25 241.65 274.65 241.5 L274.55 241.45 273.85 241.3 Q272.55 241.05 271.4 241.6 270.1 242.05 268.85 243.3 L267.4 245.2 Q267.1 245.55 266.95 246.1 L266.75 246.3 266.75 246.4 Q266.05 247.8 265.7 249.6 L265.45 252.15 Q265.45 254.4 266.25 256.35 267.3 258.85 269.65 259.6 L270.2 259.75 271.85 259.65 M269.3 228.55 L264.15 224.95 263.8 224.7 Q247.15 213.45 213.4 224.25 197.55 229.35 181.2 232.9 M228.45 234.65 Q229.4 233.0 230.65 231.7 235.3 226.95 241.35 227.25 L243.35 227.5 Q247.95 228.45 250.95 232.8 254.8 238.05 254.3 245.2 254.05 247.65 253.35 249.9 L252.9 251.2 Q251.6 254.3 249.25 256.9 L249.1 257.05 246.15 259.5 Q244.85 260.35 243.5 260.8 L240.55 261.45 238.6 261.45 Q232.6 261.1 228.8 255.9 L227.0 252.6 Q226.35 251.1 226.0 249.6 225.4 246.75 225.65 243.6 225.85 241.15 226.55 238.95 L227.0 237.55 227.35 236.7 Q227.75 235.6 228.4 234.7 L228.45 234.65 M277.0 243.3 Q279.2 242.1 279.8 240.6 280.85 238.0 277.45 234.25 L269.3 228.55 M192.85 244.8 Q193.05 242.35 194.1 240.25 196.0 236.35 199.5 236.05 L200.55 235.95 202.25 236.35 202.6 236.4 202.95 236.55 Q203.85 237.0 204.7 237.7 L206.0 238.95 Q208.9 242.35 209.65 247.5 L209.85 249.45 209.9 250.35 209.9 250.7 209.85 250.95 Q209.8 253.3 209.05 255.3 L209.0 255.45 208.55 256.45 208.2 257.2 206.25 259.45 Q204.95 260.5 203.2 260.7 199.7 261.1 196.7 257.7 193.85 254.5 193.05 249.6 L192.95 249.3 192.8 247.65 192.8 245.2 192.85 244.95 192.85 244.8 Z" fill="none" stroke="#000000" stroke-linecap="round" stroke-linejoin="round" stroke-width="1.0"/>
  </g>
  <defs>
    <radialGradient cx="0" cy="0" gradientTransform="matrix(0.0233, 0.0, 0.0, 0.0233, 240.8, 242.7)" gradientUnits="userSpaceOnUse" id="gradient0" r="819.2" spreadMethod="pad">
      <stop offset="0.0" stop-color="#000000" stop-opacity="0.2509804"/>
      <stop offset="1.0" stop-color="#000000" stop-opacity="0.0"/>
    </radialGradient>
    <radialGradient cx="0" cy="0" gradientTransform="matrix(0.0165, 0.0, 0.0, 0.0165, 200.0, 249.05)" gradientUnits="userSpaceOnUse" id="gradient1" r="819.2" spreadMethod="pad">
      <stop offset="0.0" stop-color="#000000" stop-opacity="0.2509804"/>
      <stop offset="1.0" stop-color="#000000" stop-opacity="0.0"/>
    </radialGradient>
    <radialGradient cx="0" cy="0" gradientTransform="matrix(0.0129, 0.0, 0.0, 0.0129, 269.8, 250.35)" gradientUnits="userSpaceOnUse" id="gradient2" r="819.2" spreadMethod="pad">
      <stop offset="0.0" stop-color="#000000" stop-opacity="0.2509804"/>
      <stop offset="1.0" stop-color="#000000" stop-opacity="0.0"/>
    </radialGradient>
    <linearGradient gradientTransform="matrix(-0.0728, 0.0, 0.0, -0.0247, 215.7, 244.8)" gradientUnits="userSpaceOnUse" id="gradient3" spreadMethod="pad" x1="-819.2" x2="819.2">
      <stop offset="0.0" stop-color="#000000" stop-opacity="0.2509804"/>
      <stop offset="1.0" stop-color="#000000" stop-opacity="0.0"/>
    </linearGradient>
    <linearGradient gradientTransform="matrix(-0.0783, 0.0, 0.0, -0.0174, 215.95, 233.2)" gradientUnits="userSpaceOnUse" id="gradient4" spreadMethod="pad" x1="-819.2" x2="819.2">
      <stop offset="0.0" stop-color="#000000" stop-opacity="0.2509804"/>
      <stop offset="1.0" stop-color="#000000" stop-opacity="0.0"/>
    </linearGradient>
    <linearGradient gradientTransform="matrix(-0.0734, 0.0, 0.0, -0.0094, 212.5, 262.35)" gradientUnits="userSpaceOnUse" id="gradient5" spreadMethod="pad" x1="-819.2" x2="819.2">
      <stop offset="0.0" stop-color="#000000" stop-opacity="0.2509804"/>
      <stop offset="1.0" stop-color="#000000" stop-opacity="0.0"/>
    </linearGradient>
  </defs>
</svg>
