<?xml version="1.0" encoding="UTF-8" standalone="no"?>
<svg xmlns:xlink="http://www.w3.org/1999/xlink" height="45.75px" width="226.45px" xmlns="http://www.w3.org/2000/svg">
  <g transform="matrix(1.0, 0.0, 0.0, 1.0, -92.45, -104.55)">
    <path d="M180.25 132.0 L167.45 134.75 Q159.35 136.6 150.9 138.8 121.1 131.1 92.45 134.9 100.15 119.3 115.15 107.25 120.35 103.45 126.2 106.15 130.55 108.4 134.7 110.75 153.8 101.75 159.1 105.85 L186.0 130.95 180.25 132.0 M293.25 111.95 Q309.8 121.25 318.1 138.9 320.3 142.55 316.5 144.6 L311.0 146.6 Q303.6 148.85 293.3 150.3 282.75 143.6 270.65 137.95 L266.65 136.1 Q271.0 120.8 252.9 106.4 L253.0 106.3 Q261.15 108.55 268.85 112.5 269.85 110.0 273.2 110.15 L288.9 114.45 Q288.95 111.55 293.25 111.95" fill="#000000" fill-rule="evenodd" stroke="none"/>
  </g>
</svg>
