<?xml version="1.0" encoding="UTF-8" standalone="no"?>
<svg xmlns:xlink="http://www.w3.org/1999/xlink" height="55.4px" width="78.35px" xmlns="http://www.w3.org/2000/svg">
  <g transform="matrix(1.0, 0.0, 0.0, 1.0, -190.9, -53.05)">
    <path d="M251.5 84.4 Q250.05 85.05 248.6 85.9 L245.75 87.75 241.8 91.0 Q239.9 88.9 237.05 87.15 233.75 85.25 229.25 83.85 224.65 85.25 223.2 88.6 L219.35 93.15 217.35 94.6 212.05 97.55 211.95 97.25 Q211.3 95.15 209.4 94.75 L208.7 94.7 Q204.35 95.0 205.55 101.3 L198.75 108.45 Q195.15 106.95 192.9 105.1 L192.45 104.75 202.8 101.4 Q191.85 94.75 190.9 81.0 L200.75 86.85 Q192.05 72.75 198.65 62.55 L198.7 62.6 Q201.1 66.75 208.6 70.45 210.85 54.3 224.9 53.05 222.0 59.7 223.6 64.9 233.45 55.1 257.25 65.55 L255.95 65.65 Q246.4 66.45 242.2 71.1 257.2 71.45 269.25 82.1 260.75 80.55 253.0 83.75 259.85 85.6 262.85 89.55 257.9 88.45 253.55 90.0 253.05 86.8 251.5 84.4" fill="#000000" fill-rule="evenodd" stroke="none"/>
  </g>
</svg>
