<?xml version="1.0" encoding="UTF-8" standalone="no"?>
<svg xmlns:xlink="http://www.w3.org/1999/xlink" height="21.25px" width="28.9px" xmlns="http://www.w3.org/2000/svg">
  <g transform="matrix(1.0, 0.0, 0.0, 1.0, -216.35, -61.85)">
    <path d="M225.5 76.7 L223.7 77.0 Q221.1 77.45 218.55 78.35 L217.35 78.75 Q219.0 72.7 222.45 67.9 224.35 65.15 226.9 62.85 230.35 69.4 231.65 76.25 232.25 79.4 232.4 82.6 231.5 79.15 229.95 76.3 227.1 71.2 222.45 67.9 227.1 71.2 229.95 76.3 231.5 79.15 232.4 82.6 229.55 78.75 225.5 76.7" fill="#000000" fill-opacity="0.2509804" fill-rule="evenodd" stroke="none"/>
    <path d="M225.5 76.7 L223.7 77.0 Q221.1 77.45 218.55 78.35 L217.35 78.75 Q219.0 72.7 222.45 67.9 224.35 65.15 226.9 62.85 L244.25 62.85 Q241.95 69.4 241.35 77.6" fill="none" stroke="#000000" stroke-linecap="round" stroke-linejoin="round" stroke-width="2.0"/>
    <path d="M241.35 77.6 L241.05 82.6 232.4 82.6 Q232.25 79.4 231.65 76.25 230.35 69.4 226.9 62.85 M222.45 67.9 Q227.1 71.2 229.95 76.3 231.5 79.15 232.4 82.6" fill="none" stroke="#000000" stroke-linecap="round" stroke-linejoin="round" stroke-width="1.0"/>
    <path d="M232.4 82.6 Q229.55 78.75 225.5 76.7" fill="none" stroke="#000000" stroke-linecap="round" stroke-linejoin="round" stroke-width="1.0"/>
  </g>
</svg>
