<?xml version="1.0" encoding="UTF-8" standalone="no"?>
<svg xmlns:xlink="http://www.w3.org/1999/xlink" height="26.6px" width="52.4px" xmlns="http://www.w3.org/2000/svg">
  <g transform="matrix(1.0, 0.0, 0.0, 1.0, -206.05, -72.7)">
    <path d="M208.2 80.0 Q213.1 74.35 221.55 73.7 218.2 75.45 216.9 77.2 L228.3 75.3 Q239.15 73.05 249.15 79.25 253.2 81.35 256.3 85.1 248.4 82.75 239.2 82.25 L224.3 82.25 227.35 79.85 Q222.2 79.35 218.2 81.6 206.35 83.7 208.2 80.0" fill="#ffffff" fill-opacity="0.2509804" fill-rule="evenodd" stroke="none"/>
    <path d="M253.6 89.65 Q248.8 86.15 246.75 85.75 246.65 89.5 245.7 93.3 242.4 88.65 238.0 87.15 239.45 89.9 238.0 92.7 230.9 83.45 217.9 84.75 214.75 88.6 215.75 92.5 L214.0 98.8 212.0 97.6 Q211.4 95.15 209.4 94.75" fill="none" stroke="#000000" stroke-linecap="round" stroke-linejoin="round" stroke-width="1.0"/>
    <path d="M208.2 80.0 Q213.1 74.35 221.55 73.7 218.2 75.45 216.9 77.2 L228.3 75.3 Q239.15 73.05 249.15 79.25 253.2 81.35 256.3 85.1 258.2 88.65 257.0 92.2 L253.6 89.65 M209.4 94.75 L208.7 94.7 Q207.75 94.75 207.05 95.15 L207.05 81.45 208.2 80.0" fill="none" stroke="#000000" stroke-linecap="round" stroke-linejoin="round" stroke-width="2.0"/>
  </g>
</svg>
