<?xml version="1.0" encoding="UTF-8" standalone="no"?>
<svg xmlns:xlink="http://www.w3.org/1999/xlink" height="89.95px" width="81.5px" xmlns="http://www.w3.org/2000/svg">
  <g transform="matrix(1.0, 0.0, 0.0, 1.0, -182.3, -35.3)">
    <path d="M184.25 66.7 Q182.1 62.2 184.05 56.55 179.65 45.4 186.2 35.3 190.15 65.6 216.0 78.05 221.5 78.6 220.35 87.65 L219.45 92.15 218.55 95.45 Q213.6 112.05 218.9 125.25 L215.15 123.95 Q212.25 122.7 209.55 120.9 206.2 118.7 203.05 115.5 L201.5 113.85 Q206.25 105.2 203.5 98.4 195.15 99.55 194.0 93.15 189.25 91.25 189.15 84.35 186.25 81.9 185.95 75.3 184.05 72.05 184.25 66.7 M254.4 95.9 L254.5 95.9 254.2 91.2 Q252.75 80.55 242.55 76.95 242.0 74.9 243.25 72.3 241.7 68.5 242.95 63.8 237.7 52.95 243.5 41.95 247.5 59.5 258.95 74.5 268.3 85.15 259.6 99.55 257.9 101.45 256.75 103.7 255.4 106.2 254.65 109.25 252.95 115.9 254.0 125.15 L250.8 124.4 251.75 113.6 Q252.9 111.15 253.35 108.7 253.9 105.2 253.0 101.6 L254.3 98.05 254.4 95.9 M209.4 95.05 L209.35 94.95 209.2 95.0 209.4 95.05" fill="#000000" fill-rule="evenodd" stroke="none"/>
  </g>
</svg>
