<?xml version="1.0" encoding="UTF-8" standalone="no"?>
<svg xmlns:xlink="http://www.w3.org/1999/xlink" height="72.65px" width="75.75px" xmlns="http://www.w3.org/2000/svg">
  <g transform="matrix(1.0, 0.0, 0.0, 1.0, -194.85, -42.95)">
    <path d="M269.45 69.25 Q271.45 73.45 269.9 79.85 268.65 82.95 266.55 85.35 262.6 89.75 255.65 91.8 L256.5 91.8 256.05 98.25 254.35 98.4 253.55 98.5 252.25 98.6 249.05 98.8 248.3 98.8 245.1 98.8 244.05 102.95 244.0 103.7 244.2 115.0 Q242.05 116.45 237.2 114.4 L238.55 103.15 238.6 102.9 237.5 98.3 Q230.2 97.55 221.8 95.85 L221.75 95.95 215.5 94.55 215.45 94.55 211.3 93.5 209.8 93.1 207.35 92.5 208.35 86.8 208.85 87.9 Q209.6 89.25 211.15 90.15 L212.7 90.75 Q215.9 91.25 218.2 89.0 L219.05 88.15 219.2 88.0 220.65 85.7 221.1 84.7 221.6 83.55 222.05 82.15 222.3 80.9 222.45 79.15 222.45 78.75 222.35 77.75 222.3 77.45 222.05 76.65 Q221.65 75.65 220.85 75.0 L221.65 74.45 Q224.25 73.7 226.95 73.55 L227.0 71.65 229.8 71.2 Q230.8 68.55 234.15 69.15 237.2 69.7 237.15 71.65 238.9 72.1 240.7 72.85 L240.6 74.9 238.8 74.4 Q240.85 75.85 242.15 78.1 L243.05 79.75 243.45 80.45 244.25 82.55 244.6 83.95 Q245.35 87.35 245.5 91.65 L245.45 91.9 249.0 91.95 249.2 92.0 252.95 91.9 253.35 91.85 255.25 91.85 254.8 87.8 254.25 86.1 253.9 85.2 253.45 84.35 253.3 84.0 251.7 81.7 251.15 81.15 Q254.95 80.4 258.1 78.85 264.0 73.95 258.3 67.4 254.5 61.9 255.55 56.3 256.1 53.5 257.7 50.85 L258.55 49.6 258.4 50.95 Q257.2 60.05 263.8 63.65 267.8 65.75 269.45 69.25 M243.45 95.25 Q243.5 94.5 243.05 94.1 242.55 93.6 241.9 93.55 241.2 93.55 240.7 94.05 240.2 94.45 240.25 95.2 240.2 95.8 240.7 96.25 241.1 96.75 241.8 96.8 242.5 96.75 243.0 96.35 243.45 95.9 243.45 95.25 M212.0 44.2 L212.1 42.95 212.65 44.3 Q213.7 47.3 213.6 50.1 213.6 55.75 208.8 60.45 201.75 65.7 206.65 71.7 209.65 74.05 213.6 75.55 L214.35 76.05 215.45 76.8 215.7 77.0 215.9 77.25 Q216.55 77.75 216.85 78.4 L217.05 78.8 217.15 79.2 217.15 79.8 217.1 80.0 Q217.05 80.75 216.6 81.6 L216.45 81.75 215.6 83.1 214.55 84.4 213.9 85.05 212.5 85.95 212.3 86.0 209.55 86.15 208.2 85.7 208.1 85.7 206.8 85.05 Q200.0 81.6 197.0 76.4 195.4 73.55 194.85 70.2 194.55 62.5 198.5 58.75 201.15 56.45 204.1 55.7 211.2 53.5 212.0 44.2 M221.8 83.5 Q220.75 86.2 219.95 89.4 L223.05 89.95 237.65 91.6 237.7 91.45 Q237.45 86.6 236.7 82.95 L236.4 81.65 235.25 78.3 235.2 78.2 234.45 76.8 Q232.65 73.95 229.95 73.35 228.6 74.15 227.35 75.25 L225.9 76.75 225.7 76.95 224.6 78.45 224.45 78.6 224.15 79.05 223.25 80.55 222.4 82.1 221.8 83.5" fill="#000000" fill-rule="evenodd" stroke="none"/>
  </g>
</svg>
