<?xml version="1.0" encoding="UTF-8" standalone="no"?>
<svg xmlns:xlink="http://www.w3.org/1999/xlink" height="91.65px" width="232.05px" xmlns="http://www.w3.org/2000/svg">
  <g transform="matrix(1.0, 0.0, 0.0, 1.0, -83.15, -127.7)">
    <path d="M186.6 199.9 Q206.2 189.05 232.4 184.35 231.25 166.95 221.55 152.1 184.65 142.75 146.35 138.25 137.1 148.35 124.65 154.8 119.65 141.2 110.6 131.7 L107.45 128.7 M89.55 154.65 Q92.15 157.55 94.55 161.25 98.4 167.3 101.55 175.4 97.95 183.35 93.1 191.3 89.05 197.95 84.15 204.6 M85.3 218.35 Q125.55 188.3 155.85 195.55 M314.15 184.4 L314.15 184.55 M313.05 199.3 Q305.2 190.4 290.05 190.4 M286.8 193.5 Q281.55 189.9 274.2 186.65 268.25 184.05 253.7 183.75 254.85 165.45 247.15 151.55 L285.15 141.5 297.7 152.4 Q298.7 144.5 297.5 135.25" fill="none" stroke="#000000" stroke-linecap="round" stroke-linejoin="round" stroke-width="1.0"/>
    <path d="M107.45 128.7 Q100.85 132.6 95.05 137.15 91.8 145.85 89.55 154.65 M84.15 204.6 Q84.45 211.45 85.3 218.35 M297.5 135.25 Q304.4 140.9 310.65 147.2 314.6 165.8 314.15 184.4 M314.15 184.55 Q313.95 191.9 313.05 199.3" fill="none" stroke="#000000" stroke-linecap="round" stroke-linejoin="round" stroke-width="2.0"/>
    <path d="M155.85 195.55 L156.65 189.55 144.65 180.6 M290.05 190.4 L286.8 193.5 M290.05 190.4 L293.3 187.3 Q295.05 170.1 290.35 152.85 L289.75 150.7 M156.65 189.55 L165.15 195.9 Q170.5 199.75 182.15 199.95 L186.6 199.9" fill="none" stroke="#000000" stroke-linecap="round" stroke-linejoin="round" stroke-width="1.0"/>
  </g>
</svg>
