<?xml version="1.0" encoding="UTF-8" standalone="no"?>
<svg xmlns:xlink="http://www.w3.org/1999/xlink" height="90.75px" width="118.15px" xmlns="http://www.w3.org/2000/svg">
  <g transform="matrix(1.0, 0.0, 0.0, 1.0, -54.65, -96.35)">
    <path d="M166.45 109.05 L171.9 127.2 Q173.35 133.05 169.55 138.9 L148.5 165.05 Q139.2 176.5 124.75 180.5 113.55 183.45 102.3 184.85 L99.55 185.15 90.2 185.85 86.7 186.0 84.4 186.05 81.95 186.1 78.0 186.0 73.35 185.85 Q63.1 184.9 56.15 180.75 L55.65 165.65 Q58.85 162.85 65.55 161.1 63.9 164.9 62.55 168.75 L78.0 170.05 82.75 169.95 86.3 169.8 90.2 169.5 99.55 168.2 107.85 166.45 113.7 164.85 116.85 163.7 Q128.6 159.05 138.2 150.45 L148.3 139.0 Q150.8 136.05 151.7 133.55 152.75 130.65 151.75 128.25 L147.0 106.05 Q145.95 99.2 154.3 97.5 162.35 96.25 164.95 104.15 L166.45 109.05" fill="url(#gradient0)" fill-rule="evenodd" stroke="none"/>
    <path d="M147.0 106.05 L151.75 128.25 Q152.75 130.65 151.7 133.55 150.8 136.05 148.3 139.0 L138.2 150.45 Q128.6 159.05 116.85 163.7 L113.7 164.85 107.85 166.45 99.55 168.2 90.2 169.5 86.3 169.8 82.75 169.95 78.0 170.05 62.55 168.75 Q63.9 164.9 65.55 161.1 68.6 153.95 72.65 146.9 77.95 137.65 84.95 128.6 L89.1 123.45 147.0 106.05" fill="url(#gradient1)" fill-rule="evenodd" stroke="none"/>
    <path d="M84.4 186.05 L86.7 186.0 90.2 185.85 99.55 185.15 102.3 184.85 Q113.55 183.45 124.75 180.5 139.2 176.5 148.5 165.05 L169.55 138.9 Q173.35 133.05 171.9 127.2 L166.45 109.05 M147.0 106.05 L151.75 128.25 Q152.75 130.65 151.7 133.55 150.8 136.05 148.3 139.0 L138.2 150.45 Q128.6 159.05 116.85 163.7 L113.7 164.85 107.85 166.45 99.55 168.2 90.2 169.5 86.3 169.8 82.75 169.95 78.0 170.05 62.55 168.75 Q63.9 164.9 65.55 161.1" fill="none" stroke="#000000" stroke-linecap="round" stroke-linejoin="round" stroke-width="1.0"/>
    <path d="M166.45 109.05 L164.95 104.15 Q162.35 96.25 154.3 97.5 145.95 99.2 147.0 106.05 L89.1 123.45 84.95 128.6 Q77.95 137.65 72.65 146.9 68.6 153.95 65.55 161.1 58.85 162.85 55.65 165.65 L56.15 180.75 Q63.1 184.9 73.35 185.85 L78.0 186.0 81.95 186.1" fill="none" stroke="#000000" stroke-linecap="round" stroke-linejoin="round" stroke-width="2.0"/>
    <path d="M81.95 186.1 L84.4 186.05" fill="none" stroke="#000000" stroke-linecap="round" stroke-linejoin="round" stroke-width="2.0"/>
    <path d="M158.4 152.75 L148.65 164.85 141.7 146.5 147.3 140.1 158.4 152.75 M84.95 128.6 L89.1 123.45 147.0 106.05 151.75 128.25 Q152.75 130.65 151.7 133.55 L146.95 128.65 Q105.15 140.4 98.05 134.9 95.45 132.9 97.45 128.65 L84.95 128.6" fill="#ffffff" fill-opacity="0.2509804" fill-rule="evenodd" stroke="none"/>
    <path d="M99.55 185.15 L90.2 185.85 86.7 186.0 84.4 186.05 81.95 186.1 78.0 186.0 73.35 185.85 Q63.1 184.9 56.15 180.75 L55.65 165.65 Q58.85 162.85 65.55 161.1 68.6 153.95 72.65 146.9 66.75 161.1 87.2 165.0 95.4 166.55 107.85 166.45 L99.55 168.2 99.55 185.15 M99.55 168.2 L90.2 169.5 86.3 169.8 82.75 169.95 78.0 170.05 62.55 168.75 Q63.9 164.9 65.55 161.1 63.9 164.9 62.55 168.75 L78.0 170.05 82.75 169.95 86.3 169.8 90.2 169.5 99.55 168.2" fill="#000000" fill-opacity="0.2509804" fill-rule="evenodd" stroke="none"/>
    <path d="M84.4 186.05 L81.95 186.1 78.0 186.0 73.35 185.85 Q63.1 184.9 56.15 180.75 L55.65 165.65 Q58.85 162.85 65.55 161.1 68.6 153.95 72.65 146.9 77.95 137.65 84.95 128.6 L89.1 123.45 147.0 106.05 Q145.95 99.2 154.3 97.5 162.35 96.25 164.95 104.15 L166.45 109.05" fill="none" stroke="#000000" stroke-linecap="round" stroke-linejoin="round" stroke-width="2.0"/>
    <path d="M166.45 109.05 L171.9 127.2 Q173.35 133.05 169.55 138.9 L158.4 152.75 148.65 164.85 148.5 165.05 Q139.2 176.5 124.75 180.5 113.55 183.45 102.3 184.85 L99.55 185.15 90.2 185.85 86.7 186.0 84.4 186.05 M65.55 161.1 Q63.9 164.9 62.55 168.75 L78.0 170.05 82.75 169.95 86.3 169.8 90.2 169.5 99.55 168.2 107.85 166.45 113.7 164.85 116.85 163.7 Q128.6 159.05 138.2 150.45 L141.7 146.5 147.3 140.1 148.3 139.0 Q150.8 136.05 151.7 133.55 152.75 130.65 151.75 128.25 L147.0 106.05" fill="none" stroke="#000000" stroke-linecap="round" stroke-linejoin="round" stroke-width="1.0"/>
  </g>
  <defs>
    <radialGradient cx="0" cy="0" gradientTransform="matrix(0.1361, 0.0, 0.0, 0.1361, 82.2, 177.0)" gradientUnits="userSpaceOnUse" id="gradient0" r="819.2" spreadMethod="pad">
      <stop offset="0.0" stop-color="#000000" stop-opacity="0.0"/>
      <stop offset="1.0" stop-color="#000000" stop-opacity="0.2509804"/>
    </radialGradient>
    <radialGradient cx="0" cy="0" gradientTransform="matrix(0.1015, 0.0, 0.0, 0.1015, 81.75, 157.65)" gradientUnits="userSpaceOnUse" id="gradient1" r="819.2" spreadMethod="pad">
      <stop offset="0.0" stop-color="#000000" stop-opacity="0.0"/>
      <stop offset="1.0" stop-color="#000000" stop-opacity="0.2509804"/>
    </radialGradient>
  </defs>
</svg>
