<?xml version="1.0" encoding="UTF-8" standalone="no"?>
<svg xmlns:xlink="http://www.w3.org/1999/xlink" height="69.55px" width="176.75px" xmlns="http://www.w3.org/2000/svg">
  <g transform="matrix(1.0, 0.0, 0.0, 1.0, -115.1, -309.65)">
    <path d="M128.2 322.7 Q123.3 320.25 122.35 319.25 120.75 317.55 121.25 316.55 L169.95 334.2 Q168.15 336.2 166.75 338.55 153.3 333.95 128.2 322.7" fill="#000000" fill-opacity="0.5019608" fill-rule="evenodd" stroke="none"/>
    <path d="M121.25 316.55 Q120.75 317.55 122.35 319.25 123.3 320.25 128.2 322.7 124.75 322.15 121.45 323.3 L120.3 323.2 Q114.95 318.85 116.45 314.8 L121.25 316.55 121.25 316.45 Q121.5 315.3 123.85 315.0 125.25 314.9 130.6 316.1 157.05 323.65 170.35 328.8 169.75 331.65 169.95 334.2 L121.25 316.55" fill="#000000" fill-opacity="0.2509804" fill-rule="evenodd" stroke="none"/>
    <path d="M175.9 327.7 Q177.75 330.45 180.5 331.75 186.2 334.25 195.1 337.5 L196.6 338.05 200.0 339.15 211.0 342.65 215.7 344.15 228.3 348.35 233.0 349.95 238.55 351.85 243.15 353.5 255.1 358.05 256.2 358.5 260.8 360.6 268.75 364.4 272.2 366.15 Q284.5 372.65 290.85 378.2 279.35 378.5 258.0 372.8 L253.45 371.55 250.55 370.7 248.85 370.15 243.75 368.35 228.4 362.7 223.95 360.95 218.35 358.75 214.0 357.05 202.25 352.25 197.95 350.5 192.9 348.35 188.7 346.85 183.95 345.2 176.45 342.9 Q173.55 342.1 170.4 342.95 173.25 337.95 183.15 339.0 174.9 333.45 175.9 327.7 M290.85 378.2 L265.9 369.15 261.8 367.65 255.05 365.2 250.1 363.35 235.75 358.15 231.15 356.5 225.5 354.45 221.0 352.8 208.8 348.35 204.2 346.7 194.25 343.05 189.55 341.3 183.15 339.0 189.55 341.3 194.25 343.05 204.2 346.7 208.8 348.35 221.0 352.8 225.5 354.45 231.15 356.5 235.75 358.15 250.1 363.35 255.05 365.2 261.8 367.65 265.9 369.15 290.85 378.2" fill="url(#gradient0)" fill-rule="evenodd" stroke="none"/>
    <path d="M116.45 314.8 Q114.95 318.85 120.3 323.2 L121.45 323.3 Q124.75 322.15 128.2 322.7 153.3 333.95 166.75 338.55 162.15 348.2 163.7 355.75 164.0 356.7 164.5 355.9 166.2 347.8 168.2 343.8 169.1 343.35 170.4 342.95 173.55 342.1 176.45 342.9 L183.95 345.2 188.7 346.85 192.9 348.35 197.95 350.5 202.25 352.25 214.0 357.05 218.35 358.75 223.95 360.95 228.4 362.7 243.75 368.35 248.85 370.15 250.55 370.7 253.45 371.55 258.0 372.8 Q279.35 378.5 290.85 378.2 284.5 372.65 272.2 366.15 L268.75 364.4 260.8 360.6 256.2 358.5 255.1 358.05 243.15 353.5 238.55 351.85 233.0 349.95 228.3 348.35 215.7 344.15 211.0 342.65 200.0 339.15 196.6 338.05 195.1 337.5 Q186.2 334.25 180.5 331.75 177.75 330.45 175.9 327.7 M130.6 316.1 Q127.6 314.35 125.8 311.4 125.4 310.75 124.85 310.65 117.95 310.6 116.45 314.75 L116.45 314.8 M170.35 328.8 Q173.0 318.45 179.05 313.65 179.9 313.1 179.7 314.1 175.85 321.35 174.8 325.75 L175.7 327.4 175.8 327.55 M170.35 328.8 Q157.05 323.65 130.6 316.1" fill="none" stroke="#000000" stroke-linecap="round" stroke-linejoin="round" stroke-width="2.0"/>
    <path d="M128.2 322.7 Q123.3 320.25 122.35 319.25 120.75 317.55 121.25 316.55 L121.25 316.45 Q121.5 315.3 123.85 315.0 125.25 314.9 130.6 316.1" fill="none" stroke="#000000" stroke-linecap="round" stroke-linejoin="round" stroke-width="0.5"/>
    <path d="M166.75 338.55 Q168.15 336.2 169.95 334.2 170.1 336.7 171.4 338.8 169.7 340.7 168.2 343.8 M174.8 325.75 Q173.15 332.3 174.85 335.95 173.25 336.7 171.85 338.3 L171.4 338.8 M169.95 334.2 Q169.75 331.65 170.35 328.8" fill="none" stroke="#000000" stroke-linecap="round" stroke-linejoin="round" stroke-width="1.0"/>
    <path d="M175.8 327.55 L175.9 327.7" fill="none" stroke="#000000" stroke-linecap="round" stroke-linejoin="round" stroke-width="0.5"/>
    <path d="M175.9 327.7 Q174.9 333.45 183.15 339.0 L189.55 341.3 194.25 343.05 204.2 346.7 208.8 348.35 221.0 352.8 225.5 354.45 231.15 356.5 235.75 358.15 250.1 363.35 255.05 365.2 261.8 367.65 265.9 369.15 290.85 378.2 M183.15 339.0 Q173.25 337.95 170.4 342.95" fill="none" stroke="#000000" stroke-linecap="round" stroke-linejoin="round" stroke-opacity="0.2509804" stroke-width="0.5"/>
  </g>
  <defs>
    <linearGradient gradientTransform="matrix(-0.0015, 0.0042, -0.0714, -0.0253, 231.9, 356.0)" gradientUnits="userSpaceOnUse" id="gradient0" spreadMethod="pad" x1="-819.2" x2="819.2">
      <stop offset="0.0" stop-color="#000000" stop-opacity="0.0"/>
      <stop offset="1.0" stop-color="#000000" stop-opacity="0.2509804"/>
    </linearGradient>
  </defs>
</svg>
