<?xml version="1.0" encoding="UTF-8" standalone="no"?>
<svg xmlns:xlink="http://www.w3.org/1999/xlink" height="144.25px" width="366.15px" xmlns="http://www.w3.org/2000/svg">
  <g transform="matrix(1.0, 0.0, 0.0, 1.0, -39.7, -282.85)">
    <path d="M346.85 392.85 Q345.15 397.4 347.2 401.85 349.25 406.3 353.9 408.0 358.45 409.65 362.9 407.6 367.35 405.5 369.0 400.95 370.7 396.3 368.6 391.9 366.55 387.45 361.95 385.75 357.35 384.1 352.95 386.2 348.5 388.2 346.85 392.85 M181.35 312.15 L383.1 385.6 Q396.1 389.15 404.85 378.55 400.4 398.5 394.2 409.85 381.7 424.25 356.35 414.55 L231.4 370.95 Q231.3 367.3 229.45 363.8 226.05 357.55 218.95 355.0 211.85 352.35 205.3 355.05 201.35 356.65 198.95 359.5 L168.15 348.35 170.0 343.05 Q175.6 344.75 178.45 345.0 181.2 345.25 183.5 344.35 186.75 343.0 187.9 339.9 189.05 336.7 187.4 333.55 186.25 331.35 184.55 330.25 181.2 327.85 176.4 325.8 L181.35 312.15" fill="url(#gradient0)" fill-rule="evenodd" stroke="none"/>
    <path d="M394.2 409.85 Q388.7 419.9 381.75 423.15 366.65 429.95 345.25 421.0 L227.1 378.8 Q228.4 373.65 227.55 369.6 226.85 366.1 224.65 363.35 222.0 359.85 217.55 358.25 211.9 356.2 206.7 358.35 L206.55 358.4 205.25 358.95 202.5 360.8 Q199.15 363.45 197.25 368.1 L165.15 356.45 168.15 348.35 198.95 359.5 Q201.35 356.65 205.3 355.05 211.85 352.35 218.95 355.0 226.05 357.55 229.45 363.8 231.3 367.3 231.4 370.95 L356.35 414.55 Q381.7 424.25 394.2 409.85" fill="#ffffff" fill-opacity="0.2509804" fill-rule="evenodd" stroke="none"/>
    <path d="M165.15 356.45 L164.2 356.1 Q162.8 355.3 163.2 354.3 L167.55 342.2 Q167.55 339.95 167.9 337.9 L168.1 336.8 163.9 335.25 162.9 336.05 151.05 331.75 150.8 330.45 130.8 323.2 129.8 324.05 117.55 319.55 117.3 318.3 93.75 309.7 92.75 310.5 80.35 306.0 80.15 304.75 57.15 296.35 56.2 297.2 41.0 291.65 40.75 290.45 Q40.5 288.4 41.25 286.75 L56.5 292.3 Q55.7 293.9 56.0 296.0 L57.15 296.35 56.0 296.0 Q55.7 293.9 56.5 292.3 L80.7 301.05 93.05 305.5 117.85 314.5 Q117.05 316.15 117.3 318.3 117.05 316.15 117.85 314.5 L130.15 319.0 151.4 326.7 Q150.55 328.35 150.8 330.45 150.55 328.35 151.4 326.7 L163.3 330.95 169.15 333.1 171.55 334.0 Q170.0 338.25 170.0 343.05 L168.15 348.35 165.15 356.45 M187.9 339.9 Q186.75 343.0 183.5 344.35 181.2 345.25 178.45 345.0 175.6 344.75 170.0 343.05 170.0 338.25 171.55 334.0 L187.9 339.9 M80.15 304.75 Q79.85 302.7 80.7 301.05 79.85 302.7 80.15 304.75 M130.8 323.2 L129.6 322.75 Q129.3 320.65 130.15 319.0 129.3 320.65 129.6 322.75 L130.8 323.2 M93.75 309.7 L92.5 309.25 Q92.25 307.2 93.05 305.5 92.25 307.2 92.5 309.25 L93.75 309.7 M168.1 336.8 Q168.45 334.85 169.15 333.1 168.45 334.85 168.1 336.8 M163.9 335.25 L162.7 334.8 Q162.4 332.65 163.3 330.95 162.4 332.65 162.7 334.8 L163.9 335.25" fill="#000000" fill-opacity="0.2509804" fill-rule="evenodd" stroke="none"/>
    <path d="M181.35 312.15 L383.1 385.6 Q396.1 389.15 404.85 378.55 400.4 398.5 394.2 409.85 388.7 419.9 381.75 423.15 366.65 429.95 345.25 421.0 L227.1 378.8 Q228.4 373.65 227.55 369.6 226.85 366.1 224.65 363.35 222.0 359.85 217.55 358.25 211.9 356.2 206.7 358.35 L206.55 358.4 205.25 358.95 202.5 360.8 Q199.15 363.45 197.25 368.1 L165.15 356.45 164.2 356.1 Q162.8 355.3 163.2 354.3 L167.55 342.2 Q167.55 339.95 167.9 337.9 L168.1 336.8 163.9 335.25 162.9 336.05 151.05 331.75 150.8 330.45 130.8 323.2 129.8 324.05 117.55 319.55 117.3 318.3 93.75 309.7 92.75 310.5 80.35 306.0 80.15 304.75 57.15 296.35 56.2 297.2 41.0 291.65 40.75 290.45 Q40.5 288.4 41.25 286.75 41.8 285.6 42.85 284.6 L43.85 283.85 59.1 289.35 59.3 290.6 82.3 298.95 83.2 298.2 95.6 302.65 95.8 303.9 119.45 312.5 120.4 311.65 132.65 316.1 132.95 317.4 152.9 324.7 153.9 323.85 165.8 328.2 166.0 329.45 170.0 330.85 170.5 329.9 Q171.9 327.3 173.9 324.9 L178.35 312.7 Q178.85 311.1 180.25 311.75 L181.35 312.15" fill="none" stroke="#000000" stroke-linecap="round" stroke-linejoin="round" stroke-width="2.0"/>
    <path d="M346.85 392.85 Q345.15 397.4 347.2 401.85 349.25 406.3 353.9 408.0 358.45 409.65 362.9 407.6 367.35 405.5 369.0 400.95 370.7 396.3 368.6 391.9 366.55 387.45 361.95 385.75 357.35 384.1 352.95 386.2 348.5 388.2 346.85 392.85 M181.35 312.15 L176.4 325.8 Q181.2 327.85 184.55 330.25 186.25 331.35 187.4 333.55 189.05 336.7 187.9 339.9 186.75 343.0 183.5 344.35 181.2 345.25 178.45 345.0 175.6 344.75 170.0 343.05 L168.15 348.35 165.15 356.45 M56.5 292.3 Q57.05 291.15 58.1 290.15 L59.3 290.6 M56.5 292.3 Q55.7 293.9 56.0 296.0 L57.15 296.35 M80.7 301.05 Q79.85 302.7 80.15 304.75 M132.95 317.4 L131.7 316.95 Q130.7 317.9 130.15 319.0 129.3 320.65 129.6 322.75 L130.8 323.2 M151.4 326.7 Q151.9 325.6 152.9 324.7 M150.8 330.45 Q150.55 328.35 151.4 326.7 M163.3 330.95 Q163.8 329.85 164.85 329.0 L166.0 329.45 M117.3 318.3 Q117.05 316.15 117.85 314.5 118.4 313.4 119.45 312.5 M93.05 305.5 Q92.25 307.2 92.5 309.25 L93.75 309.7 M95.8 303.9 L94.6 303.4 Q93.55 304.35 93.05 305.5 M82.3 298.95 Q81.25 299.9 80.7 301.05 M171.55 334.0 Q173.15 329.55 176.4 325.8 M170.0 330.85 L169.95 331.0 169.55 331.85 169.15 333.1 Q168.45 334.85 168.1 336.8 M163.3 330.95 Q162.4 332.65 162.7 334.8 L163.9 335.25 M171.55 334.0 Q170.0 338.25 170.0 343.05" fill="none" stroke="#000000" stroke-linecap="round" stroke-linejoin="round" stroke-width="1.0"/>
    <path d="M168.15 348.35 L198.95 359.5 Q201.35 356.65 205.3 355.05 211.85 352.35 218.95 355.0 226.05 357.55 229.45 363.8 231.3 367.3 231.4 370.95 L356.35 414.55 Q381.7 424.25 394.2 409.85" fill="none" stroke="#000000" stroke-linecap="round" stroke-linejoin="round" stroke-opacity="0.5019608" stroke-width="0.5"/>
  </g>
  <defs>
    <linearGradient gradientTransform="matrix(-0.0074, 0.0208, -0.1361, -0.0482, 285.35, 370.15)" gradientUnits="userSpaceOnUse" id="gradient0" spreadMethod="pad" x1="-819.2" x2="819.2">
      <stop offset="0.0" stop-color="#000000" stop-opacity="0.0"/>
      <stop offset="1.0" stop-color="#000000" stop-opacity="0.2509804"/>
    </linearGradient>
  </defs>
</svg>
