<?xml version="1.0" encoding="UTF-8" standalone="no"?>
<svg xmlns:xlink="http://www.w3.org/1999/xlink" height="162.55px" width="364.95px" xmlns="http://www.w3.org/2000/svg">
  <g transform="matrix(1.0, 0.0, 0.0, 1.0, 17.2, -259.0)">
    <path d="M6.4 269.1 Q8.65 268.1 10.4 270.5 12.75 269.8 14.75 272.1 17.1 271.85 18.75 273.55 21.15 273.35 23.15 275.2 26.0 274.35 28.1 276.95 31.05 276.3 32.85 278.65 36.35 278.05 37.15 280.25 39.6 279.45 41.65 281.9 44.7 280.9 46.5 283.65 49.55 281.95 50.9 285.25 53.6 284.4 55.1 286.8 57.85 286.2 59.55 288.4 L117.05 309.35 115.8 322.2 96.4 314.9 Q92.5 316.65 93.65 312.25 L55.9 298.5 Q53.15 299.1 51.45 296.9 48.7 297.75 47.2 295.4 44.05 297.05 42.8 293.8 39.7 294.7 37.95 292.05 34.8 292.6 33.45 290.4 31.45 291.55 29.15 288.8 26.25 289.45 24.45 287.1 21.15 287.75 19.5 285.25 16.75 285.35 15.1 283.65 12.7 283.9 11.05 282.25 8.1 282.7 6.7 280.65 3.8 281.35 2.7 279.2 -0.7 281.9 -1.15 277.8 -4.0 276.4 -7.2 279.0 -8.45 281.75 -12.05 279.5 -19.55 275.7 -16.15 266.55 -12.9 257.4 -4.7 259.35 -0.5 259.9 -1.3 262.8 -0.55 266.85 2.55 267.65 5.5 264.75 6.4 269.1 M171.3 320.1 L173.0 318.5 Q173.4 318.05 173.9 317.7 L176.5 316.15 Q177.7 315.6 178.9 315.5 179.9 316.5 179.9 317.45 179.85 318.5 178.35 319.35 L177.35 319.85 Q175.55 326.15 178.2 331.55 181.6 330.85 183.75 333.6 L226.2 349.05 226.75 346.75 Q235.15 346.05 240.85 351.45 L240.05 354.05 253.85 359.15 254.8 356.15 Q261.65 355.95 266.75 360.35 L265.65 363.4 276.0 367.2 Q281.45 368.0 286.8 371.1 289.9 372.7 290.55 374.8 L347.75 399.05 288.35 380.85 Q286.5 382.0 283.1 381.25 277.0 380.25 272.3 377.35 L261.95 373.55 259.45 380.45 Q257.15 399.15 264.7 411.05 L262.65 421.55 252.05 420.3 241.45 418.55 232.15 416.5 227.1 415.15 Q217.6 412.6 208.85 409.2 L202.2 406.35 Q195.15 403.2 188.65 399.45 L181.0 394.7 Q176.15 391.5 171.65 387.95 L166.5 383.7 Q154.3 373.05 144.55 359.55 198.5 392.8 221.25 370.8 222.9 360.9 211.25 355.1 L180.1 343.75 Q176.6 344.6 174.5 341.7 170.9 343.75 166.0 345.1 L166.2 339.1 Q166.45 332.25 167.15 325.45 L167.25 325.2 167.75 324.5 171.15 320.25 171.3 320.1" fill="#000000" fill-rule="evenodd" stroke="none"/>
  </g>
</svg>
