<?xml version="1.0" encoding="UTF-8" standalone="no"?>
<svg xmlns:xlink="http://www.w3.org/1999/xlink" height="159.2px" width="415.15px" xmlns="http://www.w3.org/2000/svg">
  <g transform="matrix(1.0, 0.0, 0.0, 1.0, 9.95, -268.25)">
    <path d="M341.65 414.35 L366.9 426.45 Q352.05 421.55 341.3 424.2 342.65 422.25 344.0 421.3 344.8 420.6 345.7 420.35 332.45 412.35 317.4 412.55 L324.05 409.05 Q332.35 410.85 341.65 414.35 M333.15 369.25 Q344.55 379.05 359.8 381.4 359.3 380.65 359.1 379.65 358.7 378.0 358.95 375.7 365.55 384.65 380.05 390.4 L352.9 383.45 Q343.5 380.15 336.05 376.2 L333.15 369.25" fill="#ffffff" fill-opacity="0.2509804" fill-rule="evenodd" stroke="none"/>
    <path d="M337.15 388.85 L337.2 388.85 Q353.5 398.8 380.55 409.0 380.1 408.0 379.95 407.1 379.45 404.95 379.9 403.2 385.35 409.9 404.2 419.65 L339.1 395.9 Q337.15 392.9 337.15 388.85" fill="url(#gradient0)" fill-rule="evenodd" stroke="none"/>
    <path d="M352.9 383.45 L336.55 379.25 Q332.35 378.65 330.45 381.75 328.95 384.3 330.0 386.7 332.25 391.15 337.15 388.85 337.15 392.9 339.1 395.9 335.65 396.95 333.1 400.1 330.8 395.15 326.2 397.15 323.9 398.3 323.35 401.25 322.85 404.85 326.45 407.05 L341.65 414.35 Q332.35 410.85 324.05 409.05 L317.4 412.55 Q317.9 404.6 314.6 399.35 L321.85 392.95 294.3 382.9 Q294.1 381.2 294.6 379.75 295.15 378.25 296.4 377.1 L324.0 387.1 322.6 377.55 Q328.45 375.65 333.15 369.25 L336.05 376.2 Q343.5 380.15 352.9 383.45" fill="url(#gradient1)" fill-rule="evenodd" stroke="none"/>
    <path d="M404.2 419.65 Q383.5 414.9 375.0 416.55 375.8 414.9 377.6 413.65 L379.3 412.5 Q351.95 402.95 333.1 400.15 L333.1 400.1 Q335.65 396.95 339.1 395.9 L404.2 419.65" fill="url(#gradient2)" fill-rule="evenodd" stroke="none"/>
    <path d="M294.6 379.75 Q294.1 381.2 294.3 382.9 L57.7 296.8 Q57.5 295.2 58.05 293.8 L294.6 379.75 M26.85 282.35 L26.9 282.45 Q28.35 285.3 27.85 290.5 L-8.8 269.35 26.85 282.35" fill="#000000" fill-opacity="0.2509804" fill-rule="evenodd" stroke="none"/>
    <path d="M352.9 383.45 L336.55 379.25 Q332.35 378.65 330.45 381.75 328.95 384.3 330.0 386.7 332.25 391.15 337.15 388.85 M337.2 388.85 Q353.5 398.8 380.55 409.0 380.1 408.0 379.95 407.1 379.45 404.95 379.9 403.2 385.35 409.9 404.2 419.65 383.5 414.9 375.0 416.55 375.8 414.9 377.6 413.65 L379.3 412.5 Q351.95 402.95 333.1 400.15 M333.1 400.1 Q330.8 395.15 326.2 397.15 323.9 398.3 323.35 401.25 322.85 404.85 326.45 407.05 L341.65 414.35 366.9 426.45 Q352.05 421.55 341.3 424.2 342.65 422.25 344.0 421.3 344.8 420.6 345.7 420.35 332.45 412.35 317.4 412.55 L317.35 412.55 M333.15 369.25 Q344.55 379.05 359.8 381.4 359.3 380.65 359.1 379.65 358.7 378.0 358.95 375.7 365.55 384.65 380.05 390.4 L352.9 383.45 M333.15 369.25 Q328.45 375.65 322.6 377.55 L324.0 387.1 296.4 377.1 59.8 291.0 45.4 285.75 Q34.4 280.2 32.9 276.7 L-8.95 269.25 M294.3 382.9 L321.85 392.95 314.6 399.35 Q317.9 404.6 317.4 412.55 M27.9 290.5 Q31.25 288.75 43.25 291.55 L57.7 296.8 294.3 382.9 M-8.8 269.35 L27.85 290.5" fill="none" stroke="#000000" stroke-linecap="round" stroke-linejoin="round" stroke-width="2.0"/>
    <path d="M337.15 388.85 L337.2 388.85 M333.1 400.15 L333.1 400.1 M26.85 282.35 L26.9 282.45 Q28.35 285.3 27.85 290.5 L27.9 290.5 M32.9 276.7 Q29.85 281.1 26.85 282.35 L-8.8 269.35 -8.95 269.25" fill="none" stroke="#000000" stroke-linecap="round" stroke-linejoin="round" stroke-width="0.5"/>
    <path d="M337.15 388.85 Q337.15 392.9 339.1 395.9 L404.2 419.65 M352.9 383.45 Q343.5 380.15 336.05 376.2 L333.15 369.25 M317.4 412.55 L324.05 409.05 Q332.35 410.85 341.65 414.35 M339.1 395.9 Q335.65 396.95 333.1 400.1" fill="none" stroke="#000000" stroke-linecap="round" stroke-linejoin="round" stroke-opacity="0.5019608" stroke-width="0.5"/>
    <path d="M296.4 377.1 Q295.15 378.25 294.6 379.75 294.1 381.2 294.3 382.9 M57.7 296.8 Q57.5 295.2 58.05 293.8 58.55 292.25 59.8 291.0" fill="none" stroke="#000000" stroke-linecap="round" stroke-linejoin="round" stroke-width="1.0"/>
  </g>
  <defs>
    <linearGradient gradientTransform="matrix(0.0, 0.0012, -0.0409, 0.0, 370.7, 410.6)" gradientUnits="userSpaceOnUse" id="gradient0" spreadMethod="pad" x1="-819.2" x2="819.2">
      <stop offset="0.0" stop-color="#000000" stop-opacity="0.0"/>
      <stop offset="1.0" stop-color="#000000" stop-opacity="0.2509804"/>
    </linearGradient>
    <linearGradient gradientTransform="matrix(-0.0078, 0.023, -0.0331, -0.0113, 323.0, 389.2)" gradientUnits="userSpaceOnUse" id="gradient1" spreadMethod="pad" x1="-819.2" x2="819.2">
      <stop offset="0.0" stop-color="#000000" stop-opacity="0.0"/>
      <stop offset="1.0" stop-color="#000000" stop-opacity="0.2509804"/>
    </linearGradient>
    <linearGradient gradientTransform="matrix(0.0, 0.0145, -0.0434, 0.0, 368.65, 407.75)" gradientUnits="userSpaceOnUse" id="gradient2" spreadMethod="pad" x1="-819.2" x2="819.2">
      <stop offset="0.0" stop-color="#000000" stop-opacity="0.0"/>
      <stop offset="1.0" stop-color="#000000" stop-opacity="0.2509804"/>
    </linearGradient>
  </defs>
</svg>
