<?xml version="1.0" encoding="UTF-8" standalone="no"?>
<svg xmlns:xlink="http://www.w3.org/1999/xlink" height="93.45px" width="218.05px" xmlns="http://www.w3.org/2000/svg">
  <g transform="matrix(1.0, 0.0, 0.0, 1.0, -93.1, -301.45)">
    <path d="M96.65 312.85 Q96.0 311.2 97.15 307.7 L179.8 337.75 Q178.8 340.35 178.8 342.75 L96.65 312.85 M182.1 343.95 Q181.75 342.55 183.05 338.9 L262.15 367.65 Q260.85 370.9 259.65 372.15 L182.1 343.95 M289.75 372.4 L266.6 363.95 266.65 363.45 275.25 366.4 276.4 366.9 Q289.3 371.7 298.9 365.05 300.9 374.3 305.2 378.05 L300.25 376.25 Q298.75 374.45 297.7 372.1 L289.75 372.4 M262.9 373.75 L263.2 373.3 286.35 381.75 Q289.75 384.1 292.3 387.05 294.6 385.9 296.9 385.6 L301.8 387.35 Q296.15 387.4 288.65 393.25 285.6 381.95 272.6 377.4 L271.4 377.0 262.9 373.75 M264.9 370.0 L265.4 368.8 265.75 367.6 274.75 370.85 274.95 370.9 Q291.1 376.4 296.8 375.4 298.05 378.6 304.4 381.7 L304.0 382.85 304.0 382.9 303.5 384.05 Q296.7 382.35 293.7 384.0 289.95 379.55 274.05 373.35 L273.85 373.25 264.9 370.0 M303.5 384.05 L274.05 373.35 303.5 384.05 M274.95 370.9 L304.4 381.7 274.95 370.9" fill="#000000" fill-opacity="0.2509804" fill-rule="evenodd" stroke="none"/>
    <path d="M97.15 307.7 L97.2 307.6 Q98.55 304.05 100.15 303.25 M96.65 312.85 Q96.0 311.2 97.15 307.7 M179.8 337.75 L180.0 337.25 Q181.1 334.25 182.3 333.15 M179.8 337.75 Q178.8 340.35 178.8 342.75 M289.75 372.4 L266.6 363.95 266.65 363.45 M263.2 361.9 L263.15 362.15 263.15 362.5 263.15 362.55 M259.65 372.15 L259.55 372.25 259.35 372.5 259.3 372.7 M262.9 373.75 L263.2 373.3 286.35 381.75 M275.25 366.4 L276.4 366.9 M274.75 370.85 L274.95 370.9 304.4 381.7 M296.8 375.4 L297.7 372.1 M263.15 362.5 L262.85 362.35 M259.35 372.15 L259.55 372.25 M272.6 377.4 L271.4 377.0 M292.3 387.05 L293.7 384.0 M274.05 373.35 L273.85 373.25 M296.9 385.6 L301.8 387.35 M306.95 381.35 L307.4 381.5 307.35 380.75 M305.2 386.65 L305.7 386.1 305.3 385.9 M300.25 376.25 L305.2 378.05 M274.05 373.35 L303.5 384.05" fill="none" stroke="#000000" stroke-linecap="round" stroke-linejoin="round" stroke-width="0.5"/>
    <path d="M100.15 303.25 Q99.25 301.65 96.95 303.25 95.3 304.6 94.55 306.65 L94.55 306.75 Q93.85 308.75 94.2 310.8 94.95 313.5 96.65 312.85 L178.8 342.75 Q179.8 344.4 182.1 343.95 L259.65 372.15 M182.3 333.15 L100.15 303.25 M185.65 334.4 Q184.15 332.55 182.3 333.15 M266.65 363.45 L266.65 362.7 Q265.2 361.8 263.6 361.6 263.35 361.65 263.25 361.8 L263.2 361.9 262.85 362.35 M259.3 372.7 L259.3 372.75 Q259.2 373.0 259.4 373.2 260.75 374.05 262.4 374.3 L262.9 373.75 271.4 377.0 272.55 377.5 Q275.4 378.8 277.7 380.35 283.95 386.15 284.65 392.75 L286.5 392.2 286.9 393.9 288.65 393.25 Q296.15 387.4 301.8 387.35 L303.05 387.3 304.1 385.55 305.3 385.9 305.2 386.65 Q309.0 387.35 310.05 385.1 L310.05 385.05 Q310.7 382.65 307.35 380.75 L306.95 381.35 305.75 380.9 306.1 378.85 Q305.9 377.7 305.2 378.05 300.9 374.3 298.9 365.05 L297.95 363.45 296.55 364.5 295.5 362.85 Q290.75 367.5 282.2 367.85 279.45 367.6 276.45 366.75 L275.25 366.4 266.65 363.45 M259.3 372.7 L259.35 372.15 M185.65 334.4 L263.15 362.55" fill="none" stroke="#000000" stroke-linecap="round" stroke-linejoin="round" stroke-width="2.0"/>
    <path d="M182.1 343.95 Q181.75 342.55 183.05 338.9 L183.05 338.85 Q184.4 335.1 185.65 334.4 M266.6 363.95 L266.35 365.35 278.85 369.9 Q284.5 371.95 289.75 372.4 L297.7 372.1 Q298.75 374.45 300.25 376.25 302.1 378.4 304.95 379.7 L304.4 381.7 304.0 382.85 304.0 382.9 303.5 384.05 Q296.7 382.35 293.7 384.0 289.95 379.55 274.05 373.35 M263.15 362.55 Q263.25 364.3 262.15 367.65 260.85 370.9 259.65 372.15 M263.2 373.3 L263.9 372.1 264.9 370.0 265.4 368.8 265.75 367.6 266.35 365.35 M276.4 366.9 Q289.3 371.7 298.9 365.05 M296.55 364.5 Q290.55 368.7 282.2 367.85 M274.95 370.9 Q291.1 376.4 296.8 375.4 298.05 378.6 304.4 381.7 M265.75 367.6 L274.75 370.85 M277.7 380.35 Q284.65 385.05 286.5 392.2 M288.65 393.25 Q285.6 381.95 272.6 377.4 M263.9 372.1 L276.4 376.65 Q282.05 378.7 286.35 381.75 289.75 384.1 292.3 387.05 294.6 385.9 296.9 385.6 L302.65 385.9 301.8 387.35 M273.85 373.25 L264.9 370.0 M303.5 384.05 L302.65 385.9 M304.1 385.55 L305.1 383.25 305.15 383.2 305.75 380.9 M305.2 378.05 L304.95 379.7 M305.7 386.1 L306.9 383.95 306.95 383.9 307.4 381.5" fill="none" stroke="#000000" stroke-linecap="round" stroke-linejoin="round" stroke-width="1.0"/>
  </g>
</svg>
