<?xml version="1.0" encoding="UTF-8" standalone="no"?>
<svg xmlns:xlink="http://www.w3.org/1999/xlink" height="77.75px" width="146.95px" xmlns="http://www.w3.org/2000/svg">
  <g transform="matrix(1.0, 0.0, 0.0, 1.0, -116.6, -313.7)">
    <path d="M116.6 313.85 L116.65 313.7 116.65 313.95 116.6 313.85 M166.65 333.7 L166.7 332.1 195.55 347.2 197.15 345.75 Q198.45 344.65 200.1 343.85 L215.55 351.25 216.8 355.05 227.0 360.3 231.05 360.3 231.05 355.2 237.45 357.6 Q239.9 356.8 242.7 356.8 L247.25 357.35 252.3 355.2 252.6 359.95 254.75 361.75 Q257.0 364.0 258.3 366.75 L263.55 369.05 259.7 373.1 259.75 373.85 Q259.75 379.05 257.1 383.1 L256.7 388.9 250.9 388.9 Q247.25 390.9 242.7 390.95 L237.65 390.25 231.3 391.45 231.25 386.5 230.6 385.9 Q227.8 383.1 226.6 379.7 L225.8 379.05 Q224.65 377.9 224.65 376.25 224.65 375.4 224.95 374.7 L221.4 371.15 210.95 365.65 206.85 366.65 191.45 358.65 Q191.5 355.9 192.1 353.5 L166.5 340.2 Q166.5 336.9 166.65 333.7 M213.9 357.05 L214.0 356.95 213.85 357.05 213.9 357.05 M212.05 359.55 L212.1 359.55 212.05 359.5 212.05 359.55 M225.6 373.6 L225.8 373.45 225.6 373.45 225.6 373.6" fill="#000000" fill-rule="evenodd" stroke="none"/>
  </g>
</svg>
