<?xml version="1.0" encoding="UTF-8" standalone="no"?>
<svg xmlns:xlink="http://www.w3.org/1999/xlink" height="108.95px" width="98.75px" xmlns="http://www.w3.org/2000/svg">
  <g transform="matrix(1.0, 0.0, 0.0, 1.0, -139.75, -306.6)">
    <path d="M143.15 391.65 L143.45 392.45 143.0 392.5 140.0 393.1 Q139.25 391.5 140.95 391.05 142.55 390.6 143.15 391.65 M168.2 310.9 Q168.85 306.2 171.05 306.65 173.0 307.05 171.75 312.7 L173.7 317.4 176.55 317.75 177.45 318.2 178.1 320.2 Q185.9 322.4 189.45 330.15 191.2 335.0 190.85 338.6 L197.3 358.6 197.3 359.05 Q199.6 362.35 202.55 362.0 202.7 364.7 199.95 366.15 195.6 367.85 194.65 363.85 L188.6 344.6 187.4 346.95 185.4 348.15 194.65 380.1 Q197.8 384.45 202.65 384.55 203.85 385.1 203.6 386.3 L203.0 387.55 Q200.25 389.25 197.6 389.15 196.35 389.1 195.1 388.55 L193.65 387.8 192.45 389.2 Q191.3 390.25 190.0 390.65 L187.15 390.75 Q185.15 390.15 185.75 388.35 186.0 387.55 186.75 386.65 L188.65 386.0 Q190.25 385.4 191.3 384.65 L192.8 382.7 182.3 349.05 180.3 349.1 177.4 348.5 Q173.2 347.15 168.7 342.55 167.55 341.6 166.7 340.2 168.1 344.0 167.7 347.85 L166.4 344.9 166.6 344.85 166.5 339.8 Q166.5 336.75 166.65 333.7 166.8 328.7 167.45 323.75 L168.95 322.65 Q170.1 321.95 171.3 321.65 L172.15 321.05 169.7 313.1 Q168.45 312.8 168.2 310.9 M166.6 340.0 L166.5 339.8 166.6 340.0 M236.45 379.8 Q238.15 379.5 238.5 381.8 236.75 381.3 234.4 381.75 234.45 381.2 234.75 380.8 235.25 379.95 236.45 379.8 M198.7 357.0 Q199.8 355.75 201.3 355.2 200.85 348.6 206.3 346.85 209.05 346.4 208.85 349.25 208.05 355.05 204.0 356.45 204.3 357.9 203.6 359.35 200.65 360.4 198.7 357.0 M189.5 405.55 Q190.4 407.2 190.0 408.85 189.7 410.05 190.15 411.05 190.8 412.35 192.9 413.05 195.1 413.1 197.15 412.2 199.9 411.05 199.35 408.95 L200.85 406.25 202.1 410.0 Q202.35 412.05 200.05 413.25 196.1 415.0 191.95 415.5 188.25 416.05 187.05 410.9 186.7 409.35 187.35 407.95 187.95 406.65 189.5 405.55" fill="#000000" fill-rule="evenodd" stroke="none"/>
  </g>
</svg>
