<?xml version="1.0" encoding="UTF-8" standalone="no"?>
<svg xmlns:xlink="http://www.w3.org/1999/xlink" height="55.6px" width="83.3px" xmlns="http://www.w3.org/2000/svg">
  <g transform="matrix(1.0, 0.0, 0.0, 1.0, -126.2, -314.9)">
    <path d="M140.35 336.1 L131.8 333.85 Q128.05 324.6 136.25 317.95 L137.55 318.25 204.0 336.7 Q199.1 343.8 200.3 351.9 L170.85 344.1 167.7 343.3 140.35 336.1 M141.45 331.75 L141.25 331.75 141.1 331.75 140.9 331.7 140.65 331.5 140.4 331.55 140.3 331.65 140.55 331.85 140.8 332.0 141.05 332.0 141.25 332.0 141.4 332.1 141.65 332.3 141.8 332.25 141.9 332.1 141.75 331.9 141.45 331.75 M139.0 332.0 L138.85 332.3 Q138.75 332.55 139.15 332.85 L140.05 333.2 140.7 333.4 142.35 333.7 Q142.8 333.7 142.9 333.4 L142.9 332.85 142.75 332.6 142.5 332.65 142.4 332.85 142.55 333.05 142.7 333.2 142.3 333.4 140.95 333.1 140.25 332.9 139.45 332.6 139.15 332.25 139.25 332.05 139.45 331.9 139.45 331.85 139.3 331.85 139.0 332.0 M140.6 330.9 L140.5 331.0 140.7 331.2 140.95 331.4 141.2 331.4 141.35 331.35 141.65 331.5 141.8 331.65 141.95 331.65 142.15 331.5 141.9 331.25 141.65 331.1 141.4 331.15 141.25 331.15 141.1 331.0 140.8 330.85 140.6 330.9 M135.8 332.5 L135.65 332.5 135.4 332.35 135.2 332.25 135.1 332.25 134.9 332.35 135.1 332.55 135.35 332.8 135.6 332.75 135.8 332.75 135.9 332.85 136.2 332.95 136.4 332.95 136.5 332.85 136.3 332.6 136.0 332.45 135.8 332.5 M135.55 330.9 L135.15 331.0 135.1 331.15 135.15 331.15 135.2 331.15 135.4 331.15 135.8 331.15 Q136.3 331.25 136.5 331.45 L136.8 331.9 136.75 331.95 136.55 331.95 134.0 331.3 133.9 331.65 138.3 332.8 138.4 332.45 138.35 332.45 138.3 332.4 137.95 332.35 137.75 332.2 137.25 331.7 136.7 331.2 136.1 330.95 135.55 330.9 M137.2 323.8 L137.35 324.05 137.6 324.25 137.8 324.2 138.0 324.2 138.15 324.3 138.45 324.4 138.6 324.4 138.75 324.3 138.55 324.1 138.2 323.95 138.05 323.95 137.85 324.0 137.65 323.8 137.45 323.7 137.3 323.7 137.2 323.8 M140.0 323.65 L139.5 323.15 138.9 322.65 138.3 322.45 137.8 322.4 137.35 322.5 137.3 322.55 137.35 322.6 137.4 322.6 137.6 322.6 138.05 322.6 Q138.5 322.7 138.75 322.95 L139.05 323.3 139.0 323.4 138.85 323.45 136.2 322.75 136.15 323.1 140.55 324.25 140.55 324.2 140.6 323.95 140.5 323.85 140.2 323.8 140.0 323.65 M140.7 323.95 L140.6 324.25 144.8 325.35 145.05 325.3 145.2 325.2 145.1 325.1 145.05 325.1 144.95 325.05 144.65 324.95 144.45 324.8 143.95 324.3 143.4 323.8 142.8 323.6 142.25 323.55 141.8 323.65 141.8 323.75 141.85 323.75 141.9 323.75 142.15 323.75 142.5 323.75 Q143.0 323.85 143.25 324.1 L143.5 324.55 143.45 324.55 143.3 324.6 140.7 323.95 M154.4 337.35 L154.3 337.45 154.45 337.6 154.8 337.8 155.0 337.75 155.05 337.7 154.95 337.45 154.6 337.25 154.4 337.35 M154.1 338.1 L154.3 338.3 154.6 338.45 154.85 338.4 154.95 338.35 154.7 338.1 154.45 337.9 154.25 337.95 154.1 338.1 M157.1 337.7 L157.3 337.6 157.45 337.5 157.35 337.4 157.3 337.4 157.25 337.4 156.9 337.3 156.7 337.2 156.2 336.65 155.65 336.15 155.05 335.9 154.5 335.85 154.1 335.95 154.05 336.1 154.1 336.1 154.15 336.1 154.4 336.1 154.85 336.1 Q155.25 336.2 155.5 336.4 L155.75 336.85 155.75 336.9 155.6 336.9 152.95 336.25 152.9 336.6 157.1 337.7 M159.3 337.45 L159.35 337.45 159.55 337.45 160.0 337.45 Q160.45 337.55 160.65 337.8 L160.95 338.15 160.95 338.25 160.75 338.3 158.15 337.6 158.1 337.9 162.5 339.05 162.55 338.8 162.55 338.7 162.4 338.7 162.1 338.6 161.95 338.5 161.4 337.95 160.85 337.5 160.2 337.3 159.65 337.25 159.3 337.35 159.25 337.4 159.3 337.45 M159.4 338.5 L159.25 338.55 Q159.05 338.55 159.1 338.65 L159.25 338.9 159.5 339.05 159.75 339.05 159.95 339.0 160.1 339.15 160.4 339.25 160.55 339.25 160.7 339.1 160.45 338.95 160.15 338.8 159.95 338.8 159.8 338.8 159.6 338.65 159.4 338.5 M144.6 334.95 L144.75 335.1 145.1 335.25 145.3 335.2 145.35 335.15 145.25 334.95 144.95 334.75 144.7 334.8 144.6 334.95 M144.75 335.35 L144.55 335.4 144.45 335.6 144.65 335.75 144.95 335.9 145.15 335.85 145.25 335.8 145.05 335.6 Q144.9 335.4 144.75 335.35 M150.55 336.25 L150.3 336.3 150.15 336.3 149.95 336.15 149.7 336.05 149.55 336.05 149.45 336.15 149.6 336.35 149.9 336.6 Q149.9 336.5 150.1 336.5 L150.3 336.5 150.45 336.65 150.7 336.75 150.95 336.75 151.05 336.65 150.8 336.4 150.55 336.25 M151.05 335.25 L151.3 335.65 151.25 335.7 151.1 335.75 148.5 335.1 148.4 335.4 152.8 336.6 152.8 336.5 152.9 336.25 152.85 336.25 152.75 336.2 152.45 336.15 152.25 335.95 151.75 335.5 151.2 335.0 150.6 334.75 150.05 334.7 149.6 334.8 149.6 334.95 149.65 334.95 149.7 334.95 149.95 334.95 150.3 334.95 Q150.8 335.05 151.05 335.25 M143.3 333.7 L143.25 334.05 147.45 335.15 147.7 335.1 147.8 335.05 147.7 334.85 147.55 334.85 147.25 334.75 147.1 334.65 146.55 334.1 146.0 333.65 145.35 333.4 144.8 333.35 144.45 333.45 144.4 333.55 144.45 333.55 144.5 333.55 144.7 333.6 145.15 333.55 Q145.6 333.65 145.8 333.9 L146.1 334.3 146.1 334.4 145.9 334.4 143.3 333.7 M141.95 325.65 L141.85 325.75 142.0 325.95 142.35 326.15 142.5 326.05 142.6 326.0 142.45 325.8 142.2 325.6 141.95 325.65 M142.45 325.45 L142.7 325.4 142.8 325.35 142.6 325.15 142.35 324.9 142.15 324.95 142.0 325.15 142.2 325.3 142.45 325.45 M149.75 327.65 L149.65 327.85 149.85 328.0 150.15 328.15 150.4 328.1 150.5 328.05 150.25 327.85 150.0 327.6 149.75 327.65 M150.5 327.15 L150.15 327.0 149.95 327.05 149.85 327.15 150.0 327.35 150.3 327.5 150.55 327.45 150.6 327.4 150.5 327.15 M148.0 325.25 L147.8 324.85 Q147.75 324.85 147.65 324.95 147.5 325.05 147.45 325.1 L147.65 325.3 147.7 325.65 147.55 325.7 147.2 325.65 145.85 325.3 145.8 325.65 147.45 326.0 147.95 326.15 148.05 326.0 148.05 325.95 148.0 325.25 M147.65 323.95 L147.45 324.0 147.25 323.95 147.1 323.8 146.8 323.7 146.7 323.7 146.45 323.8 146.75 324.05 147.0 324.2 147.25 324.2 147.4 324.2 147.65 324.3 147.8 324.4 148.0 324.4 148.1 324.3 147.95 324.1 147.65 323.95 M147.25 323.2 L147.0 323.05 146.8 323.1 146.7 323.2 146.9 323.45 147.2 323.6 147.4 323.55 147.55 323.55 147.8 323.7 148.0 323.8 148.2 323.75 148.3 323.7 148.1 323.5 147.85 323.25 147.65 323.3 147.4 323.3 147.25 323.2 M160.65 329.9 L160.45 329.75 160.2 329.65 160.05 329.65 159.95 329.75 160.1 330.0 160.4 330.2 160.55 330.15 160.75 330.15 160.95 330.25 161.2 330.35 161.4 330.35 161.55 330.25 161.3 330.05 161.0 329.85 160.85 329.85 160.65 329.9 M161.7 328.6 L161.1 328.4 160.55 328.35 160.1 328.45 160.05 328.5 160.1 328.55 160.2 328.55 160.4 328.55 160.85 328.55 161.55 328.9 161.8 329.25 161.75 329.3 161.6 329.35 158.95 328.7 158.9 329.05 163.3 330.2 163.35 329.85 163.25 329.8 162.95 329.7 162.75 329.6 162.25 329.1 161.7 328.6 M156.1 325.7 L155.95 325.5 155.65 325.3 155.45 325.35 155.2 325.35 155.05 325.25 154.8 325.1 154.6 325.15 154.5 325.25 154.7 325.45 155.0 325.6 155.2 325.6 155.4 325.6 155.6 325.7 155.8 325.85 155.95 325.8 156.1 325.7 M155.95 326.35 L155.75 326.15 155.45 325.95 155.25 325.95 155.05 325.95 154.9 325.85 154.6 325.75 154.45 325.75 154.3 325.85 154.55 326.05 154.85 326.25 155.05 326.25 155.15 326.25 155.45 326.35 155.6 326.45 155.75 326.45 155.95 326.35 M153.7 327.35 L153.6 327.6 155.25 328.05 155.75 328.15 155.9 328.05 155.9 328.0 155.75 327.3 155.6 326.9 Q155.55 326.9 155.45 327.0 L155.25 327.1 155.4 327.35 155.5 327.6 155.35 327.7 155.0 327.65 153.7 327.35 M152.9 327.1 L152.85 327.1 152.8 327.1 152.45 327.0 152.25 326.9 151.75 326.35 151.2 325.9 Q150.95 325.7 150.6 325.65 L150.05 325.6 149.65 325.7 149.6 325.8 149.65 325.8 149.7 325.8 149.95 325.85 150.4 325.8 Q150.8 325.9 151.05 326.15 L151.3 326.55 151.3 326.6 151.15 326.6 148.5 325.95 148.45 326.3 152.65 327.4 152.85 327.35 153.0 327.3 152.9 327.1 M158.4 327.9 L158.35 327.85 158.25 327.85 157.95 328.0 157.8 328.25 157.6 328.35 157.25 328.2 156.3 328.0 156.25 328.35 157.3 328.6 157.9 328.65 158.3 328.8 158.8 329.0 158.85 328.65 158.4 328.55 158.25 328.4 158.3 328.2 158.4 328.1 158.4 328.0 158.4 327.9 M157.6 327.15 L157.75 327.15 158.0 327.3 158.2 327.45 158.35 327.45 158.5 327.3 158.3 327.05 Q158.15 326.9 158.0 326.9 L157.8 326.9 157.65 326.95 157.45 326.85 157.2 326.7 157.05 326.7 156.85 326.8 157.15 327.05 157.35 327.15 157.6 327.15 M158.2 326.25 L157.95 326.3 157.8 326.3 157.65 326.2 157.35 326.0 157.2 326.05 157.05 326.2 157.3 326.4 157.55 326.55 157.75 326.55 157.95 326.5 158.15 326.7 158.35 326.8 158.55 326.8 158.65 326.7 158.45 326.45 158.2 326.25 M194.85 345.65 L194.7 345.7 194.55 345.6 194.25 345.45 194.1 345.5 193.95 345.6 194.2 345.8 194.45 345.95 194.65 346.0 194.8 345.95 Q194.95 345.95 195.1 346.1 L195.25 346.2 195.4 346.2 195.6 346.1 195.35 345.85 195.1 345.65 194.85 345.65 M194.25 344.85 L194.1 344.95 194.4 345.15 194.6 345.3 194.8 345.3 195.05 345.3 195.2 345.45 195.4 345.55 195.65 345.55 195.7 345.45 195.55 345.2 195.25 345.05 195.05 345.05 194.85 345.05 194.7 344.95 194.45 344.85 194.25 344.85 M189.7 345.45 L189.7 345.55 189.85 345.5 190.1 345.5 190.3 345.55 190.55 345.6 190.55 345.7 190.15 345.95 189.8 346.15 189.55 346.5 189.45 346.75 189.35 347.15 189.7 347.65 190.15 348.05 190.8 348.3 191.85 348.4 192.45 348.3 192.5 348.3 192.6 348.3 192.55 348.25 192.4 348.25 191.5 348.15 191.0 348.0 190.15 347.65 Q189.7 347.2 189.8 346.75 189.9 346.35 190.35 346.15 L191.0 345.95 191.55 345.95 192.0 346.0 192.25 346.05 192.45 346.15 192.6 346.0 192.65 345.75 192.6 345.7 192.55 345.7 192.25 345.7 191.65 345.65 191.2 345.45 190.7 345.2 190.25 345.2 189.75 345.4 189.7 345.45 M185.45 344.65 L185.25 344.3 185.35 344.1 185.45 343.95 185.5 343.9 185.4 343.9 185.1 344.05 184.9 344.35 Q184.85 344.6 185.25 344.9 L186.05 345.25 186.8 345.45 188.45 345.7 Q188.9 345.75 189.0 345.4 L189.0 344.9 188.75 344.6 Q188.7 344.6 188.6 344.7 L188.5 344.9 188.65 345.05 188.75 345.25 Q188.65 345.45 188.4 345.45 L187.05 345.15 186.3 344.95 185.45 344.65 M186.9 344.05 L187.1 344.05 187.3 344.0 187.5 344.1 187.7 344.3 187.85 344.3 188.0 344.1 187.85 343.95 187.55 343.75 187.35 343.8 187.1 343.8 186.95 343.65 186.75 343.5 186.5 343.55 186.4 343.65 186.6 343.9 186.9 344.05 M187.1 343.05 L186.9 342.9 186.7 342.9 186.5 343.05 186.8 343.25 187.05 343.4 187.3 343.4 187.45 343.35 187.65 343.5 187.85 343.65 188.05 343.6 188.15 343.5 188.0 343.3 187.7 343.1 187.45 343.2 187.3 343.1 187.1 343.05 M181.95 345.1 L182.15 345.25 182.45 345.5 182.65 345.45 182.75 345.3 182.55 345.1 182.3 344.95 182.05 344.95 181.95 345.1 M182.2 344.35 L182.1 344.45 182.35 344.6 182.6 344.85 182.75 344.75 182.95 344.65 182.75 344.45 182.45 344.3 182.2 344.35 M182.1 343.05 L181.5 343.1 181.2 343.3 181.2 343.35 181.2 343.4 181.3 343.35 181.5 343.35 181.65 343.35 181.8 343.4 181.8 343.5 181.5 343.75 181.3 343.9 181.05 344.15 180.9 344.45 Q180.8 344.9 181.1 345.3 181.5 345.75 182.3 346.0 L183.15 346.1 183.45 346.1 183.65 346.05 183.85 346.0 183.85 345.95 183.8 345.95 183.75 345.95 183.7 345.95 183.15 345.85 182.65 345.75 181.55 345.3 Q181.1 344.95 181.3 344.5 181.35 344.05 181.9 343.85 L182.7 343.65 182.9 344.05 Q182.95 344.4 183.4 344.55 L184.35 344.75 184.4 344.5 183.5 344.2 183.25 344.1 183.2 343.95 183.3 343.8 183.5 343.85 183.6 343.85 183.65 343.9 183.85 343.8 184.0 343.55 183.95 343.55 183.8 343.55 183.65 343.55 183.5 343.5 183.25 343.45 182.85 343.35 182.35 343.2 182.1 343.05 M176.85 344.0 L177.0 344.2 177.25 344.4 177.5 344.35 177.6 344.2 177.45 344.0 177.1 343.85 176.9 343.85 Q176.8 343.95 176.85 344.0 M173.35 342.0 L173.25 342.15 173.4 342.3 173.7 342.5 173.9 342.45 174.05 342.35 173.9 342.15 173.6 341.95 173.35 342.0 M173.15 342.65 L173.1 342.75 173.25 342.95 173.6 343.1 173.75 343.05 173.9 343.0 173.7 342.8 173.4 342.65 173.15 342.65 M177.1 343.25 L177.0 343.35 177.15 343.55 177.45 343.75 177.65 343.65 177.75 343.6 177.6 343.4 177.25 343.2 177.1 343.25 M175.6 342.2 L175.55 342.45 179.8 343.55 180.0 343.55 180.15 343.45 Q180.15 343.35 180.0 343.35 L180.0 343.3 179.9 343.3 179.65 343.2 179.4 343.05 178.9 342.5 Q178.6 342.25 178.3 342.1 L177.7 341.85 177.2 341.8 176.8 341.9 176.7 341.95 176.8 342.0 176.85 342.0 177.05 342.0 177.5 342.0 178.2 342.35 178.5 342.75 178.45 342.8 178.25 342.85 175.6 342.2 M174.75 341.55 L174.8 341.6 174.95 341.45 175.05 341.25 175.0 341.25 174.9 341.25 174.8 341.25 174.65 341.2 174.35 341.15 173.95 341.05 173.4 340.85 173.25 340.75 172.65 340.8 Q172.4 340.85 172.3 341.0 L172.25 341.05 172.3 341.05 172.45 341.05 172.6 341.05 172.8 341.05 172.95 341.1 172.95 341.2 172.65 341.4 172.4 341.6 172.15 341.85 172.05 342.15 Q171.95 342.55 172.25 343.0 172.6 343.45 173.35 343.65 L174.25 343.8 174.5 343.8 174.8 343.75 175.0 343.65 175.0 343.6 174.95 343.6 174.8 343.6 174.25 343.55 173.75 343.45 172.7 342.95 Q172.25 342.65 172.4 342.2 172.5 341.7 173.05 341.45 L173.85 341.35 174.05 341.75 Q174.05 342.1 174.5 342.2 L175.45 342.45 175.55 342.15 174.6 341.9 174.35 341.75 174.3 341.65 174.4 341.45 174.6 341.55 174.75 341.55 M179.8 335.8 L179.9 335.75 179.75 335.55 179.45 335.3 179.25 335.3 179.15 335.5 179.3 335.7 179.65 335.85 179.8 335.8 M179.75 335.2 L179.95 335.15 180.1 335.1 179.9 334.85 179.65 334.65 179.4 334.7 179.3 334.8 179.45 335.05 179.75 335.2 M169.7 341.3 L170.0 341.45 170.2 341.4 170.3 341.35 170.1 341.15 Q169.95 341.0 169.85 341.0 L169.55 341.0 169.5 341.1 169.7 341.3 M169.95 341.75 L169.65 341.6 169.45 341.6 169.35 341.7 169.5 341.9 169.8 342.1 170.0 342.1 170.1 341.95 169.95 341.75 M162.65 338.8 L162.6 339.1 163.65 339.35 164.25 339.45 164.55 339.6 165.05 339.75 165.15 339.45 164.7 339.35 164.55 339.15 164.6 339.0 164.7 338.85 164.7 338.8 164.75 338.65 164.7 338.6 164.55 338.6 Q164.3 338.65 164.25 338.8 L164.05 339.05 163.9 339.1 163.5 339.0 162.65 338.8 M164.35 337.7 L164.15 337.7 163.95 337.75 163.8 337.55 163.5 337.45 163.3 337.45 163.2 337.55 163.4 337.85 163.7 337.95 163.85 337.95 164.05 337.95 164.3 338.05 164.45 338.25 164.7 338.15 164.8 338.05 164.6 337.85 164.35 337.7 M163.65 336.8 L163.45 336.85 163.35 336.95 163.6 337.2 163.85 337.3 164.0 337.3 164.25 337.3 164.45 337.45 164.6 337.55 164.85 337.55 164.95 337.45 164.8 337.2 164.45 337.0 164.3 337.05 164.15 337.05 163.95 336.95 163.65 336.8 M168.25 339.8 L168.25 339.95 168.4 339.9 168.65 339.9 168.85 339.95 169.1 340.0 169.1 340.1 168.7 340.3 168.35 340.55 168.1 340.85 168.0 341.15 167.9 341.55 168.25 342.0 168.7 342.45 169.35 342.7 170.4 342.8 171.0 342.7 171.05 342.7 171.15 342.7 171.1 342.65 170.95 342.65 170.05 342.5 169.55 342.4 Q169.0 342.25 168.7 342.0 168.25 341.6 168.35 341.15 168.45 340.75 168.9 340.55 L169.55 340.3 170.1 340.3 170.55 340.35 170.85 340.45 171.0 340.55 171.15 340.35 171.3 340.15 171.15 340.15 171.1 340.1 170.8 340.1 170.5 340.1 170.2 340.05 169.75 339.8 169.25 339.6 168.8 339.6 168.35 339.75 168.25 339.8 M167.3 339.25 L167.2 339.25 166.9 339.45 166.7 339.7 166.55 339.75 166.15 339.65 165.3 339.45 165.15 339.75 166.25 340.05 166.9 340.1 167.2 340.25 167.7 340.45 167.75 340.1 167.3 340.0 167.2 339.8 167.2 339.65 167.3 339.55 167.3 339.45 167.3 339.35 167.3 339.25 M167.1 338.1 L167.25 338.25 167.5 338.25 167.6 338.1 167.35 337.9 167.1 337.75 166.9 337.75 166.7 337.75 166.6 337.6 166.25 337.45 166.1 337.5 166.0 337.6 166.2 337.85 166.5 338.0 166.65 338.0 166.9 337.95 167.1 338.1 M167.45 338.7 L167.2 338.5 166.95 338.35 166.7 338.35 166.55 338.4 166.4 338.3 166.1 338.1 165.95 338.1 165.8 338.25 166.05 338.5 166.25 338.6 166.5 338.6 166.7 338.6 166.95 338.7 167.1 338.9 167.25 338.9 167.45 338.7 M170.65 331.0 L170.55 331.0 170.25 331.25 170.05 331.45 169.9 331.5 169.5 331.45 168.65 331.25 168.6 331.5 169.65 331.8 170.25 331.9 170.55 332.0 171.1 332.2 171.15 331.85 170.65 331.75 170.55 331.65 170.6 331.4 170.65 331.3 170.65 331.2 170.75 331.1 170.65 331.0 M170.1 330.1 L169.95 330.15 169.8 330.05 169.5 329.85 169.3 329.9 169.2 330.05 169.4 330.25 169.7 330.35 169.85 330.4 170.05 330.35 170.3 330.55 170.45 330.65 170.65 330.65 170.8 330.55 170.6 330.3 170.35 330.1 170.1 330.1 M169.95 329.35 L169.65 329.25 169.5 329.25 169.35 329.35 169.55 329.6 169.85 329.75 170.0 329.75 170.25 329.75 170.45 329.85 170.6 330.0 170.85 330.0 170.95 329.85 170.8 329.65 170.45 329.5 170.3 329.5 170.1 329.5 169.95 329.35 M164.95 331.5 L164.75 331.55 164.6 331.7 164.8 331.9 165.1 332.05 165.3 332.0 165.45 331.95 165.25 331.75 164.95 331.5 M164.6 329.6 L164.55 329.7 164.6 329.7 164.7 329.7 164.9 329.7 165.3 329.7 Q165.8 329.8 166.0 330.05 L166.25 330.4 166.2 330.45 166.05 330.55 163.45 329.85 163.35 330.2 167.6 331.3 167.8 331.25 168.0 331.15 167.85 331.0 167.8 331.0 167.75 330.95 167.45 330.9 167.2 330.75 166.7 330.25 166.15 329.75 165.55 329.55 165.0 329.5 164.6 329.6 M165.1 330.85 L164.9 330.9 164.8 331.1 164.95 331.25 165.3 331.4 165.45 331.35 165.55 331.3 165.4 331.1 165.1 330.85 M179.1 333.4 L179.1 333.45 179.15 333.5 179.2 333.5 179.4 333.5 179.8 333.5 Q180.3 333.6 180.5 333.85 L180.8 334.2 180.75 334.25 180.55 334.3 178.0 333.65 177.9 334.0 182.1 335.05 182.35 335.05 182.5 334.95 182.4 334.8 182.35 334.8 182.2 334.75 181.95 334.7 181.75 334.55 181.25 334.05 180.7 333.55 180.1 333.35 179.55 333.3 179.1 333.4 M175.85 333.4 L175.6 333.4 175.5 333.55 175.7 333.7 176.0 333.9 176.15 333.9 176.3 333.75 176.1 333.55 Q175.95 333.4 175.85 333.4 M175.6 334.0 L175.45 334.05 175.35 334.15 175.5 334.4 175.8 334.55 176.0 334.55 176.1 334.45 175.95 334.15 175.6 334.0 M173.35 331.85 L173.2 331.45 173.05 331.55 172.85 331.7 173.0 331.95 173.1 332.25 172.95 332.35 172.6 332.25 171.3 331.9 171.2 332.25 172.85 332.6 173.35 332.8 173.5 332.6 173.5 332.55 173.35 331.85 M174.25 332.35 L174.45 332.35 174.65 332.35 174.85 332.35 175.05 332.45 175.05 332.55 174.7 332.75 Q174.45 332.85 174.35 332.95 L174.1 333.3 173.95 333.6 173.9 333.95 174.25 334.5 174.7 334.95 175.35 335.15 176.45 335.25 177.0 335.15 177.05 335.15 177.15 335.1 177.1 335.1 176.95 335.05 176.1 335.0 175.55 334.8 174.7 334.45 Q174.25 334.05 174.4 333.6 174.45 333.2 174.9 332.95 L175.55 332.8 176.1 332.75 176.55 332.85 176.85 332.9 177.0 332.95 177.15 332.85 177.25 332.6 177.15 332.55 177.1 332.55 176.8 332.55 176.5 332.5 176.15 332.45 Q175.9 332.3 175.75 332.3 L175.25 332.05 174.8 332.0 Q174.6 332.0 174.35 332.2 L174.25 332.3 174.25 332.35 M172.15 330.65 L172.45 330.8 172.65 330.8 172.75 330.8 173.05 330.95 173.2 331.1 173.35 331.1 173.55 330.95 173.35 330.7 173.05 330.55 172.85 330.6 172.65 330.6 172.5 330.4 172.2 330.3 172.05 330.35 171.9 330.45 172.15 330.65 M173.25 329.9 L173.05 329.9 172.8 329.9 172.65 329.8 172.4 329.7 172.2 329.7 172.1 329.8 172.3 330.05 172.6 330.2 172.8 330.2 173.0 330.2 173.2 330.3 173.4 330.4 173.55 330.4 173.7 330.3 173.55 330.1 173.25 329.9 M191.55 346.75 L191.25 346.55 191.0 346.6 190.95 346.7 191.15 346.9 191.4 347.1 191.65 347.05 191.75 346.9 191.55 346.75 M191.25 347.7 L191.45 347.7 191.55 347.6 191.4 347.35 191.1 347.2 190.9 347.2 190.8 347.3 190.95 347.5 191.25 347.7 M195.5 346.65 L195.5 346.6 195.35 346.6 Q195.05 346.7 195.05 346.8 L194.85 347.05 194.7 347.1 194.3 347.05 193.4 346.8 193.35 347.1 194.4 347.35 195.0 347.45 195.35 347.6 195.85 347.75 195.9 347.4 195.5 347.3 195.3 347.2 195.35 346.95 195.5 346.85 195.5 346.75 195.5 346.65" fill="url(#gradient0)" fill-rule="evenodd" stroke="none"/>
    <path d="M140.7 323.95 L143.3 324.6 143.45 324.55 143.5 324.55 143.25 324.1 Q143.0 323.85 142.5 323.75 L142.15 323.75 141.9 323.75 141.85 323.75 141.8 323.75 141.8 323.65 142.25 323.55 142.8 323.6 143.4 323.8 143.95 324.3 144.45 324.8 144.65 324.95 144.95 325.05 145.05 325.1 145.1 325.1 145.2 325.2 145.05 325.3 144.8 325.35 140.6 324.25 140.7 323.95 M140.0 323.65 L140.2 323.8 140.5 323.85 140.6 323.95 140.55 324.2 140.55 324.25 136.15 323.1 136.2 322.75 138.85 323.45 139.0 323.4 139.05 323.3 138.75 322.95 Q138.5 322.7 138.05 322.6 L137.6 322.6 137.4 322.6 137.35 322.6 137.3 322.55 137.35 322.5 137.8 322.4 138.3 322.45 138.9 322.65 139.5 323.15 140.0 323.65 M137.2 323.8 L137.3 323.7 137.45 323.7 137.65 323.8 137.85 324.0 138.05 323.95 138.2 323.95 138.55 324.1 138.75 324.3 138.6 324.4 138.45 324.4 138.15 324.3 138.0 324.2 137.8 324.2 137.6 324.25 137.35 324.05 137.2 323.8 M135.55 330.9 L136.1 330.95 136.7 331.2 137.25 331.7 137.75 332.2 137.95 332.35 138.3 332.4 138.35 332.45 138.4 332.45 138.3 332.8 133.9 331.65 134.0 331.3 136.55 331.95 136.75 331.95 136.8 331.9 136.5 331.45 Q136.3 331.25 135.8 331.15 L135.4 331.15 135.2 331.15 135.15 331.15 135.1 331.15 135.15 331.0 135.55 330.9 M135.8 332.5 L136.0 332.45 136.3 332.6 136.5 332.85 136.4 332.95 136.2 332.95 135.9 332.85 135.8 332.75 135.6 332.75 135.35 332.8 135.1 332.55 134.9 332.35 135.1 332.25 135.2 332.25 135.4 332.35 135.65 332.5 135.8 332.5 M140.6 330.9 L140.8 330.85 141.1 331.0 141.25 331.15 141.4 331.15 141.65 331.1 141.9 331.25 142.15 331.5 141.95 331.65 141.8 331.65 141.65 331.5 141.35 331.35 141.2 331.4 140.95 331.4 140.7 331.2 140.5 331.0 140.6 330.9 M139.0 332.0 L139.3 331.85 139.45 331.85 139.45 331.9 139.25 332.05 139.15 332.25 139.45 332.6 140.25 332.9 140.95 333.1 142.3 333.4 142.7 333.2 142.55 333.05 142.4 332.85 142.5 332.65 142.75 332.6 142.9 332.85 142.9 333.4 Q142.8 333.7 142.35 333.7 L140.7 333.4 140.05 333.2 139.15 332.85 Q138.75 332.55 138.85 332.3 L139.0 332.0 M141.45 331.75 L141.75 331.9 141.9 332.1 141.8 332.25 141.65 332.3 141.4 332.1 141.25 332.0 141.05 332.0 140.8 332.0 140.55 331.85 140.3 331.65 140.4 331.55 140.65 331.5 140.9 331.7 141.1 331.75 141.25 331.75 141.45 331.75 M158.2 326.25 L158.45 326.45 158.65 326.7 158.55 326.8 158.35 326.8 158.15 326.7 157.95 326.5 157.75 326.55 157.55 326.55 157.3 326.4 157.05 326.2 157.2 326.05 157.35 326.0 157.65 326.2 157.8 326.3 157.95 326.3 158.2 326.25 M157.6 327.15 L157.35 327.15 157.15 327.05 156.85 326.8 157.05 326.7 157.2 326.7 157.45 326.85 157.65 326.95 157.8 326.9 158.0 326.9 Q158.15 326.9 158.3 327.05 L158.5 327.3 158.35 327.45 158.2 327.45 158.0 327.3 157.75 327.15 157.6 327.15 M158.4 327.9 L158.4 328.0 158.4 328.1 158.3 328.2 158.25 328.4 158.4 328.55 158.85 328.65 158.8 329.0 158.3 328.8 157.9 328.65 157.3 328.6 156.25 328.35 156.3 328.0 157.25 328.2 157.6 328.35 157.8 328.25 157.95 328.0 158.25 327.85 158.35 327.85 158.4 327.9 M152.9 327.1 L153.0 327.3 152.85 327.35 152.65 327.4 148.45 326.3 148.5 325.95 151.15 326.6 151.3 326.6 151.3 326.55 151.05 326.15 Q150.8 325.9 150.4 325.8 L149.95 325.85 149.7 325.8 149.65 325.8 149.6 325.8 149.65 325.7 150.05 325.6 150.6 325.65 Q150.95 325.7 151.2 325.9 L151.75 326.35 152.25 326.9 152.45 327.0 152.8 327.1 152.85 327.1 152.9 327.1 M153.7 327.35 L155.0 327.65 155.35 327.7 155.5 327.6 155.4 327.35 155.25 327.1 155.45 327.0 Q155.55 326.9 155.6 326.9 L155.75 327.3 155.9 328.0 155.9 328.05 155.75 328.15 155.25 328.05 153.6 327.6 153.7 327.35 M155.95 326.35 L155.75 326.45 155.6 326.45 155.45 326.35 155.15 326.25 155.05 326.25 154.85 326.25 154.55 326.05 154.3 325.85 154.45 325.75 154.6 325.75 154.9 325.85 155.05 325.95 155.25 325.95 155.45 325.95 155.75 326.15 155.95 326.35 M156.1 325.7 L155.95 325.8 155.8 325.85 155.6 325.7 155.4 325.6 155.2 325.6 155.0 325.6 154.7 325.45 154.5 325.25 154.6 325.15 154.8 325.1 155.05 325.25 155.2 325.35 155.45 325.35 155.65 325.3 155.95 325.5 156.1 325.7 M161.7 328.6 L162.25 329.1 162.75 329.6 162.95 329.7 163.25 329.8 163.35 329.85 163.3 330.2 158.9 329.05 158.95 328.7 161.6 329.35 161.75 329.3 161.8 329.25 161.55 328.9 160.85 328.55 160.4 328.55 160.2 328.55 160.1 328.55 160.05 328.5 160.1 328.45 160.55 328.35 161.1 328.4 161.7 328.6 M160.65 329.9 L160.85 329.85 161.0 329.85 161.3 330.05 161.55 330.25 161.4 330.35 161.2 330.35 160.95 330.25 160.75 330.15 160.55 330.15 160.4 330.2 160.1 330.0 159.95 329.75 160.05 329.65 160.2 329.65 160.45 329.75 160.65 329.9 M147.25 323.2 L147.4 323.3 147.65 323.3 147.85 323.25 148.1 323.5 148.3 323.7 148.2 323.75 148.0 323.8 147.8 323.7 147.55 323.55 147.4 323.55 147.2 323.6 146.9 323.45 146.7 323.2 146.8 323.1 147.0 323.05 147.25 323.2 M147.65 323.95 L147.95 324.1 148.1 324.3 148.0 324.4 147.8 324.4 147.65 324.3 147.4 324.2 147.25 324.2 147.0 324.2 146.75 324.05 146.45 323.8 146.7 323.7 146.8 323.7 147.1 323.8 147.25 323.95 147.45 324.0 147.65 323.95 M148.0 325.25 L148.05 325.95 148.05 326.0 147.95 326.15 147.45 326.0 145.8 325.65 145.85 325.3 147.2 325.65 147.55 325.7 147.7 325.65 147.65 325.3 147.45 325.1 Q147.5 325.05 147.65 324.95 147.75 324.85 147.8 324.85 L148.0 325.25 M150.5 327.15 L150.6 327.4 150.55 327.45 150.3 327.5 150.0 327.35 149.85 327.15 149.95 327.05 150.15 327.0 150.5 327.15 M149.75 327.65 L150.0 327.6 150.25 327.85 150.5 328.05 150.4 328.1 150.15 328.15 149.85 328.0 149.65 327.85 149.75 327.65 M142.45 325.45 L142.2 325.3 142.0 325.15 142.15 324.95 142.35 324.9 142.6 325.15 142.8 325.35 142.7 325.4 142.45 325.45 M141.95 325.65 L142.2 325.6 142.45 325.8 142.6 326.0 142.5 326.05 142.35 326.15 142.0 325.95 141.85 325.75 141.95 325.65 M143.3 333.7 L145.9 334.4 146.1 334.4 146.1 334.3 145.8 333.9 Q145.6 333.65 145.15 333.55 L144.7 333.6 144.5 333.55 144.45 333.55 144.4 333.55 144.45 333.45 144.8 333.35 145.35 333.4 146.0 333.65 146.55 334.1 147.1 334.65 147.25 334.75 147.55 334.85 147.7 334.85 147.8 335.05 147.7 335.1 147.45 335.15 143.25 334.05 143.3 333.7 M151.05 335.25 Q150.8 335.05 150.3 334.95 L149.95 334.95 149.7 334.95 149.65 334.95 149.6 334.95 149.6 334.8 150.05 334.7 150.6 334.75 151.2 335.0 151.75 335.5 152.25 335.95 152.45 336.15 152.75 336.2 152.85 336.25 152.9 336.25 152.8 336.5 152.8 336.6 148.4 335.4 148.5 335.1 151.1 335.75 151.25 335.7 151.3 335.65 151.05 335.25 M150.55 336.25 L150.8 336.4 151.05 336.65 150.95 336.75 150.7 336.75 150.45 336.65 150.3 336.5 150.1 336.5 Q149.9 336.5 149.9 336.6 L149.6 336.35 149.45 336.15 149.55 336.05 149.7 336.05 149.95 336.15 150.15 336.3 150.3 336.3 150.55 336.25 M144.75 335.35 Q144.9 335.4 145.05 335.6 L145.25 335.8 145.15 335.85 144.95 335.9 144.65 335.75 144.45 335.6 144.55 335.4 144.75 335.35 M144.6 334.95 L144.7 334.8 144.95 334.75 145.25 334.95 145.35 335.15 145.3 335.2 145.1 335.25 144.75 335.1 144.6 334.95 M159.4 338.5 L159.6 338.65 159.8 338.8 159.95 338.8 160.15 338.8 160.45 338.95 160.7 339.1 160.55 339.25 160.4 339.25 160.1 339.15 159.95 339.0 159.75 339.05 159.5 339.05 159.25 338.9 159.1 338.65 Q159.05 338.55 159.25 338.55 L159.4 338.5 M159.3 337.45 L159.25 337.4 159.3 337.35 159.65 337.25 160.2 337.3 160.85 337.5 161.4 337.95 161.95 338.5 162.1 338.6 162.4 338.7 162.55 338.7 162.55 338.8 162.5 339.05 158.1 337.9 158.15 337.6 160.75 338.3 160.95 338.25 160.95 338.15 160.65 337.8 Q160.45 337.55 160.0 337.45 L159.55 337.45 159.35 337.45 159.3 337.45 M157.1 337.7 L152.9 336.6 152.95 336.25 155.6 336.9 155.75 336.9 155.75 336.85 155.5 336.4 Q155.25 336.2 154.85 336.1 L154.4 336.1 154.15 336.1 154.1 336.1 154.05 336.1 154.1 335.95 154.5 335.85 155.05 335.9 155.65 336.15 156.2 336.65 156.7 337.2 156.9 337.3 157.25 337.4 157.3 337.4 157.35 337.4 157.45 337.5 157.3 337.6 157.1 337.7 M154.1 338.1 L154.25 337.95 154.45 337.9 154.7 338.1 154.95 338.35 154.85 338.4 154.6 338.45 154.3 338.3 154.1 338.1 M154.4 337.35 L154.6 337.25 154.95 337.45 155.05 337.7 155.0 337.75 154.8 337.8 154.45 337.6 154.3 337.45 154.4 337.35 M173.25 329.9 L173.55 330.1 173.7 330.3 173.55 330.4 173.4 330.4 173.2 330.3 173.0 330.2 172.8 330.2 172.6 330.2 172.3 330.05 172.1 329.8 172.2 329.7 172.4 329.7 172.65 329.8 172.8 329.9 173.05 329.9 173.25 329.9 M172.15 330.65 L171.9 330.45 172.05 330.35 172.2 330.3 172.5 330.4 172.65 330.6 172.85 330.6 173.05 330.55 173.35 330.7 173.55 330.95 173.35 331.1 173.2 331.1 173.05 330.95 172.75 330.8 172.65 330.8 172.45 330.8 172.15 330.65 M174.25 332.35 L174.25 332.3 174.35 332.2 Q174.6 332.0 174.8 332.0 L175.25 332.05 175.75 332.3 Q175.9 332.3 176.15 332.45 L176.5 332.5 176.8 332.55 177.1 332.55 177.15 332.55 177.25 332.6 177.15 332.85 177.0 332.95 176.85 332.9 176.55 332.85 176.1 332.75 175.55 332.8 174.9 332.95 Q174.45 333.2 174.4 333.6 174.25 334.05 174.7 334.45 L175.55 334.8 176.1 335.0 176.95 335.05 177.1 335.1 177.15 335.1 177.05 335.15 177.0 335.15 176.45 335.25 175.35 335.15 174.7 334.95 174.25 334.5 173.9 333.95 173.95 333.6 174.1 333.3 174.35 332.95 Q174.45 332.85 174.7 332.75 L175.05 332.55 175.05 332.45 174.85 332.35 174.65 332.35 174.45 332.35 174.25 332.35 M173.35 331.85 L173.5 332.55 173.5 332.6 173.35 332.8 172.85 332.6 171.2 332.25 171.3 331.9 172.6 332.25 172.95 332.35 173.1 332.25 173.0 331.95 172.85 331.7 173.05 331.55 173.2 331.45 173.35 331.85 M175.6 334.0 L175.95 334.15 176.1 334.45 176.0 334.55 175.8 334.55 175.5 334.4 175.35 334.15 175.45 334.05 175.6 334.0 M175.85 333.4 Q175.95 333.4 176.1 333.55 L176.3 333.75 176.15 333.9 176.0 333.9 175.7 333.7 175.5 333.55 175.6 333.4 175.85 333.4 M179.1 333.4 L179.55 333.3 180.1 333.35 180.7 333.55 181.25 334.05 181.75 334.55 181.95 334.7 182.2 334.75 182.35 334.8 182.4 334.8 182.5 334.95 182.35 335.05 182.1 335.05 177.9 334.0 178.0 333.65 180.55 334.3 180.75 334.25 180.8 334.2 180.5 333.85 Q180.3 333.6 179.8 333.5 L179.4 333.5 179.2 333.5 179.15 333.5 179.1 333.45 179.1 333.4 M165.1 330.85 L165.4 331.1 165.55 331.3 165.45 331.35 165.3 331.4 164.95 331.25 164.8 331.1 164.9 330.9 165.1 330.85 M164.6 329.6 L165.0 329.5 165.55 329.55 166.15 329.75 166.7 330.25 167.2 330.75 167.45 330.9 167.75 330.95 167.8 331.0 167.85 331.0 168.0 331.15 167.8 331.25 167.6 331.3 163.35 330.2 163.45 329.85 166.05 330.55 166.2 330.45 166.25 330.4 166.0 330.05 Q165.8 329.8 165.3 329.7 L164.9 329.7 164.7 329.7 164.6 329.7 164.55 329.7 164.6 329.6 M164.95 331.5 L165.25 331.75 165.45 331.95 165.3 332.0 165.1 332.05 164.8 331.9 164.6 331.7 164.75 331.55 164.95 331.5 M169.95 329.35 L170.1 329.5 170.3 329.5 170.45 329.5 170.8 329.65 170.95 329.85 170.85 330.0 170.6 330.0 170.45 329.85 170.25 329.75 170.0 329.75 169.85 329.75 169.55 329.6 169.35 329.35 169.5 329.25 169.65 329.25 169.95 329.35 M170.1 330.1 L170.35 330.1 170.6 330.3 170.8 330.55 170.65 330.65 170.45 330.65 170.3 330.55 170.05 330.35 169.85 330.4 169.7 330.35 169.4 330.25 169.2 330.05 169.3 329.9 169.5 329.85 169.8 330.05 169.95 330.15 170.1 330.1 M170.65 331.0 L170.75 331.1 170.65 331.2 170.65 331.3 170.6 331.4 170.55 331.65 170.65 331.75 171.15 331.85 171.1 332.2 170.55 332.0 170.25 331.9 169.65 331.8 168.6 331.5 168.65 331.25 169.5 331.45 169.9 331.5 170.05 331.45 170.25 331.25 170.55 331.0 170.65 331.0 M167.45 338.7 L167.25 338.9 167.1 338.9 166.95 338.7 166.7 338.6 166.5 338.6 166.25 338.6 166.05 338.5 165.8 338.25 165.95 338.1 166.1 338.1 166.4 338.3 166.55 338.4 166.7 338.35 166.95 338.35 167.2 338.5 167.45 338.7 M167.1 338.1 L166.9 337.95 166.65 338.0 166.5 338.0 166.2 337.85 166.0 337.6 166.1 337.5 166.25 337.45 166.6 337.6 166.7 337.75 166.9 337.75 167.1 337.75 167.35 337.9 167.6 338.1 167.5 338.25 167.25 338.25 167.1 338.1 M167.3 339.25 L167.3 339.35 167.3 339.45 167.3 339.55 167.2 339.65 167.2 339.8 167.3 340.0 167.75 340.1 167.7 340.45 167.2 340.25 166.9 340.1 166.25 340.05 165.15 339.75 165.3 339.45 166.15 339.65 166.55 339.75 166.7 339.7 166.9 339.45 167.2 339.25 167.3 339.25 M168.25 339.8 L168.35 339.75 168.8 339.6 169.25 339.6 169.75 339.8 170.2 340.05 170.5 340.1 170.8 340.1 171.1 340.1 171.15 340.15 171.3 340.15 171.15 340.35 171.0 340.55 170.85 340.45 170.55 340.35 170.1 340.3 169.55 340.3 168.9 340.55 Q168.45 340.75 168.35 341.15 168.25 341.6 168.7 342.0 169.0 342.25 169.55 342.4 L170.05 342.5 170.95 342.65 171.1 342.65 171.15 342.7 171.05 342.7 171.0 342.7 170.4 342.8 169.35 342.7 168.7 342.45 168.25 342.0 167.9 341.55 168.0 341.15 168.1 340.85 168.35 340.55 168.7 340.3 169.1 340.1 169.1 340.0 168.85 339.95 168.65 339.9 168.4 339.9 168.25 339.95 168.25 339.8 M163.65 336.8 L163.95 336.95 164.15 337.05 164.3 337.05 164.45 337.0 164.8 337.2 164.95 337.45 164.85 337.55 164.6 337.55 164.45 337.45 164.25 337.3 164.0 337.3 163.85 337.3 163.6 337.2 163.35 336.95 163.45 336.85 163.65 336.8 M164.35 337.7 L164.6 337.85 164.8 338.05 164.7 338.15 164.45 338.25 164.3 338.05 164.05 337.95 163.85 337.95 163.7 337.95 163.4 337.85 163.2 337.55 163.3 337.45 163.5 337.45 163.8 337.55 163.95 337.75 164.15 337.7 164.35 337.7 M162.65 338.8 L163.5 339.0 163.9 339.1 164.05 339.05 164.25 338.8 Q164.3 338.65 164.55 338.6 L164.7 338.6 164.75 338.65 164.7 338.8 164.7 338.85 164.6 339.0 164.55 339.15 164.7 339.35 165.15 339.45 165.05 339.75 164.55 339.6 164.25 339.45 163.65 339.35 162.6 339.1 162.65 338.8 M169.95 341.75 L170.1 341.95 170.0 342.1 169.8 342.1 169.5 341.9 169.35 341.7 169.45 341.6 169.65 341.6 169.95 341.75 M169.7 341.3 L169.5 341.1 169.55 341.0 169.85 341.0 Q169.95 341.0 170.1 341.15 L170.3 341.35 170.2 341.4 170.0 341.45 169.7 341.3 M179.75 335.2 L179.45 335.05 179.3 334.8 179.4 334.7 179.65 334.65 179.9 334.85 180.1 335.1 179.95 335.15 179.75 335.2 M179.8 335.8 L179.65 335.85 179.3 335.7 179.15 335.5 179.25 335.3 179.45 335.3 179.75 335.55 179.9 335.75 179.8 335.8 M174.75 341.55 L174.6 341.55 174.4 341.45 174.3 341.65 174.35 341.75 174.6 341.9 175.55 342.15 175.45 342.45 174.5 342.2 Q174.05 342.1 174.05 341.75 L173.85 341.35 173.05 341.45 Q172.5 341.7 172.4 342.2 172.25 342.65 172.7 342.95 L173.75 343.45 174.25 343.55 174.8 343.6 174.95 343.6 175.0 343.6 175.0 343.65 174.8 343.75 174.5 343.8 174.25 343.8 173.35 343.65 Q172.6 343.45 172.25 343.0 171.95 342.55 172.05 342.15 L172.15 341.85 172.4 341.6 172.65 341.4 172.95 341.2 172.95 341.1 172.8 341.05 172.6 341.05 172.45 341.05 172.3 341.05 172.25 341.05 172.3 341.0 Q172.4 340.85 172.65 340.8 L173.25 340.75 173.4 340.85 173.95 341.05 174.35 341.15 174.65 341.2 174.8 341.25 174.9 341.25 175.0 341.25 175.05 341.25 174.95 341.45 174.8 341.6 174.75 341.55 M175.6 342.2 L178.25 342.85 178.45 342.8 178.5 342.75 178.2 342.35 177.5 342.0 177.05 342.0 176.85 342.0 176.8 342.0 176.7 341.95 176.8 341.9 177.2 341.8 177.7 341.85 178.3 342.1 Q178.6 342.25 178.9 342.5 L179.4 343.05 179.65 343.2 179.9 343.3 180.0 343.3 180.0 343.35 Q180.15 343.35 180.15 343.45 L180.0 343.55 179.8 343.55 175.55 342.45 175.6 342.2 M177.1 343.25 L177.25 343.2 177.6 343.4 177.75 343.6 177.65 343.65 177.45 343.75 177.15 343.55 177.0 343.35 177.1 343.25 M173.15 342.65 L173.4 342.65 173.7 342.8 173.9 343.0 173.75 343.05 173.6 343.1 173.25 342.95 173.1 342.75 173.15 342.65 M173.35 342.0 L173.6 341.95 173.9 342.15 174.05 342.35 173.9 342.45 173.7 342.5 173.4 342.3 173.25 342.15 173.35 342.0 M176.85 344.0 Q176.8 343.95 176.9 343.85 L177.1 343.85 177.45 344.0 177.6 344.2 177.5 344.35 177.25 344.4 177.0 344.2 176.85 344.0 M182.1 343.05 L182.35 343.2 182.85 343.35 183.25 343.45 183.5 343.5 183.65 343.55 183.8 343.55 183.95 343.55 184.0 343.55 183.85 343.8 183.65 343.9 183.6 343.85 183.5 343.85 183.3 343.8 183.2 343.95 183.25 344.1 183.5 344.2 184.4 344.5 184.35 344.75 183.4 344.55 Q182.95 344.4 182.9 344.05 L182.7 343.65 181.9 343.85 Q181.35 344.05 181.3 344.5 181.1 344.95 181.55 345.3 L182.65 345.75 183.15 345.85 183.7 345.95 183.75 345.95 183.8 345.95 183.85 345.95 183.85 346.0 183.65 346.05 183.45 346.1 183.15 346.1 182.3 346.0 Q181.5 345.75 181.1 345.3 180.8 344.9 180.9 344.45 L181.05 344.15 181.3 343.9 181.5 343.75 181.8 343.5 181.8 343.4 181.65 343.35 181.5 343.35 181.3 343.35 181.2 343.4 181.2 343.35 181.2 343.3 181.5 343.1 182.1 343.05 M182.2 344.35 L182.45 344.3 182.75 344.45 182.95 344.65 182.75 344.75 182.6 344.85 182.35 344.6 182.1 344.45 182.2 344.35 M181.95 345.1 L182.05 344.95 182.3 344.95 182.55 345.1 182.75 345.3 182.65 345.45 182.45 345.5 182.15 345.25 181.95 345.1 M187.1 343.05 L187.3 343.1 187.45 343.2 187.7 343.1 188.0 343.3 188.15 343.5 188.05 343.6 187.85 343.65 187.65 343.5 187.45 343.35 187.3 343.4 187.05 343.4 186.8 343.25 186.5 343.05 186.7 342.9 186.9 342.9 187.1 343.05 M186.9 344.05 L186.6 343.9 186.4 343.65 186.5 343.55 186.75 343.5 186.95 343.65 187.1 343.8 187.35 343.8 187.55 343.75 187.85 343.95 188.0 344.1 187.85 344.3 187.7 344.3 187.5 344.1 187.3 344.0 187.1 344.05 186.9 344.05 M185.45 344.65 L186.3 344.95 187.05 345.15 188.4 345.45 Q188.65 345.45 188.75 345.25 L188.65 345.05 188.5 344.9 188.6 344.7 Q188.7 344.6 188.75 344.6 L189.0 344.9 189.0 345.4 Q188.9 345.75 188.45 345.7 L186.8 345.45 186.05 345.25 185.25 344.9 Q184.85 344.6 184.9 344.35 L185.1 344.05 185.4 343.9 185.5 343.9 185.45 343.95 185.35 344.1 185.25 344.3 185.45 344.65 M189.7 345.45 L189.75 345.4 190.25 345.2 190.7 345.2 191.2 345.45 191.65 345.65 192.25 345.7 192.55 345.7 192.6 345.7 192.65 345.75 192.6 346.0 192.45 346.15 192.25 346.05 192.0 346.0 191.55 345.95 191.0 345.95 190.35 346.15 Q189.9 346.35 189.8 346.75 189.7 347.2 190.15 347.65 L191.0 348.0 191.5 348.15 192.4 348.25 192.55 348.25 192.6 348.3 192.5 348.3 192.45 348.3 191.85 348.4 190.8 348.3 190.15 348.05 189.7 347.65 189.35 347.15 189.45 346.75 189.55 346.5 189.8 346.15 190.15 345.95 190.55 345.7 190.55 345.6 190.3 345.55 190.1 345.5 189.85 345.5 189.7 345.55 189.7 345.45 M194.25 344.85 L194.45 344.85 194.7 344.95 194.85 345.05 195.05 345.05 195.25 345.05 195.55 345.2 195.7 345.45 195.65 345.55 195.4 345.55 195.2 345.45 195.05 345.3 194.8 345.3 194.6 345.3 194.4 345.15 194.1 344.95 194.25 344.85 M194.85 345.65 L195.1 345.65 195.35 345.85 195.6 346.1 195.4 346.2 195.25 346.2 195.1 346.1 Q194.95 345.95 194.8 345.95 L194.65 346.0 194.45 345.95 194.2 345.8 193.95 345.6 194.1 345.5 194.25 345.45 194.55 345.6 194.7 345.7 194.85 345.65 M195.5 346.65 L195.5 346.75 195.5 346.85 195.35 346.95 195.3 347.2 195.5 347.3 195.9 347.4 195.85 347.75 195.35 347.6 195.0 347.45 194.4 347.35 193.35 347.1 193.4 346.8 194.3 347.05 194.7 347.1 194.85 347.05 195.05 346.8 Q195.05 346.7 195.35 346.6 L195.5 346.6 195.5 346.65 M191.25 347.7 L190.95 347.5 190.8 347.3 190.9 347.2 191.1 347.2 191.4 347.35 191.55 347.6 191.45 347.7 191.25 347.7 M191.55 346.75 L191.75 346.9 191.65 347.05 191.4 347.1 191.15 346.9 190.95 346.7 191.0 346.6 191.25 346.55 191.55 346.75" fill="#000000" fill-rule="evenodd" stroke="none"/>
    <path d="M203.5 337.85 L203.45 337.55 203.6 337.7 203.5 337.85" fill="#996600" fill-rule="evenodd" stroke="none"/>
    <path d="M187.65 362.9 L187.55 362.85 187.65 362.75 187.65 362.9" fill="#ffff99" fill-rule="evenodd" stroke="none"/>
    <path d="M140.35 336.1 L167.7 343.3 Q181.1 355.6 190.2 369.5 L192.2 366.9 Q191.35 363.35 194.6 363.35 197.9 358.25 200.65 352.45 202.5 355.4 204.7 351.2 L205.75 351.65 Q209.25 345.65 208.3 339.65 L207.45 339.35 Q207.75 333.45 204.0 336.7 L137.55 318.25 Q138.65 316.25 135.8 315.9 134.3 316.6 133.15 317.8 L131.5 317.45 Q126.35 324.2 127.4 331.35 L129.25 332.05 Q129.8 333.85 130.8 335.6 L131.45 335.85 Q131.25 338.15 130.45 340.25 L140.35 336.1" fill="none" stroke="#000000" stroke-linecap="round" stroke-linejoin="round" stroke-width="2.0"/>
    <path d="M137.55 318.25 L136.25 317.95 Q128.05 324.6 131.8 333.85 L140.35 336.1 M167.7 343.3 L170.85 344.1 200.3 351.9 Q199.1 343.8 204.0 336.7 M133.15 317.8 Q129.85 321.05 128.7 327.5 128.6 329.8 129.25 332.05 M131.45 335.85 L131.8 333.85 M204.7 351.2 L203.55 350.8 Q203.05 344.35 206.6 339.0 L207.45 339.35 M200.3 351.9 L200.65 352.45 M170.85 344.1 Q181.35 349.7 188.9 356.4 M208.3 339.65 Q205.25 345.75 205.75 351.65" fill="none" stroke="#000000" stroke-linecap="round" stroke-linejoin="round" stroke-width="1.0"/>
  </g>
  <defs>
    <linearGradient gradientTransform="matrix(0.0051, -0.0192, 0.0426, 0.0113, 149.6, 327.8)" gradientUnits="userSpaceOnUse" id="gradient0" spreadMethod="pad" x1="-819.2" x2="819.2">
      <stop offset="0.0" stop-color="#000000" stop-opacity="0.0"/>
      <stop offset="1.0" stop-color="#000000" stop-opacity="0.2509804"/>
    </linearGradient>
  </defs>
</svg>
