<?xml version="1.0" encoding="UTF-8" standalone="no"?>
<svg xmlns:xlink="http://www.w3.org/1999/xlink" height="181.2px" width="153.6px" xmlns="http://www.w3.org/2000/svg">
  <g transform="matrix(1.0, 0.0, 0.0, 1.0, -50.85, -195.75)">
    <path d="M81.3 295.6 L78.15 289.5 73.8 279.95 62.7 249.4 64.15 248.9 Q69.4 246.85 74.5 244.25 92.35 235.0 107.95 218.1 L113.65 211.6 113.7 211.55 122.25 212.95 Q145.05 215.8 164.7 211.4 L164.8 211.4 Q170.3 210.15 175.6 208.3 L177.05 207.8 188.15 238.3 190.95 248.45 192.5 255.1 192.3 255.25 Q178.05 261.9 165.05 267.35 L149.45 273.6 145.0 275.3 144.65 275.45 141.75 276.5 140.35 277.0 140.3 277.05 140.05 277.1 139.75 277.25 139.25 277.4 138.95 277.55 138.2 277.8 138.95 277.55 139.25 277.4 139.75 277.25 140.05 277.1 140.3 277.05 140.35 277.0 141.75 276.5 144.65 275.45 145.0 275.3 149.45 273.6 165.05 267.35 Q178.05 261.9 192.3 255.25 L192.65 256.15 193.75 261.85 Q196.2 276.15 196.05 289.6 L195.6 298.15 195.55 298.85 194.65 306.55 Q190.7 334.0 175.0 357.8 L169.7 365.4 169.65 365.4 160.7 363.05 Q133.35 354.85 112.65 336.35 L107.05 331.1 106.55 330.55 100.75 324.25 Q91.95 314.1 84.65 301.6 L81.8 296.5 81.55 295.55 81.3 295.6 M137.0 278.2 L136.75 278.35 136.4 278.45 135.9 278.65 135.65 278.7 Q135.45 278.75 135.3 278.9 L134.7 279.1 131.15 280.35 130.7 280.55 126.2 282.15 110.15 287.3 Q96.7 291.5 81.55 295.55 96.7 291.5 110.15 287.3 L126.2 282.15 130.7 280.55 131.15 280.35 134.7 279.1 135.3 278.9 Q135.45 278.75 135.65 278.7 L135.9 278.65 136.4 278.45 136.75 278.35 137.0 278.2 137.05 278.2 137.8 277.95 137.0 278.2 M113.65 211.6 L137.8 277.95 113.65 211.6 M138.2 277.8 L137.8 277.95 137.85 277.95 138.2 277.8 M169.65 365.4 L137.8 277.95 169.65 365.4" fill="url(#gradient0)" fill-rule="evenodd" stroke="none"/>
    <path d="M104.1 207.65 Q84.95 228.7 62.6 239.55 57.3 242.1 51.85 244.05 L64.5 278.75 Q67.35 285.35 70.4 291.55 L73.6 297.65 76.95 303.6 Q85.75 318.6 96.5 330.7 L102.3 336.9 108.4 342.75 Q132.5 364.3 164.55 373.65 L173.55 375.95 178.85 368.4 Q197.45 340.7 202.0 308.7 L202.95 300.3 203.4 291.8 Q203.85 275.65 201.0 258.5 L199.7 251.7 198.25 245.05 Q196.65 238.3 194.55 231.45 L181.9 196.75 Q176.45 198.7 170.8 200.1 146.7 206.15 118.5 202.45 L109.85 201.05 104.1 207.65" fill="none" stroke="#000000" stroke-linecap="round" stroke-linejoin="round" stroke-width="2.0"/>
    <path d="M81.3 295.6 L78.15 289.5 73.8 279.95 62.7 249.4 64.15 248.9 Q69.4 246.85 74.5 244.25 92.35 235.0 107.95 218.1 L113.65 211.6 113.7 211.55 122.25 212.95 Q145.05 215.8 164.7 211.4 L164.8 211.4 Q170.3 210.15 175.6 208.3 L177.05 207.8 188.15 238.3 190.95 248.45 192.5 255.1 192.65 256.15 193.75 261.85 Q196.2 276.15 196.05 289.6 L195.6 298.15 195.55 298.85 194.65 306.55 Q190.7 334.0 175.0 357.8 L169.7 365.4 169.65 365.4 160.7 363.05 Q133.35 354.85 112.65 336.35 L107.05 331.1 106.55 330.55 100.75 324.25 Q91.95 314.1 84.65 301.6 L81.8 296.5 81.3 295.6 81.55 295.55 Q96.7 291.5 110.15 287.3 L126.2 282.15 130.7 280.55 131.15 280.35 134.7 279.1 135.3 278.9 Q135.45 278.75 135.65 278.7 L135.9 278.65 136.4 278.45 136.75 278.35 137.0 278.2 137.05 278.2 M137.8 277.95 L113.65 211.6 M138.2 277.8 L138.95 277.55 139.25 277.4 139.75 277.25 140.05 277.1 140.3 277.05 140.35 277.0 141.75 276.5 144.65 275.45 145.0 275.3 149.45 273.6 165.05 267.35 Q178.05 261.9 192.3 255.25 L192.5 255.1 M137.8 277.95 L169.65 365.4" fill="none" stroke="#000000" stroke-linecap="round" stroke-linejoin="round" stroke-opacity="0.5019608" stroke-width="0.5"/>
    <path d="M137.05 278.2 L137.8 277.95 137.85 277.95 138.2 277.8" fill="none" stroke="#000000" stroke-linecap="round" stroke-linejoin="round" stroke-opacity="0.5019608" stroke-width="0.5"/>
  </g>
  <defs>
    <radialGradient cx="0" cy="0" gradientTransform="matrix(0.162, 0.0, 0.0, 0.162, 99.7, 252.85)" gradientUnits="userSpaceOnUse" id="gradient0" r="819.2" spreadMethod="pad">
      <stop offset="0.0" stop-color="#000000" stop-opacity="0.0"/>
      <stop offset="1.0" stop-color="#000000" stop-opacity="0.2509804"/>
    </radialGradient>
  </defs>
</svg>
