<?xml version="1.0" encoding="UTF-8" standalone="no"?>
<svg xmlns:xlink="http://www.w3.org/1999/xlink" height="39.1px" width="39.1px" xmlns="http://www.w3.org/2000/svg">
  <g transform="matrix(1.0, 0.0, 0.0, 1.0, -222.25, -161.8)">
    <path d="M227.95 167.5 Q233.7 161.8 241.8 161.8 249.9 161.8 255.6 167.5 257.05 168.95 258.15 170.5 261.25 175.1 261.35 181.0 L261.35 181.35 Q261.35 189.45 255.6 195.15 249.9 200.9 241.8 200.9 233.7 200.9 227.95 195.15 222.25 189.45 222.25 181.35 L222.25 181.0 Q222.35 175.05 225.55 170.45 226.55 168.85 227.95 167.5 M242.65 177.15 Q244.45 177.15 245.7 178.4 L246.55 179.55 Q246.95 180.4 246.95 181.45 246.95 183.2 245.7 184.45 244.45 185.75 242.65 185.8 240.85 185.75 239.65 184.45 238.4 183.2 238.4 181.45 238.4 180.4 238.8 179.55 239.1 178.9 239.65 178.4 240.85 177.15 242.65 177.15 M232.95 181.4 Q232.95 185.2 235.65 187.95 L237.65 189.5 234.75 194.65 249.65 194.65 246.95 189.4 248.75 187.95 Q251.55 185.2 251.55 181.4 L251.4 179.85 Q250.95 176.95 248.75 174.8 L247.8 173.95 251.15 168.5 233.75 168.5 236.9 173.75 235.65 174.8 Q233.45 176.95 233.05 179.8 L232.95 181.4" fill="#000000" fill-rule="evenodd" stroke="none"/>
  </g>
</svg>
