<?xml version="1.0" encoding="UTF-8" standalone="no"?>
<svg xmlns:xlink="http://www.w3.org/1999/xlink" height="40.15px" width="36.9px" xmlns="http://www.w3.org/2000/svg">
  <g transform="matrix(1.0, 0.0, 0.0, 1.0, -222.75, -155.1)">
    <path d="M224.0 170.0 L231.1 169.1 240.7 168.6 231.8 175.45 238.4 176.4 237.0 178.1 230.7 178.35 Q229.4 176.4 229.4 174.0 229.4 171.25 231.1 169.1 229.4 171.25 229.4 174.0 229.4 176.4 230.7 178.35 L224.35 178.8 Q223.25 176.6 223.25 174.0 223.25 171.85 224.0 170.0 M258.0 178.95 L253.1 178.5 244.55 178.15 250.55 173.35 242.6 172.7 246.1 168.75 252.9 169.25 258.4 170.0 Q259.15 171.85 259.15 174.0 259.15 176.65 258.0 178.95 M237.0 178.1 L238.4 176.4 231.8 175.45 240.7 168.6 246.1 168.75 242.6 172.7 250.55 173.35 244.55 178.15 237.0 178.1 M252.9 169.25 Q254.6 171.35 254.6 174.0 254.6 176.55 253.1 178.5 254.6 176.55 254.6 174.0 254.6 171.35 252.9 169.25" fill="#ffffff" fill-opacity="0.2509804" fill-rule="evenodd" stroke="none"/>
    <path d="M231.1 169.1 Q231.9 168.15 233.05 167.3 236.7 164.55 242.0 164.55 L245.6 164.9 249.6 161.85 Q245.8 160.35 241.2 160.35 233.75 160.35 228.5 164.3 225.2 166.8 224.0 170.0 223.25 171.85 223.25 174.0 223.25 176.6 224.35 178.8 225.6 181.45 228.5 183.6 229.75 184.55 231.2 185.35 L234.3 181.5 237.0 178.1 238.4 176.4 231.8 175.45 240.7 168.6 245.6 164.9 M253.1 178.5 L250.85 180.65 Q247.2 183.5 242.0 183.5 L238.25 183.15 233.95 186.55 Q237.25 187.65 241.2 187.65 248.65 187.65 253.85 183.6 256.7 181.5 258.0 178.95 259.15 176.65 259.15 174.0 259.15 171.85 258.4 170.0 257.15 166.8 253.85 164.3 252.7 163.4 251.45 162.75 L257.8 155.6 249.6 161.85 M244.55 178.15 L238.25 183.15 M230.7 178.35 Q231.6 179.6 233.05 180.65 L234.3 181.5 M230.7 178.35 Q229.4 176.4 229.4 174.0 229.4 171.25 231.1 169.1 M246.1 168.75 L248.6 165.95 251.45 162.75 M231.2 185.35 L223.5 194.75 233.95 186.55 M252.9 169.25 Q252.05 168.2 250.85 167.3 249.8 166.5 248.6 165.95 M253.1 178.5 Q254.6 176.55 254.6 174.0 254.6 171.35 252.9 169.25 M244.55 178.15 L250.55 173.35 242.6 172.7 246.1 168.75" fill="none" stroke="#000000" stroke-linecap="round" stroke-linejoin="round" stroke-width="1.0"/>
  </g>
</svg>
