<?xml version="1.0" encoding="UTF-8" standalone="no"?>
<svg xmlns:xlink="http://www.w3.org/1999/xlink" height="35.0px" width="25.85px" xmlns="http://www.w3.org/2000/svg">
  <g transform="matrix(1.0, 0.0, 0.0, 1.0, -227.4, -152.8)">
    <path d="M228.95 170.35 L227.4 162.6 232.05 162.6 231.95 162.0 Q231.65 160.45 231.7 158.55 231.8 156.7 232.8 155.5 233.85 154.3 235.9 153.55 238.05 152.8 242.25 152.8 L252.5 153.45 252.3 159.95 248.15 159.65 Q246.7 159.65 246.2 159.95 245.7 160.3 245.6 161.15 L245.75 162.6 251.7 162.6 253.25 170.35 247.3 170.35 250.85 187.8 237.15 187.8 233.6 170.35 228.95 170.35" fill="#000000" fill-rule="evenodd" stroke="none"/>
  </g>
</svg>
