<?xml version="1.0" encoding="UTF-8" standalone="no"?>
<svg xmlns:xlink="http://www.w3.org/1999/xlink" height="27.3px" width="37.45px" xmlns="http://www.w3.org/2000/svg">
  <g transform="matrix(1.0, 0.0, 0.0, 1.0, -223.7, -161.55)">
    <path d="M237.5 170.25 L242.8 171.05 Q249.2 171.6 252.6 172.55 255.9 173.5 258.0 175.35 260.1 177.3 260.5 179.45 261.0 181.65 259.6 183.75 258.2 185.95 254.7 187.15 251.1 188.35 244.7 188.35 235.6 188.35 231.2 186.35 226.95 184.35 224.9 180.15 L238.1 179.25 Q239.3 181.05 240.75 181.75 242.0 182.35 244.1 182.35 246.4 182.35 247.5 181.55 248.2 181.15 248.1 180.45 247.9 179.75 246.75 179.35 L240.9 178.3 231.95 176.85 Q229.2 176.1 226.95 174.3 224.8 172.5 224.3 170.1 223.8 167.5 225.4 165.7 227.0 163.85 230.25 162.95 233.45 162.05 239.0 162.05 L247.95 162.75 Q250.95 163.45 253.25 164.95 255.45 166.35 257.4 169.45 L244.65 170.35 Q243.95 169.0 243.1 168.6 241.5 167.85 239.6 167.85 237.7 167.85 237.1 168.35 236.4 168.75 236.5 169.35 236.6 169.95 237.5 170.25 Z" fill="none" stroke="#000000" stroke-linecap="round" stroke-linejoin="round" stroke-width="1.0"/>
  </g>
</svg>
