<?xml version="1.0" encoding="UTF-8" standalone="no"?>
<svg xmlns:xlink="http://www.w3.org/1999/xlink" height="36.0px" width="43.35px" xmlns="http://www.w3.org/2000/svg">
  <g transform="matrix(1.0, 0.0, 0.0, 1.0, -220.45, -152.3)">
    <path d="M239.1 160.15 Q237.0 160.15 235.85 161.1 234.7 162.1 234.75 165.15 L220.95 164.4 Q220.8 159.85 222.4 157.55 223.95 155.25 227.45 154.0 230.9 152.8 237.35 152.8 244.0 152.8 247.95 153.95 252.05 155.15 254.75 157.55 257.45 160.0 258.05 163.0 258.7 166.2 256.7 169.05 254.85 171.95 249.1 175.35 L244.65 178.05 Q243.6 178.85 242.15 179.25 L261.6 179.25 263.3 187.8 224.75 187.8 Q224.45 183.0 227.0 179.25 229.6 175.55 237.6 170.55 242.4 167.55 243.5 166.15 244.65 164.65 244.4 163.35 244.2 162.05 242.6 161.1 241.05 160.15 239.1 160.15 Z" fill="none" stroke="#000000" stroke-linecap="round" stroke-linejoin="round" stroke-width="1.0"/>
  </g>
</svg>
