<?xml version="1.0" encoding="UTF-8" standalone="no"?>
<svg xmlns:xlink="http://www.w3.org/1999/xlink" height="45.85px" width="40.9px" xmlns="http://www.w3.org/2000/svg">
  <g transform="matrix(1.0, 0.0, 0.0, 1.0, -221.65, -152.3)">
    <path d="M236.6 160.35 Q236.0 160.85 236.15 161.55 236.25 162.15 235.9 162.45 238.65 163.6 244.4 165.05 253.0 167.35 256.95 169.8 260.45 171.7 261.15 175.35 261.6 177.45 260.7 179.2 259.85 180.95 257.55 182.45 259.3 183.45 260.4 184.9 261.5 186.35 261.9 188.15 262.4 190.6 261.1 192.85 259.8 195.0 256.4 196.3 253.05 197.65 247.0 197.65 L239.9 197.15 Q236.85 196.65 234.7 195.75 232.55 194.85 231.0 193.75 L228.6 191.5 Q227.75 190.45 226.8 188.1 L239.1 187.2 Q240.65 189.0 242.0 189.7 243.45 190.35 245.25 190.35 247.1 190.35 247.85 189.75 248.6 189.25 248.45 188.35 248.25 187.6 246.75 186.4 245.2 185.65 237.1 183.35 229.1 181.15 225.95 178.8 222.8 176.45 222.3 173.8 221.85 171.7 222.95 169.95 224.0 168.15 226.85 166.75 225.2 165.75 224.2 164.45 223.2 163.15 222.9 161.5 222.45 159.4 223.4 157.65 224.4 155.95 226.25 154.9 228.1 153.9 230.2 153.4 L237.4 152.8 246.45 153.65 Q249.7 154.45 252.0 156.25 254.25 157.9 256.0 161.25 L243.5 162.35 Q242.5 160.85 241.55 160.35 L239.1 159.95 236.6 160.35 M233.3 172.45 L234.1 173.5 238.2 174.9 250.25 178.8 Q250.95 177.6 250.8 176.75 250.65 176.2 250.85 175.9 248.7 174.95 242.5 173.15 236.4 171.35 234.05 170.35 233.2 171.6 233.3 172.45 Z" fill="none" stroke="#000000" stroke-linecap="round" stroke-linejoin="round" stroke-width="1.0"/>
  </g>
</svg>
