<?xml version="1.0" encoding="UTF-8" standalone="no"?>
<svg xmlns:xlink="http://www.w3.org/1999/xlink" height="15.9px" width="175.0px" xmlns="http://www.w3.org/2000/svg">
  <g transform="matrix(1.0, 0.0, 0.0, 1.0, -312.3, -346.3)">
    <path d="M313.9 348.7 Q313.0 349.5 312.8 351.1 L316.5 360.5 Q316.6 362.0 318.15 361.6 324.3 361.9 330.9 358.05 332.1 356.95 332.3 355.55 L332.3 350.35 330.8 348.25 Q320.65 345.1 313.95 348.7 M485.7 348.7 Q486.6 349.5 486.8 351.1 L483.1 360.5 Q483.0 362.0 481.45 361.6 M468.7 358.05 Q467.5 356.95 467.3 355.55 L467.3 350.35 468.8 348.25 468.85 348.25" fill="none" stroke="#000000" stroke-linecap="round" stroke-linejoin="round" stroke-width="1.0"/>
    <path d="M313.95 348.7 L313.9 348.7 313.95 348.7 M485.7 348.7 L485.65 348.7 485.7 348.7 M481.45 361.6 Q475.3 361.9 468.7 358.05 M468.85 348.25 Q479.0 345.1 485.65 348.7" fill="none" stroke="#000000" stroke-linecap="round" stroke-linejoin="round" stroke-opacity="0.5019608" stroke-width="1.0"/>
  </g>
</svg>
