<?xml version="1.0" encoding="UTF-8" standalone="no"?>
<svg xmlns:xlink="http://www.w3.org/1999/xlink" height="58.3px" width="204.0px" xmlns="http://www.w3.org/2000/svg">
  <g transform="matrix(1.0, 0.0, 0.0, 1.0, -297.8, -314.6)">
    <path d="M337.45 333.1 L339.25 332.5 344.05 316.65 Q320.35 312.45 298.3 319.6 L305.95 340.75 307.95 342.15 M337.45 333.1 L335.4 348.0 334.3 348.6 337.65 356.4 Q329.1 362.9 323.55 372.4 L316.7 368.75 313.5 357.65 312.35 357.1 307.95 342.15 M455.55 316.65 Q479.25 312.45 501.3 319.6 L493.65 340.75 491.65 342.15 487.25 357.1 Q486.7 357.4 486.1 357.65 L482.9 368.75 476.05 372.4 Q470.5 362.9 461.95 356.4 L465.3 348.6 464.2 348.0 462.15 333.1 460.35 332.5 455.55 316.65" fill="none" stroke="#000000" stroke-linecap="round" stroke-linejoin="round" stroke-width="1.0"/>
    <path d="M307.95 342.15 L315.2 347.15 Q323.35 338.0 337.45 333.1 M465.3 348.6 Q474.0 353.4 480.8 360.15 L486.1 357.65 M491.65 342.15 L484.4 347.15 Q476.25 338.0 462.15 333.1 M313.5 357.65 L318.8 360.15 Q325.6 353.4 334.3 348.6" fill="none" stroke="#000000" stroke-linecap="round" stroke-linejoin="round" stroke-opacity="0.5019608" stroke-width="1.0"/>
  </g>
</svg>
