<?xml version="1.0" encoding="UTF-8" standalone="no"?>
<svg xmlns:xlink="http://www.w3.org/1999/xlink" height="36.7px" width="208.8px" xmlns="http://www.w3.org/2000/svg">
  <g transform="matrix(1.0, 0.0, 0.0, 1.0, -295.4, -284.8)">
    <path d="M485.95 286.6 L486.05 286.6 486.1 286.65 486.45 286.75 489.8 289.6 490.0 289.75 495.3 285.3 493.75 294.0 Q495.65 295.5 496.15 298.45 L503.7 299.1 497.3 303.55 Q497.45 305.0 497.05 306.6 497.6 308.15 497.25 309.8 L501.45 318.75 495.65 316.05 Q495.4 317.05 495.1 319.15 L495.0 319.3 495.0 319.35 494.75 319.65 Q493.5 321.15 492.25 321.0 489.45 315.5 489.0 312.1 475.15 308.8 462.9 313.15 462.1 311.55 462.55 310.0 461.7 306.75 462.65 303.65 462.05 301.7 463.4 299.85 469.65 294.7 482.35 292.25 481.75 290.3 482.8 288.3 483.9 286.2 485.95 286.6 M337.05 310.0 Q337.9 306.75 336.95 303.65 337.55 301.7 336.2 299.85 329.95 294.7 317.25 292.25 M310.6 312.1 Q324.45 308.8 336.7 313.15 337.5 311.55 337.05 310.0 M310.6 312.1 Q310.15 315.5 307.35 321.0 306.1 321.15 304.85 319.65 L304.6 319.35 304.6 319.3 304.5 319.15 303.95 316.05 298.15 318.75 302.35 309.8 Q302.0 308.15 302.55 306.6 302.15 305.0 302.3 303.55 L295.9 299.1 303.45 298.45 Q303.95 295.5 305.85 294.0 L304.3 285.3 309.6 289.75 309.8 289.6 313.15 286.75 313.5 286.65 313.55 286.6 313.65 286.6 Q315.7 286.2 316.8 288.3 317.85 290.3 317.25 292.25" fill="none" stroke="#000000" stroke-linecap="round" stroke-linejoin="round" stroke-width="1.0"/>
    <path d="M336.95 303.65 Q330.85 298.4 320.75 298.45 M337.05 310.0 Q328.9 305.65 318.35 306.8 M317.25 292.25 Q315.5 298.0 312.8 303.0 311.2 307.6 310.6 312.1 M462.55 310.0 Q470.7 305.65 481.25 306.8 M462.65 303.65 Q468.75 298.4 478.85 298.45 M490.0 289.75 L487.15 292.1 487.05 292.4 Q486.8 293.4 487.6 294.35 L488.15 294.9 Q488.85 295.45 489.75 295.7 L492.35 295.65 493.55 294.65 493.7 294.25 493.75 294.0 M493.65 288.25 L492.55 293.75 Q490.35 295.0 488.5 292.85 M497.25 309.8 L496.95 309.15 496.7 308.95 Q495.85 308.45 494.7 308.95 L494.25 309.2 Q493.45 309.75 492.85 310.75 492.1 312.0 492.25 313.25 492.35 314.15 492.85 314.7 L493.2 314.9 495.65 316.05 M496.15 298.45 L493.15 298.2 492.85 298.3 Q492.0 298.8 491.85 300.05 491.75 301.3 492.45 302.55 L492.65 302.85 Q493.35 303.85 494.35 304.35 L495.9 304.5 496.25 304.3 497.3 303.55 M500.5 300.05 L495.8 303.15 495.1 302.85 Q493.4 302.0 493.55 299.6 M499.05 316.45 L494.0 313.9 Q493.65 312.55 494.25 311.6 494.75 310.8 495.95 310.25 M489.0 312.1 Q488.4 307.6 486.8 303.0 484.1 298.0 482.35 292.25 M309.6 289.75 L312.45 292.1 312.55 292.4 Q312.8 293.4 312.0 294.35 L311.45 294.9 Q310.75 295.45 309.85 295.7 L307.25 295.65 Q306.4 295.3 306.05 294.65 L305.9 294.25 305.85 294.0 M305.95 288.25 L307.05 293.75 Q309.25 295.0 311.1 292.85 M302.35 309.8 L302.65 309.15 302.9 308.95 Q303.75 308.45 304.9 308.95 L305.35 309.2 Q306.15 309.75 306.75 310.75 307.5 312.0 307.35 313.25 307.25 314.15 306.75 314.7 L306.4 314.9 303.95 316.05 M303.45 298.45 L306.45 298.2 306.75 298.3 Q307.6 298.8 307.75 300.05 307.85 301.3 307.15 302.55 L306.95 302.85 Q306.25 303.85 305.25 304.35 L303.7 304.5 303.35 304.3 302.3 303.55 M299.1 300.05 L303.8 303.15 304.5 302.85 Q306.2 302.0 306.05 299.6 M300.55 316.45 L305.6 313.9 Q305.95 312.55 305.35 311.6 304.85 310.8 303.65 310.25" fill="none" stroke="#000000" stroke-linecap="round" stroke-linejoin="round" stroke-opacity="0.5019608" stroke-width="1.0"/>
  </g>
</svg>
