<?xml version="1.0" encoding="UTF-8" standalone="no"?>
<svg xmlns:xlink="http://www.w3.org/1999/xlink" height="46.8px" width="33.9px" xmlns="http://www.w3.org/2000/svg">
  <g transform="matrix(1.0, 0.0, 0.0, 1.0, -304.85, -315.3)">
    <path d="M331.45 341.9 Q334.75 338.8 332.65 335.7 M310.0 334.4 Q307.6 338.35 311.95 341.9 M331.45 341.9 Q330.95 345.1 330.8 348.25 332.75 350.3 330.65 353.15 L330.9 358.05 Q324.3 361.9 318.15 361.6 L316.05 355.35 Q311.15 352.4 313.9 348.7 L311.95 341.9 M310.0 334.4 Q308.9 329.8 308.15 325.7 303.3 320.75 306.8 315.8 321.55 321.4 337.9 320.8 339.25 325.05 335.35 328.15 L332.65 335.7" fill="none" stroke="#000000" stroke-linecap="round" stroke-linejoin="round" stroke-width="1.0"/>
    <path d="M332.65 335.7 Q317.95 335.9 310.0 334.4 M311.95 341.9 Q321.35 342.95 331.45 341.9 M330.8 348.25 Q321.2 349.5 313.9 348.7 M308.15 325.7 Q321.75 328.4 335.35 328.15 M330.65 353.15 Q322.65 356.3 316.05 355.35" fill="none" stroke="#000000" stroke-linecap="round" stroke-linejoin="round" stroke-opacity="0.49803922" stroke-width="1.0"/>
  </g>
</svg>
