<?xml version="1.0" encoding="UTF-8" standalone="no"?>
<svg xmlns:xlink="http://www.w3.org/1999/xlink" height="25.5px" width="35.25px" xmlns="http://www.w3.org/2000/svg">
  <g transform="matrix(1.0, 0.0, 0.0, 1.0, -316.15, -270.15)">
    <path d="M340.35 278.05 Q336.65 277.25 335.75 272.15 341.6 271.6 343.35 274.7 344.5 276.7 345.9 277.8 L350.55 280.65 Q351.8 282.85 348.5 283.25 345.2 280.15 344.15 279.55 342.65 278.55 340.35 278.05 M343.75 290.9 Q336.6 287.95 329.95 284.25 324.15 281.0 318.8 277.25 317.45 277.9 318.1 279.2 320.55 281.55 323.35 283.6 331.65 289.75 342.75 292.8 344.05 292.3 344.05 291.5 L343.75 290.9 M326.65 295.15 Q326.75 290.55 323.6 287.5 L321.95 285.95 318.35 283.2 317.55 283.0 316.85 283.4 316.65 283.85 Q317.0 285.35 318.25 286.2 L323.6 290.35 325.0 291.95 326.65 295.15 M347.75 285.9 L347.45 285.3 Q332.6 279.35 319.65 270.65 318.2 271.35 318.95 272.75 324.45 277.85 331.35 281.5 338.15 285.15 346.3 287.4 347.75 286.8 347.75 285.9" fill="none" stroke="#000000" stroke-linecap="round" stroke-linejoin="round" stroke-width="1.0"/>
  </g>
</svg>
