<?xml version="1.0" encoding="UTF-8" standalone="no"?>
<svg xmlns:xlink="http://www.w3.org/1999/xlink" height="55.65px" width="38.7px" xmlns="http://www.w3.org/2000/svg">
  <g transform="matrix(1.0, 0.0, 0.0, 1.0, -299.7, -306.45)">
    <path d="M325.15 340.15 L324.8 335.7 Q324.35 328.4 324.75 321.3 L323.6 320.1 Q317.8 313.8 316.65 306.95 L302.45 306.95 300.2 320.3 Q303.15 330.15 307.75 341.25 M325.15 340.15 Q325.6 344.4 326.35 348.75 L330.8 348.25 Q330.55 351.75 330.75 355.2 L330.9 358.05 328.6 359.3 Q323.2 361.85 318.15 361.6 311.75 350.85 307.75 341.25 M324.8 335.7 L332.65 335.7 337.9 320.8 323.6 320.1 M328.6 359.3 Q327.2 353.9 326.35 348.75" fill="none" stroke="#000000" stroke-linecap="round" stroke-linejoin="round" stroke-width="1.0"/>
    <path d="M307.75 341.25 L308.7 336.6 318.5 335.6 Q319.95 338.6 325.15 340.15 Z" fill="none" stroke="#000000" stroke-linecap="round" stroke-linejoin="round" stroke-opacity="0.5019608" stroke-width="1.0"/>
  </g>
</svg>
