<?xml version="1.0" encoding="UTF-8" standalone="no"?>
<svg xmlns:xlink="http://www.w3.org/1999/xlink" height="74.1px" width="190.9px" xmlns="http://www.w3.org/2000/svg">
  <g transform="matrix(1.0, 0.0, 0.0, 1.0, -304.35, -287.5)">
    <path d="M485.0 294.8 Q484.1 295.35 483.35 296.6 L482.65 298.15 Q482.05 299.95 482.05 302.25 482.05 305.6 483.35 307.95 484.75 310.3 486.7 310.3 488.1 310.3 489.15 309.1 L489.95 307.95 Q490.8 306.5 491.2 304.6 L491.35 302.25 Q491.35 298.95 489.95 296.6 488.65 294.25 486.7 294.25 485.8 294.25 485.0 294.8 M480.45 287.5 L489.75 287.5 495.25 293.35 494.35 310.3 492.05 314.45 492.8 315.8 Q491.15 336.65 485.05 358.95 L481.45 361.6 Q475.3 361.9 468.7 358.05 L467.0 356.7 467.0 348.65 471.25 346.15 468.5 324.8 461.7 320.8 Q462.2 313.2 465.85 303.75 L470.2 308.5 Q471.15 306.55 472.5 304.7 L471.7 295.65 480.45 287.5 M333.75 303.75 Q337.4 313.2 337.9 320.8 L331.1 324.8 328.35 346.15 332.6 348.65 332.6 356.7 330.9 358.05 Q324.3 361.9 318.15 361.6 L314.55 358.95 Q308.45 336.65 306.8 315.8 L307.55 314.45 305.25 310.3 304.35 293.35 309.85 287.5 319.15 287.5 327.9 295.65 327.1 304.7 Q328.45 306.55 329.4 308.5 L333.75 303.75 M309.65 296.6 Q308.25 298.95 308.25 302.25 L308.4 304.6 Q308.8 306.5 309.65 307.95 L310.45 309.1 Q311.5 310.3 312.9 310.3 314.85 310.3 316.25 307.95 317.55 305.6 317.55 302.25 317.55 299.95 316.95 298.15 L316.25 296.6 Q315.5 295.35 314.6 294.8 313.8 294.25 312.9 294.25 310.95 294.25 309.65 296.6" fill="#000000" fill-rule="evenodd" stroke="none"/>
  </g>
</svg>
