<?xml version="1.0" encoding="UTF-8" standalone="no"?>
<svg xmlns:xlink="http://www.w3.org/1999/xlink" height="37.1px" width="30.75px" xmlns="http://www.w3.org/2000/svg">
  <g transform="matrix(1.0, 0.0, 0.0, 1.0, -306.45, -324.5)">
    <path d="M330.75 349.7 L332.25 351.0 332.25 356.25 330.9 358.05 Q324.3 361.9 318.15 361.6 L316.2 360.75 313.95 354.45 315.25 352.85 315.25 352.8 Q323.95 352.5 330.7 349.75 L330.75 349.7 M337.2 327.45 L334.65 334.5 332.65 335.7 Q317.95 335.9 310.0 334.4 L309.95 334.4 308.25 333.0 306.45 326.1 307.85 324.5 307.95 324.5 Q321.4 326.5 335.95 326.3 L337.2 327.45" fill="#000000" fill-rule="evenodd" stroke="none"/>
  </g>
</svg>
