<?xml version="1.0" encoding="UTF-8" standalone="no"?>
<svg xmlns:xlink="http://www.w3.org/1999/xlink" height="58.75px" width="191.6px" xmlns="http://www.w3.org/2000/svg">
  <g transform="matrix(1.0, 0.0, 0.0, 1.0, -304.0, -311.45)">
    <path d="M334.85 332.6 L328.45 332.6 Q325.5 340.3 328.45 348.0 L335.2 352.9 335.2 358.9 326.55 370.2 316.4 363.05 314.45 358.35 316.15 358.4 Q319.4 358.25 322.65 356.7 325.0 355.55 327.35 353.65 318.8 338.35 323.2 321.7 319.65 319.45 315.9 318.3 311.15 316.8 306.1 317.1 L304.4 317.25 304.0 311.55 316.2 312.05 Q328.05 313.7 339.35 320.2 L334.85 332.6 M476.4 321.7 Q480.8 338.35 472.25 353.65 474.6 355.55 476.95 356.7 480.2 358.25 483.45 358.4 L485.15 358.35 483.2 363.05 Q478.15 366.65 473.05 370.2 L464.4 358.9 464.4 352.9 471.15 348.0 Q474.1 340.3 471.15 332.6 L464.75 332.6 460.25 320.2 Q471.55 313.7 483.4 312.05 L495.6 311.55 495.2 317.25 493.5 317.1 Q488.45 316.8 483.7 318.3 479.95 319.45 476.4 321.7 M482.9 323.95 Q482.5 324.35 481.9 324.35 481.3 324.35 480.9 323.95 480.5 323.55 480.5 322.95 480.5 322.35 480.9 321.95 481.3 321.55 481.9 321.55 482.5 321.55 482.9 321.95 483.3 322.35 483.3 322.95 483.3 323.55 482.9 323.95 M480.6 330.4 L480.7 327.0 483.45 327.15 483.3 330.65 483.0 333.45 482.55 336.5 481.75 340.1 480.7 343.6 479.85 346.1 477.85 346.1 478.6 343.4 479.45 339.7 480.0 336.4 480.4 333.2 480.6 330.4 M316.7 323.95 Q316.3 323.55 316.3 322.95 316.3 322.35 316.7 321.95 317.1 321.55 317.7 321.55 318.3 321.55 318.7 321.95 319.1 322.35 319.1 322.95 319.1 323.55 318.7 323.95 318.3 324.35 317.7 324.35 317.1 324.35 316.7 323.95 M316.15 327.15 L318.9 327.0 319.0 330.4 319.2 333.2 319.6 336.4 320.15 339.7 Q320.5 341.55 321.0 343.4 L321.75 346.1 319.75 346.1 318.9 343.6 317.85 340.1 317.05 336.5 316.6 333.45 316.3 330.65 Q316.15 328.9 316.15 327.15" fill="#000000" fill-rule="evenodd" stroke="none"/>
  </g>
</svg>
