<?xml version="1.0" encoding="UTF-8" standalone="no"?>
<svg xmlns:xlink="http://www.w3.org/1999/xlink" height="42.1px" width="154.0px" xmlns="http://www.w3.org/2000/svg">
  <g transform="matrix(1.0, 0.0, 0.0, 1.0, -322.8, -313.05)">
    <path d="M339.95 329.2 Q338.55 331.05 337.5 332.85 L336.7 334.25 Q332.15 343.25 334.9 355.15 332.95 354.4 331.25 353.35 332.6 347.7 332.0 342.7 L328.5 336.0 326.9 332.85 326.75 332.55 Q324.3 327.65 325.25 322.1 326.15 316.55 322.8 313.05 325.95 314.25 328.5 315.6 339.55 321.4 339.95 329.2 M476.8 313.05 Q473.45 316.55 474.35 322.1 475.3 327.65 472.85 332.55 L472.7 332.85 471.1 336.0 467.6 342.7 Q467.0 347.7 468.35 353.35 466.65 354.4 464.7 355.15 467.45 343.25 462.9 334.25 L462.1 332.85 459.65 329.2 Q460.05 321.4 471.1 315.6 473.65 314.25 476.8 313.05" fill="#000000" fill-rule="evenodd" stroke="none"/>
  </g>
</svg>
