<?xml version="1.0" encoding="UTF-8" standalone="no"?>
<svg xmlns:xlink="http://www.w3.org/1999/xlink" height="44.3px" width="18.0px" xmlns="http://www.w3.org/2000/svg">
  <g transform="matrix(1.0, 0.0, 0.0, 1.0, -337.45, -368.6)">
    <path d="M341.95 412.6 L341.8 412.65 341.5 412.7 Q338.4 413.4 337.6 411.5 337.25 410.8 337.8 410.1 L337.9 410.6 Q338.95 411.75 341.1 411.3 L341.35 411.25 Q344.05 410.65 344.25 408.9 L344.15 408.4 Q344.9 408.75 344.95 409.5 345.2 411.65 341.95 412.6 M347.1 370.05 L348.85 369.65 350.5 369.25 352.15 368.95 353.9 368.6 355.45 374.35 353.8 375.0 352.2 375.45 350.5 376.0 348.85 376.5 347.2 376.95 345.6 377.35 343.85 377.8 342.25 378.15 340.45 378.45 338.85 372.5 340.55 371.95 342.15 371.45 343.85 370.9 345.45 370.5 347.1 370.05" fill="#ffffff" fill-rule="evenodd" stroke="none"/>
  </g>
</svg>
