<?xml version="1.0" encoding="UTF-8" standalone="no"?>
<svg xmlns:xlink="http://www.w3.org/1999/xlink" height="335.65px" width="476.2px" xmlns="http://www.w3.org/2000/svg">
  <g transform="matrix(1.0, 0.0, 0.0, 1.0, -161.7, -134.7)">
    <path d="M511.9 187.3 Q501.95 171.95 491.65 157.6 L484.4 214.55 483.3 212.95 Q481.7 211.4 479.55 211.4 L477.55 211.75 489.2 147.55 482.9 150.55 Q452.5 138.7 418.15 135.25 456.5 132.6 495.25 143.15 L492.65 148.5 Q506.3 166.3 519.0 185.4 L523.1 191.7 Q538.95 216.0 553.1 242.05 587.75 305.9 612.5 380.6 L617.85 397.15 623.3 392.2 Q633.2 430.65 637.9 470.35 L636.3 465.3 Q625.65 431.65 614.3 400.35 L607.45 381.95 Q578.75 306.1 545.4 244.15 531.1 217.6 515.8 193.6 L511.9 187.3 M474.25 216.7 Q474.25 218.85 475.8 220.4 L476.0 220.6 477.0 221.35 471.15 224.65 455.75 231.45 455.75 229.65 399.8 254.65 343.85 229.65 343.85 231.45 328.5 224.65 322.6 221.35 323.6 220.6 323.8 220.4 Q325.4 218.85 325.4 216.7 L325.2 215.2 343.85 219.5 343.85 221.45 399.8 240.3 455.75 221.45 455.75 219.5 474.4 215.2 Q474.25 215.85 474.25 216.7 M476.5 215.65 L476.6 215.3 477.35 214.3 Q477.85 213.85 478.4 213.7 L479.6 213.45 Q480.9 213.45 481.85 214.3 482.75 215.3 482.75 216.6 L482.5 217.8 481.85 218.85 480.9 219.6 479.6 219.8 Q478.35 219.8 477.5 219.0 L477.35 218.85 Q476.4 217.9 476.4 216.6 L476.5 215.65 M280.6 185.4 Q293.3 166.3 306.95 148.5 L304.35 143.15 Q343.05 132.6 381.45 135.25 347.05 138.7 316.65 150.55 L310.4 147.55 322.0 211.75 320.05 211.4 Q317.9 211.4 316.35 212.95 315.6 213.7 315.2 214.55 L307.95 157.6 Q297.65 171.95 287.7 187.3 L283.8 193.6 Q268.5 217.6 254.25 244.15 220.9 306.1 192.2 381.95 L185.35 400.35 Q173.9 431.65 163.35 465.3 L161.7 470.35 Q166.4 430.65 176.35 392.2 L181.75 397.15 Q184.35 388.8 187.1 380.6 211.9 305.9 246.5 242.05 260.65 216.0 276.45 191.7 L280.6 185.4 M323.15 215.65 L323.2 216.6 Q323.2 217.9 322.25 218.85 L322.15 219.0 Q321.25 219.8 320.0 219.8 L318.7 219.6 317.75 218.85 317.1 217.8 316.85 216.6 Q316.85 215.3 317.75 214.3 318.7 213.45 320.0 213.45 L321.2 213.7 Q321.8 213.85 322.25 214.3 L322.95 215.3 323.15 215.65" fill="#000000" fill-rule="evenodd" stroke="none"/>
  </g>
</svg>
