<?xml version="1.0" encoding="UTF-8" standalone="no"?>
<svg xmlns:xlink="http://www.w3.org/1999/xlink" height="6.5px" width="9.9px" xmlns="http://www.w3.org/2000/svg">
  <g transform="matrix(1.0, 0.0, 0.0, 1.0, -394.9, -163.3)">
    <path d="M399.35 169.3 L399.7 168.95 399.8 168.7 399.8 168.3 399.8 168.25 399.7 167.95 Q398.2 167.95 396.95 167.05 395.45 166.05 395.4 164.55 L395.4 164.3 Q395.4 163.8 395.65 163.8 L395.85 163.85 397.45 164.55 397.55 164.6 Q398.95 165.25 399.85 165.25 L402.15 164.6 402.25 164.55 403.85 163.85 404.05 163.8 Q404.3 163.8 404.3 164.3 L404.3 164.55 Q404.25 166.05 402.75 167.05 401.35 168.05 400.05 167.9 L400.0 167.95 399.9 168.25 399.9 168.7 400.0 168.95 400.35 169.3 M400.0 167.95 L399.7 167.95" fill="none" stroke="#000000" stroke-linecap="round" stroke-linejoin="round" stroke-opacity="0.5019608" stroke-width="1.0"/>
  </g>
</svg>
