<?xml version="1.0" encoding="UTF-8" standalone="no"?>
<svg xmlns:xlink="http://www.w3.org/1999/xlink" height="24.95px" width="16.8px" xmlns="http://www.w3.org/2000/svg">
  <g transform="matrix(1.0, 0.0, 0.0, 1.0, -375.95, -154.2)">
    <path d="M381.15 178.65 Q380.25 178.15 379.8 176.7 L377.9 171.75 377.4 170.65 Q376.45 168.4 376.45 166.3 L376.45 164.75 376.55 163.4 376.7 162.15 377.2 159.6 377.85 157.6 Q379.0 155.15 380.0 154.85 L381.15 154.7 381.2 154.7 381.4 154.8 383.05 155.5 384.2 156.2 387.75 159.45 388.1 159.6 390.25 160.5 Q391.65 161.15 392.25 161.85" fill="none" stroke="#000000" stroke-linecap="round" stroke-linejoin="round" stroke-width="1.0"/>
    <path d="M392.25 161.85 Q388.9 175.35 381.15 178.65 M387.75 159.45 L388.1 159.8 388.15 159.8 389.25 161.05 M384.95 160.75 L384.3 159.9 Q383.75 161.1 383.65 162.45 L383.65 163.0 383.95 162.45 384.2 162.45 Q384.05 164.1 384.6 165.65 L384.65 164.85 384.8 164.8 384.95 165.25 Q385.3 166.4 386.15 167.3 L388.1 165.65 M384.3 159.9 L383.05 158.7 381.4 157.75 381.15 157.6 379.75 157.5 Q378.4 160.3 378.35 163.7 378.25 167.15 379.1 169.9 L379.6 171.2 Q380.2 172.75 381.15 173.75 L381.4 174.0 381.7 174.2 382.2 174.55 382.5 173.5 Q382.95 172.2 383.85 170.95 L384.2 170.2 385.55 168.05 386.15 167.3 M382.2 174.55 Q381.6 175.8 382.1 177.1 L382.2 177.4" fill="none" stroke="#000000" stroke-linecap="round" stroke-linejoin="round" stroke-opacity="0.5019608" stroke-width="1.0"/>
  </g>
</svg>
