<?xml version="1.0" encoding="UTF-8" standalone="no"?>
<svg xmlns:xlink="http://www.w3.org/1999/xlink" height="24.0px" width="57.5px" xmlns="http://www.w3.org/2000/svg">
  <g transform="matrix(1.0, 0.0, 0.0, 1.0, -371.1, -162.7)">
    <path d="M387.9 163.9 Q386.85 175.5 382.0 186.7 379.35 185.05 379.45 181.8 376.65 180.3 377.15 176.15 L379.0 179.85 379.95 180.9 380.7 178.25 Q381.15 174.85 382.85 172.15 L383.1 171.9 385.15 168.7 383.9 167.25 383.7 167.05 383.4 166.9 383.1 166.7 382.75 166.55 382.4 166.4 380.55 166.05 379.8 166.1 379.3 166.7 378.75 167.4 378.25 168.05 377.8 168.75 377.4 169.55 376.75 171.0 376.6 171.5 376.15 172.85 375.95 173.7 375.3 175.8 Q374.95 177.15 374.1 178.25 373.8 178.8 373.1 178.25 372.25 177.25 371.75 176.0 371.0 174.0 371.1 171.95 371.6 167.8 373.8 168.05 L373.85 168.05 374.75 168.3 374.75 168.2 375.25 167.2 Q379.0 159.85 386.65 164.45 L387.9 163.9 M425.9 168.05 Q428.1 167.8 428.6 171.95 428.7 174.0 427.95 176.0 L426.6 178.25 Q425.9 178.8 425.6 178.25 424.75 177.15 424.4 175.8 L423.75 173.7 423.55 172.85 423.1 171.5 422.95 171.0 422.3 169.55 421.9 168.75 421.45 168.05 420.95 167.4 420.4 166.7 419.9 166.1 419.15 166.05 417.3 166.4 416.95 166.55 416.6 166.7 416.3 166.9 416.0 167.05 415.8 167.25 414.55 168.7 416.6 171.9 416.85 172.15 Q418.55 174.85 419.0 178.25 L419.75 180.9 420.7 179.85 422.55 176.15 Q423.05 180.3 420.25 181.8 420.35 185.05 417.7 186.7 412.85 175.5 411.8 163.9 L413.05 164.45 Q420.7 159.85 424.45 167.2 L424.95 168.2 424.95 168.3 425.85 168.05 425.9 168.05" fill="#000000" fill-rule="evenodd" stroke="none"/>
  </g>
</svg>
