<?xml version="1.0" encoding="UTF-8" standalone="no"?>
<svg xmlns:xlink="http://www.w3.org/1999/xlink" height="17.1px" width="43.0px" xmlns="http://www.w3.org/2000/svg">
  <g transform="matrix(1.0, 0.0, 0.0, 1.0, -378.35, -157.45)">
    <path d="M384.8 164.8 L384.95 165.25 Q385.3 166.4 386.15 167.3 L385.55 168.05 384.2 170.2 383.85 170.95 Q382.95 172.2 382.5 173.5 L382.2 174.55 381.7 174.2 381.4 174.0 381.15 173.75 Q380.2 172.75 379.6 171.2 L379.1 169.9 Q378.25 167.15 378.35 163.7 378.4 160.3 379.75 157.5 L381.15 157.6 381.4 157.75 383.05 158.7 384.3 159.9 Q383.75 161.1 383.65 162.45 L383.65 163.0 383.95 162.45 384.2 162.45 Q384.05 164.1 384.6 165.65 L384.65 164.85 384.8 164.8 M418.55 157.6 L419.95 157.5 Q421.3 160.3 421.35 163.7 421.45 167.15 420.6 169.9 L420.1 171.2 Q419.5 172.75 418.55 173.75 L418.3 174.0 418.0 174.2 417.5 174.55 417.2 173.5 415.85 170.95 415.5 170.2 414.15 168.05 413.55 167.3 414.75 165.25 414.9 164.8 415.05 164.85 415.1 165.65 Q415.65 164.1 415.5 162.45 L415.75 162.45 416.05 163.0 416.05 162.45 Q415.95 161.1 415.4 159.9 L416.65 158.7 Q417.45 158.15 418.3 157.75 L418.55 157.6" fill="#000000" fill-rule="evenodd" stroke="none"/>
  </g>
</svg>
