<?xml version="1.0" encoding="UTF-8" standalone="no"?>
<svg xmlns:xlink="http://www.w3.org/1999/xlink" height="15.4px" width="49.9px" xmlns="http://www.w3.org/2000/svg">
  <g transform="matrix(1.0, 0.0, 0.0, 1.0, -374.9, -177.95)">
    <path d="M383.2 179.35 Q383.05 179.0 382.55 178.75 L381.45 178.45 381.4 178.45 Q375.3 179.35 375.4 184.3 L375.45 185.05 Q376.05 190.65 382.55 192.85 M416.5 179.35 Q416.65 179.0 417.15 178.75 L418.25 178.45 418.3 178.45 Q424.4 179.35 424.3 184.3 L424.25 185.05 Q423.65 190.65 417.15 192.85" fill="none" stroke="#000000" stroke-linecap="round" stroke-linejoin="round" stroke-width="1.0"/>
    <path d="M382.55 192.85 L383.5 189.85 383.5 189.8 382.4 189.8 Q381.7 188.4 383.05 187.35 L383.4 187.1 Q383.55 185.75 382.95 183.75 L382.9 183.65 Q382.15 181.1 380.55 181.1 378.85 181.1 377.9 182.3 377.15 183.2 377.0 184.35 M379.7 188.0 Q379.7 186.65 380.6 185.4 381.5 184.2 382.65 183.85 M383.5 189.8 L384.4 185.1 383.95 183.55 383.25 179.7 383.2 179.35 M417.15 192.85 L416.2 189.85 416.2 189.8 Q415.7 187.8 415.3 185.1 L415.75 183.55 416.45 179.7 416.5 179.35 M420.0 188.0 Q420.0 186.65 419.1 185.4 418.2 184.2 417.05 183.85 M416.2 189.8 L417.3 189.8 Q418.0 188.4 416.65 187.35 L416.3 187.1 Q416.15 185.75 416.75 183.75 L416.8 183.65 Q417.55 181.1 419.15 181.1 420.85 181.1 421.8 182.3 422.55 183.2 422.7 184.35" fill="none" stroke="#000000" stroke-linecap="round" stroke-linejoin="round" stroke-opacity="0.5019608" stroke-width="1.0"/>
  </g>
</svg>
