<?xml version="1.0" encoding="UTF-8" standalone="no"?>
<svg xmlns:xlink="http://www.w3.org/1999/xlink" height="6.0px" width="46.7px" xmlns="http://www.w3.org/2000/svg">
  <g transform="matrix(1.0, 0.0, 0.0, 1.0, -376.45, -189.8)">
    <path d="M380.85 190.3 L381.45 190.75 Q382.25 191.55 382.25 192.65 L382.25 192.9 Q382.15 193.85 381.45 194.5 380.7 195.3 379.6 195.3 378.5 195.3 377.7 194.5 376.95 193.75 376.95 192.65 376.95 191.55 377.7 190.75 L378.3 190.35 379.0 191.45 378.65 191.7 Q378.25 192.1 378.25 192.65 378.25 193.2 378.65 193.55 379.05 193.95 379.6 193.95 380.15 193.95 380.5 193.55 L380.9 192.8 380.9 192.65 Q380.9 192.1 380.5 191.7 L380.3 191.5 380.85 190.3 M420.95 191.7 Q421.35 192.1 421.35 192.65 421.35 193.2 420.95 193.55 420.55 193.95 420.0 193.95 419.45 193.95 419.1 193.55 418.75 193.25 418.7 192.8 L418.7 192.65 Q418.7 192.1 419.1 191.7 L419.3 191.5 418.75 190.3 418.15 190.75 Q417.35 191.55 417.35 192.65 L417.35 192.9 Q417.45 193.85 418.15 194.5 418.9 195.3 420.0 195.3 421.1 195.3 421.9 194.5 422.65 193.75 422.65 192.65 422.65 191.55 421.9 190.75 421.6 190.5 421.3 190.35 L420.6 191.45 420.95 191.7" fill="none" stroke="#000000" stroke-linecap="round" stroke-linejoin="round" stroke-width="1.0"/>
  </g>
</svg>
