<?xml version="1.0" encoding="UTF-8" standalone="no"?>
<svg xmlns:xlink="http://www.w3.org/1999/xlink" height="11.55px" width="59.35px" xmlns="http://www.w3.org/2000/svg">
  <g transform="matrix(1.0, 0.0, 0.0, 1.0, -370.25, -148.8)">
    <path d="M391.55 152.7 Q394.85 151.1 399.9 151.3 405.0 151.1 408.3 152.7 L415.1 156.7 Q418.2 159.05 422.2 158.95 L423.5 158.75 Q425.05 158.3 426.7 156.95 428.85 155.05 428.9 153.0 429.05 150.25 426.3 149.8 L423.5 150.0 Q422.35 150.4 421.1 151.3 422.1 149.85 423.5 149.3 424.8 148.7 426.45 148.8 429.05 149.45 429.35 151.55 430.15 154.2 428.25 156.9 426.25 159.6 423.5 160.2 L423.25 160.2 Q417.85 160.9 413.45 158.75 407.35 154.95 399.9 155.0 392.5 154.95 386.4 158.75 382.0 160.9 376.6 160.2 373.65 159.75 371.6 156.9 369.7 154.2 370.45 151.55 370.8 149.45 373.4 148.8 376.85 148.55 378.75 151.3 376.05 149.3 373.55 149.8 370.8 150.25 370.95 153.0 371.0 155.05 373.15 156.95 375.4 158.9 377.6 158.95 381.65 159.05 384.7 156.7 L391.55 152.7" fill="#000000" fill-rule="evenodd" stroke="none"/>
  </g>
</svg>
