<?xml version="1.0" encoding="UTF-8" standalone="no"?>
<svg xmlns:xlink="http://www.w3.org/1999/xlink" height="230.4px" width="49.5px" xmlns="http://www.w3.org/2000/svg">
  <g transform="matrix(1.0, 0.0, 0.0, 1.0, -375.2, -136.8)">
    <path d="M376.2 147.8 L376.4 146.85 375.85 137.4 375.8 136.8 377.7 136.8 Q377.15 144.2 383.8 149.55 384.25 158.3 390.75 162.85 394.35 166.35 396.75 163.2 L403.1 163.2 Q405.5 166.35 409.1 162.85 415.6 158.3 416.05 149.55 422.65 144.2 422.15 136.8 L424.05 136.8 424.05 137.5 423.5 146.85 423.7 147.8 Q425.2 154.95 424.4 163.95 L422.1 160.65 Q422.1 168.7 423.5 176.75 L423.95 179.1 Q424.95 187.7 423.75 196.25 L423.5 198.15 422.75 202.45 420.85 200.15 Q418.9 211.3 420.15 223.1 417.45 219.3 417.15 215.45 414.75 229.6 417.15 247.1 413.95 240.2 413.0 233.25 413.35 247.8 417.55 268.4 L412.9 261.75 Q410.0 266.85 410.5 274.2 413.1 290.85 410.5 307.5 L408.35 289.8 Q406.35 308.4 408.35 329.4 410.1 338.9 408.35 347.4 L406.2 341.6 Q405.1 355.25 400.0 367.2 L400.0 363.85 399.9 367.2 Q394.8 355.25 393.7 341.6 L391.55 347.4 Q389.8 338.9 391.55 329.4 393.55 308.4 391.55 289.8 L389.4 307.5 Q386.8 290.85 389.4 274.2 389.9 266.85 387.0 261.75 L382.35 268.4 Q386.55 247.8 386.9 233.25 385.95 240.2 382.75 247.1 385.15 229.6 382.75 215.45 382.45 219.3 379.75 223.1 381.0 211.3 379.05 200.15 L377.15 202.45 Q376.5 199.4 376.15 196.25 374.95 187.7 375.95 179.1 377.8 169.9 377.8 160.65 L375.5 163.95 Q374.7 154.95 376.2 147.8" fill="#000000" fill-rule="evenodd" stroke="none"/>
  </g>
</svg>
