<?xml version="1.0" encoding="UTF-8" standalone="no"?>
<svg xmlns:xlink="http://www.w3.org/1999/xlink" height="11.9px" width="29.3px" xmlns="http://www.w3.org/2000/svg">
  <g transform="matrix(1.0, 0.0, 0.0, 1.0, 31.6, 148.5)">
    <path d="M-4.95 -146.05 L-4.5 -145.55 -4.3 -145.35 -3.85 -144.8 -2.85 -143.55 -2.65 -143.2 -2.55 -142.85 -2.45 -142.55 -2.3 -142.15 -2.65 -141.35 -3.2 -140.55 -3.25 -140.2 -3.4 -139.6 Q-3.7 -138.95 -4.35 -138.4 L-4.7 -138.2 -5.7 -138.15 Q-6.15 -138.15 -6.4 -137.8 L-7.3 -137.0 -7.5 -136.8 -8.45 -136.65 -8.95 -136.7 Q-9.45 -136.65 -10.05 -137.05 -10.7 -137.25 -10.7 -138.0 L-11.8 -138.2 -12.15 -138.25 -12.65 -138.35 -13.1 -138.45 -13.65 -138.5 -14.25 -138.55 -15.0 -138.8 -15.5 -138.95 -16.05 -139.3 -16.35 -139.65 -17.15 -140.4 Q-17.7 -140.65 -18.15 -141.15 -18.55 -141.5 -19.1 -141.65 L-21.7 -141.55 -22.05 -141.5 -22.35 -141.4 Q-22.9 -141.3 -23.0 -141.7 L-23.3 -142.15 -24.1 -142.4 -25.0 -142.75 -25.5 -143.2 -25.8 -143.55 -26.2 -143.65 Q-26.5 -143.65 -26.95 -144.3 L-27.45 -144.9 -27.7 -145.2 -28.5 -145.95 Q-28.7 -146.2 -29.05 -146.35 -29.45 -146.55 -29.65 -146.85 L-30.15 -147.05 -30.45 -147.45 -31.6 -148.5 -30.95 -148.0 -31.0 -148.05 -31.6 -148.5 Q-29.05 -147.55 -27.45 -147.6 L-27.05 -147.6 -24.85 -147.25 -23.85 -146.8 Q-23.25 -146.5 -22.6 -147.15 L-21.1 -147.25 Q-20.2 -146.65 -19.95 -146.9 -19.75 -147.2 -18.9 -146.05 -18.1 -144.9 -17.1 -145.4 -17.0 -146.15 -17.6 -148.25 L-16.65 -147.15 -15.75 -147.1 Q-14.65 -147.0 -13.8 -147.65 L-12.55 -148.0 -12.15 -148.1 -11.05 -148.2 -10.65 -148.0 -10.15 -147.4 -9.9 -147.2 -6.7 -146.8 -6.2 -146.75 -4.95 -146.05" fill="url(#gradient0)" fill-rule="evenodd" stroke="none"/>
  </g>
  <defs>
    <radialGradient cx="0" cy="0" gradientTransform="matrix(0.0297, 0.0, 0.0, 0.0297, -8.85, -142.3)" gradientUnits="userSpaceOnUse" id="gradient0" r="819.2" spreadMethod="pad">
      <stop offset="0.0" stop-color="#000000" stop-opacity="0.2"/>
      <stop offset="1.0" stop-color="#000000" stop-opacity="0.0"/>
    </radialGradient>
  </defs>
</svg>
