<?xml version="1.0" encoding="UTF-8" standalone="no"?>
<svg xmlns:xlink="http://www.w3.org/1999/xlink" height="374.25px" width="265.1px" xmlns="http://www.w3.org/2000/svg">
  <g transform="matrix(1.0, 0.0, 0.0, 1.0, 0.0, 0.0)">
    <path d="M246.15 45.95 L246.15 49.4 247.5 51.75 247.5 57.15 245.05 59.0 245.05 63.3 241.75 65.55 239.8 63.45 239.8 61.2 238.3 59.85 238.3 57.5 236.55 55.95 236.55 51.95 238.9 49.05 238.9 45.95 241.0 43.1 244.6 40.2 244.6 43.85 246.15 45.95 M172.6 21.35 L176.25 24.45 176.25 28.7 173.4 31.4 170.1 28.7 170.1 23.9 172.6 21.35 M184.8 3.1 L184.8 7.35 181.95 10.05 178.65 7.35 178.65 2.55 181.15 0.0 184.8 3.1 M196.95 58.3 L200.9 55.25 203.6 61.4 204.0 62.15 204.0 66.8 207.05 71.9 207.05 86.2 203.75 89.3 203.75 93.05 200.55 95.6 200.55 98.65 198.15 101.6 193.1 98.5 191.1 98.5 190.05 95.6 188.55 95.6 188.55 84.05 190.4 76.6 190.4 72.4 193.65 67.15 193.65 64.1 196.95 58.3 M165.7 65.55 L169.6 69.35 169.6 73.8 172.25 77.25 172.25 91.8 168.65 96.8 168.65 98.9 166.1 101.6 163.85 99.15 163.85 92.75 161.3 87.35 161.3 77.25 164.0 74.3 164.0 70.35 165.7 65.55 M238.5 94.5 L239.6 96.25 239.6 102.15 241.55 104.1 241.55 105.6 244.55 108.3 246.35 112.95 246.35 115.05 248.45 116.4 248.45 131.95 246.9 137.1 246.9 150.75 240.95 157.65 238.25 160.2 229.8 161.7 226.2 157.15 225.0 152.5 223.25 149.8 223.25 137.55 221.75 133.15 221.75 124.45 226.2 120.25 226.2 114.85 227.7 112.95 227.7 111.6 230.6 108.9 233.7 104.85 233.7 96.4 235.55 92.8 238.5 91.05 238.5 94.5 M197.1 163.4 L198.8 158.6 202.7 162.4 202.7 166.85 205.35 170.3 205.35 184.85 201.75 189.85 201.75 191.95 199.2 194.65 196.95 192.2 196.95 185.8 194.4 180.4 194.4 170.3 197.1 167.35 197.1 163.4 M163.85 142.5 L163.85 147.9 161.4 149.75 161.4 154.05 158.1 156.3 156.15 154.2 156.15 151.95 154.65 150.6 154.65 148.25 152.9 146.7 152.9 142.7 155.25 139.8 155.25 136.7 157.35 133.85 160.95 130.95 160.95 134.6 162.5 136.7 162.5 140.15 163.85 142.5 M236.4 190.45 L240.35 187.4 243.05 193.55 243.45 194.3 243.45 198.95 246.5 204.05 246.5 218.35 243.2 221.45 243.2 225.2 240.0 227.75 240.0 230.8 237.6 233.75 232.55 230.65 230.55 230.65 229.5 227.75 228.0 227.75 228.0 216.2 229.85 208.75 229.85 204.55 233.1 199.3 233.1 196.25 236.4 190.45 M256.5 145.05 L258.6 142.2 262.2 139.3 262.2 142.95 263.75 145.05 263.75 148.5 265.1 150.85 265.1 156.25 262.65 158.1 262.65 162.4 259.35 164.65 257.4 162.55 257.4 160.3 255.9 158.95 255.9 156.6 254.15 155.05 254.15 151.05 256.5 148.15 256.5 145.05 M250.85 182.0 L248.0 179.3 248.0 175.05 251.7 171.95 254.15 174.5 254.15 179.3 250.85 182.0 M92.5 21.35 L95.0 23.9 95.0 28.7 91.7 31.4 88.85 28.7 88.85 24.45 92.5 21.35 M83.15 10.05 L80.3 7.35 80.3 3.1 83.95 0.0 86.45 2.55 86.45 7.35 83.15 10.05 M64.2 55.25 L68.15 58.3 71.45 64.1 71.45 67.15 74.7 72.4 74.7 76.6 76.55 84.05 76.55 95.6 75.05 95.6 74.0 98.5 72.0 98.5 66.95 101.6 64.55 98.65 64.55 95.6 61.35 93.05 61.35 89.3 58.05 86.2 58.05 71.9 61.1 66.8 61.1 62.15 61.5 61.4 64.2 55.25 M26.6 94.5 L26.6 91.05 29.55 92.8 31.4 96.4 31.4 104.85 34.5 108.9 37.4 111.6 37.4 112.95 38.9 114.85 38.9 120.25 43.35 124.45 43.35 133.15 41.85 137.55 41.85 149.8 40.1 152.5 38.9 157.15 35.3 161.7 26.85 160.2 24.15 157.65 18.2 150.75 18.2 137.1 16.65 131.95 16.65 116.4 18.75 115.05 18.75 112.95 20.55 108.3 23.55 105.6 23.55 104.1 25.5 102.15 25.5 96.25 26.6 94.5 M18.95 45.95 L20.5 43.85 20.5 40.2 24.1 43.1 26.2 45.95 26.2 49.05 28.55 51.95 28.55 55.95 26.8 57.5 26.8 59.85 25.3 61.2 25.3 63.45 23.35 65.55 20.05 63.3 20.05 59.0 17.6 57.15 17.6 51.75 18.95 49.4 18.95 45.95 M99.4 65.55 L101.1 70.35 101.1 74.3 103.8 77.25 103.8 87.35 101.25 92.75 101.25 99.15 99.0 101.6 96.45 98.9 96.45 96.8 92.85 91.8 92.85 77.25 95.5 73.8 95.5 69.35 99.4 65.55 M8.6 148.15 L10.95 151.05 10.95 155.05 9.2 156.6 9.2 158.95 7.7 160.3 7.7 162.55 5.75 164.65 2.45 162.4 2.45 158.1 0.0 156.25 0.0 150.85 1.35 148.5 1.35 145.05 2.9 142.95 2.9 139.3 6.5 142.2 8.6 145.05 8.6 148.15 M104.15 130.95 L107.75 133.85 109.85 136.7 109.85 139.8 112.2 142.7 112.2 146.7 110.45 148.25 110.45 150.6 108.95 151.95 108.95 154.2 107.0 156.3 103.7 154.05 103.7 149.75 101.25 147.9 101.25 142.5 102.6 140.15 102.6 136.7 104.15 134.6 104.15 130.95 M68.0 163.4 L68.0 167.35 70.7 170.3 70.7 180.4 68.15 185.8 68.15 192.2 65.9 194.65 63.35 191.95 63.35 189.85 59.75 184.85 59.75 170.3 62.4 166.85 62.4 162.4 66.3 158.6 68.0 163.4 M28.7 190.45 L32.0 196.25 32.0 199.3 35.25 204.55 35.25 208.75 37.1 216.2 37.1 227.75 35.6 227.75 34.55 230.65 32.55 230.65 27.5 233.75 25.1 230.8 25.1 227.75 21.9 225.2 21.9 221.45 18.6 218.35 18.6 204.05 21.65 198.95 21.65 194.3 22.05 193.55 24.75 187.4 28.7 190.45 M14.25 182.0 L10.95 179.3 10.95 174.5 13.4 171.95 17.1 175.05 17.1 179.3 14.25 182.0 M155.8 208.8 L159.1 203.0 163.05 199.95 165.75 206.1 166.15 206.85 166.15 211.5 169.2 216.6 169.2 230.9 165.9 234.0 165.9 237.75 162.7 240.3 162.7 243.35 160.3 246.3 155.25 243.2 153.25 243.2 152.2 240.3 150.7 240.3 150.7 228.75 152.55 221.3 152.55 217.1 155.8 211.85 155.8 208.8 M102.05 199.95 L106.0 203.0 109.3 208.8 109.3 211.85 112.55 217.1 112.55 221.3 114.4 228.75 114.4 240.3 112.9 240.3 111.85 243.2 109.85 243.2 104.8 246.3 102.4 243.35 102.4 240.3 99.2 237.75 99.2 234.0 95.9 230.9 95.9 216.6 98.95 211.5 98.95 206.85 99.35 206.1 102.05 199.95 M99.75 289.95 L99.75 286.5 101.3 284.4 101.3 280.75 104.9 283.65 107.0 286.5 107.0 289.6 109.35 292.5 109.35 296.5 107.6 298.05 107.6 300.4 106.1 301.75 106.1 304.0 104.15 306.1 100.85 303.85 100.85 299.55 98.4 297.7 98.4 292.3 99.75 289.95 M68.95 243.1 L71.45 245.65 71.45 250.45 68.15 253.15 65.3 250.45 65.3 246.2 68.95 243.1 M155.75 296.5 L155.75 292.5 158.1 289.6 158.1 286.5 160.2 283.65 163.8 280.75 163.8 284.4 165.35 286.5 165.35 289.95 166.7 292.3 166.7 297.7 164.25 299.55 164.25 303.85 160.95 306.1 159.0 304.0 159.0 301.75 157.5 300.4 157.5 298.05 155.75 296.5 M54.75 207.85 L51.9 205.15 51.9 200.9 55.55 197.8 58.05 200.35 58.05 205.15 54.75 207.85 M62.4 283.1 L62.4 278.65 66.3 274.85 68.0 279.65 68.0 283.6 70.7 286.55 70.7 296.65 68.15 302.05 68.15 308.45 65.9 310.9 63.35 308.2 63.35 306.1 59.75 301.1 59.75 286.55 62.4 283.1 M64.2 265.3 L60.9 268.0 58.05 265.3 58.05 261.05 61.7 257.95 64.2 260.5 64.2 265.3 M69.95 333.65 L72.45 336.2 72.45 341.0 69.15 343.7 66.3 341.0 66.3 336.75 69.95 333.65 M49.05 374.25 L45.75 371.55 45.75 366.75 48.2 364.2 51.9 367.3 51.9 371.55 49.05 374.25 M98.05 314.2 L99.75 319.0 99.75 322.95 102.45 325.9 102.45 336.0 99.9 341.4 99.9 347.8 97.65 350.25 95.1 347.55 95.1 345.45 91.5 340.45 91.5 325.9 94.15 322.45 94.15 318.0 98.05 314.2 M193.65 245.65 L196.15 243.1 199.8 246.2 199.8 250.45 196.95 253.15 193.65 250.45 193.65 245.65 M213.2 205.15 L210.35 207.85 207.05 205.15 207.05 200.35 209.55 197.8 213.2 200.9 213.2 205.15 M200.9 260.5 L203.4 257.95 207.05 261.05 207.05 265.3 204.2 268.0 200.9 265.3 200.9 260.5 M197.1 279.65 L198.8 274.85 202.7 278.65 202.7 283.1 205.35 286.55 205.35 301.1 201.75 306.1 201.75 308.2 199.2 310.9 196.95 308.45 196.95 302.05 194.4 296.65 194.4 286.55 197.1 283.6 197.1 279.65 M192.65 341.0 L192.65 336.2 195.15 333.65 198.8 336.75 198.8 341.0 195.95 343.7 192.65 341.0 M165.35 319.0 L167.05 314.2 170.95 318.0 170.95 322.45 173.6 325.9 173.6 340.45 170.0 345.45 170.0 347.55 167.45 350.25 165.2 347.8 165.2 341.4 162.65 336.0 162.65 325.9 165.35 322.95 165.35 319.0 M216.05 374.25 L213.2 371.55 213.2 367.3 216.9 364.2 219.35 366.75 219.35 371.55 216.05 374.25" fill="#000000" fill-rule="evenodd" stroke="none"/>
  </g>
</svg>
