<?xml version="1.0" encoding="UTF-8" standalone="no"?>
<svg xmlns:xlink="http://www.w3.org/1999/xlink" height="19.0px" width="33.5px" xmlns="http://www.w3.org/2000/svg">
  <g transform="matrix(1.0, 0.0, 0.0, 1.0, -383.1, -186.85)">
    <path d="M413.0 187.35 L413.6 188.3 414.85 188.9 414.85 189.65 416.1 191.2 416.1 193.05 415.45 192.85 414.9 196.3 413.65 196.1 412.05 200.95 411.05 200.05 408.55 204.05 407.9 203.55 406.6 204.75 405.55 203.45 403.7 205.0 402.4 203.4 400.75 205.35 399.85 204.75 398.95 205.35 397.25 203.4 396.0 205.0 394.15 203.45 393.1 204.75 391.75 203.55 391.15 204.05 388.65 200.05 387.65 200.95 386.05 196.1 384.8 196.3 384.25 192.85 383.6 193.05 383.6 191.2 384.85 189.65 384.85 188.9 386.1 188.3 386.65 187.35 M384.05 192.35 L384.65 192.35 385.15 195.65 386.35 195.3 387.8 199.85 388.7 198.95 391.1 203.1 391.65 202.2 392.95 203.95 394.05 202.45 396.0 203.95 397.2 202.35 399.05 204.5 399.85 203.65 400.65 204.5 402.5 202.35 403.7 203.95 405.6 202.45 406.7 203.95 408.05 202.2 408.6 203.1 411.0 198.95 411.85 199.85 413.35 195.3 414.55 195.65 415.0 192.35 415.6 192.35 415.6 191.2 414.4 190.05 414.4 189.2 413.8 188.55 413.95 188.85 413.55 190.05 414.6 191.65 414.3 194.3 413.0 194.3 411.95 196.95 410.75 196.7 408.25 200.7 406.05 199.3 403.55 201.8 401.2 200.25 399.85 201.4 398.5 200.25 396.15 201.8 393.65 199.3 391.4 200.7 388.9 196.7 387.7 196.95 386.65 194.3 385.4 194.3 385.05 191.65 386.1 190.05 385.7 188.85 385.9 188.55 385.25 189.2 385.25 190.05 384.05 191.2 384.05 192.35 M386.1 188.3 L385.9 188.55 M413.8 188.55 L413.6 188.3" fill="none" stroke="#000000" stroke-linecap="round" stroke-linejoin="round" stroke-opacity="0.49803922" stroke-width="1.0"/>
  </g>
</svg>
