<?xml version="1.0" encoding="UTF-8" standalone="no"?>
<svg xmlns:xlink="http://www.w3.org/1999/xlink" height="8.1px" width="17.4px" xmlns="http://www.w3.org/2000/svg">
  <g transform="matrix(1.0, 0.0, 0.0, 1.0, -391.2, -198.45)">
    <path d="M391.7 202.5 L391.95 202.25 Q392.8 201.1 393.75 200.4 395.9 198.7 398.35 199.0 L399.9 199.3 401.45 199.0 Q403.9 198.7 406.05 200.4 L407.85 202.25 408.1 202.5 M406.05 200.4 L405.35 200.95 Q406.8 202.45 406.2 203.5 407.3 203.0 407.85 202.25 M402.05 200.55 Q402.25 201.25 401.95 201.6 L403.6 201.4 403.9 200.6 M395.9 200.6 Q395.9 201.15 396.2 201.4 L397.85 201.6 Q397.55 201.25 397.75 200.55 M397.85 201.6 L399.9 201.85 Q401.5 202.1 401.95 201.6 M396.2 201.4 L394.45 200.95 Q393.0 202.45 393.6 203.5 395.2 204.2 398.0 204.4 L401.8 204.4 406.2 203.5 M394.45 200.95 L393.75 200.4 M391.95 202.25 Q392.5 203.0 393.6 203.5 M405.6 205.05 Q403.55 206.25 399.9 206.0 396.25 206.25 394.2 205.05 M403.6 201.4 L405.35 200.95" fill="none" stroke="#000000" stroke-linecap="round" stroke-linejoin="round" stroke-opacity="0.5019608" stroke-width="1.0"/>
  </g>
</svg>
